<svg version="1.1" xmlns="http://www.w3.org/2000/svg" x="0" y="0" width="411.02" height="660" viewBox="0 0 411.02 660" xml:space="preserve"><path d="M251.748 59.952c-.27 1.84 1.497 5.071 0 6.376-2.331-1.044-1.381-5.135-1.592-7.173-1.635-15.638-4.382-32.952-5.843-49.147-.211-2.32-1.381-5.166.266-7.173 1.931 7.925 2.081 16.467 3.187 24.971 1.074 8.264 2.242 16.617 3.188 24.442.392 3.212.365 4.814 1.857 7.174 5.451 8.597 20.164 15.249 33.474 15.938 4.698.244 6.745-1.379 10.626-2.921 1.854-.737 3.831-1.678 5.578-2.391 11.702-4.776 24.369-7.064 37.456-10.36 16.663-4.198 29.538-15.327 43.834-20.19-2.204 3.134-6.238 4.051-9.563 5.844-9.561 5.162-19.461 11.435-30.817 14.877-8.027 2.435-16.384 3.661-24.438 6.111-7.733 2.354-15.757 4.385-22.848 7.704-3.647 1.708-6.671 4.38-10.359 6.111-3.869 1.813-7.782 2.822-11.688 4.782-3.687.823-7.381 1.763-10.895 2.921-2.349.775-4.911 3.019-7.437 1.859.936-1.561 3.86-1.982 5.845-2.657 8.924-3.028 19.681-5.099 26.828-10.094-16.154-1.735-29.765-6.011-36.659-17.004zM185.076 24.885c2.385 9.13 3.801 19.224 5.313 29.222-2.395-9.116-3.738-19.284-5.313-29.222zM191.187 56.763c.551.547.773 2.422.532 2.923-1.12-.033-.265-2.039-.532-2.923zM358.807 133.802c-.682 1.07-2.104 2.285-3.454 1.86.193-.726-.527-.536-.531-1.063.271-1.325 1.793-1.394 2.655-2.125-6.256-13.975 16.626-17.492 16.474-4.25-.09 7.628-9.931 11.528-15.144 5.578zM93.427 142.04c.223.235 1.356-1.167 2.391-.266-.082 2.828 2.197 3.293 2.657 5.579-.092.972-.911 1.215-1.595 1.594-1.5-1.599-3.15-3.046-3.719-5.579-5.646 5.411-16.814 2.124-15.675-6.906 1.637-12.945 22.812-7.343 15.941 5.578zM353.759 137.256c-2.076 2.352-4.89 3.964-7.438 5.844-.546-.251-.735-.858-1.062-1.327 2.262-1.867 4.814-5.787 8.5-4.517zM343.398 145.493c-1.516 1.937-3.486 3.42-5.047 5.313 7.071 8.858-5.678 20.243-12.486 12.219-2.313 1.668-4.518 3.453-6.109 5.846-1.07.006-1.52-.607-1.86-1.329 1.757-2.32 3.627-4.521 6.644-5.579-4.877-7.385 3.448-17.026 11.421-12.486 2.848-.621 4.165-6.371 7.437-3.984zM104.849 156.917c2.112 1.512 2.583 5.802 3.455 7.703-.17.893-1.275.852-2.393.798.55-3.799-3.883-5.622-1.062-8.501z"/><path d="M115.476 181.089c1.604 2.088 1.563 6.109 2.922 7.705-.389.23-.841.397-.797 1.062-.985.189-1.14-.453-2.125-.266.233-3.544-2.026-4.655-1.859-7.438-5.519 1.969-11.597-2.101-12.22-6.908-.705-5.431 3.752-10.617 10.36-9.562 6.918 1.105 9.681 10.346 3.719 15.407zM316.566 171.793c-1.783 2.645-4.095 4.758-6.109 7.173-.868-.421-2.51-1.297-1.325-2.657.278-.323.933-.158 1.325-.532 1.761-1.667 3.651-5.674 6.109-3.984zM118.663 190.918c.225 1.015.449 2.031.531 3.188 9.467-1.515 13.437 11.456 6.111 15.407.848.559-1.792 1.338-2.922 1.593.2.685.849.924 1.857.798-2.071 1.374.327 4.963-.797 6.908-.813-.161-1.384-.564-2.125-.798.185-3.179-.535-5.247-.266-6.376-10.091.88-12.188-14.503-3.72-17.002-.508-1.551-.978-3.818 1.331-3.718zM288.672 200.217c.903.071 2.156-.206 2.657.266-.927 2.014-3.577 4.552-5.046 6.906-.81.013-1.033-.56-1.594-.796.477-2.981 3.224-3.683 3.983-6.376zM284.69 209.25c-1.437 3.17-4.138 5.071-5.847 7.969-.681.286-.93-1.144-1.327-.266-.297-3.485 3.854-4.821 5.048-7.703.974.196 1.477-.654 2.126 0zM121.055 222.266c-.073 1.394-1.769 1.337-2.657 2.658-2.808 4.174-.547 12.1 6.11 9.83-1.706-1.442-7.326-2.754-4.782-5.845-.531 1.042-.122 2.308.797 2.657-.412-1.241-.195-2.416 0-3.718.591 1.596-.183 4.837 1.86 4.25-.067.288-.529.18-.532.532 2.116 2.155 6.05 1.593 7.438-.798-2.601 1.147-6.038.547-7.438-2.125.139-.835.467-1.483.797-2.125.708.655-.538 1.89.531 2.391.751-.223 1.64-.309 2.392-.532-.227.572-.656.938-1.595.798.01.875.756 1.015 1.595 1.063 2.676-3.994-2.897-8.479-6.643-5.312 2.541-3.907 9.767-.275 7.703 4.517.812.733.833-.934 1.859-.798-.282 1.045-1.04 1.617-2.126 1.859.932.654 2.216-.608 3.453-.531 2.368-3.052-.874-6.688-2.655-8.768-1.062-.272-3.97-.093-3.983-.529 1.161-.759 2.479.257 3.983 0 1.743 1.971 3.656 3.229 3.985 6.11 1.013 8.867-18.054 11.632-14.345-1.86 1.215-1.448 2.448-2.87 4.253-3.724z"/><path d="M124.772 223.063c.228-.049.25.104.267.266 3.023.696 4.949 2.489 4.516 6.643-.672-2.111-1.092-7.117-5.046-5.313-.193-.813.27-.97.263-1.596zM116.007 224.658c.115 1.608-1.857 4.596-.797 7.172.462.957 2.012.822 1.858 2.391 1.869 1.144 4.284 2.237 7.172 1.594-2.099 1.681-5.327-.115-7.172-1.063-.678-.651-.455-2.201-2.125-1.859-1.032-3.215-.464-5.886 1.064-8.235zM121.32 225.985c-.672.657-.792 1.866-1.858 2.125-.032-1.359.855-1.797 1.858-2.125zM126.366 236.876c-.973 2.299.785 5.822-.796 7.971-.604-.193-1.356-.238-1.859-.532.221-2.853.357-3.957-.267-6.376.692-.859 1.667-1.456 2.922-1.063zM263.966 239.003c-1.303 2.771-3.334 4.811-4.516 7.703-.813-.07-1.191-.575-1.858-.798 1.491-2.723 2.923-7.861 6.374-6.905zM126.633 247.238c.007 3.156.367 5.601-.267 9.032-.993-.479-1.508.215-2.125-.532.255-2.645.229-4.515 0-7.173.492-.748 1.044-1.435 2.392-1.327zM126.633 259.726c-.241 3.568.769 6.243-.267 8.767-.671-.124-1.861.074-2.391-.798.684-2.159.727-4.384.266-6.376.388-.943 1.075-1.583 2.392-1.593zM237.141 282.573c-.585 4.021-2.821 6.391-3.982 9.832-.954-.023-1.536-.414-2.392-.533 2.083-2.965 2.438-9.074 6.374-9.299zM243.517 309.407c.474-.074.545.252.266.268-1.512 6.15-4.272 12.217-5.578 19.131-.31 1.637.208 3.453 0 5.313-.569 5.064-1.144 13.348-1.595 19.658-.17 2.363-.234 5.123-1.858 6.643 2.441-13.611 1.214-26.6 4.782-40.115 1.002-3.808 2.699-7.179 3.983-10.898zM126.366 314.989c.289.064.183.525.531.529 1.134 9.992 1.712 22.223.799 34.008-.756-12.097.184-23.707-1.33-34.537zM218.017 333.851c-1.403 3.287-2.235 7.021-3.452 9.83-1.04.156-1.541-.229-2.126-.531 1.644-3.016 1.744-10.221 5.578-9.299zM127.696 351.917c.309-.043.473.059.531.266-.621 17.049-1.23 36.189-.266 54.992.969 18.926 4.646 37.041 7.702 53.131-1.935-3.682-1.919-7.93-2.921-11.955-5.002-20.072-7.247-42.486-5.845-65.35.604-9.846-.586-19.545.798-30.287l.001-.797zM234.748 366.526c.259.01.206.326.267.531-2.25 39.752-2.355 84.652-18.062 113.699.791-3.615 3.006-6.881 4.249-10.625 3.685-11.096 6.807-23.799 8.501-37.191.582-4.617.332-9.561 1.063-14.344.703-4.611 1.404-9.025 1.595-13.551.369-8.879 1.549-17.557 1.855-25.768.169-4.424-.34-8.692.532-12.751zM206.86 375.03c.145 3.264-2.109 6.928-1.592 10.627h-2.392c-.392-2.418 1.572-5.924 1.595-9.566.746-.404 1.044-1.258 2.389-1.061zM184.014 392.562c-1.457-1.021-1.438-3.521-2.656-4.781-3.821-1.828-6.637.836-8.5 3.188.012 1.984-.686 3.654-.266 5.578.954 4.379 8.031 4.523 10.359 1.33.028 3.432-7.841 3.713-10.094 1.326-3.144-4.385-.089-10.742 2.922-13.018 2.839-1.047 6.191-.434 7.703 1.326.374 1.9 2.466 3.816.532 5.051zM204.736 387.78c.73 2.676-1.212 6.404-1.329 9.83-1.04-.264-1.542.586-2.125 0 1.289-3.14-.051-8.906 3.454-9.83z"/><path d="M178.968 389.905c.939.379 1.003 2.926-.267 3.188.121-1.588-.101-2.192.267-3.188z"/><path d="M178.968 395.485c-1.088-.586-1.144-3.928-3.984-2.658 1.229-2.822 4.982.76 3.984 2.658zM202.346 399.733c.428-.072.456.252.795.266.56 2.514-.189 6.861 0 9.033-.635.16-1.211.381-2.125.266.213-2.492-.765-7.86 1.33-9.565zM202.875 412.22c.763 2.445-1.596 6.23-.796 9.564-.748.367-1.528.703-2.391.266.505-2.565-.262-8.721 3.187-9.83zM202.611 433.739c-.886.088-1.18.771-2.392.529.493-2.334-2.383-9.582 1.86-9.563.226 2.782.189 6.228.532 9.034zM202.346 436.663c.299 3.139-1.504 5.742-1.064 9.826-.658.316-1.563.387-2.391.531 1.046-3.556-.463-9.673 3.455-10.357zM201.282 449.146c.394 1.959-.146 6.775.267 9.564-1.109-.061-1.254.432-2.124 0 .696-4.283-2.238-7.758 1.857-9.564zM201.547 469.069c-.846.443-1.11.455-2.124.268-.279-2.756.458-5.621 0-7.703 3.676-3.766 2.021 4.4 2.124 7.435zM136.728 463.759c.429-.074.457.252.798.266 2.306 6.58 5.375 12.598 8.767 18.33 1.055 1.785 2.994 3.326 2.921 5.58-1.626-.938-2.215-3.047-3.188-4.783-3.094-5.518-7.312-11.547-9.299-18.596-.318-.35-.105-.418.001-.797zM199.688 479.696c1.092-2.189-1.793-9.039 1.858-8.504-.307 3.911 3.022 8.397-1.858 8.504zM201.282 483.681c-.945-1.223 1.808-1.861 2.125-.531-.118.767-2.007-.237-2.125.531zM203.406 521.933c.278 2.543.857 7.139.797 9.033-.974-.084-1.819.76-2.391.266 1.132-2.856-2.273-7.571 1.594-9.299zM204.736 540.265c2.047-.645 3.765.584 5.576 0 .609.633 1.61.869 2.658 1.063 1.714 2.076 3.595 4.137 3.718 7.174.217 5.279-5.629 10.037-10.624 8.766-1.156-.295-1.64-1.395-3.452-1.326-2.438-2.508-4.608-6.49-2.922-10.895.521-1.365 2.042-2.432 2.922-3.719-.16-2.447-.172-3.646-.799-5.313 2.536-3.735 2.784 1.203 2.923 4.25zM206.063 71.905c3.219-13.083 7.489-25.705 11.156-38.785 1.222-4.36 2.65-8.56 3.718-12.752.47-1.846 1.814-8.026 1.063-3.453-.901 5.489-2.663 10.654-4.248 16.47-2.897 10.626-5.944 21.862-9.297 32.677-.595 1.917-.841 4.406-2.392 5.843zM69.782 258.129c-.595 8.607-.623 15.137-1.328 25.772-.177 2.645.183 5.932-1.594 7.971-1.428-.953-.389-2.887-.266-3.986.54-4.836.556-9.574.796-14.347.313-6.201 1.205-12.584.267-18.863-.339-2.258-1.755-4.564-2.125-6.905-.556-3.516.014-7.972.267-11.956.451-7.148.255-14.134 0-21.252-.152-4.275-1.535-8.196-1.329-11.956.136-2.481 1.418-5.603 2.392-8.5 1.818-5.407 3.465-10.479 5.578-15.675.98-2.41 1.103-5.799 3.719-6.906-.811 4.156-3.049 9.164-4.781 13.282-.911 6.56-4.691 11.02-5.047 17.532-.166 3.031.837 6.295 1.063 9.565.716 10.337-1.829 23.453.533 34.27.349 1.604 1.004 2.644 1.594 4.25 1.092 2.985 1.437 6.477 2.125 9.565 2.861 12.852 6.534 24.448 9.033 37.462 1.924 10.023 3.538 18.113 2.125 28.959-1.045 8.021-4.14 15.57-6.376 23.379-2.171 7.59-4.668 15.121-7.173 22.58-2.495 7.434-4.232 15.273-6.642 22.582-1.236 3.756-2.554 7.51-3.72 11.156-1.085 3.4-2.855 6.496-3.717 9.563-.763 2.703-.916 5.609-1.861 8.238-1.058 2.934-3.021 5.422-3.984 8.232-1.09 3.186-1.464 6.52-2.392 9.83-1.75 6.254-3.568 12.502-4.516 19.127-1.868 13.092-4.566 26.17-5.845 39.85a812.753 812.753 0 0 0-3.452 65.084c-.269 20.328-1.228 36.139.266 56.053.679 9.07 1.505 18.318 2.391 28.428.083.957.951 3.047-.53 3.721-1.981-.781-1.004-3.486-1.063-4.781-.59-12.986-1.996-25.238-2.922-37.459-.364-4.781.129-9.547 0-14.344-.771-28.342 1.085-57.369 2.922-85.809.899-13.953 3.593-27.547 5.313-41.176 1.766-13.996 4.916-27.545 8.766-40.381 3.668-4.836 3.883-10.205 5.579-15.674.604-1.945 1.753-3.82 2.391-5.846 1.951-6.189 3.873-12.043 5.844-18.063 2.563-7.822 4.574-16.02 7.438-23.908 1.368-3.764 2.593-7.842 3.72-11.955 2.906-10.615 8.557-24.529 8.766-38.258.066-4.271-1.241-9.398-2.125-14.348-2.556-14.334-6.288-27.856-9.299-40.119.039.166-.209.205-.266-.265-.096-.79-.449-2.775-.535-3.719zM304.612 182.151c.951-.577 2.082-1.709 3.455-1.063.25 1.402-.81 1.494-1.327 2.126 2.243 8.437-3.095 15.529-11.423 13.017-.913.148-1.353.773-1.861 1.328-.805-.079-.743-1.024-1.591-1.063-.129-.834.714-.702.798-1.328-1.064-2.128-3.007-3.678-3.188-6.109-.569-7.557 9.58-13.05 15.137-6.908zM272.736 225.985c-.589.21-.665.929-1.063 1.329-.813-.161-1.385-.564-2.126-.797-.667-.701.665-.896.797-1.594-.787-1.229-3.119-.123-4.25 0 .829-1.74 5.396.26 5.846-1.86-.144-1.793-2.605-.502-3.454-1.064.782-.987 2.896-.646 4.518-.795.849-.302.682-1.621 1.326-2.126 1.06-.085 1.963-.016 2.391.531-.787.719-1.081 1.929-1.857 2.656 2.31 2.128 2.882 6.234 1.325 9.564-.18-1.917 1.36-7.186-1.591-8.767-.683.026-.382 1.038-1.064 1.063 1.924 1.327 2.521 5.683.798 7.703.198-1.414 1.405-6.111-1.063-6.907-.007.853.698 3.571-.532 4.516-.356-.373.904-2.487-.001-3.452zm0-4.515h-1.329c-.096.907 1.537 1.12 1.329 0z"/><path d="M264.765 223.063c-1.803 1.925-4.575 7.965-.531 10.361.769-.12.628-1.145 1.327-1.328-1.303-.689-1.831-3.289-.797-4.782.307 1.338-.787 3.566 1.063 4.25 1.187-1.1-.855-3.736.532-5.312 1.048.379-.537 1.668 0 3.187.568.342 2.704-.968 3.454.266-.084.625-.42.997-.266 1.859-.765-.055-1.349.067-1.594.532.756.613 2.168.613 2.922 0 .449 1.774-4.236-.456-3.982 1.595 2.076.742 5.37-1.002 5.579-2.126.825.897-3.395 3.224-6.377 2.922.034.478-.325.56-.267 1.063 3.96.677 6.537-.845 9.033-2.655.462 1.495-4.553 2.735-7.173 3.454-.813.193-.781-.458-1.595-.266-.829.146-1.145.805-1.859 1.062-.319-.299-.479-.758-1.326-.53-.646-3.43-2.223-5.925-1.595-10.627 1.206-.92 2.287-1.966 3.452-2.925zm-.532 10.627c-.97.329-1.425-1.206-1.857-.532.244.628 1.57 2.306 1.857.532zM226.783 308.345c-.097 1.156-.042 1.223-.268 1.859.89 1.572 3.588 3.932 2.39 5.846.26.271.525.537.799.797-.586 4.742-3.41 9.031-9.296 9.301-.42 1.439-1.146 2.576-1.594 3.986-.766-.033-1.739.145-2.126-.268.094-2.061 1.048-2.33 1.328-3.721-.412-.484-1.048-2.121-1.594-1.592-.048.227.104.25.266.266-1.769.26-2.497-2.814-3.982-3.721-2.654-7.354 3.562-14.432 11.155-12.223 1.198-.065 1.806-1.134 2.922-.53zM213.236 347.933c.419 2.15-2.211 6.131-2.126 8.766 3.103 1.531 6.891 4.129 6.375 9.299-.477 4.813-4.921 7.881-9.296 7.703-10.12-.414-11.656-17.045.531-17.27 1.586-2.754.463-8.215 4.516-8.498zM205.532 507.854c-1.182 2.371-3.498 6.367-1.859 9.83-.643.332-1.29.656-2.125.799-.403-.75-.253-2.053-.531-2.926-2.096 1.713-2.853 4.762-4.782 6.645.029-4.307 6.419-6.805 4.517-12.223.444-.439.887-.883 1.328-1.326 1.079-.105.816 1.131 1.593 1.326.773-.55 1.106-1.546 1.859-2.125z"/><path d="M409.283 109.896c-1.337 2.865-4.308 4.321-6.643 6.109-2.446 1.874-4.647 3.918-7.172 5.58-15.106 13.786-29.822 28.642-43.568 44.895-6.395 7.564-15.141 13.545-22.049 22.049a186.485 186.485 0 0 0-13.813 19.393c-1.411 2.279-3.458 4.902-3.983 6.907-.887 3.359-.025 7.082-.799 10.36-2.669 11.342-6.777 20.907-13.547 28.691-4.94 13.22-9.851 25.52-12.753 39.584-2.987 14.461-1.501 29.84-.797 45.168.729 15.939 3.688 29.813 6.374 44.365 1.282 6.945 3.729 13.633 5.048 20.453 1.036 5.371 1.923 10.557 2.922 15.941 1.781 9.598 4.952 24.045 6.906 35.598.703 4.15.46 8.713 1.596 13.02 1.108 4.221 2.158 7.934 2.392 12.217.438 8.199 1.694 16.242 2.921 24.441 2.476 16.553 5.159 32.676 6.11 49.414 1.421 24.975 3.69 51.707 4.25 77.039.156 6.99-.754 14.506-2.124 22.313-.103.576.169 2.355-1.063 2.391-1.616-.547-.397-3.139-.266-4.781.457-5.625 1.301-10.877 1.594-15.939.963-16.572-.911-32.857-1.328-48.613-.099-3.736-.724-7.584-1.063-11.424-1.015-11.557-1.903-21.822-2.391-32.408-.662-14.463-4.238-28.672-6.108-42.771-.902-6.785-1.742-13.344-2.126-20.189-.396-7.018-2.814-13.844-3.719-20.723-1.83-13.889-4.525-27.6-7.174-40.912-1.231-6.189-2.068-12.77-3.721-19.127-3.371-12.982-6.715-27.027-8.765-41.176-1.008-6.928-1.22-13.643-1.597-20.721-.741-13.912-2.198-28.113.268-41.715 2.363-13.043 7.12-25.114 11.688-37.993-14.308 7.634-29.33 18.255-51.533 16.737-2.549 1.463-2.601 6.455-5.845 6.377-1.707-1.842 1.862-3.989 2.391-6.109-11.442-2.571-24.512-4.564-30.812-13.019 1.037-.969 2.396 1.918 3.453 2.656 5.476 2.979 12.042 5.396 19.922 6.908 3.84.736 7.13 2.464 10.891.798 1.045-.426.092 1.146.798 1.063 13.629.126 22.745-2.997 33.204-7.969 8.083-3.842 16.105-7.733 20.987-13.548 3.738-4.458 6.279-11.079 8.501-17.269 2.22-6.187 4.391-12.61 3.189-18.596 2.594-6.482-1.405-17.373-1.595-24.972 2.413.802 1.917 4.433 2.39 7.173.693 4.018 2.048 7.504 1.595 13.017 6.498-9.677 12.877-19.284 20.987-27.894 3.973-4.22 8.307-7.941 12.483-11.954 8.292-7.964 15.128-17.063 23.381-25.503 12.328-12.61 24.52-25.437 39.582-35.332h.531zM104.053 155.854c-.827.629-1.237.291-2.125.532-.285-.603-.603-1.169-1.063-1.595.133-.662.503-1.093.797-1.593-.225-.25-1.37-.891-1.594-.266-.872-1.683-2.343-2.691-.797-4.251 2.881 1.692 3.485 4.119 4.782 7.173z"/><path d="M148.418 4.694c1.552.698.788 4.116.53 6.376-1.369 11.972-1.767 26.862-2.391 40.645-.09 1.987.655 4.662-1.063 6.11-1.613.108-.439-2.572-.798-3.719-12.52 8.111-29.183 14.385-43.035 22.051 7.339 1.036 15.15.376 22.314 1.593 7.36 1.252 14.691 4.625 22.581 5.313 3.046.266 6.008-.26 9.033 1.063-1.067 1.09-4.326.69-6.908.532-11.039-.681-18.9-4.599-30.551-5.844-13.687-1.464-28.208-.921-39.582 2.125-3.695.99-6.95 2.594-10.627 3.985-7.158 2.707-14.438 5.124-21.253 8.235-7.536 3.442-12.686 8.953-19.394 13.283-7.175 7.986-13.488 17.695-16.202 30.814-2.131 10.295-3.237 22.923-3.985 34.801-.489 7.766.183 15.763-.797 23.644-.574 4.625-1.503 9.025-1.859 13.55-.992 12.56-1.213 25.183-.798 37.457.635 18.748 1.252 37.013 2.657 55.527.303 3.988.479 9.568-.798 10.361-1.238-3.098-.271-6.59-.53-10.098-.288-3.875-1.125-7.814-1.328-11.158C2.22 268.051 2.345 243.667 2.307 222c-.028-15.914 2.887-26.927 3.188-41.176.469-22.199 1.347-45.361 10.894-62.162.65-1.147 1.438-2.268 2.125-3.455 5.415-9.365 15.678-16.799 25.502-22.049 8.818-4.711 19.643-8.54 29.488-12.221 5.251-1.962 11.187-2.889 17.268-3.718 2.038-.278 4.233-.12 6.375-.532 2.9-.558 6.685-3.206 10.095-5.046 3.431-1.853 7.053-3.13 10.095-4.783 7.118-3.865 14.251-6.512 20.19-9.829 3.493-1.951 5.973-3.963 7.703-7.704.656-14.859.972-28.783 2.657-43.833v-.797l.531-.001zM253.076 254.675c7.575 4.682 2.893 19.099-7.965 15.675-5.437-1.712-7.982-11.699-2.127-15.408 1.831-1.155 6.227-2.559 8.498-.795 2.068-1.229 1.771-6.175 5.315-5.049-.699 2.137-2.026 5.057-3.189 5.844-.213-.049-.265-.267-.532-.267zM81.206 205.266c-5.212 27.914 8.243 57.088 33.472 62.96 11.101 2.584 24.441 2.149 34.801-2.124 4.622-3.261 10.446-5.318 14.611-9.034 4.231-4.182 7.562-9.264 10.626-14.61-.104 2.019-1.518 2.735-1.329 5.047-1.063.973-1.541 2.531-2.657 3.454-2.254 4.823-6.997 9.226-12.22 12.22-1.481.849-3.324 1.099-4.782 1.859-2.549 1.33-4.784 3.455-7.703 4.25-5.7 1.555-11.736 2.287-18.862 2.126-.319 1.467-.09 4.336-.797 5.845 3.745-.878 6.235 2.535 7.971 3.721 2.263 3.783.75 7.105-.798 10.629-2.578 1.932-6.006 3.699-9.83 2.391-2.217-.758-3.542-3.307-5.047-4.518.957.109.363-.484-.266-.266-.056-2.236-.557-4.537 0-6.377.663-2.191 2.63-3.174 3.719-5.047 1.363.211 1.743-.561 2.922-.531-.811-.631-.944-5 1.063-5.579-9.996-1.538-18.943-3.662-26.036-8.236-12.063-7.78-20.484-24.86-21.783-41.707-.394-5.1.399-10.378 1.327-15.674.542-.078.521-.72 1.064-.798l.534-.001zM231.563 296.122c-1.001 2.846-2.534 5.525-3.188 7.971-3.457.477-2.276-1.785-1.061-4.25 1.026-2.086 2.261-5.055 4.249-3.721zM203.141 500.683v4.518c-1.113-.037-1.484.482-2.391 0 .136-.906.204-3.16.266-3.984-2.413-1.131-4.86-2.227-6.375-4.25-4.728-9.736 7.014-17.143 14.08-11.158 3.952 5.26 1.967 15.014-5.58 14.874zM164.355 520.077c5.682 7.152 7.956 16.428 8.768 28.688 2.511 4.176 10.651.449 12.75-2.92 1.869-2.998 2.347-7.957 3.986-11.957 1.782-4.348 3.145-8.287 5.313-10.625.896 2.213-1.003 4.459-1.859 6.375-2.496 5.584-5.59 13.434-6.908 20.191-3.58 18.365-3.054 37.344-3.719 54.457-.321 8.295-.524 16.941-.266 25.504.266 8.717 1.147 17.277.53 25.504-1.753-.859-.95-3.984-1.062-6.375-.656-14.15-1.487-30.656-.797-47.021.74-17.559.818-36.539 4.25-53.133-3.252 2.152-6.768 4.037-11.423 4.781.397 27.016 3.351 66.852.266 94.842-.253 2.297.415 5.729-1.592 6.904-1.232.035-.558-1.707-.532-2.123.771-12.803 2.984-29.998 2.124-41.441-.182-1.199.446-.609 1.064-.535.411-1.117-1.478.063-1.064-1.063-.346-14.193-1.219-30.166-1.858-44.895-.354-8.137-.294-16.262-1.328-24.174-.301-2.293-1.649-4.4-1.859-6.643-.073-.793.384-1.863.266-2.654-.62-4.187-3.852-7.771-5.05-11.687z"/></svg>