<svg version="1.1" xmlns="http://www.w3.org/2000/svg" x="0" y="0" width="411.023" height="410.007" viewBox="-42.52 0 411.023 410.007" xml:space="preserve"><path d="M23.942 0h.443c16.881 11.113 28.711 27.279 41.881 42.104 6.156 5.2 12.068 10.943 18.615 15.953 6.457 4.941 12.764 9.646 20.607 13.961 5.238 2.882 10.662 5.51 16.619 6.426 3.181.489 6.209.407 9.085 1.107 2.917.712 5.621 2.391 8.865 2.882.676.103 1.323-.136 1.993 0 6.089 1.244 18.588.848 23.932.666 3.017-.104 4.959-1.435 6.866-2.884 3.113-8.124 7.88-15.664 11.967-23.044.761-1.373.821-3.443 2.435-4.211.552 2.914-1.952 5.302-3.321 7.755-1.419 2.544-2.283 5.479-3.767 7.98-2.104 3.539-4.956 7.65-6.203 12.408-1.141.782-2.285 1.557-3.324 2.438-10.616.162-26.947 1.991-37.007-1.995 1.712 2.572 5.297 5.191 7.535 7.977-4.267-2.142-7.088-8.185-12.409-9.528-3.568-.901-7.12-.706-10.415-1.551-8.747-2.246-14.694-6.607-21.495-10.859-6.204-3.877-11.999-7.803-17.284-12.63-5.067-4.626-11.032-9.303-15.735-14.183-3.292-3.419-6.324-7.087-9.306-10.635-3.075-3.661-6.076-7.135-9.308-10.638C38.945 12.705 31.894 6.781 24.164.664 23.906.628 23.977.26 23.942 0zM294.278 71.796c1.223.941-.345 3.36-.885 4.876-2.983 8.377-7.659 17.527-10.415 26.591-1.324 1.767-1.857 4.001-2.882 6.425-.835 1.982-2.905 4.549-2.658 6.425.206 1.561 4.272 4.53 5.76 5.762 6.281 5.199 12.675 11.731 18.615 15.956 1.061 1.453 1.978 3.043 3.989 3.544 6.548 7.486 13.852 14.217 19.942 22.159 1.159.393 2.321.78 3.101 1.552 2.341.024 3.723 1.006 5.765 1.329.645-.056.763.416 1.106.664 7.997 2.056 16.314 4.681 23.49 7.977 1.935.892 3.516 2.234 5.76 3.323.802.391 2.808.395 2.215 2.217-1.4-.077-2.033-.92-2.658-1.771-2.436-.814-4.581-1.922-6.428-3.325-10.496-4.497-23.049-6.938-33.682-11.301-13.347-18.12-30.911-32.02-47.862-46.535-1.946 4.439-3.764 9.445-5.319 14.181-.771 2.341-1.285 4.879-2.882 6.648 4.73-17.241 11.914-30.916 17.95-47.201 1.651-4.458 4.101-7.891 4.875-13.072 1.406-1.328 1.958-3.508 2.435-5.763-.061-.357.212-.382.223-.665.154.004.301.004.445.004zM42.556 83.541c.424.388 1.363.26 1.329 1.107-.467-.346-1.229-.395-1.329-1.107zM146.041 94.399c.716.17 1.16.614 1.329 1.329-.386-.499-1.262-.509-1.329-1.329zM125.212 152.457c-11.102 3.007-19.453 8.764-27.699 14.626 3.528-3.604 7.964-6.257 12.408-8.864 4.33-2.54 9.364-5.04 15.291-5.762zM299.597 160.656c-12.773-1.007-29.647-.016-42.102-.222-.42-.046-2.191.15-1.554-.221h1.997c15.142-.099 28.459-1.337 41.659.443zM93.078 171.293c.599 1.83-2.606 3.558-3.101 5.761.909-.056 3.542-.296 4.432-1.109 11.967-2.596 26.271-2.63 40.774-1.992 8.686.38 17.412.121 24.818 2.438 21.339 2.443 39.528 8.034 53.396 17.947 1.45 2.167 5.524 1.717 5.76 5.097-6.255-2.624-11.556-6.693-17.728-9.75-12.184-6.035-27.242-9.254-42.982-11.522-7.636-1.102-15.294-.964-23.267-1.771-.96-.098-.935-.387-1.552-.445-17.349-1.607-31.51 1.371-45.649 3.989-8.363 12.802-11.725 34.446-8.419 53.847 16.416.446 38.086 1.181 56.506.443 1.817-.072 4.072-1.127 4.211 1.773-21.401 1.521-39.883-.308-59.831.885.182 1.664.789 2.905.887 4.654-.82-1.396-.775-3.655-1.552-5.098-3.584.134-8.863-.628-13.074-.886-1.552-.094-4.3.701-4.211-1.329.238-1.611 2.482-.545 3.544-.443 4.299.411 9.387.657 13.075.443-3.393-17.829-.207-41.117 7.535-53.847-7.385 1.466-13.574 4.772-19.28 7.756-1.57.821-2.977 2.931-5.096 1.994-.476-2.783 3.688-2.799 4.875-4.653 6.372-3.453 13.343-6.306 21.495-7.978 1.508-2.042 3.062-4.033 4.434-6.204z"/><path d="M153.132 222.481c1.049-.118.604 1.254.441 1.771-.786-.346-.041-.942-.441-1.771zM159.337 224.031c-.788-.173-1.275-.645-1.993-.885-.178-.843 1.047-.283 1.551-.444-.108.699.679.503.442 1.329zM159.337 222.702c.701.039.603.877.666 1.551-.233-.507-.693-.784-.666-1.551zM161.33 223.81a32.502 32.502 0 0 0 2.659 1.995c-.917.007-.608.551-1.108 1.106-.489-.025-.095-.938-.221-1.327-.41.032-.136.75-.444.886-.429-.604-.846-1.223-1.772-1.328.059-.52.974-.129 1.108 0 .163-.679-.381-.654-.222-1.332zM156.899 224.031c.675-.009.862.469 1.33.665-.201.399-1.27-.19-1.33-.665zM155.127 224.473v.666c.393-.051 1.11.222.885-.443.515-.072.853.035 1.109.223-.539.71-.271.78 0 1.551-.836.739-1.17-1.022-1.552 0-.651-.188.288-.559 0-1.108-.396-.062-.455.21-.222.223-.417.557-.805-.177-.442-.665-.625.259-.941.044-1.552-.223.419-.742.896-.142 1.774-.224zM152.024 224.473v.887c-.635.043-1.209.027-1.108-.664.535.09.483-.404 1.108-.223zM145.82 225.361c.484-.039.705.184.665.665h-1.328c-.09-.53 1.007.123.663-.665zM145.599 226.469c.908-.103-.092.474.221 1.108-1.339.369-2.139 3.316-3.324 5.098.166-2.938 2.077-4.127 3.103-6.206zM161.33 226.469c-.296.367-.564.762-1.107.887.2-.489-.118-1.038 1.107-.887zM163.767 226.469c.454.422.446.962.222 1.552-.451-.424-.443-.963-.222-1.552zM152.911 226.69c.472-.104.422.317.443.666h-1.107c.067-.879.768.247.664-.666zM149.364 227.578c-.106.697.681.502.445 1.329-.86.192-.363-.967-1.33-.665-.46.057-.06.975-.443 1.107-.894-.617-.079-2.126 1.328-1.771zM165.099 227.578c1.153 1.84 2.069 2.911 1.993 6.203 15.421.906 33.474 1.971 48.742 3.325.221.79 1.14 1.125.665 1.994-15.68-1.154-33.958-2.313-49.629-3.102-1.192 4.721-3.867 9.129-8.42 9.75 4.087-.949 9.517-8.014 8.2-14.182-.327-1.528-2.305-1.975-1.551-3.988zM163.991 228.465v1.106c-1.037-.036-.735-.569-1.772-.221v-.664c.321-.343 1.133-.195 1.772-.221z"/><path d="M164.212 229.795c1.014.065.107 1.417-.665 1.106.019-.572.947-.233.665-1.106zM157.123 231.122c-1.371.11-2.641.314-3.548.887-.406.627-.66 1.407-1.107 1.996-.143.893.289 2.355-.221 2.88v-2.88c.187-.847.657-1.411.885-2.217 1.057-.244 3.083-1.732 3.991-.666zM161.33 231.566c.638.251.823.949.886 1.772-.429-.455-.615-1.154-.886-1.772zM142.052 234.668c.358-.061.382.208.666.223-.894.885-1.277 2.937-.223 3.987-1.775-.16-1.11-3.353-.443-4.21zM149.143 234.668c.318.354-.312 1.984.221 2.66-.755-.161-.497-2.165-.221-2.66zM162.883 235.554c.775 3.368-3.229 6.956-7.091 6.426 3.605-.897 6.933-2.077 7.091-6.426zM142.496 240.65c.188 1.364.6 2.503 1.108 3.545-.578-.454-.883-1.186-1.552-1.55.017-.797-.179-1.804.444-1.995zM151.36 242.204c1.192-.005 1.158 2.229-.221 1.992.763-.668.652-1.015.221-1.992zM82.443 245.305c1.437 1.962 2.364 4.431 3.324 6.869 3.565 5.518 5.95 12.222 10.416 16.842 1.65 2.767 3.478 5.785 5.761 8.197.608.644 2.065 1.046 1.772 2.217-9.021-9.444-15.997-20.934-21.273-34.125zM145.377 245.526c1.656.855 2.926 2.095 5.097 2.438-2.016.388-4.045-1.126-5.097-2.438zM340.595 246.413c-2.31.746-4.513-.938-6.872 0 1.679-1.392 4.579-.281 6.872 0zM333.281 245.969c-1.594.991-3.371 1.799-4.653 3.101.181-1.518 2.523-2.789 4.653-3.101zM337.27 247.078c.279.054.224.44 0 .441-.069.588 1.24-.208.885.665-.55.289-.918-.65-1.106 0-.67-.269.157-.843.221-1.106zM338.378 247.52c.811.049.852.306 1.553 0 .287.522-.029.414.221 1.108-.83-.987-1.313.249-1.774-1.108zM330.623 249.737c.807-.661.283 1.884-.222 1.992-.941-.669.907-1.576.222-1.992zM346.135 249.515c.619.416.83 1.238 1.328 1.771-.604.444-1.278-.926-1.328-1.771zM326.412 250.844c.736.574-.71 2.645-1.329 3.323-.234-.903 1.082-2.162 1.329-3.323zM331.509 251.288c.262.256.782.251 1.329.221-.051.71-1.436.508-1.329-.221zM348.57 252.617c.894.217.779 1.438.889 2.438-.526-.583-.732-1.486-.889-2.438zM334.833 254.389c.496.16.729 1.287-.221 1.329-.006-.52.382-.652.221-1.329zM338.378 254.834c-.45.805-1.5 1.011-1.994 1.771-.159-.677.382-.65.223-1.328.981.243 1.1-.375 1.771-.443zM324.64 255.94c.242.662-.08 2.933-.225 3.325-1.099-.6.035-2.559.225-3.325zM349.901 257.493c.729.64.483 2.61-.221 3.323.378-1.336-.061-2.085.221-3.323zM327.741 258.599c.495.097.79.393.887.888-.988-.547-.699.412-.887.665-1.098-.113.126-1.014 0-1.553zM329.959 258.599v1.109c-.396-.027-.47.271-.889.221-.542-.295.245-.824-.222-.886.189-.327.715-.321 1.111-.444zM343.031 260.816c.523 2.336-4.476 3.573-6.206 1.772 2.282.947 5.632.325 6.206-1.772zM349.901 261.925c.603.619-.261 1.648-.442 2.217-.534-.548.334-1.578.442-2.217zM323.973 262.147c.512.449.597 1.326.667 2.216-.652-.312-.682-1.24-.667-2.216zM335.941 263.919c-.483.448-1.892-.03-1.108 1.108-.795.13-.674-.657-.667-1.33.696-.344 1.239-.142 1.775.222zM336.384 263.919c.667.012.643 1.574-.222 1.329.256-.261.251-.782.222-1.329zM325.748 265.913c.432.456.616 1.154.886 1.772-.903.016-.957-.819-.886-1.772zM345.248 269.903c-.216.005-.173.271-.221.441h-1.33c.145-.298.474-.412.888-.441v-.885c-.164-.209-.402-.338-.667-.445-.582-.067-.726.308-.665.887-.721.04-1.065-.522-1.106.443-.601.158.159-1.045-.443-.885 1.183-.954 3.453-1.356 3.544.885zM330.623 270.788c3.168.728 7.397 1.844 11.523.665-1.962 1.732-5.606.38-7.312 1.108-1.033-.513-2.821-1.022-4.211-1.773zM47.212 87.085c.195-.253 1.398.362 1.549.888-.808-.004-.996-.631-1.549-.888zM52.085 90.853c.999-.254 2.21 1.184 2.659 2.215-1.054-.57-1.435-1.814-2.659-2.215zM55.632 93.512c.707.546 1.158 1.354 1.995 1.773-.777.398-1.627-1.026-1.995-1.773zM60.284 98.165c1.728.786 2.557 2.55 3.766 3.988 2.338 2.777 4.701 5.141 6.869 8.422 1.729 2.61 3.312 5.014 5.098 7.976 3.688 6.121 7.044 12.75 10.417 18.836 1.527 4.148 3.626 9.854 5.096 15.068.933 3.308 2.013 5.765-.222 7.978 1.417-4.371-.734-9.026-2.215-13.518-6.164-18.649-17.215-36.007-28.809-48.75zM150.474 98.831c.679-.447 1.492.863 2.437.886 4.808 5.542 14.261 7.065 21.715 10.86 6.47 3.292 12.883 5.697 18.61 9.083 3.803 3.732 9.139 5.929 12.405 10.194-3.492-3.301-9.128-6.379-13.07-9.971-12.213-6.696-26.383-11.434-38.775-17.949-.672-1.469-1.943-2.341-3.322-3.103zM151.58 222.038c-.356-.873 1.043.839.888.443.487.027.094.939.221 1.329-.721.013.006-1.136-.665-.443-.745-.341.502-1.299-.444-1.329zM151.139 222.038c.132.394-.651.919 0 1.108-1.158-.027-3.872.765-3.768 2.438-.846-.278.037-.91-.442-1.553 1.103 1.22 1.943-2.294 4.21-1.993z"/><path d="M150.474 230.901c-.517-1.246 1.626-1.575 2.659-1.994-.145-.227-.51-.23-.444-.665 1.525 1.219 4.291.96 6.205.443.104.919 1.606 1.595 2.438 2.437-2.215-1.749-8.056-2.748-10.858-.221zM150.474 231.344c-.317 1.086-.79 2.018-1.109 3.102-.209-.73.241-2.707 1.109-3.102zM149.587 242.646c-.472-.139-.207-1.365 0-1.552h.887c.307.135.033.854.442.886.078.432-1.739-.643-1.329.666zM342.809 247.52c.39-.518.915.695 1.553.665-.237.364-1.335-.275-1.553-.665zM335.941 247.52h.442c-.04.189.086.209.223.224-.243.57-1.431.192-1.773.663-.33-.095.086-.283 0-.663.563-.244 1.14.756 1.108-.224zM332.394 249.292c-.886-.071-.467 1.159-.886 1.553.075-.793-.47-1.56-.441-2.88 1.752-1.024 2.327.875 3.768.885.438.864-.411 1.416-.888 1.995-.29-.226-.817-.217-1.108-.442.535-.516-.177-.765-.445-1.111zm-.664-.221c.373-.313.974.054 1.108-.885-.803-.27-1.835.357-1.108.885zM346.799 259.929c.676-1.352-.577-3.046-1.993-2.216.327-2.048 4.215 1.099 1.993 2.216zM334.833 261.481c.404-.39 1.219.692 1.773.887-.537.522-1.215-.695-1.773-.887zM328.628 264.141c.365.345-.077.864-.224 1.327-.213-.005-.171-.271-.222-.441-.314-.018-.627-.037-.665.221-.241-.114.283-1.33 1.111-1.107zM337.713 270.566c-.153-.521-.506-1.404.442-1.327-.287.953.631.699.887 1.106.611.288-.953-.2-1.329.221zM48.539 145.587c.18.042.221.223.442.222 2.846 17.996 7.231 36.573 8.199 56.063.974 19.621 2.368 39.216 4.209 58.501.914 9.562 2.594 18.362 5.541 26.592 5.753 16.068 10.792 31.451 19.278 44.982 3.041 4.851 5.556 10.345 7.978 15.956.751 1.742 2.479 3.684 1.772 5.761-2.376.54-2.972-2.134-3.545-3.546-.7-1.721-1.525-3.379-2.216-4.874-3.592-7.772-7.853-15.107-11.965-23.047-3.463-6.686-6.592-14.67-9.528-22.824-2.233-6.203-4.857-12.486-6.425-18.836-1.706-6.899-2.593-14.496-3.325-22.159-1.388-14.536-2.813-29.744-3.766-46.091-.458-7.828-.109-15.56-1.331-23.045-1.205-7.381-2.479-14.769-3.322-21.938-.846-7.178-3.585-13.921-3.323-21.051.45-.213.876-.454 1.327-.666zM220.045 167.968c-1.89.376-2.62-1.719-3.768-2.659-1.254-1.03-2.924-1.663-4.208-2.659-1.3-1.008-2.174-2.496-3.545-3.324-6.927-4.184-14.855-7.861-22.601-11.745-3.574-1.791-8.007-3.163-12.184-4.654-4.062-1.448-8.281-3.087-12.41-4.432-6.525-2.129-14.048-3.092-21.271-4.211-15.732-2.434-30.376-2.27-46.535-.885-2.293.195-4.871.84-7.091 0 .362-2.833 4.521-2.187 7.091-2.438 22.163-2.163 43.104-.332 64.705 4.654 5.744 1.326 11.405 3.829 17.061 5.761a126.398 126.398 0 0 1 12.186 4.875c4.288 1.982 8.024 3.989 12.187 6.205 2.916 1.552 6.035 2.625 8.419 4.211 2.251 1.495 4.189 3.731 6.425 5.318 2.188 1.554 5.581 2.709 5.539 5.983zM227.138 160.656h.441c-2.358 32.993-2.075 68.811-2.438 103.485-.146 14.05-.873 28.559-1.328 42.103-.344 10.183-.987 20.784-1.994 30.359-.239 2.262.076 7.073-2.881 7.312-1.21-.41-.041-1.863.221-3.102.242-1.153.54-2.663.664-3.769.673-5.846.697-11.609 1.108-17.284.593-8.131 1.094-18.478 1.11-28.584.016-12.759 1.107-26.034 1.107-39.447 0-13.922.251-27.733.442-40.993.191-13.284-.051-26.221.664-38.114.059-.963.497-11.585 1.994-11.967.037-.009 1.005-.267.89.001z"/><path d="M115.462 289.403c-3.198-2.938-9.19-6.17-11.524-9.972 3.125 2.521 6.265 5.515 9.972 7.976 1.204.8 2.22 1.911 3.324 2.438 1.955.935 5.309 1.4 8.199 1.995 2.99.615 6.227.613 9.084.885 5.854.562 11.938 1.324 17.063 1.553 13.144.584 27.174-.594 38.774-4.212 8.889-2.77 17.813-7.779 24.816-12.407.985.346 1.717.942 1.995 1.994-5.352 4.028-12.563 6.197-17.946 10.194-12.484 4.863-26.776 9.063-42.321 9.085-18.776.027-35.922-7.291-52.96-9.972-3.557-2.104-9.633-2.695-14.181-4.211-4.216-1.404-8.183-3.361-12.188-4.876-4.037-1.525-7.927-3.313-11.743-5.097.148-.589.349-1.127.663-1.551 15.19 6.526 31.082 12.351 48.973 16.178zm17.949 5.76c14.038 4.086 32.747 3.982 46.975.224.248-.32.239-.542-.222-.665-14.632 2.87-32.982 1.53-46.753.441zM213.177 313.113c-13.378 8.172-29.82 14.454-49.631 17.063-6.259.823-12.689 1.979-18.835 1.994-17.922.037-35.338-2.22-51.631-5.762-.102-1.394-8.219-1.443-7.756-3.323.433-1.752 2.443-.058 3.325.221 1.697.537 3.751.718 4.431.886 6.247 1.555 10.917 2.634 17.063 3.546 3.167.472 6.354 1.313 9.307 1.551 14.816 1.2 28.092 1.448 40.995-.887 10.497-.624 21.225-3.548 30.798-7.091 3.479-1.287 6.817-2.716 9.97-4.432 3.357-1.826 6.896-3.077 9.526-4.655.966-.576 1.882-.568 2.438.889zM366.077 275.885c.188-.04.208.087.222.222-.197 4.203-1.832 7.448-3.989 10.859-3.146 4.977-6.688 8.359-10.192 12.853a46.213 46.213 0 0 1-2.658 3.102c-3.125 3.349-6.962 7.058-10.192 10.417-2.58 1.188-4.709 2.825-7.094 4.21-1.075 6.493-4.418 11.394-3.324 18.392 1.384 8.827 5.403 18.065 8.422 26.592 4.623 13.071 9.459 26.258 10.192 41.881-.094.759.067 1.264.887 1.108-.094.495-1.093.09-1.551.222-1.434-20.768-9.361-38.11-15.29-56.285-1.678-5.142-3.88-10.143-3.989-14.847-.16-6.876 1.71-10.613 3.324-16.398-7.669 1.946-15.967 4.367-24.818 2.659-3.107-.6-7.273-2.294-10.859-3.545-4.653-1.624-8.831-2.649-11.301-5.098-3.997-1.614-7.541-3.686-10.415-6.424 7.595 4.947 17.441 9.772 27.923 12.187 3.86.888 8.043 2.438 12.628 2.438 5.169 0 12.682-1.717 16.621-3.546 7.126-3.311 11.993-8.878 17.506-13.737 5.825-8.948 14.736-14.812 17.505-26.814.053-.244.439-.156.442-.448zM-39.656 25.262c.187-.042.208.085.221.221 3.909 6.947 10.225 13.025 14.847 19.722 4.217 6.106 8.928 11.978 13.296 17.948 4.374 5.98 8.441 12.486 13.074 18.393 9.599 12.241 14.904 25.334 21.274 41.438 3.003 7.594 6.228 15.416 7.977 23.268 1.981 8.896 2.619 18.178 3.988 27.258 1.301 8.622 3.396 17.277 4.875 25.925 3.309 19.35 1.513 38.531 3.766 57.616 1.091 9.242 1.84 18.883 4.655 26.813 3.465 9.758 6.06 19.932 10.192 29.027 2.407 5.294 4.199 11.328 6.427 17.063 2.902 7.475 6.24 14.827 8.642 22.604 3.763 12.18 5.91 25.358 8.199 38.779.373 2.19.601 4.537.885 6.868.25 2.03 1.136 4.688-.221 6.648-1.021-.059-.416-1.4-.442-1.772-.373-4.802-1.068-9.409-1.995-14.181-3.286-16.934-5.599-33.09-11.746-47.422-3.974-9.27-7.079-19.021-11.079-28.364-4.081-9.532-7.171-19.691-9.971-29.471-2.979-10.397-4.441-21.405-5.096-32.575-1.006-17.085-.762-35.163-3.547-52.074-1.751-10.638-4.445-21.379-5.761-33.24-.647-5.827-.893-11.757-2.217-17.285-1.469-6.135-3.769-11.99-5.763-17.948-1.978-5.917-4.585-11.423-6.868-17.284-2.307-5.918-4.501-11.55-7.534-16.619-10.509-17.569-22.926-33.254-35.01-49.639-3.505-4.756-6.455-8.55-10.414-13.52-1.963-2.463-5.014-5.087-4.654-8.197z"/></svg>