<svg version="1.1" xmlns="http://www.w3.org/2000/svg" x="0" y="0" width="411.023" height="404.845" viewBox="-42.52 0 411.023 404.845" xml:space="preserve"><path d="M292.137 36.467c16.548-1.124 28.261-8.701 42.426-13.373 4.521-1.492 9.27-2.245 14.063-3.458 4.41-1.115 8.972-2.849 13.835-2.537-.811 1.415-2.932 1.167-4.15 1.382-10.43 1.853-19.857 4.395-29.514 7.84-11.795 4.21-22.218 11.139-36.431 11.299-1.322 11.318-1.975 23.3-5.764 32.049-.739 1.708-1.229 3.845-2.768 4.842 1.407-5.948 4.123-11.73 5.304-18.446 1.15-6.55 2.402-13.878 1.844-21.212-.235-3.113-.48-6.607-1.382-9.454-.301-.948-1.251-2.075-1.844-3.228-1.531-2.963-2.697-4.705-5.073-7.147-4.524-4.645-9.624-7.488-17.295-10.146-5.103-1.767-11.651-2.811-17.062-3.227-15.492-1.193-32.678.304-45.189 3.689-3.884 1.05-7.531 2.067-10.836 3.69-6.727 3.301-13.019 6.508-18.211 10.837-2.354 1.959-3.946 5.094-6.688 5.995 2.93-4.746 7.654-8.071 12.221-11.299C191.987 5.821 210.215 1.644 229.419.268c15.525-1.111 31.126 1.306 42.656 6.226 2.988 1.275 6.359 2.572 8.531 4.382 1.839 1.532 3.618 4.104 5.304 6.226 4.306 5.414 6.195 9.794 6.227 19.365zM169.251 5.801c.417 1.059-.952 1.755-1.384 2.306-3.913 4.991-7.546 11.427-10.145 17.985-1.604 4.047-2.808 7.549-5.071 11.066-2.001 3.104-4.18 6.201-6.458 9.455-6.699 9.571-12.334 19.453-18.907 29.282-2.769 4.14-5.139 8.563-8.531 11.989.879 1.964 4.168 1.517 4.841 3.69-2.731-.19-3.7-2.142-6.455-2.305-4.393-3.103-9.679-5.406-14.987-8.069-12.689-6.371-30.25-7.982-42.195-15.45-2.275-1.422-4.965-2.841-6.226-5.303 4.314 1.839 8.408 5.885 13.141 8.069 17.436 4.057 35.427 10.393 50.035 18.677 3.565-2.003 5.292-5.986 7.377-9.224 8.439-13.102 17.183-26.865 26.287-39.66 2.379-3.344 3.989-6.937 5.533-10.837 3.022-7.626 6.628-14.803 11.759-21.211.13-.333.36-.563.692-.692.373-.065.401.218.694.232z"/><path d="M241.182 9.49c-.217 1.168-2.442.325-2.305 1.844-.492-.959.898-2.016 2.305-1.844zM236.34 11.796c.324-.672.796.409 1.385.23-.054.333-.688.081-.693.461-.437-.025-.161-.763-.692-.691zM232.65 17.099c.407.055.527.396.462.922-.482.096-.61-.159-.922-.23.082-.304.404-.364.46-.692zM238.184 21.94c1.064-.29 1.796.443 1.154 1.153-.437-.025-.162-.762-.694-.692-.843.963.158 1.191 0 2.537.212-.509 1.016-1.034 1.613-.462-.335.585-1.202.64-1.844.921.146.841 1.166-.621.924.462h-1.154c.172-1.543.151-1.795-.46-2.768.342-.193.496-.579.461-1.151zM234.496 24.476c.772-.158.844.387.923.921-.59-.026-.896-.333-.923-.921zM235.648 26.783c.292.445 1.224-.405.692.461 1.099-.03.307-.523.46-1.384-.392-.084-.436.179-.46.46-.54-.059-.133-1.012 0-1.152.892.238.948-.12 1.613.231-.678-.134-1.286 1.883 0 1.614.098.483-.158.61-.229.922-.573-.505-1.962-.192-2.076-1.152zM237.492 27.936c.578 1.003-.865.414-1.384.692v-.692c.677.207.71.207 1.384 0zM233.112 28.396c1.214.09.915 1.698 2.536 1.384-.575.9-2.557-.212-2.536-1.384zM252.479 30.241c-.198.337-.345.732-.92.692-.176-.811.602-1.033.92-.692zM237.263 31.855c.561-.321 2.187.265 2.995.462-.913.673-2.194-.256-2.995-.462zM249.715 31.855c-.483.439-1.104.745-1.848.921.193-1.099 1.164-.967 1.848-.921zM244.641 32.777c-.48.366-1.213.479-2.075.462.08-.764 1.328-.363 2.075-.462zM239.798 156.133c-3.876 1.027-9.083-.388-12.451-1.384-.064-.412.219-.471.231-.23 3.875.737 7.895 1.329 12.22 1.614zM283.838 160.514c1.097 3.402 1.724 7.753 2.075 11.989.165 1.979.183 4.137.232 6.226.12 5.194.323 10.804 0 15.678-.891 13.286-5.744 25.068-10.146 34.126 2.896-2.456 4.484-4.685 7.377-7.147.875-.744 2.109-1.117 2.77-2.074 1.271-1.844 1.567-5.136 2.305-7.609.752-2.531 1.969-5.252 2.305-7.379.366-2.323-.647-4.489-.691-6.688-.114-5.81 3.535-11.754 6.688-15.447 1.016-1.192 1.971-3.206 3.225-3.92 1.947-1.106 8.413-2.049 8.302 1.844-1.209-2.307-5.334-2.202-7.609-1.152-1.663.769-4.669 4.524-5.765 6.226-1.461 2.268-3.086 5.653-3.689 8.301-.782 3.429.693 7.063.231 10.837-.236 1.903-1.382 4.613-2.078 7.146-.757 2.777-1.257 6.151-2.306 7.841-1.073 1.733-3.749 3.114-5.303 4.611-3.432 3.313-6.4 6.364-9.452 9.915-1.367 1.589-2.843 3.648-5.072 4.15-1.341-.109-.568-2.656.46-2.536-.205.563-.538.999-.46 1.844 1.142.167 2.356-1.449 3.228-2.306.259-6.647 5.522-13.256 3.919-21.905-.584-3.151-4.057-7.117-5.765-10.837-1.911-4.163-2.774-8.18-4.842-11.758-1.046-1.815-7.615-4.562-11.297-4.842-3.484-.268-6.771 1.29-9.683 2.074 4.464-3.805 11.247-2.828 16.369-.923 2.021.751 3.963 1.509 4.841 2.537 1.886 2.204 3.184 7.601 4.842 11.297.848 1.885 1.743 3.623 2.77 5.305 1.672 2.74 3.588 4.831 3.689 8.992.161 6.754-2.58 12.886-4.153 18.676 1.556-.718 1.921-2.049 2.077-3.688 6.582-10.214 11.359-24.219 11.758-39.658.229-8.848.167-20.068-2.074-29.052-.158-.621.476-.445.69-.692.076-.002.153-.002.232-.002zM250.635 172.966c1.809.497 2.362 2.249 2.537 4.379-.569-1.738-1.554-3.058-2.537-4.379zM238.184 175.963c1.132.146-.121 1.244.23 2.075-.826-.143-.383-1.553-.23-2.075zM228.041 177.344c1.078-.234 1.31.381 1.845.693-.288.7-.793-.249-1.384 0-.311.153-.432.491-.461.921.209.877.925.169 1.611.23-.234.822-1.854.911-2.306.232-.086-1.01.662-1.185.695-2.076zM233.112 180.112c.283.102.473.296.461.693-4.37.753-5.378 8.589-3.228 11.758-1.202-.259-1.014-1.909-2.305-2.074.264-3.745 1.11-9.01 5.072-10.377zM213.052 180.805c.648 2.083-.498 7.224 1.615 8.991-2.313-.431-2.408-6.011-1.615-8.991z"/><path d="M299.977 181.265h.693c.532 3.646-1.728 7.878 1.15 9.224-1.19-.036-1.844-.613-2.535-1.152.613-2.655.877-5.207.692-8.072zM309.198 181.265c-.182 3.716-1.291 9.115-.229 13.604 3.6-1.898 11.349-5.83 15.909-1.846.653.569.886 1.539 1.614 2.306-.099 1.053.233 2.539-.231 3.229-.31-8.961-14.024-7.126-17.063-1.844.266 7.809-2.545 13.509-3.689 20.059-.897 5.157-1.681 10.074-3.455 14.295-1.771 4.204-3.933 7.943-6.459 11.298-2.498 3.321-5.866 6.408-7.608 10.146-.729 1.565.269 2.111-1.384 2.768-.448-2.367 1.619-4.09 2.764-5.766 3.734-5.45 7.981-10.262 11.07-16.829 2.036-4.332 3.021-9.175 3.919-14.758 1.044-6.501 3.84-11.751 3.92-19.138.065-5.824-1.939-12.751.922-17.524zM238.184 182.418c-.729.501-2.111.349-2.999.693.209-.944 2.219-1.059 2.999-.693zM234.496 183.802c-2.876 2.324-2.388 8.198.46 10.146-3.756-.825-4.408-9.026-.46-10.146z"/><path d="M320.5 194.177c-.063 4.018-6.915 6.392-4.842 11.067-4.686-2.284 3.501-7.658 4.842-11.067zM234.724 198.789c.665.028 1.51-.125 1.846.232-.113.318-2.077.558-1.846-.232zM234.496 199.941c-.158.854-.358 1.515.923 1.385-.324.974-1.678.125-1.846-.463.029-.585.336-.894.923-.922zM240.722 203.861c.535 1.262-5.155 2.651-7.148 1.384 2.84-.002 5.65-.035 7.148-1.384zM195.302 207.321c.438.56-2.863 1.251-3.919 1.844 1.969 2.257 3.041 5.415 4.152 8.53-1.453-1.85-2.112-4.159-3.459-5.993-.847-1.149-2.234-1.735-2.537-3.228 2.017.456 3.954-.684 5.763-1.153zM201.527 222.999c.938.213.772 1.532 1.149 2.307-.832-.25-1.385-1.723-1.149-2.307zM330.413 237.524c3.034-.079 5.521 3.894 2.073 5.074 2.057-2.461-.904-3.776-2.073-5.074zM329.492 246.287c.264.081.584.405.23.46-3.447 4.741-5.789 10.181-8.992 14.988-3.217 4.829-7.26 8.813-10.606 13.373 14.695-5.908 31.925-10.857 50.035-14.758 2.399-.518 4.928-1.305 7.378-.921-.371.983-2.426 1.12-3.689 1.384-20.017 4.161-38.924 9.347-55.567 16.6-7.059 8.634-7.969 20.126-14.296 29.745-1.472 2.236-3.585 4.295-5.305 6.455-5.051 6.357-9.831 13.481-14.524 20.521-4.597 6.896-9.021 14.231-14.296 20.753-1.676 2.069-4.229 3.854-5.533 5.994-1.679 2.754-2.81 6.763-3.92 10.146-2.88 8.768-5.293 17.737-8.07 26.746-.522 1.696-.646 3.662-1.846 5.071-.357-1.742.648-3.433 1.155-5.071 2.793-9.03 5.215-17.686 8.3-26.746 1.23-3.619 1.911-7.613 3.689-10.376.835-1.301 2.434-2.318 3.46-3.458 7.041-7.852 12.164-17.804 18.675-26.979 3.108-4.379 6.307-8.964 9.452-13.373 3.248-4.553 6.877-8.444 9.452-13.142 5.592-10.193 7.893-21.533 15.449-30.206 3.617-4.151 7.599-8.002 10.377-12.45 3.021-4.841 5.182-10.149 8.992-14.756zM236.57 12.488c.072.942-.481.123-.922.23-.483.21-.702.681-.692 1.385.759-.011 1.149-.392 2.075-.232-.007.917-.896.947-1.612 1.153.03-.657-1.17-.882-1.154-.232.073.314.579.192.921.232-.057.249-.457.156-.461.461-.707.172-.281-.793-1.151-.461.304-.387.609-.772.461-1.615 1.038-.231 1.841-1.661 2.535-.921zM232.65 20.788c.622.415-.759.759-.92 1.152.143 1.647 1.014 3.457.46 5.074-1.366-2.214-.563-5.317-.924-7.147.709-.292.606-1.394 1.386-1.614.122.861-.463 1.598-.691 2.537.05.292.687.3.689-.002zM232.65 26.092c.646-1.161 1.379.346 2.306-.23-.088 1.633-1.144-.332-2.306.23zM125.442 163.051c9.84-8.838 19.326-18.028 31.359-24.672-11.157-.903-15.928 7.532-22.597 13.374-3.966 3.473-8.153 7.354-12.681 10.375-2.523 1.681-5.413 2.62-7.84 4.38-7.188 5.208-11.235 14.177-16.6 20.521-1.63 1.928-4.138 3.829-6.226 5.995-2.083 2.161-4.153 4.534-6.226 5.764-2.974 1.764-7.243 3.043-11.068 4.611-3.767 1.545-7.726 3.291-11.299 4.151-3.24.778-6.583 1.088-9.683 1.845-6.42 1.566-12.447 3.603-18.676 5.072-6.204 1.463-12.393 2.909-18.908 4.15-2.056.392-3.979 1.42-5.995 1.844-2.207.465-4.439.523-6.686.923-13.602 2.414-26.532 6.254-41.274 5.764 6.528-1.061 12.624-1.308 18.677-2.535 10.563-2.146 21.596-3.38 31.819-5.766 11.941-2.786 23.809-5.271 35.969-8.761 1.594-.457 3.07-1.317 4.612-1.614 5.077-.98 10.304-1.415 15.217-3.229 4.549-5.301 8.994-13.643 9.224-23.286-5.933-9.587-14.137-17.317-22.367-24.903-.997-.92-2.992-1.722-2.768-3.458 1.5-.687 2.386 1.293 3.229 2.074 3.122 2.896 6.472 5.912 9.684 8.992 4.304 4.132 7.821 9.069 11.527 13.374 1.479 1.986 2.193 3.85 1.844 7.379-.669 6.8-4.609 14.438-7.837 18.676 4.372-2.252 10.129-3.409 14.756-6.225 2.761-1.682 4.877-4.664 7.379-7.147.601-.596 1.489-1.03 2.074-1.614 4.064-4.041 7.125-9.323 10.837-14.065 3.156-4.029 5.939-8.079 10.605-10.835 3.083-1.819 5.85-3.02 8.532-5.074 4.868-3.723 10.022-8.179 14.524-12.681 3.636-3.635 8.258-8.696 14.526-9.223 1.808-.151 3.165.372 4.382.229 2.15-.25 3.168-2.168 5.303-2.536.594-.103 1.483.224 2.304.23 2.168.016 5.23-.474 7.839-.46 4.277.02 9.386 1.355 14.294 2.073 4.975.73 10.244 1.162 12.909 3.458.604.522.925 1.367 1.613 2.077 1.558 1.601 3.625 3.507 5.071 5.302 10.002.275 18.323 4.736 27.438 5.535 1.964.171 4.68-.697 6.225.922-.436 8.013-6.847 13.283-15.449 14.063-2.86.26-6.277-.079-9.449.231-3.396.331-6.01.132-9.686.462-2.6.232-6.402 2.377-9.451 3.919-3.693 1.87-7.425 3.759-11.065 5.534-3.033 1.479-6.984 2.43-8.53 3.691-2.023 1.647-2.841 5.488-4.379 7.837-.919 1.398-2.354 2.921-3.459 4.381-2.342 3.099-3.547 4.571-3.92 9.684-.11 1.54.667 3.675-.69 4.843-.257-1.743-.003-6.071.461-8.531-2.378 1.157-3.773 5.294-6.918 6.455 1.532-1.851 3.078-3.688 4.843-5.303 1.749-3.743 5.029-6.401 7.377-9.685 2.422-3.388 3.689-7.374 6.455-10.606-1.49-1.612-2.132-5.495-1.153-7.607.48 1.783-.016 5.823 1.385 7.377 9.14-3.002 16.332-7.954 25.128-11.297.431-2.016-.225-2.854.23-4.382 1.126.606.105 2.802.232 3.919 10.402-2.696 28.775.949 34.814-7.378.994-2.465 3.125-3.956 2.996-6.918-5.101-1.03-10.127-1.476-15.446-2.768-5.02-1.216-10.381-3.036-15.448-3.458-5.762-.48-10.594 1.463-15.444 2.998-7.135 2.256-13.92 5.246-20.751 8.069-3.38 1.398-6.704 3.424-10.373 3.458 8.821-3.011 16.741-6.928 25.358-10.146-3.542-.135-7.871-.104-11.756-.229-3.079 3.377-6.732 6.178-10.604 8.761 2.808-3.263 6.74-5.402 9.681-8.532-1.253-.897-3.653-.646-4.149-2.305 3.249 1.602 6.976 1.316 11.76 1.384 4.578.065 5.804.482 9.911-.922 3.848-1.315 8.079-2.592 12.449-3.227-3.414-6.524-9.721-9.316-19.135-10.835-4.43-.717-9.221-1.74-13.14-1.847-2.909-.078-5.744.546-8.298.461-1.915-.063-4.505.179-5.305 2.538-1.887-.16-3.431.95-4.84 1.844-10.575 6.71-19.602 15.369-29.283 23.061zM249.252 181.726c-.811-.137-.845-1.221-1.151-1.844-.813-1.641-2.085-3.606-3.689-4.842-1.188-.914-3.409-2.607-4.843-2.997-2.873-.779-7.528.138-10.146 0 9.589-2.976 18.127 1.834 19.829 9.683zM247.637 172.733c2.056.251 2.407 2.208 2.768 4.151-.427-.96-1.673-3.088-2.768-4.151z"/><path d="M226.887 192.102c3.067 3.575 3.854 7.024 3.228 13.374-.221 2.224-.767 4.489-1.385 6.455-.979 3.129-3.131 5.401-2.075 9.683.018 1.132.527-.522.922.231-1.809 5.876-4.519 10.854-6.225 16.83 1.414 3.503 2.84 6.997 4.61 10.146 2.182-.865 3.834-2.276 5.767-3.459 1.8-1.103 4.338-1.666 5.763-3.229 1.235-1.355 2.062-4.307 2.997-6.455 2.801-6.416 5.955-13.072 9.687-18.445-.91-2.937-1.165-6.523-1.614-9.916-1.416-.659-3.376-.777-4.612-1.614-1.745.563-3.092 1.521-5.071 1.846.5-.864 3.171-.981 4.149-2.075-1.324-2.085-4.572-4.058-5.073-8.301-.752-6.357.964-15.13 4.843-17.292 3.312-.538 4.41 1.882 6.225 3.458-2.054-.517-3.123-3.813-6.456-2.307-2.893 1.31-4.515 10.696-3.689 16.372.898 6.185 6.262 7.891 9.452 9.223.654-.193.275-1.417.692-1.844.629 4.131 1.073 11.244 2.766 14.295-.528.807-.642-.721-1.152-.691-2.283 2.558-4.158 6.007-5.765 9.452-1.642 3.519-3.59 6.929-5.072 10.146-.886 1.921-.835 3.678-2.306 5.072-1.127 1.067-3.229 1.643-4.842 2.536-1.529.849-3.367 1.801-4.61 2.767-.575.447-.825 1.449-1.385 1.846-.269.189-1.083.079-1.384.23-1.259.628-1.848 2.29-3.459 2.535.831-1.549 2.474-2.29 3.689-3.458-1.739-2.641-2.665-6.096-4.379-8.76-1.475 2.486-1.473 5.1-1.613 8.992-1.029-5.378.703-10.942 2.534-15.91 1.239-3.358 4.124-6.972 4.383-10.376.132-1.764-1.05-3.726-.924-5.533.127-1.828 1.79-3.539 2.539-5.764 1.027-3.066 1.748-7.136 1.611-11.067-.24-7.01-5.504-10.741-12.911-11.758-3.156 3.989-4.688 9.603-5.533 15.908.782-.376 2.623-1.68 4.613-1.613-.371-1.853.713-3.365.92-5.305.363 1.738-.723 4.586-.232 5.994-2.498-.087-4.831 1.08-6.221 2.768-.108.491.327.438.69.461-2.599 4.903-11.092 7.18-8.302 15.218a3.102 3.102 0 0 1-1.149-1.844c-11.145 3.688-21.931 7.732-29.74 14.757-6.957 2.263-13.689 4.756-20.289 7.379 3.419 3.466 9.116 5.512 14.757 7.378 8.827 2.924 19.591 4.222 29.047 1.153 2.619-8.218 3.839-17.835 6.686-25.824-2.897 18.074-9.687 33.541-7.837 54.185 1.126 12.569 8.216 25.014 4.148 38.506.121.657.341-.374.461-.463-2.309 10.88-6.664 21.212-9.912 32.05-1.054 3.517-2.553 6.88-3.69 10.376-4.057 12.489-8.24 25.148-11.987 37.584-.464 1.536-.218 3.991-2.073 4.842 6.695-22.616 13.939-44.71 21.669-66.866 3.916-11.221 8.528-23.009 4.612-36.891-5.856.492-11.593.969-17.981 1.613-11.916 1.206-25.054 2.612-37.581 4.611-11.282 1.804-22.744 3.214-31.587 8.302-3.072.773-5.881 1.807-8.069 3.458-7.329 2.757-13.937 6.904-20.292 10.836-1.531.948-3.237 1.424-4.842 2.306-2.143 1.18-4.282 3.076-6.226 4.611-2.845 2.249-5.265 4.391-8.532 6.227-7.102 5.7-14.071 11.437-21.904 16.6-2.506 1.654-4.672 3.863-7.148 5.534-2.082 1.407-4.51 2.396-6.686 3.689-4.824 2.868-10.01 4.946-14.989 7.839-4.393 1.45-8.788 2.896-12.219 5.305-5.88 1.374-11.292 4.734-17.295 6.918-6.005 2.184-13.021 4.338-19.137 5.765-1.512.353-3.604.974-4.842-.231.936-1.71 2.465-.974 3.69-1.152 8.176-1.189 16.988-4.361 24.208-7.379 6.777-2.832 13.337-5.737 19.831-8.531 6.531-2.811 13.029-5.656 19.137-8.992 8.946-4.887 16.926-11.158 25.132-17.063 2.687-1.932 4.936-4.511 7.608-6.455 3.012-2.189 6.514-4.349 9.684-6.919 3.649-2.956 6.961-5.948 11.299-7.608.981-.786 2.212-1.32 2.997-2.306 7.875-3.84 15.247-8.695 23.519-12.221 8.421-3.587 17.186-6.69 27.208-8.301 12.562-2.018 26.352-4.209 39.426-5.302 8.436-.706 17.536-.911 25.128-2.769-3.979-11.961-5.05-30.734-1.844-44.039-3.31-.008-5.636 1.003-9.222 1.152-13.528.565-25.357-4.598-35.043-9.453-.357-.411-.633-.904-.923-1.384-2.176.974-4.904 1.396-6.456 2.998-3.44.096-4.824 2.246-8.299 2.306-5.717 2.23-11.378 6.151-18.215 6.227-4.771.051-10.164-.396-15.219-.463-14.313-.184-28.13 2.858-39.658 6.918-1.977.695-3.967 1.738-5.995 2.536-2.056.81-4.364 1.47-6.225 2.305-.743.333-1.279 1.05-2.077 1.385-2.243.936-4.275 1.351-6.455 2.535-5.749 3.127-12.296 5.363-18.215 8.531-3.383 1.812-6.312 3.225-10.145 5.073-2.321 1.119-5.09 2.913-7.84 4.381-12.88 6.872-26.721 12.874-41.041 18.676 1.86-2.399 5.047-3.081 7.608-4.149 8.031-3.352 16.253-6.569 24.209-10.606 10.121-5.134 20.089-10.928 30.667-15.91 10.281-4.843 21.042-9.696 32.279-14.295 11.806-4.833 25.228-8.726 39.658-8.069 6.552.297 13.358.553 20.292 0 4.956-.396 8.915-2.487 13.144-4.381 2.948-1.322 6.143-2.146 9.223-3.229 6.01-2.115 11.839-5.08 17.752-7.147 3.905-1.364 7.256-2.328 10.607-3.689 3.24-1.316 5.639-3.456 8.759-5.534 6.917-4.607 14.596-7.078 23.055-9.453-.178-7.169 6.249-7.736 8.296-12.683-4.592-5.111-11.381-9.119-21.207-7.837-12.706 1.654-25.427 9.74-32.045 17.521.178.744.481 1.361.921 1.845-.93.689-.59-1.861-2.075-1.384-.247-3.722-4.315-5.489-5.763-8.762 2.894 1.793 4.787 4.591 6.455 7.608.773-1.267 2.021-2.097 3.229-3.227 1.07-1.002 2.024-2.354 3.226-3.229 7.702-5.588 18.697-11.202 29.971-11.528 7.576-.22 13.094 3.898 17.752 7.609 1.066-6.848 2.783-13.048 5.764-17.985 1.137.112 2.794-.779 3.918 0 .504-.789-.588-1.623-.923-2.307 1.262.799.239-1.483 0-.69.553-2.876 1.507-8.959 5.074-10.837-2.341 2.797-4.399 6.785-3.69 11.297.75.559 1.771.844 1.844 2.075.254-.007 1.633-.435 1.847.692 1.663-.547 1.166.191 2.073.23.637-1.297-1.402-1.857-2.073-3.227-.87-1.77-1.173-4.466 0-6.226-.827 4.669 1.115 7.276 3.458 9.223-1.058.266-.097 1.119-1.153 1.384.635.32 1.883 1.111 2.767 1.845-.75.955.758 1.837-.23 2.073-.069-1.24-1.453-1.161-1.847-2.075zm-3.689-2.765c-.908-.523-1.7-.634-2.769-1.385-.219 1.457 1.963 1.719 2.769 1.385z"/><path d="M210.057 186.107c1.333 1.819 1.051 5.248 3.226 6.226-1.932-.3-2.981-3.475-3.226-6.226zM297.901 267.499c.975-5.042 5.802-7.387 6.918-11.527 5.738-6.335 10.912-14.097 11.528-25.133.278-4.961.485-9.501.924-14.988.575-7.222 3.439-12.067 7.608-15.911-1.726 3.428-4.319 5.982-5.994 9.455-.618 4.166-.522 8.581-.923 13.141-.509 5.781-.36 12.316-2.074 17.063-1.277 3.538-3.912 7.189-5.534 10.605 4.217-1.89 5.237-7.015 8.073-11.066 2.732-3.909 9.742-10.932 16.14-10.837 3.089.045 7.724 2.736 5.302 5.763.365.648.825-1.243 1.385-.46-1.464 2.226-3.844 3.534-5.534 5.534.655-1.741 5.468-4.404 3.459-7.609-.85-1.355-4.075-2.585-6.454-2.076-6.588 1.412-11.929 7.171-14.991 12.682-1.042 1.883-2.014 4.075-3.458 5.764-1.503 1.764-3.505 2.817-4.841 4.15-4.224 4.211-7.768 11.027-11.534 15.45zM106.998 281.564c-2.176-.356-4.051-3.631-6.457-3.458-3.693.264-8.883 4.071-11.53 6.226-6.542 5.322-11.753 13.272-17.984 20.289-7.785 8.771-15.892 16.602-23.519 22.827 1.184-1.679 2.634-2.904 4.613-4.611 6.788-5.852 14.023-13.777 20.751-21.904 6.676-8.064 12.603-15.808 20.982-20.52 3.959-2.227 6.32-5.096 10.606-1.846 1.085.821 2.441 1.506 2.538 2.997zM46.819 327.448c.336.653-1.135 1.47-1.845 1.846.319-.913 1.495-.966 1.845-1.846z"/></svg>