<svg version="1.1" xmlns="http://www.w3.org/2000/svg" x="0" y="0" width="325" height="520.324" viewBox="0 0 325 520.324" xml:space="preserve"><g fill-rule="evenodd" clip-rule="evenodd"><path fill="#FFF" d="M161.337 4.167c-1.703 2.371-4.968-.896 0 0zM166.764 19.69c1.253-.218 1.335.734 2.328.777-2.503 4.038.054 5.37-.775 9.315-1.391.098-1.637-.951-3.104-.777 1.399-3.912.862-4.938 1.551-9.315zM185.375 27.452h2.327v1.553h-2.327v-1.553zM148.154 34.438c-.509 1.042-1.657 1.446-3.101 1.552.187-1.366 1.334-1.769 3.101-1.552z"/><path d="M202.436 80.231c-2.012 1.922-3.803-.754-6.979 0-5.737.211-9.257 2.64-13.959 3.882.185-5.767 6.999-4.893 10.857-6.986 4.051.343 10.22-1.434 10.081 3.104zM156.684 86.441c-4.799-.628-7.526-3.333-12.407-3.88h-5.427c-2.959-.537-3.734 3.156-6.205.775.943-3.197 4.55-3.725 7.754-4.657 3.93.207 6.948 1.328 10.082 2.329 3.269.609 6.793.961 6.203 5.433z"/><path fill="#FFF" d="M218.716 84.113c1.695.115 1.667 1.956 1.552 3.88-1.951-.185-3.213-2.287-1.552-3.88z"/><path d="M200.107 87.994c.044 2.265.745 3.817 1.551 6.987-2.271 7.029-17.307 10.708-20.936 3.104.706-8.996 10.11-14.464 19.385-10.091zm-5.429 1.552c-.599.174-1.528.022-1.551.777.605-.174 1.532-.022 1.551-.777zm3.103 5.434c-.602.174-1.529.021-1.552.775.603-.173 1.532-.02 1.552-.775zm-11.63 1.553c-.216-.215-1.179.374-.776.774.212.215 1.178-.374.776-.774zM155.908 98.085c-1.67 6.088-9.923 5.59-17.834 5.433-3.019-1.634-5.18-4.129-6.978-6.985.944-3.033 4.093-2.132 2.325-6.209 8.739-3.892 20.955-.458 22.487 7.761zm-19.385-.778h1.551v-1.551h-1.551v1.551zm13.958 1.552c-.01-.781-1.359-.976-1.551 0 .164.939.861.479 1.551 0z"/><path fill="#FFF" d="M193.127 90.323c.022-.755.952-.603 1.551-.777-.019.755-.946.603-1.551.777zM118.688 94.98c2.789.054 2.451 3.238 2.326 6.208-1.379-1.465-2.556-3.133-2.326-6.208zM196.229 95.756c.022-.755.95-.602 1.552-.775-.02.754-.949.601-1.552.775zM136.523 95.756h1.551v1.551h-1.551v-1.551zM185.527 97.121c-.582-.451 1.979-2.016 2.291-1.774 2.767 2.149.234 3.737-2.291 1.774zM147.767 97.696c.19-.976 2.705.382 2.714 1.164-2.062 2.062-6.425.185-2.714-1.164z"/><path d="M174.519 101.964c1.252-.218 1.334.734 2.326.777.341 4.576 4.509 5.316 4.652 10.091-.669 4.245-5.826 3.998-9.305 5.433-5.462-.543-14.524-5.248-8.531-10.09 2.219.107 1.419 3.237 1.551 5.433 4.114 1.369 8.995.685 12.407-.775.108-4.766-3.357-5.954-3.1-10.869z"/><path fill="#FFF" d="M214.064 105.846c.148-.88.78-.43.778 0-.149.882-.778.432-.778 0zM121.79 110.503c1.499 1.292 2.792 5.357 1.552 6.987-3.631-.345-1.821-4.409-1.552-6.987z"/><path d="M191.577 129.908c-1.333 1.913-6.193-2.07-6.978 1.552-2.26 2.188 2.318.967 1.552 3.882a21.37 21.37 0 0 0-5.429 5.433c-6.146.315-10.716 2.211-17.836 1.551-1.422-1.779-6.574-2.75-4.652-5.432 3.99-.112 5.829 1.928 8.53 3.105 6.616-1.141 14.057-1.455 16.284-6.987-8.974 1.03-15.704 1.162-24.038 1.553-1.72.428-1.104-1.482-2.327-1.553-2.876-.549-3.327 1.326-6.203.777-.342-2.931 1.529-3.645 2.326-5.435 6.955 2.34 10.862-4.805 18.61-1.552 3.045-2.837 8.62-.849 12.406 0 2.896.83 2.211-1.928 4.65-1.552 1.007 1.584 3.761 1.412 3.105 4.658zm-18.609.775c2.51-.334 6.706 1.021 6.979-1.552-1.914-1.528-6.774-1.031-6.979 1.552zm-11.631.777h8.531c-.234-3.76-8.015-2.705-8.531 0z"/><path fill="#FFF" d="M179.947 129.131c-.272 2.573-4.469 1.218-6.979 1.552.205-2.583 5.065-3.08 6.979-1.552zM169.868 131.46h-8.531c.516-2.705 8.297-3.76 8.531 0z"/><path d="M169.092 193.554c2.269.833 4 2.204 7.753 1.553-.412 4.807-8.497 3.358-7.753-1.553zM214.842 240.125c5.636-.079 8.988 4.943 7.752 9.314-6.027 3.443-9.869-4.522-7.752-9.314zm3.874 6.987c.219-1.771-.188-2.919-1.551-3.105-.214 1.769.191 2.917 1.551 3.105z"/><path fill="#FFF" d="M217.166 244.007c1.363.186 1.77 1.334 1.551 3.105-1.361-.188-1.766-1.336-1.551-3.105zM156.684 250.991c6.243 1.661 8.912 9.659 16.285 7.762.505 3.354-1.34 4.352-2.327 6.209.705 4.47 3.804 6.54 5.429 10.092-2.155.428-2.172 3-3.102 4.658-5.988 2.222-14.748 5.145-21.712 3.878.668-2.178 4.036-1.647 5.427-3.104.829-2.9-1.925-2.211-1.551-4.656 3.274-8.142 1.661-15.189 1.551-24.839zm6.202 15.524c3.708 1.172 4.192-5.757 1.551-6.209-.764 1.822-1.359 3.813-1.551 6.209zM188.474 255.648c-.4-.4.563-.99.778-.776.401.402-.562.991-.778.776z"/><path d="M164.438 260.305c2.641.453 2.157 7.381-1.551 6.209.191-2.395.786-4.386 1.551-6.209z"/><path fill="#FFF" d="M179.17 264.187h1.552v1.553h-1.552v-1.553zM183.824 264.962c1.019.275 1.22 1.368 2.327 1.553-1.115 4.579-4.138 7.245-5.429 11.644-3.648-.207.485-3.496.775-4.655-.73-4.357 2.25-4.994 2.327-8.542z"/><path d="M224.923 274.275c-1.584.231-1.523 2.101-3.104 2.332-3.883.521-4.65-2.075-6.204-3.883-.177-3.541 1.306-5.421 2.326-7.763 5.264.167 7.248 3.615 6.982 9.314zm-3.104 0c1.386-2.68-.053-5.095-2.326-6.208-1.62 2.011-.868 6.617 2.326 6.208z"/><path fill="#FFF" d="M219.493 268.067c2.273 1.113 3.712 3.528 2.326 6.208-3.194.409-3.946-4.197-2.326-6.208zM211.74 274.275c1.764 2.335.337 6.662 0 9.314-5.636 3.936-10.694 8.442-20.937 7.764-2.116.565-1.559-1.543-3.102-1.554-6.547.602-10.849-1.043-17.061-.775-1.44.626-3.132 1.002-3.877 2.329-3.845 1.002-3.809-1.88-6.979-1.554 4.923-.762 7.208-4.17 12.407-4.656 1.366-.703 1.28-2.859 3.102-3.104 6.371-.169 11.822.585 17.061 1.551 3.168-5.881 12.355-5.743 17.059-10.087 1.254-.221 1.337.731 2.327.772zm-24.814 10.09c-.216-.212-1.176.378-.775.778.215.216 1.176-.374.775-.778zm5.429 3.106c-1.389.005-4.51-2.09-5.429 0 2.556 1.064 6.198 1.04 9.303 1.554.574-1.236 3.795.179 3.103-2.33-1.717-.483-4.246.524-6.977.776z"/><path d="M186.151 285.144c-.4-.4.56-.99.775-.778.401.403-.56.993-.775.778zM199.332 286.694c.692 2.509-2.528 1.094-3.103 2.33-3.104-.514-6.747-.489-9.303-1.554.919-2.09 4.04.005 5.429 0 2.731-.251 5.26-1.258 6.977-.776z"/><path fill="#FFF" d="M175.294 290.575c-2.553 1.587-4.729 3.546-9.306 3.104 2.168-2.088 6.534-3.935 9.306-3.104z"/><path d="M223.373 294.458c.086 3.966-2.97 4.791-6.979 4.659-1.347-2.211-2.545-6.762 0-8.542 4.084-.469 6.548.69 6.979 3.883zm-5.432 1.552c2.045.234 2.548-1.074 2.327-3.105h-2.327v3.105z"/><path fill="#FFF" d="M129.544 293.68c1.819-1.261 6.224 1.505 9.305 1.554-1.421 2.81-5.398 2.332-8.529 1.552-.065-1.229.373-2.96-.776-3.106zM217.941 292.904h2.327c.221 2.031-.282 3.34-2.327 3.105v-3.105zM227.248 303.772c-.058 4.599-4.366 4.946-8.531 5.432-2.931-.171-3.764-2.439-6.204-3.104 3.67-1.897 10.805-3.127 14.735-2.328zM193.906 344.133c-2.15 7.165-8.308 10.313-11.633 16.3-4.349 1.339-5.667 5.713-10.08 6.985-3.04-.577-4.17-3.069-5.429-5.432-4.377-1.311-7.936-3.444-10.856-6.21-7.38-.521-18.09-2.158-23.263 3.105-.198 4.079 3.44 4.316 5.429 6.209 3.007-1.067 9.595-1.446 10.081 2.327-4.408 2.563-8.434-1.176-13.183-.775-3.537-3.29-11.015-6.431-8.529-13.198 1.124.949 1.039 3.103 3.102 3.107 3.295-.065 4.209-2.517 4.652-5.434-.701-1.874-4.377-.331-4.652.775-2.862-2.912 5.696-5.216 0-6.985 2.245-3.441 5.583-5.796 10.081-6.985-.379-2.447 1.396-2.737.774-5.434 3.279-1.631 6.857-2.967 8.531-6.207h2.327c4.002 4.531 10.428 6.635 14.732 10.865 4.79 1.156 9.573 2.318 13.958 3.881 5.976-.292 9.172 2.201 13.958 3.106zM119.463 348.791h1.551v1.549h-1.551v-1.549zM189.252 361.208c2.302 1.532-1.791 5.796-3.102 3.883-.585-2.911 2.965-1.695 3.102-3.883z"/><path d="M109.384 382.941c1.563 2.316 3.927 3.831 5.427 6.21 1.101-.066 2.197-.127 2.327.775h6.204c-.249 2.06 4.343-.726 3.101 2.327-4.202.304-8.566-3.296-12.407-.773-2.636-1.76-4.061-4.73-4.652-8.539zM102.406 412.437c-1.1 5.887-5.542 8.426-8.531 12.419-3.406 3.577-8.449 5.515-10.856 10.09-4.838 2.142-6.867 7.102-11.631 9.315-4.281 2.444-6.329 7.117-12.407 7.763-.825-3.623 2.168-9.582 1.551-15.526a15.754 15.754 0 0 0 4.653-4.656c13.363-3.698 21.727-12.402 29.465-21.731-.218-1.255.733-1.335.774-2.332 3.674.208 4.761 2.998 6.982 4.658zm-38.772 24.835c.54 3.905-1.315 5.412-.775 9.314 7.78-3.853 14.052-9.218 19.385-15.521 6.36-5.439 14.012-9.946 16.283-18.629-.989-.042-1.073-.994-2.326-.775-7.81 11.586-20.242 18.543-32.567 25.611z"/><path fill="#FFF" d="M96.2 411.661c1.253-.219 1.337.733 2.326.775-2.271 8.683-9.923 13.189-16.283 18.629-5.333 6.304-11.605 11.669-19.385 15.521-.54-3.902 1.315-5.409.775-9.314 12.326-7.068 24.758-14.025 32.567-25.611z"/><path d="M154.358 417.868c6.844-.701 6.19 12.395-1.551 10.093-2.434-2.572-1.981-9.136 1.551-10.093zm-.775 6.987c2.867.544 3.425-1.228 3.101-3.883h-2.325c-.652.906-1.025 2.082-.776 3.883z"/><path fill="#FFF" d="M217.166 420.2h2.327c5.892 7.557 16.228 10.661 24.038 16.297 2.417.431 5.053.635 6.979 1.554 1.576 3.417.925 5.18.775 9.314-7.032-2.536-11.172-7.962-17.059-11.642-4.989-4.581-10.471-8.671-16.286-12.419-.601-.692-.832-1.752-.774-3.104zM154.358 420.973h2.325c.324 2.655-.233 4.427-3.101 3.883-.248-1.802.125-2.978.776-3.883z"/><path d="M143.501 456.68c3.24-.397 5.255.431 6.98 1.554-.125.899.171 1.38.775 1.548-.076 4.585-1.863 7.452-6.979 6.988-2.658-2.059-1.321-8.749-.776-10.09zm1.553 6.985c3.055.469 3.433-1.739 3.876-3.884-1.049-.242-1.48-1.104-3.101-.775.559 2.371-.793 2.829-.775 4.659z"/><path fill="#FFF" d="M145.829 459.006c1.62-.328 2.052.533 3.101.775-.443 2.145-.821 4.353-3.876 3.884-.018-1.83 1.334-2.288.775-4.659z"/><path d="M142.726 495.488c4.016 3.307 2.928 13.218-4.652 11.642-2.382-2.471-1.36-7.871 0-10.865.918-.895 2.74-.878 4.652-.777zm-3.876 7.764c1.625 1.399 4.091-1.068 3.876-3.883-2.243.342-3.535 1.637-3.876 3.883z"/><path fill="#FFF" d="M142.726 499.369c.215 2.814-2.25 5.282-3.876 3.883.341-2.246 1.633-3.541 3.876-3.883zM146.604 27.452c-1.418 3.496-4.103 5.726-7.755 6.985-1.508-1.062 2.369-3.267 3.876-3.88 2.235-.094 1.347-3.31 3.879-3.105zM176.845 296.01c4.542-4.83 13.542-.768 20.16-.776 3.626.784 2.577-3.112 6.204-2.329.795 1.794 1.043 4.132 3.877 3.881.063 1.228-.372 2.964.775 3.104-1.308 1.259-4.998-1.684-8.53-.772-2.986-1.151-7.079-1.198-10.079-2.332h-9.306c-.239-1.053-1.94-.644-3.101-.776z"/><path d="M200.107 139.999c1.723 5.002 8.506 4.938 13.184 6.984.022.755.947.603 1.552.777 8.19 6.804 14.638 15.357 18.606 26.39 1.466 2.673 4.496 3.782 5.432 6.986 10.316 2.865 16.876 9.496 26.362 13.195 1.54 1.562 3.668 2.538 4.655 4.657 2.846.252 2.235 3.968 5.426 3.88 1.891 4.058 4.886 7.011 7.753 10.09 3.679 12.618 9.568 23.022 13.959 34.929 4.499 11.797 8.089 24.5 11.63 37.256 4.593 11.705 5.661 26.934 8.531 40.36 3.262 13.035 4.498 28.093 7.752 41.139.124 6.59.077 13.01-.772 18.629-2.252 6.803-5.879 12.229-10.082 17.075-6.066 2.208-12.463 4.087-17.834 6.985-11.147.143-22.176 1.619-31.018 0-2.142 9.463 1.173 19.989 2.326 28.719.405 31.967-1.929 61.199-12.405 82.273-5.015-.673-9.597-1.78-13.96-3.104-30.562-2.263-63.33-2.321-96.15-2.326-5.148.552-13.888 1.605-17.836.775-4.073-.331.659-5.95-1.551-6.985-5.019.107-8.445-1.377-12.407-2.329-8.514.289-14.649-.616-21.712 0-16.323-2.92-36.684 2.748-51.177-.775-2.698-10.272 1.813-19.869 4.652-27.168 2.083-9.039 3.814-18.434 6.203-27.166 1.853-9.272 2.207-20.042 3.877-29.494.646-10.22 4.038-17.693 3.877-28.719-10.613 3.606-20.526 7.912-32.567 10.09-9.506.461-16.708-1.386-21.712-5.432-2.296-4.17-3.069-9.866-4.653-14.749-.113-10.205-.088-20.268.775-29.497 5.195-14.461 8.526-30.789 14.733-44.24.518-4.399 2.25-7.581 3.877-10.865 2.154-2.76 1.974-7.854 4.652-10.09 1.307-8.525 5.946-13.714 8.529-20.957 6.052-13.605 11.93-27.388 19.385-39.585 3.567-6.264 7.707-11.952 10.857-18.63 3.748-5.82 6.809-12.33 11.63-17.075 5.663-2.612 12.76-3.787 18.611-6.209 6.157-2.116 11.665-4.881 17.06-7.761 5.869-4.474 9.042-11.648 16.283-14.748 1.69-3.483 5.872-4.472 7.754-7.762 2.002-2.912 7.438-2.388 6.979-7.762 2.017-3.511-2.169-4.217-3.876-6.208-1.764-2.115-3.433-4.326-5.427-6.209.033-1.329-.577-2.012-1.551-2.33-1.507-3.666-3.671-6.674-4.653-10.867-.948-3.036-5.255.752-6.204-3.104-1.017-3.64-.796-8.517-.775-13.196-1.038-3.358-1.684-7.111-3.876-9.313 2.176-7.978-2.518-13.416-3.102-20.957.458-6.787 1.835-12.652 2.327-19.406 2.213-2.958 2.855-7.492 4.652-10.866.009-4.907 3.367-6.462 3.879-10.867 3.005-2.942 5.742-6.153 8.529-9.313 5.703-1.535 8.446-6.035 14.733-6.987 1.368-8.46 6.586-13.071 12.405-17.075 8.086-1.013 14.744-1.771 22.488 0 4.457 3.559 10.134 5.895 10.081 13.97 6.952 3.651 12.618 8.584 18.61 13.196 4.147 8.005 9.524 14.786 12.405 24.062.265 10.097 1.262 19.534-2.326 27.165.312 3.312 4.691 2.552 3.88 6.985-.044 5.13-3.419 6.93-4.656 10.865-.317 3.308-.355 6.887-1.551 9.316.243 4.383-3.317 4.959-4.653 7.762-1.217 5.245-3.005 9.924-6.201 13.193-.703 5.506-5.687 6.728-6.204 12.423zm-83.745 253.812c1.778 1.062 2.493 3.195 3.876 4.652 10.31 4.433 21.328 8.15 37.221 6.988 10.003-3.314 21.586-3.171 34.118-2.329 1.391-7.581 3.736-18.701 0-24.836h-6.202c-8.075-5.114-18.097-8.274-23.264-16.3-3.059-.301-4.214-2.509-6.203-3.883h-8.528c-2.499.171-3.281-1.372-6.205-.775-1.254 1.33-4.869.301-4.652 3.104 7.185 1.344 17.206-.146 17.06 8.539-1.732 2.147-6.354 1.401-9.306 2.329-6.795-1.995-14.648-2.931-21.71-4.658-1.254-1.59-3.731-1.957-5.429-3.105-1.577-.847-4.928-1.962-3.102-3.88 4.323 1.62 6.844 5.051 12.407 5.434-.19-3.949-3.352-4.923-4.653-7.763-2.942-1.195-3.26-5.015-6.203-6.21-1.799 2.442-7.442 5.406-3.877 8.539-2.027-.221-3.335.281-3.101 2.329-.374 2.445 2.379 1.755 1.551 4.656 3.242 1.669 5.099 4.728 9.304 5.434 1.617 3.298 8.747 1.074 9.306 5.432-10.409.328-13.771-6.395-20.936-9.312-.031 8.826 7.979 9.606 11.63 14.745 3.054-.209 5.389.299 6.204 2.33-3.966.348-5.114-2.125-8.529-2.33-2.986-1.41-3.481-5.312-7.754-5.434-.447 1.366.936 4.562-.775 4.656-2.243-3.186-.925-9.938-3.102-13.192-.534-3.124.742-4.43.775-6.985-3.039-1.65-5.165 3.367-7.755 4.656-2.732 2.18-5.795 4.029-8.529 6.206-5.606 4.221-11.276 8.377-17.059 12.423-4.141 1.288-7.549 3.306-10.856 5.434-.375 15.665-4.531 27.544-6.203 41.914v6.985c-1.27 11.663-4.79 21.08-6.204 32.597-2.85 10.084-7.192 18.676-7.754 31.051 4.249 1.694 11.549.34 17.059.772 17.411-2.6 29.528-.148 50.403-.772 4.943 1.777 11.102 2.341 17.834 2.327 1.517-6.762 3.046-13.513 4.653-20.184 1.313-27.466 11.99-49.483 10.854-76.84-9.065-2.31-18.843-3.905-25.588-8.539.757-3.86-1.584-4.622-2.327-6.984.778-.003.923.629 1.551.779zM161.337 4.167c-4.968-.896-1.703 2.371 0 0zm3.876 24.838c1.467-.174 1.712.875 3.104.777.83-3.945-1.728-5.277.775-9.315-.992-.042-1.075-.995-2.328-.777-.689 4.377-.152 5.403-1.551 9.315zm-22.487 1.552c-1.507.614-5.384 2.818-3.876 3.88 3.652-1.26 6.336-3.49 7.755-6.985-2.533-.205-1.645 3.011-3.879 3.105zm42.649-1.552h2.327v-1.553h-2.327v1.553zm-40.321 6.985c1.443-.106 2.591-.51 3.101-1.552-1.768-.217-2.915.186-3.101 1.552zm18.608 2.328c-8.104 4.096-18.362 9.141-29.465 7.763-.608 8.445-4.567 13.537-4.652 22.508-2.72 4.783-4.354 10.647-5.427 17.077-1.011 4.115 2.245 3.96 1.55 7.762-2.083 17.655 4.536 32.495 11.631 43.466 7.51 5.677 14.122 12.254 20.936 18.628 4.668 1.278 8.583 3.31 13.958 3.881 5.102-1.104 7.253-5.159 10.855-7.763 3.731-2.734 6.323-6.604 10.079-9.314 6-10.035 14.908-17.161 17.062-31.046-.597-8.616.999-15.041.772-23.286-1.228-7.566-3.855-13.734-4.65-21.732-3.425-6.923-5.539-15.151-6.979-24.062-12.117 1.913-24.165-2.628-35.67-3.882zm56.606 49.676c.115-1.925.144-3.766-1.552-3.88-1.661 1.592-.399 3.694 1.552 3.88zm-99.254 13.194c.125-2.97.462-6.154-2.326-6.208-.23 3.075.947 4.743 2.326 6.208zm93.828 4.658c.002-.43-.63-.88-.778 0 0 .432.629.882.778 0zm-91.5 11.644c1.239-1.63-.054-5.695-1.552-6.987-.269 2.578-2.079 6.642 1.552 6.987zm55.053 41.913c-1.876.966-3.766 1.92-6.202 2.328-13.194-.765-20.996-6.927-27.916-13.972 1.409 5.835 1.28 13.207 3.103 18.627v10.867c-1.616 1.229.468 6.163-3.103 5.434-2.293-1.693 1.9-5.858-.776-7.762-2.913 3.032-3.044 8.852-5.427 12.418-1.198 15.102-4.518 28.077-7.753 41.138-4.637 5.45-6.62 13.555-10.857 19.405-3.094 6.993-6.289 13.885-6.979 23.284 2.774.331 4.137 2.069 7.754 1.554-.527-7.773 2.891-11.596 4.655-17.077 5.416-3.632 9.444-8.655 17.833-9.313 1.362-2.261 4.286-2.955 7.755-3.105 3.791 1.121 5.644 4.181 8.529 6.209.872-1.002 1.904-5.773 3.101-3.88v6.21c1.789 1.573 3.939 2.783 5.43 4.656 3.843.085 3.808-.762 6.978 0 2.729 1.365.601 6.397 1.551 7.762 3.243-.87 4.378-4.87 7.754-1.552.395-1.935-.024-4.682 2.327-4.657-.727-5.5 1.131-6.896 3.102-8.538.754-.63.961-1.557 2.324-1.552 4.418 1.011 8.423 2.436 9.309 6.985a18.838 18.838 0 0 0-3.104 3.105c-1.753-.573-1.697-2.958-3.875-3.105-.017-2.312.071-4.729-2.329-4.656-.491 3.755 1.026 5.488 0 7.761-1.068.033-1.703-.366-2.324-.777 1.474 4.322-2.947 2.745-3.102 5.434 4.114 6.613-1.844 9.936-2.327 16.3 3.373.014 6.978.256 9.304-.776.547-4.525.848-11.456 6.204-13.196-1.27 2.603-5.515 8.767-2.326 10.867 3.609-2.854 9.872-3.058 14.734-4.658.216-4.873-.204-9.108-1.551-12.418.892-.917.878-2.743.772-4.657-1.126-8.108-2.465-18.164 0-25.613v-8.538c3.892-15.441 3.817-39.002-3.875-51.228-2.199-.133-1.512 2.625-4.65 1.552-4.018-7.105-5.042-17.205-6.207-27.167-6.029 5.353-11.513 11.243-17.836 16.301zm24.041 1.553c2.608 3.597 6.698 5.711 8.525 10.088 2.391 4.6 2.832 11.142 3.881 17.077v16.3c-1.935 7.638-.381 18.769-3.103 25.613 2.489.167 1.885-2.768 3.103-3.879.858-1.47 1.932-2.721 2.323-4.657 2.873-2.298 5.763-4.583 6.979-8.539.456-4.337-1.777-5.983-1.551-10.09 2.028-9.095 7.788-14.454 17.059-16.298-.212-4.703-4.741-5.086-6.204-8.539-3.02-5.256-6.519-10.035-8.525-16.3-3.813-3.69-7.029-7.976-10.859-11.644-5.021-.921-8.619-3.273-13.957-3.88.263 5.431.867 10.519 2.329 14.748zm-62.811-5.434c-6.588 4.532-12.643 9.594-18.611 14.747-5.366 6.012-12.055 10.699-13.181 20.957 4.889-1.383 9.151-1.807 13.957 0 2.387 2.785 2.626 7.719 2.328 13.195-.361 2.745-3.477 2.729-3.104 6.208 1.125 2.24 2.12 4.606 3.879 6.211 1.952 1.407 1.624 5.097 3.876 6.209.917-4.256 2.223-8.124 3.876-11.644.574-13.655 3.87-24.588 6.98-35.705 1.278-2.601 3.759-3.999 4.652-6.985-1.903-4.046-.317-11.583-3.102-14.748-.008 1.029-1.358.712-1.55 1.555zm-47.301 32.599c-2.165.845-3.866 2.377-6.203 3.105-2.538.788-4.976.929-7.754 1.552-2.903 2.011-4.812 5.015-7.755 6.985-7.111 14.099-15.631 26.784-23.263 40.361-1.761 8.845-7.559 13.649-9.305 22.509-4.004 6.602-6.239 14.969-10.856 20.956-2.663 12.602-9.812 20.71-11.631 34.153-3.59 4.167-3.677 11.843-6.204 17.075-2.048 5.71-3.774 11.746-5.427 17.854-1.019 9.585-2.023 19.189-1.551 30.27 1.281 4.927 2.285 10.132 4.652 13.971 3.385 2.048 7.672 3.188 11.633 4.656 2.684-1.192 7.068-.685 10.854-.773 4.743-1.725 9.352-3.576 15.509-3.883 4.431-3.325 11.448-4.062 15.509-7.761 6.403-1.353 9.667-5.848 15.508-7.761 3.958-3.803 8.715-6.8 13.182-10.09 4.548-3.469 8.902-7.132 13.959-10.093 8.34-9.243 16.914-18.254 29.464-23.285.313-3.16-2.627-3.061-3.876-4.655-.722-2.123-2.38-3.31-3.102-5.432-3.172-5.622-2.464-15.13-3.877-22.51-13.958 3.1-23.009 11.117-37.22 13.968-6.883 4.753-16.207 7.062-24.038 10.868-3.75 2.197-8.618 3.276-11.631 6.21-4.507.568-7.228 6.508-11.631 4.656 2.17-4.557 8.627-4.819 11.631-8.539 5.909-1.071 8.924-5.037 14.733-6.207-2.012-19.694 2.943-38.202 10.854-50.453v-12.419c.311-2.934-2.596-6.663-.775-8.538 1.363.707 1.42 2.72 2.327 3.88 1.035 1.293-.282 4.94 2.328 4.658.656-3.225 1.062-6.696 2.327-9.315.461-1.607-.959-5.099.774-5.431.469-1.602-1.251-5.393 1.551-4.657 3.401 4.97-1.619 12.134-1.551 18.627-2.096 5.664-4.138 11.381-5.428 17.851-6.003 7.702-8.99 18.425-10.081 31.048-.193 5.506.607 8.167 0 10.09-.323 1.027-1.043 1.502-.774 3.105 11.017-2.17 17.475-8.896 28.69-10.866 4.311-3.449 10.185-5.329 15.509-7.763-.447-8.255-.214-16.676-1.551-25.614.056-3.304 1.295-5.426.775-9.314 2.812-7.791 4.051-17.158 7.754-24.059 2.785-2.646 4.151-6.713 6.204-10.092 1.208-4.224 3.938-6.923 3.101-13.195-1.363-5.361-5.92-7.529-6.979-13.196 2.55-5.167 5.237-11.129 1.551-17.075-5.349-3.101-10.38 2.981-14.732.777-3.128-4.43 3.455-9.276 1.551-12.419-3.646 3.394-9.82 4.295-14.735 6.21zm151.982 0c-1.634 1.986-4.581 2.661-8.528 2.328-4.067 3.172-9.472 5.008-10.854 10.867-.541 4.42 1.314 6.447.773 10.866-2.642 7.449-8.338 11.835-11.633 18.629-1.032 8.021-.204 17.904-1.552 25.614 1.609 11.492 2.382 19.09 2.33 31.824-2.153 3.281-2.605 8.257-2.33 13.973 5.029.254 13.684-2.859 17.062.772 1.195 6.116-4.338 5.492-6.201 8.539 4.833 2.407 8.727 5.752 12.405 9.314 4.877 2.619 9.66 5.332 11.633 10.866-2.384 3.306-2.246 9.138-8.53 8.539.229 2.872 3.414 2.793 2.323 6.984-8.224 3.938-16.755-2.746-25.589-3.104-6.384-.312-12.146 1.924-17.834 0-2.614 4.888-5.882 9.116-8.528 13.971 2.311.017 4.725-.072 4.653 2.329.229 5.666-3.814 7.052-7.755 8.539-2.188-.916-2.598-3.61-3.878-5.435-1.2 3.199-5.141 3.651-6.979 6.21 2.78 2.131 6.335 3.488 10.08 4.656 1.712-1.129 1.535-4.157 3.878-4.656 10.035-1.667 20.459-5.976 31.016-4.656 2.232-1.391 5.754-1.487 8.53-2.329 13.932.475 25.924-2.169 38.771-4.658-3.03-21.45-4.896-39.558-6.201-62.094-1.676-5.311-3.02-10.951-4.653-16.298-.836-2.787-1.951-5.293-2.329-8.541-1.019-1.601-4.236-5.017-2.324-6.984 3.177 2.769 4.631 7.266 5.426 12.421 1.303 4.647 3.232 8.666 3.881 13.968 3.312 8.846 2.213 22.106 4.65 31.824-.116 8.397 1.46 15.096 2.329 22.509-.221 4.104.041 7.72 1.551 10.09 2.846 2.067 8.605 1.218 12.406 2.33 1.694 1.147 4.17 1.515 5.426 3.104 1.688 1.413 5.456.748 6.204 3.104-2.492 3.207-5.655-.646-8.531-1.551-3.919-.734-6.397-2.909-10.854-3.104-2.086.753-3.977 1.711-6.201 2.326-7.815.461-14.605 1.94-20.937 3.883-14.947.823-28.104 3.437-43.426 3.881-3.229 1.424-6.745 2.561-10.079 3.877 3.527 9.329 2.492 23.645 0 33.378 36.617-1.401 68.671 2.12 104.681 0 3.938-2.004 8.617-3.273 13.182-4.658 3.75-6.077 8.953-10.7 10.079-19.404v-16.298c-5.302-27.032-9.348-55.323-16.283-80.723-1.173-6.847-4.088-11.947-5.426-18.629-3.047-4.972-2.818-13.222-6.204-17.851-3.961-12.338-9.861-22.728-13.96-34.93-4.398-4.908-8.32-10.295-12.405-15.523-4.007-1.421-6.414-4.447-10.082-6.209-4.363-1.323-7.608-3.766-10.854-6.209h-1.551c-.905.131-.844 1.228-.778 2.329zm-89.174 87.708c-.374 2.445 2.38 1.756 1.551 4.656-1.391 1.457-4.759.927-5.427 3.104 6.964 1.267 15.724-1.656 21.712-3.878.93-1.658.946-4.23 3.102-4.658-1.625-3.552-4.724-5.622-5.429-10.092.987-1.857 2.832-2.856 2.327-6.209-7.373 1.897-10.042-6.101-16.285-7.762.111 9.651 1.724 16.698-1.551 24.839zm34.12-20.957c-.215-.214-1.179.375-.778.776.216.215 1.179-.374.778-.776zm-10.082 10.867h1.552v-1.553h-1.552v1.553zm2.328 7.764c-.29 1.159-4.424 4.448-.775 4.655 1.291-4.398 4.313-7.064 5.429-11.644-1.107-.185-1.309-1.277-2.327-1.553-.078 3.549-3.058 4.186-2.327 8.542zm27.916 0c-4.703 4.344-13.891 4.206-17.059 10.087-5.238-.966-10.689-1.72-17.061-1.551-1.821.245-1.735 2.401-3.102 3.104-5.2.486-7.484 3.895-12.407 4.656 3.17-.326 3.134 2.556 6.979 1.554.745-1.327 2.437-1.703 3.877-2.329 6.212-.268 10.514 1.377 17.061.775 1.543.011.985 2.119 3.102 1.554 10.242.679 15.301-3.828 20.937-7.764.337-2.652 1.764-6.979 0-9.314-.991-.041-1.074-.993-2.327-.772zm-43.426 20.177c4.578.441 6.753-1.518 9.306-3.104-2.772-.832-7.138 1.015-9.306 3.104zm-35.668 3.105c3.131.78 7.108 1.258 8.529-1.552-3.082-.049-7.486-2.814-9.305-1.554 1.149.147.711 1.878.776 3.106zm49.627 0h9.306c3 1.134 7.093 1.181 10.079 2.332 3.532-.911 7.223 2.031 8.53.772-1.147-.141-.712-1.877-.775-3.104-2.834.251-3.082-2.087-3.877-3.881-3.627-.783-2.578 3.113-6.204 2.329-6.618.009-15.618-4.054-20.16.776 1.16.133 2.861-.276 3.101.776zm55.831 25.614c-4.034-1.913-6.921-4.974-10.081-7.761-5.738-.982-9.127-4.316-14.735-5.435-3.85-3.13-9.654-4.306-13.181-7.761-4.767-.29-9.19-1.879-13.182-.775-5.427-2.332-13.22-2.291-20.938-2.329-5.833-2.034-13.005.113-19.385 0-4.722 3.549-12.449 4.096-18.61 6.209.079 3.18.152 6.362-.774 8.537 1.362 9.245 2.261 18.951 10.854 20.958 3.467-4.551 8.557-7.474 13.958-10.09 7.334 3.783 14.895 7.341 21.712 11.641 9.687 1.945 19.021 4.242 28.689 6.21 4.482.348 7.945-.326 11.633-.775 9.765.312 16.865 3.301 25.59 4.658-.955-3.447-5.95-2.843-7.756-5.434-3.452-.429-7.143-.613-9.306-2.33-3.825-.052-7.868.116-9.307-2.329 8.214-1.67 17.31 2.282 24.816 3.883.745-3.336-3.809-1.36-3.877-3.883-2.468-.116-3.411-1.758-6.204-1.551-2.675-2.757-7.827-3.03-10.082-6.207-3.624-.517-6.806-1.466-8.528-3.883 4.265-.646 5.294 1.942 9.307 1.551 4.026 2.437 7.862 5.067 13.181 6.21 1.309 2.056 4.756 1.97 6.978 3.104 1.945.455 5.108 4.14 6.204.775-3.144-3.836-10.016-3.943-12.406-8.536-4.841-1.104-8.003-3.892-11.633-6.21h-5.426c-.215-1.598-2.89-.731-3.102-2.329-1.353-.718-4.162.027-3.878-2.329 3.648.748 6.759 2.031 10.854 2.329 3.563 3.163 9.695 3.748 13.184 6.985 6.323.397 7.918 5.528 13.957 6.21-.241-5.703-6.862-5.029-8.526-9.313zM212.512 306.1c2.44.665 3.273 2.934 6.204 3.104 4.165-.485 8.474-.833 8.531-5.432-3.929-.799-11.064.431-14.735 2.328zm-32.565 34.928c-4.386-1.562-9.169-2.725-13.958-3.881-4.304-4.23-10.73-6.334-14.732-10.865h-2.327c-1.674 3.24-5.252 4.576-8.531 6.207.623 2.696-1.153 2.986-.774 5.434-4.497 1.189-7.835 3.544-10.081 6.985 5.696 1.77-2.862 4.073 0 6.985.275-1.106 3.951-2.649 4.652-.775-.443 2.917-1.356 5.368-4.652 5.434-2.063-.005-1.979-2.158-3.102-3.107-2.485 6.768 4.993 9.908 8.529 13.198 4.749-.4 8.775 3.339 13.183.775-.486-3.773-7.074-3.395-10.081-2.327-1.988-1.893-5.627-2.13-5.429-6.209 5.173-5.264 15.883-3.627 23.263-3.105 2.92 2.766 6.479 4.899 10.856 6.21 1.258 2.362 2.389 4.854 5.429 5.432 4.413-1.272 5.731-5.646 10.08-6.985 3.325-5.986 9.482-9.135 11.633-16.3-4.785-.906-7.981-3.399-13.958-3.106zm-60.484 9.312h1.551v-1.549h-1.551v1.549zm66.688 14.751c1.311 1.913 5.403-2.351 3.102-3.883-.138 2.188-3.688.972-3.102 3.883zm-3.103 40.36c-12.435-2.199-22.932 3.047-37.219 3.104-.651 8.666-1.303 17.327-1.552 26.39-3.905 14.719-6.453 30.798-9.305 46.57.591 5.509-.963 8.867-.775 13.973-2.289 4.951-3.2 11.285-4.652 17.075 21.583.533 42.556-.712 64.361.775 21.03.163 42.239.152 58.931 4.659 9.795-19.688 12.174-46.805 11.631-76.843-1.176-5.031-1.425-10.995-3.1-15.524.957-4.093.003-11.511-.778-16.299-23.646 1.575-49.631-3.08-71.337 1.554-4.163.285-2.043-5.718-6.205-5.434z"/><path d="M217.941 417.095c4.689.74 5.614 5.25 8.531 7.761 5.964 1.794 8.674 6.839 16.283 6.985 2.624 2.807 8.202 2.66 10.857 5.432-.476 5.131 1.354 7.959.772 13.197-2.439 1.874-3.781-2.533-6.975-2.329-1.989-1.374-3.144-3.579-6.207-3.88-1.07-2.291-3.579-3.144-4.652-5.435-7.156-2.663-10.847-8.804-16.283-13.195-3.144.042-4.647-1.557-6.204-3.104 1.038-2.068 3.607-2.603 3.878-5.432zm0 6.21c5.815 3.748 11.297 7.838 16.286 12.419 5.887 3.68 10.026 9.105 17.059 11.642.149-4.135.801-5.897-.775-9.314-1.927-.919-4.562-1.123-6.979-1.554-7.811-5.636-18.146-8.74-24.038-16.297h-2.327c-.059 1.351.172 2.411.774 3.104z"/></g></svg>