<svg version="1.1" xmlns="http://www.w3.org/2000/svg" x="0" y="0" width="325.984" height="327.112" viewBox="0 0 325.984 327.112" xml:space="preserve"><path d="M310.271 13.516c-.054-.809-.619-1.611-1.517-1.36-.92.258-.976.271-1.673.881-.988.863-.241 3.113.916 2.613.087 8.031-2.018 15.915-4.431 23.535-2.542 8.03-4.991 16.566-9.517 23.729-9.162 14.498-25.531 24.021-39.434 33.38-16.229 10.926-33.136 20.843-49.506 31.562-6.036 3.953-13.33 8.188-17.242 14.445-.464.746-1.801 2.73-2.719 4.75-2.123-5.658-5.196-10.787-9.661-15.664-3.394-3.71-7.168-7.062-10.767-10.568-3.727-3.633-6.832-7.79-10.014-11.893-1.348-1.739-2.73-3.484-4.2-5.148 2.598-2.781 6.783-4.352 10.101-5.879 4.15-1.912 8.235-3.95 12.246-6.144 11.562-6.325 21.463-14.707 31.378-23.292 10.397-9.003 20.695-18.122 31.169-27.037 4.139-3.523 8.258-7.1 12.543-10.444 4.308-3.363 9.426-6.992 15.067-7.252 1.476-.069 1.405-2.827-.067-2.76-6.637.306-12.591 4.399-17.938 8.849 1.054-5.689 1.211-11.593.763-17.347-.089-1.148-1.411-1.075-1.497.037-.441 5.665-.421 11.3-1.311 16.933-.111.714.31 1.255.799 1.427-2.108 1.801-4.124 3.616-6.043 5.224-11.334 9.501-22.379 19.337-33.522 29.059-10.297 8.983-20.548 17.615-32.503 24.344-4.697 2.643-9.583 4.863-14.43 7.204-2.808 1.356-6.263 2.962-8.005 5.708a38.82 38.82 0 0 0-3.661-3.435c-4.134-3.374-8.855-6.072-13.306-9.007-8.771-5.783-17.25-12.003-24.072-20.072-3.489-4.126-5.898-8.843-8.778-13.369-2.75-4.324-6.048-8.279-9.52-12.035-3.536-3.828-7.379-7.361-11.32-10.771.135-.34.166-.735.02-1.055-2.487-5.423-4.236-12.751-2.149-18.596.396-1.109-.939-2.321-1.601-1.042-2.302 4.459-1.89 12.435.392 17.84-4.96-4.184-10.01-8.433-15.603-11.733-.442-.261-.741.418-.45.73 7.199 7.708 16.152 13.75 23.821 21.002 3.699 3.5 7.164 7.235 10.358 11.2 3.647 4.525 6.215 9.614 9.364 14.457 5.269 8.102 12.563 14.544 20.292 20.224 8.391 6.167 18.284 10.848 25.387 18.563 3.274 3.557 6.064 7.547 9.063 11.331 3.3 4.162 7.163 7.747 10.985 11.415 3.814 3.657 7.503 7.438 10.509 11.801 3.596 5.219 5.273 11.275 6.386 17.438 2.198 12.193 5.553 24.779 4.16 37.23-.509 4.547.343 8.422 2.193 12.564 1.131 2.533 2.431 4.967 3.462 7.549.39.975.679 1.871.781 2.688-.182-.09-.396-.094-.623.059-.635.426-.937 1.178-1.518 1.672-.45.383-.97.627-1.527.75.31-.594.098-1.584-.575-1.723-1.296-.27-3.06-.033-3.464-1.615-.319-1.254.4-2.979.794-4.145.734-2.172 2.016-4.549 1.778-6.91-.111-1.096-1.458-1.082-1.482.037-.072 3.332-2.598 6.479-2.974 9.855-.338 3.043 1.665 5.275 4.589 5.043-.077.34.056.766.397.875a4.186 4.186 0 0 0 1.599.199c-1.817.594-5.196.438-6.554-.807-.278-.256-.575-.359-.856-.359-.49-1.488-.99-2.973-1.504-4.451-3.867-11.141-7.975-22.676-6.068-34.674 1.231-7.74 4.854-18.449-1.509-24.959-1.258-1.287-2.706.945-1.63 2.045 6.548 6.682.669 18.682.304 26.6-.429 9.338 1.947 18.98 5.18 27.654 6.121 16.43 10.086 33.436 12.984 50.697.176 1.043.413 2.938.469 4.986-1.289-3.035-4.295-5.264-7.868-4.051-.959.326-.908 1.732-.243 2.236-.367 2.904-.4 5.648 1.2 8.293.775 1.281 2.166-.213 1.378-1.301-1.402-1.939-1.734-4.512-1.621-6.891 4.594-1.393 6.812 4.516 4.436 7.824-.541.752-.161 1.809.495 2.074-.908.529-2.152.484-3.852-.459-4.57-2.539-5.789-10.58-7.004-15.16-4.479-16.877-9.704-35.047-19.688-49.564a1.347 1.347 0 0 0-.212-.238c-.403-.914-1.562-1.396-2.02-.178-3.082 8.221-2.9 17.34-2.433 25.977.393 7.275 1.118 14.553 2.004 21.789-.141.277-.172.625.021.969.038.066.081.137.122.205.057.455.107.91.165 1.365 1.05 8.203 2.228 16.889.246 25.035-.182.744-.642 1.902-1.28 3.117.033-4.168-2.994-8.766-7.344-8.141-.353.051-.682.225-.821.578-.823 2.098-1.304 4.246-1.343 6.479-.864-3.281-1.097-6.895-1.377-9.99-.464-5.123-.58-10.281-.594-15.426-.045-15.809-.327-33.826-9.158-47.609-.437-.682-1.045-.553-1.385-.123-.305-.049-.634.061-.932.428-5.425 6.709-7.694 15.092-9.242 23.428-1.174 6.322-2.179 12.717-2.413 19.145-.233 6.453-.347 12.945-1.618 19.297-.347 1.732-1.229 4.244-2.526 6.09-.032-3.223-.301-6.717-2.57-9.17-.341-.369-.753-.248-1.005.047-1.237-2.002-4.06-1.336-5.984-.104-.016-1.695.064-3.326.105-4.689.175-5.713.996-11.408 1.894-17.045.884-5.549 1.77-11.098 2.709-16.637 1.551-9.143 3.99-20.469.792-29.516.279-.848-.353-2.041-1.25-1.369-7.755 5.795-11.926 14.906-15.361 23.701-1.783 4.568-3.341 9.219-5.068 13.809-1.424 3.783-2.91 7.176-3.013 11.281-.058 2.295.538 5.461 2.559 6.887 2.819 1.992 5.994.471 8.604-1.15 5.449-3.383 7.327-10.23 9.226-16.67a731.634 731.634 0 0 0-2.067 12.887c-.915 6.055-1.575 12.207-1.397 18.34.124 4.271.628 9.723 4.043 12.756 3.003 2.666 7.48 1.771 9.767-1.281 3.418-4.561 3.641-11.555 4.056-16.988.093-1.217.173-2.449.249-3.688 1.997 6.621 6.411 13.488 12.222 9.828 5.364-3.377 6.168-10.312 6.378-16.105.14-3.811-.171-7.637-.479-11.432-.098-1.203-.133-2.463-.182-3.732.234 1.99.416 4.002.545 6.045.337 5.365.184 10.729.237 16.096.056 5.646.304 11.303 1.004 16.906.517 4.129 1.099 9.256 3.741 12.67 2.235 2.887 5.274 2.289 7.785.072 5.125-4.523 5.804-12.053 5.861-18.453.041-4.514-.442-8.994-1.001-13.469.13.127.262.25.396.373.569 1.523 1.706 2.629 3.801 2.891.261.031.446-.119.554-.336 1.834.457 3.705.064 5.31-1.836.351-.414.658-.855.947-1.307.486.352 1.297.207 1.469-.582.23-1.068.28-2.129.182-3.168 1.044-3.668.899-7.918.253-12.074 1.999 6.623 3.825 13.303 5.818 19.875 1.38 4.547 3.717 11.375 9.198 12.146 5.615.789 7.006-5.293 7.068-9.561.095-6.529-1.826-13.262-2.996-19.652-.15-.83-.321-1.656-.484-2.484 1.458 2.594 3.218 5.006 5.438 6.941 2.707 2.361 7.988 3.947 10.243.312 2.292-3.693-1.684-10.477-2.917-13.754-2.245-5.965-4.194-13.682-8.638-18.529.896-.793 1.553-1.793 1.793-3.029.604-3.1-1.494-6.85-2.728-9.537-1.071-2.338-2.271-4.586-3.146-7.01-1.148-3.182-.842-6.213-.567-9.5.968-11.623-2.218-22.682-4-34.061-.514-3.287-1.207-6.383-2.12-9.336.657-1.176 2.725-5.062 2.987-5.512 1.966-3.354 5.039-5.697 8.072-8.049 6.956-5.396 14.676-9.982 22.098-14.703 16.038-10.204 32.229-20.028 47.913-30.779 4.458-3.057 8.922-6.222 13.137-9.659-1.231 5.343-.942 10.954-.879 16.441.109 9.266.278 18.498.901 27.747.606 8.985 1.975 17.858 3.284 26.758 1.533 10.424 2.014 20.656 2.108 31.174.18 19.74 1.32 39.498 3.601 59.109 1.089 9.375 2.395 18.721 3.158 28.131.373 4.607.722 9.273.319 13.887-.212 2.422-.313 4.762.365 6.973-1.475-.258-3.366.068-4.71.104-3.616.096-7.23.266-10.841.471-10.005.568-19.959.994-29.964.156-12.57-1.051-25.216.869-37.744 1.643-12.782.789-25.579 1.082-38.361 1.996-12.622.904-25.201 1.492-37.837 2.066-12.186.555-24.111 3.471-36.274 4.238-6.495.41-12.945-.211-19.359-1.209-6.068-.943-11.902-1.363-18.056-1.365-7.877 0-22.392.754-27.375-7.1-1.673-2.635-.697-6.434-.171-9.24.708-3.777 1.837-7.473 2.67-11.225 1.792-8.066 1.446-16.768 1.781-24.986.75-18.412 1.201-36.797 3.467-55.102 2.125-17.172 5.191-34.404 5.226-51.756.017-9.018-1.101-17.988-.907-27.012.165-7.626 1.81-14.939.531-22.547 4.294 3.04 8.703 5.919 12.974 8.989 5.787 4.158 11.146 8.836 16.987 12.937 6.249 4.387 11.941 9.133 17.493 14.362 4.259 4.012 8.073 8.236 9.924 13.66 1.168 10.104 2.171 19.76 1.461 30.002-.365 5.26-.968 10.646-2.433 15.725-1.57 5.447-4.588 10.408-7.026 15.539-4.487 3.004-7.4 7.635-10.611 11.902-1.636 2.174 2.093 5.182 4.35 5.66a144.208 144.208 0 0 0-3.392 16.133c-.952 6.279-2.314 15.975 2.87 20.871 1.241 1.172 2.695-.838 1.622-1.932-2.53-2.574-3.231-6.502-3.143-10.621 1.109.107 2.177.965 2.763 1.83.648.959 1.62-.008 1.252-.906-.342-.834-.96-1.506-1.813-1.838-.816-.318-1.451-.184-2.175.008.208-4.295 1.193-8.703 1.829-11.936 2.303-11.707 5.981-23.107 11.308-33.783 4.699-9.418 6.349-18.74 6.921-29.178.405-7.391.794-16.209-1.129-23.818a1.19 1.19 0 0 0 .295-.779c.048-5.627-3.586-10.453-7.17-14.469-4.261-4.773-9.249-9.238-14.266-13.195-6.153-4.852-12.796-8.997-18.846-13.994-4.719-3.898-9.794-7.308-14.848-10.748-10.538-7.169-21.374-15.034-25.878-27.487-5.836-16.135-3.322-34.129-8.592-50.42-.101-.315-.439-.144-.396.142 2.495 16.518 1.777 33.838 6.474 49.978 3.243 11.145 11.958 19.181 21.022 25.819.234.171.475.335.709.506-.24.248-.402.613-.342 1.04.866 6.13-.021 12.293-.646 18.401-.607 5.917-.353 11.849-.034 17.774.704 13.105.187 25.826-1.36 38.865-1.487 12.537-3.486 25.006-4.734 37.57-1.241 12.492-1.491 25.098-1.982 37.635-.482 12.355-.434 24.678-3.494 36.709-1.882 7.404-3.975 15.559 3.34 20.488.672.453 1.385.846 2.119 1.211.273 7.123 1.355 14.184 1.176 21.328-.043 1.748 2.303 1.656 2.376-.057.29-6.805-.773-13.578-1.429-20.34 6.608 2.457 14.847 2.256 21.324 2.27 12.584.023 24.812 3.156 37.415 2.576 8.715-.402 17.324-2.232 25.969-3.287 9.411-1.15 18.835-1.053 28.286-1.57 18.905-1.033 37.765-2.461 56.685-3.336 9.092-.42 18.136-1.529 27.233-1.889 9.37-.369 18.692.84 28.07.678 5.725-.1 11.421-.521 17.138-.803 2.149-.104 4.301-.18 6.452-.248-.309 8.26-1.838 16.361-2.289 24.596-.077 1.404 2.001 1.748 2.205.293 1.143-8.148 2.548-16.723 1.968-24.98 1.285-.109 2.963-.35 4.009.041.584.219 1.031.02 1.31-.355 1.048.926 2.688-.527 1.854-1.824-2.155-3.354-.978-7.525-.872-11.258.126-4.479-.404-9.059-.795-13.516-.779-8.906-2.064-17.764-3.097-26.643-2.222-19.121-3.259-38.375-3.521-57.617-.125-9.135-.373-18.068-1.578-27.139-1.165-8.789-2.741-17.518-3.561-26.352-.82-8.841-1.163-17.751-1.302-26.627-.117-7.671-1.165-16.367.951-23.883 6.52-5.624 12.271-12.018 16.185-19.871 3.373-6.768 5.469-14.546 7.687-21.76 2.394-7.787 4.282-15.978 3.733-24.174zM94.28 258.523c-2.988-1.42-1.768-7.254-1.146-9.604.029-.107.064-.215.095-.324.06.184.198.328.413.309 2.833-.254 5.445.316 7.062 2.693-.313 2.25-.925 4.26-1.819 6.402-1.509.867-3.123 1.227-4.605.524zm7.428-2.801c.223-1.08.306-2.195.291-3.303.395-.229.668-.82.434-1.375-1.5-3.547-5.582-4.219-8.934-3.158-.03.008-.05.029-.076.043.975-3.188 2.508-6.328 3.63-9.449 1.294-3.605 2.576-7.211 3.989-10.771 2.93-7.381 6.719-14.385 12.415-19.961.314 5.1.616 10.033.13 15.188-.295 3.131-.758 6.244-1.275 9.348-.174.059-.34.186-.482.41-3.807 5.977-4.312 13.201-7.509 19.471-.532 1.039-1.465 2.36-2.613 3.557zm10.375 28.393c-1.874-1.936-2.519-5.012-2.704-8.102.821-.553 1.697-.975 2.696-1.096 1.143-.139 1.884.594 2.71 1.246.333.264.645.078.822-.219 1.385 2.568 1.353 5.482 1.354 8.375 0 .334.112.58.275.752-1.441 1.03-3.187 1.073-5.153-.956zm28.506-46.92c-.986 4.275.414 9.672.689 14.014.367 5.773.667 12.158-1.804 17.533-2.703 5.883-7.64 4.268-10.332-.318-.054-.092-.104-.193-.157-.287.279-1.848.584-3.705 1.295-5.441.732-1.789 3.158-3.527 4.832-1.738 2.062 2.205.708 6.934.912 9.631.083 1.084 1.678 1.498 1.798.24.343-3.607 1.229-9.936-2.347-12.277-1.836-1.201-4.316-.262-5.664 1.182-1.333 1.426-1.886 3.553-2.194 5.602-1.134-2.723-1.892-5.799-1.735-8.523a.925.925 0 0 0-.226-.684c.747-12.57 2.034-25.463 8.703-36.115.526-.842 1.141-1.621 1.762-2.393 2.806 6.211 4.731 12.484 5.962 18.979-.494-.415-1.312-.194-1.494.595zm9.383 55.482c-.721-1.168-1.245-2.484-1.655-3.865.251-2.039 1.094-3.744 2.318-5.373.657-.875 2.71.705 3.18 1.186 1.938 1.98 1.848 4.816.862 7.176-.175.422-.076.93.161 1.307-1.592 1.507-3.381 1.969-4.866-.431zm13.177-30.818c-.323-1.09-.212-2.393-.15-3.455.122-2.107.592-4.186.152-6.256.173.232.441.365.761.248 1.521-.562 3.103-.203 4.621-.514a.99.99 0 0 0 .194.406c1.526 1.9 2.526 3.926 2.969 6.141-1.102 5.834-5.144 5.844-8.547 3.43zm6.234-25.799c1.164 6.014 2.796 11.74 2.728 17.771a18.971 18.971 0 0 0-2.185-3.016c-.169-.189-.34-.283-.506-.305-.093-.297-.292-.551-.594-.635-1.727-.477-4 .076-5.532.928-.226.125-.325.354-.345.602-.165-.408-.628-.258-.662.154-.17 2.062-1.061 5.498-1.102 8.557a11.617 11.617 0 0 1-.343-.389c-.319-2.492-.627-4.984-.848-7.484-.857-9.691-1.929-19.391-1.336-29.133.19-3.115.677-6.25 1.596-9.238 4.069 6.551 7.192 13.539 9.816 20.744-.458.207-.821.75-.687 1.444zm36.711 12.844c.541 1.66 1.496 4.949-1.151 5.293a4.628 4.628 0 0 1-.788.025c.252-.457.215-1.152-.274-1.412-1.072-.568-2.044-1.191-2.795-2.051a.86.86 0 0 0 .028-.283c-.181-2.008.593-3.451 2.647-3.828 1.062-.195.796-2.383-.31-2.207-2.478.398-3.728 2.219-3.955 4.393-.28.105-.525.439-.416.789.41 1.32 1.035 2.621 1.98 3.6-.982-.582-1.876-1.332-2.61-2.072-3.117-3.129-5-7.545-6.65-11.568-.19-.459-.526-.645-.881-.643a237.283 237.283 0 0 0-4.192-15.051c2.724 1.072 6.407.891 8.997-.582 3.341 8.563 7.502 16.813 10.37 25.597zM86.119 214.74c2.392-3.211 4.842-6.379 7.12-9.668a120.283 120.283 0 0 0-4.237 12.24c-1.222-.723-2.186-1.375-2.883-2.572z"/><path d="M170.699 309.32c-.052 3.525-.414 7.039-.421 10.564-.002 1.717 2.296 1.643 2.319-.057.045-3.521.284-7.039.286-10.561.001-1.626-2.161-1.558-2.184.054z"/></svg>