<svg version="1.1" xmlns="http://www.w3.org/2000/svg" x="0" y="0" width="325.984" height="485.111" viewBox="0 0 325.984 485.111" xml:space="preserve"><path d="M130.962 27.495c.379 3.335.024 6.414-.848 9.641-.713 2.632-1.813 5.196-1.812 7.95 0 .94 1.297 1.499 1.714.494 2.277-5.488 4.065-12.512 2.546-18.381-.268-1.036-1.719-.754-1.6.296z"/><path d="M123.923 37.92c2.249 6.134 8.54 14.12 5.738 20.736-.786 1.855-2.283 3.5-4.118 4.332-1.965.891-3.489-.927-4.621-2.172-2.272-2.501-4.122-5.722-5.614-8.74-3.254-6.585-.883-14.349-1.052-21.331-.084-3.548-.808-5.909 2.112-8.613 2.728-2.525 5-3.064 8.534-2.647 7.833.924 14.721-2.724 22.302-3.825 8.161-1.186 12.911 5.938 16.919 11.807 4.539 6.645 8.518 13.635 13.355 20.08 4.271 5.689 10.557 10.702 11.749 18.074.296 1.823 2.603.851 2.357-.808-1.273-8.626-9.293-14.964-14.19-21.667-6.078-8.319-10.583-18.097-17.764-25.569-6.402-6.664-14.267-4.644-22.194-2.32-4.865 1.426-9.304 1.834-14.305 1.29-3.612-.393-6.289 1.666-8.821 4.011-1.866 1.729-2.59 3.812-2.651 6.297-.111 4.575.159 9.025-.229 13.625-.703 8.357 2.248 14.943 7.218 21.51 4.397 5.811 9.837 3.907 12.946-2.086 3.959-7.63-3.551-16.137-6.676-22.504-.324-.665-1.224-.105-.995.52z"/><path d="M130.469 41.667c3.906 1.735 8.765-1.234 11.504-3.869 2.396-2.306 6.302-6.877 4.854-10.504-.298-.747-1.228-.555-1.542.038-.569 1.078-.66 2.35-1.145 3.485-.741 1.74-1.989 3.23-3.276 4.589-2.812 2.968-6.206 4.299-10.211 4.231-1.145-.021-1.02 1.658-.184 2.03zM140.322 47.709c-.805-.371-1.558-.707-2.428-.904-1.413-.319-1.787 1.972-.502 2.379 7.112 2.259 15.982-1.635 19.375-8.368.389-.771-.408-2.076-1.287-1.422-2.395 1.78-4.205 4.151-6.741 5.824-3.302 2.177-7.085 2.649-10.845 1.587l-.502 2.379c.788.124 1.473.375 2.211.674 1.137.463 1.729-1.683.719-2.149z"/><path d="M130.503 48.718c7.045-1.812 9.912 2.933 13.656 7.876 3.193 4.216 7.575 6.617 12.352 8.675 5.945 2.56 12.023 4.556 18.526 3.422 3.641-.635 7.131-2.068 10.651-3.147 4.054-1.241 8.109-1.559 12.312-1.232 7.902.614 16.941 4.322 21.13 11.347 3.557 5.963.744 13.863.951 20.356.185 5.731 3.271 9.982 6.768 14.232 2.845 3.46 3.833 8.067 1.99 12.264-1.324 3.018-5.044 4.877-7.607 6.682-1.356.957-.113 3.539 1.376 2.493 5.352-3.761 9.531-6.721 9.78-13.736.269-7.613-6.861-11.527-9.12-18.156-2.287-6.712.82-14.261-.398-21.196-1.244-7.085-7.636-11.589-13.753-14.312-7.122-3.171-15.299-3.621-22.799-1.75-4.715 1.177-9.1 3.233-13.962 3.845-4.117.518-8.226-1.022-12.053-2.353-7.261-2.525-12.221-5.921-16.777-12.009-3.551-4.747-7.57-7.258-13.402-4.746-.755.324-.49 1.668.379 1.445z"/><path d="M148.807 60.359c2.249-1.798 3.912-4.04 5.227-6.588.705-1.367-1.231-2.833-2.005-1.29-1.1 2.19-2.484 4.207-4.299 5.869-.914.836-.081 2.936 1.077 2.009zM154.467 63.832c2.609-5.173 5.797-10.122 11.711-11.689 1.185-.314.91-2.712-.353-2.485-6.639 1.198-10.865 7.485-12.838 13.5-.304.928 1.012 1.604 1.48.674zM132.557 66.061c.181.862.923 1.436 1.543 2.016 1.024.958 2.031 1.937 3.036 2.915 2.029 1.972 3.8 4.199 6.002 5.983.73.592 1.323-.636 1.013-1.224-1.443-2.727-3.871-4.793-6.128-6.838-1.155-1.047-3.519-3.739-5.243-3.333-.204.047-.259.309-.223.481zM128.137 68.427c-1.922 4.553-3.333 9.44-3.535 14.402-.047 1.179 1.703 1.471 1.869.245.643-4.736 1.366-9.245 3.087-13.738.379-.991-.943-2.043-1.421-.909zM130.562 77.178c.644 1.299 1.103 2.675 2.13 3.731.799.821 1.559-.366 1.235-1.155-.523-1.275-1.057-2.541-1.665-3.781-.66-1.347-2.293.009-1.7 1.205zM135.196 59.063c2.033.39 3.912 1.167 5.863 1.826 1.205.407 1.793-1.735.745-2.22-1.961-.909-3.975-1.597-6.113-1.955-1.395-.233-1.809 2.096-.495 2.349zM112.91 29.328c-7.734 4.295-8.09 13.935-7.897 21.73.101 4.126.813 17.966 7.739 17.073.89-.115 1.346-1.591.423-2.027-5.81-2.749-5.873-10.23-6.015-15.964-.065-2.666.027-5.358.334-8.007.587-5.066 3.885-7.914 5.901-12.261.15-.324-.135-.739-.485-.544z"/><path d="M107.264 34.635c-3.211-.789-8.021 1.521-9.641 4.408-2.102 3.745-2.081 8.249-1.898 12.429.212 4.876 2.265 20.871 10.308 19.154.854-.182.796-1.544.172-1.936-2.75-1.716-4.44-2.667-5.885-5.812-1.62-3.523-2.087-7.639-2.323-11.463-.21-3.412-.17-6.991 1.109-10.205 1.489-3.742 6.352-3.101 8.253-6.323.049-.082.003-.228-.095-.252z"/><path d="M120.215 64.004l-.37-.84c-.129-.292-.432-.44-.732-.459-2.779-.173-5.369 2.16-7.808 3.219-3.108 1.349-6.316 2.359-9.601 3.176-7.036 1.752-14.408 1.421-20.896 5.123-8.477 4.839-19.264 16.915-13.395 27.23.866 1.522 2.597-.021 1.95-1.389-5.369-11.333 9.074-22.917 18.447-25.738 5.534-1.665 11.431-1.709 17.014-3.309 5.46-1.565 10.048-4.794 15.286-6.69.134-.048.156-.207.105-.323z"/><path d="M73.492 80.239c-13.082-.61-26.993 1.42-38.282 8.389-5.675 3.502-10.351 8.887-14.481 14.042-3.695 4.612-6.881 9.844-8.766 15.465-3.389 10.109-4.12 25.291 3.32 33.875 6.843 7.895 19.458 6.052 26.962 13.166 1.312 1.244 2.902-.929 1.722-2.049-6.341-6.01-15.054-6.272-22.582-9.951-10.96-5.354-10.457-22.21-7.697-32.223 3.207-11.633 12.891-23.323 22.806-29.924 10.87-7.236 24.448-7.904 37.053-8.588 1.242-.067 1.173-2.146-.055-2.202z"/><path d="M34.577 148.863c5.251.797 9.457 3.406 12.662 7.618.802 1.054 1.997-.59 1.26-1.517-3.504-4.412-8.169-6.931-13.833-7.054-.489-.009-.563.881-.089.953zM21.595 122.772c-1.405-3.343 3.538-7.594 5.613-9.458 2.628-2.364 5.615-4.244 8.833-5.691.855-.385.84-2.156-.29-2.043-4.32.433-8.573 4.57-11.433 7.522-2.521 2.604-5.679 6.65-3.672 10.351.415.765 1.229-.016.949-.681zM66.579 121.438c-.246 1.456.564 3.136 1.025 4.47 1.112 3.221 2.308 6.412 3.361 9.652 1.105 3.403 2.209 6.905 2.507 10.486.303 3.623-1.049 4.401-4.38 4.107-1.294-.116-1.2 1.917-.217 2.308 7.231 2.877 6.999-6.189 6.03-10.52-.908-4.057-2.458-7.96-3.967-11.822-.806-2.064-3.277-5.963-2.939-8.268.148-.999-1.237-1.503-1.42-.413zM56.07 148.751c-1.279 2.205-3.184 5.44-2.87 8.093.105.885 1.202 1.479 1.688.479.529-1.095.659-2.354 1-3.518.443-1.507.988-2.982 1.431-4.489.237-.806-.817-1.308-1.249-.565zM76.692 80.102c-3.429 4.6-4.515 10.694-2.965 16.203.386 1.376 2.026.645 1.782-.618-1.071-5.526.03-10.091 1.473-15.398.045-.162-.166-.352-.29-.187zM98.236 80.63c-.249 5.638 2.917 11.007 6.177 15.386.759 1.02 1.771-.447 1.379-1.298-2.142-4.667-5.738-8.733-5.692-14.135.012-1.391-1.804-1.312-1.864.047zM118.842 96.591c5.1 5.005 5.758 11.815 4.752 18.57-.181 1.22 1.379 1.834 1.713.51 1.79-7.088.409-15.737-5.653-20.395-.729-.561-1.354.783-.812 1.315zM131.384 112.505c-.113 4.438-.542 8.854-1.506 13.191-1.187 5.343-3.866 9.123-6.757 13.607-.447.692.083 2.156 1.033 1.481 8.155-5.779 8.865-19.34 8.755-28.318-.015-1.14-1.497-1.085-1.525.039zM113.797 140.325c-2.399 1.97-4.572 4.188-6.941 6.191-2.693 2.278-5.593 3.143-8.655 4.646-.624.307-.866 1.668.044 1.802 6.341.924 12.657-7.262 16.49-11.298.566-.593-.187-1.959-.938-1.341zM160.924 89.118c-6.608 2.15-13.371 3.458-18.485 8.55-5.097 5.077-3.647 12.625-1.382 18.627 2.94 7.796 11.849 18.347 5.567 26.756-3.785 5.068-11.596 5.537-15.575 10.761-.639.837.167 2.63 1.264 1.81 2.813-2.104 5.369-4.099 8.533-5.695 2.214-1.119 4.452-2.176 6.331-3.824 4.873-4.274 4.1-12.142 2.275-17.65-2.718-8.207-11.122-16.744-7.481-25.947 2.66-6.725 13.083-9.97 19.291-12.09.691-.238.413-1.541-.338-1.298zM162.704 115.775c5.495 5.487 5.774 12.891 5.352 20.188-.08 1.383 1.995 1.73 2.167.29.938-7.879-.164-16.379-6.344-21.927-.947-.851-1.966.66-1.175 1.449zM197.754 71.467c4.127.526 6.714 1.863 9.377 5.277 3.502 4.487 2.852 8.762-.797 12.755-.47.515-.031 1.889.788 1.51 12.515-5.791-3.438-26.656-9.722-20.938-.485.441-.348 1.306.354 1.396zM202.871 110.525c6.398-.374 14.518 2.759 17.928 8.368.717 1.181 1.998-.024 1.507-1.091-3.021-6.564-12.962-9.327-19.501-7.744-.224.055-.171.481.066.467zM41.868 164.904c-.246 4.937-3.365 11.959-.042 16.405.484.647 1.429-.006 1.342-.688-.38-2.963-.736-5.426-.308-8.447.347-2.444.73-4.836.751-7.312.011-1.304-1.679-1.225-1.743.042z"/><path d="M40.015 178.129c1.825 5.606 8.021 7.914 13.188 9.626 6.264 2.078 12.94 3.266 19.509 3.824 16.504 1.403 40.438-5.384 50.469 12.418.737 1.309 2.119.186 1.922-.99-1.165-6.974-10.916-11.36-16.913-12.94-8.411-2.218-17.44-1.376-26.021-1.087-7.346.246-14.441-.372-21.639-1.848-6.586-1.351-15.973-3.45-20.243-9.198-.12-.161-.32.045-.272.195zM40.96 165.724c4.519 4.777 12.656 4.745 18.734 4.77 10.107.043 19.869-1.895 29.798-3.518 24.158-3.946 48.895 1.986 72.932-2.709 14.445-2.822 28.604-7.622 41.676-14.375 5.737-2.965 23.048-11.153 18.503-20.227-.875-1.75-2.775.052-2.104 1.548 1.686 3.754-4.64 7.943-7.044 9.687-5.07 3.675-10.747 6.531-16.407 9.168-12.305 5.729-25.842 9.793-39.202 11.991-10.335 1.702-21.021.994-31.441.73-11.282-.285-22.709-.616-33.93.844-9.753 1.27-19.201 3.606-29.063 4.099-6.296.313-16.26 1.234-21.092-3.689-1.04-1.062-2.242.749-1.36 1.681z"/><path d="M43.551 163.861c7.696 7.094 21.918 2.74 30.882.869 17.153-3.579 35.242-5.576 52.713-4.038 9.02.793 17.978 1.837 27.048 1.266 8.673-.546 16.947-3.265 25.062-6.197 7.611-2.753 15.428-4.967 22.274-9.391 6.348-4.101 11.735-9.495 18.135-13.539 1.376-.871.207-3.57-1.354-2.583-5.684 3.599-10.639 8.15-16.043 12.128-6.744 4.967-14.582 7.178-22.338 10.033-8.426 3.104-16.808 5.863-25.807 6.641-8.506.736-17.091-.292-25.556-1.076-8.164-.757-16.153-.998-24.321-.187-8.822.879-17.585 2.329-26.363 3.555-5.303.742-10.485 2.313-15.796 3.083-5.343.775-12.838 1.723-17.228-2.183-1.06-.943-2.222.776-1.308 1.619z"/><path d="M74.594 164.728a.337.337 0 0 1-.04-.096c.05.148.081.304.112.458.074.36.188.699.379 1.017.365.609 1.023.543 1.37-.032.589-.983.428-2.373-.307-3.233-.422-.496-1.158-.462-1.56.038-.426.528-.39 1.337.046 1.848zM85.205 162.879c.228.517.183.997.283 1.573.18 1.014 1.553.927 1.722-.042.166-.942-.028-1.812-.461-2.654-.237-.461-.812-.678-1.254-.356-.473.345-.509.985-.29 1.479zM97.441 161.61c-.012.946-.097 1.925.1 2.857.226 1.066 1.588.966 1.803-.044.196-.926.096-1.922.085-2.862-.006-.558-.413-1.169-1.023-1.153-.63.014-.959.644-.965 1.202zM170.771 159.33c.034.009.07.017.106.023l-.661-.745c.127.364.249.617.553.867a.505.505 0 0 1-.234-.316c.112.331.003-.2.036.194.057.659-.048 1.448.504 1.937.312.275.769.464 1.142.146 1.091-.932.729-3.391-.423-4.181a.932.932 0 0 0-1.079.026l-.106.083.46-.16a4.184 4.184 0 0 0-.108.007c-1.047.067-1.219 1.883-.19 2.119zM180.728 154.54c.193.271.29.563.385.877.074.248.062.293-.021.452-.271.532-.102 1.304.403 1.639.482.32 1.167.079 1.368-.466.558-1.509-.034-2.972-1.256-3.94-.286-.226-.703-.097-.911.164-.308.387-.24.897.032 1.274zM192.99 151.335c.183-.099.328-.128.409-.034.143.164.01-.084.072.155-.007-.078-.005-.042.003.111.014.149.038.298.071.443.213 1.039 1.647 1.018 1.799-.043.108-.758-.138-1.975-.896-2.387-.789-.429-1.521-.222-2.229.271-.769.533-.151 1.984.771 1.484zM200.791 147.695c.432.496.834 1.035 1.315 1.48 1.11 1.028 2.235-.772 1.36-1.719-.495-.534-1.093-.979-1.643-1.456-.323-.28-.836-.104-1.07.192-.337.426-.318 1.093.038 1.503zM207.252 143.099c.131.136.307.281.41.438.037.058.239.464.354.625.432.605 1.382.343 1.625-.292.411-1.08-.148-1.907-.903-2.639-1.182-1.145-2.459.855-1.486 1.868zM213.45 139.767c.161-.037.108.04-.034-.038-.098-.102-.1-.102-.004.004-.215-.24.067.195-.052-.123.165.444.166.879.52 1.249.436.456 1.051.438 1.464-.035.636-.728.399-1.976-.093-2.723-.575-.868-1.452-1.202-2.451-.865-1.354.456-.827 2.869.65 2.531zM125.2 159.405c.172 1.361-.387 2.687-.228 4.035.054.454.237.919.719 1.063.537.161 1.062-.286 1.141-.81.228-1.491.235-3.106-.231-4.55-.282-.871-1.52-.687-1.401.262zM117.891 158.388c-1.188 1.082-1.898 2.519-2.218 4.081-.174.853.928 1.58 1.365.643.564-1.213.763-2.516 1.638-3.579.419-.509-.164-1.71-.785-1.145zM67.857 170.867c2.005 4.834 2.275 10.28 4.724 14.948.246.468.961.518 1.161-.027 1.767-4.829 4.277-10.176 3.999-15.422-.038-.711-.923-.887-1.102-.15-1.221 5.058-2.131 9.916-4.078 14.801l1.233.159c-1.763-4.94-3.108-9.913-5.607-14.552-.146-.273-.427.009-.33.243zM79.576 169.038c3.354 6.039 7.479 12.335 8.319 19.32.131 1.087 1.272 1.621 1.902.556 2.769-4.681 5.401-10.108 5.662-15.63-.688.128-1.375.255-2.062.384 1.629 6.164 5.057 11.988 9.868 16.222 1.096.965 2.141-.684 1.333-1.646-4.005-4.77-7.566-9.12-9.185-15.291-.375-1.428-1.998-.904-2.062.383-.253 5.111-2.927 10.02-5.331 14.418l1.857.239c-1.205-7.528-5.19-13.521-9.992-19.252-.18-.214-.417.103-.309.297zM114.103 192.715a209.974 209.974 0 0 1-.043-8.802l-1.634.846c3.749 4.934 6.497 12.227 12.313 15.151 1.224.616 1.785-1.187.889-1.902-5.194-4.133-7.903-9.726-11.871-14.894-.644-.839-1.649.047-1.634.847.055 3.026.132 6.009.717 8.987.169.859 1.285.566 1.263-.233zM113.906 209.392c-1.018 6.277.054 14.811 5.707 18.729 1.007.697 1.765-1.01 1.072-1.727-4.735-4.909-5.055-10.327-5.457-16.824-.05-.818-1.174-1.093-1.322-.178z"/><path d="M115.459 211.287c1.822-2.465 6.862-3.62 9.544-5.045 6.336-3.366 12.534-6.986 18.782-10.512 12.585-7.1 25.573-13.343 38.416-19.945 10.484-5.392 20.314-11.723 30.267-18.012 4.21-2.659 8.358-5.428 12.254-8.534 2.546-2.029 5.354-4.421 6.635-7.496.591-1.42-1.266-3.021-2.021-1.354-1.597 3.529-5.295 6.07-8.286 8.341-3.941 2.989-8.14 5.645-12.323 8.276-11.102 6.985-22.11 13.68-33.851 19.586-12.246 6.16-24.39 12.379-36.279 19.209-5.628 3.233-11.225 6.547-17.002 9.506-2.335 1.196-5.997 2.539-7.317 4.956-.4.729.583 1.832 1.181 1.024zM119.59 228.418c3.216-1.835 6.148-4.214 9.395-6.067 3.661-2.087 7.145-4.169 10.572-6.63 8.106-5.82 16.333-11.488 24.811-16.753 16.343-10.146 32.797-21.749 51.306-27.578 1.45-.457.873-3.249-.7-2.754-18.227 5.734-34.558 17.064-50.62 27.106-8.89 5.558-17.54 11.449-26.067 17.549-3.786 2.707-7.665 5.037-11.677 7.39-2.905 1.701-6.246 3.798-7.735 6.935-.224.473.2 1.096.715.802z"/><path d="M231.313 149.248c-7.819 6.366-14.812 13.67-21.976 20.746-8.294 8.193-17.244 15.323-26.232 22.711-8.491 6.978-16.975 13.759-26.413 19.435-4.499 2.705-9.107 5.216-13.562 7.998-3.423 2.136-7.842 4.63-9.491 8.533-.634 1.499 1.378 3.133 2.141 1.403 1.82-4.121 7.396-6.733 11.05-8.971 4.478-2.742 9.092-5.251 13.562-8.005 9.415-5.802 17.79-12.965 26.316-19.96 7.626-6.256 15.171-12.349 22.215-19.283 7.737-7.62 15.324-15.369 23.388-22.651.855-.773.089-2.841-.998-1.956z"/><path d="M131.902 237.171c5.928-2.745 11.277-6.958 16.664-10.617a1569.26 1569.26 0 0 0 17.28-11.894c11.396-7.962 22.544-16.266 33.127-25.286 10.206-8.696 19.419-18.478 29.572-27.233 3.001-2.587 10.734-10.458 3.179-12.574-1.578-.44-1.985 2.342-.557 2.785 3.535 1.098-2.527 6.115-3.887 7.317a419.944 419.944 0 0 0-11.569 10.598c-8.82 8.417-17.624 16.742-27.145 24.377-9.297 7.457-19.022 14.366-28.796 21.177-9.363 6.526-20.2 12.443-28.293 20.542-.273.272-.007 1.007.425.808z"/><path d="M229.562 142.443c.027 1.179.049 2.354.019 3.534-.032 1.208-.603 2.895.158 3.926.174.235.59.396.866.256 1.25-.635 1.004-2.672 1.035-3.871.039-1.453.075-3.051-.475-4.417-.415-1.037-1.623-.3-1.603.572zM222.771 132.089c1.44 1.13 2.626 2.687 3.476 4.294.863 1.633.874 3.296 1.352 5.016.3 1.078 1.604 1.05 1.848-.045.975-4.376-2.519-8.835-6.306-10.427-.649-.272-.773.847-.37 1.162zM233.22 154.409c1.43 5.971 3.895 11.635 5.594 17.541 1.992 6.922 2.649 14.037 1.473 21.16-1.053 6.354-4.771 11.264-6.606 17.245-.8 2.603-.469 5.561-.41 8.229.08 3.672-.2 7.22-.965 10.813-1.37 6.423-4.38 12.46-4.972 19.058-.338 3.77.971 7.397 2.6 10.737 3.139 6.432 10.059 14.486 18.035 13.328 1.529-.221 1.47-2.963-.068-2.754-8.889 1.2-15.847-9.644-17.857-17-1.498-5.483 1.293-11.686 2.917-16.849 1.812-5.766 2.749-11.354 2.659-17.392-.047-3.175-.232-6.182.947-9.198.862-2.209 2.204-4.261 3.231-6.397 2.434-5.061 3.318-10.986 3.453-16.543.265-10.911-3.822-23.06-9.232-32.411-.316-.543-.922-.084-.799.433z"/><path d="M226.15 270.395c4.598 3.342 10.283 4.971 15.861 3.377 1.116-.32.875-2.591-.336-2.371-5.47.988-10.084.006-15.278-1.743-.427-.144-.533.528-.247.737z"/><path d="M226.804 270.864c2.521 7.206 10.998 10.187 17.28 13.163l.215-2.424c-4.897 2.283-12.198 1.119-17.397.63-6.76-.638-15.498-4.563-17.806-11.472-.549-1.641-2.661-.802-2.203.767 2.062 7.057 10.172 11.562 16.944 13.026 3.539.767 7.384.75 10.984.805 3.236.05 7.145.195 10.151-1.221.833-.392 1.242-1.941.215-2.424-3.128-1.467-6.305-2.837-9.333-4.505-3.266-1.8-5.593-4.72-8.685-6.689-.214-.138-.439.132-.365.344zM180.978 225.323c-.205-4.654 4.56-8.692 7.918-11.204 4.827-3.614 10.434-4.023 15.143.119 10.231 9.002 3.735 21.956-.273 32.092-1.67 4.218-2.059 8.19-1.824 12.689.285 5.483 1.213 11.783-4.172 15.199-4 2.54-18.938 4.224-16.428-3.819.44-1.41-1.753-2.612-2.274-1.052-3.536 10.582 10.271 10.544 16.945 8.622 5.248-1.512 8.017-5.879 8.531-11.139.326-3.33-.142-6.712-.287-10.04-.197-4.525 1.242-8.44 2.992-12.543 2.934-6.879 5.581-13.319 4.235-20.945-.943-5.352-4.532-11.329-9.642-13.597-5.927-2.628-10.996-.388-15.703 3.457-3.518 2.872-7.745 7.551-6.787 12.46.215 1.099 1.671.736 1.626-.299z"/><path d="M158.6 219.476c2.688 3.671 4.499 7.856 7.175 11.517 2.662 3.64 6.779 4.812 11.106 4.84 1.22.007 1.498-1.948.52-2.491-2.312-1.28-3.18-3.238-3.058-5.828-.572.401-1.145.803-1.715 1.205 2.56 1.568 5.161 2.729 7.717.615 1.027-.85.209-2.911-1.131-2.119-2.104.639-3.929.355-5.475-.851-.915-.563-1.672.337-1.715 1.206-.171 3.453 1.163 6.434 4.272 8.095l.52-2.49c-5.294.05-8.47-1.965-11.194-6.357-1.869-3.012-3.433-6.194-6.523-8.143-.511-.324-.757.45-.499.801zM129.946 221.481c5.685 9.381 2.228 19.932-2.17 29.157-4.223 8.86-10.038 16.463-16.308 23.919-.843 1.002.361 3.3 1.54 2.199 7.835-7.317 13.901-17.904 18.156-27.619 3.63-8.294 7.475-21.444.112-28.931-.821-.833-1.851.414-1.33 1.275zM29.041 235.043c.698-2.196 1.695-5.467 4.48-5.476 2.455-.012 4.937 2.542 6.532 4.095 4.476 4.357 8.025 9.789 11.561 14.905 7.552 10.933 18.19 20.549 30.98 24.82 7.042 2.353 15.117 1.639 20.643-3.688 5.604-5.4 6.894-12.83 6.606-20.347-.325-8.501-2.848-16.938-6.077-24.75-2.993-7.238-6.928-13.842-13.66-18.139-8.438-5.382-19.362-5.715-29.041-5.636-8.887.071-17.805.701-26.678-.089-4.291-.382-8.721-1.267-12.47-3.471-3.993-2.349-6.203-7.299-3.009-11.162 4.73-5.722 16.002-8.56 23.136-7.993 1.65.132 1.586-2.879-.075-3.013-9.406-.755-29.766 4.838-26.901 17.496 2.993 13.224 24.162 11.635 34.154 11.531 18.17-.187 39.458-2.688 49.578 15.909 7.216 13.264 16.044 40.037-.464 49.939-10.304 6.182-23.621-2.369-31.612-8.661-6.12-4.819-10.519-10.359-15.002-16.596-4.06-5.649-8.435-12.004-14.372-15.845-5.257-3.401-8.696.579-9.492 5.819-.129.855.903 1.231 1.183.352z"/><path d="M39.412 178.323c-6.273-.01-15.555 1.841-19.171 7.556-3.019 4.771 1.164 8.208 5.436 9.511 6.566 2.006 14.013 1.623 20.79 1.942 13.483.636 26.896 2.436 40.254 4.293 19.31 2.686 25.375 23.271 28.448 39.897 3.925 21.237-13.526 42.695-35.87 39.053-17.511-2.855-27.941-19.697-35.164-34.196-2.34-4.696-9.434-23.849-15.694-12.223-.81 1.503 1.273 3.081 2.215 1.428 2.964-5.202 5.893 1.297 7.363 4.2 2.274 4.49 4.304 9.09 6.676 13.532 4.901 9.18 10.799 17.473 19.265 23.676 15.512 11.365 36.439 7.953 47.686-7.551 10.231-14.104 6.812-32.539.78-47.635-2.922-7.312-6.966-14.254-13.469-18.918-2.979-2.138-6.522-3.353-10.123-3.874a784.273 784.273 0 0 0-18.891-2.482c-8.346-1.003-16.718-1.763-25.115-2.151-4.911-.228-9.839-.26-14.716-.96-3.427-.491-11.133-1.983-7.217-6.81 3.345-4.123 11.6-5.616 16.577-5.854 1.345-.064 1.286-2.433-.06-2.434z"/><path d="M40.006 203.745c1.394 14.146 15.4 23.359 14.715 38.115-.083 1.793 2.337 1.707 2.419-.059.701-14.936-12.401-24.504-15.371-38.382-.249-1.166-1.876-.814-1.763.326z"/><path d="M55.171 239.252c-2.454.269-4.872 1.394-6.295 3.497-.801 1.184.423 3.046 1.651 1.827 1.478-1.466 2.886-2.603 4.952-3.143 1.038-.272.812-2.305-.308-2.181zM43.667 252.611c-5.481 13.968-10.632 29.774-8.323 44.967 2.073 13.635 10.305 24.421 20.676 33.053 11.76 9.787 25.214 16.888 40.007 20.696 6.545 1.685 13.177 3.375 19.815 4.651 5.21 1.003 10.994 1.67 15.869-.842 1.433-.738.203-3.149-1.332-2.359-5.162 2.658-11.953.985-17.296-.183-5.506-1.202-10.998-2.594-16.464-3.963-13.584-3.405-25.396-9.816-36.557-18.174-10.402-7.788-19.117-18.046-21.959-30.988-3.34-15.201 2.367-31.522 7.371-45.699.445-1.26-1.232-2.623-1.807-1.159zM89.405 289.787c-4.707.481.561 10.184 3.4 6.362 1.084-1.46 1.234-3.646 1.473-5.384.227-1.658.72-3.471.82-4.99.055-.835-.905-1.497-1.62-1.006-.817.559-.909 1.851-1.051 2.747-.224 1.415-.371 2.84-.607 4.253a17.406 17.406 0 0 1-.431 1.946c-.048.169-.45.819-.238.713.09-.045.309.128.004-.065-.223-.142-.399-.415-.562-.616-.729-.909-.993-1.553-.431-2.542.294-.519-.066-1.489-.757-1.418z"/><path d="M89.922 290.183c.03-1.309.178-2.602.628-3.836.433-1.188 1.424-1.943 1.933-3.069.22-.487-.028-1.272-.664-1.244-1.667.075-2.547 1.782-3.043 3.188-.592 1.679-.527 3.479-.12 5.188.201.845 1.247.548 1.266-.227zM53.85 241.277c3.948 6.999 12.309 9.32 18.978 13.005 8.342 4.609 15.419 10.167 22.619 16.352 1.275 1.095 2.574-.787 1.578-1.907-5.697-6.404-13.291-11.271-20.648-15.531-7.358-4.262-15.364-7.155-22.138-12.395-.284-.22-.519.246-.389.476zM121.079 253.202c1.257-.27 2.544-.536 3.763-.946 1.326-.446.782-2.647-.626-2.383-1.267.239-2.486.743-3.721 1.106-1.239.366-.732 2.506.584 2.223zM122.069 246.56c.93-.244 1.866-.451 2.804-.654.907-.197 1.879-.276 2.743-.62.818-.326.709-1.828-.255-1.816-1.887.023-4.002.84-5.656 1.695-.682.351-.496 1.62.364 1.395zM119.338 240.714c3.008-.261 5.624-1.071 8.182-2.696 1.026-.651.13-2.656-1.009-1.9-2.229 1.479-4.732 2.678-7.37 3.197-.68.133-.514 1.461.197 1.399zM121.79 234.802c2.552-.968 5.518-1.361 7.821-2.85.646-.419.361-1.601-.418-1.623-2.707-.076-5.532 1.302-7.944 2.409-1.045.481-.658 2.516.541 2.064zM96.992 198.788c1.878-.333 3.375-1.381 4.717-2.699.904-.887-.38-2.604-1.417-1.587-1.026 1.006-2.201 1.951-3.554 2.47-.79.303-.696 1.984.254 1.816zM90.03 196.21c1.886.097 4.152-.519 5.286-2.135.408-.582.098-1.7-.766-1.458-.796.226-1.421.721-2.158 1.08a7.105 7.105 0 0 1-2.408.684c-1.02.101-.977 1.776.046 1.829zM82.547 197.296c1.405-.665 2.945-1.029 4.175-2.014.57-.456.257-1.939-.589-1.528-1.322.641-2.735 1.084-4.054 1.74-.9.447-.52 2.271.468 1.802zM79.118 196.207c.294-.748.956-1.177 1.758-1.191 1.326-.026 1.266-2.424-.058-2.37-1.505.062-2.876 1.034-3.372 2.471-.185.537-.144 1.183.379 1.524.459.301 1.094.075 1.293-.434zM26.822 187.646c1.902-.954 3.923-1.316 5.917-1.989.947-.317.769-2.046-.286-2.017-2.291.063-4.359 1.282-6.206 2.536-.619.421-.209 1.863.575 1.47zM30.307 191.987c1.645-.01 3.18-.662 4.54-1.549 1.078-.703.142-2.8-1.071-2.009-1.078.704-2.212 1.31-3.522 1.383-1.223.066-1.174 2.182.053 2.175zM40.147 184.296c-.768 2.962-.849 5.987-.144 8.989.171.729 1.125.5 1.1-.202-.105-2.954-1.403-5.777-.902-8.772.006-.038-.043-.056-.054-.015z"/><path fill="#00AEEF" d="M57.048 214.362c.917 0 .879-1.488-.036-1.488-.917-.001-.879 1.488.036 1.488z"/><path d="M59.254 216.04c.122-1.154-.172-2.426 1.104-3.139l-1.128-.966a34.5 34.5 0 0 1-1.036 3.081c-.242.605.318 1.807 1.068 1.189 1.602-1.316 3.022-1.84 5.119-1.947l-.862-1.256c-.226.998-.171 1.808-.103 2.836.053.784 1.007 1.559 1.624.737.588-.782 5.459-.479 6.976-.635 3.348-.344 6.591-.623 9.959-.388 1.359.096 1.259-2.261-.06-2.408-4.283-.479-8.47.271-12.727.693-2.029.201-4.287-.671-5.516 1.216l1.625.737a8.631 8.631 0 0 1-.103-2.293c.089-.524-.205-1.314-.862-1.257-2.366.204-4.089.857-5.873 2.449l1.068 1.189c.443-1.156.789-2.333 1.163-3.514.168-.534-.356-1.289-.951-1.059-2.328.899-1.832 2.34-2.026 4.526-.086.988 1.435 1.23 1.541.209z"/><path d="M81.724 215.772c3.579.967 6.867 2.279 10.227 3.827 1.282.59 1.635-1.668.771-2.316-2.952-2.212-7.003-2.973-10.555-3.621-1.245-.228-1.603 1.796-.443 2.11zM65.97 228.097c9.268-2.244 16.892 2.426 25.664 4.076.999.188 1.523-1.389.618-1.841-7.367-3.67-18.757-7.394-26.574-3.347-.547.283-.397 1.279.292 1.112z"/><path d="M65.465 233.359c8.447-.971 16.099.59 23.615 4.524 1.472.771 2.431-1.646 1.123-2.363-7.154-3.928-17.308-7.228-24.893-2.757-.229.134-.141.63.155.596z"/><path d="M69.182 231.565c-2.304 3.119-1.682 6.26.119 9.457.361.64 1.214.824 1.708.212 1.941-2.406 3.676-5.348 2.728-8.525l-1.902.657c.287.749.392 1.441.374 2.241-.025 1.083-.702 1.167-1.542 1.479-.441.164-.716.641-.689 1.106.023.351.04.702.048 1.054l.011.427c-.204.529.047.672.751.426-.287-.455-.427-1.03-.578-1.541-.397-1.351-.421-2.688-.498-4.077-.065-1.175-1.626-1.502-1.887-.248-.457 2.191.147 5.424 1.516 7.227.438.577 1.275.764 1.797.201.752-.812.709-2.498.791-3.518l-1.208 1.12c3.868.917 3.555-4.321 3.016-6.554-.357-1.481-2.12-.674-1.902.657.391 2.385-.963 4.373-2.401 6.132l1.708.212c-1.25-2.227-2.148-4.307-.615-6.665.622-.96-.517-2.602-1.345-1.48z"/><path d="M68.203 233.834c.562 2.028.882 4.555 2.719 5.904.774.567 1.553-.684 1.103-1.341-.542-.788-1.251-1.437-1.817-2.211-.58-.793-1.188-1.671-1.653-2.535-.127-.231-.415-.037-.352.183z"/><path d="M70.007 233.971c.119.784.116 1.573.117 2.365.001.799-.149 1.686.083 2.455.264.869 1.258.782 1.505-.037.232-.765.06-1.67-.002-2.457a12.607 12.607 0 0 0-.541-2.728c-.279-.897-1.287-.414-1.162.402zM72.906 233.122c.597 2.504.234 4.444-1.094 6.619-.663 1.088.991 2.731 1.78 1.511 1.715-2.65 2.007-6.006-.263-8.429-.215-.229-.482.052-.423.299z"/><path d="M66.744 239.772c-.72-.96-.656-.885-1.778-1.274-1.231-.428-1.615 1.562-.728 2.159 7.494 5.041 19.898 4.571 26.234-2.309.862-.936-.224-2.89-1.438-2.039-7.059 4.942-15.978 6.946-23.824 2.302-.063.715-.125 1.43-.19 2.145.55-.109 1.088-.261 1.614-.453.231-.076.231-.37.11-.531zM15.437 193.897c2.034 5.857 2.098 12.055 3.332 18.07.147.715 1.085.479 1.061-.196-.233-6.199-1.105-12.537-4.041-18.062-.124-.235-.43-.038-.352.188zM101.049 278.952c6.987 6.737 13.992 13.442 20.853 20.311 6.29 6.297 11.931 13.889 9.969 23.25-.247 1.179 1.368 2.211 1.92.887 3.151-7.543-1.745-16.131-6.388-21.889-3.372-4.183-7.627-7.816-11.45-11.58-4.467-4.398-8.981-8.769-13.742-12.849-.983-.842-1.953 1.108-1.162 1.87zM118.948 327.912c-.847-.424-1.626-.775-2.582-.532-.779.198-1.346.998-1.48 1.755-.379 2.138 1.81 3.623 3.73 3.582 1.12-.022 1.268-1.945.201-2.194-.65-.15-1.231-.247-1.734-.609.159.115-.077-.072-.092-.087a2.038 2.038 0 0 1-.122-.14c.073.112.077.117.013.014-.165-.266-.002.064-.053-.099-.06-.196-.001.259-.007-.066.006.303-.015.123.006.021-.078.366.12-.16-.066.124.15-.229-.069.025.058-.079.208-.167-.036-.002.114-.075.105-.049.22-.079.333-.105-.242.057.502-.081.249-.037.318-.055.598.026.896.132.869.308 1.279-1.232.536-1.605z"/><path d="M117.756 329.507c6.299 2.257 15.47-1.178 21.566-2.873 8.535-2.374 16.912-5.488 25.029-9.025 10.124-4.413 19.476-10.435 29.549-14.973 10.435-4.7 20.347-9.638 30.15-15.571 1.379-.834.238-3.409-1.333-2.526-4.437 2.493-8.805 5.112-13.199 7.678-5.165 3.015-10.908 5.138-16.363 7.558-9.654 4.281-18.663 9.851-28.189 14.391-7.673 3.656-15.848 6.585-23.956 9.11a141.917 141.917 0 0 1-12.86 3.363c-3.439.726-7.062.869-10.416 1.938-.427.135-.361.793.022.93zM115.673 334.168c.003-.249-.041-.655.35-.706.03-.004.028-.056 0-.052-.398.058-.383.421-.382.759-.001.026.032.025.032-.001z"/><path d="M116.636 333.638c9.145 3.468 20.144-.362 28.676-3.868 5.157-2.118 10.153-4.615 15.239-6.895 5.434-2.437 11.17-4.18 16.712-6.352 10.241-4.013 20.395-9.512 29.984-14.897 4.055-2.275 8.021-4.826 11.956-7.311 3.058-1.93 6.142-4.329 7.478-7.798.286-.743.126-1.917-.801-2.145-.512-.193-1.022-.388-1.534-.582-1.571-.854-2.575 1.785-1.192 2.556.905.503 1.146.631 2.131.882l-.801-2.144c-1.455 3.733-5.229 5.914-8.495 7.913-3.748 2.293-7.443 4.683-11.27 6.84-9.417 5.31-19.483 10.54-29.538 14.505-9.46 3.731-18.717 7.524-28.001 11.678-4.632 2.073-9.374 3.864-14.294 5.116-5.423 1.381-10.645 1.088-16.144 1.347-.622.03-.624.959-.106 1.155z"/><path d="M180.017 276.382c-1.635 8.174-5.023 15.527-9.549 22.495-2.088 3.217-4.446 6.251-6.917 9.18-2.472 2.932-5.727 5.356-7.959 8.433-.483.664-.084 2.555 1.035 1.967 3.115-1.639 5.602-4.869 7.9-7.471 3.099-3.509 5.853-7.314 8.378-11.25 4.397-6.85 8.445-14.849 8.86-23.117.059-1.141-1.519-1.382-1.748-.237zM150.757 326.184c-2.579 1.125-4.379 4.444-6.325 6.432-3.437 3.509-7.553 6.391-11.907 8.63-1.337.687-.789 3.416.708 2.703a42.302 42.302 0 0 0 11.167-7.766c2.535-2.449 6.586-5.904 6.691-9.716.005-.158-.16-.358-.334-.283z"/><path d="M131.351 332.979c1.036 7.212-.665 14.196-.586 21.368.014 1.273 1.707 1.541 2 .261 1.604-6.997 1.895-15.202.175-22.181-.31-1.26-1.748-.556-1.589.552z"/><path d="M134.565 344.433c2.995 5.776 4.725 11.966 3.947 18.49-.75 6.292-3.838 12.14-7.33 17.313-6.837 10.133-16.292 18.273-25.351 26.342-1.174 1.048-.001 3.66 1.329 2.481 16.919-14.984 46.421-40.98 28.331-65.509-.497-.675-1.226.303-.926.883zM126.792 354.428c-4.483 10.406-13.469 18.028-20.895 26.296-8.433 9.387-15.142 20.7-22.129 31.177-3.476 5.213-6.909 10.413-9.738 16.01-2.905 5.746-5.276 11.753-7.999 17.585-2.44 5.229-4.556 10.998-9.596 14.242-3.734 2.402-6.94 3.98-9.464 7.722-.347.515-.48 1.192-.15 1.761.174.277.307.574.4.892.615 1.511 2.586.215 2.158-1.136-.14-.441-.265-.855-.463-1.271l-.149 1.761c2.873-3.577 6-5.312 9.827-7.781 3.879-2.503 5.844-6.892 7.727-10.913 2.71-5.786 5.297-11.619 7.937-17.438 3.123-6.888 7.097-13.174 11.263-19.465 7.21-10.889 14.221-22.42 22.947-32.168 7.334-8.194 15.933-15.645 20.237-26.019.556-1.341-1.245-2.804-1.913-1.255zM224.411 284.722c-.013 9.163 7.253 15.863 10.845 23.762 4.793 10.54 3.675 21.75-4.238 30.29-.815.881.336 2.966 1.373 1.99 7.035-6.608 9.093-15.497 7.516-24.826-.858-5.088-2.977-9.898-5.697-14.242-3.371-5.383-7.613-10.433-8.186-17.013-.106-1.205-1.611-1.19-1.613.039z"/><path d="M104.162 409.448c11.983-2.627 20.249-13.088 31.257-17.888 6.098-2.658 12.637-4.575 18.445-7.853 5.354-3.022 9.023-8.592 15.663-8.309 2.803.119 5.754.77 8.532.053 3.624-.936 7.207-1.928 10.734-3.186 6.461-2.303 12.637-5.673 18.557-9.105 5.771-3.345 12.038-7.161 16.768-11.911 4.302-4.32 7.163-9.684 10.207-14.907.689-1.183-1.041-3.117-1.914-1.717-3.334 5.347-6.098 10.929-10.799 15.254-4.94 4.544-11.039 8.191-16.814 11.553-6.14 3.573-12.631 6.745-19.367 9.017-3.352 1.131-6.971 2.313-10.513 2.461-3.06.126-6.395-1.015-9.408-.156-4.595 1.31-7.668 5.419-11.633 7.853-5.922 3.634-12.85 5.42-19.139 8.295-11.026 5.039-19.409 15.01-31.036 18.757-.972.311-.587 2.018.46 1.789zM237.208 311.07c.064.867 2.997.473 4.044.509 2.726.092 5.455.428 8.145.86 6.058.976 11.48 4.593 16.146 8.421 6.521 5.35 10.318 12.615 14.198 19.925 3.995 7.526 7.719 15.196 11.046 23.043 3.529 8.323 6.1 16.845 8.39 25.573 2.254 8.592 5.216 16.986 7.978 25.423 4.948 15.111 10.856 31.525 10.194 47.626-.077 1.885 2.517 1.785 2.613-.064.928-17.817-6.312-36.26-11.818-52.902-6.333-19.139-10.895-38.517-19.537-56.826-7.532-15.958-15.033-32.22-31.482-40.551-4.786-2.424-9.82-2.919-15.122-3.177-.96-.047-7.639-.265-5.962 2.553.375.632 1.22.302 1.167-.413z"/></svg>