<svg version="1.1" xmlns="http://www.w3.org/2000/svg" x="0" y="0" width="325.984" height="485.111" viewBox="0 0 325.984 485.111" xml:space="preserve"><path d="M42.111 232.92c-2.219 1.012-2.545 2.917-2.551 5.161-.003 1.088 1 1.382 1.634.962.397.667 1.327.909 1.811-.021.53-1.02 1.159-1.985 2.021-2.758.806-.723 2.012-.655 2.647-1.49.292-.385.307-.979-.033-1.344-.983-1.056-2.457-.212-3.448.473a6.15 6.15 0 0 0-.743.629c.006-.035.006-.073.014-.108.141-.709-.456-1.911-1.352-1.504z"/><path d="M46.824 239.014c.162-1.558 1.701-1.97 2.867-2.599.823-.447.358-1.824-.485-1.879-1.109-.074-2.117.674-2.879 1.396a3.817 3.817 0 0 0-1.16 2.863c.031 1.021 1.54 1.342 1.657.219z"/><path d="M48.943 237.156c-.528.303-.182 1.388.448 1.152 5.407-2.006 11.959-3.119 17.784-2.577.679.062 1.022-.745 1.04-1.283.087-2.522 9.571-1.177 11.442-1.572 1.243-.264.947-2.747-.364-2.59-3.453.415-11.552-1.406-12.982 2.901-6.006-.318-12.2 1.013-17.368 3.969zM80.581 249.105c-3.594-2.286-30.58-5.282-28.001.942.154.371.542.029.5-.261-.382-2.606 23.717.118 26.424 1.585 1.409.763 2.28-1.503 1.077-2.266z"/><path d="M79.836 253.458c-7.666-3.84-18.265-6.13-26.162-1.833-.335.183-.2.951.228.876a51.673 51.673 0 0 1 1.916-.303.827.827 0 0 0-.068.252c-.002.017-.002.036-.003.053a.393.393 0 0 0-.28.046c-1.416.891-.915 4.44-.724 5.781.127.884.668 2.045 1.434 2.87-.638 0-1.283-.011-1.94-.04-.576-.027-.575.902-.099 1.066 8.122 2.771 17.326.153 23.631-5.509.355-.318.477-.806.432-1.262.291.093.582.188.874.277 1.246.38 1.823-1.742.761-2.274zm-21.004-1.585c.265.225.511.458.726.707-.565-.243-1.099-.13-1.654-.015a1.483 1.483 0 0 0-.333-.579c.421-.041.841-.083 1.261-.113zm1.069 6.747a8.44 8.44 0 0 1-.07-.04 2.712 2.712 0 0 1-.317-.204 2.325 2.325 0 0 1-.126-.096l-.006-.007-.019-.017a4.33 4.33 0 0 1-.302-.319c-.032-.038-.183-.241-.207-.269-.385-.579-.544-.997-.699-1.587.336.283.672.571 1.014.846.292.235.599.204.853.04.076.357.148.716.228 1.073.06.271.193.437.351.539l-.045.146a1.931 1.931 0 0 1-.201.009c-.024 0-.035 0-.048.002-.013-.004-.019-.006-.037-.008a2.044 2.044 0 0 1-.316-.093l-.053-.015zm2.544 2.045c.132-.301.22-.635.29-.98a3.68 3.68 0 0 0 .351-1.575 4.44 4.44 0 0 0-.252-1.481 16 16 0 0 0-.101-.86 5.645 5.645 0 0 0-2.52-3.964 35.78 35.78 0 0 1 6.95.414c3.127.493 6.053 1.558 9.011 2.567-4.461 3.079-8.87 5.014-13.729 5.879zM61.002 197.49c3.746 4.965 8.799 10.204 14.223 13.359 1.396.814 2.025-1.35 1.037-2.189a693.42 693.42 0 0 0-1.94-1.64c.821.305 1.779-.838 1.273-1.87-2.063-4.216-3.351-8.603-3.214-13.332.041-1.404-1.773-1.298-1.875.046-.382 5.013.789 10.215 3.235 14.61.027.049.058.086.086.128-7.902-6.678-16.644-14.388-17.77-25.178-.105-1.005-1.6-1.95-2.054-.598-2.413 7.166-2.491 18.511 3.435 24.031.62.577 1.267-.403.781-.955-3.576-4.058-4.248-11.544-3.326-17.512 1.278 4.023 3.524 7.674 6.109 11.1zM97.988 214.271c1.312.143 1.443-2.261.235-2.545-10.963-2.564-18.239-11.9-23.154-21.504-.636-1.242-1.942.025-1.516 1.088 3.961 9.857 13.091 21.712 24.435 22.961zM189.51 45.566c.749-1.76 1.066-3.852.315-5.646-.256-.612-.966-.303-1.101.198-.437 1.629-.613 3.191-1.325 4.752-.68 1.487-1.953 2.677-2.476 4.213-.27.791.307 2.099 1.291 1.45 1.559-1.026 2.584-3.293 3.296-4.967zM240.345 37.373c-4.801 1.46-9.457 1.001-13.682-1.633-1.108-.691-1.705 1.01-1.095 1.778 3.478 4.375 10.712 3.24 15.173 1.4.791-.326.506-1.821-.396-1.545zM232.404 26.819c.124-.545-.607-1.014-.873-.411-1.519 3.457-4.58 4.525-7.749 5.988-.894.413-.89 2.441.311 2.233 3.986-.696 7.417-3.878 8.311-7.81zM208.383 91.499c-.028-.092-.143-.092-.166.003-.197.824.383 1.598 1.086 1.97.191.101.312-.212.146-.309-.673-.386-.85-.97-1.066-1.664z"/><path d="M211.375 87.672c-1.376-.398-3.1-.571-3.956.832-.738 1.209-.188 2.69.377 3.845.105.216.36.031.312-.163-.181-.735-.432-2.048.268-2.621.675-.552 1.882-.16 2.584.084 1.117.39 1.499-1.665.415-1.977z"/><path d="M295.649 326.031c.111-16.714-6.48-32.688-14.578-47.007-2.163-3.825-4.223-7.719-5.283-12.01-1.28-5.17-.202-11.13-.495-16.418-.186-3.34-1.002-6.398-2.203-9.499-.83-2.143-1.524-4.688-2.693-6.766.069-.331.036-.678-.151-.974-2.128-3.359-5.493-5.414-9.189-6.808-.19-5.657-2.281-11.021-4.812-16.023-1.367-2.702-3.001-5.267-4.716-7.759-.957-1.392-2.413-4.27-4.293-4.587 1.559-4.949 2.633-10.164 3.834-15.109 1.882-7.744 3.321-15.587 4.142-23.514 1.48-14.283.444-29.552-5.845-42.657 6.479-17.812 8.634-37.274 7.546-56.124-.84-14.54-5.478-26.635-14.147-38.151-4.815-6.395-15.433-18.702-24.297-11.797-3.018 2.35-5.207 6.285-7.254 9.443a52.114 52.114 0 0 0-5.803 12.077 32.242 32.242 0 0 0-.938 3.535c-5.163-3.356-11.508-6.9-17.46-8.052-6.677-1.293-10.273 3.761-12.115 9.462-1.422 4.398-2.619 9.245-2.691 13.884-.062 4.034 1.502 8.564 2.547 12.447 1.827 6.786 10.278 8.638 12.378.983.025-.095.021-.182.024-.272.763 3.131 2.075 6.112 3.678 9.113a137.852 137.852 0 0 0 3.764 6.582c.478 3.706 1.154 7.588 3.009 10.712-4.802 6.011-9.41 13.189-11.556 20.345-5.165-4.936-11.176-9.175-16.648-13.343-6.363-4.845-12.098-9.469-19.825-11.986-7.708-2.511-16.068-2.689-24.083-2.27-8.667.453-17.447 1.49-25.805 3.864-9.026 2.563-17.469 6.782-25.804 11.008-4.886 2.478-9.646 5.371-13.849 8.894-2.293 1.92-5.289 4.772-5.672 7.954-8.051-.761-15.176 7.604-19.494 13.273-4.688 6.155-8.489 13.028-11.801 20.004-3.512 7.397-6.739 15.041-8.71 23.008-.893 3.608-3.122 14.444 2.837 15.343.41.061.684-.214.758-.553l1.088-.43c-1.922 5.367-1.887 11.839-1.708 17.27.258 7.761 1.913 15.539 4.518 22.836 2.355 6.602 6.012 12.649 10.328 18.143 4.583 5.836 11.594 10.328 12.291 18.348.147 1.702 2.509 1.666 2.357-.06-.476-5.466-3.269-9.605-6.881-13.575-5.077-5.579-9.732-10.891-13.247-17.658-3.834-7.385-5.857-15.755-6.755-23.985-.84-7.688.511-14.711 1.409-22.193 4.593-1.631 9.244-2.471 13.64.94 3.481 2.7 6.263 6.519 9.11 9.842 2.79 3.254 10.889 14.912 16.443 11.833.902-.5.526-2.434-.597-2.31-3.562.395-6.534-3.13-8.78-5.433-3.57-3.656-6.762-7.672-10.177-11.47-2.433-2.706-4.845-5.2-8.22-6.644-4.079-1.745-7.925-.807-11.586.873-.25-.168-.575-.141-.807.269-.027.048-.05.101-.078.149a69.423 69.423 0 0 0-3.179 1.689c-3.193-4.616-1.22-10.817.28-15.874 2.005-6.76 4.906-13.279 7.936-19.634 2.847-5.971 6.145-11.72 9.951-17.135 4.853-6.904 10.759-13.424 19.5-14.156.427.484 1.22.278 1.281-.448.338-.441.394-1.15.122-1.625.834-4.247 6.431-7.65 9.565-9.784 4.547-3.099 9.489-5.553 14.415-7.976 7.378-3.628 14.994-6.758 22.958-8.842 7.64-1.999 15.859-2.601 23.729-2.994 7.474-.373 14.957.161 22.146 2.318 7.17 2.149 12.579 6.58 18.37 11.066 5.845 4.528 12.601 9.074 18.122 14.549.131.328.382.574.675.692 3.844 3.941 7.029 8.363 8.766 13.612.593 1.795 2.919.841 2.361-.836-1.518-4.563-4.017-8.537-7.059-12.129 2.432-6.498 5.369-12.944 9.396-18.594.548 2.284 1.282 4.475 2.169 6.662.93 2.295 1.932 5.206 3.751 6.935.744.708 1.64-.143 1.417-1.016-.564-2.223-1.991-4.255-2.97-6.331-1.187-2.515-2.25-5.094-3.333-7.653a47.607 47.607 0 0 1 2.718-3.241c2.502 2.788 5.631 5.457 9.225 5.901a518.08 518.08 0 0 1-1.882 4.252c-5.139 11.474-10.809 22.706-16.687 33.818-11.579 21.882-23.729 43.531-36.441 64.774a732.022 732.022 0 0 1-14.423 23.134c-2.13-1.254-4.812-1.774-7.113-2.549-3.742-1.258-7.444-2.635-11.029-4.293-6.68-3.09-13.157-7.509-15.744-14.705-.501-1.394-2.284-.703-1.901.659a19.161 19.161 0 0 0 1.933 4.516l-.002-.002c-6.323-2.129-10.138-7.036-15.484-10.649-.738-.499-1.426.141-1.645.825-.553 1.738-.485 3.398-.233 5.053-.555-1.675-.944-3.44-1.491-4.994-.397-1.127-1.751-.562-1.514.527.819 3.766 1.28 8.314 4.297 11.054.794.723 1.926.124 1.864-.953-.161-2.779-1.273-5.522-1.061-8.267 4.79 3.646 8.586 8.427 14.74 9.896.845.202 1.33-.491 1.343-1.207 2.907 4.216 7.297 7.31 11.906 9.758 3.401 1.808 7.026 3.201 10.644 4.507 2.772 1.001 5.989 2.523 9.045 3.031-8.271 12.611-16.963 24.949-26.181 36.892-4.98 6.452-10.319 12.633-15.187 19.172-1.923 2.584-4 5.398-5.646 8.396a1.446 1.446 0 0 0-.27-.72c-5.474-7.461-14.413-12.492-22.685-16.213-9.603-4.317-19.67-7.387-29.813-10.145-.01-.003-.018-.003-.028-.005-.35-.814-1.394-1.24-1.881-.155-3.956 8.816-5.366 18.414-6.184 27.972-.834 9.758-1.875 20.514-.393 30.23 2.702 17.711 19.219 29.545 33.785 37.527 8.848 4.852 18.11 8.838 27.994 11.004 9.018 1.978 18.339 1.808 27.521 1.906 5.586.062 12.896.561 14.69-5.902.169-.607.297-1.22.41-1.835.121.604.24 1.19.34 1.742.355 1.941.684 3.846.961 5.743a.917.917 0 0 0-.172.133c-3.597 3.424-6.708 7.235-9.856 11.066-3.998 4.866-8.415 8.75-13.403 12.558-10.349 7.897-19.132 16.991-28.128 26.33-8.312 8.63-17.692 16.129-25.56 25.176-3.525 4.05-7.352 7.591-11.194 11.307-2.541 2.458-4.19 5.241-4.225 8.822-.017 1.756 2.322 1.688 2.333-.057.03-4.704 4.44-7.597 7.592-10.449 3.693-3.342 6.832-7.348 10.129-11.067 7.916-8.928 17.536-16.365 25.696-25.114 8.338-8.937 17.094-17.042 26.857-24.414 8.058-6.088 13.335-14.459 20.284-21.611.274 2.423.411 4.859.357 7.362a1.285 1.285 0 0 0-.242.484c-3.61 13.266-13.822 25.566-25.101 33.148-1.009.679-.559 2.478.648 2.553 7.347.462 13.734-4.52 19.086-8.944 6.617-5.469 12.476-11.769 20.768-14.682 4.572-1.606 9.454-1.978 14.214-2.689 4.588-.687 9.132-1.665 13.622-2.825 9.721-2.518 19.01-6.428 27.928-10.998 14.651-7.509 27.943-16.652 35.969-31.414 3.549-6.528 12.668-24.12 1.221-27.979-1.584-.533-1.99 2.322-.566 2.845 10.058 3.696-2.69 24.191-6.372 29.525-9.745 14.114-26.341 22.684-41.689 29.314-7.627 3.296-15.583 5.746-23.7 7.494-8.243 1.776-16.817 1.898-24.637 5.322-6.208 2.721-11.193 7.832-16.237 12.213-4.225 3.669-9.206 8.025-14.824 9.532 9.695-7.7 18.185-18.725 21.242-30.564.373-.086.702-.369.802-.89.895-4.673.059-9.457-.807-14.075-.485-2.589-1.021-5.164-1.452-7.763-.342-2.065-.159-4.194-.525-6.234 9.985-4.728 18-13.496 23.112-23.198.577-1.097-.898-2.771-1.775-1.537-3.05 4.295-5.79 8.668-9.341 12.593-3.752 4.145-8.264 7.415-13.13 10.114-.202-3.486-.394-6.972.15-10.349a1.468 1.468 0 0 0-.542-1.422c6.359-3.474 12.299-7.834 18.002-12.343 11.167-8.827 20.1-18.899 27.499-31.07 5.442-8.955 10.322-18.403 14.585-28.064.984 3.519 4.356 6.176 7.967 8.162a.95.95 0 0 0-.137.638c.483 4.016-1.303 8.359-.407 12.302.748 3.3 3.862 4.401 6.565 5.896 11.454 6.342 22.742 15.034 31.501 24.752 1.248 1.383 2.755-.913 1.698-2.108-7.688-8.696-17.363-15.75-27.062-22.026-2.193-1.419-4.421-2.767-6.73-3.988-1.62-.856-3.566-1.554-3.808-3.608-.423-3.609.894-7.333.105-10.96 1.829.898 3.624 1.642 5.103 2.241 8.718 3.542 19.215 1.6 27.06-3.308.984-.615.354-2.436-.828-2.133-.897.23-1.78.514-2.654.824-.178-.395-.518-.69-1.025-.682-3.646.059-7.961-1.868-9.945-5.131 4.399 2.177 9.687 2.788 14.089.303.597-.336.581-1.451.108-1.938 1.19-.189 2.37-.58 3.521-1.207.891-.485.532-2.525-.604-2.332-5.328.902-9.196.415-13.742-2.782-4.359-3.064-7.646-7.929-9.213-12.977-1.684-5.423.053-12.021.375-17.566.168-2.903.171-5.798-.054-8.665.116.338.391.598.836.594 9.822-.115 19.05.405 28.723 2.16 6.674 1.211 15.008 2.607 19.135 8.581.041.059.084.104.127.149.177 1.341.85 2.712 1.285 3.894 1.421 3.858 2.706 7.306 3.057 11.453.399 4.709-.071 9.457.188 14.174.219 3.986 1.702 7.591 3.423 11.146 3.947 8.146 8.714 15.489 11.732 24.103 3.204 9.142 5.293 18.929 4.802 28.649-.09 1.762 2.185 1.8 2.56.279 5.267 8.884 9.997 17.241 12.393 27.546 2.877 12.371 2.351 25.278.739 37.777-.863 6.688-2.021 13.336-2.979 20.01-.83 5.789-1.309 11.59-2.431 17.333-1.958 10.021-4.513 20.746.355 30.346.862 1.698 2.873-.038 2.116-1.528-5.399-10.62-.719-22.957.94-33.946 1.96-12.973 3.953-26.164 5.145-39.231 1.889-20.731-1.474-45.309-16.169-61.282zM226.053 65.448c.082.117.175.223.289.318a.66.66 0 0 0-.314.315 12.557 12.557 0 0 0-.775 1.835c-.122-.076-.276-.058-.375.142-2.067 4.171-3.635 8.599-5.26 12.979a1.211 1.211 0 0 0-.646-.52c-3.963-1.352-8.828-6.428-10.547-11.454 1.773 2.271 4.082 4.16 6.535 5.623.411.245.979.189 1.271-.224 1.891-2.67 4.912-3.836 7.036-6.228.58-.653.071-1.74-.697-1.7-.04-.557-.057-1.142-.122-1.709 1.106.658 2.288.974 3.605.623zm-12.29 150.262c.082-.921.149-1.839.2-2.756a1.09 1.09 0 0 0-.255-.804c.027-3.429-.068-6.865-.023-10.288.101-7.682 2.167-15.083 3.419-22.619.31-1.86.547-3.729.746-5.597.882 7.549 1.414 14.952.598 22.539-.731 6.801-3.072 12.986-4.685 19.525zm1.03-37.151c-1.062 6.787-2.899 13.416-3.4 20.282-.459 6.289-.092 12.576-.372 18.868-.979 5.395-1.844 10.8-3.151 16.151a183.199 183.199 0 0 1-3.172 11.333c.871-7.569 1.033-15.238 1.84-22.826.821-7.704 1.875-15.384 2.985-23.052 2.231-15.401 4.764-30.755 6.724-46.197a1236.696 1236.696 0 0 1 6.334-43.559c-1.179 9.094-2.184 18.212-3.368 27.312-1.803 13.84-2.262 27.923-4.42 41.688zm-13.614 68.601c.159-.396.299-.8.399-1.215 1.199-4.944.487-10.162-.433-15.106-1.18-6.331-4.605-17.284-12.344-18.137-6.739-.741-13.824 3.161-18.913 7.217-2.185 1.742-9.389 9.329-4.528 11.997.48.265.984-.155.946-.683-.391-5.199 3.384-8.234 7.48-11.008 4.29-2.901 10.663-5.97 15.972-4.567 3.823 1.012 6.15 6.253 7.413 9.567 1.345 3.527 2.034 7.331 2.441 11.067.582 5.338.099 9.81-3.565 13.949-1.975 2.229-2.74 4.555-2.309 7.494.163 1.106 1.785 1.05 1.909-.046.298-2.612.969-4.234 2.713-6.203.969-1.094 1.887-2.33 2.533-3.676-1.688 4.885-2.945 9.81-5.066 14.563-2.056 4.602-4.554 8.989-7.01 13.389-.341-.101-.727-.015-1.083.38-4.442 4.9-13.702 2.901-15.229-3.598-.249-1.062-1.489-.661-1.532.281-.138 3.033 1.25 5.281 3.353 6.73-.006.037-.024.059-.028.101-.528 5.02-.866 10.058-1.567 15.058-.675 4.817-2.197 8.98-3.988 13.267-6.07 7.315-13.308 13.693-20.52 19.831-3.662 3.117-7.574 5.929-11.758 8.288.335-.347.514-.847.312-1.364-3.236-8.332-7.332-16.082-13.242-22.833-6.614-7.556-16.584-11.151-24.549-17.01 2.623-5.003 6.681-9.646 9.675-13.476 6.021-7.699 11.463-15.729 17.791-23.213 6.563-7.763 13.141-15.492 18.214-24.344 2.967-5.177 5.528-10.523 8.704-15.593 2.995-4.784 6.249-9.402 9.488-14.023 13.349-19.035 24.572-39.091 34.558-60.076a492.962 492.962 0 0 1 2.755-5.675c2.979 2.236 5.109 5.124 6.937 8.414 1.91 3.438 2.555 7.339 4.301 10.779.546 1.079 1.798.371 1.814-.623.061-3.891-2.281-8.29-4.073-11.639a33.922 33.922 0 0 0-1.895-3.123c.938-3.21 1.007-6.892 1.316-10.157.334-3.518.38-6.976-.197-10.434a222.369 222.369 0 0 0 4.084-9.159c3.437-8.255 6.525-16.751 9.579-25.216.203.173.414.336.638.474.371.228.714.171 1.075-.026.734-.4.569-1.544.086-2.043-.313-.323-.668-.494-.914-.844.553-1.535 1.107-3.065 1.662-4.594.023.586.042 1.167.046 1.737.062 7.564-2.039 15.63-3.45 23.04-2.985 15.673-5.007 31.582-7.097 47.396-2.038 15.427-4.532 30.778-6.828 46.169-1.143 7.664-2.177 15.344-3.022 23.045-.849 7.74-1.933 15.77-1.639 23.558.039 1.024 1.254 1.463 1.805.856a227.02 227.02 0 0 1-2.386 7.062c.368-1.585.646-3.18.786-4.788.082-.923-1.033-2.004-1.62-1.217zm-14.939 33.264c-3.75 6.814-7.525 13.609-11.893 20.042 1.406-6.606 1.471-13.845 2.008-19.836 3.064 1.209 6.871 1.159 9.885-.206zm20.022-147.468c-.241 2.248-.748 4.553-.93 6.841a20.476 20.476 0 0 0-3.36-3.106c.011-.279-.061-.557-.252-.75-.069-.069-.133-.126-.198-.185 1.709-3.45 3.427-6.898 5.102-10.365a61.58 61.58 0 0 1-.362 7.565zm18.142-56.707c-.348-.074-.701.094-.907.666l-.666 1.839a86.179 86.179 0 0 0 1.564-5.491c-.035.989-.024 1.989.009 2.986zm2.77-9.614a.803.803 0 0 0-.036-.419c.04.017.073.034.115.051.114.048.181-.095.187-.182.005-.084.014-.153.019-.233 1.125 2.274.321 9.941-.712 16.88.223-5.383-.617-10.695.427-16.097zm-6.139.666c-2.158 1.285-4.247 2.825-5.809 4.779-2.876-1.79-5.541-4.143-7.42-6.984.134-2.402 1.357-4.533 4.212-5.892 3.301-1.571 5.742 1.632 8.39 4.048-.006.031-.02.055-.022.09-.118 1.278.262 2.695.649 3.959zm-6.779-11.795a1.2 1.2 0 0 0-.072.634c-1.589-.136-3.228.372-4.62 1.27a1.22 1.22 0 0 0-.08-.871 34.827 34.827 0 0 1-1.874-4.611c.004-.018.012-.029.015-.049.153-1.55.592-2.841 1.567-4.086 1.161-1.481 2.576-.667 3.832.257 2.431 1.788 2.242 4.945 1.232 7.456zm-6.42 2.225c.174.318.395.479.619.525a8.146 8.146 0 0 0-1.766 2.206c-3.677 6.872 1.554 17.117 8.303 21.233-1.096.917-1.316 2.301-1.008 3.588-2.502-2.363-5.052-4.614-7.232-7.367-3.093-3.907-5.168-8.483-6.689-13.197-1.543-4.78-2.883-10.109-2.428-15.163.391-4.331 3.379-6.167 6.211-8.603-.242 5.782 1.121 11.525 3.99 16.778zm-22.689 5.955c-.017.034-.036.06-.054.094.049-1.669-.588-3.449-1.361-4.864-.455-.833-1.313.021-1.02.737.661 1.609.551 3.232.866 4.898a.698.698 0 0 0 .641.592c-2.746 3.472-6.335.922-7.475-3.312a219.374 219.374 0 0 1-.845-3.237c.156.294.471.471.851.249.465-.274.926-.531 1.432-.721.624-.234 1.199-.1 1.837-.125.744-.03 1.011-1.291.331-1.616-1.533-.734-3.063.289-4.27 1.194-.208.156-.283.394-.277.627-.491-1.979-.932-3.992-1.166-5.914-.421-3.447.645-6.949 1.493-10.249.868-3.38 1.575-6.767 3.849-9.522 5.659-6.857 17.683 3.399 24.111 5.644-.055.412-.102.823-.14 1.234-3.336.276-6.02 2.901-7.449 5.871-.176-.377-.534-.66-.985-.552-5.485 1.312-8.549 6.748-8.993 12.065-.202 2.412-.007 4.68.463 6.87-.405-.654-1.377-.876-1.839.037zm12.772 21.502c.645.934 1.32 1.846 2.001 2.756-.266.31-.531.627-.797.945a70.128 70.128 0 0 1-1.204-3.701zm-3.734 16.422c-2.129 3.912-3.989 8.068-5.324 12.342a52.827 52.827 0 0 0-.859-.915c3.964-8.156 7.673-15.979 13.44-23.066.141.177.282.354.43.535-3.304 2.976-5.62 7.303-7.687 11.104zm19.455-6.062c-4.515-.144-8.03-4.423-10.684-7.666.129-.817-.515-1.707-1.24-1.619-1.994-2.605-3.799-5.36-5.478-8.187-.114-.631-.243-1.246-.343-1.895-.1-.645-.666-.805-1.129-.641-.252-.441-.512-.88-.761-1.321-5.118-9.083-9.095-21.198 1.923-27.539-1.524 4.539-.327 9.848.709 14.327 2.536 10.968 8.565 22.171 18.327 28.358 1.156.734 2.023-1.118 1.218-1.939-.067-.068-.137-.134-.204-.203.288-.311.43-.824.187-1.217-.304-.493-.506-.96-.41-1.546.092-.562.412-1.09.571-1.636a.907.907 0 0 0 .006-.402c.685.324 1.378.586 2.075.769.139.037.266.042.385.036-.157.414-.313.827-.474 1.239a364.142 364.142 0 0 1-4.572 11.096c-.035-.004-.068-.013-.106-.014zM103.244 282.92c5.124-6.808 10.677-13.292 15.856-20.062 14.763-19.29 28.029-39.684 40.523-60.501 12.739-21.228 24.718-42.969 36.279-64.857 5.873-11.115 11.483-22.369 16.641-33.836 2.416-5.371 5.006-10.934 7.275-16.606-2.958 8.122-5.977 16.245-9.197 24.225a180.17 180.17 0 0 1-3.608 8.284c-.409.1-.762.455-.693 1.001.016.131.02.262.034.394-2.309 4.903-4.768 9.751-7.198 14.6a.315.315 0 0 1-.026.013c-.367.219-.521.637-.51 1.061a440.097 440.097 0 0 0-3.74 7.628c-5.365 11.275-11.049 22.393-17.357 33.172-6.234 10.649-13.236 20.694-20.223 30.852-3 4.36-5.875 8.796-8.554 13.359-2.945 5.02-5.25 10.35-8.391 15.26-5.918 9.253-13.534 17.308-20.458 25.792-6.092 7.467-11.748 15.51-17.356 23.354-1.883 2.635-3.824 5.505-5.233 8.544-.23.235-.382.592-.422.973-1.498 3.566-2.196 7.349-1.18 11.245a4.74 4.74 0 0 1-.3.193c-.259-.281-.55-.628-.513-.947.032-.285-.054-.678-.389-.756a.503.503 0 0 0-.28.009c-.294.088-.446.495-.351.772.173.495.452.865.784 1.205-.325.044-.645-.036-.932-.363-.61-.69-.542-1.764-.289-2.646.907.155 1.872-1.049 1.255-2.12-1.54-2.676.407-6.262 1.628-8.698 1.879-3.759 4.406-7.197 6.925-10.544zm32.235 78.823c-.175 3.999-.821 6.537-5.032 7.246-3.511.59-7.188.427-10.731.343-8.468-.202-16.772-.217-25.099-2.043-9.586-2.102-18.538-6.291-27.099-10.983-14.502-7.949-29.843-19.616-31.945-37.225-1.012-8.479.034-17.757.608-26.25.612-9.059 1.94-18.247 5.271-26.738.003.002.006.005.01.005 18.591 5.8 37.766 11.236 51.398 25.95.367.396.734.475 1.047.365-1.141 2.363-1.967 4.832-2.195 7.385-.093 1.043.116 2.097.525 3.057-1.015 1.731-1.203 4.135.098 5.785.576.732 1.414 1.15 2.348 1.132 1.345-.025 2.322-1 2.979-2.062.449-.725-.335-1.844-1.13-1.453-.466-3.033.136-6.052 1.345-8.979 7.113 5.324 15.49 8.819 22.103 14.816 6.943 6.296 11.077 15.27 14.525 23.797.238.588.719.749 1.186.648a63.98 63.98 0 0 1-2.094 1.096c-4.343 2.16-9.125 3.155-13.561 5.116-.73-.853-1.939-1.453-2.913-1.287-1.329.225-2.18 1.312-2.468 2.584-.296 1.306.084 2.649 1.099 3.522.527.456 1.245.601 1.964.537.161.217.387.353.685.309 6.165-.938 11.902-3.014 17.325-5.774-.944 6.308.027 12.756-.249 19.101zm-18.272-16.122l-.045-.011c-.064-.015-.125-.037-.187-.059-.044-.021-.098-.046-.128-.067l-.018-.01-.007-.009c-.019-.019-.045-.053-.07-.084-.025-.044-.05-.086-.072-.132a.367.367 0 0 0-.01-.032c-.015-.048-.022-.096-.032-.145-.005-.048-.012-.101-.014-.135-.002-.05.002-.099.003-.146a2.55 2.55 0 0 1 .019-.153c.012-.065.03-.13.048-.193.014-.042.028-.088.04-.113.033-.079.073-.155.114-.23l.043-.053c.02-.027.065-.075.101-.115.044-.036.087-.073.133-.105.018-.013.036-.022.054-.035.073-.031.151-.055.229-.076a1.78 1.78 0 0 1 .412.005c.057.008.113.021.17.033.053.011.102.031.153.049-.349.521-.238 1.352.214 1.618l-.102.031a4.187 4.187 0 0 1-.441.126l-.016.002c-.06.011-.12.02-.18.027a2.811 2.811 0 0 1-.356.013l-.055-.001zm65.267-50.972c-7.072 12.284-15.92 22.554-26.945 31.439-10.543 8.498-22.007 16.449-35.307 19.71-.121-.311-.367-.544-.729-.562 4.812-1.99 9.966-3.021 14.76-5.078 5.13-2.2 9.79-5.657 14.102-9.145 6.826-5.519 13.542-11.541 19.453-18.144.312.195.705.193 1.068-.225 1.169-1.35 2.114-2.865 2.911-4.481.265-.334.544-.657.806-.993 6.234-8.022 11.094-17.037 15.979-25.912 2.455-4.461 5.335-9.143 7.871-13.995-4.113 9.392-8.877 18.538-13.969 27.386zm36.604-38.991c2.975 5.946 10.272 13.25 17.668 13.802-4.82.729-8.741.685-13.198-2.5-.804-.575-1.838.347-1.722 1.218.324 2.439 1.445 4.587 3.05 6.304a25.736 25.736 0 0 1-4.073-1.996c-.738-.449-1.327.732-.778 1.244 3.146 2.947 7.09 4.482 11.254 4.946-1.116.42-2.244.814-3.398 1.125-4.506 1.209-9.003.779-13.409-.586-3.869-1.198-7.672-3.176-10.947-5.552-1.829-1.329-3.137-2.991-4.071-5.034-.157-.345-.303-.727-.584-.953a251.002 251.002 0 0 0 4.183-10.393c4.117-10.936 7.964-22.802 9.841-34.622.05-.116.093-.244.116-.397.155-.99.27-1.981.366-2.977.062-.493.12-.988.175-1.481.335.652 1.236.904 1.695.033.396-.756.759-1.541 1.102-2.339 1.973 8.312 1.271 16.79.506 25.234-.504 5.53-.292 9.894 2.224 14.924zm1.379-33.341c-.494.082-.766.502-.825.944-.286-3.214-.876-6.392-1.896-9.505-.103-.314-.277-.508-.475-.608 2.013-5.647 2.952-11.968 3.544-17.682.764-7.377.419-14.97-1.305-22.188-.224-.937-1.341-.842-1.601-.126.524-5.127.757-10.278 1.224-15.419.707-7.784 1.729-15.54 2.741-23.29 1.895-14.498 3.527-28.976 5.724-43.434.047-.306.102-.625.154-.938 4.295 2.264 8.275 5.09 12.619 7.258 1.436.715 2.358-1.619 1.084-2.29-4.429-2.329-8.611-5.097-13.217-7.076-.039-.017-.07-.008-.107-.019 1.121-5.911 2.763-12.707 2.195-18.787 1.903 2.131 5.573 3.58 7.64 4.588 4.167 2.03 8.833 3.965 13.423 4.739 1.541.26 1.928-2.089.544-2.576-4.019-1.413-8.1-2.491-12.046-4.137-2.389-.997-4.68-2.22-6.881-3.576-1.07-.658-1.894-1.56-3.081-1.725a17.151 17.151 0 0 0-.832-2.655c5.699-.082 10.934-4.918 14.566-8.882.491-.534.015-2.034-.838-1.59-5.176 2.7-8.476 8.872-14.819 9.327-.022.002-.037.013-.057.016l-1.394.014c-.372.003-.641.227-.805.527-3.19-.752-5.057-3.335-7.531-5.251 2.806-2.447 3.815-9.104 4.079-11.553.598-5.527.286-12.18-2.54-17.122-.314-.551-.873.017-.676.493 1.792 4.311 1.482 10.002 1.217 14.56-.164 2.818-.646 5.667-1.685 8.298-.545 1.38-1.412 2.17-2.307 2.995 1.034-3.367.63-7.037-2.536-9.181-1.231-.833-3.399-1.728-4.556-.5-1.072 1.139-1.832 2.491-2.177 3.973-1.672-6.572-1.068-13.194 1.636-19.939 1.613-4.026 3.945-7.747 6.425-11.285 1.834-2.616 3.75-5.785 6.876-6.952 4.057-1.516 8.535 1.824 11.444 4.25 4.421 3.687 7.991 8.531 11.129 13.312 7.464 11.372 9.972 23.753 10.22 37.33.169 9.265-.657 18.453-2.117 27.592-.688 4.307-1.374 8.564-2.594 12.76-1.329 4.58-3.343 8.954-4.466 13.591-.299 1.235 1.448 2.272 2.01.917.285-.688.547-1.384.818-2.076 4.849 13.726 5.844 27.713 4.175 42.219-.803 6.981-2.234 13.888-3.86 20.721-1.579 6.636-4.087 13.202-5.274 19.907-.211 1.194 1.399 2.283 1.976.906a53.284 53.284 0 0 0 1.293-3.461c.263.684.747 1.266 1.271 2.007a97.67 97.67 0 0 1 5.097 7.987c2.797 4.916 5.038 10.334 5.519 16.004-2.288-.685-4.626-1.182-6.818-1.623-10.323-2.075-20.837-3.526-31.327-1.789z"/></svg>