<svg version="1.1" xmlns="http://www.w3.org/2000/svg" x="0" y="0" width="325.984" height="250.557" viewBox="0 0 325.984 250.557" xml:space="preserve"><path d="M37.564 56.471c-.539.688-1.062 1.077-1.337 1.94-.269.838-.117 1.752.258 2.525.468.962 1.516-.018 1.168-.842-.418-.99-.4-2.354.213-3.285.142-.214-.104-.589-.302-.338z"/><path d="M318.01 112.178c-5.106-1.53-10.645-.188-15.829.215-6.882.535-13.873.472-20.776.848-15.332.835-30.503-1.576-45.77-2.668-14.996-1.073-29.812-3.314-44.704-5.263-7.306-.956-14.889-.687-22.235-.494-5.32.139-10.596 2.149-15.918 2.365 2.518-2.128 3.81-5.405 4.46-8.906.263-1.415-1.652-2.118-1.985-.589-1.203 5.506-3.553 8.64-9.232 9.631-7.235 1.262-13.962-.821-20.855-2.755-8.977-2.519-20.377-3.453-25.07-12.642.153-.699-.205-1.591-1.045-1.63-7.417-.34-13.193-5.038-20.123-7.054-7.482-2.176-15.299 2.966-22.425-.055.045-1.496-.546-2.916-2.221-4.519-1.158-1.109-2.489.85-1.48 1.819 3.021 2.899-.039 6.77-1.168 9.913-.693 1.93-1.489 5.4-3.549 6.342-2.692 1.23-6.985-5.813-7.893-7.44-2.55-4.57-1.415-9.666 1.549-13.687a28.472 28.472 0 0 1 5.064-5.302 7.235 7.235 0 0 0 1.013 3.851c.445.739 1.463.146 1.188-.62-.518-1.434-1.044-2.863-.75-4.328a28.407 28.407 0 0 1 2.924-1.799c-.774 1.734-.748 3.659.204 5.445.475.892 1.395-.021 1.09-.783-.715-1.788-.792-3.573.009-5.321a33.26 33.26 0 0 1 6.974-2.378c6.448-1.451 13.295.453 19.464-2.181.729-.312.467-1.677-.369-1.416-4.812 1.502-10.412.217-15.366.499-4.535.257-9.15 1.737-13.149 3.825-6.505 3.395-12.396 9.786-13.246 17.159-.049.022-.094.03-.146.065-1.134.761-1.933 2.043-2.838 3.053-1.033 1.152-2.238 1.99-3.739 2.395-.954.257-.554 1.881.447 1.686 1.503-.292 2.731-.973 3.853-2.007.059-.054.119-.115.178-.169 1.042 3.557.666 8.375-3.361 9.854-4.151 1.525-5.939-5.507-6.19-8.311-.681-7.629 1.858-15.897 4.941-22.77a39.764 39.764 0 0 1 1.839-3.631c.174.681.489 1.312 1.037 1.795.583.515 1.122-.232.863-.819-.296-.67-.755-1.24-1.01-1.933-.038-.103-.068-.212-.105-.317.958-1.472 2.053-2.848 3.336-4.023 3.213-2.942 8.302-3.809 12.44-4.501 8.02-1.343 17.679-1.111 23.497-7.711.211-.24-.039-.672-.346-.5-5.651 3.16-11.632 4.36-18.004 5.126-4.518.544-9.037 1.076-13.298 2.612a23.79 23.79 0 0 1 3.317-2.313c2.851-1.638 5.938-2.836 8.834-4.387 6.849-3.664 14.124-8.006 20.232-12.806.445-.349.208-1.463-.451-1.172-7.649 3.369-14.137 8.988-21.627 12.684 1.013-.813 2.011-1.646 3.035-2.432 3.951-3.033 7.968-5.986 11.904-9.051 8.544-6.654 17.701-12.399 28.251-6.312 8.83 5.094 17.633 10.227 26.784 14.746 7.585 3.746 15.037 7.513 21.831 12.516.085.26.246.49.508.636.308.171.63.315.945.473.328.254.664.495.99.756.319.256.641.254.913.107 9.767 3.961 22.13 2.446 32.183 1.566 15.822-1.384 31.398-5.205 47.015-7.957 15.812-2.786 31.685-5.216 47.538-7.748 15.284-2.439 31.335-4.13 46.145-8.745.554-.173.455-1.321-.169-1.268-14.926 1.289-29.847 4.743-44.643 7.108-15.388 2.458-30.791 4.817-46.148 7.456-14.752 2.535-29.393 5.887-44.24 7.826-6.667.871-13.381 1.182-20.099 1.343-6.28.15-12.995-.051-18.709-2.925-7.262-5.839-15.788-9.829-24.107-13.929-4.713-2.323-9.28-4.922-13.919-7.389-4.722-2.51-9.281-5.771-14.159-7.922-9.3-4.102-17.244-.216-24.905 5.338-4.142 3.003-8.039 6.342-12.094 9.46-3.991 3.067-7.83 6.549-12.136 9.168-.246.15-.316.446-.271.721-3.286 1.701-6.292 3.792-8.267 7.131a.995.995 0 0 0-.126.349c-5.67 4.715-8.436 13.666-10.142 20.228-.966 3.717-2.132 9.404-1.625 14.42-3.862.859-8.109 1.74-11.735 3.336-2.106.927-2.792 3.129-3.44 5.149-2.058 6.405-4.664 14.272-2.889 21.014.889 3.38 3.871 5.292 6.079 7.764 2.716 3.04.339 7.903 2.573 11.311 1.133 1.728 2.741 2.8 4.586 3.431-4.391 5.133-8.402 11.826-7.74 18.585.474 4.841 4.257 8.99 8.954 9.007-1.13 1.99-2.226 3.998-3.211 6.064-6.225 13.07-6.552 27.534-5.399 41.69.058.707.566 1.241 1.299 1.072 2.98-.687 5.407-1.809 7.388-3.364-1.148 6.304.536 13.53 7.935 14.197 5.637.508 9.596-6.199 11.479-11.611a23.87 23.87 0 0 0 .593 3.209c1.477 5.652 7.723 9.479 13.448 8.163 8.229-1.892 8.198-9.472 10.113-16.286.292-1.042-1.109-1.762-1.647-.743-1.357 2.571-1.521 5.623-2.161 8.424-1.011 4.43-4.797 6.636-9.122 6.593-10.745-.109-9.894-13.331-8.521-20.618.7-3.712 1.221-7.433 1.819-11.16.4-2.502.758-5.014.528-7.509 1.471 2.777 2.537 5.9 3.839 8.58 1.589 3.27 4.104 6.075 6.889 8.378 5.34 4.414 12.756 7.823 18.258 1.831.344-.375.343-.985.123-1.417-6.927-13.557-2.514-29.79-4.749-44.294-.233-1.512-2.112-.697-1.912.668 2.127 14.508-1.979 30.299 4.52 43.977-5.797 5.392-13.948-1.021-18.234-5.604-4.222-4.511-5.323-10.861-9.424-15.352-1.041-3.012-3.147-5.662-4.14-8.727-1.048-3.235-.894-6.772-2.324-9.873-.062-.134-.24-.085-.264.047-.676 3.789.083 7.923 1.23 11.555.659 2.09 1.761 3.997 2.816 5.902 1.62 2.928 1.756 5.597 1.383 8.874-.796 6.998-3.159 14.315-3.263 21.479-3.346 4.003-3.585 10.42-8.838 12.834-3.703 1.701-7.383-.936-8.373-4.46-.8-2.849-.312-5.979-.031-8.909 1.888-2.126 3.235-4.818 4.161-8.102 1.464-5.2 2.307-10.35 4.277-15.434 2.116-5.459 4.982-10.867 5.954-16.688.149-.892-1.112-1.736-1.501-.68-3.373 9.172-7.755 18.285-9.676 27.902-.677 3.388-1.475 6.764-3.184 9.795-1.867 3.313-5.268 4.959-8.781 5.921-1.094-14.485-.385-28.914 6.64-42.009a349.039 349.039 0 0 1 2.576-4.694c.049-.016.097-.021.146-.038.509-.166.67-.738.553-1.218 2.107-3.791 4.193-7.589 5.982-11.554 1.918-4.251 4.092-9.65 3.455-14.487 3.488-.557 6.96-1.179 10.416-1.879-3.296 6.686-6.072 13.929-5.787 21.433.054 1.425 1.901 1.371 1.913-.047.069-7.806 2.959-14.906 6.198-21.867a192.24 192.24 0 0 0 13.978-3.519c1.259-.37 2.635-.764 4.06-1.204-1.468 2.975-2.174 7.307 1.638 7.542.908.056.99-1.39.365-1.788-1.329-.847-1.524-1.62-1.194-3.157.241-1.125.747-2.205 1.242-3.259 3.557-1.198 7.207-2.749 9.996-5.004a52.36 52.36 0 0 0 1.085 1.645c-.434-.11-.963.155-1.014.682-.208 2.126-.143 4.69.881 6.633.627 1.188 1.395 2.179 2.254 3.207 2.552 3.053.677 5.743-1.361 8.216-2.494 3.023-5.016 5.919-8.618 7.622-3.056 1.444-6.526 1.487-9.814 1.904-.853.108-.799 1.418.038 1.51 7.26.794 12.353-1.762 16.983-6.281.018.071.027.144.063.215.621 1.215 1.686 1.93 2.671 2.834.34.312.679.357 1.083.136 2.441-1.339 5.131-2.576 7.953-2.695.465-.021.786-.397.886-.828.648-2.814-1.202-6.519.761-8.852.122-.146.191-.308.225-.476 4.701 3.818 9.29 4.964 15.239 4.731 3.525-.138 10.918-.071 12.533-4.131.626-1.573-.297-3.342-1.037-4.693-.604-1.106-1.316-2.149-1.912-3.26-1.188-2.212 1.469-1.845 3.021-1.789.938.032 1.126-1.146.845-1.797-3.282-7.627-7.547-14.829-11.427-22.167a30.68 30.68 0 0 0 5.017-7.628c.058-.125.087-.25.102-.374 5.363 1.926 11.4 2.886 16.042 4.244 7.19 2.102 14.169 3.503 21.583 1.628.167-.042.321-.096.481-.145 5.411.912 10.839-.641 16.191-1.427 6.931-1.018 14.475-.518 21.446-.103 7.416.44 14.822 1.957 22.19 2.913a513.574 513.574 0 0 0 23.863 2.538c7.453.614 14.889 1.094 22.324 1.914 7.38.815 14.754 1.494 22.187 1.184 7.191-.301 14.368-.861 21.568-.958 5.967-.082 12.673-2.115 18.494-.367 1.515.457 1.974-2.181.549-2.609zM25.338 158.349c-1.48 2.984-3.167 5.859-4.838 8.742-2.419.007-4.421-.238-6.31-2.168-1.97-2.015-2.299-5.234-1.997-7.88.635-5.532 4.588-10.333 7.899-14.681 3.513.589 7.471.056 10.563-.424-1.105 5.789-2.637 11.007-5.317 16.411zm34.778-25.513c-4.882 1.599-9.889 2.907-14.936 4.004-.331-.514-1.044-.711-1.44.047l-.151.293c-3.01.626-6.031 1.182-9.047 1.671-4.27.692-9.221 1.875-13.673 1.117-.236-.32-.624-.474-1.015-.21a12.254 12.254 0 0 1-2.703-.989c-4.01-2.066-2.347-6.214-3.089-9.713-.589-2.781-2.408-4.497-4.431-6.38-5.672-5.281-2.74-14.009-.908-20.5.778-2.757 1.159-6.006 4.131-7.09 3.31-1.207 6.849-2.165 10.266-3.05.597 2.687 1.81 5.037 4.01 6.558 2.661 1.839 5.394 1.144 7.595-1.033 2.863-2.833 3.052-7.682 1.716-11.226a1.22 1.22 0 0 0-.403-.546c.232-.251.452-.508.67-.768.025.419.051.838.111 1.261.658 4.588 8.041 16.99 13.626 11.674 2.523-2.4 3.088-6.86 4.49-9.9.519-1.124.962-2.132 1.244-3.078 6.975 3.439 14.766-1.228 22.246.606 3.952.969 7.421 2.962 11.015 4.602l-.062.005c-.916.1-1.84.462-2.561 1.035a2.727 2.727 0 0 0-.718.838c-1.333-.542-2.73-.794-3.959-.315-1.514-1.729-3.265-3.285-4.074-5.405-.528-1.38-2.4-.659-1.902.661.903 2.389 2.71 3.722 4.27 5.689 2.511 3.172 2.783 6.001 1.507 9.691-2.028 5.867-2.673 11.738-4.193 17.702-2.016 7.926-10.719 10.486-17.632 12.749zm25.897 19.677c-2.674.314-5.178 1.444-7.528 2.738-.723-.565-1.502-1.08-1.962-1.898a.89.89 0 0 0-.341-.35 51.657 51.657 0 0 0 1.771-1.971c1.991-2.336 4.622-5.855 2.941-9.112-.846-1.638-2.094-2.896-3.126-4.411-1.231-1.808-.778-4.004-1.397-5.959 3.098 4.274 6.92 8.258 10.862 11.672a1.239 1.239 0 0 0-.16.157c-2.409 2.864-.705 5.914-1.06 9.134zm25.748-14.143c.582 1.228 3.565 4.641 2.615 6.039-1.378 2.031-6.123 2.022-8.238 2.198-6.105.508-10.792-.122-15.864-3.901-5.652-4.211-9.359-10.075-14.099-15.125a12.408 12.408 0 0 0 1.803-2.405c.521-.923.935-1.876 1.283-2.848.54-.313 1.092-.581 1.662-.789 3.15 3.338 6.464 6.521 9.347 10.104 2.136 2.652 3.431 5.783 5.423 8.524 2.201 3.028 7.674 7.285 8.982.987.15-.725-.74-1.589-1.315-.835-.687.9-1.224 2.276-2.576 1.964-1.183-.273-2.181-1.63-2.92-2.507-1.32-1.565-2.364-3.396-3.32-5.201-2.808-5.295-7.525-9.511-11.967-13.522 2.171-.484 4.472-.515 6.711-.729 3.115-.3 6.103-1.425 8.865-2.844 2.584-1.328 4.907-3.114 6.938-5.19 2.43 7.255 6.595 13.771 9.776 20.728-2.998.284-4.771 1.843-3.106 5.352zm-18.078-21.445c-3.935 1.488-9.038.776-12.821 2.644-.346-.129-.661.108-.782.438l-.136.088c.404-1.592.677-3.226.916-4.879.587-4.052 1.538-7.8 2.896-11.669.845-2.407 1.394-4.658.911-7.201-.215-1.132-.682-2.102-1.273-2.988a6.487 6.487 0 0 1 2.151.478c.033.227.307.366.477.208 4.229 1.999 7.608 7.663 12.108 7.967.688.046.813-.982.45-1.378-2.396-2.615-6.083-4.677-9.027-6.634a27.418 27.418 0 0 0-2.02-1.241 6.74 6.74 0 0 1 2.239-.5c.726-.031 1.425.149 2.1.397.681.25 1.066.625 1.757.195.165-.102.269-.3.308-.498.625.379 1.21.823 1.739 1.333.811.783 1.282 1.824 1.834 2.789.41.715 1.331.313 1.305-.448-.045-1.393-.699-2.541-1.652-3.424.57.072 1.149.124 1.742.141 1.586 4.918 5.508 7.864 10.21 9.858-3.087 6.656-8.569 11.728-15.432 14.324z"/><path d="M78.994 95.33c-1.327-1.158-2.659-1.967-4.307-2.592-.748-.284-1.067 1.029-.46 1.371 1.622.915 3.301 1.681 2.835 3.798-.411 1.866-.615 3.784-.851 5.678-.475 3.824-.96 7.624-2.22 11.283-2.222 6.453-6.068 8.978-12.162 11.419-6.542 2.62-12.822 5.603-19.724 7.217-8.712 2.037-17.477.896-25.185-3.674-1.327-.785-2.232 1.479-1.043 2.184 7.125 4.221 14.82 5.631 23.007 4.58 8.375-1.074 15.85-4.848 23.558-8.004 4.9-2.007 9.15-4.079 11.808-8.88 3.914-7.069 3.195-15.766 4.985-23.426.07-.297.003-.741-.241-.954z"/><path d="M39.704 129.604c-1.699.174-3.376.379-5.017.862-.491.146-.318.881.134.935 3.269.385 7.788.708 10.874-.592.825-.347.673-1.683-.249-1.746-1.882-.129-3.864.346-5.742.541zM52.094 125.615c-3.339-.663-6.827-.864-10.192-.303-.484.081-.499.881.021.886 3.373.031 6.66.968 10.022 1.016.824.012.936-1.442.149-1.599zM34.154 113.261c3.647 3.004 8.783 5.982 13.421 7.069.814.19.983-.931.457-1.351-2.968-2.364-6.996-3.469-10.276-5.391-4.473-2.621-6.68-6.221-7.878-11.172-.062-.258-.448-.272-.479.013-.462 4.254 1.488 8.142 4.755 10.832zM53.356 118.222c.883.362 1.307-1.243.556-1.643-5.063-2.697-11.045-5.247-13.481-10.848-.284-.654-1.181-.101-.969.5 2.122 6.016 8.277 9.686 13.894 11.991zM98.394 119.944c-.268-1.229-2.045-.869-1.9.345.412 3.447 1.911 6.685 3.984 9.461a31.7 31.7 0 0 0 3.962 4.394c1.719 1.584 1.305 5.212.937 7.297-.121.685.779 1.005.969.282.457-1.731 1.454-6.888.069-8.239-3.955-3.86-6.834-8.078-8.021-13.54zM45.887 161.714c-3.976 1.91-6.4 6.194-5.991 10.567.099 1.048 1.458 1.04 1.452-.036-.025-4.122 2.258-6.379 5.17-8.906.573-.497.297-2.069-.631-1.625z"/><path d="M43.495 173.965c.591-3.252 1.89-6.122 4.383-8.343 2.292-2.041 5.126-2.811 7.85-4.028 1.004-.448.65-2.128-.5-1.915-6.679 1.237-13.2 7.038-12.321 14.208.043.347.514.488.588.078z"/></svg>