<svg version="1.1" xmlns="http://www.w3.org/2000/svg" x="0" y="0" width="325.984" height="310.724" viewBox="0 0 325.984 310.724" xml:space="preserve"><path d="M243.927 18.069c-.918 11.731-2.085 23.445-2.938 35.182-.109 1.493 1.9 1.719 2.256.301-.192.768 1.207.768 1.928 1.008 1.232.41 2.424.973 3.596 1.523 2.377 1.117 4.691 2.372 6.984 3.651 2.043 1.14 3.96 2.476 6.002 3.614 1.146.639 2.555 1.193 3.864 1.291.823.062 4.696-.714 5.062.105.615 1.387 2.49.2 2.025-1.065-1.361-3.715-5.017-1.282-7.996-1.927-3.371-.729-7.004-3.889-10.128-5.569-1.954-1.052-12.442-7.75-13.562-3.29l2.256.301c.851-11.682 2.527-23.426 1.729-35.15-.056-.835-1.015-.778-1.078.025z"/><path d="M271.888 53.883c-1.036 5.193-2.631 10.879-.417 15.978 1.033 2.379 3.304 4.197 5.206 5.847 2.738 2.374 4.854 5.096 7.079 7.94 3.733 4.773 8.499 8.815 12.759 13.129 2.812 2.848 7.838 7.524 12.213 5.434.703-.336.959-1.84-.049-1.988-5.271-.775-8.298-3.069-11.988-6.887-3.477-3.596-7.381-6.834-10.579-10.671-1.839-2.206-3.448-4.605-5.431-6.687-1.76-1.848-3.862-3.355-5.66-5.171-4.24-4.28-2.335-11.387-1.961-16.766.054-.765-1.018-.922-1.172-.158zM244.493 17.634c5.612-.557 10.765-.889 16.378-.278 1.692.185 3.318.01 4.912-.547.88-.307 1.998 7.459 1.937 7.924l2.19.296c.025-2.667.141-5.332.162-8l-1.368 1.304c2.803.834 5.96 3.103 7.412 5.633 1.115 1.941 1.38 4.246 2.521 6.197.663 1.135 2.162.205 1.766-.938-2.125-6.135-4.301-11.385-11.173-13.445-.822-.246-1.361.588-1.368 1.304-.027 2.667-.146 5.332-.172 8-.014 1.396 1.995 1.784 2.19.296.307-2.344-.567-11.398-4.065-11.261-1.227.048-2.41.626-3.693.679-2.191.09-4.449-.434-6.631-.604-3.527-.274-7.845.508-11.289 1.329-.989.235-.767 2.216.291 2.111z"/><path d="M272.726 18.739c3.64-.798 7.286.759 10.605 2.09 3.307 1.326 6.603 2.36 10.1 3.087 8.752 1.82 17.801 1.546 26.6 3.124 1.536.276 1.957-2.356.537-2.635-9.249-1.814-18.752-1.516-27.992-3.387-6.436-1.304-13.704-6.539-20.369-4.312-1.088.363-.662 2.293.519 2.033zM243.953 17.069c-1.504-1.34-3.281-1.633-5.236-1.872-4.162-.509-8.065-1.454-12.107-2.604-8.673-2.47-17.387-4.795-26.311-6.092-2.709-.394-5.663-.975-8.377-.338-3.543.832-6.345 3.087-8.994 5.484-2.744 2.484-5.367 5.045-8.216 7.416-2.288 1.906-4.373 3.961-5.751 6.628-1.336 2.583-1.104 5.915 1.805 7.097 3.391 1.377 8.455-.797 11.571-1.996a46.458 46.458 0 0 0 5.04-2.307c2.213-1.173 4.039-3.152 6.57-3.614 3.512-.642 8.363 3.272 11.615 4.594 3.302 1.343 6.92 1.894 10.38.942 1.137-.312.898-2.54-.339-2.42-7.214.696-12.122-2.795-18.508-5.368-4.076-1.644-6.995 1.319-10.248 3.207-3.051 1.771-6.512 3.039-9.902 3.968-1.654.452-3.494.815-5.207.508-2.847-.51-.236-4.348.643-5.49 1.595-2.074 3.844-3.679 5.84-5.344 2.383-1.989 4.529-4.248 6.83-6.33 2.716-2.455 5.646-4.33 9.388-4.492 3.204-.14 6.638.623 9.805 1.111 7.328 1.127 14.698 3.441 21.83 5.444 3.003.843 6.136 1.972 9.249 2.304 2.378.253 5.535-.149 7.521 1.378.991.762 1.896-1.111 1.109-1.814z"/><path d="M180.871 12.542c-3.902-.967-8.411-1.062-11.808 1.251-2.245 1.527-4.325 3.553-6.267 5.436-2.789 2.704-9.945 9.578-5.277 13.624 1.277 1.108 2.679-.96 1.561-1.928-3.219-2.79 5.39-10.02 7.256-11.704a71.527 71.527 0 0 1 3.868-3.236c3.305-2.584 7.605-.172 10.755-2.791.19-.159.2-.58-.088-.652z"/><path d="M168.125 25.216c-5.068-.22-9.57 5.944-13.177 8.855a29.264 29.264 0 0 1-7.927 4.558c-2.025.779-3.836 1.543-4.934 3.462-.346.603.191 1.651.95 1.38 4.585-1.637 9.202-4.206 13.085-7.158 2.284-1.736 4.293-3.854 6.459-5.732 1.908-1.654 4.156-2.815 5.759-4.789.162-.199.062-.563-.215-.576zM171.76 32.911c-.058 3.25-1.031 6.331-1.419 9.538-.293 2.409.287 4.663.936 6.962 1.645 5.84 3.977 11.357 5.179 17.332.273 1.357 2.242.947 2.067-.379-.695-5.271-2.664-10.223-4.367-15.228-1.209-3.55-2.038-6.72-1.453-10.511.41-2.648.958-5.062.804-7.758-.076-1.31-1.724-1.264-1.747.044z"/><path d="M141.912 41.07c-2.189 3.206-4.902 5.979-7.424 8.919-2.92 3.404-4.93 7.485-7.377 11.217-4.216 6.432-8.781 12.382-11.605 19.617-2.605 6.674-2.812 13.846-1.435 20.816.905 4.579 3.036 8.76 3.536 13.439.417 3.895-1.48 7.589-.963 11.506.217 1.639 2.533 1.617 2.312-.057-.413-3.137.781-5.954.934-9.045.18-3.641-.7-7.037-1.836-10.472-2.755-8.327-3.582-16.493-.59-24.909 2.655-7.466 7.689-13.665 11.982-20.207 2.217-3.38 4.06-6.957 6.635-10.096 2.477-3.021 5.178-5.771 7.273-9.091.659-1.04-.583-2.894-1.442-1.637zM176.804 67.614c-1.766 3.215-1.978 7.156-2.705 10.712-.814 3.975-1.731 7.939-2.871 11.834-2.336 7.982-6.805 15.153-11.68 21.808-4.805 6.556-11.162 11.754-19.104 13.895-6.232 1.68-12.451.171-17.474 5.111-.909.895.376 3.04 1.433 2.045 5.455-5.142 14.32-3.271 21.009-6.005 6.914-2.825 12.212-8.284 16.524-14.204 4.596-6.311 8.456-13.102 10.949-20.519 1.309-3.892 2.148-7.957 3.012-11.966.867-4.037 2.189-8.562 1.246-12.666-.042-.186-.253-.203-.339-.045z"/><path d="M121.751 123.032c-.301.069-.354.095-.606.25-.84.519.273 1.984.857.954 3.211-5.659 2.109-14.383-.182-20.13-2.004-5.028-2.984-9.144-1.551-14.488 1.262-4.701 3.805-9.033 5.693-13.493 3.516-8.3 6.507-16.57 13.409-22.739 6.655-5.948 16.191-10.865 25.02-7.119 1.319.561 1.614-1.872.484-2.42-7.845-3.801-16.455.084-23.071 4.639-7.541 5.193-11.889 12.611-15.348 20.9-3.438 8.24-8.869 16.881-9.029 26.006-.08 4.5 2.519 8.699 3.818 12.879 1.575 5.07.26 10.37-.372 15.444.392-.01.784-.02 1.176-.028l-.079-.468c-.001-.123-.098-.217-.219-.187z"/><path d="M166.142 36.117c-.883 2.356-2.453 5.148-1.998 7.733.182 1.031 1.438.856 1.658-.04.27-1.093.327-2.218.619-3.316.332-1.249.774-2.466 1.105-3.716.231-.865-1.015-1.646-1.384-.661zM154.451 41.684c1.744-1.484 3.215-3.25 4.979-4.724.846-.706.052-2.626-.928-1.809-1.923 1.605-3.598 3.698-4.454 6.069-.079.222.112.712.403.464z"/><path d="M164.875 44.571c.062 1.598.82 2.936 1.568 4.322 1.414 2.619 2.111 5.391 2.623 8.304 1.225 6.968.33 14.095-1.088 20.949-1.405 6.785-3.24 13.45-5.664 19.942-2.217 5.941-6.497 10.551-10.014 15.718-.821 1.206.715 3.222 1.666 1.832 3.418-4.99 7.424-9.495 9.863-15.091 2.822-6.477 4.413-13.546 5.953-20.41 1.548-6.9 2.26-13.74 1.625-20.795a36.088 36.088 0 0 0-1.996-8.958c-.782-2.184-2.666-3.839-3.38-6.03-.241-.745-1.186-.565-1.156.217z"/><path d="M152.748 113.251c-5.354 10.503-18.691 8.63-28.303 11.143-8.625 2.255-13.973 13.715-9.488 21.766.65 1.167 2.134.208 1.795-.934-1.66-5.578-.987-12.375 3.828-16.215 3.658-2.916 9.154-3.003 13.585-3.476 7.642-.816 17.102-3.324 20.021-11.343.363-.998-.849-2.096-1.438-.941z"/><path d="M123.012 127.129c1.744.26 3.319.621 4.925 1.364.931.431 1.363-1.332.59-1.782-1.609-.938-3.611-.991-5.409-.747-.544.075-.712 1.076-.106 1.165zM122.242 100.167c2.176.413 4.357.917 6.568 1.091.371.029.406-.648.064-.727-2.154-.496-4.389-.671-6.581-.93-.283-.032-.321.515-.051.566zM124.14 91.527c2.364.059 4.479 1.093 6.713 1.741.633.184.799-.896.227-1.092-2.26-.771-4.539-1.496-6.955-1.259-.338.034-.326.601.015.61zM129.808 80.867c3.573.402 6.861 1.933 10.346 2.727.828.189 1.057-1.262.291-1.408-3.56-.683-6.977-2.114-10.652-1.939-.354.015-.319.582.015.62zM138.791 75.243c.4.217.742.503 1.172.664.02.007.025-.027.008-.035-.43-.163-.764-.45-1.16-.67-.026-.014-.042.029-.02.041zM141.017 61.807c3.062 2.329 6.294 4.434 9.953 5.705.912.316 1.104-1.241.326-1.58-3.382-1.471-6.751-2.967-10.047-4.627-.318-.16-.472.319-.232.502z"/><path d="M130.563 71.391c4.694.968 7.515 6.204 12.425 6.371.896.03.938-1.489.154-1.72-2.607-.767-4.708-2.335-6.946-3.81-1.671-1.101-3.622-2.178-5.649-1.508-.27.09-.282.606.016.667zM147.033 53.349c1.93 2.45 4.668 3.991 7.17 5.78.642.459 1.119-.761.527-1.146-1.262-.823-2.56-1.588-3.854-2.357-1.223-.729-2.67-1.477-3.643-2.53-.153-.168-.315.108-.2.253zM151.371 46.089c.271 1.53 3.647 3.146 4.759 3.899 2.384 1.618 5.255 4.033 8.152 4.614 1.064.213 1.272-1.397.369-1.762-2.558-1.029-4.983-2.675-7.386-4.016-1.837-1.024-3.997-1.856-5.751-2.872-.094-.053-.158.054-.143.137zM159.117 46.969c2.02 1.567 4.108 3.395 6.541 4.263.637.228.955-.797.549-1.179-1.898-1.79-4.273-3.061-6.391-4.578-.859-.616-1.413.941-.699 1.494zM171.049 45.072c4.377 5.382 10.988 8.457 16.276 12.841 6.032 4.999 13.425 7.962 20.089 11.963 7.261 4.359 14.272 9.15 21.611 13.375 3.342 1.924 6.941 3.396 10.408 5.07 3.916 1.893 7.508 4.381 11.432 6.252 1.133.539 1.773-1.019.869-1.701-6.245-4.709-13.654-7.523-20.557-11.074-7.461-3.838-14.405-8.879-21.565-13.247-6.704-4.09-13.948-7.208-20.296-11.883-5.781-4.257-12.086-8.088-17.558-12.735-.635-.541-1.1.659-.709 1.139zM179.631 58.605c-.572-.2-1.143-.399-1.715-.601-.525-.469-1.053-.036-1.104.568-.11 1.303 2.711 2.798 3.531 3.431 3.238 2.5 6.747 4.673 10.203 6.854 6.904 4.354 13.869 8.899 21.115 12.662.688.356 1.307-.673.74-1.15-4.962-4.173-10.684-7.347-16.215-10.687a499.441 499.441 0 0 1-9.318-5.738 335.465 335.465 0 0 1-4.567-2.952 135.435 135.435 0 0 0-2.256-1.495c-1.392-.691-1.528-.911-.409-.657.131-.015.127-.23-.005-.235zM180.918 67.739c1.009 2.656 3.549 3.849 5.82 5.312 4.074 2.627 7.928 5.598 11.967 8.279 3.994 2.653 8.061 5.189 12.236 7.548 4.09 2.31 8.689 5.083 13.342 6.002.902.178 1.3-1.107.553-1.567-3.7-2.273-7.922-3.765-11.759-5.832-3.831-2.064-7.525-4.382-11.197-6.715-3.71-2.357-7.315-4.865-10.985-7.283-3.094-2.038-7.189-3.293-9.893-5.803-.041-.038-.104.007-.084.059zM140.738 127.852c7.443 1.753 14.791 4.215 22.326 5.526 7.4 1.288 14.633 3.17 21.904 4.995 3.191.801 6.534.906 9.753 1.597 3.792.812 7.366 2.155 11.235 2.766 7.823 1.231 15.766 1.317 23.396 3.639 1.538.468 2.005-2.197.562-2.637-6.864-2.088-14.007-2.484-21.093-3.302-4.234-.488-8.355-1.345-12.387-2.73-3.47-1.193-7.348-1.152-10.923-1.89-7.786-1.604-15.417-3.829-23.284-5.18-7.229-1.241-14.056-4.736-21.504-3.372-.264.049-.226.53.015.588z"/><path d="M252.079 93.305a4.593 4.593 0 0 1-1.065-.763l-.568 1.786c1.104.156 1.617 5.125 1.657 5.979.099 2.065-.414 4.159-.906 6.149-1.048 4.236-2.62 8.487-3.999 12.633-1.52 4.564-3.661 8.912-6.068 13.066-2.507 4.324-6.328 11.199-11.695 12.041-1.484.232-1.402 2.951.066 2.717 5.839-.928 9.045-6.34 12.043-10.935 3.449-5.286 6.219-11.115 8.088-17.146 1.637-5.285 4.114-10.865 4.492-16.437.152-2.245.102-4.763-.876-6.847-.388-.827-1.38-3.31-2.638-3.131-1.291.183-.7 2.386.258 1.898a4.114 4.114 0 0 1 1.168-.487c.206-.065.219-.415.043-.523z"/><path d="M142.961 123.168c3.449-.642 6.956.573 10.428.62 4.615.063 9.084-.951 13.724-.583 9.743.774 19.384 2.292 29.077 3.486 9.408 1.16 18.619 1.188 28.018.017 6.861-.854 13.827 1.444 20.172-2.22 1.203-.695.207-2.983-1.156-2.199-3.445 1.984-7.349 1.96-11.207 1.858-4.004-.105-7.75.013-11.727.497-9.847 1.2-19.865.145-29.629-1.239-8.732-1.237-17.597-2.483-26.42-2.761-4.812-.152-9.527 1.367-14.354.695-2.552-.355-5.151-.926-7.373.671-.524.377-.201 1.279.447 1.158zM190.113 88.43c-2.957 5.146-7.773 11.558-6.002 17.87.206.733 1.311.83 1.39-.034.283-3.07.479-5.852 1.503-8.806 1.028-2.964 2.338-5.857 3.484-8.778.104-.265-.205-.547-.375-.252zM206.027 92.307c-.92 6.569-4.812 12.17-5.951 18.648-.225 1.276 1.439 1.91 1.781.533 1.566-6.318 4.832-12.484 4.725-19.106-.006-.35-.501-.455-.555-.075zM224.283 98.283c-.686 3.499-1.277 6.735-2.499 10.126-.989 2.746-1.989 5.461-2.479 8.35-.242 1.428 1.724 2.156 1.992.596 1.015-5.889 5.662-13.036 3.682-19.089-.124-.381-.612-.412-.696.017zM243.863 101.371c-1.877 2.29-3.271 4.988-4.481 7.677-.964 2.144-2.235 5.13-1.533 7.512.386 1.307 1.91.887 1.947-.361.149-4.963 2.891-9.501 5.399-13.659.496-.825-.619-2.04-1.332-1.169zM192.328 93.192c-1.234 2.961-2.379 6.307-2.303 9.554.028 1.174 1.646 1.512 1.855.25.5-3.02.948-5.86 2.059-8.743.436-1.132-1.06-2.385-1.611-1.061zM196.322 96.295c-.795 2.958-2.764 6.234-2.303 9.37.141.964 1.39.809 1.575-.039.345-1.567.454-3.183.805-4.762.331-1.488.542-2.958.556-4.483.003-.423-.525-.49-.633-.086zM200.625 96.552c-.564 1.247-.784 2.63-1.1 3.956-.322 1.35-.73 2.683-.824 4.07-.065.976 1.381 1.566 1.752.517.458-1.299.66-2.681.914-4.032.273-1.453.537-2.899.32-4.371-.084-.57-.834-.643-1.062-.14zM207.566 98.569c-.502 1.355-.922 2.734-1.375 4.107-.402 1.217-1.137 2.384-1.396 3.628-.135.644.581 1.772 1.297 1.126.965-.871 1.312-2.26 1.695-3.47.489-1.54.885-3.104 1.326-4.657.274-.967-1.144-1.824-1.547-.734zM212.154 99.961c-1.08 2.122-3.041 5.452-2.117 7.925.434 1.157 1.98.962 1.901-.354-.142-2.352.767-4.512 1.509-6.715.301-.896-.753-1.916-1.293-.856zM217.142 101.141c-.67 2.545-2.279 5.379-1.883 8.058.124.843 1.377 1.069 1.677.218.417-1.186.552-2.461.88-3.68.367-1.366.767-2.696.975-4.1.176-1.183-1.312-1.778-1.649-.496zM227.734 104.452c-.455 3.273-2.309 6.34-2.469 9.626-.045.934 1.226 1.421 1.631.48 1.248-2.899 2.263-6.43 2.637-9.565.154-1.285-1.6-1.976-1.799-.541zM233.457 105.333c-.924 2.55-1.986 5.358-2.143 8.081-.061 1.032 1.447 1.654 1.853.546.91-2.492 1.312-5.234 2.067-7.789.327-1.108-1.327-2.078-1.777-.838z"/><path d="M237.351 107.54c-.472 1.175-.863 2.374-1.23 3.584-.372 1.229-.854 2.497-.87 3.787-.015 1.037 1.143 1.331 1.658.489.578-.944.735-2.14.991-3.208.293-1.22.607-2.433 1.016-3.619.377-1.094-1.04-2.342-1.565-1.033zM124.284 129.547c-3.756 2.653-3.091 9.266-2.733 13.214.317 3.521.677 6.667.428 10.22-.16 2.305.293 4.006 2.224 5.33 1.022.701 1.635-.963 1.048-1.684-1.989-2.436-.783-4.173-.75-6.754.032-2.396-.6-4.791-.899-7.163-.544-4.3-.358-8.192 1.609-12.103.284-.565-.272-1.523-.927-1.06zM115.463 146.506c-.21 1.588-.469 3.201-.858 4.756-.396 1.574-1.472 3.001-1.647 4.593-.061.54.412 1.38 1.045.9 1.287-.977 1.721-2.912 2.057-4.437.438-1.989.319-3.885-.26-5.821-.054-.176-.31-.198-.337.009z"/><path d="M119.67 146.847c4.383 1.281 9.069.593 13.568 1.271 1.977.298 10.182 1.944 7.574 5.219-1.533 1.926-5.08 2.505-7.321 3.013-2.974.674-6.002 1.056-9.034 1.347-7.73.74-15.971 1.208-23.621-.172-2.676-.482-6.566-1.374-8.154-3.77-2.041-3.08 4.393-5.088 6.086-5.592 4.693-1.396 11.352-2.096 16.094-.806 1.514.412 1.953-2.215.543-2.602-5.925-1.628-29.255-.771-24.69 10.426 2.077 5.096 11.771 5.515 16.267 5.765 5.396.299 10.932.021 16.322-.417 5.482-.444 17.214-.735 19.871-6.784 1.389-3.16-1.775-5.578-4.262-6.689-5.752-2.573-13.08-1.895-19.127-1.478-.646.045-.721 1.092-.116 1.269zM90.43 155.496c-.269 2.662.093 5.146.599 7.759.883 4.547 1.142 8.323.234 12.877-.205 1.025 1.135 1.898 1.654.768 2.951-6.408.123-15.184-2.086-21.414-.07-.198-.374-.249-.401.01z"/><path d="M142.217 153.616c4.902 5.336-1.608 14.442 3.895 19.62.949.893 2.203-.461 1.54-1.459-3.93-5.918 1.311-14.474-4.269-19.614-.942-.87-1.914.64-1.166 1.453zM90.001 175.671c2.931 2.197 5.868 4.193 9.657 4.416 1.159.068 1.082-1.953-.051-2.062-3.229-.311-6.473-1.395-9.343-2.916-.356-.19-.537.357-.263.562zM137.439 177.978c2.883.555 7.207-.342 8.643-3.189.277-.551-.148-1.383-.82-1.186-1.211.357-2.15 1.207-3.291 1.734-1.375.637-2.854.928-4.361.77-.949-.098-1.065 1.697-.171 1.871z"/><path d="M90.547 158.828c5.889 6.649 16.553 7.654 24.852 7.401 4.835-.147 9.652-1.039 14.316-2.283 2.375-.634 4.652-1.54 6.986-2.295 2.371-.766 4.925-1.331 6.857-2.963.65-.549.349-2.004-.66-1.697-8.924 2.717-16.98 6.185-26.445 6.861a48.453 48.453 0 0 1-13.975-1.028c-4.179-.929-7.85-2.747-11.816-4.243-.14-.053-.188.165-.115.247z"/><path d="M90.582 163.259c4.756 7.316 15.062 7.554 22.922 7.404 5.554-.107 11.037-.633 16.482-1.742 5.168-1.055 12.02-2.708 15.902-6.526.824-.811-.31-2.765-1.305-1.873-3.61 3.235-9.374 4.635-13.981 5.767-5.391 1.323-10.874 1.673-16.394 1.913-7.354.322-17.631-.053-23.547-5.042-.054-.045-.109.052-.079.099z"/><path d="M91.142 170.083c5.354 6.395 16.253 6.361 23.888 5.916 5.535-.322 11.042-1.207 16.51-2.096 3.733-.607 8.358-1.402 10.942-4.428.689-.807-.139-2.311-1.18-1.682-7.548 4.559-17.684 5.084-26.334 5.707-8.136.588-16.094-.707-23.613-3.873-.26-.108-.338.308-.213.456z"/><path d="M93.109 170.042c-8.475-.18-17.039.281-25.52.41-8.597.129-17.184.742-25.533 2.895-5.848 1.506-9.901 5.887-12.648 11.086-3.242 6.133-3.043 12.488-1.884 19.119 1.477 8.449 1.458 17.803 1.254 26.357-.224 9.396.551 18.719.922 28.104.368 9.32 1.403 18.59 1.091 27.93-.15 4.447.166 9.045-.571 13.436-.363 2.16-.487 4.232.886 6.027 1.09 1.424 2.692-.764 1.723-2.031-1.204-1.572.212-5.506.282-7.443.157-4.324.179-8.674.257-12.998.162-8.828-.91-17.641-1.258-26.453-.314-7.969-1.139-15.922-.955-23.898.186-8.109-.236-16.143-.723-24.236-.436-7.219-2.492-13.607.23-20.66 2.887-7.477 8.436-10.93 15.958-12.543 7.766-1.666 15.843-1.807 23.752-1.932 7.606-.119 15.525.359 23.014-1.182.988-.205.694-1.967-.277-1.988z"/><path d="M12.829 224.05c2.549-.447 5.073-.936 7.585-1.564 3.148-.787 6.014-2.256 9.285-1.162 1.47.492 1.859-2.029.535-2.533-2.436-.93-4.587-.594-7.029.148a155.126 155.126 0 0 1-10.695 2.84c-1.09.247-.823 2.47.319 2.271zM144.83 167.399c3.647.49 7.346-.258 10.99-.502 5.148-.344 8.969.871 12.815 4.264 8.077 7.123 16.354 14.018 24.365 21.215 6.788 6.1 13.203 12.695 20.686 17.961 4.024 2.832 8.04 5.523 11.479 9.082 3.357 3.473 3.723 7.383 3.537 12.002-.203 5.027-1.279 10.031-2.236 14.955-.937 4.809-1.035 9.824-1.021 14.705.021 6.855.55 13.695.089 20.543-.336 4.992-.654 9.99-.813 14.992-.054 1.67-.988 7.867 1.153 8.846 1.582.723 2.608-1.828 1.184-2.479.56.256.195-.213.144-1.037-.071-1.115-.056-2.236-.048-3.354.02-2.686.153-5.373.289-8.057.207-4.076.582-8.146.745-12.225.419-10.469-1.042-20.811.612-31.244 1.188-7.484 4.564-17.557 1.216-24.92-3.26-7.166-11.188-11.336-17.287-15.73-8.458-6.096-15.767-14.006-23.61-20.859-3.763-3.289-7.568-6.527-11.365-9.775-3.758-3.217-7.328-7.006-11.516-9.66-6.332-4.014-14.605-.669-21.467-1.077-1.324-.078-1.191 2.186.059 2.354z"/><path d="M223.052 216.933c2.578.668 5.248-.271 7.932-.01 3.256.318 6.498.699 9.766.904 7.219.455 14.502-.162 21.69-.793 7.269-.639 14.516-1.492 21.784-2.119 6.658-.574 13.234-2.316 19.943-2.107 1.553.047 1.489-2.789-.068-2.836-6.249-.188-12.315 1.402-18.5 2.01-6.77.666-13.541 1.32-20.312 1.986-6.758.666-13.545 1.201-20.339 1.26-3.318.029-6.641-.23-9.943-.527-1.798-.162-3.591-.371-5.389-.533-1.852-.168-4.332.754-6.068.346-1.404-.333-1.79 2.083-.496 2.419zM112.763 188.517c.323.775.559 1.578.77 2.391.196.75.273 1.502.78 2.115.523.633 1.448.191 1.578-.529.158-.879-.175-1.74-.416-2.582-.26-.904-.59-1.789-.972-2.65-.238-.535-.938-.738-1.412-.396-.539.389-.561 1.09-.328 1.651z"/><path d="M113.105 188.737c.729.043 1.547-.432 2.237-.641a82.975 82.975 0 0 1 4.389-1.205c2.628-.645 5.237-1.166 7.935-1.375 1.279-.1 1.469-2.217.23-2.549-2.403-.646-5.898.688-8.211 1.26-1.987.492-6.219 1.057-7.346 3.035-.343.6.088 1.434.766 1.475z"/><path d="M125.961 184.685c.787 2.91 2.648 5.816 4.922 7.791.529.461 1.425.488 1.711-.301a105.978 105.978 0 0 1 1.616-4.158c.602-1.465 1.444-2.945 1.694-4.518.141-.877-.9-2.053-1.639-1.059-.822 1.105-1.238 2.461-1.76 3.73a105.178 105.178 0 0 0-1.832 4.766l1.711-.299c-2.067-1.771-3.816-4.268-4.839-6.787-.456-1.126-1.85-.15-1.584.835z"/><path d="M134.996 183.228c1.971.111 3.869-.281 5.771-.756 1.732-.434 4.137-.82 5.535-1.971.735-.605.516-1.986-.529-2.053-1.619-.102-3.464.918-5.006 1.383-1.892.572-3.848 1.023-5.83 1.053-1.33.021-1.246 2.269.059 2.344z"/><path d="M145.535 179.864c.084.711.466 1.352.658 2.045.275.996.445 2.023.662 3.033.322 1.496.84 4.082 2.537 4.594 1.016.309 1.48-1.027 1.102-1.766-.365-.713-.895-1.242-1.182-2.014-.37-.992-.586-2.045-.842-3.068-.256-1.018-.857-3.719-2.334-3.564-.351.037-.644.371-.601.74zM113.561 191.638c-4.685 4.07-7.349 9.691-10.798 14.736-1.914 2.797-4.107 5.408-6.08 8.166-1.762 2.463-4.09 4.689-5.25 7.518-.594 1.447 1.381 2.973 2.066 1.328 1.085-2.6 3.301-4.641 4.883-6.955 1.914-2.801 4.076-5.43 6.057-8.182 3.449-4.801 5.798-10.434 10.267-14.443 1.001-.897.028-3.186-1.145-2.168z"/><path d="M149.259 190.188c5.427 4.049 12.27 6.551 18.338 9.504 3.009 1.463 5.997 3.057 8.755 4.955 2.336 1.609 4.345 3.449 7.014 4.508 1.283.51 1.938-1.877.809-2.408-2.479-1.162-4.53-2.82-6.714-4.445-2.672-1.986-5.792-3.477-8.763-4.955-6.159-3.064-12.445-6.402-18.877-8.844-.97-.367-1.198 1.211-.562 1.685zM91.304 222.401c.453 1.994.025 5.264 2.258 6.344 1.428.689 2.182-1.408 1.057-2.229-1.231-.898-.958-3.455-1.322-4.807-.412-1.522-2.314-.724-1.993.692z"/><path d="M182.901 207.915a36.54 36.54 0 0 0 .431 3.49c.199 1.145.442 2.641 1.281 3.496.699.715 1.754.068 1.689-.869-.072-1.018-.541-1.977-.781-2.971-.252-1.051-.383-2.125-.489-3.199-.153-1.556-2.254-1.543-2.131.053z"/><path d="M93.607 229.005c5.533 2.586 12.221.545 18.01-.021 9.301-.91 18.332-3.299 27.585-4.391 4.038-.477 8.109-.561 12.146-1.041 4.71-.561 9.346-1.607 14.061-2.141 6.484-.73 14.895-.318 20.363-4.656 1.193-.947.07-3.467-1.275-2.398-2.004 1.596-4.842 2.012-7.213 2.855-4.154 1.479-9.021 1.076-13.364 1.57-4.236.482-8.417 1.402-12.64 1.992-4.02.561-8.107.629-12.145 1.051-8.316.873-16.46 3.086-24.771 4.127-3.455.434-6.91.793-10.362 1.254-3.18.426-6.602.789-9.606-.555-1.222-.547-1.898 1.836-.789 2.354zM115.097 206.862c12.082-2.471 24.236-3.719 36.402-5.607 1.486-.23 1.461-2.906-.066-2.73-12.29 1.42-24.996 2.67-36.93 6.059-1.261.356-.745 2.552.594 2.278z"/><path d="M151.938 199.382l-.001-.346-1.189.844c6.174 3.578 12.038 7.844 18.324 11.197 1.473.785 2.43-1.65 1.123-2.375-6.141-3.408-11.934-8.885-18.87-10.559-1.552-.375-1.034 2.607.234 1.717.189-.132.38-.224.379-.478zM115.152 206.577l.424-.506c.817-.971-.682-2.418-1.346-1.162-1.152 2.182-15.414 17.07-9.34 18.795.96.271 1.583-1.021 1.107-1.768-1.342-2.105 3.939-7.574 5.219-9.234 1.496-1.938 4.488-4.705 4.588-7.334l-1.24.883c.186.109.371.221.558.33.011.008.022.004.03-.004z"/><path d="M105.328 223.991c16.955-2.488 34.008-4.348 50.965-6.84 4.278-.629 9.43-.598 13.516-2.154 1.936-.736 3.262-5.016.292-4.955-1.521.031-1.446 2.664.066 2.695-1.313-.027-.958-.389-2.182-.021-.769.23-1.575.33-2.368.441-1.222.172-2.456.236-3.685.344-6.599.578-13.236 1.908-19.808 2.789-6.071.812-12.143 1.615-18.191 2.576-6.307 1.002-12.705 1.395-18.912 2.967-1.03.262-.797 2.32.307 2.158zM114.609 189.388c-3.447.037-7.58.771-10.652 2.359l1.514 1.281c-.08-1.518-.336-2.959-1.113-4.279-.734-1.244-2.176-.219-1.894.99.268 1.148.612 2.15.667 3.346.031.666.705 1.691 1.514 1.281 3.252-1.652 7.008-1.477 10.241-3.018.833-.396.805-1.972-.277-1.96zM148.642 186.063c-.553-.117-.645-.104-.275.041a.767.767 0 0 0 .469-.012c.227-.08.48-.102.72-.135.915-.129 1.874-.105 2.796-.109 1.828-.01 3.653.125 5.48.156.775.014 1.252-.986 1.02-1.65-.613-1.744-1.344-3.598-1.141-5.48.165-1.527-1.971-2.314-2.154-.635-.266 2.414.357 4.598 1.193 6.85l1.02-1.65c-1.826.004-3.651-.078-5.479-.051-1.402.023-3.295-.072-4.355 1-.316.32-.288.885-.107 1.256.122.252.5.576.813.419z"/><path d="M102.543 189.044c1.629.639 3.732-.107 5.311-.582 1.604-.482 3.719-1.057 4.996-2.201.805-.719.475-2.615-.854-2.207-3.154.973-5.893 2.682-9.271 2.979-1.065.093-1.09 1.655-.182 2.011zM127.964 183.419c1.628 1.119 3.761.564 5.318-.453.836-.547.327-2.32-.749-1.932-1.449.525-2.768 1.781-4.41 1.605-.406-.042-.413.606-.159.78zM147.73 181.036c1.502-.014 3.018-.352 4.512-.5 1.566-.156 3.227.09 4.754-.113 1.001-.133 1.463-1.74.467-2.25-1.393-.711-3.295-.352-4.791-.18-1.705.195-3.613.408-5.225 1.031-.916.356-.779 2.02.283 2.012zM40.252 184.987c-2.836-1.082-3.334 11.117-3.208 12.754.076.984 1.19 1.152 1.492.199.686-2.158.532-4.648.786-6.885.135-1.197.332-2.391.65-3.553.186-.682.621-1.242.657-1.959a.586.586 0 0 0-.377-.556zM45.499 196.085c-1.276 2.949-2.143 6.266-2.256 9.484-.026.748.896.82 1.1.148.901-2.963 1.054-6.082 2.092-9.023.229-.648-.603-1.379-.936-.609zM50.608 205.38c-.933 2.734-2.14 5.936-1.462 8.848.138.588.839.506.982-.025.73-2.713.842-5.57 1.586-8.307.188-.688-.843-1.286-1.106-.516zM55.889 211.741c-1.313 2.35-1.865 4.93-2.226 7.576-.289 2.121-.834 4.842.018 6.85.24.566 1.029.492 1.26-.031.812-1.838.44-4.277.625-6.256.23-2.457.716-4.953 1.812-7.176.506-1.025-.861-2.088-1.489-.963zM59.082 222.323c-1.687 4.273-1.963 8.885-2.32 13.424-.103 1.301 1.855 1.602 2.049.27.615-4.219.519-8.516 2.041-12.561.464-1.238-1.21-2.555-1.77-1.133zM63.181 233.278c-1.231 3.682-2.536 8.281-1.133 12.094.402 1.094 2.018.926 1.878-.34-.436-3.955-.036-7.4 1.159-11.199.419-1.326-1.447-1.924-1.904-.555zM66.54 244.97c-.71 1.367-1.001 2.91-.954 4.441.033 1.127 1.427 1.299 1.737.225.344-1.188.46-2.398 1.07-3.492.691-1.239-1.13-2.567-1.853-1.174zM80.115 246.313c-1.476 2.061-2.725 4.404-3.447 6.84-.285.959 1.041 1.689 1.521.703 1.062-2.18 1.833-4.459 3.07-6.562.411-.699-.588-1.756-1.144-.981zM87.713 248.237c-1.016 1.09-1.801 2.309-2.521 3.609-.684 1.234-1.758 2.775-1.727 4.227.012.533.528.959 1.023.646.979-.615 1.34-2.027 1.828-3.029.715-1.467 1.527-2.889 2.572-4.148.666-.803-.353-2.188-1.175-1.305zM95.088 249.595c-1.339 2.305-2.641 4.955-3.302 7.545-.267 1.043 1.055 1.746 1.614.742 1.287-2.311 1.863-5.006 3.113-7.363.517-.975-.808-1.987-1.425-.924zM105.918 248.026c-2.588 1.561-3.337 5.756-2.881 8.52.182 1.096 1.688.984 1.874-.047.382-2.115-.017-5.105 2.104-6.414 1.126-.693.172-2.822-1.097-2.059zM120.614 245.134c-1.841 1.779-3.776 3.955-4.796 6.328-.324.754.5 1.82 1.186 1.035 1.682-1.922 3.07-4.168 4.649-6.188.572-.73-.263-1.925-1.039-1.175zM132.021 244.688c-2.863 2.074-5.801 5.043-6.492 8.637-.174.898 1.047 1.736 1.469.689 1.299-3.213 3.297-5.871 5.688-8.357.406-.424-.102-1.377-.665-.969zM142.972 243.44c-1.828 1.572-3.443 3.328-4.918 5.234-1.258 1.625-2.99 3.754-3.258 5.846-.065.51.428 1.42 1.035.9 1.384-1.178 2.154-3.107 3.195-4.59a30.846 30.846 0 0 1 4.934-5.492c.88-.767.035-2.776-.988-1.898zM155.996 245.485c-1.732 1.424-3.56 2.725-5.231 4.225-1.334 1.197-3.382 2.986-3.094 4.963.107.736.943.865 1.401.402.505-.51.744-1.295 1.191-1.875.618-.809 1.378-1.506 2.132-2.182 1.458-1.309 3.048-2.461 4.542-3.725.85-.718.055-2.628-.941-1.808zM170.929 242.854c-2.014 1.516-4.986 3.523-5.503 6.154-.123.627.442 1.379 1.093.953.961-.629 1.593-1.615 2.385-2.434.938-.967 2.027-1.795 3.1-2.605 1.023-.773.102-2.952-1.075-2.068zM184.605 239.708c-2.134 1.42-4.701 3.422-5.434 5.99-.158.553.427 1.232.973.852.893-.627 1.578-1.539 2.324-2.324.936-.984 2.033-1.795 3.193-2.488 1.089-.651.151-2.835-1.056-2.03zM193.443 236.712c-1.623 1.43-4.594 3.637-4.09 6.123.097.48.77.984 1.213.557.709-.686 1.014-1.686 1.645-2.457.669-.818 1.493-1.502 2.279-2.203.922-.821.024-2.963-1.047-2.02zM201.424 236.173c-1.088.746-2.165 1.553-3.098 2.486-.588.588-.029 2.123.899 1.74 1.206-.496 2.207-1.408 3.284-2.127 1.085-.724.147-2.943-1.085-2.099zM212.201 234.722c-1.564 1.373-3.866 2.73-4.496 4.82-.163.545.404 1.133.92.805.785-.498 1.363-1.275 2.045-1.898.777-.711 1.607-1.361 2.396-2.057.768-.678.022-2.448-.865-1.67zM70.23 253.907l.131-.092c.652-.459.275-1.975-.613-1.611-1.527.623-2.545 2.273-3.424 3.592a49.962 49.962 0 0 0-2.741 4.619c-.44.846.562 1.965 1.312 1.148 1.145-1.25 1.915-2.773 2.812-4.199a26.732 26.732 0 0 1 1.664-2.322c.224-.287.799-1.092.859-1.135zM67.275 261.792c-2.523 2.461-4.806 5.9-6.107 9.182-.289.73.479 1.785 1.156 1.008 2.371-2.717 3.555-6.279 6.002-8.996.635-.704-.274-1.952-1.051-1.194zM69.385 269.899c-2.435 3.473-5.278 7.697-5.873 11.971-.078.562.606 1.402 1.088.709 1.109-1.596 1.795-3.428 2.607-5.186 1.014-2.195 2.203-4.314 3.463-6.375.478-.783-.664-2.005-1.285-1.119zM67.465 284.786c-1.32 2.736-2.761 5.543-2.951 8.623-.05.811 1.183 1.318 1.479.43.912-2.744 1.749-5.484 2.811-8.18.366-.931-.822-1.943-1.339-.873zM70.177 293.192c-1.856 2.861-3.749 6.074-3.988 9.549-.058.836 1.106 1.252 1.462.426 1.279-2.977 2.265-5.965 3.904-8.787.491-.848-.753-2.152-1.378-1.188zM173.844 39.645c1.381 2.765 6.172-.029 7.54-1.396 2.104-2.102 3.073-6.043.216-8.029-.978-.681-1.729.814-1.291 1.604.5.902 1.082 1.541.871 2.631-.211 1.082-1.158 1.964-1.984 2.604-.828.643-1.809 1.039-2.775 1.424-.83.33-1.836.318-2.529.93a.185.185 0 0 0-.048.232z"/><path d="M176.475 40.336c1.387 5.211 8.833 6.657 13.417 6.607 6.012-.066 13.09-2.724 16.534-7.817 2.556-3.78 1.415-7.99-3.167-9.051-5.266-1.219-12.368 1.11-16.697 4.062-1.145.78-.211 2.912 1.143 2.168 3.613-1.984 7.488-3.285 11.598-3.724 1.861-.199 4.867-.28 6.098 1.507 1.36 1.976-2.176 5.194-3.408 6.236-3.351 2.832-8.947 3.974-13.207 4.04-2.596.04-5.128-.668-7.439-1.803-1.603-.787-2.769-2.157-4.464-2.727-.292-.096-.47.267-.408.502z"/><path d="M191.017 32.539c-.193-3.375-5.951-1.974-7.812-1.155-.883.389-.822 2.087.287 2.055 1.709-.05 4.846-1.55 6.316-.273.528.457 1.25.088 1.209-.627zM203.111 32.625c-2.803.05-5.274.585-6.084 3.599-.725 2.695.852 6.121 3.264 7.418 1.347.726 2.152-1.434 1.02-2.17-1.545-1.007-2.525-2.761-2.216-4.635.296-1.797 2.864-2.027 4.271-2.388.884-.226.662-1.841-.255-1.824z"/><path d="M192.4 46.638c1.142 4.596 6.988 4.847 10.847 4.488 5.312-.493 11.34-2.329 15.265-6.055 2.785-2.644 5.469-9.396 1.547-12.317-4.34-3.23-10.787.078-13.396 4.067-.77 1.178.713 3.179 1.609 1.801 1.721-2.646 9.531-7.76 11.348-2.39 1.682 4.979-4.635 8.824-8.275 10.248-6.421 2.512-12.471 3.22-18.594-.176-.224-.122-.404.122-.351.334z"/><path d="M216.943 32.981c-1.18.511-2.015 1.533-3.338 1.762-.488.084-.802.371-.916.864-.452 1.957.064 3.705 1.307 5.252.948 1.179 3.301 2.902 4.846 2.161.539-.26.648-.941.277-1.398-.728-.897-1.988-1.132-2.932-1.778-1.25-.856-1.887-2.183-1.609-3.672l-.658.817c1.548-.398 3.047-1.455 3.785-2.891.234-.456-.135-1.389-.762-1.117z"/><path d="M200.614 50.357c3.839 7.617 15.524 5.234 20.542.222 2.512-2.509 5.077-5.632 5.719-9.225.6-3.348-2.254-5.158-5.271-5.005-1.17.06-1.393 2.182-.214 2.377 1.212.201 3.235.173 3.351 1.813.08 1.155-.73 2.433-1.27 3.397-1.242 2.225-3.125 4.262-5.074 5.88-4.654 3.861-12.842 3.889-17.49.18-.218-.172-.378.192-.293.361z"/><path d="M224.226 46.709c2.528.947 5.383.226 7.836-.623 1.972-.681 4.991-1.898 5.6-4.108.168-.608-.402-1.561-1.121-1.255-1.788.759-3.227 2.184-5.115 2.917-2.022.786-4.588 1.459-6.719.763-1.33-.435-1.675 1.859-.481 2.306z"/><path d="M236.181 42.963c1.066.387 2.118.75 3.219 1.036.996.259 1.971.624 2.989.372.809-.199.765-1.492.162-1.879-.897-.574-2.071-.59-3.112-.732a10.288 10.288 0 0 0-3.153.037c-.581.095-.665.962-.105 1.166z"/></svg>