<svg version="1.1" xmlns="http://www.w3.org/2000/svg" x="0" y="0" width="325.984" height="327.113" viewBox="0 0 325.984 327.113" xml:space="preserve"><path d="M301.083 117.209c-2.912-19.86-12.994-39.533-24.295-55.898-9.562-13.846-22.404-25.1-36.88-33.58C210.174 10.31 174.142 5.09 140.171 7.557c-30.92 2.245-61.693 13.411-82.032 37.682-15.007 17.907-22.546 41.217-23.819 64.312-.659 11.961.096 24.166 2.952 35.821 1.035 4.223 2.453 8.459 4.381 12.415a.683.683 0 0 0 .025.336c.027.071.059.14.087.21a593.8 593.8 0 0 1-.978 1.402c-.335.48-.328 1.04.037 1.502a165.487 165.487 0 0 0 5.186 6.246c1.072 2.137 2.155 4.267 3.168 6.418 2.66 5.65 5.152 11.377 7.542 17.148 4.911 11.857 9.301 23.926 13.652 35.996 7.965 22.096 15.835 44.307 26.382 65.33-.377.42-.491 1.123.018 1.586 19.235 17.562 47.254 24.953 72.72 26.053 25.021 1.082 54.042-5.16 68.835-27.283.332-.496.277-1.105.035-1.58 6.48-20.836 17.306-40.076 24.986-60.469 7.371-19.57 23.211-47.752 30.991-67.802 2.501-5.052 4.241-10.551 5.602-15.861 2.495-9.741 2.593-19.905 1.142-29.81zm-40.176 113.41c-7.795 20.709-18.871 40.146-25.137 61.428-14.722 20.779-42.297 26.223-66.342 25.379-23.93-.838-50.803-7.848-69.509-23.619a1.339 1.339 0 0 0-.146-.686c-11.401-22.244-19.653-45.871-28.185-69.314-4.156-11.422-8.391-22.814-13.053-34.04-2.16-5.201-4.326-10.667-6.766-15.997 12.737 13.197 27.635 24.279 43.934 32.621.014.812.762 1.658 1.658 1.135.09-.053.176-.108.266-.16 11.285 5.588 23.219 9.871 35.556 12.635 18.089 4.051 36.845 4.518 55.181 1.988 15.713-2.166 31.688-6.369 46.146-13.241.605.698 2.057.345 2.157-.972l.004-.084a117.425 117.425 0 0 0 7.086-3.834c8.431-4.962 16.032-11.142 24.284-16.375 6.936-4.399 13.967-8.614 19.604-14.678-8.461 18.835-20.511 41.273-26.738 57.814zm-160.639-24.862c6.112-3.843 11.846-8.24 17.756-12.388 7.421-5.208 15.324-9.289 23.993-11.988 13.231-4.12 28.062-5.444 41.771-3.147 10.974 1.839 21.954 5.018 32.045 9.723 7.176 3.346 17.7 9.09 18.414 17.979-.712.35-1.42.709-2.142 1.043-9.211 4.277-19.317 7.137-29.175 9.502-19.027 4.566-38.882 5.537-58.264 2.889-15.755-2.154-30.589-6.872-44.398-13.613zm196.207-55.512c-2.998 10.184-7.798 19.05-16.124 25.769-6.839 5.518-14.798 9.486-21.874 14.684-7.01 5.149-14.208 10.036-21.909 14.062-1.14-8.088-9.276-13.727-16.005-17.391-10.712-5.833-22.889-9.312-34.83-11.524-13.496-2.501-27.428-1.343-40.706 1.948-8.996 2.229-17.405 6.178-25.136 11.242-7.545 4.941-14.504 10.704-22.173 15.457-16.292-8.324-31.11-19.483-44.272-32.572 1.074.08 1.682-1.894.604-2.672-12.504-9.035-15.787-26.795-17-41.162-1.267-15.013-.051-30.246 4.107-44.734C45.6 67.874 53.52 53.504 64.695 41.879c10.837-11.271 24.678-19.198 39.358-24.315 16.301-5.682 33.672-7.648 50.859-7.763 17.812-.119 35.652 2.201 52.76 7.188 16.752 4.883 32.635 12.709 46.291 23.613 15.128 12.08 25.533 28.052 34.03 45.246 9.979 20.187 14.98 42.334 8.482 64.397z"/></svg>