<svg version="1.1" xmlns="http://www.w3.org/2000/svg" x="0" y="0" viewBox="0 0 453.54 399.93" xml:space="preserve"><g fill="none" stroke="#000" stroke-miterlimit="10"><path d="M203.46 355.25v3h-3"/><path stroke-dasharray="6.0936,6.0936" d="M194.37 358.25H75.54"/><path d="M72.49 358.25h-3v-3"/><path stroke-dasharray="5.9735,5.9735" d="M69.49 349.28V196.95"/><path d="M69.49 193.97v-3h3"/><path stroke-dasharray="6.0936,6.0936" d="M78.59 190.97h118.82"/><path d="M200.46 190.97h3v3"/><path stroke-dasharray="5.9735,5.9735" d="M203.46 199.94v152.32"/></g><path fill="#fff" d="M189.79 201.19h23.45v128.29h-23.45z"/><ellipse cx="84.8" cy="111.87" rx="58.23" ry="38.82" fill="#58595b"/><ellipse cx="231.33" cy="49.03" rx="58.23" ry="38.82" fill="#58595b"/><ellipse cx="377.86" cy="111.87" rx="58.23" ry="38.82" fill="#58595b"/><g fill="#fff"><path d="M42.59 104.33c0-2.34 1.16-3.69 2.86-3.69s2.86 1.35 2.86 3.69-1.16 3.75-2.86 3.75-2.86-1.41-2.86-3.75zm4.26 0c0-1.44-.54-2.29-1.4-2.29s-1.4.85-1.4 2.29.54 2.35 1.4 2.35 1.4-.91 1.4-2.35zM49.57 105.96v-2.21h-.65v-1.21l.73-.06.17-1.45h1.17v1.45h1.15v1.27h-1.15v2.19c0 .62.25.87.62.87.16 0 .33-.05.46-.1l.22 1.17c-.25.09-.6.2-1.06.2-1.19 0-1.66-.85-1.66-2.12zM53.08 100.24h1.42v1.88l-.06.99c.36-.37.83-.75 1.48-.75 1.04 0 1.49.84 1.49 2.2v3.39h-1.42v-3.18c0-.79-.19-1.03-.6-1.03-.36 0-.57.19-.89.53v3.68h-1.42v-7.71zM58.32 105.22c0-1.77 1.11-2.86 2.26-2.86 1.36 0 2.04 1.13 2.04 2.62 0 .29-.03.58-.06.71H59.7c.13.79.6 1.16 1.24 1.16.36 0 .69-.13 1.04-.36l.47.98c-.49.39-1.13.61-1.7.61-1.37 0-2.43-1.05-2.43-2.86zm3.09-.6c0-.6-.23-1.03-.8-1.03-.45 0-.84.34-.93 1.03h1.73zM63.61 102.49h1.16l.1.95h.04c.35-.73.87-1.09 1.36-1.09.27 0 .43.04.57.11l-.24 1.4c-.17-.05-.31-.09-.52-.09-.36 0-.8.27-1.06 1.01v3.16H63.6v-5.45zM69.39 102.49h1.16l.1.54h.04c.38-.38.86-.67 1.36-.67 1.16 0 1.87 1.09 1.87 2.77 0 1.87-.98 2.95-2.02 2.95-.41 0-.8-.21-1.14-.57l.05.86v1.6h-1.42v-7.48zm3.07 2.66c0-.98-.27-1.47-.83-1.47-.29 0-.54.15-.82.49v2.24c.26.26.52.35.76.35.5 0 .89-.48.89-1.61zM74.93 102.49h1.16l.1.95h.04c.35-.73.87-1.09 1.36-1.09.27 0 .43.04.57.11l-.24 1.4c-.17-.05-.31-.09-.52-.09-.36 0-.8.27-1.06 1.01v3.16h-1.42v-5.45zM78.5 105.22c0-1.81 1.12-2.86 2.33-2.86s2.33 1.05 2.33 2.86c0 1.81-1.12 2.86-2.33 2.86s-2.33-1.05-2.33-2.86zm3.21 0c0-.94-.29-1.56-.88-1.56s-.88.61-.88 1.56c0 .95.29 1.55.88 1.55s.88-.6.88-1.55zM83.75 102.55l.72-.06h2.2v1.27h-2.92v-1.21zm.63-.34c0-1.15.47-2.1 1.76-2.1.4 0 .74.1.96.19l-.26 1.19c-.16-.07-.34-.12-.5-.12-.35 0-.55.22-.55.78v5.79h-1.42v-5.73zM87.16 105.22c0-1.77 1.11-2.86 2.26-2.86 1.36 0 2.04 1.13 2.04 2.62 0 .29-.03.58-.06.71h-2.87c.13.79.6 1.16 1.24 1.16.36 0 .69-.13 1.04-.36l.47.98c-.49.39-1.13.61-1.7.61-1.37 0-2.42-1.05-2.42-2.86zm3.09-.6c0-.6-.23-1.03-.8-1.03-.45 0-.84.34-.93 1.03h1.73zM92.02 107.32l.64-1.01c.43.37.84.57 1.24.57.42 0 .61-.18.61-.47 0-.36-.48-.52-.97-.74-.59-.26-1.27-.7-1.27-1.61 0-1.02.73-1.71 1.83-1.71.73 0 1.28.34 1.69.69l-.64.97c-.34-.28-.68-.47-1.01-.47-.37 0-.55.16-.55.44 0 .35.45.48.95.69.61.25 1.29.64 1.29 1.64 0 .99-.68 1.76-1.97 1.76-.63.01-1.36-.3-1.84-.75zM96.3 107.32l.64-1.01c.43.37.84.57 1.24.57.42 0 .61-.18.61-.47 0-.36-.48-.52-.97-.74-.59-.26-1.27-.7-1.27-1.61 0-1.02.73-1.71 1.83-1.71.73 0 1.28.34 1.69.69l-.64.97c-.34-.28-.68-.47-1.01-.47-.37 0-.55.16-.55.44 0 .35.45.48.95.69.61.25 1.29.64 1.29 1.64 0 .99-.68 1.76-1.97 1.76-.63.01-1.35-.3-1.84-.75zM100.9 100.85c0-.5.35-.85.82-.85s.82.35.82.85c0 .49-.35.84-.82.84s-.82-.35-.82-.84zm.11 1.64h1.42v5.46h-1.42v-5.46zM103.4 105.22c0-1.81 1.12-2.86 2.33-2.86s2.33 1.05 2.33 2.86c0 1.81-1.12 2.86-2.33 2.86s-2.33-1.05-2.33-2.86zm3.21 0c0-.94-.29-1.56-.88-1.56s-.88.61-.88 1.56c0 .95.29 1.55.88 1.55s.88-.6.88-1.55zM109.04 102.49h1.16l.1.69h.04c.4-.44.89-.82 1.54-.82 1.04 0 1.49.84 1.49 2.2v3.39h-1.42v-3.18c0-.79-.19-1.03-.6-1.03-.36 0-.57.19-.89.53v3.68h-1.42v-5.46zM114.35 106.43c0-1.15.8-1.77 2.7-2-.03-.48-.24-.79-.76-.79-.4 0-.8.19-1.27.49l-.5-1.06c.61-.42 1.29-.72 2.05-.72 1.23 0 1.9.8 1.9 2.47v3.12h-1.16l-.1-.56h-.04c-.4.4-.86.69-1.39.69-.88.01-1.43-.72-1.43-1.64zm2.69-.07v-.95c-1.01.16-1.34.48-1.34.9 0 .35.21.52.55.52.33 0 .54-.18.79-.47zM119.66 106.25v-6.01h1.42v6.08c0 .35.14.46.26.46.05 0 .09 0 .17-.02l.17 1.19c-.16.08-.39.13-.71.13-.98 0-1.31-.72-1.31-1.83zM122 107.32l.64-1.01c.43.37.84.57 1.24.57.42 0 .61-.18.61-.47 0-.36-.48-.52-.97-.74-.59-.26-1.27-.7-1.27-1.61 0-1.02.73-1.71 1.83-1.71.73 0 1.28.34 1.69.69l-.64.97c-.34-.28-.68-.47-1.01-.47-.37 0-.55.16-.55.44 0 .35.45.48.95.69.61.25 1.29.64 1.29 1.64 0 .99-.68 1.76-1.97 1.76-.63.01-1.35-.3-1.84-.75zM63.03 113.98h1.42v5.81h2.48v1.36h-3.91v-7.17zM67.69 119.63c0-1.15.8-1.77 2.7-2-.03-.48-.24-.79-.76-.79-.4 0-.8.19-1.27.49l-.5-1.06c.61-.42 1.29-.72 2.05-.72 1.23 0 1.9.8 1.9 2.47v3.12h-1.16l-.1-.56h-.04c-.4.4-.86.69-1.39.69-.87.01-1.43-.72-1.43-1.64zm2.7-.07v-.95c-1.01.16-1.34.48-1.34.9 0 .35.21.52.55.52.33 0 .54-.18.79-.47zM72.86 123.17l.25-1.23c.09.03.22.07.32.07.47 0 .71-.29.84-.72l.07-.28-1.85-5.32h1.43l.69 2.35c.14.49.25 1.01.38 1.55h.04c.11-.52.21-1.03.33-1.55l.58-2.35h1.36l-1.66 5.52c-.45 1.37-.97 2.07-2.09 2.07-.3 0-.49-.04-.69-.11zM79.7 118.42c0-1.81 1.17-2.86 2.5-2.86.59 0 1.04.24 1.4.59l-.67 1.04c-.23-.22-.42-.32-.65-.32-.68 0-1.12.61-1.12 1.56 0 .95.46 1.55 1.07 1.55.31 0 .62-.18.86-.4l.56 1.06c-.47.47-1.06.65-1.58.65-1.34-.01-2.37-1.06-2.37-2.87zM84.27 119.63c0-1.15.8-1.77 2.7-2-.03-.48-.24-.79-.76-.79-.4 0-.8.19-1.27.49l-.5-1.06c.61-.42 1.29-.72 2.05-.72 1.23 0 1.9.8 1.9 2.47v3.12h-1.16l-.1-.56h-.04c-.4.4-.86.69-1.39.69-.87.01-1.43-.72-1.43-1.64zm2.7-.07v-.95c-1.01.16-1.34.48-1.34.9 0 .35.21.52.55.52.32 0 .54-.18.79-.47zM89.59 115.69h1.16l.1.95h.04c.35-.73.87-1.09 1.36-1.09.27 0 .43.04.57.11l-.24 1.4c-.17-.05-.31-.09-.52-.09-.36 0-.8.27-1.06 1.01v3.16h-1.42v-5.45zM93.15 118.42c0-1.77 1.11-2.86 2.26-2.86 1.36 0 2.04 1.13 2.04 2.62 0 .29-.03.58-.06.71h-2.87c.13.79.6 1.16 1.24 1.16.36 0 .69-.13 1.04-.36l.47.98c-.49.39-1.13.61-1.7.61-1.36 0-2.42-1.05-2.42-2.86zm3.09-.6c0-.6-.23-1.03-.8-1.03-.45 0-.84.34-.93 1.03h1.73zM98.44 115.69h1.16l.1.95h.04c.35-.73.87-1.09 1.36-1.09.27 0 .43.04.57.11l-.24 1.4c-.17-.05-.31-.09-.52-.09-.36 0-.8.27-1.06 1.01v3.16h-1.42v-5.45zM101.86 120.52l.64-1.01c.43.37.84.57 1.24.57.42 0 .61-.18.61-.47 0-.36-.48-.52-.97-.74-.59-.26-1.27-.7-1.27-1.61 0-1.02.73-1.71 1.83-1.71.73 0 1.28.34 1.69.69l-.64.97c-.34-.28-.68-.47-1.01-.47-.37 0-.55.16-.55.44 0 .35.45.48.95.69.61.25 1.29.64 1.29 1.64 0 .99-.68 1.76-1.97 1.76-.63.01-1.35-.3-1.84-.75zM68.83 133.44l.82-1.11c.45.44 1.03.75 1.55.75.59 0 .88-.27.88-.69 0-.45-.36-.6-.91-.85l-.82-.4c-.65-.3-1.27-.91-1.27-1.95 0-1.19.93-2.14 2.24-2.14.73 0 1.48.33 2.03.94l-.72 1.02c-.41-.36-.81-.56-1.31-.56-.49 0-.8.23-.8.64 0 .44.41.6.96.85l.8.37c.77.35 1.25.94 1.25 1.95 0 1.19-.87 2.22-2.37 2.22-.82 0-1.69-.35-2.33-1.04zM74.21 131.62c0-1.81 1.17-2.86 2.5-2.86.59 0 1.04.24 1.4.59l-.67 1.04c-.23-.22-.42-.32-.65-.32-.68 0-1.12.61-1.12 1.56 0 .95.46 1.55 1.07 1.55.31 0 .62-.18.86-.4l.56 1.06c-.47.47-1.06.65-1.58.65-1.34-.01-2.37-1.06-2.37-2.87zM79 126.64h1.42v1.88l-.06.99c.36-.37.83-.75 1.48-.75 1.04 0 1.49.84 1.49 2.2v3.39H81.9v-3.18c0-.79-.19-1.03-.6-1.03-.36 0-.57.19-.89.53v3.68H79v-7.71zM84.24 131.62c0-1.81 1.12-2.86 2.33-2.86s2.33 1.05 2.33 2.86c0 1.81-1.12 2.86-2.33 2.86s-2.33-1.05-2.33-2.86zm3.22 0c0-.94-.29-1.56-.88-1.56s-.88.61-.88 1.56c0 .95.29 1.55.88 1.55s.88-.6.88-1.55zM89.61 131.62c0-1.81 1.12-2.86 2.33-2.86s2.33 1.05 2.33 2.86c0 1.81-1.12 2.86-2.33 2.86s-2.33-1.05-2.33-2.86zm3.21 0c0-.94-.29-1.56-.88-1.56s-.88.61-.88 1.56c0 .95.29 1.55.88 1.55s.88-.6.88-1.55zM95.25 132.65v-6.01h1.42v6.08c0 .35.14.46.26.46.05 0 .09 0 .17-.02l.17 1.19c-.16.08-.39.13-.71.13-.98 0-1.31-.72-1.31-1.83zM97.59 133.72l.64-1.01c.43.37.84.57 1.24.57.42 0 .61-.18.61-.47 0-.36-.48-.52-.97-.74-.59-.26-1.27-.7-1.27-1.61 0-1.02.73-1.71 1.83-1.71.73 0 1.28.34 1.69.69l-.64.97c-.34-.28-.68-.47-1.01-.47-.37 0-.55.16-.55.44 0 .35.45.48.95.69.61.25 1.29.64 1.29 1.64 0 .99-.68 1.76-1.97 1.76-.63.01-1.35-.3-1.84-.75z"/></g><g fill="#fff"><path d="M220.72 48.47c0-2.38 1.38-3.76 2.97-3.76.81 0 1.47.44 1.89.93l-.75 1.04c-.32-.33-.66-.57-1.11-.57-.86 0-1.54.87-1.54 2.3 0 1.47.6 2.33 1.52 2.33.52 0 .92-.29 1.23-.67l.75 1.02c-.52.69-1.22 1.05-2.03 1.05-1.6.01-2.93-1.25-2.93-3.67zM226.52 44.31h1.42v1.88l-.06.99c.36-.37.83-.75 1.48-.75 1.04 0 1.49.84 1.49 2.2v3.39h-1.42v-3.18c0-.79-.18-1.03-.59-1.03-.36 0-.58.19-.89.53v3.68h-1.42v-7.71zM231.93 44.91c0-.5.35-.85.82-.85.48 0 .82.35.82.85 0 .49-.35.84-.82.84-.47.01-.82-.35-.82-.84zm.11 1.65h1.42v5.46h-1.42v-5.46zM234.71 50.32v-6.01h1.42v6.08c0 .35.14.46.26.46.05 0 .09 0 .17-.02l.17 1.19c-.16.08-.39.13-.71.13-.98 0-1.31-.73-1.31-1.83zM237.23 49.29c0-1.78.98-2.86 1.99-2.86.53 0 .85.22 1.17.57l-.05-.83v-1.86h1.42v7.71h-1.16l-.1-.54h-.04c-.34.39-.81.67-1.28.67-1.18 0-1.95-1.08-1.95-2.86zm3.11 1.04v-2.24c-.25-.26-.53-.34-.79-.34-.46 0-.86.48-.86 1.52 0 1.07.33 1.55.88 1.55.29 0 .53-.13.77-.49z"/></g><g fill="#fff"><path d="M363.04 101.7h3.97v1.36h-2.55v1.66h2.18v1.36h-2.18v2.79h-1.42v-7.17zM367.77 107.36c0-1.15.8-1.77 2.7-2-.03-.48-.24-.79-.76-.79-.4 0-.8.19-1.27.49l-.5-1.06c.61-.42 1.29-.72 2.05-.72 1.22 0 1.9.8 1.9 2.47v3.12h-1.16l-.1-.56h-.04c-.4.4-.86.69-1.39.69-.88 0-1.43-.72-1.43-1.64zm2.7-.08v-.95c-1.01.16-1.34.48-1.34.9 0 .35.21.52.55.52.32 0 .54-.18.79-.47zM373.08 103.41h1.16l.1.7h.04c.39-.45.82-.83 1.45-.83.67 0 1.08.33 1.32.92.42-.5.87-.92 1.5-.92 1.04 0 1.5.84 1.5 2.2v3.39h-1.42v-3.18c0-.79-.19-1.03-.59-1.03-.24 0-.51.17-.82.53v3.68h-1.42v-3.18c0-.79-.19-1.03-.59-1.03-.24 0-.51.17-.82.53v3.68h-1.42v-5.46zM381.26 101.77c0-.5.35-.85.82-.85.48 0 .82.35.82.85 0 .49-.35.84-.82.84-.48 0-.82-.35-.82-.84zm.11 1.64h1.42v5.46h-1.42v-5.46zM384.04 107.17v-6.01h1.42v6.08c0 .35.14.46.26.46.05 0 .09 0 .17-.02l.17 1.19c-.16.08-.39.13-.71.13-.98 0-1.31-.72-1.31-1.83zM386.65 110.9l.25-1.23c.09.03.22.07.32.07.47 0 .71-.29.84-.72l.07-.28-1.85-5.32h1.43l.68 2.35c.14.49.25 1.01.38 1.55h.04c.11-.52.21-1.03.33-1.55l.58-2.35h1.36l-1.66 5.52c-.45 1.37-.97 2.07-2.09 2.07-.29-.01-.48-.05-.68-.11zM393.28 101.06h.93l-1.94 9.57h-.93l1.94-9.57zM356.04 118.53c0-2.38 1.38-3.76 2.97-3.76.81 0 1.47.44 1.89.93l-.75 1.04c-.32-.33-.66-.57-1.11-.57-.86 0-1.54.87-1.54 2.3 0 1.47.6 2.33 1.52 2.33.52 0 .92-.29 1.23-.67l.75 1.02c-.52.69-1.22 1.05-2.03 1.05-1.59 0-2.93-1.26-2.93-3.67zM361.63 120.56c0-1.15.8-1.77 2.7-2-.03-.48-.24-.79-.76-.79-.4 0-.8.19-1.27.49l-.5-1.06c.61-.42 1.29-.72 2.05-.72 1.22 0 1.9.8 1.9 2.47v3.12h-1.16l-.1-.56h-.04c-.4.4-.86.69-1.39.69-.88 0-1.43-.72-1.43-1.64zm2.7-.07v-.95c-1.01.16-1.34.48-1.34.9 0 .35.21.52.55.52.32-.01.53-.19.79-.47zM366.94 116.61h1.16l.1.95h.04c.35-.73.87-1.09 1.36-1.09.27 0 .43.04.57.11l-.24 1.4c-.17-.05-.31-.09-.52-.09-.36 0-.8.27-1.05 1.01v3.16h-1.42v-5.45zM370.51 119.34c0-1.77 1.11-2.86 2.26-2.86 1.37 0 2.04 1.13 2.04 2.62 0 .29-.03.58-.06.71h-2.87c.13.79.6 1.16 1.24 1.16.36 0 .69-.13 1.04-.36l.47.98c-.49.39-1.13.61-1.7.61-1.36 0-2.42-1.05-2.42-2.86zm3.09-.59c0-.6-.23-1.03-.8-1.03-.45 0-.84.34-.93 1.03h1.73zM375.5 123.01c0-.45.24-.82.68-1.1v-.04c-.25-.19-.44-.48-.44-.93 0-.39.23-.78.53-1.02v-.04c-.34-.27-.64-.78-.64-1.42 0-1.31.95-1.97 1.98-1.97.27 0 .53.05.74.13h1.75v1.18h-.77c.09.16.16.43.16.72 0 1.26-.84 1.83-1.89 1.83-.17 0-.37-.03-.58-.11a.49.49 0 0 0-.17.41c0 .27.19.4.72.4h.78c1.17 0 1.83.41 1.83 1.39 0 1.13-1.04 1.96-2.68 1.96-1.11-.01-2-.42-2-1.39zm3.33-.3c0-.34-.26-.42-.73-.42h-.5c-.33 0-.52-.02-.67-.07-.18.17-.26.34-.26.54 0 .41.42.63 1.06.63.64-.01 1.1-.3 1.1-.68zm-.56-4.25c0-.58-.28-.89-.65-.89s-.65.3-.65.89c0 .6.28.91.65.91s.65-.32.65-.91zM380.85 114.97c0-.5.35-.85.82-.85.48 0 .82.35.82.85 0 .49-.35.84-.82.84-.48 0-.82-.35-.82-.84zm.11 1.64h1.42v5.46h-1.42v-5.46zM383.11 116.61h1.43l.62 2.58c.12.54.25 1.11.37 1.68h.04c.12-.57.25-1.13.37-1.68l.62-2.58h1.36l-1.56 5.46h-1.64l-1.61-5.46zM388.4 119.34c0-1.77 1.11-2.86 2.26-2.86 1.36 0 2.04 1.13 2.04 2.62 0 .29-.03.58-.06.71h-2.87c.13.79.6 1.16 1.24 1.16.36 0 .69-.13 1.04-.36l.47.98c-.49.39-1.13.61-1.7.61-1.36 0-2.42-1.05-2.42-2.86zm3.09-.59c0-.6-.23-1.03-.8-1.03-.45 0-.84.34-.93 1.03h1.73zM393.69 116.61h1.16l.1.95h.04c.35-.73.87-1.09 1.36-1.09.27 0 .43.04.57.11l-.24 1.4c-.17-.05-.31-.09-.52-.09-.36 0-.8.27-1.06 1.01v3.16h-1.42v-5.45zM397.11 121.44l.64-1.01c.43.37.83.57 1.24.57.42 0 .61-.18.61-.47 0-.36-.48-.52-.97-.74-.59-.26-1.27-.7-1.27-1.61 0-1.02.72-1.71 1.83-1.71.73 0 1.28.34 1.69.69l-.64.97c-.34-.28-.68-.47-1.01-.47-.37 0-.55.16-.55.44 0 .35.45.48.95.69.61.25 1.29.64 1.29 1.64 0 .99-.68 1.76-1.97 1.76-.63.01-1.36-.3-1.84-.75z"/></g><path fill="#d1d3d4" stroke="#000" stroke-miterlimit="10" d="M172.83 149.24h116.46v64.89H172.83zM172.83 235.03h116.46v64.89H172.83zM172.83 320.82h116.46v64.89H172.83z"/><path d="M205.93 183.61c0-2.33 1.32-3.75 3.13-3.75.94 0 1.56.45 1.96.89l-.47.6c-.35-.38-.78-.68-1.47-.68-1.37 0-2.25 1.12-2.25 2.92 0 1.81.81 2.95 2.26 2.95.49 0 .96-.16 1.23-.42v-1.88h-1.44v-.76h2.23v3.04c-.44.48-1.18.84-2.1.84-1.8-.01-3.08-1.4-3.08-3.75zM212.34 185.83c0-1.17.95-1.75 3.1-2 0-.69-.22-1.35-1.04-1.35-.58 0-1.11.29-1.5.57l-.33-.62c.46-.32 1.17-.7 1.98-.7 1.23 0 1.75.87 1.75 2.2v3.28h-.71l-.07-.64h-.03c-.48.42-1.04.77-1.67.77-.85.01-1.48-.55-1.48-1.51zm3.1.08v-1.49c-1.69.22-2.26.65-2.26 1.34 0 .61.39.86.88.86.48 0 .89-.25 1.38-.71zM218.03 185.56v-2.96h-.75v-.69l.79-.05.1-1.5h.71v1.5h1.37v.74h-1.37v2.97c0 .65.2 1.03.78 1.03.18 0 .41-.07.57-.14l.17.68c-.28.1-.62.2-.94.2-1.07.01-1.43-.71-1.43-1.78zM221.39 179.38h.85v2.14l-.03 1.1c.47-.48.98-.88 1.67-.88 1.06 0 1.54.73 1.54 2.09v3.39h-.85v-3.27c0-1-.28-1.42-.95-1.42-.52 0-.87.28-1.38.82v3.87h-.85v-7.84zM226.66 184.55c0-1.74 1.11-2.81 2.27-2.81 1.29 0 2.01.98 2.01 2.51 0 .19-.01.38-.04.51h-3.4c.06 1.13.71 1.87 1.68 1.87.48 0 .88-.17 1.26-.43l.31.59c-.44.31-.98.55-1.67.55-1.35.01-2.42-1.03-2.42-2.79zm3.52-.44c0-1.07-.46-1.65-1.24-1.65-.71 0-1.34.6-1.45 1.65h2.69zM232.18 181.87h.71l.07.97h.03c.35-.68.87-1.11 1.43-1.11.22 0 .38.03.54.11l-.16.79c-.17-.06-.29-.09-.49-.09-.43 0-.93.33-1.28 1.23v3.43h-.85v-5.33zM237.5 184.55c0-1.73 1.03-2.81 2.18-2.81.59 0 .97.23 1.41.62l-.04-.92v-2.06h.85v7.84h-.71l-.07-.63h-.03c-.39.42-.93.76-1.53.76-1.25 0-2.06-1.02-2.06-2.8zm3.56 1.31v-2.8c-.43-.41-.82-.56-1.23-.56-.81 0-1.45.83-1.45 2.04 0 1.28.5 2.04 1.38 2.04.47.01.87-.23 1.3-.72zM243.3 185.83c0-1.17.95-1.75 3.1-2 0-.69-.22-1.35-1.04-1.35-.58 0-1.11.29-1.5.57l-.33-.62c.46-.32 1.17-.7 1.98-.7 1.23 0 1.75.87 1.75 2.2v3.28h-.71l-.07-.64h-.03c-.48.42-1.04.77-1.67.77-.84.01-1.48-.55-1.48-1.51zm3.1.08v-1.49c-1.69.22-2.26.65-2.26 1.34 0 .61.39.86.88.86s.89-.25 1.38-.71zM248.99 185.56v-2.96h-.75v-.69l.79-.05.1-1.5h.71v1.5h1.37v.74h-1.37v2.97c0 .65.2 1.03.78 1.03.18 0 .41-.07.58-.14l.17.68c-.28.1-.62.2-.94.2-1.07.01-1.44-.71-1.44-1.78zM252.04 185.83c0-1.17.95-1.75 3.1-2 0-.69-.22-1.35-1.04-1.35-.58 0-1.11.29-1.5.57l-.33-.62c.46-.32 1.17-.7 1.98-.7 1.23 0 1.75.87 1.75 2.2v3.28h-.71l-.07-.64h-.03c-.48.42-1.04.77-1.67.77-.85.01-1.48-.55-1.48-1.51zm3.1.08v-1.49c-1.69.22-2.26.65-2.26 1.34 0 .61.39.86.88.86s.89-.25 1.38-.71zM215.16 260.41h1.94c1.53 0 2.56.54 2.56 2.13 0 1.52-1.02 2.23-2.51 2.23h-1.12v2.86h-.87v-7.22zm1.87 3.61c1.19 0 1.76-.46 1.76-1.49 0-1.04-.6-1.38-1.8-1.38h-.97v2.87h1.01zM220.95 262.28h.71l.07.97h.03c.35-.68.87-1.11 1.43-1.11.22 0 .38.03.54.11l-.16.79c-.17-.06-.29-.09-.49-.09-.43 0-.94.33-1.28 1.23v3.43h-.85v-5.33zM224.18 264.96c0-1.78 1.1-2.81 2.34-2.81s2.34 1.03 2.34 2.81c0 1.77-1.1 2.8-2.34 2.8s-2.34-1.03-2.34-2.8zm3.79 0c0-1.23-.59-2.06-1.46-2.06s-1.46.83-1.46 2.06.59 2.05 1.46 2.05 1.46-.83 1.46-2.05zM229.8 264.96c0-1.78 1.14-2.81 2.43-2.81.66 0 1.12.29 1.48.63l-.44.6c-.29-.28-.6-.47-1-.47-.91 0-1.58.83-1.58 2.06s.63 2.05 1.56 2.05c.46 0 .87-.24 1.18-.53l.37.61c-.45.43-1.03.68-1.63.68-1.34-.02-2.37-1.05-2.37-2.82zM234.53 264.96c0-1.74 1.11-2.81 2.27-2.81 1.29 0 2.01.98 2.01 2.51 0 .19-.02.38-.04.51h-3.4c.06 1.13.71 1.87 1.68 1.87.48 0 .88-.17 1.25-.43l.31.59c-.44.31-.98.55-1.67.55-1.34.01-2.41-1.03-2.41-2.79zm3.53-.44c0-1.07-.45-1.65-1.24-1.65-.71 0-1.34.6-1.45 1.65h2.69zM239.5 267.02l.42-.6c.44.37.88.63 1.49.63.66 0 .99-.37.99-.83 0-.55-.59-.79-1.15-1.01-.71-.27-1.5-.64-1.5-1.54 0-.86.65-1.52 1.74-1.52.63 0 1.18.27 1.57.6l-.41.58c-.35-.27-.7-.48-1.15-.48-.63 0-.93.36-.93.77 0 .51.55.7 1.12.93.73.29 1.54.6 1.54 1.62 0 .87-.65 1.59-1.84 1.59-.73 0-1.42-.32-1.89-.74zM243.84 267.02l.42-.6c.44.37.88.63 1.49.63.66 0 .99-.37.99-.83 0-.55-.6-.79-1.15-1.01-.71-.27-1.5-.64-1.5-1.54 0-.86.65-1.52 1.74-1.52.63 0 1.18.27 1.57.6l-.41.58c-.35-.27-.7-.48-1.15-.48-.64 0-.93.36-.93.77 0 .51.55.7 1.12.93.73.29 1.54.6 1.54 1.62 0 .87-.65 1.59-1.84 1.59-.72 0-1.41-.32-1.89-.74zM205.92 271.39c0-.36.26-.58.59-.58.33 0 .59.23.59.58 0 .34-.26.58-.59.58a.559.559 0 0 1-.59-.58zm.16 1.69h.85v5.35h-.85v-5.35zM208.63 273.08h.71l.07.77h.03c.48-.5 1-.9 1.69-.9 1.06 0 1.54.73 1.54 2.09v3.39h-.85v-3.27c0-1-.28-1.42-.95-1.42-.52 0-.87.28-1.38.82v3.87h-.85v-5.35zM213.76 273.13l.72-.05h1.88v.74h-2.61v-.69zm.69-.9c0-1.09.47-1.78 1.48-1.78.31 0 .61.08.84.18l-.18.69c-.19-.09-.39-.14-.57-.14-.48 0-.71.35-.71 1.04v6.19h-.85v-6.18zM216.96 275.76c0-1.78 1.1-2.81 2.34-2.81s2.34 1.03 2.34 2.81c0 1.77-1.1 2.8-2.34 2.8s-2.34-1.03-2.34-2.8zm3.79 0c0-1.23-.59-2.06-1.46-2.06s-1.46.83-1.46 2.06.59 2.05 1.46 2.05c.88-.01 1.46-.83 1.46-2.05zM222.96 273.08h.71l.07.97h.03c.35-.68.87-1.11 1.43-1.11.22 0 .38.03.54.11l-.16.79c-.17-.06-.29-.09-.49-.09-.43 0-.94.33-1.28 1.23v3.43h-.85v-5.33zM226.56 273.08h.71l.07.78h.03c.44-.51.97-.91 1.57-.91.77 0 1.18.39 1.39 1.02.52-.6 1.05-1.02 1.66-1.02 1.04 0 1.53.73 1.53 2.09v3.39h-.85v-3.27c0-1-.3-1.42-.94-1.42-.39 0-.8.27-1.26.82v3.87h-.85v-3.27c0-1-.3-1.42-.94-1.42-.38 0-.8.27-1.26.82v3.87h-.85v-5.35zM234.85 277.04c0-1.17.95-1.75 3.1-2 0-.69-.22-1.35-1.04-1.35-.58 0-1.11.29-1.5.57l-.33-.62c.46-.32 1.17-.7 1.98-.7 1.23 0 1.75.87 1.75 2.2v3.28h-.71l-.07-.64H238c-.48.42-1.04.77-1.67.77-.85.01-1.48-.55-1.48-1.51zm3.1.08v-1.49c-1.69.22-2.26.65-2.26 1.34 0 .61.39.86.88.86s.89-.25 1.38-.71zM240.54 276.77v-2.96h-.75v-.69l.79-.05.1-1.5h.71v1.5h1.37v.74h-1.37v2.97c0 .65.2 1.03.78 1.03.18 0 .41-.07.58-.14l.17.68c-.28.1-.62.2-.94.2-1.07.01-1.44-.71-1.44-1.78zM243.74 271.39c0-.36.26-.58.59-.58s.59.23.59.58c0 .34-.26.58-.59.58s-.59-.23-.59-.58zm.16 1.69h.85v5.35h-.85v-5.35zM246.08 275.76c0-1.78 1.1-2.81 2.34-2.81s2.34 1.03 2.34 2.81c0 1.77-1.1 2.8-2.34 2.8s-2.34-1.03-2.34-2.8zm3.79 0c0-1.23-.59-2.06-1.46-2.06s-1.46.83-1.46 2.06.59 2.05 1.46 2.05c.87-.01 1.46-.83 1.46-2.05zM252.08 273.08h.71l.07.77h.03c.48-.5 1-.9 1.69-.9 1.06 0 1.54.73 1.54 2.09v3.39h-.85v-3.27c0-1-.28-1.42-.95-1.42-.52 0-.87.28-1.38.82v3.87h-.85v-5.35z"/><g><path d="M212.21 348.16c0-2.33 1.29-3.75 3.02-3.75.83 0 1.47.43 1.87.89l-.47.6c-.36-.41-.81-.68-1.38-.68-1.29 0-2.14 1.12-2.14 2.92 0 1.81.82 2.95 2.11 2.95.65 0 1.14-.3 1.58-.81l.47.58c-.54.66-1.2 1.04-2.09 1.04-1.7 0-2.97-1.39-2.97-3.74zM218.08 349.1c0-1.78 1.1-2.81 2.34-2.81s2.34 1.03 2.34 2.81c0 1.77-1.1 2.8-2.34 2.8s-2.34-1.03-2.34-2.8zm3.79 0c0-1.23-.59-2.06-1.46-2.06s-1.46.83-1.46 2.06.59 2.05 1.46 2.05 1.46-.82 1.46-2.05zM224.08 346.42h.71l.07.78h.03c.44-.51.97-.91 1.57-.91.77 0 1.18.39 1.39 1.02.52-.6 1.05-1.02 1.66-1.02 1.04 0 1.53.73 1.53 2.09v3.39h-.85v-3.27c0-1-.3-1.42-.94-1.42-.39 0-.8.27-1.26.82v3.87h-.85v-3.27c0-1-.3-1.42-.94-1.42-.38 0-.8.27-1.26.82v3.87h-.85v-5.35zM232.3 349.1c0-1.74 1.11-2.81 2.27-2.81 1.29 0 2.01.98 2.01 2.51 0 .19-.01.38-.04.51h-3.4c.06 1.13.71 1.87 1.68 1.87.48 0 .88-.17 1.26-.43l.31.59c-.44.31-.98.55-1.67.55-1.35.01-2.42-1.03-2.42-2.79zm3.53-.44c0-1.07-.46-1.65-1.24-1.65-.71 0-1.34.6-1.45 1.65h2.69zM239.83 349.81v-3.39h.85v3.27c0 1 .28 1.42.95 1.42.52 0 .87-.27 1.35-.9v-3.79h.85v5.35h-.71l-.07-.84h-.03c-.47.58-.97.97-1.66.97-1.05 0-1.53-.73-1.53-2.09zM245.54 346.42h.71l.07.62h.03c.46-.4 1.02-.75 1.61-.75 1.3 0 2 1.07 2 2.72 0 1.82-1.03 2.89-2.18 2.89-.46 0-.93-.23-1.4-.62l.02.93v1.81h-.85v-7.6zm3.54 2.6c0-1.18-.38-1.97-1.33-1.97-.43 0-.86.25-1.35.73v2.8c.46.41.89.56 1.23.56.83 0 1.45-.8 1.45-2.12zM207.39 357.22h.87l.75 3.09c.11.51.2.99.3 1.49h.04c.11-.5.22-.99.34-1.49l.78-3.09h.83l.79 3.09c.12.51.23.99.35 1.49h.04c.11-.5.2-.98.31-1.49l.74-3.09h.81l-1.35 5.35h-1.04l-.73-2.87c-.12-.51-.22-1-.34-1.54h-.04c-.11.54-.21 1.05-.35 1.55l-.71 2.86h-1l-1.39-5.35zM215.29 355.54c0-.36.26-.58.59-.58.33 0 .59.23.59.58 0 .34-.26.58-.59.58-.34 0-.59-.24-.59-.58zm.15 1.68h.85v5.35h-.85v-5.35zM218.14 360.91v-2.96h-.75v-.69l.79-.05.1-1.5h.72v1.5h1.37v.74H219v2.97c0 .65.2 1.03.78 1.03.18 0 .41-.07.57-.14l.17.68c-.28.1-.62.2-.94.2-1.07.01-1.44-.71-1.44-1.78zM221.5 354.73h.85v2.14l-.03 1.1c.47-.48.98-.88 1.67-.88 1.06 0 1.54.73 1.54 2.09v3.39h-.85v-3.27c0-1-.28-1.42-.95-1.42-.52 0-.87.28-1.38.82v3.87h-.85v-7.84zM228.91 361.18c0-1.17.95-1.75 3.1-2 0-.69-.22-1.35-1.04-1.35-.58 0-1.11.29-1.5.57l-.33-.62c.46-.32 1.17-.7 1.98-.7 1.23 0 1.75.87 1.75 2.2v3.28h-.71l-.07-.64h-.03c-.48.42-1.04.77-1.67.77-.85.01-1.48-.55-1.48-1.51zm3.1.08v-1.49c-1.69.22-2.26.65-2.26 1.34 0 .61.39.86.88.86s.89-.25 1.38-.71zM236.53 357.22h.71l.07.62h.03c.46-.4 1.02-.75 1.61-.75 1.3 0 2 1.07 2 2.72 0 1.82-1.03 2.89-2.18 2.89-.46 0-.94-.23-1.4-.62l.02.93v1.81h-.85v-7.6zm3.53 2.6c0-1.18-.38-1.97-1.33-1.97-.43 0-.86.25-1.35.73v2.8c.46.41.89.56 1.23.56.83 0 1.45-.8 1.45-2.12zM242.29 361.49v-6.76h.85v6.83c0 .28.11.39.24.39.05 0 .09 0 .19-.02l.12.69c-.12.05-.27.08-.49.08-.65 0-.91-.43-.91-1.21zM244.62 361.18c0-1.17.95-1.75 3.1-2 0-.69-.22-1.35-1.04-1.35-.58 0-1.11.29-1.5.57l-.33-.62c.46-.32 1.17-.7 1.98-.7 1.23 0 1.75.87 1.75 2.2v3.28h-.71l-.07-.64h-.03c-.48.42-1.04.77-1.67.77-.85.01-1.48-.55-1.48-1.51zm3.1.08v-1.49c-1.69.22-2.26.65-2.26 1.34 0 .61.39.86.88.86s.89-.25 1.38-.71zM250.16 357.22h.71l.07.77h.03c.48-.5 1-.9 1.69-.9 1.06 0 1.54.73 1.54 2.09v3.39h-.85v-3.27c0-1-.28-1.42-.95-1.42-.52 0-.87.28-1.38.82v3.87h-.85v-5.35z"/></g><path fill="none" stroke="#000" stroke-miterlimit="10" d="M119.23 148.31l46.45 25.38M342.86 148.31l-46.45 25.38M231.06 94.56v43.55"/><path d="M305.61 175.55l-1.68-2.54-1.67-2.54-1.69-2.54-1.68-2.54-5.19 10.6zM161.13 164.39l-1.24 2.79-1.25 2.77-1.23 2.79-1.24 2.78 11.72-1.31zM237.16 134.71l-3.05.03-3.05.01-3.04.04-3.05.03 6.06 10.12z"/><path fill="none" stroke="#000" stroke-miterlimit="10" d="M231.06 214.13v13.46"/><path d="M237.16 224.2l-3.05.02-3.05.02-3.04.04-3.05.02 6.06 10.12z"/><path fill="none" stroke="#000" stroke-miterlimit="10" d="M231.06 299.92v13.46"/><path d="M237.16 309.99l-3.05.02-3.05.02-3.04.04-3.05.02 6.06 10.12z"/><path d="M149.51 259.79H94.97c-5.37 0-9.72-4.35-9.72-9.72v-19.48c0-5.37 4.35-9.72 9.72-9.72h54.54c5.37 0 9.72 4.35 9.72 9.72v19.48c0 5.37-4.35 9.72-9.72 9.72z" fill="#77787b"/><g><g fill="#fff"><path d="M110.61 226.06h1.04l1.31 3.86c.16.49.32 1 .48 1.5h.04c.16-.5.31-1.01.47-1.5l1.29-3.86h1.04v7.22h-.81v-3.98c0-.63.07-1.5.11-2.14h-.04l-.54 1.65-1.28 3.73h-.57l-1.29-3.73-.54-1.65h-.04c.04.64.11 1.51.11 2.14v3.98h-.78v-7.22zM118.01 231.33v-3.39h.85v3.27c0 1 .28 1.42.95 1.42.52 0 .87-.27 1.35-.9v-3.79h.85v5.35h-.71l-.07-.84h-.03c-.47.58-.97.97-1.66.97-1.05 0-1.53-.73-1.53-2.09zM123.72 232.21v-6.76h.85v6.83c0 .28.11.39.24.39.05 0 .09 0 .19-.02l.12.69c-.12.05-.27.08-.49.08-.65 0-.91-.44-.91-1.21zM126.52 231.63v-2.96h-.75v-.69l.79-.05.1-1.5h.71v1.5h1.37v.74h-1.37v2.97c0 .65.2 1.03.78 1.03.18 0 .41-.07.57-.14l.17.68c-.28.1-.62.2-.94.2-1.07.01-1.43-.71-1.43-1.78zM129.72 226.25c0-.36.26-.58.59-.58.33 0 .59.23.59.58 0 .34-.26.58-.59.58a.565.565 0 0 1-.59-.58zm.15 1.69h.85v5.35h-.85v-5.35zM132.01 230.18h2.38v.69h-2.38v-.69zM97.61 241.42c0-1.73 1.03-2.81 2.18-2.81.59 0 .97.23 1.41.62l-.04-.92v-2.06h.85v7.84h-.71l-.07-.63h-.03c-.39.42-.93.76-1.53.76-1.25 0-2.06-1.02-2.06-2.8zm3.56 1.3v-2.8c-.43-.41-.82-.56-1.23-.56-.81 0-1.45.83-1.45 2.04 0 1.28.5 2.04 1.38 2.04.47.01.87-.23 1.3-.72zM103.57 237.05c0-.36.26-.58.59-.58.33 0 .59.23.59.58 0 .34-.26.58-.59.58a.565.565 0 0 1-.59-.58zm.15 1.69h.85v5.35h-.85v-5.35zM105.72 243.47l.42-.6c.44.37.88.63 1.49.63.66 0 .99-.37.99-.83 0-.55-.6-.79-1.15-1.01-.71-.27-1.5-.64-1.5-1.54 0-.86.65-1.52 1.74-1.52.63 0 1.18.27 1.57.6l-.41.58c-.35-.27-.7-.48-1.15-.48-.64 0-.93.36-.93.77 0 .51.55.7 1.12.93.73.29 1.54.6 1.54 1.62 0 .87-.65 1.59-1.84 1.59-.73.01-1.42-.32-1.89-.74zM110.25 241.42c0-1.78 1.14-2.81 2.43-2.81.66 0 1.12.29 1.48.63l-.44.6c-.29-.28-.6-.47-1-.47-.91 0-1.58.83-1.58 2.06s.63 2.05 1.56 2.05c.46 0 .87-.24 1.18-.53l.37.61c-.45.43-1.03.68-1.63.68-1.35-.02-2.37-1.05-2.37-2.82zM115.2 237.05c0-.36.26-.58.59-.58.33 0 .59.23.59.58 0 .34-.26.58-.59.58a.565.565 0 0 1-.59-.58zm.16 1.69h.85v5.35h-.85v-5.35zM117.91 238.74h.71l.07.62h.03c.46-.4 1.02-.75 1.61-.75 1.3 0 2 1.07 2 2.72 0 1.82-1.03 2.89-2.18 2.89-.46 0-.94-.23-1.4-.62l.02.93v1.81h-.85v-7.6zm3.53 2.6c0-1.18-.38-1.97-1.33-1.97-.43 0-.86.25-1.35.73v2.8c.46.41.89.56 1.23.56.84-.01 1.45-.8 1.45-2.12zM123.67 243.01v-6.76h.85v6.83c0 .28.11.39.24.39.05 0 .09 0 .19-.02l.12.69c-.12.05-.27.08-.49.08-.65 0-.91-.44-.91-1.21zM126.16 237.05c0-.36.26-.58.59-.58.33 0 .59.23.59.58 0 .34-.26.58-.59.58a.565.565 0 0 1-.59-.58zm.15 1.69h.85v5.35h-.85v-5.35zM128.87 238.74h.71l.07.77h.03c.48-.5 1-.9 1.69-.9 1.06 0 1.54.73 1.54 2.09v3.39h-.85v-3.27c0-1-.28-1.42-.95-1.42-.52 0-.87.28-1.38.82v3.87h-.85v-5.35zM134.23 242.7c0-1.17.95-1.75 3.1-2 0-.69-.22-1.35-1.04-1.35-.58 0-1.11.29-1.5.57l-.33-.62c.46-.32 1.17-.7 1.98-.7 1.23 0 1.75.87 1.75 2.2v3.28h-.71l-.07-.64h-.03c-.48.42-1.04.77-1.67.77-.85.01-1.48-.55-1.48-1.51zm3.1.08v-1.49c-1.69.22-2.26.65-2.26 1.34 0 .61.39.86.88.86s.89-.25 1.38-.71zM139.77 238.74h.71l.07.97h.03c.35-.68.87-1.11 1.43-1.11.22 0 .38.03.54.11l-.16.79c-.17-.06-.29-.09-.49-.09-.43 0-.94.33-1.28 1.23v3.43h-.85v-5.33zM142.87 246.28l.17-.72c.1.04.25.08.38.08.57 0 .93-.48 1.14-1.15l.11-.39-2.02-5.36h.88l1.03 2.96c.16.46.33 1.01.49 1.51h.04c.14-.49.29-1.03.42-1.51l.9-2.96h.84l-1.9 5.79c-.36 1.06-.88 1.86-1.89 1.86-.23 0-.43-.05-.59-.11zM102.99 249.54h.71l.07.78h.03c.44-.51.97-.91 1.57-.91.77 0 1.18.39 1.39 1.02.52-.6 1.05-1.02 1.66-1.02 1.04 0 1.53.73 1.53 2.09v3.39h-.85v-3.27c0-1-.3-1.42-.94-1.42-.39 0-.8.27-1.26.82v3.87h-.85v-3.27c0-1-.3-1.42-.94-1.42-.38 0-.8.27-1.26.82v3.87H103v-5.35zM111.21 252.22c0-1.74 1.11-2.81 2.27-2.81 1.29 0 2.01.98 2.01 2.51 0 .19-.02.38-.04.51h-3.4c.06 1.13.71 1.87 1.68 1.87.48 0 .88-.17 1.26-.43l.31.59c-.44.31-.98.55-1.67.55-1.34.01-2.42-1.04-2.42-2.79zm3.53-.44c0-1.07-.45-1.65-1.24-1.65-.71 0-1.34.6-1.45 1.65h2.69zM116.36 252.22c0-1.74 1.11-2.81 2.27-2.81 1.29 0 2.01.98 2.01 2.51 0 .19-.02.38-.04.51h-3.4c.06 1.13.71 1.87 1.68 1.87.48 0 .88-.17 1.26-.43l.31.59c-.44.31-.98.55-1.67.55-1.35.01-2.42-1.04-2.42-2.79zm3.53-.44c0-1.07-.45-1.65-1.24-1.65-.71 0-1.34.6-1.45 1.65h2.69zM122.03 253.23v-2.96h-.75v-.69l.79-.05.1-1.5h.71v1.5h1.37v.74h-1.37v2.97c0 .65.2 1.03.78 1.03.18 0 .41-.07.57-.14l.17.68c-.28.1-.62.2-.94.2-1.06.01-1.43-.71-1.43-1.78zM125.23 247.85c0-.36.26-.58.59-.58.33 0 .59.23.59.58 0 .34-.26.58-.59.58a.565.565 0 0 1-.59-.58zm.16 1.69h.85v5.35h-.85v-5.35zM127.94 249.54h.71l.07.77h.03c.48-.5 1-.9 1.69-.9 1.06 0 1.54.73 1.54 2.09v3.39h-.85v-3.27c0-1-.28-1.42-.95-1.42-.52 0-.87.28-1.38.82v3.87h-.85v-5.35zM133.24 255.91c0-.46.28-.89.74-1.21v-.04c-.26-.17-.45-.46-.45-.88 0-.44.29-.8.56-.99v-.04c-.33-.28-.65-.8-.65-1.44 0-1.17.87-1.9 1.89-1.9a2 2 0 0 1 .71.13h1.76v.7h-1.04c.24.24.41.64.41 1.1 0 1.15-.82 1.85-1.85 1.85-.24 0-.52-.06-.75-.18-.18.16-.32.34-.32.63 0 .34.21.58.88.58h.98c1.17 0 1.76.39 1.76 1.28 0 .99-.99 1.85-2.55 1.85-1.23-.01-2.08-.52-2.08-1.44zm3.8-.28c0-.5-.35-.66-1.02-.66h-.87c-.19 0-.43-.02-.66-.08-.36.27-.51.59-.51.9 0 .57.55.94 1.46.94.97-.01 1.6-.54 1.6-1.1zm-.65-4.32c0-.78-.48-1.25-1.07-1.25s-1.07.46-1.07 1.25c0 .78.49 1.27 1.07 1.27s1.07-.49 1.07-1.27zM138.29 254.27l.42-.6c.44.37.88.63 1.49.63.66 0 .99-.37.99-.83 0-.55-.6-.79-1.15-1.01-.71-.27-1.5-.64-1.5-1.54 0-.86.65-1.52 1.74-1.52.63 0 1.18.27 1.57.6l-.41.58c-.35-.27-.7-.48-1.15-.48-.64 0-.93.36-.93.77 0 .51.55.7 1.12.93.73.29 1.54.6 1.54 1.62 0 .87-.65 1.59-1.84 1.59-.72.01-1.42-.32-1.89-.74z"/></g></g><g><path d="M101.54 301.93c0-2.33 1.29-3.75 3.02-3.75.83 0 1.47.43 1.87.89l-.47.6c-.36-.41-.81-.68-1.38-.68-1.29 0-2.14 1.12-2.14 2.92 0 1.81.82 2.95 2.11 2.95.65 0 1.14-.3 1.58-.81l.47.58c-.54.66-1.2 1.04-2.09 1.04-1.7 0-2.97-1.39-2.97-3.74zM107.4 302.87c0-1.78 1.1-2.81 2.34-2.81s2.34 1.03 2.34 2.81c0 1.77-1.1 2.8-2.34 2.8s-2.34-1.03-2.34-2.8zm3.79 0c0-1.23-.59-2.06-1.46-2.06s-1.46.83-1.46 2.06.59 2.05 1.46 2.05c.88 0 1.46-.83 1.46-2.05zM113.4 300.19h.71l.07.77h.03c.48-.5 1-.9 1.69-.9 1.06 0 1.54.73 1.54 2.09v3.39h-.85v-3.27c0-1-.28-1.42-.95-1.42-.52 0-.87.28-1.38.82v3.87h-.85v-5.35zM119.23 303.88v-2.96h-.75v-.69l.79-.05.1-1.5h.71v1.5h1.37v.74h-1.37v2.97c0 .65.2 1.03.78 1.03.18 0 .41-.07.57-.14l.17.68c-.28.1-.62.2-.94.2-1.07.01-1.43-.71-1.43-1.78zM122.43 298.51c0-.36.26-.58.59-.58.33 0 .59.23.59.58 0 .34-.26.58-.59.58a.57.57 0 0 1-.59-.58zm.15 1.68h.85v5.35h-.85v-5.35zM125.14 300.19h.71l.07.77h.03c.48-.5 1-.9 1.69-.9 1.06 0 1.54.73 1.54 2.09v3.39h-.85v-3.27c0-1-.28-1.42-.95-1.42-.52 0-.87.28-1.38.82v3.87h-.85v-5.35zM130.75 303.58v-3.39h.85v3.27c0 1 .28 1.42.95 1.42.52 0 .87-.27 1.35-.9v-3.79h.85v5.35h-.71l-.07-.84h-.03c-.47.58-.97.97-1.66.97-1.06 0-1.53-.73-1.53-2.09zM136.15 304.15c0-1.17.95-1.75 3.1-2 0-.69-.22-1.35-1.04-1.35-.58 0-1.11.29-1.5.57l-.33-.62c.46-.32 1.17-.7 1.98-.7 1.23 0 1.75.87 1.75 2.2v3.28h-.71l-.07-.64h-.03c-.48.42-1.04.77-1.67.77-.85.01-1.48-.55-1.48-1.51zm3.09.08v-1.49c-1.69.22-2.26.65-2.26 1.34 0 .61.39.86.88.86s.9-.25 1.38-.71zM141.69 304.46v-6.76h.85v6.83c0 .28.11.39.24.39.05 0 .09 0 .19-.02l.12.69c-.12.05-.27.08-.49.08-.65 0-.91-.43-.91-1.21zM87.56 310.99h.71l.07.97h.03c.35-.68.87-1.11 1.43-1.11.22 0 .38.03.54.11l-.16.79c-.17-.06-.29-.09-.49-.09-.43 0-.94.33-1.28 1.23v3.43h-.85v-5.33zM90.78 313.67c0-1.74 1.11-2.81 2.27-2.81 1.29 0 2.01.98 2.01 2.51 0 .19-.02.38-.04.51h-3.4c.06 1.13.71 1.87 1.68 1.87.48 0 .88-.17 1.26-.43l.31.59c-.44.31-.98.55-1.67.55-1.35.01-2.42-1.03-2.42-2.79zm3.53-.44c0-1.07-.45-1.65-1.24-1.65-.71 0-1.34.6-1.45 1.65h2.69zM95.88 313.23h2.38v.69h-2.38v-.69zM99.22 314.95c0-1.17.95-1.75 3.1-2 0-.69-.22-1.35-1.04-1.35-.58 0-1.11.29-1.5.57l-.33-.62c.46-.32 1.17-.7 1.98-.7 1.23 0 1.75.87 1.75 2.2v3.28h-.71l-.07-.64h-.03c-.48.42-1.04.77-1.67.77-.85.01-1.48-.55-1.48-1.51zm3.1.08v-1.49c-1.69.22-2.26.65-2.26 1.34 0 .61.39.86.88.86s.89-.25 1.38-.71zM104.2 315.73l.42-.6c.44.37.88.63 1.49.63.66 0 .99-.37.99-.83 0-.55-.6-.79-1.15-1.01-.71-.27-1.5-.64-1.5-1.54 0-.86.65-1.52 1.74-1.52.63 0 1.18.27 1.57.6l-.41.58c-.35-.27-.7-.48-1.15-.48-.64 0-.93.36-.93.77 0 .51.55.7 1.12.93.73.29 1.54.6 1.54 1.62 0 .87-.65 1.59-1.84 1.59-.72 0-1.41-.32-1.89-.74zM108.55 315.73l.42-.6c.44.37.88.63 1.49.63.66 0 .99-.37.99-.83 0-.55-.6-.79-1.15-1.01-.71-.27-1.5-.64-1.5-1.54 0-.86.65-1.52 1.74-1.52.63 0 1.18.27 1.57.6l-.41.58c-.35-.27-.7-.48-1.15-.48-.64 0-.93.36-.93.77 0 .51.55.7 1.12.93.73.29 1.54.6 1.54 1.62 0 .87-.65 1.59-1.84 1.59-.72 0-1.42-.32-1.89-.74zM113.08 313.67c0-1.74 1.11-2.81 2.27-2.81 1.29 0 2.01.98 2.01 2.51 0 .19-.02.38-.04.51h-3.4c.06 1.13.71 1.87 1.68 1.87.48 0 .88-.17 1.26-.43l.31.59c-.44.31-.98.55-1.67.55-1.35.01-2.42-1.03-2.42-2.79zm3.53-.44c0-1.07-.45-1.65-1.24-1.65-.71 0-1.34.6-1.45 1.65h2.69zM118.04 315.73l.42-.6c.44.37.88.63 1.49.63.66 0 .99-.37.99-.83 0-.55-.6-.79-1.15-1.01-.71-.27-1.5-.64-1.5-1.54 0-.86.65-1.52 1.74-1.52.63 0 1.18.27 1.57.6l-.41.58c-.35-.27-.7-.48-1.15-.48-.64 0-.93.36-.93.77 0 .51.55.7 1.12.93.73.29 1.54.6 1.54 1.62 0 .87-.65 1.59-1.84 1.59-.72 0-1.41-.32-1.89-.74zM122.39 315.73l.42-.6c.44.37.88.63 1.49.63.66 0 .99-.37.99-.83 0-.55-.6-.79-1.15-1.01-.71-.27-1.5-.64-1.5-1.54 0-.86.65-1.52 1.74-1.52.63 0 1.18.27 1.57.6l-.41.58c-.35-.27-.7-.48-1.15-.48-.64 0-.93.36-.93.77 0 .51.55.7 1.12.93.73.29 1.54.6 1.54 1.62 0 .87-.65 1.59-1.84 1.59-.72 0-1.41-.32-1.89-.74zM127.3 310.99h.71l.07.78h.03c.44-.51.97-.91 1.57-.91.77 0 1.18.39 1.39 1.02.52-.6 1.05-1.02 1.66-1.02 1.04 0 1.53.73 1.53 2.09v3.39h-.85v-3.27c0-1-.3-1.42-.94-1.42-.39 0-.8.27-1.26.82v3.87h-.85v-3.27c0-1-.3-1.42-.94-1.42-.38 0-.8.27-1.26.82v3.87h-.85v-5.35zM135.53 313.67c0-1.74 1.11-2.81 2.27-2.81 1.29 0 2.01.98 2.01 2.51 0 .19-.02.38-.04.51h-3.4c.06 1.13.71 1.87 1.68 1.87.48 0 .88-.17 1.26-.43l.31.59c-.44.31-.98.55-1.67.55-1.35.01-2.42-1.03-2.42-2.79zm3.52-.44c0-1.07-.45-1.65-1.24-1.65-.71 0-1.34.6-1.45 1.65h2.69zM141.05 310.99h.71l.07.77h.03c.48-.5 1-.9 1.69-.9 1.06 0 1.54.73 1.54 2.09v3.39h-.85v-3.27c0-1-.28-1.42-.95-1.42-.52 0-.87.28-1.38.82v3.87h-.85v-5.35zM146.88 314.68v-2.96h-.75v-.69l.79-.05.1-1.5h.71v1.5h1.37v.74h-1.37v2.97c0 .65.2 1.03.78 1.03.18 0 .41-.07.57-.14l.17.68c-.28.1-.62.2-.94.2-1.07.01-1.43-.71-1.43-1.78zM151.79 314.47c0-2.14 3.11-2.49 3.11-4.04 0-.42-.18-.8-.64-.8-.51 0-.84.45-.84 1.05 0 1.35 1.4 3.15 2.7 4.17.54.43 1.06.72 1.5.86l-.23.75c-.54-.16-1.16-.49-1.78-1.01-1.49-1.23-2.93-3.24-2.93-4.76 0-.96.63-1.71 1.57-1.71.84 0 1.34.59 1.34 1.43 0 1.85-2.97 2.42-2.97 4 0 .8.59 1.33 1.34 1.33.57 0 1.11-.35 1.56-.85.56-.64.97-1.47 1.22-2.46h.79c-.3 1.08-.76 2.07-1.42 2.89-.57.67-1.3 1.14-2.25 1.14-1.23.01-2.07-.83-2.07-1.99zM88.34 324.47c0-1.78 1.14-2.81 2.43-2.81.66 0 1.12.29 1.48.63l-.44.6c-.29-.28-.6-.47-1-.47-.91 0-1.58.83-1.58 2.06s.63 2.05 1.56 2.05c.46 0 .87-.24 1.18-.53l.37.61c-.45.43-1.03.68-1.63.68-1.35-.02-2.37-1.05-2.37-2.82zM93.07 324.47c0-1.78 1.1-2.81 2.34-2.81s2.34 1.03 2.34 2.81c0 1.77-1.1 2.8-2.34 2.8s-2.34-1.03-2.34-2.8zm3.79 0c0-1.23-.59-2.06-1.46-2.06s-1.46.83-1.46 2.06.59 2.05 1.46 2.05c.88-.01 1.46-.83 1.46-2.05zM99.07 321.79h.71l.07.78h.03c.44-.51.97-.91 1.57-.91.77 0 1.18.39 1.39 1.02.52-.6 1.05-1.02 1.66-1.02 1.04 0 1.53.73 1.53 2.09v3.39h-.85v-3.27c0-1-.3-1.42-.94-1.42-.39 0-.8.27-1.26.82v3.87h-.85v-3.27c0-1-.3-1.42-.94-1.42-.38 0-.8.27-1.26.82v3.87h-.85v-5.35zM107.67 321.79h.71l.07.78h.03c.44-.51.97-.91 1.57-.91.77 0 1.18.39 1.39 1.02.52-.6 1.05-1.02 1.66-1.02 1.04 0 1.53.73 1.53 2.09v3.39h-.85v-3.27c0-1-.3-1.42-.94-1.42-.39 0-.8.27-1.26.82v3.87h-.85v-3.27c0-1-.3-1.42-.94-1.42-.38 0-.8.27-1.26.82v3.87h-.85v-5.35zM116.21 325.18v-3.39h.85v3.27c0 1 .28 1.42.95 1.42.52 0 .87-.27 1.35-.9v-3.79h.85v5.35h-.71l-.07-.84h-.03c-.47.58-.97.97-1.66.97-1.05 0-1.53-.73-1.53-2.09zM121.92 321.79h.71l.07.77h.03c.48-.5 1-.9 1.69-.9 1.06 0 1.54.73 1.54 2.09v3.39h-.85v-3.27c0-1-.28-1.42-.95-1.42-.52 0-.87.28-1.38.82v3.87h-.85v-5.35zM127.44 320.1c0-.36.26-.58.59-.58.33 0 .59.23.59.58 0 .34-.26.58-.59.58a.559.559 0 0 1-.59-.58zm.16 1.69h.85v5.35h-.85v-5.35zM129.77 324.47c0-1.78 1.14-2.81 2.43-2.81.66 0 1.12.29 1.48.63l-.44.6c-.29-.28-.6-.47-1-.47-.91 0-1.58.83-1.58 2.06s.63 2.05 1.56 2.05c.46 0 .87-.24 1.18-.53l.37.61c-.45.43-1.03.68-1.63.68-1.34-.02-2.37-1.05-2.37-2.82zM134.57 325.75c0-1.17.95-1.75 3.1-2 0-.69-.22-1.35-1.04-1.35-.58 0-1.11.29-1.5.57l-.33-.62c.46-.32 1.17-.7 1.98-.7 1.23 0 1.75.87 1.75 2.2v3.28h-.71l-.07-.64h-.03c-.48.42-1.04.77-1.67.77-.85.01-1.48-.55-1.48-1.51zm3.1.08v-1.49c-1.69.22-2.26.65-2.26 1.34 0 .61.39.86.88.86s.89-.25 1.38-.71zM140.26 325.48v-2.96h-.75v-.69l.79-.05.1-1.5h.71v1.5h1.37v.74h-1.37v2.97c0 .65.2 1.03.78 1.03.18 0 .41-.07.57-.14l.17.68c-.28.1-.62.2-.94.2-1.07.01-1.43-.71-1.43-1.78zM143.46 320.1c0-.36.26-.58.59-.58.33 0 .59.23.59.58 0 .34-.26.58-.59.58a.559.559 0 0 1-.59-.58zm.16 1.69h.85v5.35h-.85v-5.35zM145.8 324.47c0-1.78 1.1-2.81 2.34-2.81s2.34 1.03 2.34 2.81c0 1.77-1.1 2.8-2.34 2.8s-2.34-1.03-2.34-2.8zm3.79 0c0-1.23-.59-2.06-1.46-2.06s-1.46.83-1.46 2.06.59 2.05 1.46 2.05c.87-.01 1.46-.83 1.46-2.05zM151.8 321.79h.71l.07.77h.03c.48-.5 1-.9 1.69-.9 1.06 0 1.54.73 1.54 2.09v3.39h-.85v-3.27c0-1-.28-1.42-.95-1.42-.52 0-.87.28-1.38.82v3.87h-.85v-5.35z"/></g></svg>