<svg version="1.1" id="Layer_1" xmlns="http://www.w3.org/2000/svg" x="0" y="0" viewBox="0 0 453.5 476.1" xml:space="preserve"><style type="text/css">.st0,.st1{fill:#fff;stroke:#000;stroke-width:.5;stroke-miterlimit:10}.st1{fill:none}</style><path class="st0" d="M30.6 110.4h37.8v37.8H30.6zM116.3 110.4h37.8v37.8h-37.8z"/><path class="st1" d="M49.3 89.3h86"/><path d="M76.7 20.5h1.9c1.5 0 2.6.5 2.6 2.1 0 1.5-1 2.2-2.5 2.2h-1.1v2.9h-.9v-7.2zm1.9 3.7c1.2 0 1.8-.5 1.8-1.5s-.6-1.4-1.8-1.4h-1v2.9h1zM82.2 26.4c0-1.2.9-1.7 3.1-2 0-.7-.2-1.4-1-1.4-.6 0-1.1.3-1.5.6l-.4-.6c.5-.3 1.2-.7 2-.7 1.2 0 1.8.9 1.8 2.2v3.3h-.7l-.1-.6c-.5.4-1 .8-1.7.8-.9-.1-1.5-.7-1.5-1.6zm3.1.1V25c-1.7.2-2.3.7-2.3 1.3 0 .6.4.9.9.9s.9-.3 1.4-.7zM87.7 22.4h.7l.1 1c.4-.7.9-1.1 1.4-1.1.2 0 .4 0 .5.1l-.2.8c-.2-.1-.3-.1-.5-.1-.4 0-.9.3-1.3 1.2v3.4h-.9v-5.3zM91 25.1c0-1.7 1.1-2.8 2.3-2.8 1.3 0 2 1 2 2.5v.5h-3.4c.1 1.1.7 1.9 1.7 1.9.5 0 .9-.2 1.3-.4l.3.6c-.4.3-1 .6-1.7.6-1.5-.1-2.5-1.1-2.5-2.9zm3.5-.4c0-1.1-.5-1.7-1.2-1.7s-1.3.6-1.4 1.7h2.6zM96.5 22.4h.7l.1.8c.5-.5 1-.9 1.7-.9 1.1 0 1.5.7 1.5 2.1v3.4h-.9v-3.3c0-1-.3-1.4-1-1.4-.5 0-.9.3-1.4.8v3.9h-.9v-5.4zM102.3 26.1v-3h-.8v-.7l.8-.1.1-1.5h.7v1.5h1.4v.7h-1.4v3c0 .7.2 1 .8 1 .2 0 .4-.1.6-.1l.2.7c-.3.1-.6.2-.9.2-1.1.1-1.5-.6-1.5-1.7zM105.1 27.1l.4-.6c.4.4.9.6 1.5.6.7 0 1-.4 1-.8 0-.6-.6-.8-1.2-1-.7-.3-1.5-.6-1.5-1.5s.6-1.5 1.7-1.5c.6 0 1.2.3 1.6.6l-.4.6c-.3-.3-.7-.5-1.2-.5-.6 0-.9.4-.9.8 0 .5.5.7 1.1.9.7.3 1.5.6 1.5 1.6 0 .9-.6 1.6-1.8 1.6-.6 0-1.3-.3-1.8-.8zM309.1 27.7H307v-.8h5v.8h-2.1v6.4h-.9v-6.4zM312.5 28.8h.9l.7 3.1.3 1.5.3-1.5.8-3.1h.8l.8 3.1c.1.5.2 1 .4 1.5l.3-1.5.7-3.1h.8l-1.4 5.3h-1l-.7-2.9-.3-1.5c-.1.5-.2 1-.3 1.6l-.7 2.9h-1l-1.4-5.4zM320.4 27.1c0-.4.3-.6.6-.6s.6.2.6.6c0 .3-.3.6-.6.6s-.6-.3-.6-.6zm.2 1.7h.9v5.3h-.9v-5.3zM323.1 28.8h.7l.1.8c.5-.5 1-.9 1.7-.9 1.1 0 1.5.7 1.5 2.1v3.4h-.9v-3.3c0-1-.3-1.4-1-1.4-.5 0-.9.3-1.4.8v3.9h-.9v-5.4zM328.3 33.5l.4-.6c.4.4.9.6 1.5.6.7 0 1-.4 1-.8 0-.6-.6-.8-1.2-1-.7-.3-1.5-.6-1.5-1.5s.6-1.5 1.7-1.5c.6 0 1.2.3 1.6.6l-.4.6c-.3-.3-.7-.5-1.2-.5-.6 0-.9.4-.9.8 0 .5.5.7 1.1.9.7.3 1.5.6 1.5 1.6 0 .9-.7 1.6-1.8 1.6-.7-.1-1.4-.4-1.8-.8zM251.5 159.1h.9v7.2h-.9v-7.2zM253.8 163.7c0-1.7 1-2.8 2.2-2.8.6 0 1 .2 1.4.6v-3h.9v7.8h-.7l-.1-.6c-.4.4-.9.8-1.5.8-1.4 0-2.2-1.1-2.2-2.8zm3.5 1.3v-2.8c-.4-.4-.8-.6-1.2-.6-.8 0-1.4.8-1.4 2 0 1.3.5 2 1.4 2 .4.1.8-.1 1.2-.6zM259.5 163.7c0-1.7 1.1-2.8 2.3-2.8 1.3 0 2 1 2 2.5v.5h-3.4c.1 1.1.7 1.9 1.7 1.9.5 0 .9-.2 1.3-.4l.3.6c-.4.3-1 .6-1.7.6-1.4-.1-2.5-1.2-2.5-2.9zm3.5-.5c0-1.1-.5-1.7-1.2-1.7s-1.3.6-1.4 1.7h2.6zM265 161h.7l.1.8c.5-.5 1-.9 1.7-.9 1.1 0 1.5.7 1.5 2.1v3.4h-.9v-3.3c0-1-.3-1.4-1-1.4-.5 0-.9.3-1.4.8v3.9h-.7V161zM270.9 164.7v-3h-.8v-.7l.8-.1.1-1.5h.7v1.5h1.4v.7h-1.4v3c0 .7.2 1 .8 1 .2 0 .4-.1.6-.1l.2.7c-.3.1-.6.2-.9.2-1.2.1-1.5-.7-1.5-1.7zM274.1 159.3c0-.4.3-.6.6-.6s.6.2.6.6c0 .3-.3.6-.6.6-.4 0-.6-.3-.6-.6zm.1 1.7h.9v5.3h-.9V161zM276.4 163.7c0-1.8 1.1-2.8 2.4-2.8.7 0 1.1.3 1.5.6l-.4.6c-.3-.3-.6-.5-1-.5-.9 0-1.6.8-1.6 2.1s.6 2 1.6 2c.5 0 .9-.2 1.2-.5l.4.6c-.5.4-1 .7-1.6.7-1.5 0-2.5-1.1-2.5-2.8zM281.2 164.9c0-1.2.9-1.7 3.1-2 0-.7-.2-1.4-1-1.4-.6 0-1.1.3-1.5.6l-.3-.6c.5-.3 1.2-.7 2-.7 1.2 0 1.8.9 1.8 2.2v3.3h-.7l-.1-.6c-.5.4-1 .8-1.7.8-1 0-1.6-.6-1.6-1.6zm3.1.1v-1.5c-1.7.2-2.3.7-2.3 1.3 0 .6.4.9.9.9s.9-.2 1.4-.7zM286.7 165.3v-6.8h.9v6.8c0 .3.1.4.2.4h.2l.1.7c-.1 0-.3.1-.5.1-.6 0-.9-.5-.9-1.2zM195.7 255.3h3.9v.8h-3.1v2.4h2.6v.8h-2.6v3.2h-.9v-7.2zM200.6 255.5c0-.4.3-.6.6-.6s.6.2.6.6c0 .3-.3.6-.6.6s-.6-.3-.6-.6zm.2 1.7h.9v5.3h-.9v-5.3zM203.3 257.2h.7l.1 1c.4-.7.9-1.1 1.4-1.1.2 0 .4 0 .5.1l-.2.8c-.2-.1-.3-.1-.5-.1-.4 0-.9.3-1.3 1.2v3.4h-.9v-5.3zM206.4 261.9l.4-.6c.4.4.9.6 1.5.6.7 0 1-.4 1-.8 0-.6-.6-.8-1.2-1-.7-.3-1.5-.6-1.5-1.5s.6-1.5 1.7-1.5c.6 0 1.2.3 1.6.6l-.4.6c-.3-.3-.7-.5-1.2-.5-.6 0-.9.4-.9.8 0 .5.5.7 1.1.9.7.3 1.5.6 1.5 1.6 0 .9-.6 1.6-1.8 1.6-.7-.1-1.3-.4-1.8-.8zM211.4 260.9v-3h-.8v-.7l.8-.1.1-1.5h.7v1.5h1.4v.7h-1.4v3c0 .7.2 1 .8 1 .2 0 .4-.1.6-.1l.2.7c-.3.1-.6.2-.9.2-1.1 0-1.5-.7-1.5-1.7zM216.6 258.9c0-2.3 1.3-3.7 3.1-3.7.9 0 1.6.5 2 .9l-.5.6c-.3-.4-.8-.7-1.5-.7-1.4 0-2.3 1.1-2.3 2.9 0 1.8.8 3 2.3 3 .5 0 1-.2 1.2-.4v-1.9h-1.4v-.8h2.2v3c-.4.5-1.2.8-2.1.8-1.8 0-3-1.3-3-3.7zM222.9 259.8c0-1.7 1.1-2.8 2.3-2.8 1.3 0 2 1 2 2.5v.5h-3.4c.1 1.1.7 1.9 1.7 1.9.5 0 .9-.2 1.3-.4l.3.6c-.4.3-1 .6-1.7.6-1.4-.1-2.5-1.1-2.5-2.9zm3.5-.4c0-1.1-.5-1.7-1.2-1.7s-1.3.6-1.4 1.7h2.6zM228.4 257.2h.7l.1.8c.5-.5 1-.9 1.7-.9 1.1 0 1.5.7 1.5 2.1v3.4h-.9v-3.3c0-1-.3-1.4-1-1.4-.5 0-.9.3-1.4.8v3.9h-.9v-5.4zM233.7 259.8c0-1.7 1.1-2.8 2.3-2.8 1.3 0 2 1 2 2.5v.5h-3.4c.1 1.1.7 1.9 1.7 1.9.5 0 .9-.2 1.3-.4l.3.6c-.4.3-1 .6-1.7.6-1.4-.1-2.5-1.1-2.5-2.9zm3.5-.4c0-1.1-.5-1.7-1.2-1.7s-1.3.6-1.4 1.7h2.6zM239.2 257.2h.7l.1 1c.4-.7.9-1.1 1.4-1.1.2 0 .4 0 .5.1l-.2.8c-.2-.1-.3-.1-.5-.1-.4 0-.9.3-1.3 1.2v3.4h-.9v-5.3zM242.5 261.1c0-1.2.9-1.7 3.1-2 0-.7-.2-1.4-1-1.4-.6 0-1.1.3-1.5.6l-.3-.6c.5-.3 1.2-.7 2-.7 1.2 0 1.8.9 1.8 2.2v3.3h-.7l-.1-.6c-.5.4-1 .8-1.7.8-.9-.1-1.6-.6-1.6-1.6zm3.1.1v-1.5c-1.7.2-2.3.7-2.3 1.3 0 .6.4.9.9.9s.9-.2 1.4-.7zM248.2 260.9v-3h-.8v-.7l.8-.1.1-1.5h.7v1.5h1.4v.7H249v3c0 .7.2 1 .8 1 .2 0 .4-.1.6-.1l.2.7c-.3.1-.6.2-.9.2-1.1 0-1.5-.7-1.5-1.7zM251.4 255.5c0-.4.3-.6.6-.6s.6.2.6.6c0 .3-.3.6-.6.6s-.6-.3-.6-.6zm.2 1.7h.9v5.3h-.9v-5.3zM253.8 259.8c0-1.8 1.1-2.8 2.3-2.8s2.3 1 2.3 2.8c0 1.8-1.1 2.8-2.3 2.8s-2.3-1-2.3-2.8zm3.8 0c0-1.2-.6-2.1-1.5-2.1s-1.5.8-1.5 2.1.6 2 1.5 2c.9.1 1.5-.7 1.5-2zM259.8 257.2h.7l.1.8c.5-.5 1-.9 1.7-.9 1.1 0 1.5.7 1.5 2.1v3.4h-.9v-3.3c0-1-.3-1.4-1-1.4-.5 0-.9.3-1.4.8v3.9h-.9v-5.4zM188.6 334l.5-.6c.5.5 1.2.9 1.9.9.9 0 1.4-.5 1.4-1.2s-.5-1-1.1-1.3l-1-.5c-.6-.3-1.4-.8-1.4-1.9 0-1.1.9-1.9 2.1-1.9.8 0 1.5.4 2 .9l-.5.6c-.4-.4-.9-.7-1.5-.7-.8 0-1.3.4-1.3 1.1 0 .7.6 1 1.1 1.2l1 .4c.8.4 1.4.9 1.4 1.9 0 1.1-.9 2.1-2.3 2.1-.9 0-1.7-.4-2.3-1zM194.2 332.2c0-1.7 1.1-2.8 2.3-2.8 1.3 0 2 1 2 2.5v.5H195c.1 1.1.7 1.9 1.7 1.9.5 0 .9-.2 1.3-.4l.3.6c-.4.3-1 .6-1.7.6-1.4-.1-2.4-1.1-2.4-2.9zm3.5-.4c0-1.1-.5-1.7-1.2-1.7s-1.3.6-1.4 1.7h2.6zM199.3 332.2c0-1.8 1.1-2.8 2.4-2.8.7 0 1.1.3 1.5.6l-.4.6c-.3-.3-.6-.5-1-.5-.9 0-1.6.8-1.6 2.1s.6 2 1.6 2c.5 0 .9-.2 1.2-.5l.4.6c-.5.4-1 .7-1.6.7-1.5 0-2.5-1-2.5-2.8zM204 332.2c0-1.8 1.1-2.8 2.3-2.8s2.3 1 2.3 2.8c0 1.8-1.1 2.8-2.3 2.8s-2.3-1-2.3-2.8zm3.8 0c0-1.2-.6-2.1-1.5-2.1s-1.5.8-1.5 2.1.6 2 1.5 2c.9.1 1.5-.7 1.5-2zM210 329.6h.7l.1.8c.5-.5 1-.9 1.7-.9 1.1 0 1.5.7 1.5 2.1v3.4h-.9v-3.3c0-1-.3-1.4-1-1.4-.5 0-.9.3-1.4.8v3.9h-.7v-5.4zM215.3 332.2c0-1.7 1-2.8 2.2-2.8.6 0 1 .2 1.4.6v-3h.9v7.8h-.7l-.1-.6c-.4.4-.9.8-1.5.8-1.3 0-2.2-1-2.2-2.8zm3.6 1.3v-2.8c-.4-.4-.8-.6-1.2-.6-.8 0-1.4.8-1.4 2 0 1.3.5 2 1.4 2 .4.2.8-.1 1.2-.6zM223.2 331.3c0-2.3 1.3-3.7 3.1-3.7.9 0 1.6.5 2 .9l-.5.6c-.3-.4-.8-.7-1.5-.7-1.4 0-2.3 1.1-2.3 2.9 0 1.8.8 3 2.3 3 .5 0 1-.2 1.2-.4V332h-1.4v-.8h2.2v3c-.4.5-1.2.8-2.1.8-1.7 0-3-1.4-3-3.7zM229.6 332.2c0-1.7 1.1-2.8 2.3-2.8 1.3 0 2 1 2 2.5v.5h-3.4c.1 1.1.7 1.9 1.7 1.9.5 0 .9-.2 1.3-.4l.3.6c-.4.3-1 .6-1.7.6-1.5-.1-2.5-1.1-2.5-2.9zm3.5-.4c0-1.1-.5-1.7-1.2-1.7s-1.3.6-1.4 1.7h2.6zM235.1 329.6h.7l.1.8c.5-.5 1-.9 1.7-.9 1.1 0 1.5.7 1.5 2.1v3.4h-.9v-3.3c0-1-.3-1.4-1-1.4-.5 0-.9.3-1.4.8v3.9h-.9v-5.4zM240.4 332.2c0-1.7 1.1-2.8 2.3-2.8 1.3 0 2 1 2 2.5v.5h-3.4c.1 1.1.7 1.9 1.7 1.9.5 0 .9-.2 1.3-.4l.3.6c-.4.3-1 .6-1.7.6-1.4-.1-2.5-1.1-2.5-2.9zm3.5-.4c0-1.1-.5-1.7-1.2-1.7s-1.3.6-1.4 1.7h2.6zM245.9 329.6h.7l.1 1c.4-.7.9-1.1 1.4-1.1.2 0 .4 0 .5.1l-.2.8c-.2-.1-.3-.1-.5-.1-.4 0-.9.3-1.3 1.2v3.4h-.9v-5.3zM249.2 333.5c0-1.2.9-1.7 3.1-2 0-.7-.2-1.4-1-1.4-.6 0-1.1.3-1.5.6l-.3-.6c.5-.3 1.2-.7 2-.7 1.2 0 1.8.9 1.8 2.2v3.3h-.7l-.1-.6c-.5.4-1 .8-1.7.8-1-.1-1.6-.6-1.6-1.6zm3.1.1v-1.5c-1.7.2-2.3.7-2.3 1.3 0 .6.4.9.9.9s.9-.2 1.4-.7zM254.9 333.3v-3h-.8v-.7l.8-.1.1-1.5h.7v1.5h1.4v.7h-1.4v3c0 .7.2 1 .8 1 .2 0 .4-.1.6-.1l.2.7c-.3.1-.6.2-.9.2-1.1 0-1.5-.7-1.5-1.7zM258.1 327.9c0-.4.3-.6.6-.6s.6.2.6.6c0 .3-.3.6-.6.6s-.6-.3-.6-.6zm.2 1.7h.9v5.3h-.9v-5.3zM260.4 332.2c0-1.8 1.1-2.8 2.3-2.8s2.3 1 2.3 2.8c0 1.8-1.1 2.8-2.3 2.8s-2.3-1-2.3-2.8zm3.8 0c0-1.2-.6-2.1-1.5-2.1s-1.5.8-1.5 2.1.6 2 1.5 2c.9.1 1.5-.7 1.5-2zM266.4 329.6h.7l.1.8c.5-.5 1-.9 1.7-.9 1.1 0 1.5.7 1.5 2.1v3.4h-.9v-3.3c0-1-.3-1.4-1-1.4-.5 0-.9.3-1.4.8v3.9h-.9v-5.4zM344 426.5h-2.1v-.8h5v.8h-2.1v6.4h-.8v-6.4zM348 425.1h.9v3.2c.5-.5 1-.9 1.7-.9 1.1 0 1.5.7 1.5 2.1v3.4h-.9v-3.3c0-1-.3-1.4-1-1.4-.5 0-.9.3-1.4.8v3.9h-.8v-7.8zM353.5 425.9c0-.4.3-.6.6-.6s.6.2.6.6c0 .3-.3.6-.6.6s-.6-.3-.6-.6zm.2 1.7h.9v5.3h-.9v-5.3zM356.2 427.6h.7l.1 1c.4-.7.9-1.1 1.4-1.1.2 0 .4 0 .5.1l-.2.8c-.2-.1-.3-.1-.5-.1-.4 0-.9.3-1.3 1.2v3.4h-.9v-5.3zM359.5 430.3c0-1.7 1-2.8 2.2-2.8.6 0 1 .2 1.4.6v-3h.9v7.8h-.7l-.1-.6c-.4.4-.9.8-1.5.8-1.4 0-2.2-1.1-2.2-2.8zm3.5 1.3v-2.8c-.4-.4-.8-.6-1.2-.6-.8 0-1.4.8-1.4 2 0 1.3.5 2 1.4 2 .4.1.8-.1 1.2-.6zM367.4 429.3c0-2.3 1.3-3.7 3.1-3.7.9 0 1.6.5 2 .9l-.5.6c-.3-.4-.8-.7-1.5-.7-1.4 0-2.3 1.1-2.3 2.9 0 1.8.8 3 2.3 3 .5 0 1-.2 1.2-.4V430h-1.4v-.8h2.2v3c-.4.5-1.2.8-2.1.8-1.8.1-3-1.3-3-3.7zM373.7 430.3c0-1.7 1.1-2.8 2.3-2.8 1.3 0 2 1 2 2.5v.5h-3.4c.1 1.1.7 1.9 1.7 1.9.5 0 .9-.2 1.3-.4l.3.6c-.4.3-1 .6-1.7.6-1.4-.1-2.5-1.2-2.5-2.9zm3.5-.5c0-1.1-.5-1.7-1.2-1.7s-1.3.6-1.4 1.7h2.6zM379.2 427.6h.7l.1.8c.5-.5 1-.9 1.7-.9 1.1 0 1.5.7 1.5 2.1v3.4h-.9v-3.3c0-1-.3-1.4-1-1.4-.5 0-.9.3-1.4.8v3.9h-.9v-5.4zM384.5 430.3c0-1.7 1.1-2.8 2.3-2.8 1.3 0 2 1 2 2.5v.5h-3.4c.1 1.1.7 1.9 1.7 1.9.5 0 .9-.2 1.3-.4l.3.6c-.4.3-1 .6-1.7.6-1.4-.1-2.5-1.2-2.5-2.9zm3.6-.5c0-1.1-.5-1.7-1.2-1.7s-1.3.6-1.4 1.7h2.6zM390 427.6h.7l.1 1c.4-.7.9-1.1 1.4-1.1.2 0 .4 0 .5.1l-.2.8c-.2-.1-.3-.1-.5-.1-.4 0-.9.3-1.3 1.2v3.4h-.7v-5.3zM393.3 431.5c0-1.2.9-1.7 3.1-2 0-.7-.2-1.4-1-1.4-.6 0-1.1.3-1.5.6l-.3-.6c.5-.3 1.2-.7 2-.7 1.2 0 1.8.9 1.8 2.2v3.3h-.7l-.1-.6c-.5.4-1 .8-1.7.8-.9 0-1.6-.6-1.6-1.6zm3.1.1v-1.5c-1.7.2-2.3.7-2.3 1.3 0 .6.4.9.9.9s.9-.2 1.4-.7zM399 431.3v-3h-.8v-.7l.8-.1.1-1.5h.7v1.5h1.4v.7h-1.4v3c0 .7.2 1 .8 1 .2 0 .4-.1.6-.1l.2.7c-.3.1-.6.2-.9.2-1.1.1-1.5-.7-1.5-1.7zM402.2 425.9c0-.4.3-.6.6-.6s.6.2.6.6c0 .3-.3.6-.6.6s-.6-.3-.6-.6zm.2 1.7h.9v5.3h-.9v-5.3zM404.6 430.3c0-1.8 1.1-2.8 2.3-2.8s2.3 1 2.3 2.8c0 1.8-1.1 2.8-2.3 2.8s-2.3-1.1-2.3-2.8zm3.8 0c0-1.2-.6-2.1-1.5-2.1s-1.5.8-1.5 2.1.6 2 1.5 2 1.5-.8 1.5-2zM410.6 427.6h.7l.1.8c.5-.5 1-.9 1.7-.9 1.1 0 1.5.7 1.5 2.1v3.4h-.9v-3.3c0-1-.3-1.4-1-1.4-.5 0-.9.3-1.4.8v3.9h-.9v-5.4z"/><g><path d="M353.5 159.1h3.9v.8h-3.1v2.4h2.6v.8h-2.6v3.2h-.9v-7.2zM358.6 161h.7l.1 1c.4-.7.9-1.1 1.4-1.1.2 0 .4 0 .5.1l-.2.8c-.2-.1-.3-.1-.5-.1-.4 0-.9.3-1.3 1.2v3.4h-.9V161zM361.8 164.9c0-1.2.9-1.7 3.1-2 0-.7-.2-1.4-1-1.4-.6 0-1.1.3-1.5.6l-.3-.6c.5-.3 1.2-.7 2-.7 1.2 0 1.8.9 1.8 2.2v3.3h-.7l-.1-.6c-.5.4-1 .8-1.7.8-.9 0-1.6-.6-1.6-1.6zm3.1.1v-1.5c-1.7.2-2.3.7-2.3 1.3 0 .6.4.9.9.9s1-.2 1.4-.7zM367.5 164.7v-3h-.8v-.7l.8-.1.1-1.5h.7v1.5h1.4v.7h-1.4v3c0 .7.2 1 .8 1 .2 0 .4-.1.6-.1l.2.7c-.3.1-.6.2-.9.2-1.1.1-1.5-.7-1.5-1.7zM370.5 163.7c0-1.7 1.1-2.8 2.3-2.8 1.3 0 2 1 2 2.5v.5h-3.4c.1 1.1.7 1.9 1.7 1.9.5 0 .9-.2 1.3-.4l.3.6c-.4.3-1 .6-1.7.6-1.4-.1-2.5-1.2-2.5-2.9zm3.5-.5c0-1.1-.5-1.7-1.2-1.7s-1.3.6-1.4 1.7h2.6zM376 161h.7l.1 1c.4-.7.9-1.1 1.4-1.1.2 0 .4 0 .5.1l-.2.8c-.2-.1-.3-.1-.5-.1-.4 0-.9.3-1.3 1.2v3.4h-.7V161zM379.6 161h.7l.1.8c.5-.5 1-.9 1.7-.9 1.1 0 1.5.7 1.5 2.1v3.4h-.9v-3.3c0-1-.3-1.4-1-1.4-.5 0-.9.3-1.4.8v3.9h-.9V161zM385 164.9c0-1.2.9-1.7 3.1-2 0-.7-.2-1.4-1-1.4-.6 0-1.1.3-1.5.6l-.3-.6c.5-.3 1.2-.7 2-.7 1.2 0 1.8.9 1.8 2.2v3.3h-.7l-.1-.6c-.5.4-1 .8-1.7.8-1 0-1.6-.6-1.6-1.6zm3.1.1v-1.5c-1.7.2-2.3.7-2.3 1.3 0 .6.4.9.9.9s.9-.2 1.4-.7zM390.5 165.3v-6.8h.9v6.8c0 .3.1.4.2.4h.2l.1.7c-.1 0-.3.1-.5.1-.6 0-.9-.5-.9-1.2z"/></g><g><path d="M44.8 165.6h1.5v-5.2h-1.2v-.6c.6-.1 1-.3 1.4-.5h.7v6.3h1.4v.8h-3.7v-.8zM49.6 163.1c0-2.8 1.2-3.9 2.5-3.9.7 0 1.2.3 1.6.7l-.5.6c-.3-.3-.7-.6-1.1-.6-1 0-1.7.8-1.7 3.2 0 1.7.5 2.7 1.5 2.7.6 0 1.2-.6 1.2-1.5s-.4-1.5-1.2-1.5c-.4 0-1 .3-1.4 1v-.7c.4-.6 1-1 1.6-1 1.1 0 1.9.7 1.9 2.2 0 1.3-.9 2.3-2 2.3-1.4-.1-2.4-1.3-2.4-3.5z"/></g><g><path d="M89.9 165.6h1.5v-5.2h-1.2v-.6c.6-.1 1-.3 1.4-.5h.7v6.3h1.4v.8H90v-.8zM94.6 165.8c2-2.1 3.1-3.4 3.1-4.5 0-.8-.4-1.4-1.3-1.4-.6 0-1 .4-1.4.8l-.5-.5c.6-.6 1.1-1.1 2-1.1 1.2 0 2 .8 2 2.1s-1.1 2.6-2.7 4.4c.4 0 .8-.1 1.1-.1h1.9v.8h-4.3v-.5z"/></g><g><path d="M123.7 163.1c0-2.8 1.2-3.9 2.5-3.9.7 0 1.2.3 1.6.7l-.5.6c-.3-.3-.7-.6-1.1-.6-1 0-1.7.8-1.7 3.2 0 1.7.5 2.7 1.5 2.7.6 0 1.2-.6 1.2-1.5s-.4-1.5-1.2-1.5c-.4 0-1 .3-1.4 1v-.7c.4-.6 1-1 1.6-1 1.1 0 1.9.7 1.9 2.2 0 1.3-.9 2.3-2 2.3-1.4-.1-2.4-1.3-2.4-3.5zM130.8 168.5l.2-.7c.1 0 .3.1.4.1.6 0 .9-.5 1.1-1.1l.1-.4-2-5.4h.9l1 3c.2.5.3 1 .5 1.5.1-.5.3-1 .4-1.5l.9-3h.8l-1.9 5.8c-.4 1.1-.9 1.9-1.9 1.9-.1-.1-.3-.1-.5-.2zM135.8 163.7c0-1.7 1.1-2.8 2.3-2.8 1.3 0 2 1 2 2.5v.5h-3.4c.1 1.1.7 1.9 1.7 1.9.5 0 .9-.2 1.3-.4l.3.6c-.4.3-1 .6-1.7.6-1.4-.1-2.5-1.2-2.5-2.9zm3.5-.5c0-1.1-.5-1.7-1.2-1.7s-1.3.6-1.4 1.7h2.6zM141 164.9c0-1.2.9-1.7 3.1-2 0-.7-.2-1.4-1-1.4-.6 0-1.1.3-1.5.6l-.3-.6c.5-.3 1.2-.7 2-.7 1.2 0 1.8.9 1.8 2.2v3.3h-.7l-.1-.6c-.5.4-1 .8-1.7.8-1 0-1.6-.6-1.6-1.6zm3.1.1v-1.5c-1.7.2-2.3.7-2.3 1.3 0 .6.4.9.9.9s.9-.2 1.4-.7zM146.6 161h.7l.1 1c.4-.7.9-1.1 1.4-1.1.2 0 .4 0 .5.1l-.2.8c-.2-.1-.3-.1-.5-.1-.4 0-.9.3-1.3 1.2v3.4h-.9V161zM149.6 165.7l.4-.6c.4.4.9.6 1.5.6.7 0 1-.4 1-.8 0-.6-.6-.8-1.2-1-.7-.3-1.5-.6-1.5-1.5s.6-1.5 1.7-1.5c.6 0 1.2.3 1.6.6l-.4.6c-.3-.3-.7-.5-1.2-.5-.6 0-.9.4-.9.8 0 .5.5.7 1.1.9.7.3 1.5.6 1.5 1.6 0 .9-.6 1.6-1.8 1.6-.6 0-1.3-.4-1.8-.8z"/></g><g><path d="M54.2 182.1c0-2.3 1.3-3.7 3-3.7.8 0 1.5.4 1.9.9l-.5.6c-.4-.4-.8-.7-1.4-.7-1.3 0-2.1 1.1-2.1 2.9 0 1.8.8 3 2.1 3 .6 0 1.1-.3 1.6-.8l.5.6c-.5.7-1.2 1-2.1 1-1.7 0-3-1.4-3-3.8zM60.4 177.9h.9v3.2c.5-.5 1-.9 1.7-.9 1.1 0 1.5.7 1.5 2.1v3.4h-.9v-3.3c0-1-.3-1.4-1-1.4-.5 0-.9.3-1.4.8v3.9h-.9v-7.8zM65.9 178.7c0-.4.3-.6.6-.6s.6.2.6.6c0 .3-.3.6-.6.6s-.6-.3-.6-.6zm.2 1.7h.9v5.3h-.9v-5.3zM68.6 184.7v-6.8h.9v6.8c0 .3.1.4.2.4h.2l.1.7c-.1 0-.3.1-.5.1-.6 0-.9-.5-.9-1.2zM70.9 183.1c0-1.7 1-2.8 2.2-2.8.6 0 1 .2 1.4.6v-3h.9v7.8h-.7l-.1-.6c-.4.4-.9.8-1.5.8-1.4 0-2.2-1.1-2.2-2.8zm3.6 1.3v-2.8c-.4-.4-.8-.6-1.2-.6-.8 0-1.4.8-1.4 2 0 1.3.5 2 1.4 2 .3.1.7-.1 1.2-.6zM77 180.4h.7l.1 1c.4-.7.9-1.1 1.4-1.1.2 0 .4 0 .5.1l-.2.8c-.2-.1-.3-.1-.5-.1-.4 0-.9.3-1.3 1.2v3.4H77v-5.3zM80.3 183.1c0-1.7 1.1-2.8 2.3-2.8 1.3 0 2 1 2 2.5v.5h-3.4c.1 1.1.7 1.9 1.7 1.9.5 0 .9-.2 1.3-.4l.3.6c-.4.3-1 .6-1.7.6-1.5-.1-2.5-1.2-2.5-2.9zm3.5-.5c0-1.1-.5-1.7-1.2-1.7s-1.3.6-1.4 1.7h2.6zM85.8 180.4h.7l.1.8c.5-.5 1-.9 1.7-.9 1.1 0 1.5.7 1.5 2.1v3.4H89v-3.3c0-1-.3-1.4-1-1.4-.5 0-.9.3-1.4.8v3.9h-.9v-5.4zM93.1 182.6h2.4v.7h-2.4v-.7zM98.3 185.1l.4-.6c.4.4.9.6 1.5.6.7 0 1-.4 1-.8 0-.6-.6-.8-1.2-1-.7-.3-1.5-.6-1.5-1.5s.6-1.5 1.7-1.5c.6 0 1.2.3 1.6.6l-.4.6c-.3-.3-.7-.5-1.2-.5-.6 0-.9.4-.9.8 0 .5.5.7 1.1.9.7.3 1.5.6 1.5 1.6 0 .9-.6 1.6-1.8 1.6-.7 0-1.4-.4-1.8-.8zM103.3 184.1v-3h-.8v-.7l.8-.1.1-1.5h.7v1.5h1.4v.7h-1.4v3c0 .7.2 1 .8 1 .2 0 .4-.1.6-.1l.2.7c-.3.1-.6.2-.9.2-1.1.1-1.5-.7-1.5-1.7zM106.4 184.3c0-1.2.9-1.7 3.1-2 0-.7-.2-1.4-1-1.4-.6 0-1.1.3-1.5.6l-.3-.6c.5-.3 1.2-.7 2-.7 1.2 0 1.8.9 1.8 2.2v3.3h-.7l-.1-.6c-.5.4-1 .8-1.7.8-1 0-1.6-.6-1.6-1.6zm3.1.1v-1.5c-1.7.2-2.3.7-2.3 1.3 0 .6.4.9.9.9s.9-.2 1.4-.7zM111.9 180.4h.7l.1 1c.4-.7.9-1.1 1.4-1.1.2 0 .4 0 .5.1l-.2.8c-.2-.1-.3-.1-.5-.1-.4 0-.9.3-1.3 1.2v3.4h-.9v-5.3zM115.7 184.1v-3h-.8v-.7l.8-.1.1-1.5h.7v1.5h1.4v.7h-1.4v3c0 .7.2 1 .8 1 .2 0 .4-.1.6-.1l.2.7c-.3.1-.6.2-.9.2-1.2.1-1.5-.7-1.5-1.7zM120.5 180.4h.9l.7 3.1.3 1.5.3-1.5.8-3.1h.8l.8 3.1c.1.5.2 1 .4 1.5l.3-1.5.7-3.1h.8l-1.4 5.3h-1l-.7-2.9-.3-1.5c-.1.5-.2 1-.3 1.6l-.7 2.9h-1l-1.4-5.4zM128.4 178.7c0-.4.3-.6.6-.6s.6.2.6.6c0 .3-.3.6-.6.6s-.6-.3-.6-.6zm.1 1.7h.9v5.3h-.9v-5.3zM131.2 184.1v-3h-.8v-.7l.8-.1.1-1.5h.7v1.5h1.4v.7H132v3c0 .7.2 1 .8 1 .2 0 .4-.1.6-.1l.2.7c-.3.1-.6.2-.9.2-1.1.1-1.5-.7-1.5-1.7zM134.6 177.9h.9v3.2c.5-.5 1-.9 1.7-.9 1.1 0 1.5.7 1.5 2.1v3.4h-.9v-3.3c0-1-.3-1.4-1-1.4-.5 0-.9.3-1.4.8v3.9h-.9v-7.8zM54.6 194.9v-3h-.8v-.7l.8-.1.1-1.5h.7v1.5h1.4v.7h-1.4v3c0 .7.2 1 .8 1 .2 0 .4-.1.6-.1l.2.7c-.3.1-.6.2-.9.2-1.1.1-1.5-.7-1.5-1.7zM58 188.7h.9v3.2c.5-.5 1-.9 1.7-.9 1.1 0 1.5.7 1.5 2.1v3.4h-.9v-3.3c0-1-.3-1.4-1-1.4-.5 0-.9.3-1.4.8v3.9H58v-7.8zM63.3 193.9c0-1.7 1.1-2.8 2.3-2.8 1.3 0 2 1 2 2.5v.5h-3.4c.1 1.1.7 1.9 1.7 1.9.5 0 .9-.2 1.3-.4l.3.6c-.4.3-1 .6-1.7.6-1.5-.1-2.5-1.2-2.5-2.9zm3.5-.5c0-1.1-.5-1.7-1.2-1.7s-1.3.6-1.4 1.7h2.6zM70.5 193.9c0-1.8 1.1-2.8 2.3-2.8s2.3 1 2.3 2.8c0 1.8-1.1 2.8-2.3 2.8s-2.3-1.1-2.3-2.8zm3.8 0c0-1.2-.6-2.1-1.5-2.1s-1.5.8-1.5 2.1.6 2 1.5 2 1.5-.8 1.5-2zM76.5 195.5v-6.8h.9v6.8c0 .3.1.4.2.4h.2l.1.7c-.1 0-.3.1-.5.1-.6 0-.9-.5-.9-1.2zM78.8 193.9c0-1.7 1-2.8 2.2-2.8.6 0 1 .2 1.4.6v-3h.9v7.8h-.7l-.1-.6c-.4.4-.9.8-1.5.8-1.4 0-2.2-1.1-2.2-2.8zm3.5 1.3v-2.8c-.4-.4-.8-.6-1.2-.6-.8 0-1.4.8-1.4 2 0 1.3.5 2 1.4 2 .4.1.8-.1 1.2-.6zM84.5 193.9c0-1.7 1.1-2.8 2.3-2.8 1.3 0 2 1 2 2.5v.5h-3.4c.1 1.1.7 1.9 1.7 1.9.5 0 .9-.2 1.3-.4l.3.6c-.4.3-1 .6-1.7.6-1.4-.1-2.5-1.2-2.5-2.9zm3.6-.5c0-1.1-.5-1.7-1.2-1.7s-1.3.6-1.4 1.7h2.6zM89.5 195.9l.4-.6c.4.4.9.6 1.5.6.7 0 1-.4 1-.8 0-.5-.6-.8-1.2-1-.7-.3-1.5-.6-1.5-1.5s.6-1.5 1.7-1.5c.6 0 1.2.3 1.6.6l-.4.6c-.3-.3-.7-.5-1.2-.5-.6 0-.9.4-.9.8 0 .5.5.7 1.1.9.7.3 1.5.6 1.5 1.6 0 .9-.6 1.6-1.8 1.6-.6 0-1.3-.4-1.8-.8zM94.5 194.9v-3h-.8v-.7l.8-.1.1-1.5h.7v1.5h1.4v.7h-1.4v3c0 .7.2 1 .8 1 .2 0 .4-.1.6-.1l.2.7c-.3.1-.6.2-.9.2-1.1.1-1.5-.7-1.5-1.7zM99.6 193.9c0-1.8 1.1-2.8 2.4-2.8.7 0 1.1.3 1.5.6l-.4.6c-.3-.3-.6-.5-1-.5-.9 0-1.6.8-1.6 2.1s.6 2 1.6 2c.5 0 .9-.2 1.2-.5l.4.6c-.5.4-1 .7-1.6.7-1.5 0-2.5-1.1-2.5-2.8zM104.7 188.7h.9v3.2c.5-.5 1-.9 1.7-.9 1.1 0 1.5.7 1.5 2.1v3.4h-.9v-3.3c0-1-.3-1.4-1-1.4-.5 0-.9.3-1.4.8v3.9h-.9v-7.8zM110.2 189.5c0-.4.3-.6.6-.6s.6.2.6.6c0 .3-.3.6-.6.6s-.6-.3-.6-.6zm.2 1.7h.9v5.3h-.9v-5.3zM112.9 195.5v-6.8h.9v6.8c0 .3.1.4.2.4h.2l.1.7c-.1 0-.3.1-.5.1-.6 0-.9-.5-.9-1.2zM115.2 193.9c0-1.7 1-2.8 2.2-2.8.6 0 1 .2 1.4.6v-3h.9v7.8h-.7l-.1-.6c-.4.4-.9.8-1.5.8-1.4 0-2.2-1.1-2.2-2.8zm3.6 1.3v-2.8c-.4-.4-.8-.6-1.2-.6-.8 0-1.4.8-1.4 2 0 1.3.5 2 1.4 2 .3.1.7-.1 1.2-.6z"/></g><circle class="st0" cx="92.4" cy="129.3" r="18.8"/><path class="st0" d="M30.4 32.2h37.8V70H30.4z"/><circle class="st0" cx="135.3" cy="51.1" r="18.8"/><path class="st1" d="M68.2 51.1h48.3"/><path class="st0" d="M206.5 32.2h37.8V70h-37.8zM325 103.9h37.8v37.8H325zM382.7 103.9h37.8v37.8h-37.8z"/><circle class="st0" cx="401.5" cy="51.1" r="18.8"/><circle class="st0" cx="238.3" cy="123.3" r="18.8"/><circle class="st0" cx="300.7" cy="123.3" r="18.8"/><path class="st1" d="M244.3 51.1h138.4M257.1 123.3h24.8M92.6 50.7l-.2 59.8M267.8 51.6l-29.5 52.9M267.2 51.6l29.4 52.9"/><g><circle class="st0" cx="119.2" cy="432.6" r="18.8"/><circle class="st0" cx="181.6" cy="432.6" r="18.8"/><path class="st1" d="M138 432.6h24.8M148.6 373.8L119.2 414M148 373.8l29.5 40.2"/></g><path class="st1" d="M362.2 122.8h20.5M372.9 51.1l-29.5 53M372.3 51.1l29.4 53M49.3 89.3l-.2 21.2M135.4 89.3l-.1 21.2M51.2 294.6h86.1M137.5 374l177.8-.2"/><path class="st0" d="M32.3 313.6h37.8v37.8H32.3z"/><circle class="st0" cx="94.2" cy="332.5" r="18.8"/><path class="st0" d="M32.1 235.8h37.8v37.8H32.1z"/><circle class="st0" cx="136.8" cy="254.7" r="18.8"/><path class="st1" d="M51.1 273.6v40M137.3 273.6v100.2M93.7 294.6v19"/><g><circle class="st0" cx="137" cy="332.5" r="18.8"/><path class="st1" d="M124.9 318.3l24.9 28.5M149.8 318.3l-24.9 28.5"/></g><path class="st1" d="M315.4 294.6h86"/><path class="st0" d="M296.5 313.6h37.8v37.8h-37.8z"/><circle class="st0" cx="358.4" cy="332.5" r="18.8"/><path class="st0" d="M296.3 235.8h37.8v37.8h-37.8z"/><circle class="st0" cx="400.9" cy="254.7" r="18.8"/><path class="st1" d="M315.3 273.6v100.2"/><g><path class="st0" d="M221.9 413.8h37.8v37.8h-37.8z"/><path class="st1" d="M240.8 373.8v40"/></g><path class="st1" d="M401.5 273.6l-.3 77.7M357.9 294.6v19"/><g><circle class="st0" cx="300.2" cy="432.8" r="18.8"/><path class="st1" d="M299.7 374v40"/></g><g><circle class="st0" cx="401.2" cy="332.5" r="18.8"/></g></svg>