<svg version="1.1" xmlns="http://www.w3.org/2000/svg" x="0" y="0" width="325.984" height="610.445" viewBox="0 0 325.984 610.445" xml:space="preserve"><path d="M113.233 335.062c1.873-.517 3.63-1.389 5.495-1.949 1.618-.486 5.128-1.423 6.597-.068.647.597 1.294-.438.795-.998-3.22-3.618-10.194-1.426-13.618 1.095-.797.585-.357 2.221.731 1.92zM165.925 435.932c1.223 1.018 2.193-1.361 1.096-2.273-3.991-3.319-4.755-9.051-4.58-13.929.094-2.61.723-5.228 1.736-7.626.867-2.055 2.692-3.29 3.632-5.186.224-.449-.04-1.154-.604-1.141-4.809.118-6.655 9.66-6.906 13.121-.446 6.105.692 12.927 5.626 17.034zM88.221 378.958c-.062-.237-.012-.529-.055-.78-.048-.275-.243-.554-.409-.772a2.407 2.407 0 0 0-1.097-.819 2.2 2.2 0 0 0-.784-.127c2.033-3.4 3.565-6.962 6.042-10.168 2.991-3.871 6.793-6.938 11.275-8.898.876-.383.575-1.943-.443-1.695-4.761 1.16-8.454 4.436-11.626 8.036-2.968 3.369-6.334 8.093-7.283 12.551-.058.27.034.573.194.829a2.401 2.401 0 0 0-.744 2.445c.359 1.254 1.705 2.008 2.954 1.936.865-.051 1.053-1.353.365-1.778-.38-.235-.773-.433-1.162-.651-.047-.026-.235-.174-.267-.19l-.021-.022c.054-.073.112-.142.172-.209.024-.014.15-.126.189-.153.033-.023.069-.044.105-.064 0 .004.1-.047.123-.057.067-.027.422-.11.264-.086.141-.022.282-.021.423-.01-.129-.01.175.052.227.066a.903.903 0 0 1 .32.151c.209.137.676.486.767.714.135.332.549.041.471-.249zm-3.117-.172c-.011-.061-.011-.094 0 0zm.018.022c.002-.021.003-.025 0 0 0 .001 0 .001 0 0zm.034.05c.015.017.011.012 0 0zM179.952 493.983c1.739 4.752.561 10.94-.565 15.739-.762 3.247-1.815 6.376-2.712 9.542a116.247 116.247 0 0 0-.844-6.104c-1.63-9.752-4.255-19.405-3.617-29.382.071-1.128-1.396-1.055-1.482.035-.63 7.926.538 15.542 1.959 23.319a168.605 168.605 0 0 1 2.428 19.581c-.051.451-.114.898-.146 1.356-.026.379.087.656.269.837.086 1.715.154 3.434.188 5.165.144 7.607-.227 15.221-.439 22.823-.185 6.604-.808 14.144-6.35 18.562-1.078.859-.121 3.107 1.166 2.178 4.715-3.405 6.295-9.073 6.982-14.588.902-7.235.702-14.811.809-22.088.076-5.184-.016-10.384-.369-15.563.893-6.488 3.596-12.607 4.55-19.105.578-3.935 1.348-9.281-.843-12.837-.386-.626-1.22-.117-.984.53z"/><path d="M280.428 479.913c-7.43-6.778-13.752-14.529-20.931-21.545-3.969-3.878-7.988-7.685-11.86-11.661-1.341-1.377-2.446-2.951-3.706-4.39-.413-2.138-1.434-4.25-2.743-5.991.112-.541-.106-1.178-.724-1.423-3.854-1.532-5.988-4.401-7.755-7.7.485-.115.905-.538.818-1.184-1.493-11.062 2.955-21.388 2.963-32.332 1.636-1.261 3.105-2.661 4.128-4.425 1.893-3.264 2.054-7.273 2.563-10.938.653-4.694 1.149-9.412 1.657-14.124 1.857-17.229 7.15-35.085 1.95-52.194-.01-.034-.029-.052-.041-.083.442-.778.884-1.557 1.345-2.331 4.185-7.031 5.835-14.965 6.445-23.058.667-8.834.686-17.938.039-26.791 4.455-1.637 8.476-4.027 12.568-6.473 2.979-1.78 5.995-3.407 9.224-4.688 3.23-1.28 6.994-.918 10.387-1.418.575-.085.912-.551 1.026-1.075 4.272-1.632 4.747-5.96 3.188-10.554-2.388-7.035-7.083-13.296-10.003-20.137-4.679-10.96-7.07-22.784-12.08-33.596-2.085-4.498-4.589-8.797-6.519-13.369-.628-1.487-1.194-3.005-1.758-4.518-.249-.672-.485-1.348-.72-2.024-.426-1.234-.153-1.299-.725-.834.006-.026.014-.053.018-.08.399-.594.107-1.54-.488-1.73-3.791-9.76-14.058-15.336-22.585-20.389-5.57-3.3-10.743-7.217-16.386-10.396-5.586-3.149-11.963-4.841-17.479-8.067.808-1.272 1.589-2.536 2.354-3.773.137-.103.264-.244.372-.438 1.978-3.504 2.483-7.582 2.698-11.557 1.121-1.188 1.689-3.383 2.236-4.76 1.112-2.802 2.057-5.68 2.887-8.577.524-1.832 3.04-8.685 1.134-10.862 2.069-3.92 3.008-8.447 1.876-12.344a.823.823 0 0 0-.087-.196c.078-.544.144-1.085.186-1.617.032-.411-.117-.686-.334-.851-.435-7.409-4.176-14.535-7.435-21.035-4.005-7.987-9.139-15.566-15.142-22.184-5.426-5.98-12.301-11.304-20.232-13.312-4.778-1.209-13.163-.827-16.729 3.233l-.017-.018c-6.74-5.84-16.52-2.461-23.623.887-9.129 4.302-18.188 10.129-25.31 17.31-6.692 6.749-10.935 14.792-14.005 23.727-2.721 7.916-4.746 17.111-2.339 25.359.187.64.638.848 1.067.788.149.452.341.896.517 1.325.583 1.422 1.472 2.406 2.444 3.546.283.331.58-.152.46-.438-.53-1.26-.89-2.632-1.364-3.919-.359-.977-.495-2.13-1.229-2.905a.61.61 0 0 0-.177-.13c-1.738-7.7.454-16.109 2.954-23.389 2.721-7.919 6.67-15.173 12.472-21.246 6.521-6.825 14.83-12.015 23.127-16.384 6.87-3.617 17.127-8.051 23.921-2.156.509.441.964.262 1.248-.16a.621.621 0 0 0 .483-.183c4.434-3.971 12.579-3.753 17.896-2.065 7.338 2.328 13.506 8.152 18.44 13.832 4.974 5.725 9.1 12.188 12.641 18.879 3.772 7.127 7.548 14.854 7.704 23.037.002.116.036.204.058.303-1.885 5.929-3.661 10.896-8.704 15.098-.061-.089-.129-.172-.192-.26-.114-.377-.343-.689-.665-.802-.063-.067-.119-.139-.186-.203-.803-.779-1.633.009-1.649.858-.614.364-1.204.775-1.781 1.209-.195-2.322-1.951-4.334-3.033-6.431-.236-.459-.787-.782-1.302-.585-10.941 4.193-21.506 9.124-32.941 11.887-5.403 1.305-17.076 2.969-18.547 9.752a59.279 59.279 0 0 1-7.21-.705 1.324 1.324 0 0 0-.05-1.057c-2.07-4.186-1.126-7.875-.632-12.285.104-.919-.603-1.98-1.6-1.372-3.999 2.442-7.477 5.478-9.467 9.688-2.062-2.692-3.294-5.602-3.44-9.147-.04-.967-1.047-1.582-1.776-.812-1.362 1.438-5.293 5.729-4.759 8.439a76.47 76.47 0 0 1-3.04-1.399c.032-.17.041-.348-.01-.534-.964-3.539-.438-6.649.468-10.147.213-.819-.664-1.555-1.277-1.323a.623.623 0 0 0-.338.022c-1.511.528-2.711 1.47-3.824 2.607-1.104 1.128-2.416 2.617-2.843 4.164a1.04 1.04 0 0 0-.012.479c-1.693-1.178-3.39-2.344-5.207-3.312-.277-.147-.515.118-.492.382-.228-.238-.581-.338-1.04-.177-1.817.638-2.938 4.024-3.812 5.527-.081.14-.114.293-.127.45a6.593 6.593 0 0 1-1.024-2.076c-.471-1.57-.871-3.381-.966-5.019-.014-.247-.338-.317-.394-.053-.444 2.121-.737 3.964-.241 6.123.243 1.058.75 2.235 1.516 3.115a.706.706 0 0 0-.078.171c-1.182 3.916-.911 8.691-.608 12.721.253 3.377 1.108 8.066 4.066 10.161.043 3.071.353 6.816 2.164 9.078-.167.323-.182.756.101 1.085a37.68 37.68 0 0 0 2.374 2.504c-.212.13-.416.27-.601.382-2.173 1.323-4.648 2.252-6.974 3.27-4.393 1.922-8.689 3.799-12.735 6.387-5.061 3.236-9.816 6.931-14.104 11.14-2.896 2.843-6.188 6.607-7.428 10.721-3.67 4.43-4.921 10.588-6.114 16.07-1.885 8.65-3.619 17.383-5.813 25.958-2.205 8.621-3.676 17.401-4.74 26.23-.541 4.487-.708 9.029-1.3 13.507-.333 2.523-.999 4.968-.643 7.463-.467.31-.705 1.174-.27 1.738 4.023 5.219 10.154 7.321 16.573 8.445 1.258 14.537 1.843 28.891 1.413 43.496-.224 7.59-1.089 15.097-.469 22.694.342 4.191.807 11.209 4.619 13.857.007.005.013.007.02.011-1.906 2.786-3.598 6.061-6.082 7.218-2.073.966-6.052 1.516-7.133 3.899-1.421 3.13-.126 6.642.775 9.722 1.523 5.209 4.088 9.781 4.417 15.317.355 5.988-.214 12.01-.333 17.997-.114 5.731-.258 11.441-.564 17.166-.312 5.852-.973 11.871-.614 17.74l-.008.013c-2.233 4.68-3.563 9.701-5.509 14.498-1.985 4.893-6.111 8.506-9.369 12.533-2.121 2.621-4.018 5.757-3.574 9.235.558 4.378 4.613 8.716 6.824 12.389 4.969 8.25 9.628 16.51 16.261 23.575 5.976 6.365 13.363 11.108 21.586 14 4.386 1.541 8.916 2.49 13.501 2.975.052 2.119 1.132 4.771 1.628 6.387.656 2.139 1.589 4.668 3.22 6.366-2.133 10.913-.898 22.523-3.348 33.645-.863 3.921-3.147 7.374-4.106 11.183-.302 1.197-.191 2.458 1.173 2.809l.016.002c-.066 1.4.74 3.004 1.59 4.279 1.709 2.562 3.382 4.662 4.411 7.644 1.05 3.038 1.511 6.232 2.675 9.24.104.269.258.462.436.592.35 4.194 2.746 6.378 7.289 6.771 6.095.527 12.28-3.918 17.081-7.083 6.641-4.378 13.221-8.827 19.349-13.913 4.643-3.854 10.192-7.68 13.053-13.161-.351 7.128.937 14.058 8.016 10.981 3.261 1.664 6.744 1.438 10.338 1.45.814.003 1.13-.929.992-1.592-.713-3.423-.152-7.276 2.604-9.472.206 3.102-.353 6.294 1.111 9.129 1.206 2.338 4.606 3.266 6.933 3.705 5.342 1.012 10.407-.665 10.852-6.589.313-4.174-.525-8.222-1.188-12.322a14.904 14.904 0 0 1-.179-2.636c5.702 3.098 11.75 3.861 17.931 3.639-.775 9.552-.039 18.729-2.893 28.096-.378 1.242 1.439 2.213 2.013.908 3.72-8.456 3.562-19.941 2.715-29.096 2.411-.156 4.839-.438 7.271-.771 4.798-.655 9.568-1.364 14.414-1.522 2.29-.075 4.536.092 6.785.511.747.139 1.58.178 2.255-.234 2.672-1.632 4.277-5.681 5.738-8.316 2.844-5.132 6.304-9.676 10.086-14.147 6.215-7.35 13.105-14.094 18.98-21.733 4.705-6.118 8.632-13.056 9.299-20.866.706-8.244-4.871-14.386-10.542-19.56zm-40.548-42.747c.428.764.764 1.558 1.063 2.362-.8-.698-1.542-1.449-2.052-2.434a1.684 1.684 0 0 0-.125-.198c.36.114.729.209 1.114.27zm-8.803-13.241c-.239-.498-.479-.999-.725-1.5-1.596-3.258-4.255-8.317-8.316-8.905 1.354-1.946 2.171-4.494 2.977-6.591a34.263 34.263 0 0 0 1.719-6.086c.271.008.558-.104.826-.395 1.965-2.128 4.618-3.72 7.123-5.446-1.524 9.413-4.732 19.392-3.604 28.923zm11.56-60.362c-.422 3.773-.828 7.547-1.304 11.314-.499 3.955-.622 8.645-2.276 12.31-2.053 4.551-8.024 6.731-11.821 10.094.098-.938.179-1.895.243-2.894.703-10.844-.926-20.646-4.134-30.971-.504-1.621-.97-3.223-1.413-4.819.386.379.925.461 1.346-.16 4.925-7.259 8.381-15.107 11.986-23.062 3.281-7.239 6.464-14.297 10.233-21.203 3.547 16.447-1.022 32.969-2.86 49.391zM134.814 132.266c-10.036-.166-19.701-2.481-27.284-9.452-3.498-3.216-4.8-7.682-5.327-12.243-.309-2.664-.228-5.594-.756-8.304 4.775 4.881 11.559 7.277 18.079 9.036 2.238.604 4.488 1.189 6.747 1.742a4.664 4.664 0 0 0-.451.644c-.673 1.175-.636 2.393-.253 3.546-2.023-.746-3.955-1.84-5.732-2.968-.836-.53-1.498.839-.885 1.421 4.623 4.396 13.916 7.802 19.191 2.607.616-.605.012-2.215-.941-1.789-2.056.918-3.824 1.529-5.779 1.664.601-.701 1.08-1.503 1.349-2.217.185-.491.257-.958.263-1.4 5.37 1.074 10.795 1.824 16.278 1.918 8.542.146 17.146-1.419 25.495-3.303-.436 1.088-.169 2.493.613 3.435.273.41.621.766 1.044 1.027.083.052.165.086.245.112-2.686.94-5.412.84-7.367-1.404-.504-.578-1.07.266-.827.788 3.474 7.477 16.214 1.427 18.395-4.471.377-1.021-.856-2.767-1.714-1.479-.875 1.314-2.34 2.835-4.074 4.133.094-.315.153-.647.179-.987.071-.951-.339-1.821-.989-2.461 7.422-1.914 14.934-4.709 20.66-9.864 1.473 6.58 1.475 13.683-3.356 18.936-3.407 3.705-9.241 4.968-13.816 6.571-2.546.893-5.157 1.756-7.554 3.006-2.467 1.286-5.223 3.361-8.146 1.836-1.411-.735-2.635-2.396-3.848-3.427a86.16 86.16 0 0 0-4.192-3.359c-2.713-2.026-5.741-3.805-9.084-4.5-6.742-1.403-12.697 6.336-16.163 11.206zm-3.888-17.982a.815.815 0 0 1 .019.165 1.198 1.198 0 0 0-.034.144c-.045.217-.097.328-.277.683-.434.847-1.401 1.827-2.265 2.113-.098.032-.227.025-.24.029-.001-.004 0-.006-.004-.013a2.4 2.4 0 0 1-.097-.505c-.043-.58.075-1.132-.062-1.704a1.125 1.125 0 0 0-.274-.507c.518-.731 1.689-.795 2.491-.672.315.049.487.104.688.229l.055.038zm.006.005c.008.01.006.021.018.068l-.018-.068zm-2.804 3.13c-.002.001.007.004.035.01a.075.075 0 0 0-.032-.002.02.02 0 0 0-.003-.008zm49.174-2.196c-.183-.229-.327-.469-.349-.657-.045-.403.024-.665.296-1.001.422-.521 1.829-.055 1.895.655.081.874-1.034 1.303-1.842 1.003zm32.957-22.986a95.965 95.965 0 0 1-2.425 6.862c0-3.358-.255-6.851-1.166-9.889.259-.27.422-.664.383-1.085 2.106-1.312 4.056-3.267 5.615-5.574.294 2.853-1.791 7.694-2.407 9.686zm3.038-16.354c-.19 1.029-.444 2.055-.852 3.069-1.233 3.077-3.511 5.578-5.789 7.943a1.61 1.61 0 0 0-.292-.41c-.271-.595-.535-1.192-.824-1.775 3.392-1.904 5.998-5.151 7.757-8.827zm-59.581 18.154c3.72-1.363 7.637-2.181 11.498-3.028 10.612-2.33 20.479-7.207 30.562-11.124 1.019 1.62 2.476 3.531 2.133 5.344a1.49 1.49 0 0 0 .01.594c-.507.391-1.02.77-1.549 1.115-2.024 1.32-4.915 1.815-7.213 2.472-2.692.769-5.328 1.692-7.989 2.558-9.439 3.066-19.24 5.366-29.116 6.418a53.999 53.999 0 0 1-6.491.291c2.626-1.864 5.008-3.487 8.155-4.64zm-19.6-7.418c-.469 3.802-.762 7.21.894 10.942a82.686 82.686 0 0 1-8.29-2.068c1.449-3.853 4.14-6.608 7.396-8.874zm-13.91-.345c.516 3.081 1.781 5.812 3.698 8.332a104.668 104.668 0 0 1-6.831-2.512c.334-2.178 1.652-4.117 3.133-5.82zm-14.081-.498c.938-.939 1.561-2.28 2.442-3.304a18.19 18.19 0 0 1 1.923-1.903c-.767 2.635-1.271 5.584-.532 8.172-1.479-.824-2.887-1.759-4.274-2.72a.928.928 0 0 0 .441-.245zm-7.25-2.271c.116.088.279-.021.296-.151a1.492 1.492 0 0 0-.033-.557c4.341 6.855 13.525 10.429 20.787 13.141 9.231 3.448 18.449 5.772 28.356 5.458 9.967-.315 20.111-2.786 29.638-5.569 5.363-1.567 10.692-3.316 16.023-4.992 3.726-1.171 6.036-3.992 9.337-5.682.365.716.662 1.471.979 2.215-5.686 6.959-13.544 11.141-21.932 14.121-9.207 3.271-19.588 5.993-29.353 6.309-20.498.662-42.651-3.396-56.644-19.677.825-1.529 2.506-4.645 2.546-4.616zm-4.772 17.398c-.169-3.199.435-6.628-.227-9.786.28.159.575.295.899.366.429.094.774-.169.938-.526.221.25.445.496.672.741-.005.042-.021.074-.021.119-.076 5.82-.143 11.627-.17 17.443-1.121-2.641-1.918-5.065-2.091-8.357zm4.097-7.346c5.967 5.729 13.468 9.742 21.191 12.651 10.734 4.043 22.288 4.427 33.649 4.298 10.312-.116 21.342-3.347 31.008-6.781 7.862-2.795 15.278-6.978 20.831-13.219-.098 7.553 1.871 15.362-1.053 22.558.733-4.669.009-9.567-1.275-14.148-.421-1.501-2.177-.933-2.208.325a1.214 1.214 0 0 0-.231.171c-6.074 5.644-14.163 8.284-22.05 10.285-8.941 2.269-18.218 3.933-27.449 4.123-9.713.2-19.089-2.225-28.458-4.468-8.117-1.942-15.907-4.647-21.573-11.06-.909-1.029-1.854.62-1.219 1.506.113.157.236.303.353.456-.377 4.051.134 8.729.779 12.693.734 4.514 2.426 8.308 5.594 11.637 7.519 7.902 18.978 10.14 29.415 10.227.715.006 1.058-.618 1.046-1.247 2.745-3.704 5.857-7.324 10.045-9.392 4.332-2.139 8.992 1.166 12.412 3.627 3.058 2.2 5.542 5.505 8.859 7.246 3.708 1.946 7.988-1.688 11.253-3.043 5.021-2.082 11.291-3.345 16.241-6.234-3.759 4.745-8.207 8.764-14.314 10.691-5.409 1.709-11.587 1.435-16.675-1.107-3.872-1.935-6.332-6.636-10.507-7.961-3.873-1.229-6.891 1.092-9.744 3.492-4.236 3.563-7.902 6.02-13.68 5.613-10.897-.766-21.586-6.211-29.781-13.323.2-.351.256-.83.08-1.179-4.281-8.461-2.092-19.082-2.539-28.437zm90.305 55.047c-.624 3.626-1.013 7.284-1.648 10.91-1.464 8.332-3.777 16.506-6.139 24.621-1.875 6.448-4.961 12.804-9.949 17.418-5.174 4.786-11.969 5.479-18.538 3.667-10.406-2.871-16.542-12.962-20.149-22.425-1.855-4.868-3.136-9.949-4.164-15.049-.742-3.675-1.068-7.506-1.828-11.197.43.227.861-.009 1.132-.425 1.736 2.17 3.554 4.236 5.44 6.125 6.663 6.671 15.184 10.934 24.74 9.783 8.566-1.031 16.702-6.866 21.02-14.257 2.691-4.607 4.413-9.691 7.816-13.866 1.053-1.291 2.188-2.524 3.258-3.797.208 2.81-.524 5.771-.991 8.492zM63.417 335.461c-4.082-4.656-3.878-13.355-3.865-19.153.015-7.045.718-14.083.837-21.13.209-12.393.728-25.584-2.384-37.697 3.998.618 8.059.917 11.75 1.396 4.649.603 9.314.779 13.944 1.593 4.648.815 10.776 2.151 13.524 6.408a33.134 33.134 0 0 0-.868 4.126c-.901 6.486-.418 13.024-.843 19.532-.269 4.126-1.359 9.798.78 13.666-3.2-.684-6.6-.614-9.789-.208-7.715.982-15.627 4.836-19.642 11.715-2.788 4.777-2.908 12.404.335 17.299-1.434.347-2.612 1.331-3.673 2.604a.914.914 0 0 0-.106-.151zm4.381 168.684c-12.883-8.513-19.681-22.538-27.591-35.24-2.279-3.659-4.854-6.459-2.578-10.814 1.911-3.658 5.275-6.59 7.867-9.756 4.883-5.965 5.995-13.811 9.234-20.631a1.384 1.384 0 0 0 0-1.195c.831-9.723 1.007-19.676 1.271-29.427.255-9.421 1.745-19.93-.417-29.171-.978-4.179-2.849-8.382-4.339-12.395-.607-1.634-1.432-4.965.211-6.308 1.42-1.159 3.653-1.628 5.322-2.33 2.529-1.064 3.99-3.098 5.42-5.349 1.835-2.889 3.356-5.214 6.229-6.955a9.866 9.866 0 0 0 2.3 1.796c1.334.747 2.017-1.382.99-2.15-6.147-4.598-5.848-13.917-1.292-19.55 4.38-5.416 12.154-7.821 18.835-8.296a23.64 23.64 0 0 1 9.766 1.354c2.86 1.041 5.092 3.271 7.885 4.481 3.655 1.584 7.78 1.247 11.292 3.268 3.964 2.28 4.057 9.346 3.98 13.318-.001.051.067.062.077.011.852-4.456 1.446-8.546-.698-12.733-2.161-4.222-7.458-4.566-11.509-5.583-4.213-1.057-7.24-4.117-11.267-5.59-.154-.057-.314-.097-.471-.149.259-.357.345-.864.056-1.35-2.322-3.904-.86-10.218-.617-14.53.371-6.579-.042-13.08 1.036-19.627.09-.547.205-1.087.329-1.625.44-.354.695-1.003.423-1.635 1.41-4.909 3.815-9.578 4.243-14.716.606-7.289-.688-14.459.452-21.743.137-.872-1.079-1.762-1.458-.687-2.246 6.386-.867 13.358-.957 19.974-.07 5.232-2.104 10.143-3.721 15.136-5.185-5.979-15.661-6.577-22.862-7.248-10.431-.972-24.273-.606-32.53-8.077.13-.261.176-.583.078-.947-.789-2.927.343-5.741.559-8.658.338-4.563.768-9.116 1.305-13.66a205.34 205.34 0 0 1 4.187-23.458c1.877-7.883 3.575-15.812 5.305-23.729 1.21-5.537 2.052-11.827 4.947-16.852.437.212.991.129 1.238-.456 2.517-5.961 5.802-10.323 10.682-14.64 4.095-3.623 8.649-6.712 13.29-9.584 4.231-2.619 9.145-4.209 13.614-6.373.478-.231 3.421-1.519 4.554-2.811 6.838 5.911 15.713 9.577 24.502 11.174 4.52.822 8.73.793 12.851-1.375 4.895-2.575 9.418-10.412 15.366-6.144 4.268 3.061 6.982 6.646 12.21 8.249 4.966 1.523 10.479.906 15.351-.627 2.815-.886 5.314-2.301 7.582-4.05-1.631 3.034-4.355 5.511-6.504 8.143-2.512 3.075-4.038 6.868-5.762 10.404-4.192 8.604-12.145 15.068-21.756 16.269-9.34 1.166-17.502-4.305-23.691-10.729-6.052-6.283-9.46-14.675-15.682-20.735-.313-.306-.609.141-.474.451 1.264 2.899 2.791 5.801 4.494 8.635-4.61-4.906-9.408-9.603-13.051-15.456-.155-.249-.446-.048-.387.204 2.267 9.506 10.427 15.409 16.632 22.494-.215 4.692.797 9.548 1.677 14.117 1.169 6.08 2.842 12.049 5.179 17.785 4.216 10.35 11.686 19.723 23.097 22.092 14.406 2.992 23.831-8.678 28.106-20.986 3.047-8.776 5.243-18.051 6.945-27.174.799-4.282 1.255-8.616 1.987-12.91.511-2.994 1.021-6.121.455-9.139a1.5 1.5 0 0 0-.195-.527c.972-1.434 1.768-2.974 2.197-4.74.095-.389.037-.725-.106-.99 2.873-2.872 5.343-6.252 7.59-9.683 4.654 3.152 10.219 4.914 15.251 7.35 5.663 2.741 10.643 6.675 15.958 9.995 4.45 2.778 9.066 5.268 13.369 8.279 5.247 3.672 8.539 8.117 11.739 13.562.024.041.056.061.082.097.386 2.975 2.901 7.938 3.435 9.184 2.003 4.674 4.487 9.13 6.616 13.745 2.624 5.687 4.239 11.855 6.178 17.799 2.832 8.684 5.981 17.302 10.559 25.235 2.535 4.395 9.673 14.941 1.115 16.58-.356.068-.584.315-.706.629-2.072.195-4.152.277-6.215.595-3.131.481-6.031 2.058-8.784 3.543-6.302 3.399-11.995 7.211-18.899 9.368-6.319 1.974-12.851 3.173-19.15 5.227-4.618 1.507-9.912 2.221-13.337 5.911a.602.602 0 0 0-.12.194c-.176-6.684-.507-13.258.542-19.95.995-6.356 2.554-12.918 1.54-19.354-.052-.331-.524-.314-.565.014-.844 6.755-1.863 13.436-2.966 20.154-1.16 7.073-.713 14.19-.557 21.32.146 6.633 1.758 13.755.518 20.308-1.261 6.662-4.511 12.936-6.269 19.497-.396 1.48 1.698 2.183 2.117.615 1.763-6.606 4.656-12.85 6.231-19.503 1.497-6.322-.453-13.135-.521-19.526a214.835 214.835 0 0 0-.056-3.013c.135.333.471.567.851.339 4.286-2.575 9.737-3.442 14.464-4.925 6.32-1.982 12.866-3.143 19.197-5.094.047-.015.091-.032.137-.047-.98 16.922 1.909 33.743-7.25 49.113-9.048 15.184-13.964 32.552-23.918 47.206-.08.118-.132.246-.168.376-1.664-6.283-2.799-12.495-3.107-19.185-.311-6.726-.576-13.935-4.203-19.831-4.005-6.511-12.395-8.295-19.515-8.082-10.288.306-18.651 6.224-27.844 9.933-9.701 3.914-27.794-3.216-32.716 9.528a.935.935 0 0 0-.02.601 62.982 62.982 0 0 0-3.65 1.319c-6.765 2.705-16 6.436-18.809 13.787-1.345.814-2.332 2.055-2.728 3.809-.188-.071-.37-.146-.561-.216-.404-.147-.652.27-.638.653-3.382 2.427-7.765 3.652-11.696 2.158-3.082-1.171-5.522-1.506-8.592-.023-6.159 2.975-10.19 11.319-17.731 11.023-.548-.021-.915.506-1.032.974-.196.783-.249 1.534-.257 2.344-.006.499.315 1.059.816 1.198 3.707 1.037 7.793-.087 11.529-1.539-4.243 5.603-7.72 11.566-14.336 14.872-.742.37-.873 1.112-.59 1.843 1.286 3.309 4.836 5.443 8.153 6.281.611.154 1.141-.293 1.261-.883.036-.177.057-.344.076-.513a.672.672 0 0 0 .222-.371c.629-2.496 1.507-4.288 3.198-6.265 1.545-1.806 3.348-3.393 4.709-5.352.708-1.02-.53-2.783-1.436-1.598-2.236 2.93-7.973 7.432-7.838 11.797-.205.064-.387.213-.491.486a.203.203 0 0 1-.011.026c-.447-1.956-2.176-3.308-3.828-4.292a.929.929 0 0 0-.414-.138c4.722-3.017 7.962-7.262 11.273-11.939 1.958-2.766 3.924-5.57 6.484-7.817 2.694-2.364 5.966-2.983 9.212-4.173.478-.175.494-.789.228-1.142a21.705 21.705 0 0 0-.616-.798c-.026-.032-.066-.007-.075.025-.232.908-2.14.563-3.096.778a17.547 17.547 0 0 0-4.315 1.578c-1.837.949-3.384 2.384-4.771 3.923-4.02.56-7.535 3.13-11.56 3.105 6.137-1.118 10.358-7.451 15.394-10.718 4.195-2.723 7.645.327 11.922.54 3.335.166 6.675-2.325 8.576-4.842 4.604 2.488 8.42 5.144 10.654 9.436-1.515.115-3.116.099-4.848.019-4.03-.187-7.659-.326-10.867 2.433-6.013 5.171-5.978 14.932-14.357 17.564-1.12.352-.915 2.634.343 2.444 8.367-1.262 9.9-11.509 14.471-17.044 3.515-4.257 9.47-2.72 14.287-2.723a20.97 20.97 0 0 0 2.057-.104c.064.198.123.403.182.607-2.978.795-5.958 1.294-8.703.662-.42-.097-.513.568-.146.705 6.469 2.416 13.881-.547 20.309-1.86 4.082-.834 7.916-2.612 10.095-5.76.553.279 1.335-.176 1.362-1.006a5.09 5.09 0 0 0-.153-1.365c.338-.953.562-1.989.629-3.134.056-.954-1.354-1.523-1.724-.502-.099.271-.191.536-.286.799-3.639-5.066-12.8-9.201-16.899-5.416a20.21 20.21 0 0 0-4.559-1.46c3.022-2.977 11.789-2.696 14.885-2.463 4.187.317 8.147 2.616 11.061 5.523 4.062 4.054 4.54 9.271 2.774 14.474a3.101 3.101 0 0 0-.754.694c-.292.374-.036.994.469.89.229-.047.46-.074.693-.093.292.236.666.288.982-.002 5.561.441 11.909 7.881 14.474 11.6 1.956 2.837 3.436 6.005 5.484 8.774 1.299 1.757 2.712 3.407 4.122 5.075.297.353 2.457 2.122 2.521 2.619.312 2.407-1.239 5.372-2.107 7.513-1.034 2.55-2.052 5.094-2.63 7.792-.85 3.969.507 8.677 4.843 9.785 1.231.314 1.519-1.428.7-2.053-3.324-2.541-4.021-4.641-2.969-8.741.763-2.977 2.18-5.78 3.226-8.663.668-1.842 1.362-4.102 1.098-6.08-.251-1.878-2.906-3.688-4.029-5.007-5.11-6.009-8.104-14.069-14.344-19.104-1.734-1.398-6.071-5.067-9.423-5.462 3.778-9.988-4.809-19.689-14.554-21.766-2.721-.58-9.509-.757-14.181.855 2.341-1.445 4.999-2.342 8.269-2.82 5.507-.806 11.297-.244 16.66 1.146 2.148.557 4.229 1.349 6.253 2.282-.621-.295-1.184.819-.715 1.445 3.253 4.341 6.288 8.83 9.64 13.098 3.545 4.515 7.715 8.322 11.598 12.518 8.085 8.736 11.844 19.989 13.476 31.597 1.56 11.088.572 22.361-2.498 33.098-3.128 10.935-8.828 20.78-13.022 31.288-3.988 9.991-7.201 19.638-14.646 27.685-6.729 7.273-15.608 12.454-24.837 15.859-20.453 7.552-45.838 9.028-64.644-3.4zm54.204-142.183c-.035-.124-.067-.25-.104-.371 3.174-.711 5.947-2.371 7.541-5.46.257.666 1.166 1.008 1.54.154.671-1.532.666-3.018.177-4.398 1.188.485 2.262 1.295 3.104 2.221.666.732 1.133 1.664 1.187 2.657.033.609-.302 1.238-.597 1.84-1.765.671-3.71 1.045-5.438 1.342-2.328.4-4.849 1.249-7.41 2.015zm15.399-4.694c.025-1.256-.4-2.604-1.016-3.524-1.34-2.003-3.705-3.472-6.134-3.604-.854-1.236-2.095-2.346-3.553-3.277.815-.179 1.55-.325 1.772-.312 2.038.113 4.052.915 5.86 1.804 2.463 1.209 4.74 2.96 5.993 5.358-.603 1.259-1.381 2.394-2.671 3.386-.078.06-.168.11-.251.169zm-7.914-2.497c-.184-.129-.43-.144-.662.082-2.54 2.469-5.079 3.671-7.893 4.201-2.031-4.366-5.473-7.229-9.945-9.279.02-.056.053-.093.068-.155.651-2.569 3.537-3.428 6.838-3.13a.666.666 0 0 0 .652.075c5.208.697 11.128 4.112 10.942 8.206zm-13.781-10.861a11.61 11.61 0 0 0-1.234.16c.839-1.134 1.761-2.197 2.854-3.178-.682.89-1.233 1.89-1.62 3.018zm-47.131 38.695c-.132-.169-.27-.334-.382-.515.178-.1.36-.194.533-.297a1.32 1.32 0 0 0-.151.812zm1.93 1.77l.027.02-.027-.02zm24.839 135.486c-.322-1.052-.511-2.712-.967-4.092 2.447.188 4.905.25 7.362.197-1.774 3.099-2.989 6.304-3.83 9.583-1.106-1.741-1.914-3.564-2.565-5.688zm184.729-1.351c-4.918 6.598-10.761 12.474-16.23 18.602-3.09 3.463-6.046 7.039-8.812 10.766-2.923 3.939-4.897 8.443-7.61 12.52-1.12 1.685-1.648 1.981-3.592 1.614-1.566-.296-3.167-.32-4.755-.351-4.822-.092-9.655.686-14.415 1.359-9.596 1.357-18.905 2.221-27.999-1.878-.052-.023-.095-.017-.144-.027.616-4.769 3.085-9.308 4.793-13.78 3.657-9.58 7.765-20.464 8.014-30.811.027-1.132-1.391-1.307-1.678-.229-2.302 8.648-3.816 17.27-6.795 25.771-2.52 7.196-7.523 14.979-6.589 22.846.426 3.593 1.274 7.089 1.426 10.718.191 4.605-1.622 6.519-6.026 6.729-3.122.148-7.635-.788-8.715-4.219-.789-2.509-.084-4.838-1.043-7.114.043-.023.08-.051.124-.073 1.124-.581.759-2.846-.609-2.312-4.616 1.795-6.044 7.13-5.482 11.714-2.708.115-5.499.271-8.039-.729-.15-.498-.569-.877-1.224-.718-2.327.565-4.35.755-5.28-1.844-.915-2.556-.597-5.64-.332-8.28.509-5.067 1.765-10.035 2.96-14.974 2.305-9.524 1.759-19.956.873-29.632-.494-5.392-2.065-10.682-3.58-15.855-.595-2.029-1.001-6.626-2.883-7.976-.373-.268-.735.253-.623.598 1.215 3.747 1.752 8.028 2.767 11.873 1.737 6.586 2.425 13.067 2.69 19.856.351 9.002-.76 17.344-2.716 26.039a78.868 78.868 0 0 0-1.438 8.856c-.48-.458-1.217-.521-1.622.339-2.509 5.321-7.427 8.876-11.87 12.508a224.536 224.536 0 0 1-15.855 11.829c-4.661 3.171-9.368 6.559-14.605 8.709-2.732 1.122-5.583 1.505-8.445.712-2.09-.579-2.365-2.468-3.118-4.105.229-.266.329-.653.159-1.114-1.434-3.894-2.1-7.997-3.699-11.836-1.111-2.669-5.176-5.874-5.01-8.925 1.634-.709 3.328-2.285 4.235-3.128 2.521-2.338 4.346-5.361 6.176-8.239 3.234-5.084 6.807-8.71 11.675-12.197 4.999-3.58 10.121-6.972 14.867-10.893 7.282-6.017 15.344-15.241 11.094-25.31-.551-1.304-2.165-.176-1.847.972 2.885 10.381-5.015 17.907-12.51 23.86-7.008 5.566-15.869 9.815-21.516 16.896-3.466 4.346-5.66 9.596-9.783 13.43-.776.722-3.064 1.564-3.373 2.374.479-1.255 1.141-2.401 1.601-3.673 1.293-3.572 2.432-7.126 3.069-10.88 1.649-9.723.683-19.816 2.354-29.361.643-.085.931-1.147.471-1.708-.039-.048-.073-.096-.112-.143.876-4.072 2.3-8.032 4.696-11.807a92.249 92.249 0 0 0 7.566-.698c9.833-1.314 19.695-3.765 28.656-8.073 7.993-3.843 15.193-9.285 20.938-16.047 6.627-7.801 9.567-17.658 13.264-27.016 4.245-10.75 9.818-20.767 13.002-31.947 3.12-10.957 3.55-22.572 1.963-33.816-1.49-10.558-4.996-20.747-11.592-29.198-3.74-4.79-8.488-8.676-12.434-13.294-4.062-4.754-7.77-9.812-11.791-14.605a.814.814 0 0 0-.268-.219c4.611 2.129 8.889 5.084 12.732 8.291 6.358 5.306 10.448 11.927 14.824 18.812.598.94 1.871.201 1.531-.806-2.545-7.529-8.479-14.369-14.394-19.51-6.11-5.312-13.258-9.727-21.159-11.754-5.092-1.308-13.697-2.122-20.694-.356 2.019-.869 4.069-1.652 6.039-2.411 11.658-4.488 23.042-3.946 35.177-2.436 1.224.152 1.362-2.213.218-2.458-10.727-2.293-21.622-1.965-31.999 1.146 5.555-9.596 22.155-4.563 31.112-7.101 3.423-.97 6.686-3.181 9.903-4.685 4.561-2.133 9.294-3.925 14.26-4.833 8.345-1.527 18.507.391 22.496 8.601 2.793 5.751 2.513 12.873 2.797 19.106.334 7.3 1.962 14.161 4.105 21.139 2.827 9.199 4.967 17.802 4.89 27.495-.04 5.046.071 10.656-1.848 15.385-1.062 2.616-2.062 6.271-4.076 8.304-1.083 1.094.547 2.993 1.723 1.807.014-.014.024-.03.038-.044 2.282 1.683 4.135 3.033 5.666 5.535 1.386 2.266 2.426 4.74 3.565 7.133 1.604 3.37 3.856 7.515 7.421 9.188-.634.221-1.137 1.168-.721 1.985 1.418 2.786 4.286 4.297 6.148 6.741 2.575 3.38 5.717 6.347 8.754 9.302 6.892 6.704 13.334 13.708 19.954 20.673 5.697 5.993 14.183 11.094 16.508 19.468 2.336 8.4-3.601 17.463-8.344 23.827z"/><path d="M239.682 488.445c-13.741 2.705-26.294-3.882-34.826-14.508-2.61-3.251-4.305-7.104-6.096-10.838-.905-1.886-3.981-7.157-3.674-8.694.059-.295-.152-.619-.475-.536-3.119.797 6.079 17.943 7.571 20.069 8.053 11.473 23.632 21.52 38.079 16.708 1.227-.408.725-2.458-.579-2.201zM208.099 504.049c-4.517 16.614-10.771 32.801-18.352 48.248-.604 1.23 1.108 2.566 1.783 1.164 7.604-15.785 13.495-32.07 17.648-49.086.191-.776-.854-1.152-1.079-.326z"/></svg>