<svg version="1.1" xmlns="http://www.w3.org/2000/svg" x="0" y="0" width="411.023" height="198.391" viewBox="-42.52 -46.286 411.023 198.391" xml:space="preserve"><path d="M159.191 36.248c-1.437.354-2.894-.001-4.324-.216-.777-.116-1.063 1.11-.299 1.225 1.659.25 3.299.616 4.961.207.752-.186.429-1.405-.338-1.216zM157.63 33.876c.625-.185 1.275-.238 1.899-.421.742-.219.422-1.44-.338-1.215-.625.185-1.275.238-1.899.421-.742.217-.422 1.44.338 1.215z"/><path d="M365.241 40.122c.246-1.346.339-2.722.457-4.12.023-.275-.203-.525-.449-.603-2.725-.866-5.7-1.35-8.561-1-.276-.866-.69-1.634-1.305-2.227-4.716-4.542-12.965-6.286-19.07-7.399-4.618-.843-8.585-2.483-12.595-4.892-3.185-1.915-6.283-3.725-9.938-4.552-3.882-.878-8.073.043-12.001.006-5.038-.046-8.886-3.15-12.616-6.164.267-.385.111-1.062-.46-1.013l-1.106-.191-.005-.001c-3.274-3.363-9.235-1.601-12.392-5.327-.263-.31-.761-.186-.935.143l-.012.019c-.006-.011-.005-.024-.012-.035-.952-1.614-5.031-1.4-6.625-1.563-2.754-.281-5.512-.702-8.271-.906-1.381-.103-10.538-.738-13.664.667a.505.505 0 0 0-.447-.191 40.905 40.905 0 0 0-10.879 2.092c-3.915 1.312-7.107 3.843-10.911 5.274-8.371 3.151-16.951 5.869-25.638 8.027-7.505 1.865-14.759 4.464-22.23 6.44-5.415 1.433-11.486 3.193-15.127 7.727-2.53.186-4.685 1.757-7.217 1.879-.325.015-.618.305-.591.644.156 1.933-.178 3.826-.404 5.74-.048.397.149.779.592.792 2.146.063 4.333.763 6.466.563 2.986 2.208 7.14 1.853 10.597 1.245 4.551-.8 8.913-2.277 13.383-3.401 3.098-.779 6.056-1.907 9.071-2.951 3.195-1.106 6.561-1.58 9.841-2.364 6.021-1.438 12.715-2.016 18.447-4.399.348 2.786.646 5.627.735 8.399.104 3.131-1.455 6.191-2.453 9.078-1.478 4.281-.806 8.846-1.093 13.289-3.267-1.543-6.71-.302-10.054.633-4.974 1.39-8.621-1.404-13.384-1.795-2.951-.243-5.973.396-8.886.796-2.279.312-8.219 1.746-9.802-.64-.416-.631-1.302-.094-1.084.511a.635.635 0 0 0-.005.205c.182 1.067.348 2.124.396 3.207.012.265.177.542.45.604 6.365 1.433 12.765-.126 19.191.304 3.479.234 6.797 1.466 10.309 1.656 4.056.217 8.268-2.645 12.146-1.131a14.094 14.094 0 0 1-.534 1.507.706.706 0 0 0-.184.267c-2.428 6.704-2.015 13.779-2.308 20.79-.324 7.697-.923 15.234-.72 22.966.2 7.75.9 15.741-.905 23.354-1.177 4.97-5.18 10.218-3.324 15.487-.56.359-.17 1.346.498 1.138 1.117-.349 3.262.156 4.49.109 1.129-.045 2.277-.193 3.39-.386 2.904-.502 5.743-1.259 8.607-1.939a56.618 56.618 0 0 1 4.816-.915.516.516 0 0 0 .555.138c.339-.108.659-.225.973-.348 3.915-.495 7.88-.675 11.797-.758 3.8-.078 6.833-1.149 9.59-3.798 1.809-1.736 3.211-3.685 5.375-5.025 2.399-1.484 5.007-2.633 7.411-4.145 8.565-5.386 14.389-14.764 19.096-23.458 2.79-5.153 4.883-10.557 7.071-15.979.851-2.104 1.595-3.883 1.477-6.189-.109-2.154-1.151-4.1-1.17-6.278.08-.291.143-.595.175-.924.285-3.125.077-6.381-.155-9.498a87.084 87.084 0 0 0-.281-2.981c.048.015.108.027.151.042.462.173.743-.243.715-.646 4.079-.905 7.582 1.046 11.588 1.798 1.854.346 3.751.514 5.632.608 2.021.101 8.016.232 6.635-3.396-.089-.231-.301-.492-.586-.454-4.49.599-8.557-1.917-12.923-2.512-3.911-.532-7.711 1.101-11.606 0a.564.564 0 0 0-.202-.012c-.726-5.057-1.605-10.097-1.878-15.21-.219-4.109-.566-8.194-.731-12.295 3.901 2.528 15.267 4.206 17.18 4.559 8.319 1.533 16.713 2.476 24.996 4.266 4.158.899 8.22 2.184 12.462 2.631 3.931.414 7.883-.241 11.709-1.074.402-.087.493-.47.38-.787.011-.03.027-.051.034-.084.076-.36.152-.754.23-1.166 2.346.319 4.714.419 7.055.776.264.04.552-.035.672-.302.362-.801.606-1.614.785-2.44a.676.676 0 0 0 .103-.512zm-.777-3.642a83.53 83.53 0 0 1-.136 1.601.618.618 0 0 0-.504-.381c-1.895-.21-3.788-.406-5.697-.422-.778-.006-.756 1.26.021 1.266 1.91.017 3.803.211 5.697.422a.46.46 0 0 0 .399-.13c-.031.25-.067.498-.107.743-2.355-.036-4.704-.205-7.052-.387.088-1.209.078-2.437-.107-3.568 2.496-.289 5.089.141 7.486.856zM259.839 1.597c1.907.142 3.815.5 5.726.675 1.538.14 3.075.286 4.609.48.526.067 2.733.138 3.045.667.13.219.314.292.498.286-1.439 2.441-3.205 4.635-4.551 7.166-1.65 3.107-5.939 2.234-8.975 2.072-2.922-.157-6.289.382-8.916-1.095-1.454-.819-7.209-7.147-5.626-9.114.132-.099.222-.259.19-.495-.108-.872 12.811-.73 14-.642zM153.495 38.172c.206-1.584.416-3.165.36-4.765 2.112-.287 3.99-1.433 6.086-1.746a.787.787 0 0 0 .137.194c-.155.857-.145 1.733-.102 2.609a.546.546 0 0 0-.256-.121c-1.249-.229-2.495-.214-3.748-.02-.762.118-.746 1.385.02 1.266 1.139-.177 2.292-.229 3.429-.02a.582.582 0 0 0 .591-.238c.045 1.137.002 2.259-.463 3.317-1.978.328-4.047-.294-6.054-.476zm56.945 24.109c-5.041 1.538-9.552.097-14.534-.729-3.735-.618-7.624-.094-11.37.141a43.452 43.452 0 0 1-5.602-.011c-2.357-.158-2.715-.685-2.948-2.046 1.164.594 2.64.633 3.946.631 3.749-.002 7.484-.859 11.202-1.244 3.99-.413 7.307 1.211 11.125 2.008 5.182 1.081 10.626-3.539 15.449-.842a19.45 19.45 0 0 1-.297 1.789c-2.373-.894-4.451-.466-6.971.303zm80.475 31.412c-2.012 5.048-4.115 9.958-6.704 14.741-5.137 9.485-11.492 18.152-20.868 23.76-2.015 1.203-4.224 2.049-6.125 3.43-1.34.972-2.397 2.379-3.544 3.557-3.824 3.932-7.621 4.131-12.801 4.213-1.807.028-3.633.166-5.459.346 1.083-.816 2.026-1.829 2.923-3.1 1.091-1.547 2.14-3.246 2.637-5.081.469-1.728-.639-3.354-.827-5.022-.225-1.976 1.845-4.235 2.818-5.809 1.067-1.729 1.51-3.56 1.735-5.562.3-2.712-.021-5.373.492-8.086.438-2.332 1.348-4.621 2.288-6.785 1.984-4.563 4.871-6.477 9.558-7.844 4.174-1.217 8.467-1.959 12.644-3.19 7.638-2.255 15.678-5.279 21.396-11.031a.55.55 0 0 0 .272-.098 4.7 4.7 0 0 0 .75-.623c.175 1.014.448 2.004.716 3.028.871 3.326-.704 6.152-1.901 9.156zm.348-30.027c.04.304.081.606.124.91.013.091.019.183.03.273-6.174-.496-23.071.514-24.969-2.704 4.077 1.637 8.888.72 13.106.205 1.203-.147 10.955-.453 10.687.722-.151.666.663 1 1.022.594zm15.558-.045c2.399.628 4.729 1.767 7.224 1.987.533.049 3.707-.403 2.064.696-.632.421-1.594.463-2.316.535-2.692.272-5.541-.079-8.196-.537-4.54-.781-8.309-3.002-12.952-1.592-.069-.548-.136-1.093-.21-1.64 4.745 1.212 9.558-.715 14.386.551zm38.464-19.103c-4.094-.144-8.068-1.5-12.032-2.41-7.598-1.743-15.315-2.927-23.024-4.047-2.088-.304-18.786-3.739-20.622-5.076-.029-1.028-.063-2.056-.061-3.086.003-1.004.608-6.998-1.265-6.969-.779.012-.761 1.278.02 1.266-.387.005-.013 2.313.015 3.116.057 1.625.035 3.251.02 4.875-.001.067.004.135.003.203-.019.128-.019.252.005.376-.009 4.592.391 9.244.823 13.807.493 5.197 1.179 10.33 1.88 15.491-1.317-1.358-5.525-1.202-6.694-1.237-5.906-.164-12.836 2.668-18.346-.257-.338-.178-.805-.013-.873.393-1.218 7.021 19.779 4.45 26.426 5.14.268 2.258.47 4.519.554 6.794.072 1.929.588 5.563-.689 7.433a.536.536 0 0 0-.391.186c-6.031 6.612-15.031 9.615-23.401 12.029-5.936 1.713-15.431 1.838-19.201 7.514-2.018 3.042-3.314 6.531-4.24 10.046-1.32 5.026.168 10.051-2.707 14.706-1.774 2.875-3.125 4.869-1.933 8.261.979 2.784-1.443 5.929-3.086 8.063-1.117 1.452-2.585 2.335-4.226 2.975a84.546 84.546 0 0 0-7.632 1.445c-2.776.659-5.513 1.38-8.344 1.791-1.454.21-2.921.246-4.386.241-.427 0-.925-.091-1.415-.143a.553.553 0 0 0-.13-.13c-1.957-5.376 2.725-11.799 3.764-17.063 1.31-6.637.703-13.67.502-20.379-.217-7.358-.163-14.643.542-21.976.715-7.436-.198-14.884 2.231-22.07a.635.635 0 0 0 .124-.173c2.825-6.302.866-13.248 2.588-19.778.749-2.842 2.333-5.44 2.453-8.447.145-3.704-.467-7.671-.96-11.345-.106-.792-1.301-.785-1.193.021.03.23.06.465.088.696-5.16 2.183-11.028 2.598-16.449 3.933-2.92.719-5.851 1.322-8.789 1.952-3.281.704-6.402 2.136-9.588 3.168-3.904 1.267-7.998 2.265-11.98 3.265-3.736.938-8.866 2.221-12.603.422.56-.279.396-1.18-.135-1.224.544-2.404-.496-4.995.648-7.271a.68.68 0 0 0 .063-.228c3.914-4.501 10.366-5.976 15.926-7.429 6.929-1.809 13.631-4.271 20.585-6.008 4.042-1.009 8.079-2.01 12.048-3.282 3.906-1.25 7.623-2.979 11.555-4.173 3.577-1.087 6.372-3.084 9.765-4.596 4.17-1.86 8.567-2.925 13.107-3.244-1.407 2.17 1.489 5.805 2.647 7.454 2.544 3.62 5.529 4.67 9.806 4.526 3.427-.116 8.116 1.363 11.313-.312 1.29-.676 1.891-2.356 2.525-3.578 1.133-2.171 2.746-3.999 3.991-6.102 3.697 3.403 10.426 1.183 12.879 6.31.231.479.73.353.967.015 2.148 1.712 4.32 3.384 6.748 4.706 2.936 1.598 6.304 1.583 9.553 1.427 4.595-.221 8.675-.4 12.969 1.557 3.586 1.636 6.746 4.069 10.329 5.727 3.485 1.612 7.365 2.109 11.103 2.816 3.489.659 6.685 1.9 9.896 3.376 2.188 1.005 5.32 2.233 6.101 4.64-.376.254-.236.902.188 1.083.136 2.511.111 5.259-.397 7.719-.004.02.001.035 0 .054-3.313.697-6.575 1.132-9.958 1.015zm11.675-4.07c2.304.179 4.605.341 6.915.388a10.33 10.33 0 0 1-.416 1.249c-2.202-.3-4.423-.416-6.624-.72.045-.3.087-.607.125-.917z"/><path d="M147.87 21.992c.228.315.66.43.951.112 6.699-7.305 13.876-14.168 20.044-21.945.265-.332.127-.75-.132-.961a.564.564 0 0 0 .004-.652c-4.368-6.748-10.405-12.105-16.886-16.774-3.482-2.508-7.091-4.908-10.674-7.27-1.43-.941-2.914-1.817-4.497-2.474-2.201-.914-5.005-1.209-6.352-3.444-.329-.543-.995-.254-1.096.215-.19-.319-.598-.488-.902-.118-3.095 3.77-8.853 3.155-12.996 1.628-3.775-1.391-7.107-4.071-11.223-4.311-.287-.333-.724-.246-.946.019-6.505 2.07-12.895 4.419-19.018 7.341-.179-.229-.356-.459-.55-.682-.533-.616-1.336.327-.833.909.091.105.169.215.257.322-2.809 1.381-5.566 2.875-8.239 4.544-3.668 2.289-7.305 4.657-10.768 7.246-.88.658-3.25 2.09-3.868 3.512-.456-.134-1.01.389-.691.919 1.978 3.278 5.051 5.527 7.721 8.197 3.603 3.605 5.015 8.83 6.351 13.598.089.318.426.532.751.429 3.452-1.081 7.1-1.129 10.558-2.14-.218 1.421-.431 2.84-.622 4.258a352.535 352.535 0 0 1-3.389 20.378c-1.398-2.695-4.117-5.238-5.691-7.342-1.612-2.159-2.664-4.639-3.941-6.999-1.895-3.501-4.045-6.864-6.204-10.207C58.684.537 53.205-10.704 43.807-17.927c-.402-.309-.771.027-.836.435a.515.515 0 0 0-.362-.285c-3.318-.555-6.485 1.599-9.189 3.246-4.342 2.645-8.641 5.401-13.071 7.895C14.198-3.172 5.3-2.059.996 4.048c-.436.619.494 1.214.982.687a.58.58 0 0 0 .084.373c3.393 5.42 3.895 12.014 5.453 18.084 1.725 6.733 5.127 13.38 8.321 19.517 3.406 6.543 7.52 12.725 11.35 19.023 4.135 6.795 7.85 13.751 11.354 20.891 5.257 10.717 10.208 21.525 14.792 32.547 1.684 4.054 3.37 8.106 5.052 12.159.831 2.003 1.915 4.065 2.548 6.16l-.22.102c-.708.328-.093 1.419.633 1.083 7.903-3.647 15.68-7.604 23.911-10.482.318-.111.429-.4.402-.676.341-.057.622-.336.446-.744-6.282-14.508-13.301-28.536-20.291-42.708-6.716-13.613-11.184-28.352-18.393-41.71 5.185 5.448 10.131 11.11 14.704 17.085 4.926 6.437 8.917 13.422 13.304 20.218 4.444 6.885 9.632 13.143 13.701 20.284 1.974 3.458 4.242 6.678 6.334 10.053 1.509 2.439 2.373 5.2 4.083 7.512-.336.442.213 1.236.84.915 3.825-1.954 6.729-5.381 10.139-7.929 3.536-2.641 7.73-4.04 10.985-7.091a.544.544 0 0 0 .184-.163c.041-.038.085-.071.126-.111.385-.378.102-.907-.296-1.029-4.142-11.296-12.06-21.03-20.208-29.767 1.031.102 2.066.203 3.099.294 10.842.969 21.638 2.028 32.218 4.718a.549.549 0 0 0 .434-.06c.174.566 1.062.729 1.151.028 2.067-16.051 1.851-32.064 2.243-48.2.061-2.52.214-5.029.396-7.535 1.793 2.123 5.301 2.039 7.013 4.416zm-29.73-49.64c2.992.544 6.131.59 8.677-.811-2.831 4.616-5.684 9.345-9.006 13.561-1.287 1.632-2.927 3.239-4.377 4.954-3.618-7.313-4.211-15.703-8.448-22.725 4.601.65 8.538 4.182 13.154 5.021zm8.007 3.439c.774.482 1.542.976 2.311 1.466a.653.653 0 0 0-.218.204c-2.481 3.715-4.517 7.689-6.809 11.518-2.166 3.619-5.112 6.705-7.679 10.045a26.161 26.161 0 0 1-2.137-3.78c.001-.004.004-.006.005-.009 1.302-3.921 5.487-7.128 7.928-10.384 2.256-3.011 4.313-6.233 6.319-9.471a.602.602 0 0 0 .28.411zM112.594-8.901c-.639.837-1.2 1.708-1.641 2.624-.896-2.167-1.637-4.408-2.486-6.64-1.521-3.994-3.731-7.694-5.507-11.578 1.295-.413 2.593-.827 3.89-1.236 1.972 5.571 3.016 11.507 5.744 16.83zm-9.113-23.861c1.212 1.858 2.146 3.824 2.927 5.85-6.407 2.022-12.782 4.179-19.406 5.364a19.417 19.417 0 0 0-2.129-4.11c6.001-2.841 12.298-5.096 18.608-7.104zM75.95 10.575c-2.133.42-1.908-1.326-2.461-3.078-.444-1.403-.993-2.763-1.573-4.113C69.547-2.148 64.373-4.882 61.1-9.585c.081-.1.13-.234.105-.415-.181-1.396 4.891-4.296 5.851-4.972 3.065-2.163 6.231-4.183 9.417-6.159 2.354-1.461 4.795-2.776 7.285-3.995a16.978 16.978 0 0 1 1.998 3.852c-.422.274-.184 1.063.378 1.125 1.208 3.986 1.236 8.387.989 12.534-.331 5.499-1.227 10.987-2.076 16.456-2.951.958-6.061 1.135-9.097 1.734zM19.983-5.017c4.023-2.024 7.725-4.684 11.604-6.963 1.31-.771 2.605-1.564 3.911-2.341a30.512 30.512 0 0 1 2.924-1.528c.265-.121 3.587-1.092 2.668-.379a.633.633 0 0 0-.246.477c-2.442 1.894-4.485 4.223-6.728 6.351-1.747 1.657-3.744 3.113-5.809 4.457-.019-.015-.03-.035-.049-.049a1.11 1.11 0 0 0-.139-.173c-.393-.389-.971-.325-1.447-.159-.252.088-.455.338-.434.619.024.329.105.646.162.968l-.292.179c-.228-.138-.53-.085-.728.098-.394.012-.764.075-1.171.314-.287.168-.349.555-.203.837a105.255 105.255 0 0 1-.587.343c-.319-.305-.891-.302-.959.257-.013.103-.025.21-.036.315-5.54 3.12-12.763 6.233-19.066 4.536 4.223-4.226 11.507-5.585 16.625-8.159zM2.434 4.193c-.006.001-.011.005-.016.007a.043.043 0 0 0 .007-.01l.009.003zm118 94.498c-3.35 3.052-7.692 4.58-11.307 7.28-2.92 2.181-5.381 5.012-8.53 6.877-1.939-2.483-2.899-5.621-4.554-8.289-2.13-3.433-4.399-6.729-6.406-10.25-4.067-7.134-9.347-13.4-13.792-20.287-4.393-6.808-8.45-13.712-13.384-20.161-4.866-6.359-10.214-12.344-15.784-18.094-.242-.251-.525-.215-.734-.059l-.015-.027c-.409-.709-1.429-.029-1.034.657 7.906 13.699 12.46 29.108 19.353 43.32 6.996 14.431 14.247 28.601 20.604 43.338-7.836 2.747-15.271 6.456-22.785 9.959-.59-1.844-1.532-3.666-2.265-5.436-1.677-4.044-3.363-8.086-5.046-12.132a564.949 564.949 0 0 0-14.07-31.189c-3.509-7.182-7.13-14.236-11.233-21.102-3.997-6.688-8.313-13.199-12.042-20.045-3.61-6.63-7.091-13.805-8.973-21.137C6.917 16 6.401 9.739 3.09 4.454c-.028-.041-.06-.063-.088-.094 6.04 1.666 12.793-.989 18.144-3.646.378-.187.745-.401 1.119-.599-.358 4.08-.255 9.153 2.298 12.271 1.161 1.417 2.71 2.45 4.211 3.475 1.038.711 4.503 2.327 4.63 3.701.077.804 1.298.79 1.219-.021-.211-2.173-3.709-3.743-5.255-4.784-2.26-1.524-3.863-2.758-4.898-5.352-1.26-3.157-1.281-6.637-.931-9.976.481-.268.955-.546 1.428-.828.36.234.757.362 1.134.152.383-.212.468-.618.443-1.036a.484.484 0 0 0 .158-.17c.261-.166.517-.338.776-.506.322.63.938 1.118 1.792 1.37.769.228 1.536.361 2.321.519 1.845.37 1.904 2.394 2.267 3.708.32 1.161 1.287 2.433 2.017 3.369 3.965 5.095 10.153 8.719 16.673 6.557.745-.247.416-1.467-.342-1.215-6.36 2.11-12.329-1.787-15.923-6.879-1.25-1.772-1.186-4.318-2.688-5.84-.852-.862-4.252-1.078-4.99-2.243a.645.645 0 0 0 .053-.134 100.123 100.123 0 0 0 3.743-2.659c3.592-2.69 6.268-6.391 9.951-8.95a.62.62 0 0 0 .255-.644c.195-.271.34-.58.439-1.005l.001-.021a.636.636 0 0 0 .174.202c9.214 7.082 14.527 18.225 20.734 27.78 3.373 5.19 5.983 10.832 9.303 16.013 1.01 1.579 2.241 3.034 3.404 4.501 1.176 1.482 3.264 3.595 3.713 5.621-.232 1.14-.453 2.279-.697 3.419-1.788 8.39-3.389 16.81-6.364 24.884-.143.386.225.789.6.792 8.55.052 17.034 1.084 25.528 1.954 8.414 8.924 16.756 18.882 20.992 30.551zm16.689-26.483c-.056-.037-.112-.074-.187-.092-9.874-2.512-20.041-3.783-30.185-4.575a291.532 291.532 0 0 1-6.795-.621.502.502 0 0 0-.525-.052c-8.213-.83-16.414-1.815-24.674-1.926 2.931-8.208 4.528-16.769 6.341-25.274.119-.552.218-1.105.332-1.657.169-.094.289-.265.261-.53-.016-.141-.046-.28-.073-.42 1.741-8.588 3.074-17.196 4.266-25.891 1.288-9.38 4.61-21.746 1.537-31.517 4.893-.88 9.65-2.285 14.385-3.781 2.036 4.532 4.693 8.819 6.214 13.563 1.196 3.73 2.659 7.427 4.958 10.62l-.049.065c-.449.621.388 1.539.866.882.085-.118.179-.229.264-.346a.586.586 0 0 0 .349-.457c2.449-3.263 5.182-6.299 7.496-9.667 2.728-3.972 4.707-8.435 7.383-12.449a.616.616 0 0 0 .098-.239c4.926 3.146 9.788 6.387 14.7 9.554.053.034.104.044.156.06-1.461 4.042-2.23 8.331-2.794 12.625-.935 7.119-1.742 14.287-2.071 21.46-.781 16.949-.156 33.78-2.253 50.665zm3.837-56.003c.371-4.61.875-9.208 1.399-13.815.81-7.116 1.996-14.37 5.915-20.509.423-.662-.604-1.309-1.041-.622-1.027 1.611-1.854 3.305-2.552 5.042-.002-.001-.003-.005-.007-.007-5.988-3.859-11.896-7.837-17.938-11.606a.528.528 0 0 0-.393-.075c.984-1.594 1.962-3.188 2.941-4.76a.542.542 0 0 0 .034-.547c.005-.016.002-.032.005-.047 1.37 2.244 3.97 2.92 6.324 3.726 4.074 1.394 7.61 4.469 11.13 6.859 7.957 5.404 15.627 11.173 20.93 19.357.057.087.124.15.193.197-6.019 7.565-12.984 14.274-19.527 21.369-1.972-1.923-5.45-2.043-6.859-4.287a.55.55 0 0 0-.554-.275zM183.631-12.913a.57.57 0 0 0 .628.101c.144.354.343.705.636 1.049 3.001 3.55 8.415 3.452 12.67 3.672 4.813.25 13.607-.102 15.657-5.634.987-2.662.561-5.475.711-8.252.102-1.889 1.468-3.879.574-5.712-.05-.101-.114-.167-.173-.244a.62.62 0 0 0 .044-.382c-1.151-5.715-11.077-4.557-15.164-4.177-2.219.207-6.063-.033-7.514 2.066-1.391 2.011-.521 4.707 1.399 5.906-2.635.376-5.309-.476-7.981-1.444-3.329-1.208-8.961-3.022-9.905 1.962-.331 1.745.348 3.592 1.117 5.122 1.525 3.042 4.871 3.869 7.301 5.967zm10.484-12.46c-2.916-1.102-2.108-4.449.235-5.232.961-.322 2.024-.362 3.028-.442 1.555-.125 3.101-.299 4.661-.38 2.99-.157 9.788-.588 11.046 3.024-.632.039-1.343.258-1.963.242l-2.046.263c-1.689.218-1.885-.889-3.018-1.371-1.053-.448-1.919-.457-3.034-.262-2.412.421-4.563 2.514-6.566 3.773a8.707 8.707 0 0 1-1.94.911c-.033-.224-.154-.433-.403-.526zm4.932-.603c1.678-1.152 3.342-2.379 5.453-2.451.933-.032 2.475 1.328 3.456 1.746.832.355 2.333-.106 3.188-.216.55-.072 1.202.147 1.756.002 1.416-.369.721.869.396 1.898-.571 1.818-.629 3.716-.612 5.608.026 2.985-.021 5.528-2.567 7.591-2.54 2.054-6.462 2.28-9.567 2.409-3.894.162-8.103.049-11.819-1.201-3.521-1.183-3.689-3.942-3.221-7.273.236-1.673-1.546-5.438-.396-6.67a.653.653 0 0 0 .132-.216c1.765.606 3.327 1.231 4.147 1.419 3.755.859 6.634-.574 9.654-2.646zm-15.018.827c-1.82 2.205.103 3.526.351 6.178.152 1.621-.457 3.217-.41 4.745-3.365-2.68-7.504-3.972-7.62-9.083-.084-3.667 3.968-3.005 7.679-1.84z"/><path d="M189.175-16.974c3.034.789 6.124.668 9.232.654.78-.003.761-1.269-.02-1.266-2.998.013-5.984.148-8.913-.613-.766-.199-1.047 1.032-.299 1.225zM201.203-16.341c3.331 1.151 6.166-.576 9.112-1.97.696-.33.097-1.424-.623-1.083-2.648 1.253-5.186 2.865-8.19 1.828-.748-.259-1.024.976-.299 1.225zM191.517-15.605c-.728-.328-1.292.787-.59 1.103 5.617 2.532 11.777 1.419 17.557.056.75-.177.429-1.396-.339-1.215-5.412 1.275-11.345 2.439-16.628.056zM204.981-12.708c-2.84 1.073-5.719 1.073-8.703 1.241-.778.044-.761 1.311.02 1.266 3.1-.175 6.079-.18 9.022-1.292.718-.271.401-1.493-.339-1.215zM240.212-14.329c-.135 1.771.781 3.446 2.31 4.343 1.729 1.015 3.486.132 4.511-1.381.442-.652-.59-1.294-1.044-.622-1.69 2.498-4.388.423-4.577-1.901.204.067.413.13.623.193-.271.161-.45.512-.257.871.859 1.591 2.395 1.522 3.778.635a.59.59 0 0 0 .266-.613c4.651.86 9.65 1.121 12.35 1.653a4.335 4.335 0 0 1-.579.41c-.664.394-.066 1.494.626 1.083 1.804-1.071 2.555-2.818 2.479-4.763.356-.079.678-.515.464-.959-.192-.401.089-.942.544-1.013.934-.146.431 2.294.362 2.642-.298 1.515-1.033 3.024-2.128 4.117-1.6 1.595-3.179-.109-4.053-1.526-.429-.695-1.441-.015-1.027.657 1.202 1.95 3.085 3.666 5.363 2.226 1.239-.783 2.076-2.189 2.593-3.687-.025.338.167.706.585.711 7.15.094 12.145-9.555 9.848-15.793-.279-.762-1.424-.396-1.147.354 2.027 5.508-2.357 14.255-8.72 14.171a.527.527 0 0 0-.445.208c.29-.937.457-1.894.512-2.745.083-1.313-.594-2.957-2.167-2.526-.824.226-1.276.949-1.345 1.719-.299.082-.572.374-.5.776.188 1.062.065 2.042-.389 2.867-.047-.026-.09-.057-.15-.07-5.417-1.251-26.572-.613-21.595-10.64.327.453.803.91 1.459 1.371 2.746 1.93 5.881 2.695 9.118 3.334 2.232.441 7.687 1.377 10.401.009 5.965 1.521 19.97-7.24 10.677-11.949l-.005-.001c.027-.115.062-.222.081-.343.046-.266-.029-.572-.288-.71-1.641-.88-3.206-2.234-5.155-2.191a.531.531 0 0 0-.323.117.512.512 0 0 0-.578-.035.61.61 0 0 0-.151-.535c-5.075-5.522-10.485-4.692-16.413-1.138-2.89-1.017-5.849 3.309-5.748 6.062a.717.717 0 0 0-.133.482c-.197-.275-.592-.42-.921-.117-1.549 1.424-2.729 2.85-2.565 4.313a.573.573 0 0 0-.27.248c-2.885 5.155-.479 8.002 3.723 9.686zm2.592.852a35.05 35.05 0 0 0 1.751.419c-.675.35-1.304.403-1.751-.419zm20.493-18.762a.548.548 0 0 0 .315.092c1.508-.034 2.862 1.034 4.146 1.796-1.05 4.134-5.902 4.845-9.554 5.604.055-1.511-.729-2.841-1.752-3.989 2.446-.259 4.825-1.371 6.845-3.503zm-16.495-1.715c2.383-1.423 4.667-2.39 6.883-2.578 1.398 1.961 1.522 4.277 1.517 6.599-3.051-.035-6.109-1.487-8.512-3.871a.733.733 0 0 0 .112-.15zm14.907.996a.52.52 0 0 0 .369.181c-1.722 1.667-3.677 2.554-5.682 2.782-.005-2.282-.14-4.563-1.281-6.551 2.254.172 4.441 1.241 6.594 3.588zm-16.754-.917c2.673 3.165 6.359 5.096 10.048 5.196a.592.592 0 0 0 .164.363c1.104 1.125 2.14 2.45 1.764 4.091-5.419 1.922-11.463-.285-15.327-4.395-.002-.04.007-.076-.003-.118-.337-1.499 1.489-4.823 3.354-5.137zm-4.769 6.179a.538.538 0 0 0 .189-.44c.009.01.01.022.019.031 4.461 5.065 11.777 7.438 18.083 4.584h.019c3.802-.791 8.468-1.673 10.076-5.429 6.745 3.65-3.882 9.831-9.052 9.631.432-.733.5-1.732.017-3.088-.273-.766-1.421-.401-1.152.355 1.78 5.023-7.806 3.048-10.203 2.599-1.469-.274-2.945-.592-4.379-1.015-1.355-.398-2.624-1.03-3.83-1.759-2.847-1.719-1.727-3.683.213-5.469zM314.238-23.949c-.046-.052-.055-.115-.029-.188-.018-.811-1.208-.792-1.191.021.009.435.129.736.391 1.077.494.642 1.292-.307.829-.91zM319.583-21.194c.76.222 1.034-1.011.297-1.227-.697-.204-1.014-.792-1.325-1.403-.372-.732-1.375-.041-1.022.656.463.91 1.032 1.677 2.05 1.974zM310.271-22.219c.003.475.008.976.297 1.372.479.655 1.485-.02 1.022-.656-.158-.217-.125-.48-.126-.738-.001-.809-1.196-.788-1.193.022zM322.324-22.895c.166.715.186 1.423.186 2.154.001.811 1.195.79 1.195-.021-.001-.845-.044-1.664-.237-2.49-.186-.797-1.325-.417-1.144.357zM324.197-21.375v2.111c0 .811 1.196.79 1.196-.021v-2.111c.001-.811-1.196-.789-1.196.021zM328.182-16.532c.524 0 1.037-.012 1.528.191.726.303.999-.933.299-1.226-.581-.242-1.229-.23-1.847-.231-.778-.001-.757 1.265.02 1.266zM330.365-14.339c-.721-.345-1.28.771-.588 1.103.906.434 1.828.694 2.835.714.776.017.756-1.249-.02-1.266a5.357 5.357 0 0 1-2.227-.551zM335.126-10.202c-.396-.001-.736-.035-1.106-.191-.725-.305-.998.932-.299 1.227.462.194.929.228 1.426.23.778.004.755-1.262-.021-1.266zM336.397-2.214c-.577-.575-1.388.36-.836.909.362.361.725.699 1.181.94.71.377 1.271-.739.589-1.103-.369-.195-.64-.454-.934-.746z"/><path d="M306.144-18.724c.075.04.146.053.217.062.939 1.002 1.47 2.278 2.025 3.535.727 1.655 1.828 3.08 2.907 4.514 2.07 2.755 4.788 4.996 7.512 7.083.343.262.655.054.781-.262.024.017.036.037.063.052 2.063 1.075 3.504 2.904 5.133 4.511 1.747 1.723 3.989 2.477 6.05 3.718.691.417 1.25-.705.59-1.103-2.2-1.326-4.393-2.13-6.262-3.975-1.568-1.546-2.938-3.222-4.921-4.255-.347-.181-.655-.006-.806.259-.015-.014-.023-.033-.039-.047-3.116-2.387-5.859-4.977-8.199-8.138-1.652-2.237-2.235-5.311-4.341-7.169a.559.559 0 0 0-.562-.125c-.554-.316-1.174-.748-1.393-1.287-.024-.053-.056-.089-.086-.131a.566.566 0 0 0 .321-.544c-.062-6.66 3.25-14.036 9.265-17.295-1.251 1.491-2.192 3.263-2.843 5.118-.263.755.888 1.083 1.155.318.843-2.416 2.28-4.763 4.349-6.303a.549.549 0 0 0 .354-.168c1.06-1.063 2.714-.721 4.219-.527-1.92 1.063-3.453 2.781-4.954 5.049-.433.655.59 1.301 1.038.622 2.913-4.403 6.013-6.308 11.419-5.297 4.741.886 8.407 4.273 11.703 7.551a.532.532 0 0 0 .494.163c.002.258.123.519.405.628 2.563.988 5.027 2.708 6.923 4.704a.666.666 0 0 0-.171.558c.447 2.849 2.88 4.89 3.271 7.666a.593.593 0 0 0-.132.395c.1 4.231-.277 10.281-2.183 15.132.001-.057.005-.111.005-.169.004-.813-1.198-.791-1.202.021-.001.142.048.481-.043.604-.363.499.107 1.175.556 1.087-.838 1.689-1.895 3.171-3.24 4.286-.081-.427-.267-.908-.59-1.46-.412-.708-1.425-.025-1.028.656 1.728 2.956-3.165 2.424-4.859 2.269s-3.541-.407-5.238-.897c1.762-2.473 1.52-5.172 1.781-8.036.264.193.547.363.872.407.776.108 1.063-1.12.299-1.225a1.083 1.083 0 0 1-.574-.263.59.59 0 0 0-.476-.152c-.025-.683-1.042-.946-1.157-.185-.326 2.159.372 9.179-3.088 8.102-3.369-1.051-5.906-4.014-8.478-6.274-1.943-1.708-4.165-3.01-6.15-4.654-2.146-1.776-6.667-8.797-2.847-10.334.302-.121.409-.414.386-.686.714.114 1.418.179 2.04-.04.968 2.804 3.513 2.614 5.976 4.046.172.1.334.105.47.053a.615.615 0 0 0 .163.158c.743.469 1.565.877 2.228 1.463.74.658 1.023 1.678 1.29 2.594.162.555.771.525 1.044.194.664.8 1.528 1.299 2.57 1.338.106 1.192.393 2.349.606 3.532.08.449.472.521.779.367.472.652 1.09 1.134 1.968 1.334.771.176 1.054-1.055.299-1.225-.917-.209-1.391-.772-1.747-1.614a.461.461 0 0 0-.359-.291c-.188-.915-.375-1.822-.398-2.768-.007-.304-.267-.662-.607-.624-1.062.122-1.851-.282-2.433-1.171-.215-.328-.557-.338-.811-.189-.266-.788-.605-1.542-1.163-2.178-.708-.807-1.786-1.301-2.678-1.865-.171-.108-.333-.118-.47-.064a.582.582 0 0 0-.163-.147c-2.257-1.313-4.982-.987-5.627-4.058-.1-.474-.688-.577-1.002-.264-.413.413-1.92.145-2.588.04-.639-.101-.93.714-.589 1.069-1.938.912-2.33 2.038-1.926 4.386.461 2.671 2.836 6.009 4.758 7.852 2.515 2.414 5.678 4.186 8.271 6.568 2.327 2.137 4.629 3.898 7.569 4.85-.046.296.064.637.396.768 1.896.747 9.693 2.302 12.401.644.097 0 .197-.02.301-.081 6.622-3.937 7.949-14.815 7.892-22.036a.611.611 0 0 0 .199-.462c.057-3.433-2.88-5.551-3.4-8.807.229-.227.324-.625.051-.923-2.069-2.247-4.801-4.125-7.65-5.222-.067-.027-.126-.027-.186-.029a.576.576 0 0 0-.184-.446c-3.934-3.902-8.516-7.884-14.351-8.198-1.386-.075-2.589.06-3.676.354a.509.509 0 0 0-.544-.354c-1.313.095-2.689-.253-3.977-.208-.121-.197-.335-.311-.613-.189-1.432.621-2.641 1.542-3.667 2.642.057-.436-.389-.948-.905-.677-6.493 3.413-10.059 11.365-9.995 18.489a.609.609 0 0 0 .087.311c-.244.112-.411.364-.274.701.42 1.032 1.432 1.767 2.394 2.268z"/><path d="M324.79-38.285c-.469.448-1.007.818-1.477 1.266-.558.533.27 1.442.855.881.469-.448 1.007-.818 1.477-1.266.557-.531-.269-1.44-.855-.881zM334.541-35.723c-.017 1.98-.142 4.022-.755 5.921a.614.614 0 0 0-.438.298c-.867 1.355-2.145 2.025-3.657 2.448-.738.207-.423 1.427.336 1.215 1.557-.434 2.829-1.168 3.823-2.356.27.115.634.026.75-.262.93-2.308 1.111-4.818 1.13-7.284.008-.812-1.182-.789-1.189.02zm-.075 6.521l-.005-.018a.163.163 0 0 0 .033-.005.164.164 0 0 1-.028.023zM340.146-21.015c.247-1.779.805-3.496 1.053-5.276.11-.779-1.041-1.129-1.154-.318-.249 1.779-.808 3.496-1.056 5.276-.109.781 1.044 1.129 1.157.318zM334.863-15.033c-.775-.134-1.057 1.093-.3 1.225 5.472.951 10.634-3.413 11.087-8.852.068-.809-1.126-.779-1.191.021-.386 4.61-4.979 8.408-9.596 7.606zM340.35-7.015c-.751-.255-1.028.978-.3 1.225 1.777.604 3.653.48 5.384-.215.712-.287.396-1.51-.339-1.215-1.551.623-3.149.745-4.745.205zM32.903 112.45c.231-.227.33-.623.058-.928-3.824-4.31-5.345-10.148-9.419-14.253-3.071-3.094-7.703-4.948-11.574-2.295a.593.593 0 0 0-.235.336c-1.656-.346-4.454.968-5.393 1.373-10.192 4.396-17.866 15.071-17.873 26.276-.001.791 1.139.786 1.196.032-.399 5.133 1.932 9.077 2.828 14.038-1.123-.439-2.339-.633-3.434-.314-1.134.332-2.046 1.998-1.257 3.017.792 1.026 2.548 1.047 3.714 1.078.478.016.996.018 1.516-.002-.613.647-1.077 1.464-1.532 2.213-.852 1.399-1.93 3.502-3.818 2.377-.696-.413-1.267.704-.597 1.103 1.61.957 3.034.468 4.177-.912 1.081-1.306 1.805-3.858 3.467-4.519.059-.021.102-.062.147-.096 1.756 3.313 4.968 7.559 8.977 7.084.778-.09.763-1.356-.02-1.266-3.666.437-6.563-3.806-8.087-6.798.013-.046.026-.091.027-.14.035 0 .073-.015.11-.026.706 3.718 6.347 5.176 8.927 2.416 1.314-1.407-.069-3.142-1.318-3.959-1.155-.752-2.952-.822-4.65-.578 1.336-2.011 6.749-1.815 8.62-2.229 4.561-1.004 8.208-4.958 11.966-7.468 5.25-3.507 14.232-7.45 13.931-14.99a.585.585 0 0 0-.454-.57zM4.375 99.037c1.248-.694 2.556-1.273 3.886-1.782 1.111-.426 4.32-1.588 3.014.942-1.775 3.437-6.642 3.938-8.592 7.349a.577.577 0 0 0-.005.585c-.428.303-.824.677-1.193 1.047-1.261 1.269-2.182 2.438-3.811 3.312-.935.502-1.81.973-2.645 1.57a.573.573 0 0 0-.695.108c-2.753 2.792-4.225 6.481-4.646 10.356.18-9.636 6.34-18.852 14.687-23.487zm-11.021 36.359a16.424 16.424 0 0 0 2.802-.395c-1.031.686-1.892 1.547-2.393 2.646a12.461 12.461 0 0 0-.441-.244c.229-.13.401-.376.343-.706-.081-.441-.202-.869-.311-1.301zm-3.628 3.968c-.872-.178-1.557-.871-.324-1.432 1.105-.502 2.864.218 3.988.929-.021.117-.062.224-.076.343a.529.529 0 0 0 .077.344c-1.243.131-2.59.039-3.665-.184zm12.159-.301c.948.146 3.125 1.489 1.807 2.535-2.156 1.711-6.15.61-6.653-2.156 0-.003-.001-.003-.002-.005.139-.042.267-.1.409-.137.301.437 1.054.364 1.085-.207 1.135-.174 2.302-.196 3.354-.03zm30.259-26.022c.203 5.025-4.702 8.316-8.424 10.779-3.762 2.487-7.434 4.95-11.079 7.613-3.665 2.676-6.996 2.879-11.212 3.647-1.821.336-3.719 1.141-4.061 2.917-.643.168-1.234.374-1.715.594-.258.116-.376.358-.388.6-.032-.003-.07.01-.105.015a.562.562 0 0 0-.45.094c-.072.021-.149.034-.225.053l.004-.012c.43-.123.721-.674.283-1.019-.006-.005-.014-.01-.02-.017 1.187-3.2 6.778-4.392 9.525-5.308 2.869-.954 6.139-1.862 8.352-4.039.147.289.47.47.815.232 5.988-4.164 11.06-9.595 17.512-13.084.684-.368.078-1.464-.628-1.083-6.454 3.489-11.526 8.92-17.515 13.084-.01.007-.014.019-.023.025-.191-.304-.609-.47-.941-.135-2.197 2.224-5.576 3.232-8.773 4.189 2.395-1.393 4.608-3.089 6.478-4.785.581-.526-.271-1.424-.871-.88-4.032 3.657-9.821 7.374-15.401 7.613a.641.641 0 0 0-.238.063c-.607-2.029-1.403-3.994-1.979-6.046-.959-3.414-.115-7.435 1.141-10.666.544-1.396 1.391-2.636 2.348-3.772a.242.242 0 0 1 .167-.086c.01.002.02-.003.03 0 .714-.02 2.293 2.544 2.54 2.913 1.66 2.505 2.9 5.376 3.651 8.278.206.794 1.364.421 1.162-.354-1.058-4.08-3.06-8.499-6.12-11.54 1.342-.837 2.943-1.341 4.074-2.4 1.788-1.678 3.228-4.633 6.108-3.318 2.966 1.357 5.068 4.767 7.176 7.131.543.606 1.359-.33.841-.909-2.515-2.816-5.239-7.313-9.301-7.916a2.595 2.595 0 0 0-.646-.007c2.454-2.764 9.371-4.602 8.739-8.881a1.683 1.683 0 0 0-.235-.644c4.869-3.18 10.022 1.563 12.588 5.522 2.355 3.635 3.885 7.655 6.791 10.932a.587.587 0 0 0 .199.151.56.56 0 0 0-.174.456zM-.579 89.533c.029-.026.053-.056.083-.08C8.141 87.539 6.366 69.606 4.16 62.65c1.435-.29 2.864-.641 4.284-1.13.349-.121.462-.447.408-.786-.332-2.05.148-4.822 3.069-3.853.754.252 1.034-.982.302-1.224-2.271-.757-3.977-.252-4.628 2.156-.184.688-.12 1.217-.1 1.647-.026-.007-.047-.022-.076-.027-8.302-1.006-16.784-1.292-24.906-3.401a.645.645 0 0 0 .173-.574c-.423-2.303 2.96-3.337 4.612-2.437.708.387 1.272-.732.592-1.103-2.717-1.48-6.983.513-6.36 3.893.004.02.015.031.02.05-.04.01-.074.028-.11.045-.058-.026-.115-.054-.184-.062l-.076-.007c.077-.307-.033-.685-.396-.816-3.038-1.107-8.598-.294-9.329 2.849a.635.635 0 0 0-.074.304c.002.168-.005.343-.006.512.001.033-.005.067-.002.104-.055 8.091-3.199 18.487 1.783 25.584 3.812 5.429 12.381 7.19 18.55 7.19 2.481.003 5.73-.373 7.715-2.031zm1.908-2.385c.857-1.58 1.287-3.408 1.566-5.184.922-5.821.335-13.011-2.126-18.427a.495.495 0 0 0-.315-.295 42.687 42.687 0 0 0 2.512-.345c1.79 5.656 3.53 20.005-1.637 24.251zm-19.274-24.693c-.006-.042-.005-.089-.019-.126.276.038.55.083.826.114-.264.004-.533.009-.807.012zm-.782-5.342c.097.011.182 0 .253-.026l.009.005c6.321 1.726 12.875 2.302 19.399 2.926-3.886.374-7.758.917-11.662 1.103-3.201.153-6.352.161-9.509-.462a11.844 11.844 0 0 1-2.803-.981c-.659-1.489-.419-2.29.725-2.401 1.161-.349 2.405-.3 3.588-.164zm24.858 3.828c-.78.235-1.578.42-2.378.584-.3-.604-1.19-.374-1.157.21-1.532.253-3.08.42-4.618.549-2.41.198-4.826.203-7.241.177 5.168-.402 10.381-1.354 15.394-1.52zm-28.069-5.082c-1.311.177-2.568.611-3.221 1.558-1.29 1.869 1.116 3.373 2.684 3.894 1.161.387 2.337.672 3.526.877a.61.61 0 0 0-.144.267c-2.875-.028-5.926-.342-8.042-1.855a.64.64 0 0 0 .049-.653c-.23-.473-.327-.893-.34-1.275l.001-.205c.126-1.992 3.041-2.682 5.487-2.608zm12.122 34.419c-6.242-.184-14.652-2.643-17.266-8.909-2.47-5.918-.963-13.064-.476-19.565 2.306 1.492 5.377 1.873 8.375 1.929-.278 5.579-.754 11.439 1.129 16.768.271.767 1.435.403 1.165-.354-1.849-5.2-1.365-10.952-1.092-16.407 1.235-.005 2.433-.044 3.541-.066a.665.665 0 0 0-.046.201c-.217 6.047-.194 12.128.864 18.104.144.804 1.305.427 1.165-.355-1.051-5.854-1.033-11.843-.822-17.768.003-.077-.015-.135-.03-.195 4.507-.035 8.98.082 13.396-.376-.295.144-.523.52-.346.909 2.214 4.887 2.541 10.963 2.124 16.233-.219 2.74-.88 5.764-2.839 7.799a6.128 6.128 0 0 1-1.522.116c-.638-.028-.732.791-.331 1.124-2.139.899-4.953.875-6.989.812zM-10.218-4.051c.78-1.294 1.487-2.608 2.493-3.749 2.321-2.635 4.363.553 5.56 1.946C-.874-4.351.793-3.624 2.766-3.67c6.888-.163 8.804-12.41 7.351-17.34-.843-2.857-3.516-7.98-6.374-9.681a.64.64 0 0 0-.114-.221c-3.302-4.136-8.969 1.404-13.102-.336-.186-.617-.37-1.24-.65-1.789a.542.542 0 0 0-.298-.505l-.013-.005c-.026-.035-.048-.075-.076-.107-.167-.21-.365-.238-.54-.172-5.865-2.627-13.249.36-18.625 2.888-2.607 1.225-5.571 2.632-7.06 5.217-.235.408-.383 1.546-.508 2.876-.36-.002-.748.319-.639.795.1.433.239.853.389 1.27.006.083-.002.166.009.251.005.043.025.076.036.114-.162 1.958-.343 3.691-.711 3.674-.78-.033-.758 1.233.021 1.266 1.395.06 1.678-1.287 1.782-2.48.212.566.387 1.145.497 1.741a29.08 29.08 0 0 0-1.968.831c-.431.205-.363.704-.078.971-1.586 4.022-.955 7.076 2.185 10.336 3.857 4.006 8.892 7.974 14.675 8.014 5.116.035 8.423-4.001 10.827-7.989zm7.913-3.861c-1.44-1.699-3.709-2.999-5.722-1.26-3.25 2.807-4.309 7.321-7.786 10.055-2.305 1.813-4.864 2.107-7.366 1.577a.593.593 0 0 0-.259-.19c-7.318-2.659-3.898-10.477.944-13.521 4.146-2.605 8.965-2.949 13.716-2.701 2.678.139 3.379-1.415 5.207-3.13 2.831-2.657 10.653-6.754 12.533-1.169a.58.58 0 0 0 .47.41C9.615-11.365 4.547.173-2.305-7.912zm-34.557-3.528a3.863 3.863 0 0 0-.571-.368c-.011-.005-.02-.002-.028-.007.177-.896.481-1.804.891-2.717.009-.019.006-.038.013-.057 6.61-2.938 13.969-3.078 20.991-4.509 4.013-.818 8.172-2.147 11.219-4.835-3.843 3.82-8.576 6.252-14.123 7.022-5.52.768-15.851-1.184-18.392 5.471zm35.181-15.738c.05.074.109.141.182.191-.371.373-.727.76-1.066 1.141.317-.42.614-.863.884-1.332zm4.516-2.789c.124.13.258.182.391.167.033.018.068.029.102.048.299.165.576.374.841.605-1.663-.55-3.14.058-4.448 1.071.679-1.303 1.625-2.409 3.114-1.891zm-7.866.035c1.771-.394 4.154-1.543 6.046-1.156-.848.318-1.666 1.107-2.406 2.536-.021 0-.032-.009-.052-.006-1.799.147-3.677.738-5.48.394-1.052-.201-1.62-.807-2-1.575 1.247.266 2.554.104 3.892-.193zm-27.11 1.704c5.458-3.27 14.672-7.428 20.94-4.294.177.273.309.564.407.87-6.031-1.466-12.635.075-18.136 2.708-1.918.918-5.082 2.4-6.987 4.433.608-1.732 2.207-2.778 3.776-3.717zm-4.119 7.35c0-.176.004-.352.005-.528.507-3.198 5.958-5.502 8.414-6.678 5.225-2.502 11.752-3.77 17.394-2.182h.007c.13.516.291 1.022.601 1.474.517.756 1.238 1.307 2.07 1.669 1.392.607 3.023.338 4.572.08-3.315 4.822-9.639 6.197-15.119 7.195-5.568 1.013-11.117 1.407-16.414 3.226-.33-1.48-1.008-2.84-1.53-4.256zm.242 14.662c-1.181-1.341-1.622-2.762-1.6-4.225 1.318.957 1.854 2.96 2.03 4.471.02.17.097.296.194.393-.203-.217-.428-.415-.624-.639zm.685.7c.378.283 1.023.125.951-.475-.176-1.466-.618-3.251-1.579-4.534.03-.048.063-.089.081-.151 2.005-6.503 13.432-4.232 18.566-5.147 4.41-.788 8.911-2.692 12.363-5.553 2.336-1.937 5.418-8.238 9.132-6.421.412.202.765-.08.868-.42.54.671 1.002 1.417 1.419 2.082 1.026 1.641 1.982 3.542 2.521 5.496-2.159-2.479-6-1.721-9.142-.123-2.226 1.133-4.084 2.477-5.762 4.318-2.016 2.215-5.987 1.012-8.766 1.227-5.08.393-10.743 3.251-13.261 7.771-1.605 2.88-1.238 5.992.497 8.257a26.731 26.731 0 0 1-3.835-2.588 39.808 39.808 0 0 1-4.053-3.739zM162.633 107.215c-1.518.836-1.885 3.334-2.263 5.515-.254-5.423 4.201-13.964-1.557-16.348-.833-.344-1.446.144-1.896 1.096-.33-2.198-1.111-4.212-3.102-3.499-.893.321-1.341 1.016-1.566 1.838-3.11.811-3.622 4.424-3.62 8.057-.583-1.134-1.355-2.158-2.477-2.999-.413-.31-.883.153-.898.561-.172 4.6-.159 9.182.32 13.763.502 4.809 2.146 9.233 1.385 14.133a.646.646 0 0 0 .151.531c-1.173 2.654 5.75 4.773 7.573 5.078 1.044.536 2.164.94 3.421 1.089.355.045.586-.342.601-.643.161-3.603.068-6.886 1.579-10.264 1.036-2.319 2.617-4.369 3.729-6.658 1.308-2.688 1.77-6.117 1.583-9.08-.119-1.848-1.128-3.181-2.963-2.17zm-14.444 23.139a.66.66 0 0 0 .123-.386c.873.759 1.731 1.546 2.606 2.301-1.64-.697-3.055-1.473-2.729-1.915zm15.789-15.75c-.712 3.7-3.078 6.619-4.753 9.896-1.648 3.228-1.59 6.64-1.712 10.144a8.686 8.686 0 0 1-2.047-.659.497.497 0 0 0-.384-.252c-.04-.005-.105-.021-.171-.037-2.424-1.325-4.409-3.559-6.524-5.292-.035-.025-.072-.037-.106-.057.332-3.774-.434-7.306-1.211-11.061-.971-4.69-.835-9.729-.661-14.534 1.24 1.32 1.858 3.039 2.31 4.816.035 1.158.042 2.199-.073 2.985-.094.65.683.982 1.022.625.377.361 1.151.005.988-.644-.278-1.1-.523-2.216-.811-3.305-.143-3.801-.354-8.68 2.198-9.997-.214 4.006.111 8.015-.252 12.011-.073.809 1.136.777 1.209-.021.345-3.817.16-7.679.219-11.511l.079-1.006c.007-.965.661-1.229 1.964-.789.501.702.516 1.805.595 2.631.085.928.077 1.859.131 2.792-.386 3.076-.35 6.546-.401 7.27-.057.812 1.156.784 1.212-.02.138-1.993.151-3.993.305-5.989.011-.146.036-.289.05-.435a.566.566 0 0 0 .063-.329c-.004-.04-.006-.099-.01-.146.104-.939.244-1.874.482-2.789.737-2.846 2.498 1.004 2.651 2.203.574 4.477-2.774 10.016-.637 14.288-.01.022-.019.049-.027.072-.272.573.351 1.095.788.89.475.124 1.027-.395.679-.907-.031-.047-.056-.099-.084-.146.755-2.033.924-4.276 1.725-6.3.998-2.514 1.649 1.274 1.629 2.083-.032 1.184-.213 2.362-.435 3.52zM187.089 100.875c-.274-.19-.683-.042-.824.239-.495.976-.869 1.972-1.188 2.978-.129-2.005-.354-3.988-1.379-5.815-.89-1.596-2.12-2.154-3.034-1.744a4.364 4.364 0 0 0-.871-1.464c-.909-.994-2.216-1.143-3.22-.234-.345.312-.594.731-.771 1.214-.53-.823-1.211-1.246-2.099-.949-1.896.63-2.031 3.17-2.198 4.849-.442 4.439.977 8.781.543 13.19-.826-2.151-2.026-4.206-3.944-5.514-.414-.281-.899.133-.905.561-.039 4.02 1.096 7.722 2.66 11.393 2.209 5.191 3.551 9.955 3.876 15.619.026.433.376.669.785.599.289-.052.647-.189 1.059-.395.1.133.253.219.467.208 2.611-.131 10.58-.95 10.877-4.405a2.216 2.216 0 0 0-.043-.711c.404-.06.749-.485.44-.91-3.321-4.558-.329-11.85.987-16.724.969-3.605 2.474-9.406-1.218-11.985zm-9.076 33.094c2.829-1.793 6.234-4.107 7.424-3.108 1.005.842-4.316 2.398-7.424 3.108zm10.132-27.031c-.092 2.871-1.047 5.722-1.825 8.464-1.181 4.152-2.818 10.15-.446 14.213-2.503-.42-8.759 3.477-10.984 4.645-.272-3.897-.869-7.725-2.291-11.393-1.738-4.491-3.823-8.522-4.133-13.32 1.495 1.484 2.374 3.6 2.972 5.563.162.534.75.524 1.035.223.247.012.489-.118.555-.451 1.104-5.571-1.106-11.1-.07-16.687.349-1.887 1.816-1.604 2.317-.106.03.096.054.191.081.289-.069.888-.078 1.761-.145 2.429-.047.497.392.675.756.554l.012.079c.283 1.736.398 3.502.733 5.232.154.804 1.316.426 1.165-.355-.204-1.054-.369-5.285-1.24-8.262.116-.854.33-1.676.804-2.337 1.046-1.459 1.758 1.022 2.081 2.664-.03.176-.077.329-.09.527-.016.257.102.42.263.51.014.095.022.175.024.211.134 2.473-.604 6.053.857 8.248.452.676 1.479.005 1.038-.657-1.565-2.344-.405-5.839-.586-8.808.651-.683 1.196-.517 1.635.521.336.534.588 1.107.755 1.721.436 1.312.469 2.765.546 4.135.063 1.108.103 2.211.238 3.298-.041.316-.096.628-.129.949-.03.334.158.516.396.567.12.505.272 1.007.474 1.5.306.747 1.475.39 1.168-.354-.355-.862-.563-1.752-.701-2.654.252-1.899.692-3.674 1.466-5.473.193-.449 1.091 1.594 1.143 1.796.206.798.152 1.696.126 2.519zM339.958 99.728a.676.676 0 0 0-.869-.554.539.539 0 0 0-.428-.47c-.685-.164-1.396-.243-2.097-.297-.377-.028-1.027-.092-1.361.202a.638.638 0 0 0-.535-.318c-.069-2.033-.481-4.222-.005-6.202a.592.592 0 0 0-.228-.643c.077-.255.023-.547-.271-.7-3.351-1.738-7.896-1.752-11.157.22-.583.354-.183 1.253.395 1.165-.506 2.049-1.324 4.854-.158 6.622-1.595.171-3.182.316-4.786.352a.599.599 0 0 0-.514.321c-.865 1.826-1.3 3.823-1.54 5.86-.459.166-.673.878-.133 1.123.006.002.011.002.016.005-.18 2.124-.186 4.273-.241 6.318-.093 3.318-.1 6.58.164 9.814-.007.002-.016.002-.023.005-.673.213-.464 1.227.146 1.236.28 2.673.753 5.334 1.554 7.991.06.193.219.395.431.435 3.629.723 7.239.671 10.922.654 3.248-.015 6.344.913 9.446-.446.707-.309.386-1.535-.343-1.217-2.091.919-4.12.789-6.332.584-2.379-.218-4.739-.161-7.126-.166-2.396-.007-5.697.446-6.446-2.329-.51-1.892-.804-3.833-1.003-5.781 6.663-1.801 14.011-.63 20.717.262.78.104 1.072-1.123.302-1.227-6.874-.916-14.308-2.104-21.139-.313-.043-.546-.085-1.087-.12-1.63-.243-4.034.012-8.144.207-12.175.024-.507.08-1.013.123-1.517 6.831 2.451 14.523.28 21.6.844-.029 2.296-.097 4.597-.019 6.893.188 5.441.702 10.714.086 16.161-.088.784 1.083 1.131 1.175.319.575-5.131.429-10.228.016-15.363-.435-5.348.335-10.704-.426-16.038zm-3.876-.312a.428.428 0 0 1-.098.148c.034-.044.073-.084.098-.148zm-11.502-.977c-1.447-1.281-.485-4.231.006-6.118 2.646.91 5.466.66 8.238.242.415-.062.592-.465.55-.804.037.02.078.031.118.052-.502 2.137-.076 4.444-.021 6.62-2.899.405-5.81.601-8.734.65a.556.556 0 0 0-.157-.642zm7.849-7.087c-2.331.339-4.762.571-7.021-.089 2.235-.74 4.827-.7 7.021.089zm-14.8 14.261c.116-1.01.27-2.014.477-3.01.199-.957.217-2.23 1.487-2.256 1.147-.024 2.295-.158 3.44-.294.09.182.255.319.507.316 3.811-.017 7.579-.27 11.343-.868a.572.572 0 0 0 .218-.086c.183.288.544.433.797.242.037-.005.088-.008.174-.008.268 0 .539.025.807.048.5.044.998.116 1.485.229.161.04.294.005.406-.057.306 2.2.367 4.409.361 6.619-6.975-.558-14.801 1.736-21.502-.875z"/><path d="M321.598 113.864c.004-.302.018-.603.031-.904.183.024.372.037.559.047-.027.307-.037.615-.084.92-.12.783 1.041 1.129 1.165.318.202-1.317.229-2.638.229-3.966 0-.813-1.203-.792-1.203.021 0 .482-.009.965-.022 1.447a5.525 5.525 0 0 1-.6-.064 9.917 9.917 0 0 0-.076-1.614c-.112-.788-1.317-.783-1.201.021.087.618.091 1.231.073 1.85a.727.727 0 0 0-.018.447c-.023.501-.049 1.002-.056 1.502-.009.809 1.195.787 1.203-.025zM331.499 114.668c.205-1.427.457-2.834.843-4.221.215-.774-.945-1.105-1.165-.319a29.166 29.166 0 0 0-.601 2.765c-.567-.878-1.092-1.78-1.404-2.781-.173-.552-1.063-.631-1.16.017-.132.864-.3 1.719-.399 2.579a.538.538 0 0 0-.383-.281c-.427-.997-.85-1.998-1.593-2.802-.267-.29-.771-.208-.942.144-.721 1.474-1.311 3.086-1.132 4.75.082.799 1.288.789 1.2-.02a5.135 5.135 0 0 1-.001-.841c.017 0 .027.007.043.007h1.657c.047.109.09.223.141.329.22.465.702.363.945.052.004.228-.003.455.024.686.089.796 1.292.786 1.2-.021-.088-.788-.022-1.563.089-2.333.464.846 1.002 1.656 1.539 2.458.275.408 1.016.408 1.099-.168zm-6.544-2.27a9.03 9.03 0 0 1 .393-1.129c.22.355.403.736.572 1.129h-.965zM336.667 112.739c.01-1.656-1.457-2.829-3.019-2.873a.554.554 0 0 0-.281.066c-.365-.111-.799.079-.731.576.193 1.459.223 2.933.445 4.39.099.643.842.521 1.082.055 1.36.067 2.495-.682 2.504-2.214zm-2.535.957c-.086-.838-.137-1.682-.22-2.52.779.108 1.369.604 1.539 1.407.188.886-.597 1.195-1.319 1.113zM324.391 118.696a.646.646 0 0 0 .037.21c.264.678.704 1.054 1.214 1.544.588.563 1.402-.369.839-.91-.318-.305-.729-.564-.896-.989a.638.638 0 0 0-.211-.277c.275-.267.376-.665.122-1.231-.529-1.188-2.35-1.269-3.402-1.031-.623.142-.505.987-.014 1.183-.01.825-.08 1.795.237 2.558.353.849 1.442.319 1.094-.503a2.22 2.22 0 0 1-.132-.531c.019.002.029.012.047.015a3.93 3.93 0 0 0 1.065-.038zm-1.117-1.228c.005-.106.007-.205.01-.302.355.022.696.126.974.334-.31.052-.66-.003-.948-.037-.015 0-.024.005-.036.005zM327.83 119.982c1.277.22 1.992-1.093 2.192-2.148.149-.783-1.014-1.123-1.167-.319-.065.343-.27 1.32-.816 1.228-.586-.102-.555-1.086-.53-1.5.048-.811-1.157-.783-1.206.021-.064 1.059.291 2.504 1.527 2.718zM331.769 120.838c1.052-.021 2.071-.418 2.745-1.246.303-.371.169-.891-.283-1.054-.241-.086-.465-.178-.687-.265.138-.094.278-.186.427-.27.339-.19.39-.736.106-.996-.697-.636-1.432-.626-2.21-.398-.216-.484-1-.596-1.114.062a6.056 6.056 0 0 0 .427 3.484c-.023.337.171.693.589.683zm.451-1.316a4.481 4.481 0 0 1-.134-.356c.271.021.519.082.758.166a2.523 2.523 0 0 1-.624.19z"/></svg>