<svg version="1.1" xmlns="http://www.w3.org/2000/svg" x="0" y="0" width="155.906" height="454.723" viewBox="0 0 155.906 454.723" xml:space="preserve"><path d="M120.596 246.238c.145-7.305-.156-14.668-.156-21.938v-63.588V30.184 14.636c-.354-5.859-3.916-7.98-9.219-7.98-4.464 0-9.793-.843-14.145.333-5.025 1.357-4.718 7.446-4.718 11.548V146.635H59.653v1h32.706v99.287c0 .41-.004.836-.008 1.268-10.832 7.068-16.993 18.846-16.98 31.752l.017 17.859c.006 6.875.013 13.748.021 20.623a.598.598 0 0 0-.188-.037H50.032a.633.633 0 1 0 0 1.266H75.22c.066 0 .128-.02.188-.039.016 15.9.029 31.801.045 47.701.008 8.758.016 17.516.022 26.273-.021 3.699-.045 7.885-.063 11.291h-25.38v1h25.373l-.031 5.656c-.009.992-.016 2.139-.015 2.387 0 12.348 10.3 20.676 24.043 22.66 2.09.303 4.664 15.084 6.888 15.084 1.957 0 3.48-14.781 5.374-15.08 13.459-2.111 24.707-11.396 26.114-22.867.101-.799.601-28.549.601-29.365h-.127c.354-32.5.712-64.998 1.067-97.498.171-15.547-4.234-32.499-18.723-40.618zm-26.961.682v-16.938-134.43V35.24 18.537v-3.521c0-.798.051-1.295.23-2.268.831-4.518 4.815-4.592 8.313-4.592h11.457c3.609 0 5.336 3.33 5.527 6.48v231.923c-.006.043 0 .084 0 .127v2.727c0 1.842-.047 3.371-.876 5.183-1.493 3.258-4.795 2.922-7.671 2.922h-9.04c-3.562 0-6.432-.521-7.713-4.593-.244-.776-.229-1.553-.229-2.338.002-1.224.002-2.444.002-3.667zm19.792 137.479l-.237-60.586-9.295.187h-.101v.002l-1.874.039-.141 60.322 4.021.051-29.058.055c-.027-28.342-.054-56.682-.079-85.023l-.018-18.494c-.012-12.582 5.252-23.893 15.709-31.029.062 3.351.588 6.854 3.929 8.396 4.004 1.849 10.062.699 14.334.699 4.68 0 9.404-1.113 9.758-6.914.085-1.399.14-2.808.182-4.213 20.135 11.772 17.508 37.069 17.287 57.153l-.764 69.736-.105 9.574-23.548.045z"/><path d="M96.302 214.293h3.815v2.1h-3.815zM96.302 209.764h3.815v2.1h-3.815zM96.297 205.232h3.816v2.1h-3.816zM96.297 200.699h3.816v2.1h-3.816zM95.522 196.107h5.282v2.1h-5.282zM96.319 191.486h3.816v2.1h-3.816zM96.319 186.953h3.815v2.1h-3.815zM96.314 182.422h3.815v2.1h-3.815zM96.314 177.891h3.813v2.1h-3.813zM95.539 173.299h5.285v2.1h-5.285zM96.316 168.688h3.813v2.1h-3.813zM96.31 164.156h3.815v2.1H96.31zM96.311 159.626h3.814v2.1h-3.814zM95.535 155.034h5.282v2.1h-5.282zM95.535 132.406h5.282v2.1h-5.282zM96.328 150.505h3.815v2.1h-3.815zM96.328 145.974h3.815v2.1h-3.815zM96.321 141.443h3.816v2.1h-3.816zM96.322 136.911h3.815v2.1h-3.815zM96.338 127.882h3.816v2.1h-3.816zM96.338 123.257h3.816v2.1h-3.816zM96.334 118.724h3.815v2.1h-3.815zM96.332 114.195h3.816v2.1h-3.816zM95.556 109.601h5.282v2.1h-5.282zM99.682 107.15v-.013h.027v-.046h.432v-2.099l-3.815.001v2.099h.469v.058zM96.326 100.46h3.814v2.1h-3.814zM96.32 95.927h3.815v2.1H96.32zM96.32 91.398h3.815v2.1H96.32zM95.545 86.804h5.285v2.1h-5.285zM96.33 82.337h3.815v2.1H96.33zM96.33 77.806h3.815v2.1H96.33zM96.324 73.274h3.814v2.1h-3.814zM96.324 68.743h3.814v2.1h-3.814zM95.549 64.151h5.285v2.1h-5.285zM96.346 59.696h3.816v2.1h-3.816zM96.346 55.165h3.816v2.1h-3.816zM96.341 50.634h3.818v2.1h-3.818zM96.341 46.101h3.818v2.1h-3.818zM95.567 41.509h5.282v2.1h-5.282zM95.567 20.025h5.282v2.1h-5.282zM96.322 37.069h3.815v2.1h-3.815zM96.322 32.538h3.815v2.1h-3.815zM96.317 28.007h3.814v2.1h-3.814zM96.317 23.475h3.814v2.1h-3.814zM96.31 238.997h.47v.056h2.886v-.011h.029v-.045h.431v-2.101H96.31zM96.31 232.364h3.815v2.1H96.31zM96.304 227.832h3.815v2.1h-3.815zM96.304 223.301h3.815v2.1h-3.815zM95.529 218.709h5.284v2.1h-5.284zM109.025 92.894c.121-3.291.456-5.209 2.101-7.76v-.676h-4.469v.938h3.455c-1.367 2.313-1.891 4.324-2.012 7.497l.925.001zM114.289 93.051c1.381 0 2.219-1.572 2.219-4.402 0-2.828-.838-4.348-2.219-4.348-1.392 0-2.229 1.52-2.229 4.348.001 2.83.836 4.402 2.229 4.402zm-.003-7.88c.807 0 1.35 1.007 1.35 3.478 0 2.473-.543 3.529-1.35 3.529-.813 0-1.356-1.057-1.356-3.529-.001-2.471.542-3.478 1.356-3.478zM106.625 69.391c0 1.334.966 2.312 2.271 2.312 1.346 0 2.237-.99 2.237-2.247 0-1.136-.588-1.73-1.206-2.167v-.053c.425-.397.956-1.15.956-2.037 0-1.308-.75-2.246-1.955-2.246-1.12 0-1.969.872-1.969 2.167 0 .885.455 1.504.968 1.942v.054c-.652.425-1.302 1.178-1.302 2.275zm1.162-4.271c0-.818.477-1.359 1.118-1.359.761 0 1.206.659 1.206 1.493 0 .622-.262 1.19-.726 1.69-.838-.395-1.598-.819-1.598-1.824zm.608 2.328c1 .489 1.881.886 1.881 1.97 0 .872-.554 1.479-1.357 1.479-.85 0-1.491-.674-1.491-1.612-.001-.767.411-1.388.967-1.837zM116.508 67.303c0-2.83-.838-4.351-2.219-4.351-1.392 0-2.229 1.521-2.229 4.351 0 2.827.835 4.401 2.229 4.399 1.381.001 2.219-1.572 2.219-4.399zm-3.579 0c0-2.474.543-3.479 1.356-3.479.807 0 1.35 1.005 1.35 3.479 0 2.471-.543 3.528-1.35 3.527-.813.001-1.356-1.056-1.356-3.527zM108.715 138.221c1.205 0 2.336-1.028 2.336-2.854s-.966-2.646-2.15-2.646c-.421 0-.738.134-1.064.346l.188-2.499h2.688v-.938h-3.469l-.229 4.06.479.371c.415-.331.709-.519 1.188-.519.892 0 1.479.689 1.479 1.854 0 1.177-.675 1.93-1.521 1.93-.813 0-1.34-.463-1.752-.965l-.439.713c.471.58 1.157 1.147 2.266 1.147zM114.289 129.471c-1.392 0-2.229 1.521-2.229 4.351s.835 4.401 2.229 4.4c1.381 0 2.219-1.57 2.219-4.4s-.838-4.351-2.219-4.351zm-.003 7.881c-.813 0-1.356-1.059-1.356-3.53 0-2.474.543-3.479 1.356-3.479.807 0 1.35 1.005 1.35 3.479-.001 2.472-.543 3.53-1.35 3.53zM103.078 24.239l.003.896h3.912v-.896h-1.437v-7.534h-.687c-.379.276-.836.488-1.469.62v.701h1.262v6.213h-1.584zM110.33 25.294c1.381 0 2.217-1.571 2.217-4.401 0-2.829-.836-4.351-2.217-4.351-1.393 0-2.229 1.522-2.229 4.351-.001 2.83.836 4.401 2.229 4.401zm-.003-7.878c.805 0 1.35 1.004 1.35 3.478 0 2.473-.543 3.53-1.35 3.528-.813 0-1.357-1.056-1.357-3.528-.001-2.475.543-3.478 1.357-3.478zM115.735 25.294c1.381 0 2.22-1.571 2.22-4.401 0-2.829-.839-4.351-2.22-4.351-1.394 0-2.229 1.522-2.229 4.351 0 2.83.835 4.401 2.229 4.401zm-.003-7.878c.806 0 1.351 1.004 1.351 3.478 0 2.473-.545 3.53-1.351 3.528-.813 0-1.356-1.056-1.356-3.528-.001-2.475.542-3.478 1.356-3.478zM108.92 44.513c.576 0 1.195-.41 1.631-1.084-.031 2.697-.856 3.623-1.836 3.623-.438 0-.86-.265-1.144-.676l-.501.687c.383.502.938.886 1.676.886 1.381 0 2.644-1.307 2.644-4.691 0-2.709-1.023-4.058-2.394-4.058-1.107 0-2.043 1.098-2.043 2.709 0 1.731.774 2.604 1.967 2.604zm.076-4.454c.879 0 1.414.873 1.531 2.512-.466.806-1.011 1.124-1.457 1.124-.857 0-1.281-.688-1.281-1.785 0-1.112.532-1.851 1.207-1.851zM114.628 47.949c1.381 0 2.219-1.572 2.219-4.4 0-2.827-.838-4.349-2.219-4.349-1.393 0-2.229 1.52-2.229 4.349 0 2.827.837 4.402 2.229 4.4zm-.002-7.877c.806 0 1.352 1.004 1.352 3.477 0 2.472-.546 3.53-1.352 3.529-.812 0-1.355-1.058-1.355-3.529-.001-2.473.542-3.477 1.355-3.477zM109.71 107.102c.438 0 .86.25 1.145.66l.5-.674c-.395-.514-.925-.898-1.675-.898-1.382 0-2.644 1.307-2.644 4.691 0 2.711 1.035 4.059 2.393 4.059 1.119 0 2.056-1.098 2.056-2.711 0-1.731-.783-2.604-1.979-2.604-.563 0-1.185.412-1.62 1.06.043-2.671.857-3.583 1.824-3.583zm-.355 3.344c.856 0 1.281.687 1.281 1.783 0 1.111-.521 1.852-1.206 1.85-.88 0-1.413-.883-1.521-2.521.467-.796 1.008-1.112 1.446-1.112zM114.627 106.188c-1.393 0-2.229 1.521-2.229 4.35s.836 4.402 2.229 4.4c1.381 0 2.22-1.571 2.22-4.4s-.839-4.35-2.22-4.35zm-.001 7.879c-.812 0-1.356-1.056-1.356-3.529s.544-3.477 1.356-3.477c.806 0 1.35 1.004 1.35 3.477-.001 2.473-.545 3.529-1.35 3.529zM106.024 158.091h3.118v2.325h.851v-2.325h.944v-.875h-.944v-5.232h-1l-2.969 5.393v.714zm2.564-3.754c.197-.41.392-.78.565-1.188h.043a38.275 38.275 0 0 0-.055 1.626v2.443h-2.172l1.619-2.881zM113.949 151.824c-1.394 0-2.229 1.521-2.229 4.35 0 2.83.837 4.403 2.229 4.4 1.381 0 2.219-1.57 2.219-4.4 0-2.829-.838-4.35-2.219-4.35zm0 7.879c-.814 0-1.359-1.055-1.359-3.529 0-2.473.545-3.477 1.359-3.477.805 0 1.348 1.004 1.348 3.477s-.543 3.53-1.348 3.529zM107.668 178.768c-.813 0-1.358-.477-1.771-1.004l-.456.715c.47.619 1.175 1.188 2.282 1.188 1.271 0 2.281-.91 2.281-2.404 0-1.164-.664-1.904-1.5-2.143v-.053c.75-.346 1.262-.992 1.262-2.012 0-1.361-.868-2.141-2.075-2.141-.813 0-1.456.451-1.987 1.059l.479.688c.415-.502.903-.857 1.479-.857.737 0 1.194.516 1.194 1.334 0 .885-.488 1.572-1.969 1.572v.832c1.654 0 2.219.676 2.219 1.68 0 .938-.6 1.546-1.438 1.546zM113.27 170.914c-1.394 0-2.229 1.523-2.229 4.35 0 2.83.836 4.402 2.229 4.402 1.381 0 2.218-1.572 2.218-4.402 0-2.828-.837-4.35-2.218-4.35zm-.003 7.879c-.812 0-1.356-1.055-1.356-3.529 0-2.473.545-3.477 1.356-3.477.805 0 1.351 1.006 1.351 3.477-.001 2.472-.546 3.531-1.351 3.529zM110.074 202.32v-.939h-2.012c-.357 0-.783.041-1.163.08 1.639-2.09 2.825-3.662 2.825-5.248 0-1.492-.793-2.484-2.076-2.484-.903 0-1.522.514-2.1 1.281l.514.623c.402-.57.902-1.02 1.479-1.02.876 0 1.312.686 1.312 1.65 0 1.361-1.175 2.885-3.262 5.406h.001v.65l4.482.001zM113.27 193.727c-1.394 0-2.229 1.52-2.229 4.348 0 2.83.836 4.402 2.229 4.402 1.381 0 2.218-1.572 2.218-4.402 0-2.829-.837-4.348-2.218-4.348zm-.003 7.878c-.812 0-1.356-1.057-1.356-3.531 0-2.473.545-3.479 1.356-3.479.805 0 1.351 1.008 1.351 3.479-.001 2.473-.546 3.531-1.351 3.531zM109.253 224.559h-1.436v-7.535h-.688c-.379.275-.836.488-1.467.621v.699h1.262v6.215h-1.588l.003.896h3.912l.002-.896zM112.589 216.861c-1.393 0-2.229 1.521-2.229 4.35 0 2.83.837 4.402 2.229 4.402 1.382 0 2.219-1.574 2.219-4.402s-.838-4.35-2.219-4.35zm-.002 7.879c-.812 0-1.355-1.055-1.355-3.529 0-2.473.543-3.477 1.355-3.477.808 0 1.351 1.004 1.351 3.477s-.544 3.531-1.351 3.529zM111.263 234.532c-1.393 0-2.229 1.52-2.229 4.35s.836 4.402 2.229 4.402c1.382 0 2.219-1.574 2.219-4.402s-.837-4.35-2.219-4.35zm-.003 7.879c-.813 0-1.357-1.056-1.357-3.529 0-2.471.545-3.478 1.357-3.478.807 0 1.35 1.007 1.35 3.478 0 2.472-.543 3.529-1.35 3.529zM103.795 319.194h5.595v2.1h-5.595zM103.787 314.387h5.594v2.1h-5.594zM103.787 309.583h5.594v2.1h-5.594zM102.651 304.713h7.743v2.1h-7.743zM103.789 299.822h5.594v2.101h-5.594zM103.782 295.016h5.594v2.1h-5.594zM103.783 290.211h5.592v2.1h-5.592zM102.645 285.34h7.74v2.1h-7.74zM87.535 290.825h1.24v-2.47h1.39v-.929h-1.389v-5.551h-1.465l-4.35 5.72v.76h4.572l.002 2.47zm-3.186-3.395l2.374-3.057c.284-.437.571-.826.827-1.265h.062c-.031.479-.078 1.25-.078 1.729v2.592h-3.185zM94.576 281.711c-2.041 0-3.269 1.61-3.269 4.61 0 3.003 1.228 4.671 3.269 4.671 2.021 0 3.25-1.668 3.25-4.671 0-2.999-1.23-4.61-3.25-4.61zm-.002 8.355c-1.195 0-1.99-1.118-1.99-3.743 0-2.623.797-3.689 1.99-3.689 1.18 0 1.977 1.066 1.977 3.689-.001 2.622-.797 3.743-1.977 3.743zM85.375 310.284c-1.195 0-1.993-.5-2.598-1.062l-.67.754c.687.66 1.722 1.264 3.347 1.264 1.863 0 3.344-.967 3.344-2.551 0-1.236-.968-2.021-2.195-2.271v-.059c1.1-.363 1.848-1.053 1.848-2.129 0-1.445-1.273-2.273-3.041-2.273-1.195 0-2.136.478-2.914 1.123l.698.729c.604-.533 1.323-.912 2.167-.912 1.083 0 1.752.547 1.752 1.418 0 .938-.716 1.67-2.883 1.67v.884c2.421 0 3.25.713 3.25 1.779-.001.991-.877 1.636-2.105 1.636zM93.58 301.958c-2.041 0-3.268 1.612-3.268 4.61 0 3.003 1.227 4.671 3.268 4.671 2.021 0 3.248-1.668 3.248-4.671 0-2.998-1.228-4.61-3.248-4.61zm-.003 8.355c-1.195 0-1.99-1.123-1.99-3.745 0-2.623.795-3.688 1.99-3.688 1.18 0 1.977 1.066 1.977 3.688s-.795 3.747-1.977 3.745zM82.334 334.575h-.002v.688h6.562v-.992h-2.947c-.524 0-1.146.039-1.704.084 2.406-2.217 4.143-3.885 4.143-5.566 0-1.586-1.163-2.639-3.042-2.639-1.322 0-2.23.547-3.074 1.359l.748.658c.591-.6 1.321-1.078 2.168-1.078 1.289 0 1.927.73 1.927 1.754-.001 1.439-1.719 3.052-4.779 5.732zM93.58 326.151c-2.041 0-3.268 1.605-3.268 4.609 0 2.998 1.227 4.666 3.268 4.666 2.021 0 3.248-1.668 3.248-4.666 0-3-1.228-4.609-3.248-4.609zm-.003 8.353c-1.195 0-1.99-1.123-1.99-3.742 0-2.623.795-3.689 1.99-3.689 1.18 0 1.977 1.066 1.977 3.689-.001 2.621-.795 3.742-1.977 3.742zM87.691 358.846h-2.104v-7.992h-1.002c-.558.297-1.227.518-2.148.658v.744h1.85v6.59h-2.326l-.003.951h5.734l-.001-.951zM92.584 350.686c-2.041 0-3.268 1.611-3.268 4.613 0 3 1.227 4.668 3.268 4.668 2.021 0 3.248-1.668 3.248-4.668s-1.227-4.613-3.248-4.613zm-.003 8.356c-1.193 0-1.99-1.121-1.99-3.742 0-2.623.797-3.688 1.99-3.688 1.18 0 1.977 1.064 1.977 3.688s-.797 3.743-1.977 3.742zM90.641 369.426c-2.038 0-3.267 1.613-3.267 4.613s1.226 4.668 3.267 4.668c2.022 0 3.25-1.668 3.25-4.668s-1.227-4.613-3.25-4.613zm-.003 8.358c-1.193 0-1.989-1.123-1.989-3.744 0-2.623.796-3.689 1.989-3.689 1.181 0 1.978 1.066 1.978 3.689 0 2.621-.798 3.744-1.978 3.744zM122.584 290.988h1.242v-2.471h1.385l.003-.927h-1.387v-5.553h-1.466l-4.349 5.723v.757h4.57l.002 2.471zm-3.185-3.396l2.374-3.055c.285-.437.572-.828.827-1.263h.063a30.21 30.21 0 0 0-.08 1.724v2.594h-3.184zM129.623 281.874c-2.039 0-3.266 1.61-3.266 4.61 0 3.002 1.227 4.67 3.266 4.67 2.022 0 3.252-1.668 3.252-4.67 0-3-1.229-4.61-3.252-4.61zm-.001 8.355c-1.192 0-1.99-1.121-1.99-3.744 0-2.621.798-3.688 1.99-3.688 1.181 0 1.978 1.068 1.978 3.688-.001 2.622-.798 3.745-1.978 3.744zM120.426 310.45c-1.196 0-1.993-.504-2.598-1.066l-.67.758c.688.66 1.721 1.264 3.346 1.264 1.866 0 3.347-.969 3.347-2.555 0-1.234-.969-2.02-2.197-2.271v-.057c1.101-.365 1.849-1.053 1.849-2.133 0-1.447-1.271-2.271-3.041-2.271-1.193 0-2.135.475-2.914 1.121l.699.729c.604-.528 1.321-.907 2.166-.907 1.084 0 1.754.547 1.754 1.412 0 .942-.719 1.672-2.884 1.672v.884c2.421 0 3.247.715 3.247 1.777-.001.996-.877 1.643-2.104 1.643zM128.629 302.122c-2.039 0-3.268 1.61-3.268 4.61 0 3.001 1.229 4.671 3.268 4.671 2.021 0 3.25-1.67 3.25-4.671 0-3-1.228-4.61-3.25-4.61zm-.003 8.355c-1.193 0-1.989-1.119-1.989-3.744 0-2.623.796-3.688 1.989-3.688 1.18 0 1.979 1.065 1.979 3.688-.001 2.623-.799 3.744-1.979 3.744zM117.382 334.737l-.004.688h6.562v-.996h-2.944c-.525 0-1.147.041-1.705.084 2.406-2.213 4.142-3.883 4.142-5.562 0-1.584-1.162-2.635-3.042-2.635-1.32 0-2.228.545-3.073 1.355l.748.658c.593-.602 1.322-1.08 2.168-1.08 1.29 0 1.929.73 1.929 1.754-.002 1.445-1.72 3.058-4.781 5.734zM128.629 326.313c-2.039 0-3.268 1.607-3.268 4.609 0 2.998 1.229 4.668 3.268 4.668 2.021 0 3.25-1.67 3.25-4.668 0-3-1.228-4.609-3.25-4.609zm-.003 8.354c-1.192 0-1.988-1.119-1.988-3.742 0-2.625.796-3.688 1.988-3.688 1.18 0 1.979 1.062 1.979 3.688-.001 2.62-.799 3.742-1.979 3.742zM122.741 359.01h-2.104v-7.992h-1.004c-.557.297-1.225.518-2.149.658v.742h1.85v6.592h-2.326v.953h5.734v-.953zM127.633 350.85c-2.039 0-3.266 1.611-3.266 4.611s1.226 4.67 3.266 4.67c2.021 0 3.25-1.67 3.25-4.67s-1.228-4.611-3.25-4.611zm-.003 8.354c-1.191 0-1.989-1.117-1.989-3.742s.798-3.688 1.989-3.688c1.182 0 1.979 1.064 1.979 3.688s-.797 3.744-1.979 3.742zM125.692 369.426c-2.039 0-3.269 1.611-3.269 4.611s1.227 4.67 3.269 4.67c2.021 0 3.249-1.67 3.249-4.67s-1.228-4.611-3.249-4.611zm-.003 8.356c-1.194 0-1.989-1.121-1.989-3.744 0-2.621.795-3.689 1.989-3.689 1.181 0 1.976 1.068 1.976 3.689-.001 2.623-.796 3.744-1.976 3.744zM11.247 315.215c0-.943-.669-1.492-1.815-1.648v-.043c.921-.211 1.361-.82 1.361-1.504 0-1.207-1.099-1.686-2.688-1.686h-2.33l-.001 6.902h2.498c1.757.001 2.975-.663 2.975-2.021zm-4.479-4.185h1.206c1.219 0 1.841.314 1.841 1.061 0 .77-.551 1.189-1.89 1.189H6.768v-2.25zm-.001 5.51v-2.607h1.361c1.374 0 2.141.389 2.141 1.242 0 .934-.789 1.365-2.141 1.365H6.767zM14.4 317.36c.803 0 1.375-.367 1.913-.93h.035l.083.805h.813v-5.111h-.979v3.629c-.55.6-.968.861-1.564.861-.766 0-1.088-.41-1.088-1.367v-3.123h-.993v3.238c0 1.305.55 1.998 1.78 1.998zM20.387 310.514c0-.336-.3-.561-.682-.561-.384 0-.682.225-.682.561 0 .324.298.557.682.559.383 0 .682-.235.682-.559zM19.204 312.124h.979v5.111h-.979zM23.18 317.362c.263 0 .431-.033.562-.086l-.132-.65c-.108.021-.154.021-.215.021-.144 0-.273-.109-.273-.383v-6.52h-.979l-.002 6.459c-.001.749.299 1.159 1.039 1.159zM27.016 317.358c.356 0 .753-.096 1.074-.189l-.189-.65c-.19.062-.454.137-.656.137-.669 0-.896-.357-.896-.99v-2.838h1.564v-.703h-1.564v-1.432h-.823l-.12 1.432-.907.053v.65h.86l-.001 2.826c-.002 1.009.416 1.704 1.658 1.704zM28.427 314.268h2.747v.662h-2.747zM32.453 310.514c0 .324.299.557.681.559.383 0 .683-.234.683-.559 0-.336-.3-.561-.683-.561-.382.001-.681.225-.681.561zM32.632 312.124h.979v5.111h-.979zM36.551 313.532c.586-.518.991-.789 1.589-.789.768 0 1.102.41 1.102 1.369v3.123h.979v-3.238c0-1.307-.551-2-1.769-2-.801 0-1.397.379-1.948.863h-.035l-.083-.736h-.812l.002 5.111h.979v-3.703h-.004zM7.734 329.274c-.668 0-.896-.357-.896-.988v-2.84h1.564v-.703H6.839v-1.43h-.825l-.119 1.43-.908.053v.65h.86l-.001 2.828c0 1.01.418 1.699 1.66 1.699.358 0 .753-.092 1.075-.188l-.19-.652c-.191.067-.454.141-.657.141zM13.388 326.731v3.121h.979v-3.24c0-1.303-.551-1.998-1.771-1.998-.802 0-1.388.381-1.937.844l.034-1.051v-2.041h-.974v7.488h.979v-3.703c.587-.518.992-.789 1.59-.789.766 0 1.1.412 1.1 1.369zM20.709 327.012c0-1.459-.837-2.396-2.317-2.396-1.327 0-2.604 1.02-2.604 2.691s1.229 2.672 2.783 2.672c.788 0 1.41-.242 1.912-.525l-.347-.568c-.43.244-.896.4-1.445.4-1.111 0-1.864-.693-1.938-1.797h3.919a2.71 2.71 0 0 0 .037-.477zm-3.967-.094c.118-1.029.857-1.617 1.672-1.617.908 0 1.435.578 1.435 1.617h-3.107zM23.122 326.575c.395-.863.98-1.178 1.469-1.178.24 0 .372.027.562.084l.19-.762a1.649 1.649 0 0 0-.622-.104c-.656 0-1.253.408-1.646 1.053h-.036l-.083-.926h-.812v5.113h.979l-.001-3.28zM29.815 326.731v3.121h.979v-3.701c.538-.525 1.004-.789 1.458-.789.729 0 1.076.412 1.076 1.369v3.121h.979v-3.238c0-1.305-.574-1.998-1.769-1.998-.705 0-1.304.398-1.913.979-.239-.611-.717-.979-1.602-.979-.693 0-1.303.379-1.805.861h-.036l-.083-.734h-.809v5.109h.979v-3.701c.537-.525 1.026-.789 1.458-.789.74 0 1.088.412 1.088 1.369zM38.45 324.616c-1.423 0-2.688.979-2.688 2.691 0 1.691 1.269 2.674 2.688 2.674 1.419 0 2.688-.982 2.688-2.674-.001-1.711-1.266-2.691-2.688-2.691zm0 4.648c-.992 0-1.674-.787-1.673-1.955 0-1.18.682-1.979 1.673-1.979 1.003 0 1.673.799 1.673 1.979 0 1.168-.669 1.955-1.673 1.955zM47.173 329.854v-3.703c.538-.525 1.004-.789 1.458-.789.729 0 1.075.412 1.075 1.369v3.123h.979v-3.24c0-1.303-.575-1.998-1.771-1.998-.705 0-1.303.4-1.912.98-.239-.613-.717-.98-1.602-.98-.693 0-1.304.379-1.805.863h-.035l-.083-.736h-.812l.001 5.111h.979v-3.703c.539-.525 1.026-.789 1.458-.789.74 0 1.088.412 1.088 1.369v3.123h.982zM54.746 324.616c-1.326 0-2.604 1.02-2.604 2.689 0 1.672 1.23 2.672 2.783 2.672.789 0 1.411-.24 1.912-.523l-.346-.568c-.43.244-.896.4-1.446.4-1.111 0-1.864-.693-1.937-1.797h3.919c.024-.127.036-.297.036-.479.001-1.457-.835-2.394-2.317-2.394zm-1.649 2.302c.118-1.029.859-1.617 1.673-1.617.908 0 1.435.578 1.435 1.617h-3.108zM58.664 323.313l-.119 1.43-.907.053v.65h.859l-.001 2.828c0 1.01.419 1.699 1.66 1.699.358 0 .755-.092 1.076-.188l-.19-.652c-.191.064-.454.141-.658.141-.669 0-.896-.357-.896-.988v-2.84h1.564v-.703h-1.564v-1.43h-.824zM66.741 327.012c0-1.459-.838-2.396-2.318-2.396-1.326 0-2.604 1.02-2.604 2.691s1.229 2.672 2.784 2.672c.788 0 1.41-.242 1.911-.525l-.347-.568c-.43.244-.896.4-1.445.4-1.112 0-1.864-.693-1.937-1.797h3.919c.025-.127.037-.297.037-.477zm-3.967-.094c.12-1.029.859-1.617 1.674-1.617.909 0 1.434.578 1.434 1.617h-3.108zM70.621 325.397a1.7 1.7 0 0 1 .562.084l.19-.762a1.64 1.64 0 0 0-.621-.104c-.656 0-1.253.408-1.647 1.053h-.035l-.083-.926h-.812l-.003.002v5.111h.979v-3.281c.395-.863.98-1.177 1.47-1.177zM17.178 143.202h2.855l.738 2.104h1.062l-2.65-6.897H18.06l-2.651 6.897h1.016l.753-2.104zm.621-1.756c.286-.768.538-1.524.776-2.324h.048c.251.8.502 1.555.789 2.324l.371 1.051h-2.354l.37-1.051zM23.89 145.43c.263 0 .432-.03.562-.084l-.132-.65c-.108.021-.155.021-.216.021-.144 0-.273-.105-.273-.378v-6.521h-.979l-.003 6.457c.001.747.301 1.155 1.041 1.155zM28.192 145.43c.694 0 1.362-.253 1.889-.661l-.441-.568c-.346.274-.812.516-1.361.516-1.062 0-1.792-.788-1.792-1.956 0-1.179.764-1.978 1.814-1.978.467 0 .825.188 1.172.452l.489-.559a2.579 2.579 0 0 0-1.696-.608c-1.492 0-2.795.977-2.797 2.69-.001 1.693 1.182 2.672 2.723 2.672zM33.354 145.43c1.421 0 2.688-.979 2.688-2.672 0-1.711-1.268-2.69-2.688-2.69s-2.688.977-2.688 2.69c0 1.693 1.266 2.672 2.688 2.672zm0-4.648c1.003 0 1.673.8 1.673 1.978 0 1.168-.669 1.957-1.673 1.957-.991 0-1.672-.789-1.673-1.957 0-1.179.681-1.978 1.673-1.978zM38.552 145.303v-3.699c.586-.519.991-.789 1.591-.789.766 0 1.1.408 1.1 1.367v3.122h.979v-3.237c0-1.307-.551-1.999-1.77-1.999-.801 0-1.387.379-1.938.842l.036-1.052v-2.04h-.979v7.485h.981zM46.329 145.43c1.42 0 2.688-.979 2.688-2.672 0-1.711-1.267-2.69-2.688-2.69-1.422 0-2.688.977-2.688 2.69-.001 1.693 1.266 2.672 2.688 2.672zm0-4.648c1.003 0 1.672.8 1.672 1.978 0 1.168-.668 1.957-1.672 1.957-.992 0-1.674-.789-1.674-1.957.002-1.179.682-1.978 1.674-1.978zM51.585 145.43c.263 0 .432-.03.562-.084l-.132-.65c-.107.021-.155.021-.217.021-.142 0-.273-.105-.273-.378v-6.521h-.979l-.001 6.457c0 .747.299 1.155 1.04 1.155zM19.138 152.688c-.683 0-1.327.323-1.854.715h-.036l-.083-.589h-.812v7.267h.979v-1.725l-.022-.896c.537.368 1.073.59 1.611.59 1.327 0 2.51-1.021 2.51-2.757 0-1.585-.8-2.605-2.293-2.605zm-.383 4.638c-.382 0-.896-.148-1.422-.536v-2.683c.575-.451 1.064-.693 1.555-.693 1.099 0 1.528.758 1.528 1.883 0 1.259-.704 2.029-1.661 2.029zM25.338 158.048c.788 0 1.411-.241 1.912-.523l-.347-.568c-.43.243-.896.4-1.445.4-1.112 0-1.864-.696-1.937-1.8h3.919c.022-.127.034-.295.034-.475 0-1.46-.835-2.396-2.315-2.396-1.326 0-2.604 1.018-2.604 2.689-.001 1.674 1.23 2.673 2.783 2.673zm-.155-4.677c.908 0 1.435.579 1.435 1.62h-3.106c.117-1.032.859-1.62 1.671-1.62zM29.805 153.739l-.083-.925h-.812l-.001 5.11h.979v-3.282c.396-.863.979-1.178 1.47-1.178.24 0 .371.031.562.084l.19-.758a1.622 1.622 0 0 0-.622-.104c-.656 0-1.253.408-1.647 1.052l-.036.001zM36.674 156.82c-.344.273-.812.515-1.359.515-1.063 0-1.792-.787-1.792-1.956 0-1.178.764-1.977 1.814-1.977.467 0 .825.188 1.171.453l.489-.561a2.57 2.57 0 0 0-1.695-.607c-1.493 0-2.796.978-2.799 2.689 0 1.693 1.185 2.672 2.727 2.672.692 0 1.361-.252 1.889-.663l-.445-.565zM42.625 155.083c0-1.46-.836-2.396-2.317-2.396-1.326 0-2.604 1.018-2.604 2.689 0 1.673 1.23 2.672 2.783 2.672.789 0 1.411-.241 1.913-.523l-.348-.568c-.43.243-.896.4-1.445.4-1.112 0-1.864-.696-1.938-1.8h3.919c.027-.127.037-.295.037-.474zm-3.967-.092c.118-1.031.858-1.62 1.673-1.62.909 0 1.434.579 1.434 1.62h-3.107zM48.708 157.924v-3.237c0-1.307-.55-1.999-1.769-1.999-.803 0-1.397.378-1.947.86h-.036l-.084-.734h-.812v5.11h.979v-3.703c.584-.516.99-.786 1.588-.786.767 0 1.102.407 1.102 1.365v3.124h.979zM50.757 156.344c0 1.012.419 1.704 1.661 1.704.357 0 .753-.094 1.076-.188l-.191-.652c-.19.065-.454.138-.656.138-.667 0-.896-.356-.896-.987v-2.841h1.564v-.703h-1.564v-1.432h-.822l-.12 1.432-.907.053v.65h.86l-.005 2.826zM54.134 156.602c0 .914.729 1.45 1.708 1.45.718 0 1.362-.337 1.925-.734h.022l.083.608h.812v-3.136c0-1.271-.599-2.103-2.021-2.103-.932 0-1.744.356-2.282.663l.396.599c.454-.275 1.051-.547 1.73-.547.943 0 1.194.631 1.194 1.283-2.472.241-3.571.8-3.567 1.917zm3.569-1.352v1.421c-.562.443-1.026.686-1.59.686-.573 0-1.017-.242-1.016-.823.001-.652.658-1.072 2.606-1.284zM60.095 158.904c0 .883.979 1.377 2.4 1.377 1.803 0 2.938-.822 2.938-1.769 0-.853-.682-1.22-2.031-1.22H62.28c-.787 0-1.026-.231-1.026-.558 0-.284.167-.452.37-.609.264.115.585.179.872.179 1.183 0 2.126-.682 2.126-1.775 0-.433-.204-.823-.478-1.053h1.192v-.661h-2.021a2.58 2.58 0 0 0-.823-.126c-1.184 0-2.188.705-2.188 1.818 0 .609.37 1.105.752 1.378v.042c-.297.179-.632.515-.632.946 0 .399.227.673.514.83v.043c-.523.316-.846.725-.843 1.158zm2.399-5.586c.68 0 1.229.441 1.229 1.188s-.562 1.222-1.229 1.222-1.23-.477-1.23-1.222c-.001-.749.55-1.188 1.23-1.188zm-.946 4.606c.252.062.526.084.754.084h1.004c.752 0 1.17.156 1.17.631 0 .538-.729 1.042-1.84 1.042-1.05 0-1.684-.348-1.685-.896 0-.294.179-.596.597-.861zM70.879 155.083c0-1.46-.836-2.396-2.315-2.396-1.326 0-2.605 1.018-2.605 2.689 0 1.673 1.23 2.672 2.784 2.672.788 0 1.41-.241 1.912-.523l-.348-.568c-.43.243-.896.4-1.445.4-1.112 0-1.864-.696-1.938-1.8h3.92a2.7 2.7 0 0 0 .035-.474zm-3.965-.092c.118-1.031.858-1.62 1.672-1.62.909 0 1.435.579 1.435 1.62h-3.107zM17.907 169.996c-.693 0-1.206-.252-1.708-.609l-.489.574a3.796 3.796 0 0 0 2.162.703c1.374 0 2.127-.691 2.127-1.521 0-.969-.933-1.275-1.769-1.547-.657-.223-1.291-.4-1.291-.885 0-.387.335-.732 1.062-.732.514 0 .934.188 1.327.449l.466-.547a3.17 3.17 0 0 0-1.805-.578c-1.255 0-1.995.635-1.995 1.453 0 .863.907 1.209 1.731 1.475.633.209 1.325.441 1.325.967.003.441-.378.798-1.143.798zM23.652 170.67c.694 0 1.363-.252 1.89-.662l-.442-.566c-.346.273-.812.516-1.361.516-1.062 0-1.792-.791-1.792-1.957 0-1.178.765-1.979 1.815-1.979.467 0 .824.188 1.171.451l.489-.557a2.562 2.562 0 0 0-1.696-.609c-1.493 0-2.795.979-2.797 2.691-.002 1.693 1.182 2.672 2.723 2.672zM30.035 169.934h.022l.083.609h.813v-3.135c0-1.271-.6-2.104-2.021-2.104-.933 0-1.744.357-2.282.664l.395.6c.454-.275 1.052-.547 1.732-.547.942 0 1.193.633 1.193 1.283-2.474.242-3.571.799-3.569 1.912 0 .916.729 1.451 1.708 1.451.719.001 1.364-.335 1.926-.733zm-2.665-.78c0-.652.655-1.074 2.604-1.283v1.42c-.562.443-1.026.686-1.588.686-.575 0-1.016-.243-1.016-.823zM32.805 163.055l-.002 6.457c0 .746.301 1.156 1.04 1.156.264 0 .432-.031.562-.084l-.131-.652c-.108.021-.155.021-.217.021-.143 0-.272-.105-.272-.377v-6.521h-.98zM38.205 170.67c.788 0 1.411-.242 1.912-.523l-.348-.568c-.43.242-.896.398-1.444.398-1.113 0-1.865-.695-1.938-1.799h3.919c.024-.127.036-.295.036-.475 0-1.459-.837-2.396-2.317-2.396-1.324 0-2.604 1.02-2.604 2.691s1.231 2.672 2.784 2.672zm-.155-4.68c.909 0 1.435.578 1.435 1.619h-3.106c.117-1.029.858-1.619 1.671-1.619zM109.909 281.159c-2.47 0-4.041-1.82-4.041-4.714 0-2.856 1.633-4.646 4.12-4.646 1.094 0 1.93.422 2.607 1.068l.938-.931c-.757-.752-1.992-1.418-3.563-1.418-3.344 0-5.812 2.262-5.811 5.961 0 3.752 2.428 5.959 5.713 5.959 1.669 0 2.945-.612 3.98-1.664l-.938-.896c-.835.824-1.749 1.281-3.005 1.281zM103.672 271.436c0-1.035-1.018-1.879-2.268-1.879s-2.268.844-2.268 1.879 1.018 1.877 2.268 1.877 2.268-.842 2.268-1.877zm-2.267.876c-.688 0-1.268-.401-1.268-.877 0-.478.58-.879 1.268-.879s1.268.401 1.268.879c-.001.476-.581.877-1.268.877zM20.084 393.295h-.956l-.823 3.756a125.6 125.6 0 0 0-.441 2.229h-.047c-.191-.748-.384-1.5-.573-2.229l-1.088-3.756h-.907l-1.088 3.756c-.18.734-.37 1.48-.55 2.229h-.048c-.144-.748-.311-1.48-.454-2.229l-.823-3.756h-1.028l1.657 6.9h1.184l1.158-4.154c.133-.535.276-1.029.396-1.564h.05c.119.535.238 1.027.382 1.564l1.185 4.154h1.193l1.621-6.9zM25.272 399.231c-.431.236-.896.395-1.445.395-1.113 0-1.865-.691-1.938-1.797h3.919a2.77 2.77 0 0 0 .036-.473c0-1.463-.837-2.398-2.317-2.398-1.325 0-2.604 1.02-2.604 2.691 0 1.674 1.229 2.672 2.783 2.672.788 0 1.411-.242 1.912-.523l-.346-.567zm-1.72-3.59c.908 0 1.434.578 1.434 1.619H21.88c.117-1.027.86-1.619 1.672-1.619zM27.278 395.084h.979v5.111h-.979zM27.782 392.915c-.384 0-.683.225-.683.561 0 .324.298.557.683.559.382 0 .681-.234.681-.559-.001-.337-.3-.561-.681-.561zM33.088 399.563h-1.123c-.789 0-1.026-.232-1.026-.561 0-.283.168-.451.37-.605.264.115.585.18.872.18 1.183 0 2.126-.688 2.126-1.779 0-.432-.203-.82-.479-1.051h1.194v-.662h-2.021a2.652 2.652 0 0 0-.824-.127c-1.184 0-2.188.705-2.188 1.82 0 .605.369 1.104.753 1.377v.045c-.3.174-.634.512-.634.941 0 .398.227.678.514.83v.043c-.525.314-.849.729-.844 1.158 0 .883.979 1.377 2.4 1.377 1.804 0 2.938-.818 2.938-1.768.003-.851-.677-1.218-2.028-1.218zm-.911-3.973c.681 0 1.23.441 1.23 1.188 0 .748-.562 1.219-1.23 1.219s-1.229-.473-1.229-1.219.548-1.188 1.229-1.188zm.143 6.36c-1.051 0-1.686-.348-1.687-.896 0-.293.181-.596.599-.857.251.061.524.084.753.084h1.005c.753 0 1.171.154 1.171.631-.001.534-.731 1.038-1.841 1.038zM39.118 394.958c-.802 0-1.387.379-1.938.844l.035-1.055v-2.041h-.979l.002 7.49h.979v-3.703c.585-.52.991-.789 1.589-.789.765 0 1.101.408 1.101 1.367v3.125h.979v-3.24c0-1.305-.549-1.998-1.768-1.998zM44.792 399.616c-.669 0-.896-.355-.896-.988v-2.84h1.563v-.703h-1.563v-1.432h-.822l-.12 1.432-.908.053v.65h.859l-.001 2.826c0 1.01.418 1.705 1.661 1.705.356 0 .752-.098 1.074-.189l-.189-.65c-.192.063-.455.136-.658.136zM50.576 399.231c-.43.236-.896.395-1.446.395-1.11 0-1.864-.691-1.937-1.797h3.919a2.77 2.77 0 0 0 .036-.473c0-1.463-.837-2.398-2.317-2.398-1.327 0-2.605 1.02-2.604 2.691 0 1.674 1.229 2.672 2.783 2.672.787 0 1.409-.242 1.911-.523l-.345-.567zm-1.721-3.59c.908 0 1.435.578 1.435 1.619h-3.106c.118-1.027.858-1.619 1.671-1.619zM52.164 397.649c0 1.707.942 2.672 2.4 2.672.682 0 1.303-.336 1.756-.729h.036l.083.604h.812v-7.488h-.99v1.967l.048.873c-.516-.369-.956-.59-1.625-.59-1.325 0-2.52 1.029-2.52 2.691zm4.097-1.43v2.674c-.479.475-.943.703-1.481.703-1.016 0-1.602-.736-1.602-1.957 0-1.166.74-1.953 1.674-1.953.476 0 .92.143 1.409.533zM14.733 407.577c-.645 0-1.29.305-1.815.717l.024-.926v-2.041h-.98l-.001 7.49h.789l.084-.504h.036c.515.396 1.123.631 1.66.631 1.327 0 2.511-1.023 2.511-2.771-.001-1.577-.801-2.596-2.308-2.596zm-.368 4.638c-.384 0-.909-.148-1.422-.537v-2.684c.551-.451 1.063-.691 1.554-.691 1.099 0 1.528.758 1.528 1.885 0 1.258-.705 2.027-1.66 2.027zM20.672 407.577c-.93 0-1.743.357-2.281.664l.396.6c.454-.275 1.05-.547 1.73-.547.943 0 1.193.631 1.193 1.281-2.473.242-3.572.799-3.568 1.918 0 .916.729 1.451 1.708 1.451.718 0 1.361-.342 1.925-.736h.021l.083.609h.812v-3.139c.002-1.271-.597-2.101-2.019-2.101zm1.039 3.986c-.562.441-1.024.684-1.588.684-.574 0-1.018-.242-1.017-.822 0-.65.657-1.072 2.604-1.285v1.423h.001zM26.418 409.866c-.657-.219-1.29-.4-1.29-.883 0-.389.334-.736 1.062-.736.514 0 .932.188 1.325.453l.468-.547a3.15 3.15 0 0 0-1.805-.578c-1.256 0-1.996.633-1.996 1.451 0 .861.907 1.207 1.732 1.473.633.211 1.326.443 1.326.967 0 .445-.382.803-1.146.803-.692 0-1.207-.256-1.709-.611l-.487.576a3.82 3.82 0 0 0 2.163.705c1.373 0 2.126-.695 2.126-1.525.001-.968-.933-1.277-1.769-1.548zM31.723 407.577c-1.327 0-2.604 1.02-2.604 2.691 0 1.674 1.229 2.672 2.783 2.672.788 0 1.411-.242 1.912-.525l-.347-.566a2.877 2.877 0 0 1-1.445.398c-1.112 0-1.864-.693-1.938-1.797h3.919c.022-.129.035-.297.035-.479.002-1.457-.834-2.394-2.315-2.394zm-1.649 2.302c.118-1.029.858-1.617 1.673-1.617.908 0 1.434.578 1.434 1.617h-3.107z"/></svg>