<svg version="1.1" xmlns="http://www.w3.org/2000/svg" x="0" y="0" width="325.984" height="351.057" viewBox="0 0 325.984 351.057" xml:space="preserve"><path d="M315.026 86.021c-2.961 1.092-6.773-.499-9.868-.739-4.526-.351-9.05-1.907-11.484-5.907-1.521-2.497-3.197-7.461-6.482-7.982.227-3.574.384-7.146.896-10.697.434-2.998 1.146-5.851 1.276-8.894.12-2.79-.389-5.606-.907-8.335-.89-4.687-1.085-8.896-.364-13.632 1.004-6.581 3.674-12.757 5.875-18.991.668-1.882 5.216-1.377 6.968-1.611 4.339-.58 8.662-.094 12.882.984 1.512.386 1.904-2.244.529-2.645-6.136-1.792-13.349-2.151-19.632-.735-1.474.332-2.201 1.13-2.72 2.244-2.887-1.03-5.842-.456-8.9.235-5.617 1.268-10.962-.374-16.544-1.065-11.873-1.472-24.639 1.208-36.49 2.097-6.021.452-11.118.248-16.953-1.315-4.199-1.124-7.458.634-10.97 2.806-4.563 2.821-9.064 5.575-13.372 8.787-2.47 1.843-4.818 3.678-7.685 4.912-1.062.458-2.066.868-2.873 1.711-.151.156-.232.365-.283.585a2422.902 2422.902 0 0 0-11.16-3.656c-5.068-1.642-10.772-4.152-16.222-4.272a15.626 15.626 0 0 0-3.774-3.206c-4.178-2.536-11.585-3.883-17.042-2.362-5.682.9-9.55 5.563-12.494 10.396-3.809 6.256-6.512 13.521-6.99 20.842-.431 6.576 1.61 14.377 6.967 18.649 3.81 3.039 8.772 4.925 11.198 9.399.836 1.542 2.645 5.729 5.249 4.44.366-.181.68-.398.971-.631.13-.038.246-.145.348-.296.926-.879 1.48-2.025 1.892-3.28 6.219-8.312 19.003-5.511 28.146-3.07 15 4.005 28.794 11.699 44.243 14.212.411.067.747-.062.993-.292a12.785 12.785 0 0 0 2.699 1.367c2.11.77 4.268.775 6.363.341 3.321.677 6.305 2.012 9.457 3.281 4.168 1.675 8.801 2.396 13.124 3.593 8.292 2.296 17.719 3.961 25.452 7.83.015.007.026.009.039.015.247.961 1.252 1.688 2.001.677 5.703-7.685 10.416-15.7 11.587-25.348.776-6.39.776-15.92-5.058-20.146a.892.892 0 0 0-.331-.15c-2.024-1.274-4.487-1.861-6.774-2.439-1.249-.316-2.643-.833-4.027-1.17 1.117-.631 2.247-1.225 3.398-1.722 3.518-1.517 6.895-.755 10.33.468 2.708.964 5.393 1.269 8.134 1.877-.19 2.238-.579 4.47-1.005 6.786-.784 4.264-.771 8.691-1.081 13.003-.063.88.795 1.64 1.64 1.395 2.49-.72 4.886 5.858 5.854 7.458 1.189 1.966 3.012 3.561 5.147 4.427 3.636 1.477 7.107 1.693 10.907 2.35 2.549.442 5.145 1.201 7.664.266 1.528-.568.888-3.449-.744-2.845zM121.543 63.95c-6.64-4.172-9.044-10.834-8.825-18.437.169-5.87 2.61-11.46 5.172-16.645 1.887-3.818 4.517-7.888 8.156-10.193.34.275.792.338 1.282-.029 2.671-2.01 6.76-2.295 10.694-1.683.895.448 1.713 1.116 2.452 1.926-4.431-1.919-9.358-.916-13.646 1.721-5.647 3.472-8.244 9.681-9.087 15.981-.777 5.809-.978 12.864 1.21 18.374 1.163 2.933 3.712 5.166 5.977 7.231 2.705 2.47 4.281 5.968 6.696 8.718-.093.791-.271 1.521-.633 2.043-.975-1.394-1.9-3.05-2.241-3.494-1.835-2.39-4.708-3.942-7.207-5.513zm11.968-3.874c-.896 2.181-1.307 4.554-1.678 6.867-.011.072-.02.154-.028.233-2.551-3.289-4.927-6.506-7.952-9.53-4.37-4.366-4.112-10.284-4.094-16.028.018-5.508 1.028-10.977 4.541-15.366 4.812-6.01 11.357-6.445 18.147-4.622 1.327 2.286 2.224 4.833 2.646 6.592 1.594 6.629.17 14.064-3.477 19.763-2.657 4.155-6.202 7.451-8.105 12.091zm-.931 14.705c.365-.477.619-1.064.852-1.784.211-.647.347-1.33.448-2.027a1.63 1.63 0 0 0 .086-.682c.246-2.228.186-4.596.676-6.724 1.876-8.156 9.295-13.617 11.953-21.582 1.889-5.663 1.652-12.879-.693-18.389-.634-1.489-1.836-3.652-3.373-5.529 1.546.522 2.951 1.15 4.075 1.825 7.071 4.245 6.672 14.972 5.419 21.936-.643 3.562-1.739 7.124-3.781 10.138-1.736 2.561-4.391 4.149-6.488 6.348-2.038 2.138-3.518 4.464-4.733 7.146-1.333 2.942-1.654 6.619-3.412 9.317-.244.374-.61.315-1.029.007zm25.621-8.363c-5.763-1.107-14.324-1.304-19.714 2.209 1.43-3.752 3.547-7.12 6.746-9.747 6.337-5.201 9.079-12.373 9.772-20.442.484-5.64-.054-11.707-2.927-16.421 4.452 2.077 9.618 3.155 14.166 4.663 6.251 2.07 12.459 4.265 18.704 6.348 11.714 3.91 23.645 7.16 35.053 11.926-.025 3.115-1.472 5.692-2.94 8.399-1.599 2.946-2.781 6.109-4.079 9.193-2.224 5.279-6.507 10.205-6.435 16.152a6.28 6.28 0 0 0 .848 3.062 184.213 184.213 0 0 1-23.244-7.165c-8.53-3.256-16.952-6.448-25.95-8.177zM261.88 54.552c4.553 1.761 9.702 2.022 13.783 4.896.07.049.14.087.209.118 8.076 12.077.187 28.47-7.386 39.049-7.467-3.725-16.522-5.573-24.564-7.653a798.746 798.746 0 0 1-13.379-3.565c-2.37-.657-4.546-1.744-6.814-2.5.486-.225.963-.463 1.431-.71 4.349-2.297 7.917-6.058 11.323-9.531 4.506-4.595 9.007-8.699 14.3-12.382 3.543-2.465 7.15-5.365 10.911-7.838.061.04.113.088.186.116zm12.232-7.427c-4.703-.479-8.702 1.623-12.475 4.21-9.193 6.31-18.294 12.403-26.075 20.435-3.593 3.71-7.218 7.341-11.687 9.991-5.996 3.557-18.058 2.494-14.051-7.563 1.05-2.637 2.742-5.035 3.975-7.592 1.291-2.679 2.318-5.488 3.477-8.227 1.894-4.478 4.938-8.442 4.839-13.402.456-.708.339-2.044-.6-2.447-11.675-5.011-23.948-8.271-36.002-12.204-1.576-.514-3.149-1.034-4.723-1.552 2.132-1.441 5.065-2.388 7.102-3.847 3.974-2.844 7.803-5.789 11.992-8.325 2.275-1.377 4.558-2.827 6.925-4.036 2.834-1.448 5.465-.636 8.321.172 5.002 1.415 9.866 1.023 15.004.666 11.146-.775 22.207-2.314 33.399-2.279 5.13.016 10.081 1.532 15.198 1.731 4.24.166 8.234-2.311 12.372-1.322-1.153 3.478-2.593 6.856-3.683 10.363-2.514 8.095-2.644 15.582-1.079 23.823.294 1.546.407 3.047.417 4.531-2.192-.413-4.401-.629-6.535-1.374-1.997-.692-3.983-1.535-6.111-1.752z"/><path d="M218.005 69.757c-.461-1.102-1.95-.149-1.577.84 1.064 2.831 3.665 4.31 6.104 5.89-1.132 1.273-2.178 2.592-3.531 3.656-1.999 1.574-3.989.864-5.946-.298-3.931-2.334 1.831-6.929 3.244-9.436.087-.153-.093-.451-.267-.301-2.094 1.796-4.239 2.872-5.724 5.31-1.271 2.088-.615 4.327 1.097 5.855 1.863 1.662 4.267 2.626 6.712 1.995 2.68-.693 4.616-3.557 6.296-5.533l.007-.01c.939.298 1.587-1.373.886-2.084-2.219-2.25-5.99-2.743-7.301-5.884zM236.531 301.98c-7.438-13.34-14.01-27.142-21.334-40.543-5.401-9.887-10.813-21.044-19.486-28.514-9.173-7.898-21.501-5.043-32.498-3.134 10.938-12.354 21.69-24.996 34.148-35.824 11.215-9.744 24.635-20.062 31.337-33.652.3-.606.142-1.244-.206-1.677.488-.946.874-1.989 1.152-3.196 1.473-6.378 4.173-12.443 5.73-18.836 2.035-8.351 3.063-16.895 1.998-25.46-.199-1.609-2.059-1.834-2.478-.688-.331-2.336-1.271-4.612-2.902-6.715-3.711-4.78-10.211-7.238-15.719-9.179-9.425-3.322-18.96-6.354-28.469-9.427-10.106-3.27-20.205-6.792-30.543-9.271-4.139-.991-8.298-1.425-12.507-1.942-1.984-.244-5.091-.793-6.698.761-1.111 1.074.036 3.778 1.318 2.541 1.182-1.139 4.021-.469 5.454-.312 2.924.32 5.834.653 8.73 1.187 6.786 1.25 13.385 3.468 19.954 5.536 12.767 4.021 25.511 8.139 38.183 12.452 7.61 2.59 20.064 5.887 20.987 15.531.582 6.104-5.01 12.053-8.712 16.307l-.252.287c-1.791-3.969-6.657-6.326-10.349-8.031-7.243-3.34-14.677-6.114-22.44-7.976-18.843-4.518-39.347-4.583-58.6-3.809-9.982.401-19.841 1.648-29.725 3.019-8.887 1.232-17.776 2.586-26.355 5.285-10.978 3.454-24.409 8.698-29.227 19.942a71.33 71.33 0 0 1-3.417-2.301c-4.524-3.25-11.674-9.429-12.366-15.325-.562-4.784 3.727-9.751 6.642-13.056 3.419-3.877 7.592-7.024 12.062-9.584 10.407-5.965 22.848-7.999 34.401-10.583 5.967-1.335 11.84-3.012 17.771-4.493 7.657-1.914 15.414-2.955 23.245-3.829.844-.095.797-1.449-.038-1.523-12.431-1.09-24.777 3.061-36.719 5.968-10.569 2.574-21.314 4.312-31.557 8.096-8.39 3.102-15.75 8.029-21.667 14.728-3.07 3.475-5.807 7.648-6.338 12.008-.185.1-.331.286-.364.603-.614 5.841.181 11.563.944 17.357.901 6.844 1.291 13.611 1.358 20.51.042 4.235-.717 8.934 1.938 12.512.541.729 1.332 1.318 2.181 1.835-.323 11.812 2.917 23.14 7.26 34.03 2.214 5.552 4.83 10.933 7.496 16.277 1.779 3.564 3.407 7.075 6.565 9.632 2.108 1.705 5.535 1.794 7.551-.023 1.951-1.758 1.925-5.02 1.511-7.385-.862-4.925-3.328-9.578-5.237-14.159-1.826-4.384-8.395-18.908.524-19.169.333-.01.593-.135.79-.324l2.933 2.328c6.917 5.487 12.864 11.995 19.233 18.086 5.315 5.084 10.737 10.09 16.286 14.917 1.852 1.611 3.714 3.21 5.53 4.865.998.909 3.443 2.729 4.376 4.352-6.324-.382-13.131 2.237-19.1 3.729-8.517 2.13-17.447 3.982-26.147 5.13-5.281.698-10.958 1.461-14.744 5.55-2.708 2.925-3.088 7.383-2.872 11.256a.811.811 0 0 0-.429.546c-3.375 12.963-1.443 27.692-.413 40.865.549 7.021 1.162 14.036 1.51 21.072.315 6.375-.461 12.993.368 19.31.246 1.881 2.93 1.854 2.682-.065-.752-5.792-.117-11.852-.346-17.693-.276-7.033-.923-14.049-1.508-21.062-.584-7.033-1.124-14.067-1.33-21.125-.149-5.111.182-10.189.383-15.277.812 3.871 1.975 7.692 2.817 11.524 1.945 8.851 2.618 17.763 3.356 26.766.635 7.728 1.875 15.402 3.189 23.038 1.003 5.829 1.37 11.852 4.281 17.136.988 1.795 3.282-.02 2.375-1.648-2.589-4.65-3.105-10.197-3.854-15.379-1.118-7.746-2.529-15.41-3.25-23.214-.609-6.58-.999-13.123-2.008-19.664-1.017-6.584-2.83-12.944-4.275-19.431-.998-4.486-1.821-9.927.747-14.049 3.428-5.503 12.702-4.991 18.298-6.046 6.8-1.28 13.643-2.64 20.382-4.203 3.653-.847 7.266-1.874 10.903-2.787 3.084-.777 6.288-1.164 9.352-2.015.574 4.89.684 9.816 1.119 14.715a1.168 1.168 0 0 0-.346.045c-5.15 1.476-14.548 6.407-12.348 12.339a1.1 1.1 0 0 0-.373.861c.044 1.597.25 3.165.522 4.725a.5.5 0 0 0-.062.595c.076.123.159.236.237.355.33 1.736.715 3.465 1.038 5.207a.856.856 0 0 0 .132.756c.03.171.063.342.09.513.348 2.162 1.146 5.369 3.066 6.728 2.83 2.002 6.827 2.559 10.143 3.253 4.057.85 8.218 1.218 12.351 1.455 8.333.479 16.926.253 25.008-1.975 3.742-1.032 7.698-2.544 11.122-4.377 3.916-2.097 7.004-5.024 10.413-7.817.684-.559.678-1.574.309-2.264a25.65 25.65 0 0 0-.577-3.229c.288-.345.568-.697.829-1.067.867-1.229-.551-3.285-1.661-2.158a66.984 66.984 0 0 1-.342-1.354c-.535-2.255-.65-4.464-1.289-6.631a6.645 6.645 0 0 0-.153-1.091c-.892-3.83-3.406-7.273-7.502-7.843-.068-.01-.132-.006-.198-.007-.266-4.754-.55-9.505-.479-14.256 6.032-.292 11.963-1.822 18.01-2.099 6.906-.314 12.548 2.25 17.36 7.063 3.735 3.736 6.508 8.373 9.15 12.906 3.466 5.947 6.842 11.938 10.069 18.019 13.468 25.373 26.578 50.809 41.738 75.249 1.061 1.711 3.462-.01 2.455-1.632-8.189-13.182-16.026-26.71-23.583-40.26zM81.181 118.362c7.953-2.187 16.208-3.184 24.361-4.32 8.935-1.244 17.846-2.212 26.861-2.634 17.684-.829 36.098-.427 53.542 2.766 7.645 1.398 14.839 3.882 22.023 6.778 4.23 1.705 12.34 4.243 14.157 9.06-3.559 3.979-7.073 7.414-12.045 9.979-11.28 5.822-23.626 9.449-35.99 12.117-13.094 2.827-26.205 5.851-39.651 6.187-25.477.633-51.512-4.52-74.749-14.941-3.562-1.598-7.062-3.352-10.423-5.337 5.113-11.666 20.619-16.546 31.914-19.655zm-47.767 36.792c-.146-10.326-1.735-20.439-2.644-30.664 3.752 6.261 9.237 10.993 15.318 14.838-.168 1.228 1.16 1.867 1.989 1.217a99.324 99.324 0 0 0 5.406 2.96c10.851 5.527 22.407 9.568 34.215 12.49 24.107 5.964 48.976 6.753 73.295 1.844 10.091-2.038 20.208-4.099 30.06-7.12 8.854-2.715 18.488-6.109 26.005-11.656 6.105-4.504 11.716-11.829 15.529-18.295 1.458-2.474 2.295-5.068 2.432-7.641 1.126 12.649-2.33 25.079-6.545 36.913-.752 2.11-1.28 4.275-1.786 6.454-.611 2.627-4.423 4.545-6.542 5.83-5.166 3.133-10.134 6.579-15.344 9.649-21.643 12.753-48.005 18.267-72.88 19.086-25.042.824-49.838-4.159-73.072-13.359-6.072-2.405-11.979-5.189-17.808-8.132-2.214-1.117-4.593-2.192-6.434-3.887-1.997-1.839-1.16-8.068-1.194-10.527zm21.805 46.423c1.475 4.551 3.265 8.914 5.12 13.319 1.109 2.633 4.755 9.826 1.765 12.528-5.587 5.049-15.205-19.666-16.442-22.514-4.678-10.77-8.194-22.299-8.285-34.107l.284.151c2.957 1.624 5.97 3.131 9.014 4.586.678.324 1.363.632 2.044.946.041.077.09.152.149.224 2.935 3.481 6.275 6.484 9.751 9.349-6.619 1.586-5.147 10.128-3.4 15.518zm49.958 22.963c-5.055-4.468-10.103-8.93-15.059-13.513-6.739-6.23-12.984-13.062-19.924-19.061-5.113-4.42-10.665-8.299-15.621-12.868 20.129 8.553 41.639 13.721 63.504 14.856 25.269 1.313 50.648-2.996 74.089-12.483 11.28-4.564 21.402-11.344 31.58-17.919.033-.022.062-.044.096-.066-3.617 5.448-8.34 10.122-13.067 14.624-5.864 5.583-11.969 10.856-18.041 16.207-6.044 5.326-11.174 11.283-16.544 17.256-5.523 6.143-11.769 11.916-16.341 18.837-.486.238-.717.786-.68 1.311l-.002.053a1.576 1.576 0 0 0-.13.547c-.389 5.979.708 11.914.626 17.896-.066 4.869-.763 9.983-.128 14.844-.333.203-.664.401-.985.593-6.922 4.12-15.13 5.946-23.097 6.357-6.929.36-13.728-1.126-20.264-3.311 1.521-2.856-.091-9.46-.375-11.572-.98-7.317-1.154-14.763-2.285-22.056.251-.24.41-.61.367-1.116-.323-3.837-5.107-7.109-7.719-9.416zm-3.015 33.465c1.998-3.089 6.255-4.207 9.525-5.36.055.466.104.934.17 1.399.64 4.531 1.545 9.239.797 13.773-.556-.201-1.114-.397-1.665-.607-3.317-1.261-12.396-3.683-8.827-9.205zm-1.344 7.357c3.456 3.304 9.483 4.853 13.851 6.359 6.276 2.168 12.836 3.385 19.476 3.397 10.917.018 23.318-3.421 31.488-10.938.979-.9 1.909-1.985 2.633-3.182.091.8.182 1.6.305 2.388.149.959.384 1.892.627 2.818-2.984 2.837-6.816 4.766-10.428 6.666-6.948 3.656-13.17 6.038-21.073 6.78-.135.014-.274.022-.41.034.884-.534.733-2.233-.485-2.262-6.933-.16-13.482-.242-20.272-1.958-5.003-1.265-10.602-2.837-14.948-5.869a142.483 142.483 0 0 1-.86-4.335c.033.035.061.069.096.102zm1.759 8.91c-.141-.678-.287-1.355-.433-2.032 3.126 2.427 7.109 3.601 10.982 4.943 4.419 1.532 9.345 2.542 14.246 2.887-8.659-.132-17.64-1.625-24.795-5.798zm50.249 6.635c-6.806 2.512-13.931 2.938-21.118 2.973-7.413.035-14.81-.644-22.01-2.439-3.188-.795-5.044-1.757-6.162-4.063 9.609 6.037 23.512 5.828 34.229 5.107 6.908-.464 13.554-2.318 19.639-5.608 4.122-2.227 8.897-4.355 12.548-7.535.079.425.139.856.184 1.292-2.328 1.959-4.551 4.012-7.085 5.719-3.089 2.08-6.756 3.274-10.225 4.554zm13.652-22.512c-.845 2.039-2.549 3.658-4.417 5.011.27-4.434.142-8.862-.079-13.29 3.523.86 5.978 4.707 4.496 8.279z"/><path d="M206.107 317.812a1.395 1.395 0 0 0-.32-.524 1.297 1.297 0 0 0-.521-.595c-6.423-3.888-13.176-7.373-20.229-9.979-5.545-2.049-12.102-3.802-16.252-8.271a1.427 1.427 0 0 0-.142-.698c-.434-.924-.741-1.892-1.021-2.87 3.32-.28 6.633-.628 9.931-1.105.918-.133 1.236-.948 1.1-1.79a40.232 40.232 0 0 1-.494-6.034c-.01-.832-.706-1.563-1.558-1.325-3.006.844-6.248.478-9.192 1.466-1.158.389-.924 2.472.347 2.465 2.634-.017 5.426-.285 8.049-.867.061 1.174.174 2.341.335 3.509-3.052.464-6.111.869-9.139 1.473a20.81 20.81 0 0 0-.631-1.852.446.446 0 0 0-.09-.138c.139-.322.109-.739-.145-.962-3.136-2.742-9.571-1.543-13.291-.848-.766.144-1.013 1.043-.85 1.813-.985 1.494-1.387 3.339-1.927 5.054-.421 1.345-.852 2.684-1.435 3.967-.346.765-.501 1.057-.843 1.151-.764-1.521-1.907-2.899-2.872-4.3-1.026-1.493-1.984-3.03-2.975-4.546-.04-.061-.084-.088-.126-.137-.135-.501-.497-.936-1.06-.963-2.075-.104-4.25.281-6.32.496-2.057.212-3.869 1.096-5.904 1.415-.258.041-.388.254-.398.479-.122.125-.229.28-.301.51-.396 1.296-.514 2.603-.715 3.883a1.048 1.048 0 0 0-.492-.074c-3.073.228-5.949 1.399-8.973 1.846a45.321 45.321 0 0 1-.34-2.113c2.257-.839 4.552-1.457 6.854-2.185 1.225-.39.981-2.657-.367-2.608-2.823.105-5.662 1.328-8.245 2.384-.536.219-.956.826-.881 1.428.212 1.709.421 3.414.807 5.095.123.533.642 1.09 1.231 1.04 3.333-.288 6.395-1.745 9.7-2.131a7.15 7.15 0 0 1-.735 1.377c-1.481 2.12-3.607 3.793-5.545 5.474-3.431 2.979-6.31 5.97-8.721 9.867-2.166 3.501-4.525 6.665-6.931 9.985-1.196 1.652-2.733 3.906-1.988 6.028.102.288.252.482.42.638.349 1.055.678 2.118 1.013 3.179.451 1.433.901 3.334 2.078 4.33.239.202.475.289.69.294.193.219.454.377.787.409 8.342.787 16.614-1.472 24.851-2.504 8.22-1.029 16.497-1.346 24.698-2.542 8.351-1.219 16.593-3.077 24.898-4.554 8.226-1.461 16.506-2.562 24.627-4.563 1.143-.282 1.207-1.719.589-2.515.281-2.367-.266-5.283-1.036-7.462zm-24.257 11.41c-8.317 1.434-16.56 3.248-24.898 4.572-8.184 1.3-16.476 1.641-24.696 2.652-8.258 1.016-16.426 3.307-24.799 2.805-.375-1.246-1.071-2.466-1.486-3.681-.354-1.037-.71-2.072-1.087-3.101-.008-.065.003-.124-.014-.194-.54-2.142 3.609-5.972 4.839-7.535 2.64-3.354 4.426-7.306 7.093-10.667 2.79-3.521 6.755-6.041 9.723-9.439 2.717-3.114 2.535-6.396 3.103-10.267 1.255.31 2.491-.127 3.978-.234 2.295-.169 4.749-.01 6.993-.577.695 1.52 1.506 2.963 2.37 4.397.88 1.466 1.802 3.101 2.958 4.393.018.187.057.363.131.508 1.674 3.242 4.436-.877 5.098-2.494.704-1.718 1.172-3.531 1.651-5.32.26-.976.421-2.203.678-3.258 2.092-.275 4.158-.562 6.271-.639 1.916-.068 4.022.498 5.878.004.032.641.065 1.279.109 1.918-.418.446-.325 1.361.155 1.742.119 1.063.313 2.114.585 3.153-.142.337-.17.727.022 1.054 2.907 4.947 8.941 7.184 14.047 9.143 8.152 3.128 15.969 6.623 23.466 11.144.024.014.046.019.069.031.186.894.313 1.794.389 2.708.082.976.032 2.014.206 2.989-7.536 1.79-15.205 2.876-22.832 4.193z"/><path d="M188.217 318.944c-.032-.373-.205-.725-.563-.923-6.255-3.501-12.489-6.614-19.091-9.387-.144-.583-.562-1.053-1.252-1.001-5.263.395-10.522.31-15.775.903-5.924.67-11.777 1.719-17.75 1.88-.898.023-1.233.947-1.066 1.712-5.195 2.649-8.865 7.455-13.504 10.916-3.554 2.65-5.018 4.639-4.1 8.705-1.056.676-.662 2.776.751 2.327 5.235-1.664 10.669-1.235 16.073-1.651 5.708-.439 11.461-1.508 17.067-2.641 12.868-2.601 25.91-4.295 38.909-6.108.516-.072.867-.398 1.065-.812.151-.151.271-.353.327-.606.168-.749-.061-1.666-.283-2.396-.127-.412-.426-.775-.808-.918zm-57.563 10.614c-4.347.353-8.903-.047-13.095 1.217-.438-2.084.139-2.74 2.081-4.416 1.288-1.11 2.801-1.967 4.002-3.181 3.456-3.489 7.093-6.725 10.7-10.043 5.268-.067 10.453-.778 15.675-1.43 5.78-.722 11.57-.618 17.367-1.052.022-.002.04-.009.062-.011 4.042 2.188 8.343 3.787 12.247 6.29 1.591 1.02 4.732 3.716 7.023 3.559.009.054.001.108.016.159.009.033.013.07.022.104-11.818 1.636-23.728 3.095-35.424 5.442-6.843 1.375-13.706 2.793-20.676 3.362zM149.486 290.165c1.458-.249 1.51-2.75-.068-2.729-2.466.034-4.902.932-7.337 1.266-1.163.16-1.113 1.97.05 2.08 2.428.23 4.96-.207 7.355-.617z"/></svg>