<svg version="1.1" xmlns="http://www.w3.org/2000/svg" x="0" y="0" width="325.984" height="214.016" viewBox="85.05 55.829 325.984 214.016" xml:space="preserve"><path d="M213.896 87.534c.011.775-.991-.062-1.104.315-.406.372-.543.821-.158 1.262.558-.18.983-.489 1.735-.474.892 1.206-.352 3.23-1.893 2.523.001-.419-.061-.901.157-1.104.169.305.303.645.946.473.382-.091.352-.596.474-.946-.579-.517-1.15.316-1.894.158-1.358-.887.344-3.842 1.737-2.207zM202.068 88.953c.172-1.195 1.006-1.727 2.366-1.735 2.603 2.071-.895 5.122-2.366 1.735zm1.104 0c.042.525 1.03.626 1.419.315.062-.64-.058-1.099-.631-1.104.102.629-.93.122-.788.789zM228.878 87.376c.22.902-.36 1.005-.473 1.577.529.733 1.966.557 2.05 1.735-.983.798-1.558-1.043-2.839-.946-.446-.026.131.972-.315.946-1.092-.222-.665-1.963-.945-2.996.593-.357 1.699-.67 2.522-.316zm-1.735.946c.305.016-.273.616.314.631.311-.268.673-.484.789-.946-.277-.26-.781.144-1.103.315z"/><path d="M206.799 87.376c-.223.749-.579 1.653 0 2.523.581.003.697-.459.946-.788.091-.81-.642-.97-.314-1.577 1.906.507 1.209 3.364-.947 3.154-.736-.607-1.428-3.261.315-3.312z"/><path d="M210.426 87.376h.474c.473.77-.304 2.165.474 2.366-.461.117-.189.966-.789.946.028-.506-.251-.938-.789-1.261-.666.197-.054.853-.156 1.419-.348-.427-.524-.044-.946-.316.505-.818-.227-2.117.157-2.838h.789c.255.664.189.726.63 1.261.525-.369-.235-1.308.156-1.577zM217.05 87.534c-.036.489-.56.492-.945.631.121.615 1.32.15 1.262.946-.262.264-.926.125-1.419.157-.047.836 1.239.339 1.893.474-.049.945-1.591.896-2.05.946-.704-.453-.633-1.68-.631-2.839.684-.278 1.408-.571 1.89-.315zM218.311 87.376h.631c.343.704-.156 1.383 0 2.366.301.435 1.639-.167 1.735.473-.364.907-1.32.33-2.523.473.022-1.029.042-2.041.157-3.312zM221.151 87.376c.746.147.397 1.389.631 2.05.098.374.97-.024 1.104.315-.231-1.195.877-2.227 2.208-2.366 2.142 1.091-.195 4.893-1.893 2.838-.451.634-.947.323-1.893.315-.249-.801-.908-2.814-.157-3.152zm3.627 2.839c.288-.494.894-1.72 0-2.05-1.352.043-1.427 2.02 0 2.05zM267.202 92.423c-.863.127-.772-.699-1.262-.946-.234.134-.34.396-.316.788 1.447.535 1.674 2.188 1.104 3.627-.147-.096-.582-.367-.475.158-.312-.159-.552-.394-.788-.631.475-.314.863-.714.946-1.419-.306-.64-1.117-.775-1.577-1.262-.334-2.285 2.34-2.245 2.368-.315zM269.567 92.738c.68 1.155.865 4.306-.631 4.101-1.457-.2-1.775-5.307.631-4.101zm-.158 3.155c-.159-.391.345-2.459-.631-2.523-.512.379-.356 2.903.631 2.523z"/><path d="M271.933 93.527c-.967.615-1.557 3.596.473 3.47-.192.491-.661.706-1.42.631-1.005-.849-.855-5.519.947-4.101zM273.194 94c1.401.721-.032 2.77.789 4.258-.446-.13-.409.222-.789.157-.212-1.154-.331-3.727 0-4.415zM275.245 94.473c.282-.02.332.193.631.158-.164 1.644 1.389 3.709.157 4.889-.244-.229-.139-.808-.157-1.262-.975-.021-1.084.313-1.104.946-.289-.622-.394.207-.788-.158.3-1.73 1.228-3.488 1.261-4.573zm-.158 3.312h.632c-.263-.263.101-1.152-.474-1.104.091.512-.108.734-.158 1.104zM277.295 95.577c1.297.959-.139 2.82.475 4.1.506.183 1.874.288 2.207 1.104-.269-.058-.297.123-.314.315-.962.011-1.464-.906-2.366-.473-.217-1.426-.405-3.432-.002-5.046zM306.313 102.989c-.059 2.493.143 3.982.314 5.678-.447-.45-.228.573-.945.314v-2.208c-.289-.156-1.099.362-1.734 0-.39.42.246 1.163-.474 1.418-.817-.762-.759-4.467.156-5.046.271.699-.427 1.287 0 2.523.849.3 1.257.603 2.052.315-.101-.78-.676-3.123.631-2.994zM308.521 104.093c.255-.044.271.149.473.158-.471 2.523 1.056 5.405-.788 6.309.202-2.732-.692-5.005.315-6.467zM311.202 105.355a17.884 17.884 0 0 0 1.42 4.889c.989-1.591.604-3.125 1.894-4.416.31 1.87-1.312 3.881-1.42 6.31-.303.065-.68.057-.632.473-.596-.488-.452-1.508-.788-2.523-.47-1.421-1.798-3.231-.945-4.731.155-.002.314-.002.471-.002zM202.698 108.825c.004 1.011.099 1.142 0 2.05 1.116.461 3.446-.292 3.943.789-.199 1.497-2.872 1.313-4.102 1.261-.479.948.594 3.125-.314 3.943-.926-.178-2.111-.098-2.839-.473.094-2.754-.561-5.722 0-8.043.909-.64 2.812-.267 3.312.473zm-2.523 0c-.688 2.708-.014 4.564 0 7.097.747-.116 1.084.179 1.735.158.02-1.048-.45-1.511-.314-2.997-1.068.227-.733-.949-.789-1.734.352-.386 1-.473 1.262-.947a3.394 3.394 0 0 0-.158-1.418c-.4-.212-1.254-.526-1.736-.159zm1.262 3.313c.953.156 2.312.019 3.312-.158.704.123 1.07-.242.158-.158-1.691-.109-2.373.102-3.312-.315.011.273-.036.489-.158.631zM301.897 112.608c-.704-.188-.371-1.416-1.262-1.418-.354.065-.005.836-.315.945 1.455.782 2.376 1.494 2.05 3.785-.507.854-3.268.963-2.521-.631.688-.059.573.688 1.419.475.669-.271.146-1.455 0-1.894-.277-.563-1.163-.519-1.577-.946-1.38-3.174 3.637-2.924 2.206-.316zM303.948 112.608c.624 1.072-.678 2.287 0 3.787 1.986.25.011-3.459 1.577-3.627.441 1.521.31 4.84-2.051 4.572-.898-1.56-.485-3.165 0-4.73.158-.002.316-.002.474-.002zM307.418 116.552c-.202.92.154 1.575.314 2.523-.559-.085-.388.559-.945.473-.169-2.229-.448-3.699-.158-5.835 2.035-1.357 3.356 2.587.789 2.839zm0-.946c.403-.018.751-.09.945-.315-.371-.049-.094-.748-.631-.631-.219.2-.096.745-.314.946z"/><path d="M200.333 113.871h.789c.073.37.262 1.099 0 1.735-.127-.109-.432-.246-.473 0-.425-.591-.085-1.157-.316-1.735zM315.302 116.237c1.131 1.564.497 5.515-1.735 5.047-1.922-.404-1.724-7.163 1.735-5.047zm-1.891.787c-.213 1.507-.199 2.299.314 3.471 2.412.004 1.285-4.732-.314-3.471zM318.299 119.549c.406 1.265 1.9 2.146 1.735 3.47-1.402.293-1.561-1.865-2.365-2.681-.302.638.129 1.252-.631 1.577-.514-.788-.858-3.622-.631-4.416.866-3.025 5.006.734 1.892 2.05zm-.946-.789h1.104c.254-.507.13-1.045-.158-1.419h-.787c-.042.746-.066 1.037-.159 1.419zM323.661 118.287c.206.694-.009.646-.314 1.104-.479.006-.612-.334-.946-.474-.694 1.364-.182 3.185-.315 4.89-.421-.002-.343.498-.788.473-.239-2.245.043-3.551 0-5.521-.098-.534-1.062-.2-1.419-.473.147-1.988 3.057.16 3.782.001zM354.887 120.337c.411-.044.679.059.631.473-.412.044-.678-.057-.631-.473zM361.669 122.388c1.466.567 3.29.537 4.26 1.894-1.109 1.099-1.771-.771-3.471-.474-.475.924.125 2.808-.157 3.154.45.01 2.303-.154 2.839.631-.408.828-1.771.307-2.522.157-1.146 1.862 1.009 2.901 2.68 3.312.12.592-.602.345-.63.789-1.009-.252-1.622-.901-2.839-.945-.58-2.218-.656-5.768-.16-8.518zM130.783 123.649c.741.205.562 1.33 1.261 1.576-.666.348-.981-1.01-1.261-1.576zM367.662 124.123c.05 1.412.204 5.028.158 7.254.497.554 1.496.606 2.207.946.042.515-.611.334-.631.789-1.148-.113-1.91-.613-2.682-1.104.669-2.055-.392-5.171.158-7.885h.79zM374.601 125.542c.161.686-.326.725-.475 1.104-.255-.218-.812-.133-.945-.473-.661 1.838-.479 4.137-.315 6.467-.303.221-.635.416-1.104.473-.039-3.055.149-4.59 0-7.413-.281-.044-.324.149-.158.157-.401.082-1.438-.556-2.05-.789 1.082-1.441 3.593.279 5.047.474zM120.847 124.911c.791-.055.773.697 1.419.788-.497.385-1.219-.35-1.419-.788zM375.705 125.856c.573.006.692.463.631 1.104 1.047.284 2.317-.032 2.839.315-.268.889-1.86.451-2.839.631-.113.443.077 1.767 0 2.681.775.33 1.828.38 2.683.631-.232 1.329-1.437.679-2.523.474-.512.275-.336 1.543-.158 2.05.577.567 1.902.352 2.523.473-.359 1.563-2.688.677-3.628.158.16-2.226-.103-6.185.472-8.517zM382.172 132.481c.626 1.318 1.61 2.278 2.051 3.785-.333.14-.468.479-.946.473-.425-1.626-1.508-2.594-2.208-3.943-.678.984.651 3.139-1.104 3.154-.134-3.061-.278-5.619.316-8.358 2.808-.165 5.71 3.825 1.891 4.889zm-1.262-.63c1.273.117 2.093-.221 2.365-1.104-.324-1.147-1.385-1.56-2.365-2.05.023 1.005-.319 1.982 0 3.154zM135.041 129.8c.618.172-.353 1.272-.314 1.893-.397-.508.293-1.278.314-1.893zM135.83 130.272c.546.648-.279 1.353-.158 2.523-.573-.351.203-1.691.158-2.523zM136.145 140.367c-.238-.445-.278-1.089-.315-1.735.53.121.395 1.501.315 1.735zM140.404 146.99c.372.382-.549.81-.631 1.262-.407-.417.446-.914.631-1.262zM127.156 158.503c-.5.604-1.122 1.086-1.419 1.893-.182-.627.665-2.174 1.419-1.893zM143.873 161.974c.418.322-.267 1.963-.789 2.364.16-.892.388-1.714.789-2.364zM142.769 162.288c.127.083.256.165.474.158-.481.943-.974 1.578-1.577 2.05-.277-1.38.825-1.382 1.103-2.208zM129.679 164.338c-.576.478-1.375.729-1.735 1.42-.121-.546.748-1.458 1.735-1.42zM153.809 167.021c.705.719.312 2.239.789 2.838-.606-.234-.559-1.125-.632-1.894-.512.179-.016 1.563 0 2.209-.843-.777-.483-2.775-.157-3.153zM151.916 167.334c.562.681.139 1.837.315 3.154-.644-.768-.306-2.294-.315-3.154zM150.812 167.492c.595.772.323 2.409.473 3.628-.642-1.108-.294-2.766-.473-3.628zM129.837 168.597c-.247.385-.85.412-.945.946-.456-.466.356-1.002.945-.946zM129.679 169.543c-.596.824-1.477 1.362-2.051 2.208.133-.659 1.041-1.902 2.051-2.208zM144.189 172.696h.473c-.688 2.31-.372 5.469-1.734 7.412a30.108 30.108 0 0 0 1.261-7.412zM130.941 173.013c-.658 1.444-1.299 2.905-1.577 4.73-.17-1.049.426-3.963 1.577-4.73zM149.393 173.013c.82.703.677 2.372.945 3.627-.659-.78-.669-2.985-.945-3.627zM138.038 173.17c-.251.38-.115 1.146-.631 1.263.112-.52.075-1.188.631-1.263zM141.034 173.17c.333 1.57-1.081 4.05-1.104 6.31-.488-1.752.781-4.334 1.104-6.31zM132.676 173.485c.435 1.289-1.127 3.277-1.261 5.047-.224-1.696 1.014-3.295 1.261-5.047zM132.045 173.644c.146.972-.816 3.465-1.576 4.573.51-1.539.996-3.104 1.576-4.573zM136.145 173.644h.473c-.753 1.717-1.222 3.719-2.208 5.205.477-1.837 1.404-3.224 1.735-5.205zM141.508 173.801c.466 1.856-.938 4.228-1.262 6.623-.093-2.091 1.046-4.316 1.262-6.623zM128.102 180.897c-.399.441-.979.703-1.419 1.104-.116-.332.622-1.16 1.419-1.104zM153.178 232.626c-.973.975-2.097 1.794-2.523 3.312-.039-1.353 1.21-2.785 2.523-3.312zM126.998 241.615c.272.674.771 1.122 1.261 1.577-.787-.095-1.578-.884-1.261-1.577zM126.21 242.877c.793-.058.323 1.147 1.263.946-.442.776-1.115-.433-1.263-.946zM135.514 250.289c.583.313 1.112-.037 1.576.158-.161.202-1.657.406-1.576-.158zM151.759 250.92c-.695.408-1.164 1.043-2.05 1.263.374-.731 1.157-1.051 2.05-1.263z"/><path d="M411.032 269.845c-.941-.846-3.196-1.217-3.47-2.207.201.402.772-.146.788.157.319-.806-1.652-1.328-2.365-1.894-1.324-1.047-2.376-2.297-3.785-3.312-4.958-3.567-10.388-6.891-14.666-10.882.297-.807.104-2.105.156-3.154-11.772-7.813-24.232-17.26-36.272-25.549-2.334-1.607-5.5-5.425-7.569-2.208-4.734-2.985-9.172-6.593-13.404-9.62 0 .633-.083 1.18-.789 1.104-.232-1.334-.306-2.884-.315-4.573-10.913-7.38-21.188-15.398-32.173-22.71-.63.339-1.761.502-2.681.946-2.412-2.139-8.581-3.783-7.57-7.887-7.374-5.289-16.32-11.834-24.287-16.875-.964-.608-1.127-1.086-1.734-1.104-.949-.028-1.079.824-1.734 1.104-.21-.695-.531-.299-1.104-.158-1.437-.946-2.83-1.786-4.102-2.838-1.304-1.08-2.26-2.51-3.47-3.627-1.977-1.828-4.801-2.631-6.781-4.574-2.367.107-6.909-.518-9.778.158-.396-.551-.317-1.576-.788-2.051-1.756.912-3.957.778-6.15.946a61.331 61.331 0 0 1-6.466.158c-7.519-.238-15.758-.188-21.922-.474-.478.521-.138 1.25-.946 1.577-.789.32-2.703.072-3.785.158-1.319.104-2.454.099-3.627.158-12.001.599-27.892-.627-42.266-.158 1.218 1.122 2.933 2.767 3.153 5.204.144 1.57-.976 3.218 0 4.416 4.476-.819 7.798 5.011 5.679 8.832.554 2.984 1.759 5.871 2.05 8.988.552 5.918-2.304 12.015-2.365 18.295-.032 3.218.315 6.535.473 9.777.16 3.283.706 6.603.475 9.62-.334 4.341-2.062 8.419-2.682 12.617-.593 4.021.363 7.881.788 11.828.453 4.203.251 8.308.789 12.459-1.85-.733-2.293 1.771-3.942 2.364-2.288.824-4.729-1.7-6.624.158.248.711.081.727.631.945.273.109-.017.312.158.475 2.04 1.89 8.537.453 11.513 2.207.827.487.997 1.268 1.892 1.734-1.208 1.475-2.017 3.053-3.627 3.785-3.737 1.697-8.911-.499-13.404.631-.855-.046.041.743-.789.788-2.529-.293-5.269-.668-7.57-1.577.32-.888-.542-1.844-.631-2.839-2.603 1.013-5.143-.161-8.832-.631-.533-1.606-.629-4.496.631-5.677-.598-.348-.888-1.006-.946-1.894-1.535-.463-2.104-1.892-3.153-2.839.03-.818.27-3.762 0-4.73 2.292-6.945 1.326-14.5 3.153-20.817.118-.486-.544-.192-.314-.789 1.417-5.138-.604-10.071-.789-14.824-.083-2.12.074-4.554.158-6.308.035-.762.562-1.975-.158-2.209 1.132-1.258.105-4.196 1.419-5.835-1.425-4.858-.242-12.189 1.419-16.718-2.083-1.865-1.679-5.172-1.419-8.517-1.77-.521-3.72-.591-4.258-2.051-.475-1.283.323-3.974.789-5.992.506-2.198.777-4.396 1.419-5.678-.657-1.824-.03-3.429-.158-4.89-4.852.396-10.832.263-17.032.315-6.518.056-14.438.541-20.818-.158V55.822h325.984c-.007 71.346-.007 142.691-.007 214.023zM262.628 102.043c-.491-.072-.504.337-.473.789.296.875-.08 1.749-.158 2.681-.263 3.151-.137 6.964 0 10.882.443 12.647-.515 27.127-.631 42.107-.008.322.809-.458.315.158-.122.035-.185.132-.158.314.01.097.023.188.158.158 1.964 1.504 4.177 3.008 6.309 4.573a200.431 200.431 0 0 0 6.309 4.416c4.303 2.909 8.354 6.078 12.616 8.517.085-11.52.334-23.854.631-35.8.446-17.952-.303-33.577-.314-50.467-8.179-1.677-16.908-4.192-24.76-5.993.061 6.613-.176 12.727.156 17.665zM224.62 73.34c-9.412.493-18.763.015-29.176.946.448 6.342-.085 13.722.63 19.871.039.333-.311 1.271.315 1.262-.315-3.564.324-6.762.314-10.566-.008-3.473-1.176-7.512.158-10.251 5.905-.282 11.711.201 17.979.157 5.709-.04 13.568-.046 19.083 0 .343 1.004-.087 1.227-.157 2.366-.168 2.731.474 6.24.474 9.778 0 13.36-.577 24.521 0 37.219.403 8.874-.62 16.807.789 24.604 1.263-2.179.328-4.74.157-7.098-.503-6.982 0-14.752 0-23.656 0-15.139-.091-29.688-.63-44.159-3.346.488-6.858-.634-9.936-.473zm3.785 3.154c-3.306.15-7.422.208-10.882 0-6.279-.377-13.042-1.343-20.029 0-.001 2.331-.049 4.949.157 6.624 12.28-.511 23.19.266 35.483 0-.601-1.997-.036-5.38-.63-6.939-1.246.306-2.914.262-4.099.315zm30.28 5.205c.841-.406 1.674.812 2.522 1.104 2.104.722 4.614 1.049 6.938 1.577 6.343 1.441 12.896 3.858 19.083 4.889.095-1.775-1.98-1.626-2.838-1.892-2.233-.692-4.396-1.382-6.311-1.893-6.584-1.76-14.156-3.098-19.556-5.205-.104.635.155.901.162 1.42zm-61.033 2.681c.08 4.881-.418 9.496-.315 14.352.323 15.229.917 33.166.789 49.363 2.94-.498 5.528-.025 8.201.158 1.699.117 3.52-.107 5.362-.158 7.037-.189 14.711.463 21.605-.314.021-11.887-.314-22.754-.314-34.223 0-11.016.216-19.5 0-29.333-10.428.48-23.107.332-35.328.155zm62.61 1.262c.492-.032 1.156.106 1.419-.158-.003-.418.087-.929-.315-.946-.488.247-1.373.097-1.104 1.104zm0 .945c.534.014 1.056.272 1.419-.157-.27-.065.032-.204 0-.474h-1.419v.631zm-.946 34.225c.242-11.963-.059-22.351-.158-34.224-.034-.123-.132-.183-.314-.157.054 11.193.083 24.872.472 34.381zm.946-33.751v.473c.508-.035.667.279 1.261.158v-.789c-.68.084-.883.046-1.261.158zm1.261 1.104c-.135-.39-1.097.046-1.261-.316-.14.547 1.357.832 1.261.316zm-.945 1.262c.169-.321.936.28 1.104-.315-.245-.042-.109-.346 0-.474-.479.217-.563-.075-1.263 0 .087.229-.183.815.159.789zm-.316.472c.122.035.183.132.156.315.711.114.787-.051 1.263.158-.11-.485-.11-.303 0-.789-.509.069-1.363-.207-1.419.316zm71.6 120.648c-.096-.009-.188-.022-.157-.157-.393-11.601-.274-22.793-.158-33.908.059-5.436.053-10.804.158-16.244.104-5.415-.379-10.916-.315-16.401.16-13.903 1.101-30.869.474-44.316-.625.339-1.286-.075-1.893-.315-2.434-.965-4.82-1.788-7.412-2.366-3.396-.758-7.13-1.53-10.726-2.208-1.015-.191-2.015-.1-2.996-.315-2.865-.63-5.364-2.352-8.043-2.681-2.104-.258-3.035-.267-4.89-.788-.621-.175-2.313-1.024-2.207.315-.505.431 1.316-.218 1.576.158 9.972 2.492 20.527 5.105 30.911 7.413 1.457.324 4.147.553 4.416 1.262-.059-.151-.47 1.737-.474 2.05-.031 2.172.553 4.232.63 6.466.069 1.973-.251 4.195-.313 6.309-.059 1.899.224 3.478.157 5.52-.811 24.834-.015 47.092-.157 70.811-.039 6.285-.26 13.061 0 18.769.581-.001 1.052.932 1.419.626zM260.42 90.846c.119.032 1.157.467 1.263-.158-.079-.218-1.423-.383-1.263.158zm0 .788c.117.356.886.062 1.263.158.183-.852-1.121-.653-1.263-.158zm33.75 26.338c-.036 2.793-.418 5.575-.473 8.518-.053 2.808.349 6.91.157 11.039-.088 1.881-.317 4.266-.315 6.309.006 8.176-.203 16.792.158 22.553.066 1.069-.107 2.377.473 2.682-.389-1.155-.042-1.832 0-3.154.125-3.911-.173-8.915-.157-12.932.01-2.379.854-4.979-.157-6.309.41.094.566-.062.473-.473-.355-2.756.203-3.786-.314-6.467.452.361.277-.051.314-.314.361-2.533.129-5.363-.157-6.624.067-.248.496-.135.315-.631.229-.596-.434-.303-.315-.789.52-1.836.102-3.93.157-5.993.17-6.104-.236-13.027 0-19.871.124-3.559-.076-6.949 0-10.566.029-1.364.955-2.617-.788-2.997.406 9.14.734 17.881.629 26.019zm-33.908-25.549c.445.457.729.103 1.419.315.015-.43-.264-.317 0-.631-.509.068-1.363-.207-1.419.316zm36.589 1.419v-.789c-.447-.237-1.191-.176-1.578-.473a3.398 3.398 0 0 1-.157 1.419c.41.296 1.506.223 1.735-.157zm-36.431-.631c.235.326 1.364.218 1.263-.315-.397.13-1.359-.307-1.263.315zm36.904 90.368v.473c10.02 6.793 20.217 14.528 30.122 21.29.55.376 1.169.994 1.893.947-.286-3.286.021-7.28.158-10.882.135-3.521-.358-7.09-.314-10.566.203-16.268.044-32.247.156-49.048.021-2.851-.433-5.67-.314-8.517.321-7.827.35-16.881.314-25.864-9.306-2.429-21.682-5.145-31.856-8.201.045 3.601.365 5.225.158 8.99.392.205.653-.463.788 0-.274.146-.848-.006-.788.473.252 1.664-.538 4.02.314 5.835-.876 4.04.159 7.5-.314 10.251-.14.735.52-.106.473.315.062.378-.719-.087-.473.473.386 3.456-.121 7.881-.158 11.355-.007.646.271-.109.314.314.039.376-.322 1.539-.314 1.893.175 7.412-.254 13.47-.473 19.24-.3 7.893-.269 14.092.156 19.873-.669 3.279.319 7.106.158 11.039-.048.492.455-.4.473.157-.217-.005-.346.076-.473.16zM260.42 93.842c.164.167 1.126.326 1.263 0-.122-.035-.185-.132-.158-.315-.463.221-.776-.181-1.105.315zm0 .789c.396-.13 1.358.307 1.263-.315-.14-.23-1.269-.122-1.263.315zm34.853.315c.219.36 1.099.059 1.578.158v-.789c-.522.215-1.648-.175-1.578.631zm-34.853.158c-.175 1.1.956.282 1.263.631v-.789c-.509-.034-.669.279-1.263.158zm34.853.315v.473c.831-.044.936.167 1.578 0v-.631c-.675.133-1.198.07-1.578.158zm-33.592.947c.159-.541-1.186-.375-1.263-.158.787.04.673.065 1.263.158zm33.75.788h1.42c.014-.589.176-.45 0-.946-.532.1-1.466-.203-1.735.158.327.04.043.693.315.788zm-34.853.158c.119-.141.503-.135 1.104-.158v-.631c-.626.11-1.595-.059-1.104.789zm36.431.315c-.171-.512-1.106-.26-1.734-.315-.15.734 1.443.544 1.734.315zm-36.589.474c.778.124 1.344.245 1.42-.631-.629-.136-1.166.235-1.42 0v.631zm35.011.63c.771-.161 1.067.144 1.576-.158-.27-.065.033-.204 0-.473-.645.036-1.168-.402-1.893 0 .294.024.099.535.317.631zm-35.011.474c.869-.139 1.318.275 1.263-.789h-1.263v.789zm35.011.472c.579-.058.945-.161 1.576 0v-.788h-1.734c-.05.366.027.606.158.788zm-35.169-.157v.946c.634.24 1.604-.053 1.419-1.104-.519.007-.785.266-1.419.158zm35.011 1.104c.208-.528 1.772.301 1.734-.474-.02-.664-1.211-.156-1.734-.315.205.392-.351.766 0 .789zm0 .788c.237-.552 1.972.395 1.734-.631-.386-.425-1.027.225-1.734 0 .217.36-.406.594 0 .631zm-35.169 0c.634-.05 1.622.255 1.419-.631-.577-.116-.876.388-1.261 0 .036.299-.177.348-.158.631zm-63.556 17.032c-.016 10.529-.222 19.941.315 30.597.165-16.504.117-31.618-.631-47.628-.662 5.714.323 11.684.316 17.031zm98.725-16.716c.238.138-.043.236.158.631h1.576v-.946c-.584.097-1.622-.257-1.734.315zm-35.011 0c-.198.678 1.194.437 1.261 0-.161-.352-.724.206-1.261 0zm126.167 9.936c-8.476-1.945-17.809-4.436-26.181-6.309-1.514-.338-2.942-.948-4.416-1.262-2.028-.433-4.24-.317-6.309-.788-2.305-.525-4.804-1.28-6.938-1.578v.474c.106 3.086.44 5.862.631 8.673.192 2.848-.243 5.609-.314 8.832-.193 8.65-.207 15.964-.158 24.918.133 24.607-.596 48.557-.157 72.704.204-19.521 1.521-40.8 1.104-58.825-.129-5.57-.034-11.836.157-17.82.131-4.072.081-8.098.157-11.986.105-5.315.388-11.719.158-17.663-.076-1.952.279-4.148 0-5.678-.179-.972-1.31-1.305-.315-2.366 1.357-.355 3.103 1.221 4.416.473 1.245 1.207 3.158 1.214 4.73 1.577 11.531 2.661 23.627 5.919 35.012 8.201.466.114.771.386.945.789.172-.321.516-.888.947-.474.521 10.752-.08 20.125-.315 30.123-.095 4.026-.812 8.139-.632 11.512.146 2.682.733 5.384.632 8.201-.565 15.674.102 32.537-.945 49.521a291.673 291.673 0 0 0-.315 29.965c.064 1.606.287 3.488.315 5.047.028 1.64-.643 3.996 1.576 4.574-.257-14.169-.112-32.31.157-46.052.027-1.352.479-2.721.475-4.102-.026-5.238-.442-10.229-.158-15.929.554-11.114.39-22.892.946-34.696.579-12.301 1.298-26.818 1.262-38.638-2.391.401-4.285-.917-6.467-1.418zm-125.063-9.148c-.117-.355-.885-.062-1.262-.158-.096.765 1.066.708 1.262.158zm33.907.631c.735-.052 1.85.272 1.734-.631-.613-.046-1.247.409-1.734 0v.631zm-35.011.315c.488-.207.449.043 1.104 0 .203-.497-1.307-.497-1.104 0zm35.011.631c.415.164.968.189 1.578.158v-.789h-1.578v.631zm-33.907 0c.194-.524-1.066-.386-1.104-.157.204.217.685.156 1.104.157zm-1.104.473c.279.235 1.04.228.945-.158-.001-.24-1.167-.345-.945.158zm34.854.474c.562-.279 1.712.03 1.893-.631-.898-.004-.952.122-1.734 0-.277.321.116.309-.159.631zm50.151-.316c-.069.335-.196.703 0 1.104.537-.273.925.122 1.733 0-.249-.695-1.072-.818-1.733-1.104zm-50.151.473v.789c.56-.095.793-.175 1.735-.158v-.789c-.709-.077-1.182.081-1.735.158zm-34.854.631c.279.201 1.04.538.945-.158-.001-.24-1.167-.345-.945.158zm88.001.158c.522 6.38-.198 12.792-.315 18.294-.08 3.769.604 8.271.474 12.617-.104 3.481-.916 7.412-.314 10.25-.863 2.492-.42 5.145-.475 8.043-.035 1.947-.426 4.893.158 7.098-.887 3.188-.172 7.538-.631 10.725.38.314.764-.274 1.104.157-.411.062-.865.081-1.104.315.672.509.031.692 0 1.104-.348 4.551.365 9.221.473 13.721.149 6.224-.849 12.638-.631 17.506.158.467.349.654.631.632-.435.493-.474 1.159-.473 2.051.002 2.601.512 5.892.157 8.831.465.479.87 1.047.314 1.734 13.421 9.5 26.571 19.271 40.217 28.545-.671-7.295-.487-13.949-.314-20.502.354-13.515.811-30.086.945-43.686.075-7.493-.275-15.626.473-21.291-1.537-13.214 1.341-32.41.158-46.997-6.705-1.544-13.354-3.442-20.188-4.731-6.836-1.289-13.789-4.045-20.659-4.888v.472zm-53.304.788c.385.27 1.125-.158 1.894 0v-.789c-.699.198-1.784.007-1.894.789zm50.15-.315c.576.61 1.758.615 2.522.158-.269-.064.033-.203 0-.473-.762-.155-1.82-.212-2.522.315zm-84.689.473c-.025-.342.561-.071.789-.158.176-.901-1.474-.304-.789.158zm34.696.631c.357.475 1.543-.122 1.735.158v-.79c-.672.119-1.747-.168-1.735.632zm-34.538.159c.05-.271.487.146.631-.315-.123-.035-.184-.132-.157-.315h-.788c.02.291.102.525.314.63zm84.849.314c.985-.212 1.802.281 2.206-.946-1.074-.064-1.508.19-2.364 0-.022.389-.025.761.158.946zm-85.165.158c.428-.113-.113.744.314.631.038-.406.271.217.631 0-.142-.461-.142-.484 0-.946-.403.017-.75.089-.945.315zm34.854.159c.368.306 1.718.252 1.735-.315-.369-.309-1.718-.255-1.735.315zm50.151-.159v.945c.968-.17 1.521.182 2.364-.158.285-1.861-1.522-.05-2.364-.787zm-49.994.473c-.183.537-.413 1.198-.157 1.734.702-.191 1.975.188 1.893-.789-.502.033-1.41.472-1.734.158.286-.345 1.234-.026 1.578-.314-.092-.277.189-.928-.158-.946-.17.357-.993.059-1.422.157zm-34.853 1.262h.632v-.789h-.632v.789zm84.847-.158c.201.692 1.649.138 2.364.315v-.789c-.703.243-2.029-.137-2.364.474zm0 .946c.445.771 1.321.142 2.364.315v-.789c-.63.317-2.066-.174-2.364.474zm-50.151 0c.012.274-.035.491-.157.632.338.291 1.155.105 1.734.157.122-.351.331-.614.314-1.104-.538.197-1.417.053-1.891.315zm-34.696.158c-.047.416.22.519.632.474-.026-.236.057-.582-.158-.631-.028.183-.251.172-.474.157zm84.847 1.104c.763.287 1.6-.295 2.208 0-.543.246-1.207.369-2.05.314-.151 1.35 1.312.335 2.364.63-.078-.553-.234-1.026-.158-1.733-.903.204-2.598-.099-2.364.789zm-84.847.315h.632v-.631c-.813-.068-.417.334-.632.631zm34.696-.315v.789c1.062.365 1.386-.627 1.893-.315.016-.431-.263-.318 0-.631-.807-.125-1.146.22-1.893.157zm-172.534 6.15c-.748.013-.671-.8-1.261-.946-.633.896.834 1.471.473 2.051-.608-.127-.495-.979-1.104-1.104.023.394-.248.488-.316.789.453.44 1.024.765 1.419 1.263-.886.043-.954-.729-1.577-.947-.041.484-.342.709-.473 1.104.796.255 1.064 1.039 1.735 1.419-1.063.129-1.229-1.346-1.893-1.104.021.824 1.432 1.087 1.104 1.734-.36-.429-.729-.849-1.262-1.104.445 1.814 2.491 2.869 3.153 3.943-1.192-.904-2.494-.75-3.312-2.051-.207 1.1 1.003.783.945 1.735-.45-.231-.592-.774-1.104-.946-.126 1.389.927 1.596 1.578 2.208.437-.235-.274-.646.157-.789.793.496 1.374 1.024 2.05 1.263-.547.149.102.509-.315.789-.187-.047-.596-.636-.789-.158.758.242 1.333.664 1.577 1.42-.896-.051-1.052-.84-1.733-1.104.264 1.312 1.61 1.542 2.681 2.05-.118-.484.433-.303.314-.789-.14-.444-1.211-.776-.788-1.261.523.16.493.873 1.262.788.34-.133-.06-1.005.314-1.104.168.146.05.582.474.473.097-.525.463-.538.157-1.104.366.05.605-.025.789-.157.013-.275-.034-.491-.157-.632 1.996-.599 2.217-3.75 3.941-4.101.027-.235-.056-.582.158-.631h.631c1.495-2.921 4.465-4.366 8.201-5.046-3.172-4.146-12.288-5.271-16.086-1.104.236.342.905.252.946.789-.688.256-.976-.693-1.263-.315.378.847-.408 1.895-.626 2.679zm-1.735 5.994c-.104-.623-.847-1.433-1.577-1.894.057.999.998 1.943 1.577 1.894zm0 2.364c-.331-.194-.615-.437-.946-.631.064.37.668 1.002.946.631zm.947 2.367c.417.057.144.804.474.945.216-.357.648.391.945.473.048-.883.699.525.789-.314-.747-.255-1.612-1.225-2.208-1.104zm.473 1.104c-.062.693.85.412.945.947-.3-.068-.396-.34-.789-.316.342.775.019 1.68.474 2.051.018-.877.447-1.342.631-2.051-.495-.135-.665-.597-1.261-.631zm138.153-17.033c.186.027.172.25.158.475.579.15.627-.775.157-.789-.002.206-.276.143-.315.314zm34.696.472c.231.805 1.203-.084 1.893.158.023-.392.029-.766-.314-.789-.247.492-1.497-.022-1.579.631zm50.311-.157v1.104c.893-.452 1.821.025 2.364-.631-.574-.099.425-.797-.314-.631-.375.362-1.418.058-2.05.158zm-84.535 1.262c-.096-.325.255-1.095-.314-.946.096.325-.255 1.095.314.946zm34.224-.474v.947c.731.164 1.365-.291 1.735 0-.069-.543.062-.885.156-1.262-.65.085-1.24.231-1.891.315zm50.311.474v.789c.737-.103 1.888.207 2.364-.157-.597-.146.397-1.146-.314-.947-.437.353-1.252.328-2.05.315zm-84.692.947c.066-.248.496-.136.314-.632h-.473c.028.237-.055.582.159.632zm34.538.472c.55-.5 1.62.225 1.578-.631-.271-.361-1.204-.059-1.735-.157.086.229-.185.815.157.788zm-173.637.789c.163.52.488.878.945 1.104.565-.72-.366-1.032-.473-1.576.855.315 1.263-.09.946-.946-.618.326-.939.951-1.418 1.418zm223.631-.314c1.234-.024 1.848-.052 2.364-.158v-.631c-.236.008-2.452-.447-2.364.789zm-49.994.472c.841.008 1.405-.018 1.734-.158.064-.38-.287-.343-.156-.789h-1.42c-.181.187-.178.558-.158.947zm-33.907 0c-.184-.026-.171-.249-.157-.473h-.631c-.219.547.708.743.788.473zm83.901.315c.604.441 1.451-.225 2.364 0 .016-.43-.263-.316 0-.631-.835.162-2.006-.01-2.364.631zm-50.308.316c.27.477 2.396.656 2.05-.473-.832.009-1.735-.052-2.05.473zm-33.75.473v-.789h-.631c-.118.591.178.769.631.789zm-120.49 5.362c-.193.228-.603.239-.789.474-.018.403-.09.75-.315.945-.628-.16-1.36-.881-.946-1.577-.529.153-.918.448-1.262.789-.366-.106-.422-.524-.789-.631.024.392-.082.653-.314.789.096-.798.4-1.386.631-2.05-.452.031-.86.02-.789-.473 1.012-1.19 3.483-.934 4.73-1.104-.578-.631-.709-1.708-.945-2.681-1.014-.125-1.567-.459-2.366.158.336.533.858-.343.946 0-.382.196-.361.795-.946.789-.02-.844-.687.053-.315-.789h-.789v.945c.294.15.527-.472.631 0-.312.002-.199.43-.631.314-.091-.33-.391-.449-.314-.945-.298-.035-.349.178-.631.158-.027.947.124.791.473 1.419-.6.022-.7-.456-.789-.946-1.152.202-.117.782-.158 1.577-.356-.168-.573-.479-.631-.946-1.178.176-.216 1.178 0 1.735-.622-.062-.502-.864-1.104-.946a16.26 16.26 0 0 0-.474.473c.216.317.792 1.09.631 1.263-.564-.066-.345-.917-.945-.946-.125.762.685 1.409.473 1.735-.474-.263-.299-1.173-.946-1.263-.461.588.773 1.061.315 1.577-.48-.098-.309-.849-.789-.946-.479.646.748 1.623.473 2.051-.543-.193-.458-1.014-.945-1.262-1.119 1.276-.293 2.389.631 3.47-.596.509-.283 1.925-.946 2.364.687-1.127-.229-1.918-1.104-2.681.119.983.723 1.484 1.104 2.208-.983.191-.731-1.682-1.419-1.262.441.82.772 1.751 1.419 2.365-.752.009-.244.666.157 1.104.292-1.339.218-2.386.946-3.47.014.908-.785 2.867-.788 3.786.483.041.709.342 1.104.473.383-.721-.168-2.375.789-2.522-.198.647-1.058 2.603-.157 2.838.154-.588-.177-.924.315-.945-.051.37-.25.592-.158 1.104.217-.006.346.074.474.158.351-.652.312-2.523.946-2.365-.46.59-.436 1.666-.789 2.365.402.157.766.449.946 0 .145.696.768.915 1.577.946.333-.508.057-1.625.789-1.735-.13.564-.956 2.401.157 1.894-.253-.214-.091-1.345.474-1.263-.005.574-.786 1.703.314 1.578.074-.558-.258-1.521.474-1.42.091.422-.466.985 0 1.262.315-.314.461-.801.945-.945-.016.488.193.753.315 1.104.848.112.871-.601 1.104-1.104-.36.044-.594-.038-.632-.314.025-.711 1.325-.147 1.104-1.104-.462-.466-1.718.667-2.05-.158.209-.526.923-.549 1.104-1.104-.428.113.113-.744-.314-.631-.23.401-.301.963-.946.946.197-1.038-.297-1.385-.473-2.05 0-.585.613-1.375 1.104-.946-.14.333-.479.466-.473.946 1.132-.43 2.486-.139 3.153-1.262-.768-.806-1.673-2.159-1.577-3.316zm-10.25 1.577c-.57-.044-.361.691-.632.945.727.168.627 1.16 1.263 1.42.319-.506.18-.558.314-1.104-.519-.216-.814-.657-.945-1.261zm214.798-7.255v.788c1.126.043 1.468-.08 2.208-.157-.052-.366.024-.604.156-.789-.933-.095-1.404.276-2.364.158zm-49.994.473v.474c.646.215 1.288-.381 1.578 0-.163.521-1.659-.293-1.578.473-.022.652 1.098.164 1.578.314.264-.262.125-.926.156-1.418-.579.05-1.395-.135-1.734.157zm-34.695.631c-.159.476.352.28.631.315v-.473c-.299-.035-.348.178-.631.158zm84.531.316c-.011.612 2.438.593 2.366-.315-.229.039-2.173-.285-2.366.315zm-83.9.473h-.631c-.25.733.814.548.631 0zm34.064.158c-.118.729.603.219.631.474-.029.232-.381.145-.631.157-.215.468.093.687 0 1.419.65.02.988-.273 1.734-.158-.012-.273.035-.49.157-.631-.097-.219-.605-.023-.631-.314.359.044.593-.038.631-.315-.133-.34-1.005.06-1.104-.315.324-.096 1.096.254.945-.314-.26-.307-1.452-.205-1.732-.003zm49.836.315c.659.533 1.55-.088 2.208.314-.387.506-2.082-.295-2.208.473.683.457 1.293.049 2.366.158v-1.419c-.994.471-1.746-.438-2.366.474zm0 2.207c.062.834 1.604.184 2.051.631-.426.311-1.378.095-2.051.158v1.104c.509-.228 1.323-.149 2.051-.158.008-.78.187-1.391.315-2.05-.779.116-1.335.452-2.366.315zm2.208-1.103c-.299.211-1.309.137-2.208.158.087.229-.185.814.158.789.847-.397 2.459.112 2.05-.947zm-207.702.631c.199.21.474.311.158.631.602.074.614-.916.473-1.104-.413-.045-.678.057-.631.473zm-1.262.631c.079-.201.398-.943.158-.945-.252.189-.721.849-.158.945zm.473-.789v.789c.364-.099.855-.875.315-.945-.034.12-.131.182-.315.156zm2.208 1.104c-.323.069.453-1.368-.314-1.263-.255.57-.399 1.678.314 1.263zm-3.942.473c.5.007 1.255-1.17.474-1.419-.255.377-.52.743-.474 1.419zm124.117-.788c.015-.431-.263-.316 0-.631-.235.027-.582-.056-.631.158.21.157.309.426.631.473zm34.064-.316v.788c.384.306 1.318.152 1.734 0v-1.104c-.578.104-1.198.168-1.734.316zm-36.115 18.136c.007-5.873.472-11.667 0-17.979-.01 5.736-.533 12.286 0 17.979zm2.051-17.032c.015-.43-.263-.317 0-.631h-.474c-.045.413.058.679.474.631zm34.064.632c.562-.175 1.898.428 1.734-.474-.27-.36-1.203-.058-1.734-.158v.632zm-34.538.315c.479.058.328-.515.474-.789-.493-.071-.505.337-.474.789zm-133.106 2.364c.746-.523 1.817-1.924 1.894-2.996-.505 1.127-1.532 1.731-1.894 2.996zm167.644-1.89c.687-.261 1.518.279 1.734-.632-.868-.062-1.096.17-1.734 0v.632zm49.994-.317c-.265.261-.126.926-.158 1.419.771-.044 1.097-.185 2.208-.157.1-1.55-.56-1.369-2.05-1.262zm-49.994.473c.013.273-.035.49-.157.63.604.321 1.965.229 1.893-.63-.462-.197-.944.103-1.736 0zm-34.222 1.262c-.096-.324.256-1.095-.314-.945.094.324-.256 1.095.314.945zm34.065-.159c.472.104-.151.338 0 .631.582-.1 1.571.205 1.893-.157-.353-.022.204-.397 0-.788-.408.329-1.528-.057-1.893.314zm49.993.159v.947c.893.11 1.46.199 2.366-.158-.354-.068-.064-.777-.158-1.104-.785.055-1.248.433-2.208.315zm-225.523.946c.988-.147.776.905 1.419 1.104.026-.553-.042-1.01-.314-1.262-.394.331-.772-.693-1.262-.789-.115.484.271.465.157.947zm2.839-.157c-.266-.064-.709-.742-.945-.314.37-.044.601.847.945.314zm4.889-.158c-.126.547.234.606.158 1.104a.587.587 0 0 1-.789 0c.133.822-.069 1.401-.789.946.012.275-.035.49-.158.631.186.025.448-.027.473.158-.207.16-.582.154-.789.314.08.496-.372.645.158.789.217-.723.664-.936 1.262-.631.197-1.188 1.479-2.913 1.263-3.469-.144.275-.553.408-.789.158zm133.737.789c.056.086.194-1.233-.314-1.104.113.357-.286 1.231.314 1.104zm34.222-.631c.064.381-.288.342-.157.789.741-.27 1.703.004 1.893-.474-.184-.026-.171-.249-.156-.474-.704-.123-.949.211-1.58.159zm-174.11 1.735c-.566-.274-.785-.897-1.262-1.263.312.688.604 2.229 1.42 1.893-.584-.325-.697-.67-.158-.63zm223.789 0c1.006.203 1.709-.121 2.365 0v-1.263c-.941.039-1.362.205-2.208 0 .069.543-.061.885-.157 1.263zm-49.836-.474c.364.303 1.619.153 1.735-.315-.188-.126-1.647-.183-1.735.315zm-166.067.159c-.201 1.213-.356 3.145.315 3.941.102-1.484-.14-2.012.473-2.682-.546-.136-.182-1.183-.788-1.259zm166.067.156v.789c.621-.273 1.951.164 1.735-.945-.553.077-1.027.234-1.735.156zM139.3 129.642c.064-.266.743-.709.315-.945-.215.115-.814.637-.315.945zm121.751 0c-.091-.276.19-.926-.157-.945-.217.2-.275.943.157.945zm84.058-.788v1.104c.869-.068 1.151-.062 2.208-.158v-1.104c-.633.155-1.384.194-2.208.158zm-49.993.473c-.049.803 1.93.531 1.735.158-.155-.766-1.045.127-1.735-.158zm-173.48 1.419c-.004-.47.014-.961-.475-.946.072.403.223.724.475.946zm6.624 2.997c-.108-.812-.297-2.838-.788-3.785.03 1.243-.16 2.568.788 3.785zm132.632-2.997c.258.028.318-1.032-.157-.789.223.452-.489.86.157.789zm34.381-.158c.528-.155 1.769.401 1.578-.473-.221-.359-1.1-.06-1.578-.158.015.431-.262.317 0 .631zm49.836-.316v1.104c.722-.067 1.338-.24 2.208-.158.568-1.418-.631-1.093-2.208-.946zm-218.899 1.105c.208-.423.423-.838.631-1.262-.583.001-1.232 1.059-.631 1.262zm3.943 2.522c-.25-1.27.567-2.918-.473-3.153.103 1.626-.492 2.333.473 3.153zm165.12-2.68c.176.636.868-.063 1.578.158v-.631c-.649.035-1.495-.127-1.578.473zm-34.381.789c.26.026.26-.972 0-.946-.139.125-.698.966 0 .946zm-137.048 4.574c.262-.938.253-1.904-.315-1.735.377-1.343.808-2.863.473-3.627-.148 1.442-1.397 3.854-.158 5.362zm7.255-4.416c-.316-.366-.29-.345-.631-.789.115.644-.655 2.582.156 3.154.003-.851-.014-.452.475-.315-.275-.263-.954-2.024 0-2.05zm214.01-.474c.051.365-.024.604-.157.789.923.207 1.844-.426 2.208.158-.563.276-1.707-.024-2.208.314.462.134-.205.396 0 .789.378.222 1.763-.191 2.05 0-.375.441-1.026.254-2.05.314v.946c.846-.101 1.769-.125 2.523-.315a20.486 20.486 0 0 1 0-3.153c-.567-.284-1.51.225-2.366.158zm-49.993.159c.494.201-.344.75.315.789.167-.358.99-.061 1.42-.158v-.946c-.571.111-1.307.058-1.735.315zm-163.702 1.734c-.223-.588.63-1.434-.158-1.577.163.768-.374 1.3.158 1.577zm-.158.314c.104.793-.197 1.273 0 1.735.732-.481.215.565.946.474-.086-1.623.01-2.611.158-3.785-.274.012-.49-.035-.63-.158-.238 1.456.247 2.415-.315 3.154.173-.529.19-1.086-.159-1.42zm129.479-.628c.357-.115.279-.668.474-.946h-.631c.09.276-.191.925.157.946zm-128.375 2.996c.734.612 2.229.902 2.997.631-.967-.766-.416-2.467-.315-3.312-.496.076-.617-.225-.945-.314-.366 1.155.113 2.685 0 3.47-.249-1.105-.699-2.632-.158-3.627-.482.114-.463-.272-.946-.158.164 1.118.125 2.577-.157 3.47-.247-1.428.396-2.795-.314-3.785-.029 1.173-.227 2.043-.162 3.625zm162.913-3.471c-.183.168-.059.727.158.946.325-.356 1.366.001 1.576-.474-.233-.028-.145-.381-.156-.631-.534.046-.906.253-1.578.159zm-168.432.789c.001-.208.276-.145.315-.314-.298-.019-.109-.521-.473-.474-.201.186-.067.595.158.788zm11.512 0c.276-.091.927.189.945-.158-.298-.018-.108-.521-.473-.473.14.506-.519.216-.472.631zm122.067 0c-.014.43.265.316 0 .631.229-.086.815.186.789-.158-.232-.029-.145-.381-.157-.631-.299-.035-.349.177-.632.158zm34.853.631c.176.635.868-.064 1.578.158-.036-.298.178-.348.156-.631-.662.072-1.55-.08-1.734.473zm-167.329.788c.389.506.975-.368.314-.473-.036.225-.258.266-.314.473zm132.476.158c1.062.008-.263.323 0 .946.495.074.417-.424.789-.474-.164-.446-.164-.657 0-1.104h-.631c.012.276-.035.491-.158.632zm34.696-.315c.446-.025-.131.973.315.946.021-.26 1.083-.26 1.104 0-.479.204-1.445-.078-1.419.631.208.001.146.276.315.315.329-.249.83-.327 1.42-.315.058-.625-.146-1.512.156-1.893-.939.089-1.141-.014-1.891.316zm-158.34 2.05c-.087-.281-.081-.655-.315-.789-.002.207-.438.201-.473 0 .181-.2.317-1.244 0-1.42-.559.696-.519 2.17.788 2.209zm-10.093-1.104c.62.146.397-.548 1.104-.315.044-.359-.038-.593-.314-.631.001.581-.959.199-.79.946zm11.197.789h-.631c.033-.358.254-.979-.158-1.263-.031.494.106 1.158-.157 1.42.748-.059 1.819.342 2.681.631.316-.366.596-1.574-.315-1.735.064.316.392 1.171 0 1.419-.285-.293-.026-1.13-.473-1.262-.201.324-.251.8-.789.789-.195-.665.097-1.668-.314-1.734-.163.631 0 1.058.156 1.735zm-7.885 0c-1.059.031-1.504.052-2.051.789 1.07.31 1.201-.591 2.366-.631-.018.392-.295.487 0 .788.497.076.356-.483.945-.315-.618-.853-1.563-1.379-2.208-2.208-.078.919 1.021.662.948 1.577zm214.957-1.42v.789c.919.093 1.853-.153 2.365 0 .22-.202.097-.745.314-.946-1.022-.074-1.787.578-2.679.157zm-216.692.473c.509-.141.222.515.474.632h.631c-.062-.578-.937-.231-.473-.947-.295.022-.528.103-.632.315zm-.473.632c-.245-.562.536-.096.474-.474-.381.063-.343-.288-.788-.158.02.294.102.527.314.632zm132.633.63h.632c-.087-.229.185-.815-.158-.789-.141.28-.641.202-.474.789zm84.532-.315c.898.203 2.146.368 2.523-.474-.594.405-2.228-.231-2.523.474zm-219.215.474c.538-.094.913-.35 1.104-.789-.335.295-.945.316-1.104.789zm1.734-.474c.234.86-1.368-.104-1.419 1.104.354-.39 2.305-.481 1.419-1.104zm1.104-.315c-.452-.031-.861-.021-.789.473.452.031.861.019.789-.473zm-4.1 1.42c.381-.379-.384-.418-.158-1.104-.722.19-.103 1.502.314 1.577.089-.395 1.104-.672.789-.946-.682.004 0 .389-.945.473zm170.641-.475c.498-.29 1.746.169 1.735-.63-.54.249-1.56.017-1.735.63zm49.836 0v.631c.719.344 1.624-.33 2.523-.314-.223-.451.488-.86-.158-.788-.559.384-1.73.158-2.365.471zm-215.903.314c.32.102.104.738.474.789.434-.34.518-.975.314-1.262.076.498-.723.12-.788.473zm-4.89 2.525c.383-1.101-.823-1.886-1.104-2.839-.141 1.455.617 2.014 1.104 2.839zm6.466-1.893c.586-.15 1.264-.208 1.577-.632-.442-.571-1.374.037-1.577.632zm129.953 0c.026-.185.249-.171.473-.157v-.789h-.473c-.123.11-.352.88 0 .946zm34.538-.788v.631c.732.438 1.213-.216 1.735.157.127-.546-.295-.666 0-.946-.748-.115-1.085.178-1.735.158zm-166.541 1.42c.736.123.504-1.118 0-1.104-.365.35.054.614 0 1.104zm216.377-.158c.937-.095 1.405.276 2.365.158.084-.344.382-1.021-.157-1.104-.431.62-1.957.145-2.208.946zm-216.534.788c-.111-.466-.043-1.112-.474-1.262-.269.589.237.982.474 1.262zm1.419-.473c.397-.065.726-.54.474-.789-.594-.132-.559.707-.946.315-.138.467.674.777.315.946-.625-.264-1.326.213-1.735.631 1.394.091 2.969-.223 3.155-1.104-.21.455-.996.321-1.263.001zm-2.839.316c.155-.255.421-.363.631-.158.027-.395-.242-.494-.473-.631-.219.098-.024.607-.315.631.023-.392.029-.766-.314-.789-.39.408.167.758.471.947zm9.463-.948c-.646-.016-1.292-.03-1.734.158.172.668.119 1.563.473 2.049.472-.422-.312-1.496 0-1.733.457.437.3 1.487.631 2.05.395-.357.545-.373 1.262-.314-.021-.806-.369-1.635-.157-2.209-.782.007.061 1.639-.474 1.893-.165-.444-.303-1.476-.001-1.894zm123.959.632h.632c-.026-.236.057-.582-.158-.632-.065.306-.723.015-.474.632zm34.696 0c.682-.107 1.938.358 1.735-.632-.732-.164-1.366.291-1.735 0v.632zm-157.551 1.577c.237-.739-.527-1.61.314-1.577v1.261h.315c.728.034-.251-.74.631-.631-.168.854.472.896.946 1.104.22-.453-.431-.801 0-.945.488-.016.47.476.473.945.416.047.407-.33.474-.631-.778-.957-2.044-1.426-3.628-1.578.262.855-.125 1.552.475 2.052zm-4.416-1.577c.929-.459.773.284 1.419.473.13-.446-.222-.409-.158-.789-.395.131-1.358-.306-1.261.316zm-.947.473c.208.001.146.276.316.315.051-.658.031-.404.631-.631-.209-.002-.146-.277-.315-.315-.143.278-.581.261-.632.631zm212.907.788c.359-.227 1.725-.264 1.893-.157-.419.474-1.771.015-2.05.632.429-.113-.112.743.315.629.538-.25 1.353-.224 2.05-.314-.052-.982-.052-1.066 0-2.05-1.026-.017-1.879.036-2.365-.158.098.428-.2 1.251.157 1.418zm-211.329-.157c.367-.297.305-.729-.158-.946-.259.246-.068.736.158.946zm161.336-.788c.026.236-.057.582.157.631.577-.399 1.013-.07 1.578-.315-.144-.865-.827-.219-1.735-.316zm-167.802.631c.505.138.493-.242.63-.474-.213-.05-.301-.226-.63-.158v.632zm133.737.314h-.314c.427-.346.043-.523.314-.946-.364-.051-.604.025-.787.158v.788c.39-.205.653.463.787 0zm-130.741 0c.675.044.804-.458 1.104-.788-.432.199-.905.356-1.104.788zm.789.316c.701.176.634-.418 1.104-.474-.065-.302-.057-.679-.473-.631-.011.569-.72.437-.631 1.105zm3.627.474c.145-.397.303-1.082-.315-1.104.061.412.08.865.315 1.104zm160.233-.474c.553.27 2.125.391 1.894-.631-.742.102-1.794-.108-1.894.631zm-161.653.159c.59.041-.044 1.306.631 1.26.182-.512-.481-.969 0-1.26-.023.391.082.653.314.787.264-.309.198-1.246-.314-1.262.068.436-.588.148-.631.475zm-1.419.156c.213.051.301.225.631.158.044-.359-.038-.594-.316-.631-.037.225-.259.266-.315.473zm128.375.159v.788h.787c-.096-.325.256-1.096-.314-.946-.026.182-.249.171-.473.158zm34.697 0c.161.842 1.141.272 1.894.157-.325-.564-.826.003-1.894-.157zm-158.498 3.784c-1.589-.354-2.92-1.42-4.73-2.208-1.151-2.037-6.212-1.765-5.835.946.117-.418.713-1.17 1.104-.789-1.159.97-2.292 2.431-2.05 3.942.396-.397 1.109-1.303 1.577-1.104-.736.525-1.581.943-1.894 1.894.44.286.967-1.389 1.577-.946-.613.311-2.791 2.474-1.419 2.366-.001.279-.885.457-.314.788.554-.238 1.113-1.298 1.577-1.104-.501.496-1.013.985-1.735 1.262.096.377-.198 1.145.158 1.262.417-.742 1.103-2.049 2.05-1.734-1.36.57-2.909 2.326-1.894 4.258-.327.041-.043.693-.314.789.554-.084.861-1.233 1.262-.946-.273.519-1.342 1.071-.946 1.735.628-.532 1.271-1.881 2.051-1.735-.832.588-1.427 1.413-2.208 2.051.233.291.302.749.314 1.261.671-.537.984-1.434 1.894-1.734-.174 1.09-2.087 1.273-1.577 2.523.559-.654 1.202-2.056 2.208-1.736-.799.729-2.447 1.441-2.05 2.84.461-.698 1.083-2.068 2.05-1.735-.865.45-1.398 1.23-2.05 1.894.474 1.945.021 2.431.473 4.258.345-.602.357-1.536.946-1.893.011 1.484-1.502 2.279-.789 3.942.224-.563.408-1.169.945-1.42-.162-3.618.978-6.705 1.42-9.937.171-1.246-.188-2.541 0-3.627.335-1.939 1.723-4.216 3.47-5.047.521.303.684.053.945.473-1.222.979-3.042 2.337-2.522 4.101.259-.319.527-.629 1.104-.63-.284.766-1.521.58-1.419 1.734.582-.002 1.145-1.146 1.577-.314-1.063.25-1.852.775-2.05 1.893.934-.016 1.218-1.512 2.05-1.104-.417 1.002-1.992.847-2.208 2.05.762-.162 1.653-1.597 2.208-.945-.897.573-2.186.758-2.366 2.049.907-.25 1.548-1.604 2.523-1.26-.95.678-2.121 1.137-2.681 2.207 1.061-.045 1.509-1.535 2.522-1.104-.976.82-2.469 1.012-2.522 2.365.926-.336 1.666-1.695 2.681-1.418-.716.666-2.827 1.258-2.681 2.681.821-.39 1.814-2.104 2.681-1.419-1.01.463-2.565 1.218-2.681 2.05.639-.571 1.781-1.474 2.522-1.419-.798.938-2.518.952-2.839 2.366.876-.335 1.646-1.612 2.681-1.263-1.008.623-2.225 1.035-2.838 2.051.698-.199 1.307-1.318 2.208-.789-.717.337-2.342.598-2.05 1.419.104-.328.987-.681 1.262-.315-.503.186-1.75.451-1.419.946.199-.183.838-.722 1.104-.315-.489.305-1.711.702-1.262 1.42.207-.414 1.12-1.299 1.42-.631-.606.187-1.624.788-1.42 1.262.297-.237.941-.94 1.42-.474-.659.238-1.924.701-1.577 1.419.258-.173.812-.854 1.104-.474-1.144.299-1.994 2.136-1.577 2.997-.04-.496 1.353-1.896 1.894-1.262-.795-.021-.604.308-.158.473-.886.429-1.83.799-2.208 1.734.945-.213 1.521-1.631 2.523-1.262-1.991.743-2.986 1.996-3.154 4.258.445.213.396-.836.631-.314-.133.445-.722.436-.789.945 1.046-.32 1.394-1.342 2.208-1.893-.727 1.533-3.004 2.133-2.05 4.102.978-.969 1.865-2.865 3.312-2.84-.622.114-.925.547-1.262.946.281.095.655-.463.789 0-1.434.406-1.663 2.017-2.839 2.683.252-.803 1.546-1.396 1.262-2.209-2.535 2.057-1.178 5.238 2.05 6.15.646-1.669.775-3.851 1.894-5.047-.387 1.348-1.126 3.426-1.735 5.047 1.521.717 3.832.839 5.362 1.104.559-2.174 1.005-4.461 2.05-6.149-.226.961-.735 2.144-1.104 3.312-.334 1.062-1.112 2.766-.474 3.154.434-1.773.983-3.433 1.577-5.047.053 1.645-1.17 3.342-1.419 5.204 1.275.211 3.979 1.021 5.678.789.263-1.144.823-3.238 1.104-5.047.107-.69-.213-1.823.631-2.05-.46 2.324-.811 4.763-1.419 6.938.487.232.992.62 1.577.316-.12-1.381.961-1.545.314-2.523 1.112-2.182 1.145-6.189 1.262-8.99-.283.021-.369-.156-.315-.473-1.812-.332-2.276.746-3.785 1.262-2.928 1-8.062.1-8.516 3.154-.36.044-.594-.038-.631-.314-.041-.463.356-.484.314-.946-.634.049-.625.741-1.419.631.006-.218-.075-.347-.158-.474.654-.494.27-.469 0-1.104.584-.494.949-.214 1.735-.157.499-.869 1.491-1.886 2.208-3.154 1.487-2.631 1.125-5.515 1.893-8.832.479-2.073 1.536-4.108 1.577-5.992.048-2.187-.817-4.67-1.734-6.467.21-.022.476.642.631.158-.26-.381-.807-.361-.474-.945-.439-.401-1.69.009-1.577-.946.692.058 1.018.198 1.573.152zM126.21 166.86c.252-.774.466-1.825.315-2.68-.524.671-.852 1.739-.315 2.68zm218.899-23.97c.013.275-.035.491-.157.631.555.194 1.521-.02 2.208-.156-.037-.773.277-1.194.157-2.051-.962-.008-1.117.237-2.208.314v.946c.937-.108.988-.261 2.051-.315v.315c-.653.136-1.497.081-2.051.316zm-49.993-1.262c.059.953-.045 1.743-.157 2.523.872-.059.915-.008 1.576-.158-.05-.366.026-.605.158-.789-.499-.17-1.325.611-1.42-.157.341.226 1.233-.051 1.42-.474-.19-.48-1.133.419-1.42-.158.301-.602 1.09.104 1.578-.473-.186-.026-.172-.25-.158-.474-.534.047-.905.254-1.577.16zm-156.605.158c-.798.254-1.271.833-1.735 1.419.33-.013.593.327.789.158-.425-.641.751-1.031.946-1.577zm-.946 0c-.985.33-2.696-.067-3.312.631 1.453.452 2.881.925 3.312-.631zm-.158 2.681c-.594-.067-.718.333-.946.632.313.002.201.43.631.314-.169-.589.391-.45.315-.946zm10.882 19.24c-.002.159-.276.198-.315 0 .126-.407.354-1.526 0-1.894-.4.758-.094 2.222-.789 2.683-.053-.999.294-1.599.314-2.522-.841.262-.139 2.068-.945 2.364.072-.563.388-1.707 0-2.208-.41.589.042 2.04-.631 2.366.004-.871.325-1.267 0-1.894-.294.652-.25 1.644-.789 2.051-.196-.734.564-1.977.158-1.893-.185.447-.219 1.043-.631 1.262-.28-.918.612-1.482.315-1.894-.447.658-.557 1.652-.947 2.366-.353-1.924 1.202-3.639 3.154-3.312 1.863-1.141 3.076-3.062 2.681-5.677-.286-1.897-1.787-2.733-2.997-3.942-2.771-2.772-5.699-6.207-6.466-9.778h-1.735c.8.848-.82 1.026-.789 2.05.854-.044 1.133-1.491 1.894-1.104-.361.691-1.784 1.156-1.419 2.05.617-.646.863-1.659 2.05-1.734-.604.868-1.563 1.38-2.208 2.208-.044-.324-.421-.314-.631-.473.085.559-.559.388-.474.945.593.312.533-.809.789-.314-.235.199-.281.836-.631.473.005.678.838.529.631 1.42.594.119.109-.838.789-.632-.254.271-.311.741-.631.946.197.328.386.665.631.945 1.131 7.92-1.424 14.515-3.312 20.817 3.23-.87 7.679-2.709 10.566-1.577 1.382-.574 2.193-3.367 2.368-4.098zm111.973-21.606v1.104c.92-.115.633-.486.787-1.263-.378-.063-.341.289-.787.159zm-.158 2.209c.641.062.912-.246.788-.946-.722-.146-.823.332-.788.946zm84.848-.316c.348.021.067.669.157.946.562-.138 1.503-.104 2.051-.631-.406-.039.217-.271 0-.632-.565.278-1.707-.024-2.208.317zm-49.993.316c-.094.502.296.487 0 .789.533-.045.905-.252 1.576-.158-.086-.229.186-.815-.157-.789-.403.26-1.058.265-1.419.158zm-34.855.789h.788v-.632c-.461.011-.888.057-.788.632zm85.005.156v.789c.819.083 1.265-.208 1.893-.314v-.789c-.698.038-1.149.322-1.893.314zm-50.15 0c-.129.545.294.666 0 .946.392-.24 1.223-.039 1.576-.315v-.789c-.534.045-.905.252-1.576.158zm-34.855.789c.539.066.897-.048.788-.631h-.788v.631zm85.005.314c.021.39.023.761-.157.947.703-.086 1.422-.156 2.05-.315.261-1.673-.853-.335-1.893-.632zm-50.15 0c-.066.815 1.237.201 1.576 0-.461-.207-.815.102-1.576 0zm-35.012.317c.38-.314.764.275 1.104-.158-.132-.134-1.233-.432-1.104.158zm35.012 1.103c.853-.012.835-.07 1.419-.157-.091-.277.19-.927-.156-.946-.372.576-1.42-.182-1.263 1.103zm-35.012-.788c-.172.528 1.312.503.945-.158-.557.14-.386.021-.945.158zm85.162.631c.114.481-.161.575-.157.946.687.002 1.419.052 1.894-.158-.206-.537.352-1.102 0-1.262-.403.334-1.21.265-1.737.474zm-85.162.631c.393-.08.951.005.945-.474-.02-.348-.668-.066-.945-.157v.631zm35.012-.158v.474c.602-.029 1.354.091 1.419-.474-.176-.318-1.221-.181-1.419 0zm-35.012.473c-.006.695.979.171.945-.158-.481-.114-.574.162-.945.158zm85.162.316c-.05.37-.249.593-.157 1.104.848.129 1.292-.319 1.894 0-.099-.428.199-1.252-.158-1.42-.198.457-.738.232-1.579.316zm-50.15 0c-.094.503.296.488 0 .788.116.252.771-.036.631.475-.235.026-.582-.058-.631.156.27.065-.034.204 0 .475.567-.055.761-.242 1.263 0 .296-.279-.188-.461.156-.789-.235-.026-.582.057-.631-.157.098-.22.606-.024.631-.315-.352-.022.204-.396 0-.789-.65-.124-.81.24-1.419.156zm-35.17.471c.246.043.11.347 0 .475.294.127.639.204.789.473.095-.377.228-.719.157-1.261-.276.144-.787.054-.946.313zm85.006 1.106c.354.066.004.836.314.946.58-.104 1.062-.308 1.735-.315v-.945c-.757.029-1.5.074-2.049.314zm-85.006 1.103c.503.094.488-.295.789 0-.114-.482.271-.463.157-.945h-.788c.114.483-.272.463-.158.945zm35.17-.472v.789c.49-.087 1.027-.129 1.419-.314-.136-.965-.754-.679-1.419-.475zm49.993 1.576v.946c.672.093 1.043-.113 1.577-.158-.207.792-1.785.212-1.734 1.262.992-.022 1.227-.014 1.893-.157-.086-.701.245-1.822-.315-2.05.425.043.45-1.11.158-1.262-.138.655-2.202.21-1.42 1.262.337-.272 1.048-.062 1.262 0-.263.264-.928.126-1.421.157zm-85.163-.788v.788c.709.079 1.101-.163.946-.945-.371-.004-.464.271-.946.157zm35.17 1.104c.167.375.728-.338.945.158-.517.062-1.121.034-.945.787.675-.123.644.023 1.263-.158-.099-.75-.155-1.123.156-1.734h-1.419v.947zm-35.17.315c.123.312 1.018.085.946-.314-.325.095-1.096-.255-.946.314zm0 .473c-.316.6.717.625.789.315-.123-.035-.184-.132-.158-.315.123-.035.312-.004.315-.158-.371-.003-.464.273-.946.158zm35.17.474c-.025.951.132 1.105 0 1.893.363.101 1.198.153 1.419-.314-.27-.051.146-.488-.314-.631-.065.168-.865.367-.789.158.204-.375 1.023-.133 1.104-.632-.438.071.123-.858-.314-.788-.232.242-.618.329-1.106.314zm-35.17 1.104c.509.137 1.532-.636.789-.314.009-.201.202-.219.157-.473-.482-.115-.464.271-.946.156.001-.087-.128-.179-.157 0 .233.029.144.381.157.631zm85.006-.316c-.092.512.106.733.157 1.104.502-.033 1.411-.472 1.734-.158-.464.324-1.302.274-1.893.473v.789c.896.008 1.722.005 2.051-.158-.354-.79.248-1.967-.315-2.366-.31.374-1.046.322-1.734.316zm-85.006 1.42c.39.021.76.024.946-.158.022-.392-.081-.653-.315-.788-.189.337-.856.195-.631.946zm36.589.473c-.233-.028-.145-.381-.156-.631-.379.097-.722.228-1.263.158v1.262c.513-.013.971-.082 1.263-.315-.447-.164-1.082.261-1.104 0 .321-.256 1.031-.124 1.26-.474zm-36.746.315c.214.215 1.102.301 1.104-.158-.19-.033-.097-.175 0-.314-.389.021-.76.023-.946-.158-.277.322.116.308-.158.63zm85.163.317c.141.575-.278.84 0 1.104.443-.344 1.645.066 2.051-.314-.352-.066-.124-.838 0-.947a7.427 7.427 0 0 1-2.051.157zm-49.836 1.259h1.263c.014-.588.176-.448 0-.945h-1.421c-.004.372.271.464.158.945zm-35.012.632c.028-.233.381-.146.631-.158v-1.104c-.479.203-.807-.211-.789.631.21.388.478-.283.631.158-.005.228-.992.239-.473.473zm-136.418-1.104c-.017.828-.502 2.016-.315 2.523.253-.577 1.157-1.862.315-2.523zm221.107.631c.18.799 1.229.295 2.05.315.029-1.196-1.592-.155-2.05-.315zm-49.835 1.262c.343-.027.071.56.158.788h1.104c.146-.133.337-1.004 0-1.104-.071.456-1.192-.14-1.262.316zm1.419-1.104c-.396.131-1.358-.307-1.263.315.013.514.714.337 1.104.473.133-.183.209-.422.159-.788zm48.416.631c.003 1.143 1.48.34 2.05.474v-.474c-.269-.209-1.327.136-2.05 0zm-195.716 2.681c.679-.063 1.026-1.281.631-1.894-.585.258-.365 1.319-.631 1.894zm195.716-1.261c.992-.199 1.753.291 2.05-.474-.197.018-2.105-.323-2.05.474zm-49.677.157v.632c.477-.05 1.227.174 1.263-.315-.271-.065.031-.204 0-.474-.597-.122-.756.191-1.263.157zm-172.692 2.839c.444-.976 2.139-1.539 1.734-2.839-.519.901-1.944 1.733-1.734 2.839zm32.645 2.679c.476.279.449 1.3.315 1.734.917-.056.199-.443.789-.473-.483-.686-.12-1.128 0-1.893.075.187.168.356.314.474.548-4.379-6.141-7.95-6.624-2.366.038.469.586-.633.789 0-.688 2.203-2.257 3.525-3.627 5.047 1.147.399.029 2.237.315 3.312 1.14-.676-.131-2.838.789-3.784.197.717-.128 2.149 0 3.312.813-.395-.085-2.503.473-3.154.457.972-.209 2.095.315 2.996.485-.936-.568-3.599.789-4.258-.232 1.096.518 2.182 0 3.627-.38-.199.087-1.242-.315-1.418-.292.338-.106 1.154-.158 1.734 1.185-.236 2.233-.605 3.627-.631-.087-1.51-.599-3.146-.158-4.102.196 1.361.145 2.556.315 3.942 1.08.187 1.108-.68 2.05-.631-.055-.547.896-1.531.475-1.419-.419.308-.569-1.837-.473-2.049zm189.883-4.414c.265-.039 1.291-.008 1.893-.158v-.946c-.758.139-2.594.03-1.893 1.104zm-49.679.473c.17-.408 1.309.15 1.104-.631h-1.263c.028.236-.055.582.159.631zm49.52-.158v.946c.977-.074 2.146.045 2.05-1.104a7.253 7.253 0 0 1-2.05.158zm-49.677.316c.13.445-.223.408-.157.789.497.246.691-.088 1.262-.158-.087-.229.185-.814-.158-.788-.021.347-.67.065-.947.157zm-172.692 2.365c.214-.89 1.927-1.233 1.734-2.366-.335.929-2.116 1.246-1.734 2.366zm222.369-.63c.769.103 1.53.178 2.05-.314-.342.025-.07-.561-.157-.789-.476.522-2.149-.153-1.893 1.103zm-49.835-.474c.185.026.172.249.158.474.507.035.666-.278 1.263-.158-.07-.297.214-.949-.316-.787-.156.368-.911.14-1.105.471zm-172.534 2.366c.475-.997 1.807-1.137 2.05-2.366-.768.6-2.298 1.274-2.05 2.366zm172.692-1.577v.631c.507.034.666-.278 1.263-.157v-.632c-.597-.12-.756.192-1.263.158zm49.677.157v.945c.532-.133 1.497.145 2.05-.314.283-1.7-1.009-.325-2.05-.631zm-222.054 1.893c.692.364 1.131-.714 1.577-1.104-.233-.029-.145-.383-.158-.631-.634.363-1.057.94-1.577 1.418.521.141.788-.771 1.104-.314-.396.129-.627.424-.946.631zm172.219-1.104c-.051.365.025.604.158.787.442-.239 1.274-.092 1.104-.945-.509-.035-.668.279-1.262.158zm49.835.473v.631c.479.152 1.926.081 2.05-.631-.542-.389-1.207.192-2.05 0zm-221.265.946c.673.19 1-.774.789-.946-.164.415-.626.531-.789.946zm1.104.473c-.035-.297.178-.348.157-.631-.38-.063-.343.289-.788.158-.141.509.515.222.631.473zm170.484-.944v.787c.441-.084.819-.23 1.263-.314.034-.299-.179-.348-.158-.631-.5-.079-.558.283-1.105.158zm49.836.944v.474c.579-.051 1.396.136 1.734-.156.524-1.462-1.518-.835-1.734-.318zm-49.994.158c.27.063-.032.203 0 .474h1.263c.048-.367.336-.68-.158-.789-.022.452-1.084-.137-1.105.315zm-154.555 1.105c.602-.028 1.354.092 1.419-.474-.464.167-1.045.218-1.419.474zm204.549.472c.114.482-.271.464-.157.945.746.062 1.315-.051 1.893-.158v-1.733h-1.734v.631c.406.253 1.011-.185 1.419.158-.65.161-.633.071-1.421.157zm-49.994.317c.866.077 1.487-.091 1.421-.947-.646-.407-1.829-.204-1.421.947zm-148.562 1.891c.105-.515.305-1.624.315-2.683-.202-.008-.219-.201-.474-.156.355.669-.335 1.8.159 2.839zm148.562-1.102c.458-.148 1.466.019 1.104-.632-.108.47-1.428-.273-1.104.632zm-140.834 25.547c2.657-7.299 5.903-17.509 1.577-25.074.527.158.519-.219.475-.631-.688.152-.735.946-1.263 1.262.399.351 1.022 1.383.474 1.734-.234-.647-.323-1.648-1.104-1.42.396.553.701 2.028.474 2.683-.337-.979-.221-2.409-1.104-2.841.035 1.02.868 2.072.473 2.998-.663-.81-.043-2.9-1.576-2.84.146 1.117.915 2.446.789 3.312-.635-.84-.497-3.286-1.735-2.996.399.881 1.069 2.215.631 2.682-.318-.783-.443-1.88-.946-2.839-.392-.024-.653.081-.789.314.531.733.914 2.448.789 3.312-.281-1.138-.691-2.146-.945-3.312-.729.098-1.227.182-1.735.788.435 1.039 1.121 2.662 1.104 3.627-.671-1.116-.785-2.788-1.735-3.627-.242.766 1.03 2.582.631 3.471-.473-.946-.479-2.357-1.262-2.997-.509 1.354 1.042 2.845.789 3.942-1.019-1.041-1.096-2.271-1.577-3.627-.918.816.646 2.146.314 2.838-.409-.324-.451-1.02-.787-1.418-.558 1.494-.61 3.49-1.421 4.729-.117.539.642.201.475.789-1.268.252-1.272 1.079-2.05 1.577-.456-.07-.373-.68-.789-.788-4.747.003-9.956-1.331-14.194-2.996.049 1.154-1.775 1.271-1.419 2.207.604-.467 1.317-2.078 2.05-1.42-1.402.758-2.734 1.927-2.366 3.628.513-.699 1.231-2.025 2.208-1.734-1.121.771-2.289 1.496-2.681 2.996.955-.33 1.35-1.981 2.366-1.733-.726.905-2.519 1.579-2.208 2.995.497-.606.756-1.45 1.734-1.576-.377.781-1.795 1.355-1.734 2.05.606-.286.708-1.079 1.577-1.104-.354.752-1.775 1.271-1.577 2.052.597-.248 1.148-1.369 1.893-.947-1.167.41-1.69 1.463-2.366 2.366.972-.133.806-1.403 1.894-1.419-.51.963-2.215 1.567-1.735 2.995.371-.84 1.244-2.014 2.05-1.893-.431.571-1.758 1.076-1.576 1.734.188-.143.683-.77.945-.315-.937.363-1.62 1.146-1.577 2.052.459-.201.947-1.597 1.419-.789-.864.028-.908.877-1.262 1.42.458.438.409-.52 1.104-.316-.243.343-1.238.751-.631 1.42.265-.477.754-1.373 1.262-1.104a1.318 1.318 0 0 1-.946.787c-.087.281-.081.655-.314.789 1.147 6.17 2.844 13.998 1.576 21.606-.647-.142-.193-1.384-1.104-1.263-.691 1.85-.768 2.988-.158 5.047.01-.889.927-1.697 1.419-1.577-.062.419-.681.897.157.946.462-.133-.094-.508 0-.788.366.05.604-.025.789-.158.128-.546-.295-.665 0-.946.994.26.603-.867 1.104-1.104.281.094.655-.463.788 0-.789.367-1.055 1.257-1.733 1.734.604.603-1.398 1.416-.474 2.365-.666-.035-.137 1.124-.945.946.059.547.799.874.157 1.262-.719.192-.618-.433-1.262-.315-.027.867.75.934 1.262 1.262.15-.293-.473-.526 0-.631.112.746.234 2.264-.314 2.839-.509-.278-1.104-.474-1.735-.632-.138.533-.011.703-.314 1.263.708.44 1.499 1.124 2.208 1.104-.897.522-1.629-.471-2.208-.789v.945c.934.451 1.696.838 2.208.947-.892.467-1.481-.582-2.366-.631.113 1.095 1.466.951 2.05 1.576-1.011.013-1.375-.622-2.208-.788-.051.579.135 1.396-.158 1.733.946.369 1.469 1.16 2.523 1.42-1.167.01-1.652-.66-2.523-.945-.192 1.564 1.458 1.934 2.208 2.05-.578.839-1.461-.603-2.208-.631.171.403-.479.752 0 .946.507.021 1.496.918 2.366 1.104-.995.428-1.602-.786-2.522-.947.335 1.19 1.799 1.252 2.365 2.209-1.125-.189-1.547-1.082-2.522-1.42-.185 1.131.97.924 1.104 1.734.393.206.654-.463.789 0-.208.002-.144.275-.314.316-.596-.248-1.068-.615-1.577-.947.231.871 1.178 1.029 1.893 1.42-.669.293-1.4-.553-2.05-.789-.56 1.332 1.458 1.855 1.893 1.734-.471.693-1.626-.268-2.05-.631v1.104c.426.362 1.291.286 1.419.946-.481-.201-.788-.578-1.419-.631-.118 1.033 1.431 1.564 2.208 2.207-1.247.039-1.333-1.084-2.366-1.262-.005 1.32 1.27 1.36 1.735 2.208-.858-.246-1.271-.937-1.893-1.419-.359 1.27 1.674 2.794 2.681 2.208-.022.293-.104.526-.315.631-.974-.394-1.778-.955-2.522-1.577-.223 1.665 1.917 2.217 2.366 2.209-.606.62-1.934-.669-2.523-1.104-.092.591-.118.477-.158 1.262.675.587 1.629.896 2.523 1.263-.236.025-.582-.057-.631.156.442.092.731 1.15 1.262.631-.203-1.688-2.286-1.498-2.997-2.681.873.213 1.376 1.343 2.366.946.07.49.571 1.021.789.474.104 3.685-3.564 9.635 1.577 10.251 2.188.262 4.589-.154 6.624.157-.443-.188-1.006-.257-.946-.946.892-.104.946.632 1.735.631.37-1.105-1.278-.193-1.263-.945.287-.428.952.088 1.263.158v-.789c-.717-.203-1.184.268-1.42-.474.646-.067 1.011.146 1.42.315.16-.207.154-.582.314-.789-.466-.111-1.113-.043-1.262-.473.662-.084.881.274 1.419.314.023-.186-.027-.448.158-.473.209.386.587-.174.631.156-.423 1.121-.461 2.369-.315 3.942 5.434.157 8.106-3.479 14.353-2.208.426-.469 1.146-.643 1.577-1.104-.938-.369-1.779.607-2.523.945.302-1.013 1.609-1.02 2.366-1.577-.632-.345-.111-.862-.631-1.262-.547-.015-.961.606-1.735.788.247-.86 1.708-.793 1.893-1.262-.611-.651-1.572.518-1.893.158.429-.358 1.12-.759 1.735-.475-.103-.477-.247-.91-.789-.945-.545-.216-.743.709-1.104.157.092-.538 1.172-.09 1.419-.474-.419-.777-1.462-.108-1.734-.157.203-.429.783-.478 1.419-.474-.054-.367-.162-.68-.474-.789-.242.138-1.089.472-1.262.158.351-.228.761-.396 1.419-.314v-.631c-.594-.121-.754.191-1.262.156.118-.746.782-.125 1.104-.474-.061-.567-.67-.591-1.104-.788.029-.232.381-.145.631-.156.238-.922-.452-.916-.789-1.263-.062-.378.718.087.473-.474-.298-.07-.949.215-.789-.314.892.364.353-.701.946-.632 1.527 3.129 2.702 7.353 3.627 10.567-.022-.281 1.159-.141 1.734-.631.042-.463-.356-.485-.315-.947.604-8.005-1.115-12.741-1.419-19.871-1.428.833-2.143 2.379-3.154 3.628.409-2.167 2.571-2.581 2.997-4.731-1.06.52-2.146 1.847-2.522 2.523.002-.159.275-.199.314 0-.519.007-.377.674-.945.63.506-2.122 2.938-2.319 3.153-4.729-.881.693-2.519 2.144-2.208 2.996-.354-.121-.503.729-.788.158.568-1.799 3-2.572 2.839-4.574-.487.935-2.027 1.649-2.051 2.522.019-.125.521-.478.474-.157-.188.144-.684.77-.946.314.094-.589.551-.814.789-1.262-.271.01-.404-.121-.473-.314.356-.432.667-.911 1.104-1.262-.38-.051-.764.688-1.104.158.727-2.008 2.97-2.498 3.47-4.731-1.19.021-1.564 2.354-2.523 1.576.497-.31 2.95-1.962 2.523-3.154-1.203 1.06-2.306 2.698-3.154 3.628.178-.648.35-.592 0-1.104.41.357 1.028-.292.789-.473-.002.158-.276.197-.314 0 1.064-1.816 2.485-2.891 3.312-5.205-1.186.34-1.132 1.918-2.05 2.523.004-.693.634-1.025-.158-1.262.609-1.194 1.593-2.221 2.208-3.785-.808.189-.874 1.124-1.419 1.576.396.209.494-.623.631-.157-.33 0-.593.858-.789.474-.481-.396.721-.975.315-1.262-.13.2-.553.898-.789.473.384-1.406 1.753-2.299 1.735-3.627-.515.123-1.106.989-.946 1.262.234-.186.186-.654.631-.631-.319.364-.524.844-1.104.946.231-.979.877-1.542 1.42-2.208-.125-.75.096-.863-.315-1.262-.742.921-1.014 1.831-1.419 2.365-.383-.4.157-.77.314-1.104-.294-.149-.526.474-.631 0 .178-1.296 2.207-1.575 1.735-2.997-.645.577-1.155 1.358-1.419 1.894.164-.847-.042-.552-.158-1.263 1.097.045 1.967-.973 1.577-1.892-.259.845-.635 1.572-1.577 1.733-.058-1.846 2.304-2.11 1.735-3.942-.279.679-1.838 1.851-1.104 2.051-.277-.045-.487.743-.631.315.137-.68.11-.498-.314-.788.541-1.353 2.498-2.126 2.208-3.785-.732.897-1.269 1.992-2.208 2.681.58-1.521 2.533-2.512 2.364-4.258-.566 1.272-1.733 1.944-2.364 3.153.449-1.899 2.046-2.034 2.522-4.101-1.355.433-1.486 2.09-2.681 2.683.436-1.615 2.586-2.354 2.522-3.943-.723 1.271-1.387 1.732-2.364 2.839.296-.543.296-.401 0-.945.562.007-.234-.971 1.104-1.104-.107.366-.524.423-.631.789.636-.104 1.221-1.086 1.104-1.42-.047.14-.315.802-.473.315.395-.711 1.591-1.455 1.104-2.522-.658.972-1.052 2.209-1.894 2.996.431-1.673 1.82-3.228 1.894-4.731-.753 1.352-1.486 2.721-2.366 3.942.054-.946 1.298-1.536.945-2.365-.396.55-.509 1.384-1.262 1.577.643-.662 1.199-2.21 1.876-2.352zm-27.126 24.445c.064.381-.287.344-.157.789.202.219.745.096.945.314-.173-.457-.195-1.066-.788-1.103zm-.631 2.523c.569.009.764.394 1.263.473-.039-.695-.716-.757-1.263-.945-.311.373-.311 1.057-.473 1.576.611.178 1.097.48 1.735.631.347-1.347-1.184-.815-1.262-1.735zm9.462 31.7c-.228-.508-.771-.699-1.262-.945.173.562.856.614 1.262.945zm17.979-29.334c-1.162.521-1.718 1.646-2.523 2.524.937-.745 2.202-1.162 2.523-2.524zm-2.05 1.104c.648-.362 2.82-1.64 2.05-2.839-.471 1.055-2.179 1.71-2.05 2.839zm3.154-12.774c-.459.592-1.018 1.086-1.419 1.735.66-.29 1.85-.88 1.419-1.735zm-.315-4.101c-.28.617-1.481 1.144-1.262 1.735.336-.561 1.586-1.038 1.262-1.735zm.157-2.996c-.53.627-1.257 1.058-1.419 2.05.529-.526 1.509-1.431 1.419-2.05zm.158-2.524c-.578.787-1.236 1.496-1.734 2.365.673-.589 1.83-1.532 1.734-2.365zm140.046-32.961h1.263v-.629c-.415.216-1.181.081-1.263.629zm49.835.158c.721.188 1.63-.252 1.733-.158.116.904-1.396.181-1.733.631.087.281.08.656.314.789.36-.108.9-.039 1.577 0-.003-.686-.052-1.418.157-1.893-.412.017-2.127-.358-2.048.631zm-198.555 1.734c.16.301.729-.309.946-.473-.464-.272.147-1.621-.315-1.894-.054.935-.359 1.019-.157 2.208-.345.103-.503-.444-.474.159zm148.72-1.419c.035.298-.178.349-.157.631.428.381.876-.173 1.578 0v-.788c-.781.006-1.072.032-1.421.157zm-.159.946c.08.494-.371.645.157.789.525-.561 1.396.125 1.577-.631-.208-.003-.145-.277-.314-.316-.273.105-.74.385-1.42.158zm49.994.79c.392.023.046.533 0 .631.479.1 1.357-.201 1.576.158-.384.084-.778.146-1.576.156-.021.389-.023.76.157.946.441-.188 1.088-.173 1.734-.157.089-1.076-.261-1.396 0-2.051-.753-.017-1.426.045-1.891.317zm-49.994.157v.632c.276.43.945-.511 1.262 0-.163.676-1.729-.048-1.419 1.104.908-.044 1.103-.293 1.735-.314-.194-.67-.06-.85 0-1.576-.689-.115-.889.264-1.578.154zm-.157 2.68c.76-.051.738-.179 1.735-.157v-.789c-.486.11-.305.11-.789 0 .037.667-1.219.042-.946.946zm50.151 0c.529-.205 1.576.104 1.733-.474-.142-.589-2.143-.518-1.733.474zm-50.151.947c.773-.118 1.87.082 1.735-.946-.658.236-1.79-.003-1.735.946zm50.151-.631v.789c.889-.142 1.282.154 1.893-.315-.233-.028-.145-.381-.158-.631-.719-.089-.982.279-1.735.157zm-49.994.946c.051.365-.024.605-.157.789.488.207.874-.469 1.104 0-.019.402-.527.312-.946.314.026.236-.057.582.157.631.388-.181 1.232-.422 1.577-.158-.086-.229.186-.813-.156-.787-.048.146-.428.146-.475 0 .029-.234.381-.146.631-.158-.114-.357.284-1.23-.314-1.104-.309.323-.792.47-1.421.473zm49.994.158v1.104c.445-.222 1.339-.416 1.893-.316.004-.371-.271-.465-.158-.945-.789.13-.871.045-1.735.157zm-217.638 1.735c.121-.458.748-.408.631-1.104-.298.035-.348-.178-.631-.158.182.513-.482.97 0 1.262zm217.638-.473v.788c.986.011.826-.146 1.733-.158-.113-.481.162-.574.158-.944-.6.132-1.204.264-1.891.314zm-50.151.788c.184.026.171.25.157.473.747.117 1.085-.177 1.734-.157v-.787c-.782.298-1.576-.031-1.891.471zm50.31 1.262c.219-.358 1.098-.06 1.576-.157v-.945c-.796-.107-1.15.318-1.733 0 .072.618-.332.817.157 1.102zm-50.153.158c.285-.044 2.265.419 1.893-.789-.737.156-1.9-.113-1.893.789zm49.836.157c-.035.298.178.348.158.631.904-.077 1.714.164 1.893-.315-.325-.043-.038-.698-.473-.631-.219.413-1.337-.076-1.578.315zm-49.836.474c.264.502 1.966.345 1.893-.474-.567.222-1.587-.009-1.893.474zm.159.788c.691-.045 1.58.107 1.734-.475-.622.116-1.221.252-1.734.475zm49.677.473c.756.104 1.733-.16 2.051 0 .014-.589.177-.447 0-.945-1.142.204-2.168-.444-2.051.945zm-49.677-.159c-.197.944 1.888.852 1.734 0-.445-.485-1.088.167-1.734 0zm49.677.475c.026.445-.135 1.082.315 1.104.582-.398 1.257-.293 1.734-.473v-.789c-.826-.092-1.192.278-2.049.158zm-48.888.631c.235.025.582-.057.632.157-.549.03-1.214-.056-1.263.474.52-.111 1.008-.254 1.576-.316v-.631c-.403.017-.751.089-.945.316zm50.781 1.419c-1.02.224-1.804-.282-2.05.631.857.222 1.628-.466 2.05-.157-.396.443-1.168.515-2.05.474-.096 1.364 2.169.228 2.208.315-.286.659-1.24.651-2.208.631v.631c.749.111 1.644-.452 2.05-.158-.353.594-1.915-.021-2.05.789.594.24 1.67.156 2.523-.158-.298-1.05-.189-2.943-.315-4.102-.845-.056-1.108.471-2.051.316.013.274-.035.49-.157.631.762.177 1.707-.584 2.05.157zm-2.05 3.627v1.578c.851.131 1.632-.063 2.365-.158v-.789c-.359-.036-1.875.625-2.05-.314.514.183 1.716.297 2.208 0-.211-1.032-1.707-.156-2.523-.317zm2.365 3.311v-.631c-.291.037-1.426.512-1.419-.158.776.041 1.532.062 1.419-.787-.749.092-1.454.228-2.365.156v.631c.392-.021.766-.028.788.315-.365.052-.604-.024-.788-.157v.945c.481-.212 1.316-.166 1.419 0-.425.516-1.17-.047-1.576.631.261.004.088.438.314.475.663-.385 1.08-.146 2.051-.315.203-.371-.021-.293.157-.789-.235-.438-.646.274-.788-.157.38.064.343-.288.788-.159zm-2.365 1.579v.789c1.038-.014 1.385-.012 2.05-.158.027-.254.529-.812.158-.945-.74.397-1.102.235-2.208.314zm-.157 1.261c.415.387 1.642.188 2.365 0-.024-.188.026-.448-.158-.475-.597.479-1.372.072-2.207.475zm.157.946c.782.125 2.172.479 2.208-.631-.881.362-2.011-.149-2.208.631zm-.157.947c1.077-.029 1.372-.168 2.207-.158-.357.821-1.572-.031-2.05.789.438.514 1.59-.193 1.893.157.229-.351.396-.761.315-1.419-.695.303-2.198-.2-2.365.631zm0 1.262c.114 1.297 2.141.772 2.365-.315-.903-.012-1.337.449-2.365.315zm-218.901 2.365c.148-.482.767-.494.789-1.104-.272-.096.012-.749-.315-.789-.218.472-.975 1.227-.474 1.893zm219.058-.948c.537.22 1.046-.068 2.05 0-.006-.218.074-.347.158-.474-.295.009-.334-.121-.158-.313-.548.399-1.691.204-2.05.787zm0 .631c.539.478 1.354-.111 2.05 0-.103-.786-1.853-.293-2.05 0zm-219.215 1.737c.163-.73.96-.826 1.104-1.578-.032-.177-.175-.244-.314-.314-.208.586-1.261 1.151-.79 1.892zm220.95.788h-1.735c.208 1.378 1.621.808 2.05.315.034-.039-.219-1.188-.157-1.42-.373.109-1.41.365-1.734 0 .518-.579 1.26.035 1.893-.315v-.788c-.581.207-1.435.143-2.05.315v1.42c.491.241 1.539-.069 1.733.473zm-221.266.315c.71-.346 1.741-1.2 1.419-2.051-.566.591-1.106 1.207-1.419 2.051zm1.735 1.104c-.734.903-1.218 1.09-1.735 2.208.602-.611 1.839-1.418 1.735-2.208zm-1.577 3.943c.349-.788.872-1.553 1.893-2.366-.312-.403.164-.726-.157-.946-.796.961-2.264 1.776-1.736 3.312zm0 1.419c.271.062.404-.233.473 0-.209.265-.418.528-.314 1.104.186.023.448-.027.473.156-.476-.242-.415.815-.158.788.174-1.143 1.788-1.679 1.263-2.996-.409.591-.754 1.244-1.263 1.734.067-1.248 1.682-1.785 1.263-2.996-.575.372-.935.958-1.419 1.42.124-1.243 1.521-1.214 1.576-2.522-1.197.4-1.819 2.116-1.894 3.312zm1.735-6.31c-.703.086-.643.937-1.419.946.298-.651 1.551-1.178 1.104-2.05-.5.657-1.259 1.055-1.577 1.893.474.244-.267.677.474.474-.019.362-.866.694-.315 1.104.454-.911 1.624-1.108 1.733-2.367zm217.638 2.209c.26.099 1.451.332 2.05 0 .035-.299-.178-.349-.157-.631-.492.021-1.541.48-1.734-.158.729-.006 1.561.089 1.893-.315-.392-.022-.045-.533 0-.631h-2.05c-.002.579-.002 1.157-.002 1.735zm0 .474v1.104c.55-.088 1.997-.098 1.893-.315-.523-.159-1.716.349-1.734-.315.625-.058 1.512.146 1.893-.156.009-.271-.121-.404-.313-.475-.274.36-1.208.056-1.739.157zm-188.62 2.208c.141-.125.698-.967 0-.946.044.276-.444.786 0 .946zm188.463-.631c-.062.99 1.067-.145.945.787-.347-.086-.87-.23-.945.315.666-.175 2.054.372 2.207-.315-.021-.451-1.082.138-1.104-.314h1.104c-.086-.229.186-.814-.157-.788-.339.098-1.27.288-2.05.315zm.945 1.419c-.559.312-.312.206-.945 0 .014.998 1.543.335 1.894.474-.116-.36-1.093.144-.949-.474zm1.42 0c-.01-.163-1.461-.007-1.104.157.47-.043.96.442 1.104-.157zm-191.143.316c.451.021-.138 1.084.314 1.104.135-.497.42-.767.473-1.419-.28.086-.654.08-.787.315zm-30.123 3.154c.186.023.447-.027.473.157-.6.414.004 1.858.158 2.84-.042-.567.292-.761.314-1.262-1.377-1.177 1.312-2.636.474-4.259-.494.82-1.049 1.579-1.419 2.524zm220.004-1.42c.326.096 1.036-.193 1.104.158-.636.31-2.116-.225-2.207.631.477.508 1.596.1 2.365 0-.098-.428.2-1.252-.158-1.42.05.629-.916.24-1.104.631zm-.946 1.42v.788c.676-.204 1.484-.196 1.893 0-.532.31-1.716-.033-1.893.631.729.251 1.093-.041 2.208 0-.315-.623.423-1.546-.315-1.893-.339.448-1.367.212-1.893.474zm2.208-2.208c-.361-.808-1.597.028-2.365-.157-.015.43.263.316 0 .631 1.27-.027 1.608-.051 2.365-.474zm-190.67 1.419c.307-.339.741-1.057 0-1.262-.146.44-.571.938 0 1.262zm0 1.735c.05-.37.488-.353.631-.632-.248-.067-.135-.495-.631-.314.044.276-.444.786 0 .946zm.473-1.735c-.365.161-.733.317-.789.789.457-.068.719-.333.789-.789zm-30.28 2.051c.626-.115 1.091-1.215.631-1.893-.296.546-.659 1.023-.631 1.893zm29.965.473c.048-.372.547-.294.473-.789-.447-.116-.934.518-.473.789zm188.304.157v.787c.912.123 1.348-.229 2.208-.156.261-.415-.104-.531.157-.946-.819.074-1.431.356-2.365.315zm-188.304.631c.131-.15.833-.51.314-.788 0 .279-.884.456-.314.788zm188.304.948c.712.045 1.774.121 2.208-.474-.572-.304-1.875.013-2.208.474zm-190.039.944c.104-.327.904-.764.473-1.104-.035.397-.8.871-.473 1.104zm1.577.158c.531.058.263-.685.474-.946-.566-.091-.48.467-.474.946zm188.462-.315c.932-.312 1.834.313 2.208-.474-.509-.239-1.989-.101-2.208.474zm-190.512 1.104c.44-.4.975-.707 1.262-1.263-.659.022-1.434 1.447-1.262 1.263zm191.3-.632c.511-.067 1.364.207 1.42-.315-.59-.011-1.091.067-1.42.315zm-189.408 2.682c.106-.637.235-1.617.473-2.523-.602.507-.557 1.716-.473 2.523zm189.882-2.208c.123.035.185.132.157.315.539.064.899-.047.789-.631-.276.145-.787.055-.946.316zm-.316.158c-.332-.384-.701.14-.946-.158-.223.504.943.397.946.158zm-.946.631c.602.132 1.019.092 1.419-.315-.435.143-1.107.048-1.419.315zm-216.219.946c-.389-.139-.354-.699-.946-.631 0 .432.739.929.946.631zm25.391 1.577c.316-.476 1.492-.92 1.104-1.576-.17.62-1.239 1.172-1.104 1.576zm-25.864-.631c.041-.514-.188-.759-.631-.787-.129.601.336.609.631.787zm-4.574 25.234c.791.143 1.41 1.163 2.05.945-.379-.776-1.184-1.129-1.577-1.894.631.474 1.521.687 2.208 1.104-.482.113-.575-.161-.946-.157.162.521.438.93 1.104.944-.024-.392.248-.486.314-.787-.929-.702-2.031-2.067-2.997-2.208.262.375-.19 1.381-.156 2.053zm.947 1.734c-.348-.135-.716-1.061-1.104-.631.275.208.633 1.142 1.104.631zm1.419 0c-.012-.274.035-.49.158-.631-.732-.19-.757.627-.158.631zm-1.419-.63c.232.558.47 1.108 1.263 1.104-.23-.561-.609-.972-1.263-1.104zm.157 2.209c-.177-.513-.833-1.369-1.262-1.104.425.521.583.652 1.262 1.104zm.316.628c-.325.278-.139.488-.315.631-.225-.037-.266-.26-.473-.314-.068.594.333.719.631.946.261-.896.462-1.853.789-2.681-.547-.062-.875-.801-1.262-.158.196.381.795.361.788.945-.471.418-.965-.218-1.104 0 .155.372.677.376.946.631zm27.126 3.313c.567.043 1.091.04.945-.63-.428.097-.738.314-.945.63zm-7.412 3.628c.489-.036.492-.56.63-.946-.203-.271-.326-.619-.789-.631-.123.701.211.946.159 1.577zm1.261.315c.008-.48-.143-.805-.473-.946-.277.354-.128 1.134-.789 1.104-.54-.545-.607-.941-.475-1.894-.368.052-.65.19-.945.315-.088.637.713 1.445 0 1.733-.272-.463-.041-1.43-.63-1.575.032.912-.13 2.021.789 2.049-.202-.435.459-.771.473-.474-.001.21-.276.146-.315.316 1.083-.057 1.608-.641 2.365-.628zm-19.24-.315c.568-.062.481-.78.789-1.104-.38.065-.343-.287-.789-.156.026.483-.373.889 0 1.26zm2.365 1.734c.237-.869.817-1.986.315-2.523-.043.802-.684 1.833-.315 2.523zm12.933-.632h.632c-.062-.59-.468-1.428-.158-1.893-1.098.102-.425 1.056-.474 1.893zm-12.617.789c.87-.287.432-1.881.945-2.522-.873.281-.492 1.819-.945 2.522zm.473.159c.274-.012.49.035.631.158.116-.781.485-2.139.158-2.839-.335.821-.372 1.942-.789 2.681zm1.105.158c.337-.923.501-2.138.631-2.839-.187.024-.448-.026-.475.157.276.494-.613 2.008-.156 2.682zm2.365 0c.103-.898.845-1.99.474-2.839-.115.888-.848 1.987-.474 2.839zm7.254-1.106c.111-.336.457-1.851 0-1.733-.381.226-.217 1.229 0 1.733zm.473 0h.631c.217-.539-.309-1.286 0-1.733-.991-.202-.524 1.054-.631 1.733zm-9.305-.629c-.066.301-.34.396-.314.787.467.189.676-.663.314-.787zm.316 1.892c.182-.922.274-1.935.473-2.839-.571.401-.902 2.461-.473 2.839zm.473-2.208c-.483 2.287.941.023.158-.631-.023.285-.102.365-.158.631zm1.261 2.365c.731-.582.543-2.086.945-2.996h-.473c.14.808-.983 2.44-.472 2.996zm.947.159c.06-.942.679-2.155.315-2.996-.122.904-.941 2.335-.315 2.996zm4.1-2.208c.308.271.882.272 1.262.474-.108-.595-.108-.668 0-1.263-.576-.141-.84.279-1.104 0 .064.379-.288.343-.158.789zm-10.566 1.261c.769.079.481-1.72.474-1.894-.265.526-.287 1.294-.474 1.894zm10.409-1.734c-.021-.26-1.083-.26-1.104 0 .383-.089 1.023.78 1.104 0zm-.474 2.208c.011 1.053-1.43 3.155 0 3.627.153-1.438-.381-2.781.631-3.154.321.648-.848 2.959.158 3.312.187-.917-.49-2.697.631-2.682.215.645-.533 2.373 0 2.998.063-.271.203.031.473 0 .215-1.004-.389-2.517.158-2.84.922.513-.572 2.64.631 2.996.263-1.031-.362-2.113.789-2.365-.328.748-.145 1.299-.315 2.365.281-.095.655.463.789 0-.169-.363-.54-1.343-.158-1.733h.474v1.733c.341.133.538.408 1.104.315-.023-.69-.457-1.812.158-2.208.684.367.073 1.322.157 2.05.595.122.754-.192 1.262-.157.049-.882-.258-1.271.157-1.893.773.201-.269 1.574.158 1.893.021-.451 1.083.137 1.104-.314-.145-.287-.438-1.229-.157-1.42.907-.172.151 1.32.631 1.578.067-.354.776-.064 1.104-.158-.729-1.584-1.165-3.461-2.05-4.891-1.752 1.264-5.173 1.577-7.889.948zm10.725 2.051c-.334-.771-.525-2.521-1.262-2.367.59.619.498 1.919 1.262 2.367zm.473.156c1.118-.839.895 2.212 2.208 2.208-.85-1.778-1.506-3.751-2.997-4.889.177.954.692 2.141.789 2.681zm-12.617.946c.854-.455.328-2.413 1.104-3.312h-.631c-.377 1.153-.493 2.421-.473 3.312zm14.352-1.261c-.358-.592-.403-2.326-1.262-1.894.507.546.54 1.564 1.262 1.894zm-.316-1.578c.516-.032.506 1.271.946.789-.414-.211-.301-.7-.158-1.104-.39-.023-.764-.028-.788.315zm-2.366 2.526c-.129-1.187-.659-1.972-1.263-2.683.296 1.362.485 1.978 1.263 2.683zm3.312-1.264c.51.752.611 1.912 1.262 2.523 1.519-.06 2.97-.186 3.785-.946-.376-.416-1.021-1.39-.789-1.892 1.017-.019.366 1.631 1.263 1.733.113-.647-.8-1.083-.315-1.577.689.047.248 1.225.788 1.42.247-.386.85-.412.946-.945-.64-.938-1.883-1.272-3.312-1.42-.097 1.15.896 2.045.631 2.838-.75-.301-.444-1.656-1.104-2.049-.004.691.642 1.559.314 2.049-.902-.519-.332-3.346-1.734-2.838.488.723 1.047 2.209.945 2.996-1.02-1.078-.542-2.701-2.05-3.312.326.989 1.021 2.446.789 3.47-.624-.429-.798-2.142-1.419-2.05zm-15.297 1.106c-.183-.582.156-1.086-.315-1.104-.342.199-.173 1.211.315 1.104zm12.143.945c-.035-.279.159-.789-.314-.631-.003.371.271.465.158.946.59-.146.902.669 1.104 0-.467-.321-.415-1.162-.788-1.577-.181.621.473 1.096-.16 1.262zm1.735.631c.135-.418-.512-1.222-.789-1.734.183.986-.07 1.638.789 1.734zm1.735.157c-.048-.362.456-.175.473-.473-.456-.332-.583-.995-1.104-1.263.153.637.291 1.288.631 1.736z"/><path d="M310.097 118.129c.229 1.019-.48 1.095-.787 1.577-.416-1.473-.07-4.223 0-5.362 2.46-1.107 5.029 4.325.787 3.785zm-.157-2.208c.257.404-.248 1.087.157 1.577.478-.217.562.075 1.263 0-.009-.271.121-.404.314-.474-.279-.664-.303-1.59-1.262-1.576.197.703.082.235-.472.473zM120.217 119.707c.61.284.79.998 1.421 1.262-.517.245-1.291-.6-1.421-1.262zM132.202 127.75c.078.942-.312 1.798-.631 2.839.01-.717.139-1.931.631-2.839zM133.465 129.169c.218.178-.18 1.073-.314 1.419-.418-.375.281-.969.314-1.419zM140.561 143.994c-.507.418-1.544 1.883-1.894 1.419.842-.191 1.036-1.758 1.894-1.419zM141.034 144.782c-.645.67-1.662.967-2.05 1.893-.052-.738.943-1.789 2.05-1.893zM140.719 146.202c-.689.076-1.37 1.021-1.894 1.734-.198-.74 1.922-2.546 1.894-1.734zM126.367 147.306c-.399.601-1.087.911-1.577 1.42.456-.87.818-1.077 1.577-1.42zM131.887 147.463c-.304.38-.844.522-1.104.946-.141-.203.474-.991 1.104-.946zM126.841 150.146c.023.496-.404.541-.788.631-.021.283.192.332.157.631-.453.441-1.088.699-1.419 1.261-.197-.022.42-1.051-.158-.315.119-.726 1.117-1.932 2.208-2.208zm-.947 1.103c-.594-.12-.534.413-.789.631.473-.002.664-.283.789-.631zM349.368 165.601c.521-4.158-.395-10.162.473-14.352.673.523 1.386-.262 2.365-.314.088.858 1.005.888 1.735 1.104.397.447.95 1.568 1.42 1.419.054 1.017-.396 2.667-.158 3.312.801 2.162 3.763 1.683 5.521 2.998v1.893c-.638.468-1.331.878-1.895 1.419-1.778.098-2.304-1.062-3.469-1.577-.419 1.432-.168 2.055-.316 4.258-.072.336.227.301.475.315-1.673 3.066-4.442 1.439-6.151-.475zm.946-8.832c.022-.793.142-1.141.946-1.42.858.191 1.861.24 2.522.631.264-1.928-2.162-2.438-3.785-2.996.29 1.078-.031 2.766.317 3.785zm.316.63c2.77 1.541 4.928 3.693 8.043 4.889.447-.446 1.027-.762 1.42-1.262-.139-.56-.021-.389-.157-.946-2.733-.104-4.104-1.574-5.835-2.681-.496-.182-.385.248-.632.314-.136-.503.249-.488.315-.789-1.166.059-2.087-.414-2.366-.789h-.314c-.201.382-.205.956-.474 1.264zm2.523 2.839c-.593-.808-2.594-2.222-2.996-2.05-.079 2.175.183 5.108-.316 6.78.837.952 1.964 1.611 3.312 2.052.397-2.996.147-3.964 0-6.782zM126.525 152.353c.515.424-.58.566-.631.945-.403-.313.518-.628.631-.945zM127.156 153.929c-.594.826-1.62 1.219-2.05 2.208-.031-.822 1.171-1.771 2.05-2.208zM129.522 167.334c-.783.532-1.855.774-2.208 1.735-.178-.864 1.133-1.597 2.208-1.735zM150.181 167.808c.793-.397.597 3.266.157 3.154.049-.594.058-2.822-.157-3.154zM129.837 168.123c-.606.34-1.33.562-1.578 1.262-.374-.697.861-1.134 1.578-1.262zM128.418 173.485c-.507-.082-.952 1.253-1.419 1.733.044.282-.148.324-.158.158.312-1.37 1.408-1.957 1.894-3.153.355-.17.693-.358.946-.632.189.355-.709.968-1.104 1.263.646 1.041-.785 2.521-1.104 3.627-.247-.523.697-1.982.945-2.996zM129.837 172.539c-.144 1.276-1.517 2.688-1.578 4.573-.271-1.578.825-3.154 1.578-4.573zM140.561 172.854c-.354 2.117-.982 3.959-1.577 5.834.02.392-.193.27-.158 0 .715-1.807.823-4.222 1.735-5.834zM134.726 173.327c-.463 1.902-1.166 3.566-1.735 5.361-.373-.694.454-1.664.789-2.681.249-.754.147-2.133.946-2.68zM135.357 173.327c-.43 1.777-.979 3.438-1.577 5.047-.478-.336.062-.977.315-1.104.455-1.488.285-2.749 1.262-3.943zM138.984 173.327c-.297 1.807-.94 3.266-1.419 4.89.122-1.351.675-3.636 1.419-4.89zM139.615 173.485c-.286.885-.478 2.253-.789 3.47-.236.924-.565 2.618-1.104 2.364 1.052-1.523.788-4.362 1.893-5.834zM142.769 173.485c-.618 2.428-1.025 4.369-1.577 6.623.081-2.021.715-4.856 1.577-6.623zM133.622 173.801c.026 1.306-1.256 2.621-1.262 4.416-.19-1.452.519-3.37 1.262-4.416zM136.303 210.704c.186.455-.695 1.193-1.104 1.577.259-.635.724-1.063 1.104-1.577zM135.357 213.386c.45-.76.705-1.714 1.734-1.893-.449.443-.895.893-1.262 1.419.07.141.14.282.315.315.177-.453.498-.764 1.104-.789-.275.617-1.173.614-.945 1.734.533.061.248-.697.945-.473-.372.627-1.121.877-.945 2.051.481-.148.493-.768 1.104-.789-.077.766-.935.747-1.104 1.419.2.343.514-.524 1.104-.315-.489.3-.781.797-1.262 1.104.688.597.138.438.158 1.735.408-.17.586-.57 1.104-.631.025.604-.644.513-.946.789v1.104c.733-.266.938-1.061 1.894-1.104-.515.853-2.03.703-1.894 2.207.374-.576 1.344-1.026 1.735-1.104-.121.461-1.756.765-1.893 1.733.374.312.703-.76 1.419-.631-.191.756-1.274.619-1.419 1.42.029.129.157.158.157.315.776-.171.935-.959 1.894-.946-.607.76-2.009.726-2.05 2.051.855-.09.953-.938 1.893-.946-.362.795-1.631.683-1.893 1.577.235.179.657.212.789-.157-.006.414-.893.843-.632 1.735.528-.366.625-1.162 1.577-1.104-.441.504-1.18.712-1.419 1.419.196.391.805-.609 1.104-.156-.679.431-1.345.775-1.263 1.576.103.242.717-.322.946-.473.491.604-1.032.539-.946 1.261.364.507.703-.336 1.263-.157-.191.492-.835.532-1.263.789v1.104c.42-.315.701-.771 1.419-.789-.626.636-1.578.943-1.734 2.051.78.148.532-.73 1.262-.631-.991.793-.886 1.268-1.262 2.208.134.371.389-.435.946-.158-.222.252-.544.403-.946.474v.631c.038.406.271-.217.631 0 .023.442-.386.455-.789.474v.788c.512-.064.455-.702 1.104-.631-.743.517-1.303 1.338-1.263 2.208.647-.193.707-.976 1.104-1.419.645.594-1.044 1.298-1.104 2.207.724-.064.645-.933 1.419-.945-.304.643-1.087.805-1.262 1.577.502-.183.754-.613 1.104-.946.312.53-.779 1.004-1.104 1.419-.044.255.149.271.158.474.322-.203.287-.765.946-.631-.453.48-1.357 1.217-.946 2.051.159-.313.586-.359.789-.631-.338.584-.975 1.377-.631 2.996.556-.127.403-.963 1.104-.945-.396.34-.415 1.058-.946 1.262.517.6-.365.904 0 1.419-1.007-1.989-.807-4.876-1.104-7.569-.025-.186-.288-.134-.473-.158.349-.439.722-.854.631-1.734-.405.331-.804.669-.946 1.262-.371-.229.195-.844.473-.945-.154-.441-.421.229-.631-.158.22-.732.806-1.957.631-2.207.138-.458.236-.178.631-.157-.729-.397.274-.847.158-1.577-.665-.245.035.876-.631.631-.4-.557.623-.775.631-1.42-.488-.016-.45.497-1.104.315.127-1.082 1.403-1.015 1.262-2.366a5.857 5.857 0 0 1-1.104.631c.103.161.362.164.314.475h-.631c.136-1.072 1.648-.771 1.419-2.209-.458.437-1.037.75-1.419 1.263.069.233.202-.062.473 0-.272.198-.413.532-.945.473.648-.715.661-1.985 1.576-1.733-.312-.332.053-.875.474-.945.004-.372-.271-.465-.158-.947-.581.161-.543 1.584-1.262 1.104.75-.143.51-1.277 1.262-1.42.021-.281-.193-.332-.158-.631-.736.053-.682.896-1.419.946.402-.729 1.854-.979 1.419-2.05-.603.14.131.88-.473.788-.291-.31.139-.787.473-.946-.018-.302-.527.186-.945 0 .523-.719.418-1.104.945-1.734-.024-.185-.288-.133-.473-.158.092-.854.938-.951.631-2.207-.321.047-.309.428-.631.474.804-.011.208.584-.315.315.098-.428.313-.739.631-.946-.016-.304-.588.245-.788-.157.752-.627-.305-1.209.631-1.734-.712-.562.625-1.133.314-1.893-.35-.305-.397.413-.473.63-.761-.562.715-.743.473-1.733.048-.493-.456.399-.473-.157.585-.325-.006-.422.631-1.104-.102-.487-.335.136-.629-.014zm0 5.836c.811.067.416-.334.631-.632-.402.018-.612.229-.631.632zm-.473 16.4c.696.064.644-.619.789-1.104-.435.197-.766.499-.789 1.104zM152.074 224.269c-.278.51-.762.814-.946 1.418-.262-.426.432-1.247.946-1.418zM127.314 226.633c-.746-.147-.978-.812-1.735-.946.71-.545 1.079.6 1.735.633.201-.036.207-.473 0-.475.374-.414.374.681 0 .788zM127.314 230.103c-.221-.188-.015-.062.158 0 .048.364-.456.176-.474.475-.585-.309-1.104-.684-1.734-.947.455-.844 1.259 1.162 2.05.472zM152.232 234.677c-.162.786-1.177 2.08-1.735 2.996.293-1.283 1.047-2.108 1.735-2.996zM202.068 88.165c-1.063-.078-1.722-.354-2.208.473.176 1.191 1.593 1.141 2.522 1.577-1.038.994-3.771.276-3.784-1.262-.01-1.276 2.684-2.862 3.47-.788zM265.309 98.416c-.027.869.486 1.195.473 2.05.624-.479.129-2.079 1.42-1.892-.348.8.05 1.49 0 2.208.639-.044.284-1.082.788-1.261.596 1.291-.572 2.678-.315 4.573-.776-.537-.49-2.137-.945-2.997-.99-.149-.02 1.664-.788 1.735-.737-1.156-.816-2.969-1.42-4.258.181-.133.421-.208.787-.158z"/><path d="M271.617 100.15c.859.234.741 1.976 0 2.208.358.641.757 1.241 1.104 1.893.384-.705-.22-1.775 0-2.839 1.114-.116.47 1.528.945 2.05.749-.249.71-1.288 1.577-1.419-.216.994-.973 1.446-1.42 2.208.49.562.917 1.186 1.262 1.893.392-.62-.209-2.048.475-2.681.528-.162.245.491.314.789.595-.149.97-.11 1.419 0-.235.462-1.318.287-1.577 1.104 1.454 1.266 1.91-1.082 2.996-1.893 1.274.297.664 2.037 0 2.523.737.735 1.519 1.427 2.052 2.367-.194.068-.324.201-.315.473-.952-.311-1.214-1.311-1.893-1.893-.698.625.498 2.172-.788 2.208.188-.756-.209-2.178-.158-3.312-.312-.148-.916.761-1.734.631.175.508.867.499 1.576.473-1.58 1.739-2.988-.36-3.784-1.735-.494.202.344.751-.315.789-.729.1-.398-.862-.474-1.419-.51-.195-.12.51-.631.315-.123-.612-.496-.975-.788-1.419-.259-.026-.259.972 0 .946-.039.171-.312.107-.314.315-1.016-.332-.198-1.6-.789-2.208-.179 1.047-.944 2.113-2.05 1.735-.389-1.107-.433-3.238.945-3.785-.192.929.931.542.946 1.262.445-.555.888-1.111 1.419-1.579zm-2.996 2.051c-.22.688-.005.931.157 1.577.59.169.45-.391.946-.315-.053-.631.203-1.569-.474-1.577.026.697-.445-.075-.629.315zm9.935 3.312c.049-.478.487-.563.314-1.262-.797.028-.746 1.129-.314 1.262zM263.574 115.606a6.858 6.858 0 0 1 2.208 1.262v2.208c.776.907 2.732 1.472 2.523 2.839-.497.958-2.383.359-2.683-.314-.653.764-.124 2.713-.631 3.627-1.029-.181-1.628-.791-2.208-1.42.009-1.902.496-3.682-.473-4.73-.128-1.785.479-2.129 1.264-3.472zm1.893 3.312c-.248-.276-.211-.84-.314-1.262-.579-.104-1.062-.306-1.734-.315-.124.69.684.973.315 1.419.706-.421 1.316.413 1.733.158zm-2.05.789c.979.546 2.048 1.84 3.627 1.262-.999-.463-2.366-2.099-3.627-1.262zm0 3.942c.49.14.734.526 1.263.631.379-.871-.271-1.805.156-2.997-.705-.031-.896-.577-1.419-.789v3.155zM357.568 120.812c.189 1.502-.249 2.28 0 3.942.159.172 1.416.005 1.735.474.011-1.303-.656-2.601-.315-4.259h.788c.169 1.675 1.205 5.08.947 7.097-.066.512-.035 1.758-1.104 1.42-.102-.813.006-2.029-.158-3.154-.359-.375-1.015-.457-1.733-.473-.188.412.427 3.349-.631 2.838-.768-2.23-.637-6.096-.315-7.885h.786zM355.677 120.181c-.681-.004-.58-.787-1.262-.789-.765.182-1.287.605-1.262 1.576.316.631 1.433.459 2.05.789.687 1.115.557 2.508.946 3.627-.549 1.729-3.056 2.319-3.943.475.155-.635.29-1.289 1.104-1.262-.618.982.356 1.774.945 1.733 1.598-.11.569-2.125.475-3.47-.286-.607-1.067-.721-1.894-.788-2.323-2.153 2.887-5.114 2.841-1.891zM301.897 134.374c.866.921 2.384 1.189 3.312 2.05.016.856-.599 1.084-.946 1.577-.992-.189-1.604-.782-2.365-.789-.438 1.807.16 3.698-.314 5.362-1.467.646-1.928-.851-2.997-1.104.219-4.316-.552-7.66.315-10.566 2.392-.712 3.848 2.263 2.995 3.47zm-2.05-1.42c.979-.189 1.299.279 1.734.631-.314-1.052-1.08-1.654-2.051-2.05-.414.495.076 1.093.317 1.419zm-.315 1.42c.503-.135.487.249.788.314-.113-.481.161-.574.158-.945h-.789c.035.298-.178.347-.157.631zm5.047 2.682c-1.041-1.334-3.197-1.123-3.942-2.998-.112 1.805 2.221 2.5 3.942 2.998zm-3.313 4.73c-.266-3.069.64-5.605-1.577-5.993.474 2.659-2.22 5.229 1.577 5.993z"/></svg>