<svg version="1.1" xmlns="http://www.w3.org/2000/svg" x="0" y="0" width="411.023" height="260.736" viewBox="0 0 411.023 260.736" xml:space="preserve"><path d="M59.384 160.691c-6.408-4.861-12.807-9.734-18.223-15.591-8.701 2.922-15.229 8.029-23.284 12.352-2.476 1.328-5.453 3.321-8.707 2.431.29-1.853 2.813-2.457 4.455-3.038 1.915-.677 4.105-1.238 5.669-2.024 6.625-3.33 11.548-11.03 19.641-12.554-2.565-4.481-5.48-9.136-7.087-13.97-9.721-3.139-15.945 3.687-24.095 4.049-.058-1.678 1.313-1.926 1.822-3.037 5.758-3.154 12.373-6.519 20.854-6.276-.237-6.023-1.744-11.11-1.216-17.412.427-5.07 1.95-10.579 3.442-15.187 1.504-4.644 3.597-9.003 6.48-11.946-.063-1.277.818-1.609 1.214-2.43-7.416-3.972-16.182-5.677-24.904-7.289-1.45-.269-3.293-.041-4.455-1.013-.169-2.214 3.115-1.432 5.062-1.215 2.205.246 4.678.106 6.681.405 6.774 1.007 12.632 4.84 18.223 6.479 4.711-5.952 10.404-10.922 16.604-15.388-1.572-2.429-1.733-5.531-2.632-8.302-.603-1.852-2.414-3.652-1.62-5.669 1.87.567 4.063 2.916 5.062 4.657 1.262 2.204 1.58 5.127 3.037 7.29 8.594-5.501 20.861-7.985 31.586-10.73.127-5.336-1.489-10.18-3.645-14.578-1.232-2.518-3.334-5.12-2.633-7.896 2.021.061 2.601 2.422 3.442 3.846 2.784 4.706 4.857 10.905 5.467 17.615 3.893-.13 10.625-1.235 16.198-2.023 8.83-1.25 17.859-2.052 26.523-3.239.114-4.559.104-10.969.202-15.591 4.381 2.774 3.241 9.496 4.05 14.982 20.132.722 36.401-1.927 57.098-.607 1.866-5.035-1.383-11.565 1.012-16.603 1.247.244 1.112 1.738 1.417 2.834 1.148 4.125 1.794 9.062 1.014 13.769 10.989.528 23.955 2.049 34.217 4.252 4.065-5.338 4.317-14.774 4.05-21.867 3.37 2.121 3.25 7.93 2.834 12.351-.334 3.563-2.074 7.001-3.036 9.313 4.48 2.074 10.336 3.101 14.982 4.86 1.505-4.614 5.059-7.294 8.302-10.529 2.165-2.159 4.047-4.4 5.872-6.884 1.516 1.717.514 4.601-.608 6.276-.838 1.252-2.681 2.923-3.846 4.252-2.31 2.635-4.776 4.52-5.67 8.504 6.313 2.596 13.691 4.128 18.83 7.896.831.014 1.155.418 2.43.405.062.467-.585.225-.605.606 6.308 3.739 12.758 7.644 17.815 13.363.577.653 1.903 2.415 2.025 2.43.341.042 2.236-1.812 2.834-2.227 3.03-2.101 5.701-2.653 10.123-3.239 2.335-.31 4.788-.028 6.682-.203 1.762-.162 3.571-1.598 5.468-.81-1.131 3.532-5.797 5.27-10.124 6.276-2.601-.493-6.83.267-9.312 1.417-.795.367-2.668 1.793-2.836 2.633-.323 1.622 1.787 5.428 2.431 7.49 1.875 6.031 2.695 11.176 3.036 17.21.283 5.011-.364 8.987-1.214 13.363 6.409 1.177 13.427 3.885 19.437 6.479 5.16 2.227 8.876 5.913 12.957 8.908 1.522 3.812 3.317 6.901 3.849 11.339 1.526 12.768-6.981 22.222-13.565 28.144-6.26 6.023-13.098 11.467-20.247 16.603-3.077 2.659-6.043 5.432-9.516 7.693-.246.646-.026.603-.405 1.216-10.386 9.77-22.19 19.23-22.676 38.874-.302 12.174 8.045 17.069 18.627 19.234.521.106 1.305.18 1.82.202 2.726.127 6.013-.23 8.908-.606 6.38-.83 11.996-3.061 17.009-4.859 5.161-1.853 8.648-5.238 12.958-8.302 8.425-5.985 16.087-13.061 26.321-17.209.482.907-.073 1.748-.404 2.43-.435.713-1.394.901-1.62 1.821-5.028 2.39-8.902 6.6-12.957 10.326-6.78 6.233-12.359 12.702-21.059 17.413-1.938 1.05-4.443 1.949-6.885 2.834-6.325 2.294-13.58 3.876-21.664 3.037-4.772-.494-8.972-1.532-12.958-3.442-7.896-3.78-14.115-9.42-15.59-19.032-1.354-8.83 1.578-17.859 4.453-23.891 1.098-2.301 2.46-4.022 3.848-6.075 5.38-7.953 12.101-14.823 18.83-20.854 6.792-6.085 14.908-11.568 22.069-17.615 7.099-5.995 16.394-11.467 16.197-23.487a11.507 11.507 0 0 0-.606-3.441c-3.976-11.883-17.528-16.733-29.359-19.235-2.597 7.393-6.843 13.135-11.338 18.627.995 1.108 2.075 2.265 3.24 3.24 1.056.884 2.336 2.157 3.646 2.834 2.933 1.521 7.104 1.327 10.325 2.43 1.819.623 3.104 1.915 4.656 2.834-.748 1.766-2.702 1.013-4.05 1.014-3.423.002-8.216.495-10.934-1.014-3.543-1.965-7.217-3.944-9.921-6.681-3.525 2.188-6.501 5.357-10.124 7.491-4.652 2.74-9.568 5.058-14.78 7.29 1.369 5.318 6.66 7.774 6.682 13.768-1.923-.614-3.109-2.428-4.454-3.847-2.383-2.513-4.14-5.487-5.872-8.909-16.064 5.335-31.317 10.469-49.808 12.958.339 6.878-2.139 12.591-.405 18.83.633 2.28 2.659 3.595 2.229 6.682-3.181-.532-3.585-3.84-5.671-5.467-2.254-5.71-.959-12.281-1.821-19.032-3.555-.322-7.622.659-11.743 1.215-6.01.81-12.294 1.959-18.021 2.024-.94 2.861-.671 6.654-1.214 9.921-.357 2.142-1.067 4.486-2.431 5.467-1.035-.578-.385-2.35-.405-3.44-.07-3.897-.77-7.729-.809-11.339-6.427-.295-15.469-.479-24.904-1.417-5.375-.535-9.879-.938-15.995-1.62.066 5.523-3.484 9.955-2.43 15.793.56 3.094 3.11 5.733 3.037 8.909-1.414.84-2.582-1.616-4.049-2.025-1.115-3.259-3.125-5.808-3.239-9.718-.117-4.023 1.595-8.198 1.417-12.756-4.239-.979-8.933-1.886-12.352-2.632-.713 8.102-2.601 15.975-6.479 21.462-.58.819-1.568 1.561-2.228 2.431-.696.916-1.225 2.545-2.633 2.023.168-4.62 3.864-7.647 5.468-11.743 1.724-4.405.745-9.451 1.013-14.781-11.528-2.464-24.957-4.271-35.028-7.693-.713-.096-.975-.644-1.417-1.012-3.249.757-5.762-3.242-8.301-2.632-.985.236-2.213 2.265-2.834 3.441-2.211 4.188-4.527 10.431-5.669 14.78-1.736-1.431-1.651-4.211-1.62-5.264-.172-5.595 2.771-10.787 5.06-15.186zm211.178-40.089c-1.302-.129-2.058-1.239-3.24-1.012-.856.164-1.607 1.633-2.633 2.834-6.128 7.187-13.116 11.968-22.476 15.793-10.127 4.138-21.355 7.902-33.609 9.516-6.624.873-13.259.975-19.842 1.215-6.605.241-13.396 1.103-20.449 1.215-8.425.134-17.146.077-26.119-.404-12.351-.664-29.203-1.666-40.09-5.467-3.718-1.298-6.8-2.307-9.921-3.646-7.671-3.289-13.646-6.828-19.033-12.553-4.748-8.114-7.073-18.026-4.252-28.953 1.497-5.798 4.25-12.471 7.29-16.399 2.936-3.796 7.3-5.646 10.933-7.897 14.052-4.071 29.438-6.882 45.759-7.896 10.521-.654 21.594-.616 31.182-.811 4.245-.086 8.564-.609 12.958-.81 4.91-.227 9.917.221 14.779 0 14.188-.646 27.185-.229 39.889 2.632 1.094.201-.082-.605 1.012-.405.609.133.559.926 1.417.811 8.677 2.555 17.357 6.092 24.702 10.325 8.77 5.055 14.706 18.584 12.553 31.585 2.088.613 3.922 1.479 6.683 1.418 1.064-4.18.76-7.596.201-10.528-1.864-9.827-7.543-19.387-13.971-25.106-6.409-5.707-14.681-8.258-23.081-11.743-3.225-.622-6.387-1.307-9.112-2.43 1.623-14.005 13.547-21.262 10.731-37.458-.111 4.071-.7 6.957-1.417 10.124-.461 2.042-.72 4.085-1.417 5.669-3.247 7.371-9.958 12.575-10.123 22.272-10.297-.756-20.911-3.259-30.979-3.037.035-11.663 6.004-22.265 2.43-34.421-1.002 1.222-.286 2.968-.202 4.859.142 3.244-.348 6.998.202 9.313-.364.311-.607.743-.812 1.215-1.139 6.487-2.842 12.41-3.645 19.235-18.525.305-38.385.172-56.895 1.012-13.09.595-25.42 3.467-39.481 4.455-.968-.023-.858 1.032-1.822 1.013.27-4.496-1.487-8.996-2.632-13.769-1.167-4.862-1.131-9.991-2.227-14.578-1.232-5.159-3.809-9.651-6.277-13.363 2.061 5.873 5.823 10.681 6.277 17.615.121 1.866-.163 3.855 0 5.872.479 5.931 2.9 11.947 3.238 18.021-1.556 1.218-3.7.931-5.669 1.417-2.445.604-4.579 2.344-6.681 2.431-6.753 4.721-13.355 9.592-17.21 17.21-3.144.13-3.928-.697-6.479-1.417-3.858-3.245-9.18-6.104-14.375-8.505-1.728-.799-3.604-2.312-5.669-1.822 7.931 4.218 15.847 8.451 23.284 13.161 1.183.031 2.521-.092 3.037.607-3.47 2.674-5.161 8.813-5.669 14.577-.909 10.301.743 18.697 3.442 25.917-3.643 1.262-7.293 2.753-10.731 4.657-3.37 1.865-6.254 4.383-9.516 6.276-6.749 3.918-14.961 5.604-19.844 11.743 4.893-3.189 9.597-5.73 15.389-7.693.496-.315.578-1.042 1.012-1.418.629-.021.578.638 1.417.404 3.751-2.369 7.588-4.395 11.339-6.681 3.704-2.258 7.579-4.606 11.946-6.075 3.707 5.955 9.104 10.864 15.59 14.173 2.159 1.104 4.677 2.687 6.884 3.24.865.217 1.713-.211 2.632 0 .971.223 1.477 1.194 2.431 1.621 3.273 1.462 7.667 1.588 11.542 2.227 2.807.463 5.695 1.124 8.301 2.024-3.645 7.539-3.388 17.197-3.24 26.12.14 8.369-3.743 13.488-6.276 19.234 4.469-5.224 8.237-12.305 8.908-21.665.618-8.617-.542-18.073 3.442-24.297.914 2.11 3.099 1.739 5.67 2.025 5.801.644 11.184 1.227 15.995 1.62 1.59.129 3.252-.287 4.859-.203 13.94.729 27.513-1.833 39.481-1.62.16 2.938-1.824 4.412-3.037 6.479-2.892 4.931-4.721 10.673-5.873 17.21.786 4.378.484 7.687 1.216 12.148 1.69-14.891 3.455-27.314 11.54-35.838 1.32.596 3.087.292 4.657.203 8.258-.473 17.271-1.817 25.105-3.645 12.126-2.829 22.196-6.713 32.396-11.137 1.855-.805 3.863-1.432 5.266-2.834 3.262 2.579 5.017 6.609 6.479 10.935 1.155 3.415 1.44 7.354 2.632 10.73.168.475.447 1.112 1.014 1.417v1.62c2.258 3.953 4.935 8.563 8.302 10.731-2.205-4.208-5.436-7.391-7.087-12.148-1.55-6.644-2.589-13.717-5.266-19.234-.968-1.994-2.285-3.494-3.238-5.266 7.607-3.661 13.467-9.075 17.614-16.198-1.144-.548-2.213.329-3.441.206zM139.765 39.006c.798-.158.618-.158 1.417 0-.985-3.924.351-8.229-1.417-11.542.536 4.103-.293 7.984 0 11.542zm118.243 8.705c1.709-.68 1.335-2.375 2.025-3.645 1.799-3.309 5.78-4.95 7.289-8.504.383.045.447-.228.81-.202.039-.778 1.086-1.604.812-2.023-3.144 5.161-9.987 7.695-10.936 14.374zm-114.801-7.086c-1.186.032-2.425-.319-3.644-.203-.971.092-1.82.52-2.835.606-13.595 1.181-27.121 2.951-40.697 5.468.604 6.616 3.46 10.881 3.442 17.614 11.568-.434 23.417-3.593 35.229-4.454 6.206-.453 12.872-.169 18.83-.405 13.919-.553 26.662-.454 42.722-1.014.064-5.365 2.392-11.667 3.442-18.627-17.259-1.419-37.241.497-56.489 1.015zm93.34 2.835c-11.105-1.85-22.66-4.179-33.609-3.442-.863 6.155-2.681 11.358-3.037 18.02 9.259.539 19.29 2.362 29.356 3.038-.717-5.391 4.77-12.467 7.29-17.616zM306.4 90.434c-2.639-5.36-3.509-12.269-6.685-16.399-3.657-4.761-9.023-8.635-13.97-11.946-7.635-5.113-16.445-9.765-26.929-11.743-.638-.24-.573-1.181-1.418-1.214-5.054-2.215-10.41-3.664-16.804-5.265-.015-.124-.031-.24-.203-.203-2.224 6.08-6.49 10.112-7.086 17.817 14.022 3.457 26.999 7.961 35.229 17.21 3.481 4.481 6.329 9.599 9.112 14.78 1.817 5.315 2.738 12.178 1.819 18.223 8.548 1.5 18.53 1.532 26.932 3.037 2.14-8.718.461-15.44.003-24.297zM92.387 46.902c-10.896 3.394-22.038 4.816-30.371 11.137-.399.276-1.157.193-1.621.405-6.871 4.196-13.076 9.061-17.615 15.591 2.993 1.516 5.626 2.462 8.504 3.847 5.262 2.532 9.007 7.341 15.591 8.099 2.135-3.607 4.712-7.165 8.301-10.124 3.148-2.595 6.661-6.698 10.731-7.896.533-.157 1.086.12 1.62 0 1.029-.23 1.976-1.094 3.038-1.417 1.792-.546 3.628-.467 5.466-1.214-.414-3.452-1.422-7.326-1.62-10.326-1.471-2.333-.691-5.562-1.823-8.1-.067-.002-.134-.002-.201-.002zM59.181 57.633c-.028-.703 1.025-.325 1.012-1.013-1.609-2.643-2.134-6.37-4.252-8.504.756 3.496 1.366 7.139 3.24 9.517zm209.153 55.68c.43-1.072 1.081-2.222 1.417-3.238 2.131-6.461.827-11.902-1.417-17.413-2.188-5.376-5.284-9.7-9.516-12.554-3.884-2.617-8.693-4.721-13.565-6.884-5.029-2.231-10.648-3.922-16.197-4.656-5.808-.768-11.401-1.768-17.009-2.228-5.55-.454-11.185-.045-16.806 0-10.3.084-21.058.066-29.763.81-8.499.728-18.087.781-28.954 1.013-12.47.267-29.553 2.472-41.708 5.872-2.027.565-4.111 1.339-6.074 2.024-2.046.714-4.305 1.341-5.872 2.228-1.49.843-4.862 3.816-5.872 5.062-1.907 2.353-3.131 6.032-4.657 9.518-4.506 10.294-5.024 25.103 1.014 33.609 6.1 8.594 17.209 12.15 27.536 16.198 5.834 2.286 12.442 3.234 19.032 4.252 6.443.995 13.162.933 19.843 1.417 10.025.728 20.639.696 30.371.405 24.441-.731 48.967-1.607 68.84-10.731 12.793-4.163 24.377-12.213 29.357-24.704zM35.086 72.211c-6.223-2.746-14.211-4.974-20.854-4.657 7.435.934 14.756 3.062 20.854 4.657zm279.21-1.62c2.338.731 5.846-.544 7.693-1.62-.023-.247-.06-.479-.404-.404-4.92.697-11.697.356-15.996 2.633-1.291.685-5.027 2.977-3.035 4.252 2.277-3.257 7.508-3.559 11.742-4.861zM40.351 74.843c.084-.893-2.309-1.245-2.024-1.012.781.231 1.152.872 2.024 1.012zm24.702 14.578c-4.471-1.347-8.201-4.562-12.554-6.884-3.694-1.973-7.435-3.788-10.934-5.872-4.728 6.528-8.737 14.498-10.326 23.892-1.356 8.02-.222 15.166 1.215 22.271.455 2.253.633 4.604 1.214 6.479.687 2.207 2.201 4.25 3.239 6.276 1.133 2.21 2.207 4.494 3.848 5.872 5.102-2.393 9.087-6.314 14.174-8.706 2.837-1.335 5.734-2.562 8.504-3.849-3.98-12.705-4.712-28.765 1.62-39.479zm205.712 22.272c-.776 2.045-1.994 4.533-3.038 6.884.653.292 1.697.191 2.633.202 1.188-1.913 2.004-4.205 2.834-6.479-.938-.074-1.269-.756-2.429-.607zm3.845 1.012c-.856 2.111-2.021 3.917-2.429 6.479 1.17.053 1.77.022 2.429.203.763-2.275 2.215-3.861 2.836-6.277-1.002.342-.997-.676-2.836-.405zm73.093 120.471c-4.052 2.961-8.278 5.935-12.351 9.111-4.095 3.192-8.061 6.059-13.363 7.692-5.236 1.615-10.798 3.702-16.603 4.253-8.172.774-15.823-.649-21.26-4.253-1.119-.738-2.521-1.63-3.238-2.429-7.006-7.816-3.991-22.747 0-31.788 2.281-5.174 6.729-8.269 9.109-12.147a90.377 90.377 0 0 0 9.718-9.518c2.885-3.277 6.859-5.966 10.529-8.706 3.455-2.579 6.865-5.607 10.326-8.504 3.642-3.047 7.734-5.604 10.73-8.706 6.816-7.058 14.821-18.271 10.529-31.383-1.449-4.423-3.126-6.115-6.278-8.909-1.482-1.313-3.317-2.188-4.655-3.644-7.853-3.283-15.101-6.76-23.284-8.302-1.936-.364-4.004-.308-6.075-.607-6.032-.874-14.376-1.222-21.056-2.228-2.493-.375-2.991 5.272-4.253 6.683 10.572 1.264 22.493.804 32.801 3.037 2.248.486 4.589 1.517 6.884 2.228 2.368.734 4.489 1.76 6.479 2.834 3.932 2.123 8.033 4.937 10.325 8.1 1.558 2.148 3.463 5.781 3.849 8.707 1.443 10.989-7.401 18.071-12.757 22.474a580.931 580.931 0 0 1-19.843 15.59c-3.039 2.283-5.97 5.422-9.313 8.302-3.229 2.778-6.293 5.812-8.908 8.908-5.551 6.571-10.957 13.791-13.362 22.069-1.034 3.558-1.917 9.432-1.417 14.577.479 4.962 2.87 8.918 5.668 13.16 4.48 3.595 8.739 7.066 14.78 8.706 7.085 1.926 13.825 1.344 19.642.608 3.696-.468 6.993-1.982 10.527-3.239 12.015-4.271 19.659-13.56 28.347-21.261 1.904-1.689 3.678-3.469 5.466-5.062 1.849-1.646 4.182-2.581 5.467-4.657-4.92 1.823-8.928 5.214-13.16 8.304zm-71.877-112.574c-4.75 6.726-10.675 12.271-17.615 16.806 4.768 5.898 5.229 15.367 7.896 22.475 9.913-4.609 20.732-9.488 26.524-18.83 4.513-5.003 8.825-10.207 10.934-17.615-10.48-1.313-18.504-1.663-27.739-2.836zm-248.231 3.645c-5.052 1.293-11.099 2.67-14.174 5.264 5.112-2.396 10.938-4.577 18.021-3.037.066-.742-.226-1.125-.405-1.62-1.079-.483-2.769.508-3.442-.607zm60.54 24.903c-5.973-2.016-11.01-6.008-15.793-8.907-2.229-2.833-4.487-5.636-6.884-8.302-.011-.124-.028-.239-.202-.203-7.676 3.866-14.361 8.721-22.271 12.352 4.985 6.083 11.064 11.072 18.223 14.982.119.422.425.655.607 1.013 4.287 1.248 8.051 3.162 11.541 4.657 1.295-.718 1.848.425 2.835.81 1.242.483 2.924.873 4.252 1.214 8.909 2.294 19.316 3.955 28.751 5.67.356-5.667.611-13.144 2.834-17.615-8.47-2.227-16.487-3.171-23.893-5.671zm165.825-9.718c-2.841 1.449-6.432 2.987-9.923 4.252-3.218 1.167-6.362 2.751-9.312 3.848-6.477 2.403-13.5 3.917-20.45 5.467-7.487 1.671-14.879 2.851-22.272 3.441-1.801.145-4.29-.394-5.668.405-.921.533-1.856 2.197-2.431 3.038-3.363 4.932-5.039 11.494-6.479 18.222 12.854-.689 21.521-2.695 34.42-4.656 4.182.783 8.157-.611 12.352-1.621 13.434-3.23 25.838-6.103 37.863-11.136-1.967-7.821-3.419-16.156-8.1-21.26zm46.973 10.528c-2.405-2.117-5.224-3.82-7.289-6.276-1.138.079-1.374 1.056-1.822 1.823 4.781 3.997 11.971 8.97 20.044 7.086-3.372-1.151-7.183-1.862-10.933-2.633zm-184.655 5.872c-2.299 3.505-2.091 11.271-2.43 17.413 4.892.969 9.723 2.204 14.577 2.43 14.801.687 28.885 3.323 43.938 2.632 1.007-8.199 5.217-15.368 8.707-22.271-23.901 1.958-42.727 3.23-64.792-.204zm-104.88 3.441c1.527-.899 3.801-1.058 5.062-2.227-1.737.561-4.454 1.214-5.062 2.227zm49.403 2.026c-2.152 4.346-5.646 8.98-4.858 14.982 1.283-5.805 4.251-9.922 6.884-14.375-1.016-.208-1.137-.658-2.026-.607zm147.803 14.78c1.173 6.693-.993 13.443 2.228 18.627.021-2.15-.765-3.898-.809-6.073-.094-4.408 2.424-9.019.809-12.958-.818.057-1.407.346-2.228.404zm-80.583 1.418c-.969 7.056-3.057 16.207 1.62 21.057-.316-2.653-1.812-4.128-2.228-6.682.051-4.586 2.414-8.611 2.632-14.174-.883.143-1.139-.344-2.024-.201z"/><path d="M214.071 132.75c-.116-.423-.501-.579-.405-1.215-.797.489-.931.266-1.417-.404-.649.427-.901 1.256-1.214 2.024.69.149.334-.746.81-.811 1.266-.117 1.685.611 2.024 1.417-.438.384-.472 1.028-1.215.608-.255.354.137 1.152-.812 1.214 2.148.931 1.754-2.43 3.646-2.43.363.271.627 1.172.203 1.619.125.3 1.697.167.811.811.082.374.962-.685 1.417 0-2.249 3.359-8.543 2.293-8.301-2.632 1.69-2.645 3.384-5.212 7.087-3.848 1.691 1.238 3.023 3.84 1.822 6.277-.982.17-.644-.979-1.822-.608-.529-1.021-.949-2.153-2.634-2.022zm1.62-1.215c.799-.259.524.555.811.81.553.147.407-.402.811-.405-.023-.517-.038-1.042-.606-1.013-.133.411-.95.135-1.016.608zM130.249 72.413c.598.618.735 1.693 1.62 2.024-.054 1.501.335 2.39.203 3.848-1.707.444-2.45 1.717-3.848 1.417.094.02-.585-.606-.607-.608-.984-.072-2.808.844-2.43-1.012-.021.098-.537-2.077-.203-1.013-.191-.607-.18-2.125 1.013-3.645 1.881-.162 2.477-1.176 4.252-1.011zM187.548 83.144c-1.157.799-2.776 1.138-4.05 1.822-1.438-.72-2.638-1.681-3.441-3.037.71-1.521.243-3.296 1.619-4.252 3.281-2.277 7.591.642 5.872 5.467zm-3.036-4.251c.265.206.745.198 1.012.404-.147-.553.401-.408.405-.811-.53.081-1.111.105-1.417.407zm-2.836 2.227c.035-.237.321-.221.608-.203-.112-.36-.104-.841-.405-1.012.156.517-.793.93-.203 1.215zm1.216 1.012c.758-.146 2.311.731 3.037-.405-.941.329-2.48-.62-3.037.405zM233.104 80.107c.086 2.296 1.007 2.396.404 4.657-1.818.312-1.739 1.748-3.848 2.024-1.847-1.19-3.771-2.303-3.44-5.669 2.012-1.789 4.468-3.062 6.884-1.012zm-3.847.406c.494.113.433.783 1.216.607.226-1.222-.878-1.462-1.216-.607zm-.405 3.644c-.688-.714.465-.726.811-1.014-.549-.125-.504-.845-1.214-.81-.104.503-.494.722-.811 1.013.883-.329.846 1.295 1.214.811zm2.43-1.215c.029-.451.511.264 1.012 0 .339-1.286-1.709-.244-1.012 0zm-1.417.607c1.015-.015.949 1.211.202 1.417.488-.082.439.37 1.012.203-.586-.666.483-1.73-.405-2.025.145.55-.954-.144-.809.405zM78.416 103.797c1.07-.281 1.539-1.162 2.431-1.62 2.713-.045 5.041.35 4.656 3.847.045.292.604.071.607.405-.108.634-.755.729-1.417.811.166 1.245-.746 1.414-.811 2.43-4.198 1.424-6.922-1.877-5.466-5.873zm4.251 1.215c.678-.301.991-.52 1.62 0-.045-.383.229-.447.203-.81h-2.025c-.015.353.045.63.202.81zm.203 4.252c-.763.155-.968-.247-1.62-.203.035.591 1.696.718 1.62.203zM249.909 113.313c-1.695 2.07-5.748 3.362-8.099 1.014-.253-1.439-.041-2.346-.607-3.646 1.297-4.949 10.19-4.568 8.706 2.632zm-6.275-4.049c.787-.365.708 1.154 1.215.405-.563.091.157-1.104-.405-1.013-.056.417-.898.048-.81.608zm4.453 1.821c.471-.064.778.033 1.013.203.071-.813-.003-1.481-.606-1.62.117.727-.237.98-.407 1.417zm-4.251 1.418c-.171-.706-.564-1.19-1.216-1.417.176.701.372 1.383 1.216 1.417z"/><path d="M182.081 88.206c6.434-2.821 11.484-6.529 19.842-5.872 3.651.288 5.869 2.456 8.303 4.658 1.688 1.526 3.32 2.743 4.656 4.455 1.562 1.996 2.624 4.691 3.848 6.883 2.377 4.258 4.857 9.319.606 11.744-.247.141-1.082.065-1.417.201-3.151 1.278-7.299 3.209-10.935 4.455-.42 2.636.16 6.104-1.214 8.1-7.307 1.995-14.586 3.288-24.297 4.455-3.049.366-8.155 1.399-10.325 0-.761-.491-1.452-1.783-2.228-2.834-1.904-2.583-4.985-5.33-5.872-8.303-6.585 3.367-13.629 7.041-21.057 9.922-2.354.913-4.667 2.354-7.087 2.431-.192-3.656.951-7.673 1.417-11.339-5.19 1.963-11.35 4.712-18.425 5.467-.186-.355-.375-.704-1.013-.608-1.367-3.285-1.558-7.815-.607-11.944 6.882-4.254 14.378-7.896 22.07-11.34-.27-.873.32-2.467.202-3.847-5.4.544-10.167 3.839-15.388 5.872-1.702.663-3.331 1.521-4.859 2.024-1.562.517-3.114.264-4.252 1.215-.806.674-1.851 3.438-2.429 4.657-2.304 4.86-4.559 9.917-7.29 13.565-7.048-2.914 1.812-11.277 2.835-15.793-2.522-.596-8.668 3.838-9.718.203-.644-2.225 1.95-5.979 3.239-7.694 1.802-2.396 3.081-4.629 4.455-6.479 3.539-4.767 7.066-8.188 9.718-11.945.831.32 2.177 1.191 2.227 1.62-.737 2.231-2.828 3.111-3.441 5.466-4.021 4.888-7.98 9.837-10.73 15.995 2.434.412 4.791-1.639 6.479-2.023.858-3.184 2.503-5.142 4.252-8.303.955-1.724 1.707-4.534 2.835-5.466 2.062-1.705 9.23-2.613 12.147-3.441 10.873-3.09 25.287-8.186 36.647-9.719 3.73-.504 7.181.09 10.327 1.214 2.368 3.907 4.314 8.238 6.479 12.348zm-6.682-11.135c-1.343-.268-2.201-.354-3.239-1.215-3.438.208-9.708.409-12.147 1.417-2.582-.487-6.004.888-8.706 1.621-7.449 2.022-13.606 4.138-20.854 5.669-4.22 1.854-9.861 2.288-13.769 4.455-1.249 4.487-4.65 6.823-5.468 11.743 1.26-.091 1.904-.796 3.038-1.012.801-3.655 3.022-5.888 4.05-9.314 8.95-2.336 18.205-4.957 27.738-7.29 7.936-1.939 15.451-4.734 25.31-5.466 4.879 1.667 4.613 8.479 7.693 11.946.308-.64 1.217-.675 1.822-1.014-1.467-4.203-3.675-7.663-5.468-11.54zm-4.048 1.619c-5.601.512-9.82 1.01-14.781 3.239-1.562-.508-3.702.77-5.264 1.214-10.205 2.917-22.183 4.743-32.193 8.101-.877 2.9-2.812 4.747-3.442 7.896 3.519-1.556 7.201-3.22 11.338-4.657 4.255-1.479 10.191-4.971 14.78-2.632.731.905.793 3.276.405 4.657 8.299-3.985 16.693-7.874 25.916-10.933 1.562 2.218 2.886 4.673 3.847 7.49 2.252-.785 4.264-1.812 5.873-3.239-2.098-3.775-2.996-8.749-6.479-11.136zm-56.693 3.037c-4.085 6.15-9.238 11.973-13.566 18.021-1.307 1.826-3.092 4.442-2.227 7.086 1.883.139 3.959-.288 5.669-.811 3.295-1.006 6.442-1.845 9.111-3.238 4.297-.718 7.942-2.521 11.945-4.05 4.505-1.72 8.423-4.812 13.161-5.062 1.367 1.657.454 3.57.202 5.669-.354 2.964-.258 6.714-.606 9.719-.749 6.438-2.214 12.931-2.431 18.425a233.211 233.211 0 0 0 18.627-8.099c6.52-3.186 14.185-6.812 18.829-11.542.588-1.099.574-2.801.812-4.252.212-.888-.687-.665-.608-1.417 1.17-2.927-.922-5.724-2.429-8.909-.784-1.654-2.003-6.05-3.645-6.479-1.398-.364-5.247 1.594-6.884 2.228-2.529.978-4.543 2.271-6.277 3.037-4.782 2.113-9.856 3.119-12.351 6.276 7.2-2.613 15.839-7.223 24.499-9.719 1.091 1.738 1.999 3.557 2.834 5.67 1.146 2.896 1.503 6.52 2.835 8.504-1.206 1.521.31 3.141-.405 4.858-.96 2.315-6.299 3.288-7.289 5.467-.983-.37-1.174.354-2.023.607-.706.334-.005 1.027-.812 1.417-.549-.251-.503-.782-1.214-.405-4.911 3.691-11.562 5.357-16.805 7.694-1.864.832-3.487 2.749-5.669 2.43.486-11.636 2.686-21.376 3.239-32.192-5.7-1.684-9.511 1.334-13.972 2.835-6.005 2.019-11.816 4.706-17.614 7.086-2.92 1.199-5.282 3.119-7.896 1.621 3.073-7.45 8.382-13.296 12.553-19.438.573-.844 1.625-1.695 1.417-2.835-.485.083-.438-.369-1.01-.202zm105.083 26.322c1.402-.975 1.009-2.735.405-4.455-1.219-3.467-3.834-8.613-6.075-11.541-2.563-3.352-7.67-8.405-12.552-8.707-7.736-.476-12.912 2.891-18.225 5.265-3.825 1.71-7.68 3.464-10.527 5.67 3.275-.646 6.783-2.795 9.312-4.859.466.487.652.309 1.417.203 1.642-1.083 3.406-1.594 5.062-2.229 3.271-1.251 5.061-2.315 8.707-2.834 9.15-1.301 14.665 7.479 18.222 13.565 1.807 3.089 4.785 7.798 1.417 10.124-2 .425-3.767 2.064-5.87 2.834-1.312.479-4.099.22-4.051 2.429 4.449-1.396 9.817-3.898 12.758-5.465zm-7.492-13.768c-1.765-2.622-5.625-6.4-8.301-7.694-7.117-3.44-14.836 2.271-20.854 4.252 1.518 2.261 2.525 5.032 3.846 7.492 5.244-1.108 10.231-3.939 16.198-2.228 4.018 3.01 3.371 9.164 3.846 14.781 3.847-.481 7.824-2.567 10.529-4.86-.826-3.75-2.869-8.189-5.264-11.743zm-48.997 6.479c.879-.889 5.313-4.281 5.466-5.467.119-.915-2.051-5.36-3.036-5.669-.262-.082-.458.154-.608.202-6.646 2.112-16.883 6.831-23.486 10.124-.266 4.447-1.521 8.406-1.417 12.146 5.066-2.043 12.311-3.417 17.817-5.669 1.599-1.991 3.191-3.572 5.264-5.667zm16.804-8.909c1.276 2.503 2.172 5.389 3.847 7.491.419-.526 1.606-.282 2.025-.81-1.919-1.704-2.366-9.167-5.872-6.681zm-6.681 3.645c.674 1.756 1.416 3.443 1.417 5.872 1.961.115 4.742-1.312 7.492-1.62-1.041-2.333-1.518-5.231-3.239-6.884-2.001.777-4.052 2.086-5.67 2.632zm-5.669 25.713c1.135 1.318 2.781 4.7 4.455 5.467 1.303.598 5.001.18 7.087 0 2.855-.246 6.369-1.04 9.921-1.62 6.022-.981 11.657-.882 15.592-3.645.533-.526.305-1.5 1.012-2.228.425-5.665.391-10.452-.203-16.198-.482-4.685-3.214-6.828-7.287-6.479-4.83.415-12.296 3.242-17.819 4.657-2.125.544-4.599.672-5.467 2.024 4.516-.07 9.466-2.58 12.757-3.238 4.296-.861 8.428-1.812 13.16-2.025 3.886 2.324 2.668 9.751 3.849 14.78-1.162 1.674-.979 4.691-1.015 7.492-.892 1.729-2.465 1.222-4.453 1.417-5.389.527-12.436 2.367-17.615 3.036-2.519.326-5.746.969-7.288.608-2.886-.674-3.793-4.279-5.873-5.467-1.642-1.444-2.443-6.023-5.062-4.049 1.141 2.04 2.558 3.504 4.249 5.468zm1.215-24.499c-2.999 2.874-6.307 5.438-8.707 8.909 3.114-.596 4.319-3.406 6.277-5.266 1.216-1.154 2.612-2.06 3.037-3.441-.258-.011-.28-.259-.607-.202zm-4.252 7.492c2.048-.598 4.394-1.237 5.872-1.823-.231-1.567-.642-2.149-.606-3.646-1.864 1.582-4.466 3.501-5.266 5.469zm36.04-5.062c-4.082-.671-8.377 1.181-12.148 1.822.681 2.595 1.826 4.933 3.037 7.087 1.249 2.218 2.195 4.594 3.848 6.479 2.753-.554 5.493-1.12 7.896-2.023-.239-6.435.244-9.213-2.633-13.365zm-83.418 11.541c-.867 2.955-.91 7.833.405 10.326 5.728 1.106 14.03-3.42 18.626-4.657.336-.204.221-.859.405-1.214-5.167 1.078-10.981 5.237-17.008 3.847-.263-2.057-.717-4.431-.404-7.49 4.465-2.211 10.438-5.876 15.186-8.504 1.354-.749 4.533-2.006 3.239-3.239-6.363 3.729-14.132 6.521-20.449 10.931zm68.232-9.111c-.213 1.31 1.05 2.062 1.619 3.239.441.912 1.048 2.294 1.62 3.645 2.24 5.286 2.384 10.234 8.301 8.707 2.065-.533 4.529-1.943 6.075-2.024-.018-.353.045-.63.202-.81-2.752-1.037-6.178 2.202-9.313.81-2.121-4.629-4.821-8.677-6.479-13.768-1.041-.006-1.591.032-2.025.201zm-1.62.607c-3.089.623-5.711 1.713-8.909 2.227.579 6.233-5.273 7.28-8.908 9.923 2.358 3.783 5.074 7.209 8.505 9.921 9.647-.722 19.276-2.816 27.737-4.252.783-1.136.325-2.255.812-3.646-3.298.433-6.862 2.897-11.34 1.823-2.793-5.172-4.145-11.784-7.897-15.996zm-46.568.202c-2.938 1.648-5.904 3.271-8.706 5.062-1.67 2.33-7.113 2.089-8.301 4.859-.752 1.753.443 3.79.202 6.075 6.242.149 11.087-2.803 16.198-4.455.686-3.963.689-7.386 1.215-11.541H137.335zm32.395 1.215c-4.378 1.534-8.293 2.388-12.148 4.252-4.54 1.307-9.633 2.711-14.375 4.049-1.27.359-3.82.767-3.441 2.835a328.3 328.3 0 0 0 30.572-11.136h-.608zm-61.146 2.025c-1.896 4.716-4.799 8.429-6.275 13.564.573.641 1.152 1.275 2.023 1.62 2.752-5.414 5.786-10.547 8.302-16.198-1.554.136-2.738.638-4.05 1.014zm53.453 2.632c.938.816 1.668 1.841 2.228 3.037 2.639-1.613 6.436-2.068 6.479-6.276-3.337.93-5.853 1.661-8.707 3.239zm-3.037.81c.628 1.531 1.568 2.751 2.431 4.049.854-.225 1.536-.622 2.023-1.215-.987-1.104-1.509-2.674-2.631-3.644-.362.518-1.106.65-1.823.81zm-.81.607c-6.025 1.47-12.18 4.557-18.627 6.276-.003 2.63-.469 4.797-.405 7.491 3.594-1.595 7.48-2.958 11.136-4.455 3.69-1.511 7.199-3.237 10.124-5.467-.732-1.291-1.667-2.382-2.228-3.845z"/><path d="M162.239 127.283c.694-.356 1.309.035 1.822.404.025.5.03.977-.203 1.214h1.013c.122.485.291.925.202 1.62-.385.087-.366.579-1.012.405.156.18.218.458.202.81-1.52.328-1.812 2.879-3.645 2.228-.147.595-.763.723-1.215 1.012-.354-.183-.78-.453-.404-.81-4.069-1.366-2.4-6.815.404-8.301 1.011.41 2.942-.104 2.836 1.418zm-4.049 1.62c1.164-.354.483 1.136 1.214 1.216.517-.823-.343-1.741-.81-2.229.032.505-.318.628-.404 1.013zm-.203 2.632c.377-.703-.104-1.071-.405-1.62-.185.795-.102 1.118.405 1.62zm2.633 1.215c-.784.176-.331-.884-1.215-.608-.121.609.854 1.15 1.215.608zM118.1 131.131c.196.005.157.247.203.404.839-.995 1.736-2.475 4.252-2.024 4.107.734 2.84 7.797-1.418 8.301-2.921.346-2.916-2.035-3.847-4.05.175-1.301.889-1.479.81-2.631zM3.468 27.179c-.229.135-.621.242-1.079.242C.958 27.421 0 26.274 0 24.115c0-1.875.945-3.399 2.577-3.399.352 0 .729.094.917.203l-.202.85a1.707 1.707 0 0 0-.742-.176c-1.052 0-1.511 1.241-1.511 2.522 0 1.523.58 2.441 1.538 2.441.27 0 .512-.054.742-.174l.149.797zM5.156 20.81l.876 3.75c.108.515.175.932.27 1.351h.028c.067-.377.175-.863.271-1.334l.782-3.766h1.025l-1.065 4.197c-.404 1.631-.862 3.21-1.618 4.208-.459.58-.945.877-1.175.985l-.391-.876c.312-.177.634-.459.931-.824.271-.352.473-.783.58-1.105.056-.147.081-.229.081-.325a.727.727 0 0 0-.041-.241l-1.647-6.02h1.093zM10.569 19.286v1.523h1.254v.783h-1.254v3.885c0 .851.296 1.079.674 1.079.175 0 .312-.013.418-.04l.054.796c-.188.068-.432.107-.769.107-.419 0-.783-.107-1.025-.392-.271-.297-.392-.742-.392-1.646v-3.792h-.795v-.779h.796v-1.104l1.039-.42zM16.641 24.076c0 2.522-1.161 3.372-2.172 3.372-1.174 0-2.118-1.064-2.118-3.358 0-2.374 1.065-3.373 2.186-3.373 1.173-.001 2.104 1.092 2.104 3.359zm-3.252 0c0 1.08.188 2.549 1.134 2.549.891 0 1.079-1.524 1.079-2.549 0-.999-.188-2.538-1.106-2.538-.931 0-1.107 1.539-1.107 2.538zM17.791 22.848c0-.999-.04-1.579-.054-2.038h.918l.053.837h.027c.364-.688.876-.931 1.39-.931 1.147 0 1.89 1.201 1.89 3.345 0 2.43-.998 3.387-2.023 3.387-.621 0-.972-.392-1.146-.756h-.027v3.238h-1.025l-.003-7.082zm1.025 2.105c0 .188.014.377.055.539.203.931.675 1.092.957 1.092.864 0 1.147-1.187 1.147-2.495 0-1.349-.324-2.483-1.16-2.483-.473 0-.904.58-.957 1.176a2.842 2.842 0 0 0-.042.499v1.672zM23.189 18.004h1.039v9.336h-1.039v-9.336zM29.208 25.855c0 .499.014 1.066.068 1.484h-.931l-.067-.688h-.041c-.283.499-.742.797-1.309.797-.863 0-1.537-.729-1.537-1.86 0-1.646 1.308-2.361 2.778-2.375v-.203c0-.876-.229-1.472-1.039-1.472a1.86 1.86 0 0 0-1.078.338l-.229-.729c.283-.203.876-.432 1.524-.432 1.309 0 1.861.85 1.861 2.307v2.833zm-1.012-1.901c-.54 0-1.794.106-1.794 1.523 0 .863.432 1.16.796 1.16.458 0 .836-.336.958-.984a1.87 1.87 0 0 0 .04-.379v-1.32zM30.506 26.261c.23.148.635.338 1.054.338.58 0 .958-.364.958-.943 0-.499-.177-.838-.836-1.282-.851-.541-1.309-1.107-1.309-1.85 0-1.065.782-1.807 1.794-1.807.513 0 .891.174 1.16.337l-.27.781c-.257-.175-.525-.297-.876-.297-.555 0-.836.405-.836.837 0 .431.161.674.809 1.121.755.483 1.35 1.079 1.35 1.981 0 1.309-.891 1.943-1.97 1.943-.472 0-.999-.148-1.282-.377l.254-.782zM34.582 22.497c0-.77-.041-1.16-.054-1.688h.904l.054.812h.027c.283-.527.782-.904 1.471-.904.606 0 1.12.283 1.363.999h.026c.174-.325.404-.593.647-.743.256-.175.565-.255.903-.255.876 0 1.564.634 1.564 2.307v4.317h-1.025v-4.088c0-.851-.122-1.672-.918-1.672-.432 0-.809.363-.957.984a3.767 3.767 0 0 0-.042.58v4.195h-1.024v-4.276c0-.715-.121-1.483-.904-1.483-.432 0-.85.363-.971 1.065a3.435 3.435 0 0 0-.041.553v4.142H34.58l.002-4.845z"/><g><path d="M197.785 4.845c0-.999-.039-1.579-.053-2.039h.917l.054.837h.028c.362-.688.877-.931 1.389-.931 1.147 0 1.89 1.201 1.89 3.345 0 2.429-.999 3.386-2.023 3.386-.621 0-.971-.391-1.146-.755h-.027v3.238h-1.025V4.845h-.004zm1.026 2.104c0 .188.015.377.056.538.201.932.674 1.094.958 1.094.863 0 1.146-1.188 1.146-2.495 0-1.35-.322-2.483-1.16-2.483-.472 0-.902.58-.957 1.175a2.967 2.967 0 0 0-.041.5l-.002 1.671zM204.304 1.121c0 .403-.24.674-.634.674-.338 0-.593-.271-.593-.674 0-.405.271-.676.606-.676.38 0 .621.27.621.676zm-1.118 8.215v-6.53h1.039v6.53h-1.039zM205.668 0h1.038v9.336h-1.038V0zM212.158 7.555c0 .715.042 1.295.055 1.781h-.903l-.081-.688h-.026c-.188.325-.688.796-1.391.796-1.135 0-1.592-.89-1.592-2.508v-4.13h1.037v3.981c0 1.024.163 1.779.88 1.779.606 0 .876-.566.931-.863.039-.175.053-.377.053-.594V2.806h1.039l-.002 4.749zM213.442 8.257c.229.148.636.338 1.055.338.58 0 .955-.364.955-.944 0-.499-.175-.837-.835-1.281-.851-.541-1.309-1.107-1.309-1.85 0-1.065.782-1.808 1.795-1.808.512 0 .89.175 1.159.338l-.271.781c-.258-.175-.525-.296-.877-.296-.554 0-.837.404-.837.837 0 .432.161.674.811 1.121.755.483 1.349 1.079 1.349 1.981 0 1.31-.891 1.943-1.97 1.943-.473 0-.998-.148-1.281-.377l.256-.783z"/></g><g><path d="M329.372 40c-.229.135-.621.242-1.079.242-1.43 0-2.388-1.147-2.388-3.306 0-1.875.944-3.398 2.577-3.398.35 0 .729.094.916.203l-.2.85a1.71 1.71 0 0 0-.743-.176c-1.054 0-1.512 1.241-1.512 2.522 0 1.524.58 2.442 1.539 2.442.269 0 .511-.055.742-.175l.148.796zM330.913 36.991c0 2.01.796 2.429 1.537 2.429.458 0 .824-.109 1.079-.244l.177.756c-.366.188-.918.311-1.442.311-1.565 0-2.376-1.282-2.376-3.277 0-2.106.903-3.427 2.213-3.427 1.322 0 1.86 1.401 1.86 2.859 0 .255-.013.433-.025.594h-3.023zm2.05-.77c.016-1.295-.473-1.875-.971-1.875-.688 0-1.023.985-1.064 1.875h2.035zM335.083 30.825h1.038v9.336h-1.038v-9.336zM337.66 30.825h1.04v9.336h-1.04v-9.336zM342.884 33.631l.636 3.198c.135.699.27 1.401.351 2.078h.055a23.61 23.61 0 0 1 .403-2.053l.756-3.225h.796l.717 3.131c.16.729.31 1.415.418 2.146h.053c.083-.689.204-1.363.353-2.106l.62-3.17h1.038l-1.645 6.53h-.852l-.755-3.17c-.163-.635-.257-1.215-.365-1.956h-.025c-.109.768-.23 1.376-.379 1.997l-.781 3.129h-.877l-1.592-6.53h1.075zM353.317 38.676c0 .5.013 1.066.066 1.485h-.931l-.068-.689h-.04c-.283.499-.741.796-1.309.796-.864 0-1.538-.729-1.538-1.859 0-1.646 1.31-2.361 2.78-2.375v-.204c0-.876-.23-1.472-1.04-1.472-.403 0-.771.122-1.079.339l-.229-.729c.283-.203.877-.432 1.523-.432 1.31 0 1.862.85 1.862 2.307l.003 2.833zm-1.011-1.901c-.541 0-1.795.107-1.795 1.524 0 .863.432 1.16.796 1.16.458 0 .837-.336.959-.984.025-.122.04-.257.04-.379v-1.321zM354.79 30.825h1.038v9.336h-1.038v-9.336zM357.367 30.825h1.038v9.336h-1.038v-9.336z"/></g><g><path d="M6.798 208.428c-.229.135-.619.242-1.078.242-1.431 0-2.389-1.146-2.389-3.306 0-1.875.945-3.399 2.577-3.399.351 0 .729.095.918.203l-.203.851a1.699 1.699 0 0 0-.742-.177c-1.052 0-1.511 1.241-1.511 2.522 0 1.523.58 2.441 1.538 2.441.271 0 .513-.055.743-.175l.147.798zM11.617 205.325c0 2.521-1.161 3.37-2.172 3.37-1.173 0-2.118-1.063-2.118-3.357 0-2.374 1.066-3.373 2.187-3.373 1.172 0 2.103 1.093 2.103 3.36zm-3.252 0c0 1.078.189 2.549 1.134 2.549.892 0 1.079-1.524 1.079-2.549 0-.999-.188-2.538-1.105-2.538-.932 0-1.108 1.539-1.108 2.538zM13.899 200.374c0 .402-.242.674-.634.674-.339 0-.595-.271-.595-.674 0-.406.271-.676.607-.676.38 0 .622.27.622.676zm-1.119 8.215v-6.529h1.039v6.529H12.78zM15.264 199.253h1.039v9.336h-1.039v-9.336zM18.57 205.419c0 2.01.796 2.429 1.538 2.429.459 0 .823-.107 1.079-.244l.176.757c-.364.188-.917.311-1.443.311-1.564 0-2.375-1.282-2.375-3.277 0-2.104.904-3.428 2.212-3.428 1.322 0 1.862 1.402 1.862 2.861 0 .255-.013.432-.026.593l-3.023-.002zm2.05-.77c.014-1.295-.472-1.875-.97-1.875-.689 0-1.026.985-1.066 1.875h2.036zM26.667 199.253v7.771c0 .445.041 1.188.056 1.565h-.892l-.067-.81h-.04c-.217.458-.676.916-1.376.916-1.094 0-1.89-1.187-1.89-3.345 0-2.307.958-3.387 1.957-3.387.485 0 .944.216 1.201.77h.027v-3.48h1.024zm-1.025 5.303c0-.136 0-.297-.015-.432-.066-.689-.472-1.27-.971-1.27-.863 0-1.161 1.201-1.161 2.496 0 1.376.352 2.481 1.106 2.481.323 0 .769-.175.999-1.119.025-.122.04-.271.04-.432l.002-1.724zM30.34 199.631c.392-.121.876-.175 1.39-.175.958 0 1.633.242 2.132.688.701.606 1.228 1.779 1.228 3.684 0 2.077-.512 3.21-1.092 3.844-.594.661-1.458.973-2.51.973-.418 0-.85-.027-1.146-.096l-.002-8.918zm1.025 8.121c.148.027.297.027.391.027 1.147 0 2.253-.837 2.253-3.927 0-2.294-.701-3.548-2.158-3.548-.162 0-.352.014-.486.055v7.393zM36.347 208.589v-9.092h.971l1.672 4.263c.378.985.85 2.185 1.161 3.17h.026a68.413 68.413 0 0 1-.121-4.182v-3.251h.931v9.092h-.971l-1.728-4.371a28.94 28.94 0 0 1-1.093-3.09h-.025c.081 1.215.108 2.375.108 4.316v3.145h-.931zM43.702 205.865l-.594 2.725h-1.012l2.077-9.092h1.147l2.023 9.092H46.32l-.594-2.725h-2.024zm1.876-.837l-.472-2.309a47.376 47.376 0 0 1-.364-2.076h-.04c-.107.688-.243 1.47-.378 2.076l-.472 2.309h1.726z"/></g><g><path d="M136.421 220.58c0-.555-.041-1.199-.055-1.688h.931l.055 1.041h.026c.217-.623.77-1.134 1.376-1.134.081 0 .148 0 .217.014v1.052h-.217c-.662 0-1.146.605-1.255 1.348a4.158 4.158 0 0 0-.041.597v3.615h-1.039v-4.845h.002zM140.901 217.209c0 .401-.242.673-.634.673-.337 0-.595-.271-.595-.673 0-.405.271-.676.607-.676.38 0 .622.271.622.676zm-1.119 8.216v-6.531h1.039v6.531h-1.039zM142.251 216.089h1.025v3.589h.027c.337-.649.822-.877 1.39-.877 1.024 0 1.781 1.16 1.781 3.306 0 2.347-.973 3.425-1.983 3.425-.688 0-1.039-.402-1.295-.956h-.054l-.067.851h-.877c.014-.379.054-1.12.054-1.565l-.001-7.773zm1.025 7.042c0 .147.014.283.042.405.242.956.688 1.131.984 1.131.836 0 1.133-1.131 1.133-2.521 0-1.309-.311-2.455-1.16-2.455-.485 0-.876.595-.971 1.16a4.744 4.744 0 0 0-.027.445l-.001 1.835zM151.658 222.159c0 2.523-1.161 3.37-2.172 3.37-1.173 0-2.118-1.063-2.118-3.357 0-2.372 1.066-3.371 2.187-3.371 1.172 0 2.103 1.091 2.103 3.358zm-3.252 0c0 1.081.189 2.551 1.134 2.551.891 0 1.079-1.526 1.079-2.551 0-.999-.188-2.538-1.105-2.538-.932 0-1.108 1.539-1.108 2.538zM152.645 224.344c.229.148.635.34 1.053.34.58 0 .957-.366.957-.946 0-.496-.175-.837-.836-1.281-.852-.54-1.31-1.106-1.31-1.85 0-1.063.782-1.806 1.795-1.806.513 0 .89.175 1.159.336l-.271.781c-.256-.175-.525-.297-.876-.297-.554 0-.836.404-.836.837 0 .432.161.676.809 1.121.756.483 1.351 1.081 1.351 1.982 0 1.31-.892 1.941-1.971 1.941-.472 0-.999-.148-1.281-.376l.257-.782zM160.729 222.159c0 2.523-1.161 3.37-2.173 3.37-1.174 0-2.118-1.063-2.118-3.357 0-2.372 1.065-3.371 2.186-3.371 1.173 0 2.105 1.091 2.105 3.358zm-3.252 0c0 1.081.188 2.551 1.134 2.551.89 0 1.079-1.526 1.079-2.551 0-.999-.189-2.538-1.106-2.538-.932 0-1.107 1.539-1.107 2.538zM161.891 220.58c0-.769-.04-1.159-.054-1.688h.904l.053.812h.027c.284-.527.783-.903 1.471-.903.607 0 1.12.283 1.363.999h.027c.175-.326.404-.594.646-.745.256-.175.566-.254.904-.254.877 0 1.563.633 1.563 2.307v4.317h-1.023v-4.09c0-.852-.122-1.671-.918-1.671-.433 0-.81.361-.958.984a3.637 3.637 0 0 0-.041.58v4.195h-1.025v-4.277c0-.716-.121-1.482-.903-1.482-.433 0-.851.361-.972 1.063a3.571 3.571 0 0 0-.041.555v4.143h-1.025l.002-4.845zM170.988 222.255c0 2.01.797 2.429 1.538 2.429.458 0 .824-.108 1.08-.244l.176.755c-.366.188-.918.311-1.444.311-1.564 0-2.375-1.282-2.375-3.275 0-2.105.904-3.428 2.213-3.428 1.322 0 1.861 1.4 1.861 2.86 0 .254-.013.432-.028.594l-3.021-.002zm2.052-.772c.014-1.295-.474-1.875-.973-1.875-.688 0-1.025.985-1.065 1.875h2.038zM174.984 224.344c.229.148.633.34 1.051.34.58 0 .959-.366.959-.946 0-.496-.176-.837-.837-1.281-.85-.54-1.309-1.106-1.309-1.85 0-1.063.78-1.806 1.793-1.806.514 0 .892.175 1.162.336l-.271.781c-.255-.175-.526-.297-.877-.297-.552 0-.835.404-.835.837 0 .432.162.676.808 1.121.756.483 1.352 1.081 1.352 1.982 0 1.31-.893 1.941-1.972 1.941-.471 0-.999-.148-1.281-.376l.257-.782z"/></g><g><path d="M332.971 197.755v-5.748h-.822v-.782h.822v-.351c0-.688.204-1.483.742-1.996.378-.352.893-.566 1.659-.566.567 0 1.2.148 1.579.336v9.107h-1.038v-8.46a1.842 1.842 0 0 0-.715-.133c-.905 0-1.188.779-1.188 1.644v.419h1.118v.782h-1.118v5.748h-1.039zM341.839 196.27c0 .5.015 1.066.066 1.485h-.93l-.069-.689h-.039c-.283.5-.741.796-1.309.796-.863 0-1.539-.728-1.539-1.859 0-1.646 1.309-2.36 2.779-2.374v-.202c0-.877-.229-1.472-1.04-1.472-.402 0-.768.122-1.077.338l-.23-.729c.283-.203.877-.432 1.526-.432 1.308 0 1.86.85 1.86 2.307l.002 2.831zm-1.012-1.902c-.54 0-1.796.106-1.796 1.523 0 .863.432 1.16.798 1.16.458 0 .835-.336.957-.983.026-.121.041-.258.041-.379v-1.321zM347.25 196.917c0 1.714-.214 2.36-.646 2.848-.394.433-.999.688-1.742.688-.552 0-1.092-.135-1.428-.323l.239-.81a2.67 2.67 0 0 0 1.217.283c.821 0 1.335-.513 1.335-1.997v-.66h-.026c-.218.513-.702.796-1.256.796-1.16 0-1.915-1.31-1.915-3.226 0-2.399 1.093-3.386 2.062-3.386.688 0 1.013.458 1.217.822h.025l.053-.729h.919c-.015.445-.056 1.024-.056 2.038l.002 3.656zm-1.024-3.438c0-.163-.015-.338-.054-.473-.108-.445-.353-.985-.945-.985-.755 0-1.16 1.013-1.16 2.455 0 1.659.527 2.416 1.16 2.416.322 0 .729-.147.932-.932.054-.202.067-.405.067-.593v-1.888zM349.425 194.584c0 2.011.799 2.429 1.539 2.429.458 0 .822-.108 1.078-.243l.176.756c-.363.188-.918.311-1.442.311-1.563 0-2.374-1.281-2.374-3.277 0-2.104.903-3.427 2.211-3.427 1.323 0 1.862 1.402 1.862 2.86 0 .255-.015.432-.026.593l-3.024-.002zm2.05-.77c.016-1.295-.472-1.875-.97-1.875-.688 0-1.025.985-1.066 1.875h2.036zM353.598 188.419h1.038v9.336h-1.038v-9.336zM356.174 188.419h1.038v9.336h-1.038v-9.336zM362.665 195.974c0 .715.041 1.295.055 1.781h-.904l-.081-.689h-.026c-.188.325-.688.796-1.391.796-1.134 0-1.592-.89-1.592-2.508v-4.129h1.038v3.98c0 1.024.162 1.779.879 1.779.606 0 .876-.566.931-.862.039-.175.053-.378.053-.595v-4.304h1.04l-.002 4.751zM364.124 192.912c0-.771-.041-1.16-.054-1.688h.904l.055.812h.026c.282-.527.781-.904 1.47-.904.606 0 1.12.283 1.364.998h.025c.175-.324.405-.593.647-.743a1.58 1.58 0 0 1 .903-.255c.878 0 1.564.634 1.564 2.307v4.317h-1.025v-4.088c0-.852-.122-1.673-.918-1.673-.432 0-.809.363-.957.984a3.646 3.646 0 0 0-.041.58v4.195h-1.024v-4.276c0-.715-.122-1.483-.902-1.483-.432 0-.851.363-.973 1.065a3.555 3.555 0 0 0-.039.552v4.144h-1.027l.002-4.844z"/></g><g><path d="M365.847 95.463c-.23.135-.621.242-1.08.242-1.431 0-2.388-1.147-2.388-3.306 0-1.875.943-3.398 2.577-3.398.35 0 .729.094.916.203l-.201.85a1.701 1.701 0 0 0-.742-.176c-1.054 0-1.512 1.241-1.512 2.522 0 1.524.58 2.442 1.539 2.442.27 0 .511-.055.741-.175l.15.796zM367.533 89.095l.877 3.75c.108.514.177.931.271 1.349h.026c.068-.377.175-.862.271-1.334l.784-3.765h1.023l-1.065 4.197c-.405 1.631-.863 3.21-1.619 4.208-.458.58-.944.876-1.173.984l-.394-.877c.312-.176.636-.459.933-.823.27-.352.472-.783.58-1.105.054-.147.079-.229.079-.325a.782.782 0 0 0-.04-.242l-1.646-6.018 1.093.001zM372.948 87.571v1.524h1.254v.783h-1.254v3.885c0 .852.297 1.08.674 1.08.176 0 .312-.013.418-.04l.056.796c-.189.067-.433.107-.771.107-.418 0-.782-.107-1.023-.392-.271-.296-.392-.742-.392-1.646v-3.792h-.798v-.783h.798V87.99l1.038-.419zM379.02 92.36c0 2.523-1.161 3.372-2.173 3.372-1.174 0-2.117-1.063-2.117-3.357 0-2.375 1.064-3.373 2.187-3.373 1.172-.001 2.103 1.091 2.103 3.358zm-3.251 0c0 1.08.188 2.55 1.134 2.55.89 0 1.078-1.524 1.078-2.55 0-.998-.188-2.536-1.105-2.536-.933-.001-1.107 1.538-1.107 2.536zM380.17 91.133c0-.998-.041-1.578-.055-2.038h.918l.055.837h.026c.364-.688.877-.931 1.391-.931 1.146 0 1.89 1.201 1.89 3.345 0 2.429-.999 3.386-2.023 3.386-.621 0-.973-.391-1.146-.755h-.027v3.238h-1.025v-7.082h-.004zm1.025 2.104c0 .188.015.378.054.539.203.932.676 1.094.958 1.094.863 0 1.146-1.188 1.146-2.495 0-1.351-.325-2.483-1.16-2.483-.473 0-.904.58-.957 1.175a2.967 2.967 0 0 0-.041.5v1.67zM385.568 86.289h1.039v9.336h-1.039v-9.336zM391.587 94.14c0 .5.015 1.066.067 1.485h-.931l-.067-.689h-.041c-.284.499-.742.796-1.309.796-.863 0-1.537-.729-1.537-1.859 0-1.646 1.308-2.361 2.778-2.375v-.203c0-.876-.229-1.471-1.04-1.471-.402 0-.769.121-1.078.338l-.229-.729c.283-.203.876-.432 1.524-.432 1.308 0 1.86.85 1.86 2.307v2.833h.003zm-1.012-1.9c-.54 0-1.794.106-1.794 1.523 0 .863.432 1.16.796 1.16.458 0 .837-.336.959-.984.026-.122.039-.257.039-.379v-1.32zM392.886 94.545c.229.147.633.338 1.051.338.58 0 .959-.364.959-.944 0-.499-.176-.837-.837-1.281-.852-.541-1.31-1.107-1.31-1.85 0-1.065.781-1.808 1.795-1.808.514 0 .891.175 1.16.338l-.271.781c-.256-.175-.525-.296-.877-.296-.555 0-.835.404-.835.837 0 .432.16.674.808 1.121.756.483 1.351 1.078 1.351 1.981 0 1.31-.892 1.943-1.971 1.943-.471 0-.998-.148-1.282-.377l.259-.783zM396.961 90.782c0-.771-.041-1.16-.055-1.688h.904l.055.811h.026c.283-.526.782-.903 1.47-.903.607 0 1.12.283 1.364.999h.026c.175-.325.404-.593.646-.743.255-.175.564-.255.904-.255.877 0 1.562.634 1.562 2.307v4.317h-1.023v-4.088c0-.851-.122-1.672-.918-1.672-.433 0-.81.363-.957.984a3.54 3.54 0 0 0-.041.58v4.195H399.9V91.35c0-.715-.122-1.484-.903-1.484-.432 0-.85.363-.972 1.065a3.555 3.555 0 0 0-.039.552v4.144h-1.026l.001-4.845zM406.449 87.409c0 .403-.243.674-.634.674-.338 0-.595-.271-.595-.674 0-.405.27-.677.606-.677.38.001.623.272.623.677zm-1.12 8.216v-6.53h1.038v6.53h-1.038zM410.997 95.463c-.229.135-.62.242-1.08.242-1.431 0-2.389-1.147-2.389-3.306 0-1.875.944-3.398 2.577-3.398.352 0 .729.094.918.203l-.202.85a1.698 1.698 0 0 0-.743-.176c-1.052 0-1.51 1.241-1.51 2.522 0 1.524.58 2.442 1.537 2.442.271 0 .513-.055.743-.175l.149.796zM362.663 106.979c0-.769-.041-1.16-.055-1.687h.904l.053.811h.026c.283-.526.784-.903 1.472-.903.607 0 1.119.282 1.363.998h.025c.176-.324.405-.594.648-.743.256-.176.564-.255.902-.255.877 0 1.565.634 1.565 2.307v4.317h-1.025v-4.089c0-.85-.121-1.672-.919-1.672-.432 0-.808.364-.956.985a3.768 3.768 0 0 0-.041.58v4.195H365.6v-4.276c0-.715-.12-1.484-.903-1.484-.432 0-.85.364-.972 1.066-.026.162-.04.351-.04.552v4.143h-1.024l.002-4.845zM371.76 108.651c0 2.012.796 2.43 1.537 2.43.458 0 .823-.109 1.079-.244l.177.756c-.365.188-.918.31-1.443.31-1.565 0-2.376-1.281-2.376-3.276 0-2.105.904-3.427 2.213-3.427 1.323 0 1.862 1.401 1.862 2.859 0 .255-.015.433-.026.593h-3.023zm2.05-.769c.015-1.295-.474-1.875-.972-1.875-.688 0-1.023.985-1.064 1.875h2.036zM375.931 106.979c0-.769-.04-1.16-.054-1.687h.902l.053.811h.028c.283-.526.782-.903 1.472-.903.606 0 1.118.282 1.36.998h.028c.175-.324.403-.594.646-.743.257-.176.567-.255.903-.255.877 0 1.564.634 1.564 2.307v4.317h-1.024v-4.089c0-.85-.122-1.672-.917-1.672-.434 0-.811.364-.958.985a3.768 3.768 0 0 0-.041.58v4.195h-1.024v-4.276c0-.715-.121-1.484-.904-1.484-.433 0-.851.364-.972 1.066a3.54 3.54 0 0 0-.041.552v4.143h-1.023l.002-4.845zM384.286 102.486h1.024v3.59h.027c.336-.647.822-.876 1.39-.876 1.024 0 1.78 1.159 1.78 3.305 0 2.348-.972 3.425-1.982 3.425-.688 0-1.038-.403-1.295-.957h-.053l-.069.851h-.877c.014-.378.055-1.121.055-1.565v-7.773zm1.025 7.042c0 .148.016.283.042.405.242.957.688 1.132.983 1.132.836 0 1.134-1.132 1.134-2.521 0-1.31-.312-2.455-1.16-2.455-.486 0-.877.595-.972 1.16-.013.149-.027.298-.027.446v1.833zM389.673 106.979c0-.553-.042-1.201-.057-1.687h.933l.054 1.04h.027c.217-.621.771-1.133 1.376-1.133.08 0 .148 0 .217.013v1.053h-.217c-.662 0-1.146.606-1.256 1.348-.025.177-.04.38-.04.596v3.615h-1.037v-4.845zM396.392 110.337c0 .499.014 1.065.067 1.483h-.932l-.067-.688h-.041c-.283.499-.741.795-1.309.795-.863 0-1.537-.728-1.537-1.86 0-1.646 1.308-2.36 2.779-2.375v-.202c0-.876-.23-1.473-1.039-1.473-.404 0-.771.122-1.08.338l-.229-.728c.283-.203.876-.433 1.524-.433 1.308 0 1.861.851 1.861 2.308v2.834h.003zm-1.012-1.901c-.54 0-1.794.107-1.794 1.524 0 .863.433 1.16.796 1.16.458 0 .838-.336.959-.984.026-.122.039-.257.039-.379v-1.321zM397.865 106.979c0-.769-.04-1.16-.053-1.687h.902l.053.796h.028c.282-.526.809-.89 1.498-.89.901 0 1.577.66 1.577 2.238v4.384h-1.038v-4.194c0-.783-.147-1.552-.903-1.552-.433 0-.852.363-.972 1.053-.04.162-.056.364-.056.593v4.101h-1.038l.002-4.842zM404.061 108.651c0 2.012.797 2.43 1.539 2.43.458 0 .822-.109 1.077-.244l.177.756c-.364.188-.918.31-1.443.31-1.564 0-2.375-1.281-2.375-3.276 0-2.105.903-3.427 2.213-3.427 1.321 0 1.86 1.401 1.86 2.859 0 .255-.013.433-.026.593h-3.022zm2.05-.769c.015-1.295-.473-1.875-.972-1.875-.688 0-1.025.985-1.066 1.875h2.038z"/></g><path fill="none" stroke="#000" stroke-width=".5" stroke-miterlimit="10" d="M219.45 6.302l23.06 27.559M44.535 24.862l52.305 57.93M320.684 38.923L273.44 65.919M273.44 92.353h85.49M297.062 194.151h32.058M159.269 132.284v82.676M118.212 121.036l-68.053 82.676"/></svg>