<svg version="1.1" id="Layer_1" xmlns="http://www.w3.org/2000/svg" x="0" y="0" viewBox="0 0 453.5 242.2" xml:space="preserve"><style type="text/css">.st0{fill:#d1d3d4;stroke:#000;stroke-miterlimit:10}.st1,.st2{fill:none}.st2{stroke:#000;stroke-miterlimit:10}</style><path d="M238.9 230.9h-1.7v-1.4h4.9v1.4h-1.7v5.8H239v-5.8zM242.8 229.6c0-.5.3-.8.8-.8s.8.3.8.8-.3.8-.8.8c-.4.1-.8-.3-.8-.8zm.1 1.7h1.4v5.5h-1.4v-5.5zM245.6 231.3h1.2l.1.7c.4-.5.8-.8 1.5-.8s1.1.3 1.3.9c.4-.5.9-.9 1.5-.9 1 0 1.5.8 1.5 2.2v3.4h-1.4v-3.2c0-.8-.2-1-.6-1-.2 0-.5.2-.8.5v3.7h-1.4v-3.2c0-.8-.2-1-.6-1-.2 0-.5.2-.8.5v3.7h-1.4v-5.5zM253.6 234c0-1.8 1.1-2.9 2.3-2.9 1.4 0 2 1.1 2 2.6 0 .3 0 .6-.1.7H255c.1.8.6 1.2 1.2 1.2.4 0 .7-.1 1-.4l.5 1c-.5.4-1.1.6-1.7.6-1.3.1-2.4-1-2.4-2.8zm3.1-.6c0-.6-.2-1-.8-1-.4 0-.8.3-.9 1h1.7zM88.1 216h1.8c1.9 0 3.2 1.1 3.2 3.6s-1.2 3.6-3.1 3.6h-1.9V216zm1.7 5.9c1.1 0 1.8-.6 1.8-2.3s-.7-2.2-1.8-2.2h-.3v4.6h.3zM94 216.1c0-.5.3-.8.8-.8s.8.3.8.8-.3.8-.8.8c-.4.1-.8-.3-.8-.8zm.1 1.7h1.4v5.5h-1.4v-5.5zM96.6 221.7c0-1.2.8-1.8 2.7-2 0-.5-.2-.8-.8-.8-.4 0-.8.2-1.3.5l-.5-1.1c.6-.4 1.3-.7 2-.7 1.2 0 1.9.8 1.9 2.5v3.1h-1.2l-.1-.6c-.4.4-.9.7-1.4.7-.8 0-1.3-.7-1.3-1.6zm2.7-.1v-1c-1 .2-1.3.5-1.3.9s.2.5.5.5c.3.1.5-.1.8-.4zM101.6 224.1c0-.5.2-.8.7-1.1-.2-.2-.4-.5-.4-.9s.2-.8.5-1c-.3-.3-.6-.8-.6-1.4 0-1.3 1-2 2-2 .3 0 .5 0 .7.1h1.8v1.2h-.8c.1.2.2.4.2.7 0 1.3-.8 1.8-1.9 1.8-.2 0-.4 0-.6-.1-.1.1-.2.2-.2.4 0 .3.2.4.7.4h.8c1.2 0 1.8.4 1.8 1.4 0 1.1-1 2-2.7 2-1.1-.1-2-.5-2-1.5zm3.3-.3c0-.3-.3-.4-.7-.4h-.5c-.3 0-.5 0-.7-.1-.2.2-.3.3-.3.5 0 .4.4.6 1.1.6.7.1 1.1-.2 1.1-.6zm-.5-4.2c0-.6-.3-.9-.7-.9-.4 0-.7.3-.7.9 0 .6.3.9.7.9.4 0 .7-.3.7-.9zM107 217.8h1.2l.1.7c.4-.4.9-.8 1.5-.8 1 0 1.5.8 1.5 2.2v3.4h-1.4V220c0-.8-.2-1-.6-1-.4 0-.6.2-.9.5v3.7H107v-5.4zM112.3 220.5c0-1.8 1.1-2.9 2.3-2.9 1.2 0 2.3 1 2.3 2.9 0 1.8-1.1 2.9-2.3 2.9-1.2-.1-2.3-1.1-2.3-2.9zm3.2 0c0-.9-.3-1.6-.9-1.6-.6 0-.9.6-.9 1.6 0 .9.3 1.6.9 1.6.6-.1.9-.7.9-1.6zM117.5 222.6l.6-1c.4.4.8.6 1.2.6.4 0 .6-.2.6-.5 0-.4-.5-.5-1-.7-.6-.3-1.3-.7-1.3-1.6 0-1 .7-1.7 1.8-1.7.7 0 1.3.3 1.7.7l-.6 1c-.3-.3-.7-.5-1-.5-.4 0-.5.2-.5.4 0 .3.4.5.9.7.6.3 1.3.6 1.3 1.6s-.7 1.8-2 1.8c-.5-.1-1.2-.4-1.7-.8zM122.1 216.1c0-.5.3-.8.8-.8s.8.3.8.8-.3.8-.8.8c-.4.1-.8-.3-.8-.8zm.1 1.7h1.4v5.5h-1.4v-5.5zM124.5 222.6l.6-1c.4.4.8.6 1.2.6.4 0 .6-.2.6-.5 0-.4-.5-.5-1-.7-.6-.3-1.3-.7-1.3-1.6 0-1 .7-1.7 1.8-1.7.7 0 1.3.3 1.7.7l-.6 1c-.3-.3-.7-.5-1-.5-.4 0-.5.2-.5.4 0 .3.4.5.9.7.6.3 1.3.6 1.3 1.6s-.7 1.8-2 1.8c-.5-.1-1.3-.4-1.7-.8z"/><g><path d="M42 51.8h1.4v2.8h2.2v-2.8H47V59h-1.4v-3h-2.2v3H42v-7.2zM48.1 56.2c0-1.8 1.1-2.9 2.3-2.9 1.4 0 2 1.1 2 2.6 0 .3 0 .6-.1.7h-2.9c.1.8.6 1.2 1.2 1.2.4 0 .7-.1 1-.4l.5 1c-.5.4-1.1.6-1.7.6-1.2.1-2.3-.9-2.3-2.8zm3.1-.6c0-.6-.2-1-.8-1-.4 0-.8.3-.9 1h1.7zM53.2 57.5c0-1.2.8-1.8 2.7-2 0-.5-.2-.8-.8-.8-.4 0-.8.2-1.3.5l-.5-1.1c.6-.4 1.3-.7 2-.7 1.2 0 1.9.8 1.9 2.5V59H56v-.6c-.4.4-.9.7-1.4.7-.9 0-1.4-.7-1.4-1.6zm2.7-.1v-1c-1 .2-1.3.5-1.3.9s.2.5.5.5c.3.1.5-.1.8-.4zM58.5 57.3v-6h1.4v6.1c0 .3.1.5.3.5h.2l.2 1.2c-.2.1-.4.1-.7.1-1.1-.1-1.4-.8-1.4-1.9zM61.5 57v-2.2h-.7v-1.2l.7-.1.2-1.5h1.2v1.5H64v1.3h-1.1V57c0 .6.2.9.6.9.2 0 .3-.1.5-.1l.2 1.2c-.3.1-.6.2-1.1.2-1.2-.1-1.6-.9-1.6-2.2zM65 51.3h1.4v1.9l-.1 1c.4-.4.8-.8 1.5-.8 1 0 1.5.8 1.5 2.2V59h-1.4v-3.2c0-.8-.2-1-.6-1-.4 0-.6.2-.9.5V59H65v-7.7zM70.3 61l.3-1.2c.1 0 .2.1.3.1.5 0 .7-.3.8-.7l.1-.3-1.8-5.4h1.4l.7 2.3c.1.5.3 1 .4 1.5l.3-1.5.6-2.3h1.4L73.1 59c-.5 1.4-1 2.1-2.1 2.1-.3 0-.5 0-.7-.1z"/></g><g><path d="M379.5 216h1.8c1.9 0 3.2 1.1 3.2 3.6s-1.2 3.6-3.1 3.6h-1.9V216zm1.7 5.9c1.1 0 1.8-.6 1.8-2.3s-.7-2.2-1.8-2.2h-.2v4.6h.2zM385.3 220.5c0-1.8 1.1-2.9 2.3-2.9 1.4 0 2 1.1 2 2.6 0 .3 0 .6-.1.7h-2.9c.1.8.6 1.2 1.2 1.2.4 0 .7-.1 1-.4l.5 1c-.5.4-1.1.6-1.7.6-1.3 0-2.3-1-2.3-2.8zm3.1-.6c0-.6-.2-1-.8-1-.4 0-.8.3-.9 1h1.7zM390.3 221.7c0-1.2.8-1.8 2.7-2 0-.5-.2-.8-.8-.8-.4 0-.8.2-1.3.5l-.5-1.1c.6-.4 1.3-.7 2-.7 1.2 0 1.9.8 1.9 2.5v3.1h-1.2l-.1-.6c-.4.4-.9.7-1.4.7-.7 0-1.3-.7-1.3-1.6zm2.7-.1v-1c-1 .2-1.3.5-1.3.9s.2.5.5.5c.4.1.6-.1.8-.4zM395.9 221.2V219h-.7v-1.2l.7-.1.2-1.4h1.2v1.4h1.1v1.3h-1.1v2.2c0 .6.2.9.6.9.2 0 .3-.1.5-.1l.2 1.2c-.3.1-.6.2-1.1.2-1.2-.1-1.6-.9-1.6-2.2zM399.4 215.5h1.4v1.9l-.1 1c.4-.4.8-.8 1.5-.8 1 0 1.5.8 1.5 2.2v3.4h-1.4V220c0-.8-.2-1-.6-1-.4 0-.6.2-.9.5v3.7h-1.4v-7.7z"/></g><path class="st0" d="M87.4 9.5h315.4v196.4H87.4z"/><g><path d="M64.2 200c.1 0 .2 0 .2.1.1.1.1.3 0 .5l-5.3 5.3c-.1.1-.3.1-.5 0-.1-.1-.1-.3 0-.5l5.3-5.3c.2-.1.2-.1.3-.1z"/><path d="M53.5 200c.1 0 .2 0 .2.1l5.3 5.3c.1.1.1.3 0 .5-.1.1-.3.1-.5 0l-5.3-5.3c-.1-.1-.1-.3 0-.5.2-.1.2-.1.3-.1z"/><path d="M58.9 63.6c.2 0 .3 1.5.3 3.3v135.5c0 1.9-.2 3.3-.3 3.3-.2 0-.3-1.5-.3-3.3V67c-.1-1.9.1-3.4.3-3.4z"/></g><g><path d="M365.3 215.1c0-.1 0-.2.1-.2.1-.1.3-.1.5 0l5.3 5.3c.1.1.1.3 0 .5-.1.1-.3.1-.5 0l-5.3-5.3c0-.2-.1-.3-.1-.3z"/><path d="M365.3 225.8c0-.1 0-.2.1-.2l5.3-5.3c.1-.1.3-.1.5 0 .1.1.1.3 0 .5l-5.3 5.3c-.1.1-.3.1-.5 0 0-.2-.1-.3-.1-.3z"/><path d="M132.6 220.4c0-.2 2.5-.3 5.6-.3h227.4c3.1 0 5.6.2 5.6.3s-2.5.3-5.6.3H138.2c-3.1.1-5.6-.1-5.6-.3z"/></g><path class="st2" d="M87.4 130.5c1.6-1.7 3.3-3.2 5.1-4.6 1.5-1.2 3.9-3.6 6.1-3.3 2.6.4 4.8 4.8 6.5 6.6.9 1 1.9 2 2.8 3 .8.8 1.5 1.8 2.3 2.6 1 1 2.2 1.8 3.6 2.4 1 .4 2.4 1 3.4.5s1.7-1.6 1.9-2.6c.2-1 .3-2 .6-2.9.4-1.2 1.1-2.2 1.8-3.2 1.8-2.5 3.9-6 7.6-4.7.1 0 .1 0 .2.1 1.5.6 6 3 7.4 3.7 8.9 4.5 21.2-.5 30.2-2.4 2.7-.6 5.6-1.1 8.2-.1 1.6.6 2.6 2 3.3 3.6.6 1.3.6 3 1.6 4.1 1.2 1.3 3.9 1.4 5.6 1.6 2.7.4 5.6.4 8.1-.8 4.6-2.2 9.4-10.4 15.4-9.2 4.7.9 8.5 6.5 13.1 8.1 8.2 2.9 10-3.1 16.2-6.2 5.8-2.8 13.5-2.3 18.3 2.1 1.5 1.4 2.8 3 4.4 4.2 4.2 3.1 10.2 2.6 15.1.7 4.9-1.8 9.3-4.9 14.3-6.6 5.2-1.8 10-1.5 14.4 2 6.6 5.2 11.3 11.5 19.6 7 3.6-1.9 8.6-6.3 12.6-6.7 4.4-.5 8.6 1.7 12.8 3.2s9.3 2.3 12.7-.5c2.7-2.2 3.5-6.1 6.1-8.4 4.5-4.1 13.9-2.9 18.5.5 1.7 1.2 3.1 2.9 4.4 4.6.6.9 1.2 1.7 1.8 2.6.4.6.6 1.3 1.1 1.8.6.6 1.6.3 2.4.2 2-.4 4.2-.5 6.2-.1"/></svg>