<svg version="1.1" id="Layer_1" xmlns="http://www.w3.org/2000/svg" x="0" y="0" viewBox="0 0 453.5 476.1" xml:space="preserve"><style type="text/css">.st0,.st1{fill:#fff;stroke:#000;stroke-width:.5;stroke-miterlimit:10}.st1{fill:none}</style><path class="st0" d="M30.6 110.4h37.8v37.8H30.6zM116.3 110.4h37.8v37.8h-37.8z"/><path class="st1" d="M49.3 89.3h86"/><path d="M79.6 20.4h1.6c1.2 0 2.1.4 2.1 1.7 0 1.2-.8 1.8-2.1 1.8h-.9v2.3h-.7v-5.8zm1.5 3c1 0 1.4-.4 1.4-1.2 0-.9-.5-1.1-1.5-1.1h-.8v2.3h.9zM84.1 25.2c0-1 .8-1.4 2.5-1.6 0-.6-.2-1.1-.9-1.1-.5 0-.9.2-1.2.5l-.3-.5c.4-.3 1-.6 1.6-.6 1 0 1.4.7 1.4 1.8v2.7h-.6l-.1-.5c-.4.3-.9.6-1.4.6-.5-.1-1-.5-1-1.3zm2.5.1v-1.2c-1.4.2-1.8.5-1.8 1.1 0 .5.3.7.7.7.4-.1.7-.3 1.1-.6zM88.6 22h.6l.1.8c.3-.6.7-.9 1.2-.9.2 0 .3 0 .4.1l-.1.6c-.1 0-.2-.1-.4-.1-.3 0-.8.3-1 1v2.8h-.7V22zM91.2 24.2c0-1.4.9-2.3 1.9-2.3 1.1 0 1.6.8 1.6 2.1v.4h-2.8c.1.9.6 1.5 1.4 1.5.4 0 .7-.1 1-.3l.2.5c-.4.3-.8.5-1.4.5-1-.2-1.9-1-1.9-2.4zm2.9-.4c0-.9-.4-1.4-1-1.4s-1.1.5-1.2 1.4h2.2zM95.8 22h.6l.1.6c.4-.4.8-.7 1.4-.7.9 0 1.3.6 1.3 1.7v2.8h-.7v-2.7c0-.8-.2-1.2-.8-1.2-.4 0-.7.2-1.1.7v3.2h-.7V22zM100.5 25v-2.4h-.6V22h.6l.1-1.2h.6V22h1.1v.6h-1.1V25c0 .5.2.8.6.8.1 0 .3-.1.5-.1l.1.6c-.2.1-.5.2-.8.2-.8-.1-1.1-.6-1.1-1.5zM102.8 25.8l.3-.5c.4.3.7.5 1.2.5s.8-.3.8-.7c0-.5-.5-.6-.9-.8-.6-.2-1.2-.5-1.2-1.3 0-.7.5-1.2 1.4-1.2.5 0 1 .2 1.3.5l-.3.5c-.3-.2-.6-.4-.9-.4-.5 0-.8.3-.8.6 0 .4.4.6.9.8.6.2 1.3.5 1.3 1.3 0 .7-.5 1.3-1.5 1.3-.6 0-1.2-.2-1.6-.6zM311 27.4h-1.7v-.6h4.1v.6h-1.7v5.3h-.7v-5.3zM313.8 28.3h.7l.6 2.5c.1.4.2.8.2 1.2l.3-1.2.6-2.5h.7l.6 2.5.3 1.2.3-1.2.6-2.5h.7l-1.1 4.4h-.8l-.6-2.4c-.1-.4-.2-.8-.3-1.3-.1.4-.2.9-.3 1.3l-.6 2.3h-.8l-1.1-4.3zM320.3 26.9c0-.3.2-.5.5-.5s.5.2.5.5-.2.5-.5.5-.5-.2-.5-.5zm.1 1.4h.7v4.4h-.7v-4.4zM322.5 28.3h.6l.1.6c.4-.4.8-.7 1.4-.7.9 0 1.3.6 1.3 1.7v2.8h-.7V30c0-.8-.2-1.2-.8-1.2-.4 0-.7.2-1.1.7v3.2h-.7v-4.4zM326.7 32.2l.3-.5c.4.3.7.5 1.2.5s.8-.3.8-.7c0-.5-.5-.6-.9-.8-.6-.2-1.2-.5-1.2-1.3 0-.7.5-1.2 1.4-1.2.5 0 1 .2 1.3.5l-.3.5c-.3-.2-.6-.4-.9-.4-.5 0-.8.3-.8.6 0 .4.4.6.9.8.6.2 1.3.5 1.3 1.3 0 .7-.5 1.3-1.5 1.3-.7 0-1.3-.3-1.6-.6zM254.8 159h.7v5.9h-.7V159zM256.6 162.7c0-1.4.8-2.3 1.8-2.3.5 0 .8.2 1.2.5v-2.5h.7v6.4h-.6l-.1-.5c-.3.3-.8.6-1.3.6-1 .1-1.7-.7-1.7-2.2zm2.9 1.1v-2.3c-.4-.3-.7-.5-1-.5-.7 0-1.2.7-1.2 1.7s.4 1.7 1.1 1.7c.5 0 .8-.2 1.1-.6zM261.3 162.7c0-1.4.9-2.3 1.9-2.3 1.1 0 1.6.8 1.6 2.1v.4H262c0 .9.6 1.5 1.4 1.5.4 0 .7-.1 1-.3l.2.5c-.4.3-.8.5-1.4.5-1-.1-1.9-.9-1.9-2.4zm2.9-.3c0-.9-.4-1.4-1-1.4s-1.1.5-1.2 1.4h2.2zM265.8 160.5h.6l.1.6c.4-.4.8-.7 1.4-.7.9 0 1.3.6 1.3 1.7v2.8h-.7v-2.7c0-.8-.2-1.2-.8-1.2-.4 0-.7.2-1.1.7v3.2h-.7v-4.4zM270.6 163.6v-2.4h-.6v-.6h.6l.1-1.2h.6v1.2h1.1v.6h-1.1v2.4c0 .5.2.8.6.8.1 0 .3-.1.5-.1l.1.6c-.2.1-.5.2-.8.2-.8-.1-1.1-.7-1.1-1.5zM273.2 159.2c0-.3.2-.5.5-.5s.5.2.5.5-.2.5-.5.5-.5-.3-.5-.5zm.2 1.3h.7v4.4h-.7v-4.4zM275.1 162.7c0-1.5.9-2.3 2-2.3.5 0 .9.2 1.2.5l-.4.5c-.2-.2-.5-.4-.8-.4-.7 0-1.3.7-1.3 1.7s.5 1.7 1.3 1.7c.4 0 .7-.2 1-.4l.3.5c-.4.4-.8.6-1.3.6-1.1-.1-2-.9-2-2.4zM279.1 163.8c0-1 .8-1.4 2.5-1.6 0-.6-.2-1.1-.9-1.1-.5 0-.9.2-1.2.5l-.3-.5c.4-.3 1-.6 1.6-.6 1 0 1.4.7 1.4 1.8v2.7h-.6l-.1-.5c-.4.3-.9.6-1.4.6-.5-.1-1-.5-1-1.3zm2.5 0v-1.2c-1.4.2-1.8.5-1.8 1.1 0 .5.3.7.7.7.4 0 .7-.2 1.1-.6zM283.6 164v-5.5h.7v5.6c0 .2.1.3.2.3h.2l.1.6c-.1 0-.2.1-.4.1-.6-.1-.8-.4-.8-1.1zM199.8 255.2h3.2v.6h-2.5v2h2.1v.6h-2.1v2.6h-.7v-5.8zM203.8 255.3c0-.3.2-.5.5-.5s.5.2.5.5-.2.5-.5.5-.5-.2-.5-.5zm.1 1.4h.7v4.4h-.7v-4.4zM206 256.7h.6l.1.8c.3-.6.7-.9 1.2-.9.2 0 .3 0 .4.1l-.1.6c-.1 0-.2-.1-.4-.1-.3 0-.8.3-1 1v2.8h-.8v-4.3zM208.5 260.6l.3-.5c.4.3.7.5 1.2.5s.8-.3.8-.7c0-.5-.5-.6-.9-.8-.6-.2-1.2-.5-1.2-1.3 0-.7.5-1.2 1.4-1.2.5 0 1 .2 1.3.5l-.3.5c-.3-.2-.6-.4-.9-.4-.5 0-.8.3-.8.6 0 .4.4.6.9.8.6.2 1.3.5 1.3 1.3 0 .7-.5 1.3-1.5 1.3-.7 0-1.2-.3-1.6-.6zM212.6 259.7v-2.4h-.6v-.6h.6l.1-1.2h.6v1.2h1.1v.6h-1.1v2.4c0 .5.2.8.6.8.1 0 .3-.1.5-.1l.1.6c-.2.1-.5.2-.8.2-.8 0-1.1-.6-1.1-1.5zM216.8 258.1c0-1.9 1.1-3.1 2.6-3.1.8 0 1.3.4 1.6.7l-.4.5c-.3-.3-.6-.6-1.2-.6-1.1 0-1.8.9-1.8 2.4s.7 2.4 1.8 2.4c.4 0 .8-.1 1-.3v-1.5h-1.2v-.6h1.8v2.5c-.4.4-1 .7-1.7.7-1.5 0-2.5-1.1-2.5-3.1zM222 258.9c0-1.4.9-2.3 1.9-2.3 1.1 0 1.6.8 1.6 2.1v.4h-2.8c.1.9.6 1.5 1.4 1.5.4 0 .7-.1 1-.3l.2.5c-.4.3-.8.5-1.4.5-1-.1-1.9-1-1.9-2.4zm2.9-.4c0-.9-.4-1.4-1-1.4s-1.1.5-1.2 1.4h2.2zM226.5 256.7h.6l.1.6c.4-.4.8-.7 1.4-.7.9 0 1.3.6 1.3 1.7v2.8h-.7v-2.7c0-.8-.2-1.2-.8-1.2-.4 0-.7.2-1.1.7v3.2h-.7v-4.4zM230.8 258.9c0-1.4.9-2.3 1.9-2.3 1.1 0 1.6.8 1.6 2.1v.4h-2.8c.1.9.6 1.5 1.4 1.5.4 0 .7-.1 1-.3l.2.5c-.4.3-.8.5-1.4.5-1-.1-1.9-1-1.9-2.4zm2.9-.4c0-.9-.4-1.4-1-1.4s-1.1.5-1.2 1.4h2.2zM235.4 256.7h.6l.1.8c.3-.6.7-.9 1.2-.9.2 0 .3 0 .4.1l-.1.6c-.1 0-.2-.1-.4-.1-.3 0-.8.3-1 1v2.8h-.7v-4.3zM238 260c0-1 .8-1.4 2.5-1.6 0-.6-.2-1.1-.9-1.1-.5 0-.9.2-1.2.5l-.3-.5c.4-.3 1-.6 1.6-.6 1 0 1.4.7 1.4 1.8v2.7h-.6l-.1-.5c-.4.3-.9.6-1.4.6-.4-.1-1-.6-1-1.3zm2.6 0v-1.2c-1.4.2-1.8.5-1.8 1.1 0 .5.3.7.7.7.3 0 .7-.2 1.1-.6zM242.7 259.7v-2.4h-.6v-.6h.6l.1-1.2h.6v1.2h1.1v.6h-1.1v2.4c0 .5.2.8.6.8.1 0 .3-.1.5-.1l.1.6c-.2.1-.5.2-.8.2-.8 0-1.1-.6-1.1-1.5zM245.3 255.3c0-.3.2-.5.5-.5s.5.2.5.5-.2.5-.5.5-.5-.2-.5-.5zm.1 1.4h.7v4.4h-.7v-4.4zM247.2 258.9c0-1.5.9-2.3 1.9-2.3s1.9.8 1.9 2.3c0 1.4-.9 2.3-1.9 2.3s-1.9-.8-1.9-2.3zm3.1 0c0-1-.5-1.7-1.2-1.7s-1.2.7-1.2 1.7.5 1.7 1.2 1.7 1.2-.7 1.2-1.7zM252.1 256.7h.6l.1.6c.4-.4.8-.7 1.4-.7.9 0 1.3.6 1.3 1.7v2.8h-.7v-2.7c0-.8-.2-1.2-.8-1.2-.4 0-.7.2-1.1.7v3.2h-.7v-4.4zM193.9 332.7l.4-.5c.4.4 1 .7 1.5.7.7 0 1.2-.4 1.2-1s-.4-.8-.9-1l-.8-.4c-.5-.2-1.1-.7-1.1-1.5 0-.9.7-1.6 1.8-1.6.7 0 1.2.3 1.6.7l-.4.5c-.3-.3-.7-.6-1.3-.6-.6 0-1 .3-1 .9 0 .6.5.8.9 1l.8.4c.6.3 1.1.7 1.1 1.6 0 .9-.7 1.7-1.9 1.7-.7 0-1.4-.3-1.9-.9zM198.5 331.3c0-1.4.9-2.3 1.9-2.3 1.1 0 1.6.8 1.6 2.1v.4h-2.8c.1.9.6 1.5 1.4 1.5.4 0 .7-.1 1-.3l.2.5c-.4.3-.8.5-1.4.5-1.1-.1-1.9-1-1.9-2.4zm2.8-.4c0-.9-.4-1.4-1-1.4s-1.1.5-1.2 1.4h2.2zM202.7 331.3c0-1.5.9-2.3 2-2.3.5 0 .9.2 1.2.5l-.4.5c-.2-.2-.5-.4-.8-.4-.7 0-1.3.7-1.3 1.7s.5 1.7 1.3 1.7c.4 0 .7-.2 1-.4l.3.5c-.4.4-.8.6-1.3.6-1.2-.1-2-1-2-2.4zM206.5 331.3c0-1.5.9-2.3 1.9-2.3 1 0 1.9.8 1.9 2.3 0 1.4-.9 2.3-1.9 2.3-1 0-1.9-.9-1.9-2.3zm3.1 0c0-1-.5-1.7-1.2-1.7s-1.2.7-1.2 1.7.5 1.7 1.2 1.7c.8 0 1.2-.7 1.2-1.7zM211.5 329.1h.6l.1.6c.4-.4.8-.7 1.4-.7.9 0 1.3.6 1.3 1.7v2.8h-.7v-2.7c0-.8-.2-1.2-.8-1.2-.4 0-.7.2-1.1.7v3.2h-.7v-4.4zM215.8 331.3c0-1.4.8-2.3 1.8-2.3.5 0 .8.2 1.2.5V327h.7v6.4h-.6l-.1-.5c-.3.3-.8.6-1.3.6-1 .1-1.7-.7-1.7-2.2zm2.9 1.1v-2.3c-.4-.3-.7-.5-1-.5-.7 0-1.2.7-1.2 1.7s.4 1.7 1.1 1.7c.4 0 .8-.2 1.1-.6zM222.2 330.5c0-1.9 1.1-3.1 2.6-3.1.8 0 1.3.4 1.6.7l-.4.5c-.3-.3-.6-.6-1.2-.6-1.1 0-1.8.9-1.8 2.4s.7 2.4 1.8 2.4c.4 0 .8-.1 1-.3V331h-1.2v-.6h1.8v2.5c-.4.4-1 .7-1.7.7-1.4 0-2.5-1.1-2.5-3.1zM227.4 331.3c0-1.4.9-2.3 1.9-2.3 1.1 0 1.6.8 1.6 2.1v.4h-2.8c.1.9.6 1.5 1.4 1.5.4 0 .7-.1 1-.3l.2.5c-.4.3-.8.5-1.4.5-1-.1-1.9-1-1.9-2.4zm2.9-.4c0-.9-.4-1.4-1-1.4s-1.1.5-1.2 1.4h2.2zM232 329.1h.6l.1.6c.4-.4.8-.7 1.4-.7.9 0 1.3.6 1.3 1.7v2.8h-.7v-2.7c0-.8-.2-1.2-.8-1.2-.4 0-.7.2-1.1.7v3.2h-.8v-4.4zM236.3 331.3c0-1.4.9-2.3 1.9-2.3 1.1 0 1.6.8 1.6 2.1v.4H237c0 .9.6 1.5 1.4 1.5.4 0 .7-.1 1-.3l.2.5c-.4.3-.8.5-1.4.5-1-.1-1.9-1-1.9-2.4zm2.9-.4c0-.9-.4-1.4-1-1.4s-1.1.5-1.2 1.4h2.2zM240.8 329.1h.6l.1.8c.3-.6.7-.9 1.2-.9.2 0 .3 0 .4.1l-.1.6c-.1 0-.2-.1-.4-.1-.3 0-.8.3-1 1v2.8h-.7v-4.3zM243.5 332.3c0-1 .8-1.4 2.5-1.6 0-.6-.2-1.1-.9-1.1-.5 0-.9.2-1.2.5l-.3-.5c.4-.3 1-.6 1.6-.6 1 0 1.4.7 1.4 1.8v2.7h-.6l-.1-.5c-.4.3-.9.6-1.4.6-.5 0-1-.5-1-1.3zm2.5.1v-1.2c-1.4.2-1.8.5-1.8 1.1 0 .5.3.7.7.7.4 0 .7-.2 1.1-.6zM248.2 332.1v-2.4h-.6v-.6h.6l.1-1.2h.6v1.2h1.1v.6h-1.1v2.4c0 .5.2.8.6.8.1 0 .3-.1.5-.1l.1.6c-.2.1-.5.2-.8.2-.8 0-1.1-.6-1.1-1.5zM250.8 327.7c0-.3.2-.5.5-.5s.5.2.5.5-.2.5-.5.5-.5-.2-.5-.5zm.1 1.4h.7v4.4h-.7v-4.4zM252.7 331.3c0-1.5.9-2.3 1.9-2.3 1 0 1.9.8 1.9 2.3 0 1.4-.9 2.3-1.9 2.3-1 0-1.9-.9-1.9-2.3zm3.1 0c0-1-.5-1.7-1.2-1.7s-1.2.7-1.2 1.7.5 1.7 1.2 1.7 1.2-.7 1.2-1.7zM257.6 329.1h.6l.1.6c.4-.4.8-.7 1.4-.7.9 0 1.3.6 1.3 1.7v2.8h-.7v-2.7c0-.8-.2-1.2-.8-1.2-.4 0-.7.2-1.1.7v3.2h-.7v-4.4zM344.2 426.2h-1.7v-.6h4.1v.6h-1.7v5.3h-.7v-5.3zM347.5 425.1h.7v2.7c.4-.4.8-.7 1.4-.7.9 0 1.3.6 1.3 1.7v2.8h-.7v-2.7c0-.8-.2-1.2-.8-1.2-.4 0-.7.2-1.1.7v3.2h-.7v-6.5zM352 425.7c0-.3.2-.5.5-.5s.5.2.5.5-.2.5-.5.5-.5-.2-.5-.5zm.2 1.4h.7v4.4h-.7v-4.4zM354.2 427.1h.6l.1.8c.3-.6.7-.9 1.2-.9.2 0 .3 0 .4.1l-.1.6c-.1 0-.2-.1-.4-.1-.3 0-.8.3-1 1v2.8h-.7v-4.3zM356.9 429.3c0-1.4.8-2.3 1.8-2.3.5 0 .8.2 1.2.5V425h.7v6.4h-.6l-.1-.5c-.3.3-.8.6-1.3.6-1 .1-1.7-.7-1.7-2.2zm2.9 1.1v-2.3c-.4-.3-.7-.5-1-.5-.7 0-1.2.7-1.2 1.7s.4 1.7 1.1 1.7c.4 0 .8-.2 1.1-.6zM363.3 428.6c0-1.9 1.1-3.1 2.6-3.1.8 0 1.3.4 1.6.7l-.4.5c-.3-.3-.6-.6-1.2-.6-1.1 0-1.8.9-1.8 2.4s.7 2.4 1.8 2.4c.4 0 .8-.1 1-.3v-1.5h-1.2v-.6h1.8v2.5c-.4.4-1 .7-1.7.7-1.4-.1-2.5-1.2-2.5-3.1zM368.5 429.3c0-1.4.9-2.3 1.9-2.3 1.1 0 1.6.8 1.6 2.1v.4h-2.8c0 .9.6 1.5 1.4 1.5.4 0 .7-.1 1-.3l.2.5c-.4.3-.8.5-1.4.5-1-.1-1.9-.9-1.9-2.4zm2.9-.3c0-.9-.4-1.4-1-1.4s-1.1.5-1.2 1.4h2.2zM373 427.1h.6l.1.6c.4-.4.8-.7 1.4-.7.9 0 1.3.6 1.3 1.7v2.8h-.7v-2.7c0-.8-.2-1.2-.8-1.2-.4 0-.7.2-1.1.7v3.2h-.8v-4.4zM377.4 429.3c0-1.4.9-2.3 1.9-2.3 1.1 0 1.6.8 1.6 2.1v.4h-2.8c.1.9.6 1.5 1.4 1.5.4 0 .7-.1 1-.3l.2.5c-.4.3-.8.5-1.4.5-1-.1-1.9-.9-1.9-2.4zm2.9-.3c0-.9-.4-1.4-1-1.4s-1.1.5-1.2 1.4h2.2zM381.9 427.1h.6l.1.8c.3-.6.7-.9 1.2-.9.2 0 .3 0 .4.1l-.1.6c-.1 0-.2-.1-.4-.1-.3 0-.8.3-1 1v2.8h-.7v-4.3zM384.6 430.4c0-1 .8-1.4 2.5-1.6 0-.6-.2-1.1-.9-1.1-.5 0-.9.2-1.2.5l-.3-.5c.4-.3 1-.6 1.6-.6 1 0 1.4.7 1.4 1.8v2.7h-.6l-.1-.5c-.4.3-.9.6-1.4.6-.5-.1-1-.5-1-1.3zm2.5 0v-1.2c-1.4.2-1.8.5-1.8 1.1 0 .5.3.7.7.7.4 0 .7-.2 1.1-.6zM389.2 430.1v-2.4h-.6v-.6h.6l.1-1.2h.6v1.2h1.1v.6h-1.1v2.4c0 .5.2.8.6.8.1 0 .3-.1.5-.1l.1.6c-.2.1-.5.2-.8.2-.8 0-1.1-.6-1.1-1.5zM391.9 425.7c0-.3.2-.5.5-.5s.5.2.5.5-.2.5-.5.5-.5-.2-.5-.5zm.1 1.4h.7v4.4h-.7v-4.4zM393.8 429.3c0-1.5.9-2.3 1.9-2.3 1 0 1.9.8 1.9 2.3 0 1.4-.9 2.3-1.9 2.3-1 0-1.9-.8-1.9-2.3zm3.1 0c0-1-.5-1.7-1.2-1.7s-1.2.7-1.2 1.7.5 1.7 1.2 1.7 1.2-.7 1.2-1.7zM398.7 427.1h.6l.1.6c.4-.4.8-.7 1.4-.7.9 0 1.3.6 1.3 1.7v2.8h-.7v-2.7c0-.8-.2-1.2-.8-1.2-.4 0-.7.2-1.1.7v3.2h-.7v-4.4z"/><g><path d="M357 159h3.2v.6h-2.5v2h2.1v.6h-2.1v2.6h-.7V159zM361.1 160.5h.6l.1.8c.3-.6.7-.9 1.2-.9.2 0 .3 0 .4.1l-.1.6c-.1 0-.2-.1-.4-.1-.3 0-.8.3-1 1v2.8h-.7v-4.3zM363.8 163.8c0-1 .8-1.4 2.5-1.6 0-.6-.2-1.1-.9-1.1-.5 0-.9.2-1.2.5l-.2-.6c.4-.3 1-.6 1.6-.6 1 0 1.4.7 1.4 1.8v2.7h-.6l-.1-.5c-.4.3-.9.6-1.4.6-.6 0-1.1-.4-1.1-1.2zm2.5 0v-1.2c-1.4.2-1.8.5-1.8 1.1 0 .5.3.7.7.7.4 0 .7-.2 1.1-.6zM368.4 163.6v-2.4h-.6v-.6h.6l.1-1.2h.6v1.2h1.1v.6h-1.1v2.4c0 .5.2.8.6.8.1 0 .3-.1.5-.1l.1.6c-.2.1-.5.2-.8.2-.8-.1-1.1-.7-1.1-1.5zM370.9 162.7c0-1.4.9-2.3 1.9-2.3 1.1 0 1.6.8 1.6 2.1v.4h-2.8c.1.9.6 1.5 1.4 1.5.4 0 .7-.1 1-.3l.2.5c-.4.3-.8.5-1.4.5-1.1-.1-1.9-.9-1.9-2.4zm2.9-.3c0-.9-.4-1.4-1-1.4s-1.1.5-1.2 1.4h2.2zM375.4 160.5h.6l.1.8c.3-.6.7-.9 1.2-.9.2 0 .3 0 .4.1l-.1.6c-.1 0-.2-.1-.4-.1-.3 0-.8.3-1 1v2.8h-.7v-4.3zM378.3 160.5h.6l.1.6c.4-.4.8-.7 1.4-.7.9 0 1.3.6 1.3 1.7v2.8h-.7v-2.7c0-.8-.2-1.2-.8-1.2-.4 0-.7.2-1.1.7v3.2h-.7v-4.4zM382.7 163.8c0-1 .8-1.4 2.5-1.6 0-.6-.2-1.1-.9-1.1-.5 0-.9.2-1.2.5l-.3-.5c.4-.3 1-.6 1.6-.6 1 0 1.4.7 1.4 1.8v2.7h-.6l-.1-.5c-.4.3-.9.6-1.4.6-.5-.1-1-.5-1-1.3zm2.6 0v-1.2c-1.4.2-1.8.5-1.8 1.1 0 .5.3.7.7.7.3 0 .7-.2 1.1-.6zM387.3 164v-5.5h.7v5.6c0 .2.1.3.2.3h.2l.1.6c-.1 0-.2.1-.4.1-.6-.1-.8-.4-.8-1.1z"/></g><g><path d="M44.6 164.3h1.2v-4.2h-1v-.5c.5-.1.9-.2 1.2-.4h.5v5.1h1.1v.6h-3.1v-.6zM48.6 162.3c0-2.3 1-3.2 2.1-3.2.6 0 1 .3 1.3.6l-.4.5c-.2-.3-.6-.5-.9-.5-.8 0-1.4.7-1.4 2.6 0 1.4.4 2.2 1.2 2.2.5 0 .9-.5.9-1.3 0-.7-.3-1.2-1-1.2-.4 0-.8.2-1.2.8v-.6c.3-.5.8-.8 1.3-.8.9 0 1.5.6 1.5 1.8 0 1.1-.7 1.8-1.6 1.8-1 0-1.8-.9-1.8-2.7z"/></g><g><path d="M89.7 164.3H91v-4.2h-1v-.5c.5-.1.9-.2 1.2-.4h.5v5.1h1.1v.6h-3.1v-.6zM93.6 164.5c1.6-1.7 2.5-2.8 2.5-3.7 0-.7-.3-1.1-1-1.1-.5 0-.8.3-1.2.7l-.4-.4c.5-.5.9-.9 1.6-.9 1 0 1.6.7 1.6 1.7 0 1.1-.9 2.1-2.2 3.6H97v.6h-3.5v-.5z"/></g><g><path d="M123.7 162.3c0-2.3 1-3.2 2.1-3.2.6 0 1 .3 1.3.6l-.4.5c-.2-.3-.6-.5-.9-.5-.8 0-1.4.7-1.4 2.6 0 1.4.4 2.2 1.2 2.2.5 0 .9-.5.9-1.3 0-.7-.3-1.2-1-1.2-.4 0-.8.2-1.2.8v-.6c.3-.5.8-.8 1.3-.8.9 0 1.5.6 1.5 1.8 0 1.1-.7 1.8-1.6 1.8-1 0-1.8-.9-1.8-2.7zM129.4 166.7l.1-.6c.1 0 .2.1.3.1.5 0 .8-.4.9-.9l.1-.3-1.7-4.4h.7l.8 2.4c.1.4.3.8.4 1.2l.3-1.2.7-2.4h.7l-1.6 4.7c-.3.9-.7 1.5-1.5 1.5.1 0 0 0-.2-.1zM133.5 162.7c0-1.4.9-2.3 1.9-2.3 1.1 0 1.6.8 1.6 2.1v.4h-2.8c.1.9.6 1.5 1.4 1.5.4 0 .7-.1 1-.3l.2.5c-.4.3-.8.5-1.4.5-1-.1-1.9-.9-1.9-2.4zm2.9-.3c0-.9-.4-1.4-1-1.4s-1.1.5-1.2 1.4h2.2zM137.8 163.8c0-1 .8-1.4 2.5-1.6 0-.6-.2-1.1-.9-1.1-.5 0-.9.2-1.2.5l-.2-.6c.4-.3 1-.6 1.6-.6 1 0 1.4.7 1.4 1.8v2.7h-.6l-.1-.5c-.4.3-.9.6-1.4.6-.6 0-1.1-.4-1.1-1.2zm2.5 0v-1.2c-1.4.2-1.8.5-1.8 1.1 0 .5.3.7.7.7.4 0 .7-.2 1.1-.6zM142.3 160.5h.6l.1.8c.3-.6.7-.9 1.2-.9.2 0 .3 0 .4.1l-.1.6c-.1 0-.2-.1-.4-.1-.3 0-.8.3-1 1v2.8h-.7v-4.3zM144.8 164.4l.3-.5c.4.3.7.5 1.2.5s.8-.3.8-.7c0-.5-.5-.6-.9-.8-.6-.2-1.2-.5-1.2-1.3 0-.7.5-1.2 1.4-1.2.5 0 1 .2 1.3.5l-.3.5c-.3-.2-.6-.4-.9-.4-.5 0-.8.3-.8.6 0 .4.4.6.9.8.6.2 1.3.5 1.3 1.3 0 .7-.5 1.3-1.5 1.3-.6 0-1.2-.2-1.6-.6z"/></g><g><path d="M54.1 181.4c0-1.9 1.1-3.1 2.5-3.1.7 0 1.2.3 1.5.7l-.4.5c-.3-.3-.7-.6-1.1-.6-1.1 0-1.8.9-1.8 2.4s.7 2.4 1.7 2.4c.5 0 .9-.2 1.3-.7l.4.5c-.4.5-1 .9-1.7.9-1.4 0-2.4-1.1-2.4-3zM59.2 177.9h.7v2.7c.4-.4.8-.7 1.4-.7.9 0 1.3.6 1.3 1.7v2.8h-.7v-2.7c0-.8-.2-1.2-.8-1.2-.4 0-.7.2-1.1.7v3.2h-.7v-6.5zM63.7 178.5c0-.3.2-.5.5-.5s.5.2.5.5-.2.5-.5.5-.5-.2-.5-.5zm.1 1.4h.7v4.4h-.7v-4.4zM65.9 183.4v-5.5h.7v5.6c0 .2.1.3.2.3h.2l.1.6c-.1 0-.2.1-.4.1-.6-.1-.8-.4-.8-1.1zM67.8 182.1c0-1.4.8-2.3 1.8-2.3.5 0 .8.2 1.2.5v-2.5h.7v6.4h-.6l-.1-.5c-.3.3-.8.6-1.3.6-1.1.1-1.7-.7-1.7-2.2zm2.9 1.1v-2.3c-.4-.3-.7-.5-1-.5-.7 0-1.2.7-1.2 1.7s.4 1.7 1.1 1.7c.4 0 .7-.2 1.1-.6zM72.8 179.9h.6l.1.8c.3-.6.7-.9 1.2-.9.2 0 .3 0 .4.1l-.1.6c-.1 0-.2-.1-.4-.1-.3 0-.8.3-1 1v2.8h-.7v-4.3zM75.4 182.1c0-1.4.9-2.3 1.9-2.3 1.1 0 1.6.8 1.6 2.1v.4h-2.8c.1.9.6 1.5 1.4 1.5.4 0 .7-.1 1-.3l.2.5c-.4.3-.8.5-1.4.5-1-.1-1.9-.9-1.9-2.4zm2.9-.3c0-.9-.4-1.4-1-1.4s-1.1.5-1.2 1.4h2.2zM79.9 179.9h.6l.1.6c.4-.4.8-.7 1.4-.7.9 0 1.3.6 1.3 1.7v2.8h-.7v-2.7c0-.8-.2-1.2-.8-1.2-.4 0-.7.2-1.1.7v3.2H80v-4.4zM85.9 181.8h1.9v.6h-1.9v-.6zM90.2 183.8l.3-.5c.4.3.7.5 1.2.5s.8-.3.8-.7c0-.5-.5-.6-.9-.8-.6-.2-1.2-.5-1.2-1.3 0-.7.5-1.2 1.4-1.2.5 0 1 .2 1.3.5l-.3.5c-.3-.2-.6-.4-.9-.4-.5 0-.8.3-.8.6 0 .4.4.6.9.8.6.2 1.3.5 1.3 1.3 0 .7-.5 1.3-1.5 1.3-.7 0-1.3-.3-1.6-.6zM94.3 182.9v-2.4h-.6v-.5h.6l.1-1.2h.6v1.2h1.1v.6H95v2.4c0 .5.2.8.6.8.1 0 .3-.1.5-.1l.1.6c-.2.1-.5.2-.8.2-.8-.1-1.1-.7-1.1-1.6zM96.8 183.2c0-1 .8-1.4 2.5-1.6 0-.6-.2-1.1-.9-1.1-.5 0-.9.2-1.2.5l-.3-.5c.4-.3 1-.6 1.6-.6 1 0 1.4.7 1.4 1.8v2.7h-.6l-.1-.5c-.4.3-.9.6-1.4.6-.5-.1-1-.5-1-1.3zm2.5 0V182c-1.4.2-1.8.5-1.8 1.1 0 .5.3.7.7.7.4 0 .7-.2 1.1-.6zM101.3 179.9h.6l.1.8c.3-.6.7-.9 1.2-.9.2 0 .3 0 .4.1l-.1.6c-.1 0-.2-.1-.4-.1-.3 0-.8.3-1 1v2.8h-.7v-4.3zM104.4 182.9v-2.4h-.6v-.5h.6l.1-1.2h.6v1.2h1.1v.6h-1.1v2.4c0 .5.2.8.6.8.1 0 .3-.1.5-.1l.1.6c-.2.1-.5.2-.8.2-.8-.1-1.1-.7-1.1-1.6zM108.3 179.9h.7l.6 2.5c.1.4.2.8.2 1.2l.3-1.2.6-2.5h.7l.6 2.5.3 1.2.3-1.2.6-2.5h.7l-1.1 4.4h-.9l-.6-2.4c-.1-.4-.2-.8-.3-1.3-.1.4-.2.9-.3 1.3l-.6 2.3h-.8l-1-4.3zM114.8 178.5c0-.3.2-.5.5-.5s.5.2.5.5-.2.5-.5.5-.5-.2-.5-.5zm.1 1.4h.7v4.4h-.7v-4.4zM117.1 182.9v-2.4h-.6v-.5h.6l.1-1.2h.6v1.2h1.1v.6h-1.1v2.4c0 .5.2.8.6.8.1 0 .3-.1.5-.1l.1.6c-.2.1-.5.2-.8.2-.8-.1-1.1-.7-1.1-1.6zM119.9 177.9h.7v2.7c.4-.4.8-.7 1.4-.7.9 0 1.3.6 1.3 1.7v2.8h-.7v-2.7c0-.8-.2-1.2-.8-1.2-.4 0-.7.2-1.1.7v3.2h-.7v-6.5zM54.5 193.7v-2.4h-.6v-.6h.6l.1-1.2h.6v1.2h1.1v.6h-1.1v2.4c0 .5.2.8.6.8.1 0 .3-.1.5-.1l.1.6c-.2.1-.5.2-.8.2-.8 0-1.1-.6-1.1-1.5zM57.2 188.7h.7v2.7c.4-.4.8-.7 1.4-.7.9 0 1.3.6 1.3 1.7v2.8h-.7v-2.7c0-.8-.2-1.2-.8-1.2-.4 0-.7.2-1.1.7v3.2h-.7v-6.5zM61.5 192.9c0-1.4.9-2.3 1.9-2.3 1.1 0 1.6.8 1.6 2.1v.4h-2.8c.1.9.6 1.5 1.4 1.5.4 0 .7-.1 1-.3l.2.5c-.4.3-.8.5-1.4.5-1-.1-1.9-.9-1.9-2.4zm2.9-.3c0-.9-.4-1.4-1-1.4s-1.1.5-1.2 1.4h2.2zM67.4 192.9c0-1.5.9-2.3 1.9-2.3 1 0 1.9.8 1.9 2.3 0 1.4-.9 2.3-1.9 2.3-1 0-1.9-.8-1.9-2.3zm3.1 0c0-1-.5-1.7-1.2-1.7s-1.2.7-1.2 1.7.5 1.7 1.2 1.7c.8 0 1.2-.7 1.2-1.7zM72.3 194.2v-5.5h.7v5.6c0 .2.1.3.2.3h.2l.1.6c-.1 0-.2.1-.4.1-.5-.1-.8-.4-.8-1.1zM74.2 192.9c0-1.4.8-2.3 1.8-2.3.5 0 .8.2 1.2.5v-2.5h.7v6.4h-.6l-.1-.5c-.3.3-.8.6-1.3.6-1 .1-1.7-.7-1.7-2.2zm2.9 1.1v-2.3c-.4-.3-.7-.5-1-.5-.7 0-1.2.7-1.2 1.7s.4 1.7 1.1 1.7c.4 0 .8-.2 1.1-.6zM78.9 192.9c0-1.4.9-2.3 1.9-2.3 1.1 0 1.6.8 1.6 2.1v.4h-2.8c.1.9.6 1.5 1.4 1.5.4 0 .7-.1 1-.3l.2.5c-.4.3-.8.5-1.4.5-1-.1-1.9-.9-1.9-2.4zm2.9-.3c0-.9-.4-1.4-1-1.4s-1.1.5-1.2 1.4h2.2zM83 194.6l.3-.5c.4.3.7.5 1.2.5s.8-.3.8-.7c0-.5-.5-.6-.9-.8-.6-.2-1.2-.5-1.2-1.3 0-.7.5-1.2 1.4-1.2.5 0 1 .2 1.3.5l-.3.5c-.3-.2-.6-.4-.9-.4-.5 0-.8.3-.8.6 0 .4.4.6.9.8.6.2 1.3.5 1.3 1.3 0 .7-.5 1.3-1.5 1.3-.7 0-1.2-.3-1.6-.6zM87.1 193.7v-2.4h-.6v-.6h.6l.1-1.2h.6v1.2h1.1v.6h-1.1v2.4c0 .5.2.8.6.8.1 0 .3-.1.5-.1l.1.6c-.2.1-.5.2-.8.2-.8 0-1.1-.6-1.1-1.5zM91.2 192.9c0-1.5.9-2.3 2-2.3.5 0 .9.2 1.2.5l-.4.5c-.2-.2-.5-.4-.8-.4-.7 0-1.3.7-1.3 1.7s.5 1.7 1.3 1.7c.4 0 .7-.2 1-.4l.3.5c-.4.4-.8.6-1.3.6-1.1-.1-2-.9-2-2.4zM95.4 188.7h.7v2.7c.4-.4.8-.7 1.4-.7.9 0 1.3.6 1.3 1.7v2.8H98v-2.7c0-.8-.2-1.2-.8-1.2-.4 0-.7.2-1.1.7v3.2h-.7v-6.5zM99.9 189.3c0-.3.2-.5.5-.5s.5.2.5.5-.2.5-.5.5-.5-.2-.5-.5zm.1 1.4h.7v4.4h-.7v-4.4zM102.1 194.2v-5.5h.7v5.6c0 .2.1.3.2.3h.2l.1.6c-.1 0-.2.1-.4.1-.6-.1-.8-.4-.8-1.1zM104 192.9c0-1.4.8-2.3 1.8-2.3.5 0 .8.2 1.2.5v-2.5h.7v6.4h-.7l-.1-.5c-.3.3-.8.6-1.3.6-.9.1-1.6-.7-1.6-2.2zm2.9 1.1v-2.3c-.4-.3-.7-.5-1-.5-.7 0-1.2.7-1.2 1.7s.4 1.7 1.1 1.7c.4 0 .8-.2 1.1-.6z"/></g><circle class="st0" cx="92.4" cy="129.3" r="18.8"/><path class="st0" d="M30.4 32.2h37.8V70H30.4z"/><circle class="st0" cx="135.3" cy="51.1" r="18.8"/><path class="st1" d="M68.2 51.1h48.3"/><path class="st0" d="M206.5 32.2h37.8V70h-37.8zM325 103.9h37.8v37.8H325zM382.7 103.9h37.8v37.8h-37.8z"/><circle class="st0" cx="401.5" cy="51.1" r="18.8"/><circle class="st0" cx="238.3" cy="123.3" r="18.8"/><circle class="st0" cx="300.7" cy="123.3" r="18.8"/><path class="st1" d="M244.3 51.1h138.4M257.1 123.3h24.8M92.6 50.7l-.2 59.8M267.8 51.6l-29.5 52.9M267.2 51.6l29.4 52.9"/><g><circle class="st0" cx="119.2" cy="432.6" r="18.8"/><circle class="st0" cx="181.6" cy="432.6" r="18.8"/><path class="st1" d="M138 432.6h24.8M148.6 373.8L119.2 414M148 373.8l29.5 40.2"/></g><path class="st1" d="M362.2 122.8h20.5M372.9 51.1l-29.5 53M372.3 51.1l29.4 53M49.3 89.3l-.2 21.2M135.4 89.3l-.1 21.2M51.2 294.6h86.1M137.5 374l177.8-.2"/><path class="st0" d="M32.3 313.6h37.8v37.8H32.3z"/><circle class="st0" cx="94.2" cy="332.5" r="18.8"/><path class="st0" d="M32.1 235.8h37.8v37.8H32.1z"/><circle class="st0" cx="136.8" cy="254.7" r="18.8"/><path class="st1" d="M51.1 273.6v40M137.3 273.6v100.2M93.7 294.6v19"/><g><circle class="st0" cx="137" cy="332.5" r="18.8"/><path class="st1" d="M124.9 318.3l24.9 28.5M149.8 318.3l-24.9 28.5"/></g><path class="st1" d="M315.4 294.6h86"/><path class="st0" d="M296.5 313.6h37.8v37.8h-37.8z"/><circle class="st0" cx="358.4" cy="332.5" r="18.8"/><path class="st0" d="M296.3 235.8h37.8v37.8h-37.8z"/><circle class="st0" cx="400.9" cy="254.7" r="18.8"/><path class="st1" d="M315.3 273.6v100.2"/><g><path class="st0" d="M221.9 413.8h37.8v37.8h-37.8z"/><path class="st1" d="M240.8 373.8v40"/></g><path class="st1" d="M401.5 273.6l-.3 77.7M357.9 294.6v19"/><g><circle class="st0" cx="300.2" cy="432.8" r="18.8"/><path class="st1" d="M299.7 374v40"/></g><g><circle class="st0" cx="401.2" cy="332.5" r="18.8"/></g></svg>