<svg version="1.1" id="Layer_1" xmlns="http://www.w3.org/2000/svg" x="0" y="0" viewBox="0 0 453.5 399.9" xml:space="preserve"><style type="text/css">.st0,.st1,.st2{fill:none;stroke:#000;stroke-miterlimit:10}.st1,.st2{stroke-dasharray:6.0936,6.0936}.st2{stroke-dasharray:5.9735,5.9735}.st3{fill:#fff}.st4{fill:#58595b}.st5{fill:#d1d3d4;stroke:#000;stroke-miterlimit:10}.st6{fill:#77787b}</style><path class="st0" d="M203.5 355.3v3h-3"/><path class="st1" d="M194.4 358.3H75.5"/><path class="st0" d="M72.5 358.3h-3v-3"/><path class="st2" d="M69.5 349.3V197"/><path class="st0" d="M69.5 194v-3h3"/><path class="st1" d="M78.6 191h118.8"/><path class="st0" d="M200.5 191h3v3"/><path class="st2" d="M203.5 199.9v152.4"/><path class="st3" d="M189.8 201.2h23.4v128.3h-23.4z"/><ellipse class="st4" cx="84.8" cy="111.9" rx="58.2" ry="38.8"/><ellipse class="st4" cx="231.3" cy="49" rx="58.2" ry="38.8"/><ellipse class="st4" cx="377.9" cy="111.9" rx="58.2" ry="38.8"/><path class="st3" d="M33.1 104.3c0-2.3 1.2-3.7 2.9-3.7s2.9 1.4 2.9 3.7c0 2.3-1.2 3.7-2.9 3.7s-2.9-1.3-2.9-3.7zm4.3 0c0-1.4-.5-2.3-1.4-2.3s-1.4.8-1.4 2.3.5 2.3 1.4 2.3 1.4-.8 1.4-2.3zM41.2 102.1h-1.7v-1.4h4.9v1.4h-1.7v5.8h-1.4v-5.8zM45.4 100.8h1.4v2.8H49v-2.8h1.4v7.2H49v-3h-2.2v3h-1.4v-7.2zM51.9 100.8h3.9v1.4h-2.5v1.4h2.1v1.4h-2.1v1.7h2.6v1.4h-4v-7.3zM57.2 100.8h2.3c1.3 0 2.4.5 2.4 2.2 0 1.6-1.1 2.4-2.4 2.4h-.8v2.6h-1.4v-7.2zm2.1 3.3c.7 0 1.2-.4 1.2-1.1 0-.7-.4-.9-1.2-.9h-.7v2h.7zm-.1.8l1-1 2 4h-1.6l-1.4-3zM65 100.8h2.2c1.4 0 2.5.6 2.5 2.3 0 1.7-1.1 2.4-2.5 2.4h-.8v2.4H65v-7.1zm2.2 3.4c.8 0 1.2-.4 1.2-1.1 0-.8-.4-1-1.2-1h-.7v2.2h.7zM70.8 100.8h2.3c1.3 0 2.4.5 2.4 2.2 0 1.6-1.1 2.4-2.4 2.4h-.8v2.6h-1.4v-7.2zm2.2 3.3c.7 0 1.2-.4 1.2-1.1 0-.7-.4-.9-1.2-.9h-.7v2h.7zm-.2.8l1-1 2 4h-1.6l-1.4-3zM76.4 104.3c0-2.3 1.2-3.7 2.9-3.7s2.9 1.4 2.9 3.7c0 2.3-1.2 3.7-2.9 3.7s-2.9-1.3-2.9-3.7zm4.3 0c0-1.4-.5-2.3-1.4-2.3s-1.4.8-1.4 2.3.5 2.3 1.4 2.3 1.4-.8 1.4-2.3zM83.3 100.8h4v1.4h-2.5v1.7H87v1.4h-2.2v2.8h-1.4v-7.3zM88.4 100.8h3.9v1.4h-2.5v1.4H92v1.4h-2.1v1.7h2.6v1.4h-4v-7.3zM93.3 107l.8-1.1c.4.4 1 .7 1.5.7.6 0 .9-.3.9-.7 0-.5-.4-.6-.9-.9l-.8-.4c-.7-.3-1.3-.9-1.3-2 0-1.2.9-2.1 2.2-2.1.7 0 1.5.3 2 .9l-.7 1c-.4-.4-.8-.6-1.3-.6s-.8.2-.8.6c0 .4.4.6 1 .8l.8.4c.8.4 1.2.9 1.2 2 0 1.2-.9 2.2-2.4 2.2-.7.3-1.6-.1-2.2-.8zM98.7 107l.8-1.1c.4.4 1 .7 1.5.7.6 0 .9-.3.9-.7 0-.5-.4-.6-.9-.9l-.8-.4c-.7-.3-1.3-.9-1.3-2 0-1.2.9-2.1 2.2-2.1.7 0 1.5.3 2 .9l-.7 1c-.4-.4-.8-.6-1.3-.6s-.8.2-.8.6c0 .4.4.6 1 .8l.8.4c.8.4 1.2.9 1.2 2 0 1.2-.9 2.2-2.4 2.2-.7.3-1.6-.1-2.2-.8zM104.5 100.8h1.4v7.2h-1.4v-7.2zM107.1 104.3c0-2.3 1.2-3.7 2.9-3.7s2.9 1.4 2.9 3.7c0 2.3-1.2 3.7-2.9 3.7s-2.9-1.3-2.9-3.7zm4.2 0c0-1.4-.5-2.3-1.4-2.3s-1.4.8-1.4 2.3.5 2.3 1.4 2.3 1.4-.8 1.4-2.3zM114 100.8h1.5l1.6 3.6.6 1.6c-.1-.8-.2-1.8-.2-2.6v-2.5h1.4v7.2h-1.5l-1.6-3.6-.6-1.6c.1.8.2 1.8.2 2.6v2.5H114v-7.2zM121.6 100.8h1.7l2 7.2h-1.5l-.8-3.6c-.2-.7-.3-1.6-.5-2.3-.2.8-.3 1.6-.5 2.3l-.8 3.6h-1.5l1.9-7.2zm-.7 4.2h3v1.3h-3V105zM125.9 100.8h1.4v5.8h2.5v1.4h-3.9v-7.2zM130.5 107l.8-1.1c.4.4 1 .7 1.5.7.6 0 .9-.3.9-.7 0-.5-.4-.6-.9-.9l-.8-.4c-.7-.3-1.3-.9-1.3-2 0-1.2.9-2.1 2.2-2.1.7 0 1.5.3 2 .9l-.7 1c-.4-.4-.8-.6-1.3-.6s-.8.2-.8.6c0 .4.4.6 1 .8l.8.4c.8.4 1.2.9 1.2 2 0 1.2-.9 2.2-2.4 2.2-.6.3-1.5-.1-2.2-.8zM59.2 114h1.4v5.8h2.5v1.4h-3.9V114zM65.4 114h1.7l2 7.2h-1.5l-.8-3.6c-.2-.7-.3-1.6-.5-2.3-.2.8-.3 1.6-.5 2.3l-.8 3.6h-1.5l1.9-7.2zm-.7 4.2h3v1.3h-3v-1.3zM70.9 118.6L69 114h1.5l.6 1.6c.2.5.3 1 .5 1.6.2-.6.4-1.1.5-1.6l.6-1.6h1.5l-1.9 4.6v2.6h-1.4v-2.6zM76.5 117.6c0-2.4 1.4-3.8 3-3.8.8 0 1.5.4 1.9.9l-.8 1c-.3-.3-.7-.6-1.1-.6-.9 0-1.5.9-1.5 2.3 0 1.5.6 2.3 1.5 2.3.5 0 .9-.3 1.2-.7l.8 1c-.5.7-1.2 1.1-2 1.1-1.7.2-3-1.1-3-3.5zM83.6 114h1.7l2 7.2h-1.5l-.8-3.6c-.2-.7-.3-1.6-.5-2.3-.2.8-.3 1.6-.5 2.3l-.8 3.6h-1.5l1.9-7.2zm-.7 4.2h3v1.3h-3v-1.3zM88 114h2.3c1.3 0 2.4.5 2.4 2.2 0 1.6-1.1 2.4-2.4 2.4h-.8v2.6H88V114zm2.1 3.3c.7 0 1.2-.4 1.2-1.1 0-.7-.4-.9-1.2-.9h-.7v2h.7zm-.1.8l1-1 2 4h-1.6l-1.4-3zM93.9 114h3.9v1.4h-2.5v1.4h2.1v1.4h-2.1v1.7h2.6v1.4h-4V114zM99.2 114h2.3c1.3 0 2.4.5 2.4 2.2 0 1.6-1.1 2.4-2.4 2.4h-.8v2.6h-1.4V114zm2.1 3.3c.7 0 1.2-.4 1.2-1.1 0-.7-.4-.9-1.2-.9h-.7v2h.7zm-.1.8l1-1 2 4h-1.6l-1.4-3zM104.7 120.2l.8-1.1c.4.4 1 .7 1.5.7.6 0 .9-.3.9-.7 0-.5-.4-.6-.9-.9l-.8-.4c-.7-.3-1.3-.9-1.3-2 0-1.2.9-2.1 2.2-2.1.7 0 1.5.3 2 .9l-.7 1c-.4-.4-.8-.6-1.3-.6s-.8.2-.8.6c0 .4.4.6 1 .8l.8.4c.8.4 1.2.9 1.2 2 0 1.2-.9 2.2-2.4 2.2-.7.3-1.6-.1-2.2-.8zM64.9 133.4l.8-1.1c.4.4 1 .7 1.5.7.6 0 .9-.3.9-.7 0-.5-.4-.6-.9-.9l-.8-.4c-.7-.3-1.3-.9-1.3-2 0-1.2.9-2.1 2.2-2.1.7 0 1.5.3 2 .9l-.7 1c-.4-.4-.8-.6-1.3-.6s-.8.2-.8.6c0 .4.4.6 1 .8l.8.4c.8.4 1.2.9 1.2 2 0 1.2-.9 2.2-2.4 2.2-.7.3-1.6-.1-2.2-.8zM70.3 130.8c0-2.4 1.4-3.8 3-3.8.8 0 1.5.4 1.9.9l-.8 1c-.3-.3-.7-.6-1.1-.6-.9 0-1.5.9-1.5 2.3 0 1.5.6 2.3 1.5 2.3.5 0 .9-.3 1.2-.7l.8 1c-.5.7-1.2 1.1-2 1.1-1.6.2-3-1.1-3-3.5zM76.3 127.2h1.4v2.8h2.2v-2.8h1.4v7.2h-1.4v-3h-2.2v3h-1.4v-7.2zM82.5 130.7c0-2.3 1.2-3.7 2.9-3.7s2.9 1.4 2.9 3.7c0 2.3-1.2 3.7-2.9 3.7s-2.9-1.3-2.9-3.7zm4.2 0c0-1.4-.5-2.3-1.4-2.3s-1.4.8-1.4 2.3.5 2.3 1.4 2.3 1.4-.8 1.4-2.3zM89.1 130.7c0-2.3 1.2-3.7 2.9-3.7s2.9 1.4 2.9 3.7c0 2.3-1.2 3.7-2.9 3.7s-2.9-1.3-2.9-3.7zm4.3 0c0-1.4-.5-2.3-1.4-2.3s-1.4.8-1.4 2.3.5 2.3 1.4 2.3 1.4-.8 1.4-2.3zM96 127.2h1.4v5.8h2.5v1.4H96v-7.2zM100.6 133.4l.8-1.1c.4.4 1 .7 1.5.7.6 0 .9-.3.9-.7 0-.5-.4-.6-.9-.9l-.8-.4c-.7-.3-1.3-.9-1.3-2 0-1.2.9-2.1 2.2-2.1.7 0 1.5.3 2 .9l-.7 1c-.4-.4-.8-.6-1.3-.6s-.8.2-.8.6c0 .4.4.6 1 .8l.8.4c.8.4 1.2.9 1.2 2 0 1.2-.9 2.2-2.4 2.2-.7.3-1.6-.1-2.2-.8z"/><g><path class="st3" d="M218.7 48.5c0-2.4 1.4-3.8 3-3.8.8 0 1.5.4 1.9.9l-.8 1c-.3-.3-.7-.6-1.1-.6-.9 0-1.5.9-1.5 2.3 0 1.5.6 2.3 1.5 2.3.5 0 .9-.3 1.2-.7l.8 1c-.5.7-1.2 1.1-2 1.1-1.7.1-3-1.1-3-3.5zM224.6 44.8h1.4v2.8h2.2v-2.8h1.4V52h-1.4v-3H226v3h-1.4v-7.2zM231.1 44.8h1.4V52h-1.4v-7.2zM234 44.8h1.4v5.8h2.5V52H234v-7.2zM239 44.8h1.8c1.9 0 3.2 1.1 3.2 3.6s-1.2 3.6-3.1 3.6H239v-7.2zm1.7 5.9c1.1 0 1.8-.6 1.8-2.3s-.7-2.2-1.8-2.2h-.3v4.6h.3z"/></g><g><path class="st3" d="M362 101.7h4v1.4h-2.5v1.7h2.2v1.4h-2.2v2.8H362v-7.3zM368.3 101.7h1.7l2 7.2h-1.5l-.8-3.6c-.2-.7-.3-1.6-.5-2.3-.2.8-.3 1.6-.5 2.3l-.8 3.6h-1.5l1.9-7.2zm-.7 4.2h3v1.3h-3v-1.3zM372.6 101.7h1.6l1 3.2c.1.4.2.9.4 1.3.1-.4.2-.9.4-1.3l1-3.2h1.6v7.2h-1.3v-2.6c0-.7.1-1.7.2-2.4l-.5 1.7-.9 2.7h-.8l-.9-2.7-.5-1.7c.1.7.2 1.7.2 2.4v2.6h-1.3v-7.2zM380 101.7h1.4v7.2H380v-7.2zM382.9 101.7h1.4v5.8h2.5v1.4h-3.9v-7.2zM389 106.3l-1.9-4.6h1.5l.6 1.6c.2.5.3 1 .5 1.6.2-.6.4-1.1.5-1.6l.6-1.6h1.5l-1.9 4.6v2.6H389v-2.6zM394.3 101.1h.9l-1.9 9.6h-.9l1.9-9.6zM352.1 118.5c0-2.4 1.4-3.8 3-3.8.8 0 1.5.4 1.9.9l-.8 1c-.3-.3-.7-.6-1.1-.6-.9 0-1.5.9-1.5 2.3 0 1.5.6 2.3 1.5 2.3.5 0 .9-.3 1.2-.7l.8 1c-.5.7-1.2 1.1-2 1.1-1.6.2-3-1.1-3-3.5zM359.2 114.9h1.7l2 7.2h-1.5l-.8-3.6c-.2-.7-.3-1.6-.5-2.3-.2.8-.3 1.6-.5 2.3l-.8 3.6h-1.5l1.9-7.2zm-.7 4.2h3v1.3h-3v-1.3zM363.6 114.9h2.3c1.3 0 2.4.5 2.4 2.2 0 1.6-1.1 2.4-2.4 2.4h-.9v2.6h-1.4v-7.2zm2.1 3.3c.7 0 1.2-.4 1.2-1.1 0-.7-.4-.9-1.2-.9h-.7v2h.7zm-.1.9l1-1 2 4H367l-1.4-3zM369.5 114.9h3.9v1.4h-2.5v1.4h2.1v1.4h-2.1v1.7h2.6v1.4h-4v-7.3zM374.5 118.5c0-2.4 1.4-3.8 3.1-3.8.9 0 1.6.4 2 .9l-.8 1c-.3-.3-.6-.6-1.2-.6-1 0-1.7.9-1.7 2.3 0 1.5.6 2.3 1.8 2.3.3 0 .5-.1.7-.2v-1.2h-1V118h2.3v3.3c-.4.5-1.2.9-2.1.9-1.7 0-3.1-1.3-3.1-3.7zM381 114.9h1.4v7.2H381v-7.2zM383.1 114.9h1.5l.8 3.3c.2.8.3 1.5.5 2.3.2-.8.3-1.5.5-2.3l.7-3.3h1.5l-1.9 7.2H385l-1.9-7.2zM389.3 114.9h3.9v1.4h-2.5v1.4h2.1v1.4h-2.1v1.7h2.6v1.4h-4v-7.3zM394.6 114.9h2.3c1.3 0 2.4.5 2.4 2.2 0 1.6-1.1 2.4-2.4 2.4h-.9v2.6h-1.4v-7.2zm2.1 3.3c.7 0 1.2-.4 1.2-1.1 0-.7-.4-.9-1.2-.9h-.7v2h.7zm-.1.9l1-1 2 4H398l-1.4-3zM400.1 121.2l.8-1.1c.4.4 1 .7 1.5.7.6 0 .9-.3.9-.7 0-.5-.4-.6-.9-.9l-.8-.4c-.7-.3-1.3-.9-1.3-2 0-1.2.9-2.1 2.2-2.1.7 0 1.5.3 2 .9l-.7 1c-.4-.4-.8-.6-1.3-.6s-.8.2-.8.6c0 .4.4.6 1 .8l.8.4c.8.4 1.2.9 1.2 2 0 1.2-.9 2.2-2.4 2.2-.7.2-1.6-.2-2.2-.8z"/></g><path class="st5" d="M172.8 149.2h116.5v64.9H172.8zM172.8 235h116.5v64.9H172.8zM172.8 320.8h116.5v64.9H172.8z"/><g><path d="M201.1 183.6c0-2.3 1.3-3.7 3.1-3.7.9 0 1.6.5 2 .9l-.5.6c-.3-.4-.8-.7-1.5-.7-1.4 0-2.3 1.1-2.3 2.9 0 1.8.8 3 2.3 3 .5 0 1-.2 1.2-.4v-1.9H204v-.8h2.2v3c-.4.5-1.2.8-2.1.8-1.8 0-3-1.3-3-3.7zM209.3 180h1l2.3 7.2h-.9l-1.2-4c-.2-.8-.5-1.6-.7-2.4-.2.8-.4 1.6-.7 2.4l-1.2 4h-.9l2.3-7.2zm-1.1 4.3h3.1v.7h-3.1v-.7zM214.9 180.8h-2.1v-.8h5v.8h-2.1v6.4h-.9v-6.4zM219.1 180h.9v3h3.2v-3h.9v7.2h-.9v-3.4H220v3.4h-.9V180zM225.8 180h3.9v.8h-3.1v2.3h2.6v.8h-2.6v2.6h3.2v.8h-4V180zM231.3 180h2.1c1.4 0 2.4.5 2.4 2 0 1.4-1 2.1-2.4 2.1h-1.3v3.1h-.9V180zm2 3.4c1.1 0 1.6-.5 1.6-1.4 0-.9-.6-1.3-1.6-1.3h-1.1v2.7h1.1zm0 .5l.7-.5 2.1 3.8h-1l-1.8-3.3zM239.3 180h1.7c2.1 0 3.2 1.3 3.2 3.6s-1.1 3.6-3.2 3.6h-1.7V180zm1.6 6.5c1.6 0 2.4-1.1 2.4-2.9s-.8-2.8-2.4-2.8h-.8v5.7h.8zM247.1 180h1l2.3 7.2h-.9l-1.2-4c-.2-.8-.5-1.6-.7-2.4-.2.8-.4 1.6-.7 2.4l-1.2 4h-.9l2.3-7.2zm-1.1 4.3h3.1v.7H246v-.7zM252.7 180.8h-2.1v-.8h5v.8h-2.1v6.4h-.9v-6.4zM258.3 180h1l2.3 7.2h-.9l-1.2-4c-.2-.8-.5-1.6-.7-2.4-.2.8-.4 1.6-.7 2.4l-1.2 4h-.9l2.3-7.2zm-1.1 4.3h3.1v.7h-3.1v-.7z"/></g><g><path d="M211.4 260.4h1.9c1.5 0 2.6.5 2.6 2.1 0 1.5-1 2.2-2.5 2.2h-1.1v2.9h-.9v-7.2zm1.9 3.6c1.2 0 1.8-.5 1.8-1.5s-.6-1.4-1.8-1.4h-1v2.9h1zM217.3 260.4h2.1c1.4 0 2.4.5 2.4 2 0 1.4-1 2.1-2.4 2.1h-1.3v3.1h-.9v-7.2zm2 3.4c1.1 0 1.6-.5 1.6-1.4 0-1-.6-1.3-1.6-1.3h-1.1v2.7h1.1zm0 .5l.7-.5 2.1 3.8h-1l-1.8-3.3zM222.8 264c0-2.3 1.2-3.7 2.9-3.7s2.9 1.4 2.9 3.7c0 2.3-1.2 3.8-2.9 3.8s-2.9-1.5-2.9-3.8zm4.9 0c0-1.8-.8-2.9-2-2.9s-2 1.1-2 2.9.8 3 2 3 2-1.2 2-3zM229.7 264c0-2.3 1.3-3.7 3-3.7.8 0 1.5.4 1.9.9l-.5.6c-.4-.4-.8-.7-1.4-.7-1.3 0-2.1 1.1-2.1 2.9 0 1.8.8 3 2.1 3 .6 0 1.1-.3 1.6-.8l.5.6c-.5.7-1.2 1-2.1 1-1.7 0-3-1.4-3-3.8zM236 260.4h3.9v.8h-3.1v2.3h2.6v.8h-2.6v2.6h3.2v.8h-4v-7.3zM241 266.7l.5-.6c.5.5 1.2.9 1.9.9.9 0 1.4-.5 1.4-1.2s-.5-1-1.1-1.3l-1-.5c-.6-.3-1.4-.8-1.4-1.9 0-1.1.9-1.9 2.1-1.9.8 0 1.5.4 2 .9l-.5.6c-.4-.4-.9-.7-1.5-.7-.8 0-1.3.4-1.3 1.1 0 .7.6 1 1.1 1.2l1 .4c.8.4 1.4.9 1.4 1.9 0 1.1-.9 2.1-2.3 2.1-.9.1-1.7-.4-2.3-1zM246.5 266.7l.5-.6c.5.5 1.2.9 1.9.9.9 0 1.4-.5 1.4-1.2s-.5-1-1.1-1.3l-1-.5c-.6-.3-1.4-.8-1.4-1.9 0-1.1.9-1.9 2.1-1.9.8 0 1.5.4 2 .9l-.5.6c-.4-.4-.9-.7-1.5-.7-.8 0-1.3.4-1.3 1.1 0 .7.6 1 1.1 1.2l1 .4c.8.4 1.4.9 1.4 1.9 0 1.1-.9 2.1-2.3 2.1-.8.1-1.7-.4-2.3-1zM200.8 271.2h.9v7.2h-.9v-7.2zM203.5 271.2h.9l2.5 4.5.7 1.5c0-.7-.1-1.5-.1-2.3v-3.7h.8v7.2h-.9l-2.5-4.5-.7-1.5c0 .7.1 1.5.1 2.3v3.8h-.8v-7.3zM210.2 271.2h3.9v.8H211v2.4h2.6v.8H211v3.2h-.9v-7.2zM214.9 274.8c0-2.3 1.2-3.7 2.9-3.7s2.9 1.4 2.9 3.7c0 2.3-1.2 3.8-2.9 3.8s-2.9-1.5-2.9-3.8zm5 0c0-1.8-.8-2.9-2-2.9s-2 1.1-2 2.9.8 3 2 3 2-1.2 2-3zM222.2 271.2h2.1c1.4 0 2.4.5 2.4 2 0 1.4-1 2.1-2.4 2.1H223v3.1h-.9v-7.2zm2 3.4c1.1 0 1.6-.5 1.6-1.4 0-.9-.6-1.3-1.6-1.3h-1.1v2.7h1.1zm0 .5l.7-.5 2.1 3.8h-1l-1.8-3.3zM228.1 271.2h1l1.3 3.9c.2.5.3 1 .5 1.5.2-.5.3-1 .5-1.5l1.3-3.9h1v7.2h-.7v-4c0-.6.1-1.5.1-2.1l-.5 1.6-1.3 3.7h-.6l-1.3-3.7-.5-1.6c0 .6.1 1.5.1 2.1v4h-.8v-7.2zM237.1 271.2h1l2.3 7.2h-.9l-1.2-4c-.2-.8-.5-1.6-.7-2.4-.2.8-.4 1.6-.7 2.4l-1.2 4h-.9l2.3-7.2zm-1.1 4.3h3.1v.7H236v-.7zM242.7 272h-2.1v-.8h5v.8h-2.1v6.4h-.9V272zM246.9 271.2h.9v7.2h-.9v-7.2zM249.2 274.8c0-2.3 1.2-3.7 2.9-3.7s2.9 1.4 2.9 3.7c0 2.3-1.2 3.8-2.9 3.8s-2.9-1.5-2.9-3.8zm4.9 0c0-1.8-.8-2.9-2-2.9s-2 1.1-2 2.9.8 3 2 3 2-1.2 2-3zM256.5 271.2h.9l2.5 4.5.7 1.5c0-.7-.1-1.5-.1-2.3v-3.7h.8v7.2h-.9l-2.5-4.5-.7-1.5c0 .7.1 1.5.1 2.3v3.8h-.8v-7.3z"/></g><g><path d="M211.4 348.2c0-2.3 1.3-3.7 3-3.7.8 0 1.5.4 1.9.9l-.5.6c-.4-.4-.8-.7-1.4-.7-1.3 0-2.1 1.1-2.1 2.9 0 1.8.8 3 2.1 3 .6 0 1.1-.3 1.6-.8l.5.6c-.5.7-1.2 1-2.1 1-1.8-.1-3-1.5-3-3.8zM217.3 348.1c0-2.3 1.2-3.7 2.9-3.7s2.9 1.4 2.9 3.7c0 2.3-1.2 3.8-2.9 3.8s-2.9-1.5-2.9-3.8zm4.9 0c0-1.8-.8-2.9-2-2.9s-2 1.1-2 2.9.8 3 2 3 2-1.2 2-3zM224.6 344.5h1l1.3 3.9c.2.5.3 1 .5 1.5.2-.5.3-1 .5-1.5l1.3-3.9h1v7.2h-.8v-4c0-.6.1-1.5.1-2.1l-.5 1.6-1.3 3.7h-.6l-1.3-3.7-.5-1.6c0 .6.1 1.5.1 2.1v4h-.8v-7.2zM232.1 344.5h3.9v.8h-3v2.3h2.6v.8H233v2.6h3.2v.8h-4v-7.3zM239.6 348.8v-4.2h.9v4.3c0 1.7.7 2.3 1.6 2.3.9 0 1.6-.5 1.6-2.3v-4.3h.8v4.2c0 2.3-1.1 3.1-2.4 3.1-1.4 0-2.5-.8-2.5-3.1zM246.4 344.5h1.9c1.5 0 2.6.5 2.6 2.1 0 1.5-1 2.2-2.5 2.2h-1.1v2.9h-.9v-7.2zm1.8 3.7c1.2 0 1.8-.5 1.8-1.5s-.6-1.4-1.8-1.4h-1v2.9h1zM203.2 355.3h.9l.7 3.9c.1.8.3 1.6.4 2.3.2-.8.3-1.6.5-2.3l.9-3.9h.8l.9 3.9c.2.8.3 1.5.5 2.3.1-.8.3-1.6.4-2.3l.7-3.9h.8l-1.4 7.2h-1l-1-4.3c-.1-.6-.2-1.1-.3-1.6-.1.6-.2 1.1-.3 1.6l-1 4.3h-1l-1.5-7.2zM212 355.3h.9v7.2h-.9v-7.2zM216.2 356.1h-2.1v-.8h5v.8H217v6.4h-.9v-6.4zM220.3 355.3h.9v3h3.2v-3h.9v7.2h-.9v-3.4h-3.2v3.4h-.9v-7.2zM230.5 355.3h1l2.3 7.2h-.9l-1.2-4c-.2-.8-.5-1.6-.7-2.4-.2.8-.4 1.6-.7 2.4l-1.2 4h-.9l2.3-7.2zm-1.1 4.3h3.1v.7h-3.1v-.7zM236.9 355.3h1.9c1.5 0 2.6.5 2.6 2.1 0 1.5-1 2.2-2.5 2.2h-1.1v2.9h-.9v-7.2zm1.8 3.7c1.2 0 1.8-.5 1.8-1.5s-.6-1.4-1.8-1.4h-1v2.9h1zM242.7 355.3h.9v6.4h3v.8h-3.8v-7.2zM249.2 355.3h1l2.3 7.2h-.9l-1.2-4c-.2-.8-.5-1.6-.7-2.4-.2.8-.4 1.6-.7 2.4l-1.2 4h-.9l2.3-7.2zm-1.1 4.3h3.1v.7h-3.1v-.7zM253.4 355.3h.9l2.5 4.5.7 1.5c0-.7-.1-1.5-.1-2.3v-3.7h.8v7.2h-.9l-2.5-4.5-.7-1.5c0 .7.1 1.5.1 2.3v3.8h-.8v-7.3z"/></g><path class="st0" d="M119.2 148.3l46.5 25.4M342.9 148.3l-46.5 25.4M231.1 94.6v43.5"/><path d="M305.6 175.6l-1.7-2.6-1.6-2.5-1.7-2.6-1.7-2.5-5.2 10.6zM161.1 164.4l-1.2 2.8-1.3 2.8-1.2 2.7-1.2 2.8 11.7-1.3zM237.2 134.7h-3.1l-3 .1H225l6 10.1z"/><path class="st0" d="M231.1 214.1v13.5"/><path d="M237.2 224.2h-6.1l-3.1.1h-3l6 10.1z"/><path class="st0" d="M231.1 299.9v13.5"/><path d="M237.2 310h-6.1l-3.1.1h-3l6 10.1z"/><path class="st6" d="M149.5 259.8H95c-5.4 0-9.7-4.4-9.7-9.7v-19.5c0-5.4 4.4-9.7 9.7-9.7h54.5c5.4 0 9.7 4.4 9.7 9.7v19.5c0 5.3-4.3 9.7-9.7 9.7z"/><g><path class="st3" d="M107.8 226.1h1l1.3 3.9c.2.5.3 1 .5 1.5.2-.5.3-1 .5-1.5l1.3-3.9h1v7.2h-.8v-4c0-.6.1-1.5.1-2.1l-.5 1.6-1.3 3.7h-.6l-1.3-3.7-.5-1.6c0 .6.1 1.5.1 2.1v4h-.8v-7.2zM115.3 230.3v-4.2h.9v4.3c0 1.7.7 2.3 1.6 2.3.9 0 1.6-.5 1.6-2.3v-4.3h.8v4.2c0 2.3-1.1 3.1-2.4 3.1s-2.5-.8-2.5-3.1zM122 226.1h.9v6.4h3v.8H122v-7.2zM128.5 226.8h-2.1v-.8h5v.8h-2.1v6.4h-.9v-6.4zM132.6 226.1h.9v7.2h-.9v-7.2zM134.8 230.2h2.4v.7h-2.4v-.7zM93.1 236.9h1.7c2.1 0 3.2 1.3 3.2 3.6s-1.1 3.6-3.2 3.6h-1.7v-7.2zm1.6 6.4c1.6 0 2.4-1.1 2.4-2.9s-.8-2.8-2.4-2.8H94v5.7h.7zM99.5 236.9h.9v7.2h-.9v-7.2zM101.7 243.1l.5-.6c.5.5 1.2.9 1.9.9.9 0 1.4-.5 1.4-1.2s-.5-1-1.1-1.3l-1-.5c-.6-.3-1.4-.8-1.4-1.9 0-1.1.9-1.9 2.1-1.9.8 0 1.5.4 2 .9l-.5.6c-.4-.4-.9-.7-1.5-.7-.8 0-1.3.4-1.3 1.1 0 .7.6 1 1.1 1.2l1 .4c.8.4 1.4.9 1.4 1.9 0 1.1-.9 2.1-2.3 2.1-.9.1-1.7-.3-2.3-1zM107.4 240.5c0-2.3 1.3-3.7 3-3.7.8 0 1.5.4 1.9.9l-.5.6c-.4-.4-.8-.7-1.4-.7-1.3 0-2.1 1.1-2.1 2.9 0 1.8.8 3 2.1 3 .6 0 1.1-.3 1.6-.8l.5.6c-.5.7-1.2 1-2.1 1-1.8-.1-3-1.5-3-3.8zM113.7 236.9h.9v7.2h-.9v-7.2zM116.4 236.9h1.9c1.5 0 2.6.5 2.6 2.1 0 1.5-1 2.2-2.5 2.2h-1.1v2.9h-.9v-7.2zm1.9 3.6c1.2 0 1.8-.5 1.8-1.5s-.6-1.4-1.8-1.4h-1v2.9h1zM122.3 236.9h.9v6.4h3v.8h-3.8v-7.2zM127.3 236.9h.9v7.2h-.9v-7.2zM130 236.9h.9l2.5 4.5.7 1.5c0-.7-.1-1.5-.1-2.3v-3.7h.8v7.2h-.8l-2.5-4.5-.7-1.5c0 .7.1 1.5.1 2.3v3.8h-.9v-7.3zM138.2 236.9h1l2.3 7.2h-.9l-1.2-4c-.2-.8-.5-1.6-.7-2.4-.2.8-.4 1.6-.7 2.4l-1.2 4h-.9l2.3-7.2zm-1.1 4.3h3.1v.7h-3.1v-.7zM142.4 236.9h2.1c1.4 0 2.4.5 2.4 2 0 1.4-1 2.1-2.4 2.1h-1.3v3.1h-.9v-7.2zm2 3.4c1.1 0 1.6-.5 1.6-1.4 0-1-.6-1.3-1.6-1.3h-1.1v2.7h1.1zm0 .5l.7-.5 2.1 3.8h-1l-1.8-3.3zM149.4 241.3l-2-4.4h.9l.9 2c.2.5.4 1 .7 1.6.2-.5.5-1 .7-1.6l.9-2h.9l-2 4.4v2.8h-.9v-2.8zM100.5 247.7h1l1.3 3.9c.2.5.3 1 .5 1.5.2-.5.3-1 .5-1.5l1.3-3.9h1v7.2h-.8v-4c0-.6.1-1.5.1-2.1l-.5 1.6-1.3 3.7h-.6l-1.3-3.7-.5-1.6c0 .6.1 1.5.1 2.1v4h-.8v-7.2zM108 247.7h3.9v.8h-3.1v2.3h2.6v.8h-2.6v2.6h3.2v.8h-4v-7.3zM113.5 247.7h3.9v.8h-3.1v2.3h2.6v.8h-2.6v2.6h3.2v.8h-4v-7.3zM120.4 248.4h-2.1v-.8h5v.8h-2.1v6.4h-.9v-6.4zM124.5 247.7h.9v7.2h-.9v-7.2zM127.2 247.7h.9l2.5 4.5.7 1.5c0-.7-.1-1.5-.1-2.3v-3.7h.8v7.2h-.9l-2.5-4.5-.7-1.5c0 .7.1 1.5.1 2.3v3.8h-.8v-7.3zM133.5 251.3c0-2.3 1.3-3.7 3.1-3.7.9 0 1.6.5 2 .9l-.5.6c-.3-.4-.8-.7-1.5-.7-1.4 0-2.3 1.1-2.3 2.9 0 1.8.8 3 2.3 3 .5 0 1-.2 1.2-.4V252h-1.4v-.8h2.2v3c-.4.5-1.2.8-2.1.8-1.7 0-3-1.4-3-3.7zM139.9 253.9l.5-.6c.5.5 1.2.9 1.9.9.9 0 1.4-.5 1.4-1.2s-.5-1-1.1-1.3l-1-.5c-.6-.3-1.4-.8-1.4-1.9 0-1.1.9-1.9 2.1-1.9.8 0 1.5.4 2 .9l-.5.6c-.4-.4-.9-.7-1.5-.7-.8 0-1.3.4-1.3 1.1 0 .7.6 1 1.1 1.2l1 .4c.8.4 1.4.9 1.4 1.9 0 1.1-.9 2.1-2.3 2.1-.9.1-1.8-.3-2.3-1z"/></g><g><path d="M96.8 301.9c0-2.3 1.3-3.7 3-3.7.8 0 1.5.4 1.9.9l-.5.6c-.4-.4-.8-.7-1.4-.7-1.3 0-2.1 1.1-2.1 2.9 0 1.8.8 3 2.1 3 .6 0 1.1-.3 1.6-.8l.5.6c-.5.7-1.2 1-2.1 1-1.7 0-3-1.4-3-3.8zM102.7 301.9c0-2.3 1.2-3.7 2.9-3.7s2.9 1.4 2.9 3.7c0 2.3-1.2 3.8-2.9 3.8s-2.9-1.5-2.9-3.8zm5 0c0-1.8-.8-2.9-2-2.9s-2 1.1-2 2.9.8 3 2 3 2-1.2 2-3zM110 298.3h.9l2.5 4.5.7 1.5c0-.7-.1-1.5-.1-2.3v-3.7h.8v7.2h-.8l-2.5-4.5-.7-1.5c0 .7.1 1.5.1 2.3v3.8h-.9v-7.3zM118.2 299.1h-2.1v-.8h5v.8H119v6.4h-.9v-6.4zM122.3 298.3h.9v7.2h-.9v-7.2zM125 298.3h.9l2.5 4.5.7 1.5c0-.7-.1-1.5-.1-2.3v-3.7h.8v7.2h-.8l-2.5-4.5-.7-1.5c0 .7.1 1.5.1 2.3v3.8h-.9v-7.3zM131.7 302.6v-4.2h.9v4.3c0 1.7.7 2.3 1.6 2.3.9 0 1.6-.5 1.6-2.3v-4.3h.8v4.2c0 2.3-1.1 3.1-2.4 3.1s-2.5-.8-2.5-3.1zM139.8 298.3h1l2.3 7.2h-.9l-1.2-4c-.2-.8-.5-1.6-.7-2.4-.2.8-.4 1.6-.7 2.4l-1.2 4h-.9l2.3-7.2zm-1.1 4.3h3.1v.7h-3.1v-.7zM144.1 298.3h.9v6.4h3v.8h-3.8v-7.2zM82.4 309.1h2.1c1.4 0 2.4.5 2.4 2 0 1.4-1 2.1-2.4 2.1h-1.3v3.1h-.9v-7.2zm2 3.4c1.1 0 1.6-.5 1.6-1.4 0-1-.6-1.3-1.6-1.3h-1.1v2.7h1.1zm0 .5l.7-.5 2.1 3.8h-1l-1.8-3.3zM88.3 309.1h3.9v.8h-3.1v2.3h2.6v.8h-2.6v2.6h3.2v.8h-4v-7.3zM93.3 313.2h2.4v.7h-2.4v-.7zM98.4 309.1h1l2.3 7.2h-.9l-1.2-4c-.2-.8-.5-1.6-.7-2.4-.2.8-.4 1.6-.7 2.4l-1.2 4h-.9l2.3-7.2zm-1.1 4.3h3.1v.7h-3.1v-.7zM102.1 315.4l.5-.6c.5.5 1.2.9 1.9.9.9 0 1.4-.5 1.4-1.2s-.5-1-1.1-1.3l-1-.5c-.6-.3-1.4-.8-1.4-1.9 0-1.1.9-1.9 2.1-1.9.8 0 1.5.4 2 .9l-.5.6c-.4-.4-.9-.7-1.5-.7-.8 0-1.3.4-1.3 1.1 0 .7.6 1 1.1 1.2l1 .4c.8.4 1.4.9 1.4 1.9 0 1.1-.9 2.1-2.3 2.1-.8.1-1.7-.3-2.3-1zM107.7 315.4l.5-.6c.5.5 1.2.9 1.9.9.9 0 1.4-.5 1.4-1.2s-.5-1-1.1-1.3l-1-.5c-.6-.3-1.4-.8-1.4-1.9 0-1.1.9-1.9 2.1-1.9.8 0 1.5.4 2 .9l-.5.6c-.4-.4-.9-.7-1.5-.7-.8 0-1.3.4-1.3 1.1 0 .7.6 1 1.1 1.2l1 .4c.8.4 1.4.9 1.4 1.9 0 1.1-.9 2.1-2.3 2.1-.9.1-1.7-.3-2.3-1zM113.7 309.1h3.9v.8h-3.1v2.3h2.6v.8h-2.6v2.6h3.2v.8h-4v-7.3zM118.7 315.4l.5-.6c.5.5 1.2.9 1.9.9.9 0 1.4-.5 1.4-1.2s-.5-1-1.1-1.3l-1-.5c-.6-.3-1.4-.8-1.4-1.9 0-1.1.9-1.9 2.1-1.9.8 0 1.5.4 2 .9l-.5.6c-.4-.4-.9-.7-1.5-.7-.8 0-1.3.4-1.3 1.1 0 .7.6 1 1.1 1.2l1 .4c.8.4 1.4.9 1.4 1.9 0 1.1-.9 2.1-2.3 2.1-.9.1-1.7-.3-2.3-1zM124.2 315.4l.5-.6c.5.5 1.2.9 1.9.9.9 0 1.4-.5 1.4-1.2s-.5-1-1.1-1.3l-1-.5c-.6-.3-1.4-.8-1.4-1.9 0-1.1.9-1.9 2.1-1.9.8 0 1.5.4 2 .9l-.5.6c-.4-.4-.9-.7-1.5-.7-.8 0-1.3.4-1.3 1.1 0 .7.6 1 1.1 1.2l1 .4c.8.4 1.4.9 1.4 1.9 0 1.1-.9 2.1-2.3 2.1-.8.1-1.7-.3-2.3-1zM130.3 309.1h1l1.3 3.9c.2.5.3 1 .5 1.5.2-.5.3-1 .5-1.5l1.3-3.9h1v7.2h-.8v-4c0-.6.1-1.5.1-2.1l-.5 1.6-1.3 3.7h-.6l-1.3-3.7-.5-1.6c0 .6.1 1.5.1 2.1v4h-.8v-7.2zM137.8 309.1h3.9v.8h-3.1v2.3h2.6v.8h-2.6v2.6h3.2v.8h-4v-7.3zM143.3 309.1h.9l2.5 4.5.7 1.5c0-.7-.1-1.5-.1-2.3v-3.7h.8v7.2h-.9l-2.5-4.5-.7-1.5c0 .7.1 1.5.1 2.3v3.8h-.8v-7.3zM151.4 309.9h-2.1v-.8h5v.8h-2.1v6.4h-.9v-6.4zM157 314.5c0-2.1 3.1-2.5 3.1-4 0-.4-.2-.8-.6-.8-.5 0-.8.5-.8 1.1 0 1.3 1.4 3.1 2.7 4.2.5.4 1.1.7 1.5.9l-.2.8c-.5-.2-1.2-.5-1.8-1-1.5-1.2-2.9-3.2-2.9-4.8 0-1 .6-1.7 1.6-1.7.8 0 1.3.6 1.3 1.4 0 1.9-3 2.4-3 4 0 .8.6 1.3 1.3 1.3.6 0 1.1-.3 1.6-.8.6-.6 1-1.5 1.2-2.5h.8c-.3 1.1-.8 2.1-1.4 2.9-.6.7-1.3 1.1-2.3 1.1-1.2-.1-2.1-1-2.1-2.1zM84 323.5c0-2.3 1.3-3.7 3-3.7.8 0 1.5.4 1.9.9l-.5.6c-.4-.4-.8-.7-1.4-.7-1.3 0-2.1 1.1-2.1 2.9 0 1.8.8 3 2.1 3 .6 0 1.1-.3 1.6-.8l.5.6c-.5.7-1.2 1-2.1 1-1.7 0-3-1.4-3-3.8zM89.9 323.5c0-2.3 1.2-3.7 2.9-3.7s2.9 1.4 2.9 3.7c0 2.3-1.2 3.8-2.9 3.8s-2.9-1.5-2.9-3.8zm5 0c0-1.8-.8-2.9-2-2.9s-2 1.1-2 2.9.8 3 2 3 2-1.2 2-3zM97.2 319.9h1l1.3 3.9c.2.5.3 1 .5 1.5.2-.5.3-1 .5-1.5l1.3-3.9h1v7.2h-.8v-4c0-.6.1-1.5.1-2.1l-.5 1.6-1.3 3.7h-.6l-1.3-3.7-.4-1.6c0 .6.1 1.5.1 2.1v4h-.8v-7.2zM104.8 319.9h1l1.3 3.9c.2.5.3 1 .5 1.5.2-.5.3-1 .5-1.5l1.3-3.9h1v7.2h-.8v-4c0-.6.1-1.5.1-2.1l-.5 1.6-1.3 3.7h-.6l-1.3-3.7-.5-1.6c0 .6.1 1.5.1 2.1v4h-.8v-7.2zM112.3 324.2V320h.9v4.3c0 1.7.7 2.3 1.6 2.3.9 0 1.6-.5 1.6-2.3V320h.8v4.2c0 2.3-1.1 3.1-2.4 3.1s-2.5-.8-2.5-3.1zM119 319.9h.9l2.5 4.5.7 1.5c0-.7-.1-1.5-.1-2.3v-3.7h.8v7.2h-.8l-2.5-4.5-.7-1.5c0 .7.1 1.5.1 2.3v3.8h-.9v-7.3zM125.7 319.9h.9v7.2h-.9v-7.2zM128.1 323.5c0-2.3 1.3-3.7 3-3.7.8 0 1.5.4 1.9.9l-.5.6c-.4-.4-.8-.7-1.4-.7-1.3 0-2.1 1.1-2.1 2.9 0 1.8.8 3 2.1 3 .6 0 1.1-.3 1.6-.8l.5.6c-.5.7-1.2 1-2.1 1-1.8 0-3-1.4-3-3.8zM135.8 319.9h1l2.3 7.2h-.9l-1.2-4c-.2-.8-.5-1.6-.7-2.4-.2.8-.4 1.6-.7 2.4l-1.2 4h-.9l2.3-7.2zm-1.1 4.3h3.1v.7h-3.1v-.7zM141.4 320.7h-2.1v-.8h5v.8h-2.1v6.4h-.9v-6.4zM145.6 319.9h.9v7.2h-.9v-7.2zM147.9 323.5c0-2.3 1.2-3.7 2.9-3.7s2.9 1.4 2.9 3.7c0 2.3-1.2 3.8-2.9 3.8s-2.9-1.5-2.9-3.8zm5 0c0-1.8-.8-2.9-2-2.9s-2 1.1-2 2.9.8 3 2 3 2-1.2 2-3zM155.2 319.9h.9l2.5 4.5.7 1.5c0-.7-.1-1.5-.1-2.3v-3.7h.8v7.2h-.9l-2.5-4.5-.7-1.5c0 .7.1 1.5.1 2.3v3.8h-.8v-7.3z"/></g></svg>