<svg version="1.1" xmlns="http://www.w3.org/2000/svg" xmlns:xlink="http://www.w3.org/1999/xlink" x="0" y="0" viewBox="0 0 453.54 288.66" xml:space="preserve"><path d="M34.81 135.3l1.56-2.12c.86.85 1.96 1.43 2.95 1.43 1.13 0 1.69-.51 1.69-1.32 0-.86-.68-1.14-1.73-1.63l-1.56-.76c-1.25-.58-2.43-1.74-2.43-3.73 0-2.27 1.78-4.08 4.28-4.08 1.38 0 2.83.62 3.87 1.79l-1.37 1.95c-.79-.69-1.55-1.07-2.5-1.07-.94 0-1.53.44-1.53 1.23 0 .84.79 1.14 1.84 1.62l1.53.71c1.47.68 2.39 1.79 2.39 3.72 0 2.27-1.67 4.24-4.53 4.24-1.57 0-3.23-.67-4.46-1.98zM45.62 122.32h2.71v3.59l-.12 1.89c.69-.71 1.58-1.44 2.83-1.44 1.99 0 2.84 1.6 2.84 4.2v6.47h-2.71v-6.07c0-1.5-.35-1.97-1.14-1.97-.68 0-1.1.36-1.69 1.01v7.03h-2.71v-14.71zM55.63 131.83c0-3.46 2.14-5.46 4.46-5.46s4.46 2 4.46 5.46-2.14 5.46-4.46 5.46-4.46-2.01-4.46-5.46zm6.14 0c0-1.8-.56-2.97-1.68-2.97-1.12 0-1.68 1.17-1.68 2.97s.56 2.97 1.68 2.97c1.12-.01 1.68-1.17 1.68-2.97zM66.4 126.61h2.21l.2 1.82h.07c.67-1.39 1.67-2.07 2.6-2.07.52 0 .83.08 1.09.21l-.45 2.66c-.33-.09-.59-.17-.99-.17-.69 0-1.53.51-2.02 1.93v6.04H66.4v-10.42zM74.11 133.24v-4.21h-1.25v-2.3l1.4-.12.32-2.77h2.24v2.77h2.19v2.42h-2.19v4.17c0 1.18.47 1.65 1.19 1.65.3 0 .63-.1.87-.2l.43 2.24c-.49.18-1.15.38-2.03.38-2.27.01-3.17-1.61-3.17-4.03zM80.81 126.61h2.21l.2 1.32h.07c.77-.84 1.69-1.57 2.94-1.57 1.99 0 2.84 1.6 2.84 4.2v6.47h-2.71v-6.07c0-1.5-.35-1.97-1.14-1.97-.68 0-1.1.36-1.69 1.01v7.03h-2.71v-10.42zM90.84 131.83c0-3.38 2.12-5.46 4.32-5.46 2.61 0 3.9 2.16 3.9 5 0 .56-.06 1.11-.11 1.36h-5.48c.24 1.51 1.15 2.2 2.37 2.2.69 0 1.31-.24 1.98-.68l.9 1.86c-.94.74-2.16 1.17-3.25 1.17-2.61 0-4.63-2-4.63-5.45zm5.9-1.14c0-1.15-.44-1.97-1.52-1.97-.86 0-1.6.65-1.78 1.97h3.3zM100.12 135.83l1.22-1.92c.83.71 1.6 1.09 2.36 1.09.81 0 1.16-.35 1.16-.9 0-.69-.91-1-1.85-1.42-1.12-.49-2.42-1.34-2.42-3.06 0-1.94 1.38-3.26 3.5-3.26 1.4 0 2.45.65 3.23 1.32l-1.21 1.85c-.65-.54-1.29-.89-1.93-.89-.7 0-1.05.31-1.05.83 0 .66.86.92 1.81 1.31 1.16.49 2.46 1.23 2.46 3.13 0 1.88-1.31 3.36-3.76 3.36-1.21.01-2.6-.58-3.52-1.44zM108.29 135.83l1.22-1.92c.83.71 1.6 1.09 2.36 1.09.81 0 1.16-.35 1.16-.9 0-.69-.91-1-1.85-1.42-1.12-.49-2.42-1.34-2.42-3.06 0-1.94 1.38-3.26 3.5-3.26 1.4 0 2.45.65 3.23 1.32l-1.21 1.85c-.65-.54-1.29-.89-1.93-.89-.7 0-1.05.31-1.05.83 0 .66.86.92 1.81 1.31 1.16.49 2.46 1.23 2.46 3.13 0 1.88-1.31 3.36-3.76 3.36-1.21.01-2.59-.58-3.52-1.44zM40.12 157.03c0-3.46 2.14-5.46 4.46-5.46s4.46 2 4.46 5.46-2.14 5.46-4.46 5.46-4.46-2.01-4.46-5.46zm6.14 0c0-1.8-.56-2.97-1.68-2.97-1.12 0-1.68 1.17-1.68 2.97s.56 2.97 1.68 2.97c1.12-.01 1.68-1.17 1.68-2.97zM50.14 151.93l1.37-.12h4.21v2.42h-5.58v-2.3zm1.22-.66c0-2.2.9-4 3.37-4 .76 0 1.42.19 1.83.37l-.49 2.28c-.31-.14-.65-.22-.95-.22-.66 0-1.04.42-1.04 1.49v11.05h-2.71v-10.97zM63.29 161.12h-.07l-.22 1.11h-2.12v-14.71h2.71v3.59l-.07 1.6c.69-.71 1.56-1.15 2.42-1.15 2.22 0 3.59 2.08 3.59 5.28 0 3.59-1.87 5.64-3.85 5.64-.82 0-1.66-.47-2.39-1.36zm3.46-4.23c0-1.87-.51-2.81-1.59-2.81-.56 0-1.04.28-1.57.93v4.28c.49.49 1 .66 1.46.66.94.01 1.7-.9 1.7-3.06zM71.45 151.81h2.21l.2 1.82h.07c.67-1.39 1.67-2.07 2.6-2.07.52 0 .83.08 1.09.21l-.45 2.66c-.33-.09-.59-.17-.99-.17-.69 0-1.53.51-2.02 1.93v6.04h-2.71v-10.42zM78.26 157.03c0-3.38 2.12-5.46 4.32-5.46 2.61 0 3.9 2.16 3.9 5 0 .56-.06 1.11-.11 1.36h-5.48c.24 1.51 1.15 2.2 2.37 2.2.69 0 1.31-.24 1.98-.68l.9 1.86c-.94.74-2.16 1.17-3.25 1.17-2.61 0-4.63-2-4.63-5.45zm5.9-1.14c0-1.15-.44-1.97-1.52-1.97-.86 0-1.6.65-1.78 1.97h3.3zM87.93 159.34c0-2.2 1.53-3.38 5.15-3.82-.05-.91-.45-1.51-1.45-1.51-.77 0-1.53.37-2.42.94l-.96-2.03c1.16-.81 2.47-1.37 3.91-1.37 2.34 0 3.64 1.52 3.64 4.71v5.96h-2.21l-.2-1.07h-.07c-.77.77-1.63 1.32-2.66 1.32-1.67.01-2.73-1.37-2.73-3.13zm5.15-.14v-1.82c-1.93.3-2.56.92-2.56 1.71 0 .67.41 1 1.05 1 .62.01 1.03-.34 1.51-.89zM98.44 158.44v-4.21h-1.25v-2.3l1.4-.12.32-2.77h2.24v2.77h2.19v2.42h-2.19v4.17c0 1.18.47 1.65 1.19 1.65.3 0 .63-.1.87-.2l.43 2.24c-.49.18-1.15.38-2.03.38-2.27.01-3.17-1.61-3.17-4.03zM105.14 147.52h2.71v3.59l-.12 1.89c.69-.71 1.58-1.44 2.83-1.44 1.99 0 2.84 1.6 2.84 4.2v6.47h-2.71v-6.07c0-1.5-.35-1.97-1.14-1.97-.68 0-1.1.36-1.69 1.01v7.03h-2.71v-14.71z"/><g><path d="M348.29 135.16h3.25l3.78 13.68h-2.88l-1.57-6.93c-.33-1.37-.66-2.99-.98-4.41h-.07c-.29 1.45-.61 3.05-.95 4.41l-1.58 6.93h-2.78l3.78-13.68zm-1.29 8.02h5.79v2.4H347v-2.4zM356.4 138.43h2.21l.2 1.32h.07c.77-.84 1.69-1.57 2.94-1.57 1.99 0 2.84 1.6 2.84 4.2v6.47h-2.71v-6.07c0-1.5-.35-1.97-1.14-1.97-.68 0-1.1.36-1.69 1.01v7.03h-2.71v-10.42zM368.83 143.42l-2.65-5h2.91l.81 1.68c.25.58.52 1.2.78 1.78h.07c.2-.58.43-1.2.63-1.78l.62-1.68h2.81l-2.65 5.35 2.81 5.07h-2.91l-.9-1.72c-.29-.6-.56-1.23-.86-1.81h-.07c-.23.59-.47 1.2-.71 1.81l-.71 1.72H366l2.83-5.42zM376.23 135.29c0-.95.66-1.61 1.57-1.61s1.57.67 1.57 1.61c0 .94-.66 1.61-1.57 1.61s-1.57-.67-1.57-1.61zm.21 3.14h2.71v10.42h-2.71v-10.42zM381 143.64c0-3.38 2.12-5.46 4.32-5.46 2.61 0 3.9 2.16 3.9 5 0 .56-.06 1.11-.11 1.36h-5.48c.24 1.51 1.15 2.2 2.37 2.2.69 0 1.31-.24 1.98-.68l.9 1.86c-.94.74-2.16 1.17-3.25 1.17-2.61.01-4.63-2-4.63-5.45zm5.9-1.14c0-1.15-.44-1.97-1.52-1.97-.86 0-1.6.65-1.78 1.97h3.3zM391.46 145.06v-4.21h-1.25v-2.3l1.4-.12.32-2.77h2.24v2.77h2.19v2.42h-2.19v4.17c0 1.18.47 1.65 1.18 1.65.3 0 .63-.1.87-.2l.43 2.24c-.49.18-1.15.38-2.03.38-2.27.01-3.16-1.62-3.16-4.03zM397.88 152.71l.48-2.35c.17.05.42.13.62.13.89 0 1.36-.56 1.6-1.37l.14-.54-3.53-10.15h2.72l1.31 4.48c.26.94.48 1.93.72 2.95h.07c.2-.99.41-1.97.64-2.95l1.11-4.48h2.6l-3.18 10.53c-.87 2.61-1.84 3.96-4 3.96-.57 0-.93-.09-1.3-.21z"/></g><image width="1040" height="678" xlink:href="E4588BAB.png" transform="matrix(.5 0 0 .5 -542.578 -33.887)" overflow="visible"/><g><path d="M363.83 88.97c-83.28-70.91-206.48-68.03-286.58 6.72l-8.12-8.71c41.06-38.32 94.57-60.02 150.67-61.11 55.66-1.08 109.56 18.11 151.75 54.04l-7.72 9.06z"/><path d="M375.86 68.07l10.36 34.08-34.7-8.06z"/><g><path d="M245.96 258.47c-2.52.24-5.04.43-7.57.59-55.57 3.39-110.21-13.55-153.86-47.7l7.34-9.38c86.15 67.4 209.12 59.41 286.05-18.58l8.48 8.36c-37.65 38.17-87.28 61.69-140.44 66.71z"/><path d="M80.72 223.36l-11.77-33.62 35 6.61z"/></g></g></svg>