<svg version="1.1" xmlns="http://www.w3.org/2000/svg" x="0" y="0" viewBox="0 0 453.5 288.7" xml:space="preserve"><path d="M42.7 134.2l1.3-1.7c.7.7 1.6 1.2 2.4 1.2.9 0 1.4-.4 1.4-1.1 0-.7-.6-.9-1.4-1.3l-1.3-.6c-1-.5-2-1.4-2-3 0-1.8 1.5-3.3 3.5-3.3 1.1 0 2.3.5 3.2 1.5l-1.1 1.6c-.6-.6-1.3-.9-2-.9-.8 0-1.2.4-1.2 1 0 .7.6.9 1.5 1.3l1.2.6c1.2.5 1.9 1.5 1.9 3 0 1.8-1.4 3.5-3.7 3.5-1.4-.2-2.7-.7-3.7-1.8zM51.5 123.6h2.2v2.9l-.1 1.5c.6-.6 1.3-1.2 2.3-1.2 1.6 0 2.3 1.3 2.3 3.4v5.3H56v-4.9c0-1.2-.3-1.6-.9-1.6-.6 0-.9.3-1.4.8v5.7h-2.2v-11.9zM59.6 131.4c0-2.8 1.7-4.4 3.6-4.4s3.6 1.6 3.6 4.4c0 2.8-1.7 4.4-3.6 4.4s-3.6-1.6-3.6-4.4zm5 0c0-1.5-.5-2.4-1.4-2.4-.9 0-1.4 1-1.4 2.4 0 1.5.5 2.4 1.4 2.4.9 0 1.4-1 1.4-2.4zM68.4 127.1h1.8l.2 1.5h.1c.5-1.1 1.4-1.7 2.1-1.7.4 0 .7.1.9.2l-.4 2.2c-.3-.1-.5-.1-.8-.1-.6 0-1.2.4-1.6 1.6v4.9h-2.2v-8.6zM74.6 132.5v-3.4h-1v-1.9l1.1-.1.3-2.3h1.8v2.3h1.8v2h-1.8v3.4c0 1 .4 1.3 1 1.3.2 0 .5-.1.7-.2l.3 1.8c-.4.1-.9.3-1.7.3-1.7.1-2.5-1.2-2.5-3.2zM80.1 127.1h1.8l.2 1.1h.1c.6-.7 1.4-1.3 2.4-1.3 1.6 0 2.3 1.3 2.3 3.4v5.3h-2.2v-4.9c0-1.2-.3-1.6-.9-1.6-.6 0-.9.3-1.4.8v5.7h-2.2v-8.5zM88.3 131.4c0-2.8 1.7-4.4 3.5-4.4 2.1 0 3.2 1.8 3.2 4.1 0 .5 0 .9-.1 1.1h-4.5c.2 1.2.9 1.8 1.9 1.8.6 0 1.1-.2 1.6-.6l.7 1.5c-.8.6-1.8 1-2.6 1-2.1-.1-3.7-1.7-3.7-4.5zm4.8-1c0-.9-.4-1.6-1.2-1.6-.7 0-1.3.5-1.5 1.6h2.7zM95.8 134.6l1-1.6c.7.6 1.3.9 1.9.9.7 0 .9-.3.9-.7 0-.6-.7-.8-1.5-1.2-.9-.4-2-1.1-2-2.5 0-1.6 1.1-2.7 2.8-2.7 1.1 0 2 .5 2.6 1.1l-1 1.5c-.5-.4-1.1-.7-1.6-.7-.6 0-.9.3-.9.7 0 .5.7.7 1.5 1.1.9.4 2 1 2 2.6 0 1.5-1.1 2.7-3.1 2.7-.7 0-1.8-.5-2.6-1.2zM102.5 134.6l1-1.6c.7.6 1.3.9 1.9.9.7 0 .9-.3.9-.7 0-.6-.7-.8-1.5-1.2-.9-.4-2-1.1-2-2.5 0-1.6 1.1-2.7 2.8-2.7 1.1 0 2 .5 2.6 1.1l-1 1.5c-.5-.4-1.1-.7-1.6-.7-.6 0-.9.3-.9.7 0 .5.7.7 1.5 1.1.9.4 2 1 2 2.6 0 1.5-1.1 2.7-3.1 2.7-.8 0-1.9-.5-2.6-1.2zM47 151.9c0-2.8 1.7-4.4 3.6-4.4s3.6 1.6 3.6 4.4c0 2.8-1.7 4.4-3.6 4.4s-3.6-1.6-3.6-4.4zm5 0c0-1.5-.5-2.4-1.4-2.4-.9 0-1.4 1-1.4 2.4 0 1.5.5 2.4 1.4 2.4.9 0 1.4-.9 1.4-2.4zM55.1 147.7l1.1-.1h3.4v2h-4.5v-1.9zm1-.5c0-1.8.7-3.3 2.7-3.3.6 0 1.2.2 1.5.3l-.4 1.9c-.3-.1-.5-.2-.8-.2-.5 0-.9.3-.9 1.2v9H56v-8.9zM65.8 155.2l-.2.9h-1.7v-12h2.2v2.9l-.1 1.3c.6-.6 1.3-.9 2-.9 1.8 0 2.9 1.7 2.9 4.3 0 2.9-1.5 4.6-3.1 4.6-.7 0-1.4-.3-2-1.1zm2.9-3.4c0-1.5-.4-2.3-1.3-2.3-.5 0-.9.2-1.3.8v3.5c.4.4.8.5 1.2.5.7 0 1.4-.8 1.4-2.5zM72.5 147.7h1.8l.2 1.5h.1c.5-1.1 1.4-1.7 2.1-1.7.4 0 .7.1.9.2l-.4 2.2c-.3-.1-.5-.1-.8-.1-.6 0-1.2.4-1.6 1.6v4.9h-2.2v-8.6zM78 151.9c0-2.8 1.7-4.4 3.5-4.4 2.1 0 3.2 1.8 3.2 4.1 0 .5 0 .9-.1 1.1h-4.5c.2 1.2.9 1.8 1.9 1.8.6 0 1.1-.2 1.6-.6l.7 1.5c-.8.6-1.8 1-2.6 1-2-.1-3.7-1.7-3.7-4.5zm4.8-.9c0-.9-.4-1.6-1.2-1.6-.7 0-1.3.5-1.5 1.6h2.7zM85.9 153.8c0-1.8 1.2-2.8 4.2-3.1 0-.7-.4-1.2-1.2-1.2-.6 0-1.2.3-2 .8l-.8-1.6c.9-.7 2-1.1 3.2-1.1 1.9 0 3 1.2 3 3.8v4.8h-1.8l-.2-.9h-.1c-.6.6-1.3 1.1-2.2 1.1-1.2-.1-2.1-1.2-2.1-2.6zm4.2-.1v-1.5c-1.6.2-2.1.8-2.1 1.4 0 .5.3.8.9.8.5 0 .8-.3 1.2-.7zM94.5 153v-3.4h-1v-1.9l1.1-.1.3-2.3h1.8v2.3h1.8v2h-1.8v3.4c0 1 .4 1.3 1 1.3.2 0 .5-.1.7-.2l.3 1.8c-.4.1-.9.3-1.7.3-1.8.1-2.5-1.2-2.5-3.2zM99.9 144.2h2.2v2.9l-.1 1.5c.6-.6 1.3-1.2 2.3-1.2 1.6 0 2.3 1.3 2.3 3.4v5.3h-2.2v-4.9c0-1.2-.3-1.6-.9-1.6-.6 0-.9.3-1.4.8v5.7h-2.2v-11.9z"/><g><path d="M353.4 136.3h2.6l3.1 11.1h-2.3l-1.3-5.6c-.3-1.1-.5-2.4-.8-3.6h-.1c-.2 1.2-.5 2.5-.8 3.6l-1.3 5.6h-2.3l3.2-11.1zm-1.1 6.5h4.7v2h-4.7v-2zM360 138.9h1.8l.2 1.1h.1c.6-.7 1.4-1.3 2.4-1.3 1.6 0 2.3 1.3 2.3 3.4v5.3h-2.2v-4.9c0-1.2-.3-1.6-.9-1.6-.6 0-.9.3-1.4.8v5.7H360v-8.5zM370.1 143l-2.2-4.1h2.4l.7 1.4c.2.5.4 1 .6 1.4h.1c.2-.5.3-1 .5-1.4l.5-1.4h2.3l-2.2 4.4 2.3 4.1h-2.4l-.7-1.4c-.2-.5-.5-1-.7-1.5h-.1l-.6 1.5-.6 1.4h-2.3l2.4-4.4zM376.1 136.4c0-.8.5-1.3 1.3-1.3.7 0 1.3.5 1.3 1.3s-.5 1.3-1.3 1.3-1.3-.5-1.3-1.3zm.2 2.5h2.2v8.5h-2.2v-8.5zM380 143.2c0-2.8 1.7-4.4 3.5-4.4 2.1 0 3.2 1.8 3.2 4.1 0 .5 0 .9-.1 1.1h-4.5c.2 1.2.9 1.8 1.9 1.8.6 0 1.1-.2 1.6-.6l.7 1.5c-.8.6-1.8 1-2.6 1-2.1-.1-3.7-1.7-3.7-4.5zm4.8-.9c0-.9-.4-1.6-1.2-1.6-.7 0-1.3.5-1.5 1.6h2.7zM388.5 144.3v-3.4h-1V139l1.1-.1.3-2.3h1.8v2.3h1.8v2h-1.8v3.4c0 1 .4 1.3 1 1.3.2 0 .5-.1.7-.2l.3 1.8c-.4.1-.9.3-1.7.3-1.8.1-2.5-1.2-2.5-3.2zM393.7 150.6l.4-1.9c.1 0 .3.1.5.1.7 0 1.1-.5 1.3-1.1l.1-.4-2.9-8.3h2.2l1.1 3.6.6 2.4h.1c.2-.8.3-1.6.5-2.4l.9-3.6h2.1l-2.6 8.6c-.7 2.1-1.5 3.2-3.3 3.2-.4-.1-.7-.1-1-.2z"/></g><path d="M65.7 93.9c89.4-44.7 194.6-47.9 286.5-8.8l-8.7 20.2 55.7-18L374 34.6l-8.7 20.2c-100.9-43-216.4-39.4-314.5 9.6l14.9 29.5zM387.7 190.2c-89.2 45.1-194.4 48.7-286.5 10l8.6-20.3-55.6 18.3 25.5 52.7 8.6-20.3c101.1 42.5 216.6 38.5 314.4-11l-15-29.4z"/></svg>