<svg version="1.1" xmlns="http://www.w3.org/2000/svg" xmlns:xlink="http://www.w3.org/1999/xlink" x="0" y="0" viewBox="0 0 428.51 94.87" xml:space="preserve"><path fill-rule="evenodd" clip-rule="evenodd" d="M182.87 29.14h8.28v4.8h-8.28z"/><path d="M429.07 29.57c.02-.14.04-.29.07-.43H191.03v4.8h238.19c-.64-1.35-.68-2.98-.15-4.37z" fill-rule="evenodd" clip-rule="evenodd" fill="#fff"/><defs><path id="a" d="M166.55 13.54h8.16v52.2h-8.16z"/></defs><clipPath id="b"><use xlink:href="#a" overflow="visible"/></clipPath><g clip-path="url(#b)"><path d="M170.62 54.08l.1-.41c.34.09.59.24.77.46.18.22.26.5.26.82 0 .33-.07.6-.2.81-.14.21-.33.37-.59.48-.26.11-.53.16-.83.16-.32 0-.6-.06-.84-.18s-.42-.3-.55-.52-.19-.48-.19-.75c0-.31.08-.57.24-.78.16-.21.38-.36.66-.44l.09.4c-.23.07-.39.18-.49.31-.1.14-.15.31-.15.51 0 .24.06.44.17.6s.27.27.46.34c.19.06.39.1.59.1.26 0 .49-.04.69-.11s.34-.2.44-.36.15-.34.15-.53c0-.23-.07-.42-.2-.58-.12-.17-.32-.28-.58-.33zM170.2 53.29c-.51 0-.92-.14-1.21-.41-.29-.28-.44-.63-.44-1.07 0-.29.07-.54.2-.77.14-.23.33-.4.57-.52.24-.12.52-.18.83-.18.31 0 .59.06.84.19s.43.31.56.54.19.48.19.75c0 .29-.07.55-.21.78-.14.23-.33.4-.58.52-.22.11-.48.17-.75.17zm.01-.43c.37 0 .67-.1.88-.3.21-.2.32-.45.32-.75 0-.31-.11-.56-.32-.76-.22-.2-.52-.3-.92-.3-.25 0-.47.04-.66.13-.19.08-.33.21-.44.37-.1.16-.16.35-.16.55 0 .29.1.54.3.75.2.21.53.31 1 .31zM171.71 49.81h-3.09v-.42l2.43-1.62h-2.43v-.39h3.09v.42l-2.43 1.62h2.43v.39zM171.71 45.9h-2.73v1.02h-.36v-2.45h.36v1.02h2.73v.41zM171.71 44.04h-3.09v-1.37c0-.28.03-.48.08-.63.06-.14.15-.26.29-.34s.3-.13.47-.13c.22 0 .4.07.55.21s.25.36.29.66c.05-.11.1-.19.15-.25.11-.12.25-.23.41-.34l.84-.54v.51l-.64.41c-.19.12-.33.22-.43.3-.1.08-.17.15-.21.21-.04.06-.07.12-.08.19-.01.05-.01.12-.01.23v.47h1.37v.41zm-1.73-.41v-.88c0-.19-.02-.33-.06-.44s-.1-.19-.19-.24-.18-.08-.28-.08c-.15 0-.27.05-.36.16-.09.11-.14.27-.14.5v.98h1.03zM171.71 41.26l-3.09-1.19v-.44l3.09-1.27v.47l-.94.36v1.29l.94.34v.44zm-1.27-.89v-1.05l-.86.32c-.26.1-.47.17-.64.22.2.04.4.09.59.17l.91.34zM170.62 35.84l.1-.41c.34.09.59.24.77.46.18.22.26.5.26.82 0 .33-.07.6-.2.81-.14.21-.33.37-.59.48-.26.11-.53.16-.83.16-.32 0-.6-.06-.84-.18s-.42-.3-.55-.52-.19-.48-.19-.75c0-.31.08-.57.24-.78.16-.21.38-.36.66-.44l.09.4c-.23.07-.39.18-.49.31-.1.14-.15.31-.15.51 0 .24.06.44.17.6s.27.27.46.34c.19.06.39.1.59.1.26 0 .49-.04.69-.11s.34-.2.44-.36.15-.34.15-.53c0-.23-.07-.42-.2-.58-.12-.17-.32-.28-.58-.33zM171.71 34.14h-2.73v1.02h-.36V32.7h.36v1.02h2.73v.42zM171.71 32.21h-3.09v-.41h3.09v.41zM170.2 31.21c-.51 0-.92-.14-1.21-.41-.29-.28-.44-.63-.44-1.07 0-.29.07-.54.2-.77.14-.23.33-.4.57-.52.24-.12.52-.18.83-.18.31 0 .59.06.84.19s.43.31.56.54.19.48.19.75c0 .29-.07.55-.21.78-.14.23-.33.4-.58.52-.22.11-.48.17-.75.17zm.01-.42c.37 0 .67-.1.88-.3.21-.2.32-.45.32-.75 0-.31-.11-.56-.32-.76-.22-.2-.52-.3-.92-.3-.25 0-.47.04-.66.13-.19.08-.33.21-.44.37-.1.16-.16.35-.16.55 0 .29.1.54.3.75.2.2.53.31 1 .31zM171.71 27.73h-3.09v-.42l2.43-1.62h-2.43v-.39h3.09v.42l-2.43 1.62h2.43v.39zM170.71 24.74l-.03-.39c.15-.02.28-.06.38-.13a.7.7 0 0 0 .24-.31c.06-.14.09-.3.09-.47 0-.16-.02-.29-.07-.41s-.11-.21-.19-.27a.432.432 0 0 0-.26-.09c-.1 0-.18.03-.25.08s-.13.15-.18.28c-.03.08-.08.27-.15.55-.07.28-.13.48-.19.6a.79.79 0 0 1-.29.33.78.78 0 0 1-.83-.02.81.81 0 0 1-.31-.39c-.07-.17-.11-.36-.11-.57 0-.23.04-.43.11-.61s.18-.31.33-.4.31-.14.49-.15l.03.39c-.2.02-.34.09-.44.21-.1.12-.15.3-.15.54 0 .25.04.43.14.54s.2.17.33.17c.11 0 .2-.04.27-.12.07-.08.15-.28.22-.62s.14-.56.2-.68c.08-.18.19-.31.32-.4.13-.09.27-.13.44-.13.16 0 .32.05.46.14s.26.23.34.41c.08.18.12.38.12.6 0 .28-.04.51-.12.7-.08.19-.2.34-.37.45-.17.11-.36.17-.57.17z"/></g><defs><path id="c" d="M174.71 13.54h48.96v6.24h-48.96z"/></defs><clipPath id="d"><use xlink:href="#c" overflow="visible"/></clipPath><g clip-path="url(#d)"><path d="M185.17 17.37l.41.1c-.09.34-.24.59-.46.77-.22.18-.5.26-.82.26-.33 0-.6-.07-.81-.2-.21-.14-.37-.33-.48-.59-.11-.26-.16-.53-.16-.83 0-.32.06-.6.18-.84s.3-.42.52-.55.48-.19.75-.19c.31 0 .57.08.78.24.21.16.36.38.44.66l-.4.09c-.07-.23-.18-.39-.31-.49a.854.854 0 0 0-.51-.15c-.24 0-.44.06-.6.17s-.27.27-.34.46c-.06.19-.1.39-.1.59 0 .26.04.49.11.69s.2.34.36.44.34.15.53.15c.23 0 .42-.07.58-.2.16-.12.27-.32.33-.58zM185.96 16.95c0-.51.14-.92.41-1.21.28-.29.63-.44 1.07-.44.29 0 .54.07.77.2.23.14.4.33.52.57.12.24.18.52.18.83 0 .31-.06.59-.19.84s-.31.43-.54.56-.48.19-.75.19c-.29 0-.55-.07-.78-.21-.23-.14-.4-.33-.52-.58-.12-.22-.17-.48-.17-.75zm.42 0c0 .37.1.67.3.88.2.21.45.32.75.32.31 0 .56-.11.76-.32.2-.22.3-.52.3-.92 0-.25-.04-.47-.13-.66a.998.998 0 0 0-.37-.44c-.16-.1-.35-.16-.55-.16-.29 0-.54.1-.75.3-.21.21-.31.54-.31 1zM189.44 18.45v-3.09h.42l1.62 2.43v-2.43h.39v3.09h-.42l-1.62-2.43v2.43h-.39zM193.35 18.45v-2.73h-1.02v-.36h2.45v.36h-1.02v2.73h-.41zM195.09 18.45v-3.09h1.37c.28 0 .48.03.63.08.14.06.26.15.34.29s.13.3.13.47c0 .22-.07.4-.21.55s-.36.25-.66.29c.11.05.19.1.25.15.12.11.23.25.34.41l.54.84h-.51l-.41-.64c-.12-.19-.22-.33-.3-.43-.08-.1-.15-.17-.21-.21a.455.455 0 0 0-.19-.08c-.05-.01-.12-.01-.23-.01h-.47v1.37h-.41zm.41-1.72h.88c.19 0 .33-.02.44-.06s.19-.1.24-.19.08-.18.08-.28c0-.15-.05-.27-.16-.36-.11-.09-.27-.14-.5-.14h-.98v1.03zM197.86 18.45l1.19-3.09h.44l1.27 3.09h-.47l-.36-.94h-1.29l-.34.94h-.44zm.89-1.27h1.05l-.32-.86c-.1-.26-.17-.47-.22-.64-.04.2-.09.4-.17.59l-.34.91zM203.17 17.37l.41.1c-.09.34-.24.59-.46.77-.22.18-.5.26-.82.26-.33 0-.6-.07-.81-.2-.21-.14-.37-.33-.48-.59-.11-.26-.16-.53-.16-.83 0-.32.06-.6.18-.84s.3-.42.52-.55.48-.19.75-.19c.31 0 .57.08.78.24.21.16.36.38.44.66l-.4.09c-.07-.23-.18-.39-.31-.49a.854.854 0 0 0-.51-.15c-.24 0-.44.06-.6.17s-.27.27-.34.46c-.06.19-.1.39-.1.59 0 .26.04.49.11.69s.2.34.36.44.34.15.53.15c.23 0 .42-.07.58-.2.17-.12.28-.32.33-.58zM204.87 18.45v-2.73h-1.02v-.36h2.45v.36h-1.02v2.73h-.41zM206.68 18.45v-3.09h.41v3.09h-.41zM207.57 16.95c0-.51.14-.92.41-1.21.28-.29.63-.44 1.07-.44.29 0 .54.07.77.2.23.14.4.33.52.57.12.24.18.52.18.83 0 .31-.06.59-.19.84s-.31.43-.54.56-.48.19-.75.19c-.29 0-.55-.07-.78-.21-.23-.14-.4-.33-.52-.58-.11-.22-.17-.48-.17-.75zm.42 0c0 .37.1.67.3.88.2.21.45.32.75.32.31 0 .56-.11.76-.32.2-.22.3-.52.3-.92 0-.25-.04-.47-.13-.66a.998.998 0 0 0-.37-.44c-.16-.1-.35-.16-.55-.16-.29 0-.54.1-.75.3-.21.21-.31.54-.31 1zM211.05 18.45v-3.09h.42l1.62 2.43v-2.43h.39v3.09h-.42l-1.62-2.43v2.43h-.39zM214.03 17.46l.39-.03c.02.15.06.28.13.38.07.1.17.18.31.24.14.06.3.09.47.09.16 0 .29-.02.41-.07s.21-.11.27-.19c.06-.08.09-.17.09-.26 0-.1-.03-.18-.08-.25s-.15-.13-.28-.18a7.17 7.17 0 0 0-.55-.15c-.28-.07-.48-.13-.6-.19a.79.79 0 0 1-.33-.29.78.78 0 0 1 .02-.83.81.81 0 0 1 .39-.31c.17-.07.36-.11.57-.11.23 0 .43.04.61.11s.31.18.4.33.14.31.15.49l-.39.03c-.02-.2-.09-.34-.21-.44-.12-.1-.3-.15-.54-.15-.25 0-.43.04-.54.14s-.17.2-.17.33c0 .11.04.2.12.27.08.07.28.15.62.22s.56.14.68.2c.18.08.31.19.4.32.09.13.13.27.13.44 0 .16-.05.32-.14.46s-.23.26-.41.34c-.18.08-.38.12-.6.12-.28 0-.51-.04-.7-.12a.963.963 0 0 1-.45-.37 1.15 1.15 0 0 1-.17-.57z"/></g><defs><path id="e" d="M223.67 16.65h8.16v6.24h-8.16z"/></defs><clipPath id="f"><use xlink:href="#e" overflow="visible"/></clipPath><g clip-path="url(#f)"><path d="M227.2 20.81l.38-.03c.03.18.09.32.19.41s.22.14.37.14c.17 0 .32-.06.44-.2.12-.13.18-.3.18-.52 0-.2-.06-.37-.17-.48a.595.595 0 0 0-.45-.18.62.62 0 0 0-.31.08c-.09.05-.17.12-.22.2l-.34-.04.28-1.5H229v.34h-1.17l-.16.79c.18-.12.36-.18.55-.18.25 0 .47.09.65.27s.26.4.26.68c0 .26-.08.49-.23.69-.19.24-.44.35-.77.35-.27 0-.48-.07-.65-.22s-.26-.35-.28-.6z"/></g><defs><path id="g" d="M174.71 19.78h48.96v6.24h-48.96z"/></defs><clipPath id="h"><use xlink:href="#g" overflow="visible"/></clipPath><g clip-path="url(#h)"><path d="M182.36 24.7v-3.1h1.17c.21 0 .36.01.47.03.15.03.28.07.38.14.1.07.19.17.25.3.06.13.09.27.09.42 0 .26-.08.49-.25.67-.17.18-.47.27-.91.27h-.79v1.26h-.41zm.41-1.63h.8c.26 0 .45-.05.56-.15.11-.1.17-.24.17-.42 0-.13-.03-.24-.1-.33s-.15-.15-.26-.18c-.07-.02-.2-.03-.38-.03h-.79v1.11zM185.25 24.7v-3.1h2.24v.36h-1.83v.95h1.71v.36h-1.71v1.05h1.9v.36h-2.31zM188.13 24.7v-3.1h1.37c.28 0 .48.03.63.08.14.06.26.15.34.29s.13.3.13.47c0 .22-.07.4-.21.55s-.36.25-.66.29c.11.05.19.1.25.15.12.11.23.25.34.41l.54.84h-.51l-.41-.64c-.12-.19-.22-.33-.3-.43-.08-.1-.15-.17-.21-.21a.455.455 0 0 0-.19-.08c-.05-.01-.12-.01-.23-.01h-.47v1.37h-.41zm.41-1.73h.88c.19 0 .33-.02.44-.06s.19-.1.24-.19.08-.18.08-.28c0-.15-.05-.27-.16-.36-.11-.09-.27-.14-.5-.14h-.98v1.03zM193.72 24.7h-.38v-2.42c-.09.09-.21.17-.36.26s-.28.15-.4.2v-.37c.21-.1.4-.22.56-.36.16-.14.27-.28.34-.41h.24v3.1zM194.69 23.17c0-.37.04-.66.11-.88.08-.22.19-.4.34-.52.15-.12.33-.18.56-.18.17 0 .31.03.44.1s.23.16.31.29.15.28.19.46.07.42.07.73a3 3 0 0 1-.11.88c-.07.22-.19.4-.33.52-.15.12-.34.18-.56.18-.3 0-.53-.11-.7-.32-.22-.26-.32-.68-.32-1.26zm.39 0c0 .51.06.85.18 1.01.12.17.27.25.44.25s.32-.08.44-.25c.12-.17.18-.51.18-1.01 0-.51-.06-.85-.18-1.01-.12-.17-.27-.25-.44-.25-.17 0-.31.07-.42.22-.13.18-.2.53-.2 1.04zM198.44 24.7v-3.1h.62l.73 2.19c.07.2.12.36.15.46.03-.11.09-.28.16-.5l.74-2.15h.55v3.09H201V22.1l-.9 2.59h-.37l-.89-2.63v2.63h-.4zM202 24.7v-3.1h.41v3.09H202zM203.01 24.7v-3.1h.42l1.62 2.43V21.6h.39v3.09h-.42l-1.62-2.43v2.43h-.39zM208.16 21.6h.41v1.79c0 .31-.04.56-.11.74-.07.18-.2.33-.38.45s-.42.17-.72.17c-.29 0-.53-.05-.71-.15a.818.818 0 0 1-.39-.43c-.08-.19-.12-.45-.12-.78V21.6h.41v1.78c0 .27.02.47.07.59.05.13.14.23.26.29s.27.1.45.1c.3 0 .52-.07.64-.2s.19-.4.19-.79V21.6zM210.04 24.7v-2.73h-1.02v-.37h2.45v.36h-1.02v2.73h-.41zM211.78 24.7v-3.1h2.24v.36h-1.83v.95h1.71v.36h-1.71v1.05h1.9v.36h-2.31zM214.52 23.7l.39-.03c.02.15.06.28.13.38.07.1.17.18.31.24.14.06.3.09.47.09.16 0 .29-.02.41-.07s.21-.11.27-.19c.06-.08.09-.17.09-.26 0-.1-.03-.18-.08-.25s-.15-.13-.28-.18a7.17 7.17 0 0 0-.55-.15c-.28-.07-.48-.13-.6-.19a.79.79 0 0 1-.33-.29.78.78 0 0 1 .02-.83.81.81 0 0 1 .39-.31c.17-.07.36-.11.57-.11.23 0 .43.04.61.11s.31.18.4.33.14.31.15.49l-.39.03c-.02-.2-.09-.34-.21-.44-.12-.1-.3-.15-.54-.15-.25 0-.43.04-.54.14s-.17.2-.17.33c0 .11.04.2.12.27.08.07.28.15.62.22s.56.14.68.2c.18.08.31.19.4.32.09.13.13.27.13.44 0 .16-.05.32-.14.46s-.23.26-.41.34c-.18.08-.38.12-.6.12-.28 0-.51-.04-.7-.12a.963.963 0 0 1-.45-.37c-.11-.18-.17-.36-.17-.57z"/></g><defs><path id="i" d="M223.67 22.9h8.16v6.24h-8.16z"/></defs><clipPath id="j"><use xlink:href="#i" overflow="visible"/></clipPath><g clip-path="url(#j)"><path d="M228.35 27.81v-.7h-1.27v-.33l1.33-1.89h.29v1.89h.39v.33h-.39v.7h-.35zm0-1.02v-1.32l-.91 1.32h.91z"/></g><defs><path id="k" d="M191.03 29.14h32.64v4.68h-32.64z"/></defs><clipPath id="l"><use xlink:href="#k" overflow="visible"/></clipPath><g clip-path="url(#l)"><path d="M194.26 31.22l-1.93.83v-.36l1.53-.64-1.53-.63v-.36l1.93.82v.34zM196.91 32.49v-.7h-1.27v-.33l1.33-1.89h.29v1.89h.39v.33h-.39v.7h-.35zm0-1.02v-1.32l-.91 1.32h.91zM198.04 31.05c0-.35.04-.62.11-.83.07-.21.18-.37.32-.49s.32-.17.53-.17c.16 0 .29.03.41.09s.22.15.29.27c.08.12.14.26.18.43.04.17.07.4.07.69 0 .34-.04.62-.11.83-.07.21-.18.37-.32.49s-.32.17-.53.17c-.28 0-.5-.1-.66-.3-.2-.23-.29-.63-.29-1.18zm.37 0c0 .48.06.8.17.96.11.16.25.24.42.24s.3-.08.42-.24c.11-.16.17-.48.17-.96s-.06-.8-.17-.96c-.11-.16-.25-.24-.42-.24-.16 0-.3.07-.39.21-.14.19-.2.52-.2.99zM201.35 31.86l.35-.06c.02.14.08.25.17.33.09.08.22.11.38.11.17 0 .29-.03.37-.1s.12-.15.12-.24c0-.08-.04-.15-.11-.19-.05-.03-.17-.07-.37-.12-.26-.07-.45-.12-.55-.17s-.18-.12-.23-.2a.566.566 0 0 1-.02-.54c.04-.08.1-.15.18-.2.06-.04.13-.08.23-.1.1-.03.2-.04.31-.04.17 0 .31.02.44.07s.22.11.28.19c.06.08.1.19.12.33l-.35.05a.37.37 0 0 0-.14-.25.507.507 0 0 0-.32-.09c-.17 0-.28.03-.35.08a.24.24 0 0 0-.11.19c0 .05.01.09.04.13.03.04.08.07.14.1.04.01.14.04.32.09.25.07.43.12.53.17.1.04.18.11.24.19s.09.18.09.31c0 .12-.04.23-.1.34-.07.11-.17.19-.3.24-.13.06-.28.09-.45.09-.27 0-.48-.06-.63-.17s-.24-.31-.28-.54zM204.99 31.81l.37.05c-.06.22-.17.38-.32.5-.16.12-.36.18-.61.18-.31 0-.55-.1-.74-.29-.18-.19-.27-.46-.27-.8 0-.36.09-.63.27-.83s.42-.29.71-.29c.28 0 .51.1.69.29.18.19.27.46.27.81v.1h-1.58c.01.23.08.41.2.53a.613.613 0 0 0 .78.09c.1-.07.17-.18.23-.34zm-1.18-.58h1.18c-.02-.18-.06-.31-.14-.4a.536.536 0 0 0-.44-.21c-.16 0-.3.06-.42.17-.11.11-.17.26-.18.44zM207.08 31.72l.35.05c-.04.24-.14.43-.3.57-.16.14-.35.21-.58.21-.29 0-.52-.09-.7-.28-.18-.19-.26-.46-.26-.81 0-.23.04-.43.11-.6s.19-.3.35-.39c.15-.09.32-.13.5-.13.23 0 .42.06.56.17s.24.28.28.5l-.35.05c-.03-.14-.09-.25-.18-.32s-.19-.11-.31-.11c-.18 0-.33.06-.44.19s-.17.33-.17.61c0 .28.05.49.16.62s.25.19.43.19c.14 0 .26-.04.35-.13s.18-.21.2-.39z"/></g><defs><path id="m" d="M223.67 29.14h8.16v6.24h-8.16z"/></defs><clipPath id="n"><use xlink:href="#m" overflow="visible"/></clipPath><g clip-path="url(#n)"><path d="M227.2 33.28l.36-.05c.04.2.11.35.21.44.1.09.22.13.36.13.17 0 .31-.06.43-.18s.17-.26.17-.43c0-.17-.05-.3-.16-.41s-.24-.16-.41-.16c-.07 0-.15.01-.25.04l.04-.31h.06c.15 0 .29-.04.41-.12.12-.08.18-.2.18-.37a.445.445 0 0 0-.47-.46c-.14 0-.26.04-.35.13a.71.71 0 0 0-.18.39l-.36-.06c.04-.24.14-.43.3-.56.16-.13.35-.2.58-.2.16 0 .31.03.44.1s.24.16.31.28c.07.12.11.24.11.38 0 .13-.03.24-.1.34-.07.1-.17.19-.3.25.17.04.31.12.4.25s.14.28.14.47c0 .26-.09.47-.28.65-.19.18-.42.27-.71.27a.93.93 0 0 1-.64-.23.798.798 0 0 1-.29-.58z"/></g><defs><path id="o" d="M191.03 35.38h32.64v4.68h-32.64z"/></defs><clipPath id="p"><use xlink:href="#o" overflow="visible"/></clipPath><g clip-path="url(#p)"><path d="M194.26 37.46l-1.93.83v-.36l1.53-.64-1.53-.63v-.36l1.93.82v.34zM197.64 38.39v.34h-1.93c0-.09.01-.17.04-.25.05-.13.13-.26.24-.39.11-.13.26-.27.47-.44.32-.26.53-.47.64-.62.11-.15.17-.3.17-.43 0-.14-.05-.26-.15-.36s-.23-.15-.4-.15-.31.05-.41.16c-.1.1-.16.25-.16.43l-.37-.04c.02-.27.12-.48.28-.63s.39-.22.66-.22c.28 0 .5.08.67.23.16.16.25.35.25.58 0 .12-.02.23-.07.34-.05.11-.13.23-.24.36s-.3.3-.55.51c-.22.18-.35.3-.41.37s-.11.13-.15.19h1.42zM198.04 37.29c0-.35.04-.62.11-.83.07-.21.18-.37.32-.49s.32-.17.53-.17c.16 0 .29.03.41.09s.22.15.29.27c.08.12.14.26.18.43.04.17.07.4.07.69 0 .34-.04.62-.11.83-.07.21-.18.37-.32.49s-.32.17-.53.17c-.28 0-.5-.1-.66-.3-.2-.23-.29-.63-.29-1.18zm.37 0c0 .48.06.8.17.96s.25.24.42.24.3-.08.42-.24c.11-.16.17-.48.17-.96s-.06-.8-.17-.96c-.11-.16-.25-.24-.42-.24-.16 0-.3.07-.39.21-.14.19-.2.52-.2.99zM201.36 37.86v-.36h1.1v.36h-1.1zM204.96 38.74v-.7h-1.27v-.33l1.33-1.89h.29v1.89h.39v.33h-.39v.7h-.35zm0-1.03v-1.32l-.91 1.32h.91zM206.08 37.29c0-.35.04-.62.11-.83.07-.21.18-.37.32-.49s.32-.17.53-.17c.16 0 .29.03.41.09s.22.15.29.27c.08.12.14.26.18.43.04.17.07.4.07.69 0 .34-.04.62-.11.83-.07.21-.18.37-.32.49s-.32.17-.53.17c-.28 0-.5-.1-.66-.3-.19-.23-.29-.63-.29-1.18zm.37 0c0 .48.06.8.17.96s.25.24.42.24.3-.08.42-.24c.11-.16.17-.48.17-.96s-.06-.8-.17-.96c-.11-.16-.25-.24-.42-.24-.16 0-.3.07-.39.21-.14.19-.2.52-.2.99zM209.4 38.1l.35-.06c.02.14.08.25.17.33.09.08.22.11.38.11.17 0 .29-.03.37-.1s.12-.15.12-.24c0-.08-.04-.15-.11-.19-.05-.03-.17-.07-.37-.12-.26-.07-.45-.12-.55-.17s-.18-.12-.23-.2a.566.566 0 0 1-.02-.54c.04-.08.1-.15.18-.2.06-.04.13-.08.23-.1.1-.03.2-.04.31-.04.17 0 .31.02.44.07s.22.11.28.19c.06.08.1.19.12.33l-.35.05a.37.37 0 0 0-.14-.25.507.507 0 0 0-.32-.09c-.17 0-.28.03-.35.08a.24.24 0 0 0-.11.19c0 .05.01.09.04.13.03.04.08.07.14.1.04.01.14.04.32.09.25.07.43.12.53.17.1.04.18.11.24.19s.09.18.09.31c0 .12-.04.23-.1.34-.07.11-.17.19-.3.24-.13.06-.28.09-.45.09-.27 0-.48-.06-.63-.17s-.24-.31-.28-.54zM213.03 38.05l.37.05c-.06.22-.17.38-.32.5-.16.12-.36.18-.61.18-.31 0-.55-.1-.74-.29-.18-.19-.27-.46-.27-.8 0-.36.09-.63.27-.83s.42-.29.71-.29c.28 0 .51.1.69.29.18.19.27.46.27.81v.1h-1.58c.01.23.08.41.2.53a.613.613 0 0 0 .78.09c.1-.07.18-.18.23-.34zm-1.17-.58h1.18c-.02-.18-.06-.31-.14-.4a.536.536 0 0 0-.44-.21c-.16 0-.3.06-.42.17-.11.11-.17.26-.18.44zM215.13 37.96l.35.05c-.04.24-.14.43-.3.57-.16.14-.35.21-.58.21-.29 0-.52-.09-.7-.28-.18-.19-.26-.46-.26-.81 0-.23.04-.43.11-.6s.19-.3.35-.39c.15-.09.32-.13.5-.13.23 0 .42.06.56.17s.24.28.28.5l-.35.05c-.03-.14-.09-.25-.18-.32s-.19-.11-.31-.11c-.18 0-.33.06-.44.19s-.17.33-.17.61c0 .28.05.49.16.62s.25.19.43.19c.14 0 .26-.04.35-.13s.17-.21.2-.39z"/></g><defs><path id="q" d="M223.67 35.37h8.16v6.24h-8.16z"/></defs><clipPath id="r"><use xlink:href="#q" overflow="visible"/></clipPath><g clip-path="url(#r)"><path d="M229.08 39.95v.34h-1.93c0-.09.01-.17.04-.25.05-.13.13-.26.24-.39.11-.13.26-.27.47-.44.32-.26.53-.47.64-.62.11-.15.17-.3.17-.43 0-.14-.05-.26-.15-.36s-.23-.15-.4-.15-.31.05-.41.16c-.1.1-.16.25-.16.43l-.37-.04c.02-.27.12-.48.28-.63s.39-.22.66-.22c.28 0 .5.08.67.23.16.16.25.35.25.58 0 .12-.02.23-.07.34-.05.11-.13.23-.24.36s-.3.3-.55.51c-.22.18-.35.3-.41.37s-.11.13-.15.19h1.42z"/></g><defs><path id="s" d="M191.03 41.62h32.64v4.68h-32.64z"/></defs><clipPath id="t"><use xlink:href="#s" overflow="visible"/></clipPath><g clip-path="url(#t)"><path d="M192.33 43.7v-.33l1.93-.82v.36l-1.53.63 1.53.64v.36l-1.93-.84zM197.64 44.63v.34h-1.93c0-.09.01-.17.04-.25.05-.13.13-.26.24-.39.11-.13.26-.27.47-.44.32-.26.53-.47.64-.62.11-.15.17-.3.17-.43 0-.14-.05-.26-.15-.36s-.23-.15-.4-.15-.31.05-.41.16c-.1.1-.16.25-.16.43l-.37-.04c.02-.27.12-.48.28-.63s.39-.22.66-.22c.28 0 .5.08.67.23.16.16.25.35.25.58 0 .12-.02.23-.07.34-.05.11-.13.23-.24.36s-.3.3-.55.51c-.22.18-.35.3-.41.37s-.11.13-.15.19h1.42zM198.04 43.53c0-.35.04-.62.11-.83.07-.21.18-.37.32-.49s.32-.17.53-.17c.16 0 .29.03.41.09s.22.15.29.27c.08.12.14.26.18.43.04.17.07.4.07.69 0 .34-.04.62-.11.83-.07.21-.18.37-.32.49s-.32.17-.53.17c-.28 0-.5-.1-.66-.3-.2-.23-.29-.63-.29-1.18zm.37 0c0 .48.06.8.17.96s.25.24.42.24.3-.08.42-.24c.11-.16.17-.48.17-.96s-.06-.8-.17-.96c-.11-.16-.25-.24-.42-.24-.16 0-.3.07-.39.21-.14.19-.2.52-.2.99zM201.35 44.34l.35-.06c.02.14.08.25.17.33.09.08.22.11.38.11.17 0 .29-.03.37-.1s.12-.15.12-.24c0-.08-.04-.15-.11-.19-.05-.03-.17-.07-.37-.12-.26-.07-.45-.12-.55-.17s-.18-.12-.23-.2a.566.566 0 0 1-.02-.54c.04-.08.1-.15.18-.2.06-.04.13-.08.23-.1.1-.03.2-.04.31-.04.17 0 .31.02.44.07s.22.11.28.19c.06.08.1.19.12.33l-.35.05a.37.37 0 0 0-.14-.25.507.507 0 0 0-.32-.09c-.17 0-.28.03-.35.08a.24.24 0 0 0-.11.19c0 .05.01.09.04.13.03.04.08.07.14.1.04.01.14.04.32.09.25.07.43.12.53.17.1.04.18.11.24.19s.09.18.09.31c0 .12-.04.23-.1.34-.07.11-.17.19-.3.24-.13.06-.28.09-.45.09-.27 0-.48-.06-.63-.17s-.24-.31-.28-.54zM204.99 44.29l.37.05c-.06.22-.17.38-.32.5-.16.12-.36.18-.61.18-.31 0-.55-.1-.74-.29-.18-.19-.27-.46-.27-.8 0-.36.09-.63.27-.83s.42-.29.71-.29c.28 0 .51.1.69.29.18.19.27.46.27.81v.1h-1.58c.01.23.08.41.2.53a.613.613 0 0 0 .78.09c.1-.07.17-.18.23-.34zm-1.18-.58h1.18c-.02-.18-.06-.31-.14-.4a.536.536 0 0 0-.44-.21c-.16 0-.3.06-.42.17-.11.11-.17.26-.18.44zM207.08 44.2l.35.05c-.04.24-.14.43-.3.57-.16.14-.35.21-.58.21-.29 0-.52-.09-.7-.28-.18-.19-.26-.46-.26-.81 0-.23.04-.43.11-.6s.19-.3.35-.39c.15-.09.32-.13.5-.13.23 0 .42.06.56.17s.24.28.28.5l-.35.05c-.03-.14-.09-.25-.18-.32s-.19-.11-.31-.11c-.18 0-.33.06-.44.19s-.17.33-.17.61c0 .28.05.49.16.62s.25.19.43.19c.14 0 .26-.04.35-.13s.18-.21.2-.39z"/></g><defs><path id="u" d="M223.67 41.62h8.16v6.24h-8.16z"/></defs><clipPath id="v"><use xlink:href="#u" overflow="visible"/></clipPath><g clip-path="url(#v)"><path d="M228.55 46.54h-.36v-2.29a2 2 0 0 1-.34.25c-.14.08-.27.14-.38.19v-.35c.2-.09.38-.21.53-.34s.26-.26.32-.39h.23v2.93z"/></g><path d="M180.68 59.07c0-.51.14-.92.41-1.21.28-.29.63-.44 1.07-.44.29 0 .54.07.77.2.23.14.4.33.52.57.12.24.18.52.18.83 0 .31-.06.59-.19.84s-.31.43-.54.56-.48.19-.75.19c-.29 0-.55-.07-.78-.21-.23-.14-.4-.33-.52-.58-.12-.22-.17-.48-.17-.75zm.42.01c0 .37.1.67.3.88.2.21.45.32.75.32.31 0 .56-.11.76-.32.2-.22.3-.52.3-.92 0-.25-.04-.47-.13-.66a.998.998 0 0 0-.37-.44c-.16-.1-.35-.16-.55-.16-.29 0-.54.1-.75.3-.21.2-.31.53-.31 1zM183.85 60.58l1.2-1.61-1.05-1.48h.49l.56.79c.12.16.2.29.25.38.07-.11.15-.23.24-.35l.62-.82h.44l-1.09 1.46 1.17 1.63h-.51l-.78-1.1c-.04-.06-.09-.13-.13-.21-.07.11-.12.19-.15.23l-.78 1.08h-.48zM187.8 60.58v-1.31l-1.19-1.78h.5l.61.93c.11.17.22.35.31.52.09-.16.21-.34.34-.55l.6-.91h.48l-1.23 1.78v1.31h-.42zM190.48 60.58v-2.73h-1.02v-.36h2.45v.36h-1.02v2.73h-.41zM192.09 59.07c0-.51.14-.92.41-1.21.28-.29.63-.44 1.07-.44.29 0 .54.07.77.2.23.14.4.33.52.57.12.24.18.52.18.83 0 .31-.06.59-.19.84s-.31.43-.54.56-.48.19-.75.19c-.29 0-.55-.07-.78-.21-.23-.14-.4-.33-.52-.58-.11-.22-.17-.48-.17-.75zm.42.01c0 .37.1.67.3.88.2.21.45.32.75.32.31 0 .56-.11.76-.32.2-.22.3-.52.3-.92 0-.25-.04-.47-.13-.66a.998.998 0 0 0-.37-.44c-.16-.1-.35-.16-.55-.16-.29 0-.54.1-.75.3-.21.2-.31.53-.31 1zM197.78 59.49l.41.1c-.09.34-.24.59-.46.77-.22.18-.5.26-.82.26-.33 0-.6-.07-.81-.2-.21-.14-.37-.33-.48-.59-.11-.26-.16-.53-.16-.83 0-.32.06-.6.18-.84s.3-.42.52-.55.48-.19.75-.19c.31 0 .57.08.78.24.21.16.36.38.44.66l-.4.09c-.07-.23-.18-.39-.31-.49a.854.854 0 0 0-.51-.15c-.24 0-.44.06-.6.17s-.27.27-.34.46c-.06.19-.1.39-.1.59 0 .26.04.49.11.69s.2.34.36.44.34.15.53.15c.23 0 .42-.07.58-.2.16-.12.27-.32.33-.58zM198.76 60.58v-3.09h.41v3.09h-.41zM199.77 60.58v-3.09h.42l1.62 2.43v-2.43h.39v3.09h-.42l-1.62-2.43v2.43h-.39z"/><defs><path id="w" d="M207.35 53.26h24.48v6.24h-24.48z"/></defs><clipPath id="x"><use xlink:href="#w" overflow="visible"/></clipPath><g clip-path="url(#x)"><path d="M221.83 55.08h.41v1.79c0 .31-.04.56-.11.74-.07.18-.2.33-.38.45s-.42.17-.72.17c-.29 0-.53-.05-.71-.15a.818.818 0 0 1-.39-.43c-.08-.19-.12-.45-.12-.78v-1.79h.41v1.78c0 .27.02.47.07.59.05.13.14.23.26.29s.27.1.45.1c.3 0 .52-.07.64-.2s.19-.4.19-.79v-1.77zM222.87 58.18v-2.24h.34v.32c.16-.25.4-.37.71-.37.14 0 .26.02.37.07.11.05.2.11.25.19.06.08.1.17.12.28.01.07.02.19.02.37v1.38h-.38v-1.36c0-.15-.01-.27-.04-.35a.314.314 0 0 0-.16-.18.462.462 0 0 0-.26-.07c-.16 0-.3.05-.42.15-.12.1-.18.3-.18.58v1.22h-.37zM225.16 55.52v-.44h.38v.44h-.38zm0 2.66v-2.24h.38v2.24h-.38zM226.82 57.84l.05.34c-.11.02-.2.03-.29.03-.14 0-.24-.02-.32-.06a.33.33 0 0 1-.16-.17c-.03-.07-.05-.22-.05-.45v-1.29h-.28v-.3h.28v-.55l.38-.23v.78h.38v.3h-.38v1.31c0 .11.01.18.02.21s.04.06.07.07c.03.02.07.03.13.03.05-.01.1-.01.17-.02zM227.04 57.51l.38-.06c.02.15.08.27.18.35s.23.12.4.12.3-.04.39-.11c.08-.07.13-.15.13-.25 0-.09-.04-.15-.11-.2a1.64 1.64 0 0 0-.39-.13c-.28-.07-.47-.13-.58-.18a.577.577 0 0 1-.25-.21.52.52 0 0 1-.08-.3c0-.1.02-.19.07-.28.05-.08.11-.16.19-.21.06-.04.14-.08.24-.11s.21-.05.33-.05c.18 0 .33.03.46.08s.23.12.29.21c.06.09.11.2.13.35l-.37.05a.404.404 0 0 0-.15-.27c-.08-.06-.2-.1-.34-.1-.17 0-.3.03-.37.09s-.11.13-.11.2c0 .05.02.09.05.13.03.04.08.07.15.1.04.01.15.05.33.1.27.07.46.13.56.18.11.05.19.11.25.2.06.09.09.2.09.32 0 .13-.04.25-.11.36-.07.11-.18.2-.32.26s-.3.09-.47.09c-.29 0-.51-.06-.67-.18a.909.909 0 0 1-.3-.55z"/></g><defs><path id="y" d="M207.35 59.49h24.48v6.24h-24.48z"/></defs><clipPath id="z"><use xlink:href="#y" overflow="visible"/></clipPath><g clip-path="url(#z)"><path d="M220.05 64.41v-3.09h1.37c.28 0 .48.03.63.08.14.06.26.15.34.29s.13.3.13.47c0 .22-.07.4-.21.55s-.36.25-.66.29c.11.05.19.1.25.15.12.11.23.25.34.41l.54.84h-.51l-.41-.64c-.12-.19-.22-.33-.3-.43-.08-.1-.15-.17-.21-.21a.455.455 0 0 0-.19-.08c-.05-.01-.12-.01-.23-.01h-.47v1.37h-.41zm.41-1.72h.88c.19 0 .33-.02.44-.06s.19-.1.24-.19.08-.18.08-.28c0-.15-.05-.27-.16-.36-.11-.09-.27-.14-.5-.14h-.98v1.03zM224.57 64.14c-.14.12-.28.2-.41.25-.13.05-.27.07-.42.07-.25 0-.44-.06-.57-.18a.597.597 0 0 1-.2-.46c0-.11.02-.21.07-.3s.12-.16.2-.22c.08-.06.17-.1.27-.12.07-.02.19-.04.34-.06.31-.04.53-.08.68-.13v-.1c0-.15-.04-.26-.11-.33-.1-.09-.24-.13-.43-.13-.18 0-.31.03-.4.09-.09.06-.15.17-.19.33l-.37-.05c.03-.16.09-.29.17-.38.08-.1.19-.17.34-.23.15-.05.32-.08.51-.08s.35.02.47.07c.12.04.21.1.26.17.06.07.1.15.12.26.01.06.02.18.02.35v.51c0 .35.01.58.02.67.02.09.05.18.1.27h-.4c-.03-.07-.05-.17-.07-.27zm-.03-.85c-.14.06-.34.1-.62.14-.16.02-.27.05-.33.08s-.11.07-.15.12c-.04.05-.05.11-.05.18 0 .1.04.19.12.25.08.07.19.1.34.1.15 0 .28-.03.39-.1s.2-.15.25-.26a.94.94 0 0 0 .06-.38v-.13zM226.34 64.08l.05.34c-.11.02-.2.03-.29.03-.14 0-.24-.02-.32-.06a.33.33 0 0 1-.16-.17c-.03-.07-.05-.22-.05-.45v-1.29h-.28v-.3h.28v-.55l.38-.23v.78h.38v.3h-.38v1.31c0 .11.01.18.02.21s.04.06.07.07c.03.02.07.03.13.03.05-.01.11-.01.17-.02zM228.25 63.69l.39.05c-.06.23-.18.41-.34.53s-.38.19-.64.19c-.33 0-.59-.1-.78-.3-.19-.2-.29-.48-.29-.85 0-.38.1-.67.29-.88.19-.21.45-.31.76-.31.3 0 .54.1.73.31s.28.49.28.86v.1h-1.67c.01.25.08.43.21.57.13.13.28.2.47.2.14 0 .26-.04.36-.11.09-.08.17-.2.23-.36zm-1.25-.61h1.25c-.02-.19-.06-.33-.14-.42a.573.573 0 0 0-.47-.22c-.17 0-.32.06-.44.17-.12.12-.18.27-.2.47z"/></g><path d="M166.79 11.02h260.16v.48H166.79zM166.79 13.3h260.16v.48H166.79zM232.07 19.53h194.88v.48H232.07zM232.07 25.78h194.88v.48H232.07zM232.07 32.02h194.88v.48H232.07zM182.63 28.89h.48v5.16h-.48zM190.79 29.38h.48v4.68h-.48zM232.07 38.25h194.88v.48H232.07zM182.63 35.14h.48v5.16h-.48zM190.79 35.62h.48v4.68h-.48zM232.07 44.5h194.88v.48H232.07zM174.95 50.74h252v.48h-252z"/><path d="M174.47 13.78h.48v37.44h-.48zM231.59 13.78h.48v37.44h-.48zM247.91 13.78h.48v37.44h-.48zM264.23 13.78h.48v37.44h-.48zM280.55 13.78h.48v37.44h-.48zM296.87 13.78h.48v37.44h-.48zM313.19 13.78h.48v37.44h-.48zM329.51 13.78h.48v37.44h-.48zM345.83 13.78h.48v37.44h-.48zM362.15 13.78h.48v37.44h-.48zM378.47 13.78h.48v37.44h-.48zM411.11 13.78h.48v37.44h-.48zM174.95 53.01h252v.48h-252zM207.59 59.26h219.36v.48H207.59zM166.79 65.5h260.16v.48H166.79zM166.31 13.3h.48v52.68h-.48z"/><path d="M174.47 53.02h.48v12.96h-.48zM231.59 53.5h.48v12.48h-.48zM247.91 53.5h.48v12.48h-.48zM264.23 53.5h.48v12.48h-.48zM280.55 53.5h.48v12.48h-.48zM296.87 53.5h.48v12.48h-.48zM313.19 53.5h.48v12.48h-.48zM329.51 53.5h.48v12.48h-.48zM345.83 53.5h.48v12.48h-.48zM362.15 53.5h.48v12.48h-.48zM378.47 53.5h.48v12.48h-.48zM411.11 53.5h.48v12.48h-.48zM207.11 53.5h.48v12.48h-.48zM182.63 41.38h.48v5.16h-.48zM190.79 41.86h.48v4.68h-.48zM183.11 28.89h8.16v.48h-8.16zM183.11 33.57h8.16v.48h-8.16zM183.11 35.14h8.16v.48h-8.16zM183.11 39.82h8.16v.48h-8.16zM183.11 41.38h8.16v.48h-8.16z"/><path d="M183.11 46.06h8.16v.48h-8.16z"/><path fill="none" stroke="#000" stroke-width=".405" stroke-linejoin="round" stroke-miterlimit="10" d="M185.08 35.2v4.37M187.13 35.2v4.37M182.76 35.2v4.37M189.19 35.2v4.37"/><path fill="none" stroke="#000" stroke-width=".405" stroke-linecap="round" stroke-linejoin="round" stroke-miterlimit="10" stroke-dasharray="0,.81" d="M183.39 42.38h7.53M182.76 43h7.79M182.76 43.94h7.79M183.39 44.56h7.16M182.76 45.5h7.79M182.76 41.44h7.79"/><path stroke="#000" stroke-miterlimit="10" d="M427.95 13.78V65.5"/><defs><path id="A" d="M2.79 11.02h308.27v76.04H2.79z"/></defs><clipPath id="B"><use xlink:href="#A" overflow="visible"/></clipPath><path d="M5.73 17.06c0 1.25.39 1.96.98 1.96.66 0 .98-.78.98-2.01 0-1.19-.3-1.96-.98-1.96-.56 0-.98.7-.98 2.01zm2.62-.08c0 1.64-.62 2.54-1.67 2.54-.94 0-1.58-.88-1.6-2.47 0-1.62.7-2.5 1.68-2.5 1 0 1.59.9 1.59 2.43zM11.5 17.86c0-.69-.39-1.1-.99-1.1-.39 0-.76.24-.94.59a.55.55 0 0 0-.07.28c.01.79.38 1.38 1.07 1.38.55.01.93-.46.93-1.15zm.18-2.77c-.13-.01-.3.01-.49.04-1.03.16-1.56.9-1.67 1.7h.01c.23-.31.64-.56 1.17-.56.85 0 1.45.62 1.45 1.56 0 .89-.6 1.7-1.61 1.7-1.02 0-1.7-.8-1.7-2.05 0-.95.33-1.7.81-2.17.4-.39.93-.64 1.54-.71.19-.03.36-.04.47-.04l.02.53zM12.79 19.06c0-.27.18-.47.44-.47.27 0 .44.19.44.47 0 .26-.17.46-.44.46-.26 0-.44-.2-.44-.46zm0-2.61c0-.27.18-.47.44-.47.27 0 .44.19.44.47 0 .26-.17.46-.44.46-.26 0-.44-.2-.44-.46zM14.85 17.06c0 1.25.39 1.96.98 1.96.66 0 .98-.78.98-2.01 0-1.19-.3-1.96-.98-1.96-.56 0-.98.7-.98 2.01zm2.62-.08c0 1.64-.62 2.54-1.67 2.54-.94 0-1.58-.88-1.6-2.47 0-1.62.7-2.5 1.68-2.5 1 0 1.59.9 1.59 2.43zM18.65 17.06c0 1.25.39 1.96.98 1.96.66 0 .98-.78.98-2.01 0-1.19-.3-1.96-.98-1.96-.57 0-.98.7-.98 2.01zm2.61-.08c0 1.64-.62 2.54-1.67 2.54-.94 0-1.58-.88-1.6-2.47 0-1.62.7-2.5 1.68-2.5 1.01 0 1.59.9 1.59 2.43zM21.91 19.06c0-.27.19-.47.44-.47.27 0 .44.19.44.47 0 .26-.17.46-.44.46-.26 0-.44-.2-.44-.46zm0-2.61c0-.27.19-.47.44-.47.27 0 .44.19.44.47 0 .26-.17.46-.44.46-.26 0-.44-.2-.44-.46zM25.57 16.97c0 1.07.58 2.03 1.6 2.03s1.6-.94 1.6-2.07c0-1-.52-2.04-1.59-2.04-1.08 0-1.61.99-1.61 2.08zm3.88-.08c0 1.71-1.04 2.63-2.32 2.63-1.33 0-2.24-1.03-2.24-2.54 0-1.58.98-2.62 2.31-2.62 1.36 0 2.25 1.05 2.25 2.53zM30.26 16.83c0-.38-.01-.67-.03-.97h.58l.04.59h.01c.18-.33.59-.67 1.19-.67.5 0 1.26.3 1.26 1.53v2.13h-.65v-2.07c0-.58-.22-1.06-.83-1.06-.42 0-.75.3-.87.67-.03.08-.04.19-.04.3v2.15h-.65v-2.6zM36.63 17.3c.01-.41-.17-1.05-.9-1.05-.67 0-.95.6-1 1.05h1.9zm-1.9.47c.01.88.57 1.24 1.23 1.24.47 0 .76-.08.99-.19l.12.47c-.23.1-.63.23-1.2.23-1.1 0-1.76-.73-1.76-1.81s.64-1.93 1.68-1.93c1.18 0 1.48 1.02 1.48 1.68 0 .13-.01.23-.02.3l-2.52.01zM39.9 15.86l.48 1.82c.1.4.19.77.26 1.14h.02c.08-.36.2-.75.32-1.13l.58-1.83h.55l.56 1.79c.13.43.24.81.32 1.17h.02c.06-.36.16-.74.27-1.16l.51-1.8h.64l-1.16 3.58h-.59l-.55-1.71c-.13-.4-.23-.76-.32-1.18h-.01c-.09.43-.2.8-.33 1.19l-.58 1.7h-.59l-1.08-3.58h.68zM47.28 17.3c.01-.41-.17-1.05-.9-1.05-.67 0-.95.6-1 1.05h1.9zm-1.91.47c.01.88.57 1.24 1.23 1.24.47 0 .76-.08.99-.19l.12.47c-.23.1-.63.23-1.2.23-1.1 0-1.76-.73-1.76-1.81s.64-1.93 1.68-1.93c1.18 0 1.48 1.02 1.48 1.68 0 .13-.01.23-.02.3l-2.52.01zM50.6 17.61c-.71-.01-1.52.11-1.52.81 0 .43.28.62.61.62.47 0 .78-.3.88-.6.02-.07.03-.15.03-.21v-.62zm.63.97c0 .31.02.61.05.86h-.58l-.05-.45h-.02c-.2.28-.58.53-1.1.53-.73 0-1.1-.51-1.1-1.03 0-.87.77-1.34 2.15-1.33v-.07c0-.29-.08-.83-.81-.82-.34 0-.69.1-.94.27l-.15-.44c.3-.19.73-.31 1.18-.31 1.1 0 1.36.75 1.36 1.46l.01 1.33zM52.92 17.5h.01c.09-.13.21-.28.31-.41l1.06-1.24h.78l-1.38 1.47 1.58 2.11h-.8l-1.23-1.72-.33.37v1.35h-.64v-5.26h.64v3.33zM59.87 19.31c-.17.08-.55.21-1.03.21-1.08 0-1.78-.73-1.78-1.83s.76-1.91 1.92-1.91c.39 0 .73.1.9.19l-.15.5c-.16-.08-.4-.17-.76-.17-.82 0-1.27.61-1.27 1.36 0 .83.53 1.34 1.24 1.34.37 0 .61-.09.8-.17l.13.48zM61 17.66c0 .78.44 1.38 1.08 1.38.62 0 1.09-.58 1.09-1.39 0-.61-.3-1.37-1.07-1.37-.77-.01-1.1.7-1.1 1.38zm2.83-.04c0 1.33-.93 1.9-1.78 1.9-.96 0-1.72-.71-1.72-1.84 0-1.19.79-1.9 1.78-1.9 1.03 0 1.72.75 1.72 1.84zM64.65 16.83c0-.38-.01-.67-.03-.97h.58l.04.59h.01c.18-.33.59-.67 1.19-.67.5 0 1.26.3 1.26 1.53v2.13h-.65v-2.07c0-.58-.21-1.06-.83-1.06-.42 0-.75.3-.87.67-.03.08-.05.19-.05.3v2.15h-.65v-2.6zM69.51 15v.86h.93v.5h-.93v1.93c0 .45.13.7.49.7.18 0 .28-.01.38-.04l.03.5c-.13.04-.33.09-.58.09-.3 0-.55-.1-.7-.27-.18-.2-.25-.52-.25-.94v-1.95h-.55v-.5h.55v-.67l.63-.21zM71.17 16.97c0-.42-.01-.79-.03-1.12h.57l.03.71h.02c.16-.48.56-.79 1-.79.07 0 .12.01.18.01v.62c-.07-.01-.13-.01-.22-.01-.46 0-.78.34-.87.83-.01.09-.02.2-.02.3v1.91h-.65l-.01-2.46zM75.44 17.61c-.71-.01-1.52.11-1.52.81 0 .43.28.62.61.62.47 0 .78-.3.88-.6.02-.07.03-.15.03-.21v-.62zm.63.97c0 .31.02.61.05.86h-.58l-.05-.45h-.02c-.2.28-.59.53-1.1.53-.73 0-1.1-.51-1.1-1.03 0-.87.77-1.34 2.16-1.33v-.07c0-.29-.08-.83-.81-.82-.34 0-.69.1-.94.27l-.15-.44c.3-.19.73-.31 1.18-.31 1.1 0 1.36.75 1.36 1.46v1.33zM79.68 19.31c-.17.08-.55.21-1.03.21-1.08 0-1.78-.73-1.78-1.83s.75-1.91 1.92-1.91c.39 0 .73.1.9.19l-.15.5c-.16-.08-.4-.17-.76-.17-.82 0-1.26.61-1.26 1.36 0 .83.53 1.34 1.24 1.34.37 0 .61-.09.8-.17l.12.48zM81.32 15v.86h.93v.5h-.93v1.93c0 .45.13.7.49.7.18 0 .28-.01.38-.04l.03.5c-.13.04-.33.09-.58.09-.3 0-.55-.1-.7-.27-.18-.2-.25-.52-.25-.94v-1.95h-.56v-.5h.56v-.67l.63-.21zM82.98 19.44v-3.58h.65v3.58h-.65zm.73-4.59c0 .22-.16.4-.41.4-.24 0-.39-.18-.39-.4a.4.4 0 0 1 .41-.41c.23 0 .39.18.39.41zM85.12 17.66c0 .78.44 1.38 1.08 1.38.62 0 1.09-.58 1.09-1.39 0-.61-.3-1.37-1.07-1.37-.77-.01-1.1.7-1.1 1.38zm2.84-.04c0 1.33-.93 1.9-1.78 1.9-.96 0-1.72-.71-1.72-1.84 0-1.19.79-1.9 1.78-1.9 1.02 0 1.72.75 1.72 1.84zM88.77 16.83c0-.38-.01-.67-.03-.97h.58l.04.59h.02c.18-.33.59-.67 1.18-.67.5 0 1.27.3 1.27 1.53v2.13h-.65v-2.07c0-.58-.22-1.06-.83-1.06-.42 0-.76.3-.87.67-.03.08-.04.19-.04.3v2.15h-.65v-2.6zM94.45 19.44v-3.58h.65v3.58h-.65zm.73-4.59c0 .22-.16.4-.41.4-.24 0-.39-.18-.39-.4a.4.4 0 0 1 .41-.41c.22 0 .39.18.39.41zM96.18 16.83c0-.38-.01-.67-.03-.97h.58l.04.59h.01c.18-.33.59-.67 1.19-.67.5 0 1.27.3 1.27 1.53v2.13h-.65v-2.07c0-.58-.21-1.06-.83-1.06-.42 0-.75.3-.87.67-.03.08-.05.19-.05.3v2.15h-.65l-.01-2.6zM102.64 15v.86h.93v.5h-.93v1.93c0 .45.13.7.49.7.18 0 .28-.01.38-.04l.03.5c-.13.04-.33.09-.58.09-.3 0-.55-.1-.7-.27-.18-.2-.25-.52-.25-.94v-1.95h-.55v-.5h.54v-.67l.64-.21zM106.53 17.3c.01-.41-.17-1.05-.9-1.05-.67 0-.95.6-1 1.05h1.9zm-1.91.47c.01.88.57 1.24 1.23 1.24.47 0 .76-.08.99-.19l.12.47c-.23.1-.63.23-1.2.23-1.1 0-1.76-.73-1.76-1.81s.64-1.93 1.68-1.93c1.18 0 1.48 1.02 1.48 1.68 0 .13-.01.23-.02.3l-2.52.01zM107.97 16.83c0-.38-.01-.67-.03-.97h.58l.04.59h.01c.18-.33.59-.67 1.19-.67.5 0 1.27.3 1.27 1.53v2.13h-.65v-2.07c0-.58-.22-1.06-.83-1.06-.42 0-.75.3-.87.67-.03.08-.04.19-.04.3v2.15h-.65l-.02-2.6zM113.64 16.83c0-.38-.02-.67-.03-.97h.57l.03.58h.02c.2-.34.53-.66 1.13-.66.48 0 .85.3 1.01.72h.01c.11-.21.26-.36.41-.47.21-.16.44-.25.78-.25.48 0 1.19.31 1.19 1.55v2.1h-.64v-2.02c0-.7-.26-1.1-.78-1.1-.38 0-.66.27-.78.59-.03.1-.05.21-.05.33v2.21h-.64v-2.15c0-.57-.25-.98-.75-.98-.4 0-.7.33-.81.65-.04.09-.05.21-.05.32v2.15h-.64l.02-2.6zM119.81 19.44v-3.58h.65v3.58h-.65zm.73-4.59c0 .22-.16.4-.41.4-.24 0-.39-.18-.39-.4a.4.4 0 0 1 .41-.41c.22 0 .39.18.39.41zM121.54 16.83c0-.38-.01-.67-.03-.97h.58l.04.59h.01c.18-.33.59-.67 1.19-.67.5 0 1.27.3 1.27 1.53v2.13h-.65v-2.07c0-.58-.22-1.06-.83-1.06-.42 0-.75.3-.87.67-.03.08-.04.19-.04.3v2.15h-.65l-.02-2.6zM128.65 18.45c0 .38.01.7.03.98h-.58l-.04-.58h-.02c-.16.29-.55.67-1.18.67-.56 0-1.24-.32-1.24-1.57v-2.09h.65v1.98c0 .68.21 1.15.8 1.15.44 0 .74-.3.86-.6.04-.09.06-.21.06-.33v-2.19h.65l.01 2.58zM130.51 15v.86h.93v.5h-.93v1.93c0 .45.13.7.49.7.18 0 .28-.01.38-.04l.03.5c-.13.04-.33.09-.58.09-.3 0-.55-.1-.7-.27-.18-.2-.25-.52-.25-.94v-1.95h-.55v-.5h.55v-.67l.63-.21zM134.4 17.3c.01-.41-.17-1.05-.9-1.05-.67 0-.95.6-1 1.05h1.9zm-1.91.47c.01.88.57 1.24 1.23 1.24.47 0 .76-.08.99-.19l.12.47c-.23.1-.63.23-1.2.23-1.1 0-1.76-.73-1.76-1.81s.64-1.93 1.68-1.93c1.18 0 1.48 1.02 1.48 1.68 0 .13-.01.23-.02.3l-2.52.01zM135.74 18.78c.2.12.54.25.87.25.47 0 .69-.23.69-.53 0-.31-.18-.47-.66-.65-.65-.24-.95-.59-.95-1.01 0-.58.47-1.05 1.24-1.05.36 0 .68.1.87.22l-.16.47c-.14-.09-.4-.22-.73-.22-.38 0-.59.22-.59.49 0 .3.21.43.67.61.62.23.94.54.94 1.07 0 .64-.5 1.08-1.33 1.08-.39 0-.76-.1-1.01-.25l.15-.48zM5.73 25.93c0 1.25.39 1.96.98 1.96.66 0 .98-.78.98-2.01 0-1.18-.3-1.96-.98-1.96-.56.01-.98.7-.98 2.01zm2.62-.07c0 1.64-.62 2.54-1.67 2.54-.94 0-1.58-.88-1.6-2.47 0-1.62.7-2.5 1.68-2.5 1-.01 1.59.9 1.59 2.43zM9.68 24.66c-.01.48.36.74.92.89.41-.14.73-.44.73-.87 0-.38-.23-.78-.81-.78-.55-.01-.84.35-.84.76zm1.79 2.41c0-.58-.41-.87-1.06-1.05-.56.16-.87.54-.87 1-.02.48.35.91.96.91.59-.01.97-.37.97-.86zm-1.65-1.28c-.54-.25-.77-.67-.77-1.08 0-.76.64-1.28 1.5-1.28.93 0 1.41.58 1.41 1.18 0 .41-.21.85-.8 1.13v.02c.6.24.97.67.97 1.24 0 .84-.72 1.4-1.64 1.4-1.01 0-1.61-.59-1.61-1.3 0-.61.36-1.04.96-1.3l-.02-.01zM12.79 27.94c0-.27.18-.47.44-.47.27 0 .44.19.44.47 0 .26-.17.46-.44.46-.26 0-.44-.2-.44-.46zm0-2.61c0-.28.18-.47.44-.47.27 0 .44.19.44.47 0 .26-.17.46-.44.46-.26 0-.44-.2-.44-.46zM14.85 25.93c0 1.25.39 1.96.98 1.96.66 0 .98-.78.98-2.01 0-1.18-.3-1.96-.98-1.96-.56.01-.98.7-.98 2.01zm2.62-.07c0 1.64-.62 2.54-1.67 2.54-.94 0-1.58-.88-1.6-2.47 0-1.62.7-2.5 1.68-2.5 1-.01 1.59.9 1.59 2.43zM18.65 25.93c0 1.25.39 1.96.98 1.96.66 0 .98-.78.98-2.01 0-1.18-.3-1.96-.98-1.96-.57.01-.98.7-.98 2.01zm2.61-.07c0 1.64-.62 2.54-1.67 2.54-.94 0-1.58-.88-1.6-2.47 0-1.62.7-2.5 1.68-2.5 1.01-.01 1.59.9 1.59 2.43zM21.91 27.94c0-.27.19-.47.44-.47.27 0 .44.19.44.47 0 .26-.17.46-.44.46-.26 0-.44-.2-.44-.46zm0-2.61c0-.28.19-.47.44-.47.27 0 .44.19.44.47 0 .26-.17.46-.44.46-.26 0-.44-.2-.44-.46zM25.83 23.88h-1.52v-.55H28v.55h-1.52v4.44h-.66v-4.44zM28.5 24.73l.48 1.82c.1.4.19.77.26 1.14h.02c.08-.36.2-.75.32-1.13l.58-1.83h.55l.56 1.79c.13.43.24.81.32 1.17h.02c.06-.36.16-.74.27-1.16l.51-1.8h.64l-1.15 3.58h-.59l-.55-1.71c-.13-.4-.23-.76-.32-1.18h-.02c-.09.43-.2.8-.33 1.19l-.58 1.7h-.59l-1.08-3.58h.68zM34.02 26.53c0 .78.44 1.38 1.08 1.38.62 0 1.09-.58 1.09-1.39 0-.61-.3-1.37-1.07-1.37s-1.1.71-1.1 1.38zm2.83-.03c0 1.33-.93 1.9-1.79 1.9-.96 0-1.72-.71-1.72-1.84 0-1.19.79-1.9 1.78-1.9 1.03 0 1.73.75 1.73 1.84zM39.24 25.7c0-.38-.02-.67-.03-.97h.57l.03.58h.02c.2-.34.53-.66 1.13-.66.48 0 .85.3 1.01.72h.02c.11-.21.26-.36.41-.47.22-.16.44-.25.78-.25.48 0 1.19.31 1.19 1.55v2.1h-.64v-2c0-.7-.26-1.1-.78-1.1-.38 0-.66.27-.78.59-.03.1-.05.21-.05.33v2.21h-.64v-2.15c0-.57-.25-.98-.75-.98-.4 0-.7.33-.81.65-.04.09-.05.21-.05.32v2.15h-.64l.01-2.62zM45.82 26.53c0 .78.44 1.38 1.08 1.38.62 0 1.09-.58 1.09-1.39 0-.61-.3-1.37-1.07-1.37s-1.1.71-1.1 1.38zm2.83-.03c0 1.33-.93 1.9-1.78 1.9-.96 0-1.72-.71-1.72-1.84 0-1.19.79-1.9 1.78-1.9 1.02 0 1.72.75 1.72 1.84zM51.91 26.19c0-.08-.01-.19-.03-.27a.96.96 0 0 0-.94-.75c-.67 0-1.07.59-1.07 1.38 0 .73.36 1.33 1.06 1.33.44 0 .84-.3.95-.78.02-.09.03-.18.03-.28v-.63zm.65-3.13v4.33c0 .32.02.68.03.92h-.58l-.03-.62h-.02c-.19.4-.62.7-1.21.7-.87 0-1.54-.73-1.54-1.82-.01-1.19.74-1.92 1.61-1.92.56 0 .92.26 1.08.54h.01v-2.14h.65zM55.91 26.18c.01-.41-.17-1.05-.9-1.05-.67 0-.95.6-1 1.05h1.9zm-1.91.46c.01.88.57 1.24 1.23 1.24.47 0 .76-.08.99-.18l.12.47c-.23.1-.63.23-1.2.23-1.1 0-1.76-.73-1.76-1.81s.64-1.93 1.68-1.93c1.18 0 1.48 1.02 1.48 1.68 0 .13-.01.23-.02.3H54zM57.35 25.85c0-.42-.01-.78-.03-1.12h.57l.03.71h.02c.16-.48.56-.79 1-.79.07 0 .12.01.18.02v.62c-.07-.02-.13-.02-.22-.02-.46 0-.79.34-.87.83-.01.09-.02.2-.02.3v1.91h-.65v-2.46zM61.62 26.49c-.71-.01-1.52.11-1.52.81 0 .43.28.62.61.62.47 0 .78-.3.88-.6.02-.07.03-.15.03-.21v-.62zm.63.97c0 .31.01.61.05.86h-.58l-.05-.45h-.02c-.2.28-.59.53-1.1.53-.73 0-1.1-.51-1.1-1.03 0-.87.77-1.34 2.15-1.33v-.07c0-.29-.08-.83-.81-.82-.34 0-.69.1-.94.27l-.15-.44c.3-.19.73-.31 1.19-.31 1.1 0 1.36.75 1.36 1.46v1.33zM64.05 23.88v.86h.93v.5h-.93v1.93c0 .44.13.7.49.7.18 0 .28-.02.38-.05l.03.5c-.13.04-.33.09-.58.09-.3 0-.55-.1-.7-.27-.18-.2-.25-.52-.25-.94v-1.95h-.56v-.5h.56v-.67l.63-.2zM67.94 26.18c.01-.41-.17-1.05-.9-1.05-.67 0-.95.6-1 1.05h1.9zm-1.91.46c.02.88.57 1.24 1.23 1.24.47 0 .75-.08.99-.18l.12.47c-.23.1-.63.23-1.2.23-1.1 0-1.76-.73-1.76-1.81s.64-1.93 1.68-1.93c1.18 0 1.48 1.02 1.48 1.68 0 .13-.01.23-.02.3h-2.52zM73.5 28.19c-.17.08-.55.21-1.03.21-1.08 0-1.79-.73-1.79-1.83s.76-1.91 1.92-1.91c.38 0 .73.1.9.19l-.15.5c-.16-.08-.4-.17-.76-.17-.82 0-1.27.61-1.27 1.36 0 .83.53 1.34 1.24 1.34.37 0 .61-.09.8-.17l.14.48zM74.62 26.53c0 .78.44 1.38 1.08 1.38.62 0 1.09-.58 1.09-1.39 0-.61-.3-1.37-1.07-1.37-.76 0-1.1.71-1.1 1.38zm2.84-.03c0 1.33-.93 1.9-1.78 1.9-.96 0-1.72-.71-1.72-1.84 0-1.19.79-1.9 1.78-1.9 1.02 0 1.72.75 1.72 1.84zM78.28 25.7c0-.38-.01-.67-.03-.97h.58l.04.59h.02c.18-.33.59-.67 1.18-.67.5 0 1.27.3 1.27 1.53v2.13h-.65v-2.07c0-.58-.22-1.06-.83-1.06-.42 0-.75.3-.87.67-.03.08-.05.19-.05.3v2.15h-.65l-.01-2.6zM83.14 23.88v.86h.93v.5h-.93v1.93c0 .44.13.7.49.7.18 0 .28-.02.38-.05l.03.5c-.13.04-.33.09-.58.09-.3 0-.55-.1-.7-.27-.18-.2-.25-.52-.25-.94v-1.95h-.56v-.5h.56v-.67l.63-.2zM84.8 25.85c0-.42-.01-.78-.03-1.12h.57l.03.71h.02c.16-.48.56-.79 1-.79.07 0 .12.01.18.02v.62c-.07-.02-.13-.02-.22-.02-.46 0-.78.34-.87.83-.01.09-.02.2-.02.3v1.91h-.66v-2.46zM89.07 26.49c-.71-.01-1.52.11-1.52.81 0 .43.28.62.61.62.47 0 .78-.3.88-.6.02-.07.03-.15.03-.21v-.62zm.63.97c0 .31.01.61.05.86h-.59l-.05-.45h-.01c-.2.28-.59.53-1.1.53-.73 0-1.1-.51-1.1-1.03 0-.87.77-1.34 2.15-1.33v-.07c0-.29-.08-.83-.81-.82-.34 0-.69.1-.94.27l-.15-.44c.3-.19.73-.31 1.19-.31 1.1 0 1.36.75 1.36 1.46v1.33zM93.3 28.19c-.17.08-.55.21-1.03.21-1.08 0-1.78-.73-1.78-1.83s.76-1.91 1.92-1.91c.39 0 .73.1.9.19l-.15.5c-.16-.08-.4-.17-.76-.17-.82 0-1.27.61-1.27 1.36 0 .83.53 1.34 1.24 1.34.37 0 .61-.09.8-.17l.13.48zM94.95 23.88v.86h.93v.5h-.93v1.93c0 .44.13.7.49.7.18 0 .28-.02.38-.05l.03.5c-.13.04-.33.09-.58.09-.3 0-.55-.1-.7-.27-.18-.2-.25-.52-.25-.94v-1.95h-.56v-.5h.56v-.67l.63-.2zM96.61 28.32v-3.58h.65v3.58h-.65zm.73-4.59c0 .22-.16.4-.41.4-.24 0-.39-.18-.39-.4a.4.4 0 0 1 .41-.41c.22 0 .39.18.39.41zM98.75 26.53c0 .78.44 1.38 1.08 1.38.62 0 1.09-.58 1.09-1.39 0-.61-.3-1.37-1.07-1.37s-1.1.71-1.1 1.38zm2.83-.03c0 1.33-.93 1.9-1.79 1.9-.96 0-1.72-.71-1.72-1.84 0-1.19.79-1.9 1.78-1.9 1.04 0 1.73.75 1.73 1.84zM102.4 25.7c0-.38-.01-.67-.03-.97h.58l.04.59h.01c.18-.33.59-.67 1.19-.67.5 0 1.27.3 1.27 1.53v2.13h-.65v-2.07c0-.58-.21-1.06-.83-1.06-.42 0-.75.3-.87.67-.03.08-.05.19-.05.3v2.15h-.65l-.01-2.6zM106.42 27.66c.2.12.54.25.87.25.47 0 .69-.23.69-.53 0-.31-.19-.47-.66-.65-.65-.24-.96-.59-.96-1.02 0-.58.47-1.05 1.24-1.05.36 0 .68.1.87.22l-.16.47c-.14-.09-.4-.21-.73-.21-.38 0-.59.22-.59.49 0 .3.21.43.67.61.62.23.94.54.94 1.07 0 .64-.5 1.08-1.33 1.08-.39 0-.76-.1-1.01-.25l.16-.48zM111.01 28.32v-3.58h.65v3.58h-.65zm.72-4.59c0 .22-.16.4-.41.4-.24 0-.39-.18-.39-.4a.4.4 0 0 1 .41-.41c.23 0 .39.18.39.41zM112.74 25.7c0-.38-.01-.67-.03-.97h.58l.04.59h.01c.18-.33.59-.67 1.18-.67.5 0 1.27.3 1.27 1.53v2.13h-.65v-2.07c0-.58-.21-1.06-.83-1.06-.42 0-.76.3-.87.67-.03.08-.05.19-.05.3v2.15h-.65v-2.6zM119.2 23.88v.86h.93v.5h-.93v1.93c0 .44.13.7.49.7.18 0 .28-.02.38-.05l.03.5c-.13.04-.33.09-.58.09-.3 0-.55-.1-.7-.27-.18-.2-.25-.52-.25-.94v-1.95H118v-.5h.55v-.67l.65-.2zM123.09 26.18c.01-.41-.17-1.05-.9-1.05-.67 0-.95.6-1 1.05h1.9zm-1.91.46c.01.88.57 1.24 1.23 1.24.47 0 .76-.08.99-.18l.12.47c-.23.1-.63.23-1.2.23-1.1 0-1.76-.73-1.76-1.81s.64-1.93 1.68-1.93c1.18 0 1.48 1.02 1.48 1.68 0 .13-.01.23-.02.3h-2.52zM124.52 25.7c0-.38-.01-.67-.03-.97h.58l.04.59h.01c.18-.33.59-.67 1.19-.67.5 0 1.26.3 1.26 1.53v2.13h-.65v-2.07c0-.58-.21-1.06-.83-1.06-.42 0-.75.3-.87.67-.03.08-.05.19-.05.3v2.15h-.65v-2.6zM130.2 25.7c0-.38-.02-.67-.03-.97h.57l.03.58h.02c.2-.34.53-.66 1.13-.66.48 0 .85.3 1.01.72h.01c.11-.21.26-.36.41-.47.21-.16.44-.25.78-.25.48 0 1.18.31 1.18 1.55v2.1h-.64v-2c0-.7-.26-1.1-.78-1.1-.38 0-.66.27-.78.59-.03.1-.05.21-.05.33v2.21h-.64v-2.15c0-.57-.25-.98-.75-.98-.4 0-.7.33-.81.65-.04.09-.05.21-.05.32v2.15h-.64l.03-2.62zM136.37 28.32v-3.58h.65v3.58h-.65zm.72-4.59c0 .22-.16.4-.41.4-.24 0-.39-.18-.39-.4a.4.4 0 0 1 .41-.41c.23 0 .39.18.39.41zM138.1 25.7c0-.38-.01-.67-.03-.97h.58l.04.59h.01c.18-.33.59-.67 1.19-.67.5 0 1.27.3 1.27 1.53v2.13h-.65v-2.07c0-.58-.22-1.06-.83-1.06-.42 0-.75.3-.87.67-.03.08-.04.19-.04.3v2.15h-.65l-.02-2.6zM145.2 27.33c0 .38.01.7.03.98h-.58l-.04-.58h-.02c-.16.29-.55.67-1.18.67-.56 0-1.24-.32-1.24-1.57v-2.09h.65v1.98c0 .68.21 1.15.8 1.15.44 0 .74-.3.86-.6.04-.09.06-.21.06-.33v-2.19h.65l.01 2.58zM147.07 23.88v.86h.93v.5h-.93v1.93c0 .44.13.7.49.7.18 0 .28-.02.38-.05l.03.5c-.13.04-.33.09-.58.09-.3 0-.55-.1-.7-.27-.18-.2-.25-.52-.25-.94v-1.95h-.55v-.5h.55v-.67l.63-.2zM150.96 26.18c.01-.41-.17-1.05-.9-1.05-.67 0-.95.6-1 1.05h1.9zm-1.91.46c.01.88.57 1.24 1.23 1.24.47 0 .76-.08.99-.18l.12.47c-.23.1-.63.23-1.2.23-1.1 0-1.76-.73-1.76-1.81s.64-1.93 1.68-1.93c1.18 0 1.48 1.02 1.48 1.68 0 .13-.01.23-.02.3h-2.52zM152.3 27.66c.2.12.54.25.87.25.47 0 .69-.23.69-.53 0-.31-.19-.47-.66-.65-.65-.24-.95-.59-.95-1.02 0-.58.47-1.05 1.24-1.05.36 0 .68.1.87.22l-.16.47c-.14-.09-.4-.21-.73-.21-.39 0-.59.22-.59.49 0 .3.21.43.67.61.62.23.94.54.94 1.07 0 .64-.5 1.08-1.33 1.08-.39 0-.75-.1-1.01-.25l.15-.48zM6.55 32.99h-.01l-.84.45-.12-.5 1.05-.56h.55v4.81h-.63zM9.53 34.81c0 1.25.39 1.96.98 1.96.66 0 .98-.78.98-2.01 0-1.18-.3-1.96-.98-1.96-.57.01-.98.7-.98 2.01zm2.61-.07c0 1.64-.62 2.54-1.67 2.54-.94 0-1.58-.88-1.6-2.47 0-1.62.7-2.5 1.68-2.5 1.01-.01 1.59.9 1.59 2.43zM12.79 36.82c0-.27.18-.47.44-.47.27 0 .44.19.44.47 0 .26-.17.46-.44.46-.26 0-.44-.2-.44-.46zm0-2.62c0-.27.18-.47.44-.47.27 0 .44.19.44.47 0 .26-.17.46-.44.46-.26 0-.44-.19-.44-.46zM14.85 34.81c0 1.25.39 1.96.98 1.96.66 0 .98-.78.98-2.01 0-1.18-.3-1.96-.98-1.96-.56.01-.98.7-.98 2.01zm2.62-.07c0 1.64-.62 2.54-1.67 2.54-.94 0-1.58-.88-1.6-2.47 0-1.62.7-2.5 1.68-2.5 1-.01 1.59.9 1.59 2.43zM18.65 34.81c0 1.25.39 1.96.98 1.96.66 0 .98-.78.98-2.01 0-1.18-.3-1.96-.98-1.96-.57.01-.98.7-.98 2.01zm2.61-.07c0 1.64-.62 2.54-1.67 2.54-.94 0-1.58-.88-1.6-2.47 0-1.62.7-2.5 1.68-2.5 1.01-.01 1.59.9 1.59 2.43zM21.91 36.82c0-.27.19-.47.44-.47.27 0 .44.19.44.47 0 .26-.17.46-.44.46-.26 0-.44-.2-.44-.46zm0-2.62c0-.27.19-.47.44-.47.27 0 .44.19.44.47 0 .26-.17.46-.44.46-.26 0-.44-.19-.44-.46zM25.83 32.75h-1.52v-.54H28v.54h-1.52v4.45h-.66v-4.45zM28.48 31.94h.65v2.24h.01c.1-.18.27-.36.47-.47.19-.11.42-.18.67-.18.48 0 1.25.3 1.25 1.53v2.13h-.65v-2.06c0-.58-.22-1.06-.83-1.06-.42 0-.75.3-.87.64-.04.1-.05.19-.05.31v2.16h-.65v-5.24zM32.59 34.73c0-.42-.01-.78-.03-1.12h.57l.03.71h.02c.16-.48.56-.79 1-.79.07 0 .12.01.18.01v.62c-.07-.01-.13-.01-.22-.01-.46 0-.79.34-.87.83-.01.09-.02.2-.02.3v1.91h-.65l-.01-2.46zM37.21 35.06c.01-.41-.17-1.05-.9-1.05-.67 0-.95.6-1 1.05h1.9zm-1.92.46c.02.88.57 1.24 1.23 1.24.47 0 .76-.08.99-.19l.12.47c-.23.1-.63.23-1.2.23-1.1 0-1.76-.73-1.76-1.81s.64-1.92 1.68-1.92c1.18 0 1.48 1.02 1.48 1.68 0 .13-.01.23-.02.3h-2.52zM40.91 35.06c.01-.41-.17-1.05-.9-1.05-.67 0-.95.6-1 1.05h1.9zm-1.91.46c.01.88.57 1.24 1.23 1.24.47 0 .76-.08.99-.19l.12.47c-.23.1-.63.23-1.2.23-1.1 0-1.76-.73-1.76-1.81s.64-1.92 1.68-1.92c1.18 0 1.48 1.02 1.48 1.68 0 .13-.01.23-.02.3H39zM43.82 36.54c.2.12.54.25.87.25.47 0 .69-.23.69-.53 0-.31-.19-.47-.66-.65-.65-.24-.96-.59-.96-1.01 0-.58.47-1.05 1.24-1.05.36 0 .68.1.87.22l-.16.47c-.14-.09-.4-.22-.73-.22-.38 0-.59.22-.59.49 0 .3.21.43.67.61.61.23.94.54.94 1.07 0 .64-.5 1.08-1.33 1.08-.39 0-.76-.1-1.01-.25l.16-.48zM47.63 32.75v.86h.93v.49h-.93v1.93c0 .45.13.7.49.7.18 0 .28-.01.38-.04l.03.5c-.13.04-.33.09-.58.09-.3 0-.55-.1-.7-.27-.18-.2-.25-.52-.25-.94v-1.96h-.55v-.49H47v-.67l.63-.2zM49.29 34.73c0-.42-.01-.78-.03-1.12h.57l.03.71h.02c.16-.48.56-.79 1-.79.07 0 .12.01.18.01v.62c-.07-.01-.13-.01-.22-.01-.46 0-.78.34-.87.83-.02.09-.02.2-.02.3v1.91h-.65l-.01-2.46zM52.04 35.41c0 .78.44 1.38 1.08 1.38.62 0 1.09-.59 1.09-1.39 0-.61-.3-1.37-1.07-1.37-.76 0-1.1.71-1.1 1.38zm2.84-.04c0 1.33-.93 1.9-1.79 1.9-.96 0-1.72-.71-1.72-1.84 0-1.19.79-1.89 1.78-1.89 1.03 0 1.73.75 1.73 1.83zM55.7 34.58c0-.38-.01-.67-.03-.97h.58l.04.59h.02c.18-.33.59-.67 1.18-.67.5 0 1.27.3 1.27 1.53v2.13h-.66v-2.07c0-.58-.21-1.06-.83-1.06-.42 0-.76.3-.87.67-.03.08-.04.19-.04.3v2.15h-.66v-2.6zM62.22 35.03c0-.11-.01-.21-.04-.29-.12-.38-.43-.7-.91-.7-.62 0-1.07.52-1.07 1.36 0 .7.36 1.29 1.06 1.29.41 0 .77-.25.9-.67.04-.11.05-.24.05-.35l.01-.64zm.65 1.64c0 .83-.17 1.33-.51 1.64-.36.32-.86.43-1.31.43-.43 0-.9-.1-1.19-.3l.16-.5c.24.16.61.29 1.05.29.67 0 1.15-.35 1.15-1.26v-.39h-.01c-.19.33-.58.6-1.14.6-.89 0-1.53-.76-1.53-1.75 0-1.21.79-1.9 1.62-1.9.62 0 .96.32 1.12.62h.01l.02-.54h.58c-.02.25-.03.55-.03.98l.01 2.08zM68.06 37.07c-.17.08-.55.21-1.03.21-1.08 0-1.78-.73-1.78-1.83s.76-1.91 1.93-1.91c.38 0 .72.1.9.19l-.15.49c-.16-.08-.4-.17-.75-.17-.82 0-1.27.61-1.27 1.36 0 .83.53 1.34 1.24 1.34.37 0 .61-.09.8-.17l.11.49zM69.19 35.41c0 .78.44 1.38 1.08 1.38.62 0 1.09-.59 1.09-1.39 0-.61-.3-1.37-1.07-1.37s-1.1.71-1.1 1.38zm2.83-.04c0 1.33-.93 1.9-1.78 1.9-.96 0-1.72-.71-1.72-1.84 0-1.19.79-1.89 1.78-1.89 1.03 0 1.72.75 1.72 1.83zM72.84 34.58c0-.38-.01-.67-.03-.97h.58l.04.59h.02c.18-.33.59-.67 1.18-.67.5 0 1.27.3 1.27 1.53v2.13h-.65v-2.07c0-.58-.22-1.06-.83-1.06-.42 0-.76.3-.87.67-.03.08-.04.19-.04.3v2.15h-.65v-2.6zM77.7 32.75v.86h.93v.49h-.93v1.93c0 .45.13.7.49.7.18 0 .28-.01.38-.04l.03.5c-.13.04-.33.09-.58.09-.3 0-.55-.1-.7-.27-.18-.2-.25-.52-.25-.94v-1.96h-.56v-.49h.56v-.67l.63-.2zM79.37 34.73c0-.42-.01-.78-.03-1.12h.57l.03.71h.02c.16-.48.56-.79 1-.79.07 0 .12.01.18.01v.62c-.07-.01-.13-.01-.22-.01-.46 0-.78.34-.87.83-.01.09-.02.2-.02.3v1.91h-.65l-.01-2.46zM83.64 35.37c-.71-.02-1.52.11-1.52.81 0 .43.28.62.61.62.47 0 .78-.3.88-.6.02-.07.03-.15.03-.21v-.62zm.62.97c0 .31.02.61.05.86h-.59l-.05-.45h-.02c-.2.28-.58.53-1.1.53-.73 0-1.09-.51-1.09-1.03 0-.87.77-1.34 2.16-1.33v-.07c0-.29-.08-.83-.81-.82-.34 0-.69.1-.94.27l-.15-.44c.3-.19.73-.31 1.18-.31 1.1 0 1.36.75 1.36 1.46v1.33zM87.87 37.07c-.17.08-.55.21-1.03.21-1.08 0-1.78-.73-1.78-1.83s.76-1.91 1.92-1.91c.39 0 .73.1.9.19l-.15.49c-.16-.08-.4-.17-.76-.17-.82 0-1.27.61-1.27 1.36 0 .83.53 1.34 1.24 1.34.37 0 .61-.09.8-.17l.13.49zM89.51 32.75v.86h.93v.49h-.93v1.93c0 .45.13.7.49.7.18 0 .28-.01.38-.04l.03.5c-.13.04-.33.09-.58.09-.3 0-.55-.1-.7-.27-.18-.2-.25-.52-.25-.94v-1.96h-.55v-.49h.56v-.67l.62-.2zM91.17 37.2v-3.58h.65v3.58h-.65zm.73-4.59c0 .22-.16.4-.41.4-.24 0-.39-.18-.39-.4a.4.4 0 0 1 .41-.41c.22 0 .39.18.39.41zM93.31 35.41c0 .78.44 1.38 1.08 1.38.62 0 1.09-.59 1.09-1.39 0-.61-.3-1.37-1.07-1.37s-1.1.71-1.1 1.38zm2.84-.04c0 1.33-.93 1.9-1.79 1.9-.96 0-1.72-.71-1.72-1.84 0-1.19.79-1.89 1.78-1.89 1.03 0 1.73.75 1.73 1.83zM96.97 34.58c0-.38-.01-.67-.03-.97h.58l.04.59h.01c.18-.33.59-.67 1.19-.67.5 0 1.27.3 1.27 1.53v2.13h-.65v-2.07c0-.58-.22-1.06-.83-1.06-.42 0-.75.3-.87.67-.03.08-.04.19-.04.3v2.15h-.65l-.02-2.6zM100.98 36.54c.2.12.54.25.87.25.47 0 .69-.23.69-.53 0-.31-.19-.47-.66-.65-.65-.24-.95-.59-.95-1.01 0-.58.47-1.05 1.24-1.05.36 0 .68.1.87.22l-.16.47c-.14-.09-.4-.22-.73-.22-.38 0-.59.22-.59.49 0 .3.21.43.67.61.62.23.94.54.94 1.07 0 .64-.5 1.08-1.33 1.08-.39 0-.76-.1-1.01-.25l.15-.48zM105.57 37.2v-3.58h.65v3.58h-.65zm.73-4.59c0 .22-.16.4-.41.4-.24 0-.39-.18-.39-.4a.4.4 0 0 1 .41-.41c.22 0 .39.18.39.41zM107.3 34.58c0-.38-.01-.67-.03-.97h.58l.04.59h.01c.18-.33.59-.67 1.19-.67.5 0 1.27.3 1.27 1.53v2.13h-.65v-2.07c0-.58-.21-1.06-.83-1.06-.42 0-.75.3-.87.67-.03.08-.05.19-.05.3v2.15h-.65l-.01-2.6zM113.76 32.75v.86h.93v.49h-.93v1.93c0 .45.13.7.49.7.18 0 .28-.01.38-.04l.03.5c-.13.04-.33.09-.58.09-.3 0-.55-.1-.7-.27-.18-.2-.25-.52-.25-.94v-1.96h-.55v-.49h.55v-.67l.63-.2zM117.65 35.06c.01-.41-.17-1.05-.9-1.05-.67 0-.95.6-1 1.05h1.9zm-1.91.46c.01.88.57 1.24 1.23 1.24.47 0 .76-.08.99-.19l.12.47c-.23.1-.63.23-1.2.23-1.1 0-1.76-.73-1.76-1.81s.64-1.92 1.68-1.92c1.18 0 1.48 1.02 1.48 1.68 0 .13-.01.23-.02.3h-2.52zM119.09 34.58c0-.38-.01-.67-.03-.97h.58l.04.59h.01c.18-.33.59-.67 1.19-.67.5 0 1.27.3 1.27 1.53v2.13h-.65v-2.07c0-.58-.22-1.06-.83-1.06-.42 0-.75.3-.87.67-.03.08-.04.19-.04.3v2.15h-.65l-.02-2.6zM124.76 34.58c0-.38-.02-.67-.03-.97h.57l.03.58h.02c.2-.34.53-.66 1.13-.66.48 0 .85.3 1.01.72h.01c.11-.21.26-.36.41-.47.21-.16.44-.25.78-.25.48 0 1.19.31 1.19 1.55v2.1h-.64v-2.02c0-.7-.26-1.1-.78-1.1-.38 0-.66.27-.78.59-.03.1-.05.21-.05.33v2.21H127v-2.15c0-.57-.25-.98-.75-.98-.4 0-.7.33-.81.65-.04.09-.05.21-.05.32v2.15h-.64l.01-2.6zM130.93 37.2v-3.58h.65v3.58h-.65zm.73-4.59c0 .22-.16.4-.41.4-.24 0-.39-.18-.39-.4a.4.4 0 0 1 .41-.41c.22 0 .39.18.39.41zM132.66 34.58c0-.38-.01-.67-.03-.97h.58l.04.59h.01c.18-.33.59-.67 1.19-.67.5 0 1.27.3 1.27 1.53v2.13h-.65v-2.07c0-.58-.22-1.06-.83-1.06-.42 0-.75.3-.87.67-.03.08-.04.19-.04.3v2.15h-.65l-.02-2.6zM139.76 36.21c0 .38.01.7.03.99h-.58l-.04-.58h-.02c-.16.29-.55.67-1.18.67-.56 0-1.24-.32-1.24-1.57v-2.09h.65v1.98c0 .68.21 1.15.8 1.15.44 0 .74-.3.86-.6.04-.09.06-.21.06-.33v-2.19h.65l.01 2.57zM141.63 32.75v.86h.93v.49h-.93v1.93c0 .45.13.7.49.7.18 0 .28-.01.38-.04l.03.5c-.13.04-.33.09-.58.09-.3 0-.55-.1-.7-.27-.18-.2-.25-.52-.25-.94v-1.96h-.55v-.49h.55v-.67l.63-.2zM145.52 35.06c.01-.41-.17-1.05-.9-1.05-.67 0-.95.6-1 1.05h1.9zm-1.91.46c.01.88.57 1.24 1.23 1.24.47 0 .76-.08.99-.19l.12.47c-.23.1-.63.23-1.2.23-1.1 0-1.76-.73-1.76-1.81s.64-1.92 1.68-1.92c1.18 0 1.48 1.02 1.48 1.68 0 .13-.01.23-.02.3h-2.52zM146.87 36.54c.2.12.54.25.87.25.47 0 .69-.23.69-.53 0-.31-.19-.47-.66-.65-.65-.24-.95-.59-.95-1.01 0-.58.47-1.05 1.24-1.05.36 0 .68.1.87.22l-.16.47c-.14-.09-.4-.22-.73-.22-.39 0-.59.22-.59.49 0 .3.21.43.67.61.62.23.94.54.94 1.07 0 .64-.5 1.08-1.33 1.08-.39 0-.75-.1-1.01-.25l.15-.48zM7.82 44l-.5-1.44c-.11-.33-.19-.62-.26-.91h-.01c-.08.29-.15.6-.25.9L6.31 44h1.51zm-1.64.5l-.52 1.57h-.67l1.7-4.99h.77l1.7 4.99h-.68l-.53-1.57H6.18zM9.85 43.46c0-.38-.01-.67-.03-.97h.58l.04.59h.02c.18-.33.59-.67 1.18-.67.5 0 1.27.3 1.27 1.53v2.13h-.65V44c0-.58-.22-1.06-.83-1.06-.42 0-.75.3-.87.67-.03.08-.05.19-.05.3v2.15h-.66v-2.6zM15.53 46.07v-3.58h.65v3.58h-.65zm.72-4.59c0 .22-.16.4-.41.4-.24 0-.39-.18-.39-.4a.4.4 0 0 1 .41-.41c.23.01.39.18.39.41zM17.26 43.46c0-.38-.01-.67-.03-.97h.58l.04.59h.01c.18-.33.59-.67 1.18-.67.5 0 1.27.3 1.27 1.53v2.13h-.65V44c0-.58-.21-1.06-.83-1.06-.42 0-.75.3-.87.67-.03.08-.04.19-.04.3v2.15h-.65l-.01-2.6zM21.43 46.07v-3.09h-.5v-.5h.5v-.17c0-.5.12-.96.41-1.25.24-.24.57-.33.87-.33.24 0 .43.05.56.1l-.09.5a.873.873 0 0 0-.41-.08c-.56 0-.7.48-.7 1.04v.19h.87v.5h-.87v3.09h-.64zM26.52 45.09c0 .38.01.7.03.98h-.58l-.04-.58h-.02c-.16.29-.55.67-1.19.67-.56 0-1.24-.32-1.24-1.57V42.5h.65v1.98c0 .68.21 1.15.8 1.15.44 0 .74-.3.86-.6.04-.09.06-.21.06-.33v-2.19h.65l.02 2.58zM27.51 45.41c.2.12.54.25.87.25.47 0 .69-.23.69-.53 0-.31-.18-.47-.66-.65-.65-.24-.95-.59-.95-1.01 0-.58.47-1.05 1.24-1.05.36 0 .68.1.87.22l-.16.47c-.14-.09-.4-.22-.73-.22-.38 0-.59.22-.59.49 0 .3.21.43.67.61.61.23.94.54.94 1.07 0 .64-.5 1.08-1.33 1.08-.39 0-.76-.1-1.01-.25l.15-.48zM30.53 46.07v-3.58h.65v3.58h-.65zm.73-4.59c0 .22-.16.4-.41.4-.24 0-.39-.18-.39-.4a.4.4 0 1 1 .8 0zM32.67 44.29c0 .78.44 1.38 1.08 1.38.62 0 1.09-.58 1.09-1.39 0-.61-.3-1.37-1.07-1.37-.77-.01-1.1.71-1.1 1.38zm2.84-.04c0 1.33-.93 1.9-1.79 1.9-.96 0-1.72-.71-1.72-1.84 0-1.19.79-1.9 1.78-1.9 1.03.01 1.73.75 1.73 1.84zM36.32 43.46c0-.38-.01-.67-.03-.97h.58l.04.59h.01c.18-.33.59-.67 1.19-.67.5 0 1.27.3 1.27 1.53v2.13h-.65V44c0-.58-.22-1.06-.83-1.06-.42 0-.75.3-.87.67-.03.08-.05.19-.05.3v2.15h-.65v-2.6zM42.4 44.29c0 .78.44 1.38 1.08 1.38.62 0 1.09-.58 1.09-1.39 0-.61-.3-1.37-1.07-1.37-.76-.01-1.1.71-1.1 1.38zm2.84-.04c0 1.33-.92 1.9-1.79 1.9-.96 0-1.72-.71-1.72-1.84 0-1.19.79-1.9 1.78-1.9 1.03.01 1.73.75 1.73 1.84zM46.13 46.07v-3.09h-.5v-.5h.5v-.17c0-.5.12-.96.41-1.25.24-.24.57-.33.87-.33.24 0 .43.05.56.1l-.09.5a.873.873 0 0 0-.41-.08c-.56 0-.7.48-.7 1.04v.19h.87v.5h-.87v3.09h-.64zM50.19 44.29c0 .78.44 1.38 1.08 1.38.62 0 1.09-.58 1.09-1.39 0-.61-.3-1.37-1.07-1.37-.76-.01-1.1.71-1.1 1.38zm2.84-.04c0 1.33-.93 1.9-1.78 1.9-.96 0-1.72-.71-1.72-1.84 0-1.19.79-1.9 1.78-1.9 1.02.01 1.72.75 1.72 1.84zM53.85 43.46c0-.38-.01-.67-.03-.97h.58l.04.59h.01c.18-.33.59-.67 1.19-.67.5 0 1.26.3 1.26 1.53v2.13h-.65V44c0-.58-.21-1.06-.83-1.06-.42 0-.75.3-.87.67-.03.08-.04.19-.04.3v2.15h-.65v-2.6zM60.23 43.93c.01-.41-.17-1.05-.9-1.05-.67 0-.95.6-1 1.05h1.9zm-1.91.47c.01.88.57 1.24 1.23 1.24.47 0 .76-.08.99-.19l.12.47c-.23.1-.63.23-1.2.23-1.1 0-1.76-.73-1.76-1.81s.64-1.93 1.68-1.93c1.18 0 1.48 1.02 1.48 1.68 0 .13-.01.23-.02.3h-2.52zM66.23 45.09c0 .38.01.7.03.98h-.58l-.04-.58h-.01c-.16.29-.55.67-1.19.67-.56 0-1.24-.32-1.24-1.57V42.5h.65v1.98c0 .68.22 1.15.8 1.15.44 0 .74-.3.86-.6.04-.09.06-.21.06-.33v-2.19h.65l.01 2.58zM67.31 43.46c0-.38-.01-.67-.03-.97h.58l.04.59h.01c.18-.33.59-.67 1.19-.67.5 0 1.27.3 1.27 1.53v2.13h-.65V44c0-.58-.22-1.06-.83-1.06-.42 0-.75.3-.87.67-.03.08-.04.19-.04.3v2.15h-.65l-.02-2.6zM71.41 46.07v-3.58h.65v3.58h-.65zm.73-4.59c0 .22-.16.4-.41.4-.24 0-.39-.18-.39-.4a.4.4 0 0 1 .41-.41c.23.01.39.18.39.41zM73.93 41.63v.86h.93v.5h-.93v1.93c0 .45.13.7.49.7.18 0 .28-.01.38-.04l.03.5c-.13.04-.33.09-.58.09-.3 0-.55-.1-.7-.27-.18-.2-.25-.52-.25-.94v-1.95h-.55v-.5h.55v-.67l.63-.21zM77.57 44.29c0 .78.44 1.38 1.08 1.38.62 0 1.09-.58 1.09-1.39 0-.61-.3-1.37-1.07-1.37-.77-.01-1.1.71-1.1 1.38zm2.83-.04c0 1.33-.93 1.9-1.79 1.9-.96 0-1.72-.71-1.72-1.84 0-1.19.79-1.9 1.78-1.9 1.04.01 1.73.75 1.73 1.84zM81.29 46.07v-3.09h-.5v-.5h.5v-.17c0-.5.12-.96.41-1.25.25-.24.57-.33.87-.33.24 0 .43.05.55.1l-.09.5a.873.873 0 0 0-.41-.08c-.55 0-.7.48-.7 1.04v.19h.87v.5h-.87v3.09h-.63zM85.36 44.29c0 .78.44 1.38 1.08 1.38.62 0 1.09-.58 1.09-1.39 0-.61-.3-1.37-1.07-1.37-.77-.01-1.1.71-1.1 1.38zm2.83-.04c0 1.33-.93 1.9-1.78 1.9-.96 0-1.72-.71-1.72-1.84 0-1.19.79-1.9 1.78-1.9 1.03.01 1.72.75 1.72 1.84zM89.21 42.49l.51.77c.14.2.25.38.37.58h.01c.12-.21.24-.39.36-.58l.5-.76h.71l-1.22 1.73 1.25 1.85h-.73l-.53-.81c-.14-.21-.26-.41-.39-.62h-.01c-.12.22-.24.41-.38.62l-.52.81h-.72l1.27-1.83-1.21-1.75.73-.01zM92.68 42.49l.78 2.12c.09.24.18.52.24.73h.01c.07-.21.14-.49.23-.75l.71-2.1h.69l-.98 2.55c-.47 1.23-.78 1.85-1.23 2.24-.33.27-.64.39-.8.42l-.16-.54c.16-.05.38-.16.57-.32.18-.14.39-.39.55-.73.03-.07.05-.12.05-.16 0-.04-.02-.09-.05-.17l-1.32-3.3.71.01zM96.71 41.63v.86h.93v.5h-.93v1.93c0 .45.13.7.49.7.18 0 .28-.01.38-.04l.03.5c-.13.04-.33.09-.58.09-.3 0-.55-.1-.7-.27-.18-.2-.25-.52-.25-.94v-1.95h-.56v-.5h.56v-.67l.63-.21zM98.74 44.29c0 .78.44 1.38 1.08 1.38.62 0 1.09-.58 1.09-1.39 0-.61-.3-1.37-1.07-1.37-.77-.01-1.1.71-1.1 1.38zm2.84-.04c0 1.33-.92 1.9-1.78 1.9-.96 0-1.72-.71-1.72-1.84 0-1.19.79-1.9 1.78-1.9 1.02.01 1.72.75 1.72 1.84zM104.95 45.95c-.17.08-.55.21-1.03.21-1.08 0-1.78-.73-1.78-1.83s.75-1.91 1.92-1.91c.39 0 .73.1.9.19l-.15.5c-.16-.08-.4-.17-.76-.17-.82 0-1.26.61-1.26 1.36 0 .83.53 1.34 1.24 1.34.37 0 .61-.09.8-.17l.12.48zM105.71 46.07v-3.58h.65v3.58h-.65zm.73-4.59c0 .22-.16.4-.41.4-.24 0-.39-.18-.39-.4a.4.4 0 1 1 .8 0zM107.44 43.46c0-.38-.01-.67-.03-.97h.58l.04.59h.02c.18-.33.59-.67 1.18-.67.5 0 1.27.3 1.27 1.53v2.13h-.65V44c0-.58-.22-1.06-.83-1.06-.42 0-.76.3-.87.67-.03.08-.04.19-.04.3v2.15h-.65l-.02-2.6zM113.11 46.07v-3.58h.65v3.58h-.65zm.73-4.59c0 .22-.16.4-.41.4-.24 0-.39-.18-.39-.4a.4.4 0 0 1 .41-.41c.23.01.39.18.39.41zM114.85 43.46c0-.38-.01-.67-.03-.97h.58l.04.59h.01c.18-.33.59-.67 1.19-.67.5 0 1.27.3 1.27 1.53v2.13h-.65V44c0-.58-.21-1.06-.83-1.06-.42 0-.75.3-.87.67-.03.08-.04.19-.04.3v2.15h-.65l-.02-2.6zM120.93 44.29c0 .78.44 1.38 1.08 1.38.62 0 1.09-.58 1.09-1.39 0-.61-.3-1.37-1.07-1.37-.77-.01-1.1.71-1.1 1.38zm2.83-.04c0 1.33-.93 1.9-1.78 1.9-.96 0-1.72-.71-1.72-1.84 0-1.19.79-1.9 1.78-1.9 1.03.01 1.72.75 1.72 1.84zM124.58 43.46c0-.38-.01-.67-.03-.97h.58l.04.59h.02c.18-.33.59-.67 1.18-.67.5 0 1.27.3 1.27 1.53v2.13h-.65V44c0-.58-.22-1.06-.83-1.06-.42 0-.76.3-.87.67-.03.08-.04.19-.04.3v2.15h-.65v-2.6zM130.96 43.93c.01-.41-.17-1.05-.9-1.05-.67 0-.95.6-1 1.05h1.9zm-1.91.47c.02.88.57 1.24 1.23 1.24.47 0 .76-.08.99-.19l.12.47c-.23.1-.63.23-1.2.23-1.1 0-1.76-.73-1.76-1.81s.64-1.93 1.68-1.93c1.18 0 1.48 1.02 1.48 1.68 0 .13-.01.23-.02.3h-2.52zM133.96 40.82h.65v5.26h-.65zM135.71 46.07v-3.58h.65v3.58h-.65zm.72-4.59c0 .22-.16.4-.41.4-.24 0-.39-.18-.39-.4a.4.4 0 0 1 .41-.41c.23.01.39.18.39.41zM138.22 41.63v.86h.93v.5h-.93v1.93c0 .45.13.7.49.7.18 0 .28-.01.38-.04l.03.5c-.13.04-.33.09-.58.09-.3 0-.55-.1-.7-.27-.18-.2-.25-.52-.25-.94v-1.95h-.56v-.5h.56v-.67l.63-.21zM139.89 43.61c0-.42-.01-.78-.03-1.12h.57l.03.71h.02c.16-.48.56-.79 1-.79.07 0 .12.01.18.01v.62c-.07-.01-.13-.01-.22-.01-.46 0-.78.34-.87.83-.01.09-.02.2-.02.3v1.91h-.65l-.01-2.46zM144.51 43.93c.01-.41-.17-1.05-.9-1.05-.67 0-.95.6-1 1.05h1.9zm-1.91.47c.01.88.57 1.24 1.23 1.24.47 0 .76-.08.99-.19l.12.47c-.23.1-.63.23-1.2.23-1.1 0-1.76-.73-1.76-1.81s.64-1.93 1.68-1.93c1.18 0 1.48 1.02 1.48 1.68 0 .13-.01.23-.02.3h-2.52zM149.4 44.24c-.71-.01-1.52.11-1.52.81 0 .43.28.62.61.62.47 0 .78-.3.88-.6.02-.07.03-.15.03-.21v-.62zm.63.97c0 .31.01.61.05.86h-.59l-.05-.45h-.02c-.2.28-.59.53-1.1.53-.73 0-1.1-.51-1.1-1.03 0-.87.77-1.34 2.15-1.33v-.07c0-.29-.08-.83-.81-.82-.34 0-.69.1-.94.27l-.15-.44c.3-.19.73-.31 1.19-.31 1.1 0 1.36.75 1.36 1.46l.01 1.33zM151.83 41.63v.86h.93v.5h-.93v1.93c0 .45.13.7.49.7.18 0 .28-.01.38-.04l.03.5c-.13.04-.33.09-.58.09-.3 0-.55-.1-.7-.27-.18-.2-.25-.52-.25-.94v-1.95h-.56v-.5h.56v-.67l.63-.21zM6.55 50.75h-.01l-.84.45-.12-.5 1.05-.56h.55v4.81h-.63zM11.81 50.69H9.97l-.19 1.24c.12-.02.22-.03.4-.03.38 0 .74.07 1.04.26.38.21.69.63.69 1.23 0 .94-.75 1.64-1.79 1.64-.53 0-.96-.15-1.2-.3l.16-.5c.2.12.59.27 1.04.27.61 0 1.14-.4 1.13-1.04 0-.62-.42-1.06-1.38-1.06-.28 0-.5.02-.67.05l.31-2.31h2.3v.55zM16.95 52.83c0-.08-.01-.19-.03-.27a.96.96 0 0 0-.94-.75c-.67 0-1.07.59-1.07 1.38 0 .73.36 1.32 1.06 1.32.44 0 .84-.29.96-.78.02-.09.03-.18.03-.28v-.62zm.64-3.13v4.33c0 .32.02.68.03.93h-.58l-.03-.62h-.02c-.19.4-.62.7-1.21.7-.87 0-1.54-.73-1.54-1.82-.01-1.19.74-1.92 1.61-1.92.56 0 .92.26 1.08.54h.02V49.7h.64zM18.68 52.49c0-.42-.01-.78-.03-1.12h.57l.03.71h.02c.16-.48.56-.79 1-.79.07 0 .12.01.18.02v.62c-.07-.02-.13-.02-.22-.02-.46 0-.78.34-.87.83-.01.09-.02.2-.02.3v1.91h-.65l-.01-2.46zM21.43 53.17c0 .78.44 1.38 1.08 1.38.62 0 1.09-.59 1.09-1.39 0-.61-.3-1.37-1.07-1.37-.77-.01-1.1.7-1.1 1.38zm2.84-.04c0 1.33-.93 1.9-1.78 1.9-.96 0-1.72-.71-1.72-1.84 0-1.19.79-1.9 1.78-1.9 1.02 0 1.72.75 1.72 1.84zM25.73 53.49a1.006 1.006 0 0 0 1.01 1.03c.69 0 1.09-.56 1.09-1.38 0-.71-.38-1.33-1.07-1.33-.44 0-.87.31-.98.8-.02.08-.05.18-.05.26v.62zm-.64-.95c0-.46-.02-.83-.03-1.17h.58l.04.61h.01c.26-.44.69-.69 1.27-.69.87 0 1.53.73 1.53 1.81 0 1.29-.79 1.92-1.64 1.92-.47 0-.89-.21-1.1-.56h-.02v1.95h-.64v-3.87zM29.21 54.29c.2.12.54.25.87.25.47 0 .69-.23.69-.53 0-.31-.19-.47-.66-.65-.65-.24-.96-.59-.96-1.01 0-.58.47-1.05 1.24-1.05.36 0 .68.1.87.22l-.16.47c-.14-.09-.4-.21-.73-.21-.38 0-.59.22-.59.49 0 .3.21.43.67.61.61.23.94.54.94 1.07 0 .64-.5 1.08-1.33 1.08-.39 0-.76-.1-1.01-.25l.16-.49zM34.44 53.49a1.006 1.006 0 0 0 1.01 1.03c.69 0 1.09-.56 1.09-1.38 0-.71-.38-1.33-1.07-1.33-.44 0-.87.31-.98.8-.02.08-.05.18-.05.26v.62zm-.65-.95c0-.46-.02-.83-.03-1.17h.58l.04.61h.01c.26-.44.69-.69 1.27-.69.87 0 1.52.73 1.52 1.81 0 1.29-.79 1.92-1.64 1.92-.47 0-.89-.21-1.1-.56h-.02v1.95h-.64v-3.87zM40.28 52.81c.01-.41-.17-1.05-.9-1.05-.67 0-.95.6-1 1.05h1.9zm-1.92.47c.02.88.57 1.24 1.23 1.24.47 0 .76-.08.99-.18l.12.47c-.23.1-.63.23-1.2.23-1.1 0-1.76-.73-1.76-1.81s.64-1.93 1.68-1.93c1.18 0 1.48 1.02 1.48 1.68 0 .13-.01.23-.02.3h-2.52zM41.71 52.49c0-.42-.01-.78-.03-1.12h.57l.03.71h.02c.16-.48.56-.79 1-.79.07 0 .12.01.18.02v.62c-.07-.02-.13-.02-.22-.02-.46 0-.78.34-.87.83-.02.09-.02.2-.02.3v1.91h-.65l-.01-2.46zM45.7 52.34c0-.38-.02-.67-.03-.97h.57l.03.58h.02c.2-.34.53-.66 1.13-.66.48 0 .85.3 1.01.72h.02c.11-.21.26-.36.41-.47.22-.16.44-.25.78-.25.48 0 1.19.31 1.19 1.55v2.1h-.64v-2.02c0-.7-.26-1.1-.78-1.1-.38 0-.66.27-.78.59-.03.1-.05.21-.05.33v2.21h-.64V52.8c0-.57-.25-.98-.75-.98-.4 0-.7.33-.81.65-.04.09-.05.21-.05.32v2.15h-.63v-2.6zM51.87 54.95v-3.58h.65v3.58h-.65zm.72-4.59c0 .22-.16.4-.41.4-.24 0-.39-.18-.39-.4a.4.4 0 0 1 .41-.41c.23 0 .39.18.39.41zM53.6 52.34c0-.38-.01-.67-.03-.97h.58l.04.59h.02c.18-.33.59-.67 1.18-.67.5 0 1.27.3 1.27 1.53v2.13H56v-2.07c0-.58-.22-1.06-.83-1.06-.42 0-.76.3-.87.67-.03.08-.04.19-.04.3v2.15h-.66v-2.6zM60.7 53.97c0 .38.01.7.03.99h-.58l-.04-.59h-.01c-.16.29-.55.67-1.19.67-.56 0-1.24-.32-1.24-1.57v-2.09h.65v1.98c0 .68.22 1.15.8 1.15.44 0 .74-.3.86-.6.04-.09.06-.21.06-.33v-2.19h.65l.01 2.58zM62.57 50.51v.86h.93v.5h-.93v1.93c0 .44.13.7.49.7.18 0 .28-.02.38-.04l.03.49c-.13.04-.33.09-.58.09-.3 0-.55-.1-.7-.27-.18-.2-.25-.52-.25-.94v-1.95h-.56v-.5h.56v-.68l.63-.19zM66.46 52.81c.01-.41-.17-1.05-.9-1.05-.67 0-.95.6-1 1.05h1.9zm-1.91.47c.01.88.57 1.24 1.23 1.24.47 0 .76-.08.99-.18l.12.47c-.23.1-.63.23-1.2.23-1.1 0-1.76-.73-1.76-1.81s.64-1.93 1.68-1.93c1.18 0 1.48 1.02 1.48 1.68 0 .13-.01.23-.02.3h-2.52zM69.46 54.95v-3.58h.65v3.58h-.65zm.73-4.59c0 .22-.16.4-.41.4-.24 0-.39-.18-.39-.4a.4.4 0 0 1 .41-.41c.22 0 .39.18.39.41zM71.1 54.29c.2.12.54.25.87.25.47 0 .69-.23.69-.53 0-.31-.19-.47-.66-.65-.65-.24-.96-.59-.96-1.01 0-.58.47-1.05 1.24-1.05.36 0 .68.1.87.22l-.16.47c-.14-.09-.4-.21-.73-.21-.38 0-.59.22-.59.49 0 .3.21.43.67.61.62.23.94.54.94 1.07 0 .64-.5 1.08-1.33 1.08-.39 0-.76-.1-1.01-.25l.16-.49zM76.33 53.52a.998.998 0 0 0 1.01 1c.69 0 1.09-.56 1.09-1.38 0-.72-.37-1.33-1.07-1.33-.44 0-.85.31-.98.8-.02.08-.04.17-.04.27v.64zm-.64-3.82h.64v2.25h.01c.23-.4.64-.65 1.22-.65.9 0 1.52.74 1.52 1.82 0 1.28-.81 1.92-1.61 1.92-.52 0-.93-.2-1.21-.67h-.01l-.04.59h-.56c.01-.25.03-.61.03-.93V49.7zM82.17 52.81c.01-.41-.17-1.05-.9-1.05-.67 0-.95.6-1 1.05h1.9zm-1.91.47c.02.88.57 1.24 1.23 1.24.47 0 .75-.08.99-.18l.12.47c-.23.1-.63.23-1.2.23-1.1 0-1.76-.73-1.76-1.81s.64-1.93 1.68-1.93c1.18 0 1.48 1.02 1.48 1.68 0 .13-.01.23-.02.3h-2.52zM83.6 54.95v-3.58h.65v3.58h-.65zm.73-4.59c0 .22-.16.4-.41.4-.24 0-.39-.18-.39-.4a.4.4 0 0 1 .41-.41c.23 0 .39.18.39.41zM85.34 52.34c0-.38-.01-.67-.03-.97h.58l.04.59h.01c.18-.33.59-.67 1.19-.67.5 0 1.27.3 1.27 1.53v2.13h-.65v-2.07c0-.58-.21-1.06-.83-1.06-.42 0-.75.3-.87.67-.03.08-.05.19-.05.3v2.15h-.65l-.01-2.6zM91.85 52.78c0-.11-.01-.21-.04-.29-.12-.38-.43-.7-.91-.7-.62 0-1.07.53-1.07 1.36 0 .7.36 1.29 1.06 1.29.41 0 .77-.25.9-.67.04-.11.05-.24.05-.35l.01-.64zm.66 1.65c0 .83-.17 1.33-.51 1.64-.36.32-.86.43-1.31.43-.43 0-.9-.1-1.19-.3l.16-.5c.24.16.61.29 1.05.29.67 0 1.16-.35 1.16-1.26v-.39h-.02c-.19.33-.58.6-1.14.6-.89 0-1.53-.76-1.53-1.75 0-1.21.79-1.9 1.62-1.9.62 0 .96.32 1.12.62h.01l.02-.54h.58c-.02.25-.03.55-.03.98l.01 2.08zM97.03 53.12c-.71-.01-1.52.11-1.52.81 0 .43.28.62.61.62.47 0 .78-.3.88-.6.02-.07.03-.15.03-.21v-.62zm.63.97c0 .31.01.61.05.86h-.59l-.05-.45h-.02c-.2.28-.59.53-1.1.53-.73 0-1.1-.51-1.1-1.03 0-.87.77-1.34 2.15-1.33v-.07c0-.29-.08-.83-.81-.82-.34 0-.69.1-.94.27l-.15-.44c.3-.19.73-.31 1.19-.31 1.1 0 1.36.75 1.36 1.46l.01 1.33zM101.15 52.83c0-.08-.01-.19-.03-.27a.96.96 0 0 0-.94-.75c-.67 0-1.07.59-1.07 1.38 0 .73.36 1.32 1.06 1.32.44 0 .84-.29.95-.78.02-.09.03-.18.03-.28v-.62zm.65-3.13v4.33c0 .32.02.68.03.93h-.58l-.03-.62h-.02c-.19.4-.62.7-1.21.7-.87 0-1.54-.73-1.54-1.82-.01-1.19.74-1.92 1.61-1.92.56 0 .92.26 1.08.54h.02V49.7h.64zM102.88 52.34c0-.38-.02-.67-.03-.97h.57l.03.58h.02c.2-.34.53-.66 1.13-.66.48 0 .85.3 1.01.72h.02c.11-.21.26-.36.41-.47.22-.16.44-.25.78-.25.48 0 1.19.31 1.19 1.55v2.1h-.64v-2.02c0-.7-.26-1.1-.78-1.1-.38 0-.66.27-.78.59-.03.1-.05.21-.05.33v2.21h-.64V52.8c0-.57-.25-.98-.75-.98-.4 0-.7.33-.81.65-.04.09-.05.21-.05.32v2.15h-.64l.01-2.6zM109.05 54.95v-3.58h.65v3.58h-.65zm.73-4.59c0 .22-.16.4-.41.4-.24 0-.39-.18-.39-.4a.4.4 0 0 1 .41-.41c.23 0 .39.18.39.41zM110.78 52.34c0-.38-.01-.67-.03-.97h.58l.04.59h.02c.18-.33.59-.67 1.18-.67.5 0 1.27.3 1.27 1.53v2.13h-.65v-2.07c0-.58-.21-1.06-.83-1.06-.42 0-.76.3-.87.67-.03.08-.04.19-.04.3v2.15h-.65l-.02-2.6zM114.89 54.95v-3.58h.65v3.58h-.65zm.73-4.59c0 .22-.16.4-.41.4-.24 0-.39-.18-.39-.4a.4.4 0 0 1 .41-.41c.22 0 .39.18.39.41zM116.53 54.29c.2.12.54.25.87.25.47 0 .69-.23.69-.53 0-.31-.19-.47-.66-.65-.65-.24-.95-.59-.95-1.01 0-.58.47-1.05 1.24-1.05.36 0 .68.1.87.22l-.16.47c-.14-.09-.4-.21-.73-.21-.38 0-.59.22-.59.49 0 .3.21.43.67.61.62.23.94.54.94 1.07 0 .64-.5 1.08-1.33 1.08-.39 0-.76-.1-1.01-.25l.15-.49zM120.34 50.51v.86h.93v.5h-.93v1.93c0 .44.13.7.49.7.18 0 .28-.02.38-.04l.03.49c-.13.04-.33.09-.58.09-.3 0-.55-.1-.7-.27-.18-.2-.25-.52-.25-.94v-1.95h-.56v-.5h.56v-.68l.63-.19zM124.23 52.81c.01-.41-.17-1.05-.9-1.05-.67 0-.95.6-1 1.05h1.9zm-1.91.47c.01.88.57 1.24 1.23 1.24.47 0 .76-.08.99-.18l.12.47c-.23.1-.63.23-1.2.23-1.1 0-1.76-.73-1.76-1.81s.64-1.93 1.68-1.93c1.18 0 1.48 1.02 1.48 1.68 0 .13-.01.23-.02.3h-2.52zM125.66 52.49c0-.42-.01-.78-.03-1.12h.57l.03.71h.02c.16-.48.56-.79 1-.79.07 0 .12.01.18.02v.62c-.07-.02-.13-.02-.22-.02-.46 0-.78.34-.87.83-.01.09-.02.2-.02.3v1.91h-.65l-.01-2.46zM130.28 52.81c.01-.41-.17-1.05-.9-1.05-.67 0-.95.6-1 1.05h1.9zm-1.91.47c.01.88.57 1.24 1.23 1.24.47 0 .76-.08.99-.18l.12.47c-.23.1-.63.23-1.2.23-1.1 0-1.76-.73-1.76-1.81s.64-1.93 1.68-1.93c1.18 0 1.48 1.02 1.48 1.68 0 .13-.01.23-.02.3h-2.52zM134.16 52.83c0-.08-.01-.19-.03-.27a.96.96 0 0 0-.94-.75c-.67 0-1.07.59-1.07 1.38 0 .73.36 1.32 1.06 1.32.44 0 .84-.29.96-.78.02-.09.03-.18.03-.28l-.01-.62zm.64-3.13v4.33c0 .32.01.68.03.93h-.58l-.03-.62h-.02c-.19.4-.62.7-1.21.7-.87 0-1.54-.73-1.54-1.82-.01-1.19.74-1.92 1.61-1.92.56 0 .92.26 1.08.54h.01V49.7h.65zM137.52 54.95v-3.09h-.5v-.5h.5v-.16c0-.5.12-.96.41-1.25.24-.24.57-.33.87-.33.24 0 .43.05.55.1l-.09.5c-.1-.04-.22-.08-.41-.08-.56 0-.7.48-.7 1.04v.19h.87v.5h-.87v3.09h-.63zM139.61 52.49c0-.42-.01-.78-.03-1.12h.57l.03.71h.02c.16-.48.56-.79 1-.79.07 0 .12.01.18.02v.62c-.07-.02-.13-.02-.22-.02-.46 0-.79.34-.87.83-.01.09-.02.2-.02.3v1.91h-.65l-.01-2.46zM142.37 53.17c0 .78.44 1.38 1.08 1.38.62 0 1.09-.59 1.09-1.39 0-.61-.3-1.37-1.07-1.37-.77-.01-1.1.7-1.1 1.38zm2.83-.04c0 1.33-.93 1.9-1.78 1.9-.96 0-1.72-.71-1.72-1.84 0-1.19.79-1.9 1.78-1.9 1.03 0 1.72.75 1.72 1.84zM146.02 52.34c0-.38-.02-.67-.03-.97h.57l.03.58h.02c.2-.34.53-.66 1.13-.66.48 0 .85.3 1.01.72h.01c.11-.21.26-.36.41-.47.21-.16.44-.25.78-.25.48 0 1.18.31 1.18 1.55v2.1h-.64v-2.02c0-.7-.26-1.1-.78-1.1-.38 0-.66.27-.78.59-.03.1-.05.21-.05.33v2.21h-.64V52.8c0-.57-.25-.98-.75-.98-.4 0-.7.33-.81.65-.04.09-.05.21-.05.32v2.15h-.64l.03-2.6zM5.75 60.61c0 .6.36 1.02.92 1.02.44 0 .78-.21.95-.5.04-.07.06-.13.06-.24 0-.82-.3-1.45-.99-1.45-.54-.01-.94.48-.94 1.17zm-.23 2.76c.14.02.3 0 .52-.02.38-.05.73-.2 1.01-.47.32-.29.55-.71.64-1.27h-.03c-.27.33-.65.51-1.14.51-.86 0-1.41-.65-1.41-1.47 0-.91.66-1.71 1.64-1.71s1.59.79 1.59 2.04c0 1.05-.36 1.79-.83 2.25-.37.36-.88.58-1.4.64-.24.04-.44.04-.6.04v-.54h.01zM8.99 63.45c0-.27.19-.47.44-.47.27 0 .44.19.44.47 0 .26-.17.46-.44.46-.26 0-.44-.2-.44-.46zm0-2.61c0-.27.19-.47.44-.47.27 0 .44.19.44.47 0 .26-.17.46-.44.46-.26 0-.44-.2-.44-.46zM11.06 61.45c0 1.25.39 1.96.98 1.96.66 0 .98-.78.98-2.01 0-1.18-.3-1.96-.98-1.96-.57 0-.98.7-.98 2.01zm2.61-.08c0 1.64-.61 2.54-1.67 2.54-.94 0-1.58-.88-1.6-2.47 0-1.62.7-2.5 1.68-2.5 1.01 0 1.59.9 1.59 2.43zM14.85 61.45c0 1.25.39 1.96.98 1.96.66 0 .98-.78.98-2.01 0-1.18-.3-1.96-.98-1.96-.56 0-.98.7-.98 2.01zm2.62-.08c0 1.64-.62 2.54-1.67 2.54-.94 0-1.58-.88-1.6-2.47 0-1.62.7-2.5 1.68-2.5 1 0 1.59.9 1.59 2.43zM21.72 62c-.71-.02-1.52.11-1.52.81 0 .43.28.62.61.62.47 0 .78-.3.88-.6.02-.07.03-.15.03-.21V62zm.63.97c0 .31.01.61.05.86h-.58l-.05-.45h-.02c-.2.28-.58.53-1.1.53-.73 0-1.09-.51-1.09-1.03 0-.87.77-1.34 2.15-1.33v-.07c0-.29-.08-.83-.81-.82-.34 0-.69.1-.94.27l-.15-.44c.3-.19.73-.31 1.18-.31 1.1 0 1.36.75 1.36 1.46v1.33zM23.4 61.22c0-.38-.01-.67-.03-.97h.58l.04.59H24c.18-.33.59-.67 1.18-.67.5 0 1.27.3 1.27 1.53v2.13h-.65v-2.07c0-.58-.21-1.06-.83-1.06-.42 0-.76.3-.87.67-.03.08-.04.19-.04.3v2.15h-.66v-2.6zM29.95 61.7c0-.08-.01-.19-.03-.27a.96.96 0 0 0-.94-.75c-.67 0-1.07.59-1.07 1.38 0 .73.36 1.33 1.06 1.33.44 0 .84-.29.95-.78.02-.09.03-.18.03-.28v-.63zm.64-3.13v4.33c0 .32.02.68.03.93h-.58l-.03-.62h-.02c-.19.4-.62.7-1.21.7-.87 0-1.54-.73-1.54-1.82-.01-1.19.74-1.92 1.61-1.92.56 0 .92.26 1.08.54h.01v-2.14h.65zM35.13 62c-.71-.02-1.52.11-1.52.81 0 .43.28.62.61.62.47 0 .78-.3.88-.6.02-.07.03-.15.03-.21V62zm.63.97c0 .31.01.61.05.86h-.58l-.05-.45h-.02c-.2.28-.59.53-1.1.53-.73 0-1.1-.51-1.1-1.03 0-.87.77-1.34 2.15-1.33v-.07c0-.29-.08-.83-.81-.82-.34 0-.69.1-.94.27l-.15-.44c.3-.19.73-.31 1.19-.31 1.1 0 1.36.75 1.36 1.46v1.33zM37.57 59.39v.86h.93v.49h-.93v1.93c0 .45.13.7.49.7.18 0 .28-.01.38-.04l.03.5c-.13.04-.33.09-.58.09-.3 0-.55-.1-.7-.27-.18-.2-.25-.52-.25-.94v-1.96h-.56v-.49h.56v-.67l.63-.2zM40.75 63.09c.18.11.61.29 1.07.29.83 0 1.1-.52 1.09-.93-.01-.67-.61-.96-1.24-.96h-.36V61h.36c.47 0 1.07-.24 1.07-.81 0-.38-.25-.72-.84-.72-.39 0-.76.17-.96.32l-.18-.47c.26-.19.75-.37 1.26-.37.95 0 1.38.56 1.38 1.15 0 .5-.3.92-.89 1.14v.01c.59.11 1.07.56 1.07 1.23 0 .77-.61 1.44-1.75 1.44-.54 0-1.01-.17-1.25-.33l.17-.5zM44.98 61.45c0 1.25.39 1.96.98 1.96.66 0 .98-.78.98-2.01 0-1.18-.3-1.96-.98-1.96-.57 0-.98.7-.98 2.01zm2.61-.08c0 1.64-.62 2.54-1.67 2.54-.94 0-1.58-.88-1.6-2.47 0-1.62.7-2.5 1.68-2.5 1.01 0 1.59.9 1.59 2.43zM52.4 61.7c0-.08-.01-.19-.03-.27a.96.96 0 0 0-.94-.75c-.67 0-1.07.59-1.07 1.38 0 .73.36 1.33 1.06 1.33.44 0 .84-.29.95-.78.02-.09.03-.18.03-.28v-.63zm.64-3.13v4.33c0 .32.01.68.03.93h-.57l-.03-.62h-.02c-.19.4-.62.7-1.21.7-.87 0-1.54-.73-1.54-1.82-.01-1.19.74-1.92 1.61-1.92.56 0 .92.26 1.08.54h.01v-2.14h.64zM54.13 61.36c0-.42-.01-.78-.03-1.12h.57l.03.71h.02c.16-.48.56-.79 1-.79.07 0 .12.01.18.01v.62c-.07-.01-.13-.01-.22-.01-.46 0-.78.34-.87.83-.01.09-.02.2-.02.3v1.91h-.65l-.01-2.46zM56.88 62.04c0 .78.44 1.38 1.08 1.38.62 0 1.09-.58 1.09-1.39 0-.61-.3-1.37-1.07-1.37-.76 0-1.1.71-1.1 1.38zm2.84-.03c0 1.33-.93 1.9-1.79 1.9-.96 0-1.72-.71-1.72-1.84 0-1.19.79-1.9 1.78-1.9 1.03 0 1.73.75 1.73 1.84zM61.18 62.37a1.006 1.006 0 0 0 1.01 1.03c.69 0 1.09-.56 1.09-1.39 0-.71-.38-1.32-1.07-1.32-.44 0-.87.31-.98.8-.02.08-.05.18-.05.26v.62zm-.64-.95c0-.46-.02-.83-.03-1.17h.58l.04.61h.01c.26-.44.69-.69 1.27-.69.87 0 1.52.73 1.52 1.81 0 1.29-.79 1.92-1.64 1.92-.47 0-.89-.21-1.1-.56h-.02v1.95h-.64l.01-3.87zM64.66 63.17c.2.12.54.25.87.25.47 0 .69-.23.69-.53 0-.31-.19-.47-.66-.65-.66-.24-.96-.59-.96-1.02 0-.58.47-1.05 1.24-1.05.36 0 .68.1.87.22l-.16.47c-.14-.09-.4-.22-.73-.22-.38 0-.59.22-.59.49 0 .3.21.43.67.61.61.23.94.54.94 1.07 0 .64-.5 1.08-1.33 1.08-.39 0-.76-.1-1.01-.25l.16-.47zM69.89 62.37a1.006 1.006 0 0 0 1.01 1.03c.69 0 1.09-.56 1.09-1.39 0-.71-.38-1.32-1.07-1.32-.44 0-.87.31-.99.8-.02.08-.04.18-.04.26v.62zm-.65-.95c0-.46-.02-.83-.03-1.17h.58l.04.61h.01c.26-.44.69-.69 1.27-.69.87 0 1.53.73 1.53 1.81 0 1.29-.79 1.92-1.64 1.92-.47 0-.89-.21-1.1-.56h-.02v1.95h-.64v-3.87zM75.73 61.69c.01-.41-.17-1.05-.9-1.05-.67 0-.95.6-1 1.05h1.9zm-1.91.47c.02.88.57 1.24 1.23 1.24.47 0 .76-.08.99-.19l.12.47c-.23.1-.63.23-1.2.23-1.1 0-1.76-.73-1.76-1.81s.64-1.92 1.68-1.92c1.18 0 1.48 1.02 1.48 1.68 0 .13-.01.23-.02.3h-2.52zM77.16 61.36c0-.42-.01-.78-.03-1.12h.57l.03.71h.02c.16-.48.56-.79 1-.79.07 0 .12.01.18.01v.62c-.07-.01-.13-.01-.22-.01-.46 0-.78.34-.87.83-.02.09-.02.2-.02.3v1.91h-.65l-.01-2.46zM81.15 61.22c0-.38-.02-.67-.03-.97h.57l.03.58h.02c.2-.34.53-.66 1.13-.66.48 0 .85.3 1.01.72h.02c.11-.21.26-.36.41-.47.22-.16.44-.25.78-.25.48 0 1.19.31 1.19 1.55v2.1h-.64V61.8c0-.7-.26-1.1-.78-1.1-.38 0-.66.28-.78.59-.03.1-.05.21-.05.33v2.21h-.64v-2.15c0-.57-.25-.98-.75-.98-.4 0-.7.33-.81.65-.04.09-.05.21-.05.32v2.15h-.64l.01-2.6zM87.32 63.83v-3.58h.65v3.58h-.65zm.72-4.59c0 .22-.16.4-.41.4-.24 0-.39-.18-.39-.4a.4.4 0 0 1 .41-.41c.23 0 .39.18.39.41zM89.05 61.22c0-.38-.01-.67-.03-.97h.58l.04.59h.02c.18-.33.59-.67 1.18-.67.5 0 1.27.3 1.27 1.53v2.13h-.65v-2.07c0-.58-.22-1.06-.83-1.06-.42 0-.76.3-.87.67-.03.08-.04.19-.04.3v2.15h-.65v-2.6zM96.15 62.84c0 .38.01.7.03.98h-.58l-.04-.58h-.01c-.16.29-.55.67-1.18.67-.56 0-1.24-.32-1.24-1.57v-2.09h.65v1.98c0 .68.21 1.15.8 1.15.44 0 .74-.3.86-.6.04-.09.06-.21.06-.33v-2.19h.65v2.58zM98.02 59.39v.86h.93v.49h-.93v1.93c0 .45.13.7.49.7.18 0 .28-.01.38-.04l.03.5c-.13.04-.33.09-.58.09-.3 0-.55-.1-.7-.27-.18-.2-.25-.52-.25-.94v-1.96h-.55v-.49h.55v-.67l.63-.2zM101.91 61.69c.01-.41-.17-1.05-.9-1.05-.67 0-.95.6-1 1.05h1.9zm-1.91.47c.01.88.57 1.24 1.23 1.24.47 0 .76-.08.99-.19l.12.47c-.23.1-.63.23-1.2.23-1.1 0-1.76-.73-1.76-1.81s.64-1.92 1.68-1.92c1.18 0 1.48 1.02 1.48 1.68 0 .13-.01.23-.02.3H100zM104.98 63.83v-3.09h-.5v-.5h.5v-.17c0-.5.12-.96.41-1.25.24-.24.57-.33.87-.33.24 0 .43.05.55.1l-.09.5c-.1-.04-.22-.08-.41-.08-.55 0-.7.48-.7 1.04v.19h.87v.49h-.87v3.09l-.63.01zM107.07 61.36c0-.42-.01-.78-.03-1.12h.57l.03.71h.02c.16-.48.56-.79 1-.79.07 0 .12.01.18.01v.62c-.07-.01-.13-.01-.22-.01-.46 0-.79.34-.87.83-.01.09-.02.2-.02.3v1.91h-.65l-.01-2.46zM109.82 62.04c0 .78.44 1.38 1.08 1.38.62 0 1.09-.58 1.09-1.39 0-.61-.3-1.37-1.07-1.37-.76 0-1.1.71-1.1 1.38zm2.84-.03c0 1.33-.92 1.9-1.78 1.9-.96 0-1.72-.71-1.72-1.84 0-1.19.79-1.9 1.78-1.9 1.02 0 1.72.75 1.72 1.84zM113.48 61.22c0-.38-.02-.67-.03-.97h.57l.03.58h.02c.2-.34.53-.66 1.13-.66.48 0 .85.3 1.01.72h.01c.11-.21.26-.36.41-.47.21-.16.44-.25.78-.25.48 0 1.18.31 1.18 1.55v2.1h-.64V61.8c0-.7-.26-1.1-.78-1.1-.38 0-.66.28-.78.59-.03.1-.05.21-.05.33v2.21h-.64v-2.15c0-.57-.25-.98-.75-.98-.4 0-.7.33-.81.65-.04.09-.05.21-.05.32v2.15h-.64v-2.6zM122.42 59.62h-.01l-.84.46-.12-.5 1.05-.56h.55v4.81h-.63zM125.39 61.45c0 1.25.39 1.96.98 1.96.66 0 .98-.78.98-2.01 0-1.18-.3-1.96-.98-1.96-.56 0-.98.7-.98 2.01zm2.62-.08c0 1.64-.61 2.54-1.67 2.54-.94 0-1.58-.88-1.6-2.47 0-1.62.7-2.5 1.68-2.5 1 0 1.59.9 1.59 2.43zM128.66 63.45c0-.27.19-.47.44-.47.27 0 .44.19.44.47 0 .26-.17.46-.44.46-.26 0-.44-.2-.44-.46zm0-2.61c0-.27.19-.47.44-.47.27 0 .44.19.44.47 0 .26-.17.46-.44.46-.26 0-.44-.2-.44-.46zM130.72 61.45c0 1.25.39 1.96.98 1.96.66 0 .98-.78.98-2.01 0-1.18-.3-1.96-.98-1.96-.56 0-.98.7-.98 2.01zm2.62-.08c0 1.64-.61 2.54-1.67 2.54-.94 0-1.58-.88-1.6-2.47 0-1.62.7-2.5 1.68-2.5 1 0 1.59.9 1.59 2.43zM134.52 61.45c0 1.25.39 1.96.98 1.96.66 0 .98-.78.98-2.01 0-1.18-.3-1.96-.98-1.96-.57 0-.98.7-.98 2.01zm2.61-.08c0 1.64-.62 2.54-1.67 2.54-.94 0-1.58-.88-1.6-2.47 0-1.62.7-2.5 1.68-2.5 1.01 0 1.59.9 1.59 2.43zM137.77 63.44c0-.27.19-.47.44-.47.26 0 .44.19.44.47 0 .27-.18.47-.45.47-.25 0-.43-.2-.43-.47z" clip-path="url(#B)"/><g><path d="M204.87 83.54v-2.73h-1.02v-.37h2.45v.37h-1.02v2.73h-.41zM206.68 83.54v-3.09h.41v3.09h-.41zM207.68 83.54v-3.09h.62l.73 2.19c.07.2.12.36.15.46.03-.11.09-.28.16-.5l.74-2.15h.55v3.09h-.39v-2.59l-.9 2.59h-.37l-.89-2.63v2.63h-.4zM211.18 83.54v-3.09h2.24v.37h-1.83v.95h1.71v.36h-1.71v1.05h1.9v.37h-2.31z"/></g><path d="M222.21 78.02h.48v9.36h-.48z"/><path d="M424.74 77.54H165.57v.48h259.22c-.02-.16-.04-.32-.05-.48zM425.68 86.9H165.57v.48h260.08c0-.16.01-.32.03-.48z"/><path d="M165.1 77.91h.48v9.36h-.48zM239.61 77.91h.48v9.36h-.48zM256.64 78.02h.48v9.36h-.48zM272.71 77.91h.48v9.36h-.48zM288.92 77.91h.48v9.36h-.48zM305.56 77.91h.48v9.36h-.48zM322.07 77.91h.48v9.36h-.48zM337.83 78.02h.48v9.36h-.48zM353.12 78.02h.48v9.36h-.48zM371.16 77.91h.48v9.36h-.48zM389.63 77.91h.48v9.36h-.48zM409.01 77.91h.48v9.36h-.48z"/><g><path d="M227.84 82.23c0 .54-.13.97-.37 1.29a1.2 1.2 0 0 1-1 .48c-.41 0-.74-.13-.99-.39s-.37-.61-.37-1.06c0-.53.14-.95.43-1.28s.65-.49 1.07-.49c.37 0 .67.13.89.38.23.26.34.62.34 1.07zm-.49.1c0-.35-.07-.62-.21-.83-.14-.2-.33-.31-.56-.31-.28 0-.51.12-.69.36-.19.25-.29.57-.29.98 0 .32.08.58.24.77.16.19.36.28.62.28.25 0 .46-.12.63-.36.18-.24.26-.54.26-.89zM230.28 83.19c0 .33-.09.59-.28.79-.19.2-.43.3-.74.3-.34 0-.6-.14-.79-.42s-.28-.69-.28-1.23c0-.69.12-1.24.35-1.64.23-.39.53-.58.92-.58.25 0 .46.1.62.29.09.1.13.2.13.28 0 .06-.03.12-.09.17-.06.05-.13.07-.21.07-.05 0-.1-.03-.13-.08-.12-.19-.25-.28-.38-.28-.19 0-.35.13-.47.38-.13.27-.21.64-.23 1.13.15-.17.35-.25.6-.25.28 0 .51.1.7.31.19.18.28.44.28.76zm-.5.1a.86.86 0 0 0-.17-.55.53.53 0 0 0-.43-.21.4.4 0 0 0-.33.15c-.08.1-.12.23-.12.4 0 .21.06.39.17.54.11.15.25.22.42.22.14 0 .25-.05.34-.15.08-.09.12-.23.12-.4zM231.42 81.78c0 .09-.04.17-.11.24-.08.07-.17.1-.27.1a.34.34 0 0 1-.26-.1.362.362 0 0 1-.1-.27c0-.1.03-.18.1-.25a.41.41 0 0 1 .28-.09c.1 0 .19.04.26.11s.1.16.1.26zm.12 1.55c0 .09-.04.18-.12.25a.41.41 0 0 1-.56 0 .334.334 0 0 1-.11-.27.362.362 0 0 1 .38-.36c.13 0 .23.03.3.1.08.07.11.16.11.28zM234.77 82.23c0 .54-.13.97-.37 1.29a1.2 1.2 0 0 1-1 .48c-.41 0-.74-.13-.99-.39s-.37-.61-.37-1.06c0-.53.14-.95.43-1.28s.65-.49 1.07-.49c.37 0 .67.13.89.38.23.26.34.62.34 1.07zm-.49.1c0-.35-.07-.62-.21-.83-.14-.2-.33-.31-.56-.31-.28 0-.51.12-.69.36-.19.25-.29.57-.29.98 0 .32.08.58.24.77.16.19.36.28.62.28.25 0 .46-.12.63-.36.17-.24.26-.54.26-.89zM237.77 82.23c0 .54-.13.97-.37 1.29a1.2 1.2 0 0 1-1 .48c-.41 0-.74-.13-.99-.39s-.37-.61-.37-1.06c0-.53.14-.95.43-1.28s.65-.49 1.07-.49c.37 0 .67.13.89.38.23.26.34.62.34 1.07zm-.49.1c0-.35-.07-.62-.21-.83-.14-.2-.33-.31-.56-.31-.28 0-.51.12-.69.36-.19.25-.29.57-.29.98 0 .32.08.58.24.77.16.19.36.28.62.28.25 0 .46-.12.63-.36.17-.24.26-.54.26-.89z"/></g><g><path d="M244.77 83.73c0 .21-.28.31-.83.31-.79 0-1.19-.14-1.19-.41 0-.13.06-.19.19-.19.03 0 .09.01.19.03.12.03.22.04.31.06.27-.93.41-1.71.41-2.34v-.03c-.41.19-.7.29-.86.29-.12 0-.18-.07-.18-.22 0-.08.03-.15.09-.19.04-.02.12-.06.26-.1.09-.03.27-.1.55-.2.16-.06.27-.09.34-.09.2 0 .3.17.3.52 0 .54-.14 1.35-.42 2.41h.12c.1 0 .21-.02.33-.05.12-.03.18-.05.2-.05.12 0 .19.09.19.25zM247.53 81.11c0 .07-.02.17-.06.31-.22.67-.55 1.3-1 1.88-.21.27-.42.49-.63.66-.18.14-.31.22-.39.22-.05 0-.1-.02-.14-.06a.197.197 0 0 1-.06-.14c0-.07.1-.21.31-.42.14-.14.34-.35.6-.64.36-.44.64-.98.83-1.61-.27-.1-.55-.14-.85-.14-.22 0-.45.02-.68.06v.09c0 .23-.1.35-.3.35-.15 0-.22-.15-.22-.45 0-.17.06-.28.2-.34.25-.11.59-.17 1.01-.17.91-.01 1.38.12 1.38.4zM248.54 81.74c0 .09-.04.17-.11.24-.08.07-.17.1-.27.1a.34.34 0 0 1-.26-.1.362.362 0 0 1-.1-.27c0-.1.03-.18.1-.25a.41.41 0 0 1 .28-.09c.1 0 .19.04.26.11s.1.16.1.26zm.12 1.55c0 .09-.04.18-.12.25a.41.41 0 0 1-.56 0 .334.334 0 0 1-.11-.27.362.362 0 0 1 .38-.36c.13 0 .23.03.3.1s.11.16.11.28zM251.89 82.19c0 .54-.13.97-.37 1.29a1.2 1.2 0 0 1-1 .48c-.41 0-.74-.13-.99-.39s-.37-.61-.37-1.06c0-.53.14-.95.43-1.28s.65-.49 1.07-.49c.37 0 .67.13.89.38.23.27.34.62.34 1.07zm-.49.1c0-.35-.07-.62-.21-.83-.14-.2-.33-.31-.56-.31-.28 0-.51.12-.69.36-.19.25-.29.57-.29.98 0 .32.08.58.24.77.16.19.36.28.62.28.25 0 .46-.12.63-.36.17-.24.26-.54.26-.89zM254.89 82.19c0 .54-.13.97-.37 1.29a1.2 1.2 0 0 1-1 .48c-.41 0-.74-.13-.99-.39s-.37-.61-.37-1.06c0-.53.14-.95.43-1.28s.65-.49 1.07-.49c.37 0 .67.13.89.38.23.27.34.62.34 1.07zm-.49.1c0-.35-.07-.62-.21-.83-.14-.2-.33-.31-.56-.31-.28 0-.51.12-.69.36-.19.25-.29.57-.29.98 0 .32.08.58.24.77.16.19.36.28.62.28.25 0 .46-.12.63-.36.17-.24.26-.54.26-.89z"/></g><g><path d="M261.44 82.19c0 .54-.13.97-.37 1.29a1.2 1.2 0 0 1-1 .48c-.41 0-.74-.13-.99-.39s-.37-.61-.37-1.06c0-.53.14-.95.43-1.28s.65-.49 1.07-.49c.37 0 .67.13.89.38.23.27.34.62.34 1.07zm-.49.1c0-.35-.07-.62-.21-.83-.14-.2-.33-.31-.56-.31-.28 0-.51.12-.69.36-.19.25-.29.57-.29.98 0 .32.08.58.24.77.16.19.36.28.62.28.25 0 .46-.12.63-.36.18-.24.26-.54.26-.89zM264.05 81.61c0 .3-.15.53-.46.67.3.17.45.41.45.71 0 .31-.11.56-.33.75-.23.2-.53.3-.9.3-.33 0-.59-.09-.79-.27-.2-.18-.3-.41-.3-.7 0-.37.16-.64.49-.82a.896.896 0 0 1-.34-.73c0-.26.1-.47.3-.65.2-.17.46-.26.77-.26.33 0 .6.09.8.27.2.2.31.44.31.73zm-.55 1.42c0-.17-.06-.3-.17-.41a.694.694 0 0 0-.46-.16c-.2 0-.36.05-.48.16s-.18.25-.18.42c0 .17.05.31.16.41.11.1.25.15.43.15.22 0 .39-.05.51-.16.13-.09.19-.23.19-.41zm.03-1.39c0-.18-.06-.32-.17-.43s-.26-.16-.44-.16c-.17 0-.3.05-.4.15-.1.1-.15.22-.15.38s.05.29.16.39c.11.1.24.15.41.15.18 0 .33-.04.43-.13.11-.09.16-.21.16-.35zM265.25 81.74c0 .09-.04.17-.11.24-.08.07-.17.1-.27.1a.34.34 0 0 1-.26-.1.362.362 0 0 1-.1-.27c0-.1.03-.18.1-.25a.41.41 0 0 1 .28-.09c.1 0 .19.04.26.11.06.07.1.16.1.26zm.11 1.55c0 .09-.04.18-.12.25a.41.41 0 0 1-.56 0 .334.334 0 0 1-.11-.27.362.362 0 0 1 .38-.36c.13 0 .23.03.3.1s.11.16.11.28zM268.59 82.19c0 .54-.13.97-.37 1.29a1.2 1.2 0 0 1-1 .48c-.41 0-.74-.13-.99-.39s-.37-.61-.37-1.06c0-.53.14-.95.43-1.28s.65-.49 1.07-.49c.37 0 .67.13.89.38.23.27.34.62.34 1.07zm-.49.1c0-.35-.07-.62-.21-.83-.14-.2-.33-.31-.56-.31-.28 0-.51.12-.69.36-.19.25-.29.57-.29.98 0 .32.08.58.24.77.16.19.36.28.62.28.25 0 .46-.12.63-.36.17-.24.26-.54.26-.89zM271.59 82.19c0 .54-.13.97-.37 1.29a1.2 1.2 0 0 1-1 .48c-.41 0-.74-.13-.99-.39s-.37-.61-.37-1.06c0-.53.14-.95.43-1.28s.65-.49 1.07-.49c.37 0 .67.13.89.38.23.27.34.62.34 1.07zm-.49.1c0-.35-.07-.62-.21-.83-.14-.2-.33-.31-.56-.31-.28 0-.51.12-.69.36-.19.25-.29.57-.29.98 0 .32.08.58.24.77.16.19.36.28.62.28.25 0 .46-.12.63-.36.18-.24.26-.54.26-.89z"/></g><g><path d="M277.44 82.19c0 .54-.13.97-.37 1.29a1.2 1.2 0 0 1-1 .48c-.41 0-.74-.13-.99-.39s-.37-.61-.37-1.06c0-.53.14-.95.43-1.28s.65-.49 1.07-.49c.37 0 .67.13.89.38.23.27.34.62.34 1.07zm-.49.1c0-.35-.07-.62-.21-.83-.14-.2-.33-.31-.56-.31-.28 0-.51.12-.69.36-.19.25-.29.57-.29.98 0 .32.08.58.24.77.16.19.36.28.62.28.25 0 .46-.12.63-.36.18-.24.26-.54.26-.89zM280.02 81.94c0 .87-.43 1.6-1.28 2.21-.2.14-.37.21-.52.21-.15 0-.23-.07-.23-.21 0-.05.03-.11.09-.16.02-.02.1-.07.24-.17.31-.21.53-.39.67-.53.2-.21.34-.46.43-.74-.18.16-.4.24-.66.24-.24 0-.44-.07-.62-.21-.27-.21-.41-.5-.41-.85 0-.32.11-.59.32-.81.22-.22.49-.33.81-.33.36 0 .64.12.85.35s.31.59.31 1zm-.52-.22c0-.2-.06-.35-.18-.48a.648.648 0 0 0-.47-.19c-.18 0-.32.06-.44.19s-.17.29-.17.49c0 .18.06.33.18.46s.26.19.42.19c.18 0 .33-.07.46-.2s.2-.28.2-.46zM281.22 81.74c0 .09-.04.17-.11.24-.08.07-.17.1-.27.1a.34.34 0 0 1-.26-.1.362.362 0 0 1-.1-.27c0-.1.03-.18.1-.25a.41.41 0 0 1 .28-.09c.1 0 .19.04.26.11s.1.16.1.26zm.12 1.55c0 .09-.04.18-.12.25a.41.41 0 0 1-.56 0 .334.334 0 0 1-.11-.27.362.362 0 0 1 .38-.36c.13 0 .23.03.3.1s.11.16.11.28zM284.56 82.19c0 .54-.13.97-.37 1.29a1.2 1.2 0 0 1-1 .48c-.41 0-.74-.13-.99-.39s-.37-.61-.37-1.06c0-.53.14-.95.43-1.28s.65-.49 1.07-.49c.37 0 .67.13.89.38.23.27.34.62.34 1.07zm-.48.1c0-.35-.07-.62-.21-.83-.14-.2-.33-.31-.56-.31-.28 0-.51.12-.69.36-.19.25-.29.57-.29.98 0 .32.08.58.24.77.16.19.36.28.62.28.25 0 .46-.12.63-.36.17-.24.26-.54.26-.89zM287.56 82.19c0 .54-.13.97-.37 1.29a1.2 1.2 0 0 1-1 .48c-.41 0-.74-.13-.99-.39s-.37-.61-.37-1.06c0-.53.14-.95.43-1.28s.65-.49 1.07-.49c.37 0 .67.13.89.38.23.27.34.62.34 1.07zm-.48.1c0-.35-.07-.62-.21-.83-.14-.2-.33-.31-.56-.31-.28 0-.51.12-.69.36-.19.25-.29.57-.29.98 0 .32.08.58.24.77.16.19.36.28.62.28.25 0 .46-.12.63-.36.17-.24.26-.54.26-.89z"/></g><g><path d="M292.76 83.73c0 .21-.28.31-.83.31-.79 0-1.19-.14-1.19-.41 0-.13.06-.19.19-.19.03 0 .09.01.19.03.12.03.22.04.31.06.27-.93.41-1.71.41-2.34v-.03c-.41.19-.7.29-.86.29-.12 0-.18-.07-.18-.22 0-.08.03-.15.09-.19.04-.02.12-.06.26-.1.09-.03.27-.1.55-.2.16-.06.27-.09.34-.09.2 0 .3.17.3.52 0 .54-.14 1.35-.42 2.41h.12c.1 0 .21-.02.33-.05.12-.03.18-.05.2-.05.13 0 .19.09.19.25zM295.74 82.19c0 .54-.13.97-.37 1.29a1.2 1.2 0 0 1-1 .48c-.41 0-.74-.13-.99-.39s-.37-.61-.37-1.06c0-.53.14-.95.43-1.28s.65-.49 1.07-.49c.37 0 .67.13.89.38.23.27.34.62.34 1.07zm-.49.1c0-.35-.07-.62-.21-.83-.14-.2-.33-.31-.56-.31-.28 0-.51.12-.69.36-.19.25-.29.57-.29.98 0 .32.08.58.24.77.16.19.36.28.62.28.25 0 .46-.12.63-.36.18-.24.26-.54.26-.89zM296.9 81.74c0 .09-.04.17-.11.24-.08.07-.17.1-.27.1a.34.34 0 0 1-.26-.1.362.362 0 0 1-.1-.27c0-.1.03-.18.1-.25a.41.41 0 0 1 .28-.09c.1 0 .19.04.26.11.06.07.1.16.1.26zm.12 1.55c0 .09-.04.18-.12.25a.41.41 0 0 1-.56 0 .334.334 0 0 1-.11-.27.362.362 0 0 1 .38-.36c.13 0 .23.03.3.1s.11.16.11.28zM300.24 82.19c0 .54-.13.97-.37 1.29a1.2 1.2 0 0 1-1 .48c-.41 0-.74-.13-.99-.39s-.37-.61-.37-1.06c0-.53.14-.95.43-1.28s.65-.49 1.07-.49c.37 0 .67.13.89.38.23.27.34.62.34 1.07zm-.49.1c0-.35-.07-.62-.21-.83-.14-.2-.33-.31-.56-.31-.28 0-.51.12-.69.36-.19.25-.29.57-.29.98 0 .32.08.58.24.77.16.19.36.28.62.28.25 0 .46-.12.63-.36.18-.24.26-.54.26-.89zM303.24 82.19c0 .54-.13.97-.37 1.29a1.2 1.2 0 0 1-1 .48c-.41 0-.74-.13-.99-.39s-.37-.61-.37-1.06c0-.53.14-.95.43-1.28s.65-.49 1.07-.49c.37 0 .67.13.89.38.23.27.34.62.34 1.07zm-.49.1c0-.35-.07-.62-.21-.83-.14-.2-.33-.31-.56-.31-.28 0-.51.12-.69.36-.19.25-.29.57-.29.98 0 .32.08.58.24.77.16.19.36.28.62.28.25 0 .46-.12.63-.36.18-.24.26-.54.26-.89z"/></g><g><path d="M290.17 58.2c0 .21-.28.31-.83.31-.79 0-1.19-.14-1.19-.41 0-.13.06-.19.19-.19.03 0 .09.01.19.03.12.03.22.04.31.06.27-.93.41-1.71.41-2.34v-.03c-.41.19-.7.29-.86.29-.12 0-.18-.07-.18-.22 0-.08.03-.15.09-.19.04-.02.12-.06.26-.1.09-.03.27-.1.55-.2.16-.06.27-.09.34-.09.2 0 .3.17.3.52 0 .54-.14 1.35-.42 2.41h.12c.1 0 .21-.02.33-.05.12-.03.18-.05.2-.05.12 0 .19.09.19.25z"/></g><g><path d="M290.08 63.73c0 .21-.28.31-.83.31-.79 0-1.19-.14-1.19-.41 0-.13.06-.19.19-.19.03 0 .09.01.19.03.12.03.22.04.31.06.27-.93.41-1.71.41-2.34v-.03c-.41.19-.7.29-.86.29-.12 0-.18-.07-.18-.22 0-.08.03-.15.09-.19.04-.02.12-.06.26-.1.09-.03.27-.1.55-.2.16-.06.27-.09.34-.09.2 0 .3.17.3.52 0 .54-.14 1.35-.42 2.41h.12c.1 0 .21-.02.33-.05.12-.03.18-.05.2-.05.12 0 .19.09.19.25zM292.5 62.84c0 .39-.12.7-.37.94-.24.24-.56.36-.94.36-.28 0-.51-.07-.69-.21-.18-.14-.27-.31-.27-.51 0-.07.02-.13.07-.18.05-.05.1-.07.16-.07.04 0 .08.02.11.06 0 .01.04.06.1.16.12.2.3.3.52.3.25 0 .45-.07.6-.22.15-.15.22-.34.22-.6 0-.27-.08-.51-.23-.7-.15-.19-.33-.29-.54-.29-.12 0-.25.03-.38.08s-.21.08-.24.08c-.13 0-.19-.07-.19-.21 0-.42.06-.79.18-1.14.05-.15.19-.22.42-.22.33 0 .66.06.97.18.19.07.28.15.28.25 0 .06-.03.12-.09.17-.06.05-.13.07-.22.07-.08 0-.21-.03-.39-.09-.18-.06-.32-.09-.41-.09 0 0-.04 0-.12.01-.08.16-.12.34-.12.54.15-.04.3-.06.42-.06.34 0 .61.13.83.38.22.27.32.6.32 1.01z"/></g><g><path d="M304.84 57.73c0 .21-.28.31-.83.31-.79 0-1.19-.14-1.19-.41 0-.13.06-.19.19-.19.03 0 .09.01.19.03.12.03.22.04.31.06.27-.93.41-1.71.41-2.34v-.03c-.41.19-.7.29-.86.29-.12 0-.18-.07-.18-.22 0-.08.03-.15.09-.19.04-.02.12-.06.26-.1.09-.03.27-.1.55-.2.16-.06.27-.09.34-.09.2 0 .3.17.3.52 0 .54-.14 1.35-.42 2.41h.12c.1 0 .21-.02.33-.05.12-.03.18-.05.2-.05.12 0 .19.09.19.25z"/></g><g><path d="M304.83 62.94c0 .34-.11.61-.34.81-.23.2-.54.3-.94.3-.6 0-.9-.15-.9-.46 0-.08.02-.15.07-.2.05-.05.11-.08.19-.08.15 0 .23.08.24.23.12.07.25.1.39.1.25 0 .45-.06.59-.18s.21-.29.21-.51c0-.29-.13-.51-.38-.65a.631.631 0 0 0-.23-.08c-.07-.01-.14-.01-.21-.02-.18-.02-.26-.1-.26-.24 0-.14.07-.21.21-.21.05 0 .19.03.4.09.21 0 .31-.13.31-.4 0-.26-.14-.39-.42-.39a.93.93 0 0 0-.24.05c-.1.03-.17.05-.21.05-.12 0-.18-.07-.18-.21 0-.08.06-.15.19-.2s.3-.08.52-.08c.25 0 .45.07.61.22.15.14.23.33.23.55 0 .24-.11.45-.34.62.32.19.49.49.49.89zM307.82 62.19c0 .54-.13.97-.37 1.29a1.2 1.2 0 0 1-1 .48c-.41 0-.74-.13-.99-.39s-.37-.61-.37-1.06c0-.53.14-.95.43-1.28s.65-.49 1.07-.49c.37 0 .67.13.89.38.23.27.34.62.34 1.07zm-.49.1c0-.35-.07-.62-.21-.83-.14-.2-.33-.31-.56-.31-.28 0-.51.12-.69.36-.19.25-.29.57-.29.98 0 .32.08.58.24.77.16.19.36.28.62.28.25 0 .46-.12.63-.36.17-.24.26-.54.26-.89z"/></g><path fill="#606060" d="M297.35 32.5h15.84v18.18h-15.84z"/><path fill="none" stroke="#000" stroke-width=".405" stroke-linejoin="round" stroke-miterlimit="10" d="M265.76 38.57v12.1M267.13 38.57v12.1M268.51 38.57v12.1M270.04 38.51v12.58M271.26 38.57v12.46M272.64 38.68v12.11M273.75 38.75v12.1M276.69 38.57v12.1M275.16 38.44v12.65M278.14 38.57v12.1M279.52 38.68v12.11"/><path fill="none" stroke="#000" stroke-width=".405" stroke-linecap="round" stroke-linejoin="round" stroke-miterlimit="10" stroke-dasharray="0,.81" d="M232.07 49.04h16.08M232.06 50.1h16.08M232.15 47.86h15.91M232.07 46.68h16.07M231.83 45.5h16.06"/></svg>