<svg version="1.1" xmlns="http://www.w3.org/2000/svg" x="0" y="0" width="409.634" height="227.392" viewBox="1.39 0.161 409.634 227.392" xml:space="preserve"><path fill="none" stroke="#77787B" stroke-width=".565" stroke-miterlimit="10" d="M42.709 14.668h368.314M42.709 46.196h368.314M42.709 77.726h368.314M42.709 109.255h368.314m-368.314 31.53h368.314M42.709 172.312h368.314M42.709 203.841h368.314m-362.814 0V14.668"/><path fill="#4D4D4F" d="M71.761 140.845h43.472v63.033H71.761zM140.485 172.397h43.473v31.479h-43.473z"/><path d="M31.304 205.22c-.646 0-1.157-.247-1.534-.739-.377-.491-.564-1.165-.564-2.019 0-.812.095-1.549.286-2.217a6.236 6.236 0 0 1 .757-1.72c.313-.479.675-.851 1.081-1.11a2.273 2.273 0 0 1 1.254-.392c.313 0 .6.063.856.192.256.127.475.312.652.553.178.24.316.531.416.875.099.344.149.73.149 1.161 0 .812-.094 1.548-.279 2.21-.188.662-.436 1.23-.745 1.707-.312.477-.668.845-1.074 1.105-.406.261-.825.394-1.255.394zm1.192-7.165c-.273 0-.532.129-.776.385-.245.257-.462.595-.652 1.013s-.342.897-.454 1.439c-.11.543-.167 1.1-.167 1.671 0 .521.077.921.23 1.198s.387.416.701.416c.272 0 .532-.127.775-.379.244-.254.462-.586.652-1 .191-.414.341-.891.453-1.428a8.16 8.16 0 0 0 .167-1.664c0-.521-.077-.928-.229-1.217-.152-.29-.386-.434-.7-.434zM28.708 172.947c.712-.597 1.347-1.13 1.905-1.604.56-.471 1.029-.903 1.41-1.297.38-.394.67-.766.869-1.117s.298-.709.298-1.073c0-.323-.093-.59-.278-.802-.187-.211-.467-.316-.838-.316-.24 0-.48.062-.721.188-.24.123-.483.298-.732.521l-.658-.795a4.964 4.964 0 0 1 1.118-.728 2.782 2.782 0 0 1 1.154-.254c.713 0 1.268.188 1.664.564.397.377.597.867.597 1.473 0 .414-.081.805-.242 1.174-.161.367-.397.74-.708 1.117-.312.377-.693.773-1.148 1.191-.456.418-.973.883-1.552 1.396h3.03l-.211 1.129H28.56l.148-.767zM31.713 143.471l.41-2.05h-3.315l.174-.918 3.986-4.93h1.552l-.968 4.805h.968l-.199 1.043h-.968l-.41 2.05h-1.23zm.609-3.093l.386-1.875c.05-.264.109-.537.18-.818s.139-.562.205-.846h-.05c-.157.24-.312.478-.466.709-.154.23-.309.451-.466.658l-1.763 2.172h1.974z"/><path fill="none" stroke="#000" stroke-width="1.13" d="M42.71 109.254h365.208"/><path d="M407.918 112.358a3.104 3.104 0 1 0 0-6.207 3.104 3.104 0 0 0 0 6.207M34.147 105.832a1.734 1.734 0 0 0-.453-.49 1.039 1.039 0 0 0-.614-.181c-.273 0-.534.066-.782.199a2.298 2.298 0 0 0-.684.571 3.778 3.778 0 0 0-.546.918 5.606 5.606 0 0 0-.359 1.242 2.56 2.56 0 0 1 .856-.614c.314-.137.593-.205.832-.205.571 0 1.037.174 1.396.521.359.348.541.86.541 1.539a3.107 3.107 0 0 1-.758 2.049c-.24.273-.523.491-.851.652a2.372 2.372 0 0 1-1.062.242c-.356 0-.678-.066-.962-.199a2.068 2.068 0 0 1-.732-.564 2.578 2.578 0 0 1-.465-.869 3.61 3.61 0 0 1-.162-1.111c0-.803.095-1.54.286-2.21.189-.671.455-1.246.794-1.728a3.73 3.73 0 0 1 1.211-1.117 3.055 3.055 0 0 1 1.533-.397 2.042 2.042 0 0 1 1.539.671c.115.124.215.248.298.372l-.856.709zm-2.409 5.439c.207 0 .394-.054.56-.161s.309-.246.429-.416a2.163 2.163 0 0 0 .378-1.211c0-.397-.087-.708-.261-.932-.174-.224-.435-.335-.782-.335-.182 0-.402.061-.664.18-.261.12-.527.351-.801.689a3.133 3.133 0 0 0-.012.273v.273c0 .505.104.904.315 1.198a.983.983 0 0 0 .838.442zM29.155 78.862c0-.281.049-.542.144-.782a2.32 2.32 0 0 1 .385-.646c.162-.19.351-.358.565-.503s.442-.267.683-.366v-.05a2.506 2.506 0 0 1-.521-.727 2.014 2.014 0 0 1-.175-.851c0-.348.066-.658.199-.931.132-.273.311-.505.534-.695s.482-.336.776-.435c.293-.1.605-.149.938-.149.256 0 .507.037.751.111.244.075.461.187.652.336.189.148.346.339.466.571.12.231.18.505.18.819 0 .513-.134.945-.402 1.298-.27.352-.623.647-1.062.888v.049c.256.174.49.412.702.715.211.302.316.66.316 1.073 0 .365-.075.689-.225.976-.148.285-.35.529-.602.732s-.544.357-.875.466c-.331.107-.68.161-1.043.161-.282 0-.565-.042-.852-.124a2.459 2.459 0 0 1-.77-.373 1.854 1.854 0 0 1-.764-1.563zm2.347-1.887a3.1 3.1 0 0 0-.82.727c-.216.278-.323.615-.323 1.013 0 .381.118.687.354.918.236.232.54.348.913.348.182 0 .359-.028.534-.087a1.283 1.283 0 0 0 .775-.683 1.34 1.34 0 0 0 .118-.583c0-.19-.039-.362-.118-.516a1.482 1.482 0 0 0-.329-.422 2.863 2.863 0 0 0-.497-.36c-.189-.113-.392-.23-.607-.355zm1.118-.609c.249-.182.47-.403.665-.664.193-.261.292-.577.292-.949 0-.323-.09-.582-.268-.776s-.42-.292-.727-.292c-.314 0-.588.104-.819.311s-.348.501-.348.882c0 .364.104.653.315.869.213.214.509.421.89.619zM25.977 48.341h1.676l1.081-5.339h-1.428l.174-.845a6.743 6.743 0 0 0 1.037-.248c.293-.1.573-.228.838-.385h1.006l-1.378 6.816h1.527l-.211 1.08h-4.545l.223-1.079zM34.209 49.57c-.646 0-1.157-.246-1.534-.739-.376-.492-.565-1.165-.565-2.018 0-.812.096-1.55.286-2.216.19-.667.443-1.24.757-1.72s.676-.851 1.081-1.111c.405-.261.823-.392 1.254-.392.314 0 .601.064.857.192.256.129.474.312.652.553.178.24.315.532.416.875.099.344.148.73.148 1.161a8.2 8.2 0 0 1-.278 2.21c-.188.663-.436 1.231-.745 1.708-.312.476-.668.844-1.074 1.104-.406.26-.825.393-1.255.393zm1.192-7.165c-.272 0-.531.129-.775.386-.245.256-.462.594-.652 1.012a6.81 6.81 0 0 0-.454 1.44 8.378 8.378 0 0 0-.167 1.67c0 .521.077.921.23 1.198a.75.75 0 0 0 .701.416c.272 0 .531-.126.775-.379.244-.252.461-.586.652-1 .189-.413.341-.89.453-1.428a8.217 8.217 0 0 0 .167-1.664c0-.521-.077-.927-.229-1.217-.153-.288-.387-.434-.701-.434zM25.977 16.989h1.676l1.081-5.339h-1.428l.174-.845a6.743 6.743 0 0 0 1.037-.248c.293-.1.573-.228.838-.385h1.006l-1.378 6.816h1.527l-.211 1.08h-4.545l.223-1.079zM31.614 17.3c.713-.596 1.348-1.13 1.906-1.602.56-.472 1.029-.904 1.41-1.298.38-.394.67-.766.869-1.117.199-.353.298-.71.298-1.074 0-.323-.093-.59-.279-.801-.186-.211-.466-.317-.838-.317-.239 0-.479.062-.72.187-.24.124-.484.298-.733.521l-.657-.795a4.88 4.88 0 0 1 1.117-.726c.373-.17.758-.255 1.155-.255.712 0 1.268.188 1.664.565.397.376.596.867.596 1.471 0 .414-.081.806-.241 1.174a4.774 4.774 0 0 1-.708 1.117c-.312.377-.693.774-1.148 1.192-.456.418-.973.884-1.552 1.396h3.03l-.212 1.13h-5.103l.146-.768zM76.135 221.376c-.145.311-.327.58-.546.808s-.482.407-.789.54a2.594 2.594 0 0 1-1.043.199c-.48 0-.906-.11-1.279-.33a2.26 2.26 0 0 1-.869-.912l.845-.782c.115.257.283.466.503.627.219.161.485.242.801.242.373 0 .672-.14.9-.416.228-.276.395-.677.503-1.198l1.093-5.501h1.341l-1.143 5.712a4.104 4.104 0 0 1-.317 1.011zM77.992 220.701c0-.58.091-1.125.272-1.634a4.45 4.45 0 0 1 .733-1.329 3.535 3.535 0 0 1 1.049-.888 2.506 2.506 0 0 1 1.223-.323c.298 0 .571.077.819.23.248.152.443.361.583.627h.024l.262-.709h1.067l-1.217 6.098h-1.093l.062-.845h-.036c-.29.299-.611.538-.963.721s-.701.272-1.049.272c-.538 0-.962-.189-1.271-.57-.31-.38-.465-.932-.465-1.65zm2.284 1.129c.266 0 .536-.078.813-.236.277-.156.54-.422.789-.795l.497-2.434c-.142-.265-.3-.455-.479-.57a1.004 1.004 0 0 0-.553-.174c-.257 0-.505.076-.745.229-.24.151-.451.36-.633.627a3.395 3.395 0 0 0-.436.925c-.107.352-.16.723-.16 1.111 0 .447.081.777.241.992a.786.786 0 0 0 .666.325zM85.839 216.677h1.08l-.062.855h.051a6.872 6.872 0 0 1 1-.707 2.154 2.154 0 0 1 1.099-.299c.513 0 .882.133 1.104.396.225.267.335.646.335 1.144a3.18 3.18 0 0 1-.1.856l-.77 3.85h-1.329l.745-3.676c.024-.141.047-.262.067-.359.021-.1.031-.193.031-.285 0-.521-.257-.783-.771-.783-.216 0-.444.074-.688.225s-.528.391-.851.721l-.819 4.159H84.62l1.219-6.097zM96.132 222.773h-1.08l.05-.869h-.05a6.332 6.332 0 0 1-.969.715 2.06 2.06 0 0 1-1.068.305c-.513 0-.883-.135-1.111-.404-.228-.27-.342-.646-.342-1.137 0-.141.008-.278.025-.416.017-.137.042-.282.075-.439l.77-3.85h1.329l-.732 3.676a6.354 6.354 0 0 0-.074.359c-.018.1-.025.195-.025.285 0 .521.252.782.758.782.405 0 .906-.313 1.502-.944l.819-4.158h1.329l-1.206 6.095zM97.97 220.701c0-.58.091-1.125.273-1.634.182-.51.426-.952.732-1.329s.656-.672 1.049-.888a2.513 2.513 0 0 1 1.224-.323c.298 0 .57.077.818.23.248.152.443.361.583.627h.025l.261-.709h1.068l-1.217 6.098h-1.094l.062-.845h-.037c-.29.299-.611.538-.962.721a2.259 2.259 0 0 1-1.049.272c-.538 0-.962-.189-1.272-.57-.309-.38-.464-.932-.464-1.65zm2.284 1.129c.265 0 .536-.078.812-.236.277-.156.54-.422.789-.795l.497-2.434c-.141-.265-.3-.455-.478-.57a1.01 1.01 0 0 0-.554-.174 1.36 1.36 0 0 0-.744.229c-.24.151-.451.36-.634.627-.182.265-.326.573-.435.925s-.161.723-.161 1.111c0 .447.081.777.242.992a.786.786 0 0 0 .666.325zM105.817 216.677h1.08l-.111 1.18h.05c.24-.381.521-.697.844-.949.323-.253.67-.38 1.043-.38.24 0 .443.038.608.112l-.447 1.167a.762.762 0 0 0-.261-.081 2.61 2.61 0 0 0-.312-.02c-.29 0-.576.112-.856.336-.281.224-.546.572-.794 1.043l-.721 3.688h-1.34l1.217-6.096zM109.368 224.214c.265 0 .518-.103.758-.305.24-.203.441-.479.607-.826l.187-.373-1.055-6.033h1.328l.386 3.078c.032.273.062.574.087.9.024.327.045.637.062.926h.05c.142-.289.283-.595.429-.912.145-.318.288-.623.428-.914l1.515-3.078h1.292l-3.427 6.42a9.782 9.782 0 0 1-.577.898c-.194.271-.399.5-.615.689a2.446 2.446 0 0 1-.701.439 2.183 2.183 0 0 1-.838.156c-.1 0-.226-.021-.379-.062a1.86 1.86 0 0 1-.403-.161l.422-.97a.835.835 0 0 0 .444.128z"/><g><path d="M140.784 215.621h4.655l-.224 1.131h-3.328l-.472 2.396h2.817l-.224 1.131h-2.806l-.695 3.465h-1.341l1.618-8.123zM144.943 221.309c0-.571.098-1.091.292-1.56.194-.467.451-.869.771-1.203a3.463 3.463 0 0 1 1.074-.776 2.82 2.82 0 0 1 1.191-.272c.356 0 .656.059.9.174s.442.274.596.479c.153.203.266.439.335.715.07.273.105.566.105.881 0 .266-.033.521-.1.771-.065.248-.12.422-.162.521h-3.712c-.032.323-.017.602.051.832.065.231.167.422.304.571.136.149.304.259.503.329.198.07.414.105.646.105.216 0 .436-.051.658-.149.224-.099.418-.211.583-.335l.497.855a3.89 3.89 0 0 1-.899.453 3.433 3.433 0 0 1-1.187.193c-.364 0-.695-.059-.994-.174a2.156 2.156 0 0 1-.77-.504 2.272 2.272 0 0 1-.503-.807 3.131 3.131 0 0 1-.179-1.099zm4.098-1.118c.017-.083.03-.168.043-.255.012-.087.019-.181.019-.278 0-.299-.072-.562-.217-.789-.145-.229-.403-.342-.776-.342s-.723.146-1.049.439c-.327.295-.564.703-.714 1.225h2.694zM150.866 223.742l1.763-8.767h1.329l-.436 2.161-.298 1.167h.025c.29-.231.596-.425.919-.577s.653-.23.993-.23c.546 0 .973.188 1.278.565.307.377.459.931.459 1.657 0 .588-.091 1.135-.272 1.64-.183.505-.426.945-.732 1.322s-.653.673-1.043.888a2.48 2.48 0 0 1-1.217.323c-.306 0-.577-.077-.813-.229a1.641 1.641 0 0 1-.564-.627h-.025l-.261.707h-1.105zm3.75-5.153c-.24 0-.502.072-.782.218a2.378 2.378 0 0 0-.771.664l-.521 2.583c.132.265.286.455.459.57a.975.975 0 0 0 .546.174c.257 0 .505-.076.745-.229.24-.151.451-.36.633-.627.182-.265.329-.573.441-.925.111-.352.167-.727.167-1.124 0-.446-.083-.774-.249-.985a.794.794 0 0 0-.668-.319zM158.85 217.646h1.08l-.112 1.18h.051c.239-.381.521-.697.844-.949s.67-.379 1.043-.379c.24 0 .442.037.607.111l-.446 1.167a.76.76 0 0 0-.262-.081 2.58 2.58 0 0 0-.311-.02c-.29 0-.576.113-.857.337-.28.223-.546.571-.794 1.043l-.72 3.688h-1.341l1.218-6.097zM167.02 223.742h-1.08l.051-.869h-.051c-.306.273-.629.512-.969.715s-.695.305-1.068.305c-.513 0-.883-.135-1.11-.404-.229-.27-.342-.646-.342-1.136 0-.142.008-.278.024-.416.018-.138.042-.283.075-.44l.77-3.85h1.329l-.731 3.676a5.815 5.815 0 0 0-.075.359 1.7 1.7 0 0 0-.025.285c0 .521.252.783.759.783.404 0 .905-.314 1.502-.944l.818-4.159h1.329l-1.206 6.095zM168.857 221.669c0-.58.091-1.125.273-1.633.182-.511.426-.953.732-1.33s.656-.672 1.05-.888a2.517 2.517 0 0 1 1.223-.323c.298 0 .571.078.819.23s.442.361.583.627h.024l.261-.708h1.068l-1.217 6.097h-1.093l.062-.845h-.037c-.29.299-.61.538-.962.722a2.268 2.268 0 0 1-1.049.272c-.538 0-.962-.19-1.272-.571-.309-.38-.465-.93-.465-1.65zm2.285 1.129c.266 0 .536-.078.813-.235.276-.157.54-.422.789-.795l.497-2.435c-.142-.265-.301-.455-.479-.57s-.362-.174-.553-.174c-.257 0-.505.076-.745.229-.24.152-.451.361-.633.627a3.366 3.366 0 0 0-.436.925 3.808 3.808 0 0 0-.161 1.111c0 .447.081.777.242.993s.385.324.666.324zM176.705 217.646h1.08l-.112 1.18h.05c.24-.381.521-.697.844-.949.323-.252.67-.379 1.043-.379.24 0 .443.037.608.111l-.447 1.167a.762.762 0 0 0-.261-.081c-.1-.012-.203-.02-.311-.02-.29 0-.576.113-.857.337-.281.223-.546.571-.794 1.043l-.72 3.688h-1.342l1.219-6.097zM180.256 225.183c.265 0 .518-.102.758-.305s.442-.479.608-.825l.186-.373-1.055-6.034h1.329l.385 3.079c.033.272.062.573.087.899.025.328.045.637.062.926h.05c.141-.289.283-.594.428-.912s.288-.623.428-.913l1.516-3.079h1.292l-3.428 6.42a9.999 9.999 0 0 1-.576.898c-.195.271-.4.5-.615.689s-.449.338-.702.439a2.183 2.183 0 0 1-.838.156c-.1 0-.226-.021-.378-.062a1.801 1.801 0 0 1-.404-.161l.422-.969a.84.84 0 0 0 .445.127z"/></g><g><path d="M216.389 217.023h1.49l.646 4.061.235 1.564h.05l.809-1.564 2.233-4.061h1.479l-1.626 8.121h-1.268l.808-3.898c.042-.189.089-.396.144-.615a64.682 64.682 0 0 1 .341-1.321c.059-.216.116-.418.174-.608h-.036l-.993 1.838-2.148 3.812h-.621l-.67-3.812-.261-1.838h-.05c-.042.381-.089.805-.144 1.272-.054.467-.118.894-.191 1.272l-.782 3.898h-1.229l1.61-8.121zM223.79 223.071c0-.579.091-1.124.272-1.633.183-.51.426-.952.732-1.329a3.548 3.548 0 0 1 1.049-.888 2.51 2.51 0 0 1 1.224-.323c.299 0 .571.077.819.23.248.152.442.361.584.627h.024l.261-.709h1.066l-1.217 6.098h-1.093l.062-.846h-.037c-.29.3-.61.539-.962.722a2.264 2.264 0 0 1-1.051.272c-.538 0-.962-.189-1.271-.57-.308-.381-.462-.931-.462-1.651zm2.285 1.13c.265 0 .534-.078.812-.236.277-.156.54-.422.789-.795l.496-2.434c-.142-.265-.3-.455-.479-.57s-.361-.174-.553-.174c-.257 0-.505.076-.745.229-.24.151-.451.36-.633.627a3.336 3.336 0 0 0-.435.925 3.77 3.77 0 0 0-.162 1.111c0 .447.081.777.242.992a.792.792 0 0 0 .668.325zM231.637 219.048h1.08l-.111 1.18h.049c.24-.381.521-.697.846-.95a1.663 1.663 0 0 1 1.043-.379c.24 0 .441.038.607.112l-.446 1.167a.727.727 0 0 0-.262-.081 2.554 2.554 0 0 0-.311-.02c-.289 0-.575.112-.856.336-.28.224-.546.571-.795 1.043l-.72 3.688h-1.341l1.217-6.096zM235.027 222.811c0-.547.094-1.058.279-1.534.187-.477.438-.89.757-1.24a3.538 3.538 0 0 1 1.118-.832 3.095 3.095 0 0 1 1.347-.306c.373 0 .691.075.956.224.266.149.48.323.646.521l-.744.809a1.49 1.49 0 0 0-.423-.361 1.125 1.125 0 0 0-.521-.11c-.272 0-.533.074-.781.224a2.213 2.213 0 0 0-.651.603c-.188.253-.336.547-.447.882s-.168.693-.168 1.074c0 .464.103.82.305 1.074.202.252.512.377.926.377.239 0 .453-.047.64-.143.188-.095.357-.205.515-.328l.571.844c-.23.166-.507.326-.825.479-.318.153-.71.23-1.174.23-.339 0-.648-.057-.931-.168-.282-.112-.526-.273-.733-.484s-.368-.471-.482-.775a2.864 2.864 0 0 1-.18-1.06zM242.104 216.378h1.329l-.534 2.582-.235.883h.05c.313-.266.636-.488.963-.672a2.12 2.12 0 0 1 1.049-.272c.514 0 .882.134 1.105.397.224.266.335.646.335 1.143 0 .141-.006.277-.02.41a2.984 2.984 0 0 1-.081.445l-.77 3.851h-1.329l.745-3.676c.024-.142.048-.261.067-.359.021-.101.031-.194.031-.286 0-.521-.257-.781-.77-.781-.216 0-.445.074-.689.224s-.526.39-.851.721l-.819 4.159h-1.341l1.765-8.769z"/></g><g><path d="M291.822 222.859h-2.645l-1.13 2.285h-1.479l4.347-8.121h1.589l.869 8.121h-1.392l-.159-2.285zm-.074-1.018l-.087-1.229c-.025-.422-.053-.836-.081-1.24a33.829 33.829 0 0 1-.068-1.279h-.05c-.198.447-.392.873-.577 1.279-.188.404-.387.818-.603 1.24l-.608 1.229h2.074zM295.41 225.74l-.349 1.813h-1.328l1.714-8.507h1.08l-.024.746h.037c.29-.258.604-.471.943-.641.339-.17.684-.255 1.03-.255.547 0 .973.19 1.279.571.306.381.459.932.459 1.65 0 .588-.091 1.135-.273 1.641a4.514 4.514 0 0 1-.731 1.322 3.558 3.558 0 0 1-1.043.887c-.39.216-.795.324-1.218.324-.29 0-.551-.074-.781-.219a1.776 1.776 0 0 1-.571-.576h-.024l-.2 1.244zm2.558-5.748c-.24 0-.501.072-.782.217a2.37 2.37 0 0 0-.771.664l-.521 2.607c.133.257.286.441.46.553a.991.991 0 0 0 .546.168c.257 0 .505-.076.745-.229.24-.152.451-.361.633-.628.184-.264.329-.572.441-.924a3.73 3.73 0 0 0 .168-1.125c0-.445-.083-.774-.249-.985a.801.801 0 0 0-.67-.318zM302.19 219.048h1.08l-.11 1.18h.049c.239-.381.521-.697.845-.95a1.665 1.665 0 0 1 1.043-.379c.24 0 .442.038.608.112l-.447 1.167a.728.728 0 0 0-.261-.081c-.1-.012-.202-.02-.312-.02-.289 0-.575.112-.855.336-.281.224-.546.571-.795 1.043l-.721 3.688h-1.341l1.217-6.096zM306.709 219.048h1.328l-1.218 6.097h-1.341l1.231-6.097zm.981-1.08a.839.839 0 0 1-.521-.182c-.157-.119-.236-.291-.236-.515 0-.239.087-.444.261-.614a.879.879 0 0 1 .635-.255c.189 0 .363.06.521.181.157.119.235.291.235.516a.813.813 0 0 1-.262.619.884.884 0 0 1-.633.25zM310.36 216.378h1.329l-1.466 7.338a.634.634 0 0 0-.023.148v.088c0 .174.069.26.211.26a.686.686 0 0 0 .1-.006c.024-.004.066-.015.124-.031l-.024.994c-.092.041-.198.072-.322.094s-.271.031-.436.031c-.355 0-.617-.088-.782-.262-.166-.174-.248-.418-.248-.732 0-.19.028-.405.088-.646l1.449-7.276z"/></g><path fill="#4D4D4F" d="M277.93 46.185h43.473v157.693H277.93zM209.207 77.738h43.472v126.141h-43.472z"/><g><path d="M359.303 92.157h-2.247l.224-1.142h5.837l-.225 1.142h-2.247l-1.392 6.979h-1.341l1.391-6.979zM361.911 97.062c0-.579.091-1.124.272-1.633.183-.509.426-.952.732-1.329a3.55 3.55 0 0 1 1.049-.888 2.52 2.52 0 0 1 1.224-.322c.298 0 .571.076.819.229.248.153.442.362.584.627h.024l.261-.708h1.066l-1.217 6.097h-1.093l.062-.844h-.036c-.29.298-.61.538-.963.72a2.27 2.27 0 0 1-1.05.273c-.538 0-.962-.19-1.271-.571-.309-.381-.463-.931-.463-1.651zm2.285 1.13c.266 0 .535-.079.812-.236.277-.157.54-.422.789-.794l.496-2.435c-.142-.265-.3-.455-.479-.57a.999.999 0 0 0-.553-.174c-.257 0-.505.076-.745.229-.24.153-.451.362-.633.627a3.336 3.336 0 0 0-.435.925 3.775 3.775 0 0 0-.162 1.111c0 .447.081.778.241.993a.795.795 0 0 0 .669.324zM369.758 93.039h1.08l-.111 1.18h.049c.24-.381.521-.697.846-.95a1.662 1.662 0 0 1 1.043-.378c.239 0 .441.037.607.111l-.446 1.167a.707.707 0 0 0-.262-.08 2.383 2.383 0 0 0-.311-.019c-.289 0-.575.111-.856.335-.28.224-.546.571-.795 1.043l-.72 3.688h-1.341l1.217-6.097zM379.121 93.039l-1.241 6.184c-.174.861-.521 1.513-1.043 1.956-.521.442-1.188.664-1.999.664-.391 0-.772-.074-1.149-.224a3.877 3.877 0 0 1-1.049-.621l.596-.894c.232.19.484.35.759.479.272.128.565.192.882.192.463 0 .836-.135 1.117-.404.28-.269.487-.647.62-1.136l.299-1.13h-.037c-.29.273-.596.492-.913.658-.318.165-.66.248-1.024.248-.513 0-.938-.18-1.271-.54-.334-.36-.503-.896-.503-1.608 0-.554.089-1.071.267-1.552.179-.479.416-.9.714-1.26a3.48 3.48 0 0 1 1.024-.851 2.5 2.5 0 0 1 1.198-.311c.299 0 .568.076.812.229.244.153.433.362.565.627h.036l.262-.708h1.079v.002zm-3.701 4.867c.24 0 .503-.072.789-.217.285-.145.548-.379.788-.701l.459-2.261c-.142-.265-.298-.455-.473-.57a.965.965 0 0 0-.546-.174 1.31 1.31 0 0 0-.714.217 2.175 2.175 0 0 0-.607.59c-.18.248-.319.536-.424.863a3.4 3.4 0 0 0-.154 1.036c0 .414.081.721.242.919.163.2.376.298.64.298zM379.816 96.702c0-.571.098-1.091.291-1.559.194-.467.451-.869.771-1.204a3.456 3.456 0 0 1 1.074-.776 2.831 2.831 0 0 1 1.19-.272c.356 0 .656.058.9.174.244.115.441.275.596.478.153.203.266.441.336.714.07.273.105.567.105.882 0 .265-.033.521-.101.77-.065.249-.12.423-.161.521h-3.713c-.033.323-.017.601.05.832.066.232.167.423.305.571.137.149.305.259.503.329.199.07.414.105.646.105.216 0 .436-.05.658-.148.224-.1.418-.212.584-.336l.497.857a3.938 3.938 0 0 1-.9.453 3.453 3.453 0 0 1-1.187.192c-.364 0-.695-.059-.993-.174a2.153 2.153 0 0 1-.77-.503 2.244 2.244 0 0 1-.503-.808 3.122 3.122 0 0 1-.178-1.098zm4.098-1.117c.016-.083.029-.168.043-.255.013-.087.019-.18.019-.279 0-.298-.072-.561-.217-.788-.146-.228-.404-.342-.776-.342-.373 0-.723.147-1.05.44-.326.294-.563.702-.714 1.224h2.695zM386.98 94.095h-.855l.197-.993.933-.062.483-1.639h1.117l-.321 1.639h1.465l-.211 1.056h-1.49l-.621 3.029a2.738 2.738 0 0 0-.037.435c0 .224.054.392.161.503.107.112.29.168.547.168a.87.87 0 0 0 .298-.05c.091-.033.183-.07.273-.111l.248.943a3.945 3.945 0 0 1-.546.187 2.881 2.881 0 0 1-.745.087c-.571 0-.979-.143-1.225-.429-.243-.285-.365-.64-.365-1.062 0-.124.009-.244.024-.36.017-.115.032-.235.049-.359l.621-2.982zM392.754 94.554l5.289-2.123v1.105l-2.321.869-1.577.596v.05l1.577.584 2.321.869v1.13l-5.289-2.123v-.957zM406.176 92.841c-.133-.207-.283-.37-.453-.49s-.375-.181-.614-.181c-.272 0-.534.066-.782.199a2.286 2.286 0 0 0-.684.571 3.746 3.746 0 0 0-.546.918 5.659 5.659 0 0 0-.36 1.242 2.57 2.57 0 0 1 .856-.614c.313-.137.592-.205.832-.205.57 0 1.037.174 1.396.521.359.348.54.86.54 1.539 0 .39-.065.76-.199 1.111a2.96 2.96 0 0 1-.559.938c-.24.273-.523.491-.851.652a2.378 2.378 0 0 1-1.062.242c-.354 0-.677-.066-.962-.199-.286-.132-.53-.32-.732-.564s-.357-.534-.466-.869a3.64 3.64 0 0 1-.162-1.111c0-.803.097-1.54.286-2.21.19-.671.455-1.246.795-1.727a3.726 3.726 0 0 1 1.21-1.117 3.072 3.072 0 0 1 1.534-.397 2.042 2.042 0 0 1 1.539.671c.116.124.216.248.298.372l-.854.708zm-2.409 5.438c.207 0 .394-.054.56-.161.165-.107.309-.246.429-.416s.213-.36.278-.571c.066-.211.101-.424.101-.64 0-.397-.087-.708-.262-.932-.174-.224-.435-.335-.781-.335-.184 0-.403.061-.664.18-.261.12-.528.351-.801.689-.01.091-.014.183-.014.273v.273c0 .505.105.904.316 1.198s.49.442.838.442z"/></g><g><path d="M2.186 211.517v-1.342l8.121 1.615v1.34l-8.121-1.613zM4.209 208.648v-1.08l.856.062v-.051a6.934 6.934 0 0 1-.708-1 2.163 2.163 0 0 1-.298-1.099c0-.515.132-.882.397-1.104.265-.225.646-.336 1.142-.336.142 0 .277.006.41.02s.282.039.447.081l3.849.771v1.328l-3.675-.744c-.142-.025-.261-.049-.36-.068a1.367 1.367 0 0 0-.286-.031c-.521 0-.781.257-.781.77 0 .217.074.445.224.689s.389.527.72.852l4.16.818v1.342l-6.097-1.22zM4.271 202.527l-.062-.807-.708-.137c-.621-.125-1.127-.36-1.521-.709-.393-.348-.59-.828-.59-1.439 0-.23.029-.447.087-.646.059-.199.133-.385.225-.559l.943.445a1.973 1.973 0 0 0-.124.281.987.987 0 0 0-.062.354c0 .248.081.451.242.607.161.158.416.271.764.336l.745.148v-1.154l1.056.211v1.168l5.041.992v1.328l-5.041-1.006v.783l-.995-.196zM7.873 199.25a4.063 4.063 0 0 1-1.56-.291 3.874 3.874 0 0 1-1.204-.771 3.46 3.46 0 0 1-.775-1.074 2.818 2.818 0 0 1-.273-1.191c0-.355.059-.655.174-.899.116-.244.275-.442.479-.597.203-.152.44-.266.714-.336a3.59 3.59 0 0 1 .882-.104c.266 0 .521.033.771.101.249.065.422.119.521.16v3.713c.323.033.602.018.832-.049a1.39 1.39 0 0 0 .571-.305c.148-.137.259-.305.329-.503.069-.199.104-.414.104-.646 0-.217-.05-.436-.148-.658a3.068 3.068 0 0 0-.335-.584l.856-.498c.174.25.325.55.453.9.128.354.192.748.192 1.188 0 .363-.059.695-.175.992a2.123 2.123 0 0 1-.503.771 2.244 2.244 0 0 1-.807.503 3.168 3.168 0 0 1-1.098.178zm-1.118-4.099c-.083-.017-.167-.03-.254-.043s-.181-.019-.279-.019c-.298 0-.561.072-.789.217-.228.146-.342.404-.342.775 0 .373.146.724.441 1.051.294.326.701.563 1.223.714v-2.695zM7.972 193.152a4.175 4.175 0 0 1-1.533-.279 4.008 4.008 0 0 1-1.242-.756 3.539 3.539 0 0 1-.831-1.119 3.094 3.094 0 0 1-.305-1.347c0-.373.074-.69.225-.956a2.27 2.27 0 0 1 .521-.646l.807.744c-.166.143-.285.283-.359.424s-.112.313-.112.521c0 .272.075.534.225.782.148.248.35.466.602.65.253.188.546.336.882.447.335.112.693.168 1.074.168.464 0 .822-.102 1.074-.305.252-.202.379-.512.379-.925 0-.24-.048-.453-.144-.64a3.125 3.125 0 0 0-.329-.516l.846-.57c.166.23.325.506.478.824.153.319.229.711.229 1.174 0 .34-.057.649-.167.932-.112.281-.273.525-.484.732s-.47.368-.776.483a2.902 2.902 0 0 1-1.06.178zM5.265 186.485v.856l-.994-.198-.062-.933-1.64-.483v-1.117l1.64.322v-1.466l1.056.212v1.489l3.029.621c.148.024.294.037.435.037.225 0 .392-.054.503-.16.112-.107.168-.291.168-.547a.88.88 0 0 0-.05-.299 3.487 3.487 0 0 0-.112-.273l.944-.248c.066.15.128.332.187.547.058.216.087.464.087.744 0 .572-.144.979-.429 1.225-.284.245-.64.366-1.062.366a2.79 2.79 0 0 1-.36-.024l-.359-.05-2.981-.621zM3.129 181.22a.849.849 0 0 1-.18.521c-.12.156-.292.235-.516.235-.24 0-.445-.087-.615-.261s-.255-.387-.255-.635c0-.189.062-.363.181-.521s.292-.235.516-.235c.248 0 .455.088.621.262s.248.386.248.634zm1.08.981v-1.328l6.097 1.217v1.341l-6.097-1.23zM10.455 177.893c0 .34-.059.649-.175.931-.115.282-.28.522-.496.721a2.22 2.22 0 0 1-.782.459 3.09 3.09 0 0 1-1.031.162 4.28 4.28 0 0 1-1.596-.291 3.937 3.937 0 0 1-1.235-.765 3.494 3.494 0 0 1-.794-1.073 2.84 2.84 0 0 1-.286-1.224c0-.694.223-1.25.664-1.664.443-.414 1.049-.621 1.819-.621.58 0 1.108.099 1.589.292.479.194.892.449 1.235.764s.609.674.801 1.074c.191.401.287.813.287 1.235zm-5.314-.944c0 .239.073.475.217.701.146.229.343.43.591.604s.542.312.882.416c.34.104.704.154 1.092.154.464 0 .822-.092 1.074-.273s.379-.45.379-.807c0-.24-.072-.473-.217-.695a2.183 2.183 0 0 0-.597-.596 3.169 3.169 0 0 0-.888-.416 3.717 3.717 0 0 0-1.093-.156c-.463 0-.819.092-1.068.273-.248.181-.372.448-.372.795zM4.209 172.591v-1.08l.856.062v-.051a6.934 6.934 0 0 1-.708-1 2.167 2.167 0 0 1-.298-1.1c0-.514.132-.881.397-1.104.265-.224.646-.335 1.142-.335.142 0 .277.006.41.02.133.013.282.039.447.08l3.849.771v1.329l-3.675-.745c-.142-.024-.261-.048-.36-.067a1.367 1.367 0 0 0-.286-.031c-.521 0-.781.257-.781.77 0 .217.074.445.224.689s.389.527.72.851l4.16.819v1.341l-6.097-1.219zM4.209 163.477v-1.08l1.18.11v-.049a3.686 3.686 0 0 1-.95-.844 1.669 1.669 0 0 1-.378-1.044c0-.239.037-.442.112-.608l1.167.447a.708.708 0 0 0-.081.262 2.372 2.372 0 0 0-.019.311c0 .289.111.575.335.855.224.281.57.547 1.043.795l3.688.721v1.341l-6.097-1.217zM8.232 160.162a4.841 4.841 0 0 1-1.633-.272 4.549 4.549 0 0 1-1.329-.731 3.566 3.566 0 0 1-.888-1.05 2.521 2.521 0 0 1-.323-1.224c0-.299.077-.571.229-.819s.361-.442.627-.584v-.024l-.708-.261v-1.067l6.097 1.218v1.093l-.844-.062v.037c.298.291.538.61.72.963s.273.701.273 1.049c0 .539-.19.963-.571 1.273-.379.306-.929.461-1.65.461zm1.13-2.286c0-.265-.078-.535-.235-.812s-.422-.54-.794-.789l-2.435-.496c-.265.142-.455.3-.57.478-.116.18-.175.363-.175.554 0 .257.077.505.229.745.153.24.362.451.627.633.265.184.573.327.925.436.353.107.722.162 1.111.162.447 0 .778-.082.993-.242a.791.791 0 0 0 .324-.669zM5.265 152.328v.855l-.994-.198-.062-.933-1.64-.483v-1.116l1.64.321v-1.465l1.056.211v1.489l3.029.621c.148.025.294.037.435.037.225 0 .392-.053.503-.16.112-.107.168-.291.168-.547a.88.88 0 0 0-.05-.299 3.316 3.316 0 0 0-.112-.272l.944-.248c.066.149.128.331.187.546.058.216.087.464.087.745 0 .571-.144.979-.429 1.224-.284.245-.64.366-1.062.366a2.79 2.79 0 0 1-.36-.024 21.108 21.108 0 0 0-.359-.049l-2.981-.621zM7.873 149.186a4.044 4.044 0 0 1-1.56-.291 3.874 3.874 0 0 1-1.204-.771 3.46 3.46 0 0 1-.775-1.074 2.822 2.822 0 0 1-.273-1.191c0-.355.059-.656.174-.9a1.59 1.59 0 0 1 .479-.596c.203-.152.44-.266.714-.336s.567-.105.882-.105c.266 0 .521.033.771.101.249.065.422.12.521.161v3.713c.323.033.602.018.832-.05.232-.065.422-.167.571-.304.148-.137.259-.306.329-.504.069-.199.104-.414.104-.646 0-.216-.05-.435-.148-.658a3.099 3.099 0 0 0-.335-.584l.856-.497c.174.249.325.549.453.9.128.354.192.746.192 1.188 0 .363-.059.694-.175.992a2.119 2.119 0 0 1-.503.77 2.246 2.246 0 0 1-.807.504 3.145 3.145 0 0 1-1.098.178zm-1.118-4.099c-.083-.016-.167-.029-.254-.043a2.05 2.05 0 0 0-.279-.019 1.43 1.43 0 0 0-.789.218c-.228.146-.342.403-.342.775 0 .373.146.723.441 1.05.294.326.701.563 1.223.714v-2.695zM10.902 139.65l1.812.348v1.328l-8.505-1.714v-1.079l.745.024v-.037a4.32 4.32 0 0 1-.641-.944 2.289 2.289 0 0 1-.254-1.029c0-.547.19-.973.571-1.279s.931-.459 1.651-.459c.588 0 1.134.091 1.639.273a4.52 4.52 0 0 1 1.323.731c.376.306.672.653.888 1.043.215.39.323.795.323 1.218 0 .289-.072.551-.218.781-.145.23-.337.422-.576.57v.025l1.242.2zm-5.749-2.559c0 .24.072.502.218.783.145.281.365.539.664.771l2.606.521c.257-.133.441-.285.553-.459a.99.99 0 0 0 .167-.547c0-.257-.075-.505-.229-.744a2.218 2.218 0 0 0-.627-.633 3.403 3.403 0 0 0-.925-.441 3.723 3.723 0 0 0-1.124-.168c-.447 0-.776.082-.987.248a.808.808 0 0 0-.316.669zM7.873 133.9a4.063 4.063 0 0 1-1.56-.291 3.856 3.856 0 0 1-1.204-.771 3.433 3.433 0 0 1-.775-1.073 2.817 2.817 0 0 1-.273-1.19c0-.357.059-.656.174-.9.116-.244.275-.442.479-.596.203-.154.44-.267.714-.336.273-.07.567-.105.882-.105.266 0 .521.033.771.1s.422.12.521.161v3.713c.323.033.602.017.832-.05.232-.066.422-.167.571-.305.148-.137.259-.305.329-.502.069-.199.104-.414.104-.646 0-.216-.05-.436-.148-.658a3.099 3.099 0 0 0-.335-.584l.856-.496c.174.248.325.549.453.899.128.353.192.747.192 1.187 0 .364-.059.695-.175.994a2.136 2.136 0 0 1-.503.77 2.258 2.258 0 0 1-.807.503 3.17 3.17 0 0 1-1.098.176zm-1.118-4.098c-.083-.016-.167-.029-.254-.043a2.055 2.055 0 0 0-.279-.018 1.43 1.43 0 0 0-.789.217c-.228.146-.342.403-.342.775 0 .373.146.723.441 1.051.294.325.701.563 1.223.713v-2.695zM4.209 126.761v-1.08l1.18.111v-.049a3.656 3.656 0 0 1-.95-.846 1.662 1.662 0 0 1-.378-1.043c0-.24.037-.441.112-.607l1.167.446c-.042.074-.068.161-.081.261s-.019.203-.019.312c0 .289.111.575.335.856.224.28.57.545 1.043.795l3.688.719v1.342l-6.097-1.217zM9.226 120.826v-1.677l-5.339-1.08v1.429l-.844-.174a6.567 6.567 0 0 0-.249-1.037 4.517 4.517 0 0 0-.385-.838v-1.007l6.816 1.378v-1.527l1.08.213v4.543l-1.079-.223zM10.455 112.593c0 .646-.246 1.157-.739 1.534-.492.377-1.165.564-2.018.564a8.069 8.069 0 0 1-2.217-.285c-.667-.19-1.239-.442-1.72-.758-.479-.314-.851-.674-1.111-1.08a2.285 2.285 0 0 1-.391-1.254c0-.314.064-.6.192-.857.128-.256.312-.474.552-.652.24-.178.532-.316.875-.416a4.186 4.186 0 0 1 1.161-.149c.811 0 1.548.093 2.21.279.663.187 1.23.435 1.708.745.477.31.844.668 1.104 1.074.263.406.394.825.394 1.255zm-7.164-1.192c0 .273.128.532.385.776.256.245.594.462 1.012.652.418.191.898.342 1.44.453a8.234 8.234 0 0 0 1.67.168c.521 0 .921-.076 1.198-.229a.754.754 0 0 0 .416-.702c0-.273-.126-.532-.379-.776s-.585-.461-1-.652a6.705 6.705 0 0 0-1.429-.453 8.146 8.146 0 0 0-1.664-.167c-.521 0-.927.077-1.217.229-.287.153-.432.387-.432.701zM10.455 106.46c0 .646-.246 1.157-.739 1.534-.492.376-1.165.565-2.018.565a8.03 8.03 0 0 1-2.217-.286 6.269 6.269 0 0 1-1.72-.757c-.479-.314-.851-.675-1.111-1.081a2.285 2.285 0 0 1-.391-1.254c0-.314.064-.6.192-.857.128-.256.312-.474.552-.652.24-.178.532-.316.875-.416a4.186 4.186 0 0 1 1.161-.149c.811 0 1.548.093 2.21.279.663.188 1.23.435 1.708.745.477.31.844.668 1.104 1.074.263.406.394.825.394 1.255zm-7.164-1.192c0 .273.128.532.385.776.256.245.594.462 1.012.652.418.191.898.342 1.44.454a8.305 8.305 0 0 0 1.67.167c.521 0 .921-.077 1.198-.23a.753.753 0 0 0 .416-.701c0-.273-.126-.532-.379-.776s-.585-.461-1-.652a6.705 6.705 0 0 0-1.429-.453 8.146 8.146 0 0 0-1.664-.167c-.521 0-.927.077-1.217.229-.287.153-.432.387-.432.701zM7.115 99.792a5.876 5.876 0 0 1-1.926-.317 5.37 5.37 0 0 1-1.621-.881 4.306 4.306 0 0 1-1.116-1.348 3.595 3.595 0 0 1-.416-1.713c0-.472.113-.881.341-1.229.228-.348.527-.629.899-.845l.708.919a2.046 2.046 0 0 0-.583.534c-.141.198-.211.43-.211.695 0 .414.112.792.335 1.136.225.344.517.64.875.888.36.248.769.443 1.224.583a4.68 4.68 0 0 0 1.391.211c.339 0 .65-.035.931-.105.282-.07.521-.182.721-.335a1.58 1.58 0 0 0 .466-.583 1.98 1.98 0 0 0 .167-.851c0-.29-.062-.561-.187-.813A3.706 3.706 0 0 0 8.63 95l.856-.584c.24.273.462.611.664 1.012.203.401.305.863.305 1.384 0 .464-.079.88-.236 1.248a2.6 2.6 0 0 1-.67.938c-.29.257-.64.453-1.049.59a4.355 4.355 0 0 1-1.385.204zM8.232 93.249c-.579 0-1.124-.091-1.633-.273s-.952-.426-1.329-.733a3.563 3.563 0 0 1-.888-1.049 2.517 2.517 0 0 1-.323-1.223c0-.298.077-.571.229-.819s.361-.443.627-.583v-.025l-.708-.261v-1.068l6.097 1.217v1.093l-.844-.062v.037c.298.29.538.611.72.962.182.352.273.702.273 1.049 0 .538-.19.962-.571 1.272-.379.311-.929.466-1.65.466zm1.13-2.285c0-.265-.078-.536-.235-.813s-.422-.54-.794-.789l-2.435-.497c-.265.141-.455.3-.57.478a1 1 0 0 0-.175.553c0 .257.077.505.229.745.153.24.362.451.627.633s.573.327.925.435a3.77 3.77 0 0 0 1.111.161c.447 0 .778-.081.993-.242a.78.78 0 0 0 .324-.664zM7.873 86.519a4.026 4.026 0 0 1-1.56-.292c-.467-.194-.869-.451-1.204-.77s-.594-.677-.775-1.074a2.826 2.826 0 0 1-.273-1.192c0-.356.059-.656.174-.9.116-.244.275-.443.479-.596.203-.153.44-.265.714-.335.273-.07.567-.105.882-.105.266 0 .521.033.771.099s.422.12.521.162v3.712c.323.033.602.017.832-.05.232-.066.422-.167.571-.304.148-.136.259-.304.329-.503.069-.198.104-.414.104-.646 0-.215-.05-.435-.148-.658a3.09 3.09 0 0 0-.335-.583l.856-.497c.174.249.325.548.453.9.128.353.192.747.192 1.187 0 .364-.059.695-.175.994a2.127 2.127 0 0 1-.503.77 2.293 2.293 0 0 1-.807.502 3.121 3.121 0 0 1-1.098.179zm-1.118-4.098a4.836 4.836 0 0 0-.255-.043 2.05 2.05 0 0 0-.279-.019c-.298 0-.561.072-.789.217-.228.145-.342.403-.342.776s.146.723.44 1.049c.295.327.702.565 1.224.714l.001-2.694zM8.642 80.149a2.21 2.21 0 0 0 .608-.664c.141-.244.211-.503.211-.776 0-.29-.077-.54-.23-.751-.152-.211-.341-.317-.564-.317-.19 0-.354.087-.49.261a7.267 7.267 0 0 0-.528.832c-.225.406-.469.725-.733.956a1.404 1.404 0 0 1-.956.348c-.273 0-.528-.058-.765-.174a1.789 1.789 0 0 1-.603-.479 2.323 2.323 0 0 1-.391-.708 2.55 2.55 0 0 1-.144-.863c0-.397.083-.755.248-1.074.166-.319.373-.598.621-.838l.708.745a2.567 2.567 0 0 0-.403.521c-.11.19-.167.406-.167.646 0 .282.074.514.224.695a.682.682 0 0 0 .546.273.506.506 0 0 0 .298-.087c.083-.058.161-.137.236-.236.073-.1.145-.211.211-.335.065-.124.137-.252.211-.385.239-.455.493-.795.758-1.019.265-.223.583-.335.956-.335.298 0 .566.06.807.18.24.12.445.288.614.502.17.216.3.472.391.77.092.298.138.621.138.969 0 .19-.029.387-.087.59a3.278 3.278 0 0 1-.236.589 2.664 2.664 0 0 1-.366.534 2.433 2.433 0 0 1-.478.422l-.645-.792zM8.232 75.307a4.817 4.817 0 0 1-1.633-.273 4.462 4.462 0 0 1-1.329-.733 3.563 3.563 0 0 1-.888-1.049 2.517 2.517 0 0 1-.323-1.223c0-.298.077-.571.229-.819s.361-.443.627-.583v-.025l-.706-.262v-1.068l6.097 1.217v1.093l-.844-.062v.037c.298.29.538.611.72.962.182.352.273.702.273 1.049 0 .538-.19.962-.571 1.272-.381.311-.931.467-1.652.467zm1.13-2.285c0-.265-.078-.536-.235-.813s-.422-.54-.794-.789l-2.435-.497c-.265.141-.455.3-.57.478a1 1 0 0 0-.175.553c0 .257.077.505.229.745.153.24.362.451.627.633s.573.327.925.435a3.77 3.77 0 0 0 1.111.161c.447 0 .778-.081.993-.242a.781.781 0 0 0 .324-.664zM4.209 67.472v-1.08l1.18.112v-.05a3.686 3.686 0 0 1-.95-.844 1.662 1.662 0 0 1-.378-1.043c0-.24.037-.443.112-.608l1.167.447a.72.72 0 0 0-.081.261c-.013.1-.019.203-.019.311 0 .29.111.576.335.857s.57.546 1.043.794l3.688.72v1.341l-6.097-1.218zM7.873 64.082a4.026 4.026 0 0 1-1.56-.292c-.467-.194-.869-.451-1.204-.77s-.594-.677-.775-1.074a2.826 2.826 0 0 1-.273-1.192c0-.356.059-.656.174-.9.116-.244.275-.443.479-.596.203-.153.44-.265.714-.335.273-.07.567-.105.882-.105.266 0 .521.033.771.099s.422.12.521.162v3.712c.323.033.602.017.832-.05.232-.066.422-.167.571-.304.148-.136.259-.304.329-.503.069-.198.104-.414.104-.646 0-.215-.05-.435-.148-.658a3.09 3.09 0 0 0-.335-.583l.855-.497c.174.249.325.548.453.9s.192.747.192 1.186c0 .364-.059.695-.175.994a2.127 2.127 0 0 1-.503.77 2.272 2.272 0 0 1-.807.503 3.112 3.112 0 0 1-1.097.179zm-1.118-4.098a3.953 3.953 0 0 0-.254-.043 2.05 2.05 0 0 0-.279-.019c-.298 0-.561.072-.789.217-.228.145-.342.403-.342.776s.146.723.441 1.049c.294.327.701.565 1.223.714v-2.694zM8.232 57.998c-.579 0-1.124-.091-1.633-.273s-.952-.426-1.329-.733a3.563 3.563 0 0 1-.888-1.049 2.517 2.517 0 0 1-.323-1.223c0-.298.077-.571.229-.819s.361-.443.627-.583v-.025l-.708-.261v-1.068l6.097 1.217v1.093l-.844-.062v.037c.298.29.538.611.72.962.182.352.273.702.273 1.049 0 .538-.19.962-.571 1.272-.379.311-.929.466-1.65.466zm1.13-2.285c0-.265-.078-.536-.235-.813s-.422-.54-.794-.789l-2.435-.497c-.265.141-.455.3-.57.478a1 1 0 0 0-.175.553c0 .257.077.505.229.745.153.24.362.451.627.633s.573.327.925.435a3.77 3.77 0 0 0 1.111.161c.447 0 .778-.081.993-.242a.78.78 0 0 0 .324-.664zM4.209 50.15v-1.08l.856.062v-.05a6.99 6.99 0 0 1-.708-1 2.163 2.163 0 0 1-.298-1.099c0-.513.132-.882.397-1.105.265-.224.646-.335 1.142-.335a3.142 3.142 0 0 1 .857.1l3.849.77v1.329l-3.674-.745a10.96 10.96 0 0 1-.36-.068 1.367 1.367 0 0 0-.286-.031c-.521 0-.781.257-.781.77 0 .216.074.445.224.689.149.244.389.528.72.851l4.16.819v1.341L4.209 50.15zM8.642 41.807c.266-.199.468-.42.608-.664s.211-.503.211-.776c0-.29-.077-.54-.23-.751-.152-.211-.341-.317-.564-.317-.19 0-.354.087-.49.261a7.267 7.267 0 0 0-.528.832c-.224.406-.468.725-.731.956a1.404 1.404 0 0 1-.956.348c-.273 0-.528-.058-.765-.174-.235-.116-.437-.275-.603-.478s-.296-.438-.391-.708a2.55 2.55 0 0 1-.144-.863c0-.397.083-.755.248-1.074.168-.319.374-.599.623-.839l.708.745a2.567 2.567 0 0 0-.403.521c-.11.19-.167.406-.167.646 0 .282.074.514.224.695a.682.682 0 0 0 .546.273c.116 0 .215-.029.298-.087s.161-.137.236-.236c.073-.1.145-.211.211-.335.065-.124.137-.252.211-.385.24-.455.493-.795.758-1.019.265-.223.583-.335.956-.335.298 0 .567.06.807.18.24.12.445.288.614.502.17.216.3.472.391.77.092.298.138.621.138.969 0 .19-.029.387-.087.59a3.278 3.278 0 0 1-.236.589 2.664 2.664 0 0 1-.366.534 2.433 2.433 0 0 1-.478.422l-.649-.792zM7.873 36.989a4.026 4.026 0 0 1-1.56-.292 3.874 3.874 0 0 1-1.204-.771 3.46 3.46 0 0 1-.775-1.074 2.826 2.826 0 0 1-.273-1.192c0-.356.059-.656.174-.9.116-.244.275-.443.479-.596.203-.153.44-.265.714-.335.273-.07.567-.105.882-.105.266 0 .521.033.771.099.249.066.422.12.521.162v3.712c.323.033.602.017.832-.05.232-.066.422-.167.571-.304.148-.136.259-.304.329-.503.069-.198.104-.414.104-.646 0-.215-.05-.435-.148-.658a3.09 3.09 0 0 0-.335-.583l.856-.497c.174.249.325.548.453.9s.192.747.192 1.186c0 .364-.059.695-.175.994a2.127 2.127 0 0 1-.503.77 2.269 2.269 0 0 1-.807.504 3.121 3.121 0 0 1-1.098.179zm-1.118-4.097a3.981 3.981 0 0 0-.255-.044 2.044 2.044 0 0 0-.279-.018c-.298 0-.561.072-.789.217-.228.145-.342.403-.342.776s.146.723.44 1.049c.295.327.702.565 1.224.714l.001-2.694zM7.972 30.893a4.175 4.175 0 0 1-1.533-.279 4.032 4.032 0 0 1-1.242-.758 3.53 3.53 0 0 1-.831-1.117 3.094 3.094 0 0 1-.305-1.347c0-.373.074-.691.225-.956a2.27 2.27 0 0 1 .521-.646l.807.745a1.477 1.477 0 0 0-.359.422 1.109 1.109 0 0 0-.112.521c0 .273.075.534.225.782.148.248.35.465.602.652.253.186.546.335.882.447.335.112.693.168 1.074.168.464 0 .822-.102 1.074-.304.252-.203.379-.511.379-.925 0-.24-.048-.453-.144-.64a3.115 3.115 0 0 0-.329-.515l.846-.571c.166.232.325.507.478.826.153.319.229.71.229 1.173 0 .34-.057.65-.167.932-.111.282-.273.525-.484.732s-.47.369-.776.484a3.028 3.028 0 0 1-1.06.174zM5.265 24.225v.856l-.994-.199-.062-.931-1.64-.484V22.35l1.64.323v-1.465l1.056.211v1.49l3.029.621c.148.024.294.037.435.037.225 0 .392-.054.503-.162.112-.107.168-.29.168-.546a.87.87 0 0 0-.05-.298 3.487 3.487 0 0 0-.112-.273l.944-.249c.066.149.128.331.187.546.058.215.087.463.087.745 0 .571-.144.979-.429 1.223-.285.245-.64.367-1.062.367-.125 0-.244-.008-.36-.025l-.359-.05-2.981-.62zM3.129 18.96c0 .19-.061.364-.18.521-.12.157-.292.236-.516.236-.24 0-.445-.087-.615-.261s-.255-.385-.255-.633c0-.19.062-.364.181-.521.119-.157.292-.236.516-.236.248 0 .455.087.621.261a.88.88 0 0 1 .248.633zm1.08.981v-1.329l6.097 1.217v1.341l-6.097-1.229zM10.455 15.632c0 .339-.059.65-.175.931a1.98 1.98 0 0 1-.496.72 2.234 2.234 0 0 1-.782.459c-.307.107-.65.161-1.031.161a4.24 4.24 0 0 1-1.596-.292 3.953 3.953 0 0 1-1.235-.764 3.487 3.487 0 0 1-.794-1.074 2.832 2.832 0 0 1-.286-1.223c0-.695.223-1.25.664-1.664.443-.414 1.049-.621 1.819-.621.58 0 1.108.098 1.589.292a4.06 4.06 0 0 1 1.235.764c.344.314.609.672.801 1.074.192.403.287.815.287 1.237zm-5.314-.944c0 .24.073.474.217.702.146.228.343.428.591.602.248.174.542.312.882.416s.704.155 1.092.155c.464 0 .822-.091 1.074-.273s.379-.451.379-.807c0-.24-.072-.472-.217-.695a2.17 2.17 0 0 0-.597-.596c-.252-.174-.548-.312-.888-.416s-.704-.155-1.093-.155c-.463 0-.819.091-1.068.273-.248.182-.372.447-.372.794zM4.209 10.331V9.25l.856.062v-.05a6.99 6.99 0 0 1-.708-1 2.164 2.164 0 0 1-.296-1.097c0-.513.132-.882.397-1.105.265-.224.646-.336 1.142-.336a3.142 3.142 0 0 1 .857.1l3.849.77v1.329l-3.675-.746a11.177 11.177 0 0 1-.36-.069 1.45 1.45 0 0 0-.286-.03c-.521 0-.781.257-.781.77 0 .216.074.445.224.689s.389.528.72.851l4.16.819v1.341l-6.099-1.217zM8.642 4.408c.265-.199.468-.42.608-.664a1.52 1.52 0 0 0 .212-.777c0-.29-.077-.54-.23-.751-.153-.211-.341-.317-.565-.317-.19 0-.354.087-.49.261a7.13 7.13 0 0 0-.528.832c-.224.406-.468.725-.732.956a1.405 1.405 0 0 1-.957.348c-.273 0-.528-.058-.765-.174a1.791 1.791 0 0 1-.601-.478 2.35 2.35 0 0 1-.391-.707 2.58 2.58 0 0 1-.142-.864c0-.397.083-.755.248-1.074.166-.318.372-.598.621-.838l.708.745a2.55 2.55 0 0 0-.404.522 1.249 1.249 0 0 0-.168.645c0 .282.074.514.224.695a.68.68 0 0 0 .545.273.506.506 0 0 0 .298-.087 1.03 1.03 0 0 0 .237-.235c.073-.1.145-.211.211-.335.066-.124.137-.253.211-.385.24-.455.493-.795.758-1.019.265-.223.583-.335.956-.335.298 0 .567.06.807.18.24.12.445.288.614.502.17.216.3.472.391.77.092.298.138.621.138.969 0 .19-.029.387-.087.59a3.278 3.278 0 0 1-.236.589 2.642 2.642 0 0 1-.845.958l-.646-.795z"/></g></svg>