<svg version="1.1" xmlns="http://www.w3.org/2000/svg" xmlns:xlink="http://www.w3.org/1999/xlink" x="0" y="0" width="325.984" height="243.847" viewBox="0 0 325.984 243.847" xml:space="preserve"><path fill="none" stroke="#231F20" stroke-width="1.502" stroke-miterlimit="10" stroke-dasharray="7.5118,4.5071,1.5024,4.5071" d="M48.912 43.014l-.499 6.06-.214 4.492-.072 4.42.072 4.421.214 4.421.356 4.277.499 4.35.642 4.207.856 4.135.926 4.064 1.07 3.993 1.212 3.921 1.355 3.851 1.568 3.707 1.641 3.637 1.782 3.493 1.925 3.351 2.068 3.28 2.21 3.066 2.353 2.995 2.496 2.923 2.638 2.709 2.78 2.638 2.923 2.496 3.138 2.353 3.279 2.282 3.423 2.067 3.636 1.925 3.851 1.783 4.064 1.64 4.207 1.497 3.35.998 3.352.428 4.135.214 3.85-.071 3.565-.286 3.422-.57 3.209-.713 3.066-.998 2.852-1.212 2.781-1.426 2.709-1.64 2.638-1.854 2.496-2.139 2.424-2.353 2.424-2.638 2.281-2.923 2.211-3.138 2.139-3.493 2.067-3.708 1.854-3.85 1.783-4.278 1.64-4.492 1.568-4.706 1.355-4.92 1.284-5.204 1.069-5.348.927-5.632.784-5.776.642-5.918.428-6.132.285-6.274.142-6.417-.071-7.985"/><path fill="none" stroke="#231F20" stroke-width="2" stroke-miterlimit="10" d="M28.876 42.728c-5.205 54.331 16.827 109.66 75.721 125.417 60.891 9.483 91.05-48.056 89.411-124.205"/><path fill-rule="evenodd" clip-rule="evenodd" fill="none" stroke="#231F20" stroke-width="1.502" stroke-miterlimit="10" d="M102.529 69.822l-1.212 97.61 84.776 74.509-14.616-102.53z"/><path fill-rule="evenodd" clip-rule="evenodd" fill="none" stroke="#231F20" stroke-width=".5" stroke-miterlimit="10" d="M102.815 211.567v27.094M107.449 212.352l-9.269 25.453M111.513 214.704l-17.468 20.748M114.508 218.34L91.05 231.888M116.148 222.761l-26.738 4.706M116.148 227.467l-26.738-4.706M114.508 231.888L91.05 218.34M111.513 235.452l-17.468-20.748M107.449 237.805l-9.269-25.453"/><path fill-rule="evenodd" clip-rule="evenodd" fill="#FFF" stroke="#231F20" stroke-width="1" stroke-miterlimit="10" d="M102.815 228.322a3.195 3.195 0 0 0 3.208-3.208c0-1.854-1.426-3.28-3.208-3.28-1.854 0-3.28 1.426-3.28 3.28 0 1.782 1.426 3.208 3.28 3.208z"/><path fill-rule="evenodd" clip-rule="evenodd" fill="#231F20" stroke="#231F20" stroke-width=".045" stroke-linecap="round" stroke-linejoin="round" stroke-miterlimit="10" d="M88.982 224.971l-8.057 3.066c1.212-1.997 1.354-3.851 0-5.918l8.057 2.852zM121.495 73.53l8.128 3.066c-1.283-2.068-1.354-3.922 0-5.989l-8.128 2.923zM170.051 93.066l8.057 3.065c-1.212-2.068-1.354-3.921 0-5.989l-8.057 2.924zM135.755 115.811l8.057 2.995c-1.212-1.925-1.355-3.779 0-5.846l-8.057 2.851zM174.4 139.126l8.057 3.066c-1.212-1.997-1.355-3.851 0-5.918l-8.057 2.852z"/><path fill="#231F20" d="M3.28 219.909h.428l2.923 7.059H5.562l-.784-2.139H3.28v-.785h1.141l-.713-1.925c-.214-.57-.356-.998-.428-1.355v-.855zM0 226.968l2.709-7.059h.57v.855l-.071-.143a9.413 9.413 0 0 1-.357 1.355l-.784 2.067H3.28v.785H1.783l-.784 2.139H0zM7.272 226.968v-5.134h.785v.713c.356-.57.927-.855 1.64-.855.285 0 .57.071.856.214.285.071.427.214.57.428.143.142.214.356.285.642 0 .143.072.427.072.855v3.137h-.927v-3.137c0-.356 0-.571-.072-.785-.071-.143-.214-.285-.356-.428a1.427 1.427 0 0 0-.642-.143c-.356 0-.642.143-.927.357-.286.213-.428.642-.428 1.354v2.781h-.856zM16.185 226.968v-.784c-.428.642-.999.927-1.64.927-.356 0-.642-.071-.855-.214-.285-.071-.499-.214-.57-.428-.143-.143-.214-.356-.285-.642-.071-.143-.071-.428-.071-.785v-3.208h.855v2.853c0 .427.071.784.071.926.071.214.143.428.356.5.143.143.356.214.642.214a1.2 1.2 0 0 0 .713-.214c.285-.143.427-.285.499-.5.143-.285.143-.57.143-.998v-2.781h.855v5.134h-.713zM17.967 225.471l.856-.143c0 .285.143.57.356.784.285.143.571.285.927.285.428 0 .713-.142.927-.285.213-.143.285-.357.285-.571 0-.213-.072-.356-.285-.428-.072-.071-.357-.214-.856-.285-.642-.214-1.069-.356-1.354-.428-.214-.143-.428-.285-.57-.499-.072-.214-.143-.428-.143-.713 0-.214 0-.428.143-.642.071-.213.213-.356.428-.499.143-.071.285-.143.57-.214.214-.071.428-.143.713-.143.428 0 .785.071 1.07.214.285.071.57.286.712.428.143.213.214.499.286.855l-.855.071c-.072-.214-.143-.427-.357-.57-.143-.214-.427-.286-.784-.286-.356 0-.642.071-.855.214a.647.647 0 0 0-.214.5c0 .071 0 .214.071.285.071.072.214.143.356.214.071.071.357.143.713.214.642.213 1.07.356 1.354.428.214.143.428.286.571.428.143.213.214.499.214.784 0 .285-.143.57-.285.784-.143.285-.428.499-.713.642a2.943 2.943 0 0 1-1.141.214c-.642 0-1.141-.143-1.497-.428-.357-.284-.571-.711-.643-1.21z"/><path fill="none" stroke="#231F20" stroke-width=".5" stroke-miterlimit="10" d="M81.71 225.042H25.953"/><path fill-rule="evenodd" clip-rule="evenodd" fill="#231F20" stroke="#231F20" stroke-width=".216" stroke-miterlimit="10" d="M116.077 76.382c1.212 0 2.139-.998 2.139-2.21 0-1.283-.927-2.282-2.139-2.282-1.212 0-2.139.999-2.139 2.282 0 1.212.926 2.21 2.139 2.21z"/><path fill-rule="evenodd" clip-rule="evenodd" fill="none" stroke="#231F20" stroke-width="1" stroke-miterlimit="10" d="M123.135 65.116c-.57 1.07-.999 3.208-1.783 3.851-1.069.927-2.78 2.638-4.064 3.779-.855.713-1.569 1.568-2.567 1.212-2.353-.999-4.207-3.137-5.918-5.063"/><path fill-rule="evenodd" clip-rule="evenodd" fill="none" stroke="#231F20" stroke-width=".5" stroke-miterlimit="10" d="M240.068 22.193C246.199-1.05 231.654-2.405 213.9 2.658c6.702.427 15.472-2.068 21.104 1.497 5.135 3.28 2.996 11.907 5.064 18.038z"/><path fill-rule="evenodd" clip-rule="evenodd" fill="none" stroke="#231F20" stroke-width="1" stroke-miterlimit="10" d="M116.291 73.886c10.053 1.426 6.203 19.108 12.905 19.108 3.351 0 14.046-.285 14.046-4.563 0-6.488-6.56-13.333-9.269-19.322-3.351-7.201-7.629-18.182 0-18.182 9.341 0 16.756 3.351 26.31 3.351.927 0 7.559-.428 8.058-.499 23.885-.428 18.181-21.034 18.181-38.716 0-9.554 1.854-6.703 9.982-7.629 5.704-.713 12.335-3.208 18.752-5.276"/><path fill="#231F20" d="M242.42 69.251h.499l2.852 7.13h-1.07l-.784-2.139h-1.497v-.784h1.212l-.784-1.996c-.143-.5-.356-.927-.428-1.284v-.927zm-3.279 7.131l2.78-7.13h.5v.927l-.071-.143c-.071.428-.214.856-.356 1.355l-.784 2.068h1.212v.784h-1.498l-.784 2.139h-.999zM248.624 71.105h.071c.427 0 .855.143 1.212.357.285.213.57.499.713.927.214.428.286.855.286 1.354 0 .57-.072.999-.286 1.426-.213.428-.499.785-.855.999-.357.214-.713.285-1.141.285v-.713c.356 0 .713-.143.999-.499.213-.285.356-.784.356-1.498 0-.642-.143-1.141-.356-1.426-.286-.356-.642-.499-.999-.499v-.713zm-2.211 7.202v-7.059h.784v.642c.214-.285.428-.427.642-.57.214-.143.499-.214.785-.214v.713c-.356 0-.713.143-.998.499-.286.356-.428.855-.428 1.498 0 .642.143 1.141.428 1.497.285.286.57.428.998.428v.712c-.286 0-.499-.071-.713-.142a1.323 1.323 0 0 1-.571-.5v2.496h-.927zM255.468 74.742l.856.071c-.143.571-.357.927-.784 1.212-.357.285-.856.427-1.427.427h-.071v-.712h.071c.285 0 .571-.072.784-.214.286-.214.429-.427.571-.784zm-1.426-3.637c.713 0 1.283.214 1.711.713.428.428.642 1.141.642 1.997v.213h-2.353v-.713h1.426c-.071-.427-.143-.784-.356-.998-.214-.286-.642-.499-1.069-.499v-.713zm0 5.348c-.713 0-1.284-.213-1.711-.642-.428-.499-.642-1.141-.642-1.996 0-.856.214-1.498.642-1.997a2.36 2.36 0 0 1 1.711-.713v.713c-.428 0-.713.143-.998.428a1.448 1.448 0 0 0-.428 1.069h1.426v.713h-1.498c.071.571.214.998.5 1.283.285.286.57.428.998.428v.714zM256.894 76.382l1.854-2.709-1.711-2.424h1.07l.784 1.212c.143.213.285.428.356.57a6.49 6.49 0 0 0 .356-.57l.927-1.212h.999l-1.783 2.424 1.925 2.709h-1.069l-1.07-1.64-.285-.428-1.354 2.068h-.999zM264.809 74.813l.855-.143c.072.356.214.642.428.785.214.213.499.285.927.285.356 0 .642-.072.855-.214.214-.143.285-.357.285-.57a.646.646 0 0 0-.214-.499c-.143-.072-.428-.143-.927-.286-.642-.143-1.07-.285-1.283-.428a.932.932 0 0 1-.571-.428c-.143-.213-.214-.499-.214-.712s.071-.428.143-.642c.143-.214.285-.356.428-.499.143-.072.357-.143.57-.214.214-.071.499-.143.785-.143.356 0 .713.071.998.214.356.071.57.213.713.427.143.214.214.5.286.784l-.856.143a.752.752 0 0 0-.356-.642c-.143-.143-.428-.213-.784-.213-.356 0-.642.071-.855.213-.143.143-.214.286-.214.428s0 .213.072.356c.071.071.213.143.356.214.071 0 .356.071.785.214.57.143.998.285 1.283.428.214.071.428.214.571.428.143.214.213.428.213.784 0 .285-.071.5-.285.784-.143.286-.427.428-.713.571a2.853 2.853 0 0 1-1.069.213c-.713 0-1.212-.142-1.569-.356-.358-.284-.572-.711-.643-1.282zM273.507 76.382v-.784c-.427.57-.998.855-1.64.855-.356 0-.642 0-.855-.142-.285-.143-.499-.285-.57-.428-.143-.214-.285-.428-.285-.642-.071-.214-.071-.428-.071-.856v-3.137h.855V74.1c0 .428 0 .713.071.927.071.214.143.357.356.5.143.142.356.214.642.214.286 0 .499-.072.713-.214.285-.143.428-.285.5-.57.143-.214.143-.571.143-.998v-2.71h.855v5.134h-.714zM277.5 75.598l.143.784c-.214 0-.499.071-.642.071-.357 0-.57-.071-.784-.142-.143-.143-.285-.285-.357-.428-.071-.143-.071-.499-.071-.999V71.89h-.642v-.642h.642v-1.283l.855-.499v1.782h.856v.642h-.856v2.995c0 .285 0 .428.072.5 0 .071.071.143.143.143.071.071.143.071.285.071l.356-.001zM281.707 76.382v-.784c-.356.57-.927.855-1.641.855-.285 0-.57 0-.784-.142-.285-.143-.499-.285-.642-.428-.071-.214-.214-.428-.214-.642-.071-.214-.071-.428-.071-.856v-3.137h.856V74.1c0 .428 0 .713.071.927.072.214.143.357.357.5.143.142.356.214.642.214s.499-.072.713-.214c.214-.143.428-.285.5-.57.071-.214.142-.571.142-.998v-2.71h.856v5.134h-.785zM283.846 76.382v-5.134h.785v.784c.213-.356.427-.642.57-.712a.808.808 0 0 1 .571-.214c.285 0 .57.071.855.285l-.286.784c-.213-.071-.427-.143-.642-.143-.143 0-.356.072-.499.143-.143.143-.285.286-.356.499a4.232 4.232 0 0 0-.143.999v2.709h-.855zM290.69 74.742l.927.071a1.916 1.916 0 0 1-.855 1.212c-.356.285-.855.427-1.426.427h-.071v-.712h.071c.285 0 .57-.072.784-.214.286-.214.428-.427.57-.784zm-1.425-3.637c.713 0 1.283.214 1.711.713.428.428.642 1.141.642 1.997v.213h-2.353v-.713h1.426c0-.427-.143-.784-.356-.998-.214-.286-.57-.499-1.069-.499v-.713zm0 5.348c-.713 0-1.284-.213-1.711-.642-.428-.499-.642-1.141-.642-1.996 0-.856.214-1.498.642-1.997a2.362 2.362 0 0 1 1.711-.713v.713c-.356 0-.713.143-.998.428a1.448 1.448 0 0 0-.428 1.069h1.426v.713h-1.497c.071.571.213.998.499 1.283.285.286.57.428.998.428v.714zM239.925 96.346v-7.13h.998v2.923h3.636v-2.923h.927v7.13h-.927v-3.351h-3.636v3.351zM246.912 98.271l-.071-.784c.214.071.356.071.499.071.214 0 .356 0 .428-.071a.556.556 0 0 0 .285-.286c.071-.071.143-.285.285-.642 0-.071.072-.143.072-.213l-1.925-5.134h.927l1.069 2.923c.143.427.286.784.357 1.212.143-.428.214-.785.356-1.141l1.141-2.995h.856l-1.997 5.205c-.143.571-.356.927-.428 1.141-.214.285-.356.499-.57.642a1.202 1.202 0 0 1-.713.214c-.143.001-.357-.071-.571-.142zM251.903 96.346v-5.134h.784v.712c.143-.285.357-.499.642-.642.285-.143.57-.213.927-.213.357 0 .713.071.927.213.285.214.428.428.499.713.428-.642.927-.927 1.64-.927.499 0 .855.143 1.141.428s.428.713.428 1.283v3.565h-.856v-3.28c0-.357-.071-.571-.071-.713a.855.855 0 0 0-.356-.356c-.143-.143-.285-.143-.499-.143-.357 0-.642.071-.927.356-.214.214-.357.57-.357 1.141v2.995h-.855v-3.352c0-.427-.072-.713-.214-.855-.143-.214-.357-.285-.713-.285-.214 0-.428.071-.642.143-.214.143-.356.356-.499.571a4.28 4.28 0 0 0-.143 1.069v2.71h-.856zM263.668 94.635l.927.143a2.402 2.402 0 0 1-.785 1.212c-.427.285-.855.428-1.497.428h-.071v-.713h.071c.356 0 .642-.071.855-.214.215-.215.357-.429.5-.856zm-1.426-3.565h.071c.642 0 1.212.213 1.64.713.428.428.642 1.141.642 1.996v.214h-2.353v-.713h1.426a1.85 1.85 0 0 0-.285-.998c-.285-.357-.642-.499-1.07-.499h-.071v-.713zm0 5.347c-.713 0-1.283-.214-1.711-.642-.427-.499-.642-1.141-.642-1.997 0-.855.214-1.497.642-1.996.428-.5.999-.713 1.711-.713v.713c-.356 0-.713.142-.998.428-.214.214-.356.57-.428 1.069h1.426v.713h-1.497c.071.57.214.998.499 1.283s.642.428.998.428v.714zM265.664 96.346v-5.134h.784v.712c.357-.57.927-.855 1.64-.855.286 0 .57.071.855.143.285.143.428.285.571.499.143.143.213.356.285.642 0 .143.071.428.071.784v3.209h-.927v-3.137c0-.357 0-.642-.071-.785a.734.734 0 0 0-.357-.428c-.142-.143-.356-.143-.57-.143-.428 0-.713.071-.999.356-.285.214-.427.642-.427 1.283v2.853h-.855zM273.935 96.346v-5.134h.784v.784c.214-.428.356-.642.571-.784.143-.072.356-.143.499-.143.356 0 .642.071.927.285l-.285.784c-.214-.071-.428-.143-.642-.143-.213 0-.356 0-.499.143-.143.143-.286.285-.356.499a4.172 4.172 0 0 0-.143.998v2.71h-.856zM280.78 94.635l.855.143a2.394 2.394 0 0 1-.784 1.212c-.356.285-.855.428-1.497.428v-.713h.071c.286 0 .571-.071.785-.214.213-.215.427-.429.57-.856zm-1.426-3.565c.642 0 1.212.213 1.64.713.5.428.713 1.141.713 1.996v.214h-2.353v-.713h1.426c-.071-.428-.143-.784-.356-.998-.285-.357-.642-.499-1.069-.499v-.713zm0 5.347c-.784 0-1.355-.214-1.783-.642-.428-.499-.642-1.141-.642-1.997 0-.855.214-1.497.713-1.996.428-.5.998-.713 1.711-.713v.713c-.428 0-.713.142-.999.428-.285.214-.428.57-.499 1.069h1.498v.713h-1.498c0 .57.143.998.499 1.283.214.285.57.428.999.428v.714zM282.776 96.346v-5.134h.713v.712c.214-.285.428-.499.642-.642.285-.143.57-.213.927-.213.428 0 .713.071.927.213.286.214.428.428.571.713.356-.642.927-.927 1.569-.927.499 0 .855.143 1.141.428.285.285.428.713.428 1.283v3.565h-.856v-3.28c0-.357 0-.571-.071-.713-.071-.143-.143-.285-.356-.356-.143-.143-.285-.143-.499-.143-.357 0-.642.071-.856.356-.285.214-.428.57-.428 1.141v2.995h-.855v-3.352c0-.427-.072-.713-.214-.855-.142-.214-.356-.285-.642-.285-.285 0-.499.071-.713.143a1.111 1.111 0 0 0-.428.571c-.143.285-.143.642-.143 1.069v2.71h-.857zM290.976 96.346v-5.134h.784v.712c.356-.57.927-.855 1.64-.855.285 0 .57.071.855.143.286.143.428.285.571.499.143.143.213.356.285.642 0 .143.071.428.071.784v3.209h-.855v-3.137c0-.357-.072-.642-.143-.785a.734.734 0 0 0-.357-.428c-.143-.143-.356-.143-.57-.143-.428 0-.713.071-.999.356-.285.214-.427.642-.427 1.283v2.853h-.855zM299.817 95.704c-.285.285-.57.428-.927.57-.143.072-.285.072-.428.143v-.713c.213 0 .428-.071.57-.143.285-.143.499-.356.57-.642.143-.214.143-.5.143-.856v-.285c-.285.072-.713.214-1.283.285v-.712c.57-.072.998-.214 1.283-.285v-.214c0-.356-.071-.642-.214-.784a1.84 1.84 0 0 0-.998-.285h-.071v-.713h.213c.428 0 .785.071 1.07.143.285.143.499.213.57.428.143.143.214.356.286.57.071.143.071.428.071.784v1.212c0 .784 0 1.283.072 1.497 0 .214.071.428.214.642h-.927l-.214-.642zm-1.355.713h-.499c-.571 0-.999-.143-1.284-.356-.356-.285-.499-.642-.499-1.069 0-.285.071-.499.214-.713.071-.214.214-.356.428-.499.213-.143.427-.214.642-.285.143-.071.427-.071.784-.142h.214v.712h-.143c-.356.072-.57.143-.712.214-.143 0-.285.143-.357.285a.548.548 0 0 0-.143.357c0 .285.143.428.285.642.143.143.428.214.784.214.072 0 .214 0 .286-.071v.711zm0-4.634c-.356 0-.642.071-.855.214-.143.143-.285.428-.428.784l-.855-.143c.143-.356.214-.642.428-.855.143-.214.428-.428.784-.5.214-.143.571-.213.927-.213v.713zM302.027 96.346v-5.134h.784v.712c.356-.57.927-.855 1.64-.855.285 0 .571.071.856.143.214.143.428.285.57.499.143.143.214.356.285.642V96.346h-.855v-3.137c0-.357 0-.642-.072-.785a.73.73 0 0 0-.356-.428c-.214-.143-.428-.143-.642-.143-.356 0-.713.071-.927.356-.285.214-.428.642-.428 1.283v2.853h-.855zM309.442 95.562l.071.785c-.214 0-.428.071-.642.071-.285 0-.57-.071-.713-.143a.943.943 0 0 1-.356-.427c-.072-.143-.143-.5-.143-.999v-2.995h-.642v-.642h.642v-1.283l.855-.499v1.782h.927v.642h-.927v2.995c0 .285.071.428.071.499s.071.143.143.143c.071.071.143.071.285.071h.429zM309.941 94.777l.856-.143c0 .356.143.642.356.784.214.214.571.285.927.285.428 0 .713-.071.927-.214.214-.143.286-.356.286-.57s-.072-.357-.286-.5c-.071-.071-.428-.143-.855-.285-.642-.143-1.069-.285-1.354-.428-.214-.072-.428-.286-.571-.499a1.711 1.711 0 0 1-.143-.642c0-.214 0-.428.143-.643.072-.213.214-.356.428-.499.143-.071.285-.213.57-.285.214 0 .427-.071.713-.071.428 0 .784.071 1.069.143.286.143.499.285.713.499.142.213.214.499.285.784l-.855.143c-.071-.285-.143-.499-.356-.642-.214-.143-.428-.214-.785-.214-.428 0-.713.071-.856.214-.143.143-.285.285-.285.428 0 .143.072.214.143.356.072.071.214.143.357.214.071 0 .285.072.713.214.642.143 1.069.285 1.283.427.285.072.499.214.642.428.072.214.143.428.143.785 0 .285-.071.499-.213.784s-.428.428-.713.57a2.947 2.947 0 0 1-1.141.214c-.642 0-1.141-.143-1.497-.428-.358-.211-.572-.638-.644-1.209zM239.925 118.805v-7.059h1.354l1.711 5.062c.143.428.285.713.357.927.071-.214.213-.571.356-1.07l1.711-4.92h1.283v7.059h-.927v-5.918l-2.068 5.918h-.855l-2.068-5.989v5.989h-.854zM251.404 118.805v-.784c-.356.57-.927.856-1.569.856a2.66 2.66 0 0 1-.855-.143c-.285-.143-.5-.286-.642-.428-.071-.214-.213-.428-.213-.642-.071-.214-.071-.428-.071-.784v-3.137h.855v2.852c0 .428 0 .713.071.785.071.285.142.428.356.57.143.143.356.214.642.214a1.2 1.2 0 0 0 .713-.214c.214-.143.428-.285.5-.57.071-.143.143-.499.143-.927v-2.709h.855v5.062h-.785zM253.258 117.308l.855-.143c0 .285.143.571.357.713.214.214.57.285.927.285.428 0 .713-.071.927-.214.142-.143.285-.356.285-.57 0-.143-.071-.286-.285-.428-.072-.071-.428-.143-.856-.285-.642-.143-1.07-.285-1.355-.428-.214-.071-.427-.286-.57-.499-.143-.214-.143-.428-.143-.642 0-.214 0-.428.143-.642.071-.214.213-.356.428-.499.142-.071.285-.214.57-.285.214-.071.428-.071.713-.071.428 0 .785.071 1.07.143.285.143.499.285.642.499s.285.499.356.784l-.856.143c-.071-.285-.142-.499-.356-.642-.214-.143-.428-.214-.784-.214-.428 0-.713.071-.855.214s-.285.285-.285.428c0 .143.071.214.143.356a.755.755 0 0 0 .356.214c.071 0 .285.072.713.214.642.143 1.069.285 1.284.428.285.071.499.214.57.427.143.214.214.428.214.713s-.072.499-.214.784c-.214.286-.427.428-.713.57a2.947 2.947 0 0 1-1.141.214c-.642 0-1.141-.143-1.498-.428-.357-.212-.571-.64-.642-1.139zM261.885 116.952l.856.142c-.072.5-.357.999-.713 1.284-.428.356-.855.499-1.426.499-.713 0-1.283-.214-1.711-.642-.428-.499-.642-1.07-.642-1.926 0-.57.071-1.069.285-1.497.214-.356.499-.713.855-.927s.784-.285 1.212-.285c.57 0 .998.143 1.355.428.356.285.57.642.712 1.212l-.855.143c-.071-.357-.214-.642-.428-.785-.214-.214-.428-.285-.784-.285-.428 0-.785.143-1.07.499-.213.286-.356.785-.356 1.497 0 .642.143 1.07.356 1.427.285.285.642.427 1.07.427.356 0 .642-.071.855-.285s.358-.499.429-.926zM263.454 111.747h.856v7.059h-.856zM269.158 117.166l.927.143a2.538 2.538 0 0 1-.785 1.141c-.356.286-.855.428-1.497.428h-.072v-.713h.072c.356 0 .642-.071.855-.214.215-.215.428-.429.5-.785zm-1.427-3.565h.072c.642 0 1.212.213 1.64.713.428.428.642 1.141.642 1.925v.285h-2.354v-.713h1.498c-.071-.427-.143-.784-.356-.998-.286-.356-.642-.499-1.07-.499h-.072v-.713zm0 5.276c-.712 0-1.283-.214-1.71-.642-.428-.499-.642-1.07-.642-1.926 0-.855.214-1.497.642-1.996a2.312 2.312 0 0 1 1.71-.713v.713c-.356 0-.712.143-.926.428-.285.214-.428.57-.5 1.069h1.426v.713h-1.426c0 .57.143.927.428 1.212.286.285.642.427.998.427v.715zM239.425 142.049l.856-.143c.071.57.143.927.285 1.141.214.214.499.285.785.285.213 0 .427-.071.642-.143.143-.143.285-.285.285-.428.071-.214.143-.5.143-.927v-4.848h.927v4.848c0 .57-.072.998-.214 1.354-.143.285-.356.57-.713.713-.285.213-.642.285-1.069.285-.642 0-1.07-.214-1.426-.571s-.501-.853-.501-1.566zM248.125 144.046v-.713c-.356.571-.927.856-1.64.856-.286 0-.571-.072-.856-.214a1.107 1.107 0 0 1-.57-.427c-.143-.143-.214-.357-.285-.642V138.913h.855v2.852c0 .499 0 .785.071.927 0 .214.143.428.285.57.214.071.428.143.713.143.214 0 .499-.072.713-.143.214-.143.427-.356.499-.57a3.31 3.31 0 0 0 .143-.998v-2.781h.855v5.134h-.783zM250.264 144.046v-5.134h.784v.713c.356-.499.927-.785 1.64-.785.285 0 .57 0 .856.143.285.072.428.286.57.428.143.214.214.428.285.642 0 .143.072.428.072.856v3.137h-.927v-3.137c0-.357 0-.571-.072-.785-.071-.143-.214-.285-.356-.428a1.347 1.347 0 0 0-.57-.143c-.428 0-.713.143-.998.356s-.428.713-.428 1.355v2.781h-.856zM259.104 142.192l.856.071c-.072.643-.286 1.07-.713 1.427a2.295 2.295 0 0 1-1.426.499c-.642 0-1.212-.214-1.64-.713-.428-.428-.642-1.069-.642-1.997 0-.499.071-.998.285-1.426.143-.428.428-.713.784-.927.428-.214.784-.286 1.284-.286.499 0 .998.143 1.354.428.356.214.57.642.642 1.141l-.855.142a1.407 1.407 0 0 0-.428-.784c-.143-.143-.428-.214-.713-.214a1.45 1.45 0 0 0-1.069.428c-.286.356-.428.855-.428 1.497 0 .713.143 1.212.428 1.498.285.356.57.499.998.499.356 0 .642-.143.855-.356.286-.214.428-.499.428-.927zM262.669 143.261l.072.785c-.214.071-.428.071-.642.071-.285 0-.57-.071-.713-.143-.214-.071-.285-.214-.356-.356-.071-.213-.143-.57-.143-1.069v-2.923h-.642v-.713h.642v-1.283l.855-.499v1.782h.927v.713h-.927v2.995c0 .214 0 .428.071.499 0 .071.071.071.143.143.071 0 .142.071.285.071s.215-.001.428-.073zM263.525 137.985v-.998h.855v.998h-.855zm0 6.061v-5.134h.855v5.134h-.855zM267.731 138.84h.072c.642 0 1.283.214 1.711.642.428.499.642 1.141.642 1.925 0 .642-.071 1.212-.286 1.568a2.448 2.448 0 0 1-.855.855 2.407 2.407 0 0 1-1.212.357h-.072v-.713h.072c.428 0 .784-.214 1.07-.499.285-.356.427-.855.427-1.498 0-.642-.142-1.141-.427-1.426-.286-.356-.642-.499-1.07-.499h-.072v-.712zm-2.352 2.639c0-.927.214-1.64.784-2.067.428-.428.999-.571 1.568-.571v.713c-.427 0-.784.143-1.069.499-.285.285-.428.784-.428 1.426 0 .642.143 1.141.428 1.498.285.356.642.499 1.069.499v.713c-.712 0-1.283-.214-1.71-.713-.428-.429-.642-1.142-.642-1.997zM271.226 144.046v-5.134h.784v.713c.356-.499.855-.785 1.569-.785.356 0 .642 0 .855.143.285.072.5.286.642.428.071.214.214.428.214.642.071.143.071.428.071.856v3.137h-.855v-3.137c0-.357-.071-.571-.143-.785a.953.953 0 0 0-.356-.428 1.35 1.35 0 0 0-.57-.143c-.356 0-.713.143-.998.356-.214.214-.357.713-.357 1.355v2.781h-.856zM281.564 138.84c.713 0 1.284.214 1.711.642.428.499.642 1.141.642 1.925 0 .642-.071 1.212-.285 1.568s-.499.642-.855.855a2.404 2.404 0 0 1-1.212.357v-.713c.428 0 .785-.214 1.07-.499.285-.356.428-.855.428-1.498 0-.642-.143-1.141-.428-1.426-.285-.356-.642-.499-1.07-.499v-.712zm-2.424 2.639c0-.927.285-1.64.784-2.067.428-.428.999-.571 1.64-.571v.713c-.428 0-.855.143-1.141.499-.285.285-.428.784-.428 1.426 0 .642.143 1.141.428 1.498.286.356.713.499 1.141.499v.713c-.713 0-1.354-.214-1.782-.713-.428-.429-.642-1.142-.642-1.997zM285.2 144.046v-4.421h-.784v-.713h.784v-.499c0-.357 0-.642.072-.784.071-.214.213-.428.427-.571.214-.143.5-.214.856-.214.285 0 .57 0 .855.071l-.143.784c-.143 0-.356-.071-.499-.071-.286 0-.428.071-.57.213-.143.072-.143.286-.143.642v.428h.998v.713h-.998v4.421h-.855zM290.12 142.548l.855-.143c.072.356.214.57.428.784.213.214.499.285.927.285.356 0 .642-.071.855-.285.214-.143.285-.356.285-.57 0-.143-.071-.357-.214-.428-.143-.071-.428-.214-.927-.285-.642-.214-1.07-.356-1.355-.428-.214-.143-.428-.285-.499-.499a1.2 1.2 0 0 1-.214-.712c0-.214.071-.428.143-.642.142-.143.285-.356.427-.428.143-.143.357-.214.571-.285.213-.072.499-.072.712-.072.428 0 .784 0 1.07.143.357.143.57.286.713.5.143.143.214.428.286.785l-.856.071c0-.214-.143-.428-.356-.57-.143-.143-.428-.214-.784-.214s-.642.071-.856.143a.65.65 0 0 0-.214.499c0 .072 0 .214.072.285.071.071.214.214.356.214.071.072.356.143.784.285.57.143.998.286 1.283.356.214.143.428.285.571.5.143.143.213.427.213.713 0 .285-.071.57-.285.856-.143.213-.428.427-.713.57a2.85 2.85 0 0 1-1.069.214c-.713 0-1.212-.143-1.569-.428-.354-.287-.569-.715-.64-1.214zM295.396 144.046v-7.059h.927v3.992l1.996-2.067h1.141l-1.925 1.925 2.139 3.209h-1.069l-1.711-2.638-.571.641v1.997zM300.387 137.985v-.998h.856v.998h-.856zm0 6.061v-5.134h.856v5.134h-.856zM302.598 144.046v-5.134h.784v.713c.357-.499.856-.785 1.568-.785.357 0 .642 0 .856.143.285.072.499.286.642.428.072.214.214.428.214.642.071.143.071.428.071.856v3.137h-.855v-3.137c0-.357-.071-.571-.143-.785a.953.953 0 0 0-.356-.428 1.347 1.347 0 0 0-.57-.143c-.357 0-.713.143-.999.356-.214.214-.356.713-.356 1.355v2.781h-.856zM314.148 143.404c-.285.285-.642.499-.927.57-.143.072-.285.143-.427.143v-.642a.81.81 0 0 0 .57-.214c.285-.143.499-.356.571-.57.143-.214.143-.499.143-.855v-.357c-.285.143-.713.214-1.283.285v-.712c.57-.072.998-.143 1.283-.285v-.214c0-.356-.072-.57-.214-.713-.214-.214-.57-.285-.998-.285h-.071v-.713h.213c.428 0 .785 0 1.07.143.285.072.428.214.57.357.142.143.214.356.285.642 0 .143.071.356.071.785v2.709c.071.214.143.356.285.571h-.927a3.527 3.527 0 0 1-.214-.645zm-1.354.713c-.143.072-.357.072-.5.072-.57 0-.998-.143-1.284-.428-.356-.285-.499-.642-.499-1.069 0-.214.072-.499.214-.642.072-.214.214-.428.428-.499.214-.143.356-.285.642-.285.143-.071.428-.143.784-.143l.214-.071v.712l-.143.072c-.356 0-.57.071-.713.143s-.286.143-.356.285c-.072.143-.143.286-.143.428 0 .214.143.428.285.57.143.143.428.214.784.214h.286v.641h.001zm0-4.563c-.357 0-.642.071-.856.214-.143.143-.286.356-.428.713l-.855-.071c.071-.357.213-.713.428-.927.143-.214.427-.356.713-.5.285-.071.642-.143.999-.143v.714zM316.359 144.046v-5.134h.784v.713c.356-.499.926-.785 1.64-.785.285 0 .571 0 .784.143.286.072.499.286.642.428.071.214.213.428.213.642.072.143.072.428.072.856v3.137h-.856v-3.137c0-.357-.071-.571-.071-.785-.071-.143-.213-.285-.428-.428a1.347 1.347 0 0 0-.57-.143c-.356 0-.713.143-.999.356-.213.214-.356.713-.356 1.355v2.781h-.855zM325.2 144.046v-.642c-.356.499-.784.784-1.426.784v-.713h.071c.357 0 .642-.143.927-.499.285-.285.428-.784.428-1.426 0-.713-.143-1.212-.428-1.498-.286-.356-.57-.499-.998-.499v-.713c.285 0 .57.072.712.143.286.143.5.357.643.5v-2.495h.855v7.059h-.784zm-1.426.142h-.072a1.92 1.92 0 0 1-1.069-.357 2.168 2.168 0 0 1-.856-.926c-.143-.428-.285-.856-.285-1.427 0-.499.143-.927.285-1.354s.428-.784.784-.998.713-.286 1.141-.286h.072v.713c-.356 0-.713.143-.999.428-.214.356-.356.855-.356 1.497 0 .713.143 1.141.428 1.498.286.285.571.499.927.499v.713zM241.208 155.097l-1.925-5.133h.927l1.069 3.065c.143.357.285.713.357 1.07.071-.286.214-.571.356-.998l1.141-3.137h.856l-1.926 5.133h-.855zM248.125 154.455c-.356.286-.642.5-.927.642-.143 0-.285.072-.499.072v-.642c.214 0 .428-.072.642-.214.286-.142.428-.356.571-.57.071-.214.143-.499.143-.856v-.356c-.285.143-.713.214-1.355.356v-.784c.642-.071 1.07-.143 1.355-.214v-.285c0-.286-.072-.57-.214-.713-.285-.214-.57-.285-.998-.285h-.143v-.713h.214c.5 0 .856 0 1.069.143.286.072.499.214.642.356.143.214.214.357.285.642v1.925c0 .855.071 1.354.071 1.569.071.214.142.428.214.57h-.927a1.419 1.419 0 0 1-.143-.643zm-1.427.713c-.143.071-.285.071-.499.071-.57 0-.999-.143-1.283-.428a1.452 1.452 0 0 1-.428-1.069c0-.214.071-.428.143-.642.143-.214.285-.428.499-.499.143-.143.356-.214.57-.286s.428-.143.785-.143l.213-.071v.784h-.071c-.357.071-.642.071-.785.143-.143.072-.214.214-.285.285-.143.143-.143.286-.143.428 0 .213.071.428.285.57.143.143.428.214.713.214h.285v.643h.001zm0-4.563c-.356 0-.642.071-.784.214-.214.143-.356.356-.428.784l-.855-.143c.071-.356.214-.642.356-.855.213-.285.428-.428.784-.571.285-.071.57-.143.927-.143v.714zM252.26 156.452c.356 0 .642-.071.785-.213.285-.143.427-.357.499-.642 0-.214.071-.57.071-1.141-.428.428-.855.642-1.354.642v-.712c.356 0 .713-.143.998-.428.286-.356.428-.784.428-1.497 0-.57-.143-1.069-.428-1.354-.285-.356-.642-.499-.998-.499v-.713c.57 0 .998.214 1.426.713v-.642h.784v4.491c0 .785-.072 1.355-.214 1.64-.213.356-.427.642-.784.855-.356.143-.784.214-1.212.286v-.786zm-2.139-.927l.855.143c0 .285.143.428.286.571.213.143.499.213.855.213h.143v.785h-.143c-.57 0-1.069-.143-1.426-.428-.427-.286-.57-.714-.57-1.284zm2.139-.428h-.071c-.713 0-1.283-.213-1.64-.712-.428-.499-.642-1.141-.642-1.854 0-.499.143-.927.285-1.355.214-.427.428-.712.784-.998.357-.213.713-.285 1.212-.285h.071v.713c-.428 0-.713.143-.998.428-.286.356-.428.784-.428 1.426 0 .713.143 1.141.428 1.497.213.286.57.428.998.428v.712zM255.753 149.037v-.999h.927v.999h-.927zm0 6.06v-5.133h.927v5.133h-.927zM257.964 155.097v-5.133h.784v.784c.428-.571.927-.856 1.64-.856.357 0 .642.072.856.143.285.143.499.286.57.428.143.213.214.428.285.642.071.143.071.428.071.855v3.137h-.856v-3.065c0-.356-.071-.642-.142-.856-.071-.142-.143-.285-.357-.356a.807.807 0 0 0-.57-.214c-.428 0-.713.143-.999.356-.285.285-.428.713-.428 1.354v2.78h-.854zM266.876 154.455c-.356.286-.642.5-.998.642-.143 0-.286.072-.428.072v-.642a.814.814 0 0 0 .571-.214c.285-.142.499-.356.642-.57.071-.214.143-.499.143-.856v-.356c-.357.143-.784.214-1.355.356v-.784c.571-.071.998-.143 1.355-.214v-.285c0-.286-.143-.57-.285-.713-.214-.214-.571-.285-.999-.285h-.071v-.713h.214c.428 0 .784 0 1.069.143.286.072.499.214.571.356.143.214.214.357.285.642.071.142.071.428.071.784v1.141c0 .855 0 1.354.071 1.569a.81.81 0 0 0 .214.57h-.927a1.419 1.419 0 0 1-.143-.643zm-1.426.713c-.143.071-.356.071-.499.071-.57 0-.999-.143-1.283-.428-.285-.285-.5-.642-.5-1.069 0-.214.072-.428.214-.642.071-.214.214-.428.427-.499.214-.143.428-.214.642-.286.143-.071.428-.143.785-.143l.213-.071v.784h-.071c-.356.071-.642.071-.784.143-.143.072-.285.214-.356.285-.071.143-.143.286-.143.428 0 .213.143.428.285.57.214.143.428.214.784.214h.285v.643h.001zm0-4.563c-.356 0-.642.071-.855.214-.143.143-.285.356-.428.784l-.856-.143c.143-.356.214-.642.428-.855.143-.285.428-.428.784-.571.285-.071.57-.143.927-.143v.714zM268.944 148.038h.927v7.059h-.927zM277.5 153.457l.855.143a2.407 2.407 0 0 1-.784 1.212c-.356.285-.855.428-1.497.428v-.713h.071c.286 0 .571-.072.785-.285.214-.143.427-.429.57-.785zm-1.426-3.565c.642 0 1.212.214 1.64.713.428.428.713 1.069.713 1.925 0 .072 0 .143-.071.214h-2.281v-.713h1.426c-.071-.428-.143-.713-.356-.927-.285-.356-.642-.499-1.069-.499v-.713zm0 5.348c-.784 0-1.355-.214-1.783-.713-.428-.428-.642-1.07-.642-1.925 0-.856.214-1.569.642-1.997.5-.499 1.069-.713 1.783-.713v.713c-.428 0-.713.143-.999.356-.285.285-.428.642-.499 1.069h1.498v.713h-1.498c0 .57.143.999.428 1.355.286.285.642.428 1.07.428v.714zM281.635 149.892h.072c.499 0 .855.072 1.212.285.285.286.57.571.713.998.214.428.285.856.285 1.355s-.071.998-.285 1.426c-.214.428-.428.713-.855.927-.357.213-.713.356-1.069.356h-.072v-.713c.357 0 .713-.143.999-.499.285-.357.428-.856.428-1.498s-.143-1.141-.428-1.497c-.285-.285-.571-.5-.999-.5v-.64zm-2.21 7.201v-7.129h.856v.712a1.69 1.69 0 0 1 .57-.642c.214-.071.5-.143.784-.143v.642c-.356 0-.713.214-.926.571-.357.285-.428.855-.428 1.498 0 .642.071 1.141.356 1.426.285.356.571.499.998.499v.713c-.285 0-.499-.071-.713-.214-.285-.071-.428-.214-.57-.428v2.496h-.927zM284.987 149.037v-.999h.855v.999h-.855zm0 6.06v-5.133h.855v5.133h-.855zM289.051 154.312l.143.784c-.214.072-.499.072-.642.072-.357 0-.571 0-.784-.143a.857.857 0 0 1-.357-.356c-.071-.214-.071-.499-.071-1.069v-2.924h-.642v-.712h.642v-1.212l.855-.571v1.783h.856v.712h-.856v2.995c0 .214 0 .428.072.5 0 .071.071.071.143.142.071.072.143.072.285.072.071-.001.213-.001.356-.073zM289.906 155.097v-7.059h.855v2.567c.428-.499.927-.713 1.569-.713.356 0 .713.072.998.214.285.142.499.356.57.642.143.214.214.642.214 1.141v3.208h-.855v-3.208a1.85 1.85 0 0 0-.285-.998 1.526 1.526 0 0 0-.856-.285 1.366 1.366 0 0 0-1.211.784 2.773 2.773 0 0 0-.143.927v2.78h-.856zM298.961 153.457l.855.143c-.143.499-.356.927-.784 1.212-.357.285-.856.428-1.426.428h-.072v-.713h.072c.285 0 .57-.072.784-.285.215-.143.428-.429.571-.785zm-1.426-3.565c.713 0 1.212.214 1.711.713.428.428.642 1.069.642 1.925v.214h-2.353v-.713h1.426c-.071-.428-.143-.713-.356-.927-.286-.356-.642-.499-1.07-.499v-.713zm0 5.348c-.712 0-1.283-.214-1.711-.713-.499-.428-.713-1.07-.713-1.925 0-.856.214-1.569.713-1.997.428-.499.999-.713 1.711-.713v.713c-.428 0-.712.143-.998.356a1.452 1.452 0 0 0-.428 1.069h1.426v.713h-1.498c0 .57.214.999.5 1.355.214.285.57.428.998.428v.714zM300.887 148.038h.926v7.059h-.926zM303.168 149.037v-.999h.856v.999h-.856zm0 6.06v-5.133h.856v5.133h-.856zM308.729 155.097v-.712c-.428.57-.999.855-1.64.855-.356 0-.642-.071-.855-.143-.285-.142-.499-.285-.57-.499-.143-.143-.214-.356-.285-.642-.071-.143-.071-.428-.071-.784v-3.208h.855v2.852c0 .499.071.785.071.927.071.213.143.428.356.57.143.143.356.143.642.143.286 0 .499 0 .713-.143a.954.954 0 0 0 .499-.57c.143-.214.143-.571.143-.999v-2.78h.855v5.133h-.713zM310.868 155.097v-5.133h.784v.712a1.69 1.69 0 0 1 .642-.57c.214-.143.57-.214.855-.214.428 0 .713.072.927.214.285.142.428.356.57.642.356-.571.927-.856 1.569-.856.499 0 .927.143 1.141.428.285.285.428.713.428 1.283v3.493h-.856v-3.208c0-.356 0-.571-.071-.784-.072-.143-.143-.214-.285-.356-.214-.072-.356-.143-.571-.143-.356 0-.642.143-.855.356-.285.285-.357.642-.357 1.212v2.923h-.927v-3.279c0-.428-.071-.713-.214-.927a.902.902 0 0 0-.642-.285c-.285 0-.499.071-.713.214-.214.143-.356.285-.428.57-.143.214-.143.57-.143 1.069v2.638h-.854z"/><path fill="none" stroke="#231F20" stroke-width=".5" stroke-miterlimit="10" d="M128.34 73.815h105.382M233.151 92.995h-63.172M233.151 116.096H142.6M232.581 139.055l-52.691.57"/><path fill="none" stroke="#231F20" stroke-width="1" stroke-miterlimit="10" d="M115.862 74.314l-17.325 7.344"/><defs><path id="a" d="M103.499 71.473l-1.19 95.873 83.268 73.183-14.357-100.775z"/></defs><clipPath id="b"><use xlink:href="#a" overflow="visible"/></clipPath><g clip-path="url(#b)" fill-rule="evenodd" clip-rule="evenodd"><path fill="#FFF" d="M105.803 71.418c26.596 26.696 52.824 53.757 79.869 80.003v3.966c-28.235-27.31-55.378-55.708-83.363-83.269v-.7h3.494z"/><path fill="#4D4D4D" d="M105.803 71.418h1.396c26.131 26.228 51.89 52.829 78.473 78.604v1.399c-27.045-26.246-53.274-53.306-79.869-80.003z"/><path fill="#FFF" d="M107.199 71.418h3.726a13564.214 13564.214 0 0 0 74.747 74.873v3.731c-26.583-25.775-52.341-52.376-78.473-78.604z"/><path fill="#4D4D4D" d="M110.925 71.418h1.397a13095.274 13095.274 0 0 0 73.349 73.473v1.4a13599.08 13599.08 0 0 1-74.746-74.873z"/><path fill="#FFF" d="M112.323 71.418h3.958a11720.017 11720.017 0 0 0 69.391 69.507v3.965a13027.998 13027.998 0 0 1-73.349-73.472z"/><path fill="#4D4D4D" d="M116.281 71.418h1.397c22.568 22.8 45.233 45.503 67.994 68.108v1.399a11600.425 11600.425 0 0 1-69.391-69.507z"/><path fill="#FFF" d="M117.678 71.418h3.958a9955.193 9955.193 0 0 0 64.036 64.143v3.965a11195.264 11195.264 0 0 1-67.994-68.108z"/><path fill="#4D4D4D" d="M121.636 71.418h1.397a9574.85 9574.85 0 0 0 62.639 62.744v1.399a9929.688 9929.688 0 0 1-64.036-64.143z"/><path fill="#FFF" d="M123.033 71.418h3.958a8338 8338 0 0 0 58.68 58.777v3.966a9549.93 9549.93 0 0 1-62.638-62.743z"/><path fill="#4D4D4D" d="M126.992 71.418h1.397a7945.765 7945.765 0 0 0 57.283 57.378v1.399a8316.694 8316.694 0 0 1-58.68-58.777z"/><path fill="#FFF" d="M128.389 71.418h3.959a6885.458 6885.458 0 0 0 53.324 53.413v3.965a7925.46 7925.46 0 0 1-57.283-57.378z"/><path fill="#4D4D4D" d="M132.348 71.418h1.164a6605.081 6605.081 0 0 0 52.16 52.247v1.166a6867.863 6867.863 0 0 1-53.324-53.413z"/><path fill="#FFF" d="M133.512 71.418h4.191a5600.693 5600.693 0 0 0 47.969 48.049v4.198a6571.324 6571.324 0 0 1-52.16-52.247z"/><path fill="#4D4D4D" d="M137.703 71.418h1.165a5318.255 5318.255 0 0 0 46.804 46.882v1.167a5586.308 5586.308 0 0 1-47.969-48.049z"/><path fill="#FFF" d="M138.868 71.418h3.958a4468.268 4468.268 0 0 0 42.846 42.917v3.965a5291.074 5291.074 0 0 1-46.804-46.882z"/><path fill="#4D4D4D" d="M142.826 71.418h1.397a4181.677 4181.677 0 0 0 41.449 41.518v1.399a4456.773 4456.773 0 0 1-42.846-42.917z"/><path fill="#FFF" d="M144.223 71.418h3.959a3412.248 3412.248 0 0 0 37.49 37.553v3.965a4181.677 4181.677 0 0 1-41.449-41.518z"/><path fill="#4D4D4D" d="M148.182 71.418h1.397a3170.774 3170.774 0 0 0 36.092 36.154v1.399a3403.43 3403.43 0 0 1-37.489-37.553z"/><path fill="#FFF" d="M149.58 71.418h3.726c10.805 10.713 21.523 21.513 32.367 32.188v3.966a3138.507 3138.507 0 0 1-36.093-36.154z"/><path fill="#4D4D4D" d="M153.305 71.418h1.397c10.353 10.234 20.583 20.589 30.969 30.789v1.399c-10.843-10.675-21.561-21.475-32.366-32.188z"/><path fill="#FFF" d="M154.703 71.418h3.958c9.072 8.873 17.92 17.971 27.012 26.824v3.965c-10.387-10.199-20.618-20.555-30.97-30.789z"/><path fill="#4D4D4D" d="M158.66 71.418h1.397c8.623 8.391 16.978 17.048 25.615 25.424v1.4c-9.092-8.853-17.94-17.95-27.012-26.824z"/><path fill="#FFF" d="M160.057 71.418h3.958c7.347 7.025 14.308 14.436 21.656 21.459v3.965c-8.636-8.375-16.991-17.033-25.614-25.424z"/><path fill="#4D4D4D" d="M164.016 71.418h1.397c6.889 6.551 13.371 13.509 20.259 20.059v1.4c-7.349-7.023-14.31-14.434-21.656-21.459z"/><path fill="#FFF" d="M165.413 71.418h4.191a626.773 626.773 0 0 0 16.067 16.094v3.964c-6.887-6.549-13.369-13.506-20.258-20.058z"/><path fill="#4D4D4D" d="M169.604 71.418h1.397a521.198 521.198 0 0 0 14.67 14.695v1.399a625.168 625.168 0 0 1-16.067-16.094z"/><path fill="#FFF" d="M171.002 71.418h3.958a278.628 278.628 0 0 0 10.712 10.73v3.965a519.866 519.866 0 0 1-14.67-14.695z"/><path fill="#4D4D4D" d="M174.96 71.418h1.165a221.329 221.329 0 0 0 9.547 9.563v1.167a277.204 277.204 0 0 1-10.712-10.73z"/><path fill="#FFF" d="M176.125 71.418h4.192a69.683 69.683 0 0 0 5.355 5.365v4.198a220.198 220.198 0 0 1-9.547-9.563z"/><path fill="#4D4D4D" d="M180.316 71.418h1.164a42.594 42.594 0 0 0 4.192 4.198v1.167a69.518 69.518 0 0 1-5.356-5.365zM102.309 72.119c27.984 27.561 55.127 55.959 83.363 83.269v1.399c-28.227-27.317-55.389-55.698-83.363-83.27v-1.398z"/><path fill="#FFF" d="M102.309 73.518c27.974 27.571 55.136 55.952 83.363 83.27v3.964c-28.2-27.343-55.42-55.666-83.363-83.268v-3.966z"/><path fill="#4D4D4D" d="M102.309 77.484c27.942 27.602 55.163 55.924 83.363 83.268v1.166c-28.192-27.351-55.431-55.655-83.363-83.269v-1.165z"/><path fill="#FFF" d="M102.309 78.649c27.932 27.614 55.17 55.918 83.363 83.269v4.198c-28.162-27.382-55.468-55.618-83.363-83.268v-4.199z"/><path fill="#4D4D4D" d="M102.309 82.848c27.895 27.65 55.201 55.886 83.363 83.268v1.167c-28.151-27.393-55.479-55.608-83.363-83.269v-1.166z"/><path fill="#FFF" d="M102.309 84.014c27.884 27.661 55.212 55.875 83.363 83.269v3.966c-28.118-27.426-55.515-55.571-83.363-83.269v-3.966z"/><path fill="#4D4D4D" d="M102.309 87.979c27.848 27.697 55.245 55.842 83.363 83.269v1.399c-28.106-27.438-55.528-55.558-83.363-83.268v-1.4z"/><path fill="#FFF" d="M102.309 89.379c27.834 27.71 55.257 55.83 83.363 83.268v3.965c-28.068-27.475-55.564-55.521-83.363-83.269v-3.964z"/><path fill="#4D4D4D" d="M102.309 93.343c27.798 27.748 55.294 55.794 83.363 83.269v1.399c-28.056-27.488-55.577-55.509-83.363-83.269v-1.399z"/><path fill="#FFF" d="M102.309 94.743c27.786 27.76 55.307 55.78 83.363 83.269v3.965c-28.02-27.524-55.614-55.472-83.363-83.268v-3.966z"/><path fill="#4D4D4D" d="M102.309 98.708c27.749 27.796 55.343 55.744 83.363 83.268v1.4c-28.006-27.538-55.626-55.46-83.363-83.269v-1.399z"/><path fill="#FFF" d="M102.309 100.108c27.736 27.809 55.356 55.731 83.363 83.269v3.964c-27.97-27.574-55.66-55.426-83.363-83.269v-3.964z"/><path fill="#4D4D4D" d="M102.309 104.073c27.703 27.842 55.393 55.695 83.363 83.269v1.399c-27.958-27.586-55.671-55.415-83.363-83.268v-1.4z"/><path fill="#FFF" d="M102.309 105.473c27.691 27.853 55.405 55.681 83.363 83.268v3.732c-28.131-27.335-55.417-55.512-83.363-83.036v-3.964z"/><path fill="#4D4D4D" d="M102.309 109.438c27.945 27.523 55.231 55.701 83.363 83.036v1.399c-28.127-27.34-55.421-55.509-83.363-83.036v-1.399z"/><path fill="#FFF" d="M102.309 110.837c27.942 27.527 55.236 55.695 83.363 83.036v3.965c-28.111-27.356-55.432-55.497-83.363-83.035v-3.966z"/><path fill="#4D4D4D" d="M102.309 114.803c27.931 27.538 55.251 55.679 83.363 83.035v1.4c-28.105-27.362-55.437-55.493-83.363-83.036v-1.399z"/><path fill="#FFF" d="M102.309 116.201c27.926 27.543 55.258 55.674 83.363 83.036v3.964c-28.084-27.382-55.45-55.479-83.363-83.035v-3.965z"/><path fill="#4D4D4D" d="M102.309 120.167c27.913 27.556 55.279 55.652 83.363 83.035v1.167c-28.079-27.388-55.453-55.477-83.363-83.035v-1.167z"/><path fill="#FFF" d="M102.309 121.333c27.91 27.559 55.284 55.647 83.363 83.035v4.198c-28.056-27.41-55.468-55.461-83.363-83.034v-4.199z"/><path fill="#4D4D4D" d="M102.309 125.532c27.895 27.573 55.307 55.624 83.363 83.034v1.167c-28.048-27.418-55.474-55.456-83.363-83.036v-1.165z"/><path fill="#FFF" d="M102.309 126.697c27.889 27.58 55.314 55.617 83.363 83.036v3.964c-28.026-27.439-55.487-55.441-83.363-83.034v-3.966z"/><path fill="#4D4D4D" d="M102.309 130.663c27.875 27.593 55.336 55.595 83.363 83.034v1.401c-28.019-27.449-55.492-55.438-83.363-83.035v-1.4z"/><path fill="#FFF" d="M102.309 132.063c27.871 27.597 55.344 55.586 83.363 83.035v3.964c-27.994-27.473-55.506-55.423-83.363-83.035v-3.964z"/><path fill="#4D4D4D" d="M102.309 136.028c27.856 27.612 55.369 55.562 83.363 83.035v1.4c-27.985-27.482-55.511-55.419-83.363-83.036v-1.399z"/><path fill="#FFF" d="M102.309 137.427c27.852 27.617 55.377 55.554 83.363 83.036v4.198c-27.73-27.813-55.562-55.524-83.363-83.268v-3.966z"/><path fill="#4D4D4D" d="M102.309 141.393c27.801 27.744 55.632 55.455 83.363 83.268v1.4c-27.724-27.821-55.565-55.522-83.363-83.269v-1.399z"/><path fill="#FFF" d="M102.309 142.792c27.798 27.747 55.639 55.448 83.363 83.269v3.964c-27.708-27.837-55.572-55.514-83.363-83.268v-3.965z"/><path fill="#4D4D4D" d="M102.309 146.757c27.791 27.753 55.655 55.431 83.363 83.268v1.4c-27.925-27.621-55.438-55.648-83.363-83.269v-1.399z"/><path fill="#FFF" d="M102.309 148.156c27.925 27.62 55.438 55.648 83.363 83.269v3.731c-28.151-27.393-55.306-55.781-83.363-83.268v-3.732z"/><path fill="#4D4D4D" d="M102.309 151.889c28.057 27.487 55.212 55.875 83.363 83.268v1.4c-28.153-27.391-55.307-55.78-83.363-83.268v-1.4z"/><path fill="#FFF" d="M102.309 153.288c28.056 27.488 55.21 55.877 83.363 83.268-.152 1.247.306 3.105-.233 3.965-27.847-27.619-55.193-55.737-83.129-83.269l-.001-3.964z"/><path fill="#4D4D4D" d="M102.309 157.253c27.937 27.531 55.283 55.649 83.129 83.269h-1.396c-27.384-27.149-54.261-54.809-81.733-81.869v-1.4z"/><path fill="#FFF" d="M102.309 158.652c27.472 27.061 54.349 54.72 81.733 81.869h-3.96c-26.069-25.823-51.612-52.171-77.773-77.905v-3.964z"/><path fill="#4D4D4D" d="M102.309 162.617c26.161 25.734 51.704 52.082 77.773 77.905h-1.163c-25.687-25.429-50.835-51.397-76.61-76.738v-1.167z"/><path fill="#FFF" d="M102.309 163.784c25.775 25.34 50.923 51.309 76.61 76.738h-4.191c-24.294-24.025-48.035-48.604-72.418-72.539l-.001-4.199z"/><path fill="#4D4D4D" d="M102.309 167.982c24.384 23.935 48.125 48.514 72.418 72.539h-1.164c-23.906-23.637-47.257-47.826-71.254-71.373v-1.166z"/><path fill="#FFF" d="M102.309 169.148c23.998 23.547 47.349 47.736 71.254 71.373h-3.959c-22.586-22.313-44.616-45.187-67.295-67.408v-3.965z"/><path fill="#4D4D4D" d="M102.309 173.113c22.68 22.221 44.709 45.095 67.295 67.408h-1.397c-22.119-21.85-43.685-44.253-65.898-66.008v-1.4z"/><path fill="#FFF" d="M102.309 174.513c22.213 21.755 43.779 44.159 65.898 66.008h-4.191c-20.478-20.773-40.933-41.565-61.707-62.043v-3.965z"/><path fill="#4D4D4D" d="M102.309 178.479c20.773 20.478 41.229 41.27 61.707 62.043h-1.396c-20.008-20.311-40.005-40.631-60.31-60.644l-.001-1.399z"/><path fill="#FFF" d="M102.309 179.877c20.305 20.013 40.302 40.333 60.31 60.644h-3.959c-18.678-18.999-37.37-37.984-56.351-56.679v-3.965z"/><path fill="#4D4D4D" d="M102.309 183.842c18.981 18.695 37.673 37.681 56.351 56.679h-1.397c-18.208-18.537-36.44-37.048-54.954-55.279v-1.4z"/><path fill="#FFF" d="M102.309 185.242c18.513 18.231 36.746 36.743 54.954 55.279h-3.958c-16.872-17.232-33.811-34.396-50.996-51.314v-3.965z"/><path fill="#4D4D4D" d="M102.309 189.208c17.186 16.917 34.125 34.082 50.996 51.314h-1.397c-16.4-16.771-32.882-33.46-49.599-49.915v-1.399z"/><path fill="#FFF" d="M102.309 190.606c16.717 16.455 33.199 33.144 49.599 49.915h-3.726c-15.286-15.4-30.512-30.859-45.873-46.183v-3.732z"/><path fill="#4D4D4D" d="M102.309 194.339c15.361 15.323 30.587 30.783 45.873 46.183h-1.397c-14.817-14.937-29.587-29.919-44.476-44.783v-1.4z"/><path fill="#FFF" d="M102.309 195.738c14.889 14.864 29.659 29.847 44.476 44.783h-3.959c-13.483-13.627-26.971-27.252-40.517-40.818v-3.965z"/><path fill="#4D4D4D" d="M102.309 199.704c13.545 13.565 27.033 27.19 40.517 40.818h-1.397a12426.865 12426.865 0 0 0-39.12-39.418v-1.4z"/><path fill="#FFF" d="M102.309 201.103a12642.156 12642.156 0 0 1 39.12 39.418h-3.958c-11.68-11.859-23.435-23.642-35.162-35.454v-3.964z"/><path fill="#4D4D4D" d="M102.309 205.068c11.727 11.812 23.482 23.594 35.162 35.454h-1.166c-11.283-11.478-22.671-22.852-33.997-34.288l.001-1.166z"/><path fill="#FFF" d="M102.309 206.234c11.326 11.436 22.714 22.81 33.997 34.288h-4.191c-9.861-10.104-19.916-20.014-29.806-30.088v-4.2z"/><path fill="#4D4D4D" d="M102.309 210.433c9.89 10.075 19.944 19.984 29.806 30.088h-1.164c-9.468-9.72-19.149-19.227-28.642-28.922v-1.166z"/><path fill="#FFF" d="M102.309 211.599c9.492 9.695 19.173 19.203 28.642 28.922h-3.959c-8.117-8.43-16.556-16.536-24.683-24.957v-3.965z"/><path fill="#4D4D4D" d="M102.309 215.564c8.126 8.421 16.566 16.527 24.683 24.957h-1.397c-7.641-7.975-15.639-15.589-23.286-23.558v-1.399z"/><path fill="#FFF" d="M102.309 216.964c7.646 7.969 15.645 15.583 23.286 23.558h-3.958a909.215 909.215 0 0 0-19.327-19.359l-.001-4.199z"/><path fill="#4D4D4D" d="M102.309 221.162a906.876 906.876 0 0 1 19.327 19.359h-1.397a780.53 780.53 0 0 0-17.93-17.96v-1.399z"/><path fill="#FFF" d="M102.309 222.562a780.53 780.53 0 0 1 17.93 17.96h-3.958a475.194 475.194 0 0 0-13.972-13.995v-3.965z"/><path fill="#4D4D4D" d="M102.309 226.526a475.194 475.194 0 0 1 13.972 13.995h-1.397a382.935 382.935 0 0 0-12.574-12.596l-.001-1.399z"/><path fill="#FFF" d="M102.309 227.926c4.289 4.101 8.48 8.3 12.574 12.596h-3.958a180.267 180.267 0 0 0-8.616-8.63v-3.966z"/><path fill="#4D4D4D" d="M102.309 231.891a180.731 180.731 0 0 1 8.616 8.63h-1.397a126.228 126.228 0 0 0-7.219-7.23v-1.4z"/><path fill="#FFF" d="M102.309 233.291a126.552 126.552 0 0 1 7.219 7.23h-3.725a29.531 29.531 0 0 0-3.494-3.499v-3.731z"/><path fill="#4D4D4D" d="M102.309 237.022a29.607 29.607 0 0 1 3.494 3.499h-1.397a10.775 10.775 0 0 0-2.096-2.1l-.001-1.399z"/><path fill="#FFF" d="M102.309 238.422a10.72 10.72 0 0 1 2.096 2.1h-2.096v-2.1zM181.48 71.418h4.192v4.198a42.486 42.486 0 0 1-4.192-4.198z"/></g><use xlink:href="#a" overflow="visible" fill="none" stroke="#231F20" stroke-width=".5" stroke-miterlimit="10"/><g><defs><path id="c" d="M103.499 71.473l82.078 169.056-14.357-100.775z"/></defs><clipPath id="d"><use xlink:href="#c" overflow="visible"/></clipPath><g clip-path="url(#d)" fill-rule="evenodd" clip-rule="evenodd"><path fill="#FFF" d="M106.293 71.418a18.909 18.909 0 0 1-2.794 2.799v-2.799h2.794z"/><path fill="#4D4D4D" d="M106.293 71.418h1.396a42.465 42.465 0 0 1-4.19 4.198v-1.399a18.91 18.91 0 0 0 2.794-2.799z"/><path fill="#FFF" d="M107.689 71.418h3.956a161.255 161.255 0 0 1-8.146 8.165v-3.966a42.476 42.476 0 0 0 4.19-4.199z"/><path fill="#4D4D4D" d="M111.646 71.418h1.397a220.692 220.692 0 0 1-9.544 9.563v-1.399a161.256 161.256 0 0 0 8.147-8.164z"/><path fill="#FFF" d="M113.043 71.418H117a445.035 445.035 0 0 1-13.501 13.529v-3.965a220.716 220.716 0 0 0 9.544-9.564z"/><path fill="#4D4D4D" d="M117 71.418h1.396a537.656 537.656 0 0 1-14.897 14.928v-1.399A442.75 442.75 0 0 0 117 71.418z"/><path fill="#FFF" d="M118.396 71.418h3.957a861.178 861.178 0 0 1-18.854 18.893v-3.965a534.914 534.914 0 0 0 14.897-14.928z"/><path fill="#4D4D4D" d="M122.353 71.418h1.396a996.025 996.025 0 0 1-20.25 20.293v-1.4a858.974 858.974 0 0 0 18.854-18.893z"/><path fill="#FFF" d="M123.75 71.418h3.956a1419.561 1419.561 0 0 1-24.207 24.257v-3.964a996.074 996.074 0 0 0 20.251-20.293z"/><path fill="#4D4D4D" d="M127.706 71.418h1.397a1600.515 1600.515 0 0 1-25.604 25.658v-1.4a1419.628 1419.628 0 0 0 24.207-24.258z"/><path fill="#FFF" d="M129.103 71.418h3.957a2127.903 2127.903 0 0 1-29.561 29.623v-3.965a1592.286 1592.286 0 0 0 25.604-25.658z"/><path fill="#4D4D4D" d="M133.06 71.418h1.397a2339.738 2339.738 0 0 1-30.958 31.022v-1.399a2122.439 2122.439 0 0 0 29.561-29.623z"/><path fill="#FFF" d="M134.457 71.418h3.957a2968.395 2968.395 0 0 1-34.915 34.987v-3.965a2333.715 2333.715 0 0 0 30.958-31.022z"/><path fill="#4D4D4D" d="M138.414 71.418h1.396a3194.053 3194.053 0 0 1-36.311 36.386v-1.399a2960.773 2960.773 0 0 0 34.915-34.987z"/><path fill="#FFF" d="M139.81 71.418h3.957a3928.178 3928.178 0 0 1-40.268 40.352v-3.966a3194.053 3194.053 0 0 0 36.311-36.386z"/><path fill="#4D4D4D" d="M143.767 71.418h1.164a4158.412 4158.412 0 0 1-41.431 41.518v-1.166a3938.189 3938.189 0 0 0 40.267-40.352z"/><path fill="#FFF" d="M144.93 71.418h3.957c-15.013 15.278-30.101 30.479-45.388 45.483v-3.965a4158.412 4158.412 0 0 0 41.431-41.518z"/><path fill="#4D4D4D" d="M148.887 71.418h1.397a5316.104 5316.104 0 0 1-46.785 46.882v-1.399c15.288-15.004 30.376-30.205 45.388-45.483z"/><path fill="#FFF" d="M150.284 71.418h3.957a6253.443 6253.443 0 0 1-50.742 50.848V118.3a5288.94 5288.94 0 0 0 46.785-46.882z"/><path fill="#4D4D4D" d="M154.241 71.418h1.396a6568.5 6568.5 0 0 1-52.138 52.247v-1.399a6237.425 6237.425 0 0 0 50.742-50.848z"/><path fill="#FFF" d="M155.637 71.418h3.958a7682.04 7682.04 0 0 1-56.095 56.213v-3.966a6568.444 6568.444 0 0 0 52.137-52.247z"/><path fill="#4D4D4D" d="M159.594 71.418h1.396a8007.209 8007.209 0 0 1-57.492 57.612v-1.399a7623.064 7623.064 0 0 0 56.096-56.213z"/><path fill="#FFF" d="M160.991 71.418h3.724c-20.043 20.811-40.646 41.061-61.216 61.343v-3.731a7986.794 7986.794 0 0 0 57.492-57.612z"/><path fill="#4D4D4D" d="M164.715 71.418h1.396c-20.511 21.274-41.58 41.992-62.612 62.744v-1.4c20.569-20.283 41.172-40.533 61.216-61.344z"/><path fill="#FFF" d="M166.111 71.418h3.957c-21.838 22.588-44.221 44.629-66.569 66.708v-3.965c21.032-20.751 42.102-41.468 62.612-62.743z"/><path fill="#4D4D4D" d="M170.068 71.418h1.396c-22.308 23.051-45.155 45.562-67.966 68.108v-1.399c22.349-22.079 44.732-44.12 66.57-66.709z"/><path fill="#FFF" d="M171.465 71.418h3.957c-23.635 24.364-47.792 48.204-71.922 72.074v-3.966c22.81-22.546 45.657-45.056 67.965-68.108z"/><path fill="#4D4D4D" d="M175.421 71.418h1.397c-24.105 24.827-48.723 49.136-73.319 73.473v-1.399c24.13-23.869 48.287-47.71 71.922-72.074z"/><path fill="#FFF" d="M176.818 71.418h3.957c-25.435 26.138-51.364 51.778-77.276 77.438v-3.965c24.596-24.337 49.214-48.645 73.319-73.473z"/><path fill="#4D4D4D" d="M180.775 71.418h1.396c-25.903 26.6-52.295 52.712-78.672 78.837v-1.399c25.913-25.659 51.841-51.3 77.276-77.438z"/><path fill="#FFF" d="M182.171 71.418h3.492v.7c-27.302 27.452-54.59 54.922-82.164 82.102v-3.965c26.377-26.125 52.769-52.237 78.672-78.837z"/><path fill="#4D4D4D" d="M185.663 72.119v1.167c-27.293 27.46-54.602 54.911-82.164 82.103v-1.167c27.574-27.181 54.862-54.652 82.164-82.103z"/><path fill="#FFF" d="M185.663 73.285v3.965c-27.222 27.533-54.598 54.916-82.164 82.102v-3.964c27.563-27.192 54.871-54.642 82.164-82.103z"/><path fill="#4D4D4D" d="M185.663 77.25v1.399a12022.95 12022.95 0 0 1-82.164 82.103v-1.399c27.566-27.187 54.942-54.57 82.164-82.103z"/><path fill="#FFF" d="M185.663 78.649v3.965c-27.224 27.53-54.683 54.831-82.164 82.103v-3.965a12022.95 12022.95 0 0 0 82.164-82.103z"/><path fill="#4D4D4D" d="M185.663 82.614v1.399c-27.216 27.539-54.695 54.819-82.164 82.102v-1.399c27.481-27.271 54.94-54.572 82.164-82.102z"/><path fill="#FFF" d="M185.663 84.014v3.966c-27.194 27.561-54.724 54.789-82.164 82.103v-3.966c27.469-27.284 54.948-54.565 82.164-82.103z"/><path fill="#4D4D4D" d="M185.663 87.979v1.399c-27.188 27.566-54.732 54.78-82.164 82.102v-1.399c27.44-27.312 54.97-54.541 82.164-82.102z"/><path fill="#FFF" d="M185.663 89.379v3.964c-27.522 27.231-54.641 54.873-82.164 82.103v-3.965c27.432-27.322 54.977-54.536 82.164-82.102z"/><path fill="#4D4D4D" d="M185.663 93.343v1.4c-27.522 27.23-54.641 54.873-82.164 82.103v-1.4c27.523-27.23 54.642-54.872 82.164-82.103z"/><path fill="#FFF" d="M185.663 94.743v3.965c-27.522 27.231-54.641 54.872-82.164 82.102v-3.965c27.523-27.229 54.642-54.871 82.164-82.102z"/><path fill="#4D4D4D" d="M185.663 98.708v1.399c-27.522 27.23-54.641 54.873-82.164 82.102v-1.399c27.523-27.229 54.642-54.871 82.164-82.102z"/><path fill="#FFF" d="M185.663 100.108v3.965c-27.522 27.231-54.641 54.872-82.164 82.103v-3.965c27.523-27.231 54.642-54.873 82.164-82.103z"/><path fill="#4D4D4D" d="M185.663 104.073v1.4c-27.522 27.23-54.641 54.871-82.164 82.102v-1.4c27.523-27.23 54.642-54.871 82.164-82.102z"/><path fill="#FFF" d="M185.663 105.473v3.964c-27.522 27.231-54.641 54.872-82.164 82.103v-3.965c27.523-27.231 54.642-54.871 82.164-82.102z"/><path fill="#4D4D4D" d="M185.663 109.438v1.399c-27.522 27.231-54.641 54.872-82.164 82.103v-1.399c27.523-27.231 54.642-54.873 82.164-82.103z"/><path fill="#FFF" d="M185.663 110.837v3.966c-27.522 27.23-54.641 54.872-82.164 82.102v-3.965c27.523-27.231 54.642-54.872 82.164-82.103z"/><path fill="#4D4D4D" d="M185.663 114.803v1.166c-27.522 27.231-54.641 54.872-82.164 82.103v-1.167c27.523-27.23 54.642-54.872 82.164-82.102z"/><path fill="#FFF" d="M185.663 115.969v3.965c-27.482 27.271-54.602 54.911-82.164 82.102v-3.964c27.523-27.231 54.642-54.872 82.164-82.103z"/><path fill="#4D4D4D" d="M185.663 119.934v1.4c-27.522 27.23-54.641 54.872-82.164 82.103v-1.4c27.562-27.192 54.682-54.832 82.164-82.103z"/><path fill="#FFF" d="M185.663 121.333v3.965c-27.522 27.23-54.641 54.872-82.164 82.101v-3.964c27.523-27.23 54.642-54.872 82.164-82.102z"/><path fill="#4D4D4D" d="M185.663 125.299v1.398c-27.522 27.231-54.641 54.873-82.164 82.103v-1.4c27.523-27.23 54.642-54.871 82.164-82.101z"/><path fill="#FFF" d="M185.663 126.697v3.966c-27.522 27.23-54.641 54.873-82.164 82.102V208.8c27.523-27.23 54.642-54.872 82.164-82.103z"/><path fill="#4D4D4D" d="M185.663 130.663v1.4c-27.522 27.23-54.641 54.871-82.164 82.102v-1.399c27.523-27.23 54.642-54.872 82.164-82.103z"/><path fill="#FFF" d="M185.663 132.063v3.731c-27.5 27.254-54.395 55.119-82.164 82.103v-3.732c27.523-27.231 54.642-54.872 82.164-82.102z"/><path fill="#4D4D4D" d="M185.663 135.794v1.399c-27.487 27.266-54.407 55.108-82.164 82.104v-1.4c27.769-26.984 54.664-54.849 82.164-82.103z"/><path fill="#FFF" d="M185.663 137.193v3.966c-27.451 27.302-54.441 55.072-82.164 82.102v-3.964c27.757-26.996 54.677-54.838 82.164-82.104z"/><path fill="#4D4D4D" d="M185.663 141.159v1.399c-27.438 27.315-54.453 55.06-82.164 82.102v-1.399c27.723-27.03 54.713-54.8 82.164-82.102z"/><path fill="#FFF" d="M185.663 142.559v3.965c-27.4 27.354-54.489 55.024-82.164 82.102v-3.965c27.711-27.043 54.727-54.787 82.164-82.102z"/><path fill="#4D4D4D" d="M185.663 146.524v1.399c-27.386 27.367-54.503 55.011-82.164 82.102v-1.399c27.675-27.078 54.764-54.748 82.164-82.102z"/><path fill="#FFF" d="M185.663 147.923v3.965c-27.35 27.403-54.541 54.972-82.164 82.102v-3.965c27.661-27.09 54.778-54.735 82.164-82.102z"/><path fill="#4D4D4D" d="M185.663 151.889v1.399c-27.338 27.416-54.554 54.958-82.164 82.102v-1.4c27.624-27.129 54.814-54.698 82.164-82.101z"/><path fill="#FFF" d="M185.663 153.288v3.965c-27.302 27.452-54.59 54.922-82.164 82.103v-3.965c27.61-27.144 54.826-54.687 82.164-82.103z"/><path fill="#4D4D4D" d="M185.663 157.253v1.166c-27.177 27.5-54.678 54.679-81.931 82.103-.505.039-.105-.827-.233-1.166 27.574-27.181 54.862-54.651 82.164-82.103z"/><path fill="#FFF" d="M185.663 158.419v3.966c-25.805 26.233-52.004 52.067-77.974 78.137h-3.958c27.254-27.424 54.755-54.603 81.932-82.103z"/><path fill="#4D4D4D" d="M185.663 162.385v1.399c-25.378 25.727-51.108 51.102-76.578 76.738h-1.396c25.97-26.07 52.169-51.904 77.974-78.137z"/><path fill="#FFF" d="M185.663 163.784v3.965c-24.05 24.415-48.47 48.457-72.62 72.772h-3.958c25.47-25.635 51.2-51.011 76.578-76.737z"/><path fill="#4D4D4D" d="M185.663 167.749v1.399c-23.581 23.952-47.539 47.524-71.224 71.373h-1.396c24.15-24.315 48.57-48.357 72.62-72.772z"/><path fill="#FFF" d="M185.663 169.148v3.965c-22.251 22.642-44.9 44.884-67.267 67.408h-3.958c23.687-23.848 47.644-47.42 71.225-71.373z"/><path fill="#4D4D4D" d="M185.663 173.113v1.4c-21.783 22.178-43.967 43.951-65.871 66.008h-1.396c22.367-22.523 45.016-44.766 67.267-67.408z"/><path fill="#FFF" d="M185.663 174.513v3.965a9334.203 9334.203 0 0 0-61.914 62.043h-3.958c21.905-22.057 44.089-43.83 65.872-66.008z"/><path fill="#4D4D4D" d="M185.663 178.479v1.399a8940.934 8940.934 0 0 0-60.517 60.644h-1.396a9262.461 9262.461 0 0 1 61.913-62.043z"/><path fill="#FFF" d="M185.663 179.877v3.965a7789.824 7789.824 0 0 0-56.56 56.679h-3.957a8940.934 8940.934 0 0 1 60.517-60.644z"/><path fill="#4D4D4D" d="M185.663 183.842v1.4a7467.655 7467.655 0 0 0-55.164 55.279h-1.396a7830.143 7830.143 0 0 1 56.56-56.679z"/><path fill="#FFF" d="M185.663 185.242v3.965a6352.148 6352.148 0 0 0-51.206 51.314h-3.958a7467.655 7467.655 0 0 1 55.164-55.279z"/><path fill="#4D4D4D" d="M185.663 189.208v1.399a6057.09 6057.09 0 0 0-49.81 49.915h-1.396a6368.494 6368.494 0 0 1 51.206-51.314z"/><path fill="#FFF" d="M185.663 190.606v3.966a5132.906 5132.906 0 0 0-45.853 45.949h-3.957a6057.09 6057.09 0 0 1 49.81-49.915z"/><path fill="#4D4D4D" d="M185.663 194.572v1.399a4800.307 4800.307 0 0 0-44.457 44.55h-1.396a5146.19 5146.19 0 0 1 45.853-45.949z"/><path fill="#FFF" d="M185.663 195.972v3.965a3994.027 3994.027 0 0 0-40.5 40.584h-3.956a4812.45 4812.45 0 0 1 44.456-44.549z"/><path fill="#4D4D4D" d="M185.663 199.937v1.166a3758.09 3758.09 0 0 0-39.336 39.418h-1.165a4004.456 4004.456 0 0 1 40.501-40.584z"/><path fill="#FFF" d="M185.663 201.103v3.965c-11.837 11.774-23.653 23.569-35.379 35.454h-3.957a3758.186 3758.186 0 0 1 39.336-39.419z"/><path fill="#4D4D4D" d="M185.663 205.068v1.4a2812.117 2812.117 0 0 0-33.983 34.054h-1.396c11.726-11.885 23.542-23.68 35.379-35.454z"/><path fill="#FFF" d="M185.663 206.468v3.965a2200.98 2200.98 0 0 0-30.026 30.088h-3.957a2819.292 2819.292 0 0 1 33.983-34.053z"/><path fill="#4D4D4D" d="M185.663 210.433v1.398a2001.063 2001.063 0 0 0-28.629 28.69h-1.397a2200.98 2200.98 0 0 1 30.026-30.088z"/><path fill="#FFF" d="M185.663 211.832v3.966a1486.126 1486.126 0 0 0-24.672 24.724h-3.957a1990.786 1990.786 0 0 1 28.629-28.69z"/><path fill="#4D4D4D" d="M185.663 215.797v1.4a1319.176 1319.176 0 0 0-23.275 23.324h-1.397a1489.972 1489.972 0 0 1 24.672-24.724z"/><path fill="#FFF" d="M185.663 217.197v3.731a930.914 930.914 0 0 0-19.552 19.593h-3.723a1319.176 1319.176 0 0 1 23.275-23.324z"/><path fill="#4D4D4D" d="M185.663 220.929v1.399a802.641 802.641 0 0 0-18.155 18.193h-1.396a928.423 928.423 0 0 1 19.551-19.592z"/><path fill="#FFF" d="M185.663 222.328v3.965a490.954 490.954 0 0 0-14.198 14.229h-3.957a800.625 800.625 0 0 1 18.155-18.194z"/><path fill="#4D4D4D" d="M185.663 226.293v1.4a399.073 399.073 0 0 0-12.801 12.828h-1.397a492.186 492.186 0 0 1 14.198-14.228z"/><path fill="#FFF" d="M185.663 227.693v3.965a191.034 191.034 0 0 0-8.845 8.863h-3.956a399.073 399.073 0 0 1 12.801-12.828z"/><path fill="#4D4D4D" d="M185.663 231.658v1.398a135.155 135.155 0 0 0-7.448 7.465h-1.397c2.852-3.051 5.8-6.006 8.845-8.863z"/><path fill="#FFF" d="M185.663 233.057v3.966a29.666 29.666 0 0 0-3.492 3.499h-3.956a135.155 135.155 0 0 1 7.448-7.465z"/><path fill="#4D4D4D" d="M185.663 237.022v1.399a10.66 10.66 0 0 0-2.095 2.1h-1.397a29.742 29.742 0 0 1 3.492-3.499z"/><path fill="#FFF" d="M185.663 238.422v2.1h-2.095c.6-.798 1.299-1.498 2.095-2.1z"/></g><use xlink:href="#c" overflow="visible" fill="none" stroke="#231F20" stroke-width=".5" stroke-miterlimit="10"/></g></svg>