<svg version="1.1" xmlns="http://www.w3.org/2000/svg" xmlns:xlink="http://www.w3.org/1999/xlink" x="0" y="0" width="326.656" height="260.852" viewBox="0 0 326.656 260.852" xml:space="preserve"><path fill="none" stroke="#000" stroke-width="1.502" stroke-miterlimit="10" stroke-dasharray="7.5118,4.5071,1.5024,4.5071" d="M75.138.392l-.528 6.425-.152 4.763-.076 4.687.076 4.687.152 4.687.377 4.612.53 4.537.682 4.46.756 4.384.906 4.31 1.135 4.309 1.208 4.083 1.361 4.082 1.511 3.932 1.664 3.854 1.816 3.705 1.89 3.554 2.042 3.477 2.266 3.327 2.343 3.175 2.495 3.099 2.646 2.873 2.72 2.797 2.95 2.646 3.099 2.496 3.327 2.418 3.403 2.193 3.628 2.041 3.856 1.966 4.007 1.739 4.233 1.512 3.403 1.058 3.325.453 4.083.228h3.856l3.628-.378 3.403-.529 3.174-.832 3.024-1.059 2.949-1.285 2.799-1.512 2.646-1.739 2.569-1.965 2.572-2.269 2.417-2.494 2.419-2.797 2.193-3.1 2.194-3.327 2.192-3.628 1.966-3.932 1.965-4.233 1.813-4.536 1.664-4.687 1.513-5.066 1.359-5.216 1.288-5.519 1.056-5.67.984-5.973.755-6.123.605-6.275.453-6.502.304-6.653.149-6.804-.075-8.466"/><path fill="none" stroke="#000" stroke-width="2" stroke-miterlimit="10" d="M55.105.089c-5.142 57.607 16.857 116.35 75.675 132.98 60.783 10.057 90.948-50.878 89.285-131.619"/><path fill="none" stroke="#000" stroke-width="1.502" stroke-miterlimit="10" d="M134.032 59.889c-.907-3.932-6.274-4.764-15.802-1.663-6.047 1.966-12.021 2.419-17.992 0-8.164-3.326-12.398-9.903-12.7-19.202-.453-11.945-4.762-18.295-11.417-20.942-12.323-4.839-26.761 1.966-43.848 16.858C21.159 44.693 9.971 44.693.672 25.943"/><g stroke="#000" stroke-miterlimit="10"><path fill="none" stroke-width=".5" d="M140.029 232.124v28.727M144.943 232.956l-9.828 26.988M149.328 235.45l-18.522 22.001M152.503 239.305L127.63 253.67M154.242 243.992l-28.35 4.991M154.242 248.983l-28.35-4.991M152.503 253.67l-24.873-14.365M149.328 257.451l-18.522-22.001M144.943 259.944l-9.828-26.988"/><path fill="#FFF" stroke-width="1" d="M140.029 249.967a3.468 3.468 0 0 0 3.478-3.479 3.468 3.468 0 0 0-3.478-3.479c-1.891 0-3.402 1.587-3.402 3.479-.001 1.891 1.511 3.479 3.402 3.479z"/></g><path stroke="#000" stroke-width=".045" stroke-linecap="round" stroke-linejoin="round" stroke-miterlimit="10" d="M158.841 253.499l7.115 4.903c-1.123-3.194-1.248-6.157-.062-9.466l-7.053 4.563zM139.227 144.836l12.885 4.904c-2.053-3.307-2.165-6.271 0-9.578l-12.885 4.674z"/><path fill="none" stroke="#000" stroke-width=".5" stroke-miterlimit="10" d="M165.207 253.612h69.274M189.662 20.286h44.877M200.875 80.602h33.664M173.25 136.929h64.456"/><defs><path id="a" d="M133.503 134.279L145.75 26.096l10.734 105.841 42.186 85.202z"/></defs><clipPath id="b"><use xlink:href="#a" overflow="visible"/></clipPath><g clip-path="url(#b)"><path fill="#FFF" d="M134.18 26.077a9391.058 9391.058 0 0 0 64.494 64.711v4.28c-21.993-21.577-43.214-43.93-65.248-65.467.338-1.086-.77-3.626.754-3.524z"/><path d="M134.18 26.077h1.505a9022.386 9022.386 0 0 0 62.989 63.2v1.511a9391.058 9391.058 0 0 1-64.494-64.711z"/><path fill="#FFF" d="M135.685 26.077h4.268a7766.907 7766.907 0 0 0 58.723 58.92v4.28a8979.429 8979.429 0 0 1-62.991-63.2z"/><path d="M139.953 26.077h1.504a7373.892 7373.892 0 0 0 57.219 57.408v1.512a7748.428 7748.428 0 0 1-58.723-58.92z"/><path fill="#FFF" d="M141.457 26.077h4.269a6330.008 6330.008 0 0 0 52.95 53.128v4.28a7356.348 7356.348 0 0 1-57.219-57.408z"/><path d="M145.724 26.077h1.505a5932.774 5932.774 0 0 0 51.445 51.617v1.511a6315.013 6315.013 0 0 1-52.95-53.128z"/><path fill="#FFF" d="M147.229 26.077h4.267a5025.484 5025.484 0 0 0 47.18 47.337v4.28a5932.956 5932.956 0 0 1-51.447-51.617z"/><path d="M151.496 26.077h1.506a4709.742 4709.742 0 0 0 45.674 45.826v1.511a5001.571 5001.571 0 0 1-47.18-47.337z"/><path fill="#FFF" d="M153.001 26.077h4.268a3861.65 3861.65 0 0 0 41.406 41.546v4.28a4709.742 4709.742 0 0 1-45.674-45.826z"/><path d="M157.268 26.077h1.255a3622.493 3622.493 0 0 0 40.151 40.287v1.259a3870.88 3870.88 0 0 1-41.406-41.546z"/><path fill="#FFF" d="M158.523 26.077h4.518a2853.393 2853.393 0 0 0 35.635 35.755v4.532a3614.074 3614.074 0 0 1-40.153-40.287z"/><path d="M163.041 26.077h1.254a2643.455 2643.455 0 0 0 34.381 34.495v1.26a2839.925 2839.925 0 0 1-35.635-35.755z"/><path fill="#FFF" d="M164.294 26.077h4.267a2057.305 2057.305 0 0 0 30.114 30.215v4.28a2662.347 2662.347 0 0 1-34.381-34.495z"/><path d="M168.56 26.077h1.506a1852.238 1852.238 0 0 0 28.608 28.704v1.511a2057.305 2057.305 0 0 1-30.114-30.215z"/><path fill="#FFF" d="M170.066 26.077h4.266a1337.954 1337.954 0 0 0 24.344 24.424v4.28a1843.532 1843.532 0 0 1-28.61-28.704z"/><path d="M174.332 26.077h1.506a1180.35 1180.35 0 0 0 22.838 22.913v1.511a1334.763 1334.763 0 0 1-24.344-24.424z"/><path fill="#FFF" d="M175.837 26.077h4.017c6.133 6.354 12.307 12.664 18.821 18.633v4.28a1180.35 1180.35 0 0 1-22.838-22.913z"/><path d="M179.853 26.077h1.506c5.647 5.831 11.274 11.684 17.315 17.122v1.511c-6.514-5.969-12.688-12.28-18.821-18.633z"/><path fill="#FFF" d="M181.359 26.077h4.266c4.285 4.346 8.351 8.914 13.051 12.842v4.28c-6.042-5.439-11.669-11.291-17.317-17.122z"/><path d="M185.625 26.077h1.507a301.653 301.653 0 0 0 11.544 11.583v1.259c-4.702-3.928-8.766-8.496-13.051-12.842z"/><path fill="#FFF" d="M187.131 26.077h4.267a119.637 119.637 0 0 0 7.277 7.303v4.28a301.653 301.653 0 0 1-11.544-11.583z"/><path d="M191.397 26.077h1.507a74.898 74.898 0 0 0 5.771 5.791v1.512a119.654 119.654 0 0 1-7.278-7.303z"/><path fill="#FFF" d="M192.904 26.077h4.266c.396.61.898 1.113 1.506 1.511v4.28a74.734 74.734 0 0 1-5.772-5.791z"/><path d="M197.169 26.077h1.506v1.511a5.116 5.116 0 0 1-1.506-1.511zM133.427 29.602c22.033 21.537 43.254 43.89 65.247 65.467v1.511c-22.002-21.57-43.214-43.93-65.247-65.466v-1.512z"/><path fill="#FFF" d="M133.427 31.113c22.033 21.536 43.245 43.896 65.247 65.466v4.28c-22.018-21.554-43.219-43.925-65.247-65.466v-4.28z"/><path d="M133.427 35.394c22.028 21.541 43.229 43.912 65.247 65.466v1.511c-22.021-21.549-43.222-43.921-65.247-65.466v-1.511z"/><path fill="#FFF" d="M133.427 36.904c22.025 21.545 43.227 43.917 65.247 65.466v4.28c-22.028-21.541-43.231-43.91-65.247-65.466v-4.28z"/><path d="M133.427 41.185c22.016 21.556 43.219 43.925 65.247 65.466v1.259c-22.032-21.538-43.235-43.905-65.247-65.466v-1.259z"/><path fill="#FFF" d="M133.427 42.443c22.012 21.561 43.215 43.928 65.247 65.466v4.533c-22.035-21.536-43.256-43.888-65.247-65.467v-4.532z"/><path d="M133.427 46.976c21.991 21.579 43.212 43.931 65.247 65.467v1.259c-22.035-21.536-43.262-43.882-65.247-65.467v-1.259z"/><path fill="#FFF" d="M133.427 48.234c21.985 21.585 43.212 43.931 65.247 65.467v4.28c-22.032-21.539-43.284-43.858-65.247-65.466v-4.281z"/><path d="M133.427 52.516c21.963 21.606 43.215 43.927 65.247 65.466v1.511c-22.028-21.541-43.294-43.849-65.247-65.466v-1.511z"/><path fill="#FFF" d="M133.427 54.026c21.953 21.617 43.219 43.925 65.247 65.466v4.279c-22.021-21.549-43.319-43.821-65.247-65.465v-4.28z"/><path d="M133.427 58.307c21.928 21.644 43.227 43.916 65.247 65.465v1.511c-22.018-21.553-43.33-43.812-65.247-65.465v-1.511z"/><path fill="#FFF" d="M133.427 59.817c21.917 21.652 43.229 43.912 65.247 65.465v4.281c-22.004-21.568-43.362-43.778-65.247-65.466v-4.28z"/><path d="M133.427 64.098c21.885 21.688 43.243 43.896 65.247 65.466v1.259c-22.247-21.237-43.334-43.641-65.247-65.214v-1.511z"/><path fill="#FFF" d="M133.427 65.608c21.913 21.573 43 43.977 65.247 65.214v4.281c-22.225-21.264-43.37-43.604-65.247-65.215v-4.28z"/><path d="M133.427 69.889c21.877 21.609 43.022 43.951 65.247 65.215v1.51c-22.213-21.273-43.387-43.588-65.247-65.214v-1.511z"/><path fill="#FFF" d="M133.427 71.399c21.86 21.626 43.034 43.939 65.247 65.214v4.281c-21.896-21.592-43.354-43.623-65.247-65.215v-4.28z"/><path d="M133.427 75.68c21.895 21.592 43.352 43.624 65.247 65.215v1.511c-21.896-21.591-43.354-43.624-65.247-65.214V75.68z"/><path fill="#FFF" d="M133.427 77.191c21.895 21.59 43.352 43.623 65.247 65.214v4.281c-21.896-21.594-43.354-43.624-65.247-65.217v-4.278z"/><path d="M133.427 81.471c21.895 21.592 43.352 43.622 65.247 65.216v1.509c-21.896-21.59-43.354-43.622-65.247-65.213v-1.512z"/><path fill="#FFF" d="M133.427 82.982c21.895 21.591 43.352 43.623 65.247 65.213v4.281c-21.896-21.592-43.354-43.623-65.247-65.214v-4.28z"/><path d="M133.427 87.263c21.895 21.591 43.352 43.622 65.247 65.214v1.259c-21.896-21.591-43.354-43.623-65.247-65.214v-1.259z"/><path fill="#FFF" d="M133.427 88.521c21.895 21.591 43.352 43.623 65.247 65.214v4.532c-21.896-21.592-43.354-43.622-65.247-65.215v-4.531z"/><path d="M133.427 93.054c21.895 21.592 43.352 43.622 65.247 65.214v1.259c-21.896-21.591-43.354-43.622-65.247-65.214v-1.259z"/><path fill="#FFF" d="M133.427 94.312c21.895 21.592 43.352 43.623 65.247 65.214v4.28c-21.896-21.591-43.354-43.623-65.247-65.215v-4.279z"/><path d="M133.427 98.593c21.895 21.592 43.352 43.624 65.247 65.215v1.512c-21.896-21.591-43.354-43.624-65.247-65.215v-1.512z"/><path fill="#FFF" d="M133.427 100.104c21.895 21.591 43.352 43.624 65.247 65.215v4.28c-21.896-21.593-43.354-43.623-65.247-65.216v-4.279z"/><path d="M133.427 104.384c21.895 21.593 43.352 43.623 65.247 65.216v1.51c-21.896-21.591-43.354-43.622-65.247-65.213v-1.513z"/><path fill="#FFF" d="M133.427 105.896c21.895 21.591 43.352 43.622 65.247 65.213v4.281c-21.896-21.592-43.354-43.624-65.247-65.215v-4.279z"/><path d="M133.427 110.176c21.895 21.591 43.352 43.623 65.247 65.215v1.259c-22.146-21.255-43.311-43.497-65.247-64.962v-1.512z"/><path fill="#FFF" d="M133.427 111.687c21.938 21.465 43.101 43.707 65.247 64.962v4.281c-22.14-21.264-43.316-43.492-65.247-64.963v-4.28z"/><path d="M133.427 115.968c21.931 21.471 43.107 43.699 65.247 64.963v1.762c-21.896-21.591-43.354-43.622-65.247-65.215v-1.51z"/><path fill="#FFF" d="M133.427 117.477c21.895 21.593 43.352 43.624 65.247 65.215v4.28c-21.676-21.896-43.37-43.771-65.247-65.467v-4.028z"/><path d="M133.427 121.506c21.877 21.695 43.571 43.569 65.247 65.467v1.512c-21.684-21.891-43.366-43.777-65.247-65.467v-1.512z"/><path fill="#FFF" d="M133.427 123.017c21.881 21.688 43.563 43.576 65.247 65.467v4.279c-21.711-21.859-43.347-43.796-65.247-65.466v-4.28z"/><path d="M133.427 127.298c21.9 21.67 43.536 43.605 65.247 65.466v1.511c-21.723-21.85-43.34-43.801-65.247-65.466v-1.511z"/><path fill="#FFF" d="M133.427 128.808c21.907 21.665 43.524 43.616 65.247 65.466v4.281c-21.752-21.821-43.319-43.821-65.247-65.468v-4.279z"/><path d="M133.427 133.088c21.928 21.646 43.495 43.646 65.247 65.468v1.259c-21.764-21.81-43.312-43.829-65.247-65.466v-1.261z"/><path fill="#FFF" d="M133.427 134.348c21.936 21.637 43.483 43.656 65.247 65.466v4.531c-21.799-21.771-43.291-43.852-65.247-65.465v-4.532z"/><path d="M133.427 138.881c21.956 21.613 43.448 43.692 65.247 65.465v1.26c-21.809-21.766-43.286-43.856-65.247-65.465v-1.26z"/><path fill="#FFF" d="M133.427 140.14c21.961 21.607 43.438 43.699 65.247 65.465v4.279c-21.844-21.727-43.266-43.877-65.247-65.466v-4.278z"/><path d="M133.427 144.419c21.981 21.589 43.403 43.739 65.247 65.466v1.513c-21.855-21.716-43.259-43.884-65.247-65.467v-1.512z"/><path fill="#FFF" d="M133.427 145.93c21.988 21.583 43.392 43.751 65.247 65.467v4.278c-21.888-21.684-43.242-43.898-65.247-65.465v-4.28z"/><path d="M133.427 150.211c22.005 21.565 43.359 43.781 65.247 65.465-.146.443.304 1.479-.252 1.512-21.562-21.925-43.112-43.861-64.995-65.465v-1.512z"/><path fill="#FFF" d="M133.427 151.722c21.883 21.604 43.434 43.54 64.995 65.465h-4.266c-20.129-20.508-40.275-41.004-60.729-61.187v-4.278z"/><path d="M133.427 156.001c20.454 20.183 40.602 40.679 60.729 61.187h-1.506c-19.624-20.011-39.271-39.993-59.226-59.674.003-.506.003-1.008.003-1.513z"/><path fill="#FFF" d="M133.427 157.513c19.952 19.681 39.601 39.663 59.225 59.674h-4.266c-18.185-18.602-36.438-37.131-54.959-55.395v-4.279z"/><path d="M133.427 161.793c18.521 18.264 36.774 36.793 54.959 55.395h-1.508c-17.675-18.104-35.437-36.121-53.451-53.885v-1.51z"/><path fill="#FFF" d="M133.427 163.302c18.016 17.764 35.776 35.779 53.451 53.885h-4.015c-16.473-16.624-32.883-33.312-49.438-49.854.002-1.344.002-2.687.002-4.031z"/><path d="M133.427 167.332c16.555 16.542 32.965 33.23 49.438 49.854h-1.506c-15.969-16.123-31.886-32.298-47.932-48.345v-1.509z"/><path fill="#FFF" d="M133.427 168.843c16.046 16.047 31.963 32.222 47.932 48.345h-4.268c-14.531-14.711-29.066-29.418-43.664-44.062v-4.283z"/><path d="M133.427 173.124c14.598 14.646 29.133 29.353 43.664 44.062h-1.505a13639.987 13639.987 0 0 0-42.159-42.553v-1.509z"/><path fill="#FFF" d="M133.427 174.635c14.086 14.15 28.136 28.34 42.159 42.553h-4.268c-12.586-12.802-25.256-25.521-37.894-38.272.003-1.428.003-2.855.003-4.281z"/><path d="M133.427 178.914c12.637 12.752 25.307 25.472 37.893 38.272h-1.254c-12.16-12.391-24.435-24.668-36.639-37.015v-1.257z"/><path fill="#FFF" d="M133.427 180.173c12.204 12.347 24.479 24.624 36.639 37.015h-4.519c-10.628-10.906-21.464-21.604-32.12-32.48v-4.535z"/><path d="M133.427 184.706c10.656 10.876 21.492 21.574 32.12 32.48h-1.254c-10.205-10.492-20.637-20.756-30.866-31.223v-1.257z"/><path fill="#FFF" d="M133.427 185.965c10.229 10.467 20.661 20.729 30.866 31.223h-4.266c-8.748-9.102-17.845-17.852-26.603-26.941.003-1.429.003-2.855.003-4.282z"/><path d="M133.427 190.245c8.757 9.091 17.854 17.841 26.602 26.941h-1.506c-8.234-8.608-16.855-16.828-25.096-25.432v-1.509z"/><path fill="#FFF" d="M133.427 191.756c8.239 8.604 16.86 16.822 25.096 25.432h-4.267a979.478 979.478 0 0 0-20.829-20.897v-4.535z"/><path d="M133.427 196.289a979.478 979.478 0 0 1 20.829 20.897h-1.507a851.163 851.163 0 0 0-19.322-19.389v-1.508z"/><path fill="#FFF" d="M133.427 197.799a843.052 843.052 0 0 1 19.322 19.389h-4.266a509.536 509.536 0 0 0-15.059-15.107c.003-1.428.003-2.855.003-4.282z"/><path d="M133.427 202.079a515.619 515.619 0 0 1 15.058 15.107h-1.507a416.644 416.644 0 0 0-13.551-13.597v-1.51z"/><path fill="#FFF" d="M133.427 203.591a416.644 416.644 0 0 1 13.551 13.597h-4.267a194.208 194.208 0 0 0-9.285-9.315l.001-4.282z"/><path d="M133.427 207.871a194.65 194.65 0 0 1 9.284 9.315h-1.506a137.677 137.677 0 0 0-7.778-7.807v-1.508z"/><path fill="#FFF" d="M133.427 209.381a137.677 137.677 0 0 1 7.778 7.807h-4.016a31.818 31.818 0 0 0-3.765-3.776c.003-1.345.003-2.687.003-4.031z"/><path d="M133.427 213.41a32.19 32.19 0 0 1 3.764 3.776h-1.506a11.52 11.52 0 0 0-2.258-2.267v-1.509z"/><path fill="#FFF" d="M133.427 214.921a11.52 11.52 0 0 1 2.258 2.267h-2.258v-2.267z"/></g><path fill="none" stroke="#000" stroke-width="1.502" stroke-miterlimit="10" d="M133.503 134.279L145.75 26.096l10.734 105.841 42.186 85.202z"/><g stroke="#000" stroke-miterlimit="10"><path stroke-width=".216" d="M157.543 25.264c-.378 1.209-1.663 1.89-2.947 1.512-1.285-.453-1.966-1.738-1.587-2.948.378-1.21 1.662-1.813 2.945-1.437 1.212.378 1.968 1.664 1.589 2.873z"/><path fill="none" stroke-width="1.502" d="M167.522 25.793c-1.284.15-3.478.831-4.459.529-1.438-.454-3.932-.982-5.745-1.588-1.136-.303-2.271-.529-2.495-1.663-.379-2.571.528-5.52 1.284-8.09"/></g><g stroke="#000" stroke-miterlimit="10"><path stroke-width=".216" d="M146.204 51.8c1.134 0 2.042-.982 2.042-2.116 0-1.21-.908-2.117-2.042-2.117s-2.042.907-2.042 2.117c0 1.132.908 2.116 2.042 2.116z"/><path fill="none" stroke-width="1.502" d="M145.673 42.576c0 1.361.151 3.629.151 5.293 0 1.058.151 2.115-.755 2.569-2.117 1.059-1.209.681-3.629.681"/></g><g stroke="#000" stroke-miterlimit="10"><path stroke-width=".216" d="M145.75 70.775c1.132 0 2.04-.982 2.04-2.116 0-1.21-.908-2.117-2.04-2.117-1.136 0-2.042.907-2.042 2.117 0 1.134.907 2.116 2.042 2.116z"/><path fill="none" stroke-width="1.502" d="M145.222 61.552c0 1.361.148 3.63.148 5.292 0 1.06.151 2.118-.757 2.57-2.115 1.061-1.207.681-3.628.681"/></g><g stroke="#000" stroke-miterlimit="10"><path stroke-width=".216" d="M145.296 89.751c1.136 0 2.041-.982 2.041-2.117 0-1.133-.905-2.115-2.041-2.115-1.135 0-2.041.982-2.041 2.115 0 1.134.907 2.117 2.041 2.117z"/><path fill="none" stroke-width="1.502" d="M144.767 80.527c0 1.361.15 3.629.15 5.292 0 1.059.151 2.116-.757 2.571-2.117 1.058-1.209.68-3.628.68"/></g><g stroke="#000" stroke-miterlimit="10"><path stroke-width=".216" d="M144.843 108.727c1.134 0 2.039-.982 2.039-2.117 0-1.134-.905-2.116-2.039-2.116-1.135 0-2.042.982-2.042 2.116s.907 2.117 2.042 2.117z"/><path fill="none" stroke-width="1.502" d="M144.314 99.504c0 1.36.149 3.629.149 5.292 0 1.06.15 2.117-.756 2.57-2.117 1.059-1.209.68-3.628.68"/></g><g stroke="#000" stroke-miterlimit="10"><path stroke-width=".216" d="M144.389 127.627c1.134 0 2.042-.98 2.042-2.117 0-1.134-.908-2.114-2.042-2.114-1.135 0-2.042.98-2.042 2.114 0 1.136.908 2.117 2.042 2.117z"/><path fill="none" stroke-width="1.502" d="M143.861 118.405c0 1.359.151 3.628.151 5.291 0 1.058.148 2.117-.758 2.57-2.116 1.06-1.211.681-3.629.681"/></g><g stroke="#000" stroke-miterlimit="10"><path stroke-width=".216" d="M147.716 140.705c1.134 0 2.04-.98 2.04-2.117 0-1.132-.906-2.114-2.04-2.114-1.135 0-2.043.982-2.043 2.114 0 1.136.909 2.117 2.043 2.117z"/><path fill="none" stroke-width="1.502" d="M147.185 131.483c0 1.359.151 3.628.151 5.292 0 1.058.151 2.116-.756 2.569-2.117 1.059-1.21.68-3.629.68"/></g><g stroke="#000" stroke-miterlimit="10"><path stroke-width=".216" d="M155.654 150.836c1.133 0 2.041-.905 2.041-2.117 0-1.133-.908-2.115-2.041-2.115-1.135 0-2.041.982-2.041 2.115 0 1.211.906 2.117 2.041 2.117z"/><path fill="none" stroke-width="1.502" d="M155.125 141.613c0 1.361.15 3.628.15 5.292 0 1.059.149 2.116-.756 2.569-2.117 1.06-1.209.682-3.628.682"/></g><g stroke="#000" stroke-miterlimit="10"><path stroke-width=".216" d="M163.943 160.163c1.135 0 2.042-.907 2.042-2.117 0-1.134-.907-2.116-2.042-2.116-1.059 0-1.965.982-1.965 2.116 0 1.21.907 2.117 1.965 2.117z"/><path fill="none" stroke-width="1.502" d="M163.414 151.015c0 1.285.152 3.555.152 5.217 0 1.059.149 2.117-.682 2.569-2.115 1.061-1.284.682-3.703.682"/></g><g stroke="#000" stroke-miterlimit="10"><path stroke-width=".216" d="M169.841 172.032c1.136 0 2.041-.984 2.041-2.116 0-1.209-.905-2.117-2.041-2.117-1.137 0-2.043.908-2.043 2.117 0 1.132.907 2.116 2.043 2.116z"/><path fill="none" stroke-width="1.502" d="M169.31 162.81c0 1.36.15 3.627.15 5.292 0 1.057.151 2.115-.757 2.568-2.115 1.059-1.207.682-3.627.682"/></g><g stroke="#000" stroke-miterlimit="10"><path stroke-width=".216" d="M177.4 182.994c1.06 0 1.966-.981 1.966-2.115 0-1.136-.906-2.119-1.966-2.119-1.135 0-2.041.983-2.041 2.119 0 1.133.906 2.115 2.041 2.115z"/><path fill="none" stroke-width="1.502" d="M176.871 173.771c0 1.358.152 3.629.152 5.293 0 1.057.15 2.115-.758 2.567-2.115 1.061-1.283.682-3.703.682"/></g><path fill="none" stroke="#000" stroke-width="1.502" stroke-miterlimit="10" d="M153.916 24.961c-5.291-1.663-10.66-1.134-15.952-.227M137.359 36.15c5.67-1.966 11.34-1.815 16.936.378"/><path fill="none" stroke="#000" stroke-width="1.502" stroke-miterlimit="10" d="M154.519 49.456c10.961.303 19.354-4.688 21.018-19.278 1.438-12.475-6.123-15.195-21.242-16.632-9.526-.906-20.188.453-27.369 13.685-8.393 15.498.076 21.849 11.566 22"/><path fill="none" stroke="#000" stroke-width=".5" stroke-miterlimit="10" d="M183.062 178.76h51.419"/><path d="M252.809 12.538h-3.306v3.077h3.698v.925h-4.813V8.004h4.623v.925h-3.508v2.697h3.306v.912zM254.597 12.411c0-.785-.025-1.418-.051-2.001h.988l.062 1.052h.025c.443-.748 1.178-1.179 2.179-1.179 1.494 0 2.608 1.254 2.608 3.104 0 2.203-1.355 3.293-2.799 3.293-.811 0-1.52-.354-1.887-.963h-.025v3.331h-1.102v-6.637zm1.102 1.634a1.72 1.72 0 0 0 1.723 1.761c1.178 0 1.861-.963 1.861-2.368 0-1.216-.646-2.268-1.824-2.268-.76 0-1.48.532-1.684 1.368-.038.14-.076.304-.076.443v1.064zM263.047 8.687c0 .38-.266.685-.709.685-.404 0-.671-.305-.671-.685s.278-.696.696-.696c.406 0 .684.304.684.696zm-1.241 7.853v-6.13h1.114v6.13h-1.114zM266.113 8.941v1.469h1.596v.849h-1.596v3.306c0 .76.215 1.19.836 1.19.304 0 .48-.025.646-.076l.051.849a3.043 3.043 0 0 1-.987.152c-.52 0-.938-.178-1.203-.469-.305-.342-.432-.887-.432-1.608v-3.344h-.949v-.849h.949V9.27l1.089-.329zM268.965 7.548h1.114v3.838h.025c.177-.316.456-.608.798-.798.329-.19.722-.305 1.14-.305.823 0 2.141.507 2.141 2.609v3.647h-1.114v-3.521c0-.988-.367-1.812-1.419-1.812-.722 0-1.279.507-1.494 1.102-.063.165-.076.33-.076.532v3.698h-1.114v-8.99zM276.617 13.677c.025 1.507.975 2.128 2.102 2.128.799 0 1.293-.14 1.697-.316l.203.798c-.393.177-1.076.393-2.052.393-1.888 0-3.015-1.254-3.015-3.104 0-1.849 1.09-3.293 2.875-3.293 2.014 0 2.533 1.748 2.533 2.875 0 .229-.013.393-.038.52h-4.305zm3.268-.797c.012-.696-.291-1.799-1.545-1.799-1.141 0-1.621 1.026-1.711 1.799h3.256zM282.344 7.548h1.114v8.992h-1.114V7.548zM286.574 8.687c0 .38-.266.685-.709.685-.404 0-.671-.305-.671-.685s.278-.696.696-.696c.407 0 .684.304.684.696zm-1.24 7.853v-6.13h1.114v6.13h-1.114zM292.603 15.071c0 .531.025 1.051.09 1.469h-1.001l-.089-.772h-.038c-.342.481-1.001.912-1.874.912-1.241 0-1.875-.874-1.875-1.761 0-1.481 1.317-2.292 3.686-2.279v-.127c0-.494-.139-1.419-1.393-1.406-.583 0-1.178.165-1.609.456l-.252-.747c.506-.316 1.253-.532 2.025-.532 1.875 0 2.33 1.279 2.33 2.495v2.292zm-1.076-1.659c-1.216-.025-2.596.189-2.596 1.38 0 .734.48 1.064 1.038 1.064.811 0 1.33-.507 1.507-1.026.039-.126.051-.253.051-.354v-1.064zM294.404 7.548h1.115v8.992h-1.115V7.548zM248.212 30.616c.342.202.925.431 1.481.431.799 0 1.178-.393 1.178-.912 0-.532-.316-.811-1.127-1.114-1.114-.405-1.633-1.001-1.633-1.735 0-.988.811-1.799 2.114-1.799.62 0 1.165.165 1.495.38l-.267.811a2.385 2.385 0 0 0-1.254-.367c-.658 0-1.013.38-1.013.836 0 .507.354.735 1.152 1.052 1.051.393 1.608.924 1.608 1.836 0 1.09-.849 1.85-2.28 1.85-.671 0-1.291-.178-1.722-.431l.268-.838zM258.51 30.058c0 .646.014 1.203.051 1.685h-.987l-.063-1.001h-.025a2.29 2.29 0 0 1-2.026 1.141c-.962 0-2.114-.545-2.114-2.686v-3.584h1.113v3.382c0 1.165.367 1.963 1.368 1.963.747 0 1.267-.52 1.47-1.026.062-.151.102-.354.102-.569v-3.749h1.113v4.444zM261.705 24.144v1.469h1.596v.849h-1.596v3.306c0 .76.215 1.19.836 1.19.303 0 .48-.025.646-.076l.05.849a3.034 3.034 0 0 1-.987.152c-.519 0-.937-.178-1.203-.469-.304-.342-.431-.887-.431-1.608v-3.344h-.949v-.849h.949v-1.14l1.089-.329zM269.685 30.058c0 .646.012 1.203.051 1.685h-.988l-.063-1.001h-.025a2.289 2.289 0 0 1-2.026 1.141c-.963 0-2.115-.545-2.115-2.686v-3.584h1.115v3.382c0 1.165.367 1.963 1.367 1.963.748 0 1.267-.52 1.469-1.026.064-.151.102-.354.102-.569v-3.749h1.115v4.444zM271.537 27.525c0-.722-.013-1.342-.051-1.912h.975l.051 1.216h.038c.278-.823.963-1.343 1.71-1.343.113 0 .203.013.304.025v1.052c-.114-.025-.228-.025-.38-.025-.785 0-1.342.582-1.494 1.418a3.379 3.379 0 0 0-.038.52v3.268h-1.114v-4.219zM276.174 28.881c.025 1.507.975 2.128 2.102 2.128.799 0 1.293-.14 1.697-.316l.203.798c-.393.177-1.076.393-2.052.393-1.888 0-3.015-1.254-3.015-3.104 0-1.849 1.09-3.293 2.875-3.293 2.014 0 2.533 1.748 2.533 2.875 0 .229-.013.393-.038.52h-4.305zm3.267-.798c.012-.696-.291-1.799-1.545-1.799-1.141 0-1.621 1.026-1.711 1.799h3.256z"/><g><path d="M251.271 67.258v3.571h4.129v-3.571h1.114v8.536H255.4v-4.002h-4.129v4.002h-1.115v-8.536h1.115zM258.911 69.664l1.33 3.622c.151.405.304.887.405 1.254h.025c.113-.367.24-.836.393-1.279l1.216-3.597h1.178l-1.672 4.369c-.798 2.103-1.343 3.167-2.103 3.838-.557.469-1.089.658-1.367.709l-.279-.925a2.95 2.95 0 0 0 .976-.544c.304-.241.671-.672.937-1.241.051-.114.09-.203.09-.267 0-.062-.025-.151-.09-.291l-2.254-5.648h1.215zM264.472 71.323c0-.646-.024-1.152-.05-1.659h.976l.051 1.001h.037c.342-.583.912-1.128 1.938-1.128.824 0 1.457.507 1.723 1.229h.025c.189-.354.443-.607.697-.798.367-.278.76-.431 1.342-.431.823 0 2.026.532 2.026 2.66v3.597h-1.089v-3.457c0-1.191-.443-1.888-1.33-1.888-.646 0-1.127.469-1.33 1.001a1.885 1.885 0 0 0-.088.557v3.787h-1.09v-3.673c0-.976-.43-1.672-1.279-1.672-.684 0-1.203.558-1.38 1.114a1.499 1.499 0 0 0-.089.545v3.686h-1.09v-4.471zM275.66 72.931c.025 1.507.976 2.128 2.103 2.128.798 0 1.292-.14 1.697-.316l.202.798c-.393.177-1.076.393-2.051.393-1.888 0-3.015-1.254-3.015-3.104 0-1.849 1.089-3.293 2.874-3.293 2.015 0 2.533 1.748 2.533 2.875 0 .229-.012.393-.037.52h-4.306zm3.267-.797c.013-.696-.291-1.799-1.545-1.799-1.14 0-1.621 1.026-1.71 1.799h3.255zM281.386 71.323c0-.646-.012-1.152-.05-1.659h.987l.063 1.014h.025c.304-.57 1.013-1.141 2.026-1.141.849 0 2.166.507 2.166 2.609v3.647h-1.115V72.26c0-.988-.367-1.812-1.418-1.812-.722 0-1.291.52-1.494 1.14a1.6 1.6 0 0 0-.076.52v3.686h-1.115v-4.471z"/></g><g><path d="M250.131 86.78c0-.722-.012-1.342-.05-1.912h.976l.051 1.216h.037c.279-.823.963-1.343 1.71-1.343.114 0 .202.013.304.025v1.052c-.113-.025-.228-.025-.38-.025-.785 0-1.343.582-1.494 1.418a3.379 3.379 0 0 0-.038.52v3.268h-1.115V86.78zM254.767 88.135c.025 1.507.977 2.128 2.104 2.128.797 0 1.291-.14 1.697-.316l.202.798c-.393.177-1.077.393-2.052.393-1.887 0-3.014-1.254-3.014-3.104 0-1.849 1.088-3.293 2.874-3.293 2.014 0 2.533 1.748 2.533 2.875 0 .229-.013.393-.038.52h-4.306zm3.268-.797c.014-.696-.291-1.799-1.545-1.799-1.14 0-1.621 1.026-1.709 1.799h3.254zM260.495 86.527c0-.646-.024-1.152-.05-1.659h.975l.051 1.001h.037c.343-.583.912-1.128 1.938-1.128.823 0 1.456.507 1.722 1.229h.025c.19-.354.443-.607.697-.798.367-.278.76-.431 1.342-.431.824 0 2.027.532 2.027 2.66v3.597h-1.09v-3.457c0-1.191-.443-1.888-1.33-1.888-.646 0-1.127.469-1.329 1.001a1.884 1.884 0 0 0-.089.557v3.787h-1.089v-3.673c0-.976-.431-1.672-1.279-1.672-.685 0-1.203.558-1.38 1.114-.064.152-.09.355-.09.545v3.686h-1.089v-4.471zM271.061 86.527c0-.646-.013-1.152-.05-1.659h.987l.063 1.014h.025c.304-.57 1.013-1.141 2.025-1.141.85 0 2.166.507 2.166 2.609v3.647h-1.114v-3.533c0-.988-.367-1.812-1.419-1.812-.721 0-1.291.52-1.494 1.14a1.6 1.6 0 0 0-.076.52v3.686h-1.114v-4.471zM282.399 89.529c0 .531.025 1.051.089 1.469h-1l-.09-.772h-.037c-.342.481-1.001.912-1.875.912-1.24 0-1.874-.874-1.874-1.761 0-1.481 1.317-2.292 3.686-2.279v-.128c0-.494-.14-1.419-1.394-1.406-.582 0-1.178.165-1.608.456l-.253-.747c.506-.316 1.254-.532 2.026-.532 1.874 0 2.33 1.279 2.33 2.495v2.293zm-1.076-1.659c-1.216-.025-2.597.189-2.597 1.38 0 .734.481 1.064 1.039 1.064.811 0 1.33-.507 1.507-1.026.038-.126.051-.253.051-.354V87.87zM284.2 86.527c0-.646-.013-1.152-.05-1.659h.987l.063 1.014h.025c.304-.57 1.013-1.141 2.025-1.141.85 0 2.166.507 2.166 2.609v3.647h-1.114v-3.533c0-.988-.367-1.812-1.419-1.812-.721 0-1.291.52-1.494 1.14a1.6 1.6 0 0 0-.076.52v3.686H284.2v-4.471zM292.523 83.399v1.469h1.596v.849h-1.596v3.306c0 .76.216 1.19.836 1.19.305 0 .481-.025.646-.076l.051.849a3.045 3.045 0 0 1-.988.152c-.52 0-.938-.178-1.203-.469-.304-.342-.431-.887-.431-1.608v-3.344h-.95v-.849h.95v-1.14l1.089-.329zM295.222 89.871c.342.202.925.431 1.482.431.797 0 1.178-.393 1.178-.912 0-.532-.316-.811-1.127-1.114-1.115-.405-1.635-1.001-1.635-1.735 0-.988.811-1.799 2.115-1.799.621 0 1.165.165 1.494.38l-.266.811a2.382 2.382 0 0 0-1.254-.367c-.658 0-1.014.38-1.014.836 0 .507.355.735 1.153 1.052 1.051.393 1.608.924 1.608 1.836 0 1.09-.849 1.85-2.279 1.85-.672 0-1.293-.178-1.723-.431l.268-.838z"/></g><g><path d="M250.136 106.662h1.115v5.712c0 2.267-1.115 2.964-2.584 2.964-.418 0-.912-.089-1.178-.203l.152-.899c.228.089.557.165.937.165.988 0 1.558-.443 1.558-2.115v-5.624zM258.181 113.513c0 .646.012 1.203.051 1.685h-.988l-.063-1.001h-.025a2.289 2.289 0 0 1-2.026 1.141c-.963 0-2.115-.545-2.115-2.686v-3.584h1.115v3.382c0 1.165.367 1.963 1.367 1.963.748 0 1.267-.52 1.469-1.026.064-.151.102-.354.102-.569v-3.749h1.115v4.444zM260.033 110.727c0-.646-.013-1.152-.051-1.659h.988l.062 1.014h.025c.305-.57 1.014-1.141 2.026-1.141.849 0 2.166.507 2.166 2.609v3.647h-1.114v-3.533c0-.988-.367-1.812-1.419-1.812-.722 0-1.292.52-1.494 1.14a1.6 1.6 0 0 0-.076.52v3.686h-1.114v-4.471zM271.433 114.983c-.291.139-.938.354-1.76.354-1.85 0-3.053-1.254-3.053-3.129 0-1.887 1.291-3.268 3.293-3.268.658 0 1.24.165 1.545.33l-.254.849c-.266-.14-.684-.292-1.291-.292-1.406 0-2.166 1.052-2.166 2.318 0 1.418.912 2.292 2.128 2.292a3.2 3.2 0 0 0 1.368-.291l.19.837zM274.248 107.599v1.469h1.596v.849h-1.596v3.306c0 .76.215 1.19.836 1.19.303 0 .48-.025.646-.076l.05.849a3.034 3.034 0 0 1-.987.152c-.519 0-.937-.178-1.203-.469-.304-.342-.431-.887-.431-1.608v-3.344h-.949v-.849h.949v-1.14l1.089-.329zM278.34 107.345c0 .38-.266.685-.709.685-.406 0-.672-.305-.672-.685s.279-.696.697-.696c.404 0 .684.304.684.696zm-1.243 7.853v-6.13h1.115v6.13h-1.115zM285.61 112.083c0 2.267-1.583 3.255-3.052 3.255-1.646 0-2.938-1.216-2.938-3.154 0-2.039 1.354-3.242 3.04-3.242 1.76-.001 2.95 1.278 2.95 3.141zm-4.85.063c0 1.342.76 2.355 1.85 2.355 1.063 0 1.861-1.001 1.861-2.381 0-1.039-.52-2.344-1.836-2.344-1.305.001-1.875 1.217-1.875 2.37zM287.018 110.727c0-.646-.013-1.152-.05-1.659h.987l.063 1.014h.025c.304-.57 1.013-1.141 2.025-1.141.85 0 2.166.507 2.166 2.609v3.647h-1.114v-3.533c0-.988-.367-1.812-1.419-1.812-.721 0-1.291.52-1.494 1.14a1.6 1.6 0 0 0-.076.52v3.686h-1.114v-4.471zM302.283 112.083c0 2.267-1.582 3.255-3.052 3.255-1.646 0-2.938-1.216-2.938-3.154 0-2.039 1.355-3.242 3.04-3.242 1.761-.001 2.95 1.278 2.95 3.141zm-4.85.063c0 1.342.76 2.355 1.849 2.355 1.063 0 1.862-1.001 1.862-2.381 0-1.039-.52-2.344-1.837-2.344-1.304.001-1.874 1.217-1.874 2.37zM303.806 115.198v-5.281h-.85v-.849h.85v-.291c0-.861.202-1.646.709-2.141.418-.405.975-.569 1.494-.569.405 0 .734.088.949.177l-.151.861a1.62 1.62 0 0 0-.709-.14c-.95 0-1.19.823-1.19 1.773v.329h1.481v.849h-1.481v5.281h-1.102z"/></g><g><path d="M248.212 129.275c.342.202.925.431 1.481.431.799 0 1.178-.393 1.178-.912 0-.532-.316-.811-1.127-1.114-1.114-.405-1.633-1.001-1.633-1.735 0-.988.811-1.799 2.114-1.799.62 0 1.165.165 1.495.38l-.267.811a2.385 2.385 0 0 0-1.254-.367c-.658 0-1.013.38-1.013.836 0 .507.354.735 1.152 1.052 1.051.393 1.608.924 1.608 1.836 0 1.09-.849 1.85-2.28 1.85-.671 0-1.291-.178-1.722-.431l.268-.838zM254.482 127.084h.025c.152-.215.355-.481.532-.696l1.812-2.115h1.33l-2.356 2.521 2.698 3.609h-1.368l-2.103-2.938-.57.634v2.305h-1.102v-8.992h1.102v5.672zM260.779 122.55c0 .38-.266.685-.709.685-.404 0-.671-.305-.671-.685s.278-.696.696-.696c.407-.001.684.303.684.696zm-1.24 7.852v-6.13h1.114v6.13h-1.114zM262.503 125.931c0-.646-.013-1.152-.05-1.659h.987l.063 1.014h.025c.304-.57 1.013-1.141 2.025-1.141.85 0 2.166.507 2.166 2.609v3.647h-1.114v-3.533c0-.988-.367-1.812-1.419-1.812-.721 0-1.291.52-1.494 1.14a1.6 1.6 0 0 0-.076.52v3.686h-1.114v-4.471zM276.527 128.933c0 .531.025 1.051.088 1.469h-1l-.089-.772h-.038c-.342.481-1 .912-1.874.912-1.241 0-1.874-.874-1.874-1.761 0-1.481 1.316-2.292 3.686-2.279v-.127c0-.494-.141-1.419-1.394-1.406-.583 0-1.179.165-1.608.456l-.254-.747c.507-.316 1.254-.532 2.027-.532 1.873 0 2.33 1.279 2.33 2.495v2.292zm-1.077-1.659c-1.216-.025-2.597.189-2.597 1.38 0 .734.482 1.064 1.039 1.064.811 0 1.33-.507 1.508-1.026.037-.126.05-.253.05-.354v-1.064zM278.327 125.931c0-.646-.013-1.152-.05-1.659h.987l.063 1.014h.025c.304-.57 1.013-1.141 2.025-1.141.85 0 2.166.507 2.166 2.609v3.647h-1.114v-3.533c0-.988-.367-1.812-1.419-1.812-.721 0-1.291.52-1.494 1.14a1.6 1.6 0 0 0-.076.52v3.686h-1.114v-4.471zM290.64 121.41v7.409c0 .545.025 1.165.051 1.583h-.988l-.051-1.063h-.038c-.329.684-1.063 1.203-2.063 1.203-1.482 0-2.635-1.254-2.635-3.116-.013-2.039 1.266-3.28 2.748-3.28.949 0 1.57.443 1.85.925h.025v-3.66h1.101zm-1.101 5.357c0-.14-.014-.329-.051-.469a1.642 1.642 0 0 0-1.609-1.279c-1.152 0-1.836 1.014-1.836 2.355 0 1.241.621 2.268 1.811 2.268.748 0 1.432-.507 1.635-1.33.037-.151.051-.304.051-.481v-1.064z"/></g><g><path d="M248.795 139.475l1.203 3.433c.202.569.367 1.076.494 1.583h.037c.14-.507.316-1.014.52-1.583l1.19-3.433h1.165l-2.406 6.13h-1.063l-2.331-6.13h1.191zM258.713 144.136c0 .531.025 1.051.09 1.469h-1.001l-.089-.772h-.038c-.342.481-1.001.912-1.874.912-1.241 0-1.875-.874-1.875-1.761 0-1.481 1.317-2.292 3.686-2.279v-.127c0-.494-.139-1.419-1.393-1.406-.583 0-1.178.165-1.609.456l-.252-.747c.506-.316 1.253-.532 2.025-.532 1.875 0 2.33 1.279 2.33 2.495v2.292zm-1.077-1.659c-1.216-.025-2.596.189-2.596 1.38 0 .734.48 1.064 1.038 1.064.811 0 1.33-.507 1.507-1.026.039-.126.051-.253.051-.354v-1.064zM265.758 144.706c0 1.419-.292 2.268-.875 2.812-.607.545-1.469.734-2.241.734-.734 0-1.545-.177-2.039-.506l.278-.861c.406.266 1.039.494 1.799.494 1.14 0 1.976-.596 1.976-2.153v-.671h-.025c-.329.569-1.001 1.025-1.95 1.025-1.52 0-2.609-1.292-2.609-2.989 0-2.076 1.355-3.242 2.773-3.242 1.064 0 1.635.545 1.913 1.052h.024l.039-.925h.987c-.038.431-.05.938-.05 1.672v3.558zm-1.116-2.812c0-.189-.013-.354-.063-.494-.202-.658-.734-1.19-1.558-1.19-1.064 0-1.824.899-1.824 2.318 0 1.203.621 2.203 1.812 2.203.696 0 1.317-.431 1.545-1.14a1.95 1.95 0 0 0 .089-.596v-1.101zM268.761 137.753c0 .38-.266.685-.709.685-.406 0-.672-.305-.672-.685s.279-.696.697-.696c.405-.001.684.303.684.696zm-1.242 7.852v-6.13h1.115v6.13h-1.115zM270.484 141.135c0-.646-.012-1.152-.05-1.659h.987l.063 1.014h.025c.304-.57 1.013-1.141 2.026-1.141.849 0 2.166.507 2.166 2.609v3.647h-1.115v-3.533c0-.988-.367-1.812-1.418-1.812-.722 0-1.291.52-1.494 1.14a1.6 1.6 0 0 0-.076.52v3.686h-1.115v-4.471zM281.822 144.136c0 .531.025 1.051.09 1.469h-1.001l-.089-.772h-.038c-.342.481-1.001.912-1.874.912-1.241 0-1.875-.874-1.875-1.761 0-1.481 1.317-2.292 3.686-2.279v-.127c0-.494-.139-1.419-1.393-1.406-.583 0-1.178.165-1.609.456l-.252-.747c.506-.316 1.253-.532 2.025-.532 1.875 0 2.33 1.279 2.33 2.495v2.292zm-1.076-1.659c-1.216-.025-2.596.189-2.596 1.38 0 .734.48 1.064 1.038 1.064.811 0 1.33-.507 1.507-1.026.039-.126.051-.253.051-.354v-1.064zM283.623 136.613h1.115v8.992h-1.115v-8.992z"/></g><g><path d="M248.984 157.947c.025 1.507.976 2.128 2.103 2.128.798 0 1.292-.14 1.697-.316l.202.798c-.393.177-1.076.393-2.051.393-1.888 0-3.015-1.254-3.015-3.104 0-1.849 1.089-3.293 2.874-3.293 2.015 0 2.533 1.748 2.533 2.875 0 .229-.012.393-.037.52h-4.306zm3.268-.798c.013-.696-.291-1.799-1.545-1.799-1.14 0-1.621 1.026-1.71 1.799h3.255zM254.711 156.68c0-.785-.024-1.418-.05-2.001h.987l.063 1.052h.025c.443-.748 1.179-1.179 2.179-1.179 1.494 0 2.609 1.254 2.609 3.104 0 2.203-1.355 3.293-2.799 3.293-.811 0-1.521-.354-1.888-.963h-.025v3.331h-1.103v-6.637zm1.102 1.634a1.72 1.72 0 0 0 1.723 1.761c1.178 0 1.861-.963 1.861-2.368 0-1.216-.646-2.268-1.823-2.268-.76 0-1.482.532-1.685 1.368-.038.14-.076.304-.076.443v1.064zM263.161 152.957c0 .38-.266.685-.709.685-.405 0-.671-.305-.671-.685s.278-.696.696-.696c.406-.001.684.303.684.696zm-1.241 7.852v-6.13h1.115v6.13h-1.115zM266.227 153.211v1.469h1.596v.849h-1.596v3.306c0 .76.216 1.19.836 1.19.304 0 .481-.025.646-.076l.051.849a3.036 3.036 0 0 1-.988.152c-.519 0-.937-.178-1.203-.469-.303-.342-.43-.887-.43-1.608v-3.344h-.95v-.849h.95v-1.14l1.088-.329zM269.078 151.817h1.115v3.838h.025c.178-.316.456-.608.798-.798.329-.19.722-.305 1.14-.305.823 0 2.141.507 2.141 2.609v3.647h-1.115v-3.521c0-.988-.367-1.812-1.418-1.812-.722 0-1.279.507-1.494 1.102-.063.165-.076.33-.076.532v3.698h-1.115v-8.99zM276.73 157.947c.025 1.507.976 2.128 2.103 2.128.798 0 1.292-.14 1.697-.316l.202.798c-.393.177-1.076.393-2.051.393-1.888 0-3.015-1.254-3.015-3.104 0-1.849 1.089-3.293 2.874-3.293 2.015 0 2.533 1.748 2.533 2.875 0 .229-.012.393-.037.52h-4.306zm3.268-.798c.013-.696-.291-1.799-1.545-1.799-1.14 0-1.621 1.026-1.71 1.799h3.255zM282.457 151.817h1.115v8.992h-1.115v-8.992zM286.688 152.957c0 .38-.266.685-.709.685-.405 0-.671-.305-.671-.685s.278-.696.696-.696c.406-.001.684.303.684.696zm-1.241 7.852v-6.13h1.115v6.13h-1.115zM293.541 159.125c0 .646.014 1.203.051 1.685h-.987l-.063-1.001h-.025a2.29 2.29 0 0 1-2.026 1.141c-.962 0-2.114-.545-2.114-2.686v-3.584h1.113v3.382c0 1.165.367 1.963 1.368 1.963.747 0 1.267-.52 1.47-1.026.062-.151.102-.354.102-.569v-3.749h1.113v4.444zM295.392 156.339c0-.646-.024-1.152-.05-1.659h.976l.051 1.001h.037c.342-.583.912-1.128 1.938-1.128.824 0 1.457.507 1.723 1.229h.025c.189-.354.443-.607.697-.798.367-.278.76-.431 1.342-.431.823 0 2.026.532 2.026 2.66v3.597h-1.089v-3.457c0-1.191-.443-1.888-1.33-1.888-.646 0-1.127.469-1.33 1.001a1.885 1.885 0 0 0-.088.557v3.787h-1.09v-3.673c0-.976-.43-1.672-1.279-1.672-.684 0-1.203.558-1.38 1.114a1.499 1.499 0 0 0-.089.545v3.686h-1.09v-4.471z"/></g><g><path d="M250.17 177.2c.48-.114 1.254-.19 2.014-.19 1.102 0 1.811.19 2.33.621.443.329.722.836.722 1.507 0 .836-.558 1.558-1.444 1.874v.038c.811.19 1.762.861 1.762 2.128 0 .734-.292 1.305-.735 1.71-.583.544-1.545.798-2.938.798-.76 0-1.342-.051-1.709-.102V177.2zm1.101 3.495h1c1.152 0 1.837-.62 1.837-1.443 0-.988-.747-1.394-1.862-1.394-.506 0-.797.038-.975.076v2.761zm0 4.078c.229.038.531.051.924.051 1.141 0 2.191-.418 2.191-1.659 0-1.152-1-1.646-2.203-1.646h-.912v3.254zM262.127 183.925c0 .646.014 1.203.051 1.685h-.987l-.063-1.001h-.025a2.29 2.29 0 0 1-2.026 1.141c-.962 0-2.114-.545-2.114-2.686v-3.584h1.113v3.382c0 1.165.367 1.963 1.368 1.963.747 0 1.267-.52 1.47-1.026.062-.151.102-.354.102-.569v-3.749h1.113v4.444zM263.979 181.391c0-.722-.013-1.342-.05-1.912h.975l.051 1.216h.037c.279-.823.963-1.343 1.711-1.343.113 0 .202.013.304.025v1.052c-.114-.025-.228-.025-.38-.025-.785 0-1.343.582-1.494 1.418a3.374 3.374 0 0 0-.039.52v3.268h-1.114v-4.219zM269.414 177.757c0 .38-.266.685-.709.685-.405 0-.672-.305-.672-.685s.279-.696.697-.696c.405-.001.684.303.684.696zm-1.241 7.852v-6.13h1.114v6.13h-1.114zM271.758 182.747c.025 1.507.977 2.128 2.104 2.128.797 0 1.291-.14 1.697-.316l.202.798c-.393.177-1.077.393-2.052.393-1.887 0-3.014-1.254-3.014-3.104 0-1.849 1.088-3.293 2.874-3.293 2.014 0 2.533 1.748 2.533 2.875 0 .229-.013.393-.038.52h-4.306zm3.267-.798c.014-.696-.291-1.799-1.545-1.799-1.14 0-1.621 1.026-1.709 1.799h3.254zM282.765 176.617v7.409c0 .545.025 1.165.051 1.583h-.987l-.051-1.063h-.038c-.329.684-1.063 1.203-2.064 1.203-1.481 0-2.634-1.254-2.634-3.116-.013-2.039 1.267-3.28 2.748-3.28.95 0 1.57.443 1.849.925h.025v-3.66h1.101zm-1.101 5.357c0-.14-.012-.329-.051-.469a1.64 1.64 0 0 0-1.607-1.279c-1.152 0-1.837 1.014-1.837 2.355 0 1.241.62 2.268 1.812 2.268.746 0 1.431-.507 1.633-1.33.039-.151.051-.304.051-.481v-1.064zM287.316 181.138c0-.646-.025-1.152-.051-1.659h.976l.051 1.001h.038c.342-.583.912-1.128 1.938-1.128.823 0 1.457.507 1.723 1.229h.025c.189-.354.443-.607.696-.798.367-.278.76-.431 1.343-.431.822 0 2.025.532 2.025 2.66v3.597h-1.088v-3.457c0-1.191-.443-1.888-1.33-1.888-.646 0-1.127.469-1.33 1.001a1.884 1.884 0 0 0-.089.557v3.787h-1.089v-3.673c0-.976-.431-1.672-1.279-1.672-.684 0-1.203.558-1.381 1.114a1.52 1.52 0 0 0-.088.545v3.686h-1.09v-4.471zM303.012 183.925c0 .646.013 1.203.051 1.685h-.987l-.064-1.001h-.025a2.287 2.287 0 0 1-2.025 1.141c-.963 0-2.115-.545-2.115-2.686v-3.584h1.114v3.382c0 1.165.367 1.963 1.368 1.963.747 0 1.266-.52 1.469-1.026.063-.151.102-.354.102-.569v-3.749h1.114v4.444zM304.713 184.482c.342.202.924.431 1.481.431.798 0 1.178-.393 1.178-.912 0-.532-.316-.811-1.127-1.114-1.114-.405-1.634-1.001-1.634-1.735 0-.988.811-1.799 2.115-1.799.62 0 1.165.165 1.494.38l-.266.811a2.385 2.385 0 0 0-1.254-.367c-.658 0-1.014.38-1.014.836 0 .507.355.735 1.152 1.052 1.052.393 1.609.924 1.609 1.836 0 1.09-.85 1.85-2.28 1.85-.671 0-1.292-.178-1.723-.431l.269-.838zM314.251 185.394c-.292.139-.938.354-1.761.354-1.849 0-3.052-1.254-3.052-3.129 0-1.887 1.292-3.268 3.292-3.268.659 0 1.242.165 1.546.33l-.253.849c-.267-.14-.685-.292-1.293-.292-1.405 0-2.165 1.052-2.165 2.318 0 1.418.912 2.292 2.128 2.292a3.19 3.19 0 0 0 1.367-.291l.191.837zM315.556 176.617h1.115v8.992h-1.115v-8.992zM319.168 182.747c.025 1.507.976 2.128 2.103 2.128.798 0 1.292-.14 1.697-.316l.202.798c-.393.177-1.076.393-2.051.393-1.888 0-3.015-1.254-3.015-3.104 0-1.849 1.089-3.293 2.874-3.293 2.015 0 2.533 1.748 2.533 2.875 0 .229-.012.393-.037.52h-4.306zm3.267-.798c.013-.696-.291-1.799-1.545-1.799-1.14 0-1.621 1.026-1.71 1.799h3.255z"/></g><g><path d="M249.979 199.686c.342.202.925.431 1.481.431.799 0 1.178-.393 1.178-.912 0-.532-.316-.811-1.127-1.114-1.114-.405-1.633-1.001-1.633-1.735 0-.988.811-1.799 2.114-1.799.62 0 1.165.165 1.495.38l-.267.811a2.385 2.385 0 0 0-1.254-.367c-.658 0-1.013.38-1.013.836 0 .507.354.735 1.152 1.052 1.051.393 1.608.924 1.608 1.836 0 1.09-.849 1.85-2.28 1.85-.671 0-1.291-.178-1.722-.431l.268-.838zM260.277 199.129c0 .646.014 1.203.051 1.685h-.987l-.063-1.001h-.025a2.29 2.29 0 0 1-2.026 1.141c-.962 0-2.114-.545-2.114-2.686v-3.584h1.113v3.382c0 1.165.367 1.963 1.368 1.963.747 0 1.267-.52 1.47-1.026.062-.151.102-.354.102-.569v-3.749h1.113v4.444zM263.472 193.215v1.469h1.596v.849h-1.596v3.306c0 .76.215 1.19.836 1.19.303 0 .48-.025.646-.076l.05.849a3.034 3.034 0 0 1-.987.152c-.519 0-.937-.178-1.203-.469-.304-.342-.431-.887-.431-1.608v-3.344h-.949v-.849h.949v-1.14l1.089-.329zM271.453 199.129c0 .646.012 1.203.051 1.685h-.988l-.063-1.001h-.025a2.289 2.289 0 0 1-2.026 1.141c-.963 0-2.115-.545-2.115-2.686v-3.584h1.115v3.382c0 1.165.367 1.963 1.367 1.963.748 0 1.267-.52 1.469-1.026.064-.151.102-.354.102-.569v-3.749h1.115v4.444zM273.304 196.595c0-.722-.013-1.342-.051-1.912h.975l.051 1.216h.038c.278-.823.963-1.343 1.71-1.343.113 0 .203.013.304.025v1.052c-.114-.025-.228-.025-.38-.025-.785 0-1.342.582-1.494 1.418a3.379 3.379 0 0 0-.038.52v3.268h-1.114v-4.219zM277.941 197.951c.025 1.507.975 2.128 2.102 2.128.799 0 1.293-.14 1.697-.316l.203.798c-.393.177-1.076.393-2.052.393-1.888 0-3.015-1.254-3.015-3.104 0-1.849 1.09-3.293 2.875-3.293 2.014 0 2.533 1.748 2.533 2.875 0 .229-.013.393-.038.52h-4.305zm3.268-.798c.012-.696-.291-1.799-1.545-1.799-1.141 0-1.621 1.026-1.711 1.799h3.256zM287.456 197.495h.025c.151-.215.354-.481.532-.696l1.811-2.115h1.33l-2.355 2.521 2.697 3.609h-1.367l-2.104-2.938-.569.634v2.305h-1.103v-8.992h1.103v5.672zM292.511 196.343c0-.646-.013-1.152-.051-1.659h.988l.062 1.014h.025c.305-.57 1.014-1.141 2.026-1.141.849 0 2.166.507 2.166 2.609v3.647h-1.114v-3.533c0-.988-.367-1.812-1.419-1.812-.722 0-1.292.52-1.494 1.14a1.6 1.6 0 0 0-.076.52v3.686h-1.114v-4.471zM305.09 197.698c0 2.267-1.582 3.255-3.052 3.255-1.646 0-2.938-1.216-2.938-3.154 0-2.039 1.355-3.242 3.04-3.242 1.76-.001 2.95 1.279 2.95 3.141zm-4.85.063c0 1.342.76 2.355 1.849 2.355 1.063 0 1.862-1.001 1.862-2.381 0-1.039-.52-2.344-1.837-2.344-1.305.001-1.874 1.217-1.874 2.37zM307.842 193.215v1.469h1.596v.849h-1.596v3.306c0 .76.215 1.19.836 1.19.303 0 .48-.025.646-.076l.05.849a3.034 3.034 0 0 1-.987.152c-.519 0-.937-.178-1.203-.469-.304-.342-.431-.887-.431-1.608v-3.344h-.949v-.849h.949v-1.14l1.089-.329zM310.54 199.686c.342.202.925.431 1.481.431.799 0 1.178-.393 1.178-.912 0-.532-.316-.811-1.127-1.114-1.114-.405-1.633-1.001-1.633-1.735 0-.988.811-1.799 2.114-1.799.62 0 1.165.165 1.495.38l-.267.811a2.385 2.385 0 0 0-1.254-.367c-.658 0-1.013.38-1.013.836 0 .507.354.735 1.152 1.052 1.051.393 1.608.924 1.608 1.836 0 1.09-.849 1.85-2.28 1.85-.671 0-1.291-.178-1.722-.431l.268-.838z"/></g><path stroke="#000" stroke-width=".045" stroke-linecap="round" stroke-linejoin="round" stroke-miterlimit="10" d="M183.062 177.904l7.117 4.902c-1.124-3.191-1.249-6.156-.062-9.466l-7.055 4.564zM168.5 136.929l7.117 4.901c-1.124-3.191-1.25-6.157-.062-9.464l-7.055 4.563zM195.112 80.357l7.118 4.902c-1.125-3.191-1.25-6.156-.064-9.465l-7.054 4.563zM182.935 20.52l7.115 4.901c-1.121-3.19-1.247-6.155-.062-9.464l-7.053 4.563z"/><g><path d="M251.55 252.448l-.886 2.685h-1.141l2.913-8.536h1.317l2.912 8.536h-1.178l-.911-2.685h-3.026zm2.811-.861l-.848-2.457c-.19-.558-.317-1.064-.443-1.558h-.025c-.127.493-.254 1.025-.432 1.545l-.836 2.47h2.584zM257.847 250.662c0-.646-.013-1.152-.051-1.659h.988l.062 1.014h.025c.305-.57 1.014-1.141 2.026-1.141.849 0 2.166.507 2.166 2.609v3.647h-1.114v-3.533c0-.988-.367-1.812-1.419-1.812-.722 0-1.292.52-1.494 1.14a1.6 1.6 0 0 0-.076.52v3.686h-1.114v-4.471zM270.008 253.448c0 .646.014 1.203.051 1.685h-.987l-.063-1.001h-.025a2.29 2.29 0 0 1-2.026 1.141c-.962 0-2.114-.545-2.114-2.686v-3.584h1.113v3.382c0 1.165.367 1.963 1.368 1.963.747 0 1.267-.52 1.47-1.026.062-.151.102-.354.102-.569v-3.749h1.113v4.444zM271.708 254.006c.342.202.925.431 1.481.431.799 0 1.178-.393 1.178-.912 0-.532-.316-.811-1.127-1.114-1.114-.405-1.633-1.001-1.633-1.735 0-.988.811-1.799 2.114-1.799.62 0 1.165.165 1.495.38l-.267.811a2.385 2.385 0 0 0-1.254-.367c-.658 0-1.013.38-1.013.836 0 .507.354.735 1.152 1.052 1.051.393 1.608.924 1.608 1.836 0 1.09-.849 1.85-2.28 1.85-.671 0-1.291-.178-1.722-.431l.268-.838z"/></g></svg>