<svg version="1.1" xmlns="http://www.w3.org/2000/svg" xmlns:xlink="http://www.w3.org/1999/xlink" x="0" y="0" width="510.236" height="467.717" viewBox="0 0 510.236 467.717" xml:space="preserve"><path fill="#6D6E71" d="M154.367 77.431h7.087v50.135h14.173V77.431h7.087l-13.89-22.503zM154.367 198.285h7.087v50.135h14.173v-50.135h7.087l-13.89-22.503zM154.367 348.252h7.087v50.136h14.173v-50.136h7.087l-13.89-22.503z"/><defs><path id="a" d="M0 0h510.236v467.717H0z"/></defs><clipPath id="b"><use xlink:href="#a" overflow="visible"/></clipPath><path clip-path="url(#b)" fill="#6D6E71" d="M476.916 30.685c.896 2.304 1.456 4.736 1.456 7.232 0 2.448-.64 4.864-1.504 7.136h2.848c.769-1.888 1.744-4.16 1.744-7.088 0-3.248-.88-5.648-1.728-7.28h-2.816zm-1.936 0h-3.328v11.52h3.328v-11.52zm-10.096 9.872c-.656 0-1.056-.288-1.056-.704 0-1.088 1.439-.832 2.528-1.36.08 1.152-.304 2.064-1.472 2.064m5.248 1.648v-.16c-.432-.352-.448-.592-.448-1.072v-3.92c0-2-.239-3.472-4.208-3.472-3.312 0-4.575 1.04-4.575 2.816h3.199c.08-.72.704-.816 1.168-.816.353 0 1.089.08 1.089.688 0 1.568-5.969-.16-5.969 3.648 0 1.744 1.408 2.528 2.992 2.528 1.248 0 2.208-.256 3.152-1.136l.16.896h3.44zm-20.255-4.096c0 2.864 2.08 4.336 4.768 4.336 2.688 0 4.769-1.44 4.769-4.512 0-2.608-1.824-4.352-4.784-4.352-2.833 0-4.753 1.616-4.753 4.528m4.8-2.288c.864-.048 1.408.88 1.408 2.112 0 1.584-.544 2.272-1.44 2.272-.848 0-1.439-.688-1.439-2.272-.001-.944.335-2.112 1.471-2.112m-15.056 6.816c.16 1.232 1.408 2.416 4.368 2.416 4.128 0 4.416-1.968 4.416-4.48v-6.752h-2.929v1.104c-.592-.816-1.535-1.344-2.544-1.344-2.752 0-3.743 2.192-3.743 4.256 0 2.144 1.327 3.968 3.647 3.968 1.2 0 1.92-.432 2.4-.912v.688c0 1.2-.385 1.632-1.345 1.632-.336 0-.575-.08-.72-.208-.144-.128-.208-.272-.208-.368h-3.342zm4.208-6.672c1.056 0 1.408.88 1.408 1.808 0 .896-.385 1.776-1.408 1.728-.896-.016-1.313-.8-1.313-1.632.001-1.088.305-1.92 1.313-1.904m-6.112 9.088c-.896-2.304-1.456-4.736-1.456-7.232 0-2.448.641-4.864 1.504-7.136h-2.848c-.768 1.888-1.744 4.16-1.744 7.088 0 3.248.88 5.648 1.729 7.28h2.815zm-11.424-5.232h-.528c-.928 0-1.04-.272-1.04-1.04v-3.04h1.601v-1.92h-1.601v-2.608h-3.279v2.608h-1.232v1.92h1.185v3.504c0 2.896.527 3.2 4.896 2.96v-2.384zm-7.088-2.8c-.24-2.48-2.353-3.44-4.592-3.44-2.769 0-4.784 1.648-4.784 4.512 0 2.832 2.08 4.352 4.784 4.352 1.168 0 2.256-.24 3.088-.784.848-.56 1.424-1.44 1.567-2.704h-3.359c-.097.656-.433 1.248-1.296 1.248-.977 0-1.456-.832-1.456-2.096 0-.992.208-2.288 1.456-2.288.368 0 .655.112.863.336.208.208.336.496.353.864h3.376zm-15.664 3.536c-.656 0-1.056-.288-1.056-.704 0-1.088 1.439-.832 2.527-1.36.081 1.152-.303 2.064-1.471 2.064m5.248 1.648v-.16c-.432-.352-.448-.592-.448-1.072v-3.92c0-2-.24-3.472-4.208-3.472-3.312 0-4.576 1.04-4.576 2.816h3.2c.08-.72.704-.816 1.168-.816.353 0 1.088.08 1.088.688 0 1.568-5.968-.16-5.968 3.648 0 1.744 1.408 2.528 2.992 2.528 1.248 0 2.208-.256 3.152-1.136l.159.896h3.441zm-15.487-2.304c-.864 0-1.36-.8-1.36-1.968 0-1.12.545-1.888 1.345-1.888.88 0 1.456.624 1.456 1.952-.001 1.152-.561 1.904-1.441 1.904m-4.624-6.08v11.232h3.328v-3.68c.561.704 1.232 1.072 2.145 1.072 1.872 0 3.92-1.2 3.92-4.496 0-2.304-1.217-4.368-3.744-4.368-.96 0-2.16.464-2.624 1.488h-.033v-1.248h-2.992zm-15.984 8.384h3.328v-4.144c0-1.008.191-1.856 1.168-1.856.88 0 1.119.496 1.119 1.728v4.272h3.328v-4.144c0-1.008.191-1.856 1.168-1.856.88 0 1.12.496 1.12 1.728v4.272h3.328v-4.96c0-2.288-.768-3.664-3.216-3.664-1.232 0-2.176.528-2.896 1.536-.399-.896-1.231-1.536-2.735-1.536-1.2 0-2.241.848-2.656 1.488v-1.248h-3.056v8.384zm-1.952-11.52h-3.776v11.52h3.776v-11.52zM444.965 147.271c.048-3.04-1.824-5.184-4.929-5.184-2.688 0-4.752 1.76-4.752 4.512 0 2.816 2.08 4.352 4.769 4.352 1.952 0 4.063-.688 4.64-2.768h-3.184c-.24.496-.72.736-1.248.736-.88 0-1.648-.656-1.648-1.648h6.352zm-6.353-1.696c0-.896.561-1.456 1.553-1.456.783 0 1.472.688 1.472 1.456h-3.025zm-19.103 5.135h3.328v-4.144c0-1.008.191-1.856 1.168-1.856.88 0 1.12.496 1.12 1.728v4.272h3.327v-4.144c0-1.008.192-1.856 1.169-1.856.88 0 1.119.496 1.119 1.728v4.272h3.328v-4.96c0-2.288-.768-3.664-3.216-3.664-1.231 0-2.176.528-2.896 1.536-.4-.896-1.232-1.536-2.736-1.536-1.2 0-2.24.848-2.656 1.488v-1.248h-3.056v8.384zm-10.832-4.095c0 2.864 2.08 4.336 4.768 4.336 2.688 0 4.769-1.44 4.769-4.512 0-2.608-1.824-4.352-4.784-4.352-2.833-.001-4.753 1.616-4.753 4.528m4.8-2.288c.864-.048 1.408.88 1.408 2.112 0 1.584-.544 2.272-1.44 2.272-.848 0-1.439-.688-1.439-2.272-.001-.944.335-2.112 1.471-2.112m-6.143 1.199c-.24-2.479-2.353-3.44-4.593-3.44-2.768 0-4.783 1.648-4.783 4.512 0 2.832 2.079 4.352 4.783 4.352 1.168 0 2.257-.24 3.089-.784.848-.56 1.424-1.44 1.567-2.704h-3.36c-.096.656-.432 1.248-1.296 1.248-.976 0-1.456-.832-1.456-2.096 0-.992.208-2.288 1.456-2.288.368 0 .656.112.864.336.208.208.336.496.353.864h3.376zm-10.688 2.801h-.528c-.928 0-1.04-.272-1.04-1.04v-3.04h1.601v-1.92h-1.601v-2.608h-3.279v2.608h-1.232v1.92h1.185v3.504c0 2.896.527 3.2 4.896 2.96v-2.384zm-7.088-6h-3.328v4.032c0 1.296-.304 2.016-1.264 2.016-.8 0-1.2-.368-1.2-1.52v-4.528h-3.328v5.104c0 2.4 1.184 3.52 3.008 3.52 1.376 0 2.192-.32 3.024-1.472v1.232h3.088v-8.384zm-16.56-3.44c-3.584 0-6.032 2.352-6.032 5.968 0 3.92 2.416 6.16 6.032 6.16 3.407 0 6.048-2.208 6.048-6.128 0-3.04-1.937-6-6.048-6m-.032 2.816c1.664-.048 2.304 1.616 2.304 3.184 0 1.904-.64 3.312-2.271 3.312-1.809 0-2.257-1.84-2.257-3.312-.001-1.456.512-3.184 2.224-3.184M426.421 290.557c.176 2.256 2.288 2.848 4.208 2.848 3.071 0 4.512-1.184 4.512-2.928 0-3.136-5.296-2.352-5.296-3.52 0-.416.368-.593.944-.593.256 0 .495.064.672.208a.872.872 0 0 1 .319.608h3.024c-.192-2.224-2.336-2.64-4.16-2.64-1.744 0-3.968.624-3.968 2.768 0 3.248 5.136 2.176 5.136 3.52 0 .593-.544.753-1.056.753-.32 0-.608-.097-.816-.257-.224-.176-.352-.432-.352-.768h-3.167zm-1.328.223h-.528c-.928 0-1.04-.271-1.04-1.04v-3.04h1.601v-1.92h-1.601v-2.607h-3.28v2.607h-1.231v1.92h1.184v3.505c0 2.896.528 3.199 4.896 2.96v-2.385zm-7.088-6h-3.328v4.032c0 1.296-.304 2.016-1.265 2.016-.8 0-1.199-.367-1.199-1.52v-4.528h-3.328v5.104c0 2.399 1.184 3.52 3.008 3.52 1.376 0 2.192-.319 3.024-1.472v1.232h3.088v-8.384zm-15.232 6.08c-.864 0-1.359-.8-1.359-1.968 0-1.12.544-1.888 1.344-1.888.88 0 1.456.624 1.456 1.952 0 1.152-.561 1.904-1.441 1.904m-4.624-6.08v11.232h3.328v-3.68c.56.703 1.232 1.071 2.144 1.071 1.872 0 3.921-1.199 3.921-4.496 0-2.304-1.217-4.367-3.744-4.367-.96 0-2.16.464-2.624 1.487h-.032v-1.248h-2.993zm-1.503 6h-.528c-.928 0-1.04-.271-1.04-1.04v-3.04h1.601v-1.92h-1.601v-2.607h-3.279v2.607h-1.232v1.92h1.185v3.505c0 2.896.527 3.199 4.896 2.96v-2.385zm-7.088-6h-3.328v4.032c0 1.296-.304 2.016-1.264 2.016-.8 0-1.2-.367-1.2-1.52v-4.528h-3.328v5.104c0 2.399 1.184 3.52 3.008 3.52 1.376 0 2.192-.319 3.024-1.472v1.232h3.088v-8.384zm-16.56-3.439c-3.584 0-6.032 2.352-6.032 5.968 0 3.92 2.416 6.16 6.032 6.16 3.407 0 6.048-2.208 6.048-6.128 0-3.04-1.937-6-6.048-6m-.032 2.815c1.664-.048 2.304 1.616 2.304 3.185 0 1.903-.64 3.312-2.271 3.312-1.809 0-2.257-1.84-2.257-3.312-.001-1.456.512-3.185 2.224-3.185M411.621 425.819c.176 2.257 2.288 2.849 4.208 2.849 3.072 0 4.512-1.185 4.512-2.928 0-3.137-5.296-2.353-5.296-3.521 0-.416.368-.592.944-.592.256 0 .496.063.672.208a.874.874 0 0 1 .32.607h3.023c-.192-2.224-2.336-2.64-4.16-2.64-1.744 0-3.968.624-3.968 2.769 0 3.247 5.136 2.176 5.136 3.52 0 .592-.544.752-1.056.752-.32 0-.608-.096-.816-.256-.224-.176-.352-.432-.352-.769h-3.167zm-1.328.225h-.528c-.928 0-1.04-.272-1.04-1.04v-3.04h1.601v-1.92h-1.601v-2.608h-3.279v2.608h-1.232v1.92h1.185v3.504c0 2.896.527 3.2 4.896 2.96v-2.384zm-7.088-6h-3.328v4.032c0 1.296-.304 2.016-1.264 2.016-.801 0-1.2-.368-1.2-1.52v-4.528h-3.328v5.104c0 2.4 1.184 3.521 3.008 3.521 1.376 0 2.192-.32 3.024-1.473v1.232h3.088v-8.384zm-15.232 6.08c-.863 0-1.359-.8-1.359-1.968 0-1.12.544-1.889 1.344-1.889.88 0 1.456.624 1.456 1.952-.001 1.153-.561 1.905-1.441 1.905m-4.624-6.08v11.231h3.328v-3.68c.561.704 1.232 1.072 2.145 1.072 1.872 0 3.92-1.2 3.92-4.496 0-2.304-1.216-4.368-3.744-4.368-.96 0-2.16.464-2.624 1.488h-.032v-1.248h-2.993zm-10.607 8.384h3.328v-4.271c0-1.072.271-1.729 1.296-1.729.943 0 1.168.736 1.168 1.568v4.432h3.328v-5.024c0-2.304-1.04-3.6-3.248-3.6-1.265 0-2.08.544-2.832 1.552v-1.312h-3.04v8.384zm-2-11.52h-3.776v11.52h3.776v-11.52z"/><path clip-path="url(#b)" fill="#9D9FA2" d="M35.312 405.475s-8.504 0-8.504 8.504v17.347s0 8.504 8.504 8.504H301.77s8.504 0 8.504-8.504v-17.347s0-8.504-8.504-8.504H35.312z"/><path clip-path="url(#b)" fill="#F1F2F2" d="M298.754 417.588c0 .841-.961 1.478-1.944 1.478-.794 0-1.142-.409-1.142-1.093 0-.792.829-.948 1.345-1.021 1.309-.168 1.573-.264 1.741-.396v1.032zm-2.894-2.196c.071-.48.239-1.212 1.44-1.212.997 0 1.478.359 1.478 1.02 0 .625-.3.721-.554.745l-1.739.216c-1.752.216-1.907 1.44-1.907 1.968 0 1.08.815 1.812 1.967 1.812 1.225 0 1.861-.575 2.27-1.02.035.48.179.959 1.113.959.24 0 .396-.071.576-.119v-.768a1.92 1.92 0 0 1-.348.049c-.216 0-.348-.108-.348-.373v-3.612c0-1.607-1.823-1.75-2.327-1.75-1.55 0-2.544.587-2.593 2.086h.972zm-10.116.733c0-.973.769-1.874 1.741-1.874 1.285 0 1.692.901 1.753 1.874h-3.494zm3.446 1.667c-.036.469-.625 1.237-1.621 1.237-1.213 0-1.825-.757-1.825-2.066h4.584c0-2.22-.887-3.657-2.699-3.657-2.077 0-3.011 1.546-3.011 3.489 0 1.813 1.042 3.145 2.807 3.145 1.009 0 1.417-.24 1.705-.432.791-.527 1.078-1.415 1.114-1.716h-1.054zm-5.738-4.307h-.994v.886h-.024c-.252-.359-.732-1.065-1.872-1.065-1.669 0-2.615 1.365-2.615 3.131 0 1.5.623 3.503 2.759 3.503.84 0 1.393-.396 1.669-.839v-.048h.024v.264c0 .743.035 2.208-1.789 2.208-.252 0-1.226 0-1.417-.996h-1.056c.204 1.667 1.656 1.871 2.4 1.871 2.903 0 2.915-2.256 2.915-3.155v-5.76zm-4.416 3.119c0-.806.084-2.354 1.717-2.354 1.525 0 1.693 1.646 1.693 2.665 0 1.668-1.045 2.113-1.717 2.113-1.153.001-1.693-1.044-1.693-2.424m-3.634.984c0 .841-.961 1.478-1.945 1.478-.793 0-1.141-.409-1.141-1.093 0-.792.829-.948 1.345-1.021 1.309-.168 1.573-.264 1.741-.396v1.032zm-2.894-2.196c.072-.48.24-1.212 1.441-1.212.997 0 1.477.359 1.477 1.02 0 .625-.3.721-.553.745l-1.74.216c-1.751.216-1.906 1.44-1.906 1.968 0 1.08.814 1.812 1.967 1.812 1.224 0 1.86-.575 2.269-1.02.036.48.179.959 1.114.959.24 0 .396-.071.576-.119v-.768c-.12.025-.252.049-.349.049-.216 0-.348-.108-.348-.373v-3.612c0-1.607-1.823-1.75-2.327-1.75-1.549 0-2.544.587-2.592 2.086h.971zm-2.496.095c0-1.787-1.222-2.182-2.194-2.182-1.08 0-1.669.729-1.897 1.065h-.023v-.886h-.994v6.274h1.054v-3.42c0-1.704 1.057-2.089 1.657-2.089 1.033 0 1.345.553 1.345 1.645v3.864h1.054v-4.271zm-7.953 2.101c0 .841-.962 1.478-1.945 1.478-.793 0-1.142-.409-1.142-1.093 0-.792.829-.948 1.346-1.021 1.309-.168 1.572-.264 1.741-.396v1.032zm-2.895-2.196c.072-.48.24-1.212 1.441-1.212.997 0 1.477.359 1.477 1.02 0 .625-.3.721-.553.745l-1.74.216c-1.751.216-1.907 1.44-1.907 1.968 0 1.08.815 1.812 1.967 1.812 1.225 0 1.861-.575 2.27-1.02.036.48.179.959 1.114.959.239 0 .396-.071.576-.119v-.768a1.93 1.93 0 0 1-.349.049c-.216 0-.348-.108-.348-.373v-3.612c0-1.607-1.823-1.75-2.327-1.75-1.549 0-2.544.587-2.592 2.086h.971zm-10.93 4.368h1.054v-3.421c0-1.703 1.057-2.088 1.657-2.088.781 0 .985.637.985 1.164v4.345h1.054v-3.828c0-.841.589-1.681 1.477-1.681.901 0 1.165.588 1.165 1.452v4.057h1.054v-4.345c0-1.763-1.27-2.109-1.942-2.109-.972 0-1.392.431-1.92 1.018-.18-.336-.54-1.018-1.668-1.018s-1.669.729-1.897 1.065h-.024v-.886h-.994v6.275zm-9.278-3.144c0-.84.312-2.401 1.825-2.401s1.825 1.562 1.825 2.401-.312 2.401-1.825 2.401c-1.513.001-1.825-1.561-1.825-2.401m-1.09 0c0 1.62.911 3.312 2.915 3.312 2.005 0 2.915-1.691 2.915-3.312 0-1.621-.91-3.311-2.915-3.311-2.004.001-2.915 1.69-2.915 3.311m-.434-2.257v-.874h-1.008v-1.752h-1.054v1.752h-.852v.874h.852v4.141c0 .756.227 1.344 1.27 1.344.108 0 .408-.049.792-.084v-.826h-.372c-.216 0-.636 0-.636-.493v-4.081h1.008zm-11.58 2.245c0-.806.084-2.354 1.717-2.354 1.525 0 1.693 1.646 1.693 2.665 0 1.668-1.045 2.113-1.717 2.113-1.153.001-1.693-1.044-1.693-2.424m4.476-5.458h-1.054v3.142l-.024.084c-.252-.359-.733-1.065-1.873-1.065-1.669 0-2.615 1.365-2.615 3.131 0 1.5.623 3.503 2.759 3.503.612 0 1.333-.192 1.789-1.043h.024v.863h.994v-8.615zm-11.052 4.979c0-.973.769-1.874 1.741-1.874 1.285 0 1.693.901 1.753 1.874h-3.494zm3.446 1.667c-.036.469-.625 1.237-1.621 1.237-1.213 0-1.825-.757-1.825-2.066h4.584c0-2.22-.887-3.657-2.699-3.657-2.077 0-3.011 1.546-3.011 3.489 0 1.813 1.042 3.145 2.807 3.145 1.008 0 1.417-.24 1.705-.432.791-.527 1.078-1.415 1.114-1.716h-1.054zm-10.214-1.188c0-.806.084-2.354 1.717-2.354 1.525 0 1.693 1.646 1.693 2.665 0 1.668-1.045 2.113-1.717 2.113-1.153.001-1.693-1.044-1.693-2.424m4.476-5.458h-1.054v3.142l-.024.084c-.252-.359-.733-1.065-1.873-1.065-1.669 0-2.615 1.365-2.615 3.131 0 1.5.623 3.503 2.759 3.503.612 0 1.333-.192 1.789-1.043h.024v.863h.994v-8.615zm-11.052 4.979c0-.973.769-1.874 1.741-1.874 1.285 0 1.693.901 1.753 1.874h-3.494zm3.446 1.667c-.036.469-.625 1.237-1.621 1.237-1.213 0-1.825-.757-1.825-2.066h4.584c0-2.22-.887-3.657-2.699-3.657-2.077 0-3.011 1.546-3.011 3.489 0 1.813 1.042 3.145 2.807 3.145 1.008 0 1.417-.24 1.705-.432.791-.527 1.078-1.415 1.114-1.716h-1.054zm-10.118-1.667c0-.973.769-1.874 1.741-1.874 1.285 0 1.693.901 1.753 1.874h-3.494zm3.446 1.667c-.036.469-.625 1.237-1.621 1.237-1.213 0-1.825-.757-1.825-2.066h4.584c0-2.22-.887-3.657-2.699-3.657-2.077 0-3.011 1.546-3.011 3.489 0 1.813 1.042 3.145 2.807 3.145 1.008 0 1.417-.24 1.705-.432.791-.527 1.078-1.415 1.114-1.716h-1.054zm-5.834-2.305c0-1.787-1.222-2.182-2.195-2.182-1.08 0-1.669.729-1.897 1.065h-.024v-.886h-.994v6.274h1.054v-3.42c0-1.704 1.057-2.089 1.657-2.089 1.033 0 1.345.553 1.345 1.645v3.864h1.054v-4.271zm-9.863-.216c0-.313-.156-1.966-2.4-1.966-1.237 0-2.375.622-2.375 2.002 0 .864.575 1.309 1.45 1.524l1.225.3c.901.229 1.249.396 1.249.9 0 .696-.685.997-1.441.997-1.489 0-1.633-.793-1.668-1.285h-1.019c.036.756.216 2.195 2.699 2.195 1.417 0 2.483-.779 2.483-2.075 0-.852-.455-1.332-1.763-1.656l-1.056-.264c-.817-.204-1.141-.325-1.141-.841 0-.78.925-.889 1.249-.889 1.333 0 1.477.66 1.489 1.057h1.019zm-6.169-4.125h-1.055v8.615h1.055v-8.615zm-3.922 6.442c0 .841-.961 1.478-1.945 1.478-.792 0-1.141-.409-1.141-1.093 0-.792.829-.948 1.345-1.021 1.309-.168 1.573-.264 1.741-.396v1.032zm-2.893-2.196c.072-.48.24-1.212 1.44-1.212.997 0 1.477.359 1.477 1.02 0 .625-.3.721-.552.745l-1.741.216c-1.751.216-1.907 1.44-1.907 1.968 0 1.08.815 1.812 1.967 1.812 1.224 0 1.861-.575 2.269-1.02.036.48.18.959 1.114.959.24 0 .396-.071.576-.119v-.768a1.92 1.92 0 0 1-.348.049c-.216 0-.348-.108-.348-.373v-3.612c0-1.607-1.822-1.75-2.327-1.75-1.548 0-2.544.587-2.592 2.086h.972zm-2.52-4.246h-1.055v1.199h1.055v-1.199zm0 2.339h-1.055v6.275h1.055v-6.275zm-4.056 2.626c0-.912.624-1.68 1.608-1.68h.396v-1.091a.858.858 0 0 0-.276-.035c-.792 0-1.344.49-1.764 1.222h-.024v-1.042h-.995v6.274h1.055v-3.648zm-7.044.014c0-.973.768-1.874 1.74-1.874 1.285 0 1.693.901 1.753 1.874h-3.493zm3.445 1.667c-.036.469-.624 1.237-1.621 1.237-1.212 0-1.824-.757-1.824-2.066h4.584c0-2.22-.887-3.657-2.699-3.657-2.077 0-3.012 1.546-3.012 3.489 0 1.813 1.043 3.145 2.807 3.145 1.009 0 1.417-.24 1.705-.432.791-.527 1.079-1.415 1.115-1.716h-1.055zm-5.065-3.433v-.874h-1.008v-1.752h-1.055v1.752h-.852v.874h.852v4.141c0 .756.228 1.344 1.271 1.344.108 0 .408-.049.792-.084v-.826h-.372c-.216 0-.636 0-.636-.493v-4.081h1.008zm-5.147 3.229c0 .841-.96 1.478-1.945 1.478-.792 0-1.14-.409-1.14-1.093 0-.792.828-.948 1.344-1.021 1.309-.168 1.573-.264 1.741-.396v1.032zm-2.893-2.196c.072-.48.24-1.212 1.44-1.212.997 0 1.477.359 1.477 1.02 0 .625-.3.721-.552.745l-1.741.216c-1.751.216-1.907 1.44-1.907 1.968 0 1.08.815 1.812 1.967 1.812 1.225 0 1.861-.575 2.269-1.02.036.48.18.959 1.115.959.24 0 .396-.071.576-.119v-.768a1.92 1.92 0 0 1-.348.049c-.216 0-.348-.108-.348-.373v-3.612c0-1.607-1.823-1.75-2.328-1.75-1.548 0-2.543.587-2.591 2.086h.971zm-10.931 4.368h1.055v-3.421c0-1.703 1.056-2.088 1.657-2.088.78 0 .984.637.984 1.164v4.345h1.055v-3.828c0-.841.588-1.681 1.476-1.681.901 0 1.165.588 1.165 1.452v4.057h1.055v-4.345c0-1.763-1.271-2.109-1.943-2.109-.973 0-1.393.431-1.921 1.018-.18-.336-.539-1.018-1.667-1.018-1.129 0-1.669.729-1.897 1.065h-.024v-.886h-.995v6.275zm-9.277-3.156c0-.806.084-2.354 1.716-2.354 1.525 0 1.693 1.646 1.693 2.665 0 1.668-1.044 2.113-1.717 2.113-1.152.001-1.692-1.044-1.692-2.424m4.476-5.458h-1.055v3.142l-.024.084c-.252-.359-.732-1.065-1.873-1.065-1.668 0-2.615 1.365-2.615 3.131 0 1.5.623 3.503 2.759 3.503.613 0 1.333-.192 1.789-1.043h.024v.863h.995v-8.615zm-6.768 4.341c0-1.787-1.223-2.182-2.195-2.182-1.081 0-1.669.729-1.897 1.065h-.024v-.886h-.995v6.274h1.055v-3.42c0-1.704 1.056-2.089 1.656-2.089 1.033 0 1.345.553 1.345 1.645v3.864h1.055v-4.271zm-7.955 2.101c0 .841-.96 1.478-1.945 1.478-.792 0-1.14-.409-1.14-1.093 0-.792.828-.948 1.344-1.021 1.309-.168 1.573-.264 1.741-.396v1.032zm-2.893-2.196c.072-.48.24-1.212 1.44-1.212.997 0 1.477.359 1.477 1.02 0 .625-.3.721-.552.745l-1.741.216c-1.751.216-1.907 1.44-1.907 1.968 0 1.08.815 1.812 1.967 1.812 1.225 0 1.861-.575 2.269-1.02.036.48.18.959 1.115.959.24 0 .396-.071.576-.119v-.768a1.92 1.92 0 0 1-.348.049c-.216 0-.348-.108-.348-.373v-3.612c0-1.607-1.823-1.75-2.327-1.75-1.549 0-2.544.587-2.592 2.086h.971zm-5.688-.121c0-.313-.156-1.966-2.4-1.966-1.236 0-2.375.622-2.375 2.002 0 .864.575 1.309 1.451 1.524l1.225.3c.9.229 1.248.396 1.248.9 0 .696-.684.997-1.441.997-1.488 0-1.632-.793-1.668-1.285h-1.019c.036.756.216 2.195 2.699 2.195 1.417 0 2.484-.779 2.484-2.075 0-.852-.456-1.332-1.763-1.656l-1.057-.264c-.816-.204-1.14-.325-1.14-.841 0-.78.924-.889 1.248-.889 1.333 0 1.477.66 1.489 1.057h1.019zm-10.428.854c0-.973.768-1.874 1.74-1.874 1.285 0 1.693.901 1.753 1.874h-3.493zm3.445 1.667c-.036.469-.624 1.237-1.621 1.237-1.212 0-1.824-.757-1.824-2.066h4.584c0-2.22-.887-3.657-2.7-3.657-2.076 0-3.011 1.546-3.011 3.489 0 1.813 1.043 3.145 2.807 3.145 1.009 0 1.417-.24 1.705-.432.791-.527 1.079-1.415 1.115-1.716h-1.055zm-5.329-2.196c-.084-1.093-.708-2.29-2.352-2.29-2.076 0-3.011 1.546-3.011 3.49 0 1.813 1.043 3.144 2.807 3.144 1.836 0 2.448-1.403 2.556-2.399h-1.02c-.18.96-.792 1.489-1.5 1.489-1.452 0-1.716-1.333-1.716-2.413 0-1.117.42-2.365 1.728-2.365.888 0 1.356.504 1.488 1.345h1.02zm-7.787 1.992c0 .841-.96 1.478-1.945 1.478-.792 0-1.14-.409-1.14-1.093 0-.792.828-.948 1.344-1.021 1.309-.168 1.573-.264 1.741-.396v1.032zm-2.893-2.196c.072-.48.24-1.212 1.44-1.212.997 0 1.477.359 1.477 1.02 0 .625-.3.721-.552.745l-1.741.216c-1.751.216-1.907 1.44-1.907 1.968 0 1.08.815 1.812 1.967 1.812 1.225 0 1.861-.575 2.269-1.02.036.48.18.959 1.115.959.24 0 .396-.071.576-.119v-.768a1.92 1.92 0 0 1-.348.049c-.216 0-.348-.108-.348-.373v-3.612c0-1.607-1.823-1.75-2.327-1.75-1.549 0-2.544.587-2.592 2.086h.971zm-2.52-4.246h-1.054v8.615h1.054v-8.615zm-7.835 11.097h1.055V419.1h.024c.276.443.828.839 1.669.839 2.136 0 2.759-2.003 2.759-3.503 0-1.766-.947-3.131-2.615-3.131-1.141 0-1.621.706-1.873 1.065h-.024v-.886h-.995v8.759zm1.007-5.327c0-1.02.168-2.665 1.693-2.665 1.632 0 1.716 1.548 1.716 2.354 0 1.38-.54 2.425-1.692 2.425-.673-.001-1.717-.446-1.717-2.114m-7.331 2.844h.636c0 .563-.132 1.163-.636 1.212v.552c.24-.036 1.247-.229 1.247-1.86v-1.174h-1.247v1.27zm-5.929-3.635c0-.973.768-1.874 1.741-1.874 1.284 0 1.692.901 1.752 1.874h-3.493zm3.445 1.667c-.036.469-.624 1.237-1.62 1.237-1.213 0-1.825-.757-1.825-2.066h4.584c0-2.22-.887-3.657-2.699-3.657-2.077 0-3.012 1.546-3.012 3.489 0 1.813 1.043 3.145 2.808 3.145 1.008 0 1.416-.24 1.704-.432.791-.527 1.079-1.415 1.115-1.716h-1.055zm-5.857-6.646h-1.054v8.615h1.054v-8.615zm-7.834 11.097h1.054V419.1h.024c.276.443.828.839 1.669.839 2.136 0 2.759-2.003 2.759-3.503 0-1.766-.947-3.131-2.615-3.131-1.141 0-1.621.706-1.873 1.065h-.024v-.886h-.994v8.759zm1.006-5.327c0-1.02.168-2.665 1.693-2.665 1.632 0 1.717 1.548 1.717 2.354 0 1.38-.541 2.425-1.693 2.425-.673-.001-1.717-.446-1.717-2.114m-6.864-.3c0-.84.312-2.401 1.825-2.401 1.512 0 1.825 1.562 1.825 2.401s-.313 2.401-1.825 2.401c-1.513.001-1.825-1.561-1.825-2.401m-1.09 0c0 1.62.91 3.312 2.915 3.312 2.004 0 2.915-1.691 2.915-3.312 0-1.621-.911-3.311-2.915-3.311-2.005.001-2.915 1.69-2.915 3.311m-5.486-.491c0-.973.768-1.874 1.741-1.874 1.284 0 1.693.901 1.753 1.874h-3.494zm3.446 1.667c-.036.469-.625 1.237-1.621 1.237-1.213 0-1.825-.757-1.825-2.066h4.584c0-2.22-.887-3.657-2.699-3.657-2.077 0-3.011 1.546-3.011 3.489 0 1.813 1.042 3.145 2.807 3.145 1.008 0 1.416-.24 1.704-.432.792-.527 1.079-1.415 1.115-1.716h-1.054zm-10.262-1.669h2.713c1.872 0 2.555-1.354 2.555-2.555 0-1.393-.959-2.423-2.555-2.423H35.45v8.614h1.163v-3.636zm0-3.983h2.365c.96 0 1.705.348 1.705 1.44 0 1.164-.709 1.549-1.753 1.549h-2.317v-2.989z"/><text transform="translate(300.504 419.76)" fill="#F1F2F2" font-family="'HelveticaLTStd-Roman'" font-size="12"></text><defs><path id="c" d="M0 0h510.236v467.717H0z"/></defs><clipPath id="d"><use xlink:href="#c" overflow="visible"/></clipPath><path clip-path="url(#d)" fill="#F1F2F2" d="M224.491 429.671c0-.312-.156-1.966-2.4-1.966-1.236 0-2.375.622-2.375 2.002 0 .865.575 1.31 1.451 1.525l1.224.3c.901.229 1.249.396 1.249.9 0 .695-.684.997-1.441.997-1.488 0-1.632-.793-1.668-1.285h-1.019c.036.756.216 2.194 2.699 2.194 1.417 0 2.484-.778 2.484-2.074 0-.853-.456-1.332-1.763-1.656l-1.057-.264c-.816-.204-1.14-.325-1.14-.842 0-.779.924-.888 1.248-.888 1.333 0 1.477.66 1.489 1.056h1.019zm-11.339 6.973h1.055V433.5h.024c.276.444.828.839 1.668.839 2.137 0 2.76-2.003 2.76-3.503 0-1.765-.947-3.131-2.616-3.131-1.14 0-1.62.706-1.872 1.066h-.024v-.887h-.995v8.76zm1.007-5.328c0-1.021.168-2.665 1.692-2.665 1.633 0 1.717 1.548 1.717 2.353 0 1.381-.54 2.426-1.693 2.426-.672 0-1.716-.446-1.716-2.114m-6.864-.299c0-.84.312-2.401 1.824-2.401 1.513 0 1.825 1.562 1.825 2.401s-.312 2.4-1.825 2.4c-1.512 0-1.824-1.561-1.824-2.4m-1.091 0c0 1.62.911 3.311 2.915 3.311 2.005 0 2.916-1.69 2.916-3.311s-.911-3.312-2.916-3.312c-2.004 0-2.915 1.691-2.915 3.312m-1.201-1.129c0-1.787-1.223-2.183-2.195-2.183-1.009 0-1.537.623-1.837 1.019h-.024v-3.179h-1.055v8.614h1.055v-3.42c0-1.584.888-2.088 1.753-2.088 1.008 0 1.248.552 1.248 1.404v4.104h1.055v-4.271zm-6.528-.217c0-.312-.156-1.966-2.4-1.966-1.236 0-2.375.622-2.375 2.002 0 .865.575 1.31 1.451 1.525l1.225.3c.9.229 1.248.396 1.248.9 0 .695-.684.997-1.441.997-1.488 0-1.632-.793-1.668-1.285h-1.019c.036.756.216 2.194 2.699 2.194 1.417 0 2.484-.778 2.484-2.074 0-.853-.456-1.332-1.763-1.656l-1.057-.264c-.816-.204-1.14-.325-1.14-.842 0-.779.924-.888 1.248-.888 1.333 0 1.477.66 1.489 1.056h1.019zm-7.896.554l2.4-2.34h-1.344l-2.7 2.651v-4.991h-1.019v8.614h1.019v-2.375l.876-.792 1.956 3.167h1.356l-2.544-3.934zm-5.664.287c0-.912.624-1.681 1.608-1.681h.396v-1.09a.827.827 0 0 0-.276-.036c-.792 0-1.344.491-1.764 1.223h-.024v-1.043h-.995v6.274h1.055v-3.647zm-7.14.505c0-.84.312-2.401 1.825-2.401 1.512 0 1.824 1.562 1.824 2.401s-.312 2.4-1.824 2.4c-1.513 0-1.825-1.561-1.825-2.4m-1.091 0c0 1.62.911 3.311 2.916 3.311 2.004 0 2.915-1.69 2.915-3.311s-.911-3.312-2.915-3.312c-2.005 0-2.916 1.691-2.916 3.312m-4.668-1.718h.024l1.271 4.86h1.092l1.824-6.274h-1.056l-1.272 4.933h-.024l-1.223-4.933h-1.176l-1.212 4.933h-.024l-1.2-4.933h-1.152l1.812 6.274h1.092l1.224-4.86zm-7.825-.539v-.875h-1.056v-.78c0-.505.168-.733.624-.733.132 0 .3.012.432.024v-.947a6.728 6.728 0 0 0-.48-.022c-1.031 0-1.631.431-1.631 1.378v1.081h-.864v.875h.864v5.399h1.055v-5.399h1.056zm-8.304 2.257c0-.84.312-2.401 1.825-2.401 1.512 0 1.824 1.562 1.824 2.401s-.312 2.4-1.824 2.4c-1.513 0-1.825-1.561-1.825-2.4m-1.091 0c0 1.62.911 3.311 2.916 3.311 2.004 0 2.915-1.69 2.915-3.311s-.911-3.312-2.915-3.312c-2.005 0-2.916 1.691-2.916 3.312m-5.773-.505c0-.912.624-1.681 1.608-1.681h.396v-1.09a.827.827 0 0 0-.276-.036c-.792 0-1.344.491-1.764 1.223h-.024v-1.043h-.995v6.274h1.055v-3.647zm-7.044.012c0-.972.768-1.873 1.741-1.873 1.284 0 1.692.901 1.752 1.873h-3.493zm3.445 1.668c-.036.468-.624 1.237-1.62 1.237-1.213 0-1.825-.758-1.825-2.066h4.584c0-2.22-.887-3.658-2.699-3.658-2.077 0-3.012 1.546-3.012 3.49 0 1.813 1.043 3.144 2.808 3.144 1.008 0 1.416-.239 1.704-.431.792-.528 1.079-1.416 1.115-1.716h-1.055zm-6.612-1.189c0 1.382-.54 2.427-1.692 2.427-.673 0-1.717-.445-1.717-2.113 0-1.021.168-2.665 1.693-2.665 1.632-.001 1.716 1.547 1.716 2.351m-3.421 3.156v-.779h.024c.216.349.66.959 1.729.959 2.136 0 2.759-2.003 2.759-3.503 0-1.765-.947-3.131-2.615-3.131-.733.011-1.357.312-1.813.971h-.024v-3.131h-1.055v8.614h.995zm-10.906 0h1.054v-3.42c0-1.704 1.057-2.088 1.657-2.088.78 0 .985.636.985 1.164v4.344h1.054v-3.828c0-.84.588-1.68 1.477-1.68.9 0 1.165.588 1.165 1.452v4.056h1.054v-4.344c0-1.763-1.271-2.11-1.943-2.11-.972 0-1.393.432-1.921 1.019-.179-.336-.539-1.019-1.667-1.019-1.129 0-1.669.73-1.897 1.066h-.024v-.887h-.994v6.275zm-1.586 0v-6.274h-1.054v3.456c0 .912-.397 2.089-1.729 2.089-.685 0-1.213-.35-1.213-1.382v-4.163h-1.054v4.513c0 1.499 1.114 1.941 2.039 1.941 1.008 0 1.548-.383 1.993-1.113l.023.023v.91h.995zm-6.528-4.271c0-1.787-1.223-2.183-2.195-2.183-1.081 0-1.669.73-1.897 1.066h-.024v-.887h-.995v6.274h1.055v-3.419c0-1.705 1.057-2.089 1.657-2.089 1.032 0 1.344.552 1.344 1.644v3.864h1.055v-4.27z"/><path clip-path="url(#d)" fill="#9D9FA2" d="M35.312 255.507s-8.504 0-8.504 8.505v46.266s0 8.504 8.504 8.504H301.77s8.504 0 8.504-8.504v-46.266s0-8.505-8.504-8.505H35.312z"/><path clip-path="url(#d)" fill="#F1F2F2" d="M286.746 266.263c0-.912.624-1.68 1.608-1.68h.396v-1.091a.884.884 0 0 0-.275-.035c-.792 0-1.344.49-1.764 1.223h-.024v-1.043h-.995v6.273h1.055v-3.647zm-7.044.013c0-.973.769-1.874 1.741-1.874 1.284 0 1.692.901 1.752 1.874h-3.493zm3.445 1.667c-.036.468-.624 1.237-1.62 1.237-1.213 0-1.825-.757-1.825-2.066h4.584c0-2.219-.887-3.657-2.698-3.657-2.077 0-3.013 1.547-3.013 3.49 0 1.813 1.043 3.144 2.809 3.144 1.008 0 1.416-.239 1.704-.432.792-.526 1.078-1.416 1.114-1.716h-1.055zm-6.612-1.188c0 1.382-.54 2.426-1.691 2.426-.673 0-1.717-.444-1.717-2.113 0-1.02.168-2.665 1.692-2.665 1.632-.001 1.716 1.547 1.716 2.352m-3.421 3.155v-.777h.024c.216.347.66.958 1.729.958 2.137 0 2.76-2.002 2.76-3.503 0-1.765-.947-3.131-2.615-3.131-.733.012-1.357.312-1.813.97h-.023v-3.13h-1.056v8.613h.994zm-10.905 0h1.054v-3.42c0-1.704 1.057-2.088 1.657-2.088.779 0 .984.637.984 1.164v4.344h1.055v-3.827c0-.841.588-1.681 1.477-1.681.9 0 1.165.588 1.165 1.452v4.056h1.054v-4.344c0-1.763-1.271-2.109-1.942-2.109-.974 0-1.394.431-1.922 1.018-.179-.335-.538-1.018-1.667-1.018s-1.669.73-1.896 1.065h-.024v-.886h-.993v6.274zm-1.587 0v-6.273h-1.054v3.456c0 .912-.396 2.088-1.729 2.088-.686 0-1.213-.348-1.213-1.38v-4.164h-1.055v4.512c0 1.499 1.114 1.942 2.039 1.942 1.008 0 1.548-.383 1.992-1.114l.024.024v.909h.996zm-6.527-4.271c0-1.787-1.223-2.182-2.195-2.182-1.081 0-1.669.73-1.897 1.065h-.024v-.886h-.995v6.273h1.055v-3.419c0-1.705 1.057-2.089 1.657-2.089 1.032 0 1.344.553 1.344 1.645v3.863h1.055v-4.27zm-14.388 1.117c0-.805.084-2.354 1.717-2.354 1.524 0 1.693 1.646 1.693 2.665 0 1.669-1.045 2.113-1.717 2.113-1.153.001-1.693-1.043-1.693-2.424m4.476-5.459h-1.054v3.142l-.025.084c-.252-.358-.732-1.065-1.872-1.065-1.669 0-2.616 1.366-2.616 3.131 0 1.501.624 3.503 2.76 3.503.612 0 1.332-.191 1.788-1.042h.024v.861h.995v-8.614zm-6.768 4.342c0-1.787-1.223-2.182-2.195-2.182-1.081 0-1.669.73-1.897 1.065h-.024v-.886h-.995v6.273h1.055v-3.419c0-1.705 1.057-2.089 1.657-2.089 1.032 0 1.344.553 1.344 1.645v3.863h1.055v-4.27zm-7.955 2.101c0 .841-.961 1.477-1.945 1.477-.793 0-1.141-.408-1.141-1.092 0-.793.828-.949 1.345-1.021 1.308-.168 1.572-.264 1.741-.396v1.032zm-2.894-2.196c.072-.48.24-1.213 1.441-1.213.996 0 1.476.36 1.476 1.021 0 .624-.3.72-.552.744l-1.741.216c-1.751.216-1.906 1.441-1.906 1.969 0 1.08.814 1.811 1.966 1.811 1.225 0 1.861-.575 2.269-1.019.036.479.18.958 1.115.958.24 0 .396-.07.576-.119v-.767c-.12.024-.252.048-.348.048-.216 0-.348-.107-.348-.372v-3.612c0-1.607-1.823-1.751-2.327-1.751-1.549 0-2.544.587-2.592 2.087h.971zm-10.212 1.212c0-.805.084-2.354 1.717-2.354 1.524 0 1.693 1.646 1.693 2.665 0 1.669-1.045 2.113-1.717 2.113-1.152.001-1.693-1.043-1.693-2.424m4.477-5.459h-1.054v3.142l-.024.084c-.253-.358-.733-1.065-1.873-1.065-1.669 0-2.615 1.366-2.615 3.131 0 1.501.623 3.503 2.759 3.503.612 0 1.332-.191 1.788-1.042h.024v.861h.995v-8.614zm-11.053 4.979c0-.973.768-1.874 1.741-1.874 1.284 0 1.692.901 1.753 1.874h-3.494zm3.446 1.667c-.036.468-.624 1.237-1.62 1.237-1.213 0-1.825-.757-1.825-2.066h4.584c0-2.219-.887-3.657-2.699-3.657-2.077 0-3.011 1.547-3.011 3.49 0 1.813 1.042 3.144 2.807 3.144 1.008 0 1.416-.239 1.704-.432.792-.526 1.079-1.416 1.115-1.716h-1.055zm-5.065-3.432v-.874h-1.008v-1.752h-1.055v1.752h-.852v.874h.852v4.142c0 .755.228 1.342 1.271 1.342.108 0 .408-.047.792-.083v-.826h-.372c-.216 0-.636 0-.636-.492v-4.082h1.008zm-3.361 1.237c-.084-1.093-.708-2.291-2.352-2.291-2.076 0-3.011 1.547-3.011 3.49 0 1.813 1.043 3.144 2.807 3.144 1.836 0 2.448-1.402 2.556-2.398h-1.02c-.18.96-.792 1.488-1.5 1.488-1.452 0-1.716-1.332-1.716-2.413 0-1.116.42-2.365 1.728-2.365.888 0 1.356.505 1.488 1.346h1.02zm-6.527 4.162v-6.273h-1.055v3.456c0 .912-.396 2.088-1.729 2.088-.684 0-1.212-.348-1.212-1.38v-4.164h-1.055v4.512c0 1.499 1.115 1.942 2.039 1.942 1.009 0 1.549-.383 1.993-1.114l.024.024v.909h.995zm-11.028-3.154c0-.805.084-2.354 1.717-2.354 1.524 0 1.692 1.646 1.692 2.665 0 1.669-1.044 2.113-1.716 2.113-1.153.001-1.693-1.043-1.693-2.424m4.475-5.459h-1.055v3.142l-.024.084c-.252-.358-.732-1.065-1.872-1.065-1.669 0-2.616 1.366-2.616 3.131 0 1.501.624 3.503 2.76 3.503.612 0 1.332-.191 1.788-1.042h.024v.861h.995v-8.614zm-6.767 4.342c0-1.787-1.223-2.182-2.195-2.182-1.081 0-1.669.73-1.897 1.065h-.024v-.886h-.995v6.273h1.055v-3.419c0-1.705 1.056-2.089 1.657-2.089 1.032 0 1.344.553 1.344 1.645v3.863h1.055v-4.27zm-11.053 1.129c0-.84.312-2.401 1.825-2.401 1.512 0 1.824 1.562 1.824 2.401 0 .841-.312 2.401-1.824 2.401-1.513 0-1.825-1.561-1.825-2.401m-1.09 0c0 1.621.911 3.311 2.916 3.311 2.004 0 2.915-1.689 2.915-3.311 0-1.62-.911-3.311-2.915-3.311-2.006 0-2.916 1.69-2.916 3.311m-.698-1.02c-.084-1.093-.708-2.291-2.352-2.291-2.076 0-3.011 1.547-3.011 3.49 0 1.813 1.043 3.144 2.807 3.144 1.836 0 2.448-1.402 2.556-2.398h-1.02c-.18.96-.792 1.488-1.5 1.488-1.452 0-1.716-1.332-1.716-2.413 0-1.116.42-2.365 1.728-2.365.888 0 1.356.505 1.488 1.346h1.02zm-9.695-.324c0-.313-.156-1.967-2.399-1.967-1.237 0-2.376.623-2.376 2.003 0 .863.576 1.308 1.451 1.523l1.225.3c.9.229 1.248.397 1.248.901 0 .696-.684.996-1.44.996-1.489 0-1.633-.792-1.669-1.284h-1.019c.036.756.216 2.194 2.7 2.194 1.416 0 2.483-.778 2.483-2.074 0-.853-.455-1.333-1.763-1.657l-1.057-.264c-.816-.204-1.14-.324-1.14-.84 0-.78.924-.89 1.249-.89 1.332 0 1.476.661 1.488 1.058h1.019zm-11.339 6.971h1.055v-3.142h.024c.276.442.828.838 1.669.838 2.136 0 2.759-2.002 2.759-3.503 0-1.765-.947-3.131-2.615-3.131-1.141 0-1.621.707-1.873 1.065h-.024v-.886h-.995v8.759zm1.007-5.328c0-1.02.168-2.665 1.693-2.665 1.632 0 1.716 1.549 1.716 2.354 0 1.381-.54 2.425-1.692 2.425-.674 0-1.717-.445-1.717-2.114m-6.865-.299c0-.84.312-2.401 1.825-2.401 1.512 0 1.824 1.562 1.824 2.401 0 .841-.312 2.401-1.824 2.401-1.513 0-1.825-1.561-1.825-2.401m-1.091 0c0 1.621.911 3.311 2.916 3.311 2.004 0 2.915-1.689 2.915-3.311 0-1.62-.911-3.311-2.915-3.311s-2.916 1.69-2.916 3.311m-1.201-1.129c0-1.787-1.223-2.182-2.195-2.182-1.009 0-1.537.623-1.837 1.018h-.024v-3.178h-1.055v8.613h1.055v-3.42c0-1.584.888-2.088 1.753-2.088 1.008 0 1.248.553 1.248 1.404v4.104h1.055v-4.271zm-6.528-.215c0-.313-.156-1.967-2.399-1.967-1.237 0-2.376.623-2.376 2.003 0 .863.576 1.308 1.451 1.523l1.225.3c.9.229 1.248.397 1.248.901 0 .696-.684.996-1.44.996-1.489 0-1.633-.792-1.669-1.284h-1.019c.036.756.216 2.194 2.7 2.194 1.416 0 2.483-.778 2.483-2.074 0-.853-.455-1.333-1.763-1.657l-1.057-.264c-.816-.204-1.14-.324-1.14-.84 0-.78.924-.89 1.249-.89 1.332 0 1.476.661 1.488 1.058h1.019zm-7.896.552l2.4-2.339h-1.344l-2.7 2.65v-4.99h-1.019v8.613h1.019v-2.375l.876-.792 1.956 3.167h1.356l-2.544-3.934zm-5.664.287c0-.912.624-1.68 1.608-1.68h.396v-1.091a.887.887 0 0 0-.276-.035c-.792 0-1.344.49-1.764 1.223h-.024v-1.043h-.994v6.273h1.054v-3.647zm-7.139.505c0-.84.312-2.401 1.825-2.401 1.512 0 1.825 1.562 1.825 2.401 0 .841-.313 2.401-1.825 2.401-1.513 0-1.825-1.561-1.825-2.401m-1.091 0c0 1.621.91 3.311 2.915 3.311 2.004 0 2.915-1.689 2.915-3.311 0-1.62-.911-3.311-2.915-3.311s-2.915 1.69-2.915 3.311m-4.669-1.717h.024l1.272 4.859h1.091l1.824-6.273h-1.056l-1.271 4.932h-.024l-1.224-4.932h-1.176l-1.212 4.932h-.024l-1.2-4.932h-1.151l1.811 6.273h1.092l1.224-4.859zm-7.825-.54v-.874h-1.056v-.781c0-.504.168-.732.624-.732.132 0 .3.013.432.024v-.948a6.745 6.745 0 0 0-.48-.023c-1.031 0-1.63.431-1.63 1.379v1.081h-.864v.874h.864v5.399h1.054v-5.399h1.056zm-8.303 2.257c0-.84.312-2.401 1.825-2.401s1.825 1.562 1.825 2.401c0 .841-.312 2.401-1.825 2.401s-1.825-1.561-1.825-2.401m-1.09 0c0 1.621.91 3.311 2.915 3.311 2.004 0 2.915-1.689 2.915-3.311 0-1.62-.911-3.311-2.915-3.311-2.006 0-2.915 1.69-2.915 3.311m-5.775-.505c0-.912.624-1.68 1.608-1.68h.396v-1.091a.887.887 0 0 0-.276-.035c-.792 0-1.344.49-1.764 1.223h-.024v-1.043h-.994v6.273h1.054v-3.647zm-7.044.013c0-.973.769-1.874 1.741-1.874 1.285 0 1.693.901 1.753 1.874h-3.494zm3.447 1.667c-.036.468-.625 1.237-1.621 1.237-1.213 0-1.825-.757-1.825-2.066h4.584c0-2.219-.887-3.657-2.699-3.657-2.077 0-3.011 1.547-3.011 3.49 0 1.813 1.042 3.144 2.807 3.144 1.008 0 1.417-.239 1.705-.432.791-.526 1.078-1.416 1.114-1.716h-1.054zm-6.613-1.188c0 1.382-.541 2.426-1.693 2.426-.672 0-1.717-.444-1.717-2.113 0-1.02.168-2.665 1.693-2.665 1.633-.001 1.717 1.547 1.717 2.352m-3.422 3.155v-.777h.024c.216.347.661.958 1.729.958 2.136 0 2.759-2.002 2.759-3.503 0-1.765-.946-3.131-2.615-3.131-.732.012-1.357.312-1.813.97h-.024v-3.13H72.32v8.613h.994zm-10.905 0h1.054v-3.42c0-1.704 1.057-2.088 1.657-2.088.781 0 .985.637.985 1.164v4.344h1.054v-3.827c0-.841.589-1.681 1.477-1.681.901 0 1.165.588 1.165 1.452v4.056h1.054v-4.344c0-1.763-1.27-2.109-1.943-2.109-.972 0-1.392.431-1.92 1.018-.18-.335-.54-1.018-1.668-1.018s-1.669.73-1.897 1.065h-.024v-.886h-.994v6.274zm-1.587 0v-6.273h-1.054v3.456c0 .912-.396 2.088-1.729 2.088-.684 0-1.213-.348-1.213-1.38v-4.164h-1.054v4.512c0 1.499 1.114 1.942 2.039 1.942 1.008 0 1.549-.383 1.993-1.114l.024.024v.909h.994zm-7.905-1.653h-.024l-4.309-6.96h-1.379v8.613h1.126v-6.96h.025l4.381 6.96h1.306v-8.613h-1.126v6.96z"/><text transform="translate(288.75 269.912)" fill="#F1F2F2" font-family="'HelveticaLTStd-Roman'" font-size="12"></text><defs><path id="e" d="M0 0h510.236v467.717H0z"/></defs><clipPath id="f"><use xlink:href="#e" overflow="visible"/></clipPath><path clip-path="url(#f)" fill="#F1F2F2" d="M283.706 278.911v-.874h-1.057v-.781c0-.505.168-.733.624-.733.133 0 .301.013.433.024v-.946a6.745 6.745 0 0 0-.48-.023c-1.031 0-1.63.431-1.63 1.379v1.081h-.864v.874h.864v5.399h1.054v-5.399h1.056zm-8.305 2.257c0-.84.313-2.401 1.825-2.401 1.514 0 1.825 1.562 1.825 2.401s-.312 2.401-1.825 2.401c-1.512 0-1.825-1.561-1.825-2.401m-1.089 0c0 1.62.911 3.311 2.915 3.311 2.005 0 2.915-1.69 2.915-3.311s-.91-3.312-2.915-3.312c-2.004 0-2.915 1.692-2.915 3.312m-5.774-.505c0-.912.624-1.681 1.607-1.681h.396v-1.09a.887.887 0 0 0-.276-.036c-.792 0-1.344.491-1.764 1.223h-.023v-1.042h-.995v6.273h1.055v-3.647zm-7.044.014c0-.973.769-1.874 1.74-1.874 1.285 0 1.693.901 1.754 1.874h-3.494zm3.445 1.667c-.036.468-.624 1.237-1.621 1.237-1.212 0-1.824-.757-1.824-2.066h4.584c0-2.219-.887-3.658-2.699-3.658-2.076 0-3.011 1.548-3.011 3.491 0 1.813 1.043 3.144 2.807 3.144 1.009 0 1.417-.239 1.705-.432.791-.526 1.079-1.416 1.115-1.716h-1.056zm-6.611-1.189c0 1.381-.54 2.426-1.693 2.426-.672 0-1.716-.444-1.716-2.113 0-1.02.168-2.665 1.691-2.665 1.634 0 1.718 1.548 1.718 2.352m-3.421 3.156v-.777h.024c.216.347.66.958 1.729.958 2.136 0 2.759-2.003 2.759-3.503 0-1.766-.946-3.132-2.615-3.132-.732.013-1.355.312-1.813.971h-.024v-3.13h-1.054v8.613h.994zm-10.907 0h1.055v-3.42c0-1.704 1.056-2.088 1.656-2.088.781 0 .985.636.985 1.164v4.344h1.055v-3.828c0-.84.588-1.68 1.476-1.68.901 0 1.165.588 1.165 1.452v4.056h1.055v-4.344c0-1.763-1.271-2.11-1.943-2.11-.973 0-1.393.432-1.921 1.019-.18-.335-.539-1.019-1.667-1.019-1.129 0-1.669.731-1.897 1.066h-.024v-.886H244v6.274zm-1.585 0v-6.273h-1.055v3.456c0 .912-.396 2.088-1.729 2.088-.684 0-1.212-.349-1.212-1.38v-4.164h-1.055v4.512c0 1.499 1.115 1.942 2.039 1.942 1.009 0 1.549-.384 1.993-1.114l.024.024v.909h.995zm-7.907-1.654h-.024l-4.309-6.96h-1.379v8.613h1.127v-6.96h.024l4.381 6.96h1.307v-8.613h-1.127v6.96zm-10.285.384h-1.246v1.27h1.246v-1.27zm-2.748-3.217c0-.313-.156-1.968-2.4-1.968-1.236 0-2.375.623-2.375 2.004 0 .863.575 1.308 1.451 1.523l1.225.3c.9.229 1.248.396 1.248.9 0 .697-.684.997-1.441.997-1.488 0-1.632-.793-1.668-1.285h-1.019c.036.757.216 2.195 2.699 2.195 1.417 0 2.484-.778 2.484-2.075 0-.853-.456-1.332-1.763-1.656l-1.057-.264c-.816-.204-1.14-.324-1.14-.84 0-.781.924-.89 1.248-.89 1.333 0 1.477.66 1.489 1.058h1.019zm-11.339 6.971h1.055v-3.142h.024c.276.442.828.838 1.668.838 2.137 0 2.76-2.003 2.76-3.503 0-1.766-.947-3.132-2.615-3.132-1.141 0-1.621.707-1.873 1.066h-.024v-.886h-.995v8.759zm1.007-5.327c0-1.02.168-2.665 1.692-2.665 1.633 0 1.717 1.549 1.717 2.354 0 1.38-.54 2.425-1.693 2.425-.672-.001-1.716-.445-1.716-2.114m-6.864-.3c0-.84.312-2.401 1.824-2.401 1.513 0 1.825 1.562 1.825 2.401s-.312 2.401-1.825 2.401c-1.512 0-1.824-1.561-1.824-2.401m-1.091 0c0 1.62.911 3.311 2.915 3.311 2.005 0 2.916-1.69 2.916-3.311s-.911-3.312-2.916-3.312c-2.004 0-2.915 1.692-2.915 3.312m-1.201-1.129c0-1.787-1.223-2.183-2.195-2.183-1.009 0-1.537.623-1.837 1.019h-.024v-3.178h-1.055v8.613h1.055v-3.42c0-1.584.888-2.088 1.753-2.088 1.008 0 1.248.552 1.248 1.404v4.104h1.055v-4.271zm-6.528-.215c0-.313-.156-1.968-2.4-1.968-1.236 0-2.375.623-2.375 2.004 0 .863.575 1.308 1.451 1.523l1.225.3c.9.229 1.248.396 1.248.9 0 .697-.684.997-1.441.997-1.488 0-1.632-.793-1.668-1.285h-1.019c.036.757.216 2.195 2.699 2.195 1.417 0 2.484-.778 2.484-2.075 0-.853-.456-1.332-1.763-1.656l-1.057-.264c-.816-.204-1.14-.324-1.14-.84 0-.781.924-.89 1.248-.89 1.333 0 1.477.66 1.489 1.058h1.019zm-7.896.552l2.4-2.339h-1.344l-2.7 2.65v-4.99H184.9v8.613h1.019v-2.375l.876-.792 1.956 3.167h1.356l-2.544-3.934zm-5.664.287c0-.912.624-1.681 1.608-1.681h.396v-1.09a.883.883 0 0 0-.276-.036c-.792 0-1.344.491-1.764 1.223h-.024v-1.042h-.995v6.273h1.055v-3.647zm-7.14.505c0-.84.312-2.401 1.825-2.401 1.512 0 1.824 1.562 1.824 2.401s-.312 2.401-1.824 2.401c-1.513 0-1.825-1.561-1.825-2.401m-1.091 0c0 1.62.911 3.311 2.916 3.311 2.004 0 2.915-1.69 2.915-3.311s-.911-3.312-2.915-3.312c-2.005 0-2.916 1.692-2.916 3.312M169 279.451h.024l1.271 4.859h1.092l1.824-6.273h-1.056l-1.272 4.932h-.024l-1.223-4.932h-1.176l-1.212 4.932h-.024l-1.2-4.932h-1.152l1.812 6.273h1.092l1.224-4.859zm-12.697 1.226c0-.973.768-1.874 1.741-1.874 1.284 0 1.692.901 1.752 1.874h-3.493zm3.445 1.667c-.036.468-.624 1.237-1.62 1.237-1.213 0-1.825-.757-1.825-2.066h4.584c0-2.219-.887-3.658-2.699-3.658-2.077 0-3.012 1.548-3.012 3.491 0 1.813 1.043 3.144 2.808 3.144 1.008 0 1.416-.239 1.704-.432.791-.526 1.079-1.416 1.115-1.716h-1.055zm-5.833-2.305c0-1.787-1.223-2.183-2.195-2.183-1.009 0-1.537.623-1.837 1.019h-.024v-3.178h-1.055v8.613h1.055v-3.42c0-1.584.888-2.088 1.753-2.088 1.008 0 1.248.552 1.248 1.404v4.104h1.055v-4.271zm-6.144-1.128v-.874h-1.008v-1.752h-1.055v1.752h-.852v.874h.852v4.142c0 .755.228 1.342 1.271 1.342.108 0 .408-.048.792-.084v-.825h-.372c-.216 0-.636 0-.636-.492v-4.082h1.008zm-6.672 0v-.874h-1.008v-1.752h-1.055v1.752h-.852v.874h.852v4.142c0 .755.228 1.342 1.271 1.342.108 0 .408-.048.792-.084v-.825h-.372c-.216 0-.636 0-.636-.492v-4.082h1.008zm-5.147 3.229c0 .841-.96 1.478-1.945 1.478-.792 0-1.14-.408-1.14-1.094 0-.792.828-.947 1.345-1.02 1.308-.168 1.572-.264 1.74-.396v1.032zm-2.893-2.196c.072-.481.24-1.214 1.441-1.214.996 0 1.476.36 1.476 1.021 0 .624-.3.72-.552.744l-1.741.216c-1.751.216-1.907 1.44-1.907 1.968 0 1.08.815 1.812 1.967 1.812 1.225 0 1.861-.575 2.269-1.019.036.479.18.958 1.115.958.24 0 .396-.071.576-.12v-.766c-.12.024-.252.048-.348.048-.216 0-.348-.107-.348-.372v-3.613c0-1.607-1.823-1.751-2.327-1.751-1.549 0-2.544.588-2.592 2.088h.971zm-5.688-.12c0-.313-.156-1.968-2.399-1.968-1.237 0-2.376.623-2.376 2.004 0 .863.576 1.308 1.451 1.523l1.225.3c.9.229 1.248.396 1.248.9 0 .697-.684.997-1.44.997-1.489 0-1.633-.793-1.669-1.285h-1.019c.036.757.216 2.195 2.7 2.195 1.416 0 2.483-.778 2.483-2.075 0-.853-.455-1.332-1.763-1.656l-1.056-.264c-.817-.204-1.141-.324-1.141-.84 0-.781.924-.89 1.249-.89 1.332 0 1.476.66 1.488 1.058h1.019zm-5.616-.913v-.874h-1.008v-1.752h-1.055v1.752h-.852v.874h.852v4.142c0 .755.228 1.342 1.271 1.342.108 0 .408-.048.792-.084v-.825h-.372c-.216 0-.636 0-.636-.492v-4.082h1.008zm-3.864 1.128c0-1.787-1.223-2.183-2.195-2.183-1.081 0-1.669.731-1.897 1.066h-.024v-.886h-.995v6.273h1.055v-3.419c0-1.705 1.056-2.089 1.657-2.089 1.032 0 1.344.552 1.344 1.645v3.863h1.055v-4.27zm-7.955 2.101c0 .841-.96 1.478-1.944 1.478-.793 0-1.141-.408-1.141-1.094 0-.792.828-.947 1.345-1.02 1.308-.168 1.572-.264 1.74-.396v1.032zm-2.893-2.196c.072-.481.24-1.214 1.441-1.214.996 0 1.476.36 1.476 1.021 0 .624-.3.72-.552.744l-1.741.216c-1.751.216-1.907 1.44-1.907 1.968 0 1.08.815 1.812 1.967 1.812 1.225 0 1.861-.575 2.269-1.019.036.479.18.958 1.115.958.24 0 .396-.071.576-.12v-.766c-.12.024-.252.048-.348.048-.216 0-.348-.107-.348-.372v-3.613c0-1.607-1.823-1.751-2.327-1.751-1.549 0-2.544.588-2.592 2.088h.971zm-7.691 6.851h1.055v-3.142h.024c.276.442.828.838 1.669.838 2.136 0 2.759-2.003 2.759-3.503 0-1.766-.947-3.132-2.615-3.132-1.141 0-1.621.707-1.873 1.066h-.024v-.886h-.995v8.759zm1.007-5.327c0-1.02.168-2.665 1.693-2.665 1.632 0 1.716 1.549 1.716 2.354 0 1.38-.54 2.425-1.692 2.425-.673-.001-1.717-.445-1.717-2.114m-2.508-5.771h-1.055v1.198h1.055v-1.198zm0 2.34h-1.055v6.273h1.055v-6.273zm-2.136 2.11c-.084-1.093-.708-2.291-2.352-2.291-2.076 0-3.01 1.547-3.01 3.491 0 1.813 1.042 3.144 2.806 3.144 1.836 0 2.448-1.402 2.556-2.399h-1.02c-.18.961-.792 1.489-1.5 1.489-1.452 0-1.716-1.333-1.716-2.413 0-1.116.42-2.365 1.728-2.365.888 0 1.356.504 1.488 1.345h1.02zm-6.528-4.45h-1.054v1.198h1.054v-1.198zm0 2.34h-1.054v6.273h1.054v-6.273zm-2.112.874v-.874h-1.008v-1.752h-1.054v1.752h-.852v.874h.852v4.142c0 .755.228 1.342 1.27 1.342.108 0 .408-.048.792-.084v-.825h-.372c-.216 0-.636 0-.636-.492v-4.082h1.008zm-5.58 1.752c0-.912.624-1.681 1.608-1.681h.396v-1.09a.883.883 0 0 0-.276-.036c-.792 0-1.344.491-1.763 1.223h-.024v-1.042h-.995v6.273h1.054v-3.647zm-4.042 1.477c0 .841-.96 1.478-1.945 1.478-.792 0-1.141-.408-1.141-1.094 0-.792.829-.947 1.345-1.02 1.309-.168 1.573-.264 1.741-.396v1.032zm-2.893-2.196c.072-.481.24-1.214 1.44-1.214.997 0 1.477.36 1.477 1.021 0 .624-.3.72-.552.744l-1.741.216c-1.751.216-1.907 1.44-1.907 1.968 0 1.08.815 1.812 1.967 1.812 1.225 0 1.861-.575 2.269-1.019.036.479.18.958 1.114.958.24 0 .396-.071.576-.12v-.766c-.12.024-.252.048-.348.048-.216 0-.348-.107-.348-.372v-3.613c0-1.607-1.822-1.751-2.327-1.751-1.548 0-2.544.588-2.591 2.088h.971zm-7.691 6.851h1.054v-3.142h.025c.276.442.828.838 1.668.838 2.136 0 2.759-2.003 2.759-3.503 0-1.766-.946-3.132-2.615-3.132-1.14 0-1.62.707-1.872 1.066h-.024v-.886h-.995v8.759zm1.007-5.327c0-1.02.168-2.665 1.692-2.665 1.633 0 1.717 1.549 1.717 2.354 0 1.38-.54 2.425-1.693 2.425-.672-.001-1.716-.445-1.716-2.114m-5.232-2.557v-.874h-1.056v-.781c0-.505.168-.733.623-.733.132 0 .3.013.433.024v-.946a6.773 6.773 0 0 0-.48-.023c-1.032 0-1.631.431-1.631 1.379v1.081h-.864v.874h.864v5.399h1.055v-5.399h1.056zm-8.305 2.257c0-.84.313-2.401 1.825-2.401 1.513 0 1.825 1.562 1.825 2.401s-.312 2.401-1.825 2.401c-1.512 0-1.825-1.561-1.825-2.401m-1.09 0c0 1.62.911 3.311 2.915 3.311 2.005 0 2.916-1.69 2.916-3.311s-.911-3.312-2.916-3.312c-2.004 0-2.915 1.692-2.915 3.312"/><text transform="translate(283.706 284.312)" fill="#F1F2F2" font-family="'HelveticaLTStd-Roman'" font-size="12"></text><g><defs><path id="g" d="M0 0h510.236v467.717H0z"/></defs><clipPath id="h"><use xlink:href="#g" overflow="visible"/></clipPath><path clip-path="url(#h)" fill="#F1F2F2" d="M288.729 293.852h.024l1.271 4.859h1.093l1.823-6.273h-1.056l-1.271 4.932h-.024l-1.224-4.932h-1.176l-1.212 4.932h-.023l-1.2-4.932h-1.152l1.813 6.273h1.092l1.222-4.859zm-9.276 1.716c0-.84.312-2.401 1.824-2.401s1.824 1.562 1.824 2.401-.312 2.4-1.824 2.4-1.824-1.56-1.824-2.4m-1.092 0c0 1.62.911 3.311 2.916 3.311s2.915-1.69 2.915-3.311-.91-3.312-2.915-3.312-2.916 1.691-2.916 3.312m-1.2-1.129c0-1.787-1.224-2.183-2.195-2.183-1.009 0-1.537.623-1.837 1.019h-.024v-3.179h-1.055v8.614h1.055v-3.42c0-1.584.889-2.088 1.753-2.088 1.009 0 1.248.552 1.248 1.404v4.104h1.056v-4.271zm-9.48-1.127v-.874h-1.008v-1.752h-1.055v1.752h-.853v.874h.853v4.141c0 .756.228 1.343 1.271 1.343.108 0 .408-.048.792-.084v-.826h-.372c-.216 0-.636 0-.636-.492v-4.081h1.008zm-3.888 5.399v-6.273h-1.055v3.455c0 .911-.396 2.089-1.729 2.089-.684 0-1.212-.349-1.212-1.38v-4.164h-1.055v4.511c0 1.5 1.114 1.942 2.039 1.942 1.009 0 1.549-.383 1.992-1.114l.024.024v.91h.996zm-11.028-3.143c0-.84.312-2.401 1.825-2.401 1.512 0 1.824 1.562 1.824 2.401s-.313 2.4-1.824 2.4c-1.513.001-1.825-1.56-1.825-2.4m-1.091 0c0 1.62.911 3.311 2.916 3.311 2.004 0 2.915-1.69 2.915-3.311s-.911-3.312-2.915-3.312c-2.005.001-2.916 1.691-2.916 3.312m-1.98-.013c0 1.382-.54 2.427-1.692 2.427-.673 0-1.717-.445-1.717-2.113 0-1.021.168-2.665 1.693-2.665 1.632-.001 1.716 1.547 1.716 2.351m-3.421 3.156v-.779h.024c.216.349.66.959 1.729.959 2.136 0 2.759-2.003 2.759-3.503 0-1.765-.947-3.131-2.615-3.131-.733.012-1.357.312-1.813.971h-.024v-3.131h-1.055v8.614h.995zm-3.755-2.171c0 .84-.96 1.478-1.945 1.478-.792 0-1.14-.409-1.14-1.094 0-.792.828-.947 1.344-1.02 1.309-.168 1.573-.265 1.741-.396v1.032zm-2.893-2.197c.072-.479.24-1.212 1.441-1.212.996 0 1.476.36 1.476 1.021 0 .625-.3.721-.552.745l-1.741.216c-1.751.216-1.907 1.439-1.907 1.968 0 1.08.815 1.811 1.967 1.811 1.225 0 1.861-.574 2.269-1.019.036.48.18.959 1.115.959.24 0 .396-.072.576-.12v-.767c-.12.024-.252.049-.348.049-.216 0-.348-.109-.348-.373v-3.613c0-1.606-1.823-1.75-2.327-1.75-1.549 0-2.544.587-2.592 2.086h.971zm-10.116.734c0-.973.768-1.874 1.741-1.874 1.284 0 1.692.901 1.752 1.874h-3.493zm3.445 1.667c-.036.468-.624 1.237-1.62 1.237-1.213 0-1.825-.758-1.825-2.066h4.584c0-2.22-.887-3.658-2.699-3.658-2.077 0-3.012 1.546-3.012 3.49 0 1.813 1.043 3.144 2.807 3.144 1.009 0 1.417-.239 1.705-.431.791-.528 1.079-1.416 1.115-1.716h-1.055zm-5.737-4.306h-.995v.886h-.024c-.252-.36-.732-1.066-1.873-1.066-1.668 0-2.615 1.366-2.615 3.131 0 1.5.623 3.503 2.76 3.503.84 0 1.392-.395 1.668-.839v-.048h.024v.265c0 .742.036 2.209-1.789 2.209-.252 0-1.224 0-1.416-.997h-1.055c.204 1.667 1.655 1.871 2.399 1.871 2.904 0 2.916-2.257 2.916-3.155v-5.76zm-4.416 3.118c0-.805.084-2.353 1.717-2.353 1.524 0 1.692 1.644 1.692 2.665 0 1.668-1.044 2.113-1.716 2.113-1.153 0-1.693-1.044-1.693-2.425m-6.732 0c0-.805.084-2.353 1.717-2.353 1.524 0 1.692 1.644 1.692 2.665 0 1.668-1.044 2.113-1.716 2.113-1.153 0-1.693-1.044-1.693-2.425m4.476-5.459h-1.055v3.143l-.024.084c-.252-.36-.732-1.066-1.873-1.066-1.668 0-2.615 1.366-2.615 3.131 0 1.5.623 3.503 2.76 3.503.612 0 1.332-.191 1.788-1.043h.024v.863h.995v-8.615zm-11.052 4.98c0-.973.768-1.874 1.741-1.874 1.284 0 1.692.901 1.752 1.874h-3.493zm3.445 1.667c-.036.468-.624 1.237-1.62 1.237-1.213 0-1.825-.758-1.825-2.066h4.584c0-2.22-.887-3.658-2.699-3.658-2.077 0-3.012 1.546-3.012 3.49 0 1.813 1.043 3.144 2.808 3.144 1.008 0 1.416-.239 1.704-.431.791-.528 1.079-1.416 1.115-1.716h-1.055zm-5.857-6.647h-1.055v8.615h1.055v-8.615zm-6.227 3.755h.024l1.272 4.859h1.091l1.824-6.273h-1.056l-1.271 4.932h-.024l-1.224-4.932h-1.176l-1.212 4.932h-.024l-1.2-4.932h-1.151l1.811 6.273h1.092l1.224-4.859zm-9.277 1.716c0-.84.312-2.401 1.825-2.401s1.825 1.562 1.825 2.401-.312 2.4-1.825 2.4c-1.513.001-1.825-1.56-1.825-2.4m-1.09 0c0 1.62.91 3.311 2.915 3.311 2.004 0 2.915-1.69 2.915-3.311s-.911-3.312-2.915-3.312c-2.005.001-2.915 1.691-2.915 3.312m-1.202-1.129c0-1.787-1.222-2.183-2.195-2.183-1.08 0-1.669.73-1.897 1.066h-.024v-.886h-.994v6.273h1.054v-3.419c0-1.705 1.057-2.089 1.657-2.089 1.033 0 1.345.552 1.345 1.644v3.864h1.054v-4.27zm-8.424.337l2.4-2.339h-1.344l-2.7 2.65v-4.991h-1.018v8.614h1.018v-2.375l.876-.792 1.956 3.167h1.356l-2.544-3.934zm-11.868.301c0-.973.768-1.874 1.741-1.874 1.284 0 1.693.901 1.753 1.874h-3.494zm3.446 1.667c-.036.468-.625 1.237-1.621 1.237-1.213 0-1.825-.758-1.825-2.066h4.584c0-2.22-.887-3.658-2.699-3.658-2.077 0-3.011 1.546-3.011 3.49 0 1.813 1.042 3.144 2.807 3.144 1.008 0 1.416-.239 1.705-.431.791-.528 1.078-1.416 1.114-1.716h-1.054zm-7.777.805h-.024l-1.632-5.111h-1.223l2.291 6.273h1.128l2.387-6.273h-1.152l-1.775 5.111zm-4.8-1.009c0 .84-.96 1.478-1.944 1.478-.793 0-1.141-.409-1.141-1.094 0-.792.828-.947 1.345-1.02 1.308-.168 1.572-.265 1.74-.396v1.032zm-2.893-2.197c.072-.479.24-1.212 1.441-1.212.996 0 1.476.36 1.476 1.021 0 .625-.3.721-.552.745l-1.741.216c-1.751.216-1.907 1.439-1.907 1.968 0 1.08.815 1.811 1.967 1.811 1.225 0 1.861-.574 2.269-1.019.036.48.18.959 1.115.959.24 0 .396-.072.576-.12v-.767c-.12.024-.252.049-.348.049-.216 0-.348-.109-.348-.373v-3.613c0-1.606-1.823-1.75-2.327-1.75-1.549 0-2.544.587-2.592 2.086h.971zm-2.496.096c0-1.787-1.223-2.183-2.195-2.183-1.009 0-1.537.623-1.837 1.019h-.024v-3.179h-1.055v8.614h1.055v-3.42c0-1.584.888-2.088 1.753-2.088 1.008 0 1.248.552 1.248 1.404v4.104h1.055v-4.271zm-13.595-.587h.024l1.272 4.859h1.091l1.824-6.273h-1.056l-1.271 4.932h-.024l-1.224-4.932h-1.176l-1.212 4.932h-.024l-1.2-4.932h-1.151l1.811 6.273h1.092l1.224-4.859zm-9.277 1.716c0-.84.312-2.401 1.825-2.401s1.825 1.562 1.825 2.401-.312 2.4-1.825 2.4-1.825-1.56-1.825-2.4m-1.09 0c0 1.62.91 3.311 2.915 3.311 2.004 0 2.915-1.69 2.915-3.311s-.911-3.312-2.915-3.312c-2.005.001-2.915 1.691-2.915 3.312m-1.202-1.129c0-1.787-1.222-2.183-2.195-2.183-1.08 0-1.669.73-1.897 1.066h-.024v-.886h-.994v6.273h1.054v-3.419c0-1.705 1.057-2.089 1.657-2.089 1.032 0 1.345.552 1.345 1.644v3.864h1.054v-4.27zm-9.48-1.127v-.874h-1.008v-1.752h-1.054v1.752h-.852v.874h.852v4.141c0 .756.227 1.343 1.27 1.343.108 0 .408-.048.792-.084v-.826h-.372c-.216 0-.636 0-.636-.492v-4.081h1.008zm-5.146 3.228c0 .84-.961 1.478-1.945 1.478-.793 0-1.141-.409-1.141-1.094 0-.792.829-.947 1.345-1.02 1.308-.168 1.573-.265 1.741-.396v1.032zm-2.894-2.197c.072-.479.24-1.212 1.441-1.212.996 0 1.477.36 1.477 1.021 0 .625-.3.721-.553.745l-1.74.216c-1.752.216-1.907 1.439-1.907 1.968 0 1.08.815 1.811 1.967 1.811 1.224 0 1.86-.574 2.269-1.019.036.48.179.959 1.114.959.24 0 .396-.072.576-.12v-.767c-.12.024-.252.049-.348.049-.216 0-.348-.109-.348-.373v-3.613c0-1.606-1.823-1.75-2.327-1.75-1.549 0-2.544.587-2.592 2.086h.971zm-2.496.096c0-1.787-1.222-2.183-2.195-2.183-1.008 0-1.537.623-1.837 1.019h-.024v-3.179h-1.054v8.614h1.054v-3.42c0-1.584.889-2.088 1.753-2.088 1.009 0 1.249.552 1.249 1.404v4.104h1.054v-4.271zm-6.144-1.127v-.874h-1.008v-1.752h-1.054v1.752h-.852v.874h.852v4.141c0 .756.227 1.343 1.27 1.343.108 0 .408-.048.792-.084v-.826h-.372c-.216 0-.636 0-.636-.492v-4.081h1.008zm-7.056.911c0-.312-.155-1.966-2.399-1.966-1.237 0-2.375.622-2.375 2.002 0 .865.575 1.31 1.45 1.525l1.225.3c.9.229 1.249.396 1.249.9 0 .695-.685.997-1.441.997-1.489 0-1.633-.793-1.669-1.285h-1.018c.036.756.216 2.194 2.699 2.194 1.417 0 2.483-.778 2.483-2.074 0-.853-.455-1.332-1.763-1.656l-1.056-.264c-.817-.204-1.141-.325-1.141-.842 0-.779.925-.888 1.249-.888 1.332 0 1.477.66 1.489 1.056h1.018zm-7.14.84c0-.912.624-1.681 1.608-1.681h.396v-1.09a.854.854 0 0 0-.276-.036c-.792 0-1.344.491-1.764 1.223h-.024v-1.042h-.994v6.273h1.054v-3.647zm-7.044.014c0-.973.768-1.874 1.741-1.874 1.284 0 1.693.901 1.753 1.874h-3.494zm3.446 1.667c-.036.468-.625 1.237-1.621 1.237-1.213 0-1.825-.758-1.825-2.066h4.584c0-2.22-.887-3.658-2.699-3.658-2.077 0-3.011 1.546-3.011 3.49 0 1.813 1.042 3.144 2.807 3.144 1.008 0 1.416-.239 1.705-.431.791-.528 1.078-1.416 1.114-1.716h-1.054zm-5.738-4.306h-.994v.886h-.024c-.252-.36-.733-1.066-1.873-1.066-1.669 0-2.615 1.366-2.615 3.131 0 1.5.623 3.503 2.759 3.503.84 0 1.392-.395 1.669-.839v-.048h.024v.265c0 .742.036 2.209-1.789 2.209-.252 0-1.225 0-1.417-.997h-1.055c.204 1.667 1.655 1.871 2.4 1.871 2.903 0 2.915-2.257 2.915-3.155v-5.76zm-4.416 3.118c0-.805.084-2.353 1.717-2.353 1.525 0 1.693 1.644 1.693 2.665 0 1.668-1.045 2.113-1.717 2.113-1.153 0-1.693-1.044-1.693-2.425m-3.634.984c0 .84-.961 1.478-1.945 1.478-.793 0-1.141-.409-1.141-1.094 0-.792.829-.947 1.345-1.02 1.308-.168 1.573-.265 1.741-.396v1.032zm-2.894-2.197c.072-.479.24-1.212 1.441-1.212.996 0 1.477.36 1.477 1.021 0 .625-.301.721-.553.745l-1.74.216c-1.752.216-1.907 1.439-1.907 1.968 0 1.08.814 1.811 1.967 1.811 1.224 0 1.86-.574 2.269-1.019.035.48.179.959 1.114.959.24 0 .396-.072.576-.12v-.767c-.12.024-.252.049-.348.049-.216 0-.348-.109-.348-.373v-3.613c0-1.606-1.823-1.75-2.327-1.75-1.549 0-2.544.587-2.592 2.086h.971zm-2.496.096c0-1.787-1.222-2.183-2.195-2.183-1.08 0-1.669.73-1.897 1.066h-.024v-.886h-.994v6.273h1.054v-3.419c0-1.705 1.057-2.089 1.657-2.089 1.032 0 1.345.552 1.345 1.644v3.864h1.054v-4.27zm-10.956.638c0-.973.768-1.874 1.741-1.874 1.284 0 1.693.901 1.753 1.874h-3.494zm3.446 1.667c-.036.468-.625 1.237-1.621 1.237-1.213 0-1.825-.758-1.825-2.066h4.584c0-2.22-.887-3.658-2.699-3.658-2.077 0-3.011 1.546-3.011 3.49 0 1.813 1.042 3.144 2.807 3.144 1.008 0 1.416-.239 1.705-.431.791-.528 1.078-1.416 1.114-1.716h-1.054zm-10.118-1.667c0-.973.768-1.874 1.741-1.874 1.284 0 1.693.901 1.753 1.874h-3.494zm3.446 1.667c-.036.468-.625 1.237-1.621 1.237-1.213 0-1.825-.758-1.825-2.066h4.584c0-2.22-.887-3.658-2.699-3.658-2.077 0-3.011 1.546-3.011 3.49 0 1.813 1.042 3.144 2.807 3.144 1.008 0 1.416-.239 1.705-.431.791-.528 1.078-1.416 1.114-1.716h-1.054zm-5.066-3.432v-.874h-1.008v-1.752h-1.055v1.752h-.852v.874h.852v4.141c0 .756.228 1.343 1.271 1.343.108 0 .408-.048.792-.084v-.826h-.372c-.216 0-.636 0-.636-.492v-4.081h1.008z"/></g><text transform="translate(292.94 298.712)" fill="#F1F2F2" font-family="'HelveticaLTStd-Roman'" font-size="12"></text><g><defs><path id="i" d="M0 0h510.236v467.717H0z"/></defs><clipPath id="j"><use xlink:href="#i" overflow="visible"/></clipPath><path clip-path="url(#j)" fill="#F1F2F2" d="M284.881 311.841h-1.246v1.271h1.246v-1.271zm-2.748-3.218c0-.312-.156-1.967-2.4-1.967-1.235 0-2.375.623-2.375 2.003 0 .864.575 1.309 1.451 1.524l1.226.301c.899.229 1.248.396 1.248.9 0 .695-.685.996-1.441.996-1.488 0-1.632-.792-1.668-1.284h-1.019c.035.756.216 2.194 2.698 2.194 1.417 0 2.484-.778 2.484-2.074 0-.854-.456-1.333-1.763-1.657l-1.058-.264c-.815-.204-1.14-.324-1.14-.841 0-.779.924-.888 1.248-.888 1.333 0 1.477.66 1.489 1.056h1.02zm-10.428.854c0-.973.768-1.873 1.74-1.873 1.284 0 1.692.9 1.753 1.873h-3.493zm3.444 1.667c-.035.469-.624 1.237-1.62 1.237-1.213 0-1.824-.756-1.824-2.065h4.584c0-2.22-.887-3.659-2.7-3.659-2.076 0-3.011 1.547-3.011 3.491 0 1.813 1.043 3.144 2.807 3.144 1.009 0 1.417-.239 1.705-.432.791-.527 1.079-1.416 1.115-1.716h-1.056zm-7.776.804h-.024l-1.631-5.111h-1.224l2.291 6.274h1.128l2.388-6.274h-1.152l-1.776 5.111zm-3.78-7.452h-1.055v1.199h1.055v-1.199zm0 2.341h-1.055v6.274h1.055v-6.274zm-2.113.875v-.875h-1.008v-1.752h-1.055v1.752h-.853v.875h.853v4.141c0 .756.228 1.343 1.271 1.343.108 0 .408-.048.792-.084v-.827h-.371c-.217 0-.637 0-.637-.491v-4.081h1.008zm-9.058 7.884h1.055v-3.144h.024c.276.443.828.839 1.669.839 2.136 0 2.759-2.003 2.759-3.504 0-1.764-.947-3.131-2.615-3.131-1.141 0-1.621.707-1.873 1.067h-.024v-.887h-.995v8.76zm1.007-5.328c0-1.021.168-2.664 1.692-2.664 1.633 0 1.717 1.548 1.717 2.352 0 1.382-.54 2.426-1.693 2.426-.672-.001-1.716-.445-1.716-2.114m-6.768-.791c0-.973.768-1.873 1.741-1.873 1.284 0 1.692.9 1.752 1.873h-3.493zm3.445 1.667c-.036.469-.624 1.237-1.62 1.237-1.213 0-1.825-.756-1.825-2.065h4.584c0-2.22-.887-3.659-2.699-3.659-2.077 0-3.012 1.547-3.012 3.491 0 1.813 1.043 3.144 2.807 3.144 1.009 0 1.417-.239 1.705-.432.791-.527 1.079-1.416 1.115-1.716h-1.055zm-5.329-2.197c-.084-1.092-.708-2.291-2.352-2.291-2.076 0-3.011 1.547-3.011 3.491 0 1.813 1.043 3.144 2.807 3.144 1.836 0 2.448-1.402 2.556-2.398h-1.02c-.18.96-.792 1.488-1.5 1.488-1.452 0-1.716-1.332-1.716-2.413 0-1.116.42-2.364 1.728-2.364.888 0 1.356.504 1.488 1.344h1.02zm-7.787 1.993c0 .84-.96 1.476-1.945 1.476-.792 0-1.14-.407-1.14-1.092 0-.792.828-.948 1.344-1.021 1.309-.168 1.573-.265 1.741-.396v1.033zm-2.893-2.197c.072-.479.24-1.212 1.441-1.212.996 0 1.476.36 1.476 1.021 0 .624-.3.72-.552.744l-1.741.216c-1.751.216-1.907 1.44-1.907 1.969 0 1.08.815 1.811 1.967 1.811 1.225 0 1.861-.574 2.269-1.019.036.479.18.959 1.115.959.24 0 .396-.072.576-.12v-.767c-.12.023-.252.048-.348.048-.216 0-.348-.108-.348-.372v-3.613c0-1.606-1.823-1.751-2.327-1.751-1.549 0-2.544.587-2.592 2.087h.971zm-3.612.721c0-.912.624-1.681 1.608-1.681h.396v-1.091a.883.883 0 0 0-.276-.036c-.792 0-1.344.491-1.764 1.224h-.024v-1.043h-.995v6.274h1.055v-3.647zm-2.232-1.752v-.875h-1.008v-1.752h-1.055v1.752h-.852v.875h.852v4.141c0 .756.228 1.343 1.271 1.343.108 0 .408-.048.792-.084v-.827h-.372c-.216 0-.636 0-.636-.491v-4.081h1.008zm-3.864 1.128c0-1.788-1.223-2.184-2.195-2.184-1.081 0-1.669.731-1.897 1.067h-.024v-.887h-.995v6.274h1.055v-3.42c0-1.704 1.056-2.088 1.657-2.088 1.032 0 1.344.552 1.344 1.644v3.864h1.055v-4.27zm-11.052 1.128c0-.84.312-2.4 1.825-2.4 1.512 0 1.824 1.561 1.824 2.4 0 .841-.312 2.4-1.824 2.4-1.513 0-1.825-1.559-1.825-2.4m-1.091 0c0 1.621.911 3.312 2.916 3.312 2.004 0 2.915-1.69 2.915-3.312 0-1.62-.911-3.312-2.915-3.312-2.005 0-2.916 1.692-2.916 3.312m-.697-1.021c-.084-1.092-.708-2.291-2.352-2.291-2.076 0-3.011 1.547-3.011 3.491 0 1.813 1.043 3.144 2.807 3.144 1.836 0 2.448-1.402 2.556-2.398h-1.02c-.18.96-.792 1.488-1.5 1.488-1.452 0-1.716-1.332-1.716-2.413 0-1.116.42-2.364 1.728-2.364.888 0 1.356.504 1.488 1.344h1.02zm-9.696-.324c0-.312-.156-1.967-2.399-1.967-1.237 0-2.376.623-2.376 2.003 0 .864.575 1.309 1.451 1.524l1.225.301c.9.229 1.248.396 1.248.9 0 .695-.684.996-1.44.996-1.489 0-1.633-.792-1.669-1.284h-1.019c.036.756.216 2.194 2.7 2.194 1.416 0 2.483-.778 2.483-2.074 0-.854-.456-1.333-1.763-1.657l-1.057-.264c-.816-.204-1.14-.324-1.14-.841 0-.779.924-.888 1.248-.888 1.333 0 1.477.66 1.489 1.056h1.019zm-6 0c0-.312-.156-1.967-2.399-1.967-1.237 0-2.376.623-2.376 2.003 0 .864.575 1.309 1.451 1.524l1.225.301c.9.229 1.248.396 1.248.9 0 .695-.684.996-1.44.996-1.489 0-1.633-.792-1.669-1.284h-1.019c.036.756.216 2.194 2.7 2.194 1.416 0 2.483-.778 2.483-2.074 0-.854-.456-1.333-1.763-1.657l-1.057-.264c-.816-.204-1.14-.324-1.14-.841 0-.779.924-.888 1.248-.888 1.333 0 1.477.66 1.489 1.056h1.019zm-10.428.854c0-.973.768-1.873 1.741-1.873 1.284 0 1.692.9 1.752 1.873h-3.493zm3.445 1.667c-.036.469-.624 1.237-1.62 1.237-1.213 0-1.825-.756-1.825-2.065h4.584c0-2.22-.887-3.659-2.699-3.659-2.077 0-3.012 1.547-3.012 3.491 0 1.813 1.043 3.144 2.808 3.144 1.008 0 1.416-.239 1.704-.432.791-.527 1.079-1.416 1.115-1.716h-1.055zm-5.329-2.197c-.084-1.092-.708-2.291-2.352-2.291-2.076 0-3.011 1.547-3.011 3.491 0 1.813 1.043 3.144 2.807 3.144 1.836 0 2.448-1.402 2.556-2.398h-1.02c-.18.96-.792 1.488-1.5 1.488-1.452 0-1.716-1.332-1.716-2.413 0-1.116.42-2.364 1.728-2.364.888 0 1.356.504 1.488 1.344h1.02zm-6 0c-.084-1.092-.708-2.291-2.352-2.291-2.076 0-3.011 1.547-3.011 3.491 0 1.813 1.043 3.144 2.807 3.144 1.836 0 2.448-1.402 2.556-2.398h-1.02c-.18.96-.792 1.488-1.5 1.488-1.452 0-1.716-1.332-1.716-2.413 0-1.116.42-2.364 1.728-2.364.888 0 1.356.504 1.488 1.344h1.02zm-7.787 1.993c0 .84-.96 1.476-1.945 1.476-.792 0-1.14-.407-1.14-1.092 0-.792.828-.948 1.344-1.021 1.309-.168 1.573-.265 1.741-.396v1.033zm-2.893-2.197c.072-.479.24-1.212 1.441-1.212.996 0 1.476.36 1.476 1.021 0 .624-.3.72-.552.744l-1.741.216c-1.751.216-1.907 1.44-1.907 1.969 0 1.08.815 1.811 1.967 1.811 1.225 0 1.861-.574 2.269-1.019.036.479.18.959 1.115.959.24 0 .396-.072.576-.12v-.767c-.12.023-.252.048-.348.048-.216 0-.348-.108-.348-.372v-3.613c0-1.606-1.823-1.751-2.327-1.751-1.549 0-2.544.587-2.592 2.087h.971zm-10.212 1.212c0-.804.084-2.352 1.717-2.352 1.524 0 1.692 1.644 1.692 2.664 0 1.669-1.044 2.113-1.716 2.113-1.153.001-1.693-1.043-1.693-2.425m4.476-5.459h-1.055v3.144l-.024.084c-.252-.36-.732-1.067-1.873-1.067-1.668 0-2.615 1.367-2.615 3.131 0 1.501.623 3.504 2.76 3.504.612 0 1.332-.191 1.788-1.043h.024v.863h.995v-8.616zm-6.768 4.344c0-1.788-1.223-2.184-2.195-2.184-1.081 0-1.669.731-1.897 1.067h-.024v-.887h-.995v6.274h1.055v-3.42c0-1.704 1.056-2.088 1.657-2.088 1.032 0 1.344.552 1.344 1.644v3.864h1.055v-4.27zm-7.955 2.1c0 .84-.96 1.476-1.945 1.476-.792 0-1.14-.407-1.14-1.092 0-.792.828-.948 1.344-1.021 1.309-.168 1.573-.265 1.741-.396v1.033zm-2.893-2.197c.072-.479.24-1.212 1.441-1.212.996 0 1.476.36 1.476 1.021 0 .624-.3.72-.552.744l-1.741.216c-1.751.216-1.907 1.44-1.907 1.969 0 1.08.815 1.811 1.967 1.811 1.225 0 1.861-.574 2.269-1.019.036.479.18.959 1.115.959.24 0 .396-.072.576-.12v-.767c-.12.023-.252.048-.348.048-.216 0-.348-.108-.348-.372v-3.613c0-1.606-1.823-1.751-2.327-1.751-1.549 0-2.544.587-2.592 2.087h.971zm-10.116.734c0-.973.768-1.873 1.741-1.873 1.284 0 1.692.9 1.752 1.873h-3.493zm3.445 1.667c-.036.469-.624 1.237-1.62 1.237-1.213 0-1.825-.756-1.825-2.065h4.584c0-2.22-.887-3.659-2.699-3.659-2.077 0-3.012 1.547-3.012 3.491 0 1.813 1.043 3.144 2.808 3.144 1.008 0 1.416-.239 1.704-.432.791-.527 1.079-1.416 1.115-1.716h-1.055zm-5.689-2.521c0-.312-.156-1.967-2.399-1.967-1.237 0-2.376.623-2.376 2.003 0 .864.575 1.309 1.451 1.524l1.225.301c.9.229 1.248.396 1.248.9 0 .695-.684.996-1.44.996-1.489 0-1.633-.792-1.669-1.284h-1.019c.036.756.216 2.194 2.7 2.194 1.416 0 2.483-.778 2.483-2.074 0-.854-.456-1.333-1.763-1.657l-1.057-.264c-.816-.204-1.14-.324-1.14-.841 0-.779.924-.888 1.248-.888 1.333 0 1.477.66 1.489 1.056h1.019zm-6.168 4.488v-6.274h-1.055v3.456c0 .911-.396 2.088-1.729 2.088-.684 0-1.212-.349-1.212-1.38v-4.164h-1.055v4.512c0 1.499 1.115 1.942 2.039 1.942 1.009 0 1.549-.384 1.993-1.114l.024.023v.911h.995zm-14.364-3.143c0-.84.312-2.4 1.825-2.4 1.512 0 1.824 1.561 1.824 2.4 0 .841-.312 2.4-1.824 2.4-1.513 0-1.825-1.559-1.825-2.4m-1.091 0c0 1.621.911 3.312 2.916 3.312 2.004 0 2.915-1.69 2.915-3.312 0-1.62-.911-3.312-2.915-3.312-2.005 0-2.916 1.692-2.916 3.312m-.433-2.256v-.875h-1.008v-1.752h-1.055v1.752h-.852v.875h.852v4.141c0 .756.228 1.343 1.271 1.343.108 0 .408-.048.792-.084v-.827h-.372c-.216 0-.636 0-.636-.491v-4.081h1.008zm-7.2 1.128c0-1.788-1.223-2.184-2.195-2.184-1.081 0-1.669.731-1.897 1.067h-.024v-.887h-.995v6.274h1.055v-3.42c0-1.704 1.056-2.088 1.657-2.088 1.032 0 1.344.552 1.344 1.644v3.864h1.055v-4.27zm-10.956.637c0-.973.768-1.873 1.74-1.873 1.285 0 1.693.9 1.753 1.873h-3.493zm3.445 1.667c-.036.469-.624 1.237-1.621 1.237-1.212 0-1.824-.756-1.824-2.065h4.584c0-2.22-.887-3.659-2.699-3.659-2.077 0-3.012 1.547-3.012 3.491 0 1.813 1.043 3.144 2.807 3.144 1.009 0 1.417-.239 1.705-.432.791-.527 1.079-1.416 1.115-1.716h-1.055zm-5.833-2.304c0-1.788-1.223-2.184-2.195-2.184-1.009 0-1.537.623-1.837 1.02h-.024v-3.18h-1.055v8.615h1.055v-3.42c0-1.584.888-2.088 1.753-2.088 1.008 0 1.248.552 1.248 1.404v4.104h1.055v-4.271zm-10.259-.588h.024l1.271 4.859h1.092l1.824-6.274h-1.056l-1.272 4.932h-.024l-1.223-4.932H77.75l-1.212 4.932h-.024l-1.2-4.932h-1.152l1.812 6.274h1.092l1.224-4.859zm-12.793 1.703c0-.804.084-2.352 1.717-2.352 1.524 0 1.692 1.644 1.692 2.664 0 1.669-1.044 2.113-1.716 2.113-1.153.001-1.693-1.043-1.693-2.425m4.476-5.459h-1.055v3.144l-.024.084c-.252-.36-.732-1.067-1.872-1.067-1.669 0-2.616 1.367-2.616 3.131 0 1.501.624 3.504 2.76 3.504.612 0 1.332-.191 1.788-1.043h.024v.863h.995v-8.616zm-6.768 4.344c0-1.788-1.223-2.184-2.195-2.184-1.081 0-1.669.731-1.897 1.067h-.024v-.887h-.995v6.274h1.055v-3.42c0-1.704 1.056-2.088 1.657-2.088 1.032 0 1.344.552 1.344 1.644v3.864h1.055v-4.27zm-7.955 2.1c0 .84-.96 1.476-1.945 1.476-.792 0-1.14-.407-1.14-1.092 0-.792.828-.948 1.345-1.021 1.308-.168 1.572-.265 1.74-.396v1.033zm-2.893-2.197c.072-.479.24-1.212 1.441-1.212.996 0 1.476.36 1.476 1.021 0 .624-.3.72-.552.744l-1.741.216c-1.751.216-1.907 1.44-1.907 1.969 0 1.08.815 1.811 1.967 1.811 1.225 0 1.861-.574 2.269-1.019.036.479.18.959 1.115.959.24 0 .396-.072.576-.12v-.767c-.12.023-.252.048-.348.048-.216 0-.348-.108-.348-.372v-3.613c0-1.606-1.823-1.751-2.327-1.751-1.549 0-2.544.587-2.592 2.087h.971z"/><path clip-path="url(#j)" fill="#9D9FA2" d="M35.312 134.653s-8.504 0-8.504 8.504v17.466s0 8.504 8.504 8.504H301.77s8.504 0 8.504-8.504v-17.466s0-8.504-8.504-8.504H35.312z"/><path clip-path="url(#j)" fill="#F1F2F2" d="M267.679 144.57c0-.312-.155-1.967-2.399-1.967-1.236 0-2.375.623-2.375 2.003 0 .864.574 1.308 1.451 1.524l1.224.3c.901.228 1.249.396 1.249.901 0 .696-.685.996-1.441.996-1.487 0-1.632-.792-1.668-1.285h-1.02c.036.757.216 2.195 2.699 2.195 1.417 0 2.482-.778 2.482-2.075 0-.852-.455-1.332-1.762-1.656l-1.058-.264c-.815-.204-1.141-.324-1.141-.84 0-.781.925-.889 1.249-.889 1.333 0 1.478.661 1.489 1.057h1.021zm-10.189.853c0-.973.769-1.874 1.741-1.874 1.284 0 1.692.901 1.753 1.874h-3.494zm3.446 1.667c-.035.468-.623 1.237-1.62 1.237-1.213 0-1.825-.757-1.825-2.066h4.584c0-2.219-.887-3.658-2.699-3.658-2.076 0-3.011 1.547-3.011 3.491 0 1.813 1.043 3.143 2.807 3.143 1.009 0 1.417-.239 1.705-.431.791-.527 1.079-1.416 1.115-1.716h-1.056zm-5.09-2.196c-.084-1.093-.708-2.291-2.352-2.291-2.075 0-3.01 1.546-3.01 3.491 0 1.813 1.043 3.143 2.806 3.143 1.836 0 2.448-1.402 2.556-2.399h-1.02c-.18.961-.792 1.489-1.5 1.489-1.452 0-1.716-1.333-1.716-2.413 0-1.116.42-2.365 1.728-2.365.888 0 1.356.504 1.488 1.345h1.02zm-6.287-4.451h-1.055v1.198h1.055v-1.198zm0 2.34h-1.055v6.274h1.055v-6.274zm-4.644 5.112h-.024l-1.631-5.112h-1.224l2.292 6.274h1.127l2.388-6.274h-1.152l-1.776 5.112zm-5.112-2.486c0-.912.624-1.68 1.608-1.68h.396v-1.09a.854.854 0 0 0-.276-.036c-.792 0-1.344.491-1.764 1.222h-.024v-1.042h-.995v6.274h1.055v-3.648zm-6.804.014c0-.973.768-1.874 1.741-1.874 1.284 0 1.692.901 1.752 1.874h-3.493zm3.445 1.667c-.036.468-.624 1.237-1.62 1.237-1.213 0-1.825-.757-1.825-2.066h4.584c0-2.219-.887-3.658-2.699-3.658-2.077 0-3.012 1.547-3.012 3.491 0 1.813 1.043 3.143 2.807 3.143 1.009 0 1.417-.239 1.705-.431.791-.527 1.079-1.416 1.115-1.716h-1.055zm-5.449-2.52c0-.312-.156-1.967-2.4-1.967-1.236 0-2.375.623-2.375 2.003 0 .864.575 1.308 1.451 1.524l1.225.3c.9.228 1.248.396 1.248.901 0 .696-.684.996-1.44.996-1.489 0-1.633-.792-1.669-1.285h-1.019c.036.757.216 2.195 2.7 2.195 1.416 0 2.483-.778 2.483-2.075 0-.852-.456-1.332-1.763-1.656l-1.057-.264c-.816-.204-1.14-.324-1.14-.84 0-.781.924-.889 1.248-.889 1.333 0 1.477.661 1.489 1.057h1.019zm-13.284.853c0-.973.768-1.874 1.741-1.874 1.284 0 1.692.901 1.752 1.874h-3.493zm3.445 1.667c-.036.468-.624 1.237-1.62 1.237-1.213 0-1.825-.757-1.825-2.066h4.584c0-2.219-.887-3.658-2.699-3.658-2.077 0-3.012 1.547-3.012 3.491 0 1.813 1.043 3.143 2.807 3.143 1.009 0 1.417-.239 1.705-.431.791-.527 1.079-1.416 1.115-1.716h-1.055zm-7.537.805h-.024l-1.631-5.112h-1.224l2.292 6.274h1.127l2.388-6.274h-1.152l-1.776 5.112zm-3.54-7.452h-1.055v1.198h1.055v-1.198zm0 2.34h-1.055v6.274h1.055v-6.274zm-1.872.874v-.874h-1.008v-1.752h-1.055v1.752h-.852v.874h.852v4.142c0 .755.228 1.342 1.271 1.342.108 0 .408-.048.792-.084v-.826h-.372c-.216 0-.636 0-.636-.492v-4.082h1.008zm-8.819 7.884h1.055v-3.142h.024c.276.443.828.838 1.669.838 2.136 0 2.759-2.003 2.759-3.503 0-1.765-.947-3.131-2.615-3.131-1.141 0-1.621.707-1.873 1.066h-.024v-.886h-.995v8.758zm1.007-5.327c0-1.02.168-2.665 1.693-2.665 1.632 0 1.716 1.549 1.716 2.353 0 1.38-.54 2.425-1.692 2.425-.673 0-1.717-.444-1.717-2.113m-6.528-.791c0-.973.768-1.874 1.741-1.874 1.284 0 1.692.901 1.752 1.874h-3.493zm3.445 1.667c-.036.468-.624 1.237-1.62 1.237-1.213 0-1.825-.757-1.825-2.066h4.584c0-2.219-.887-3.658-2.699-3.658-2.077 0-3.012 1.547-3.012 3.491 0 1.813 1.043 3.143 2.808 3.143 1.008 0 1.416-.239 1.704-.431.791-.527 1.079-1.416 1.115-1.716h-1.055zm-5.089-2.196c-.084-1.093-.708-2.291-2.352-2.291-2.076 0-3.011 1.546-3.011 3.491 0 1.813 1.043 3.143 2.807 3.143 1.836 0 2.448-1.402 2.556-2.399h-1.02c-.18.961-.792 1.489-1.5 1.489-1.452 0-1.716-1.333-1.716-2.413 0-1.116.42-2.365 1.728-2.365.888 0 1.356.504 1.488 1.345h1.02zm-7.547 1.992c0 .841-.96 1.477-1.945 1.477-.792 0-1.14-.408-1.14-1.093 0-.792.828-.948 1.345-1.02 1.308-.168 1.572-.264 1.74-.396v1.032zm-2.893-2.196c.072-.48.24-1.213 1.441-1.213.996 0 1.476.36 1.476 1.021 0 .624-.3.72-.552.744l-1.741.216c-1.751.216-1.907 1.44-1.907 1.969 0 1.08.815 1.81 1.967 1.81 1.225 0 1.861-.575 2.269-1.018.036.479.18.958 1.115.958.24 0 .396-.072.576-.119v-.767c-.12.024-.252.048-.348.048-.216 0-.348-.108-.348-.372v-3.613c0-1.607-1.823-1.751-2.327-1.751-1.549 0-2.544.587-2.592 2.087h.971zm-3.372.719c0-.912.624-1.68 1.608-1.68h.396v-1.09a.854.854 0 0 0-.276-.036c-.792 0-1.344.491-1.764 1.222h-.024v-1.042h-.995v6.274h1.055v-3.648zm-1.992-1.752v-.874h-1.008v-1.752h-1.055v1.752h-.852v.874h.852v4.142c0 .755.228 1.342 1.271 1.342.108 0 .408-.048.792-.084v-.826h-.372c-.216 0-.636 0-.636-.492v-4.082h1.008zm-3.624 1.128c0-1.787-1.223-2.182-2.195-2.182-1.081 0-1.669.731-1.897 1.066h-.024v-.886h-.995v6.274h1.055v-3.419c0-1.705 1.056-2.089 1.657-2.089 1.032 0 1.344.552 1.344 1.644v3.864h1.055v-4.272zm-10.812 1.129c0-.84.312-2.401 1.825-2.401 1.512 0 1.824 1.561 1.824 2.401 0 .84-.312 2.401-1.824 2.401-1.513 0-1.825-1.561-1.825-2.401m-1.091 0c0 1.621.911 3.311 2.916 3.311 2.004 0 2.915-1.69 2.915-3.311 0-1.62-.911-3.311-2.915-3.311-2.005 0-2.916 1.691-2.916 3.311m-.457-1.02c-.084-1.093-.708-2.291-2.352-2.291-2.076 0-3.011 1.546-3.011 3.491 0 1.813 1.043 3.143 2.807 3.143 1.836 0 2.448-1.402 2.556-2.399h-1.02c-.18.961-.792 1.489-1.5 1.489-1.452 0-1.716-1.333-1.716-2.413 0-1.116.42-2.365 1.728-2.365.888 0 1.356.504 1.488 1.345h1.02zm-8.772-1.237v-.874h-1.056v-.781c0-.504.168-.733.624-.733.132 0 .3.012.432.024v-.946c-.168-.012-.324-.024-.48-.024-1.031 0-1.631.431-1.631 1.379v1.081h-.864v.874h.864v5.4h1.055v-5.4h1.056zm-8.064 2.257c0-.84.312-2.401 1.825-2.401 1.512 0 1.824 1.561 1.824 2.401 0 .84-.312 2.401-1.824 2.401-1.513 0-1.825-1.561-1.825-2.401m-1.091 0c0 1.621.911 3.311 2.916 3.311 2.004 0 2.915-1.69 2.915-3.311 0-1.62-.911-3.311-2.915-3.311-2.005 0-2.916 1.691-2.916 3.311m-8.341-.491c0-.973.768-1.874 1.741-1.874 1.284 0 1.692.901 1.752 1.874h-3.493zm3.445 1.667c-.036.468-.624 1.237-1.62 1.237-1.213 0-1.825-.757-1.825-2.066h4.584c0-2.219-.887-3.658-2.699-3.658-2.077 0-3.012 1.547-3.012 3.491 0 1.813 1.043 3.143 2.808 3.143 1.008 0 1.416-.239 1.704-.431.792-.527 1.079-1.416 1.115-1.716h-1.055zm-5.449-2.52c0-.312-.156-1.967-2.399-1.967-1.237 0-2.376.623-2.376 2.003 0 .864.576 1.308 1.451 1.524l1.225.3c.9.228 1.248.396 1.248.901 0 .696-.684.996-1.44.996-1.489 0-1.633-.792-1.669-1.285h-1.019c.036.757.216 2.195 2.7 2.195 1.416 0 2.483-.778 2.483-2.075 0-.852-.455-1.332-1.763-1.656l-1.056-.264c-.817-.204-1.141-.324-1.141-.84 0-.781.924-.889 1.249-.889 1.332 0 1.476.661 1.488 1.057h1.019zm-5.928 4.487v-6.274h-1.055v3.456c0 .912-.396 2.088-1.728 2.088-.685 0-1.213-.348-1.213-1.38v-4.164h-1.055v4.512c0 1.499 1.115 1.942 2.039 1.942 1.009 0 1.549-.383 1.993-1.114l.024.024v.91h.995zm-13.884-3.155c0-.804.084-2.353 1.717-2.353 1.524 0 1.692 1.645 1.692 2.665 0 1.669-1.044 2.113-1.716 2.113-1.153 0-1.693-1.045-1.693-2.425m4.476-5.459h-1.055v3.142l-.024.084c-.252-.359-.732-1.066-1.872-1.066-1.669 0-2.616 1.366-2.616 3.131 0 1.5.624 3.503 2.76 3.503.612 0 1.332-.191 1.788-1.042h.024v.862h.995v-8.614zm-10.812 4.98c0-.973.768-1.874 1.741-1.874 1.284 0 1.692.901 1.752 1.874h-3.493zm3.445 1.667c-.036.468-.624 1.237-1.62 1.237-1.213 0-1.825-.757-1.825-2.066h4.584c0-2.219-.887-3.658-2.699-3.658-2.077 0-3.012 1.547-3.012 3.491 0 1.813 1.043 3.143 2.808 3.143 1.008 0 1.416-.239 1.704-.431.792-.527 1.079-1.416 1.115-1.716h-1.055zm-5.449-2.52c0-.312-.156-1.967-2.399-1.967-1.237 0-2.376.623-2.376 2.003 0 .864.576 1.308 1.451 1.524l1.225.3c.9.228 1.248.396 1.248.901 0 .696-.684.996-1.44.996-1.489 0-1.633-.792-1.669-1.285h-1.019c.036.757.216 2.195 2.7 2.195 1.416 0 2.483-.778 2.483-2.075 0-.852-.455-1.332-1.763-1.656l-1.056-.264c-.817-.204-1.141-.324-1.141-.84 0-.781.924-.889 1.249-.889 1.332 0 1.476.661 1.488 1.057h1.019zm-7.187 2.316c0 .841-.96 1.477-1.944 1.477-.793 0-1.141-.408-1.141-1.093 0-.792.828-.948 1.345-1.02 1.308-.168 1.572-.264 1.74-.396v1.032zm-2.893-2.196c.072-.48.24-1.213 1.441-1.213.996 0 1.476.36 1.476 1.021 0 .624-.3.72-.552.744l-1.741.216c-1.751.216-1.907 1.44-1.907 1.969 0 1.08.815 1.81 1.967 1.81 1.225 0 1.861-.575 2.269-1.018.036.479.18.958 1.115.958.24 0 .396-.072.576-.119v-.767c-.12.024-.252.048-.348.048-.216 0-.348-.108-.348-.372v-3.613c0-1.607-1.823-1.751-2.327-1.751-1.549 0-2.544.587-2.592 2.087h.971zm-6.54.733c0-.973.768-1.874 1.741-1.874 1.284 0 1.692.901 1.752 1.874h-3.493zm3.445 1.667c-.036.468-.624 1.237-1.62 1.237-1.213 0-1.825-.757-1.825-2.066h4.584c0-2.219-.887-3.658-2.699-3.658-2.077 0-3.012 1.547-3.012 3.491 0 1.813 1.043 3.143 2.808 3.143 1.008 0 1.416-.239 1.704-.431.792-.527 1.079-1.416 1.115-1.716h-1.055zm-6.589-1.681c0-.912.624-1.68 1.608-1.68h.396v-1.09a.854.854 0 0 0-.276-.036c-.792 0-1.344.491-1.764 1.222h-.024v-1.042h-.995v6.274h1.055v-3.648zm-2.016-.515c-.084-1.093-.708-2.291-2.352-2.291-2.076 0-3.011 1.546-3.011 3.491 0 1.813 1.043 3.143 2.807 3.143 1.836 0 2.448-1.402 2.556-2.399h-1.02c-.18.961-.792 1.489-1.5 1.489-1.452 0-1.716-1.333-1.716-2.413 0-1.116.42-2.365 1.728-2.365.888 0 1.356.504 1.488 1.345h1.02zm-6.264-.109c0-1.787-1.223-2.182-2.195-2.182-1.081 0-1.669.731-1.897 1.066h-.024v-.886h-.995v6.274h1.055v-3.419c0-1.705 1.056-2.089 1.657-2.089 1.032 0 1.344.552 1.344 1.644v3.864h1.055v-4.272zm-6.732-4.342h-1.162v8.614h1.162v-8.614z"/></g><text transform="translate(267.883 149.058)" fill="#F1F2F2" font-family="'HelveticaLTStd-Roman'" font-size="12"></text><g><defs><path id="k" d="M0 0h510.236v467.717H0z"/></defs><clipPath id="l"><use xlink:href="#k" overflow="visible"/></clipPath><path clip-path="url(#l)" fill="#F1F2F2" d="M199.715 158.969c0-.312-.155-1.966-2.399-1.966-1.237 0-2.375.622-2.375 2.002 0 .865.575 1.309 1.45 1.525l1.225.3c.901.228 1.249.396 1.249.9 0 .696-.685.997-1.441.997-1.489 0-1.633-.793-1.669-1.285h-1.018c.036.756.216 2.195 2.699 2.195 1.417 0 2.483-.779 2.483-2.075 0-.852-.455-1.332-1.763-1.656l-1.056-.264c-.817-.205-1.141-.325-1.141-.841 0-.78.925-.888 1.249-.888 1.333 0 1.477.66 1.489 1.056h1.018zm-6.901.84c0-.912.624-1.68 1.608-1.68h.396v-1.091a.858.858 0 0 0-.276-.035c-.792 0-1.344.491-1.764 1.222h-.024v-1.043h-.994v6.275h1.054v-3.648zm-6.803.013c0-.972.768-1.873 1.741-1.873 1.284 0 1.693.901 1.753 1.873h-3.494zm3.446 1.668c-.036.468-.625 1.237-1.621 1.237-1.213 0-1.825-.757-1.825-2.066h4.584c0-2.22-.887-3.658-2.699-3.658-2.077 0-3.011 1.546-3.011 3.49 0 1.813 1.042 3.144 2.807 3.144 1.008 0 1.416-.24 1.705-.431.791-.528 1.078-1.416 1.114-1.716h-1.054zm-5.499-4.308h-.994v.887h-.024c-.252-.36-.733-1.066-1.873-1.066-1.669 0-2.615 1.366-2.615 3.131 0 1.5.623 3.503 2.759 3.503.84 0 1.393-.395 1.669-.839v-.048h.024v.264c0 .743.036 2.208-1.789 2.208-.252 0-1.225 0-1.417-.996h-1.055c.204 1.667 1.655 1.871 2.4 1.871 2.903 0 2.915-2.256 2.915-3.155v-5.76zm-4.416 3.12c0-.805.084-2.353 1.717-2.353 1.525 0 1.693 1.644 1.693 2.665 0 1.668-1.045 2.113-1.717 2.113-1.152 0-1.693-1.045-1.693-2.425m-3.393.984c0 .84-.961 1.476-1.945 1.476-.793 0-1.141-.408-1.141-1.092 0-.792.829-.948 1.345-1.02 1.308-.168 1.573-.264 1.741-.396v1.032zm-2.894-2.197c.072-.48.24-1.212 1.441-1.212.996 0 1.477.36 1.477 1.02 0 .624-.3.721-.553.745l-1.74.216c-1.752.216-1.907 1.44-1.907 1.968 0 1.08.815 1.811 1.967 1.811 1.224 0 1.861-.575 2.269-1.019.036.48.179.959 1.114.959.24 0 .396-.072.576-.12v-.767c-.12.024-.252.048-.348.048-.216 0-.348-.108-.348-.372v-3.613c0-1.607-1.823-1.75-2.327-1.75-1.549 0-2.544.586-2.592 2.086h.971zm-2.256.096c0-1.787-1.222-2.182-2.195-2.182-1.08 0-1.669.73-1.897 1.066h-.024v-.887h-.994v6.275h1.054v-3.419c0-1.705 1.057-2.089 1.657-2.089 1.033 0 1.345.552 1.345 1.644v3.864h1.054v-4.272zm-10.716.637c0-.972.768-1.873 1.741-1.873 1.284 0 1.693.901 1.753 1.873h-3.494zm3.446 1.668c-.036.468-.625 1.237-1.621 1.237-1.213 0-1.825-.757-1.825-2.066h4.584c0-2.22-.887-3.658-2.699-3.658-2.077 0-3.011 1.546-3.011 3.49 0 1.813 1.042 3.144 2.807 3.144 1.008 0 1.416-.24 1.705-.431.791-.528 1.078-1.416 1.114-1.716h-1.054zm-9.878-1.668c0-.972.769-1.873 1.741-1.873 1.284 0 1.693.901 1.753 1.873h-3.494zm3.446 1.668c-.036.468-.625 1.237-1.621 1.237-1.213 0-1.825-.757-1.825-2.066h4.584c0-2.22-.887-3.658-2.699-3.658-2.077 0-3.011 1.546-3.011 3.49 0 1.813 1.042 3.144 2.807 3.144 1.008 0 1.416-.24 1.705-.431.791-.528 1.078-1.416 1.114-1.716h-1.054zm-4.826-3.433v-.875h-1.008v-1.752h-1.054v1.752h-.852v.875h.852v4.141c0 .756.227 1.343 1.27 1.343.108 0 .408-.048.792-.084v-.827h-.372c-.216 0-.636 0-.636-.492v-4.081h1.008zm-8.915 4.237h-.024l-1.668-5.112h-1.199l2.327 6.444c-.504 1.296-.564 1.452-1.116 1.452a1.85 1.85 0 0 1-.636-.108v.971c.168.036.288.084.444.084 1.356 0 1.464-.144 2.46-2.686.803-2.053 1.523-4.105 2.255-6.157h-1.164l-1.679 5.112zm-4.104-1.993c0 1.381-.54 2.426-1.692 2.426-.673 0-1.717-.445-1.717-2.113 0-1.021.168-2.665 1.693-2.665 1.632 0 1.716 1.548 1.716 2.352m-3.421 3.156v-.779h.024c.216.348.66.959 1.729.959 2.136 0 2.759-2.003 2.759-3.503 0-1.765-.947-3.131-2.615-3.131-.733.011-1.357.311-1.813.97h-.024v-3.131h-1.055v8.615h.995z"/><path clip-path="url(#l)" fill="#9D9FA2" d="M35.312 27.888s-8.504 0-8.504 8.504v3.066s0 8.504 8.504 8.504H301.77s8.504 0 8.504-8.504v-3.066s0-8.504-8.504-8.504H35.312z"/><path clip-path="url(#l)" fill="#F1F2F2" d="M273.367 37.804c0-.312-.155-1.967-2.399-1.967-1.237 0-2.375.623-2.375 2.003 0 .865.575 1.309 1.45 1.525l1.225.3c.9.228 1.249.396 1.249.9 0 .696-.685.996-1.44.996-1.489 0-1.634-.792-1.67-1.284h-1.018c.036.756.216 2.195 2.699 2.195 1.417 0 2.482-.779 2.482-2.075 0-.852-.455-1.332-1.763-1.656l-1.056-.264c-.817-.205-1.142-.325-1.142-.841 0-.78.926-.888 1.249-.888 1.332 0 1.477.66 1.488 1.056h1.021zm-7.14.84c0-.912.624-1.68 1.608-1.68h.396v-1.091a.852.852 0 0 0-.275-.036c-.792 0-1.345.492-1.765 1.223h-.023v-1.042h-.994v6.274h1.054v-3.648zm-7.044.012c0-.972.769-1.873 1.741-1.873 1.284 0 1.691.901 1.753 1.873h-3.494zm3.446 1.669c-.036.468-.625 1.236-1.621 1.236-1.213 0-1.825-.756-1.825-2.065h4.584c0-2.22-.887-3.659-2.699-3.659-2.077 0-3.011 1.547-3.011 3.491 0 1.813 1.042 3.144 2.807 3.144 1.009 0 1.416-.24 1.704-.431.792-.528 1.079-1.416 1.115-1.716h-1.054zm-5.738-4.307h-.995v.886h-.022c-.253-.36-.733-1.067-1.874-1.067-1.669 0-2.615 1.367-2.615 3.132 0 1.5.623 3.503 2.759 3.503.84 0 1.393-.395 1.669-.839v-.048h.024v.264c0 .743.036 2.208-1.789 2.208-.252 0-1.225 0-1.417-.996h-1.055c.204 1.667 1.655 1.871 2.4 1.871 2.903 0 2.915-2.256 2.915-3.155v-5.759zm-4.416 3.119c0-.805.084-2.353 1.717-2.353 1.524 0 1.692 1.644 1.692 2.665 0 1.668-1.044 2.112-1.716 2.112-1.153 0-1.693-1.044-1.693-2.424m-3.634.984c0 .84-.961 1.476-1.945 1.476-.793 0-1.141-.408-1.141-1.092 0-.792.828-.948 1.345-1.02 1.308-.168 1.572-.264 1.741-.396v1.032zm-2.894-2.198c.072-.48.24-1.212 1.441-1.212.996 0 1.477.36 1.477 1.02 0 .624-.301.721-.553.745l-1.741.216c-1.751.216-1.906 1.44-1.906 1.968 0 1.08.814 1.811 1.966 1.811 1.225 0 1.861-.575 2.269-1.019.036.48.18.959 1.115.959.24 0 .396-.072.576-.12v-.767c-.12.024-.252.049-.348.049-.216 0-.348-.109-.348-.373v-3.613c0-1.607-1.823-1.751-2.327-1.751-1.549 0-2.544.587-2.592 2.087h.971zm-2.496.097c0-1.787-1.223-2.183-2.195-2.183-1.081 0-1.669.731-1.897 1.067h-.024v-.886h-.994v6.274h1.054v-3.419c0-1.705 1.057-2.089 1.657-2.089 1.032 0 1.345.552 1.345 1.644v3.864h1.054V38.02zm-10.956.636c0-.972.768-1.873 1.741-1.873 1.284 0 1.693.901 1.753 1.873h-3.494zm3.446 1.669c-.036.468-.625 1.236-1.621 1.236-1.213 0-1.825-.756-1.825-2.065h4.584c0-2.22-.887-3.659-2.699-3.659-2.077 0-3.011 1.547-3.011 3.491 0 1.813 1.042 3.144 2.807 3.144 1.008 0 1.416-.24 1.704-.431.792-.528 1.079-1.416 1.115-1.716h-1.054zm-10.118-1.669c0-.972.768-1.873 1.741-1.873 1.284 0 1.693.901 1.753 1.873h-3.494zm3.446 1.669c-.036.468-.625 1.236-1.621 1.236-1.213 0-1.825-.756-1.825-2.065h4.584c0-2.22-.887-3.659-2.699-3.659-2.077 0-3.011 1.547-3.011 3.491 0 1.813 1.042 3.144 2.807 3.144 1.008 0 1.416-.24 1.704-.431.792-.528 1.079-1.416 1.115-1.716h-1.054zm-5.066-3.433v-.874h-1.008v-1.753h-1.055v1.753h-.852v.874h.852v4.141c0 .756.228 1.343 1.271 1.343.108 0 .408-.048.792-.084v-.826h-.372c-.216 0-.636 0-.636-.493v-4.081h1.008zm-7.2 1.128c0-1.787-1.223-2.183-2.195-2.183-1.081 0-1.669.731-1.897 1.067h-.024v-.886h-.995v6.274h1.055v-3.419c0-1.705 1.056-2.089 1.657-2.089 1.032 0 1.344.552 1.344 1.644v3.864h1.055V38.02zm-6.696-4.342h-1.055v1.198h1.055v-1.198zm0 2.34h-1.055v6.274h1.055v-6.274zm-8.171 5.111h-.024l-1.668-5.112h-1.199l2.327 6.444c-.504 1.295-.564 1.452-1.116 1.452a1.85 1.85 0 0 1-.636-.108v.97c.168.036.288.084.444.084 1.356 0 1.464-.144 2.46-2.687.803-2.052 1.523-4.103 2.255-6.155h-1.164l-1.679 5.112zm-3.181-3.002c-.084-1.092-.708-2.291-2.352-2.291-2.076 0-3.01 1.547-3.01 3.492 0 1.812 1.042 3.143 2.806 3.143 1.836 0 2.448-1.403 2.556-2.399h-1.02c-.18.96-.792 1.488-1.5 1.488-1.452 0-1.716-1.332-1.716-2.412 0-1.117.42-2.365 1.728-2.365.888 0 1.356.504 1.488 1.344h1.02zm-6.504-.107c0-1.787-1.223-2.183-2.195-2.183-1.081 0-1.669.731-1.897 1.067h-.024v-.886h-.994v6.274h1.054v-3.419c0-1.705 1.057-2.089 1.657-2.089 1.032 0 1.345.552 1.345 1.644v3.864h1.054V38.02zm-7.954 2.101c0 .84-.961 1.476-1.945 1.476-.793 0-1.141-.408-1.141-1.092 0-.792.828-.948 1.345-1.02 1.308-.168 1.572-.264 1.741-.396v1.032zm-2.894-2.198c.072-.48.24-1.212 1.441-1.212.996 0 1.477.36 1.477 1.02 0 .624-.301.721-.553.745l-1.741.216c-1.751.216-1.906 1.44-1.906 1.968 0 1.08.814 1.811 1.966 1.811 1.225 0 1.861-.575 2.269-1.019.036.48.18.959 1.115.959.24 0 .396-.072.576-.12v-.767c-.12.024-.252.049-.348.049-.216 0-.348-.109-.348-.373v-3.613c0-1.607-1.823-1.751-2.327-1.751-1.549 0-2.544.587-2.592 2.087h.971zm-2.497.097c0-1.787-1.223-2.183-2.195-2.183-1.081 0-1.669.731-1.897 1.067h-.024v-.886h-.994v6.274h1.054v-3.419c0-1.705 1.057-2.089 1.657-2.089 1.032 0 1.345.552 1.345 1.644v3.864h1.054V38.02zm-6.575-2.002h-.995v.886h-.024c-.252-.36-.732-1.067-1.872-1.067-1.669 0-2.615 1.367-2.615 3.132 0 1.5.623 3.503 2.759 3.503.84 0 1.392-.395 1.669-.839v-.048h.024v.264c0 .743.035 2.208-1.789 2.208-.252 0-1.225 0-1.417-.996h-1.055c.204 1.667 1.655 1.871 2.4 1.871 2.903 0 2.915-2.256 2.915-3.155v-5.759zm-4.416 3.119c0-.805.084-2.353 1.717-2.353 1.524 0 1.692 1.644 1.692 2.665 0 1.668-1.044 2.112-1.716 2.112-1.153 0-1.693-1.044-1.693-2.424m-6.636-.481c0-.972.768-1.873 1.741-1.873 1.284 0 1.693.901 1.753 1.873h-3.494zm3.446 1.669c-.036.468-.625 1.236-1.621 1.236-1.213 0-1.825-.756-1.825-2.065h4.584c0-2.22-.887-3.659-2.699-3.659-2.077 0-3.011 1.547-3.011 3.491 0 1.813 1.042 3.144 2.807 3.144 1.008 0 1.416-.24 1.705-.431.791-.528 1.078-1.416 1.114-1.716h-1.054zm-6.83-1.681c0-.912.624-1.68 1.608-1.68h.396v-1.091a.854.854 0 0 0-.276-.036c-.792 0-1.344.492-1.764 1.223h-.024v-1.042h-.994v6.274h1.054v-3.648zm-7.954 6.131h1.054v-3.143h.024c.276.444.828.839 1.669.839 2.136 0 2.759-2.003 2.759-3.503 0-1.765-.947-3.132-2.615-3.132-1.141 0-1.621.707-1.873 1.067h-.024v-.886h-.994v8.758zm1.005-5.326c0-1.021.168-2.665 1.693-2.665 1.632 0 1.717 1.548 1.717 2.353 0 1.38-.541 2.424-1.693 2.424-.672 0-1.717-.444-1.717-2.112m-5.231-2.557v-.874h-1.056v-.781c0-.505.168-.733.624-.733.132 0 .3.012.432.024v-.947c-.168-.012-.324-.024-.48-.024-1.031 0-1.63.432-1.63 1.379v1.082h-.864v.874h.864v5.4h1.054v-5.4h1.056zm-8.304 2.256c0-.841.312-2.401 1.825-2.401 1.512 0 1.825 1.56 1.825 2.401 0 .84-.313 2.4-1.825 2.4-1.513 0-1.825-1.56-1.825-2.4m-1.09 0c0 1.62.91 3.311 2.915 3.311 2.004 0 2.915-1.691 2.915-3.311 0-1.621-.911-3.312-2.915-3.312-2.005 0-2.915 1.691-2.915 3.312m-8.822-.492c0-.972.768-1.873 1.741-1.873 1.284 0 1.693.901 1.753 1.873h-3.494zm3.446 1.669c-.037.468-.625 1.236-1.621 1.236-1.213 0-1.825-.756-1.825-2.065h4.584c0-2.22-.887-3.659-2.699-3.659-2.077 0-3.011 1.547-3.011 3.491 0 1.813 1.042 3.144 2.807 3.144 1.008 0 1.416-.24 1.704-.431.792-.528 1.079-1.416 1.115-1.716h-1.054zm-5.066-3.433v-.874h-1.008v-1.753h-1.055v1.753h-.852v.874h.852v4.141c0 .756.228 1.343 1.271 1.343.108 0 .408-.048.792-.084v-.826h-.372c-.216 0-.636 0-.636-.493v-4.081h1.008zm-5.147 3.229c0 .84-.96 1.476-1.945 1.476-.792 0-1.14-.408-1.14-1.092 0-.792.828-.948 1.345-1.02 1.308-.168 1.572-.264 1.74-.396v1.032zm-2.893-2.198c.072-.48.24-1.212 1.441-1.212.996 0 1.476.36 1.476 1.02 0 .624-.3.721-.552.745l-1.741.216c-1.751.216-1.907 1.44-1.907 1.968 0 1.08.815 1.811 1.967 1.811 1.225 0 1.861-.575 2.269-1.019.036.48.18.959 1.115.959.24 0 .396-.072.576-.12v-.767c-.12.024-.252.049-.348.049-.216 0-.348-.109-.348-.373v-3.613c0-1.607-1.823-1.751-2.327-1.751-1.549 0-2.544.587-2.592 2.087h.971zm-3.612.721c0-.912.624-1.68 1.608-1.68h.396v-1.091a.854.854 0 0 0-.276-.036c-.792 0-1.344.492-1.764 1.223h-.024v-1.042h-.995v6.274h1.055v-3.648zm-10.476.493c0-.805.084-2.353 1.717-2.353 1.524 0 1.692 1.644 1.692 2.665 0 1.668-1.044 2.112-1.716 2.112-1.153 0-1.693-1.044-1.693-2.424m4.476-5.459h-1.055v3.142l-.024.084c-.252-.36-.732-1.067-1.872-1.067-1.669 0-2.616 1.367-2.616 3.132 0 1.5.624 3.503 2.76 3.503.612 0 1.332-.192 1.788-1.043h.024v.863h.995v-8.614zm-11.052 4.978c0-.972.768-1.873 1.741-1.873 1.284 0 1.692.901 1.752 1.873h-3.493zm3.445 1.669c-.036.468-.624 1.236-1.62 1.236-1.213 0-1.825-.756-1.825-2.065h4.584c0-2.22-.887-3.659-2.699-3.659-2.077 0-3.012 1.547-3.012 3.491 0 1.813 1.043 3.144 2.808 3.144 1.008 0 1.416-.24 1.704-.431.792-.528 1.079-1.416 1.115-1.716h-1.055zm-5.329-2.198c-.084-1.092-.708-2.291-2.352-2.291-2.076 0-3.011 1.547-3.011 3.492 0 1.812 1.043 3.143 2.807 3.143 1.836 0 2.448-1.403 2.556-2.399h-1.02c-.18.96-.792 1.488-1.5 1.488-1.452 0-1.716-1.332-1.716-2.412 0-1.117.42-2.365 1.728-2.365.888 0 1.356.504 1.488 1.344h1.02zm-6.528 4.165v-6.274h-1.055v3.456c0 .911-.396 2.087-1.728 2.087-.685 0-1.213-.348-1.213-1.379v-4.164h-1.055v4.512c0 1.499 1.115 1.942 2.039 1.942 1.009 0 1.549-.383 1.993-1.114l.024.023v.911h.995zm-11.028-3.155c0-.805.084-2.353 1.717-2.353 1.524 0 1.692 1.644 1.692 2.665 0 1.668-1.044 2.112-1.716 2.112-1.153 0-1.693-1.044-1.693-2.424m4.476-5.459h-1.055v3.142l-.024.084c-.252-.36-.732-1.067-1.872-1.067-1.669 0-2.616 1.367-2.616 3.132 0 1.5.624 3.503 2.76 3.503.612 0 1.332-.192 1.788-1.043h.024v.863h.995v-8.614zm-11.052 4.978c0-.972.768-1.873 1.741-1.873 1.284 0 1.692.901 1.752 1.873h-3.493zm3.445 1.669c-.036.468-.624 1.236-1.62 1.236-1.213 0-1.825-.756-1.825-2.065h4.584c0-2.22-.887-3.659-2.699-3.659-2.077 0-3.012 1.547-3.012 3.491 0 1.813 1.043 3.144 2.808 3.144 1.008 0 1.416-.24 1.704-.431.792-.528 1.079-1.416 1.115-1.716h-1.055zm-11.257-5.654h2.905c.576 0 1.548.108 1.548 1.441 0 1.272-.9 1.488-1.752 1.488h-2.701v-2.929zm0 3.925h2.821c1.392 0 1.536.828 1.536 1.537 0 .324.036 1.632.204 2.159h1.427v-.191c-.36-.204-.42-.384-.432-.864l-.072-1.561c-.048-1.2-.539-1.416-1.031-1.619.552-.324 1.199-.792 1.199-2.064 0-1.824-1.415-2.315-2.831-2.315h-3.984v8.614h1.163v-3.696z"/></g><path fill="none" stroke="#000" stroke-width="2" stroke-linecap="round" stroke-linejoin="round" stroke-dasharray="0,3.989" d="M316.262 37.864h45.875"/><path fill="none" stroke="#000" stroke-width="2" stroke-linecap="round" stroke-linejoin="round" d="M312.272 37.864"/><path fill="none" stroke="#000" stroke-width="2" stroke-linecap="round" stroke-linejoin="round" stroke-dasharray="0,3.989" d="M316.262 144.63h45.875"/><path fill="none" stroke="#000" stroke-width="2" stroke-linecap="round" stroke-linejoin="round" d="M312.272 144.63"/><path fill="none" stroke="#000" stroke-width="2" stroke-linecap="round" stroke-linejoin="round" stroke-dasharray="0,3.989" d="M316.262 287.084h45.875"/><path fill="none" stroke="#000" stroke-width="2" stroke-linecap="round" stroke-linejoin="round" d="M312.272 287.084"/><path fill="none" stroke="#000" stroke-width="2" stroke-linecap="round" stroke-linejoin="round" stroke-dasharray="0,3.989" d="M316.262 422.651h45.875"/><path fill="none" stroke="#000" stroke-width="2" stroke-linecap="round" stroke-linejoin="round" d="M312.272 422.651"/></svg>