<svg version="1.1" xmlns="http://www.w3.org/2000/svg" x="0" y="0" width="411.023" height="375.391" viewBox="-42.395 21.225 411.023 375.391" xml:space="preserve"><path fill="#939598" stroke="#000" stroke-width=".707" stroke-linecap="round" stroke-linejoin="round" d="M55.415 78.02c-4.104-.174-8.386-1.047-12.582-2.445-1.66-.613-2.007-5.154-2.007-7.164-.35.087-.786.524-1.312.524.439.177.611.612.611 1.486 0 1.66-.959 1.922-1.482 3.143-.788 2.883.174 8.214-.701 7.952-.261-2.711-4.018-2.009-5.329 0 .087.261.176.698.261 1.31-1.31.175-1.573-5.502-2.27-9.261-.176 0-.439 0-.612-.174-.263-1.048.174-2.183 0-3.233-.263-.262-.439-.523-.7-.786-.524-1.222 1.397-2.272 1.748-3.145 0-6.466 2.97-10.919 4.892-16.075.439-1.482 1.313-4.193 3.145-4.979 2.62-1.221 5.765-1.482 8.649-2.183 1.745-.699.786.087 2.269-1.834.875-.786 1.836-1.048 2.621-.612-.35 1.486-.263 1.224-1.136 2.183 1.31 2.185 2.272 4.544 4.367 4.718.176 0 .786 2.361 1.922 3.931l-.174 1.136-2.18 25.508z"/><path fill="#939598" stroke="#000" stroke-width=".707" stroke-linecap="round" stroke-linejoin="round" d="M43.011 75.662c-.263.437-.439 4.105-.875 4.629 0 1.921-1.31 3.408-1.31 5.154 1.571 1.748.875 3.932.875 5.942.085.35.262.875.437 1.048 0 .786.262 1.397.612 1.748.612.437-.261 1.221-1.485.524 0 .786.087 1.136 0 1.572.261.262.786.701 0 1.136 0 3.406 1.748 8.299 1.136 11.706-.698 3.755-2.272 7.688-1.571 11.881.262 2.007-.873 5.94-1.136 7.949v2.446c-.177.261-.439.437-.612.699-.088 2.709 0 5.328.087 7.952.085 1.397-.176 2.62-.176 3.93-.174 1.223-.872 4.282-.085 4.455 1.31-2.008 6.463-2.796 8.384-.96.262.262.524.609.874.96.089.176.524-.174.613-.786.087-1.31.262-1.921.262-2.707h.786l5.591-67.004c-5.156-.178-9.874-1.399-12.407-2.274z"/><path fill="#939598" d="M49.824 148.782a4.328 4.328 0 0 1-.612-.263c-.348-.176 0-1.047 0-1.31-.348-.612-.175-1.574-.175-2.271h.786v.523l.001 3.321zm-10.309-1.049c-.871.524-.524 1.922-.437 2.62.087.7-.175.874-.175 1.922.262 2.62 7.773 4.717 9.694 1.836.264-.789-.085-1.922-.346-2.36-.439-1.311-.439-2.272-.351-3.582-1.224-1.834-3.494-1.921-5.591-1.571a8.242 8.242 0 0 0-2.185 2.097c-.259-.264-.52-.351-.609-.962z"/><path fill="none" stroke="#000" stroke-width=".707" stroke-linecap="round" stroke-linejoin="round" d="M49.824 148.782a4.328 4.328 0 0 1-.612-.263c-.348-.176 0-1.047 0-1.31-.348-.612-.175-1.574-.175-2.271h.786v.523l.001 3.321zm-10.309-1.049c-.871.524-.524 1.922-.437 2.62.087.7-.175.874-.175 1.922.262 2.62 7.773 4.717 9.694 1.836.264-.789-.085-1.922-.346-2.36-.439-1.311-.439-2.272-.351-3.582-1.224-1.834-3.494-1.921-5.591-1.571a8.242 8.242 0 0 0-2.185 2.097c-.259-.264-.52-.351-.609-.962z"/><path fill="#939598" stroke="#000" stroke-width=".707" stroke-linecap="round" stroke-linejoin="round" d="M39.515 147.733c.788-.612 1.748-.96 2.796-1.136-.609.35-1.66 1.31-2.184 2.097-.262-.263-.436-.35-.612-.961zM60.744 28.402c-.526.087-1.136.174-2.272-.088-1.748-.524-1.223-.175-1.921-1.398-.178-.347-1.575.612-1.486 1.485 0 3.408-1.047 3.756-.959 5.416-.439-.262-.525-.786-.788-1.221-.437-.612-.609-.786-1.047-.612-.437.612-.085 2.183-.085 3.494.085.875.524 1.313 1.048 1.313 0 1.048-.612 3.93-.961 4.979-.085.263-.437.524-.786.872.961 1.66 2.272 4.805 4.368 4.805.439 1.136 1.047 2.796 1.921 3.931l2.968-22.976z"/><path fill="#939598" stroke="#000" stroke-width=".707" stroke-linecap="round" stroke-linejoin="round" d="M60.744 28.402c-.526.087-1.136.174-2.272-.088-1.748-.524-1.223-.175-1.921-1.398-.178-.347-1.575.612-1.486 1.485 0 3.408-1.047 3.756-.959 5.416-.439-.262-.525-.786-.788-1.221.177-1.485-1.922-3.931.087-5.503.701-1.575 1.573-2.446 2.97-2.707 1.486-.262 3.058-.701 4.632.085.085 0 .174 0 .262.087l-.525 3.844z"/><path fill="#939598" d="M55.415 78.37c-1.31 0-2.271-.174-3.581-.437-.177.174-.177 2.183 0 2.183.96.348 1.922.437 3.404.437l.177-2.183zm-4.367-.525c-.262.698-.262 1.748-.087 2.009-2.534-.524-6.378-1.312-8.212-2.272-.177-.35 0-1.921.263-1.921 2.619.876 5.241 1.662 8.036 2.184z"/><path fill="none" stroke="#000" stroke-width=".707" stroke-linecap="round" stroke-linejoin="round" d="M55.415 78.37c-1.31 0-2.271-.174-3.581-.437-.177.174-.177 2.183 0 2.183.96.348 1.922.437 3.404.437l.177-2.183zm-4.367-.525c-.262.698-.262 1.748-.087 2.009-2.534-.524-6.378-1.312-8.212-2.272-.177-.35 0-1.921.263-1.921 2.619.876 5.241 1.662 8.036 2.184z"/><path fill="#939598" stroke="#000" stroke-width=".707" stroke-linecap="round" stroke-linejoin="round" d="M55.415 78.02c-.439 0-.523 2.01-.176 2.707l.176-2.707zM37.944 81.516c-.087 1.834.087 3.494.176 5.326.348.875 1.922 1.313 2.358 1.838.524.609 1.048 2.095 1.398 3.231.612.959 0 1.485 1.047 2.446.176.174-.174.7-.612.7-1.573-.176-1.745-1.312-2.358-3.057-.524 1.221 0 1.572-.35 2.796.961.524 1.571 1.31 2.009 1.835.437.611-.786 1.135-1.397.523-.961.174-.875.524-2.099-.523-.872 0-1.047.261-1.572-.089-1.572-.085-1.048.089-2.359-1.22-.612-.79-.612-1.922-.873-2.711-.174-.346-.174-1.133 0-1.482.437-.961 0-1.573.524-2.533-.175-2.446-.699-4.106-1.223-7.076.962-1.664 4.981-2.976 5.331-.004z"/><path fill="#939598" stroke="#000" stroke-width=".5" d="M34.536 95.667c.35.349.7.612.788.701a6.35 6.35 0 0 0 1.221.085c.439.439.786.178 1.572.178 1.223.959 1.223.698 2.099.523-.524-.261-1.224-1.224-2.183-1.921-.524-.786-.351-1.571-.439-2.272-.174.35-.174 1.136-.174 1.748.088.612.524 1.048.524 1.482-.174.177-1.221.177-1.397-.175-.786-1.834-.699-1.66-.875-3.231-.085 1.398-.085.959.439 2.97-.177.262-.962.437-1.31-.263-.351-.701-.613-2.271-.788-2.621-.001.699.523 2.01.523 2.796z"/><path fill="none" stroke="#000" stroke-width=".5" d="M53.581 38.186c0 1.834 1.05 4.454 3.234 4.454.523 0 1.31.177 2.007.35"/><g fill="none" stroke="#000"><path stroke-width=".707" stroke-linecap="round" stroke-linejoin="round" d="M63.888 45.436c1.048.961 2.796 1.051 4.63 1.748 2.444.961 5.591 6.115 6.464 8.387.351.262.786.262.437.872 0 2.533 1.574 4.542 1.574 7.079 1.483-.088 2.006 2.358 1.048 2.707.349.262.698.437.959.961 0 .698-.262 1.484-.523 2.007.176.087.439.524.523.7 0 1.22-.523 2.446-1.397 3.232-.348-2.708-4.542-3.757-6.986-.875 0-.786-.701-1.397-.524-2.097-.176 0-.873-.523-1.136-.786 0-.7.261-1.485 0-1.921 0 .174-.439.959-.612 1.221 0 1.921 2.009 2.97 1.047 5.154-.174.525-.437.263-.437.961-1.311 0-4.104 1.485-4.98 2.444-6.727 1.573-14.064.701-21.143-1.659-1.66-.613-2.007-5.155-2.007-7.164-.35.087-.786.524-1.312.524.439.178.611.612.611 1.486 0 1.66-.959 1.921-1.482 3.143-.788 2.884.174 8.214-.701 7.952-.261-2.711-4.018-2.009-5.329 0 .087.262.176.698.261 1.31-1.31.175-1.573-5.502-2.27-9.262-.176 0-.439 0-.612-.174-.263-1.048.174-2.183 0-3.233-.263-.261-.439-.523-.7-.786-.524-1.222 1.397-2.271 1.748-3.145 0-6.465 2.97-10.92 4.892-16.075.439-1.482 1.313-4.193 3.145-4.979 2.621-1.221 5.765-1.483 8.649-2.183 1.745-.7.786.087 2.269-1.834.875-.786 1.836-1.048 2.621-.611-.35 1.486-.263 1.223-1.136 2.183 1.31 2.184 2.272 4.543 4.367 4.717.262 0 1.136 3.843 2.97 4.892 1.136-3.581 3.497-4.455 3.497-8.908 1.14-.259 1.052.702 1.575 2.012z"/><path stroke-width=".707" stroke-linecap="round" stroke-linejoin="round" d="M43.011 75.662c-.263.437-.439 4.105-.875 4.629 0 1.921-1.31 3.408-1.31 5.154 1.571 1.748.875 3.932.875 5.942.085.35.262.875.437 1.048 0 .786.262 1.397.612 1.748.612.437-.261 1.221-1.485.524 0 .786.087 1.136 0 1.572.261.262.786.701 0 1.136 0 3.406 1.748 8.299 1.136 11.706-.698 3.755-2.272 7.688-1.571 11.881.262 2.007-.873 5.94-1.136 7.949v2.446c-.177.261-.439.437-.612.699-.088 2.709 0 5.328.087 7.952.085 1.397-.176 2.62-.176 3.93-.174 1.223-.872 4.282-.085 4.455 1.31-2.008 6.463-2.796 8.384-.96.262.262.524.609.874.96.089.176.524-.174.613-.786.087-1.31.262-1.921.262-2.707 1.572 0 4.018-.701 5.503-.961 1.834-.524 3.755.523 5.329-.786 0-.437-.439-.959-.612-1.221 0-1.66.875-3.406 1.31-4.894.612-2.007.439-5.416.875-7.425v-.959c1.136-1.224 1.31-3.76 2.444-4.979 0-3.932 2.011-8.648 2.621-12.582 1.136-5.94.699-12.842 1.835-18.782 0-.262.349-1.66.873-2.793 1.744-5.156-.349-6.115-.439-7.775-.261.174-.699 1.136-1.398.612-.262-.177-.262-.527.087-.788.175-.347.261-.698.439-.96.174-.261 1.048-.524 1.482-.875-.174 0-.698.263-1.66.351-.35.35-1.136 1.31-1.746 1.31-.175 0-.524 0-.524-.437 0-.176.262-.439.262-.612-.262.349-1.134.349-.96-.439.262-.609.875-1.66 1.136-2.007.174-.261 1.31-1.051 1.747-1.397-.525-.35-1.574.786-2.098.786-.437.174-1.397.523-1.573-.088-8.035 2.005-17.031-.267-20.963-1.577z"/><path stroke-width=".707" stroke-linecap="round" stroke-linejoin="round" d="M54.542 145.462c.262-.612.959-1.397 2.097-1.572 1.485 0 2.361-.087 2.795-.35 1.748.959 3.408 3.143 4.542 3.582.786.262 2.185.351 2.62.437.439 0 .349 1.224.087 1.836.437.437.349.786-.175 1.137-1.748.348-5.241.348-7.863-.266-1.485-.262-1.485-.96-4.104-1.395-.612-.088-.351.523-1.573.437-.612 0-3.145-.35-3.758-.786-.348-.176 0-1.047 0-1.31-.348-.612-.175-1.574-.175-2.271 1.048 0 1.921-.176 2.62-.35.791.431 1.227.871 2.887.871zm-15.027 2.271c-.871.524-.524 1.922-.437 2.62.087.7-.175.874-.175 1.922.262 2.62 7.773 4.717 9.694 1.836.264-.789-.085-1.922-.346-2.36-.439-1.311-.439-2.272-.351-3.582-1.224-1.834-3.494-1.921-5.591-1.571a8.242 8.242 0 0 0-2.185 2.097c-.259-.264-.52-.351-.609-.962z"/><path stroke-width=".707" stroke-linecap="round" stroke-linejoin="round" d="M39.515 147.733c.788-.612 1.748-.96 2.796-1.136-.609.35-1.66 1.31-2.184 2.097-.262-.263-.436-.35-.612-.961zm12.143-3.145c.612-.174 2.621-.612 3.32-.698.788-.087 1.224-.087 1.66 0-.959.174-1.66.698-2.097 1.572-1.309 0-2.095-.349-2.883-.874zM62.317 43.428c.174-.524.437-1.313.524-2.009 1.047-.786 1.573-2.446 1.922-3.058 1.048 0 2.097-2.533 2.183-3.756-.174-.611-.959.085-1.748.96-.262 0 .35-1.748.263-2.446-.263-.524.261-2.796 0-3.146-.263.177-.263.439-.437.875-.261-.524-.087-.96 0-1.397-.873-1.31-2.62-1.31-3.494-1.136-.612 0-1.312.439-3.058 0-1.748-.524-1.223-.175-1.921-1.398-.178-.347-1.575.612-1.486 1.485 0 3.408-1.047 3.756-.959 5.416-.439-.262-.525-.786-.788-1.221-.437-.612-.609-.786-1.047-.612-.437.612-.085 2.183-.085 3.494.085.875.524 1.313 1.048 1.313 0 1.048-.612 3.93-.961 4.979-.085.263-.437.524-.786.872.961 1.66 2.272 4.805 4.368 4.805.612 1.573 1.575 4.194 2.972 4.892.085-1.047 2.097-3.928 2.446-4.629.781-1.401 1.132-3.061 1.044-4.283z"/><path stroke-width=".707" stroke-linecap="round" stroke-linejoin="round" d="M66.334 34.517c-.348.174-.786.611-1.136 1.048-.262 0 .35-1.748.263-2.446-.263-.524.261-2.796-.085-3.146-.261.177-.261.439-.35.875-.262-.524-.087-.96 0-1.397-.874-1.31-2.97-1.31-3.494-1.136-.612 0-1.313.439-3.058 0-1.748-.524-1.224-.175-1.922-1.398-.177-.347-1.575.612-1.486 1.485 0 3.408-1.047 3.756-.96 5.416-.439-.262-.525-.786-.788-1.221.178-1.485-1.921-3.931.088-5.503.7-1.575 1.572-2.446 2.97-2.707 1.486-.262 3.058-.701 4.633.085.609.087 2.446.439 3.055.961 3.058.261 4.282 4.367 3.32 6.902-.175.522-1.05 1.308-1.05 2.182zM66.859 77.146c-2.708 1.136-9.96 1.575-11.442 1.224-1.31 0-2.272-.174-3.581-.437-.178.174-.178 2.183 0 2.183 1.221.437 2.62.437 5.153.437 2.184.087 6.727-.612 7.863-.875.697-1.134.784-1.744 2.007-2.532zm-15.811.699c-.262.698-.262 1.748-.087 2.009-2.534-.524-6.378-1.312-8.212-2.272-.177-.35 0-1.921.263-1.921 2.619.876 5.241 1.662 8.036 2.184z"/><path stroke-width=".707" stroke-linecap="round" stroke-linejoin="round" d="M57.599 78.459c-.524-.176-1.31-.439-2.185-.439-.523 0-.611 2.707 0 2.883.786.086 1.834-.087 2.272-.349h-1.66c-.349-.088-.176-2.011 0-2.097.612.087 1.049.087 1.573.002zM70.616 72.166c0 1.05-.263 2.448-.263 3.408-.439 0-.873-.7-1.397-.786-1.397.088-4.282 1.572-4.98 2.445.175.524.875.35 1.484.089.961-.089 1.397-1.136 2.183-.786-1.921 1.397-1.658 1.136-2.792 3.231-.439.699.523 1.136.959.613-.087.174-.263.262-.35.523-.085.524.612.698.961.351.523-.262.959-.701 1.31-1.136.523 0 1.136-.176 1.66-.35-.611.437-.786.35-1.31.699-.262.176-.349.788-.786 1.224-.351.698.263 1.048.699.786.35-.174.786-.786 1.047-1.048.439-.35 1.748-.612 2.362-1.136.349-.174.873-.174 1.571-.524.873-.873.873-1.66 1.575-2.445 1.66-2.883 2.794-3.582 3.055-4.282-.348-1.834-1.834-2.27-2.446-2.358-.523-.178-2.533-.612-4.542 1.482zm-32.672 9.35c-.087 1.834.087 3.494.176 5.326.348.875 1.922 1.313 2.358 1.838.524.609 1.048 2.095 1.398 3.231.612.959 0 1.485 1.047 2.446.176.174-.174.7-.612.7-1.573-.176-1.745-1.312-2.358-3.057-.524 1.221 0 1.572-.35 2.796.961.524 1.571 1.31 2.009 1.835.437.611-.786 1.135-1.397.523-.961.174-.875.524-2.099-.523-.872 0-1.047.261-1.572-.089-1.572-.085-1.048.089-2.359-1.22-.612-.79-.612-1.922-.873-2.711-.174-.346-.174-1.133 0-1.482.437-.961 0-1.573.524-2.533-.175-2.446-.699-4.106-1.223-7.076.962-1.664 4.981-2.976 5.331-.004z"/><path stroke-width=".5" d="M67.733 80.117c.177-.176.177-.261.262-.523.701 0 2.361-1.136 2.882-1.398-.176 1.136-1.136.959-1.485 1.571-.523.176-1.048.263-1.659.35zm-1.136-3.406c.786-.524.875-.698 1.136-.698.262 0 .262 0 .349.261.437-.176 1.221-.439 1.66-.439-1.048.439-2.36 1.224-2.97 1.486.085-.178.786-.612.959-.786-.172-.087-.522-.174-1.134.176zm-.786 3.581c-.175.088-.263.35-.699.263.261 0 .609-.263.699-.787.176-.437.523-1.135 1.222-1.571.875-.439 2.358-.874 3.582-1.313-.089.439-2.973 1.399-3.408 1.748-.784.525-.873 1.135-1.396 1.66zM34.536 95.667c.35.349.7.612.788.701a6.35 6.35 0 0 0 1.221.085c.439.439.786.178 1.572.178 1.223.959 1.223.698 2.099.523-.524-.261-1.224-1.224-2.183-1.921-.524-.786-.351-1.571-.439-2.272-.174.35-.174 1.136-.174 1.748.088.612.524 1.048.524 1.482-.174.177-1.221.177-1.397-.175-.786-1.834-.699-1.66-.875-3.231-.085 1.398-.085.959.439 2.97-.177.262-.962.437-1.31-.263-.351-.701-.613-2.271-.788-2.621-.001.699.523 2.01.523 2.796zM53.581 38.186c0 1.834 1.05 4.454 3.234 4.454.96 0 2.534.525 3.581.525.263 0 2.534-1.485 2.534-1.836"/></g><g fill="#939598"><path d="M295.651 145.724l-1.134.35-2.271-.787.438-5.066c-.087-.349-.264-.786-.264-1.223 0-.699.441-1.221.264-2.097-.959-6.203-2.881-17.472-3.758-21.405l8.213.087c0 .524.088 1.048 0 1.66 0 1.66-.087 5.154-.176 8.648l-1.312 19.833z"/><path d="M296.786 128.166l-.787-10.221-.172-2.36h1.745zM295.651 145.724l-1.136.35-2.27-.787.436-4.28-1.484 5.415 1.572 4.281 1.66.088.959-1.224zM294.341 59.064H284.12l-.525 1.048.701 2.533.785 2.708-.348 2.446-1.486 7.775v4.282s-1.659 9.521-1.659 10.395c0 .875.874 3.058.874 3.058l.261 1.398-.261 4.017-.874-.698-.086-2.97-.7 2.62 1.222 2.97-3.669-2.708-.174-4.106s1.048-2.009 1.136-3.669c.084-1.66-1.313-8.123-.61-14.149.522-5.242.436-13.455.696-15.902.089-.786.089-1.66.089-2.534-.785-1.136-2.446-2.006-2.361-3.404.087-1.313 2.621-1.575 2.711-2.884.085-1.221-2.1-1.834-2.272-3.058-.087-.699 1.573-.437 1.748-1.136.175-.609-.789-1.049-1.051-1.66-.085-.262-.085-.524.086-.698.352-.351 1.312-.263 1.224-.701 0-.609-1.136-.698-1.312-1.31-.175-.786-.086-1.922.523-2.534.527-.348 1.137.875 1.747.701.874-.349 2.01-1.047 1.923-2.009-.088-.875-2.097-.699-2.272-1.66-.261-1.31.263-2.795 1.224-3.756.699-.7 1.922 0 2.795-.349.787-.175 1.572-.437 2.008-1.049.611-.96 0-2.708.961-3.232 1.66-.701 3.582-.961 5.417-.788l1.75 31.013z"/><path d="M294.167 56.443h-5.242l.086-.085-1.133-6.552-3.846 2.446 1.222 4.63-1.66 3.231.699 2.534c1.222 2.796 4.895 6.377 3.405 8.998-.959 1.66-2.88 11.357-2.794 12.582 0 1.834-2.534 10.306-1.397 17.122 1.312 7.6.176 14.152 1.397 14.152l12.665.175v-.262l-3.402-58.971zM289.71 44.564c.874.262 1.399 1.047 2.272 1.22.524.175 1.048.175 1.572.088l-.7-13.456c-2.186.087-4.192.788-5.327 2.448-.612 1.048-.263 4.718.174 5.94.177.352 1.486 3.671 2.009 3.76z"/></g><g fill="none" stroke="#000" stroke-width=".5"><path d="M296.612 138.648s.348 4.28.262 3.928v2.71l-2.361.787-2.269-.787.438-5.067c-.088-.349-.264-.786-.264-1.222 0-.699.439-1.221.264-2.097-.96-6.203-2.881-17.472-3.758-21.406l8.213.088c0 .524.088 1.048 0 1.66-.088 3.669-.351 16.163-.524 17.909l-.001 3.497z"/><path d="M300.892 143.802l.263 1.748-.263 1.572.611 2.97-2.358 1.834-1.921-1.834.261-3.058v-1.484l.348-2.36-.176-3.495-1.66-21.752-.174-2.36 8.213.087c.262 1.31.262 2.62-.088 4.193-.435 1.75-3.143 22.453-3.056 23.939z"/><path d="M296.7 139.958s.261 2.97.175 2.62v2.709l-2.36.787-2.27-.787.438-4.282-1.482 5.416 1.572 4.282 1.66.088 2.795-3.319v-4.108l.085-2.185-.613-1.221zM301.155 146.335l-.263.786.612 2.971-2.358 1.833-1.921-1.833.347-3.408-1.484 4.717 2.01 4.108h1.746l2.971-3.846zM303.339 63.17l.7-3.058-.438-1.048h-19.482l-.525 1.048.7 2.533.786 2.708-.348 2.446-1.486 7.775v4.282s-1.659 9.521-1.659 10.395c0 .875.873 3.058.873 3.058l.262 1.398-.262 4.017-.873-.698-.086-2.97-.701 2.62 1.223 2.97-3.67-2.708-.174-4.106s1.049-2.009 1.137-3.669c.084-1.66-1.313-8.123-.611-14.149.523-5.242.436-13.455.697-15.902.089-.786.089-1.66.089-2.534-.786-1.136-2.447-2.006-2.362-3.404.088-1.313 2.621-1.575 2.711-2.884.086-1.221-2.099-1.834-2.271-3.058-.088-.699 1.572-.437 1.748-1.136.175-.609-.79-1.049-1.051-1.66-.086-.262-.086-.524.086-.698.352-.351 1.312-.263 1.224-.701 0-.609-1.136-.698-1.313-1.31-.174-.786-.085-1.922.524-2.534.525-.348 1.136.875 1.746.701.875-.349 2.011-1.047 1.923-2.009-.087-.875-2.097-.699-2.271-1.66-.262-1.31.263-2.795 1.224-3.756.699-.7 1.921 0 2.795-.349.786-.175 1.572-.437 2.008-1.049.61-.96 0-2.708.961-3.232 2.097-.961 4.63-1.05 6.901-.525.874.176.612 1.921 1.485 2.448.609.348 1.396-.701 2.006-.527 1.313.439 2.796.961 3.583 2.099.523.698-.699 1.572-.524 2.358.176.961 1.136 1.486 1.485 2.272.085.35-.524.701-.35.962.961 1.22 2.882 1.66 3.582 3.143.438.786-.787 1.659-.787 2.621 0 .698.174 1.571.787 1.922.7.348-.089.263.611.085 0 0-.087.701 0 1.313.262 1.572 2.271 2.359 2.62 3.93.088.611-1.834.611-1.66 1.223.613 1.485 2.711 2.097 3.408 3.582.261.524-.525 1.048-.787 1.486l-1.049.524c.176 1.745.438 3.843.524 5.588.263 3.758 1.05 9.262 1.05 9.262l2.444 4.892s2.362 10.397 2.272 12.143c-.176 1.748-.438 7.425-.438 7.425l-1.836 2.97s-1.922 1.135-2.097 1.311c-.261.086-.961-.087-.439-.439.524-.347 1.66-1.31 1.66-1.31l-2.692.962 2.009-1.66-2.271.524 1.574-1.136-.961-.349 1.922-.261-.086-2.446.349-2.446s2.008-1.224.612-5.156c-1.399-3.93-4.282-7.425-6.203-11.442-1.398-4.282-2.532-7.775-3.32-10.745l.782-2.272z"/><path d="M299.582 71.643c1.223-2.796 2.534-5.678 3.756-8.473l.701-3.058-1.486-3.669h-.609l1.135-3.055-3.585-2.796-1.047 5.851h-9.521l.086-.085-1.133-6.552-3.845 2.446 1.221 4.63-1.66 3.231.701 2.534c1.22 2.796 4.893 6.377 3.403 8.998-.959 1.66-2.88 11.357-2.794 12.582 0 1.834-2.531 10.306-1.397 17.122 1.312 7.6.176 14.152 1.397 14.152l19.918.175c11.88.175 3.056-18.432 2.098-28.916-.262-2.447-1.746-4.718-2.881-6.99-1.313-2.798-2.972-5.417-4.458-8.127zM289.71 44.564c.874.262 1.399 1.047 2.272 1.22.872.261 1.834.088 2.708 0 .786 0 2.27-.612 2.62-1.047 1.135-1.573 1.135-4.542 1.135-6.813 0-1.748.086-3.844-1.484-4.632-2.794-1.31-7.601-1.221-9.433 1.575-.611 1.048-.263 4.718.174 5.94.176.349 1.485 3.668 2.008 3.757zM313.385 93.659l-.96 2.269-.176 1.922-1.135.788v-.962"/><path d="M311.637 99.598l1.224-2.183-.351-1.748M290.496 45.087c0 1.221-.261 2.708-1.047 3.494-.351.349-1.135 1.571-1.486 1.571M296.7 45.173c.175 1.224.61 2.183.87 3.408.178.786 1.138 2.097 1.838 2.097M279.49 57.666c.262-1.486 1.311-2.796 2.184-3.756.175-.087.786-.961 1.135-.961.176 0 1.049-.613 1.222-.699"/></g><g fill="none" stroke="#000" stroke-width=".5"><path d="M-16.567 285.76c0 1.135-.087 2.62-.087 4.106 0 2.446-1.31 2.359-2.446 3.404-2.796 2.533-5.503-1.397-7.425-2.096-.263 0-.351.087-.524.087-1.051 0-2.361-3.145-.612-3.759 0 .178.174.262.437.438 0-.7 1.136-2.271.961-2.449-.524-.436.524-2.005.524-2.707 0-.437.349-.347.437-.61.087-.524 1.312-1.312 1.575-1.312.524 0 2.708-.085 2.796 0 .437.961 3.232-.61 3.232 1.136 0 .786.612.961.874 1.573.085.263.261.961.261 1.484l-.003.705z"/><path d="M-27.226 287.944c-.612-.35-.524-.524-.524-1.313 0-.608.088-1.481.088-2.007 0-.523-.088-1.837.437-1.837 0-.785-.085-1.135.35-1.572.174-.174.351-.699.437-.785.262-.178.612-.351.788-.524.262-.263.347-.701.872-.701.177 0 .262-.261.439-.345.174-.09 1.136-.179 1.397-.09.437 0 .875-.261 1.31-.261.612 0 .875.351 1.397.351.699 0 .612.084 1.048.345.178 0 .701.177.701.35 0 .176.523.611.609.611.089 0 .526.787.526.787.262.262.437.612.437 1.135 0 .175.349.438.349.787 0 .086-.087.611 0 .699.174.348.347.7.347 1.223 0 .437-.261.873-.261 1.137 0-.525-.175-1.924-.348-2.362-.261-.61-.873-.786-.873-1.572 0-1.748-2.796-.175-3.235-1.136-.085-.085-2.27 0-2.793 0-.262 0-1.485.787-1.575 1.31-.085.266-.437.178-.437.612 0 .7-1.048 2.271-.524 2.707.174.178-.962 1.751-.962 2.451zM-26.614 291.264c.524 1.048.089 4.189.962 5.064.524.438 1.31 1.135 1.571 1.746.437.875.35 1.836.699 2.532 1.05 0 2.534-1.483 3.408-1.922.786-.349 1.834-1.483 1.834-2.359-.262 0-.523-.086-.786-.176-.351-.261-.351-1.747-.351-2.795-2.707 2.359-5.326-1.485-7.247-2.184h-.089l-.001.094z"/><path d="M-26.702 291.35c-.348 0-1.834.701-2.097 1.05-.524.871-2.796 1.22-3.669 2.007-1.398 1.486-2.097 3.235-2.97 5.066-.698 1.399-2.096 3.757-2.096 5.064-.178.265-.524.79-.612 1.051-.261.349.175.524.262.699.261.524.174 1.486.437 1.837.612.525 1.135-.177 1.836-.611l.085-.178h.088c.175-.084.261-.084.437-.084l.087-.088.875-.088c.612-.083 1.31-.174 1.834 0 0 0 .088.088.177.088.174.088.261.263.348.35.349.438.701.959 1.485.611 1.224-.7 4.63 1.482 4.106 2.007-.263.263-1.31 0-1.221 0 .96 0 2.794 1.575.698 1.575l-1.834-1.05 2.096 1.223c.087.086.087.086.174.086v.086c.089 0 .089.35 0 .35-.085.175-.698.088-.786.088-.085 0-.698-.088-.698-.088-.524 0-1.048-.35-1.398-.786.087.523.35.437.786.612.174.084.699.174.699.347 0 .785-.61.611-1.135.438-.261-.087-.524-.087-.788-.263-.175-.087-.348-.522-.437-.7l.174.262c0 .263.524.522.788.7.174.085.174.523-.176.523-.351 0-.351 0-.524-.262-.349-.262-.698-.44-1.047-.701-.174-.085-.439-.263-.612-.346a51.4 51.4 0 0 0-.524-.265c-.261-.176-.437-.348-.698-.525-.088 1.396-.177 2.711-.177 3.668 0 .787-.261 2.272-.437 3.234-.35 2.008.612 3.668-.089 5.852 1.486-1.137 6.814-4.019 8.912-4.019 2.006 0 3.582.263 5.416.874.701.262 3.408 1.66 3.843 1.66.351-.961.786-2.01 1.048-2.884.088-.437.439-.874.439-1.31 0-.177-.087-.874-.087-.874-.086-.262-.174-.439-.263-.701 0 0-.174-.175-.174-.263-.176-.084-.35-.437-.439-.609-.085-.176-.262-.349-.262-.526v-.608l.349-.263c-.786.176-1.397.176-2.009-.178-2.097-.959.875-.785 1.66-.785-.437 0-2.707.178-2.707-.349 0-.175 0-.347.087-.526.085-.174.437-.083.699-.083.523-.088 1.485.175 1.485 0 .089-.177-1.834.263-2.36-.088-.174 0 0-.174-.085-.262-.087-.088.085-.44.174-.44h1.31c-.347-.174-1.745.178-1.745-.437 0-.086 0-.437.085-.437.088 0 .351-.088.351-.088 0-.087.786-.087.873-.087s.699-.523.786-.609c0-.088-.174-.177-.174-.264l-.35-.262s-.262-.347-.437-.262l-.261.262c-.176.178-.439.178-.701.178-.175 0-.698.084-.698-.262 0-.351.437-.525.609-.787.088-.088.439-.527.524-.527.263-.086.439-.175.701-.175.261 0 .524.262.786.35.524 0 .786.698 1.136.96.174.177 1.048-.086 1.221 0 .438.261.525.261 1.135.261.087 0 .961.788 1.051.875.348.26.348.26.348.611.523-.178.701-2.885.439-3.059-1.748-.786-.96-2.795-.96-4.804 0-1.05-.437-1.134-.437-1.744 0-.701-.874-.787-1.485-.875-.524 0-.612-.7-.959-1.048-.439-.524-.961-.961-.961-1.399v-.174h.087c.089 0 0-.175 0-.175s.089 0 .089-.088c0 0 .085 0 .085-.084v-.087c0-.088.087-.176.087-.176-.786.086-1.398-1.398-1.921-1.921 0 0-.175-.524-.263-.612-.439-.611-1.136-1.66-2.009-1.66l-.088.088c0 .96 0 2.447.351 2.707.263.085.524.177.786.177 0 .873-1.048 2.008-1.834 2.359-.875.438-2.361 1.922-3.408 1.922-.348-.699-.261-1.658-.699-2.532-.261-.612-1.047-1.312-1.571-1.747-.788-.874-.527-3.67-.962-4.893l-.09-.08z"/><path d="M-36.136 307.948l.609-.612.612-.174 1.834-.174.788.083c.698 0 .871 1.662 2.096 1.049 1.224-.698 4.63 1.485 4.106 2.009-.263.263-1.31 0-1.221 0 .959 0 2.793 1.575.698 1.575l-1.834-1.05 2.095 1.223c.088.087.088.087.174.087v.086c.089 0 .089.349 0 .349-.085.176-.698.088-.786.088-.085 0-.698-.088-.698-.088-.524 0-1.048-.349-1.399-.785.088.522.351.437.786.611.174.084.699.174.699.347 0 .786-.61.612-1.134.439-.262-.088-.525-.088-.789-.263-.175-.088-.348-.523-.437-.701l.174.262c0 .263.523.523.789.701.174.085.174.522-.177.522-.35 0-.35 0-.524-.262-.349-.261-.698-.44-1.047-.7-.174-.085-.439-.263-.612-.347l-.524-.267c-1.657-1.213-3.056-2.523-4.278-4.008zM-10.977 311.355c0-.44 0-.44-.348-.701-.088-.085-.961-.874-1.051-.874-.609 0-.698 0-1.134-.262-.176-.085-1.049.178-1.222 0-.35-.264-.612-.959-1.136-.959-.262-.088-.524-.35-.786-.35s-.437.087-.698.177c-.088 0-.439.438-.527.525-.174.262-.609.437-.609.787 0 .348.523.261.698.261.262 0 .524 0 .701-.175l.261-.264c.174-.085.437.264.437.264l.35.262c0 .085.174.174.174.264-.087.084-.698.606-.786.606s-.873 0-.873.088c0 0-.262.088-.351.088-.086 0-.085.35-.085.437 0 .611 1.398.263 1.745.438h-1.31c-.086 0-.262.349-.174.438.085.088-.087.262.085.262.526.35 2.448-.086 2.36.087 0 .176-.96-.087-1.485 0-.263 0-.609-.087-.699.084-.087.179-.087.352-.087.528 0 .523 2.271.347 2.707.347-.786 0-3.755-.176-1.66.785 1.921.962 5.503-1.133 5.503-3.143z"/><path d="M-31.681 296.153c.701 1.312-.437 4.632-.437 6.117 0 1.744.261 3.232.261 5.154M-15.432 304.367v4.282M-15.695 322.537c-.609 1.838-1.395 3.497-2.792 4.718-.7.611-1.66 1.047-2.184 2.098-.087.265-.788.699.085.96 1.575.44 2.796 1.225 3.145 2.709.175.611.437 1.136 1.136 1.398 1.221.524 2.533 1.575 3.494 3.235.174.26.875.435.961.785 0 .174.085.262.263.347.261.086 1.047-.175 1.482-.085.178 0 .701.348.701.436.174.264.437.089.437.441 0 .698-.087 1.047-.35 1.481 0 1.573-4.541 8.125-6.462 6.202-.439-.523-.176-2.361-.875-2.707-.35-.088-.698-.789-1.136-.961-1.221-.613-2.358-2.271-3.669-3.146 0 .875.701 4.022 1.312 4.633 1.136 1.137-1.223 3.757.348 5.242.523.61.788 1.744 1.136 2.532.176.349.088 1.312.088 1.835-.701.264-1.397.787-2.097 1.398-1.312 1.135-2.621 1.482-3.846 1.049-.786-.262-1.482-.262-2.183-.437-.698-.179-.786-.788-.698-1.747.261-5.33-.524-10.483-2.009-15.375-1.66-5.33-2.535-10.661-2.97-15.902 2.097-1.311 6.291-3.495 8.038-3.495 2.009 0 3.582.263 5.416.874.524.176 1.921.872 2.97 1.311l.259.171z"/><path d="M-25.217 321.927c-1.485 1.922-3.32 4.892-4.106 7.772-.351 1.313-.875 2.621-.439 3.931.789 2.446 2.448 2.362 3.843 3.669.525.525 2.534 1.483 3.058 1.745.351.178 1.136 1.397 1.313 1.397M-9.318 341.144l.087-.088c.437.874 1.66 1.136 1.66 2.011 0 .959 0 1.135-.263 2.008-.174.524-.786 1.137-1.047 1.66-.524.699-.35 1.398-.612 2.007-.698 1.397-3.145 4.021-4.98 4.021-1.397 0-.786-1.485-.786-2.183 0-1.138-.261-2.272-.174-3.146 2.01 1.047 6.029-4.803 6.115-6.29zM-28.448 362.461c1.221.085 3.057-.961 4.106-1.313.959-.348 1.66-1.572 2.271-2.359.262-.262.698-.349 1.047-.524.699-.349 2.01-.873 2.535-.873.959 0-.176-2.096-.263-2.708-.612.35-1.313.786-1.922 1.398-1.312 1.135-2.621 1.482-3.846 1.048-.786-.261-1.395-.261-2.097-.437-.349.608-1.136.96-1.66 1.481-.698.7-1.485 1.313-1.485 2.533 0 .525.178.699.35 1.049.089.18.876.705.964.705z"/></g><g stroke="#000" stroke-width=".5"><path fill="#939598" d="M219.127 293.534c-1.313-.698-2.533-2.007-3.583-2.358-.178 0-.349.088-.524.088-1.049 0-2.271-3.146-.61-3.76.085.178.174.262.437.439 0-.701 1.135-2.272.961-2.45-.524-.435.524-2.005.524-2.707 0-.437.351-.347.437-.609.088-.525 1.31-1.313 1.575-1.313h1.745l-.962 12.67z"/><path fill="#939598" d="M214.844 287.944c-.612-.35-.524-.524-.524-1.313 0-.608.088-1.481.088-2.097 0-.436-.088-1.747.437-1.747 0-.785-.086-1.135.349-1.572.174-.174.35-.699.525-.785.174-.178.523-.351.698-.524.266-.263.439-.701.873-.701.178 0 .263-.261.439-.345.263-.09 1.136-.179 1.398-.09.436 0 .698-.177 1.135-.177l-.176 2.271h-1.748c-.263 0-1.482.787-1.572 1.313-.084.263-.437.176-.437.609 0 .701-1.049 2.272-.524 2.707.174.178-.961 1.751-.961 2.451zM215.456 291.264c.523 1.048.087 4.189.96 5.064.526.438 1.313 1.135 1.575 1.746.437.786.437 1.66.611 2.272l.524-6.817c-1.313-.698-2.533-2.007-3.583-2.358h-.086v.093h-.001z"/><path fill="#939598" d="M215.367 291.35c-.26 0-1.832.701-2.095 1.05-.524.871-2.795 1.22-3.67 2.007-1.397 1.486-2.097 3.235-2.97 5.066-.7 1.399-2.009 3.757-2.009 5.064-.262.265-.612.79-.7 1.051-.176.349.175.524.263.699.262.524.176 1.486.438 1.837.611.525 1.222-.177 1.836-.611l.085-.178h.088c.174-.084.349-.084.438-.084l.087-.088.961-.088c.523-.083 1.22-.174 1.745 0 .087 0 .176.088.176.088.174.088.262.263.349.35.349.438.7.959 1.484.611 1.312-.7 4.63 1.482 4.104 2.007-.26.263-1.22 0-1.22 0 .961 0 2.794 1.575.699 1.575l-1.835-1.05 2.098 1.223c.087.086.087.086.174.086v.086c.087 0 .087.35 0 .35-.085.175-.699.088-.785.088s-.699-.088-.699-.088c-.524 0-.962-.35-1.397-.786.085.523.349.437.785.612.176.084.7.174.7.347 0 .785-.609.611-1.134.438-.263-.087-.528-.087-.788-.263-.087-.087-.348-.522-.438-.7l.176.262c0 .263.522.522.788.7.175.085.175.523-.178.523-.348 0-.348 0-.523-.262-.263-.262-.699-.44-1.048-.701-.178-.085-.44-.263-.612-.346-.175-.089-.261-.178-.525-.265-.174-.176-.435-.348-.697-.525-.088 1.396-.178 2.711-.178 3.668 0 .787-.262 2.272-.436 3.146-.351 2.097.609 3.757-.088 5.94 1.396-.96 5.941-3.494 8.299-3.93l1.398-18.084.088-1.834c-.178-.612-.178-1.486-.612-2.272-.263-.611-1.048-1.311-1.575-1.746-.785-.875-.438-3.671-.872-4.893l-.175-.08z"/><path fill="#939598" d="M205.933 307.948l.611-.612.612-.174 1.834-.174.789.083c.699 0 .872 1.662 2.097 1.049 1.312-.698 4.63 1.485 4.104 2.009-.26.263-1.218 0-1.218 0 .959 0 2.792 1.575.697 1.575l-1.835-1.05 2.098 1.223c.087.087.087.087.174.087v.086c.087 0 .087.349 0 .349-.085.176-.699.088-.785.088-.087 0-.699-.088-.699-.088-.524 0-.962-.349-1.397-.785.086.522.349.437.785.611.176.084.701.174.701.347 0 .786-.612.612-1.136.439-.263-.088-.528-.088-.788-.263-.087-.088-.349-.523-.438-.701l.175.262c0 .263.523.523.789.701.175.085.175.522-.178.522-.348 0-.348 0-.523-.262-.263-.261-.699-.44-1.048-.7-.178-.085-.44-.263-.612-.347-.175-.089-.262-.178-.525-.267-1.574-1.213-3.06-2.523-4.284-4.008z"/><path fill="none" d="M210.477 296.153c.61 1.312-.524 4.632-.524 6.117 0 1.744.348 3.232.348 5.154"/><path fill="#939598" d="M220.697 340.533s-.088 0-.088-.088c0 .874.787 4.021 1.313 4.632 1.133 1.138-1.224 3.757.347 5.242.525.609.786 1.744 1.135 2.531.178.35.09 1.313.09 1.836-.7.265-1.399.787-2.101 1.398-1.31 1.135-2.619 1.483-3.843 1.049-.787-.262-1.398-.262-2.186-.437-.698-.179-.698-.788-.698-1.746.347-5.331-.524-10.484-2.009-15.376a79.528 79.528 0 0 1-2.971-15.902c1.922-1.222 5.417-3.058 7.426-3.404l-.176 1.744c-2.36 2.271-3.846 6.289-4.541 8.823l-.438 1.921c0 .44.523.875.523 1.315 0 .347.699 1.309 1.66 1.921.96.523 1.923 1.133 2.097 1.395.088.177 1.573 1.052 1.573 1.052l1.66.785.176.176.525.7s.262.347.523.347v.086h.003z"/><path fill="none" d="M216.853 321.927c-.087.175-.261.347-.349.522m-3.143 5.505c-.177.437-.35.96-.528 1.397m-.522 4.107v.174c.087.174.087.349.176.44m6.987 5.15c.087.088.262.351.438.524m.262.438c.174.177.262.261.348.261"/><path fill="#939598" d="M213.622 362.461c1.222.085 3.06-.961 4.191-1.313.873-.348 1.66-1.572 2.271-2.359.177-.262.611-.349.961-.524.699-.349 2.006-.873 2.62-.873.961 0-.264-2.096-.264-2.708-.697.35-1.311.786-2.009 1.398-1.31 1.135-2.619 1.482-3.843 1.048-.699-.261-1.398-.261-2.097-.437-.35.608-1.136.96-1.572 1.481-.79.7-1.485 1.313-1.485 2.533 0 .525.175.699.262 1.049.092.18.878.705.965.705z"/><g fill="none"><path d="M225.504 285.76v4.106c0 2.446-1.313 2.359-2.533 3.404-2.709 2.533-5.504-1.397-7.427-2.096-.178 0-.349.087-.524.087-1.049 0-2.271-3.145-.61-3.759.085.178.174.262.437.438 0-.7 1.135-2.271.961-2.449-.524-.436.524-2.005.524-2.707 0-.437.351-.347.437-.61.088-.524 1.31-1.312 1.575-1.312.524 0 2.708-.085 2.792 0 .44.961 3.235-.61 3.235 1.136 0 .786.608.961.874 1.573.176.263.262.961.347 1.484l-.088.705z"/><path d="M214.844 287.944c-.612-.35-.524-.524-.524-1.313 0-.608.088-1.481.088-2.097 0-.436-.088-1.747.437-1.747 0-.785-.086-1.135.349-1.572.174-.174.35-.699.525-.785.174-.178.523-.351.698-.524.266-.263.439-.701.873-.701.178 0 .263-.261.439-.345.263-.09 1.136-.179 1.398-.09.436 0 .871-.261 1.396-.261s.787.351 1.312.351c.697 0 .61.084 1.136.345.084 0 .699.177.699.35 0 .176.438.611.522.611.088 0 .525.787.525.787.261.262.438.612.438 1.135 0 .175.35.438.35.787v.699c.176.348.347.7.347 1.223 0 .437-.261.873-.261 1.137 0-.525-.086-1.924-.347-2.362-.267-.61-.875-.786-.875-1.572 0-1.748-2.795-.175-3.235-1.136-.083-.085-2.268 0-2.792 0-.266 0-1.485.787-1.575 1.31-.084.266-.437.178-.437.612 0 .7-1.048 2.271-.524 2.707.173.178-.962 1.751-.962 2.451zM215.456 291.264c.523 1.048.087 4.189.96 5.064.526.438 1.313 1.135 1.575 1.746.437.875.437 1.836.698 2.532 1.048 0 2.533-1.483 3.406-1.922.787-.349 1.835-1.483 1.835-2.359a1.61 1.61 0 0 1-.699-.176c-.438-.261-.438-1.747-.349-2.795-2.795 2.359-5.416-1.485-7.339-2.184h-.086v.093h-.001z"/><path d="M215.367 291.35c-.26 0-1.832.701-2.095 1.05-.524.871-2.795 1.22-3.67 2.007-1.397 1.486-2.097 3.235-2.97 5.066-.7 1.399-2.009 3.757-2.009 5.064-.262.265-.612.79-.7 1.051-.176.349.175.524.263.699.262.524.176 1.486.438 1.837.611.525 1.222-.177 1.836-.611l.085-.178h.088c.174-.084.349-.084.438-.084l.087-.088.961-.088c.523-.083 1.22-.174 1.745 0 .087 0 .176.088.176.088.174.088.262.263.349.35.349.438.7.959 1.484.611 1.312-.7 4.63 1.482 4.104 2.007-.26.263-1.22 0-1.22 0 .961 0 2.794 1.575.699 1.575l-1.835-1.05 2.098 1.223c.087.086.087.086.174.086v.086c.087 0 .087.35 0 .35-.085.175-.699.088-.785.088s-.699-.088-.699-.088c-.524 0-.962-.35-1.397-.786.085.523.349.437.785.612.176.084.7.174.7.347 0 .785-.609.611-1.134.438-.263-.087-.528-.087-.788-.263-.087-.087-.348-.522-.438-.7l.176.262c0 .263.522.522.788.7.175.085.175.523-.178.523-.348 0-.348 0-.523-.262-.263-.262-.699-.44-1.048-.701-.178-.085-.44-.263-.612-.346-.175-.089-.261-.178-.525-.265-.174-.176-.435-.348-.697-.525-.088 1.396-.178 2.711-.178 3.668 0 .787-.262 2.272-.436 3.146-.351 2.097.609 3.757-.088 5.94 1.484-1.137 6.902-4.019 8.91-4.019 2.007 0 3.582.263 5.416.874.787.262 3.495 1.66 3.846 1.66.349-.961.784-2.01 1.047-2.884.177-.437.439-.874.439-1.31 0-.177-.088-.874-.088-.874 0-.262-.175-.439-.262-.701 0 0-.174-.175-.174-.263-.179-.084-.35-.437-.44-.609-.085-.176-.174-.349-.174-.526v-.608l.262-.263c-.7.176-1.397.176-2.009-.178-2.096-.959.873-.785 1.747-.785-.525 0-2.708.178-2.708-.349 0-.175 0-.347.085-.526 0-.174.438-.083.611-.083.523-.088 1.484.175 1.484 0 .084-.177-1.838.263-2.359-.088-.177 0 0-.174-.087-.262 0-.088.087-.44.176-.44h1.31c-.348-.174-1.744.178-1.744-.437 0-.086 0-.437.174-.437l.351-.088c0-.087.699-.087.787-.087.085 0 .697-.523.785-.609 0-.088-.175-.177-.175-.264l-.263-.262c-.087 0-.348-.347-.525-.262-.087.086-.177.178-.265.262-.083.178-.435.178-.697.178-.176 0-.701.084-.701-.262 0-.351.438-.525.61-.787.088-.088.44-.527.525-.527.261-.086.438-.175.701-.175.262 0 .521.262.785.35.523 0 .787.698 1.137.96.174.177 1.047-.086 1.22 0 .438.261.525.261 1.136.261.088 0 .961.788 1.05.875.348.26.348.26.348.611h.086c.438-.178.613-2.885.351-3.059-1.746-.786-.961-2.795-.961-4.804 0-1.05-.437-1.134-.437-1.744 0-.701-.874-.787-1.486-.875-.522 0-.61-.7-.961-1.048-.437-.524-.959-.961-.959-1.399v-.086h.087v-.088c.084 0 0-.175 0-.175s.084 0 .084-.088c0 0 .09 0 .09-.084v-.087c0-.088.087-.176.087-.176-.787.086-1.397-1.398-1.837-1.921-.086 0-.264-.524-.348-.612-.349-.611-1.136-1.66-1.922-1.66l-.087.088c-.087.96-.087 2.447.349 2.707.174.085.438.177.699.177 0 .873-1.048 2.008-1.835 2.359-.873.438-2.36 1.922-3.407 1.922-.261-.699-.261-1.658-.697-2.532-.263-.612-1.05-1.312-1.575-1.747-.786-.874-.438-3.67-.873-4.893l-.168-.08z"/><path d="M205.933 307.948l.611-.612.612-.174 1.834-.174.789.083c.699 0 .872 1.662 2.097 1.049 1.312-.698 4.63 1.485 4.104 2.009-.26.263-1.218 0-1.218 0 .959 0 2.792 1.575.697 1.575l-1.835-1.05 2.098 1.223c.087.087.087.087.174.087v.086c.087 0 .087.349 0 .349-.085.176-.699.088-.785.088-.087 0-.699-.088-.699-.088-.524 0-.962-.349-1.397-.785.086.522.349.437.785.611.176.084.701.174.701.347 0 .786-.612.612-1.136.439-.263-.088-.528-.088-.788-.263-.087-.088-.349-.523-.438-.701l.175.262c0 .263.523.523.789.701.175.085.175.522-.178.522-.348 0-.348 0-.523-.262-.263-.261-.699-.44-1.048-.7-.178-.085-.44-.263-.612-.347-.175-.089-.262-.178-.525-.267-1.574-1.213-3.06-2.523-4.284-4.008zM231.094 311.355c0-.44 0-.44-.347-.701-.088-.085-.961-.874-1.051-.874-.609 0-.699 0-1.137-.262-.175-.085-1.048.178-1.22 0-.349-.264-.612-.959-1.136-.959-.264-.088-.524-.35-.785-.35-.265 0-.442.087-.701.177-.085 0-.438.438-.525.525-.175.262-.608.437-.608.787 0 .348.524.261.698.261.263 0 .612 0 .699-.175.087-.086.177-.178.266-.264.175-.085.437.264.522.264l.263.262c0 .085.176.174.176.264-.088.084-.699.606-.786.606s-.787 0-.787.088l-.35.088c-.174 0-.174.35-.174.437 0 .611 1.397.263 1.744.438h-1.311c-.086 0-.175.349-.175.438.086.088-.088.262.086.262.522.35 2.443-.086 2.36.087 0 .176-.961-.087-1.484 0-.176 0-.611-.087-.611.084-.086.179-.086.352-.086.528 0 .523 2.184.347 2.709.347-.874 0-3.843-.176-1.748.785 1.916.962 5.584-1.133 5.499-3.143z"/><path d="M210.477 296.153c.61 1.312-.524 4.632-.524 6.117 0 1.744.348 3.232.348 5.154M226.638 304.367v4.282M226.377 322.537c-.61 1.838-1.4 3.497-2.709 4.718-.786.611-1.745 1.047-2.186 2.098-.174.265-.873.699.089.96 1.481.44 2.708 1.225 3.058 2.709.174.611.436 1.136 1.135 1.398 1.223.524 2.531 1.575 3.494 3.235.176.26.875.435.96.785 0 .174.088.262.263.347.265.086 1.051-.175 1.485-.085.174 0 .7.348.785.436.088.264.352.089.352.441 0 .698-.09 1.047-.264 1.481 0 1.573-4.63 8.125-6.552 6.202-.439-.523-.177-2.361-.872-2.707-.264-.088-.701-.789-1.138-.961-1.224-.613-2.36-2.271-3.669-3.146 0 .875.787 4.022 1.312 4.633 1.134 1.137-1.222 3.757.349 5.242.525.61.785 1.744 1.135 2.532.176.349.09 1.312.09 1.835-.7.264-1.399.787-2.101 1.398-1.31 1.135-2.619 1.482-3.843 1.049-.787-.262-1.399-.262-2.186-.437-.698-.179-.698-.788-.698-1.747.347-5.33-.524-10.483-2.01-15.375a79.538 79.538 0 0 1-2.97-15.902c2.097-1.311 6.289-3.495 8.037-3.495 2.007 0 3.582.263 5.416.874.525.176 2.009.872 2.971 1.311l.267.171z"/><path d="M216.853 321.927c-1.486 1.922-3.318 4.892-4.105 7.772-.35 1.313-.873 2.621-.439 3.931.786 2.446 2.447 2.362 3.844 3.669.527.525 2.533 1.483 3.059 1.745.438.178 1.135 1.397 1.311 1.397M232.84 341.144l.088-.088c.348.874 1.66 1.136 1.66 2.011 0 .959-.088 1.135-.35 2.008-.178.524-.787 1.137-1.048 1.66-.524.699-.263 1.398-.612 2.007-.7 1.397-3.145 4.021-4.979 4.021-1.397 0-.701-1.485-.701-2.183 0-1.138-.346-2.272-.26-3.146 2.008 1.047 6.114-4.803 6.202-6.29zM213.622 362.461c1.222.085 3.06-.961 4.191-1.313.873-.348 1.66-1.572 2.271-2.359.177-.262.611-.349.961-.524.699-.349 2.006-.873 2.62-.873.961 0-.264-2.096-.264-2.708-.697.35-1.311.786-2.009 1.398-1.31 1.135-2.619 1.482-3.843 1.048-.699-.261-1.398-.261-2.097-.437-.35.608-1.136.96-1.572 1.481-.79.7-1.485 1.313-1.485 2.533 0 .525.175.699.262 1.049.092.18.878.705.965.705z"/></g></g><g fill="#939598"><path d="M104.424 285.935c-.959 0-.611-2.186-.348-3.759.348-.438 1.048-1.924.437-2.447.437-2.271 2.884-3.668 5.503-3.668l.262 2.882c-.349-.084-.786-.177-1.224-.084-.261.174-.609.084-.959.174a4.388 4.388 0 0 0-1.571.787c-.262.26-.701.438-.786.873-.177.698.261 2.444-.351 2.707l-.963 2.535z"/><path d="M104.075 282.264c.437-.524 1.31-2.709-.088-2.709-2.796 0-2.796 2.099-3.231 4.718-.178 1.312.174 1.748 0 2.709-.439 2.621-1.66 2.098-3.146 1.136.175.351 1.399 2.008 1.748 2.008 1.133 0 1.921.087 2.62-.873.524-.874 1.66-2.184 1.66-3.231-.001-.613-.001-3.758.437-3.758zM110.276 278.945c-.349-.084-.786-.176-1.223-.084-.262.174-.609.084-.96.174a4.388 4.388 0 0 0-1.571.787c-.261.261-.701.438-.786.873-.176.698.262 2.445-.35 2.708l-.961 2.534v.786c0 .349.176.873.35 1.136 0 .086.174.262.262.436l.175.086c.176.09.35.09.439.09.261.873 1.136 2.531 2.535 2.969.437.088.698.612 1.136.701.786.261 1.573.175 2.446-.177l-1.492-13.019z"/><path d="M111.762 291.963c-.873.349-1.66.438-2.446.174-.439-.085-.701-.609-1.136-.699-.178-.087-.351-.087-.439-.174-.611 1.22 1.136 2.88 1.66 3.404 0 0 .439.61.524.61.612 0 1.836.524 2.272 1.05l-.435-4.365z"/><path d="M107.656 291.088h-.526c-.348 0-1.134.611-1.221.961-.088.437 0 1.22 0 1.66-.875.437-2.009 1.049-3.058 2.269-.612.7-1.485 1.397-1.397 2.621 0 2.271.349 4.455.349 6.639.174 1.221.263 3.057 1.048 4.106.35.524.612 1.224.959 1.571.264.264 1.748.178 2.186.178.698.699.698 3.059.437 3.93-.263.961-.437 1.575-.437 2.621 0 .959.437 1.835.437 2.708.262-.084.786-1.136 1.047-1.572 1.921-2.533 4.892-.178 7.34 1.048l-2.621-23.498c-.437-.525-1.66-1.05-2.272-1.05-.086 0-.524-.61-.524-.61-.524-.524-2.183-2.185-1.66-3.404l-.087-.178z"/><path d="M111.239 300.434c.174-.698-2.535-.437-2.884-.347-2.97.611-2.272 2.709-1.748 4.803.176.612 1.051.786 1.485.701.35-.177.699-.523.786-.787.087 0 .613-.086.786-.086 0 0 .263-.176.176-.262h-.261c-.875 0 .609 0 .786-.088.875-.959-.612-.873-1.224-.873-.087 0 1.224 0 1.834-.263.439-.085.439-.524-.085-.524h-1.225c-.174 0-1.221-.174-.437-.174.612 0 2.446.523 2.446-.525-.175-.262-.437-.348-.7-.438-.348-.087-.786-.087-1.221-.087-.174 0-.439-.087-.612-.087-.175 0-.087-.178-.087-.262 0-.177 1.223 0 1.485-.088.262-.085.7-.613.7-.613zM106.695 320.003c.087 1.484.35 3.318.35 4.542 0 1.834-1.048 2.271-1.048 3.931 0 1.573.262 2.62.262 3.845 0 1.047-1.313 1.571-1.313 3.142v3.582a15.616 15.616 0 0 0 4.805 2.884c.437-.961.96-1.747 1.486-2.621.523-.788 1.395-1.574 1.482-2.532 0-.7.177-1.398.701-2.101.873-1.135 1.66-1.31 1.66-3.582 0-.785-.875-2.005-.612-2.533.437-.696.959-2.183.959-3.055v.086l-.609-5.766c-2.448-1.223-5.418-3.582-7.34-1.049-.172.267-.521.878-.783 1.227z"/><path d="M105.123 339.222c-.263 1.397-1.399 2.795-.524 4.54.786 1.485 1.922 1.66 3.494 1.922 2.534.527 3.058-2.269 1.748-3.581-.088-.086-.088-.175-.088-.263-1.749-.607-3.32-1.482-4.63-2.618z"/></g><g fill="none" stroke="#000" stroke-width=".5"><path d="M104.424 285.935c-.959 0-.611-2.186-.348-3.759.348-.438 1.048-1.924.437-2.447.523-2.446 3.231-3.844 5.94-3.668.612 0 1.135-.086 1.66-.086 2.009 0 4.108 2.183 4.631 4.192-1.397.263-.439 1.835.085 2.359-.085.524-.085.961-.262 1.313-1.136 2.27-1.482-1.223-1.834-1.837-.175-.437.087-1.048 0-1.483-.175-.961-.786-1.658-2.097-1.658-.612 0-1.397.084-2.186.084-.437 0-.959-.263-1.398-.084-.262.174-.609.084-.96.174a4.388 4.388 0 0 0-1.571.787c-.261.261-.701.438-.786.873-.176.698.262 2.445-.35 2.708l-.961 2.532z"/><path d="M104.075 282.264c.437-.524 1.31-2.709-.088-2.709-2.796 0-2.796 2.099-3.231 4.718-.178 1.312.174 1.748 0 2.709-.439 2.621-1.66 2.098-3.146 1.136.175.351 1.399 2.008 1.748 2.008 1.133 0 1.921.087 2.62-.873.524-.874 1.66-2.184 1.66-3.231-.001-.613-.001-3.758.437-3.758zM121.895 290.476c-2.183 0-4.542 1.136-4.542-2.098 0-1.396.349-4.891-.524-5.764-.437-.438-1.571-2.185-.085-2.447 2.008-1.135 4.456 3.059 3.32 5.768-.263.696-.524 2.095.174 2.794.433.436.784 1.835 1.657 1.747z"/><path d="M116.218 284.449v-.086c-.875.96-1.136-1.836-1.485-2.36-.175-.437.087-1.048 0-1.483-.175-.961-.786-1.658-2.098-1.658-.61 0-1.396.084-2.185.084-.437 0-.959-.263-1.398-.084-.261.174-.609.084-.959.174a4.388 4.388 0 0 0-1.571.787c-.262.261-.701.438-.786.873-.177.698.261 2.445-.351 2.708l-.961 2.534v.786c0 .349.177.873.351 1.136 0 .086.174.262.261.436l.175.086c.176.09.35.09.439.09.262.873 1.136 2.531 2.535 2.969.437.088.698.612 1.136.701 1.134.347 2.184.175 3.581-.788 1.049-.7 1.66-3.32 2.97-3.32.262 0 .35-.347.437-.524.351-.437.351-1.05.351-1.66 0-.085.087-1.136 0-1.136-.269-.265.082-.352-.442-.265z"/><path d="M112.285 296.507c0-1.053.174-1.662.786-2.273.612-.523 1.834-1.396 1.834-2.27-.524 0 .177-2.883.177-3.584-.789.7-1.313 2.447-2.185 2.973-1.397.96-2.447 1.135-3.581.785-.439-.085-.701-.609-1.136-.699-.178-.086-.351-.086-.439-.174-.611 1.22 1.136 2.88 1.66 3.404 0 0 .439.61.524.61.614.001 2.099.614 2.36 1.228z"/><path d="M107.656 291.088h-.526c-.348 0-1.134.611-1.221.961-.088.437 0 1.22 0 1.66-.875.437-2.009 1.049-3.058 2.269-.612.7-1.485 1.397-1.397 2.621 0 2.271.349 4.455.349 6.639.174 1.221.263 3.057 1.048 4.106.35.524.612 1.224.959 1.571.264.264 1.748.178 2.186.178.698.699.698 3.059.437 3.93-.263.961-.437 1.575-.437 2.621 0 .959.437 1.835.437 2.708.262-.084.786-1.136 1.047-1.572 2.884-3.844 8.125 3.32 10.221 1.221 1.921-1.923 5.419-2.097 8.038-2.097 0 0-.437-1.31-.437-1.397-.526-.787-1.312-2.011-1.312-2.881 0-2.359-2.446-4.021-2.446-6.726.176.261.875 1.048 1.136 1.048 1.573 0 2.096-.524 2.621-1.66.347-.699.437-1.834.437-2.533 0-.085-.175-.609-.175-.699-.087 0-.523-1.136-.612-1.223-.087-.524-.439-.959-.873-1.311-.175-.174-.875-.35-.875-.61 0-3.582-.698-7.688-5.064-7.688-.087 0-.261-.438-.261-.438-.35 0-.527-.088-.701-.088-.35-.174-.875-1.309-1.136-1.572-.175-.177-.875-.262-1.136-.262l-.085.085c-.087 1.049-.262 2.011.085 2.011 0 .873-1.221 1.746-1.834 2.27-.612.611-.786 1.221-.786 2.273-.261-.612-1.748-1.226-2.361-1.226-.086 0-.524-.61-.524-.61-.524-.523-2.183-2.184-1.66-3.404l-.084-.175z"/><path d="M106.17 303.843c.263.7.786 1.746 1.573 1.746.701 0 .961-.7.961.262 0 1.221-.874 2.185-1.313 3.232-.263.613-.524 1.922-1.221 1.922M120.847 304.191c0 .086 0 .263.085.347.087.088.176.439.261.612v.178c0 .085.178.435.178.522 0 .348.087 1.138.349 1.312"/><path d="M111.239 300.434c.174-.698-2.535-.437-2.884-.347-2.97.611-2.272 2.709-1.748 4.803.176.612 1.051.786 1.485.701.35-.177.699-.523.786-.787.087 0 .613-.086.786-.086 0 0 .263-.176.176-.262h-.261c-.875 0 .609 0 .786-.088.875-.959-.612-.873-1.224-.873-.087 0 1.224 0 1.834-.263.439-.085.439-.524-.085-.524h-1.225c-.174 0-1.221-.174-.437-.174.612 0 2.446.523 2.446-.525-.175-.262-.437-.348-.7-.438-.348-.087-.786-.087-1.221-.087-.174 0-.439-.087-.612-.087-.175 0-.087-.178-.087-.262 0-.177 1.223 0 1.485-.088.262-.085.7-.613.7-.613z"/><path d="M106.607 303.843c0 .174.35.437.439.611 0 .174.786.349.959.349h.961M121.546 306.989c-.437-.789-.698-1.66-.698-2.533M123.905 303.407c.175.786.262 1.834-.873 1.834-.786 0-1.573-.785-1.573-1.485 0-.959-.7-.085-1.136-.523-.438-.437-.349-.609.524-.609h-.786c-.524 0-1.051-.35-.613-.788.175-.085 1.834 0 1.745 0h-.786c-.261 0-.609-.085-.959-.085-.786 0-.523-.087-.523-.612 0-.349 1.31-.262 1.482-.262h.524c.349 0-2.097.174-2.097-.176 0-.96.699-.872 1.485-.872s.872-.873-.439-.439c-1.048.35-1.136-.175-1.66-.787 1.048.087 1.572-.523 2.621-.523.786 0 1.834 1.136 2.097 1.66.264.521.879 3.49.967 3.667zM106.695 320.003c.087 1.484.35 3.318.35 4.542 0 1.834-1.048 2.271-1.048 3.931 0 1.573.262 2.62.262 3.845 0 1.047-1.313 1.571-1.313 3.142v3.582a15.616 15.616 0 0 0 4.805 2.884c.437-.961.96-1.747 1.486-2.621.523-.788 1.395-1.574 1.482-2.532 0-.7.177-1.398.701-2.101.873-1.135 1.66-1.31 1.66-3.582 0-.785-.875-2.005-.612-2.533.437-.696.959-2.183.959-3.055.961 2.532-.174 6.463 1.748 8.385.786.785.261 2.796.261 3.844 0 1.574.701 2.184.701 3.582.175 1.136.786 2.445.786 3.669 0 2.097.609 4.454.609 6.376 0 .874-.524 4.456.087 4.719 1.31-.7 2.708-.44 4.368-.44.961 0 4.455-1.659 4.455-2.708 0-.698.35-1.135-.174-1.573-.261-.349-.7-.61-.7-1.047-.175-.874-.175-1.838-.175-2.795 0-1.311-1.748-2.796-1.748-4.455l-.174-15.464c0-2.097-.439-3.493-.875-5.328-.349-1.396-.349-2.971-.612-4.368-2.271.174-4.803.612-6.291 2.099-2.095 2.098-7.337-5.065-10.221-1.223-.166.265-.515.876-.777 1.225z"/><path d="M105.123 339.222c-.263 1.397-1.399 2.795-.524 4.54.786 1.485 1.922 1.66 3.494 1.922 2.534.527 3.058-2.269 1.748-3.581-.088-.086-.088-.175-.088-.263-1.749-.607-3.32-1.482-4.63-2.618zM119.799 355.995c0 1.573-1.574 3.058-1.574 4.631 0 2.36 5.067 2.445 6.115.348.612-1.309 1.224-1.747 1.224-3.493 0-.7-.176-1.485-.439-2.184-.437.175-.874.346-1.136.346-1.482 0-2.796-.174-4.018.264l-.172.088z"/></g><g stroke="#000" stroke-width=".5"><path fill="#939598" d="M330.157 285.935c-.96 0-.698-2.186-.347-3.759.347-.438 1.048-1.924.438-2.447.436-2.446 3.232-3.844 5.942-3.668.61 0 1.135-.086 1.658-.086 1.923 0 4.106 2.183 4.541 4.192-1.396.263-.348 1.835.089 2.359 0 .524-.089.961-.264 1.313-1.135 2.27-1.396-1.223-1.747-1.837-.174-.437.088-1.048 0-1.483-.174-.961-.786-1.658-2.183-1.658-.612 0-1.312.084-2.097.084-.439 0-.961-.263-1.397-.084-.351.174-.701.084-.961.174a4.428 4.428 0 0 0-1.574.787c-.349.261-.7.438-.873.873-.174.698.262 2.445-.351 2.708l-.874 2.532z"/><path fill="#939598" d="M329.808 282.264c.347-.524 1.312-2.709-.087-2.709-2.882 0-2.795 2.099-3.232 4.718-.261 1.312.175 1.748 0 2.709-.523 2.621-1.747 2.098-3.234 1.136.263.351 1.485 2.008 1.748 2.008 1.224 0 2.009.087 2.619-.873.609-.874 1.658-2.184 1.658-3.231.003-.613.092-3.758.528-3.758zM347.543 290.476c-2.097 0-4.455 1.136-4.455-2.098 0-1.396.349-4.891-.524-5.764-.438-.438-1.572-2.185-.176-2.447 2.01-1.135 4.543 3.059 3.407 5.768-.262.696-.611 2.095.085 2.794.439.436.876 1.835 1.663 1.747z"/><path fill="#939598" d="M341.864 284.449v-.086c-.787.96-1.136-1.836-1.398-2.36-.174-.437.087-1.048 0-1.483-.174-.961-.787-1.658-2.184-1.658-.611 0-1.311.084-2.097.084-.438 0-.961-.263-1.397-.084-.35.174-.7.084-.961.174a4.415 4.415 0 0 0-1.573.787c-.35.261-.701.438-.873.873-.175.698.261 2.445-.351 2.708l-.873 2.534v.786c0 .349.178.873.263 1.136.087.086.178.262.261.436 0 0 .178.086.266.086.084.09.263.09.437.09.175.873 1.049 2.531 2.447 2.969.522.088.788.612 1.135.701 1.224.347 2.271.175 3.582-.788 1.135-.7 1.66-3.32 3.057-3.32.264 0 .35-.347.438-.524.348-.437.348-1.05.348-1.66v-1.136c-.265-.265-.004-.352-.527-.265z"/><path fill="#939598" d="M338.018 296.507c0-1.053.177-1.662.787-2.273.525-.523 1.835-1.396 1.835-2.27-.609 0 .088-2.883.178-3.584-.873.7-1.398 2.447-2.271 2.973-1.311.96-2.36 1.135-3.582.785-.348-.085-.612-.609-1.135-.699-.087-.086-.264-.086-.438-.174-.523 1.22 1.223 2.88 1.744 3.404 0 0 .441.61.527.61.609.001 2.095.614 2.355 1.228z"/><path fill="#939598" d="M333.303 291.088h-.525c-.262 0-1.137.611-1.137.961-.174.437-.086 1.22-.086 1.66-.875.437-2.007 1.049-2.97 2.269-.612.7-1.486 1.397-1.486 2.621.089 2.271.35 4.455.35 6.639.263 1.221.263 3.057 1.137 4.106.261.524.61 1.224.961 1.571.261.264 1.743.178 2.183.178.699.699.609 3.059.348 3.93-.263.961-.348 1.575-.348 2.621 0 .959.348 1.835.348 2.708.262-.084.875-1.136 1.135-1.572 2.796-3.844 8.037 3.32 10.223 1.221 1.836-1.923 5.418-2.097 8.036-2.097 0 0-.438-1.31-.525-1.397-.435-.787-1.221-2.011-1.221-2.881 0-2.359-2.445-4.021-2.445-6.726.086.261.872 1.048 1.133 1.048 1.486 0 2.011-.524 2.621-1.66.263-.699.35-1.834.35-2.533 0-.085-.087-.609-.177-.699 0 0-.524-1.136-.524-1.223-.087-.524-.524-.959-.873-1.311-.174-.174-.96-.35-.96-.61 0-3.582-.611-7.688-5.066-7.688l-.174-.438c-.352 0-.613-.088-.787-.088-.264-.174-.874-1.309-1.135-1.572-.089-.177-.874-.262-1.052-.262l-.085.085c-.177 1.049-.262 2.011.085 2.011 0 .873-1.31 1.746-1.835 2.27-.611.611-.787 1.221-.787 2.273-.261-.612-1.747-1.226-2.358-1.226-.085 0-.526-.61-.526-.61-.522-.523-2.268-2.184-1.744-3.404l-.084-.175z"/><path fill="none" d="M331.904 303.843c.263.7.787 1.746 1.574 1.746.699 0 .872-.7.872.262 0 1.221-.787 2.185-1.22 3.232-.262.613-.528 1.922-1.313 1.922M346.581 304.191v.347c.175.088.175.439.261.612 0 .087.089.178.089.178 0 .085.084.435.084.522 0 .348.178 1.138.351 1.312"/><path fill="#939598" d="M336.972 300.434c.175-.698-2.533-.437-2.972-.347-2.881.611-2.186 2.709-1.661 4.803.088.612.962.786 1.486.701.348-.177.61-.523.787-.787 0 0 .61-.086.699-.086.086 0 .264-.176.175-.262h-.261c-.787 0 .611 0 .785-.088.961-.959-.524-.873-1.134-.873-.086 0 1.134 0 1.746-.263.523-.085.438-.524 0-.524h-1.312c-.086 0-1.136-.174-.438-.174.7 0 2.532.523 2.532-.525-.175-.262-.438-.348-.698-.438-.35-.087-.873-.087-1.224-.087-.262 0-.437-.087-.61-.087-.176 0-.176-.178-.176-.262 0-.177 1.311 0 1.571-.088.182-.085.617-.613.705-.613z"/><path fill="none" d="M332.255 303.843c0 .174.347.437.438.611.087.174.872.349 1.05.349h.873M347.281 306.989c-.439-.789-.7-1.66-.7-2.533"/><path fill="#939598" d="M349.64 303.407c.174.786.262 1.834-.961 1.834-.699 0-1.483-.785-1.483-1.485 0-.959-.7-.085-1.136-.523-.523-.437-.35-.609.438-.609h-.787c-.524 0-.959-.35-.524-.788.088-.085 1.836 0 1.659 0h-.698c-.349 0-.7-.085-.961-.085-.873 0-.523-.087-.523-.612 0-.349 1.221-.262 1.484-.262h.524c.347 0-2.099.174-2.099-.176 0-.96.611-.872 1.484-.872.786 0 .786-.873-.438-.439-1.136.35-1.136-.175-1.66-.787.959.087 1.484-.523 2.619-.523.701 0 1.835 1.136 2.099 1.66.263.52.875 3.49.963 3.667zM332.428 320.003c0 1.484.263 3.318.263 4.542 0 1.834-1.05 2.271-1.05 3.931 0 1.573.351 2.62.351 3.845 0 1.047-1.313 1.571-1.313 3.142v3.582a16.272 16.272 0 0 0 4.719 2.884c.524-.961 1.051-1.747 1.484-2.621.523-.788 1.485-1.574 1.485-2.532 0-.7.175-1.398.786-2.101.873-1.135 1.66-1.31 1.66-3.582 0-.785-.873-2.005-.611-2.533.349-.696.873-2.183.873-3.055 1.048 2.532-.087 6.463 1.835 8.385.7.785.175 2.796.175 3.844 0 1.574.788 2.184.788 3.582.086 1.136.786 2.445.786 3.669 0 2.097.611 4.454.611 6.376 0 .874-.611 4.456 0 4.719 1.397-.7 2.795-.44 4.454-.44.96 0 4.455-1.659 4.455-2.708 0-.698.349-1.135-.175-1.573-.263-.349-.787-.61-.787-1.047-.088-.874-.175-1.838-.175-2.795 0-1.311-1.66-2.796-1.66-4.455l-.263-15.464c0-2.097-.349-3.493-.787-5.328-.35-1.396-.35-2.971-.61-4.368-2.359.174-4.805.612-6.291 2.099-2.186 2.098-7.426-5.065-10.222-1.223-.168.265-.518.876-.781 1.225z"/><path fill="#939598" d="M330.769 339.222c-.175 1.397-1.311 2.795-.438 4.54.787 1.485 1.922 1.66 3.495 1.922 2.445.527 3.057-2.269 1.748-3.581-.089-.086-.089-.175-.178-.263-1.659-.609-3.232-1.482-4.541-2.619l-.086.001zM345.535 355.995c0 1.573-1.576 3.058-1.576 4.631 0 2.36 5.067 2.445 6.115.348.611-1.309 1.136-1.747 1.136-3.493 0-.7-.176-1.485-.348-2.184-.525.175-.875.346-1.137.346-1.573 0-2.793-.174-4.105.264l-.085.088z"/></g><path d="M-12.886 94.738l1.142.289c-.241.938-.671 1.653-1.292 2.146-.623.494-1.383.74-2.282.74-.931 0-1.687-.189-2.27-.568-.583-.382-1.026-.928-1.331-1.646a5.856 5.856 0 0 1-.455-2.313c0-.899.171-1.682.513-2.352a3.528 3.528 0 0 1 1.468-1.524 4.271 4.271 0 0 1 2.092-.521c.864 0 1.59.22 2.18.657.587.441.997 1.059 1.229 1.854l-1.125.264c-.199-.627-.49-1.085-.871-1.371-.381-.287-.857-.432-1.436-.432-.663 0-1.22.158-1.661.479a2.517 2.517 0 0 0-.94 1.278 5.1 5.1 0 0 0-.272 1.658c0 .733.107 1.375.32 1.921.216.549.547.958 1 1.227a2.8 2.8 0 0 0 1.466.406c.64 0 1.182-.185 1.625-.553.441-.366.742-.914.9-1.639zM-6.394 96.992c-.393.333-.771.569-1.134.705a3.288 3.288 0 0 1-1.169.205c-.686 0-1.213-.167-1.582-.501-.369-.337-.553-.765-.553-1.287a1.744 1.744 0 0 1 .755-1.448c.225-.153.479-.269.76-.348.208-.055.522-.107.944-.158.855-.102 1.482-.223 1.889-.365.004-.146.005-.236.005-.276 0-.431-.1-.736-.3-.912-.271-.237-.674-.36-1.207-.36-.499 0-.867.088-1.103.262-.238.176-.414.486-.527.927l-1.036-.139c.093-.444.247-.804.466-1.075.215-.272.527-.481.936-.629.409-.147.881-.22 1.418-.22.534 0 .968.063 1.301.186.333.129.579.286.736.475.157.191.267.433.331.721.034.182.053.507.053.978v1.412c0 .985.022 1.609.067 1.87.045.261.133.512.268.753h-1.105a2.235 2.235 0 0 1-.213-.776zm-.089-2.366c-.384.157-.962.291-1.731.4-.438.063-.746.134-.924.211a.912.912 0 0 0-.564.847c0 .285.107.519.321.708.214.188.527.281.939.281a2.16 2.16 0 0 0 1.09-.268c.317-.178.551-.422.701-.732.113-.237.17-.592.17-1.059l-.002-.388zM-3.781 97.764V91.51h.954v.95c.243-.444.467-.738.674-.878a1.19 1.19 0 0 1 .682-.212c.355 0 .718.113 1.089.339l-.368.983a1.508 1.508 0 0 0-.774-.229c-.233 0-.441.069-.626.208a1.125 1.125 0 0 0-.393.579 4.149 4.149 0 0 0-.179 1.237v3.272H-3.78v.005zM.233 97.764V91.51h.956v.95c.241-.444.468-.738.675-.878.206-.141.432-.212.679-.212.357 0 .721.113 1.09.339l-.365.983a1.516 1.516 0 0 0-.777-.229 1 1 0 0 0-.623.208 1.13 1.13 0 0 0-.396.579 4.118 4.118 0 0 0-.176 1.237v3.272H.233v.005zM4.266 90.353v-1.22h1.062v1.22H4.266zm0 7.411V91.51h1.062v6.254H4.266zM11.218 95.751l1.095.135c-.173.64-.493 1.135-.959 1.487-.467.354-1.064.529-1.792.529-.914 0-1.637-.281-2.176-.844-.535-.564-.803-1.353-.803-2.371 0-1.051.27-1.868.81-2.448.544-.58 1.245-.868 2.108-.868.835 0 1.519.285 2.051.853.529.569.795 1.37.795 2.402 0 .062-.002.157-.006.285H7.678c.039.687.232 1.212.583 1.578.349.365.785.547 1.306.547.389 0 .72-.103.995-.307.277-.206.495-.531.656-.978zm-3.479-1.714h3.491c-.047-.525-.18-.921-.397-1.184a1.631 1.631 0 0 0-1.315-.613 1.67 1.67 0 0 0-1.225.491c-.334.326-.518.76-.554 1.306zM13.632 97.764V91.51h.953v.95c.244-.444.468-.738.675-.878.207-.141.432-.212.679-.212.357 0 .721.113 1.09.339l-.365.983a1.521 1.521 0 0 0-.777-.229c-.231 0-.439.069-.624.208a1.122 1.122 0 0 0-.395.579 4.118 4.118 0 0 0-.177 1.237v3.272h-1.058v.005zM-15.958 111.391v-5.424h-.935v-.825h.935v-.665c0-.419.037-.731.113-.936.104-.273.282-.496.539-.667.257-.17.617-.257 1.08-.257.295 0 .627.037.989.106l-.159.924a3.56 3.56 0 0 0-.623-.058c-.322 0-.55.068-.684.207-.134.137-.201.394-.201.771v.577h1.219v.825h-1.219v5.424l-1.054-.002zM-8.781 110.622c-.393.333-.771.566-1.134.704a3.289 3.289 0 0 1-1.169.206c-.687 0-1.215-.167-1.582-.504-.369-.334-.553-.762-.553-1.284a1.738 1.738 0 0 1 .756-1.447c.225-.153.479-.269.76-.348.208-.054.524-.107.944-.158.855-.102 1.482-.223 1.89-.365l.005-.276c0-.433-.1-.738-.3-.912-.27-.24-.672-.36-1.207-.36-.499 0-.866.087-1.103.261-.238.174-.414.484-.527.928l-1.036-.141c.095-.441.247-.802.466-1.073.215-.275.528-.484.936-.631.407-.145.881-.22 1.418-.22.534 0 .968.063 1.301.189.336.126.578.283.736.474.157.191.267.431.331.721.034.181.053.507.053.978v1.412c0 .985.022 1.609.067 1.87.045.261.135.512.268.75h-1.107a2.28 2.28 0 0 1-.213-.774zm-.088-2.367c-.386.157-.962.289-1.731.4-.438.063-.746.131-.924.211a.897.897 0 0 0-.564.846c0 .282.105.519.32.708.213.187.526.281.939.281.408 0 .771-.089 1.088-.268.318-.18.552-.422.701-.732.113-.239.171-.595.171-1.062v-.384zM-3.843 110.444l.153.935a3.992 3.992 0 0 1-.803.095c-.384 0-.682-.061-.894-.183a1.013 1.013 0 0 1-.446-.479c-.086-.198-.13-.616-.13-1.25v-3.596h-.777v-.825h.777v-1.548l1.053-.636v2.183h1.066v.825H-4.91v3.655c0 .303.021.498.056.583a.452.452 0 0 0 .183.207.705.705 0 0 0 .362.078c.119-.003.274-.016.466-.044zM-2.807 111.391v-8.629h1.06v3.096c.495-.573 1.119-.86 1.872-.86.463 0 .866.093 1.209.274.339.182.585.437.732.756.147.322.22.788.22 1.401v3.961h-1.06v-3.961c0-.529-.117-.916-.345-1.157-.231-.242-.555-.362-.974-.362-.314 0-.609.079-.886.242a1.406 1.406 0 0 0-.591.663c-.121.281-.179.664-.179 1.153v3.42l-1.058.003zM8.178 109.38l1.094.133c-.174.642-.494 1.137-.96 1.49-.467.354-1.063.529-1.789.529-.915 0-1.64-.281-2.175-.844-.538-.563-.805-1.353-.805-2.371 0-1.051.271-1.868.813-2.448.54-.58 1.244-.872 2.105-.872.838 0 1.52.286 2.05.855.53.571.795 1.37.795 2.402 0 .062-.002.157-.006.282H4.639c.039.688.235 1.215.584 1.58.348.365.784.545 1.307.545.388 0 .72-.102.994-.306.275-.204.491-.529.654-.975zm-3.48-1.713H8.19c-.047-.529-.182-.92-.4-1.185a1.626 1.626 0 0 0-1.313-.612c-.489 0-.897.162-1.228.488-.331.328-.515.762-.551 1.309zM10.591 111.391v-6.251h.954v.948c.243-.441.467-.736.674-.878a1.2 1.2 0 0 1 .682-.211c.354 0 .718.114 1.086.342l-.365.982a1.519 1.519 0 0 0-.777-.231c-.231 0-.439.072-.624.208-.183.14-.315.334-.393.58a4.168 4.168 0 0 0-.179 1.237v3.272h-1.058v.002zM337.507 94.738l1.142.289c-.238.938-.67 1.653-1.291 2.146-.623.494-1.382.74-2.281.74-.93 0-1.686-.189-2.268-.568-.585-.382-1.026-.928-1.33-1.646a5.856 5.856 0 0 1-.456-2.313c0-.899.172-1.682.515-2.352a3.524 3.524 0 0 1 1.466-1.524 4.284 4.284 0 0 1 2.096-.521c.859 0 1.586.22 2.177.657.59.441 1 1.059 1.229 1.854l-1.124.264c-.198-.627-.491-1.085-.869-1.371-.381-.287-.859-.432-1.436-.432-.663 0-1.219.158-1.664.479a2.513 2.513 0 0 0-.938 1.278 5.1 5.1 0 0 0-.271 1.658c0 .733.108 1.375.321 1.921.214.549.546.958.997 1.227.453.269.94.406 1.468.406.642 0 1.181-.185 1.625-.553.436-.366.734-.914.892-1.639zM343.999 96.992c-.39.333-.771.569-1.133.705a3.273 3.273 0 0 1-1.167.205c-.688 0-1.216-.167-1.584-.501-.368-.337-.551-.765-.551-1.287 0-.307.069-.586.209-.839.138-.253.321-.456.545-.609a2.64 2.64 0 0 1 .763-.348 7.57 7.57 0 0 1 .941-.158c.857-.102 1.485-.223 1.892-.365.003-.146.007-.236.007-.276 0-.431-.101-.736-.301-.912-.27-.237-.674-.36-1.206-.36-.499 0-.866.088-1.106.262-.235.176-.411.486-.527.927l-1.036-.139c.095-.444.25-.804.466-1.075.216-.272.526-.481.936-.629.408-.147.881-.22 1.421-.22.533 0 .965.063 1.301.186.333.129.579.286.736.475.156.191.268.433.329.721.035.182.054.507.054.978v1.412c0 .985.025 1.609.068 1.87.046.261.134.512.27.753h-1.107a2.153 2.153 0 0 1-.22-.776zm-.087-2.366c-.386.157-.961.291-1.731.4-.437.063-.744.134-.925.211a.903.903 0 0 0-.564.847c0 .285.107.519.321.708.216.188.529.281.94.281.407 0 .77-.086 1.089-.268.318-.178.549-.422.699-.732.115-.237.171-.592.171-1.059v-.388zM346.615 97.764V91.51h.954v.95c.243-.444.469-.738.674-.878a1.18 1.18 0 0 1 .679-.212c.359 0 .722.113 1.091.339l-.366.983a1.514 1.514 0 0 0-.775-.229c-.233 0-.44.069-.625.208a1.12 1.12 0 0 0-.394.579 4.085 4.085 0 0 0-.179 1.237v3.272h-1.059v.005zM350.627 97.764V91.51h.954v.95c.243-.444.468-.738.675-.878.205-.141.433-.212.681-.212.355 0 .718.113 1.088.339l-.365.983a1.518 1.518 0 0 0-.777-.229c-.232 0-.438.069-.624.208a1.143 1.143 0 0 0-.393.579 4.117 4.117 0 0 0-.179 1.237v3.272h-1.06v.005zM354.661 90.353v-1.22h1.059v1.22h-1.059zm0 7.411V91.51h1.059v6.254h-1.059zM361.612 95.751l1.097.135c-.175.64-.494 1.135-.961 1.487-.466.354-1.063.529-1.79.529-.913 0-1.639-.281-2.174-.844-.537-.564-.805-1.353-.805-2.371 0-1.051.271-1.868.812-2.448.543-.58 1.244-.868 2.107-.868.836 0 1.519.285 2.049.853.529.569.795 1.37.795 2.402 0 .062-.002.157-.007.285h-4.66c.038.687.233 1.212.583 1.578.348.365.786.547 1.307.547.389 0 .721-.103.995-.307.275-.205.493-.531.652-.978zm-3.478-1.714h3.491c-.046-.525-.182-.921-.398-1.184a1.629 1.629 0 0 0-1.313-.613c-.488 0-.896.163-1.228.491-.333.326-.518.76-.552 1.306zM364.025 97.764V91.51h.954v.95c.242-.444.469-.738.674-.878.207-.141.435-.212.682-.212.356 0 .719.113 1.088.339l-.364.983a1.521 1.521 0 0 0-.777-.229c-.232 0-.441.069-.625.208a1.117 1.117 0 0 0-.392.579 4.024 4.024 0 0 0-.178 1.237v3.272h-1.062v.005z"/><g><path d="M330.866 111.391v-6.251h.947v.877c.195-.305.456-.552.782-.738a2.22 2.22 0 0 1 1.115-.281c.463 0 .843.096 1.14.288.295.191.503.462.627.805.494-.729 1.138-1.095 1.931-1.095.619 0 1.097.172 1.43.516.332.344.499.872.499 1.587v4.289h-1.055v-3.938c0-.424-.034-.729-.104-.913a.881.881 0 0 0-.373-.451 1.18 1.18 0 0 0-.638-.17c-.439 0-.805.146-1.094.438-.29.293-.438.76-.438 1.403v3.633h-1.061v-4.061c0-.471-.085-.824-.258-1.059-.175-.236-.454-.353-.85-.353a1.54 1.54 0 0 0-.827.234 1.327 1.327 0 0 0-.549.691c-.112.301-.172.738-.172 1.306v3.242l-1.052.001zM340.512 108.266c0-1.157.322-2.015.965-2.57.539-.463 1.193-.697 1.966-.697.859 0 1.562.284 2.107.844.546.563.817 1.341.817 2.334 0 .805-.122 1.438-.361 1.898-.242.462-.594.82-1.055 1.075s-.963.382-1.512.382c-.874 0-1.582-.28-2.121-.84-.535-.562-.806-1.37-.806-2.426zm1.09 0c0 .803.177 1.4.523 1.799.35.396.789.596 1.319.596.528 0 .962-.201 1.314-.598.348-.4.523-1.012.523-1.833 0-.771-.177-1.358-.525-1.755a1.68 1.68 0 0 0-1.313-.597c-.53 0-.967.199-1.319.597-.345.392-.522.992-.522 1.791zM349.926 110.444l.152.935a3.956 3.956 0 0 1-.799.095c-.387 0-.685-.061-.896-.183a1.023 1.023 0 0 1-.446-.479c-.086-.198-.129-.616-.129-1.25v-3.596h-.778v-.825h.778v-1.548l1.055-.636v2.183h1.063v.825h-1.063v3.655c0 .303.019.498.055.583a.452.452 0 0 0 .183.207.704.704 0 0 0 .363.078 3.98 3.98 0 0 0 .462-.044zM350.962 111.391v-8.629h1.063v3.096a2.361 2.361 0 0 1 1.871-.86c.463 0 .864.093 1.207.274.341.182.587.437.732.756.148.322.223.788.223 1.401v3.961h-1.062v-3.961c0-.529-.113-.916-.342-1.157-.23-.242-.554-.362-.974-.362-.313 0-.61.079-.886.242-.28.166-.476.386-.594.663-.118.281-.177.664-.177 1.153v3.42l-1.061.003zM361.946 109.38l1.095.133c-.173.642-.492 1.137-.96 1.49-.467.354-1.063.529-1.791.529-.913 0-1.639-.281-2.176-.844-.535-.563-.803-1.353-.803-2.371 0-1.051.27-1.868.809-2.448.545-.58 1.244-.872 2.107-.872.836 0 1.52.286 2.051.855.53.571.796 1.37.796 2.402 0 .062-.003.157-.005.282h-4.663c.037.688.233 1.215.582 1.58.351.365.785.545 1.308.545.39 0 .719-.102.994-.306.278-.204.495-.529.656-.975zm-3.478-1.713h3.491c-.047-.529-.182-.92-.4-1.185a1.625 1.625 0 0 0-1.313-.612c-.486 0-.896.162-1.225.488-.334.328-.518.762-.553 1.309zM364.362 111.391v-6.251h.953v.948c.243-.441.468-.736.674-.878.207-.139.433-.211.68-.211.357 0 .722.114 1.09.342l-.365.982a1.522 1.522 0 0 0-.778-.231c-.232 0-.44.072-.622.208a1.14 1.14 0 0 0-.394.58c-.12.378-.179.791-.179 1.237v3.272h-1.059v.002z"/></g><g><path d="M-34.956 376.263v-8.632h1.171l4.533 6.774v-6.774h1.095v8.632h-1.17l-4.536-6.781v6.781h-1.093zM-26.767 373.136c0-1.158.321-2.013.966-2.569.538-.464 1.193-.697 1.966-.697.857 0 1.562.283 2.105.848.546.562.818 1.34.818 2.333 0 .804-.119 1.437-.362 1.897a2.56 2.56 0 0 1-1.053 1.072 3.048 3.048 0 0 1-1.509.383c-.876 0-1.583-.28-2.123-.842-.54-.561-.808-1.369-.808-2.425zm1.088 0c0 .803.174 1.4.523 1.799.351.397.79.598 1.321.598.525 0 .961-.201 1.313-.602.349-.399.523-1.011.523-1.83 0-.773-.175-1.359-.527-1.758a1.68 1.68 0 0 0-1.31-.597c-.532 0-.969.198-1.321.597-.348.394-.522.992-.522 1.793zM-19.679 376.263v-6.254h.954v.947c.243-.44.467-.735.674-.874a1.17 1.17 0 0 1 .68-.214c.358 0 .72.115 1.09.342l-.365.982a1.51 1.51 0 0 0-.777-.232c-.231 0-.439.073-.624.212a1.127 1.127 0 0 0-.393.58 4.077 4.077 0 0 0-.179 1.235v3.273l-1.06.003zM-15.655 376.263v-6.254h.95v.877c.194-.307.455-.552.782-.738a2.187 2.187 0 0 1 1.113-.282c.463 0 .843.097 1.139.288.297.192.506.461.626.806.495-.731 1.139-1.096 1.93-1.096.62 0 1.096.174 1.43.515.333.343.499.873.499 1.586v4.292H-8.24v-3.938c0-.425-.033-.729-.103-.916a.891.891 0 0 0-.374-.45 1.19 1.19 0 0 0-.636-.17c-.441 0-.805.146-1.094.44-.291.29-.438.759-.438 1.404v3.632h-1.06v-4.064c0-.471-.086-.823-.259-1.06-.175-.237-.456-.353-.85-.353-.297 0-.574.078-.825.234a1.328 1.328 0 0 0-.551.69c-.113.301-.17.736-.17 1.306v3.244h-1.06v.007h.005zM-1.533 375.491c-.39.333-.767.568-1.131.703a3.267 3.267 0 0 1-1.169.207c-.687 0-1.215-.168-1.582-.501-.371-.339-.554-.766-.554-1.286a1.739 1.739 0 0 1 .755-1.448c.228-.152.482-.269.761-.347a7.38 7.38 0 0 1 .941-.159c.857-.104 1.486-.224 1.893-.365l.005-.277c0-.433-.1-.735-.3-.912-.27-.237-.674-.358-1.207-.358-.499 0-.866.088-1.103.262-.237.176-.414.486-.529.928l-1.036-.143c.095-.44.25-.802.466-1.071.218-.273.53-.485.937-.63.407-.147.88-.223 1.42-.223.534 0 .966.065 1.3.188.333.125.579.283.736.475.157.188.266.429.33.72.035.183.053.506.053.978v1.412c0 .985.024 1.608.069 1.869.045.262.133.511.268.753h-1.108a2.246 2.246 0 0 1-.215-.775zm-.086-2.366c-.387.158-.962.29-1.733.399-.436.063-.743.132-.922.213a.882.882 0 0 0-.417.344.893.893 0 0 0-.147.501.9.9 0 0 0 .32.706c.214.187.527.283.939.283.409 0 .771-.087 1.09-.268.317-.179.552-.423.699-.733.116-.239.173-.592.173-1.059l-.002-.386zM1.07 376.263v-8.632h1.059v8.632H1.07z"/></g><g><path d="M-25.719 387.938l1.047-.167c.061.421.224.743.494.966.269.224.645.337 1.127.337.485 0 .848-.1 1.083-.297.233-.198.351-.432.351-.7a.644.644 0 0 0-.311-.565c-.144-.092-.505-.213-1.083-.356-.775-.196-1.316-.366-1.617-.509a1.567 1.567 0 0 1-.682-.597 1.572 1.572 0 0 1-.232-.84c0-.278.063-.536.19-.773.127-.235.3-.434.521-.592.167-.123.39-.227.675-.308a3.13 3.13 0 0 1 .916-.131c.493 0 .922.073 1.292.213.37.142.644.335.821.573.176.242.298.564.365.968l-1.036.142c-.047-.321-.184-.572-.409-.753s-.546-.272-.957-.272c-.488 0-.836.081-1.043.242-.208.161-.313.349-.313.565 0 .135.044.26.13.371a.955.955 0 0 0 .406.282c.106.038.418.13.935.271.75.2 1.271.364 1.569.493.298.127.528.313.697.557.17.241.254.545.254.906 0 .354-.103.686-.31.998a1.985 1.985 0 0 1-.892.724 3.206 3.206 0 0 1-1.318.256c-.813 0-1.431-.168-1.857-.506-.424-.336-.695-.836-.813-1.498zM-19.662 386.677c0-1.156.321-2.015.966-2.569.538-.464 1.193-.697 1.963-.697.86 0 1.565.283 2.108.848.546.563.818 1.341.818 2.333 0 .804-.121 1.437-.362 1.897a2.58 2.58 0 0 1-1.053 1.073 3.065 3.065 0 0 1-1.513.382c-.872 0-1.582-.28-2.12-.84-.537-.563-.807-1.37-.807-2.427zm1.089 0c0 .804.174 1.401.524 1.799.349.399.788.596 1.319.596.527 0 .962-.196 1.313-.598.349-.4.524-1.012.524-1.831 0-.771-.175-1.36-.526-1.757a1.682 1.682 0 0 0-1.31-.598c-.531 0-.969.198-1.319.598-.351.392-.525.991-.525 1.791zM-12.563 389.803v-6.254h.954v.89c.459-.687 1.123-1.03 1.991-1.03.377 0 .721.07 1.039.203.315.135.549.313.707.535.157.22.266.48.332.782.036.194.058.541.058 1.029v3.845h-1.062V386c0-.434-.042-.753-.123-.968a1.036 1.036 0 0 0-.441-.512 1.373 1.373 0 0 0-.738-.19c-.451 0-.84.144-1.167.429-.33.287-.494.831-.494 1.635v3.413l-1.056-.004z"/></g><g><path d="M103.386 373.412l1.142.286c-.237.937-.67 1.653-1.292 2.148-.623.491-1.38.738-2.281.738-.931 0-1.686-.189-2.267-.568-.585-.379-1.026-.928-1.331-1.646s-.458-1.489-.458-2.311c0-.901.174-1.685.516-2.354a3.531 3.531 0 0 1 1.466-1.525 4.284 4.284 0 0 1 2.094-.521c.861 0 1.587.219 2.178.659.589.439.999 1.059 1.229 1.852l-1.123.267c-.201-.629-.493-1.087-.871-1.374-.38-.285-.86-.429-1.438-.429-.66 0-1.217.159-1.663.477a2.547 2.547 0 0 0-.939 1.279 5.166 5.166 0 0 0-.27 1.655c0 .737.106 1.376.32 1.923.214.549.547.959.998 1.228.451.27.941.406 1.468.406.64 0 1.18-.185 1.625-.554.44-.365.74-.911.897-1.636zM109.879 375.665c-.391.337-.769.569-1.131.706a3.302 3.302 0 0 1-1.168.206c-.686 0-1.214-.169-1.583-.503-.371-.336-.553-.764-.553-1.286a1.746 1.746 0 0 1 .753-1.448c.227-.152.481-.269.762-.344.208-.057.522-.108.941-.16.857-.102 1.485-.226 1.891-.364l.006-.28c0-.43-.1-.735-.3-.909-.271-.239-.674-.359-1.207-.359-.5 0-.867.086-1.105.262-.237.176-.414.484-.527.928l-1.036-.142c.095-.443.25-.803.466-1.073.215-.273.526-.483.935-.631.409-.146.881-.22 1.421-.22.534 0 .965.063 1.3.186.333.128.579.286.736.477.157.188.267.43.33.718.037.183.054.506.054.978v1.415c0 .986.024 1.605.069 1.869.042.262.132.509.268.75h-1.109a2.257 2.257 0 0 1-.213-.776zm-.088-2.365c-.387.158-.962.288-1.731.398-.436.063-.743.134-.922.212a.907.907 0 0 0-.42.345.915.915 0 0 0-.145.503c0 .282.107.518.321.703.213.188.527.286.939.286.408 0 .771-.09 1.089-.268a1.67 1.67 0 0 0 .699-.736c.115-.237.172-.592.172-1.059l-.002-.384zM112.493 376.436v-6.251h.954v.947c.243-.443.467-.736.674-.876.207-.143.433-.213.68-.213.357 0 .72.114 1.088.34l-.365.982a1.517 1.517 0 0 0-.777-.23c-.231 0-.439.071-.624.21a1.14 1.14 0 0 0-.393.58 4.077 4.077 0 0 0-.179 1.235v3.272l-1.058.004zM116.507 376.436v-6.251h.956v.947c.241-.443.467-.736.671-.876.207-.143.436-.213.683-.213.355 0 .719.114 1.09.34l-.365.982a1.517 1.517 0 0 0-.777-.23c-.234 0-.441.071-.624.21-.185.14-.319.333-.394.58a4.11 4.11 0 0 0-.176 1.235v3.272l-1.064.004zM120.54 369.024v-1.217h1.06v1.217h-1.06zm0 7.412v-6.251h1.06v6.251h-1.06zM127.492 374.424l1.095.135c-.173.64-.494 1.136-.961 1.49-.467.35-1.063.528-1.789.528-.915 0-1.64-.283-2.176-.848-.535-.56-.805-1.351-.805-2.365 0-1.052.272-1.868.813-2.449.543-.583 1.244-.871 2.107-.871.835 0 1.519.284 2.048.854.529.568.796 1.372.796 2.403 0 .063-.005.158-.007.283h-4.66c.038.687.233 1.213.583 1.578.349.364.784.547 1.306.547.388 0 .72-.102.995-.305.276-.208.494-.533.655-.98zm-3.479-1.714h3.491c-.047-.525-.18-.92-.401-1.183a1.628 1.628 0 0 0-1.313-.61c-.485 0-.895.163-1.227.489-.332.323-.515.76-.55 1.304zM129.905 376.436v-6.251h.956v.947c.241-.443.468-.736.675-.876.207-.143.432-.213.679-.213.357 0 .721.114 1.089.34l-.365.982a1.52 1.52 0 0 0-.778-.23c-.233 0-.441.071-.623.21-.185.14-.316.333-.396.58a4.11 4.11 0 0 0-.176 1.235v3.272l-1.061.004z"/></g><g><path d="M95.733 389.977v-.789c-.396.62-.979.931-1.749.931-.499 0-.956-.139-1.374-.414a2.69 2.69 0 0 1-.972-1.15c-.232-.493-.344-1.061-.344-1.697 0-.624.103-1.189.311-1.698s.52-.897.936-1.168c.416-.273.88-.406 1.395-.406.377 0 .712.077 1.008.235.293.159.534.366.716.621v-3.094h1.056v8.63h-.983zm-3.348-3.12c0 .801.168 1.399.506 1.792.338.398.736.598 1.194.598.463 0 .857-.188 1.18-.567.324-.379.485-.959.485-1.734 0-.857-.164-1.482-.493-1.886-.332-.4-.738-.598-1.22-.598-.471 0-.865.188-1.181.577-.315.384-.471.989-.471 1.818zM102.461 389.205c-.39.337-.767.569-1.131.707a3.334 3.334 0 0 1-1.169.207c-.686 0-1.214-.171-1.582-.505-.371-.337-.554-.764-.554-1.285 0-.306.069-.586.209-.839.14-.254.321-.456.548-.609.225-.152.479-.269.76-.345.208-.058.521-.109.941-.161.857-.103 1.486-.224 1.891-.364l.006-.277c0-.432-.101-.736-.3-.91-.27-.239-.674-.358-1.207-.358-.499 0-.866.085-1.103.262-.238.174-.414.482-.529.928l-1.037-.143c.095-.443.251-.804.466-1.074.219-.273.53-.482.937-.63.409-.146.881-.22 1.421-.22.533 0 .964.062 1.3.185.333.129.579.286.736.475.156.189.267.433.33.721.035.183.052.507.052.978v1.413c0 .984.024 1.607.071 1.869.045.26.131.511.268.753h-1.107a2.184 2.184 0 0 1-.217-.778zm-.088-2.365c-.387.159-.962.29-1.733.4-.436.063-.743.134-.922.213a.898.898 0 0 0-.565.847c0 .283.107.518.321.704.214.188.526.285.938.285.409 0 .772-.09 1.09-.271.317-.179.551-.422.699-.733.116-.236.173-.593.173-1.06v-.385h-.001zM109.184 389.977v-.918c-.487.705-1.148 1.062-1.984 1.062-.369 0-.714-.072-1.034-.213s-.558-.32-.713-.533a2.012 2.012 0 0 1-.327-.786c-.044-.209-.064-.539-.064-.99v-3.872h1.06v3.466c0 .554.021.927.064 1.119.065.278.208.495.423.654.218.159.485.237.803.237.318 0 .617-.081.896-.243.278-.163.476-.386.591-.663.118-.283.176-.69.176-1.221v-3.35h1.06v6.254l-.951-.003zM111.598 390.495l1.028.153c.042.318.162.547.358.695.263.195.622.293 1.078.293.49 0 .87-.098 1.136-.293.266-.197.447-.472.541-.825.054-.216.08-.67.078-1.36-.463.547-1.04.819-1.731.819-.857 0-1.525-.312-1.996-.93-.471-.621-.707-1.365-.707-2.232 0-.597.107-1.146.326-1.65.215-.505.528-.894.938-1.167.41-.277.892-.413 1.446-.413.737 0 1.347.295 1.825.895v-.753h.977v5.406c0 .971-.099 1.662-.298 2.066a2.178 2.178 0 0 1-.941.962c-.432.235-.961.353-1.587.353-.746 0-1.348-.167-1.807-.504-.46-.333-.681-.839-.664-1.515zm.876-3.754c0 .817.166 1.418.49 1.793.326.377.733.565 1.222.565s.896-.188 1.225-.563c.33-.374.495-.959.495-1.763 0-.762-.171-1.342-.509-1.729-.341-.39-.75-.583-1.228-.583-.471 0-.872.188-1.2.573-.329.384-.495.952-.495 1.707zM118.495 389.977v-8.63h1.062v3.094c.492-.572 1.116-.856 1.872-.856.463 0 .866.092 1.207.274a1.6 1.6 0 0 1 .732.755c.147.322.223.789.223 1.402v3.961h-1.062v-3.961c0-.534-.114-.916-.342-1.16-.232-.238-.555-.361-.974-.361-.314 0-.609.081-.886.243a1.393 1.393 0 0 0-.593.663c-.117.278-.176.664-.176 1.154v3.42l-1.063.002zM127.514 389.03l.153.937a3.918 3.918 0 0 1-.8.095c-.388 0-.684-.064-.898-.183-.211-.122-.358-.282-.445-.48s-.13-.615-.13-1.251v-3.598h-.778v-.823h.778v-1.549l1.056-.637v2.187h1.063v.822h-1.063v3.657c0 .303.019.494.056.581a.433.433 0 0 0 .181.207.705.705 0 0 0 .362.078c.118-.003.274-.016.465-.043zM132.83 387.964l1.095.135c-.175.641-.494 1.138-.961 1.487-.467.353-1.063.533-1.789.533-.915 0-1.64-.283-2.176-.848-.535-.561-.805-1.353-.805-2.367 0-1.055.272-1.868.813-2.448.542-.584 1.244-.871 2.108-.871.835 0 1.519.284 2.048.853.529.569.794 1.372.794 2.402 0 .064-.002.159-.006.286h-4.663c.039.686.235 1.211.585 1.576.347.364.785.547 1.307.547.388 0 .72-.101.995-.305.273-.205.494-.532.655-.98zm-3.479-1.713h3.491c-.047-.526-.183-.919-.401-1.183-.337-.409-.775-.609-1.313-.609-.489 0-.895.161-1.227.487-.332.323-.516.76-.55 1.305zM135.243 389.977v-6.254h.956v.95c.241-.442.467-.735.674-.877.207-.143.433-.212.68-.212.356 0 .72.113 1.088.339l-.365.983a1.506 1.506 0 0 0-.777-.229c-.233 0-.441.069-.624.208a1.137 1.137 0 0 0-.395.581 4.132 4.132 0 0 0-.176 1.235v3.273l-1.061.003z"/></g><g><path d="M210.576 373.412l1.142.286c-.239.937-.67 1.653-1.292 2.148-.622.491-1.383.738-2.281.738-.93 0-1.686-.189-2.269-.568s-1.025-.928-1.328-1.646a5.85 5.85 0 0 1-.456-2.311c0-.901.172-1.685.514-2.354a3.528 3.528 0 0 1 1.467-1.525 4.267 4.267 0 0 1 2.093-.521c.862 0 1.589.219 2.179.659.591.439 1.001 1.059 1.229 1.852l-1.125.267c-.197-.629-.49-1.087-.868-1.374-.382-.285-.859-.429-1.436-.429-.664 0-1.219.159-1.664.477a2.5 2.5 0 0 0-.938 1.279 5.086 5.086 0 0 0-.271 1.655c0 .737.108 1.376.321 1.923.214.548.545.959.997 1.228s.94.406 1.466.406c.644 0 1.182-.185 1.627-.554.435-.365.736-.911.893-1.636zM217.068 375.665c-.392.337-.771.569-1.133.706a3.302 3.302 0 0 1-1.168.206c-.689 0-1.216-.169-1.583-.503-.367-.335-.551-.764-.551-1.286 0-.305.069-.585.209-.839.136-.253.321-.456.545-.609a2.5 2.5 0 0 1 .763-.344c.208-.057.521-.108.941-.16.856-.102 1.484-.226 1.89-.364l.006-.28c0-.43-.099-.735-.298-.909-.273-.239-.674-.359-1.209-.359-.496 0-.863.086-1.104.262-.234.176-.412.484-.526.928l-1.036-.142c.095-.443.249-.803.466-1.073.216-.273.526-.483.936-.631.408-.146.881-.22 1.419-.22.535 0 .967.063 1.301.186.335.127.581.286.738.477.156.188.266.43.329.718.035.183.054.506.054.978v1.415c0 .986.021 1.605.066 1.869.045.262.136.509.271.75h-1.109a2.215 2.215 0 0 1-.217-.776zm-.088-2.365c-.385.158-.96.288-1.73.398-.437.063-.745.134-.925.212a.9.9 0 0 0-.565.848c0 .282.107.518.321.703.216.188.53.286.941.286.406 0 .769-.09 1.088-.268.319-.182.55-.426.7-.736.112-.237.17-.592.17-1.059v-.384zM219.681 376.436v-6.251h.957v.947c.239-.443.469-.736.674-.876.205-.143.433-.213.679-.213.358 0 .722.114 1.091.34l-.367.982a1.511 1.511 0 0 0-.776-.23 1 1 0 0 0-.623.21c-.186.14-.316.333-.395.58a4.109 4.109 0 0 0-.178 1.235v3.272l-1.062.004zM223.697 376.436v-6.251h.954v.947c.243-.443.468-.736.675-.876.205-.143.432-.213.68-.213.356 0 .719.114 1.089.34l-.365.982a1.523 1.523 0 0 0-.777-.23c-.232 0-.438.071-.624.21-.181.14-.315.333-.393.58a4.077 4.077 0 0 0-.179 1.235v3.272l-1.06.004zM227.728 369.024v-1.217h1.062v1.217h-1.062zm0 7.412v-6.251h1.062v6.251h-1.062zM234.679 374.424l1.095.135c-.171.64-.491 1.136-.958 1.49-.467.35-1.063.528-1.792.528-.911 0-1.636-.283-2.172-.848-.537-.56-.805-1.351-.805-2.365 0-1.052.27-1.868.811-2.449.54-.583 1.244-.871 2.105-.871.836 0 1.521.284 2.051.854.529.568.794 1.372.794 2.403 0 .063-.001.158-.006.283h-4.662c.039.687.235 1.213.582 1.578.35.364.787.547 1.31.547.388 0 .718-.102.995-.305.275-.208.493-.533.652-.98zm-3.478-1.714h3.493c-.046-.525-.183-.92-.398-1.183a1.63 1.63 0 0 0-1.313-.61 1.68 1.68 0 0 0-1.228.489c-.329.326-.518.76-.554 1.304zM237.094 376.436v-6.251h.954v.947c.243-.443.468-.736.674-.876.207-.143.436-.213.68-.213.357 0 .72.114 1.09.34l-.365.982a1.52 1.52 0 0 0-.777-.23c-.23 0-.439.071-.625.21-.181.14-.314.333-.39.58-.122.376-.18.788-.18 1.235v3.272l-1.061.004z"/></g><g><path d="M212.682 388.111l1.049-.165c.06.42.223.742.492.964.269.225.646.337 1.127.337.486 0 .848-.099 1.084-.297.233-.198.353-.431.353-.698a.639.639 0 0 0-.313-.565c-.145-.094-.506-.213-1.083-.358-.776-.196-1.318-.365-1.615-.509a1.556 1.556 0 0 1-.686-.595 1.583 1.583 0 0 1-.232-.842 1.685 1.685 0 0 1 .712-1.366c.165-.121.388-.225.675-.309.284-.082.59-.126.913-.126.491 0 .921.069 1.292.212.371.141.646.332.821.573.176.239.298.563.364.965l-1.036.142c-.047-.321-.184-.572-.41-.752-.225-.183-.543-.273-.956-.273-.488 0-.834.08-1.041.24-.209.162-.313.351-.313.565a.58.58 0 0 0 .129.371.963.963 0 0 0 .406.285c.106.036.417.129.936.271.749.201 1.271.364 1.567.49.297.131.53.314.701.558.17.243.253.545.253.907 0 .352-.103.687-.308.998-.207.312-.505.551-.896.724a3.239 3.239 0 0 1-1.318.257c-.813 0-1.432-.172-1.857-.506-.421-.335-.692-.834-.81-1.498zM218.739 386.853c0-1.16.322-2.017.966-2.573.537-.463 1.192-.693 1.965-.693.857 0 1.562.279 2.105.844.546.563.818 1.342.818 2.333 0 .804-.121 1.438-.362 1.899a2.562 2.562 0 0 1-1.055 1.071 3.058 3.058 0 0 1-1.509.386c-.875 0-1.584-.283-2.123-.844-.535-.559-.805-1.368-.805-2.423zm1.088 0c0 .8.178 1.399.524 1.795.35.399.792.598 1.321.598.526 0 .961-.2 1.313-.6.349-.399.522-1.011.522-1.832 0-.772-.175-1.358-.525-1.756a1.677 1.677 0 0 0-1.311-.597c-.529 0-.97.195-1.321.595-.346.396-.523.995-.523 1.797zM225.838 389.977v-6.254h.954v.891c.459-.688 1.121-1.029 1.992-1.029.375 0 .724.067 1.038.202.316.133.55.313.708.534.155.219.269.479.331.782.039.195.06.54.06 1.03v3.844h-1.06v-3.803c0-.435-.041-.754-.127-.97a1.004 1.004 0 0 0-.438-.511 1.39 1.39 0 0 0-.741-.19c-.448 0-.84.144-1.167.431-.328.284-.494.83-.494 1.632v3.414l-1.056-.003z"/></g><g><path d="M313.28 376.436l3.314-8.629h1.229l3.532 8.629h-1.302l-1.008-2.613h-3.606l-.949 2.613h-1.21zm2.49-3.543h2.926l-.901-2.39a22.782 22.782 0 0 1-.611-1.792 11.08 11.08 0 0 1-.466 1.648l-.948 2.534zM322.387 376.436v-5.427h-.936v-.822h.936v-.664c0-.421.035-.733.112-.937.102-.277.282-.497.538-.669.257-.17.617-.255 1.08-.255.298 0 .628.035.989.105l-.158.924a3.514 3.514 0 0 0-.625-.06c-.322 0-.55.068-.683.206-.134.135-.199.393-.199.77v.579h1.217v.822h-1.217v5.427h-1.054v.001z"/><path d="M325.518 376.436v-5.427h-.936v-.822h.936v-.664c0-.421.037-.733.111-.937.103-.277.285-.497.539-.669.257-.17.616-.255 1.08-.255.298 0 .628.035.988.105l-.157.924a3.525 3.525 0 0 0-.626-.06c-.322 0-.547.068-.682.206-.132.135-.201.393-.201.77v.579h1.22v.822h-1.22v5.427h-1.052v.001zM332.893 374.424l1.095.135c-.172.64-.491 1.136-.959 1.49-.467.35-1.063.528-1.791.528-.911 0-1.636-.283-2.175-.848-.535-.56-.803-1.351-.803-2.365 0-1.052.271-1.868.809-2.449.544-.583 1.244-.871 2.108-.871.835 0 1.518.284 2.05.854.529.568.793 1.372.793 2.403 0 .063-.001.158-.005.283h-4.66c.039.687.233 1.213.581 1.578.351.364.786.547 1.308.547.39 0 .72-.102.995-.305.277-.208.493-.533.654-.98zm-3.478-1.714h3.492c-.047-.525-.182-.92-.399-1.183a1.63 1.63 0 0 0-1.314-.61c-.488 0-.896.163-1.225.489-.335.323-.518.76-.554 1.304zM339.399 374.146l1.042.134c-.114.718-.404 1.279-.872 1.687-.47.406-1.046.609-1.729.609-.857 0-1.542-.282-2.063-.839-.52-.56-.78-1.362-.78-2.406 0-.676.112-1.266.336-1.772a2.347 2.347 0 0 1 1.021-1.139c.458-.253.955-.38 1.491-.38.68 0 1.232.172 1.666.515.434.341.707.832.831 1.463l-1.03.159c-.099-.419-.273-.735-.521-.948a1.351 1.351 0 0 0-.907-.318c-.532 0-.965.189-1.3.575-.334.382-.498.987-.498 1.815 0 .841.161 1.451.481 1.831.323.38.742.571 1.262.571.416 0 .763-.13 1.041-.385.278-.248.453-.641.529-1.172zM343.662 375.489l.15.935a3.903 3.903 0 0 1-.802.096c-.384 0-.682-.063-.895-.183a1.022 1.022 0 0 1-.446-.479c-.084-.199-.129-.616-.129-1.251v-3.6h-.776v-.823h.776v-1.547l1.055-.637v2.183h1.064v.824h-1.064v3.659c0 .301.018.493.056.581a.446.446 0 0 0 .183.207.7.7 0 0 0 .36.077c.118 0 .275-.016.468-.042zM348.975 374.424l1.095.135c-.173.64-.493 1.136-.96 1.49-.467.35-1.064.528-1.791.528-.914 0-1.639-.283-2.176-.848-.535-.56-.803-1.351-.803-2.365 0-1.052.271-1.868.81-2.449.544-.583 1.244-.871 2.106-.871.837 0 1.52.284 2.051.854.53.568.797 1.372.797 2.403 0 .063-.003.158-.007.283h-4.662c.038.687.233 1.213.582 1.578a1.74 1.74 0 0 0 1.308.547c.389 0 .72-.102.996-.305.276-.208.493-.533.654-.98zm-3.478-1.714h3.49c-.046-.525-.18-.92-.398-1.183a1.628 1.628 0 0 0-1.314-.61 1.68 1.68 0 0 0-1.226.489c-.333.324-.516.76-.552 1.304zM355.457 376.436v-.789c-.396.621-.98.93-1.749.93-.495 0-.956-.137-1.375-.412a2.711 2.711 0 0 1-.97-1.15c-.23-.494-.344-1.061-.344-1.698 0-.623.104-1.189.312-1.697.208-.509.521-.899.937-1.168a2.485 2.485 0 0 1 1.396-.406 2.088 2.088 0 0 1 1.726.856v-3.093h1.053v8.629l-.986-.002zm-3.349-3.12c0 .802.169 1.4.505 1.793.338.396.737.598 1.195.598.462 0 .857-.19 1.18-.568s.486-.957.486-1.734c0-.857-.165-1.482-.492-1.885-.33-.399-.737-.599-1.22-.599-.471 0-.862.189-1.179.578-.317.383-.475.989-.475 1.817z"/></g><g><path d="M316.316 389.977v-.789c-.397.62-.98.931-1.749.931-.5 0-.96-.139-1.376-.414a2.684 2.684 0 0 1-.969-1.15c-.231-.493-.345-1.061-.345-1.697 0-.624.104-1.189.312-1.698.209-.509.521-.897.937-1.168a2.485 2.485 0 0 1 1.396-.406c.376 0 .713.077 1.007.235.293.159.535.366.718.621v-3.094h1.056v8.63h-.987zm-3.351-3.12c0 .801.169 1.399.506 1.792.337.398.735.598 1.195.598.462 0 .856-.188 1.181-.567.323-.379.485-.959.485-1.734 0-.857-.165-1.482-.495-1.886-.329-.4-.735-.598-1.219-.598-.471 0-.864.188-1.18.577-.315.384-.473.989-.473 1.818zM323.042 389.205c-.39.337-.77.569-1.132.707a3.329 3.329 0 0 1-1.168.207c-.688 0-1.218-.171-1.584-.505-.368-.337-.551-.764-.551-1.285 0-.306.069-.586.209-.839.137-.254.321-.456.545-.609.228-.152.482-.269.763-.345.207-.058.521-.109.941-.161.857-.103 1.485-.224 1.893-.364.004-.144.005-.236.005-.277 0-.432-.1-.736-.299-.91-.271-.239-.674-.358-1.207-.358-.498 0-.865.085-1.106.262-.234.174-.412.482-.526.928l-1.036-.143c.095-.443.248-.804.466-1.074.215-.273.526-.482.935-.63.408-.146.881-.22 1.421-.22.534 0 .965.062 1.302.185.333.129.578.286.735.475.157.189.267.433.33.721.035.183.053.507.053.978v1.413c0 .984.024 1.607.069 1.869.043.26.132.511.27.753h-1.109a2.184 2.184 0 0 1-.219-.778zm-.086-2.365c-.389.159-.962.29-1.733.4-.437.063-.744.134-.925.213a.898.898 0 0 0-.565.847c0 .283.107.518.324.704.214.188.526.285.938.285.408 0 .771-.09 1.089-.271.318-.179.55-.422.699-.733.113-.236.173-.593.173-1.06v-.385zM329.765 389.977v-.918c-.489.705-1.148 1.062-1.985 1.062-.371 0-.713-.072-1.032-.213-.322-.141-.558-.32-.713-.533a2.011 2.011 0 0 1-.326-.786c-.044-.209-.066-.539-.066-.99v-3.872h1.062v3.466c0 .554.021.927.064 1.119.066.278.208.495.423.654.217.159.485.237.805.237.317 0 .614-.081.894-.243.278-.163.477-.386.593-.663.117-.283.175-.69.175-1.221v-3.35h1.06v6.254l-.954-.003zM332.177 390.495l1.031.153c.043.318.165.547.359.695.264.195.622.293 1.077.293.49 0 .87-.098 1.136-.293.267-.197.444-.472.542-.825.055-.216.081-.67.077-1.36-.462.547-1.039.819-1.732.819-.856 0-1.525-.312-1.995-.93-.472-.621-.706-1.365-.706-2.232 0-.597.107-1.146.323-1.65.218-.505.531-.894.941-1.167.408-.277.892-.413 1.443-.413.738 0 1.347.295 1.827.895v-.753h.976v5.406c0 .971-.101 1.662-.296 2.066a2.185 2.185 0 0 1-.944.962c-.43.235-.959.353-1.584.353-.746 0-1.349-.167-1.808-.504-.46-.333-.682-.839-.667-1.515zm.877-3.754c0 .817.165 1.418.492 1.793a1.55 1.55 0 0 0 1.221.565c.489 0 .896-.188 1.226-.563.329-.374.494-.959.494-1.763 0-.762-.172-1.342-.51-1.729-.338-.39-.75-.583-1.226-.583-.471 0-.871.188-1.2.573-.331.384-.497.952-.497 1.707zM339.077 389.977v-8.63h1.062v3.094c.492-.572 1.116-.856 1.873-.856.463 0 .863.092 1.205.274.343.182.589.434.733.755.147.322.223.789.223 1.402v3.961h-1.061v-3.961c0-.534-.116-.916-.346-1.16-.229-.238-.552-.361-.973-.361-.314 0-.607.081-.886.243a1.39 1.39 0 0 0-.592.663c-.118.277-.178.664-.178 1.154v3.42l-1.06.002zM348.094 389.03l.153.937a3.93 3.93 0 0 1-.803.095c-.384 0-.682-.064-.895-.183a.996.996 0 0 1-.444-.48c-.088-.198-.132-.615-.132-1.251v-3.598h-.775v-.823h.775v-1.549l1.057-.637v2.187h1.063v.822h-1.063v3.657c0 .303.019.494.057.581a.42.42 0 0 0 .182.207.702.702 0 0 0 .36.078c.121-.003.275-.016.465-.043zM353.412 387.964l1.096.135c-.175.641-.493 1.138-.961 1.487-.467.353-1.063.533-1.789.533-.914 0-1.641-.283-2.176-.848-.536-.561-.805-1.353-.805-2.367 0-1.055.273-1.868.813-2.448.541-.584 1.244-.871 2.105-.871.838 0 1.521.284 2.049.853.53.569.796 1.372.796 2.402 0 .064-.003.159-.006.286h-4.661c.038.686.233 1.211.583 1.576.348.364.785.547 1.309.547.388 0 .72-.101.993-.305.273-.207.493-.532.654-.98zm-3.48-1.713h3.492c-.048-.526-.183-.919-.4-1.183-.337-.409-.774-.609-1.313-.609-.49 0-.897.161-1.229.487-.331.323-.514.76-.55 1.305zM355.824 389.977v-6.254h.954v.95c.242-.442.469-.735.674-.877a1.17 1.17 0 0 1 .681-.212c.357 0 .72.113 1.088.339l-.364.983a1.503 1.503 0 0 0-.776-.229c-.233 0-.44.069-.624.208s-.316.333-.394.581a4.13 4.13 0 0 0-.178 1.235v3.273l-1.061.003z"/></g><g><path d="M45.827 172.543v-12.132h5.379c1.082 0 1.901.108 2.464.327.562.221 1.012.603 1.349 1.157a3.42 3.42 0 0 1 .505 1.828c0 .858-.279 1.583-.836 2.177-.557.591-1.419.963-2.582 1.122.425.205.747.406.968.604.468.43.911.969 1.331 1.614l2.11 3.302h-2.021l-1.605-2.523c-.47-.728-.855-1.285-1.159-1.671-.304-.386-.575-.657-.816-.812a2.351 2.351 0 0 0-.732-.322c-.183-.039-.479-.057-.894-.057h-1.862v5.387l-1.599-.001zm1.606-6.778h3.452c.733 0 1.308-.076 1.721-.228.414-.152.729-.396.942-.728.215-.336.322-.699.322-1.089 0-.572-.208-1.044-.625-1.414-.416-.371-1.074-.555-1.973-.555h-3.84v4.014h.001z"/></g><g><path d="M281.259 172.543v-12.132h5.379c1.082 0 1.901.108 2.465.327.563.221 1.013.603 1.35 1.157a3.42 3.42 0 0 1 .505 1.828c0 .858-.278 1.583-.837 2.177-.557.59-1.419.963-2.582 1.122.426.205.748.406.968.604.47.43.912.969 1.331 1.614l2.111 3.302h-2.021l-1.605-2.523a22.89 22.89 0 0 0-1.157-1.671c-.305-.386-.575-.657-.816-.812a2.341 2.341 0 0 0-.732-.322c-.181-.039-.479-.057-.893-.057h-1.863v5.387l-1.603-.001zm1.605-6.778h3.45c.736 0 1.31-.076 1.724-.228.415-.152.729-.396.942-.728.216-.336.323-.699.323-1.089 0-.572-.208-1.044-.624-1.414-.417-.371-1.074-.555-1.974-.555h-3.841v4.014z"/></g><g><path d="M-32.62 271.78v-12.132h5.379c1.081 0 1.903.112 2.464.33.563.219 1.012.601 1.349 1.155a3.43 3.43 0 0 1 .504 1.828c0 .861-.278 1.587-.835 2.177-.558.593-1.418.966-2.582 1.127.427.202.749.404.968.601a8.45 8.45 0 0 1 1.333 1.615l2.109 3.299h-2.02l-1.605-2.521a23.25 23.25 0 0 0-1.158-1.674c-.304-.387-.575-.654-.816-.809a2.455 2.455 0 0 0-.732-.325c-.181-.036-.479-.058-.894-.058h-1.858v5.386h-1.606v.001zm1.606-6.775h3.452c.733 0 1.308-.077 1.721-.229.414-.152.728-.393.943-.729.215-.333.322-.695.322-1.089 0-.572-.208-1.045-.625-1.414-.417-.37-1.072-.555-1.973-.555h-3.839v4.016z"/></g><g><path d="M-4.141 271.78v-12.132h5.379c1.081 0 1.901.112 2.464.33.562.219 1.012.601 1.349 1.155a3.43 3.43 0 0 1 .504 1.828c0 .861-.278 1.587-.835 2.177-.557.593-1.418.966-2.582 1.127.424.202.749.404.968.601.468.433.911.968 1.331 1.615l2.11 3.299h-2.02l-1.605-2.521a23.25 23.25 0 0 0-1.158-1.674c-.304-.387-.575-.654-.816-.809a2.455 2.455 0 0 0-.732-.325c-.181-.036-.479-.058-.894-.058H-2.54v5.386h-1.601v.001zm1.606-6.775H.917c.733 0 1.308-.077 1.721-.229.414-.152.728-.393.943-.729.215-.333.322-.695.322-1.089 0-.572-.208-1.045-.625-1.414-.417-.37-1.074-.555-1.973-.555h-3.839v4.016z"/></g><g><path d="M98.156 271.78v-12.132h5.379c1.081 0 1.903.112 2.466.33.563.219 1.011.601 1.349 1.155.336.551.502 1.162.502 1.828 0 .861-.278 1.587-.835 2.177-.556.593-1.418.966-2.58 1.127.424.202.747.404.966.601a8.45 8.45 0 0 1 1.333 1.615l2.11 3.299h-2.019l-1.605-2.521a23.157 23.157 0 0 0-1.16-1.674c-.304-.387-.575-.654-.813-.809a2.517 2.517 0 0 0-.733-.325c-.181-.036-.48-.058-.895-.058h-1.862v5.386h-1.603v.001zm1.605-6.775h3.452c.733 0 1.307-.077 1.721-.229s.728-.393.943-.729c.214-.333.322-.695.322-1.089 0-.572-.208-1.045-.625-1.414-.417-.37-1.071-.555-1.973-.555h-3.839v4.016h-.001z"/></g><g><path d="M208.664 271.78v-12.132h5.379c1.083 0 1.901.112 2.464.33.563.219 1.014.601 1.351 1.155a3.43 3.43 0 0 1 .505 1.828c0 .861-.279 1.587-.837 2.177-.558.593-1.42.966-2.582 1.127.426.202.748.404.968.601.47.433.912.968 1.331 1.615l2.111 3.299h-2.021l-1.605-2.521a22.928 22.928 0 0 0-1.158-1.674c-.304-.387-.575-.654-.815-.809a2.433 2.433 0 0 0-.732-.325c-.181-.036-.479-.058-.893-.058h-1.863v5.386h-1.603v.001zm1.605-6.775h3.45c.735 0 1.31-.077 1.724-.229s.729-.393.942-.729c.215-.333.323-.695.323-1.089 0-.572-.208-1.045-.624-1.414-.417-.37-1.075-.555-1.974-.555h-3.841v4.016z"/></g><g><path d="M315.709 271.78v-8.787h1.341v1.33c.339-.624.655-1.033.947-1.231s.608-.298.956-.298c.501 0 1.012.159 1.531.48l-.514 1.382a2.125 2.125 0 0 0-1.092-.323c-.326 0-.619.098-.878.291-.258.197-.44.469-.554.815a5.79 5.79 0 0 0-.247 1.738v4.6h-1.489v.003h-.001z"/></g><g><path d="M336.763 271.78v-8.787h1.339v1.33c.341-.624.656-1.033.948-1.231.289-.198.607-.298.956-.298.501 0 1.012.159 1.531.48l-.513 1.382c-.365-.216-.729-.323-1.093-.323-.327 0-.619.098-.878.291a1.62 1.62 0 0 0-.554.815 5.821 5.821 0 0 0-.248 1.738v4.6h-1.488v.003z"/></g><g><path d="M309.332 172.543v-8.791h1.34v1.333c.341-.622.656-1.034.948-1.232.289-.2.607-.296.959-.296.498 0 1.011.159 1.53.479l-.514 1.38c-.365-.215-.729-.322-1.094-.322-.324 0-.617.099-.877.295-.259.195-.441.467-.551.815a5.684 5.684 0 0 0-.249 1.737v4.601l-1.492.001z"/></g><g><path d="M70.319 172.543v-8.791h1.34v1.333c.339-.622.658-1.034.947-1.232.291-.196.609-.296.958-.296.5 0 1.011.159 1.53.479l-.513 1.38a2.125 2.125 0 0 0-1.092-.322c-.325 0-.618.099-.877.295a1.576 1.576 0 0 0-.552.815 5.715 5.715 0 0 0-.248 1.737v4.601l-1.493.001z"/></g><g><path d="M125.18 271.78v-8.787h1.341v1.33c.342-.624.658-1.033.946-1.231.291-.198.609-.298.958-.298.5 0 1.011.159 1.53.48l-.513 1.382a2.125 2.125 0 0 0-1.092-.323c-.325 0-.618.098-.877.291a1.604 1.604 0 0 0-.552.815 5.821 5.821 0 0 0-.248 1.738v4.6h-1.491v.003h-.002z"/></g><g><path d="M236.738 271.78v-8.787h1.339v1.33c.34-.624.659-1.033.948-1.231.288-.198.607-.298.959-.298.498 0 1.01.159 1.529.48l-.513 1.382c-.365-.216-.729-.323-1.093-.323-.325 0-.619.098-.878.291a1.597 1.597 0 0 0-.551.815 5.695 5.695 0 0 0-.249 1.738v4.6h-1.49v.003h-.001z"/></g><path fill="none" stroke="#000" stroke-width="1" d="M44.494 176.649l-57.479 78.796M51.134 178.308L216.154 253M2.651 254.66l278.41-78.011M73.324 177.522l55.036 74.692M240.789 255.445l69.013-77.923M309.802 253.785L78.216 177.522M103.724 253.785l183.977-76.263M313.909 176.649L340.204 253"/></svg>