<svg version="1.1" xmlns="http://www.w3.org/2000/svg" x="0" y="0" width="411.023" height="369.391" viewBox="-42.52 18.097 411.023 369.391" xml:space="preserve"><g fill="none" stroke="#000" stroke-width=".707" stroke-linecap="round" stroke-linejoin="round"><path d="M62.567 43.064c1.061.88 2.822 1.06 4.669 1.762 2.467.968 5.639 6.167 6.519 8.457.353.264.793.264.44.882 0 2.466 1.586 4.583 1.586 7.048 1.499 0 2.115 2.465 1.145 2.729.264.351.617.528.88 1.057 0 .706-.264 1.499-.441 1.938.089.179.353.617.533.795 0 1.231-.533 2.464-1.499 3.171-.353-2.643-4.493-3.702-7.047-.792 0-.795-.705-1.412-.529-2.115-.18 0-.882-.529-1.145-.795 0-.703.264-1.496 0-1.939 0 .179-.441.968-.617 1.233 0 1.938 2.025 2.996 1.057 5.197-.176.529-.44.265-.44.97-1.323 0-4.14 1.498-5.021 2.465-6.783 1.585-14.183.703-21.318-1.674-1.674-.705-2.026-5.197-2.026-7.223-.264.086-.792.528-1.321.44.44.264.613.704.613 1.499 0 1.762-.966 2.025-1.494 3.258-.795 2.907.177 8.279-.705 8.017-.264-2.728-4.053-2.025-5.286 0 0 .179.087.705.18 1.323-1.323.177-1.587-5.551-2.206-9.338-.264 0-.528 0-.701-.264-.265-.968.176-2.204 0-3.17-.18-.264-.441-.529-.705-.795-.528-1.232 1.498-2.29 1.851-3.257 0-6.431 2.907-10.924 4.932-16.121.44-1.496 1.321-4.228 3.083-5.021 2.644-1.231 5.813-1.499 8.72-2.203 1.762-.705.795.085 2.29-1.85.882-.88 1.851-1.058 2.643-.702-.352 1.583-.264 1.322-1.145 2.203 1.323 2.29 2.29 4.668 4.405 4.844.264 0 1.145 3.876 2.996 4.933 1.233-3.7 3.608-4.581 3.523-8.986 1.141-.265 1.141.703 1.581 2.024z"/><path d="M41.514 73.456c-.269.529-.353 4.23-.796 4.669 0 2.026-1.41 3.525-1.41 5.286 1.586 1.763.882 3.965.882 5.991.087.353.264.881.44 1.06.085.793.265 1.409.614 1.762.706.44-.175 1.231-1.493.529 0 .793.175 1.145 0 1.583.264.264.793.705.085 1.06 0 3.524 1.762 8.458 1.061 11.892-.704 3.789-2.205 7.753-1.586 11.981.265 1.939-.88 5.991-1.056 7.929v2.554c-.265.177-.441.44-.706.703-.087 2.73 0 5.374.089 8.019.089 1.322-.179 2.557-.089 3.965-.264 1.232-.969 4.319-.175 4.492 1.321-2.114 6.516-2.818 8.457-1.059.264.352.617.702.882 1.059.175.089.528-.264.702-.793 0-1.323.18-1.94.18-2.73 1.582 0 4.051-.704 5.633-.968 1.762-.528 3.789.532 5.287-.794 0-.44-.44-.968-.618-1.232 0-1.763.881-3.436 1.323-4.933.702-2.025.44-5.55.881-7.488v-.968c1.145-1.322 1.321-3.787 2.464-5.021 0-3.966 2.026-8.722 2.731-12.687 1.057-5.99.617-12.948 1.762-18.94 0-.265.353-1.674.968-2.819 1.673-5.197-.44-6.167-.44-7.84-.353.175-.705 1.057-1.498.618-.265-.179-.265-.532.087-.882.176-.267.264-.617.44-.882.179-.266 1.061-.53 1.497-.88-.176 0-.701.264-1.674.35-.353.353-1.144 1.233-1.762 1.323-.087 0-.528 0-.528-.441 0-.264.264-.528.264-.617-.18.353-1.145.353-.969-.44.264-.618.881-1.673 1.233-2.026.089-.264 1.234-1.057 1.674-1.41-.529-.353-1.583.793-2.115.793-.44.177-1.408.441-1.495-.086-8.189 2.018-17.263-.273-21.226-1.682z"/><path d="M53.228 143.929c.265-.616.882-1.411 2.026-1.583 1.497 0 2.379-.088 2.822-.353 1.762.967 3.436 3.171 4.58 3.609.792.265 2.201.354 2.727.442.353 0 .269 1.232 0 1.847.533.441.442.796-.083 1.147-1.851.35-5.286.35-8.019-.267-1.499-.264-1.499-.967-4.137-1.496-.616 0-.353.614-1.586.44-.618 0-3.172-.266-3.789-.702-.353-.179 0-1.059.089-1.323-.441-.615-.264-1.582-.264-2.29 1.056 0 1.938-.264 2.643-.351.79.441 1.23.792 2.991.88zM37.99 146.22c-.881.527-.532 1.939-.441 2.643.09.704-.088.882-.175 1.94.349 2.64 7.925 4.754 9.778 1.847.264-.794 0-1.938-.353-2.379-.44-1.409-.44-2.29-.349-3.609-1.233-1.851-3.523-1.94-5.638-1.585-.792.528-1.499 1.145-2.114 2.026-.356-.267-.533-.267-.708-.883z"/><path d="M37.99 146.22c.793-.617 1.762-.967 2.819-1.145-.617.352-1.674 1.323-2.114 2.113-.353-.264-.53-.352-.705-.968zm12.333-3.172c.529-.178 2.554-.617 3.348-.702.702-.088 1.145-.088 1.582-.088-.965.264-1.673.794-2.111 1.674-1.322-.003-2.115-.356-2.819-.884zM60.981 41.037c.176-.529.44-1.409.618-2.025.965-.794 1.493-2.465 1.846-3.084 1.061 0 2.115-2.554 2.29-3.875-.264-.53-1.057.177-1.848 1.058-.264 0 .349-1.763.265-2.467-.265-.528.264-2.818 0-3.17-.265.177-.265.44-.441.794-.264-.44-.085-.882 0-1.41-.88-1.233-2.554-1.233-3.524-1.057-.617 0-1.321.44-3.083-.089-1.672-.441-1.233-.087-1.937-1.323-.179-.35-1.586.617-1.498 1.499 0 3.437-1.061 3.789-.969 5.463-.353-.264-.528-.794-.793-1.233-.441-.704-.617-.793-1.059-.618-.44.618-.085 2.204-.085 3.525.085.88.529 1.322 1.057 1.322 0 .968-.617 3.966-.969 5.02-.085.265-.349.53-.702.882.881 1.675 2.202 4.845 4.405 4.758.617 1.673 1.497 4.316 2.907 5.021.085-1.059 2.111-3.966 2.554-4.669.703-1.501 1.054-3.087.966-4.322z"/><path d="M65.034 32.053c-.353.177-.705.615-1.146 1.058-.264 0 .349-1.763.265-2.467-.265-.528.264-2.818 0-3.17-.265.177-.265.44-.441.794-.264-.44-.085-.882 0-1.41-.88-1.233-2.992-1.233-3.524-1.057-.617 0-1.321.44-3.083-.089-1.672-.441-1.144-.087-1.937-1.323-.179-.35-1.586.617-1.498 1.499 0 3.437-1.061 3.789-.969 5.463-.353-.264-.528-.794-.793-1.233.265-1.499-1.941-3.967.085-5.551.795-1.585 1.586-2.465 2.995-2.729 1.498-.265 3.171-.703 4.669.086.618.089 2.466.44 3.086.882 3.172.353 4.316 4.405 3.347 7.047-.175.527-1.056 1.231-1.056 2.2zM65.562 75.042c-2.73 1.145-10.042 1.583-11.54 1.231-1.233 0-2.294-.176-3.523-.44-.264.178-.264 2.204 0 2.204 1.145.441 2.643.441 5.109.441 2.206.085 6.784-.617 7.928-.882.793-1.144.793-1.761 2.026-2.554zm-15.944.704c-.264.616-.179 1.762-.089 2.026-2.554-.53-6.43-1.322-8.281-2.292-.175-.35.089-1.938.265-1.938 2.642.883 5.285 1.589 8.105 2.204z"/><path d="M56.225 76.363c-.528-.176-1.321-.44-2.203-.44-.532 0-.532 2.729 0 2.907.793.085 1.938-.089 2.29-.353h-1.677c-.349-.086-.176-2.025 0-2.115.62.09 1.148.001 1.59.001zM69.35 70.02c0 1.059-.265 2.464-.265 3.436-.442 0-.881-.704-1.323-.793-1.494.086-4.404 1.583-5.108 2.465.176.441.882.35 1.499.086.965-.178 1.498-1.145 2.201-.793-1.938 1.41-1.673 1.146-2.818 3.257-.441.704.528 1.148.969.532-.089.264-.268.349-.353.615-.089.529.617.615 1.057.352.441-.352.882-.703 1.233-1.145.617 0 1.146-.178 1.762-.353-.706.441-.882.353-1.41.705-.264.175-.353.703-.704 1.232-.44.703.179 1.058.617.794.353-.178.793-.794 1.057-1.058.441-.441 1.851-.618 2.379-1.234.353-.086.88-.086 1.677-.528.878-.795.878-1.585 1.495-2.465 1.677-2.82 2.823-3.524 3.086-4.229-.353-1.849-1.762-2.29-2.466-2.379-.532-.169-2.559-.611-4.585 1.503zm-32.946 9.426c-.088 1.763.089 3.525.176 5.286.353.968 1.941 1.41 2.379 1.94.528.617 1.061 2.111 1.41 3.257.617.969 0 1.498 1.061 2.465.264.177-.18.616-.617.616-1.586-.087-1.762-1.232-2.379-2.994-.528 1.232 0 1.585-.353 2.818.969.53 1.586 1.323 2.025 1.851.441.616-.793 1.145-1.321.528-.969.178-.969.528-2.205-.528-.793 0-1.057.264-1.495-.177-1.677-.089-1.145.177-2.467-1.146-.618-.794-.618-1.94-.793-2.73-.264-.44-.264-1.145 0-1.497.353-.969-.087-1.675.44-2.555-.176-2.554-.702-4.14-1.145-7.223.879-1.674 4.931-2.905 5.284.089z"/><path d="M66.443 78.036c.177-.178.264-.353.264-.528.706 0 2.379-1.146 2.996-1.498-.264 1.232-1.233 1.059-1.497 1.673-.617.178-1.146.267-1.763.353zm-1.057-3.435c.702-.529.882-.703 1.057-.703.264 0 .264 0 .353.264.44-.264 1.231-.441 1.673-.441-1.057.441-2.379 1.233-2.996 1.41.088-.086.795-.529.969-.703-.175-.092-.527-.179-1.056.173zm-.88 3.613c-.179.085-.268.349-.706.264.264-.086.617-.264.793-.795.087-.528.441-1.145 1.145-1.583.882-.442 2.379-.882 3.612-1.41-.089.528-2.996 1.497-3.436 1.847-.704.532-.88 1.059-1.408 1.677zM32.968 93.717c.353.353.702.616.793.703.528.089.793.089 1.323.089.349.353.702.178 1.495.178 1.233.968 1.233.615 2.115.441-.44-.264-1.233-1.146-2.115-1.85-.613-.793-.44-1.584-.529-2.29-.175.353-.175 1.145-.175 1.762.175.617.528 1.057.528 1.499-.176.176-1.233.176-1.408-.265-.706-1.762-.706-1.586-.793-3.259-.18 1.498-.18 1.058.349 3.084-.176.265-.966.442-1.321-.264-.353-.703-.617-2.292-.793-2.643.003.701.531 2.022.531 2.815zM52.172 35.665c0 1.939 1.056 4.581 3.26 4.581 1.056 0 2.554.53 3.607.53.353 0 2.559-1.499 2.559-1.849"/></g><g fill="#939598"><path d="M278.918 144.194l-1.145.352-2.375-.793.529-5.112c-.088-.44-.354-.794-.354-1.233 0-.703.442-1.231.354-2.112-1.061-6.345-2.996-17.618-3.877-21.583l8.28.086c.086.532.086 1.06.086 1.676-.086 1.673-.177 5.197-.265 8.721l-1.233 19.998z"/><path d="M279.977 126.487l-.707-10.308-.262-2.375h1.762zM278.918 144.194l-1.145.352-2.377-.793.442-4.315-1.499 5.461 1.586 4.227 1.673.178 1.056-1.234zM277.509 56.807h-10.303l-.529 1.06.702 2.554.793 2.729-.348 2.465-1.499 7.753v4.405s-1.586 9.602-1.586 10.482c0 .882.793 3.085.793 3.085l.268 1.41-.268 4.051-.793-.704-.176-2.993-.704 2.643 1.232 2.993-3.7-2.728-.179-4.141s1.061-2.026 1.145-3.7c.088-1.676-1.23-8.192-.617-14.271.533-5.286.441-13.568.705-16.034.088-.794.088-1.675.088-2.556-.797-1.145-2.465-2.026-2.379-3.435.089-1.322 2.645-1.583 2.731-2.907.086-1.322-2.114-1.849-2.294-3.084-.085-.703 1.586-.441 1.762-1.145.18-.617-.792-1.06-1.056-1.676-.089-.264 0-.618.086-.793.35-.265 1.322-.177 1.322-.617-.089-.617-1.233-.703-1.408-1.322-.181-.88-.089-2.026.616-2.557.439-.35 1.145.882 1.673.706.882-.353 2.027-1.058 1.938-2.027-.083-.879-2.11-.703-2.29-1.673-.263-1.323.353-2.907 1.234-3.789.704-.705 1.938-.088 2.906-.353.704-.176 1.497-.441 1.938-1.145.616-.88 0-2.643.969-3.17 1.675-.793 3.612-.968 5.462-.793l1.766 31.277z"/><path d="M277.422 54.164h-5.285v-.085l-1.146-6.695-3.876 2.554 1.234 4.669-1.675 3.26.701 2.554c1.233 2.821 4.934 6.343 3.435 8.986-.964 1.762-2.817 11.452-2.817 12.774 0 1.85-2.555 10.395-1.41 17.264 1.321 7.665.177 14.185 1.497 14.271l12.687.089.088-.178-3.433-59.463zM272.929 42.183c.793.264 1.323 1.059 2.206 1.234.528.178 1.056.178 1.674.086l-.794-13.567c-2.114.087-4.23.794-5.374 2.465-.616.969-.176 4.756.176 5.991.174.355 1.495 3.615 2.112 3.791z"/></g><g fill="none" stroke="#000" stroke-width=".5"><path d="M279.8 137.058s.353 4.316.267 3.966v2.729l-2.293.793-2.375-.793.529-5.112c-.088-.44-.354-.794-.354-1.233 0-.703.442-1.231.354-2.113-1.061-6.345-2.996-17.618-3.877-21.583l8.28.089c.086.529.086 1.057.086 1.673-.177 3.7-.44 16.297-.529 18.059-.088 1.852-.088 3.172-.088 3.525z"/><path d="M284.117 142.255l.349 1.762-.349 1.583.701 2.994-2.464 1.763-1.942-1.763.353-3.083-.089-1.499.353-2.379-.177-3.523-1.586-21.934-.264-2.379 8.28.089c.264 1.323.264 2.643-.089 4.23-.347 1.764-3.164 22.642-3.076 24.139z"/><path d="M279.888 138.379s.266 2.995.179 2.644v2.729l-2.292.793-2.376-.793.44-4.319-1.498 5.464 1.586 4.229 1.674.179 2.818-3.348v-4.229l.089-2.115-.62-1.234zM284.382 144.81l-.265.792.705 2.994-2.466 1.764-1.939-1.764.353-3.433-1.5 4.758 2.115 4.139h1.673l2.996-3.875zM286.672 60.947l.701-3.083-.439-1.06H267.2l-.533 1.06.706 2.554.793 2.729-.349 2.465-1.498 7.753v4.405s-1.586 9.603-1.586 10.483c0 .882.792 3.085.792 3.085l.269 1.41-.269 4.051-.792-.704-.176-2.993-.705 2.643 1.233 2.993-3.701-2.728-.179-4.141s1.061-2.026 1.145-3.7c.089-1.676-1.23-8.192-.616-14.271.532-5.286.441-13.569.705-16.034.088-.794.088-1.675.088-2.556-.797-1.145-2.465-2.026-2.379-3.435.088-1.322 2.644-1.584 2.728-2.907.089-1.322-2.111-1.85-2.29-3.084-.085-.703 1.586-.441 1.762-1.145.18-.617-.792-1.06-1.056-1.676-.089-.264 0-.618.085-.794.35-.264 1.323-.175 1.323-.615-.089-.617-1.233-.703-1.408-1.322-.182-.88-.089-2.026.616-2.556.439-.351 1.145.881 1.672.705.882-.353 2.028-1.058 1.938-2.027-.082-.88-2.109-.703-2.29-1.673-.263-1.323.353-2.907 1.234-3.789.703-.704 1.938-.089 2.907-.353.703-.177 1.497-.441 1.938-1.144.615-.881 0-2.643.968-3.171 2.114-.968 4.668-1.06 6.961-.528.967.176.703 1.938 1.497 2.464.616.264 1.409-.704 2.026-.529 1.408.44 2.905.969 3.698 2.114.441.703-.7 1.583-.615 2.376.179.882 1.232 1.412 1.496 2.292.089.35-.528.703-.347.967 1.056 1.235 2.989 1.675 3.698 3.172.353.795-.88 1.676-.88 2.643 0 .704.264 1.584.88 1.94.617.352-.18.264.617.086 0 0-.181.616-.089 1.323.265 1.583 2.292 2.379 2.643 3.965.089.618-1.849.528-1.585 1.145.533 1.584 2.643 2.205 3.349 3.702.265.528-.528.967-.704 1.496l-1.145.53c.179 1.762.441 3.874.529 5.636.266 3.702 1.146 9.338 1.146 9.338l2.375 4.933s2.378 10.397 2.293 12.159c-.087 1.847-.44 7.576-.44 7.576l-1.761 2.993s-2.026 1.146-2.203 1.233c-.268.176-.969 0-.441-.353.528-.44 1.674-1.322 1.674-1.322l-2.729.885 2.026-1.585-2.29.528 1.674-1.145-1.058-.349 1.938-.268-.087-2.464.353-2.555s2.026-1.145.615-5.11c-1.408-3.965-4.229-7.49-6.254-11.541-1.409-4.316-2.464-7.927-3.347-10.834l.884-2.288z"/><path d="M282.796 69.492c1.323-2.907 2.554-5.729 3.876-8.545l.701-3.083-1.582-3.702h-.616l1.145-3.171-3.607-2.731-1.061 5.902h-9.515v-.085l-1.146-6.695-3.876 2.554 1.234 4.669-1.675 3.26.701 2.554c1.233 2.82 4.934 6.342 3.435 8.985-.964 1.762-2.817 11.452-2.817 12.774 0 1.85-2.555 10.395-1.41 17.264 1.321 7.662.177 14.185 1.497 14.271l19.997.178c11.981.179 3.085-18.589 2.115-29.159-.265-2.464-1.762-4.754-2.822-7.048-1.405-2.819-3.076-5.462-4.574-8.192zM272.929 42.183c.793.264 1.323 1.059 2.206 1.234.881.264 1.847.086 2.729 0 .88 0 2.29-.618 2.643-1.058 1.145-1.585 1.145-4.583 1.145-6.874 0-1.762.089-3.874-1.497-4.669-2.82-1.41-7.576-1.322-9.515 1.584-.617.969-.177 4.757.175 5.991.176.356 1.497 3.616 2.114 3.792zM296.714 91.691l-.969 2.291-.177 1.937-1.057.793v-.97"/><path d="M294.952 97.68l1.234-2.202-.264-1.761M273.721 42.623c0 1.322-.35 2.821-1.145 3.61-.353.353-1.059 1.499-1.497 1.499M279.977 42.714c.087 1.321.529 2.29.793 3.521.179.794 1.145 2.114 1.85 2.114M262.534 55.309c.266-1.409 1.322-2.728 2.203-3.701.18-.087.882-.968 1.145-.968.181 0 1.062-.703 1.233-.703"/></g><g fill="none" stroke="#000" stroke-width=".5"><path d="M113.748 275.362c0 1.145-.089 2.557-.089 4.051 0 2.468-1.323 2.379-2.466 3.438-2.818 2.642-5.551-1.41-7.487-2.027-.264-.088-.353 0-.528 0-1.061 0-2.379-3.173-.617-3.701 0 .089.175.266.44.354 0-.706 1.146-2.205.969-2.379-.529-.528.441-2.026.441-2.821 0-.439.44-.35.528-.53.085-.526 1.321-1.408 1.583-1.408h2.73c.529.969 3.347-.53 3.347 1.146 0 .793.532.967.882 1.584.089.265.268.968.268 1.585l-.001.708z"/><path d="M103 277.477c-.613-.264-.613-.53-.613-1.233s.175-1.584.175-2.112c0-.44-.175-1.848.44-1.848 0-.796-.085-1.149.353-1.586.18-.177.353-.704.441-.793.176-.179.617-.353.793-.53.264-.178.353-.615.882-.615.175 0 .264-.352.441-.441.179-.091 1.147-.178 1.411-.091.44 0 .882-.176 1.321-.176.617 0 .793.267 1.41.267.706 0 .618.177 1.061.35.175.088.701.177.701.353s.528.616.618.616l.441.794c.349.353.528.616.528 1.145 0 .176.353.44.353.794 0 .086-.089.703 0 .703.176.44.349.703.349 1.234 0 .44-.264.966-.264 1.23 0-.616-.176-1.939-.352-2.465-.35-.617-.882-.792-.882-1.584 0-1.676-2.819-.177-3.348-1.146h-2.73c-.264 0-1.497.882-1.582 1.408-.089.181-.528.089-.528.533 0 .792-.969 2.29-.441 2.818.168.171-.978 1.668-.978 2.375zM103.531 280.823c.613 1.146.175 4.229 1.057 5.111.528.529 1.321 1.146 1.586 1.762.44.883.349 1.849.702 2.555.969 0 2.554-1.497 3.436-1.847.796-.44 1.85-1.585 1.85-2.379-.264 0-.528-.178-.792-.265-.353-.178-.353-1.762-.353-2.729-2.73 2.291-5.46-1.584-7.312-2.205h-.089l-.085-.003z"/><path d="M103.531 280.91c-.353 0-1.851.795-2.115 1.059-.528.882-2.907 1.233-3.7 2.026-1.497 1.497-2.114 3.26-3.087 5.197-.617 1.323-2.025 3.703-2.025 5.021-.264.264-.529.793-.702 1.06-.18.438.265.529.349.793.264.527.088 1.408.441 1.761.618.617 1.145-.178 1.762-.616l.175-.087.088-.085c.177-.089.264-.089.44-.089h.089l.88-.086c.617-.085 1.321-.178 1.763-.085.088.085.176.085.264.175a.702.702 0 0 1 .353.353c.352.44.701.881 1.498.528 1.229-.617 4.669 1.497 4.137 2.026-.265.265-1.321 0-1.23 0 .881 0 2.727 1.584.702 1.584l-1.938-1.059 2.201 1.231c.089.179.089.089.089.179h.087c.085.087.085.352 0 .352h-.087c0 .179-.617.179-.793.179-.089 0-.617-.089-.617-.179-.528 0-1.059-.352-1.498-.793.176.528.44.44.88.617.176.085.706.176.706.439 0 .703-.706.528-1.148.352-.265-.087-.529-.087-.793-.264-.176-.088-.353-.529-.44-.704 0 .086.176.264.176.264 0 .353.528.617.792.704.18.087.18.53-.176.53-.441 0-.353 0-.617-.266-.265-.265-.618-.44-.969-.702-.176-.089-.44-.267-.615-.352-.178-.089-.351-.179-.53-.179-.264-.179-.44-.352-.702-.53-.18 1.323-.18 2.644-.18 3.612 0 .882-.264 2.375-.44 3.256-.353 2.115.617 3.788-.089 5.993 1.499-1.145 6.875-4.053 8.9-4.053 2.026 0 3.608.265 5.551.882.702.177 3.436 1.584 3.873 1.584.353-.967.794-2.027 1.061-2.908.085-.44.44-.881.44-1.322 0-.18-.089-.882-.089-.882a3.738 3.738 0 0 0-.264-.615c-.085-.089-.176-.265-.176-.265a2.719 2.719 0 0 1-.441-.617.95.95 0 0 1-.264-.615v-.616l.264-.264c-.702.176-1.408.176-1.938-.089-2.115-1.058.881-.793 1.674-.793-.44 0-2.728.179-2.728-.352 0-.178 0-.44.085-.617.087-.085.441-.085.617-.085.617 0 1.586.177 1.586.085.089-.264-1.85.179-2.466-.085-.085-.088.088-.267 0-.353-.085-.088.088-.44.088-.44.44 0 .969.088 1.409.088-.353-.179-1.846.086-1.846-.53 0-.087.083-.44.176-.44.087 0 .352-.088.352-.088 0-.086.702-.086.881-.086.085 0 .702-.529.793-.615 0 0-.177-.179-.264-.179l-.264-.265c0-.087-.353-.441-.441-.265-.085 0-.176.178-.264.265-.175.085-.44.178-.702.178-.262 0-.706 0-.706-.352 0-.265.441-.529.618-.793.088 0 .441-.531.528-.531.264-.085.441-.177.706-.177.264 0 .529.266.793.352.528 0 .793.703 1.057.969.267.264 1.148-.088 1.233 0 .528.264.617.264 1.233.264.089 0 .969.793 1.057.881.353.265.353.351.353.616.528-.088.704-2.908.353-2.993-1.673-.882-.882-2.908-.882-4.935 0-1.058-.441-1.146-.441-1.761 0-.703-.882-.794-1.495-.882-.532 0-.617-.616-.969-1.058-.441-.528-.97-.967-.97-1.409v-.176h.089c.089 0 0-.087 0-.087l.089-.086v-.261h.085c0-.087.089-.087.089-.18-.882.089-1.41-1.408-1.938-1.938 0 0-.18-.529-.264-.615-.441-.617-1.145-1.675-2.025-1.675l-.089.088c0 .967 0 2.555.353 2.729.264.087.528.265.792.265 0 .794-1.056 1.94-1.85 2.379-.882.35-2.464 1.847-3.436 1.847-.353-.703-.264-1.673-.702-2.557-.268-.613-1.061-1.23-1.586-1.76-.793-.794-.529-3.7-.969-4.934l-.09-.088z"/><path d="M94.015 297.649l.617-.529.618-.177 1.85-.178h.793c.618 0 .882 1.675 2.115 1.058 1.229-.616 4.669 1.497 4.141 2.026-.269.266-1.323 0-1.234 0 .881 0 2.727 1.584.702 1.584l-1.938-1.059 2.201 1.232c.089.179.089.086.089.179h.087c.085.086.085.352 0 .352h-.087c0 .178-.617.178-.793.178-.089 0-.617-.088-.617-.178-.528 0-1.057-.352-1.498-.793.176.527.441.44.88.614.176.087.706.179.706.441 0 .703-.706.528-1.147.353-.267-.088-.53-.088-.794-.264-.176-.089-.353-.532-.44-.704 0 .086.176.264.176.264 0 .352.528.616.792.704.18.084.18.529-.176.529-.441 0-.353 0-.617-.266-.265-.264-.618-.441-.969-.703-.176-.087-.44-.265-.614-.35-.179-.089-.352-.179-.531-.179-1.669-1.227-3.078-2.637-4.312-4.134zM119.386 301.084c0-.353 0-.441-.353-.704-.085-.087-.966-.879-1.057-.879-.617 0-.704 0-1.233-.266-.085-.087-.966.266-1.233 0-.264-.265-.529-.968-1.057-.968-.264-.086-.528-.351-.793-.351-.264 0-.441.087-.705.176-.084 0-.44.531-.528.531-.176.264-.618.527-.618.793 0 .352.442.352.706.352.264 0 .529-.087.702-.178.089-.086.18-.265.264-.265.089-.178.441.179.441.265l.264.264c.088 0 .264.179.264.179-.087.087-.706.616-.793.616-.179 0-.882 0-.882.086 0 0-.264.089-.352.089-.089 0-.176.351-.176.44 0 .616 1.494.352 1.846.53-.44 0-.966-.087-1.408-.087 0 0-.176.351-.089.44.089.087-.085.266 0 .353.617.265 2.558-.179 2.466.087 0 .086-.969-.087-1.586-.087-.176 0-.529 0-.615.087-.086.178-.086.44-.086.615 0 .53 2.29.352 2.728.352-.793 0-3.789-.263-1.673.793 1.944.965 5.556-1.236 5.556-3.263z"/><path d="M98.509 285.844c.617 1.233-.441 4.582-.441 6.077 0 1.851.264 3.261.264 5.2M114.894 294.036v4.404M114.629 312.448c-.615 1.763-1.412 3.521-2.822 4.668-.7.614-1.673 1.06-2.201 2.113-.089.353-.882.704.085.968 1.586.44 2.732 1.234 3.173 2.73.178.614.441 1.146 1.146 1.411 1.23.526 2.554 1.672 3.52 3.257.18.267.882.441.969.794 0 .177.089.352.264.352.264.088 1.061-.179 1.499-.088.179.088.706.353.706.44.176.264.349.088.349.441 0 .703 0 1.06-.265 1.584 0 1.498-4.581 8.107-6.516 6.167-.441-.44-.179-2.38-.882-2.644-.353-.177-.705-.881-1.144-1.058-1.233-.615-2.467-2.291-3.704-3.086 0 .795.706 4.055 1.233 4.582 1.233 1.147-1.146 3.79.353 5.371.617.53.882 1.763 1.234 2.467.175.44.084 1.408.084 1.847-.702.265-1.408.796-2.11 1.412-1.323 1.146-2.643 1.495-3.876 1.058-.793-.266-1.498-.266-2.204-.441-.703-.178-.794-.703-.703-1.763.264-5.371-.529-10.567-2.026-15.502-1.672-5.372-2.554-10.661-2.996-16.032 2.115-1.323 6.342-3.436 8.019-3.436 2.026 0 3.608.264 5.551.88.528.088 1.938.881 2.992 1.232l.272.276z"/><path d="M105.027 311.832c-1.494 1.938-3.347 4.847-4.136 7.754-.441 1.409-.882 2.729-.441 3.966.793 2.464 2.466 2.376 3.876 3.788.44.44 2.554 1.408 3.083 1.674.352.178 1.145 1.497 1.323 1.497M121.059 331.122l.089-.085c.353.881 1.672 1.233 1.672 2.026 0 1.059 0 1.232-.264 2.025-.176.53-.792 1.234-1.145 1.676-.44.703-.264 1.409-.528 2.026-.705 1.409-3.259 4.051-5.109 4.051-1.323 0-.705-1.497-.705-2.202 0-1.061-.264-2.292-.176-3.086 2.027.968 6.079-4.846 6.166-6.431zM101.768 352.706c1.229 0 3.083-1.059 4.138-1.41.88-.264 1.677-1.583 2.294-2.378.176-.265.7-.35 1.057-.528.706-.354 2.026-.796 2.554-.796.969 0-.175-2.112-.264-2.729-.616.266-1.321.796-1.937 1.323-1.323 1.146-2.643 1.497-3.876 1.059-.793-.266-1.41-.266-2.115-.353-.349.531-1.145.882-1.674 1.413-.704.7-1.497 1.408-1.497 2.639 0 .441.179.706.352.97.088.173.879.702.968.79z"/></g><g stroke="#000" stroke-width=".5"><path fill="#939598" d="M318.033 275.362c0 1.145-.085 2.557-.085 4.051 0 2.468-1.323 2.379-2.467 3.438-2.819 2.642-5.55-1.41-7.488-2.027-.263-.088-.353 0-.527 0-1.063 0-2.38-3.173-.706-3.701.089.089.266.266.528.354 0-.706 1.146-2.205.969-2.379-.526-.528.44-2.026.44-2.821 0-.439.441-.35.53-.53.085-.526 1.322-1.408 1.584-1.408h2.731c.527.969 3.347-.53 3.347 1.146 0 .793.528.967.881 1.584.089.265.265.968.265 1.585l-.002.708z"/><path fill="#939598" d="M307.284 277.477c-.616-.264-.616-.53-.616-1.233s.181-1.584.181-2.112c0-.44-.181-1.848.439-1.848 0-.796-.084-1.149.353-1.586.178-.177.353-.704.44-.793.179-.179.616-.353.796-.53.265-.178.351-.615.881-.615.177 0 .264-.352.439-.441.181-.091 1.146-.178 1.412-.091.441 0 .879-.176 1.323-.176.617 0 .794.267 1.41.267.703 0 .616.177 1.059.35.178.088.703.177.703.353s.528.616.615.616l.44.794c.353.353.53.616.53 1.145 0 .176.352.44.352.794 0 .086-.086.703 0 .703.179.44.352.703.352 1.234 0 .44-.265.966-.265 1.23 0-.616-.176-2.027-.353-2.465-.352-.617-.881-.792-.881-1.584 0-1.676-2.818-.177-3.347-1.146h-2.731c-.266 0-1.498.882-1.582 1.408-.088.181-.532.089-.532.533 0 .792-.964 2.29-.439 2.818.166.171-.979 1.668-.979 2.375zM307.813 280.823c.615 1.146.179 4.229 1.061 5.111.527.529 1.319 1.146 1.582 1.762.441.883.352 1.849.703 2.555.966 0 2.557-1.497 3.437-1.847.704-.44 1.849-1.585 1.849-2.379-.264 0-.531-.178-.795-.265-.35-.178-.35-1.762-.35-2.729-2.729 2.291-5.464-1.584-7.312-2.205h-.088l-.087-.003z"/><path fill="#939598" d="M307.813 280.91c-.35 0-1.847.795-2.111 1.059-.533.882-2.907 1.233-3.704 2.026-1.497 1.497-2.109 3.26-3.081 5.197-.618 1.323-2.028 3.703-2.028 5.021-.265.264-.528.793-.704 1.06-.176.438.265.529.354.793.264.527.086 1.408.441 1.761.614.617 1.146-.178 1.76-.616l.181-.087.087-.085c.176-.089.265-.089.44-.089h.086l.883-.086c.615-.085 1.321-.178 1.763-.085.082.085.175.085.264.175a.7.7 0 0 1 .352.353c.349.44.7.881 1.493.528 1.233-.617 4.671 1.497 4.141 2.026-.265.265-1.321 0-1.232 0 .881 0 2.73 1.584.704 1.584l-1.938-1.059 2.201 1.231c.088.179.088.089.088.179h.089c.084.087.084.352 0 .352h-.089c0 .179-.616.179-.792.179-.089 0-.616-.089-.616-.179-.53 0-1.062-.352-1.497-.793.175.528.438.44.88.617.176.085.702.176.702.439 0 .703-.702.528-1.146.352-.265-.087-.528-.087-.792-.264-.177-.088-.353-.529-.441-.704 0 .086.178.264.178.264 0 .353.527.617.791.704.181.087.181.53-.175.53-.441 0-.353 0-.616-.266-.266-.265-.617-.44-.97-.702-.177-.089-.44-.267-.616-.352-.177-.089-.35-.179-.529-.179-.264-.179-.439-.352-.702-.53-.179 1.323-.179 2.644-.179 3.612 0 .882-.353 2.375-.44 3.256-.353 2.115.616 3.788-.087 5.993 1.497-1.145 6.87-4.053 8.898-4.053 2.026 0 3.61.265 5.548.882.705.177 3.438 1.584 3.876 1.584.353-.967.792-2.027 1.056-2.908.09-.44.441-.881.441-1.322 0-.18-.088-.882-.088-.882-.084-.263-.176-.441-.264-.615a1.224 1.224 0 0 1-.177-.265 2.6 2.6 0 0 1-.441-.617.955.955 0 0 1-.264-.615v-.616l.264-.264c-.7.176-1.409.176-1.938-.089-2.113-1.058.793-.793 1.674-.793-.44 0-2.728.179-2.728-.352 0-.266 0-.44.085-.617.089-.085.441-.085.616-.085.617 0 1.586.177 1.586.085.084-.264-1.85.179-2.467-.085-.088-.088.089-.267 0-.353-.088-.088.089-.44.089-.44.439 0 .968.088 1.409.088-.352-.179-1.851.086-1.851-.53 0-.087.089-.44.179-.44.091 0 .354-.088.354-.088 0-.086.701-.086.881-.086.086 0 .701-.529.795-.615 0 0-.182-.179-.266-.179l-.265-.265c0-.087-.352-.441-.441-.265-.089 0-.176.178-.265.265a1.7 1.7 0 0 1-.705.178c-.264 0-.7 0-.7-.352 0-.265.44-.529.615-.793.085 0 .44-.531.53-.531.264-.085.438-.177.704-.177.264 0 .529.266.794.352.527 0 .792.703 1.056.969.265.264 1.146-.088 1.233 0 .528.264.617.264 1.233.264.084 0 .966.793 1.057.881.353.265.353.351.353.616.529-.088.702-2.908.354-2.993-1.679-.882-.882-2.908-.882-4.935 0-1.058-.441-1.146-.441-1.761 0-.703-.881-.794-1.499-.882-.526 0-.616-.616-.964-1.058-.442-.528-1.061-.967-1.061-1.409h.087v-.176h.089c.084 0 0-.087 0-.087l.084-.086v-.261h.089c0-.087.088-.087.088-.18-.88.089-1.41-1.408-1.942-1.938 0 0-.176-.529-.265-.615-.438-.617-1.144-1.675-2.024-1.675l-.085.088c0 .967 0 2.555.349 2.729.264.087.528.265.796.265 0 .794-1.148 1.94-1.849 2.379-.881.35-2.468 1.847-3.438 1.847-.352-.703-.263-1.673-.703-2.557-.267-.613-1.058-1.23-1.582-1.76-.797-.794-.532-3.7-.97-4.934l-.09-.088z"/><path fill="#939598" d="M298.3 297.649l.618-.529.614-.177 1.847-.178h.799c.615 0 .88 1.675 2.108 1.058 1.233-.616 4.67 1.497 4.14 2.026-.264.266-1.32 0-1.231 0 .88 0 2.73 1.584.704 1.584l-1.938-1.059 2.201 1.232c.088.179.088.086.088.179h.086c.087.086.087.352 0 .352h-.086c0 .178-.617.178-.792.178-.089 0-.616-.088-.616-.178-.532 0-1.063-.352-1.497-.793.175.527.438.44.88.614.176.087.702.179.702.441 0 .703-.702.528-1.147.353-.264-.088-.527-.088-.791-.264-.177-.089-.354-.532-.441-.704 0 .086.179.264.179.264 0 .352.527.616.791.704.181.084.181.529-.175.529-.441 0-.353 0-.616-.266-.266-.264-.617-.441-.97-.703-.177-.087-.44-.265-.616-.35-.177-.089-.35-.179-.529-.179-1.67-1.227-3.08-2.637-4.312-4.134zM323.67 301.084c0-.353 0-.441-.353-.704-.087-.087-.969-.879-1.057-.879-.616 0-.705 0-1.233-.266-.088-.087-.969.266-1.233 0-.264-.265-.528-.968-1.056-.968-.265-.086-.53-.351-.794-.351-.269 0-.441.087-.704.176-.089 0-.44.531-.53.531-.179.264-.615.527-.615.793 0 .352.44.352.704.352.263 0 .529-.087.701-.178.089-.086.176-.265.265-.265.089-.178.441.179.441.265l.265.264c.085 0 .266.179.266.179-.09.087-.706.616-.795.616-.18 0-.881 0-.881.086 0 0-.266.089-.354.089-.086 0-.179.351-.179.44 0 .616 1.499.352 1.851.53-.441 0-.97-.087-1.409-.087 0 0-.18.351-.089.44.089.087-.087.266 0 .353.617.265 2.555-.179 2.467.087 0 .086-.969-.087-1.586-.087-.175 0-.527 0-.616.087-.085.178-.085.35-.085.615 0 .53 2.291.352 2.728.352-.881 0-3.787-.263-1.674.793 1.941.965 5.555-1.236 5.555-3.263z"/><path fill="none" d="M302.793 285.844c.611 1.233-.441 4.582-.441 6.077 0 1.851.264 3.261.264 5.2M319.177 294.036v4.404"/><path fill="#939598" d="M318.914 312.448c-.618 1.763-1.41 3.521-2.819 4.668-.704.614-1.675 1.06-2.206 2.113-.084.353-.881.704.088.968 1.498.44 2.729 1.234 3.171 2.73.181.614.441 1.146 1.145 1.411 1.234.526 2.561 1.672 3.524 3.257.181.267.881.441.97.794 0 .177.089.352.264.352.264.088 1.056-.179 1.499-.088.175.088.7.353.7.44.179.264.352.088.352.441 0 .703 0 1.06-.264 1.584 0 1.498-4.581 8.107-6.52 6.167-.44-.44-.176-2.38-.878-2.644-.351-.177-.703-.881-1.148-1.058-1.229-.615-2.464-2.291-3.699-3.086 0 .795.705 4.055 1.234 4.582 1.231 1.147-1.146 3.79.352 5.371.615.53.88 1.763 1.229 2.467.18.44.089 1.408.089 1.847-.702.265-1.41.796-2.115 1.412-1.32 1.146-2.643 1.495-3.872 1.058-.797-.266-1.497-.266-2.205-.441-.702-.178-.793-.703-.702-1.763.264-5.371-.53-10.567-2.026-15.502-1.678-5.372-2.558-10.661-2.995-16.032 2.115-1.323 6.343-3.436 8.018-3.436 2.024 0 3.611.264 5.549.88.532.088 1.942.881 2.995 1.232l.27.276z"/><path fill="none" d="M309.31 311.832c-1.496 1.938-3.346 4.847-4.141 7.754-.438 1.409-.88 2.729-.438 3.966.792 2.464 2.464 2.376 3.875 3.788.44.44 2.554 1.408 3.083 1.674.353.178 1.146 1.497 1.233 1.497"/><path fill="#939598" d="M325.344 331.122l.088-.085c.354.881 1.673 1.233 1.673 2.026 0 1.059 0 1.232-.264 2.025-.175.53-.793 1.234-1.145 1.676-.441.703-.265 1.409-.527 2.026-.706 1.409-3.26 4.051-5.112 4.051-1.319 0-.7-1.497-.7-2.202 0-1.061-.266-2.292-.18-3.086 2.024.968 6.078-4.846 6.167-6.431zM306.05 352.706c1.233 0 3.088-1.059 4.14-1.41.883-.264 1.676-1.583 2.292-2.378.18-.265.705-.35 1.062-.528.7-.354 2.024-.796 2.554-.796.969 0-.18-2.112-.265-2.729-.615.266-1.323.796-1.941 1.323-1.32 1.146-2.643 1.497-3.872 1.059-.797-.266-1.41-.266-2.114-.353-.353.531-1.146.882-1.674 1.413-.705.7-1.497 1.408-1.497 2.639 0 .441.176.706.352.97.082.173.878.702.963.79z"/></g><g fill="none" stroke="#000" stroke-width=".5"><path d="M-27.638 275.45c-.882 0-.618-2.114-.265-3.703.353-.527.966-2.025.44-2.556.441-2.465 3.172-3.786 5.993-3.699.617.086 1.145-.087 1.674-.087 1.938 0 4.141 2.201 4.58 4.23-1.41.265-.353 1.938.087 2.465 0 .441-.087.881-.264 1.232-1.145 2.29-1.41-1.145-1.762-1.849-.18-.354.087-1.059 0-1.499-.18-.88-.793-1.672-2.207-1.672-.613 0-1.321.086-2.11.086-.441 0-.969-.18-1.41 0-.353.085-.706.085-.969.177a3.268 3.268 0 0 0-1.586.705c-.349.263-.702.526-.882.966-.175.616.264 2.378-.349 2.729l-.97 2.475z"/><path d="M-27.904 271.748c.353-.526 1.322-2.642-.087-2.642-2.907 0-2.819 2.024-3.26 4.669-.264 1.323.18 1.763 0 2.729-.528 2.643-1.762 2.203-3.259 1.145.18.439 1.498 2.028 1.762 2.028 1.234 0 2.026.086 2.643-.881.617-.88 1.677-2.203 1.677-3.259-.003-.528.084-3.789.524-3.789zM-10.02 280.03c-2.111 0-4.489 1.146-4.489-2.111 0-1.322.353-4.936-.528-5.814-.441-.44-1.586-2.204-.18-2.466 2.025-1.146 4.583 3.173 3.436 5.901-.349.615-.614 2.026.087 2.728.44.44.881 1.851 1.674 1.762z"/><path d="M-15.746 273.953c-.792.881-1.145-1.849-1.408-2.466-.18-.354.087-1.058 0-1.498-.18-.881-.793-1.672-2.207-1.672-.613 0-1.321.086-2.11.086-.441 0-.969-.18-1.41 0-.353.085-.706.085-.969.177a3.259 3.259 0 0 0-1.586.705c-.349.263-.702.526-.882.966-.175.616.264 2.378-.349 2.73l-.969 2.465v.793c0 .353.264.881.352 1.146.085.178.176.352.264.44 0 0 .176.179.264.179h.44c.18.88 1.061 2.642 2.467 2.992.44.089.793.616 1.145.705 1.234.352 2.29.177 3.608-.795 1.148-.703 1.677-3.349 3.087-3.349.264 0 .353-.353.44-.53.353-.441.353-1.057.353-1.585v-1.23c-.265-.259-.001-.259-.53-.259z"/><path d="M-19.624 286.108c0-1.057.18-1.584.797-2.202.529-.616 1.847-1.497 1.847-2.293-.616 0 .088-2.993.179-3.698-.882.702-1.41 2.466-2.291 2.992-1.323.968-2.379 1.146-3.612.795-.353-.089-.706-.616-1.145-.703-.18-.088-.264-.088-.441-.179-.528 1.233 1.233 2.908 1.762 3.437 0 0 .441.616.533.616.61.002 2.108.707 2.371 1.235z"/><path d="M-24.379 280.648h-.528c-.268 0-1.148.702-1.148.967-.176.441-.085 1.234-.085 1.676-.882.44-2.026 1.06-2.996 2.291-.617.702-1.499 1.41-1.499 2.727.089 2.207.353 4.492.353 6.61.264 1.234.264 3.086 1.146 4.229.264.442.617 1.145.969 1.584.264.265 1.762.086 2.201.086.706.706.617 3.087.353 4.056-.264.882-.353 1.494-.353 2.554 0 .968.353 1.849.353 2.729.264-.087.793-1.145 1.057-1.495 2.907-3.877 8.192 3.256 10.306 1.145 1.938-1.941 5.551-2.114 8.192-2.114 0 0-.441-1.231-.528-1.409-.441-.797-1.233-1.941-1.233-2.906 0-2.38-2.468-4.054-2.468-6.695.089.177.882.967 1.146.967 1.499 0 2.026-.44 2.643-1.674.264-.616.353-1.763.353-2.557 0-.088-.089-.618-.175-.618 0 0-.529-1.144-.529-1.321-.18-.528-.532-.882-.88-1.232-.18-.264-.97-.441-.97-.703 0-3.609-.618-7.663-5.112-7.663 0-.087-.176-.529-.176-.529-.353 0-.617 0-.792-.085-.264-.179-.881-1.323-1.145-1.585-.089-.089-.882-.267-1.061-.267l-.085.089c-.18 1.058-.268 2.111.085 2.111 0 .796-1.321 1.677-1.848 2.291-.616.616-.796 1.147-.796 2.204-.264-.527-1.762-1.231-2.376-1.231-.086 0-.53-.617-.53-.617-.528-.527-2.29-2.112-1.762-3.347l-.082-.268z"/><path d="M-25.789 293.596c.264.617.793 1.763 1.495 1.763.796 0 .969-.795.969.178 0 1.231-.792 2.205-1.233 3.257-.264.704-.529 1.939-1.321 1.939M-10.989 293.948v.266c.085.086.176.529.264.615 0 .088.088.178.088.266 0 0 .084.441.084.528 0 .265.18 1.06.353 1.323"/><path d="M-20.679 290.072c.175-.612-2.555-.349-2.996-.264-2.907.53-2.201 2.643-1.673 4.756.089.617.969.881 1.499.702.353-.085.617-.439.793-.793h.705c.084 0 .264-.264.177-.352h-.264c-.793 0 .617.088.792-.086.969-.968-.528-.882-1.145-.882-.085 0 1.145 0 1.762-.178.528-.179.441-.616-.085-.616h-1.233c-.087 0-1.145-.177-.441-.177s2.558.614 2.558-.53c-.18-.264-.441-.35-.706-.441-.44-.085-.88-.085-1.233-.085-.264 0-.44 0-.617-.089-.176 0-.176-.085-.176-.264s1.321 0 1.582-.088c.172.004.612-.525.701-.613z"/><path d="M-25.437 293.51c0 .175.353.44.441.614.089.178.882.352 1.057.352.179.086.441 0 .528 0h.353M-10.372 296.681c-.353-.796-.617-1.676-.617-2.557M-7.995 293.068c.18.88.268 1.849-.88 1.849-.702 0-1.495-.795-1.495-1.497 0-.969-.705-.088-1.144-.441-.533-.529-.353-.617.44-.617.882 0-.617-.085-.793-.085-.528 0-.969-.354-.528-.705.085-.177 1.762-.084 1.674-.084h-.705c-.351 0-.702-.089-.965-.089-.881 0-.617 0-.617-.617 0-.264 1.321-.176 1.582-.176h.528c.353 0-2.111.085-2.111-.263 0-.971.617-.882 1.499-.882.792 0 .792-.881-.441-.441-1.146.352-1.146-.088-1.673-.793.967.084 1.498-.53 2.554-.53.792 0 1.938 1.146 2.205 1.764.254.435.87 3.433.87 3.607zM-25.26 309.806c0 1.495.264 3.348.264 4.669 0 1.763-1.061 2.204-1.061 3.964 0 1.498.268 2.557.268 3.789 0 1.146-1.233 1.586-1.233 3.259l-.089 3.61c1.499 1.145 3.083 2.113 4.844 2.82a24.2 24.2 0 0 1 1.498-2.555c.529-.88 1.499-1.677 1.499-2.643 0-.705.18-1.412.793-2.115.882-1.145 1.586-1.323 1.586-3.523 0-.88-.793-2.112-.528-2.555.353-.796.882-2.204.882-3.085 1.057 2.466-.089 6.519 1.846 8.456.704.704.18 2.729.18 3.876 0 1.497.793 2.113.793 3.523.087 1.146.792 2.464.792 3.702 0 2.202.617 4.491.617 6.43 0 .881-.617 4.49 0 4.756 1.41-.617 2.823-.441 4.493-.441.969 0 4.489-1.674 4.489-2.728 0-.616.353-1.061-.175-1.584-.265-.267-.793-.617-.793-1.059-.087-.881-.179-1.85-.179-2.73 0-1.322-1.673-2.82-1.673-4.581l-.264-15.595c0-2.026-.352-3.524-.792-5.285-.353-1.496-.353-2.993-.706-4.402-2.29.084-4.757.528-6.343 2.025-2.115 2.111-7.399-5.021-10.306-1.145-.174.267-.438.793-.702 1.147z"/><path d="M-26.934 329.186c-.176 1.409-1.321 2.818-.44 4.58.706 1.586 1.938 1.676 3.523 2.026 2.464.441 2.996-2.377 1.762-3.7-.087-.088-.18-.088-.18-.178-1.67-.703-3.255-1.583-4.665-2.728zM-12.048 346.097c0 1.586-1.583 3.086-1.583 4.758 0 2.289 5.109 2.378 6.079.264.701-1.323 1.233-1.762 1.233-3.436 0-.796-.18-1.497-.353-2.205-.528.179-.97.264-1.145.264-1.586 0-2.907-.176-4.14.352l-.091.003z"/></g><g fill="#939598"><path d="M202.632 275.45c-.966 0-.701-2.114-.349-3.703.349-.527 1.057-2.025.44-2.556.441-2.289 2.907-3.609 5.461-3.699l.353 2.907c-.44-.086-.881-.18-1.233 0-.349.085-.702.085-.966.177a3.264 3.264 0 0 0-1.585.705c-.265.263-.7.526-.793.966-.264.616.265 2.378-.441 2.729l-.887 2.474z"/><path d="M202.28 271.748c.44-.526 1.321-2.642-.089-2.642-2.817 0-2.817 2.024-3.259 4.669-.264 1.323.176 1.763 0 2.729-.44 2.643-1.674 2.203-3.171 1.145.175.439 1.408 2.028 1.761 2.028 1.146 0 1.938.086 2.555-.881.617-.88 1.676-2.203 1.676-3.259-.001-.528.086-3.789.527-3.789zM208.534 268.403c-.44-.087-.88-.181-1.233 0-.349.085-.701.085-.965.176a3.261 3.261 0 0 0-1.585.706c-.266.263-.701.526-.793.966-.264.616.264 2.377-.441 2.729l-.881 2.464v.796c0 .353.179.881.352 1.146 0 .178.18.352.265.44l.181.179h.44c.264.879 1.146 2.642 2.465 2.992.529.089.794.616 1.229.705.797.264 1.586.264 2.379-.089l-1.413-13.21z"/><path d="M209.942 281.615c-.793.353-1.582.353-2.379.089-.438-.089-.7-.617-1.229-.703-.086-.089-.264-.089-.353-.179-.616 1.233 1.147 2.908 1.675 3.436 0 0 .441.617.528.617.532 0 1.851.527 2.291 1.059l-.533-4.319z"/><path d="M205.802 280.648h-.527c-.265 0-1.059.702-1.146.967-.176.441-.084 1.234-.084 1.676-.881.44-1.941 1.06-2.996 2.291-.617.702-1.496 1.41-1.408 2.727 0 2.207.264 4.492.264 6.61.265 1.234.265 3.086 1.145 4.229.354.442.617 1.145.967 1.584.268.265 1.761.086 2.205.086.704.706.616 3.087.353 4.056-.265.882-.353 1.494-.353 2.554 0 .968.353 1.849.353 2.729.264-.087.881-1.145 1.145-1.495 1.938-2.643 4.935-.267 7.397.966l-2.645-23.694c-.439-.531-1.758-1.06-2.29-1.06-.084 0-.528-.616-.528-.616-.527-.528-2.202-2.113-1.761-3.437l-.091-.173z"/><path d="M209.504 290.072c.176-.612-2.556-.349-2.994-.264-2.908.53-2.204 2.643-1.675 4.756.084.617.966.881 1.497.702.349-.085.701-.439.794-.793h.704c.085 0 .348-.264.264-.352h-.264c-.882 0 .613.088.701-.086.969-.968-.528-.882-1.145-.882-.089 0 1.232 0 1.85-.178.44-.179.348-.616-.089-.616h-1.323c-.085 0-1.146-.177-.349-.177.616 0 2.464.614 2.464-.53-.176-.264-.44-.35-.701-.441-.353-.085-.882-.085-1.232-.085-.266 0-.442 0-.617-.089-.176 0-.089-.085-.089-.264s1.233 0 1.499-.088c.263.004.617-.525.705-.613zM204.921 309.806c0 1.495.354 3.348.354 4.669 0 1.763-1.146 2.204-1.146 3.964 0 1.498.352 2.557.352 3.789 0 1.146-1.32 1.586-1.32 3.259v3.61a17.5 17.5 0 0 0 4.846 2.82c.439-.881.968-1.763 1.497-2.555.528-.88 1.409-1.677 1.409-2.643.088-.705.266-1.412.793-2.115.881-1.145 1.672-1.323 1.672-3.523 0-.88-.875-2.112-.61-2.555.349-.796.965-2.204.965-3.085l-.616-5.814c-2.465-1.229-5.463-3.608-7.397-.966-.181.265-.533.791-.799 1.145z"/><path d="M203.249 329.186c-.177 1.409-1.322 2.818-.44 4.58.793 1.586 1.938 1.676 3.523 2.026 2.555.441 3.084-2.377 1.762-3.7-.087-.088-.087-.088-.179-.178-1.673-.703-3.259-1.583-4.581-2.729h-.085z"/></g><g fill="none" stroke="#000" stroke-width=".5"><path d="M202.632 275.45c-.966 0-.701-2.114-.349-3.703.349-.527 1.057-2.025.44-2.556.441-2.465 3.258-3.786 5.993-3.699.613.086 1.146-.087 1.675-.087 1.938 0 4.14 2.201 4.58 4.23-1.32.265-.353 1.938.089 2.465 0 .441-.089.881-.265 1.232-1.061 2.29-1.412-1.145-1.763-1.849-.18-.354.085-1.059 0-1.499-.18-.88-.797-1.672-2.113-1.672-.617 0-1.41.086-2.203.086-.441 0-.969-.18-1.413 0-.349.085-.702.085-.966.177a3.264 3.264 0 0 0-1.585.705c-.265.263-.7.526-.793.966-.264.616.265 2.378-.441 2.729l-.886 2.475z"/><path d="M202.28 271.748c.44-.526 1.321-2.642-.089-2.642-2.817 0-2.817 2.024-3.259 4.669-.264 1.323.176 1.763 0 2.729-.44 2.643-1.674 2.203-3.171 1.145.175.439 1.408 2.028 1.761 2.028 1.146 0 1.938.086 2.555-.881.617-.88 1.676-2.203 1.676-3.259-.001-.528.086-3.789.527-3.789zM220.252 280.03c-2.207 0-4.581 1.146-4.581-2.111 0-1.322.35-4.936-.533-5.814-.439-.44-1.583-2.204-.083-2.466 2.025-1.146 4.487 3.173 3.346 5.901-.264.615-.527 2.026.089 2.728.439.44.88 1.851 1.762 1.762z"/><path d="M214.525 273.953h-.088c-.793.881-1.146-1.849-1.41-2.466-.18-.354.085-1.058 0-1.498-.18-.881-.797-1.672-2.114-1.672-.616 0-1.409.086-2.206.086-.44 0-.966-.18-1.409 0-.35.085-.702.085-.966.177a3.251 3.251 0 0 0-1.585.705c-.265.263-.7.526-.793.966-.264.616.264 2.378-.441 2.73l-.881 2.465v.793c0 .353.179.881.352 1.146 0 .178.181.352.266.44l.18.179h.44c.264.88 1.146 2.642 2.465 2.992.529.089.795.616 1.229.705 1.146.352 2.207.177 3.614-.795 1.056-.703 1.586-3.349 2.994-3.349.265 0 .353-.353.44-.53.353-.441.353-1.057.353-1.585 0-.176.089-1.23 0-1.23-.263-.259.089-.259-.44-.259z"/><path d="M210.561 286.108c0-1.057.179-1.584.792-2.202.617-.618 1.85-1.497 1.85-2.293-.527 0 .089-2.993.176-3.698-.876.702-1.408 2.466-2.2 2.992-1.41.968-2.464 1.146-3.613.795-.439-.089-.701-.616-1.229-.703-.087-.088-.265-.088-.354-.179-.616 1.233 1.147 2.908 1.675 3.437 0 0 .441.616.528.616.614.002 2.111.707 2.375 1.235z"/><path d="M205.802 280.648h-.527c-.265 0-1.059.702-1.146.967-.176.441-.084 1.234-.084 1.676-.881.44-1.941 1.06-2.996 2.291-.617.702-1.496 1.41-1.408 2.727 0 2.207.264 4.492.264 6.61.265 1.234.265 3.086 1.145 4.229.354.442.617 1.145.967 1.584.268.265 1.761.086 2.205.086.704.706.616 3.087.353 4.056-.265.882-.353 1.494-.353 2.554 0 .968.353 1.849.353 2.729.264-.087.881-1.145 1.145-1.495 2.908-3.877 8.104 3.256 10.305 1.145 1.849-1.941 5.464-2.114 8.107-2.114 0 0-.441-1.231-.532-1.409-.44-.797-1.229-1.941-1.229-2.906 0-2.38-2.468-4.054-2.468-6.695.089.177.882.967 1.146.967 1.497 0 2.025-.44 2.643-1.674.351-.616.351-1.763.351-2.557 0-.088-.086-.618-.177-.618 0 0-.53-1.144-.53-1.321-.085-.528-.527-.882-.882-1.232-.176-.264-.965-.441-.965-.703 0-3.609-.616-7.663-5.112-7.663 0-.087-.175-.529-.175-.529-.353 0-.617 0-.793-.085-.269-.179-.881-1.323-1.149-1.585-.084-.089-.792-.267-1.057-.267l-.088.089c-.177 1.058-.265 2.111.088 2.111 0 .796-1.233 1.677-1.851 2.291-.612.616-.791 1.147-.791 2.204-.266-.527-1.763-1.231-2.381-1.231-.084 0-.527-.617-.527-.617-.528-.527-2.203-2.112-1.761-3.436l-.09-.179z"/><path d="M204.393 293.596c.265.617.796 1.763 1.584 1.763.702 0 .882-.795.882.178 0 1.231-.793 2.205-1.231 3.257-.267.704-.53 1.939-1.322 1.939M219.193 293.948v.266c.177.086.266.529.266.615 0 .088.083.178.083.266 0 0 .181.441.181.528 0 .265.085 1.06.264 1.323"/><path d="M209.504 290.072c.176-.612-2.556-.349-2.994-.264-2.908.53-2.204 2.643-1.675 4.756.084.617.966.881 1.497.702.349-.085.701-.439.794-.793h.704c.085 0 .348-.264.264-.352h-.264c-.882 0 .613.088.701-.086.969-.968-.528-.882-1.145-.882-.089 0 1.232 0 1.85-.178.44-.179.348-.616-.089-.616h-1.323c-.085 0-1.146-.177-.349-.177.616 0 2.464.614 2.464-.53-.176-.264-.44-.35-.701-.441-.353-.085-.882-.085-1.232-.085-.266 0-.442 0-.617-.089-.176 0-.089-.085-.089-.264s1.233 0 1.499-.088c.263.004.617-.525.705-.613z"/><path d="M204.747 293.51c.088.175.441.44.441.614.085.178.881.352 1.059.352.175.086.441 0 .527 0h.353M219.897 296.681c-.438-.796-.7-1.676-.7-2.557M222.276 293.068c.177.88.266 1.849-.968 1.849-.702 0-1.497-.795-1.497-1.497 0-.969-.702-.088-1.146-.441-.529-.529-.35-.617.531-.617.793 0-.704-.085-.881-.085-.531 0-.969-.354-.531-.705.088-.177 1.85-.084 1.761-.084h-.793c-.264 0-.7-.089-.968-.089-.881 0-.529 0-.529-.617 0-.264 1.323-.176 1.497-.176h.528c.354 0-2.109.085-2.109-.263 0-.971.613-.882 1.494-.882.796 0 .796-.881-.44-.441-1.058.352-1.146-.088-1.674-.793 1.056.084 1.582-.53 2.642-.53.7 0 1.848 1.146 2.111 1.764.268.435.885 3.433.972 3.607zM204.921 309.806c0 1.495.354 3.348.354 4.669 0 1.763-1.146 2.204-1.146 3.964 0 1.498.352 2.557.352 3.789 0 1.146-1.32 1.586-1.32 3.259v3.61a17.5 17.5 0 0 0 4.846 2.82c.439-.881.968-1.763 1.497-2.555.528-.88 1.409-1.677 1.409-2.643.088-.705.266-1.412.793-2.115.881-1.145 1.672-1.323 1.672-3.523 0-.88-.875-2.112-.61-2.555.349-.796.965-2.204.965-3.085.97 2.466-.177 6.519 1.761 8.456.706.704.182 2.729.182 3.876 0 1.497.792 2.113.792 3.523.089 1.146.793 2.464.793 3.702 0 2.202.616 4.491.616 6.43 0 .881-.529 4.49 0 4.756 1.408-.617 2.819-.441 4.493-.441.965 0 4.488-1.674 4.488-2.728 0-.616.354-1.061-.175-1.584-.267-.267-.798-.617-.798-1.059-.085-.881-.085-1.85-.085-2.73 0-1.322-1.763-2.82-1.763-4.581l-.263-15.595c0-2.026-.352-3.524-.797-5.285-.349-1.496-.349-2.993-.612-4.402-2.294.084-4.85.528-6.345 2.025-2.204 2.111-7.397-5.021-10.306-1.145-.175.267-.527.793-.793 1.147z"/><path d="M203.249 329.186c-.177 1.409-1.322 2.818-.44 4.58.793 1.586 1.938 1.676 3.523 2.026 2.555.441 3.084-2.377 1.762-3.7-.087-.088-.087-.088-.179-.178-1.673-.703-3.259-1.583-4.581-2.729h-.085zM218.136 346.097c0 1.586-1.582 3.086-1.582 4.758 0 2.289 5.107 2.378 6.162.264.616-1.323 1.233-1.762 1.233-3.436 0-.796-.264-1.497-.44-2.205-.441.179-.882.264-1.146.264-1.497 0-2.823-.176-4.141.352l-.086.003z"/></g><path d="M-35.433 86.23v-8.702h1.177l4.571 6.833v-6.833h1.106v8.702h-1.181l-4.571-6.839v6.839h-1.102zM-27.177 83.077c0-1.167.323-2.032.969-2.594.546-.467 1.207-.699 1.986-.699.863 0 1.575.285 2.125.851.547.569.826 1.353.826 2.356 0 .809-.124 1.45-.365 1.915a2.572 2.572 0 0 1-1.064 1.083 3.132 3.132 0 0 1-1.523.384c-.882 0-1.596-.285-2.143-.848-.54-.567-.811-1.384-.811-2.448zm1.098 0c0 .806.176 1.413.528 1.813.353.402.795.602 1.331.602.53 0 .968-.201 1.322-.604.353-.401.528-1.017.528-1.844 0-.78-.177-1.372-.53-1.772a1.693 1.693 0 0 0-1.321-.604c-.538 0-.978.201-1.331.601-.351.398-.527 1.001-.527 1.808zM-20.031 86.23v-6.304h.962v.957c.246-.445.471-.743.679-.884.208-.143.44-.214.686-.214.36 0 .726.116 1.098.344l-.369.991a1.527 1.527 0 0 0-.783-.233c-.233 0-.44.072-.628.21-.183.14-.319.338-.395.587a4.05 4.05 0 0 0-.181 1.247v3.298h-1.069v.001zM-15.97 86.23v-6.304h.956v.884c.198-.309.461-.557.789-.747a2.26 2.26 0 0 1 1.122-.282c.467 0 .85.097 1.149.291.299.192.51.465.631.811.499-.737 1.147-1.104 1.947-1.104.625 0 1.105.172 1.442.519.336.348.501.879.501 1.601v4.331h-1.059v-3.97c0-.431-.035-.738-.104-.923a.903.903 0 0 0-.377-.454 1.182 1.182 0 0 0-.645-.172c-.44 0-.808.147-1.104.44-.293.294-.441.768-.441 1.418v3.661h-1.064v-4.096c0-.474-.087-.831-.261-1.065-.176-.237-.46-.356-.857-.356-.298 0-.578.077-.833.235s-.44.389-.552.697c-.118.305-.175.746-.175 1.318v3.268h-1.065zM-1.731 85.451c-.393.338-.777.574-1.142.711a3.275 3.275 0 0 1-1.178.207c-.693 0-1.223-.169-1.593-.506-.376-.337-.558-.771-.558-1.296 0-.309.069-.592.21-.846.141-.256.325-.461.552-.614.227-.156.483-.271.765-.351a7.73 7.73 0 0 1 .954-.159c.86-.104 1.498-.226 1.902-.367.007-.147.009-.24.009-.28 0-.437-.101-.744-.303-.921-.276-.241-.679-.362-1.22-.362-.5 0-.875.089-1.113.265-.239.179-.416.49-.53.934l-1.048-.142c.095-.445.25-.807.468-1.084.221-.275.535-.485.947-.635.411-.148.888-.223 1.427-.223.54 0 .976.064 1.311.19.338.126.587.285.746.478s.269.436.332.726c.037.181.054.511.054.986v1.425c0 .994.027 1.625.072 1.888.042.263.132.516.27.755h-1.119a2.307 2.307 0 0 1-.215-.779zm-.089-2.386c-.388.158-.965.292-1.743.403-.441.064-.753.135-.932.214a.912.912 0 0 0-.569.854c0 .285.107.523.322.71.215.19.532.286.946.286.413 0 .777-.09 1.102-.27.321-.182.553-.428.703-.741.114-.239.172-.596.172-1.066l-.001-.39zM.894 86.23v-8.702h1.065v8.702H.894zM-31.252 99.972V94.5h-.943v-.831h.944v-.671c0-.426.038-.74.112-.946.104-.277.286-.499.546-.674.259-.174.621-.259 1.089-.259.301 0 .633.037.996.106l-.16.933a3.735 3.735 0 0 0-.629-.058c-.325 0-.555.072-.688.208-.135.137-.203.397-.203.778v.583h1.226v.831h-1.226v5.473l-1.064-.001zM-24.014 99.194c-.396.338-.777.574-1.142.712a3.36 3.36 0 0 1-1.179.208c-.692 0-1.226-.171-1.597-.507-.373-.338-.559-.77-.559-1.298 0-.309.073-.591.214-.845.136-.255.323-.461.548-.614.231-.156.483-.271.769-.352.209-.055.525-.108.95-.159.862-.104 1.498-.225 1.906-.367l.005-.279c0-.437-.101-.744-.303-.92-.272-.241-.678-.363-1.216-.363-.502 0-.874.085-1.117.264-.237.178-.416.489-.53.934l-1.042-.143c.096-.445.252-.806.47-1.084.216-.275.531-.487.944-.636.411-.147.888-.221 1.43-.221.538 0 .976.063 1.311.187.338.129.584.286.742.48.158.191.272.434.336.727.033.182.053.509.053.987v1.425c0 .992.022 1.621.068 1.884.045.263.136.516.27.756h-1.115a2.138 2.138 0 0 1-.216-.776zm-.09-2.387c-.388.158-.97.293-1.747.404-.439.063-.749.132-.933.213a.93.93 0 0 0-.421.348.9.9 0 0 0-.148.505c0 .286.107.521.327.712.215.188.53.286.946.286.412 0 .777-.09 1.097-.272a1.66 1.66 0 0 0 .707-.738c.114-.242.173-.596.173-1.067v-.39h-.001zM-19.035 99.016l.154.944c-.3.063-.57.095-.808.095-.387 0-.688-.063-.901-.184a1.04 1.04 0 0 1-.453-.484c-.086-.2-.129-.621-.129-1.264V94.5h-.787v-.831h.787v-1.563l1.062-.641v2.205h1.075v.831h-1.075v3.685c0 .303.018.499.056.587a.434.434 0 0 0 .185.208c.082.052.207.077.365.077.119-.001.274-.014.469-.042zM-17.99 99.972v-8.701h1.065v3.124c.499-.58 1.129-.866 1.892-.866.467 0 .873.092 1.216.277.344.183.593.44.739.761.148.326.225.797.225 1.414v3.995h-1.069v-3.995c0-.534-.115-.922-.345-1.167-.233-.245-.558-.365-.981-.365-.32 0-.614.079-.896.243a1.397 1.397 0 0 0-.596.669c-.12.282-.182.667-.182 1.165v3.449h-1.066l-.002-.003zM-6.914 97.942l1.108.134c-.178.647-.498 1.148-.968 1.502-.471.356-1.073.536-1.805.536-.922 0-1.653-.286-2.192-.854-.544-.569-.81-1.366-.81-2.39 0-1.062.276-1.884.819-2.466.547-.587 1.254-.878 2.125-.878.843 0 1.531.284 2.065.857.534.574.802 1.38.802 2.421 0 .064-.002.158-.006.285h-4.698c.037.694.234 1.223.587 1.591.354.367.792.551 1.317.551.393 0 .726-.104 1.007-.309.267-.201.486-.529.649-.98zm-3.508-1.727h3.521c-.047-.533-.183-.929-.404-1.193a1.64 1.64 0 0 0-1.323-.618c-.491 0-.904.164-1.238.493-.335.329-.521.767-.556 1.318zM-4.481 99.972v-6.304h.962v.955c.242-.446.471-.742.679-.884.208-.141.435-.212.686-.212.36 0 .726.114 1.099.341l-.369.99a1.528 1.528 0 0 0-.783-.232c-.235 0-.443.071-.629.21a1.145 1.145 0 0 0-.397.586 4.199 4.199 0 0 0-.178 1.247v3.299l-1.07.004zM-35.522 366.096v-8.699h1.181l4.57 6.829v-6.829h1.104v8.699h-1.181l-4.571-6.836v6.836h-1.103zM-27.265 362.946c0-1.169.323-2.032.973-2.595.542-.467 1.203-.7 1.982-.7.867 0 1.574.285 2.125.854.551.568.826 1.353.826 2.353 0 .813-.122 1.45-.365 1.915s-.597.826-1.064 1.083a3.069 3.069 0 0 1-1.522.388c-.882 0-1.596-.285-2.14-.851-.544-.57-.815-1.385-.815-2.447zm1.098 0c0 .805.18 1.412.528 1.813.353.399.799.601 1.331.601.53 0 .972-.202 1.324-.604.348-.405.528-1.02.528-1.847 0-.779-.18-1.37-.53-1.771a1.701 1.701 0 0 0-1.323-.601c-.534 0-.978.199-1.331.598-.35.398-.527 1.001-.527 1.811zM-20.118 366.096v-6.303h.959v.957c.246-.445.471-.743.679-.885a1.21 1.21 0 0 1 .689-.214c.36 0 .726.114 1.097.343l-.368.991a1.519 1.519 0 0 0-.783-.234 1.05 1.05 0 0 0-.632.21 1.164 1.164 0 0 0-.395.589c-.118.38-.181.796-.181 1.245v3.299l-1.065.002zM-16.058 366.096v-6.303h.955v.884c.198-.309.461-.556.793-.744.328-.19.699-.285 1.119-.285.467 0 .854.095 1.148.288.299.192.509.466.636.812.495-.735 1.147-1.103 1.945-1.103.625 0 1.105.172 1.442.518.336.346.505.881.505 1.599v4.329h-1.064v-3.97c0-.427-.031-.734-.103-.921a.905.905 0 0 0-.377-.453 1.178 1.178 0 0 0-.641-.174c-.444 0-.811.147-1.107.44-.291.294-.439.766-.439 1.418v3.659h-1.069v-4.096c0-.475-.084-.831-.26-1.065-.174-.237-.46-.356-.855-.356-.302 0-.579.076-.833.234-.255.159-.441.391-.556.697s-.171.744-.171 1.319v3.271l-1.068.002zM-1.818 365.318c-.393.339-.777.574-1.142.713a3.293 3.293 0 0 1-1.175.208c-.696 0-1.226-.17-1.597-.508-.372-.337-.558-.77-.558-1.297a1.754 1.754 0 0 1 .762-1.46c.228-.154.483-.271.769-.348.209-.058.525-.111.95-.163.862-.103 1.499-.225 1.906-.367l.005-.28c0-.438-.101-.742-.303-.92-.272-.238-.679-.361-1.216-.361-.502 0-.873.087-1.116.264-.236.178-.416.49-.53.936l-1.045-.141c.096-.446.252-.808.47-1.083.216-.278.531-.49.944-.639a4.291 4.291 0 0 1 1.43-.221c.538 0 .972.063 1.311.188.335.126.584.284.742.479.158.189.269.433.336.726.033.183.053.51.053.986v1.427c0 .993.022 1.621.068 1.885.045.263.136.515.27.754h-1.119a2.216 2.216 0 0 1-.215-.778zm-.088-2.386c-.39.162-.971.293-1.747.403-.439.063-.75.134-.932.215a.928.928 0 0 0-.421.347.896.896 0 0 0-.148.507c0 .284.107.521.324.711.219.188.534.285.95.285.412 0 .777-.092 1.098-.271.32-.183.556-.427.703-.739.118-.242.176-.598.176-1.068l-.003-.39zM.805 366.096v-8.699h1.069v8.699H.805zM-35.962 379.751v-.8c-.396.627-.988.939-1.762.939-.5 0-.962-.137-1.384-.416a2.719 2.719 0 0 1-.98-1.161c-.234-.495-.348-1.065-.348-1.71 0-.631.104-1.199.314-1.713.209-.512.524-.907.944-1.176.422-.275.891-.41 1.409-.41a2.095 2.095 0 0 1 1.737.864v-3.121h1.064v8.701l-.994.003zm-3.378-3.147c0 .805.172 1.411.511 1.81.34.397.746.597 1.205.597.467 0 .864-.188 1.191-.571.33-.383.493-.964.493-1.747 0-.863-.166-1.494-.499-1.898-.332-.402-.742-.604-1.225-.604-.478 0-.872.193-1.19.584-.326.381-.486.993-.486 1.829zM-29.177 378.973c-.392.337-.777.573-1.142.71a3.289 3.289 0 0 1-1.175.208c-.696 0-1.225-.17-1.597-.509-.371-.337-.559-.769-.559-1.294a1.753 1.753 0 0 1 .762-1.462c.228-.154.484-.271.77-.348.209-.056.525-.109.95-.16.859-.104 1.499-.229 1.906-.37.004-.145.005-.238.005-.279 0-.438-.101-.743-.303-.921-.272-.238-.679-.361-1.22-.361-.499 0-.87.086-1.113.264-.239.178-.416.49-.53.936l-1.044-.142c.092-.444.248-.806.469-1.082.218-.276.532-.49.944-.636a4.242 4.242 0 0 1 1.428-.224c.542 0 .976.065 1.315.188.335.127.584.284.742.479.157.19.269.436.332.727.037.183.054.511.054.986v1.427c0 .993.025 1.621.072 1.885.045.264.131.515.27.757h-1.122a2.314 2.314 0 0 1-.214-.779zm-.087-2.387c-.389.159-.971.291-1.746.401-.441.065-.752.134-.933.214a.918.918 0 0 0-.569.855c0 .284.107.521.324.711.215.188.53.285.946.285.412 0 .778-.092 1.102-.271a1.68 1.68 0 0 0 .703-.739c.114-.242.175-.598.175-1.068l-.002-.388zM-22.398 379.751v-.927c-.494.71-1.158 1.066-2.001 1.066-.372 0-.72-.072-1.041-.214-.322-.143-.563-.324-.719-.538a2.03 2.03 0 0 1-.33-.794c-.043-.212-.064-.544-.064-.999v-3.905h1.064v3.496c0 .558.025.934.069 1.127.067.283.209.501.427.662.216.159.486.237.804.237.324 0 .622-.081.906-.243.281-.165.479-.39.596-.671.12-.285.179-.696.179-1.23v-3.378h1.065v6.304l-.955.007zM-19.964 380.273l1.039.154c.044.321.163.551.362.699.265.196.626.296 1.086.296.492 0 .877-.1 1.146-.296.269-.198.448-.477.545-.83.055-.22.082-.676.078-1.373-.467.548-1.048.823-1.745.823-.867 0-1.535-.314-2.013-.939-.475-.624-.709-1.374-.709-2.249 0-.602.108-1.157.326-1.666.218-.507.533-.903.946-1.177.414-.277.904-.415 1.457-.415.748 0 1.357.298 1.842.903v-.759h.985v5.449c0 .981-.1 1.678-.3 2.088-.2.408-.517.732-.949.968-.437.236-.967.356-1.601.356-.753 0-1.358-.169-1.822-.508-.465-.335-.69-.844-.673-1.524zm.884-3.786c0 .827.164 1.428.493 1.81.332.38.743.57 1.235.57.494 0 .901-.189 1.234-.567.332-.38.5-.971.5-1.781 0-.77-.175-1.353-.515-1.741-.343-.391-.755-.59-1.238-.59-.475 0-.879.192-1.214.58-.328.384-.495.957-.495 1.719zM-13.008 379.751v-8.702h1.064v3.122a2.387 2.387 0 0 1 1.891-.865c.467 0 .872.092 1.216.278.344.182.593.439.738.76.148.328.225.799.225 1.415v3.995H-8.94v-3.995c0-.537-.116-.923-.347-1.169-.232-.243-.557-.365-.98-.365-.32 0-.614.082-.896.245a1.393 1.393 0 0 0-.596.669c-.118.28-.181.667-.181 1.163v3.451l-1.068-.002zM-3.914 378.794l.155.943a3.854 3.854 0 0 1-.804.095c-.389 0-.692-.063-.906-.181a1.06 1.06 0 0 1-.451-.487c-.083-.2-.129-.621-.129-1.262v-3.626h-.783v-.831h.783v-1.563l1.062-.641v2.203h1.075v.831h-1.075v3.687c0 .303.023.5.057.586a.442.442 0 0 0 .184.208c.085.053.207.078.365.078.116.001.273-.012.467-.04zM1.446 377.72l1.107.136c-.178.645-.496 1.146-.968 1.5-.471.356-1.073.536-1.805.536-.923 0-1.653-.284-2.193-.854-.54-.568-.811-1.363-.811-2.389 0-1.063.276-1.887.819-2.468.547-.588 1.254-.878 2.126-.878.843 0 1.533.285 2.066.858.534.573.802 1.382.802 2.422 0 .063-.002.159-.006.284h-4.698c.037.692.233 1.221.587 1.59.352.367.791.548 1.317.548.392 0 .726-.102 1.006-.308.269-.199.489-.526.651-.977zm-3.507-1.729H1.46c-.049-.531-.183-.927-.405-1.191a1.633 1.633 0 0 0-1.324-.618c-.49 0-.902.163-1.237.494-.335.327-.522.767-.555 1.315zM3.88 379.751v-6.306h.962v.955c.246-.443.472-.742.68-.884.208-.141.436-.213.686-.213.36 0 .726.116 1.097.343l-.368.992a1.52 1.52 0 0 0-.783-.233c-.233 0-.44.07-.629.211a1.141 1.141 0 0 0-.399.586 4.176 4.176 0 0 0-.177 1.245v3.301l-1.069.003zM204.845 363.22l1.151.292c-.236.945-.675 1.666-1.302 2.161s-1.395.747-2.301.747c-.938 0-1.701-.191-2.287-.573-.591-.384-1.036-.936-1.342-1.659a5.9 5.9 0 0 1-.461-2.332c0-.909.174-1.697.52-2.372a3.557 3.557 0 0 1 1.478-1.536 4.359 4.359 0 0 1 2.111-.525c.87 0 1.602.224 2.2.665.594.442 1.007 1.065 1.235 1.87l-1.13.268c-.201-.633-.494-1.095-.878-1.381-.387-.288-.865-.437-1.448-.437-.669 0-1.229.162-1.681.484-.446.319-.762.75-.946 1.288a5.227 5.227 0 0 0-.273 1.673c0 .739.108 1.384.323 1.938.217.553.551.965 1.01 1.237.452.273.947.41 1.479.41.646 0 1.19-.186 1.637-.556.445-.377.747-.93.905-1.662zM211.393 365.494c-.392.337-.777.573-1.142.712a3.345 3.345 0 0 1-1.175.208c-.697 0-1.225-.171-1.599-.508-.371-.338-.557-.771-.557-1.296a1.744 1.744 0 0 1 .763-1.461c.226-.154.483-.273.765-.351.214-.056.529-.108.954-.159.858-.104 1.497-.229 1.905-.368l.006-.282c0-.436-.102-.743-.304-.917-.272-.242-.679-.362-1.22-.362-.499 0-.873.086-1.113.264-.239.178-.416.488-.53.936l-1.05-.144c.096-.445.252-.807.474-1.082.218-.275.531-.487.943-.636a4.237 4.237 0 0 1 1.427-.223c.54 0 .976.063 1.316.188.335.129.582.286.741.478.157.191.27.437.332.729.036.183.054.509.054.984v1.427c0 .995.027 1.622.072 1.886.041.263.131.516.27.756h-1.116a2.25 2.25 0 0 1-.216-.779zm-.09-2.386c-.388.158-.967.29-1.741.404-.441.063-.753.133-.934.214a.911.911 0 0 0-.568.852c0 .286.106.521.323.712.215.189.531.284.946.284.412 0 .778-.088 1.102-.271.321-.181.554-.427.704-.74.114-.239.176-.598.176-1.066v-.39l-.008.001zM214.029 366.272v-6.305h.962v.958c.241-.446.472-.744.68-.884.207-.144.436-.215.685-.215.36 0 .727.114 1.098.342l-.367.991a1.53 1.53 0 0 0-.783-.232c-.235 0-.443.072-.629.211-.188.141-.32.337-.399.586-.117.38-.177.794-.177 1.247v3.298l-1.07.003zM218.077 366.272v-6.305h.962v.958c.24-.446.472-.744.68-.884a1.18 1.18 0 0 1 .686-.215c.36 0 .726.114 1.099.342l-.368.991a1.536 1.536 0 0 0-.783-.232c-.235 0-.444.072-.63.211a1.16 1.16 0 0 0-.398.586 4.18 4.18 0 0 0-.179 1.247v3.298l-1.069.003zM222.141 358.798v-1.228h1.069v1.228h-1.069zm0 7.474v-6.305h1.069v6.305h-1.069zM229.151 364.242l1.108.134c-.178.648-.496 1.146-.967 1.503-.472.355-1.071.536-1.805.536-.919 0-1.65-.286-2.193-.854-.54-.567-.809-1.364-.809-2.389 0-1.063.275-1.885.817-2.47.546-.585 1.254-.876 2.126-.876.842 0 1.531.285 2.065.857.533.574.8 1.381.8 2.422 0 .064-.001.158-.006.284h-4.696c.039.693.233 1.222.587 1.589.353.37.791.551 1.32.551.39 0 .727-.103 1.005-.307.269-.199.487-.529.648-.98zm-3.506-1.727h3.52c-.046-.532-.183-.926-.402-1.193a1.64 1.64 0 0 0-1.324-.618c-.49 0-.902.167-1.233.494-.338.328-.526.767-.561 1.317zM231.586 366.272v-6.305h.962v.958c.244-.446.472-.744.68-.884a1.18 1.18 0 0 1 .686-.215c.36 0 .726.114 1.099.342l-.369.991a1.528 1.528 0 0 0-.783-.232c-.233 0-.439.072-.63.211a1.151 1.151 0 0 0-.396.586c-.119.38-.178.794-.178 1.247v3.298l-1.071.003z"/><g><path d="M197.129 379.925v-.796c-.396.627-.989.938-1.764.938-.5 0-.961-.139-1.383-.415a2.69 2.69 0 0 1-.979-1.163c-.234-.494-.347-1.064-.347-1.713 0-.628.104-1.199.314-1.711.21-.513.524-.907.943-1.176.42-.276.89-.41 1.406-.41.384 0 .72.078 1.016.237.297.16.539.37.725.626v-3.122h1.062v8.701l-.993.004zm-3.376-3.146c0 .807.172 1.412.509 1.811.341.399.742.599 1.206.599.466 0 .863-.191 1.19-.573.329-.384.494-.963.494-1.748 0-.861-.172-1.494-.5-1.897-.33-.401-.742-.604-1.229-.604-.476 0-.868.191-1.188.581-.323.385-.482.997-.482 1.831zM203.914 379.148c-.396.337-.777.573-1.142.711-.368.137-.76.208-1.179.208-.693 0-1.223-.171-1.594-.508-.376-.338-.558-.77-.558-1.295 0-.31.07-.594.211-.847.141-.256.324-.46.553-.614.226-.154.481-.271.764-.351a7.39 7.39 0 0 1 .953-.159c.86-.104 1.496-.227 1.902-.368.004-.147.005-.24.005-.282 0-.437-.096-.742-.298-.917-.276-.241-.679-.363-1.22-.363-.499 0-.873.087-1.113.265-.239.178-.416.488-.53.935l-1.05-.142c.097-.444.251-.806.47-1.083.222-.277.535-.487.947-.636.411-.147.888-.223 1.427-.223s.976.063 1.313.188c.338.128.586.286.745.48.158.188.27.434.332.726.037.182.054.509.054.986v1.426c0 .993.027 1.621.07 1.885.044.263.133.516.271.756h-1.116a2.16 2.16 0 0 1-.217-.778zm-.09-2.387c-.388.158-.967.292-1.742.404-.441.063-.753.133-.932.214a.93.93 0 0 0-.422.343.914.914 0 0 0-.148.509c0 .286.107.521.324.71.215.191.53.285.946.285a2.17 2.17 0 0 0 1.098-.271c.325-.181.558-.426.707-.74.114-.24.173-.598.173-1.067l-.004-.387zM210.693 379.925V379c-.494.711-1.161 1.066-2.002 1.066-.371 0-.719-.072-1.041-.216-.322-.14-.563-.321-.719-.536a2.01 2.01 0 0 1-.328-.793c-.044-.211-.066-.545-.066-.999v-3.907h1.064v3.497c0 .557.025.936.065 1.127.072.283.21.501.431.661.219.161.488.239.804.239.321 0 .622-.081.906-.245.281-.164.48-.388.596-.67.117-.285.18-.696.18-1.232v-3.377h1.063v6.305l-.953.005zM213.126 380.447l1.04.154c.038.322.162.555.362.699.265.197.626.296 1.086.296.492 0 .873-.099 1.146-.296.269-.195.446-.476.545-.832.055-.217.08-.675.078-1.373-.466.552-1.051.826-1.744.826-.866 0-1.537-.313-2.012-.938-.476-.625-.709-1.376-.709-2.253 0-.598.109-1.156.326-1.663.217-.508.533-.904.947-1.177.412-.279.898-.416 1.457-.416.745 0 1.357.298 1.842.902v-.759h.985v5.45c0 .98-.1 1.679-.299 2.088a2.214 2.214 0 0 1-.95.969c-.438.235-.967.354-1.601.354-.753 0-1.36-.169-1.821-.507-.47-.334-.696-.844-.678-1.524zm.884-3.787c0 .827.165 1.431.493 1.81.328.382.739.57 1.234.57.49 0 .901-.187 1.234-.567.333-.377.495-.969.495-1.777 0-.771-.171-1.353-.514-1.744-.338-.389-.751-.589-1.234-.589-.478 0-.878.19-1.214.578-.327.386-.494.96-.494 1.719zM220.084 379.925v-8.701h1.063v3.122a2.392 2.392 0 0 1 1.892-.863c.467 0 .868.09 1.216.276.349.186.597.439.74.762.148.325.226.796.226 1.414v3.993h-1.067v-3.993c0-.535-.116-.922-.348-1.169-.231-.24-.557-.365-.983-.365-.315 0-.61.082-.893.247a1.405 1.405 0 0 0-.596.666c-.122.282-.182.669-.182 1.167v3.449l-1.068-.005zM229.177 378.969l.153.946a3.99 3.99 0 0 1-.808.096c-.387 0-.688-.064-.901-.184a1.029 1.029 0 0 1-.451-.484c-.083-.2-.129-.621-.129-1.265v-3.625h-.782v-.832h.782v-1.562l1.063-.643v2.204h1.074v.832h-1.074v3.685c0 .306.021.501.056.59a.46.46 0 0 0 .184.208c.082.052.207.077.365.077.118-.001.275-.016.468-.043zM234.537 377.895l1.104.134c-.175.647-.494 1.146-.965 1.502s-1.071.536-1.805.536c-.922 0-1.652-.285-2.192-.854-.544-.567-.811-1.364-.811-2.389 0-1.063.276-1.886.82-2.468.546-.585 1.254-.878 2.123-.878.844 0 1.53.285 2.066.857.534.574.802 1.381.802 2.422 0 .064-.003.158-.006.284h-4.701c.039.694.234 1.222.591 1.591a1.75 1.75 0 0 0 1.317.551c.393 0 .728-.104 1.007-.309.267-.201.487-.528.65-.979zm-3.509-1.729h3.518c-.049-.53-.182-.924-.4-1.189a1.638 1.638 0 0 0-1.324-.617 1.7 1.7 0 0 0-1.238.492c-.334.327-.521.766-.556 1.314zM236.97 379.925v-6.305h.962v.958c.241-.446.472-.742.679-.884.208-.143.437-.215.687-.215.359 0 .726.114 1.098.342l-.368.991a1.528 1.528 0 0 0-.783-.232c-.235 0-.442.072-.629.211-.187.141-.32.337-.397.586a4.166 4.166 0 0 0-.179 1.247v3.298l-1.07.003z"/></g><g><path d="M88.423 366.096v-8.699h1.181l4.571 6.829v-6.829h1.108v8.699h-1.181l-4.57-6.836v6.836h-1.109zM96.681 362.946c0-1.169.324-2.032.969-2.595.546-.467 1.207-.7 1.986-.7.863 0 1.575.285 2.126.854.547.568.822 1.353.822 2.353 0 .813-.122 1.45-.365 1.915a2.55 2.55 0 0 1-1.062 1.083 3.08 3.08 0 0 1-1.523.388c-.881 0-1.596-.285-2.143-.851-.539-.57-.81-1.385-.81-2.447zm1.097 0c0 .805.176 1.412.528 1.813a1.7 1.7 0 0 0 1.329.601c.53 0 .968-.202 1.322-.604.353-.405.528-1.02.528-1.847 0-.779-.176-1.37-.53-1.771a1.694 1.694 0 0 0-1.321-.601c-.538 0-.978.199-1.33.598-.351.399-.526 1.001-.526 1.811zM103.826 366.096v-6.303h.962v.957c.245-.445.471-.743.679-.885a1.2 1.2 0 0 1 .685-.214c.361 0 .726.114 1.098.343l-.367.991a1.519 1.519 0 0 0-.783-.234c-.233 0-.44.073-.629.21a1.17 1.17 0 0 0-.399.589c-.118.38-.177.796-.177 1.245v3.299l-1.069.002zM107.887 366.096v-6.303h.956v.884a2.24 2.24 0 0 1 1.913-1.029c.467 0 .85.095 1.148.288.299.192.51.466.631.812.5-.735 1.148-1.103 1.947-1.103.625 0 1.105.172 1.438.518.338.346.505.881.505 1.599v4.329h-1.061v-3.97c0-.427-.035-.734-.104-.921a.916.916 0 0 0-.38-.453 1.166 1.166 0 0 0-.641-.174c-.444 0-.811.147-1.104.44-.294.294-.441.766-.441 1.418v3.659h-1.065v-4.096c0-.475-.087-.831-.26-1.065-.177-.237-.459-.356-.857-.356-.302 0-.579.076-.834.234-.256.159-.44.391-.555.697-.113.307-.172.744-.172 1.319v3.271l-1.064.002zM122.127 365.318c-.396.339-.777.574-1.142.713a3.313 3.313 0 0 1-1.178.208c-.692 0-1.223-.17-1.597-.508-.372-.337-.555-.77-.555-1.297 0-.308.069-.591.21-.846a1.7 1.7 0 0 1 .549-.614 2.61 2.61 0 0 1 .769-.348c.209-.058.525-.111.954-.163.858-.103 1.495-.225 1.902-.367l.005-.28c0-.438-.101-.742-.299-.92-.276-.238-.682-.361-1.22-.361-.502 0-.873.087-1.113.264-.24.178-.416.49-.534.936l-1.045-.141c.096-.446.252-.808.469-1.083.219-.278.535-.49.948-.639a4.267 4.267 0 0 1 1.426-.221c.538 0 .976.063 1.312.188.338.126.587.284.745.479.158.189.269.433.332.726.037.183.054.51.054.986v1.427c0 .993.024 1.621.068 1.885.045.263.136.515.273.754h-1.117a2.216 2.216 0 0 1-.216-.778zm-.089-2.386c-.388.162-.967.293-1.743.403-.441.063-.753.134-.933.215a.884.884 0 0 0-.42.347.896.896 0 0 0-.148.507c0 .284.107.521.323.711.215.188.53.285.946.285.413 0 .777-.092 1.097-.271.323-.183.557-.427.707-.739.114-.242.173-.598.173-1.068v-.389h-.002zM124.751 366.096v-8.699h1.065v8.699h-1.065z"/></g><g><path d="M97.737 377.867l1.057-.166c.058.424.228.748.496.972.271.228.648.337 1.137.337.49 0 .855-.1 1.092-.297.234-.199.356-.437.356-.704a.648.648 0 0 0-.313-.569c-.147-.094-.511-.215-1.092-.361-.783-.196-1.327-.369-1.633-.512a1.565 1.565 0 0 1-.688-.599 1.6 1.6 0 0 1-.235-.848c0-.282.068-.542.193-.78.13-.237.304-.439.525-.596.167-.124.393-.229.68-.311.287-.085.597-.13.923-.13.495 0 .929.072 1.303.213.374.142.651.338.828.581.181.241.3.569.367.975l-1.044.141c-.047-.324-.181-.578-.413-.758-.227-.181-.546-.273-.96-.273-.494 0-.844.079-1.055.242-.21.164-.313.353-.313.57 0 .138.043.263.131.374.083.115.222.21.41.286.107.036.421.129.944.273.754.202 1.283.367 1.581.493.299.13.536.316.704.561s.255.549.255.913c0 .356-.104.693-.312 1.007a2.024 2.024 0 0 1-.898.73 3.246 3.246 0 0 1-1.331.259c-.82 0-1.444-.17-1.873-.511-.429-.339-.703-.842-.822-1.512zM103.846 376.597c0-1.169.325-2.032.97-2.594.545-.467 1.206-.7 1.985-.7.864 0 1.575.284 2.126.854.547.567.821 1.353.821 2.352 0 .812-.12 1.451-.365 1.916a2.542 2.542 0 0 1-1.062 1.082 3.092 3.092 0 0 1-1.523.389c-.882 0-1.596-.285-2.143-.851-.538-.569-.809-1.384-.809-2.448zm1.097 0c0 .806.176 1.412.529 1.813.352.399.794.6 1.329.6.53 0 .968-.202 1.322-.604.353-.403.528-1.019.528-1.844 0-.779-.176-1.371-.532-1.772a1.694 1.694 0 0 0-1.321-.602c-.538 0-.978.2-1.329.599-.35.401-.526 1.002-.526 1.81zM111.005 379.751v-6.306h.959v.896c.463-.693 1.132-1.037 2.007-1.037.379 0 .729.07 1.047.204.319.135.557.315.715.54.158.22.269.484.332.788.04.198.06.545.06 1.04v3.876h-1.065v-3.835c0-.438-.042-.761-.128-.978a1.007 1.007 0 0 0-.44-.516 1.4 1.4 0 0 0-.748-.191c-.451 0-.848.144-1.175.435-.334.286-.497.838-.497 1.643v3.446l-1.067-.005z"/></g><g><path d="M289.737 366.272l3.343-8.701h1.239l3.563 8.701h-1.313l-1.015-2.636h-3.639l-.955 2.636h-1.223zm2.511-3.574h2.949l-.907-2.413a20.751 20.751 0 0 1-.618-1.802 11.212 11.212 0 0 1-.469 1.662l-.955 2.553zM298.922 366.272v-5.475h-.945v-.832h.945v-.67c0-.425.036-.738.111-.943.103-.279.286-.5.546-.674.258-.174.622-.26 1.089-.26.297 0 .633.036.997.107l-.16.932a3.719 3.719 0 0 0-.629-.06c-.328 0-.555.069-.692.208-.131.138-.201.396-.201.778v.581h1.228v.832h-1.228v5.475h-1.061z"/><path d="M302.079 366.272v-5.475h-.944v-.832h.944v-.67c0-.425.032-.738.111-.943.104-.279.285-.5.544-.674s.621-.26 1.089-.26c.301 0 .637.036 1.002.107l-.161.932a3.735 3.735 0 0 0-.633-.06c-.325 0-.552.069-.688.208-.132.138-.202.396-.202.778v.581h1.229v.832h-1.229v5.475h-1.062zM309.514 364.242l1.104.134c-.173.648-.492 1.146-.963 1.503-.471.355-1.073.536-1.806.536-.92 0-1.652-.286-2.192-.854-.544-.567-.811-1.364-.811-2.389 0-1.063.272-1.885.819-2.47.545-.585 1.255-.876 2.126-.876.843 0 1.529.285 2.064.857.535.574.802 1.381.802 2.422 0 .064-.001.158-.006.284h-4.7c.038.693.235 1.222.589 1.589.353.37.793.551 1.318.551.392 0 .727-.103 1.007-.307.269-.199.489-.529.649-.98zm-3.508-1.727h3.52c-.046-.532-.181-.926-.398-1.193a1.643 1.643 0 0 0-1.323-.618c-.491 0-.904.167-1.238.494-.335.327-.523.767-.561 1.317zM316.075 363.962l1.05.136c-.115.724-.409 1.291-.881 1.7-.474.41-1.057.614-1.742.614-.859 0-1.557-.284-2.08-.849-.525-.563-.787-1.372-.787-2.424 0-.682.113-1.273.337-1.787.229-.511.569-.894 1.03-1.15a3.071 3.071 0 0 1 1.505-.384c.688 0 1.245.176 1.683.518.437.347.711.842.838 1.479l-1.039.159c-.099-.422-.275-.742-.525-.956a1.349 1.349 0 0 0-.912-.322c-.537 0-.974.192-1.311.581-.338.386-.505.996-.505 1.832 0 .848.163 1.463.489 1.843.325.387.749.577 1.271.577.42 0 .77-.129 1.051-.387.275-.249.453-.644.528-1.18zM320.372 365.316l.153.946a3.971 3.971 0 0 1-.805.094c-.389 0-.691-.063-.905-.182a1.03 1.03 0 0 1-.446-.484c-.088-.2-.132-.621-.132-1.265V360.8h-.782v-.832h.782v-1.562l1.064-.643v2.204h1.071v.832h-1.071v3.685c0 .306.019.5.057.59a.435.435 0 0 0 .182.208.702.702 0 0 0 .363.077c.119-.001.275-.015.469-.043zM325.733 364.242l1.103.134c-.174.648-.496 1.146-.967 1.503-.471.355-1.069.536-1.805.536-.918 0-1.649-.286-2.193-.854-.541-.567-.808-1.364-.808-2.389 0-1.063.274-1.885.816-2.47.546-.585 1.259-.876 2.125-.876.848 0 1.532.285 2.066.857.534.574.805 1.381.805 2.422 0 .064-.002.158-.008.284h-4.7c.04.693.233 1.222.588 1.589.353.37.793.551 1.322.551.388 0 .726-.103 1.003-.307.269-.199.488-.529.653-.98zm-3.509-1.727h3.52c-.048-.532-.183-.926-.404-1.193a1.633 1.633 0 0 0-1.321-.618c-.494 0-.908.167-1.238.494-.336.328-.521.767-.557 1.317zM332.267 366.272v-.798c-.4.629-.987.94-1.764.94-.501 0-.963-.139-1.385-.419a2.677 2.677 0 0 1-.979-1.16c-.23-.492-.348-1.064-.348-1.713 0-.63.105-1.2.315-1.711.21-.513.523-.907.947-1.179a2.522 2.522 0 0 1 1.407-.407 2.089 2.089 0 0 1 1.735.863v-3.122h1.063v8.701l-.991.005zm-3.379-3.147c0 .808.174 1.412.511 1.811.341.399.746.599 1.209.599.464 0 .86-.19 1.188-.573.328-.384.492-.964.492-1.748 0-.861-.165-1.494-.498-1.897-.334-.401-.743-.604-1.225-.604-.476 0-.874.191-1.191.581-.324.385-.486.997-.486 1.831z"/></g><g><path d="M302.55 378.044l1.057-.169c.06.426.228.751.495.975.27.228.648.338 1.136.338.491 0 .856-.101 1.094-.301.233-.198.355-.433.355-.701a.65.65 0 0 0-.314-.57c-.146-.093-.511-.216-1.096-.362-.784-.195-1.323-.368-1.629-.51-.304-.145-.532-.345-.689-.6s-.234-.538-.234-.847c0-.283.067-.544.193-.779.129-.24.304-.441.525-.598.165-.124.393-.228.68-.312s.597-.129.923-.129c.493 0 .93.072 1.303.215.375.142.65.335.828.577.178.244.301.569.367.977l-1.043.143c-.048-.326-.186-.58-.414-.759-.228-.183-.548-.273-.964-.273-.491 0-.841.078-1.05.24-.211.163-.316.353-.316.57 0 .138.045.263.132.377.083.114.224.209.409.283.107.041.421.129.942.275.753.202 1.28.367 1.583.494.299.129.537.315.704.562.17.242.255.547.255.911 0 .356-.104.694-.311 1.009-.208.314-.509.555-.904.73a3.276 3.276 0 0 1-1.327.258c-.818 0-1.442-.173-1.871-.511-.43-.34-.702-.844-.819-1.513zM308.657 376.773c0-1.168.325-2.034.971-2.594.546-.467 1.205-.699 1.986-.699.862 0 1.573.285 2.121.853.55.567.824 1.354.824 2.354 0 .812-.122 1.45-.363 1.916a2.573 2.573 0 0 1-1.063 1.082 3.089 3.089 0 0 1-1.523.388c-.882 0-1.594-.285-2.143-.851-.538-.569-.81-1.383-.81-2.449zm1.099 0c0 .808.175 1.413.527 1.814a1.7 1.7 0 0 0 1.331.601c.53 0 .967-.202 1.321-.604.354-.403.528-1.02.528-1.846 0-.78-.177-1.371-.53-1.772a1.697 1.697 0 0 0-1.321-.6c-.538 0-.978.199-1.33.597-.352.399-.526 1.003-.526 1.81zM315.816 379.925v-6.305h.959v.898c.464-.694 1.131-1.039 2.006-1.039.379 0 .729.068 1.048.205.319.134.556.314.716.537.158.223.269.485.332.789.039.198.06.546.06 1.04v3.875h-1.064v-3.834c0-.437-.041-.76-.129-.977a1.011 1.011 0 0 0-.44-.516c-.21-.129-.46-.19-.748-.19-.451 0-.848.143-1.174.433-.334.287-.496.838-.496 1.646v3.442l-1.07-.004z"/></g><g><path d="M335.044 83.178l1.152.29c-.237.946-.674 1.667-1.302 2.164-.627.495-1.394.744-2.3.744-.938 0-1.701-.19-2.289-.572-.591-.382-1.035-.934-1.341-1.66a5.918 5.918 0 0 1-.46-2.333c0-.906.173-1.695.518-2.371a3.548 3.548 0 0 1 1.48-1.535 4.318 4.318 0 0 1 2.107-.525c.87 0 1.604.221 2.2.663.594.443 1.008 1.065 1.238 1.87l-1.132.269c-.202-.636-.494-1.093-.879-1.383-.387-.288-.865-.433-1.447-.433-.669 0-1.228.161-1.681.48a2.58 2.58 0 0 0-.947 1.292 5.23 5.23 0 0 0-.273 1.671c0 .741.109 1.387.324 1.938.216.551.55.963 1.01 1.237.451.272.947.408 1.478.408.648 0 1.191-.185 1.639-.557.446-.374.748-.926.905-1.657zM341.594 85.451c-.393.338-.777.574-1.144.711a3.274 3.274 0 0 1-1.175.207c-.696 0-1.225-.169-1.597-.506-.372-.335-.559-.771-.559-1.296 0-.309.072-.592.212-.846.14-.256.325-.461.552-.614.227-.156.484-.271.768-.351a7.74 7.74 0 0 1 .95-.159c.861-.104 1.497-.226 1.906-.367l.006-.28c0-.437-.102-.744-.303-.921-.272-.241-.679-.362-1.219-.362-.501 0-.872.089-1.115.265-.237.179-.416.49-.53.934l-1.046-.142c.094-.445.25-.807.469-1.084.218-.275.532-.485.944-.635.411-.148.888-.223 1.428-.223.539 0 .974.064 1.314.19.336.126.583.285.742.478.158.192.269.436.333.726.035.181.054.511.054.986v1.425c0 .994.025 1.625.07 1.888.046.263.133.516.271.755h-1.115a2.198 2.198 0 0 1-.216-.779zm-.09-2.386c-.39.158-.97.292-1.745.403-.44.064-.752.135-.932.214a.933.933 0 0 0-.423.347.918.918 0 0 0-.147.507.9.9 0 0 0 .323.71c.217.19.536.286.949.286.41 0 .779-.09 1.099-.27.322-.182.555-.428.705-.741.116-.239.175-.596.175-1.066l-.004-.39zM344.228 86.23v-6.304h.962v.957c.24-.445.472-.743.68-.884a1.18 1.18 0 0 1 .685-.214c.361 0 .726.116 1.099.344l-.369.991a1.526 1.526 0 0 0-.782-.233 1.04 1.04 0 0 0-.63.21 1.14 1.14 0 0 0-.397.587 4.174 4.174 0 0 0-.179 1.247v3.298h-1.069v.001zM348.276 86.23v-6.304h.961v.957c.242-.445.473-.743.681-.884.207-.143.437-.214.686-.214.36 0 .726.116 1.099.344l-.368.991a1.541 1.541 0 0 0-.784-.233c-.233 0-.441.072-.63.21-.185.14-.317.338-.397.587a4.175 4.175 0 0 0-.178 1.247v3.298h-1.07v.001zM352.343 78.756v-1.229h1.066v1.229h-1.066zm0 7.474v-6.304h1.066v6.304h-1.066zM359.351 84.198l1.106.136c-.175.646-.494 1.146-.967 1.502-.472.354-1.07.534-1.804.534-.918 0-1.65-.286-2.193-.85-.54-.569-.807-1.367-.807-2.392 0-1.062.272-1.884.816-2.467.545-.585 1.256-.878 2.126-.878.843 0 1.529.285 2.063.86.536.574.806 1.379.806 2.42 0 .063-.004.158-.009.286h-4.698c.039.692.234 1.221.586 1.589.353.368.794.551 1.322.551.388 0 .726-.104 1.003-.309.269-.203.49-.529.65-.982zm-3.507-1.725h3.521c-.047-.53-.183-.928-.403-1.193a1.634 1.634 0 0 0-1.321-.616c-.493 0-.905.165-1.236.492-.339.329-.524.766-.561 1.317zM361.786 86.23v-6.304h.96v.957c.246-.445.472-.743.68-.884.208-.143.438-.214.687-.214.359 0 .726.116 1.1.344l-.369.991a1.539 1.539 0 0 0-.784-.233c-.232 0-.44.072-.63.21-.184.14-.317.338-.396.587-.12.379-.179.794-.179 1.247v3.298h-1.069v.001z"/></g><g><path d="M328.347 99.972v-6.304h.956v.883a2.227 2.227 0 0 1 1.911-1.029c.467 0 .853.097 1.15.288.298.195.507.466.635.813.494-.736 1.146-1.103 1.944-1.103.625 0 1.108.174 1.442.52.339.344.505.88.505 1.599v4.329h-1.064v-3.971c0-.428-.033-.736-.104-.92a.89.89 0 0 0-.375-.455 1.186 1.186 0 0 0-.646-.171c-.441 0-.809.145-1.104.44-.29.294-.439.766-.439 1.416v3.662h-1.069v-4.095c0-.477-.085-.831-.26-1.069-.176-.236-.457-.354-.855-.354-.3 0-.582.077-.833.235a1.335 1.335 0 0 0-.556.696c-.115.304-.177.745-.177 1.318v3.27h-1.063l.002.002zM338.076 96.82c0-1.168.327-2.031.972-2.594.546-.467 1.206-.699 1.984-.699.867 0 1.577.284 2.126.853.548.568.824 1.352.824 2.355 0 .809-.122 1.45-.365 1.912-.24.466-.597.827-1.063 1.083a3.108 3.108 0 0 1-1.526.388c-.882 0-1.592-.285-2.141-.85-.539-.57-.811-1.383-.811-2.448zm1.099 0c0 .806.176 1.411.527 1.813.353.401.796.602 1.327.602.533 0 .971-.203 1.323-.605.353-.404.528-1.019.528-1.844 0-.78-.177-1.372-.53-1.774a1.699 1.699 0 0 0-1.322-.6 1.7 1.7 0 0 0-1.327.597c-.351.398-.526 1.004-.526 1.811zM347.567 99.016l.155.944c-.3.063-.571.095-.806.095-.388 0-.689-.063-.906-.184a1.006 1.006 0 0 1-.447-.484c-.088-.2-.132-.621-.132-1.264V94.5h-.783v-.831h.783v-1.563l1.064-.641v2.205h1.071v.831h-1.071v3.685c0 .303.02.499.056.587a.445.445 0 0 0 .183.208c.084.052.207.077.366.077.118-.001.274-.014.467-.042zM348.612 99.972v-8.701h1.065v3.124a2.38 2.38 0 0 1 1.888-.866c.467 0 .872.092 1.219.277.344.183.591.44.738.761.149.326.225.797.225 1.414v3.995h-1.066v-3.995c0-.534-.115-.922-.347-1.167-.232-.245-.559-.365-.981-.365-.317 0-.615.079-.896.243a1.402 1.402 0 0 0-.596.669c-.123.282-.181.667-.181 1.165v3.449h-1.067l-.001-.003zM359.688 97.942l1.104.134c-.174.647-.492 1.148-.965 1.502-.471.356-1.072.536-1.804.536-.922 0-1.653-.286-2.193-.854-.544-.569-.811-1.366-.811-2.39 0-1.062.273-1.884.818-2.466.547-.586 1.256-.878 2.126-.878.842 0 1.531.284 2.065.857.535.574.803 1.38.803 2.421 0 .064-.002.158-.006.285h-4.701c.038.694.235 1.223.59 1.591.351.367.792.551 1.318.551.392 0 .726-.104 1.004-.309.27-.201.49-.529.652-.98zm-3.508-1.727h3.519c-.046-.533-.181-.929-.402-1.193a1.634 1.634 0 0 0-1.323-.618c-.492 0-.906.164-1.238.493-.335.329-.52.767-.556 1.318zM362.123 99.972v-6.304h.961v.955c.246-.446.476-.742.68-.884.208-.141.439-.212.688-.212.36 0 .728.114 1.099.341l-.367.99a1.54 1.54 0 0 0-.784-.232c-.235 0-.443.071-.629.21a1.134 1.134 0 0 0-.398.586c-.119.382-.18.796-.18 1.247v3.299l-1.07.004z"/></g><path fill="none" stroke="#000" stroke-width="1" d="M37.373 170.886l-54 76.023M-1.915 245.674l267.534-76.022M44.772 170.886l158.212 72.322M93.839 245.674l180.411-76.022M122.117 245.674l-56.465-74.788M228.796 246.909l63.865-76.023M71.729 172.118l230.712 74.791M324.552 245.674l-23.344-76.022"/><g><path d="M38.027 165.247l3.241-4.604-2.996-4.256h1.876l1.36 2.078c.255.394.462.726.618.992.245-.367.47-.693.675-.975l1.494-2.097h1.795l-3.063 4.174 3.294 4.69H44.48l-1.818-2.754-.488-.743-2.328 3.497-1.819-.002z"/></g><g><path d="M90 262.412l3.238-4.604-2.992-4.257h1.877l1.359 2.079c.255.393.462.726.618.992.244-.366.469-.695.675-.976l1.494-2.096h1.792l-3.063 4.173 3.297 4.691H96.45l-1.818-2.755-.484-.743-2.328 3.498-1.82-.002z"/></g><g><path d="M295.959 262.412l3.237-4.604-2.992-4.257h1.878l1.36 2.079c.255.393.461.726.617.992.245-.366.47-.695.677-.976l1.493-2.096h1.79l-3.061 4.173 3.296 4.691h-1.846l-1.817-2.755-.484-.743-2.329 3.498-1.819-.002z"/></g><g><path d="M-33.239 262.412l3.236-4.604-2.992-4.257h1.875l1.359 2.079c.257.393.462.726.618.992.244-.366.469-.695.675-.976l1.494-2.096h1.792l-3.062 4.172 3.297 4.691h-1.844l-1.819-2.755-.484-.743-2.328 3.498-1.817-.001z"/></g><g><path d="M265.302 165.247l3.241-4.604-2.997-4.256h1.878l1.36 2.078c.256.394.462.726.617.992.246-.367.47-.693.677-.975l1.493-2.097h1.79l-3.063 4.174 3.298 4.69h-1.846l-1.819-2.754-.482-.743-2.329 3.497-1.818-.002z"/></g><g><path d="M193.949 262.412l3.238-4.604-2.993-4.257h1.878l1.359 2.079c.257.393.462.726.618.992.245-.366.469-.695.676-.976l1.493-2.096h1.791l-3.063 4.173 3.296 4.691h-1.844l-1.819-2.755-.483-.743-2.329 3.498-1.818-.002z"/></g><g><path d="M-9.895 262.412l3.238-4.604-2.996-4.257h1.88l1.36 2.079c.256.393.462.726.618.992.241-.366.469-.695.675-.976l1.494-2.096h1.792l-3.063 4.173 3.297 4.691h-1.845l-1.818-2.755-.484-.743-2.329 3.498-1.819-.002z"/></g><g><path d="M288.646 165.247l3.238-4.604-2.993-4.256h1.879l1.359 2.078c.256.394.461.726.617.992.245-.367.471-.693.677-.975l1.494-2.097h1.79l-3.063 4.174 3.297 4.69h-1.845l-1.818-2.754-.484-.743-2.329 3.497-1.819-.002z"/></g><g><path d="M217.381 262.412l3.238-4.604-2.997-4.257h1.878l1.363 2.079c.256.393.461.726.618.992.241-.366.469-.695.676-.976l1.49-2.096h1.794l-3.063 4.173 3.295 4.691h-1.842l-1.818-2.755-.487-.743-2.324 3.498-1.821-.002z"/></g><g><path d="M64.948 168.66l-.167-1.41c.328.087.614.132.856.132.337 0 .601-.056.804-.168.201-.11.365-.267.493-.467.095-.151.248-.523.46-1.116.028-.082.075-.207.134-.368l-3.363-8.878h1.619l1.844 5.131c.236.652.45 1.336.642 2.054.173-.691.378-1.365.618-2.02l1.895-5.164h1.499l-3.372 9.011c-.358.975-.643 1.643-.843 2.012-.266.493-.573.856-.915 1.09-.344.23-.756.345-1.234.345-.292 0-.614-.063-.97-.184z"/></g><g><path d="M117.01 265.825l-.167-1.412c.327.09.614.131.858.131.333 0 .599-.056.802-.166.203-.111.364-.267.494-.468.091-.15.245-.523.456-1.116.028-.082.076-.205.134-.366l-3.363-8.879h1.619l1.845 5.13c.24.649.454 1.335.642 2.052.176-.689.382-1.362.618-2.02l1.895-5.162h1.502l-3.371 9.011c-.363.971-.646 1.642-.843 2.009-.27.493-.577.856-.918 1.089-.345.232-.756.347-1.236.347-.288.005-.611-.057-.967-.18z"/></g><g><path d="M322.881 265.825l-.172-1.412c.332.09.616.131.86.131.334 0 .601-.056.802-.166a1.37 1.37 0 0 0 .493-.468c.095-.15.248-.523.46-1.116.025-.082.073-.205.13-.366l-3.36-8.879h1.619l1.842 5.13c.239.649.452 1.335.646 2.052.172-.689.377-1.362.616-2.02l1.895-5.162h1.502l-3.373 9.011c-.36.971-.641 1.642-.842 2.009-.268.493-.574.856-.918 1.089-.346.232-.758.347-1.235.347-.287.005-.61-.057-.965-.18z"/></g></svg>