<svg version="1.1" xmlns="http://www.w3.org/2000/svg" x="0" y="0" viewBox="0 0 708.7 115" xml:space="preserve"><style type="text/css">.st0,.st1{fill:#e6e7e8;stroke:#231f20;stroke-width:.25;stroke-miterlimit:10}.st1{fill:none}.st2{fill:#231f20}</style><g id="text"><path class="st0" d="M7.9 8h38.8v24.7H7.9zM46.7 8h19.9v24.7H46.7zM66.6 8h32.2v24.7H66.6zM98.9 8h45.4v24.7H98.9zM144.3 8h45.1v24.7h-45.1zM189.4 8h35.7v24.7h-35.7z"/><path class="st0" d="M225 8h78.3v24.7H225zM303.3 8h58v24.7h-58zM361.3 8h63.6v24.7h-63.6z"/><path class="st0" d="M424.8 8h98v24.7h-98zM522.8 8h79.4v24.7h-79.4zM602.2 8h38.1v24.7h-38.1z"/><path class="st1" d="M7.9 32.8h38.8v24.7H7.9zM46.7 32.8h19.9v24.7H46.7zM66.6 32.8h32.2v24.7H66.6zM98.9 32.8h45.4v24.7H98.9zM144.3 32.8h45.1v24.7h-45.1zM189.4 32.8h35.7v24.7h-35.7z"/><path class="st1" d="M225 32.8h78.3v24.7H225zM303.3 32.8h58v24.7h-58zM361.3 32.8h63.6v24.7h-63.6z"/><path class="st1" d="M424.8 32.8h98v24.7h-98zM522.8 32.8h79.4v24.7h-79.4zM602.2 32.8h38.1v24.7h-38.1zM7.9 57.5h38.8v24.7H7.9zM46.7 57.5h19.9v24.7H46.7zM66.6 57.5h32.2v24.7H66.6zM98.9 57.5h45.4v24.7H98.9zM144.3 57.5h45.1v24.7h-45.1zM189.4 57.5h35.7v24.7h-35.7z"/><path class="st1" d="M225 57.5h78.3v24.7H225zM303.3 57.5h58v24.7h-58zM361.3 57.5h63.6v24.7h-63.6z"/><path class="st1" d="M424.8 57.5h98v24.7h-98zM522.8 57.5h79.4v24.7h-79.4zM602.2 57.5h38.1v24.7h-38.1zM7.9 82.2h38.8v24.7H7.9zM46.7 82.2h19.9v24.7H46.7zM66.6 82.2h32.2v24.7H66.6zM98.9 82.2h45.4v24.7H98.9zM144.3 82.2h45.1v24.7h-45.1zM189.4 82.2h35.7v24.7h-35.7z"/><path class="st1" d="M225 82.2h78.3v24.7H225zM303.3 82.2h58v24.7h-58zM361.3 82.2h63.6v24.7h-63.6z"/><path class="st1" d="M424.8 82.2h98v24.7h-98zM522.8 82.2h79.4v24.7h-79.4zM602.2 82.2h38.1v24.7h-38.1z"/><path class="st0" d="M640.3 8h60.4v24.7h-60.4z"/><path class="st1" d="M640.3 32.8h60.4v24.7h-60.4zM640.3 57.5h60.4v24.7h-60.4zM640.3 82.2h60.4v24.7h-60.4z"/><path class="st2" d="M22.8 17.6c-.3.1-.8.3-1.5.3-1.6 0-2.8-1-2.8-2.9 0-1.8 1.2-3 2.9-3 .7 0 1.1.2 1.3.3l-.2.6c-.3-.1-.7-.2-1.1-.2-1.3 0-2.2.8-2.2 2.3 0 1.4.8 2.3 2.2 2.3.4 0 .9-.1 1.2-.2l.2.5zM25.8 17.7l-.1-.5c-.2.3-.7.6-1.2.6-.8 0-1.2-.6-1.2-1.2 0-1 .9-1.5 2.4-1.5V15c0-.3-.1-.9-.9-.9-.4 0-.8.1-1.1.3l-.1-.4c.3-.2.8-.4 1.3-.4 1.2 0 1.5.8 1.5 1.7v1.5c0 .4 0 .7.1 1h-.7zm-.1-2c-.8 0-1.7.1-1.7.9 0 .5.3.7.7.7.5 0 .9-.3 1-.7V15.7zM27.5 17c.2.1.6.3 1 .3.5 0 .8-.3.8-.6 0-.4-.2-.5-.8-.7-.7-.3-1.1-.7-1.1-1.1 0-.7.5-1.2 1.4-1.2.4 0 .8.1 1 .3l-.2.5c-.2-.1-.5-.2-.8-.2-.4 0-.7.3-.7.6s.2.5.8.7c.7.3 1.1.6 1.1 1.2 0 .7-.6 1.2-1.5 1.2-.4 0-.9-.1-1.1-.3l.1-.7zM31.3 15.9c0 1 .7 1.4 1.4 1.4.5 0 .8-.1 1.1-.2l.1.5c-.3.1-.7.3-1.3.3-1.2 0-2-.8-2-2s.7-2.2 1.9-2.2c1.3 0 1.7 1.2 1.7 1.9v.3h-2.9zm2.2-.6c0-.5-.2-1.2-1-1.2-.7 0-1.1.7-1.1 1.2h2.1zM13 24.8v-1.1h.7v.7c.2-.4.7-.8 1.3-.8.6 0 1.4.3 1.4 1.7v2.4h-.7v-2.3c0-.7-.2-1.2-.9-1.2-.5 0-.9.3-1 .8 0 .1-.1.2-.1.3v2.4H13v-2.9zM21 26.7v1.1h-.7v-.7c-.2.3-.6.8-1.3.8-.6 0-1.4-.4-1.4-1.8v-2.4h.7V26c0 .8.2 1.3.9 1.3.5 0 .8-.3 1-.7 0-.1.1-.2.1-.4v-2.5h.7v3zM22.3 24.8v-1.1h.6v.7c.2-.4.6-.7 1.3-.7.6 0 1 .3 1.1.8.1-.2.3-.4.5-.5.2-.2.5-.3.9-.3.5 0 1.3.4 1.3 1.8v2.4h-.7v-2.3c0-.8-.3-1.2-.9-1.2-.4 0-.7.3-.9.7 0 .1-.1.2-.1.4V28h-.7v-2.4c0-.6-.3-1.1-.8-1.1s-.8.4-.9.7c0 .1-.1.2-.1.4V28h-.7v-3.2zM29.2 27.8v-5.9h.8v2.5c.3-.5.7-.7 1.4-.7 1 0 1.7.8 1.7 2.1 0 1.4-.9 2.2-1.8 2.2-.6 0-1.1-.2-1.4-.8v.7h-.7zm.8-1.7v.3c.1.5.6.9 1.1.9.8 0 1.2-.6 1.2-1.6 0-.8-.4-1.5-1.2-1.5-.5 0-1 .3-1.1.9v1zM34.4 25.9c0 1 .7 1.4 1.4 1.4.5 0 .8-.1 1.1-.2l.1.5c-.3.1-.7.3-1.3.3-1.2 0-2-.8-2-2s.7-2.2 1.9-2.2c1.3 0 1.7 1.2 1.7 1.9v.3h-2.9zm2.1-.5c0-.5-.2-1.2-1-1.2-.7 0-1.1.7-1.1 1.2h2.1zM38.2 25v-1.3h.6v.8c.2-.5.6-.9 1.1-.9h.2v.7h-.3c-.5 0-.9.4-1 .9v2.5h-.7V25zM26.2 43.6l-1 .5-.1-.6 1.2-.6h.6v5.4h-.7v-4.7zM24.6 72.9v-.5l.6-.6c1.4-1.3 2-2 2-2.8 0-.6-.3-1.1-1.1-1.1-.5 0-.9.3-1.2.5l-.2-.5c.4-.3.9-.6 1.5-.6 1.2 0 1.7.8 1.7 1.6 0 1-.7 1.8-1.9 2.9l-.4.4H28v.6h-3.4zM24.8 97.1c.2.1.7.3 1.2.3.9 0 1.2-.6 1.2-1.1 0-.8-.7-1.1-1.4-1.1h-.4v-.6h.4c.5 0 1.2-.3 1.2-.9 0-.4-.3-.8-1-.8-.4 0-.9.2-1.1.4l-.2-.5c.3-.2.8-.4 1.4-.4 1.1 0 1.6.6 1.6 1.3 0 .6-.3 1-1 1.3.7.1 1.2.6 1.2 1.4 0 .9-.7 1.6-2 1.6-.6 0-1.1-.2-1.4-.4l.3-.5zM56 43.6h-2.1l-.2 1.4h.4c.4 0 .8.1 1.2.3.4.2.8.7.8 1.4 0 1.1-.8 1.9-2 1.9-.6 0-1.1-.2-1.4-.3l.2-.6c.2.1.7.3 1.2.3.7 0 1.3-.5 1.3-1.2s-.5-1.2-1.6-1.2c-.3 0-.6 0-.8.1l.4-2.6H56v.5zM60.6 42.9v.5l-2.4 5h-.8l2.4-4.8h-2.7V43h3.5zM114.6 43.5h-.6c-1.2.2-1.8 1-1.9 1.9.3-.3.7-.6 1.3-.6 1 0 1.6.7 1.6 1.8 0 1-.7 1.9-1.8 1.9-1.2 0-1.9-.9-1.9-2.3 0-1.1.4-1.9.9-2.5.5-.4 1.1-.7 1.7-.8h.5v.6zm-.2 3.1c0-.8-.4-1.2-1.1-1.2-.4 0-.9.3-1.1.7 0 .1-.1.2-.1.3 0 .9.4 1.6 1.2 1.6.7-.1 1.1-.6 1.1-1.4zM119 42.7h.7v3.8c0 1.5-.7 2-1.7 2-.3 0-.6-.1-.8-.1l.1-.6c.2.1.4.1.6.1.7 0 1-.3 1-1.4v-3.8zM124.3 47.3v1.1h-.7v-.7c-.2.3-.6.8-1.3.8-.6 0-1.4-.4-1.4-1.8v-2.4h.7v2.2c0 .8.2 1.3.9 1.3.5 0 .8-.3 1-.7 0-.1.1-.2.1-.4v-2.5h.7v3.1zM125.5 42.4h.7v5.9h-.7v-5.9zM127.7 44.3l.9 2.4c.1.3.2.6.3.8.1-.2.2-.6.3-.8l.8-2.4h.8l-1.1 2.9c-.5 1.4-.9 2.1-1.4 2.5-.4.3-.7.4-.9.5l-.2-.6c.2-.1.4-.2.6-.4.2-.2.5-.4.6-.8 0-.1.1-.1.1-.2V48l-1.5-3.7h.7zM107.9 72.9v-.5l.6-.6c1.4-1.3 2-2 2-2.8 0-.6-.3-1.1-1.1-1.1-.5 0-.9.3-1.2.5l-.2-.5c.4-.3.9-.6 1.5-.6 1.2 0 1.7.8 1.7 1.6 0 1-.7 1.8-1.9 2.9l-.4.4h2.4v.6h-3.4zM115.4 68.1h-2.1l-.2 1.4h.4c.4 0 .8.1 1.2.3.4.2.8.7.8 1.4 0 1.1-.8 1.9-2 1.9-.6 0-1.1-.2-1.4-.3l.2-.6c.2.1.7.3 1.2.3.7 0 1.3-.5 1.3-1.2s-.5-1.2-1.6-1.2c-.3 0-.6 0-.8.1l.4-2.6h2.6v.5zM119.7 67.3h.7V71c0 1.5-.7 2-1.7 2-.3 0-.6-.1-.8-.1l.1-.6c.2.1.4.1.6.1.7 0 1-.3 1-1.4v-3.7zM125 71.8v1.1h-.7v-.7c-.2.3-.6.8-1.3.8-.6 0-1.4-.4-1.4-1.8v-2.4h.7V71c0 .8.2 1.3.9 1.3.5 0 .8-.3 1-.7 0-.1.1-.2.1-.4v-2.5h.7v3.1zM126.2 69.9v-1.1h.7v.7c.2-.4.7-.8 1.3-.8.6 0 1.4.3 1.4 1.7v2.4h-.7v-2.3c0-.7-.2-1.2-.9-1.2-.5 0-.9.3-1 .8 0 .1-.1.2-.1.3v2.4h-.7v-2.9zM131.2 71c0 1 .7 1.4 1.4 1.4.5 0 .8-.1 1.1-.2l.1.5c-.3.1-.7.3-1.3.3-1.2 0-2-.8-2-2s.7-2.2 1.9-2.2c1.3 0 1.7 1.2 1.7 1.9v.3h-2.9zm2.2-.5c0-.5-.2-1.2-1-1.2-.7 0-1.1.7-1.1 1.2h2.1zM108.1 97.1c.2.1.7.3 1.2.3.9 0 1.2-.6 1.2-1.1 0-.8-.7-1.1-1.4-1.1h-.4v-.6h.4c.5 0 1.2-.3 1.2-.9 0-.4-.3-.8-1-.8-.4 0-.9.2-1.1.4l-.2-.5c.3-.2.8-.4 1.4-.4 1.1 0 1.6.6 1.6 1.3 0 .6-.3 1-1 1.3.7.1 1.2.6 1.2 1.4 0 .9-.7 1.6-2 1.6-.6 0-1.1-.2-1.4-.4l.3-.5zM115.8 95.2c0 1.8-.7 2.9-1.9 2.9-1.1 0-1.8-1-1.8-2.8 0-1.8.8-2.8 1.9-2.8 1.2-.1 1.8 1 1.8 2.7zm-2.9.1c0 1.4.4 2.2 1.1 2.2.8 0 1.1-.9 1.1-2.3 0-1.3-.3-2.2-1.1-2.2-.7 0-1.1.8-1.1 2.3zM119.7 92.3h.7v3.8c0 1.5-.7 2-1.7 2-.3 0-.6-.1-.8-.1l.1-.6c.2.1.4.1.6.1.7 0 1-.3 1-1.4v-3.8zM125 96.9V98h-.7v-.7c-.2.3-.6.8-1.3.8-.6 0-1.4-.4-1.4-1.8v-2.4h.7v2.2c0 .8.2 1.3.9 1.3.5 0 .8-.3 1-.7 0-.1.1-.2.1-.4v-2.5h.7v3.1zM126.2 95v-1.1h.7v.7c.2-.4.7-.8 1.3-.8.6 0 1.4.3 1.4 1.7V98h-.7v-2.3c0-.7-.2-1.2-.9-1.2-.5 0-.9.3-1 .8 0 .1-.1.2-.1.3V98h-.7v-3zM131.2 96.1c0 1 .7 1.4 1.4 1.4.5 0 .8-.1 1.1-.2l.1.5c-.3.1-.7.3-1.3.3-1.2 0-2-.8-2-2s.7-2.2 1.9-2.2c1.3 0 1.7 1.2 1.7 1.9v.3h-2.9zm2.2-.6c0-.5-.2-1.2-1-1.2-.7 0-1.1.7-1.1 1.2h2.1zM55.9 68h-.6c-1.2.2-1.8 1-1.9 1.9.3-.3.7-.6 1.3-.6 1 0 1.6.7 1.6 1.8 0 1-.7 1.9-1.8 1.9-1.2 0-1.9-.9-1.9-2.3 0-1.1.4-1.9.9-2.5.5-.4 1.1-.7 1.7-.8h.5v.6zm-.3 3.1c0-.8-.4-1.2-1.1-1.2-.4 0-.9.3-1.1.7 0 .1-.1.2-.1.3 0 .9.4 1.6 1.2 1.6.7-.1 1.1-.6 1.1-1.4zM58.6 68.1l-1 .5-.1-.6 1.2-.6h.6v5.4h-.7v-4.7zM56.3 92.5v.5l-2.4 5h-.8l2.4-4.8h-2.7v-.6h3.5zM60.1 93h-.6c-1.2.2-1.8 1-1.9 1.9.3-.3.7-.6 1.3-.6 1 0 1.6.7 1.6 1.8 0 1-.7 1.9-1.8 1.9-1.2 0-1.9-.9-1.9-2.3 0-1.1.4-1.9.9-2.5.5-.4 1.1-.7 1.7-.8h.5v.6zm-.2 3.2c0-.8-.4-1.2-1.1-1.2-.4 0-.9.3-1.1.7 0 .1-.1.2-.1.3 0 .9.4 1.6 1.2 1.6.7-.1 1.1-.6 1.1-1.4zM81.4 42.7h3v.6h-2.3v1.9h2.1v.6h-2.1v2.6h-.7v-5.7zM84.8 70.4c0-.8-.1-1.7-.1-2.4-.2.7-.4 1.4-.7 2.1l-1 2.7h-.6l-.9-2.7c-.3-.8-.5-1.5-.7-2.2 0 .7-.1 1.6-.1 2.5l-.2 2.4h-.7l.4-5.6h.9l1 2.7c.2.7.4 1.3.6 1.9.1-.6.3-1.2.6-1.9l1-2.7h.9l.4 5.6H85l-.2-2.4zM81.4 92.3h3v.6h-2.3v1.9h2.1v.6h-2.1V98h-.7v-5.7zM51.3 21.5l-.6 1.8h-.8l1.9-5.6h.9l1.9 5.6h-.8l-.6-1.8h-1.9zm1.8-.5l-.6-1.6c-.1-.4-.2-.7-.3-1-.1.3-.2.7-.3 1l-.5 1.6h1.7zM58.8 19.3v3.4c0 .9-.2 1.5-.6 1.8-.4.4-1 .5-1.5.5s-1-.1-1.3-.3l.2-.6c.3.2.7.3 1.2.3.8 0 1.3-.4 1.3-1.4v-.5c-.2.4-.7.7-1.3.7-1 0-1.7-.9-1.7-2 0-1.4.9-2.1 1.8-2.1.7 0 1.1.4 1.3.7v-.6h.6zm-.7 1.6v-.3c-.1-.4-.5-.8-1-.8-.7 0-1.2.6-1.2 1.5 0 .8.4 1.5 1.2 1.5.5 0 .9-.3 1-.8 0-.1.1-.3.1-.4v-.7zM60.4 21.4c0 1 .7 1.4 1.4 1.4.5 0 .8-.1 1.1-.2l.1.5c-.3.1-.7.3-1.3.3-1.2 0-2-.8-2-2s.7-2.2 1.9-2.2c1.3 0 1.7 1.2 1.7 1.9v.3h-2.9zm2.2-.5c0-.5-.2-1.2-1-1.2-.7 0-1.1.7-1.1 1.2h2.1zM74.8 23.1c-.3.1-1 .3-1.7.3-.9 0-1.6-.2-2.1-.7-.5-.5-.8-1.2-.8-2.1 0-1.7 1.2-2.9 3.1-2.9.7 0 1.2.1 1.4.3l-.2.6c-.3-.1-.7-.2-1.2-.2-1.4 0-2.3.9-2.3 2.3s.9 2.3 2.2 2.3c.5 0 .8-.1 1-.2v-1.7h-1.1v-.6H75v2.6zM76.3 21.4c0 1 .7 1.4 1.4 1.4.5 0 .8-.1 1.1-.2l.1.5c-.3.1-.7.3-1.3.3-1.2 0-2-.8-2-2s.7-2.2 1.9-2.2c1.3 0 1.7 1.2 1.7 1.9v.3h-2.9zm2.2-.5c0-.5-.2-1.2-1-1.2-.7 0-1.1.7-1.1 1.2h2.1zM80.1 20.4v-1.1h.7v.7c.2-.4.7-.8 1.3-.8.6 0 1.4.3 1.4 1.7v2.4h-.7V21c0-.7-.2-1.2-.9-1.2-.5 0-.9.3-1 .8 0 .1-.1.2-.1.3v2.4h-.7v-2.9zM88.2 17.4v5.9h-.7v-.7c-.2.5-.7.8-1.4.8-1 0-1.7-.8-1.7-2.1s.8-2.2 1.8-2.2c.6 0 1 .3 1.2.6v-2.4h.8zm-.7 3.5v-.3c-.1-.5-.5-.9-1.1-.9-.8 0-1.2.7-1.2 1.6 0 .8.4 1.5 1.2 1.5.5 0 .9-.3 1.1-.9v-1zM89.9 21.4c0 1 .7 1.4 1.4 1.4.5 0 .8-.1 1.1-.2l.1.5c-.3.1-.7.3-1.3.3-1.2 0-2-.8-2-2s.7-2.2 1.9-2.2c1.3 0 1.7 1.2 1.7 1.9v.3h-2.9zm2.1-.5c0-.5-.2-1.2-1-1.2-.7 0-1.1.7-1.1 1.2H92zM93.6 20.5v-1.3h.6v.8c.2-.5.6-.9 1.1-.9h.2v.7h-.3c-.5 0-.9.4-1 .9v2.5h-.7v-2.7zM104.3 16l-.6 1.8h-.7l1.9-5.6h.9l1.9 5.6h-.8l-.6-1.8h-2zm1.8-.6l-.6-1.6c-.1-.4-.2-.7-.3-1-.1.3-.2.7-.3 1l-.6 1.6h1.8zM111.9 11.8v5.9h-.7V17c-.2.5-.7.8-1.4.8-1 0-1.7-.8-1.7-2.1s.8-2.2 1.8-2.2c.6 0 1 .3 1.2.6v-2.4h.8zm-.8 3.5V15c-.1-.5-.5-.9-1.1-.9-.8 0-1.2.7-1.2 1.6 0 .8.4 1.5 1.2 1.5.5 0 .9-.3 1.1-.9v-1zM113.1 14.8v-1.1h.6v.7c.2-.4.6-.7 1.3-.7.6 0 1 .3 1.1.8.1-.2.3-.4.5-.5.2-.2.5-.3.9-.3.5 0 1.3.4 1.3 1.8v2.4h-.7v-2.3c0-.8-.3-1.2-.9-1.2-.4 0-.7.3-.9.7 0 .1-.1.2-.1.4V18h-.7v-2.4c0-.6-.3-1.1-.8-1.1s-.8.4-.9.7c0 .1-.1.2-.1.4V18h-.7v-3.2zM120.9 12.6c0 .3-.2.5-.5.5s-.4-.2-.4-.5.2-.5.5-.5c.2 0 .4.2.4.5zm-.9 5.1v-4h.7v4h-.7zM121.9 17c.2.1.6.3 1 .3.5 0 .8-.3.8-.6 0-.4-.2-.5-.8-.7-.7-.3-1.1-.7-1.1-1.1 0-.7.5-1.2 1.4-1.2.4 0 .8.1 1 .3l-.2.5c-.2-.1-.5-.2-.8-.2-.4 0-.7.3-.7.6s.2.5.8.7c.7.3 1.1.6 1.1 1.2 0 .7-.6 1.2-1.5 1.2-.4 0-.9-.1-1.1-.3l.1-.7zM125.2 17c.2.1.6.3 1 .3.5 0 .8-.3.8-.6 0-.4-.2-.5-.8-.7-.7-.3-1.1-.7-1.1-1.1 0-.7.5-1.2 1.4-1.2.4 0 .8.1 1 .3l-.2.5c-.2-.1-.5-.2-.8-.2-.4 0-.7.3-.7.6s.2.5.8.7c.7.3 1.1.6 1.1 1.2 0 .7-.6 1.2-1.5 1.2-.4 0-.9-.1-1.1-.3l.1-.7zM129.4 12.6c0 .3-.2.5-.5.5s-.4-.2-.4-.5.2-.5.5-.5.4.2.4.5zm-.8 5.1v-4h.7v4h-.7zM134.2 15.7c0 1.5-1 2.1-2 2.1-1.1 0-1.9-.8-1.9-2.1 0-1.4.9-2.1 2-2.1 1.2 0 1.9.8 1.9 2.1zm-3.2 0c0 .9.5 1.6 1.2 1.6s1.2-.7 1.2-1.6c0-.7-.3-1.6-1.2-1.6-.8.1-1.2.9-1.2 1.6zM135.2 14.8v-1.1h.7v.7c.2-.4.7-.8 1.3-.8.6 0 1.4.3 1.4 1.7v2.4h-.7v-2.3c0-.7-.2-1.2-.9-1.2-.5 0-.9.3-1 .8 0 .1-.1.2-.1.3v2.4h-.7v-2.9zM117.3 21.8v5.9h-.7V27c-.2.5-.7.8-1.4.8-1 0-1.7-.8-1.7-2.1s.8-2.2 1.8-2.2c.6 0 1 .3 1.2.6v-2.4h.8zm-.8 3.6v-.3c-.1-.5-.5-.9-1.1-.9-.8 0-1.2.7-1.2 1.6 0 .8.4 1.5 1.2 1.5.5 0 .9-.3 1.1-.9v-1zM120.7 27.8l-.1-.5c-.2.3-.7.6-1.2.6-.8 0-1.2-.6-1.2-1.2 0-1 .9-1.5 2.4-1.5v-.1c0-.3-.1-.9-.9-.9-.4 0-.8.1-1.1.3l-.2-.5c.3-.2.8-.4 1.3-.4 1.2 0 1.5.8 1.5 1.7v1.5c0 .4 0 .7.1 1h-.6zm-.1-2.1c-.8 0-1.7.1-1.7.9 0 .5.3.7.7.7.5 0 .9-.3 1-.7V25.7zM123.4 22.6v1.2h1.1v.6h-1.1v2.2c0 .5.1.8.6.8.2 0 .3 0 .4-.1v.6c-.1.1-.4.1-.7.1-.3 0-.6-.1-.8-.3-.2-.2-.3-.6-.3-1.1v-2.2h-.6v-.6h.6v-1l.8-.2zM125.6 25.9c0 1 .7 1.4 1.4 1.4.5 0 .8-.1 1.1-.2l.1.5c-.3.1-.7.3-1.3.3-1.2 0-2-.8-2-2s.7-2.2 1.9-2.2c1.3 0 1.7 1.2 1.7 1.9v.3h-2.9zm2.2-.5c0-.5-.2-1.2-1-1.2-.7 0-1.1.7-1.1 1.2h2.1z"/><g><path class="st2" d="M154.3 14.9c0 1.9-1.2 3-2.6 3-1.5 0-2.5-1.2-2.5-2.9 0-1.8 1.1-3 2.6-3s2.5 1.2 2.5 2.9zm-4.4.1c0 1.2.7 2.3 1.8 2.3 1.2 0 1.8-1.1 1.8-2.3 0-1.1-.6-2.3-1.8-2.3-1.2-.1-1.8 1-1.8 2.3zM155.2 15v-1.3h.7v.7c.3-.5.8-.8 1.4-.8 1 0 1.7.8 1.7 2.1 0 1.5-.9 2.2-1.8 2.2-.5 0-1-.2-1.2-.6v2.2h-.7V15zm.7 1.1v.3c.1.5.6.9 1.1.9.8 0 1.2-.6 1.2-1.6 0-.8-.4-1.5-1.2-1.5-.5 0-1 .4-1.1.9 0 .1-.1.2-.1.3v.7zM160.3 15.9c0 1 .7 1.4 1.4 1.4.5 0 .8-.1 1.1-.2l.1.5c-.3.1-.7.3-1.3.3-1.2 0-2-.8-2-2s.7-2.2 1.9-2.2c1.3 0 1.7 1.2 1.7 1.9v.3h-2.9zm2.2-.6c0-.5-.2-1.2-1-1.2-.7 0-1.1.7-1.1 1.2h2.1zM164.1 15v-1.3h.6v.8c.2-.5.6-.9 1.1-.9h.2v.7h-.2c-.5 0-.9.4-1 .9v2.5h-.7V15zM169.1 17.7l-.1-.5c-.2.3-.7.6-1.2.6-.8 0-1.2-.6-1.2-1.2 0-1 .9-1.5 2.4-1.5V15c0-.3-.1-.9-.9-.9-.4 0-.8.1-1.1.3l-.2-.5c.3-.2.8-.4 1.3-.4 1.2 0 1.5.8 1.5 1.7v1.5c0 .4 0 .7.1 1h-.6zm-.2-2c-.8 0-1.7.1-1.7.9 0 .5.3.7.7.7.5 0 .9-.3 1-.7V15.7zM171.7 12.5v1.2h1.1v.6h-1.1v2.2c0 .5.1.8.6.8h.4v.6c-.1.1-.4.1-.7.1-.3 0-.6-.1-.8-.3-.2-.2-.3-.6-.3-1.1v-2.2h-.6v-.6h.6v-1l.8-.3zM174.4 12.6c0 .3-.2.5-.5.5s-.4-.2-.4-.5.2-.5.5-.5c.2 0 .4.2.4.5zm-.8 5.1v-4h.7v4h-.7zM179.2 15.7c0 1.5-1 2.1-2 2.1-1.1 0-1.9-.8-1.9-2.1 0-1.4.9-2.1 2-2.1s1.9.8 1.9 2.1zm-3.2 0c0 .9.5 1.6 1.2 1.6s1.2-.7 1.2-1.6c0-.7-.3-1.6-1.2-1.6-.8.1-1.2.9-1.2 1.6zM180.1 14.8v-1.1h.7v.7c.2-.4.7-.8 1.3-.8.6 0 1.4.3 1.4 1.7v2.4h-.7v-2.3c0-.7-.2-1.2-.9-1.2-.5 0-.9.3-1 .8V17.7h-.7v-2.9zM162.8 21.8v5.9h-.7V27c-.2.5-.7.8-1.4.8-1 0-1.7-.8-1.7-2.1s.8-2.2 1.8-2.2c.6 0 1 .3 1.2.6v-2.4h.8zm-.8 3.6v-.3c-.1-.5-.5-.9-1.1-.9-.8 0-1.2.7-1.2 1.6 0 .8.4 1.5 1.2 1.5.5 0 .9-.3 1.1-.9v-1zM166.2 27.8l-.1-.5c-.2.3-.7.6-1.2.6-.8 0-1.2-.6-1.2-1.2 0-1 .9-1.5 2.4-1.5v-.1c0-.3-.1-.9-.9-.9-.4 0-.8.1-1.1.3l-.1-.5c.3-.2.8-.4 1.3-.4 1.2 0 1.5.8 1.5 1.7v1.5c0 .4 0 .7.1 1h-.7zm-.1-2.1c-.8 0-1.7.1-1.7.9 0 .5.3.7.7.7.5 0 .9-.3 1-.7V25.7zM168.9 22.6v1.2h1.1v.6h-1.1v2.2c0 .5.1.8.6.8.2 0 .3 0 .4-.1v.6c-.1.1-.4.1-.7.1-.3 0-.6-.1-.8-.3-.2-.2-.3-.6-.3-1.1v-2.2h-.6v-.6h.6v-1l.8-.2zM171.1 25.9c0 1 .7 1.4 1.4 1.4.5 0 .8-.1 1.1-.2l.1.5c-.3.1-.7.3-1.3.3-1.2 0-2-.8-2-2s.7-2.2 1.9-2.2c1.3 0 1.7 1.2 1.7 1.9v.3h-2.9zm2.2-.5c0-.5-.2-1.2-1-1.2-.7 0-1.1.7-1.1 1.2h2.1z"/></g><g><path class="st2" d="M193.4 17.8c.4-.1 1-.1 1.5-.1 1 0 1.8.2 2.3.7.5.5.8 1.1.8 2 0 .9-.3 1.7-.8 2.2-.5.5-1.4.8-2.5.8-.5 0-1 0-1.3-.1v-5.5zm.7 4.9h.7c1.6 0 2.4-.9 2.4-2.4 0-1.3-.7-2.2-2.3-2.2-.4 0-.7 0-.9.1v4.5zM199.8 18.1c0 .3-.2.5-.5.5s-.4-.2-.4-.5.2-.5.5-.5c.2.1.4.3.4.5zm-.9 5.2v-4h.7v4h-.7zM203.1 23.3l-.1-.5c-.2.3-.7.6-1.2.6-.8 0-1.2-.6-1.2-1.2 0-1 .9-1.5 2.4-1.5v-.1c0-.3-.1-.9-.9-.9-.4 0-.8.1-1.1.3l-.2-.5c.3-.2.8-.4 1.3-.4 1.2 0 1.5.8 1.5 1.7v1.5c0 .4 0 .7.1 1h-.6zm-.1-2.1c-.8 0-1.7.1-1.7.9 0 .5.3.7.7.7.5 0 .9-.3 1-.7V21.2zM204.9 23.3v-5.9h.7v2.5c.3-.5.7-.7 1.4-.7 1 0 1.7.8 1.7 2.1 0 1.4-.9 2.2-1.8 2.2-.6 0-1.1-.2-1.4-.8v.7h-.6zm.7-1.6v.3c.1.5.6.9 1.1.9.8 0 1.2-.6 1.2-1.6 0-.8-.4-1.5-1.2-1.5-.5 0-1 .3-1.1.9v1zM210.1 21.4c0 1 .7 1.4 1.4 1.4.5 0 .8-.1 1.1-.2l.1.5c-.3.1-.7.3-1.3.3-1.2 0-2-.8-2-2s.7-2.2 1.9-2.2c1.3 0 1.7 1.2 1.7 1.9v.3h-2.9zm2.1-.5c0-.5-.2-1.2-1-1.2-.7 0-1.1.7-1.1 1.2h2.1zM214.7 18.1v1.2h1.1v.6h-1.1V22c0 .5.1.8.6.8.2 0 .3 0 .4-.1v.6c-.1.1-.4.1-.7.1-.3 0-.6-.1-.8-.3-.2-.2-.3-.6-.3-1.1v-2.2h-.6v-.6h.6v-1l.8-.1zM217.4 18.1c0 .3-.2.5-.5.5s-.4-.2-.4-.5.2-.5.5-.5c.3.1.4.3.4.5zm-.8 5.2v-4h.7v4h-.7zM221.5 23.2c-.2.1-.6.2-1.2.2-1.2 0-2-.8-2-2.1 0-1.2.9-2.1 2.2-2.1.4 0 .8.1 1 .2l-.2.6c-.2-.1-.5-.2-.9-.2-.9 0-1.4.7-1.4 1.5 0 .9.6 1.5 1.4 1.5.4 0 .7-.1.9-.2l.2.6z"/></g><g><path class="st2" d="M231.5 22.4c.3.2.8.4 1.3.4.7 0 1.2-.4 1.2-1 0-.5-.3-.8-1.1-1.1-.9-.3-1.5-.8-1.5-1.6 0-.9.7-1.5 1.8-1.5.6 0 1 .1 1.2.3l-.2.6c-.2-.1-.6-.3-1.1-.3-.8 0-1.1.5-1.1.8 0 .5.3.8 1.1 1.1 1 .4 1.4.8 1.4 1.7 0 .9-.6 1.6-2 1.6-.5 0-1.1-.2-1.4-.4l.4-.6zM239.1 22.2v1.1h-.7v-.7c-.2.3-.6.8-1.3.8-.6 0-1.4-.4-1.4-1.8v-2.4h.7v2.2c0 .8.2 1.3.9 1.3.5 0 .8-.3 1-.7 0-.1.1-.2.1-.4v-2.5h.7v3.1zM240.3 20.5v-1.3h.6v.8c.2-.5.6-.9 1.1-.9h.2v.7h-.3c-.5 0-.9.4-1 .9v2.5h-.7v-2.7zM246.5 19.3v3.4c0 .9-.2 1.5-.6 1.8-.4.4-1 .5-1.5.5s-1-.1-1.3-.3l.2-.6c.3.2.7.3 1.2.3.8 0 1.3-.4 1.3-1.4v-.5c-.2.4-.7.7-1.3.7-1 0-1.7-.9-1.7-2 0-1.4.9-2.1 1.8-2.1.7 0 1.1.4 1.3.7v-.6h.6zm-.8 1.6v-.3c-.1-.4-.5-.8-1-.8-.7 0-1.2.6-1.2 1.5 0 .8.4 1.5 1.2 1.5.5 0 .9-.3 1-.8 0-.1.1-.3.1-.4v-.7zM248.4 18.1c0 .3-.2.5-.5.5s-.4-.2-.4-.5.2-.5.5-.5c.2.1.4.3.4.5zm-.8 5.2v-4h.7v4h-.7zM252.4 23.2c-.2.1-.6.2-1.2.2-1.2 0-2-.8-2-2.1 0-1.2.9-2.1 2.2-2.1.4 0 .8.1 1 .2l-.2.6c-.2-.1-.5-.2-.9-.2-.9 0-1.4.7-1.4 1.5 0 .9.6 1.5 1.4 1.5.4 0 .7-.1.9-.2l.2.6zM255.5 23.3l-.1-.5c-.2.3-.7.6-1.2.6-.8 0-1.2-.6-1.2-1.2 0-1 .9-1.5 2.4-1.5v-.1c0-.3-.1-.9-.9-.9-.4 0-.8.1-1.1.3l-.2-.5c.3-.2.8-.4 1.3-.4 1.2 0 1.5.8 1.5 1.7v1.5c0 .4 0 .7.1 1h-.6zm-.1-2.1c-.8 0-1.7.1-1.7.9 0 .5.3.7.7.7.5 0 .9-.3 1-.7V21.2zM257.3 17.4h.7v5.9h-.7v-5.9zM261.1 20.6v-1.3h.7v.7c.3-.5.8-.8 1.4-.8 1 0 1.7.8 1.7 2.1 0 1.5-.9 2.2-1.8 2.2-.5 0-1-.2-1.2-.6V25h-.7v-4.4zm.7 1.1v.3c.1.5.6.9 1.1.9.8 0 1.2-.6 1.2-1.6 0-.8-.4-1.5-1.2-1.5-.5 0-1 .4-1.1.9v1zM265.8 20.5v-1.3h.6v.8c.2-.5.6-.9 1.1-.9h.2v.7h-.3c-.5 0-.9.4-1 .9v2.5h-.7v-2.7zM272.1 21.3c0 1.5-1 2.1-2 2.1-1.1 0-1.9-.8-1.9-2.1 0-1.4.9-2.1 2-2.1s1.9.8 1.9 2.1zm-3.2 0c0 .9.5 1.6 1.2 1.6s1.2-.7 1.2-1.6c0-.7-.3-1.6-1.2-1.6-.8 0-1.2.8-1.2 1.6zM275.9 23.2c-.2.1-.6.2-1.2.2-1.2 0-2-.8-2-2.1 0-1.2.9-2.1 2.2-2.1.4 0 .8.1 1 .2l-.2.6c-.2-.1-.5-.2-.9-.2-.9 0-1.4.7-1.4 1.5 0 .9.6 1.5 1.4 1.5.4 0 .7-.1.9-.2l.2.6zM277.2 21.4c0 1 .7 1.4 1.4 1.4.5 0 .8-.1 1.1-.2l.1.5c-.3.1-.7.3-1.3.3-1.2 0-2-.8-2-2s.7-2.2 1.9-2.2c1.3 0 1.7 1.2 1.7 1.9v.3h-2.9zm2.1-.5c0-.5-.2-1.2-1-1.2-.7 0-1.1.7-1.1 1.2h2.1zM284.4 17.4v5.9h-.7v-.7c-.2.5-.7.8-1.4.8-1 0-1.7-.8-1.7-2.1s.8-2.2 1.8-2.2c.6 0 1 .3 1.2.6v-2.4h.8zm-.7 3.5v-.3c-.1-.5-.5-.9-1.1-.9-.8 0-1.2.7-1.2 1.6 0 .8.4 1.5 1.2 1.5.5 0 .9-.3 1.1-.9v-1zM289 22.2v1.1h-.7v-.7c-.2.3-.6.8-1.3.8-.6 0-1.4-.4-1.4-1.8v-2.4h.7v2.2c0 .8.2 1.3.9 1.3.5 0 .8-.3 1-.7 0-.1.1-.2.1-.4v-2.5h.7v3.1zM290.2 20.5v-1.3h.6v.8c.2-.5.6-.9 1.1-.9h.2v.7h-.2c-.5 0-.9.4-1 .9v2.5h-.7v-2.7zM293.3 21.4c0 1 .7 1.4 1.4 1.4.5 0 .8-.1 1.1-.2l.1.5c-.3.1-.7.3-1.3.3-1.2 0-2-.8-2-2s.7-2.2 1.9-2.2c1.3 0 1.7 1.2 1.7 1.9v.3h-2.9zm2.2-.5c0-.5-.2-1.2-1-1.2-.7 0-1.1.7-1.1 1.2h2.1z"/></g><g><path class="st2" d="M308.3 12.2c.4-.1.8-.1 1.4-.1.7 0 1.2.2 1.6.5.3.3.5.7.5 1.2s-.2.9-.4 1.2c-.4.4-1 .6-1.7.6-.2 0-.4 0-.6-.1v2.3h-.7v-5.6zm.7 2.7c.2 0 .4.1.6.1.9 0 1.4-.4 1.4-1.2 0-.7-.5-1.1-1.3-1.1-.3 0-.6 0-.7.1v2.1zM312.9 15.9c0 1 .7 1.4 1.4 1.4.5 0 .8-.1 1.1-.2l.1.5c-.3.1-.7.3-1.3.3-1.2 0-2-.8-2-2s.7-2.2 1.9-2.2c1.3 0 1.7 1.2 1.7 1.9v.3h-2.9zm2.2-.6c0-.5-.2-1.2-1-1.2-.7 0-1.1.7-1.1 1.2h2.1zM316.7 15v-1.3h.6v.8c.2-.5.6-.9 1.1-.9h.2v.7h-.3c-.5 0-.9.4-1 .9v2.5h-.7V15zM320.3 12.6c0 .3-.2.5-.5.5s-.4-.2-.4-.5.2-.5.5-.5c.2 0 .4.2.4.5zm-.9 5.1v-4h.7v4h-.7zM323.1 15.2v.5H321v-.5h2.1zM327.8 15.7c0 1.5-1 2.1-2 2.1-1.1 0-1.9-.8-1.9-2.1 0-1.4.9-2.1 2-2.1s1.9.8 1.9 2.1zm-3.2 0c0 .9.5 1.6 1.2 1.6s1.2-.7 1.2-1.6c0-.7-.3-1.6-1.2-1.6-.9.1-1.2.9-1.2 1.6zM328.7 15v-1.3h.7v.7c.3-.5.8-.8 1.4-.8 1 0 1.7.8 1.7 2.1 0 1.5-.9 2.2-1.8 2.2-.5 0-1-.2-1.2-.6v2.2h-.7V15zm.7 1.1v.3c.1.5.6.9 1.1.9.8 0 1.2-.6 1.2-1.6 0-.8-.4-1.5-1.2-1.5-.5 0-1 .4-1.1.9v1zM333.9 15.9c0 1 .7 1.4 1.4 1.4.5 0 .8-.1 1.1-.2l.1.5c-.3.1-.7.3-1.3.3-1.2 0-2-.8-2-2s.7-2.2 1.9-2.2c1.3 0 1.7 1.2 1.7 1.9v.3h-2.9zm2.1-.6c0-.5-.2-1.2-1-1.2-.7 0-1.1.7-1.1 1.2h2.1zM337.6 15v-1.3h.6v.8c.2-.5.6-.9 1.1-.9h.2v.7h-.2c-.5 0-.9.4-1 .9v2.5h-.7V15zM342.6 17.7l-.1-.5c-.2.3-.7.6-1.2.6-.8 0-1.2-.6-1.2-1.2 0-1 .9-1.5 2.4-1.5V15c0-.3-.1-.9-.9-.9-.4 0-.8.1-1.1.3l-.2-.5c.3-.2.8-.4 1.3-.4 1.2 0 1.5.8 1.5 1.7v1.5c0 .4 0 .7.1 1h-.6zm-.1-2c-.8 0-1.7.1-1.7.9 0 .5.3.7.7.7.5 0 .9-.3 1-.7V15.7zM345.2 12.5v1.2h1.1v.6h-1.1v2.2c0 .5.1.8.6.8h.4v.6c-.1.1-.4.1-.7.1-.3 0-.6-.1-.8-.3-.2-.2-.3-.6-.3-1.1v-2.2h-.6v-.6h.6v-1l.8-.3zM347.9 12.6c0 .3-.2.5-.5.5s-.4-.2-.4-.5.2-.5.5-.5c.2 0 .4.2.4.5zm-.8 5.1v-4h.7v4h-.7zM349.3 13.7l.8 2.3c.1.4.2.7.3 1 .1-.3.2-.7.3-1l.8-2.3h.8l-1.6 4h-.7l-1.5-4h.8zM353.4 15.9c0 1 .7 1.4 1.4 1.4.5 0 .8-.1 1.1-.2l.1.5c-.3.1-.7.3-1.3.3-1.2 0-2-.8-2-2s.7-2.2 1.9-2.2c1.3 0 1.7 1.2 1.7 1.9v.3h-2.9zm2.2-.6c0-.5-.2-1.2-1-1.2-.7 0-1.1.7-1.1 1.2h2.1zM311.8 27.8v-5.9h.7v2.5c.3-.5.7-.7 1.4-.7 1 0 1.7.8 1.7 2.1 0 1.4-.9 2.2-1.8 2.2-.6 0-1.1-.2-1.4-.8v.7h-.6zm.8-1.7v.3c.1.5.6.9 1.1.9.8 0 1.2-.6 1.2-1.6 0-.8-.4-1.5-1.2-1.5-.5 0-1 .3-1.1.9v1zM316.6 21.8h.7v5.9h-.7v-5.9zM322.2 25.7c0 1.5-1 2.1-2 2.1-1.1 0-1.9-.8-1.9-2.1 0-1.4.9-2.1 2-2.1 1.2 0 1.9.9 1.9 2.1zm-3.2.1c0 .9.5 1.6 1.2 1.6s1.2-.7 1.2-1.6c0-.7-.3-1.6-1.2-1.6-.8 0-1.2.8-1.2 1.6zM326.8 25.7c0 1.5-1 2.1-2 2.1-1.1 0-1.9-.8-1.9-2.1 0-1.4.9-2.1 2-2.1s1.9.9 1.9 2.1zm-3.2.1c0 .9.5 1.6 1.2 1.6s1.2-.7 1.2-1.6c0-.7-.3-1.6-1.2-1.6-.8 0-1.2.8-1.2 1.6zM331.2 21.8v5.9h-.7V27c-.2.5-.7.8-1.4.8-1 0-1.7-.8-1.7-2.1s.8-2.2 1.8-2.2c.6 0 1 .3 1.2.6v-2.4h.8zm-.7 3.6v-.3c-.1-.5-.5-.9-1.1-.9-.8 0-1.2.7-1.2 1.6 0 .8.4 1.5 1.2 1.5.5 0 .9-.3 1.1-.9v-1zM334.1 27c.2.1.6.3 1 .3.5 0 .8-.3.8-.6 0-.4-.2-.5-.8-.7-.7-.3-1.1-.7-1.1-1.1 0-.7.5-1.2 1.4-1.2.4 0 .8.1 1 .3l-.2.5c-.2-.1-.5-.2-.8-.2-.4 0-.7.3-.7.6s.2.5.8.7c.7.3 1.1.6 1.1 1.2 0 .7-.6 1.2-1.5 1.2-.4 0-.9-.1-1.1-.3l.1-.7zM340.9 26.7v1.1h-.7v-.7c-.2.3-.6.8-1.3.8-.6 0-1.4-.4-1.4-1.8v-2.4h.7V26c0 .8.2 1.3.9 1.3.5 0 .8-.3 1-.7 0-.1.1-.2.1-.4v-2.5h.7v3zM345.6 23.7v3.4c0 .9-.2 1.5-.6 1.8-.4.4-1 .5-1.5.5s-1-.1-1.3-.3l.2-.6c.3.2.7.3 1.2.3.8 0 1.3-.4 1.3-1.4v-.5c-.2.4-.7.7-1.3.7-1 0-1.7-.9-1.7-2 0-1.4.9-2.1 1.8-2.1.7 0 1.1.4 1.3.7v-.6h.6zm-.7 1.6V25c-.1-.4-.5-.8-1-.8-.7 0-1.2.6-1.2 1.5 0 .8.4 1.5 1.2 1.5.5 0 .9-.3 1-.8 0-.1.1-.3.1-.4v-.7zM349.1 27.8l-.1-.5c-.2.3-.7.6-1.2.6-.8 0-1.2-.6-1.2-1.2 0-1 .9-1.5 2.4-1.5v-.1c0-.3-.1-.9-.9-.9-.4 0-.8.1-1.1.3l-.2-.5c.3-.2.8-.4 1.3-.4 1.2 0 1.5.8 1.5 1.7v1.5c0 .4 0 .7.1 1h-.6zm-.1-2.1c-.8 0-1.7.1-1.7.9 0 .5.3.7.7.7.5 0 .9-.3 1-.7V25.7zM350.9 25v-1.3h.6v.8c.2-.5.6-.9 1.1-.9h.2v.7h-.2c-.5 0-.9.4-1 .9v2.5h-.7V25z"/></g><g><path class="st2" d="M381.4 12.2c.4-.1 1-.1 1.5-.1 1 0 1.8.2 2.3.7.5.5.8 1.1.8 2 0 .9-.3 1.7-.8 2.2-.5.5-1.4.8-2.5.8-.5 0-1 0-1.3-.1v-5.5zm.7 5h.7c1.6 0 2.4-.9 2.4-2.4 0-1.3-.7-2.2-2.3-2.2-.4 0-.7 0-.9.1v4.5zM389.1 17.7l-.1-.5c-.2.3-.7.6-1.2.6-.8 0-1.2-.6-1.2-1.2 0-1 .9-1.5 2.4-1.5V15c0-.3-.1-.9-.9-.9-.4 0-.8.1-1.1.3l-.2-.5c.3-.2.8-.4 1.3-.4 1.2 0 1.5.8 1.5 1.7v1.5c0 .4 0 .7.1 1h-.6zm-.1-2c-.8 0-1.7.1-1.7.9 0 .5.3.7.7.7.5 0 .9-.3 1-.7V15.7zM391.1 13.7l.9 2.4c.1.3.2.6.3.8.1-.2.2-.6.3-.8l.8-2.4h.8l-1.1 2.9c-.5 1.4-.9 2.1-1.4 2.5-.4.3-.7.4-.9.5l-.2-.6c.2-.1.4-.2.6-.4.2-.2.5-.4.6-.8 0-.1.1-.1.1-.2v-.2l-1.5-3.7h.7zM400.2 15.7c0 1.5-1 2.1-2 2.1-1.1 0-1.9-.8-1.9-2.1 0-1.4.9-2.1 2-2.1s1.9.8 1.9 2.1zm-3.2 0c0 .9.5 1.6 1.2 1.6s1.2-.7 1.2-1.6c0-.7-.3-1.6-1.2-1.6-.8.1-1.2.9-1.2 1.6zM401.2 17.7v-3.5h-.6v-.6h.6v-.2c0-.6.1-1.1.5-1.4.3-.3.6-.4 1-.4.3 0 .5.1.6.1l-.1.6c-.1-.1-.3-.1-.5-.1-.6 0-.8.6-.8 1.2v.2h1v.6h-1v3.5h-.7zM366 27c.2.1.6.3 1 .3.5 0 .8-.3.8-.6 0-.4-.2-.5-.8-.7-.7-.3-1.1-.7-1.1-1.1 0-.7.5-1.2 1.4-1.2.4 0 .8.1 1 .3l-.2.5c-.2-.1-.5-.2-.8-.2-.4 0-.7.3-.7.6s.2.5.8.7c.7.3 1.1.6 1.1 1.2 0 .7-.6 1.2-1.5 1.2-.4 0-.9-.1-1.1-.3l.1-.7zM369.7 23.7l.9 2.4c.1.3.2.6.3.8.1-.2.2-.6.3-.8l.8-2.4h.8l-1.1 2.9c-.5 1.4-.9 2.1-1.4 2.5-.4.3-.7.4-.9.5l-.2-.6c.2-.1.4-.2.6-.4.2-.2.5-.4.6-.8 0-.1.1-.1.1-.2v-.2l-1.5-3.7h.7zM373.4 24.8v-1.1h.6v.7c.2-.4.6-.7 1.3-.7.6 0 1 .3 1.1.8.1-.2.3-.4.5-.5.2-.2.5-.3.9-.3.5 0 1.3.4 1.3 1.8v2.4h-.7v-2.3c0-.8-.3-1.2-.9-1.2-.4 0-.7.3-.9.7 0 .1-.1.2-.1.4V28h-.7v-2.4c0-.6-.3-1.1-.8-1.1s-.8.4-.9.7c0 .1-.1.2-.1.4V28h-.7v-3.2zM380.3 25v-1.3h.7v.7c.3-.5.8-.8 1.4-.8 1 0 1.7.8 1.7 2.1 0 1.5-.9 2.2-1.8 2.2-.5 0-1-.2-1.2-.6v2.2h-.7V25zm.7 1.1v.3c.1.5.6.9 1.1.9.8 0 1.2-.6 1.2-1.6 0-.8-.4-1.5-1.2-1.5-.5 0-1 .4-1.1.9v1zM386 22.6v1.2h1.1v.6H386v2.2c0 .5.1.8.6.8h.4v.6c-.1.1-.4.1-.7.1-.3 0-.6-.1-.8-.3-.2-.2-.3-.6-.3-1.1v-2.2h-.6v-.6h.6v-1l.8-.3zM391.5 25.7c0 1.5-1 2.1-2 2.1-1.1 0-1.9-.8-1.9-2.1 0-1.4.9-2.1 2-2.1s1.9.9 1.9 2.1zm-3.3.1c0 .9.5 1.6 1.2 1.6s1.2-.7 1.2-1.6c0-.7-.3-1.6-1.2-1.6-.8 0-1.2.8-1.2 1.6zM392.4 24.8v-1.1h.6v.7c.2-.4.6-.7 1.3-.7.6 0 1 .3 1.1.8.1-.2.3-.4.5-.5.2-.2.5-.3.9-.3.5 0 1.3.4 1.3 1.8v2.4h-.7v-2.3c0-.8-.3-1.2-.9-1.2-.4 0-.7.3-.9.7 0 .1-.1.2-.1.4V28h-.7v-2.4c0-.6-.3-1.1-.8-1.1s-.8.4-.9.7c0 .1-.1.2-.1.4V28h-.7v-3.2zM404.8 25.7c0 1.5-1 2.1-2 2.1-1.1 0-1.9-.8-1.9-2.1 0-1.4.9-2.1 2-2.1s1.9.9 1.9 2.1zm-3.2.1c0 .9.5 1.6 1.2 1.6s1.2-.7 1.2-1.6c0-.7-.3-1.6-1.2-1.6-.9 0-1.2.8-1.2 1.6zM405.7 24.8v-1.1h.7v.7c.2-.4.7-.8 1.3-.8.6 0 1.4.3 1.4 1.7v2.4h-.7v-2.3c0-.7-.2-1.2-.9-1.2-.5 0-.9.3-1 .8V27.7h-.7v-2.9zM410.2 27c.2.1.6.3 1 .3.5 0 .8-.3.8-.6 0-.4-.2-.5-.8-.7-.7-.3-1.1-.7-1.1-1.1 0-.7.5-1.2 1.4-1.2.4 0 .8.1 1 .3l-.2.5c-.2-.1-.5-.2-.8-.2-.4 0-.7.3-.7.6s.2.5.8.7c.7.3 1.1.6 1.1 1.2 0 .7-.6 1.2-1.5 1.2-.4 0-.9-.1-1.1-.3l.1-.7zM414.1 25.9c0 1 .7 1.4 1.4 1.4.5 0 .8-.1 1.1-.2l.1.5c-.3.1-.7.3-1.3.3-1.2 0-2-.8-2-2s.7-2.2 1.9-2.2c1.3 0 1.7 1.2 1.7 1.9v.3h-2.9zm2.1-.5c0-.5-.2-1.2-1-1.2-.7 0-1.1.7-1.1 1.2h2.1zM418.7 22.6v1.2h1.1v.6h-1.1v2.2c0 .5.1.8.6.8h.4v.6c-.1.1-.4.1-.7.1-.3 0-.6-.1-.8-.3-.2-.2-.3-.6-.3-1.1v-2.2h-.6v-.6h.6v-1l.8-.3z"/></g><g><path class="st2" d="M433.7 20.4c0 1.9-1.2 3-2.6 3-1.5 0-2.5-1.2-2.5-2.9 0-1.8 1.1-3 2.6-3 1.6.1 2.5 1.3 2.5 2.9zm-4.3.1c0 1.2.7 2.3 1.8 2.3 1.2 0 1.8-1.1 1.8-2.3 0-1.1-.6-2.3-1.8-2.3-1.2 0-1.8 1.1-1.8 2.3zM434.7 20.5v-1.3h.6v.8c.2-.5.6-.9 1.1-.9h.2v.7h-.3c-.5 0-.9.4-1 .9v2.5h-.7v-2.7zM440.8 19.3v3.4c0 .9-.2 1.5-.6 1.8-.4.4-1 .5-1.5.5s-1-.1-1.3-.3l.2-.6c.3.2.7.3 1.2.3.8 0 1.3-.4 1.3-1.4v-.5c-.2.4-.7.7-1.3.7-1 0-1.7-.9-1.7-2 0-1.4.9-2.1 1.8-2.1.7 0 1.1.4 1.3.7v-.6h.6zm-.7 1.6v-.3c-.1-.4-.5-.8-1-.8-.7 0-1.2.6-1.2 1.5 0 .8.4 1.5 1.2 1.5.5 0 .9-.3 1-.8 0-.1.1-.3.1-.4v-.7zM444.2 23.3l-.1-.5c-.2.3-.7.6-1.2.6-.8 0-1.2-.6-1.2-1.2 0-1 .9-1.5 2.4-1.5v-.1c0-.3-.1-.9-.9-.9-.4 0-.8.1-1.1.3l-.2-.5c.3-.2.8-.4 1.3-.4 1.2 0 1.5.8 1.5 1.7v1.5c0 .4 0 .7.1 1h-.6zm-.1-2.1c-.8 0-1.7.1-1.7.9 0 .5.3.7.7.7.5 0 .9-.3 1-.7V21.2zM446 20.4v-1.1h.7v.7c.2-.4.7-.8 1.3-.8.6 0 1.4.3 1.4 1.7v2.4h-.7V21c0-.7-.2-1.2-.9-1.2-.5 0-.9.3-1 .8V23.3h-.8v-2.9zM451.5 18.1c0 .3-.2.5-.5.5s-.4-.2-.4-.5.2-.5.5-.5c.2.1.4.3.4.5zm-.8 5.2v-4h.7v4h-.7zM452.5 22.6c.2.1.6.3 1 .3.5 0 .8-.3.8-.6 0-.4-.2-.5-.8-.7-.7-.3-1.1-.7-1.1-1.1 0-.7.5-1.2 1.4-1.2.4 0 .8.1 1 .3l-.2.5c-.2-.1-.5-.2-.8-.2-.4 0-.7.3-.7.6s.2.5.8.7c.7.3 1.1.6 1.1 1.2 0 .7-.6 1.2-1.5 1.2-.4 0-.9-.1-1.1-.3l.1-.7zM455.9 20.4v-1.1h.6v.7c.2-.4.6-.7 1.3-.7.6 0 1 .3 1.1.8.1-.2.3-.4.5-.5.2-.2.5-.3.9-.3.5 0 1.3.4 1.3 1.8v2.4h-.6V21c0-.8-.3-1.2-.9-1.2-.4 0-.7.3-.9.7 0 .1-.1.2-.1.4v2.5h-.7V21c0-.6-.3-1.1-.8-1.1s-.8.4-.9.7c0 .1-.1.2-.1.4v2.4h-.7v-3zM468.3 21.3c0 1.5-1 2.1-2 2.1-1.1 0-1.9-.8-1.9-2.1 0-1.4.9-2.1 2-2.1s1.9.8 1.9 2.1zm-3.2 0c0 .9.5 1.6 1.2 1.6s1.2-.7 1.2-1.6c0-.7-.3-1.6-1.2-1.6-.8 0-1.2.8-1.2 1.6zM469.3 20.4v-1.1h.7v.7c.2-.4.7-.8 1.3-.8.6 0 1.4.3 1.4 1.7v2.4h-.7V21c0-.7-.2-1.2-.9-1.2-.5 0-.9.3-1 .8V23.3h-.7v-2.9zM476 19.3l.5 2.1c.1.5.2.9.3 1.3.1-.4.2-.8.4-1.3l.7-2.1h.6l.6 2c.2.5.3.9.4 1.3.1-.4.2-.8.3-1.3l.6-2h.7l-1.3 4h-.7l-.6-1.9c-.1-.5-.3-.9-.4-1.3-.1.5-.2.9-.4 1.3l-.7 1.9h-.7l-1.2-4h.9zM485.4 21.3c0 1.5-1 2.1-2 2.1-1.1 0-1.9-.8-1.9-2.1 0-1.4.9-2.1 2-2.1s1.9.8 1.9 2.1zm-3.2 0c0 .9.5 1.6 1.2 1.6s1.2-.7 1.2-1.6c0-.7-.3-1.6-1.2-1.6-.8 0-1.2.8-1.2 1.6zM489.7 22.2v1.1h-.7v-.7c-.2.3-.6.8-1.3.8-.6 0-1.4-.4-1.4-1.8v-2.4h.7v2.2c0 .8.2 1.3.9 1.3.5 0 .8-.3 1-.7 0-.1.1-.2.1-.4v-2.5h.7v3.1zM490.9 20.4v-1.1h.7v.7c.2-.4.7-.8 1.3-.8.6 0 1.4.3 1.4 1.7v2.4h-.7V21c0-.7-.2-1.2-.9-1.2-.5 0-.9.3-1 .8V23.3h-.7v-2.9zM499.1 17.4v5.9h-.7v-.7c-.2.5-.7.8-1.4.8-1 0-1.7-.8-1.7-2.1s.8-2.2 1.8-2.2c.6 0 1 .3 1.2.6v-2.4h.8zm-.8 3.5v-.3c-.1-.5-.5-.9-1.1-.9-.8 0-1.2.7-1.2 1.6 0 .8.4 1.5 1.2 1.5.5 0 .9-.3 1.1-.9v-1zM501.9 22.6c.2.1.6.3 1 .3.5 0 .8-.3.8-.6 0-.4-.2-.5-.8-.7-.7-.3-1.1-.7-1.1-1.1 0-.7.5-1.2 1.4-1.2.4 0 .8.1 1 .3l-.2.5c-.2-.1-.5-.2-.8-.2-.4 0-.7.3-.7.6s.2.5.8.7c.7.3 1.1.6 1.1 1.2 0 .7-.6 1.2-1.5 1.2-.4 0-.9-.1-1.1-.3l.1-.7zM505.6 19.3l.5 2.1c.1.5.2.9.3 1.3.1-.4.2-.8.4-1.3l.7-2.1h.6l.6 2c.2.5.3.9.4 1.3.1-.4.2-.8.3-1.3l.6-2h.7l-1.3 4h-.7l-.6-1.9c-.1-.5-.3-.9-.4-1.3-.1.5-.2.9-.4 1.3l-.7 1.9h-.7l-1.2-4h.9zM513.7 23.3l-.1-.5c-.2.3-.7.6-1.2.6-.8 0-1.2-.6-1.2-1.2 0-1 .9-1.5 2.4-1.5v-.1c0-.3-.1-.9-.9-.9-.4 0-.8.1-1.1.3l-.2-.5c.3-.2.8-.4 1.3-.4 1.2 0 1.5.8 1.5 1.7v1.5c0 .4 0 .7.1 1h-.6zm-.1-2.1c-.8 0-1.7.1-1.7.9 0 .5.3.7.7.7.5 0 .9-.3 1-.7V21.2zM515.5 23.3v-5.9h.7v2.5c.3-.5.7-.7 1.4-.7 1 0 1.7.8 1.7 2.1 0 1.4-.9 2.2-1.8 2.2-.6 0-1.1-.2-1.4-.8v.7h-.6zm.7-1.6v.3c.1.5.6.9 1.1.9.8 0 1.2-.6 1.2-1.6 0-.8-.4-1.5-1.2-1.5-.5 0-1 .3-1.1.9v1z"/></g><g><path class="st2" d="M527.1 22.4c.3.2.8.4 1.3.4.7 0 1.2-.4 1.2-1 0-.5-.3-.8-1.1-1.1-.9-.3-1.5-.8-1.5-1.6 0-.9.7-1.5 1.8-1.5.6 0 1 .1 1.2.3l-.2.6c-.2-.1-.6-.3-1.1-.3-.8 0-1.1.5-1.1.8 0 .5.3.8 1.1 1.1 1 .4 1.4.8 1.4 1.7 0 .9-.6 1.6-2 1.6-.5 0-1.1-.2-1.4-.4l.4-.6zM534.7 22.2v1.1h-.7v-.7c-.2.3-.6.8-1.3.8-.6 0-1.4-.4-1.4-1.8v-2.4h.7v2.2c0 .8.2 1.3.9 1.3.5 0 .8-.3 1-.7 0-.1.1-.2.1-.4v-2.5h.7v3.1zM535.8 22.6c.2.1.6.3 1 .3.5 0 .8-.3.8-.6 0-.4-.2-.5-.8-.7-.7-.3-1.1-.7-1.1-1.1 0-.7.5-1.2 1.4-1.2.4 0 .8.1 1 .3l-.2.5c-.2-.1-.5-.2-.8-.2-.4 0-.7.3-.7.6s.2.5.8.7c.7.3 1.1.6 1.1 1.2 0 .7-.6 1.2-1.5 1.2-.4 0-.9-.1-1.1-.3l.1-.7zM542.1 23.2c-.2.1-.6.2-1.2.2-1.2 0-2-.8-2-2.1 0-1.2.9-2.1 2.2-2.1.4 0 .8.1 1 .2l-.2.6c-.2-.1-.5-.2-.9-.2-.9 0-1.4.7-1.4 1.5 0 .9.6 1.5 1.4 1.5.4 0 .7-.1.9-.2l.2.6zM543.3 21.4c0 1 .7 1.4 1.4 1.4.5 0 .8-.1 1.1-.2l.1.5c-.3.1-.7.3-1.3.3-1.2 0-2-.8-2-2s.7-2.2 1.9-2.2c1.3 0 1.7 1.2 1.7 1.9v.3h-2.9zm2.2-.5c0-.5-.2-1.2-1-1.2-.7 0-1.1.7-1.1 1.2h2.1zM547.1 20.6v-1.3h.7v.7c.3-.5.8-.8 1.4-.8 1 0 1.7.8 1.7 2.1 0 1.5-.9 2.2-1.8 2.2-.5 0-1-.2-1.2-.6V25h-.7v-4.4zm.7 1.1v.3c.1.5.6.9 1.1.9.8 0 1.2-.6 1.2-1.6 0-.8-.4-1.5-1.2-1.5-.5 0-1 .4-1.1.9v1zM552.7 18.1v1.2h1.1v.6h-1.1V22c0 .5.1.8.6.8.2 0 .3 0 .4-.1v.6c-.1.1-.4.1-.7.1-.3 0-.6-.1-.8-.3-.2-.2-.3-.6-.3-1.1v-2.2h-.6v-.6h.6v-1l.8-.1zM555.4 18.1c0 .3-.2.5-.5.5s-.4-.2-.4-.5.2-.5.5-.5c.2.1.4.3.4.5zm-.8 5.2v-4h.7v4h-.7zM556.5 23.3v-5.9h.7v2.5c.3-.5.7-.7 1.4-.7 1 0 1.7.8 1.7 2.1 0 1.4-.9 2.2-1.8 2.2-.6 0-1.1-.2-1.4-.8v.7h-.6zm.8-1.6v.3c.1.5.6.9 1.1.9.8 0 1.2-.6 1.2-1.6 0-.8-.4-1.5-1.2-1.5-.5 0-1 .3-1.1.9v1zM562.1 18.1c0 .3-.2.5-.5.5s-.4-.2-.4-.5.2-.5.5-.5c.3.1.4.3.4.5zm-.8 5.2v-4h.7v4h-.7zM563.3 17.4h.7v5.9h-.7v-5.9zM566.1 18.1c0 .3-.2.5-.5.5s-.4-.2-.4-.5.2-.5.5-.5c.2.1.4.3.4.5zm-.9 5.2v-4h.7v4h-.7zM568.1 18.1v1.2h1.1v.6h-1.1V22c0 .5.1.8.6.8.2 0 .3 0 .4-.1v.6c-.1.1-.4.1-.7.1-.3 0-.6-.1-.8-.3-.2-.2-.3-.6-.3-1.1v-2.2h-.6v-.6h.6v-1l.8-.1zM570.3 19.3l.9 2.4c.1.3.2.6.3.8.1-.2.2-.6.3-.8l.8-2.4h.8l-1.1 2.9c-.5 1.4-.9 2.1-1.4 2.5-.4.3-.7.4-.9.5l-.2-.6c.2-.1.4-.2.6-.4.2-.2.5-.4.6-.8 0-.1.1-.1.1-.2V23l-1.5-3.7h.7zM575.7 20.6v-1.3h.7v.7c.3-.5.8-.8 1.4-.8 1 0 1.7.8 1.7 2.1 0 1.5-.9 2.2-1.8 2.2-.5 0-1-.2-1.2-.6V25h-.7v-4.4zm.8 1.1v.3c.1.5.6.9 1.1.9.8 0 1.2-.6 1.2-1.6 0-.8-.4-1.5-1.2-1.5-.5 0-1 .4-1.1.9v1zM580.5 20.5v-1.3h.6v.8c.2-.5.6-.9 1.1-.9h.2v.7h-.3c-.5 0-.9.4-1 .9v2.5h-.7v-2.7zM586.8 21.3c0 1.5-1 2.1-2 2.1-1.1 0-1.9-.8-1.9-2.1 0-1.4.9-2.1 2-2.1s1.9.8 1.9 2.1zm-3.2 0c0 .9.5 1.6 1.2 1.6s1.2-.7 1.2-1.6c0-.7-.3-1.6-1.2-1.6-.8 0-1.2.8-1.2 1.6zM587.8 23.3v-3.5h-.6v-.6h.6V19c0-1.1.6-1.8 1.8-1.8.4 0 .8.1 1 .3l-.2.6c-.2-.1-.5-.2-.9-.2-.8 0-1 .5-1 1.2v.2h2.3v4h-.7v-3.5h-1.6v3.5h-.7zM592.1 17.4h.7v5.9h-.7v-5.9zM594.5 21.4c0 1 .7 1.4 1.4 1.4.5 0 .8-.1 1.1-.2l.1.5c-.3.1-.7.3-1.3.3-1.2 0-2-.8-2-2s.7-2.2 1.9-2.2c1.3 0 1.7 1.2 1.7 1.9v.3h-2.9zm2.1-.5c0-.5-.2-1.2-1-1.2-.7 0-1.1.7-1.1 1.2h2.1z"/></g><g><path class="st2" d="M606.1 22.4c.3.2.8.4 1.3.4.7 0 1.2-.4 1.2-1 0-.5-.3-.8-1.1-1.1-.9-.3-1.5-.8-1.5-1.6 0-.9.7-1.5 1.8-1.5.6 0 1 .1 1.2.3l-.2.6c-.2-.1-.6-.3-1.1-.3-.8 0-1.1.5-1.1.8 0 .5.3.8 1.1 1.1 1 .4 1.4.8 1.4 1.7 0 .9-.6 1.6-2 1.6-.5 0-1.1-.2-1.4-.4l.4-.6zM613.7 22.2v1.1h-.7v-.7c-.2.3-.6.8-1.3.8-.6 0-1.4-.4-1.4-1.8v-2.4h.7v2.2c0 .8.2 1.3.9 1.3.5 0 .8-.3 1-.7 0-.1.1-.2.1-.4v-2.5h.7v3.1zM614.9 20.5v-1.3h.6v.8c.2-.5.6-.9 1.1-.9h.2v.7h-.2c-.5 0-.9.4-1 .9v2.5h-.7v-2.7zM621.1 19.3v3.4c0 .9-.2 1.5-.6 1.8-.4.4-1 .5-1.5.5s-1-.1-1.3-.3l.2-.6c.3.2.7.3 1.2.3.8 0 1.3-.4 1.3-1.4v-.5c-.2.4-.7.7-1.3.7-1 0-1.7-.9-1.7-2 0-1.4.9-2.1 1.8-2.1.7 0 1.1.4 1.3.7v-.6h.6zm-.8 1.6v-.3c-.1-.4-.5-.8-1-.8-.7 0-1.2.6-1.2 1.5 0 .8.4 1.5 1.2 1.5.5 0 .9-.3 1-.8 0-.1.1-.3.1-.4v-.7zM622.7 21.4c0 1 .7 1.4 1.4 1.4.5 0 .8-.1 1.1-.2l.1.5c-.3.1-.7.3-1.3.3-1.2 0-2-.8-2-2s.7-2.2 1.9-2.2c1.3 0 1.7 1.2 1.7 1.9v.3h-2.9zm2.1-.5c0-.5-.2-1.2-1-1.2-.7 0-1.1.7-1.1 1.2h2.1zM630.1 21.3c0 1.5-1 2.1-2 2.1-1.1 0-1.9-.8-1.9-2.1 0-1.4.9-2.1 2-2.1s1.9.8 1.9 2.1zm-3.2 0c0 .9.5 1.6 1.2 1.6s1.2-.7 1.2-1.6c0-.7-.3-1.6-1.2-1.6-.8 0-1.2.8-1.2 1.6zM631.1 20.4v-1.1h.7v.7c.2-.4.7-.8 1.3-.8.6 0 1.4.3 1.4 1.7v2.4h-.7V21c0-.7-.2-1.2-.9-1.2-.5 0-.9.3-1 .8V23.3h-.7v-2.9z"/></g><g><path class="st2" d="M659 20.4c0 1.9-1.2 3-2.6 3-1.5 0-2.5-1.2-2.5-2.9 0-1.8 1.1-3 2.6-3 1.5.1 2.5 1.3 2.5 2.9zm-4.4.1c0 1.2.7 2.3 1.8 2.3 1.2 0 1.8-1.1 1.8-2.3 0-1.1-.6-2.3-1.8-2.3-1.2 0-1.8 1.1-1.8 2.3zM663.3 22.2v1.1h-.7v-.7c-.2.3-.6.8-1.3.8-.6 0-1.4-.4-1.4-1.8v-2.4h.7v2.2c0 .8.2 1.3.9 1.3.5 0 .8-.3 1-.7 0-.1.1-.2.1-.4v-2.5h.7v3.1zM665.4 18.1v1.2h1.1v.6h-1.1V22c0 .5.1.8.6.8.2 0 .3 0 .4-.1v.6c-.1.1-.4.1-.7.1-.3 0-.6-.1-.8-.3-.2-.2-.3-.6-.3-1.1v-2.2h-.6v-.6h.6v-1l.8-.1zM670.1 23.2c-.2.1-.6.2-1.2.2-1.2 0-2-.8-2-2.1 0-1.2.9-2.1 2.2-2.1.4 0 .8.1 1 .2l-.1.6c-.2-.1-.5-.2-.9-.2-.9 0-1.4.7-1.4 1.5 0 .9.6 1.5 1.4 1.5.4 0 .7-.1.9-.2l.1.6zM674.6 21.3c0 1.5-1 2.1-2 2.1-1.1 0-1.9-.8-1.9-2.1 0-1.4.9-2.1 2-2.1s1.9.8 1.9 2.1zm-3.2 0c0 .9.5 1.6 1.2 1.6s1.2-.7 1.2-1.6c0-.7-.3-1.6-1.2-1.6-.8 0-1.2.8-1.2 1.6zM675.5 20.4v-1.1h.6v.7c.2-.4.6-.7 1.3-.7.6 0 1 .3 1.1.8.1-.2.3-.4.5-.5.2-.2.5-.3.9-.3.5 0 1.3.4 1.3 1.8v2.4h-.7V21c0-.8-.3-1.2-.9-1.2-.4 0-.7.3-.9.7 0 .1-.1.2-.1.4v2.5h-.6V21c0-.6-.3-1.1-.8-1.1s-.8.4-.9.7c0 .1-.1.2-.1.4v2.4h-.7v-3zM682.9 21.4c0 1 .7 1.4 1.4 1.4.5 0 .8-.1 1.1-.2l.1.5c-.3.1-.7.3-1.3.3-1.2 0-2-.8-2-2s.7-2.2 1.9-2.2c1.3 0 1.7 1.2 1.7 1.9v.3h-2.9zm2.1-.5c0-.5-.2-1.2-1-1.2-.7 0-1.1.7-1.1 1.2h2.1z"/></g><g><path class="st2" d="M646.4 87.4V93h-.7v-5.6h.7zM651.6 92.8c-.3.1-.8.3-1.5.3-1.6 0-2.8-1-2.8-2.9 0-1.8 1.2-3 2.9-3 .7 0 1.1.2 1.3.3l-.2.6c-.3-.1-.7-.2-1.1-.2-1.3 0-2.2.8-2.2 2.3 0 1.4.8 2.3 2.2 2.3.4 0 .9-.1 1.2-.2l.2.5zM653.3 87.4v3.3c0 1.3.6 1.8 1.3 1.8.8 0 1.4-.6 1.4-1.8v-3.3h.7v3.3c0 1.7-.9 2.4-2.1 2.4-1.2 0-2-.7-2-2.4v-3.3h.7zM661.9 93l-.1-.5c-.2.3-.7.6-1.2.6-.8 0-1.2-.6-1.2-1.2 0-1 .9-1.5 2.4-1.5v-.1c0-.3-.1-.9-.9-.9-.4 0-.8.1-1.1.3l-.2-.5c.3-.2.8-.4 1.3-.4 1.2 0 1.5.8 1.5 1.7V92c0 .4 0 .7.1 1h-.6zm-.1-2.1c-.8 0-1.7.1-1.7.9 0 .5.3.7.7.7.5 0 .9-.3 1-.7V90.9zM667.2 87.1V93h-.7v-.7c-.2.5-.7.8-1.4.8-1 0-1.7-.8-1.7-2.1s.8-2.2 1.8-2.2c.6 0 1 .3 1.2.6V87h.8zm-.7 3.5v-.3c-.1-.5-.5-.9-1.1-.9-.8 0-1.2.7-1.2 1.6 0 .8.4 1.5 1.2 1.5.5 0 .9-.3 1.1-.9v-1zM668.4 90.1V89h.6v.7c.2-.4.6-.7 1.3-.7.6 0 1 .3 1.1.8.1-.2.3-.4.5-.5.2-.2.5-.3.9-.3.5 0 1.3.4 1.3 1.8V93h-.7v-2.3c0-.8-.3-1.2-.9-1.2-.4 0-.7.3-.9.7 0 .1-.1.2-.1.4V93h-.5v-2.4c0-.6-.3-1.1-.8-1.1s-.8.4-.9.7c0 .1-.1.2-.1.4V93h-.7v-2.9zM676.2 87.8c0 .3-.2.5-.5.5s-.4-.2-.4-.5.2-.5.5-.5c.2.1.4.3.4.5zm-.8 5.2v-4h.7v4h-.7zM677.2 92.3c.2.1.6.3 1 .3.5 0 .8-.3.8-.6 0-.4-.2-.5-.8-.7-.7-.3-1.1-.7-1.1-1.1 0-.7.5-1.2 1.4-1.2.4 0 .8.1 1 .3l-.2.5c-.2-.1-.5-.2-.8-.2-.4 0-.7.3-.7.6s.2.5.8.7c.7.3 1.1.6 1.1 1.2 0 .7-.6 1.2-1.5 1.2-.4 0-.9-.1-1.1-.3l.1-.7zM680.6 92.3c.2.1.6.3 1 .3.5 0 .8-.3.8-.6 0-.4-.2-.5-.8-.7-.7-.3-1.1-.7-1.1-1.1 0-.7.5-1.2 1.4-1.2.4 0 .8.1 1 .3l-.2.5c-.2-.1-.5-.2-.8-.2-.4 0-.7.3-.7.6s.2.5.8.7c.7.3 1.1.6 1.1 1.2 0 .7-.6 1.2-1.5 1.2-.4 0-.9-.1-1.1-.3l.1-.7zM684.8 87.8c0 .3-.2.5-.5.5s-.4-.2-.4-.5.2-.5.5-.5c.2.1.4.3.4.5zM684 93v-4h.7v4h-.7zM689.6 91c0 1.5-1 2.1-2 2.1-1.1 0-1.9-.8-1.9-2.1 0-1.4.9-2.1 2-2.1s1.9.8 1.9 2.1zm-3.2 0c0 .9.5 1.6 1.2 1.6s1.2-.7 1.2-1.6c0-.7-.3-1.6-1.2-1.6-.9 0-1.2.8-1.2 1.6zM690.5 90.1V89h.7v.7c.2-.4.7-.8 1.3-.8.6 0 1.4.3 1.4 1.7V93h-.7v-2.3c0-.7-.2-1.2-.9-1.2-.5 0-.9.3-1 .8V93h-.7v-2.9zM662.7 100.7v.5H659v-.5h3.7zM667.6 103l-.1-.5c-.2.3-.7.6-1.2.6-.8 0-1.2-.6-1.2-1.2 0-1 .9-1.5 2.4-1.5v-.1c0-.3-.1-.9-.9-.9-.4 0-.8.1-1.1.3l-.2-.5c.3-.2.8-.4 1.3-.4 1.2 0 1.5.8 1.5 1.7v1.5c0 .4 0 .7.1 1h-.6zm-.1-2c-.8 0-1.7.1-1.7.9 0 .5.3.7.7.7.5 0 .9-.3 1-.7V101zM669.4 97.1h.7v5.9h-.7v-5.9zM672.2 97.9c0 .3-.2.5-.5.5s-.4-.2-.4-.5.2-.5.5-.5c.2 0 .4.2.4.5zm-.9 5.1v-4h.7v4h-.7zM673.6 99l.8 2.3c.1.4.2.7.3 1 .1-.3.2-.7.3-1l.8-2.3h.8l-1.6 4h-.7l-1.5-4h.8zM677.6 101.2c0 1 .7 1.4 1.4 1.4.5 0 .8-.1 1.1-.2l.1.5c-.3.1-.7.3-1.3.3-1.2 0-2-.8-2-2s.7-2.2 1.9-2.2c1.3 0 1.7 1.2 1.7 1.9v.3h-2.9zm2.2-.6c0-.5-.2-1.2-1-1.2-.7 0-1.1.7-1.1 1.2h2.1z"/></g><g><path class="st2" d="M156.2 47c0-.7.4-1.2 1.1-1.5-.6-.3-.9-.8-.9-1.2 0-.9.7-1.4 1.7-1.4 1.1 0 1.6.7 1.6 1.3 0 .5-.2 1-.9 1.3.7.3 1.1.7 1.1 1.4 0 .9-.8 1.6-1.8 1.6-1.2 0-1.9-.7-1.9-1.5zm2.9 0c0-.7-.5-1-1.2-1.2-.6.2-1 .6-1 1.1 0 .6.4 1 1.1 1 .7 0 1.1-.4 1.1-.9zm-2-2.7c0 .5.4.8 1 1 .5-.2.8-.5.8-1 0-.4-.3-.9-.9-.9-.6 0-.9.4-.9.9zM163.7 42.7h.7v3.8c0 1.5-.7 2-1.7 2-.3 0-.6-.1-.8-.1l.1-.6c.2.1.4.1.6.1.7 0 1-.3 1-1.4v-3.8zM169 47.3v1.1h-.7v-.7c-.2.3-.6.8-1.3.8-.6 0-1.4-.4-1.4-1.8v-2.4h.7v2.2c0 .8.2 1.3.9 1.3.5 0 .8-.3 1-.7 0-.1.1-.2.1-.4v-2.5h.7v3.1zM170.3 42.4h.7v5.9h-.7v-5.9zM172.5 44.3l.9 2.4c.1.3.2.6.3.8.1-.2.2-.6.3-.8l.8-2.4h.8l-1.1 2.9c-.5 1.4-.9 2.1-1.4 2.5-.4.3-.7.4-.9.5l-.2-.6c.2-.1.4-.2.6-.4.2-.2.5-.4.6-.8 0-.1.1-.1.1-.2V48l-1.5-3.7h.7z"/></g><g><path class="st2" d="M204.8 48.4V46l-1.8-3.2h.8l.8 1.6.6 1.2c.2-.4.4-.7.6-1.2l.8-1.6h.8l-1.9 3.2v2.4h-.7z"/></g><g><path class="st2" d="M254 48.2c-.3.1-.8.3-1.5.3-1.6 0-2.8-1-2.8-2.9 0-1.8 1.2-3 2.9-3 .7 0 1.1.2 1.3.3l-.2.6c-.3-.1-.7-.2-1.1-.2-1.3 0-2.2.8-2.2 2.3 0 1.4.8 2.3 2.2 2.3.4 0 .9-.1 1.2-.2l.2.5zM255.8 46.6l-.6 1.8h-.8l1.9-5.6h.9l1.9 5.6h-.8l-.6-1.8h-1.9zm1.9-.6l-.6-1.6c-.1-.4-.2-.7-.3-1-.1.3-.2.7-.3 1L256 46h1.7zM260 42.8c.3-.1.8-.1 1.3-.1.7 0 1.2.1 1.5.4.3.2.5.6.5 1 0 .5-.4 1-1 1.2.5.1 1.2.6 1.2 1.4 0 .5-.2.9-.5 1.1-.4.4-1 .5-1.9.5-.5 0-.9 0-1.1-.1v-5.4zm.8 2.3h.7c.8 0 1.2-.4 1.2-.9 0-.7-.5-.9-1.2-.9-.3 0-.5 0-.6.1v1.7zm0 2.7h.6c.8 0 1.4-.3 1.4-1.1s-.7-1.1-1.5-1.1h-.6v2.2zM268.9 48.1c-.3.1-1 .3-1.7.3-.9 0-1.6-.2-2.1-.7-.5-.5-.8-1.2-.8-2.1 0-1.7 1.2-2.9 3.1-2.9.7 0 1.2.1 1.4.3l-.2.6c-.3-.1-.7-.2-1.2-.2-1.4 0-2.3.9-2.3 2.3s.9 2.3 2.2 2.3c.5 0 .8-.1 1-.2V46H267v-.6h1.9v2.7zM270.3 44.3l.6.9c.2.2.3.4.4.7.1-.2.3-.5.4-.7l.6-.9h.8l-1.4 2 1.4 2.1h-.8l-.6-.9c-.2-.2-.3-.5-.4-.7-.1.2-.3.5-.4.7l-.6.9h-.8l1.4-2.1-1.4-2h.8zM273.7 47.5c.2.1.7.3 1.2.3.9 0 1.2-.6 1.2-1.1 0-.8-.7-1.1-1.4-1.1h-.4V45h.4c.5 0 1.2-.3 1.2-.9 0-.4-.3-.8-1-.8-.4 0-.9.2-1.1.4l-.2-.5c.3-.2.8-.4 1.4-.4 1.1 0 1.6.6 1.6 1.3 0 .6-.3 1-1 1.3.7.1 1.2.6 1.2 1.4 0 .9-.7 1.6-2 1.6-.6 0-1.1-.2-1.4-.4l.3-.5z"/></g><g><path class="st2" d="M318.3 48.4v-5.6h.8l1.8 2.9c.4.7.7 1.3 1 1.8-.1-.8-.1-1.4-.1-2.3v-2.4h.7v5.6h-.7l-1.8-2.9c-.4-.6-.8-1.3-1.1-1.9 0 .7.1 1.4.1 2.3v2.4h-.7zM327.4 46.3c0 1.5-1 2.1-2 2.1-1.1 0-1.9-.8-1.9-2.1 0-1.4.9-2.1 2-2.1s1.9.9 1.9 2.1zm-3.2.1c0 .9.5 1.6 1.2 1.6s1.2-.7 1.2-1.6c0-.7-.3-1.6-1.2-1.6-.8 0-1.2.8-1.2 1.6zM328.3 45.6v-1.3h.6v.8c.2-.5.6-.9 1.1-.9h.2v.8h-.2c-.5 0-.9.4-1 .9v2.5h-.7v-2.8zM331.1 45.4v-1.1h.6v.7c.2-.4.6-.7 1.3-.7.6 0 1 .3 1.1.8.1-.2.3-.4.5-.5.2-.2.5-.3.9-.3.5 0 1.3.4 1.3 1.8v2.4h-.7v-2.3c0-.8-.3-1.2-.9-1.2-.4 0-.7.3-.9.7 0 .1-.1.2-.1.4v2.5h-.7V46c0-.6-.3-1.1-.8-1.1s-.8.4-.9.7c0 .1-.1.2-.1.4v2.4h-.7v-3zM340.3 48.4l-.1-.5c-.2.3-.7.6-1.2.6-.8 0-1.2-.6-1.2-1.2 0-1 .9-1.5 2.4-1.5v-.1c0-.3-.1-.9-.9-.9-.4 0-.8.1-1.1.3l-.2-.5c.3-.2.8-.4 1.3-.4 1.2 0 1.5.8 1.5 1.7v1.5c0 .4 0 .7.1 1h-.6zm-.1-2.1c-.8 0-1.7.1-1.7.9 0 .5.3.7.7.7.5 0 .9-.3 1-.7V46.3zM342.1 42.4h.7v5.9h-.7v-5.9z"/></g><g><path class="st2" d="M153.4 72.9v-.5l.6-.6c1.4-1.3 2-2 2-2.8 0-.6-.3-1.1-1.1-1.1-.5 0-.9.3-1.2.5l-.2-.5c.4-.3.9-.6 1.5-.6 1.2 0 1.7.8 1.7 1.6 0 1-.7 1.8-1.9 2.9l-.4.4h2.4v.6h-3.4zM161.2 67.5v.5l-2.4 5h-.8l2.4-4.8h-2.7v-.6h3.5zM165.2 67.3h.7V71c0 1.5-.7 2-1.7 2-.3 0-.6-.1-.8-.1l.1-.6c.2.1.4.1.6.1.7 0 1-.3 1-1.4v-3.7zM170.5 71.8v1.1h-.7v-.7c-.2.3-.6.8-1.3.8-.6 0-1.4-.4-1.4-1.8v-2.4h.7V71c0 .8.2 1.3.9 1.3.5 0 .8-.3 1-.7 0-.1.1-.2.1-.4v-2.5h.7v3.1zM171.7 69.9v-1.1h.7v.7c.2-.4.7-.8 1.3-.8.6 0 1.4.3 1.4 1.7v2.4h-.7v-2.3c0-.7-.2-1.2-.9-1.2-.5 0-.9.3-1 .8V72.8h-.7v-2.9zM176.7 71c0 1 .7 1.4 1.4 1.4.5 0 .8-.1 1.1-.2l.1.5c-.3.1-.7.3-1.3.3-1.2 0-2-.8-2-2s.7-2.2 1.9-2.2c1.3 0 1.7 1.2 1.7 1.9v.3h-2.9zm2.2-.5c0-.5-.2-1.2-1-1.2-.7 0-1.1.7-1.1 1.2h2.1z"/></g><g><path class="st2" d="M157 98v-.5l.6-.6c1.4-1.3 2-2 2-2.8 0-.6-.3-1.1-1.1-1.1-.5 0-.9.3-1.2.5l-.2-.5c.4-.3.9-.6 1.5-.6 1.2 0 1.7.8 1.7 1.6 0 1-.7 1.8-1.9 2.9l-.4.4h2.4v.7H157zM164.5 92.3h.7v3.8c0 1.5-.7 2-1.7 2-.3 0-.6-.1-.8-.1l.1-.6c.2.1.4.1.6.1.7 0 1-.3 1-1.4v-3.8zM169.8 96.9V98h-.7v-.7c-.2.3-.6.8-1.3.8-.6 0-1.4-.4-1.4-1.8v-2.4h.7v2.2c0 .8.2 1.3.9 1.3.5 0 .8-.3 1-.7 0-.1.1-.2.1-.4v-2.5h.7v3.1zM171 92h.7v6h-.7v-6zM173.3 93.9l.9 2.4c.1.3.2.6.3.8.1-.2.2-.6.3-.8l.8-2.4h.8l-1.1 2.9c-.5 1.4-.9 2.1-1.4 2.5-.4.3-.7.4-.9.5l-.2-.6c.2-.1.4-.2.6-.4.2-.2.5-.4.6-.8 0-.1.1-.1.1-.2v-.2l-1.5-3.7h.7z"/></g><g><path class="st2" d="M204.8 72.9v-2.4l-1.8-3.2h.8l.8 1.6.6 1.2c.2-.4.4-.7.6-1.2l.8-1.6h.8l-1.9 3.2v2.4h-.7z"/></g><g><path class="st2" d="M204.8 98v-2.4l-1.8-3.2h.8l.8 1.6.6 1.2c.2-.4.4-.7.6-1.2l.8-1.6h.8l-1.9 3.2V98h-.7z"/></g><g><path class="st2" d="M236.9 72.7c-.3.1-.8.3-1.5.3-1.6 0-2.8-1-2.8-2.9 0-1.8 1.2-3 2.9-3 .7 0 1.1.2 1.3.3l-.2.6c-.3-.1-.7-.2-1.1-.2-1.3 0-2.2.8-2.2 2.3 0 1.4.8 2.3 2.2 2.3.4 0 .9-.1 1.2-.2l.2.5zM238.7 71.1l-.6 1.8h-.8l1.9-5.6h.9l1.9 5.6h-.8l-.6-1.8h-1.9zm1.9-.5L240 69c-.1-.4-.2-.7-.3-1-.1.3-.2.7-.3 1l-.6 1.6h1.8zM242.9 67.3c.3-.1.8-.1 1.3-.1.7 0 1.2.1 1.5.4.3.2.5.6.5 1 0 .5-.4 1-1 1.2.5.1 1.2.6 1.2 1.4 0 .5-.2.9-.5 1.1-.4.4-1 .5-1.9.5-.5 0-.9 0-1.1-.1v-5.4zm.8 2.3h.7c.8 0 1.2-.4 1.2-.9 0-.7-.5-.9-1.2-.9h-.6v1.8zm0 2.7h.6c.8 0 1.4-.3 1.4-1.1s-.7-1.1-1.5-1.1h-.6v2.2zM251.8 72.6c-.3.1-1 .3-1.7.3-.9 0-1.6-.2-2.1-.7-.5-.5-.8-1.2-.8-2.1 0-1.7 1.2-2.9 3.1-2.9.7 0 1.2.1 1.4.3l-.2.6c-.3-.1-.7-.2-1.2-.2-1.4 0-2.3.9-2.3 2.3s.9 2.3 2.2 2.3c.5 0 .8-.1 1-.2v-1.7h-1.1V70h1.9v2.6zM252.9 68.5l1.8 1.8 1.8-1.8.4.4-1.8 1.8 1.8 1.8-.4.4-1.8-1.8-1.8 1.8-.4-.4 1.8-1.8-1.8-1.8.4-.4zM260.8 68.1h-2.1l-.2 1.4h.4c.4 0 .8.1 1.2.3.4.2.8.7.8 1.4 0 1.1-.8 1.9-2 1.9-.6 0-1.1-.2-1.4-.3l.2-.6c.2.1.7.3 1.2.3.7 0 1.3-.5 1.3-1.2s-.5-1.2-1.6-1.2c-.3 0-.6 0-.8.1l.4-2.6h2.6v.5zM261.6 73.9c.2-.5.4-1.4.5-2l.8-.1c-.2.7-.6 1.6-.8 2l-.5.1zm.4-4.4c0-.3.2-.5.5-.5s.5.2.5.5-.2.5-.5.5-.5-.2-.5-.5zM266 71c0 1 .7 1.4 1.4 1.4.5 0 .8-.1 1.1-.2l.1.5c-.3.1-.7.3-1.3.3-1.2 0-2-.8-2-2s.7-2.2 1.9-2.2c1.3 0 1.7 1.2 1.7 1.9v.3H266zm2.2-.5c0-.5-.2-1.2-1-1.2-.7 0-1.1.7-1.1 1.2h2.1zM269.8 69.9v-1.1h.7v.7c.2-.4.7-.8 1.3-.8.6 0 1.4.3 1.4 1.7v2.4h-.7v-2.3c0-.7-.2-1.2-.9-1.2-.5 0-.9.3-1 .8V72.8h-.7v-2.9zM277.9 67v5.9h-.7v-.7c-.2.5-.7.8-1.4.8-1 0-1.7-.8-1.7-2.1s.8-2.2 1.8-2.2c.6 0 1 .3 1.2.6V67h.8zm-.7 3.5v-.3c-.1-.5-.5-.9-1.1-.9-.8 0-1.2.7-1.2 1.6 0 .8.4 1.5 1.2 1.5.5 0 .9-.3 1.1-.9v-1zM281.4 72.9l-.1-.5c-.2.3-.7.6-1.2.6-.8 0-1.2-.6-1.2-1.2 0-1 .9-1.5 2.4-1.5v-.1c0-.3-.1-.9-.9-.9-.4 0-.8.1-1.1.3l-.2-.5c.3-.2.8-.4 1.3-.4 1.2 0 1.5.8 1.5 1.7v1.5c0 .4 0 .7.1 1h-.6zm-.1-2.1c-.8 0-1.7.1-1.7.9 0 .5.3.7.7.7.5 0 .9-.3 1-.7V70.8zM283.2 70.1v-1.3h.6v.8c.2-.5.6-.9 1.1-.9h.2v.7h-.2c-.5 0-.9.4-1 .9v2.5h-.7v-2.7zM287 67.7v1.2h1.1v.6H287v2.2c0 .5.1.8.6.8h.4v.6c-.1.1-.4.1-.7.1-.3 0-.6-.1-.8-.3-.2-.2-.3-.6-.3-1.1v-2.2h-.6V69h.6v-1l.8-.3zM289.2 71c0 1 .7 1.4 1.4 1.4.5 0 .8-.1 1.1-.2l.1.5c-.3.1-.7.3-1.3.3-1.2 0-2-.8-2-2s.7-2.2 1.9-2.2c1.3 0 1.7 1.2 1.7 1.9v.3h-2.9zm2.2-.5c0-.5-.2-1.2-1-1.2-.7 0-1.1.7-1.1 1.2h2.1zM293 70.1v-1.3h.6v.8c.2-.5.6-.9 1.1-.9h.2v.7h-.3c-.5 0-.9.4-1 .9v2.5h-.6v-2.7z"/></g><g><path class="st2" d="M235.8 97.8c-.3.1-.8.3-1.5.3-1.6 0-2.8-1-2.8-2.9 0-1.8 1.2-3 2.9-3 .7 0 1.1.2 1.3.3l-.2.6c-.3-.1-.7-.2-1.1-.2-1.3 0-2.2.8-2.2 2.3 0 1.4.8 2.3 2.2 2.3.4 0 .9-.1 1.2-.2l.2.5zM237.7 96.2l-.6 1.8h-.8l1.9-5.6h.9L241 98h-.8l-.6-1.8h-1.9zm1.8-.6L239 94c-.1-.4-.2-.7-.3-1-.1.3-.2.7-.3 1l-.6 1.6h1.7zM241.9 92.4c.3-.1.8-.1 1.3-.1.7 0 1.2.1 1.5.4.3.2.5.6.5 1 0 .5-.4 1-1 1.2.5.1 1.2.6 1.2 1.4 0 .5-.2.9-.5 1.1-.4.4-1 .5-1.9.5-.5 0-.9 0-1.1-.1v-5.4zm.7 2.3h.7c.8 0 1.2-.4 1.2-.9 0-.7-.5-.9-1.2-.9h-.6v1.8zm0 2.7h.6c.8 0 1.4-.3 1.4-1.1s-.7-1.1-1.5-1.1h-.6v2.2zM250.7 97.7c-.3.1-1 .3-1.7.3-.9 0-1.6-.2-2.1-.7-.5-.5-.8-1.2-.8-2.1 0-1.7 1.2-2.9 3.1-2.9.7 0 1.2.1 1.4.3l-.2.6c-.3-.1-.7-.2-1.2-.2-1.4 0-2.3.9-2.3 2.3s.9 2.3 2.2 2.3c.5 0 .8-.1 1-.2v-1.7H249V95h1.9v2.7zM251.9 93.6l1.8 1.8 1.8-1.8.4.4-1.8 1.8 1.8 1.8-.4.4-1.8-1.8-1.8 1.8-.4-.4 1.8-1.8-1.8-1.8.4-.4zM256.5 98v-.5l.6-.6c1.4-1.3 2-2 2-2.8 0-.6-.3-1.1-1.1-1.1-.5 0-.9.3-1.2.5l-.2-.5c.4-.3.9-.6 1.5-.6 1.2 0 1.7.8 1.7 1.6 0 1-.7 1.8-1.9 2.9l-.4.4h2.4v.7h-3.4zM260.6 99c.2-.5.4-1.4.5-2l.8-.1c-.2.7-.6 1.6-.8 2l-.5.1zm.4-4.4c0-.3.2-.5.5-.5s.5.2.5.5-.2.5-.5.5-.5-.2-.5-.5zM265.5 96.2l-.6 1.8h-.8l1.9-5.6h.9l1.9 5.6h-.8l-.6-1.8h-1.9zm1.9-.6l-.6-1.6c-.1-.4-.2-.7-.3-1-.1.3-.2.7-.3 1l-.6 1.6h1.8zM273.2 95.9c0 1.5-1 2.1-2 2.1-1.1 0-1.9-.8-1.9-2.1 0-1.4.9-2.1 2-2.1 1.2 0 1.9.9 1.9 2.1zm-3.2 0c0 .9.5 1.6 1.2 1.6s1.2-.7 1.2-1.6c0-.7-.3-1.6-1.2-1.6-.8.1-1.2.9-1.2 1.6zM275.9 95.2v-1.3h.7v.7c.3-.5.8-.8 1.4-.8 1 0 1.7.8 1.7 2.1 0 1.5-.9 2.2-1.8 2.2-.5 0-1-.2-1.2-.6v2.2h-.7v-4.5zm.8 1.1v.3c.1.5.6.9 1.1.9.8 0 1.2-.6 1.2-1.6 0-.8-.4-1.5-1.2-1.5-.5 0-1 .4-1.1.9v1zM280.7 92h.7v6h-.7v-6zM284.9 98l-.1-.5c-.2.3-.7.6-1.2.6-.8 0-1.2-.6-1.2-1.2 0-1 .9-1.5 2.4-1.5v-.1c0-.3-.1-.9-.9-.9-.4 0-.8.1-1.1.3l-.2-.5c.3-.2.8-.4 1.3-.4 1.2 0 1.5.8 1.5 1.7V97c0 .4 0 .7.1 1h-.6zm-.1-2.1c-.8 0-1.7.1-1.7.9 0 .5.3.7.7.7.5 0 .9-.3 1-.7V95.9zM286.6 97.2c.2.1.6.3 1 .3.5 0 .8-.3.8-.6 0-.4-.2-.5-.8-.7-.7-.3-1.1-.7-1.1-1.1 0-.7.5-1.2 1.4-1.2.4 0 .8.1 1 .3l-.2.5c-.2-.1-.5-.2-.8-.2-.4 0-.7.3-.7.6s.2.5.8.7c.7.3 1.1.6 1.1 1.2 0 .7-.6 1.2-1.5 1.2-.4 0-.9-.1-1.1-.3l.1-.7zM290.9 92.8V94h1.1v.6h-1.1v2.2c0 .5.1.8.6.8h.4v.6c-.1.1-.4.1-.7.1-.3 0-.6-.1-.8-.3-.2-.2-.3-.6-.3-1.1v-2.2h-.6v-.6h.6v-1l.8-.3zM293.1 93.9l.9 2.4c.1.3.2.6.3.8.1-.2.2-.6.3-.8l.8-2.4h.8l-1.1 2.9c-.5 1.4-.9 2.1-1.4 2.5-.4.3-.7.4-.9.5l-.2-.6c.2-.1.4-.2.6-.4.2-.2.5-.4.6-.8 0-.1.1-.1.1-.2v-.2l-1.5-3.7h.7z"/></g><g><path class="st2" d="M324.5 67.3v2.4h2.7v-2.4h.7v5.6h-.7v-2.6h-2.7v2.6h-.7v-5.6h.7zM330.1 67.7c0 .3-.2.5-.5.5s-.4-.2-.4-.5.2-.5.5-.5c.2 0 .4.3.4.5zm-.8 5.2v-4h.7v4h-.7zM334.7 68.8v3.4c0 .9-.2 1.5-.6 1.8-.4.4-1 .5-1.5.5s-1-.1-1.3-.3l.2-.6c.3.2.7.3 1.2.3.8 0 1.3-.4 1.3-1.4V72c-.2.4-.7.7-1.3.7-1 0-1.7-.9-1.7-2 0-1.4.9-2.1 1.8-2.1.7 0 1.1.4 1.3.7v-.6h.6zm-.7 1.6v-.3c-.1-.4-.5-.8-1-.8-.7 0-1.2.6-1.2 1.5 0 .8.4 1.5 1.2 1.5.5 0 .9-.3 1-.8 0-.1.1-.3.1-.4v-.7zM335.9 67h.7v2.5c.1-.2.3-.4.5-.5.2-.1.5-.2.8-.2.5 0 1.4.3 1.4 1.7v2.4h-.7v-2.3c0-.7-.2-1.2-.9-1.2-.5 0-.9.3-1 .7v2.8h-.7V67z"/></g><g><path class="st2" d="M324.5 92.3v2.4h2.7v-2.4h.7V98h-.7v-2.6h-2.7V98h-.7v-5.6h.7zM330.1 92.8c0 .3-.2.5-.5.5s-.4-.2-.4-.5.2-.5.5-.5c.2 0 .4.2.4.5zm-.8 5.2v-4h.7v4h-.7zM334.7 93.9v3.4c0 .9-.2 1.5-.6 1.8-.4.4-1 .5-1.5.5s-1-.1-1.3-.3l.2-.6c.3.2.7.3 1.2.3.8 0 1.3-.4 1.3-1.4v-.5c-.2.4-.7.7-1.3.7-1 0-1.7-.9-1.7-2 0-1.4.9-2.1 1.8-2.1.7 0 1.1.4 1.3.7v-.6h.6zm-.7 1.6v-.3c-.1-.4-.5-.8-1-.8-.7 0-1.2.6-1.2 1.5 0 .8.4 1.5 1.2 1.5.5 0 .9-.3 1-.8 0-.1.1-.3.1-.4v-.7zM335.9 92h.7v2.5c.1-.2.3-.4.5-.5.2-.1.5-.2.8-.2.5 0 1.4.3 1.4 1.7V98h-.7v-2.3c0-.7-.2-1.2-.9-1.2-.5 0-.9.3-1 .7V98h-.7v-6z"/></g><g><path class="st2" d="M382 67.3c.4-.1 1-.1 1.5-.1 1 0 1.8.2 2.3.7.5.5.8 1.1.8 2 0 .9-.3 1.7-.8 2.2-.5.5-1.4.8-2.5.8-.5 0-1 0-1.3-.1v-5.5zm.8 5h.7c1.6 0 2.4-.9 2.4-2.4 0-1.3-.7-2.2-2.3-2.2-.4 0-.7 0-.9.1v4.5zM389.8 72.9l-.1-.5c-.2.3-.7.6-1.2.6-.8 0-1.2-.6-1.2-1.2 0-1 .9-1.5 2.4-1.5v-.1c0-.3-.1-.9-.9-.9-.4 0-.8.1-1.1.3l-.2-.5c.3-.2.8-.4 1.3-.4 1.2 0 1.5.8 1.5 1.7v1.5c0 .4 0 .7.1 1h-.6zm-.1-2.1c-.8 0-1.7.1-1.7.9 0 .5.3.7.7.7.5 0 .9-.3 1-.7V70.8zM391.8 68.8l.9 2.4c.1.3.2.6.3.8.1-.2.2-.6.3-.8l.8-2.4h.8l-1.1 2.9c-.5 1.4-.9 2.1-1.4 2.5-.4.3-.7.4-.9.5l-.2-.6c.2-.1.4-.2.6-.4.2-.2.5-.4.6-.8 0-.1.1-.1.1-.2v-.2l-1.5-3.7h.7zM397 72.9v-.5l.6-.6c1.4-1.3 2-2 2-2.8 0-.6-.3-1.1-1.1-1.1-.5 0-.9.3-1.2.5l-.2-.5c.4-.3.9-.6 1.5-.6 1.2 0 1.7.8 1.7 1.6 0 1-.7 1.8-1.9 2.9l-.4.4h2.4v.6H397zM401.3 72.9v-.5l.6-.6c1.4-1.3 2-2 2-2.8 0-.6-.3-1.1-1.1-1.1-.5 0-.9.3-1.2.5l-.2-.5c.4-.3.9-.6 1.5-.6 1.2 0 1.7.8 1.7 1.6 0 1-.7 1.8-1.9 2.9l-.4.4h2.4v.6h-3.4z"/></g><g><path class="st2" d="M382 92.4c.4-.1 1-.1 1.5-.1 1 0 1.8.2 2.3.7.5.5.8 1.1.8 2 0 .9-.3 1.7-.8 2.2-.5.5-1.4.8-2.5.8-.5 0-1 0-1.3-.1v-5.5zm.8 5h.7c1.6 0 2.4-.9 2.4-2.4 0-1.3-.7-2.2-2.3-2.2-.4 0-.7 0-.9.1v4.5zM389.8 98l-.1-.5c-.2.3-.7.6-1.2.6-.8 0-1.2-.6-1.2-1.2 0-1 .9-1.5 2.4-1.5v-.1c0-.3-.1-.9-.9-.9-.4 0-.8.1-1.1.3l-.2-.5c.3-.2.8-.4 1.3-.4 1.2 0 1.5.8 1.5 1.7V97c0 .4 0 .7.1 1h-.6zm-.1-2.1c-.8 0-1.7.1-1.7.9 0 .5.3.7.7.7.5 0 .9-.3 1-.7V95.9zM391.8 93.9l.9 2.4c.1.3.2.6.3.8.1-.2.2-.6.3-.8l.8-2.4h.8l-1.1 2.9c-.5 1.4-.9 2.1-1.4 2.5-.4.3-.7.4-.9.5l-.2-.6c.2-.1.4-.2.6-.4.2-.2.5-.4.6-.8 0-.1.1-.1.1-.2v-.2l-1.5-3.7h.7zM398.6 93.2l-1 .5-.1-.6 1.2-.6h.6V98h-.7v-4.8zM404.5 93.1h-2.1l-.2 1.4h.4c.4 0 .8.1 1.2.3.4.2.8.7.8 1.4 0 1.1-.8 1.9-2 1.9-.6 0-1.1-.2-1.4-.3l.2-.6c.2.1.7.3 1.2.3.7 0 1.3-.5 1.3-1.2s-.5-1.2-1.6-1.2c-.3 0-.6 0-.8.1l.4-2.6h2.6v.5z"/></g><g><path class="st2" d="M450.9 72c.3.2.8.4 1.3.4.7 0 1.2-.4 1.2-1 0-.5-.3-.8-1.1-1.1-.9-.3-1.5-.8-1.5-1.6 0-.9.7-1.5 1.8-1.5.6 0 1 .1 1.2.3l-.2.6c-.2-.1-.6-.3-1.1-.3-.8 0-1.1.5-1.1.8 0 .5.3.8 1.1 1.1 1 .4 1.4.8 1.4 1.7 0 .9-.6 1.6-2 1.6-.5 0-1.1-.2-1.4-.4l.4-.6zM456 67.7v1.2h1.1v.6H456v2.2c0 .5.1.8.6.8h.4v.6c-.1.1-.4.1-.7.1-.3 0-.6-.1-.8-.3-.2-.2-.3-.6-.3-1.1v-2.2h-.6V69h.6v-1l.8-.3zM460.1 72.9l-.1-.5c-.2.3-.7.6-1.2.6-.8 0-1.2-.6-1.2-1.2 0-1 .9-1.5 2.4-1.5v-.1c0-.3-.1-.9-.9-.9-.4 0-.8.1-1.1.3l-.2-.5c.3-.2.8-.4 1.3-.4 1.2 0 1.5.8 1.5 1.7v1.5c0 .4 0 .7.1 1h-.6zm-.1-2.1c-.8 0-1.7.1-1.7.9 0 .5.3.7.7.7.5 0 .9-.3 1-.7V70.8zM461.9 70.2v-1.3h.7v.7c.3-.5.8-.8 1.4-.8 1 0 1.7.8 1.7 2.1 0 1.5-.9 2.2-1.8 2.2-.5 0-1-.2-1.2-.6v2.2h-.7v-4.5zm.7 1v.3c.1.5.6.9 1.1.9.8 0 1.2-.6 1.2-1.6 0-.8-.4-1.5-1.2-1.5-.5 0-1 .4-1.1.9v1zM466.6 67h.7v2.5c.1-.2.3-.4.5-.5.2-.1.5-.2.8-.2.5 0 1.4.3 1.4 1.7v2.4h-.7v-2.3c0-.7-.2-1.2-.9-1.2-.5 0-.9.3-1 .7v2.8h-.7V67zM471.1 72.5c0-.3.2-.5.5-.5s.5.2.5.5-.2.5-.5.5-.5-.2-.5-.5zM477 72.9l-.1-.5c-.2.3-.7.6-1.2.6-.8 0-1.2-.6-1.2-1.2 0-1 .9-1.5 2.4-1.5v-.1c0-.3-.1-.9-.9-.9-.4 0-.8.1-1.1.3l-.2-.5c.3-.2.8-.4 1.3-.4 1.2 0 1.5.8 1.5 1.7v1.5c0 .4 0 .7.1 1h-.6zm-.1-2.1c-.8 0-1.7.1-1.7.9 0 .5.3.7.7.7.5 0 .9-.3 1-.7V70.8zM482.2 71.8v1.1h-.7v-.7c-.2.3-.6.8-1.3.8-.6 0-1.4-.4-1.4-1.8v-2.4h.7V71c0 .8.2 1.3.9 1.3.5 0 .8-.3 1-.7 0-.1.1-.2.1-.4v-2.5h.7v3.1zM483.4 70.1v-1.3h.6v.8c.2-.5.6-.9 1.1-.9h.2v.7h-.3c-.5 0-.9.4-1 .9v2.5h-.7v-2.7zM486.5 71c0 1 .7 1.4 1.4 1.4.5 0 .8-.1 1.1-.2l.1.5c-.3.1-.7.3-1.3.3-1.2 0-2-.8-2-2s.7-2.2 1.9-2.2c1.3 0 1.7 1.2 1.7 1.9v.3h-2.9zm2.1-.5c0-.5-.2-1.2-1-1.2-.7 0-1.1.7-1.1 1.2h2.1zM493.6 71.8v1.1h-.6v-.7c-.2.3-.6.8-1.3.8-.6 0-1.4-.4-1.4-1.8v-2.4h.7V71c0 .8.2 1.3.9 1.3.5 0 .8-.3 1-.7 0-.1.1-.2.1-.4v-2.5h.7v3.1zM494.8 72.1c.2.1.6.3 1 .3.5 0 .8-.3.8-.6 0-.4-.2-.5-.8-.7-.7-.3-1.1-.7-1.1-1.1 0-.7.5-1.2 1.4-1.2.4 0 .8.1 1 .3l-.2.5c-.2-.1-.5-.2-.8-.2-.4 0-.7.3-.7.6s.2.5.8.7c.7.3 1.1.6 1.1 1.2 0 .7-.6 1.2-1.5 1.2-.4 0-.9-.1-1.1-.3l.1-.7z"/></g><g><path class="st2" d="M450.9 97.1c.3.2.8.4 1.3.4.7 0 1.2-.4 1.2-1 0-.5-.3-.8-1.1-1.1-.9-.3-1.5-.8-1.5-1.6 0-.9.7-1.5 1.8-1.5.6 0 1 .1 1.2.3l-.2.6c-.2-.1-.6-.3-1.1-.3-.8 0-1.1.5-1.1.8 0 .5.3.8 1.1 1.1 1 .4 1.4.8 1.4 1.7 0 .9-.6 1.6-2 1.6-.5 0-1.1-.2-1.4-.4l.4-.6zM456 92.8V94h1.1v.6H456v2.2c0 .5.1.8.6.8h.4v.6c-.1.1-.4.1-.7.1-.3 0-.6-.1-.8-.3-.2-.2-.3-.6-.3-1.1v-2.2h-.6v-.6h.6v-1l.8-.3zM460.1 98l-.1-.5c-.2.3-.7.6-1.2.6-.8 0-1.2-.6-1.2-1.2 0-1 .9-1.5 2.4-1.5v-.1c0-.3-.1-.9-.9-.9-.4 0-.8.1-1.1.3l-.2-.5c.3-.2.8-.4 1.3-.4 1.2 0 1.5.8 1.5 1.7V97c0 .4 0 .7.1 1h-.6zm-.1-2.1c-.8 0-1.7.1-1.7.9 0 .5.3.7.7.7.5 0 .9-.3 1-.7V95.9zM461.9 95.2v-1.3h.7v.7c.3-.5.8-.8 1.4-.8 1 0 1.7.8 1.7 2.1 0 1.5-.9 2.2-1.8 2.2-.5 0-1-.2-1.2-.6v2.2h-.7v-4.5zm.7 1.1v.3c.1.5.6.9 1.1.9.8 0 1.2-.6 1.2-1.6 0-.8-.4-1.5-1.2-1.5-.5 0-1 .4-1.1.9v1zM466.6 92h.7v2.5c.1-.2.3-.4.5-.5.2-.1.5-.2.8-.2.5 0 1.4.3 1.4 1.7V98h-.7v-2.3c0-.7-.2-1.2-.9-1.2-.5 0-.9.3-1 .7V98h-.7v-6zM471.1 97.5c0-.3.2-.5.5-.5s.5.2.5.5-.2.5-.5.5c-.3.1-.5-.2-.5-.5zM477 98l-.1-.5c-.2.3-.7.6-1.2.6-.8 0-1.2-.6-1.2-1.2 0-1 .9-1.5 2.4-1.5v-.1c0-.3-.1-.9-.9-.9-.4 0-.8.1-1.1.3l-.2-.5c.3-.2.8-.4 1.3-.4 1.2 0 1.5.8 1.5 1.7V97c0 .4 0 .7.1 1h-.6zm-.1-2.1c-.8 0-1.7.1-1.7.9 0 .5.3.7.7.7.5 0 .9-.3 1-.7V95.9zM482.2 96.9V98h-.7v-.7c-.2.3-.6.8-1.3.8-.6 0-1.4-.4-1.4-1.8v-2.4h.7v2.2c0 .8.2 1.3.9 1.3.5 0 .8-.3 1-.7 0-.1.1-.2.1-.4v-2.5h.7v3.1zM483.4 95.2v-1.3h.6v.8c.2-.5.6-.9 1.1-.9h.2v.7h-.3c-.5 0-.9.4-1 .9V98h-.7v-2.8zM486.5 96.1c0 1 .7 1.4 1.4 1.4.5 0 .8-.1 1.1-.2l.1.5c-.3.1-.7.3-1.3.3-1.2 0-2-.8-2-2s.7-2.2 1.9-2.2c1.3 0 1.7 1.2 1.7 1.9v.3h-2.9zm2.1-.6c0-.5-.2-1.2-1-1.2-.7 0-1.1.7-1.1 1.2h2.1zM493.6 96.9V98h-.6v-.7c-.2.3-.6.8-1.3.8-.6 0-1.4-.4-1.4-1.8v-2.4h.7v2.2c0 .8.2 1.3.9 1.3.5 0 .8-.3 1-.7 0-.1.1-.2.1-.4v-2.5h.7v3.1zM494.8 97.2c.2.1.6.3 1 .3.5 0 .8-.3.8-.6 0-.4-.2-.5-.8-.7-.7-.3-1.1-.7-1.1-1.1 0-.7.5-1.2 1.4-1.2.4 0 .8.1 1 .3l-.2.5c-.2-.1-.5-.2-.8-.2-.4 0-.7.3-.7.6s.2.5.8.7c.7.3 1.1.6 1.1 1.2 0 .7-.6 1.2-1.5 1.2-.4 0-.9-.1-1.1-.3l.1-.7z"/></g><g><path class="st2" d="M533.2 70.4c0-.8-.1-1.7-.1-2.4-.2.7-.4 1.4-.7 2.1l-1 2.7h-.6l-.9-2.7c-.3-.8-.5-1.5-.7-2.2 0 .7-.1 1.6-.1 2.5l-.2 2.4h-.7l.4-5.6h.9l1 2.7c.2.7.4 1.3.6 1.9.1-.6.3-1.2.6-1.9l1-2.7h.9l.4 5.6h-.7l-.1-2.4zM535.6 71c0 1 .7 1.4 1.4 1.4.5 0 .8-.1 1.1-.2l.1.5c-.3.1-.7.3-1.3.3-1.2 0-2-.8-2-2s.7-2.2 1.9-2.2c1.3 0 1.7 1.2 1.7 1.9v.3h-2.9zm2.2-.5c0-.5-.2-1.2-1-1.2-.7 0-1.1.7-1.1 1.2h2.1zM540.3 67.7v1.2h1.1v.6h-1.1v2.2c0 .5.1.8.6.8h.4v.6c-.1.1-.4.1-.7.1-.3 0-.6-.1-.8-.3-.2-.2-.3-.6-.3-1.1v-2.2h-.6V69h.6v-1l.8-.3zM542.2 67h.7v2.5c.1-.2.3-.4.5-.5.2-.1.5-.2.8-.2.5 0 1.4.3 1.4 1.7v2.4h-.7v-2.3c0-.7-.2-1.2-.9-1.2-.5 0-.9.3-1 .7v2.8h-.7V67zM547.6 67.7c0 .3-.2.5-.5.5s-.4-.2-.4-.5.2-.5.5-.5c.2 0 .4.3.4.5zm-.8 5.2v-4h.7v4h-.7zM551.6 72.7c-.2.1-.6.2-1.2.2-1.2 0-2-.8-2-2.1 0-1.2.9-2.1 2.2-2.1.4 0 .8.1 1 .2l-.2.6c-.2-.1-.5-.2-.9-.2-.9 0-1.4.7-1.4 1.5 0 .9.6 1.5 1.4 1.5.4 0 .7-.1.9-.2l.2.6zM553.3 67.7c0 .3-.2.5-.5.5s-.4-.2-.4-.5.2-.5.5-.5c.2 0 .4.3.4.5zm-.8 5.2v-4h.7v4h-.7zM554.4 67h.7v5.9h-.7V67zM556.4 67h.7v5.9h-.7V67zM559.2 67.7c0 .3-.2.5-.5.5s-.4-.2-.4-.5.2-.5.5-.5c.2 0 .4.3.4.5zm-.8 5.2v-4h.7v4h-.7zM560.3 69.9v-1.1h.7v.7c.2-.4.7-.8 1.3-.8.6 0 1.4.3 1.4 1.7v2.4h-.7v-2.3c0-.7-.2-1.2-.9-1.2-.5 0-.9.3-1 .8V72.8h-.7v-2.9zM566.7 72.1c.2.1.6.3 1 .3.5 0 .8-.3.8-.6 0-.4-.2-.5-.8-.7-.7-.3-1.1-.7-1.1-1.1 0-.7.5-1.2 1.4-1.2.4 0 .8.1 1 .3l-.2.5c-.2-.1-.5-.2-.8-.2-.4 0-.7.3-.7.6s.2.5.8.7c.7.3 1.1.6 1.1 1.2 0 .7-.6 1.2-1.5 1.2-.4 0-.9-.1-1.1-.3l.1-.7zM570.5 71c0 1 .7 1.4 1.4 1.4.5 0 .8-.1 1.1-.2l.1.5c-.3.1-.7.3-1.3.3-1.2 0-2-.8-2-2s.7-2.2 1.9-2.2c1.3 0 1.7 1.2 1.7 1.9v.3h-2.9zm2.1-.5c0-.5-.2-1.2-1-1.2-.7 0-1.1.7-1.1 1.2h2.1zM574.2 69.9v-1.1h.7v.7c.2-.4.7-.8 1.3-.8.6 0 1.4.3 1.4 1.7v2.4h-.6v-2.3c0-.7-.2-1.2-.9-1.2-.5 0-.9.3-1 .8V72.8h-.7v-2.9zM578.8 72.1c.2.1.6.3 1 .3.5 0 .8-.3.8-.6 0-.4-.2-.5-.8-.7-.7-.3-1.1-.7-1.1-1.1 0-.7.5-1.2 1.4-1.2.4 0 .8.1 1 .3l-.2.5c-.2-.1-.5-.2-.8-.2-.4 0-.7.3-.7.6s.2.5.8.7c.7.3 1.1.6 1.1 1.2 0 .7-.6 1.2-1.5 1.2-.4 0-.9-.1-1.1-.3l.1-.7zM583 67.7c0 .3-.2.5-.5.5s-.4-.2-.4-.5.2-.5.5-.5c.2 0 .4.3.4.5zm-.8 5.2v-4h.7v4h-.7zM585 67.7v1.2h1.1v.6H585v2.2c0 .5.1.8.6.8h.4v.6c-.1.1-.4.1-.7.1-.3 0-.6-.1-.8-.3-.2-.2-.3-.6-.3-1.1v-2.2h-.6V69h.6v-1l.8-.3zM587.7 67.7c0 .3-.2.5-.5.5s-.4-.2-.4-.5.2-.5.5-.5.4.3.4.5zm-.8 5.2v-4h.7v4h-.7zM589.2 68.8l.8 2.3c.1.4.2.7.3 1 .1-.3.2-.7.3-1l.8-2.3h.8l-1.6 4h-.7l-1.5-4h.8zM593.2 71c0 1 .7 1.4 1.4 1.4.5 0 .8-.1 1.1-.2l.1.5c-.3.1-.7.3-1.3.3-1.2 0-2-.8-2-2s.7-2.2 1.9-2.2c1.3 0 1.7 1.2 1.7 1.9v.3h-2.9zm2.2-.5c0-.5-.2-1.2-1-1.2-.7 0-1.1.7-1.1 1.2h2.1z"/></g><g><path class="st2" d="M533.5 95.5c0-.8-.1-1.7-.1-2.4-.2.7-.4 1.4-.7 2.1l-1 2.7h-.6l-.9-2.7c-.3-.8-.5-1.5-.7-2.2 0 .7-.1 1.6-.1 2.5l-.2 2.4h-.7l.4-5.6h.9l1 2.7c.2.7.4 1.3.6 1.9.1-.6.3-1.2.6-1.9l1-2.7h.9l.4 5.6h-.7l-.1-2.4zM535.9 96.1c0 1 .7 1.4 1.4 1.4.5 0 .8-.1 1.1-.2l.1.5c-.3.1-.7.3-1.3.3-1.2 0-2-.8-2-2s.7-2.2 1.9-2.2c1.3 0 1.7 1.2 1.7 1.9v.3h-2.9zm2.2-.6c0-.5-.2-1.2-1-1.2-.7 0-1.1.7-1.1 1.2h2.1zM540.6 92.8V94h1.1v.6h-1.1v2.2c0 .5.1.8.6.8h.4v.6c-.1.1-.4.1-.7.1-.3 0-.6-.1-.8-.3-.2-.2-.3-.6-.3-1.1v-2.2h-.6v-.6h.6v-1l.8-.3zM542.5 92h.7v2.5c.1-.2.3-.4.5-.5.2-.1.5-.2.8-.2.5 0 1.4.3 1.4 1.7V98h-.7v-2.3c0-.7-.2-1.2-.9-1.2-.5 0-.9.3-1 .7V98h-.7v-6zM547.9 92.8c0 .3-.2.5-.5.5s-.4-.2-.4-.5.2-.5.5-.5.4.2.4.5zm-.8 5.2v-4h.7v4h-.7zM552 97.8c-.2.1-.6.2-1.2.2-1.2 0-2-.8-2-2.1 0-1.2.9-2.1 2.2-2.1.4 0 .8.1 1 .2l-.2.6c-.2-.1-.5-.2-.9-.2-.9 0-1.4.7-1.4 1.5 0 .9.6 1.5 1.4 1.5.4 0 .7-.1.9-.2l.2.6zM553.6 92.8c0 .3-.2.5-.5.5s-.4-.2-.4-.5.2-.5.5-.5.4.2.4.5zm-.8 5.2v-4h.7v4h-.7zM554.8 92h.7v6h-.7v-6zM556.8 92h.7v6h-.7v-6zM559.5 92.8c0 .3-.2.5-.5.5s-.4-.2-.4-.5.2-.5.5-.5.4.2.4.5zm-.8 5.2v-4h.7v4h-.7zM560.7 95v-1.1h.7v.7c.2-.4.7-.8 1.3-.8.6 0 1.4.3 1.4 1.7V98h-.7v-2.3c0-.7-.2-1.2-.9-1.2-.5 0-.9.3-1 .8V98h-.7v-3zM567.1 95.2v-1.3h.6v.8c.2-.5.6-.9 1.1-.9h.2v.7h-.3c-.5 0-.9.4-1 .9V98h-.7v-2.8zM570.1 96.1c0 1 .7 1.4 1.4 1.4.5 0 .8-.1 1.1-.2l.1.5c-.3.1-.7.3-1.3.3-1.2 0-2-.8-2-2s.7-2.2 1.9-2.2c1.3 0 1.7 1.2 1.7 1.9v.3h-2.9zm2.2-.6c0-.5-.2-1.2-1-1.2-.7 0-1.1.7-1.1 1.2h2.1zM573.8 97.2c.2.1.6.3 1 .3.5 0 .8-.3.8-.6 0-.4-.2-.5-.8-.7-.7-.3-1.1-.7-1.1-1.1 0-.7.5-1.2 1.4-1.2.4 0 .8.1 1 .3l-.2.5c-.2-.1-.5-.2-.8-.2-.4 0-.7.3-.7.6s.2.5.8.7c.7.3 1.1.6 1.1 1.2 0 .7-.6 1.2-1.5 1.2-.4 0-.9-.1-1.1-.3l.1-.7zM578.1 92.8c0 .3-.2.5-.5.5s-.4-.2-.4-.5.2-.5.5-.5c.2 0 .4.2.4.5zm-.9 5.2v-4h.7v4h-.7zM579.1 97.2c.2.1.6.3 1 .3.5 0 .8-.3.8-.6 0-.4-.2-.5-.8-.7-.7-.3-1.1-.7-1.1-1.1 0-.7.5-1.2 1.4-1.2.4 0 .8.1 1 .3l-.2.5c-.2-.1-.5-.2-.8-.2-.4 0-.7.3-.7.6s.2.5.8.7c.7.3 1.1.6 1.1 1.2 0 .7-.6 1.2-1.5 1.2-.4 0-.9-.1-1.1-.3l.1-.7zM583.4 92.8V94h1.1v.6h-1.1v2.2c0 .5.1.8.6.8h.4v.6c-.1.1-.4.1-.7.1-.3 0-.6-.1-.8-.3-.2-.2-.3-.6-.3-1.1v-2.2h-.6v-.6h.6v-1l.8-.3zM587.5 98l-.1-.5c-.2.3-.7.6-1.2.6-.8 0-1.2-.6-1.2-1.2 0-1 .9-1.5 2.4-1.5v-.1c0-.3-.1-.9-.9-.9-.4 0-.8.1-1.1.3l-.2-.5c.3-.2.8-.4 1.3-.4 1.2 0 1.5.8 1.5 1.7V97c0 .4 0 .7.1 1h-.6zm-.1-2.1c-.8 0-1.7.1-1.7.9 0 .5.3.7.7.7.5 0 .9-.3 1-.7V95.9zM589.3 95v-1.1h.7v.7c.2-.4.7-.8 1.3-.8.6 0 1.4.3 1.4 1.7V98h-.7v-2.3c0-.7-.2-1.2-.9-1.2-.5 0-.9.3-1 .8V98h-.7v-3zM594.8 92.8V94h1.1v.6h-1.1v2.2c0 .5.1.8.6.8h.4v.6c-.1.1-.4.1-.7.1-.3 0-.6-.1-.8-.3-.2-.2-.3-.6-.3-1.1v-2.2h-.6v-.6h.6v-1l.8-.3z"/></g><g><path class="st2" d="M646.4 62.5v5.6h-.7v-5.6h.7zM651.6 67.9c-.3.1-.8.3-1.5.3-1.6 0-2.8-1-2.8-2.9 0-1.8 1.2-3 2.9-3 .7 0 1.1.2 1.3.3l-.2.6c-.3-.1-.7-.2-1.1-.2-1.3 0-2.2.8-2.2 2.3 0 1.4.8 2.3 2.2 2.3.4 0 .9-.1 1.2-.2l.2.5zM653.3 62.5v3.3c0 1.3.6 1.8 1.3 1.8.8 0 1.4-.6 1.4-1.8v-3.3h.7v3.3c0 1.7-.9 2.4-2.1 2.4-1.2 0-2-.7-2-2.4v-3.3h.7zM661.9 68.1l-.1-.5c-.2.3-.7.6-1.2.6-.8 0-1.2-.6-1.2-1.2 0-1 .9-1.5 2.4-1.5v-.1c0-.3-.1-.9-.9-.9-.4 0-.8.1-1.1.3l-.2-.5c.3-.2.8-.4 1.3-.4 1.2 0 1.5.8 1.5 1.7v1.5c0 .4 0 .7.1 1h-.6zm-.1-2c-.8 0-1.7.1-1.7.9 0 .5.3.7.7.7.5 0 .9-.3 1-.7V66.1zM667.2 62.2v5.9h-.7v-.7c-.2.5-.7.8-1.4.8-1 0-1.7-.8-1.7-2.1s.8-2.2 1.8-2.2c.6 0 1 .3 1.2.6v-2.4h.8zm-.7 3.5v-.3c-.1-.5-.5-.9-1.1-.9-.8 0-1.2.7-1.2 1.6 0 .8.4 1.5 1.2 1.5.5 0 .9-.3 1.1-.9v-1zM668.4 65.2v-1.1h.6v.7c.2-.4.6-.7 1.3-.7.6 0 1 .3 1.1.8.1-.2.3-.4.5-.5.2-.2.5-.3.9-.3.5 0 1.3.4 1.3 1.8v2.4h-.7V66c0-.8-.3-1.2-.9-1.2-.4 0-.7.3-.9.7 0 .1-.1.2-.1.4v2.5h-.5V66c0-.6-.3-1.1-.8-1.1s-.8.4-.9.7c0 .1-.1.2-.1.4v2.4h-.7v-3.2zM676.2 62.9c0 .3-.2.5-.5.5s-.4-.2-.4-.5.2-.5.5-.5c.2.1.4.3.4.5zm-.8 5.2v-4h.7v4h-.7zM677.2 67.4c.2.1.6.3 1 .3.5 0 .8-.3.8-.6 0-.4-.2-.5-.8-.7-.7-.3-1.1-.7-1.1-1.1 0-.7.5-1.2 1.4-1.2.4 0 .8.1 1 .3l-.2.5c-.2-.1-.5-.2-.8-.2-.4 0-.7.3-.7.6s.2.5.8.7c.7.3 1.1.6 1.1 1.2 0 .7-.6 1.2-1.5 1.2-.4 0-.9-.1-1.1-.3l.1-.7zM680.6 67.4c.2.1.6.3 1 .3.5 0 .8-.3.8-.6 0-.4-.2-.5-.8-.7-.7-.3-1.1-.7-1.1-1.1 0-.7.5-1.2 1.4-1.2.4 0 .8.1 1 .3l-.2.5c-.2-.1-.5-.2-.8-.2-.4 0-.7.3-.7.6s.2.5.8.7c.7.3 1.1.6 1.1 1.2 0 .7-.6 1.2-1.5 1.2-.4 0-.9-.1-1.1-.3l.1-.7zM684.8 62.9c0 .3-.2.5-.5.5s-.4-.2-.4-.5.2-.5.5-.5c.2.1.4.3.4.5zm-.8 5.2v-4h.7v4h-.7zM689.6 66.1c0 1.5-1 2.1-2 2.1-1.1 0-1.9-.8-1.9-2.1 0-1.4.9-2.1 2-2.1s1.9.8 1.9 2.1zm-3.2 0c0 .9.5 1.6 1.2 1.6s1.2-.7 1.2-1.6c0-.7-.3-1.6-1.2-1.6-.9 0-1.2.8-1.2 1.6zM690.5 65.2v-1.1h.7v.7c.2-.4.7-.8 1.3-.8.6 0 1.4.3 1.4 1.7v2.4h-.7v-2.3c0-.7-.2-1.2-.9-1.2-.5 0-.9.3-1 .8V68.1h-.7v-2.9zM662.7 75.8v.5H659v-.5h3.7zM667.6 78.1l-.1-.5c-.2.3-.7.6-1.2.6-.8 0-1.2-.6-1.2-1.2 0-1 .9-1.5 2.4-1.5v-.1c0-.3-.1-.9-.9-.9-.4 0-.8.1-1.1.3l-.2-.5c.3-.2.8-.4 1.3-.4 1.2 0 1.5.8 1.5 1.7v1.5c0 .4 0 .7.1 1h-.6zm-.1-2c-.8 0-1.7.1-1.7.9 0 .5.3.7.7.7.5 0 .9-.3 1-.7V76.1zM669.4 72.2h.7v5.9h-.7v-5.9zM672.2 73c0 .3-.2.5-.5.5s-.4-.2-.4-.5.2-.5.5-.5c.2 0 .4.2.4.5zm-.9 5.1v-4h.7v4h-.7zM673.6 74.1l.8 2.3c.1.4.2.7.3 1 .1-.3.2-.7.3-1l.8-2.3h.8l-1.6 4h-.7l-1.5-4h.8zM677.6 76.3c0 1 .7 1.4 1.4 1.4.5 0 .8-.1 1.1-.2l.1.5c-.3.1-.7.3-1.3.3-1.2 0-2-.8-2-2s.7-2.2 1.9-2.2c1.3 0 1.7 1.2 1.7 1.9v.3h-2.9zm2.2-.6c0-.5-.2-1.2-1-1.2-.7 0-1.1.7-1.1 1.2h2.1z"/></g><g><path class="st2" d="M382.7 42.8c.4-.1 1-.1 1.5-.1 1 0 1.8.2 2.3.7.5.5.8 1.1.8 2 0 .9-.3 1.7-.8 2.2-.5.5-1.4.8-2.5.8-.5 0-1 0-1.3-.1v-5.5zm.7 5h.7c1.6 0 2.4-.9 2.4-2.4 0-1.3-.7-2.2-2.3-2.2-.4 0-.7 0-.9.1v4.5zM390.4 48.4l-.1-.5c-.2.3-.7.6-1.2.6-.8 0-1.2-.6-1.2-1.2 0-1 .9-1.5 2.4-1.5v-.1c0-.3-.1-.9-.9-.9-.4 0-.8.1-1.1.3l-.2-.5c.3-.2.8-.4 1.3-.4 1.2 0 1.5.8 1.5 1.7v1.5c0 .4 0 .7.1 1h-.6zm-.1-2.1c-.8 0-1.7.1-1.7.9 0 .5.3.7.7.7.5 0 .9-.3 1-.7V46.3zM392.4 44.3l.9 2.4c.1.3.2.6.3.8.1-.2.2-.6.3-.8l.8-2.4h.8l-1.1 2.9c-.5 1.4-.9 2.1-1.4 2.5-.4.3-.7.4-.9.5l-.2-.6c.2-.1.4-.2.6-.4.2-.2.5-.4.6-.8 0-.1.1-.1.1-.2V48l-1.5-3.7h.7zM398.1 47.9h.6c.4-.1.8-.2 1.1-.5.4-.3.6-.8.7-1.4-.3.4-.7.6-1.3.6-1 0-1.6-.7-1.6-1.7s.7-1.9 1.9-1.9 1.8.9 1.8 2.3c0 1.2-.4 2-.9 2.6-.4.4-1 .7-1.6.7h-.7v-.7zm.2-3.2c0 .7.4 1.2 1 1.2.5 0 .9-.2 1.1-.6 0-.1.1-.2.1-.3 0-.9-.3-1.6-1.1-1.6-.6 0-1.1.6-1.1 1.3z"/></g><g><path class="st2" d="M469 45.7h-2.2v2h2.4v.6H466v-5.6h3v.6h-2.3v1.8h2.2v.6zM470 47.9c0-.3.2-.5.5-.5s.5.2.5.5-.2.5-.5.5c-.3.1-.5-.2-.5-.5zM474.7 48.2c-.2.1-.6.2-1.2.2-1.2 0-2-.8-2-2.1 0-1.2.9-2.1 2.2-2.1.4 0 .8.1 1 .2l-.2.6c-.2-.1-.5-.2-.9-.2-.9 0-1.4.7-1.4 1.5 0 .9.6 1.5 1.4 1.5.4 0 .7-.1.9-.2l.2.6zM479.2 46.3c0 1.5-1 2.1-2 2.1-1.1 0-1.9-.8-1.9-2.1 0-1.4.9-2.1 2-2.1s1.9.9 1.9 2.1zm-3.2.1c0 .9.5 1.6 1.2 1.6s1.2-.7 1.2-1.6c0-.7-.3-1.6-1.2-1.6-.8 0-1.2.8-1.2 1.6zM480.1 42.4h.7v5.9h-.7v-5.9zM482.9 43.2c0 .3-.2.5-.5.5s-.4-.2-.4-.5.2-.5.5-.5.4.2.4.5zm-.8 5.2v-4h.7v4h-.7z"/></g><g><path class="st2" d="M661.3 42.8c.4-.1 1-.1 1.5-.1 1 0 1.8.2 2.3.7.5.5.8 1.1.8 2 0 .9-.3 1.7-.8 2.2-.5.5-1.4.8-2.5.8-.5 0-1 0-1.3-.1v-5.5zm.7 5h.7c1.6 0 2.4-.9 2.4-2.4 0-1.3-.7-2.2-2.3-2.2-.4 0-.7 0-.9.1v4.5zM667.6 43.2c0 .3-.2.5-.5.5s-.4-.2-.4-.5.2-.5.5-.5c.2 0 .4.2.4.5zm-.8 5.2v-4h.7v4h-.7zM669.2 46.5c0 1 .7 1.4 1.4 1.4.5 0 .8-.1 1.1-.2l.1.5c-.3.1-.7.3-1.3.3-1.2 0-2-.8-2-2s.7-2.2 1.9-2.2c1.3 0 1.7 1.2 1.7 1.9v.3h-2.9zm2.1-.5c0-.5-.2-1.2-1-1.2-.7 0-1.1.7-1.1 1.2h2.1zM676.4 42.4v5.9h-.7v-.7c-.2.5-.7.8-1.4.8-1 0-1.7-.8-1.7-2.1s.8-2.2 1.8-2.2c.6 0 1 .3 1.2.6v-2.4h.8zm-.7 3.6v-.3c-.1-.5-.5-.9-1.1-.9-.8 0-1.2.7-1.2 1.6 0 .8.4 1.5 1.2 1.5.5 0 .9-.3 1.1-.9v-1z"/></g><g><path class="st2" d="M619.3 46.6l-.6 1.8h-.7l1.9-5.6h.9l1.9 5.6h-.8l-.6-1.8h-2zm1.9-.6l-.6-1.6c-.1-.4-.2-.7-.3-1-.1.3-.2.7-.3 1l-.6 1.6h1.8z"/></g><g><path class="st2" d="M618.7 67.3c.3-.1.8-.1 1.3-.1.7 0 1.2.1 1.5.4.3.2.5.6.5 1 0 .5-.4 1-1 1.2.5.1 1.2.6 1.2 1.4 0 .5-.2.9-.5 1.1-.4.4-1 .5-1.9.5-.5 0-.9 0-1.1-.1v-5.4zm.7 2.3h.7c.8 0 1.2-.4 1.2-.9 0-.7-.5-.9-1.2-.9h-.6v1.8zm0 2.7h.6c.8 0 1.4-.3 1.4-1.1s-.7-1.1-1.5-1.1h-.6v2.2z"/></g><g><path class="st2" d="M622.5 97.8c-.3.1-.8.3-1.5.3-1.6 0-2.8-1-2.8-2.9 0-1.8 1.2-3 2.9-3 .7 0 1.1.2 1.3.3l-.2.6c-.3-.1-.7-.2-1.1-.2-1.3 0-2.2.8-2.2 2.3 0 1.4.8 2.3 2.2 2.3.4 0 .9-.1 1.2-.2l.2.5z"/></g><g><path class="st2" d="M539.6 36.9c.4-.1.9-.1 1.4-.1.8 0 1.3.1 1.6.5.3.3.4.6.4 1.1 0 .7-.5 1.2-1.1 1.4.4.2.7.6.8 1.1.2.8.3 1.3.4 1.5h-.8c-.1-.2-.2-.6-.4-1.3-.2-.8-.5-1.1-1.1-1.1h-.7v2.4h-.7v-5.5zm.7 2.6h.7c.8 0 1.3-.4 1.3-1.1 0-.7-.5-1-1.3-1.1-.4 0-.6 0-.7.1v2.1zM544.5 40.6c0 1 .7 1.4 1.4 1.4.5 0 .8-.1 1.1-.2l.1.5c-.3.1-.7.3-1.3.3-1.2 0-2-.8-2-2s.7-2.2 1.9-2.2c1.3 0 1.7 1.2 1.7 1.9v.3h-2.9zm2.2-.5c0-.5-.2-1.2-1-1.2-.7 0-1.1.7-1.1 1.2h2.1zM548.2 41.7c.2.1.6.3 1 .3.5 0 .8-.3.8-.6 0-.4-.2-.5-.8-.7-.7-.3-1.1-.7-1.1-1.1 0-.7.5-1.2 1.4-1.2.4 0 .8.1 1 .3l-.2.5c-.2-.1-.5-.2-.8-.2-.4 0-.7.3-.7.6s.2.5.8.7c.7.3 1.1.6 1.1 1.2 0 .7-.6 1.2-1.5 1.2-.4 0-.9-.1-1.1-.3l.1-.7zM552.4 37.3c0 .3-.2.5-.5.5s-.4-.2-.4-.5.2-.5.5-.5.4.2.4.5zm-.8 5.2v-4h.7v4h-.7zM553.5 41.7c.2.1.6.3 1 .3.5 0 .8-.3.8-.6 0-.4-.2-.5-.8-.7-.7-.3-1.1-.7-1.1-1.1 0-.7.5-1.2 1.4-1.2.4 0 .8.1 1 .3l-.2.5c-.2-.1-.5-.2-.8-.2-.4 0-.7.3-.7.6s.2.5.8.7c.7.3 1.1.6 1.1 1.2 0 .7-.6 1.2-1.5 1.2-.4 0-.9-.1-1.1-.3l.1-.7zM557.8 37.3v1.2h1.1v.5h-1.1v2.2c0 .5.1.8.6.8.2 0 .3 0 .4-.1v.6c-.1.1-.4.1-.7.1-.3 0-.6-.1-.8-.3-.2-.2-.3-.6-.3-1.1V39h-.6v-.6h.6v-1l.8-.1zM561.9 42.5l-.1-.5c-.2.3-.7.6-1.2.6-.8 0-1.2-.6-1.2-1.2 0-1 .9-1.5 2.4-1.5v-.1c0-.3-.1-.9-.9-.9-.4 0-.8.1-1.1.3l-.2-.5c.3-.2.8-.4 1.3-.4 1.2 0 1.5.8 1.5 1.7v1.5c0 .4 0 .7.1 1h-.6zm-.1-2.1c-.8 0-1.7.1-1.7.9 0 .5.3.7.7.7.5 0 .9-.3 1-.7V40.4zM563.7 39.5v-1.1h.7v.7c.2-.4.7-.8 1.3-.8.6 0 1.4.3 1.4 1.7v2.4h-.7v-2.3c0-.7-.2-1.2-.9-1.2-.5 0-.9.3-1 .8V42.4h-.7v-2.9zM569.2 37.3v1.2h1.1v.5h-1.1v2.2c0 .5.1.8.6.8.2 0 .3 0 .4-.1v.6c-.1.1-.4.1-.7.1-.3 0-.6-.1-.8-.3-.2-.2-.3-.6-.3-1.1V39h-.6v-.6h.6v-1l.8-.1zM576.5 40.4c0 1.5-1 2.1-2 2.1-1.1 0-1.9-.8-1.9-2.1 0-1.4.9-2.1 2-2.1s1.9.9 1.9 2.1zm-3.2.1c0 .9.5 1.6 1.2 1.6s1.2-.7 1.2-1.6c0-.7-.3-1.6-1.2-1.6-.9 0-1.2.8-1.2 1.6zM577.4 39.5v-1.1h.7v.7c.2-.4.7-.8 1.3-.8.6 0 1.4.3 1.4 1.7v2.4h-.7v-2.3c0-.7-.2-1.2-.9-1.2-.5 0-.9.3-1 .8V42.4h-.7v-2.9zM582 36.5h.7v5.9h-.7v-5.9zM584.3 38.4l.9 2.4c.1.3.2.6.3.8.1-.2.2-.6.3-.8l.8-2.4h.8l-1.1 2.9c-.5 1.4-.9 2.1-1.4 2.5-.4.3-.7.4-.9.5l-.2-.6c.2-.1.4-.2.6-.4.2-.2.5-.4.6-.8 0-.1.1-.1.1-.2v-.2l-1.5-3.7h.7zM540.5 47.3v1.2h1.1v.5h-1.1v2.2c0 .5.1.8.6.8h.4v.6c-.1.1-.4.1-.7.1-.3 0-.6-.1-.8-.3-.2-.2-.3-.6-.3-1.1V49h-.6v-.6h.6v-1l.8-.1zM546 50.4c0 1.5-1 2.1-2 2.1-1.1 0-1.9-.8-1.9-2.1 0-1.4.9-2.1 2-2.1 1.1.1 1.9.9 1.9 2.1zm-3.2.1c0 .9.5 1.6 1.2 1.6s1.2-.7 1.2-1.6c0-.7-.3-1.6-1.2-1.6-.9 0-1.2.8-1.2 1.6zM550.9 52.5l-.1-.5c-.2.3-.7.6-1.2.6-.8 0-1.2-.6-1.2-1.2 0-1 .9-1.5 2.4-1.5v-.1c0-.3-.1-.9-.9-.9-.4 0-.8.1-1.1.3l-.2-.5c.3-.2.8-.4 1.3-.4 1.2 0 1.5.8 1.5 1.7v1.5c0 .4 0 .7.1 1h-.6zm-.1-2.1c-.8 0-1.7.1-1.7.9 0 .5.3.7.7.7.5 0 .9-.3 1-.7V50.4zM552.7 49.6v-1.1h.6v.7c.2-.4.6-.7 1.3-.7.6 0 1 .3 1.1.8.1-.2.3-.4.5-.5.2-.2.5-.3.9-.3.5 0 1.3.4 1.3 1.8v2.4h-.7v-2.3c0-.8-.3-1.2-.9-1.2-.4 0-.7.3-.9.7 0 .1-.1.2-.1.4v2.5h-.7v-2.4c0-.6-.3-1.1-.8-1.1s-.8.4-.9.7c0 .1-.1.2-.1.4v2.4h-.7v-3.2zM559.7 49.8v-1.3h.7v.7c.3-.5.8-.8 1.4-.8 1 0 1.7.8 1.7 2.1 0 1.5-.9 2.2-1.8 2.2-.5 0-1-.2-1.2-.6v2.2h-.7v-4.5zm.7 1.1v.3c.1.5.6.9 1.1.9.8 0 1.2-.6 1.2-1.6 0-.8-.4-1.5-1.2-1.5-.5 0-1 .4-1.1.9v1zM565.2 47.3c0 .3-.2.5-.5.5s-.4-.2-.4-.5.2-.5.5-.5c.3.1.4.3.4.5zm-.8 5.2v-4h.7v4h-.7zM569.3 52.4c-.2.1-.6.2-1.2.2-1.2 0-2-.8-2-2.1 0-1.2.9-2.1 2.2-2.1.4 0 .8.1 1 .2l-.2.6c-.2-.1-.5-.2-.9-.2-.9 0-1.4.7-1.4 1.5 0 .9.6 1.5 1.4 1.5.4 0 .7-.1.9-.2l.2.6zM570.9 47.3c0 .3-.2.5-.5.5s-.4-.2-.4-.5.2-.5.5-.5c.3.1.4.3.4.5zm-.8 5.2v-4h.7v4h-.7zM572.1 46.6h.7v5.9h-.7v-5.9zM574 46.6h.7v5.9h-.7v-5.9zM576.8 47.3c0 .3-.2.5-.5.5s-.4-.2-.4-.5.2-.5.5-.5c.3.1.4.3.4.5zm-.8 5.2v-4h.7v4h-.7zM578 49.6v-1.1h.7v.7c.2-.4.7-.8 1.3-.8.6 0 1.4.3 1.4 1.7v2.4h-.7v-2.3c0-.7-.2-1.2-.9-1.2-.5 0-.9.3-1 .8V52.5h-.8v-2.9z"/></g></g></svg>