<svg version="1.1" xmlns="http://www.w3.org/2000/svg" x="0" y="0" width="411.023" height="423.391" viewBox="-42.517 37.21 411.023 423.391" xml:space="preserve"><path fill="#BCBEC0" stroke="#000" stroke-width=".5" stroke-miterlimit="10" d="M-29.853 397.163c-.31-2.322 1.856-5.651 4.181-5.651s4.646 3.482 3.949 5.651c-.775 2.399-.156 4.413-.388 5.807-.233 1.78-2.942 2.632-4.803 2.711-1.471.076-3.405-1.008-3.095-2.401.464-1.936.464-4.258.156-6.117zM-26.757 405.835c-1.549 0-3.096 1.702-3.25 3.251-.31 3.021.154 6.273-.155 9.372-.155 1.78.772 4.645 2.555 4.723 2.165 0 4.568-2.401 4.568-4.569 0-3.018-.62-6.505.155-9.525.386-1.626-2.169-3.252-3.873-3.252zM-14.29 405.215c-1.549 0-3.87-.93-3.714-2.398.077-2.403 1.161-5.188.927-7.434-.155-1.549 2.403-2.633 3.871-2.477 1.626.232 3.33 1.781 3.56 3.406.311 2.167-.152 4.646-.927 6.659-.621 1.314-2.324 2.244-3.717 2.244z"/><path fill="#BCBEC0" stroke="#000" stroke-width=".5" stroke-miterlimit="10" d="M-16.925 421.242c-.387-4.413-.62-9.136-.774-13.628-.077-1.471 1.938-2.864 3.407-2.708 1.471.076 2.942 1.702 3.175 3.25.544 3.561.929 7.433.854 11.149-.078 1.627-1.319 3.561-2.942 4.027-1.318.389-3.565-.694-3.72-2.09zM22.797 406.146c1.394 0 2.4-1.936 2.478-3.329.077-2.092.311-4.338 0-6.35-.311-1.549-2.169-3.329-3.717-3.02-1.704.233-3.252 2.476-3.098 4.182.235 2.398.465 4.413.62 5.341.309 1.627 2.092 3.253 3.717 3.176z"/><path fill="#BCBEC0" stroke="#000" stroke-width=".5" stroke-miterlimit="10" d="M22.797 405.835c-1.47 0-3.253 2.092-2.864 3.561.929 3.795.077 7.589-1.319 10.995-.62 1.473 1.858 3.018 3.407 3.406 1.162.232 2.788-.774 3.097-1.937 1.083-3.947 1.392-8.207.772-12.312-.228-1.545-1.466-3.635-3.093-3.713zM36.27 405.682c-1.858.387-4.955-1.317-4.724-3.252.234-1.782.465-3.95 0-5.421-.465-1.856 1.858-4.182 3.716-4.258 1.858 0 2.94 2.401 3.714 4.026.62 1.239.078 3.717-.311 5.034-.537 1.855-.537 3.481-2.395 3.871z"/><path fill="#BCBEC0" stroke="#000" stroke-width=".5" stroke-miterlimit="10" d="M36.115 405.525c-2.555.31-4.258 3.407-5.033 5.809-.852 2.94-.387 6.194.465 9.059.544 1.704 1.628 3.95 3.407 4.028 1.626.155 3.56-1.937 3.405-3.563-.311-3.329-2.709-6.891-.852-10.298.93-1.627.387-5.19-1.392-5.035zM168.672 407.152c-1.161.464-2.32-1.163-2.94-2.246-1.009-1.937-1.704-4.104-1.78-6.35 0-1.316.232-3.174 1.471-3.716 1.162-.465 3.175.543 3.405 1.78.311 2.17 1.239 4.338 2.093 6.04.771 1.472-.702 3.796-2.249 4.492z"/><path fill="#BCBEC0" stroke="#000" stroke-width=".5" stroke-miterlimit="10" d="M168.981 407.152c-1.547-.232-2.4 2.322-2.4 3.871-.076 3.948-1.239 7.434-1.935 10.684-.39 1.473.465 3.639 1.935 4.184 1.394.542 3.563-.545 4.184-1.938 1.625-3.716 2.476-7.896 2.089-11.924-.234-2.091-1.86-4.568-3.873-4.877zM179.666 406.688c-1.315 0-2.864-1.319-2.942-2.633-.076-1.627 1.783-2.864 2.558-4.339 1.236-2.243 2.71-3.56 4.413-2.555 1.006.544.928 2.322.772 3.562-.155 1.161-.852 2.243-1.626 3.174-.852 1.085-1.781 2.712-3.175 2.791z"/><path fill="#BCBEC0" stroke="#000" stroke-width=".5" stroke-miterlimit="10" d="M179.125 406.531c-1.549-.232-3.328 1.472-3.562 3.021-.542 4.413 0 9.06 1.316 13.239.544 1.704 2.169 3.795 3.871 3.563 1.549-.156 2.015-2.633 2.09-4.184.235-3.948-.231-7.975-1.084-11.769-.386-1.547-1.083-3.713-2.631-3.87zM98.135 410.869c-1.316 0-2.555-1.474-2.942-2.711-.542-2.167-.311-4.568.311-6.658.544-1.549 1.472-3.717 3.097-3.873 1.395-.153 2.71 1.78 2.785 3.252.078 2.401.465 5.034.465 7.045 0 1.628-2.168 2.945-3.716 2.945zM97.438 411.025c-1.546.078-3.484 1.546-3.329 3.096.078 1.471.156 2.863 0 3.559-.464 1.781 1.549 4.027 3.329 4.337 1.549.233 2.557-1.935 3.097-3.405.541-1.473.62-3.254 0-4.646-.541-1.318-1.626-2.941-3.097-2.941zM107.968 411.025c-1.704.078-3.02-2.324-3.25-4.026-.234-2.633.618-5.421 2.167-7.589 1.008-1.549 3.252-3.406 4.958-2.633 1.546.774 1.007 3.717 0 5.034-1.238 1.702-1.549 3.405-1.084 5.032.383 1.625-1.087 4.182-2.791 4.182zM107.658 411.179c-1.316-.078-2.939 1.239-2.939 2.633 0 1.937.387 4.257 0 6.271-.234 1.239 1.78 2.479 3.095 2.402 1.393 0 2.864-1.24 3.407-2.557.697-1.78.697-4.026 0-5.807-.621-1.473-2.015-2.864-3.563-2.942zM336.614 315.864c-1.007.388-1.936-.93-2.633-1.625-.696-.545-.929-1.472-1.471-2.169-.774-.929-1.317-1.782.852-3.639a2.802 2.802 0 0 1 3.252-.233c.93.466 1.24 1.625 1.549 2.556.773 2.477.309 4.414-1.549 5.11zM349.93 316.018c-1.16.078-3.019-.774-2.786-1.858.154-1.549.077-3.173.077-4.722 0-1.162 1.549-2.556 2.788-2.401 1.47.155 2.939 1.703 3.019 3.097.155 1.239-.774 2.787-.465 3.95.311 1.162-1.392 1.858-2.633 1.934z"/><path fill="#BCBEC0" stroke="#000" stroke-width=".5" stroke-miterlimit="10" d="M336.614 315.786c-1.549 0-1.936 2.556-1.858 4.026.233 5.884 0 11.537-.387 17.266-.078 1.549.076 3.871 1.548 4.26 1.627.387 3.794-1.163 4.103-2.786 1.239-6.04 1.239-12.777.465-18.814-.232-1.863-2.091-4.029-3.871-3.952zM350.163 315.942c-1.549-.621-3.097 2.168-3.175 3.87-.465 7.434-.077 15.02 1.703 22.221.311 1.316 2.787 1.704 3.949.93 1.083-.697.774-2.556.465-3.794-1.16-5.497-1.702-11.228-1.006-17.267.232-2.089 0-5.187-1.936-5.96zM266.851 399.254c-.542 1.627-1.781 3.253-1.626 4.957 1.161 8.595.077 16.337-1.935 24.623-.699 2.864-1.938 7.433.696 8.828 2.246 1.237 4.414-3.176 5.343-5.652 3.175-8.907 4.025-18.508 1.936-27.101-.621-2.325-2.944-3.798-4.414-5.655zM340.02 399.718c-1.084 0-2.786-.387-2.865-1.392-.077-.389 0-1.318 0-1.938 0-1.471 2.015-2.555 3.407-2.632 1.239-.076 2.865 1.009 2.865 2.246 0 .618.155 1.782 0 2.323-.386 1.238-2.245 1.393-3.407 1.393z"/><path fill="#BCBEC0" stroke="#000" stroke-width=".5" stroke-miterlimit="10" d="M340.253 399.795c-1.239-.232-2.865 1.317-2.865 2.633 0 3.795-.154 7.742 0 11.381.077 1.318 1.937 2.322 3.329 2.246 1.316-.153 2.864-1.394 3.02-2.786.387-2.94 0-6.116 0-9.602.078-1.702-1.78-3.483-3.484-3.872zM197.087 316.791c1.395-.31 2.788-2.632 2.014-3.871-2.324-3.716-5.963-6.658-9.912-9.988-1.471-1.237-4.567-1.549-5.65 0-1.083 1.473.387 4.027 1.781 5.19 2.245 1.934 5.032 4.025 7.508 6.269 1.24 1.087 2.634 2.789 4.259 2.4z"/><path fill="#BCBEC0" stroke="#000" stroke-width=".5" stroke-miterlimit="10" d="M197.32 316.481c-1.626 0-2.864 2.092-3.02 3.641-.619 4.956-3.483 9.216-5.577 13.706-.771 1.625-.154 4.646 1.549 5.188 1.858.618 4.027-1.473 4.879-3.176 2.4-4.955 3.871-10.376 4.492-15.795.156-1.393-.929-3.638-2.323-3.564zM207.542 316.481c-1.628-.617-2.402-3.094-1.474-4.567 2.322-3.87 5.73-6.813 9.681-9.136 1.547-.931 4.49-2.014 5.42-.465 1.083 1.858-.155 5.031-2.014 6.04-3.098 1.702-5.962 3.329-7.356 5.884-.774 1.472-2.788 2.866-4.257 2.244z"/><path fill="#BCBEC0" stroke="#000" stroke-width=".5" stroke-miterlimit="10" d="M206.844 316.174c-1.625 1.238-1.625 4.182-.929 6.114 1.938 5.19 4.803 10.144 8.441 14.324 1.315 1.473 4.025 2.478 5.729 1.473 1.395-.931 1.007-3.716 0-5.034-3.949-4.723-7.743-9.214-9.91-14.245-.543-1.317-2.248-3.56-3.331-2.632zM276.374 315.321c1.395-.153 2.942-2.012 2.633-3.405-.696-3.02-2.787-5.652-4.335-7.976-.774-1.162-2.712-2.558-3.794-1.705-1.239 1.008-.93 3.485 0 4.803 1.547 2.012 2.091 3.87 2.94 5.65.467 1.083 1.319 2.867 2.556 2.633zM290.002 315.246c-1.164-.156-2.247-1.628-2.014-2.789.62-2.864 2.323-5.497 4.259-7.664 1.006-1.162 2.788-2.478 4.181-1.858 1.083.389.619 2.477 0 3.561-1.392 2.323-2.477 4.646-3.33 6.658-.464 1.161-1.859 2.245-3.096 2.092z"/><path fill="#BCBEC0" stroke="#000" stroke-width=".5" stroke-miterlimit="10" d="M276.374 314.78c-.465 1.237-.465 2.785 0 4.567 1.783 7.356 1.084 13.705-2.709 20.906-.774 1.549-.311 4.569 1.318 4.878 1.936.466 3.794-1.627 4.49-3.561 2.864-7.664 3.562-16.34 1.162-23.771-.467-1.625-3.719-4.647-4.261-3.019zM290.002 314.935c-1.549-.619-4.258 1.703-3.793 3.329 2.476 8.441 3.25 15.794 3.019 23.304-.077 1.629 1.55 3.795 3.096 3.563 1.704-.156 2.712-2.479 2.864-4.182.699-6.737-.617-13.549-2.785-20.288-.62-1.932-.466-4.952-2.401-5.726zM267.006 399.254c-1.703.309-2.788-2.633-3.02-4.413a78.513 78.513 0 0 1-.466-19.978c.155-2.014 1.007-5.034 3.021-5.189 1.858-.153 3.253 2.787 3.097 4.648-.62 6.889-.929 13.547 0 19.589.31 1.936-.621 4.956-2.632 5.343zM-28.46 308.354c-1.392 0-4.105.312-4.105-1.702v-1.937c.62-.619 2.093-.774 3.174-.774h2.633c.544 0 1.626 1.471 1.626 1.936 0 2.323-1.006 2.477-3.328 2.477z"/><path fill="#BCBEC0" stroke="#000" stroke-width=".5" stroke-miterlimit="10" d="M-28.151 308.044c-2.63.774-3.949 4.182-4.026 6.581-.774 20.132-.699 31.202.929 33.913.851 1.319 2.866 2.402 4.336 1.858 1.395-.542 2.555-2.787 1.858-4.183-1.704-3.483-2.246-12.774-.929-33.063.156-1.854-.386-5.649-2.168-5.106zM-15.065 308.044c-1.24 0-3.175-.543-3.175-1.78.078-1.239.156-2.942 0-4.183-.077-1.55 1.858-3.253 3.407-3.177 1.316.077 1.856 1.472 1.625 2.711-.465 2.789 1.161 3.95.465 4.723-.62.778-1.393 1.706-2.322 1.706z"/><path fill="#BCBEC0" stroke="#000" stroke-width=".5" stroke-miterlimit="10" d="M-14.987 307.813c-2.323.153-3.949 3.25-4.258 5.575-1.549 11.458.156 23.304 2.63 34.302.39 1.702 2.943 3.327 4.494 2.63 1.78-.851 2.4-3.714 1.858-5.652-2.712-10.373-4.724-20.673-3.098-31.668.231-1.78.154-5.266-1.626-5.187zM19.544 308.43c-1.315.466-3.405-1.161-3.019-2.478.464-1.856-1.085-2.246-2.324-3.483-.851-.854-.155-2.941.929-3.407 1.319-.618 3.562-.155 4.183 1.084.621 1.24 1.78 2.786 2.09 4.104.389 1.47-.386 3.716-1.859 4.18z"/><path fill="#BCBEC0" stroke="#000" stroke-width=".5" stroke-miterlimit="10" d="M19.623 308.122c-1.319.076-2.4 1.857-2.478 3.174-1.316 12.93-1.316 25.629 0 37.784.078 1.009 1.704 2.015 2.709 1.627 1.474-.465 3.253-2.092 3.02-3.639-1.237-9.601-1.237-23.071-1.006-35.849 0-1.317-1.006-3.097-2.245-3.097zM33.173 308.43c-1.319.235-3.484-1.627-2.867-2.787.62-1.081 1.395-2.939 1.783-4.49.542-1.782 3.87-2.168 5.344-1.161 1.546.927 1.546 3.56 0 4.488-2.248 1.395-2.634 3.72-4.26 3.95z"/><path fill="#BCBEC0" stroke="#000" stroke-width=".5" stroke-miterlimit="10" d="M32.94 307.966c-1.549-1.163-3.329 2.479-3.714 4.416-2.558 11.998-.62 23.458 3.405 32.75 1.008 2.401 3.252 5.5 5.808 5.188 1.935-.232 1.083-4.025.387-5.885-3.25-8.36-6.039-16.338-4.104-28.184.463-2.789.54-6.66-1.782-8.285zM69.563 308.665c-1.161.307-3.484-.699-3.019-1.783.696-1.704.154-3.561-1.316-5.343-.929-1.159-.156-3.87 1.316-4.258 1.625-.465 3.094 1.472 4.258 2.711 1.085 1.162 1.858 3.251 1.238 5.419-.308 1.318-1.16 2.943-2.477 3.254z"/><path fill="#BCBEC0" stroke="#000" stroke-width=".5" stroke-miterlimit="10" d="M70.105 308.43c-1.701.154-2.555 2.786-2.321 4.413 1.781 11.924 0 22.843-1.394 33.992-.234 2.013 1.394 4.725 3.405 4.49 1.784-.153 2.169-3.251 2.478-5.031 1.858-11.228 2.633-22.687.854-33.837-.234-1.627-1.395-4.103-3.022-4.027zM83.811 308.354c-1.24-.231-1.704-2.09-1.782-3.329-.234-2.711-.155-5.575.851-8.132.544-1.238 2.014-2.478 3.33-2.478 1.319.078 3.097 1.549 2.712 2.711-1.084 3.02-1.319 6.271-1.319 8.981-.075 1.474-2.399 2.558-3.792 2.247z"/><path fill="#BCBEC0" stroke="#000" stroke-width=".5" stroke-miterlimit="10" d="M83.888 308.044c-1.319-.928-2.633 1.937-3.407 3.329-3.949 7.046-2.788 21.447 2.555 37.94.465 1.394 2.943 2.478 4.183 1.627 1.704-1.164 2.246-3.871 1.935-5.887-2.246-12.312-5.033-23.228-4.49-30.892.154-2.091.926-5.033-.776-6.117zM-28.616 223.337c-1.316.853-2.321-2.322-2.63-3.871-1.704-9.215.93-19.978-1.239-25.165-.544-1.16 1.006-2.786 2.94-3.87 1.549-.929 3.252 2.633 3.097 4.413-.464 7.277-.077 14.015.62 21.292.233 2.555-.62 5.885-2.788 7.201z"/><path fill="#BCBEC0" stroke="#000" stroke-width=".5" stroke-miterlimit="10" d="M-30.086 226.51c-.154-1.548.078-4.104 1.626-4.413 1.163-.309 3.562 1.705 3.871 3.485 3.33 16.413.387 32.905-.929 46.766-.156 1.78-3.098 3.716-4.569 2.708-1.704-1.083-.697-4.026-.387-6.037 1.936-14.248 1.781-28.26.388-42.509zM-10.497 222.409l1.085-5.499c1.006-4.878 7.742-11.535 9.059-16.104.544-1.627 3.02-3.639 4.259-2.633 1.704 1.317 1.549 4.569.39 6.35-3.562 5.342-8.362 16.105-10.917 16.803l-3.876 1.083zM-10.109 223.337c-2.403-.156-5.267 2.091-5.732 4.491-3.249 16.569 4.183 26.79 14.944 31.745 1.625.698 5.575 1.549 5.42-.234-.387-3.018-3.639-5.11-6.115-6.813-7.281-4.877-11.615-10.452-10.375-19.203.696-1.78 1.704-3.251 2.013-5.187.308-1.547 1.392-4.644-.155-4.799zM25.198 222.64c-1.549.234-2.788-2.32-2.788-3.869.155-6.35 1.319-12.621.62-19.28-.232-1.936 1.628-2.941 3.098-3.176 2.864-.387 5.11 3.098 4.104 7.434-1.239 5.344-.851 9.911-1.47 14.093-.312 1.934-1.551 4.489-3.564 4.798z"/><path fill="#BCBEC0" stroke="#000" stroke-width=".5" stroke-miterlimit="10" d="M25.43 222.409c-1.704-.233-2.478 2.786-2.402 4.489 0 11.847-.542 22.763-1.856 33.76-.311 2.09-1.008 5.885 1.081 6.116 2.403.233 4.648-2.942 4.958-5.344 1.704-11.072 2.4-22.609 1.161-33.834-.232-1.936-1.007-4.878-2.942-5.187zM39.057 222.409c-2.246-.313-4.104-3.485-3.639-5.731 1.006-4.8 1.625-9.833 1.083-16.104-.235-2.168 1.547-4.723 3.714-4.413 2.244.31 2.633 3.097 2.942 5.341.775 5.343.31 10.841-1.083 16.106-.539 1.858-1.081 5.11-3.017 4.801z"/><path fill="#BCBEC0" stroke="#000" stroke-width=".5" stroke-miterlimit="10" d="M39.677 221.711c-2.246-.154-4.648 2.633-4.494 4.802 1.008 9.91 1.319 19.433 0 29.346-.387 3.329 0 9.06 3.33 9.6 3.022.465 2.248-5.652 2.633-8.672 1.161-9.757 1.549-19.666.696-29.888-.153-1.857-.307-5.11-2.165-5.188zM77.926 222.64c-1.316.311-2.633-1.935-2.555-3.329.156-4.8-1.704-9.446-4.104-14.633-.62-1.317 1.162-3.484 2.63-3.484 1.628-.077 2.943 1.857 3.639 3.329 2.248 4.182 3.793 8.828 3.562 13.318-.152 1.857-1.313 4.335-3.172 4.799zM78.158 222.64c-.077 1.937-.387 3.949-.233 5.885 1.162 12.775-1.238 23.304-6.813 32.674-.854 1.396-.774 4.26.697 4.802 1.704.698 4.027-.929 4.878-2.556 8.132-16.026 9.833-29.268 6.039-37.475-.775-1.781-3.019-2.244-4.568-3.33zM93.643 221.865c-1.626-.155-2.941-2.709-2.4-4.258 1.783-4.491 2.245-8.904 1.704-13.317-.232-1.704.542-4.879 2.246-4.646 2.013.31 2.864 3.33 3.097 5.421.542 4.336.465 8.904-.699 13.085-.54 1.781-2.166 3.871-3.948 3.715z"/><path fill="#BCBEC0" stroke="#000" stroke-width=".5" stroke-miterlimit="10" d="M93.643 221.865c1.704-.232 1.938 3.097 1.858 4.801-.311 9.292-.62 18.506 1.704 27.487 1.007 4.104 2.709 8.052 1.625 11.847-.309 1.393-1.006 3.715-2.4 3.56-1.781-.233-3.251-2.477-3.33-4.258-.231-4.8-.929-9.29-2.167-14.092-2.091-7.742-3.175-15.951-.774-23.77.62-2.09 1.318-5.264 3.484-5.575zM145.676 222.409c-1.935.153-3.793-1.937-3.716-3.873.078-3.096-.231-6.581-.155-9.601 0-1.936 2.324-3.948 4.258-3.87 1.704 0 3.562 2.323 3.33 4.026-.542 3.252-.155 6.349-.231 9.06-.002 1.856-1.628 4.18-3.486 4.258z"/><path fill="#BCBEC0" stroke="#000" stroke-width=".5" stroke-miterlimit="10" d="M145.676 222.409c-2.168.696-3.639 2.323-3.871 5.962-.465 6.503-.387 13.008.929 19.51.929 5.034.156 9.988-.232 15.176-.078 1.704.62 4.26 2.245 4.647 2.788.697 4.335-3.095 4.645-7.199.465-7.898-.386-15.021-2.245-21.449-.774-2.555-1.316-5.497 0-8.439 2.554-5.885 2.477-8.441-1.471-8.208zM160.464 223.027c-1.546.156-3.639-2.092-3.175-3.562 1.24-3.639.235-7.201 0-9.988-.154-2.168-.077-6.117 2.094-6.117 2.555 0 4.49 3.561 4.568 6.117.076 3.406-.31 6.116-.62 9.29-.079 1.706-1.164 4.028-2.867 4.26z"/><path fill="#BCBEC0" stroke="#000" stroke-width=".5" stroke-miterlimit="10" d="M161.006 222.409c-.929-.931-3.407.386-3.717 1.702-3.87 16.571-2.555 29.5 3.177 37.861 1.236 1.858 4.026 3.715 6.039 2.788 1.703-.774 1.238-4.259 0-5.575-6.582-7.124-7.897-17.5-4.724-30.661.465-2.014.696-4.644-.775-6.115zM208.857 223.337c-1.55 0-2.169-2.478-2.169-4.027-.077-4.259.154-8.672 0-13.937-.077-1.472 1.16-3.639 2.709-3.639 1.704 0 3.329 2.014 3.329 3.639.078 4.878-.076 9.678-.31 13.937-.154 1.781-1.778 4.027-3.559 4.027z"/><path fill="#BCBEC0" stroke="#000" stroke-width=".5" stroke-miterlimit="10" d="M209.09 223.027c1.703-.465 3.019 2.477 3.097 4.181 1.395 20.364.387 29.19-.93 37.555-.232 1.471-1.625 3.482-3.098 3.329-1.547-.156-2.555-2.401-2.4-3.95.774-11.382 2.479-23.152 1.084-35.617-.231-1.936.31-5.033 2.247-5.498zM222.408 223.569c-1.549-.154-2.71-2.4-2.402-3.871.854-4.413.618-8.826.544-13.163-.078-1.78 1.238-4.259 2.942-4.104 1.701.154 2.4 2.787 2.555 4.492a41.209 41.209 0 0 1-.699 13.086c-.308 1.548-1.47 3.637-2.94 3.56z"/><path fill="#BCBEC0" stroke="#000" stroke-width=".5" stroke-miterlimit="10" d="M222.949 223.027c-1.78 0-3.33 2.245-3.33 4.026-.154 12.854-.619 25.241-.387 37.09 0 1.856 1.701 4.182 3.483 4.104 1.781-.078 3.251-2.479 3.175-4.26-.465-12.39-.774-24.546-.39-36.934.082-1.625-.926-4.026-2.551-4.026zM274.903 223.569c-1.393-.465-2.013-2.323-2.555-3.716-1.78-4.491-4.027-8.826-5.962-13.164-.774-1.857-1.858-5.42 0-6.115 2.478-.774 5.729 1.548 6.658 3.948 1.549 3.717 5.033 7.977 5.962 12.698.621 3.408-1.78 7.047-4.103 6.349z"/><path fill="#BCBEC0" stroke="#000" stroke-width=".5" stroke-miterlimit="10" d="M274.129 223.337c-.774-.619-2.633.93-2.71 2.322-.696 10.685-3.329 20.829-6.658 31.049-.619 1.858.156 5.266 2.091 5.497 2.244.31 4.104-2.555 4.724-4.646 2.787-9.679 5.497-20.134 6.581-30.972.23-1.701-2.634-2.166-4.028-3.25zM288.066 223.726c1.472.774 3.328-1.626 3.871-3.253 1.626-5.497 2.942-10.994 4.49-16.956.39-1.395-.542-3.795-1.936-3.717-1.781 0-3.098 2.169-3.714 3.871-1.784 4.955-3.643 9.911-5.189 15.95-.386 1.78.775 3.174 2.478 4.105z"/><path fill="#BCBEC0" stroke="#000" stroke-width=".5" stroke-miterlimit="10" d="M287.91 223.569c-1.855-.154-3.094 2.787-3.094 4.646-.235 13.241 5.188 23.074 10.527 31.9.698 1.238 3.177 1.857 4.183.853 1.24-1.317 1.316-3.872.311-5.341-5.652-8.751-10.221-16.727-9.679-27.101.075-1.782-.465-4.88-2.248-4.957zM340.719 224.498c-1.549.388-3.407-.696-3.563-2.245-.311-2.787-1.316-6.117-2.091-9.214-.464-1.858 1.007-4.802 2.864-5.034 2.092-.231 3.484 2.09 4.105 4.027.774 2.71 1.471 5.961 1.549 8.44.154 1.625-1.24 3.639-2.864 4.026z"/><path fill="#BCBEC0" stroke="#000" stroke-width=".5" stroke-miterlimit="10" d="M341.027 224.034c-1.857.31-2.556 3.328-2.246 5.188 1.781 10.84.311 21.14-2.246 32.211-.464 1.858.62 4.879 2.557 5.188 1.938.233 3.794-2.246 4.182-4.26 2.245-11.147 2.09-22.995 1.626-34.3-.079-1.86-2.015-4.415-3.873-4.027zM355.12 224.034c-1.782.31-4.183-1.625-4.105-3.406.311-3.716 1.626-7.742 2.169-11.614.232-1.704 2.322-3.639 4.025-3.253 1.627.311 2.169 2.865 2.091 4.492-.077 3.175-1.162 6.271-1.781 9.214-.386 1.702-.774 4.259-2.399 4.567z"/><path fill="#BCBEC0" stroke="#000" stroke-width=".5" stroke-miterlimit="10" d="M354.578 223.726c-2.012-.077-3.252 3.097-3.33 5.11-.543 11.769 0 23.537 1.548 35.15.235 1.393 2.324 2.864 3.563 2.246 1.702-.774 2.477-3.176 2.322-4.958-1.394-10.606-1.782-21.292-1.473-32.287.001-1.933-.618-5.261-2.63-5.261zM333.362 84.74c2.246-.852 1.161-2.864-1.394-4.801-4.57-3.407-8.674-5.651-13.008-4.956-1.316.232-3.407 1.395-3.099 2.788.545 1.703 2.943 2.323 4.648 2.864 2.631.774 5.188 1.006 8.054 3.407 1.392 1.24 3.327 1.319 4.799.698zM351.557 84.276c1.316.542 3.329-.697 3.716-2.09 1.394-4.724 3.483-9.601 5.188-14.402.465-1.394-.39-3.871-1.937-4.104-1.781-.233-3.949 1.472-4.411 3.251-1.165 4.569-2.867 8.904-4.339 13.008-.462 1.473.313 3.717 1.783 4.337z"/><path fill="#BCBEC0" stroke="#000" stroke-width=".5" stroke-miterlimit="10" d="M332.665 84.431c1.006-1.549 4.026-.078 5.344 1.161 5.187 4.878 5.496 11.381 5.265 17.808-.155 6.273-2.013 9.214-4.104 12.543-4.259 6.968-4.957 14.633-6.969 21.758-.465 1.548-1.318 4.183-2.943 3.949-1.858-.309-2.785-2.942-2.709-4.8 0-5.885 3.175-12.157 7.122-19.899 2.479-4.569 3.717-9.06 4.184-12.853-.235-5.575-1.783-9.679-3.484-13.163-.932-2.013-2.945-4.645-1.706-6.504zM351.325 84.276c-.774 1.317-2.322 2.401-2.4 3.949-.699 20.44-.39 35.384 2.632 50.483.308 1.858 3.251 3.87 4.802 2.787 1.703-1.315.696-4.413.311-6.503-1.085-5.961-3.253-11.614-2.4-17.885 1.237-9.369 2.4-18.815.852-28.03-.313-2.013-2.481-3.252-3.797-4.801zM261.043 79.475c.078 2.014.929 5.189 2.942 5.265 2.014.156 3.483-2.941 3.404-4.956-.155-5.42.389-11.072.854-16.647.156-1.703-1.393-4.258-3.097-4.104-1.936.234-3.329 2.865-3.56 4.801-.62 5.343-.62 10.687-.543 15.641zM279.782 79.94c-.698 1.549.387 4.336 2.013 4.646 1.855.388 3.793-1.549 4.646-3.252 2.245-4.413 3.097-10.375 2.71-16.416-.077-1.626-1.316-4.104-2.864-3.793-2.091.388-4.104 2.864-3.949 4.956.307 5.497-.931 9.91-2.556 13.859z"/><path fill="#BCBEC0" stroke="#000" stroke-width=".5" stroke-miterlimit="10" d="M261.742 88.689c0-1.549.386-4.104 1.935-4.258 1.781-.233 4.104 1.704 4.259 3.561.542 7.897 0 15.718 2.014 23.693 3.175 12.08 3.175 24.39-1.858 35.075-.851 1.858-4.337 3.098-5.807 1.704-1.55-1.472.388-4.26 1.008-6.35 2.011-6.891 3.714-13.705 2.4-21.06-1.939-10.606-4.03-21.292-3.951-32.365zM281.95 84.585c-1.703-.077-2.248 2.787-2.557 4.492-.927 4.724-1.161 9.601-2.246 14.556-5.729 26.559.39 34.998 7.202 42.974.929 1.006 3.174 2.089 3.793.851 1.006-1.936.231-4.569-.854-6.504-4.721-8.285-10.143-15.873-6.193-32.521 1.474-5.961 2.245-9.292 3.639-17.654.312-1.857-.927-6.039-2.784-6.194zM160.232 55.319c-2.245.465-2.709 5.264-1.006 6.813 4.415 4.183 7.433 14.401 7.587 31.901.077 2.013 1.47 5.265 3.484 4.955 2.321-.311 3.249-3.639 3.249-6.039 0-13.783-2.864-25.242-7.742-32.366-1.468-2.09-3.016-5.884-5.572-5.264z"/><path fill="#BCBEC0" stroke="#000" stroke-width=".5" stroke-miterlimit="10" d="M166.659 103.633c.231-2.013 1.315-5.033 3.25-5.033 2.169.077 3.794 3.02 3.794 5.188 0 9.137-3.715 17.111-6.349 24.468-1.703 4.801-1.085 9.911-1.703 14.788-.233 1.395-1.316 3.408-2.631 3.408-1.858 0-3.871-1.704-4.338-3.408-1.16-4.8 1.628-9.677 3.408-14.788 2.788-7.899 3.562-16.184 4.569-24.623zM189.654 57.719c-2.321-.697-3.639 3.407-4.104 5.808-2.166 10.453-3.019 21.06-3.094 31.203 0 1.548 1.16 3.793 2.709 3.871 1.858.156 4.259-1.549 4.259-3.407.077-9.833.31-19.666 2.631-29.81.542-2.632.233-6.891-2.401-7.665zM185.319 98.988c-2.4-.311-3.484 3.716-3.949 6.195-2.168 13.704-.854 28.26 3.949 41.578.619 1.704 3.949 2.479 5.188 1.24 1.625-1.703 1.391-4.801.696-7.046-3.949-11.847-5.497-22.996-3.639-35.152.388-2.325.155-6.583-2.245-6.815zM79.629 97.981c-1.238-.077-1.938-2.091-1.783-3.329 1.395-12.157.544-23.152-1.856-33.759-.39-1.78.929-5.42 2.709-4.878 2.63.697 4.026 4.183 4.335 6.814 1.085 10.529 1.393 21.525.078 32.055-.153 1.548-1.934 3.175-3.483 3.097z"/><path fill="#BCBEC0" stroke="#000" stroke-width=".5" stroke-miterlimit="10" d="M79.629 97.362c-1.393-1.084-3.019 2.246-3.482 4.026-2.634 10.297-1.085 20.829 1.315 31.513 1.704 7.82.232 15.485-.309 22.841-.156 2.167-.077 5.576 1.935 6.271 3.019.929 4.027-3.407 4.337-7.432.465-8.284.387-16.956-1.472-25.938-1.547-7.82-1.392-15.64-.928-23.538.23-2.633.695-6.194-1.396-7.743zM92.405 97.904c-1.858-.542-2.247 3.407-2.322 5.421-.544 14.324 3.098 28.028 7.663 41.346 1.858 5.575 1.395 9.214-1.471 12.234-1.162 1.317-3.949 4.181-2.4 5.11 2.169 1.239 5.962-1.006 7.588-2.865 3.639-4.258 3.098-10.375.311-19.047-3.793-11.536-6.271-23.073-7.046-35.539-.078-2.324-.001-6.041-2.323-6.66z"/><path fill="#BCBEC0" stroke="#000" stroke-width=".5" stroke-miterlimit="10" d="M92.716 98.136c1.936-.155 3.174-2.864 3.329-4.801.929-11.304 1.78-23.305 2.09-35.385 0-1.859-1.165-4.646-3.02-4.569-1.938.077-3.251 2.864-3.328 4.801-.465 12.08-1.085 23.77-1.704 35.539-.078 1.704.928 4.493 2.633 4.415z"/><path fill="none" stroke="#000" stroke-width="1" stroke-miterlimit="10" stroke-dasharray="5.0003,3.0002" d="M68.403 97.362l35.926.232"/><path fill="#FFF" stroke="#000" stroke-width=".216" stroke-miterlimit="10" d="M79.94 99.529a1.997 1.997 0 0 0 2.012-2.012c0-1.161-.851-2.013-2.012-2.013a2 2 0 0 0-2.013 2.013c-.001 1.083.928 2.012 2.013 2.012zM92.716 99.762c1.083 0 2.012-.931 2.012-2.014a1.999 1.999 0 0 0-2.012-2.013c-1.163 0-2.013.852-2.013 2.013a1.997 1.997 0 0 0 2.013 2.014z"/><g stroke="#000" stroke-miterlimit="10"><path fill="none" stroke-width="1" stroke-dasharray="5.0003,3.0002" d="M160.387 98.6l35.925.232"/><path fill="#FFF" stroke-width=".216" d="M170.143 100.769a2 2 0 0 0 2.014-2.012 2 2 0 0 0-2.014-2.014c-1.084 0-2.014.929-2.014 2.014.001 1.082.93 2.012 2.014 2.012zM184.931 100.769c1.084 0 2.013-.929 2.013-2.012a1.999 1.999 0 0 0-2.013-2.014c-1.16 0-2.012.852-2.012 2.014a2 2 0 0 0 2.012 2.012z"/></g><g stroke="#000" stroke-miterlimit="10"><path fill="none" stroke-width="1" stroke-dasharray="5.0003,3.0002" d="M254.772 84.198l38.714.233"/><path fill="#FFF" stroke-width=".216" d="M263.908 86.367c1.085 0 2.013-.929 2.013-2.013s-.929-2.014-2.013-2.014c-1.16 0-2.011.93-2.011 2.014a1.997 1.997 0 0 0 2.011 2.013zM282.181 86.213a2.001 2.001 0 0 0 2.014-2.015c0-1.161-.854-2.012-2.014-2.012a1.999 1.999 0 0 0-2.013 2.012c0 1.084.93 2.015 2.013 2.015z"/></g><g stroke="#000" stroke-miterlimit="10"><path fill="none" stroke-width="1" stroke-dasharray="5.0003,3.0002" d="M-37.751 222.253l38.714.232"/><path fill="#FFF" stroke-width=".216" d="M-28.616 224.421c1.083 0 2.014-.929 2.014-2.012 0-1.084-.929-2.015-2.014-2.015a2 2 0 0 0-2.011 2.015 1.997 1.997 0 0 0 2.011 2.012zM-10.343 224.189c1.161 0 2.013-.853 2.013-2.014a2 2 0 0 0-2.013-2.013c-1.083 0-2.014.928-2.014 2.013a2 2 0 0 0 2.014 2.014z"/></g><g stroke="#000" stroke-miterlimit="10"><path fill="none" stroke-width="1" stroke-dasharray="5.0003,3.0002" d="M-39.997 307.813l38.714.231"/><path fill="#FFF" stroke-width=".216" d="M-28.228 309.979c1.084 0 2.013-.931 2.013-2.014a1.999 1.999 0 0 0-2.013-2.014c-1.164 0-2.013.853-2.013 2.014a2 2 0 0 0 2.013 2.014zM-14.91 309.746c1.085 0 2.013-.93 2.013-2.012 0-1.083-.929-2.014-2.013-2.014-1.083 0-2.013.931-2.013 2.014-.002 1.084.928 2.012 2.013 2.012z"/></g><g stroke="#000" stroke-miterlimit="10"><path fill="none" stroke-width="1" stroke-dasharray="5.0003,3.0002" d="M8.396 308.044l38.635.231"/><path fill="#FFF" stroke-width=".216" d="M19.469 310.212c1.16 0 2.013-.854 2.013-2.015a2 2 0 0 0-2.013-2.012c-1.085 0-2.014.928-2.014 2.012a2 2 0 0 0 2.014 2.015zM33.328 310.133c1.081 0 2.01-.852 2.01-2.011 0-1.086-.929-2.015-2.01-2.015a1.998 1.998 0 0 0-2.013 2.015c0 1.159.851 2.011 2.013 2.011z"/></g><g stroke="#000" stroke-miterlimit="10"><path fill="none" stroke-width="1" stroke-dasharray="5.0003,3.0002" d="M58.103 308.275l38.716.234"/><path fill="#FFF" stroke-width=".216" d="M69.795 310.443c1.085 0 2.014-.929 2.014-2.012 0-1.084-.929-2.012-2.014-2.012a1.997 1.997 0 0 0-2.011 2.012c0 1.084.85 2.012 2.011 2.012zM84.044 310.288c1.085 0 2.011-.93 2.011-2.013a1.995 1.995 0 0 0-2.011-2.012c-1.164 0-2.014.853-2.014 2.012a2 2 0 0 0 2.014 2.013z"/></g><g stroke="#000" stroke-miterlimit="10"><path fill="none" stroke-width="1" stroke-dasharray="5.0003,3.0002" d="M181.757 316.33l38.713.232"/><path fill="#FFF" stroke-width=".216" d="M197.242 318.419c1.084 0 2.014-.93 2.014-2.012 0-1.086-.93-2.014-2.014-2.014a1.999 1.999 0 0 0-2.011 2.014 1.997 1.997 0 0 0 2.011 2.012zM207.076 318.34a1.997 1.997 0 0 0 2.012-2.012c0-1.161-.851-2.013-2.012-2.013a2 2 0 0 0-2.013 2.013c0 1.084.93 2.012 2.013 2.012z"/></g><g stroke="#000" stroke-miterlimit="10"><path fill="none" stroke-width="1" stroke-dasharray="5.0003,3.0002" d="M264.76 315.012l38.714.234"/><path fill="#FFF" stroke-width=".216" d="M276.607 317.18c1.085 0 2.013-.928 2.013-2.012s-.93-2.015-2.013-2.015c-1.084 0-2.015.931-2.015 2.015s.931 2.012 2.015 2.012zM290.002 316.947c1.161 0 2.011-.853 2.011-2.013a1.997 1.997 0 0 0-2.011-2.012c-1.083 0-2.014.928-2.014 2.012 0 1.165.931 2.013 2.014 2.013z"/></g><g stroke="#000" stroke-miterlimit="10"><path fill="none" stroke-width="1" stroke-dasharray="5.0003,3.0002" d="M324.458 315.633l38.714.231"/><path fill="#FFF" stroke-width=".216" d="M336.537 317.798c1.083 0 2.013-.928 2.013-2.012 0-1.083-.93-2.014-2.013-2.014s-2.012.931-2.012 2.014c0 1.084.928 2.012 2.012 2.012zM350.163 317.722a2 2 0 0 0 2.012-2.013c0-1.084-.928-2.012-2.012-2.012s-2.013.928-2.013 2.012a2 2 0 0 0 2.013 2.013z"/></g><g stroke="#000" stroke-miterlimit="10"><path fill="none" stroke-width="1" stroke-dasharray="5.0003,3.0002" d="M-39.688 405.292l38.714.233"/><path fill="#FFF" stroke-width=".216" d="M-26.833 407.461c1.161 0 2.01-.853 2.01-2.013a1.998 1.998 0 0 0-2.01-2.013c-1.084 0-2.014.929-2.014 2.013a2 2 0 0 0 2.014 2.013zM-14.136 407.461c1.084 0 2.013-.93 2.013-2.013 0-1.084-.929-2.013-2.013-2.013-1.083 0-2.013.929-2.013 2.013 0 1.083.93 2.013 2.013 2.013z"/></g><g stroke="#000" stroke-miterlimit="10"><path fill="none" stroke-width="1" stroke-dasharray="5.0003,3.0002" d="M10.021 405.37l38.715.234"/><path fill="#FFF" stroke-width=".216" d="M22.719 407.926c1.084 0 2.014-.929 2.014-2.013 0-1.163-.93-2.012-2.014-2.012a2 2 0 0 0-2.011 2.012c-.001 1.084.928 2.013 2.011 2.013zM36.037 407.384c1.085 0 2.012-.928 2.012-2.014 0-1.084-.927-2.012-2.012-2.012-1.084 0-2.013.928-2.013 2.012 0 1.086.929 2.014 2.013 2.014z"/></g><path fill="none" stroke="#000" stroke-width="1" stroke-miterlimit="10" stroke-dasharray="5.0003,3.0002" d="M157.135 406.378l38.56.231"/><g stroke="#000" stroke-miterlimit="10"><path fill="none" stroke-width="1" stroke-dasharray="5.0003,3.0002" d="M257.018 398.867l21.833.234"/><path fill="#FFF" stroke-width=".216" d="M267.315 401.034c1.085 0 2.013-.93 2.013-2.012 0-1.083-.929-2.014-2.013-2.014-1.16 0-2.013.931-2.013 2.014 0 1.084.853 2.012 2.013 2.012z"/></g><g stroke="#000" stroke-miterlimit="10"><path fill="none" stroke-width="1" stroke-dasharray="5.0003,3.0002" d="M329.955 399.642l21.834.23"/><path fill="#FFF" stroke-width=".216" d="M340.253 401.81c1.084 0 2.014-.929 2.014-2.013a2 2 0 0 0-2.014-2.012 2.001 2.001 0 0 0-2.014 2.012c0 1.082.931 2.013 2.014 2.013z"/></g><g stroke="#000" stroke-miterlimit="10"><path fill="none" stroke-width="1" stroke-dasharray="5.0003,3.0002" d="M14.357 222.097l38.716.234"/><path fill="#FFF" stroke-width=".216" d="M25.507 224.267c1.162 0 2.013-.852 2.013-2.014a2 2 0 0 0-2.013-2.013c-1.083 0-2.013.929-2.013 2.013a2 2 0 0 0 2.013 2.014zM39.598 224.111c1.085 0 2.013-.928 2.013-2.012s-.929-2.013-2.013-2.013-2.011.929-2.011 2.013c-.001 1.085.927 2.012 2.011 2.012z"/></g><g stroke="#000" stroke-miterlimit="10"><path fill="none" stroke-width="1" stroke-dasharray="5.0003,3.0002" d="M68.945 222.021l38.713.232"/><path fill="#FFF" stroke-width=".216" d="M78.08 224.189c1.084 0 2.014-.93 2.014-2.014 0-1.085-.93-2.013-2.014-2.013a1.999 1.999 0 0 0-2.013 2.013 2 2 0 0 0 2.013 2.014zM94.186 223.958a2 2 0 0 0 2.013-2.014c0-1.083-.929-2.014-2.013-2.014a2 2 0 0 0-2.014 2.014c0 1.16.853 2.014 2.014 2.014z"/></g><g stroke="#000" stroke-miterlimit="10"><path fill="none" stroke-width="1" stroke-dasharray="5.0003,3.0002" d="M133.441 222.485l38.638.155"/><path fill="#FFF" stroke-width=".216" d="M145.753 224.421c1.083 0 2.013-.929 2.013-2.012 0-1.084-.929-2.015-2.013-2.015-1.085 0-2.012.931-2.012 2.015-.001 1.083.928 2.012 2.012 2.012zM160.928 224.421c1.084 0 2.013-.929 2.013-2.012 0-1.084-.929-2.015-2.013-2.015-1.081 0-2.012.931-2.012 2.015-.001 1.083.929 2.012 2.012 2.012z"/></g><g stroke="#000" stroke-miterlimit="10"><path fill="none" stroke-width="1" stroke-dasharray="5.0003,3.0002" d="M195.695 223.104l38.714.233"/><path fill="#FFF" stroke-width=".216" d="M209.09 225.272c1.084 0 2.013-.929 2.013-2.013a1.999 1.999 0 0 0-2.013-2.014 1.997 1.997 0 0 0-2.012 2.014c-.002 1.085.927 2.013 2.012 2.013zM223.182 225.042c1.081 0 2.011-.931 2.011-2.015s-.93-2.013-2.011-2.013c-1.085 0-2.014.929-2.014 2.013s.929 2.015 2.014 2.015z"/></g><g stroke="#000" stroke-miterlimit="10"><path fill="none" stroke-width="1" stroke-dasharray="5.0003,3.0002" d="M263.212 223.337l38.714.232"/><path fill="#FFF" stroke-width=".216" d="M274.593 225.504c1.085 0 2.015-.928 2.015-2.012 0-1.083-.93-2.014-2.015-2.014-1.16 0-2.013.931-2.013 2.014 0 1.084.853 2.012 2.013 2.012zM288.299 225.66c1.084 0 2.013-.928 2.013-2.015 0-1.083-.929-2.012-2.013-2.012a1.997 1.997 0 0 0-2.013 2.012c0 1.087.849 2.015 2.013 2.015z"/></g><g stroke="#000" stroke-miterlimit="10"><path fill="none" stroke-width="1" stroke-dasharray="5.0003,3.0002" d="M327.787 224.111l38.714.233"/><path fill="#FFF" stroke-width=".216" d="M340.95 226.278a1.998 1.998 0 0 0 2.013-2.012c0-1.083-.93-2.014-2.013-2.014s-2.012.931-2.012 2.014a1.996 1.996 0 0 0 2.012 2.012zM355.196 226.124a2 2 0 0 0 2.013-2.013c0-1.162-.851-2.015-2.013-2.015a2 2 0 0 0-2.012 2.015c-.001 1.084.93 2.013 2.012 2.013z"/></g><g stroke="#000" stroke-miterlimit="10"><path fill="none" stroke-width="1" stroke-dasharray="5.0003,3.0002" d="M324.147 84.664l38.715.232"/><path fill="#FFF" stroke-width=".216" d="M333.285 86.831c1.084 0 2.012-.928 2.012-2.012 0-1.085-.928-2.012-2.012-2.012-1.164 0-2.014.928-2.014 2.012s.852 2.012 2.014 2.012zM351.557 86.599c1.162 0 2.012-.852 2.012-2.013a1.998 1.998 0 0 0-2.012-2.012c-1.085 0-2.012.928-2.012 2.012 0 1.162.928 2.013 2.012 2.013z"/></g><path fill="#BCBEC0" stroke="#000" stroke-width=".5" stroke-miterlimit="10" d="M-12.588 98.214c-.699 1.16-3.097-.775-3.562-2.014-5.65-13.472-6.114-26.713-3.174-38.637 1.083-4.181.774-8.596 1.549-13.859.309-1.549 2.709-2.323 4.258-2.014 1.549.311 2.555 1.626 2.71 3.098.39 4.413-2.013 8.439-2.941 12.543-2.247 10.531-.464 21.138 1.627 31.978.54 2.941 1.006 6.348-.467 8.905zM.576 44.167c.619-1.625 2.942-3.561 4.492-2.709 1.856 1.085 2.011 4.104 1.781 6.271-.775 7.356-2.555 14.48-2.943 21.68l.464 24.778c.078 1.548-1.471 4.181-2.864 3.562-2.09-.852-2.941-3.716-3.175-6.04-1.239-12.234-1.084-24.699.93-37.087.694-3.484.074-7.201 1.315-10.455z"/><path fill="#BCBEC0" stroke="#000" stroke-width=".5" stroke-miterlimit="10" d="M-13.052 98.214c-2.013.077-1.315 4.026-.851 6.039 3.329 16.105 1.78 29.888-5.887 42.431-.851 1.549-3.096 3.871-1.78 4.956 1.704 1.317 4.955.311 6.271-1.317 9.679-12.233 11.846-28.803 7.354-46.302-.617-2.478-2.552-5.885-5.107-5.807zM-2.289 101.388c0-2.09 2.633-5.265 4.414-4.258 2.322 1.317 1.781 5.11 1.781 7.82.156 15.873.465 31.359 1.394 46.689.078 1.549.311 3.949-1.16 4.492-1.628.542-4.494-.697-4.648-2.478-1.394-17.191-1.858-34.999-1.781-52.265z"/><g stroke="#000" stroke-miterlimit="10"><path fill="none" stroke-width="1" stroke-dasharray="5.0003,3.0002" d="M-24.667 97.749l36.004.232"/><path fill="#FFF" stroke-width=".216" d="M-13.052 99.917a1.998 1.998 0 0 0 2.013-2.012c0-1.085-.929-2.014-2.013-2.014a1.999 1.999 0 0 0-2.013 2.014c0 1.16.851 2.012 2.013 2.012zM1.66 99.684c1.083 0 2.013-.852 2.013-1.935a2 2 0 0 0-2.013-2.013 2 2 0 0 0-2.014 2.013c0 1.083.93 1.935 2.014 1.935z"/></g><path fill="#FFF" stroke="#000" stroke-width=".216" stroke-miterlimit="10" d="M169.523 408.7a2 2 0 0 0 2.013-2.013 2.002 2.002 0 0 0-2.013-2.015c-1.084 0-2.013.931-2.013 2.015s.929 2.013 2.013 2.013zM179.511 408.7c1.085 0 2.013-.93 2.013-2.013a2 2 0 0 0-2.013-2.015c-1.161 0-2.014.853-2.014 2.015a2 2 0 0 0 2.014 2.013z"/><g stroke="#000" stroke-miterlimit="10"><path fill="none" stroke-width="1" stroke-dasharray="5.0003,3.0002" d="M85.281 410.636l38.715.233"/><path fill="#FFF" stroke-width=".216" d="M97.98 412.802a1.999 1.999 0 0 0 2.013-2.011c0-1.084-.929-2.014-2.013-2.014a2 2 0 0 0-2.014 2.014c.001 1.159.853 2.011 2.014 2.011zM107.891 413.113c1.082 0 2.011-.93 2.011-2.013 0-1.084-.929-2.015-2.011-2.015-1.085 0-2.013.931-2.013 2.015s.928 2.013 2.013 2.013z"/></g><path d="M-8.684 175.254h-.939v-5.984a4.809 4.809 0 0 1-.889.647 6.587 6.587 0 0 1-.989.486v-.91a5.637 5.637 0 0 0 1.376-.897c.393-.352.672-.692.835-1.022h.605v7.68zM92.054 174.353v.902h-5.055a1.586 1.586 0 0 1 .109-.652c.129-.344.335-.684.619-1.018.283-.334.693-.721 1.227-1.158.832-.683 1.393-1.223 1.688-1.62.29-.398.438-.775.438-1.129 0-.372-.13-.687-.399-.942-.267-.256-.611-.383-1.041-.383-.451 0-.811.136-1.085.406-.271.271-.407.647-.411 1.128l-.966-.1c.066-.72.314-1.269.746-1.646.434-.376 1.012-.566 1.739-.566.734 0 1.314.203 1.74.611.43.406.644.91.644 1.513 0 .307-.064.607-.188.902-.125.296-.333.607-.624.935s-.773.775-1.448 1.346c-.564.473-.926.794-1.086.963-.16.169-.29.338-.395.509h3.748zM169.74 173.08l.938-.126c.107.532.291.915.551 1.149s.575.354.946.354c.44 0 .814-.153 1.116-.459a1.55 1.55 0 0 0 .457-1.139c0-.432-.142-.787-.423-1.066-.281-.28-.639-.42-1.074-.42a2.71 2.71 0 0 0-.661.104l.104-.824a1.93 1.93 0 0 0 1.23-.303c.32-.208.483-.529.483-.965 0-.344-.119-.63-.351-.855-.235-.227-.534-.339-.905-.339-.365 0-.667.115-.911.345-.243.229-.4.572-.469 1.031l-.938-.166c.114-.63.376-1.118.783-1.465.406-.345.91-.52 1.517-.52.418 0 .803.09 1.153.27a1.916 1.916 0 0 1 1.085 1.719c0 .33-.089.631-.267.902-.176.271-.439.486-.786.647.451.104.803.32 1.053.649.251.329.375.739.375 1.234 0 .669-.24 1.233-.729 1.698-.487.464-1.103.696-1.846.696-.672 0-1.229-.199-1.672-.6-.444-.397-.697-.915-.759-1.551zM274.873 175.254v-1.832h-3.316v-.861l3.49-4.956h.768v4.956h1.03v.861h-1.03v1.832h-.942zm0-2.691v-3.449l-2.395 3.449h2.395zM338.683 173.174l.986-.084c.073.48.24.841.508 1.082.267.242.588.363.962.363.453 0 .834-.171 1.147-.511.313-.341.47-.794.47-1.356 0-.537-.15-.959-.45-1.269s-.695-.464-1.181-.464c-.303 0-.577.068-.819.207a1.57 1.57 0 0 0-.573.534l-.882-.114.74-3.928h3.804v.897h-3.052l-.412 2.054c.459-.32.941-.48 1.444-.48.666 0 1.23.232 1.689.695.459.462.688 1.058.688 1.784 0 .692-.202 1.291-.603 1.793-.493.618-1.162.928-2.01.928-.696 0-1.263-.194-1.703-.583-.438-.389-.69-.905-.753-1.548zM-13.852 277.104l-.936.075c-.084-.37-.202-.638-.354-.807a1.245 1.245 0 0 0-.938-.401c-.3 0-.563.084-.791.251-.293.217-.528.531-.699.945-.169.413-.259 1.003-.265 1.768a2.185 2.185 0 0 1 1.857-1.018c.626 0 1.158.231 1.597.691.442.46.66 1.057.66 1.788 0 .48-.104.925-.311 1.339a2.257 2.257 0 0 1-.854.945c-.362.221-.772.33-1.231.33-.782 0-1.421-.286-1.915-.861-.492-.577-.74-1.525-.74-2.847 0-1.479.273-2.553.819-3.225.477-.585 1.117-.877 1.925-.877.599 0 1.095.17 1.479.507.39.337.62.802.697 1.397zm-3.835 3.297c0 .323.068.633.206.928.135.297.329.521.576.677s.504.233.778.233c.395 0 .737-.16 1.021-.479.286-.321.43-.755.43-1.306 0-.528-.141-.944-.422-1.249a1.391 1.391 0 0 0-1.065-.455c-.424 0-.785.15-1.081.455-.295.302-.443.701-.443 1.196zM30.582 276.387v-.902h4.951v.731c-.487.519-.969 1.206-1.448 2.065a12.479 12.479 0 0 0-1.108 2.649 9.863 9.863 0 0 0-.36 2.103h-.966c.01-.599.13-1.327.354-2.18.227-.854.552-1.673.973-2.466.422-.791.872-1.459 1.349-2.001h-3.745zM82.989 278.73c-.388-.142-.678-.344-.865-.609a1.59 1.59 0 0 1-.284-.949c0-.556.2-1.023.601-1.403.4-.38.933-.57 1.597-.57.666 0 1.204.195 1.612.585.404.387.608.857.608 1.415 0 .355-.091.665-.279.928s-.469.465-.847.606c.469.153.827.399 1.069.74.246.341.368.75.368 1.221 0 .653-.231 1.203-.694 1.647s-1.072.667-1.826.667c-.755 0-1.364-.223-1.825-.67-.463-.444-.697-1.003-.697-1.67 0-.496.128-.912.38-1.25.256-.335.616-.564 1.082-.688zm-.491 1.943c0 .268.063.525.191.776.125.251.315.444.563.582.251.137.52.207.809.207.45 0 .82-.145 1.111-.434.292-.289.441-.655.441-1.102 0-.452-.151-.824-.452-1.122-.301-.293-.677-.441-1.128-.441-.441 0-.806.146-1.099.44-.29.288-.436.653-.436 1.094zm.304-3.534c0 .362.117.656.348.887.235.229.537.345.91.345.362 0 .658-.115.889-.343.232-.227.347-.505.347-.835 0-.345-.122-.634-.358-.868a1.219 1.219 0 0 0-.889-.354c-.358 0-.656.117-.892.345-.237.23-.355.504-.355.823zM154.157 281.112l.902-.083c.078.424.224.73.439.921.216.192.492.286.83.286.287 0 .542-.066.757-.196.219-.132.396-.31.537-.532.136-.219.255-.519.347-.894a4.71 4.71 0 0 0 .136-1.335 2.08 2.08 0 0 1-.77.726 2.072 2.072 0 0 1-1.056.281c-.633 0-1.17-.229-1.607-.688-.437-.458-.657-1.064-.657-1.815 0-.776.23-1.4.688-1.872.455-.473 1.029-.712 1.719-.712.496 0 .951.133 1.364.402.413.268.726.65.939 1.145.213.496.32 1.216.32 2.153 0 .977-.106 1.756-.318 2.335-.212.578-.527 1.019-.946 1.323-.418.302-.911.453-1.476.453-.597 0-1.085-.166-1.466-.497-.377-.335-.605-.8-.682-1.401zm3.846-3.376c0-.542-.145-.967-.431-1.283-.288-.316-.632-.476-1.035-.476-.417 0-.781.171-1.091.512-.311.34-.465.782-.465 1.324 0 .488.147.884.441 1.188.294.303.657.454 1.088.454.438 0 .794-.151 1.073-.454.279-.305.42-.727.42-1.265zM213.147 282.88h-.939v-5.983a4.903 4.903 0 0 1-.889.647 6.186 6.186 0 0 1-.987.484v-.908a5.718 5.718 0 0 0 1.377-.896c.391-.353.671-.692.834-1.022h.603v7.679h.001zM215.553 279.107c0-.903.094-1.632.278-2.182.187-.554.463-.977.829-1.276.367-.3.83-.448 1.387-.448.411 0 .771.08 1.08.248.307.166.563.402.765.714s.36.691.475 1.138c.117.446.174 1.05.174 1.807 0 .898-.092 1.622-.278 2.175-.182.551-.458.977-.827 1.276-.366.301-.828.449-1.388.449-.737 0-1.319-.263-1.739-.792-.504-.636-.756-1.671-.756-3.109zm.964 0c0 1.257.147 2.093.442 2.509.291.414.654.623 1.088.623.431 0 .794-.209 1.088-.626.291-.418.441-1.251.441-2.506 0-1.259-.147-2.097-.441-2.509-.294-.414-.66-.621-1.098-.621-.434 0-.776.182-1.033.547-.325.466-.487 1.33-.487 2.583zM276.328 283.033h-.938v-5.983a4.808 4.808 0 0 1-.89.647 5.986 5.986 0 0 1-.988.484v-.908a5.688 5.688 0 0 0 1.377-.896c.391-.351.671-.692.834-1.022h.604l.001 7.678zM281.479 283.033h-.939v-5.983a4.887 4.887 0 0 1-.891.647 5.986 5.986 0 0 1-.988.484v-.908a5.675 5.675 0 0 0 1.378-.896c.391-.351.671-.692.834-1.022h.605l.001 7.678zM344.079 283.033h-.938v-5.983a4.818 4.818 0 0 1-.891.647 5.986 5.986 0 0 1-.988.484v-.908a5.65 5.65 0 0 0 1.377-.896c.391-.351.673-.692.836-1.022h.604v7.678zM351.42 282.131v.902h-5.056a1.567 1.567 0 0 1 .11-.649c.129-.344.335-.685.617-1.019.285-.334.694-.719 1.228-1.157.832-.682 1.394-1.222 1.688-1.619.291-.399.438-.774.438-1.13 0-.373-.132-.688-.399-.942-.266-.256-.613-.383-1.04-.383-.449 0-.812.133-1.084.407-.272.27-.409.647-.413 1.126l-.964-.099c.065-.721.313-1.271.745-1.646.434-.377 1.012-.567 1.738-.567.733 0 1.314.204 1.74.611.429.406.645.909.645 1.513 0 .307-.063.605-.188.903-.126.295-.333.604-.624.933-.289.326-.772.777-1.447 1.347-.564.473-.926.794-1.086.962-.16.169-.29.338-.396.508h3.748zM-24.479 363.715h-.939v-5.985a4.831 4.831 0 0 1-.889.647 6.18 6.18 0 0 1-.989.486v-.908a5.627 5.627 0 0 0 1.376-.897c.394-.352.671-.691.834-1.021h.605l.002 7.678zM-22.07 361.696l.939-.128c.11.534.291.917.55 1.152.26.234.575.353.946.353.442 0 .815-.153 1.119-.46.305-.307.457-.685.457-1.138 0-.431-.141-.786-.425-1.065-.281-.28-.639-.421-1.073-.421-.18 0-.399.036-.664.104l.104-.824c.062.008.113.011.151.011.401 0 .758-.104 1.08-.314.32-.209.48-.531.48-.965 0-.343-.117-.63-.351-.854-.233-.229-.534-.341-.902-.341-.365 0-.67.117-.914.346-.241.229-.398.572-.469 1.032l-.939-.168c.115-.631.376-1.117.783-1.463.407-.348.913-.521 1.517-.521.418 0 .804.089 1.156.271.35.18.621.422.805.732.185.31.28.639.28.986 0 .332-.087.631-.268.904-.177.27-.44.486-.787.647.452.104.805.32 1.054.649.25.33.376.741.376 1.233a2.26 2.26 0 0 1-.729 1.697c-.49.466-1.104.698-1.847.698-.672 0-1.228-.2-1.672-.601-.441-.397-.693-.916-.757-1.552zM24.765 363.715h-.938v-5.985a4.866 4.866 0 0 1-.889.647c-.367.216-.699.38-.989.486v-.908a5.685 5.685 0 0 0 1.376-.897c.394-.352.671-.691.834-1.021h.605l.001 7.678zM30.181 363.715v-1.832h-3.318v-.861l3.49-4.958h.767v4.958h1.034v.861H31.12v1.832h-.939zm0-2.694v-3.45l-2.394 3.45h2.394zM71.222 363.715h-.939v-5.985a4.9 4.9 0 0 1-.889.647 6.18 6.18 0 0 1-.989.486v-.908a5.627 5.627 0 0 0 1.376-.897c.393-.352.671-.691.834-1.021h.605l.002 7.678zM73.627 361.711l.986-.083c.075.482.242.843.509 1.084s.587.362.961.362a1.51 1.51 0 0 0 1.149-.511c.313-.342.47-.794.47-1.356 0-.536-.151-.96-.452-1.27s-.694-.465-1.182-.465a1.64 1.64 0 0 0-1.393.742l-.881-.114.743-3.929h3.803v.899h-3.053l-.413 2.053c.459-.319.94-.479 1.445-.479.667 0 1.231.231 1.69.694.457.462.688 1.06.688 1.785 0 .691-.202 1.291-.605 1.795-.489.618-1.159.928-2.009.928-.695 0-1.263-.195-1.701-.585-.442-.39-.693-.908-.755-1.55zM199.211 363.715h-.938v-5.985a4.808 4.808 0 0 1-.89.647c-.366.216-.696.38-.988.486v-.908a5.69 5.69 0 0 0 1.377-.897c.392-.352.669-.691.834-1.021h.604l.001 7.678zM206.488 357.937l-.934.074c-.082-.367-.202-.636-.353-.802a1.24 1.24 0 0 0-.941-.401c-.297 0-.56.082-.786.25-.294.216-.528.529-.699.943-.17.414-.259 1.004-.266 1.769a2.22 2.22 0 0 1 .831-.768c.326-.165.67-.248 1.025-.248.628 0 1.16.229 1.599.689.442.463.66 1.057.66 1.787 0 .481-.104.929-.311 1.338a2.273 2.273 0 0 1-.853.947c-.361.219-.772.33-1.231.33-.783 0-1.421-.286-1.915-.865-.495-.574-.74-1.524-.74-2.846 0-1.477.272-2.554.818-3.222.477-.586 1.117-.877 1.926-.877.6 0 1.094.169 1.479.505.384.339.615.804.691 1.397zm-3.835 3.298c0 .324.071.634.206.929.138.296.333.521.578.677.245.153.505.231.778.231.395 0 .737-.158 1.021-.479.286-.322.428-.756.428-1.306 0-.528-.139-.945-.423-1.25a1.386 1.386 0 0 0-1.064-.455 1.45 1.45 0 0 0-1.08.455c-.296.308-.444.705-.444 1.198zM280.046 363.715h-.938v-5.985a4.808 4.808 0 0 1-.89.647c-.366.216-.698.38-.988.486v-.908a5.665 5.665 0 0 0 1.376-.897c.394-.352.671-.691.834-1.021h.605l.001 7.678zM282.514 357.068v-.904h4.951v.73c-.489.519-.97 1.205-1.448 2.065a12.382 12.382 0 0 0-1.107 2.652 9.775 9.775 0 0 0-.361 2.103h-.965c.01-.604.13-1.329.354-2.182.226-.852.551-1.675.974-2.466.423-.793.869-1.457 1.349-2.001h-3.745v.003z"/><g><path d="M344.079 363.715h-.938v-5.985a4.818 4.818 0 0 1-.891.647c-.366.216-.696.38-.988.486v-.908a5.652 5.652 0 0 0 1.377-.897c.391-.352.673-.691.836-1.021h.604v7.678zM347.929 359.567c-.39-.144-.679-.346-.865-.611-.189-.263-.283-.579-.283-.95 0-.555.199-1.022.6-1.402.4-.379.933-.567 1.597-.567.668 0 1.204.193 1.612.582.406.387.61.858.61 1.417 0 .354-.093.663-.28.926-.185.263-.468.465-.848.606.469.153.827.398 1.07.74.245.341.367.748.367 1.221a2.19 2.19 0 0 1-.695 1.648c-.462.446-1.07.667-1.825.667-.754 0-1.363-.224-1.825-.669-.463-.446-.695-1.006-.695-1.674 0-.494.127-.91.379-1.249.256-.335.616-.563 1.081-.685zm-.491 1.942c0 .268.064.525.19.776s.315.443.566.582c.25.137.521.207.807.207.449 0 .819-.146 1.112-.436.29-.287.438-.652.438-1.099 0-.453-.15-.828-.45-1.123-.3-.294-.677-.44-1.128-.44-.441 0-.809.144-1.1.439-.29.29-.435.655-.435 1.094zm.303-3.532c0 .361.117.655.351.887.232.229.535.344.907.344.362 0 .658-.114.889-.341a1.13 1.13 0 0 0 .348-.838 1.17 1.17 0 0 0-.358-.869 1.216 1.216 0 0 0-.889-.352c-.358 0-.655.115-.892.344a1.1 1.1 0 0 0-.356.825z"/></g><g><path d="M-23.55 450.047h-.939v-5.984a4.866 4.866 0 0 1-.889.648 6.802 6.802 0 0 1-.989.487v-.91a5.634 5.634 0 0 0 1.376-.896c.394-.351.672-.695.835-1.022h.605v7.677zM-21.004 448.278l.903-.082c.078.424.225.73.44.923.216.192.492.287.83.287.286 0 .542-.069.757-.199a1.67 1.67 0 0 0 .537-.528c.138-.224.253-.52.347-.898a4.641 4.641 0 0 0 .136-1.333c-.188.3-.444.543-.77.729-.325.184-.677.28-1.057.28-.633 0-1.17-.229-1.607-.689-.441-.461-.658-1.067-.658-1.817 0-.776.23-1.4.686-1.873.458-.472 1.032-.708 1.72-.708.497 0 .954.134 1.366.401s.726.648.939 1.145c.213.495.32 1.213.32 2.15 0 .979-.106 1.757-.318 2.336-.212.58-.527 1.021-.947 1.322-.419.305-.91.453-1.475.453-.597 0-1.087-.165-1.466-.495-.378-.331-.607-.801-.683-1.404zm3.845-3.375c0-.541-.144-.967-.43-1.283a1.352 1.352 0 0 0-1.037-.473c-.417 0-.78.168-1.091.511-.311.342-.464.782-.464 1.325 0 .487.147.882.44 1.185.294.305.657.458 1.088.458.438 0 .793-.153 1.073-.458.28-.306.421-.728.421-1.265z"/></g><g><path d="M22.447 449.146v.901h-5.055a1.623 1.623 0 0 1 .11-.652c.128-.344.333-.683.619-1.015.284-.337.693-.721 1.229-1.16.832-.683 1.391-1.222 1.686-1.62.292-.399.438-.776.438-1.13 0-.373-.132-.687-.397-.942-.266-.256-.614-.383-1.04-.383-.453 0-.815.137-1.086.407-.27.271-.409.647-.413 1.127l-.966-.1c.068-.719.314-1.27.749-1.646.431-.375 1.009-.564 1.736-.564.733 0 1.314.202 1.743.611a2 2 0 0 1 .642 1.512c0 .308-.062.606-.188.901-.125.297-.333.609-.624.936-.289.326-.772.774-1.447 1.344-.563.473-.924.795-1.085.965-.16.168-.292.336-.397.507h3.75v.002h-.004zM23.454 446.273c0-.904.091-1.632.279-2.183.184-.549.462-.973.83-1.272.367-.3.828-.45 1.386-.45.408 0 .768.082 1.078.248.309.166.565.404.767.716s.36.689.475 1.138c.114.444.174 1.05.174 1.807 0 .899-.092 1.622-.279 2.172-.182.553-.46.979-.827 1.277-.367.302-.831.45-1.388.45-.739 0-1.319-.263-1.74-.791-.504-.636-.755-1.674-.755-3.112zm.965 0c0 1.258.147 2.096.442 2.51.292.416.655.623 1.089.623.431 0 .792-.207 1.085-.626.294-.419.442-1.252.442-2.507 0-1.26-.147-2.095-.442-2.509-.292-.414-.658-.621-1.099-.621-.431 0-.776.182-1.033.547-.323.47-.484 1.329-.484 2.583z"/></g><g><path d="M98.558 449.302v.901h-5.055a1.636 1.636 0 0 1 .11-.653c.127-.343.333-.682.619-1.014.284-.338.693-.722 1.226-1.161.832-.682 1.393-1.22 1.687-1.619.292-.399.438-.777.438-1.13 0-.373-.131-.688-.397-.943-.268-.255-.614-.382-1.04-.382-.453 0-.814.136-1.086.406-.274.271-.409.648-.413 1.128l-.966-.1c.066-.721.314-1.271.748-1.646.432-.378 1.011-.567 1.737-.567.734 0 1.315.204 1.742.611.43.406.644.91.644 1.512 0 .308-.062.609-.188.904-.125.295-.333.606-.624.933-.289.329-.773.777-1.448 1.347-.563.473-.923.794-1.086.962-.16.171-.29.338-.395.509h3.75v.003h-.003zM103.102 450.203h-.939v-5.984a4.878 4.878 0 0 1-.889.646 6.284 6.284 0 0 1-.989.487v-.909a5.62 5.62 0 0 0 1.377-.896c.391-.354.671-.694.835-1.023h.603v7.68h.002z"/></g><g><path d="M168.243 449.302v.901h-5.055a1.636 1.636 0 0 1 .11-.653c.127-.343.333-.682.619-1.014.283-.338.692-.722 1.229-1.161.832-.682 1.391-1.22 1.686-1.619.292-.399.438-.777.438-1.13 0-.373-.132-.688-.397-.943-.266-.255-.613-.382-1.04-.382-.453 0-.814.136-1.086.406s-.409.648-.413 1.128l-.965-.1c.068-.721.314-1.271.749-1.646.432-.378 1.01-.567 1.736-.567.733 0 1.315.204 1.743.611a2 2 0 0 1 .642 1.512c0 .308-.063.609-.188.904-.124.295-.333.606-.624.933-.288.329-.771.777-1.445 1.347-.563.473-.926.794-1.086.962a3.265 3.265 0 0 0-.397.509h3.751v.003h-.007zM174.187 449.302v.901h-5.059c-.006-.225.03-.443.109-.653.131-.343.336-.682.619-1.014.286-.338.695-.722 1.229-1.161.831-.682 1.393-1.22 1.684-1.619.294-.399.441-.777.441-1.13 0-.373-.133-.688-.399-.943-.267-.255-.614-.382-1.04-.382-.453 0-.814.136-1.086.406-.272.271-.409.648-.413 1.128l-.964-.1c.066-.721.314-1.271.746-1.646.431-.378 1.013-.567 1.737-.567.735 0 1.316.204 1.741.611a2 2 0 0 1 .642 1.512c0 .308-.062.609-.185.904-.127.295-.335.606-.624.933-.291.329-.772.777-1.447 1.347-.564.473-.926.794-1.085.962-.16.171-.293.338-.397.509h3.755v.003h-.004z"/></g><g><path d="M259.386 450.203l2.958-3.987-2.608-3.66h1.204l1.389 1.96c.289.406.494.718.616.938.17-.278.371-.567.604-.869l1.537-2.028h1.101l-2.685 3.604 2.894 4.043h-1.252l-1.926-2.73a12.87 12.87 0 0 1-.333-.512c-.172.281-.293.471-.364.575l-1.921 2.668-1.214-.002z"/></g><g><path d="M340.29 450.203v-3.239l-2.947-4.408h1.231l1.507 2.304c.279.431.539.862.777 1.296.231-.402.508-.851.834-1.352l1.481-2.248h1.18l-3.053 4.408v3.239h-1.01z"/></g></svg>