<svg version="1.1" xmlns="http://www.w3.org/2000/svg" x="0" y="0" width="411.023" height="223.391" viewBox="-42.52 -40.211 411.023 223.391" xml:space="preserve"><path d="M220.896 43.744c0 1.395-2.015 6.12-1.086 7.05h2.248v2.713c0 1.628-.698 3.642-.698 5.269 0 .62-.698 5.655.466 5.655 1.163 0 2.015.466 2.248 1.55.464 1.859-.466 6.276 1.857 6.276 0-.853 1.55-2.17 2.248-2.867.93-.93 2.944-1.55 3.873-2.015.855-.466.855-1.163.855-2.092 0-.621-.155-2.248-.389-2.48 0 0-.464-1.084-.464-1.55-.231-.698.233-3.408.233-4.105 0-2.867 3.021-3.642 2.479-7.671-.234-1.627 1.473-3.022 1.162-4.571-1.162-5.657-.696-11.545-1.859-17.278-.697-3.563-3.177-7.747-2.866-12.008.31-3.487-2.325-6.432-3.024-8.6-1.782-5.5 1.164-10.459-2.941-14.565-5.888-5.888-10.462-9.297-18.596-12.241-.931 0-1.163-4.337-2.712-4.571-1.631-.155-3.645-.62-4.805-1.783-1.549-1.55-4.958-4.572-7.515-6.121-6.74-4.571-14.487-.93-20.841-4.105-6.12-2.944-30.989 7.282-33.778 9.994-2.712 2.713-6.506 4.804-9.065 7.282-2.014 2.014-4.958 7.671-7.205 10.845-2.559 3.642-5.5 5.037-5.5 10.925 0 4.803-2.945 5.655-5.424 8.134-7.283 7.282-3.409 12.55-5.888 19.99-1.161 3.641-.696 9.063-.696 13.403v15.185c.696 0 1.781.931 2.012 1.165.234.231.93.93 1.395 1.394 0 0 .234 1.318.234 1.55 0 .466.929.93.929 1.395.233 1.317 1.317 1.55.387 3.409 3.874-1.86 5.269-9.762 5.269-13.869 0-5.657 4.263-.697 4.263-7.282 0-4.494 4.801-.234 5.036-.466 0 0 2.246-5.191 2.246-6.121 0-1.55.234-8.366.699-9.295 0-.233 7.98-7.052 7.98-7.052-.234 1.859-.698 3.178-1.396 4.573l-.696 1.163c0 .387-2.249 4.027-2.479 4.262-.234.231-.466.929-.466.929s-.699.466-.699.698h.699c.231 0 1.162-.93 1.162-.93.234-.466 1.085-.698 1.319-.931.233-.231 1.857-1.781 1.857-2.013 0-.233.854-.697.854-.697.233-.233-.154-.233.233-.697l1.165-.62c.464 0 1.782 0 2.014-.233l.929-.466c.232-.233.697-1.163.93-1.163 0 1.629-.234 3.408-.234 4.803 0 0-.466 1.085-.466 1.319-.231.466 0 0 .234 0 1.162-.465 1.782-1.319 2.247-2.249l.465-.231v2.71c0 .699.929-.464.929-.464.234-.233.93-1.55 1.085-1.782.234-.234 2.79-2.943 2.79-3.409 0-.233.62-.93.62-1.163 0-.464.465-2.479.699-2.712.462-.464.927-1.55 1.392-2.015.234-.233.234-.697.466-.93.388-.464.854-.93 1.55-1.163 0 0 1.859-.466 2.014-.466-.851 2.558-1.085 5.269-1.085 8.213v6.584c0 .93-2.479 4.727-1.86 4.727.93 0 7.053-10.148 8.213-11.775 1.164-1.783.234-2.712 3.179-2.712.697 0 .466 7.903.466 9.063 0 2.48-.234 2.945 1.082.466.93-1.626 2.713-3.874 3.334-5.19 0-.233.929 3.175.929 3.563 0 1.162 1.783 4.803 2.247 5.732.699.853 1.629 2.48 1.858.62.234-1.318.855-2.944.855-4.262 2.092-.93 4.339-1.628 5.501-2.711.697-.699.465-7.283.465-8.678 0-1.085.232-3.797.619-4.726.231-.698 2.557-2.249 2.557-2.48 2.015 2.015 3.644 2.712 3.644 6.353 0 1.783-.234 4.029-.234 6.121 0 2.015-1.627 3.873-1.859 4.726 0 .464-1.318 1.627-1.318 2.092 0 .233.854 0 .854 0 .93-.93 3.179-2.558 4.108-3.409 0 0 2.712-2.942 2.945-2.942.929 0 4.334 5.19 4.8 5.655 1.319 1.318-2.092-4.105-2.092-4.105-.854-2.714-.234-6.121 1.395-7.749.697-.62.466-5.888.466-7.438 2.246 1.55 3.175 2.25 3.175 5.424 0 2.014-.231 2.944.62 4.803.698 1.318 1.86 3.796 1.86 5.655 0 1.163 1.549 3.178 1.549 4.338 0 2.713.234-2.324.234-3.022v-8.827c0-.93-.234-2.014.464-2.713 1.396-1.395 2.479 3.178 2.479 3.409 0 .233.697 3.409.928 3.409.698 0 1.395 4.571 1.859 4.957.388.466.388 1.627.62 2.325.93 1.783 2.788 2.712 2.788 4.727 0-.93-.231-7.903 0-8.136.156-.233 1.785-1.161 2.251-1.395.231 0 .696-.465.696-.465.388-.465.619 1.628.619 1.628 0 1.085 0 2.945.465 3.874v1.085c0 .466 1.164 2.325 1.395 2.712.234.466 2.25 2.093 2.713 2.325l1.163.621c.37-.001 1.532.698 1.069.929"/><path fill="none" stroke="#000" stroke-width=".216" d="M220.896 43.744c0 1.395-2.015 6.12-1.086 7.05h2.248v2.713c0 1.628-.698 3.642-.698 5.269 0 .62-.698 5.655.466 5.655 1.163 0 2.015.466 2.248 1.55.464 1.859-.466 6.276 1.857 6.276 0-.853 1.55-2.17 2.248-2.867.93-.93 2.944-1.55 3.873-2.015.855-.466.855-1.163.855-2.092 0-.621-.155-2.248-.389-2.48 0 0-.464-1.084-.464-1.55-.231-.698.233-3.408.233-4.105 0-2.867 3.021-3.642 2.479-7.671-.234-1.627 1.473-3.022 1.162-4.571-1.162-5.657-.696-11.545-1.859-17.278-.697-3.563-3.177-7.747-2.866-12.008.31-3.487-2.325-6.432-3.024-8.6-1.782-5.5 1.164-10.459-2.941-14.565-5.888-5.888-10.462-9.297-18.596-12.241-.931 0-1.163-4.337-2.712-4.571-1.631-.155-3.645-.62-4.805-1.783-1.549-1.55-4.958-4.572-7.515-6.121-6.74-4.571-14.487-.93-20.841-4.105-6.12-2.944-30.989 7.282-33.778 9.994-2.712 2.713-6.506 4.804-9.065 7.282-2.014 2.014-4.958 7.671-7.205 10.845-2.559 3.642-5.5 5.037-5.5 10.925 0 4.803-2.945 5.655-5.424 8.134-7.283 7.282-3.409 12.55-5.888 19.99-1.161 3.641-.696 9.063-.696 13.403v15.185c.696 0 1.781.931 2.012 1.165.234.231.93.93 1.395 1.394 0 0 .234 1.318.234 1.55 0 .466.929.93.929 1.395.233 1.317 1.317 1.55.387 3.409 3.874-1.86 5.269-9.762 5.269-13.869 0-5.657 4.263-.697 4.263-7.282 0-4.494 4.801-.234 5.036-.466 0 0 2.246-5.191 2.246-6.121 0-1.55.234-8.366.699-9.295 0-.233 7.98-7.052 7.98-7.052-.234 1.859-.698 3.178-1.396 4.573l-.696 1.163c0 .387-2.249 4.027-2.479 4.262-.234.231-.466.929-.466.929s-.699.466-.699.698h.699c.231 0 1.162-.93 1.162-.93.234-.466 1.085-.698 1.319-.931.233-.231 1.857-1.781 1.857-2.013 0-.233.854-.697.854-.697.233-.233-.154-.233.233-.697l1.165-.62c.464 0 1.782 0 2.014-.233l.929-.466c.232-.233.697-1.163.93-1.163 0 1.629-.234 3.408-.234 4.803 0 0-.466 1.085-.466 1.319-.231.466 0 0 .234 0 1.162-.465 1.782-1.319 2.247-2.249l.465-.231v2.71c0 .699.929-.464.929-.464.234-.233.93-1.55 1.085-1.782.234-.234 2.79-2.943 2.79-3.409 0-.233.62-.93.62-1.163 0-.464.465-2.479.699-2.712.462-.464.927-1.55 1.392-2.015.234-.233.234-.697.466-.93.388-.464.854-.93 1.55-1.163 0 0 1.859-.466 2.014-.466-.851 2.558-1.085 5.269-1.085 8.213v6.584c0 .93-2.479 4.727-1.86 4.727.93 0 7.053-10.148 8.213-11.775 1.164-1.783.234-2.712 3.179-2.712.697 0 .466 7.903.466 9.063 0 2.48-.234 2.945 1.082.466.93-1.626 2.713-3.874 3.334-5.19 0-.233.929 3.175.929 3.563 0 1.162 1.783 4.803 2.247 5.732.699.853 1.629 2.48 1.858.62.234-1.318.855-2.944.855-4.262 2.092-.93 4.339-1.628 5.501-2.711.697-.699.465-7.283.465-8.678 0-1.085.232-3.797.619-4.726.231-.698 2.557-2.249 2.557-2.48 2.015 2.015 3.644 2.712 3.644 6.353 0 1.783-.234 4.029-.234 6.121 0 2.015-1.627 3.873-1.859 4.726 0 .464-1.318 1.627-1.318 2.092 0 .233.854 0 .854 0 .93-.93 3.179-2.558 4.108-3.409 0 0 2.712-2.942 2.945-2.942.929 0 4.334 5.19 4.8 5.655 1.319 1.318-2.092-4.105-2.092-4.105-.854-2.714-.234-6.121 1.395-7.749.697-.62.466-5.888.466-7.438 2.246 1.55 3.175 2.25 3.175 5.424 0 2.014-.231 2.944.62 4.803.698 1.318 1.86 3.796 1.86 5.655 0 1.163 1.549 3.178 1.549 4.338 0 2.713.234-2.324.234-3.022v-8.827c0-.93-.234-2.014.464-2.713 1.396-1.395 2.479 3.178 2.479 3.409 0 .233.697 3.409.928 3.409.698 0 1.395 4.571 1.859 4.957.388.466.388 1.627.62 2.325.93 1.783 2.788 2.712 2.788 4.727 0-.93-.231-7.903 0-8.136.156-.233 1.785-1.161 2.251-1.395.231 0 .696-.465.696-.465.388-.465.619 1.628.619 1.628 0 1.085 0 2.945.465 3.874v1.085c0 .466 1.164 2.325 1.395 2.712.234.466 2.25 2.093 2.713 2.325l1.163.621c.37-.001 1.532.698 1.069.929z"/><path d="M148.766 67.839c0-3.797-5.813-4.573-8.058-6.819-2.945-2.866-10.382-2.091-14.644-2.091-4.804 0-4.804 1.472-7.438 4.105-1.317 1.318-.155 2.403.31 1.395.388-.698 2.868-2.325 4.109-2.325 4.185-.31 12.703-2.712 15.804.387 1.318 1.317 3.954 1.473 5.578 3.176 1.24 1.242 2.711 2.249 4.339 2.172z"/><path fill="none" stroke="#000" stroke-width=".737" d="M123.586 76.439c.775-3.099 7.438-4.958 9.453-5.578M124.749 77.755c3.95-3.719 8.365-5.965 13.324-6.196 5.189-.311 8.909.62 9.838 2.942.854 1.939.464 3.644-.464 4.883-1.861 2.479-6.042 3.408-11.233 3.333-5.733-.08-8.908-2.406-11.465-4.962z"/><path d="M142.644 71.635c1.629 1.395 2.714 3.562 2.714 5.887 0 1.549-.465 2.943-1.239 4.183-2.092.775-4.804 1.008-7.903 1.008-1.859 0-3.486-.311-4.88-.697a7.91 7.91 0 0 1-1.395-4.494c0-1.55.466-3.024 1.317-4.262 2.17-1.008 4.418-1.551 6.818-1.704 1.703-.077 3.175-.077 4.568.079z"/><path fill="none" stroke="#000" stroke-width=".737" d="M207.337 77.832c-.773-3.178-7.438-5.037-9.451-5.577M206.175 79.149c-3.951-3.797-8.364-5.966-13.324-6.275-5.193-.234-8.909.697-9.84 3.021-.854 1.938-.464 3.643.465 4.881 1.858 2.48 6.041 3.334 11.234 3.334 5.732-.078 8.908-2.403 11.465-4.961z"/><path d="M188.278 73.029a7.728 7.728 0 0 0-2.713 5.887c0 1.473.465 2.944 1.24 4.107 2.092.775 4.804 1.085 7.902 1.085 1.856-.077 3.486-.311 4.881-.776.854-1.238 1.396-2.788 1.396-4.416 0-1.629-.465-3.099-1.32-4.263-2.169-1.008-4.417-1.626-6.815-1.781a29.083 29.083 0 0 0-4.571.157zM180.376 91.856c-2.635-7.282-3.799-14.644-.93-22.003-3.332 5.887-3.254 13.171.93 22.003zM210.901 61.795c.311.621 1.007 1.084 1.237 1.55.077.155 1.705 1.55.698 1.55-1.164 0-2.868-1.783-3.797-2.479-3.408-2.634-8.213-1.859-13.016-1.859-3.873 0-5.113 1.471-8.289 2.712-1.549.62-6.586 6.586-6.586 2.092 0-1.24 3.177-2.48 3.951-3.333 3.177-.93 4.881-3.33 8.367-3.33 3.797 0 7.281-.93 11.309-.93 1.401-.002 6.048 2.71 6.126 4.027zM150.626 109.519c-2.093-2.093-2.093-4.417-.155-6.896-3.254 2.713-3.178 5.037.155 6.896zM158.141 108.434c-.078 0-.464-.154-.464-.154-.155-.232-.545-.543-.775-.775-.079-.076-.311-.311-.311-.387-.076-.077 0-.077-.155-.077-.076 0-.155-.076-.231-.156 0-.077-.855-.077-1.009-.077-.311 0-1.162-.077-1.241.155-.076.077-.155.077-.155.233 0 .077-.311.155-.311.311 0 .232-.077.543 0 .774l.464.31s.234.155.311.234c.079.076.699.232.93.232.464 0 1.084-.077 1.55-.077.622-.003 1.009-.312 1.397-.546zM177.974 109.598c2.095-2.094 2.17-4.417.155-6.897 3.255 2.712 3.176 5.037-.155 6.897M170.46 108.514c.076 0 .464-.155.464-.155.233-.234.543-.62.775-.775l.387-.388c.078-.076-.076-.155.078-.155.076 0 .155 0 .232-.076.079-.078.854-.078 1.084-.078.31 0 1.086-.076 1.165.155.076.078.232 0 .232.232 0 .077.234.155.234.311s.153.466 0 .775l-.466.31s-.234.155-.31.232c-.077.078-.698.234-.854.234-.543 0-1.162-.078-1.627-.078-.621-.003-1.008-.313-1.394-.544zM182.701 136.869c-3.719 0-7.128.155-9.688-1.549-3.176-2.094-6.275.076-8.675 1.318-2.249 1.163-4.883-1.629-6.508-1.938-1.859-.311-4.494 1.008-5.269 1.008-2.945 0-5.811-.232-9.297-.232a209.696 209.696 0 0 0 39.437 1.393zM174.642 140.82c-9.606 3.641-18.283 3.485-26.185-.776 8.057 5.733 16.811 5.037 26.185.776z"/><path fill="none" stroke="#000" stroke-width=".737" d="M109.023 72.489c0-6.742-1.55-15.419-10.537-12.32-8.058 2.712-7.594 10.846-3.952 18.286 1.162 2.322 2.17 5.267 1.317 8.054-.93 2.868-.076 7.749 1.859 9.531 3.179 2.944 1.395 11.544 4.416 13.248 5.268 3.023 8.756 1.008 8.522-4.417-.465 13.636 2.789 25.644 12.628 34.787 8.212 7.747 17.046 14.798 27.194 20.065 4.416 2.323 9.374 2.788 15.263 2.323 9.139-.697 17.354-4.183 25.331-10.379 12.552-9.686 21.384-21.074 25.257-35.253 0-1.317 1.085-2.401 1.085-3.563 0-1.009 2.169-3.952 2.559-5.269.076-.388-1.164 1.783-1.164 5.657 0 3.563 4.185 5.19 6.973 2.401 2.092-2.013 1.704-5.267 2.944-7.281 2.557-3.797 6.586-5.191 8.601-9.45.928-1.938.854-7.051.854-9.453-.234-2.711 4.262-7.825 5.267-9.993 3.099-6.276-2.945-12.164-8.521-12.164-7.673 0-9.997 5.501-9.997 12.164"/><path d="M106.619 96.426s-3.72 3.488-.387 1.318c.93-.619.542-3.177.232-4.107-.232-.853-.311-3.487-1.471-5.345-1.085-1.55-.775-3.333-.544-3.719.93-1.938 3.1-4.883 2.48-7.438-.775-3.252-1.937-5.811-1.937-9.374 0-4.338-4.338-4.804-6.895-2.945-1.475 1.084-1.784 3.178-1.784 5.113.311-.466.234.853 1.629-1.628.62-1.163 1.859-3.564 3.332-3.254 2.557.697 3.021-.311 3.021 2.248 0 2.712.311 3.718 1.009 6.044.775 2.321 2.169 4.726-.155 7.125-2.713 2.634-2.869 3.644-2.869 7.126 0 1.086 1.784 1.704 2.325 2.558 1.084 1.63 2.092 4.187 2.014 6.278M239.954 77.755h-.389c2.944-1.084-2.246-7.049-5.036-1.474-1.55 3.179-2.557 4.959-5.035 7.438-.775.775-6.431 2.787-3.408 5.732 5.035 5.113 1.626 5.733-.698 11.699-.543 1.395.388 4.572.388.93 0-3.873 4.183-5.811 4.183-7.516 0-1.783.931-1.938-.309-3.797-.699-1.009-1.549-1.318-2.25-1.938-1.55-1.549-.154-3.796 1.475-4.649 3.409-1.703 4.416-4.416 6.431-7.745 2.246-3.871 3.95 1.32 4.648 1.32zM-36.556-27.361h2.825c.637 0 1.123.05 1.457.146.45.131.833.366 1.156.704.319.341.562.754.73 1.241.167.49.249 1.093.249 1.81 0 .63-.077 1.173-.233 1.628-.193.558-.466 1.008-.82 1.354-.268.261-.629.466-1.087.61-.338.108-.797.161-1.367.161h-2.91v-7.654zm1.545 1.294v5.07h1.156c.432 0 .743-.027.934-.074.251-.064.46-.169.624-.319.165-.15.301-.396.405-.739.104-.343.157-.81.157-1.4 0-.593-.052-1.047-.157-1.363-.104-.317-.251-.563-.439-.741a1.485 1.485 0 0 0-.715-.36c-.216-.048-.638-.073-1.269-.073h-.696zM-28.839-26.004v-1.357h1.467v1.357h-1.467zm0 6.296v-5.544h1.467v5.544h-1.467zM-26.385-21.291l1.471-.223c.064.284.19.501.383.649.191.148.459.222.801.222.382 0 .665-.07.856-.208a.468.468 0 0 0 .193-.391.398.398 0 0 0-.103-.278c-.075-.069-.238-.133-.493-.191-1.184-.261-1.933-.499-2.25-.716-.44-.298-.659-.714-.659-1.247 0-.48.19-.884.569-1.213.379-.327.968-.491 1.765-.491.759 0 1.322.124 1.692.37.369.247.622.614.76 1.098l-1.381.256a.853.853 0 0 0-.337-.495c-.165-.115-.401-.173-.705-.173-.388 0-.664.053-.83.162a.346.346 0 0 0-.17.298.32.32 0 0 0 .146.265c.134.097.592.234 1.372.413.781.178 1.324.394 1.635.651.307.261.459.625.459 1.09 0 .508-.212.946-.637 1.311-.424.365-1.055.547-1.887.547-.753 0-1.352-.153-1.791-.459a2.12 2.12 0 0 1-.859-1.247zM-15.09-23.614l-1.447.261c-.048-.289-.159-.506-.331-.651s-.396-.219-.672-.219c-.365 0-.657.127-.875.378-.217.252-.326.675-.326 1.266 0 .659.11 1.123.331 1.395.221.273.518.408.89.408.28 0 .507-.078.687-.236.177-.159.301-.432.375-.817l1.44.246c-.149.661-.439 1.162-.861 1.499-.424.336-.993.504-1.708.504-.812 0-1.457-.256-1.939-.767-.484-.512-.723-1.22-.723-2.125 0-.915.239-1.628.725-2.139.482-.509 1.139-.764 1.963-.764.676 0 1.212.146 1.611.437.4.286.687.729.86 1.324zM-12.573-19.708h-1.466v-5.544h1.362v.789c.233-.373.441-.617.628-.736s.398-.178.635-.178c.336 0 .656.092.966.276l-.455 1.278c-.248-.159-.477-.239-.689-.239a.808.808 0 0 0-.521.171c-.143.113-.256.318-.337.613-.08.296-.123.916-.123 1.859v1.711zM-9.816-26.004v-1.357h1.469v1.357h-1.469zm0 6.296v-5.544h1.469v5.544h-1.469zM-6.955-25.252h1.351v.756c.484-.588 1.06-.882 1.728-.882.355 0 .664.074.924.22s.474.367.642.662a2.55 2.55 0 0 1 .79-.662c.281-.147.583-.22.902-.22.407 0 .75.082 1.035.248.281.165.491.409.63.728.101.235.152.62.152 1.148v3.545H-.267v-3.168c0-.549-.051-.906-.152-1.063-.136-.209-.344-.313-.627-.313a1.01 1.01 0 0 0-.581.187c-.181.126-.312.31-.391.549-.08.243-.119.624-.119 1.146v2.663h-1.469v-3.037c0-.54-.025-.888-.076-1.044a.672.672 0 0 0-.244-.351c-.109-.076-.258-.114-.446-.114-.226 0-.429.061-.609.182a.997.997 0 0 0-.389.526c-.076.23-.118.611-.118 1.143v2.694h-1.467v-5.543zM2.66-26.004v-1.357h1.469v1.357H2.66zm0 6.296v-5.544h1.469v5.544H2.66zM10.675-19.708H9.208v-2.828c0-.598-.031-.986-.095-1.163a.815.815 0 0 0-.306-.41.884.884 0 0 0-.509-.146c-.254 0-.482.069-.684.209a1.07 1.07 0 0 0-.415.553c-.074.23-.112.654-.112 1.273v2.511H5.622v-5.543h1.362v.814c.484-.625 1.093-.938 1.826-.938.324 0 .62.058.888.174.271.118.47.266.607.446.138.182.234.387.288.616.053.23.079.559.079.986l.003 3.446zM13.258-23.561l-1.332-.239c.15-.538.408-.933.774-1.19.365-.257.909-.387 1.63-.387.651 0 1.141.078 1.461.233.32.154.545.352.675.59.131.238.195.676.195 1.313l-.015 1.712c0 .489.023.848.07 1.079.047.233.135.479.263.743H15.53a4.858 4.858 0 0 1-.141-.433c-.024-.086-.039-.144-.052-.173a2.655 2.655 0 0 1-.802.548 2.292 2.292 0 0 1-.915.181c-.571 0-1.021-.154-1.35-.464s-.493-.701-.493-1.174c0-.313.077-.593.226-.839.15-.244.359-.433.63-.563.269-.13.658-.245 1.167-.343.685-.13 1.161-.248 1.423-.359v-.147c0-.282-.069-.484-.209-.603-.139-.12-.402-.18-.788-.18-.261 0-.464.052-.611.154-.147.104-.266.282-.357.541zm1.963 1.19a9.522 9.522 0 0 1-.893.226c-.408.087-.673.173-.8.256-.19.135-.285.308-.285.517 0 .205.076.383.229.534a.806.806 0 0 0 .587.224c.264 0 .517-.086.754-.261a.904.904 0 0 0 .35-.486c.039-.126.057-.364.057-.714v-.296zM20.65-25.252v1.168h-1.002v2.234c0 .452.01.717.027.792a.33.33 0 0 0 .131.184c.067.05.15.074.246.074.136 0 .333-.047.592-.14l.125 1.138a2.91 2.91 0 0 1-1.158.218c-.264 0-.503-.043-.715-.132a1.043 1.043 0 0 1-.467-.343 1.376 1.376 0 0 1-.206-.571c-.031-.171-.047-.515-.047-1.033v-2.417h-.673v-1.172h.673v-1.102l1.475-.855v1.957h.999zM21.669-26.004v-1.357h1.466v1.357h-1.466zm0 6.296v-5.544h1.466v5.544h-1.466zM29.681-19.708h-1.466v-2.828c0-.598-.029-.986-.095-1.163a.805.805 0 0 0-.306-.41.88.88 0 0 0-.507-.146 1.18 1.18 0 0 0-.687.209 1.055 1.055 0 0 0-.415.553c-.074.23-.112.654-.112 1.273v2.511h-1.466v-5.543h1.362v.814c.486-.625 1.093-.938 1.827-.938.326 0 .62.058.889.174.268.118.471.266.606.446.138.182.234.387.287.616.054.23.079.559.079.986l.004 3.446zM31.034-19.343l1.675.204c.028.195.092.33.193.401.137.104.359.157.656.157.386 0 .67-.057.862-.173.13-.077.226-.2.292-.37.045-.123.068-.347.068-.673v-.808c-.438.597-.992.897-1.659.897-.745 0-1.335-.314-1.77-.945-.342-.497-.512-1.116-.512-1.859 0-.929.223-1.639.671-2.13a2.154 2.154 0 0 1 1.667-.736c.686 0 1.25.301 1.697.904v-.778h1.371v4.975c0 .655-.053 1.144-.161 1.468-.108.325-.258.577-.454.763a2.007 2.007 0 0 1-.781.433c-.325.104-.736.156-1.232.156-.942 0-1.605-.16-2-.482-.395-.323-.59-.729-.59-1.225.003-.051.004-.11.007-.179zm1.31-3.253c0 .588.114 1.019.342 1.293.228.273.507.41.843.41.359 0 .661-.141.906-.422.247-.28.372-.696.372-1.244 0-.574-.12-1.002-.355-1.278a1.13 1.13 0 0 0-.9-.417c-.349 0-.64.136-.867.409-.227.273-.341.689-.341 1.249zM40.029-25.252h.815v-.417c0-.466.05-.815.149-1.045.099-.229.284-.416.548-.561.267-.144.601-.218 1.009-.218.416 0 .826.064 1.228.188l-.199 1.022a2.88 2.88 0 0 0-.673-.083c-.212 0-.364.05-.458.149-.092.1-.136.289-.136.571v.393h1.097v1.155h-1.097v4.389h-1.469v-4.389h-.815v-1.154zM47.443-21.473l1.461.244c-.188.537-.484.944-.889 1.225-.405.281-.913.42-1.523.42-.962 0-1.678-.314-2.141-.944-.365-.504-.548-1.141-.548-1.911 0-.918.24-1.639.72-2.159.483-.52 1.087-.78 1.824-.78.822 0 1.475.273 1.95.816.477.544.705 1.378.687 2.503h-3.677c.012.435.13.773.355 1.015.228.241.508.362.848.362a.9.9 0 0 0 .579-.188c.155-.122.273-.324.354-.603zm.082-1.482c-.011-.426-.12-.749-.329-.969a1.015 1.015 0 0 0-.762-.331c-.32 0-.584.117-.793.348-.208.233-.312.549-.308.952h2.192zM51.274-23.561l-1.332-.239c.15-.538.408-.933.774-1.19.365-.257.908-.387 1.629-.387.654 0 1.144.078 1.464.233.32.154.543.352.675.59.129.238.197.676.197 1.313l-.019 1.712c0 .489.026.848.073 1.079.047.233.132.479.263.743h-1.45a4.795 4.795 0 0 1-.142-.433c-.026-.086-.041-.144-.052-.173a2.65 2.65 0 0 1-.804.548c-.284.123-.59.181-.912.181-.571 0-1.021-.154-1.35-.464-.331-.311-.494-.701-.494-1.174 0-.313.078-.593.226-.839.148-.244.358-.433.629-.563.27-.13.656-.245 1.165-.343.685-.13 1.163-.248 1.425-.359v-.147c0-.282-.071-.484-.208-.603-.139-.12-.402-.18-.791-.18-.26 0-.465.052-.608.154-.149.104-.267.282-.358.541zm1.964 1.19a9.688 9.688 0 0 1-.895.226c-.405.086-.673.173-.798.256-.191.135-.287.308-.287.517 0 .205.078.383.231.534a.803.803 0 0 0 .584.224c.265 0 .517-.086.757-.261a.916.916 0 0 0 .351-.486c.037-.126.057-.364.057-.714v-.296zM58.666-25.252v1.168h-1.004v2.234c0 .452.01.717.029.792a.325.325 0 0 0 .128.184c.07.05.15.074.249.074.136 0 .333-.047.591-.14l.126 1.138a2.92 2.92 0 0 1-1.158.218c-.267 0-.503-.043-.715-.132a1.043 1.043 0 0 1-.467-.343 1.335 1.335 0 0 1-.206-.571c-.032-.171-.047-.515-.047-1.033v-2.417h-.673v-1.172h.673v-1.102l1.471-.855v1.957h1.003zM63.333-19.708v-.83a2.12 2.12 0 0 1-.798.699 2.224 2.224 0 0 1-1.042.256 2.04 2.04 0 0 1-1.002-.244 1.437 1.437 0 0 1-.643-.69c-.131-.296-.197-.704-.197-1.227v-3.509h1.466v2.548c0 .78.026 1.256.081 1.433a.793.793 0 0 0 .292.417.91.91 0 0 0 .544.154c.251 0 .474-.069.673-.206a1.06 1.06 0 0 0 .408-.512c.074-.204.11-.701.11-1.497v-2.337h1.466v5.544h-1.358zM67.619-19.708H66.15v-5.544h1.365v.789c.233-.373.44-.617.628-.736.185-.119.396-.178.634-.178.333 0 .656.092.965.276l-.454 1.278c-.247-.159-.477-.239-.689-.239a.799.799 0 0 0-.521.171c-.143.113-.256.318-.337.613-.083.296-.123.916-.123 1.859l.001 1.711zM73.585-21.473l1.461.244c-.186.537-.484.944-.89 1.225-.406.281-.914.42-1.521.42-.964 0-1.68-.314-2.143-.944-.365-.504-.546-1.141-.546-1.911 0-.918.238-1.639.721-2.159.48-.52 1.088-.78 1.821-.78.825 0 1.475.273 1.95.816.478.544.705 1.378.686 2.503h-3.675c.011.435.128.773.355 1.015.226.241.506.362.846.362a.896.896 0 0 0 .578-.188c.159-.122.277-.324.357-.603zm.085-1.482c-.012-.426-.122-.749-.332-.969a1.008 1.008 0 0 0-.763-.331c-.32 0-.584.117-.793.348-.209.233-.312.549-.308.952h2.196zM75.804-21.291l1.473-.223c.062.284.19.501.383.649.189.148.46.222.802.222.378 0 .665-.07.856-.208a.466.466 0 0 0 .19-.391.386.386 0 0 0-.104-.278c-.073-.069-.234-.133-.49-.191-1.184-.261-1.933-.499-2.251-.716-.438-.298-.655-.714-.655-1.247 0-.48.187-.884.569-1.213.378-.327.966-.491 1.765-.491.759 0 1.321.124 1.692.37.369.247.624.614.761 1.098l-1.381.256a.867.867 0 0 0-.337-.495c-.165-.115-.401-.173-.707-.173-.387 0-.661.053-.83.162a.35.35 0 0 0-.167.298c0 .104.049.193.147.265.13.097.588.234 1.371.413.783.178 1.327.394 1.636.651.307.261.46.625.46 1.09 0 .508-.212.946-.637 1.311-.427.365-1.055.547-1.887.547-.753 0-1.353-.153-1.792-.459a2.103 2.103 0 0 1-.867-1.247z"/><path fill="none" stroke="#000" stroke-width=".432" d="M-37.328-18.469H82.293"/><path d="M271.263-19.708h-1.681l-.669-1.738h-3.063l-.63 1.738h-1.638l2.979-7.651h1.634l3.068 7.651zm-2.845-3.029l-1.054-2.84-1.034 2.84h2.088zM271.555-21.291l1.473-.223c.063.284.189.501.383.649.189.148.458.222.802.222.38 0 .665-.07.856-.208a.463.463 0 0 0 .19-.391.378.378 0 0 0-.104-.278c-.072-.069-.233-.133-.491-.191-1.183-.261-1.935-.499-2.251-.716-.438-.298-.654-.714-.654-1.247 0-.48.188-.884.568-1.213.38-.327.966-.491 1.765-.491.757 0 1.319.124 1.689.37.369.247.622.614.762 1.098l-1.384.256a.843.843 0 0 0-.336-.495c-.165-.115-.401-.173-.707-.173-.387 0-.663.053-.831.162a.35.35 0 0 0-.166.298.32.32 0 0 0 .146.265c.13.097.588.234 1.37.413.781.178 1.327.394 1.638.651.306.261.459.625.459 1.09 0 .508-.213.946-.64 1.311-.425.365-1.053.547-1.885.547-.756 0-1.353-.153-1.792-.459a2.113 2.113 0 0 1-.86-1.247zM277.502-21.291l1.473-.223c.063.284.19.501.381.649.191.148.46.222.805.222.379 0 .664-.07.854-.208a.464.464 0 0 0 .194-.391.38.38 0 0 0-.106-.278c-.072-.069-.233-.133-.49-.191-1.183-.261-1.935-.499-2.252-.716-.438-.298-.657-.714-.657-1.247 0-.48.19-.884.571-1.213.38-.327.966-.491 1.765-.491.757 0 1.32.124 1.689.37.369.247.622.614.762 1.098l-1.384.256a.839.839 0 0 0-.336-.495c-.165-.115-.401-.173-.707-.173-.387 0-.663.053-.831.162a.35.35 0 0 0-.166.298c0 .104.049.193.146.265.13.097.589.234 1.371.413s1.326.394 1.637.651c.306.261.459.625.459 1.09 0 .508-.215.946-.64 1.311-.424.365-1.053.547-1.885.547-.755 0-1.352-.153-1.792-.459a2.124 2.124 0 0 1-.861-1.247zM283.626-22.558c0-.487.121-.958.361-1.416.24-.456.58-.803 1.021-1.044.438-.24.931-.36 1.475-.36.839 0 1.526.273 2.062.816.535.544.802 1.232.802 2.065 0 .839-.271 1.533-.809 2.086-.544.552-1.223.827-2.045.827-.509 0-.994-.114-1.454-.343a2.367 2.367 0 0 1-1.052-1.009c-.24-.445-.361-.986-.361-1.622zm1.504.077c0 .551.131.972.392 1.264.261.292.582.439.964.439.384 0 .704-.146.962-.439.26-.291.389-.717.389-1.272 0-.543-.129-.959-.389-1.254a1.236 1.236 0 0 0-.962-.439 1.24 1.24 0 0 0-.964.439c-.262.292-.392.713-.392 1.262zM295.331-23.614l-1.446.261c-.048-.289-.158-.506-.332-.651-.175-.146-.396-.219-.669-.219-.366 0-.659.127-.875.378-.218.252-.327.675-.327 1.266 0 .659.11 1.123.332 1.395.221.273.517.408.891.408.28 0 .506-.078.683-.236.181-.158.303-.432.378-.817l1.441.246c-.149.661-.438 1.162-.861 1.499-.423.336-.993.504-1.706.504-.812 0-1.458-.256-1.94-.767-.481-.512-.724-1.22-.724-2.125 0-.915.242-1.628.727-2.139.485-.509 1.138-.764 1.963-.764.675 0 1.214.146 1.613.437.393.289.678.729.852 1.324zM296.443-26.004v-1.357h1.467v1.357h-1.467zm0 6.296v-5.544h1.467v5.544h-1.467zM300.51-23.561l-1.331-.239c.148-.538.407-.933.772-1.19.368-.257.908-.387 1.63-.387.654 0 1.141.078 1.461.233.321.154.546.352.676.59.132.238.196.676.196 1.313l-.016 1.712c0 .489.023.848.07 1.079.048.233.135.479.265.743h-1.452a4.858 4.858 0 0 1-.141-.433c-.024-.086-.039-.144-.052-.173-.249.243-.52.427-.802.548a2.296 2.296 0 0 1-.915.181c-.569 0-1.018-.154-1.349-.464-.328-.311-.491-.701-.491-1.174 0-.313.074-.593.224-.839.15-.244.359-.433.63-.563.27-.13.658-.245 1.166-.343.687-.13 1.161-.248 1.424-.359v-.147c0-.282-.071-.484-.21-.603-.139-.12-.402-.18-.788-.18-.261 0-.464.052-.611.154-.147.104-.265.282-.356.541zm1.964 1.19a9.479 9.479 0 0 1-.894.226c-.407.086-.674.173-.801.256-.189.135-.285.308-.285.517 0 .205.075.383.229.534a.805.805 0 0 0 .588.224c.264 0 .517-.086.753-.261a.896.896 0 0 0 .351-.486c.038-.126.059-.364.059-.714v-.296zM307.903-25.252v1.168h-1.002v2.234c0 .452.01.717.025.792a.325.325 0 0 0 .131.184c.068.05.15.074.247.074.135 0 .334-.047.591-.14l.125 1.138c-.34.146-.727.218-1.159.218-.265 0-.504-.043-.716-.132a1.04 1.04 0 0 1-.466-.343c-.101-.141-.168-.332-.206-.571-.029-.171-.047-.515-.047-1.033v-2.417h-.674v-1.172h.674v-1.102l1.475-.855v1.957h1.002zM312.132-21.473l1.462.244c-.188.537-.485.944-.891 1.225-.405.281-.913.42-1.524.42-.962 0-1.677-.314-2.14-.944-.366-.504-.549-1.141-.549-1.911 0-.918.24-1.639.722-2.159.482-.52 1.087-.78 1.822-.78.825 0 1.476.273 1.95.816.479.544.705 1.378.687 2.503h-3.676c.012.435.129.773.354 1.015.228.241.508.362.848.362a.899.899 0 0 0 .579-.188c.157-.122.275-.324.356-.603zm.082-1.482c-.01-.426-.12-.749-.329-.969a1.015 1.015 0 0 0-.762-.331c-.32 0-.586.117-.793.348-.21.233-.313.549-.309.952h2.193zM319.952-19.708h-1.363v-.813c-.228.316-.492.552-.803.707s-.619.233-.933.233c-.637 0-1.181-.256-1.636-.771-.452-.512-.682-1.229-.682-2.148 0-.938.225-1.654.663-2.142.441-.49 1-.734 1.679-.734.616 0 1.156.257 1.607.772v-2.756h1.467v7.652h.001zm-3.916-2.893c0 .592.083 1.019.246 1.283.236.383.566.574.992.574.337 0 .625-.143.861-.431.234-.286.355-.717.355-1.287 0-.638-.118-1.097-.346-1.375a1.083 1.083 0 0 0-.882-.419c-.348 0-.64.137-.874.415-.236.276-.352.69-.352 1.24zM323.726-25.252h.814v-.417c0-.466.049-.815.146-1.045.1-.229.285-.416.548-.561.267-.144.603-.218 1.011-.218.417 0 .824.064 1.224.188l-.198 1.022a2.848 2.848 0 0 0-.673-.083c-.212 0-.363.05-.455.149s-.138.289-.138.571v.393h1.096v1.155h-1.096v4.389h-1.468v-4.389h-.813l.002-1.154zM331.14-21.473l1.463.244c-.187.537-.487.944-.892 1.225-.405.281-.911.42-1.523.42-.963 0-1.679-.314-2.142-.944-.365-.504-.546-1.141-.546-1.911 0-.918.238-1.639.721-2.159.48-.52 1.087-.78 1.821-.78.825 0 1.477.273 1.953.816.477.544.702 1.378.684 2.503h-3.675c.011.435.129.773.355 1.015.226.241.505.362.844.362.23 0 .425-.063.581-.188.156-.122.275-.324.356-.603zm.083-1.482c-.013-.426-.123-.749-.331-.969a1.01 1.01 0 0 0-.76-.331c-.324 0-.588.117-.797.348-.208.233-.312.549-.307.952h2.195zM334.971-23.561l-1.329-.239c.149-.538.406-.933.771-1.19.366-.257.907-.387 1.629-.387.655 0 1.142.078 1.463.233.321.154.544.352.676.59s.196.676.196 1.313l-.016 1.712c0 .489.022.848.07 1.079.047.233.134.479.263.743h-1.45a4.923 4.923 0 0 1-.14-.433c-.026-.086-.041-.144-.054-.173-.25.243-.519.427-.803.548a2.276 2.276 0 0 1-.913.181c-.571 0-1.02-.154-1.35-.464-.329-.311-.491-.701-.491-1.174 0-.313.073-.593.223-.839.15-.244.36-.433.63-.563.271-.13.659-.245 1.167-.343.686-.13 1.16-.248 1.424-.359v-.147c0-.282-.07-.484-.21-.603-.139-.118-.4-.18-.787-.18-.263 0-.465.052-.612.154-.148.104-.265.282-.357.541zm1.964 1.19a9.397 9.397 0 0 1-.894.226c-.406.086-.673.173-.8.256-.19.135-.286.308-.286.517a.73.73 0 0 0 .23.534.804.804 0 0 0 .587.224c.264 0 .517-.086.755-.261a.897.897 0 0 0 .349-.486c.038-.126.059-.364.059-.714v-.296zM342.365-25.252v1.168h-1.003v2.234c0 .452.01.717.025.792a.335.335 0 0 0 .131.184c.068.05.152.074.246.074.137 0 .335-.047.593-.14l.126 1.138a2.92 2.92 0 0 1-1.16.218c-.266 0-.503-.043-.715-.132a1.032 1.032 0 0 1-.467-.343 1.348 1.348 0 0 1-.207-.571c-.028-.171-.047-.515-.047-1.033v-2.417h-.673v-1.172h.673v-1.102l1.475-.855v1.957h1.003zM347.031-19.708v-.83c-.2.296-.467.53-.796.699a2.23 2.23 0 0 1-1.042.256 2.04 2.04 0 0 1-1.003-.244 1.454 1.454 0 0 1-.644-.69c-.133-.296-.199-.704-.199-1.227v-3.509h1.469v2.548c0 .78.025 1.256.08 1.433a.772.772 0 0 0 .295.417.91.91 0 0 0 .543.154c.25 0 .477-.069.674-.206.198-.137.337-.309.407-.512.074-.204.11-.701.11-1.497v-2.337h1.469v5.544h-1.363zM351.318-19.708h-1.468v-5.544h1.362v.789c.234-.373.444-.617.63-.736a1.15 1.15 0 0 1 .635-.178c.336 0 .655.092.965.276l-.454 1.278c-.245-.159-.477-.239-.688-.239a.807.807 0 0 0-.522.171c-.144.113-.255.318-.336.613-.08.296-.123.916-.123 1.859v1.711zM357.284-21.473l1.463.244c-.188.537-.487.944-.892 1.225-.403.281-.91.42-1.523.42-.963 0-1.678-.314-2.139-.944-.368-.504-.549-1.141-.549-1.911 0-.918.239-1.639.721-2.159.48-.52 1.087-.78 1.821-.78.825 0 1.477.273 1.952.816.478.544.704 1.378.684 2.503h-3.674c.011.435.13.773.354 1.015.228.241.508.362.845.362a.897.897 0 0 0 .581-.188c.158-.122.275-.324.356-.603zm.084-1.482c-.011-.426-.12-.749-.33-.969a1.006 1.006 0 0 0-.762-.331c-.32 0-.584.117-.793.348-.21.233-.313.549-.308.952h2.193zM359.503-21.291l1.475-.223c.063.284.189.501.381.649s.46.222.804.222c.38 0 .665-.07.854-.208a.463.463 0 0 0 .193-.391.39.39 0 0 0-.105-.278c-.073-.069-.236-.133-.491-.191-1.184-.261-1.935-.499-2.251-.716a1.426 1.426 0 0 1-.658-1.247c0-.48.19-.884.57-1.213.382-.327.966-.491 1.765-.491.758 0 1.32.124 1.69.37.37.247.622.614.763 1.098l-1.384.256a.852.852 0 0 0-.336-.495c-.166-.115-.4-.173-.706-.173-.387 0-.662.053-.829.162a.35.35 0 0 0-.169.298c0 .104.049.193.146.265.132.097.591.234 1.37.413.783.178 1.326.394 1.637.651.306.261.46.625.46 1.09 0 .508-.214.946-.639 1.311-.424.365-1.053.547-1.886.547-.756 0-1.354-.153-1.793-.459a2.124 2.124 0 0 1-.861-1.247z"/><path fill="none" stroke="#000" stroke-width=".432" d="M263.584-18.469H365.85"/><g><path d="M-39 39.272l.957-.083c.045.383.15.698.315.942.165.246.422.442.77.595.346.152.74.228 1.173.228.388 0 .727-.057 1.023-.173.296-.115.517-.273.661-.473.144-.2.216-.417.216-.653 0-.24-.069-.45-.208-.63-.14-.181-.369-.329-.689-.45-.206-.08-.66-.205-1.364-.375-.701-.168-1.196-.327-1.476-.478-.365-.19-.638-.43-.817-.713-.18-.285-.268-.6-.268-.952 0-.387.109-.748.329-1.083.221-.336.542-.592.96-.765a3.624 3.624 0 0 1 1.404-.261c.568 0 1.067.091 1.5.275.433.182.767.451 1 .805.234.355.359.756.377 1.206l-.972.074c-.052-.483-.23-.851-.529-1.097-.302-.248-.748-.37-1.334-.37-.612 0-1.061.111-1.34.337-.283.225-.42.495-.42.812 0 .276.1.5.295.678s.705.36 1.527.545c.823.186 1.387.35 1.694.488.442.207.775.466.986.781.212.314.318.679.318 1.088s-.116.792-.349 1.152c-.232.36-.569.642-1.005.84-.439.2-.929.301-1.476.301-.693 0-1.271-.102-1.739-.303a2.432 2.432 0 0 1-1.104-.91A2.648 2.648 0 0 1-39 39.272zM-31.644 41.73v-7.654h.941v2.746c.438-.508.991-.76 1.659-.76.411 0 .765.08 1.067.241.303.161.519.386.65.671.128.285.197.698.197 1.242v3.514h-.938v-3.514c0-.469-.101-.812-.305-1.026-.204-.213-.492-.32-.865-.32a1.53 1.53 0 0 0-.786.216c-.245.145-.42.341-.524.588-.104.248-.157.587-.157 1.023v3.032l-.939.001zM-26.047 38.957c0-1.027.284-1.786.854-2.282.477-.41 1.06-.615 1.744-.615.759 0 1.385.249 1.869.75.482.499.725 1.19.725 2.07 0 .713-.106 1.273-.32 1.682a2.277 2.277 0 0 1-.935.955 2.721 2.721 0 0 1-1.339.338c-.776 0-1.403-.249-1.885-.747-.474-.497-.713-1.214-.713-2.151zm.965 0c0 .709.155 1.242.464 1.594.311.354.7.531 1.17.531.466 0 .854-.178 1.165-.534.309-.355.464-.896.464-1.624 0-.687-.157-1.206-.467-1.559a1.488 1.488 0 0 0-1.161-.53c-.47 0-.86.177-1.17.528-.311.355-.465.885-.465 1.594zM-19.762 41.73v-5.543h.845v.84c.218-.393.415-.651.598-.777.181-.126.383-.187.603-.187.317 0 .638.101.964.302l-.324.872a1.355 1.355 0 0 0-.689-.204.893.893 0 0 0-.553.186c-.164.124-.28.295-.35.513a3.678 3.678 0 0 0-.157 1.098v2.902l-.937-.002zM-14.14 40.888l.135.83c-.265.057-.5.083-.708.083-.341 0-.605-.055-.795-.163a.884.884 0 0 1-.394-.426c-.078-.176-.118-.544-.118-1.109v-3.189h-.689v-.73h.689v-1.373l.935-.563v1.937h.946v.73h-.946v3.241c0 .268.018.439.05.518a.394.394 0 0 0 .161.182.628.628 0 0 0 .323.069c.103.001.24-.013.411-.037zM-10.25 43.854v-7.669h.854v.719c.201-.283.432-.492.685-.634.252-.14.561-.211.922-.211.475 0 .893.121 1.255.365.362.243.635.588.817 1.031.184.442.279.929.279 1.459a3.7 3.7 0 0 1-.306 1.532c-.204.455-.5.803-.887 1.045a2.292 2.292 0 0 1-1.225.363c-.313 0-.594-.067-.843-.199a1.897 1.897 0 0 1-.613-.5v2.699h-.938zm.85-4.865c0 .714.145 1.241.436 1.58.286.341.638.512 1.049.512.417 0 .775-.177 1.074-.531.296-.352.444-.9.444-1.641 0-.706-.146-1.236-.436-1.586-.291-.352-.637-.529-1.041-.529-.401 0-.756.187-1.063.562-.309.375-.463.919-.463 1.633zM-.686 41.046c-.348.296-.686.505-1.007.627a2.92 2.92 0 0 1-1.036.182c-.609 0-1.077-.149-1.404-.445-.327-.297-.49-.678-.49-1.142a1.54 1.54 0 0 1 .671-1.284 2.25 2.25 0 0 1 .675-.309c.182-.049.463-.096.836-.141.755-.089 1.317-.197 1.675-.324l.005-.245c0-.382-.087-.651-.267-.809-.24-.212-.594-.318-1.071-.318-.439 0-.765.076-.979.233-.21.155-.367.429-.467.822l-.917-.126c.081-.393.221-.711.412-.955.189-.241.468-.428.83-.559a3.72 3.72 0 0 1 1.258-.194c.473 0 .857.056 1.153.167.296.113.513.252.652.419.14.17.234.383.292.641.029.16.045.45.045.867v1.252c0 .875.021 1.426.063 1.658.038.233.119.454.235.666h-.982a2.079 2.079 0 0 1-.182-.683zm-.079-2.099c-.338.14-.853.258-1.535.355-.386.056-.657.119-.817.187a.833.833 0 0 0-.373.306.816.816 0 0 0-.128.445c0 .251.095.459.284.627s.468.25.834.25c.363 0 .684-.078.963-.237.285-.158.491-.375.621-.649.102-.212.151-.525.151-.94v-.344zM1.621 41.73v-7.654h.94v7.654h-.94zM4.017 43.854v-7.669h.854v.719c.203-.283.429-.492.684-.634.254-.143.563-.211.924-.211.473 0 .891.121 1.253.365.363.243.638.588.82 1.031.185.442.279.929.279 1.459a3.7 3.7 0 0 1-.306 1.532c-.204.455-.5.803-.887 1.045a2.294 2.294 0 0 1-1.225.363 1.77 1.77 0 0 1-.843-.199 1.911 1.911 0 0 1-.614-.5v2.699h-.939zm.85-4.865c0 .714.145 1.241.433 1.58.289.341.641.512 1.052.512.417 0 .775-.177 1.071-.531.298-.352.446-.9.446-1.641 0-.706-.146-1.236-.436-1.586-.291-.352-.639-.529-1.044-.529-.398 0-.752.187-1.06.562-.307.375-.462.919-.462 1.633zM13.759 39.945l.971.12c-.154.566-.439 1.008-.854 1.318-.414.314-.942.471-1.588.471-.809 0-1.453-.25-1.928-.75-.474-.5-.713-1.201-.713-2.102 0-.933.24-1.657.721-2.172.482-.515 1.105-.771 1.869-.771.744 0 1.346.251 1.819.755.471.503.704 1.215.704 2.13 0 .056-.002.14-.005.251h-4.136c.035.61.208 1.076.518 1.399.31.323.699.487 1.161.487.343 0 .638-.091.881-.273.243-.178.437-.468.58-.863zm-3.085-1.52h3.096c-.042-.467-.16-.817-.355-1.049a1.443 1.443 0 0 0-1.164-.544c-.433 0-.797.145-1.088.434-.296.288-.459.675-.489 1.159zM16.775 41.73h-.872v-7.654h.94v2.73c.396-.497.906-.747 1.521-.747.338 0 .665.068.966.206.305.137.556.33.752.579.197.25.351.548.462.901.11.351.166.727.166 1.127 0 .951-.233 1.684-.702 2.203-.472.518-1.033.778-1.692.778-.655 0-1.168-.274-1.541-.82v.697zm-.01-2.815c0 .666.091 1.145.271 1.442.296.485.698.725 1.201.725.41 0 .765-.178 1.064-.536.3-.356.449-.888.449-1.595 0-.724-.144-1.258-.433-1.604-.285-.343-.634-.517-1.042-.517-.41 0-.765.181-1.063.536-.297.359-.447.874-.447 1.549zM21.845 41.73v-5.543h.845v.84c.218-.393.415-.651.598-.777.181-.126.383-.187.603-.187.316 0 .638.101.964.302l-.324.872a1.35 1.35 0 0 0-.689-.204.893.893 0 0 0-.553.186c-.164.124-.28.295-.351.513a3.679 3.679 0 0 0-.156 1.098v2.902l-.937-.002zM29.033 41.046c-.348.296-.683.505-1.004.627a2.932 2.932 0 0 1-1.036.182c-.609 0-1.077-.149-1.407-.445-.326-.297-.49-.678-.49-1.142a1.54 1.54 0 0 1 .67-1.284c.2-.137.426-.239.676-.309.184-.049.463-.096.835-.141.758-.089 1.32-.197 1.675-.324.005-.128.007-.209.007-.245 0-.382-.089-.651-.269-.809-.238-.212-.594-.318-1.067-.318-.442 0-.769.076-.98.233-.21.155-.365.429-.467.822l-.919-.126c.084-.393.221-.711.413-.955.191-.241.468-.428.83-.559.362-.13.781-.194 1.257-.194.473 0 .857.056 1.156.167.294.113.513.252.65.419.14.17.238.383.292.641.029.16.047.45.047.867v1.252c0 .875.02 1.426.06 1.658.04.233.119.454.238.666h-.982a2.054 2.054 0 0 1-.185-.683zm-.079-2.099c-.338.14-.853.258-1.533.355-.388.056-.66.119-.82.187a.802.802 0 0 0-.502.751c0 .251.095.459.285.627.188.167.467.25.832.25.362 0 .684-.078.966-.237.281-.158.489-.375.621-.649.098-.212.149-.525.149-.94l.002-.344zM31.341 41.73v-7.654h.939v7.654h-.939zM36.932 41.73v-4.813h-.83v-.73h.83v-.591c0-.374.03-.647.1-.83a1.18 1.18 0 0 1 .478-.593c.227-.152.544-.228.957-.228.264 0 .557.03.877.094l-.138.819a3.26 3.26 0 0 0-.555-.052c-.286 0-.49.062-.606.182-.118.122-.177.349-.177.684v.512h1.082v.73h-1.082v4.813h-.935v.003zM39.683 35.157v-1.082h.94v1.082h-.94zm0 6.573v-5.543h.94v5.543h-.94zM41.677 40.074l.929-.146c.052.374.198.657.438.855.236.198.571.297 1 .297.432 0 .752-.086.96-.263.208-.176.313-.383.313-.619a.567.567 0 0 0-.278-.501c-.128-.083-.448-.189-.958-.318-.691-.175-1.167-.326-1.434-.451a1.388 1.388 0 0 1-.605-.527 1.414 1.414 0 0 1-.206-.745c0-.247.056-.476.172-.687.113-.21.267-.386.462-.524.145-.108.343-.2.596-.275.252-.075.522-.112.813-.112.434 0 .817.062 1.145.187.329.126.571.296.728.509s.264.5.324.857l-.917.126a1.018 1.018 0 0 0-.362-.668c-.2-.16-.485-.24-.85-.24-.432 0-.74.072-.924.215-.183.142-.277.311-.277.501 0 .122.039.232.115.33a.848.848 0 0 0 .36.251c.095.034.371.115.83.239.665.178 1.129.322 1.391.438.262.113.468.278.619.493.15.214.224.484.224.803 0 .313-.089.608-.274.884a1.768 1.768 0 0 1-.791.643 2.877 2.877 0 0 1-1.17.228c-.721 0-1.268-.149-1.647-.447-.38-.298-.622-.743-.726-1.333zM47.023 40.074l.93-.146c.052.374.195.657.435.855.24.198.571.297 1 .297.434 0 .752-.086.96-.263.209-.176.313-.383.313-.619a.57.57 0 0 0-.275-.501c-.129-.083-.45-.189-.96-.318-.689-.175-1.164-.326-1.434-.451a1.371 1.371 0 0 1-.81-1.272c0-.247.056-.476.17-.687.113-.21.267-.386.462-.524.146-.108.345-.2.595-.275.252-.075.525-.112.813-.112a3.2 3.2 0 0 1 1.145.187c.331.126.571.296.728.509.157.213.265.5.327.857l-.919.126c-.042-.285-.163-.508-.363-.668s-.485-.24-.85-.24c-.432 0-.74.072-.922.215-.186.142-.279.311-.279.501a.53.53 0 0 0 .114.33.854.854 0 0 0 .36.251c.095.034.374.115.83.239.665.178 1.129.322 1.391.438.262.113.468.278.619.493.15.214.227.484.227.803 0 .313-.092.608-.276.884a1.752 1.752 0 0 1-.791.643 2.877 2.877 0 0 1-1.17.228c-.721 0-1.268-.149-1.645-.447-.381-.298-.619-.743-.725-1.333zM56.378 41.73v-.815c-.432.627-1.017.94-1.76.94-.327 0-.633-.063-.915-.188-.285-.127-.495-.284-.634-.472a1.788 1.788 0 0 1-.288-.699c-.039-.183-.057-.477-.057-.876v-3.435h.939v3.075c0 .492.019.822.057.993.06.246.185.44.376.582.193.142.431.211.711.211s.547-.071.793-.216c.248-.144.425-.341.526-.59.101-.249.153-.609.153-1.083v-2.97h.942v5.543h-.843zM58.679 41.73v-5.543h.845v.84c.216-.393.415-.651.598-.777a1.03 1.03 0 0 1 .6-.187c.319 0 .641.101.967.302l-.324.872a1.361 1.361 0 0 0-.691-.204.89.89 0 0 0-.552.186.997.997 0 0 0-.351.513 3.679 3.679 0 0 0-.156 1.098v2.902l-.936-.002zM66.046 39.945l.972.12c-.154.566-.437 1.008-.851 1.318-.414.314-.946.471-1.587.471-.812 0-1.453-.25-1.928-.75-.478-.5-.713-1.201-.713-2.102 0-.933.238-1.657.721-2.172.48-.515 1.102-.771 1.868-.771.741 0 1.347.251 1.817.755.469.503.705 1.215.705 2.13 0 .056-.001.14-.007.251H62.91c.033.61.208 1.076.517 1.399.311.323.696.487 1.159.487.345 0 .638-.091.882-.273.242-.178.434-.468.578-.863zm-3.084-1.52h3.094c-.04-.467-.16-.817-.353-1.049a1.447 1.447 0 0 0-1.166-.544 1.49 1.49 0 0 0-1.088.434c-.295.288-.457.675-.487 1.159zM67.822 40.074l.93-.146c.052.374.195.657.436.855s.571.297 1 .297c.433 0 .752-.086.96-.263.208-.176.313-.383.313-.619a.569.569 0 0 0-.276-.501c-.13-.083-.45-.189-.961-.318-.688-.175-1.167-.326-1.433-.451a1.366 1.366 0 0 1-.603-.527 1.397 1.397 0 0 1-.208-.745c0-.247.057-.476.17-.687.113-.21.267-.386.462-.524.147-.108.343-.2.596-.275s.522-.112.812-.112c.435 0 .817.062 1.146.187.331.126.571.296.728.509.157.213.265.5.323.857l-.917.126a1.003 1.003 0 0 0-.363-.668c-.2-.16-.485-.24-.85-.24-.431 0-.738.072-.924.215-.184.142-.277.311-.277.501 0 .122.039.232.115.33a.848.848 0 0 0 .36.251c.095.034.371.115.83.239.665.178 1.129.322 1.392.438.262.113.468.278.619.493.15.214.227.484.227.803 0 .313-.091.608-.277.884a1.765 1.765 0 0 1-.791.643 2.87 2.87 0 0 1-1.17.228c-.721 0-1.268-.149-1.647-.447-.379-.298-.618-.743-.722-1.333z"/></g><g><path d="M-36.451 86.902v-7.653h5.162v.903h-4.149v2.369h3.591v.905h-3.591v3.479l-1.013-.003zM-30.114 86.902v-7.653h.939v7.653h-.939zM-24.099 86.218c-.348.296-.683.504-1.004.627s-.667.181-1.036.181c-.609 0-1.077-.146-1.404-.445-.329-.297-.493-.678-.493-1.142 0-.27.062-.519.186-.745.123-.224.284-.404.485-.54.2-.136.424-.239.675-.308a6.47 6.47 0 0 1 .834-.141c.758-.091 1.32-.199 1.677-.324l.005-.246c0-.383-.09-.651-.266-.808-.24-.212-.598-.319-1.071-.319-.443 0-.769.078-.979.233-.211.154-.367.428-.467.821l-.919-.127c.084-.392.224-.708.413-.952.191-.244.468-.429.83-.559a3.772 3.772 0 0 1 1.26-.195c.473 0 .855.057 1.153.168.298.112.513.251.65.421.14.168.238.382.293.639.032.161.047.448.047.867v1.253c0 .875.02 1.425.06 1.658s.119.454.238.666h-.981a1.985 1.985 0 0 1-.186-.683zm-.078-2.1c-.341.141-.855.259-1.536.355-.386.056-.66.119-.82.187a.8.8 0 0 0-.502.751.8.8 0 0 0 .285.626c.19.168.467.251.832.251.363 0 .684-.079.967-.236.281-.158.489-.376.621-.649.101-.212.151-.525.151-.939l.002-.346zM-19.72 86.061l.133.83a3.37 3.37 0 0 1-.708.083c-.341 0-.605-.055-.796-.162a.902.902 0 0 1-.396-.426c-.077-.178-.116-.545-.116-1.111v-3.188h-.689v-.732h.689v-1.372l.937-.562v1.937h.945v.731h-.945v3.24c0 .268.016.439.049.517a.375.375 0 0 0 .162.182.625.625 0 0 0 .321.069c.106.002.244-.013.414-.036zM-15.83 86.902v-5.546h.84v.78c.176-.273.406-.492.697-.655.286-.166.618-.248.986-.248.411 0 .747.085 1.008.255.261.171.449.409.557.715.438-.646 1.008-.97 1.711-.97.55 0 .974.152 1.27.455.293.306.441.775.441 1.408v3.806h-.934V83.41c0-.377-.029-.647-.092-.812a.779.779 0 0 0-.331-.397 1.026 1.026 0 0 0-.564-.152c-.387 0-.713.13-.972.388s-.386.675-.386 1.246v3.222h-.94v-3.601c0-.418-.078-.732-.231-.941-.154-.208-.404-.313-.75-.313a1.4 1.4 0 0 0-.736.207 1.193 1.193 0 0 0-.487.613c-.102.268-.152.652-.152 1.159v2.875l-.935-.002zM-6.919 80.328v-1.079h.94v1.079h-.94zm0 6.574v-5.546h.94v5.546h-.94zM-.951 86.902v-.699c-.352.549-.869.825-1.55.825-.442 0-.85-.124-1.22-.367a2.393 2.393 0 0 1-.861-1.019c-.204-.437-.306-.938-.306-1.506 0-.552.092-1.056.279-1.505a2.17 2.17 0 0 1 .83-1.038 2.227 2.227 0 0 1 1.237-.359 1.855 1.855 0 0 1 1.53.76v-2.745h.935v7.653h-.874zm-2.971-2.767c0 .709.149 1.242.449 1.591.299.352.65.529 1.06.529.411 0 .76-.17 1.049-.503.285-.337.431-.85.431-1.538 0-.757-.146-1.315-.44-1.67-.29-.354-.65-.533-1.078-.533-.419 0-.768.171-1.049.51-.282.341-.422.879-.422 1.614zM1.622 86.902v-4.814h-.83v-.732h.83v-.589c0-.374.033-.647.099-.831a1.22 1.22 0 0 1 .478-.593c.229-.151.547-.228.958-.228.265 0 .557.03.877.092l-.141.82a3.239 3.239 0 0 0-.554-.052c-.284 0-.488.061-.604.182-.12.124-.18.349-.18.685v.511h1.082v.732H2.556v4.814h-.934v.003zM7.986 86.218c-.345.296-.683.504-1.004.627s-.668.181-1.036.181c-.609 0-1.077-.146-1.405-.445-.329-.297-.492-.678-.492-1.142 0-.27.062-.519.186-.745.123-.224.284-.404.485-.54.2-.136.426-.239.676-.308.184-.05.463-.096.835-.141.758-.091 1.32-.199 1.677-.324l.005-.246c0-.383-.089-.651-.267-.808-.24-.212-.597-.319-1.071-.319-.441 0-.768.078-.979.233-.21.154-.366.428-.467.821l-.919-.126c.084-.392.223-.708.413-.952.191-.243.468-.429.83-.559a3.768 3.768 0 0 1 1.26-.195c.473 0 .855.057 1.154.168.296.112.513.251.65.421.14.168.236.382.292.639.032.161.047.448.047.867v1.253c0 .875.02 1.425.061 1.658.04.233.121.454.237.666h-.983a2.092 2.092 0 0 1-.185-.684zm-.078-2.1c-.341.141-.855.259-1.535.355-.386.056-.66.119-.82.187a.798.798 0 0 0-.5.751c0 .251.092.458.284.626.189.168.467.251.832.251.362 0 .684-.079.965-.236.282-.158.489-.376.621-.649.102-.212.152-.525.152-.939l.001-.346zM13.932 84.87l.924.122c-.102.639-.359 1.135-.775 1.496-.416.361-.926.542-1.533.542-.757 0-1.368-.249-1.83-.746-.461-.495-.691-1.207-.691-2.133 0-.597.099-1.121.294-1.572.199-.449.501-.786.906-1.009a2.69 2.69 0 0 1 1.322-.336c.603 0 1.097.152 1.478.455.382.306.627.74.736 1.298l-.912.141c-.087-.371-.241-.651-.462-.842a1.21 1.21 0 0 0-.803-.283c-.473 0-.855.171-1.153.508-.296.338-.444.877-.444 1.612 0 .746.144 1.286.431 1.624.284.336.655.507 1.115.507.369 0 .677-.115.924-.338.25-.226.406-.575.473-1.046zM19.455 85.117l.972.119c-.154.567-.439 1.008-.853 1.319-.414.314-.944.472-1.585.472-.811 0-1.455-.25-1.931-.75s-.713-1.201-.713-2.101c0-.933.24-1.657.72-2.172.483-.513 1.105-.771 1.87-.771.741 0 1.348.251 1.817.756.469.503.702 1.216.702 2.129 0 .056-.001.141-.005.251h-4.136c.035.607.208 1.074.517 1.399.31.324.699.486 1.162.486.342 0 .638-.091.882-.273.245-.179.438-.468.581-.864zm-3.085-1.521h3.097c-.042-.467-.16-.816-.355-1.049a1.436 1.436 0 0 0-1.165-.544 1.48 1.48 0 0 0-1.088.434c-.294.289-.457.676-.489 1.159z"/></g><g><path d="M-36.849 114.197l.956-.081c.045.382.15.696.315.941.167.245.425.442.771.596.348.151.741.228 1.175.228.385 0 .726-.057 1.023-.173.293-.114.517-.273.661-.474.142-.198.216-.418.216-.652 0-.241-.072-.45-.208-.631-.14-.181-.369-.332-.691-.451-.206-.078-.657-.203-1.362-.374-.703-.168-1.194-.329-1.477-.478-.365-.192-.638-.43-.815-.713a1.721 1.721 0 0 1-.268-.953c0-.387.109-.747.329-1.084.22-.336.539-.59.958-.763a3.647 3.647 0 0 1 1.407-.261c.567 0 1.064.089 1.5.274.433.183.764.45 1 .806.233.354.358.755.375 1.206l-.971.073c-.052-.484-.228-.85-.529-1.096-.302-.246-.746-.373-1.334-.373-.613 0-1.059.114-1.34.338-.28.224-.42.494-.42.81 0 .275.1.501.297.68.195.18.705.358 1.527.544.821.185 1.385.348 1.692.49.446.205.775.466.987.78.212.313.32.677.32 1.088 0 .407-.119.793-.351 1.153a2.326 2.326 0 0 1-1.007.84c-.437.2-.929.3-1.475.3-.695 0-1.273-.101-1.742-.303a2.43 2.43 0 0 1-1.101-.91 2.621 2.621 0 0 1-.418-1.377zM-29.493 116.655v-7.653h.94v2.746c.44-.507.992-.761 1.659-.761.411 0 .768.08 1.071.241.303.163.519.387.648.671.131.285.196.698.196 1.243v3.513h-.939v-3.513c0-.471-.102-.813-.305-1.027-.204-.212-.491-.32-.865-.32-.278 0-.54.074-.786.217a1.226 1.226 0 0 0-.524.589c-.104.246-.156.589-.156 1.022v3.032h-.939zM-23.896 113.885c0-1.027.285-1.786.856-2.282.477-.411 1.058-.615 1.741-.615.762 0 1.385.247 1.868.75.486.497.725 1.189.725 2.068 0 .712-.107 1.275-.32 1.684a2.278 2.278 0 0 1-.935.953 2.707 2.707 0 0 1-1.339.337c-.776 0-1.403-.248-1.882-.747-.477-.498-.714-1.212-.714-2.148zm.966 0c0 .708.155 1.242.465 1.594.309.353.697.531 1.167.531.466 0 .855-.18 1.166-.535.31-.354.465-.897.465-1.624 0-.685-.157-1.205-.467-1.559a1.494 1.494 0 0 0-1.164-.531c-.469 0-.857.178-1.167.529-.311.35-.465.883-.465 1.595zM-17.61 116.655v-5.546h.845v.842c.216-.392.415-.651.596-.777.183-.127.386-.187.603-.187.317 0 .639.1.967.302l-.324.872a1.35 1.35 0 0 0-.691-.203.901.901 0 0 0-.551.183.99.99 0 0 0-.351.516 3.658 3.658 0 0 0-.156 1.097v2.902h-.938v-.001zM-11.988 115.814l.137.831a3.387 3.387 0 0 1-.71.082c-.338 0-.605-.055-.793-.161a.91.91 0 0 1-.396-.426c-.076-.179-.115-.546-.115-1.111v-3.188h-.689v-.732h.689v-1.371l.934-.564v1.938h.945v.732h-.945v3.24c0 .269.016.439.05.517a.387.387 0 0 0 .161.181c.078.047.182.07.32.07.104.001.242-.013.412-.038zM-8.1 116.655v-5.546h.848v.79c.408-.609.995-.912 1.765-.912.333 0 .642.06.922.181.28.12.49.277.629.473.14.193.234.426.29.695.035.175.052.479.052.913v3.408h-.938v-3.373c0-.384-.035-.668-.109-.858a.916.916 0 0 0-.387-.452 1.233 1.233 0 0 0-.656-.17c-.4 0-.746.127-1.036.381-.291.255-.436.737-.436 1.446v3.027H-8.1v-.003zM-2.502 113.885c0-1.027.284-1.786.854-2.282.477-.411 1.06-.615 1.744-.615.76 0 1.385.247 1.868.75.484.497.725 1.189.725 2.068 0 .712-.106 1.275-.32 1.684a2.284 2.284 0 0 1-.935.953 2.71 2.71 0 0 1-1.339.337c-.776 0-1.403-.248-1.885-.747-.476-.498-.712-1.212-.712-2.148zm.966 0c0 .708.155 1.242.464 1.594.309.353.7.531 1.17.531.466 0 .854-.18 1.164-.535.31-.354.465-.897.465-1.624 0-.685-.155-1.205-.467-1.559a1.49 1.49 0 0 0-1.161-.531c-.469 0-.86.178-1.17.529-.31.35-.465.883-.465 1.595zM3.418 115.001l.929-.147c.052.373.198.659.436.856.239.198.571.297 1.001.297.432 0 .75-.088.958-.266.209-.174.313-.381.313-.618a.569.569 0 0 0-.275-.5c-.129-.082-.45-.188-.96-.318-.689-.175-1.164-.325-1.431-.45a1.385 1.385 0 0 1-.605-.529 1.395 1.395 0 0 1-.206-.744c0-.246.056-.476.169-.687.114-.211.267-.387.462-.525.146-.107.346-.198.598-.273a2.73 2.73 0 0 1 .81-.114c.437 0 .818.063 1.147.188.329.125.571.294.728.507.157.216.265.501.324.857l-.919.127a1.002 1.002 0 0 0-.363-.666c-.2-.161-.482-.24-.848-.24-.434 0-.742.072-.924.215-.186.142-.276.309-.276.501 0 .122.037.232.114.329.077.1.198.184.36.249.095.035.371.116.83.241.665.178 1.129.323 1.391.435.262.115.468.28.619.495.15.214.224.482.224.801 0 .315-.092.609-.274.887a1.777 1.777 0 0 1-.793.644 2.88 2.88 0 0 1-1.168.228c-.721 0-1.27-.149-1.647-.447-.378-.302-.619-.745-.724-1.333zM12.934 114.871l.971.12c-.154.567-.439 1.008-.853 1.319s-.943.471-1.585.471c-.812 0-1.456-.249-1.932-.75-.474-.499-.712-1.2-.712-2.101 0-.934.24-1.658.72-2.172.483-.516 1.106-.771 1.872-.771.741 0 1.347.251 1.817.756.469.503.703 1.215.703 2.13 0 .056-.001.139-.005.251H9.797c.035.607.208 1.074.517 1.398a1.55 1.55 0 0 0 1.162.487c.342 0 .638-.091.882-.273.24-.182.433-.469.576-.865zm-3.085-1.52h3.096c-.042-.468-.16-.816-.355-1.051a1.442 1.442 0 0 0-1.164-.545c-.435 0-.797.145-1.088.435-.294.29-.458.677-.489 1.161z"/></g><g><path d="M-36.331 148.965v-7.652h1.01v7.652h-1.01zM-33.653 148.965v-5.544h.846v.789c.407-.608.994-.913 1.765-.913.333 0 .64.061.921.181.28.121.49.279.628.475.14.192.238.426.293.693.033.176.052.48.052.915v3.406h-.939v-3.371c0-.385-.036-.67-.11-.859a.923.923 0 0 0-.387-.453 1.239 1.239 0 0 0-.655-.17c-.399 0-.746.129-1.037.382-.289.254-.436.736-.436 1.447v3.028h-.942v-.006zM-24.111 148.965v-.699c-.352.551-.868.825-1.551.825-.442 0-.848-.123-1.219-.365a2.374 2.374 0 0 1-.858-1.019c-.204-.438-.306-.938-.306-1.507 0-.554.092-1.056.275-1.507.184-.449.462-.797.83-1.036.369-.239.781-.36 1.238-.36a1.857 1.857 0 0 1 1.532.762v-2.746h.934v7.652h-.875zm-2.968-2.767c0 .709.146 1.239.446 1.591.299.352.652.527 1.061.527.411 0 .757-.168 1.047-.502.288-.336.431-.85.431-1.539 0-.757-.147-1.314-.438-1.67-.292-.354-.654-.533-1.081-.533-.417 0-.767.171-1.047.512-.281.342-.419.879-.419 1.614zM-21.756 142.392v-1.08h.942v1.08h-.942zm0 6.573v-5.544h.942v5.544h-.942zM-19.761 147.31l.93-.146c.052.372.198.657.435.854.239.199.571.297 1.002.297.432 0 .75-.087.958-.264.209-.178.313-.382.313-.619a.56.56 0 0 0-.275-.499c-.128-.083-.45-.188-.96-.319-.689-.175-1.166-.325-1.431-.451a1.381 1.381 0 0 1-.605-.527 1.401 1.401 0 0 1-.207-.745c0-.246.056-.478.169-.688.115-.211.269-.386.462-.525.147-.106.346-.198.598-.272.252-.076.522-.114.813-.114.434 0 .815.063 1.145.187.329.125.571.295.728.509.156.215.264.501.324.857l-.919.126a1.01 1.01 0 0 0-.362-.667c-.2-.16-.483-.239-.849-.239-.433 0-.739.073-.924.215s-.276.31-.276.501c0 .122.036.231.114.33.077.1.197.182.36.248.095.034.371.117.83.24.665.179 1.129.324 1.391.436.262.115.468.28.619.494.15.213.224.483.224.803 0 .315-.092.608-.274.887a1.767 1.767 0 0 1-.793.642 2.869 2.869 0 0 1-1.167.228c-.72 0-1.27-.149-1.647-.447-.381-.299-.622-.744-.726-1.332zM-11.988 148.124l.137.831a3.455 3.455 0 0 1-.71.082c-.338 0-.605-.055-.793-.161a.908.908 0 0 1-.396-.427c-.076-.177-.115-.546-.115-1.11v-3.189h-.689v-.731h.689v-1.371l.934-.564v1.938h.945v.731h-.945v3.241c0 .269.016.44.05.516a.38.38 0 0 0 .161.182.644.644 0 0 0 .32.069c.104 0 .242-.012.412-.037zM-11.064 142.392v-1.08h.94v1.08h-.94zm0 6.573v-5.544h.94v5.544h-.94zM-8.694 148.965v-5.544h.845v.789c.408-.608.995-.913 1.764-.913.336 0 .644.061.921.181.282.121.491.279.628.475.14.192.238.426.293.693.035.176.052.48.052.915v3.406h-.939v-3.371c0-.385-.038-.67-.109-.859a.922.922 0 0 0-.389-.453 1.235 1.235 0 0 0-.654-.17c-.4 0-.749.129-1.038.382-.289.254-.436.736-.436 1.447v3.028h-.94v-.006zM.87 146.934l.924.121c-.102.637-.359 1.134-.776 1.494-.415.36-.927.541-1.532.541-.759 0-1.368-.246-1.83-.745-.461-.494-.693-1.206-.693-2.132 0-.598.099-1.121.297-1.573.199-.447.501-.784.905-1.009a2.7 2.7 0 0 1 1.324-.336c.602 0 1.094.152 1.478.456.382.305.627.737.736 1.298l-.915.14c-.087-.373-.239-.651-.462-.841a1.2 1.2 0 0 0-.802-.283c-.472 0-.857.17-1.154.509-.293.338-.443.877-.443 1.61 0 .747.143 1.287.428 1.625s.657.506 1.117.506c.369 0 .677-.114.924-.338.251-.225.407-.572.474-1.043zM4.649 148.124l.135.831c-.264.056-.5.082-.708.082-.341 0-.605-.055-.795-.161a.904.904 0 0 1-.394-.427c-.078-.177-.118-.546-.118-1.11v-3.189h-.69v-.731h.689v-1.371l.938-.564v1.938h.943v.731h-.943v3.241c0 .269.016.44.047.516a.376.376 0 0 0 .164.182.634.634 0 0 0 .32.069c.104 0 .241-.012.412-.037zM8.539 151.09v-7.669h.854v.72c.203-.283.432-.492.685-.634.255-.141.563-.212.924-.212.473 0 .89.122 1.253.364.362.244.635.589.82 1.031.182.442.276.931.276 1.46 0 .568-.102 1.077-.306 1.531a2.317 2.317 0 0 1-2.112 1.406c-.313 0-.594-.065-.843-.196a1.887 1.887 0 0 1-.613-.501v2.699h-.938v.001zm.85-4.866c0 .713.145 1.241.436 1.582.286.339.638.51 1.049.51.417 0 .775-.178 1.073-.529.298-.354.444-.902.444-1.643 0-.706-.143-1.233-.436-1.586-.291-.351-.637-.528-1.041-.528-.401 0-.756.188-1.063.561-.308.376-.462.92-.462 1.633zM14.485 148.965v-7.652h.94v2.746a2.101 2.101 0 0 1 1.659-.762c.411 0 .768.08 1.071.242.303.163.519.388.647.671.131.285.196.699.196 1.243v3.512h-.938v-3.512c0-.472-.103-.813-.307-1.027-.204-.213-.492-.32-.863-.32a1.53 1.53 0 0 0-.786.218 1.2 1.2 0 0 0-.524.588c-.104.247-.156.588-.156 1.022v3.031h-.939zM20.437 142.392v-1.08h.94v1.08h-.94zm0 6.573v-5.544h.94v5.544h-.94zM22.786 148.965v-7.652h.94v7.652h-.94zM27.233 148.124l.136.831a3.457 3.457 0 0 1-.711.082c-.342 0-.605-.055-.793-.161a.916.916 0 0 1-.397-.427c-.076-.177-.114-.546-.114-1.11v-3.189h-.689v-.731h.689v-1.371l.934-.564v1.938h.945v.731h-.945v3.241c0 .269.016.44.05.516a.396.396 0 0 0 .162.182.638.638 0 0 0 .321.069c.104 0 .243-.012.412-.037zM28.142 148.965v-5.544h.845v.842c.216-.392.415-.651.598-.777.181-.128.383-.188.6-.188.316 0 .642.101.967.302l-.324.874a1.342 1.342 0 0 0-.691-.204.901.901 0 0 0-.551.183.988.988 0 0 0-.351.516 3.67 3.67 0 0 0-.156 1.096v2.902h-.937v-.002zM35.346 148.965v-.813c-.432.625-1.019.938-1.76.938-.326 0-.632-.063-.916-.187-.284-.127-.493-.284-.632-.473a1.815 1.815 0 0 1-.29-.697c-.037-.184-.057-.478-.057-.878v-3.436h.941v3.075c0 .491.019.822.057.992.06.248.182.44.376.584.192.139.428.211.711.211.281 0 .544-.074.793-.216a1.21 1.21 0 0 0 .525-.591c.102-.25.154-.611.154-1.084v-2.972h.94v5.544h-.842v.003zM37.659 148.965v-5.544h.84v.777a1.946 1.946 0 0 1 1.68-.901c.411 0 .75.085 1.01.255.263.172.449.41.557.717.438-.647 1.008-.972 1.713-.972.548 0 .973.153 1.267.456.296.305.444.775.444 1.407v3.805h-.934v-3.492c0-.376-.03-.647-.092-.812a.779.779 0 0 0-.331-.397 1.041 1.041 0 0 0-.564-.151c-.391 0-.714.128-.972.388s-.388.675-.388 1.246v3.22h-.939v-3.601c0-.418-.077-.73-.229-.939-.154-.21-.404-.313-.752-.313-.264 0-.509.071-.732.208a1.18 1.18 0 0 0-.487.611c-.102.269-.152.652-.152 1.16v2.874l-.939-.002z"/></g><g><path d="M-34.556 176.153v-6.752h-2.521v-.903h6.069v.903h-2.534v6.752h-1.014zM-30.093 176.153v-7.651h.942v2.746a2.095 2.095 0 0 1 1.659-.762c.411 0 .766.078 1.069.242.303.161.519.386.65.67.128.283.196.698.196 1.244v3.511h-.941v-3.511c0-.472-.1-.813-.303-1.027-.204-.214-.492-.321-.865-.321-.278 0-.542.074-.786.217-.246.144-.419.34-.524.59-.104.245-.156.588-.156 1.022v3.03h-.941zM-24.142 169.581v-1.079h.942v1.079h-.942zm0 6.572v-5.544h.942v5.544h-.942zM-21.772 176.153v-5.544h.848v.789c.405-.608.994-.912 1.765-.912.333 0 .642.06.919.181.282.121.491.278.631.473.137.194.234.427.29.695.035.175.052.48.052.913v3.408h-.938v-3.372c0-.384-.038-.669-.109-.858a.92.92 0 0 0-.389-.454 1.239 1.239 0 0 0-.654-.169c-.4 0-.748.128-1.036.381-.291.254-.438.737-.438 1.446v3.028h-.94v-.005zM-9.22 176.153v-.813c-.434.626-1.019.938-1.76.938-.329 0-.634-.062-.916-.187-.284-.126-.495-.283-.632-.472a1.776 1.776 0 0 1-.29-.697c-.039-.186-.057-.479-.057-.878v-3.437h.938v3.076c0 .492.021.822.057.992.062.247.185.44.378.583.189.14.428.211.707.211.285 0 .547-.073.796-.217.245-.144.421-.341.524-.59s.154-.61.154-1.084v-2.972h.94v5.544h-.839v.003zM-6.909 178.278v-7.669h.856v.721c.202-.283.429-.492.683-.636.255-.139.563-.211.924-.211.473 0 .891.123 1.253.365.362.242.634.588.82 1.031.186.442.276.93.276 1.459 0 .567-.102 1.078-.303 1.531-.204.454-.5.803-.89 1.045a2.277 2.277 0 0 1-1.221.362c-.313 0-.596-.065-.846-.199a1.913 1.913 0 0 1-.611-.498v2.698h-.941v.001zm.852-4.865c0 .714.146 1.241.433 1.58.289.342.641.512 1.052.512.417 0 .772-.177 1.071-.529.297-.353.446-.902.446-1.642 0-.706-.146-1.236-.438-1.587-.289-.351-.637-.528-1.041-.528-.397 0-.752.187-1.06.562-.31.375-.463.918-.463 1.632zM-.964 178.278v-7.669h.856v.721a2.13 2.13 0 0 1 .684-.636c.255-.142.563-.211.924-.211.473 0 .89.123 1.253.365s.636.588.82 1.031c.185.442.275.93.275 1.459 0 .567-.102 1.078-.306 1.531-.204.454-.497.803-.887 1.045a2.278 2.278 0 0 1-1.222.362c-.313 0-.596-.065-.846-.199a1.925 1.925 0 0 1-.614-.498v2.698h-.937v.001zm.853-4.865c0 .714.145 1.241.433 1.58.289.342.638.512 1.049.512.417 0 .775-.177 1.074-.529.297-.353.446-.902.446-1.642 0-.706-.146-1.236-.439-1.587-.289-.351-.637-.528-1.041-.528-.4 0-.752.187-1.06.562-.308.375-.462.918-.462 1.632zM8.779 174.368l.969.121c-.154.568-.437 1.008-.851 1.32-.414.313-.942.469-1.588.469-.809 0-1.453-.248-1.928-.749-.474-.497-.713-1.198-.713-2.1 0-.933.24-1.657.72-2.171.48-.516 1.103-.772 1.869-.772.743 0 1.346.252 1.816.755.47.504.706 1.216.706 2.132 0 .056-.002.138-.005.249H5.639c.035.609.208 1.075.518 1.4.309.323.696.484 1.158.484.344 0 .64-.088.882-.271.246-.181.439-.469.582-.867zm-3.085-1.52H8.79c-.042-.466-.16-.815-.355-1.049a1.438 1.438 0 0 0-1.166-.545c-.43 0-.794.144-1.088.435-.292.29-.456.678-.487 1.159zM10.918 176.153v-5.544h.846v.842c.216-.393.415-.652.598-.778.181-.127.383-.187.601-.187.319 0 .642.101.966.302l-.322.872a1.353 1.353 0 0 0-.689-.204.898.898 0 0 0-.553.185.995.995 0 0 0-.351.515 3.665 3.665 0 0 0-.156 1.096v2.902h-.94zM17.44 176.153v-7.651h.939v7.651h-.939zM19.84 169.581v-1.079h.94v1.079h-.94zm0 6.572v-5.544h.94v5.544h-.94zM22.211 178.278v-7.669h.856v.721c.203-.283.43-.492.683-.636.254-.139.563-.211.924-.211.473 0 .892.123 1.253.365.363.242.636.588.82 1.031.182.442.277.93.277 1.459 0 .567-.102 1.078-.306 1.531a2.302 2.302 0 0 1-.887 1.045 2.28 2.28 0 0 1-1.225.362 1.75 1.75 0 0 1-.843-.199 1.893 1.893 0 0 1-.614-.498v2.698h-.938v.001zm.851-4.865c0 .714.142 1.241.433 1.58.289.342.638.512 1.049.512.417 0 .775-.177 1.073-.529s.446-.902.446-1.642c0-.706-.146-1.236-.438-1.587-.289-.351-.637-.528-1.041-.528-.401 0-.755.187-1.06.562-.307.375-.462.918-.462 1.632z"/></g><g><path d="M291.085 18.497v-7.653h5.534v.904h-4.521v2.344h4.231v.897h-4.231v2.606h4.696v.903h-5.709v-.001zM298.075 20.621v-7.669h.855v.721c.201-.284.43-.494.684-.636.255-.141.563-.211.925-.211.473 0 .89.123 1.253.365.361.242.635.588.819 1.031.182.443.276.93.276 1.459a3.73 3.73 0 0 1-.304 1.532 2.29 2.29 0 0 1-.89 1.045 2.29 2.29 0 0 1-1.224.363c-.313 0-.594-.067-.843-.198a1.897 1.897 0 0 1-.613-.501v2.699h-.938zm.851-4.865c0 .714.142 1.241.433 1.58.29.34.64.512 1.05.512.418 0 .775-.177 1.073-.531.297-.353.446-.901.446-1.641 0-.706-.146-1.236-.439-1.586-.287-.352-.638-.529-1.04-.529-.4 0-.755.187-1.061.563-.308.376-.462.918-.462 1.632zM304.027 11.925v-1.081h.939v1.081h-.939zm0 6.572v-5.543h.939v5.543h-.939zM310.014 16.466l.924.121c-.102.638-.36 1.137-.776 1.497-.416.36-.926.541-1.531.541-.76 0-1.368-.247-1.83-.745-.461-.495-.695-1.208-.695-2.132 0-.599.101-1.123.3-1.573.196-.449.5-.786.906-1.009a2.659 2.659 0 0 1 1.32-.336c.603 0 1.096.153 1.478.456.383.306.629.739.736 1.299l-.914.139c-.084-.372-.237-.651-.462-.84a1.193 1.193 0 0 0-.8-.283c-.475 0-.859.17-1.155.508-.297.339-.442.875-.442 1.61 0 .745.142 1.286.427 1.624.286.337.659.507 1.117.507.369 0 .677-.113.924-.338.249-.227.407-.576.473-1.046zM315.359 17.813c-.348.294-.684.504-1.005.627a2.92 2.92 0 0 1-1.036.182c-.61 0-1.077-.149-1.404-.445-.33-.298-.492-.679-.492-1.14 0-.273.061-.521.184-.745.125-.226.284-.405.486-.541.199-.135.426-.238.676-.308.185-.048.464-.096.836-.142.758-.09 1.319-.197 1.677-.323l.007-.246c0-.382-.09-.651-.266-.808-.242-.212-.599-.317-1.071-.317-.442 0-.769.076-.979.232-.211.155-.366.43-.467.822l-.92-.126c.084-.393.224-.712.412-.955.192-.241.469-.428.83-.559a3.743 3.743 0 0 1 1.26-.195c.475 0 .856.056 1.155.167.296.113.514.252.649.419.14.17.237.383.293.641.031.16.047.45.047.867v1.252c0 .875.02 1.425.06 1.657.04.233.12.454.237.666h-.98a1.961 1.961 0 0 1-.189-.682zm-.079-2.099c-.341.14-.854.257-1.534.355-.386.056-.659.119-.819.187a.814.814 0 0 0-.501.751c0 .251.095.461.285.628.19.167.468.25.833.25.361 0 .684-.078.967-.236.281-.158.488-.375.621-.649.101-.212.15-.525.15-.939l-.002-.347zM317.688 18.497v-5.543h.848v.787c.405-.608.995-.912 1.766-.912.334 0 .641.06.919.181.281.12.491.279.631.473.138.195.234.427.289.695.035.175.053.478.053.913V18.5h-.939v-3.372c0-.383-.036-.669-.11-.858a.9.9 0 0 0-.389-.454 1.223 1.223 0 0 0-.652-.17c-.4 0-.748.127-1.035.382-.291.254-.439.736-.439 1.446v3.027h-.939v-.004zM325.686 17.658l.134.83a3.45 3.45 0 0 1-.707.083c-.342 0-.606-.055-.797-.163a.905.905 0 0 1-.395-.426c-.077-.176-.116-.544-.116-1.11v-3.188h-.69v-.73h.69v-1.372l.934-.564v1.938h.947v.73h-.947v3.241c0 .269.02.439.05.517a.39.39 0 0 0 .164.182.635.635 0 0 0 .321.069 3.53 3.53 0 0 0 .412-.037zM326.604 18.497v-7.653h.941v2.746a2.103 2.103 0 0 1 1.66-.762c.411 0 .768.08 1.067.243.304.161.521.386.651.67.129.285.195.699.195 1.242v3.513h-.939v-3.513c0-.469-.103-.81-.306-1.026-.204-.214-.493-.32-.864-.32-.278 0-.539.073-.785.216a1.208 1.208 0 0 0-.524.588c-.104.248-.157.59-.157 1.024v3.032h-.939zM336.17 17.813c-.348.294-.685.504-1.006.627a2.916 2.916 0 0 1-1.036.182c-.61 0-1.077-.149-1.404-.445-.329-.298-.492-.679-.492-1.14 0-.273.063-.521.186-.745a1.5 1.5 0 0 1 .484-.541c.2-.135.428-.238.676-.308.186-.048.464-.096.837-.142.758-.09 1.318-.197 1.678-.323l.005-.246c0-.382-.089-.651-.266-.808-.24-.212-.597-.317-1.071-.317-.44 0-.768.076-.978.232-.211.155-.367.43-.468.822l-.917-.126c.081-.393.222-.712.412-.955.189-.241.468-.428.83-.559a3.741 3.741 0 0 1 1.259-.195c.474 0 .855.056 1.153.167.297.113.514.252.652.419.14.17.234.383.29.641.031.16.047.45.047.867v1.252c0 .875.021 1.425.062 1.657.039.233.12.454.237.666h-.982a1.983 1.983 0 0 1-.188-.682zm-.078-2.099c-.341.14-.854.257-1.536.355-.386.056-.657.119-.818.187a.822.822 0 0 0-.371.306.82.82 0 0 0-.129.445c0 .251.095.461.284.628.19.167.468.25.833.25.361 0 .685-.078.966-.236.282-.158.49-.375.621-.649.102-.212.151-.525.151-.939l-.001-.347zM338.478 18.497v-7.653h.938v7.653h-.938zM344.068 18.497v-4.813h-.83v-.73h.83v-.59c0-.374.034-.648.1-.83.091-.243.25-.44.478-.593.23-.151.547-.228.958-.228.265 0 .556.03.877.095l-.142.818a3.226 3.226 0 0 0-.552-.052c-.284 0-.488.062-.605.183-.119.121-.179.348-.179.683v.512h1.081v.73h-1.081v4.813h-.935v.002zM346.466 15.726c0-1.027.284-1.787.856-2.281.476-.411 1.058-.616 1.743-.616.759 0 1.384.249 1.867.75.485.499.727 1.19.727 2.07 0 .712-.106 1.273-.322 1.682-.214.41-.526.727-.935.955a2.715 2.715 0 0 1-1.339.337c-.775 0-1.404-.249-1.883-.747-.478-.498-.714-1.214-.714-2.15zm.965 0c0 .708.154 1.242.464 1.594.31.354.699.531 1.17.531.467 0 .854-.179 1.164-.534.31-.354.465-.895.465-1.623 0-.687-.155-1.206-.469-1.56a1.486 1.486 0 0 0-1.162-.529c-.469 0-.858.177-1.168.528-.309.352-.464.882-.464 1.593zM352.741 18.497v-7.653h.938v7.653h-.938zM358.733 18.497v-.698c-.351.548-.868.825-1.551.825-.441 0-.849-.123-1.218-.365a2.419 2.419 0 0 1-.861-1.021c-.203-.438-.304-.939-.304-1.505 0-.553.091-1.056.277-1.506a2.167 2.167 0 0 1 2.066-1.396 1.85 1.85 0 0 1 1.531.76v-2.746h.935v7.653h-.875zm-2.97-2.766c0 .708.149 1.241.447 1.591.299.352.651.529 1.061.529s.758-.17 1.048-.503c.284-.337.432-.849.432-1.538 0-.758-.147-1.317-.44-1.672-.291-.353-.65-.531-1.079-.531-.42 0-.767.171-1.048.512-.281.339-.421.877-.421 1.612zM360.707 16.842l.929-.146c.053.373.196.658.438.855.236.199.571.298.998.298.436 0 .753-.087.962-.263.208-.176.313-.383.313-.619a.57.57 0 0 0-.277-.502c-.13-.083-.448-.188-.96-.318-.689-.175-1.165-.325-1.432-.451a1.361 1.361 0 0 1-.605-.528 1.396 1.396 0 0 1-.206-.745c0-.246.058-.475.171-.687.112-.211.268-.386.462-.524.146-.106.345-.199.597-.275.251-.075.522-.111.812-.111.434 0 .816.063 1.145.187.33.125.571.296.728.51.158.213.268.5.325.857l-.917.126a1.009 1.009 0 0 0-.363-.668c-.199-.16-.483-.239-.85-.239-.433 0-.74.073-.924.213s-.277.311-.277.5c0 .123.038.233.116.33a.831.831 0 0 0 .36.251c.092.034.369.115.829.239.664.178 1.127.322 1.39.437.265.113.47.279.619.492.15.216.227.484.227.803 0 .313-.091.607-.275.884-.181.278-.446.491-.792.643a2.88 2.88 0 0 1-1.168.228c-.721 0-1.269-.149-1.646-.449-.384-.296-.625-.739-.729-1.328z"/></g><g><path d="M285.676 64.985V57.33h1.01v6.751h3.77v.905h-4.779v-.001zM291.194 62.212c0-1.027.284-1.787.855-2.283.478-.411 1.058-.615 1.742-.615.762 0 1.385.249 1.867.749.488.5.729 1.189.729 2.07 0 .714-.109 1.274-.324 1.683a2.264 2.264 0 0 1-.934.953 2.697 2.697 0 0 1-1.339.338c-.776 0-1.404-.247-1.883-.746-.476-.498-.713-1.214-.713-2.149zm.966 0c0 .709.154 1.242.465 1.594.31.354.697.531 1.167.531.467 0 .854-.178 1.165-.534.31-.355.465-.897.465-1.625 0-.685-.155-1.204-.468-1.557a1.484 1.484 0 0 0-1.163-.53c-.47 0-.857.176-1.167.527-.31.353-.464.883-.464 1.594zM298.513 64.985l-1.696-5.545h.971l.882 3.201.328 1.189c.015-.058.11-.439.289-1.142l.882-3.248h.963l.829 3.217.28 1.06.319-1.071.949-3.206h.914l-1.734 5.545h-.977l-.883-3.321-.214-.945-1.12 4.267-.982-.001zM308.181 64.985V59.44h.847v.79c.409-.609.997-.912 1.766-.912.335 0 .641.06.922.18.279.121.49.279.629.474.14.194.233.426.291.695.032.173.052.478.052.912v3.409h-.939v-3.374c0-.382-.035-.669-.11-.857a.917.917 0 0 0-.388-.454 1.226 1.226 0 0 0-.654-.17c-.4 0-.746.127-1.036.382-.291.254-.437.736-.437 1.445v3.028l-.943-.003zM317.746 64.3c-.347.296-.684.504-1.005.625a2.874 2.874 0 0 1-1.037.182c-.609 0-1.077-.148-1.403-.445-.33-.296-.492-.677-.492-1.14 0-.272.062-.52.186-.745.122-.224.283-.404.484-.541.2-.136.426-.238.676-.31.186-.047.464-.094.836-.139.759-.09 1.319-.198 1.679-.325l.005-.244c0-.383-.089-.653-.266-.809-.24-.212-.597-.318-1.071-.318-.44 0-.768.077-.978.232-.212.155-.367.43-.468.822l-.918-.125c.082-.395.223-.711.411-.956.191-.24.469-.427.83-.558.361-.13.781-.194 1.261-.194.474 0 .856.056 1.153.167.297.111.514.252.652.419.139.17.234.383.29.641.031.16.047.449.047.866v1.253c0 .873.022 1.426.061 1.658.04.233.121.453.236.665h-.98a1.962 1.962 0 0 1-.189-.681zm-.077-2.099c-.342.138-.855.258-1.536.355-.385.056-.658.118-.819.187a.8.8 0 0 0-.499.751.8.8 0 0 0 .284.627c.19.167.467.25.833.25.361 0 .684-.078.966-.236.281-.158.488-.375.621-.649.101-.213.151-.526.151-.941l-.001-.344zM319.7 63.329l.929-.146c.053.374.198.656.436.855.239.197.572.297 1.002.297.432 0 .751-.087.959-.264.209-.175.313-.382.313-.618a.564.564 0 0 0-.278-.502c-.127-.083-.447-.189-.959-.318-.69-.174-1.164-.326-1.43-.452a1.371 1.371 0 0 1-.606-.526 1.387 1.387 0 0 1-.206-.745c0-.246.057-.476.168-.687.117-.211.271-.386.464-.525.146-.108.346-.199.598-.274a2.76 2.76 0 0 1 .811-.112c.435 0 .815.062 1.146.187.329.126.571.295.729.508.156.214.266.501.323.858l-.918.125a1.016 1.016 0 0 0-.363-.668c-.2-.16-.483-.239-.849-.239-.434 0-.74.072-.924.215-.185.142-.277.311-.277.501 0 .123.037.233.116.33a.829.829 0 0 0 .36.251c.093.034.37.115.829.239.665.178 1.128.323 1.392.438.262.112.469.276.618.492.15.216.225.484.225.803 0 .313-.091.608-.274.884a1.77 1.77 0 0 1-.793.643c-.342.15-.735.228-1.167.228-.721 0-1.27-.149-1.646-.449-.38-.298-.624-.741-.728-1.329zM329.04 64.3c-.35.296-.688.504-1.009.625a2.872 2.872 0 0 1-1.036.182c-.608 0-1.077-.148-1.403-.445-.33-.296-.492-.677-.492-1.14a1.538 1.538 0 0 1 .671-1.286 2.36 2.36 0 0 1 .676-.31c.184-.047.463-.094.838-.139.756-.09 1.317-.198 1.676-.325l.005-.244c0-.383-.09-.653-.266-.809-.241-.212-.597-.318-1.07-.318-.44 0-.77.077-.979.232-.211.155-.366.43-.467.822l-.917-.125c.081-.395.221-.711.412-.956.189-.24.469-.427.83-.558.362-.13.782-.194 1.259-.194.473 0 .855.056 1.153.167.296.111.515.252.652.419.138.17.234.383.29.641.031.16.048.449.048.866v1.253c0 .873.021 1.426.059 1.658.04.233.123.453.238.665h-.981a1.94 1.94 0 0 1-.187-.681zm-.079-2.099c-.342.138-.854.258-1.535.355-.386.056-.657.118-.817.187a.814.814 0 0 0-.372.306.817.817 0 0 0-.129.445c0 .251.095.46.284.627.19.167.468.25.833.25.362 0 .687-.078.967-.236.283-.158.491-.375.621-.649.101-.213.151-.526.151-.941l-.003-.344zM331.346 64.985V57.33h.941v7.654h-.941zM337.58 64.985h-.871V57.33h.938v2.729c.397-.496.905-.746 1.52-.746.341 0 .664.068.968.205.305.138.556.331.751.58.195.25.35.548.462.901.113.351.169.727.169 1.127 0 .951-.235 1.683-.705 2.202-.471.518-1.033.777-1.69.777-.653 0-1.165-.272-1.539-.818l-.003.698zm-.012-2.815c0 .666.092 1.145.274 1.442.294.484.695.726 1.199.726.411 0 .767-.18 1.065-.536.298-.356.447-.888.447-1.595 0-.724-.142-1.257-.432-1.603-.286-.343-.635-.517-1.041-.517-.411 0-.767.179-1.064.536-.297.356-.448.871-.448 1.547zM342.649 64.985V59.44h.847v.842c.216-.393.414-.651.596-.778.182-.126.385-.187.602-.187.317 0 .64.101.966.302l-.325.872a1.36 1.36 0 0 0-.69-.204.89.89 0 0 0-.551.185.993.993 0 0 0-.35.514 3.665 3.665 0 0 0-.156 1.096v2.904l-.939-.001zM346.225 58.412V57.33h.939v1.082h-.939zm0 6.573V59.44h.939v5.545h-.939zM352.191 64.985v-.699c-.352.55-.868.825-1.55.825-.441 0-.849-.123-1.218-.366a2.39 2.39 0 0 1-.861-1.02c-.202-.438-.304-.938-.304-1.505 0-.553.091-1.057.277-1.506.184-.451.46-.797.83-1.036.368-.24.78-.36 1.235-.36a1.85 1.85 0 0 1 1.533.76v-2.746h.935v7.654l-.877-.001zm-2.97-2.768c0 .709.147 1.241.446 1.591.3.353.652.529 1.062.529s.758-.169 1.046-.505c.286-.336.431-.849.431-1.537 0-.759-.146-1.316-.438-1.671-.294-.355-.652-.533-1.08-.533-.418 0-.768.171-1.046.511-.281.342-.421.88-.421 1.615zM354.37 65.442l.913.136c.038.281.144.486.317.615.234.175.551.262.956.262.437 0 .771-.087 1.009-.262a1.28 1.28 0 0 0 .48-.73c.049-.19.071-.594.069-1.207-.411.485-.922.726-1.534.726-.762 0-1.353-.275-1.77-.825-.419-.548-.627-1.21-.627-1.979 0-.528.093-1.015.285-1.464a2.28 2.28 0 0 1 .833-1.036c.363-.244.792-.365 1.28-.365.654 0 1.195.265 1.619.793v-.668h.866v4.793c0 .862-.087 1.475-.263 1.835-.178.36-.454.646-.836.855-.382.208-.853.313-1.408.313-.66 0-1.196-.149-1.603-.446-.404-.297-.601-.746-.586-1.346zm.777-3.329c0 .728.145 1.258.435 1.591.288.335.649.5 1.086.5a1.39 1.39 0 0 0 1.086-.497c.291-.333.438-.855.438-1.563 0-.68-.15-1.191-.451-1.534-.299-.346-.662-.518-1.088-.518-.418 0-.773.169-1.063.508-.295.339-.443.845-.443 1.513zM364.283 63.198l.97.119c-.153.567-.438 1.009-.852 1.319-.414.313-.943.469-1.588.469-.808 0-1.453-.249-1.928-.75-.476-.5-.712-1.199-.712-2.101 0-.933.238-1.657.719-2.172.481-.516 1.104-.772 1.87-.772.742 0 1.345.252 1.818.756.469.503.702 1.215.702 2.13 0 .056-.001.138-.005.251h-4.135c.035.609.207 1.075.517 1.4.31.322.697.486 1.159.486.344 0 .641-.091.884-.273.245-.176.439-.464.581-.862zm-3.085-1.519h3.095c-.041-.467-.16-.817-.354-1.05a1.442 1.442 0 0 0-1.165-.543c-.433 0-.795.144-1.088.434-.294.289-.457.675-.488 1.159z"/></g><g><path d="M254.615 132.779v-7.653h1.527l1.812 5.418c.167.505.286.883.365 1.133.083-.279.222-.688.407-1.226l1.833-5.325h1.361v7.653h-.974v-6.406l-2.225 6.406h-.912l-2.214-6.516v6.516h-.98zM263.439 126.206v-1.08h.938v1.08h-.938zm0 6.573v-5.545h.938v5.545h-.938zM265.808 132.779v-5.545h.845v.789c.408-.607.996-.911 1.767-.911.333 0 .64.059.92.181.279.12.49.277.629.473.141.192.236.427.292.693.032.176.054.48.054.913v3.41h-.942v-3.372c0-.386-.034-.67-.11-.86a.904.904 0 0 0-.388-.452 1.229 1.229 0 0 0-.654-.171c-.4 0-.746.129-1.037.382-.289.254-.436.736-.436 1.447v3.028h-.94v-.005zM271.405 130.006c0-1.026.284-1.785.854-2.281.475-.41 1.06-.615 1.742-.615.763 0 1.385.247 1.869.75.484.5.727 1.189.727 2.068 0 .714-.108 1.275-.322 1.684a2.253 2.253 0 0 1-.935.952c-.408.228-.854.34-1.339.34-.776 0-1.403-.249-1.881-.747-.477-.498-.715-1.215-.715-2.151zm.965 0c0 .709.153 1.241.464 1.595.311.353.7.53 1.169.53.468 0 .854-.179 1.165-.534.311-.354.464-.897.464-1.625 0-.686-.155-1.204-.467-1.559a1.484 1.484 0 0 0-1.162-.528 1.49 1.49 0 0 0-1.169.527c-.311.352-.464.884-.464 1.594zM277.691 132.779v-5.545h.848v.842c.216-.392.416-.651.595-.777.183-.128.388-.187.604-.187.316 0 .64.101.963.301l-.323.871a1.36 1.36 0 0 0-.689-.203c-.205 0-.389.063-.553.185s-.28.294-.351.514a3.711 3.711 0 0 0-.156 1.098v2.902h-.938v-.001zM288.027 130.993l.972.12c-.153.567-.439 1.009-.853 1.32-.415.313-.944.47-1.587.47-.81 0-1.453-.249-1.93-.75-.476-.498-.71-1.199-.71-2.1 0-.933.237-1.656.719-2.172.481-.514 1.104-.771 1.87-.771.741 0 1.347.253 1.816.755.47.503.703 1.215.703 2.131 0 .057-.002.14-.007.251h-4.133c.034.606.206 1.073.516 1.398a1.54 1.54 0 0 0 1.161.486c.343 0 .64-.09.884-.271.243-.183.437-.471.579-.867zm-3.087-1.52h3.097c-.041-.468-.16-.814-.354-1.051a1.438 1.438 0 0 0-1.164-.543c-.435 0-.797.143-1.089.433-.295.292-.457.677-.49 1.161zM293.796 132.094c-.346.296-.685.505-1.006.627a2.873 2.873 0 0 1-1.036.183c-.609 0-1.076-.148-1.404-.446-.33-.296-.492-.679-.492-1.141a1.537 1.537 0 0 1 .671-1.285c.198-.135.428-.238.676-.309a6.4 6.4 0 0 1 .838-.141c.755-.09 1.316-.197 1.676-.323l.005-.246c0-.384-.09-.651-.266-.809-.241-.212-.598-.317-1.071-.317-.439 0-.769.078-.979.233-.211.155-.366.429-.467.822l-.917-.127c.081-.393.221-.71.412-.953.189-.241.469-.431.83-.559.361-.13.782-.194 1.259-.194.473 0 .855.056 1.153.166.296.111.513.251.652.421.138.17.234.382.29.641.031.16.048.447.048.867v1.252c0 .874.021 1.425.059 1.657.04.233.123.454.238.666h-.981a2.007 2.007 0 0 1-.188-.685zm-.077-2.098c-.342.14-.854.257-1.535.354-.386.057-.657.12-.82.188a.82.82 0 0 0-.369.305.814.814 0 0 0-.129.444c0 .252.095.46.284.626.19.169.468.253.833.253.361 0 .687-.079.967-.237.282-.158.491-.376.621-.649.101-.213.151-.526.151-.94l-.003-.344zM296.114 132.779v-5.545h.848v.842c.216-.392.416-.651.595-.777.183-.128.387-.187.604-.187.316 0 .64.101.963.301l-.323.871a1.36 1.36 0 0 0-.689-.203c-.205 0-.389.063-.553.185s-.28.294-.351.514a3.711 3.711 0 0 0-.156 1.098v2.902h-.938v-.001zM306.274 132.094c-.349.296-.687.505-1.008.627a2.873 2.873 0 0 1-1.036.183c-.61 0-1.077-.148-1.404-.446-.327-.296-.492-.679-.492-1.141a1.537 1.537 0 0 1 .671-1.285c.198-.135.427-.238.677-.309.183-.05.462-.096.835-.141.757-.09 1.318-.197 1.677-.323l.006-.246c0-.384-.09-.651-.267-.809-.24-.212-.597-.317-1.07-.317-.44 0-.768.078-.979.233s-.366.429-.468.822l-.916-.127c.081-.393.221-.71.412-.953.189-.241.469-.431.83-.559.361-.13.782-.194 1.258-.194.474 0 .858.056 1.154.166.296.111.513.251.652.421s.234.382.29.641c.031.16.047.447.047.867v1.252c0 .874.022 1.425.063 1.657.037.233.12.454.235.666h-.981a2.03 2.03 0 0 1-.186-.685zm-.079-2.098c-.338.14-.853.257-1.534.354-.386.057-.657.12-.817.188a.823.823 0 0 0-.372.305.806.806 0 0 0-.13.444c0 .252.096.46.283.626.19.169.469.253.836.253.36 0 .685-.079.964-.237a1.45 1.45 0 0 0 .621-.649c.101-.213.15-.526.15-.94l-.001-.344zM309.468 132.779h-.871v-7.653h.942v2.729c.395-.496.902-.746 1.519-.746.341 0 .663.068.968.205.306.137.553.331.751.58.196.248.349.548.461.9.111.352.167.729.167 1.128 0 .951-.232 1.685-.702 2.203-.471.519-1.033.777-1.691.777-.654 0-1.165-.274-1.541-.82l-.003.697zm-.009-2.814c0 .664.091 1.145.271 1.44.296.483.699.726 1.203.726.41 0 .763-.18 1.063-.536s.449-.89.449-1.594c0-.725-.144-1.259-.432-1.603-.286-.346-.636-.518-1.043-.518-.411 0-.764.18-1.063.535-.298.358-.448.874-.448 1.55zM314.548 132.779v-5.545h.848v.789c.408-.607.996-.911 1.767-.911.333 0 .64.059.922.181.278.12.488.277.628.473.14.192.233.427.291.693.032.176.054.48.054.913v3.41h-.942v-3.372c0-.386-.034-.67-.11-.86a.904.904 0 0 0-.388-.452 1.229 1.229 0 0 0-.654-.171c-.4 0-.746.129-1.036.382-.291.254-.437.736-.437 1.447v3.028h-.942l-.001-.005zM320.146 130.006c0-1.026.284-1.785.854-2.281.477-.41 1.061-.615 1.744-.615.762 0 1.386.247 1.868.75.483.498.727 1.189.727 2.068 0 .714-.108 1.275-.321 1.684a2.261 2.261 0 0 1-.936.952c-.408.228-.854.34-1.338.34-.777 0-1.404-.249-1.883-.747-.477-.498-.715-1.215-.715-2.151zm.964 0c0 .709.155 1.241.465 1.595.311.353.7.53 1.171.53.465 0 .854-.179 1.164-.534.308-.354.463-.897.463-1.625 0-.686-.155-1.204-.467-1.559a1.483 1.483 0 0 0-1.16-.528c-.471 0-.86.174-1.171.527-.31.352-.465.884-.465 1.594zM326.432 132.779v-5.545h.846v.842c.218-.392.418-.651.598-.777.182-.128.385-.187.603-.187.318 0 .64.101.963.301l-.323.871a1.357 1.357 0 0 0-.689-.203c-.205 0-.389.063-.553.185s-.28.294-.35.514a3.679 3.679 0 0 0-.156 1.098v2.902h-.939v-.001zM330.003 132.779v-5.545h.841v.778c.176-.272.405-.491.696-.654.287-.167.618-.246.987-.246.409 0 .748.083 1.009.254.262.17.446.408.555.715.439-.647 1.009-.969 1.712-.969.55 0 .973.151 1.269.454.295.305.441.774.441 1.408v3.805h-.935v-3.493c0-.376-.028-.646-.09-.812a.805.805 0 0 0-.332-.397 1.035 1.035 0 0 0-.565-.151c-.387 0-.712.128-.97.388-.257.26-.387.675-.387 1.244v3.223h-.94v-3.601c0-.417-.078-.73-.229-.941-.154-.208-.402-.313-.751-.313-.265 0-.51.07-.733.208-.228.14-.389.344-.491.611-.101.269-.15.653-.15 1.161v2.874l-.937-.001zM342.526 132.094c-.348.296-.684.505-1.005.627a2.873 2.873 0 0 1-1.036.183c-.609 0-1.077-.148-1.404-.446-.33-.296-.492-.679-.492-1.141 0-.271.062-.519.186-.744.122-.226.283-.404.485-.541.2-.135.426-.238.675-.309.186-.05.464-.096.836-.141.76-.09 1.319-.197 1.679-.323.004-.13.005-.211.005-.246 0-.384-.089-.651-.266-.809-.24-.212-.597-.317-1.071-.317-.44 0-.768.078-.978.233-.211.155-.367.429-.468.822l-.918-.127c.082-.393.222-.71.412-.953.19-.241.47-.431.83-.559.361-.13.783-.194 1.26-.194.474 0 .856.056 1.153.166.297.111.515.251.652.421.139.17.234.382.29.641.031.16.047.447.047.867v1.252c0 .874.022 1.425.061 1.657.04.233.122.454.238.666h-.982a2.007 2.007 0 0 1-.189-.685zm-.078-2.098c-.343.14-.855.257-1.536.354-.386.057-.658.12-.819.188a.824.824 0 0 0-.37.305.814.814 0 0 0-.13.444.8.8 0 0 0 .284.626c.19.169.468.253.833.253.361 0 .683-.079.966-.237a1.47 1.47 0 0 0 .62-.649c.102-.213.152-.526.152-.94v-.344zM344.835 132.779v-7.653h.938v7.653h-.938zM347.236 126.206v-1.08h.939v1.08h-.939zm0 6.573v-5.545h.939v5.545h-.939zM351.657 131.937l.132.83a3.45 3.45 0 0 1-.707.085c-.341 0-.605-.055-.797-.164a.91.91 0 0 1-.395-.426c-.076-.177-.116-.545-.116-1.111v-3.187h-.688v-.733h.688v-1.372l.937-.562v1.937h.946v.732h-.946v3.241c0 .268.019.439.047.515a.388.388 0 0 0 .164.183.627.627 0 0 0 .322.068c.104 0 .24-.011.413-.036zM352.581 126.206v-1.08h.941v1.08h-.941zm0 6.573v-5.545h.941v5.545h-.941zM358.745 130.993l.97.12c-.152.567-.438 1.009-.852 1.32-.413.312-.943.47-1.587.47-.809 0-1.453-.249-1.929-.75-.476-.498-.712-1.199-.712-2.1 0-.933.239-1.656.719-2.172.481-.514 1.105-.771 1.869-.771.743 0 1.347.253 1.819.755.47.503.702 1.215.702 2.131 0 .057-.001.14-.005.251h-4.135c.035.606.208 1.073.517 1.398.31.325.698.486 1.16.486.343 0 .64-.09.883-.271.246-.183.438-.471.581-.867zm-3.085-1.52h3.096c-.042-.468-.16-.814-.354-1.051a1.442 1.442 0 0 0-1.164-.543c-.434 0-.796.143-1.089.433-.295.292-.457.677-.489 1.161zM360.521 131.124l.929-.146c.053.373.196.657.436.854.24.199.572.298 1.002.298.432 0 .751-.089.959-.264.208-.177.313-.383.313-.62a.564.564 0 0 0-.278-.5c-.128-.082-.448-.188-.959-.318-.69-.175-1.165-.323-1.43-.45a1.365 1.365 0 0 1-.812-1.271c0-.248.057-.479.168-.688.115-.211.27-.387.464-.526.146-.107.346-.197.597-.273.252-.076.523-.111.812-.111.435 0 .814.062 1.146.187.33.126.572.292.729.507.156.216.264.5.323.858l-.918.125a1.004 1.004 0 0 0-.364-.666c-.199-.162-.482-.24-.848-.24-.433 0-.74.072-.924.215s-.279.311-.279.5c0 .124.038.232.118.331a.83.83 0 0 0 .36.25c.092.032.369.114.828.238.664.18 1.128.323 1.393.438.262.113.469.278.617.492.15.216.226.485.226.803 0 .313-.091.607-.275.886a1.783 1.783 0 0 1-.791.643c-.345.15-.736.228-1.169.228-.72 0-1.269-.149-1.646-.448-.381-.302-.623-.744-.727-1.332z"/></g><g><path d="M305.444 175.545v-7.654h1.524l1.813 5.419c.167.503.288.883.363 1.133.088-.28.224-.688.409-1.227l1.833-5.325h1.364v7.654h-.977v-6.406l-2.225 6.406h-.913l-2.212-6.516v6.516h-.979zM314.266 168.971v-1.081h.94v1.081h-.94zm0 6.574v-5.547h.94v5.547h-.94zM320.255 173.513l.924.121c-.101.639-.359 1.135-.776 1.495-.416.361-.927.542-1.531.542-.759 0-1.368-.248-1.829-.746-.462-.494-.695-1.206-.695-2.133 0-.598.1-1.121.299-1.573.197-.447.499-.784.904-1.008a2.68 2.68 0 0 1 1.322-.336c.603 0 1.095.151 1.479.455.382.306.628.739.734 1.298l-.913.141c-.087-.373-.237-.651-.462-.842a1.199 1.199 0 0 0-.801-.283c-.474 0-.858.172-1.155.509-.296.338-.441.877-.441 1.611 0 .746.142 1.286.427 1.624.286.338.658.507 1.118.507.368 0 .677-.115.923-.338.249-.224.405-.574.473-1.044zM321.971 175.545v-5.547h.846v.842c.216-.392.416-.651.598-.777.181-.127.385-.188.601-.188.32 0 .642.101.965.303l-.323.872a1.343 1.343 0 0 0-.689-.203.91.91 0 0 0-.553.183 1.004 1.004 0 0 0-.35.516 3.67 3.67 0 0 0-.156 1.098v2.902h-.939v-.001zM325.193 172.773c0-1.027.285-1.786.855-2.282.476-.411 1.057-.615 1.741-.615.762 0 1.385.249 1.871.75.483.499.726 1.189.726 2.068 0 .712-.107 1.275-.324 1.684a2.281 2.281 0 0 1-.934.953 2.708 2.708 0 0 1-1.339.338c-.776 0-1.403-.249-1.883-.746-.476-.497-.713-1.213-.713-2.15zm.965 0c0 .71.154 1.242.465 1.594.31.353.697.531 1.167.531.467 0 .854-.18 1.165-.534.31-.354.465-.896.465-1.625 0-.685-.155-1.205-.467-1.559a1.493 1.493 0 0 0-1.165-.531c-.469 0-.857.178-1.166.529-.31.355-.464.883-.464 1.595zM331.316 176.003l.911.136c.039.284.146.489.32.616.232.175.549.26.955.26.436 0 .771-.085 1.01-.26.235-.175.396-.418.481-.731.05-.19.071-.594.067-1.206-.409.483-.922.727-1.535.727-.761 0-1.353-.277-1.77-.826-.417-.55-.626-1.211-.626-1.979 0-.528.096-1.017.286-1.464a2.26 2.26 0 0 1 .835-1.036c.362-.243.789-.367 1.279-.367.653 0 1.193.266 1.619.795v-.669h.866v4.792c0 .862-.088 1.477-.266 1.838a1.925 1.925 0 0 1-.835.853c-.381.211-.85.315-1.408.315-.66 0-1.194-.149-1.602-.448-.403-.299-.601-.746-.587-1.346zm.778-3.328c0 .727.144 1.258.434 1.591.287.336.649.501 1.086.501a1.39 1.39 0 0 0 1.086-.499c.292-.331.439-.854.439-1.563 0-.678-.15-1.189-.449-1.533-.302-.346-.665-.518-1.089-.518-.419 0-.774.17-1.065.508-.295.339-.442.844-.442 1.513zM337.435 175.545v-5.547h.845v.79c.408-.607.997-.912 1.765-.912.338 0 .645.061.922.181.281.12.491.278.629.473.141.194.236.426.292.695.034.176.054.479.054.913v3.409h-.94v-3.374c0-.384-.036-.668-.11-.857a.905.905 0 0 0-.39-.453 1.225 1.225 0 0 0-.652-.17c-.398 0-.747.129-1.037.381-.289.255-.437.737-.437 1.446v3.027l-.941-.002zM347 174.86c-.349.296-.686.504-1.008.627a2.898 2.898 0 0 1-1.036.182c-.608 0-1.076-.147-1.404-.447-.327-.296-.491-.676-.491-1.14 0-.271.062-.519.183-.744.127-.225.286-.404.488-.54.197-.136.427-.239.677-.309a6.52 6.52 0 0 1 .834-.141c.757-.091 1.318-.198 1.676-.323l.007-.246c0-.384-.089-.651-.266-.808-.24-.213-.596-.319-1.07-.319-.441 0-.768.077-.979.232-.211.154-.366.429-.468.821l-.917-.127c.081-.392.221-.709.412-.952.19-.244.468-.43.829-.56.362-.128.783-.195 1.258-.195s.859.058 1.156.169c.296.111.512.251.651.421.14.169.235.382.291.639.03.162.047.448.047.867v1.253c0 .875.021 1.426.061 1.658.039.232.12.454.235.666h-.98a2.03 2.03 0 0 1-.186-.684zm-.079-2.099c-.339.141-.853.258-1.533.354-.387.057-.658.119-.818.188a.81.81 0 0 0-.371.306.789.789 0 0 0-.13.445c0 .251.095.458.285.625.189.169.468.251.834.251.36 0 .685-.078.965-.236a1.44 1.44 0 0 0 .62-.648c.101-.213.15-.525.15-.938l-.002-.347zM351.381 174.703l.134.831a3.37 3.37 0 0 1-.708.082c-.34 0-.605-.055-.794-.161a.905.905 0 0 1-.397-.426c-.076-.179-.113-.546-.113-1.111v-3.188h-.69v-.732h.69v-1.371l.934-.563V170h.945v.732h-.945v3.24c0 .269.019.439.049.517a.383.383 0 0 0 .162.181.61.61 0 0 0 .322.07c.102.002.239-.013.411-.037zM352.3 175.545v-7.654h.938v2.746c.44-.507.993-.761 1.662-.761.409 0 .766.08 1.068.241.303.163.521.387.649.671.129.285.195.698.195 1.243v3.514h-.94v-3.514c0-.471-.103-.813-.306-1.026-.204-.213-.491-.321-.861-.321-.281 0-.542.074-.787.217-.244.145-.422.34-.526.589-.104.246-.156.589-.156 1.022v3.033h-.936zM358.251 168.971v-1.081h.94v1.081h-.94zm0 6.574v-5.547h.94v5.547h-.94zM364.238 174.86c-.349.296-.684.504-1.006.627a2.903 2.903 0 0 1-1.037.182c-.609 0-1.076-.147-1.404-.447-.328-.296-.491-.676-.491-1.14a1.54 1.54 0 0 1 .67-1.284c.199-.136.426-.239.676-.309a6.63 6.63 0 0 1 .836-.141c.758-.091 1.318-.198 1.676-.323l.006-.246c0-.384-.087-.651-.267-.808-.237-.213-.594-.319-1.069-.319-.44 0-.767.077-.977.232-.212.154-.368.429-.468.821l-.918-.127c.081-.392.221-.709.412-.952.189-.243.468-.43.829-.56a3.764 3.764 0 0 1 1.258-.195c.475 0 .858.058 1.155.169.296.111.514.251.652.421.139.169.235.382.291.639.029.162.047.448.047.867v1.253c0 .875.021 1.426.061 1.658.039.232.12.454.235.666h-.981a2.054 2.054 0 0 1-.186-.684zm-.078-2.099c-.339.141-.853.258-1.533.354-.388.057-.658.119-.82.188a.817.817 0 0 0-.369.306.797.797 0 0 0-.131.445c0 .251.096.458.284.625.188.169.469.251.834.251.361 0 .683-.078.963-.236a1.44 1.44 0 0 0 .62-.648c.103-.213.152-.525.152-.938v-.347z"/></g><path fill="none" stroke="#000" stroke-width=".5" d="M74.468 41.032l50.437 35.096M25.116 83.797L140.4 92.474M156.823 99.371L19.227 112.773M33.329 172.815l118.304-38.891M159.38 119.282L50.682 145.157M146.442 72.642l141.779-59.345M167.98 71.79l111.796-11.157M235.305 100.3l16.348 25.18M180.067 158.096l120.318 12.939"/><circle fill="#FFF" cx="134.347" cy="75.246" r="1.863"/><circle fill="#FFF" cx="190.437" cy="75.246" r="1.863"/></svg>