<svg version="1.1" xmlns="http://www.w3.org/2000/svg" xmlns:xlink="http://www.w3.org/1999/xlink" x="0" y="0" width="453.543" height="510.236" viewBox="0 0 453.543 510.236" xml:space="preserve"><defs><path id="a" d="M0 510.236h453.543V0H0v510.236"/></defs><clipPath id="b"><use xlink:href="#a" overflow="visible"/></clipPath><g clip-path="url(#b)"><defs><path id="c" d="M0 510.236h453.543V0H0v510.236"/></defs><clipPath id="d"><use xlink:href="#c" overflow="visible"/></clipPath><path clip-path="url(#d)" fill="#BCBEC0" d="M390.189 503.149V325.222h-84.953l-10.657 69.268s-11.162 28.072-71.165 28.072c-61.809 0-78.31-28.147-78.31-28.147l-7.619-69.192H36.182V503.15h354.007"/></g><path clip-path="url(#b)" fill="#C7C8CA" d="M290.065 239.883l.525-232.797L36.182 53.71v357.205l106.696-36.721-15.73-142.843 34.457 8.735 61.834 7.765 50.757-3.396 15.869-4.572"/><path clip-path="url(#b)" fill="#DCDDDE" d="M390.189 396.096V36.433L289.905 7.292l-.524 232.59 30.3-8.37-20.236 131.195 90.744 33.389"/><g clip-path="url(#b)"><defs><path id="e" d="M0 510.236h453.543V0H0v510.236"/></defs><clipPath id="f"><use xlink:href="#e" overflow="visible"/></clipPath><g clip-path="url(#f)"><defs><path id="g" d="M136.188 423.561h170.344v-115.95H136.188v115.95"/></defs><clipPath id="h"><use xlink:href="#g" overflow="visible"/></clipPath><path clip-path="url(#h)" fill="#B7B8BB" d="M137.192 322.972l-.004.004.007.067-.003-.071"/><path clip-path="url(#h)" fill="#E6E7E8" d="M142.041 366.587l.837 7.606 2.226 20.221s15.866 27.056 74.734 28.115c1.159.021 2.333.031 3.525.031h.025c-61.791-.007-78.284-28.148-78.284-28.148l-3.063-27.825m91.645-.249c-3.68 0-6.662 5.33-6.662 11.905s2.982 11.905 6.662 11.905c3.679 0 6.66-5.33 6.66-11.905s-2.982-11.905-6.66-11.905m-96.302-42.033l.101.917 1.997 18.134 1.89 17.161v.001l-3.988-36.211v-.002"/><path clip-path="url(#h)" fill="#ADAFB1" d="M142.878 374.194l-.048.017 2.225 20.202s15.87 27.073 74.784 28.117c-58.869-1.06-74.734-28.115-74.734-28.115l-2.227-20.221m-5.393-48.972l1.997 18.134-1.997-18.134"/><path clip-path="url(#h)" fill="#B7B8BB" d="M141.988 366.56l.842 7.65.048-.017-.837-7.606-.053-.027m-4.708-42.747l4.039 36.678.053.026-1.89-17.161-1.997-18.134-.101-.917a7.058 7.058 0 0 1-.104-.492"/></g><path clip-path="url(#f)" fill="#414042" d="M196.501 37.038v7.668l16.695 2.523s2.708-2.667 2.329-8.25c-.379-5.582-3.3-7.474-3.3-7.474l-15.724 5.533z"/><path clip-path="url(#f)" fill="#4D4D4F" d="M139.54 106.188c12.178 2.98 24.983-6.586 28.6-21.366 3.616-14.78-3.324-29.178-15.503-32.158-12.178-2.98-24.983 6.586-28.599 21.366-3.617 14.78 3.324 29.178 15.502 32.158"/><path clip-path="url(#f)" fill="#414042" d="M147.99 65.296l17.665 4.368s1.747 1.31 2.524 2.281c1.382 1.727.485 1.795.485 1.795l-6.32 21.839s-.6 1.106-1.65 1.456c-1.164.388-1.844 0-1.844 0l-15.794-5.167s-6.056-3.277-3.899-15.216c1.963-10.865 8.833-11.356 8.833-11.356"/><path clip-path="url(#f)" fill="#58595B" d="M164.933 73.236l14.562 3.601s.756.395 1.396 1.195c1.139 1.424 1.085 2.165 1.085 2.165L177.895 98.2s-.495.912-1.36 1.2c-.96.32-1.52 0-1.52 0l-13.02-4.26s-6.121-2.701-4.343-12.543c1.618-8.957 7.281-9.361 7.281-9.361"/><path clip-path="url(#f)" fill="#6D6E71" d="M178.338 63.635h20.097v12.133s.097 2.865 2.135 5.047c2.039 2.181 3.799 2.887 5.242 3.494 1.844.777 6.891.586 11.259 3.108 6.891 3.686 7.085 12.029 7.085 12.029l-.094 23.008s-2.707 3.698-9.617 3.689c-6.91-.009-9.124-3.671-9.124-3.671s.194-7.297-.388-12.247c-2.33-4.563-7.183-3.601-7.183-3.601s-13.2 8.939-23.392-2.32c-9.415-12.812 3.98-26.498 3.98-26.498V63.635z"/><path clip-path="url(#f)" fill="#8A8C8E" d="M188.389 68.278c5.551 0 10.05-2.234 10.05-4.991 0-2.756-4.499-4.99-10.05-4.99-5.551 0-10.05 2.234-10.05 4.99 0 2.756 4.499 4.991 10.05 4.991"/><path clip-path="url(#f)" fill="#6D6E71" d="M183.889 47.515l.102 13.99s-.005 2.505 4.654 2.505c4.95 0 4.654-2.505 4.654-2.505l.005-14.378-9.415.388z"/></g><g clip-path="url(#b)"><defs><path id="i" d="M0 510.236h453.543V0H0v510.236"/></defs><clipPath id="j"><use xlink:href="#i" overflow="visible"/></clipPath><path clip-path="url(#j)" fill="#58595B" d="M180.937 35.994l.476 12.268 13.961-.609s2.764-2.601 2.589-6.635c-.176-4.034-3.065-5.634-3.065-5.634l-13.961.61z"/><path clip-path="url(#j)" fill="#414042" d="M181.077 48.291c1.714 0 3.103-2.748 3.103-6.139 0-3.39-1.389-6.138-3.103-6.138-1.714 0-3.103 2.748-3.103 6.138 0 3.391 1.388 6.139 3.103 6.139"/><path clip-path="url(#j)" fill="#58595B" d="M163.383 34.134l17.049 4.263s1.845.679 1.65 3.688c-.194 3.009-1.941 3.883-1.941 3.883l-16.642 4.366-.116-16.2z"/><path clip-path="url(#j)" fill="#414042" d="M163.306 50.333c1.739 0 3.149-3.626 3.149-8.1 0-4.473-1.41-8.1-3.149-8.1s-3.149 3.627-3.149 8.1c0 4.475 1.41 8.1 3.149 8.1"/><path clip-path="url(#j)" fill="#E6E7E8" d="M214.787 252.672s-8.93 11.744-9.9 15.918c-.816 2.621-.097 11.939 9.697 12.036 10.2-.194 10.589-8.445 9.715-12.23-.875-3.784-9.512-15.724-9.512-15.724"/><path clip-path="url(#j)" fill="#8A8C8E" d="M221.36 345.511c46.487 0 84.172-10.196 84.172-22.773 0-12.578-37.686-22.775-84.172-22.775s-84.172 10.197-84.172 22.775c0 12.577 37.685 22.773 84.172 22.773"/><path clip-path="url(#j)" fill="#E6E7E8" d="M214.787 289.945s-8.93 11.743-9.9 15.918c-.816 2.621-.097 11.938 9.697 12.036 10.2-.194 10.589-8.445 9.715-12.23s-9.512-15.724-9.512-15.724"/></g><path clip-path="url(#b)" fill="#B1B3B6" d="M125.576 217.956l10.768-6.989 6.422-2.911 14.735-3.495 12.279-1.941 7.367-.971 8.879-1.358 10.579-.777h9.067l9.634-1.65 10.39 1.068 11.334.387 8.69.195 7.178.583 7.179.581 5.478.582 6.424.971h5.099l15.68 3.883 12.656 3.494 10.579 5.047 4.345 5.048v5.24l-6.801 8.155-16.812 6.987-34.57 5.825-28.903 2.523-35.136-1.164-22.669-2.814-22.291-3.788-17.379-5.531-10.201-5.34-2.078-6.648 2.078-5.192"/><path clip-path="url(#b)" fill="#282829" d="M228.831 181.415l-1.805-1.805 20.661-20.66-3.609-3.609L223.417 176l-1.804-1.803-2.194 9.267zM160.998 367.653l-1.16 2.274-26.033-13.265-2.318 4.548 26.034 13.265-1.158 2.275 9.491-.779-4.856-8.318"/><g clip-path="url(#b)"><defs><path id="k" d="M0 510.236h453.543V0H0v510.236"/></defs><clipPath id="l"><use xlink:href="#k" overflow="visible"/></clipPath><path clip-path="url(#l)" d="M118.969 317.555h-7.082v1.021h7.082v-1.021zm0-2.828h-7.082v1.021h7.082v-1.021zm-17.43 1.218c0-1.135.896-2.186 2.031-2.186 1.498 0 1.975 1.051 2.045 2.186h-4.076zm4.02 1.945c-.042.546-.729 1.443-1.891 1.443-1.415 0-2.129-.883-2.129-2.41h5.348c0-2.59-1.035-4.269-3.149-4.269-2.423 0-3.513 1.806-3.513 4.072 0 2.115 1.216 3.668 3.275 3.668 1.176 0 1.652-.279 1.989-.503.923-.615 1.258-1.651 1.3-2.002h-1.23zm-6.218-2.562c-.098-1.274-.826-2.673-2.744-2.673-2.422 0-3.512 1.805-3.512 4.073 0 2.115 1.216 3.667 3.274 3.667 2.142 0 2.856-1.636 2.982-2.799h-1.19c-.21 1.121-.924 1.737-1.75 1.737-1.694 0-2.002-1.556-2.002-2.815 0-1.303.49-2.759 2.016-2.759 1.036 0 1.582.588 1.736 1.568h1.19zm-7.588-.126c0-2.085-1.426-2.547-2.561-2.547-1.261 0-1.947.853-2.213 1.244h-.028v-1.033h-1.16v7.319h1.23v-3.989c0-1.988 1.233-2.437 1.933-2.437 1.204 0 1.569.644 1.569 1.918v4.508h1.23v-4.983zm-12.782.743c0-1.135.896-2.186 2.031-2.186 1.498 0 1.975 1.051 2.045 2.186h-4.076zm4.02 1.945c-.042.546-.729 1.443-1.891 1.443-1.415 0-2.129-.883-2.129-2.41h5.348c0-2.59-1.035-4.269-3.149-4.269-2.423 0-3.513 1.806-3.513 4.072 0 2.115 1.216 3.668 3.275 3.668 1.176 0 1.652-.279 1.989-.503.923-.615 1.258-1.651 1.3-2.002h-1.23zm-6.834-7.755h-1.23v10.05h1.23v-10.05zm-4.576 7.517c0 .981-1.121 1.724-2.269 1.724-.925 0-1.331-.477-1.331-1.275 0-.924.967-1.105 1.569-1.189 1.527-.196 1.835-.309 2.031-.462v1.202zm-3.376-2.563c.084-.561.28-1.414 1.681-1.414 1.163 0 1.723.42 1.723 1.19 0 .729-.35.841-.644.868l-2.031.252c-2.043.252-2.225 1.681-2.225 2.297 0 1.26.951 2.112 2.295 2.112 1.428 0 2.171-.671 2.647-1.188.042.559.209 1.118 1.3 1.118.28 0 .462-.084.672-.141v-.894c-.14.027-.294.056-.406.056-.252 0-.406-.126-.406-.434v-4.217c0-1.875-2.127-2.042-2.715-2.042-1.807 0-2.968.686-3.024 2.435h1.133zm-5.179 3.741h-.028l-1.904-5.964h-1.427l2.673 7.319h1.316l2.785-7.319h-1.344l-2.071 5.964zm-8.961-2.885c0-1.135.896-2.186 2.031-2.186 1.499 0 1.975 1.051 2.045 2.186h-4.076zm4.02 1.945c-.042.546-.729 1.443-1.891 1.443-1.415 0-2.129-.883-2.129-2.41h5.348c0-2.59-1.035-4.269-3.149-4.269-2.423 0-3.513 1.806-3.513 4.072 0 2.115 1.216 3.668 3.275 3.668 1.176 0 1.653-.279 1.989-.503.923-.615 1.258-1.651 1.3-2.002h-1.23zm-7.968-1.961c0-1.063.728-1.96 1.876-1.96h.462v-1.272a1.025 1.025 0 0 0-.322-.042c-.924 0-1.568.573-2.058 1.427h-.028v-1.216h-1.16v7.319h1.23v-4.256zm-8.316.014h3.165c2.184 0 2.981-1.58 2.981-2.98 0-1.625-1.119-2.827-2.981-2.827h-4.521v10.05h1.356v-4.243zm0-4.648h2.759c1.12 0 1.989.406 1.989 1.681 0 1.359-.827 1.808-2.045 1.808h-2.703v-3.489z"/></g><g clip-path="url(#b)"><text transform="translate(118.969 320.186)" font-family="'HelveticaLTStd-Roman'" font-size="14"></text></g><g clip-path="url(#b)"><defs><path id="m" d="M0 510.236h453.543V0H0v510.236"/></defs><clipPath id="n"><use xlink:href="#m" overflow="visible"/></clipPath><path clip-path="url(#n)" d="M116.644 329.666h-1.16v1.034h-.028c-.294-.421-.855-1.244-2.185-1.244-1.947 0-3.051 1.594-3.051 3.652 0 1.75.727 4.087 3.219 4.087.98 0 1.625-.461 1.947-.978v-.056h.028v.307c0 .867.042 2.577-2.087 2.577-.294 0-1.429 0-1.653-1.163h-1.231c.238 1.945 1.931 2.183 2.8 2.183 3.387 0 3.401-2.632 3.401-3.681v-6.718zm-5.152 3.638c0-.938.098-2.745 2.003-2.745 1.779 0 1.975 1.919 1.975 3.109 0 1.947-1.219 2.465-2.003 2.465-1.345 0-1.975-1.218-1.975-2.829m-2.744-1.303c0-2.085-1.426-2.546-2.561-2.546-1.26 0-1.947.852-2.213 1.244h-.028v-1.034h-1.16v7.319h1.23v-3.988c0-1.989 1.233-2.438 1.933-2.438 1.205 0 1.569.645 1.569 1.918v4.508h1.23v-4.983zm-7.812-5.066h-1.23v1.398h1.23v-1.398zm0 2.731h-1.23v7.319h1.23v-7.319zm-5.697 5.963h-.028l-1.903-5.964H91.88l2.673 7.319h1.316l2.785-7.319h-1.343l-2.072 5.964zm-4.411-8.694h-1.23v1.398h1.23v-1.398zm0 2.731h-1.23v7.319h1.23v-7.319zm-3.107-2.731h-1.23v10.05h1.23v-10.05zm-11.97 5.811c0-1.136.896-2.187 2.031-2.187 1.498 0 1.974 1.051 2.044 2.187h-4.075zm4.019 1.944c-.042.546-.728 1.443-1.89 1.443-1.415 0-2.129-.883-2.129-2.41h5.348c0-2.59-1.035-4.268-3.149-4.268-2.423 0-3.514 1.805-3.514 4.071 0 2.115 1.217 3.668 3.276 3.668 1.176 0 1.652-.279 1.988-.503.923-.614 1.259-1.651 1.301-2.002H79.77zm-6.833-7.755h-1.23v10.05h1.23v-10.05zm-9.14 12.948h1.23v-3.666h.028c.322.517.966.978 1.947.978 2.492 0 3.219-2.337 3.219-4.087 0-2.059-1.105-3.652-3.051-3.652-1.331 0-1.891.823-2.185 1.244h-.028v-1.034h-1.16v10.217zm1.174-6.215c0-1.19.196-3.109 1.975-3.109 1.905 0 2.003 1.808 2.003 2.745 0 1.61-.631 2.829-1.975 2.829-.785 0-2.003-.517-2.003-2.465m-8.008-.35c0-.979.364-2.801 2.129-2.801s2.129 1.821 2.129 2.801c0 .98-.364 2.802-2.129 2.802s-2.129-1.822-2.129-2.802m-1.272 0c0 1.892 1.062 3.863 3.401 3.863 2.338 0 3.401-1.972 3.401-3.863s-1.063-3.862-3.401-3.862c-2.339 0-3.401 1.971-3.401 3.862m-6.4-.572c0-1.136.896-2.187 2.031-2.187 1.498 0 1.975 1.051 2.045 2.187h-4.076zm4.02 1.944c-.042.546-.729 1.443-1.891 1.443-1.415 0-2.129-.883-2.129-2.41h5.348c0-2.59-1.035-4.268-3.149-4.268-2.423 0-3.513 1.805-3.513 4.071 0 2.115 1.216 3.668 3.275 3.668 1.176 0 1.652-.279 1.989-.503.923-.614 1.258-1.651 1.3-2.002h-1.23zm-12.866 5.193h1.23v-3.666h.028c.322.517.966.978 1.947.978 2.492 0 3.219-2.337 3.219-4.087 0-2.059-1.105-3.652-3.051-3.652-1.331 0-1.891.823-2.185 1.244h-.028v-1.034h-1.16v10.217zm1.174-6.215c0-1.19.196-3.109 1.975-3.109 1.905 0 2.003 1.808 2.003 2.745 0 1.61-.631 2.829-1.975 2.829-.785 0-2.003-.517-2.003-2.465"/></g><g clip-path="url(#b)"><text transform="translate(116.644 336.986)" font-family="'HelveticaLTStd-Roman'" font-size="14"></text></g><g clip-path="url(#b)"><defs><path id="o" d="M0 510.236h453.543V0H0v510.236"/></defs><clipPath id="p"><use xlink:href="#o" overflow="visible"/></clipPath><path clip-path="url(#p)" d="M132.548 347.485v-1.02h-1.176v-2.044h-1.23v2.044h-.994v1.02h.994v4.832c0 .882.266 1.566 1.482 1.566.126 0 .476-.056.924-.098v-.965h-.434c-.252 0-.742 0-.742-.573v-4.763h1.176zm-6.004 3.767c0 .98-1.12 1.723-2.269 1.723-.924 0-1.331-.476-1.331-1.274 0-.925.967-1.106 1.569-1.19 1.527-.196 1.835-.308 2.031-.462v1.203zm-3.375-2.563c.084-.56.28-1.414 1.68-1.414 1.163 0 1.723.42 1.723 1.19 0 .729-.35.841-.644.869l-2.031.252c-2.043.252-2.225 1.68-2.225 2.296 0 1.26.951 2.113 2.295 2.113 1.429 0 2.171-.671 2.647-1.188.042.56.21 1.118 1.3 1.118.28 0 .462-.084.672-.14v-.895c-.14.028-.294.056-.406.056-.252 0-.406-.126-.406-.434v-4.216c0-1.875-2.126-2.042-2.714-2.042-1.807 0-2.968.685-3.024 2.434h1.133zm-11.803.856c0-1.135.897-2.187 2.031-2.187 1.499 0 1.975 1.052 2.045 2.187h-4.076zm4.02 1.945c-.042.547-.728 1.443-1.891 1.443-1.414 0-2.129-.883-2.129-2.41h5.348c0-2.59-1.034-4.268-3.149-4.268-2.422 0-3.513 1.805-3.513 4.072 0 2.114 1.217 3.668 3.275 3.668 1.177 0 1.653-.28 1.989-.503.923-.615 1.259-1.652 1.301-2.003h-1.231zm-6.637-2.941c0-.364-.182-2.294-2.8-2.294-1.442 0-2.771.727-2.771 2.336 0 1.009.671 1.527 1.693 1.779l1.428.35c1.051.266 1.457.462 1.457 1.05 0 .813-.798 1.163-1.681 1.163-1.736 0-1.904-.925-1.946-1.499h-1.189c.042.883.252 2.562 3.149 2.562 1.653 0 2.897-.909 2.897-2.421 0-.994-.531-1.555-2.056-1.933l-1.233-.308c-.952-.238-1.331-.378-1.331-.981 0-.91 1.079-1.036 1.457-1.036 1.555 0 1.723.771 1.737 1.232h1.189zm-8.665 2.703c0 .98-1.12 1.723-2.269 1.723-.924 0-1.331-.476-1.331-1.274 0-.925.967-1.106 1.569-1.19 1.527-.196 1.835-.308 2.031-.462v1.203zm-3.375-2.563c.084-.56.28-1.414 1.68-1.414 1.163 0 1.723.42 1.723 1.19 0 .729-.35.841-.644.869l-2.031.252c-2.043.252-2.225 1.68-2.225 2.296 0 1.26.951 2.113 2.295 2.113 1.429 0 2.171-.671 2.647-1.188.042.56.21 1.118 1.3 1.118.28 0 .462-.084.672-.14v-.895c-.14.028-.294.056-.406.056-.252 0-.406-.126-.406-.434v-4.216c0-1.875-2.126-2.042-2.714-2.042-1.807 0-2.968.685-3.024 2.434h1.133zm-7.911.856c0-1.135.897-2.187 2.031-2.187 1.499 0 1.975 1.052 2.045 2.187h-4.076zm4.02 1.945c-.042.547-.728 1.443-1.891 1.443-1.414 0-2.129-.883-2.129-2.41h5.348c0-2.59-1.034-4.268-3.149-4.268-2.422 0-3.513 1.805-3.513 4.072 0 2.114 1.217 3.668 3.275 3.668 1.177 0 1.653-.28 1.989-.503.923-.615 1.259-1.652 1.301-2.003h-1.231zm-6.637-2.941c0-.364-.182-2.294-2.8-2.294-1.442 0-2.771.727-2.771 2.336 0 1.009.671 1.527 1.693 1.779l1.428.35c1.051.266 1.457.462 1.457 1.05 0 .813-.798 1.163-1.681 1.163-1.736 0-1.904-.925-1.946-1.499h-1.189c.042.883.252 2.562 3.149 2.562 1.653 0 2.897-.909 2.897-2.421 0-.994-.531-1.555-2.056-1.933l-1.233-.308c-.952-.238-1.331-.378-1.331-.981 0-.91 1.079-1.036 1.457-1.036 1.555 0 1.723.771 1.737 1.232h1.189zm-7.196-4.814h-1.23v1.398h1.23v-1.398zm0 2.73h-1.23v7.32h1.23v-7.32zm-8.19 3.639c0-.938.098-2.745 2.003-2.745 1.778 0 1.974 1.919 1.974 3.109 0 1.947-1.218 2.465-2.002 2.465-1.345 0-1.975-1.219-1.975-2.829m5.222-6.369h-1.231v3.666l-.028.099c-.294-.42-.854-1.244-2.185-1.244-1.946 0-3.051 1.594-3.051 3.653 0 1.75.727 4.087 3.22 4.087.714 0 1.554-.225 2.086-1.217h.028v1.007h1.161v-10.051zm-11.788 5.066c0-2.085-1.427-2.546-2.561-2.546-1.177 0-1.793.727-2.143 1.188h-.028v-3.708h-1.231v10.051h1.231v-3.99c0-1.849 1.036-2.437 2.045-2.437 1.176 0 1.456.645 1.456 1.639v4.788h1.231v-4.985zm-7.168-1.316v-1.02h-1.176v-2.044h-1.231v2.044h-.994v1.02h.994v4.832c0 .882.266 1.566 1.483 1.566.126 0 .476-.056.924-.098v-.965h-.434c-.252 0-.742 0-.742-.573v-4.763h1.176zm-4.536-3.75h-1.23v1.398h1.23v-1.398zm0 2.73h-1.23v7.32h1.23v-7.32zm-7.265 1.65h.028l1.484 5.671h1.273l2.128-7.32h-1.232l-1.483 5.754h-.028l-1.428-5.754H44.63l-1.414 5.754h-.028l-1.399-5.754h-1.344l2.113 7.32h1.274l1.428-5.671z"/></g><g clip-path="url(#b)"><text transform="translate(132.549 353.787)" font-family="'HelveticaLTStd-Roman'" font-size="14"></text></g><g clip-path="url(#b)"><defs><path id="q" d="M0 510.236h453.543V0H0v510.236"/></defs><clipPath id="r"><use xlink:href="#q" overflow="visible"/></clipPath><path clip-path="url(#r)" d="M86.727 366.344c0-1.135.896-2.185 2.03-2.185 1.499 0 1.975 1.05 2.045 2.185h-4.075zm4.019 1.946c-.042.547-.728 1.443-1.891 1.443-1.414 0-2.128-.882-2.128-2.409h5.348c0-2.59-1.035-4.27-3.149-4.27-2.423 0-3.514 1.806-3.514 4.073 0 2.115 1.217 3.668 3.275 3.668 1.177 0 1.653-.279 1.989-.504.923-.615 1.259-1.65 1.301-2.002h-1.231zM74.1 370.585h1.231v-3.99c0-1.987 1.232-2.436 1.933-2.436.91 0 1.148.742 1.148 1.358v5.067h1.231v-4.466c0-.979.686-1.96 1.723-1.96 1.05 0 1.358.686 1.358 1.694v4.731h1.231v-5.067c0-2.058-1.483-2.464-2.267-2.464-1.135 0-1.625.505-2.241 1.189-.21-.392-.629-1.189-1.945-1.189-1.317 0-1.947.854-2.213 1.245h-.028v-1.034H74.1v7.322zm-1.849-10.05h-1.23v1.398h1.23v-1.398zm0 2.73h-1.23v7.319h1.23v-7.319zm-2.464 1.021v-1.021h-1.176v-2.045h-1.23v2.045h-.994v1.021h.994v4.831c0 .882.265 1.567 1.482 1.567.126 0 .476-.057.924-.099v-.965h-.434c-.252 0-.742 0-.742-.574v-4.761h1.176zm-10.961 4.943h-.028l-1.946-5.964h-1.399l2.715 7.518c-.588 1.512-.658 1.694-1.302 1.694-.336 0-.588-.07-.742-.126v1.133c.196.042.336.098.518.098 1.582 0 1.708-.168 2.87-3.135.937-2.395 1.777-4.788 2.631-7.182h-1.358l-1.959 5.964zm-4.229-3.627c0-2.085-1.426-2.548-2.561-2.548-1.261 0-1.947.854-2.213 1.245h-.028v-1.034h-1.16v7.32h1.23v-3.989c0-1.988 1.233-2.437 1.933-2.437 1.204 0 1.569.644 1.569 1.918v4.508h1.23v-4.983zm-9.28 2.45c0 .98-1.121 1.723-2.269 1.723-.925 0-1.331-.477-1.331-1.274 0-.924.966-1.105 1.569-1.189 1.526-.196 1.835-.31 2.031-.464v1.204zm-3.376-2.562c.084-.561.28-1.414 1.681-1.414 1.162 0 1.723.42 1.723 1.19 0 .728-.351.84-.645.867l-2.031.252c-2.043.252-2.224 1.682-2.224 2.298 0 1.26.95 2.112 2.294 2.112 1.429 0 2.171-.671 2.648-1.188.041.56.209 1.119 1.3 1.119.28 0 .462-.084.672-.141v-.895c-.14.027-.294.056-.406.056-.252 0-.406-.126-.406-.434v-4.216c0-1.875-2.127-2.043-2.715-2.043-1.807 0-2.968.686-3.024 2.436h1.133zM322.449 152.976h-7.082v1.02h7.082v-1.02zm0-2.828h-7.082v1.02h7.082v-1.02zm-17.43 1.218c0-1.135.897-2.186 2.031-2.186 1.499 0 1.976 1.051 2.045 2.186h-4.076zm4.02 1.945c-.042.546-.729 1.443-1.891 1.443-1.414 0-2.13-.883-2.13-2.41h5.349c0-2.589-1.034-4.268-3.149-4.268-2.422 0-3.513 1.805-3.513 4.072 0 2.115 1.217 3.668 3.275 3.668 1.177 0 1.652-.279 1.988-.503.923-.615 1.259-1.652 1.301-2.002h-1.23zm-6.218-2.562c-.099-1.275-.826-2.673-2.744-2.673-2.421 0-3.512 1.804-3.512 4.073 0 2.115 1.217 3.667 3.273 3.667 2.143 0 2.856-1.636 2.982-2.799h-1.19c-.21 1.121-.924 1.737-1.75 1.737-1.693 0-2.002-1.555-2.002-2.815 0-1.303.49-2.759 2.016-2.759 1.036 0 1.582.588 1.736 1.569h1.191zm-7.588-.127c0-2.085-1.427-2.546-2.561-2.546-1.261 0-1.947.852-2.213 1.244h-.028v-1.034h-1.16v7.32h1.229v-3.989c0-1.989 1.233-2.437 1.933-2.437 1.205 0 1.569.644 1.569 1.918v4.508h1.23v-4.984zm-12.782.744c0-1.135.896-2.186 2.031-2.186 1.499 0 1.975 1.051 2.045 2.186h-4.076zm4.02 1.945c-.042.546-.728 1.443-1.891 1.443-1.414 0-2.129-.883-2.129-2.41h5.348c0-2.589-1.034-4.268-3.148-4.268-2.423 0-3.514 1.805-3.514 4.072 0 2.115 1.217 3.668 3.275 3.668 1.177 0 1.653-.279 1.989-.503.923-.615 1.259-1.652 1.301-2.002h-1.231zm-11.916-1.386c0-.938.1-2.745 2.003-2.745 1.779 0 1.976 1.919 1.976 3.109 0 1.947-1.218 2.465-2.003 2.465-1.345 0-1.976-1.219-1.976-2.829m5.222-6.369h-1.23v3.666l-.028.098c-.294-.419-.854-1.244-2.185-1.244-1.946 0-3.051 1.594-3.051 3.653 0 1.75.727 4.087 3.219 4.087.715 0 1.555-.224 2.087-1.216h.028v1.006h1.16v-10.05zm-7.923 0h-1.229v1.398h1.229v-1.398zm0 2.73h-1.229v7.32h1.229v-7.32zm-2.492 2.463c-.099-1.275-.826-2.673-2.744-2.673-2.422 0-3.513 1.804-3.513 4.073 0 2.115 1.217 3.667 3.274 3.667 2.143 0 2.856-1.636 2.982-2.799h-1.19c-.21 1.121-.924 1.737-1.75 1.737-1.694 0-2.002-1.555-2.002-2.815 0-1.303.49-2.759 2.016-2.759 1.036 0 1.582.588 1.736 1.569h1.191zm-7.588-.127c0-2.085-1.428-2.546-2.562-2.546-1.261 0-1.947.852-2.213 1.244h-.028v-1.034h-1.161v7.32h1.231v-3.989c0-1.989 1.232-2.437 1.933-2.437 1.204 0 1.568.644 1.568 1.918v4.508h1.231v-4.984zm-8.134-5.066h-1.355v10.05h1.355v-10.05zM354.02 168.725c0-.938.098-2.745 2.003-2.745 1.779 0 1.976 1.919 1.976 3.109 0 1.947-1.22 2.465-2.003 2.465-1.347 0-1.976-1.219-1.976-2.829m5.222-6.369h-1.23v3.666l-.028.098c-.294-.42-.854-1.244-2.185-1.244-1.947 0-3.051 1.594-3.051 3.653 0 1.75.727 4.087 3.219 4.087.714 0 1.554-.224 2.087-1.216h.028v1.006h1.16v-10.05zm-12.894 5.81c0-1.135.896-2.186 2.031-2.186 1.498 0 1.975 1.051 2.045 2.186h-4.076zm4.019 1.945c-.041.546-.729 1.443-1.891 1.443-1.415 0-2.129-.883-2.129-2.41h5.348c0-2.59-1.034-4.268-3.148-4.268-2.423 0-3.514 1.805-3.514 4.072 0 2.115 1.217 3.668 3.275 3.668 1.176 0 1.652-.28 1.989-.503.923-.615 1.258-1.652 1.3-2.002h-1.23zm-11.915-1.386c0-.938.098-2.745 2.003-2.745 1.778 0 1.975 1.919 1.975 3.109 0 1.947-1.219 2.465-2.003 2.465-1.345 0-1.975-1.219-1.975-2.829m5.222-6.369h-1.23v3.666l-.027.098c-.294-.42-.855-1.244-2.186-1.244-1.947 0-3.051 1.594-3.051 3.653 0 1.75.727 4.087 3.219 4.087.714 0 1.555-.224 2.087-1.216h.028v1.006h1.16v-10.05zm-13.006 6.369c0-.938.098-2.745 2.003-2.745 1.778 0 1.975 1.919 1.975 3.109 0 1.947-1.219 2.465-2.003 2.465-1.345 0-1.975-1.219-1.975-2.829m5.222-6.369h-1.229v3.666l-.028.098c-.294-.42-.855-1.244-2.186-1.244-1.946 0-3.051 1.594-3.051 3.653 0 1.75.728 4.087 3.219 4.087.715 0 1.555-.224 2.088-1.216h.027v1.006h1.16v-10.05zm-9.392 7.517c0 .981-1.121 1.723-2.27 1.723-.925 0-1.331-.476-1.331-1.275 0-.924.966-1.106 1.569-1.19 1.525-.196 1.835-.308 2.031-.462v1.204zm-3.376-2.563c.084-.56.279-1.414 1.681-1.414 1.162 0 1.723.42 1.723 1.19 0 .729-.35.841-.645.869l-2.031.252c-2.043.252-2.224 1.68-2.224 2.296 0 1.26.95 2.113 2.294 2.113 1.429 0 2.171-.671 2.647-1.188.042.559.209 1.118 1.3 1.118.28 0 .463-.084.673-.14v-.894a2.351 2.351 0 0 1-.406.056c-.252 0-.406-.126-.406-.434v-4.216c0-1.875-2.127-2.042-2.715-2.042-1.807 0-2.968.685-3.024 2.434h1.133zm-6.637-.14c0-.364-.181-2.294-2.799-2.294-1.442 0-2.771.727-2.771 2.336 0 1.009.671 1.527 1.691 1.779l1.43.35c1.05.266 1.457.462 1.457 1.05 0 .813-.8 1.163-1.682 1.163-1.736 0-1.905-.925-1.947-1.499h-1.188c.042.883.252 2.561 3.149 2.561 1.652 0 2.896-.909 2.896-2.421 0-.994-.531-1.554-2.057-1.932l-1.232-.308c-.953-.238-1.331-.378-1.331-.981 0-.91 1.078-1.036 1.457-1.036 1.554 0 1.723.77 1.737 1.232h1.19zm-12.166.996c0-1.135.896-2.186 2.031-2.186 1.498 0 1.976 1.051 2.045 2.186h-4.076zm4.021 1.945c-.042.546-.729 1.443-1.892 1.443-1.415 0-2.129-.883-2.129-2.41h5.349c0-2.59-1.035-4.268-3.149-4.268-2.423 0-3.513 1.805-3.513 4.072 0 2.115 1.216 3.668 3.274 3.668 1.177 0 1.652-.28 1.989-.503.923-.615 1.258-1.652 1.3-2.002h-1.229zm-6.638-2.941c0-.364-.182-2.294-2.8-2.294-1.442 0-2.771.727-2.771 2.336 0 1.009.671 1.527 1.691 1.779l1.43.35c1.05.266 1.457.462 1.457 1.05 0 .813-.799 1.163-1.682 1.163-1.736 0-1.904-.925-1.946-1.499h-1.188c.042.883.252 2.561 3.149 2.561 1.652 0 2.896-.909 2.896-2.421 0-.994-.531-1.554-2.057-1.932l-1.232-.308c-.953-.238-1.331-.378-1.331-.981 0-.91 1.078-1.036 1.457-1.036 1.555 0 1.724.77 1.737 1.232h1.19zm-8.664 2.703c0 .981-1.121 1.723-2.27 1.723-.925 0-1.331-.476-1.331-1.275 0-.924.966-1.106 1.569-1.19 1.525-.196 1.835-.308 2.031-.462v1.204zm-3.376-2.563c.084-.56.279-1.414 1.681-1.414 1.162 0 1.723.42 1.723 1.19 0 .729-.35.841-.645.869l-2.031.252c-2.043.252-2.224 1.68-2.224 2.296 0 1.26.949 2.113 2.294 2.113 1.429 0 2.171-.671 2.647-1.188.042.559.209 1.118 1.3 1.118.28 0 .463-.084.673-.14v-.894a2.351 2.351 0 0 1-.406.056c-.252 0-.406-.126-.406-.434v-4.216c0-1.875-2.127-2.042-2.715-2.042-1.807 0-2.968.685-3.024 2.434h1.133zm-2.324.238c-.099-1.274-.826-2.672-2.744-2.672-2.422 0-3.512 1.804-3.512 4.073 0 2.115 1.216 3.667 3.273 3.667 2.143 0 2.856-1.636 2.982-2.799h-1.19c-.21 1.121-.924 1.737-1.75 1.737-1.693 0-2.002-1.555-2.002-2.815 0-1.303.49-2.759 2.017-2.759 1.035 0 1.582.588 1.735 1.568h1.191zm-15.665-.812h.028l1.483 5.67h1.273l2.128-7.32h-1.232l-1.482 5.754h-.028l-1.428-5.754h-1.372l-1.414 5.754h-.028l-1.398-5.754h-1.345l2.114 7.32h1.273l1.428-5.67zm-10.642 1.43c0-1.135.896-2.186 2.031-2.186 1.499 0 1.976 1.051 2.045 2.186h-4.076zm4.021 1.945c-.042.546-.729 1.443-1.891 1.443-1.415 0-2.13-.883-2.13-2.41h5.349c0-2.59-1.035-4.268-3.149-4.268-2.423 0-3.513 1.805-3.513 4.072 0 2.115 1.216 3.668 3.274 3.668 1.177 0 1.653-.28 1.989-.503.923-.615 1.258-1.652 1.3-2.002h-1.229zm-6.806-2.689c0-2.085-1.427-2.546-2.562-2.546-1.261 0-1.947.852-2.213 1.244h-.028v-1.034h-1.16v7.32h1.23v-3.989c0-1.989 1.233-2.437 1.933-2.437 1.205 0 1.569.644 1.569 1.918v4.508h1.23v-4.984z"/><g clip-path="url(#r)"><defs><path id="s" d="M126.149 423.561H320.68V230.35H126.149v193.211"/></defs><clipPath id="t"><use xlink:href="#s" overflow="visible"/></clipPath><path clip-path="url(#t)" fill="#A6A8AB" d="M214.583 280.626c-9.794-.097-10.513-9.415-9.697-12.036.97-4.174 9.9-15.918 9.9-15.918s8.638 11.939 9.512 15.724c.874 3.785.486 12.036-9.715 12.23m-87.435-49.276l10.043 91.197c.341-11.229 30.719-20.522 70.457-22.284 2.951-4.813 7.139-10.318 7.139-10.318s3.868 5.346 6.689 10.018c46.433.018 84.057 10.208 84.057 22.775 0 .078-.001.157-.004.235l.004.003-.006.04a6.54 6.54 0 0 1-.211 1.368l-10.786 70.104s-11.156 28.066-71.141 28.073h.025c52.764 0 67.762-21.707 70.612-26.946.391-.717.553-1.125.553-1.125l4.889-31.775-.022-.008 9.838-63.786 10.37-67.401-6.915 1.911-16.014 6.656-17.729 2.987-4.799 1.383-3.396.227-2.256.151-6.39 1.076-28.903 2.523-35.136-1.164-22.669-2.814-22.291-3.787-17.379-5.531-5.918-3.098-2.711-.69"/><path clip-path="url(#t)" fill="#838588" d="M299.468 362.714l-4.889 31.775s-.162.408-.553 1.125c.392-.719.554-1.127.554-1.127l4.888-31.773"/><path clip-path="url(#t)" fill="#898B8E" d="M270.801 244.682l-2.256.151 2.256-.151M127.148 231.35l2.711.688-.003-.002-2.708-.686"/><path clip-path="url(#t)" fill="#949699" d="M309.283 298.92l-9.838 63.786.022.008.001.001 9.815-63.795m10.397-67.57l-6.317 1.82-.624.259 6.915-1.911.026-.168"/><path clip-path="url(#t)" fill="#9B9D9F" d="M233.686 390.149c-3.68 0-6.662-5.33-6.662-11.905s2.982-11.905 6.662-11.905c3.679 0 6.66 5.33 6.66 11.905s-2.982 11.905-6.66 11.905m-96.301-65.842l3.988 36.211 18.466 9.409 1.159-2.274 4.857 8.318-9.491.778 1.158-2.274-15.481-7.888 3.064 27.825s16.493 28.142 78.284 28.148c59.984-.007 71.141-28.073 71.141-28.073l10.786-70.104c-3.117 11.81-39.515 21.127-83.956 21.127-44.538.001-80.996-9.357-83.975-21.203m168.143-1.334l-.002.043.006-.04-.004-.003M214.787 252.672s-8.93 11.744-9.9 15.918c-.816 2.621-.097 11.939 9.697 12.036 10.2-.194 10.589-8.445 9.715-12.23-.875-3.784-9.512-15.724-9.512-15.724"/><path clip-path="url(#t)" fill="#66686A" d="M221.476 299.962c1.395 2.31 2.534 4.454 2.823 5.706.874 3.785.485 12.036-9.715 12.23-9.794-.098-10.513-9.415-9.697-12.036.306-1.316 1.402-3.385 2.761-5.6-39.738 1.762-70.116 11.055-70.457 22.284l.194 1.76c2.979 11.846 39.438 21.204 83.975 21.204 44.441 0 80.838-9.317 83.956-21.127a6.54 6.54 0 0 0 .211-1.368l.002-.043a6.14 6.14 0 0 0 .004-.235c-.001-12.567-37.625-22.757-84.057-22.775"/><path clip-path="url(#t)" fill="#9B9D9F" d="M214.787 289.945s-4.188 5.506-7.139 10.318c-1.359 2.215-2.456 4.283-2.761 5.6-.816 2.621-.097 11.938 9.697 12.036 10.2-.194 10.589-8.445 9.715-12.23-.289-1.252-1.428-3.396-2.823-5.706-2.821-4.672-6.689-10.018-6.689-10.018"/><path clip-path="url(#t)" fill="#7E8082" d="M313.362 233.17l-34.366 9.902 17.729-2.987 16.014-6.656.623-.259m-183.507-1.133l.003.002 5.918 3.098 17.379 5.531 22.291 3.787 22.669 2.814 35.136 1.164 28.903-2.523 6.39-1.076-45.105 3.017-61.835-7.764-31.749-8.05"/><path clip-path="url(#t)" fill="#1D1C1D" d="M141.373 360.518l.668 6.069 15.48 7.888-1.158 2.275 9.491-.779-4.856-8.318-1.16 2.274-18.465-9.409"/></g><path clip-path="url(#r)" fill="#E6E7E8" d="M240.966 382.39s1.99 14.619 4.255 18.256c1.276 2.43 8.373 8.511 15.368 1.654 7.075-7.351 1.516-13.459-1.778-15.518-3.295-2.058-17.845-4.392-17.845-4.392M277.614 444.333s-6.755 13.116-6.986 17.396c-.348 2.722 1.979 11.773 11.641 10.168 10.012-1.962 8.962-10.154 7.443-13.73-1.518-3.578-12.098-13.834-12.098-13.834M261.15 410.737s-3.13 14.418-2.244 18.611c.367 2.72 4.956 10.861 13.875 6.81 9.161-4.486 6.027-12.129 3.636-15.189-2.392-3.063-15.267-10.232-15.267-10.232"/><path clip-path="url(#r)" fill="#8A8C8E" d="M319.016 222.102c0 12.33-43.239 22.325-96.578 22.325-53.338 0-96.578-9.995-96.578-22.325 0-12.329 43.24-22.324 96.578-22.324s96.578 9.995 96.578 22.324m5.001 1.699c0-14.631-45.496-26.492-101.618-26.492S120.78 209.17 120.78 223.801s45.496 26.492 101.618 26.492 101.619-11.861 101.619-26.492"/><path clip-path="url(#r)" fill="#E6E7E8" d="M214.787 130.309s-8.93 11.745-9.9 15.918c-.816 2.621-.097 11.939 9.697 12.036 10.2-.194 10.589-8.445 9.715-12.23s-9.512-15.724-9.512-15.724M214.787 212.661s-8.93 11.744-9.9 15.918c-.816 2.621-.097 11.939 9.697 12.036 10.2-.194 10.589-8.445 9.715-12.23-.875-3.784-9.512-15.724-9.512-15.724M214.787 172.65s-8.93 11.744-9.9 15.918c-.816 2.621-.097 11.939 9.697 12.036 10.2-.194 10.589-8.445 9.715-12.23s-9.512-15.724-9.512-15.724"/><path clip-path="url(#r)" d="M367.997 373.97c0-.98.363-2.801 2.128-2.801s2.129 1.82 2.129 2.801c0 .979-.364 2.801-2.129 2.801s-2.128-1.821-2.128-2.801m-1.273 0c0 1.89 1.063 3.863 3.401 3.863 2.339 0 3.401-1.974 3.401-3.863 0-1.892-1.063-3.863-3.401-3.863s-3.401 1.972-3.401 3.863m-1.401-1.317c0-2.085-1.428-2.546-2.562-2.546-1.177 0-1.793.728-2.143 1.188h-.028v-3.708h-1.231v10.05h1.231v-3.99c0-1.848 1.036-2.436 2.045-2.436 1.176 0 1.456.644 1.456 1.638v4.788h1.231v-4.984zm-11.969-.686h.028l1.483 5.67h1.273l2.128-7.32h-1.231l-1.484 5.754h-.028l-1.427-5.754h-1.372l-1.414 5.754h-.027l-1.4-5.754h-1.343l2.112 7.32h1.274l1.428-5.67zm-14.813 1.43c0-1.135.896-2.186 2.031-2.186 1.497 0 1.975 1.051 2.045 2.186h-4.076zm4.02 1.945c-.042.546-.729 1.442-1.891 1.442-1.415 0-2.129-.883-2.129-2.409h5.348c0-2.591-1.035-4.269-3.148-4.269-2.424 0-3.514 1.805-3.514 4.072 0 2.115 1.216 3.668 3.275 3.668 1.176 0 1.652-.28 1.989-.503.922-.615 1.258-1.652 1.3-2.002h-1.23zm-6.834-7.755h-1.229v10.05h1.229v-10.05zm-9.14 12.948h1.229v-3.666h.028c.322.518.966.979 1.947.979 2.492 0 3.219-2.337 3.219-4.087 0-2.06-1.104-3.653-3.051-3.653-1.331 0-1.892.824-2.186 1.244h-.027v-1.034h-1.16v10.217zm1.174-6.215c0-1.189.196-3.108 1.975-3.108 1.905 0 2.004 1.807 2.004 2.745 0 1.609-.631 2.828-1.976 2.828-.785 0-2.003-.518-2.003-2.465m-8.008-.35c0-.98.364-2.801 2.129-2.801s2.129 1.82 2.129 2.801c0 .979-.364 2.801-2.129 2.801s-2.129-1.821-2.129-2.801m-1.273 0c0 1.89 1.063 3.863 3.401 3.863s3.401-1.974 3.401-3.863c0-1.892-1.063-3.863-3.401-3.863s-3.401 1.972-3.401 3.863m-6.399-.573c0-1.135.896-2.186 2.03-2.186 1.499 0 1.976 1.051 2.046 2.186h-4.076zm4.02 1.945c-.042.546-.729 1.442-1.891 1.442-1.415 0-2.129-.883-2.129-2.409h5.348c0-2.591-1.035-4.269-3.149-4.269-2.423 0-3.513 1.805-3.513 4.072 0 2.115 1.216 3.668 3.275 3.668 1.176 0 1.652-.28 1.989-.503.923-.615 1.258-1.652 1.3-2.002h-1.23zm-11.972-1.947h3.165c2.184 0 2.98-1.58 2.98-2.981 0-1.625-1.118-2.826-2.98-2.826h-4.521v10.05h1.356v-4.243zm0-4.648h2.759c1.12 0 1.989.406 1.989 1.682 0 1.358-.827 1.807-2.045 1.807h-2.703v-3.489z"/></g><g clip-path="url(#b)"><text transform="translate(373.526 377.638)" font-family="'HelveticaLTStd-Roman'" font-size="14"></text></g><g clip-path="url(#b)"><defs><path id="u" d="M0 510.236h453.543V0H0v510.236"/></defs><clipPath id="v"><use xlink:href="#u" overflow="visible"/></clipPath><path clip-path="url(#v)" d="M374.829 390.181c0-1.063.728-1.96 1.876-1.96h.462v-1.272a.996.996 0 0 0-.322-.042c-.924 0-1.567.574-2.058 1.427h-.028v-1.217h-1.16v7.321h1.23v-4.257zm-8.33.589c0-.98.364-2.801 2.129-2.801s2.129 1.82 2.129 2.801-.364 2.801-2.129 2.801-2.129-1.821-2.129-2.801m-1.272 0c0 1.891 1.063 3.863 3.401 3.863s3.401-1.973 3.401-3.863-1.063-3.863-3.401-3.863c-2.339 0-3.401 1.972-3.401 3.863m-10.404-.015c0-.938.098-2.744 2.003-2.744 1.778 0 1.975 1.918 1.975 3.109 0 1.946-1.219 2.464-2.003 2.464-1.345 0-1.975-1.217-1.975-2.829m5.222-6.369h-1.23v3.667l-.027.099c-.294-.42-.855-1.245-2.186-1.245-1.946 0-3.051 1.595-3.051 3.652 0 1.751.728 4.089 3.219 4.089.715 0 1.556-.225 2.087-1.218h.028v1.008h1.16v-10.052zm-12.895 5.811c0-1.135.896-2.186 2.031-2.186 1.498 0 1.976 1.051 2.045 2.186h-4.076zm4.021 1.944c-.042.548-.729 1.443-1.891 1.443-1.415 0-2.13-.882-2.13-2.409h5.349c0-2.59-1.035-4.269-3.149-4.269-2.423 0-3.513 1.805-3.513 4.073 0 2.114 1.216 3.668 3.275 3.668 1.176 0 1.652-.28 1.988-.505.923-.614 1.259-1.651 1.3-2.002h-1.229zm-7.968-1.96c0-1.063.728-1.96 1.876-1.96h.462v-1.272a.996.996 0 0 0-.322-.042c-.924 0-1.568.574-2.058 1.427h-.028v-1.217h-1.16v7.321h1.23v-4.257zm-3.248 4.257v-7.321h-1.23v4.032c0 1.063-.463 2.436-2.017 2.436-.799 0-1.415-.406-1.415-1.61v-4.857h-1.23v5.264c0 1.749 1.301 2.268 2.379 2.268 1.177 0 1.807-.448 2.325-1.302l.028.028v1.063h1.16zm-7.168-4.858c-.099-1.274-.826-2.673-2.744-2.673-2.422 0-3.512 1.805-3.512 4.073 0 2.114 1.216 3.668 3.273 3.668 2.143 0 2.856-1.638 2.982-2.8h-1.19c-.21 1.12-.924 1.736-1.75 1.736-1.693 0-2.002-1.554-2.002-2.814 0-1.303.49-2.759 2.017-2.759 1.035 0 1.582.588 1.735 1.568h1.191zm-16.478.617c0-1.135.896-2.186 2.031-2.186 1.498 0 1.975 1.051 2.045 2.186h-4.076zm4.02 1.944c-.042.548-.729 1.443-1.892 1.443-1.415 0-2.129-.882-2.129-2.409h5.349c0-2.59-1.035-4.269-3.149-4.269-2.423 0-3.513 1.805-3.513 4.073 0 2.114 1.216 3.668 3.274 3.668 1.177 0 1.653-.28 1.989-.505.923-.614 1.258-1.651 1.3-2.002h-1.229zm-7.968-1.96c0-1.063.728-1.96 1.876-1.96h.462v-1.272a1 1 0 0 0-.322-.042c-.924 0-1.568.574-2.058 1.427h-.028v-1.217h-1.16v7.321h1.23v-4.257zm-4.716 1.724c0 .979-1.121 1.722-2.269 1.722-.925 0-1.331-.476-1.331-1.273 0-.925.966-1.106 1.569-1.19 1.525-.197 1.835-.309 2.03-.463v1.204zm-3.376-2.564c.084-.56.28-1.414 1.682-1.414 1.162 0 1.723.42 1.723 1.19 0 .728-.351.84-.645.868l-2.031.252c-2.043.252-2.225 1.681-2.225 2.297 0 1.26.95 2.113 2.294 2.113 1.43 0 2.172-.672 2.648-1.189.041.56.209 1.119 1.3 1.119.28 0 .462-.084.672-.14v-.896a2.34 2.34 0 0 1-.405.056c-.252 0-.406-.126-.406-.434v-4.215c0-1.875-2.127-2.043-2.715-2.043-1.808 0-2.969.685-3.024 2.435h1.132z"/></g><g clip-path="url(#b)"><text transform="translate(377.167 394.438)" font-family="'HelveticaLTStd-Roman'" font-size="14"></text></g><g clip-path="url(#b)"><defs><path id="w" d="M0 510.236h453.543V0H0v510.236"/></defs><clipPath id="x"><use xlink:href="#w" overflow="visible"/></clipPath><path clip-path="url(#x)" d="M381.633 406.997c0-1.135.896-2.186 2.031-2.186 1.498 0 1.974 1.051 2.044 2.186h-4.075zm4.018 1.945c-.042.546-.728 1.443-1.89 1.443-1.415 0-2.129-.883-2.129-2.41h5.348c0-2.59-1.035-4.268-3.148-4.268-2.424 0-3.515 1.805-3.515 4.071 0 2.115 1.218 3.668 3.276 3.668 1.176 0 1.652-.279 1.988-.503.923-.615 1.259-1.651 1.301-2.002h-1.231zm-9.071.939h-.028l-1.904-5.964h-1.428l2.674 7.319h1.315l2.786-7.319h-1.345l-2.07 5.964zm-5.601-1.177c0 .981-1.12 1.724-2.269 1.724-.924 0-1.331-.477-1.331-1.275 0-.924.967-1.105 1.568-1.189 1.527-.196 1.835-.309 2.031-.462v1.202zm-3.375-2.563c.084-.561.28-1.414 1.681-1.414 1.162 0 1.723.42 1.723 1.19 0 .729-.351.841-.645.868l-2.03.252c-2.043.253-2.226 1.681-2.226 2.297 0 1.26.951 2.112 2.295 2.112 1.43 0 2.171-.671 2.647-1.188.042.559.21 1.118 1.3 1.118.28 0 .462-.084.672-.141v-.894c-.14.027-.294.056-.406.056-.252 0-.405-.126-.405-.434v-4.216c0-1.875-2.126-2.042-2.714-2.042-1.808 0-2.969.685-3.024 2.434h1.132zm-7.911.856c0-1.135.897-2.186 2.031-2.186 1.499 0 1.975 1.051 2.045 2.186h-4.076zm4.021 1.945c-.042.546-.729 1.443-1.892 1.443-1.414 0-2.129-.883-2.129-2.41h5.349c0-2.59-1.034-4.268-3.149-4.268-2.422 0-3.513 1.805-3.513 4.071 0 2.115 1.217 3.668 3.274 3.668 1.178 0 1.653-.279 1.989-.503.923-.615 1.259-1.651 1.301-2.002h-1.23zm-6.833-7.755h-1.23v10.05h1.23v-10.05zm-11.97 5.81c0-1.135.896-2.186 2.03-2.186 1.498 0 1.975 1.051 2.044 2.186h-4.074zm4.019 1.945c-.042.546-.728 1.443-1.89 1.443-1.415 0-2.129-.883-2.129-2.41h5.348c0-2.59-1.035-4.268-3.149-4.268-2.423 0-3.514 1.805-3.514 4.071 0 2.115 1.217 3.668 3.276 3.668 1.176 0 1.651-.279 1.987-.503.923-.615 1.26-1.651 1.302-2.002h-1.231zm-6.833-7.755h-1.229v1.398h1.229v-1.398zm0 2.73h-1.229v7.319h1.229v-7.319zm-8.191 3.639c0-.938.099-2.745 2.004-2.745 1.778 0 1.975 1.919 1.975 3.109 0 1.946-1.219 2.465-2.003 2.465-1.345 0-1.976-1.218-1.976-2.829m5.223-6.369h-1.23v3.666l-.027.098c-.294-.42-.855-1.243-2.186-1.243-1.947 0-3.051 1.594-3.051 3.652 0 1.75.727 4.087 3.219 4.087.714 0 1.554-.224 2.087-1.216h.028v1.006h1.16v-10.05zm-16.899 6.383c0-.979.364-2.801 2.129-2.801 1.766 0 2.129 1.821 2.129 2.801 0 .98-.363 2.801-2.129 2.801-1.764 0-2.129-1.821-2.129-2.801m-1.271 0c0 1.891 1.062 3.863 3.4 3.863s3.401-1.973 3.401-3.863-1.063-3.862-3.401-3.862-3.4 1.971-3.4 3.862m-1.402-1.317c0-2.085-1.426-2.546-2.561-2.546-1.178 0-1.793.727-2.144 1.188h-.028v-3.708h-1.229v10.05h1.229v-3.99c0-1.848 1.036-2.436 2.046-2.436 1.177 0 1.457.644 1.457 1.638v4.788h1.229v-4.984zm-11.969-.686h.027l1.484 5.67h1.273l2.128-7.319h-1.232l-1.482 5.754h-.028l-1.428-5.754h-1.372l-1.414 5.754h-.028l-1.398-5.754h-1.345l2.113 7.319h1.274l1.428-5.67z"/></g><g clip-path="url(#b)"><text transform="translate(386.98 411.238)" font-family="'HelveticaLTStd-Roman'" font-size="14"></text></g><g clip-path="url(#b)"><defs><path id="y" d="M0 510.236h453.543V0H0v510.236"/></defs><clipPath id="z"><use xlink:href="#y" overflow="visible"/></clipPath><path clip-path="url(#z)" d="M359.304 419.469h.742c0 .476-.014 1.315-.742 1.428v.658c1.133-.267 1.455-1.12 1.455-2.198v-1.37h-1.455v1.482zm-2.31 0h.742c0 .476-.015 1.315-.742 1.428v.658c1.133-.267 1.455-1.12 1.455-2.198v-1.37h-1.455v1.482zm-1.304-1.482h-1.229v10.05h1.229v-10.05zm-8.189 6.383c0-.979.364-2.801 2.129-2.801 1.764 0 2.129 1.821 2.129 2.801 0 .98-.365 2.802-2.129 2.802-1.765-.001-2.129-1.822-2.129-2.802m-1.272 0c0 1.891 1.063 3.863 3.401 3.863s3.401-1.973 3.401-3.863-1.063-3.862-3.401-3.862c-2.339-.001-3.401 1.971-3.401 3.862m-6.512 0c0-.979.364-2.801 2.129-2.801 1.766 0 2.129 1.821 2.129 2.801 0 .98-.363 2.802-2.129 2.802-1.765-.001-2.129-1.822-2.129-2.802m-1.272 0c0 1.891 1.062 3.863 3.4 3.863s3.401-1.973 3.401-3.863-1.063-3.862-3.401-3.862c-2.338-.001-3.4 1.971-3.4 3.862m-7.463 6.565h1.23v-3.666h.028c.321.517.966.978 1.946.978 2.492 0 3.22-2.337 3.22-4.087 0-2.059-1.105-3.652-3.052-3.652-1.33 0-1.891.823-2.185 1.244h-.028v-1.034h-1.16v10.217zm1.175-6.215c0-1.19.195-3.109 1.975-3.109 1.905 0 2.003 1.808 2.003 2.745 0 1.61-.631 2.829-1.975 2.829-.785 0-2.003-.518-2.003-2.465m-4.661-4.745h-.743c0-.476.014-1.316.743-1.428v-.658c-1.134.266-1.455 1.12-1.455 2.198v1.37h1.455v-1.482zm2.309 0h-.742c0-.476.015-1.316.742-1.428v-.658c-1.133.266-1.454 1.12-1.454 2.198v1.37h1.454v-1.482zm-13.678 3.822c0-1.136.896-2.187 2.031-2.187 1.498 0 1.975 1.051 2.045 2.187h-4.076zm4.019 1.945c-.042.546-.729 1.443-1.891 1.443-1.415 0-2.129-.883-2.129-2.41h5.348c0-2.59-1.035-4.268-3.148-4.268-2.423 0-3.514 1.805-3.514 4.071 0 2.115 1.217 3.668 3.275 3.668 1.176 0 1.653-.279 1.989-.503.923-.614 1.258-1.651 1.3-2.002h-1.23zm-6.805-2.689c0-2.085-1.426-2.546-2.561-2.546-1.178 0-1.793.727-2.144 1.188h-.027v-3.708h-1.23v10.05h1.23v-3.989c0-1.849 1.036-2.437 2.045-2.437 1.177 0 1.457.645 1.457 1.639v4.787h1.229v-4.984zm-7.168-1.316v-1.02h-1.176v-2.044h-1.23v2.044h-.994v1.02h.994v4.832c0 .881.266 1.566 1.482 1.566.126 0 .476-.057.924-.099v-.964h-.434c-.252 0-.742 0-.742-.573v-4.763h1.176z"/></g><path clip-path="url(#b)" fill="#282829" d="M290.051 456.16l-1.806-1.805 20.661-20.66-3.608-3.61-20.661 20.661-1.805-1.804-2.193 9.266z"/></svg>