<svg version="1.1" xmlns="http://www.w3.org/2000/svg" xmlns:xlink="http://www.w3.org/1999/xlink" x="0" y="0" width="510.236" height="510.236" viewBox="0 0 510.236 510.236" xml:space="preserve"><defs><path id="a" d="M0 0h510.236v510.236H0z"/></defs><clipPath id="b"><use xlink:href="#a" overflow="visible"/></clipPath><path clip-path="url(#b)" fill="#282829" d="M14.173 246.564c0 117.017 101.09 211.878 225.79 211.878 62.08 0 118.303-23.515 159.121-61.565l.164-14.913-15.2 1.054c-36.993 34.397-87.892 55.649-144.084 55.649-113.061 0-204.716-86.008-204.716-192.103 0-51.711 21.78-98.643 57.192-133.177l-.077-.072-14.227-.437-.749-13.329C38.25 137.65 14.173 189.466 14.173 246.564"/><path clip-path="url(#b)" fill="#4D4D4F" d="M163.053 263.11s-7.449 0-12.653 5.33L27.944 393.871s-5.204 5.329 2.245 5.329h310.535s7.449 0 12.652-5.329L475.833 268.44s5.204-5.33-2.244-5.33H163.053z"/><path clip-path="url(#b)" fill="#808285" d="M166.468 130.878s-7.449 0-7.449 7.449V264.68s0 7.45 7.449 7.45h253.48s7.449 0 7.449-7.45V138.328s0-7.449-7.449-7.449h-253.48z"/><path clip-path="url(#b)" fill="#9D9FA2" d="M144.103 153.243s-7.449 0-7.449 7.449v126.354s0 7.449 7.449 7.449h253.48s7.45 0 7.45-7.449V160.692s0-7.449-7.45-7.449h-253.48z"/><path clip-path="url(#b)" fill="#BCBEC0" d="M121.738 175.608s-7.449 0-7.449 7.449V309.41s0 7.45 7.449 7.45h253.479s7.45 0 7.45-7.45V183.057s0-7.449-7.45-7.449H121.738z"/><path clip-path="url(#b)" fill="#DCDDDE" d="M99.373 197.973s-7.449 0-7.449 7.449v126.354s0 7.449 7.449 7.449h253.48s7.449 0 7.449-7.449V205.422s0-7.449-7.449-7.449H99.373z"/><path clip-path="url(#b)" fill="#F1F2F2" d="M77.008 220.338s-7.449 0-7.449 7.449v126.354s0 7.449 7.449 7.449h253.48s7.45 0 7.45-7.449V227.787s0-7.449-7.45-7.449H77.008z"/><path clip-path="url(#b)" fill="#D1D3D4" d="M251.979 374.329c39.663 0 71.815-23.891 71.815-53.36 0-29.472-32.152-53.362-71.815-53.362s-71.816 23.891-71.816 53.362c.001 29.469 32.153 53.36 71.816 53.36M104.591 374.329c26.007 0 47.09-23.891 47.09-53.36 0-29.472-21.083-53.362-47.09-53.362-26.007 0-47.091 23.891-47.091 53.362 0 29.469 21.084 53.36 47.091 53.36"/><path fill="#B1B3B6" d="M468.523 241.606l-238.422 235.52 24.629-.103 238.424-235.417 2.909-11.933z"/><defs><path id="c" d="M0 0h510.236v510.236H0z"/></defs><clipPath id="d"><use xlink:href="#c" overflow="visible"/></clipPath><path clip-path="url(#d)" fill="#282829" d="M466.518 244.986c0-117.017-101.09-211.878-225.79-211.878-62.08 0-118.303 23.515-159.121 61.565l-.164 14.914 15.2-1.054c36.993-34.398 87.892-55.65 144.085-55.65 113.061 0 204.716 86.008 204.716 192.103 0 51.711-21.779 98.644-57.192 133.178l.077.07 14.227.438.749 13.329c39.136-38.101 63.213-89.917 63.213-147.015"/><path clip-path="url(#d)" fill="#939598" d="M111.44 307.583a7.749 7.749 0 0 0-15.496 0 7.747 7.747 0 0 0 7.748 7.747 7.747 7.747 0 0 0 7.748-7.747m6.49 12.271c-1.947-2.077-3.985-1.917-3.985-1.917H93.439s-2.038-.16-3.985 1.917c-3.292 3.511-2.463 7.168-2.463 7.168v25.841s.265 2.655 3.274 2.478c3.009-.177 2.602-2.213 2.602-2.213v-22.904l.926-.09v34.899h8.795v-9.515h2.208v9.515h8.795v-34.899l.926.09v22.904s-.407 2.036 2.602 2.213c3.009.178 3.274-2.478 3.274-2.478v-25.841s.829-3.657-2.463-7.168"/><path clip-path="url(#d)" fill="#808285" d="M291.521 292.37c-3.422-3.228-4.082-5.287-4.082-5.287l-.777-23.402s.128-.498.232-.865v-2.245s.023-.162-.101-.287c-.14-.141-.288-.102-.288-.102v-1.205s0-.622-.194-.854c-.304-.365-.825-.351-.825-.351s-1.079-.232-3.655-.232c-2.575 0-3.634.232-3.634.232s-.522-.015-.826.351c-.194.232-.194.854-.194.854v1.205s-.147-.039-.288.102c-.125.125-.101.287-.101.287v2.245c.104.367.233.865.233.865l-.777 23.402s-.661 2.06-4.082 5.287c-3.421 2.838-3.071 6.063-3.071 6.063v61.93s-.039 1.514 1.088 2.484c1.078.93 4.813 1.05 4.813 1.05h13.701s3.733-.12 4.813-1.05c1.127-.971 1.088-2.484 1.088-2.484v-61.93c-.002 0 .348-3.225-3.073-6.063"/><path clip-path="url(#d)" fill="#FFF" d="M279.812 291.006h-2.177s-2.088 2.149-3.565 6.599c-1.853 4.552-.551 48.727-.123 61.764.075 2.277 2.043 3.604 2.043 3.604h2.178s-1.934-1.456-1.951-3.938c-.1-13.669-.355-58.405.497-61.603.932-3.499 3.098-6.426 3.098-6.426m-.184-31.749l.068-1.167h-.855s-.155 0-.164.156l-.069 1.166h.855c0 .001.156.001.165-.155m.07 3.383v-2.295s0-.154-.155-.154h-.809s-.155 0-.155.154v2.295s0 .154.155.154h.809s.155 0 .155-.154m.275 24.259l-.274-23.288s0-.155-.155-.155h-.809s-.155 0-.155.155l-.274 23.014s0 .155.155.155l1.356.274c-.001 0 .156 0 .156-.155"/><path clip-path="url(#d)" fill="#F1F2F2" d="M274.521 309.084c-.838-7.384-4.169-14.047-4.169-14.047h-20.213s-3.331 6.663-4.168 14.047c0 0 7.928.777 14.275.777 6.347.001 14.275-.777 14.275-.777"/><path clip-path="url(#d)" fill="#414042" d="M245.97 309.084c-.328 2.895-.274 5.898.514 8.656 2.799 9.796 10.418 13.063 10.418 13.063s.337.1.777.637c.56.684.467 1.151.467 1.151l.312 24.646s-.267 1.07-.778 1.555c-1.477 1.399-10.34 1.556-10.263 4.198.098 3.305 12.83 3.421 12.83 3.421s12.73-.116 12.827-3.421c.078-2.643-8.784-2.799-10.263-4.198-.511-.484-.777-1.555-.777-1.555l.312-24.646s-.093-.468.466-1.151c.44-.537.778-.637.778-.637s7.619-3.267 10.418-13.063c.788-2.758.843-5.762.514-8.656 0 0-7.911.777-14.274.777-6.367.001-14.278-.777-14.278-.777"/><path clip-path="url(#d)" fill="#FFF" d="M252.52 298.278l4.586.078s-4.02 11.293-4.198 16.638c-.311 9.33 3.421 13.218 3.421 13.218s-5.655-5.049-6.531-13.373c-.621-5.91 2.722-16.561 2.722-16.561"/><path clip-path="url(#d)" fill="#414042" d="M298.068 329.623l2.739 1.635v7.879l-3.895.076c.387-3.197.772-6.393 1.156-9.59"/><path clip-path="url(#d)" fill="none" stroke="#FFF" stroke-width=".067" d="M298.068 329.623l2.739 1.635v7.879l-3.895.076c.387-3.197.772-6.393 1.156-9.59z"/><path clip-path="url(#d)" fill="#282829" d="M277.831 330.842c6.74-.427 13.48-.853 20.222-1.278.358 2.336.718 4.672 1.078 7.008l-19.646.891-1.654-6.621"/><path clip-path="url(#d)" fill="none" stroke="#FFF" stroke-width=".067" d="M277.831 330.842c6.74-.427 13.48-.853 20.222-1.278.358 2.336.718 4.672 1.078 7.008l-19.646.891-1.654-6.621z"/><path clip-path="url(#d)" fill="#9D9FA2" d="M276.524 335.898v9.72s0 .195 1.498.195c1.497 0 1.497-.195 1.497-.195v-9.72s-.052-.389-1.527-.389-1.468.389-1.468.389"/><path clip-path="url(#d)" fill="none" stroke="#000" stroke-width=".067" d="M276.524 335.898v9.72s0 .195 1.498.195c1.497 0 1.497-.195 1.497-.195v-9.72s-.052-.389-1.527-.389-1.468.389-1.468.389z"/><path clip-path="url(#d)" fill="#DCDDDE" d="M276.524 345.685v9.651h2.995v-9.651s0 .192-1.497.192c-1.498 0-1.498-.192-1.498-.192"/><path clip-path="url(#d)" fill="none" stroke="#000" stroke-width=".067" d="M276.524 345.685v9.651h2.995v-9.651s0 .192-1.497.192c-1.498 0-1.498-.192-1.498-.192z"/><path clip-path="url(#d)" fill="#9D9FA2" d="M290.647 335.076v9.72s0 .193 1.497.195c1.498 0 1.498-.195 1.498-.195v-9.72s-.051-.39-1.527-.39c-1.475 0-1.468.39-1.468.39"/><path clip-path="url(#d)" fill="none" stroke="#000" stroke-width=".067" d="M290.647 335.076v9.72s0 .193 1.497.195c1.498 0 1.498-.195 1.498-.195v-9.72s-.051-.39-1.527-.39c-1.475 0-1.468.39-1.468.39z"/><path clip-path="url(#d)" fill="#DCDDDE" d="M290.647 344.828v9.687h2.995v-9.687s0 .194-1.498.194c-1.497 0-1.497-.194-1.497-.194"/><path clip-path="url(#d)" fill="none" stroke="#000" stroke-width=".067" d="M290.647 344.828v9.687h2.995v-9.687s0 .194-1.498.194c-1.497 0-1.497-.194-1.497-.194z"/><path clip-path="url(#d)" fill="#9D9FA2" d="M279.065 335.898v9.72s0 .195 1.498.195c1.497 0 1.497-.195 1.497-.195v-9.72s-.051-.389-1.526-.389c-1.476 0-1.469.389-1.469.389"/><path clip-path="url(#d)" fill="none" stroke="#000" stroke-width=".067" d="M279.065 335.898v9.72s0 .195 1.498.195c1.497 0 1.497-.195 1.497-.195v-9.72s-.051-.389-1.526-.389c-1.476 0-1.469.389-1.469.389z"/><path clip-path="url(#d)" fill="#DCDDDE" d="M279.065 345.685v9.651h2.995v-9.651s0 .192-1.497.192c-1.498 0-1.498-.192-1.498-.192"/><path clip-path="url(#d)" fill="none" stroke="#000" stroke-width=".067" d="M279.065 345.685v9.651h2.995v-9.651s0 .192-1.497.192c-1.498 0-1.498-.192-1.498-.192z"/><path clip-path="url(#d)" fill="#9D9FA2" d="M293.189 335.076v9.72s0 .193 1.498.195c1.496 0 1.496-.195 1.496-.195v-9.72s-.051-.39-1.526-.39c-1.476 0-1.468.39-1.468.39"/><path clip-path="url(#d)" fill="none" stroke="#000" stroke-width=".067" d="M293.189 335.076v9.72s0 .193 1.498.195c1.496 0 1.496-.195 1.496-.195v-9.72s-.051-.39-1.526-.39c-1.476 0-1.468.39-1.468.39z"/><path clip-path="url(#d)" fill="#DCDDDE" d="M293.189 344.829v9.686h2.994v-9.686s0 .194-1.496.194c-1.498 0-1.498-.194-1.498-.194"/><path clip-path="url(#d)" fill="none" stroke="#000" stroke-width=".067" d="M293.189 344.829v9.686h2.994v-9.686s0 .194-1.496.194c-1.498 0-1.498-.194-1.498-.194z"/><path clip-path="url(#d)" fill="#9D9FA2" d="M281.714 323.501v9.721s0 .193 1.498.194c1.497 0 1.497-.194 1.497-.194v-9.721s-.051-.389-1.527-.389c-1.476.001-1.468.389-1.468.389"/><path clip-path="url(#d)" fill="none" stroke="#000" stroke-width=".067" d="M281.714 323.501v9.721s0 .193 1.498.194c1.497 0 1.497-.194 1.497-.194v-9.721s-.051-.389-1.527-.389c-1.476.001-1.468.389-1.468.389z"/><path clip-path="url(#d)" fill="#DCDDDE" d="M281.714 333.254v9.687h2.995v-9.687s0 .194-1.497.194c-1.498.001-1.498-.194-1.498-.194"/><path clip-path="url(#d)" fill="none" stroke="#000" stroke-width=".067" d="M281.714 333.254v9.687h2.995v-9.687s0 .194-1.497.194c-1.498.001-1.498-.194-1.498-.194z"/><path clip-path="url(#d)" fill="#9D9FA2" d="M284.789 325.951v9.721s0 .193 1.498.194c1.497 0 1.497-.194 1.497-.194v-9.721s-.051-.389-1.526-.389c-1.477 0-1.469.389-1.469.389"/><path clip-path="url(#d)" fill="none" stroke="#000" stroke-width=".067" d="M284.789 325.951v9.721s0 .193 1.498.194c1.497 0 1.497-.194 1.497-.194v-9.721s-.051-.389-1.526-.389c-1.477 0-1.469.389-1.469.389z"/><path clip-path="url(#d)" fill="#DCDDDE" d="M284.79 335.704v9.686h2.994v-9.686s0 .194-1.498.194c-1.496 0-1.496-.194-1.496-.194"/><path clip-path="url(#d)" fill="none" stroke="#000" stroke-width=".067" d="M284.79 335.704v9.686h2.994v-9.686s0 .194-1.498.194c-1.496 0-1.496-.194-1.496-.194z"/><path clip-path="url(#d)" fill="#9D9FA2" d="M287.929 328.357v9.72s0 .193 1.498.194c1.497 0 1.497-.194 1.497-.194v-9.72s-.051-.39-1.526-.39c-1.477 0-1.469.39-1.469.39"/><path clip-path="url(#d)" fill="none" stroke="#000" stroke-width=".067" d="M287.929 328.357v9.72s0 .193 1.498.194c1.497 0 1.497-.194 1.497-.194v-9.72s-.051-.39-1.526-.39c-1.477 0-1.469.39-1.469.39z"/><path clip-path="url(#d)" fill="#DCDDDE" d="M287.929 338.109v9.687h2.995v-9.687s0 .194-1.497.194c-1.498 0-1.498-.194-1.498-.194"/><path clip-path="url(#d)" fill="none" stroke="#000" stroke-width=".067" d="M287.929 338.109v9.687h2.995v-9.687s0 .194-1.497.194c-1.498 0-1.498-.194-1.498-.194z"/><path clip-path="url(#d)" fill="#4D4D4F" d="M296.415 369.491v-33.979l-2.966.181V339c0 3.284-1.802 3.428-1.819 3.429h-10.81c-.649.062-1.212-.126-1.665-.558-1.513-1.439-1.362-5.182-1.361-5.22-.562.03-1.121.065-1.683.1.026 9.982.053 19.967.077 29.949l20.227 2.791"/><path clip-path="url(#d)" fill="none" stroke="#FFF" stroke-width=".067" d="M296.415 369.491v-33.979l-2.966.181V339c0 3.284-1.802 3.428-1.819 3.429h-10.81c-.649.062-1.212-.126-1.665-.558-1.513-1.439-1.362-5.182-1.361-5.22-.562.03-1.121.065-1.683.1.026 9.982.053 19.967.077 29.949l20.227 2.791z"/><path clip-path="url(#d)" fill="#414042" d="M296.481 335.522v33.932l2.655-2.427v-30.595l-2.655-.91"/><path clip-path="url(#d)" fill="none" stroke="#FFF" stroke-width=".067" d="M296.481 335.522v33.932l2.655-2.427v-30.595l-2.655-.91z"/><path clip-path="url(#d)" fill="#939598" d="M209.525 359.299v.029s0 9.721 9.721 9.721h30.582s9.721 0 9.721-9.721v-.029h-50.024z"/><path clip-path="url(#d)" fill="#F1F2F2" d="M221.396 357.391s6.889 5.379 7.074 6.386c.089.48-.794 2.332.716 2.385 1.749-.079.265-1.378.954-2.04.471-.454 14.784-5.882 14.784-5.882l-23.528-.849z"/><path clip-path="url(#d)" fill="#A7A9AC" d="M206.583 361.076s-.135.407.212 1.219c.347.813.742 1.113.742 1.113s3.833.117 9.273-1.166c5.618-1.325 12.665-3.869 12.665-3.869l-14.89-2.119s-3.648 1.121-5.988 2.543c-2.34 1.423-2.014 2.279-2.014 2.279"/><path clip-path="url(#d)" fill="#808285" d="M206.583 361.076s-.135.407.212 1.219c.347.813.742 1.113.742 1.113s3.833.117 9.273-1.166c5.618-1.325 12.665-3.869 12.665-3.869l-3.828-.502s-3.4 1.241-9.485 2.491c-7.737 1.59-9.579.714-9.579.714"/><path clip-path="url(#d)" fill="#8A8C8E" d="M213.977 357.498c-.848-.424-5.299 2.066-5.405 2.597-.106.53 1.378.635 2.861.053 1.484-.584 3.392-2.227 2.544-2.65M214.506 359.67c-.848-.159 1.59-2.12 1.59-2.12s2.225.636 2.49 1.113c.266.477-3.232 1.167-4.08 1.007"/><path clip-path="url(#d)" fill="#A7A9AC" d="M262.941 361.263s.135.406-.213 1.219c-.347.812-.741 1.113-.741 1.113s-3.833.116-9.273-1.166c-5.618-1.325-12.665-3.869-12.665-3.869l14.89-2.119s3.648 1.121 5.988 2.543c2.34 1.423 2.014 2.279 2.014 2.279"/><path clip-path="url(#d)" fill="#808285" d="M262.941 361.263s.135.406-.213 1.219c-.347.812-.741 1.113-.741 1.113s-3.833.116-9.273-1.166c-5.618-1.325-12.665-3.869-12.665-3.869l3.828-.502s3.4 1.241 9.485 2.491c7.737 1.59 9.579.714 9.579.714"/><path clip-path="url(#d)" fill="#8A8C8E" d="M255.548 357.684c.848-.424 5.299 2.067 5.405 2.598.105.529-1.378.636-2.861.053-1.485-.584-3.392-2.227-2.544-2.651M255.018 359.857c.849-.159-1.589-2.12-1.589-2.12s-2.225.636-2.49 1.113c-.266.477 3.231 1.166 4.079 1.007"/><path clip-path="url(#d)" fill="#58595B" d="M209.79 354.053s-1.855 0-1.855 1.854l-.159.954s-.636 2.172 2.014 2.014c0 0 13.619-1.008 19.024.053 2.405.472 6.334.882 12.771-.053 6.571-.954 19.289.265 19.289.265s.795-.265.795-2.119v-1.113s0-1.854-1.854-1.854H209.79z"/><path clip-path="url(#d)" fill="#58595B" d="M208.818 348.518s-1.876 0-1.876 1.855l-.161.954s-.643 2.172 2.037 2.013c0 0 13.776-1.007 19.243.053 2.433.472 6.407.882 12.919-.053 6.646-.954 19.511.265 19.511.265s.804-.265.804-2.119v-1.112s0-1.855-1.876-1.855h-50.601z"/><path clip-path="url(#d)" fill="#F1F2F2" d="M212.122 353.818l12.983-.134 7.286-.794 6.094 1.324h5.83l5.166.266 8.347-.53 2.517.53.794.662s.822 4.001.106 4.001c-.238.266-.37-1.536-2.623-1.483-1.086 0-1.775.795-2.518.795-.741 0-1.113-.53-1.722-.53s-1.934 1.378-2.12 1.855c-.185.476.716 2.755-.265 2.914-.98.159-.927-.795-.927-1.457 0-.663.265-1.245.397-1.723.133-.477.769-1.112.265-1.324-.503-.212-1.298.053-1.722.795-.424.741 1.007 4.716-.53 4.636-1.431-.074-.212-3.841-.318-4.636s-.371-.795-.636-.795c-.212 0-.582.105-.635 1.06-.086 1.534.741 2.861-.795 2.252-1.007-.398-.053-1.881-.053-1.881s.373-.473-.106-1.431c-.265-.53-.159-.371-1.166-.742s-.636-.689-2.12-.636c-1.484.053-1.166.529-3.179.583-2.014.053-1.855-1.061-2.65-1.061-1.749.106.106 2.491-1.537 2.385-2.178-.141-.291-1.324-1.007-1.961-.715-.636-1.536-.848-3.497-.954-1.961-.105-4.345-.424-5.087-.132-.742.291-.795 1.033-2.517.795-1.723-.238-1.087-.98-2.517-1.458-1.431-.477-3.233-.424-4.902-.132-1.669.291-2.411.45-2.782 1.061-.371.608.53 1.563-.663 1.589-1.192.026-1.404-1.563-1.192-2.119.212-.558.477-.451.53-.928.054-.478-.529-.662-.529-.662"/><path clip-path="url(#d)" fill="#BCBEC0" d="M208.253 355.908c-.689-.053-1.484-.583-1.59-1.802s1.537-1.59 1.537-1.59 1.007-.265 3.021-.054c2.013.212 1.642.53 2.596.583.954.054 3.074-1.165 5.458-1.271 2.385-.106 4.558.741 6.041.741 1.484 0 4.929-1.748 7.578-1.536 2.65.212 4.293 1.907 5.935 2.172 1.643.265 4.452-1.643 6.836-1.589 2.385.053 3.922 1.165 5.299 1.218 1.378.053 2.173-.794 5.194-.9 3.021-.105 3.497.371 4.558.741 1.06.371 2.861-.582 3.179 1.113.318 1.696-1.536 2.385-2.331 2.491-.795.105-.636-.742-1.802-1.008-1.166-.265-7.472.318-9.591.53-2.12.212-6.783-.371-9.38-.742-2.597-.37-7.896.425-9.856.212-1.961-.212-8.479-.582-10.546-.529-2.067.053-7.048.105-8.214.212-1.165.105-1.165.848-2.331.53-1.167-.317-.902.53-1.591.478"/><path clip-path="url(#d)" fill="#A7A9AC" d="M207.936 352.834c.742-.371-.265-.742.477-1.325s3.391.212 5.087 0 .795-.53 1.431-.583c.636-.053 1.643.848 1.802 1.537.159.688-1.06 2.968.318 2.756 1.377-.212.265-2.067.424-2.756.159-.689.106-.742.688-.795.583-.054.742.317.795.795.053.477-.901 2.809.371 2.809s.477-2.173.583-2.756.106-.848.689-.954c.583-.105.636 0 .742.478.106.477-1.06 2.066.318 2.066s.212-1.271.53-2.014 2.437-1.749 3.497-1.908 2.385.742 3.18.742c.795 0 1.855-.636 2.808-.795.954-.159 1.06-.318 1.378.159.318.477-1.431 2.649.212 2.756 1.643.105.265-2.332.689-2.756.424-.425 3.233-1.431 5.246-1.536 2.014-.106 4.452.899 6.041.636 1.59-.265 1.643-.265 3.127-.636 1.484-.371 6.518-1.432 7.207-.954.689.477.53.212.478.795-.054.583-1.113 3.656.159 3.656 1.271 0 .74-3.232 1.006-3.709.265-.478-.212-.318.265-.795.477-.478 3.445-.849 3.445-.849l-1.537-1.961-17.169.849-11.764-.689-7.684 1.06-11.87 2.227s-2.756-.849-3.551.583c-.795 1.43-.477 2.384-.318 2.967.157.582.157 1.272.9.9"/><path clip-path="url(#d)" fill="#F1F2F2" d="M248.129 344.911s-6.889 5.379-7.074 6.386c-.089.48.794 2.331-.716 2.384-1.749-.079-.265-1.378-.954-2.04-.471-.454-14.784-5.882-14.784-5.882l23.528-.848z"/><path clip-path="url(#d)" fill="#A7A9AC" d="M262.941 348.595s.135.406-.213 1.219c-.347.812-.741 1.113-.741 1.113s-3.833.116-9.273-1.166c-5.618-1.325-12.665-3.869-12.665-3.869l14.89-2.119s3.648 1.121 5.988 2.543c2.34 1.423 2.014 2.279 2.014 2.279"/><path clip-path="url(#d)" fill="#808285" d="M262.941 348.595s.135.406-.213 1.219c-.347.812-.741 1.113-.741 1.113s-3.833.116-9.273-1.166c-5.618-1.325-12.665-3.869-12.665-3.869l3.828-.502s3.4 1.24 9.485 2.49c7.737 1.591 9.579.715 9.579.715"/><path clip-path="url(#d)" fill="#8A8C8E" d="M255.548 345.016c.848-.424 5.299 2.067 5.405 2.598.105.529-1.378.635-2.861.053-1.485-.584-3.392-2.226-2.544-2.651M255.018 347.189c.849-.159-1.589-2.12-1.589-2.12s-2.225.636-2.49 1.113c-.266.477 3.231 1.166 4.079 1.007"/><path clip-path="url(#d)" fill="#A7A9AC" d="M206.583 348.782s-.135.407.212 1.219c.347.813.742 1.113.742 1.113s3.833.117 9.273-1.166c5.618-1.325 12.665-3.869 12.665-3.869l-14.89-2.119s-3.648 1.121-5.988 2.543c-2.34 1.422-2.014 2.279-2.014 2.279"/><path clip-path="url(#d)" fill="#808285" d="M206.583 348.782s-.135.407.212 1.219c.347.813.742 1.113.742 1.113s3.833.117 9.273-1.166c5.618-1.325 12.665-3.869 12.665-3.869l-3.828-.502s-3.4 1.241-9.485 2.491c-7.737 1.59-9.579.714-9.579.714"/><path clip-path="url(#d)" fill="#8A8C8E" d="M213.977 345.204c-.848-.424-5.299 2.066-5.405 2.597-.106.53 1.378.635 2.861.053 1.484-.584 3.392-2.227 2.544-2.65M214.506 347.375c-.848-.158 1.59-2.119 1.59-2.119s2.225.636 2.49 1.112c.266.478-3.232 1.167-4.08 1.007"/><path clip-path="url(#d)" fill="#BCBEC0" d="M207.132 342.775c-.689.053-1.484.583-1.59 1.802s1.537 1.589 1.537 1.589 1.007.266 3.021.055c2.013-.212 1.642-.53 2.596-.583.954-.054 3.074 1.165 5.458 1.271 2.385.106 4.558-.742 6.041-.742 1.484 0 4.929 1.749 7.578 1.537 2.65-.212 4.293-1.907 5.935-2.172 1.643-.265 4.452 1.643 6.836 1.589 2.385-.053 3.922-1.165 5.299-1.218 1.378-.053 2.173.794 5.194.9 3.02.105 3.496-.371 4.557-.741 1.06-.371 2.862.582 3.179-1.113.318-1.696-1.536-2.385-2.331-2.491-.795-.105-.636.742-1.802 1.007-1.166.266-7.472-.317-9.591-.529-2.12-.212-6.783.371-9.38.742-2.597.37-7.896-.425-9.856-.213-1.961.213-8.576-.406-10.643-.46-2.067-.053-6.889.106-8.055 0-1.166-.105-1.227-.069-2.393.248-1.166.317-.901-.531-1.59-.478"/><path clip-path="url(#d)" fill="#939598" d="M209.525 343.773h50.023s.391-.023.901-.769c.636-.928.424-2.146.424-2.146s-3.55-19.396-26.867-19.501c-23.316-.106-26.814 19.501-26.814 19.501s-.339 1.568.239 2.146c.902.901 2.094.769 2.094.769"/><path clip-path="url(#d)" fill="#E6E7E8" d="M223.224 327.345c.249 0 .45-.083.45-.186s-.201-.186-.45-.186-.45.083-.45.186.201.186.45.186M220.451 328.801c.105-.225.115-.443.022-.487-.093-.043-.253.105-.358.33-.105.227-.115.444-.022.487.092.043.253-.105.358-.33M225.79 328.707c.227-.101.378-.259.336-.353-.042-.093-.26-.087-.487.014-.227.102-.378.259-.336.354.042.092.26.086.487-.015M220.176 331.059c.24.064.457.036.483-.063.027-.099-.147-.231-.387-.295-.24-.065-.457-.037-.483.062-.027.1.147.233.387.296M224.057 331.321c.035-.246-.02-.458-.121-.473-.101-.014-.212.175-.246.421-.035.246.019.457.121.472.101.013.211-.174.246-.42M228.207 330.443c-.069-.238-.204-.409-.302-.382-.099.028-.123.245-.055.484.069.239.204.41.303.382.097-.028.122-.245.054-.484M239.512 324.377c.249 0 .45-.083.45-.185 0-.104-.201-.187-.45-.187s-.45.083-.45.187c0 .102.201.185.45.185M236.739 325.833c.105-.225.115-.442.022-.486-.093-.043-.253.104-.358.329-.105.227-.115.444-.022.487.092.044.253-.104.358-.33M242.078 325.74c.227-.102.378-.26.336-.354-.042-.093-.26-.087-.487.014-.227.102-.378.26-.336.354.041.092.26.086.487-.014M236.464 328.092c.24.063.457.035.483-.063.027-.099-.147-.23-.387-.295-.24-.065-.457-.037-.483.062-.027.099.147.232.387.296M240.345 328.353c.035-.246-.02-.458-.121-.472-.101-.015-.212.174-.246.42-.035.247.019.458.121.472.101.014.211-.174.246-.42M244.494 327.476c-.069-.239-.204-.41-.302-.382-.099.027-.123.244-.055.483.069.239.204.41.303.382.098-.027.123-.244.054-.483M244.811 330.898c.249 0 .45-.083.45-.186s-.201-.186-.45-.186-.45.083-.45.186.201.186.45.186M242.038 332.354c.105-.225.115-.443.022-.487-.093-.043-.253.105-.358.33-.105.227-.115.444-.022.487.092.043.253-.105.358-.33M247.377 332.259c.227-.101.378-.259.336-.353s-.26-.087-.487.014c-.227.101-.378.259-.336.354.042.093.26.087.487-.015M241.763 334.612c.24.064.457.036.483-.063.027-.099-.147-.231-.387-.295-.24-.065-.457-.037-.483.062-.027.099.147.232.387.296M245.644 334.874c.035-.246-.02-.458-.121-.473-.101-.014-.212.175-.246.42-.035.247.019.458.121.473.101.013.211-.174.246-.42M249.793 333.996c-.069-.238-.204-.409-.302-.382-.099.028-.123.245-.055.484.069.239.204.41.303.382.098-.028.123-.245.054-.484M228.918 329.104c.211-.132.338-.309.284-.396-.055-.087-.27-.051-.481.081-.211.132-.338.31-.283.396.054.087.269.051.48-.081M227.338 331.808c-.03-.247-.137-.437-.239-.424-.102.012-.159.223-.129.469.03.247.137.438.239.426.101-.014.159-.224.129-.471M231.816 328.899c.139-.206.183-.42.098-.477-.085-.058-.266.063-.405.27-.14.206-.184.419-.099.478.085.056.267-.065.406-.271M228.302 333.869c.238-.072.406-.211.377-.309-.03-.098-.248-.118-.485-.046-.238.073-.407.211-.377.309.03.098.247.119.485.046M231.731 332.034c-.101-.227-.259-.378-.353-.336-.093.042-.087.26.014.487.101.227.259.378.353.336.093-.042.088-.26-.014-.487M234.786 329.091c-.185-.166-.39-.24-.459-.164-.068.077.026.272.211.439.185.166.39.239.459.163.067-.074-.026-.272-.211-.438M228.88 332.603c.176-.176.26-.377.187-.45-.072-.072-.273.012-.449.188s-.26.377-.188.448c.073.074.275-.01.45-.186M227.949 335.593c-.085-.234-.232-.395-.328-.36-.097.035-.106.253-.021.487.086.234.233.396.329.36.096-.035.105-.252.02-.487"/><path clip-path="url(#d)" fill="#E6E7E8" d="M231.658 331.751c.089-.232.084-.45-.012-.487-.095-.037-.245.122-.334.354-.089.231-.084.449.011.486.096.038.246-.121.335-.353M229.352 337.384c.215-.124.349-.297.297-.386-.051-.09-.267-.061-.482.064-.216.124-.349.297-.298.386.051.09.268.06.483-.064M232.281 334.825c-.15-.199-.337-.31-.419-.248s-.027.273.123.471c.149.199.337.311.419.248.082-.061.027-.272-.123-.471M234.595 331.27c-.218-.121-.434-.146-.484-.056-.05.089.087.26.304.38.218.121.434.146.484.057.05-.09-.086-.26-.304-.381M245.105 325.715c.176.176.377.26.45.188.072-.072-.012-.273-.188-.449s-.377-.26-.449-.188c-.073.072.011.274.187.449M242.114 324.785c.234-.085.395-.232.36-.328-.035-.097-.253-.106-.487-.021-.234.086-.395.232-.36.329s.253.105.487.02M245.957 328.493c.232.089.45.084.487-.012.037-.095-.122-.245-.354-.334s-.45-.084-.487.011c-.038.096.122.246.354.335M240.324 326.187c.124.215.297.349.386.297.089-.051.06-.267-.065-.482-.124-.216-.297-.349-.386-.298-.089.051-.059.268.065.483M242.883 329.116c.199-.149.31-.337.248-.419s-.273-.026-.471.123c-.199.149-.31.337-.248.419.061.082.272.027.471-.123M246.438 331.429c.121-.218.146-.434.056-.483-.089-.05-.26.087-.38.304-.121.218-.146.435-.057.484.089.05.259-.086.381-.305M226.421 324.553c.242.057.458.021.481-.079s-.155-.226-.398-.281c-.242-.057-.457-.021-.48.079-.023.1.155.226.397.281M223.392 325.349c.153-.196.212-.406.131-.47-.081-.063-.27.045-.423.241-.153.196-.212.406-.131.469.08.064.27-.045.423-.24M228.615 326.458c.244-.047.426-.167.407-.268-.02-.102-.234-.145-.478-.097s-.426.167-.407.269c.02.099.235.142.478.096M222.616 327.487c.22.117.437.139.485.048.048-.091-.091-.259-.311-.376-.219-.115-.437-.138-.485-.047-.048.09.091.258.311.375M226.339 328.615c.089-.232.084-.45-.012-.487-.095-.037-.245.122-.334.354-.089.231-.084.449.012.486.095.037.245-.122.334-.353M230.58 328.693c-.013-.248-.106-.444-.209-.439-.102.005-.174.211-.161.459.013.249.106.446.208.44.103-.006.174-.212.162-.46M250.467 336.156c.176-.177.26-.377.187-.45-.072-.072-.273.012-.449.188-.176.177-.26.377-.188.449.073.073.275-.011.45-.187M249.537 339.146c-.085-.234-.232-.396-.328-.36-.097.035-.106.253-.021.487.086.234.233.395.329.36.095-.035.105-.254.02-.487M253.245 335.304c.089-.232.084-.45-.012-.487-.095-.037-.245.122-.334.354-.089.232-.084.45.011.487.096.037.246-.122.335-.354M250.939 340.937c.215-.124.349-.297.297-.387-.051-.089-.267-.06-.482.065-.216.124-.349.297-.298.386.051.088.268.06.483-.064M253.868 338.377c-.15-.199-.337-.311-.419-.248-.082.062-.027.272.123.471.149.199.337.311.419.248.082-.06.027-.271-.123-.471M256.182 334.823c-.218-.121-.434-.146-.484-.056-.05.089.087.26.305.38.218.121.434.146.483.057.049-.09-.087-.26-.304-.381M236.501 330.565c.056-.241.02-.458-.079-.48-.1-.023-.227.155-.282.397-.056.242-.021.457.079.48.1.024.226-.155.282-.397M237.296 333.595c-.196-.153-.406-.213-.469-.132s.045.271.241.424c.196.152.406.212.469.131.064-.08-.044-.27-.241-.423M238.406 328.372c-.047-.244-.167-.426-.268-.407-.101.02-.144.234-.096.478.047.244.167.427.268.407.1-.02.143-.234.096-.478M239.435 334.371c.117-.221.138-.438.048-.485-.091-.048-.259.091-.376.312-.116.22-.138.437-.047.484.09.047.258-.092.375-.311M240.563 330.648c-.232-.09-.45-.084-.487.012-.037.095.122.245.354.334s.45.084.487-.011c.037-.097-.123-.246-.354-.335"/><path clip-path="url(#d)" fill="#E6E7E8" d="M240.641 326.408c-.248.013-.445.106-.44.209.005.102.211.174.459.16.249-.013.446-.105.441-.208-.006-.103-.212-.175-.46-.161M227.893 336.156c.176-.177.26-.377.187-.45-.072-.072-.273.012-.449.188-.176.177-.26.377-.188.449.073.073.274-.011.45-.187M226.962 339.146c-.085-.234-.232-.396-.328-.36-.097.035-.106.253-.021.487.086.234.233.395.329.36.096-.035.105-.254.02-.487M230.67 335.304c.089-.232.084-.45-.012-.487-.095-.037-.245.122-.334.354-.089.232-.084.45.011.487.096.037.246-.122.335-.354M228.364 340.937c.215-.124.349-.297.297-.387-.051-.089-.267-.06-.482.065-.216.124-.349.297-.298.386.051.088.268.06.483-.064M231.293 338.377c-.15-.199-.337-.311-.419-.248-.082.062-.027.272.123.471.149.199.337.311.419.248.083-.06.027-.271-.123-.471M233.607 334.823c-.218-.121-.434-.146-.484-.056-.05.089.087.26.304.38.218.121.434.146.484.057.05-.09-.086-.26-.304-.381M225.845 332.213c0 .249.083.45.185.45.103 0 .186-.201.186-.45s-.083-.45-.186-.45c-.102 0-.185.201-.185.45M224.389 329.44c.225.105.443.115.487.022.043-.093-.105-.253-.33-.358-.226-.104-.444-.114-.487-.021-.043.091.105.252.33.357M224.483 334.779c.101.228.259.379.353.337.093-.042.087-.261-.014-.487-.101-.228-.259-.378-.353-.336-.093.041-.087.259.014.486M222.131 329.166c-.064.24-.036.457.063.483.098.026.231-.147.295-.388.065-.239.037-.457-.062-.482-.099-.028-.232.146-.296.387M221.87 333.046c.246.035.458-.02.472-.121.014-.101-.174-.212-.42-.246-.247-.034-.458.02-.472.121-.014.102.174.211.42.246M222.747 337.196c.239-.069.41-.204.382-.302-.028-.099-.245-.123-.484-.055s-.41.203-.382.303c.028.098.245.123.484.054M247.432 335.766c0 .249.083.45.185.45.103 0 .186-.201.186-.45s-.083-.45-.186-.45c-.102 0-.185.201-.185.45M245.976 332.993c.225.105.443.115.487.022.043-.093-.105-.253-.33-.358-.226-.104-.444-.115-.487-.021-.043.091.104.252.33.357M246.07 338.332c.101.228.259.378.353.336.093-.042.087-.26-.014-.486-.101-.228-.259-.378-.353-.336-.093.041-.087.259.014.486M243.718 332.718c-.064.24-.036.457.063.483.098.026.231-.147.295-.388.065-.239.037-.457-.062-.482-.099-.027-.232.147-.296.387M243.457 336.599c.246.035.458-.02.472-.121.014-.101-.174-.212-.42-.246-.247-.035-.458.02-.472.121-.015.102.173.211.42.246M244.333 340.749c.239-.069.41-.204.382-.302-.028-.1-.245-.123-.484-.055s-.41.203-.382.303c.029.097.246.123.484.054M233.721 331.843c.132.211.309.338.396.284.087-.055.05-.27-.081-.481-.132-.211-.31-.338-.396-.282-.087.053-.051.268.081.479M231.017 330.263c.247-.029.437-.137.424-.238-.012-.103-.222-.159-.469-.129-.247.029-.437.137-.425.238.013.103.223.159.47.129M233.926 334.742c.206.139.42.183.477.098.057-.085-.063-.266-.27-.405-.206-.14-.419-.184-.477-.099-.057.084.064.266.27.406M228.956 331.227c.073.238.211.406.309.377.098-.029.118-.248.046-.484-.073-.238-.211-.407-.309-.377-.098.029-.119.246-.046.484M230.791 334.657c.227-.101.378-.259.336-.353s-.26-.087-.487.014c-.227.101-.378.259-.336.353s.26.087.487-.014M233.734 337.71c.166-.185.24-.39.164-.459-.077-.067-.273.026-.44.211-.166.186-.239.391-.163.459.076.069.273-.025.439-.211M234.176 334.192c.176.176.377.26.45.187.072-.072-.012-.272-.188-.449-.176-.176-.377-.26-.449-.188-.072.073.011.273.187.45M231.186 333.26c.234-.085.395-.231.36-.328s-.253-.105-.487-.021c-.234.086-.395.232-.36.329.035.096.253.105.487.02M235.028 336.969c.232.089.45.084.487-.013.037-.095-.122-.244-.354-.334-.232-.089-.45-.084-.487.012s.122.246.354.335M229.395 334.663c.124.216.297.35.386.297.088-.051.06-.267-.065-.481-.124-.216-.297-.349-.386-.298-.088.05-.059.267.065.482M231.955 337.592c.199-.15.31-.337.248-.419s-.273-.027-.471.123c-.199.148-.31.337-.248.419.06.082.271.027.471-.123M235.509 339.906c.121-.218.146-.434.056-.484-.089-.05-.26.087-.38.305-.121.218-.146.434-.057.483.09.049.26-.086.381-.304M238.163 325.556c.176.177.377.261.45.188.072-.072-.012-.273-.188-.449s-.377-.26-.449-.188c-.073.072.011.273.187.449M235.172 324.625c.234-.085.395-.232.36-.328-.035-.097-.253-.105-.487-.021-.234.086-.395.232-.36.328.036.098.253.106.487.021M239.015 328.333c.232.09.45.084.487-.012.037-.095-.122-.245-.354-.334s-.45-.084-.487.011c-.037.097.122.247.354.335M233.382 326.028c.124.215.297.349.386.297.089-.051.06-.267-.065-.481-.124-.217-.297-.35-.386-.298-.088.05-.059.267.065.482M235.941 328.958c.199-.15.31-.338.248-.42-.062-.081-.273-.026-.471.123-.199.149-.31.337-.248.419.061.082.272.027.471-.122M239.496 331.271c.121-.218.146-.435.056-.484-.089-.05-.26.087-.38.304-.121.219-.146.435-.057.484.09.05.26-.086.381-.304M240.177 334.353c.176.176.377.26.45.188.072-.072-.012-.273-.188-.449s-.377-.26-.449-.188c-.073.072.01.273.187.449M237.186 333.422c.234-.085.395-.232.36-.328-.035-.097-.253-.106-.487-.021-.234.086-.395.233-.36.329.035.097.253.105.487.02M241.028 337.13c.232.089.45.084.487-.012.037-.095-.122-.245-.354-.334s-.45-.084-.487.011c-.037.097.122.247.354.335M235.396 334.825c.124.215.297.349.386.297.089-.051.06-.267-.065-.481-.124-.217-.297-.35-.386-.299-.089.051-.06.268.065.483M237.955 337.753c.199-.149.31-.337.248-.419s-.273-.026-.471.123c-.199.149-.31.337-.248.419.061.082.272.028.471-.123M241.509 340.067c.121-.218.146-.434.056-.483-.089-.05-.26.087-.38.304-.121.218-.146.435-.057.484.09.049.26-.086.381-.305M217.602 334.353c.176.176.377.26.45.188.072-.072-.012-.273-.188-.449s-.377-.26-.449-.188c-.073.072.011.273.187.449M214.612 333.422c.234-.085.395-.232.36-.328-.035-.097-.253-.106-.487-.021-.234.086-.395.232-.36.329.035.097.252.105.487.02M218.454 337.13c.232.089.45.084.487-.012.037-.095-.122-.245-.354-.334s-.45-.084-.487.011c-.037.097.122.247.354.335M212.821 334.825c.124.215.297.349.386.297.089-.051.06-.267-.065-.481-.124-.217-.297-.35-.386-.299-.089.051-.059.268.065.483M215.38 337.753c.199-.149.31-.337.248-.419s-.273-.026-.471.123c-.199.149-.31.337-.248.419.061.082.272.028.471-.123M218.935 340.067c.121-.218.146-.434.056-.483-.089-.05-.26.087-.38.304-.121.218-.146.435-.057.484.09.049.259-.086.381-.305M250.881 329.637c.176.176.377.26.45.187.072-.072-.012-.272-.188-.449-.176-.176-.377-.26-.449-.188-.073.073.011.273.187.45M247.891 328.706c.234-.085.395-.231.36-.327-.035-.098-.253-.106-.487-.021-.234.086-.395.232-.36.329.034.095.252.104.487.019M251.732 332.415c.232.089.45.084.487-.012.037-.096-.122-.245-.354-.334-.232-.09-.45-.084-.487.011-.037.095.122.246.354.335M246.1 330.108c.124.216.297.35.386.298.089-.052.06-.268-.065-.482-.124-.216-.297-.349-.386-.298-.088.05-.059.267.065.482M248.659 333.038c.199-.15.31-.337.248-.419s-.273-.027-.471.123c-.199.148-.31.337-.248.419.061.082.272.026.471-.123M252.213 335.351c.121-.218.146-.434.056-.484-.089-.05-.26.088-.38.305-.121.218-.146.434-.057.483.09.051.26-.086.381-.304M233.398 324.818c.242.057.458.021.481-.079s-.155-.226-.398-.281c-.242-.057-.457-.021-.48.079-.023.099.155.225.397.281M230.368 325.613c.153-.195.212-.405.131-.469-.081-.063-.27.045-.423.241-.153.196-.212.406-.131.469.08.063.27-.045.423-.241M235.592 326.722c.244-.047.426-.167.407-.268-.02-.102-.234-.145-.478-.097-.244.048-.426.167-.407.269.02.1.234.143.478.096M229.593 327.751c.22.117.437.138.485.048.048-.091-.091-.259-.311-.376-.22-.115-.437-.138-.485-.047-.048.09.091.258.311.375M233.315 328.879c.089-.232.084-.45-.012-.487-.095-.037-.245.122-.334.354-.089.231-.084.449.011.486.097.038.247-.121.335-.353M237.556 328.958c-.013-.247-.107-.444-.209-.439-.102.005-.174.211-.161.459.013.249.106.446.208.44.103-.006.175-.212.162-.46"/><path clip-path="url(#d)" d="M370.143 141.411c-.135-1.846-1.658-2.165-2.938-2.165-2.041 0-2.644 1.228-2.644 2.19 0 2.444 4.059 1.62 4.059 2.715 0 .246-.209.678-1.095.678-1.083 0-1.428-.407-1.428-.961h-1.769c.049 1.747 1.658 2.263 3.146 2.263 1.021 0 2.864-.344 2.864-2.251 0-2.407-4.095-1.657-4.095-2.691 0-.284.124-.641 1.059-.641.936 0 1.083.444 1.156.863h1.685zm-10.969.626c.099-.862.529-1.379 1.341-1.379.554 0 1.23.32 1.329 1.379h-2.67zm2.596 2.004c-.136.468-.628.714-1.107.714-1.39 0-1.488-1.108-1.537-1.6h4.488v-.307c0-2.988-1.782-3.602-3.074-3.602-2.864 0-3.135 2.52-3.135 3.307 0 2.693 1.413 3.578 3.258 3.578 1.12 0 2.423-.516 2.877-2.09h-1.77zm-5.498-6.996h-1.721v1.597h1.721v-1.597zm-1.72 8.913h1.721v-6.54h-1.721v6.54zm-3.001-2.384c0 .307-.295 1.144-1.169 1.144-1.304 0-1.329-1.415-1.329-2.128 0-.812.283-1.895 1.366-1.895h.086c.738 0 .984.64 1.058 1.058h1.745c-.159-2.041-1.854-2.507-2.889-2.507-2.214 0-3.135 1.511-3.135 3.627 0 1.377.564 3.258 3.023 3.258 2.398 0 2.927-1.881 2.988-2.557h-1.744zm-5.535-6.529h-1.72v1.597h1.72v-1.597zm-1.72 8.913h1.72v-6.54h-1.72v6.54zm-1.699-8.827h-1.72v8.828h1.72v-8.828zm-4.745 5.557c0 .837-.245 1.993-1.574 1.993-1.328 0-1.574-1.156-1.574-1.993 0-.836.246-1.993 1.574-1.993s1.574 1.157 1.574 1.993m1.769 0c0-2.361-1.585-3.442-3.344-3.442-1.76 0-3.345 1.081-3.345 3.442 0 2.362 1.585 3.443 3.345 3.443 1.759 0 3.344-1.081 3.344-3.443m-12.21-3.27h-1.647v9.098h1.721v-3.393h.024c.209.356.641 1.008 1.845 1.008 1.943 0 2.755-1.721 2.755-3.517 0-2.263-1.278-3.368-2.718-3.368-1.155 0-1.636.602-1.956 1.118h-.023v-.946zm0 3.418c0-1.046.282-2.104 1.464-2.104 1.095 0 1.464.972 1.464 2.005 0 .775-.308 1.981-1.415 1.981-1.095 0-1.513-.91-1.513-1.882m-9.652 1.291c-.295.271-.8.616-1.366.616-1.032 0-1.304-.825-1.304-1.169 0-.701.32-.947 1.046-1.476l1.624 2.029zm1.967-.098c.591-.775.897-1.464 1.008-2.657h-1.523c-.062.676-.235 1.107-.456 1.451l-1.253-1.55c.356-.209 1.462-.861 1.462-2.103 0-1.413-1.191-2.039-2.164-2.039-1.377 0-2.348.823-2.348 2.027 0 .763.43 1.427.799 1.845l-.185.11c-1.464.886-1.696 1.723-1.696 2.572 0 1.315 1.068 2.507 2.754 2.507 1.329 0 2.004-.467 2.52-.983l.604.749h2.077l-1.599-1.929zm-2.25-4.871c0 .455-.344.799-.812 1.095-.419-.455-.64-.812-.64-1.107 0-.468.332-.713.714-.713.418 0 .738.233.738.725m-8.843 2.253c-.135-1.846-1.659-2.165-2.938-2.165-2.041 0-2.644 1.228-2.644 2.19 0 2.444 4.059 1.62 4.059 2.715 0 .246-.209.678-1.096.678-1.083 0-1.428-.407-1.428-.961h-1.769c.049 1.747 1.658 2.263 3.146 2.263 1.022 0 2.865-.344 2.865-2.251 0-2.407-4.095-1.657-4.095-2.691 0-.284.123-.641 1.058-.641s1.083.444 1.157.863h1.685zm-10.969.626c.099-.862.529-1.379 1.341-1.379.554 0 1.231.32 1.329 1.379h-2.67zm2.596 2.004c-.135.468-.627.714-1.106.714-1.391 0-1.489-1.108-1.538-1.6h4.487v-.307c0-2.988-1.78-3.602-3.072-3.602-2.865 0-3.136 2.52-3.136 3.307 0 2.693 1.413 3.578 3.259 3.578 1.12 0 2.422-.516 2.877-2.09h-1.771zm-5.498-6.996h-1.72v1.597h1.72v-1.597zm-1.72 8.913h1.72v-6.54h-1.72v6.54zm-2.215-8.311h-1.72v1.771h-.886v1.228h.886v3.973c0 .848.27 1.413 1.757 1.413h.221c.271 0 .541-.012.813-.024v-1.302c-.123.012-.246.024-.357.024-.701 0-.713-.147-.713-.529v-3.555h1.07v-1.228h-1.07v-1.771zm-5.151 5.964c0 .799-.774 1.291-1.538 1.291-.332 0-.8-.184-.8-.787 0-.713.529-.873 1.169-.984.714-.111.997-.222 1.169-.357v.837zm1.683-2.473c0-1.61-1.684-1.892-2.606-1.892-1.341 0-2.729.282-2.926 2.286h1.659c.049-.382.196-.911 1.058-.911.443 0 1.132.037 1.132.763 0 .369-.332.48-.603.517l-1.55.233c-1.095.16-1.905.812-1.905 2.092 0 1.352 1.007 1.905 1.991 1.905 1.169 0 1.723-.541 2.115-.946.037.369.063.467.16.773h1.855v-.256c-.209-.074-.381-.246-.381-1.021v-3.543zm-10.883.899c.1-.862.529-1.379 1.342-1.379.554 0 1.23.32 1.329 1.379h-2.671zm2.597 2.004c-.136.468-.628.714-1.108.714-1.39 0-1.489-1.108-1.538-1.6h4.489v-.307c0-2.988-1.782-3.602-3.074-3.602-2.865 0-3.135 2.52-3.135 3.307 0 2.693 1.413 3.578 3.258 3.578 1.12 0 2.422-.516 2.877-2.09h-1.769zm-8.399 1.917h1.72v-3.406c0-.725.246-1.562 1.587-1.562.159 0 .344 0 .491.025v-1.745a3.07 3.07 0 0 0-.332-.024c-1.045 0-1.438.639-1.796 1.302h-.023v-1.13h-1.646v6.54zm-2.154-8.311h-1.72v1.771h-.885v1.228h.885v3.973c0 .848.271 1.413 1.757 1.413h.222c.271 0 .541-.012.812-.024v-1.302c-.123.012-.246.024-.356.024-.701 0-.714-.147-.714-.529v-3.555h1.07v-1.228h-1.07v-1.771zm-6.997-.516h-1.721v8.828h1.721v-8.828zm-4.991 6.48c0 .799-.775 1.291-1.538 1.291-.332 0-.8-.184-.8-.787 0-.713.529-.873 1.169-.984.714-.111.997-.222 1.169-.357v.837zm1.683-2.473c0-1.61-1.683-1.892-2.605-1.892-1.341 0-2.73.282-2.926 2.286h1.659c.049-.382.197-.911 1.059-.911.442 0 1.132.037 1.132.763 0 .369-.332.48-.604.517l-1.55.233c-1.094.16-1.905.812-1.905 2.092 0 1.352 1.007 1.905 1.991 1.905 1.169 0 1.723-.541 2.116-.946.037.369.062.467.16.773h1.854v-.256c-.209-.074-.381-.246-.381-1.021v-3.543zm-6.898.295c0-1.438-.996-2.187-2.274-2.187-1.243 0-1.735.737-1.969 1.13h-.024v-.958h-1.647v6.54h1.72v-3.75c0-.996.591-1.513 1.354-1.513 1.095 0 1.12.812 1.12 1.291v3.972h1.72v-4.525zm-8.889 1.255c0 .837-.247 1.993-1.575 1.993-1.329 0-1.575-1.156-1.575-1.993 0-.836.246-1.993 1.575-1.993 1.328 0 1.575 1.157 1.575 1.993m1.769 0c0-2.361-1.585-3.442-3.344-3.442s-3.344 1.081-3.344 3.442c0 2.362 1.585 3.443 3.344 3.443s3.344-1.081 3.344-3.443m-7.956-5.643h-1.72v1.597h1.72v-1.597zm-1.721 8.913h1.72v-6.54h-1.72v6.54zm-2.214-8.311h-1.72v1.771h-.886v1.228h.886v3.973c0 .848.27 1.413 1.756 1.413h.222c.27 0 .541-.012.811-.024v-1.302c-.123.012-.246.024-.356.024-.701 0-.713-.147-.713-.529v-3.555h1.069v-1.228h-1.069v-1.771zm-5.151 5.964c0 .799-.776 1.291-1.539 1.291-.332 0-.799-.184-.799-.787 0-.713.529-.873 1.169-.984.713-.111.996-.222 1.169-.357v.837zm1.683-2.473c0-1.61-1.683-1.892-2.606-1.892-1.342 0-2.73.282-2.927 2.286h1.659c.05-.382.197-.911 1.059-.911.443 0 1.132.037 1.132.763 0 .369-.333.48-.603.517l-1.551.233c-1.094.16-1.904.812-1.904 2.092 0 1.352 1.007 1.905 1.99 1.905 1.169 0 1.723-.541 2.117-.946.037.369.061.467.159.773h1.856v-.256c-.209-.074-.381-.246-.381-1.021v-3.543zm-6.899.295c0-1.438-.995-2.187-2.274-2.187-1.242 0-1.735.737-1.968 1.13h-.025v-.958h-1.646v6.54h1.72v-3.75c0-.996.591-1.513 1.353-1.513 1.096 0 1.12.812 1.12 1.291v3.972h1.72v-4.525zm-10.524 4.525h1.72v-3.406c0-.725.246-1.562 1.586-1.562.16 0 .344 0 .492.025v-1.745a3.107 3.107 0 0 0-.332-.024c-1.045 0-1.439.639-1.796 1.302h-.024v-1.13h-1.646v6.54zm-5.573-3.921c.099-.862.53-1.379 1.342-1.379.553 0 1.23.32 1.328 1.379h-2.67zm2.597 2.004c-.136.468-.628.714-1.108.714-1.39 0-1.489-1.108-1.538-1.6h4.489v-.307c0-2.988-1.782-3.602-3.074-3.602-2.864 0-3.135 2.52-3.135 3.307 0 2.693 1.413 3.578 3.258 3.578 1.12 0 2.422-.516 2.877-2.09h-1.769zm-5.831-6.394h-1.72v1.771h-.885v1.228h.885v3.973c0 .848.271 1.413 1.757 1.413h.222c.27 0 .541-.012.811-.024v-1.302c-.123.012-.246.024-.356.024-.701 0-.714-.147-.714-.529v-3.555h1.07v-1.228h-1.07v-1.771zm-3.529 3.786c0-1.438-.995-2.187-2.274-2.187-1.242 0-1.734.737-1.968 1.13h-.025v-.958h-1.646v6.54h1.72v-3.75c0-.996.591-1.513 1.353-1.513 1.096 0 1.12.812 1.12 1.291v3.972h1.72v-4.525zm-7.501-4.302h-1.843v8.828h1.843v-8.828z"/><path clip-path="url(#d)" fill="#F1F2F2" d="M248.396 383.286h-2.15l-2.214 2.214h-1.106l-1.536 1.535h1.107l-4.967 4.967c-1.059 1.059-1.428 1.765.431 1.765h.276c.339 0 .692-.015 1.046-.029l1.627-1.628c-.169.016-.338.03-.476.03-.877 0-.707-.185-.231-.66l4.444-4.444h1.338l1.535-1.535h-1.338l2.214-2.215zm-9.144 4.732c1.797-1.798 1.49-2.734-.108-2.734-1.554 0-3.09.922-3.874 1.413h-.03l1.197-1.197h-2.058l-8.175 8.175h2.15l4.688-4.688c1.245-1.245 2.629-1.892 3.583-1.892 1.368 0 .385 1.016-.215 1.614l-4.965 4.965h2.15l5.657-5.656zm-15.127.756c1.2-1.078 2.384-1.725 3.4-1.725.692 0 1.138.4-.063 1.725h-3.337zm.74 2.504c-.754.585-1.677.893-2.276.893-1.738 0-.477-1.385.077-2h5.611l.384-.384c3.734-3.735 2.275-4.503.66-4.503-3.581 0-7.069 3.15-8.053 4.134-3.366 3.367-2.705 4.472-.399 4.472 1.4 0 3.672-.644 6.208-2.611h-2.212zm-3.521-3.26c1.798-1.798 1.491-2.734-.108-2.734-1.307 0-2.813.906-3.489 1.306.323-.876.215-1.306-.968-1.306-1.446 0-2.921.876-3.735 1.413h-.031l1.197-1.197h-2.058l-8.175 8.175h2.15l4.98-4.979c.892-.893 1.922-1.6 2.937-1.6 1.292 0 .324.97-.368 1.66l-4.919 4.919h2.15l4.904-4.902c.968-.97 2.06-1.677 3.137-1.677.63 0 .769.4-.445 1.614l-4.965 4.965h2.15l5.656-5.657zm-13.695 0c1.797-1.798 1.49-2.734-.108-2.734-1.554 0-3.09.922-3.874 1.413h-.031l1.198-1.197h-2.058l-8.176 8.175h2.15l4.689-4.688c1.245-1.245 2.629-1.892 3.582-1.892 1.369 0 .385 1.016-.214 1.614l-4.965 4.965h2.15l5.657-5.656zm-12.681 1.568c-1.045 1.046-2.798 2.491-4.459 2.491-1.661 0-.523-1.445.522-2.491 1.046-1.045 2.799-2.491 4.46-2.491s.524 1.447-.523 2.491m2.212 0c2.952-2.951 2.322-4.303.123-4.303s-5.531 1.352-8.483 4.303c-2.952 2.952-2.322 4.303-.123 4.303s5.532-1.35 8.483-4.303m-17.659 4.088h2.15l4.258-4.258c.907-.907 2.26-1.952 3.935-1.952.2 0 .43 0 .584.031l2.181-2.181a2.885 2.885 0 0 0-.384-.031c-1.307 0-2.597.799-3.872 1.628h-.031l1.413-1.412h-2.058l-8.176 8.175zm9.096-11.141h-2.15l-1.996 1.996h2.15l1.996-1.996zM183.5 385.5l-8.175 8.175h2.15l8.175-8.175h-2.15zm-1.262 0h-2.29l-7.762 6.025h-.031l4.335-6.025h-2.397l-5.24 8.175h2.259l11.126-8.175zm-11.25 2.518c1.798-1.798 1.49-2.734-.108-2.734-1.553 0-3.09.922-3.873 1.413h-.031l1.197-1.197h-2.058l-8.175 8.175h2.15l4.688-4.688c1.245-1.245 2.629-1.892 3.583-1.892 1.369 0 .385 1.016-.215 1.614l-4.965 4.965h2.15l5.657-5.656zm-15.127.756c1.2-1.078 2.385-1.725 3.4-1.725.692 0 1.138.4-.063 1.725h-3.337zm.741 2.504c-.754.585-1.676.893-2.276.893-1.738 0-.477-1.385.077-2h5.611l.384-.384c3.734-3.735 2.275-4.503.66-4.503-3.581 0-7.069 3.15-8.052 4.134-3.367 3.367-2.706 4.472-.4 4.472 1.4 0 3.673-.644 6.208-2.611h-2.212zm-2.509-8.639h-2.15l-11.035 11.035h2.15l11.035-11.035zm-14.339 8.101c-.999 1-2.583 1.615-3.537 1.615-.415 0-.769-.23-.016-.984.892-.892 1.753-1.092 2.692-1.23 1.03-.139 1.522-.276 1.907-.445l-1.046 1.044zm5.195-3.09c2.012-2.014.261-2.366-.892-2.366-1.677 0-3.765.353-6.516 2.857h2.074c.538-.477 1.384-1.138 2.461-1.138.553 0 1.369.046.461.953-.461.462-1.015.6-1.399.646l-2.23.292c-1.567.199-3.396 1.015-4.995 2.613-1.69 1.691-1.122 2.381.107 2.381 1.462 0 2.829-.675 3.828-1.182-.416.462-.508.585-.767.967h2.319l.321-.32c-.169-.093-.169-.308.8-1.276l4.428-4.427zm-13.357 3.045c-.385.384-1.799 1.43-2.891 1.43-1.631 0 .107-1.769.999-2.661 1.015-1.015 2.722-2.368 4.075-2.368h.108c.923 0 .431.801 0 1.323h2.181c2.351-2.551.815-3.135-.477-3.135-2.767 0-5.808 1.889-8.452 4.534-1.723 1.722-3.366 4.071-.292 4.071 2.997 0 6.007-2.35 6.93-3.194h-2.181zm1.243-8.162h-2.151l-1.996 1.996h2.15l1.997-1.996zm-5.117 2.967l-8.176 8.175h2.15l8.176-8.175h-2.15zm-4.368 2.491c2.139-2.308.633-2.707-.966-2.707-2.551 0-4.839 1.536-6.041 2.738-3.056 3.055 3.046 2.025 1.678 3.394-.308.308-1.108.847-2.216.847-1.353 0-1.276-.508-.583-1.2h-2.212c-2.122 2.184-.755 2.827 1.106 2.827 1.277 0 4.011-.43 6.394-2.813 3.009-3.009-3.047-2.071-1.755-3.363.355-.354.955-.802 2.124-.802s.799.555.367 1.079h2.104zm-5.195-2.491h-2.275l-7.7 6.025h-.031l4.274-6.025h-2.398l-5.503 8.515c-1.322 1.122-1.86 1.23-2.644 1.23-.184 0-.307-.015-.384-.031l-1.72 1.72c.292.016.646.031.938.031 1.875 0 2.55-.399 6.591-3.426l10.852-8.039zm-11.496 2.518c1.797-1.798 1.49-2.734-.108-2.734-1.169 0-2.691.599-3.643 1.274h-.031l3.918-3.919h-2.15l-11.034 11.035h2.15l4.688-4.688c1.245-1.245 2.629-1.892 3.582-1.892 1.369 0 .386 1.016-.214 1.614l-4.965 4.965h2.15l5.657-5.655zm-14.943-.228l3.245-3.245h1.831c1.43 0 1.584.446.507 1.522-.492.491-1.723 1.723-3.445 1.723h-2.138zm-1.903 1.904h2.645c2.966 0 6.038-2.52 7.038-3.52 2.168-2.168 2.244-3.535.108-3.535h-5.041l-11.035 11.035h2.304l3.981-3.98z"/><path clip-path="url(#d)" d="M337.439 163.776c-.135-1.846-1.658-2.165-2.938-2.165-2.041 0-2.644 1.228-2.644 2.19 0 2.444 4.059 1.62 4.059 2.715 0 .246-.209.678-1.096.678-1.083 0-1.427-.407-1.427-.961h-1.77c.049 1.747 1.658 2.262 3.147 2.262 1.021 0 2.864-.343 2.864-2.25 0-2.407-4.095-1.657-4.095-2.691 0-.284.123-.641 1.058-.641.936 0 1.083.444 1.157.863h1.685zm-10.968.626c.099-.862.529-1.379 1.341-1.379.554 0 1.231.32 1.329 1.379h-2.67zm2.595 2.004c-.135.468-.627.714-1.106.714-1.391 0-1.489-1.108-1.538-1.6h4.489v-.307c0-2.988-1.782-3.602-3.074-3.602-2.865 0-3.135 2.52-3.135 3.307 0 2.693 1.412 3.577 3.258 3.577 1.12 0 2.422-.515 2.877-2.089h-1.771zm-5.498-6.997h-1.72v1.597h1.72v-1.597zm-1.719 8.914h1.72v-6.541h-1.72v6.541zm-3-2.384c0 .307-.296 1.144-1.169 1.144-1.305 0-1.329-1.415-1.329-2.128 0-.812.283-1.895 1.366-1.895h.086c.738 0 .984.64 1.058 1.058h1.745c-.16-2.041-1.855-2.507-2.889-2.507-2.214 0-3.135 1.511-3.135 3.627 0 1.377.564 3.257 3.023 3.257 2.398 0 2.926-1.88 2.987-2.556h-1.743zm-5.536-6.53h-1.72v1.597h1.72v-1.597zm-1.72 8.914h1.72v-6.541h-1.72v6.541zm-1.698-8.827h-1.72v8.828h1.72v-8.828zm-4.746 5.557c0 .837-.246 1.993-1.575 1.993-1.328 0-1.574-1.156-1.574-1.993 0-.836.246-1.993 1.574-1.993 1.329 0 1.575 1.157 1.575 1.993m1.77 0c0-2.361-1.585-3.442-3.345-3.442-1.759 0-3.344 1.081-3.344 3.442s1.585 3.442 3.344 3.442c1.76 0 3.345-1.081 3.345-3.442m-12.211-3.27h-1.646v9.098h1.72v-3.393h.025c.209.356.639 1.007 1.845 1.007 1.943 0 2.754-1.72 2.754-3.516 0-2.263-1.277-3.368-2.717-3.368-1.157 0-1.636.602-1.956 1.118h-.024v-.946zm0 3.418c0-1.046.282-2.104 1.464-2.104 1.095 0 1.464.972 1.464 2.005 0 .775-.307 1.981-1.415 1.981-1.095 0-1.513-.91-1.513-1.882m-9.652 1.291c-.295.271-.799.615-1.365.615-1.034 0-1.304-.824-1.304-1.168 0-.701.32-.948 1.046-1.477l1.623 2.03zm1.967-.098c.589-.775.896-1.464 1.007-2.657h-1.522c-.063.676-.235 1.107-.457 1.451l-1.253-1.55c.356-.209 1.462-.861 1.462-2.103 0-1.413-1.191-2.039-2.163-2.039-1.378 0-2.348.822-2.348 2.027 0 .762.43 1.426.798 1.845l-.185.11c-1.463.886-1.695 1.723-1.695 2.571 0 1.316 1.067 2.508 2.753 2.508 1.329 0 2.005-.467 2.521-.983l.604.749h2.076l-1.598-1.929zm-2.25-4.871c0 .455-.345.799-.812 1.094-.419-.455-.642-.811-.642-1.106 0-.468.333-.714.715-.714.42 0 .739.234.739.726m-8.842 2.253c-.135-1.846-1.659-2.165-2.938-2.165-2.041 0-2.644 1.228-2.644 2.19 0 2.444 4.058 1.62 4.058 2.715 0 .246-.209.678-1.095.678-1.083 0-1.427-.407-1.427-.961h-1.77c.05 1.747 1.658 2.262 3.147 2.262 1.021 0 2.864-.343 2.864-2.25 0-2.407-4.095-1.657-4.095-2.691 0-.284.123-.641 1.059-.641.935 0 1.083.444 1.156.863h1.685zm-6.296-1.993h-1.771l-1.02 4.697h-.025l-.983-4.697h-1.733l-.922 4.697h-.025l-1.02-4.697h-1.832l1.844 6.54h1.771l1.021-4.771h.024l1.021 4.771h1.771l1.879-6.54zm-11.694 4.192c0 .8-.775 1.292-1.539 1.292-.332 0-.799-.184-.799-.787 0-.713.529-.873 1.169-.984.713-.111.996-.222 1.169-.357v.836zm1.684-2.472c0-1.61-1.684-1.892-2.606-1.892-1.342 0-2.73.282-2.927 2.286h1.659c.05-.382.196-.911 1.059-.911.443 0 1.132.037 1.132.763 0 .369-.333.48-.603.517l-1.551.233c-1.094.16-1.904.812-1.904 2.092 0 1.352 1.007 1.904 1.99 1.904 1.169 0 1.723-.54 2.116-.945.037.369.062.467.159.773h1.856v-.256c-.209-.074-.381-.246-.381-1.021v-3.543zm-6.948-4.007h-1.72v8.828h1.72v-8.828zm-6.837 0h-1.72v8.828h1.72v-8.828zm-4.991 6.479c0 .8-.776 1.292-1.538 1.292-.333 0-.8-.184-.8-.787 0-.713.529-.873 1.169-.984.713-.111.996-.222 1.169-.357v.836zm1.683-2.472c0-1.61-1.683-1.892-2.606-1.892-1.341 0-2.73.282-2.926 2.286h1.658c.05-.382.197-.911 1.059-.911.443 0 1.132.037 1.132.763 0 .369-.333.48-.603.517l-1.551.233c-1.093.16-1.904.812-1.904 2.092 0 1.352 1.007 1.904 1.99 1.904 1.169 0 1.723-.54 2.117-.945.037.369.061.467.16.773h1.855v-.256c-.209-.074-.381-.246-.381-1.021v-3.543zm-6.899.295c0-1.438-.995-2.187-2.273-2.187-1.243 0-1.735.737-1.969 1.13h-.025v-.958h-1.646v6.54h1.72v-3.75c0-.996.591-1.513 1.354-1.513 1.095 0 1.119.812 1.119 1.291v3.972h1.72v-4.525zm-8.889 1.255c0 .837-.246 1.993-1.575 1.993-1.328 0-1.574-1.156-1.574-1.993 0-.836.246-1.993 1.574-1.993 1.329 0 1.575 1.157 1.575 1.993m1.769 0c0-2.361-1.585-3.442-3.344-3.442s-3.344 1.081-3.344 3.442 1.585 3.442 3.344 3.442 3.344-1.081 3.344-3.442m-7.956-5.644h-1.72v1.597h1.72v-1.597zm-1.72 8.914h1.72v-6.541h-1.72v6.541zm-2.215-8.311h-1.72v1.771h-.885v1.228h.885v3.973c0 .848.27 1.413 1.757 1.413h.221c.271 0 .542-.012.812-.024v-1.302c-.123.012-.246.024-.357.024-.701 0-.713-.147-.713-.529v-3.555h1.07v-1.228h-1.07v-1.771zm-5.151 5.963c0 .8-.775 1.292-1.538 1.292-.332 0-.8-.184-.8-.787 0-.713.529-.873 1.169-.984.714-.111.997-.222 1.169-.357v.836zm1.683-2.472c0-1.61-1.683-1.892-2.606-1.892-1.341 0-2.729.282-2.926 2.286h1.659c.049-.382.197-.911 1.058-.911.443 0 1.132.037 1.132.763 0 .369-.332.48-.603.517l-1.55.233c-1.094.16-1.905.812-1.905 2.092 0 1.352 1.008 1.904 1.991 1.904 1.169 0 1.723-.54 2.116-.945.037.369.062.467.16.773h1.856v-.256c-.209-.074-.382-.246-.382-1.021v-3.543zm-8.655 2.14h-.025l-3.506-6.147h-1.941v8.827h1.72v-6.295h.024l3.605 6.295h1.843v-8.827h-1.72v6.147zM299.946 186.289c-.135-1.846-1.659-2.166-2.938-2.166-2.041 0-2.644 1.229-2.644 2.191 0 2.444 4.059 1.62 4.059 2.715 0 .246-.209.677-1.096.677-1.083 0-1.428-.406-1.428-.96h-1.769c.049 1.746 1.658 2.262 3.146 2.262 1.022 0 2.865-.344 2.865-2.25 0-2.408-4.095-1.657-4.095-2.691 0-.284.123-.642 1.058-.642s1.083.444 1.157.864h1.685zm-6.96.022c0-1.438-.995-2.188-2.273-2.188-1.047 0-1.526.725-1.747 1.045-.442-.701-.872-1.045-1.819-1.045-1.157 0-1.637.701-1.858 1.131h-.024v-.958h-1.646v6.54h1.721v-3.984c0-.713.259-1.279 1.07-1.279 1.034 0 1.034.775 1.034 1.328v3.935h1.72v-3.923c0-.774.308-1.34 1.169-1.34.505 0 .936.32.936 1.291v3.972h1.72v-4.525zm-13.967 4.524h1.72v-3.406c0-.726.246-1.562 1.587-1.562.159 0 .345 0 .491.025v-1.745c-.11-.012-.221-.025-.332-.025-1.045 0-1.438.639-1.795 1.303h-.025v-1.13h-1.646v6.54zm-2.963-3.27c0 .836-.246 1.993-1.575 1.993s-1.575-1.157-1.575-1.993c0-.837.246-1.993 1.575-1.993s1.575 1.157 1.575 1.993m1.768 0c0-2.362-1.585-3.443-3.344-3.443s-3.344 1.081-3.344 3.443c0 2.361 1.585 3.442 3.344 3.442s3.344-1.081 3.344-3.442m-7.906-1.254c0-1.438-.995-2.188-2.274-2.188-1.243 0-1.735.738-1.969 1.131h-.024v-.958h-1.646v6.54h1.72v-3.75c0-.997.59-1.513 1.353-1.513 1.096 0 1.12.812 1.12 1.291v3.972h1.721v-4.525zm-10.343-2.016h-1.818l-1.341 4.82h-.024l-1.402-4.82h-1.918l2.41 6.812c-.16.898-.504.984-1.131.984-.147 0-.258-.012-.332-.025v1.376c.246.012.541.025.775.025 1.5 0 1.721-.32 2.532-2.741l2.249-6.431zm-7.992-1.771h-1.72v1.771h-.885v1.228h.885v3.973c0 .848.27 1.413 1.757 1.413h.221c.271 0 .541-.012.812-.025v-1.302a3.52 3.52 0 0 1-.357.025c-.701 0-.713-.148-.713-.529v-3.555h1.07v-1.228h-1.07v-1.771zm-3.579-.603h-1.72v1.597h1.72v-1.597zm-1.719 8.914h1.72v-6.54h-1.72v6.54zm-1.651-4.524c0-1.438-.995-2.188-2.273-2.188-1.243 0-1.735.738-1.969 1.131h-.025v-.958h-1.646v6.54h1.72v-3.75c0-.997.591-1.513 1.354-1.513 1.095 0 1.119.812 1.119 1.291v3.972h1.72v-4.525zm-7.525-2.016h-1.72v3.774c0 1.169-.763 1.489-1.329 1.489-.529 0-1.12-.197-1.12-1.205v-4.058h-1.72v4.304c0 1.671.934 2.408 2.224 2.408.911 0 1.6-.393 1.994-1.093h.024v.921h1.647v-6.54zm-7.231 2.016c0-1.438-.995-2.188-2.274-2.188-1.046 0-1.526.725-1.747 1.045-.442-.701-.872-1.045-1.819-1.045-1.157 0-1.637.701-1.858 1.131h-.025v-.958h-1.646v6.54h1.72v-3.984c0-.713.259-1.279 1.071-1.279 1.033 0 1.033.775 1.033 1.328v3.935h1.721v-3.923c0-.774.307-1.34 1.169-1.34.504 0 .935.32.935 1.291v3.972h1.72v-4.525zm-10.932 0c0-1.438-.995-2.188-2.274-2.188-1.046 0-1.526.725-1.747 1.045-.442-.701-.872-1.045-1.819-1.045-1.157 0-1.637.701-1.858 1.131h-.025v-.958h-1.646v6.54h1.72v-3.984c0-.713.259-1.279 1.071-1.279 1.033 0 1.033.775 1.033 1.328v3.935h1.721v-3.923c0-.774.307-1.34 1.169-1.34.504 0 .935.32.935 1.291v3.972h1.72v-4.525zm-12.332 1.254c0 .836-.246 1.993-1.575 1.993s-1.575-1.157-1.575-1.993c0-.837.246-1.993 1.575-1.993s1.575 1.157 1.575 1.993m1.769 0c0-2.362-1.585-3.443-3.344-3.443s-3.344 1.081-3.344 3.443c0 2.361 1.585 3.442 3.344 3.442s3.344-1.081 3.344-3.442m-7.574-2.669c-.098-1.304-1.168-3.122-3.812-3.122-2.275 0-4.057 1.572-4.057 4.66 0 3.05 1.684 4.635 4.032 4.635 2.214 0 3.468-1.339 3.837-3.258h-1.845c-.221 1.083-.934 1.661-1.955 1.661-1.562 0-2.189-1.427-2.189-3.014 0-2.497 1.304-3.087 2.189-3.087 1.525 0 1.808.996 1.955 1.525h1.845zM262.668 211.135l.714-.738 1.561 2.803h2.066l-2.373-4.007 2.312-2.533h-2.114l-2.165 2.483v-4.77h-1.721v8.827h1.721v-2.065zm-6.38 2.065h1.72v-3.406c0-.725.246-1.562 1.586-1.562.16 0 .345 0 .492.025v-1.745a3.107 3.107 0 0 0-.332-.024c-1.045 0-1.439.639-1.795 1.302h-.025v-1.13h-1.646v6.54zm-2.964-3.27c0 .837-.246 1.993-1.574 1.993-1.329 0-1.575-1.156-1.575-1.993 0-.836.246-1.993 1.575-1.993 1.328 0 1.574 1.157 1.574 1.993m1.77 0c0-2.361-1.585-3.442-3.344-3.442-1.76 0-3.345 1.081-3.345 3.442 0 2.362 1.585 3.443 3.345 3.443 1.759 0 3.344-1.081 3.344-3.443m-6.973-3.27h-1.771l-1.02 4.697h-.025l-.983-4.697h-1.734l-.922 4.697h-.025l-1.02-4.697h-1.832l1.844 6.54h1.771l1.02-4.771h.025l1.02 4.771h1.771l1.881-6.54zm-16.698 4.709c-.295.271-.799.616-1.365.616-1.034 0-1.305-.825-1.305-1.169 0-.701.32-.947 1.046-1.476l1.624 2.029zm1.967-.098c.59-.775.897-1.464 1.008-2.657h-1.524c-.062.676-.235 1.107-.456 1.451l-1.253-1.55c.356-.209 1.462-.86 1.462-2.103 0-1.413-1.192-2.039-2.164-2.039-1.377 0-2.348.823-2.348 2.027 0 .763.43 1.427.799 1.845l-.184.11c-1.463.886-1.697 1.723-1.697 2.572 0 1.316 1.069 2.507 2.754 2.507 1.329 0 2.005-.467 2.52-.983l.604.749h2.077l-1.598-1.929zm-2.25-4.871c0 .455-.344.799-.812 1.095-.419-.455-.64-.812-.64-1.107 0-.467.332-.713.714-.713.419 0 .738.233.738.725m-9.039-2.027h-1.72v8.828h1.72v-8.828zm-4.746 5.557c0 .837-.247 1.993-1.575 1.993-1.329 0-1.575-1.156-1.575-1.993 0-.836.246-1.993 1.575-1.993s1.575 1.157 1.575 1.993m1.77 0c0-2.361-1.585-3.442-3.344-3.442s-3.344 1.081-3.344 3.442c0 2.362 1.585 3.443 3.344 3.443s3.344-1.081 3.344-3.443m-9.283 0c0 .837-.246 1.993-1.575 1.993-1.328 0-1.575-1.156-1.575-1.993 0-.836.247-1.993 1.575-1.993 1.329 0 1.575 1.157 1.575 1.993m1.769 0c0-2.361-1.585-3.442-3.344-3.442s-3.344 1.081-3.344 3.442c0 2.362 1.585 3.443 3.344 3.443s3.344-1.081 3.344-3.443m-7.907-1.255c0-1.438-.995-2.187-2.273-2.187-.936 0-1.674.479-1.895 1.019h-.025v-3.134h-1.72v8.827h1.72v-3.75c0-.996.591-1.513 1.354-1.513 1.095 0 1.119.812 1.119 1.292v3.971h1.72v-4.525zm-8.741 2.141c0 .307-.296 1.144-1.169 1.144-1.305 0-1.329-1.415-1.329-2.128 0-.812.283-1.895 1.366-1.895h.086c.738 0 .984.64 1.058 1.058h1.745c-.16-2.04-1.856-2.507-2.889-2.507-2.214 0-3.135 1.511-3.135 3.627 0 1.378.565 3.258 3.024 3.258 2.398 0 2.926-1.88 2.987-2.557h-1.744zm-12.408-.332c0 1.095.553 2.95 3.774 2.95.776 0 3.48-.233 3.48-2.888 0-1.587-1.106-2.079-2.311-2.374l-2.153-.529c-.369-.086-.935-.234-.935-.923 0-.799.837-1.058 1.538-1.058 1.612 0 1.759.935 1.809 1.329h1.769c-.012-1.083-.737-2.852-3.443-2.852-2.864 0-3.393 1.732-3.393 2.716 0 1.944 1.376 2.264 2.803 2.596l.947.221c.935.222 1.599.406 1.599 1.095 0 .935-.971 1.144-1.845 1.144-1.611 0-1.857-.935-1.87-1.427h-1.769zM248.031 229.962h-1.82l-1.34 4.821h-.024l-1.402-4.821h-1.918l2.41 6.813c-.16.897-.504.984-1.131.984-.148 0-.258-.013-.332-.025v1.376c.246.012.541.024.774.024 1.5 0 1.722-.319 2.533-2.74l2.25-6.432zm-7.292-2.287h-1.72v8.828h1.72v-8.828zm-3.419-.086h-1.72v1.597h1.72v-1.597zm-1.72 8.914h1.72v-6.54h-1.72v6.54zm-1.625-4.526c0-1.438-.995-2.187-2.273-2.187-1.046 0-1.526.725-1.748 1.044-.442-.7-.872-1.044-1.818-1.044-1.157 0-1.637.7-1.859 1.13h-.024v-.958h-1.646v6.541h1.72v-3.985c0-.713.258-1.278 1.07-1.278 1.034 0 1.034.774 1.034 1.328v3.935h1.72v-3.923c0-.775.308-1.34 1.169-1.34.505 0 .935.319.935 1.291v3.972h1.72v-4.526zm-12.578 2.178c0 .8-.775 1.292-1.538 1.292-.332 0-.8-.185-.8-.788 0-.713.529-.873 1.169-.984.714-.11.997-.221 1.169-.357v.837zm1.683-2.473c0-1.609-1.683-1.892-2.606-1.892-1.341 0-2.73.283-2.926 2.286h1.659c.049-.381.197-.91 1.058-.91.443 0 1.132.037 1.132.762 0 .369-.332.48-.603.517l-1.55.234c-1.094.16-1.905.812-1.905 2.091 0 1.352 1.007 1.905 1.991 1.905 1.169 0 1.722-.541 2.116-.946.037.369.062.468.16.774h1.855v-.257c-.209-.074-.381-.246-.381-1.021v-3.543zm-7.403-.492h1.119v-1.228h-1.119v-.258c0-.542.013-.727.603-.727h.48v-1.388a10.813 10.813 0 0 0-.886-.025c-1.179 0-1.917.516-1.917 1.869v.529h-.946v1.228h.946v5.313h1.72v-5.313zm-10.033 3.482c-.294.27-.799.615-1.365.615-1.034 0-1.304-.824-1.304-1.169 0-.701.32-.947 1.046-1.476l1.623 2.03zm1.968-.099c.589-.775.897-1.464 1.007-2.657h-1.523c-.062.677-.235 1.107-.457 1.452l-1.253-1.55c.357-.21 1.462-.861 1.462-2.103 0-1.414-1.191-2.04-2.163-2.04-1.378 0-2.348.823-2.348 2.027 0 .763.43 1.427.798 1.845l-.184.111c-1.463.885-1.696 1.722-1.696 2.571 0 1.316 1.069 2.507 2.753 2.507 1.329 0 2.005-.466 2.521-.982l.604.749h2.076l-1.597-1.93zm-2.25-4.871c0 .455-.345.8-.812 1.095-.419-.455-.641-.812-.641-1.107 0-.467.333-.713.714-.713.419 0 .739.234.739.725m-12.975 2.879c.098-.861.529-1.378 1.341-1.378.554 0 1.231.32 1.329 1.378h-2.67zm2.596 2.004c-.135.468-.627.714-1.107.714-1.391 0-1.489-1.108-1.538-1.6h4.488v-.307c0-2.988-1.781-3.602-3.073-3.602-2.865 0-3.135 2.521-3.135 3.307 0 2.693 1.413 3.578 3.258 3.578 1.119 0 2.422-.516 2.877-2.09h-1.77zm-5.424-2.608c0-1.438-.995-2.187-2.274-2.187-1.046 0-1.526.725-1.747 1.044-.443-.7-.873-1.044-1.819-1.044-1.157 0-1.637.7-1.858 1.13h-.025v-.958h-1.646v6.541h1.72v-3.985c0-.713.258-1.278 1.071-1.278 1.033 0 1.033.774 1.033 1.328v3.935h1.72v-3.923c0-.775.308-1.34 1.169-1.34.505 0 .936.319.936 1.291v3.972h1.72v-4.526zm-12.333 1.255c0 .837-.246 1.993-1.574 1.993-1.329 0-1.575-1.156-1.575-1.993 0-.836.246-1.992 1.575-1.992 1.328 0 1.574 1.156 1.574 1.992m1.77 0c0-2.361-1.585-3.442-3.344-3.442s-3.344 1.081-3.344 3.442c0 2.362 1.585 3.443 3.344 3.443s3.344-1.081 3.344-3.443m-9.824-.689v3.96h1.843v-8.828h-1.843v3.345h-3.445v-3.345h-1.843v8.828h1.843v-3.96h3.445zM410.745 311.346c-1.358-.175-1.843-.604-1.119-1.316.494-.485 1.636-1.045 3.5-1.023l-2.381 2.339zm5.679-2.068c.665.166.64.623.212 1.043-1.239 1.218-3.188 1.19-4.058 1.183l4.001-3.932-.515-.032c-5.017-.306-7.636 1.191-8.787 2.323-2.555 2.51 1.436 3.006 2.757 3.087 4.522.275 7.267-.871 8.911-2.487.998-.98 1.294-2.176-.943-2.734l-1.578 1.549zm-9.142 4.374c-3.219-.071-5.114 1.23-6.255 2.353-1.82 1.788-.294 2.441 1.321 2.54 4.103.251 6.339-3.389 8.176-3.276.414.025.951.253.161 1.029-.965.948-1.954 1.208-2.885 1.151L406.223 319c2.977.136 5.277-1.221 6.604-2.526.911-.894 1.978-2.544-1.224-2.739-4.042-.247-6.434 3.417-8.169 3.311-.477-.029-.968-.174-.133-.993.834-.818 1.711-.902 2.48-.925l1.501-1.476zm-1.277 9.224l1.533-1.507-5.718-.349c-1.219-.075-2.403-.376-1.208-1.552.142-.14.307-.301.479-.428l-2.929-.179c-.12.095-.239.19-.338.288-.932.916-.21 1.325.586 1.707l-.021.021-1.897-.116-1.468 1.443 10.981.672zm-12.407.732l-1.533 1.507 6.337.387c1.962.12 1.819.821 1.313 1.317-.471.464-1.327.961-3.021.857l-6.813-.417-1.533 1.507 7.226.442c2.807.172 4.877-.571 6.027-1.702.812-.798.767-1.441-.059-1.857l.022-.022 1.546.095 1.468-1.442-10.98-.672zm-2.424 8.112c1.404.086 3.127.42 1.941 1.584-1.184 1.164-3.345 1.262-4.749 1.176-1.405-.087-3.127-.421-1.942-1.584 1.184-1.164 3.346-1.262 4.75-1.176m1.577-1.55c-3.965-.243-7.192 1.035-8.761 2.576s-1.167 3.041 2.798 3.283c3.965.243 7.193-1.035 8.761-2.576 1.568-1.54 1.167-3.04-2.798-3.283m-6.767 8.203c.516.032 1.657.376.878 1.142-1.163 1.143-3.56 1.02-4.758.945-1.363-.083-2.928-.442-1.962-1.391l.076-.075c.658-.647 1.951-.797 2.72-.819l1.555-1.527c-3.567-.07-5.864 1.367-6.785 2.272-1.974 1.94-.258 2.902 3.294 3.12 2.313.141 5.975-.161 8.166-2.316 2.139-2.1-.548-2.756-1.629-2.88l-1.555 1.529zm-14.071 11.134c-1.358-.175-1.844-.605-1.12-1.316.494-.485 1.636-1.045 3.5-1.023l-2.38 2.339zm5.678-2.068c.665.166.64.623.213 1.043-1.24 1.218-3.188 1.19-4.059 1.183l4.002-3.932-.516-.032c-5.017-.306-7.636 1.19-8.787 2.323-2.554 2.51 1.436 3.006 2.757 3.087 4.522.275 7.266-.871 8.911-2.487.999-.981 1.294-2.176-.943-2.735l-1.578 1.55zm-10.897 4.759l.997-.98-2.063-.126-.997.98-.435-.026c-.909-.056-1.209-.086-.682-.603l.427-.42-2.33-.144c-.152.128-.381.332-.831.774-1.052 1.033-.843 1.731 1.428 1.871l.89.054-.845.83 2.063.126.844-.83 8.919.546 1.534-1.507-8.919-.545zm-9.292 2.819l-1.534 1.508 2.683.164 1.532-1.508-2.681-.164zm2.452 1.75l10.98.673 1.533-1.508-10.98-.672-1.533 1.507zm-8.82 4.658l-1.643 1.615 14.82.906 5.558-5.461-2.682-.164-3.914 3.846-12.139-.742z"/><path clip-path="url(#d)" fill="#F1F2F2" d="M121.879 71.998l.028-.017 3.624 3.171-2.527 1.543-1.125-4.697zm1.618 6.747l3.659-2.235 1.884 1.656 2.251-1.375-9.549-7.781-2.389 1.459 2.52 12.074 2.182-1.333-.558-2.465zM134.637 71.43c.194.355.382 1.506-.626 2.058-1.504.823-2.426-.793-2.877-1.616-.512-.937-.87-2.365.379-3.049l.1-.054c.851-.466 1.539.117 1.888.553l2.016-1.104c-1.474-2.255-3.728-1.722-4.92-1.069-2.555 1.398-2.664 3.726-1.328 6.168.87 1.589 2.712 3.404 5.55 1.85 2.768-1.515 2.19-4.021 1.833-4.84l-2.015 1.103zM141.794 67.75c.181.362.328 1.519-.699 2.034-1.533.77-2.396-.879-2.817-1.718-.479-.954-.785-2.394.487-3.032l.101-.051c.868-.436 1.535.171 1.868.619l2.054-1.03c-1.393-2.306-3.664-1.854-4.879-1.245-2.603 1.307-2.795 3.63-1.547 6.117.813 1.62 2.589 3.499 5.481 2.047 2.82-1.415 2.331-3.94 2.005-4.772l-2.054 1.031zM145.25 63.854c-.354-1.083-.122-1.937.849-2.381.662-.304 1.646-.292 2.343.92l-3.192 1.461zm4.202.977c.094.633-.36 1.197-.933 1.46-1.663.761-2.387-.509-2.715-1.071l5.37-2.459-.169-.367c-1.637-3.575-4.107-3.334-5.651-2.627-3.428 1.57-2.371 4.734-1.94 5.675 1.476 3.222 3.652 3.507 5.859 2.496 1.339-.613 2.615-1.945 2.297-4.077l-2.118.97zM157.494 57.658c-1.095-2.173-3.11-1.792-4.664-1.147-2.48 1.03-2.592 2.829-2.108 3.994 1.235 2.974 5.751-.075 6.303 1.255.124.299.087.927-.989 1.374-1.315.546-1.938.227-2.217-.446l-2.152.894c.941 2.097 3.159 1.912 4.967 1.161 1.241-.515 3.308-1.865 2.346-4.181-1.216-2.929-5.813.049-6.335-1.206-.142-.343-.173-.839.963-1.311 1.135-.471 1.538-.008 1.839.463l2.047-.85zM165.113 54.804c-1.017-2.211-3.043-1.903-4.619-1.313-2.516.94-2.692 2.733-2.251 3.915 1.128 3.016 5.75.131 6.254 1.48.113.303.054.93-1.037 1.338-1.334.499-1.945.157-2.2-.525l-2.183.816c.865 2.13 3.089 2.024 4.923 1.338 1.258-.47 3.372-1.744 2.494-4.093-1.11-2.971-5.812-.16-6.287-1.433-.131-.348-.143-.845 1.008-1.275 1.152-.431 1.538.047 1.822.528l2.076-.776z"/><text transform="rotate(-19.126 262.895 -467.127)" fill="#F1F2F2" font-family="'HelveticaLTStd-Bold'" font-size="16.18"></text><g><defs><path id="e" d="M0 0h510.236v510.236H0z"/></defs><clipPath id="f"><use xlink:href="#e" overflow="visible"/></clipPath><path clip-path="url(#f)" fill="#F1F2F2" d="M171.7 47.419l-2.157.69.71 2.22-1.11.355.493 1.541 1.11-.355 1.593 4.977c.34 1.063.906 1.664 2.771 1.067l.277-.089c.339-.108.673-.232 1.007-.356l-.522-1.633c-.15.064-.299.129-.437.173-.879.281-.953.101-1.106-.376l-1.426-4.454 1.341-.429-.493-1.541-1.341.429-.71-2.219zM181.398 51.471c.297 1.059.396 2.611-1.286 3.083-1.683.472-2.405-.905-2.702-1.964-.298-1.059-.397-2.611 1.285-3.083 1.683-.473 2.406.904 2.703 1.964m2.244-.63c-.839-2.991-3.234-3.798-5.462-3.173-2.227.625-3.852 2.56-3.013 5.551.84 2.992 3.234 3.798 5.462 3.173s3.851-2.559 3.013-5.551"/></g><text transform="rotate(-14.295 311.721 -709.674)" fill="#F1F2F2" font-family="'HelveticaLTStd-Bold'" font-size="16.18"></text><g><defs><path id="g" d="M0 0h510.236v510.236H0z"/></defs><clipPath id="h"><use xlink:href="#g" overflow="visible"/></clipPath><path clip-path="url(#h)" fill="#F1F2F2" d="M195.483 46.332c-.423-1.845-1.921-2.515-3.561-2.139-1.199.275-2.004 1.107-2.129 1.866l-.031.007-.922-4.021-2.208.506 2.595 11.324 2.208-.506-1.102-4.811c-.293-1.277.312-2.113 1.29-2.337 1.404-.322 1.674.712 1.815 1.327l1.167 5.094 2.208-.506-1.33-5.804zM198.095 46.655c-.085-1.137.343-1.911 1.392-2.111.715-.137 1.668.109 2.057 1.451l-3.449.66zm3.849 1.949c-.059.637-.634 1.077-1.254 1.195-1.796.344-2.197-1.062-2.382-1.686l5.801-1.109-.076-.397c-.738-3.862-3.195-4.216-4.864-3.897-3.702.708-3.429 4.033-3.235 5.05.666 3.48 2.712 4.275 5.096 3.819 1.447-.276 3.004-1.266 3.202-3.413l-2.288.438zM209.623 46.78c.16 1.04-.749 1.834-1.741 1.987-.432.066-1.076-.08-1.197-.864-.142-.927.513-1.241 1.323-1.513.905-.286 1.251-.487 1.448-.697l.167 1.087zm1.696-3.551c-.322-2.095-2.57-2.126-3.769-1.942-1.743.268-3.494.914-3.349 3.56l2.159-.332c-.012-.505.074-1.223 1.193-1.395.576-.088 1.479-.178 1.624.766.074.479-.336.69-.68.792l-1.969.613c-1.391.427-2.316 1.437-2.06 3.1.27 1.759 1.692 2.277 2.971 2.081 1.52-.234 2.131-1.048 2.562-1.654.122.472.173.595.363.975l2.414-.371-.051-.336c-.287-.054-.545-.244-.7-1.251l-.708-4.606z"/><path transform="rotate(-7.354 213.221 43.558)" clip-path="url(#h)" fill="#F1F2F2" d="M212.067 37.746h2.266v11.617h-2.266z"/><path clip-path="url(#h)" fill="#F1F2F2" d="M217.196 37.908l-2.25.262.27 2.315-1.158.134.188 1.608 1.157-.135.605 5.191c.129 1.109.569 1.807 2.513 1.58l.29-.033c.353-.042.705-.099 1.057-.156l-.199-1.704c-.159.035-.317.07-.462.087-.916.106-.955-.085-1.013-.583l-.541-4.645 1.398-.162-.187-1.608-1.398.163-.27-2.314zM227.154 42.022c-.15-1.887-1.535-2.767-3.212-2.634-1.226.098-2.144.804-2.378 1.537l-.032.002-.327-4.113-2.259.18.922 11.581 2.258-.18-.391-4.919c-.104-1.307.616-2.046 1.616-2.125 1.436-.114 1.553.947 1.603 1.577l.414 5.209 2.258-.179-.472-5.936zM233.048 44.512c.022.404-.305 1.524-1.452 1.587-1.713.094-1.847-1.762-1.899-2.699-.059-1.066.235-2.508 1.657-2.587l.113-.006c.969-.053 1.338.769 1.466 1.313l2.294-.126c-.358-2.671-2.621-3.162-3.978-3.087-2.909.16-4.011 2.214-3.858 4.993.1 1.809.979 4.24 4.21 4.062 3.151-.173 3.709-2.683 3.741-3.576l-2.294.126zM240.823 44.357c.02 1.052-.988 1.718-1.991 1.736-.437.008-1.056-.223-1.07-1.016-.018-.938.674-1.161 1.513-1.322.935-.163 1.305-.316 1.528-.498l.02 1.1zm2.156-3.292c-.039-2.119-2.262-2.451-3.475-2.428-1.764.032-3.585.437-3.795 3.079l2.184-.04c.055-.503.236-1.202 1.369-1.223.582-.01 1.489.022 1.507.976.009.486-.426.639-.781.694l-2.032.345c-1.436.237-2.488 1.114-2.457 2.796.032 1.78 1.372 2.483 2.666 2.46 1.537-.029 2.252-.754 2.76-1.297.057.484.092.613.229 1.015l2.443-.045-.006-.339c-.277-.092-.508-.315-.527-1.334l-.085-4.659zM243.602 47.438l2.265.014.028-4.482c.005-.955.336-2.053 2.099-2.042.211.001.453.003.647.036l.014-2.297c-.145-.017-.291-.035-.436-.035-1.376-.009-1.898.829-2.373 1.7h-.032l.009-1.489-2.168-.013-.053 8.608zM251.161 42.395c.178-1.126.773-1.781 1.839-1.735.728.031 1.599.489 1.669 1.885l-3.508-.15zm3.298 2.781c-.204.607-.865.902-1.495.875-1.827-.078-1.894-1.538-1.931-2.188l5.901.253.017-.404c.168-3.929-2.141-4.837-3.839-4.91-3.766-.161-4.264 3.138-4.308 4.172-.152 3.541 1.658 4.784 4.082 4.888 1.472.063 3.214-.543 3.901-2.586l-2.328-.1z"/><path clip-path="url(#h)" d="M120.841 290.746c0-1.438-.995-2.188-2.274-2.188-1.243 0-1.735.737-1.968 1.131h-.025v-.958h-1.646v6.541h1.72v-3.751c0-.996.59-1.513 1.353-1.513 1.095 0 1.12.812 1.12 1.291v3.973h1.72v-4.526zM111.953 292c0 .836-.246 1.993-1.575 1.993s-1.575-1.157-1.575-1.993c0-.837.246-1.993 1.575-1.993s1.575 1.157 1.575 1.993m1.769 0c0-2.362-1.585-3.443-3.344-3.443s-3.344 1.081-3.344 3.443c0 2.361 1.585 3.442 3.344 3.442 1.759.001 3.344-1.08 3.344-3.442m-7.76-1.277c-.135-1.846-1.659-2.166-2.939-2.166-2.041 0-2.643 1.229-2.643 2.19 0 2.445 4.058 1.621 4.058 2.716 0 .246-.209.677-1.095.677-1.083 0-1.427-.405-1.427-.961h-1.769c.049 1.747 1.658 2.264 3.147 2.264 1.021 0 2.864-.345 2.864-2.25 0-2.408-4.095-1.657-4.095-2.691 0-.284.123-.642 1.059-.642.935 0 1.082.443 1.156.863h1.684zm-9.996 4.548h1.72v-3.406c0-.727.246-1.563 1.586-1.563.16 0 .344 0 .492.025v-1.745c-.111-.012-.221-.025-.332-.025-1.045 0-1.439.64-1.795 1.304h-.025v-1.131h-1.646v6.541zm-5.571-3.922c.098-.861.529-1.379 1.341-1.379.553 0 1.23.32 1.329 1.379h-2.67zm2.596 2.004c-.136.468-.628.714-1.108.714-1.39 0-1.488-1.107-1.538-1.601h4.489v-.307c0-2.988-1.782-3.603-3.074-3.603-2.864 0-3.135 2.521-3.135 3.308 0 2.693 1.413 3.578 3.258 3.578 1.12 0 2.423-.517 2.877-2.09h-1.769zm-9.704-2.79v-2.598h1.464c1.144 0 1.624.357 1.624 1.219 0 .394 0 1.379-1.378 1.379h-1.71zm0 1.522h2.116c2.373 0 2.815-2.015 2.815-2.814 0-1.734-1.032-2.828-2.741-2.828h-4.033v8.828h1.843v-3.186z"/></g><path fill="none" stroke="#000" stroke-width="2.306" stroke-linecap="round" stroke-linejoin="round" stroke-dasharray="0,4.542" d="M132.881 292.138h70.406"/><path fill="none" stroke="#000" stroke-width="2.306" stroke-linecap="round" stroke-linejoin="round" d="M128.338 292.138"/><text transform="translate(199.886 283.522)" font-family="'HelveticaLTStd-Bold'" font-size="12.297"></text><g><defs><path id="i" d="M0 0h510.236v510.236H0z"/></defs><clipPath id="j"><use xlink:href="#i" overflow="visible"/></clipPath><path clip-path="url(#j)" d="M261.16 279.6c.1-.861.529-1.379 1.341-1.379.555 0 1.231.32 1.329 1.379h-2.67zm2.597 2.004c-.136.468-.628.713-1.107.713-1.39 0-1.489-1.106-1.538-1.6h4.488v-.307c0-2.987-1.781-3.603-3.073-3.603-2.865 0-3.135 2.521-3.135 3.309 0 2.692 1.413 3.576 3.258 3.576 1.12 0 2.422-.516 2.877-2.089h-1.77zm-5.302-2.63c-.135-1.846-1.658-2.166-2.938-2.166-2.041 0-2.643 1.229-2.643 2.19 0 2.444 4.058 1.621 4.058 2.716 0 .246-.209.677-1.096.677-1.082 0-1.427-.405-1.427-.961h-1.769c.049 1.747 1.658 2.263 3.146 2.263 1.021 0 2.865-.344 2.865-2.25 0-2.407-4.095-1.656-4.095-2.69 0-.284.123-.642 1.058-.642.936 0 1.083.443 1.156.863h1.685zm-8.606 2.199c0 .8-.775 1.292-1.538 1.292-.332 0-.8-.185-.8-.787 0-.714.529-.874 1.169-.983.714-.111.997-.223 1.169-.357v.835zm1.682-2.471c0-1.61-1.683-1.894-2.606-1.894-1.341 0-2.729.283-2.926 2.286h1.659c.049-.381.197-.91 1.058-.91.443 0 1.132.037 1.132.764 0 .368-.332.479-.603.516l-1.55.234c-1.094.159-1.905.812-1.905 2.091 0 1.352 1.008 1.904 1.991 1.904 1.169 0 1.723-.539 2.116-.945.037.37.062.468.16.773h1.856v-.257c-.209-.074-.382-.246-.382-1.021v-3.541zm-10.882.898c.098-.861.529-1.379 1.341-1.379.553 0 1.23.32 1.329 1.379h-2.67zm2.597 2.004c-.136.468-.628.713-1.108.713-1.39 0-1.488-1.106-1.538-1.6h4.489v-.307c0-2.987-1.782-3.603-3.074-3.603-2.864 0-3.135 2.521-3.135 3.309 0 2.692 1.413 3.576 3.258 3.576 1.12 0 2.422-.516 2.877-2.089h-1.769zm-5.303-2.63c-.135-1.846-1.658-2.166-2.938-2.166-2.041 0-2.643 1.229-2.643 2.19 0 2.444 4.058 1.621 4.058 2.716 0 .246-.209.677-1.095.677-1.083 0-1.428-.405-1.428-.961h-1.769c.049 1.747 1.659 2.263 3.148 2.263 1.021 0 2.864-.344 2.864-2.25 0-2.407-4.095-1.656-4.095-2.69 0-.284.123-.642 1.058-.642s1.083.443 1.157.863h1.683zm-7.034-4.367h-1.72v1.598h1.72v-1.598zm-1.72 8.914h1.72v-6.541h-1.72v6.541zm-6.985-7.304h1.772c.787 0 2.029.209 2.029 2.816 0 1.452-.504 2.965-2.005 2.965h-1.796v-5.781zm-1.807 7.304h3.824c2.914 0 3.663-2.729 3.663-4.623 0-1.673-.614-4.205-3.589-4.205h-3.898v8.828z"/></g><text transform="translate(199.886 295.05)" font-family="'HelveticaLTStd-Bold'" font-size="12.297"></text><g><defs><path id="k" d="M0 0h510.236v510.236H0z"/></defs><clipPath id="l"><use xlink:href="#k" overflow="visible"/></clipPath><path clip-path="url(#l)" d="M250.942 291.816c0-1.524.714-1.992 1.353-1.992.96 0 1.477.86 1.477 1.919 0 .897-.295 1.895-1.464 1.895-1.022-.001-1.366-.984-1.366-1.822m2.891-3.307v.97h-.024c-.209-.43-.702-1.142-1.92-1.142-1.439 0-2.716 1.104-2.716 3.368 0 2.288 1.241 3.381 2.815 3.381 1.033 0 1.464-.479 1.747-.982l.024.024v.786c0 1.059-.442 1.502-1.365 1.502-.997 0-1.132-.332-1.206-.665h-1.868c.074 1.39 1.499 1.967 2.852 1.967 3.222 0 3.308-1.881 3.308-3.012v-6.197h-1.647zm-5.953 2.015c0-1.438-.995-2.187-2.274-2.187-1.243 0-1.735.737-1.968 1.13h-.025v-.958h-1.646v6.541h1.72v-3.751c0-.996.59-1.513 1.353-1.513 1.095 0 1.12.812 1.12 1.292v3.972h1.72v-4.526zm-7.563-4.388h-1.72v1.597h1.72v-1.597zm-1.72 8.914h1.72v-6.541h-1.72v6.541zm-1.501-4.548c-.135-1.846-1.659-2.165-2.939-2.165-2.041 0-2.643 1.228-2.643 2.19 0 2.443 4.058 1.62 4.058 2.715 0 .247-.209.678-1.095.678-1.083 0-1.427-.407-1.427-.961h-1.769c.049 1.747 1.658 2.263 3.147 2.263 1.021 0 2.864-.344 2.864-2.251 0-2.407-4.095-1.657-4.095-2.69 0-.283.123-.642 1.059-.642.935 0 1.082.444 1.156.863h1.684zm-6.997-1.993h-1.721v3.774c0 1.169-.762 1.488-1.328 1.488-.53 0-1.12-.196-1.12-1.205v-4.058h-1.72v4.304c0 1.673.934 2.409 2.224 2.409.911 0 1.6-.393 1.994-1.094h.024v.922h1.647v-6.54zm-9.123 4.194c0 .799-.776 1.292-1.538 1.292-.333 0-.8-.186-.8-.788 0-.713.529-.873 1.169-.984.713-.11.996-.221 1.169-.356v.836zm1.683-2.474c0-1.609-1.683-1.892-2.606-1.892-1.341 0-2.73.282-2.927 2.286h1.659c.05-.381.197-.91 1.059-.91.443 0 1.132.036 1.132.762 0 .369-.333.48-.603.518l-1.551.233c-1.094.16-1.904.812-1.904 2.091 0 1.353 1.007 1.905 1.99 1.905 1.169 0 1.723-.541 2.117-.946.037.369.061.469.16.774h1.855v-.257c-.209-.074-.381-.246-.381-1.021v-3.543zm-8.25 2.437c0 .308-.295 1.144-1.169 1.144-1.304 0-1.329-1.415-1.329-2.128 0-.812.283-1.895 1.366-1.895h.086c.738 0 .984.64 1.058 1.058h1.745c-.16-2.04-1.855-2.507-2.889-2.507-2.214 0-3.135 1.511-3.135 3.627 0 1.378.565 3.258 3.024 3.258 2.398 0 2.926-1.88 2.988-2.557h-1.745zM238.509 302.031c-.135-1.846-1.659-2.165-2.938-2.165-2.041 0-2.643 1.229-2.643 2.19 0 2.444 4.058 1.62 4.058 2.715 0 .246-.209.678-1.095.678-1.083 0-1.428-.406-1.428-.961h-1.769c.049 1.747 1.659 2.263 3.147 2.263 1.022 0 2.865-.344 2.865-2.25 0-2.407-4.095-1.657-4.095-2.691 0-.284.123-.641 1.058-.641s1.083.443 1.157.862h1.683zm-7.55-3.764h-1.72v1.771h-.886v1.229h.886v3.973c0 .849.27 1.413 1.757 1.413h.221c.271 0 .541-.012.812-.023v-1.303a3.508 3.508 0 0 1-.357.024c-.701 0-.713-.147-.713-.529v-3.555h1.07v-1.229h-1.07v-1.771zm-3.529 3.786c0-1.438-.996-2.188-2.274-2.188-1.243 0-1.735.737-1.969 1.13h-.024v-.958h-1.647v6.54h1.72v-3.75c0-.995.591-1.513 1.354-1.513 1.095 0 1.12.813 1.12 1.291v3.972h1.72v-4.524zm-11.498.604c.098-.861.529-1.379 1.341-1.379.554 0 1.23.32 1.329 1.379h-2.67zm2.596 2.004c-.135.469-.627.715-1.107.715-1.391 0-1.489-1.108-1.538-1.601h4.488v-.307c0-2.988-1.781-3.603-3.073-3.603-2.865 0-3.135 2.521-3.135 3.308 0 2.692 1.413 3.577 3.258 3.577 1.119 0 2.422-.516 2.876-2.09h-1.769zm-10.023-1.316c0-1.525.713-1.993 1.353-1.993.96 0 1.476.861 1.476 1.919 0 .898-.295 1.896-1.464 1.896-1.021 0-1.365-.985-1.365-1.822m2.891-3.307v.971h-.025c-.209-.431-.701-1.143-1.919-1.143-1.439 0-2.717 1.105-2.717 3.368 0 2.288 1.241 3.381 2.815 3.381 1.034 0 1.465-.479 1.748-.982l.024.024v.786c0 1.06-.443 1.502-1.366 1.502-.996 0-1.132-.333-1.205-.665h-1.868c.073 1.39 1.499 1.967 2.852 1.967 3.221 0 3.307-1.881 3.307-3.013v-6.196h-1.646zm-7.452 4.192c0 .8-.775 1.292-1.538 1.292-.333 0-.8-.184-.8-.787 0-.713.529-.873 1.169-.983.714-.111.997-.223 1.169-.357v.835zm1.683-2.472c0-1.61-1.683-1.893-2.606-1.893-1.341 0-2.73.282-2.926 2.286h1.659c.049-.382.196-.911 1.058-.911.443 0 1.132.037 1.132.764 0 .368-.332.479-.603.517l-1.551.233c-1.093.159-1.904.812-1.904 2.092 0 1.352 1.007 1.904 1.991 1.904 1.169 0 1.722-.54 2.116-.945.037.369.061.467.16.772h1.855v-.256c-.209-.074-.381-.246-.381-1.021v-3.542z"/></g></svg>