<svg version="1.1" xmlns="http://www.w3.org/2000/svg" x="0" y="0" width="247.68" height="240.96" viewBox="0 0 247.68 240.96" xml:space="preserve"><g fill-rule="evenodd" clip-rule="evenodd" fill="#8C1E27"><path d="M130.56 0h4.08c2.952 5.127 6.126 10.034 8.88 15.36.436-4.764.217-10.183.479-15.12h3.36c-.075 7.032-.242 13.189-.24 20.64h-3.84c-2.956-5.203-5.871-10.449-9.12-15.36-.631 5.083-.251 9.916-.479 15.12h-3.36c-.129-7.089.424-13.496.24-20.64zM150.96 21.6c2.075-6.325 3.138-13.662 5.279-19.92 5.226 1.324 10.906 1.449 13.44 5.04 3.241 4.592 1.03 12.83-2.641 15.6-4.851 3.663-10.554-.035-16.078-.72zm12-.96c3.252-1.662 6.114-7.271 4.079-11.52-1.345-2.809-4.835-2.924-8.159-3.84-1.086 4.915-2.362 9.638-3.601 14.4 2.737.144 4.453 1.308 7.681.96zM113.28 2.16c5.593-1.272 8.75 1.97 11.04 4.8.672 2.176 1.937 7.512.48 11.04-2.058 4.985-10.5 7.308-15.12 3.6-4.497-3.608-5.182-12.012-1.44-17.04 1.645-.835 3.053-1.907 5.04-2.4zm8.4 14.88c3.083-7.924-6.627-17.19-12-8.88-1.098 5.326.45 9.005 3.36 11.76 4.025.869 7.67-.388 8.64-2.88zM82.08 19.44c1.782 3.498 3.807 6.753 5.76 10.08-.054.346-.716.083-.72.48.511 1.329 1.434 2.246 1.68 3.84-1.176.264-1.977.903-3.12 1.2-2.614-6.426-5.969-12.111-8.64-18.48 1.338-.822 3.131-1.189 4.32-2.16 4.22 3.86 8.02 8.14 12.24 12-.624-5.776-1.385-11.415-2.16-17.04C93.015 8.695 94.7 8.14 96 7.2c3.235 6.044 6.32 12.239 9.12 18.72-1.176.264-1.977.903-3.12 1.2-2.136-4.824-4.638-9.282-6.72-14.16.008 5.193 1.131 11.349 1.44 17.04-.876.244-1.645.595-2.4.96-3.589-2.57-6.595-5.725-10.08-8.4 1.433-.724-1.492-2.214-2.16-3.12zM183.6 9.84c3.539 1.581 6.855 3.385 10.56 4.8-.074.326-.601.199-.96.24 1.481 1.239 3.544 1.896 5.28 2.88-.506 1.014-1.174 1.866-1.68 2.88-1.797-1.083-3.864-1.896-5.521-3.12-3.111 4.808-5.424 10.416-8.399 15.36-1.133-.468-2.018-1.182-3.12-1.68 2.797-4.963 5.198-10.322 8.16-15.12-1.603-1.438-3.899-2.181-5.761-3.36.48-.961.963-1.919 1.441-2.88zM54.48 15.6c.315.084.377.422.72.48-8.197 10.06-16.006 20.51-21.36 33.36-5.333 12.799-9.421 28.006-9.6 45.12-.365 34.885 12.044 61.244 28.56 80.64 16.953 19.909 38.756 34.119 68.88 40.56 29.313 6.268 59.547-.983 79.439-11.52 1.445-.766 2.847-1.629 4.32-2.4 1.224-.641 2.815-1.709 4.32-1.439-17.255 12.357-37.386 20.907-64.08 21.84-27.684.967-49.588-6.118-68.16-17.04-17.144-10.082-31.592-25.411-42.48-43.2-10.185-16.641-17.696-42.146-15.84-69.36C21.427 59.976 36.75 33.905 54.48 15.6zM213.84 30.24c1.022.657 1.616 1.743 2.64 2.4-2.689 2.491-6.205 8.21-9.6 11.28-5.509 4.981-17.275-2.853-13.2-10.8 2.139-4.172 7.663-7.496 10.08-11.52.486.933 2.608 1.657 2.64 2.4.046 1.081-4.61 4.359-5.28 5.28-.268.368.266.438 0 .96-1.033 2.031-4.483 4.188-4.8 6-.453 2.601 2.592 6.55 6.48 5.76 2.686-.546 4.582-4.377 5.76-5.76 1.932-2.268 3.424-3.76 5.28-6z"/><path d="M73.68 26.16c-.41 1.27-1.831 1.529-2.64 2.4-.971-.309-1.53-1.031-2.64-1.2-2.27-.67-7.922 5.629-3.12 6.72 3.09.702 7.107-3.586 10.08-3.6 3.133-.015 5.557 2.446 5.76 5.04.521 6.661-9.247 13.259-14.88 7.44.451-.155 1.934-2.579 2.64-2.64.923-.08 2.189 1.654 3.36 1.68 4.013.09 7.934-5.896 3.36-7.92-4.368.191-6.611 4.938-11.76 3.6-2.409-.626-3.777-3.835-3.6-6.24.361-4.905 8.992-10.229 13.44-5.28zM130.8 29.76c-.045-.204.094-.226.239-.24 24.792-1.329 42.519 7.171 56.16 18 6.984 5.543 12.427 11.127 17.521 18.96 6.836 10.513 11.659 23.911 12.24 39.84-2.101-8.968-3.965-16.832-7.44-24-7.95-16.396-20.313-29.97-36.96-37.92-10.123-4.834-21.813-8.17-35.04-8.4-13.047-.227-25.191 3.416-35.28 8.16-24.856 11.689-41.229 33.489-45.6 65.76-.695-17.063 5.023-31.595 12.24-42.96 4.561-7.183 9.264-12.05 15.36-17.52 11.426-10.252 27.668-18.345 47.28-19.68h-.72zM53.52 36c.39.911 2.294.978 2.4 1.92.074.656-2.442 3.194-3.36 4.32-1.493 1.83-2.767 3.272-3.6 4.08.689.15 2.874 3.809 3.84 3.84 1.896.062 5.381-7.113 6.96-8.16.865.495 1.295 1.425 2.16 1.92-2.186 2.534-4.092 5.348-6.48 7.68 1.175 1.625 3.115 2.485 4.32 4.08 1.763-1.28 3.679-4.48 5.52-6.72.303-.368 1.857-2.152 1.92-2.16.048-.006 2.597 1.613 2.64 1.92.053.375-2.048 2.695-2.4 3.12-1.64 1.979-2.813 3.321-4.8 5.76-.407.5-2.094 2.846-2.4 2.88-.448.05-3.319-2.755-4.08-3.36-3.86-3.068-6.075-4.712-10.08-7.92.007.006-1.887-1.346-1.92-1.68-.041-.408 3.773-4.855 4.32-5.52 2.231-2.713 3.578-3.985 5.04-6zM230.64 49.44c-.387 1.133-1.433 1.607-2.4 2.16-.421-.975-1.067-1.588-1.92-2.64-.316-.391-1.455-2.339-1.92-2.4-.466-.062-2.756 1.994-3.6 2.64-3.312 2.534-7.576 6.398-10.561 8.16-.449-1.07-1.179-1.86-1.92-2.64 4.268-3.973 9.357-7.123 13.68-11.04-1.067-1.892-2.469-3.451-3.84-5.04.441-1 1.687-1.194 2.16-2.16 3.707 4.054 6.792 8.729 10.321 12.96zM233.76 54.24c.658.941 1.15 2.049 1.439 3.36-1.912.327-3.148 1.331-5.04 1.68.074.326.602.199.96.24-2.581 2.806-9.709 2.868-10.319 6.96-.545 3.649 2.791 7.078 6.479 6 3.894-1.137 9.498-5.387 12.48-6.48a9.045 9.045 0 0 1 1.68 3.6c-6.241 1.997-12.772 9.481-20.64 5.28-.445-2.323-3-3.984-3.36-6.72-1.203-9.151 11.561-9.735 16.321-13.92zM50.88 78.48c-6.656-2.625-12.179-6.381-18.72-9.12 2.986-4.644 4.341-13.822 12.96-12.72 5.489.702 11.915 5.643 10.32 12.48-.847 3.63-3.33 5.415-4.56 9.36zm1.44-11.28c.011-4.494-8.044-9.587-12.24-6-2.064 1.765-2.11 3.705-3.6 6.24 4.667 1.973 8.773 4.507 13.44 6.48.692-2.562 2.393-3.958 2.4-6.72z"/><path d="M145.2 61.92v44.16c6.297-6.277 14.012-12.147 26.88-11.04 9.423.811 17.748 6.815 20.881 14.88 3.157 8.131 3.569 21.489-1.2 29.28-.729 1.188-1.268 2.695-1.92 3.6-3.33 4.613-10.264 8.225-17.04 8.88-12.212 1.182-21.139-3.99-27.601-10.56v9.36h-4.319V62.64c.152-1.528 3.01-.349 4.319-.72zm18.72 87.12c15.867 1.867 23.916-8.353 25.68-19.68 2.542-16.328-5.427-32.97-23.521-31.68-1.539.109-4.527.566-6.239 1.2-2.998 1.109-8.32 4.264-10.801 6.24-1.08.861-3.478 2.993-3.84 4.32-.519 1.902 0 4.777 0 7.2v21.84c4.308 3.726 10.354 9.576 18.721 10.56zM96.96 77.04V98.4c4.8.16 10.24-.319 14.64.24v1.92c-3.846 1.114-9.756.164-14.4.48.715 14.983-2.192 32.187.72 44.4 2.32 9.73 10.594 17.76 22.8 17.76 5.602 0 11.897-2.42 15.6-5.04 1.231-.872 1.935-2.779 3.601-2.641.196 2.782-2.409 3.756-4.08 4.801-1.722 1.075-3.768 2.401-5.521 3.12-10.306 4.225-23.037 1.625-29.04-4.08-4.512-4.289-7.892-10.444-8.88-18-1.618-12.372.709-26.698-.24-40.081-4.241-.719-10.16.239-14.4-.48v-1.92c3.766-1.114 9.596-.164 14.16-.48.72-6.56-.24-14.8.48-21.36l4.56.001zM235.68 105.12c-1.661 6.365-14.488 4.219-11.76-3.36 1.923-5.343 13.281-5.166 11.76 3.36zm-7.92-4.8c-1.288 1.56-2.499 2.039-2.4 3.84.186 3.369 6.229 3.995 8.16 1.44.798-1.055.389-2.025.24-3.84-1.286-1.447-3.394-1.903-6-1.44zM45.12 108.96c.089-3.222 2.368-1.81 2.88-3.84 1.408-5.585-9.181-6.317-8.64-.96.245 2.427 3.296 1.401 2.4 4.56-3.145-.85-5.532-4.146-3.36-7.68 1.899-3.089 8.024-3.188 10.08-.72 2.141 2.569 1.148 9.277-3.36 8.64zM0 104.88v-2.64c1.357-1.844 6.419-1.259 9.12-.96v.72c-1.774 1.426-7.035-.635-8.16 1.44.742 2.618 5.835.885 8.16 1.92-.811 2.64-5.204.226-7.92.96-.429-.452-.649-1.111-1.2-1.44zM9.36 109.92v1.92c-2.1.78-3.883 1.877-6 2.64 1.62.417 4.251-.227 6.24-.24v.96c-2.063 1.217-6.021.539-8.88.96v-1.2c1.622-1.658 4.314-2.245 6.48-3.36-1.802-.439-4.489.309-6.72.24v-.96c2.101-1.179 6.071-.489 8.88-.96zM224.88 115.68c1.506 1.534 2.919 3.16 4.08 5.04 2.572-1.108 4.661-2.699 7.199-3.84.08.96-.428 1.333-.239 2.4-1.968.913-3.656 2.104-5.521 3.121.699 1.7 2.757 2.043 5.04 2.159.17.891-.41 1.03-.24 1.921-3.775-.385-7.515-.805-11.279-1.2v-1.92c1.809.111 3.509.331 5.279.479-1.319-2.12-3.072-3.807-4.56-5.76-.079-.96.429-1.332.241-2.4zM48.48 116.4c1.064 2.136.831 5.569 1.2 8.4h-1.92c-.114-2.126-.334-4.146-.48-6.24-1.136-.097-1.651.428-2.88.24.167 1.914.382 3.778.48 5.76-.563.077-.901.38-1.68.24-.098-1.982-.313-3.847-.48-5.76-1.309-.108-1.972.428-3.36.24.137 2.184.407 4.234.48 6.48h-1.68c-.229-2.731-.395-5.525-.72-8.16 3.687-.392 7.506-.654 11.04-1.2zM10.32 120.48c-2.913.447-5.854.865-8.88 1.2.173-.733-.245-.875-.24-1.439 3.025-.335 5.967-.753 8.88-1.2-.005.564.413.706.24 1.439z"/><path d="M56.64 123.12h.72c2.3 18.499 10.288 31.938 20.16 43.439 4.548 5.299 10.75 10.516 17.28 14.4 11.186 6.654 24.997 12.044 42.24 12 22.872-.058 40.805-9.229 54-20.88 13.103-11.568 22.347-27.951 25.921-48.96.299 5.601-.689 11.218-2.16 16.08-7.345 24.272-23.355 41.598-45.601 51.6-9.109 4.096-20.373 6.679-32.16 6.72-23.577.084-43.191-9.439-55.2-21.84-12.843-13.262-23.163-28.48-25.2-51.84v-.719zM11.04 124.32c-1.614 1.426-4.024 2.056-6.24 2.88 1.839 1.121 6.846-.927 6.96 1.92-3.059-.141-6.038-.361-9.12-.48.077-.557-.039-.921-.24-1.199 2.09-1.911 5.503-2.497 7.92-4.08.632-.073.787.331.72.959zM48.24 134.16c-2.624.816-5.368 1.512-8.16 2.16-.093-.627-.124-1.317-.48-1.681 3.292-1.347 7.44-1.839 10.8-3.12 2.366 3.276-4.813 6.818-6 9.36 2.838-.456 5.959-1.861 8.4-1.92-.174.734.414.706.24 1.44-3.564 1.155-7.3 2.14-11.04 3.119-.094-.865-.311-1.609-.48-2.399 2.46-2.099 4.455-4.664 6.72-6.959zM12 131.76c.643.979 2.092 4.374.72 5.04-.967-.394-.775-1.945-.96-3.12-.702-.467-1.56.569-2.64.48.009.988 1.5 3.105 0 3.359-.908-.371-.832-1.729-.96-2.88-.757-.394-1.98.491-3.12.48.09 1.016 1.792 3.211.24 3.6-1.246-.834-.826-3.333-1.68-4.56 2.481-1.118 5.84-1.359 8.4-2.399zM222.48 132.48c3.67.81 7.354 1.605 11.04 2.399.17.89-.41 1.03-.24 1.92-3.742-.817-7.537-1.582-11.28-2.399.127-.672.352-1.248.48-1.92zM14.4 139.92c1.688 1.955.38 7.745-3.12 4.8-.53.03-.102 1.019-.24 1.44-.862.818-2.768.592-3.36 1.68-.562-.078-.233-1.047-.72-1.2.892-.787 2.153-1.207 3.36-1.68.074-.874-.038-1.562-.24-2.16-1.603-.003-2.333.867-3.84.96-.133-.427-.124-.996-.48-1.2 2.804-.956 5.482-2.039 8.64-2.64zm-3.6 2.4c.667.853.699 2.341 2.64 1.92.577-.349.689-2.017.24-2.641-1.115.086-2.092.309-2.88.721zM220.32 140.64c3.202.898 4.555 6.895 6.72 9.601 1.013-1.868 1.519-4.242 2.4-6.24.478.322 1.143.457 1.68.72-1.159 2.841-2.306 5.694-3.359 8.641-2.067-.435-2.947-2.686-3.84-4.32-.943-1.727-1.763-3.629-2.641-5.28-1.152 1.568-1.539 3.901-2.399 5.76-.538-.262-1.203-.397-1.681-.72 1.02-2.741 2.099-5.422 3.12-8.162zM55.2 146.4c1.372 2.788 2.831 5.488 3.84 8.64-.703-.063-.737.543-1.44.479-.202-1.318-1.239-1.801-1.44-3.119-2.989 1.33-5.763 2.877-8.88 4.08-.033-.848-.687-1.073-.72-1.921 2.905-1.255 5.597-2.723 8.64-3.84-.103-1.497-1.068-2.132-1.2-3.6.359-.28.981-.298 1.2-.719zM17.04 148.56c1.369 1.201 2.211 4.692-.48 5.04-.133-.427-.124-.996-.48-1.199.967-.024 1.297-1.589.72-2.4-3.64-.76-1.563 4.197-3.36 5.28H10.8c-1.702-1.259-2.376-4.57.24-5.28 1.401.894.138 1.834-.48 2.64.012.948.492 1.429 1.44 1.44 2.23-1.291.195-6.846 5.04-5.521zM214.08 155.28c3.293 1.827 6.546 3.694 9.841 5.52-.316.645-.645 1.275-.96 1.92-3.296-1.904-6.545-3.855-9.841-5.76.223-.656.737-1.023.96-1.68zM20.16 155.76c.304.416.811.629.72 1.44-2.912.928-5.283 2.396-8.16 3.359-.772-1.597 1.62-2.064 2.88-2.64 1.615-.736 3.395-1.36 4.56-2.159zM22.08 159.6c.908 1.732 2.132 3.148 2.64 5.28-.341-.021-.68-.039-.72.24-.836-.204-.897-1.183-1.2-1.92-2.377 1.143-4.441 2.599-6.96 3.6.179-.738-.659-.461-.48-1.2 2.211-1.068 4.15-2.409 6.48-3.359.091-1.051-.686-1.234-.72-2.16.147-.334.924-.037.96-.481zM64.8 170.4c-.984.023-1.967.047-2.64-.24.573 2.055-2.229 3.073-3.12 5.04-.734-.306-.706-1.374-1.44-1.681 2.432-1.896 4.112-4.443.72-7.199-1.666.573-2.467 2.013-4.08 2.64-.348-.452-.353-1.247-.96-1.44 2.983-2.217 6.037-4.363 8.88-6.72 2.223 1.958 6.77 6.741 2.64 9.6zm-2.88-6.96c-.553 1.047-1.869 1.33-2.64 2.159 1.583.978 1.465 3.655 4.56 3.12.258-.621.868-.892.96-1.68-.816-1.344-1.582-2.736-2.88-3.599zM25.44 166.32c.531.189.601.839.96 1.199-.686 1.396-1.777 2.383-2.64 3.601 1.873.153 4.573-1.775 5.04.479-3.372.469-6.648 1.032-8.88 2.641.011-.411-.178-.622-.48-.721 2.348-2.05 4.319-4.48 6-7.199zM213.84 168.72c.258 1.944-.98 2.826-2.641 2.16-1.529-1.934 1.19-3.858 2.641-2.16zM72.48 173.28c2.041 1.799 3.911 3.769 5.76 5.76-2.354 4.807-4.684-7.615-7.44-.96 1.14 1.581 2.912 2.528 3.84 4.32-1.872 2.744-3.444-3.052-5.04-3.12-1.053-.045-1.381 1.803-2.4 2.399.851 1.981 5.492 3.54 3.36 5.521-2.379-1.461-3.82-3.859-6-5.521 2.26-3.179 5.46-5.419 7.92-8.399zM192.72 185.28c.832 1.889 3.309 4.21 4.8 6.239-.185.776-.664 1.256-1.44 1.44a83.437 83.437 0 0 0-6.96-8.4c.495-.864 1.425-1.295 1.92-2.159 2.732 1.668 5.429 3.371 8.16 5.04-.326-3.778-5.09-8.136-1.439-10.801 2.731 2.629 4.903 5.817 7.439 8.641-.184.775-.664 1.256-1.439 1.439-1.648-2.352-3.531-4.469-5.521-6.479.783 3.352 4.189 6.707 2.16 9.6-2.701-1.379-5.322-2.838-7.68-4.56zM33.36 177.84c.224.176.364.437.48.72-2.061 2.259-4.812 3.828-7.44 5.521-.88-1.375 1.397-2.269 2.64-3.12 1.547-1.062 3.147-2.005 4.32-3.121zM40.32 190.56c-1.341-.666.445-1.914-.72-2.88-4.258.502 1.258 7.12-3.84 6.96-2.318-.072-4.326-5.209-.96-4.8.626.696-.443 1.153-.72 1.68.262 1.739 2.457 2.481 2.88.48.216-1.022-.872-2.291-.72-3.36.389-2.738 3.478-3.158 5.28-.479.134 1.333-.111 2.288-1.2 2.399zM182.64 188.4c1.175 3.194 6.105 7.706 3.12 11.52-1.017 1.298-3.583 2.223-5.521 1.68-2.932-.821-4.282-6.981-5.76-8.64.525-.354 1.292-.468 1.68-.96 1.754 1.217 2.756 7.41 5.28 7.92 1.632.33 3.182-1.1 3.36-2.4.425-3.096-3.512-5.795-3.84-8.159.526-.356 1.292-.469 1.681-.961zM87.6 191.76c.103 1.144-.286 1.795-.72 2.4-4.217.441-1.621-5.023.72-2.4zM44.16 191.52c1.22 1.441 3.805 2.727 3.84 4.561-.854.618-1.428-.701-1.92-1.2-2.141 1.472-3.859 4.604-6 5.28-.106-.214-.211-.43-.48-.48 1.421-2.178 3.458-3.741 5.28-5.52-.256-1.257-2.215-1.584-.72-2.641zM104.64 198.96c-2.314-.759-2.878-6.169-5.76-2.64 1.352 2.891 6.859 4.677 3.36 8.88-4.272.909-8.604-1.24-7.44-5.76.558.322 1.363.396 1.92.72-.977 2.645 2.656 4.803 4.56 3.12.215-4.084-4.183-3.219-4.56-6.24-.725-5.807 10.728-3.713 7.92 1.92zM167.76 202.08c2.796.004 2.564 3.035 3.84 4.56-.764.037-1.056.545-1.92.48-.604-1.235-1.366-2.313-1.92-3.601-1.94-.626-3.02.523-4.8.721.621 1.548 1.416 3.343 1.439 4.8-.89-.17-1.03.41-1.92.24-1.065-3.302-2.677-7.579-3.6-10.561 2.589-1.234 10.446-3.976 10.08 1.2-.07.998-.626 1.251-1.199 2.161zm-6.48-2.4c.816.979.634 1.713 1.2 3.12 1.789-.21 3.249-.75 4.32-1.68.721-4.227-3.867-2.142-5.52-1.44zM50.16 197.52c1.087 1.181 3.263 2.46 3.36 3.841-1.1.383-2.134-1.171-2.88-1.92a6.64 6.64 0 0 0-1.68 1.68c3.033 2.229 1.559 4.358-.72.96-.504.871-2.129 1.185-2.16 1.92-.053 1.246 2.868 1.651 2.4 3.12-.51.637-4.29-2.407-4.32-3.12-.068-1.6 5.786-4.936 6-6.481zM112.8 198c2.714.646 5.446 1.273 8.16 1.92-.04.68-.44 1-.48 1.68-1.849-.551-3.988-.812-5.76-1.439-.706.494-.485 1.915-.96 2.64 1.453 1.027 4.068.893 5.52 1.92.099.578-.438.521-.24 1.2-1.773-.467-3.815-.665-5.52-1.2-.775.585-.443 2.277-.96 3.12 1.677.963 4.211 1.069 6.24 1.68-.04.681-.439 1.001-.48 1.681-2.59-.689-5.33-1.23-7.92-1.92.77-3.792 1.641-7.481 2.4-11.282zM152.88 201.6c-1.213.147-2.278.442-3.601.48.493 3.188 1.084 6.276 1.44 9.6-.79.011-1.195.405-2.16.24-.395-3.205-.737-6.463-1.2-9.6-1.213.146-2.277.442-3.6.479.192-.832-.357-.922-.24-1.68 3.073-.366 6.141-.739 9.12-1.2-.116.759.434.849.241 1.681zM127.68 200.88c1.048-.168 1.352.408 2.399.24 1.268 2.893 3.023 5.297 4.32 8.16.701-2.18.444-5.316.72-7.92h1.92c-.195 3.884-.404 7.755-.72 11.52-.928.129-1.172-.429-2.16-.24-1.451-2.948-2.846-5.954-4.56-8.64-.572 2.903-.283 5.183-.48 8.4h-1.92c.122-4.034.263-7.247.481-11.52zM220.32 201.84c.315.085.378.423.72.48.129 1.168-.956 1.123-1.199 1.92 1.469 1.971 3.047 3.832 4.56 5.76.113.754-.646.634-.72 1.2-1.417-.503-1.902-1.938-3.12-2.641.949-1.058-1.52-2.344-1.92-3.6-.815.305-.909 1.331-1.92 1.44-.999-2.084 2.779-2.775 3.599-4.559zM56.16 202.8c.558.163.642.798 1.2.96-1.637 1.884-2.984 4.056-4.8 5.76.421 1.227 2.761 1.654 2.4 2.881-.061.91-4.233-1.865-4.32-2.641-.084-.748 2.235-2.552 2.88-3.359 1.212-1.52 1.773-2.849 2.64-3.601zM213.84 207.12c.314.085.377.423.72.479.767 2.743 4.617 4.729 3.84 7.44-2.222-1.938-3.501-4.819-5.52-6.96.023-.616.937-.343.96-.959zM62.16 207.36c.424.215.701.579 1.2.72-1.538 2.062-2.842 4.357-4.56 6.24.685.995 1.958 1.401 2.88 2.16.157 2.102-4.461-1.273-4.56-1.921-.11-.716 2.035-2.722 2.64-3.6 1.045-1.515 1.632-2.791 2.4-3.599zM210 209.76c.346.135.586.375.721.721-.407 1.192-1.834 1.365-2.641 2.159.291.75 1.037 1.044 1.2 1.92 1.348-.133 2.344-2.217 3.36-1.199-.166 1.514-1.849 1.512-2.641 2.399.326.875 1.215 1.187 1.44 2.16 1.122-.478 2.081-1.118 2.88-1.92.324.235.479.641.72.96-.861 1.458-2.641 1.999-4.079 2.88-.795-1.525-2.055-2.586-3.12-3.84.899-.876-1.22-2.305-1.681-3.36.922-1.319 2.855-1.625 3.841-2.88zM68.64 211.68c1.306.935 2.752 1.728 4.08 2.641-.701 1.828-2.342-.115-3.36-.721-2.316 1.442-.656 2.813 1.2 3.601-.245.315-.235.885-.48 1.2-.899-.541-1.893-.987-2.64-1.681-.858.422-.859 1.701-1.68 2.16.799.882 2.038 1.323 3.12 1.92-.141.5-.504.775-.72 1.2-1.4-.92-2.92-1.72-4.32-2.64 1.73-2.429 3.145-5.175 4.8-7.68zM203.52 213.84c.346.135.586.374.72.72-.039 1.001-1.242.838-1.68 1.44 1.012 2.509 2.771 4.269 3.6 6.96-.678-.198-.621.338-1.199.24-1.002-2.438-2.562-4.319-3.601-6.72-.716.403-1.289.95-2.16 1.199-.58-2.42 3.193-2.348 4.32-3.839zM75.6 216c.49.229.95.49 1.44.72-.244 2.316-.438 4.683-.72 6.96 1.134-1.826 2.142-3.778 3.12-5.76.477.003.305.655.96.48-.4 2.654-2.756 5.393-3.84 8.159-.657-.223-1.023-.736-1.68-.96.456-2.344.469-4.317.96-6.96-1.114 1.846-2.128 3.792-3.12 5.761-.214-.187-.542-.259-.96-.24.408-2.646 2.771-5.378 3.84-8.16zM196.08 217.92c.204-.044.227.094.24.24.662 1.248 1.343 2.784 2.16 4.32.644 1.209 2.43 2.928.96 4.079-1.807-2.272-3.039-5.121-4.32-7.92.319-.24.893-.226.96-.719zM83.76 220.32c1.737.343 2.941 1.219 4.08 2.16v2.159c-.702.338-.829 1.252-2.16.96 1.697.623.86 3.488-.24 4.08-2.595.435-3.461-.859-5.28-1.199 1.419-2.501 2.481-5.359 3.6-8.16zm-.24 4.08c.789.074 1.965.555 2.64 0 .371-.35.211-1.229.24-1.92-.502-.139-.685-.596-1.44-.48-.787.493-.917 1.644-1.44 2.4zm-1.44 3.6c2.654 2.218 4.647-2.639 1.2-2.64-.234 1.046-.832 1.728-1.2 2.64zM192.72 222.48c-1.314.598-1.17-.444-2.4-.48-.613.026-.84.44-1.2.72-.307 3.027 4.71.73 5.521 2.641.068 1.508.031 2.911-.48 3.84-1.925 1.123-4.61-.079-4.56-1.44 1.571-1.304.993 1.3 3.12.721 1.008-.125.907-2.207.24-2.641-3.258.297-5.625-.295-5.04-3.84.978-1.257 4.752-2.48 4.799.479zM96 225.12c1.722 4.854-3.341 11.083-6.24 6.24-.246-4.192 2.47-9.086 6.24-6.24zm-4.56 6.96c3.082-.119 3.024-3.376 3.6-6-.553-.247-.774-.826-1.68-.72-1.386 1.387-2.857 4.522-1.92 6.72zM184.32 228c2.11.13 1.752 2.729 3.12 3.6-.349.372-.937.504-1.68.48-.517-1.163-.821-2.539-1.92-3.12-.955-.155-.965.635-1.92.48.822 1.368 1.095 2.423 1.439 3.84-.734-.175-.706.414-1.439.239-.976-2.249-1.507-5.671-2.881-8.159 2.184-2.279 7.991-.81 5.281 2.64zm-3.6-2.16c.495.705.669 1.73.96 2.641.848-.112 1.313-.606 1.92-.961.498-2.239-1.6-2.508-2.88-1.68zM175.68 226.32c.214.106.429.21.479.479-.363 1.236-2.21.99-3.359 1.44.269.771.656 1.423.72 2.399 1.183.116 2.896-1.158 3.36-.239-.161 1.279-1.836 1.044-2.881 1.439.26.861.604 1.637.721 2.641 1.221-.052 2.765-.815 3.6-.48-.506 1.813-3.21 1.43-4.8 2.16-.804-2.797-1.268-5.933-2.4-8.4 1.202-.797 3.281-.718 4.56-1.439zM104.88 228v2.16c-1.812.292-1.023-2.017-2.4-2.16-.948.012-1.428.492-1.44 1.44.661 1.259 2.005 1.834 2.88 2.88.151 1.671-.275 2.764-.96 3.6-2.983.479-5.341-.867-4.32-3.6 2.044.243.58 2.531 2.4 2.64 1.095.065 1.554-1.029 1.44-1.92-.131-1.026-2.619-1.541-2.88-3.12-.46-2.783 2.221-3.983 5.28-1.92zM168.24 237.36a6.075 6.075 0 0 1-1.92.479c-1.066-2.934-2.545-5.454-3.6-8.399.557.076.921-.039 1.2-.24 2.094 1.45 1.71 3.896 2.88 6.24.558-1.842.081-4.719.239-6.96.381-.021.916.115.96-.24 1.13 2.61-.168 5.526.241 9.12zM113.52 230.16v2.16c-.501.102-.636-.165-.96-.24-1.048-.072.012-2.252-1.2-2.16-2.656.215-3.639 6.184-1.2 7.2 1.271-.009.934-1.626 1.68-2.16.579-.099.522.438 1.2.24-.188 1.332-.927 2.113-1.68 2.88-7.554.958-2.664-13.516 2.16-7.92zM161.52 238.8c-.431-.03-.506.294-.96.24-1.461-2.139-1.017-6.183-1.92-8.88.689.335 1.219-.654 1.439 0 .641 2.72.968 5.753 1.441 8.64zM117.12 230.4h1.44c-.103 1.177-.321 2.238-.48 3.359.588.372 1.562.358 2.4.48.637-.723.481-2.239.72-3.36.734-.174.706.414 1.44.24-.395 2.886-.816 5.744-1.2 8.64H120c.171-1.349.309-2.73.48-4.08-.596-.363-1.457-.463-2.4-.479-.664.936-.41 2.79-.72 4.08-.734.174-.706-.414-1.44-.24.36-2.92.84-5.72 1.2-8.64zM156.24 239.52c-.578-.098-.521.438-1.2.24-1.563-1.797-2.547-4.173-3.6-6.479-.799 1.732 1.531 5.805-.24 6.96-1.353-2.168-.937-6.104-1.68-8.88.988.188 1.231-.369 2.16-.24.771 2.269 2.108 3.972 2.88 6.24.317-1.761-.483-4.475-.72-6.48.689.335 1.219-.654 1.439 0 .409 2.791.684 5.716.961 8.639zM131.76 240.96h-.48c-.04-.279-.379-.261-.72-.24.439-2.92-.211-6.93.96-9.12 1.508.155.495 1.826.479 2.881-.031 2.12-.135 4.795-.239 6.479zM146.16 231.6c-.056 3.196 1.018 7.359-.96 9.12-1.172-.027-2.529.13-3.359-.239-.963-.81-.846-2.662-.96-5.04-.063-1.283-.966-3.579.479-3.601 1.982.538-.364 8.082 2.4 7.92 2.602-.152.463-5.617.96-8.16h1.44z"/></g></svg>