<svg version="1.1" xmlns="http://www.w3.org/2000/svg" x="0" y="0" width="325.984" height="418" viewBox="0 0 325.984 418" xml:space="preserve"><path d="M35.285 174.149h1.192v8.878h4.128v1.077h-5.32v-9.955zM44.603 176.546c1.784 0 2.791 1.351 2.791 3.461 0 .257-.017.5-.042.683h-4.72c.088 1.593.992 2.595 2.33 2.595.662 0 1.224-.228 1.741-.577l.417.819c-.604.409-1.354.759-2.302.759-1.869 0-3.354-1.441-3.354-3.854.005-2.414 1.544-3.886 3.139-3.886zm1.756 3.325c0-1.502-.634-2.337-1.729-2.337-.979 0-1.868.85-2.013 2.337h3.742zM52.875 179.43c0-.94-.303-1.852-1.438-1.852-.82 0-1.539.396-2.085.789l-.476-.865c.646-.44 1.625-.957 2.748-.957 1.711 0 2.433 1.2 2.433 3.034v4.522h-.979l-.103-.879h-.027c-.677.576-1.453 1.062-2.316 1.062-1.179 0-2.056-.774-2.056-2.094-.003-1.606 1.32-2.411 4.299-2.76zm-1.913 3.855c.678 0 1.236-.349 1.914-.986v-2.048c-2.346.303-3.137.911-3.137 1.852 0 .833.531 1.182 1.223 1.182zM56.284 173.299h1.163v7.314h.042l2.979-3.885h1.31l-2.344 2.958 2.658 4.416h-1.293l-2.043-3.551-1.31 1.608v1.942h-1.165v-10.804h.003v.002zM64.581 184.725v2.489h-1.18v-10.485h.979l.103.85h.043c.633-.562 1.409-1.032 2.229-1.032 1.799 0 2.764 1.473 2.764 3.764 0 2.504-1.426 3.977-3.021 3.977-.646 0-1.294-.319-1.939-.85l.022 1.287zm1.713-1.486c1.149 0 1.998-1.107 1.998-2.929 0-1.624-.518-2.716-1.84-2.716-.591 0-1.18.349-1.871 1.002v3.87c.634.561 1.252.773 1.713.773zM71.385 176.729h.979l.101 1.336h.042c.477-.926 1.193-1.519 1.985-1.519.303 0 .52.046.748.152l-.229 1.093a1.893 1.893 0 0 0-.678-.121c-.59 0-1.295.455-1.771 1.7v4.735h-1.18v-7.376h.003zM78.948 176.546c1.713 0 3.237 1.412 3.237 3.887 0 2.443-1.524 3.854-3.237 3.854-1.712 0-3.236-1.412-3.236-3.854 0-2.475 1.524-3.887 3.236-3.887zm0 6.708c1.208 0 2.014-1.137 2.014-2.822 0-1.7-.806-2.853-2.014-2.853-1.193 0-2.014 1.154-2.014 2.853 0 1.684.821 2.822 2.014 2.822zM86.745 176.546c1.712 0 3.235 1.412 3.235 3.887 0 2.443-1.523 3.854-3.235 3.854-1.711 0-3.236-1.412-3.236-3.854 0-2.475 1.523-3.887 3.236-3.887zm0 6.708c1.208 0 2.014-1.137 2.014-2.822 0-1.7-.805-2.853-2.014-2.853-1.195 0-2.015 1.154-2.015 2.853-.001 1.684.82 2.822 2.015 2.822zM94.971 174.316a1.894 1.894 0 0 0-.792-.182c-.661 0-.979.486-.979 1.427v1.168h1.48v1.017H93.2v6.358h-1.18v-6.358h-.949v-.941l.949-.075v-1.168c0-1.503.646-2.443 2.042-2.443.432 0 .85.106 1.166.242l-.257.955zM34.982 197.91c.604.515 1.224.879 2.058.879.92 0 1.381-.515 1.381-1.153 0-.759-.834-1.093-1.598-1.396-.991-.378-2.085-.879-2.085-2.124 0-1.184.893-2.095 2.402-2.095.877 0 1.64.38 2.172.835l-.562.788c-.475-.379-.979-.652-1.598-.652-.877 0-1.28.5-1.28 1.062 0 .698.765.956 1.557 1.274 1.006.396 2.127.835 2.127 2.232 0 1.198-.906 2.2-2.562 2.2-.992 0-1.939-.441-2.604-1.017l.592-.833zM43.813 192.022c1.783 0 2.79 1.35 2.79 3.46 0 .257-.016.5-.042.683h-4.717c.086 1.593.99 2.594 2.328 2.594.663 0 1.225-.228 1.741-.576l.417.818c-.604.41-1.354.758-2.302.758-1.869 0-3.352-1.441-3.352-3.854.002-2.412 1.541-3.883 3.137-3.883zm1.754 3.323c0-1.502-.634-2.336-1.729-2.336-.979 0-1.867.85-2.013 2.336h3.742zM51.177 192.022c.921 0 1.565.409 2.043.88l-.592.805c-.417-.38-.85-.654-1.408-.654-1.267 0-2.188 1.155-2.188 2.854 0 1.686.878 2.823 2.158 2.823.663 0 1.224-.349 1.64-.743l.531.818c-.631.591-1.438.956-2.271.956-1.854 0-3.278-1.411-3.278-3.854-.002-2.473 1.567-3.885 3.365-3.885zM57.303 192.022c1.712 0 3.235 1.412 3.235 3.885 0 2.444-1.522 3.854-3.235 3.854-1.714 0-3.236-1.411-3.236-3.854 0-2.473 1.525-3.885 3.236-3.885zm0 6.707c1.208 0 2.015-1.137 2.015-2.822 0-1.7-.806-2.853-2.015-2.853-1.194 0-2.016 1.153-2.016 2.853.003 1.685.822 2.822 2.016 2.822zM62.381 192.204h.979l.103 1.062h.042c.662-.697 1.383-1.245 2.347-1.245 1.466 0 2.129 1.002 2.129 2.884v4.674H66.8v-4.507c0-1.381-.401-1.973-1.322-1.973-.721 0-1.208.395-1.913 1.138v5.342h-1.181l-.003-7.375zM72.78 192.022c.806 0 1.338.318 1.956.85l-.057-1.26v-2.837h1.192v10.805h-.979l-.102-.866h-.043c-.547.562-1.295 1.048-2.113 1.048-1.756 0-2.892-1.397-2.892-3.854.003-2.4 1.441-3.886 3.038-3.886zm.114 6.692c.646 0 1.208-.334 1.783-1.017v-3.854c-.592-.562-1.122-.775-1.697-.775-1.122 0-2.015 1.139-2.015 2.822.004 1.762.707 2.824 1.929 2.824zM82.185 194.905c0-.94-.304-1.854-1.438-1.854-.818 0-1.539.396-2.085.79l-.475-.866c.646-.44 1.625-.956 2.748-.956 1.711 0 2.432 1.2 2.432 3.035v4.522h-.979l-.103-.88h-.028c-.676.577-1.452 1.062-2.313 1.062-1.18 0-2.057-.774-2.057-2.095-.003-1.604 1.321-2.41 4.298-2.758zm-1.914 3.854c.676 0 1.235-.349 1.914-.986v-2.048c-2.347.303-3.138.911-3.138 1.852.003.834.535 1.182 1.224 1.182zM85.594 192.204h.977l.103 1.336h.043c.476-.927 1.194-1.518 1.985-1.518.302 0 .52.045.747.151l-.229 1.093a1.92 1.92 0 0 0-.678-.121c-.589 0-1.295.455-1.77 1.7v4.735h-1.179v-7.376h.001zM90.915 201.718c.792 0 1.294-.668 1.582-1.578l.158-.547-2.806-7.39h1.223l1.425 4.082c.215.638.46 1.396.677 2.079h.058c.201-.667.401-1.426.59-2.079l1.251-4.082h1.151l-2.634 7.982c-.488 1.456-1.208 2.565-2.616 2.565-.317 0-.592-.062-.82-.153l.229-.986c.143.047.359.107.532.107zM38.017 207.497c.92 0 1.565.41 2.042.88l-.59.805c-.417-.38-.85-.653-1.409-.653-1.268 0-2.188 1.153-2.188 2.853 0 1.687.877 2.824 2.157 2.824.663 0 1.223-.349 1.64-.743l.532.817c-.633.591-1.438.958-2.271.958-1.856 0-3.278-1.413-3.278-3.855-.002-2.474 1.567-3.886 3.365-3.886zM44.143 207.497c1.711 0 3.235 1.412 3.235 3.885 0 2.445-1.523 3.854-3.235 3.854s-3.236-1.411-3.236-3.854c0-2.473 1.524-3.885 3.236-3.885zm0 6.707c1.208 0 2.013-1.138 2.013-2.824 0-1.7-.805-2.853-2.013-2.853-1.194 0-2.016 1.155-2.016 2.853.003 1.686.824 2.824 2.016 2.824zM49.221 207.68h.978l.104 1.061h.042c.659-.698 1.381-1.244 2.345-1.244 1.466 0 2.129 1.001 2.129 2.883v4.675H53.64v-4.507c0-1.382-.404-1.973-1.324-1.973-.719 0-1.208.395-1.913 1.138v5.342h-1.18l-.002-7.375zM57.29 208.696h-1.036v-.94l1.096-.077.143-2.063h.993v2.063h1.885v1.018h-1.885v4.096c0 .91.271 1.425 1.079 1.425.245 0 .562-.106.792-.196l.229.938c-.389.138-.862.274-1.295.274-1.496 0-1.999-1.004-1.999-2.459l-.002-4.079zM65.645 210.38c0-.94-.301-1.852-1.438-1.852-.818 0-1.539.395-2.085.79l-.475-.866c.646-.441 1.625-.956 2.747-.956 1.712 0 2.433 1.199 2.433 3.034v4.521h-.979l-.104-.879h-.026c-.677.576-1.453 1.062-2.316 1.062-1.179 0-2.056-.774-2.056-2.094 0-1.606 1.323-2.411 4.299-2.76zm-1.912 3.856c.677 0 1.236-.354 1.914-.986v-2.047c-2.345.302-3.136.91-3.136 1.852 0 .83.533 1.181 1.222 1.181zM68.84 205.357c0-.485.358-.804.819-.804.46 0 .819.318.819.804 0 .471-.36.805-.819.805-.46 0-.819-.334-.819-.805zm.214 2.323h1.179v7.375h-1.179v-7.375zM72.594 207.68h.978l.102 1.061h.043c.662-.698 1.383-1.244 2.347-1.244 1.467 0 2.128 1.001 2.128 2.883v4.675H77.01v-4.507c0-1.382-.403-1.973-1.324-1.973-.721 0-1.208.395-1.914 1.138v5.342h-1.181l.003-7.375zM83.077 207.497c1.782 0 2.791 1.35 2.791 3.46 0 .257-.017.5-.042.684h-4.719c.087 1.594.991 2.596 2.331 2.596.662 0 1.224-.229 1.741-.576l.417.816c-.604.409-1.354.758-2.304.758-1.869 0-3.353-1.438-3.353-3.854.002-2.413 1.541-3.884 3.138-3.884zm1.756 3.323c0-1.502-.634-2.337-1.728-2.337-.979 0-1.87.851-2.016 2.337h3.744zM87.594 207.68h.979l.103 1.335h.042c.476-.926 1.194-1.518 1.985-1.518.302 0 .52.046.747.153l-.229 1.093a1.85 1.85 0 0 0-.678-.121c-.589 0-1.295.455-1.771 1.698v4.736h-1.179v-7.376h.001z"/><g><path d="M50.375 110.19h1.193v8.877h4.128v1.077h-5.321v-9.954zM57.034 110.447c0-.485.358-.804.819-.804.46 0 .817.318.817.804 0 .471-.358.805-.817.805s-.819-.334-.819-.805zm.217 2.323h1.181v7.375h-1.181v-7.375zM63.319 112.587c.806 0 1.337.318 1.955.85l-.056-1.259v-2.838h1.191v10.805h-.978l-.104-.866h-.042c-.547.562-1.295 1.048-2.115 1.048-1.755 0-2.891-1.396-2.891-3.854.006-2.398 1.443-3.886 3.04-3.886zm.114 6.692c.646 0 1.208-.333 1.782-1.016v-3.854c-.59-.561-1.12-.774-1.695-.774-1.122 0-2.016 1.139-2.016 2.825.003 1.757.709 2.819 1.929 2.819z"/></g><path fill="none" stroke="#000" stroke-miterlimit="10" d="M128.973 199.559l-29.322-1.992M104.774 121.4l-35.955-4.579"/><g><path d="M252.854 176.988c.677.743 1.624 1.244 2.603 1.244 1.236 0 1.975-.653 1.975-1.624 0-1.017-.678-1.336-1.571-1.761l-1.349-.622c-.895-.396-1.918-1.107-1.918-2.564 0-1.518 1.252-2.64 2.965-2.64 1.121 0 2.112.5 2.79 1.229l-.647.82c-.574-.578-1.265-.941-2.143-.941-1.049 0-1.754.562-1.754 1.457 0 .956.817 1.32 1.566 1.654l1.337.606c1.093.5 1.941 1.184 1.941 2.656 0 1.579-1.221 2.838-3.207 2.838-1.322 0-2.485-.577-3.31-1.472l.722-.88zM261.569 179.779v2.488h-1.179v-10.485h.979l.101.85h.046c.629-.562 1.406-1.032 2.226-1.032 1.802 0 2.764 1.472 2.764 3.763 0 2.504-1.421 3.977-3.021 3.977-.646 0-1.293-.319-1.939-.85l.023 1.289zm1.713-1.487c1.15 0 1.998-1.107 1.998-2.929 0-1.624-.518-2.716-1.841-2.716-.589 0-1.179.349-1.87 1.002v3.87c.635.562 1.251.773 1.713.773zM270.993 171.601c1.781 0 2.787 1.35 2.787 3.46 0 .258-.015.501-.042.683h-4.719c.088 1.593.993 2.595 2.33 2.595.664 0 1.224-.228 1.739-.577l.417.819c-.604.41-1.354.759-2.302.759-1.871 0-3.353-1.441-3.353-3.854.004-2.414 1.543-3.885 3.143-3.885zm1.753 3.323c0-1.502-.635-2.337-1.728-2.337-.979 0-1.871.85-2.015 2.337h3.743zM278.354 171.601c.921 0 1.566.409 2.044.879l-.589.805c-.418-.38-.854-.652-1.411-.652-1.267 0-2.188 1.153-2.188 2.852 0 1.687.878 2.825 2.158 2.825.663 0 1.224-.349 1.639-.744l.534.819c-.632.591-1.438.956-2.271.956-1.855 0-3.279-1.411-3.279-3.854-.004-2.475 1.564-3.886 3.363-3.886zM281.847 169.461c0-.486.357-.805.819-.805.46 0 .816.319.816.805 0 .47-.358.804-.816.804-.458.001-.819-.333-.819-.804zm.218 2.321h1.181v7.375h-1.181v-7.375zM285.602 171.782h.979l.102 1.062h.042c.604-.698 1.339-1.244 2.173-1.244 1.063 0 1.642.531 1.929 1.411.733-.834 1.452-1.411 2.301-1.411 1.438 0 2.126 1.001 2.126 2.883v4.674h-1.18v-4.507c0-1.381-.416-1.972-1.293-1.972-.55 0-1.108.379-1.757 1.138v5.342h-1.179v-4.506c0-1.381-.42-1.973-1.312-1.973-.517 0-1.104.379-1.757 1.139v5.341h-1.18v-7.376l.006-.001zM300.141 171.601c1.787 0 2.792 1.35 2.792 3.46 0 .258-.018.501-.044.683h-4.719c.086 1.593.991 2.595 2.33 2.595.662 0 1.226-.228 1.741-.577l.418.819c-.604.41-1.354.759-2.304.759-1.87 0-3.354-1.441-3.354-3.854.008-2.414 1.547-3.885 3.14-3.885zm1.757 3.323c0-1.502-.634-2.337-1.729-2.337-.979 0-1.871.85-2.013 2.337h3.742zM304.661 171.782h.979l.1 1.062h.045c.66-.698 1.381-1.244 2.345-1.244 1.469 0 2.128 1.001 2.128 2.883v4.674h-1.179v-4.507c0-1.381-.403-1.972-1.323-1.972-.72 0-1.209.396-1.911 1.138v5.342h-1.181l-.003-7.376zM252.522 192.964c.604.516 1.226.88 2.06.88.919 0 1.381-.516 1.381-1.154 0-.759-.834-1.093-1.598-1.396-.99-.379-2.085-.88-2.085-2.125 0-1.184.891-2.094 2.402-2.094.877 0 1.641.379 2.174.834l-.562.789c-.475-.379-.979-.652-1.595-.652-.88 0-1.28.5-1.28 1.062 0 .698.763.957 1.557 1.274 1.003.395 2.126.834 2.126 2.231 0 1.2-.905 2.2-2.56 2.2-.993 0-1.94-.44-2.604-1.018l.584-.831zM258.638 187.258h1.191v4.507c0 1.38.392 1.972 1.311 1.972.72 0 1.223-.379 1.883-1.245v-5.235h1.18v7.375h-.979l-.102-1.154h-.044c-.646.804-1.335 1.336-2.299 1.336-1.482 0-2.144-1.001-2.144-2.884v-4.672h.003zM266.561 183.829h1.177v2.943l-.024 1.335c.633-.591 1.408-1.032 2.188-1.032 1.812 0 2.775 1.472 2.775 3.749 0 2.52-1.425 3.99-3.021 3.99-.646 0-1.383-.333-1.999-.911h-.046l-.1.729h-.949l-.001-10.803zm2.888 9.938c1.153 0 2.002-1.107 2.002-2.929 0-1.624-.519-2.716-1.842-2.716-.588 0-1.209.35-1.871 1.002v3.87c.62.562 1.253.773 1.711.773zM274.542 187.258h.979l.103 1.062h.042c.604-.698 1.337-1.244 2.173-1.244 1.062 0 1.641.531 1.929 1.411.731-.834 1.45-1.411 2.3-1.411 1.439 0 2.131 1.001 2.131 2.883v4.674h-1.182v-4.507c0-1.382-.416-1.973-1.299-1.973-.548 0-1.105.379-1.755 1.138v5.341h-1.18v-4.507c0-1.381-.415-1.972-1.307-1.972-.52 0-1.109.379-1.757 1.138v5.342h-1.182l.005-7.375zM286.249 184.936c0-.485.359-.804.82-.804.46 0 .817.319.817.804 0 .471-.359.805-.817.805-.459-.001-.82-.334-.82-.805zm.218 2.322h1.182v7.375h-1.182v-7.375zM289.817 192.964c.604.516 1.223.88 2.058.88.921 0 1.381-.516 1.381-1.154 0-.759-.833-1.093-1.595-1.396-.995-.379-2.086-.88-2.086-2.125 0-1.184.891-2.094 2.4-2.094.878 0 1.642.379 2.173.834l-.562.789c-.475-.379-.979-.652-1.6-.652-.878 0-1.278.5-1.278 1.062 0 .698.766.957 1.557 1.274 1.005.395 2.129.834 2.129 2.231 0 1.2-.907 2.2-2.562 2.2-.993 0-1.94-.44-2.603-1.018l.588-.831zM295.844 192.964c.604.516 1.224.88 2.057.88.921 0 1.384-.516 1.384-1.154 0-.759-.833-1.093-1.598-1.396-.993-.379-2.086-.88-2.086-2.125 0-1.184.892-2.094 2.399-2.094.88 0 1.643.379 2.173.834l-.562.789c-.472-.379-.976-.652-1.595-.652-.878 0-1.279.5-1.279 1.062 0 .698.763.957 1.556 1.274 1.003.395 2.127.834 2.127 2.231 0 1.2-.903 2.2-2.562 2.2-.99 0-1.939-.44-2.604-1.018l.59-.831zM301.842 184.936c0-.485.359-.804.819-.804.457 0 .816.319.816.804 0 .471-.359.805-.816.805-.46-.001-.819-.334-.819-.805zm.212 2.322h1.182v7.375h-1.182v-7.375zM308.311 187.076c1.713 0 3.235 1.411 3.235 3.886 0 2.443-1.522 3.854-3.235 3.854-1.711 0-3.234-1.411-3.234-3.854 0-2.475 1.523-3.886 3.234-3.886zm0 6.707c1.209 0 2.016-1.137 2.016-2.822 0-1.7-.807-2.853-2.016-2.853-1.194 0-2.015 1.153-2.015 2.853.004 1.684.823 2.822 2.015 2.822zM313.389 187.258h.979l.102 1.062h.044c.659-.698 1.381-1.244 2.342-1.244 1.467 0 2.131 1.001 2.131 2.883v4.674h-1.18v-4.507c0-1.382-.401-1.973-1.322-1.973-.72 0-1.207.395-1.915 1.138v5.341h-1.179l-.002-7.374zM255.859 200.32a1.872 1.872 0 0 0-.791-.181c-.661 0-.979.485-.979 1.426v1.168h1.48v1.018h-1.48v6.356h-1.179v-6.356h-.949v-.941l.949-.076v-1.168c0-1.501.646-2.443 2.042-2.443.434 0 .849.106 1.165.243l-.258.954zM259.485 202.551c1.71 0 3.235 1.412 3.235 3.885 0 2.442-1.525 3.854-3.235 3.854-1.713 0-3.237-1.412-3.237-3.854.002-2.473 1.524-3.885 3.237-3.885zm0 6.706c1.207 0 2.013-1.137 2.013-2.823 0-1.699-.806-2.852-2.013-2.852-1.194 0-2.015 1.154-2.015 2.852.001 1.686.821 2.823 2.015 2.823zM264.561 202.733h.978l.102 1.335h.043c.476-.926 1.192-1.517 1.984-1.517.306 0 .521.045.749.152l-.229 1.092a1.917 1.917 0 0 0-.68-.121c-.588 0-1.293.455-1.768 1.699v4.736h-1.181l.002-7.376zM269.553 202.733h.978l.101 1.062h.047c.604-.697 1.337-1.244 2.17-1.244 1.062 0 1.641.531 1.929 1.411.733-.833 1.455-1.411 2.301-1.411 1.438 0 2.129 1.002 2.129 2.883v4.673h-1.181v-4.506c0-1.381-.418-1.972-1.295-1.972-.55 0-1.106.378-1.755 1.137v5.341h-1.183v-4.506c0-1.381-.418-1.972-1.31-1.972-.517 0-1.106.38-1.755 1.139v5.341h-1.184l.008-7.376z"/></g><g><path d="M281.793 267.404c1.137 0 2.027.578 2.574 1.229l-.677.807c-.489-.562-1.094-.93-1.885-.93-1.801 0-2.978 1.551-2.978 4.023 0 2.504 1.135 4.076 2.92 4.076.904 0 1.567-.396 2.172-1.105l.678.773c-.747.91-1.667 1.44-2.876 1.44-2.372 0-4.131-1.911-4.131-5.157.002-3.197 1.785-5.156 4.203-5.156zM288.953 269.984c1.713 0 3.238 1.412 3.238 3.887 0 2.441-1.525 3.852-3.238 3.852-1.712 0-3.233-1.412-3.233-3.852-.001-2.475 1.521-3.887 3.233-3.887zm0 6.711c1.209 0 2.017-1.139 2.017-2.824 0-1.701-.808-2.854-2.017-2.854-1.189 0-2.014 1.149-2.014 2.854 0 1.686.822 2.824 2.014 2.824zM294.03 266.738h1.181v9.408c0 .395.159.547.331.547.071 0 .13 0 .262-.029l.156.939c-.156.071-.357.123-.677.123-.894 0-1.251-.595-1.251-1.672v-9.316h-.002zM300.231 269.984c.807 0 1.337.32 1.955.852l-.061-1.26v-2.838h1.194v10.805h-.979l-.102-.865h-.042c-.549.561-1.298 1.045-2.114 1.045-1.757 0-2.893-1.395-2.893-3.852.007-2.4 1.445-3.887 3.042-3.887zm.113 6.694c.647 0 1.209-.334 1.784-1.018v-3.854c-.591-.562-1.123-.775-1.696-.775-1.123 0-2.015 1.139-2.015 2.824.003 1.758.706 2.823 1.927 2.823zM279.203 292.73v2.485h-1.179v-10.483h.979l.1.852h.044c.632-.561 1.409-1.033 2.229-1.033 1.802 0 2.764 1.473 2.764 3.766 0 2.504-1.427 3.978-3.021 3.978-.646 0-1.293-.317-1.938-.854l.022 1.289zm1.71-1.488c1.152 0 2.001-1.107 2.001-2.928 0-1.625-.519-2.717-1.842-2.717-.588 0-1.179.35-1.869 1.004v3.866c.633.562 1.251.775 1.71.775zM289.76 287.436c0-.938-.304-1.854-1.438-1.854-.819 0-1.538.395-2.085.789l-.474-.865c.646-.441 1.625-.957 2.748-.957 1.711 0 2.43 1.199 2.43 3.035v4.521h-.979l-.1-.879h-.028c-.674.573-1.453 1.062-2.312 1.062-1.184 0-2.061-.774-2.061-2.095-.003-1.607 1.321-2.41 4.299-2.757zm-1.915 3.853c.676 0 1.233-.352 1.915-.986v-2.049c-2.349.305-3.138.912-3.138 1.852.003.832.535 1.183 1.223 1.183zM296.014 284.551c.922 0 1.567.41 2.043.879l-.592.805c-.415-.379-.85-.649-1.407-.649-1.269 0-2.188 1.151-2.188 2.854 0 1.688.878 2.821 2.158 2.821.661 0 1.224-.35 1.64-.739l.531.815c-.635.59-1.438.957-2.271.957-1.856 0-3.279-1.412-3.279-3.854 0-2.477 1.568-3.889 3.365-3.889zM299.725 281.303h1.163v7.314h.044l2.979-3.885h1.311l-2.346 2.961 2.659 4.414h-1.293l-2.045-3.551-1.31 1.606v1.94h-1.165v-10.805h.003v.006zM306.656 290.439c.604.516 1.227.881 2.06.881.924 0 1.383-.521 1.383-1.156 0-.758-.835-1.092-1.597-1.396-.995-.377-2.086-.879-2.086-2.125 0-1.182.894-2.094 2.401-2.094.875 0 1.644.381 2.172.836l-.562.787c-.475-.377-.977-.654-1.596-.654-.877 0-1.278.504-1.278 1.064 0 .699.765.957 1.554 1.273 1.006.395 2.131.834 2.131 2.229 0 1.197-.906 2.201-2.562 2.201-.989 0-1.94-.439-2.602-1.02l.582-.826z"/></g><g><path d="M256.795 367.875c.678.742 1.625 1.24 2.604 1.24 1.232 0 1.971-.65 1.971-1.619 0-1.021-.678-1.338-1.57-1.764l-1.351-.621c-.893-.398-1.913-1.109-1.913-2.564 0-1.518 1.251-2.643 2.962-2.643 1.121 0 2.113.502 2.79 1.229l-.646.818c-.574-.576-1.268-.939-2.145-.939-1.049 0-1.756.562-1.756 1.457 0 .955.817 1.32 1.568 1.656l1.34.605c1.091.5 1.938 1.184 1.938 2.651 0 1.578-1.225 2.838-3.208 2.838a4.464 4.464 0 0 1-3.309-1.471l.725-.873zM264.329 359.24h1.183v2.938l-.048 1.521c.664-.668 1.367-1.217 2.333-1.217 1.469 0 2.128 1.004 2.128 2.887v4.674h-1.179v-4.506c0-1.385-.4-1.973-1.325-1.973-.716 0-1.207.395-1.909 1.137v5.342h-1.183V359.24zM271.938 360.348c0-.483.357-.805.817-.805.458 0 .819.318.819.805 0 .474-.361.808-.819.808-.456-.004-.817-.338-.817-.808zm.216 2.322h1.18v7.373h-1.18v-7.373zM276.871 370.666v2.488h-1.18V362.67h.979l.104.85h.042c.634-.561 1.409-1.03 2.229-1.03 1.8 0 2.764 1.475 2.764 3.766 0 2.504-1.425 3.979-3.021 3.979-.646 0-1.296-.32-1.94-.854l.023 1.285zm1.711-1.486c1.15 0 1.999-1.104 1.999-2.93 0-1.625-.517-2.715-1.839-2.715-.591 0-1.181.35-1.871 1.002v3.869c.634.563 1.254.774 1.711.774zM284.852 370.666v2.488h-1.182V362.67h.979l.102.85h.044c.629-.561 1.408-1.03 2.229-1.03 1.8 0 2.761 1.475 2.761 3.766 0 2.504-1.424 3.979-3.021 3.979-.646 0-1.293-.32-1.941-.854l.029 1.285zm1.711-1.486c1.15 0 2-1.104 2-2.93 0-1.625-.52-2.715-1.841-2.715-.591 0-1.181.35-1.87 1.002v3.869c.634.563 1.251.774 1.711.774zM291.439 360.348c0-.483.357-.805.817-.805.464 0 .816.318.816.805 0 .474-.358.808-.816.808-.456-.004-.817-.338-.817-.808zm.218 2.322h1.18v7.373h-1.18v-7.373zM295.194 362.67h.979l.1 1.062h.046c.662-.697 1.381-1.244 2.344-1.244 1.467 0 2.132 1.004 2.132 2.887v4.672h-1.182v-4.506c0-1.383-.403-1.973-1.322-1.973-.719 0-1.209.395-1.914 1.139v5.342h-1.181l-.002-7.379zM303.549 369.785v-.06c-.344-.229-.615-.625-.615-1.196 0-.625.399-1.107.762-1.365v-.062a2.66 2.66 0 0 1-.904-1.985c0-1.611 1.209-2.627 2.634-2.627.39 0 .732.076.991.182h2.434v.959h-1.438c.329.332.574.896.574 1.521 0 1.573-1.137 2.561-2.562 2.561a2.33 2.33 0 0 1-1.05-.258c-.243.229-.443.475-.443.881 0 .473.284.807 1.233.807h1.354c1.623 0 2.444.529 2.444 1.763 0 1.362-1.367 2.551-3.541 2.551-1.711 0-2.894-.711-2.894-1.988-.002-.635.392-1.227 1.021-1.684zm2.045 2.795c1.339 0 2.216-.73 2.216-1.504 0-.685-.506-.91-1.409-.91h-1.209a3.28 3.28 0 0 1-.906-.121c-.504.381-.72.816-.72 1.244-.002.789.76 1.291 2.028 1.291zm1.307-7.469c0-1.078-.663-1.715-1.481-1.715-.817 0-1.479.637-1.479 1.715s.674 1.76 1.479 1.76c.803 0 1.481-.682 1.481-1.76zM259.497 378.873c.921 0 1.567.408 2.044.879l-.589.805c-.418-.379-.851-.649-1.409-.649-1.269 0-2.188 1.149-2.188 2.854 0 1.688.88 2.824 2.158 2.824.664 0 1.226-.352 1.641-.744l.532.82c-.634.588-1.438.955-2.271.955-1.854 0-3.277-1.412-3.277-3.855-.004-2.479 1.561-3.889 3.359-3.889zM265.624 378.873c1.713 0 3.236 1.41 3.236 3.885 0 2.445-1.523 3.855-3.236 3.855-1.711 0-3.233-1.412-3.233-3.855-.002-2.475 1.522-3.885 3.233-3.885zm0 6.707c1.209 0 2.017-1.137 2.017-2.824 0-1.701-.808-2.854-2.017-2.854-1.191 0-2.014 1.151-2.014 2.854 0 1.687.819 2.824 2.014 2.824zM270.702 379.055h.979l.1 1.062h.044c.662-.697 1.382-1.24 2.346-1.24 1.469 0 2.131 1 2.131 2.881v4.676h-1.182v-4.508c0-1.381-.401-1.973-1.323-1.973-.718 0-1.207.396-1.915 1.139v5.342h-1.179v-7.375h.002l-.003-.004zM278.769 380.072h-1.038v-.941l1.095-.072.146-2.063h.989v2.063h1.887v1.017h-1.887v4.096c0 .912.273 1.428 1.083 1.428.244 0 .562-.104.79-.194l.23.938c-.394.133-.862.273-1.297.273-1.497 0-1.998-1.006-1.998-2.461v-4.084zM287.128 381.756c0-.938-.302-1.852-1.438-1.852-.816 0-1.538.395-2.086.789l-.476-.865c.646-.439 1.625-.955 2.748-.955 1.71 0 2.432 1.197 2.432 3.033v4.521h-.979l-.101-.881h-.028c-.675.576-1.451 1.062-2.312 1.062-1.184 0-2.061-.777-2.061-2.099-.003-1.599 1.322-2.405 4.301-2.753zm-1.913 3.853c.676 0 1.232-.353 1.913-.984v-2.049c-2.348.301-3.136.91-3.136 1.85-.001.834.532 1.183 1.223 1.183zM290.318 376.732c0-.486.359-.806.821-.806.46 0 .817.316.817.806 0 .473-.357.803-.817.803s-.821-.332-.821-.803zm.217 2.323h1.179v7.375h-1.179v-7.375zM294.071 379.055h.979l.102 1.062h.044c.664-.697 1.384-1.24 2.346-1.24 1.468 0 2.13 1 2.13 2.881v4.676h-1.182v-4.508c0-1.381-.401-1.973-1.322-1.973-.721 0-1.207.396-1.912 1.139v5.342h-1.183l-.002-7.379zM304.557 378.873c1.782 0 2.792 1.348 2.792 3.459 0 .258-.019.502-.044.684h-4.721c.086 1.595.991 2.597 2.33 2.597.663 0 1.225-.229 1.739-.576l.416.817c-.604.41-1.352.761-2.3.761-1.871 0-3.354-1.441-3.354-3.854.008-2.417 1.547-3.888 3.142-3.888zm1.754 3.322c0-1.5-.631-2.334-1.727-2.334-.978 0-1.87.85-2.015 2.334h3.742zM309.075 379.055h.979l.101 1.336h.045c.474-.926 1.191-1.516 1.983-1.516.302 0 .519.045.747.152l-.229 1.09a1.905 1.905 0 0 0-.677-.121c-.592 0-1.297.455-1.771 1.701v4.731h-1.179l.001-7.373z"/></g><g><path d="M190.266 53.935h2.89c2.087 0 3.481.743 3.481 2.929 0 2.094-1.409 3.081-3.481 3.081h-1.696v3.945h-1.19l-.004-9.955zm2.747 4.978c1.639 0 2.431-.638 2.431-2.048 0-1.441-.806-1.913-2.431-1.913h-1.557v3.961h1.557zM198.435 56.515h.979l.104 1.335h.042c.474-.926 1.191-1.517 1.985-1.517.303 0 .517.045.747.152l-.23 1.093a1.863 1.863 0 0 0-.675-.121c-.59 0-1.297.455-1.771 1.699v4.735h-1.18v-7.376h-.001zM203.211 54.193c0-.485.359-.804.818-.804.46 0 .819.318.819.804 0 .471-.359.805-.819.805-.459 0-.818-.334-.818-.805zm.216 2.322h1.18v7.375h-1.18v-7.375zM206.964 56.515h.979l.103 1.062h.042c.605-.698 1.342-1.245 2.177-1.245 1.062 0 1.639.531 1.925 1.411.733-.834 1.454-1.411 2.302-1.411 1.438 0 2.13 1.001 2.13 2.883v4.674h-1.181v-4.506c0-1.382-.418-1.973-1.295-1.973-.55 0-1.106.38-1.755 1.139v5.342h-1.183v-4.507c0-1.381-.416-1.973-1.31-1.973-.52 0-1.106.379-1.757 1.138v5.342h-1.18v-7.377l.003.001zM222.842 59.216c0-.94-.302-1.851-1.438-1.851-.82 0-1.539.394-2.087.788l-.476-.865c.646-.44 1.625-.956 2.746-.956 1.715 0 2.435 1.199 2.435 3.035v4.522h-.979l-.101-.88h-.027c-.674.577-1.453 1.062-2.314 1.062-1.181 0-2.059-.774-2.059-2.094.001-1.607 1.323-2.412 4.3-2.761zm-1.913 3.855c.676 0 1.235-.35 1.914-.986v-2.048c-2.346.303-3.138.91-3.138 1.851.003.834.532 1.183 1.224 1.183zM226.251 56.515h.979l.104 1.335h.042c.475-.926 1.191-1.517 1.985-1.517.303 0 .519.045.747.152l-.229 1.093a1.877 1.877 0 0 0-.679-.121c-.588 0-1.293.455-1.769 1.699v4.735h-1.182l.002-7.376zM231.572 66.03c.792 0 1.296-.668 1.581-1.578l.16-.546-2.809-7.391h1.226l1.423 4.082c.217.638.462 1.396.677 2.08h.06c.203-.667.399-1.426.59-2.08l1.251-4.082h1.15l-2.634 7.982c-.489 1.457-1.209 2.564-2.618 2.564-.315 0-.587-.061-.817-.152l.23-.986c.14.046.356.107.53.107zM240.949 62.221c.604.516 1.222.88 2.058.88.923 0 1.383-.516 1.383-1.154 0-.759-.834-1.092-1.599-1.396-.993-.379-2.085-.88-2.085-2.125 0-1.184.894-2.095 2.403-2.095.875 0 1.64.379 2.171.834l-.558.789c-.478-.379-.979-.652-1.602-.652-.877 0-1.276.5-1.276 1.062 0 .698.761.957 1.555 1.275 1.003.395 2.126.834 2.126 2.23 0 1.2-.904 2.2-2.562 2.2-.989 0-1.938-.44-2.602-1.017l.588-.831zM248.344 64.513V67h-1.184V56.515h.979l.1.85h.045c.632-.562 1.41-1.032 2.229-1.032 1.801 0 2.762 1.472 2.762 3.764 0 2.503-1.423 3.976-3.021 3.976-.646 0-1.293-.318-1.94-.85l.03 1.29zm1.708-1.488c1.151 0 2.001-1.107 2.001-2.929 0-1.625-.521-2.717-1.845-2.717-.588 0-1.18.35-1.868 1.002v3.87c.634.562 1.254.774 1.712.774zM257.763 56.333c1.78 0 2.789 1.351 2.789 3.46 0 .257-.016.5-.042.682h-4.72c.086 1.593.991 2.595 2.33 2.595.663 0 1.225-.228 1.739-.577l.416.819c-.604.41-1.353.759-2.3.759-1.871 0-3.354-1.441-3.354-3.854.005-2.413 1.543-3.884 3.142-3.884zm1.753 3.323c0-1.502-.635-2.336-1.729-2.336-.978 0-1.868.85-2.014 2.336h3.743zM265.126 56.333c.921 0 1.567.41 2.044.88l-.592.804c-.415-.379-.85-.652-1.408-.652-1.267 0-2.188 1.153-2.188 2.852 0 1.686.877 2.822 2.158 2.822.661 0 1.221-.348 1.639-.743l.531.819c-.631.591-1.438.956-2.271.956-1.855 0-3.278-1.411-3.278-3.854-.001-2.472 1.566-3.884 3.365-3.884zM268.621 54.193c0-.485.358-.804.818-.804s.817.318.817.804c0 .471-.36.805-.817.805-.46 0-.818-.334-.818-.805zm.216 2.322h1.183v7.375h-1.183v-7.375zM272.374 56.515h.979l.103 1.062h.042c.604-.698 1.339-1.245 2.173-1.245 1.063 0 1.643.531 1.93 1.411.729-.834 1.449-1.411 2.301-1.411 1.436 0 2.126 1.001 2.126 2.883v4.674h-1.177v-4.506c0-1.382-.418-1.973-1.299-1.973-.548 0-1.105.38-1.757 1.139v5.342h-1.181v-4.507c0-1.381-.417-1.973-1.307-1.973-.52 0-1.107.379-1.757 1.138v5.342h-1.181v-7.377l.005.001zM286.915 56.333c1.783 0 2.79 1.351 2.79 3.46 0 .257-.016.5-.042.682h-4.718c.084 1.593.991 2.595 2.328 2.595.664 0 1.225-.228 1.741-.577l.417.819c-.604.41-1.354.759-2.304.759-1.867 0-3.353-1.441-3.353-3.854.004-2.413 1.543-3.884 3.141-3.884zm1.757 3.323c0-1.502-.636-2.336-1.728-2.336-.979 0-1.871.85-2.015 2.336h3.743zM291.43 56.515h.979l.099 1.062h.046c.661-.698 1.383-1.245 2.344-1.245 1.467 0 2.131 1.001 2.131 2.883v4.674h-1.182v-4.506c0-1.382-.401-1.973-1.322-1.973-.718 0-1.207.395-1.913 1.139v5.342h-1.179l-.003-7.376zM192.999 71.808c.921 0 1.567.41 2.042.88l-.587.804c-.418-.379-.853-.652-1.411-.652-1.266 0-2.188 1.153-2.188 2.853 0 1.685.878 2.822 2.158 2.822.66 0 1.222-.348 1.639-.743l.532.818c-.632.592-1.438.957-2.271.957-1.854 0-3.279-1.411-3.279-3.854 0-2.473 1.565-3.885 3.365-3.885zM199.126 71.808c1.713 0 3.236 1.411 3.236 3.886 0 2.443-1.523 3.854-3.236 3.854-1.71 0-3.233-1.412-3.233-3.854-.004-2.474 1.523-3.886 3.233-3.886zm0 6.707c1.209 0 2.017-1.137 2.017-2.822 0-1.7-.808-2.852-2.017-2.852-1.192 0-2.013 1.154-2.013 2.852 0 1.684.819 2.822 2.013 2.822zM204.204 71.99h.979l.1 1.062h.042c.664-.698 1.384-1.245 2.346-1.245 1.469 0 2.131 1.002 2.131 2.884v4.673h-1.18v-4.506c0-1.382-.4-1.973-1.325-1.973-.718 0-1.207.395-1.914 1.138v5.342h-1.178l-.001-7.375zM212.271 73.007h-1.035v-.941l1.094-.076.144-2.063h.993v2.063h1.885v1.018h-1.885v4.097c0 .91.271 1.426 1.08 1.426.245 0 .562-.106.791-.197l.229.941c-.39.137-.862.273-1.295.273-1.495 0-1.998-1.001-1.998-2.458v-4.082l-.003-.001zM220.63 74.691c0-.941-.304-1.852-1.438-1.852-.818 0-1.538.395-2.086.788l-.476-.865c.646-.44 1.623-.957 2.748-.957 1.711 0 2.432 1.2 2.432 3.035v4.522h-.979l-.102-.879h-.028c-.675.577-1.451 1.062-2.314 1.062-1.18 0-2.057-.774-2.057-2.095.001-1.605 1.321-2.41 4.3-2.759zm-1.913 3.855c.678 0 1.235-.349 1.915-.986v-2.048c-2.347.303-3.138.911-3.138 1.852 0 .833.53 1.182 1.223 1.182zM223.82 69.668c0-.485.359-.804.819-.804.462 0 .819.319.819.804 0 .47-.359.805-.819.805-.458 0-.819-.334-.819-.805zm.217 2.322h1.179v7.375h-1.179V71.99zM227.573 71.99h.979l.1 1.062h.042c.664-.698 1.384-1.245 2.348-1.245 1.465 0 2.128 1.002 2.128 2.884v4.673h-1.179v-4.506c0-1.382-.401-1.973-1.323-1.973-.721 0-1.209.395-1.916 1.138v5.342h-1.181l.002-7.375zM238.059 71.808c1.784 0 2.788 1.351 2.788 3.461 0 .257-.017.5-.042.682h-4.721c.088 1.593.993 2.596 2.33 2.596.666 0 1.228-.228 1.74-.577l.417.819c-.604.409-1.351.759-2.3.759-1.871 0-3.354-1.441-3.354-3.854.008-2.415 1.547-3.886 3.142-3.886zm1.755 3.323c0-1.502-.634-2.336-1.728-2.336-.979 0-1.869.85-2.012 2.336h3.74zM242.574 71.99h.979l.101 1.336h.044c.475-.926 1.192-1.518 1.986-1.518.302 0 .517.046.747.152l-.23 1.093a1.87 1.87 0 0 0-.677-.121c-.589 0-1.295.455-1.771 1.7v4.735h-1.181l.002-7.377z"/></g><g><path d="M218.373 114.127h-3.438l-.907 3.035h-1.224l3.193-9.955h1.352l3.191 9.955h-1.277l-.89-3.035zm-.303-1.017l-.446-1.517a71.627 71.627 0 0 1-.945-3.353h-.06a57.808 57.808 0 0 1-.935 3.353l-.445 1.517h2.831zM221.765 106.357h1.182v2.944l-.027 1.335c.634-.591 1.409-1.032 2.187-1.032 1.812 0 2.773 1.472 2.773 3.749 0 2.52-1.423 3.991-3.021 3.991-.646 0-1.381-.334-1.996-.91h-.044l-.101.728h-.951v-10.805h-.002zm2.892 9.94c1.149 0 1.999-1.107 1.999-2.929 0-1.625-.518-2.716-1.841-2.716-.59 0-1.209.349-1.87 1.002v3.87c.619.56 1.251.773 1.712.773zM229.559 115.493c.604.516 1.227.879 2.06.879.922 0 1.383-.516 1.383-1.153 0-.759-.835-1.093-1.598-1.396-.994-.379-2.086-.88-2.086-2.125 0-1.183.892-2.094 2.402-2.094.877 0 1.643.379 2.174.834l-.562.788c-.477-.379-.979-.652-1.598-.652-.878 0-1.28.5-1.28 1.062 0 .698.764.956 1.555 1.274 1.008.395 2.131.834 2.131 2.231 0 1.199-.905 2.201-2.562 2.201-.993 0-1.942-.441-2.603-1.018l.584-.831zM238.494 109.605c1.713 0 3.236 1.412 3.236 3.886 0 2.443-1.523 3.854-3.236 3.854-1.712 0-3.233-1.411-3.233-3.854-.002-2.474 1.519-3.886 3.233-3.886zm0 6.707c1.209 0 2.015-1.137 2.015-2.825 0-1.7-.806-2.852-2.015-2.852-1.195 0-2.014 1.153-2.014 2.852-.002 1.688.819 2.825 2.014 2.825zM243.569 109.787h.979l.1 1.336h.044c.475-.926 1.195-1.518 1.986-1.518.302 0 .516.045.747.152l-.231 1.093a1.854 1.854 0 0 0-.674-.121c-.589 0-1.297.455-1.771 1.7v4.735h-1.178l-.002-7.377zM248.559 106.357h1.181v2.944l-.027 1.335c.634-.591 1.411-1.032 2.188-1.032 1.812 0 2.776 1.472 2.776 3.749 0 2.52-1.425 3.991-3.021 3.991-.646 0-1.381-.334-1.999-.91h-.044l-.1.728h-.947l-.007-10.805zm2.895 9.94c1.148 0 1.995-1.107 1.995-2.929 0-1.625-.518-2.716-1.838-2.716-.592 0-1.209.349-1.871 1.002v3.87c.618.56 1.254.773 1.714.773zM259.162 109.605c1.781 0 2.79 1.351 2.79 3.46 0 .258-.018.5-.042.682h-4.722c.086 1.594.993 2.595 2.332 2.595.662 0 1.225-.228 1.737-.577l.415.818c-.604.409-1.349.759-2.298.759-1.872 0-3.354-1.441-3.354-3.855.005-2.411 1.544-3.882 3.142-3.882zm1.755 3.323c0-1.502-.632-2.336-1.726-2.336-.979 0-1.871.85-2.017 2.336h3.743zM263.677 109.787h.979l.101 1.062h.046c.659-.699 1.381-1.245 2.345-1.245 1.465 0 2.128 1.001 2.128 2.883v4.674h-1.179v-4.507c0-1.381-.402-1.973-1.323-1.973-.72 0-1.209.395-1.915 1.138v5.342h-1.179l-.003-7.374zM271.746 110.804h-1.037v-.941l1.098-.076.142-2.063h.993v2.063h1.886v1.018h-1.886v4.097c0 .91.271 1.425 1.079 1.425.246 0 .562-.105.794-.197l.229.941c-.387.136-.859.273-1.293.273-1.499 0-1.999-1.002-1.999-2.459v-4.082h-.003l-.003.001zM215.122 135.989v2.489h-1.18v-10.486h.978l.104.85h.042c.633-.561 1.41-1.032 2.229-1.032 1.797 0 2.763 1.472 2.763 3.763 0 2.504-1.426 3.976-3.021 3.976-.646 0-1.296-.318-1.938-.85l.023 1.29zm1.715-1.488c1.147 0 1.996-1.107 1.996-2.929 0-1.624-.519-2.716-1.839-2.716-.59 0-1.182.35-1.87 1.002v3.87c.632.562 1.249.773 1.713.773zM225.679 130.693c0-.941-.304-1.852-1.438-1.852-.819 0-1.539.395-2.088.789l-.474-.865c.646-.44 1.625-.956 2.748-.956 1.713 0 2.433 1.199 2.433 3.035v4.522h-.979l-.1-.88h-.028c-.676.577-1.453 1.062-2.314 1.062-1.181 0-2.057-.774-2.057-2.094-.003-1.608 1.32-2.412 4.297-2.761zm-1.913 3.855c.675 0 1.234-.35 1.912-.987v-2.048c-2.344.303-3.136.911-3.136 1.852.002.833.534 1.183 1.224 1.183zM231.934 127.81c.921 0 1.566.41 2.044.88l-.592.804c-.415-.379-.851-.652-1.409-.652-1.267 0-2.188 1.154-2.188 2.853 0 1.686.877 2.823 2.158 2.823.66 0 1.223-.349 1.639-.744l.533.819c-.634.592-1.438.956-2.271.956-1.856 0-3.28-1.411-3.28-3.854 0-2.474 1.57-3.885 3.366-3.885zM235.645 124.563h1.165v7.314h.042l2.977-3.885h1.311l-2.346 2.959 2.662 4.416h-1.295l-2.043-3.551-1.31 1.609v1.942h-1.163v-10.804zM246.576 130.693c0-.941-.303-1.852-1.438-1.852-.819 0-1.539.395-2.086.789l-.476-.865c.646-.44 1.627-.956 2.748-.956 1.712 0 2.432 1.199 2.432 3.035v4.522h-.979l-.098-.88h-.028c-.677.577-1.454 1.062-2.314 1.062-1.181 0-2.058-.774-2.058-2.094-.003-1.608 1.319-2.412 4.297-2.761zm-1.911 3.855c.676 0 1.234-.35 1.915-.987v-2.048c-2.348.303-3.137.911-3.137 1.852-.004.833.529 1.183 1.222 1.183zM250.473 135.108v-.06c-.348-.228-.619-.623-.619-1.199 0-.622.399-1.107.765-1.366v-.06a2.657 2.657 0 0 1-.908-1.988c0-1.608 1.21-2.625 2.635-2.625.39 0 .733.075.991.182h2.432v.956h-1.438c.329.334.572.895.572 1.518 0 1.578-1.135 2.564-2.562 2.564-.344 0-.731-.091-1.048-.258-.247.227-.443.47-.443.879 0 .471.282.805 1.231.805h1.354c1.625 0 2.444.53 2.444 1.76 0 1.366-1.365 2.55-3.539 2.55-1.713 0-2.893-.713-2.893-1.988.004-.622.395-1.214 1.026-1.67zm2.041 2.793c1.339 0 2.216-.728 2.216-1.502 0-.683-.504-.911-1.409-.911h-1.209a3.22 3.22 0 0 1-.904-.121c-.505.38-.72.819-.72 1.245 0 .788.762 1.289 2.026 1.289zm1.309-7.466c0-1.077-.66-1.714-1.479-1.714-.817 0-1.481.637-1.481 1.714s.677 1.761 1.481 1.761c.803 0 1.479-.684 1.479-1.761zM257.016 125.67c0-.486.358-.805.817-.805.46 0 .82.319.82.805 0 .47-.36.804-.82.804-.457.001-.817-.334-.817-.804zm.216 2.322h1.181v7.375h-1.181v-7.375zM260.771 127.992h.979l.104 1.062h.042c.661-.698 1.381-1.245 2.344-1.245 1.468 0 2.131 1.002 2.131 2.884v4.674h-1.18v-4.506c0-1.381-.402-1.973-1.325-1.973-.719 0-1.209.395-1.911 1.139v5.342h-1.181l-.003-7.377zM269.129 135.108v-.06c-.347-.228-.616-.623-.616-1.199 0-.622.397-1.107.762-1.366v-.06a2.667 2.667 0 0 1-.907-1.988c0-1.608 1.209-2.625 2.633-2.625.394 0 .734.075.994.182h2.432v.956h-1.438c.332.334.575.895.575 1.518 0 1.578-1.139 2.564-2.562 2.564-.345 0-.731-.091-1.047-.258-.246.227-.448.47-.448.879 0 .471.29.805 1.239.805h1.353c1.625 0 2.444.53 2.444 1.76 0 1.366-1.362 2.55-3.541 2.55-1.711 0-2.891-.713-2.891-1.988-.005-.622.384-1.214 1.018-1.67zm2.042 2.793c1.337 0 2.214-.728 2.214-1.502 0-.683-.503-.911-1.406-.911h-1.209c-.273 0-.604-.03-.907-.121-.502.38-.72.819-.72 1.245-.002.788.76 1.289 2.028 1.289zm1.307-7.466c0-1.077-.663-1.714-1.481-1.714-.815 0-1.479.637-1.479 1.714s.677 1.761 1.479 1.761c.807 0 1.481-.684 1.481-1.761z"/></g><path fill="none" stroke="#000" stroke-miterlimit="10" d="M152.734 59.688l32.28-.42M170.929 101.514l39.915 8.676M170.929 183.829l76.83-8.451M210.844 273.199l62.569-.941M199.584 366.562l52.355-.943"/><g><path d="M256.155 243.84c-6.896-7.768-14.751-14.625-22.697-21.286a1158.732 1158.732 0 0 0-12.036-9.974c-3.098-2.526-6.494-4.688-10.421-5.603-3.416-.795-6.966-.177-10.317.607-4.021.94-8.004 2.284-11.835 3.901.16-7.339-8.888-4.7-13.396-2.579.078-2.492.162-4.983.255-7.473.289-7.8.638-15.598.923-23.397.038-.021.076-.035.113-.055.392-.212.245-.722-.077-.873.007-.181.016-.362.021-.544.062-1.726.156-3.482.252-5.254.269-.378.267-.915.072-1.334.324-6.099.57-12.35-.554-18.195-.068-.355-.53-.322-.597.015-1.146 5.814-1.145 11.973-1.178 18.026-4.817 1.66-9.334 3.784-14.403 4.893-4.705 1.029-9.456 1.226-14.078.273-.051-.356-.098-.714-.15-1.071-.107-.727-.104-2.302-.471-3.331 9.148 1.199 21.019.911 27.923-5.686.446-.426-.221-1.139-.684-.696-7.007 6.695-19.587 6.572-28.541 5.197-.614-.094-.84.876-.236.969.126.02.26.036.388.055.032.085.08.167.165.23-.143-.106.117.921.16 1.152.18.974.32 1.957.462 2.938a28.389 28.389 0 0 1-3.666-1.132c-.269-.105-.357.319-.22.476 1.19 1.353 2.627 2.279 4.197 2.908.113.836.229 1.672.345 2.509-.262.232-.222.735.116.852l.028.202c.088.625 1.043.62.953-.016l-.025-.184c9.231-.338 18.788 2.198 27.52-1.325-.341 8.461-.733 16.92-1.046 25.382a739.836 739.836 0 0 0-.393 14.361c-.165-.104-.375-.11-.545.092-3.806 4.539-11.143 3.693-16.376 3.016-.878-.113-6.677-.951-6.565-1.285.16-.479.268-.975.351-1.473 8.422 1.094 18.96 2.235 22.909-4.833.286-.511-.175-1.511-.852-1.219-2.265.979-4.043 2.609-6.452 3.413-2.522.842-5.312.818-7.938.744-2.537-.071-5.044-.378-7.554-.57a10.868 10.868 0 0 0-.902-3.583c7.196.767 18.348 2.331 23.401-4.181.374-.482-.291-1.204-.686-.696-4.907 6.323-16.07 4.577-22.998 3.849-.27-.029-.409.15-.438.364-.254.098-.456.407-.295.728.562 1.119.84 2.28.916 3.454-1.68-.104-3.362-.122-5.057.027.126-.315.152-.677.008-.974-2.976-6.091-2.498-12.4-2.01-18.979.519-6.987.628-14.124.453-21.126-.006-.234-.351-.413-.446-.131-2.386 7.059-1.503 15.053-2.067 22.408-.471 6.154-1.281 13.761 2.567 19.077-.509.407-.386 1.435.397 1.466 1.707.069 3.78.336 6.036.632a13.402 13.402 0 0 1-.521 2.096c-.077.231.093.569.345.609 7.138 1.15 18.694 4.413 24.304-1.96a588.559 588.559 0 0 0-.082 10.631c-.097.276-.09.599.006.888.019 4.243.13 8.486.306 12.728.129 3.103.218 5.979 1.229 8.857-9.394 5.368-19.455 5.654-30.065 5.127-3.804-.188-7.615-.173-11.406-.562-3.816-.392-6.638-1.73-9.757-3.569a1.05 1.05 0 0 0 .301-.652c.836-7.104-.361-14.426-.982-21.505-.817-9.313-1.563-18.635-1.8-27.983-.228-9.008.341-17.976.944-26.957.559-8.321 1.172-16.894-1.235-24.97-.123-.414-.653-.304-.636.118.724 16.863-1.326 33.535-1.127 50.382.1 8.443.734 16.875 1.419 25.288a.939.939 0 0 0-.627.03c-14.54 5.493-29.19 10.141-43.192 16.964-5.766 2.811-11.856 4.911-17.708 7.529-4.049 1.812-8.645 3.892-11.993 7.032-.258-.045-.542.032-.812.305-11.147 11.222-14.707 27.625-20.066 41.979-3.026 8.107-6.18 15.982-8.479 24.35-2.596 9.44-4.629 19.025-7.167 28.481-1.104 4.115-2.105 9.859 1.352 13.15 4.087 3.891 11.822-.369 15.768-2.279 15.062-7.289 26.336-19.987 40.789-28.116 1.422 5.825 2.822 11.655 4.303 17.466 2.198 8.63 3.504 18.085 8.196 25.801.31.508.737.656 1.136.587 2.462 4.301 7.318 6.074 11.579 8.521 7.393 4.244 14.815 8.62 22.665 11.979 14.852 6.354 29.459-1.077 43.64-5.486 16.64-5.174 33.152-11.361 48.866-18.904 6.812-3.271 13.389-6.783 20.446-9.499 4.005-1.541 8.226-3.353 11.065-6.597.479.822 1.787.963 2.033-.312.65-3.379 2.487-6.482 3.383-9.83 1.005-3.76 1.293-7.715 1.722-11.568.902-8.118 3.663-15.61 6.099-23.355 2.534-8.059 4.215-16.445 6.02-24.691 1.624-7.425 3.705-14.951 5.033-22.486.724-1.158 1.326-2.371 1.734-3.658 2.664-8.403-4.678-15.395-9.757-21.117zm-109.346-64.473c-.093-.67-.186-1.341-.276-2.011 3.802 1.18 8.25.803 12.069.215 5.103-.787 11.258-2.203 16.053-4.782-.017 1.285-.04 2.565-.089 3.829-.018.45-.039.9-.057 1.351-8.726 3.753-18.457 1.04-27.7 1.398zm-4.305 81.13c12.094.489 23.225.646 33.931-5.814.564-.34.654-1.003.458-1.552a1.37 1.37 0 0 0-.112-.584c-1.562-3.577-1.287-7.708-1.425-11.536-.11-3.09-.16-6.182-.19-9.273 10.825-2.655 21.729-6.854 31.853-11.46 7.92 7.221 15.352 14.979 23.932 21.442 7.178 5.407 16.384 12.074 17.052 21.863.009.123.032.235.062.342-.217.21-.357.532-.316.989-.055-.607.087-.362-.379.083-.366.35-.766.664-1.161.979-1.117.889-2.31 1.686-3.493 2.482-3.482 2.342-7.096 4.495-10.708 6.631-4.558 2.695-9.152 5.403-13.837 7.912 0-.049.015-.087.01-.139-.833-8.309-.53-17.587-4.116-25.29-.326-.7-.88-.726-1.31-.427-.051-.069-.101-.14-.166-.194-2.695-2.253-7.324-.992-10.537-1.493-.748-.117-1.163.59-1.148 1.234-9.836 5.014-19.438 10.534-29.445 15.195-8.967 4.178-18.598 7.386-26.106 14.07-.723.644-.23 2.177.55 2.062-.004.075-.023.139-.014.224.938 8.315 1.384 16.814 3.306 24.982.086.366.258.59.463.71-.452.134-.901.273-1.357.4-3.125.873-6.289 1.525-9.374 2.542-.934.308-1.87.637-2.812.961.095-.18.163-.385.159-.646-.067-4.146-.499-8.245-1.006-12.357-.416-3.382-.512-7.099-1.599-10.37.277-.251.571-.484.892-.706.728-.505 1.466-.719 1.741-1.645.102-.342-.064-.881-.405-1.043-.918-.438-1.688.151-2.441.669a6.627 6.627 0 0 0-.94.804c-10.086-5.519-20.023-11.389-30.641-15.846-.2-.084-.266.257-.121.356 9.4 6.501 19.465 11.956 29.464 17.474-.012.291.072.581.288.815a.898.898 0 0 0 1.055.207c-.373 3.066.256 6.319.593 9.337.46 4.111.872 8.219.906 12.359.005.561.281.906.631 1.07-1.48.488-2.977.925-4.496 1.218a1.064 1.064 0 0 0-.748-.605c-11.168-2.583-18.636-12.631-27.098-20.215-.417-3.296-1.303-6.571-1.811-9.857-.678-4.385-.917-8.841-1.712-13.203a.763.763 0 0 0-.163-.36c.668-.553 1.327-1.11 2.046-1.61.496-.345 1.02-.649 1.523-.981.592-.388 1.086-.95 1.663-1.345 5.132 3.011 10.819 5.21 16.041 8.112 5.424 3.013 10.763 6.17 16.36 8.855.457.22.864.127 1.164-.116.595 8.896 2.207 17.978 4.046 26.687.327 1.552 2.226.715 1.988-.688-1.49-8.818-2.583-17.863-4.63-26.566-.119-.504-.535-.648-.889-.54 0-.4-.177-.786-.604-.989-6.017-2.857-11.752-6.25-17.58-9.466-4.854-2.679-10.387-6.087-15.975-6.785-.398-.05-.58.324-.566.692-.427.056-.873.068-1.29.181-.639.171-1.249.556-1.827.869-1.209.654-2.42 1.456-3.317 2.507-.534.626-.073 1.902.653 1.928-.315 4.389.375 8.863.974 13.204.321 2.322.611 4.771 1.136 7.128a43.508 43.508 0 0 0-2.447-1.82c-4.847-3.325-10.097-5.906-14.825-9.465-4.263-3.207-8.966-7.15-10.652-12.374 3.364.382 6.099-1.591 9.143-2.938 4.893-2.163 10.042-3.597 14.841-6.013 8.772-4.416 17.398-9.34 26.047-14.028a41.482 41.482 0 0 1-.234 2.849c-.062.525.166.949.488 1.216 1.341 7.445 15.19 6.482 20.564 6.699zm60.293-2.085c.235-.118.399-.313.505-.542 1.053.097 2.108.131 3.175.152 1.102.022 2.108.19 3.112.397-9.939 3.464-19.032 10.053-28.097 15.15-8.886 4.997-17.4 10.763-27.207 13.576-.115-.505-.818-.698-.918-.062-.01.062-.014.123-.023.185-1.786.313-3.571.688-5.252-.269-.368-.209-.691.055-.786.389a1.06 1.06 0 0 0-.296-.154c7.3-6.059 16.475-9.213 25.024-13.073 10.487-4.734 20.477-10.598 30.763-15.749zm-49.677 31.136c-.386 7.143 2.159 14.263 2.628 21.366.026.396.181.69.396.885a109.173 109.173 0 0 1-5.274 1.779c.205-.266.331-.617.263-1.029-1.345-8.068-2.281-16.164-3.349-24.271 1.491 1.214 3.476 1.745 5.336 1.27zm1.486-.106c3.703-.311 7.399-2.274 10.554-3.918 4.771-2.485 9.232-5.517 14.006-7.998 11.158-5.799 21.491-12.947 33.301-17.437a.995.995 0 0 0 .242-.135c2.926 7.494 1.205 15.665 3.481 23.27.082.274.237.461.42.591a148.515 148.515 0 0 1-3.896 1.984c-14.429 7.012-29.039 13.688-43.562 20.505-3.739 1.755-7.473 3.386-11.278 4.841.013-.094.039-.176.033-.284-.415-7.202-2.265-14.272-3.301-21.419zm-32.871-42.479a1.17 1.17 0 0 0-.487.144c-8.049 4.32-16.248 8.354-24.134 12.973-4.263 2.498-8.802 4.214-13.406 5.961-3.562 1.351-8.435 5.02-12.328 4.469a.947.947 0 0 0-.426.034c-.388-.316-1.079-.146-1.177.467-.819 5.134 4.037 9.851 7.447 12.971 4.742 4.337 10.246 7.915 15.83 11.064 12.788 7.214 20.928 23.012 35.827 26.466.306.07.567.023.782-.098 5.588.32 11.418-2.588 16.735-3.885 8.181-1.995 15.805-5.086 23.417-8.626 14.807-6.888 29.81-13.541 44.397-20.88 7.419-3.733 14.631-7.96 21.747-12.232 3.493-2.098 6.977-4.238 10.287-6.617 1.26-.906 3.83-2.436 3.662-4.312-.008-.083-.04-.142-.057-.216.301-.207.506-.58.47-1.119-.623-9.224-7.623-15.741-14.432-21.174-4.7-3.75-9.455-7.326-13.909-11.384-4.956-4.514-9.715-9.234-14.755-13.656-.452-.397-1.096-.512-1.509.037l-.235.312c-.135.179-.2.385-.234.595-10.107 3.485-19.895 7.745-30.104 10.998-.003-.476-.012-.951-.013-1.427-.011-5.403.093-10.808.244-16.21a25.915 25.915 0 0 1 5.743-2.181c2.689-.668 5.072-.527 5.732 2.467.034.155.09.277.153.388-.647.292-1.291.591-1.928.896-3.144 1.51-6.082 3.403-8.833 5.54-1.097.852-.12 3.315 1.168 2.318 7.604-5.881 17.423-9.835 26.904-11.414 9.151-1.525 15.572 4.975 22.071 10.346 7.526 6.222 15.018 12.473 22.001 19.307 3.409 3.337 6.61 6.871 9.672 10.528 3.135 3.744 7.055 8.033 6.005 13.186-.214-.007-.422.111-.551.455a60.796 60.796 0 0 0-1.192 3.525c-2.132 3.194-5.623 5.776-8.517 7.901-4.051 2.976-8.493 5.414-12.854 7.896-9.902 5.633-20.041 10.805-30.286 15.781-17.691 8.595-35.592 18.027-54.669 23.162a1.1 1.1 0 0 0-.841-.106c-9.958 2.476-19.838 6.576-30.272 4.657-9.586-1.764-18.147-7.726-25.584-13.725-8.095-6.53-15.427-14.12-22.774-21.46-3.543-3.54-6.749-7.372-10.216-10.978-3.086-3.207-6.801-6.613-7.643-11.181 1.461-1.245 2.764-2.688 4.153-4.007 2.151-2.043 4.482-3.893 6.866-5.652 5.138-3.793 10.779-6.574 16.736-8.812 6.045-2.271 12.106-4.484 18.055-7.003 5.316-2.251 10.171-6.234 16.051-6.938a1.04 1.04 0 0 0 .467-.171c.383 3.534.725 7.098.744 10.62zM31.044 360.157c-4.161 2.502-12.718 7.977-17.745 5.529-5.043-2.453.052-15.009.912-18.479 2.044-8.245 3.919-16.528 6.264-24.696 2.251-7.844 5.531-15.226 8.275-22.885 4.722-13.183 8.379-27.744 18.144-38.27 4.787-2.689 9.347-5.535 14.46-7.736 5.502-2.369 11.144-4.396 16.539-7.012 13.681-6.632 28.074-11.067 42.265-16.429.066-.025.125-.06.183-.094.117 1.271.253 2.555.393 3.846a.967.967 0 0 0-.27-.005c-5.304.641-10.017 3.692-14.672 6.104-6.339 3.285-13.328 5.48-20.001 7.982-6.186 2.319-11.859 5.249-17.205 9.146-4.003 2.919-8.969 6.718-11.483 11.275-.471-.46-1.293-.432-1.528.509-.03.123-.055.246-.084.369-9.253 3.685-13.623 16.751-16.775 25.066-5.758 15.189-11.717 30.195-15.987 45.898-.977 3.593-4.042 10.092-1.883 13.733 2.439 4.115 7.121 1.697 10.18-.299 5.604-3.659 10.962-8.07 16.346-12.053 3.209-2.373 6.331-4.649 9.872-6.505 3.012-1.578 6.02-3.112 8.533-5.44.133-.123.232-.27.302-.429.429 1.7.855 3.399 1.274 5.103-13.02 7.188-23.554 18.106-36.309 25.772zm23.794-87.554c-2.666 17.218 5.574 34.967 9.862 51.291.291 1.109.566 2.221.851 3.331-.287-.176-.639-.168-1.003.171-4.102 3.814-9.569 5.543-14.075 8.785-5.154 3.707-10.523 7.289-15.478 11.254-1.92 1.537-12.035 10.227-12.414 3.789-.136-2.309.869-4.811 1.509-6.992.961-3.275 1.771-6.598 2.73-9.875 3.865-13.185 9.02-25.852 13.854-38.689 3.317-8.806 6.794-17.382 14.164-23.065zm202.811 15.041c-1.915 8.748-3.734 17.6-6.269 26.193-2.302 7.806-5.316 15.256-6.373 23.378-.504 3.874-.825 7.753-1.588 11.59-.547 2.753-1.785 5.241-2.73 7.829-.422-.088-.889.064-1.221.602-3.001 4.845-9.046 6.68-14.085 8.593-6.567 2.492-12.699 6.047-19.024 9.081-14.048 6.738-28.786 12.092-43.548 17.024-13.047 4.359-27.265 11.54-41.304 8.503-7.864-1.701-15.347-6.598-22.304-10.484-2.953-1.65-5.866-3.33-8.901-4.824-2.862-1.409-5.759-3.109-7.612-5.749a1.304 1.304 0 0 0-.189-.526c-4.576-7.457-5.853-16.793-7.992-25.164-2.362-9.246-4.531-18.543-6.891-27.79-4.519-17.716-13.354-36.286-10.459-54.884.023-.014.048-.027.07-.042.7 3 2.565 5.445 4.617 7.823 3.585 4.153 7.384 8.226 11.182 12.184 7.703 8.027 15.726 15.978 24.244 23.143 7.882 6.63 16.865 12.544 27.046 14.788 9.971 2.198 21.136-1.249 30.63-4.449 10.101-1.828 19.687-6.151 28.963-10.393 10.491-4.797 20.948-9.693 31.311-14.764a522.218 522.218 0 0 0 30.164-16.022c4.738-2.716 10.902-6.068 15.361-10.466-1.165 4.929-2.035 9.969-3.098 14.826z"/><path d="M129.824 389.385c1.84-4.864 1.134-11.284.677-15.864-.899-9.02-1.333-17.842-3.604-26.656-.028-.107-.147-.047-.135.047 1.137 8.022.709 16.227 1.555 24.291.373 3.561.707 7.104.623 10.688-.092 3.925-1.596 7.164-2.715 10.822-.203.666.572 1.136 1.057.67.752-.723 1.349-1.562 1.842-2.473a6.6 6.6 0 0 0 .38 1.353c.288.737.605 1.552 1.363 1.912.446.212.959-.11.909-.635-.114-1.22-1.097-2.113-1.177-3.337-.036-.546-.407-.813-.775-.818zM201.546 244.767c.695-3.215 1.036-6.493 1.759-9.713.82-3.657 1.777-7.241 2.136-10.983.082-.856-.993-1.339-1.225-.365-1.571 6.616-4.631 14-4.126 20.867.067.908 1.242 1.18 1.456.194zM102.513 147.622c7.004-1.59 13.301-7.223 18.441-11.879 5.614-5.086 11.582-11.283 14.528-18.385 2.547-6.14 3.061-18.519-5.28-17.675-.003-.014 0-.027-.004-.041-1.634-5.896-3.148-10.641-.04-15.998 1.424 3.067 3.34 5.857 5.132 7.827.23.252.599-.061.487-.349-2.85-7.397-8.212-14.129-3.906-22.05.749 2.074 1.363 4.19 1.527 6.492.029.411.625.75.807.235 1.06-2.99.156-5.845-.887-8.73-1.359-3.761-2.726-7.264-3.412-11.217-1.248-7.189-2.709-16.594 2.667-22.454a.955.955 0 0 0 .21-.383c.806 2.216 2.038 4.216 3.67 6.014.493.542 1.575 1.098 1.375 2.021-.274 1.265-.479 2.544-.676 3.822-.301 1.954-.479 3.926-.626 5.896-.673 9.058.225 18.172.935 27.199.696 8.868 1.323 17.744 1.835 26.624.257 4.469.457 8.941.608 13.414.148 4.405.839 9.508-.543 13.757a.472.472 0 0 0-.012.245c-.837-.163-1.664-.431-2.438-.679-2.584-.826-5.006-2.104-7.771-2.179-.826-.022-.723 1.186-.133 1.454 3.709 1.686 13.07 7.224 16.146 2.039.198-.334.079-.859-.224-1.124a8.121 8.121 0 0 0 .518-1.989c1.598-2.019 5.203-1.831 7.478-1.688 2.466.155 5.251.693 7.405 1.997.543 1.641 1.457 3.09 2.928 4.151.359.259.679-.09.678-.447.051.088.088.187.145.271.358.534 1.179.006.826-.519-1.013-1.508-.79-4.125-.886-5.891-.104-1.912-.097-3.829-.067-5.743.062-4.174.411-8.343.754-12.502.651-7.905 1.137-15.689.594-23.615-.267-3.879-.4-7.72.156-11.582.537-3.737 1.011-7.441 1.25-11.213.232-3.663.357-7.367.212-11.036-.15-3.8-.991-7.646-.331-11.422.014 5.496.843 11.033.725 16.527-.194 8.995-1.397 17.934-1.642 26.928-.241 8.888 1.003 17.646.403 26.556-.262 3.9-.623 7.668-.459 11.583.162 3.853.471 7.786-.591 11.543-.173.614.763.871.938.251.935-3.314.825-6.756.687-10.165a88.747 88.747 0 0 1 .244-11.38c.378-4.374.518-8.764.387-13.152-.143-4.781-.717-9.503-.67-14.297.089-8.989 1.299-17.929 1.626-26.909.253-6.961-1.11-13.965-.603-20.896a.427.427 0 0 0-.082-.297c.303-1.155.482-2.316.195-3.568-.253-1.104-.813-2.109-1.514-3.015-.061-.349-.176-.682-.42-.941a.82.82 0 0 0-.632-.257 19.198 19.198 0 0 0-1.144-1.066c-3.29-2.836-7.904-4.661-12.218-5.014-4.497-.369-9.26.996-12.387 4.358-3.416 3.672-2.093 8.475.021 12.396 1.735 3.217 2.004 6.593 1.833 10.193-.188 3.964-.56 7.905-.655 11.878-.188 7.806.137 15.619.418 23.418.562 15.549-.124 31.306 1.819 46.771-.425.14-.853.282-1.341.36a5.432 5.432 0 0 1-1.3.035c.023-.037.05-.07.065-.118.965-2.972.732-6.137.685-9.217-.06-3.851-.207-7.699-.381-11.546-.345-7.597-.862-15.186-1.406-22.771-1.141-15.911-3.657-32.349-.239-48.133.034-.158.005-.374-.13-.484-3.095-2.536-5.109-5.849-5.875-9.781a.423.423 0 0 0-.156-.263c2.426-5.697 10.655-8.304 16.227-8.792 7.791-.684 15.49 2.602 20.51 8.527 8.556 10.099 6.005 26.197 1.12 37.368-.283-.56-1.073-.37-1.055.314.154 6.012 3.718 11.239 5.272 16.924 1.69 6.18 1.629 12.826 1.446 19.186-.262 9.157-1.112 22.37-9.432 28.085-1.217.836-.135 3.155 1.227 2.247a16.06 16.06 0 0 0 1.706-1.331c-.049.576.186 1.21.76 1.435 5.886 2.298 1.925 7.199-1.58 9.696-4.76 3.391-11.952 4.142-17.53 5.136-10.507 1.873-22.555.194-30.755-6.98 1.549-4.082 5.909-5.591 8.738-8.714.645-.711-.131-2.155-1.068-1.557-2.752 1.755-8.943 5.767-8.777 9.839a.886.886 0 0 0-.269.14.623.623 0 0 0-.241.116c-1.485 1.171-1.446 4.078-1.428 5.785.013 1.248 1.624 1.184 1.662-.041.03-.944.138-1.86.357-2.779.062-.263.146-.513.23-.76.204.181.409.36.617.534-.207.174-.294.491-.036.717 9.776 8.553 22.687 10.097 35.175 8.641.618-.072.606-1.073-.016-1-9.531 1.111-19.354.481-27.765-3.826 10.131 4.375 22.168 3.177 32.977.569 5.273-1.272 11.076-3.409 13.91-8.409.04-.07.069-.139.107-.209.207 1.098.379 2.2.496 3.314.117 1.107.016 2.236.51 3.254a1.25 1.25 0 0 0-.338.152c-8.219 5.354-18.15 8.288-27.867 9.151-5.058.45-10.183.108-15.081-1.25-2.379-.66-4.625-1.688-6.726-2.976-2.183-1.336-3.703-3.335-5.695-4.862-.777-.596-1.198.654-.979 1.211l.103 1.218c-.022.256.303.271.373.05l.098-.178c4.742 8.149 17.821 9.767 26.09 9.5 10.717-.346 21.919-3.681 30.906-9.557.765-.5.642-1.622.106-2.18a.706.706 0 0 0 .216-.25c.581-1.187.292-2.568.133-3.831a21.392 21.392 0 0 0-.964-4.165c-.123-.365-.342-.542-.576-.602.858-3.304-.796-6.107-4.605-7.354-.056-.018-.106-.024-.159-.034 5.855-6.205 6.959-16.604 7.484-24.589.394-5.98.462-12.179-.425-18.109-1.039-6.955-4.225-12.926-6.549-19.42.393.081.803-.084 1.051-.651 5.878-13.415 7.923-31.64-3.366-42.898-6.033-6.018-15.634-8.505-23.89-6.577-5.194 1.213-15.936 5.976-14.412 12.931-4.741 4.7-4.41 12.701-3.729 18.823.396 3.561.938 7.25 1.976 10.684.641 2.121 1.49 4.128 2.274 6.15-.251-.075-.532-.03-.783.241-3.321 3.594-3.063 8.689-1.347 13.457-4.824 3.36-3.939 13.687-.878 18.308-6.229-1.084-13.504 2.925-18.411 6.098-6.281 4.061-11.938 9.724-15.542 16.292-3.14 5.723-5.831 13.084-3.996 19.622 1.564 5.564 7.076 7.12 12.136 5.971zm49.221-20.839c-1.996-.074-4.486.113-6.179 1.351.008-.331.011-.664.002-1.004-.078-3.169-.222-5.967.249-9.14.9-6.054.254-12.025.166-18.11-.098-6.775-.354-13.445-.92-20.197-.538-6.403-.813-12.917-.33-19.333.383-5.094 1.05-10.193.543-15.304-.174-1.757-.519-3.485-1.534-4.953-1.348-1.948-3.586-3.042-4.345-5.409-1.109-3.458 2.933-6.35 5.614-7.438 1.778-.723 3.78-.797 5.673-.796 3.659.002 9.575.628 11.417 4.364.169.343.512.289.711.077 1.556 2.615.082 5.189-.43 7.873-.438 2.297.262 4.886.547 7.163.663 5.299.237 10.882-.036 16.197-.284 5.516-.699 11.02-1.11 16.526-.22 2.939-.237 5.924-.59 8.848-.304 2.524-.911 4.941-.799 7.502.096 2.172.993 4.313 1.535 6.397.519 1.994.473 3.881.203 5.886-.478 3.546-1.271 7.045-1.805 10.583-.468 3.104-1.062 7.163-.34 10.639-2.504-1.247-5.513-1.622-8.242-1.722zm-9.033-101.114c4.858-3.028 10.956-2.267 15.949-.088 2.028.885 3.912 2.104 5.516 3.627-.35.364.075 1.088.574.773l.127-.081c.072.078.156.145.227.224.094.104.173.209.258.314.007.161.004.321.005.457.004.389.352.532.624.444 1.463 2.521.613 5.044-.178 7.966-.851 3.143-.321 6.487-.034 9.673.358 3.972.26 7.95.087 11.93-.267 6.179-1.661 12.262-1.762 18.43-.101 6.121.726 12.184.478 18.322-.259 6.417-1.005 12.804-1.388 19.213-.19 3.194-.252 6.393-.161 9.592.055 1.95-.167 4.682.673 6.624-1.169-.857-1.941-2.02-2.446-3.358.074-.209.043-.463-.186-.612-.017-.01-.034-.018-.051-.029-1.454-4.845.302-11.688 1.038-15.742.506-2.792 1.126-5.604 1.249-8.447.091-2.107-.546-4.175-1.129-6.172-.866-2.968-.946-5.554-.448-8.608.818-5.016.895-10.138 1.284-15.205.418-5.437.766-10.88.986-16.329.22-5.416.12-10.758-.6-16.128-.363-2.708.338-4.904.934-7.487.387-1.678.135-3.225-.763-4.676-.19-.308-.517-.268-.714-.086-1.655-3.218-5.893-4.129-9.161-4.556-3.747-.489-7.585-.278-10.936 1.577-2.81 1.556-4.781 4.538-4.224 7.485a8.762 8.762 0 0 1-.293-1.474c-.331-3.292 1.839-5.936 4.465-7.573zm-1.133 36.809c.054-3.731.213-7.462.551-11.179.303-3.33.275-6.606-.684-9.828-.551-1.851-1.562-3.402-2.311-5.095.141.254.297.506.482.755 1.439 1.929 3.562 3.028 4.265 5.482.831 2.903.688 6.131.564 9.116-.255 6.171-.966 12.228-.849 18.424.139 7.37 1.172 14.673 1.341 22.039.081 3.53.062 7.062.143 10.592.084 3.677.497 7.326.262 11.005-.188 2.965-1.016 5.888-1.026 8.856-.008 2.172.467 4.408.217 6.526-.034.049-.079.086-.111.137a.425.425 0 0 0 .012.507 7.126 7.126 0 0 1-.391 1.326.55.55 0 0 0-.278-.06c-1.807-14.952-1.184-30.161-1.714-45.187-.276-7.803-.584-15.605-.473-23.416zm-9.27-31.01l-.009-.006a.124.124 0 0 1 .004-.016.142.142 0 0 0 .005.022zm-33.71 88.133c3.645-4.918 8.362-9.009 13.477-12.33 2.891-1.877 6.021-3.317 9.288-4.395 1.771-.584 3.602-.839 5.423-1.143.092.682.594 1.292 1.373 1.057 11.119-3.359 6.104 12.766 3.079 17.53-3.571 5.627-8.377 10.502-13.353 14.885-4.258 3.749-8.928 7.293-14.257 9.353-2.872 1.11-5.502 1.058-7.532.045 2.038.209 4.944-.816 6.816-1.53 4.141-1.578 7.582-4.492 10.774-7.479 6.424-6.01 14.298-11.396 18.063-19.628.256-.56-.553-1.081-.822-.491-3.504 7.662-10.757 12.974-16.869 18.46-3.167 2.843-6.194 5.624-10.025 7.563-1.953.99-5.531 2.293-7.84 2.108-.278-.103-.66.051-.664.456v.045a.465.465 0 0 0 .037.191c-1.162-.718-2.098-1.773-2.713-3.145 9.438 2.274 18.203-8.29 24.622-13.644 4.046-3.374 7.918-7.013 11.008-11.3 2.297-3.188 4.903-8.272 3.101-12.202-.479-1.043-1.569-.275-1.623.566-.322 4.995-1.653 8.304-4.854 12.267-2.886 3.572-6.426 6.599-9.946 9.523-6.041 5.018-14.079 14.926-22.957 12.648a12.152 12.152 0 0 1-.187-2.415c.11-5.766 3.187-12.415 6.581-16.995zM154.568 188.962l-.041-.073c-.204-.357-.793-.294-.868.133-.12.689.124 1.171.43 1.791.137.279.55.317.748.089.876-1.005 1.184-1.813 2.541-1.89 1.369-.078 1.424-.184 2.378 1.134.21.29.632.337.821-.013.372-.689.927-1.145 1.438-1.67.132.34.264.681.406 1.018.115.271.574.33.748.089.447-.621 1-1.11 1.562-1.609.323.46.677.855 1.1 1.287.208.213.618.178.745-.113.273-.628.624-1.19.979-1.758.406.472.834.924 1.199 1.438.174.245.524.345.748.089.774-1.201 1.995-1.308 3.661-.322.448.462 1.089-.277.66-.718-1.681-1.731-3.128-1.567-4.644-.03-.429-.51-.891-.987-1.28-1.537-.215-.304-.621-.321-.821.014-.354.592-.709 1.159-1.027 1.756a6.123 6.123 0 0 1-.818-1.103c-.17-.286-.516-.302-.748-.089-.52.475-1.051.911-1.52 1.418-.13-.333-.258-.667-.398-.997-.117-.275-.57-.325-.748-.089-.524.694-1.176 1.206-1.692 1.873-.304-.369-.615-.733-.894-1.117-.124-.171-.319-.297-.541-.221-.82.284-1.679.308-2.539.313-.496.003-1.061.798-1.501 1.45l-.044-.14a.468.468 0 0 0-.04-.403zM159.412 197.309l-.017.024c-.052-.125-.102-.25-.159-.371-.22-.458-.754-.219-.849.174-.167-.111-.386-.127-.568.07a4.518 4.518 0 0 0-.613.874 4.301 4.301 0 0 1-.233-1.384c0-.642-.955-.625-.955.015v1.184c0 .22.115.356.262.423.124.39.28.773.475 1.162.165.33.665.305.824-.014.268-.535.517-1.122.927-1.564.026-.028.036-.06.055-.09.105.266.222.532.473.679.529.307.963-.33 1.212-.691.355-.515-.471-1.018-.834-.491zM161.017 196.896c0 .513-.069 1.25.308 1.663.487.534 1.115.057 1.513-.323.448-.427-.222-1.139-.686-.696-.049.047-.101.1-.155.147-.044-.26-.024-.547-.024-.807-.001-.642-.957-.625-.956.016zM164.172 198.236c.271-.306.399-.698.667-1 .408-.462-.261-1.179-.688-.696-.097.109-.165.235-.238.357l-.002-.007a6.293 6.293 0 0 0-.341-.928c-.271-.587-1.074-.043-.816.519.272.59.309 1.257.742 1.766.17.199.509.177.676-.011zM165.972 195.88c-.022-.64-.978-.626-.955.016.037 1.065.672 2.099 1.818 2.159.618.032.6-.968-.016-1-.589-.032-.829-.674-.847-1.175zM168.018 195.229c0 .456-.07 1.18.307 1.528.444.41.974.175 1.418-.108.518-.329.042-1.197-.496-.855a2.473 2.473 0 0 1-.252.137c-.043-.229-.022-.489-.023-.717-.001-.642-.955-.626-.954.015zM173.027 195.741c-.945.221-1.57.027-2.124-.779-.363-.53-1.171.001-.816.519.331.483.71.935 1.258 1.176.627.276 1.304.196 1.952.044.597-.139.339-1.102-.27-.96z"/><path d="M158.575 42.815c.153-.072.227-.279.228-.436.033-3.622.443-7.293-.685-10.8a.505.505 0 0 0-.121-.201c.152-.371.093-.792-.326-1.267-1.857-2.108-5.17-2.168-7.734-1.871-1.921.223-4.514.962-5.124 3.002a.464.464 0 0 0-.458.485c0 2.761-.165 5.575.021 8.329.055.812.437 1.392.965 1.854a.513.513 0 0 0-.133.449c.967 5.399 1.235 10.843 1.371 16.317.117 4.761-.414 9.517-.227 14.262.044 1.099.159 2.173.497 3.097a.5.5 0 0 0-.11.225.48.48 0 0 0-.386.467c-.181 4.568.229 9.112.552 13.664-.086.103-.164.212-.251.314-.295.344-.009.824.33.855l.037.548c.119 1.878.137 3.754.126 5.631-.132.075-.26.153-.398.22-.518.248-.126 1.015.396.88-.028 2.065-.083 4.131-.121 6.199.001.014-.002.027-.001.041-.008.434-.02.866-.024 1.3-.058 5.155-.396 16.056 6.245 17.572.147.237.496.342.736.125.154.018.308.038.47.047 2.693.142 3.815-2.528 4.141-4.713.552-3.706.067-7.856-.059-11.575-.346-10.166-.407-20.255-.392-30.422.801-5.599.434-11.298.514-16.936.083-5.812-1.228-11.536-.851-17.361.259-.097.531-.187.772-.301zm-3.697-13.311c.665.197 1.339.606 1.874 1.03.907.718-1.056 1.36-1.301 1.443-.969.332-1.991.39-3.005.431-1.839.075-5.119.812-6.62-.547a.507.507 0 0 0-.147-.088c.681-3.182 6.88-2.956 9.199-2.269zm-9.587 3.174c2.014 1.646 6.006.866 8.36.67.64-.053 2.545-.453 3.637-1.192.755 2.553.7 5.178.619 7.821-.052 1.687-.24 2.289-1.96 2.67-1.299.289-2.68.263-4.001.214-2.153-.079-6.468-.484-6.654-3.267-.153-2.281-.034-4.617-.001-6.916zm11.894 44.051l-.001.14a.38.38 0 0 0-.272.092c-1.568 1.272-3.023 1.275-4.895 1.005-1.18-.17-3.124-.331-3.91-1.364-.015-.019-.023-.043-.037-.062 2.907-1.205 6.694-2.337 9.135.092-.007.032-.02.059-.02.097zm-1.108 45.897a2.583 2.583 0 0 1-1.544.585c.609-1.025 1.206-2.057 1.973-2.976.395-.473-.275-1.191-.688-.696-.909 1.09-1.6 2.321-2.33 3.531-.866-.265-1.696-.852-2.376-1.501 1.136-2.319 2.973-4.228 4.298-6.436.322-.537-.498-1.043-.83-.491-1.277 2.124-3.023 3.976-4.167 6.181a8.894 8.894 0 0 1-.329-.418c-.578-.795-.936-1.775-1.185-2.795 2.455-3.082 4.273-6.621 6.938-9.541.414-.455-.251-1.172-.686-.696-2.508 2.749-4.266 6.041-6.508 8.987-.125-.73-.218-1.454-.311-2.12a38.485 38.485 0 0 1-.275-2.754c.038-.023.077-.043.113-.083 2.756-3.019 4.574-6.778 7.665-9.5.463-.407-.205-1.118-.684-.696-2.9 2.552-4.687 6.005-7.167 8.915a81.582 81.582 0 0 1-.026-4.847c2.809-2.947 5.757-5.777 8.21-9.039.365-.486-.298-1.209-.684-.696-2.246 2.986-4.904 5.612-7.492 8.295l.051-1.868a83.88 83.88 0 0 0 .008-3.617c3.15-2.069 4.393-6.42 6.617-9.281.373-.48-.289-1.204-.684-.696-2.047 2.632-3.268 6.651-5.967 8.788a197.459 197.459 0 0 0-.291-6.249c2.139-2.591 3.92-5.455 6.107-8.009.397-.464-.263-1.185-.682-.696-1.98 2.312-3.633 4.872-5.512 7.26a308.971 308.971 0 0 1-.266-4.992.488.488 0 0 0 .196-.175c.861-1.339 1.973-2.493 2.835-3.833.337-.524-.479-1.032-.826-.491-.684 1.064-1.521 2.015-2.271 3.032a86.827 86.827 0 0 1-.011-6.038c.439.657 1.081 1.17 2.029 1.457 2.686.81 5.57 1.216 7.85-.456-.037 7.76-.242 15.495.104 23.256.184 4.111.381 8.219.396 12.335.016 2.763.876 7.093-1.598 9.064zm1.34-47.134c-2.752-2.229-6.694-1.124-9.785.158-.466-1.364-.354-3.169-.36-4.442-.01-2.015.214-4.033.324-6.044.278-5.117.123-10.458-.426-15.686 2.926 1.189 7.033.532 9.703-.898.209 3.668.699 7.327.815 11.005.165 5.203.308 10.686-.271 15.907zm-.597-27.926a.468.468 0 0 0-.239.06c-2.527 1.426-6.849 2.124-9.533.725a95.63 95.63 0 0 0-.86-5.841c.188.109.379.214.575.313 2.754 1.397 6.88 1.513 10.076.611a42.508 42.508 0 0 0-.019 4.132z"/></g></svg>