<svg version="1.1" xmlns="http://www.w3.org/2000/svg" x="0" y="0" width="325.984" height="327.113" viewBox="0 0 325.984 327.113" xml:space="preserve"><path d="M137.905 114.589c3.186-9.235 6.973-17.708 11.827-26.203 4.972-8.699 10.188-17.253 13.845-26.617.47-1.203-1.139-2.524-1.705-1.124-3.764 9.3-9.005 17.849-14.025 26.501-4.775 8.23-9.907 17.138-11.84 26.558-.239 1.16 1.431 2.239 1.898.885zM218.101 89.191c.748.666 1.569-.549.925-1.142-10.036-9.222-19.647-18.893-29.798-27.99-.174-.156-.357.119-.214.267 9.451 9.87 18.873 19.773 29.087 28.865zM209.698 244.8c-.25-7.139-.489-14.277-.551-21.42-.072-8.102.041-16.187.253-24.284.207-7.813.966-16.808-1.626-24.313-.174-.503-.759-.366-.774.146-.225 8.046.603 16.135.378 24.217-.237 8.568-.388 17.119-.319 25.691.058 7.428.294 14.866.594 22.29.223 5.501.256 12.917 3.351 17.698.666 1.03 1.987.231 1.686-.873-1.757-6.433-2.756-12.445-2.992-19.152zM130.656 177.155c.692.345 1.059-.7.512-1.091-4.466-3.19-8.116-7.628-13.006-10.18-.292-.152-.456.305-.218.469 4.565 3.143 7.719 8.311 12.712 10.802zM132.877 188.458c-2.642-2.794-6.264-4.9-9.581-6.792-.439-.25-.705.479-.335.718 3.238 2.101 6.081 4.968 9.454 6.815.454.248.767-.416.462-.741zM124.199 191.677c-1.046-.518-1.709 1.17-.788 1.674 3.889 2.128 6.997 5.63 11.062 7.383.716.31 1.092-.926.63-1.349-3.227-2.956-6.975-5.764-10.904-7.708zM111.588 164.05c-17.739-.187-35.442-1.26-53.184-1.373-17.625-.112-35.235-.972-52.734-3.109-1.125-.138-1.288 2.071-.204 2.237 17.057 2.613 34.312 3.445 51.549 3.637 18.211.203 36.435 1.487 54.641 1.391 1.588-.007 1.517-2.766-.068-2.783z"/><path d="M320.056 171.846c-2.317.032-4.539-.95-6.758-1.503-2.611-.651-5.513-.581-8.186-.756-6.021-.392-12.039-.424-18.068-.485-6.159-.062-12.311-.458-18.467-.608-5.778-.144-11.872 1.09-17.547-.125.365-9.581.761-19.16.583-28.753-.145-7.818-.409-15.682-1.003-23.479-.403-5.294.498-11.023-1.614-15.99.792-.058 1.551-1.12 1.04-2.092-5.865-11.168-16.812-18.964-26.696-26.335-4.858-3.623-10.004-6.642-15.209-9.735-2.574-1.529-5.086-3.15-7.501-4.923-2.014-1.479-3.779-3.319-5.766-4.83.004-.062.022-.117.017-.186-.49-5.594-.265-12.146-2.192-17.488l.495-.138c.431-.122.676-.449.771-.832.437.162.929.059 1.168-.543 1.979-4.976 1.23-10.736-.225-15.739-.216-.746-.836-.706-1.177-.305a4.03 4.03 0 0 0 .081-.419c.718-5.693-14.02-4.272-16.946-4.216-3.759.071-7.522.032-11.273.335-3.228.261-7.937.621-9.658 3.83-.319.593-.158 1.204.196 1.601a.973.973 0 0 0-.073.459c.44 4.77-1.652 9.88-.049 14.532.089.261.226.43.375.56.044.302.188.587.47.773.103.067.208.127.312.193-.167.338-.197.751.025 1.088 2.594 3.929 2.015 10.578 1.021 15.243-.283-.004-.551.144-.692.555-4.325 12.608-14.76 21.421-22.449 31.91-8.414 11.479-18.869 21.13-27.849 32.101-.479-.886-1.6-.266-1.44.761 2.042 13.217 5.066 26.271 7.04 39.517 2.04 13.69 3.729 27.429 5.684 41.131 1.676 11.736 3.868 23.351 4.997 35.155.833 8.711 1.551 18.705 6.732 26.096l.014.016c2.402 4.782 6.131 8.925 9.507 13.021 4.092 4.966 8.411 9.729 13.086 14.15 4.308 4.073 9.087 7.321 13.876 10.771 4.601 3.315 8.776 7.048 14.056 9.284 10.771 4.561 23.047-4.445 31.649-9.979 11.101-7.139 20.874-16.06 32.157-22.956 1.299-.793.2-3.084-1.249-2.292-.298.162-.59.335-.885.501-.004-.033-.001-.065-.006-.099-.943-6.373 2.641-13.492 4.192-19.594 1.812-7.129 2.986-14.457 3.722-21.772 1.455-14.511.025-29.104.193-43.645.059-5.072.229-10.143.419-15.211 4.228 1.695 8.995.662 13.473.674 6.606.021 13.207.494 19.808.728 6.521.232 13.037.161 19.557.52 3.31.181 6.79.23 10.013 1.039 2.118.532 4.097 1.418 6.317 1.242 1.538-.12 1.488-2.779-.068-2.758zM193.498 17.67c.002.043-.008.083-.001.128.723 4.729 1.036 9.425-.253 14.063a1.06 1.06 0 0 0-.74-.042c-10.406 2.914-24.457 6.263-34.552.727-.006-.037.002-.069-.006-.107-.981-4.508.448-9.044-.023-13.588 4.587 3.519 13.34 3.294 18.393 3.322 3.626.019 15.075.237 17.182-4.503zm-25.115-2.342c2.446-.131 4.898-.083 7.348-.146 2.865-.074 5.73-.109 8.596-.005 1.555.057 3.107.184 4.641.442.555.093 1.094.241 1.632.403.897.271.983.129.557.535-3.697 3.509-11.928 2.961-16.571 2.892-3.315-.05-6.64-.336-9.904-.924-1.662-.299-4.024-.672-5.669-1.651 2.331-1.58 7.183-1.429 9.37-1.546zm-31.005 69.154c7.198-9.849 18.211-18.707 21.513-30.887.46.049.95-.191 1.164-.87 1.382-4.383 2.036-12.027-.315-16.691 9.33 4.149 21.727 1.587 31.344-1.032.452 5.708.489 11.866 1.797 17.414.128.542.508.782.903.803 1.91 3.776 6.047 6.418 9.413 8.68 5.125 3.444 10.653 6.239 15.73 9.755 10.33 7.153 22.238 15.626 28.514 26.832-.437.221-.749.897-.512 1.501 1.271 3.222 1.302 6.64 1.267 10.049-.037 3.542.255 7.032.449 10.566.349 6.313.547 12.661.652 18.99a1.106 1.106 0 0 0-.812.09 1.403 1.403 0 0 0-.163-.674c-1.735-3.24-2.984-6.915-5.223-9.857-2.695-3.547-6.444-5.801-10.338-7.853-9.288-4.896-19.396-8.898-29.227-12.558-9.577-3.566-19.503-6.465-29.787-5.012-2.434.344-4.807.928-7.129 1.682a372.276 372.276 0 0 1 1.602-9.491c2.026-11.088 3.891-22.392 3.463-33.701-.008-.244-.308-.229-.319.008-.617 11.713-2.806 23.095-5.095 34.572-.616 3.096-1.274 6.236-1.896 9.401-5.778 2.17-11.243 5.31-16.495 8.426-8.598 5.103-16.973 10.716-24.83 16.9-1.037.817-7.198 5.611-10.049 9.689-1.224-7.781-2.691-15.556-4.916-23.004.103-.061.207-.134.309-.238 10.262-10.443 20.347-21.666 28.986-33.49zm102.048 68.465c-5.821 2.288-11.551 4.043-17.182 6.86-7.979 3.989-15.773 8.319-24.191 11.34-8.64 3.101-19.344 5.877-28.22 2.681-7.43-2.678-14.355-6.745-21.597-9.891a626.274 626.274 0 0 1-10.895-4.839c-5.026-2.298-10.026-4.668-14.888-7.3-.912-.494-7.507-3.677-8.257-5.339a.915.915 0 0 0-.049-.7 1.024 1.024 0 0 0-.581-.829l-.064-.432c.397-3.727 14.465-13.749 16.085-14.918 6.981-5.04 14.213-9.706 21.643-14.052 4.051-2.369 8.218-4.583 12.565-6.3-1.288 6.985-2.25 14.064-1.998 21.042.05 1.401 1.747 1.287 1.852-.045.593-7.385 1.464-14.633 2.537-21.88 2.843-.981 5.764-1.733 8.783-2.154 9.595-1.338 19.12 1.981 28.012 5.206 9.318 3.379 18.571 7.417 27.501 11.713 3.829 1.841 7.663 4.029 10.451 7.29 2.43 2.843 3.634 6.783 5.402 10.036.433.795 1.13.767 1.614.367.718 6.708-2.568 9.803-8.523 12.144zm7.898 81.143c-.926 6.812-2.292 13.573-4.152 20.19-1.592 5.674-4.015 11.168-3.127 17.152.036.236.107.425.204.571-9.105 5.532-17.142 12.782-25.819 18.919-4.53 3.207-9.344 6.086-14.198 8.774-5.833 3.23-12.354 5.474-18.899 3.14-5.042-1.797-9.267-5.878-13.498-9.013-4.933-3.656-9.841-6.988-14.334-11.228-4.363-4.118-8.348-8.64-12.216-13.218-3.036-3.594-5.805-7.654-9.299-10.859.485-.368.734-1.07.293-1.74-5.318-8.097-5.78-18.524-6.668-27.887-1.042-10.979-3.258-21.81-4.84-32.72-1.916-13.209-3.583-26.453-5.522-39.658-.357-2.436-.706-4.894-1.061-7.362.896.801 1.949 1.472 2.678 1.971 4.772 3.271 10.116 5.775 15.313 8.285 4.64 2.242 9.346 4.35 14.064 6.424 8.145 3.58 15.954 8.031 24.328 11.063 8.6 3.115 19.89-.339 28.181-3.129 9.675-3.254 18.531-8.589 27.678-13.03 6.854-3.328 19.111-5.172 22.92-12.17-.132 13.361-1.106 26.709-1.208 40.072-.118 15.202 1.239 30.316-.818 45.453z"/></svg>