<svg version="1.1" xmlns="http://www.w3.org/2000/svg" x="0" y="0" width="325.984" height="327.113" viewBox="0 0 325.984 327.113" xml:space="preserve"><path d="M189.967 188.043c-.833-.539-2.035-.54-2.99-.469-.597.045-1.415.114-1.96.469-.457-9.308-.815-18.618-.787-27.939.036-11.999 1.338-23.88 2.065-35.842.678-11.164.563-22.299-.422-33.439-.432-4.879.73-13.293-3.559-16.915.337-.381.474-.972.136-1.534-3.819-6.357-8.566-11.962-15.493-14.953-4.323-1.867-9.144-2.557-14.046-2.691a5.75 5.75 0 0 1 .123 2.848c2.984.124 5.955.433 8.894 1.039 7.465 1.542 12.403 6.372 16.592 12.188-4.981-2.335-12.622-.918-17.348-.474-10.869 1.021-22.064.732-32.973.574-9.317-.136-18.484-1.404-27.735-2.377-7.526-.791-16.197-1.88-23.62.477-.021-.396-.221-.787-.641-.941-2.835-1.039-4.808-4.322-6.623-7.031 3.668-.503 7.341-.85 11.016-1.098-.021-.028-.036-.061-.056-.089 1.762-.028 3.532.01 5.265-.162 1.906 2.75 5.883 4.123 8.803 5.156 7.945 2.812 16.551 3.601 24.919 3.96 12.183.523 35.712.568 32.55-17.457-.091-.521-.453-.818-.864-.89-4.315-10.245-19.669-9.062-28.705-8.83-6.027.155-12.023-.479-18.049-.543-4.658-.05-12.783-.217-15.648 4.422a5.084 5.084 0 0 0-.624 1.431c-.341-.35-.841-.463-1.179.058-1.961 3.015-3.113 6.543-2.307 10.046-2.235-.077-4.579.203-6.739.446-.059.007-.112.023-.166.038-3.452.318-6.898.728-10.335 1.28-1.044.168-1.345 1.381-.713 2.166 2.306 2.866 4.474 7.454 8.162 8.825-.243.25-.312.619-.255.957-.024.014-.046.014-.071.03-4.683 3.153-6.503 8.509-6.965 13.94-.624 7.323-.11 14.814-.296 22.167-.507 20.069.462 40.102.249 60.163-.21 19.881-1.539 39.743-.928 59.631.28 9.095 1.065 18.198 1.705 27.275.538 7.655 1.318 15.464 3.85 22.754a1.16 1.16 0 0 0-.21-.181c-6.668-4.36-10.287-9.517-10.911-17.539-.54-6.954.402-13.944-.084-20.917-1.418-20.329-2.333-40.69-2.885-61.06-.531-19.634-.559-39.274-.65-58.912-.091-19.646 1.311-38.689 8.73-57.084.393-.974-.844-2.039-1.395-.918-8.406 17.095-9.326 36.64-9.411 55.354-.097 21.505.095 43.025.647 64.523.025.95.064 1.899.092 2.849-14.973-4.183-30.777-4.495-46.16-5.951-1.323-.125-1.264 2.233.059 2.367 15.354 1.553 30.652 2.437 45.716 6.016.17.04.324.04.464.011.267 8.895.605 17.786 1.039 26.673.499 10.223 1.54 20.469 1.77 30.697.152 6.783-.795 13.544.287 20.291 1.107 6.909 5.58 12.453 11.698 15.658.54.283.989.098 1.255-.267.02.021.035.044.057.062 9.678 8.312 25.857 7.854 37.834 7.698 7.815-.102 15.626-.609 23.437-.896 9.556-.352 18.769.194 28.249 1.064.108.733.674 1.391 1.52 1.117 6.141-1.99 12.608-3.924 17.641-8.145 5.024-4.213 7.118-10.574 8.139-16.841 1.708-10.482-1.352-21.405-2.252-31.825-1.021-11.822-.886-23.853-1.513-35.714-.088-1.671-.169-3.341-.254-5.012.514.152 1.152-.037 1.688-.039.866-.004 1.636.169 2.463.392 1.211.328 1.618-1.549.708-2.137zM92.996 45.403c4.875-2.336 11.481-1.641 16.71-1.41 4.546.201 9.04.486 13.592.366 7.875-.207 21.92-1.409 25.857 7.337-3.81 2.979-9.766 3.263-14.304 3.609-6.28.479-12.594.6-18.869.018-5.727-.532-11.59-1.551-17.131-3.145-2.836-.815-12.054-3.803-5.855-6.775zm-4.8 3.294c1.567 5.847 18.679 8.116 22.015 8.658 8.211 1.337 16.438 1.241 24.707.662 4.977-.348 10.968-.864 15.189-3.895.386 12.911-19.962 12.377-29.214 12.136-5.963-.156-11.871-.673-17.74-1.765-4.172-.776-8.381-1.856-12.21-3.719-5.287-2.568-5.248-7.445-2.747-12.077zm98.922 205.117c.376 7.824-.903 16.49-6.53 22.354-4.389 4.574-11.218 6.461-17.141 8.323-.13-.308-.351-.563-.689-.651-8.047-2.094-17.066-1.63-25.302-1.432-8.296.199-16.579.749-24.872 1.003-6.628.202-13.271.075-19.87-.604-6.077-.626-12.985-1.769-18.111-5.392a1.214 1.214 0 0 0-.052-.722c-2.66-7.306-3.409-15.092-3.982-22.796-.639-8.598-1.315-17.222-1.662-25.836-.76-18.892.377-37.806.742-56.692.36-18.633-.624-37.26-.441-55.897.075-7.634.427-15.251.226-22.884-.194-7.409.035-14.986 5.968-20.254.226-.201.309-.501.301-.795.018-.003.031.003.049-.002 7.713-1.953 15.822-1.259 23.65-.496 8.676.845 17.272 2.148 25.994 2.451 10.695.372 21.671.437 32.355-.175 7.317-.418 15.512-2.521 22.26 1.256.456.256.847.141 1.112-.136 2.291 2.871 2.491 6.737 2.672 10.278.19 3.741.33 7.468.573 11.208.677 10.398.301 20.842-.401 31.228-.712 10.537-1.834 20.992-1.972 31.563-.146 11.101.381 22.202.943 33.284.535 10.551 1.134 21.097 1.377 31.659.234 10.143 2.318 20.047 2.803 30.157z"/><path d="M315.959 193.209c-14.884-1.089-29.637-3.41-44.494-4.771-.493-.045-.775.27-.869.675-.237-1.39-.494-2.776-.79-4.157.385-.537.378-1.492-.1-1.926.42-.494.578-1.343.075-1.933-3.004-3.522-5.752-7.335-9.998-9.358-.235-.35-.635-.568-1.184-.451-.342.073-.729-.065-1.047-.168a.835.835 0 0 0-.763.099c-1.453-.159-2.959-.117-4.519-.072-2.065.06-4.119.166-6.186.115-.891-.021-1.612-.176-2.369-.183a36.41 36.41 0 0 0-.229-3.723c-.044-.373-.004-1.525-.294-2.173.006-.113.013-.227.009-.345-.103-3.306-4.463-4.439-6.978-4.97-4.436-.934-9.304-1.536-13.848-.888-.977-.033-1.976.005-3.057.211-2.759.524-5.434 1.147-8.031 2.232-1.283.536-4.54 2.378-5.204 4.362a.761.761 0 0 0-.259.474c-.152 1.285-.424 3.332-.174 5.033-.745-.074-1.502-.112-2.229-.174-.652-.056-1.604-.136-2.289.159-3.309-.117-6.609-.383-9.887-.934-1.307-.22-1.795 1.617-.771 2.304.308.207.618.355.935.487.906 2.509 2.22 4.651 3.896 6.739 1.968 2.452 3.946 5.022 6.014 7.398 2.169 11.554 1.603 23.366 1.232 35.078-.381 12.076.944 23.994 1.233 36.022-3.311-1.253-6.391-3.351-9.519-4.947.189-.2.31-.499.3-.896-.336-13.24-1.251-26.47-1.577-39.716-.164-6.663-.257-13.326-.37-19.989-.103-6.068.233-12.384-.819-18.378-.064-.365-.564-.334-.626.016-1.057 5.999-.654 12.345-.634 18.413.022 6.664.144 13.329.29 19.991.29 13.204.388 26.558 1.582 39.716.038.417.219.712.456.902-.261.407-.246 1.054.227 1.4 1.58 1.161 3.223 2.166 4.931 3.15 1.764 1.017 3.778 2.368 5.813 2.99.002.187.01.372.011.559.004.568.279.921.63 1.092.059.61.428 1.187 1.039 1.081 21.152-3.668 43.038-1.995 63.861-7.662-.013.042-.022.084-.035.126-.493 1.594 1.763 2.345 2.289.67 3.555-11.323 1.759-23.575 1.377-35.209-.347-10.52-.572-21.121-2.248-31.522.161.268.406.477.754.516 14.843 1.671 29.598 4.167 44.506 5.229 1.512.109 1.449-2.583-.063-2.694zm-108.41-23.753c-.007-.265-.022-.528-.033-.793 2.207 1.312 5.895 1.152 8.099 1.383 4.833.505 9.674.485 14.522.293 2.6-.104 8.51-.106 11.404-2.24 0 .204-.002.407-.012.608-.053 1.131-.161 2.317-.053 3.464-5.965 2.775-13.542 3.101-19.963 2.896-3.633-.115-7.186-.79-10.619-1.96-1.869-.637-3.3-1.407-3.345-3.651zm2.544-4.821c1.767-1.312 4.127-1.892 6.214-2.455 1.312-.354 2.634-.571 3.957-.747a.777.777 0 0 0 .443.129c4.061-.123 7.867-.039 11.918.395.846.091 9.672 1.434 8.227 3.477-1.907 2.695-8.988 2.332-11.899 2.451-6.211.255-12.425.121-18.591-.756-2.005-.285-1.825-1.34-.269-2.494zm-8.069 18.73a.68.68 0 0 0-.66-.194c-2.438-3.299-5.834-6.038-7.955-9.592a.935.935 0 0 0 .322-.319c2.536.359 5.082.559 7.634.663.042.027.078.062.124.083.481.222 1.194.196 1.723.242.851.074 1.745-.068 2.627-.179.32.021.636.021.935-.03.063-.011.115-.046.175-.067.03-.001.062-.006.091-.007 2.539 2.144 7.594 2.817 10.498 3.252 7.775 1.162 18.118.763 25.289-2.828.162-.081.294-.193.399-.325.185-.151.325-.37.396-.645 5.599.675 11.856-.743 16.918 1.724 2.868 1.882 5.046 4.76 7.354 7.506-5.847-.686-11.747-.488-17.621-.289-3.542.12-7.055.113-10.568.038-4.237.332-8.518.297-12.755.226-4.194-.07-9.31.098-13.615-.859-3.721-.05-8.024-.068-11.068 1.428a.88.88 0 0 0-.243.172zm68.112 69.866a1.13 1.13 0 0 0-.484.033c-20.695 5.887-42.504 4.051-63.526 7.975-.117-13.474-1.71-26.778-1.321-40.284.317-11.068.873-22.468-1.557-33.35.163-.349.207-.785.058-1.137a14.215 14.215 0 0 0-.667-1.336 10.71 10.71 0 0 1-.046-.17c3.964.365 8.353-.562 12.364-.612 5.216-.064 10.433.086 15.643.31 12.389.533 24.865-.435 37.216.591 2.271 11.572 2.503 23.433 2.855 35.187.323 10.791 1.909 22.146-.535 32.793z"/></svg>