<?xml version="1.0" encoding="utf-8"?>
<!-- Generator: Adobe Illustrator 24.0.1, SVG Export Plug-In . SVG Version: 6.00 Build 0)  -->
<svg version="1.1" id="Layer_1" xmlns="http://www.w3.org/2000/svg" xmlns:xlink="http://www.w3.org/1999/xlink" x="0px" y="0px"
	 viewBox="0 0 453.5 358.3" style="enable-background:new 0 0 453.5 358.3;" xml:space="preserve">
<style type="text/css">
	.st0{fill:#D1D3D4;}
	.st1{fill:#5A5C5E;stroke:#5A5C5E;stroke-miterlimit:10;}
	.st2{fill:#5A5C5E;}
	.st3{fill:#FFFFFF;}
</style>
<ellipse class="st0" cx="230.3" cy="190.5" rx="153.4" ry="156.2"/>
<g>
	<g>
		<path d="M384.3,168.6l0.8-1.2c0.5,0.5,1.1,0.8,1.6,0.8c0.6,0,0.9-0.3,0.9-0.7c0-0.5-0.4-0.6-0.9-0.9l-0.8-0.4
			c-0.7-0.3-1.3-1-1.3-2c0-1.2,1-2.2,2.3-2.2c0.7,0,1.5,0.3,2.1,1l-0.7,1.1c-0.4-0.4-0.8-0.6-1.3-0.6c-0.5,0-0.8,0.2-0.8,0.7
			c0,0.5,0.4,0.6,1,0.9l0.8,0.4c0.8,0.4,1.3,1,1.3,2c0,1.2-0.9,2.3-2.4,2.3C385.8,169.7,384.9,169.3,384.3,168.6z"/>
		<path d="M390.3,167.5v-2.3h-0.7v-1.3l0.8-0.1l0.2-1.5h1.2v1.5h1.2v1.3h-1.2v2.3c0,0.6,0.3,0.9,0.6,0.9c0.2,0,0.3-0.1,0.5-0.1
			l0.2,1.2c-0.3,0.1-0.6,0.2-1.1,0.2C390.8,169.7,390.3,168.8,390.3,167.5z"/>
		<path d="M393.7,168c0-1.2,0.8-1.9,2.8-2.1c0-0.5-0.2-0.8-0.8-0.8c-0.4,0-0.8,0.2-1.3,0.5l-0.5-1.1c0.6-0.4,1.3-0.8,2.1-0.8
			c1.3,0,2,0.8,2,2.6v3.3h-1.2l-0.1-0.6h0c-0.4,0.4-0.9,0.7-1.4,0.7C394.3,169.7,393.7,168.9,393.7,168z M396.5,167.9v-1
			c-1,0.2-1.4,0.5-1.4,0.9c0,0.4,0.2,0.5,0.6,0.5C396,168.4,396.2,168.2,396.5,167.9z"/>
		<path d="M399.4,167.5v-2.3h-0.7v-1.3l0.8-0.1l0.2-1.5h1.2v1.5h1.2v1.3h-1.2v2.3c0,0.6,0.3,0.9,0.6,0.9c0.2,0,0.3-0.1,0.5-0.1
			l0.2,1.2c-0.3,0.1-0.6,0.2-1.1,0.2C399.8,169.7,399.4,168.8,399.4,167.5z"/>
		<path d="M402.7,166.7c0-1.9,1.1-3,2.3-3c1.4,0,2.1,1.2,2.1,2.7c0,0.3,0,0.6-0.1,0.7h-3c0.1,0.8,0.6,1.2,1.3,1.2
			c0.4,0,0.7-0.1,1.1-0.4l0.5,1c-0.5,0.4-1.2,0.6-1.8,0.6C403.8,169.7,402.7,168.6,402.7,166.7z M405.9,166.1c0-0.6-0.2-1.1-0.8-1.1
			c-0.5,0-0.9,0.4-1,1.1H405.9z"/>
		<path d="M410.3,167.5v-2.3h-0.7v-1.3l0.8-0.1l0.2-1.5h1.2v1.5h1.2v1.3h-1.2v2.3c0,0.6,0.3,0.9,0.6,0.9c0.2,0,0.3-0.1,0.5-0.1
			l0.2,1.2c-0.3,0.1-0.6,0.2-1.1,0.2C410.8,169.7,410.3,168.8,410.3,167.5z"/>
		<path d="M413.9,161.5h1.5v2l-0.1,1c0.4-0.4,0.9-0.8,1.5-0.8c1.1,0,1.5,0.9,1.5,2.3v3.6h-1.5v-3.3c0-0.8-0.2-1.1-0.6-1.1
			c-0.4,0-0.6,0.2-0.9,0.6v3.9h-1.5V161.5z"/>
		<path d="M419.3,166.7c0-1.9,1.1-3,2.3-3c1.4,0,2.1,1.2,2.1,2.7c0,0.3,0,0.6-0.1,0.7h-3c0.1,0.8,0.6,1.2,1.3,1.2
			c0.4,0,0.7-0.1,1.1-0.4l0.5,1c-0.5,0.4-1.2,0.6-1.8,0.6C420.4,169.7,419.3,168.6,419.3,166.7z M422.5,166.1c0-0.6-0.2-1.1-0.8-1.1
			c-0.5,0-0.9,0.4-1,1.1H422.5z"/>
		<path d="M384.3,180.5c0-1.9,1.2-3,2.4-3s2.4,1.1,2.4,3c0,1.9-1.2,3-2.4,3S384.3,182.4,384.3,180.5z M387.6,180.5
			c0-1-0.3-1.6-0.9-1.6c-0.6,0-0.9,0.6-0.9,1.6s0.3,1.6,0.9,1.6C387.3,182.2,387.6,181.5,387.6,180.5z"/>
		<path d="M390.1,177.7h1.2l0.1,0.6h0c0.4-0.4,0.9-0.7,1.4-0.7c1.2,0,1.9,1.1,1.9,2.9c0,2-1,3.1-2.1,3.1c-0.4,0-0.8-0.2-1.2-0.6
			l0,0.9v1.7h-1.5V177.7z M393.3,180.5c0-1-0.3-1.5-0.9-1.5c-0.3,0-0.6,0.2-0.8,0.5v2.3c0.3,0.3,0.5,0.4,0.8,0.4
			C392.9,182.1,393.3,181.6,393.3,180.5z"/>
		<path d="M396,181.3V179h-0.7v-1.3l0.8-0.1l0.2-1.5h1.2v1.5h1.2v1.3h-1.2v2.3c0,0.6,0.3,0.9,0.6,0.9c0.2,0,0.3-0.1,0.5-0.1l0.2,1.2
			c-0.3,0.1-0.6,0.2-1.1,0.2C396.5,183.5,396,182.6,396,181.3z"/>
		<path d="M399.5,175.9c0-0.5,0.4-0.9,0.8-0.9c0.5,0,0.8,0.4,0.8,0.9c0,0.5-0.4,0.9-0.8,0.9C399.8,176.8,399.5,176.5,399.5,175.9z
			 M399.6,177.7h1.5v5.7h-1.5V177.7z"/>
		<path d="M402.1,180.5c0-1.9,1.2-3,2.4-3c1.2,0,2.4,1.1,2.4,3c0,1.9-1.2,3-2.4,3C403.2,183.5,402.1,182.4,402.1,180.5z
			 M405.4,180.5c0-1-0.3-1.6-0.9-1.6c-0.6,0-0.9,0.6-0.9,1.6s0.3,1.6,0.9,1.6C405.1,182.2,405.4,181.5,405.4,180.5z"/>
		<path d="M407.9,177.7h1.2l0.1,0.7h0c0.4-0.5,0.9-0.9,1.6-0.9c1.1,0,1.5,0.9,1.5,2.3v3.6h-1.5v-3.3c0-0.8-0.2-1.1-0.6-1.1
			c-0.4,0-0.6,0.2-0.9,0.6v3.9h-1.5V177.7z"/>
		<path d="M413.1,182.7l0.7-1.1c0.4,0.4,0.9,0.6,1.3,0.6c0.4,0,0.6-0.2,0.6-0.5c0-0.4-0.5-0.5-1-0.8c-0.6-0.3-1.3-0.7-1.3-1.7
			c0-1.1,0.7-1.8,1.9-1.8c0.8,0,1.3,0.4,1.7,0.7l-0.7,1c-0.4-0.3-0.7-0.5-1-0.5c-0.4,0-0.6,0.2-0.6,0.5c0,0.4,0.5,0.5,1,0.7
			c0.6,0.3,1.3,0.7,1.3,1.7c0,1-0.7,1.8-2,1.8C414.4,183.5,413.6,183.2,413.1,182.7z"/>
	</g>
</g>
<g>
	<g>
		<path d="M354.2,294.2h1.8l2,7.5h-1.6l-0.8-3.8c-0.2-0.8-0.4-1.6-0.5-2.4h0c-0.2,0.8-0.3,1.7-0.5,2.4l-0.9,3.8h-1.5L354.2,294.2z
			 M353.5,298.6h3.1v1.3h-3.1V298.6z"/>
		<path d="M358.6,296h1.2l0.1,0.6h0c0.4-0.4,0.9-0.7,1.4-0.7c1.2,0,1.9,1.1,1.9,2.9c0,2-1,3.1-2.1,3.1c-0.4,0-0.8-0.2-1.2-0.6l0,0.9
			v1.7h-1.5V296z M361.8,298.7c0-1-0.3-1.5-0.9-1.5c-0.3,0-0.6,0.2-0.8,0.5v2.3c0.3,0.3,0.5,0.4,0.8,0.4
			C361.4,300.4,361.8,299.9,361.8,298.7z"/>
		<path d="M364.3,296h1.2l0.1,0.6h0c0.4-0.4,0.9-0.7,1.4-0.7c1.2,0,1.9,1.1,1.9,2.9c0,2-1,3.1-2.1,3.1c-0.4,0-0.8-0.2-1.2-0.6l0,0.9
			v1.7h-1.5V296z M367.5,298.7c0-1-0.3-1.5-0.9-1.5c-0.3,0-0.6,0.2-0.8,0.5v2.3c0.3,0.3,0.5,0.4,0.8,0.4
			C367.1,300.4,367.5,299.9,367.5,298.7z"/>
		<path d="M370,299.9v-6.3h1.5v6.4c0,0.4,0.1,0.5,0.3,0.5c0.1,0,0.1,0,0.2,0l0.2,1.2c-0.2,0.1-0.4,0.1-0.7,0.1
			C370.3,301.8,370,301.1,370,299.9z"/>
		<path d="M372.7,303.8l0.3-1.3c0.1,0,0.2,0.1,0.3,0.1c0.5,0,0.7-0.3,0.9-0.8l0.1-0.3l-1.9-5.6h1.5l0.7,2.5c0.1,0.5,0.3,1.1,0.4,1.6
			h0c0.1-0.5,0.2-1.1,0.3-1.6l0.6-2.5h1.4l-1.7,5.8c-0.5,1.4-1,2.2-2.2,2.2C373.1,303.9,372.9,303.9,372.7,303.8z"/>
		<path d="M379.7,298.8c0-1.9,1.1-3,2.3-3c1.4,0,2.1,1.2,2.1,2.7c0,0.3,0,0.6-0.1,0.7h-3c0.1,0.8,0.6,1.2,1.3,1.2
			c0.4,0,0.7-0.1,1.1-0.4l0.5,1c-0.5,0.4-1.2,0.6-1.8,0.6C380.8,301.8,379.7,300.7,379.7,298.8z M382.9,298.2c0-0.6-0.2-1.1-0.8-1.1
			c-0.5,0-0.9,0.4-1,1.1H382.9z"/>
		<path d="M385.4,299.6v-2.3h-0.7V296l0.8-0.1l0.2-1.5h1.2v1.5h1.2v1.3h-1.2v2.3c0,0.6,0.3,0.9,0.6,0.9c0.2,0,0.3-0.1,0.5-0.1
			l0.2,1.2c-0.3,0.1-0.6,0.2-1.1,0.2C385.9,301.8,385.4,300.9,385.4,299.6z"/>
		<path d="M389,293.6h1.5v2l-0.1,1c0.4-0.4,0.9-0.8,1.5-0.8c1.1,0,1.5,0.9,1.5,2.3v3.6H392v-3.3c0-0.8-0.2-1.1-0.6-1.1
			c-0.4,0-0.6,0.2-0.9,0.6v3.9H389V293.6z"/>
		<path d="M394.5,294.2c0-0.5,0.4-0.9,0.8-0.9c0.5,0,0.8,0.4,0.8,0.9c0,0.5-0.4,0.9-0.8,0.9C394.9,295.1,394.5,294.7,394.5,294.2z
			 M394.7,296h1.5v5.7h-1.5V296z"/>
		<path d="M397.1,298.8c0-1.9,1.2-3,2.6-3c0.6,0,1.1,0.3,1.4,0.6l-0.7,1.1c-0.2-0.2-0.4-0.3-0.7-0.3c-0.7,0-1.2,0.6-1.2,1.6
			s0.5,1.6,1.1,1.6c0.3,0,0.6-0.2,0.9-0.4l0.6,1.1c-0.5,0.5-1.1,0.7-1.6,0.7C398.2,301.8,397.1,300.7,397.1,298.8z"/>
		<path d="M401.8,300.1c0-1.2,0.8-1.9,2.8-2.1c0-0.5-0.2-0.8-0.8-0.8c-0.4,0-0.8,0.2-1.3,0.5l-0.5-1.1c0.6-0.4,1.3-0.8,2.1-0.8
			c1.3,0,2,0.8,2,2.6v3.3h-1.2l-0.1-0.6h0c-0.4,0.4-0.9,0.7-1.4,0.7C402.4,301.8,401.8,301.1,401.8,300.1z M404.6,300v-1
			c-1,0.2-1.4,0.5-1.4,0.9c0,0.4,0.2,0.5,0.6,0.5C404.1,300.5,404.3,300.3,404.6,300z"/>
		<path d="M407.3,299.9v-6.3h1.5v6.4c0,0.4,0.1,0.5,0.3,0.5c0.1,0,0.1,0,0.2,0l0.2,1.2c-0.2,0.1-0.4,0.1-0.7,0.1
			C407.6,301.8,407.3,301.1,407.3,299.9z"/>
		<path d="M352.9,309.8h1.2l0.1,0.6h0c0.4-0.4,0.9-0.7,1.4-0.7c1.2,0,1.9,1.1,1.9,2.9c0,2-1,3.1-2.1,3.1c-0.4,0-0.8-0.2-1.2-0.6
			l0,0.9v1.7h-1.5V309.8z M356.1,312.6c0-1-0.3-1.5-0.9-1.5c-0.3,0-0.6,0.2-0.8,0.5v2.3c0.3,0.3,0.5,0.4,0.8,0.4
			C355.7,314.3,356.1,313.8,356.1,312.6z"/>
		<path d="M358.6,309.8h1.2l0.1,1h0c0.4-0.8,0.9-1.1,1.4-1.1c0.3,0,0.4,0,0.6,0.1l-0.2,1.5c-0.2-0.1-0.3-0.1-0.5-0.1
			c-0.4,0-0.8,0.3-1.1,1.1v3.3h-1.5V309.8z"/>
		<path d="M362.4,308.1c0-0.5,0.4-0.9,0.8-0.9c0.5,0,0.8,0.4,0.8,0.9c0,0.5-0.4,0.9-0.8,0.9C362.8,309,362.4,308.6,362.4,308.1z
			 M362.6,309.8h1.5v5.7h-1.5V309.8z"/>
		<path d="M365.3,309.8h1.2l0.1,0.7h0c0.4-0.5,0.9-0.9,1.6-0.9c1.1,0,1.5,0.9,1.5,2.3v3.6h-1.5v-3.3c0-0.8-0.2-1.1-0.6-1.1
			c-0.4,0-0.6,0.2-0.9,0.6v3.9h-1.5V309.8z"/>
		<path d="M370.7,312.7c0-1.9,1.2-3,2.6-3c0.6,0,1.1,0.3,1.4,0.6l-0.7,1.1c-0.2-0.2-0.4-0.3-0.7-0.3c-0.7,0-1.2,0.6-1.2,1.6
			s0.5,1.6,1.1,1.6c0.3,0,0.6-0.2,0.9-0.4l0.6,1.1c-0.5,0.5-1.1,0.7-1.6,0.7C371.8,315.7,370.7,314.6,370.7,312.7z"/>
		<path d="M375.5,308.1c0-0.5,0.4-0.9,0.8-0.9c0.5,0,0.8,0.4,0.8,0.9c0,0.5-0.4,0.9-0.8,0.9C375.9,309,375.5,308.6,375.5,308.1z
			 M375.6,309.8h1.5v5.7h-1.5V309.8z"/>
		<path d="M378.4,309.8h1.2l0.1,0.6h0c0.4-0.4,0.9-0.7,1.4-0.7c1.2,0,1.9,1.1,1.9,2.9c0,2-1,3.1-2.1,3.1c-0.4,0-0.8-0.2-1.2-0.6
			l0,0.9v1.7h-1.5V309.8z M381.6,312.6c0-1-0.3-1.5-0.9-1.5c-0.3,0-0.6,0.2-0.8,0.5v2.3c0.3,0.3,0.5,0.4,0.8,0.4
			C381.1,314.3,381.6,313.8,381.6,312.6z"/>
		<path d="M384.1,313.7v-6.3h1.5v6.4c0,0.4,0.1,0.5,0.3,0.5c0.1,0,0.1,0,0.2,0l0.2,1.2c-0.2,0.1-0.4,0.1-0.7,0.1
			C384.4,315.7,384.1,314.9,384.1,313.7z"/>
		<path d="M386.6,312.7c0-1.9,1.1-3,2.3-3c1.4,0,2.1,1.2,2.1,2.7c0,0.3,0,0.6-0.1,0.7h-3c0.1,0.8,0.6,1.2,1.3,1.2
			c0.4,0,0.7-0.1,1.1-0.4l0.5,1c-0.5,0.4-1.2,0.6-1.8,0.6C387.7,315.7,386.6,314.6,386.6,312.7z M389.8,312c0-0.6-0.2-1.1-0.8-1.1
			c-0.5,0-0.9,0.4-1,1.1H389.8z"/>
		<path d="M391.6,314.9l0.7-1.1c0.4,0.4,0.9,0.6,1.3,0.6c0.4,0,0.6-0.2,0.6-0.5c0-0.4-0.5-0.5-1-0.8c-0.6-0.3-1.3-0.7-1.3-1.7
			c0-1.1,0.7-1.8,1.9-1.8c0.8,0,1.3,0.4,1.7,0.7l-0.7,1c-0.4-0.3-0.7-0.5-1-0.5c-0.4,0-0.6,0.2-0.6,0.5c0,0.4,0.5,0.5,1,0.7
			c0.6,0.3,1.3,0.7,1.3,1.7c0,1-0.7,1.8-2,1.8C392.9,315.7,392.1,315.3,391.6,314.9z"/>
		<path d="M398.7,313.4v-2.3H398v-1.3l0.8-0.1l0.2-1.5h1.2v1.5h1.2v1.3h-1.2v2.3c0,0.6,0.3,0.9,0.6,0.9c0.2,0,0.3-0.1,0.5-0.1
			l0.2,1.2c-0.3,0.1-0.6,0.2-1.1,0.2C399.2,315.7,398.7,314.8,398.7,313.4z"/>
		<path d="M402,312.7c0-1.9,1.2-3,2.4-3s2.4,1.1,2.4,3c0,1.9-1.2,3-2.4,3S402,314.6,402,312.7z M405.3,312.7c0-1-0.3-1.6-0.9-1.6
			c-0.6,0-0.9,0.6-0.9,1.6s0.3,1.6,0.9,1.6C405,314.3,405.3,313.6,405.3,312.7z"/>
		<path d="M353.1,327.3V325h-0.7v-1.3l0.8-0.1l0.2-1.5h1.2v1.5h1.2v1.3h-1.2v2.3c0,0.6,0.3,0.9,0.6,0.9c0.2,0,0.3-0.1,0.5-0.1
			l0.2,1.2c-0.3,0.1-0.6,0.2-1.1,0.2C353.6,329.5,353.1,328.6,353.1,327.3z"/>
		<path d="M356.7,321.3h1.5v2l-0.1,1c0.4-0.4,0.9-0.8,1.5-0.8c1.1,0,1.5,0.9,1.5,2.3v3.6h-1.5V326c0-0.8-0.2-1.1-0.6-1.1
			c-0.4,0-0.6,0.2-0.9,0.6v3.9h-1.5V321.3z"/>
		<path d="M362.1,326.5c0-1.9,1.1-3,2.3-3c1.4,0,2.1,1.2,2.1,2.7c0,0.3,0,0.6-0.1,0.7h-3c0.1,0.8,0.6,1.2,1.3,1.2
			c0.4,0,0.7-0.1,1.1-0.4l0.5,1c-0.5,0.4-1.2,0.6-1.8,0.6C363.2,329.5,362.1,328.4,362.1,326.5z M365.3,325.9c0-0.6-0.2-1.1-0.8-1.1
			c-0.5,0-0.9,0.4-1,1.1H365.3z"/>
		<path d="M369.2,326.5c0-1.9,1.2-3,2.4-3c1.2,0,2.4,1.1,2.4,3c0,1.9-1.2,3-2.4,3C370.4,329.5,369.2,328.4,369.2,326.5z
			 M372.6,326.5c0-1-0.3-1.6-0.9-1.6c-0.6,0-0.9,0.6-0.9,1.6s0.3,1.6,0.9,1.6C372.3,328.1,372.6,327.5,372.6,326.5z"/>
		<path d="M375.1,323.6h1.2l0.1,0.6h0c0.4-0.4,0.9-0.7,1.4-0.7c1.2,0,1.9,1.1,1.9,2.9c0,2-1,3.1-2.1,3.1c-0.4,0-0.8-0.2-1.2-0.6
			l0,0.9v1.7h-1.5V323.6z M378.2,326.4c0-1-0.3-1.5-0.9-1.5c-0.3,0-0.6,0.2-0.8,0.5v2.3c0.3,0.3,0.5,0.4,0.8,0.4
			C377.8,328.1,378.2,327.6,378.2,326.4z"/>
		<path d="M381,327.3V325h-0.7v-1.3l0.8-0.1l0.2-1.5h1.2v1.5h1.2v1.3h-1.2v2.3c0,0.6,0.3,0.9,0.6,0.9c0.2,0,0.3-0.1,0.5-0.1l0.2,1.2
			c-0.3,0.1-0.6,0.2-1.1,0.2C381.4,329.5,381,328.6,381,327.3z"/>
		<path d="M384.5,321.9c0-0.5,0.4-0.9,0.8-0.9c0.5,0,0.8,0.4,0.8,0.9c0,0.5-0.4,0.9-0.8,0.9C384.8,322.8,384.5,322.4,384.5,321.9z
			 M384.6,323.6h1.5v5.7h-1.5V323.6z"/>
		<path d="M387,326.5c0-1.9,1.2-3,2.4-3s2.4,1.1,2.4,3c0,1.9-1.2,3-2.4,3S387,328.4,387,326.5z M390.3,326.5c0-1-0.3-1.6-0.9-1.6
			c-0.6,0-0.9,0.6-0.9,1.6s0.3,1.6,0.9,1.6C390,328.1,390.3,327.5,390.3,326.5z"/>
		<path d="M392.8,323.6h1.2l0.1,0.7h0c0.4-0.5,0.9-0.9,1.6-0.9c1.1,0,1.5,0.9,1.5,2.3v3.6h-1.5V326c0-0.8-0.2-1.1-0.6-1.1
			c-0.4,0-0.6,0.2-0.9,0.6v3.9h-1.5V323.6z"/>
		<path d="M398.1,328.7l0.7-1.1c0.4,0.4,0.9,0.6,1.3,0.6c0.4,0,0.6-0.2,0.6-0.5c0-0.4-0.5-0.5-1-0.8c-0.6-0.3-1.3-0.7-1.3-1.7
			c0-1.1,0.7-1.8,1.9-1.8c0.8,0,1.3,0.4,1.7,0.7l-0.7,1c-0.4-0.3-0.7-0.5-1-0.5c-0.4,0-0.6,0.2-0.6,0.5c0,0.4,0.5,0.5,1,0.7
			c0.6,0.3,1.3,0.7,1.3,1.7c0,1-0.7,1.8-2,1.8C399.3,329.5,398.6,329.2,398.1,328.7z"/>
	</g>
</g>
<g>
	<g>
		<path d="M100,318.3h1.6l1.1,3.3c0.1,0.4,0.2,0.9,0.4,1.4h0c0.1-0.5,0.2-0.9,0.4-1.4l1-3.3h1.6v7.5h-1.3V323c0-0.7,0.1-1.8,0.2-2.6
			h0l-0.5,1.8l-0.9,2.9h-0.8l-0.9-2.9l-0.5-1.8h0c0.1,0.7,0.2,1.8,0.2,2.6v2.8H100V318.3z"/>
		<path d="M107.3,324.2c0-1.2,0.8-1.9,2.8-2.1c0-0.5-0.2-0.8-0.8-0.8c-0.4,0-0.8,0.2-1.3,0.5l-0.5-1.1c0.6-0.4,1.3-0.8,2.1-0.8
			c1.3,0,2,0.8,2,2.6v3.3h-1.2l-0.1-0.6h0c-0.4,0.4-0.9,0.7-1.4,0.7C107.8,325.9,107.3,325.2,107.3,324.2z M110.1,324.1v-1
			c-1,0.2-1.4,0.5-1.4,0.9c0,0.4,0.2,0.5,0.6,0.5C109.6,324.6,109.8,324.4,110.1,324.1z"/>
		<path d="M112.7,317.7h1.4v4.6h0l1.6-2.3h1.6l-1.7,2.4l1.9,3.4h-1.6l-1.1-2.2l-0.6,0.8v1.4h-1.4V317.7z"/>
		<path d="M117.9,322.9c0-1.9,1.1-3,2.3-3c1.4,0,2.1,1.2,2.1,2.7c0,0.3,0,0.6-0.1,0.7h-3c0.1,0.8,0.6,1.2,1.3,1.2
			c0.4,0,0.7-0.1,1.1-0.4l0.5,1c-0.5,0.4-1.2,0.6-1.8,0.6C119,325.9,117.9,324.8,117.9,322.9z M121.1,322.3c0-0.6-0.2-1.1-0.8-1.1
			c-0.5,0-0.9,0.4-1,1.1H121.1z"/>
		<path d="M125.5,323.7v-2.3h-0.7v-1.3l0.8-0.1l0.2-1.5h1.2v1.5h1.2v1.3H127v2.3c0,0.6,0.3,0.9,0.6,0.9c0.2,0,0.3-0.1,0.5-0.1
			l0.2,1.2c-0.3,0.1-0.6,0.2-1.1,0.2C126,325.9,125.5,325,125.5,323.7z"/>
		<path d="M129.2,317.7h1.5v2l-0.1,1c0.4-0.4,0.9-0.8,1.5-0.8c1.1,0,1.5,0.9,1.5,2.3v3.6h-1.5v-3.3c0-0.8-0.2-1.1-0.6-1.1
			c-0.4,0-0.6,0.2-0.9,0.6v3.9h-1.5V317.7z"/>
		<path d="M134.5,322.9c0-1.9,1.1-3,2.3-3c1.4,0,2.1,1.2,2.1,2.7c0,0.3,0,0.6-0.1,0.7h-3c0.1,0.8,0.6,1.2,1.3,1.2
			c0.4,0,0.7-0.1,1.1-0.4l0.5,1c-0.5,0.4-1.2,0.6-1.8,0.6C135.6,325.9,134.5,324.8,134.5,322.9z M137.7,322.3c0-0.6-0.2-1.1-0.8-1.1
			c-0.5,0-0.9,0.4-1,1.1H137.7z"/>
		<path d="M99.7,336.8c0-1.9,1-3,2-3c0.5,0,0.9,0.2,1.2,0.6l-0.1-0.9v-2h1.5v8.1h-1.2l-0.1-0.6h0c-0.3,0.4-0.8,0.7-1.3,0.7
			C100.5,339.8,99.7,338.6,99.7,336.8z M102.9,337.9v-2.4c-0.3-0.3-0.5-0.4-0.8-0.4c-0.5,0-0.9,0.5-0.9,1.6c0,1.1,0.3,1.6,0.9,1.6
			C102.4,338.4,102.6,338.2,102.9,337.9z"/>
		<path d="M105.3,336.8c0-1.9,1.1-3,2.3-3c1.4,0,2.1,1.2,2.1,2.7c0,0.3,0,0.6-0.1,0.7h-3c0.1,0.8,0.6,1.2,1.3,1.2
			c0.4,0,0.7-0.1,1.1-0.4l0.5,1c-0.5,0.4-1.2,0.6-1.8,0.6C106.4,339.8,105.3,338.7,105.3,336.8z M108.5,336.1c0-0.6-0.2-1.1-0.8-1.1
			c-0.5,0-0.9,0.4-1,1.1H108.5z"/>
		<path d="M110.5,336.8c0-1.9,1.2-3,2.6-3c0.6,0,1.1,0.3,1.4,0.6l-0.7,1.1c-0.2-0.2-0.4-0.3-0.7-0.3c-0.7,0-1.2,0.6-1.2,1.6
			s0.5,1.6,1.1,1.6c0.3,0,0.6-0.2,0.9-0.4l0.6,1.1c-0.5,0.5-1.1,0.7-1.6,0.7C111.6,339.8,110.5,338.7,110.5,336.8z"/>
		<path d="M115.3,332.2c0-0.5,0.4-0.9,0.8-0.9c0.5,0,0.8,0.4,0.8,0.9c0,0.5-0.4,0.9-0.8,0.9C115.7,333.1,115.3,332.7,115.3,332.2z
			 M115.4,333.9h1.5v5.7h-1.5V333.9z"/>
		<path d="M117.7,339l0.7-1.1c0.4,0.4,0.9,0.6,1.3,0.6c0.4,0,0.6-0.2,0.6-0.5c0-0.4-0.5-0.5-1-0.8c-0.6-0.3-1.3-0.7-1.3-1.7
			c0-1.1,0.7-1.8,1.9-1.8c0.8,0,1.3,0.4,1.7,0.7l-0.7,1c-0.4-0.3-0.7-0.5-1-0.5c-0.4,0-0.6,0.2-0.6,0.5c0,0.4,0.5,0.5,1,0.7
			c0.6,0.3,1.3,0.7,1.3,1.7c0,1-0.7,1.8-2,1.8C119,339.8,118.2,339.4,117.7,339z"/>
		<path d="M122.5,332.2c0-0.5,0.4-0.9,0.8-0.9c0.5,0,0.8,0.4,0.8,0.9c0,0.5-0.4,0.9-0.8,0.9C122.8,333.1,122.5,332.7,122.5,332.2z
			 M122.6,333.9h1.5v5.7h-1.5V333.9z"/>
		<path d="M125,336.8c0-1.9,1.2-3,2.4-3s2.4,1.1,2.4,3c0,1.9-1.2,3-2.4,3S125,338.7,125,336.8z M128.3,336.8c0-1-0.3-1.6-0.9-1.6
			s-0.9,0.6-0.9,1.6s0.3,1.6,0.9,1.6S128.3,337.8,128.3,336.8z"/>
		<path d="M130.8,333.9h1.2l0.1,0.7h0c0.4-0.5,0.9-0.9,1.6-0.9c1.1,0,1.5,0.9,1.5,2.3v3.6h-1.5v-3.3c0-0.8-0.2-1.1-0.6-1.1
			c-0.4,0-0.6,0.2-0.9,0.6v3.9h-1.5V333.9z"/>
	</g>
</g>
<g>
	<g>
		<path d="M22.8,162h1.5v7.5h-1.5V162z"/>
		<path d="M25.7,163.8h1.2l0.1,0.7h0c0.4-0.5,0.8-0.9,1.5-0.9c0.7,0,1.1,0.3,1.4,1c0.4-0.5,0.9-1,1.5-1c1.1,0,1.5,0.9,1.5,2.3v3.6
			h-1.5v-3.3c0-0.8-0.2-1.1-0.6-1.1c-0.2,0-0.5,0.2-0.8,0.6v3.9h-1.5v-3.3c0-0.8-0.2-1.1-0.6-1.1c-0.2,0-0.5,0.2-0.8,0.6v3.9h-1.5
			V163.8z"/>
		<path d="M34.2,163.8h1.2l0.1,0.6h0c0.4-0.4,0.9-0.7,1.4-0.7c1.2,0,1.9,1.1,1.9,2.9c0,2-1,3.1-2.1,3.1c-0.4,0-0.8-0.2-1.2-0.6
			l0,0.9v1.7h-1.5V163.8z M37.4,166.6c0-1-0.3-1.5-0.9-1.5c-0.3,0-0.6,0.2-0.8,0.5v2.3c0.3,0.3,0.5,0.4,0.8,0.4
			C36.9,168.3,37.4,167.8,37.4,166.6z"/>
		<path d="M39.9,167.8v-6.3h1.5v6.4c0,0.4,0.1,0.5,0.3,0.5c0.1,0,0.1,0,0.2,0l0.2,1.2c-0.2,0.1-0.4,0.1-0.7,0.1
			C40.2,169.7,39.9,168.9,39.9,167.8z"/>
		<path d="M42.4,166.7c0-1.9,1.1-3,2.3-3c1.4,0,2.1,1.2,2.1,2.7c0,0.3,0,0.6-0.1,0.7h-3c0.1,0.8,0.6,1.2,1.3,1.2
			c0.4,0,0.7-0.1,1.1-0.4l0.5,1c-0.5,0.4-1.2,0.6-1.8,0.6C43.5,169.7,42.4,168.6,42.4,166.7z M45.6,166.1c0-0.6-0.2-1.1-0.8-1.1
			c-0.5,0-0.9,0.4-1,1.1H45.6z"/>
		<path d="M47.9,163.8h1.2l0.1,0.7h0c0.4-0.5,0.8-0.9,1.5-0.9c0.7,0,1.1,0.3,1.4,1c0.4-0.5,0.9-1,1.5-1c1.1,0,1.5,0.9,1.5,2.3v3.6
			h-1.5v-3.3c0-0.8-0.2-1.1-0.6-1.1c-0.2,0-0.5,0.2-0.8,0.6v3.9h-1.5v-3.3c0-0.8-0.2-1.1-0.6-1.1c-0.2,0-0.5,0.2-0.8,0.6v3.9h-1.5
			V163.8z"/>
		<path d="M56.1,166.7c0-1.9,1.1-3,2.3-3c1.4,0,2.1,1.2,2.1,2.7c0,0.3,0,0.6-0.1,0.7h-3c0.1,0.8,0.6,1.2,1.3,1.2
			c0.4,0,0.7-0.1,1.1-0.4l0.5,1c-0.5,0.4-1.2,0.6-1.8,0.6C57.2,169.7,56.1,168.6,56.1,166.7z M59.3,166.1c0-0.6-0.2-1.1-0.8-1.1
			c-0.5,0-0.9,0.4-1,1.1H59.3z"/>
		<path d="M61.6,163.8h1.2l0.1,0.7h0c0.4-0.5,0.9-0.9,1.6-0.9c1.1,0,1.5,0.9,1.5,2.3v3.6h-1.5v-3.3c0-0.8-0.2-1.1-0.6-1.1
			c-0.4,0-0.6,0.2-0.9,0.6v3.9h-1.5V163.8z"/>
		<path d="M67.5,167.5v-2.3h-0.7v-1.3l0.8-0.1l0.2-1.5h1.2v1.5h1.2v1.3h-1.2v2.3c0,0.6,0.3,0.9,0.6,0.9c0.2,0,0.3-0.1,0.5-0.1
			l0.2,1.2c-0.3,0.1-0.6,0.2-1.1,0.2C67.9,169.7,67.5,168.8,67.5,167.5z"/>
		<path d="M22.9,181.3V179h-0.7v-1.3l0.8-0.1l0.2-1.5h1.2v1.5h1.2v1.3h-1.2v2.3c0,0.6,0.3,0.9,0.6,0.9c0.2,0,0.3-0.1,0.5-0.1
			l0.2,1.2c-0.3,0.1-0.6,0.2-1.1,0.2C23.3,183.5,22.9,182.6,22.9,181.3z"/>
		<path d="M26.5,175.3h1.5v2l-0.1,1c0.4-0.4,0.9-0.8,1.5-0.8c1.1,0,1.5,0.9,1.5,2.3v3.6h-1.5v-3.3c0-0.8-0.2-1.1-0.6-1.1
			c-0.4,0-0.6,0.2-0.9,0.6v3.9h-1.5V175.3z"/>
		<path d="M31.9,180.5c0-1.9,1.1-3,2.3-3c1.4,0,2.1,1.2,2.1,2.7c0,0.3,0,0.6-0.1,0.7h-3c0.1,0.8,0.6,1.2,1.3,1.2
			c0.4,0,0.7-0.1,1.1-0.4l0.5,1c-0.5,0.4-1.2,0.6-1.8,0.6C33,183.5,31.9,182.4,31.9,180.5z M35,179.9c0-0.6-0.2-1.1-0.8-1.1
			c-0.5,0-0.9,0.4-1,1.1H35z"/>
		<path d="M39,180.5c0-1.9,1-3,2-3c0.5,0,0.9,0.2,1.2,0.6l-0.1-0.9v-2h1.5v8.1h-1.2l-0.1-0.6h0c-0.3,0.4-0.8,0.7-1.3,0.7
			C39.8,183.5,39,182.4,39,180.5z M42.2,181.6v-2.4c-0.3-0.3-0.5-0.4-0.8-0.4c-0.5,0-0.9,0.5-0.9,1.6c0,1.1,0.3,1.6,0.9,1.6
			C41.8,182.1,42,182,42.2,181.6z"/>
		<path d="M44.7,180.5c0-1.9,1.1-3,2.3-3c1.4,0,2.1,1.2,2.1,2.7c0,0.3,0,0.6-0.1,0.7h-3c0.1,0.8,0.6,1.2,1.3,1.2
			c0.4,0,0.7-0.1,1.1-0.4l0.5,1c-0.5,0.4-1.2,0.6-1.8,0.6C45.8,183.5,44.7,182.4,44.7,180.5z M47.9,179.9c0-0.6-0.2-1.1-0.8-1.1
			c-0.5,0-0.9,0.4-1,1.1H47.9z"/>
		<path d="M49.9,180.5c0-1.9,1.2-3,2.6-3c0.6,0,1.1,0.3,1.4,0.6l-0.7,1.1c-0.2-0.2-0.4-0.3-0.7-0.3c-0.7,0-1.2,0.6-1.2,1.6
			s0.5,1.6,1.1,1.6c0.3,0,0.6-0.2,0.9-0.4l0.6,1.1c-0.5,0.5-1.1,0.7-1.6,0.7C50.9,183.5,49.9,182.4,49.9,180.5z"/>
		<path d="M54.7,175.9c0-0.5,0.4-0.9,0.8-0.9c0.5,0,0.8,0.4,0.8,0.9c0,0.5-0.4,0.9-0.8,0.9C55,176.8,54.7,176.5,54.7,175.9z
			 M54.8,177.7h1.5v5.7h-1.5V177.7z"/>
		<path d="M57.1,182.7l0.7-1.1c0.4,0.4,0.9,0.6,1.3,0.6c0.4,0,0.6-0.2,0.6-0.5c0-0.4-0.5-0.5-1-0.8c-0.6-0.3-1.3-0.7-1.3-1.7
			c0-1.1,0.7-1.8,1.9-1.8c0.8,0,1.3,0.4,1.7,0.7l-0.7,1c-0.4-0.3-0.7-0.5-1-0.5c-0.4,0-0.6,0.2-0.6,0.5c0,0.4,0.5,0.5,1,0.7
			c0.6,0.3,1.3,0.7,1.3,1.7c0,1-0.7,1.8-2,1.8C58.4,183.5,57.6,183.2,57.1,182.7z"/>
		<path d="M61.8,175.9c0-0.5,0.4-0.9,0.8-0.9c0.5,0,0.8,0.4,0.8,0.9c0,0.5-0.4,0.9-0.8,0.9C62.2,176.8,61.8,176.5,61.8,175.9z
			 M62,177.7h1.5v5.7H62V177.7z"/>
		<path d="M64.4,180.5c0-1.9,1.2-3,2.4-3s2.4,1.1,2.4,3c0,1.9-1.2,3-2.4,3S64.4,182.4,64.4,180.5z M67.7,180.5c0-1-0.3-1.6-0.9-1.6
			s-0.9,0.6-0.9,1.6s0.3,1.6,0.9,1.6S67.7,181.5,67.7,180.5z"/>
		<path d="M70.2,177.7h1.2l0.1,0.7h0c0.4-0.5,0.9-0.9,1.6-0.9c1.1,0,1.5,0.9,1.5,2.3v3.6h-1.5v-3.3c0-0.8-0.2-1.1-0.6-1.1
			c-0.4,0-0.6,0.2-0.9,0.6v3.9h-1.5V177.7z"/>
	</g>
</g>
<g>
	<g>
		<path d="M214.4,11.5c0-2.5,1.4-3.9,3.1-3.9c0.8,0,1.5,0.5,2,1l-0.8,1.1C218.3,9.3,218,9,217.5,9c-0.9,0-1.6,0.9-1.6,2.4
			c0,1.5,0.6,2.4,1.6,2.4c0.5,0,1-0.3,1.3-0.7l0.8,1.1c-0.5,0.7-1.3,1.1-2.1,1.1C215.8,15.3,214.4,14,214.4,11.5z"/>
		<path d="M220.1,12.3c0-1.9,1.2-3,2.4-3s2.4,1.1,2.4,3c0,1.9-1.2,3-2.4,3S220.1,14.2,220.1,12.3z M223.4,12.3c0-1-0.3-1.6-0.9-1.6
			s-0.9,0.6-0.9,1.6c0,1,0.3,1.6,0.9,1.6S223.4,13.3,223.4,12.3z"/>
		<path d="M225.9,13.4V7.1h1.5v6.4c0,0.4,0.1,0.5,0.3,0.5c0.1,0,0.1,0,0.2,0l0.2,1.2c-0.2,0.1-0.4,0.1-0.7,0.1
			C226.3,15.3,225.9,14.6,225.9,13.4z"/>
		<path d="M228.8,13.4V7.1h1.5v6.4c0,0.4,0.1,0.5,0.3,0.5c0.1,0,0.1,0,0.2,0l0.2,1.2c-0.2,0.1-0.4,0.1-0.7,0.1
			C229.1,15.3,228.8,14.6,228.8,13.4z"/>
		<path d="M231.3,12.3c0-1.9,1.1-3,2.3-3c1.4,0,2.1,1.2,2.1,2.7c0,0.3,0,0.6-0.1,0.7h-3c0.1,0.8,0.6,1.2,1.3,1.2
			c0.4,0,0.7-0.1,1.1-0.4l0.5,1c-0.5,0.4-1.2,0.6-1.8,0.6C232.4,15.3,231.3,14.2,231.3,12.3z M234.5,11.7c0-0.6-0.2-1.1-0.8-1.1
			c-0.5,0-0.9,0.4-1,1.1H234.5z"/>
		<path d="M236.5,12.3c0-1.9,1.2-3,2.6-3c0.6,0,1.1,0.3,1.4,0.6l-0.7,1.1c-0.2-0.2-0.4-0.3-0.7-0.3c-0.7,0-1.2,0.6-1.2,1.6
			c0,1,0.5,1.6,1.1,1.6c0.3,0,0.6-0.2,0.9-0.4l0.6,1.1c-0.5,0.5-1.1,0.7-1.6,0.7C237.5,15.3,236.5,14.2,236.5,12.3z"/>
		<path d="M241.6,13.1v-2.3h-0.7V9.5l0.8-0.1l0.2-1.5h1.2v1.5h1.2v1.3h-1.2v2.3c0,0.6,0.3,0.9,0.6,0.9c0.2,0,0.3-0.1,0.5-0.1
			l0.2,1.2c-0.3,0.1-0.6,0.2-1.1,0.2C242.1,15.3,241.6,14.5,241.6,13.1z"/>
		<path d="M204.4,21.6c0-0.5,0.4-0.9,0.8-0.9c0.5,0,0.8,0.4,0.8,0.9c0,0.5-0.4,0.9-0.8,0.9C204.7,22.5,204.4,22.1,204.4,21.6z
			 M204.5,23.3h1.5V29h-1.5V23.3z"/>
		<path d="M207.2,23.3h1.2l0.1,0.7h0c0.4-0.5,0.9-0.9,1.6-0.9c1.1,0,1.5,0.9,1.5,2.3V29h-1.5v-3.3c0-0.8-0.2-1.1-0.6-1.1
			c-0.4,0-0.6,0.2-0.9,0.6V29h-1.5V23.3z"/>
		<path d="M212.5,23.4l0.7-0.1h2.3v1.3h-3V23.4z M213.2,23c0-1.2,0.5-2.2,1.8-2.2c0.4,0,0.8,0.1,1,0.2l-0.3,1.3
			c-0.2-0.1-0.3-0.1-0.5-0.1c-0.4,0-0.6,0.2-0.6,0.8V29h-1.5V23z"/>
		<path d="M216,26.2c0-1.9,1.2-3,2.4-3s2.4,1.1,2.4,3c0,1.9-1.2,3-2.4,3S216,28.1,216,26.2z M219.3,26.2c0-1-0.3-1.6-0.9-1.6
			s-0.9,0.6-0.9,1.6c0,1,0.3,1.6,0.9,1.6S219.3,27.2,219.3,26.2z"/>
		<path d="M221.8,23.3h1.2l0.1,1h0c0.4-0.8,0.9-1.1,1.4-1.1c0.3,0,0.4,0,0.6,0.1l-0.2,1.5c-0.2-0.1-0.3-0.1-0.5-0.1
			c-0.4,0-0.8,0.3-1.1,1.1V29h-1.5V23.3z"/>
		<path d="M225.8,23.3h1.2l0.1,0.7h0c0.4-0.5,0.8-0.9,1.5-0.9c0.7,0,1.1,0.3,1.4,1c0.4-0.5,0.9-1,1.5-1c1.1,0,1.5,0.9,1.5,2.3V29
			h-1.5v-3.3c0-0.8-0.2-1.1-0.6-1.1c-0.2,0-0.5,0.2-0.8,0.6V29h-1.5v-3.3c0-0.8-0.2-1.1-0.6-1.1c-0.2,0-0.5,0.2-0.8,0.6V29h-1.5
			V23.3z"/>
		<path d="M234.1,27.5c0-1.2,0.8-1.9,2.8-2.1c0-0.5-0.2-0.8-0.8-0.8c-0.4,0-0.8,0.2-1.3,0.5l-0.5-1.1c0.6-0.4,1.3-0.8,2.1-0.8
			c1.3,0,2,0.8,2,2.6V29h-1.2l-0.1-0.6h0c-0.4,0.4-0.9,0.7-1.4,0.7C234.7,29.2,234.1,28.4,234.1,27.5z M236.9,27.4v-1
			c-1,0.2-1.4,0.5-1.4,0.9c0,0.4,0.2,0.5,0.6,0.5C236.4,27.9,236.6,27.7,236.9,27.4z"/>
		<path d="M239.8,27v-2.3h-0.7v-1.3l0.8-0.1l0.2-1.5h1.2v1.5h1.2v1.3h-1.2v2.3c0,0.6,0.3,0.9,0.6,0.9c0.2,0,0.3-0.1,0.5-0.1l0.2,1.2
			c-0.3,0.1-0.6,0.2-1.1,0.2C240.2,29.2,239.8,28.3,239.8,27z"/>
		<path d="M243.3,21.6c0-0.5,0.4-0.9,0.8-0.9c0.5,0,0.8,0.4,0.8,0.9c0,0.5-0.4,0.9-0.8,0.9C243.6,22.5,243.3,22.1,243.3,21.6z
			 M243.4,23.3h1.5V29h-1.5V23.3z"/>
		<path d="M245.8,26.2c0-1.9,1.2-3,2.4-3c1.2,0,2.4,1.1,2.4,3c0,1.9-1.2,3-2.4,3C247,29.2,245.8,28.1,245.8,26.2z M249.1,26.2
			c0-1-0.3-1.6-0.9-1.6c-0.6,0-0.9,0.6-0.9,1.6c0,1,0.3,1.6,0.9,1.6C248.8,27.8,249.1,27.2,249.1,26.2z"/>
		<path d="M251.6,23.3h1.2l0.1,0.7h0c0.4-0.5,0.9-0.9,1.6-0.9c1.1,0,1.5,0.9,1.5,2.3V29h-1.5v-3.3c0-0.8-0.2-1.1-0.6-1.1
			c-0.4,0-0.6,0.2-0.9,0.6V29h-1.5V23.3z"/>
	</g>
</g>
<g>
	<g>
		<g>
			<g>
				<path class="st1" d="M169.9,338l3.2-7.7c38.2,16.5,81.8,16,119.7-1.4c14.3-6.6,27.4-15.4,39-26.1l5.5,6.2
					c-12.2,11.3-26,20.5-41.1,27.5c-20.4,9.4-42,14.2-64.1,14.3C210.6,350.9,189.7,346.6,169.9,338z"/>
			</g>
		</g>
		<g>
			<g>
				<g>
					<polygon class="st1" points="169.4,346.9 155.6,326.1 180.1,324.3 					"/>
				</g>
			</g>
		</g>
	</g>
	<g>
		<g>
			<g>
				<path class="st1" d="M378.9,192.2c-0.4,23.4-6,46.8-17.1,68.3l7.3,3.9c11.5-22.3,17.7-46.9,18.1-72
					C384.5,192,381.7,192.1,378.9,192.2z"/>
			</g>
		</g>
		<g>
			<g>
				<g>
					<polygon class="st1" points="377.8,265.5 356.4,277.9 356.6,252.8 					"/>
				</g>
			</g>
		</g>
	</g>
	<g>
		<g>
			<g>
				<path class="st1" d="M119.2,303.4c2-1.7,4.2-3.2,6.4-4.7c0.1-0.1,0.3-0.1,0.4-0.2c-6.1-6.1-11.7-12.7-16.8-19.8
					c-15-21.2-24.4-46-27.2-71.7l-8.2,0.9c3,27.2,12.9,53.4,28.7,75.7C107.7,290.7,113.2,297.4,119.2,303.4z"/>
			</g>
		</g>
		<g>
			<g>
				<g>
					<polygon class="st1" points="66.1,211.9 77.1,189.4 90.7,210.3 					"/>
				</g>
			</g>
		</g>
	</g>
	<g>
		<g>
			<g>
				<path class="st1" d="M264.7,35c-0.6,2.7-1.2,5.5-1.8,8.2c46.4,10.4,85.9,43.1,104.8,88.5l7.6-3.3C355.3,80.5,313.6,46,264.7,35z
					"/>
			</g>
		</g>
		<g>
			<g>
				<g>
					<polygon class="st1" points="381.6,122.3 377.4,147 358.5,131 					"/>
				</g>
			</g>
		</g>
	</g>
	<g>
		<g>
			<g>
				<path class="st1" d="M178.2,39.3c-9.8,3.5-19.3,7.9-28.2,13.3c-21.7,13-40.2,31.3-53.4,53c-9.6,15.6-16.4,33-20.3,51
					c1.7,0.2,3.4,0.3,5.1,0.5c0.5,0,0.9,0.2,1.3,0.3c0.6,0,1.2,0.1,1.8,0.1c8.9-40.7,34.1-76.3,69.7-97.7
					c8.5-5.1,17.5-9.3,26.8-12.6L178.2,39.3z"/>
			</g>
		</g>
		<g>
			<g>
				<g>
					<polygon class="st1" points="172.7,32.4 196.6,38.3 179.7,56.5 					"/>
				</g>
			</g>
		</g>
	</g>
</g>
<rect x="197" y="212.1" class="st2" width="68.6" height="7.8"/>
<rect x="180.3" y="121.6" transform="matrix(3.078966e-11 -1 1 3.078966e-11 104.7305 355.8007)" class="st2" width="100" height="7.8"/>
<g>
	<g>
		<g>
			<polygon class="st2" points="218.3,77.2 231.2,55.8 242.9,77.9 			"/>
		</g>
	</g>
</g>
<path class="st3" d="M269.1,211.9h-75.6c-7.1,0-12.9-5.8-12.9-12.9v-17.1c0-7.1,5.8-12.9,12.9-12.9h75.6c7.1,0,12.9,5.8,12.9,12.9
	V199C282,206.1,276.3,211.9,269.1,211.9z"/>
<g>
	<g>
		<path d="M205.4,179.6h1.5v7.5h-1.5V179.6z"/>
		<path d="M208,184.2c0-1.9,1-3,2-3c0.5,0,0.9,0.2,1.2,0.6l-0.1-0.9v-2h1.5v8.1h-1.2l-0.1-0.6h0c-0.3,0.4-0.8,0.7-1.3,0.7
			C208.8,187.2,208,186.1,208,184.2z M211.2,185.3V183c-0.3-0.3-0.5-0.4-0.8-0.4c-0.5,0-0.9,0.5-0.9,1.6c0,1.1,0.3,1.6,0.9,1.6
			C210.7,185.8,211,185.7,211.2,185.3z"/>
		<path d="M213.7,184.2c0-1.9,1.1-3,2.3-3c1.4,0,2.1,1.2,2.1,2.7c0,0.3,0,0.6-0.1,0.7h-3c0.1,0.8,0.6,1.2,1.3,1.2
			c0.4,0,0.7-0.1,1.1-0.4l0.5,1c-0.5,0.4-1.2,0.6-1.8,0.6C214.8,187.2,213.7,186.1,213.7,184.2z M216.9,183.6c0-0.6-0.2-1.1-0.8-1.1
			c-0.5,0-0.9,0.4-1,1.1H216.9z"/>
		<path d="M219.1,181.4h1.2l0.1,0.7h0c0.4-0.5,0.9-0.9,1.6-0.9c1.1,0,1.5,0.9,1.5,2.3v3.6h-1.5v-3.3c0-0.8-0.2-1.1-0.6-1.1
			c-0.4,0-0.6,0.2-0.9,0.6v3.9h-1.5V181.4z"/>
		<path d="M225,185v-2.3h-0.7v-1.3l0.8-0.1l0.2-1.5h1.2v1.5h1.2v1.3h-1.2v2.3c0,0.6,0.3,0.9,0.6,0.9c0.2,0,0.3-0.1,0.5-0.1l0.2,1.2
			c-0.3,0.1-0.6,0.2-1.1,0.2C225.5,187.2,225,186.3,225,185z"/>
		<path d="M228.5,179.6c0-0.5,0.4-0.9,0.8-0.9c0.5,0,0.8,0.4,0.8,0.9c0,0.5-0.4,0.9-0.8,0.9C228.9,180.5,228.5,180.1,228.5,179.6z
			 M228.6,181.4h1.5v5.7h-1.5V181.4z"/>
		<path d="M231,181.4l0.7-0.1h2.3v1.3h-3V181.4z M231.6,181.1c0-1.2,0.5-2.2,1.8-2.2c0.4,0,0.8,0.1,1,0.2l-0.3,1.3
			c-0.2-0.1-0.3-0.1-0.5-0.1c-0.4,0-0.6,0.2-0.6,0.8v6.1h-1.5V181.1z"/>
		<path d="M234.6,189.2l0.3-1.3c0.1,0,0.2,0.1,0.3,0.1c0.5,0,0.7-0.3,0.9-0.8l0.1-0.3l-1.9-5.6h1.5l0.7,2.5c0.1,0.5,0.3,1.1,0.4,1.6
			h0c0.1-0.5,0.2-1.1,0.3-1.6l0.6-2.5h1.4l-1.7,5.8c-0.5,1.4-1,2.2-2.2,2.2C235,189.3,234.8,189.3,234.6,189.2z"/>
		<path d="M242.2,185v-2.3h-0.7v-1.3l0.8-0.1l0.2-1.5h1.2v1.5h1.2v1.3h-1.2v2.3c0,0.6,0.3,0.9,0.6,0.9c0.2,0,0.3-0.1,0.5-0.1
			l0.2,1.2c-0.3,0.1-0.6,0.2-1.1,0.2C242.6,187.2,242.2,186.3,242.2,185z"/>
		<path d="M245.8,179h1.5v2l-0.1,1c0.4-0.4,0.9-0.8,1.5-0.8c1.1,0,1.5,0.9,1.5,2.3v3.6h-1.5v-3.3c0-0.8-0.2-1.1-0.6-1.1
			c-0.4,0-0.6,0.2-0.9,0.6v3.9h-1.5V179z"/>
		<path d="M251.2,184.2c0-1.9,1.1-3,2.3-3c1.4,0,2.1,1.2,2.1,2.7c0,0.3,0,0.6-0.1,0.7h-3c0.1,0.8,0.6,1.2,1.3,1.2
			c0.4,0,0.7-0.1,1.1-0.4l0.5,1c-0.5,0.4-1.2,0.6-1.8,0.6C252.2,187.2,251.2,186.1,251.2,184.2z M254.3,183.6c0-0.6-0.2-1.1-0.8-1.1
			c-0.5,0-0.9,0.4-1,1.1H254.3z"/>
		<path d="M196.9,198.1c0-1.9,1.1-3,2.3-3c1.4,0,2.1,1.2,2.1,2.7c0,0.3,0,0.6-0.1,0.7h-3c0.1,0.8,0.6,1.2,1.3,1.2
			c0.4,0,0.7-0.1,1.1-0.4l0.5,1c-0.5,0.4-1.2,0.6-1.8,0.6C198,201.1,196.9,200,196.9,198.1z M200.1,197.4c0-0.6-0.2-1.1-0.8-1.1
			c-0.5,0-0.9,0.4-1,1.1H200.1z"/>
		<path d="M202.5,198.8v-2.3h-0.7v-1.3l0.8-0.1l0.2-1.5h1.2v1.5h1.2v1.3H204v2.3c0,0.6,0.3,0.9,0.6,0.9c0.2,0,0.3-0.1,0.5-0.1
			l0.2,1.2c-0.3,0.1-0.6,0.2-1.1,0.2C203,201.1,202.5,200.2,202.5,198.8z"/>
		<path d="M206.1,192.8h1.5v2l-0.1,1c0.4-0.4,0.9-0.8,1.5-0.8c1.1,0,1.5,0.9,1.5,2.3v3.6h-1.5v-3.3c0-0.8-0.2-1.1-0.6-1.1
			c-0.4,0-0.6,0.2-0.9,0.6v3.9h-1.5V192.8z"/>
		<path d="M211.7,193.5c0-0.5,0.4-0.9,0.8-0.9c0.5,0,0.8,0.4,0.8,0.9c0,0.5-0.4,0.9-0.8,0.9C212.1,194.4,211.7,194,211.7,193.5z
			 M211.8,195.2h1.5v5.7h-1.5V195.2z"/>
		<path d="M214.3,198.1c0-1.9,1.2-3,2.6-3c0.6,0,1.1,0.3,1.4,0.6l-0.7,1.1c-0.2-0.2-0.4-0.3-0.7-0.3c-0.7,0-1.2,0.6-1.2,1.6
			s0.5,1.6,1.1,1.6c0.3,0,0.6-0.2,0.9-0.4l0.6,1.1c-0.5,0.5-1.1,0.7-1.6,0.7C215.3,201.1,214.3,200,214.3,198.1z"/>
		<path d="M219,199.3c0-1.2,0.8-1.9,2.8-2.1c0-0.5-0.2-0.8-0.8-0.8c-0.4,0-0.8,0.2-1.3,0.5l-0.5-1.1c0.6-0.4,1.3-0.8,2.1-0.8
			c1.3,0,2,0.8,2,2.6v3.3H222l-0.1-0.6h0c-0.4,0.4-0.9,0.7-1.4,0.7C219.6,201.1,219,200.3,219,199.3z M221.8,199.3v-1
			c-1,0.2-1.4,0.5-1.4,0.9c0,0.4,0.2,0.5,0.6,0.5C221.3,199.7,221.5,199.6,221.8,199.3z"/>
		<path d="M224.5,199.1v-6.3h1.5v6.4c0,0.4,0.1,0.5,0.3,0.5c0.1,0,0.1,0,0.2,0l0.2,1.2c-0.2,0.1-0.4,0.1-0.7,0.1
			C224.8,201.1,224.5,200.3,224.5,199.1z"/>
		<path d="M229.3,195.2h1.2l0.1,0.6h0c0.4-0.4,0.9-0.7,1.4-0.7c1.2,0,1.9,1.1,1.9,2.9c0,2-1,3.1-2.1,3.1c-0.4,0-0.8-0.2-1.2-0.6
			l0,0.9v1.7h-1.5V195.2z M232.5,198c0-1-0.3-1.5-0.9-1.5c-0.3,0-0.6,0.2-0.8,0.5v2.3c0.3,0.3,0.5,0.4,0.8,0.4
			C232.1,199.7,232.5,199.2,232.5,198z"/>
		<path d="M235,195.2h1.2l0.1,1h0c0.4-0.8,0.9-1.1,1.4-1.1c0.3,0,0.4,0,0.6,0.1l-0.2,1.5c-0.2-0.1-0.3-0.1-0.5-0.1
			c-0.4,0-0.8,0.3-1.1,1.1v3.3H235V195.2z"/>
		<path d="M238.7,198.1c0-1.9,1.2-3,2.4-3s2.4,1.1,2.4,3c0,1.9-1.2,3-2.4,3S238.7,200,238.7,198.1z M242,198.1c0-1-0.3-1.6-0.9-1.6
			c-0.6,0-0.9,0.6-0.9,1.6s0.3,1.6,0.9,1.6C241.7,199.7,242,199,242,198.1z"/>
		<path d="M245.8,200.3L245.8,200.3l-0.2,0.6h-1.1v-8.1h1.5v2l0,0.9c0.4-0.4,0.8-0.6,1.3-0.6c1.2,0,1.9,1.1,1.9,2.9
			c0,2-1,3.1-2.1,3.1C246.6,201.1,246.2,200.8,245.8,200.3z M247.6,198c0-1-0.3-1.5-0.9-1.5c-0.3,0-0.6,0.2-0.8,0.5v2.3
			c0.3,0.3,0.5,0.4,0.8,0.4C247.2,199.7,247.6,199.2,247.6,198z"/>
		<path d="M250.2,199.1v-6.3h1.5v6.4c0,0.4,0.1,0.5,0.3,0.5c0.1,0,0.1,0,0.2,0l0.2,1.2c-0.2,0.1-0.4,0.1-0.7,0.1
			C250.5,201.1,250.2,200.3,250.2,199.1z"/>
		<path d="M252.7,198.1c0-1.9,1.1-3,2.3-3c1.4,0,2.1,1.2,2.1,2.7c0,0.3,0,0.6-0.1,0.7h-3c0.1,0.8,0.6,1.2,1.3,1.2
			c0.4,0,0.7-0.1,1.1-0.4l0.5,1c-0.5,0.4-1.2,0.6-1.8,0.6C253.8,201.1,252.7,200,252.7,198.1z M255.9,197.4c0-0.6-0.2-1.1-0.8-1.1
			c-0.5,0-0.9,0.4-1,1.1H255.9z"/>
		<path d="M258.2,195.2h1.2l0.1,0.7h0c0.4-0.5,0.8-0.9,1.5-0.9c0.7,0,1.1,0.3,1.4,1c0.4-0.5,0.9-1,1.5-1c1.1,0,1.5,0.9,1.5,2.3v3.6
			H264v-3.3c0-0.8-0.2-1.1-0.6-1.1c-0.2,0-0.5,0.2-0.8,0.6v3.9h-1.5v-3.3c0-0.8-0.2-1.1-0.6-1.1c-0.2,0-0.5,0.2-0.8,0.6v3.9h-1.5
			V195.2z"/>
	</g>
</g>
</svg>
