<?xml version="1.0" encoding="utf-8"?>
<!-- Generator: Adobe Illustrator 24.0.2, SVG Export Plug-In . SVG Version: 6.00 Build 0)  -->
<svg version="1.1" id="Layer_1" xmlns="http://www.w3.org/2000/svg" xmlns:xlink="http://www.w3.org/1999/xlink" x="0px" y="0px"
	 viewBox="0 0 453.54 399.93" style="enable-background:new 0 0 453.54 399.93;" xml:space="preserve">
<g>
	<g>
		<polyline style="fill:none;stroke:#000000;stroke-miterlimit:10;" points="203.46,355.25 203.46,358.25 200.46,358.25 		"/>
		
			<line style="fill:none;stroke:#000000;stroke-miterlimit:10;stroke-dasharray:6.0936,6.0936;" x1="194.37" y1="358.25" x2="75.54" y2="358.25"/>
		<polyline style="fill:none;stroke:#000000;stroke-miterlimit:10;" points="72.49,358.25 69.49,358.25 69.49,355.25 		"/>
		
			<line style="fill:none;stroke:#000000;stroke-miterlimit:10;stroke-dasharray:5.9735,5.9735;" x1="69.49" y1="349.28" x2="69.49" y2="196.95"/>
		<polyline style="fill:none;stroke:#000000;stroke-miterlimit:10;" points="69.49,193.97 69.49,190.97 72.49,190.97 		"/>
		
			<line style="fill:none;stroke:#000000;stroke-miterlimit:10;stroke-dasharray:6.0936,6.0936;" x1="78.59" y1="190.97" x2="197.41" y2="190.97"/>
		<polyline style="fill:none;stroke:#000000;stroke-miterlimit:10;" points="200.46,190.97 203.46,190.97 203.46,193.97 		"/>
		
			<line style="fill:none;stroke:#000000;stroke-miterlimit:10;stroke-dasharray:5.9735,5.9735;" x1="203.46" y1="199.94" x2="203.46" y2="352.26"/>
	</g>
</g>
<rect x="189.79" y="201.19" style="fill:#FFFFFF;" width="23.45" height="128.29"/>
<ellipse style="fill:#58595B;" cx="84.8" cy="111.87" rx="58.23" ry="38.82"/>
<ellipse style="fill:#58595B;" cx="231.33" cy="49.03" rx="58.23" ry="38.82"/>
<ellipse style="fill:#58595B;" cx="377.86" cy="111.87" rx="58.23" ry="38.82"/>
<g>
	<g>
		<path style="fill:#FFFFFF;" d="M42.59,104.33c0-2.34,1.16-3.69,2.86-3.69s2.86,1.35,2.86,3.69c0,2.34-1.16,3.75-2.86,3.75
			S42.59,106.67,42.59,104.33z M46.85,104.33c0-1.44-0.54-2.29-1.4-2.29s-1.4,0.85-1.4,2.29s0.54,2.35,1.4,2.35
			S46.85,105.77,46.85,104.33z"/>
		<path style="fill:#FFFFFF;" d="M49.57,105.96v-2.21h-0.65v-1.21l0.73-0.06l0.17-1.45h1.17v1.45h1.15v1.27h-1.15v2.19
			c0,0.62,0.25,0.87,0.62,0.87c0.16,0,0.33-0.05,0.46-0.1l0.22,1.17c-0.25,0.09-0.6,0.2-1.06,0.2
			C50.04,108.08,49.57,107.23,49.57,105.96z"/>
		<path style="fill:#FFFFFF;" d="M53.08,100.24h1.42v1.88l-0.06,0.99c0.36-0.37,0.83-0.75,1.48-0.75c1.04,0,1.49,0.84,1.49,2.2v3.39
			h-1.42v-3.18c0-0.79-0.19-1.03-0.6-1.03c-0.36,0-0.57,0.19-0.89,0.53v3.68h-1.42V100.24z"/>
		<path style="fill:#FFFFFF;" d="M58.32,105.22c0-1.77,1.11-2.86,2.26-2.86c1.36,0,2.04,1.13,2.04,2.62c0,0.29-0.03,0.58-0.06,0.71
			H59.7c0.13,0.79,0.6,1.16,1.24,1.16c0.36,0,0.69-0.13,1.04-0.36l0.47,0.98c-0.49,0.39-1.13,0.61-1.7,0.61
			C59.38,108.08,58.32,107.03,58.32,105.22z M61.41,104.62c0-0.6-0.23-1.03-0.8-1.03c-0.45,0-0.84,0.34-0.93,1.03H61.41z"/>
		<path style="fill:#FFFFFF;" d="M63.61,102.49h1.16l0.1,0.95h0.04c0.35-0.73,0.87-1.09,1.36-1.09c0.27,0,0.43,0.04,0.57,0.11
			l-0.24,1.4c-0.17-0.05-0.31-0.09-0.52-0.09c-0.36,0-0.8,0.27-1.06,1.01v3.16h-1.42V102.49z"/>
		<path style="fill:#FFFFFF;" d="M69.39,102.49h1.16l0.1,0.54h0.04c0.38-0.38,0.86-0.67,1.36-0.67c1.16,0,1.87,1.09,1.87,2.77
			c0,1.87-0.98,2.95-2.02,2.95c-0.41,0-0.8-0.21-1.14-0.57l0.05,0.86v1.6h-1.42V102.49z M72.46,105.15c0-0.98-0.27-1.47-0.83-1.47
			c-0.29,0-0.54,0.15-0.82,0.49v2.24c0.26,0.26,0.52,0.35,0.76,0.35C72.07,106.76,72.46,106.28,72.46,105.15z"/>
		<path style="fill:#FFFFFF;" d="M74.93,102.49h1.16l0.1,0.95h0.04c0.35-0.73,0.87-1.09,1.36-1.09c0.27,0,0.43,0.04,0.57,0.11
			l-0.24,1.4c-0.17-0.05-0.31-0.09-0.52-0.09c-0.36,0-0.8,0.27-1.06,1.01v3.16h-1.42V102.49z"/>
		<path style="fill:#FFFFFF;" d="M78.5,105.22c0-1.81,1.12-2.86,2.33-2.86s2.33,1.05,2.33,2.86c0,1.81-1.12,2.86-2.33,2.86
			S78.5,107.03,78.5,105.22z M81.71,105.22c0-0.94-0.29-1.56-0.88-1.56s-0.88,0.61-0.88,1.56c0,0.95,0.29,1.55,0.88,1.55
			S81.71,106.17,81.71,105.22z"/>
		<path style="fill:#FFFFFF;" d="M83.75,102.55l0.72-0.06h2.2v1.27h-2.92V102.55z M84.38,102.21c0-1.15,0.47-2.1,1.76-2.1
			c0.4,0,0.74,0.1,0.96,0.19l-0.26,1.19c-0.16-0.07-0.34-0.12-0.5-0.12c-0.35,0-0.55,0.22-0.55,0.78v5.79h-1.42V102.21z"/>
		<path style="fill:#FFFFFF;" d="M87.16,105.22c0-1.77,1.11-2.86,2.26-2.86c1.36,0,2.04,1.13,2.04,2.62c0,0.29-0.03,0.58-0.06,0.71
			h-2.87c0.13,0.79,0.6,1.16,1.24,1.16c0.36,0,0.69-0.13,1.04-0.36l0.47,0.98c-0.49,0.39-1.13,0.61-1.7,0.61
			C88.21,108.08,87.16,107.03,87.16,105.22z M90.25,104.62c0-0.6-0.23-1.03-0.8-1.03c-0.45,0-0.84,0.34-0.93,1.03H90.25z"/>
		<path style="fill:#FFFFFF;" d="M92.02,107.32l0.64-1.01c0.43,0.37,0.84,0.57,1.24,0.57c0.42,0,0.61-0.18,0.61-0.47
			c0-0.36-0.48-0.52-0.97-0.74c-0.59-0.26-1.27-0.7-1.27-1.61c0-1.02,0.73-1.71,1.83-1.71c0.73,0,1.28,0.34,1.69,0.69l-0.64,0.97
			c-0.34-0.28-0.68-0.47-1.01-0.47c-0.37,0-0.55,0.16-0.55,0.44c0,0.35,0.45,0.48,0.95,0.69c0.61,0.25,1.29,0.64,1.29,1.64
			c0,0.99-0.68,1.76-1.97,1.76C93.23,108.08,92.5,107.77,92.02,107.32z"/>
		<path style="fill:#FFFFFF;" d="M96.3,107.32l0.64-1.01c0.43,0.37,0.84,0.57,1.24,0.57c0.42,0,0.61-0.18,0.61-0.47
			c0-0.36-0.48-0.52-0.97-0.74c-0.59-0.26-1.27-0.7-1.27-1.61c0-1.02,0.73-1.71,1.83-1.71c0.73,0,1.28,0.34,1.69,0.69l-0.64,0.97
			c-0.34-0.28-0.68-0.47-1.01-0.47c-0.37,0-0.55,0.16-0.55,0.44c0,0.35,0.45,0.48,0.95,0.69c0.61,0.25,1.29,0.64,1.29,1.64
			c0,0.99-0.68,1.76-1.97,1.76C97.51,108.08,96.79,107.77,96.3,107.32z"/>
		<path style="fill:#FFFFFF;" d="M100.9,100.85c0-0.5,0.35-0.85,0.82-0.85s0.82,0.35,0.82,0.85c0,0.49-0.35,0.84-0.82,0.84
			S100.9,101.34,100.9,100.85z M101.01,102.49h1.42v5.46h-1.42V102.49z"/>
		<path style="fill:#FFFFFF;" d="M103.4,105.22c0-1.81,1.12-2.86,2.33-2.86s2.33,1.05,2.33,2.86c0,1.81-1.12,2.86-2.33,2.86
			S103.4,107.03,103.4,105.22z M106.61,105.22c0-0.94-0.29-1.56-0.88-1.56s-0.88,0.61-0.88,1.56c0,0.95,0.29,1.55,0.88,1.55
			S106.61,106.17,106.61,105.22z"/>
		<path style="fill:#FFFFFF;" d="M109.04,102.49h1.16l0.1,0.69h0.04c0.4-0.44,0.89-0.82,1.54-0.82c1.04,0,1.49,0.84,1.49,2.2v3.39
			h-1.42v-3.18c0-0.79-0.19-1.03-0.6-1.03c-0.36,0-0.57,0.19-0.89,0.53v3.68h-1.42V102.49z"/>
		<path style="fill:#FFFFFF;" d="M114.35,106.43c0-1.15,0.8-1.77,2.7-2c-0.03-0.48-0.24-0.79-0.76-0.79c-0.4,0-0.8,0.19-1.27,0.49
			l-0.5-1.06c0.61-0.42,1.29-0.72,2.05-0.72c1.23,0,1.9,0.8,1.9,2.47v3.12h-1.16l-0.1-0.56h-0.04c-0.4,0.4-0.86,0.69-1.39,0.69
			C114.9,108.08,114.35,107.35,114.35,106.43z M117.04,106.36v-0.95c-1.01,0.16-1.34,0.48-1.34,0.9c0,0.35,0.21,0.52,0.55,0.52
			C116.58,106.83,116.79,106.65,117.04,106.36z"/>
		<path style="fill:#FFFFFF;" d="M119.66,106.25v-6.01h1.42v6.08c0,0.35,0.14,0.46,0.26,0.46c0.05,0,0.09,0,0.17-0.02l0.17,1.19
			c-0.16,0.08-0.39,0.13-0.71,0.13C119.99,108.08,119.66,107.36,119.66,106.25z"/>
		<path style="fill:#FFFFFF;" d="M122,107.32l0.64-1.01c0.43,0.37,0.84,0.57,1.24,0.57c0.42,0,0.61-0.18,0.61-0.47
			c0-0.36-0.48-0.52-0.97-0.74c-0.59-0.26-1.27-0.7-1.27-1.61c0-1.02,0.73-1.71,1.83-1.71c0.73,0,1.28,0.34,1.69,0.69l-0.64,0.97
			c-0.34-0.28-0.68-0.47-1.01-0.47c-0.37,0-0.55,0.16-0.55,0.44c0,0.35,0.45,0.48,0.95,0.69c0.61,0.25,1.29,0.64,1.29,1.64
			c0,0.99-0.68,1.76-1.97,1.76C123.21,108.08,122.49,107.77,122,107.32z"/>
		<path style="fill:#FFFFFF;" d="M63.03,113.98h1.42v5.81h2.48v1.36h-3.91V113.98z"/>
		<path style="fill:#FFFFFF;" d="M67.69,119.63c0-1.15,0.8-1.77,2.7-2c-0.03-0.48-0.24-0.79-0.76-0.79c-0.4,0-0.8,0.19-1.27,0.49
			l-0.5-1.06c0.61-0.42,1.29-0.72,2.05-0.72c1.23,0,1.9,0.8,1.9,2.47v3.12h-1.16l-0.1-0.56h-0.04c-0.4,0.4-0.86,0.69-1.39,0.69
			C68.25,121.28,67.69,120.55,67.69,119.63z M70.39,119.56v-0.95c-1.01,0.16-1.34,0.48-1.34,0.9c0,0.35,0.21,0.52,0.55,0.52
			C69.93,120.03,70.14,119.85,70.39,119.56z"/>
		<path style="fill:#FFFFFF;" d="M72.86,123.17l0.25-1.23c0.09,0.03,0.22,0.07,0.32,0.07c0.47,0,0.71-0.29,0.84-0.72l0.07-0.28
			l-1.85-5.32h1.43l0.69,2.35c0.14,0.49,0.25,1.01,0.38,1.55h0.04c0.11-0.52,0.21-1.03,0.33-1.55l0.58-2.35h1.36l-1.66,5.52
			c-0.45,1.37-0.97,2.07-2.09,2.07C73.25,123.28,73.06,123.24,72.86,123.17z"/>
		<path style="fill:#FFFFFF;" d="M79.7,118.42c0-1.81,1.17-2.86,2.5-2.86c0.59,0,1.04,0.24,1.4,0.59l-0.67,1.04
			c-0.23-0.22-0.42-0.32-0.65-0.32c-0.68,0-1.12,0.61-1.12,1.56c0,0.95,0.46,1.55,1.07,1.55c0.31,0,0.62-0.18,0.86-0.4l0.56,1.06
			c-0.47,0.47-1.06,0.65-1.58,0.65C80.73,121.28,79.7,120.23,79.7,118.42z"/>
		<path style="fill:#FFFFFF;" d="M84.27,119.63c0-1.15,0.8-1.77,2.7-2c-0.03-0.48-0.24-0.79-0.76-0.79c-0.4,0-0.8,0.19-1.27,0.49
			l-0.5-1.06c0.61-0.42,1.29-0.72,2.05-0.72c1.23,0,1.9,0.8,1.9,2.47v3.12h-1.16l-0.1-0.56h-0.04c-0.4,0.4-0.86,0.69-1.39,0.69
			C84.83,121.28,84.27,120.55,84.27,119.63z M86.97,119.56v-0.95c-1.01,0.16-1.34,0.48-1.34,0.9c0,0.35,0.21,0.52,0.55,0.52
			C86.5,120.03,86.72,119.85,86.97,119.56z"/>
		<path style="fill:#FFFFFF;" d="M89.59,115.69h1.16l0.1,0.95h0.04c0.35-0.73,0.87-1.09,1.36-1.09c0.27,0,0.43,0.04,0.57,0.11
			l-0.24,1.4c-0.17-0.05-0.31-0.09-0.52-0.09c-0.36,0-0.8,0.27-1.06,1.01v3.16h-1.42V115.69z"/>
		<path style="fill:#FFFFFF;" d="M93.15,118.42c0-1.77,1.11-2.86,2.26-2.86c1.36,0,2.04,1.13,2.04,2.62c0,0.29-0.03,0.58-0.06,0.71
			h-2.87c0.13,0.79,0.6,1.16,1.24,1.16c0.36,0,0.69-0.13,1.04-0.36l0.47,0.98c-0.49,0.39-1.13,0.61-1.7,0.61
			C94.21,121.28,93.15,120.23,93.15,118.42z M96.24,117.82c0-0.6-0.23-1.03-0.8-1.03c-0.45,0-0.84,0.34-0.93,1.03H96.24z"/>
		<path style="fill:#FFFFFF;" d="M98.44,115.69h1.16l0.1,0.95h0.04c0.35-0.73,0.87-1.09,1.36-1.09c0.27,0,0.43,0.04,0.57,0.11
			l-0.24,1.4c-0.17-0.05-0.31-0.09-0.52-0.09c-0.36,0-0.8,0.27-1.06,1.01v3.16h-1.42V115.69z"/>
		<path style="fill:#FFFFFF;" d="M101.86,120.52l0.64-1.01c0.43,0.37,0.84,0.57,1.24,0.57c0.42,0,0.61-0.18,0.61-0.47
			c0-0.36-0.48-0.52-0.97-0.74c-0.59-0.26-1.27-0.7-1.27-1.61c0-1.02,0.73-1.71,1.83-1.71c0.73,0,1.28,0.34,1.69,0.69l-0.64,0.97
			c-0.34-0.28-0.68-0.47-1.01-0.47c-0.37,0-0.55,0.16-0.55,0.44c0,0.35,0.45,0.48,0.95,0.69c0.61,0.25,1.29,0.64,1.29,1.64
			c0,0.99-0.68,1.76-1.97,1.76C103.07,121.28,102.35,120.97,101.86,120.52z"/>
		<path style="fill:#FFFFFF;" d="M68.83,133.44l0.82-1.11c0.45,0.44,1.03,0.75,1.55,0.75c0.59,0,0.88-0.27,0.88-0.69
			c0-0.45-0.36-0.6-0.91-0.85l-0.82-0.4c-0.65-0.3-1.27-0.91-1.27-1.95c0-1.19,0.93-2.14,2.24-2.14c0.73,0,1.48,0.33,2.03,0.94
			l-0.72,1.02c-0.41-0.36-0.81-0.56-1.31-0.56c-0.49,0-0.8,0.23-0.8,0.64c0,0.44,0.41,0.6,0.96,0.85l0.8,0.37
			c0.77,0.35,1.25,0.94,1.25,1.95c0,1.19-0.87,2.22-2.37,2.22C70.34,134.48,69.47,134.13,68.83,133.44z"/>
		<path style="fill:#FFFFFF;" d="M74.21,131.62c0-1.81,1.17-2.86,2.5-2.86c0.59,0,1.04,0.24,1.4,0.59l-0.67,1.04
			c-0.23-0.22-0.42-0.32-0.65-0.32c-0.68,0-1.12,0.61-1.12,1.56c0,0.95,0.46,1.55,1.07,1.55c0.31,0,0.62-0.18,0.86-0.4l0.56,1.06
			c-0.47,0.47-1.06,0.65-1.58,0.65C75.24,134.48,74.21,133.43,74.21,131.62z"/>
		<path style="fill:#FFFFFF;" d="M79,126.64h1.42v1.88l-0.06,0.99c0.36-0.37,0.83-0.75,1.48-0.75c1.04,0,1.49,0.84,1.49,2.2v3.39
			H81.9v-3.18c0-0.79-0.19-1.03-0.6-1.03c-0.36,0-0.57,0.19-0.89,0.53v3.68H79V126.64z"/>
		<path style="fill:#FFFFFF;" d="M84.24,131.62c0-1.81,1.12-2.86,2.33-2.86s2.33,1.05,2.33,2.86c0,1.81-1.12,2.86-2.33,2.86
			S84.24,133.43,84.24,131.62z M87.46,131.62c0-0.94-0.29-1.56-0.88-1.56s-0.88,0.61-0.88,1.56c0,0.95,0.29,1.55,0.88,1.55
			S87.46,132.57,87.46,131.62z"/>
		<path style="fill:#FFFFFF;" d="M89.61,131.62c0-1.81,1.12-2.86,2.33-2.86s2.33,1.05,2.33,2.86c0,1.81-1.12,2.86-2.33,2.86
			S89.61,133.43,89.61,131.62z M92.82,131.62c0-0.94-0.29-1.56-0.88-1.56s-0.88,0.61-0.88,1.56c0,0.95,0.29,1.55,0.88,1.55
			S92.82,132.57,92.82,131.62z"/>
		<path style="fill:#FFFFFF;" d="M95.25,132.65v-6.01h1.42v6.08c0,0.35,0.14,0.46,0.26,0.46c0.05,0,0.09,0,0.17-0.02l0.17,1.19
			c-0.16,0.08-0.39,0.13-0.71,0.13C95.58,134.48,95.25,133.76,95.25,132.65z"/>
		<path style="fill:#FFFFFF;" d="M97.59,133.72l0.64-1.01c0.43,0.37,0.84,0.57,1.24,0.57c0.42,0,0.61-0.18,0.61-0.47
			c0-0.36-0.48-0.52-0.97-0.74c-0.59-0.26-1.27-0.7-1.27-1.61c0-1.02,0.73-1.71,1.83-1.71c0.73,0,1.28,0.34,1.69,0.69l-0.64,0.97
			c-0.34-0.28-0.68-0.47-1.01-0.47c-0.37,0-0.55,0.16-0.55,0.44c0,0.35,0.45,0.48,0.95,0.69c0.61,0.25,1.29,0.64,1.29,1.64
			c0,0.99-0.68,1.76-1.97,1.76C98.8,134.48,98.08,134.17,97.59,133.72z"/>
	</g>
</g>
<g>
	<g>
		<path style="fill:#FFFFFF;" d="M220.72,48.47c0-2.38,1.38-3.76,2.97-3.76c0.81,0,1.47,0.44,1.89,0.93l-0.75,1.04
			c-0.32-0.33-0.66-0.57-1.11-0.57c-0.86,0-1.54,0.87-1.54,2.3c0,1.47,0.6,2.33,1.52,2.33c0.52,0,0.92-0.29,1.23-0.67l0.75,1.02
			c-0.52,0.69-1.22,1.05-2.03,1.05C222.05,52.15,220.72,50.89,220.72,48.47z"/>
		<path style="fill:#FFFFFF;" d="M226.52,44.31h1.42v1.88l-0.06,0.99c0.36-0.37,0.83-0.75,1.48-0.75c1.04,0,1.49,0.84,1.49,2.2v3.39
			h-1.42v-3.18c0-0.79-0.18-1.03-0.59-1.03c-0.36,0-0.58,0.19-0.89,0.53v3.68h-1.42V44.31z"/>
		<path style="fill:#FFFFFF;" d="M231.93,44.91c0-0.5,0.35-0.85,0.82-0.85c0.48,0,0.82,0.35,0.82,0.85c0,0.49-0.35,0.84-0.82,0.84
			C232.28,45.76,231.93,45.4,231.93,44.91z M232.04,46.56h1.42v5.46h-1.42V46.56z"/>
		<path style="fill:#FFFFFF;" d="M234.71,50.32v-6.01h1.42v6.08c0,0.35,0.14,0.46,0.26,0.46c0.05,0,0.09,0,0.17-0.02l0.17,1.19
			c-0.16,0.08-0.39,0.13-0.71,0.13C235.04,52.15,234.71,51.42,234.71,50.32z"/>
		<path style="fill:#FFFFFF;" d="M237.23,49.29c0-1.78,0.98-2.86,1.99-2.86c0.53,0,0.85,0.22,1.17,0.57l-0.05-0.83v-1.86h1.42v7.71
			h-1.16l-0.1-0.54h-0.04c-0.34,0.39-0.81,0.67-1.28,0.67C238,52.15,237.23,51.07,237.23,49.29z M240.34,50.33v-2.24
			c-0.25-0.26-0.53-0.34-0.79-0.34c-0.46,0-0.86,0.48-0.86,1.52c0,1.07,0.33,1.55,0.88,1.55C239.86,50.82,240.1,50.69,240.34,50.33z
			"/>
	</g>
</g>
<g>
	<g>
		<path style="fill:#FFFFFF;" d="M363.04,101.7h3.97v1.36h-2.55v1.66h2.18v1.36h-2.18v2.79h-1.42V101.7z"/>
		<path style="fill:#FFFFFF;" d="M367.77,107.36c0-1.15,0.8-1.77,2.7-2c-0.03-0.48-0.24-0.79-0.76-0.79c-0.4,0-0.8,0.19-1.27,0.49
			l-0.5-1.06c0.61-0.42,1.29-0.72,2.05-0.72c1.22,0,1.9,0.8,1.9,2.47v3.12h-1.16l-0.1-0.56h-0.04c-0.4,0.4-0.86,0.69-1.39,0.69
			C368.32,109,367.77,108.28,367.77,107.36z M370.47,107.28v-0.95c-1.01,0.16-1.34,0.48-1.34,0.9c0,0.35,0.21,0.52,0.55,0.52
			C370,107.75,370.22,107.57,370.47,107.28z"/>
		<path style="fill:#FFFFFF;" d="M373.08,103.41h1.16l0.1,0.7h0.04c0.39-0.45,0.82-0.83,1.45-0.83c0.67,0,1.08,0.33,1.32,0.92
			c0.42-0.5,0.87-0.92,1.5-0.92c1.04,0,1.5,0.84,1.5,2.2v3.39h-1.42v-3.18c0-0.79-0.19-1.03-0.59-1.03c-0.24,0-0.51,0.17-0.82,0.53
			v3.68h-1.42v-3.18c0-0.79-0.19-1.03-0.59-1.03c-0.24,0-0.51,0.17-0.82,0.53v3.68h-1.42V103.41z"/>
		<path style="fill:#FFFFFF;" d="M381.26,101.77c0-0.5,0.35-0.85,0.82-0.85c0.48,0,0.82,0.35,0.82,0.85c0,0.49-0.35,0.84-0.82,0.84
			C381.6,102.61,381.26,102.26,381.26,101.77z M381.37,103.41h1.42v5.46h-1.42V103.41z"/>
		<path style="fill:#FFFFFF;" d="M384.04,107.17v-6.01h1.42v6.08c0,0.35,0.14,0.46,0.26,0.46c0.05,0,0.09,0,0.17-0.02l0.17,1.19
			c-0.16,0.08-0.39,0.13-0.71,0.13C384.37,109,384.04,108.28,384.04,107.17z"/>
		<path style="fill:#FFFFFF;" d="M386.65,110.9l0.25-1.23c0.09,0.03,0.22,0.07,0.32,0.07c0.47,0,0.71-0.29,0.84-0.72l0.07-0.28
			l-1.85-5.32h1.43l0.68,2.35c0.14,0.49,0.25,1.01,0.38,1.55h0.04c0.11-0.52,0.21-1.03,0.33-1.55l0.58-2.35h1.36l-1.66,5.52
			c-0.45,1.37-0.97,2.07-2.09,2.07C387.04,111,386.85,110.96,386.65,110.9z"/>
		<path style="fill:#FFFFFF;" d="M393.28,101.06h0.93l-1.94,9.57h-0.93L393.28,101.06z"/>
		<path style="fill:#FFFFFF;" d="M356.04,118.53c0-2.38,1.38-3.76,2.97-3.76c0.81,0,1.47,0.44,1.89,0.93l-0.75,1.04
			c-0.32-0.33-0.66-0.57-1.11-0.57c-0.86,0-1.54,0.87-1.54,2.3c0,1.47,0.6,2.33,1.52,2.33c0.52,0,0.92-0.29,1.23-0.67l0.75,1.02
			c-0.52,0.69-1.22,1.05-2.03,1.05C357.38,122.2,356.04,120.94,356.04,118.53z"/>
		<path style="fill:#FFFFFF;" d="M361.63,120.56c0-1.15,0.8-1.77,2.7-2c-0.03-0.48-0.24-0.79-0.76-0.79c-0.4,0-0.8,0.19-1.27,0.49
			l-0.5-1.06c0.61-0.42,1.29-0.72,2.05-0.72c1.22,0,1.9,0.8,1.9,2.47v3.12h-1.16l-0.1-0.56h-0.04c-0.4,0.4-0.86,0.69-1.39,0.69
			C362.18,122.2,361.63,121.48,361.63,120.56z M364.33,120.49v-0.95c-1.01,0.16-1.34,0.48-1.34,0.9c0,0.35,0.21,0.52,0.55,0.52
			C363.86,120.95,364.07,120.77,364.33,120.49z"/>
		<path style="fill:#FFFFFF;" d="M366.94,116.61h1.16l0.1,0.95h0.04c0.35-0.73,0.87-1.09,1.36-1.09c0.27,0,0.43,0.04,0.57,0.11
			l-0.24,1.4c-0.17-0.05-0.31-0.09-0.52-0.09c-0.36,0-0.8,0.27-1.05,1.01v3.16h-1.42V116.61z"/>
		<path style="fill:#FFFFFF;" d="M370.51,119.34c0-1.77,1.11-2.86,2.26-2.86c1.37,0,2.04,1.13,2.04,2.62c0,0.29-0.03,0.58-0.06,0.71
			h-2.87c0.13,0.79,0.6,1.16,1.24,1.16c0.36,0,0.69-0.13,1.04-0.36l0.47,0.98c-0.49,0.39-1.13,0.61-1.7,0.61
			C371.57,122.2,370.51,121.15,370.51,119.34z M373.6,118.75c0-0.6-0.23-1.03-0.8-1.03c-0.45,0-0.84,0.34-0.93,1.03H373.6z"/>
		<path style="fill:#FFFFFF;" d="M375.5,123.01c0-0.45,0.24-0.82,0.68-1.1v-0.04c-0.25-0.19-0.44-0.48-0.44-0.93
			c0-0.39,0.23-0.78,0.53-1.02v-0.04c-0.34-0.27-0.64-0.78-0.64-1.42c0-1.31,0.95-1.97,1.98-1.97c0.27,0,0.53,0.05,0.74,0.13h1.75
			v1.18h-0.77c0.09,0.16,0.16,0.43,0.16,0.72c0,1.26-0.84,1.83-1.89,1.83c-0.17,0-0.37-0.03-0.58-0.11
			c-0.12,0.12-0.17,0.21-0.17,0.41c0,0.27,0.19,0.4,0.72,0.4h0.78c1.17,0,1.83,0.41,1.83,1.39c0,1.13-1.04,1.96-2.68,1.96
			C376.39,124.39,375.5,123.98,375.5,123.01z M378.83,122.71c0-0.34-0.26-0.42-0.73-0.42h-0.5c-0.33,0-0.52-0.02-0.67-0.07
			c-0.18,0.17-0.26,0.34-0.26,0.54c0,0.41,0.42,0.63,1.06,0.63C378.37,123.38,378.83,123.09,378.83,122.71z M378.27,118.46
			c0-0.58-0.28-0.89-0.65-0.89s-0.65,0.3-0.65,0.89c0,0.6,0.28,0.91,0.65,0.91S378.27,119.05,378.27,118.46z"/>
		<path style="fill:#FFFFFF;" d="M380.85,114.97c0-0.5,0.35-0.85,0.82-0.85c0.48,0,0.82,0.35,0.82,0.85c0,0.49-0.35,0.84-0.82,0.84
			C381.19,115.81,380.85,115.46,380.85,114.97z M380.96,116.61h1.42v5.46h-1.42V116.61z"/>
		<path style="fill:#FFFFFF;" d="M383.11,116.61h1.43l0.62,2.58c0.12,0.54,0.25,1.11,0.37,1.68h0.04c0.12-0.57,0.25-1.13,0.37-1.68
			l0.62-2.58h1.36l-1.56,5.46h-1.64L383.11,116.61z"/>
		<path style="fill:#FFFFFF;" d="M388.4,119.34c0-1.77,1.11-2.86,2.26-2.86c1.36,0,2.04,1.13,2.04,2.62c0,0.29-0.03,0.58-0.06,0.71
			h-2.87c0.13,0.79,0.6,1.16,1.24,1.16c0.36,0,0.69-0.13,1.04-0.36l0.47,0.98c-0.49,0.39-1.13,0.61-1.7,0.61
			C389.46,122.2,388.4,121.15,388.4,119.34z M391.49,118.75c0-0.6-0.23-1.03-0.8-1.03c-0.45,0-0.84,0.34-0.93,1.03H391.49z"/>
		<path style="fill:#FFFFFF;" d="M393.69,116.61h1.16l0.1,0.95h0.04c0.35-0.73,0.87-1.09,1.36-1.09c0.27,0,0.43,0.04,0.57,0.11
			l-0.24,1.4c-0.17-0.05-0.31-0.09-0.52-0.09c-0.36,0-0.8,0.27-1.06,1.01v3.16h-1.42V116.61z"/>
		<path style="fill:#FFFFFF;" d="M397.11,121.44l0.64-1.01c0.43,0.37,0.83,0.57,1.24,0.57c0.42,0,0.61-0.18,0.61-0.47
			c0-0.36-0.48-0.52-0.97-0.74c-0.59-0.26-1.27-0.7-1.27-1.61c0-1.02,0.72-1.71,1.83-1.71c0.73,0,1.28,0.34,1.69,0.69l-0.64,0.97
			c-0.34-0.28-0.68-0.47-1.01-0.47c-0.37,0-0.55,0.16-0.55,0.44c0,0.35,0.45,0.48,0.95,0.69c0.61,0.25,1.29,0.64,1.29,1.64
			c0,0.99-0.68,1.76-1.97,1.76C398.32,122.2,397.59,121.89,397.11,121.44z"/>
	</g>
</g>
<rect x="172.83" y="149.24" style="fill:#D1D3D4;stroke:#000000;stroke-miterlimit:10;" width="116.46" height="64.89"/>
<rect x="172.83" y="235.03" style="fill:#D1D3D4;stroke:#000000;stroke-miterlimit:10;" width="116.46" height="64.89"/>
<rect x="172.83" y="320.82" style="fill:#D1D3D4;stroke:#000000;stroke-miterlimit:10;" width="116.46" height="64.89"/>
<g>
	<g>
		<path d="M205.93,183.61c0-2.33,1.32-3.75,3.13-3.75c0.94,0,1.56,0.45,1.96,0.89l-0.47,0.6c-0.35-0.38-0.78-0.68-1.47-0.68
			c-1.37,0-2.25,1.12-2.25,2.92c0,1.81,0.81,2.95,2.26,2.95c0.49,0,0.96-0.16,1.23-0.42v-1.88h-1.44v-0.76h2.23v3.04
			c-0.44,0.48-1.18,0.84-2.1,0.84C207.21,187.35,205.93,185.96,205.93,183.61z"/>
		<path d="M212.34,185.83c0-1.17,0.95-1.75,3.1-2c0-0.69-0.22-1.35-1.04-1.35c-0.58,0-1.11,0.29-1.5,0.57l-0.33-0.62
			c0.46-0.32,1.17-0.7,1.98-0.7c1.23,0,1.75,0.87,1.75,2.2v3.28h-0.71l-0.07-0.64h-0.03c-0.48,0.42-1.04,0.77-1.67,0.77
			C212.97,187.35,212.34,186.79,212.34,185.83z M215.44,185.91v-1.49c-1.69,0.22-2.26,0.65-2.26,1.34c0,0.61,0.39,0.86,0.88,0.86
			C214.54,186.62,214.95,186.37,215.44,185.91z"/>
		<path d="M218.03,185.56v-2.96h-0.75v-0.69l0.79-0.05l0.1-1.5h0.71v1.5h1.37v0.74h-1.37v2.97c0,0.65,0.2,1.03,0.78,1.03
			c0.18,0,0.41-0.07,0.57-0.14l0.17,0.68c-0.28,0.1-0.62,0.2-0.94,0.2C218.39,187.35,218.03,186.63,218.03,185.56z"/>
		<path d="M221.39,179.38h0.85v2.14l-0.03,1.1c0.47-0.48,0.98-0.88,1.67-0.88c1.06,0,1.54,0.73,1.54,2.09v3.39h-0.85v-3.27
			c0-1-0.28-1.42-0.95-1.42c-0.52,0-0.87,0.28-1.38,0.82v3.87h-0.85V179.38z"/>
		<path d="M226.66,184.55c0-1.74,1.11-2.81,2.27-2.81c1.29,0,2.01,0.98,2.01,2.51c0,0.19-0.01,0.38-0.04,0.51h-3.4
			c0.06,1.13,0.71,1.87,1.68,1.87c0.48,0,0.88-0.17,1.26-0.43l0.31,0.59c-0.44,0.31-0.98,0.55-1.67,0.55
			C227.73,187.35,226.66,186.31,226.66,184.55z M230.18,184.11c0-1.07-0.46-1.65-1.24-1.65c-0.71,0-1.34,0.6-1.45,1.65H230.18z"/>
		<path d="M232.18,181.87h0.71l0.07,0.97h0.03c0.35-0.68,0.87-1.11,1.43-1.11c0.22,0,0.38,0.03,0.54,0.11l-0.16,0.79
			c-0.17-0.06-0.29-0.09-0.49-0.09c-0.43,0-0.93,0.33-1.28,1.23v3.43h-0.85V181.87z"/>
		<path d="M237.5,184.55c0-1.73,1.03-2.81,2.18-2.81c0.59,0,0.97,0.23,1.41,0.62l-0.04-0.92v-2.06h0.85v7.84h-0.71l-0.07-0.63h-0.03
			c-0.39,0.42-0.93,0.76-1.53,0.76C238.31,187.35,237.5,186.33,237.5,184.55z M241.06,185.86v-2.8c-0.43-0.41-0.82-0.56-1.23-0.56
			c-0.81,0-1.45,0.83-1.45,2.04c0,1.28,0.5,2.04,1.38,2.04C240.23,186.59,240.63,186.35,241.06,185.86z"/>
		<path d="M243.3,185.83c0-1.17,0.95-1.75,3.1-2c0-0.69-0.22-1.35-1.04-1.35c-0.58,0-1.11,0.29-1.5,0.57l-0.33-0.62
			c0.46-0.32,1.17-0.7,1.98-0.7c1.23,0,1.75,0.87,1.75,2.2v3.28h-0.71l-0.07-0.64h-0.03c-0.48,0.42-1.04,0.77-1.67,0.77
			C243.94,187.35,243.3,186.79,243.3,185.83z M246.4,185.91v-1.49c-1.69,0.22-2.26,0.65-2.26,1.34c0,0.61,0.39,0.86,0.88,0.86
			C245.51,186.62,245.91,186.37,246.4,185.91z"/>
		<path d="M248.99,185.56v-2.96h-0.75v-0.69l0.79-0.05l0.1-1.5h0.71v1.5h1.37v0.74h-1.37v2.97c0,0.65,0.2,1.03,0.78,1.03
			c0.18,0,0.41-0.07,0.58-0.14l0.17,0.68c-0.28,0.1-0.62,0.2-0.94,0.2C249.36,187.35,248.99,186.63,248.99,185.56z"/>
		<path d="M252.04,185.83c0-1.17,0.95-1.75,3.1-2c0-0.69-0.22-1.35-1.04-1.35c-0.58,0-1.11,0.29-1.5,0.57l-0.33-0.62
			c0.46-0.32,1.17-0.7,1.98-0.7c1.23,0,1.75,0.87,1.75,2.2v3.28h-0.71l-0.07-0.64h-0.03c-0.48,0.42-1.04,0.77-1.67,0.77
			C252.67,187.35,252.04,186.79,252.04,185.83z M255.14,185.91v-1.49c-1.69,0.22-2.26,0.65-2.26,1.34c0,0.61,0.39,0.86,0.88,0.86
			C254.25,186.62,254.65,186.37,255.14,185.91z"/>
	</g>
</g>
<g>
	<g>
		<path d="M215.16,260.41h1.94c1.53,0,2.56,0.54,2.56,2.13c0,1.52-1.02,2.23-2.51,2.23h-1.12v2.86h-0.87V260.41z M217.03,264.02
			c1.19,0,1.76-0.46,1.76-1.49c0-1.04-0.6-1.38-1.8-1.38h-0.97v2.87H217.03z"/>
		<path d="M220.95,262.28h0.71l0.07,0.97h0.03c0.35-0.68,0.87-1.11,1.43-1.11c0.22,0,0.38,0.03,0.54,0.11l-0.16,0.79
			c-0.17-0.06-0.29-0.09-0.49-0.09c-0.43,0-0.94,0.33-1.28,1.23v3.43h-0.85V262.28z"/>
		<path d="M224.18,264.96c0-1.78,1.1-2.81,2.34-2.81s2.34,1.03,2.34,2.81c0,1.77-1.1,2.8-2.34,2.8S224.18,266.73,224.18,264.96z
			 M227.97,264.96c0-1.23-0.59-2.06-1.46-2.06c-0.87,0-1.46,0.83-1.46,2.06s0.59,2.05,1.46,2.05
			C227.38,267.01,227.97,266.18,227.97,264.96z"/>
		<path d="M229.8,264.96c0-1.78,1.14-2.81,2.43-2.81c0.66,0,1.12,0.29,1.48,0.63l-0.44,0.6c-0.29-0.28-0.6-0.47-1-0.47
			c-0.91,0-1.58,0.83-1.58,2.06s0.63,2.05,1.56,2.05c0.46,0,0.87-0.24,1.18-0.53l0.37,0.61c-0.45,0.43-1.03,0.68-1.63,0.68
			C230.83,267.76,229.8,266.73,229.8,264.96z"/>
		<path d="M234.53,264.96c0-1.74,1.11-2.81,2.27-2.81c1.29,0,2.01,0.98,2.01,2.51c0,0.19-0.02,0.38-0.04,0.51h-3.4
			c0.06,1.13,0.71,1.87,1.68,1.87c0.48,0,0.88-0.17,1.25-0.43l0.31,0.59c-0.44,0.31-0.98,0.55-1.67,0.55
			C235.6,267.76,234.53,266.72,234.53,264.96z M238.06,264.52c0-1.07-0.45-1.65-1.24-1.65c-0.71,0-1.34,0.6-1.45,1.65H238.06z"/>
		<path d="M239.5,267.02l0.42-0.6c0.44,0.37,0.88,0.63,1.49,0.63c0.66,0,0.99-0.37,0.99-0.83c0-0.55-0.59-0.79-1.15-1.01
			c-0.71-0.27-1.5-0.64-1.5-1.54c0-0.86,0.65-1.52,1.74-1.52c0.63,0,1.18,0.27,1.57,0.6l-0.41,0.58c-0.35-0.27-0.7-0.48-1.15-0.48
			c-0.63,0-0.93,0.36-0.93,0.77c0,0.51,0.55,0.7,1.12,0.93c0.73,0.29,1.54,0.6,1.54,1.62c0,0.87-0.65,1.59-1.84,1.59
			C240.66,267.76,239.97,267.44,239.5,267.02z"/>
		<path d="M243.84,267.02l0.42-0.6c0.44,0.37,0.88,0.63,1.49,0.63c0.66,0,0.99-0.37,0.99-0.83c0-0.55-0.6-0.79-1.15-1.01
			c-0.71-0.27-1.5-0.64-1.5-1.54c0-0.86,0.65-1.52,1.74-1.52c0.63,0,1.18,0.27,1.57,0.6l-0.41,0.58c-0.35-0.27-0.7-0.48-1.15-0.48
			c-0.64,0-0.93,0.36-0.93,0.77c0,0.51,0.55,0.7,1.12,0.93c0.73,0.29,1.54,0.6,1.54,1.62c0,0.87-0.65,1.59-1.84,1.59
			C245.01,267.76,244.32,267.44,243.84,267.02z"/>
		<path d="M205.92,271.39c0-0.36,0.26-0.58,0.59-0.58c0.33,0,0.59,0.23,0.59,0.58c0,0.34-0.26,0.58-0.59,0.58
			C206.18,271.98,205.92,271.74,205.92,271.39z M206.08,273.08h0.85v5.35h-0.85V273.08z"/>
		<path d="M208.63,273.08h0.71l0.07,0.77h0.03c0.48-0.5,1-0.9,1.69-0.9c1.06,0,1.54,0.73,1.54,2.09v3.39h-0.85v-3.27
			c0-1-0.28-1.42-0.95-1.42c-0.52,0-0.87,0.28-1.38,0.82v3.87h-0.85V273.08z"/>
		<path d="M213.76,273.13l0.72-0.05h1.88v0.74h-2.61V273.13z M214.45,272.23c0-1.09,0.47-1.78,1.48-1.78c0.31,0,0.61,0.08,0.84,0.18
			l-0.18,0.69c-0.19-0.09-0.39-0.14-0.57-0.14c-0.48,0-0.71,0.35-0.71,1.04v6.19h-0.85V272.23z"/>
		<path d="M216.96,275.76c0-1.78,1.1-2.81,2.34-2.81s2.34,1.03,2.34,2.81c0,1.77-1.1,2.8-2.34,2.8S216.96,277.53,216.96,275.76z
			 M220.75,275.76c0-1.23-0.59-2.06-1.46-2.06c-0.87,0-1.46,0.83-1.46,2.06s0.59,2.05,1.46,2.05
			C220.17,277.8,220.75,276.98,220.75,275.76z"/>
		<path d="M222.96,273.08h0.71l0.07,0.97h0.03c0.35-0.68,0.87-1.11,1.43-1.11c0.22,0,0.38,0.03,0.54,0.11l-0.16,0.79
			c-0.17-0.06-0.29-0.09-0.49-0.09c-0.43,0-0.94,0.33-1.28,1.23v3.43h-0.85V273.08z"/>
		<path d="M226.56,273.08h0.71l0.07,0.78h0.03c0.44-0.51,0.97-0.91,1.57-0.91c0.77,0,1.18,0.39,1.39,1.02
			c0.52-0.6,1.05-1.02,1.66-1.02c1.04,0,1.53,0.73,1.53,2.09v3.39h-0.85v-3.27c0-1-0.3-1.42-0.94-1.42c-0.39,0-0.8,0.27-1.26,0.82
			v3.87h-0.85v-3.27c0-1-0.3-1.42-0.94-1.42c-0.38,0-0.8,0.27-1.26,0.82v3.87h-0.85V273.08z"/>
		<path d="M234.85,277.04c0-1.17,0.95-1.75,3.1-2c0-0.69-0.22-1.35-1.04-1.35c-0.58,0-1.11,0.29-1.5,0.57l-0.33-0.62
			c0.46-0.32,1.17-0.7,1.98-0.7c1.23,0,1.75,0.87,1.75,2.2v3.28h-0.71l-0.07-0.64H238c-0.48,0.42-1.04,0.77-1.67,0.77
			C235.48,278.56,234.85,278,234.85,277.04z M237.95,277.12v-1.49c-1.69,0.22-2.26,0.65-2.26,1.34c0,0.61,0.39,0.86,0.88,0.86
			C237.06,277.83,237.46,277.58,237.95,277.12z"/>
		<path d="M240.54,276.77v-2.96h-0.75v-0.69l0.79-0.05l0.1-1.5h0.71v1.5h1.37v0.74h-1.37v2.97c0,0.65,0.2,1.03,0.78,1.03
			c0.18,0,0.41-0.07,0.58-0.14l0.17,0.68c-0.28,0.1-0.62,0.2-0.94,0.2C240.91,278.56,240.54,277.84,240.54,276.77z"/>
		<path d="M243.74,271.39c0-0.36,0.26-0.58,0.59-0.58s0.59,0.23,0.59,0.58c0,0.34-0.26,0.58-0.59,0.58S243.74,271.74,243.74,271.39z
			 M243.9,273.08h0.85v5.35h-0.85V273.08z"/>
		<path d="M246.08,275.76c0-1.78,1.1-2.81,2.34-2.81s2.34,1.03,2.34,2.81c0,1.77-1.1,2.8-2.34,2.8S246.08,277.53,246.08,275.76z
			 M249.87,275.76c0-1.23-0.59-2.06-1.46-2.06c-0.87,0-1.46,0.83-1.46,2.06s0.59,2.05,1.46,2.05
			C249.28,277.8,249.87,276.98,249.87,275.76z"/>
		<path d="M252.08,273.08h0.71l0.07,0.77h0.03c0.48-0.5,1-0.9,1.69-0.9c1.06,0,1.54,0.73,1.54,2.09v3.39h-0.85v-3.27
			c0-1-0.28-1.42-0.95-1.42c-0.52,0-0.87,0.28-1.38,0.82v3.87h-0.85V273.08z"/>
	</g>
</g>
<g>
	<g>
		<path d="M212.21,348.16c0-2.33,1.29-3.75,3.02-3.75c0.83,0,1.47,0.43,1.87,0.89l-0.47,0.6c-0.36-0.41-0.81-0.68-1.38-0.68
			c-1.29,0-2.14,1.12-2.14,2.92c0,1.81,0.82,2.95,2.11,2.95c0.65,0,1.14-0.3,1.58-0.81l0.47,0.58c-0.54,0.66-1.2,1.04-2.09,1.04
			C213.48,351.9,212.21,350.51,212.21,348.16z"/>
		<path d="M218.08,349.1c0-1.78,1.1-2.81,2.34-2.81s2.34,1.03,2.34,2.81c0,1.77-1.1,2.8-2.34,2.8S218.08,350.87,218.08,349.1z
			 M221.87,349.1c0-1.23-0.59-2.06-1.46-2.06c-0.87,0-1.46,0.83-1.46,2.06s0.59,2.05,1.46,2.05
			C221.28,351.15,221.87,350.33,221.87,349.1z"/>
		<path d="M224.08,346.42h0.71l0.07,0.78h0.03c0.44-0.51,0.97-0.91,1.57-0.91c0.77,0,1.18,0.39,1.39,1.02
			c0.52-0.6,1.05-1.02,1.66-1.02c1.04,0,1.53,0.73,1.53,2.09v3.39h-0.85v-3.27c0-1-0.3-1.42-0.94-1.42c-0.39,0-0.8,0.27-1.26,0.82
			v3.87h-0.85v-3.27c0-1-0.3-1.42-0.94-1.42c-0.38,0-0.8,0.27-1.26,0.82v3.87h-0.85V346.42z"/>
		<path d="M232.3,349.1c0-1.74,1.11-2.81,2.27-2.81c1.29,0,2.01,0.98,2.01,2.51c0,0.19-0.01,0.38-0.04,0.51h-3.4
			c0.06,1.13,0.71,1.87,1.68,1.87c0.48,0,0.88-0.17,1.26-0.43l0.31,0.59c-0.44,0.31-0.98,0.55-1.67,0.55
			C233.37,351.9,232.3,350.86,232.3,349.1z M235.83,348.66c0-1.07-0.46-1.65-1.24-1.65c-0.71,0-1.34,0.6-1.45,1.65H235.83z"/>
		<path d="M239.83,349.81v-3.39h0.85v3.27c0,1,0.28,1.42,0.95,1.42c0.52,0,0.87-0.27,1.35-0.9v-3.79h0.85v5.35h-0.71l-0.07-0.84
			h-0.03c-0.47,0.58-0.97,0.97-1.66,0.97C240.31,351.9,239.83,351.17,239.83,349.81z"/>
		<path d="M245.54,346.42h0.71l0.07,0.62h0.03c0.46-0.4,1.02-0.75,1.61-0.75c1.3,0,2,1.07,2,2.72c0,1.82-1.03,2.89-2.18,2.89
			c-0.46,0-0.93-0.23-1.4-0.62l0.02,0.93v1.81h-0.85V346.42z M249.08,349.02c0-1.18-0.38-1.97-1.33-1.97
			c-0.43,0-0.86,0.25-1.35,0.73v2.8c0.46,0.41,0.89,0.56,1.23,0.56C248.46,351.14,249.08,350.34,249.08,349.02z"/>
		<path d="M207.39,357.22h0.87l0.75,3.09c0.11,0.51,0.2,0.99,0.3,1.49h0.04c0.11-0.5,0.22-0.99,0.34-1.49l0.78-3.09h0.83l0.79,3.09
			c0.12,0.51,0.23,0.99,0.35,1.49h0.04c0.11-0.5,0.2-0.98,0.31-1.49l0.74-3.09h0.81l-1.35,5.35h-1.04l-0.73-2.87
			c-0.12-0.51-0.22-1-0.34-1.54h-0.04c-0.11,0.54-0.21,1.05-0.35,1.55l-0.71,2.86h-1L207.39,357.22z"/>
		<path d="M215.29,355.54c0-0.36,0.26-0.58,0.59-0.58c0.33,0,0.59,0.23,0.59,0.58c0,0.34-0.26,0.58-0.59,0.58
			C215.54,356.12,215.29,355.88,215.29,355.54z M215.44,357.22h0.85v5.35h-0.85V357.22z"/>
		<path d="M218.14,360.91v-2.96h-0.75v-0.69l0.79-0.05l0.1-1.5H219v1.5h1.37v0.74H219v2.97c0,0.65,0.2,1.03,0.78,1.03
			c0.18,0,0.41-0.07,0.57-0.14l0.17,0.68c-0.28,0.1-0.62,0.2-0.94,0.2C218.51,362.7,218.14,361.98,218.14,360.91z"/>
		<path d="M221.5,354.73h0.85v2.14l-0.03,1.1c0.47-0.48,0.98-0.88,1.67-0.88c1.06,0,1.54,0.73,1.54,2.09v3.39h-0.85v-3.27
			c0-1-0.28-1.42-0.95-1.42c-0.52,0-0.87,0.28-1.38,0.82v3.87h-0.85V354.73z"/>
		<path d="M228.91,361.18c0-1.17,0.95-1.75,3.1-2c0-0.69-0.22-1.35-1.04-1.35c-0.58,0-1.11,0.29-1.5,0.57l-0.33-0.62
			c0.46-0.32,1.17-0.7,1.98-0.7c1.23,0,1.75,0.87,1.75,2.2v3.28h-0.71l-0.07-0.64h-0.03c-0.48,0.42-1.04,0.77-1.67,0.77
			C229.54,362.7,228.91,362.14,228.91,361.18z M232.01,361.26v-1.49c-1.69,0.22-2.26,0.65-2.26,1.34c0,0.61,0.39,0.86,0.88,0.86
			C231.12,361.97,231.52,361.72,232.01,361.26z"/>
		<path d="M236.53,357.22h0.71l0.07,0.62h0.03c0.46-0.4,1.02-0.75,1.61-0.75c1.3,0,2,1.07,2,2.72c0,1.82-1.03,2.89-2.18,2.89
			c-0.46,0-0.94-0.23-1.4-0.62l0.02,0.93v1.81h-0.85V357.22z M240.06,359.82c0-1.18-0.38-1.97-1.33-1.97
			c-0.43,0-0.86,0.25-1.35,0.73v2.8c0.46,0.41,0.89,0.56,1.23,0.56C239.44,361.94,240.06,361.14,240.06,359.82z"/>
		<path d="M242.29,361.49v-6.76h0.85v6.83c0,0.28,0.11,0.39,0.24,0.39c0.05,0,0.09,0,0.19-0.02l0.12,0.69
			c-0.12,0.05-0.27,0.08-0.49,0.08C242.55,362.7,242.29,362.27,242.29,361.49z"/>
		<path d="M244.62,361.18c0-1.17,0.95-1.75,3.1-2c0-0.69-0.22-1.35-1.04-1.35c-0.58,0-1.11,0.29-1.5,0.57l-0.33-0.62
			c0.46-0.32,1.17-0.7,1.98-0.7c1.23,0,1.75,0.87,1.75,2.2v3.28h-0.71l-0.07-0.64h-0.03c-0.48,0.42-1.04,0.77-1.67,0.77
			C245.25,362.7,244.62,362.14,244.62,361.18z M247.72,361.26v-1.49c-1.69,0.22-2.26,0.65-2.26,1.34c0,0.61,0.39,0.86,0.88,0.86
			C246.83,361.97,247.23,361.72,247.72,361.26z"/>
		<path d="M250.16,357.22h0.71l0.07,0.77h0.03c0.48-0.5,1-0.9,1.69-0.9c1.06,0,1.54,0.73,1.54,2.09v3.39h-0.85v-3.27
			c0-1-0.28-1.42-0.95-1.42c-0.52,0-0.87,0.28-1.38,0.82v3.87h-0.85V357.22z"/>
	</g>
</g>
<line style="fill:none;stroke:#000000;stroke-miterlimit:10;" x1="119.23" y1="148.31" x2="165.68" y2="173.69"/>
<line style="fill:none;stroke:#000000;stroke-miterlimit:10;" x1="342.86" y1="148.31" x2="296.41" y2="173.69"/>
<line style="fill:none;stroke:#000000;stroke-miterlimit:10;" x1="231.06" y1="94.56" x2="231.06" y2="138.11"/>
<polygon points="305.61,175.55 303.93,173.01 302.26,170.47 302.26,170.47 300.57,167.93 298.89,165.39 293.7,175.99 "/>
<polygon points="161.13,164.39 159.89,167.18 158.64,169.95 158.64,169.95 157.41,172.74 156.17,175.52 167.89,174.21 "/>
<polygon points="237.16,134.71 234.11,134.74 231.06,134.75 231.06,134.75 228.02,134.79 224.97,134.82 231.03,144.94 "/>
<line style="fill:none;stroke:#000000;stroke-miterlimit:10;" x1="231.06" y1="214.13" x2="231.06" y2="227.59"/>
<polygon points="237.16,224.2 234.11,224.22 231.06,224.24 231.06,224.24 228.02,224.28 224.97,224.3 231.03,234.42 "/>
<line style="fill:none;stroke:#000000;stroke-miterlimit:10;" x1="231.06" y1="299.92" x2="231.06" y2="313.38"/>
<polygon points="237.16,309.99 234.11,310.01 231.06,310.03 231.06,310.03 228.02,310.07 224.97,310.09 231.03,320.21 "/>
<path style="fill:#77787B;" d="M149.51,259.79H94.97c-5.37,0-9.72-4.35-9.72-9.72v-19.48c0-5.37,4.35-9.72,9.72-9.72h54.54
	c5.37,0,9.72,4.35,9.72,9.72v19.48C159.23,255.44,154.88,259.79,149.51,259.79z"/>
<g>
	<g>
		<path style="fill:#FFFFFF;" d="M110.61,226.06h1.04l1.31,3.86c0.16,0.49,0.32,1,0.48,1.5h0.04c0.16-0.5,0.31-1.01,0.47-1.5
			l1.29-3.86h1.04v7.22h-0.81v-3.98c0-0.63,0.07-1.5,0.11-2.14h-0.04l-0.54,1.65l-1.28,3.73h-0.57l-1.29-3.73l-0.54-1.65h-0.04
			c0.04,0.64,0.11,1.51,0.11,2.14v3.98h-0.78V226.06z"/>
		<path style="fill:#FFFFFF;" d="M118.01,231.33v-3.39h0.85v3.27c0,1,0.28,1.42,0.95,1.42c0.52,0,0.87-0.27,1.35-0.9v-3.79h0.85
			v5.35h-0.71l-0.07-0.84h-0.03c-0.47,0.58-0.97,0.97-1.66,0.97C118.49,233.42,118.01,232.69,118.01,231.33z"/>
		<path style="fill:#FFFFFF;" d="M123.72,232.21v-6.76h0.85v6.83c0,0.28,0.11,0.39,0.24,0.39c0.05,0,0.09,0,0.19-0.02l0.12,0.69
			c-0.12,0.05-0.27,0.08-0.49,0.08C123.98,233.42,123.72,232.98,123.72,232.21z"/>
		<path style="fill:#FFFFFF;" d="M126.52,231.63v-2.96h-0.75v-0.69l0.79-0.05l0.1-1.5h0.71v1.5h1.37v0.74h-1.37v2.97
			c0,0.65,0.2,1.03,0.78,1.03c0.18,0,0.41-0.07,0.57-0.14l0.17,0.68c-0.28,0.1-0.62,0.2-0.94,0.2
			C126.88,233.42,126.52,232.7,126.52,231.63z"/>
		<path style="fill:#FFFFFF;" d="M129.72,226.25c0-0.36,0.26-0.58,0.59-0.58c0.33,0,0.59,0.23,0.59,0.58c0,0.34-0.26,0.58-0.59,0.58
			C129.98,226.84,129.72,226.59,129.72,226.25z M129.87,227.94h0.85v5.35h-0.85V227.94z"/>
		<path style="fill:#FFFFFF;" d="M132.01,230.18h2.38v0.69h-2.38V230.18z"/>
		<path style="fill:#FFFFFF;" d="M97.61,241.42c0-1.73,1.03-2.81,2.18-2.81c0.59,0,0.97,0.23,1.41,0.62l-0.04-0.92v-2.06h0.85v7.84
			h-0.71l-0.07-0.63h-0.03c-0.39,0.42-0.93,0.76-1.53,0.76C98.42,244.22,97.61,243.2,97.61,241.42z M101.17,242.72v-2.8
			c-0.43-0.41-0.82-0.56-1.23-0.56c-0.81,0-1.45,0.83-1.45,2.04c0,1.28,0.5,2.04,1.38,2.04
			C100.34,243.45,100.74,243.21,101.17,242.72z"/>
		<path style="fill:#FFFFFF;" d="M103.57,237.05c0-0.36,0.26-0.58,0.59-0.58c0.33,0,0.59,0.23,0.59,0.58c0,0.34-0.26,0.58-0.59,0.58
			C103.83,237.64,103.57,237.39,103.57,237.05z M103.72,238.74h0.85v5.35h-0.85V238.74z"/>
		<path style="fill:#FFFFFF;" d="M105.72,243.47l0.42-0.6c0.44,0.37,0.88,0.63,1.49,0.63c0.66,0,0.99-0.37,0.99-0.83
			c0-0.55-0.6-0.79-1.15-1.01c-0.71-0.27-1.5-0.64-1.5-1.54c0-0.86,0.65-1.52,1.74-1.52c0.63,0,1.18,0.27,1.57,0.6l-0.41,0.58
			c-0.35-0.27-0.7-0.48-1.15-0.48c-0.64,0-0.93,0.36-0.93,0.77c0,0.51,0.55,0.7,1.12,0.93c0.73,0.29,1.54,0.6,1.54,1.62
			c0,0.87-0.65,1.59-1.84,1.59C106.88,244.22,106.19,243.89,105.72,243.47z"/>
		<path style="fill:#FFFFFF;" d="M110.25,241.42c0-1.78,1.14-2.81,2.43-2.81c0.66,0,1.12,0.29,1.48,0.63l-0.44,0.6
			c-0.29-0.28-0.6-0.47-1-0.47c-0.91,0-1.58,0.83-1.58,2.06s0.63,2.05,1.56,2.05c0.46,0,0.87-0.24,1.18-0.53l0.37,0.61
			c-0.45,0.43-1.03,0.68-1.63,0.68C111.27,244.22,110.25,243.19,110.25,241.42z"/>
		<path style="fill:#FFFFFF;" d="M115.2,237.05c0-0.36,0.26-0.58,0.59-0.58c0.33,0,0.59,0.23,0.59,0.58c0,0.34-0.26,0.58-0.59,0.58
			C115.46,237.64,115.2,237.39,115.2,237.05z M115.36,238.74h0.85v5.35h-0.85V238.74z"/>
		<path style="fill:#FFFFFF;" d="M117.91,238.74h0.71l0.07,0.62h0.03c0.46-0.4,1.02-0.75,1.61-0.75c1.3,0,2,1.07,2,2.72
			c0,1.82-1.03,2.89-2.18,2.89c-0.46,0-0.94-0.23-1.4-0.62l0.02,0.93v1.81h-0.85V238.74z M121.44,241.34c0-1.18-0.38-1.97-1.33-1.97
			c-0.43,0-0.86,0.25-1.35,0.73v2.8c0.46,0.41,0.89,0.56,1.23,0.56C120.83,243.45,121.44,242.66,121.44,241.34z"/>
		<path style="fill:#FFFFFF;" d="M123.67,243.01v-6.76h0.85v6.83c0,0.28,0.11,0.39,0.24,0.39c0.05,0,0.09,0,0.19-0.02l0.12,0.69
			c-0.12,0.05-0.27,0.08-0.49,0.08C123.93,244.22,123.67,243.78,123.67,243.01z"/>
		<path style="fill:#FFFFFF;" d="M126.16,237.05c0-0.36,0.26-0.58,0.59-0.58c0.33,0,0.59,0.23,0.59,0.58c0,0.34-0.26,0.58-0.59,0.58
			C126.42,237.64,126.16,237.39,126.16,237.05z M126.31,238.74h0.85v5.35h-0.85V238.74z"/>
		<path style="fill:#FFFFFF;" d="M128.87,238.74h0.71l0.07,0.77h0.03c0.48-0.5,1-0.9,1.69-0.9c1.06,0,1.54,0.73,1.54,2.09v3.39
			h-0.85v-3.27c0-1-0.28-1.42-0.95-1.42c-0.52,0-0.87,0.28-1.38,0.82v3.87h-0.85V238.74z"/>
		<path style="fill:#FFFFFF;" d="M134.23,242.7c0-1.17,0.95-1.75,3.1-2c0-0.69-0.22-1.35-1.04-1.35c-0.58,0-1.11,0.29-1.5,0.57
			l-0.33-0.62c0.46-0.32,1.17-0.7,1.98-0.7c1.23,0,1.75,0.87,1.75,2.2v3.28h-0.71l-0.07-0.64h-0.03c-0.48,0.42-1.04,0.77-1.67,0.77
			C134.86,244.22,134.23,243.66,134.23,242.7z M137.33,242.78v-1.49c-1.69,0.22-2.26,0.65-2.26,1.34c0,0.61,0.39,0.86,0.88,0.86
			C136.44,243.49,136.84,243.24,137.33,242.78z"/>
		<path style="fill:#FFFFFF;" d="M139.77,238.74h0.71l0.07,0.97h0.03c0.35-0.68,0.87-1.11,1.43-1.11c0.22,0,0.38,0.03,0.54,0.11
			l-0.16,0.79c-0.17-0.06-0.29-0.09-0.49-0.09c-0.43,0-0.94,0.33-1.28,1.23v3.43h-0.85V238.74z"/>
		<path style="fill:#FFFFFF;" d="M142.87,246.28l0.17-0.72c0.1,0.04,0.25,0.08,0.38,0.08c0.57,0,0.93-0.48,1.14-1.15l0.11-0.39
			l-2.02-5.36h0.88l1.03,2.96c0.16,0.46,0.33,1.01,0.49,1.51h0.04c0.14-0.49,0.29-1.03,0.42-1.51l0.9-2.96h0.84l-1.9,5.79
			c-0.36,1.06-0.88,1.86-1.89,1.86C143.23,246.39,143.03,246.34,142.87,246.28z"/>
		<path style="fill:#FFFFFF;" d="M102.99,249.54h0.71l0.07,0.78h0.03c0.44-0.51,0.97-0.91,1.57-0.91c0.77,0,1.18,0.39,1.39,1.02
			c0.52-0.6,1.05-1.02,1.66-1.02c1.04,0,1.53,0.73,1.53,2.09v3.39h-0.85v-3.27c0-1-0.3-1.42-0.94-1.42c-0.39,0-0.8,0.27-1.26,0.82
			v3.87h-0.85v-3.27c0-1-0.3-1.42-0.94-1.42c-0.38,0-0.8,0.27-1.26,0.82v3.87h-0.85V249.54z"/>
		<path style="fill:#FFFFFF;" d="M111.21,252.22c0-1.74,1.11-2.81,2.27-2.81c1.29,0,2.01,0.98,2.01,2.51c0,0.19-0.02,0.38-0.04,0.51
			h-3.4c0.06,1.13,0.71,1.87,1.68,1.87c0.48,0,0.88-0.17,1.26-0.43l0.31,0.59c-0.44,0.31-0.98,0.55-1.67,0.55
			C112.29,255.02,111.21,253.97,111.21,252.22z M114.74,251.78c0-1.07-0.45-1.65-1.24-1.65c-0.71,0-1.34,0.6-1.45,1.65H114.74z"/>
		<path style="fill:#FFFFFF;" d="M116.36,252.22c0-1.74,1.11-2.81,2.27-2.81c1.29,0,2.01,0.98,2.01,2.51c0,0.19-0.02,0.38-0.04,0.51
			h-3.4c0.06,1.13,0.71,1.87,1.68,1.87c0.48,0,0.88-0.17,1.26-0.43l0.31,0.59c-0.44,0.31-0.98,0.55-1.67,0.55
			C117.43,255.02,116.36,253.97,116.36,252.22z M119.89,251.78c0-1.07-0.45-1.65-1.24-1.65c-0.71,0-1.34,0.6-1.45,1.65H119.89z"/>
		<path style="fill:#FFFFFF;" d="M122.03,253.23v-2.96h-0.75v-0.69l0.79-0.05l0.1-1.5h0.71v1.5h1.37v0.74h-1.37v2.97
			c0,0.65,0.2,1.03,0.78,1.03c0.18,0,0.41-0.07,0.57-0.14l0.17,0.68c-0.28,0.1-0.62,0.2-0.94,0.2
			C122.4,255.02,122.03,254.3,122.03,253.23z"/>
		<path style="fill:#FFFFFF;" d="M125.23,247.85c0-0.36,0.26-0.58,0.59-0.58c0.33,0,0.59,0.23,0.59,0.58c0,0.34-0.26,0.58-0.59,0.58
			C125.49,248.44,125.23,248.19,125.23,247.85z M125.39,249.54h0.85v5.35h-0.85V249.54z"/>
		<path style="fill:#FFFFFF;" d="M127.94,249.54h0.71l0.07,0.77h0.03c0.48-0.5,1-0.9,1.69-0.9c1.06,0,1.54,0.73,1.54,2.09v3.39
			h-0.85v-3.27c0-1-0.28-1.42-0.95-1.42c-0.52,0-0.87,0.28-1.38,0.82v3.87h-0.85V249.54z"/>
		<path style="fill:#FFFFFF;" d="M133.24,255.91c0-0.46,0.28-0.89,0.74-1.21v-0.04c-0.26-0.17-0.45-0.46-0.45-0.88
			c0-0.44,0.29-0.8,0.56-0.99v-0.04c-0.33-0.28-0.65-0.8-0.65-1.44c0-1.17,0.87-1.9,1.89-1.9c0.28,0,0.53,0.06,0.71,0.13h1.76v0.7
			h-1.04c0.24,0.24,0.41,0.64,0.41,1.1c0,1.15-0.82,1.85-1.85,1.85c-0.24,0-0.52-0.06-0.75-0.18c-0.18,0.16-0.32,0.34-0.32,0.63
			c0,0.34,0.21,0.58,0.88,0.58h0.98c1.17,0,1.76,0.39,1.76,1.28c0,0.99-0.99,1.85-2.55,1.85
			C134.09,257.34,133.24,256.83,133.24,255.91z M137.04,255.63c0-0.5-0.35-0.66-1.02-0.66h-0.87c-0.19,0-0.43-0.02-0.66-0.08
			c-0.36,0.27-0.51,0.59-0.51,0.9c0,0.57,0.55,0.94,1.46,0.94C136.41,256.72,137.04,256.19,137.04,255.63z M136.39,251.31
			c0-0.78-0.48-1.25-1.07-1.25s-1.07,0.46-1.07,1.25c0,0.78,0.49,1.27,1.07,1.27S136.39,252.09,136.39,251.31z"/>
		<path style="fill:#FFFFFF;" d="M138.29,254.27l0.42-0.6c0.44,0.37,0.88,0.63,1.49,0.63c0.66,0,0.99-0.37,0.99-0.83
			c0-0.55-0.6-0.79-1.15-1.01c-0.71-0.27-1.5-0.64-1.5-1.54c0-0.86,0.65-1.52,1.74-1.52c0.63,0,1.18,0.27,1.57,0.6l-0.41,0.58
			c-0.35-0.27-0.7-0.48-1.15-0.48c-0.64,0-0.93,0.36-0.93,0.77c0,0.51,0.55,0.7,1.12,0.93c0.73,0.29,1.54,0.6,1.54,1.62
			c0,0.87-0.65,1.59-1.84,1.59C139.46,255.02,138.76,254.69,138.29,254.27z"/>
	</g>
</g>
<g>
	<g>
		<path d="M101.54,301.93c0-2.33,1.29-3.75,3.02-3.75c0.83,0,1.47,0.43,1.87,0.89l-0.47,0.6c-0.36-0.41-0.81-0.68-1.38-0.68
			c-1.29,0-2.14,1.12-2.14,2.92c0,1.81,0.82,2.95,2.11,2.95c0.65,0,1.14-0.3,1.58-0.81l0.47,0.58c-0.54,0.66-1.2,1.04-2.09,1.04
			C102.81,305.67,101.54,304.28,101.54,301.93z"/>
		<path d="M107.4,302.87c0-1.78,1.1-2.81,2.34-2.81s2.34,1.03,2.34,2.81c0,1.77-1.1,2.8-2.34,2.8S107.4,304.64,107.4,302.87z
			 M111.19,302.87c0-1.23-0.59-2.06-1.46-2.06c-0.87,0-1.46,0.83-1.46,2.06s0.59,2.05,1.46,2.05
			C110.61,304.92,111.19,304.09,111.19,302.87z"/>
		<path d="M113.4,300.19h0.71l0.07,0.77h0.03c0.48-0.5,1-0.9,1.69-0.9c1.06,0,1.54,0.73,1.54,2.09v3.39h-0.85v-3.27
			c0-1-0.28-1.42-0.95-1.42c-0.52,0-0.87,0.28-1.38,0.82v3.87h-0.85V300.19z"/>
		<path d="M119.23,303.88v-2.96h-0.75v-0.69l0.79-0.05l0.1-1.5h0.71v1.5h1.37v0.74h-1.37v2.97c0,0.65,0.2,1.03,0.78,1.03
			c0.18,0,0.41-0.07,0.57-0.14l0.17,0.68c-0.28,0.1-0.62,0.2-0.94,0.2C119.59,305.67,119.23,304.95,119.23,303.88z"/>
		<path d="M122.43,298.51c0-0.36,0.26-0.58,0.59-0.58c0.33,0,0.59,0.23,0.59,0.58c0,0.34-0.26,0.58-0.59,0.58
			C122.69,299.09,122.43,298.85,122.43,298.51z M122.58,300.19h0.85v5.35h-0.85V300.19z"/>
		<path d="M125.14,300.19h0.71l0.07,0.77h0.03c0.48-0.5,1-0.9,1.69-0.9c1.06,0,1.54,0.73,1.54,2.09v3.39h-0.85v-3.27
			c0-1-0.28-1.42-0.95-1.42c-0.52,0-0.87,0.28-1.38,0.82v3.87h-0.85V300.19z"/>
		<path d="M130.75,303.58v-3.39h0.85v3.27c0,1,0.28,1.42,0.95,1.42c0.52,0,0.87-0.27,1.35-0.9v-3.79h0.85v5.35h-0.71l-0.07-0.84
			h-0.03c-0.47,0.58-0.97,0.97-1.66,0.97C131.22,305.67,130.75,304.94,130.75,303.58z"/>
		<path d="M136.15,304.15c0-1.17,0.95-1.75,3.1-2c0-0.69-0.22-1.35-1.04-1.35c-0.58,0-1.11,0.29-1.5,0.57l-0.33-0.62
			c0.46-0.32,1.17-0.7,1.98-0.7c1.23,0,1.75,0.87,1.75,2.2v3.28h-0.71l-0.07-0.64h-0.03c-0.48,0.42-1.04,0.77-1.67,0.77
			C136.78,305.67,136.15,305.11,136.15,304.15z M139.24,304.23v-1.49c-1.69,0.22-2.26,0.65-2.26,1.34c0,0.61,0.39,0.86,0.88,0.86
			C138.35,304.94,138.76,304.69,139.24,304.23z"/>
		<path d="M141.69,304.46v-6.76h0.85v6.83c0,0.28,0.11,0.39,0.24,0.39c0.05,0,0.09,0,0.19-0.02l0.12,0.69
			c-0.12,0.05-0.27,0.08-0.49,0.08C141.95,305.67,141.69,305.24,141.69,304.46z"/>
		<path d="M87.56,310.99h0.71l0.07,0.97h0.03c0.35-0.68,0.87-1.11,1.43-1.11c0.22,0,0.38,0.03,0.54,0.11l-0.16,0.79
			c-0.17-0.06-0.29-0.09-0.49-0.09c-0.43,0-0.94,0.33-1.28,1.23v3.43h-0.85V310.99z"/>
		<path d="M90.78,313.67c0-1.74,1.11-2.81,2.27-2.81c1.29,0,2.01,0.98,2.01,2.51c0,0.19-0.02,0.38-0.04,0.51h-3.4
			c0.06,1.13,0.71,1.87,1.68,1.87c0.48,0,0.88-0.17,1.26-0.43l0.31,0.59c-0.44,0.31-0.98,0.55-1.67,0.55
			C91.85,316.47,90.78,315.43,90.78,313.67z M94.31,313.23c0-1.07-0.45-1.65-1.24-1.65c-0.71,0-1.34,0.6-1.45,1.65H94.31z"/>
		<path d="M95.88,313.23h2.38v0.69h-2.38V313.23z"/>
		<path d="M99.22,314.95c0-1.17,0.95-1.75,3.1-2c0-0.69-0.22-1.35-1.04-1.35c-0.58,0-1.11,0.29-1.5,0.57l-0.33-0.62
			c0.46-0.32,1.17-0.7,1.98-0.7c1.23,0,1.75,0.87,1.75,2.2v3.28h-0.71l-0.07-0.64h-0.03c-0.48,0.42-1.04,0.77-1.67,0.77
			C99.85,316.47,99.22,315.91,99.22,314.95z M102.32,315.03v-1.49c-1.69,0.22-2.26,0.65-2.26,1.34c0,0.61,0.39,0.86,0.88,0.86
			C101.43,315.74,101.83,315.49,102.32,315.03z"/>
		<path d="M104.2,315.73l0.42-0.6c0.44,0.37,0.88,0.63,1.49,0.63c0.66,0,0.99-0.37,0.99-0.83c0-0.55-0.6-0.79-1.15-1.01
			c-0.71-0.27-1.5-0.64-1.5-1.54c0-0.86,0.65-1.52,1.74-1.52c0.63,0,1.18,0.27,1.57,0.6l-0.41,0.58c-0.35-0.27-0.7-0.48-1.15-0.48
			c-0.64,0-0.93,0.36-0.93,0.77c0,0.51,0.55,0.7,1.12,0.93c0.73,0.29,1.54,0.6,1.54,1.62c0,0.87-0.65,1.59-1.84,1.59
			C105.37,316.47,104.68,316.15,104.2,315.73z"/>
		<path d="M108.55,315.73l0.42-0.6c0.44,0.37,0.88,0.63,1.49,0.63c0.66,0,0.99-0.37,0.99-0.83c0-0.55-0.6-0.79-1.15-1.01
			c-0.71-0.27-1.5-0.64-1.5-1.54c0-0.86,0.65-1.52,1.74-1.52c0.63,0,1.18,0.27,1.57,0.6l-0.41,0.58c-0.35-0.27-0.7-0.48-1.15-0.48
			c-0.64,0-0.93,0.36-0.93,0.77c0,0.51,0.55,0.7,1.12,0.93c0.73,0.29,1.54,0.6,1.54,1.62c0,0.87-0.65,1.59-1.84,1.59
			C109.72,316.47,109.02,316.15,108.55,315.73z"/>
		<path d="M113.08,313.67c0-1.74,1.11-2.81,2.27-2.81c1.29,0,2.01,0.98,2.01,2.51c0,0.19-0.02,0.38-0.04,0.51h-3.4
			c0.06,1.13,0.71,1.87,1.68,1.87c0.48,0,0.88-0.17,1.26-0.43l0.31,0.59c-0.44,0.31-0.98,0.55-1.67,0.55
			C114.15,316.47,113.08,315.43,113.08,313.67z M116.61,313.23c0-1.07-0.45-1.65-1.24-1.65c-0.71,0-1.34,0.6-1.45,1.65H116.61z"/>
		<path d="M118.04,315.73l0.42-0.6c0.44,0.37,0.88,0.63,1.49,0.63c0.66,0,0.99-0.37,0.99-0.83c0-0.55-0.6-0.79-1.15-1.01
			c-0.71-0.27-1.5-0.64-1.5-1.54c0-0.86,0.65-1.52,1.74-1.52c0.63,0,1.18,0.27,1.57,0.6l-0.41,0.58c-0.35-0.27-0.7-0.48-1.15-0.48
			c-0.64,0-0.93,0.36-0.93,0.77c0,0.51,0.55,0.7,1.12,0.93c0.73,0.29,1.54,0.6,1.54,1.62c0,0.87-0.65,1.59-1.84,1.59
			C119.21,316.47,118.52,316.15,118.04,315.73z"/>
		<path d="M122.39,315.73l0.42-0.6c0.44,0.37,0.88,0.63,1.49,0.63c0.66,0,0.99-0.37,0.99-0.83c0-0.55-0.6-0.79-1.15-1.01
			c-0.71-0.27-1.5-0.64-1.5-1.54c0-0.86,0.65-1.52,1.74-1.52c0.63,0,1.18,0.27,1.57,0.6l-0.41,0.58c-0.35-0.27-0.7-0.48-1.15-0.48
			c-0.64,0-0.93,0.36-0.93,0.77c0,0.51,0.55,0.7,1.12,0.93c0.73,0.29,1.54,0.6,1.54,1.62c0,0.87-0.65,1.59-1.84,1.59
			C123.56,316.47,122.87,316.15,122.39,315.73z"/>
		<path d="M127.3,310.99h0.71l0.07,0.78h0.03c0.44-0.51,0.97-0.91,1.57-0.91c0.77,0,1.18,0.39,1.39,1.02
			c0.52-0.6,1.05-1.02,1.66-1.02c1.04,0,1.53,0.73,1.53,2.09v3.39h-0.85v-3.27c0-1-0.3-1.42-0.94-1.42c-0.39,0-0.8,0.27-1.26,0.82
			v3.87h-0.85v-3.27c0-1-0.3-1.42-0.94-1.42c-0.38,0-0.8,0.27-1.26,0.82v3.87h-0.85V310.99z"/>
		<path d="M135.53,313.67c0-1.74,1.11-2.81,2.27-2.81c1.29,0,2.01,0.98,2.01,2.51c0,0.19-0.02,0.38-0.04,0.51h-3.4
			c0.06,1.13,0.71,1.87,1.68,1.87c0.48,0,0.88-0.17,1.26-0.43l0.31,0.59c-0.44,0.31-0.98,0.55-1.67,0.55
			C136.6,316.47,135.53,315.43,135.53,313.67z M139.05,313.23c0-1.07-0.45-1.65-1.24-1.65c-0.71,0-1.34,0.6-1.45,1.65H139.05z"/>
		<path d="M141.05,310.99h0.71l0.07,0.77h0.03c0.48-0.5,1-0.9,1.69-0.9c1.06,0,1.54,0.73,1.54,2.09v3.39h-0.85v-3.27
			c0-1-0.28-1.42-0.95-1.42c-0.52,0-0.87,0.28-1.38,0.82v3.87h-0.85V310.99z"/>
		<path d="M146.88,314.68v-2.96h-0.75v-0.69l0.79-0.05l0.1-1.5h0.71v1.5h1.37v0.74h-1.37v2.97c0,0.65,0.2,1.03,0.78,1.03
			c0.18,0,0.41-0.07,0.57-0.14l0.17,0.68c-0.28,0.1-0.62,0.2-0.94,0.2C147.24,316.47,146.88,315.75,146.88,314.68z"/>
		<path d="M151.79,314.47c0-2.14,3.11-2.49,3.11-4.04c0-0.42-0.18-0.8-0.64-0.8c-0.51,0-0.84,0.45-0.84,1.05
			c0,1.35,1.4,3.15,2.7,4.17c0.54,0.43,1.06,0.72,1.5,0.86l-0.23,0.75c-0.54-0.16-1.16-0.49-1.78-1.01
			c-1.49-1.23-2.93-3.24-2.93-4.76c0-0.96,0.63-1.71,1.57-1.71c0.84,0,1.34,0.59,1.34,1.43c0,1.85-2.97,2.42-2.97,4
			c0,0.8,0.59,1.33,1.34,1.33c0.57,0,1.11-0.35,1.56-0.85c0.56-0.64,0.97-1.47,1.22-2.46h0.79c-0.3,1.08-0.76,2.07-1.42,2.89
			c-0.57,0.67-1.3,1.14-2.25,1.14C152.63,316.47,151.79,315.63,151.79,314.47z"/>
		<path d="M88.34,324.47c0-1.78,1.14-2.81,2.43-2.81c0.66,0,1.12,0.29,1.48,0.63l-0.44,0.6c-0.29-0.28-0.6-0.47-1-0.47
			c-0.91,0-1.58,0.83-1.58,2.06s0.63,2.05,1.56,2.05c0.46,0,0.87-0.24,1.18-0.53l0.37,0.61c-0.45,0.43-1.03,0.68-1.63,0.68
			C89.36,327.27,88.34,326.24,88.34,324.47z"/>
		<path d="M93.07,324.47c0-1.78,1.1-2.81,2.34-2.81s2.34,1.03,2.34,2.81c0,1.77-1.1,2.8-2.34,2.8S93.07,326.24,93.07,324.47z
			 M96.86,324.47c0-1.23-0.59-2.06-1.46-2.06c-0.87,0-1.46,0.83-1.46,2.06s0.59,2.05,1.46,2.05
			C96.28,326.51,96.86,325.69,96.86,324.47z"/>
		<path d="M99.07,321.79h0.71l0.07,0.78h0.03c0.44-0.51,0.97-0.91,1.57-0.91c0.77,0,1.18,0.39,1.39,1.02
			c0.52-0.6,1.05-1.02,1.66-1.02c1.04,0,1.53,0.73,1.53,2.09v3.39h-0.85v-3.27c0-1-0.3-1.42-0.94-1.42c-0.39,0-0.8,0.27-1.26,0.82
			v3.87h-0.85v-3.27c0-1-0.3-1.42-0.94-1.42c-0.38,0-0.8,0.27-1.26,0.82v3.87h-0.85V321.79z"/>
		<path d="M107.67,321.79h0.71l0.07,0.78h0.03c0.44-0.51,0.97-0.91,1.57-0.91c0.77,0,1.18,0.39,1.39,1.02
			c0.52-0.6,1.05-1.02,1.66-1.02c1.04,0,1.53,0.73,1.53,2.09v3.39h-0.85v-3.27c0-1-0.3-1.42-0.94-1.42c-0.39,0-0.8,0.27-1.26,0.82
			v3.87h-0.85v-3.27c0-1-0.3-1.42-0.94-1.42c-0.38,0-0.8,0.27-1.26,0.82v3.87h-0.85V321.79z"/>
		<path d="M116.21,325.18v-3.39h0.85v3.27c0,1,0.28,1.42,0.95,1.42c0.52,0,0.87-0.27,1.35-0.9v-3.79h0.85v5.35h-0.71l-0.07-0.84
			h-0.03c-0.47,0.58-0.97,0.97-1.66,0.97C116.69,327.27,116.21,326.54,116.21,325.18z"/>
		<path d="M121.92,321.79h0.71l0.07,0.77h0.03c0.48-0.5,1-0.9,1.69-0.9c1.06,0,1.54,0.73,1.54,2.09v3.39h-0.85v-3.27
			c0-1-0.28-1.42-0.95-1.42c-0.52,0-0.87,0.28-1.38,0.82v3.87h-0.85V321.79z"/>
		<path d="M127.44,320.1c0-0.36,0.26-0.58,0.59-0.58c0.33,0,0.59,0.23,0.59,0.58c0,0.34-0.26,0.58-0.59,0.58
			C127.7,320.69,127.44,320.45,127.44,320.1z M127.6,321.79h0.85v5.35h-0.85V321.79z"/>
		<path d="M129.77,324.47c0-1.78,1.14-2.81,2.43-2.81c0.66,0,1.12,0.29,1.48,0.63l-0.44,0.6c-0.29-0.28-0.6-0.47-1-0.47
			c-0.91,0-1.58,0.83-1.58,2.06s0.63,2.05,1.56,2.05c0.46,0,0.87-0.24,1.18-0.53l0.37,0.61c-0.45,0.43-1.03,0.68-1.63,0.68
			C130.8,327.27,129.77,326.24,129.77,324.47z"/>
		<path d="M134.57,325.75c0-1.17,0.95-1.75,3.1-2c0-0.69-0.22-1.35-1.04-1.35c-0.58,0-1.11,0.29-1.5,0.57l-0.33-0.62
			c0.46-0.32,1.17-0.7,1.98-0.7c1.23,0,1.75,0.87,1.75,2.2v3.28h-0.71l-0.07-0.64h-0.03c-0.48,0.42-1.04,0.77-1.67,0.77
			C135.2,327.27,134.57,326.71,134.57,325.75z M137.67,325.83v-1.49c-1.69,0.22-2.26,0.65-2.26,1.34c0,0.61,0.39,0.86,0.88,0.86
			C136.78,326.54,137.18,326.29,137.67,325.83z"/>
		<path d="M140.26,325.48v-2.96h-0.75v-0.69l0.79-0.05l0.1-1.5h0.71v1.5h1.37v0.74h-1.37v2.97c0,0.65,0.2,1.03,0.78,1.03
			c0.18,0,0.41-0.07,0.57-0.14l0.17,0.68c-0.28,0.1-0.62,0.2-0.94,0.2C140.62,327.27,140.26,326.55,140.26,325.48z"/>
		<path d="M143.46,320.1c0-0.36,0.26-0.58,0.59-0.58c0.33,0,0.59,0.23,0.59,0.58c0,0.34-0.26,0.58-0.59,0.58
			C143.72,320.69,143.46,320.45,143.46,320.1z M143.62,321.79h0.85v5.35h-0.85V321.79z"/>
		<path d="M145.8,324.47c0-1.78,1.1-2.81,2.34-2.81s2.34,1.03,2.34,2.81c0,1.77-1.1,2.8-2.34,2.8S145.8,326.24,145.8,324.47z
			 M149.59,324.47c0-1.23-0.59-2.06-1.46-2.06c-0.87,0-1.46,0.83-1.46,2.06s0.59,2.05,1.46,2.05
			C149,326.51,149.59,325.69,149.59,324.47z"/>
		<path d="M151.8,321.79h0.71l0.07,0.77h0.03c0.48-0.5,1-0.9,1.69-0.9c1.06,0,1.54,0.73,1.54,2.09v3.39h-0.85v-3.27
			c0-1-0.28-1.42-0.95-1.42c-0.52,0-0.87,0.28-1.38,0.82v3.87h-0.85V321.79z"/>
	</g>
</g>
</svg>
