<?xml version="1.0" encoding="utf-8"?>
<!-- Generator: Adobe Illustrator 24.0.1, SVG Export Plug-In . SVG Version: 6.00 Build 0)  -->
<svg version="1.1" id="Layer_1" xmlns="http://www.w3.org/2000/svg" xmlns:xlink="http://www.w3.org/1999/xlink" x="0px" y="0px"
	 viewBox="0 0 453.5 399.9" style="enable-background:new 0 0 453.5 399.9;" xml:space="preserve">
<style type="text/css">
	.st0{fill:none;stroke:#000000;stroke-miterlimit:10;}
	.st1{fill:none;stroke:#000000;stroke-miterlimit:10;stroke-dasharray:6.0936,6.0936;}
	.st2{fill:none;stroke:#000000;stroke-miterlimit:10;stroke-dasharray:5.9735,5.9735;}
	.st3{fill:#FFFFFF;}
	.st4{fill:#58595B;}
	.st5{fill:#D1D3D4;stroke:#000000;stroke-miterlimit:10;}
	.st6{fill:#77787B;}
</style>
<g>
	<g>
		<polyline class="st0" points="203.5,355.3 203.5,358.3 200.5,358.3 		"/>
		<line class="st1" x1="194.4" y1="358.3" x2="75.5" y2="358.3"/>
		<polyline class="st0" points="72.5,358.3 69.5,358.3 69.5,355.3 		"/>
		<line class="st2" x1="69.5" y1="349.3" x2="69.5" y2="197"/>
		<polyline class="st0" points="69.5,194 69.5,191 72.5,191 		"/>
		<line class="st1" x1="78.6" y1="191" x2="197.4" y2="191"/>
		<polyline class="st0" points="200.5,191 203.5,191 203.5,194 		"/>
		<line class="st2" x1="203.5" y1="199.9" x2="203.5" y2="352.3"/>
	</g>
</g>
<rect x="189.8" y="201.2" class="st3" width="23.4" height="128.3"/>
<ellipse class="st4" cx="84.8" cy="111.9" rx="58.2" ry="38.8"/>
<ellipse class="st4" cx="231.3" cy="49" rx="58.2" ry="38.8"/>
<ellipse class="st4" cx="377.9" cy="111.9" rx="58.2" ry="38.8"/>
<g>
	<g>
		<path class="st3" d="M33.1,104.3c0-2.3,1.2-3.7,2.9-3.7s2.9,1.4,2.9,3.7c0,2.3-1.2,3.7-2.9,3.7S33.1,106.7,33.1,104.3z
			 M37.4,104.3c0-1.4-0.5-2.3-1.4-2.3s-1.4,0.8-1.4,2.3s0.5,2.3,1.4,2.3S37.4,105.8,37.4,104.3z"/>
		<path class="st3" d="M41.2,102.1h-1.7v-1.4h4.9v1.4h-1.7v5.8h-1.4V102.1z"/>
		<path class="st3" d="M45.4,100.8h1.4v2.8H49v-2.8h1.4v7.2H49v-3h-2.2v3h-1.4V100.8z"/>
		<path class="st3" d="M51.9,100.8h3.9v1.4h-2.5v1.4h2.1v1.4h-2.1v1.7h2.6v1.4h-4V100.8z"/>
		<path class="st3" d="M57.2,100.8h2.3c1.3,0,2.4,0.5,2.4,2.2c0,1.6-1.1,2.4-2.4,2.4h-0.8v2.6h-1.4V100.8z M59.3,104.1
			c0.7,0,1.2-0.4,1.2-1.1c0-0.7-0.4-0.9-1.2-0.9h-0.7v2H59.3z M59.2,104.9l1-1l2,4h-1.6L59.2,104.9z"/>
		<path class="st3" d="M65,100.8h2.2c1.4,0,2.5,0.6,2.5,2.3c0,1.7-1.1,2.4-2.5,2.4h-0.8v2.4H65V100.8z M67.2,104.2
			c0.8,0,1.2-0.4,1.2-1.1c0-0.8-0.4-1-1.2-1h-0.7v2.2H67.2z"/>
		<path class="st3" d="M70.8,100.8h2.3c1.3,0,2.4,0.5,2.4,2.2c0,1.6-1.1,2.4-2.4,2.4h-0.8v2.6h-1.4V100.8z M73,104.1
			c0.7,0,1.2-0.4,1.2-1.1c0-0.7-0.4-0.9-1.2-0.9h-0.7v2H73z M72.8,104.9l1-1l2,4h-1.6L72.8,104.9z"/>
		<path class="st3" d="M76.4,104.3c0-2.3,1.2-3.7,2.9-3.7s2.9,1.4,2.9,3.7c0,2.3-1.2,3.7-2.9,3.7S76.4,106.7,76.4,104.3z
			 M80.7,104.3c0-1.4-0.5-2.3-1.4-2.3s-1.4,0.8-1.4,2.3s0.5,2.3,1.4,2.3S80.7,105.8,80.7,104.3z"/>
		<path class="st3" d="M83.3,100.8h4v1.4h-2.5v1.7h2.2v1.4h-2.2v2.8h-1.4V100.8z"/>
		<path class="st3" d="M88.4,100.8h3.9v1.4h-2.5v1.4H92v1.4h-2.1v1.7h2.6v1.4h-4V100.8z"/>
		<path class="st3" d="M93.3,107l0.8-1.1c0.4,0.4,1,0.7,1.5,0.7c0.6,0,0.9-0.3,0.9-0.7c0-0.5-0.4-0.6-0.9-0.9l-0.8-0.4
			c-0.7-0.3-1.3-0.9-1.3-2c0-1.2,0.9-2.1,2.2-2.1c0.7,0,1.5,0.3,2,0.9l-0.7,1c-0.4-0.4-0.8-0.6-1.3-0.6c-0.5,0-0.8,0.2-0.8,0.6
			c0,0.4,0.4,0.6,1,0.8l0.8,0.4c0.8,0.4,1.2,0.9,1.2,2c0,1.2-0.9,2.2-2.4,2.2C94.8,108.1,93.9,107.7,93.3,107z"/>
		<path class="st3" d="M98.7,107l0.8-1.1c0.4,0.4,1,0.7,1.5,0.7c0.6,0,0.9-0.3,0.9-0.7c0-0.5-0.4-0.6-0.9-0.9l-0.8-0.4
			c-0.7-0.3-1.3-0.9-1.3-2c0-1.2,0.9-2.1,2.2-2.1c0.7,0,1.5,0.3,2,0.9l-0.7,1c-0.4-0.4-0.8-0.6-1.3-0.6c-0.5,0-0.8,0.2-0.8,0.6
			c0,0.4,0.4,0.6,1,0.8l0.8,0.4c0.8,0.4,1.2,0.9,1.2,2c0,1.2-0.9,2.2-2.4,2.2C100.2,108.1,99.3,107.7,98.7,107z"/>
		<path class="st3" d="M104.5,100.8h1.4v7.2h-1.4V100.8z"/>
		<path class="st3" d="M107.1,104.3c0-2.3,1.2-3.7,2.9-3.7s2.9,1.4,2.9,3.7c0,2.3-1.2,3.7-2.9,3.7S107.1,106.7,107.1,104.3z
			 M111.3,104.3c0-1.4-0.5-2.3-1.4-2.3s-1.4,0.8-1.4,2.3s0.5,2.3,1.4,2.3S111.3,105.8,111.3,104.3z"/>
		<path class="st3" d="M114,100.8h1.5l1.6,3.6l0.6,1.6h0c-0.1-0.8-0.2-1.8-0.2-2.6v-2.5h1.4v7.2h-1.5l-1.6-3.6l-0.6-1.6h0
			c0.1,0.8,0.2,1.8,0.2,2.6v2.5H114V100.8z"/>
		<path class="st3" d="M121.6,100.8h1.7l2,7.2h-1.5l-0.8-3.6c-0.2-0.7-0.3-1.6-0.5-2.3h0c-0.2,0.8-0.3,1.6-0.5,2.3l-0.8,3.6h-1.5
			L121.6,100.8z M120.9,105h3v1.3h-3V105z"/>
		<path class="st3" d="M125.9,100.8h1.4v5.8h2.5v1.4h-3.9V100.8z"/>
		<path class="st3" d="M130.5,107l0.8-1.1c0.4,0.4,1,0.7,1.5,0.7c0.6,0,0.9-0.3,0.9-0.7c0-0.5-0.4-0.6-0.9-0.9l-0.8-0.4
			c-0.7-0.3-1.3-0.9-1.3-2c0-1.2,0.9-2.1,2.2-2.1c0.7,0,1.5,0.3,2,0.9l-0.7,1c-0.4-0.4-0.8-0.6-1.3-0.6c-0.5,0-0.8,0.2-0.8,0.6
			c0,0.4,0.4,0.6,1,0.8l0.8,0.4c0.8,0.4,1.2,0.9,1.2,2c0,1.2-0.9,2.2-2.4,2.2C132.1,108.1,131.2,107.7,130.5,107z"/>
		<path class="st3" d="M59.2,114h1.4v5.8h2.5v1.4h-3.9V114z"/>
		<path class="st3" d="M65.4,114h1.7l2,7.2h-1.5l-0.8-3.6c-0.2-0.7-0.3-1.6-0.5-2.3h0c-0.2,0.8-0.3,1.6-0.5,2.3l-0.8,3.6h-1.5
			L65.4,114z M64.7,118.2h3v1.3h-3V118.2z"/>
		<path class="st3" d="M70.9,118.6L69,114h1.5l0.6,1.6c0.2,0.5,0.3,1,0.5,1.6h0c0.2-0.6,0.4-1.1,0.5-1.6l0.6-1.6h1.5l-1.9,4.6v2.6
			h-1.4V118.6z"/>
		<path class="st3" d="M76.5,117.6c0-2.4,1.4-3.8,3-3.8c0.8,0,1.5,0.4,1.9,0.9l-0.8,1c-0.3-0.3-0.7-0.6-1.1-0.6
			c-0.9,0-1.5,0.9-1.5,2.3c0,1.5,0.6,2.3,1.5,2.3c0.5,0,0.9-0.3,1.2-0.7l0.8,1c-0.5,0.7-1.2,1.1-2,1.1
			C77.8,121.3,76.5,120,76.5,117.6z"/>
		<path class="st3" d="M83.6,114h1.7l2,7.2h-1.5l-0.8-3.6c-0.2-0.7-0.3-1.6-0.5-2.3h0c-0.2,0.8-0.3,1.6-0.5,2.3l-0.8,3.6h-1.5
			L83.6,114z M82.9,118.2h3v1.3h-3V118.2z"/>
		<path class="st3" d="M88,114h2.3c1.3,0,2.4,0.5,2.4,2.2c0,1.6-1.1,2.4-2.4,2.4h-0.8v2.6H88V114z M90.1,117.3
			c0.7,0,1.2-0.4,1.2-1.1c0-0.7-0.4-0.9-1.2-0.9h-0.7v2H90.1z M90,118.1l1-1l2,4h-1.6L90,118.1z"/>
		<path class="st3" d="M93.9,114h3.9v1.4h-2.5v1.4h2.1v1.4h-2.1v1.7h2.6v1.4h-4V114z"/>
		<path class="st3" d="M99.2,114h2.3c1.3,0,2.4,0.5,2.4,2.2c0,1.6-1.1,2.4-2.4,2.4h-0.8v2.6h-1.4V114z M101.3,117.3
			c0.7,0,1.2-0.4,1.2-1.1c0-0.7-0.4-0.9-1.2-0.9h-0.7v2H101.3z M101.2,118.1l1-1l2,4h-1.6L101.2,118.1z"/>
		<path class="st3" d="M104.7,120.2l0.8-1.1c0.4,0.4,1,0.7,1.5,0.7c0.6,0,0.9-0.3,0.9-0.7c0-0.5-0.4-0.6-0.9-0.9l-0.8-0.4
			c-0.7-0.3-1.3-0.9-1.3-2c0-1.2,0.9-2.1,2.2-2.1c0.7,0,1.5,0.3,2,0.9l-0.7,1c-0.4-0.4-0.8-0.6-1.3-0.6c-0.5,0-0.8,0.2-0.8,0.6
			c0,0.4,0.4,0.6,1,0.8l0.8,0.4c0.8,0.4,1.2,0.9,1.2,2c0,1.2-0.9,2.2-2.4,2.2C106.2,121.3,105.3,120.9,104.7,120.2z"/>
		<path class="st3" d="M64.9,133.4l0.8-1.1c0.4,0.4,1,0.7,1.5,0.7c0.6,0,0.9-0.3,0.9-0.7c0-0.5-0.4-0.6-0.9-0.9l-0.8-0.4
			c-0.7-0.3-1.3-0.9-1.3-2c0-1.2,0.9-2.1,2.2-2.1c0.7,0,1.5,0.3,2,0.9l-0.7,1c-0.4-0.4-0.8-0.6-1.3-0.6c-0.5,0-0.8,0.2-0.8,0.6
			c0,0.4,0.4,0.6,1,0.8l0.8,0.4c0.8,0.4,1.2,0.9,1.2,2c0,1.2-0.9,2.2-2.4,2.2C66.4,134.5,65.5,134.1,64.9,133.4z"/>
		<path class="st3" d="M70.3,130.8c0-2.4,1.4-3.8,3-3.8c0.8,0,1.5,0.4,1.9,0.9l-0.8,1c-0.3-0.3-0.7-0.6-1.1-0.6
			c-0.9,0-1.5,0.9-1.5,2.3c0,1.5,0.6,2.3,1.5,2.3c0.5,0,0.9-0.3,1.2-0.7l0.8,1c-0.5,0.7-1.2,1.1-2,1.1
			C71.7,134.5,70.3,133.2,70.3,130.8z"/>
		<path class="st3" d="M76.3,127.2h1.4v2.8h2.2v-2.8h1.4v7.2h-1.4v-3h-2.2v3h-1.4V127.2z"/>
		<path class="st3" d="M82.5,130.7c0-2.3,1.2-3.7,2.9-3.7s2.9,1.4,2.9,3.7c0,2.3-1.2,3.7-2.9,3.7S82.5,133.1,82.5,130.7z
			 M86.7,130.7c0-1.4-0.5-2.3-1.4-2.3s-1.4,0.8-1.4,2.3s0.5,2.3,1.4,2.3S86.7,132.2,86.7,130.7z"/>
		<path class="st3" d="M89.1,130.7c0-2.3,1.2-3.7,2.9-3.7s2.9,1.4,2.9,3.7c0,2.3-1.2,3.7-2.9,3.7S89.1,133.1,89.1,130.7z
			 M93.4,130.7c0-1.4-0.5-2.3-1.4-2.3s-1.4,0.8-1.4,2.3s0.5,2.3,1.4,2.3S93.4,132.2,93.4,130.7z"/>
		<path class="st3" d="M96,127.2h1.4v5.8h2.5v1.4H96V127.2z"/>
		<path class="st3" d="M100.6,133.4l0.8-1.1c0.4,0.4,1,0.7,1.5,0.7c0.6,0,0.9-0.3,0.9-0.7c0-0.5-0.4-0.6-0.9-0.9l-0.8-0.4
			c-0.7-0.3-1.3-0.9-1.3-2c0-1.2,0.9-2.1,2.2-2.1c0.7,0,1.5,0.3,2,0.9l-0.7,1c-0.4-0.4-0.8-0.6-1.3-0.6c-0.5,0-0.8,0.2-0.8,0.6
			c0,0.4,0.4,0.6,1,0.8l0.8,0.4c0.8,0.4,1.2,0.9,1.2,2c0,1.2-0.9,2.2-2.4,2.2C102.1,134.5,101.2,134.1,100.6,133.4z"/>
	</g>
</g>
<g>
	<g>
		<path class="st3" d="M218.7,48.5c0-2.4,1.4-3.8,3-3.8c0.8,0,1.5,0.4,1.9,0.9l-0.8,1c-0.3-0.3-0.7-0.6-1.1-0.6
			c-0.9,0-1.5,0.9-1.5,2.3c0,1.5,0.6,2.3,1.5,2.3c0.5,0,0.9-0.3,1.2-0.7l0.8,1c-0.5,0.7-1.2,1.1-2,1.1
			C220,52.1,218.7,50.9,218.7,48.5z"/>
		<path class="st3" d="M224.6,44.8h1.4v2.8h2.2v-2.8h1.4V52h-1.4v-3H226v3h-1.4V44.8z"/>
		<path class="st3" d="M231.1,44.8h1.4V52h-1.4V44.8z"/>
		<path class="st3" d="M234,44.8h1.4v5.8h2.5V52H234V44.8z"/>
		<path class="st3" d="M239,44.8h1.8c1.9,0,3.2,1.1,3.2,3.6s-1.2,3.6-3.1,3.6H239V44.8z M240.7,50.7c1.1,0,1.8-0.6,1.8-2.3
			s-0.7-2.2-1.8-2.2h-0.3v4.6H240.7z"/>
	</g>
</g>
<g>
	<g>
		<path class="st3" d="M362,101.7h4v1.4h-2.5v1.7h2.2v1.4h-2.2v2.8H362V101.7z"/>
		<path class="st3" d="M368.3,101.7h1.7l2,7.2h-1.5l-0.8-3.6c-0.2-0.7-0.3-1.6-0.5-2.3h0c-0.2,0.8-0.3,1.6-0.5,2.3l-0.8,3.6h-1.5
			L368.3,101.7z M367.6,105.9h3v1.3h-3V105.9z"/>
		<path class="st3" d="M372.6,101.7h1.6l1,3.2c0.1,0.4,0.2,0.9,0.4,1.3h0c0.1-0.4,0.2-0.9,0.4-1.3l1-3.2h1.6v7.2h-1.3v-2.6
			c0-0.7,0.1-1.7,0.2-2.4h0l-0.5,1.7l-0.9,2.7h-0.8l-0.9-2.7l-0.5-1.7h0c0.1,0.7,0.2,1.7,0.2,2.4v2.6h-1.3V101.7z"/>
		<path class="st3" d="M380,101.7h1.4v7.2H380V101.7z"/>
		<path class="st3" d="M382.9,101.7h1.4v5.8h2.5v1.4h-3.9V101.7z"/>
		<path class="st3" d="M389,106.3l-1.9-4.6h1.5l0.6,1.6c0.2,0.5,0.3,1,0.5,1.6h0c0.2-0.6,0.4-1.1,0.5-1.6l0.6-1.6h1.5l-1.9,4.6v2.6
			H389V106.3z"/>
		<path class="st3" d="M394.3,101.1h0.9l-1.9,9.6h-0.9L394.3,101.1z"/>
		<path class="st3" d="M352.1,118.5c0-2.4,1.4-3.8,3-3.8c0.8,0,1.5,0.4,1.9,0.9l-0.8,1c-0.3-0.3-0.7-0.6-1.1-0.6
			c-0.9,0-1.5,0.9-1.5,2.3c0,1.5,0.6,2.3,1.5,2.3c0.5,0,0.9-0.3,1.2-0.7l0.8,1c-0.5,0.7-1.2,1.1-2,1.1
			C353.5,122.2,352.1,120.9,352.1,118.5z"/>
		<path class="st3" d="M359.2,114.9h1.7l2,7.2h-1.5l-0.8-3.6c-0.2-0.7-0.3-1.6-0.5-2.3h0c-0.2,0.8-0.3,1.6-0.5,2.3l-0.8,3.6h-1.5
			L359.2,114.9z M358.5,119.1h3v1.3h-3V119.1z"/>
		<path class="st3" d="M363.6,114.9h2.3c1.3,0,2.4,0.5,2.4,2.2c0,1.6-1.1,2.4-2.4,2.4H365v2.6h-1.4V114.9z M365.7,118.2
			c0.7,0,1.2-0.4,1.2-1.1c0-0.7-0.4-0.9-1.2-0.9H365v2H365.7z M365.6,119.1l1-1l2,4H367L365.6,119.1z"/>
		<path class="st3" d="M369.5,114.9h3.9v1.4h-2.5v1.4h2.1v1.4h-2.1v1.7h2.6v1.4h-4V114.9z"/>
		<path class="st3" d="M374.5,118.5c0-2.4,1.4-3.8,3.1-3.8c0.9,0,1.6,0.4,2,0.9l-0.8,1c-0.3-0.3-0.6-0.6-1.2-0.6
			c-1,0-1.7,0.9-1.7,2.3c0,1.5,0.6,2.3,1.8,2.3c0.3,0,0.5-0.1,0.7-0.2v-1.2h-1V118h2.3v3.3c-0.4,0.5-1.2,0.9-2.1,0.9
			C375.9,122.2,374.5,120.9,374.5,118.5z"/>
		<path class="st3" d="M381,114.9h1.4v7.2H381V114.9z"/>
		<path class="st3" d="M383.1,114.9h1.5l0.8,3.3c0.2,0.8,0.3,1.5,0.5,2.3h0c0.2-0.8,0.3-1.5,0.5-2.3l0.7-3.3h1.5l-1.9,7.2H385
			L383.1,114.9z"/>
		<path class="st3" d="M389.3,114.9h3.9v1.4h-2.5v1.4h2.1v1.4h-2.1v1.7h2.6v1.4h-4V114.9z"/>
		<path class="st3" d="M394.6,114.9h2.3c1.3,0,2.4,0.5,2.4,2.2c0,1.6-1.1,2.4-2.4,2.4H396v2.6h-1.4V114.9z M396.7,118.2
			c0.7,0,1.2-0.4,1.2-1.1c0-0.7-0.4-0.9-1.2-0.9H396v2H396.7z M396.6,119.1l1-1l2,4H398L396.6,119.1z"/>
		<path class="st3" d="M400.1,121.2l0.8-1.1c0.4,0.4,1,0.7,1.5,0.7c0.6,0,0.9-0.3,0.9-0.7c0-0.5-0.4-0.6-0.9-0.9l-0.8-0.4
			c-0.7-0.3-1.3-0.9-1.3-2c0-1.2,0.9-2.1,2.2-2.1c0.7,0,1.5,0.3,2,0.9l-0.7,1c-0.4-0.4-0.8-0.6-1.3-0.6c-0.5,0-0.8,0.2-0.8,0.6
			c0,0.4,0.4,0.6,1,0.8l0.8,0.4c0.8,0.4,1.2,0.9,1.2,2c0,1.2-0.9,2.2-2.4,2.2C401.6,122.2,400.7,121.8,400.1,121.2z"/>
	</g>
</g>
<rect x="173.1" y="149.2" class="st5" width="116.5" height="64.9"/>
<rect x="173.1" y="235" class="st5" width="116.5" height="64.9"/>
<rect x="173.1" y="320.8" class="st5" width="116.5" height="64.9"/>
<g>
	<g>
		<path d="M206.8,182.8c0-1.9,1.1-3.1,2.6-3.1c0.8,0,1.3,0.4,1.6,0.7l-0.4,0.5c-0.3-0.3-0.6-0.6-1.2-0.6c-1.1,0-1.8,0.9-1.8,2.4
			c0,1.5,0.7,2.4,1.8,2.4c0.4,0,0.8-0.1,1-0.3v-1.5h-1.2v-0.6h1.8v2.5c-0.4,0.4-1,0.7-1.7,0.7C207.8,185.9,206.8,184.8,206.8,182.8z
			"/>
		<path d="M213.5,179.9h0.8l1.9,5.9h-0.8l-1-3.3c-0.2-0.7-0.4-1.3-0.6-2h0c-0.2,0.7-0.4,1.3-0.6,2l-1,3.3h-0.7L213.5,179.9z
			 M212.6,183.4h2.6v0.6h-2.6V183.4z"/>
		<path d="M218.1,180.5h-1.7v-0.6h4.1v0.6h-1.7v5.3h-0.7V180.5z"/>
		<path d="M221.5,179.9h0.7v2.5h2.6v-2.5h0.7v5.9h-0.7V183h-2.6v2.8h-0.7V179.9z"/>
		<path d="M227.1,179.9h3.2v0.6h-2.5v1.9h2.1v0.6h-2.1v2.1h2.6v0.6h-3.3V179.9z"/>
		<path d="M231.5,179.9h1.7c1.1,0,1.9,0.4,1.9,1.7c0,1.2-0.8,1.7-1.9,1.7h-1v2.5h-0.7V179.9z M233.2,182.7c0.9,0,1.3-0.4,1.3-1.1
			c0-0.8-0.5-1.1-1.3-1.1h-0.9v2.2H233.2z M233.1,183.1l0.6-0.4l1.7,3.1h-0.8L233.1,183.1z"/>
		<path d="M238.1,179.9h1.4c1.7,0,2.6,1.1,2.6,2.9s-0.9,3-2.6,3h-1.4V179.9z M239.4,185.2c1.3,0,2-0.9,2-2.4s-0.6-2.3-2-2.3h-0.6
			v4.7H239.4z"/>
		<path d="M244.4,179.9h0.8l1.9,5.9h-0.8l-1-3.3c-0.2-0.7-0.4-1.3-0.6-2h0c-0.2,0.7-0.4,1.3-0.6,2l-1,3.3h-0.7L244.4,179.9z
			 M243.5,183.4h2.6v0.6h-2.6V183.4z"/>
		<path d="M249.1,180.5h-1.7v-0.6h4.1v0.6h-1.7v5.3h-0.7V180.5z"/>
		<path d="M253.6,179.9h0.8l1.9,5.9h-0.8l-1-3.3c-0.2-0.7-0.4-1.3-0.6-2h0c-0.2,0.7-0.4,1.3-0.6,2l-1,3.3h-0.7L253.6,179.9z
			 M252.7,183.4h2.6v0.6h-2.6V183.4z"/>
	</g>
</g>
<g>
	<g>
		<path d="M215.3,260.3h1.6c1.2,0,2.1,0.4,2.1,1.7c0,1.2-0.8,1.8-2.1,1.8H216v2.3h-0.7V260.3z M216.8,263.2c1,0,1.4-0.4,1.4-1.2
			c0-0.9-0.5-1.1-1.5-1.1H216v2.3H216.8z"/>
		<path d="M220.1,260.3h1.7c1.1,0,1.9,0.4,1.9,1.7c0,1.2-0.8,1.7-1.9,1.7h-1v2.5h-0.7V260.3z M221.7,263.1c0.9,0,1.3-0.4,1.3-1.1
			c0-0.8-0.5-1.1-1.3-1.1h-0.9v2.2H221.7z M221.7,263.5l0.6-0.4l1.7,3.1h-0.8L221.7,263.5z"/>
		<path d="M224.6,263.2c0-1.9,1-3,2.4-3s2.4,1.2,2.4,3c0,1.9-1,3.1-2.4,3.1S224.6,265.1,224.6,263.2z M228.6,263.2
			c0-1.5-0.7-2.4-1.6-2.4s-1.6,0.9-1.6,2.4s0.7,2.4,1.6,2.4S228.6,264.7,228.6,263.2z"/>
		<path d="M230.2,263.3c0-1.9,1.1-3.1,2.5-3.1c0.7,0,1.2,0.3,1.5,0.7l-0.4,0.5c-0.3-0.3-0.7-0.6-1.1-0.6c-1.1,0-1.8,0.9-1.8,2.4
			c0,1.5,0.7,2.4,1.7,2.4c0.5,0,0.9-0.2,1.3-0.7l0.4,0.5c-0.4,0.5-1,0.9-1.7,0.9C231.2,266.3,230.2,265.2,230.2,263.3z"/>
		<path d="M235.4,260.3h3.2v0.6h-2.5v1.9h2.1v0.6h-2.1v2.1h2.6v0.6h-3.3V260.3z"/>
		<path d="M239.5,265.4l0.4-0.5c0.4,0.4,1,0.7,1.5,0.7c0.7,0,1.2-0.4,1.2-1c0-0.6-0.4-0.8-0.9-1l-0.8-0.4c-0.5-0.2-1.1-0.7-1.1-1.5
			c0-0.9,0.7-1.6,1.8-1.6c0.7,0,1.2,0.3,1.6,0.7l-0.4,0.5c-0.3-0.3-0.7-0.6-1.3-0.6c-0.6,0-1,0.3-1,0.9c0,0.6,0.5,0.8,0.9,1l0.8,0.4
			c0.6,0.3,1.1,0.7,1.1,1.6c0,0.9-0.7,1.7-1.9,1.7C240.6,266.3,239.9,266,239.5,265.4z"/>
		<path d="M244,265.4l0.4-0.5c0.4,0.4,1,0.7,1.5,0.7c0.7,0,1.2-0.4,1.2-1c0-0.6-0.4-0.8-0.9-1l-0.8-0.4c-0.5-0.2-1.1-0.7-1.1-1.5
			c0-0.9,0.7-1.6,1.8-1.6c0.7,0,1.2,0.3,1.6,0.7l-0.4,0.5c-0.3-0.3-0.7-0.6-1.3-0.6c-0.6,0-1,0.3-1,0.9c0,0.6,0.5,0.8,0.9,1l0.8,0.4
			c0.6,0.3,1.1,0.7,1.1,1.6c0,0.9-0.7,1.7-1.9,1.7C245.2,266.3,244.5,266,244,265.4z"/>
		<path d="M206.5,271.1h0.7v5.9h-0.7V271.1z"/>
		<path d="M208.8,271.1h0.7l2,3.7l0.6,1.2h0c0-0.6-0.1-1.3-0.1-1.9v-3.1h0.7v5.9H212l-2-3.7l-0.6-1.2h0c0,0.6,0.1,1.2,0.1,1.8v3.1
			h-0.7V271.1z"/>
		<path d="M214.3,271.1h3.2v0.6H215v2h2.1v0.6H215v2.6h-0.7V271.1z"/>
		<path d="M218.1,274c0-1.9,1-3,2.4-3s2.4,1.2,2.4,3c0,1.9-1,3.1-2.4,3.1S218.1,275.9,218.1,274z M222.2,274c0-1.5-0.7-2.4-1.6-2.4
			s-1.6,0.9-1.6,2.4s0.7,2.4,1.6,2.4S222.2,275.5,222.2,274z"/>
		<path d="M224.1,271.1h1.7c1.1,0,1.9,0.4,1.9,1.7c0,1.2-0.8,1.7-1.9,1.7h-1v2.5h-0.7V271.1z M225.7,273.9c0.9,0,1.3-0.4,1.3-1.1
			c0-0.8-0.5-1.1-1.3-1.1h-0.9v2.2H225.7z M225.7,274.3l0.6-0.4l1.7,3.1h-0.8L225.7,274.3z"/>
		<path d="M228.9,271.1h0.9l1.1,3.2c0.1,0.4,0.3,0.8,0.4,1.2h0c0.1-0.4,0.3-0.8,0.4-1.2l1.1-3.2h0.9v5.9h-0.7v-3.3
			c0-0.5,0.1-1.2,0.1-1.7h0l-0.4,1.3l-1,3.1H231l-1.1-3.1l-0.4-1.3h0c0,0.5,0.1,1.2,0.1,1.7v3.3h-0.6V271.1z"/>
		<path d="M236.3,271.1h0.8l1.9,5.9h-0.8l-1-3.3c-0.2-0.7-0.4-1.3-0.6-2h0c-0.2,0.7-0.4,1.3-0.6,2l-1,3.3h-0.7L236.3,271.1z
			 M235.4,274.6h2.6v0.6h-2.6V274.6z"/>
		<path d="M240.9,271.7h-1.7v-0.6h4.1v0.6h-1.7v5.3h-0.7V271.7z"/>
		<path d="M244.3,271.1h0.7v5.9h-0.7V271.1z"/>
		<path d="M246.2,274c0-1.9,1-3,2.4-3s2.4,1.2,2.4,3c0,1.9-1,3.1-2.4,3.1S246.2,275.9,246.2,274z M250.2,274c0-1.5-0.7-2.4-1.6-2.4
			s-1.6,0.9-1.6,2.4s0.7,2.4,1.6,2.4S250.2,275.5,250.2,274z"/>
		<path d="M252.1,271.1h0.7l2,3.7l0.6,1.2h0c0-0.6-0.1-1.3-0.1-1.9v-3.1h0.7v5.9h-0.7l-2-3.7l-0.6-1.2h0c0,0.6,0.1,1.2,0.1,1.8v3.1
			h-0.7V271.1z"/>
	</g>
</g>
<g>
	<g>
		<path d="M204.9,347.4c0-1.9,1.1-3.1,2.5-3.1c0.7,0,1.2,0.3,1.5,0.7l-0.4,0.5c-0.3-0.3-0.7-0.6-1.1-0.6c-1.1,0-1.8,0.9-1.8,2.4
			c0,1.5,0.7,2.4,1.7,2.4c0.5,0,0.9-0.2,1.3-0.7l0.4,0.5c-0.4,0.5-1,0.9-1.7,0.9C205.9,350.5,204.9,349.3,204.9,347.4z"/>
		<path d="M209.7,347.4c0-1.9,1-3,2.4-3s2.4,1.2,2.4,3c0,1.9-1,3.1-2.4,3.1S209.7,349.3,209.7,347.4z M213.7,347.4
			c0-1.5-0.7-2.4-1.6-2.4s-1.6,0.9-1.6,2.4s0.7,2.4,1.6,2.4S213.7,348.8,213.7,347.4z"/>
		<path d="M215.7,344.4h0.9l1.1,3.2c0.1,0.4,0.3,0.8,0.4,1.2h0c0.1-0.4,0.3-0.8,0.4-1.2l1.1-3.2h0.9v5.9h-0.7v-3.3
			c0-0.5,0.1-1.2,0.1-1.7h0l-0.4,1.3l-1,3.1h-0.5l-1.1-3.1l-0.4-1.3h0c0,0.5,0.1,1.2,0.1,1.7v3.3h-0.6V344.4z"/>
		<path d="M221.8,344.4h3.2v0.6h-2.5v1.9h2.1v0.6h-2.1v2.1h2.6v0.6h-3.3V344.4z"/>
		<path d="M228,347.9v-3.5h0.7v3.5c0,1.4,0.6,1.9,1.3,1.9c0.7,0,1.3-0.4,1.3-1.9v-3.5h0.7v3.5c0,1.9-0.9,2.5-2,2.5
			S228,349.8,228,347.9z"/>
		<path d="M233.5,344.4h1.6c1.2,0,2.1,0.4,2.1,1.7c0,1.2-0.8,1.8-2.1,1.8h-0.9v2.3h-0.7V344.4z M235,347.4c1,0,1.4-0.4,1.4-1.2
			c0-0.9-0.5-1.1-1.5-1.1h-0.8v2.3H235z"/>
		<path d="M239.4,344.4h0.7l0.6,3.2c0.1,0.6,0.2,1.3,0.3,1.9h0c0.1-0.6,0.3-1.3,0.4-1.9l0.8-3.2h0.6l0.8,3.2
			c0.1,0.6,0.3,1.3,0.4,1.9h0c0.1-0.6,0.2-1.3,0.3-1.9l0.6-3.2h0.7l-1.2,5.9h-0.9l-0.8-3.6c-0.1-0.5-0.2-0.9-0.3-1.3h0
			c-0.1,0.5-0.2,0.9-0.3,1.3l-0.8,3.6h-0.8L239.4,344.4z"/>
		<path d="M246.7,344.4h0.7v5.9h-0.7V344.4z"/>
		<path d="M250.1,345.1h-1.7v-0.6h4.1v0.6h-1.7v5.3h-0.7V345.1z"/>
		<path d="M253.5,344.4h0.7v2.5h2.6v-2.5h0.7v5.9h-0.7v-2.8h-2.6v2.8h-0.7V344.4z"/>
		<path d="M220.6,355.2h0.8l1.9,5.9h-0.8l-1-3.3c-0.2-0.7-0.4-1.3-0.6-2h0c-0.2,0.7-0.4,1.3-0.6,2l-1,3.3h-0.7L220.6,355.2z
			 M219.7,358.7h2.6v0.6h-2.6V358.7z"/>
		<path d="M225.7,355.2h1.6c1.2,0,2.1,0.4,2.1,1.7c0,1.2-0.8,1.8-2.1,1.8h-0.9v2.3h-0.7V355.2z M227.3,358.2c1,0,1.4-0.4,1.4-1.2
			c0-0.9-0.5-1.1-1.5-1.1h-0.8v2.3H227.3z"/>
		<path d="M230.5,355.2h0.7v5.3h2.4v0.6h-3.1V355.2z"/>
		<path d="M235.8,355.2h0.8l1.9,5.9h-0.8l-1-3.3c-0.2-0.7-0.4-1.3-0.6-2h0c-0.2,0.7-0.4,1.3-0.6,2l-1,3.3h-0.7L235.8,355.2z
			 M234.9,358.7h2.6v0.6h-2.6V358.7z"/>
		<path d="M239.3,355.2h0.7l2,3.7l0.6,1.2h0c0-0.6-0.1-1.3-0.1-1.9v-3.1h0.7v5.9h-0.7l-2-3.7l-0.6-1.2h0c0,0.6,0.1,1.2,0.1,1.8v3.1
			h-0.7V355.2z"/>
	</g>
</g>
<line class="st0" x1="119.2" y1="148.3" x2="165.7" y2="173.7"/>
<line class="st0" x1="342.9" y1="148.3" x2="296.4" y2="173.7"/>
<line class="st0" x1="231.3" y1="94.6" x2="231.3" y2="138.1"/>
<polygon points="305.6,175.6 303.9,173 302.3,170.5 302.3,170.5 300.6,167.9 298.9,165.4 293.7,176 "/>
<polygon points="161.1,164.4 159.9,167.2 158.6,170 158.6,170 157.4,172.7 156.2,175.5 167.9,174.2 "/>
<polygon points="237.4,134.7 234.4,134.7 231.3,134.8 231.3,134.8 228.3,134.8 225.2,134.8 231.3,144.9 "/>
<line class="st0" x1="231.3" y1="214.1" x2="231.3" y2="227.6"/>
<polygon points="237.4,224.2 234.4,224.2 231.3,224.2 231.3,224.2 228.3,224.3 225.2,224.3 231.3,234.4 "/>
<line class="st0" x1="231.3" y1="299.9" x2="231.3" y2="313.4"/>
<polygon points="237.4,310 234.4,310 231.3,310 231.3,310 228.3,310.1 225.2,310.1 231.3,320.2 "/>
<path class="st6" d="M149.5,259.8H95c-5.4,0-9.7-4.4-9.7-9.7v-19.5c0-5.4,4.4-9.7,9.7-9.7h54.5c5.4,0,9.7,4.4,9.7,9.7v19.5
	C159.2,255.4,154.9,259.8,149.5,259.8z"/>
<g>
	<g>
		<path class="st3" d="M110.4,226h0.9l1.1,3.2c0.1,0.4,0.3,0.8,0.4,1.2h0c0.1-0.4,0.3-0.8,0.4-1.2l1.1-3.2h0.9v5.9h-0.7v-3.3
			c0-0.5,0.1-1.2,0.1-1.7h0l-0.4,1.3l-1,3.1h-0.5l-1.1-3.1l-0.4-1.3h0c0,0.5,0.1,1.2,0.1,1.7v3.3h-0.6V226z"/>
		<path class="st3" d="M116.6,229.4V226h0.7v3.5c0,1.4,0.6,1.9,1.3,1.9c0.7,0,1.3-0.4,1.3-1.9V226h0.7v3.5c0,1.9-0.9,2.5-2,2.5
			C117.4,232,116.6,231.3,116.6,229.4z"/>
		<path class="st3" d="M122.1,226h0.7v5.3h2.4v0.6h-3.1V226z"/>
		<path class="st3" d="M127.3,226.6h-1.7V226h4.1v0.6H128v5.3h-0.7V226.6z"/>
		<path class="st3" d="M130.7,226h0.7v5.9h-0.7V226z"/>
		<path class="st3" d="M132.6,229.3h1.9v0.6h-1.9V229.3z"/>
		<path class="st3" d="M98.4,236.8h1.4c1.7,0,2.6,1.1,2.6,2.9s-0.9,3-2.6,3h-1.4V236.8z M99.7,242c1.3,0,2-0.9,2-2.4s-0.6-2.3-2-2.3
			h-0.6v4.7H99.7z"/>
		<path class="st3" d="M103.6,236.8h0.7v5.9h-0.7V236.8z"/>
		<path class="st3" d="M105.4,241.9l0.4-0.5c0.4,0.4,1,0.7,1.5,0.7c0.7,0,1.2-0.4,1.2-1c0-0.6-0.4-0.8-0.9-1l-0.8-0.4
			c-0.5-0.2-1.1-0.7-1.1-1.5c0-0.9,0.7-1.6,1.8-1.6c0.7,0,1.2,0.3,1.6,0.7l-0.4,0.5c-0.3-0.3-0.7-0.6-1.3-0.6c-0.6,0-1,0.3-1,0.9
			c0,0.6,0.5,0.8,0.9,1l0.8,0.4c0.6,0.3,1.1,0.7,1.1,1.6c0,0.9-0.7,1.7-1.9,1.7C106.6,242.8,105.9,242.4,105.4,241.9z"/>
		<path class="st3" d="M110.1,239.7c0-1.9,1.1-3.1,2.5-3.1c0.7,0,1.2,0.3,1.5,0.7l-0.4,0.5c-0.3-0.3-0.7-0.6-1.1-0.6
			c-1.1,0-1.8,0.9-1.8,2.4c0,1.5,0.7,2.4,1.7,2.4c0.5,0,0.9-0.2,1.3-0.7l0.4,0.5c-0.4,0.5-1,0.9-1.7,0.9
			C111.1,242.8,110.1,241.6,110.1,239.7z"/>
		<path class="st3" d="M115.2,236.8h0.7v5.9h-0.7V236.8z"/>
		<path class="st3" d="M117.5,236.8h1.6c1.2,0,2.1,0.4,2.1,1.7c0,1.2-0.8,1.8-2.1,1.8h-0.9v2.3h-0.7V236.8z M119,239.7
			c1,0,1.4-0.4,1.4-1.2c0-0.9-0.5-1.1-1.5-1.1h-0.8v2.3H119z"/>
		<path class="st3" d="M122.3,236.8h0.7v5.3h2.4v0.6h-3.1V236.8z"/>
		<path class="st3" d="M126.4,236.8h0.7v5.9h-0.7V236.8z"/>
		<path class="st3" d="M128.6,236.8h0.7l2,3.7l0.6,1.2h0c0-0.6-0.1-1.3-0.1-1.9v-3.1h0.7v5.9h-0.7l-2-3.7l-0.6-1.2h0
			c0,0.6,0.1,1.2,0.1,1.8v3.1h-0.7V236.8z"/>
		<path class="st3" d="M135.3,236.8h0.8l1.9,5.9h-0.8l-1-3.3c-0.2-0.7-0.4-1.3-0.6-2h0c-0.2,0.7-0.4,1.3-0.6,2l-1,3.3h-0.7
			L135.3,236.8z M134.4,240.3h2.6v0.6h-2.6V240.3z"/>
		<path class="st3" d="M138.7,236.8h1.7c1.1,0,1.9,0.4,1.9,1.7c0,1.2-0.8,1.7-1.9,1.7h-1v2.5h-0.7V236.8z M140.4,239.6
			c0.9,0,1.3-0.4,1.3-1.1c0-0.8-0.5-1.1-1.3-1.1h-0.9v2.2H140.4z M140.3,240l0.6-0.4l1.7,3.1h-0.8L140.3,240z"/>
		<path class="st3" d="M144.5,240.4l-1.7-3.6h0.8l0.7,1.7c0.2,0.4,0.3,0.8,0.5,1.3h0c0.2-0.4,0.4-0.9,0.6-1.3l0.7-1.7h0.7l-1.7,3.6
			v2.3h-0.7V240.4z"/>
		<path class="st3" d="M104.4,247.6h0.9l1.1,3.2c0.1,0.4,0.3,0.8,0.4,1.2h0c0.1-0.4,0.3-0.8,0.4-1.2l1.1-3.2h0.9v5.9h-0.7v-3.3
			c0-0.5,0.1-1.2,0.1-1.7h0l-0.4,1.3l-1,3.1h-0.5l-1.1-3.1l-0.4-1.3h0c0,0.5,0.1,1.2,0.1,1.7v3.3h-0.6V247.6z"/>
		<path class="st3" d="M110.6,247.6h3.2v0.6h-2.5v1.9h2.1v0.6h-2.1v2.1h2.6v0.6h-3.3V247.6z"/>
		<path class="st3" d="M115.1,247.6h3.2v0.6h-2.5v1.9h2.1v0.6h-2.1v2.1h2.6v0.6h-3.3V247.6z"/>
		<path class="st3" d="M120.7,248.2H119v-0.6h4.1v0.6h-1.7v5.3h-0.7V248.2z"/>
		<path class="st3" d="M124.1,247.6h0.7v5.9h-0.7V247.6z"/>
		<path class="st3" d="M126.3,247.6h0.7l2,3.7l0.6,1.2h0c0-0.6-0.1-1.3-0.1-1.9v-3.1h0.7v5.9h-0.7l-2-3.7l-0.6-1.2h0
			c0,0.6,0.1,1.2,0.1,1.8v3.1h-0.7V247.6z"/>
		<path class="st3" d="M131.5,250.5c0-1.9,1.1-3.1,2.6-3.1c0.8,0,1.3,0.4,1.6,0.7l-0.4,0.5c-0.3-0.3-0.6-0.6-1.2-0.6
			c-1.1,0-1.8,0.9-1.8,2.4c0,1.5,0.7,2.4,1.8,2.4c0.4,0,0.8-0.1,1-0.3V251h-1.2v-0.6h1.8v2.5c-0.4,0.4-1,0.7-1.7,0.7
			C132.5,253.6,131.5,252.4,131.5,250.5z"/>
		<path class="st3" d="M136.7,252.7l0.4-0.5c0.4,0.4,1,0.7,1.5,0.7c0.7,0,1.2-0.4,1.2-1c0-0.6-0.4-0.8-0.9-1l-0.8-0.4
			c-0.5-0.2-1.1-0.7-1.1-1.5c0-0.9,0.7-1.6,1.8-1.6c0.7,0,1.2,0.3,1.6,0.7l-0.4,0.5c-0.3-0.3-0.7-0.6-1.3-0.6c-0.6,0-1,0.3-1,0.9
			c0,0.6,0.5,0.8,0.9,1l0.8,0.4c0.6,0.3,1.1,0.7,1.1,1.6c0,0.9-0.7,1.7-1.9,1.7C137.8,253.6,137.1,253.2,136.7,252.7z"/>
	</g>
</g>
<g>
	<g>
		<path d="M101.4,301.2c0-1.9,1.1-3.1,2.5-3.1c0.7,0,1.2,0.3,1.5,0.7l-0.4,0.5c-0.3-0.3-0.7-0.6-1.1-0.6c-1.1,0-1.8,0.9-1.8,2.4
			c0,1.5,0.7,2.4,1.7,2.4c0.5,0,0.9-0.2,1.3-0.7l0.4,0.5c-0.4,0.5-1,0.9-1.7,0.9C102.5,304.2,101.4,303.1,101.4,301.2z"/>
		<path d="M106.3,301.1c0-1.9,1-3,2.4-3s2.4,1.2,2.4,3c0,1.9-1,3.1-2.4,3.1S106.3,303,106.3,301.1z M110.3,301.1
			c0-1.5-0.7-2.4-1.6-2.4s-1.6,0.9-1.6,2.4s0.7,2.4,1.6,2.4S110.3,302.6,110.3,301.1z"/>
		<path d="M112.2,298.2h0.7l2,3.7l0.6,1.2h0c0-0.6-0.1-1.3-0.1-1.9v-3.1h0.7v5.9h-0.7l-2-3.7l-0.6-1.2h0c0,0.6,0.1,1.2,0.1,1.8v3.1
			h-0.7V298.2z"/>
		<path d="M118.9,298.8h-1.7v-0.6h4.1v0.6h-1.7v5.3h-0.7V298.8z"/>
		<path d="M122.3,298.2h0.7v5.9h-0.7V298.2z"/>
		<path d="M124.5,298.2h0.7l2,3.7l0.6,1.2h0c0-0.6-0.1-1.3-0.1-1.9v-3.1h0.7v5.9h-0.7l-2-3.7l-0.6-1.2h0c0,0.6,0.1,1.2,0.1,1.8v3.1
			h-0.7V298.2z"/>
		<path d="M130,301.7v-3.5h0.7v3.5c0,1.4,0.6,1.9,1.3,1.9c0.7,0,1.3-0.4,1.3-1.9v-3.5h0.7v3.5c0,1.9-0.9,2.5-2,2.5
			C130.9,304.2,130,303.6,130,301.7z"/>
		<path d="M136.6,298.2h0.8l1.9,5.9h-0.8l-1-3.3c-0.2-0.7-0.4-1.3-0.6-2h0c-0.2,0.7-0.4,1.3-0.6,2l-1,3.3h-0.7L136.6,298.2z
			 M135.7,301.7h2.6v0.6h-2.6V301.7z"/>
		<path d="M140.1,298.2h0.7v5.3h2.4v0.6h-3.1V298.2z"/>
		<path d="M89.6,309h1.7c1.1,0,1.9,0.4,1.9,1.7c0,1.2-0.8,1.7-1.9,1.7h-1v2.5h-0.7V309z M91.3,311.8c0.9,0,1.3-0.4,1.3-1.1
			c0-0.8-0.5-1.1-1.3-1.1h-0.9v2.2H91.3z M91.2,312.2l0.6-0.4l1.7,3.1h-0.8L91.2,312.2z"/>
		<path d="M94.5,309h3.2v0.6h-2.5v1.9h2.1v0.6h-2.1v2.1h2.6v0.6h-3.3V309z"/>
		<path d="M98.5,312.4h1.9v0.6h-1.9V312.4z"/>
		<path d="M102.7,309h0.8l1.9,5.9h-0.8l-1-3.3c-0.2-0.7-0.4-1.3-0.6-2h0c-0.2,0.7-0.4,1.3-0.6,2l-1,3.3h-0.7L102.7,309z
			 M101.8,312.5h2.6v0.6h-2.6V312.5z"/>
		<path d="M105.8,314.1l0.4-0.5c0.4,0.4,1,0.7,1.5,0.7c0.7,0,1.2-0.4,1.2-1c0-0.6-0.4-0.8-0.9-1l-0.8-0.4c-0.5-0.2-1.1-0.7-1.1-1.5
			c0-0.9,0.7-1.6,1.8-1.6c0.7,0,1.2,0.3,1.6,0.7l-0.4,0.5c-0.3-0.3-0.7-0.6-1.3-0.6c-0.6,0-1,0.3-1,0.9c0,0.6,0.5,0.8,0.9,1l0.8,0.4
			c0.6,0.3,1.1,0.7,1.1,1.6c0,0.9-0.7,1.7-1.9,1.7C107,315,106.3,314.7,105.8,314.1z"/>
		<path d="M110.3,314.1l0.4-0.5c0.4,0.4,1,0.7,1.5,0.7c0.7,0,1.2-0.4,1.2-1c0-0.6-0.4-0.8-0.9-1l-0.8-0.4c-0.5-0.2-1.1-0.7-1.1-1.5
			c0-0.9,0.7-1.6,1.8-1.6c0.7,0,1.2,0.3,1.6,0.7l-0.4,0.5c-0.3-0.3-0.7-0.6-1.3-0.6c-0.6,0-1,0.3-1,0.9c0,0.6,0.5,0.8,0.9,1l0.8,0.4
			c0.6,0.3,1.1,0.7,1.1,1.6c0,0.9-0.7,1.7-1.9,1.7C111.5,315,110.8,314.7,110.3,314.1z"/>
		<path d="M115.3,309h3.2v0.6H116v1.9h2.1v0.6H116v2.1h2.6v0.6h-3.3V309z"/>
		<path d="M119.3,314.1l0.4-0.5c0.4,0.4,1,0.7,1.5,0.7c0.7,0,1.2-0.4,1.2-1c0-0.6-0.4-0.8-0.9-1l-0.8-0.4c-0.5-0.2-1.1-0.7-1.1-1.5
			c0-0.9,0.7-1.6,1.8-1.6c0.7,0,1.2,0.3,1.6,0.7l-0.4,0.5c-0.3-0.3-0.7-0.6-1.3-0.6c-0.6,0-1,0.3-1,0.9c0,0.6,0.5,0.8,0.9,1l0.8,0.4
			c0.6,0.3,1.1,0.7,1.1,1.6c0,0.9-0.7,1.7-1.9,1.7C120.5,315,119.8,314.7,119.3,314.1z"/>
		<path d="M123.9,314.1l0.4-0.5c0.4,0.4,1,0.7,1.5,0.7c0.7,0,1.2-0.4,1.2-1c0-0.6-0.4-0.8-0.9-1l-0.8-0.4c-0.5-0.2-1.1-0.7-1.1-1.5
			c0-0.9,0.7-1.6,1.8-1.6c0.7,0,1.2,0.3,1.6,0.7l-0.4,0.5c-0.3-0.3-0.7-0.6-1.3-0.6c-0.6,0-1,0.3-1,0.9c0,0.6,0.5,0.8,0.9,1l0.8,0.4
			c0.6,0.3,1.1,0.7,1.1,1.6c0,0.9-0.7,1.7-1.9,1.7C125,315,124.4,314.7,123.9,314.1z"/>
		<path d="M128.8,309h0.9l1.1,3.2c0.1,0.4,0.3,0.8,0.4,1.2h0c0.1-0.4,0.3-0.8,0.4-1.2l1.1-3.2h0.9v5.9h-0.7v-3.3
			c0-0.5,0.1-1.2,0.1-1.7h0l-0.4,1.3l-1,3.1h-0.5l-1.1-3.1l-0.4-1.3h0c0,0.5,0.1,1.2,0.1,1.7v3.3h-0.6V309z"/>
		<path d="M135,309h3.2v0.6h-2.5v1.9h2.1v0.6h-2.1v2.1h2.6v0.6H135V309z"/>
		<path d="M139.5,309h0.7l2,3.7l0.6,1.2h0c0-0.6-0.1-1.3-0.1-1.9V309h0.7v5.9h-0.7l-2-3.7l-0.6-1.2h0c0,0.6,0.1,1.2,0.1,1.8v3.1
			h-0.7V309z"/>
		<path d="M146.1,309.6h-1.7V309h4.1v0.6h-1.7v5.3h-0.7V309.6z"/>
		<path d="M150.7,313.4c0-1.8,2.5-2,2.5-3.3c0-0.3-0.1-0.7-0.5-0.7c-0.4,0-0.7,0.4-0.7,0.9c0,1.1,1.1,2.6,2.2,3.4
			c0.4,0.3,0.9,0.6,1.2,0.7l-0.2,0.6c-0.4-0.1-0.9-0.4-1.5-0.8c-1.2-1-2.4-2.6-2.4-3.9c0-0.8,0.5-1.4,1.3-1.4c0.7,0,1.1,0.5,1.1,1.2
			c0,1.5-2.4,2-2.4,3.3c0,0.7,0.5,1.1,1.1,1.1c0.5,0,0.9-0.3,1.3-0.7c0.5-0.5,0.8-1.2,1-2h0.6c-0.2,0.9-0.6,1.7-1.2,2.4
			c-0.5,0.6-1.1,0.9-1.8,0.9C151.4,315,150.7,314.3,150.7,313.4z"/>
		<path d="M91,322.8c0-1.9,1.1-3.1,2.5-3.1c0.7,0,1.2,0.3,1.5,0.7l-0.4,0.5c-0.3-0.3-0.7-0.6-1.1-0.6c-1.1,0-1.8,0.9-1.8,2.4
			c0,1.5,0.7,2.4,1.7,2.4c0.5,0,0.9-0.2,1.3-0.7l0.4,0.5c-0.4,0.5-1,0.9-1.7,0.9C92,325.8,91,324.7,91,322.8z"/>
		<path d="M95.8,322.7c0-1.9,1-3,2.4-3s2.4,1.2,2.4,3c0,1.9-1,3.1-2.4,3.1S95.8,324.6,95.8,322.7z M99.8,322.7
			c0-1.5-0.7-2.4-1.6-2.4s-1.6,0.9-1.6,2.4s0.7,2.4,1.6,2.4S99.8,324.2,99.8,322.7z"/>
		<path d="M101.8,319.8h0.9l1.1,3.2c0.1,0.4,0.3,0.8,0.4,1.2h0c0.1-0.4,0.3-0.8,0.4-1.2l1.1-3.2h0.9v5.9h-0.7v-3.3
			c0-0.5,0.1-1.2,0.1-1.7h0l-0.4,1.3l-1,3.1h-0.5l-1.1-3.1l-0.4-1.3h0c0,0.5,0.1,1.2,0.1,1.7v3.3h-0.6V319.8z"/>
		<path d="M108,319.8h0.9l1.1,3.2c0.1,0.4,0.3,0.8,0.4,1.2h0c0.1-0.4,0.3-0.8,0.4-1.2l1.1-3.2h0.9v5.9h-0.7v-3.3
			c0-0.5,0.1-1.2,0.1-1.7h0l-0.4,1.3l-1,3.1H110l-1.1-3.1l-0.4-1.3h0c0,0.5,0.1,1.2,0.1,1.7v3.3H108V319.8z"/>
		<path d="M114.1,323.3v-3.5h0.7v3.5c0,1.4,0.6,1.9,1.3,1.9c0.7,0,1.3-0.4,1.3-1.9v-3.5h0.7v3.5c0,1.9-0.9,2.5-2,2.5
			S114.1,325.2,114.1,323.3z"/>
		<path d="M119.6,319.8h0.7l2,3.7l0.6,1.2h0c0-0.6-0.1-1.3-0.1-1.9v-3.1h0.7v5.9h-0.7l-2-3.7l-0.6-1.2h0c0,0.6,0.1,1.2,0.1,1.8v3.1
			h-0.7V319.8z"/>
		<path d="M125.1,319.8h0.7v5.9h-0.7V319.8z"/>
		<path d="M127,322.8c0-1.9,1.1-3.1,2.5-3.1c0.7,0,1.2,0.3,1.5,0.7l-0.4,0.5c-0.3-0.3-0.7-0.6-1.1-0.6c-1.1,0-1.8,0.9-1.8,2.4
			c0,1.5,0.7,2.4,1.7,2.4c0.5,0,0.9-0.2,1.3-0.7l0.4,0.5c-0.4,0.5-1,0.9-1.7,0.9C128,325.8,127,324.7,127,322.8z"/>
		<path d="M133.3,319.8h0.8l1.9,5.9h-0.8l-1-3.3c-0.2-0.7-0.4-1.3-0.6-2h0c-0.2,0.7-0.4,1.3-0.6,2l-1,3.3h-0.7L133.3,319.8z
			 M132.4,323.3h2.6v0.6h-2.6V323.3z"/>
		<path d="M138,320.4h-1.7v-0.6h4.1v0.6h-1.7v5.3H138V320.4z"/>
		<path d="M141.3,319.8h0.7v5.9h-0.7V319.8z"/>
		<path d="M143.3,322.7c0-1.9,1-3,2.4-3s2.4,1.2,2.4,3c0,1.9-1,3.1-2.4,3.1S143.3,324.6,143.3,322.7z M147.3,322.7
			c0-1.5-0.7-2.4-1.6-2.4s-1.6,0.9-1.6,2.4s0.7,2.4,1.6,2.4S147.3,324.2,147.3,322.7z"/>
		<path d="M149.2,319.8h0.7l2,3.7l0.6,1.2h0c0-0.6-0.1-1.3-0.1-1.9v-3.1h0.7v5.9h-0.7l-2-3.7l-0.6-1.2h0c0,0.6,0.1,1.2,0.1,1.8v3.1
			h-0.7V319.8z"/>
	</g>
</g>
</svg>
