<?xml version="1.0" encoding="utf-8"?>
<!-- Generator: Adobe Illustrator 24.0.1, SVG Export Plug-In . SVG Version: 6.00 Build 0)  -->
<svg version="1.1" id="Layer_1" xmlns="http://www.w3.org/2000/svg" xmlns:xlink="http://www.w3.org/1999/xlink" x="0px" y="0px"
	 viewBox="0 0 453.5 691" style="enable-background:new 0 0 453.5 691;" xml:space="preserve">
<style type="text/css">
	.st0{fill:#FFFFFF;stroke:#000000;stroke-width:0.5;stroke-miterlimit:10;}
	.st1{fill:none;stroke:#000000;stroke-width:0.5;stroke-miterlimit:10;}
	.st2{fill:none;stroke:#000000;stroke-width:0.5;stroke-miterlimit:10;stroke-dasharray:6.0497,6.0497;}
	.st3{stroke:#000000;stroke-width:0.5;stroke-miterlimit:10;}
	.st4{fill:#FFFFFF;}
	.st5{fill:#D1D3D4;stroke:#000000;stroke-width:0.5;stroke-miterlimit:10;}
</style>
<g>
	<g>
		<circle class="st0" cx="119.6" cy="486.5" r="18.8"/>
		<circle class="st0" cx="33.4" cy="486.5" r="18.8"/>
	</g>
	<line class="st1" x1="52.4" y1="486.5" x2="100.8" y2="486.5"/>
</g>
<g>
	<rect x="14.6" y="418.1" class="st0" width="37.8" height="37.8"/>
	<rect x="100.3" y="418.1" class="st0" width="37.8" height="37.8"/>
	<line class="st1" x1="52.4" y1="437" x2="100.8" y2="437"/>
</g>
<g>
	<rect x="57.6" y="368.5" class="st0" width="37.8" height="37.8"/>
	<g>
		<rect x="14.6" y="311.1" class="st0" width="37.8" height="37.8"/>
		<circle class="st0" cx="119.6" cy="330" r="18.8"/>
		<g>
			<g>
				<line class="st1" x1="52.4" y1="330" x2="55.4" y2="330"/>
				<line class="st2" x1="61.5" y1="330" x2="94.7" y2="330"/>
				<line class="st1" x1="97.8" y1="330" x2="100.8" y2="330"/>
			</g>
		</g>
	</g>
	<line class="st1" x1="76.5" y1="330" x2="76.5" y2="368.5"/>
</g>
<rect x="269.1" y="449" class="st0" width="37.8" height="37.8"/>
<g>
	<rect x="246.1" y="391.5" class="st0" width="37.8" height="37.8"/>
	<circle class="st0" cx="351.1" cy="410.4" r="18.8"/>
	<g>
		<g>
			<line class="st1" x1="284" y1="410.4" x2="287" y2="410.4"/>
			<line class="st2" x1="293" y1="410.4" x2="326.3" y2="410.4"/>
			<line class="st1" x1="329.3" y1="410.4" x2="332.3" y2="410.4"/>
		</g>
	</g>
</g>
<line class="st1" x1="288" y1="410.4" x2="288" y2="449"/>
<line class="st1" x1="330.1" y1="410.4" x2="330.1" y2="449"/>
<g>
	<circle class="st3" cx="119.6" cy="574.6" r="18.8"/>
	<rect x="19.7" y="555.7" class="st3" width="37.8" height="37.8"/>
	<line class="st1" x1="38.6" y1="517.1" x2="38.6" y2="555.7"/>
	<line class="st1" x1="119.6" y1="517.5" x2="119.6" y2="556"/>
</g>
<g>
	<line class="st1" x1="83.6" y1="605.3" x2="83.6" y2="643.8"/>
	<polygon class="st0" points="103.8,681.5 83.5,643.4 66,681 	"/>
</g>
<rect x="14.6" y="13.6" class="st0" width="37.8" height="37.8"/>
<g>
	<g>
		<path d="M69.2,29.9h0.9l1.1,3.2c0.1,0.4,0.3,0.8,0.4,1.2h0c0.1-0.4,0.3-0.8,0.4-1.2l1.1-3.2h0.9v5.9h-0.7v-3.3
			c0-0.5,0.1-1.2,0.1-1.7h0l-0.4,1.3l-1,3.1h-0.5l-1.1-3.1l-0.4-1.3h0c0,0.5,0.1,1.2,0.1,1.7v3.3h-0.6V29.9z"/>
		<path d="M75.1,34.6c0-1,0.8-1.4,2.5-1.6c0-0.6-0.2-1.1-0.9-1.1c-0.5,0-0.9,0.2-1.2,0.5l-0.3-0.5c0.4-0.3,1-0.6,1.6-0.6
			c1,0,1.4,0.7,1.4,1.8v2.7h-0.6l-0.1-0.5h0c-0.4,0.3-0.9,0.6-1.4,0.6C75.6,35.9,75.1,35.4,75.1,34.6z M77.6,34.7v-1.2
			c-1.4,0.2-1.8,0.5-1.8,1.1c0,0.5,0.3,0.7,0.7,0.7C76.9,35.3,77.2,35.1,77.6,34.7z"/>
		<path d="M79.6,31.4h0.6l0.1,0.6h0c0.4-0.4,0.8-0.7,1.4-0.7c0.9,0,1.3,0.6,1.3,1.7v2.8h-0.7v-2.7c0-0.8-0.2-1.2-0.8-1.2
			c-0.4,0-0.7,0.2-1.1,0.7v3.2h-0.7V31.4z"/>
	</g>
</g>
<g>
	<rect x="14.6" y="112.5" class="st0" width="37.8" height="37.8"/>
	<line class="st1" x1="14.6" y1="112.5" x2="52.4" y2="150.4"/>
	<line class="st1" x1="52.4" y1="112.5" x2="14.6" y2="150.4"/>
</g>
<g>
	<g>
		<path d="M69.2,129h0.9l1.1,3.2c0.1,0.4,0.3,0.8,0.4,1.2h0c0.1-0.4,0.3-0.8,0.4-1.2L73,129h0.9v5.9h-0.7v-3.3
			c0-0.5,0.1-1.2,0.1-1.7h0l-0.4,1.3l-1,3.1h-0.5l-1.1-3.1l-0.4-1.3h0c0,0.5,0.1,1.2,0.1,1.7v3.3h-0.6V129z"/>
		<path d="M75.1,133.7c0-1,0.8-1.4,2.5-1.6c0-0.6-0.2-1.1-0.9-1.1c-0.5,0-0.9,0.2-1.2,0.5l-0.3-0.5c0.4-0.3,1-0.6,1.6-0.6
			c1,0,1.4,0.7,1.4,1.8v2.7h-0.6l-0.1-0.5h0c-0.4,0.3-0.9,0.6-1.4,0.6C75.6,135,75.1,134.5,75.1,133.7z M77.6,133.8v-1.2
			c-1.4,0.2-1.8,0.5-1.8,1.1c0,0.5,0.3,0.7,0.7,0.7C76.9,134.4,77.2,134.2,77.6,133.8z"/>
		<path d="M79.6,134v-5.5h0.7v5.6c0,0.2,0.1,0.3,0.2,0.3c0,0,0.1,0,0.2,0l0.1,0.6c-0.1,0-0.2,0.1-0.4,0.1
			C79.8,135,79.6,134.6,79.6,134z"/>
		<path d="M81.5,132.7c0-1.4,0.9-2.3,1.9-2.3c1.1,0,1.6,0.8,1.6,2.1c0,0.2,0,0.3,0,0.4h-2.8c0.1,0.9,0.6,1.5,1.4,1.5
			c0.4,0,0.7-0.1,1-0.3l0.2,0.5c-0.4,0.3-0.8,0.5-1.4,0.5C82.3,135,81.5,134.1,81.5,132.7z M84.4,132.3c0-0.9-0.4-1.4-1-1.4
			c-0.6,0-1.1,0.5-1.2,1.4H84.4z"/>
		<path d="M87.7,129h1.6c1.2,0,2.1,0.4,2.1,1.7c0,1.2-0.8,1.8-2.1,1.8h-0.9v2.3h-0.7V129z M89.3,131.9c1,0,1.4-0.4,1.4-1.2
			c0-0.9-0.5-1.1-1.5-1.1h-0.8v2.3H89.3z"/>
		<path d="M92.2,133.7c0-1,0.8-1.4,2.5-1.6c0-0.6-0.2-1.1-0.9-1.1c-0.5,0-0.9,0.2-1.2,0.5l-0.3-0.5c0.4-0.3,1-0.6,1.6-0.6
			c1,0,1.4,0.7,1.4,1.8v2.7h-0.6l-0.1-0.5h0c-0.4,0.3-0.9,0.6-1.4,0.6C92.8,135,92.2,134.5,92.2,133.7z M94.8,133.8v-1.2
			c-1.4,0.2-1.8,0.5-1.8,1.1c0,0.5,0.3,0.7,0.7,0.7C94,134.4,94.4,134.2,94.8,133.8z"/>
		<path d="M96.9,133.5v-2.4h-0.6v-0.6l0.6,0l0.1-1.2h0.6v1.2h1.1v0.6h-1.1v2.4c0,0.5,0.2,0.8,0.6,0.8c0.1,0,0.3-0.1,0.5-0.1l0.1,0.6
			c-0.2,0.1-0.5,0.2-0.8,0.2C97.2,135,96.9,134.4,96.9,133.5z"/>
		<path d="M99.5,129.1c0-0.3,0.2-0.5,0.5-0.5c0.3,0,0.5,0.2,0.5,0.5c0,0.3-0.2,0.5-0.5,0.5C99.7,129.6,99.5,129.4,99.5,129.1z
			 M99.6,130.5h0.7v4.4h-0.7V130.5z"/>
		<path d="M101.4,132.7c0-1.4,0.9-2.3,1.9-2.3c1.1,0,1.6,0.8,1.6,2.1c0,0.2,0,0.3,0,0.4h-2.8c0.1,0.9,0.6,1.5,1.4,1.5
			c0.4,0,0.7-0.1,1-0.3l0.2,0.5c-0.4,0.3-0.8,0.5-1.4,0.5C102.3,135,101.4,134.1,101.4,132.7z M104.3,132.3c0-0.9-0.4-1.4-1-1.4
			c-0.6,0-1.1,0.5-1.2,1.4H104.3z"/>
		<path d="M105.9,130.5h0.6l0.1,0.6h0c0.4-0.4,0.8-0.7,1.4-0.7c0.9,0,1.3,0.6,1.3,1.7v2.8h-0.7v-2.7c0-0.8-0.2-1.2-0.8-1.2
			c-0.4,0-0.7,0.2-1.1,0.7v3.2h-0.7V130.5z"/>
		<path d="M110.7,133.5v-2.4h-0.6v-0.6l0.6,0l0.1-1.2h0.6v1.2h1.1v0.6h-1.1v2.4c0,0.5,0.2,0.8,0.6,0.8c0.1,0,0.3-0.1,0.5-0.1
			l0.1,0.6c-0.2,0.1-0.5,0.2-0.8,0.2C111,135,110.7,134.4,110.7,133.5z"/>
	</g>
</g>
<circle class="st0" cx="33.4" cy="82" r="18.8"/>
<circle class="st0" cx="332.2" cy="467" r="18.8"/>
<g>
	<g>
		<path d="M68.7,78.4h0.7l0.6,3.2c0.1,0.6,0.2,1.3,0.3,1.9h0c0.1-0.6,0.3-1.3,0.4-1.9l0.8-3.2h0.6l0.8,3.2c0.1,0.6,0.3,1.3,0.4,1.9
			h0c0.1-0.6,0.2-1.3,0.3-1.9l0.6-3.2h0.7l-1.2,5.9h-0.9l-0.8-3.6c-0.1-0.5-0.2-0.9-0.3-1.3h0c-0.1,0.5-0.2,0.9-0.3,1.3l-0.8,3.6
			h-0.8L68.7,78.4z"/>
		<path d="M75.5,82.1c0-1.5,0.9-2.3,1.9-2.3c1,0,1.9,0.8,1.9,2.3c0,1.4-0.9,2.3-1.9,2.3C76.4,84.4,75.5,83.6,75.5,82.1z M78.6,82.1
			c0-1-0.5-1.7-1.2-1.7c-0.7,0-1.2,0.7-1.2,1.7c0,1,0.5,1.7,1.2,1.7C78.1,83.8,78.6,83.1,78.6,82.1z"/>
		<path d="M80.4,79.9H81l0.1,0.6h0c0.4-0.4,0.8-0.7,1.3-0.7c0.6,0,1,0.3,1.1,0.8c0.4-0.5,0.9-0.8,1.4-0.8c0.8,0,1.3,0.6,1.3,1.7v2.8
			h-0.7v-2.7c0-0.8-0.2-1.2-0.8-1.2c-0.3,0-0.7,0.2-1,0.7v3.2h-0.7v-2.7c0-0.8-0.2-1.2-0.8-1.2c-0.3,0-0.7,0.2-1,0.7v3.2h-0.7V79.9z
			"/>
		<path d="M87.2,83.2c0-1,0.8-1.4,2.5-1.6c0-0.6-0.2-1.1-0.9-1.1c-0.5,0-0.9,0.2-1.2,0.5l-0.3-0.5c0.4-0.3,1-0.6,1.6-0.6
			c1,0,1.4,0.7,1.4,1.8v2.7h-0.6l-0.1-0.5h0c-0.4,0.3-0.9,0.6-1.4,0.6C87.7,84.4,87.2,84,87.2,83.2z M89.7,83.3V82
			c-1.4,0.2-1.8,0.5-1.8,1.1c0,0.5,0.3,0.7,0.7,0.7C89,83.8,89.4,83.6,89.7,83.3z"/>
		<path d="M91.8,79.9h0.6l0.1,0.6h0c0.4-0.4,0.8-0.7,1.4-0.7c0.9,0,1.3,0.6,1.3,1.7v2.8h-0.7v-2.7c0-0.8-0.2-1.2-0.8-1.2
			c-0.4,0-0.7,0.2-1.1,0.7v3.2h-0.7V79.9z"/>
	</g>
</g>
<rect x="14.6" y="261.5" class="st0" width="37.8" height="37.8"/>
<circle class="st0" cx="119.6" cy="280.4" r="18.8"/>
<line class="st1" x1="52.4" y1="280.4" x2="100.8" y2="280.4"/>
<rect x="71.5" y="272.1" class="st4" width="12.6" height="18.9"/>
<line class="st1" x1="100.6" y1="261.5" x2="62.8" y2="299.3"/>
<line class="st1" x1="95.4" y1="261.3" x2="57.6" y2="299.2"/>
<g>
	<rect x="246" y="261.5" class="st0" width="37.8" height="37.8"/>
	<circle class="st0" cx="351" cy="280.4" r="18.8"/>
	<g>
		<g>
			<line class="st1" x1="283.8" y1="280.4" x2="286.8" y2="280.4"/>
			<line class="st2" x1="292.9" y1="280.4" x2="326.2" y2="280.4"/>
			<line class="st1" x1="329.2" y1="280.4" x2="332.2" y2="280.4"/>
		</g>
	</g>
</g>
<g>
	<g>
		<path d="M380.7,274.7h0.7v5.3h2.4v0.6h-3.1V274.7z"/>
		<path d="M384.6,274.8c0-0.3,0.2-0.5,0.5-0.5s0.5,0.2,0.5,0.5c0,0.3-0.2,0.5-0.5,0.5S384.6,275.1,384.6,274.8z M384.7,276.2h0.7
			v4.4h-0.7V276.2z"/>
		<path d="M386.2,276.2h0.7l0.8,2.5c0.1,0.4,0.3,0.9,0.4,1.3h0c0.1-0.4,0.3-0.9,0.4-1.3l0.8-2.5h0.7l-1.5,4.4h-0.8L386.2,276.2z"/>
		<path d="M390.6,274.8c0-0.3,0.2-0.5,0.5-0.5c0.3,0,0.5,0.2,0.5,0.5c0,0.3-0.2,0.5-0.5,0.5C390.8,275.3,390.6,275.1,390.6,274.8z
			 M390.8,276.2h0.7v4.4h-0.7V276.2z"/>
		<path d="M392.9,276.2h0.6l0.1,0.6h0c0.4-0.4,0.8-0.7,1.4-0.7c0.9,0,1.3,0.6,1.3,1.7v2.8h-0.7v-2.7c0-0.8-0.2-1.2-0.8-1.2
			c-0.4,0-0.7,0.2-1.1,0.7v3.2h-0.7V276.2z"/>
		<path d="M397.2,281.4c0-0.4,0.2-0.7,0.6-1v0c-0.2-0.1-0.4-0.4-0.4-0.7c0-0.4,0.2-0.7,0.5-0.8v0c-0.3-0.2-0.5-0.7-0.5-1.2
			c0-1,0.7-1.6,1.5-1.6c0.2,0,0.4,0,0.6,0.1h1.4v0.6h-0.8c0.2,0.2,0.3,0.5,0.3,0.9c0,0.9-0.7,1.5-1.5,1.5c-0.2,0-0.4-0.1-0.6-0.1
			c-0.1,0.1-0.3,0.3-0.3,0.5c0,0.3,0.2,0.5,0.7,0.5h0.8c1,0,1.4,0.3,1.4,1c0,0.8-0.8,1.5-2.1,1.5
			C397.9,282.6,397.2,282.2,397.2,281.4z M400.3,281.2c0-0.4-0.3-0.5-0.8-0.5h-0.7c-0.2,0-0.4,0-0.5-0.1c-0.3,0.2-0.4,0.5-0.4,0.7
			c0,0.5,0.4,0.8,1.2,0.8C399.8,282.1,400.3,281.7,400.3,281.2z M399.8,277.7c0-0.6-0.4-1-0.9-1c-0.5,0-0.9,0.4-0.9,1
			c0,0.6,0.4,1,0.9,1C399.4,278.7,399.8,278.3,399.8,277.7z"/>
		<path d="M404.7,275.3H403v-0.6h4.1v0.6h-1.7v5.3h-0.7V275.3z"/>
		<path d="M407.7,278.4c0-1.5,0.9-2.3,1.9-2.3s1.9,0.8,1.9,2.3c0,1.4-0.9,2.3-1.9,2.3S407.7,279.9,407.7,278.4z M410.8,278.4
			c0-1-0.5-1.7-1.2-1.7s-1.2,0.7-1.2,1.7c0,1,0.5,1.7,1.2,1.7S410.8,279.4,410.8,278.4z"/>
		<path d="M412.3,281.4c0-0.4,0.2-0.7,0.6-1v0c-0.2-0.1-0.4-0.4-0.4-0.7c0-0.4,0.2-0.7,0.5-0.8v0c-0.3-0.2-0.5-0.7-0.5-1.2
			c0-1,0.7-1.6,1.5-1.6c0.2,0,0.4,0,0.6,0.1h1.4v0.6h-0.8c0.2,0.2,0.3,0.5,0.3,0.9c0,0.9-0.7,1.5-1.5,1.5c-0.2,0-0.4-0.1-0.6-0.1
			c-0.1,0.1-0.3,0.3-0.3,0.5c0,0.3,0.2,0.5,0.7,0.5h0.8c1,0,1.4,0.3,1.4,1c0,0.8-0.8,1.5-2.1,1.5C413,282.6,412.3,282.2,412.3,281.4
			z M415.4,281.2c0-0.4-0.3-0.5-0.8-0.5h-0.7c-0.2,0-0.4,0-0.5-0.1c-0.3,0.2-0.4,0.5-0.4,0.7c0,0.5,0.4,0.8,1.2,0.8
			C414.9,282.1,415.4,281.7,415.4,281.2z M414.9,277.7c0-0.6-0.4-1-0.9-1c-0.5,0-0.9,0.4-0.9,1c0,0.6,0.4,1,0.9,1
			C414.5,278.7,414.9,278.3,414.9,277.7z"/>
		<path d="M416.6,278.4c0-1.4,0.9-2.3,1.9-2.3c1.1,0,1.6,0.8,1.6,2.1c0,0.2,0,0.3,0,0.4h-2.8c0.1,0.9,0.6,1.5,1.4,1.5
			c0.4,0,0.7-0.1,1-0.3l0.2,0.5c-0.4,0.3-0.8,0.5-1.4,0.5C417.5,280.7,416.6,279.8,416.6,278.4z M419.5,278.1c0-0.9-0.4-1.4-1-1.4
			c-0.6,0-1.1,0.5-1.2,1.4H419.5z"/>
		<path d="M421.2,279.2v-2.4h-0.6v-0.6l0.6,0l0.1-1.2h0.6v1.2h1.1v0.6h-1.1v2.4c0,0.5,0.2,0.8,0.6,0.8c0.1,0,0.3-0.1,0.5-0.1
			l0.1,0.6c-0.2,0.1-0.5,0.2-0.8,0.2C421.5,280.7,421.2,280.1,421.2,279.2z"/>
		<path d="M424,274.2h0.7v1.8l0,0.9c0.4-0.4,0.8-0.7,1.4-0.7c0.9,0,1.3,0.6,1.3,1.7v2.8h-0.7v-2.7c0-0.8-0.2-1.2-0.8-1.2
			c-0.4,0-0.7,0.2-1.1,0.7v3.2H424V274.2z"/>
		<path d="M428.3,278.4c0-1.4,0.9-2.3,1.9-2.3c1.1,0,1.6,0.8,1.6,2.1c0,0.2,0,0.3,0,0.4H429c0.1,0.9,0.6,1.5,1.4,1.5
			c0.4,0,0.7-0.1,1-0.3l0.2,0.5c-0.4,0.3-0.8,0.5-1.4,0.5C429.2,280.7,428.3,279.8,428.3,278.4z M431.2,278.1c0-0.9-0.4-1.4-1-1.4
			c-0.6,0-1.1,0.5-1.2,1.4H431.2z"/>
		<path d="M432.8,276.2h0.6l0.1,0.8h0c0.3-0.6,0.7-0.9,1.2-0.9c0.2,0,0.3,0,0.4,0.1l-0.1,0.6c-0.1,0-0.2-0.1-0.4-0.1
			c-0.3,0-0.8,0.3-1,1v2.8h-0.7V276.2z"/>
	</g>
</g>
<g>
	<g>
		<path d="M155,274.7h1.4c1.7,0,2.6,1.1,2.6,2.9c0,1.9-0.9,3-2.6,3H155V274.7z M156.4,280c1.3,0,2-0.9,2-2.4c0-1.5-0.6-2.3-2-2.3
			h-0.6v4.7H156.4z"/>
		<path d="M160.1,274.8c0-0.3,0.2-0.5,0.5-0.5c0.3,0,0.5,0.2,0.5,0.5c0,0.3-0.2,0.5-0.5,0.5C160.3,275.3,160.1,275.1,160.1,274.8z
			 M160.2,276.2h0.7v4.4h-0.7V276.2z"/>
		<path d="M161.7,276.2h0.7l0.8,2.5c0.1,0.4,0.3,0.9,0.4,1.3h0c0.1-0.4,0.3-0.9,0.4-1.3l0.8-2.5h0.7l-1.5,4.4h-0.8L161.7,276.2z"/>
		<path d="M165.9,278.4c0-1.5,0.9-2.3,1.9-2.3c1,0,1.9,0.8,1.9,2.3c0,1.4-0.9,2.3-1.9,2.3C166.8,280.7,165.9,279.9,165.9,278.4z
			 M169,278.4c0-1-0.5-1.7-1.2-1.7c-0.7,0-1.2,0.7-1.2,1.7s0.5,1.7,1.2,1.7C168.6,280.1,169,279.4,169,278.4z"/>
		<path d="M170.8,276.2h0.6l0.1,0.8h0c0.3-0.6,0.7-0.9,1.2-0.9c0.2,0,0.3,0,0.4,0.1l-0.1,0.6c-0.1,0-0.2-0.1-0.4-0.1
			c-0.3,0-0.8,0.3-1,1v2.8h-0.7V276.2z"/>
		<path d="M173.5,278.4c0-1.5,0.9-2.3,2-2.3c0.5,0,0.9,0.2,1.2,0.5l-0.4,0.5c-0.2-0.2-0.5-0.4-0.8-0.4c-0.7,0-1.3,0.7-1.3,1.7
			s0.5,1.7,1.3,1.7c0.4,0,0.7-0.2,1-0.4l0.3,0.5c-0.4,0.4-0.8,0.6-1.3,0.6C174.3,280.7,173.5,279.9,173.5,278.4z"/>
		<path d="M177.3,278.4c0-1.4,0.9-2.3,1.9-2.3c1.1,0,1.6,0.8,1.6,2.1c0,0.2,0,0.3,0,0.4H178c0.1,0.9,0.6,1.5,1.4,1.5
			c0.4,0,0.7-0.1,1-0.3l0.2,0.5c-0.4,0.3-0.8,0.5-1.4,0.5C178.2,280.7,177.3,279.8,177.3,278.4z M180.2,278.1c0-0.9-0.4-1.4-1-1.4
			c-0.6,0-1.1,0.5-1.2,1.4H180.2z"/>
		<path d="M181.6,278.4c0-1.4,0.8-2.3,1.8-2.3c0.5,0,0.8,0.2,1.2,0.5l0-0.8v-1.7h0.7v6.4h-0.6l-0.1-0.5h0c-0.3,0.3-0.8,0.6-1.3,0.6
			C182.2,280.7,181.6,279.9,181.6,278.4z M184.5,279.5v-2.3c-0.4-0.3-0.7-0.5-1-0.5c-0.7,0-1.2,0.7-1.2,1.7c0,1,0.4,1.7,1.1,1.7
			C183.8,280.1,184.1,279.9,184.5,279.5z"/>
	</g>
</g>
<g>
	<g>
		<path d="M155,433.2h0.7v2.5h2.6v-2.5h0.7v5.9h-0.7v-2.8h-2.6v2.8H155V433.2z"/>
		<path d="M160.2,436.9c0-1.5,0.9-2.3,1.9-2.3c1,0,1.9,0.8,1.9,2.3c0,1.4-0.9,2.3-1.9,2.3C161.1,439.2,160.2,438.4,160.2,436.9z
			 M163.3,436.9c0-1-0.5-1.7-1.2-1.7c-0.7,0-1.2,0.7-1.2,1.7s0.5,1.7,1.2,1.7C162.8,438.6,163.3,437.9,163.3,436.9z"/>
		<path d="M165.1,434.7h0.6l0.1,0.6h0c0.4-0.4,0.8-0.7,1.3-0.7c0.6,0,1,0.3,1.1,0.8c0.4-0.5,0.9-0.8,1.4-0.8c0.8,0,1.3,0.6,1.3,1.7
			v2.8h-0.7v-2.7c0-0.8-0.2-1.2-0.8-1.2c-0.3,0-0.7,0.2-1,0.7v3.2h-0.7v-2.7c0-0.8-0.2-1.2-0.8-1.2c-0.3,0-0.7,0.2-1,0.7v3.2h-0.7
			V434.7z"/>
		<path d="M171.8,436.9c0-1.5,0.9-2.3,1.9-2.3c1,0,1.9,0.8,1.9,2.3c0,1.4-0.9,2.3-1.9,2.3C172.7,439.2,171.8,438.4,171.8,436.9z
			 M174.9,436.9c0-1-0.5-1.7-1.2-1.7c-0.7,0-1.2,0.7-1.2,1.7s0.5,1.7,1.2,1.7C174.5,438.6,174.9,437.9,174.9,436.9z"/>
		<path d="M176.3,438.6l0.3-0.5c0.4,0.3,0.7,0.5,1.2,0.5c0.5,0,0.8-0.3,0.8-0.7c0-0.5-0.5-0.6-0.9-0.8c-0.6-0.2-1.2-0.5-1.2-1.3
			c0-0.7,0.5-1.2,1.4-1.2c0.5,0,1,0.2,1.3,0.5l-0.3,0.5c-0.3-0.2-0.6-0.4-0.9-0.4c-0.5,0-0.8,0.3-0.8,0.6c0,0.4,0.4,0.6,0.9,0.8
			c0.6,0.2,1.3,0.5,1.3,1.3c0,0.7-0.5,1.3-1.5,1.3C177.2,439.2,176.7,438.9,176.3,438.6z"/>
		<path d="M180,436.9c0-1.4,0.9-2.3,1.9-2.3c1.1,0,1.6,0.8,1.6,2.1c0,0.2,0,0.3,0,0.4h-2.8c0.1,0.9,0.6,1.5,1.4,1.5
			c0.4,0,0.7-0.1,1-0.3l0.2,0.5c-0.4,0.3-0.8,0.5-1.4,0.5C180.9,439.2,180,438.3,180,436.9z M182.9,436.6c0-0.9-0.4-1.4-1-1.4
			c-0.6,0-1.1,0.5-1.2,1.4H182.9z"/>
		<path d="M185.3,436.8l-1.2-2.1h0.8l0.6,1c0.1,0.2,0.3,0.5,0.4,0.7h0c0.1-0.2,0.2-0.5,0.4-0.7l0.5-1h0.7l-1.2,2.2l1.3,2.2h-0.8
			l-0.6-1c-0.1-0.3-0.3-0.5-0.4-0.8h0c-0.1,0.3-0.3,0.5-0.4,0.8l-0.6,1h-0.7L185.3,436.8z"/>
		<path d="M188.2,437.5v-2.8h0.7v2.7c0,0.8,0.2,1.2,0.8,1.2c0.4,0,0.7-0.2,1.1-0.7v-3.1h0.7v4.4h-0.6l-0.1-0.7h0
			c-0.4,0.5-0.8,0.8-1.4,0.8C188.6,439.2,188.2,438.6,188.2,437.5z"/>
		<path d="M192.7,438c0-1,0.8-1.4,2.5-1.6c0-0.6-0.2-1.1-0.9-1.1c-0.5,0-0.9,0.2-1.2,0.5l-0.3-0.5c0.4-0.3,1-0.6,1.6-0.6
			c1,0,1.4,0.7,1.4,1.8v2.7h-0.6l-0.1-0.5h0c-0.4,0.3-0.9,0.6-1.4,0.6C193.2,439.2,192.7,438.7,192.7,438z M195.2,438v-1.2
			c-1.4,0.2-1.8,0.5-1.8,1.1c0,0.5,0.3,0.7,0.7,0.7C194.5,438.6,194.8,438.4,195.2,438z"/>
		<path d="M197.2,438.2v-5.5h0.7v5.6c0,0.2,0.1,0.3,0.2,0.3c0,0,0.1,0,0.2,0l0.1,0.6c-0.1,0-0.2,0.1-0.4,0.1
			C197.4,439.2,197.2,438.8,197.2,438.2z"/>
		<path d="M155,444h1.7c1.1,0,1.9,0.4,1.9,1.7c0,1.2-0.8,1.7-1.9,1.7h-1v2.5H155V444z M156.7,446.8c0.9,0,1.3-0.4,1.3-1.1
			c0-0.8-0.5-1.1-1.3-1.1h-0.9v2.2H156.7z M156.6,447.2l0.6-0.4l1.7,3.1h-0.8L156.6,447.2z"/>
		<path d="M159.5,447.7c0-1.4,0.9-2.3,1.9-2.3c1.1,0,1.6,0.8,1.6,2.1c0,0.2,0,0.3,0,0.4h-2.8c0.1,0.9,0.6,1.5,1.4,1.5
			c0.4,0,0.7-0.1,1-0.3l0.2,0.5c-0.4,0.3-0.8,0.5-1.4,0.5C160.4,450,159.5,449.1,159.5,447.7z M162.4,447.4c0-0.9-0.4-1.4-1-1.4
			c-0.6,0-1.1,0.5-1.2,1.4H162.4z"/>
		<path d="M164,449v-5.5h0.7v5.6c0,0.2,0.1,0.3,0.2,0.3c0,0,0.1,0,0.2,0l0.1,0.6c-0.1,0-0.2,0.1-0.4,0.1
			C164.2,450,164,449.6,164,449z"/>
		<path d="M165.9,448.8c0-1,0.8-1.4,2.5-1.6c0-0.6-0.2-1.1-0.9-1.1c-0.5,0-0.9,0.2-1.2,0.5l-0.3-0.5c0.4-0.3,1-0.6,1.6-0.6
			c1,0,1.4,0.7,1.4,1.8v2.7h-0.6l-0.1-0.5h0c-0.4,0.3-0.9,0.6-1.4,0.6C166.4,450,165.9,449.5,165.9,448.8z M168.4,448.8v-1.2
			c-1.4,0.2-1.8,0.5-1.8,1.1c0,0.5,0.3,0.7,0.7,0.7C167.7,449.4,168,449.2,168.4,448.8z"/>
		<path d="M170.6,448.5v-2.4H170v-0.6l0.6,0l0.1-1.2h0.6v1.2h1.1v0.6h-1.1v2.4c0,0.5,0.2,0.8,0.6,0.8c0.1,0,0.3-0.1,0.5-0.1l0.1,0.6
			c-0.2,0.1-0.5,0.2-0.8,0.2C170.9,450,170.6,449.4,170.6,448.5z"/>
		<path d="M173.2,444.1c0-0.3,0.2-0.5,0.5-0.5c0.3,0,0.5,0.2,0.5,0.5c0,0.3-0.2,0.5-0.5,0.5C173.4,444.6,173.2,444.4,173.2,444.1z
			 M173.3,445.5h0.7v4.4h-0.7V445.5z"/>
		<path d="M175.1,447.7c0-1.5,0.9-2.3,1.9-2.3c1,0,1.9,0.8,1.9,2.3c0,1.4-0.9,2.3-1.9,2.3C176,450,175.1,449.2,175.1,447.7z
			 M178.2,447.7c0-1-0.5-1.7-1.2-1.7c-0.7,0-1.2,0.7-1.2,1.7c0,1,0.5,1.7,1.2,1.7C177.7,449.4,178.2,448.7,178.2,447.7z"/>
		<path d="M180,445.5h0.6l0.1,0.6h0c0.4-0.4,0.8-0.7,1.4-0.7c0.9,0,1.3,0.6,1.3,1.7v2.8h-0.7v-2.7c0-0.8-0.2-1.2-0.8-1.2
			c-0.4,0-0.7,0.2-1.1,0.7v3.2H180V445.5z"/>
		<path d="M184.2,449.4l0.3-0.5c0.4,0.3,0.7,0.5,1.2,0.5c0.5,0,0.8-0.3,0.8-0.7c0-0.5-0.5-0.6-0.9-0.8c-0.6-0.2-1.2-0.5-1.2-1.3
			c0-0.7,0.5-1.2,1.4-1.2c0.5,0,1,0.2,1.3,0.5l-0.3,0.5c-0.3-0.2-0.6-0.4-0.9-0.4c-0.5,0-0.8,0.3-0.8,0.6c0,0.4,0.4,0.6,0.9,0.8
			c0.6,0.2,1.3,0.5,1.3,1.3c0,0.7-0.5,1.3-1.5,1.3C185.1,450,184.6,449.7,184.2,449.4z"/>
		<path d="M188.2,443.5h0.7v1.8l0,0.9c0.4-0.4,0.8-0.7,1.4-0.7c0.9,0,1.3,0.6,1.3,1.7v2.8h-0.7v-2.7c0-0.8-0.2-1.2-0.8-1.2
			c-0.4,0-0.7,0.2-1.1,0.7v3.2h-0.7V443.5z"/>
		<path d="M192.7,444.1c0-0.3,0.2-0.5,0.5-0.5c0.3,0,0.5,0.2,0.5,0.5c0,0.3-0.2,0.5-0.5,0.5C192.9,444.6,192.7,444.4,192.7,444.1z
			 M192.8,445.5h0.7v4.4h-0.7V445.5z"/>
		<path d="M194.9,445.5h0.6l0.1,0.5h0c0.4-0.3,0.8-0.6,1.3-0.6c1.1,0,1.6,0.9,1.6,2.2c0,1.5-0.8,2.4-1.8,2.4c-0.4,0-0.8-0.2-1.1-0.5
			l0,0.8v1.5h-0.7V445.5z M197.8,447.6c0-1-0.3-1.6-1.1-1.6c-0.3,0-0.7,0.2-1.1,0.6v2.3c0.4,0.3,0.7,0.5,1,0.5
			C197.3,449.4,197.8,448.7,197.8,447.6z"/>
	</g>
</g>
<g>
	<g>
		<g>
			<path d="M155,481.2h0.7v5.3h2.4v0.6H155V481.2z"/>
			<path d="M158.8,484.9c0-1.4,0.9-2.3,1.9-2.3c1.1,0,1.6,0.8,1.6,2.1c0,0.2,0,0.3,0,0.4h-2.8c0.1,0.9,0.6,1.5,1.4,1.5
				c0.4,0,0.7-0.1,1-0.3l0.2,0.5c-0.4,0.3-0.8,0.5-1.4,0.5C159.7,487.2,158.8,486.4,158.8,484.9z M161.7,484.6c0-0.9-0.4-1.4-1-1.4
				c-0.6,0-1.1,0.5-1.2,1.4H161.7z"/>
			<path d="M162.8,486.6l0.3-0.5c0.4,0.3,0.7,0.5,1.2,0.5c0.5,0,0.8-0.3,0.8-0.7c0-0.5-0.5-0.6-0.9-0.8c-0.6-0.2-1.2-0.5-1.2-1.3
				c0-0.7,0.5-1.2,1.4-1.2c0.5,0,1,0.2,1.3,0.5l-0.3,0.5c-0.3-0.2-0.6-0.4-0.9-0.4c-0.5,0-0.8,0.3-0.8,0.6c0,0.4,0.4,0.6,0.9,0.8
				c0.6,0.2,1.3,0.5,1.3,1.3c0,0.7-0.5,1.3-1.5,1.3C163.8,487.2,163.2,487,162.8,486.6z"/>
			<path d="M167.5,486.7L167.5,486.7l-0.1,0.5h-0.6v-6.4h0.7v1.8l0,0.8c0.4-0.3,0.8-0.6,1.3-0.6c1.1,0,1.6,0.9,1.6,2.2
				c0,1.5-0.8,2.4-1.8,2.4C168.3,487.2,167.9,487,167.5,486.7z M169.7,484.9c0-1-0.3-1.6-1.1-1.6c-0.3,0-0.7,0.2-1.1,0.6v2.3
				c0.4,0.3,0.7,0.5,1,0.5C169.2,486.6,169.7,485.9,169.7,484.9z"/>
			<path d="M171.4,481.4c0-0.3,0.2-0.5,0.5-0.5c0.3,0,0.5,0.2,0.5,0.5c0,0.3-0.2,0.5-0.5,0.5C171.6,481.8,171.4,481.6,171.4,481.4z
				 M171.6,482.7h0.7v4.4h-0.7V482.7z"/>
			<path d="M173.4,486c0-1,0.8-1.4,2.5-1.6c0-0.6-0.2-1.1-0.9-1.1c-0.5,0-0.9,0.2-1.2,0.5l-0.3-0.5c0.4-0.3,1-0.6,1.6-0.6
				c1,0,1.4,0.7,1.4,1.8v2.7H176l-0.1-0.5h0c-0.4,0.3-0.9,0.6-1.4,0.6C173.9,487.2,173.4,486.8,173.4,486z M175.9,486v-1.2
				c-1.4,0.2-1.8,0.5-1.8,1.1c0,0.5,0.3,0.7,0.7,0.7C175.2,486.6,175.5,486.4,175.9,486z"/>
			<path d="M177.9,482.7h0.6l0.1,0.6h0c0.4-0.4,0.8-0.7,1.4-0.7c0.9,0,1.3,0.6,1.3,1.7v2.8h-0.7v-2.7c0-0.8-0.2-1.2-0.8-1.2
				c-0.4,0-0.7,0.2-1.1,0.7v3.2h-0.7V482.7z"/>
			<path d="M155,492h1.7c1.1,0,1.9,0.4,1.9,1.7c0,1.2-0.8,1.7-1.9,1.7h-1v2.5H155V492z M156.7,494.8c0.9,0,1.3-0.4,1.3-1.1
				c0-0.8-0.5-1.1-1.3-1.1h-0.9v2.2H156.7z M156.6,495.2l0.6-0.4l1.7,3.1h-0.8L156.6,495.2z"/>
			<path d="M159.5,495.7c0-1.4,0.9-2.3,1.9-2.3c1.1,0,1.6,0.8,1.6,2.1c0,0.2,0,0.3,0,0.4h-2.8c0.1,0.9,0.6,1.5,1.4,1.5
				c0.4,0,0.7-0.1,1-0.3l0.2,0.5c-0.4,0.3-0.8,0.5-1.4,0.5C160.4,498,159.5,497.2,159.5,495.7z M162.4,495.4c0-0.9-0.4-1.4-1-1.4
				c-0.6,0-1.1,0.5-1.2,1.4H162.4z"/>
			<path d="M164,497v-5.5h0.7v5.6c0,0.2,0.1,0.3,0.2,0.3c0,0,0.1,0,0.2,0l0.1,0.6c-0.1,0-0.2,0.1-0.4,0.1
				C164.2,498,164,497.7,164,497z"/>
			<path d="M165.9,496.8c0-1,0.8-1.4,2.5-1.6c0-0.6-0.2-1.1-0.9-1.1c-0.5,0-0.9,0.2-1.2,0.5l-0.3-0.5c0.4-0.3,1-0.6,1.6-0.6
				c1,0,1.4,0.7,1.4,1.8v2.7h-0.6l-0.1-0.5h0c-0.4,0.3-0.9,0.6-1.4,0.6C166.4,498,165.9,497.6,165.9,496.8z M168.4,496.9v-1.2
				c-1.4,0.2-1.8,0.5-1.8,1.1c0,0.5,0.3,0.7,0.7,0.7C167.7,497.4,168,497.2,168.4,496.9z"/>
			<path d="M170.6,496.6v-2.4H170v-0.6l0.6,0l0.1-1.2h0.6v1.2h1.1v0.6h-1.1v2.4c0,0.5,0.2,0.8,0.6,0.8c0.1,0,0.3-0.1,0.5-0.1
				l0.1,0.6c-0.2,0.1-0.5,0.2-0.8,0.2C170.9,498,170.6,497.4,170.6,496.6z"/>
			<path d="M173.2,492.2c0-0.3,0.2-0.5,0.5-0.5c0.3,0,0.5,0.2,0.5,0.5c0,0.3-0.2,0.5-0.5,0.5C173.4,492.6,173.2,492.4,173.2,492.2z
				 M173.3,493.5h0.7v4.4h-0.7V493.5z"/>
			<path d="M175.1,495.7c0-1.5,0.9-2.3,1.9-2.3c1,0,1.9,0.8,1.9,2.3c0,1.4-0.9,2.3-1.9,2.3C176,498,175.1,497.2,175.1,495.7z
				 M178.2,495.7c0-1-0.5-1.7-1.2-1.7c-0.7,0-1.2,0.7-1.2,1.7c0,1,0.5,1.7,1.2,1.7C177.7,497.4,178.2,496.7,178.2,495.7z"/>
			<path d="M180,493.5h0.6l0.1,0.6h0c0.4-0.4,0.8-0.7,1.4-0.7c0.9,0,1.3,0.6,1.3,1.7v2.8h-0.7v-2.7c0-0.8-0.2-1.2-0.8-1.2
				c-0.4,0-0.7,0.2-1.1,0.7v3.2H180V493.5z"/>
			<path d="M184.2,497.4l0.3-0.5c0.4,0.3,0.7,0.5,1.2,0.5c0.5,0,0.8-0.3,0.8-0.7c0-0.5-0.5-0.6-0.9-0.8c-0.6-0.2-1.2-0.5-1.2-1.3
				c0-0.7,0.5-1.2,1.4-1.2c0.5,0,1,0.2,1.3,0.5l-0.3,0.5c-0.3-0.2-0.6-0.4-0.9-0.4c-0.5,0-0.8,0.3-0.8,0.6c0,0.4,0.4,0.6,0.9,0.8
				c0.6,0.2,1.3,0.5,1.3,1.3c0,0.7-0.5,1.3-1.5,1.3C185.1,498,184.6,497.8,184.2,497.4z"/>
			<path d="M188.2,491.5h0.7v1.8l0,0.9c0.4-0.4,0.8-0.7,1.4-0.7c0.9,0,1.3,0.6,1.3,1.7v2.8h-0.7v-2.7c0-0.8-0.2-1.2-0.8-1.2
				c-0.4,0-0.7,0.2-1.1,0.7v3.2h-0.7V491.5z"/>
			<path d="M192.7,492.2c0-0.3,0.2-0.5,0.5-0.5c0.3,0,0.5,0.2,0.5,0.5c0,0.3-0.2,0.5-0.5,0.5C192.9,492.6,192.7,492.4,192.7,492.2z
				 M192.8,493.5h0.7v4.4h-0.7V493.5z"/>
			<path d="M194.9,493.5h0.6l0.1,0.5h0c0.4-0.3,0.8-0.6,1.3-0.6c1.1,0,1.6,0.9,1.6,2.2c0,1.5-0.8,2.4-1.8,2.4
				c-0.4,0-0.8-0.2-1.1-0.5l0,0.8v1.5h-0.7V493.5z M197.8,495.7c0-1-0.3-1.6-1.1-1.6c-0.3,0-0.7,0.2-1.1,0.6v2.3
				c0.4,0.3,0.7,0.5,1,0.5C197.3,497.4,197.8,496.8,197.8,495.7z"/>
		</g>
	</g>
</g>
<g>
	<g>
		<path d="M154.6,574.4l0.4-0.5c0.4,0.4,1,0.7,1.5,0.7c0.7,0,1.2-0.4,1.2-1c0-0.6-0.4-0.8-0.9-1l-0.8-0.4c-0.5-0.2-1.1-0.7-1.1-1.5
			c0-0.9,0.7-1.6,1.8-1.6c0.7,0,1.2,0.3,1.6,0.7l-0.4,0.5c-0.3-0.3-0.7-0.6-1.3-0.6c-0.6,0-1,0.3-1,0.9c0,0.6,0.5,0.8,0.9,1l0.8,0.4
			c0.6,0.3,1.1,0.7,1.1,1.6c0,0.9-0.7,1.7-1.9,1.7C155.8,575.3,155.1,574.9,154.6,574.4z"/>
		<path d="M159.6,573.8v-2.4H159v-0.6l0.6,0l0.1-1.2h0.6v1.2h1.1v0.6h-1.1v2.4c0,0.5,0.2,0.8,0.6,0.8c0.1,0,0.3-0.1,0.5-0.1l0.1,0.6
			c-0.2,0.1-0.5,0.2-0.8,0.2C159.9,575.3,159.6,574.7,159.6,573.8z"/>
		<path d="M162.2,569.4c0-0.3,0.2-0.5,0.5-0.5c0.3,0,0.5,0.2,0.5,0.5c0,0.3-0.2,0.5-0.5,0.5C162.4,569.9,162.2,569.7,162.2,569.4z
			 M162.4,570.8h0.7v4.4h-0.7V570.8z"/>
		<path d="M164.5,574.3v-5.5h0.7v5.6c0,0.2,0.1,0.3,0.2,0.3c0,0,0.1,0,0.2,0l0.1,0.6c-0.1,0-0.2,0.1-0.4,0.1
			C164.7,575.3,164.5,574.9,164.5,574.3z"/>
		<path d="M166.6,574.3v-5.5h0.7v5.6c0,0.2,0.1,0.3,0.2,0.3c0,0,0.1,0,0.2,0l0.1,0.6c-0.1,0-0.2,0.1-0.4,0.1
			C166.8,575.3,166.6,574.9,166.6,574.3z"/>
		<path d="M169.4,574.7L169.4,574.7l-0.1,0.5h-0.6v-6.4h0.7v1.8l0,0.8c0.4-0.3,0.8-0.6,1.3-0.6c1.1,0,1.6,0.9,1.6,2.2
			c0,1.5-0.8,2.4-1.8,2.4C170.2,575.3,169.8,575.1,169.4,574.7z M171.7,572.9c0-1-0.3-1.6-1.1-1.6c-0.3,0-0.7,0.2-1.1,0.6v2.3
			c0.4,0.3,0.7,0.5,1,0.5C171.2,574.7,171.7,574,171.7,572.9z"/>
		<path d="M173.4,569.4c0-0.3,0.2-0.5,0.5-0.5c0.3,0,0.5,0.2,0.5,0.5c0,0.3-0.2,0.5-0.5,0.5C173.6,569.9,173.4,569.7,173.4,569.4z
			 M173.5,570.8h0.7v4.4h-0.7V570.8z"/>
		<path d="M175.6,570.8h0.6l0.1,0.8h0c0.3-0.6,0.7-0.9,1.2-0.9c0.2,0,0.3,0,0.4,0.1l-0.1,0.6c-0.1,0-0.2-0.1-0.4-0.1
			c-0.3,0-0.8,0.3-1,1v2.8h-0.7V570.8z"/>
		<path d="M178.6,573.8v-2.4H178v-0.6l0.6,0l0.1-1.2h0.6v1.2h1.1v0.6h-1.1v2.4c0,0.5,0.2,0.8,0.6,0.8c0.1,0,0.3-0.1,0.5-0.1l0.1,0.6
			c-0.2,0.1-0.5,0.2-0.8,0.2C178.9,575.3,178.6,574.7,178.6,573.8z"/>
		<path d="M181.4,568.8h0.7v1.8l0,0.9c0.4-0.4,0.8-0.7,1.4-0.7c0.9,0,1.3,0.6,1.3,1.7v2.8H184v-2.7c0-0.8-0.2-1.2-0.8-1.2
			c-0.4,0-0.7,0.2-1.1,0.7v3.2h-0.7V568.8z"/>
		<path d="M185.5,574.7l0.3-0.5c0.4,0.3,0.7,0.5,1.2,0.5c0.5,0,0.8-0.3,0.8-0.7c0-0.5-0.5-0.6-0.9-0.8c-0.6-0.2-1.2-0.5-1.2-1.3
			c0-0.7,0.5-1.2,1.4-1.2c0.5,0,1,0.2,1.3,0.5l-0.3,0.5c-0.3-0.2-0.6-0.4-0.9-0.4c-0.5,0-0.8,0.3-0.8,0.6c0,0.4,0.4,0.6,0.9,0.8
			c0.6,0.2,1.3,0.5,1.3,1.3c0,0.7-0.5,1.3-1.5,1.3C186.5,575.3,185.9,575,185.5,574.7z"/>
	</g>
</g>
<g>
	<g>
		<path d="M150,638.5h1.6c1.2,0,2.1,0.4,2.1,1.7c0,1.2-0.8,1.8-2.1,1.8h-0.9v2.3H150V638.5z M151.5,641.5c1,0,1.4-0.4,1.4-1.2
			c0-0.9-0.5-1.1-1.5-1.1h-0.8v2.3H151.5z"/>
		<path d="M154.7,640.1h0.6l0.1,0.8h0c0.3-0.6,0.7-0.9,1.2-0.9c0.2,0,0.3,0,0.4,0.1l-0.1,0.7c-0.1,0-0.2-0.1-0.4-0.1
			c-0.3,0-0.8,0.3-1,1v2.8h-0.7V640.1z"/>
		<path d="M157.4,642.2c0-1.4,0.9-2.3,1.9-2.3c1.1,0,1.6,0.8,1.6,2.1c0,0.2,0,0.3,0,0.4h-2.8c0.1,0.9,0.6,1.5,1.4,1.5
			c0.4,0,0.7-0.1,1-0.3l0.2,0.5c-0.4,0.3-0.8,0.5-1.4,0.5C158.2,644.5,157.4,643.7,157.4,642.2z M160.2,641.9c0-0.9-0.4-1.4-1-1.4
			c-0.6,0-1.1,0.5-1.2,1.4H160.2z"/>
		<path d="M161.6,645.3c0-0.4,0.2-0.7,0.6-1v0c-0.2-0.1-0.4-0.4-0.4-0.7c0-0.4,0.2-0.7,0.5-0.8v0c-0.3-0.2-0.5-0.7-0.5-1.2
			c0-1,0.7-1.6,1.5-1.6c0.2,0,0.4,0,0.6,0.1h1.4v0.6h-0.8c0.2,0.2,0.3,0.5,0.3,0.9c0,0.9-0.7,1.5-1.5,1.5c-0.2,0-0.4-0.1-0.6-0.1
			c-0.1,0.1-0.3,0.3-0.3,0.5c0,0.3,0.2,0.5,0.7,0.5h0.8c1,0,1.4,0.3,1.4,1c0,0.8-0.8,1.5-2.1,1.5C162.3,646.4,161.6,646,161.6,645.3
			z M164.7,645c0-0.4-0.3-0.5-0.8-0.5h-0.7c-0.2,0-0.4,0-0.5-0.1c-0.3,0.2-0.4,0.5-0.4,0.7c0,0.5,0.4,0.8,1.2,0.8
			C164.2,645.9,164.7,645.5,164.7,645z M164.1,641.5c0-0.6-0.4-1-0.9-1c-0.5,0-0.9,0.4-0.9,1c0,0.6,0.4,1,0.9,1
			C163.7,642.5,164.1,642.1,164.1,641.5z"/>
		<path d="M166.2,640.1h0.6l0.1,0.6h0c0.4-0.4,0.8-0.7,1.4-0.7c0.9,0,1.3,0.6,1.3,1.7v2.8h-0.7v-2.7c0-0.8-0.2-1.2-0.8-1.2
			c-0.4,0-0.7,0.2-1.1,0.7v3.2h-0.7V640.1z"/>
		<path d="M170.5,643.3c0-1,0.8-1.4,2.5-1.6c0-0.6-0.2-1.1-0.9-1.1c-0.5,0-0.9,0.2-1.2,0.5l-0.3-0.5c0.4-0.3,1-0.6,1.6-0.6
			c1,0,1.4,0.7,1.4,1.8v2.7h-0.6l-0.1-0.5h0c-0.4,0.3-0.9,0.6-1.4,0.6C171.1,644.5,170.5,644.1,170.5,643.3z M173.1,643.4v-1.2
			c-1.4,0.2-1.8,0.5-1.8,1.1c0,0.5,0.3,0.7,0.7,0.7C172.4,643.9,172.7,643.7,173.1,643.4z"/>
		<path d="M175.1,640.1h0.6l0.1,0.6h0c0.4-0.4,0.8-0.7,1.4-0.7c0.9,0,1.3,0.6,1.3,1.7v2.8h-0.7v-2.7c0-0.8-0.2-1.2-0.8-1.2
			c-0.4,0-0.7,0.2-1.1,0.7v3.2h-0.7V640.1z"/>
		<path d="M179.4,642.2c0-1.5,0.9-2.3,2-2.3c0.5,0,0.9,0.2,1.2,0.5l-0.4,0.5c-0.2-0.2-0.5-0.4-0.8-0.4c-0.7,0-1.3,0.7-1.3,1.7
			s0.5,1.7,1.3,1.7c0.4,0,0.7-0.2,1-0.4l0.3,0.5c-0.4,0.4-0.8,0.6-1.3,0.6C180.3,644.5,179.4,643.7,179.4,642.2z"/>
		<path d="M183.2,646.2l0.1-0.6c0.1,0,0.2,0.1,0.3,0.1c0.5,0,0.8-0.4,0.9-0.9l0.1-0.3l-1.7-4.4h0.7l0.8,2.4c0.1,0.4,0.3,0.8,0.4,1.2
			h0c0.1-0.4,0.2-0.8,0.3-1.2l0.7-2.4h0.7l-1.6,4.7c-0.3,0.9-0.7,1.5-1.5,1.5C183.5,646.3,183.3,646.3,183.2,646.2z"/>
	</g>
</g>
<g>
	<g>
		<path d="M154.7,327.4c0-1.9,1.1-3.1,2.5-3.1c0.7,0,1.2,0.3,1.5,0.7l-0.4,0.5c-0.3-0.3-0.7-0.6-1.1-0.6c-1.1,0-1.8,0.9-1.8,2.4
			c0,1.5,0.7,2.4,1.7,2.4c0.5,0,0.9-0.2,1.3-0.7l0.4,0.5c-0.4,0.5-1,0.9-1.7,0.9C155.7,330.4,154.7,329.3,154.7,327.4z"/>
		<path d="M159.8,323.9h0.7v1.8l0,0.9c0.4-0.4,0.8-0.7,1.4-0.7c0.9,0,1.3,0.6,1.3,1.7v2.8h-0.7v-2.7c0-0.8-0.2-1.2-0.8-1.2
			c-0.4,0-0.7,0.2-1.1,0.7v3.2h-0.7V323.9z"/>
		<path d="M164.3,324.6c0-0.3,0.2-0.5,0.5-0.5c0.3,0,0.5,0.2,0.5,0.5c0,0.3-0.2,0.5-0.5,0.5C164.5,325,164.3,324.8,164.3,324.6z
			 M164.4,325.9h0.7v4.4h-0.7V325.9z"/>
		<path d="M166.5,329.4v-5.5h0.7v5.6c0,0.2,0.1,0.3,0.2,0.3c0,0,0.1,0,0.2,0l0.1,0.6c-0.1,0-0.2,0.1-0.4,0.1
			C166.7,330.4,166.5,330.1,166.5,329.4z"/>
		<path d="M168.4,328.1c0-1.4,0.8-2.3,1.8-2.3c0.5,0,0.8,0.2,1.2,0.5l0-0.8v-1.7h0.7v6.4h-0.6l-0.1-0.5h0c-0.3,0.3-0.8,0.6-1.3,0.6
			C169.1,330.4,168.4,329.6,168.4,328.1z M171.3,329.2v-2.3c-0.4-0.3-0.7-0.5-1-0.5c-0.7,0-1.2,0.7-1.2,1.7c0,1,0.4,1.7,1.1,1.7
			C170.6,329.8,171,329.6,171.3,329.2z"/>
		<path d="M174.6,325.9h0.7l0.6,2.5c0.1,0.4,0.2,0.8,0.2,1.2h0c0.1-0.4,0.2-0.8,0.3-1.2l0.6-2.5h0.7l0.6,2.5
			c0.1,0.4,0.2,0.8,0.3,1.2h0c0.1-0.4,0.2-0.8,0.3-1.2l0.6-2.5h0.7l-1.1,4.4h-0.8l-0.6-2.4c-0.1-0.4-0.2-0.8-0.3-1.3h0
			c-0.1,0.4-0.2,0.9-0.3,1.3l-0.6,2.3h-0.8L174.6,325.9z"/>
		<path d="M181.1,324.6c0-0.3,0.2-0.5,0.5-0.5c0.3,0,0.5,0.2,0.5,0.5c0,0.3-0.2,0.5-0.5,0.5C181.3,325,181.1,324.8,181.1,324.6z
			 M181.2,325.9h0.7v4.4h-0.7V325.9z"/>
		<path d="M183.4,329v-2.4h-0.6V326l0.6,0l0.1-1.2h0.6v1.2h1.1v0.6h-1.1v2.4c0,0.5,0.2,0.8,0.6,0.8c0.1,0,0.3-0.1,0.5-0.1l0.1,0.6
			c-0.2,0.1-0.5,0.2-0.8,0.2C183.7,330.4,183.4,329.8,183.4,329z"/>
		<path d="M186.1,323.9h0.7v1.8l0,0.9c0.4-0.4,0.8-0.7,1.4-0.7c0.9,0,1.3,0.6,1.3,1.7v2.8h-0.7v-2.7c0-0.8-0.2-1.2-0.8-1.2
			c-0.4,0-0.7,0.2-1.1,0.7v3.2h-0.7V323.9z"/>
		<path d="M190.6,324.6c0-0.3,0.2-0.5,0.5-0.5c0.3,0,0.5,0.2,0.5,0.5c0,0.3-0.2,0.5-0.5,0.5C190.8,325,190.6,324.8,190.6,324.6z
			 M190.8,325.9h0.7v4.4h-0.7V325.9z"/>
		<path d="M192.9,325.9h0.6l0.1,0.6h0c0.4-0.4,0.8-0.7,1.4-0.7c0.9,0,1.3,0.6,1.3,1.7v2.8h-0.7v-2.7c0-0.8-0.2-1.2-0.8-1.2
			c-0.4,0-0.7,0.2-1.1,0.7v3.2h-0.7V325.9z"/>
		<path d="M154.7,340c0-1,0.8-1.4,2.5-1.6c0-0.6-0.2-1.1-0.9-1.1c-0.5,0-0.9,0.2-1.2,0.5l-0.3-0.5c0.4-0.3,1-0.6,1.6-0.6
			c1,0,1.4,0.7,1.4,1.8v2.7h-0.6l-0.1-0.5h0c-0.4,0.3-0.9,0.6-1.4,0.6C155.2,341.2,154.7,340.8,154.7,340z M157.2,340v-1.2
			c-1.4,0.2-1.8,0.5-1.8,1.1c0,0.5,0.3,0.7,0.7,0.7C156.5,340.6,156.8,340.4,157.2,340z"/>
		<path d="M160.9,340.2v-5.5h0.7v5.6c0,0.2,0.1,0.3,0.2,0.3c0,0,0.1,0,0.2,0l0.1,0.6c-0.1,0-0.2,0.1-0.4,0.1
			C161.2,341.2,160.9,340.9,160.9,340.2z"/>
		<path d="M163,335.4c0-0.3,0.2-0.5,0.5-0.5c0.3,0,0.5,0.2,0.5,0.5c0,0.3-0.2,0.5-0.5,0.5C163.2,335.8,163,335.6,163,335.4z
			 M163.1,336.7h0.7v4.4h-0.7V336.7z"/>
		<path d="M164.6,336.7h0.7l0.8,2.5c0.1,0.4,0.3,0.9,0.4,1.3h0c0.1-0.4,0.3-0.9,0.4-1.3l0.8-2.5h0.7l-1.5,4.4h-0.8L164.6,336.7z"/>
		<path d="M169,335.4c0-0.3,0.2-0.5,0.5-0.5c0.3,0,0.5,0.2,0.5,0.5c0,0.3-0.2,0.5-0.5,0.5C169.2,335.8,169,335.6,169,335.4z
			 M169.2,336.7h0.7v4.4h-0.7V336.7z"/>
		<path d="M171.2,336.7h0.6l0.1,0.6h0c0.4-0.4,0.8-0.7,1.4-0.7c0.9,0,1.3,0.6,1.3,1.7v2.8h-0.7v-2.7c0-0.8-0.2-1.2-0.8-1.2
			c-0.4,0-0.7,0.2-1.1,0.7v3.2h-0.7V336.7z"/>
		<path d="M175.6,342c0-0.4,0.2-0.7,0.6-1v0c-0.2-0.1-0.4-0.4-0.4-0.7c0-0.4,0.2-0.7,0.5-0.8v0c-0.3-0.2-0.5-0.7-0.5-1.2
			c0-1,0.7-1.6,1.5-1.6c0.2,0,0.4,0,0.6,0.1h1.4v0.6h-0.8c0.2,0.2,0.3,0.5,0.3,0.9c0,0.9-0.7,1.5-1.5,1.5c-0.2,0-0.4-0.1-0.6-0.1
			c-0.1,0.1-0.3,0.3-0.3,0.5c0,0.3,0.2,0.5,0.7,0.5h0.8c1,0,1.4,0.3,1.4,1c0,0.8-0.8,1.5-2.1,1.5C176.3,343.1,175.6,342.7,175.6,342
			z M178.7,341.7c0-0.4-0.3-0.5-0.8-0.5h-0.7c-0.2,0-0.4,0-0.5-0.1c-0.3,0.2-0.4,0.5-0.4,0.7c0,0.5,0.4,0.8,1.2,0.8
			C178.2,342.6,178.7,342.2,178.7,341.7z M178.2,338.2c0-0.6-0.4-1-0.9-1c-0.5,0-0.9,0.4-0.9,1c0,0.6,0.4,1,0.9,1
			C177.8,339.2,178.2,338.8,178.2,338.2z"/>
		<path d="M182,339.8v-2.4h-0.6v-0.6l0.6,0l0.1-1.2h0.6v1.2h1.1v0.6h-1.1v2.4c0,0.5,0.2,0.8,0.6,0.8c0.1,0,0.3-0.1,0.5-0.1l0.1,0.6
			c-0.2,0.1-0.5,0.2-0.8,0.2C182.3,341.2,182,340.6,182,339.8z"/>
		<path d="M184.4,338.9c0-1.5,0.9-2.3,1.9-2.3c1,0,1.9,0.8,1.9,2.3c0,1.4-0.9,2.3-1.9,2.3C185.3,341.2,184.4,340.4,184.4,338.9z
			 M187.5,338.9c0-1-0.5-1.7-1.2-1.7c-0.7,0-1.2,0.7-1.2,1.7s0.5,1.7,1.2,1.7C187.1,340.6,187.5,339.9,187.5,338.9z"/>
		<path d="M189,342c0-0.4,0.2-0.7,0.6-1v0c-0.2-0.1-0.4-0.4-0.4-0.7c0-0.4,0.2-0.7,0.5-0.8v0c-0.3-0.2-0.5-0.7-0.5-1.2
			c0-1,0.7-1.6,1.5-1.6c0.2,0,0.4,0,0.6,0.1h1.4v0.6h-0.8c0.2,0.2,0.3,0.5,0.3,0.9c0,0.9-0.7,1.5-1.5,1.5c-0.2,0-0.4-0.1-0.6-0.1
			c-0.1,0.1-0.3,0.3-0.3,0.5c0,0.3,0.2,0.5,0.7,0.5h0.8c1,0,1.4,0.3,1.4,1c0,0.8-0.8,1.5-2.1,1.5C189.7,343.1,189,342.7,189,342z
			 M192.1,341.7c0-0.4-0.3-0.5-0.8-0.5h-0.7c-0.2,0-0.4,0-0.5-0.1c-0.3,0.2-0.4,0.5-0.4,0.7c0,0.5,0.4,0.8,1.2,0.8
			C191.6,342.6,192.1,342.2,192.1,341.7z M191.6,338.2c0-0.6-0.4-1-0.9-1c-0.5,0-0.9,0.4-0.9,1c0,0.6,0.4,1,0.9,1
			C191.2,339.2,191.6,338.8,191.6,338.2z"/>
		<path d="M193.3,338.9c0-1.4,0.9-2.3,1.9-2.3c1.1,0,1.6,0.8,1.6,2.1c0,0.2,0,0.3,0,0.4H194c0.1,0.9,0.6,1.5,1.4,1.5
			c0.4,0,0.7-0.1,1-0.3l0.2,0.5c-0.4,0.3-0.8,0.5-1.4,0.5C194.2,341.2,193.3,340.4,193.3,338.9z M196.2,338.6c0-0.9-0.4-1.4-1-1.4
			c-0.6,0-1.1,0.5-1.2,1.4H196.2z"/>
		<path d="M198,339.8v-2.4h-0.6v-0.6l0.6,0l0.1-1.2h0.6v1.2h1.1v0.6h-1.1v2.4c0,0.5,0.2,0.8,0.6,0.8c0.1,0,0.3-0.1,0.5-0.1l0.1,0.6
			c-0.2,0.1-0.5,0.2-0.8,0.2C198.2,341.2,198,340.6,198,339.8z"/>
		<path d="M200.7,334.7h0.7v1.8l0,0.9c0.4-0.4,0.8-0.7,1.4-0.7c0.9,0,1.3,0.6,1.3,1.7v2.8h-0.7v-2.7c0-0.8-0.2-1.2-0.8-1.2
			c-0.4,0-0.7,0.2-1.1,0.7v3.2h-0.7V334.7z"/>
		<path d="M205,338.9c0-1.4,0.9-2.3,1.9-2.3c1.1,0,1.6,0.8,1.6,2.1c0,0.2,0,0.3,0,0.4h-2.8c0.1,0.9,0.6,1.5,1.4,1.5
			c0.4,0,0.7-0.1,1-0.3l0.2,0.5c-0.4,0.3-0.8,0.5-1.4,0.5C205.9,341.2,205,340.4,205,338.9z M207.9,338.6c0-0.9-0.4-1.4-1-1.4
			c-0.6,0-1.1,0.5-1.2,1.4H207.9z"/>
		<path d="M209.5,336.7h0.6l0.1,0.8h0c0.3-0.6,0.7-0.9,1.2-0.9c0.2,0,0.3,0,0.4,0.1l-0.1,0.6c-0.1,0-0.2-0.1-0.4-0.1
			c-0.3,0-0.8,0.3-1,1v2.8h-0.7V336.7z"/>
		<path d="M155,347.5h0.6l0.1,0.8h0c0.3-0.6,0.7-0.9,1.2-0.9c0.2,0,0.3,0,0.4,0.1l-0.1,0.6c-0.1,0-0.2-0.1-0.4-0.1
			c-0.3,0-0.8,0.3-1,1v2.8H155V347.5z"/>
		<path d="M157.6,349.7c0-1.4,0.9-2.3,1.9-2.3c1.1,0,1.6,0.8,1.6,2.1c0,0.2,0,0.3,0,0.4h-2.8c0.1,0.9,0.6,1.5,1.4,1.5
			c0.4,0,0.7-0.1,1-0.3l0.2,0.5c-0.4,0.3-0.8,0.5-1.4,0.5C158.5,352,157.6,351.2,157.6,349.7z M160.5,349.4c0-0.9-0.4-1.4-1-1.4
			c-0.6,0-1.1,0.5-1.2,1.4H160.5z"/>
		<path d="M162.1,351v-5.5h0.7v5.6c0,0.2,0.1,0.3,0.2,0.3c0,0,0.1,0,0.2,0l0.1,0.6c-0.1,0-0.2,0.1-0.4,0.1
			C162.3,352,162.1,351.7,162.1,351z"/>
		<path d="M164,350.8c0-1,0.8-1.4,2.5-1.6c0-0.6-0.2-1.1-0.9-1.1c-0.5,0-0.9,0.2-1.2,0.5l-0.3-0.5c0.4-0.3,1-0.6,1.6-0.6
			c1,0,1.4,0.7,1.4,1.8v2.7h-0.6l-0.1-0.5h0c-0.4,0.3-0.9,0.6-1.4,0.6C164.5,352,164,351.6,164,350.8z M166.6,350.8v-1.2
			c-1.4,0.2-1.8,0.5-1.8,1.1c0,0.5,0.3,0.7,0.7,0.7C165.8,351.4,166.2,351.2,166.6,350.8z"/>
		<path d="M168.7,350.6v-2.4h-0.6v-0.6l0.6,0l0.1-1.2h0.6v1.2h1.1v0.6h-1.1v2.4c0,0.5,0.2,0.8,0.6,0.8c0.1,0,0.3-0.1,0.5-0.1
			l0.1,0.6c-0.2,0.1-0.5,0.2-0.8,0.2C169,352,168.7,351.4,168.7,350.6z"/>
		<path d="M171.3,346.2c0-0.3,0.2-0.5,0.5-0.5c0.3,0,0.5,0.2,0.5,0.5c0,0.3-0.2,0.5-0.5,0.5C171.5,346.6,171.3,346.4,171.3,346.2z
			 M171.4,347.5h0.7v4.4h-0.7V347.5z"/>
		<path d="M173.2,349.7c0-1.5,0.9-2.3,1.9-2.3c1,0,1.9,0.8,1.9,2.3c0,1.4-0.9,2.3-1.9,2.3C174.1,352,173.2,351.2,173.2,349.7z
			 M176.3,349.7c0-1-0.5-1.7-1.2-1.7c-0.7,0-1.2,0.7-1.2,1.7s0.5,1.7,1.2,1.7C175.8,351.4,176.3,350.7,176.3,349.7z"/>
		<path d="M178.1,347.5h0.6l0.1,0.6h0c0.4-0.4,0.8-0.7,1.4-0.7c0.9,0,1.3,0.6,1.3,1.7v2.8h-0.7v-2.7c0-0.8-0.2-1.2-0.8-1.2
			c-0.4,0-0.7,0.2-1.1,0.7v3.2h-0.7V347.5z"/>
		<path d="M182.3,351.4l0.3-0.5c0.4,0.3,0.7,0.5,1.2,0.5c0.5,0,0.8-0.3,0.8-0.7c0-0.5-0.5-0.6-0.9-0.8c-0.6-0.2-1.2-0.5-1.2-1.3
			c0-0.7,0.5-1.2,1.4-1.2c0.5,0,1,0.2,1.3,0.5l-0.3,0.5c-0.3-0.2-0.6-0.4-0.9-0.4c-0.5,0-0.8,0.3-0.8,0.6c0,0.4,0.4,0.6,0.9,0.8
			c0.6,0.2,1.3,0.5,1.3,1.3c0,0.7-0.5,1.3-1.5,1.3C183.3,352,182.7,351.8,182.3,351.4z"/>
		<path d="M186.3,345.5h0.7v1.8l0,0.9c0.4-0.4,0.8-0.7,1.4-0.7c0.9,0,1.3,0.6,1.3,1.7v2.8h-0.7v-2.7c0-0.8-0.2-1.2-0.8-1.2
			c-0.4,0-0.7,0.2-1.1,0.7v3.2h-0.7V345.5z"/>
		<path d="M190.8,346.2c0-0.3,0.2-0.5,0.5-0.5c0.3,0,0.5,0.2,0.5,0.5c0,0.3-0.2,0.5-0.5,0.5C191,346.6,190.8,346.4,190.8,346.2z
			 M190.9,347.5h0.7v4.4h-0.7V347.5z"/>
		<path d="M193,347.5h0.6l0.1,0.5h0c0.4-0.3,0.8-0.6,1.3-0.6c1.1,0,1.6,0.9,1.6,2.2c0,1.5-0.8,2.4-1.8,2.4c-0.4,0-0.8-0.2-1.1-0.5
			l0,0.8v1.5H193V347.5z M195.9,349.7c0-1-0.3-1.6-1.1-1.6c-0.3,0-0.7,0.2-1.1,0.6v2.3c0.4,0.3,0.7,0.5,1,0.5
			C195.4,351.4,195.9,350.7,195.9,349.7z"/>
	</g>
</g>
<g>
	<rect x="14.6" y="162.1" class="st0" width="37.8" height="37.8"/>
	<circle class="st0" cx="119.6" cy="181" r="18.8"/>
	<line class="st1" x1="52.4" y1="181" x2="100.8" y2="181"/>
</g>
<g>
	<g>
		<path d="M160.4,175.5h0.9l1.1,3.2c0.1,0.4,0.3,0.8,0.4,1.2h0c0.1-0.4,0.3-0.8,0.4-1.2l1.1-3.2h0.9v5.9h-0.7v-3.3
			c0-0.5,0.1-1.2,0.1-1.7h0l-0.4,1.3l-1,3.1h-0.5l-1.1-3.1l-0.4-1.3h0c0,0.5,0.1,1.2,0.1,1.7v3.3h-0.6V175.5z"/>
		<path d="M166.3,180.3c0-1,0.8-1.4,2.5-1.6c0-0.6-0.2-1.1-0.9-1.1c-0.5,0-0.9,0.2-1.2,0.5l-0.3-0.5c0.4-0.3,1-0.6,1.6-0.6
			c1,0,1.4,0.7,1.4,1.8v2.7h-0.6l-0.1-0.5h0c-0.4,0.3-0.9,0.6-1.4,0.6C166.8,181.5,166.3,181.1,166.3,180.3z M168.8,180.3v-1.2
			c-1.4,0.2-1.8,0.5-1.8,1.1c0,0.5,0.3,0.7,0.7,0.7C168.1,180.9,168.4,180.7,168.8,180.3z"/>
		<path d="M170.8,177h0.6l0.1,0.8h0c0.3-0.6,0.7-0.9,1.2-0.9c0.2,0,0.3,0,0.4,0.1l-0.1,0.6c-0.1,0-0.2-0.1-0.4-0.1
			c-0.3,0-0.8,0.3-1,1v2.8h-0.7V177z"/>
		<path d="M173.7,177h0.6l0.1,0.8h0c0.3-0.6,0.7-0.9,1.2-0.9c0.2,0,0.3,0,0.4,0.1l-0.1,0.6c-0.1,0-0.2-0.1-0.4-0.1
			c-0.3,0-0.8,0.3-1,1v2.8h-0.7V177z"/>
		<path d="M176.6,175.6c0-0.3,0.2-0.5,0.5-0.5c0.3,0,0.5,0.2,0.5,0.5c0,0.3-0.2,0.5-0.5,0.5C176.8,176.1,176.6,175.9,176.6,175.6z
			 M176.7,177h0.7v4.4h-0.7V177z"/>
		<path d="M178.5,179.2c0-1.4,0.9-2.3,1.9-2.3c1.1,0,1.6,0.8,1.6,2.1c0,0.2,0,0.3,0,0.4h-2.8c0.1,0.9,0.6,1.5,1.4,1.5
			c0.4,0,0.7-0.1,1-0.3l0.2,0.5c-0.4,0.3-0.8,0.5-1.4,0.5C179.3,181.5,178.5,180.7,178.5,179.2z M181.4,178.9c0-0.9-0.4-1.4-1-1.4
			c-0.6,0-1.1,0.5-1.2,1.4H181.4z"/>
		<path d="M182.7,179.2c0-1.4,0.8-2.3,1.8-2.3c0.5,0,0.8,0.2,1.2,0.5l0-0.8V175h0.7v6.4h-0.6l-0.1-0.5h0c-0.3,0.3-0.8,0.6-1.3,0.6
			C183.4,181.5,182.7,180.7,182.7,179.2z M185.6,180.3V178c-0.4-0.3-0.7-0.5-1-0.5c-0.7,0-1.2,0.7-1.2,1.7c0,1,0.4,1.7,1.1,1.7
			C184.9,180.9,185.3,180.7,185.6,180.3z"/>
	</g>
</g>
<rect x="248.5" y="13.6" class="st5" width="37.8" height="37.8"/>
<g>
	<g>
		<path d="M311.1,29.9h0.9L313,33c0.1,0.4,0.3,0.8,0.4,1.2h0c0.1-0.4,0.3-0.8,0.4-1.2l1.1-3.2h0.9v5.9h-0.7v-3.3
			c0-0.5,0.1-1.2,0.1-1.7h0l-0.4,1.3l-1,3.1h-0.5l-1.1-3.1l-0.4-1.3h0c0,0.5,0.1,1.2,0.1,1.7v3.3h-0.6V29.9z"/>
		<path d="M316.9,34.6c0-1,0.8-1.4,2.5-1.6c0-0.6-0.2-1.1-0.9-1.1c-0.5,0-0.9,0.2-1.2,0.5l-0.3-0.5c0.4-0.3,1-0.6,1.6-0.6
			c1,0,1.4,0.7,1.4,1.8v2.7h-0.6l-0.1-0.5h0c-0.4,0.3-0.9,0.6-1.4,0.6C317.5,35.9,316.9,35.4,316.9,34.6z M319.5,34.7v-1.2
			c-1.4,0.2-1.8,0.5-1.8,1.1c0,0.5,0.3,0.7,0.7,0.7C318.7,35.3,319.1,35.1,319.5,34.7z"/>
		<path d="M321.5,34.9v-5.5h0.7V35c0,0.2,0.1,0.3,0.2,0.3c0,0,0.1,0,0.2,0l0.1,0.6c-0.1,0-0.2,0.1-0.4,0.1
			C321.7,35.9,321.5,35.5,321.5,34.9z"/>
		<path d="M323.3,33.6c0-1.4,0.9-2.3,1.9-2.3c1.1,0,1.6,0.8,1.6,2.1c0,0.2,0,0.3,0,0.4H324c0.1,0.9,0.6,1.5,1.4,1.5
			c0.4,0,0.7-0.1,1-0.3l0.2,0.5c-0.4,0.3-0.8,0.5-1.4,0.5C324.2,35.9,323.3,35,323.3,33.6z M326.2,33.2c0-0.9-0.4-1.4-1-1.4
			c-0.6,0-1.1,0.5-1.2,1.4H326.2z"/>
		<path d="M329.5,33.3c0-1.6,0.4-2.9,1.1-4.1l0.4,0.2c-0.7,1.1-1,2.5-1,3.9c0,1.4,0.3,2.7,1,3.9l-0.4,0.2
			C330,36.2,329.5,34.9,329.5,33.3z"/>
		<path d="M331.8,33.6c0-1.4,0.8-2.3,1.8-2.3c0.5,0,0.8,0.2,1.2,0.5l0-0.8v-1.7h0.7v6.4h-0.6l-0.1-0.5h0c-0.3,0.3-0.8,0.6-1.3,0.6
			C332.5,35.9,331.8,35.1,331.8,33.6z M334.7,34.7v-2.3c-0.4-0.3-0.7-0.5-1-0.5c-0.7,0-1.2,0.7-1.2,1.7c0,1,0.4,1.7,1.1,1.7
			C334.1,35.3,334.4,35.1,334.7,34.7z"/>
		<path d="M336.7,30c0-0.3,0.2-0.5,0.5-0.5s0.5,0.2,0.5,0.5c0,0.3-0.2,0.5-0.5,0.5S336.7,30.3,336.7,30z M336.8,31.4h0.7v4.4h-0.7
			V31.4z"/>
		<path d="M338.6,33.6c0-1.4,0.9-2.3,1.9-2.3c1.1,0,1.6,0.8,1.6,2.1c0,0.2,0,0.3,0,0.4h-2.8c0.1,0.9,0.6,1.5,1.4,1.5
			c0.4,0,0.7-0.1,1-0.3l0.2,0.5c-0.4,0.3-0.8,0.5-1.4,0.5C339.5,35.9,338.6,35,338.6,33.6z M341.5,33.2c0-0.9-0.4-1.4-1-1.4
			c-0.6,0-1.1,0.5-1.2,1.4H341.5z"/>
		<path d="M342.8,33.6c0-1.4,0.8-2.3,1.8-2.3c0.5,0,0.8,0.2,1.2,0.5l0-0.8v-1.7h0.7v6.4h-0.6l-0.1-0.5h0c-0.3,0.3-0.8,0.6-1.3,0.6
			C343.5,35.9,342.8,35.1,342.8,33.6z M345.7,34.7v-2.3c-0.4-0.3-0.7-0.5-1-0.5c-0.7,0-1.2,0.7-1.2,1.7c0,1,0.4,1.7,1.1,1.7
			C345.1,35.3,345.4,35.1,345.7,34.7z"/>
		<path d="M347.5,37.2c0.7-1.1,1-2.5,1-3.9c0-1.4-0.3-2.7-1-3.9l0.4-0.2c0.7,1.2,1.1,2.5,1.1,4.1c0,1.6-0.4,2.9-1.1,4.1L347.5,37.2z
			"/>
	</g>
</g>
<g>
	<circle class="st0" cx="267.2" cy="131.3" r="18.8"/>
	<g>
		<line class="st1" x1="255.1" y1="117.2" x2="280" y2="145.7"/>
		<line class="st1" x1="280" y1="117.2" x2="255.1" y2="145.7"/>
	</g>
</g>
<g>
	<g>
		<path d="M311.1,129h3.2v0.6h-2.5v2h2.1v0.6h-2.1v2.6h-0.7V129z"/>
		<path d="M314.9,132.7c0-1.4,0.9-2.3,1.9-2.3c1.1,0,1.6,0.8,1.6,2.1c0,0.2,0,0.3,0,0.4h-2.8c0.1,0.9,0.6,1.5,1.4,1.5
			c0.4,0,0.7-0.1,1-0.3l0.2,0.5c-0.4,0.3-0.8,0.5-1.4,0.5C315.8,135,314.9,134.1,314.9,132.7z M317.8,132.3c0-0.9-0.4-1.4-1-1.4
			c-0.6,0-1.1,0.5-1.2,1.4H317.8z"/>
		<path d="M319.4,130.5h0.6l0.1,0.6h0c0.4-0.4,0.8-0.7,1.3-0.7c0.6,0,1,0.3,1.1,0.8c0.4-0.5,0.9-0.8,1.4-0.8c0.8,0,1.3,0.6,1.3,1.7
			v2.8h-0.7v-2.7c0-0.8-0.2-1.2-0.8-1.2c-0.3,0-0.7,0.2-1,0.7v3.2h-0.7v-2.7c0-0.8-0.2-1.2-0.8-1.2c-0.3,0-0.7,0.2-1,0.7v3.2h-0.7
			V130.5z"/>
		<path d="M326.2,133.7c0-1,0.8-1.4,2.5-1.6c0-0.6-0.2-1.1-0.9-1.1c-0.5,0-0.9,0.2-1.2,0.5l-0.3-0.5c0.4-0.3,1-0.6,1.6-0.6
			c1,0,1.4,0.7,1.4,1.8v2.7h-0.6l-0.1-0.5h0c-0.4,0.3-0.9,0.6-1.4,0.6C326.7,135,326.2,134.5,326.2,133.7z M328.7,133.8v-1.2
			c-1.4,0.2-1.8,0.5-1.8,1.1c0,0.5,0.3,0.7,0.7,0.7C328,134.4,328.3,134.2,328.7,133.8z"/>
		<path d="M330.7,134v-5.5h0.7v5.6c0,0.2,0.1,0.3,0.2,0.3c0,0,0.1,0,0.2,0l0.1,0.6c-0.1,0-0.2,0.1-0.4,0.1
			C331,135,330.7,134.6,330.7,134z"/>
		<path d="M332.6,132.7c0-1.4,0.9-2.3,1.9-2.3c1.1,0,1.6,0.8,1.6,2.1c0,0.2,0,0.3,0,0.4h-2.8c0,0.9,0.6,1.5,1.4,1.5
			c0.4,0,0.7-0.1,1-0.3l0.2,0.5c-0.4,0.3-0.8,0.5-1.4,0.5C333.5,135,332.6,134.1,332.6,132.7z M335.5,132.3c0-0.9-0.4-1.4-1-1.4
			c-0.6,0-1.1,0.5-1.2,1.4H335.5z"/>
		<path d="M338.9,129h1.6c1.2,0,2.1,0.4,2.1,1.7c0,1.2-0.8,1.8-2.1,1.8h-0.9v2.3h-0.7V129z M340.4,131.9c1,0,1.4-0.4,1.4-1.2
			c0-0.9-0.5-1.1-1.5-1.1h-0.8v2.3H340.4z"/>
		<path d="M343.4,133.7c0-1,0.8-1.4,2.5-1.6c0-0.6-0.2-1.1-0.9-1.1c-0.5,0-0.9,0.2-1.2,0.5l-0.3-0.5c0.4-0.3,1-0.6,1.6-0.6
			c1,0,1.4,0.7,1.4,1.8v2.7H346l-0.1-0.5h0c-0.4,0.3-0.9,0.6-1.4,0.6C343.9,135,343.4,134.5,343.4,133.7z M345.9,133.8v-1.2
			c-1.4,0.2-1.8,0.5-1.8,1.1c0,0.5,0.3,0.7,0.7,0.7C345.2,134.4,345.5,134.2,345.9,133.8z"/>
		<path d="M348,133.5v-2.4h-0.6v-0.6l0.6,0l0.1-1.2h0.6v1.2h1.1v0.6h-1.1v2.4c0,0.5,0.2,0.8,0.6,0.8c0.1,0,0.3-0.1,0.5-0.1l0.1,0.6
			c-0.2,0.1-0.5,0.2-0.8,0.2C348.3,135,348,134.4,348,133.5z"/>
		<path d="M350.6,129.1c0-0.3,0.2-0.5,0.5-0.5c0.3,0,0.5,0.2,0.5,0.5c0,0.3-0.2,0.5-0.5,0.5C350.9,129.6,350.6,129.4,350.6,129.1z
			 M350.8,130.5h0.7v4.4h-0.7V130.5z"/>
		<path d="M352.6,132.7c0-1.4,0.9-2.3,1.9-2.3c1.1,0,1.6,0.8,1.6,2.1c0,0.2,0,0.3,0,0.4h-2.8c0,0.9,0.6,1.5,1.4,1.5
			c0.4,0,0.7-0.1,1-0.3l0.2,0.5c-0.4,0.3-0.8,0.5-1.4,0.5C353.4,135,352.6,134.1,352.6,132.7z M355.4,132.3c0-0.9-0.4-1.4-1-1.4
			c-0.6,0-1.1,0.5-1.2,1.4H355.4z"/>
		<path d="M357.1,130.5h0.6l0.1,0.6h0c0.4-0.4,0.8-0.7,1.4-0.7c0.9,0,1.3,0.6,1.3,1.7v2.8h-0.7v-2.7c0-0.8-0.2-1.2-0.8-1.2
			c-0.4,0-0.7,0.2-1.1,0.7v3.2h-0.7V130.5z"/>
		<path d="M361.8,133.5v-2.4h-0.6v-0.6l0.6,0l0.1-1.2h0.6v1.2h1.1v0.6h-1.1v2.4c0,0.5,0.2,0.8,0.6,0.8c0.1,0,0.3-0.1,0.5-0.1
			l0.1,0.6c-0.2,0.1-0.5,0.2-0.8,0.2C362.1,135,361.8,134.4,361.8,133.5z"/>
	</g>
</g>
<circle class="st5" cx="267.2" cy="82" r="18.8"/>
<g>
	<g>
		<path d="M311.1,78.4h3.2v0.6h-2.5v2h2.1v0.6h-2.1v2.6h-0.7V78.4z"/>
		<path d="M314.9,82.1c0-1.4,0.9-2.3,1.9-2.3c1.1,0,1.6,0.8,1.6,2.1c0,0.2,0,0.3,0,0.4h-2.8c0,0.9,0.6,1.5,1.4,1.5
			c0.4,0,0.7-0.1,1-0.3l0.2,0.5c-0.4,0.3-0.8,0.5-1.4,0.5C315.8,84.4,314.9,83.6,314.9,82.1z M317.8,81.8c0-0.9-0.4-1.4-1-1.4
			c-0.6,0-1.1,0.5-1.2,1.4H317.8z"/>
		<path d="M319.4,79.9h0.6l0.1,0.6h0c0.4-0.4,0.8-0.7,1.3-0.7c0.6,0,1,0.3,1.1,0.8c0.4-0.5,0.9-0.8,1.4-0.8c0.8,0,1.3,0.6,1.3,1.7
			v2.8h-0.7v-2.7c0-0.8-0.2-1.2-0.8-1.2c-0.3,0-0.7,0.2-1,0.7v3.2h-0.7v-2.7c0-0.8-0.2-1.2-0.8-1.2c-0.3,0-0.7,0.2-1,0.7v3.2h-0.7
			V79.9z"/>
		<path d="M326.2,83.2c0-1,0.8-1.4,2.5-1.6c0-0.6-0.2-1.1-0.9-1.1c-0.5,0-0.9,0.2-1.2,0.5l-0.3-0.5c0.4-0.3,1-0.6,1.6-0.6
			c1,0,1.4,0.7,1.4,1.8v2.7h-0.6l-0.1-0.5h0c-0.4,0.3-0.9,0.6-1.4,0.6C326.7,84.4,326.2,84,326.2,83.2z M328.7,83.3V82
			c-1.4,0.2-1.8,0.5-1.8,1.1c0,0.5,0.3,0.7,0.7,0.7C328,83.8,328.3,83.6,328.7,83.3z"/>
		<path d="M330.7,83.4v-5.5h0.7v5.6c0,0.2,0.1,0.3,0.2,0.3c0,0,0.1,0,0.2,0l0.1,0.6c-0.1,0-0.2,0.1-0.4,0.1
			C331,84.4,330.7,84.1,330.7,83.4z"/>
		<path d="M332.6,82.1c0-1.4,0.9-2.3,1.9-2.3c1.1,0,1.6,0.8,1.6,2.1c0,0.2,0,0.3,0,0.4h-2.8c0.1,0.9,0.6,1.5,1.4,1.5
			c0.4,0,0.7-0.1,1-0.3l0.2,0.5c-0.4,0.3-0.8,0.5-1.4,0.5C333.5,84.4,332.6,83.6,332.6,82.1z M335.5,81.8c0-0.9-0.4-1.4-1-1.4
			c-0.6,0-1.1,0.5-1.2,1.4H335.5z"/>
		<path d="M338.8,81.8c0-1.6,0.4-2.9,1.1-4.1l0.4,0.2c-0.7,1.1-1,2.5-1,3.9c0,1.4,0.3,2.7,1,3.9l-0.4,0.2
			C339.2,84.7,338.8,83.4,338.8,81.8z"/>
		<path d="M341.1,82.1c0-1.4,0.8-2.3,1.8-2.3c0.5,0,0.8,0.2,1.2,0.5l0-0.8v-1.7h0.7v6.4h-0.6l-0.1-0.5h0c-0.3,0.3-0.8,0.6-1.3,0.6
			C341.8,84.4,341.1,83.6,341.1,82.1z M344,83.2v-2.3c-0.4-0.3-0.7-0.5-1-0.5c-0.7,0-1.2,0.7-1.2,1.7c0,1,0.4,1.7,1.1,1.7
			C343.3,83.8,343.7,83.6,344,83.2z"/>
		<path d="M346,78.6c0-0.3,0.2-0.5,0.5-0.5s0.5,0.2,0.5,0.5c0,0.3-0.2,0.5-0.5,0.5S346,78.8,346,78.6z M346.1,79.9h0.7v4.4h-0.7
			V79.9z"/>
		<path d="M347.9,82.1c0-1.4,0.9-2.3,1.9-2.3c1.1,0,1.6,0.8,1.6,2.1c0,0.2,0,0.3,0,0.4h-2.8c0.1,0.9,0.6,1.5,1.4,1.5
			c0.4,0,0.7-0.1,1-0.3l0.2,0.5c-0.4,0.3-0.8,0.5-1.4,0.5C348.8,84.4,347.9,83.6,347.9,82.1z M350.8,81.8c0-0.9-0.4-1.4-1-1.4
			c-0.6,0-1.1,0.5-1.2,1.4H350.8z"/>
		<path d="M352.1,82.1c0-1.4,0.8-2.3,1.8-2.3c0.5,0,0.8,0.2,1.2,0.5l0-0.8v-1.7h0.7v6.4h-0.6l-0.1-0.5h0c-0.3,0.3-0.8,0.6-1.3,0.6
			C352.8,84.4,352.1,83.6,352.1,82.1z M355,83.2v-2.3c-0.4-0.3-0.7-0.5-1-0.5c-0.7,0-1.2,0.7-1.2,1.7c0,1,0.4,1.7,1.1,1.7
			C354.3,83.8,354.7,83.6,355,83.2z"/>
		<path d="M356.7,85.7c0.7-1.1,1-2.5,1-3.9c0-1.4-0.3-2.7-1-3.9l0.4-0.2c0.7,1.2,1.1,2.5,1.1,4.1s-0.4,2.9-1.1,4.1L356.7,85.7z"/>
	</g>
</g>
<g>
	<g>
		<path d="M310.8,178.4c0-1.9,1.1-3.1,2.5-3.1c0.7,0,1.2,0.3,1.5,0.7l-0.4,0.5c-0.3-0.3-0.7-0.6-1.1-0.6c-1.1,0-1.8,0.9-1.8,2.4
			c0,1.5,0.7,2.4,1.7,2.4c0.5,0,0.9-0.2,1.3-0.7l0.4,0.5c-0.4,0.5-1,0.9-1.7,0.9C311.8,181.5,310.8,180.4,310.8,178.4z"/>
		<path d="M315.9,180.5V175h0.7v5.6c0,0.2,0.1,0.3,0.2,0.3c0,0,0.1,0,0.2,0l0.1,0.6c-0.1,0-0.2,0.1-0.4,0.1
			C316.1,181.5,315.9,181.2,315.9,180.5z"/>
		<path d="M317.7,179.2c0-1.5,0.9-2.3,1.9-2.3s1.9,0.8,1.9,2.3c0,1.4-0.9,2.3-1.9,2.3S317.7,180.7,317.7,179.2z M320.8,179.2
			c0-1-0.5-1.7-1.2-1.7s-1.2,0.7-1.2,1.7c0,1,0.5,1.7,1.2,1.7S320.8,180.2,320.8,179.2z"/>
		<path d="M322.2,180.9l0.3-0.5c0.4,0.3,0.7,0.5,1.2,0.5c0.5,0,0.8-0.3,0.8-0.7c0-0.5-0.5-0.6-0.9-0.8c-0.6-0.2-1.2-0.5-1.2-1.3
			c0-0.7,0.5-1.2,1.4-1.2c0.5,0,1,0.2,1.3,0.5l-0.3,0.5c-0.3-0.2-0.6-0.4-0.9-0.4c-0.5,0-0.8,0.3-0.8,0.6c0,0.4,0.4,0.6,0.9,0.8
			c0.6,0.2,1.3,0.5,1.3,1.3c0,0.7-0.5,1.3-1.5,1.3C323.1,181.5,322.6,181.2,322.2,180.9z"/>
		<path d="M325.9,179.2c0-1.4,0.9-2.3,1.9-2.3c1.1,0,1.6,0.8,1.6,2.1c0,0.2,0,0.3,0,0.4h-2.8c0.1,0.9,0.6,1.5,1.4,1.5
			c0.4,0,0.7-0.1,1-0.3l0.2,0.5c-0.4,0.3-0.8,0.5-1.4,0.5C326.8,181.5,325.9,180.7,325.9,179.2z M328.8,178.9c0-0.9-0.4-1.4-1-1.4
			c-0.6,0-1.1,0.5-1.2,1.4H328.8z"/>
		<path d="M332.2,175.5h1.7c1.1,0,1.9,0.4,1.9,1.7c0,1.2-0.8,1.7-1.9,1.7h-1v2.5h-0.7V175.5z M333.8,178.3c0.9,0,1.3-0.4,1.3-1.1
			c0-0.8-0.5-1.1-1.3-1.1h-0.9v2.2H333.8z M333.8,178.7l0.6-0.4l1.7,3.1h-0.8L333.8,178.7z"/>
		<path d="M336.6,179.2c0-1.4,0.9-2.3,1.9-2.3c1.1,0,1.6,0.8,1.6,2.1c0,0.2,0,0.3,0,0.4h-2.8c0.1,0.9,0.6,1.5,1.4,1.5
			c0.4,0,0.7-0.1,1-0.3l0.2,0.5c-0.4,0.3-0.8,0.5-1.4,0.5C337.5,181.5,336.6,180.7,336.6,179.2z M339.5,178.9c0-0.9-0.4-1.4-1-1.4
			c-0.6,0-1.1,0.5-1.2,1.4H339.5z"/>
		<path d="M341.1,180.5V175h0.7v5.6c0,0.2,0.1,0.3,0.2,0.3c0,0,0.1,0,0.2,0l0.1,0.6c-0.1,0-0.2,0.1-0.4,0.1
			C341.4,181.5,341.1,181.2,341.1,180.5z"/>
		<path d="M343,180.3c0-1,0.8-1.4,2.5-1.6c0-0.6-0.2-1.1-0.9-1.1c-0.5,0-0.9,0.2-1.2,0.5l-0.3-0.5c0.4-0.3,1-0.6,1.6-0.6
			c1,0,1.4,0.7,1.4,1.8v2.7h-0.6l-0.1-0.5h0c-0.4,0.3-0.9,0.6-1.4,0.6C343.6,181.5,343,181.1,343,180.3z M345.6,180.3v-1.2
			c-1.4,0.2-1.8,0.5-1.8,1.1c0,0.5,0.3,0.7,0.7,0.7C344.9,180.9,345.2,180.7,345.6,180.3z"/>
		<path d="M347.7,180v-2.4h-0.6v-0.6l0.6,0l0.1-1.2h0.6v1.2h1.1v0.6h-1.1v2.4c0,0.5,0.2,0.8,0.6,0.8c0.1,0,0.3-0.1,0.5-0.1l0.1,0.6
			c-0.2,0.1-0.5,0.2-0.8,0.2C348,181.5,347.7,180.9,347.7,180z"/>
		<path d="M350.3,175.6c0-0.3,0.2-0.5,0.5-0.5s0.5,0.2,0.5,0.5c0,0.3-0.2,0.5-0.5,0.5S350.3,175.9,350.3,175.6z M350.5,177h0.7v4.4
			h-0.7V177z"/>
		<path d="M352.2,179.2c0-1.5,0.9-2.3,1.9-2.3s1.9,0.8,1.9,2.3c0,1.4-0.9,2.3-1.9,2.3S352.2,180.7,352.2,179.2z M355.3,179.2
			c0-1-0.5-1.7-1.2-1.7s-1.2,0.7-1.2,1.7c0,1,0.5,1.7,1.2,1.7S355.3,180.2,355.3,179.2z"/>
		<path d="M357.1,177h0.6l0.1,0.6h0c0.4-0.4,0.8-0.7,1.4-0.7c0.9,0,1.3,0.6,1.3,1.7v2.8h-0.7v-2.7c0-0.8-0.2-1.2-0.8-1.2
			c-0.4,0-0.7,0.2-1.1,0.7v3.2h-0.7V177z"/>
		<path d="M361.3,180.9l0.3-0.5c0.4,0.3,0.7,0.5,1.2,0.5c0.5,0,0.8-0.3,0.8-0.7c0-0.5-0.5-0.6-0.9-0.8c-0.6-0.2-1.2-0.5-1.2-1.3
			c0-0.7,0.5-1.2,1.4-1.2c0.5,0,1,0.2,1.3,0.5l-0.3,0.5c-0.3-0.2-0.6-0.4-0.9-0.4c-0.5,0-0.8,0.3-0.8,0.6c0,0.4,0.4,0.6,0.9,0.8
			c0.6,0.2,1.3,0.5,1.3,1.3c0,0.7-0.5,1.3-1.5,1.3C362.3,181.5,361.7,181.2,361.3,180.9z"/>
		<path d="M365.3,175h0.7v1.8l0,0.9c0.4-0.4,0.8-0.7,1.4-0.7c0.9,0,1.3,0.6,1.3,1.7v2.8h-0.7v-2.7c0-0.8-0.2-1.2-0.8-1.2
			c-0.4,0-0.7,0.2-1.1,0.7v3.2h-0.7V175z"/>
		<path d="M369.8,175.6c0-0.3,0.2-0.5,0.5-0.5s0.5,0.2,0.5,0.5c0,0.3-0.2,0.5-0.5,0.5S369.8,175.9,369.8,175.6z M370,177h0.7v4.4
			H370V177z"/>
		<path d="M372.1,177h0.6l0.1,0.5h0c0.4-0.3,0.8-0.6,1.3-0.6c1.1,0,1.6,0.9,1.6,2.2c0,1.5-0.8,2.4-1.8,2.4c-0.4,0-0.8-0.2-1.1-0.5
			l0,0.8v1.5h-0.7V177z M374.9,179.2c0-1-0.3-1.6-1.1-1.6c-0.3,0-0.7,0.2-1.1,0.6v2.3c0.4,0.3,0.7,0.5,1,0.5
			C374.4,180.9,374.9,180.2,374.9,179.2z"/>
	</g>
</g>
<line class="st1" x1="289.1" y1="162.1" x2="251.3" y2="200"/>
<line class="st1" x1="283.8" y1="162.1" x2="246" y2="200"/>
<g>
	<rect x="14.6" y="211.7" class="st0" width="37.8" height="37.8"/>
	<circle class="st0" cx="119.6" cy="230.6" r="18.8"/>
	<line class="st1" x1="52.4" y1="230.6" x2="100.8" y2="230.6"/>
	<line class="st1" x1="100.6" y1="211.7" x2="62.8" y2="249.6"/>
</g>
<g>
	<g>
		<path d="M330.9,225.7h1.6c1.2,0,2.1,0.4,2.1,1.7c0,1.2-0.8,1.8-2.1,1.8h-0.9v2.3h-0.7V225.7z M332.4,228.6c1,0,1.4-0.4,1.4-1.2
			c0-0.9-0.5-1.1-1.5-1.1h-0.8v2.3H332.4z"/>
		<path d="M335.6,227.2h0.6l0.1,0.8h0c0.3-0.6,0.7-0.9,1.2-0.9c0.2,0,0.3,0,0.4,0.1l-0.1,0.6c-0.1,0-0.2-0.1-0.4-0.1
			c-0.3,0-0.8,0.3-1,1v2.8h-0.7V227.2z"/>
		<path d="M338.3,229.4c0-1.5,0.9-2.3,1.9-2.3c1,0,1.9,0.8,1.9,2.3c0,1.4-0.9,2.3-1.9,2.3C339.2,231.7,338.3,230.9,338.3,229.4z
			 M341.4,229.4c0-1-0.5-1.7-1.2-1.7c-0.7,0-1.2,0.7-1.2,1.7c0,1,0.5,1.7,1.2,1.7C340.9,231.1,341.4,230.4,341.4,229.4z"/>
		<path d="M343.8,231.1L343.8,231.1l-0.1,0.5h-0.6v-6.4h0.7v1.8l0,0.8c0.4-0.3,0.8-0.6,1.3-0.6c1.1,0,1.6,0.9,1.6,2.2
			c0,1.5-0.8,2.4-1.8,2.4C344.6,231.7,344.2,231.5,343.8,231.1z M346.1,229.4c0-1-0.3-1.6-1.1-1.6c-0.3,0-0.7,0.2-1.1,0.6v2.3
			c0.4,0.3,0.7,0.5,1,0.5C345.6,231.1,346.1,230.4,346.1,229.4z"/>
		<path d="M347.9,230.7v-5.5h0.7v5.6c0,0.2,0.1,0.3,0.2,0.3c0,0,0.1,0,0.2,0l0.1,0.6c-0.1,0-0.2,0.1-0.4,0.1
			C348.1,231.7,347.9,231.4,347.9,230.7z"/>
		<path d="M349.7,229.4c0-1.4,0.9-2.3,1.9-2.3c1.1,0,1.6,0.8,1.6,2.1c0,0.2,0,0.3,0,0.4h-2.8c0,0.9,0.6,1.5,1.4,1.5
			c0.4,0,0.7-0.1,1-0.3l0.2,0.5c-0.4,0.3-0.8,0.5-1.4,0.5C350.6,231.7,349.7,230.9,349.7,229.4z M352.6,229.1c0-0.9-0.4-1.4-1-1.4
			c-0.6,0-1.1,0.5-1.2,1.4H352.6z"/>
		<path d="M354.2,227.2h0.6l0.1,0.6h0c0.4-0.4,0.8-0.7,1.3-0.7c0.6,0,1,0.3,1.1,0.8c0.4-0.5,0.9-0.8,1.4-0.8c0.8,0,1.3,0.6,1.3,1.7
			v2.8h-0.7v-2.7c0-0.8-0.2-1.2-0.8-1.2c-0.3,0-0.7,0.2-1,0.7v3.2h-0.7v-2.7c0-0.8-0.2-1.2-0.8-1.2c-0.3,0-0.7,0.2-1,0.7v3.2h-0.7
			V227.2z"/>
		<path d="M363,225.7h1.7c1.1,0,1.9,0.4,1.9,1.7c0,1.2-0.8,1.7-1.9,1.7h-1v2.5H363V225.7z M364.7,228.5c0.9,0,1.3-0.4,1.3-1.1
			c0-0.8-0.5-1.1-1.3-1.1h-0.9v2.2H364.7z M364.6,228.9l0.6-0.4l1.7,3.1h-0.8L364.6,228.9z"/>
		<path d="M367.5,229.4c0-1.4,0.9-2.3,1.9-2.3c1.1,0,1.6,0.8,1.6,2.1c0,0.2,0,0.3,0,0.4h-2.8c0.1,0.9,0.6,1.5,1.4,1.5
			c0.4,0,0.7-0.1,1-0.3l0.2,0.5c-0.4,0.3-0.8,0.5-1.4,0.5C368.4,231.7,367.5,230.9,367.5,229.4z M370.4,229.1c0-0.9-0.4-1.4-1-1.4
			c-0.6,0-1.1,0.5-1.2,1.4H370.4z"/>
		<path d="M372,230.7v-5.5h0.7v5.6c0,0.2,0.1,0.3,0.2,0.3c0,0,0.1,0,0.2,0l0.1,0.6c-0.1,0-0.2,0.1-0.4,0.1
			C372.2,231.7,372,231.4,372,230.7z"/>
		<path d="M373.9,230.5c0-1,0.8-1.4,2.5-1.6c0-0.6-0.2-1.1-0.9-1.1c-0.5,0-0.9,0.2-1.2,0.5l-0.3-0.5c0.4-0.3,1-0.6,1.6-0.6
			c1,0,1.4,0.7,1.4,1.8v2.7h-0.6l-0.1-0.5h0c-0.4,0.3-0.9,0.6-1.4,0.6C374.4,231.7,373.9,231.3,373.9,230.5z M376.5,230.5v-1.2
			c-1.4,0.2-1.8,0.5-1.8,1.1c0,0.5,0.3,0.7,0.7,0.7C375.7,231.1,376.1,230.9,376.5,230.5z"/>
		<path d="M378.6,230.2v-2.4H378v-0.6l0.6,0l0.1-1.2h0.6v1.2h1.1v0.6h-1.1v2.4c0,0.5,0.2,0.8,0.6,0.8c0.1,0,0.3-0.1,0.5-0.1l0.1,0.6
			c-0.2,0.1-0.5,0.2-0.8,0.2C378.9,231.7,378.6,231.1,378.6,230.2z"/>
		<path d="M381.2,225.8c0-0.3,0.2-0.5,0.5-0.5s0.5,0.2,0.5,0.5c0,0.3-0.2,0.5-0.5,0.5S381.2,226.1,381.2,225.8z M381.3,227.2h0.7
			v4.4h-0.7V227.2z"/>
		<path d="M383.1,229.4c0-1.5,0.9-2.3,1.9-2.3s1.9,0.8,1.9,2.3c0,1.4-0.9,2.3-1.9,2.3S383.1,230.9,383.1,229.4z M386.2,229.4
			c0-1-0.5-1.7-1.2-1.7s-1.2,0.7-1.2,1.7c0,1,0.5,1.7,1.2,1.7S386.2,230.4,386.2,229.4z"/>
		<path d="M388,227.2h0.6l0.1,0.6h0c0.4-0.4,0.8-0.7,1.4-0.7c0.9,0,1.3,0.6,1.3,1.7v2.8h-0.7v-2.7c0-0.8-0.2-1.2-0.8-1.2
			c-0.4,0-0.7,0.2-1.1,0.7v3.2H388V227.2z"/>
		<path d="M392.2,231.1l0.3-0.5c0.4,0.3,0.7,0.5,1.2,0.5c0.5,0,0.8-0.3,0.8-0.7c0-0.5-0.5-0.6-0.9-0.8c-0.6-0.2-1.2-0.5-1.2-1.3
			c0-0.7,0.5-1.2,1.4-1.2c0.5,0,1,0.2,1.3,0.5l-0.3,0.5c-0.3-0.2-0.6-0.4-0.9-0.4c-0.5,0-0.8,0.3-0.8,0.6c0,0.4,0.4,0.6,0.9,0.8
			c0.6,0.2,1.3,0.5,1.3,1.3c0,0.7-0.5,1.3-1.5,1.3C393.2,231.7,392.6,231.4,392.2,231.1z"/>
		<path d="M396.2,225.2h0.7v1.8l0,0.9c0.4-0.4,0.8-0.7,1.4-0.7c0.9,0,1.3,0.6,1.3,1.7v2.8h-0.7v-2.7c0-0.8-0.2-1.2-0.8-1.2
			c-0.4,0-0.7,0.2-1.1,0.7v3.2h-0.7V225.2z"/>
		<path d="M400.7,225.8c0-0.3,0.2-0.5,0.5-0.5s0.5,0.2,0.5,0.5c0,0.3-0.2,0.5-0.5,0.5S400.7,226.1,400.7,225.8z M400.8,227.2h0.7
			v4.4h-0.7V227.2z"/>
		<path d="M402.9,227.2h0.6l0.1,0.5h0c0.4-0.3,0.8-0.6,1.3-0.6c1.1,0,1.6,0.9,1.6,2.2c0,1.5-0.8,2.4-1.8,2.4c-0.4,0-0.8-0.2-1.1-0.5
			l0,0.8v1.5h-0.7V227.2z M405.8,229.4c0-1-0.3-1.6-1.1-1.6c-0.3,0-0.7,0.2-1.1,0.6v2.3c0.4,0.3,0.7,0.5,1,0.5
			C405.3,231.1,405.8,230.4,405.8,229.4z"/>
	</g>
</g>
<g>
	<g>
		<path d="M154.6,230.8l0.4-0.5c0.4,0.4,1,0.7,1.5,0.7c0.7,0,1.2-0.4,1.2-1c0-0.6-0.4-0.8-0.9-1l-0.8-0.4c-0.5-0.2-1.1-0.7-1.1-1.5
			c0-0.9,0.7-1.6,1.8-1.6c0.7,0,1.2,0.3,1.6,0.7l-0.4,0.5c-0.3-0.3-0.7-0.6-1.3-0.6c-0.6,0-1,0.3-1,0.9c0,0.6,0.5,0.8,0.9,1l0.8,0.4
			c0.6,0.3,1.1,0.7,1.1,1.6c0,0.9-0.7,1.7-1.9,1.7C155.8,231.7,155.1,231.4,154.6,230.8z"/>
		<path d="M159.2,229.4c0-1.4,0.9-2.3,1.9-2.3c1.1,0,1.6,0.8,1.6,2.1c0,0.2,0,0.3,0,0.4h-2.8c0.1,0.9,0.6,1.5,1.4,1.5
			c0.4,0,0.7-0.1,1-0.3l0.2,0.5c-0.4,0.3-0.8,0.5-1.4,0.5C160.1,231.7,159.2,230.9,159.2,229.4z M162.1,229.1c0-0.9-0.4-1.4-1-1.4
			c-0.6,0-1.1,0.5-1.2,1.4H162.1z"/>
		<path d="M163.7,227.2h0.6l0.1,0.5h0c0.4-0.3,0.8-0.6,1.3-0.6c1.1,0,1.6,0.9,1.6,2.2c0,1.5-0.8,2.4-1.8,2.4c-0.4,0-0.8-0.2-1.1-0.5
			l0,0.8v1.5h-0.7V227.2z M166.6,229.4c0-1-0.3-1.6-1.1-1.6c-0.3,0-0.7,0.2-1.1,0.6v2.3c0.4,0.3,0.7,0.5,1,0.5
			C166.1,231.1,166.6,230.4,166.6,229.4z"/>
		<path d="M168.2,230.5c0-1,0.8-1.4,2.5-1.6c0-0.6-0.2-1.1-0.9-1.1c-0.5,0-0.9,0.2-1.2,0.5l-0.3-0.5c0.4-0.3,1-0.6,1.6-0.6
			c1,0,1.4,0.7,1.4,1.8v2.7h-0.6l-0.1-0.5h0c-0.4,0.3-0.9,0.6-1.4,0.6C168.7,231.7,168.2,231.3,168.2,230.5z M170.7,230.5v-1.2
			c-1.4,0.2-1.8,0.5-1.8,1.1c0,0.5,0.3,0.7,0.7,0.7C170,231.1,170.3,230.9,170.7,230.5z"/>
		<path d="M172.7,227.2h0.6l0.1,0.8h0c0.3-0.6,0.7-0.9,1.2-0.9c0.2,0,0.3,0,0.4,0.1l-0.1,0.6c-0.1,0-0.2-0.1-0.4-0.1
			c-0.3,0-0.8,0.3-1,1v2.8h-0.7V227.2z"/>
		<path d="M175.4,230.5c0-1,0.8-1.4,2.5-1.6c0-0.6-0.2-1.1-0.9-1.1c-0.5,0-0.9,0.2-1.2,0.5l-0.3-0.5c0.4-0.3,1-0.6,1.6-0.6
			c1,0,1.4,0.7,1.4,1.8v2.7H178l-0.1-0.5h0c-0.4,0.3-0.9,0.6-1.4,0.6C175.9,231.7,175.4,231.3,175.4,230.5z M177.9,230.5v-1.2
			c-1.4,0.2-1.8,0.5-1.8,1.1c0,0.5,0.3,0.7,0.7,0.7C177.2,231.1,177.5,230.9,177.9,230.5z"/>
		<path d="M180,230.2v-2.4h-0.6v-0.6l0.6,0l0.1-1.2h0.6v1.2h1.1v0.6h-1.1v2.4c0,0.5,0.2,0.8,0.6,0.8c0.1,0,0.3-0.1,0.5-0.1l0.1,0.6
			c-0.2,0.1-0.5,0.2-0.8,0.2C180.3,231.7,180,231.1,180,230.2z"/>
		<path d="M182.5,229.4c0-1.4,0.9-2.3,1.9-2.3c1.1,0,1.6,0.8,1.6,2.1c0,0.2,0,0.3,0,0.4h-2.8c0.1,0.9,0.6,1.5,1.4,1.5
			c0.4,0,0.7-0.1,1-0.3l0.2,0.5c-0.4,0.3-0.8,0.5-1.4,0.5C183.4,231.7,182.5,230.9,182.5,229.4z M185.4,229.1c0-0.9-0.4-1.4-1-1.4
			c-0.6,0-1.1,0.5-1.2,1.4H185.4z"/>
		<path d="M186.7,229.4c0-1.4,0.8-2.3,1.8-2.3c0.5,0,0.8,0.2,1.2,0.5l0-0.8v-1.7h0.7v6.4h-0.6l-0.1-0.5h0c-0.3,0.3-0.8,0.6-1.3,0.6
			C187.4,231.7,186.7,230.9,186.7,229.4z M189.6,230.5v-2.3c-0.4-0.3-0.7-0.5-1-0.5c-0.7,0-1.2,0.7-1.2,1.7c0,1,0.4,1.7,1.1,1.7
			C188.9,231.1,189.3,230.9,189.6,230.5z"/>
	</g>
</g>
<polyline class="st1" points="246,238.8 262.4,217.5 277.4,238.8 292.9,219.3 307.9,238.8 323.4,219.3 "/>
<path class="st1" d="M295.5,334.6c-6.1,1.2-11.3,5.2-16.3,8.9c-5,3.7-10.7,7.3-16.9,7.3c-4.9,0.1-11.1-3.2-12.2-8.5
	c-1.7-8.3,5.3-7.8,10.8-8.4c9.3-0.9,12.9-4.6,19.2-10.8c5.9-5.8,14.1-10.1,22.7-7.5c5.3,1.6,10,6.5,7.6,12.5
	C308,334.4,300.9,333.6,295.5,334.6z"/>
<g>
	<g>
		<path d="M333,323.5h0.7v5.3h2.4v0.6H333V323.5z"/>
		<path d="M336.9,323.7c0-0.3,0.2-0.5,0.5-0.5c0.3,0,0.5,0.2,0.5,0.5c0,0.3-0.2,0.5-0.5,0.5C337.1,324.2,336.9,324,336.9,323.7z
			 M337.1,325.1h0.7v4.4h-0.7V325.1z"/>
		<path d="M338.6,325.1h0.7l0.8,2.5c0.1,0.4,0.3,0.9,0.4,1.3h0c0.1-0.4,0.3-0.9,0.4-1.3l0.8-2.5h0.7l-1.5,4.4H340L338.6,325.1z"/>
		<path d="M342.8,327.2c0-1.4,0.9-2.3,1.9-2.3c1.1,0,1.6,0.8,1.6,2.1c0,0.2,0,0.3,0,0.4h-2.8c0,0.9,0.6,1.5,1.4,1.5
			c0.4,0,0.7-0.1,1-0.3l0.2,0.5c-0.4,0.3-0.8,0.5-1.4,0.5C343.7,329.5,342.8,328.7,342.8,327.2z M345.7,326.9c0-0.9-0.4-1.4-1-1.4
			c-0.6,0-1.1,0.5-1.2,1.4H345.7z"/>
		<path d="M350.2,324.2h-1.7v-0.6h4.1v0.6H351v5.3h-0.7V324.2z"/>
		<path d="M353.3,327.2c0-1.5,0.9-2.3,1.9-2.3c1,0,1.9,0.8,1.9,2.3c0,1.4-0.9,2.3-1.9,2.3C354.2,329.5,353.3,328.7,353.3,327.2z
			 M356.4,327.2c0-1-0.5-1.7-1.2-1.7c-0.7,0-1.2,0.7-1.2,1.7s0.5,1.7,1.2,1.7C355.9,328.9,356.4,328.2,356.4,327.2z"/>
		<path d="M357.9,330.3c0-0.4,0.2-0.7,0.6-1v0c-0.2-0.1-0.4-0.4-0.4-0.7c0-0.4,0.2-0.7,0.5-0.8v0c-0.3-0.2-0.5-0.7-0.5-1.2
			c0-1,0.7-1.6,1.5-1.6c0.2,0,0.4,0,0.6,0.1h1.4v0.6h-0.8c0.2,0.2,0.3,0.5,0.3,0.9c0,0.9-0.7,1.5-1.5,1.5c-0.2,0-0.4-0.1-0.6-0.1
			c-0.1,0.1-0.3,0.3-0.3,0.5c0,0.3,0.2,0.5,0.7,0.5h0.8c1,0,1.4,0.3,1.4,1c0,0.8-0.8,1.5-2.1,1.5C358.6,331.4,357.9,331,357.9,330.3
			z M361,330c0-0.4-0.3-0.5-0.8-0.5h-0.7c-0.2,0-0.4,0-0.5-0.1c-0.3,0.2-0.4,0.5-0.4,0.7c0,0.5,0.4,0.8,1.2,0.8
			C360.5,330.9,361,330.5,361,330z M360.4,326.5c0-0.6-0.4-1-0.9-1s-0.9,0.4-0.9,1c0,0.6,0.4,1,0.9,1S360.4,327.1,360.4,326.5z"/>
		<path d="M362.1,327.2c0-1.4,0.9-2.3,1.9-2.3c1.1,0,1.6,0.8,1.6,2.1c0,0.2,0,0.3,0,0.4h-2.8c0,0.9,0.6,1.5,1.4,1.5
			c0.4,0,0.7-0.1,1-0.3l0.2,0.5c-0.4,0.3-0.8,0.5-1.4,0.5C363,329.5,362.1,328.7,362.1,327.2z M365,326.9c0-0.9-0.4-1.4-1-1.4
			c-0.6,0-1.1,0.5-1.2,1.4H365z"/>
		<path d="M366.8,328.1v-2.4h-0.6v-0.6l0.6,0l0.1-1.2h0.6v1.2h1.1v0.6h-1.1v2.4c0,0.5,0.2,0.8,0.6,0.8c0.1,0,0.3-0.1,0.5-0.1
			l0.1,0.6c-0.2,0.1-0.5,0.2-0.8,0.2C367.1,329.5,366.8,328.9,366.8,328.1z"/>
		<path d="M369.5,323h0.7v1.8l0,0.9c0.4-0.4,0.8-0.7,1.4-0.7c0.9,0,1.3,0.6,1.3,1.7v2.8h-0.7v-2.7c0-0.8-0.2-1.2-0.8-1.2
			c-0.4,0-0.7,0.2-1.1,0.7v3.2h-0.7V323z"/>
		<path d="M373.8,327.2c0-1.4,0.9-2.3,1.9-2.3c1.1,0,1.6,0.8,1.6,2.1c0,0.2,0,0.3,0,0.4h-2.8c0,0.9,0.6,1.5,1.4,1.5
			c0.4,0,0.7-0.1,1-0.3l0.2,0.5c-0.4,0.3-0.8,0.5-1.4,0.5C374.7,329.5,373.8,328.7,373.8,327.2z M376.7,326.9c0-0.9-0.4-1.4-1-1.4
			c-0.6,0-1.1,0.5-1.2,1.4H376.7z"/>
		<path d="M378.4,325.1h0.6l0.1,0.8h0c0.3-0.6,0.7-0.9,1.2-0.9c0.2,0,0.3,0,0.4,0.1l-0.1,0.6c-0.1,0-0.2-0.1-0.4-0.1
			c-0.3,0-0.8,0.3-1,1v2.8h-0.7V325.1z"/>
	</g>
</g>
<g>
	<g>
		<path d="M380.6,439.8c0-1.6,0.4-2.9,1.1-4.1l0.4,0.2c-0.7,1.1-1,2.5-1,3.9s0.3,2.7,1,3.9l-0.4,0.2
			C381,442.7,380.6,441.4,380.6,439.8z"/>
		<path d="M383.2,436.4h3.2v0.6h-2.5v2h2.1v0.6h-2.1v2.6h-0.7V436.4z"/>
		<path d="M387,443.7c0.7-1.1,1-2.5,1-3.9s-0.3-2.7-1-3.9l0.4-0.2c0.7,1.2,1.1,2.5,1.1,4.1c0,1.6-0.4,2.9-1.1,4.1L387,443.7z"/>
		<path d="M391.7,436.4h3.2v0.6h-2.5v2h2.1v0.6h-2.1v2.6h-0.7V436.4z"/>
		<path d="M395.5,440.2c0-1.5,0.9-2.3,1.9-2.3s1.9,0.8,1.9,2.3c0,1.4-0.9,2.3-1.9,2.3S395.5,441.6,395.5,440.2z M398.6,440.2
			c0-1-0.5-1.7-1.2-1.7s-1.2,0.7-1.2,1.7s0.5,1.7,1.2,1.7S398.6,441.2,398.6,440.2z"/>
		<path d="M400,441.8l0.3-0.5c0.4,0.3,0.7,0.5,1.2,0.5c0.5,0,0.8-0.3,0.8-0.7c0-0.5-0.5-0.6-0.9-0.8c-0.6-0.2-1.2-0.5-1.2-1.3
			c0-0.7,0.5-1.2,1.4-1.2c0.5,0,1,0.2,1.3,0.5l-0.3,0.5c-0.3-0.2-0.6-0.4-0.9-0.4c-0.5,0-0.8,0.3-0.8,0.6c0,0.4,0.4,0.6,0.9,0.8
			c0.6,0.2,1.3,0.5,1.3,1.3c0,0.7-0.5,1.3-1.5,1.3C400.9,442.5,400.3,442.2,400,441.8z"/>
		<path d="M404.1,441v-2.4h-0.6V438l0.6,0l0.1-1.2h0.6v1.2h1.1v0.6h-1.1v2.4c0,0.5,0.2,0.8,0.6,0.8c0.1,0,0.3-0.1,0.5-0.1l0.1,0.6
			c-0.2,0.1-0.5,0.2-0.8,0.2C404.4,442.5,404.1,441.9,404.1,441z"/>
		<path d="M406.5,440.2c0-1.4,0.9-2.3,1.9-2.3c1.1,0,1.6,0.8,1.6,2.1c0,0.2,0,0.3,0,0.4h-2.8c0,0.9,0.6,1.5,1.4,1.5
			c0.4,0,0.7-0.1,1-0.3l0.2,0.5c-0.4,0.3-0.8,0.5-1.4,0.5C407.4,442.5,406.5,441.6,406.5,440.2z M409.4,439.8c0-0.9-0.4-1.4-1-1.4
			c-0.6,0-1.1,0.5-1.2,1.4H409.4z"/>
		<path d="M411.1,438h0.6l0.1,0.8h0c0.3-0.6,0.7-0.9,1.2-0.9c0.2,0,0.3,0,0.4,0.1l-0.1,0.6c-0.1,0-0.2-0.1-0.4-0.1
			c-0.3,0-0.8,0.3-1,1v2.8h-0.7V438z"/>
		<path d="M380.6,450.6c0-1.6,0.4-2.9,1.1-4.1l0.4,0.2c-0.7,1.1-1,2.5-1,3.9c0,1.4,0.3,2.7,1,3.9l-0.4,0.2
			C381,453.5,380.6,452.2,380.6,450.6z"/>
		<path d="M384.4,447.2h0.8l1.9,5.9h-0.8l-1-3.3c-0.2-0.7-0.4-1.3-0.6-2h0c-0.2,0.7-0.4,1.3-0.6,2l-1,3.3h-0.7L384.4,447.2z
			 M383.5,450.7h2.6v0.6h-2.6V450.7z"/>
		<path d="M387.4,454.5c0.7-1.1,1-2.5,1-3.9c0-1.4-0.3-2.7-1-3.9l0.4-0.2c0.7,1.2,1.1,2.5,1.1,4.1c0,1.6-0.4,2.9-1.1,4.1
			L387.4,454.5z"/>
		<path d="M393.3,447.2h0.8l1.9,5.9h-0.8l-1-3.3c-0.2-0.7-0.4-1.3-0.6-2h0c-0.2,0.7-0.4,1.3-0.6,2l-1,3.3h-0.7L393.3,447.2z
			 M392.4,450.7h2.6v0.6h-2.6V450.7z"/>
		<path d="M396.4,451c0-1.4,0.8-2.3,1.8-2.3c0.5,0,0.8,0.2,1.2,0.5l0-0.8v-1.7h0.7v6.4h-0.6l-0.1-0.5h0c-0.3,0.3-0.8,0.6-1.3,0.6
			C397,453.3,396.4,452.4,396.4,451z M399.3,452v-2.3c-0.4-0.3-0.7-0.5-1-0.5c-0.7,0-1.2,0.7-1.2,1.7c0,1,0.4,1.7,1.1,1.7
			C398.6,452.6,398.9,452.4,399.3,452z"/>
		<path d="M401.1,451c0-1.5,0.9-2.3,1.9-2.3s1.9,0.8,1.9,2.3c0,1.4-0.9,2.3-1.9,2.3S401.1,452.4,401.1,451z M404.2,451
			c0-1-0.5-1.7-1.2-1.7s-1.2,0.7-1.2,1.7c0,1,0.5,1.7,1.2,1.7S404.2,452,404.2,451z"/>
		<path d="M406,448.8h0.6l0.1,0.5h0c0.4-0.3,0.8-0.6,1.3-0.6c1.1,0,1.6,0.9,1.6,2.2c0,1.5-0.8,2.4-1.8,2.4c-0.4,0-0.8-0.2-1.1-0.5
			l0,0.8v1.5H406V448.8z M408.9,450.9c0-1-0.3-1.6-1.1-1.6c-0.3,0-0.7,0.2-1.1,0.6v2.3c0.4,0.3,0.7,0.5,1,0.5
			C408.4,452.6,408.9,452,408.9,450.9z"/>
		<path d="M410.8,451.8v-2.4h-0.6v-0.6l0.6,0l0.1-1.2h0.6v1.2h1.1v0.6h-1.1v2.4c0,0.5,0.2,0.8,0.6,0.8c0.1,0,0.3-0.1,0.5-0.1
			l0.1,0.6c-0.2,0.1-0.5,0.2-0.8,0.2C411.1,453.3,410.8,452.7,410.8,451.8z"/>
		<path d="M413.3,451c0-1.4,0.9-2.3,1.9-2.3c1.1,0,1.6,0.8,1.6,2.1c0,0.2,0,0.3,0,0.4h-2.8c0,0.9,0.6,1.5,1.4,1.5
			c0.4,0,0.7-0.1,1-0.3l0.2,0.5c-0.4,0.3-0.8,0.5-1.4,0.5C414.1,453.3,413.3,452.4,413.3,451z M416.1,450.6c0-0.9-0.4-1.4-1-1.4
			c-0.6,0-1.1,0.5-1.2,1.4H416.1z"/>
		<path d="M417.5,451c0-1.4,0.8-2.3,1.8-2.3c0.5,0,0.8,0.2,1.2,0.5l0-0.8v-1.7h0.7v6.4h-0.6l-0.1-0.5h0c-0.3,0.3-0.8,0.6-1.3,0.6
			C418.1,453.3,417.5,452.4,417.5,451z M420.4,452v-2.3c-0.4-0.3-0.7-0.5-1-0.5c-0.7,0-1.2,0.7-1.2,1.7c0,1,0.4,1.7,1.1,1.7
			C419.7,452.6,420,452.4,420.4,452z"/>
	</g>
</g>
<g>
	<g>
		<rect x="246.1" y="583.8" class="st0" width="37.8" height="37.8"/>
		<circle class="st0" cx="351.1" cy="602.7" r="18.8"/>
		<g>
			<g>
				<line class="st1" x1="284" y1="602.7" x2="287" y2="602.7"/>
				<line class="st2" x1="293" y1="602.7" x2="326.3" y2="602.7"/>
				<line class="st1" x1="329.3" y1="602.7" x2="332.3" y2="602.7"/>
			</g>
		</g>
	</g>
	<line class="st1" x1="308" y1="602.7" x2="308" y2="658.2"/>
</g>
<g>
	<line class="st1" x1="289.1" y1="639.3" x2="326.9" y2="677.1"/>
	<line class="st1" x1="326.9" y1="639.3" x2="289.1" y2="677.1"/>
</g>
<g>
	<g>
		<path d="M380.7,630.9h0.7v5.9h-0.7V630.9z"/>
		<path d="M382.8,632.5h0.6l0.1,0.6h0c0.4-0.4,0.8-0.7,1.4-0.7c0.9,0,1.3,0.6,1.3,1.7v2.8h-0.7v-2.7c0-0.8-0.2-1.2-0.8-1.2
			c-0.4,0-0.7,0.2-1.1,0.7v3.2h-0.7V632.5z"/>
		<path d="M387.2,634.7c0-1.4,0.8-2.3,1.8-2.3c0.5,0,0.8,0.2,1.2,0.5l0-0.8v-1.7h0.7v6.4h-0.6l-0.1-0.5h0c-0.3,0.3-0.8,0.6-1.3,0.6
			C387.8,637,387.2,636.1,387.2,634.7z M390.1,635.7v-2.3c-0.4-0.3-0.7-0.5-1-0.5c-0.7,0-1.2,0.7-1.2,1.7c0,1,0.4,1.7,1.1,1.7
			C389.4,636.3,389.7,636.1,390.1,635.7z"/>
		<path d="M392.1,635.2v-2.8h0.7v2.7c0,0.8,0.2,1.2,0.8,1.2c0.4,0,0.7-0.2,1.1-0.7v-3.1h0.7v4.4h-0.6l-0.1-0.7h0
			c-0.4,0.5-0.8,0.8-1.4,0.8C392.5,637,392.1,636.4,392.1,635.2z"/>
		<path d="M396.5,634.7c0-1.5,0.9-2.3,2-2.3c0.5,0,0.9,0.2,1.2,0.5l-0.4,0.5c-0.2-0.2-0.5-0.4-0.8-0.4c-0.7,0-1.3,0.7-1.3,1.7
			c0,1,0.5,1.7,1.3,1.7c0.4,0,0.7-0.2,1-0.4l0.3,0.5c-0.4,0.4-0.8,0.6-1.3,0.6C397.3,637,396.5,636.1,396.5,634.7z"/>
		<path d="M400.4,634.7c0-1.4,0.9-2.3,1.9-2.3c1.1,0,1.6,0.8,1.6,2.1c0,0.2,0,0.3,0,0.4H401c0.1,0.9,0.6,1.5,1.4,1.5
			c0.4,0,0.7-0.1,1-0.3l0.2,0.5c-0.4,0.3-0.8,0.5-1.4,0.5C401.2,637,400.4,636.1,400.4,634.7z M403.2,634.3c0-0.9-0.4-1.4-1-1.4
			c-0.6,0-1.1,0.5-1.2,1.4H403.2z"/>
		<path d="M404.6,634.7c0-1.4,0.8-2.3,1.8-2.3c0.5,0,0.8,0.2,1.2,0.5l0-0.8v-1.7h0.7v6.4h-0.6l-0.1-0.5h0c-0.3,0.3-0.8,0.6-1.3,0.6
			C405.2,637,404.6,636.1,404.6,634.7z M407.5,635.7v-2.3c-0.4-0.3-0.7-0.5-1-0.5c-0.7,0-1.2,0.7-1.2,1.7c0,1,0.4,1.7,1.1,1.7
			C406.8,636.3,407.1,636.1,407.5,635.7z"/>
		<path d="M381.8,641.7h0.8l1.9,5.9h-0.8l-1-3.3c-0.2-0.7-0.4-1.3-0.6-2h0c-0.2,0.7-0.4,1.3-0.6,2l-1,3.3h-0.7L381.8,641.7z
			 M380.9,645.2h2.6v0.6h-2.6V645.2z"/>
		<path d="M385.9,647.2L385.9,647.2l-0.1,0.5h-0.6v-6.4h0.7v1.8l0,0.8c0.4-0.3,0.8-0.6,1.3-0.6c1.1,0,1.6,0.9,1.6,2.2
			c0,1.5-0.8,2.4-1.8,2.4C386.6,647.8,386.2,647.5,385.9,647.2z M388.1,645.4c0-1-0.3-1.6-1.1-1.6c-0.3,0-0.7,0.2-1.1,0.6v2.3
			c0.4,0.3,0.7,0.5,1,0.5C387.6,647.1,388.1,646.5,388.1,645.4z"/>
		<path d="M389.6,645.5c0-1.5,0.9-2.3,1.9-2.3c1,0,1.9,0.8,1.9,2.3c0,1.4-0.9,2.3-1.9,2.3C390.5,647.8,389.6,646.9,389.6,645.5z
			 M392.7,645.5c0-1-0.5-1.7-1.2-1.7c-0.7,0-1.2,0.7-1.2,1.7s0.5,1.7,1.2,1.7C392.2,647.1,392.7,646.5,392.7,645.5z"/>
		<path d="M394.5,643.3h0.6l0.1,0.8h0c0.3-0.6,0.7-0.9,1.2-0.9c0.2,0,0.3,0,0.4,0.1l-0.1,0.6c-0.1,0-0.2-0.1-0.4-0.1
			c-0.3,0-0.8,0.3-1,1v2.8h-0.7V643.3z"/>
		<path d="M397.6,646.3v-2.4H397v-0.6l0.6,0l0.1-1.2h0.6v1.2h1.1v0.6h-1.1v2.4c0,0.5,0.2,0.8,0.6,0.8c0.1,0,0.3-0.1,0.5-0.1l0.1,0.6
			c-0.2,0.1-0.5,0.2-0.8,0.2C397.9,647.8,397.6,647.2,397.6,646.3z"/>
		<path d="M400.2,641.9c0-0.3,0.2-0.5,0.5-0.5s0.5,0.2,0.5,0.5c0,0.3-0.2,0.5-0.5,0.5S400.2,642.2,400.2,641.9z M400.3,643.3h0.7
			v4.4h-0.7V643.3z"/>
		<path d="M402.1,645.5c0-1.5,0.9-2.3,1.9-2.3s1.9,0.8,1.9,2.3c0,1.4-0.9,2.3-1.9,2.3S402.1,646.9,402.1,645.5z M405.2,645.5
			c0-1-0.5-1.7-1.2-1.7s-1.2,0.7-1.2,1.7s0.5,1.7,1.2,1.7S405.2,646.5,405.2,645.5z"/>
		<path d="M407,643.3h0.6l0.1,0.6h0c0.4-0.4,0.8-0.7,1.4-0.7c0.9,0,1.3,0.6,1.3,1.7v2.8h-0.7V645c0-0.8-0.2-1.2-0.8-1.2
			c-0.4,0-0.7,0.2-1.1,0.7v3.2H407V643.3z"/>
	</g>
</g>
<g>
	<g>
		<path d="M368.1,566.5c1.6-1.7,2.5-2.8,2.5-3.7c0-0.7-0.3-1.1-1-1.1c-0.5,0-0.8,0.3-1.2,0.7l-0.4-0.4c0.5-0.5,0.9-0.9,1.6-0.9
			c1,0,1.6,0.7,1.6,1.7c0,1.1-0.9,2.1-2.2,3.6c0.3,0,0.6,0,0.9,0h1.6v0.6h-3.5V566.5z"/>
		<path d="M372.7,562.6h0.6l0.1,0.6h0c0.4-0.4,0.8-0.7,1.4-0.7c0.9,0,1.3,0.6,1.3,1.7v2.8h-0.7v-2.7c0-0.8-0.2-1.2-0.8-1.2
			c-0.4,0-0.7,0.2-1.1,0.7v3.2h-0.7V562.6z"/>
		<path d="M377,564.8c0-1.4,0.8-2.3,1.8-2.3c0.5,0,0.8,0.2,1.2,0.5l0-0.8v-1.7h0.7v6.4h-0.6l-0.1-0.5h0c-0.3,0.3-0.8,0.6-1.3,0.6
			C377.7,567.1,377,566.2,377,564.8z M379.9,565.9v-2.3c-0.4-0.3-0.7-0.5-1-0.5c-0.7,0-1.2,0.7-1.2,1.7c0,1,0.4,1.7,1.1,1.7
			C379.3,566.4,379.6,566.3,379.9,565.9z"/>
		<path d="M383.5,565.8c0-1,0.8-1.4,2.5-1.6c0-0.6-0.2-1.1-0.9-1.1c-0.5,0-0.9,0.2-1.2,0.5l-0.3-0.5c0.4-0.3,1-0.6,1.6-0.6
			c1,0,1.4,0.7,1.4,1.8v2.7h-0.6l-0.1-0.5h0c-0.4,0.3-0.9,0.6-1.4,0.6C384,567.1,383.5,566.6,383.5,565.8z M386,565.9v-1.2
			c-1.4,0.2-1.8,0.5-1.8,1.1c0,0.5,0.3,0.7,0.7,0.7C385.3,566.5,385.6,566.3,386,565.9z"/>
		<path d="M388,562.6h0.6l0.1,0.6h0c0.4-0.4,0.8-0.7,1.4-0.7c0.9,0,1.3,0.6,1.3,1.7v2.8h-0.7v-2.7c0-0.8-0.2-1.2-0.8-1.2
			c-0.4,0-0.7,0.2-1.1,0.7v3.2H388V562.6z"/>
		<path d="M392.4,564.8c0-1.4,0.8-2.3,1.8-2.3c0.5,0,0.8,0.2,1.2,0.5l0-0.8v-1.7h0.7v6.4h-0.6l-0.1-0.5h0c-0.3,0.3-0.8,0.6-1.3,0.6
			C393,567.1,392.4,566.2,392.4,564.8z M395.3,565.9v-2.3c-0.4-0.3-0.7-0.5-1-0.5c-0.7,0-1.2,0.7-1.2,1.7c0,1,0.4,1.7,1.1,1.7
			C394.6,566.4,394.9,566.3,395.3,565.9z"/>
		<path d="M398.6,566.3l0.4-0.5c0.3,0.4,0.7,0.7,1.4,0.7c0.7,0,1.1-0.4,1.1-1.1c0-0.7-0.4-1.1-1.7-1.1v-0.6c1.1,0,1.5-0.5,1.5-1.1
			c0-0.6-0.4-0.9-0.9-0.9c-0.5,0-0.8,0.2-1.2,0.6l-0.4-0.5c0.4-0.4,0.9-0.7,1.6-0.7c0.9,0,1.6,0.5,1.6,1.5c0,0.7-0.4,1.1-1,1.4v0
			c0.7,0.2,1.2,0.7,1.2,1.5c0,1-0.8,1.6-1.8,1.6C399.5,567.1,399,566.7,398.6,566.3z"/>
		<path d="M403.3,562.6h0.6l0.1,0.8h0c0.3-0.6,0.7-0.9,1.2-0.9c0.2,0,0.3,0,0.4,0.1l-0.1,0.6c-0.1,0-0.2-0.1-0.4-0.1
			c-0.3,0-0.8,0.3-1,1v2.8h-0.7V562.6z"/>
		<path d="M405.9,564.8c0-1.4,0.8-2.3,1.8-2.3c0.5,0,0.8,0.2,1.2,0.5l0-0.8v-1.7h0.7v6.4H409l-0.1-0.5h0c-0.3,0.3-0.8,0.6-1.3,0.6
			C406.6,567.1,405.9,566.2,405.9,564.8z M408.8,565.9v-2.3c-0.4-0.3-0.7-0.5-1-0.5c-0.7,0-1.2,0.7-1.2,1.7c0,1,0.4,1.7,1.1,1.7
			C408.2,566.4,408.5,566.3,408.8,565.9z"/>
		<path d="M412.7,561.1h0.9l1.1,3.2c0.1,0.4,0.3,0.8,0.4,1.2h0c0.1-0.4,0.3-0.8,0.4-1.2l1.1-3.2h0.9v5.9h-0.7v-3.3
			c0-0.5,0.1-1.2,0.1-1.7h0l-0.4,1.3l-1,3.1h-0.5l-1.1-3.1l-0.4-1.3h0c0,0.5,0.1,1.2,0.1,1.7v3.3h-0.6V561.1z"/>
		<path d="M418.6,565.8c0-1,0.8-1.4,2.5-1.6c0-0.6-0.2-1.1-0.9-1.1c-0.5,0-0.9,0.2-1.2,0.5l-0.3-0.5c0.4-0.3,1-0.6,1.6-0.6
			c1,0,1.4,0.7,1.4,1.8v2.7h-0.6l-0.1-0.5h0c-0.4,0.3-0.9,0.6-1.4,0.6C419.1,567.1,418.6,566.6,418.6,565.8z M421.1,565.9v-1.2
			c-1.4,0.2-1.8,0.5-1.8,1.1c0,0.5,0.3,0.7,0.7,0.7C420.4,566.5,420.7,566.3,421.1,565.9z"/>
		<path d="M423.1,562.6h0.6l0.1,0.8h0c0.3-0.6,0.7-0.9,1.2-0.9c0.2,0,0.3,0,0.4,0.1l-0.1,0.6c-0.1,0-0.2-0.1-0.4-0.1
			c-0.3,0-0.8,0.3-1,1v2.8h-0.7V562.6z"/>
		<path d="M426,562.6h0.6l0.1,0.8h0c0.3-0.6,0.7-0.9,1.2-0.9c0.2,0,0.3,0,0.4,0.1l-0.1,0.6c-0.1,0-0.2-0.1-0.4-0.1
			c-0.3,0-0.8,0.3-1,1v2.8H426V562.6z"/>
		<path d="M428.9,561.2c0-0.3,0.2-0.5,0.5-0.5s0.5,0.2,0.5,0.5c0,0.3-0.2,0.5-0.5,0.5S428.9,561.5,428.9,561.2z M429,562.6h0.7v4.4
			H429V562.6z"/>
		<path d="M430.8,565.8c0-1,0.8-1.4,2.5-1.6c0-0.6-0.2-1.1-0.9-1.1c-0.5,0-0.9,0.2-1.2,0.5l-0.3-0.5c0.4-0.3,1-0.6,1.6-0.6
			c1,0,1.4,0.7,1.4,1.8v2.7h-0.6l-0.1-0.5h0c-0.4,0.3-0.9,0.6-1.4,0.6C431.3,567.1,430.8,566.6,430.8,565.8z M433.3,565.9v-1.2
			c-1.4,0.2-1.8,0.5-1.8,1.1c0,0.5,0.3,0.7,0.7,0.7C432.6,566.5,432.9,566.3,433.3,565.9z"/>
		<path d="M435,567.8c0-0.4,0.2-0.7,0.6-1v0c-0.2-0.1-0.4-0.4-0.4-0.7c0-0.4,0.2-0.7,0.5-0.8v0c-0.3-0.2-0.5-0.7-0.5-1.2
			c0-1,0.7-1.6,1.5-1.6c0.2,0,0.4,0,0.6,0.1h1.4v0.6h-0.8c0.2,0.2,0.3,0.5,0.3,0.9c0,0.9-0.7,1.5-1.5,1.5c-0.2,0-0.4-0.1-0.6-0.1
			c-0.1,0.1-0.3,0.3-0.3,0.5c0,0.3,0.2,0.5,0.7,0.5h0.8c1,0,1.4,0.3,1.4,1c0,0.8-0.8,1.5-2.1,1.5C435.7,569,435,568.6,435,567.8z
			 M438.1,567.6c0-0.4-0.3-0.5-0.8-0.5h-0.7c-0.2,0-0.4,0-0.5-0.1c-0.3,0.2-0.4,0.5-0.4,0.7c0,0.5,0.4,0.8,1.2,0.8
			C437.6,568.5,438.1,568,438.1,567.6z M437.6,564c0-0.6-0.4-1-0.9-1c-0.5,0-0.9,0.4-0.9,1c0,0.6,0.4,1,0.9,1
			C437.2,565.1,437.6,564.7,437.6,564z"/>
		<path d="M439.3,564.8c0-1.4,0.9-2.3,1.9-2.3c1.1,0,1.6,0.8,1.6,2.1c0,0.2,0,0.3,0,0.4H440c0,0.9,0.6,1.5,1.4,1.5
			c0.4,0,0.7-0.1,1-0.3l0.2,0.5c-0.4,0.2-0.8,0.5-1.4,0.5C440.2,567.1,439.3,566.2,439.3,564.8z M442.2,564.4c0-0.9-0.4-1.4-1-1.4
			c-0.6,0-1.1,0.5-1.2,1.4H442.2z"/>
		<path d="M443.4,566.5l0.3-0.5c0.4,0.3,0.7,0.5,1.2,0.5c0.5,0,0.8-0.3,0.8-0.7c0-0.5-0.5-0.7-0.9-0.8c-0.6-0.2-1.2-0.5-1.2-1.3
			c0-0.7,0.5-1.2,1.4-1.2c0.5,0,1,0.2,1.3,0.5l-0.3,0.5c-0.3-0.2-0.6-0.4-0.9-0.4c-0.5,0-0.8,0.3-0.8,0.6c0,0.4,0.4,0.6,0.9,0.8
			c0.6,0.2,1.3,0.5,1.3,1.3c0,0.7-0.5,1.3-1.5,1.3C444.3,567.1,443.8,566.8,443.4,566.5z"/>
	</g>
</g>
<g>
	<g>
		<path d="M256.7,466c0-1.6,0.4-2.9,1.1-4.1l0.4,0.2c-0.7,1.1-1,2.5-1,3.9c0,1.4,0.3,2.7,1,3.9l-0.4,0.2
			C257.1,468.8,256.7,467.5,256.7,466z"/>
		<path d="M259.3,462.5h3.2v0.6H260v2h2.1v0.6H260v2.6h-0.7V462.5z"/>
		<path d="M263.1,469.8c0.7-1.1,1-2.5,1-3.9c0-1.4-0.3-2.7-1-3.9l0.4-0.2c0.7,1.2,1.1,2.5,1.1,4.1c0,1.6-0.4,2.9-1.1,4.1
			L263.1,469.8z"/>
	</g>
</g>
<g>
	<g>
		<path d="M355.3,466c0-1.6,0.4-2.9,1.1-4.1l0.4,0.2c-0.7,1.1-1,2.5-1,3.9c0,1.4,0.3,2.7,1,3.9l-0.4,0.2
			C355.8,468.8,355.3,467.5,355.3,466z"/>
		<path d="M359.1,462.5h0.8l1.9,5.9h-0.8l-1-3.3c-0.2-0.7-0.4-1.3-0.6-2h0c-0.2,0.7-0.4,1.3-0.6,2l-1,3.3h-0.7L359.1,462.5z
			 M358.2,466.1h2.6v0.6h-2.6V466.1z"/>
		<path d="M362.2,469.8c0.7-1.1,1-2.5,1-3.9c0-1.4-0.3-2.7-1-3.9l0.4-0.2c0.7,1.2,1.1,2.5,1.1,4.1c0,1.6-0.4,2.9-1.1,4.1
			L362.2,469.8z"/>
	</g>
</g>
<g>
	<rect x="245.1" y="515.6" class="st0" width="37.8" height="37.8"/>
	<rect x="296.9" y="515.6" class="st0" width="37.8" height="37.8"/>
	<rect x="358" y="515.6" class="st0" width="37.8" height="37.8"/>
	<line class="st1" x1="283" y1="534.5" x2="296.6" y2="534.5"/>
	<line class="st1" x1="395.7" y1="534.5" x2="409.4" y2="534.5"/>
	<line class="st1" x1="334.7" y1="534.5" x2="357.8" y2="534.5"/>
	<circle class="st0" cx="428.5" cy="534.5" r="18.8"/>
	<rect x="340.3" y="526.2" class="st4" width="12.6" height="18.9"/>
	<line class="st1" x1="355.9" y1="529.2" x2="339.6" y2="545.5"/>
	<line class="st1" x1="352.5" y1="528" x2="336.2" y2="544.3"/>
</g>
</svg>
