<?xml version="1.0" encoding="utf-8"?>
<!-- Generator: Adobe Illustrator 24.0.1, SVG Export Plug-In . SVG Version: 6.00 Build 0)  -->
<svg version="1.1" id="Layer_1" xmlns="http://www.w3.org/2000/svg" xmlns:xlink="http://www.w3.org/1999/xlink" x="0px" y="0px"
	 viewBox="0 0 453.5 451.8" style="enable-background:new 0 0 453.5 451.8;" xml:space="preserve">
<style type="text/css">
	.st0{fill:none;stroke:#000000;stroke-miterlimit:10;}
	.st1{fill:none;stroke:#231F20;stroke-width:0.75;stroke-linecap:round;stroke-linejoin:round;stroke-miterlimit:10;}
</style>
<g>
	<g>
		<path d="M13.5,274v-1.4h9.2v1.4H13.5z"/>
		<path d="M15.8,270.7v-1.2l0.9-0.1v0c-0.6-0.5-1.1-1.2-1.1-2c0-1.3,1-1.9,2.7-1.9h4.3v1.4h-4.1c-1.1,0-1.6,0.3-1.6,0.9
			c0,0.5,0.3,0.9,0.9,1.4h4.8v1.4H15.8z"/>
		<path d="M19.2,264.2c-2.3,0-3.6-1.4-3.6-3c0-0.8,0.3-1.3,0.8-1.8l1,0.7c-0.3,0.3-0.5,0.6-0.5,1c0,1,0.9,1.6,2.3,1.6
			c1.4,0,2.3-0.7,2.3-1.6c0-0.5-0.3-0.9-0.6-1.2l1.1-0.6c0.6,0.6,0.8,1.3,0.8,2C22.8,262.9,21.5,264.2,19.2,264.2z"/>
		<path d="M15.8,258.1v-1.2l1.2-0.1v0c-0.9-0.4-1.4-1.1-1.4-1.7c0-0.3,0-0.5,0.1-0.7l1.4,0.2c-0.1,0.2-0.1,0.4-0.1,0.6
			c0,0.5,0.4,1.1,1.4,1.4h4.2v1.4H15.8z"/>
		<path d="M19.2,253.9c-2.2,0-3.6-1.4-3.6-2.8c0-1.6,1.3-2.5,3.3-2.5c0.3,0,0.6,0,0.8,0.1v3.8c1.2-0.1,1.9-0.8,1.9-1.8
			c0-0.5-0.2-1-0.5-1.4l1-0.5c0.4,0.6,0.7,1.3,0.7,2.1C22.8,252.6,21.5,253.9,19.2,253.9z M18.6,249.8c-1.1,0-1.7,0.4-1.7,1.2
			c0,0.7,0.6,1.3,1.7,1.4V249.8z"/>
		<path d="M20.8,247.6c-1.5,0-2.2-1.1-2.5-3.6c-0.7,0-1.4,0.3-1.4,1.1c0,0.6,0.3,1.2,0.7,1.7l-1.1,0.5c-0.5-0.7-0.9-1.5-0.9-2.5
			c0-1.5,1.1-2.3,3-2.3h4.1v1.2l-0.8,0.1v0c0.5,0.5,0.9,1.2,0.9,1.9C22.8,246.9,22,247.6,20.8,247.6z M20.8,244h-1.5
			c0.2,1.6,0.7,2.2,1.4,2.2c0.6,0,0.9-0.4,0.9-0.9C21.6,244.9,21.3,244.5,20.8,244z"/>
		<path d="M21.9,241.5l-1-0.7c0.5-0.5,0.8-1.1,0.8-1.7c0-0.7-0.4-1-0.8-1c-0.6,0-0.8,0.7-1.1,1.3c-0.3,0.8-0.9,1.7-2,1.7
			c-1.2,0-2.1-0.8-2.1-2.2c0-0.8,0.4-1.5,0.8-2l1,0.7c-0.4,0.4-0.6,0.8-0.6,1.3c0,0.6,0.3,0.9,0.8,0.9c0.5,0,0.8-0.6,1-1.3
			c0.3-0.8,0.8-1.7,2.1-1.7c1.2,0,2.1,0.8,2.1,2.3C22.8,240.1,22.4,240.9,21.9,241.5z"/>
		<path d="M13.7,235.8c-0.5,0-0.9-0.4-0.9-0.9c0-0.5,0.4-0.9,0.9-0.9c0.5,0,0.9,0.4,0.9,0.9C14.6,235.4,14.2,235.8,13.7,235.8z
			 M15.8,235.6v-1.4h6.9v1.4H15.8z"/>
		<path d="M15.8,232.4v-1.2l0.9-0.1v0c-0.6-0.5-1.1-1.2-1.1-2c0-1.3,1-1.9,2.7-1.9h4.3v1.4h-4.1c-1.1,0-1.6,0.3-1.6,0.9
			c0,0.5,0.3,0.9,0.9,1.4h4.8v1.4H15.8z"/>
		<path d="M23.9,225.9c-0.6,0-1.1-0.3-1.5-0.9h-0.1c-0.2,0.3-0.6,0.5-1.1,0.5c-0.5,0-1-0.3-1.3-0.7h-0.1c-0.3,0.4-1,0.8-1.8,0.8
			c-1.6,0-2.5-1.1-2.5-2.4c0-0.3,0.1-0.6,0.2-0.9v-2.2H17v1.1c0.3-0.2,0.7-0.3,1.2-0.3c1.5,0,2.3,1,2.3,2.3c0,0.3-0.1,0.5-0.2,0.8
			c0.2,0.2,0.3,0.3,0.7,0.3c0.4,0,0.6-0.2,0.6-1v-1.1c0-1.4,0.5-2.2,1.7-2.2c1.4,0,2.4,1.2,2.4,3.2
			C25.7,224.8,25.1,225.9,23.9,225.9z M18.1,222.3c-0.9,0-1.4,0.5-1.4,1c0,0.6,0.5,1,1.4,1c0.9,0,1.4-0.5,1.4-1
			C19.5,222.8,19,222.3,18.1,222.3z M23.5,221.5c-0.5,0-0.7,0.4-0.7,1.1v0.8c0,0.3,0,0.6-0.1,0.8c0.3,0.3,0.6,0.5,0.9,0.5
			c0.6,0,1-0.6,1-1.5C24.7,222.2,24.1,221.5,23.5,221.5z"/>
		<path d="M19.2,217c-2.3,0-3.6-1.4-3.6-2.9s1.3-2.9,3.6-2.9c2.3,0,3.6,1.4,3.6,2.9S21.5,217,19.2,217z M19.2,212.8
			c-1.4,0-2.3,0.5-2.3,1.4s0.9,1.4,2.3,1.4c1.4,0,2.3-0.5,2.3-1.4S20.6,212.8,19.2,212.8z"/>
		<path d="M15.8,209.9v-1.2l1.2-0.1v0c-0.9-0.4-1.4-1.1-1.4-1.7c0-0.3,0-0.5,0.1-0.7l1.4,0.2c-0.1,0.2-0.1,0.4-0.1,0.6
			c0,0.5,0.4,1.1,1.4,1.4h4.2v1.4H15.8z"/>
		<path d="M15.8,202.8v-1.2l0.7-0.1v0c-0.5-0.5-0.9-1.2-0.9-1.8c0-1.5,1.4-2.4,3.5-2.4c2.4,0,3.7,1.2,3.7,2.6c0,0.5-0.3,1.1-0.8,1.6
			l1.1,0h2.2v1.4H15.8z M19.1,198.8c-1.4,0-2.2,0.4-2.2,1.3c0,0.4,0.3,0.9,0.8,1.3h3.2c0.4-0.4,0.6-0.9,0.6-1.2
			C21.5,199.4,20.7,198.8,19.1,198.8z"/>
		<path d="M19.2,196.3c-2.2,0-3.6-1.4-3.6-2.8c0-1.6,1.3-2.5,3.3-2.5c0.3,0,0.6,0,0.8,0.1v3.8c1.2-0.1,1.9-0.8,1.9-1.8
			c0-0.5-0.2-1-0.5-1.4l1-0.5c0.4,0.6,0.7,1.3,0.7,2.1C22.8,195,21.5,196.3,19.2,196.3z M18.6,192.3c-1.1,0-1.7,0.4-1.7,1.2
			c0,0.7,0.6,1.3,1.7,1.4V192.3z"/>
		<path d="M15.8,189.7v-1.2l1.2-0.1v0c-0.9-0.4-1.4-1.1-1.4-1.7c0-0.3,0-0.5,0.1-0.7l1.4,0.2c-0.1,0.2-0.1,0.4-0.1,0.6
			c0,0.5,0.4,1.1,1.4,1.4h4.2v1.4H15.8z"/>
		<path d="M21.9,185.7l-1-0.7c0.5-0.5,0.8-1.1,0.8-1.7c0-0.7-0.4-1-0.8-1c-0.6,0-0.8,0.7-1.1,1.3c-0.3,0.8-0.9,1.7-2,1.7
			c-1.2,0-2.1-0.8-2.1-2.2c0-0.8,0.4-1.5,0.8-2l1,0.6c-0.4,0.4-0.6,0.8-0.6,1.3c0,0.6,0.3,0.9,0.8,0.9c0.5,0,0.8-0.6,1-1.3
			c0.3-0.8,0.8-1.7,2.1-1.7c1.2,0,2.1,0.8,2.1,2.3C22.8,184.2,22.4,185.1,21.9,185.7z"/>
		<path d="M13.7,179.9c-0.5,0-0.9-0.4-0.9-0.9c0-0.5,0.4-0.9,0.9-0.9c0.5,0,0.9,0.4,0.9,0.9C14.6,179.6,14.2,179.9,13.7,179.9z
			 M15.8,179.8v-1.4h6.9v1.4H15.8z"/>
		<path d="M21.9,177.2l-1-0.7c0.5-0.5,0.8-1.1,0.8-1.7c0-0.7-0.4-1-0.8-1c-0.6,0-0.8,0.7-1.1,1.3c-0.3,0.8-0.9,1.7-2,1.7
			c-1.2,0-2.1-0.8-2.1-2.2c0-0.8,0.4-1.5,0.8-2l1,0.6c-0.4,0.4-0.6,0.8-0.6,1.3c0,0.6,0.3,0.9,0.8,0.9c0.5,0,0.8-0.6,1-1.3
			c0.3-0.8,0.8-1.7,2.1-1.7c1.2,0,2.1,0.8,2.1,2.3C22.8,175.7,22.4,176.6,21.9,177.2z"/>
		<path d="M20.3,171h-3.3v0.9h-1.2l-0.1-0.9l-1.9-0.2v-1.2h1.9v-1.5h1.3v1.5h3.3c0.8,0,1.2-0.3,1.2-0.9c0-0.2-0.1-0.5-0.2-0.6
			l1.2-0.2c0.1,0.3,0.3,0.8,0.3,1.2C22.8,170.5,21.8,171,20.3,171z"/>
		<path d="M13.7,167c-0.5,0-0.9-0.4-0.9-0.9s0.4-0.9,0.9-0.9c0.5,0,0.9,0.4,0.9,0.9S14.2,167,13.7,167z M15.8,166.8v-1.4h6.9v1.4
			H15.8z"/>
		<path d="M15.8,163.6v-1.2l0.9-0.1v0c-0.6-0.5-1.1-1.2-1.1-2c0-1.3,1-1.9,2.7-1.9h4.3v1.4h-4.1c-1.1,0-1.6,0.3-1.6,0.9
			c0,0.5,0.3,0.9,0.9,1.4h4.8v1.4H15.8z"/>
		<path d="M23.9,157.1c-0.6,0-1.1-0.3-1.5-0.9h-0.1c-0.2,0.3-0.6,0.5-1.1,0.5c-0.5,0-1-0.3-1.3-0.7h-0.1c-0.3,0.4-1,0.8-1.8,0.8
			c-1.6,0-2.5-1.1-2.5-2.4c0-0.3,0.1-0.6,0.2-0.9v-2.2H17v1.1c0.3-0.2,0.7-0.3,1.2-0.3c1.5,0,2.3,1,2.3,2.3c0,0.3-0.1,0.5-0.2,0.8
			c0.2,0.2,0.3,0.3,0.7,0.3c0.4,0,0.6-0.2,0.6-1v-1.1c0-1.4,0.5-2.2,1.7-2.2c1.4,0,2.4,1.2,2.4,3.2C25.7,156,25.1,157.1,23.9,157.1z
			 M18.1,153.5c-0.9,0-1.4,0.5-1.4,1s0.5,1,1.4,1c0.9,0,1.4-0.5,1.4-1S19,153.5,18.1,153.5z M23.5,152.7c-0.5,0-0.7,0.4-0.7,1.1v0.8
			c0,0.3,0,0.6-0.1,0.8c0.3,0.3,0.6,0.5,0.9,0.5c0.6,0,1-0.6,1-1.5C24.7,153.4,24.1,152.7,23.5,152.7z"/>
		<path d="M15.8,147.8v-1.2l0.7-0.1v0c-0.5-0.5-0.9-1.2-0.9-1.8c0-1.5,1.4-2.4,3.5-2.4c2.4,0,3.7,1.2,3.7,2.6c0,0.5-0.3,1.1-0.8,1.6
			l1.1,0h2.2v1.4H15.8z M19.1,143.8c-1.4,0-2.2,0.4-2.2,1.3c0,0.4,0.3,0.9,0.8,1.3h3.2c0.4-0.4,0.6-0.9,0.6-1.2
			C21.5,144.4,20.7,143.8,19.1,143.8z"/>
		<path d="M20.8,141.2c-1.5,0-2.2-1.1-2.5-3.6c-0.7,0-1.4,0.3-1.4,1.1c0,0.6,0.3,1.2,0.7,1.7l-1.1,0.5c-0.5-0.7-0.9-1.5-0.9-2.5
			c0-1.5,1.1-2.3,3-2.3h4.1v1.2l-0.8,0.1v0c0.5,0.5,0.9,1.2,0.9,1.9C22.8,140.5,22,141.2,20.8,141.2z M20.8,137.7h-1.5
			c0.2,1.6,0.7,2.2,1.4,2.2c0.6,0,0.9-0.4,0.9-0.9C21.6,138.5,21.3,138.1,20.8,137.7z"/>
		<path d="M13.7,134.7c-0.5,0-0.9-0.4-0.9-0.9s0.4-0.9,0.9-0.9c0.5,0,0.9,0.4,0.9,0.9S14.2,134.7,13.7,134.7z M15.8,134.6v-1.4h6.9
			v1.4H15.8z"/>
		<path d="M15.8,131.3v-1.2l0.9-0.1v0c-0.6-0.5-1.1-1.2-1.1-2c0-1.3,1-1.9,2.7-1.9h4.3v1.4h-4.1c-1.1,0-1.6,0.3-1.6,0.9
			c0,0.5,0.3,0.9,0.9,1.4h4.8v1.4H15.8z"/>
	</g>
</g>
<g>
	<g>
		<path d="M349.5,31.5l1-1.4c0.6,0.6,1.3,1,2,1c0.8,0,1.1-0.3,1.1-0.9c0-0.6-0.5-0.8-1.2-1.1l-1-0.5c-0.8-0.4-1.6-1.2-1.6-2.5
			c0-1.5,1.2-2.7,2.9-2.7c0.9,0,1.9,0.4,2.6,1.2l-0.9,1.3c-0.5-0.5-1-0.7-1.7-0.7c-0.6,0-1,0.3-1,0.8c0,0.6,0.5,0.8,1.2,1.1l1,0.5
			c1,0.5,1.6,1.2,1.6,2.5c0,1.5-1.1,2.8-3,2.8C351.4,32.9,350.3,32.4,349.5,31.5z"/>
		<path d="M357,30.2v-2.8h-0.8v-1.5l0.9-0.1l0.2-1.8h1.5v1.8h1.5v1.6h-1.5v2.8c0,0.8,0.3,1.1,0.8,1.1c0.2,0,0.4-0.1,0.6-0.1l0.3,1.5
			c-0.3,0.1-0.8,0.3-1.4,0.3C357.6,32.9,357,31.8,357,30.2z"/>
		<path d="M361.1,29.2c0-2.3,1.4-3.6,2.9-3.6c1.7,0,2.6,1.4,2.6,3.3c0,0.4,0,0.7-0.1,0.9h-3.7c0.2,1,0.8,1.5,1.6,1.5
			c0.5,0,0.9-0.2,1.3-0.5l0.6,1.2c-0.6,0.5-1.4,0.8-2.2,0.8C362.4,32.9,361.1,31.5,361.1,29.2z M365,28.5c0-0.8-0.3-1.3-1-1.3
			c-0.6,0-1.1,0.4-1.2,1.3H365z"/>
		<path d="M367.8,25.7h1.5l0.1,0.7h0c0.5-0.5,1.1-0.9,1.7-0.9c1.5,0,2.4,1.4,2.4,3.5c0,2.4-1.2,3.8-2.6,3.8c-0.5,0-1-0.3-1.5-0.7
			l0.1,1.1v2h-1.8V25.7z M371.7,29.1c0-1.2-0.3-1.9-1.1-1.9c-0.4,0-0.7,0.2-1,0.6v2.9c0.3,0.3,0.7,0.4,1,0.4
			C371.2,31.2,371.7,30.6,371.7,29.1z"/>
		<path d="M376.8,31.6l0.8-1.3c0.5,0.5,1.1,0.9,1.7,0.9c0.8,0,1.3-0.4,1.3-1.1c0-0.8-0.4-1.3-2.1-1.3v-1.5c1.4,0,1.8-0.5,1.8-1.2
			c0-0.6-0.3-1-1-1c-0.6,0-1,0.3-1.5,0.8l-0.9-1.3c0.7-0.7,1.5-1.1,2.5-1.1c1.6,0,2.7,0.9,2.7,2.4c0,0.9-0.5,1.6-1.3,2v0.1
			c0.9,0.3,1.6,1,1.6,2.2c0,1.7-1.3,2.6-2.9,2.6C378.2,32.9,377.4,32.3,376.8,31.6z"/>
	</g>
</g>
<g>
	<g>
		<path d="M349.5,67l1-1.4c0.6,0.6,1.3,1,2,1c0.8,0,1.1-0.3,1.1-0.9c0-0.6-0.5-0.8-1.2-1.1l-1-0.5c-0.8-0.4-1.6-1.2-1.6-2.5
			c0-1.5,1.2-2.7,2.9-2.7c0.9,0,1.9,0.4,2.6,1.2l-0.9,1.3c-0.5-0.5-1-0.7-1.7-0.7c-0.6,0-1,0.3-1,0.8c0,0.6,0.5,0.8,1.2,1.1l1,0.5
			c1,0.5,1.6,1.2,1.6,2.5c0,1.5-1.1,2.8-3,2.8C351.4,68.3,350.3,67.9,349.5,67z"/>
		<path d="M358.4,60.8h-2.2V59h6.2v1.7h-2.2v7.4h-1.8V60.8z"/>
		<path d="M363.7,59h2.9c1.7,0,3.1,0.7,3.1,2.8c0,2.1-1.4,3-3.1,3h-1.1v3.3h-1.8V59z M366.4,63.2c1,0,1.5-0.5,1.5-1.4
			c0-0.9-0.5-1.2-1.5-1.2h-0.9v2.6H366.4z M366.3,64.3l1.3-1.3l2.6,5.2h-2L366.3,64.3z"/>
		<path d="M370.9,63.6c0-3,1.5-4.7,3.6-4.7c2.2,0,3.6,1.7,3.6,4.7c0,3-1.5,4.8-3.6,4.8C372.3,68.3,370.9,66.5,370.9,63.6z
			 M376.3,63.6c0-1.8-0.7-2.9-1.8-2.9c-1.1,0-1.8,1.1-1.8,2.9c0,1.8,0.7,3,1.8,3C375.6,66.6,376.3,65.4,376.3,63.6z"/>
		<path d="M379.7,59h1.9l2.1,4.5l0.8,2h0c-0.1-1-0.2-2.2-0.2-3.3V59h1.7v9.1h-1.9l-2.1-4.6l-0.8-2h0c0.1,1,0.2,2.2,0.2,3.3v3.2h-1.7
			V59z"/>
		<path d="M387.5,63.7c0-3,1.8-4.8,3.9-4.8c1.2,0,2,0.6,2.5,1.2l-1,1.3c-0.4-0.4-0.8-0.7-1.5-0.7c-1.2,0-2.1,1.1-2.1,2.9
			c0,1.9,0.7,3,2.3,3c0.3,0,0.7-0.1,0.8-0.3v-1.6h-1.3V63h2.9v4.2c-0.6,0.6-1.5,1.1-2.6,1.1C389.2,68.3,387.5,66.7,387.5,63.7z"/>
		<path d="M397.8,63.6c0-3,1.5-4.7,3.6-4.7s3.6,1.7,3.6,4.7c0,3-1.5,4.8-3.6,4.8S397.8,66.5,397.8,63.6z M403.2,63.6
			c0-1.8-0.7-2.9-1.8-2.9s-1.8,1.1-1.8,2.9c0,1.8,0.7,3,1.8,3S403.2,65.4,403.2,63.6z"/>
		<path d="M406.6,59h2.8c1.8,0,3.2,0.7,3.2,2.9c0,2.1-1.4,3.1-3.1,3.1h-1v3.1h-1.8V59z M409.3,63.4c1,0,1.5-0.5,1.5-1.5
			c0-1-0.5-1.3-1.5-1.3h-0.8v2.8H409.3z"/>
		<path d="M413.9,59h1.8v9.1h-1.8V59z"/>
		<path d="M417.2,63.6c0-3,1.5-4.7,3.6-4.7s3.6,1.7,3.6,4.7c0,3-1.5,4.8-3.6,4.8S417.2,66.5,417.2,63.6z M422.6,63.6
			c0-1.8-0.7-2.9-1.8-2.9s-1.8,1.1-1.8,2.9c0,1.8,0.7,3,1.8,3S422.6,65.4,422.6,63.6z"/>
		<path d="M426,59h1.8v9.1H426V59z"/>
		<path d="M429.7,59h2.3c2.4,0,4,1.4,4,4.5c0,3.1-1.6,4.6-3.9,4.6h-2.4V59z M431.9,66.5c1.4,0,2.3-0.8,2.3-2.9
			c0-2.2-0.9-2.9-2.3-2.9h-0.3v5.8H431.9z"/>
		<path d="M441.6,64.3h-2.2v-1.5h2.2v-2.6h1.3v2.6h2.2v1.5H443v2.6h-1.3V64.3z"/>
		<path d="M350.2,90.2h1.1l2.9,5.8l0.9,1.9h0c-0.1-0.9-0.1-2-0.1-2.9v-4.8h1v9.2h-1.1l-2.9-5.8l-0.9-1.9h0c0.1,0.9,0.1,1.9,0.1,2.9
			v4.8h-1V90.2z"/>
		<path d="M357.7,94.7c0-2.9,1.4-4.7,3.5-4.7s3.5,1.8,3.5,4.7c0,2.9-1.4,4.8-3.5,4.8S357.7,97.7,357.7,94.7z M363.5,94.7
			c0-2.3-0.9-3.7-2.4-3.7s-2.4,1.4-2.4,3.7s0.9,3.8,2.4,3.8S363.5,97,363.5,94.7z"/>
		<path d="M366.3,90.2h1.1l2.9,5.8l0.9,1.9h0c-0.1-0.9-0.1-2-0.1-2.9v-4.8h1v9.2H371l-2.9-5.8l-0.9-1.9h0c0.1,0.9,0.1,1.9,0.1,2.9
			v4.8h-1V90.2z"/>
		<path d="M373.7,95.4h2.8v0.9h-2.8V95.4z"/>
		<path d="M377.6,94.7c0-2.9,1.4-4.7,3.5-4.7c2,0,3.4,1.8,3.4,4.7c0,2.9-1.4,4.8-3.4,4.8C379,99.5,377.6,97.7,377.6,94.7z
			 M383.5,94.7c0-2.3-0.9-3.7-2.4-3.7c-1.4,0-2.4,1.4-2.4,3.7s0.9,3.8,2.4,3.8C382.5,98.5,383.5,97,383.5,94.7z"/>
		<path d="M386.3,90.2h2.3c1.8,0,3,0.7,3,2.7c0,1.9-1.2,2.8-3,2.8h-1.3v3.6h-1V90.2z M388.5,94.8c1.4,0,2.1-0.6,2.1-1.9
			c0-1.3-0.7-1.8-2.1-1.8h-1.1v3.6H388.5z"/>
		<path d="M393.2,90.2h1v9.2h-1V90.2z"/>
		<path d="M396,94.7c0-2.9,1.4-4.7,3.5-4.7c2,0,3.4,1.8,3.4,4.7c0,2.9-1.4,4.8-3.4,4.8C397.4,99.5,396,97.7,396,94.7z M401.8,94.7
			c0-2.3-0.9-3.7-2.4-3.7c-1.4,0-2.4,1.4-2.4,3.7s0.9,3.8,2.4,3.8C400.9,98.5,401.8,97,401.8,94.7z"/>
		<path d="M404.6,90.2h2c2.5,0,3.8,1.6,3.8,4.6s-1.3,4.6-3.8,4.6h-2.1V90.2z M406.6,98.4c1.9,0,2.8-1.3,2.8-3.7s-0.9-3.6-2.8-3.6
			h-0.9v7.3H406.6z"/>
		<path d="M351.7,126.4h-2.2v-0.9h2.2v-2.7h0.8v2.7h2.2v0.9h-2.2v2.7h-0.8V126.4z"/>
		<path d="M358.6,120.6h0.7l-3.3,12.2h-0.7L358.6,120.6z"/>
		<path d="M360,126.6h8.8v0.8H360V126.6z"/>
		<path d="M349.7,157.2c0-3,1.5-4.8,3.6-4.8c1,0,1.7,0.5,2.2,1.1l-0.6,0.8c-0.4-0.5-1-0.9-1.6-0.9c-1.5,0-2.5,1.4-2.5,3.7
			c0,2.3,1,3.8,2.5,3.8c0.8,0,1.4-0.4,1.9-1l0.6,0.7c-0.6,0.8-1.4,1.3-2.5,1.3C351.2,161.9,349.7,160.2,349.7,157.2z"/>
		<path d="M356.7,157.1c0-2.9,1.4-4.7,3.5-4.7s3.5,1.8,3.5,4.7c0,2.9-1.4,4.8-3.5,4.8S356.7,160.1,356.7,157.1z M362.6,157.1
			c0-2.3-0.9-3.7-2.4-3.7s-2.4,1.4-2.4,3.7s0.9,3.8,2.4,3.8S362.6,159.4,362.6,157.1z"/>
		<path d="M364.8,157.8h2.8v0.9h-2.8V157.8z"/>
		<path d="M370.9,152.6h1.2l2.7,9.2h-1.1l-1.4-5.1c-0.3-1-0.5-2-0.8-3.1h0c-0.2,1.1-0.5,2.1-0.8,3.1l-1.4,5.1h-1L370.9,152.6z
			 M369.6,158h3.7v0.9h-3.7V158z"/>
		<path d="M375.9,152.6h1.1l2.9,5.8l0.9,1.9h0c-0.1-0.9-0.1-2-0.1-2.9v-4.8h1v9.2h-1.1l-2.9-5.8l-0.9-1.9h0c0.1,0.9,0.1,1.9,0.1,2.9
			v4.8h-1V152.6z"/>
		<path d="M385.5,152.6h1.2l2.7,9.2h-1.1l-1.4-5.1c-0.3-1-0.5-2-0.8-3.1h0c-0.2,1.1-0.5,2.1-0.8,3.1l-1.4,5.1h-1L385.5,152.6z
			 M384.2,158h3.7v0.9h-3.7V158z"/>
		<path d="M390.5,152.6h1v8.2h3.5v1h-4.5V152.6z"/>
		<path d="M396.1,157.2c0-3,1.6-4.8,3.7-4.8c1.1,0,1.9,0.6,2.3,1.1l-0.6,0.8c-0.4-0.5-0.9-0.9-1.7-0.9c-1.6,0-2.7,1.4-2.7,3.7
			c0,2.3,1,3.8,2.7,3.8c0.6,0,1.1-0.2,1.5-0.5V158h-1.7v-1h2.6v3.9c-0.5,0.6-1.4,1.1-2.5,1.1C397.6,161.9,396.1,160.2,396.1,157.2z"
			/>
		<path d="M404.1,152.6h4.7v1h-3.6v2.9h3.1v1h-3.1v3.3h3.7v1h-4.8V152.6z"/>
		<path d="M410,160.6l0.6-0.8c0.6,0.7,1.4,1.1,2.2,1.1c1.1,0,1.7-0.6,1.7-1.5c0-0.9-0.6-1.2-1.3-1.6l-1.2-0.6
			c-0.8-0.4-1.6-1-1.6-2.4c0-1.4,1.1-2.4,2.5-2.4c1,0,1.8,0.5,2.4,1.1l-0.5,0.8c-0.5-0.5-1.1-0.9-1.8-0.9c-0.9,0-1.5,0.5-1.5,1.3
			c0,0.9,0.7,1.2,1.3,1.5l1.2,0.6c0.9,0.5,1.7,1.1,1.7,2.5c0,1.5-1.1,2.6-2.8,2.6C411.7,161.9,410.7,161.4,410,160.6z"/>
		<path d="M417.2,152.6h1v9.2h-1V152.6z"/>
		<path d="M422.1,152.6h1.2l2.7,9.2h-1.1l-1.4-5.1c-0.3-1-0.5-2-0.8-3.1h0c-0.2,1.1-0.5,2.1-0.8,3.1l-1.4,5.1h-1L422.1,152.6z
			 M420.8,158h3.7v0.9h-3.7V158z"/>
	</g>
</g>
<g>
	<g>
		<path d="M235.9,238.7h1.9l0.6,4.3c0.1,1,0.2,1.9,0.3,2.9h0c0.2-1,0.3-1.9,0.5-2.9l0.9-4.3h1.5l0.9,4.3c0.2,0.9,0.3,1.9,0.5,2.9h0
			c0.1-1,0.2-1.9,0.3-2.9l0.6-4.3h1.7l-1.4,9.1h-2.3l-0.8-4.1c-0.1-0.7-0.2-1.4-0.3-2.1h0c-0.1,0.7-0.2,1.4-0.3,2.1l-0.8,4.1h-2.2
			L235.9,238.7z"/>
		<path d="M246.7,238.7h5v1.7h-3.2v1.8h2.7v1.7h-2.7v2.1h3.3v1.7h-5.1V238.7z"/>
		<path d="M254.9,238.7h2.2l2.5,9.1h-1.9l-1-4.6c-0.2-0.9-0.4-2-0.7-2.9h0c-0.2,1-0.4,2-0.6,2.9l-1.1,4.6h-1.9L254.9,238.7z
			 M254,244.1h3.9v1.6H254V244.1z"/>
		<path d="M260.5,238.7h1.8v3.7h0l2.4-3.7h2l-2.4,3.6l2.9,5.5h-2l-1.9-3.9l-0.9,1.4v2.4h-1.8V238.7z"/>
		<path d="M270.1,243.2c0-3,1.5-4.7,3.6-4.7s3.6,1.7,3.6,4.7c0,3-1.5,4.8-3.6,4.8S270.1,246.2,270.1,243.2z M275.5,243.2
			c0-1.8-0.7-2.9-1.8-2.9s-1.8,1.1-1.8,2.9c0,1.8,0.7,3,1.8,3S275.5,245.1,275.5,243.2z"/>
		<path d="M278.9,238.7h2.8c1.8,0,3.2,0.7,3.2,2.9c0,2.1-1.4,3.1-3.1,3.1h-1v3.1h-1.8V238.7z M281.6,243.1c1,0,1.5-0.5,1.5-1.5
			c0-1-0.5-1.3-1.5-1.3h-0.8v2.8H281.6z"/>
		<path d="M286.2,238.7h1.8v9.1h-1.8V238.7z"/>
		<path d="M289.5,243.2c0-3,1.5-4.7,3.6-4.7s3.6,1.7,3.6,4.7c0,3-1.5,4.8-3.6,4.8S289.5,246.2,289.5,243.2z M295,243.2
			c0-1.8-0.7-2.9-1.8-2.9s-1.8,1.1-1.8,2.9c0,1.8,0.7,3,1.8,3S295,245.1,295,243.2z"/>
		<path d="M298.3,238.7h1.8v9.1h-1.8V238.7z"/>
		<path d="M302,238.7h2.3c2.4,0,4,1.4,4,4.5s-1.6,4.6-3.9,4.6H302V238.7z M304.2,246.2c1.4,0,2.3-0.8,2.3-2.9s-0.9-2.9-2.3-2.9h-0.3
			v5.8H304.2z"/>
		<path d="M313.9,243.9h-2.2v-1.5h2.2v-2.6h1.3v2.6h2.2v1.5h-2.2v2.6h-1.3V243.9z"/>
		<path d="M236.8,269.8h1.1l2.9,5.8l0.9,1.9h0c-0.1-0.9-0.1-2-0.1-2.9v-4.8h1v9.2h-1.1l-2.9-5.8l-0.9-1.9h0c0.1,0.9,0.1,1.9,0.1,2.9
			v4.8h-1V269.8z"/>
		<path d="M244.3,274.4c0-2.9,1.4-4.7,3.5-4.7s3.5,1.8,3.5,4.7c0,2.9-1.4,4.8-3.5,4.8S244.3,277.3,244.3,274.4z M250.2,274.4
			c0-2.3-0.9-3.7-2.4-3.7s-2.4,1.4-2.4,3.7s0.9,3.8,2.4,3.8S250.2,276.7,250.2,274.4z"/>
		<path d="M252.9,269.8h1.1l2.9,5.8l0.9,1.9h0c-0.1-0.9-0.1-2-0.1-2.9v-4.8h1v9.2h-1.1l-2.9-5.8l-0.9-1.9h0c0.1,0.9,0.1,1.9,0.1,2.9
			v4.8h-1V269.8z"/>
		<path d="M260.3,275.1h2.8v0.9h-2.8V275.1z"/>
		<path d="M264.3,274.4c0-2.9,1.4-4.7,3.5-4.7c2,0,3.4,1.8,3.4,4.7c0,2.9-1.4,4.8-3.4,4.8C265.7,279.2,264.3,277.3,264.3,274.4z
			 M270.1,274.4c0-2.3-0.9-3.7-2.4-3.7c-1.4,0-2.4,1.4-2.4,3.7s0.9,3.8,2.4,3.8C269.2,278.2,270.1,276.7,270.1,274.4z"/>
		<path d="M272.9,269.8h2.3c1.8,0,3,0.7,3,2.7c0,1.9-1.2,2.8-3,2.8h-1.3v3.6h-1V269.8z M275.1,274.4c1.4,0,2.1-0.6,2.1-1.9
			c0-1.3-0.7-1.8-2.1-1.8h-1.1v3.6H275.1z"/>
		<path d="M279.9,269.8h1v9.2h-1V269.8z"/>
		<path d="M282.6,274.4c0-2.9,1.4-4.7,3.5-4.7c2,0,3.4,1.8,3.4,4.7c0,2.9-1.4,4.8-3.4,4.8C284.1,279.2,282.6,277.3,282.6,274.4z
			 M288.5,274.4c0-2.3-0.9-3.7-2.4-3.7c-1.4,0-2.4,1.4-2.4,3.7s0.9,3.8,2.4,3.8C287.5,278.2,288.5,276.7,288.5,274.4z"/>
		<path d="M291.3,269.8h2c2.5,0,3.8,1.6,3.8,4.6s-1.3,4.6-3.8,4.6h-2.1V269.8z M293.2,278.1c1.9,0,2.8-1.3,2.8-3.7s-0.9-3.6-2.8-3.6
			h-0.9v7.3H293.2z"/>
		<path d="M236.4,305.6c0-3,1.5-4.8,3.6-4.8c1,0,1.7,0.5,2.2,1.1l-0.6,0.8c-0.4-0.5-1-0.9-1.6-0.9c-1.5,0-2.5,1.4-2.5,3.7
			c0,2.3,1,3.8,2.5,3.8c0.8,0,1.4-0.4,1.9-1l0.6,0.7c-0.6,0.8-1.4,1.3-2.5,1.3C237.9,310.4,236.4,308.6,236.4,305.6z"/>
		<path d="M243.4,305.6c0-2.9,1.4-4.7,3.5-4.7s3.5,1.8,3.5,4.7c0,2.9-1.4,4.8-3.5,4.8S243.4,308.5,243.4,305.6z M249.2,305.6
			c0-2.3-0.9-3.7-2.4-3.7s-2.4,1.4-2.4,3.7s0.9,3.8,2.4,3.8S249.2,307.9,249.2,305.6z"/>
		<path d="M251.4,306.3h2.8v0.9h-2.8V306.3z"/>
		<path d="M257.5,301h1.2l2.7,9.2h-1.1l-1.4-5.1c-0.3-1-0.5-2-0.8-3.1h0c-0.2,1.1-0.5,2.1-0.8,3.1l-1.4,5.1h-1L257.5,301z
			 M256.2,306.5h3.7v0.9h-3.7V306.5z"/>
		<path d="M262.5,301h1.1l2.9,5.8l0.9,1.9h0c-0.1-0.9-0.1-2-0.1-2.9V301h1v9.2h-1.1l-2.9-5.8l-0.9-1.9h0c0.1,0.9,0.1,1.9,0.1,2.9
			v4.8h-1V301z"/>
		<path d="M272.2,301h1.2l2.7,9.2H275l-1.4-5.1c-0.3-1-0.5-2-0.8-3.1h0c-0.2,1.1-0.5,2.1-0.8,3.1l-1.4,5.1h-1L272.2,301z
			 M270.9,306.5h3.7v0.9h-3.7V306.5z"/>
		<path d="M277.2,301h1v8.2h3.5v1h-4.5V301z"/>
		<path d="M282.7,305.6c0-3,1.6-4.8,3.7-4.8c1.1,0,1.9,0.6,2.3,1.1l-0.6,0.8c-0.4-0.5-0.9-0.9-1.7-0.9c-1.6,0-2.7,1.4-2.7,3.7
			c0,2.3,1,3.8,2.7,3.8c0.6,0,1.1-0.2,1.5-0.5v-2.4h-1.7v-1h2.6v3.9c-0.5,0.6-1.4,1.1-2.5,1.1C284.2,310.4,282.7,308.6,282.7,305.6z
			"/>
		<path d="M290.8,301h4.7v1h-3.6v2.9h3.1v1h-3.1v3.3h3.7v1h-4.8V301z"/>
		<path d="M296.7,309l0.6-0.8c0.6,0.7,1.4,1.1,2.2,1.1c1.1,0,1.7-0.6,1.7-1.5c0-0.9-0.6-1.2-1.3-1.6l-1.2-0.6
			c-0.8-0.4-1.6-1-1.6-2.4c0-1.4,1.1-2.4,2.5-2.4c1,0,1.8,0.5,2.4,1.1l-0.5,0.8c-0.5-0.5-1.1-0.9-1.8-0.9c-0.9,0-1.5,0.5-1.5,1.3
			c0,0.9,0.7,1.2,1.3,1.5l1.2,0.6c0.9,0.5,1.7,1.1,1.7,2.5c0,1.5-1.1,2.6-2.8,2.6C298.3,310.4,297.4,309.9,296.7,309z"/>
		<path d="M303.8,301h1v9.2h-1V301z"/>
		<path d="M308.7,301h1.2l2.7,9.2h-1.1l-1.4-5.1c-0.3-1-0.5-2-0.8-3.1h0c-0.2,1.1-0.5,2.1-0.8,3.1l-1.4,5.1h-1L308.7,301z
			 M307.4,306.5h3.7v0.9h-3.7V306.5z"/>
	</g>
</g>
<g>
	<g>
		<path d="M121.9,376.3h1.9l2.1,4.5l0.8,2h0c-0.1-1-0.2-2.2-0.2-3.3v-3.2h1.7v9.1h-1.9l-2.1-4.6l-0.8-2h0c0.1,1,0.2,2.2,0.2,3.3v3.2
			h-1.7V376.3z"/>
		<path d="M129.7,380.9c0-3,1.5-4.7,3.6-4.7c2.2,0,3.6,1.7,3.6,4.7c0,3-1.5,4.8-3.6,4.8C131.1,385.6,129.7,383.8,129.7,380.9z
			 M135.1,380.9c0-1.8-0.7-2.9-1.8-2.9c-1.1,0-1.8,1.1-1.8,2.9c0,1.8,0.7,3,1.8,3C134.4,383.8,135.1,382.7,135.1,380.9z"/>
		<path d="M138.5,376.3h1.9l2.1,4.5l0.8,2h0c-0.1-1-0.2-2.2-0.2-3.3v-3.2h1.7v9.1h-1.9l-2.1-4.6l-0.8-2h0c0.1,1,0.2,2.2,0.2,3.3v3.2
			h-1.7V376.3z"/>
		<path d="M146.2,381.2h3v1.5h-3V381.2z"/>
		<path d="M150.3,380.9c0-3,1.5-4.7,3.6-4.7c2.2,0,3.6,1.7,3.6,4.7c0,3-1.5,4.8-3.6,4.8C151.8,385.6,150.3,383.8,150.3,380.9z
			 M155.8,380.9c0-1.8-0.7-2.9-1.8-2.9c-1.1,0-1.8,1.1-1.8,2.9c0,1.8,0.7,3,1.8,3C155.1,383.8,155.8,382.7,155.8,380.9z"/>
		<path d="M159.1,376.3h2.8c1.8,0,3.2,0.7,3.2,2.9c0,2.1-1.4,3.1-3.1,3.1h-1v3.1h-1.8V376.3z M161.8,380.7c1,0,1.5-0.5,1.5-1.5
			c0-1-0.5-1.3-1.5-1.3H161v2.8H161.8z"/>
		<path d="M166.5,376.3h1.8v9.1h-1.8V376.3z"/>
		<path d="M169.8,380.9c0-3,1.5-4.7,3.6-4.7c2.2,0,3.6,1.7,3.6,4.7c0,3-1.5,4.8-3.6,4.8C171.3,385.6,169.8,383.8,169.8,380.9z
			 M175.2,380.9c0-1.8-0.7-2.9-1.8-2.9c-1.1,0-1.8,1.1-1.8,2.9c0,1.8,0.7,3,1.8,3C174.5,383.8,175.2,382.7,175.2,380.9z"/>
		<path d="M178.6,376.3h1.8v9.1h-1.8V376.3z"/>
		<path d="M182.3,376.3h2.3c2.4,0,4,1.4,4,4.5s-1.6,4.6-3.9,4.6h-2.4V376.3z M184.4,383.8c1.4,0,2.3-0.8,2.3-2.9s-0.9-2.9-2.3-2.9
			h-0.3v5.8H184.4z"/>
		<path d="M194.2,381.6H192v-1.5h2.2v-2.6h1.3v2.6h2.2v1.5h-2.2v2.6h-1.3V381.6z"/>
		<path d="M200.7,375.5h1.2l-2.5,12.2h-1.2L200.7,375.5z"/>
		<path d="M202.8,381.2h8.8v1.3h-8.8V381.2z"/>
		<path d="M121.6,412.1c0-3,1.5-4.8,3.6-4.8c1,0,1.7,0.5,2.2,1.1l-0.6,0.8c-0.4-0.5-1-0.9-1.6-0.9c-1.5,0-2.5,1.4-2.5,3.7
			c0,2.3,1,3.8,2.5,3.8c0.8,0,1.4-0.4,1.9-1l0.6,0.7c-0.6,0.8-1.4,1.3-2.5,1.3C123.1,416.8,121.6,415.1,121.6,412.1z"/>
		<path d="M128.6,412c0-2.9,1.4-4.7,3.5-4.7c2,0,3.4,1.8,3.4,4.7c0,2.9-1.4,4.8-3.4,4.8C130,416.8,128.6,415,128.6,412z M134.4,412
			c0-2.3-0.9-3.7-2.4-3.7c-1.4,0-2.4,1.4-2.4,3.7s0.9,3.8,2.4,3.8C133.5,415.8,134.4,414.3,134.4,412z"/>
		<path d="M136.6,412.7h2.8v0.9h-2.8V412.7z"/>
		<path d="M142.7,407.5h1.2l2.7,9.2h-1.1l-1.4-5.1c-0.3-1-0.5-2-0.8-3.1h0c-0.2,1.1-0.5,2.1-0.8,3.1l-1.4,5.1h-1L142.7,407.5z
			 M141.4,412.9h3.7v0.9h-3.7V412.9z"/>
		<path d="M147.7,407.5h1.1l2.9,5.8l0.9,1.9h0c-0.1-0.9-0.1-2-0.1-2.9v-4.8h1v9.2h-1.1l-2.9-5.8l-0.9-1.9h0c0.1,0.9,0.1,1.9,0.1,2.9
			v4.8h-1V407.5z"/>
		<path d="M157.4,407.5h1.2l2.7,9.2h-1.1l-1.4-5.1c-0.3-1-0.5-2-0.8-3.1h0c-0.2,1.1-0.5,2.1-0.8,3.1l-1.4,5.1h-1L157.4,407.5z
			 M156.1,412.9h3.7v0.9h-3.7V412.9z"/>
		<path d="M162.4,407.5h1v8.2h3.5v1h-4.6V407.5z"/>
		<path d="M167.9,412.1c0-3,1.6-4.8,3.7-4.8c1.1,0,1.9,0.6,2.3,1.1l-0.6,0.8c-0.4-0.5-0.9-0.9-1.7-0.9c-1.6,0-2.7,1.4-2.7,3.7
			c0,2.3,1,3.8,2.7,3.8c0.6,0,1.1-0.2,1.5-0.5v-2.4h-1.7v-1h2.6v3.9c-0.5,0.6-1.4,1.1-2.5,1.1C169.4,416.8,167.9,415.1,167.9,412.1z
			"/>
		<path d="M176,407.5h4.7v1H177v2.9h3.1v1H177v3.3h3.7v1H176V407.5z"/>
		<path d="M181.9,415.5l0.6-0.8c0.6,0.7,1.4,1.1,2.2,1.1c1.1,0,1.7-0.6,1.7-1.5c0-0.9-0.6-1.2-1.3-1.6l-1.2-0.6
			c-0.8-0.4-1.6-1-1.6-2.4c0-1.4,1.1-2.4,2.5-2.4c1,0,1.8,0.5,2.4,1.1l-0.5,0.8c-0.5-0.5-1.1-0.9-1.8-0.9c-0.9,0-1.5,0.5-1.5,1.3
			c0,0.9,0.7,1.2,1.3,1.5l1.2,0.6c0.9,0.5,1.7,1.1,1.7,2.5c0,1.5-1.1,2.6-2.8,2.6C183.5,416.8,182.6,416.3,181.9,415.5z"/>
		<path d="M189,407.5h1v9.2h-1V407.5z"/>
		<path d="M193.9,407.5h1.2l2.7,9.2h-1.1l-1.4-5.1c-0.3-1-0.5-2-0.8-3.1h0c-0.2,1.1-0.5,2.1-0.8,3.1l-1.4,5.1h-1L193.9,407.5z
			 M192.6,412.9h3.7v0.9h-3.7V412.9z"/>
	</g>
</g>
<g>
	<g>
		<path d="M236.1,212.2l1-1.4c0.6,0.6,1.3,1,2,1c0.8,0,1.1-0.3,1.1-0.9c0-0.6-0.5-0.8-1.2-1.1l-1-0.5c-0.8-0.4-1.6-1.2-1.6-2.5
			c0-1.5,1.2-2.7,2.9-2.7c0.9,0,1.9,0.4,2.6,1.2l-0.9,1.3c-0.5-0.5-1-0.7-1.7-0.7c-0.6,0-1,0.3-1,0.8c0,0.6,0.5,0.8,1.2,1.1l1,0.5
			c1,0.5,1.6,1.2,1.6,2.5c0,1.5-1.1,2.8-3,2.8C238.1,213.5,237,213.1,236.1,212.2z"/>
		<path d="M243.6,210.8V208h-0.8v-1.5l0.9-0.1l0.2-1.8h1.5v1.8h1.5v1.6h-1.5v2.8c0,0.8,0.3,1.1,0.8,1.1c0.2,0,0.4-0.1,0.6-0.1
			l0.3,1.5c-0.3,0.1-0.8,0.3-1.4,0.3C244.2,213.5,243.6,212.4,243.6,210.8z"/>
		<path d="M247.7,209.9c0-2.3,1.4-3.6,2.9-3.6c1.7,0,2.6,1.4,2.6,3.3c0,0.4,0,0.7-0.1,0.9h-3.7c0.2,1,0.8,1.5,1.6,1.5
			c0.5,0,0.9-0.2,1.3-0.5l0.6,1.2c-0.6,0.5-1.4,0.8-2.2,0.8C249.1,213.5,247.7,212.2,247.7,209.9z M251.6,209.1c0-0.8-0.3-1.3-1-1.3
			c-0.6,0-1.1,0.4-1.2,1.3H251.6z"/>
		<path d="M254.4,206.4h1.5l0.1,0.7h0c0.5-0.5,1.1-0.9,1.7-0.9c1.5,0,2.4,1.4,2.4,3.5c0,2.4-1.2,3.8-2.6,3.8c-0.5,0-1-0.3-1.5-0.7
			l0.1,1.1v2h-1.8V206.4z M258.4,209.8c0-1.2-0.3-1.9-1.1-1.9c-0.4,0-0.7,0.2-1,0.6v2.9c0.3,0.3,0.7,0.4,1,0.4
			C257.9,211.8,258.4,211.2,258.4,209.8z"/>
		<path d="M263.6,212.2c2-2.1,3.4-3.7,3.4-4.9c0-0.9-0.4-1.3-1.1-1.3c-0.6,0-1,0.4-1.4,0.9l-1-1.1c0.8-0.9,1.5-1.4,2.6-1.4
			c1.5,0,2.6,1.1,2.6,2.8c0,1.5-1.2,3.1-2.5,4.6c0.4-0.1,0.9-0.1,1.3-0.1h1.6v1.7h-5.5V212.2z"/>
	</g>
</g>
<g>
	<g>
		<path d="M121.3,347.9l1-1.4c0.6,0.6,1.3,1,2,1c0.8,0,1.1-0.3,1.1-0.9c0-0.6-0.5-0.8-1.2-1.1l-1-0.5c-0.8-0.4-1.6-1.2-1.6-2.5
			c0-1.5,1.2-2.7,2.9-2.7c0.9,0,1.9,0.4,2.6,1.2l-0.9,1.3c-0.5-0.5-1-0.7-1.7-0.7c-0.6,0-1,0.3-1,0.8c0,0.6,0.5,0.8,1.2,1.1l1,0.5
			c1,0.5,1.6,1.2,1.6,2.5c0,1.5-1.1,2.8-3,2.8C123.3,349.2,122.2,348.8,121.3,347.9z"/>
		<path d="M128.8,346.5v-2.8H128v-1.5l0.9-0.1l0.2-1.8h1.5v1.8h1.5v1.6h-1.5v2.8c0,0.8,0.3,1.1,0.8,1.1c0.2,0,0.4-0.1,0.6-0.1
			l0.3,1.5c-0.3,0.1-0.8,0.3-1.4,0.3C129.4,349.2,128.8,348.2,128.8,346.5z"/>
		<path d="M132.9,345.6c0-2.3,1.4-3.6,2.9-3.6c1.7,0,2.6,1.4,2.6,3.3c0,0.4,0,0.7-0.1,0.9h-3.7c0.2,1,0.8,1.5,1.6,1.5
			c0.5,0,0.9-0.2,1.3-0.5l0.6,1.2c-0.6,0.5-1.4,0.8-2.2,0.8C134.3,349.2,132.9,347.9,132.9,345.6z M136.8,344.8c0-0.8-0.3-1.3-1-1.3
			c-0.6,0-1.1,0.4-1.2,1.3H136.8z"/>
		<path d="M139.6,342.1h1.5l0.1,0.7h0c0.5-0.5,1.1-0.9,1.7-0.9c1.5,0,2.4,1.4,2.4,3.5c0,2.4-1.2,3.8-2.6,3.8c-0.5,0-1-0.3-1.5-0.7
			l0.1,1.1v2h-1.8V342.1z M143.6,345.5c0-1.2-0.3-1.9-1.1-1.9c-0.4,0-0.7,0.2-1,0.6v2.9c0.3,0.3,0.7,0.4,1,0.4
			C143.1,347.6,143.6,347,143.6,345.5z"/>
		<path d="M149.2,347.4h1.7v-5.1h-1.5V341c0.8-0.2,1.4-0.4,1.9-0.8h1.3v7.2h1.5v1.7h-5V347.4z"/>
	</g>
</g>
<g>
	<g>
		<path d="M48.1,382.1h2l1.3,4.1c0.2,0.5,0.3,1.1,0.5,1.7h0c0.2-0.6,0.3-1.1,0.5-1.7l1.3-4.1h2v9.1h-1.6v-3.4c0-0.9,0.1-2.2,0.2-3.1
			h0l-0.7,2.2l-1.1,3.5h-1l-1.1-3.5l-0.6-2.2h0c0.1,0.9,0.2,2.2,0.2,3.1v3.4h-1.6V382.1z"/>
		<path d="M57.5,382.1h1.8v9.1h-1.8V382.1z"/>
		<path d="M61.2,382.1H63v7.4h3.2v1.7h-5V382.1z"/>
		<path d="M67.5,382.1h2.3c2.4,0,4,1.4,4,4.5s-1.6,4.6-3.9,4.6h-2.4V382.1z M69.7,389.6c1.4,0,2.3-0.8,2.3-2.9s-0.9-2.9-2.3-2.9
			h-0.3v5.8H69.7z"/>
		<path d="M77.8,382.1h2.8c1.8,0,3.2,0.7,3.2,2.9c0,2.1-1.4,3.1-3.1,3.1h-1v3.1h-1.8V382.1z M80.5,386.5c1,0,1.5-0.5,1.5-1.5
			c0-1-0.5-1.3-1.5-1.3h-0.8v2.8H80.5z"/>
		<path d="M86.6,382.1h2.2l2.5,9.1h-1.9l-1-4.6c-0.2-0.9-0.4-2-0.7-2.9h0c-0.2,1-0.4,2-0.6,2.9l-1.1,4.6h-1.9L86.6,382.1z
			 M85.8,387.5h3.9v1.6h-3.9V387.5z"/>
		<path d="M92.2,382.1H94v9.1h-1.8V382.1z"/>
		<path d="M95.9,382.1h1.9l2.1,4.5l0.8,2h0c-0.1-1-0.2-2.2-0.2-3.3v-3.2h1.7v9.1h-1.9l-2.1-4.6l-0.8-2h0c0.1,1,0.2,2.2,0.2,3.3v3.2
			h-1.7V382.1z"/>
		<path d="M48,404.2c0-2.5,0.6-4.5,1.6-6.4l1.1,0.5c-0.9,1.8-1.3,3.9-1.3,5.9s0.4,4.1,1.3,5.9l-1.1,0.5
			C48.6,408.6,48,406.6,48,404.2z"/>
		<path d="M52.2,406.4h1.7v-5.1h-1.5V400c0.8-0.2,1.4-0.4,1.9-0.8h1.3v7.2h1.5v1.7h-5V406.4z"/>
		<path d="M58.4,403.8h3v1.5h-3V403.8z"/>
		<path d="M62.2,407l0.8-1.3c0.5,0.5,1.1,0.9,1.7,0.9c0.8,0,1.3-0.4,1.3-1.1c0-0.8-0.4-1.3-2.1-1.3v-1.5c1.4,0,1.8-0.5,1.8-1.2
			c0-0.6-0.4-1-1-1c-0.6,0-1,0.3-1.5,0.8l-0.9-1.3c0.7-0.7,1.5-1.1,2.5-1.1c1.6,0,2.7,0.9,2.7,2.4c0,0.9-0.5,1.6-1.3,2v0.1
			c0.9,0.3,1.6,1,1.6,2.2c0,1.7-1.3,2.6-2.9,2.6C63.7,408.2,62.8,407.7,62.2,407z"/>
		<path d="M69,410c0.9-1.8,1.3-3.9,1.3-5.9s-0.4-4.1-1.3-5.9l1.1-0.5c1,1.9,1.6,3.9,1.6,6.4c0,2.5-0.6,4.5-1.6,6.4L69,410z"/>
	</g>
</g>
<g>
	<g>
		<path d="M48.1,225.4h2l1.3,4.1c0.2,0.5,0.3,1.1,0.5,1.7h0c0.2-0.6,0.3-1.1,0.5-1.7l1.3-4.1h2v9.1h-1.6v-3.4c0-0.9,0.1-2.2,0.2-3.1
			h0l-0.7,2.2l-1.1,3.5h-1l-1.1-3.5l-0.6-2.2h0c0.1,0.9,0.2,2.2,0.2,3.1v3.4h-1.6V225.4z"/>
		<path d="M57.1,229.9c0-3,1.5-4.7,3.6-4.7c2.2,0,3.6,1.7,3.6,4.7c0,3-1.5,4.8-3.6,4.8C58.6,234.7,57.1,232.9,57.1,229.9z
			 M62.5,229.9c0-1.8-0.7-2.9-1.8-2.9c-1.1,0-1.8,1.1-1.8,2.9c0,1.8,0.7,3,1.8,3C61.8,232.9,62.5,231.8,62.5,229.9z"/>
		<path d="M65.9,225.4h2.3c2.4,0,4,1.4,4,4.5s-1.6,4.6-3.9,4.6h-2.4V225.4z M68,232.9c1.4,0,2.3-0.8,2.3-2.9s-0.9-2.9-2.3-2.9h-0.3
			v5.8H68z"/>
		<path d="M73.7,225.4h5v1.7h-3.2v1.8h2.7v1.7h-2.7v2.1h3.3v1.7h-5.1V225.4z"/>
		<path d="M80.4,225.4h2.9c1.7,0,3.1,0.7,3.1,2.8c0,2.1-1.4,3-3.1,3h-1.1v3.3h-1.8V225.4z M83.2,229.6c1,0,1.5-0.5,1.5-1.4
			c0-0.9-0.5-1.2-1.5-1.2h-0.9v2.6H83.2z M83,230.7l1.3-1.3l2.6,5.2h-2L83,230.7z"/>
		<path d="M89.5,225.4h2.2l2.5,9.1h-1.9l-1-4.6c-0.2-0.9-0.4-2-0.7-2.9h0c-0.2,1-0.4,2-0.6,2.9l-1.1,4.6H87L89.5,225.4z M88.6,230.8
			h3.9v1.6h-3.9V230.8z"/>
		<path d="M96.6,227.1h-2.2v-1.7h6.2v1.7h-2.2v7.4h-1.8V227.1z"/>
		<path d="M101.9,225.4h5v1.7h-3.2v1.8h2.7v1.7h-2.7v2.1h3.3v1.7h-5.1V225.4z"/>
		<path d="M111.1,225.4h2.8c1.8,0,3.2,0.7,3.2,2.9c0,2.1-1.4,3.1-3.1,3.1h-1v3.1h-1.8V225.4z M113.8,229.8c1,0,1.5-0.5,1.5-1.5
			c0-1-0.5-1.3-1.5-1.3h-0.8v2.8H113.8z"/>
		<path d="M119.9,225.4h2.2l2.5,9.1h-1.9l-1-4.6c-0.2-0.9-0.4-2-0.7-2.9h0c-0.2,1-0.4,2-0.6,2.9l-1.1,4.6h-1.9L119.9,225.4z
			 M119,230.8h3.9v1.6H119V230.8z"/>
		<path d="M125.4,225.4h1.8v9.1h-1.8V225.4z"/>
		<path d="M129.2,225.4h1.9l2.1,4.5l0.8,2h0c-0.1-1-0.2-2.2-0.2-3.3v-3.2h1.7v9.1h-1.9l-2.1-4.6l-0.8-2h0c0.1,1,0.2,2.2,0.2,3.3v3.2
			h-1.7V225.4z"/>
		<path d="M48,247.4c0-2.5,0.6-4.5,1.6-6.4l1.1,0.5c-0.9,1.8-1.3,3.9-1.3,5.9s0.4,4.1,1.3,5.9l-1.1,0.5
			C48.6,251.9,48,249.9,48,247.4z"/>
		<path d="M55,246.2c0-0.6,0-1.4,0.1-2h0c-0.2,0.5-0.4,1-0.6,1.5l-1,1.9h4.2v1.6h-6v-1.4l2.9-5.3h2.2v8.9H55V246.2z"/>
		<path d="M58.4,247.1h3v1.5h-3V247.1z"/>
		<path d="M66,244.2h-3.5v-1.7h5.4v1.3c-1.8,2.5-2.1,4.2-2.2,7.6h-1.8C64.1,248.4,64.5,246.5,66,244.2z"/>
		<path d="M69,253.3c0.9-1.8,1.3-3.9,1.3-5.9s-0.4-4.1-1.3-5.9l1.1-0.5c1,1.9,1.6,3.9,1.6,6.4c0,2.5-0.6,4.5-1.6,6.4L69,253.3z"/>
	</g>
</g>
<g>
	<g>
		<path d="M47.6,76.7l1-1.4c0.6,0.6,1.3,1,2,1c0.8,0,1.1-0.3,1.1-0.9c0-0.6-0.5-0.8-1.2-1.1l-1-0.5c-0.8-0.4-1.6-1.2-1.6-2.5
			c0-1.5,1.2-2.7,2.9-2.7c0.9,0,1.9,0.4,2.6,1.2L52.4,71c-0.5-0.5-1-0.7-1.7-0.7c-0.6,0-1,0.3-1,0.8c0,0.6,0.5,0.8,1.2,1.1l1,0.5
			c1,0.5,1.6,1.2,1.6,2.5c0,1.5-1.1,2.8-3,2.8C49.5,78,48.4,77.5,47.6,76.7z"/>
		<path d="M54.9,68.7h5v1.7h-3.2v1.8h2.7V74h-2.7v2.1h3.3v1.7h-5.1V68.7z"/>
		<path d="M60.6,68.7h1.9l1,4.3c0.2,1,0.4,1.9,0.6,2.9h0c0.2-1,0.4-1.9,0.6-2.9l0.9-4.3h1.9l-2.4,9.1h-2.2L60.6,68.7z"/>
		<path d="M68.5,68.7h5v1.7h-3.2v1.8h2.7V74h-2.7v2.1h3.3v1.7h-5.1V68.7z"/>
		<path d="M75.3,68.7h2.9c1.7,0,3.1,0.7,3.1,2.8c0,2.1-1.4,3-3.1,3h-1.1v3.3h-1.8V68.7z M78,72.9c1,0,1.5-0.5,1.5-1.4
			c0-0.9-0.5-1.2-1.5-1.2h-0.9v2.6H78z M77.8,74l1.3-1.3l2.6,5.2h-2L77.8,74z"/>
		<path d="M82.8,68.7h5v1.7h-3.2v1.8h2.7V74h-2.7v2.1h3.3v1.7h-5.1V68.7z"/>
		<path d="M92,68.7h2.8c1.8,0,3.2,0.7,3.2,2.9c0,2.1-1.4,3.1-3.1,3.1h-1v3.1H92V68.7z M94.7,73.1c1,0,1.5-0.5,1.5-1.5
			c0-1-0.5-1.3-1.5-1.3h-0.8v2.8H94.7z"/>
		<path d="M100.8,68.7h2.2l2.5,9.1h-1.9l-1-4.6c-0.2-0.9-0.4-2-0.7-2.9h0c-0.2,1-0.4,2-0.6,2.9l-1.1,4.6h-1.9L100.8,68.7z M100,74
			h3.9v1.6H100V74z"/>
		<path d="M106.4,68.7h1.8v9.1h-1.8V68.7z"/>
		<path d="M110.1,68.7h1.9l2.1,4.5l0.8,2h0c-0.1-1-0.2-2.2-0.2-3.3v-3.2h1.7v9.1h-1.9l-2.1-4.6l-0.8-2h0c0.1,1,0.2,2.2,0.2,3.3v3.2
			h-1.7V68.7z"/>
		<path d="M48,90.7c0-2.5,0.6-4.5,1.6-6.4l1.1,0.5c-0.9,1.8-1.3,3.9-1.3,5.9s0.4,4.1,1.3,5.9l-1.1,0.5C48.6,95.2,48,93.2,48,90.7z"
			/>
		<path d="M51.9,92.3c0-1.1,0.6-1.7,1.3-2.2v-0.1c-0.6-0.5-1.1-1.2-1.1-2.1c0-1.5,1-2.5,2.5-2.5c1.4,0,2.4,1,2.4,2.4
			c0,0.8-0.5,1.5-1,1.9V90c0.7,0.5,1.3,1.1,1.3,2.3c0,1.4-1.1,2.5-2.8,2.5C53.1,94.8,51.9,93.8,51.9,92.3z M55.7,92.2
			c0-0.8-0.7-1.1-1.6-1.6c-0.3,0.4-0.6,0.9-0.6,1.4c0,0.8,0.5,1.2,1.2,1.2C55.3,93.3,55.7,93,55.7,92.2z M55.6,88.1
			c0-0.7-0.4-1.1-0.9-1.1c-0.5,0-0.9,0.3-0.9,1c0,0.7,0.5,1.1,1.3,1.4C55.4,89,55.6,88.6,55.6,88.1z"/>
		<path d="M58.4,90.3h3v1.5h-3V90.3z"/>
		<path d="M62.8,92.9h1.7v-5.1h-1.5v-1.3c0.8-0.2,1.4-0.4,1.9-0.8h1.3v7.2h1.5v1.7h-5V92.9z"/>
		<path d="M68.9,90.1c0-3,1.1-4.6,2.8-4.6c1.7,0,2.8,1.6,2.8,4.6c0,3-1.1,4.7-2.8,4.7C70,94.8,68.9,93.2,68.9,90.1z M72.8,90.1
			c0-2.4-0.5-3-1.1-3s-1.1,0.6-1.1,3c0,2.4,0.5,3.1,1.1,3.1S72.8,92.6,72.8,90.1z"/>
		<path d="M75.5,96.6c0.9-1.8,1.3-3.9,1.3-5.9s-0.4-4.1-1.3-5.9l1.1-0.5c1,1.9,1.6,3.9,1.6,6.4c0,2.5-0.6,4.5-1.6,6.4L75.5,96.6z"/>
	</g>
</g>
<g>
	<g>
		<path d="M29.1,13c-0.1,0-0.2,0-0.2-0.1c-0.1-0.1-0.1-0.3,0-0.5l5.3-5.3c0.1-0.1,0.3-0.1,0.5,0c0.1,0.1,0.1,0.3,0,0.5l-5.3,5.3
			C29.3,13,29.2,13,29.1,13z"/>
	</g>
	<g>
		<path d="M39.8,13c-0.1,0-0.2,0-0.2-0.1l-5.3-5.3c-0.1-0.1-0.1-0.3,0-0.5c0.1-0.1,0.3-0.1,0.5,0l5.3,5.3c0.1,0.1,0.1,0.3,0,0.5
			C40,13,39.9,13,39.8,13z"/>
	</g>
	<g>
		<path d="M34.5,446.2c-0.2,0-0.3-4.6-0.3-10.3V18.5c0-5.7,0.2-10.3,0.3-10.3c0.2,0,0.3,4.6,0.3,10.3v417.4
			C34.8,441.6,34.6,446.2,34.5,446.2z"/>
	</g>
</g>
<g>
	<line class="st0" x1="109.3" y1="447.1" x2="109.3" y2="319.7"/>
	<line class="st0" x1="109.3" y1="319.7" x2="221.7" y2="319.7"/>
	<line class="st0" x1="221.7" y1="319.7" x2="221.7" y2="189.5"/>
	<line class="st0" x1="221.7" y1="189.5" x2="334.2" y2="189.5"/>
	<line class="st0" x1="334.2" y1="189.5" x2="334.2" y2="8.2"/>
	<line class="st0" x1="334.2" y1="8.2" x2="446.6" y2="8.2"/>
</g>
<g>
	<g>
		<path class="st1" d="M158.3,304.3c-19.7-27.3-31.9-69.7,51.1-90"/>
	</g>
	<polygon points="206.5,211.4 207.1,213.1 207.6,214.7 207.6,214.7 208.2,216.4 208.8,218.1 214.3,212.6 	"/>
	<polygon points="160.6,302 159.2,303 157.7,304 157.7,304 156.2,305 154.8,306 161.6,309.8 	"/>
</g>
<g>
	<g>
		<path class="st1" d="M266.4,164.6c-19.7-27.3-31.9-69.7,51.1-90"/>
	</g>
	<polygon points="314.6,71.6 315.2,73.3 315.7,75 315.7,75 316.3,76.7 316.9,78.3 322.4,72.8 	"/>
	<polygon points="268.7,162.3 267.3,163.2 265.8,164.2 265.8,164.2 264.3,165.2 262.9,166.2 269.6,170.1 	"/>
</g>
</svg>
