<?xml version="1.0" encoding="utf-8"?>
<!-- Generator: Adobe Illustrator 24.0.2, SVG Export Plug-In . SVG Version: 6.00 Build 0)  -->
<svg version="1.1" id="Layer_1" xmlns="http://www.w3.org/2000/svg" xmlns:xlink="http://www.w3.org/1999/xlink" x="0px" y="0px"
	 viewBox="0 0 453.54 451.78" style="enable-background:new 0 0 453.54 451.78;" xml:space="preserve">
<g>
	<g>
		<path d="M13.51,274.01v-1.43h9.16v1.43H13.51z"/>
		<path d="M15.79,270.66v-1.16l0.93-0.11v-0.04c-0.6-0.54-1.1-1.16-1.1-1.98c0-1.29,1-1.86,2.73-1.86h4.31v1.42h-4.11
			c-1.13,0-1.56,0.29-1.56,0.94c0,0.53,0.3,0.88,0.86,1.38h4.81v1.42H15.79z"/>
		<path d="M19.23,264.17c-2.29,0-3.61-1.42-3.61-3.03c0-0.77,0.34-1.33,0.77-1.77l1.05,0.69c-0.32,0.32-0.5,0.62-0.5,1
			c0,0.97,0.92,1.65,2.3,1.65c1.38,0,2.29-0.66,2.29-1.6c0-0.47-0.26-0.91-0.59-1.25l1.06-0.58c0.57,0.57,0.85,1.28,0.85,1.97
			C22.83,262.91,21.51,264.17,19.23,264.17z"/>
		<path d="M15.79,258.09v-1.16l1.23-0.11v-0.04c-0.9-0.43-1.4-1.07-1.4-1.72c0-0.31,0.04-0.5,0.14-0.68l1.4,0.25
			c-0.07,0.21-0.11,0.37-0.11,0.62c0,0.48,0.38,1.06,1.42,1.43h4.2v1.42H15.79z"/>
		<path d="M19.23,253.9c-2.24,0-3.61-1.36-3.61-2.78c0-1.63,1.34-2.49,3.27-2.49c0.31,0,0.62,0.03,0.78,0.06v3.83
			c1.22-0.12,1.92-0.81,1.92-1.78c0-0.52-0.19-0.96-0.5-1.4l1-0.48c0.44,0.58,0.75,1.3,0.75,2.07
			C22.83,252.59,21.5,253.9,19.23,253.9z M18.57,249.85c-1.06,0-1.7,0.41-1.7,1.24c0,0.7,0.6,1.32,1.7,1.45V249.85z"/>
		<path d="M20.82,247.59c-1.47,0-2.24-1.07-2.54-3.55c-0.74,0.02-1.36,0.28-1.36,1.1c0,0.6,0.31,1.17,0.68,1.7l-1.08,0.52
			c-0.48-0.67-0.9-1.52-0.9-2.48c0-1.51,1.06-2.25,2.98-2.25h4.07v1.16l-0.76,0.11v0.04c0.53,0.54,0.93,1.16,0.93,1.87
			C22.83,246.86,22.02,247.59,20.82,247.59z M20.82,244.04h-1.55c0.24,1.64,0.72,2.18,1.42,2.18c0.61,0,0.87-0.36,0.87-0.87
			C21.57,244.86,21.29,244.49,20.82,244.04z"/>
		<path d="M21.88,241.52l-1.03-0.66c0.48-0.54,0.77-1.06,0.77-1.67c0-0.66-0.35-0.97-0.82-0.97c-0.58,0-0.83,0.65-1.12,1.3
			c-0.34,0.79-0.86,1.7-2.01,1.7c-1.19,0-2.06-0.85-2.06-2.2c0-0.84,0.39-1.52,0.82-2.01l0.99,0.65c-0.35,0.42-0.6,0.85-0.6,1.32
			c0,0.61,0.33,0.9,0.76,0.9c0.54,0,0.75-0.61,1.03-1.26c0.35-0.82,0.79-1.73,2.08-1.73c1.18,0,2.13,0.82,2.13,2.35
			C22.83,240.06,22.43,240.93,21.88,241.52z"/>
		<path d="M13.67,235.78c-0.54,0-0.91-0.38-0.91-0.88c0-0.5,0.37-0.88,0.91-0.88c0.53,0,0.91,0.37,0.91,0.88
			C14.58,235.4,14.2,235.78,13.67,235.78z M15.79,235.61v-1.42h6.88v1.42H15.79z"/>
		<path d="M15.79,232.39v-1.16l0.93-0.11v-0.04c-0.6-0.54-1.1-1.16-1.1-1.98c0-1.29,1-1.86,2.73-1.86h4.31v1.42h-4.11
			c-1.13,0-1.56,0.29-1.56,0.94c0,0.53,0.3,0.88,0.86,1.38h4.81v1.42H15.79z"/>
		<path d="M23.92,225.92c-0.58,0-1.09-0.32-1.47-0.87h-0.06c-0.23,0.31-0.59,0.55-1.15,0.55c-0.53,0-1-0.32-1.28-0.67H19.9
			c-0.35,0.41-1,0.8-1.82,0.8c-1.58,0-2.47-1.12-2.47-2.39c0-0.33,0.07-0.65,0.17-0.89v-2.16h1.2v1.1c0.26-0.2,0.68-0.34,1.15-0.34
			c1.53,0,2.35,1.02,2.35,2.3c0,0.26-0.06,0.55-0.18,0.82c0.18,0.18,0.35,0.29,0.66,0.29c0.39,0,0.62-0.25,0.62-0.98v-1.07
			c0-1.44,0.51-2.21,1.7-2.21c1.36,0,2.43,1.25,2.43,3.22C25.71,224.84,25.12,225.92,23.92,225.92z M18.09,222.29
			c-0.86,0-1.36,0.46-1.36,1.05c0,0.59,0.49,1.05,1.36,1.05c0.88,0,1.38-0.47,1.38-1.05C19.47,222.75,18.96,222.29,18.09,222.29z
			 M23.55,221.55c-0.53,0-0.69,0.37-0.69,1.06v0.83c0,0.32-0.03,0.58-0.09,0.82c0.28,0.32,0.59,0.47,0.91,0.47
			c0.63,0,0.99-0.59,0.99-1.54C24.66,222.21,24.14,221.55,23.55,221.55z"/>
		<path d="M19.23,217.04c-2.29,0-3.61-1.37-3.61-2.87s1.32-2.87,3.61-2.87c2.28,0,3.6,1.37,3.6,2.87S21.51,217.04,19.23,217.04z
			 M19.23,212.75c-1.38,0-2.3,0.53-2.3,1.42s0.92,1.42,2.3,1.42c1.38,0,2.29-0.53,2.29-1.42S20.61,212.75,19.23,212.75z"/>
		<path d="M15.79,209.89v-1.16l1.23-0.11v-0.04c-0.9-0.43-1.4-1.07-1.4-1.72c0-0.31,0.04-0.5,0.14-0.68l1.4,0.25
			c-0.07,0.21-0.11,0.37-0.11,0.62c0,0.48,0.38,1.06,1.42,1.43h4.2v1.42H15.79z"/>
		<path d="M15.79,202.84v-1.16l0.73-0.11v-0.04c-0.5-0.51-0.9-1.16-0.9-1.82c0-1.51,1.38-2.38,3.5-2.38c2.35,0,3.71,1.23,3.71,2.58
			c0,0.54-0.27,1.06-0.76,1.55l1.14-0.04h2.17v1.42H15.79z M19.14,198.79c-1.37,0-2.18,0.39-2.18,1.31c0,0.44,0.25,0.85,0.77,1.32
			h3.2c0.42-0.43,0.57-0.86,0.57-1.21C21.5,199.41,20.69,198.79,19.14,198.79z"/>
		<path d="M19.23,196.3c-2.24,0-3.61-1.36-3.61-2.78c0-1.63,1.34-2.49,3.27-2.49c0.31,0,0.62,0.03,0.78,0.06v3.83
			c1.22-0.12,1.92-0.81,1.92-1.78c0-0.52-0.19-0.96-0.5-1.4l1-0.48c0.44,0.58,0.75,1.3,0.75,2.07
			C22.83,194.99,21.5,196.3,19.23,196.3z M18.57,192.25c-1.06,0-1.7,0.41-1.7,1.24c0,0.7,0.6,1.32,1.7,1.45V192.25z"/>
		<path d="M15.79,189.67v-1.16l1.23-0.11v-0.04c-0.9-0.43-1.4-1.07-1.4-1.72c0-0.31,0.04-0.5,0.14-0.68l1.4,0.25
			c-0.07,0.21-0.11,0.37-0.11,0.62c0,0.48,0.38,1.06,1.42,1.43h4.2v1.42H15.79z"/>
		<path d="M21.88,185.68l-1.03-0.66c0.48-0.54,0.77-1.05,0.77-1.67c0-0.66-0.35-0.97-0.82-0.97c-0.58,0-0.83,0.65-1.12,1.3
			c-0.34,0.79-0.86,1.7-2.01,1.7c-1.19,0-2.06-0.85-2.06-2.2c0-0.84,0.39-1.52,0.82-2.01l0.99,0.65c-0.35,0.42-0.6,0.85-0.6,1.32
			c0,0.61,0.33,0.9,0.76,0.9c0.54,0,0.75-0.61,1.03-1.26c0.35-0.82,0.79-1.73,2.08-1.73c1.18,0,2.13,0.82,2.13,2.35
			C22.83,184.22,22.43,185.09,21.88,185.68z"/>
		<path d="M13.67,179.94c-0.54,0-0.91-0.37-0.91-0.88c0-0.5,0.37-0.88,0.91-0.88c0.53,0,0.91,0.38,0.91,0.88
			C14.58,179.57,14.2,179.94,13.67,179.94z M15.79,179.78v-1.42h6.88v1.42H15.79z"/>
		<path d="M21.88,177.15l-1.03-0.66c0.48-0.54,0.77-1.05,0.77-1.67c0-0.66-0.35-0.97-0.82-0.97c-0.58,0-0.83,0.65-1.12,1.3
			c-0.34,0.79-0.86,1.7-2.01,1.7c-1.19,0-2.06-0.85-2.06-2.2c0-0.84,0.39-1.51,0.82-2.01l0.99,0.65c-0.35,0.42-0.6,0.85-0.6,1.32
			c0,0.61,0.33,0.89,0.76,0.89c0.54,0,0.75-0.61,1.03-1.26c0.35-0.82,0.79-1.73,2.08-1.73c1.18,0,2.13,0.82,2.13,2.35
			C22.83,175.69,22.43,176.56,21.88,177.15z"/>
		<path d="M20.35,171.04h-3.28v0.86h-1.21l-0.07-0.93l-1.88-0.17v-1.18h1.88v-1.54h1.28v1.54h3.28c0.81,0,1.21-0.28,1.21-0.86
			c0-0.21-0.08-0.45-0.16-0.63l1.19-0.24c0.12,0.33,0.25,0.75,0.25,1.23C22.83,170.52,21.83,171.04,20.35,171.04z"/>
		<path d="M13.67,166.97c-0.54,0-0.91-0.37-0.91-0.88s0.37-0.88,0.91-0.88c0.53,0,0.91,0.37,0.91,0.88S14.2,166.97,13.67,166.97z
			 M15.79,166.81v-1.42h6.88v1.42H15.79z"/>
		<path d="M15.79,163.59v-1.16l0.93-0.11v-0.04c-0.6-0.54-1.1-1.16-1.1-1.98c0-1.29,1-1.86,2.73-1.86h4.31v1.42h-4.11
			c-1.13,0-1.56,0.29-1.56,0.94c0,0.53,0.3,0.88,0.86,1.38h4.81v1.42H15.79z"/>
		<path d="M23.92,157.11c-0.58,0-1.09-0.32-1.47-0.87h-0.06c-0.23,0.31-0.59,0.55-1.15,0.55c-0.53,0-1-0.32-1.28-0.67H19.9
			c-0.35,0.41-1,0.8-1.82,0.8c-1.58,0-2.47-1.12-2.47-2.39c0-0.33,0.07-0.65,0.17-0.89v-2.16h1.2v1.1c0.26-0.2,0.68-0.34,1.15-0.34
			c1.53,0,2.35,1.02,2.35,2.3c0,0.26-0.06,0.55-0.18,0.82c0.18,0.18,0.35,0.29,0.66,0.29c0.39,0,0.62-0.25,0.62-0.98v-1.07
			c0-1.44,0.51-2.21,1.7-2.21c1.36,0,2.43,1.25,2.43,3.22C25.71,156.04,25.12,157.11,23.92,157.11z M18.09,153.48
			c-0.86,0-1.36,0.46-1.36,1.05s0.49,1.05,1.36,1.05c0.88,0,1.38-0.47,1.38-1.05S18.96,153.48,18.09,153.48z M23.55,152.74
			c-0.53,0-0.69,0.37-0.69,1.06v0.83c0,0.33-0.03,0.58-0.09,0.82c0.28,0.33,0.59,0.47,0.91,0.47c0.63,0,0.99-0.59,0.99-1.54
			C24.66,153.41,24.14,152.74,23.55,152.74z"/>
		<path d="M15.79,147.84v-1.16l0.73-0.11v-0.04c-0.5-0.51-0.9-1.16-0.9-1.82c0-1.51,1.38-2.38,3.5-2.38c2.35,0,3.71,1.24,3.71,2.58
			c0,0.54-0.27,1.06-0.76,1.55l1.14-0.04h2.17v1.42H15.79z M19.14,143.79c-1.37,0-2.18,0.39-2.18,1.31c0,0.44,0.25,0.85,0.77,1.32
			h3.2c0.42-0.43,0.57-0.86,0.57-1.21C21.5,144.41,20.69,143.79,19.14,143.79z"/>
		<path d="M20.82,141.23c-1.47,0-2.24-1.07-2.54-3.55c-0.74,0.02-1.36,0.28-1.36,1.1c0,0.6,0.31,1.17,0.68,1.7l-1.08,0.52
			c-0.48-0.67-0.9-1.52-0.9-2.48c0-1.51,1.06-2.25,2.98-2.25h4.07v1.16l-0.76,0.11v0.04c0.53,0.54,0.93,1.16,0.93,1.87
			C22.83,140.5,22.02,141.23,20.82,141.23z M20.82,137.68h-1.55c0.24,1.64,0.72,2.18,1.42,2.18c0.61,0,0.87-0.36,0.87-0.87
			C21.57,138.5,21.29,138.12,20.82,137.68z"/>
		<path d="M13.67,134.72c-0.54,0-0.91-0.37-0.91-0.88s0.37-0.88,0.91-0.88c0.53,0,0.91,0.37,0.91,0.88S14.2,134.72,13.67,134.72z
			 M15.79,134.56v-1.42h6.88v1.42H15.79z"/>
		<path d="M15.79,131.33v-1.16l0.93-0.11v-0.04c-0.6-0.54-1.1-1.16-1.1-1.98c0-1.29,1-1.86,2.73-1.86h4.31v1.42h-4.11
			c-1.13,0-1.56,0.29-1.56,0.94c0,0.53,0.3,0.88,0.86,1.38h4.81v1.42H15.79z"/>
	</g>
</g>
<g>
	<g>
		<path d="M349.51,31.53l1.04-1.42c0.57,0.57,1.31,0.95,1.97,0.95c0.76,0,1.13-0.34,1.13-0.88c0-0.58-0.46-0.76-1.16-1.09
			l-1.04-0.51c-0.83-0.38-1.62-1.16-1.62-2.49c0-1.51,1.19-2.72,2.86-2.72c0.92,0,1.89,0.42,2.58,1.2l-0.92,1.3
			c-0.53-0.46-1.03-0.71-1.66-0.71c-0.63,0-1.02,0.3-1.02,0.82c0,0.56,0.52,0.76,1.22,1.08l1.02,0.47c0.98,0.45,1.59,1.19,1.59,2.48
			c0,1.52-1.11,2.83-3.02,2.83C351.43,32.85,350.32,32.4,349.51,31.53z"/>
		<path d="M356.96,30.16v-2.81h-0.83v-1.54l0.93-0.08l0.21-1.85h1.5v1.85h1.46v1.62h-1.46v2.78c0,0.79,0.31,1.1,0.79,1.1
			c0.2,0,0.42-0.07,0.58-0.13l0.29,1.5c-0.32,0.12-0.76,0.25-1.36,0.25C357.56,32.85,356.96,31.77,356.96,30.16z"/>
		<path d="M361.07,29.21c0-2.25,1.41-3.64,2.88-3.64c1.74,0,2.6,1.44,2.6,3.33c0,0.37-0.04,0.74-0.08,0.91h-3.65
			c0.16,1.01,0.77,1.47,1.58,1.47c0.46,0,0.88-0.16,1.32-0.46l0.6,1.24c-0.63,0.49-1.44,0.78-2.16,0.78
			C362.42,32.85,361.07,31.51,361.07,29.21z M365,28.45c0-0.76-0.29-1.31-1.01-1.31c-0.57,0-1.06,0.44-1.19,1.31H365z"/>
		<path d="M367.8,25.74h1.48l0.13,0.68h0.04c0.48-0.49,1.1-0.85,1.74-0.85c1.48,0,2.38,1.39,2.38,3.53c0,2.38-1.25,3.75-2.57,3.75
			c-0.53,0-1.02-0.26-1.46-0.72l0.06,1.1v2.04h-1.81V25.74z M371.71,29.12c0-1.25-0.34-1.87-1.06-1.87c-0.37,0-0.69,0.19-1.05,0.62
			v2.85c0.33,0.33,0.67,0.44,0.97,0.44C371.21,31.17,371.71,30.56,371.71,29.12z"/>
		<path d="M376.78,31.59l0.83-1.3c0.48,0.52,1.06,0.9,1.71,0.9c0.76,0,1.27-0.38,1.27-1.06c0-0.78-0.4-1.26-2.1-1.26v-1.46
			c1.4,0,1.84-0.49,1.84-1.19c0-0.63-0.35-0.98-0.96-0.98c-0.56,0-0.98,0.29-1.46,0.78L377,24.76c0.72-0.7,1.5-1.14,2.46-1.14
			c1.62,0,2.69,0.88,2.69,2.44c0,0.92-0.46,1.57-1.3,1.98v0.06c0.9,0.29,1.56,1.02,1.56,2.17c0,1.66-1.33,2.59-2.9,2.59
			C378.24,32.85,377.35,32.34,376.78,31.59z"/>
		<path d="M383.76,27.02c0-0.73,0.46-1.3,1.09-1.3c0.63,0,1.09,0.57,1.09,1.3c0,0.73-0.46,1.29-1.09,1.29
			C384.23,28.32,383.76,27.75,383.76,27.02z M383.76,31.56c0-0.73,0.46-1.3,1.09-1.3c0.63,0,1.09,0.57,1.09,1.3
			c0,0.73-0.46,1.29-1.09,1.29C384.23,32.85,383.76,32.29,383.76,31.56z"/>
	</g>
</g>
<g>
	<g>
		<path d="M349.51,67.02l1.04-1.42c0.57,0.57,1.31,0.95,1.97,0.95c0.76,0,1.13-0.34,1.13-0.88c0-0.58-0.46-0.76-1.16-1.09
			l-1.04-0.51c-0.83-0.38-1.62-1.16-1.62-2.49c0-1.51,1.19-2.72,2.86-2.72c0.92,0,1.89,0.42,2.58,1.2l-0.92,1.3
			c-0.53-0.46-1.03-0.71-1.66-0.71c-0.63,0-1.02,0.3-1.02,0.82c0,0.56,0.52,0.76,1.22,1.08l1.02,0.47c0.98,0.45,1.59,1.19,1.59,2.48
			c0,1.52-1.11,2.83-3.02,2.83C351.43,68.34,350.32,67.89,349.51,67.02z"/>
		<path d="M356.96,65.64v-2.81h-0.83V61.3l0.93-0.08l0.21-1.85h1.5v1.85h1.46v1.62h-1.46v2.78c0,0.79,0.31,1.1,0.79,1.1
			c0.2,0,0.42-0.07,0.58-0.13l0.29,1.5c-0.32,0.12-0.76,0.25-1.36,0.25C357.56,68.34,356.96,67.25,356.96,65.64z"/>
		<path d="M361.42,61.22h1.47l0.13,1.21h0.04c0.44-0.93,1.11-1.38,1.73-1.38c0.35,0,0.55,0.05,0.73,0.14l-0.3,1.78
			c-0.22-0.06-0.4-0.11-0.66-0.11c-0.46,0-1.02,0.34-1.34,1.29v4.03h-1.81V61.22z"/>
		<path d="M365.97,64.7c0-2.31,1.43-3.65,2.97-3.65c1.54,0,2.97,1.33,2.97,3.65c0,2.31-1.43,3.64-2.97,3.64
			C367.4,68.34,365.97,67,365.97,64.7z M370.06,64.7c0-1.2-0.37-1.98-1.12-1.98c-0.75,0-1.12,0.78-1.12,1.98
			c0,1.2,0.37,1.98,1.12,1.98C369.69,66.68,370.06,65.9,370.06,64.7z"/>
		<path d="M373.15,61.22h1.47l0.13,0.88h0.04c0.51-0.56,1.13-1.05,1.96-1.05c1.33,0,1.89,1.07,1.89,2.8v4.31h-1.81v-4.05
			c0-1-0.24-1.31-0.76-1.31c-0.45,0-0.73,0.24-1.13,0.67v4.69h-1.81V61.22z"/>
		<path d="M379.81,69.36c0-0.58,0.3-1.04,0.87-1.4v-0.06c-0.32-0.24-0.56-0.61-0.56-1.18c0-0.5,0.29-0.99,0.68-1.3v-0.06
			c-0.43-0.34-0.82-0.99-0.82-1.8c0-1.67,1.21-2.52,2.52-2.52c0.34,0,0.67,0.06,0.95,0.17h2.23v1.5h-0.98
			c0.11,0.21,0.21,0.55,0.21,0.92c0,1.6-1.07,2.33-2.4,2.33c-0.22,0-0.47-0.04-0.75-0.13c-0.15,0.15-0.21,0.27-0.21,0.52
			c0,0.34,0.25,0.51,0.91,0.51h0.99c1.5,0,2.33,0.52,2.33,1.77c0,1.44-1.32,2.5-3.42,2.5C380.94,71.13,379.81,70.6,379.81,69.36z
			 M384.05,68.98c0-0.44-0.33-0.54-0.93-0.54h-0.63c-0.42,0-0.66-0.03-0.86-0.09c-0.23,0.22-0.33,0.43-0.33,0.68
			c0,0.53,0.54,0.8,1.35,0.8C383.46,69.83,384.05,69.46,384.05,68.98z M383.34,63.57c0-0.74-0.35-1.13-0.83-1.13
			c-0.48,0-0.83,0.39-0.83,1.13c0,0.76,0.36,1.16,0.83,1.16C382.98,64.73,383.34,64.33,383.34,63.57z"/>
		<path d="M388.86,64.7c0-2.31,1.43-3.65,2.97-3.65c1.54,0,2.97,1.33,2.97,3.65c0,2.31-1.43,3.64-2.97,3.64
			C390.29,68.34,388.86,67,388.86,64.7z M392.95,64.7c0-1.2-0.37-1.98-1.12-1.98c-0.75,0-1.12,0.78-1.12,1.98
			c0,1.2,0.37,1.98,1.12,1.98C392.58,66.68,392.95,65.9,392.95,64.7z"/>
		<path d="M396.04,61.22h1.47l0.13,0.68h0.04c0.48-0.49,1.1-0.85,1.74-0.85c1.48,0,2.38,1.39,2.38,3.53c0,2.38-1.25,3.75-2.57,3.75
			c-0.53,0-1.02-0.26-1.46-0.72l0.06,1.1v2.04h-1.81V61.22z M399.96,64.61c0-1.25-0.34-1.87-1.06-1.87c-0.37,0-0.69,0.19-1.05,0.62
			v2.85c0.33,0.33,0.67,0.44,0.97,0.44C399.45,66.65,399.96,66.05,399.96,64.61z"/>
		<path d="M402.95,59.13c0-0.63,0.44-1.08,1.05-1.08s1.05,0.45,1.05,1.08c0,0.63-0.44,1.08-1.05,1.08S402.95,59.75,402.95,59.13z
			 M403.09,61.22h1.81v6.95h-1.81V61.22z"/>
		<path d="M406.13,64.7c0-2.31,1.43-3.65,2.97-3.65c1.54,0,2.97,1.33,2.97,3.65c0,2.31-1.43,3.64-2.97,3.64
			C407.56,68.34,406.13,67,406.13,64.7z M410.22,64.7c0-1.2-0.37-1.98-1.12-1.98c-0.75,0-1.12,0.78-1.12,1.98
			c0,1.2,0.37,1.98,1.12,1.98C409.85,66.68,410.22,65.9,410.22,64.7z"/>
		<path d="M413.17,59.13c0-0.63,0.44-1.08,1.05-1.08s1.05,0.45,1.05,1.08c0,0.63-0.44,1.08-1.05,1.08S413.17,59.75,413.17,59.13z
			 M413.31,61.22h1.81v6.95h-1.81V61.22z"/>
		<path d="M416.4,64.7c0-2.27,1.25-3.65,2.53-3.65c0.67,0,1.08,0.28,1.5,0.73l-0.07-1.05v-2.37h1.81v9.81h-1.47l-0.13-0.69h-0.04
			c-0.43,0.49-1.04,0.86-1.62,0.86C417.38,68.34,416.4,66.97,416.4,64.7z M420.36,66.03v-2.85c-0.32-0.33-0.68-0.44-1.01-0.44
			c-0.58,0-1.1,0.62-1.1,1.94c0,1.36,0.41,1.98,1.11,1.98C419.75,66.65,420.06,66.49,420.36,66.03z"/>
		<path d="M428.01,64.28h-2.17v-1.45h2.17v-2.58h1.33v2.58h2.17v1.45h-2.17v2.58h-1.33V64.28z"/>
		<path d="M350.09,92.56h0.83l0.09,0.98h0.03c0.57-0.64,1.18-1.15,2.01-1.15c1.26,0,1.83,0.93,1.83,2.66v4.31h-1.01v-4.17
			c0-1.27-0.34-1.81-1.13-1.81c-0.61,0-1.03,0.36-1.63,1.05v4.93h-1.01V92.56z"/>
		<path d="M356.37,95.98c0-2.27,1.31-3.58,2.77-3.58c1.47,0,2.77,1.31,2.77,3.58c0,2.25-1.3,3.56-2.77,3.56
			C357.68,99.54,356.37,98.23,356.37,95.98z M360.87,95.98c0-1.56-0.7-2.62-1.72-2.62s-1.72,1.06-1.72,2.62s0.7,2.6,1.72,2.6
			S360.87,97.54,360.87,95.98z"/>
		<path d="M363.48,92.56h0.83l0.09,0.98h0.03c0.57-0.64,1.18-1.15,2.01-1.15c1.26,0,1.83,0.93,1.83,2.66v4.31h-1.01v-4.17
			c0-1.27-0.34-1.81-1.13-1.81c-0.61,0-1.03,0.36-1.63,1.05v4.93h-1.01V92.56z"/>
		<path d="M369.71,95.41h2.82v0.88h-2.82V95.41z"/>
		<path d="M373.59,95.98c0-2.27,1.31-3.58,2.77-3.58c1.47,0,2.77,1.31,2.77,3.58c0,2.25-1.3,3.56-2.77,3.56
			C374.9,99.54,373.59,98.23,373.59,95.98z M378.09,95.98c0-1.56-0.7-2.62-1.72-2.62s-1.72,1.06-1.72,2.62s0.7,2.6,1.72,2.6
			S378.09,97.54,378.09,95.98z"/>
		<path d="M380.71,92.56h0.83l0.09,0.79h0.03c0.54-0.51,1.21-0.95,1.91-0.95c1.54,0,2.37,1.37,2.37,3.47c0,2.32-1.22,3.68-2.59,3.68
			c-0.55,0-1.11-0.29-1.66-0.79l0.03,1.19v2.31h-1.01V92.56z M384.89,95.87c0-1.5-0.45-2.51-1.58-2.51c-0.51,0-1.02,0.32-1.6,0.93
			v3.57c0.54,0.52,1.06,0.71,1.46,0.71C384.16,98.57,384.89,97.55,384.89,95.87z"/>
		<path d="M387.35,90.42c0-0.45,0.3-0.74,0.7-0.74s0.7,0.29,0.7,0.74c0,0.43-0.31,0.74-0.7,0.74S387.35,90.85,387.35,90.42z
			 M387.53,92.56h1.01v6.81h-1.01V92.56z"/>
		<path d="M390.12,95.98c0-2.27,1.3-3.58,2.77-3.58c1.46,0,2.77,1.31,2.77,3.58c0,2.25-1.3,3.56-2.77,3.56
			C391.42,99.54,390.12,98.23,390.12,95.98z M394.61,95.98c0-1.56-0.7-2.62-1.72-2.62c-1.03,0-1.73,1.06-1.73,2.62s0.7,2.6,1.73,2.6
			C393.91,98.58,394.61,97.54,394.61,95.98z"/>
		<path d="M397.04,90.42c0-0.45,0.3-0.74,0.7-0.74s0.7,0.29,0.7,0.74c0,0.43-0.31,0.74-0.7,0.74S397.04,90.85,397.04,90.42z
			 M397.23,92.56h1.01v6.81h-1.01V92.56z"/>
		<path d="M399.83,95.98c0-2.21,1.22-3.58,2.59-3.58c0.7,0,1.15,0.3,1.67,0.79l-0.04-1.17v-2.62h1.01v9.98h-0.83l-0.09-0.8h-0.03
			c-0.46,0.53-1.1,0.97-1.81,0.97C400.79,99.54,399.83,98.24,399.83,95.98z M404.05,97.64v-3.57c-0.51-0.52-0.97-0.71-1.46-0.71
			c-0.96,0-1.72,1.05-1.72,2.6c0,1.63,0.59,2.6,1.64,2.6C403.07,98.57,403.54,98.26,404.05,97.64z"/>
		<path d="M351.73,126.38h-2.23v-0.87h2.23v-2.73h0.81v2.73h2.23v0.87h-2.23v2.73h-0.81V126.38z"/>
		<path d="M358.6,120.63h0.73l-3.28,12.19h-0.73L358.6,120.63z"/>
		<path d="M360.01,126.65h8.82v0.8h-8.82V126.65z"/>
		<path d="M349.64,158.37c0-2.27,1.35-3.58,2.88-3.58c0.79,0,1.33,0.37,1.75,0.8l-0.52,0.76c-0.35-0.36-0.72-0.6-1.19-0.6
			c-1.08,0-1.88,1.06-1.88,2.62s0.75,2.6,1.85,2.6c0.55,0,1.03-0.3,1.4-0.68l0.44,0.77c-0.54,0.54-1.21,0.87-1.93,0.87
			C350.86,161.94,349.64,160.63,349.64,158.37z"/>
		<path d="M355.25,158.37c0-2.27,1.3-3.58,2.77-3.58c1.46,0,2.77,1.31,2.77,3.58c0,2.25-1.3,3.56-2.77,3.56
			C356.56,161.94,355.25,160.63,355.25,158.37z M359.75,158.37c0-1.56-0.7-2.62-1.72-2.62c-1.03,0-1.73,1.06-1.73,2.62
			s0.7,2.6,1.73,2.6C359.05,160.98,359.75,159.94,359.75,158.37z"/>
		<path d="M361.87,157.81h2.82v0.88h-2.82V157.81z"/>
		<path d="M365.82,160c0-1.48,1.12-2.23,3.67-2.54c0-0.88-0.26-1.72-1.23-1.72c-0.69,0-1.31,0.37-1.78,0.73l-0.4-0.79
			c0.55-0.41,1.39-0.89,2.35-0.89c1.46,0,2.08,1.1,2.08,2.8v4.18h-0.84l-0.09-0.81h-0.03c-0.57,0.54-1.24,0.98-1.98,0.98
			C366.57,161.94,365.82,161.23,365.82,160z M369.49,160.11v-1.89c-2,0.27-2.68,0.83-2.68,1.7c0,0.77,0.46,1.09,1.05,1.09
			C368.44,161.01,368.91,160.69,369.49,160.11z"/>
		<path d="M372.39,154.96h0.84l0.08,0.98h0.03c0.57-0.64,1.18-1.15,2-1.15c1.26,0,1.83,0.93,1.83,2.66v4.31h-1.01v-4.17
			c0-1.27-0.34-1.81-1.13-1.81c-0.61,0-1.04,0.36-1.63,1.05v4.93h-1.01V154.96z"/>
		<path d="M378.75,160c0-1.48,1.12-2.23,3.67-2.54c0-0.88-0.26-1.72-1.23-1.72c-0.69,0-1.31,0.37-1.78,0.73l-0.4-0.79
			c0.55-0.41,1.39-0.89,2.35-0.89c1.46,0,2.08,1.1,2.08,2.8v4.18h-0.84l-0.08-0.81h-0.03c-0.57,0.54-1.23,0.98-1.98,0.98
			C379.5,161.94,378.75,161.23,378.75,160z M382.42,160.11v-1.89c-2,0.27-2.68,0.83-2.68,1.7c0,0.77,0.46,1.09,1.05,1.09
			C381.36,161.01,381.84,160.69,382.42,160.11z"/>
		<path d="M385.32,160.4v-8.61h1.01v8.7c0,0.35,0.13,0.49,0.28,0.49c0.06,0,0.11,0,0.22-0.03l0.14,0.88
			c-0.14,0.06-0.32,0.11-0.58,0.11C385.63,161.94,385.32,161.39,385.32,160.4z"/>
		<path d="M388,163.08c0-0.58,0.33-1.13,0.88-1.54v-0.06c-0.3-0.22-0.53-0.58-0.53-1.12c0-0.57,0.35-1.02,0.66-1.26v-0.06
			c-0.4-0.35-0.77-1.02-0.77-1.83c0-1.49,1.03-2.43,2.24-2.43c0.33,0,0.63,0.07,0.84,0.17h2.08v0.89h-1.23
			c0.28,0.31,0.49,0.82,0.49,1.4c0,1.46-0.97,2.36-2.19,2.36c-0.29,0-0.62-0.08-0.89-0.23c-0.22,0.21-0.38,0.43-0.38,0.8
			c0,0.43,0.25,0.74,1.05,0.74h1.16c1.39,0,2.09,0.5,2.09,1.63c0,1.26-1.18,2.35-3.02,2.35C389.01,164.9,388,164.25,388,163.08z
			 M392.51,162.72c0-0.63-0.42-0.84-1.21-0.84h-1.03c-0.23,0-0.51-0.03-0.78-0.1c-0.43,0.35-0.61,0.75-0.61,1.14
			c0,0.73,0.65,1.19,1.73,1.19C391.76,164.11,392.51,163.43,392.51,162.72z M391.74,157.22c0-0.99-0.57-1.59-1.27-1.59
			c-0.7,0-1.27,0.59-1.27,1.59c0,0.99,0.58,1.62,1.27,1.62C391.16,158.84,391.74,158.21,391.74,157.22z"/>
		<path d="M394.21,158.37c0-2.22,1.31-3.58,2.69-3.58c1.52,0,2.39,1.25,2.39,3.2c0,0.24-0.02,0.49-0.05,0.65h-4.03
			c0.07,1.44,0.85,2.38,1.99,2.38c0.57,0,1.04-0.21,1.49-0.54l0.36,0.76c-0.52,0.39-1.16,0.71-1.97,0.71
			C395.48,161.94,394.21,160.61,394.21,158.37z M398.39,157.82c0-1.36-0.54-2.11-1.47-2.11c-0.84,0-1.59,0.77-1.71,2.11H398.39z"/>
		<path d="M400.09,160.99l0.5-0.76c0.52,0.48,1.05,0.81,1.76,0.81c0.79,0,1.17-0.48,1.17-1.06c0-0.7-0.71-1.01-1.37-1.29
			c-0.84-0.35-1.78-0.82-1.78-1.97c0-1.09,0.77-1.93,2.06-1.93c0.74,0,1.4,0.35,1.86,0.77l-0.48,0.74
			c-0.41-0.35-0.83-0.61-1.36-0.61c-0.75,0-1.1,0.46-1.1,0.98c0,0.65,0.65,0.89,1.33,1.18c0.86,0.37,1.82,0.77,1.82,2.07
			c0,1.1-0.77,2.02-2.18,2.02C401.48,161.94,400.66,161.53,400.09,160.99z"/>
		<path d="M405.73,152.82c0-0.45,0.31-0.74,0.7-0.74c0.39,0,0.7,0.29,0.7,0.74c0,0.43-0.31,0.74-0.7,0.74
			C406.03,153.56,405.73,153.25,405.73,152.82z M405.91,154.96h1.01v6.81h-1.01V154.96z"/>
		<path d="M408.57,160c0-1.48,1.12-2.23,3.67-2.54c0-0.88-0.26-1.72-1.23-1.72c-0.69,0-1.31,0.37-1.78,0.73l-0.4-0.79
			c0.55-0.41,1.39-0.89,2.35-0.89c1.46,0,2.08,1.1,2.08,2.8v4.18h-0.84l-0.08-0.81h-0.03c-0.57,0.54-1.23,0.98-1.98,0.98
			C409.32,161.94,408.57,161.23,408.57,160z M412.24,160.11v-1.89c-2,0.27-2.68,0.83-2.68,1.7c0,0.77,0.46,1.09,1.05,1.09
			C411.18,161.01,411.66,160.69,412.24,160.11z"/>
	</g>
</g>
<g>
	<g>
		<path d="M235.88,238.7h1.86l0.55,4.26c0.11,0.96,0.22,1.92,0.33,2.89h0.05c0.16-0.96,0.32-1.94,0.48-2.89l0.86-4.26h1.54
			l0.86,4.26c0.16,0.93,0.32,1.91,0.48,2.89h0.05c0.11-0.97,0.22-1.95,0.32-2.89l0.56-4.26h1.73l-1.42,9.13h-2.28l-0.78-4.15
			c-0.13-0.71-0.23-1.44-0.32-2.12h-0.05c-0.1,0.68-0.2,1.41-0.33,2.12l-0.76,4.15h-2.24L235.88,238.7z"/>
		<path d="M246.16,244.36c0-2.25,1.41-3.64,2.88-3.64c1.74,0,2.6,1.44,2.6,3.33c0,0.37-0.04,0.74-0.08,0.91h-3.65
			c0.16,1.01,0.77,1.47,1.58,1.47c0.46,0,0.88-0.16,1.32-0.46l0.6,1.24c-0.63,0.49-1.44,0.78-2.16,0.78
			C247.51,248,246.16,246.66,246.16,244.36z M250.09,243.6c0-0.76-0.29-1.31-1.01-1.31c-0.57,0-1.06,0.44-1.19,1.31H250.09z"/>
		<path d="M252.61,245.9c0-1.46,1.02-2.26,3.44-2.55c-0.04-0.61-0.3-1-0.96-1c-0.51,0-1.02,0.25-1.61,0.63l-0.64-1.35
			c0.77-0.54,1.65-0.91,2.61-0.91c1.56,0,2.42,1.01,2.42,3.14v3.97h-1.48l-0.13-0.71h-0.04c-0.51,0.51-1.09,0.88-1.78,0.88
			C253.31,248,252.61,247.07,252.61,245.9z M256.04,245.81v-1.21c-1.29,0.2-1.71,0.62-1.71,1.14c0,0.45,0.27,0.67,0.7,0.67
			C255.45,246.4,255.72,246.17,256.04,245.81z"/>
		<path d="M259.37,238.02h1.77v5.62h0.04l1.94-2.76h1.96l-2.14,2.86l2.3,4.08h-1.96l-1.37-2.71l-0.77,1v1.71h-1.77V238.02z"/>
		<path d="M268.22,244.36c0-2.31,1.43-3.64,2.97-3.64c1.54,0,2.97,1.33,2.97,3.64c0,2.31-1.43,3.64-2.97,3.64
			C269.65,248,268.22,246.66,268.22,244.36z M272.31,244.36c0-1.2-0.37-1.98-1.12-1.98c-0.75,0-1.12,0.78-1.12,1.98
			c0,1.2,0.37,1.98,1.12,1.98C271.94,246.33,272.31,245.56,272.31,244.36z"/>
		<path d="M275.4,240.88h1.48l0.13,0.68h0.04c0.48-0.49,1.1-0.85,1.74-0.85c1.48,0,2.38,1.39,2.38,3.53c0,2.38-1.25,3.75-2.57,3.75
			c-0.53,0-1.02-0.26-1.46-0.72l0.06,1.1v2.04h-1.81V240.88z M279.32,244.27c0-1.25-0.34-1.87-1.06-1.87
			c-0.37,0-0.69,0.19-1.05,0.62v2.85c0.33,0.33,0.67,0.44,0.97,0.44C278.81,246.31,279.32,245.71,279.32,244.27z"/>
		<path d="M282.31,238.79c0-0.63,0.44-1.08,1.05-1.08s1.05,0.45,1.05,1.08c0,0.63-0.44,1.08-1.05,1.08S282.31,239.41,282.31,238.79z
			 M282.45,240.88h1.81v6.95h-1.81V240.88z"/>
		<path d="M285.49,244.36c0-2.31,1.43-3.64,2.97-3.64s2.97,1.33,2.97,3.64c0,2.31-1.43,3.64-2.97,3.64S285.49,246.66,285.49,244.36z
			 M289.58,244.36c0-1.2-0.37-1.98-1.12-1.98s-1.12,0.78-1.12,1.98c0,1.2,0.37,1.98,1.12,1.98S289.58,245.56,289.58,244.36z"/>
		<path d="M292.53,238.79c0-0.63,0.44-1.08,1.05-1.08s1.05,0.45,1.05,1.08c0,0.63-0.44,1.08-1.05,1.08S292.53,239.41,292.53,238.79z
			 M292.67,240.88h1.81v6.95h-1.81V240.88z"/>
		<path d="M295.75,244.36c0-2.27,1.25-3.64,2.53-3.64c0.67,0,1.08,0.28,1.5,0.72l-0.07-1.05v-2.37h1.81v9.81h-1.48l-0.13-0.69h-0.04
			c-0.43,0.49-1.03,0.86-1.62,0.86C296.73,248,295.75,246.63,295.75,244.36z M299.71,245.69v-2.85c-0.32-0.33-0.68-0.44-1.01-0.44
			c-0.59,0-1.1,0.62-1.1,1.94c0,1.36,0.41,1.98,1.11,1.98C299.1,246.31,299.42,246.15,299.71,245.69z"/>
		<path d="M307.36,243.93h-2.17v-1.45h2.17v-2.58h1.33v2.58h2.17v1.45h-2.17v2.58h-1.33V243.93z"/>
		<path d="M236.73,272.22h0.83l0.09,0.98h0.03c0.57-0.64,1.18-1.15,2.01-1.15c1.26,0,1.83,0.93,1.83,2.66v4.31h-1.01v-4.17
			c0-1.27-0.34-1.81-1.13-1.81c-0.61,0-1.03,0.36-1.63,1.05v4.93h-1.01V272.22z"/>
		<path d="M243.01,275.63c0-2.27,1.31-3.58,2.77-3.58c1.47,0,2.77,1.31,2.77,3.58c0,2.25-1.3,3.56-2.77,3.56
			C244.32,279.2,243.01,277.89,243.01,275.63z M247.51,275.63c0-1.56-0.7-2.62-1.72-2.62s-1.72,1.06-1.72,2.62s0.7,2.6,1.72,2.6
			S247.51,277.19,247.51,275.63z"/>
		<path d="M250.12,272.22h0.83l0.09,0.98h0.03c0.57-0.64,1.18-1.15,2.01-1.15c1.26,0,1.83,0.93,1.83,2.66v4.31h-1.01v-4.17
			c0-1.27-0.34-1.81-1.13-1.81c-0.61,0-1.03,0.36-1.63,1.05v4.93h-1.01V272.22z"/>
		<path d="M256.35,275.07h2.82v0.88h-2.82V275.07z"/>
		<path d="M260.23,275.63c0-2.27,1.31-3.58,2.77-3.58c1.47,0,2.77,1.31,2.77,3.58c0,2.25-1.3,3.56-2.77,3.56
			C261.54,279.2,260.23,277.89,260.23,275.63z M264.73,275.63c0-1.56-0.7-2.62-1.72-2.62s-1.72,1.06-1.72,2.62s0.7,2.6,1.72,2.6
			S264.73,277.19,264.73,275.63z"/>
		<path d="M267.35,272.22h0.83l0.09,0.79h0.03c0.54-0.51,1.21-0.95,1.91-0.95c1.54,0,2.37,1.37,2.37,3.47
			c0,2.32-1.22,3.68-2.59,3.68c-0.55,0-1.11-0.29-1.66-0.79l0.03,1.19v2.31h-1.01V272.22z M271.53,275.53c0-1.5-0.45-2.51-1.58-2.51
			c-0.51,0-1.02,0.32-1.6,0.93v3.57c0.54,0.52,1.06,0.71,1.46,0.71C270.8,278.23,271.53,277.21,271.53,275.53z"/>
		<path d="M273.99,270.08c0-0.45,0.3-0.74,0.7-0.74s0.7,0.29,0.7,0.74c0,0.43-0.31,0.74-0.7,0.74S273.99,270.51,273.99,270.08z
			 M274.17,272.22h1.01v6.81h-1.01V272.22z"/>
		<path d="M276.76,275.63c0-2.27,1.3-3.58,2.77-3.58c1.46,0,2.77,1.31,2.77,3.58c0,2.25-1.3,3.56-2.77,3.56
			C278.06,279.2,276.76,277.89,276.76,275.63z M281.25,275.63c0-1.56-0.7-2.62-1.72-2.62c-1.03,0-1.73,1.06-1.73,2.62
			s0.7,2.6,1.73,2.6C280.55,278.24,281.25,277.19,281.25,275.63z"/>
		<path d="M283.68,270.08c0-0.45,0.3-0.74,0.7-0.74s0.7,0.29,0.7,0.74c0,0.43-0.31,0.74-0.7,0.74S283.68,270.51,283.68,270.08z
			 M283.87,272.22h1.01v6.81h-1.01V272.22z"/>
		<path d="M286.47,275.63c0-2.21,1.22-3.58,2.59-3.58c0.7,0,1.15,0.3,1.67,0.79l-0.04-1.17v-2.62h1.01v9.98h-0.83l-0.09-0.8h-0.03
			c-0.46,0.53-1.1,0.97-1.81,0.97C287.44,279.2,286.47,277.9,286.47,275.63z M290.69,277.3v-3.57c-0.51-0.52-0.97-0.71-1.46-0.71
			c-0.96,0-1.72,1.05-1.72,2.6c0,1.63,0.59,2.6,1.64,2.6C289.71,278.23,290.19,277.92,290.69,277.3z"/>
		<path d="M236.28,306.83c0-2.27,1.35-3.58,2.88-3.58c0.79,0,1.33,0.37,1.75,0.8l-0.52,0.76c-0.35-0.36-0.72-0.6-1.19-0.6
			c-1.08,0-1.88,1.06-1.88,2.62s0.75,2.6,1.85,2.6c0.55,0,1.03-0.3,1.4-0.68l0.44,0.77c-0.54,0.54-1.21,0.87-1.93,0.87
			C237.5,310.4,236.28,309.09,236.28,306.83z"/>
		<path d="M241.89,306.83c0-2.27,1.3-3.58,2.77-3.58c1.46,0,2.77,1.31,2.77,3.58c0,2.25-1.3,3.56-2.77,3.56
			C243.2,310.4,241.89,309.09,241.89,306.83z M246.39,306.83c0-1.56-0.7-2.62-1.72-2.62c-1.03,0-1.73,1.06-1.73,2.62
			s0.7,2.6,1.73,2.6C245.69,309.44,246.39,308.39,246.39,306.83z"/>
		<path d="M248.51,306.27h2.82v0.88h-2.82V306.27z"/>
		<path d="M252.46,308.46c0-1.48,1.12-2.23,3.67-2.54c0-0.88-0.26-1.72-1.23-1.72c-0.69,0-1.31,0.37-1.78,0.73l-0.4-0.79
			c0.55-0.41,1.39-0.89,2.35-0.89c1.46,0,2.08,1.1,2.08,2.8v4.18h-0.84l-0.09-0.81h-0.03c-0.57,0.54-1.24,0.98-1.98,0.98
			C253.21,310.4,252.46,309.69,252.46,308.46z M256.13,308.57v-1.89c-2,0.27-2.68,0.83-2.68,1.7c0,0.77,0.46,1.09,1.05,1.09
			C255.08,309.47,255.55,309.15,256.13,308.57z"/>
		<path d="M259.03,303.42h0.84l0.08,0.98h0.03c0.57-0.64,1.18-1.15,2-1.15c1.26,0,1.83,0.93,1.83,2.66v4.31h-1.01v-4.17
			c0-1.27-0.34-1.81-1.13-1.81c-0.61,0-1.04,0.36-1.63,1.05v4.93h-1.01V303.42z"/>
		<path d="M265.39,308.46c0-1.48,1.12-2.23,3.67-2.54c0-0.88-0.26-1.72-1.23-1.72c-0.69,0-1.31,0.37-1.78,0.73l-0.4-0.79
			c0.55-0.41,1.39-0.89,2.35-0.89c1.46,0,2.08,1.1,2.08,2.8v4.18h-0.84l-0.08-0.81h-0.03c-0.57,0.54-1.23,0.98-1.98,0.98
			C266.14,310.4,265.39,309.69,265.39,308.46z M269.06,308.57v-1.89c-2,0.27-2.68,0.83-2.68,1.7c0,0.77,0.46,1.09,1.05,1.09
			C268,309.47,268.48,309.15,269.06,308.57z"/>
		<path d="M271.96,308.86v-8.61h1.01v8.7c0,0.35,0.13,0.49,0.28,0.49c0.06,0,0.11,0,0.22-0.03l0.14,0.88
			c-0.14,0.06-0.32,0.11-0.58,0.11C272.27,310.4,271.96,309.85,271.96,308.86z"/>
		<path d="M274.64,311.54c0-0.58,0.33-1.13,0.88-1.54v-0.06c-0.3-0.22-0.53-0.58-0.53-1.12c0-0.57,0.35-1.02,0.66-1.26v-0.06
			c-0.4-0.35-0.77-1.02-0.77-1.83c0-1.49,1.03-2.43,2.24-2.43c0.33,0,0.63,0.07,0.84,0.17h2.08v0.89h-1.23
			c0.28,0.31,0.49,0.82,0.49,1.4c0,1.46-0.97,2.36-2.19,2.36c-0.29,0-0.62-0.08-0.89-0.23c-0.22,0.21-0.38,0.43-0.38,0.8
			c0,0.43,0.25,0.74,1.05,0.74h1.16c1.39,0,2.09,0.5,2.09,1.63c0,1.26-1.18,2.35-3.02,2.35
			C275.65,313.36,274.64,312.71,274.64,311.54z M279.15,311.18c0-0.63-0.42-0.84-1.21-0.84h-1.03c-0.23,0-0.51-0.03-0.78-0.1
			c-0.43,0.35-0.61,0.75-0.61,1.14c0,0.73,0.65,1.19,1.73,1.19C278.4,312.57,279.15,311.89,279.15,311.18z M278.38,305.68
			c0-0.99-0.57-1.59-1.27-1.59c-0.7,0-1.27,0.59-1.27,1.59c0,0.99,0.58,1.62,1.27,1.62C277.8,307.3,278.38,306.67,278.38,305.68z"/>
		<path d="M280.85,306.83c0-2.22,1.31-3.58,2.69-3.58c1.52,0,2.39,1.25,2.39,3.2c0,0.24-0.02,0.49-0.05,0.65h-4.03
			c0.07,1.44,0.85,2.38,1.99,2.38c0.57,0,1.04-0.21,1.49-0.54l0.36,0.76c-0.52,0.39-1.16,0.71-1.97,0.71
			C282.12,310.4,280.85,309.07,280.85,306.83z M285.03,306.28c0-1.36-0.54-2.11-1.47-2.11c-0.84,0-1.59,0.77-1.71,2.11H285.03z"/>
		<path d="M286.74,309.45l0.5-0.76c0.52,0.48,1.05,0.81,1.76,0.81c0.79,0,1.17-0.48,1.17-1.06c0-0.7-0.71-1.01-1.37-1.29
			c-0.84-0.35-1.78-0.82-1.78-1.97c0-1.09,0.77-1.93,2.06-1.93c0.74,0,1.4,0.35,1.86,0.77l-0.48,0.74
			c-0.41-0.35-0.83-0.61-1.36-0.61c-0.75,0-1.1,0.46-1.1,0.98c0,0.65,0.65,0.89,1.33,1.18c0.86,0.37,1.82,0.77,1.82,2.07
			c0,1.1-0.77,2.02-2.18,2.02C288.12,310.4,287.3,309.99,286.74,309.45z"/>
		<path d="M292.37,301.28c0-0.45,0.31-0.74,0.7-0.74c0.39,0,0.7,0.29,0.7,0.74c0,0.43-0.31,0.74-0.7,0.74
			C292.67,302.02,292.37,301.71,292.37,301.28z M292.55,303.42h1.01v6.81h-1.01V303.42z"/>
		<path d="M295.21,308.46c0-1.48,1.12-2.23,3.67-2.54c0-0.88-0.26-1.72-1.23-1.72c-0.69,0-1.31,0.37-1.78,0.73l-0.4-0.79
			c0.55-0.41,1.39-0.89,2.35-0.89c1.46,0,2.08,1.1,2.08,2.8v4.18h-0.84l-0.08-0.81h-0.03c-0.57,0.54-1.23,0.98-1.98,0.98
			C295.96,310.4,295.21,309.69,295.21,308.46z M298.88,308.57v-1.89c-2,0.27-2.68,0.83-2.68,1.7c0,0.77,0.46,1.09,1.05,1.09
			C297.82,309.47,298.3,309.15,298.88,308.57z"/>
	</g>
</g>
<g>
	<g>
		<path d="M121.87,376.33h1.86l2.09,4.54l0.79,2.01h0.05c-0.09-0.97-0.23-2.25-0.23-3.32v-3.23h1.73v9.13h-1.86l-2.09-4.55
			l-0.79-1.99h-0.05c0.09,1.01,0.23,2.23,0.23,3.31v3.24h-1.73V376.33z"/>
		<path d="M129.54,381.98c0-2.31,1.43-3.64,2.97-3.64s2.97,1.33,2.97,3.64c0,2.31-1.43,3.64-2.97,3.64S129.54,384.29,129.54,381.98z
			 M133.63,381.98c0-1.2-0.37-1.98-1.12-1.98c-0.75,0-1.12,0.78-1.12,1.98c0,1.2,0.37,1.98,1.12,1.98
			C133.26,383.96,133.63,383.19,133.63,381.98z"/>
		<path d="M136.72,378.51h1.48l0.13,0.88h0.04c0.51-0.56,1.13-1.05,1.96-1.05c1.33,0,1.89,1.07,1.89,2.8v4.31h-1.81v-4.05
			c0-1-0.24-1.31-0.76-1.31c-0.45,0-0.73,0.24-1.13,0.67v4.69h-1.81V378.51z"/>
		<path d="M143.5,381.18h3.02v1.46h-3.02V381.18z"/>
		<path d="M147.49,381.98c0-2.31,1.43-3.64,2.97-3.64s2.97,1.33,2.97,3.64c0,2.31-1.43,3.64-2.97,3.64S147.49,384.29,147.49,381.98z
			 M151.58,381.98c0-1.2-0.37-1.98-1.12-1.98c-0.75,0-1.12,0.78-1.12,1.98c0,1.2,0.37,1.98,1.12,1.98
			C151.21,383.96,151.58,383.19,151.58,381.98z"/>
		<path d="M154.67,378.51h1.48l0.13,0.68h0.04c0.48-0.49,1.1-0.85,1.74-0.85c1.48,0,2.38,1.39,2.38,3.53c0,2.38-1.25,3.75-2.57,3.75
			c-0.53,0-1.02-0.26-1.46-0.72l0.06,1.1v2.04h-1.81V378.51z M158.59,381.89c0-1.25-0.34-1.87-1.06-1.87
			c-0.37,0-0.69,0.19-1.05,0.62v2.85c0.33,0.33,0.67,0.44,0.97,0.44C158.08,383.94,158.59,383.33,158.59,381.89z"/>
		<path d="M161.58,376.41c0-0.63,0.44-1.08,1.05-1.08s1.05,0.45,1.05,1.08c0,0.63-0.44,1.08-1.05,1.08S161.58,377.04,161.58,376.41z
			 M161.72,378.51h1.81v6.95h-1.81V378.51z"/>
		<path d="M164.76,381.98c0-2.31,1.43-3.64,2.97-3.64s2.97,1.33,2.97,3.64c0,2.31-1.43,3.64-2.97,3.64S164.76,384.29,164.76,381.98z
			 M168.85,381.98c0-1.2-0.37-1.98-1.12-1.98c-0.75,0-1.12,0.78-1.12,1.98c0,1.2,0.37,1.98,1.12,1.98
			C168.48,383.96,168.85,383.19,168.85,381.98z"/>
		<path d="M171.8,376.41c0-0.63,0.44-1.08,1.05-1.08s1.05,0.45,1.05,1.08c0,0.63-0.44,1.08-1.05,1.08S171.8,377.04,171.8,376.41z
			 M171.94,378.51h1.81v6.95h-1.81V378.51z"/>
		<path d="M175.02,381.98c0-2.27,1.25-3.64,2.53-3.64c0.67,0,1.08,0.28,1.5,0.72l-0.07-1.05v-2.37h1.81v9.81h-1.48l-0.13-0.69h-0.04
			c-0.43,0.49-1.03,0.86-1.62,0.86C176,385.62,175.02,384.25,175.02,381.98z M178.99,383.32v-2.85c-0.32-0.33-0.68-0.44-1.01-0.44
			c-0.59,0-1.1,0.62-1.1,1.94c0,1.36,0.41,1.98,1.11,1.98C178.38,383.94,178.69,383.77,178.99,383.32z"/>
		<path d="M186.64,381.56h-2.17v-1.45h2.17v-2.58h1.33v2.58h2.17v1.45h-2.17v2.58h-1.33V381.56z"/>
		<path d="M193.18,375.51h1.18l-2.48,12.19h-1.18L193.18,375.51z"/>
		<path d="M195.25,381.25h8.77v1.32h-8.77V381.25z"/>
		<path d="M121.48,413.26c0-2.27,1.35-3.58,2.88-3.58c0.78,0,1.33,0.37,1.75,0.8l-0.52,0.76c-0.35-0.36-0.72-0.6-1.19-0.6
			c-1.08,0-1.88,1.06-1.88,2.62s0.75,2.6,1.85,2.6c0.55,0,1.03-0.3,1.4-0.68l0.44,0.77c-0.54,0.54-1.22,0.87-1.93,0.87
			C122.7,416.82,121.48,415.51,121.48,413.26z"/>
		<path d="M127.09,413.26c0-2.27,1.3-3.58,2.77-3.58c1.47,0,2.77,1.31,2.77,3.58c0,2.25-1.3,3.56-2.77,3.56
			C128.4,416.82,127.09,415.51,127.09,413.26z M131.59,413.26c0-1.56-0.7-2.62-1.72-2.62c-1.03,0-1.73,1.06-1.73,2.62
			s0.7,2.6,1.73,2.6C130.89,415.86,131.59,414.82,131.59,413.26z"/>
		<path d="M133.71,412.7h2.82v0.88h-2.82V412.7z"/>
		<path d="M137.66,414.89c0-1.48,1.12-2.23,3.67-2.54c0-0.88-0.26-1.72-1.23-1.72c-0.69,0-1.31,0.37-1.78,0.73l-0.4-0.79
			c0.55-0.41,1.39-0.89,2.35-0.89c1.46,0,2.08,1.1,2.08,2.8v4.18h-0.84l-0.09-0.81h-0.03c-0.57,0.54-1.23,0.98-1.98,0.98
			C138.41,416.82,137.66,416.12,137.66,414.89z M141.33,414.99v-1.89c-2,0.27-2.68,0.83-2.68,1.7c0,0.77,0.46,1.09,1.05,1.09
			C140.28,415.9,140.75,415.58,141.33,414.99z"/>
		<path d="M144.23,409.85h0.84l0.09,0.98h0.03c0.57-0.64,1.18-1.15,2.01-1.15c1.26,0,1.83,0.93,1.83,2.66v4.31h-1.01v-4.17
			c0-1.27-0.34-1.81-1.13-1.81c-0.61,0-1.03,0.36-1.63,1.05v4.93h-1.01V409.85z"/>
		<path d="M150.59,414.89c0-1.48,1.12-2.23,3.67-2.54c0-0.88-0.26-1.72-1.23-1.72c-0.69,0-1.31,0.37-1.78,0.73l-0.4-0.79
			c0.55-0.41,1.39-0.89,2.35-0.89c1.46,0,2.08,1.1,2.08,2.8v4.18h-0.84l-0.09-0.81h-0.03c-0.57,0.54-1.23,0.98-1.98,0.98
			C151.34,416.82,150.59,416.12,150.59,414.89z M154.26,414.99v-1.89c-2,0.27-2.68,0.83-2.68,1.7c0,0.77,0.46,1.09,1.05,1.09
			C153.21,415.9,153.68,415.58,154.26,414.99z"/>
		<path d="M157.16,415.29v-8.61h1.01v8.7c0,0.35,0.13,0.49,0.28,0.49c0.06,0,0.11,0,0.22-0.03l0.14,0.88
			c-0.14,0.06-0.32,0.11-0.58,0.11C157.47,416.82,157.16,416.27,157.16,415.29z"/>
		<path d="M159.84,417.96c0-0.58,0.33-1.13,0.88-1.54v-0.06c-0.3-0.22-0.53-0.58-0.53-1.12c0-0.57,0.35-1.02,0.66-1.26v-0.06
			c-0.4-0.35-0.77-1.02-0.77-1.83c0-1.49,1.03-2.43,2.24-2.43c0.33,0,0.63,0.07,0.84,0.17h2.09v0.89h-1.23
			c0.28,0.31,0.49,0.82,0.49,1.4c0,1.46-0.97,2.36-2.19,2.36c-0.29,0-0.62-0.08-0.89-0.23c-0.22,0.21-0.38,0.43-0.38,0.8
			c0,0.43,0.25,0.74,1.05,0.74h1.16c1.39,0,2.09,0.5,2.09,1.63c0,1.26-1.18,2.35-3.02,2.35
			C160.85,419.79,159.84,419.14,159.84,417.96z M164.35,417.61c0-0.63-0.42-0.84-1.21-0.84h-1.03c-0.23,0-0.51-0.03-0.78-0.1
			c-0.43,0.35-0.61,0.75-0.61,1.14c0,0.73,0.65,1.19,1.73,1.19C163.6,418.99,164.35,418.32,164.35,417.61z M163.58,412.1
			c0-0.99-0.57-1.59-1.27-1.59c-0.7,0-1.27,0.59-1.27,1.59c0,0.99,0.58,1.62,1.27,1.62S163.58,413.1,163.58,412.1z"/>
		<path d="M166.05,413.26c0-2.22,1.31-3.58,2.69-3.58c1.52,0,2.39,1.25,2.39,3.2c0,0.24-0.02,0.49-0.05,0.65h-4.03
			c0.07,1.44,0.85,2.38,1.99,2.38c0.57,0,1.04-0.21,1.49-0.54l0.36,0.76c-0.52,0.39-1.16,0.71-1.97,0.71
			C167.32,416.82,166.05,415.5,166.05,413.26z M170.23,412.7c0-1.36-0.54-2.11-1.47-2.11c-0.84,0-1.59,0.77-1.71,2.11H170.23z"/>
		<path d="M171.94,415.88l0.5-0.76c0.52,0.48,1.05,0.81,1.76,0.81c0.78,0,1.17-0.48,1.17-1.06c0-0.7-0.71-1.01-1.37-1.29
			c-0.84-0.35-1.78-0.82-1.78-1.97c0-1.09,0.77-1.93,2.06-1.93c0.74,0,1.4,0.35,1.86,0.77l-0.48,0.74
			c-0.41-0.35-0.83-0.61-1.36-0.61c-0.75,0-1.1,0.46-1.1,0.98c0,0.65,0.65,0.89,1.33,1.18c0.86,0.37,1.82,0.77,1.82,2.07
			c0,1.1-0.77,2.02-2.18,2.02C173.32,416.82,172.5,416.41,171.94,415.88z"/>
		<path d="M177.57,407.7c0-0.45,0.31-0.74,0.7-0.74c0.39,0,0.7,0.29,0.7,0.74c0,0.43-0.31,0.74-0.7,0.74
			C177.87,408.45,177.57,408.14,177.57,407.7z M177.75,409.85h1.01v6.81h-1.01V409.85z"/>
		<path d="M180.41,414.89c0-1.48,1.12-2.23,3.67-2.54c0-0.88-0.26-1.72-1.23-1.72c-0.69,0-1.31,0.37-1.78,0.73l-0.4-0.79
			c0.55-0.41,1.39-0.89,2.35-0.89c1.46,0,2.08,1.1,2.08,2.8v4.18h-0.84l-0.09-0.81h-0.03c-0.57,0.54-1.23,0.98-1.98,0.98
			C181.16,416.82,180.41,416.12,180.41,414.89z M184.08,414.99v-1.89c-2,0.27-2.68,0.83-2.68,1.7c0,0.77,0.46,1.09,1.05,1.09
			C183.03,415.9,183.5,415.58,184.08,414.99z"/>
	</g>
</g>
<g>
	<g>
		<path d="M236.15,212.18l1.04-1.42c0.57,0.57,1.31,0.95,1.97,0.95c0.76,0,1.13-0.34,1.13-0.88c0-0.58-0.46-0.76-1.16-1.09
			l-1.04-0.51c-0.83-0.38-1.62-1.16-1.62-2.49c0-1.51,1.19-2.72,2.85-2.72c0.92,0,1.89,0.42,2.58,1.2l-0.92,1.3
			c-0.53-0.46-1.03-0.71-1.66-0.71c-0.63,0-1.02,0.3-1.02,0.82c0,0.56,0.52,0.76,1.22,1.08l1.02,0.47c0.98,0.45,1.59,1.19,1.59,2.48
			c0,1.52-1.11,2.83-3.02,2.83C238.07,213.5,236.96,213.05,236.15,212.18z"/>
		<path d="M243.6,210.81V208h-0.83v-1.54l0.93-0.08l0.21-1.85h1.5v1.85h1.46V208h-1.46v2.78c0,0.79,0.31,1.1,0.79,1.1
			c0.2,0,0.42-0.07,0.58-0.13l0.29,1.5c-0.32,0.12-0.76,0.25-1.36,0.25C244.2,213.5,243.6,212.42,243.6,210.81z"/>
		<path d="M247.71,209.86c0-2.25,1.41-3.64,2.88-3.64c1.74,0,2.6,1.44,2.6,3.33c0,0.37-0.04,0.74-0.08,0.91h-3.65
			c0.16,1.01,0.77,1.47,1.58,1.47c0.46,0,0.88-0.16,1.32-0.46l0.6,1.24c-0.63,0.49-1.44,0.78-2.17,0.78
			C249.06,213.5,247.71,212.16,247.71,209.86z M251.64,209.1c0-0.76-0.29-1.31-1.01-1.31c-0.57,0-1.06,0.44-1.19,1.31H251.64z"/>
		<path d="M254.44,206.38h1.47l0.13,0.68h0.04c0.48-0.49,1.1-0.85,1.74-0.85c1.48,0,2.38,1.39,2.38,3.53c0,2.38-1.25,3.75-2.57,3.75
			c-0.53,0-1.02-0.26-1.46-0.72l0.06,1.1v2.04h-1.81V206.38z M258.35,209.77c0-1.25-0.34-1.87-1.06-1.87
			c-0.37,0-0.69,0.19-1.05,0.62v2.85c0.33,0.33,0.67,0.44,0.97,0.44C257.85,211.82,258.35,211.21,258.35,209.77z"/>
		<path d="M263.61,212.15c1.99-2.14,3.39-3.66,3.39-4.93c0-0.86-0.42-1.33-1.11-1.33c-0.56,0-1,0.44-1.39,0.9l-0.98-1.11
			c0.77-0.94,1.5-1.41,2.61-1.41c1.54,0,2.59,1.12,2.59,2.83c0,1.5-1.23,3.09-2.51,4.6c0.4-0.05,0.95-0.1,1.31-0.1h1.57v1.73h-5.49
			V212.15z"/>
		<path d="M270.4,207.67c0-0.73,0.46-1.3,1.09-1.3s1.09,0.57,1.09,1.3c0,0.73-0.46,1.29-1.09,1.29S270.4,208.4,270.4,207.67z
			 M270.4,212.21c0-0.73,0.46-1.3,1.09-1.3s1.09,0.57,1.09,1.3c0,0.73-0.46,1.29-1.09,1.29S270.4,212.94,270.4,212.21z"/>
	</g>
</g>
<g>
	<g>
		<path d="M121.35,347.92l1.04-1.42c0.57,0.57,1.31,0.95,1.97,0.95c0.76,0,1.13-0.34,1.13-0.88c0-0.58-0.46-0.76-1.16-1.09
			l-1.04-0.51c-0.83-0.38-1.62-1.16-1.62-2.49c0-1.51,1.19-2.72,2.85-2.72c0.92,0,1.89,0.42,2.58,1.2l-0.92,1.3
			c-0.53-0.46-1.03-0.71-1.66-0.71c-0.63,0-1.02,0.3-1.02,0.82c0,0.56,0.52,0.76,1.22,1.08l1.02,0.47c0.98,0.45,1.59,1.19,1.59,2.48
			c0,1.52-1.11,2.83-3.02,2.83C123.27,349.24,122.17,348.79,121.35,347.92z"/>
		<path d="M128.8,346.55v-2.81h-0.83v-1.54l0.93-0.08l0.21-1.85h1.5v1.85h1.46v1.62h-1.46v2.78c0,0.79,0.31,1.1,0.79,1.1
			c0.2,0,0.42-0.07,0.58-0.13l0.29,1.5c-0.32,0.12-0.76,0.25-1.36,0.25C129.4,349.24,128.8,348.16,128.8,346.55z"/>
		<path d="M132.91,345.6c0-2.25,1.41-3.64,2.88-3.64c1.74,0,2.6,1.44,2.6,3.33c0,0.37-0.04,0.74-0.08,0.91h-3.65
			c0.16,1.01,0.77,1.47,1.58,1.47c0.46,0,0.88-0.16,1.32-0.46l0.6,1.24c-0.63,0.49-1.44,0.78-2.16,0.78
			C134.26,349.24,132.91,347.9,132.91,345.6z M136.84,344.84c0-0.76-0.29-1.31-1.01-1.31c-0.57,0-1.06,0.44-1.19,1.31H136.84z"/>
		<path d="M139.64,342.13h1.48l0.13,0.68h0.04c0.48-0.49,1.1-0.85,1.74-0.85c1.48,0,2.38,1.39,2.38,3.53c0,2.38-1.25,3.75-2.57,3.75
			c-0.53,0-1.02-0.26-1.46-0.72l0.06,1.1v2.04h-1.81V342.13z M143.56,345.51c0-1.25-0.34-1.87-1.06-1.87
			c-0.37,0-0.69,0.19-1.05,0.62v2.85c0.33,0.33,0.67,0.44,0.97,0.44C143.05,347.56,143.56,346.95,143.56,345.51z"/>
		<path d="M149.21,347.41h1.71v-5.15h-1.46v-1.28c0.84-0.18,1.39-0.42,1.94-0.81h1.33v7.23h1.46v1.66h-4.98V347.41z"/>
		<path d="M155.6,343.41c0-0.73,0.46-1.3,1.09-1.3c0.63,0,1.09,0.57,1.09,1.3c0,0.73-0.46,1.29-1.09,1.29
			C156.07,344.7,155.6,344.14,155.6,343.41z M155.6,347.95c0-0.73,0.46-1.3,1.09-1.3c0.63,0,1.09,0.57,1.09,1.3
			c0,0.73-0.46,1.29-1.09,1.29C156.07,349.24,155.6,348.68,155.6,347.95z"/>
	</g>
</g>
<g>
	<g>
		<path d="M48.1,382.12h1.98l1.3,4.06c0.16,0.54,0.3,1.12,0.46,1.69h0.05c0.16-0.56,0.3-1.15,0.46-1.69l1.26-4.06h1.98v9.13h-1.65
			v-3.35c0-0.89,0.15-2.22,0.23-3.1h-0.05l-0.66,2.16l-1.13,3.5h-1.01l-1.14-3.5l-0.64-2.16h-0.05c0.09,0.88,0.23,2.21,0.23,3.1
			v3.35H48.1V382.12z"/>
		<path d="M57.18,382.21c0-0.63,0.44-1.08,1.05-1.08s1.05,0.45,1.05,1.08c0,0.63-0.44,1.08-1.05,1.08S57.18,382.83,57.18,382.21z
			 M57.32,384.3h1.81v6.95h-1.81V384.3z"/>
		<path d="M60.71,389.09v-7.65h1.81v7.74c0,0.44,0.18,0.58,0.33,0.58c0.07,0,0.12,0,0.22-0.03l0.22,1.52
			c-0.2,0.1-0.5,0.17-0.91,0.17C61.14,391.42,60.71,390.49,60.71,389.09z"/>
		<path d="M63.92,387.78c0-2.27,1.25-3.64,2.53-3.64c0.67,0,1.08,0.28,1.5,0.72l-0.07-1.05v-2.37h1.81v9.81h-1.48l-0.13-0.69h-0.04
			c-0.43,0.49-1.03,0.86-1.62,0.86C64.9,391.42,63.92,390.04,63.92,387.78z M67.88,389.11v-2.85c-0.32-0.33-0.68-0.44-1.01-0.44
			c-0.59,0-1.1,0.62-1.1,1.94c0,1.36,0.41,1.98,1.11,1.98C67.27,389.73,67.58,389.57,67.88,389.11z"/>
		<path d="M73.74,384.3h1.48l0.13,0.68h0.04c0.48-0.49,1.1-0.85,1.74-0.85c1.48,0,2.38,1.39,2.38,3.53c0,2.38-1.25,3.75-2.57,3.75
			c-0.53,0-1.02-0.26-1.46-0.72l0.06,1.1v2.04h-1.81V384.3z M77.66,387.69c0-1.25-0.34-1.87-1.06-1.87c-0.37,0-0.69,0.19-1.05,0.62
			v2.85c0.33,0.33,0.67,0.44,0.97,0.44C77.15,389.73,77.66,389.12,77.66,387.69z"/>
		<path d="M80.51,389.32c0-1.46,1.02-2.26,3.44-2.55c-0.04-0.61-0.3-1-0.96-1c-0.51,0-1.02,0.25-1.61,0.63l-0.64-1.35
			c0.77-0.54,1.65-0.91,2.61-0.91c1.56,0,2.42,1.01,2.42,3.14v3.97h-1.47l-0.13-0.71H84.1c-0.51,0.51-1.09,0.88-1.77,0.88
			C81.22,391.42,80.51,390.49,80.51,389.32z M83.95,389.23v-1.21c-1.29,0.2-1.71,0.62-1.71,1.14c0,0.45,0.27,0.67,0.7,0.67
			C83.35,389.82,83.63,389.59,83.95,389.23z"/>
		<path d="M87.13,382.21c0-0.63,0.44-1.08,1.05-1.08s1.05,0.45,1.05,1.08c0,0.63-0.44,1.08-1.05,1.08S87.13,382.83,87.13,382.21z
			 M87.27,384.3h1.81v6.95h-1.81V384.3z"/>
		<path d="M90.67,384.3h1.48l0.13,0.88h0.04c0.51-0.56,1.13-1.05,1.96-1.05c1.33,0,1.89,1.07,1.89,2.8v4.31h-1.81v-4.05
			c0-1-0.24-1.31-0.76-1.31c-0.45,0-0.73,0.24-1.13,0.67v4.69h-1.81V384.3z"/>
		<path d="M48.03,404.15c0-2.46,0.59-4.48,1.62-6.4l1.13,0.54c-0.9,1.81-1.3,3.88-1.3,5.86s0.4,4.05,1.3,5.86l-1.13,0.54
			C48.63,408.64,48.03,406.62,48.03,404.15z"/>
		<path d="M52.24,406.39h1.71v-5.15h-1.46v-1.28c0.84-0.18,1.39-0.42,1.94-0.81h1.33v7.23h1.46v1.66h-4.98V406.39z"/>
		<path d="M58.41,403.77h3.02v1.46h-3.02V403.77z"/>
		<path d="M62.23,406.95l0.83-1.3c0.48,0.52,1.06,0.9,1.71,0.9c0.76,0,1.27-0.38,1.27-1.06c0-0.78-0.4-1.26-2.1-1.26v-1.46
			c1.4,0,1.84-0.49,1.84-1.19c0-0.63-0.35-0.98-0.96-0.98c-0.56,0-0.98,0.29-1.46,0.78l-0.92-1.25c0.72-0.7,1.5-1.14,2.46-1.14
			c1.62,0,2.69,0.88,2.69,2.44c0,0.92-0.46,1.57-1.3,1.98v0.06c0.9,0.29,1.56,1.02,1.56,2.17c0,1.66-1.33,2.59-2.9,2.59
			C63.69,408.22,62.8,407.7,62.23,406.95z"/>
		<path d="M69.05,410.02c0.9-1.81,1.3-3.88,1.3-5.86s-0.4-4.05-1.3-5.86l1.13-0.54c1.03,1.92,1.62,3.94,1.62,6.4
			c0,2.47-0.59,4.48-1.62,6.4L69.05,410.02z"/>
	</g>
</g>
<g>
	<g>
		<path d="M48.1,225.4h1.98l1.3,4.06c0.16,0.54,0.3,1.12,0.46,1.69h0.05c0.16-0.56,0.3-1.15,0.46-1.69l1.26-4.06h1.98v9.13h-1.65
			v-3.35c0-0.89,0.15-2.22,0.23-3.1h-0.05l-0.66,2.16l-1.13,3.5h-1.01l-1.14-3.5l-0.64-2.16h-0.05c0.09,0.88,0.23,2.21,0.23,3.1
			v3.35H48.1V225.4z"/>
		<path d="M56.97,231.06c0-2.31,1.43-3.64,2.97-3.64s2.97,1.33,2.97,3.64c0,2.31-1.43,3.64-2.97,3.64S56.97,233.36,56.97,231.06z
			 M61.06,231.06c0-1.2-0.37-1.98-1.12-1.98c-0.75,0-1.12,0.78-1.12,1.98c0,1.2,0.37,1.98,1.12,1.98
			C60.69,233.04,61.06,232.26,61.06,231.06z"/>
		<path d="M63.83,231.06c0-2.27,1.25-3.64,2.53-3.64c0.67,0,1.08,0.28,1.5,0.72l-0.07-1.05v-2.37h1.81v9.81h-1.48L68,233.84h-0.04
			c-0.43,0.49-1.03,0.86-1.62,0.86C64.81,234.7,63.83,233.33,63.83,231.06z M67.79,232.39v-2.85c-0.32-0.33-0.68-0.44-1.01-0.44
			c-0.59,0-1.1,0.62-1.1,1.94c0,1.36,0.41,1.98,1.11,1.98C67.18,233.01,67.5,232.85,67.79,232.39z"/>
		<path d="M70.84,231.06c0-2.25,1.41-3.64,2.88-3.64c1.74,0,2.6,1.44,2.6,3.33c0,0.37-0.04,0.74-0.08,0.91h-3.65
			c0.16,1.01,0.77,1.47,1.58,1.47c0.46,0,0.88-0.16,1.32-0.46l0.6,1.24c-0.63,0.49-1.44,0.78-2.16,0.78
			C72.19,234.7,70.84,233.36,70.84,231.06z M74.77,230.3c0-0.76-0.29-1.31-1.01-1.31c-0.57,0-1.06,0.44-1.19,1.31H74.77z"/>
		<path d="M77.57,227.58h1.48l0.13,1.21h0.04c0.44-0.93,1.11-1.38,1.73-1.38c0.35,0,0.55,0.05,0.73,0.14l-0.3,1.78
			c-0.22-0.06-0.4-0.11-0.66-0.11c-0.46,0-1.02,0.34-1.34,1.29v4.03h-1.81V227.58z"/>
		<path d="M82.18,232.6c0-1.46,1.02-2.26,3.44-2.55c-0.04-0.61-0.3-1-0.96-1c-0.51,0-1.02,0.25-1.61,0.63l-0.64-1.35
			c0.77-0.54,1.65-0.91,2.61-0.91c1.56,0,2.42,1.01,2.42,3.14v3.97h-1.48l-0.13-0.71h-0.04c-0.51,0.51-1.09,0.88-1.77,0.88
			C82.89,234.7,82.18,233.77,82.18,232.6z M85.62,232.51v-1.21c-1.29,0.2-1.71,0.62-1.71,1.14c0,0.45,0.27,0.67,0.7,0.67
			C85.02,233.11,85.3,232.87,85.62,232.51z"/>
		<path d="M89.19,232v-2.81h-0.83v-1.54l0.93-0.08l0.21-1.85H91v1.85h1.46v1.62H91v2.78c0,0.79,0.31,1.1,0.79,1.1
			c0.2,0,0.42-0.07,0.58-0.13l0.29,1.5c-0.32,0.12-0.76,0.25-1.36,0.25C89.79,234.7,89.19,233.61,89.19,232z"/>
		<path d="M93.3,231.06c0-2.25,1.41-3.64,2.88-3.64c1.74,0,2.6,1.44,2.6,3.33c0,0.37-0.04,0.74-0.08,0.91h-3.65
			c0.16,1.01,0.77,1.47,1.58,1.47c0.46,0,0.88-0.16,1.32-0.46l0.6,1.24c-0.63,0.49-1.44,0.78-2.16,0.78
			C94.65,234.7,93.3,233.36,93.3,231.06z M97.24,230.3c0-0.76-0.29-1.31-1.01-1.31c-0.57,0-1.06,0.44-1.19,1.31H97.24z"/>
		<path d="M102.49,227.58h1.48l0.13,0.68h0.04c0.48-0.49,1.1-0.85,1.74-0.85c1.48,0,2.38,1.39,2.38,3.53c0,2.38-1.25,3.75-2.57,3.75
			c-0.53,0-1.02-0.26-1.46-0.72l0.06,1.1v2.04h-1.81V227.58z M106.41,230.97c0-1.25-0.34-1.87-1.06-1.87
			c-0.37,0-0.69,0.19-1.05,0.62v2.85c0.33,0.33,0.67,0.44,0.97,0.44C105.9,233.01,106.41,232.41,106.41,230.97z"/>
		<path d="M109.26,232.6c0-1.46,1.02-2.26,3.44-2.55c-0.04-0.61-0.3-1-0.96-1c-0.51,0-1.02,0.25-1.61,0.63l-0.64-1.35
			c0.77-0.54,1.65-0.91,2.61-0.91c1.56,0,2.42,1.01,2.42,3.14v3.97h-1.48l-0.13-0.71h-0.04c-0.51,0.51-1.09,0.88-1.77,0.88
			C109.97,234.7,109.26,233.77,109.26,232.6z M112.7,232.51v-1.21c-1.29,0.2-1.71,0.62-1.71,1.14c0,0.45,0.27,0.67,0.7,0.67
			C112.1,233.11,112.38,232.87,112.7,232.51z"/>
		<path d="M115.88,225.49c0-0.63,0.44-1.08,1.05-1.08s1.05,0.45,1.05,1.08c0,0.63-0.44,1.08-1.05,1.08S115.88,226.11,115.88,225.49z
			 M116.02,227.58h1.81v6.95h-1.81V227.58z"/>
		<path d="M119.42,227.58h1.48l0.13,0.88h0.04c0.51-0.56,1.13-1.05,1.96-1.05c1.33,0,1.89,1.07,1.89,2.8v4.31h-1.81v-4.05
			c0-1-0.24-1.31-0.76-1.31c-0.45,0-0.73,0.24-1.13,0.67v4.69h-1.81V227.58z"/>
		<path d="M48.03,247.44c0-2.46,0.59-4.48,1.62-6.4l1.13,0.54c-0.9,1.81-1.3,3.88-1.3,5.86s0.4,4.05,1.3,5.86l-1.13,0.54
			C48.63,251.92,48.03,249.9,48.03,247.44z"/>
		<path d="M55,246.19c0-0.56,0.04-1.43,0.07-1.99h-0.05c-0.2,0.5-0.42,1-0.64,1.5l-1.03,1.94h4.23v1.57h-5.96v-1.42l2.85-5.35h2.21
			v8.9H55V246.19z"/>
		<path d="M58.41,247.05h3.02v1.46h-3.02V247.05z"/>
		<path d="M66,244.16h-3.5v-1.73h5.44v1.27c-1.81,2.48-2.06,4.16-2.21,7.63h-1.82C64.06,248.37,64.53,246.49,66,244.16z"/>
		<path d="M69.05,253.3c0.9-1.81,1.3-3.88,1.3-5.86s-0.4-4.05-1.3-5.86l1.13-0.54c1.03,1.92,1.62,3.94,1.62,6.4
			c0,2.47-0.59,4.48-1.62,6.4L69.05,253.3z"/>
	</g>
</g>
<g>
	<g>
		<path d="M47.58,76.66l1.04-1.42c0.57,0.57,1.31,0.95,1.97,0.95c0.76,0,1.13-0.34,1.13-0.88c0-0.58-0.46-0.76-1.16-1.09l-1.04-0.51
			c-0.83-0.38-1.62-1.16-1.62-2.49c0-1.51,1.19-2.72,2.85-2.72c0.92,0,1.89,0.42,2.58,1.2l-0.92,1.3c-0.53-0.46-1.03-0.71-1.66-0.71
			c-0.63,0-1.02,0.3-1.02,0.82c0,0.56,0.52,0.76,1.22,1.08l1.02,0.47c0.98,0.45,1.59,1.19,1.59,2.48c0,1.52-1.11,2.83-3.02,2.83
			C49.5,77.98,48.4,77.53,47.58,76.66z"/>
		<path d="M54.43,74.34c0-2.25,1.41-3.64,2.88-3.64c1.74,0,2.6,1.44,2.6,3.33c0,0.37-0.04,0.74-0.08,0.91h-3.65
			c0.16,1.01,0.77,1.47,1.58,1.47c0.46,0,0.88-0.16,1.32-0.46l0.6,1.24c-0.63,0.49-1.44,0.78-2.16,0.78
			C55.78,77.98,54.43,76.64,54.43,74.34z M58.36,73.58c0-0.76-0.29-1.31-1.01-1.31c-0.57,0-1.06,0.44-1.19,1.31H58.36z"/>
		<path d="M60.51,70.86h1.82l0.79,3.28c0.16,0.69,0.32,1.41,0.47,2.14h0.05c0.16-0.73,0.32-1.45,0.47-2.14l0.79-3.28h1.73
			l-1.99,6.95h-2.08L60.51,70.86z"/>
		<path d="M67.24,74.34c0-2.25,1.41-3.64,2.88-3.64c1.74,0,2.6,1.44,2.6,3.33c0,0.37-0.04,0.74-0.08,0.91h-3.65
			c0.16,1.01,0.77,1.47,1.58,1.47c0.46,0,0.88-0.16,1.32-0.46l0.6,1.24c-0.63,0.49-1.44,0.78-2.16,0.78
			C68.58,77.98,67.24,76.64,67.24,74.34z M71.17,73.58c0-0.76-0.29-1.31-1.01-1.31c-0.57,0-1.06,0.44-1.19,1.31H71.17z"/>
		<path d="M73.96,70.86h1.48l0.13,1.21h0.04c0.44-0.93,1.11-1.38,1.73-1.38c0.35,0,0.55,0.05,0.73,0.14l-0.3,1.78
			c-0.22-0.06-0.4-0.11-0.66-0.11c-0.46,0-1.02,0.34-1.34,1.29v4.03h-1.81V70.86z"/>
		<path d="M78.51,74.34c0-2.25,1.41-3.64,2.88-3.64c1.74,0,2.6,1.44,2.6,3.33c0,0.37-0.04,0.74-0.08,0.91h-3.65
			c0.16,1.01,0.77,1.47,1.58,1.47c0.46,0,0.88-0.16,1.32-0.46l0.6,1.24c-0.63,0.49-1.44,0.78-2.16,0.78
			C79.85,77.98,78.51,76.64,78.51,74.34z M82.44,73.58c0-0.76-0.29-1.31-1.01-1.31c-0.57,0-1.06,0.44-1.19,1.31H82.44z"/>
		<path d="M87.69,70.86h1.48l0.13,0.68h0.04c0.48-0.49,1.1-0.85,1.74-0.85c1.48,0,2.38,1.39,2.38,3.53c0,2.38-1.25,3.75-2.57,3.75
			c-0.53,0-1.02-0.26-1.46-0.72l0.06,1.1v2.04h-1.81V70.86z M91.61,74.25c0-1.25-0.34-1.87-1.06-1.87c-0.37,0-0.69,0.19-1.05,0.62
			v2.85c0.33,0.33,0.67,0.44,0.97,0.44C91.1,76.29,91.61,75.69,91.61,74.25z"/>
		<path d="M94.46,75.88c0-1.46,1.02-2.26,3.44-2.55c-0.04-0.61-0.3-1-0.96-1c-0.51,0-1.02,0.25-1.61,0.63l-0.64-1.35
			c0.77-0.54,1.65-0.91,2.61-0.91c1.56,0,2.42,1.01,2.42,3.14v3.97h-1.47L98.1,77.1h-0.04c-0.51,0.51-1.09,0.88-1.77,0.88
			C95.17,77.98,94.46,77.05,94.46,75.88z M97.9,75.79v-1.21c-1.29,0.2-1.71,0.62-1.71,1.14c0,0.45,0.27,0.67,0.7,0.67
			C97.3,76.39,97.58,76.16,97.9,75.79z"/>
		<path d="M101.08,68.77c0-0.63,0.44-1.08,1.05-1.08s1.05,0.45,1.05,1.08c0,0.63-0.44,1.08-1.05,1.08S101.08,69.4,101.08,68.77z
			 M101.22,70.86h1.81v6.95h-1.81V70.86z"/>
		<path d="M104.62,70.86h1.48l0.13,0.88h0.04c0.51-0.56,1.13-1.05,1.96-1.05c1.33,0,1.89,1.07,1.89,2.8v4.31h-1.81v-4.05
			c0-1-0.24-1.31-0.76-1.31c-0.45,0-0.73,0.24-1.13,0.67v4.69h-1.81V70.86z"/>
		<path d="M48.03,90.72c0-2.46,0.59-4.48,1.62-6.4l1.13,0.54c-0.9,1.81-1.3,3.88-1.3,5.86s0.4,4.05,1.3,5.86l-1.13,0.54
			C48.63,95.2,48.03,93.18,48.03,90.72z"/>
		<path d="M51.89,92.34c0-1.07,0.6-1.74,1.34-2.18V90.1c-0.61-0.51-1.05-1.16-1.05-2.09c0-1.51,1.05-2.46,2.5-2.46
			c1.43,0,2.37,0.96,2.37,2.44c0,0.85-0.49,1.54-1.02,1.94v0.06c0.75,0.46,1.35,1.15,1.35,2.33c0,1.4-1.11,2.46-2.76,2.46
			C53.06,94.78,51.89,93.78,51.89,92.34z M55.7,92.25c0-0.79-0.67-1.08-1.65-1.55c-0.34,0.35-0.6,0.86-0.6,1.41
			c0,0.78,0.55,1.24,1.2,1.24C55.25,93.35,55.7,92.99,55.7,92.25z M55.58,88.13c0-0.69-0.35-1.15-0.95-1.15
			c-0.48,0-0.87,0.34-0.87,1.03c0,0.72,0.54,1.07,1.34,1.43C55.41,89.02,55.58,88.59,55.58,88.13z"/>
		<path d="M58.41,90.34h3.02v1.46h-3.02V90.34z"/>
		<path d="M62.82,92.95h1.71V87.8h-1.46v-1.28c0.84-0.18,1.39-0.42,1.94-0.81h1.33v7.23h1.46v1.66h-4.98V92.95z"/>
		<path d="M68.91,90.12c0-3.03,1.12-4.58,2.79-4.58c1.68,0,2.79,1.56,2.79,4.58c0,3.03-1.12,4.66-2.79,4.66
			C70.02,94.78,68.91,93.15,68.91,90.12z M72.79,90.12c0-2.43-0.47-2.98-1.08-2.98s-1.08,0.56-1.08,2.98c0,2.43,0.47,3.06,1.08,3.06
			S72.79,92.55,72.79,90.12z"/>
		<path d="M75.54,96.58c0.9-1.81,1.3-3.88,1.3-5.86s-0.4-4.05-1.3-5.86l1.13-0.54c1.03,1.92,1.62,3.94,1.62,6.4
			c0,2.47-0.59,4.48-1.62,6.4L75.54,96.58z"/>
	</g>
</g>
<g>
	<g>
		<path d="M29.08,13.02c-0.09,0-0.17-0.03-0.24-0.1c-0.13-0.13-0.13-0.34,0-0.48l5.32-5.32C34.3,7,34.51,7,34.64,7.13
			c0.13,0.13,0.13,0.34,0,0.48l-5.32,5.32C29.25,12.99,29.17,13.02,29.08,13.02z"/>
	</g>
	<g>
		<path d="M39.78,13.02c-0.09,0-0.17-0.03-0.24-0.1L34.22,7.6c-0.13-0.13-0.13-0.34,0-0.48c0.13-0.13,0.34-0.13,0.48,0l5.32,5.32
			c0.13,0.13,0.13,0.34,0,0.48C39.95,12.99,39.87,13.02,39.78,13.02z"/>
	</g>
	<g>
		<path d="M34.46,446.21c-0.19,0-0.34-4.62-0.34-10.32V18.53c0-5.7,0.15-10.32,0.34-10.32c0.19,0,0.34,4.62,0.34,10.32V435.9
			C34.79,441.59,34.64,446.21,34.46,446.21z"/>
	</g>
</g>
<g>
	<line style="fill:none;stroke:#000000;stroke-miterlimit:10;" x1="109.3" y1="447.13" x2="109.3" y2="319.71"/>
	<line style="fill:none;stroke:#000000;stroke-miterlimit:10;" x1="109.3" y1="319.71" x2="221.73" y2="319.71"/>
	<line style="fill:none;stroke:#000000;stroke-miterlimit:10;" x1="221.73" y1="319.71" x2="221.73" y2="189.48"/>
	<line style="fill:none;stroke:#000000;stroke-miterlimit:10;" x1="221.73" y1="189.48" x2="334.15" y2="189.48"/>
	<line style="fill:none;stroke:#000000;stroke-miterlimit:10;" x1="334.15" y1="189.48" x2="334.15" y2="8.21"/>
	<line style="fill:none;stroke:#000000;stroke-miterlimit:10;" x1="334.15" y1="8.21" x2="446.58" y2="8.21"/>
</g>
<g>
	<g>
		<path style="fill:none;stroke:#231F20;stroke-width:0.75;stroke-linecap:round;stroke-linejoin:round;stroke-miterlimit:10;" d="
			M158.28,304.32c-19.73-27.33-31.88-69.75,51.06-89.99"/>
	</g>
	<polygon points="206.52,211.37 207.08,213.05 207.63,214.73 207.63,214.73 208.2,216.41 208.76,218.09 214.28,212.59 	"/>
	<polygon points="160.64,302.01 159.18,303 157.7,303.98 157.7,303.98 156.24,304.98 154.78,305.97 161.55,309.81 	"/>
</g>
<g>
	<g>
		<path style="fill:none;stroke:#231F20;stroke-width:0.75;stroke-linecap:round;stroke-linejoin:round;stroke-miterlimit:10;" d="
			M266.38,164.58c-19.73-27.33-31.88-69.75,51.06-89.99"/>
	</g>
	<polygon points="314.61,71.63 315.17,73.3 315.73,74.99 315.73,74.99 316.29,76.66 316.85,78.34 322.38,72.84 	"/>
	<polygon points="268.74,162.26 267.27,163.25 265.8,164.23 265.8,164.23 264.34,165.23 262.87,166.22 269.65,170.06 	"/>
</g>
</svg>
