<?xml version="1.0" encoding="utf-8"?>
<!-- Generator: Adobe Illustrator 24.0.3, SVG Export Plug-In . SVG Version: 6.00 Build 0)  -->
<svg version="1.1" id="Layer_1" xmlns="http://www.w3.org/2000/svg" xmlns:xlink="http://www.w3.org/1999/xlink" x="0px" y="0px"
	 viewBox="0 0 453.54 155.28" style="enable-background:new 0 0 453.54 155.28;" xml:space="preserve">
<g>
	<g>
		<g>
			<path style="fill:#939598;" d="M121.06,54.68h-17.71c-0.01,0.1-0.02,0.19-0.03,0.29c-0.25,2.91-1.18,14.39-2.85,28.75
				c3.89,2.09,8.63,2.63,12.49,2.54c2.91-0.07,6.31-0.47,9.44-1.61c-0.58-9.93-1.03-19.79-1.28-28.86
				C121.14,55.78,121.12,55.37,121.06,54.68z"/>
			<path style="fill:#939598;" d="M102.98,72.14c2.7-6.48,7.09-5.62,8.76-5.29c1.68,0.34,2.72,1.08,3.56,2.98
				c0.77,1.74,1.03,3.35,1.19,5.18c0.21,2.53,0.39,5.06,0.63,7.59c0.1,1.08,0.28,2.19,0.31,3.28c1.66-0.25,3.36-0.64,4.99-1.24
				c-0.58-9.93-1.03-19.79-1.28-28.86c0,0-0.02-0.41-0.07-1.11h-17.71c-0.01,0.1-0.02,0.19-0.03,0.29
				c-0.25,2.91-1.18,14.39-2.85,28.75c0,0,0,0,0,0C101.21,79.67,101.39,75.97,102.98,72.14z"/>
		</g>
		<g>
			<path style="fill:#939598;" d="M125.35,11.95c-1.7-2.87-6.83-2.31-7.03,4.33c-0.12,4.24,0.11,12.16-0.33,17.88
				c-0.17-0.09-6.8,0.26-8.95,1.1c-1,0.39-1.95,0.81-2.88,1.27c-5.45,2.66-8.42,7.45-8.67,13.63c-0.21,5.07,1.63,11.55,6.18,14.3
				c5.05,3.06,11.02,1.73,15.95-0.86c6.67-3.5,6.38-11.53,6.19-18.04c-0.07-2.38,0.22-4.56,0.21-6.94
				c-0.03-6.1,0.36-12.39,0.43-18.49C126.48,17.47,126.6,14.07,125.35,11.95z"/>
		</g>
		<g>
			<path style="fill:#939598;" d="M125.35,11.95c-1.7-2.87-6.83-2.31-7.03,4.33c-0.12,4.24-0.45,12.13-0.89,17.85
				c-0.18-0.1-6.24,0.29-8.38,1.12c-1,0.39-1.95,0.81-2.88,1.27c-5.45,2.66-8.42,7.45-8.67,13.63c-0.21,5.07,1.63,11.55,6.18,14.3
				c5.05,3.06,11.02,1.73,15.95-0.86c6.67-3.5,6.38-11.53,6.19-18.04c-0.07-2.38,0.22-4.56,0.21-6.94
				c-0.03-6.1,0.36-12.39,0.43-18.49C126.48,17.47,126.6,14.07,125.35,11.95z"/>
		</g>
		<g style="opacity:0.6;">
			<path style="fill:#939598;" d="M126.24,28.18c-0.02,0.09-0.04,0.19-0.06,0.28c-0.4,1.72-1.55,7.02-4.45,5.57
				c-3.43-1.71-3.23-6.93-3.28-10.13c-0.05-2.83-0.18-5.68-0.06-8.51c-0.03,0.29-0.05,0.58-0.06,0.89
				c-0.12,4.24-0.45,12.13-0.89,17.85c-0.18-0.1-6.24,0.29-8.38,1.12c-1,0.39-1.95,0.81-2.88,1.27c-5.45,2.66-8.42,7.45-8.67,13.63
				c-0.21,5.07,1.63,11.55,6.18,14.3c5.05,3.06,11.02,1.73,15.95-0.86c6.67-3.5,6.38-11.53,6.19-18.04
				c-0.07-2.38,0.22-4.56,0.21-6.94C126.01,35.17,126.13,31.67,126.24,28.18z"/>
		</g>
		<g>
			<g>
				<path style="fill:#939598;" d="M95.86,35.8c0,0-3.36,2.08-0.17,9.05c3.19,6.97,5.34,7.3,7.29,6.33c0,0,2.68-0.68,1.93-3.18
					c-0.75-2.5-2.88-10.95-4.04-12.21C98.62,33.34,95.86,35.8,95.86,35.8z"/>
				<path style="fill:#939598;" d="M104.91,48c-0.75-2.5-2.88-10.95-4.04-12.21c-0.38-0.41-0.77-0.67-1.16-0.84
					c0.81,1.28,0.5,3.5,0.86,4.79c0.54,1.92,1.3,3.75,2.14,5.56c0.47,1,1.1,2.13,1.08,3.28c-0.03,2.1-1.8,2.9-3.62,2.65
					c1.02,0.56,1.93,0.39,2.8-0.05C102.98,51.18,105.67,50.5,104.91,48z"/>
				<path style="fill:#939598;" d="M96.23,35.67c0,0-2.61,1.59-1.27,6.3c1.34,4.71,3.39,7.14,3.39,7.14S92.32,39.6,96.23,35.67z"/>
			</g>
			<g>
				<path style="fill:#939598;" d="M103.37,30.51c0,0-4.23,2.06-1.83,9.23c2.66,7.93,4.41,9.82,6.68,9.12c0,0,3.04-0.56,2.76-3.6
					c-0.27-2.84-1.43-12.06-2.46-13.62C106.52,28.59,103.37,30.51,103.37,30.51z"/>
				<path style="fill:#939598;" d="M108.52,31.63c-0.17-0.26-0.35-0.47-0.54-0.66c0.35,1.4,0.17,3.09,0.16,4.34
					c-0.04,3.48,2.29,6.62,1.93,10.11c-0.19,1.89-1.38,3.6-3.5,2.95c-0.49-0.15-0.95-0.36-1.38-0.63c1,1.2,1.96,1.45,3.03,1.12
					c0,0,3.04-0.56,2.76-3.6C110.71,42.41,109.54,33.19,108.52,31.63z"/>
				<path style="fill:#939598;" d="M104.06,30.39c0,0-4.14,1.88-2.61,8.15c1.52,6.19,3.45,8.29,3.45,8.29S97.95,34.36,104.06,30.39z
					"/>
			</g>
			<g>
				<path style="fill:#939598;" d="M111.58,28.07c0,0-3.64,1.39-2.26,8.49c1.59,8.22,2.96,9.91,5.32,9.59c0,0,3.01,0.23,3.1-2.62
					c0.09-2.85-0.09-12.06-0.85-13.76C115.41,26.45,111.58,28.07,111.58,28.07z"/>
				<path style="fill:#939598;" d="M116.89,29.77c-0.35-0.8-0.84-1.3-1.38-1.62c0.39,0.51,0.67,1.16,0.79,1.96
					c0.53,3.49,0.17,7.25,0.15,10.78c-0.01,2.1-0.38,4.65-2.91,4.92c-0.31,0.03-0.6-0.01-0.87-0.1c0.58,0.44,1.22,0.54,1.97,0.44
					c0,0,3.01,0.23,3.1-2.62C117.83,40.69,117.65,31.48,116.89,29.77z"/>
				<path style="fill:#939598;" d="M113.45,27.81c0,0-4.44,0.06-4.11,6.4C109.33,34.21,109.13,29.21,113.45,27.81z"/>
			</g>
		</g>
		<path style="fill:#939598;" d="M128.04,54.53c0,0,1.35-8.23-0.72-12.8c-1.86-4.11-4.57-6.5-9.67-7.19
			c-3.16-0.43-12.77,0.64-12.7,4.74c0.1,5.87,11.26,3.56,12.22,6.35c0,0-10.25,4.67-8.81,15.25c0,0,0.48,5.77,5.97,5.49
			C119.82,66.08,126.5,63.19,128.04,54.53z"/>
		<path style="fill:#939598;" d="M113.93,48.89c1.42-1.13,2.99-1.98,4.6-2.76c-0.71-0.89-1.51-1.66-2.64-2.05
			c-1.49-0.51-3.01-0.8-4.54-1.14c-1.63-0.36-3.85-0.59-5.1-1.84c-1.63-1.63-0.96-3.23,0.37-4.46c-1.03,0.69-1.68,1.55-1.66,2.63
			c0.1,5.87,11.26,3.56,12.22,6.35c0,0-9.78,4.46-8.88,14.54c-0.06-1.5,0.17-3,0.64-4.28C109.9,53.23,111.7,50.66,113.93,48.89z"/>
		<path style="fill:#939598;" d="M117.22,35.08c2.43,0.3,4.84,1.36,6.68,2.98c3.13,2.76,4.22,6.25,4.57,9.98
			c-0.05-2.19-0.34-4.52-1.14-6.31c-1.86-4.11-4.57-6.5-9.67-7.19c-1.57-0.21-4.73-0.06-7.5,0.66c-0.03,0.03-0.07,0.06-0.12,0.08
			c-0.45,0.16-0.99,0.38-1.53,0.65C111.4,35.39,114.24,34.71,117.22,35.08z"/>
		<path style="fill:#939598;" d="M107.13,36.95c-0.23,0.14-0.43,0.29-0.62,0.44c-0.29,0.37-0.64,0.89-0.75,1.35
			c1.45-2.07,4.17-2.47,4.17-2.47c6.53-2.11,13.39,1.76,13.39,1.76C116.52,33.21,109.56,35.45,107.13,36.95z"/>
		<path style="fill:#939598;" d="M126.06,23.08c0.05-1.37,0.11-2.86,0.16-4.39c0.19-5.58-1.69-8.37-4.19-7.89
			c-2.5,0.48-3.13,4.04-3.13,4.04s2.02-5.31,5.01-2.93c1.58,1.26,2,6.23,2.06,10.56C126,22.67,126.02,22.87,126.06,23.08z"/>
	</g>
	<path style="opacity:0.7;fill:#939598;" d="M97.83,50.21c0,0,1.32,12.62,6.66,14.08C104.49,64.3,100.91,61.73,97.83,50.21z"/>
</g>
<g>
	<g>
		<path style="fill:#231F20;" d="M31.89,106.33c0-5.16,1.9-7.86,4.89-7.86c2.99,0,4.89,2.72,4.89,7.86c0,5.16-1.9,7.99-4.89,7.99
			C33.79,114.32,31.89,111.49,31.89,106.33z M39.18,106.33c0-4.32-1-5.69-2.4-5.69c-1.39,0-2.4,1.37-2.4,5.69s1.01,5.82,2.4,5.82
			C38.17,112.15,39.18,110.65,39.18,106.33z"/>
	</g>
</g>
<g>
	<g>
		<path style="fill:#231F20;" d="M107.28,111.77h3.22v-10.02h-2.66v-1.74c1.43-0.28,2.42-0.67,3.32-1.26h1.95v13.02h2.83v2.26h-8.67
			V111.77z"/>
	</g>
</g>
<g>
	<g>
		<path style="fill:#231F20;" d="M180.31,112.42c4-4.12,6.51-6.8,6.51-9.13c0-1.61-0.83-2.63-2.38-2.63c-1.11,0-2.04,0.78-2.81,1.69
			l-1.45-1.52c1.31-1.51,2.64-2.37,4.6-2.37c2.75,0,4.56,1.85,4.56,4.68c0,2.72-2.37,5.51-5.25,8.69c0.76-0.08,1.71-0.15,2.42-0.15
			h3.52v2.34h-9.73V112.42z"/>
	</g>
</g>
<g>
	<g>
		<path style="fill:#231F20;" d="M334.23,104.5c0-0.89,0.07-2.29,0.12-3.18h-0.09c-0.36,0.8-0.77,1.56-1.18,2.37l-2.62,4.26h8.03
			v2.14h-10.61v-1.88l5.71-9.47h3.09v15.28h-2.45V104.5z"/>
	</g>
</g>
<g>
	<g>
		<path style="fill:#231F20;" d="M253.79,112.16l1.24-1.77c0.87,0.92,1.97,1.67,3.42,1.67c1.58,0,2.66-0.86,2.66-2.3
			c0-1.57-0.96-2.59-4.23-2.59v-2.02c2.82,0,3.74-1.04,3.74-2.44c0-1.28-0.8-2.04-2.13-2.04c-1.11,0-2.01,0.57-2.88,1.44l-1.35-1.71
			c1.22-1.15,2.61-1.93,4.34-1.93c2.75,0,4.65,1.46,4.65,4.04c0,1.7-0.95,2.86-2.51,3.51v0.1c1.7,0.47,3,1.77,3,3.8
			c0,2.78-2.29,4.41-5.06,4.41C256.35,114.32,254.8,113.37,253.79,112.16z"/>
	</g>
</g>
<g>
	<g>
		<path style="fill:#231F20;" d="M401.56,112.19l1.21-1.77c0.86,0.87,1.91,1.63,3.37,1.63c1.61,0,2.78-1.09,2.78-2.93
			c0-1.81-1.07-2.85-2.65-2.85c-0.92,0-1.44,0.26-2.3,0.86l-1.24-0.85l0.43-7.54h7.7v2.34h-5.43l-0.31,3.69
			c0.61-0.32,1.16-0.49,1.9-0.49c2.47,0,4.53,1.49,4.53,4.76c0,3.35-2.41,5.26-5.07,5.26C404.15,114.32,402.63,113.33,401.56,112.19
			z"/>
	</g>
</g>
<g>
	<g>
		<path style="fill:#939598;" d="M414.6,52.41h-17.67c-0.01,0.1-0.02,0.19-0.03,0.29c-0.25,2.91-1.18,14.36-2.84,28.7
			c3.88,2.08,8.61,2.62,12.47,2.53c2.9-0.07,6.3-0.46,9.42-1.61c-0.57-9.91-1.03-19.75-1.27-28.8
			C414.68,53.51,414.66,53.1,414.6,52.41z"/>
		<path style="fill:#939598;" d="M396.56,69.83c2.69-6.47,7.08-5.61,8.74-5.28c1.68,0.34,2.71,1.08,3.56,2.98
			c0.77,1.73,1.03,3.35,1.18,5.17c0.21,2.52,0.39,5.05,0.62,7.57c0.1,1.08,0.28,2.19,0.31,3.27c1.66-0.25,3.36-0.64,4.98-1.23
			c-0.57-9.91-1.03-19.75-1.27-28.8c0,0-0.02-0.41-0.07-1.1h-17.67c-0.01,0.1-0.02,0.19-0.03,0.29c-0.25,2.91-1.18,14.36-2.84,28.7
			c0,0,0,0,0,0C394.79,77.35,394.97,73.66,396.56,69.83z"/>
	</g>
	<g>
		<path style="fill:#939598;" d="M387.58,28.83c0.93,2.81,2.36,8.82,2.98,12.34c0.51,2.91,0.78,12.08,2.06,14.74
			c5.33,11.09,19.31,9.24,25.78,0.53c7.2-9.7,14.31-10.08,17.48-12.19c4.29-2.86-0.97-5.32-3.55-5.09
			c-3.71,0.34-6.73,4.72-10.72,2.65c-0.93-0.48-2.01-1.97-2.2-3c-0.24-1.38,0.41-7.35,0.55-8.91c0.4-4.49,1.23-8.95,1.24-13.47
			c0-1.33,0.12-3.18-0.78-4.31c-2.08-2.59-5.47-0.58-5.76,2.16c-0.57,5.38-2.03,16.36-3.31,21.49c-0.05-2.1-0.54-14.05-0.65-16.12
			c-0.1-2.14-0.13-10.41-3.82-10.12c-2.39,0.19-3.62,2.45-3.1,10.95c0.33,5.26,0.36,11.31,0.38,14.71
			c-1.31-5.93-2.17-10.7-2.63-13.71c-2.38-15.41-8.22-8.3-7.49-4.1c1.3,7.42,2.4,12.55,3.27,19.37c-2.59-6.41-4.35-15.94-6.94-17.57
			C388.29,17.88,383.93,17.74,387.58,28.83z"/>
		<path style="fill:#939598;" d="M436.18,40.17c0.42,0.81,0.4,1.76-0.31,2.67c-1.62,2.09-5.04,2.82-7.41,3.69
			c-3.4,1.26-6.05,3.07-8.47,5.76c-0.83,0.92-1.65,1.85-2.5,2.75c-0.49,0.62-0.98,1.25-1.51,1.83c-1.63,1.79-3.58,3.38-5.88,4.22
			c-4.43,1.61-10.06,0.97-13.73-2.14c-1.86-1.58-3.23-3.68-3.88-6.05c-0.72-2.66-1.22-5.89-0.81-8.64c0.58-3.95,3.95-5.86,7.54-6.48
			c0.51-0.16,1.03-0.3,1.55-0.42c3.33-0.75,7.36-1.2,10.67-0.07c1.02,0.35,2.92,1,3.14,2.27c0.32,1.85-1.81,2.31-3,3.09
			c-4.51,2.97-9.47,6.82-10.52,12.35c3.24-6.17,8.81-10.53,16.02-10.83c2.42-0.1,4.75-0.11,7.02-1.05c2.15-0.89,4.01-2.24,6.1-3.24
			c0.5-0.24,1.12-0.5,1.81-0.71c-3.56,0.56-6.52,4.62-10.38,2.61c-0.93-0.48-2.01-1.97-2.2-3c-0.24-1.38,0.41-7.35,0.55-8.91
			c0.03-0.4,0.08-0.79,0.12-1.19c-0.13,0.44-0.27,0.88-0.42,1.31c-0.71,2.1-2,5.68-4.74,5.59c-1.94-0.06-2.52-2.48-2.68-4.12
			c-0.3,1.64-0.6,3.12-0.9,4.28c-0.02-0.71-0.09-2.56-0.17-4.77c-0.3,1-0.75,1.94-1.47,2.56c-1.55,1.31-3.76,0.44-4.62-1.27
			c-0.42-0.83-0.73-1.71-0.97-2.62c0.03,2.14,0.04,4.07,0.05,5.51c-0.38-1.7-0.71-3.3-1.02-4.8c-0.33,2.97-1.42,5.33-4.19,4.43
			c-1.02-0.33-1.73-1.28-2.24-2.29c0.21,1.35,0.41,2.74,0.59,4.22c-0.48-1.17-0.92-2.44-1.35-3.76c-0.05,1.5-0.48,2.83-1.75,3.35
			c-2.36,0.98-4.13-0.8-5.35-2.95c0.67,2.67,1.33,5.66,1.7,7.77c0.51,2.91,0.78,12.08,2.06,14.74c5.33,11.09,19.31,9.24,25.78,0.53
			c7.2-9.7,14.31-10.08,17.48-12.19C438.32,42.62,437.66,41.12,436.18,40.17z"/>
		<path style="fill:#939598;" d="M400.9,55.57c0,0,4.01-12.7,16.31-12.73C417.21,42.84,405.73,44.72,400.9,55.57z"/>
	</g>
	<path style="fill:#939598;" d="M394.06,38.05c0,0,10.59-4.68,21.1-1.22C415.16,36.83,405.65,35.17,394.06,38.05z"/>
	<path style="fill:#939598;" d="M392,46.07c0,0-0.67,12.2,8.64,14.69C400.64,60.76,393.24,57.88,392,46.07z"/>
	<path style="fill:#939598;" d="M388.77,31.06c-1.04-3.9-2.36-10.51,0.26-11.87c0,0-2.96-0.16-2.23,4.25
		c0.42,2.5,1.27,5.54,1.93,7.71C388.74,31.12,388.76,31.09,388.77,31.06z"/>
	<path style="fill:#939598;" d="M395.88,24.78c-0.67-3.98-1.34-10.69,1.39-11.79c0,0-2.94-0.44-2.62,4.02
		c0.18,2.53,0.74,5.64,1.19,7.86C395.86,24.84,395.87,24.81,395.88,24.78z"/>
	<path style="fill:#939598;" d="M404.4,21.73c-0.05-4.03,0.29-10.76,3.16-11.44c0,0-2.83-0.88-3.2,3.57
		c-0.2,2.52-0.13,5.68-0.02,7.95C404.37,21.78,404.39,21.76,404.4,21.73z"/>
	<path style="fill:#939598;" d="M414.65,23.01c0.31-4.02,1.26-10.7,4.18-11.11c0,0-2.74-1.13-3.51,3.27
		c-0.43,2.49-0.64,5.65-0.74,7.91C414.61,23.06,414.63,23.03,414.65,23.01z"/>
	<path style="fill:#939598;" d="M424.34,43.65c3.61-1.79,9.83-4.39,11.68-2.1c0,0-0.44-2.94-4.6-1.34
		c-2.37,0.91-5.18,2.35-7.18,3.42C424.27,43.64,424.3,43.65,424.34,43.65z"/>
</g>
<g>
	<g>
		<g>
			<path style="fill:#939598;" d="M343.88,54.11h-17.67c-0.01,0.1-0.02,0.19-0.03,0.29c-0.25,2.91-1.18,14.36-2.84,28.7
				c3.88,2.08,8.61,2.62,12.47,2.53c2.9-0.07,6.3-0.46,9.42-1.61c-0.57-9.91-1.03-19.75-1.27-28.8
				C343.96,55.22,343.94,54.8,343.88,54.11z"/>
			<path style="fill:#939598;" d="M325.84,71.54c2.69-6.47,7.08-5.61,8.74-5.28c1.68,0.34,2.71,1.08,3.55,2.98
				c0.77,1.73,1.03,3.35,1.19,5.17c0.21,2.52,0.39,5.05,0.63,7.57c0.1,1.08,0.27,2.19,0.31,3.27c1.66-0.25,3.36-0.64,4.98-1.23
				c-0.57-9.91-1.03-19.75-1.27-28.8c0,0-0.02-0.41-0.08-1.1h-17.67c-0.01,0.1-0.02,0.19-0.03,0.29c-0.25,2.91-1.18,14.36-2.84,28.7
				c0,0,0,0,0,0C324.07,79.05,324.25,75.37,325.84,71.54z"/>
		</g>
		<g>
			<path style="fill:#939598;" d="M347.68,59.68c0.68-2.37,1.53-5.49,1.63-7.97c0.14-3.3,2.09-30.81,1.82-35.82
				c-0.19-3.65-6.05-4.9-6.82,0.77c-0.73,5.36-1.88,16.28-3.17,21.41c-0.05-2.1-0.57-14.93-0.67-17c-0.1-2.14,0-10.32-4.7-9.79
				c-2.38,0.27-2.9,4.27-2.62,10.9c0.23,5.26,0.49,12.39,0.51,15.8c-1.31-5.93-2.5-12.48-3.07-15.46c-0.41-2.13-0.72-3.96-1.25-5.28
				c-2.4-5.95-8.08-2.49-6.53,3.94c1.86,7.72,2.81,12.17,4.18,19.08c-2.59-6.41-4.39-14.31-7.25-17.93
				c-1.18-1.49-6.19-1.22-3.65,8.07c0.58,2.11,2.8,8.83,3.46,13.83c0.48,3.65,1.57,10.58,2.45,13.39
				C325.5,68.9,341.03,67.89,347.68,59.68z"/>
		</g>
		<g>
			<path style="fill:#939598;" d="M350.17,30.21c-0.4,1.66-0.72,3.4-1.33,5c-0.4,1.06-0.81,2.08-1.88,2.6
				c-2.05,0.98-3.93-1.63-4.33-3.31c-0.24-1-0.28-2.01-0.27-3.01c-0.39,2.56-0.8,4.89-1.22,6.59c-0.01-0.52-0.06-1.69-0.11-3.2
				c-0.44,1.28-1.18,2.29-2.46,2.53c-2.81,0.54-4.28-1.76-5.01-4.19c0.05,1.88,0.09,3.55,0.09,4.76c-0.38-1.73-0.75-3.51-1.1-5.24
				c-0.08,1.68-0.27,3.67-1.54,4.87c-1.82,1.7-3.97-0.49-5-2.17c0.31,1.51,0.63,3.09,0.97,4.83c-0.81-2-1.54-4.15-2.25-6.27
				c0.46,2.51,0.6,5.56-1.56,6.34c-2.51,0.91-4.27-1.64-5.22-3.58c-0.03-0.06-0.05-0.12-0.08-0.18c0.68,2.48,1.35,5.26,1.66,7.65
				c0.48,3.65,1.57,10.58,2.45,13.39c3.5,11.28,19.03,10.27,25.69,2.06c0.68-2.37,1.53-5.49,1.63-7.97
				c0.09-2.15,0.95-14.52,1.46-24.3C350.59,28.35,350.39,29.29,350.17,30.21z"/>
		</g>
		<path style="fill:#939598;" d="M323.16,41.57c0,0,12.1-4.53,22.79-1.67C345.95,39.9,334.58,38.05,323.16,41.57z"/>
		<path style="fill:#939598;" d="M339.16,48.43c-0.39,1.1-7.8,7.67-8.68,10.93c-0.7,2.6-0.22,5.54,2.59,6.49
			c2.38,0.8,7.29,0.52,9.63-0.31c5.46-1.95,8.48-8.59,8.36-14.36c-0.12-6.13-4.47-11.22-10.89-11.86
			c-3.14-0.31-12.5-1.23-11.83,2.74c0.38,2.25,3.35,3.03,5.18,3.59c1.6,0.49,3.5,0.49,4.96,1.39
			C339.18,47.49,339.32,47.96,339.16,48.43z"/>
		<path style="fill:#939598;" d="M330.48,59.36c-0.37,1.38-0.41,2.85,0.05,4.07c-0.2-4.15,5.05-8.81,7.3-11.49
			c1.09-1.29,3.1-3.61,1.29-5.12c-1.45-1.21-3.2-1.57-5.01-1.9c-2.05-0.38-4.32-0.81-5.63-2.31c0.73,1.84,3.35,2.54,5.03,3.06
			c1.6,0.49,3.5,0.49,4.96,1.39c0.71,0.44,0.86,0.91,0.69,1.38C338.76,49.52,331.36,56.1,330.48,59.36z"/>
		<path style="fill:#939598;" d="M331.77,39.61c2.72-0.26,5.64-0.18,8.33,0.36c4.26,0.86,8.49,3.08,10.18,7.33
			c0.21,0.52,0.38,1.05,0.51,1.58c-1.02-5.06-5.04-8.99-10.63-9.55c-2.47-0.25-8.76-0.86-11.03,0.81
			C330.01,39.82,330.98,39.68,331.77,39.61z"/>
		<path style="opacity:0.7;fill:#939598;" d="M320.53,45.86c0,0,0.75,14.88,6.34,17.07C326.87,62.92,322.91,59.68,320.53,45.86z"/>
		<path style="fill:#939598;" d="M317.58,22.3c0,0-2.3,0.58-1.51,4.97c0.79,4.39,2.81,10.51,2.81,10.51S314.69,25.4,317.58,22.3z"/>
		<path style="fill:#939598;" d="M326,14.74c0,0-3,0.57-2.57,5.01c0.43,4.44,2.07,10.69,2.07,10.69S322.88,17.59,326,14.74z"/>
		<path style="fill:#939598;" d="M333.53,23.09c0.19-4.03,0.94-10.73,3.85-11.23c0,0-2.78-1.05-3.41,3.37
			c-0.36,2.51-0.47,5.67-0.5,7.93C333.49,23.14,333.51,23.12,333.53,23.09z"/>
		<path style="fill:#939598;" d="M344.48,24.68c0.19-4.03,0.94-10.73,3.85-11.23c0,0-2.78-1.05-3.41,3.37
			c-0.36,2.51-0.47,5.67-0.5,7.94C344.44,24.73,344.46,24.7,344.48,24.68z"/>
	</g>
	<path style="fill:#939598;" d="M328.96,41.63c0,0,0.46-1.87,4.85-1.73c4.39,0.14,12.43,0.98,15.46,6.1c0,0-4.68-4.39-12.03-5.26
		C329.89,39.88,328.96,41.63,328.96,41.63z"/>
</g>
<g>
	<g>
		<g>
			<g>
				<path style="fill:#939598;" d="M265.39,53.74h-17.67c-0.01,0.1-0.02,0.19-0.03,0.29c-0.25,2.91-1.18,14.36-2.85,28.7
					c3.88,2.08,8.61,2.62,12.47,2.53c2.9-0.07,6.3-0.46,9.42-1.61c-0.57-9.91-1.03-19.75-1.27-28.8
					C265.46,54.84,265.45,54.43,265.39,53.74z"/>
				<path style="fill:#939598;" d="M247.34,71.17c2.69-6.47,7.08-5.61,8.74-5.28c1.68,0.34,2.71,1.08,3.55,2.98
					c0.77,1.73,1.03,3.35,1.19,5.17c0.21,2.52,0.39,5.05,0.62,7.57c0.1,1.08,0.28,2.19,0.31,3.27c1.66-0.25,3.36-0.64,4.98-1.23
					c-0.57-9.91-1.03-19.75-1.27-28.8c0,0-0.02-0.41-0.07-1.1h-17.67c-0.01,0.1-0.02,0.19-0.03,0.29
					c-0.25,2.91-1.18,14.36-2.85,28.7c0,0,0,0,0.01,0C245.58,78.68,245.75,74.99,247.34,71.17z"/>
			</g>
			<g>
				<g>
					<path style="fill:#939598;" d="M251.83,56.91c0,0,4.01-12.7,16.31-12.73C268.14,44.18,255.84,47.78,251.83,56.91z"/>
					<path style="fill:#939598;" d="M251.83,57.37c-0.05,0-0.11-0.01-0.16-0.03c-0.23-0.09-0.35-0.34-0.28-0.57
						c0.04-0.13,4.25-13.02,16.74-13.05c0,0,0,0,0,0c0.23,0,0.42,0.17,0.45,0.39c0.03,0.23-0.11,0.44-0.32,0.51
						c-0.12,0.04-12.14,3.65-16.01,12.48C252.18,57.27,252.01,57.37,251.83,57.37z M264.51,45.06c-3.65,0.88-6.34,2.99-8.26,5.2
						C259.01,47.79,262.16,46.1,264.51,45.06z"/>
				</g>
				<path style="fill:#939598;" d="M268.76,17.2c-0.87,3.44-3.76,16.02-4.71,19.3c-0.2-0.04-0.52,0.28-0.72,0.24
					c0.16-7.51,0.38-18.23,0-23.81c-0.29-4.23-7.61-4.04-7.78,2.02c-0.12,4.23,0.07,19.06,0.22,20.12c0.04,1.93-0.94,1.22-0.86,1.08
					c-0.45,0.08-2.5-17.64-4.28-22.79c-1.09-3.14-7.57-1.09-6.86,4.93c0.49,4.2,2.47,16.9,2.76,17.93c0.12,0.73,0.25,1.42,0.42,2.07
					c-0.63,0.56-1.2,1.19-1.67,1.87c-2.27,3.31-3.26,7.83-2.75,11.78c0.3,2.35,1.11,4.88,2.21,6.98c1.08,2.06,2.68,3.75,4.77,4.79
					c4.09,2.03,9.15,1.6,13.12-0.51c2.9-1.54,5.59-2.9,6.78-6.17c1.29-3.51,4.09-6.18,4.01-9.88c-0.07-2.82-0.73-5.9-2.34-8.28
					c1.68-7.3,4.2-17.06,4.91-21.98C276.54,13.09,270.48,10.39,268.76,17.2z"/>
				<path style="fill:#939598;" d="M272.19,34.16c-0.65,1.13-1.49,2.05-2.66,2.4c-2.92,0.87-4.13-1.69-4.4-4.23
					c-0.44,1.81-0.83,3.32-1.08,4.18c-0.2-0.04-0.52,0.28-0.72,0.24c0.05-2.18,0.09-4.63,0.13-7.14c-0.01,0.05-0.02,0.1-0.03,0.15
					c-0.34,1.64-0.96,4.14-2.78,4.76c-2.45,0.83-4.27-1.48-4.84-3.59c-0.07-0.26-0.13-0.53-0.19-0.79c0.05,2.6,0.1,4.56,0.15,4.92
					c0.04,1.93-0.94,1.22-0.86,1.08c-0.13,0.02-0.4-1.46-0.75-3.69c-0.2,1.72-0.82,3.57-2.62,3.99c-3.09,0.72-4.78-1.71-5.78-4.63
					c0.37,2.3,0.67,4.05,0.78,4.4c0.12,0.73,0.25,1.42,0.42,2.07c-0.63,0.56-1.2,1.19-1.67,1.87c-2.27,3.31-3.26,7.83-2.75,11.78
					c0.3,2.35,1.11,4.88,2.21,6.98c1.08,2.06,2.68,3.75,4.77,4.79c4.09,2.03,9.15,1.6,13.12-0.51c2.9-1.54,5.59-2.9,6.78-6.17
					c1.29-3.51,4.09-6.18,4.01-9.88c-0.07-2.82-0.73-5.9-2.34-8.28C271.42,37.39,271.8,35.79,272.19,34.16z"/>
			</g>
			<path style="fill:#939598;" d="M248.42,39.29c0,0,9.72-7.11,21.12-0.29C269.55,39,261.48,34.39,248.42,39.29z"/>
			<g>
				<path style="fill:#939598;" d="M242.52,39.02c0,0-2.28,3.81,3.65,8.5c5.93,4.69,8.14,2.91,9.41,1.18c0,0,1.46-1.91-0.32-3.77
					c-1.78-1.86-6.88-6.86-8.46-7.44C243.71,36.34,242.52,39.02,242.52,39.02z"/>
				<path style="fill:#939598;" d="M255.25,44.93c-1.78-1.86-6.88-6.86-8.46-7.44c-0.82-0.3-1.5-0.33-2.07-0.22
					c1.13,0.32,2.41,1.41,3.2,2.34c2.08,2.46,4.52,4.04,6.17,6.63c1.24,1.94,0.56,3.83-1.78,4.28c1.64,0.04,2.58-0.9,3.26-1.82
					C255.58,48.69,257.04,46.78,255.25,44.93z"/>
				<path style="fill:#939598;" d="M242.81,38.99c0,0-1.73,2.94,2.63,7.14c4.36,4.2,6.42,4.15,6.42,4.15S241.74,45.26,242.81,38.99z
					"/>
			</g>
			<path style="fill:#939598;" d="M247.58,12.5c0,0-3.67,1.08-3.24,5.98c0.43,4.9,1.66,10.73,1.66,10.73l-1.01-10.51
				C244.99,18.69,244.49,14.51,247.58,12.5z"/>
			<path style="fill:#939598;" d="M259.97,10.7c0,0-3.46,0.36-3.74,4.25c-0.29,3.89,0.07,13.61,0.07,13.61l0.43-13.54
				C256.73,15.02,256.66,12.21,259.97,10.7z"/>
			<path style="fill:#939598;" d="M273.87,13.94c0,0-2.52-1.87-4.11,1.94c-1.58,3.82-3.46,14.26-3.46,14.26s2.91-12.13,3.6-13.66
				C270.82,14.47,271.56,13.94,273.87,13.94z"/>
		</g>
		<g>
			<path style="fill:#939598;" d="M272.85,55.36c1.2-2.97,1.41-6.01-0.57-9.16c-2.94-4.68-16.45-7.73-19.42-6.67
				c-2.52,0.9-2.87,3.23-2.07,4.61c3.55,6.1,7.95,3,10.4,7.04c0,0-9.84,0.66-8.36,9.6c0,0,0.49,4.88,6.1,4.63
				c4.98-0.22,9.65-2.5,12.27-6.84C271.85,57.51,272.41,56.44,272.85,55.36z"/>
			<path style="fill:#939598;" d="M252.69,59.29c0.14-1.9,0.76-3.73,2.4-4.92c1.99-1.44,4.51-2.09,6.85-2.45
				c-0.44-2.35-2.99-3.24-5.09-4.03c-1.47-0.55-2.54-0.96-3.79-1.92c-1.47-1.13-2.41-3.02-2.38-4.54c-0.41,0.93-0.32,1.96,0.12,2.71
				c3.55,6.1,7.95,3,10.4,7.04C261.19,51.17,252.48,51.76,252.69,59.29z"/>
			<path style="fill:#939598;" d="M260.33,40.6c2.47,0.63,4.99,1.27,7.28,2.39c2.3,1.13,4.34,2.68,5.43,5.05
				c0.33,0.73,0.55,1.51,0.69,2.33c-0.12-1.37-0.56-2.76-1.45-4.17c-2.94-4.68-16.45-7.73-19.42-6.67c-0.31,0.11-0.58,0.25-0.83,0.4
				C254.77,39.42,257.59,39.9,260.33,40.6z"/>
			<path style="fill:#939598;" d="M259.27,40.97c8.07,1.41,12.37,5.7,12.37,5.7c-0.72-1.08-3.17-4.11-11.09-5.91
				c-3.67-0.83-6.04-0.91-7.53-0.75C255.12,40.35,257.21,40.52,259.27,40.97z"/>
		</g>
	</g>
	<path style="opacity:0.7;fill:#939598;" d="M243.02,47.69c0,0,0.38,12.66,5.59,14.51C248.62,62.2,245.24,59.38,243.02,47.69z"/>
</g>
<g>
	<g>
		<g>
			<path style="fill:#939598;" d="M194.11,54.14h-17.67c-0.01,0.1-0.02,0.19-0.03,0.29c-0.25,2.91-1.18,14.36-2.85,28.7
				c3.88,2.08,8.61,2.62,12.47,2.53c2.9-0.07,6.3-0.46,9.42-1.61c-0.57-9.91-1.03-19.75-1.27-28.8
				C194.18,55.24,194.17,54.83,194.11,54.14z"/>
			<path style="fill:#939598;" d="M176.06,71.56c2.69-6.47,7.07-5.61,8.74-5.28c1.68,0.34,2.71,1.08,3.55,2.98
				c0.77,1.73,1.03,3.35,1.19,5.17c0.21,2.52,0.39,5.05,0.63,7.57c0.1,1.08,0.28,2.19,0.31,3.27c1.66-0.25,3.36-0.64,4.98-1.23
				c-0.57-9.91-1.03-19.75-1.27-28.8c0,0-0.02-0.41-0.07-1.1h-17.67c-0.01,0.1-0.02,0.19-0.03,0.29c-0.25,2.91-1.18,14.36-2.85,28.7
				c0,0,0,0,0,0C174.3,79.08,174.47,75.39,176.06,71.56z"/>
		</g>
		<g>
			<path style="fill:#939598;" d="M183.12,34.93c0.39,2.27,0.5,4.05,2.04,5.45c2.13,1.94,6.14,1.89,6.44-1.2
				c-1.08-9.09-3.08-20.19-4.54-25.76c-1.54-5.86-8.55-3.55-6.99,3.39C181.27,22.16,183.19,35.17,183.12,34.93z"/>
			<path style="fill:#939598;" d="M189.93,27.68c-0.1,1.47-0.52,2.86-1.63,3.64c-2.25,1.58-4.57,0.15-5.65-2.01
				c-0.23-0.47-0.43-0.95-0.6-1.43c0.63,3.93,1.1,7.18,1.06,7.06c0.39,2.27,0.5,4.05,2.04,5.45c2.13,1.94,6.14,1.89,6.44-1.2
				C191.16,35.51,190.57,31.51,189.93,27.68z"/>
			<path style="fill:#939598;" d="M199.25,11.21c-1.58-2.93-6.72-1.82-7.11,4.23c-0.27,4.22-0.57,20.98-1.92,20.45
				c-3.48-1.35-9.57-0.61-10.5-0.16c-1.86,0.91-3.64,1.88-5.01,3.47c-3.6,4.19-4.54,10.44-3.13,15.69c0.7,2.61,1.5,4.8,3.47,6.73
				c1.82,1.79,4.08,3.12,6.64,3.47c3.97,0.55,8.67-0.06,11.88-2.61c3.38-2.68,5.2-6.58,5.61-10.81c0.27-2.76,0.23-5.55,0.15-8.32
				c-0.06-2.22-0.4-4.44-0.35-6.66c0.05-2.11,0.24-4.23,0.38-6.34C199.69,25.83,200.6,13.71,199.25,11.21z"/>
			<path style="opacity:0.5;fill:#939598;" d="M198.99,36.69c0.05-2.11,0.24-4.23,0.38-6.34c0.04-0.5,0.08-1.11,0.13-1.78
				c-0.39,1.66-0.74,4.16-1.85,5.35c-1.34,1.43-3.83,0.54-5.01-0.79c-0.95-1.09-0.84-2.78-1.15-4.08c-0.27,3.94-0.67,7.08-1.26,6.85
				c-3.48-1.35-9.57-0.61-10.5-0.16c-1.86,0.91-3.64,1.88-5.01,3.47c-3.6,4.19-4.54,10.44-3.13,15.69c0.7,2.61,1.5,4.8,3.47,6.73
				c1.82,1.79,4.08,3.12,6.64,3.47c3.97,0.55,8.67-0.06,11.88-2.61c3.38-2.68,5.2-6.58,5.61-10.81c0.27-2.76,0.23-5.55,0.15-8.32
				C199.27,41.14,198.94,38.92,198.99,36.69z"/>
			<path style="fill:#939598;" d="M187.38,35.25c-3.26-0.37-6.95,0.14-7.65,0.48c-1.86,0.91-3.64,1.88-5.01,3.47
				c-3.6,4.19-4.54,10.44-3.13,15.69c0.7,2.61,1.5,4.8,3.47,6.73c1.82,1.79,4.08,3.12,6.64,3.47c3.97,0.55,8.67-0.06,11.88-2.61
				c3.38-2.68,5.2-6.58,5.61-10.81c0.1-1.08,0.15-2.16,0.18-3.24C197.07,42.64,192.96,37.57,187.38,35.25z"/>
		</g>
		<g>
			<g>
				<path style="fill:#939598;" d="M169.73,35.2c0,0-3.35,2.08-0.17,9.03c3.18,6.96,5.33,7.28,7.28,6.31c0,0,2.68-0.68,1.93-3.17
					c-0.75-2.49-2.87-10.92-4.03-12.18C172.48,32.74,169.73,35.2,169.73,35.2z"/>
				<path style="fill:#939598;" d="M178.76,47.37c-0.75-2.49-2.87-10.92-4.03-12.18c-0.38-0.41-0.77-0.67-1.16-0.84
					c0.81,1.28,0.5,3.49,0.86,4.78c0.53,1.92,1.3,3.74,2.13,5.55c0.47,1,1.1,2.13,1.08,3.27c-0.03,2.1-1.8,2.9-3.62,2.64
					c1.02,0.56,1.93,0.39,2.8-0.05C176.84,50.55,179.51,49.87,178.76,47.37z"/>
				<path style="fill:#939598;" d="M170.09,35.08c0,0-2.61,1.58-1.27,6.28c1.33,4.7,3.38,7.12,3.38,7.12S166.2,38.99,170.09,35.08z"
					/>
			</g>
			<g>
				<path style="fill:#939598;" d="M177.22,29.92c0,0-4.22,2.05-1.83,9.2c2.65,7.92,4.4,9.8,6.67,9.1c0,0,3.04-0.56,2.75-3.6
					c-0.27-2.83-1.43-12.03-2.45-13.59C180.37,28.01,177.22,29.92,177.22,29.92z"/>
				<path style="fill:#939598;" d="M182.36,31.04c-0.17-0.26-0.35-0.47-0.53-0.66c0.34,1.39,0.17,3.08,0.16,4.33
					c-0.04,3.47,2.29,6.61,1.93,10.08c-0.19,1.89-1.38,3.59-3.5,2.94c-0.48-0.15-0.95-0.36-1.38-0.62c0.99,1.2,1.95,1.45,3.02,1.11
					c0,0,3.04-0.56,2.75-3.6C184.55,41.8,183.38,32.6,182.36,31.04z"/>
				<path style="fill:#939598;" d="M177.91,29.8c0,0-4.13,1.88-2.6,8.14c1.52,6.18,3.44,8.27,3.44,8.27S171.81,33.77,177.91,29.8z"
					/>
			</g>
		</g>
		<g>
			<path style="fill:#939598;" d="M201.79,53.15c0.36-1.31,0.54-2.67,0.52-4.05c-0.09-5.91-3.22-12.09-8.8-14.59
				c-2.88-1.29-6.91-2.61-10.1-2.17c-2.98,0.41-4.73,2.23-4.37,4.42c0.67,4.03,8.98,3.65,10.71,7.68c0,0-9.46,4.37-8.02,14.93
				c0,0,0.48,5.76,5.95,5.47C194.36,64.49,200.08,59.41,201.79,53.15z"/>
			<path style="fill:#939598;" d="M188.83,33.15c2.13,0.62,4.57,1.42,6.45,2.63c1.38,0.89,2.56,1.96,3.62,3.13
				c-1.4-1.88-3.21-3.43-5.39-4.41c-2.88-1.29-6.91-2.61-10.1-2.17c-0.19,0.03-0.37,0.06-0.55,0.09
				C183.71,32.52,186.53,32.48,188.83,33.15z"/>
			<path style="fill:#939598;" d="M181.59,57.13c0.28-1.96,0.99-3.91,1.79-5.44c1.69-3.2,4.4-5.48,7.58-7.04
				c-1.13-1.76-3.16-2.9-5.05-3.88c-1.76-0.92-3.96-1.59-5.54-2.81c-1.05-0.81-0.81-2.56-0.54-3.91c-0.66,0.75-0.95,1.69-0.78,2.71
				c0.67,4.03,8.98,3.65,10.71,7.68C189.75,44.44,181.64,48.19,181.59,57.13z"/>
			<path style="fill:#939598;" d="M181.75,33.45c-0.26,0.08-0.49,0.17-0.71,0.26c-0.37,0.29-0.84,0.69-1.07,1.11
				c1.94-1.62,4.66-1.3,4.66-1.3c6.84-0.34,13.67,5.8,13.67,5.8C192.99,32.91,184.48,32.63,181.75,33.45z"/>
		</g>
		<path style="fill:#939598;" d="M199.29,22.82c0.15-1.36,0.23-2.97,0.3-4.49c0.29-6.41-0.95-8.31-3.48-8
			c-2.52,0.31-3.39,3.81-3.39,3.81s2.37-5.15,5.18-2.58c1.49,1.36,1.58,6.33,1.34,10.66C199.26,22.42,199.28,22.62,199.29,22.82z"/>
		<path style="fill:#939598;" d="M186.54,12.76c-1.07-2.16-2.33-2.62-3.88-1.99c-2.36,0.95-2.29,4.56-2.29,4.56s0.96-5.59,4.34-3.83
			c1,0.52,1.86,2.23,2.58,4.38C187.07,14.82,186.82,13.79,186.54,12.76z"/>
	</g>
	<path style="opacity:0.7;fill:#939598;" d="M171.46,48.99c0,0,1.14,12.62,6.45,14.15C177.91,63.13,174.37,60.52,171.46,48.99z"/>
</g>
<g>
	<g>
		<g>
			<path style="fill:#939598;" d="M48.72,53.77H31.05c-0.01,0.1-0.02,0.19-0.03,0.29c-0.25,2.91-1.18,14.36-2.84,28.69
				c3.88,2.08,8.61,2.62,12.47,2.53c2.9-0.07,6.3-0.47,9.42-1.61c-0.57-9.91-1.03-19.75-1.27-28.8
				C48.8,54.87,48.78,54.46,48.72,53.77z"/>
			<path style="fill:#939598;" d="M30.68,71.19c2.69-6.47,7.08-5.61,8.74-5.28c1.68,0.34,2.71,1.08,3.55,2.98
				c0.77,1.73,1.03,3.35,1.18,5.17c0.21,2.53,0.39,5.05,0.63,7.58c0.1,1.08,0.27,2.18,0.31,3.27c1.66-0.25,3.36-0.64,4.98-1.23
				c-0.57-9.91-1.03-19.75-1.27-28.8c0,0-0.02-0.41-0.07-1.11H31.05c-0.01,0.1-0.02,0.19-0.03,0.29
				c-0.25,2.91-1.18,14.36-2.84,28.69c0,0,0,0,0,0C28.91,78.71,29.09,75.02,30.68,71.19z"/>
		</g>
		<g>
			<path style="fill:#939598;" d="M53.59,40.45c-0.37-0.23-0.72-0.53-1.06-0.93c-2.23-2.7-5.04-4.09-8.06-5.77
				c-0.22-0.12-0.41-0.26-0.59-0.4c-2.16,0.13-5.68,0.48-7.14,1.04c-1,0.39-1.95,0.81-2.88,1.26c-5.44,2.65-8.4,7.43-8.66,13.6
				c-0.21,5.06,1.63,11.52,6.16,14.27c5.04,3.05,10.99,1.73,15.92-0.86c6.65-3.49,6.36-11.51,6.18-18
				C53.42,43.21,53.51,41.84,53.59,40.45z"/>
		</g>
		<g>
			<path style="fill:#939598;" d="M53.66,38.57c-2.57-1.77-4.93-3.93-8.12-4.55c-0.7-0.13-1.26-0.4-1.72-0.73
				c-1.93,0.12-5.52,0.49-7.08,1.09c-1,0.39-1.95,0.81-2.88,1.26c-5.44,2.65-8.4,7.43-8.66,13.6c-0.21,5.06,1.63,11.52,6.16,14.27
				c5.04,3.05,10.99,1.73,15.92-0.86c6.65-3.49,6.36-11.51,6.18-18C53.4,42.57,53.61,40.62,53.66,38.57z"/>
		</g>
		<g style="opacity:0.6;">
			<path style="fill:#939598;" d="M53.61,39.9c-1.13-0.93-1.64-2.41-1.54-3.86c-2.25-1.19-4.43-2.25-6.96-2.82c0,0.02,0,0.03,0,0.05
				c-0.18-0.1-6.22,0.29-8.37,1.12c-1,0.39-1.95,0.81-2.88,1.26c-5.44,2.65-8.4,7.43-8.66,13.6c-0.21,5.06,1.63,11.52,6.16,14.27
				c5.04,3.05,10.99,1.73,15.92-0.86c6.65-3.49,6.36-11.51,6.18-18C53.41,43.02,53.53,41.48,53.61,39.9z"/>
		</g>
		<g>
			<g>
				<path style="fill:#939598;" d="M23.57,34.93c0,0-3.35,2.08-0.17,9.03c3.18,6.96,5.33,7.28,7.28,6.31c0,0,2.68-0.68,1.93-3.17
					c-0.75-2.5-2.87-10.92-4.03-12.18C26.33,32.47,23.57,34.93,23.57,34.93z"/>
				<path style="fill:#939598;" d="M32.61,47.1c-0.75-2.5-2.87-10.92-4.03-12.18c-0.38-0.41-0.77-0.67-1.16-0.84
					c0.81,1.28,0.5,3.49,0.86,4.78c0.54,1.92,1.3,3.75,2.14,5.55c0.47,1,1.1,2.13,1.08,3.28c-0.03,2.1-1.8,2.9-3.61,2.64
					c1.02,0.56,1.93,0.39,2.8-0.05C30.68,50.28,33.36,49.6,32.61,47.1z"/>
				<path style="fill:#939598;" d="M23.94,34.8c0,0-2.61,1.58-1.27,6.28c1.33,4.7,3.38,7.12,3.38,7.12S20.04,38.72,23.94,34.8z"/>
			</g>
			<g>
				<path style="fill:#939598;" d="M31.07,29.65c0,0-4.23,2.05-1.83,9.21c2.65,7.92,4.4,9.8,6.67,9.1c0,0,3.04-0.56,2.75-3.6
					c-0.27-2.83-1.43-12.03-2.45-13.59C34.21,27.74,31.07,29.65,31.07,29.65z"/>
				<path style="fill:#939598;" d="M36.21,30.77c-0.17-0.26-0.35-0.47-0.54-0.66c0.35,1.39,0.17,3.08,0.16,4.33
					c-0.04,3.47,2.29,6.61,1.93,10.08c-0.19,1.88-1.38,3.59-3.49,2.94c-0.48-0.15-0.95-0.36-1.38-0.62c0.99,1.2,1.95,1.45,3.03,1.11
					c0,0,3.04-0.56,2.75-3.6C38.39,41.53,37.23,32.33,36.21,30.77z"/>
				<path style="fill:#939598;" d="M31.76,29.53c0,0-4.13,1.88-2.6,8.14c1.52,6.18,3.44,8.27,3.44,8.27S25.65,33.5,31.76,29.53z"/>
			</g>
			<g>
				<path style="fill:#939598;" d="M39.26,27.22c0,0-3.64,1.38-2.26,8.47c1.59,8.2,2.95,9.89,5.3,9.57c0,0,3.01,0.23,3.1-2.61
					c0.09-2.84-0.09-12.03-0.85-13.73C43.08,25.6,39.26,27.22,39.26,27.22z"/>
				<path style="fill:#939598;" d="M44.56,28.92c-0.35-0.79-0.84-1.3-1.38-1.62c0.39,0.51,0.66,1.16,0.79,1.96
					c0.53,3.48,0.17,7.24,0.15,10.75c-0.01,2.1-0.38,4.64-2.91,4.91c-0.31,0.03-0.6-0.01-0.87-0.1c0.58,0.44,1.22,0.54,1.96,0.44
					c0,0,3.01,0.23,3.1-2.61C45.5,39.81,45.32,30.62,44.56,28.92z"/>
				<path style="fill:#939598;" d="M41.12,26.96c0,0-4.43,0.06-4.11,6.39C37.02,33.35,36.81,28.35,41.12,26.96z"/>
			</g>
			<g>
				<path style="fill:#939598;" d="M48.58,27.19c0,0-3.83,0.71-3.74,7.93c0.09,8.35,1.13,10.26,3.5,10.37c0,0,2.92,0.76,3.52-2.01
					c0.6-2.78,2.07-11.85,1.63-13.66C52.63,26.28,48.58,27.19,48.58,27.19z"/>
				<path style="fill:#939598;" d="M53.48,29.81c-0.2-0.84-0.59-1.43-1.06-1.84c0.3,0.57,0.45,1.26,0.42,2.07
					c-0.11,3.52-1.13,7.15-1.78,10.61c-0.38,2.06-1.2,4.5-3.74,4.31c-0.31-0.02-0.58-0.12-0.83-0.25c0.49,0.54,1.1,0.75,1.85,0.78
					c0,0,2.92,0.76,3.52-2.01C52.45,40.69,53.92,31.62,53.48,29.81z"/>
				<path style="fill:#939598;" d="M50.45,27.26c0,0-4.37-0.74-5.19,5.55C45.27,32.81,45.96,27.86,50.45,27.26z"/>
			</g>
		</g>
		<path style="fill:#939598;" d="M55.69,53.62c0,0,1.35-8.21-0.72-12.77c-1.85-4.1-4.56-6.48-9.65-7.18
			c-3.15-0.43-12.74,0.64-12.67,4.73c0.1,5.86,11.23,3.55,12.19,6.34c0,0-10.23,4.66-8.79,15.22c0,0,0.48,5.76,5.95,5.47
			C47.48,65.15,54.15,62.27,55.69,53.62z"/>
		<path style="fill:#939598;" d="M41.6,47.99c1.42-1.13,2.98-1.98,4.59-2.76c-0.71-0.88-1.5-1.66-2.63-2.04
			c-1.48-0.51-3.01-0.8-4.53-1.13c-1.63-0.36-3.84-0.59-5.09-1.83c-1.62-1.63-0.96-3.22,0.37-4.45c-1.03,0.69-1.68,1.55-1.66,2.63
			c0.1,5.86,11.23,3.55,12.19,6.34c0,0-9.76,4.45-8.86,14.51c-0.06-1.5,0.17-3,0.64-4.27C37.59,52.32,39.38,49.76,41.6,47.99z"/>
		<path style="fill:#939598;" d="M44.89,34.22c2.43,0.3,4.83,1.35,6.67,2.97c3.13,2.76,4.22,6.23,4.56,9.96
			c-0.05-2.18-0.34-4.51-1.14-6.29c-1.85-4.1-4.56-6.48-9.65-7.18c-1.56-0.21-4.72-0.06-7.49,0.66c-0.03,0.03-0.07,0.06-0.12,0.08
			c-0.45,0.16-0.99,0.37-1.53,0.64C39.08,34.52,41.92,33.84,44.89,34.22z"/>
		<path style="fill:#939598;" d="M34.82,36.08c-0.23,0.14-0.43,0.29-0.62,0.44c-0.29,0.37-0.64,0.89-0.75,1.35
			c1.45-2.07,4.16-2.46,4.16-2.46c6.52-2.1,13.37,1.76,13.37,1.76C44.19,32.34,37.24,34.58,34.82,36.08z"/>
	</g>
	<path style="opacity:0.7;fill:#939598;" d="M25.54,49.31c0,0,1.32,12.6,6.65,14.06C32.19,63.37,28.61,60.81,25.54,49.31z"/>
</g>
<g>
	<g>
		<path style="fill:#231F20;" d="M26.5,127.41h1.12l1.92,3.67l0.64,1.4h0.04c-0.05-0.68-0.14-1.5-0.14-2.23v-2.84h1.04v6.54H30
			l-1.92-3.68l-0.64-1.39H27.4c0.05,0.69,0.14,1.48,0.14,2.21v2.86H26.5V127.41z"/>
		<path style="fill:#231F20;" d="M32.29,131.5c0-1.64,1.05-2.58,2.2-2.58s2.2,0.94,2.2,2.58c0,1.63-1.05,2.57-2.2,2.57
			S32.29,133.13,32.29,131.5z M35.58,131.5c0-0.98-0.41-1.64-1.09-1.64c-0.68,0-1.09,0.66-1.09,1.64c0,0.98,0.41,1.63,1.09,1.63
			C35.17,133.13,35.58,132.48,35.58,131.5z"/>
		<path style="fill:#231F20;" d="M39.66,126.89h1.09v1.83l-0.04,0.95c0.39-0.39,0.85-0.74,1.48-0.74c0.99,0,1.43,0.71,1.43,1.95
			v3.08h-1.09v-2.93c0-0.81-0.22-1.11-0.72-1.11c-0.41,0-0.68,0.21-1.06,0.61v3.43h-1.09V126.89z"/>
		<path style="fill:#231F20;" d="M44.87,132.12v-3.08h1.09v2.93c0,0.81,0.22,1.11,0.72,1.11c0.41,0,0.67-0.2,1.03-0.68v-3.36h1.09
			v4.91H47.9l-0.08-0.72h-0.03c-0.41,0.51-0.86,0.84-1.49,0.84C45.31,134.07,44.87,133.36,44.87,132.12z"/>
		<path style="fill:#231F20;" d="M50.17,129.04h0.89l0.08,0.88h0.03c0.33-0.64,0.82-1,1.32-1c0.24,0,0.38,0.03,0.52,0.1l-0.19,1
			c-0.16-0.05-0.28-0.08-0.48-0.08c-0.37,0-0.81,0.27-1.09,1.02v2.99h-1.09V129.04z"/>
		<path style="fill:#231F20;" d="M53.85,132.29v-2.34h-0.66v-0.86l0.72-0.05l0.13-1.34h0.9v1.34h1.18v0.92h-1.18v2.34
			c0,0.58,0.21,0.86,0.66,0.86c0.16,0,0.35-0.06,0.48-0.11l0.18,0.85c-0.25,0.09-0.58,0.18-0.95,0.18
			C54.25,134.07,53.85,133.35,53.85,132.29z"/>
	</g>
</g>
<g>
	<g>
		<path style="fill:#231F20;" d="M99.76,127.41h1.09v2.63h2.49v-2.63h1.09v6.54h-1.09v-2.9h-2.49v2.9h-1.09V127.41z"/>
		<path style="fill:#231F20;" d="M105.87,132.12v-3.08h1.09v2.93c0,0.81,0.22,1.11,0.72,1.11c0.41,0,0.67-0.2,1.03-0.68v-3.36h1.09
			v4.91h-0.89l-0.08-0.72h-0.03c-0.41,0.51-0.86,0.84-1.49,0.84C106.3,134.07,105.87,133.36,105.87,132.12z"/>
		<path style="fill:#231F20;" d="M111.17,129.04h0.89l0.08,0.88h0.03c0.33-0.64,0.82-1,1.32-1c0.24,0,0.38,0.03,0.52,0.1l-0.19,1
			c-0.16-0.05-0.28-0.08-0.48-0.08c-0.37,0-0.81,0.27-1.09,1.02v2.99h-1.09V129.04z"/>
		<path style="fill:#231F20;" d="M114.85,132.29v-2.34h-0.66v-0.86l0.72-0.05l0.13-1.34h0.9v1.34h1.18v0.92h-1.18v2.34
			c0,0.58,0.21,0.86,0.66,0.86c0.16,0,0.35-0.06,0.48-0.11l0.18,0.85c-0.25,0.09-0.58,0.18-0.95,0.18
			C115.24,134.07,114.85,133.35,114.85,132.29z"/>
		<path style="fill:#231F20;" d="M117.63,133.39l0.5-0.73c0.41,0.34,0.81,0.55,1.28,0.55c0.5,0,0.74-0.25,0.74-0.59
			c0-0.41-0.5-0.6-1-0.8c-0.61-0.24-1.3-0.61-1.3-1.43c0-0.85,0.65-1.47,1.69-1.47c0.64,0,1.16,0.28,1.54,0.59l-0.5,0.71
			c-0.32-0.25-0.65-0.43-1.01-0.43c-0.47,0-0.69,0.24-0.69,0.54c0,0.39,0.47,0.54,0.97,0.73c0.63,0.25,1.33,0.57,1.33,1.48
			c0,0.84-0.63,1.52-1.8,1.52C118.75,134.07,118.08,133.78,117.63,133.39z"/>
		<path style="fill:#231F20;" d="M123.79,132.63c0-1.05,0.82-1.6,2.72-1.82c-0.02-0.53-0.22-0.97-0.84-0.97
			c-0.46,0-0.89,0.22-1.3,0.48l-0.4-0.77c0.51-0.34,1.17-0.64,1.9-0.64c1.16,0,1.73,0.76,1.73,2.12v2.91h-0.89l-0.08-0.54h-0.03
			c-0.42,0.38-0.89,0.66-1.44,0.66C124.35,134.07,123.79,133.48,123.79,132.63z M126.52,132.63v-1.1c-1.26,0.17-1.67,0.52-1.67,1.01
			c0,0.43,0.28,0.62,0.67,0.62C125.89,133.17,126.17,132.97,126.52,132.63z"/>
		<path style="fill:#231F20;" d="M99.11,144.68v-5.8h1.09v5.86c0,0.28,0.12,0.38,0.23,0.38c0.05,0,0.09,0,0.17-0.02l0.14,0.86
			c-0.13,0.06-0.31,0.1-0.57,0.1C99.39,146.07,99.11,145.54,99.11,144.68z"/>
		<path style="fill:#231F20;" d="M101.54,139.53c0-0.39,0.29-0.65,0.67-0.65s0.67,0.26,0.67,0.65c0,0.38-0.29,0.65-0.67,0.65
			S101.54,139.91,101.54,139.53z M101.66,141.04h1.09v4.91h-1.09V141.04z"/>
		<path style="fill:#231F20;" d="M104.3,144.29v-2.34h-0.66v-0.86l0.72-0.05l0.13-1.34h0.9v1.34h1.18v0.92h-1.18v2.34
			c0,0.58,0.21,0.86,0.66,0.86c0.16,0,0.35-0.06,0.48-0.11l0.18,0.85c-0.25,0.09-0.58,0.18-0.95,0.18
			C104.69,146.07,104.3,145.35,104.3,144.29z"/>
		<path style="fill:#231F20;" d="M107.7,144.29v-2.34h-0.66v-0.86l0.72-0.05l0.13-1.34h0.9v1.34h1.18v0.92h-1.18v2.34
			c0,0.58,0.21,0.86,0.66,0.86c0.16,0,0.35-0.06,0.48-0.11l0.18,0.85c-0.25,0.09-0.58,0.18-0.95,0.18
			C108.1,146.07,107.7,145.35,107.7,144.29z"/>
		<path style="fill:#231F20;" d="M110.94,144.68v-5.8h1.09v5.86c0,0.28,0.12,0.38,0.23,0.38c0.05,0,0.09,0,0.17-0.02l0.14,0.86
			c-0.13,0.06-0.31,0.1-0.57,0.1C111.23,146.07,110.94,145.54,110.94,144.68z"/>
		<path style="fill:#231F20;" d="M113.2,143.5c0-1.6,1.04-2.58,2.13-2.58c1.25,0,1.91,0.96,1.91,2.33c0,0.22-0.02,0.44-0.05,0.56
			h-2.94c0.09,0.87,0.62,1.37,1.37,1.37c0.4,0,0.74-0.13,1.07-0.36l0.37,0.71c-0.44,0.32-1,0.53-1.59,0.53
			C114.2,146.07,113.2,145.12,113.2,143.5z M116.3,143.03c0-0.75-0.32-1.21-0.95-1.21c-0.54,0-1.01,0.43-1.11,1.21H116.3z"/>
		<path style="fill:#231F20;" d="M121.15,145.43h-0.03l-0.09,0.52h-0.86v-7.06h1.09v1.83l-0.03,0.82c0.39-0.36,0.86-0.61,1.34-0.61
			c1.16,0,1.83,0.98,1.83,2.49c0,1.68-0.95,2.66-1.98,2.66C121.99,146.07,121.54,145.84,121.15,145.43z M123.28,143.43
			c0-0.98-0.3-1.56-1.01-1.56c-0.33,0-0.66,0.18-1.01,0.55v2.29c0.32,0.3,0.66,0.41,0.93,0.41
			C122.8,145.12,123.28,144.54,123.28,143.43z"/>
		<path style="fill:#231F20;" d="M125.36,139.53c0-0.39,0.29-0.65,0.67-0.65s0.67,0.26,0.67,0.65c0,0.38-0.29,0.65-0.67,0.65
			S125.36,139.91,125.36,139.53z M125.48,141.04h1.09v4.91h-1.09V141.04z"/>
		<path style="fill:#231F20;" d="M128.12,144.29v-2.34h-0.66v-0.86l0.72-0.05l0.13-1.34h0.9v1.34h1.18v0.92h-1.18v2.34
			c0,0.58,0.21,0.86,0.66,0.86c0.16,0,0.35-0.06,0.48-0.11l0.18,0.85c-0.25,0.09-0.58,0.18-0.95,0.18
			C128.51,146.07,128.12,145.35,128.12,144.29z"/>
	</g>
</g>
<g>
	<g>
		<path style="fill:#231F20;" d="M172.04,127.41h1.09v2.63h2.49v-2.63h1.09v6.54h-1.09v-2.9h-2.49v2.9h-1.09V127.41z"/>
		<path style="fill:#231F20;" d="M178.15,132.12v-3.08h1.09v2.93c0,0.81,0.22,1.11,0.72,1.11c0.41,0,0.67-0.2,1.03-0.68v-3.36h1.09
			v4.91h-0.89l-0.08-0.72h-0.03c-0.41,0.51-0.86,0.84-1.49,0.84C178.59,134.07,178.15,133.36,178.15,132.12z"/>
		<path style="fill:#231F20;" d="M183.45,129.04h0.89l0.08,0.88h0.03c0.33-0.64,0.82-1,1.32-1c0.24,0,0.38,0.03,0.52,0.1l-0.19,1
			c-0.16-0.05-0.28-0.08-0.48-0.08c-0.37,0-0.81,0.27-1.09,1.02v2.99h-1.09V129.04z"/>
		<path style="fill:#231F20;" d="M187.13,132.29v-2.34h-0.66v-0.86l0.72-0.05l0.13-1.34h0.9v1.34h1.18v0.92h-1.18v2.34
			c0,0.58,0.21,0.86,0.66,0.86c0.16,0,0.35-0.06,0.48-0.11l0.18,0.85c-0.25,0.09-0.58,0.18-0.95,0.18
			C187.53,134.07,187.13,133.35,187.13,132.29z"/>
		<path style="fill:#231F20;" d="M189.91,133.39l0.5-0.73c0.41,0.34,0.81,0.55,1.28,0.55c0.5,0,0.74-0.25,0.74-0.59
			c0-0.41-0.5-0.6-1-0.8c-0.61-0.24-1.3-0.61-1.3-1.43c0-0.85,0.65-1.47,1.69-1.47c0.64,0,1.16,0.28,1.54,0.59l-0.5,0.71
			c-0.32-0.25-0.65-0.43-1.01-0.43c-0.47,0-0.69,0.24-0.69,0.54c0,0.39,0.47,0.54,0.97,0.73c0.63,0.25,1.33,0.57,1.33,1.48
			c0,0.84-0.63,1.52-1.8,1.52C191.03,134.07,190.37,133.78,189.91,133.39z"/>
		<path style="fill:#231F20;" d="M196.08,132.63c0-1.05,0.82-1.6,2.72-1.82c-0.02-0.53-0.22-0.97-0.84-0.97
			c-0.46,0-0.89,0.22-1.3,0.48l-0.4-0.77c0.51-0.34,1.17-0.64,1.9-0.64c1.16,0,1.73,0.76,1.73,2.12v2.91H199l-0.08-0.54h-0.03
			c-0.42,0.38-0.89,0.66-1.44,0.66C196.64,134.07,196.08,133.48,196.08,132.63z M198.8,132.63v-1.1c-1.26,0.17-1.67,0.52-1.67,1.01
			c0,0.43,0.28,0.62,0.67,0.62C198.17,133.17,198.46,132.97,198.8,132.63z"/>
		<path style="fill:#231F20;" d="M166.27,144.68v-5.8h1.09v5.86c0,0.28,0.12,0.38,0.23,0.38c0.05,0,0.09,0,0.17-0.02l0.14,0.86
			c-0.13,0.06-0.31,0.1-0.57,0.1C166.55,146.07,166.27,145.54,166.27,144.68z"/>
		<path style="fill:#231F20;" d="M168.7,139.53c0-0.39,0.29-0.65,0.67-0.65s0.67,0.26,0.67,0.65c0,0.38-0.29,0.65-0.67,0.65
			S168.7,139.91,168.7,139.53z M168.82,141.04h1.09v4.91h-1.09V141.04z"/>
		<path style="fill:#231F20;" d="M171.46,144.29v-2.34h-0.66v-0.86l0.72-0.05l0.13-1.34h0.9v1.34h1.18v0.92h-1.18v2.34
			c0,0.58,0.21,0.86,0.66,0.86c0.16,0,0.35-0.06,0.48-0.11l0.18,0.85c-0.25,0.09-0.58,0.18-0.95,0.18
			C171.85,146.07,171.46,145.35,171.46,144.29z"/>
		<path style="fill:#231F20;" d="M174.86,144.29v-2.34h-0.66v-0.86l0.72-0.05l0.13-1.34h0.9v1.34h1.18v0.92h-1.18v2.34
			c0,0.58,0.21,0.86,0.66,0.86c0.16,0,0.35-0.06,0.48-0.11l0.18,0.85c-0.25,0.09-0.58,0.18-0.95,0.18
			C175.26,146.07,174.86,145.35,174.86,144.29z"/>
		<path style="fill:#231F20;" d="M178.11,144.68v-5.8h1.09v5.86c0,0.28,0.12,0.38,0.23,0.38c0.05,0,0.09,0,0.17-0.02l0.14,0.86
			c-0.13,0.06-0.31,0.1-0.57,0.1C178.39,146.07,178.11,145.54,178.11,144.68z"/>
		<path style="fill:#231F20;" d="M180.36,143.5c0-1.6,1.04-2.58,2.13-2.58c1.25,0,1.91,0.96,1.91,2.33c0,0.22-0.02,0.44-0.05,0.56
			h-2.94c0.09,0.87,0.62,1.37,1.37,1.37c0.4,0,0.74-0.13,1.07-0.36l0.37,0.71c-0.44,0.32-1,0.53-1.59,0.53
			C181.36,146.07,180.36,145.12,180.36,143.5z M183.46,143.03c0-0.75-0.32-1.21-0.95-1.21c-0.54,0-1.01,0.43-1.11,1.21H183.46z"/>
		<path style="fill:#231F20;" d="M187.33,141.04h0.89l0.08,0.67h0.03c0.39-0.43,0.84-0.79,1.42-0.79c0.68,0,1.07,0.33,1.28,0.88
			c0.44-0.5,0.9-0.88,1.49-0.88c0.98,0,1.43,0.71,1.43,1.95v3.08h-1.09v-2.93c0-0.81-0.23-1.11-0.71-1.11
			c-0.29,0-0.61,0.2-0.97,0.61v3.43h-1.09v-2.93c0-0.81-0.23-1.11-0.71-1.11c-0.29,0-0.61,0.2-0.97,0.61v3.43h-1.09V141.04z"/>
		<path style="fill:#231F20;" d="M194.98,143.5c0-1.64,1.05-2.58,2.2-2.58s2.2,0.94,2.2,2.58c0,1.63-1.05,2.57-2.2,2.57
			S194.98,145.13,194.98,143.5z M198.27,143.5c0-0.98-0.41-1.64-1.09-1.64c-0.68,0-1.09,0.66-1.09,1.64c0,0.98,0.41,1.63,1.09,1.63
			C197.86,145.13,198.27,144.48,198.27,143.5z"/>
		<path style="fill:#231F20;" d="M200.46,141.04h0.89l0.08,0.88h0.03c0.33-0.64,0.82-1,1.32-1c0.24,0,0.38,0.03,0.52,0.1l-0.19,1
			c-0.16-0.05-0.28-0.08-0.48-0.08c-0.37,0-0.81,0.27-1.09,1.02v2.99h-1.09V141.04z"/>
		<path style="fill:#231F20;" d="M203.68,143.5c0-1.6,1.04-2.58,2.13-2.58c1.25,0,1.91,0.96,1.91,2.33c0,0.22-0.02,0.44-0.05,0.56
			h-2.94c0.09,0.87,0.62,1.37,1.37,1.37c0.4,0,0.74-0.13,1.07-0.36l0.37,0.71c-0.44,0.32-1,0.53-1.59,0.53
			C204.68,146.07,203.68,145.12,203.68,143.5z M206.79,143.03c0-0.75-0.32-1.21-0.95-1.21c-0.54,0-1.01,0.43-1.11,1.21H206.79z"/>
	</g>
</g>
<g>
	<g>
		<path style="fill:#231F20;" d="M248.98,127.41h1.09v2.63h2.49v-2.63h1.09v6.54h-1.09v-2.9h-2.49v2.9h-1.09V127.41z"/>
		<path style="fill:#231F20;" d="M255.08,132.12v-3.08h1.09v2.93c0,0.81,0.22,1.11,0.72,1.11c0.41,0,0.67-0.2,1.03-0.68v-3.36H259
			v4.91h-0.89l-0.08-0.72H258c-0.41,0.51-0.86,0.84-1.49,0.84C255.52,134.07,255.08,133.36,255.08,132.12z"/>
		<path style="fill:#231F20;" d="M260.38,129.04h0.89l0.08,0.88h0.03c0.33-0.64,0.82-1,1.32-1c0.24,0,0.38,0.03,0.52,0.1l-0.19,1
			c-0.16-0.05-0.28-0.08-0.48-0.08c-0.37,0-0.81,0.27-1.09,1.02v2.99h-1.09V129.04z"/>
		<path style="fill:#231F20;" d="M264.06,132.29v-2.34h-0.66v-0.86l0.72-0.05l0.13-1.34h0.9v1.34h1.18v0.92h-1.18v2.34
			c0,0.58,0.21,0.86,0.66,0.86c0.16,0,0.35-0.06,0.48-0.11l0.18,0.85c-0.25,0.09-0.58,0.18-0.95,0.18
			C264.46,134.07,264.06,133.35,264.06,132.29z"/>
		<path style="fill:#231F20;" d="M266.85,133.39l0.5-0.73c0.41,0.34,0.81,0.55,1.28,0.55c0.5,0,0.74-0.25,0.74-0.59
			c0-0.41-0.5-0.6-1-0.8c-0.61-0.24-1.3-0.61-1.3-1.43c0-0.85,0.65-1.47,1.69-1.47c0.64,0,1.16,0.28,1.54,0.59l-0.5,0.71
			c-0.32-0.25-0.65-0.43-1.01-0.43c-0.47,0-0.69,0.24-0.69,0.54c0,0.39,0.47,0.54,0.97,0.73c0.63,0.25,1.33,0.57,1.33,1.48
			c0,0.84-0.63,1.52-1.8,1.52C267.97,134.07,267.3,133.78,266.85,133.39z"/>
		<path style="fill:#231F20;" d="M239.35,143.5c0-1.6,1.04-2.58,2.13-2.58c1.25,0,1.91,0.96,1.91,2.33c0,0.22-0.02,0.44-0.05,0.56
			h-2.94c0.09,0.87,0.62,1.37,1.37,1.37c0.4,0,0.74-0.13,1.07-0.36l0.37,0.71c-0.44,0.32-1,0.53-1.59,0.53
			C240.35,146.07,239.35,145.12,239.35,143.5z M242.46,143.03c0-0.75-0.32-1.21-0.95-1.21c-0.54,0-1.01,0.43-1.11,1.21H242.46z"/>
		<path style="fill:#231F20;" d="M243.86,141.04h1.1l0.74,2.55c0.13,0.48,0.26,0.99,0.39,1.48h0.04c0.13-0.49,0.26-1,0.39-1.48
			l0.74-2.55h1.05l-1.57,4.91h-1.26L243.86,141.04z"/>
		<path style="fill:#231F20;" d="M248.8,143.5c0-1.6,1.04-2.58,2.13-2.58c1.25,0,1.91,0.96,1.91,2.33c0,0.22-0.02,0.44-0.05,0.56
			h-2.94c0.09,0.87,0.62,1.37,1.37,1.37c0.4,0,0.74-0.13,1.07-0.36l0.37,0.71c-0.44,0.32-1,0.53-1.59,0.53
			C249.8,146.07,248.8,145.12,248.8,143.5z M251.91,143.03c0-0.75-0.32-1.21-0.95-1.21c-0.54,0-1.01,0.43-1.11,1.21H251.91z"/>
		<path style="fill:#231F20;" d="M253.89,141.04h0.89l0.08,0.66h0.03c0.42-0.43,0.89-0.78,1.52-0.78c0.99,0,1.43,0.71,1.43,1.95
			v3.08h-1.09v-2.93c0-0.81-0.22-1.11-0.72-1.11c-0.41,0-0.68,0.21-1.06,0.61v3.43h-1.09V141.04z"/>
		<path style="fill:#231F20;" d="M261.06,141.04h0.89l0.08,0.67h0.03c0.39-0.43,0.84-0.79,1.42-0.79c0.68,0,1.07,0.33,1.28,0.88
			c0.44-0.5,0.9-0.88,1.49-0.88c0.98,0,1.43,0.71,1.43,1.95v3.08h-1.09v-2.93c0-0.81-0.23-1.11-0.71-1.11
			c-0.29,0-0.61,0.2-0.97,0.61v3.43h-1.09v-2.93c0-0.81-0.23-1.11-0.71-1.11c-0.29,0-0.61,0.2-0.97,0.61v3.43h-1.09V141.04z"/>
		<path style="fill:#231F20;" d="M268.7,143.5c0-1.64,1.05-2.58,2.2-2.58s2.2,0.94,2.2,2.58c0,1.63-1.05,2.57-2.2,2.57
			S268.7,145.13,268.7,143.5z M271.99,143.5c0-0.98-0.41-1.64-1.09-1.64c-0.68,0-1.09,0.66-1.09,1.64c0,0.98,0.41,1.63,1.09,1.63
			C271.59,145.13,271.99,144.48,271.99,143.5z"/>
		<path style="fill:#231F20;" d="M274.19,141.04h0.89l0.08,0.88h0.03c0.33-0.64,0.82-1,1.32-1c0.24,0,0.38,0.03,0.52,0.1l-0.19,1
			c-0.16-0.05-0.28-0.08-0.48-0.08c-0.37,0-0.81,0.27-1.09,1.02v2.99h-1.09V141.04z"/>
		<path style="fill:#231F20;" d="M277.4,143.5c0-1.6,1.04-2.58,2.13-2.58c1.25,0,1.91,0.96,1.91,2.33c0,0.22-0.02,0.44-0.05,0.56
			h-2.94c0.09,0.87,0.62,1.37,1.37,1.37c0.4,0,0.74-0.13,1.07-0.36l0.37,0.71c-0.44,0.32-1,0.53-1.59,0.53
			C278.41,146.07,277.4,145.12,277.4,143.5z M280.51,143.03c0-0.75-0.32-1.21-0.95-1.21c-0.54,0-1.01,0.43-1.11,1.21H280.51z"/>
	</g>
</g>
<g>
	<g>
		<path style="fill:#231F20;" d="M322.6,127.41h1.09v2.63h2.49v-2.63h1.09v6.54h-1.09v-2.9h-2.49v2.9h-1.09V127.41z"/>
		<path style="fill:#231F20;" d="M328.71,132.12v-3.08h1.09v2.93c0,0.81,0.22,1.11,0.72,1.11c0.41,0,0.67-0.2,1.03-0.68v-3.36h1.09
			v4.91h-0.89l-0.08-0.72h-0.03c-0.41,0.51-0.86,0.84-1.49,0.84C329.14,134.07,328.71,133.36,328.71,132.12z"/>
		<path style="fill:#231F20;" d="M334.01,129.04h0.89l0.08,0.88h0.03c0.33-0.64,0.82-1,1.32-1c0.24,0,0.38,0.03,0.52,0.1l-0.19,1
			c-0.16-0.05-0.28-0.08-0.48-0.08c-0.37,0-0.81,0.27-1.09,1.02v2.99h-1.09V129.04z"/>
		<path style="fill:#231F20;" d="M337.69,132.29v-2.34h-0.66v-0.86l0.72-0.05l0.13-1.34h0.9v1.34h1.18v0.92h-1.18v2.34
			c0,0.58,0.21,0.86,0.66,0.86c0.16,0,0.35-0.06,0.48-0.11l0.18,0.85c-0.25,0.09-0.58,0.18-0.95,0.18
			C338.08,134.07,337.69,133.35,337.69,132.29z"/>
		<path style="fill:#231F20;" d="M340.47,133.39l0.5-0.73c0.41,0.34,0.81,0.55,1.28,0.55c0.5,0,0.74-0.25,0.74-0.59
			c0-0.41-0.5-0.6-1-0.8c-0.61-0.24-1.3-0.61-1.3-1.43c0-0.85,0.65-1.47,1.69-1.47c0.64,0,1.16,0.28,1.54,0.59l-0.5,0.71
			c-0.32-0.25-0.65-0.43-1.01-0.43c-0.47,0-0.69,0.24-0.69,0.54c0,0.39,0.47,0.54,0.97,0.73c0.63,0.25,1.33,0.57,1.33,1.48
			c0,0.84-0.63,1.52-1.8,1.52C341.59,134.07,340.92,133.78,340.47,133.39z"/>
		<path style="fill:#231F20;" d="M346.63,132.63c0-1.05,0.82-1.6,2.72-1.82c-0.02-0.53-0.22-0.97-0.84-0.97
			c-0.46,0-0.89,0.22-1.3,0.48l-0.4-0.77c0.51-0.34,1.17-0.64,1.9-0.64c1.16,0,1.73,0.76,1.73,2.12v2.91h-0.89l-0.08-0.54h-0.03
			c-0.42,0.38-0.89,0.66-1.44,0.66C347.19,134.07,346.63,133.48,346.63,132.63z M349.36,132.63v-1.1c-1.26,0.17-1.67,0.52-1.67,1.01
			c0,0.43,0.28,0.62,0.67,0.62C348.73,133.17,349.01,132.97,349.36,132.63z"/>
		<path style="fill:#231F20;" d="M318.67,141.04h1.09l0.56,2.55c0.09,0.48,0.16,0.94,0.24,1.42h0.04c0.09-0.48,0.18-0.95,0.29-1.42
			l0.61-2.55h0.99l0.62,2.55c0.11,0.48,0.2,0.94,0.31,1.42h0.04c0.09-0.48,0.16-0.94,0.25-1.42l0.55-2.55h1.01l-1.17,4.91h-1.29
			l-0.54-2.29c-0.1-0.46-0.18-0.91-0.28-1.42h-0.04c-0.09,0.51-0.17,0.97-0.28,1.43l-0.52,2.28h-1.25L318.67,141.04z"/>
		<path style="fill:#231F20;" d="M326.2,138.89h1.09v1.83l-0.04,0.95c0.39-0.39,0.85-0.74,1.48-0.74c0.99,0,1.43,0.71,1.43,1.95
			v3.08h-1.09v-2.93c0-0.81-0.22-1.11-0.72-1.11c-0.41,0-0.68,0.21-1.06,0.61v3.43h-1.09V138.89z"/>
		<path style="fill:#231F20;" d="M331.15,143.5c0-1.64,1.05-2.58,2.2-2.58s2.2,0.94,2.2,2.58c0,1.63-1.05,2.57-2.2,2.57
			S331.15,145.13,331.15,143.5z M334.44,143.5c0-0.98-0.41-1.64-1.09-1.64c-0.68,0-1.09,0.66-1.09,1.64c0,0.98,0.41,1.63,1.09,1.63
			C334.04,145.13,334.44,144.48,334.44,143.5z"/>
		<path style="fill:#231F20;" d="M336.64,144.68v-5.8h1.09v5.86c0,0.28,0.12,0.38,0.23,0.38c0.05,0,0.09,0,0.17-0.02l0.14,0.86
			c-0.13,0.06-0.31,0.1-0.57,0.1C336.92,146.07,336.64,145.54,336.64,144.68z"/>
		<path style="fill:#231F20;" d="M338.89,143.5c0-1.6,1.04-2.58,2.13-2.58c1.25,0,1.91,0.96,1.91,2.33c0,0.22-0.02,0.44-0.05,0.56
			h-2.94c0.09,0.87,0.62,1.37,1.37,1.37c0.4,0,0.74-0.13,1.07-0.36l0.37,0.71c-0.44,0.32-1,0.53-1.59,0.53
			C339.89,146.07,338.89,145.12,338.89,143.5z M342,143.03c0-0.75-0.32-1.21-0.95-1.21c-0.54,0-1.01,0.43-1.11,1.21H342z"/>
		<path style="fill:#231F20;" d="M345.86,144.68v-5.8h1.09v5.86c0,0.28,0.12,0.38,0.23,0.38c0.05,0,0.09,0,0.17-0.02l0.14,0.86
			c-0.13,0.06-0.31,0.1-0.57,0.1C346.15,146.07,345.86,145.54,345.86,144.68z"/>
		<path style="fill:#231F20;" d="M348.12,143.5c0-1.64,1.05-2.58,2.2-2.58s2.2,0.94,2.2,2.58c0,1.63-1.05,2.57-2.2,2.57
			S348.12,145.13,348.12,143.5z M351.4,143.5c0-0.98-0.41-1.64-1.09-1.64c-0.68,0-1.09,0.66-1.09,1.64c0,0.98,0.41,1.63,1.09,1.63
			C351,145.13,351.4,144.48,351.4,143.5z"/>
		<path style="fill:#231F20;" d="M353.76,144.29v-2.34h-0.66v-0.86l0.72-0.05l0.13-1.34h0.9v1.34h1.18v0.92h-1.18v2.34
			c0,0.58,0.21,0.86,0.66,0.86c0.16,0,0.35-0.06,0.48-0.11l0.18,0.85c-0.25,0.09-0.58,0.18-0.95,0.18
			C354.16,146.07,353.76,145.35,353.76,144.29z"/>
	</g>
</g>
<g>
	<g>
		<path style="fill:#231F20;" d="M386.04,127.41h1.09v2.63h2.49v-2.63h1.09v6.54h-1.09v-2.9h-2.49v2.9h-1.09V127.41z"/>
		<path style="fill:#231F20;" d="M392.15,132.12v-3.08h1.09v2.93c0,0.81,0.22,1.11,0.72,1.11c0.41,0,0.67-0.2,1.03-0.68v-3.36h1.09
			v4.91h-0.89l-0.08-0.72h-0.03c-0.41,0.51-0.86,0.84-1.49,0.84C392.58,134.07,392.15,133.36,392.15,132.12z"/>
		<path style="fill:#231F20;" d="M397.44,129.04h0.89l0.08,0.88h0.03c0.33-0.64,0.82-1,1.32-1c0.24,0,0.38,0.03,0.52,0.1l-0.19,1
			c-0.16-0.05-0.28-0.08-0.48-0.08c-0.37,0-0.81,0.27-1.09,1.02v2.99h-1.09V129.04z"/>
		<path style="fill:#231F20;" d="M401.12,132.29v-2.34h-0.66v-0.86l0.72-0.05l0.13-1.34h0.9v1.34h1.18v0.92h-1.18v2.34
			c0,0.58,0.21,0.86,0.66,0.86c0.16,0,0.35-0.06,0.48-0.11l0.18,0.85c-0.25,0.09-0.58,0.18-0.95,0.18
			C401.52,134.07,401.12,133.35,401.12,132.29z"/>
		<path style="fill:#231F20;" d="M403.91,133.39l0.5-0.73c0.41,0.34,0.81,0.55,1.28,0.55c0.5,0,0.74-0.25,0.74-0.59
			c0-0.41-0.5-0.6-1-0.8c-0.61-0.24-1.3-0.61-1.3-1.43c0-0.85,0.65-1.47,1.69-1.47c0.64,0,1.16,0.28,1.54,0.59l-0.5,0.71
			c-0.32-0.25-0.65-0.43-1.01-0.43c-0.47,0-0.69,0.24-0.69,0.54c0,0.39,0.47,0.54,0.97,0.73c0.63,0.25,1.33,0.57,1.33,1.48
			c0,0.84-0.63,1.52-1.8,1.52C405.03,134.07,404.36,133.78,403.91,133.39z"/>
		<path style="fill:#231F20;" d="M409.86,129.04h1.09l0.56,2.55c0.09,0.48,0.16,0.94,0.24,1.42h0.04c0.09-0.48,0.18-0.95,0.29-1.42
			l0.61-2.55h0.99l0.62,2.55c0.11,0.48,0.2,0.94,0.31,1.42h0.04c0.09-0.48,0.16-0.94,0.25-1.42l0.55-2.55h1.01l-1.17,4.91h-1.29
			l-0.54-2.29c-0.1-0.46-0.18-0.91-0.28-1.42h-0.04c-0.09,0.51-0.17,0.97-0.28,1.43l-0.52,2.28h-1.25L409.86,129.04z"/>
		<path style="fill:#231F20;" d="M417.07,131.5c0-1.64,1.05-2.58,2.2-2.58s2.2,0.94,2.2,2.58c0,1.63-1.05,2.57-2.2,2.57
			S417.07,133.13,417.07,131.5z M420.36,131.5c0-0.98-0.41-1.64-1.09-1.64c-0.68,0-1.09,0.66-1.09,1.64c0,0.98,0.41,1.63,1.09,1.63
			C419.95,133.13,420.36,132.48,420.36,131.5z"/>
		<path style="fill:#231F20;" d="M422.56,129.04h0.89l0.08,0.88h0.03c0.33-0.64,0.82-1,1.32-1c0.24,0,0.38,0.03,0.52,0.1l-0.19,1
			c-0.16-0.05-0.28-0.08-0.48-0.08c-0.37,0-0.81,0.27-1.09,1.02v2.99h-1.09V129.04z"/>
		<path style="fill:#231F20;" d="M425.61,133.39l0.5-0.73c0.41,0.34,0.81,0.55,1.28,0.55c0.5,0,0.74-0.25,0.74-0.59
			c0-0.41-0.5-0.6-1-0.8c-0.61-0.24-1.3-0.61-1.3-1.43c0-0.85,0.65-1.47,1.69-1.47c0.64,0,1.16,0.28,1.54,0.59l-0.5,0.71
			c-0.32-0.25-0.65-0.43-1.01-0.43c-0.47,0-0.69,0.24-0.69,0.54c0,0.39,0.47,0.54,0.97,0.73c0.63,0.25,1.33,0.57,1.33,1.48
			c0,0.84-0.63,1.52-1.8,1.52C426.73,134.07,426.07,133.78,425.61,133.39z"/>
		<path style="fill:#231F20;" d="M430.3,132.29v-2.34h-0.66v-0.86l0.72-0.05l0.13-1.34h0.9v1.34h1.18v0.92h-1.18v2.34
			c0,0.58,0.21,0.86,0.66,0.86c0.16,0,0.35-0.06,0.48-0.11l0.18,0.85c-0.25,0.09-0.58,0.18-0.95,0.18
			C430.7,134.07,430.3,133.35,430.3,132.29z"/>
	</g>
</g>
</svg>
