<?xml version="1.0" encoding="utf-8"?>
<!-- Generator: Adobe Illustrator 24.1.1, SVG Export Plug-In . SVG Version: 6.00 Build 0)  -->
<svg version="1.1" id="Layer_1" xmlns="http://www.w3.org/2000/svg" xmlns:xlink="http://www.w3.org/1999/xlink" x="0px" y="0px"
	 viewBox="0 0 453.54 288.66" style="enable-background:new 0 0 453.54 288.66;" xml:space="preserve">
<g>
	<g>
		<g>
			<path d="M34.81,135.3l1.56-2.12c0.86,0.85,1.96,1.43,2.95,1.43c1.13,0,1.69-0.51,1.69-1.32c0-0.86-0.68-1.14-1.73-1.63
				l-1.56-0.76c-1.25-0.58-2.43-1.74-2.43-3.73c0-2.27,1.78-4.08,4.28-4.08c1.38,0,2.83,0.62,3.87,1.79l-1.37,1.95
				c-0.79-0.69-1.55-1.07-2.5-1.07c-0.94,0-1.53,0.44-1.53,1.23c0,0.84,0.79,1.14,1.84,1.62l1.53,0.71
				c1.47,0.68,2.39,1.79,2.39,3.72c0,2.27-1.67,4.24-4.53,4.24C37.7,137.28,36.04,136.61,34.81,135.3z"/>
			<path d="M45.62,122.32h2.71v3.59l-0.12,1.89c0.69-0.71,1.58-1.44,2.83-1.44c1.99,0,2.84,1.6,2.84,4.2v6.47h-2.71v-6.07
				c0-1.5-0.35-1.97-1.14-1.97c-0.68,0-1.1,0.36-1.69,1.01v7.03h-2.71V122.32z"/>
			<path d="M55.63,131.83c0-3.46,2.14-5.46,4.46-5.46s4.46,2,4.46,5.46c0,3.46-2.14,5.46-4.46,5.46S55.63,135.28,55.63,131.83z
				 M61.77,131.83c0-1.8-0.56-2.97-1.68-2.97c-1.12,0-1.68,1.17-1.68,2.97s0.56,2.97,1.68,2.97
				C61.21,134.79,61.77,133.63,61.77,131.83z"/>
			<path d="M66.4,126.61h2.21l0.2,1.82h0.07c0.67-1.39,1.67-2.07,2.6-2.07c0.52,0,0.83,0.08,1.09,0.21l-0.45,2.66
				c-0.33-0.09-0.59-0.17-0.99-0.17c-0.69,0-1.53,0.51-2.02,1.93v6.04H66.4V126.61z"/>
			<path d="M74.11,133.24v-4.21h-1.25v-2.3l1.4-0.12l0.32-2.77h2.24v2.77h2.19v2.42h-2.19v4.17c0,1.18,0.47,1.65,1.19,1.65
				c0.3,0,0.63-0.1,0.87-0.2l0.43,2.24c-0.49,0.18-1.15,0.38-2.03,0.38C75.01,137.28,74.11,135.66,74.11,133.24z"/>
			<path d="M80.81,126.61h2.21l0.2,1.32h0.07c0.77-0.84,1.69-1.57,2.94-1.57c1.99,0,2.84,1.6,2.84,4.2v6.47h-2.71v-6.07
				c0-1.5-0.35-1.97-1.14-1.97c-0.68,0-1.1,0.36-1.69,1.01v7.03h-2.71V126.61z"/>
			<path d="M90.84,131.83c0-3.38,2.12-5.46,4.32-5.46c2.61,0,3.9,2.16,3.9,5c0,0.56-0.06,1.11-0.11,1.36h-5.48
				c0.24,1.51,1.15,2.2,2.37,2.2c0.69,0,1.31-0.24,1.98-0.68l0.9,1.86c-0.94,0.74-2.16,1.17-3.25,1.17
				C92.86,137.28,90.84,135.28,90.84,131.83z M96.74,130.69c0-1.15-0.44-1.97-1.52-1.97c-0.86,0-1.6,0.65-1.78,1.97H96.74z"/>
			<path d="M100.12,135.83l1.22-1.92c0.83,0.71,1.6,1.09,2.36,1.09c0.81,0,1.16-0.35,1.16-0.9c0-0.69-0.91-1-1.85-1.42
				c-1.12-0.49-2.42-1.34-2.42-3.06c0-1.94,1.38-3.26,3.5-3.26c1.4,0,2.45,0.65,3.23,1.32l-1.21,1.85
				c-0.65-0.54-1.29-0.89-1.93-0.89c-0.7,0-1.05,0.31-1.05,0.83c0,0.66,0.86,0.92,1.81,1.31c1.16,0.49,2.46,1.23,2.46,3.13
				c0,1.88-1.31,3.36-3.76,3.36C102.43,137.28,101.04,136.69,100.12,135.83z"/>
			<path d="M108.29,135.83l1.22-1.92c0.83,0.71,1.6,1.09,2.36,1.09c0.81,0,1.16-0.35,1.16-0.9c0-0.69-0.91-1-1.85-1.42
				c-1.12-0.49-2.42-1.34-2.42-3.06c0-1.94,1.38-3.26,3.5-3.26c1.4,0,2.45,0.65,3.23,1.32l-1.21,1.85
				c-0.65-0.54-1.29-0.89-1.93-0.89c-0.7,0-1.05,0.31-1.05,0.83c0,0.66,0.86,0.92,1.81,1.31c1.16,0.49,2.46,1.23,2.46,3.13
				c0,1.88-1.31,3.36-3.76,3.36C110.6,137.28,109.22,136.69,108.29,135.83z"/>
			<path d="M40.12,157.03c0-3.46,2.14-5.46,4.46-5.46s4.46,2,4.46,5.46c0,3.46-2.14,5.46-4.46,5.46S40.12,160.48,40.12,157.03z
				 M46.26,157.03c0-1.8-0.56-2.97-1.68-2.97c-1.12,0-1.68,1.17-1.68,2.97s0.56,2.97,1.68,2.97
				C45.7,159.99,46.26,158.83,46.26,157.03z"/>
			<path d="M50.14,151.93l1.37-0.12h4.21v2.42h-5.58V151.93z M51.36,151.27c0-2.2,0.9-4,3.37-4c0.76,0,1.42,0.19,1.83,0.37
				l-0.49,2.28c-0.31-0.14-0.65-0.22-0.95-0.22c-0.66,0-1.04,0.42-1.04,1.49v11.05h-2.71V151.27z"/>
			<path d="M63.29,161.12h-0.07L63,162.23h-2.12v-14.71h2.71v3.59l-0.07,1.6c0.69-0.71,1.56-1.15,2.42-1.15
				c2.22,0,3.59,2.08,3.59,5.28c0,3.59-1.87,5.64-3.85,5.64C64.86,162.48,64.02,162.01,63.29,161.12z M66.75,156.89
				c0-1.87-0.51-2.81-1.59-2.81c-0.56,0-1.04,0.28-1.57,0.93v4.28c0.49,0.49,1,0.66,1.46,0.66
				C65.99,159.96,66.75,159.05,66.75,156.89z"/>
			<path d="M71.45,151.81h2.21l0.2,1.82h0.07c0.67-1.39,1.67-2.07,2.6-2.07c0.52,0,0.83,0.08,1.09,0.21l-0.45,2.66
				c-0.33-0.09-0.59-0.17-0.99-0.17c-0.69,0-1.53,0.51-2.02,1.93v6.04h-2.71V151.81z"/>
			<path d="M78.26,157.03c0-3.38,2.12-5.46,4.32-5.46c2.61,0,3.9,2.16,3.9,5c0,0.56-0.06,1.11-0.11,1.36h-5.48
				c0.24,1.51,1.15,2.2,2.37,2.2c0.69,0,1.31-0.24,1.98-0.68l0.9,1.86c-0.94,0.74-2.16,1.17-3.25,1.17
				C80.28,162.48,78.26,160.48,78.26,157.03z M84.16,155.89c0-1.15-0.44-1.97-1.52-1.97c-0.86,0-1.6,0.65-1.78,1.97H84.16z"/>
			<path d="M87.93,159.34c0-2.2,1.53-3.38,5.15-3.82c-0.05-0.91-0.45-1.51-1.45-1.51c-0.77,0-1.53,0.37-2.42,0.94l-0.96-2.03
				c1.16-0.81,2.47-1.37,3.91-1.37c2.34,0,3.64,1.52,3.64,4.71v5.96h-2.21l-0.2-1.07h-0.07c-0.77,0.77-1.63,1.32-2.66,1.32
				C88.99,162.48,87.93,161.1,87.93,159.34z M93.08,159.2v-1.82c-1.93,0.3-2.56,0.92-2.56,1.71c0,0.67,0.41,1,1.05,1
				C92.19,160.1,92.6,159.75,93.08,159.2z"/>
			<path d="M98.44,158.44v-4.21h-1.25v-2.3l1.4-0.12l0.32-2.77h2.24v2.77h2.19v2.42h-2.19v4.17c0,1.18,0.47,1.65,1.19,1.65
				c0.3,0,0.63-0.1,0.87-0.2l0.43,2.24c-0.49,0.18-1.15,0.38-2.03,0.38C99.34,162.48,98.44,160.86,98.44,158.44z"/>
			<path d="M105.14,147.52h2.71v3.59l-0.12,1.89c0.69-0.71,1.58-1.44,2.83-1.44c1.99,0,2.84,1.6,2.84,4.2v6.47h-2.71v-6.07
				c0-1.5-0.35-1.97-1.14-1.97c-0.68,0-1.1,0.36-1.69,1.01v7.03h-2.71V147.52z"/>
		</g>
	</g>
	<g>
		<g>
			<path d="M348.29,135.16h3.25l3.78,13.68h-2.88l-1.57-6.93c-0.33-1.37-0.66-2.99-0.98-4.41h-0.07c-0.29,1.45-0.61,3.05-0.95,4.41
				l-1.58,6.93h-2.78L348.29,135.16z M347,143.18h5.79v2.4H347V143.18z"/>
			<path d="M356.4,138.43h2.21l0.2,1.32h0.07c0.77-0.84,1.69-1.57,2.94-1.57c1.99,0,2.84,1.6,2.84,4.2v6.47h-2.71v-6.07
				c0-1.5-0.35-1.97-1.14-1.97c-0.68,0-1.1,0.36-1.69,1.01v7.03h-2.71V138.43z"/>
			<path d="M368.83,143.42l-2.65-5h2.91l0.81,1.68c0.25,0.58,0.52,1.2,0.78,1.78h0.07c0.2-0.58,0.43-1.2,0.63-1.78l0.62-1.68h2.81
				l-2.65,5.35l2.81,5.07h-2.91l-0.9-1.72c-0.29-0.6-0.56-1.23-0.86-1.81h-0.07c-0.23,0.59-0.47,1.2-0.71,1.81l-0.71,1.72h-2.81
				L368.83,143.42z"/>
			<path d="M376.23,135.29c0-0.95,0.66-1.61,1.57-1.61c0.91,0,1.57,0.67,1.57,1.61c0,0.94-0.66,1.61-1.57,1.61
				C376.89,136.9,376.23,136.23,376.23,135.29z M376.44,138.43h2.71v10.42h-2.71V138.43z"/>
			<path d="M381,143.64c0-3.38,2.12-5.46,4.32-5.46c2.61,0,3.9,2.16,3.9,5c0,0.56-0.06,1.11-0.11,1.36h-5.48
				c0.24,1.51,1.15,2.2,2.37,2.2c0.69,0,1.31-0.24,1.98-0.68l0.9,1.86c-0.94,0.74-2.16,1.17-3.25,1.17
				C383.02,149.1,381,147.09,381,143.64z M386.9,142.5c0-1.15-0.44-1.97-1.52-1.97c-0.86,0-1.6,0.65-1.78,1.97H386.9z"/>
			<path d="M391.46,145.06v-4.21h-1.25v-2.3l1.4-0.12l0.32-2.77h2.24v2.77h2.19v2.42h-2.19v4.17c0,1.18,0.47,1.65,1.18,1.65
				c0.3,0,0.63-0.1,0.87-0.2l0.43,2.24c-0.49,0.18-1.15,0.38-2.03,0.38C392.35,149.1,391.46,147.47,391.46,145.06z"/>
			<path d="M397.88,152.71l0.48-2.35c0.17,0.05,0.42,0.13,0.62,0.13c0.89,0,1.36-0.56,1.6-1.37l0.14-0.54l-3.53-10.15h2.72
				l1.31,4.48c0.26,0.94,0.48,1.93,0.72,2.95h0.07c0.2-0.99,0.41-1.97,0.64-2.95l1.11-4.48h2.6l-3.18,10.53
				c-0.87,2.61-1.84,3.96-4,3.96C398.61,152.92,398.25,152.83,397.88,152.71z"/>
		</g>
	</g>
</g>
<image style="overflow:visible;" width="1040" height="678" xlink:href="E4588BAB.png"  transform="matrix(0.5 0 0 0.5 -542.5777 -33.8867)">
</image>
<g>
	<g>
		<g>
			<g>
				<path d="M363.83,88.97c-83.28-70.91-206.48-68.03-286.58,6.72l-8.12-8.71c41.06-38.32,94.57-60.02,150.67-61.11
					c55.66-1.08,109.56,18.11,151.75,54.04L363.83,88.97z"/>
			</g>
		</g>
		<g>
			<g>
				<g>
					<polygon points="375.86,68.07 386.22,102.15 351.52,94.09 					"/>
				</g>
			</g>
		</g>
	</g>
	<g>
		<g>
			<g>
				<path d="M245.96,258.47c-2.52,0.24-5.04,0.43-7.57,0.59c-55.57,3.39-110.21-13.55-153.86-47.7l7.34-9.38
					c86.15,67.4,209.12,59.41,286.05-18.58l8.48,8.36C348.75,229.93,299.12,253.45,245.96,258.47z"/>
			</g>
		</g>
		<g>
			<g>
				<g>
					<polygon points="80.72,223.36 68.95,189.74 103.95,196.35 					"/>
				</g>
			</g>
		</g>
	</g>
</g>
</svg>
