<?xml version="1.0" encoding="utf-8"?>
<!-- Generator: Adobe Illustrator 24.0.2, SVG Export Plug-In . SVG Version: 6.00 Build 0)  -->
<svg version="1.1" id="Layer_1" xmlns="http://www.w3.org/2000/svg" xmlns:xlink="http://www.w3.org/1999/xlink" x="0px" y="0px"
	 viewBox="0 0 453.54 343.08" style="enable-background:new 0 0 453.54 343.08;" xml:space="preserve">
<line style="fill:none;stroke:#939598;stroke-width:0.5;stroke-linejoin:round;" x1="192.21" y1="112.58" x2="299.06" y2="112.58"/>
<line style="fill:none;stroke:#939598;stroke-width:0.5;stroke-linejoin:round;" x1="226.13" y1="134.8" x2="299.06" y2="134.8"/>
<line style="fill:none;stroke:#939598;stroke-width:0.5;stroke-linejoin:round;" x1="265.59" y1="168.26" x2="299.06" y2="168.26"/>
<line style="fill:none;stroke:#939598;stroke-width:0.5;stroke-linejoin:round;" x1="270.61" y1="189.53" x2="299.06" y2="189.53"/>
<line style="fill:none;stroke:#939598;stroke-width:0.5;stroke-linejoin:round;" x1="224.95" y1="210.63" x2="299.06" y2="210.63"/>
<line style="fill:none;stroke:#939598;stroke-width:0.5;stroke-linejoin:round;" x1="248.87" y1="233.69" x2="299.06" y2="233.69"/>
<line style="fill:none;stroke:#939598;stroke-width:0.5;stroke-linejoin:round;" x1="217.27" y1="255.93" x2="299.06" y2="255.93"/>
<g id="XMLID_495_">
	<path id="XMLID_178_" style="stroke:#231F20;stroke-width:0.25;stroke-miterlimit:10;" d="M211.35,195.26
		c0.75-0.33,1.55-0.13,2.33-0.09c1.27,0.05,2.61-0.22,3.86,0.08c1.93,0.46,3.32,2.52,4.75,3.77c0.82,0.72,1.52,1.45,1.94,2.3
		c0.64,0.83,0.96,1.67,0.48,2.38c-0.11,0.17-0.32,0.24-0.51,0.13c-1.01-0.59-1.81-1.39-2.65-2.14c-0.08,0-0.15-0.02-0.21-0.05
		c-0.91-0.44-1.47-1.12-2.53-1.28c-0.92-0.14-1.89,0.13-2.78,0.3c-2.03,0.39-3.49,0.02-5.49-0.5c-0.55-0.14-0.97-0.7-0.96-1.26
		C209.62,197.59,210.05,195.84,211.35,195.26z"/>
	<path id="XMLID_25_" style="stroke:#231F20;stroke-width:0.25;stroke-miterlimit:10;" d="M138.38,146.07
		c4.03-2.08,8.8-2.73,13.7-2.78c1.2-0.07,2.41-0.04,3.62,0.06c4.77,0.21,9.52,0.82,13.7,1.13c5.27,0.39,10.11,1.19,14.62,4.17
		c2.63,1.74,4.53,4.22,6.93,6.21c2.23,1.84,4.98,2.51,7.08,4.5c0.19,0.18-0.09,0.44-0.29,0.29c-1.84-1.46-4.34-1.79-6.36-2.96
		c-0.01,0.18-0.18,0.34-0.4,0.24c-10.63-4.98-22.83-9.35-34.76-11.21c-5.9-0.43-11.84-0.35-17.41,1.34
		C138.22,147.24,137.83,146.35,138.38,146.07z"/>
	<path id="XMLID_24_" style="stroke:#231F20;stroke-width:0.25;stroke-miterlimit:10;" d="M236.91,168.64
		c4.37-3.73,12.67-3.49,17.99-2.71c7.98,1.17,12.94,6.79,17.6,12.85c1.03,0.98,2.01,1.99,2.94,3.02c0.24,0.26,0.01,0.8-0.38,0.65
		c-5.03-2.03-8.53-6.37-13.43-8.71c-6.66-3.18-15.22-5.5-22.57-4.65c-0.04,0-0.07-0.01-0.11-0.01c-0.43,0.18-0.85,0.37-1.25,0.58
		C237.08,169.99,236.32,169.14,236.91,168.64z"/>
	<g id="XMLID_264_">
		<path id="XMLID_332_" style="stroke:#231F20;stroke-width:0.25;stroke-miterlimit:10;" d="M230.49,257.16
			c-1.96-4.05-1.65-8.69-3.34-12.8c-2.48-6.02-11.54-7.36-17.23-8.93c-7.86-2.17-13.85-0.52-21.28,2.26
			c-6.98,2.62-14.3,4.96-21.56,6.66c-1.07,0.25-1.4-1.2-0.44-1.6c8.28-3.45,17.35-5.68,25.85-8.63c7.24-2.51,12.81-2.07,20.01,0.06
			c4.56,1.35,11.29,2.67,14.33,6.74c3.14,4.2,3.03,11.18,3.89,16.13C230.75,257.2,230.56,257.31,230.49,257.16L230.49,257.16z"/>
	</g>
	<g id="XMLID_271_">
		<path id="XMLID_339_" style="stroke:#231F20;stroke-width:0.25;stroke-miterlimit:10;" d="M168.61,242.79
			c-5.87,10.54-0.45,21.99,10.19,26.19c8.49,3.35,17.69,5.59,26.41,8.22c7.67,2.31,17.56,6.71,21.37-2.85
			c3.73-9.35,6.4-19.03,5.62-29.1c-0.06-0.75,1.09-0.87,1.28-0.17c1.68,5.98,0.54,11.87-1.26,17.69
			c-1.52,4.91-2.63,10.82-5.36,15.26c-4.64,7.53-15.67,2.87-22.13,0.93c-6.82-2.06-13.56-4.32-20.43-6.24
			c-5.03-1.41-10.54-2.99-14.51-6.58c-6.1-5.5-7.78-17.76-2.31-24.2C168.02,241.29,168.99,242.1,168.61,242.79L168.61,242.79z"/>
	</g>
	<g id="XMLID_278_">
		<path id="XMLID_346_" style="stroke:#231F20;stroke-width:0.25;stroke-miterlimit:10;" d="M227.29,261.04
			c-0.07,3.14-0.38,6.44-1.62,9.36c-0.85,2.01-2.66,5.13-5.22,4.99c-0.25-0.01-0.33-0.32-0.12-0.46c2.64-1.82,3.99-3.3,5.14-6.38
			c0.89-2.4,1.48-4.95,1.69-7.5C227.15,260.96,227.29,260.95,227.29,261.04L227.29,261.04z"/>
	</g>
	<g id="XMLID_285_">
		<path id="XMLID_353_" style="stroke:#231F20;stroke-width:0.25;stroke-miterlimit:10;" d="M223.75,277.7
			c-5.36-1.59-11.19-2.72-16.33-4.91c-2.7-1.15-5.21-2.68-7.93-3.77c-3.34-1.34-6.78-1.63-10.34-1.9
			c-8.48-0.65-17.88-1.2-22.86-9.12c-0.39-0.63,0.54-1.38,1.04-0.8c7.58,8.76,17.65,7,27.96,8.77c4.51,0.77,8.15,3.21,12.26,5.06
			c5.39,2.44,11.55,2.6,16.45,6.11C224.26,277.33,224.11,277.81,223.75,277.7L223.75,277.7z"/>
	</g>
	<g id="XMLID_292_">
		<path id="XMLID_360_" style="stroke:#231F20;stroke-width:0.25;stroke-miterlimit:10;" d="M167.79,243.76
			c5.68,6.94,13.03,8.54,21.5,9.85c6,0.93,13.67,1.72,18.06,6.43c0.48,0.51-0.12,1.3-0.75,0.97c-7.65-4.07-14.92-5.05-23.29-6.8
			c-6.48-1.36-12.84-3.86-16.33-9.83C166.7,243.9,167.41,243.3,167.79,243.76L167.79,243.76z"/>
	</g>
	<g id="XMLID_299_">
		<path id="XMLID_367_" style="stroke:#231F20;stroke-width:0.25;stroke-miterlimit:10;" d="M171.37,240.75
			c7.55-0.26,14.65,5.77,19.42,11.03c0.25,0.27-0.08,0.78-0.42,0.54c-6.15-4.44-11.1-9.56-19-10.46
			C170.68,241.78,170.64,240.77,171.37,240.75L171.37,240.75z"/>
	</g>
	<g id="XMLID_306_">
		<path id="XMLID_374_" style="stroke:#231F20;stroke-width:0.25;stroke-miterlimit:10;" d="M180.64,243.15
			c11.72,6.73,26.43,6.38,35.49,17.59c1.97,2.44,4.12,6.26,1.66,9.16c-2.7,3.19-9.29,2.3-12.81,1.6c-0.83-0.17-0.88-1.61,0-1.73
			c1.5-0.21,2.94-0.11,4.45-0.08c0.79,0.01,2.05,0.29,2.8,0.02c1.48-0.53,3.89-4.58,3.54-6.1c-0.82-3.6-8.23-8.19-11.17-9.59
			c-7.9-3.78-17.9-3.95-24.54-10.11C179.66,243.52,180.18,242.88,180.64,243.15L180.64,243.15z"/>
	</g>
	<g id="XMLID_313_">
		<path id="XMLID_381_" style="stroke:#231F20;stroke-width:0.25;stroke-miterlimit:10;" d="M227.71,242.72
			c-2.12,3.65-7.89,1.47-10.93,0.46c-7.21-2.39-15.08-4.5-21.48-8.65c-0.59-0.38-0.23-1.46,0.5-1.19
			c5.67,2.09,11.16,4.59,16.86,6.64c3.46,1.24,10.96,5.36,14.15,2.04C227.27,241.55,228.04,242.16,227.71,242.72L227.71,242.72z"/>
	</g>
	<g id="XMLID_320_">
		<path id="XMLID_388_" style="stroke:#231F20;stroke-width:0.25;stroke-miterlimit:10;" d="M232.98,248.64
			c-0.01-3.1-0.06-6.38-0.94-9.36c-0.57-1.95-1.4-4.06-2.84-5.54c-2.23-2.28-5.4-2.02-8.31-2.42c-6.24-0.86-11.69-2.97-18.14-2.5
			c-12.42,0.91-26.86,4.41-35.29,14.22c-0.72,0.84-1.86-0.36-1.2-1.2c8.9-11.25,27.58-15.32,41.26-14.92
			c4.07,0.12,7.62,1.78,11.57,2.43c3.52,0.58,7.35,0.06,10.32,2.42c4.73,3.77,5.19,11.51,4.44,16.99
			C233.78,249.25,232.98,249.12,232.98,248.64L232.98,248.64z"/>
	</g>
	<g id="XMLID_327_" style="opacity:0.8;">
		<path id="XMLID_395_" style="stroke:#231F20;stroke-width:0.25;stroke-miterlimit:10;" d="M210.18,291.62
			c-6.6-5.45-12.29-7.6-20.81-6.57c-3.58,0.43-9.13,1.78-11.48-1.86c-0.16-0.25,0.15-0.53,0.4-0.4c5.64,3.06,12.03-0.05,18,0.47
			c6.23,0.54,9.8,4.1,14.11,8.13C210.56,291.53,210.34,291.74,210.18,291.62L210.18,291.62z"/>
	</g>
	<g id="XMLID_348_">
		<path id="XMLID_416_" style="stroke:#231F20;stroke-width:0.25;stroke-miterlimit:10;" d="M221.19,310.86
			c-10.59,12.33-29.96,16.07-45.41,12.04c-18.32-4.77-32.04-22.34-44.06-35.75c-0.2-0.22,0.1-0.52,0.32-0.32
			c7.36,6.45,13.15,14.24,21.03,20.19c6.3,4.75,12.83,9.82,20.28,12.63c15.27,5.75,36.15,3.09,47.47-9.14
			C221.06,310.26,221.41,310.62,221.19,310.86L221.19,310.86z"/>
	</g>
	<g id="XMLID_13_">
		<path id="XMLID_21_" style="stroke:#231F20;stroke-width:0.25;stroke-miterlimit:10;" d="M11.17,152.02
			c9.69-11.75,28.2-9.78,40.38-3.21c0.67,0.36,0.18,1.28-0.49,1.16c-7.84-1.42-15.09-4.67-23.27-3.85
			c-7.99,0.8-15.02,5.76-17.92,13.32c-5.67,14.76,4.63,27.64,13.2,38.53c3.74,4.75,6.71,9.69,9.61,14.98
			c1.59,2.9,3.57,5.33,5.72,7.6c0.3,0.02,0.59,0.16,0.76,0.49c0.1,0.19,0.18,0.39,0.27,0.59c2.42,2.44,5.01,4.74,7.51,7.28
			c4.37,4.43,8.32,12.33,14.87,13.73c9.33,1.99,14.76-8.25,15.06-15.99c0.04-0.93,1.56-1.25,1.71-0.23
			c1.37,9.35-5.99,19.73-16.05,18.85c-5.98-0.52-9.41-5.35-12.94-9.6c-2.25-2.72-4.87-5.12-7.49-7.5
			c3.31,9.37,5.04,19.34,9.34,28.37c4.95,10.4,11.91,19.83,20.76,27.22c20.23,16.9,46.6,22.12,68.06,36.67
			c18.41,12.49,47.53,19.74,68.3,8.87c10.73-5.62,17.94-16.11,27.24-23.68c10.01-8.14,19.15-15.94,25.25-27.58
			c7.36-14.03,11.61-30.02,12.55-45.8c0.86-14.5,11.84-30.1,1.1-43.63c-0.09-0.13-0.15-0.29-0.12-0.49
			c2.7-20.02-4.41-38.69-6.58-58.42c-2.16-19.57-0.05-39.72-12.84-56.23c-0.28-0.36,0.2-0.87,0.51-0.51
			c13.09,15.22,12.43,33.79,14.4,52.69c1.23,11.82,3.46,23.37,5.96,34.97c1.79,8.28,1.55,17.27,0.36,25.44
			c11.05,20.5,0.38,30.82-0.48,46.17c-0.77,13.78-4.09,27.23-9.39,39.96c-5.24,12.58-12.84,22.22-23.3,30.83
			c-4.79,3.94-9.74,7.7-14.2,12.04c-4.55,4.43-8.34,9.39-13.53,13.13c-18.87,13.59-44.69,9.73-64.92,1.31
			c-5.33-2.22-10.04-5.53-14.78-8.77c-6.74-4.6-13.64-7.46-21.19-10.5c-12.71-5.11-25.28-11.1-36.66-18.75
			c-10.54-7.09-19.1-16.18-25.46-27.18c-7.15-12.36-10.27-26.41-14.44-39.97c-1.55-1.52-3.03-3.1-4.34-4.82
			c-4.24-5.57-6.83-12.2-11.09-17.81c-4.21-5.55-8.98-10.73-12.36-16.87C4.67,174.69,3.4,161.45,11.17,152.02z"/>
		<path id="XMLID_133_" style="stroke:#231F20;stroke-width:0.25;stroke-miterlimit:10;" d="M58.15,210.34
			c-6.28-3.69-13.02-1.3-17.29-8.4c-0.06-0.1-0.03-0.19,0.03-0.26c-3.11-3.56-4-9.66-3.55-13.97c0.05-0.45,0.67-0.46,0.71,0
			c0.32,4.82,1.53,11.37,4.95,15.01c0.1,0.11,0.09,0.25,0.03,0.37c2.24,1.72,4.41,2.83,7.45,3.35c2.76,0.47,5.63,0.72,8.18,2.01
			c1.67,0.85,2.65,2.43,4.17,3.39c0.8,1.24,1.94,1.48,3.44,0.73c2.48,0.61,3.17-0.11,2.07-2.18c-0.26-1.47-1.3-3.23-2.1-4.45
			c-2.13-3.28-5.67-5.37-7.12-8.99c-1.44,0.75-2.84,1.62-4.14,2.59c-1.49,1.11-2.61,2.75-4.11,3.77c-0.33,0.22-0.67-0.14-0.61-0.47
			c0.31-1.7,2.32-3.12,3.61-4.08c1.52-1.13,3.16-2.06,4.94-2.71c-0.05-0.19-0.11-0.39-0.15-0.59c-0.55-2.7-0.2-5.63,0.44-8.59
			c-4.51,4.85-12.92,11.05-16.74,4.47c-0.23-0.4,0.23-0.88,0.64-0.64c5.37,3.16,9.99-0.33,13.98-4.11
			c-1.29-4.32-2.69-9.8-4.66-15.09c-0.03,0.13-0.1,0.26-0.25,0.35c-3.3,2.15-5.91,4.86-7.47,8.5c-1.36,3.16-1.27,6.45-2.06,9.72
			c-0.08,0.33-0.6,0.34-0.68,0c-1.77-7.64,3.44-15.35,9.64-19.2c0.22-0.14,0.43-0.1,0.59,0.02c-0.59-1.54-1.23-3.06-1.93-4.53
			c-2.6,2.26-6.33,4.22-9.73,3.02c-0.25-0.09-0.31-0.5,0-0.56c1.81-0.33,3.6-0.36,5.34-1.01c1.44-0.53,2.77-1.3,4.16-1.93
			c-3.47-7.05-8.43-12.72-16.21-13.14c-13.1-0.7-16.65,15.44-13.14,25.15c1.49,4.12,3.64,7.91,5.67,11.73
			c-0.81-4.48-1.27-9.02-1.08-13.57c0.32-7.51,2.49-15.2,10.17-18c0.36-0.13,0.62,0.47,0.26,0.63c-8.48,3.65-9.48,13.65-8.84,21.79
			c0.32,4.1,1.02,8.17,1.94,12.18c0.47,2.06,1.24,4.15,1.75,6.24c0.62,1.84,1.1,3.74,1.36,5.75c0.05,0.4-0.53,0.41-0.66,0.09
			c-0.31-0.79-0.63-1.57-0.94-2.35c-0.15-0.04-0.3-0.11-0.39-0.25c-1.12-1.72-1.81-3.89-2.32-6.09c-1.92-4.28-4.01-8.45-6.42-12.65
			c-2.41-4.19-4.06-8.48-4-13.39c0.11-8.64,4.91-17.84,14.35-18.78c17.68-1.77,22.74,21.97,25.78,35.15
			c0.9-0.86,1.77-1.73,2.61-2.53c0.76-2.95,1.6-5.86,1.89-8.53c0.03-0.29,0.44-0.3,0.46,0c0.22,4.71-0.56,9.04-1.25,13.67
			c-0.9,6.14,0.66,8.5,4.59,12.67c2.46,2.61,7.51,9.49,4.45,13.23C66.07,219.63,61.05,212.05,58.15,210.34z"/>
		<path id="XMLID_134_" style="stroke:#231F20;stroke-width:0.25;stroke-miterlimit:10;" d="M238.6,176.39
			c0.76,1.53,1.89,2.91,2.97,4.29c3.95,3.34,8.31,5.81,12.92,8.38c0.45,0.25,0.05,0.91-0.4,0.68c-3.12-1.55-6.95-3.17-10.11-5.39
			c1.6,3.52-0.56,9.1,1.66,10.9c2.59,2.09,3.15,6.42,1.78,9.92c-0.47,1.19-1.33,1.78-2.27,2.2c6.81,4.67,4.98,20.27,4.48,26.83
			c-0.46,5.98-1.65,11.23-4.37,16.63c-2.2,4.36-4.48,8.6-6.05,13.25c-1.43,4.23-2.26,8.64-3.8,12.83c-0.14,0.38-0.65,0.22-0.59-0.16
			c0.93-6.84,3.22-13.86,6.17-20.1c3.14-6.64,6.53-12.36,7.3-19.82c0.9-8.76,2.73-22.08-3.66-29.24c-1.16,0.45-2.34,0.78-2.96,1.75
			c-0.22,0.35-0.7,0.18-0.74-0.2c-0.01-0.15-0.03-0.3-0.04-0.45c-0.02-0.19,0.12-0.39,0.27-0.47c0.54-0.31,1.29-0.67,1.75-1.08
			c5.22-4.64,5.23-7.88,1.82-10.21c-2.67-1.83-0.96-5.94-1.24-9.66c-0.34-4.39-4.85-7.11-6.16-11.15
			c-2.41-5.18-3.32-11.31-1.82-16.44l0,0c-7-7.34-19.33-6.02-28.6-6.8c-0.18-0.02-0.18-0.27,0-0.28c7.96-0.68,23.85-1.62,28.78,6.49
			c1.27-3.81,3.94-7.02,8.39-8.78c0.19-0.08,0.33,0.25,0.14,0.34C233.07,156,236.11,166.88,238.6,176.39z"/>
		<path id="XMLID_135_" style="stroke:#231F20;stroke-width:0.25;stroke-miterlimit:10;" d="M221.15,207.89
			c4.31,5.31,8.13-1.1,12.84-1.33c0.37-0.02,0.41,0.44,0.17,0.62c-2.05,1.55-5.44,3.4-8,3.85c-2.48,0.44-4.15-0.78-5.31-2.92
			C220.75,207.94,221.01,207.71,221.15,207.89z"/>
		<path id="XMLID_136_" style="stroke:#231F20;stroke-width:0.25;stroke-miterlimit:10;" d="M188.44,133.84
			c-4.98-2.06-10.21-2.42-15.47-3.3c-0.45-0.08-0.27-0.68,0.1-0.73c6.61-0.86,13.26,0.7,18.94,3.98c0.12-0.09,0.28-0.12,0.45-0.03
			c1,0.56,1.85,1.24,2.59,2.01c2.93,2.16,5.51,4.8,7.55,7.82c0.15,0.23-0.18,0.47-0.37,0.29c-1.58-1.53-3.16-3.02-4.8-4.39
			c0.36,0.9,0.62,1.86,0.77,2.87c0.27,1.77,0.17,3.53,0.25,5.3c0.19,3.96,1.27,7.48,2.58,11.19c0.13,0.36-0.46,0.62-0.63,0.26
			c-1.76-3.72-2.9-7.33-3.09-11.45c-0.22-4.58-0.94-7.57-3.29-10.77C192.3,135.72,190.46,134.68,188.44,133.84z"/>
		<path id="XMLID_137_" style="stroke:#231F20;stroke-width:0.25;stroke-miterlimit:10;" d="M194.24,153.79
			c0.08,0.4-0.5,0.57-0.61,0.17c-2.21-7.71-12.5-11.64-19.67-12.7c-8.34-1.23-16.8-0.76-25.15-0.01c-0.42,0.04-0.42-0.54-0.09-0.68
			C160.61,135.59,190.89,137.3,194.24,153.79z"/>
		<path id="XMLID_138_" style="stroke:#231F20;stroke-width:0.25;stroke-miterlimit:10;" d="M195.67,163.61
			c-16.52,5.1-31.53-1.48-44.21-12.39c-0.22-0.19,0.06-0.53,0.3-0.39c6.6,3.83,12.72,8.54,19.89,11.33
			c7.69,2.99,15.99,3.28,23.94,1.14C195.79,163.25,195.87,163.55,195.67,163.61z"/>
		<path id="XMLID_139_" style="stroke:#231F20;stroke-width:0.25;stroke-miterlimit:10;" d="M197.97,124.45
			c0.11,0.09-0.04,0.28-0.15,0.19c-5.59-3.98-12.95,0.32-19.14,0.6c-5.8,0.26-11.11-0.19-16.8,1.34c-0.42,0.11-0.62-0.44-0.29-0.68
			c5.22-3.67,13.23-1.42,19.15-2.04C187.17,123.19,192.35,119.98,197.97,124.45z"/>
		<path id="XMLID_143_" style="stroke:#231F20;stroke-width:0.25;stroke-miterlimit:10;" d="M211.67,128.11
			c-3.29-6.55-7.85-12.32-15.46-13.4c-5.65-0.8-11.51-0.08-17.02-1.72c-0.32-0.09-0.28-0.65,0.08-0.61
			c6.95,0.77,15.25-0.22,21.84,2.42c5.42,2.17,8.98,7.8,11.19,12.93C212.49,128.16,211.89,128.54,211.67,128.11z"/>
		<path id="XMLID_145_" style="stroke:#231F20;stroke-width:0.25;stroke-miterlimit:10;" d="M265.86,149.08
			c-2.58-2.11-5.36-1.73-8.4-1.17c-2.18,0.4-4.36,0.59-6.54,0.95c-0.08,0.01-0.1-0.11-0.02-0.11c4.79-0.2,11.86-5.96,15.57-0.14
			C266.74,149,266.19,149.34,265.86,149.08z"/>
		<path id="XMLID_146_" style="stroke:#231F20;stroke-width:0.25;stroke-miterlimit:10;" d="M271.9,175.68
			c0.11,0.75-0.86,1.3-1.3,0.55c-3.53-5.94-6.1-10.75-13.11-13.13c-7.15-2.44-12.13,1.56-18.99,1.69c-0.23,0-0.25-0.31-0.05-0.38
			c7.43-2.68,14.65-5.49,22.27-2.06C266.03,164.73,271.02,169.74,271.9,175.68z"/>
		<path id="XMLID_147_" style="stroke:#231F20;stroke-width:0.25;stroke-miterlimit:10;" d="M195.84,183.85
			c1.59-2.94,3.66-5.45,5.9-6.93c0.08-0.06,0.18,0.07,0.11,0.14c-3.87,3.83-7.02,8.9-7.74,14.37c-0.96,7.29,3.07,10.43,8.95,13.52
			c0.26,0.14,0.14,0.55-0.15,0.54c-12-0.21-11.83-12.32-7.36-21.08c-26.38,21.26-32.94,56.99-56.19,80.78
			c-0.25,0.25-0.62-0.13-0.39-0.39C161.21,240.1,168.81,204.41,195.84,183.85z"/>
		<path id="XMLID_148_" style="stroke:#231F20;stroke-width:0.25;stroke-miterlimit:10;" d="M213.68,158.54
			c-0.17,0-0.22-0.28-0.04-0.31c6.26-1.17,13.08-0.84,18.71,2.31c0.13,0.07,0.02,0.26-0.12,0.2
			C226.27,157.68,220.1,158.43,213.68,158.54z"/>
		<path id="XMLID_39_" style="stroke:#231F20;stroke-width:0.25;stroke-miterlimit:10;" d="M236.73,144.27
			c0.17,0.05,0.13,0.33-0.05,0.31c-6.32-0.76-12.74-3.11-17.16-7.81c-0.1-0.11,0.06-0.26,0.17-0.15
			C224.46,141.32,230.57,142.45,236.73,144.27z"/>
		<path id="XMLID_38_" style="stroke:#231F20;stroke-width:0.25;stroke-miterlimit:10;" d="M113.64,204.39
			c-0.08,0.34-1.18,0.14-1.22-0.24c-1.29-13.17,3.46-25.89,18.46-33.41c0.34-0.17,1.03,0.24,0.7,0.42
			C116.78,179.43,116.51,192,113.64,204.39z"/>
		<path id="XMLID_1_" style="stroke:#231F20;stroke-width:0.25;stroke-miterlimit:10;" d="M254.93,133.81
			c-2.19,0.87-4.06,1.52-5.65,3.37c-1.46,1.7-2.59,3.9-3.31,6.01c-0.06,0.17-0.3,0.1-0.27-0.07c0.69-4.23,3.96-10.41,9.16-9.81
			C255.15,133.34,255.2,133.7,254.93,133.81z"/>
		<path id="XMLID_149_" style="stroke:#231F20;stroke-width:0.25;stroke-miterlimit:10;" d="M254.93,133.81
			c-2.19,0.87-4.06,1.52-5.65,3.37c-1.46,1.7-2.59,3.9-3.31,6.01c-0.06,0.17-0.3,0.1-0.27-0.07c0.69-4.23,3.96-10.41,9.16-9.81
			C255.15,133.34,255.2,133.7,254.93,133.81z"/>
	</g>
	<path style="stroke:#231F20;stroke-width:0.25;stroke-miterlimit:10;" d="M244.65,59.24c-29.98-32.02-75.38-49.45-119.09-44.56
		c-14.84,1.66-29.35,5.67-43.29,11c-7.28,2.78-14.52,5.98-20.59,10.87c-9.51,7.66-15.51,18.82-20.95,29.53
		c-5.68,11.18-10.36,22.85-14.1,34.82c-4.5,14.38-7.64,29.18-9.52,44.13c5.75-26.07,14.95-51.39,26.64-75.38
		c4.57-9.38,9.13-19.82,16.63-27.29c5.17-5.17,11.76-8.67,18.41-11.73c21.57-9.9,45.21-15.9,68.93-15.17
		c42.44,1.31,82.65,24.7,108.69,58.24C252.84,68.6,248.9,63.77,244.65,59.24z"/>
	<path id="XMLID_117_" style="stroke:#231F20;stroke-width:0.25;stroke-miterlimit:10;" d="M233.13,205.78
		c0.4-0.38,0.9-0.5,1.3-0.82c0.42-0.34,0.53-0.85,0.91-1.23c0.75-0.75,2.27-1.17,3.26-1.38c1.27-0.26,3.16-0.32,4.44-0.04
		c1.03,0.23,1.01,1.08,1.79,1.54c0.24,0.14,0.08,0.52-0.19,0.45c-0.75-0.18-1.45-0.68-2.23-0.76c-0.32-0.03-0.67-0.04-1.02-0.03
		c0.02,0.27-0.08,0.55-0.39,0.8c-0.96,0.76-1.44,1.33-2.6,1.77c-1.37,0.53-2.66,1.27-4.05,1.79
		C233.16,208.32,232.26,206.61,233.13,205.78z"/>
</g>
<g>
	<g>
		<path style="fill:#231F20;" d="M303.81,109.35h2.17c1.39,0,2.42,0.45,2.42,1.77c0,0.68-0.35,1.34-0.94,1.56v0.04
			c0.75,0.18,1.3,0.73,1.3,1.71c0,1.44-1.11,2.11-2.61,2.11h-2.34V109.35z M305.87,112.32c0.95,0,1.35-0.39,1.35-1.02
			c0-0.7-0.44-0.96-1.32-0.96h-0.88v1.98H305.87z M306.03,115.55c1,0,1.55-0.38,1.55-1.19c0-0.76-0.54-1.09-1.55-1.09h-1.02v2.28
			H306.03z"/>
		<path style="fill:#231F20;" d="M309.9,111.14h0.98l0.09,0.96H311c0.36-0.7,0.9-1.1,1.45-1.1c0.26,0,0.42,0.04,0.58,0.11l-0.21,1.1
			c-0.18-0.05-0.31-0.09-0.52-0.09c-0.41,0-0.9,0.29-1.2,1.12v3.3h-1.2V111.14z"/>
		<path style="fill:#231F20;" d="M313.43,113.84c0-1.8,1.15-2.84,2.42-2.84c1.27,0,2.42,1.04,2.42,2.84c0,1.79-1.15,2.83-2.42,2.83
			C314.59,116.67,313.43,115.63,313.43,113.84z M317.05,113.84c0-1.08-0.45-1.8-1.2-1.8c-0.75,0-1.19,0.72-1.19,1.8
			c0,1.08,0.45,1.79,1.19,1.79C316.6,115.64,317.05,114.93,317.05,113.84z"/>
		<path style="fill:#231F20;" d="M318.96,111.14h1.2l0.62,2.8c0.1,0.52,0.17,1.03,0.27,1.56h0.04c0.1-0.53,0.2-1.05,0.32-1.56
			l0.67-2.8h1.08l0.68,2.8c0.13,0.52,0.22,1.03,0.34,1.56h0.04c0.1-0.53,0.17-1.03,0.27-1.56l0.61-2.8h1.12l-1.29,5.4h-1.42
			l-0.6-2.52c-0.11-0.51-0.2-1-0.31-1.57h-0.04c-0.1,0.57-0.19,1.07-0.3,1.58l-0.58,2.51h-1.38L318.96,111.14z"/>
		<path style="fill:#231F20;" d="M326.72,115.92l0.56-0.81c0.45,0.37,0.89,0.6,1.41,0.6c0.56,0,0.82-0.28,0.82-0.65
			c0-0.45-0.55-0.66-1.1-0.88c-0.67-0.27-1.43-0.67-1.43-1.58c0-0.94,0.71-1.62,1.85-1.62c0.71,0,1.28,0.31,1.69,0.65l-0.55,0.78
			c-0.36-0.28-0.72-0.47-1.12-0.47c-0.51,0-0.75,0.26-0.75,0.6c0,0.43,0.51,0.59,1.07,0.8c0.69,0.27,1.46,0.63,1.46,1.63
			c0,0.93-0.69,1.68-1.98,1.68C327.95,116.67,327.22,116.36,326.72,115.92z"/>
		<path style="fill:#231F20;" d="M331.6,112.06c0-0.5,0.34-0.86,0.77-0.86s0.77,0.37,0.77,0.86c0,0.49-0.34,0.85-0.77,0.85
			S331.6,112.54,331.6,112.06z M331.6,115.82c0-0.5,0.34-0.86,0.77-0.86s0.77,0.37,0.77,0.86c0,0.49-0.34,0.85-0.77,0.85
			S331.6,116.31,331.6,115.82z"/>
		<path style="fill:#231F20;" d="M336.8,109.32h0.87v6.44h2.97v0.78h-3.84V109.32z"/>
		<path style="fill:#231F20;" d="M341.39,113.87c0-1.78,1.1-2.81,2.34-2.81s2.34,1.03,2.34,2.81c0,1.77-1.1,2.8-2.34,2.8
			S341.39,115.64,341.39,113.87z M345.18,113.87c0-1.23-0.59-2.06-1.46-2.06s-1.46,0.83-1.46,2.06s0.59,2.05,1.46,2.05
			S345.18,115.1,345.18,113.87z"/>
		<path style="fill:#231F20;" d="M346.79,111.19h0.87l0.75,3.09c0.11,0.51,0.2,0.99,0.3,1.49h0.04c0.11-0.5,0.22-0.99,0.34-1.49
			l0.78-3.09h0.83l0.79,3.09c0.12,0.51,0.23,0.99,0.35,1.49h0.04c0.11-0.5,0.2-0.98,0.31-1.49l0.74-3.09h0.81l-1.35,5.35h-1.04
			l-0.73-2.87c-0.12-0.51-0.22-1-0.34-1.54h-0.04c-0.11,0.54-0.21,1.05-0.35,1.55l-0.71,2.86h-1L346.79,111.19z"/>
		<path style="fill:#231F20;" d="M354.46,113.87c0-1.74,1.11-2.81,2.27-2.81c1.29,0,2.01,0.98,2.01,2.51c0,0.19-0.02,0.38-0.04,0.51
			h-3.4c0.06,1.13,0.71,1.87,1.68,1.87c0.48,0,0.88-0.17,1.25-0.43l0.31,0.59c-0.44,0.31-0.98,0.55-1.67,0.55
			C355.53,116.67,354.46,115.63,354.46,113.87z M357.99,113.44c0-1.07-0.45-1.65-1.24-1.65c-0.71,0-1.34,0.6-1.45,1.65H357.99z"/>
		<path style="fill:#231F20;" d="M359.99,111.19h0.71l0.07,0.97h0.03c0.35-0.68,0.87-1.11,1.43-1.11c0.22,0,0.38,0.03,0.54,0.11
			l-0.16,0.79c-0.17-0.06-0.29-0.09-0.49-0.09c-0.43,0-0.94,0.33-1.28,1.23v3.43h-0.85V111.19z"/>
		<path style="fill:#231F20;" d="M363.21,113.87c0-1.74,1.11-2.81,2.27-2.81c1.29,0,2.01,0.98,2.01,2.51c0,0.19-0.02,0.38-0.04,0.51
			h-3.4c0.06,1.13,0.71,1.87,1.68,1.87c0.48,0,0.88-0.17,1.25-0.43l0.31,0.59c-0.44,0.31-0.98,0.55-1.67,0.55
			C364.28,116.67,363.21,115.63,363.21,113.87z M366.74,113.44c0-1.07-0.45-1.65-1.24-1.65c-0.71,0-1.34,0.6-1.45,1.65H366.74z"/>
		<path style="fill:#231F20;" d="M368.37,113.87c0-1.73,1.03-2.81,2.18-2.81c0.59,0,0.97,0.23,1.41,0.62l-0.04-0.92v-2.06h0.85v7.84
			h-0.71l-0.07-0.63h-0.03c-0.39,0.42-0.93,0.76-1.53,0.76C369.19,116.67,368.37,115.66,368.37,113.87z M371.93,115.18v-2.8
			c-0.43-0.41-0.82-0.56-1.23-0.56c-0.81,0-1.45,0.83-1.45,2.04c0,1.28,0.5,2.04,1.38,2.04
			C371.11,115.91,371.51,115.67,371.93,115.18z"/>
		<path style="fill:#231F20;" d="M374.13,117.88c0.58-0.27,0.94-0.76,0.93-1.36l-0.09-0.81l0.42,0.66
			c-0.11,0.15-0.27,0.19-0.43,0.19c-0.33,0-0.62-0.22-0.62-0.63c0-0.39,0.29-0.63,0.63-0.63c0.45,0,0.72,0.4,0.72,1.06
			c0,0.95-0.52,1.69-1.36,2.06L374.13,117.88z"/>
		<path style="fill:#231F20;" d="M378.79,113.87c0-1.73,1.03-2.81,2.18-2.81c0.59,0,0.97,0.23,1.41,0.62l-0.04-0.92v-2.06h0.85v7.84
			h-0.71l-0.07-0.63h-0.03c-0.39,0.42-0.93,0.76-1.53,0.76C379.61,116.67,378.79,115.66,378.79,113.87z M382.35,115.18v-2.8
			c-0.43-0.41-0.82-0.56-1.23-0.56c-0.81,0-1.45,0.83-1.45,2.04c0,1.28,0.5,2.04,1.38,2.04
			C381.53,115.91,381.93,115.67,382.35,115.18z"/>
		<path style="fill:#231F20;" d="M384.91,111.19h0.71l0.07,0.97h0.03c0.35-0.68,0.87-1.11,1.43-1.11c0.22,0,0.38,0.03,0.54,0.11
			l-0.16,0.79c-0.17-0.06-0.29-0.09-0.49-0.09c-0.43,0-0.94,0.33-1.28,1.23v3.43h-0.85V111.19z"/>
		<path style="fill:#231F20;" d="M388.2,115.15c0-1.17,0.95-1.75,3.1-2c0-0.69-0.22-1.35-1.04-1.35c-0.58,0-1.11,0.29-1.5,0.57
			l-0.33-0.62c0.46-0.32,1.17-0.7,1.98-0.7c1.23,0,1.75,0.87,1.75,2.2v3.28h-0.71l-0.07-0.64h-0.03c-0.48,0.42-1.04,0.77-1.67,0.77
			C388.83,116.67,388.2,116.12,388.2,115.15z M391.3,115.24v-1.49c-1.69,0.22-2.26,0.65-2.26,1.34c0,0.61,0.39,0.86,0.88,0.86
			C390.41,115.94,390.81,115.69,391.3,115.24z"/>
		<path style="fill:#231F20;" d="M393.14,111.19h0.87l0.75,3.09c0.11,0.51,0.2,0.99,0.3,1.49h0.04c0.11-0.5,0.22-0.99,0.34-1.49
			l0.78-3.09h0.83l0.79,3.09c0.12,0.51,0.23,0.99,0.35,1.49h0.04c0.11-0.5,0.2-0.98,0.31-1.49l0.74-3.09h0.81l-1.35,5.35h-1.04
			l-0.73-2.87c-0.12-0.51-0.22-1-0.34-1.54h-0.04c-0.11,0.54-0.21,1.05-0.35,1.55l-0.71,2.86h-1L393.14,111.19z"/>
		<path style="fill:#231F20;" d="M401.19,111.19h0.71l0.07,0.77H402c0.48-0.5,1-0.9,1.69-0.9c1.06,0,1.54,0.73,1.54,2.09v3.39h-0.85
			v-3.27c0-1-0.28-1.42-0.95-1.42c-0.52,0-0.87,0.28-1.38,0.82v3.87h-0.85V111.19z"/>
		<path style="fill:#231F20;" d="M409.09,114.89v-2.96h-0.75v-0.69l0.79-0.05l0.1-1.5h0.71v1.5h1.37v0.74h-1.37v2.97
			c0,0.65,0.2,1.03,0.78,1.03c0.18,0,0.41-0.07,0.58-0.14l0.16,0.68c-0.28,0.1-0.62,0.2-0.94,0.2
			C409.46,116.67,409.09,115.95,409.09,114.89z"/>
		<path style="fill:#231F20;" d="M412.08,113.87c0-1.78,1.1-2.81,2.34-2.81s2.34,1.03,2.34,2.81c0,1.77-1.1,2.8-2.34,2.8
			S412.08,115.64,412.08,113.87z M415.87,113.87c0-1.23-0.59-2.06-1.46-2.06s-1.46,0.83-1.46,2.06s0.59,2.05,1.46,2.05
			S415.87,115.1,415.87,113.87z"/>
		<path style="fill:#231F20;" d="M417.69,117.57c0-0.46,0.28-0.89,0.74-1.21v-0.04c-0.26-0.17-0.45-0.46-0.45-0.88
			c0-0.44,0.29-0.8,0.55-0.99v-0.04c-0.33-0.28-0.65-0.8-0.65-1.44c0-1.17,0.87-1.9,1.89-1.9c0.28,0,0.53,0.06,0.71,0.13h1.76v0.7
			h-1.04c0.24,0.24,0.41,0.64,0.41,1.1c0,1.15-0.82,1.85-1.85,1.85c-0.25,0-0.52-0.06-0.75-0.18c-0.18,0.16-0.32,0.34-0.32,0.63
			c0,0.34,0.21,0.58,0.88,0.58h0.98c1.17,0,1.76,0.39,1.76,1.28c0,0.99-0.99,1.85-2.55,1.85C418.54,119,417.69,118.49,417.69,117.57
			z M421.49,117.29c0-0.5-0.35-0.66-1.02-0.66h-0.87c-0.19,0-0.43-0.02-0.66-0.08c-0.36,0.27-0.51,0.59-0.51,0.9
			c0,0.57,0.55,0.94,1.46,0.94C420.86,118.38,421.49,117.85,421.49,117.29z M420.85,112.97c0-0.78-0.48-1.25-1.07-1.25
			c-0.59,0-1.07,0.46-1.07,1.25c0,0.78,0.49,1.27,1.07,1.27C420.36,114.24,420.85,113.74,420.85,112.97z"/>
		<path style="fill:#231F20;" d="M422.93,113.87c0-1.74,1.11-2.81,2.27-2.81c1.29,0,2.01,0.98,2.01,2.51c0,0.19-0.01,0.38-0.04,0.51
			h-3.4c0.06,1.13,0.71,1.87,1.68,1.87c0.48,0,0.88-0.17,1.25-0.43l0.31,0.59c-0.44,0.31-0.98,0.55-1.67,0.55
			C424,116.67,422.93,115.63,422.93,113.87z M426.46,113.44c0-1.07-0.45-1.65-1.24-1.65c-0.71,0-1.34,0.6-1.45,1.65H426.46z"/>
		<path style="fill:#231F20;" d="M428.6,114.89v-2.96h-0.75v-0.69l0.79-0.05l0.1-1.5h0.71v1.5h1.37v0.74h-1.37v2.97
			c0,0.65,0.2,1.03,0.78,1.03c0.18,0,0.41-0.07,0.58-0.14l0.16,0.68c-0.28,0.1-0.62,0.2-0.94,0.2
			C428.97,116.67,428.6,115.95,428.6,114.89z"/>
		<path style="fill:#231F20;" d="M431.96,108.7h0.85v2.14l-0.03,1.1c0.47-0.48,0.98-0.88,1.67-0.88c1.06,0,1.54,0.73,1.54,2.09v3.39
			h-0.85v-3.27c0-1-0.28-1.42-0.95-1.42c-0.52,0-0.87,0.28-1.38,0.82v3.87h-0.85V108.7z"/>
		<path style="fill:#231F20;" d="M437.23,113.87c0-1.74,1.11-2.81,2.27-2.81c1.29,0,2.01,0.98,2.01,2.51c0,0.19-0.02,0.38-0.04,0.51
			h-3.4c0.06,1.13,0.71,1.87,1.68,1.87c0.48,0,0.88-0.17,1.25-0.43l0.31,0.59c-0.44,0.31-0.98,0.55-1.67,0.55
			C438.3,116.67,437.23,115.63,437.23,113.87z M440.76,113.44c0-1.07-0.45-1.65-1.24-1.65c-0.71,0-1.34,0.6-1.45,1.65H440.76z"/>
		<path style="fill:#231F20;" d="M442.75,111.19h0.71l0.07,0.97h0.03c0.35-0.68,0.87-1.11,1.43-1.11c0.22,0,0.38,0.03,0.54,0.11
			l-0.16,0.79c-0.17-0.06-0.29-0.09-0.49-0.09c-0.43,0-0.94,0.33-1.28,1.23v3.43h-0.85V111.19z"/>
	</g>
</g>
<g>
	<g>
		<path style="fill:#231F20;" d="M303.81,163.63h4.08v1.07h-2.88v1.84h2.44v1.07h-2.44v2.13H308v1.07h-4.19V163.63z"/>
		<path style="fill:#231F20;" d="M308.96,172.93l0.22-0.98c0.1,0.03,0.25,0.07,0.37,0.07c0.54,0,0.85-0.39,1.02-0.93l0.09-0.34
			l-2-5.34h1.21l0.88,2.65c0.15,0.48,0.3,1.01,0.45,1.53h0.04c0.13-0.5,0.26-1.03,0.39-1.53l0.76-2.65h1.15l-1.84,5.65
			c-0.42,1.22-0.96,1.97-2.07,1.97C309.34,173.05,309.15,173,308.96,172.93z"/>
		<path style="fill:#231F20;" d="M314.09,168.13c0-1.76,1.15-2.84,2.35-2.84c1.38,0,2.1,1.06,2.1,2.57c0,0.24-0.03,0.48-0.05,0.62
			h-3.24c0.1,0.96,0.68,1.5,1.5,1.5c0.44,0,0.81-0.14,1.18-0.39l0.41,0.79c-0.49,0.35-1.1,0.58-1.75,0.58
			C315.19,170.96,314.09,169.91,314.09,168.13z M317.51,167.61c0-0.83-0.35-1.34-1.04-1.34c-0.59,0-1.12,0.47-1.22,1.34H317.51z"/>
		<path style="fill:#231F20;" d="M319.18,170.21l0.56-0.81c0.45,0.37,0.89,0.6,1.41,0.6c0.56,0,0.82-0.28,0.82-0.65
			c0-0.45-0.55-0.66-1.1-0.88c-0.67-0.27-1.43-0.67-1.43-1.58c0-0.94,0.71-1.62,1.86-1.62c0.71,0,1.28,0.31,1.69,0.65l-0.55,0.78
			c-0.36-0.28-0.72-0.47-1.12-0.47c-0.51,0-0.76,0.26-0.76,0.6c0,0.43,0.52,0.59,1.07,0.8c0.69,0.27,1.46,0.63,1.46,1.63
			c0,0.93-0.69,1.68-1.98,1.68C320.41,170.96,319.68,170.64,319.18,170.21z"/>
		<path style="fill:#231F20;" d="M324.05,166.34c0-0.5,0.34-0.86,0.77-0.86s0.77,0.37,0.77,0.86c0,0.49-0.34,0.85-0.77,0.85
			S324.05,166.83,324.05,166.34z M324.05,170.11c0-0.5,0.34-0.86,0.77-0.86s0.77,0.37,0.77,0.86c0,0.49-0.34,0.85-0.77,0.85
			S324.05,170.59,324.05,170.11z"/>
		<path style="fill:#231F20;" d="M330.67,164.38h-2.06v-0.78h4.99v0.78h-2.06v6.44h-0.87V164.38z"/>
		<path style="fill:#231F20;" d="M334.58,163.8c0-0.36,0.26-0.58,0.59-0.58s0.59,0.23,0.59,0.58c0,0.34-0.26,0.58-0.59,0.58
			S334.58,164.14,334.58,163.8z M334.74,165.48h0.85v5.35h-0.85V165.48z"/>
		<path style="fill:#231F20;" d="M336.91,171.85c0-0.46,0.28-0.89,0.74-1.21v-0.04c-0.26-0.17-0.45-0.46-0.45-0.88
			c0-0.44,0.29-0.8,0.55-0.99v-0.04c-0.33-0.28-0.65-0.8-0.65-1.44c0-1.17,0.87-1.9,1.89-1.9c0.28,0,0.53,0.06,0.71,0.13h1.76v0.7
			h-1.04c0.24,0.24,0.41,0.64,0.41,1.1c0,1.15-0.82,1.85-1.85,1.85c-0.25,0-0.52-0.06-0.75-0.18c-0.18,0.16-0.32,0.34-0.32,0.63
			c0,0.34,0.21,0.58,0.88,0.58h0.98c1.17,0,1.76,0.39,1.76,1.28c0,0.99-0.99,1.85-2.55,1.85
			C337.76,173.29,336.91,172.78,336.91,171.85z M340.71,171.57c0-0.5-0.35-0.66-1.02-0.66h-0.87c-0.19,0-0.43-0.02-0.66-0.08
			c-0.36,0.27-0.51,0.59-0.51,0.9c0,0.57,0.55,0.94,1.46,0.94C340.08,172.66,340.71,172.13,340.71,171.57z M340.06,167.25
			c0-0.78-0.48-1.25-1.07-1.25c-0.59,0-1.07,0.46-1.07,1.25c0,0.78,0.49,1.27,1.07,1.27C339.57,168.52,340.06,168.03,340.06,167.25z
			"/>
		<path style="fill:#231F20;" d="M342.52,162.99h0.85v2.14l-0.03,1.1c0.47-0.48,0.98-0.88,1.67-0.88c1.06,0,1.54,0.73,1.54,2.09
			v3.39h-0.85v-3.27c0-1-0.28-1.42-0.95-1.42c-0.52,0-0.87,0.28-1.38,0.82v3.87h-0.85V162.99z"/>
		<path style="fill:#231F20;" d="M348.32,169.17v-2.96h-0.75v-0.69l0.79-0.05l0.1-1.5h0.71v1.5h1.37v0.74h-1.37v2.97
			c0,0.65,0.2,1.03,0.78,1.03c0.18,0,0.41-0.07,0.58-0.14l0.16,0.68c-0.28,0.1-0.62,0.2-0.94,0.2
			C348.68,170.96,348.32,170.24,348.32,169.17z"/>
		<path style="fill:#231F20;" d="M351.67,169.75v-6.76h0.85v6.83c0,0.28,0.11,0.39,0.24,0.39c0.05,0,0.09,0,0.19-0.02l0.12,0.69
			c-0.12,0.05-0.27,0.08-0.49,0.08C351.94,170.96,351.67,170.53,351.67,169.75z"/>
		<path style="fill:#231F20;" d="M353.81,173.02l0.17-0.72c0.1,0.04,0.25,0.08,0.38,0.08c0.57,0,0.93-0.48,1.14-1.15l0.12-0.39
			l-2.02-5.36h0.88l1.03,2.96c0.16,0.46,0.33,1.01,0.49,1.51h0.04c0.14-0.49,0.29-1.03,0.42-1.51l0.9-2.96h0.84l-1.9,5.79
			c-0.36,1.06-0.88,1.86-1.89,1.86C354.17,173.13,353.98,173.09,353.81,173.02z"/>
		<path style="fill:#231F20;" d="M360.87,168.16c0-1.78,1.14-2.81,2.43-2.81c0.66,0,1.12,0.29,1.48,0.63l-0.44,0.6
			c-0.29-0.28-0.6-0.47-1-0.47c-0.91,0-1.58,0.83-1.58,2.06s0.63,2.05,1.56,2.05c0.46,0,0.87-0.24,1.18-0.53l0.37,0.61
			c-0.45,0.43-1.03,0.68-1.63,0.68C361.89,170.96,360.87,169.93,360.87,168.16z"/>
		<path style="fill:#231F20;" d="M365.97,169.75v-6.76h0.85v6.83c0,0.28,0.11,0.39,0.24,0.39c0.05,0,0.09,0,0.19-0.02l0.12,0.69
			c-0.12,0.05-0.27,0.08-0.49,0.08C366.24,170.96,365.97,170.53,365.97,169.75z"/>
		<path style="fill:#231F20;" d="M368.25,168.16c0-1.78,1.1-2.81,2.34-2.81s2.34,1.03,2.34,2.81c0,1.77-1.1,2.8-2.34,2.8
			S368.25,169.93,368.25,168.16z M372.04,168.16c0-1.23-0.59-2.06-1.46-2.06s-1.46,0.83-1.46,2.06s0.59,2.05,1.46,2.05
			S372.04,169.39,372.04,168.16z"/>
		<path style="fill:#231F20;" d="M373.69,170.22l0.42-0.6c0.44,0.37,0.88,0.63,1.49,0.63c0.66,0,0.99-0.37,0.99-0.83
			c0-0.55-0.59-0.79-1.15-1.01c-0.71-0.27-1.5-0.64-1.5-1.54c0-0.86,0.65-1.52,1.74-1.52c0.63,0,1.18,0.27,1.57,0.6l-0.41,0.58
			c-0.35-0.27-0.7-0.48-1.15-0.48c-0.64,0-0.93,0.36-0.93,0.77c0,0.51,0.55,0.7,1.12,0.93c0.73,0.29,1.54,0.6,1.54,1.62
			c0,0.87-0.65,1.59-1.84,1.59C374.85,170.96,374.16,170.64,373.69,170.22z"/>
		<path style="fill:#231F20;" d="M378.22,168.16c0-1.74,1.11-2.81,2.27-2.81c1.29,0,2.01,0.98,2.01,2.51c0,0.19-0.02,0.38-0.04,0.51
			h-3.4c0.06,1.13,0.71,1.87,1.68,1.87c0.48,0,0.88-0.17,1.25-0.43l0.31,0.59c-0.44,0.31-0.98,0.55-1.67,0.55
			C379.29,170.96,378.22,169.92,378.22,168.16z M381.74,167.72c0-1.07-0.45-1.65-1.24-1.65c-0.71,0-1.34,0.6-1.45,1.65H381.74z"/>
		<path style="fill:#231F20;" d="M383.38,168.16c0-1.73,1.03-2.81,2.18-2.81c0.59,0,0.97,0.23,1.41,0.62l-0.04-0.92v-2.06h0.85v7.84
			h-0.71l-0.07-0.63h-0.03c-0.39,0.42-0.93,0.76-1.53,0.76C384.2,170.96,383.38,169.94,383.38,168.16z M386.94,169.47v-2.8
			c-0.43-0.41-0.82-0.56-1.23-0.56c-0.81,0-1.45,0.83-1.45,2.04c0,1.28,0.5,2.04,1.38,2.04
			C386.11,170.2,386.52,169.96,386.94,169.47z"/>
	</g>
</g>
<g>
	<g>
		<path style="fill:#231F20;" d="M303.45,188.05c0-2.35,1.39-3.75,3.11-3.75c0.85,0,1.53,0.43,1.96,0.91l-0.64,0.82
			c-0.35-0.37-0.76-0.63-1.29-0.63c-1.1,0-1.9,0.99-1.9,2.6c0,1.64,0.73,2.64,1.87,2.64c0.6,0,1.07-0.29,1.45-0.74l0.64,0.8
			c-0.55,0.68-1.26,1.05-2.14,1.05C304.8,191.76,303.45,190.43,303.45,188.05z"/>
		<path style="fill:#231F20;" d="M309.68,183.86h1.2v2.01l-0.05,1.04c0.43-0.43,0.93-0.82,1.63-0.82c1.09,0,1.57,0.78,1.57,2.15
			v3.39h-1.2v-3.23c0-0.89-0.24-1.22-0.79-1.22c-0.45,0-0.74,0.23-1.16,0.67v3.78h-1.2V183.86z"/>
		<path style="fill:#231F20;" d="M315.14,188.93c0-1.76,1.15-2.84,2.35-2.84c1.38,0,2.1,1.06,2.1,2.57c0,0.24-0.03,0.48-0.05,0.62
			h-3.24c0.1,0.96,0.68,1.5,1.5,1.5c0.44,0,0.81-0.14,1.18-0.39l0.41,0.79c-0.49,0.35-1.1,0.58-1.75,0.58
			C316.24,191.76,315.14,190.71,315.14,188.93z M318.56,188.41c0-0.83-0.35-1.34-1.05-1.34c-0.59,0-1.12,0.47-1.22,1.34H318.56z"/>
		<path style="fill:#231F20;" d="M320.4,188.93c0-1.76,1.15-2.84,2.35-2.84c1.38,0,2.1,1.06,2.1,2.57c0,0.24-0.03,0.48-0.05,0.62
			h-3.24c0.1,0.96,0.68,1.5,1.5,1.5c0.44,0,0.81-0.14,1.18-0.39l0.41,0.79c-0.49,0.35-1.1,0.58-1.75,0.58
			C321.5,191.76,320.4,190.71,320.4,188.93z M323.82,188.41c0-0.83-0.35-1.34-1.04-1.34c-0.59,0-1.12,0.47-1.22,1.34H323.82z"/>
		<path style="fill:#231F20;" d="M325.99,183.86h1.17v4.85h0.03l1.89-2.49h1.31l-1.75,2.2l1.93,3.2h-1.3l-1.31-2.35l-0.8,0.97v1.37
			h-1.17V183.86z"/>
		<path style="fill:#231F20;" d="M330.9,191.01l0.56-0.81c0.45,0.37,0.89,0.6,1.41,0.6c0.56,0,0.82-0.28,0.82-0.65
			c0-0.45-0.55-0.66-1.1-0.88c-0.67-0.27-1.43-0.67-1.43-1.58c0-0.94,0.71-1.62,1.86-1.62c0.71,0,1.28,0.31,1.69,0.65l-0.55,0.78
			c-0.36-0.28-0.72-0.47-1.12-0.47c-0.51,0-0.76,0.26-0.76,0.6c0,0.43,0.52,0.59,1.07,0.8c0.69,0.27,1.46,0.63,1.46,1.63
			c0,0.93-0.69,1.68-1.98,1.68C332.14,191.76,331.4,191.44,330.9,191.01z"/>
		<path style="fill:#231F20;" d="M335.78,187.14c0-0.5,0.34-0.86,0.77-0.86s0.77,0.37,0.77,0.86c0,0.49-0.34,0.85-0.77,0.85
			S335.78,187.63,335.78,187.14z M335.78,190.91c0-0.5,0.34-0.86,0.77-0.86s0.77,0.37,0.77,0.86c0,0.49-0.34,0.85-0.77,0.85
			S335.78,191.39,335.78,190.91z"/>
		<path style="fill:#231F20;" d="M340.98,184.41h2.13c1.39,0,2.38,0.53,2.38,2.03c0,1.44-1,2.14-2.38,2.14h-1.27v3.05h-0.87V184.41z
			 M342.99,187.83c1.06,0,1.64-0.46,1.64-1.39c0-0.95-0.58-1.29-1.64-1.29h-1.14v2.68H342.99z M342.95,188.32l0.68-0.48l2.08,3.78
			h-0.98L342.95,188.32z"/>
		<path style="fill:#231F20;" d="M346.5,190.24c0-1.17,0.95-1.75,3.1-2c0-0.69-0.22-1.35-1.04-1.35c-0.58,0-1.11,0.29-1.5,0.57
			l-0.33-0.62c0.46-0.32,1.17-0.7,1.98-0.7c1.23,0,1.75,0.87,1.75,2.2v3.28h-0.71l-0.07-0.64h-0.03c-0.48,0.42-1.04,0.77-1.67,0.77
			C347.13,191.76,346.5,191.2,346.5,190.24z M349.59,190.32v-1.49c-1.69,0.22-2.26,0.65-2.26,1.34c0,0.61,0.39,0.86,0.88,0.86
			C348.7,191.03,349.1,190.78,349.59,190.32z"/>
		<path style="fill:#231F20;" d="M351.88,184.6c0-0.36,0.26-0.58,0.59-0.58s0.59,0.23,0.59,0.58c0,0.34-0.26,0.58-0.59,0.58
			S351.88,184.94,351.88,184.6z M352.04,186.28h0.85v5.35h-0.85V186.28z"/>
		<path style="fill:#231F20;" d="M354.03,191.02l0.42-0.6c0.44,0.37,0.88,0.63,1.49,0.63c0.66,0,0.99-0.37,0.99-0.83
			c0-0.55-0.59-0.79-1.15-1.01c-0.71-0.27-1.5-0.64-1.5-1.54c0-0.86,0.65-1.52,1.74-1.52c0.63,0,1.18,0.27,1.57,0.6l-0.41,0.58
			c-0.35-0.27-0.7-0.48-1.15-0.48c-0.64,0-0.93,0.36-0.93,0.77c0,0.51,0.55,0.7,1.12,0.93c0.73,0.29,1.54,0.6,1.54,1.62
			c0,0.87-0.65,1.59-1.84,1.59C355.2,191.76,354.5,191.44,354.03,191.02z"/>
		<path style="fill:#231F20;" d="M358.56,188.96c0-1.74,1.11-2.81,2.27-2.81c1.29,0,2.01,0.98,2.01,2.51c0,0.19-0.02,0.38-0.04,0.51
			h-3.4c0.06,1.13,0.71,1.87,1.68,1.87c0.48,0,0.88-0.17,1.25-0.43l0.31,0.59c-0.44,0.31-0.98,0.55-1.67,0.55
			C359.63,191.76,358.56,190.72,358.56,188.96z M362.09,188.52c0-1.07-0.45-1.65-1.24-1.65c-0.71,0-1.34,0.6-1.45,1.65H362.09z"/>
		<path style="fill:#231F20;" d="M363.73,188.96c0-1.73,1.03-2.81,2.18-2.81c0.59,0,0.97,0.23,1.41,0.62l-0.04-0.92v-2.06h0.85v7.84
			h-0.71l-0.07-0.63h-0.03c-0.39,0.42-0.93,0.76-1.53,0.76C364.54,191.76,363.73,190.74,363.73,188.96z M367.29,190.27v-2.8
			c-0.43-0.41-0.82-0.56-1.23-0.56c-0.81,0-1.45,0.83-1.45,2.04c0,1.28,0.5,2.04,1.38,2.04C366.46,191,366.86,190.76,367.29,190.27z
			"/>
	</g>
</g>
<g>
	<g>
		<path style="fill:#231F20;" d="M303.81,205.82h1.24l2.11,4.04l0.7,1.54h0.04c-0.06-0.74-0.15-1.65-0.15-2.46v-3.13h1.15v7.2h-1.24
			l-2.11-4.05l-0.7-1.53h-0.04c0.06,0.76,0.15,1.63,0.15,2.43v3.15h-1.15V205.82z"/>
		<path style="fill:#231F20;" d="M310.17,210.32c0-1.8,1.15-2.84,2.42-2.84c1.27,0,2.42,1.04,2.42,2.84c0,1.79-1.15,2.83-2.42,2.83
			C311.33,213.15,310.17,212.11,310.17,210.32z M313.79,210.32c0-1.08-0.45-1.8-1.2-1.8c-0.75,0-1.19,0.72-1.19,1.8
			c0,1.08,0.45,1.79,1.19,1.79C313.35,212.11,313.79,211.4,313.79,210.32z"/>
		<path style="fill:#231F20;" d="M315.7,212.4l0.56-0.81c0.45,0.37,0.89,0.6,1.41,0.6c0.56,0,0.82-0.28,0.82-0.65
			c0-0.45-0.55-0.66-1.1-0.88c-0.67-0.27-1.43-0.67-1.43-1.58c0-0.94,0.71-1.62,1.86-1.62c0.71,0,1.28,0.31,1.69,0.65l-0.55,0.78
			c-0.36-0.28-0.72-0.47-1.12-0.47c-0.51,0-0.76,0.26-0.76,0.6c0,0.43,0.52,0.59,1.07,0.8c0.69,0.27,1.46,0.63,1.46,1.63
			c0,0.93-0.69,1.68-1.98,1.68C316.93,213.15,316.2,212.83,315.7,212.4z"/>
		<path style="fill:#231F20;" d="M320.34,210.32c0-1.76,1.15-2.84,2.35-2.84c1.38,0,2.1,1.06,2.1,2.57c0,0.24-0.03,0.48-0.05,0.62
			h-3.24c0.1,0.96,0.68,1.5,1.5,1.5c0.44,0,0.81-0.14,1.18-0.39l0.41,0.79c-0.49,0.35-1.1,0.58-1.75,0.58
			C321.45,213.15,320.34,212.1,320.34,210.32z M323.76,209.8c0-0.83-0.35-1.34-1.05-1.34c-0.59,0-1.12,0.47-1.22,1.34H323.76z"/>
		<path style="fill:#231F20;" d="M325.84,208.53c0-0.5,0.34-0.86,0.77-0.86s0.77,0.37,0.77,0.86c0,0.49-0.34,0.85-0.77,0.85
			S325.84,209.02,325.84,208.53z M325.84,212.3c0-0.5,0.34-0.86,0.77-0.86s0.77,0.37,0.77,0.86c0,0.49-0.34,0.85-0.77,0.85
			S325.84,212.78,325.84,212.3z"/>
		<path style="fill:#231F20;" d="M331.04,205.8h2.02c1.38,0,2.34,0.5,2.34,1.77c0,0.71-0.36,1.35-1,1.57v0.04
			c0.81,0.17,1.38,0.74,1.38,1.73c0,1.42-1.06,2.11-2.58,2.11h-2.18V205.8z M332.92,208.87c1.16,0,1.64-0.45,1.64-1.18
			c0-0.84-0.54-1.16-1.6-1.16h-1.05v2.34H332.92z M333.09,212.29c1.17,0,1.85-0.44,1.85-1.42c0-0.89-0.66-1.3-1.85-1.3h-1.19v2.71
			H333.09z"/>
		<path style="fill:#231F20;" d="M337.06,207.67h0.71l0.07,0.97h0.03c0.35-0.68,0.87-1.11,1.43-1.11c0.22,0,0.38,0.03,0.54,0.11
			l-0.16,0.79c-0.17-0.06-0.29-0.09-0.49-0.09c-0.43,0-0.94,0.33-1.28,1.23v3.43h-0.85V207.67z"/>
		<path style="fill:#231F20;" d="M340.29,210.35c0-1.78,1.1-2.81,2.34-2.81s2.34,1.03,2.34,2.81c0,1.77-1.1,2.8-2.34,2.8
			S340.29,212.12,340.29,210.35z M344.08,210.35c0-1.23-0.59-2.06-1.46-2.06s-1.46,0.83-1.46,2.06s0.59,2.05,1.46,2.05
			S344.08,211.58,344.08,210.35z"/>
		<path style="fill:#231F20;" d="M345.98,211.63c0-1.17,0.95-1.75,3.1-2c0-0.69-0.22-1.35-1.04-1.35c-0.58,0-1.11,0.29-1.5,0.57
			l-0.33-0.62c0.46-0.32,1.17-0.7,1.98-0.7c1.23,0,1.75,0.87,1.75,2.2v3.28h-0.71l-0.07-0.64h-0.03c-0.48,0.42-1.04,0.77-1.67,0.77
			C346.61,213.15,345.98,212.59,345.98,211.63z M349.08,211.71v-1.49c-1.69,0.22-2.26,0.65-2.26,1.34c0,0.61,0.39,0.86,0.88,0.86
			C348.18,212.42,348.59,212.17,349.08,211.71z"/>
		<path style="fill:#231F20;" d="M351.16,210.35c0-1.73,1.03-2.81,2.18-2.81c0.59,0,0.97,0.23,1.41,0.62l-0.04-0.92v-2.06h0.85v7.84
			h-0.71l-0.07-0.63h-0.03c-0.39,0.42-0.93,0.76-1.53,0.76C351.98,213.15,351.16,212.13,351.16,210.35z M354.72,211.66v-2.8
			c-0.43-0.41-0.82-0.56-1.23-0.56c-0.81,0-1.45,0.83-1.45,2.04c0,1.28,0.5,2.04,1.38,2.04
			C353.89,212.39,354.3,212.15,354.72,211.66z"/>
		<path style="fill:#231F20;" d="M356.9,210.35c0-1.74,1.11-2.81,2.27-2.81c1.29,0,2.01,0.98,2.01,2.51c0,0.19-0.02,0.38-0.04,0.51
			h-3.4c0.06,1.13,0.71,1.87,1.68,1.87c0.48,0,0.88-0.17,1.25-0.43l0.31,0.59c-0.44,0.31-0.98,0.55-1.67,0.55
			C357.97,213.15,356.9,212.11,356.9,210.35z M360.43,209.91c0-1.07-0.45-1.65-1.24-1.65c-0.71,0-1.34,0.6-1.45,1.65H360.43z"/>
		<path style="fill:#231F20;" d="M362.42,207.67h0.71l0.07,0.77h0.03c0.48-0.5,1-0.9,1.69-0.9c1.06,0,1.54,0.73,1.54,2.09v3.39
			h-0.85v-3.27c0-1-0.28-1.42-0.95-1.42c-0.52,0-0.87,0.28-1.38,0.82v3.87h-0.85V207.67z"/>
		<path style="fill:#231F20;" d="M367.73,210.35c0-1.74,1.11-2.81,2.27-2.81c1.29,0,2.01,0.98,2.01,2.51c0,0.19-0.01,0.38-0.04,0.51
			h-3.4c0.06,1.13,0.71,1.87,1.68,1.87c0.48,0,0.88-0.17,1.25-0.43l0.31,0.59c-0.44,0.31-0.98,0.55-1.67,0.55
			C368.8,213.15,367.73,212.11,367.73,210.35z M371.25,209.91c0-1.07-0.45-1.65-1.24-1.65c-0.71,0-1.34,0.6-1.45,1.65H371.25z"/>
		<path style="fill:#231F20;" d="M372.89,210.35c0-1.73,1.03-2.81,2.18-2.81c0.59,0,0.97,0.23,1.41,0.62l-0.04-0.92v-2.06h0.85v7.84
			h-0.71l-0.07-0.63h-0.03c-0.39,0.42-0.93,0.76-1.53,0.76C373.71,213.15,372.89,212.13,372.89,210.35z M376.45,211.66v-2.8
			c-0.43-0.41-0.82-0.56-1.23-0.56c-0.81,0-1.45,0.83-1.45,2.04c0,1.28,0.5,2.04,1.38,2.04
			C375.62,212.39,376.03,212.15,376.45,211.66z"/>
	</g>
</g>
<g>
	<g>
		<path style="fill:#231F20;" d="M303.81,229.89h1.24l2.11,4.04l0.7,1.54h0.04c-0.06-0.74-0.15-1.65-0.15-2.46v-3.13h1.15v7.2h-1.24
			l-2.11-4.05l-0.7-1.53h-0.04c0.06,0.76,0.15,1.63,0.15,2.43v3.15h-1.15V229.89z"/>
		<path style="fill:#231F20;" d="M310.24,235.63c0-1.16,0.91-1.76,3-2c-0.02-0.58-0.24-1.06-0.93-1.06c-0.51,0-0.98,0.24-1.43,0.53
			l-0.44-0.84c0.56-0.37,1.28-0.71,2.09-0.71c1.27,0,1.9,0.83,1.9,2.34v3.2h-0.98l-0.09-0.6h-0.03c-0.46,0.41-0.98,0.73-1.58,0.73
			C310.85,237.22,310.24,236.57,310.24,235.63z M313.23,235.64v-1.21c-1.38,0.18-1.84,0.57-1.84,1.11c0,0.48,0.31,0.69,0.73,0.69
			C312.54,236.22,312.86,236.01,313.23,235.64z"/>
		<path style="fill:#231F20;" d="M315.36,236.47l0.56-0.81c0.45,0.37,0.89,0.6,1.41,0.6c0.56,0,0.82-0.28,0.82-0.65
			c0-0.45-0.55-0.66-1.1-0.88c-0.67-0.27-1.43-0.67-1.43-1.58c0-0.94,0.71-1.62,1.86-1.62c0.71,0,1.28,0.31,1.69,0.65l-0.55,0.78
			c-0.36-0.28-0.72-0.47-1.12-0.47c-0.51,0-0.76,0.26-0.76,0.6c0,0.43,0.52,0.59,1.07,0.8c0.69,0.27,1.46,0.63,1.46,1.63
			c0,0.93-0.69,1.68-1.98,1.68C316.59,237.22,315.86,236.9,315.36,236.47z"/>
		<path style="fill:#231F20;" d="M320,234.39c0-1.8,1.15-2.84,2.42-2.84c1.27,0,2.42,1.04,2.42,2.84c0,1.79-1.15,2.83-2.42,2.83
			C321.16,237.22,320,236.18,320,234.39z M323.62,234.39c0-1.08-0.45-1.8-1.2-1.8c-0.75,0-1.2,0.72-1.2,1.8
			c0,1.08,0.45,1.79,1.2,1.79C323.17,236.18,323.62,235.47,323.62,234.39z"/>
		<path style="fill:#231F20;" d="M326.04,235.69v-6.38h1.2v6.45c0,0.31,0.13,0.42,0.26,0.42c0.05,0,0.1,0,0.19-0.02l0.15,0.95
			c-0.15,0.06-0.34,0.11-0.63,0.11C326.35,237.22,326.04,236.64,326.04,235.69z"/>
		<path style="fill:#231F20;" d="M328.57,235.63c0-1.16,0.91-1.76,3-2c-0.02-0.58-0.24-1.06-0.93-1.06c-0.51,0-0.98,0.24-1.43,0.53
			l-0.44-0.84c0.56-0.37,1.28-0.71,2.09-0.71c1.27,0,1.9,0.83,1.9,2.34v3.2h-0.98l-0.09-0.6h-0.03c-0.46,0.41-0.98,0.73-1.58,0.73
			C329.19,237.22,328.57,236.57,328.57,235.63z M331.57,235.64v-1.21c-1.38,0.18-1.84,0.57-1.84,1.11c0,0.48,0.31,0.69,0.73,0.69
			C330.88,236.22,331.19,236.01,331.57,235.64z"/>
		<path style="fill:#231F20;" d="M335.28,236.52h-0.03l-0.1,0.57h-0.94v-7.77h1.2v2.01l-0.03,0.9c0.42-0.4,0.95-0.67,1.47-0.67
			c1.27,0,2.01,1.08,2.01,2.74c0,1.85-1.04,2.92-2.18,2.92C336.21,237.22,335.71,236.97,335.28,236.52z M337.62,234.31
			c0-1.08-0.33-1.72-1.11-1.72c-0.37,0-0.73,0.2-1.11,0.61v2.52c0.36,0.33,0.73,0.45,1.02,0.45
			C337.1,236.17,337.62,235.54,337.62,234.31z"/>
		<path style="fill:#231F20;" d="M339.91,230.02c0-0.43,0.31-0.72,0.74-0.72s0.74,0.29,0.74,0.72c0,0.42-0.31,0.72-0.74,0.72
			S339.91,230.44,339.91,230.02z M340.04,231.68h1.2v5.4h-1.2V231.68z"/>
		<path style="fill:#231F20;" d="M342.49,235.63c0-1.16,0.91-1.76,3-2c-0.02-0.58-0.24-1.06-0.93-1.06c-0.51,0-0.98,0.24-1.43,0.53
			l-0.44-0.84c0.56-0.37,1.28-0.71,2.09-0.71c1.27,0,1.9,0.83,1.9,2.34v3.2h-0.98l-0.09-0.6h-0.03c-0.46,0.41-0.98,0.73-1.58,0.73
			C343.1,237.22,342.49,236.57,342.49,235.63z M345.49,235.64v-1.21c-1.38,0.18-1.84,0.57-1.84,1.11c0,0.48,0.31,0.69,0.73,0.69
			C344.79,236.22,345.11,236.01,345.49,235.64z"/>
		<path style="fill:#231F20;" d="M348.12,235.69v-6.38h1.2v6.45c0,0.31,0.13,0.42,0.26,0.42c0.05,0,0.1,0,0.19-0.02l0.15,0.95
			c-0.15,0.06-0.34,0.11-0.63,0.11C348.43,237.22,348.12,236.64,348.12,235.69z"/>
		<path style="fill:#231F20;" d="M352.52,231.74l0.75-0.06h2.13v1.01h-2.88V231.74z M353.21,231.12c0-1.12,0.49-1.94,1.69-1.94
			c0.37,0,0.71,0.09,0.93,0.19l-0.23,0.95c-0.18-0.08-0.38-0.13-0.55-0.13c-0.42,0-0.65,0.28-0.65,0.91v5.98h-1.2V231.12z"/>
		<path style="fill:#231F20;" d="M355.96,234.39c0-1.8,1.15-2.84,2.42-2.84c1.27,0,2.42,1.04,2.42,2.84c0,1.79-1.15,2.83-2.42,2.83
			C357.11,237.22,355.96,236.18,355.96,234.39z M359.58,234.39c0-1.08-0.45-1.8-1.2-1.8c-0.75,0-1.19,0.72-1.19,1.8
			c0,1.08,0.45,1.79,1.19,1.79C359.13,236.18,359.58,235.47,359.58,234.39z"/>
		<path style="fill:#231F20;" d="M361.99,235.69v-6.38h1.2v6.45c0,0.31,0.13,0.42,0.26,0.42c0.05,0,0.1,0,0.19-0.02l0.15,0.95
			c-0.15,0.06-0.34,0.11-0.63,0.11C362.3,237.22,361.99,236.64,361.99,235.69z"/>
		<path style="fill:#231F20;" d="M364.49,234.39c0-1.76,1.04-2.84,2.16-2.84c0.58,0,0.94,0.23,1.34,0.59l-0.05-0.87v-1.96h1.2v7.77
			h-0.98l-0.09-0.58h-0.03c-0.38,0.4-0.9,0.72-1.45,0.72C365.31,237.22,364.49,236.17,364.49,234.39z M367.94,235.56v-2.52
			c-0.35-0.33-0.69-0.45-1.04-0.45c-0.65,0-1.18,0.65-1.18,1.78c0,1.17,0.42,1.8,1.16,1.8C367.27,236.17,367.6,235.98,367.94,235.56
			z"/>
		<path style="fill:#231F20;" d="M370.55,232.6c0-0.5,0.34-0.86,0.77-0.86s0.77,0.37,0.77,0.86c0,0.49-0.34,0.85-0.77,0.85
			S370.55,233.09,370.55,232.6z M370.55,236.36c0-0.5,0.34-0.86,0.77-0.86s0.77,0.37,0.77,0.86c0,0.49-0.34,0.85-0.77,0.85
			S370.55,236.85,370.55,236.36z"/>
		<path style="fill:#231F20;" d="M375.76,229.86h1.7c2.09,0,3.22,1.29,3.22,3.58s-1.12,3.64-3.18,3.64h-1.74V229.86z M377.4,236.33
			c1.59,0,2.39-1.06,2.39-2.88s-0.79-2.83-2.39-2.83h-0.77v5.71H377.4z"/>
		<path style="fill:#231F20;" d="M381.68,234.42c0-1.74,1.11-2.81,2.27-2.81c1.29,0,2.01,0.98,2.01,2.51c0,0.19-0.01,0.38-0.04,0.51
			h-3.4c0.06,1.13,0.71,1.87,1.68,1.87c0.48,0,0.88-0.17,1.25-0.43l0.31,0.59c-0.44,0.31-0.98,0.55-1.67,0.55
			C382.75,237.22,381.68,236.18,381.68,234.42z M385.21,233.98c0-1.07-0.45-1.65-1.24-1.65c-0.71,0-1.34,0.6-1.45,1.65H385.21z"/>
		<path style="fill:#231F20;" d="M386.83,234.42c0-1.74,1.11-2.81,2.27-2.81c1.29,0,2.01,0.98,2.01,2.51c0,0.19-0.01,0.38-0.04,0.51
			h-3.4c0.06,1.13,0.71,1.87,1.68,1.87c0.48,0,0.88-0.17,1.25-0.43l0.31,0.59c-0.44,0.31-0.98,0.55-1.67,0.55
			C387.9,237.22,386.83,236.18,386.83,234.42z M390.36,233.98c0-1.07-0.45-1.65-1.24-1.65c-0.71,0-1.34,0.6-1.45,1.65H390.36z"/>
		<path style="fill:#231F20;" d="M392.35,231.74h0.71l0.07,0.62h0.03c0.46-0.4,1.02-0.75,1.61-0.75c1.3,0,2,1.07,2,2.72
			c0,1.82-1.03,2.89-2.18,2.89c-0.46,0-0.94-0.23-1.4-0.62l0.02,0.93v1.81h-0.85V231.74z M395.88,234.34c0-1.18-0.38-1.97-1.33-1.97
			c-0.43,0-0.86,0.25-1.35,0.73v2.8c0.46,0.41,0.9,0.56,1.23,0.56C395.27,236.46,395.88,235.66,395.88,234.34z"/>
		<path style="fill:#231F20;" d="M397.74,234.42c0-1.74,1.11-2.81,2.27-2.81c1.29,0,2.01,0.98,2.01,2.51c0,0.19-0.01,0.38-0.04,0.51
			h-3.4c0.06,1.13,0.71,1.87,1.68,1.87c0.48,0,0.88-0.17,1.25-0.43l0.31,0.59c-0.44,0.31-0.98,0.55-1.67,0.55
			C398.81,237.22,397.74,236.18,397.74,234.42z M401.26,233.98c0-1.07-0.45-1.65-1.24-1.65c-0.71,0-1.34,0.6-1.45,1.65H401.26z"/>
		<path style="fill:#231F20;" d="M403.26,231.74h0.71l0.07,0.77h0.03c0.48-0.5,1-0.9,1.69-0.9c1.06,0,1.54,0.73,1.54,2.09v3.39
			h-0.85v-3.27c0-1-0.28-1.42-0.95-1.42c-0.52,0-0.87,0.28-1.38,0.82v3.87h-0.85V231.74z"/>
		<path style="fill:#231F20;" d="M408.58,234.42c0-1.73,1.03-2.81,2.18-2.81c0.59,0,0.97,0.23,1.41,0.62l-0.04-0.92v-2.06h0.85v7.84
			h-0.71l-0.07-0.63h-0.03c-0.39,0.42-0.93,0.76-1.53,0.76C409.39,237.22,408.58,236.2,408.58,234.42z M412.14,235.73v-2.8
			c-0.43-0.41-0.82-0.56-1.23-0.56c-0.81,0-1.45,0.83-1.45,2.04c0,1.28,0.5,2.04,1.38,2.04
			C411.31,236.46,411.71,236.22,412.14,235.73z"/>
	</g>
</g>
<g>
	<g>
		<path style="fill:#231F20;" d="M303.81,251.53h1.36l1.2,3.52c0.15,0.46,0.29,0.94,0.44,1.41h0.04c0.15-0.47,0.28-0.96,0.43-1.41
			l1.17-3.52h1.36v7.2h-1.1v-3.29c0-0.66,0.1-1.62,0.15-2.29h-0.04l-0.55,1.67l-1.12,3.23h-0.71l-1.12-3.23l-0.54-1.67h-0.04
			c0.06,0.67,0.15,1.62,0.15,2.29v3.29h-1.08V251.53z"/>
		<path style="fill:#231F20;" d="M311.1,256.03c0-1.8,1.15-2.84,2.42-2.84c1.27,0,2.42,1.04,2.42,2.84c0,1.79-1.15,2.83-2.42,2.83
			C312.25,258.85,311.1,257.82,311.1,256.03z M314.72,256.03c0-1.08-0.45-1.8-1.2-1.8c-0.75,0-1.2,0.72-1.2,1.8
			c0,1.08,0.45,1.79,1.2,1.79C314.27,257.82,314.72,257.11,314.72,256.03z"/>
		<path style="fill:#231F20;" d="M317.07,256.71v-3.39h1.2v3.23c0,0.89,0.24,1.22,0.79,1.22c0.45,0,0.74-0.22,1.13-0.75v-3.7h1.2
			v5.4h-0.98l-0.09-0.8h-0.03c-0.45,0.56-0.94,0.93-1.64,0.93C317.55,258.85,317.07,258.07,317.07,256.71z"/>
		<path style="fill:#231F20;" d="M323.08,256.9v-2.57h-0.73v-0.95l0.79-0.06l0.14-1.47h0.99v1.47h1.3v1.01h-1.3v2.57
			c0,0.64,0.23,0.95,0.72,0.95c0.17,0,0.38-0.06,0.53-0.12l0.2,0.93c-0.28,0.1-0.63,0.2-1.04,0.2
			C323.51,258.85,323.08,258.07,323.08,256.9z"/>
		<path style="fill:#231F20;" d="M326.65,250.95h1.2v2.01l-0.05,1.04c0.43-0.43,0.93-0.82,1.63-0.82c1.09,0,1.57,0.78,1.57,2.15
			v3.39h-1.2v-3.23c0-0.89-0.24-1.22-0.79-1.22c-0.45,0-0.74,0.23-1.16,0.67v3.78h-1.2V250.95z"/>
		<path style="fill:#231F20;" d="M332.33,254.24c0-0.5,0.34-0.86,0.77-0.86s0.77,0.37,0.77,0.86c0,0.49-0.34,0.85-0.77,0.85
			S332.33,254.73,332.33,254.24z M332.33,258c0-0.5,0.34-0.86,0.77-0.86s0.77,0.37,0.77,0.86c0,0.49-0.34,0.85-0.77,0.85
			S332.33,258.49,332.33,258z"/>
		<path style="fill:#231F20;" d="M337.14,255.09c0-2.31,1.2-3.72,2.91-3.72c1.71,0,2.91,1.41,2.91,3.72c0,2.31-1.2,3.77-2.91,3.77
			C338.34,258.85,337.14,257.4,337.14,255.09z M342.07,255.09c0-1.8-0.8-2.91-2.02-2.91c-1.22,0-2.02,1.11-2.02,2.91
			c0,1.8,0.8,2.96,2.02,2.96C341.27,258.05,342.07,256.89,342.07,255.09z"/>
		<path style="fill:#231F20;" d="M344.35,253.38h0.71l0.07,0.62h0.03c0.46-0.4,1.02-0.75,1.61-0.75c1.3,0,2,1.07,2,2.72
			c0,1.82-1.03,2.89-2.18,2.89c-0.46,0-0.94-0.23-1.4-0.62l0.02,0.93v1.81h-0.85V253.38z M347.88,255.98c0-1.18-0.38-1.97-1.33-1.97
			c-0.43,0-0.86,0.25-1.35,0.73v2.8c0.46,0.41,0.9,0.56,1.23,0.56C347.26,258.09,347.88,257.3,347.88,255.98z"/>
		<path style="fill:#231F20;" d="M349.73,256.06c0-1.74,1.11-2.81,2.27-2.81c1.29,0,2.01,0.98,2.01,2.51c0,0.19-0.01,0.38-0.04,0.51
			h-3.4c0.06,1.13,0.71,1.87,1.68,1.87c0.48,0,0.88-0.17,1.25-0.43l0.31,0.59c-0.44,0.31-0.98,0.55-1.67,0.55
			C350.8,258.85,349.73,257.81,349.73,256.06z M353.26,255.62c0-1.07-0.45-1.65-1.24-1.65c-0.71,0-1.34,0.6-1.45,1.65H353.26z"/>
		<path style="fill:#231F20;" d="M355.25,253.38h0.71l0.07,0.77h0.03c0.48-0.5,1-0.9,1.69-0.9c1.06,0,1.54,0.73,1.54,2.09v3.39
			h-0.85v-3.27c0-1-0.28-1.42-0.95-1.42c-0.52,0-0.87,0.28-1.38,0.82v3.87h-0.85V253.38z"/>
		<path style="fill:#231F20;" d="M360.57,260.06c0.58-0.27,0.94-0.76,0.93-1.36l-0.09-0.81l0.42,0.66
			c-0.11,0.15-0.27,0.19-0.43,0.19c-0.33,0-0.62-0.22-0.62-0.63c0-0.39,0.29-0.63,0.63-0.63c0.45,0,0.72,0.4,0.72,1.06
			c0,0.95-0.52,1.69-1.36,2.06L360.57,260.06z"/>
		<path style="fill:#231F20;" d="M365.03,258.11l0.42-0.6c0.44,0.37,0.88,0.63,1.49,0.63c0.66,0,0.99-0.37,0.99-0.83
			c0-0.55-0.59-0.79-1.15-1.01c-0.71-0.27-1.5-0.64-1.5-1.54c0-0.86,0.65-1.52,1.74-1.52c0.63,0,1.18,0.27,1.57,0.6l-0.41,0.58
			c-0.35-0.27-0.7-0.48-1.15-0.48c-0.64,0-0.93,0.36-0.93,0.77c0,0.51,0.55,0.7,1.12,0.93c0.73,0.29,1.54,0.6,1.54,1.62
			c0,0.87-0.65,1.59-1.84,1.59C366.2,258.85,365.5,258.53,365.03,258.11z"/>
		<path style="fill:#231F20;" d="M373.14,259.08l0.04-0.97c-0.4,0.41-0.93,0.74-1.52,0.74c-1.26,0-2.08-1.02-2.08-2.8
			c0-1.73,1.03-2.81,2.18-2.81c0.58,0,0.99,0.23,1.44,0.64h0.03l0.08-0.51h0.68v7.6h-0.85V259.08z M373.14,257.36v-2.8
			c-0.43-0.41-0.82-0.56-1.23-0.56c-0.81,0-1.45,0.83-1.45,2.04c0,1.28,0.5,2.04,1.38,2.04
			C372.31,258.09,372.72,257.85,373.14,257.36z"/>
		<path style="fill:#231F20;" d="M375.63,256.76v-3.39h0.85v3.27c0,1,0.28,1.42,0.95,1.42c0.52,0,0.87-0.27,1.35-0.9v-3.79h0.85
			v5.35h-0.71l-0.07-0.84h-0.03c-0.47,0.58-0.97,0.97-1.66,0.97C376.11,258.85,375.63,258.13,375.63,256.76z"/>
		<path style="fill:#231F20;" d="M381.03,257.33c0-1.17,0.95-1.75,3.1-2c0-0.69-0.22-1.35-1.04-1.35c-0.58,0-1.11,0.29-1.5,0.57
			l-0.33-0.62c0.46-0.32,1.17-0.7,1.98-0.7c1.23,0,1.75,0.87,1.75,2.2v3.28h-0.71l-0.07-0.64h-0.03c-0.48,0.42-1.04,0.77-1.67,0.77
			C381.66,258.85,381.03,258.3,381.03,257.33z M384.13,257.42v-1.49c-1.69,0.22-2.26,0.65-2.26,1.34c0,0.61,0.39,0.86,0.88,0.86
			C383.24,258.13,383.64,257.87,384.13,257.42z"/>
		<path style="fill:#231F20;" d="M386.57,253.38h0.71l0.07,0.97h0.03c0.35-0.68,0.87-1.11,1.43-1.11c0.22,0,0.38,0.03,0.54,0.11
			l-0.16,0.79c-0.17-0.06-0.29-0.09-0.49-0.09c-0.43,0-0.94,0.33-1.28,1.23v3.43h-0.85V253.38z"/>
		<path style="fill:#231F20;" d="M390.02,251.69c0-0.36,0.26-0.58,0.59-0.58s0.59,0.23,0.59,0.58c0,0.34-0.26,0.58-0.59,0.58
			S390.02,252.03,390.02,251.69z M390.17,253.38h0.85v5.35h-0.85V253.38z"/>
		<path style="fill:#231F20;" d="M392.17,258.11l0.42-0.6c0.44,0.37,0.88,0.63,1.49,0.63c0.66,0,0.99-0.37,0.99-0.83
			c0-0.55-0.59-0.79-1.15-1.01c-0.71-0.27-1.5-0.64-1.5-1.54c0-0.86,0.65-1.52,1.74-1.52c0.63,0,1.18,0.27,1.57,0.6l-0.41,0.58
			c-0.35-0.27-0.7-0.48-1.15-0.48c-0.64,0-0.93,0.36-0.93,0.77c0,0.51,0.55,0.7,1.12,0.93c0.73,0.29,1.54,0.6,1.54,1.62
			c0,0.87-0.65,1.59-1.84,1.59C393.33,258.85,392.64,258.53,392.17,258.11z"/>
		<path style="fill:#231F20;" d="M397.07,250.89h0.85v2.14l-0.03,1.1c0.47-0.48,0.98-0.88,1.67-0.88c1.06,0,1.54,0.73,1.54,2.09
			v3.39h-0.85v-3.27c0-1-0.28-1.42-0.95-1.42c-0.52,0-0.87,0.28-1.38,0.82v3.87h-0.85V250.89z"/>
	</g>
</g>
<g>
	<g>
		<path style="fill:#231F20;" d="M303.81,131.61h4.1v1.07h-2.9v2.04h2.47v1.07h-2.47v3.01h-1.2V131.61z"/>
		<path style="fill:#231F20;" d="M308.66,136.11c0-1.8,1.15-2.84,2.42-2.84c1.27,0,2.42,1.04,2.42,2.84c0,1.79-1.15,2.83-2.42,2.83
			C309.81,138.94,308.66,137.9,308.66,136.11z M312.28,136.11c0-1.08-0.45-1.8-1.2-1.8c-0.75,0-1.19,0.72-1.19,1.8
			c0,1.08,0.45,1.79,1.19,1.79C311.83,137.9,312.28,137.19,312.28,136.11z"/>
		<path style="fill:#231F20;" d="M314.69,133.4h0.98l0.09,0.96h0.03c0.36-0.7,0.9-1.1,1.45-1.1c0.26,0,0.42,0.04,0.58,0.11
			l-0.21,1.1c-0.18-0.05-0.31-0.09-0.52-0.09c-0.41,0-0.9,0.29-1.2,1.12v3.3h-1.2V133.4z"/>
		<path style="fill:#231F20;" d="M318.23,136.11c0-1.76,1.15-2.84,2.35-2.84c1.38,0,2.1,1.06,2.1,2.57c0,0.24-0.03,0.48-0.05,0.62
			h-3.24c0.1,0.96,0.68,1.5,1.5,1.5c0.44,0,0.81-0.14,1.18-0.39l0.41,0.79c-0.49,0.35-1.1,0.58-1.75,0.58
			C319.33,138.94,318.23,137.89,318.23,136.11z M321.65,135.59c0-0.83-0.35-1.34-1.05-1.34c-0.59,0-1.12,0.47-1.22,1.34H321.65z"/>
		<path style="fill:#231F20;" d="M323.82,131.03h1.2v2.01l-0.05,1.04c0.43-0.43,0.93-0.82,1.63-0.82c1.09,0,1.57,0.78,1.57,2.15
			v3.39h-1.2v-3.23c0-0.89-0.24-1.22-0.79-1.22c-0.45,0-0.74,0.23-1.16,0.67v3.78h-1.2V131.03z"/>
		<path style="fill:#231F20;" d="M329.28,136.11c0-1.76,1.15-2.84,2.35-2.84c1.38,0,2.1,1.06,2.1,2.57c0,0.24-0.03,0.48-0.05,0.62
			h-3.24c0.1,0.96,0.68,1.5,1.5,1.5c0.44,0,0.81-0.14,1.18-0.39l0.41,0.79c-0.49,0.35-1.1,0.58-1.75,0.58
			C330.38,138.94,329.28,137.89,329.28,136.11z M332.7,135.59c0-0.83-0.35-1.34-1.04-1.34c-0.59,0-1.12,0.47-1.22,1.34H332.7z"/>
		<path style="fill:#231F20;" d="M334.6,137.35c0-1.16,0.91-1.76,3-2c-0.02-0.58-0.24-1.06-0.93-1.06c-0.51,0-0.98,0.24-1.43,0.53
			l-0.44-0.84c0.56-0.37,1.28-0.71,2.09-0.71c1.27,0,1.9,0.83,1.9,2.34v3.2h-0.98l-0.09-0.6h-0.03c-0.46,0.41-0.98,0.73-1.58,0.73
			C335.22,138.94,334.6,138.3,334.6,137.35z M337.6,137.36v-1.21c-1.38,0.18-1.84,0.57-1.84,1.11c0,0.48,0.31,0.69,0.73,0.69
			C336.91,137.94,337.22,137.73,337.6,137.36z"/>
		<path style="fill:#231F20;" d="M339.92,136.11c0-1.76,1.04-2.84,2.16-2.84c0.58,0,0.94,0.23,1.34,0.59l-0.05-0.87v-1.96h1.2v7.77
			h-0.98l-0.09-0.58h-0.03c-0.38,0.4-0.9,0.72-1.45,0.72C340.74,138.94,339.92,137.89,339.92,136.11z M343.37,137.28v-2.52
			c-0.35-0.33-0.69-0.45-1.04-0.45c-0.65,0-1.18,0.65-1.18,1.78c0,1.17,0.42,1.8,1.16,1.8C342.7,137.89,343.03,137.71,343.37,137.28
			z"/>
		<path style="fill:#231F20;" d="M345.98,134.32c0-0.5,0.34-0.86,0.77-0.86s0.77,0.37,0.77,0.86c0,0.49-0.34,0.85-0.77,0.85
			S345.98,134.81,345.98,134.32z M345.98,138.08c0-0.5,0.34-0.86,0.77-0.86s0.77,0.37,0.77,0.86c0,0.49-0.34,0.85-0.77,0.85
			S345.98,138.57,345.98,138.08z"/>
		<path style="fill:#231F20;" d="M351.18,131.59h2.02c1.38,0,2.34,0.5,2.34,1.77c0,0.71-0.36,1.35-1,1.57v0.04
			c0.81,0.17,1.38,0.74,1.38,1.73c0,1.42-1.06,2.11-2.58,2.11h-2.18V131.59z M353.06,134.66c1.16,0,1.64-0.45,1.64-1.18
			c0-0.84-0.54-1.16-1.6-1.16h-1.05v2.34H353.06z M353.23,138.08c1.17,0,1.85-0.44,1.85-1.42c0-0.89-0.66-1.3-1.85-1.3h-1.19v2.71
			H353.23z"/>
		<path style="fill:#231F20;" d="M357.14,136.85v-3.39h0.85v3.27c0,1,0.28,1.42,0.95,1.42c0.52,0,0.87-0.27,1.35-0.9v-3.79h0.85
			v5.35h-0.71l-0.07-0.84h-0.03c-0.47,0.58-0.97,0.97-1.66,0.97C357.61,138.94,357.14,138.21,357.14,136.85z"/>
		<path style="fill:#231F20;" d="M362.85,137.73v-6.76h0.85v6.83c0,0.28,0.11,0.39,0.24,0.39c0.05,0,0.09,0,0.19-0.02l0.12,0.69
			c-0.12,0.05-0.27,0.08-0.49,0.08C363.11,138.94,362.85,138.51,362.85,137.73z"/>
		<path style="fill:#231F20;" d="M365.14,136.14c0-1.73,1.03-2.81,2.18-2.81c0.59,0,0.97,0.23,1.41,0.62l-0.04-0.92v-2.06h0.85v7.84
			h-0.71l-0.07-0.63h-0.03c-0.39,0.42-0.93,0.76-1.53,0.76C365.95,138.94,365.14,137.92,365.14,136.14z M368.7,137.45v-2.8
			c-0.43-0.41-0.82-0.56-1.23-0.56c-0.81,0-1.45,0.83-1.45,2.04c0,1.28,0.5,2.04,1.38,2.04
			C367.87,138.18,368.27,137.94,368.7,137.45z"/>
		<path style="fill:#231F20;" d="M370.87,139.83c0-0.46,0.28-0.89,0.74-1.21v-0.04c-0.26-0.17-0.45-0.46-0.45-0.88
			c0-0.44,0.29-0.8,0.55-0.99v-0.04c-0.33-0.28-0.65-0.8-0.65-1.44c0-1.17,0.87-1.9,1.89-1.9c0.28,0,0.53,0.06,0.71,0.13h1.76v0.7
			h-1.04c0.24,0.24,0.41,0.64,0.41,1.1c0,1.15-0.82,1.85-1.85,1.85c-0.25,0-0.52-0.06-0.75-0.18c-0.18,0.16-0.32,0.34-0.32,0.63
			c0,0.34,0.21,0.58,0.88,0.58h0.98c1.17,0,1.76,0.39,1.76,1.28c0,0.99-0.99,1.85-2.55,1.85
			C371.72,141.27,370.87,140.75,370.87,139.83z M374.67,139.55c0-0.5-0.35-0.66-1.02-0.66h-0.87c-0.19,0-0.43-0.02-0.66-0.08
			c-0.36,0.27-0.51,0.59-0.51,0.9c0,0.57,0.55,0.94,1.46,0.94C374.04,140.64,374.67,140.11,374.67,139.55z M374.03,135.23
			c0-0.78-0.48-1.25-1.07-1.25c-0.59,0-1.07,0.46-1.07,1.25c0,0.78,0.49,1.27,1.07,1.27C373.54,136.5,374.03,136.01,374.03,135.23z"
			/>
		<path style="fill:#231F20;" d="M376.11,136.14c0-1.74,1.11-2.81,2.27-2.81c1.29,0,2.01,0.98,2.01,2.51c0,0.19-0.01,0.38-0.04,0.51
			h-3.4c0.06,1.13,0.71,1.87,1.68,1.87c0.48,0,0.88-0.17,1.25-0.43l0.31,0.59c-0.44,0.31-0.98,0.55-1.67,0.55
			C377.18,138.94,376.11,137.9,376.11,136.14z M379.64,135.7c0-1.07-0.45-1.65-1.24-1.65c-0.71,0-1.34,0.6-1.45,1.65H379.64z"/>
		<path style="fill:#231F20;" d="M384.5,138.25h-0.03l-0.08,0.55h-0.68v-7.84h0.85v2.14l-0.03,0.96c0.46-0.42,1.02-0.74,1.58-0.74
			c1.3,0,2,1.07,2,2.72c0,1.83-1.03,2.89-2.18,2.89C385.47,138.94,384.94,138.68,384.5,138.25z M387.24,136.06
			c0-1.18-0.38-1.97-1.33-1.97c-0.43,0-0.87,0.25-1.35,0.73v2.8c0.44,0.41,0.9,0.56,1.23,0.56
			C386.62,138.18,387.24,137.38,387.24,136.06z"/>
		<path style="fill:#231F20;" d="M389.07,136.14c0-1.74,1.11-2.81,2.27-2.81c1.29,0,2.01,0.98,2.01,2.51c0,0.19-0.02,0.38-0.04,0.51
			h-3.4c0.06,1.13,0.71,1.87,1.68,1.87c0.48,0,0.88-0.17,1.25-0.43l0.31,0.59c-0.44,0.31-0.98,0.55-1.67,0.55
			C390.14,138.94,389.07,137.9,389.07,136.14z M392.6,135.7c0-1.07-0.45-1.65-1.24-1.65c-0.71,0-1.34,0.6-1.45,1.65H392.6z"/>
		<path style="fill:#231F20;" d="M394.74,137.15v-2.96h-0.75v-0.69l0.79-0.05l0.1-1.5h0.71v1.5h1.37v0.74h-1.37v2.97
			c0,0.65,0.2,1.03,0.78,1.03c0.18,0,0.41-0.07,0.58-0.14l0.16,0.68c-0.28,0.1-0.62,0.2-0.94,0.2
			C395.11,138.94,394.74,138.22,394.74,137.15z"/>
		<path style="fill:#231F20;" d="M397.5,133.46h0.87l0.75,3.09c0.11,0.51,0.2,0.99,0.3,1.49h0.04c0.11-0.5,0.22-0.99,0.34-1.49
			l0.78-3.09h0.83l0.79,3.09c0.12,0.51,0.23,0.99,0.35,1.49h0.04c0.11-0.5,0.2-0.98,0.31-1.49l0.74-3.09h0.81l-1.35,5.35h-1.04
			l-0.73-2.87c-0.12-0.51-0.22-1-0.34-1.54h-0.04c-0.11,0.54-0.21,1.05-0.35,1.55l-0.71,2.86h-1L397.5,133.46z"/>
		<path style="fill:#231F20;" d="M405.18,136.14c0-1.74,1.11-2.81,2.27-2.81c1.29,0,2.01,0.98,2.01,2.51c0,0.19-0.02,0.38-0.04,0.51
			h-3.4c0.06,1.13,0.71,1.87,1.68,1.87c0.48,0,0.88-0.17,1.25-0.43l0.31,0.59c-0.44,0.31-0.98,0.55-1.67,0.55
			C406.25,138.94,405.18,137.9,405.18,136.14z M408.7,135.7c0-1.07-0.45-1.65-1.24-1.65c-0.71,0-1.34,0.6-1.45,1.65H408.7z"/>
		<path style="fill:#231F20;" d="M410.32,136.14c0-1.74,1.11-2.81,2.27-2.81c1.29,0,2.01,0.98,2.01,2.51c0,0.19-0.01,0.38-0.04,0.51
			h-3.4c0.06,1.13,0.71,1.87,1.68,1.87c0.48,0,0.88-0.17,1.25-0.43l0.31,0.59c-0.44,0.31-0.98,0.55-1.67,0.55
			C411.39,138.94,410.32,137.9,410.32,136.14z M413.85,135.7c0-1.07-0.45-1.65-1.24-1.65c-0.71,0-1.34,0.6-1.45,1.65H413.85z"/>
		<path style="fill:#231F20;" d="M415.84,133.46h0.71l0.07,0.77h0.03c0.48-0.5,1-0.9,1.69-0.9c1.06,0,1.54,0.73,1.54,2.09v3.39
			h-0.85v-3.27c0-1-0.28-1.42-0.95-1.42c-0.52,0-0.87,0.28-1.38,0.82v3.87h-0.85V133.46z"/>
		<path style="fill:#231F20;" d="M424.39,138.25h-0.03l-0.08,0.55h-0.68v-7.84h0.85v2.14l-0.03,0.96c0.46-0.42,1.02-0.74,1.58-0.74
			c1.3,0,2,1.07,2,2.72c0,1.83-1.03,2.89-2.18,2.89C425.36,138.94,424.83,138.68,424.39,138.25z M427.13,136.06
			c0-1.18-0.38-1.97-1.33-1.97c-0.43,0-0.87,0.25-1.35,0.73v2.8c0.44,0.41,0.9,0.56,1.23,0.56
			C426.51,138.18,427.13,137.38,427.13,136.06z"/>
		<path style="fill:#231F20;" d="M429.33,133.46h0.71l0.07,0.97h0.03c0.35-0.68,0.87-1.11,1.43-1.11c0.22,0,0.38,0.03,0.54,0.11
			l-0.16,0.79c-0.17-0.06-0.29-0.09-0.49-0.09c-0.43,0-0.94,0.33-1.28,1.23v3.43h-0.85V133.46z"/>
		<path style="fill:#231F20;" d="M432.56,136.14c0-1.78,1.1-2.81,2.34-2.81s2.34,1.03,2.34,2.81c0,1.77-1.1,2.8-2.34,2.8
			S432.56,137.91,432.56,136.14z M436.35,136.14c0-1.23-0.59-2.06-1.46-2.06s-1.46,0.83-1.46,2.06s0.59,2.05,1.46,2.05
			S436.35,137.36,436.35,136.14z"/>
		<path style="fill:#231F20;" d="M437.96,133.46h0.87l0.75,3.09c0.11,0.51,0.2,0.99,0.3,1.49h0.04c0.11-0.5,0.22-0.99,0.34-1.49
			l0.78-3.09h0.83l0.79,3.09c0.12,0.51,0.23,0.99,0.35,1.49h0.04c0.11-0.5,0.2-0.98,0.31-1.49l0.74-3.09h0.81l-1.35,5.35h-1.04
			l-0.73-2.87c-0.12-0.51-0.22-1-0.34-1.54h-0.04c-0.11,0.54-0.21,1.05-0.35,1.55l-0.71,2.86h-1L437.96,133.46z"/>
		<path style="fill:#231F20;" d="M445.45,138.2l0.42-0.6c0.44,0.37,0.88,0.63,1.49,0.63c0.66,0,0.99-0.37,0.99-0.83
			c0-0.55-0.59-0.79-1.15-1.01c-0.71-0.27-1.5-0.64-1.5-1.54c0-0.86,0.65-1.52,1.74-1.52c0.63,0,1.18,0.27,1.57,0.6l-0.41,0.58
			c-0.35-0.27-0.7-0.48-1.15-0.48c-0.64,0-0.93,0.36-0.93,0.77c0,0.51,0.55,0.7,1.12,0.93c0.73,0.29,1.54,0.6,1.54,1.62
			c0,0.87-0.65,1.59-1.84,1.59C446.62,138.94,445.93,138.62,445.45,138.2z"/>
		<path style="fill:#231F20;" d="M450,140.14c0.58-0.27,0.94-0.76,0.93-1.36l-0.09-0.81l0.42,0.66c-0.11,0.15-0.27,0.19-0.43,0.19
			c-0.33,0-0.62-0.22-0.62-0.63c0-0.39,0.29-0.63,0.63-0.63c0.45,0,0.72,0.4,0.72,1.06c0,0.95-0.52,1.69-1.36,2.06L450,140.14z"/>
		<path style="fill:#231F20;" d="M303.07,146.66h0.88l0.95,3.04c0.15,0.52,0.31,1.07,0.46,1.58h0.04c0.15-0.51,0.31-1.05,0.46-1.58
			l0.95-3.04h0.84l-1.78,5.35h-0.99L303.07,146.66z"/>
		<path style="fill:#231F20;" d="M308.27,149.34c0-1.74,1.11-2.81,2.27-2.81c1.29,0,2.01,0.98,2.01,2.51c0,0.19-0.01,0.38-0.04,0.51
			h-3.4c0.06,1.13,0.71,1.87,1.68,1.87c0.48,0,0.88-0.17,1.25-0.43l0.31,0.59c-0.44,0.31-0.98,0.55-1.67,0.55
			C309.34,152.14,308.27,151.1,308.27,149.34z M311.79,148.9c0-1.07-0.45-1.65-1.24-1.65c-0.71,0-1.34,0.6-1.45,1.65H311.79z"/>
		<path style="fill:#231F20;" d="M313.79,146.66h0.71l0.07,0.97h0.03c0.35-0.68,0.87-1.11,1.43-1.11c0.22,0,0.38,0.03,0.54,0.11
			l-0.16,0.79c-0.17-0.06-0.29-0.09-0.49-0.09c-0.43,0-0.94,0.33-1.28,1.23v3.43h-0.85V146.66z"/>
		<path style="fill:#231F20;" d="M317.54,150.35v-2.96h-0.75v-0.69l0.79-0.05l0.1-1.5h0.71v1.5h1.37v0.74h-1.37v2.97
			c0,0.65,0.2,1.03,0.78,1.03c0.18,0,0.41-0.07,0.58-0.14l0.16,0.68c-0.28,0.1-0.62,0.2-0.94,0.2
			C317.9,152.14,317.54,151.42,317.54,150.35z"/>
		<path style="fill:#231F20;" d="M320.74,144.97c0-0.36,0.26-0.58,0.59-0.58s0.59,0.23,0.59,0.58c0,0.34-0.26,0.58-0.59,0.58
			S320.74,145.32,320.74,144.97z M320.9,146.66h0.85v5.35h-0.85V146.66z"/>
		<path style="fill:#231F20;" d="M323.07,149.34c0-1.78,1.14-2.81,2.43-2.81c0.66,0,1.12,0.29,1.48,0.63l-0.44,0.6
			c-0.29-0.28-0.6-0.47-1-0.47c-0.91,0-1.58,0.83-1.58,2.06s0.63,2.05,1.56,2.05c0.46,0,0.87-0.24,1.18-0.53l0.37,0.61
			c-0.45,0.43-1.03,0.68-1.63,0.68C324.1,152.14,323.07,151.11,323.07,149.34z"/>
		<path style="fill:#231F20;" d="M327.87,150.62c0-1.17,0.95-1.75,3.1-2c0-0.69-0.22-1.35-1.04-1.35c-0.58,0-1.11,0.29-1.5,0.57
			l-0.33-0.62c0.46-0.32,1.17-0.7,1.98-0.7c1.23,0,1.75,0.87,1.75,2.2v3.28h-0.71l-0.07-0.64h-0.03c-0.48,0.42-1.04,0.77-1.67,0.77
			C328.5,152.14,327.87,151.58,327.87,150.62z M330.97,150.7v-1.49c-1.69,0.22-2.26,0.65-2.26,1.34c0,0.61,0.39,0.86,0.88,0.86
			C330.08,151.41,330.48,151.16,330.97,150.7z"/>
		<path style="fill:#231F20;" d="M333.41,150.93v-6.76h0.85V151c0,0.28,0.11,0.39,0.24,0.39c0.05,0,0.09,0,0.19-0.02l0.12,0.69
			c-0.12,0.05-0.27,0.08-0.49,0.08C333.67,152.14,333.41,151.71,333.41,150.93z"/>
		<path style="fill:#231F20;" d="M337.59,146.71l0.72-0.05h1.88v0.74h-2.61V146.71z M338.27,145.81c0-1.09,0.47-1.78,1.48-1.78
			c0.31,0,0.61,0.08,0.84,0.18l-0.18,0.69c-0.19-0.09-0.39-0.14-0.57-0.14c-0.48,0-0.71,0.35-0.71,1.04v6.19h-0.85V145.81z"/>
		<path style="fill:#231F20;" d="M341.09,150.05v-3.39h0.85v3.27c0,1,0.28,1.42,0.95,1.42c0.52,0,0.87-0.27,1.35-0.9v-3.79h0.85
			v5.35h-0.71l-0.07-0.84h-0.03c-0.47,0.58-0.97,0.97-1.66,0.97C341.57,152.14,341.09,151.41,341.09,150.05z"/>
		<path style="fill:#231F20;" d="M346.81,146.66h0.71l0.07,0.97h0.03c0.35-0.68,0.87-1.11,1.43-1.11c0.22,0,0.38,0.03,0.54,0.11
			l-0.16,0.79c-0.17-0.06-0.29-0.09-0.49-0.09c-0.43,0-0.94,0.33-1.28,1.23v3.43h-0.85V146.66z"/>
		<path style="fill:#231F20;" d="M350.41,146.66h0.71l0.07,0.97h0.03c0.35-0.68,0.87-1.11,1.43-1.11c0.22,0,0.38,0.03,0.54,0.11
			l-0.16,0.79c-0.17-0.06-0.29-0.09-0.49-0.09c-0.43,0-0.94,0.33-1.28,1.23v3.43h-0.85V146.66z"/>
		<path style="fill:#231F20;" d="M353.63,149.34c0-1.78,1.1-2.81,2.34-2.81s2.34,1.03,2.34,2.81c0,1.77-1.1,2.8-2.34,2.8
			S353.63,151.11,353.63,149.34z M357.43,149.34c0-1.23-0.59-2.06-1.46-2.06s-1.46,0.83-1.46,2.06s0.59,2.05,1.46,2.05
			S357.43,150.56,357.43,149.34z"/>
		<path style="fill:#231F20;" d="M359.03,146.66h0.87l0.75,3.09c0.11,0.51,0.2,0.99,0.3,1.49h0.04c0.11-0.5,0.22-0.99,0.34-1.49
			l0.78-3.09h0.83l0.79,3.09c0.12,0.51,0.23,0.99,0.35,1.49h0.04c0.11-0.5,0.2-0.98,0.31-1.49l0.74-3.09h0.81l-1.35,5.35h-1.04
			l-0.73-2.87c-0.12-0.51-0.22-1-0.34-1.54h-0.04c-0.11,0.54-0.21,1.05-0.35,1.55l-0.71,2.86h-1L359.03,146.66z"/>
		<path style="fill:#231F20;" d="M366.52,151.4l0.42-0.6c0.44,0.37,0.88,0.63,1.49,0.63c0.66,0,0.99-0.37,0.99-0.83
			c0-0.55-0.59-0.79-1.15-1.01c-0.71-0.27-1.5-0.64-1.5-1.54c0-0.86,0.65-1.52,1.74-1.52c0.63,0,1.18,0.27,1.57,0.6l-0.41,0.58
			c-0.35-0.27-0.7-0.48-1.15-0.48c-0.64,0-0.93,0.36-0.93,0.77c0,0.51,0.55,0.7,1.12,0.93c0.73,0.29,1.54,0.6,1.54,1.62
			c0,0.87-0.65,1.59-1.84,1.59C367.69,152.14,367,151.82,366.52,151.4z"/>
	</g>
</g>
</svg>
