<?xml version="1.0" encoding="utf-8"?>
<!-- Generator: Adobe Illustrator 24.0.2, SVG Export Plug-In . SVG Version: 6.00 Build 0)  -->
<svg version="1.1" id="Layer_1" xmlns="http://www.w3.org/2000/svg" xmlns:xlink="http://www.w3.org/1999/xlink" x="0px" y="0px"
	 viewBox="0 0 648 98.5" style="enable-background:new 0 0 648 98.5;" xml:space="preserve">
<g>
	<defs>
		<rect id="SVGID_1_" x="18" y="0" width="72" height="98.5"/>
	</defs>
	<clipPath id="SVGID_2_">
		<use xlink:href="#SVGID_1_"  style="overflow:visible;"/>
	</clipPath>
	<path style="clip-path:url(#SVGID_2_);fill-rule:evenodd;clip-rule:evenodd;fill:#FFFFFF;" d="M54.69,98.61
		c6.25-0.7,10.81-4.15,14.71-8.35c8.09-8.7,13.4-23.6,17.48-37.56c2.3-7.86,3.83-16.91,1.9-26.09C86.05,13.56,77.97,3.62,64.21,1.22
		C57.94,0.13,50.87-0.42,43.96,0.7C33.88,2.33,24.98,9.75,21.29,17.92c-1.62,3.58-2.68,9.63-3.29,14.43V0h72v98.6H54.69z"/>
	<path style="clip-path:url(#SVGID_2_);fill-rule:evenodd;clip-rule:evenodd;" d="M54.69,98.61h-1.9
		c-7.53-1.08-12.91-5.89-16.96-11.3c-3.24-4.33-5.82-9.21-8.13-13.91c-5-10.15-8.88-21.52-9.69-34.43v-6.61
		c0.61-4.8,1.67-10.86,3.29-14.43C24.98,9.75,33.88,2.33,43.96,0.7c6.91-1.11,13.98-0.57,20.25,0.52
		c13.75,2.4,21.83,12.34,24.58,25.39c1.93,9.18,0.39,18.23-1.9,26.09C82.8,66.66,77.49,81.56,69.4,90.26
		C65.5,94.46,60.94,97.91,54.69,98.61 M49.85,1.39c-6.03,0.28-10.89,1.5-15.23,4c-4.02,2.31-8,5.63-10.21,9.04
		c-3.91,6.04-5.02,14.05-5.02,21.74c0,16.19,5.28,30.38,11.42,41.04c3.29,5.71,6.88,11.36,11.25,15.13c1.91,1.64,4.33,3.27,6.4,4
		c5.3,1.86,10.31,0.85,14.89-2.26c10.38-7.06,16.62-22.69,21.12-36.35c1.72-5.22,3.25-10.61,3.98-15.3
		c1.42-9.09-0.82-18.74-3.98-24.69C78.41,6.33,68.99-0.15,50.37,1.22c-0.1,0.01-0.2,0.18-0.17,0.17C50.08,1.4,49.96,1.39,49.85,1.39
		"/>
	<path style="clip-path:url(#SVGID_2_);fill-rule:evenodd;clip-rule:evenodd;" d="M45.35,19.65c-0.42,1.92-2.91,1.43-4.33,1.74
		c-3.05,0.66-6.04,1.86-8.31,3.48c-1.06,0.76-2.29,2.17-3.63,1.57C32.54,22.41,38,18.63,45.35,19.65"/>
	<path style="clip-path:url(#SVGID_2_);fill-rule:evenodd;clip-rule:evenodd;" d="M78.58,28c-3-0.41-5.25-3.16-8.31-4.35
		c-2.22-0.86-4.7-0.84-6.75-2.26c-0.03-0.43,0.09-0.72,0.35-0.87c3.87-0.16,9.28,2.47,12.29,4.69C77.18,25.98,78.72,26.74,78.58,28"
		/>
	<path style="clip-path:url(#SVGID_2_);fill-rule:evenodd;clip-rule:evenodd;" d="M48.46,33.91c-1.38-0.25-2.78-1.95-4.15-2.78
		c-0.61,0.24,0.72,0.87,0.17,1.04c-1.48,0.1-1.99-1.67-3.29-1.91c-2.04-0.37-3.42,1.27-4.85,2.26c-1.76-0.72-2.67,2.1-4.67,2.26
		c1.86-2.76,6.79-7.04,11.6-5.39c1.07,0.37,1.98,1.3,2.94,2.09C47.11,32.22,48.63,32.8,48.46,33.91"/>
	<path style="clip-path:url(#SVGID_2_);fill-rule:evenodd;clip-rule:evenodd;" d="M71.14,31.83c-0.43,0.35,1.31,0.65,0.69,1.22
		c-1.41-0.5-3.59-1.99-5.88-1.22c-1.03,0.35-1.06,1.46-2.25,1.39c-0.37-0.37,0.2-0.68,0.35-1.04c-1.43,0.54-2.41,1.52-3.81,2.09
		c0.26-1.33,2.03-2.23,3.29-2.78c1.31-0.57,3.28-1.22,4.67-1.22c3.56,0.02,6.22,2.87,7.61,4.69C74.03,34.82,72.91,32.55,71.14,31.83
		"/>
	<path style="clip-path:url(#SVGID_2_);fill-rule:evenodd;clip-rule:evenodd;" d="M40.5,33.05c0.41,0.23,1.2,0.07,1.56,0.35
		c0.53,1.36-0.24,2.54-1.04,2.78c-3.81,1.17-4.16-5.36-0.52-4V33.05z"/>
	<path style="clip-path:url(#SVGID_2_);fill-rule:evenodd;clip-rule:evenodd;" d="M68.54,32.87c-0.16,1.08,0.31,1.55,1.38,1.39
		c0.35,2.25-1.57,3-2.94,2.61C64.5,36.16,65.67,31.25,68.54,32.87"/>
	<path style="clip-path:url(#SVGID_2_);fill-rule:evenodd;clip-rule:evenodd;" d="M36.52,32.87c-0.71,4.51,4.85,5.35,6.92,2.78
		c0.61-0.76,0.35-2.2,1.04-2.61c1.52,0.47-0.22,3.13-0.69,3.65c-2.75,3.08-9.44,1.24-8.31-3.83H36.52z"/>
	<path style="clip-path:url(#SVGID_2_);fill-rule:evenodd;clip-rule:evenodd;" d="M71.83,33.91c1.64,5.92-8.95,6.69-8.48,0.35
		c1.07-0.27,0.66,0.96,1.04,1.39c0.81,0.99,1.54,2.29,2.77,2.43C69.71,38.4,70.96,35.87,71.83,33.91"/>
	<path style="clip-path:url(#SVGID_2_);fill-rule:evenodd;clip-rule:evenodd;" d="M48.81,35.13c-1.18,2.47-4.33,4.81-9,4.52
		c-1.53-0.09-2.92-0.66-4.67-1.39c-1.08-0.45-3.71-1.74-3.29-2.43c0.47-0.78,3.84,1.77,4.67,2.09c4.59,1.74,9.91-0.12,11.94-2.96
		C48.66,34.93,48.77,35,48.81,35.13"/>
	<path style="clip-path:url(#SVGID_2_);fill-rule:evenodd;clip-rule:evenodd;" d="M76.5,36.18c-2.73,5.34-13.81,6.21-16.27-0.52
		c0.01-0.17,0.21-0.13,0.35-0.17c0.15-0.11,0.31-0.21,0.35,0c1.99,2.51,4.55,5,9,4C72.67,38.86,74.26,36.46,76.5,36.18"/>
	<path style="clip-path:url(#SVGID_2_);fill-rule:evenodd;clip-rule:evenodd;fill:#FFFFFF;" d="M18,38.96
		c0.81,12.92,4.7,24.28,9.69,34.43c2.31,4.7,4.89,9.58,8.14,13.91c4.06,5.41,9.44,10.22,16.96,11.3H18V38.96z"/>
	<path style="clip-path:url(#SVGID_2_);fill-rule:evenodd;clip-rule:evenodd;" d="M59.71,56.52c-1.93,3.89-10.89,2.97-12.46-0.7
		c0.25,0.01,0.49,0.03,0.52-0.17c1.14,1.38,2.78,1.67,4.33,2.26c0.38,0.15,0.75,0.63,1.21,0.7C56.01,58.97,57.78,56.26,59.71,56.52"
		/>
	<path style="clip-path:url(#SVGID_2_);fill-rule:evenodd;clip-rule:evenodd;" d="M66.46,68.52c-6.81,2.6-18.8,1.76-25.62-0.17
		c-0.03-0.2,0.04-0.31,0.17-0.35C47.93,69.27,59.02,69.65,66.46,68.52"/>
	<path style="clip-path:url(#SVGID_2_);fill-rule:evenodd;clip-rule:evenodd;" d="M58.5,76.52c-1.15,1.17-5.44,0.83-7.1,0.35
		C52.66,75.31,56.23,76.84,58.5,76.52"/>
	<path style="clip-path:url(#SVGID_2_);fill-rule:evenodd;clip-rule:evenodd;fill:#FFFFFF;" d="M50.19,1.39
		c-0.03,0,0.08-0.17,0.17-0.17c18.62-1.37,28.04,5.11,34.1,16.52c3.16,5.95,5.41,15.6,3.98,24.69c-0.74,4.69-2.26,10.08-3.98,15.3
		c-4.5,13.65-10.73,29.29-21.11,36.35c-4.57,3.11-9.58,4.12-14.88,2.26c-2.07-0.73-4.5-2.36-6.4-4c-4.37-3.77-7.96-9.42-11.25-15.13
		c-6.14-10.66-11.42-24.86-11.42-41.04c0-7.69,1.1-15.7,5.02-21.74c2.21-3.41,6.19-6.73,10.21-9.04c4.35-2.5,9.2-3.72,15.23-4
		C49.96,1.39,50.08,1.4,50.19,1.39 M75.81,34.96c-1.39-1.82-4.06-4.68-7.61-4.7c-1.4-0.01-3.36,0.65-4.67,1.22
		c-1.26,0.55-3.02,1.45-3.29,2.78c1.4-0.57,2.38-1.55,3.81-2.09c-0.14,0.37-0.71,0.68-0.35,1.04c1.19,0.07,1.22-1.04,2.25-1.39
		c2.29-0.77,4.47,0.71,5.89,1.22c0.61-0.57-1.12-0.87-0.69-1.22C72.91,32.55,74.03,34.82,75.81,34.96 M29.08,26.44
		c1.34,0.6,2.57-0.81,3.63-1.57c2.27-1.62,5.26-2.81,8.31-3.48c1.41-0.31,3.91,0.18,4.33-1.74C38,18.63,32.54,22.41,29.08,26.44
		 M76.15,25.22c-3.01-2.22-8.42-4.86-12.29-4.69c-0.26,0.15-0.37,0.44-0.35,0.87c2.05,1.42,4.52,1.4,6.75,2.26
		c3.06,1.19,5.31,3.94,8.31,4.35C78.72,26.74,77.18,25.98,76.15,25.22 M46.21,31.48c-0.96-0.79-1.87-1.72-2.94-2.09
		c-4.81-1.65-9.73,2.64-11.6,5.39c2-0.16,2.91-2.98,4.67-2.26c1.43-0.99,2.81-2.63,4.85-2.26c1.3,0.24,1.8,2.01,3.29,1.91
		c0.55-0.18-0.78-0.8-0.17-1.04c1.38,0.83,2.77,2.53,4.15,2.78C48.63,32.8,47.11,32.22,46.21,31.48 M40.5,32.18
		c-3.64-1.36-3.29,5.17,0.52,4c0.8-0.25,1.57-1.42,1.04-2.78c-0.36-0.28-1.15-0.12-1.56-0.35V32.18z M66.98,36.87
		c1.38,0.39,3.29-0.36,2.94-2.61c-1.08,0.15-1.54-0.31-1.39-1.39C65.67,31.25,64.5,36.16,66.98,36.87 M35.48,32.87
		c-1.13,5.07,5.56,6.91,8.31,3.83c0.47-0.53,2.21-3.19,0.69-3.65c-0.69,0.41-0.43,1.85-1.04,2.61c-2.07,2.56-7.64,1.73-6.92-2.78
		H35.48z M67.15,38.09c-1.23-0.15-1.96-1.44-2.77-2.44c-0.38-0.43,0.03-1.66-1.04-1.39c-0.47,6.34,10.13,5.57,8.48-0.35
		C70.96,35.87,69.71,38.4,67.15,38.09 M48.46,34.96c-2.04,2.84-7.35,4.7-11.94,2.96c-0.83-0.32-4.2-2.86-4.67-2.09
		c-0.42,0.7,2.21,1.99,3.29,2.44c1.76,0.73,3.15,1.3,4.67,1.39c4.67,0.29,7.82-2.05,9-4.52C48.77,35,48.66,34.93,48.46,34.96
		 M69.92,39.48c-4.45,1-7.01-1.49-9-4c-0.04-0.21-0.19-0.11-0.35,0c-0.13,0.04-0.34,0-0.35,0.17c2.46,6.73,13.54,5.86,16.27,0.52
		C74.26,36.46,72.67,38.86,69.92,39.48 M53.31,58.61c-0.46-0.06-0.83-0.55-1.21-0.7c-1.54-0.59-3.19-0.88-4.33-2.26
		c-0.03,0.2-0.27,0.19-0.52,0.17c1.58,3.67,10.53,4.59,12.46,0.7C57.78,56.26,56.01,58.97,53.31,58.61 M41.02,68
		c-0.13,0.04-0.2,0.15-0.17,0.35c6.82,1.93,18.8,2.78,25.62,0.17C59.02,69.65,47.93,69.27,41.02,68 M51.4,76.87
		c1.66,0.48,5.95,0.82,7.1-0.35C56.23,76.84,52.66,75.31,51.4,76.87"/>
</g>
<g>
	<defs>
		<rect id="SVGID_3_" x="126" y="0" width="72" height="98.13"/>
	</defs>
	<clipPath id="SVGID_4_">
		<use xlink:href="#SVGID_3_"  style="overflow:visible;"/>
	</clipPath>
	<path style="clip-path:url(#SVGID_4_);fill-rule:evenodd;clip-rule:evenodd;fill:#FFFFFF;" d="M162.69,98.14
		c6.25-0.7,10.81-4.13,14.71-8.31c8.09-8.66,13.4-23.48,17.48-37.38c2.3-7.82,3.83-16.83,1.9-25.96
		C194.04,13.5,185.97,3.6,172.21,1.21c-6.27-1.09-13.34-1.63-20.25-0.52c-10.09,1.62-18.98,9.01-22.67,17.13
		c-1.62,3.56-2.68,9.59-3.29,14.37V0h72v98.13H162.69z"/>
	<path style="clip-path:url(#SVGID_4_);fill-rule:evenodd;clip-rule:evenodd;" d="M162.69,98.14h-1.9
		c-7.52-1.07-12.91-5.86-16.96-11.25c-3.24-4.31-5.82-9.17-8.13-13.85c-4.99-10.1-8.88-21.41-9.69-34.27V32.2
		c0.61-4.78,1.67-10.81,3.29-14.37c3.69-8.12,12.59-15.51,22.67-17.13c6.91-1.11,13.98-0.57,20.25,0.52
		c13.75,2.38,21.83,12.28,24.58,25.27c1.93,9.13,0.39,18.14-1.9,25.96c-4.08,13.9-9.39,28.72-17.48,37.38
		C173.5,94.01,168.94,97.44,162.69,98.14 M157.85,1.39c-6.03,0.28-10.89,1.49-15.23,3.98c-4.02,2.3-8,5.61-10.21,9
		c-3.92,6.01-5.02,13.98-5.02,21.63c0,16.11,5.28,30.24,11.42,40.85c3.29,5.68,6.88,11.31,11.25,15.06c1.91,1.64,4.33,3.26,6.4,3.98
		c5.3,1.85,10.31,0.84,14.89-2.25c10.38-7.02,16.62-22.58,21.11-36.17c1.72-5.19,3.25-10.56,3.98-15.23
		c1.43-9.05-0.82-18.65-3.98-24.58c-6.05-11.36-15.47-17.81-34.1-16.44c-0.1,0.01-0.2,0.17-0.17,0.17
		C158.08,1.39,157.96,1.38,157.85,1.39"/>
	<path style="clip-path:url(#SVGID_4_);fill-rule:evenodd;clip-rule:evenodd;" d="M162,12.64c-1,0.79-2.81-0.19-3.98,0.52
		C158.03,11.3,161.34,11.59,162,12.64"/>
	<path style="clip-path:url(#SVGID_4_);fill-rule:evenodd;clip-rule:evenodd;" d="M154.73,21.81c0.25,0.63-0.65,1.06-1.04,1.39
		c-1.66,1.39-4.03,2.13-6.4,2.94c-3.13,1.06-6.49,2.55-9.52,2.6c-0.55-2.33,2.4-2.54,3.98-3.11c4.2-1.52,9.38-2.1,12.63-4.33
		C154.55,21.42,154.65,21.61,154.73,21.81"/>
	<path style="clip-path:url(#SVGID_4_);fill-rule:evenodd;clip-rule:evenodd;" d="M187.62,32.37c-1.66,0.59-2.83-1.16-4.33-2.08
		c-1.29-0.79-3.03-1.83-4.5-2.42c-2.93-1.19-6.9-1.81-6.92-5.36c0.39,0.24,0.65-0.45,0.69,0c2.67,3.08,8.14,3.67,11.77,5.88
		C185.67,29.21,187.72,30.43,187.62,32.37"/>
	<path style="clip-path:url(#SVGID_4_);fill-rule:evenodd;clip-rule:evenodd;" d="M152.31,29.08c-0.57,0.63-1.54,0.12-2.25,0.17
		c-2.36,0.19-3.84,1.92-6.06,2.25c1.15-1.4,3.18-2.97,6.23-2.94C150.78,28.57,152.2,28.14,152.31,29.08"/>
	<path style="clip-path:url(#SVGID_4_);fill-rule:evenodd;clip-rule:evenodd;" d="M182.77,34.1c-2.53-0.89-6.21-3.12-10.04-2.25
		c0.21-1.01,1.7-1.01,2.42-1.04C178.02,30.72,181.51,32.41,182.77,34.1"/>
	<path style="clip-path:url(#SVGID_4_);fill-rule:evenodd;clip-rule:evenodd;" d="M185.71,37.04c-2.6,0.72-4.9-1.66-7.62-1.56
		c-0.28,0.48-0.37,1.13-0.69,1.56c-1.2,0.28-1.74,0.33-2.77-0.17c-0.19-0.56-0.47-1.03-0.52-1.73c-0.63,0.18-1.38,0.24-1.73,0.69
		c-0.47-0.31,0.3-0.84,0.52-1.04c-1.9-0.17-3.73-0.42-5.19-1.04v-0.52c2.54,0.68,5.36,0.65,8.31,0.87c2.38,0.17,4.12,1.27,6.06,1.9
		C183.44,36.45,184.85,36.09,185.71,37.04"/>
	<path style="clip-path:url(#SVGID_4_);fill-rule:evenodd;clip-rule:evenodd;" d="M172.73,37.91c0.42-0.24-0.74-0.95-0.17-1.38
		c1.34,2.56,6.11,1.25,7.61,0.35c-0.67,1.17-1.89,1.8-3.63,1.9c1.75,0.9,4.97-0.53,6.58-0.35c-4.08,2.33-12.18,1.63-13.67-2.6
		C170.43,35.97,171.48,37.47,172.73,37.91"/>
	<path style="clip-path:url(#SVGID_4_);fill-rule:evenodd;clip-rule:evenodd;fill:#FFFFFF;" d="M126,38.77
		c0.81,12.86,4.7,24.17,9.69,34.27c2.31,4.68,4.89,9.54,8.14,13.85c4.05,5.39,9.44,10.18,16.96,11.25H126V38.77z"/>
	<path style="clip-path:url(#SVGID_4_);fill-rule:evenodd;clip-rule:evenodd;" d="M167.71,56.6c-0.28,1.08-1.77,1.13-2.77,1.39
		c-3.48,0.89-7.1,0.27-9.69-1.56c2.08-0.3,4.61,1.49,7.44,1.38C164.54,57.74,165.98,56.74,167.71,56.6"/>
	<path style="clip-path:url(#SVGID_4_);fill-rule:evenodd;clip-rule:evenodd;" d="M170.65,70.45c-0.66,1.08-2.16,0.44-3.12,0.35
		c-3.26-0.33-8.28-1.36-12.12-1.04c-1.15,0.1-2.32,0.87-3.29,0.17C157.5,67.58,165.32,70.17,170.65,70.45"/>
	<path style="clip-path:url(#SVGID_4_);fill-rule:evenodd;clip-rule:evenodd;" d="M165.29,76.68c-1.84,0.95-4.48-0.24-6.58-0.17
		c-0.09-0.14-0.18-0.28-0.17-0.52C160.7,75.63,163.83,75.76,165.29,76.68"/>
	<path style="clip-path:url(#SVGID_4_);fill-rule:evenodd;clip-rule:evenodd;fill:#FFFFFF;" d="M158.19,1.39
		c-0.03,0,0.07-0.17,0.17-0.17c18.63-1.37,28.04,5.08,34.1,16.44c3.16,5.93,5.41,15.53,3.98,24.58c-0.74,4.67-2.26,10.04-3.98,15.23
		c-4.5,13.59-10.73,29.15-21.11,36.17c-4.57,3.09-9.58,4.1-14.89,2.25c-2.07-0.72-4.5-2.35-6.4-3.98
		c-4.37-3.75-7.96-9.38-11.25-15.06c-6.14-10.61-11.42-24.74-11.42-40.85c0-7.65,1.1-15.62,5.02-21.63c2.21-3.39,6.19-6.7,10.21-9
		c4.35-2.49,9.2-3.7,15.23-3.98C157.96,1.38,158.08,1.39,158.19,1.39 M158.02,13.16c1.17-0.71,2.98,0.27,3.98-0.52
		C161.34,11.59,158.03,11.3,158.02,13.16 M154.38,21.29c-3.26,2.23-8.43,2.81-12.63,4.33c-1.59,0.57-4.53,0.78-3.98,3.12
		c3.03-0.04,6.39-1.53,9.52-2.6c2.38-0.81,4.74-1.55,6.4-2.94c0.39-0.33,1.29-0.75,1.04-1.39
		C154.65,21.61,154.55,21.42,154.38,21.29 M184.33,28.39c-3.63-2.22-9.1-2.8-11.77-5.89c-0.04-0.45-0.3,0.24-0.69,0
		c0.02,3.55,4,4.18,6.92,5.37c1.47,0.6,3.21,1.63,4.5,2.42c1.5,0.92,2.67,2.67,4.33,2.08C187.72,30.43,185.67,29.21,184.33,28.39
		 M150.23,28.56c-3.05-0.03-5.08,1.54-6.23,2.94c2.21-0.33,3.7-2.06,6.06-2.25c0.71-0.06,1.68,0.46,2.25-0.17
		C152.2,28.14,150.78,28.57,150.23,28.56 M175.15,30.81c-0.73,0.02-2.21,0.03-2.42,1.04c3.83-0.87,7.51,1.36,10.04,2.25
		C181.51,32.41,178.02,30.72,175.15,30.81 M144.17,33.06c-1.83,0.43-3.74,0.72-4.67,1.73c2.66,0.75,5.31-1.23,7.79-1.38
		c-0.28,3.27,4.85,2.16,3.98-0.35c0.85,0.19,1.43,0.65,2.25,0.87c0.25-1-0.79-0.71-1.04-1.21c1.88-0.38,3.36,1.09,4.5,0.35
		C153.87,30.8,147.67,32.23,144.17,33.06 M182.08,36c-1.94-0.64-3.68-1.73-6.06-1.9c-2.95-0.21-5.77-0.19-8.31-0.86v0.52
		c1.46,0.62,3.29,0.87,5.19,1.04c-0.22,0.2-0.99,0.72-0.52,1.04c0.36-0.45,1.1-0.52,1.73-0.69c0.05,0.7,0.33,1.17,0.52,1.73
		c1.02,0.5,1.57,0.46,2.77,0.17c0.32-0.43,0.42-1.08,0.69-1.56c2.71-0.1,5.01,2.27,7.61,1.56C184.85,36.09,183.44,36.45,182.08,36
		 M153.52,34.62c-1.44,0.61-2.86,2.47-4.85,2.25c-0.85-0.09-1.34-0.67-2.08-1.21c-0.22-0.54-0.14-1.47-0.87-1.04
		c-0.31,1.41,1.38,2.31,2.42,2.94c-2.78,0.54-5.2-1.77-6.4-0.86c3.53,2.57,8.38,1.7,11.6,0.17c1.36-0.65,2.99-1.02,3.29-2.08
		c-1.41,0.09-3.01,1.49-4.67,1.9C152.47,36.07,153.77,35.44,153.52,34.62 M169.44,35.83c1.5,4.22,9.59,4.93,13.67,2.6
		c-1.6-0.18-4.83,1.24-6.58,0.35c1.74-0.1,2.96-0.73,3.63-1.9c-1.51,0.9-6.27,2.22-7.62-0.35c-0.57,0.43,0.59,1.14,0.17,1.39
		C171.48,37.47,170.43,35.96,169.44,35.83 M162.69,57.81c-2.84,0.1-5.36-1.68-7.44-1.39c2.6,1.83,6.22,2.45,9.69,1.56
		c1-0.26,2.49-0.3,2.77-1.39C165.98,56.74,164.54,57.74,162.69,57.81 M152.13,69.93c0.97,0.7,2.14-0.08,3.29-0.17
		c3.83-0.32,8.85,0.71,12.12,1.04c0.95,0.1,2.46,0.74,3.11-0.35C165.32,70.17,157.5,67.58,152.13,69.93 M158.54,75.98
		c-0.01,0.24,0.08,0.38,0.17,0.52c2.1-0.07,4.74,1.13,6.58,0.17C163.83,75.76,160.7,75.63,158.54,75.98"/>
	<path style="clip-path:url(#SVGID_4_);fill-rule:evenodd;clip-rule:evenodd;" d="M156.98,33.06c-1.14,0.75-2.62-0.73-4.5-0.35
		c0.25,0.5,1.29,0.21,1.04,1.21c-0.82-0.21-1.4-0.68-2.25-0.87c0.87,2.51-4.26,3.62-3.98,0.35c-2.48,0.15-5.13,2.14-7.79,1.39
		c0.94-1.02,2.84-1.3,4.67-1.73C147.67,32.23,153.87,30.8,156.98,33.06"/>
	<path style="clip-path:url(#SVGID_4_);fill-rule:evenodd;clip-rule:evenodd;" d="M151.96,36.7c1.66-0.42,3.26-1.81,4.67-1.9
		c-0.3,1.06-1.93,1.43-3.29,2.08c-3.21,1.52-8.06,2.39-11.6-0.17c1.2-0.9,3.63,1.4,6.4,0.87c-1.04-0.63-2.74-1.53-2.42-2.94
		c0.72-0.43,0.65,0.5,0.87,1.04c0.74,0.54,1.23,1.12,2.08,1.21c1.99,0.22,3.41-1.64,4.85-2.25
		C153.77,35.44,152.47,36.08,151.96,36.7"/>
</g>
<g>
	<defs>
		<rect id="SVGID_5_" x="234" y="0" width="72" height="98.13"/>
	</defs>
	<clipPath id="SVGID_6_">
		<use xlink:href="#SVGID_5_"  style="overflow:visible;"/>
	</clipPath>
	<path style="clip-path:url(#SVGID_6_);fill-rule:evenodd;clip-rule:evenodd;fill:#FFFFFF;" d="M270.69,98.14
		c6.25-0.7,10.81-4.13,14.71-8.31c8.09-8.66,13.4-23.48,17.48-37.38c2.3-7.82,3.83-16.83,1.9-25.96
		C302.04,13.5,293.97,3.6,280.21,1.21c-6.27-1.09-13.34-1.63-20.25-0.52c-10.08,1.62-18.98,9.01-22.67,17.13
		c-1.62,3.56-2.68,9.59-3.29,14.37V0h72v98.13H270.69z"/>
	<path style="clip-path:url(#SVGID_6_);fill-rule:evenodd;clip-rule:evenodd;" d="M270.69,98.14h-1.9
		c-7.52-1.07-12.91-5.86-16.96-11.25c-3.24-4.31-5.82-9.17-8.13-13.85c-4.99-10.1-8.88-21.41-9.69-34.27V32.2
		c0.61-4.78,1.67-10.81,3.29-14.37c3.69-8.12,12.59-15.51,22.67-17.13c6.91-1.11,13.98-0.57,20.25,0.52
		c13.75,2.38,21.83,12.28,24.58,25.27c1.93,9.13,0.39,18.14-1.9,25.96c-4.08,13.9-9.39,28.72-17.48,37.38
		C281.5,94.01,276.94,97.44,270.69,98.14 M265.85,1.39c-6.03,0.28-10.89,1.49-15.23,3.98c-4.02,2.3-8,5.61-10.21,9
		c-3.92,6.01-5.02,13.98-5.02,21.63c0,16.11,5.28,30.24,11.42,40.85c3.29,5.68,6.88,11.31,11.25,15.06c1.91,1.64,4.33,3.26,6.4,3.98
		c5.3,1.85,10.31,0.84,14.89-2.25c10.38-7.02,16.62-22.58,21.11-36.17c1.72-5.19,3.25-10.56,3.98-15.23
		c1.43-9.05-0.82-18.65-3.98-24.58c-6.05-11.36-15.47-17.81-34.1-16.44c-0.1,0.01-0.2,0.17-0.17,0.17
		C266.08,1.39,265.96,1.38,265.85,1.39"/>
	<path style="clip-path:url(#SVGID_6_);fill-rule:evenodd;clip-rule:evenodd;" d="M272.42,13.68c-0.77,0.79-2.42-0.15-3.98-0.17
		c-2.11-0.02-4.02,0.99-5.19,0.69C264.55,11.59,270.94,12.07,272.42,13.68"/>
	<path style="clip-path:url(#SVGID_6_);fill-rule:evenodd;clip-rule:evenodd;" d="M273.98,17.83c-1.01,0.45-2.4-0.62-3.98-0.69
		c-2.75-0.13-5.39,0.79-7.1,1.21c0.88-1.52,4.32-2.14,7.27-1.9C271.58,16.56,273.58,16.84,273.98,17.83"/>
	<path style="clip-path:url(#SVGID_6_);fill-rule:evenodd;clip-rule:evenodd;" d="M262.56,22.16c-0.49,1.32-2.17,1.62-3.46,2.42
		c-1.16,0.72-2.08,1.79-3.29,2.6c-1.5,1.01-6.06,3.65-8.14,3.64c-0.7-0.01-1.65-0.21-1.9-1.04c0.81-1.31,2.54-1.69,3.81-2.25
		C253.66,25.72,257.26,22.67,262.56,22.16"/>
	<path style="clip-path:url(#SVGID_6_);fill-rule:evenodd;clip-rule:evenodd;" d="M295.27,33.23c-4.14-2.33-12.36-3.68-15.23-7.44
		c-0.49-0.65-0.87-1.71-0.69-2.6c0.36,0.07,0.46-0.12,0.69-0.17c1.6,3.46,5.93,4.04,10.04,5.54
		C292.37,29.4,295.07,30.56,295.27,33.23"/>
	<path style="clip-path:url(#SVGID_6_);fill-rule:evenodd;clip-rule:evenodd;" d="M259.62,27.87c-0.53,1.18-2.16,0.76-3.12,1.04
		c-1.74,0.52-3.09,1.8-4.67,2.25C253.15,28.91,256.56,27.81,259.62,27.87"/>
	<path style="clip-path:url(#SVGID_6_);fill-rule:evenodd;clip-rule:evenodd;" d="M289.21,33.23c-2.26-1.26-4.89-2.15-8.31-2.25
		c0.05-0.35,0.47-0.34,0.52-0.69C284.73,30.45,288.14,31.41,289.21,33.23"/>
	<path style="clip-path:url(#SVGID_6_);fill-rule:evenodd;clip-rule:evenodd;" d="M263.77,31.68c-0.2,1.3-2.55,0.45-3.81,0.69
		c0.14,0.78,1.34,0.51,1.39,1.39c-0.43,0.61-1.45-1.05-2.6-0.86c-0.01,1-0.4,1.82-1.39,2.25c-0.73-0.37-1.68-0.51-1.73-1.56
		c-2.19,0.82-4.53,2.38-7.61,1.73c1.06-1.37,2.99-1.1,4.5-1.56C255.84,32.75,259.15,30.58,263.77,31.68"/>
	<path style="clip-path:url(#SVGID_6_);fill-rule:evenodd;clip-rule:evenodd;" d="M284.54,36.7c-1.43,0.11-2.04-0.62-2.08-1.9
		c-1.02-0.15-1.08,0.65-1.9,0.69c-0.83-0.06,0.37-0.52,0.35-0.87c-1.51-0.39-3.14-0.67-4.33-1.38c0.69-0.99,2.15,0.14,3.29,0.35
		c0.88,0.16,1.66,0.08,2.77,0.17c4.1,0.35,7.82,1.87,10.9,2.94c-2.33,0.42-5.47-1.26-7.79-1.56
		C285.41,34.85,285.28,36.41,284.54,36.7"/>
	<path style="clip-path:url(#SVGID_6_);fill-rule:evenodd;clip-rule:evenodd;" d="M263.6,33.23c0.19,0.04,0.12,0.34,0.35,0.35
		c-1.99,3.33-9.01,6.53-13.33,3.29c0.87-1.09,2.66,1.06,4.67,0.52c0.07-0.48-1.95-1.27-1.21-2.42c0.86,0.31,1.15,1.89,2.42,2.08
		C258.97,37.4,261.71,34.02,263.6,33.23"/>
	<path style="clip-path:url(#SVGID_6_);fill-rule:evenodd;clip-rule:evenodd;" d="M280.73,36.35c1.15,2.55,4.91,1.6,6.75,0.35
		c0.32,0.59-0.78,1.01-1.39,1.21c1.32,0.45,3.09-0.14,4.5-0.17c-3.91,2.38-11.1,1.15-12.81-2.25c0-0.17,0.21-0.14,0.35-0.17
		C278.95,34.89,279.82,37.42,280.73,36.35"/>
	<path style="clip-path:url(#SVGID_6_);fill-rule:evenodd;clip-rule:evenodd;fill:#FFFFFF;" d="M234,38.77
		c0.81,12.85,4.7,24.17,9.69,34.27c2.31,4.68,4.89,9.54,8.14,13.85c4.05,5.39,9.44,10.18,16.96,11.25H234V38.77z"/>
	<path style="clip-path:url(#SVGID_6_);fill-rule:evenodd;clip-rule:evenodd;" d="M275.37,55.73c0.23,0.05,0.14,0.43,0.17,0.69
		c-3.1,2.45-9.15,2.18-12.29,0c0.55-0.97,1.6,0.07,2.42,0.35C268.56,57.76,273.33,57.68,275.37,55.73"/>
	<path style="clip-path:url(#SVGID_6_);fill-rule:evenodd;clip-rule:evenodd;" d="M280.21,70.27c-2.06,0.06-4.38-0.66-7.62-0.52
		c-1.18,0.05-2.3,0.29-3.46,0.17c-1.75-0.18-2.91-1.23-5.02-1.21c-2.49,0.02-3.98,1.48-5.54,2.25c0.54-2.25,4.68-3.7,8.14-2.77
		c1.25,0.34,2.45,1.19,4.67,1.21c1.91,0.01,4.09-0.3,5.89-0.17C278.25,69.3,279.72,69.26,280.21,70.27"/>
	<path style="clip-path:url(#SVGID_6_);fill-rule:evenodd;clip-rule:evenodd;" d="M273.98,75.98c-1.66,1.18-5.92,1.15-7.44-0.17
		c1.15-0.28,3.19,0.13,5.02,0C272.51,75.74,273.75,75.05,273.98,75.98"/>
	<path style="clip-path:url(#SVGID_6_);fill-rule:evenodd;clip-rule:evenodd;fill:#FFFFFF;" d="M266.19,1.39
		c-0.03,0,0.07-0.17,0.17-0.17c18.62-1.37,28.04,5.08,34.1,16.44c3.16,5.93,5.41,15.53,3.98,24.58c-0.74,4.67-2.26,10.04-3.98,15.23
		c-4.5,13.59-10.73,29.15-21.12,36.17c-4.57,3.09-9.58,4.1-14.88,2.25c-2.07-0.72-4.5-2.35-6.4-3.98
		c-4.37-3.75-7.96-9.38-11.25-15.06c-6.14-10.61-11.42-24.74-11.42-40.85c0-7.65,1.1-15.62,5.02-21.63c2.21-3.39,6.19-6.7,10.21-9
		c4.35-2.49,9.2-3.7,15.23-3.98C265.96,1.38,266.08,1.39,266.19,1.39 M285.75,35.14c2.32,0.29,5.46,1.97,7.79,1.56
		c-3.08-1.07-6.81-2.59-10.9-2.94c-1.11-0.1-1.89-0.01-2.77-0.17c-1.14-0.21-2.6-1.33-3.29-0.35c1.19,0.72,2.82,0.99,4.33,1.38
		c0.02,0.35-1.18,0.8-0.35,0.87c0.82-0.04,0.89-0.84,1.9-0.69c0.04,1.29,0.64,2.01,2.08,1.9C285.28,36.41,285.41,34.85,285.75,35.14
		 M263.25,14.2c1.17,0.3,3.08-0.72,5.19-0.69c1.56,0.02,3.21,0.96,3.98,0.17C270.94,12.07,264.55,11.59,263.25,14.2 M270.17,16.45
		c-2.95-0.24-6.39,0.38-7.27,1.9c1.71-0.42,4.34-1.34,7.1-1.21c1.58,0.08,2.98,1.14,3.98,0.69
		C273.58,16.84,271.58,16.56,270.17,16.45 M249.58,27.52c-1.26,0.56-3,0.94-3.81,2.25c0.25,0.82,1.2,1.03,1.9,1.04
		c2.08,0.02,6.63-2.63,8.14-3.63c1.2-0.81,2.13-1.88,3.29-2.6c1.29-0.8,2.98-1.1,3.46-2.42C257.26,22.67,253.66,25.72,249.58,27.52
		 M290.08,28.56c-4.11-1.5-8.44-2.08-10.04-5.54c-0.23,0.05-0.33,0.25-0.69,0.17c-0.18,0.89,0.2,1.95,0.69,2.6
		c2.87,3.76,11.09,5.11,15.23,7.44C295.07,30.56,292.37,29.4,290.08,28.56 M251.83,31.16c1.58-0.45,2.93-1.73,4.67-2.25
		c0.95-0.28,2.59,0.14,3.12-1.04C256.56,27.81,253.15,28.91,251.83,31.16 M281.42,30.29c-0.05,0.35-0.47,0.34-0.52,0.69
		c3.42,0.1,6.05,0.99,8.31,2.25C288.14,31.41,284.73,30.45,281.42,30.29 M252.52,33.75c-1.51,0.46-3.44,0.18-4.5,1.56
		c3.08,0.65,5.43-0.91,7.62-1.73c0.05,1.05,1,1.19,1.73,1.56c0.98-0.43,1.38-1.25,1.38-2.25c1.15-0.19,2.17,1.48,2.6,0.86
		c-0.05-0.88-1.24-0.6-1.38-1.38c1.26-0.24,3.6,0.6,3.81-0.69C259.15,30.58,255.84,32.74,252.52,33.75 M256.5,37.04
		c-1.27-0.18-1.56-1.77-2.42-2.08c-0.74,1.15,1.28,1.94,1.21,2.42c-2.02,0.54-3.8-1.61-4.67-0.52c4.32,3.24,11.33,0.04,13.33-3.29
		c-0.23,0-0.16-0.3-0.35-0.35C261.71,34.02,258.97,37.4,256.5,37.04 M278.13,35.31c-0.13,0.04-0.34,0.01-0.35,0.17
		c1.7,3.4,8.9,4.63,12.81,2.25c-1.41,0.03-3.18,0.62-4.5,0.17c0.61-0.21,1.71-0.63,1.38-1.21c-1.83,1.26-5.6,2.2-6.75-0.35
		C279.82,37.42,278.95,34.89,278.13,35.31 M265.67,56.77c-0.82-0.28-1.87-1.31-2.42-0.35c3.13,2.18,9.19,2.45,12.29,0
		c-0.03-0.26,0.06-0.64-0.17-0.69C273.33,57.68,268.56,57.76,265.67,56.77 M277.27,69.23c-1.79-0.13-3.98,0.19-5.88,0.17
		c-2.23-0.02-3.43-0.87-4.67-1.21c-3.45-0.94-7.6,0.52-8.14,2.77c1.56-0.78,3.05-2.23,5.54-2.25c2.11-0.02,3.26,1.03,5.02,1.21
		c1.16,0.12,2.28-0.12,3.46-0.17c3.24-0.14,5.56,0.58,7.62,0.52C279.72,69.26,278.25,69.3,277.27,69.23 M271.56,75.81
		c-1.83,0.13-3.87-0.28-5.02,0c1.52,1.32,5.78,1.36,7.44,0.17C273.75,75.05,272.51,75.74,271.56,75.81"/>
</g>
<g>
	<defs>
		<rect id="SVGID_7_" x="342" y="0" width="72" height="98.13"/>
	</defs>
	<clipPath id="SVGID_8_">
		<use xlink:href="#SVGID_7_"  style="overflow:visible;"/>
	</clipPath>
	<path style="clip-path:url(#SVGID_8_);fill-rule:evenodd;clip-rule:evenodd;fill:#FFFFFF;" d="M378.69,98.13
		c6.25-0.7,10.81-4.13,14.71-8.31c8.09-8.66,13.4-23.48,17.48-37.38c2.3-7.82,3.83-16.83,1.9-25.96
		C410.04,13.5,401.97,3.6,388.21,1.21c-6.27-1.09-13.34-1.63-20.25-0.52c-10.08,1.62-18.98,9.01-22.67,17.13
		c-1.62,3.56-2.68,9.59-3.29,14.37V0h72v98.14H378.69z"/>
	<path style="clip-path:url(#SVGID_8_);fill-rule:evenodd;clip-rule:evenodd;" d="M378.69,98.13h-1.9
		c-7.52-1.07-12.91-5.86-16.96-11.25c-3.24-4.31-5.82-9.17-8.14-13.85c-4.99-10.1-8.88-21.41-9.69-34.27v-6.58
		c0.61-4.78,1.67-10.81,3.29-14.37c3.69-8.12,12.59-15.51,22.67-17.13c6.91-1.11,13.98-0.57,20.25,0.52
		c13.75,2.38,21.83,12.28,24.58,25.27c1.93,9.13,0.39,18.14-1.9,25.96c-4.08,13.9-9.39,28.72-17.48,37.38
		C389.5,94,384.94,97.44,378.69,98.13 M373.85,1.38c-6.03,0.28-10.89,1.49-15.23,3.98c-4.02,2.3-8,5.61-10.21,9
		c-3.92,6.01-5.02,13.98-5.02,21.63c0,16.11,5.28,30.24,11.42,40.85c3.29,5.68,6.88,11.31,11.25,15.06c1.91,1.64,4.33,3.26,6.4,3.98
		c5.3,1.85,10.31,0.84,14.89-2.25c10.38-7.02,16.62-22.58,21.11-36.17c1.72-5.19,3.25-10.56,3.98-15.23
		c1.43-9.05-0.82-18.65-3.98-24.58c-6.05-11.36-15.47-17.81-34.1-16.44c-0.1,0.01-0.2,0.17-0.17,0.17
		C374.08,1.39,373.96,1.38,373.85,1.38"/>
	<path style="clip-path:url(#SVGID_8_);fill-rule:evenodd;clip-rule:evenodd;fill:#FFFFFF;" d="M374.19,1.39
		c-0.03,0,0.07-0.17,0.17-0.17c18.63-1.37,28.04,5.08,34.1,16.44c3.16,5.93,5.41,15.53,3.98,24.58c-0.74,4.67-2.26,10.04-3.98,15.23
		c-4.5,13.59-10.73,29.15-21.11,36.17c-4.57,3.09-9.58,4.1-14.89,2.25c-2.07-0.72-4.5-2.35-6.4-3.98
		c-4.37-3.75-7.96-9.38-11.25-15.06c-6.14-10.61-11.42-24.74-11.42-40.85c0-7.65,1.11-15.62,5.02-21.63c2.21-3.39,6.19-6.7,10.21-9
		c4.35-2.49,9.2-3.7,15.23-3.98C373.96,1.38,374.08,1.39,374.19,1.39 M375.06,13.15c-2.43-0.33-6.39-0.43-7.27,0.86
		c1.82-0.14,3.33-0.59,5.02-0.52c3.76,0.15,7.1,2.52,10.21,2.08C381.18,14.6,377.92,13.54,375.06,13.15 M383.37,19.21
		c-3.07,0.4-6.25-1.6-9.69-1.56c-2.48,0.03-5.58,0.5-7.44,1.21c-0.79,0.31-2.22,1.05-2.25,2.08c3.12-1.08,6.05-2.41,10.04-2.25
		c3.01,0.12,5.7,2.13,8.48,1.9c2.18-0.18,4.19-1.87,6.4-2.25c1.01-0.17,1.77,0.17,2.77-0.52C389.02,16.41,386.39,18.81,383.37,19.21
		 M355.33,29.77c-0.57,0.36-1.52,0.32-1.73,1.04c0.95,2.48,4.73-0.48,6.23-0.17c1.78-2,5.24-2.65,8.48-2.25
		c-0.7-0.74-2.01-0.88-3.46-0.87c0.97-0.74,1.99-1.57,3.11-2.25c1.1-0.66,2.84-0.71,3.29-2.08
		C363.84,22.59,360.71,27.77,355.33,29.77 M402.06,31.67c-4.14-3.36-11.47-3.53-14.71-7.79c-0.03,0.2-0.27,0.19-0.52,0.17
		c0.48,2.71,3.27,4.57,5.88,5.71c-1.14,0.41-3.52-0.4-3.81,0.87c1.52,0.49,2.49-0.4,3.81-0.35c3.52,0.14,6.25,3.36,9.52,2.6
		C401.84,32.81,402.16,32.03,402.06,31.67 M361.21,33.75c-1.6,0.63-3.29,1.15-4.5,2.08c0.75,0.14,0.73,0.15,1.21,0.69
		c4.49,1.67,8.57-0.56,11.25-1.9c1.11-0.56,3.16-0.87,2.77-2.25C367.69,31.42,364.14,32.59,361.21,33.75 M385.79,33.23
		c-0.08,0.65,0.9,0.25,1.04,0.69c-0.26,0.03-0.64-0.06-0.69,0.17c1.43,3.67,9.77,4.71,12.98,2.42c0.4,0.05,0.81,0.43,0.69-0.35
		C397.17,33.96,390.17,33.7,385.79,33.23 M360.35,39.12c0.97,2.52,7.53,0.98,7.27-1.73C366.34,39.45,362.61,39.93,360.35,39.12
		 M396.17,39.46c-2.82,1.81-5.48,0.44-7.44-1.21C388.89,41.18,395.17,42.43,396.17,39.46 M383.37,55.73
		c-1.85,1.24-4.34,2.31-7.27,1.9c-2.05-0.28-3.6-2.09-4.85-1.21c1.77,0.71,4.06,2.18,6.58,2.08c1.09-0.04,2.27-0.67,3.29-1.04
		c0.98-0.36,2.65-0.5,2.6-1.56C383.67,55.77,383.57,55.7,383.37,55.73 M384.23,68.37c-1.3-0.22-3.08,0.08-4.85,0
		c-6.13-0.28-12.49-0.85-13.5,3.81c1.62-0.43,1.93-2.27,3.98-2.94c3.67-1.19,9.76,0.53,14.19-0.17c1.74,0.52,3.48,1.93,4.5,2.6
		C388.28,70.42,386.44,68.73,384.23,68.37 M374.54,76.5c1.38,0.79,3.49-0.34,5.54,0c0.38,0.02,1.53,0.74,1.56,0
		C380.16,74.94,376.17,75.41,374.54,76.5"/>
	<path style="clip-path:url(#SVGID_8_);fill-rule:evenodd;clip-rule:evenodd;" d="M383.02,15.58c-3.11,0.45-6.45-1.92-10.21-2.08
		c-1.69-0.07-3.2,0.37-5.02,0.52c0.89-1.3,4.84-1.19,7.27-0.86C377.92,13.54,381.18,14.6,383.02,15.58"/>
	<path style="clip-path:url(#SVGID_8_);fill-rule:evenodd;clip-rule:evenodd;" d="M391.67,17.83c-1,0.69-1.76,0.35-2.77,0.52
		c-2.21,0.38-4.22,2.07-6.4,2.25c-2.78,0.23-5.47-1.78-8.48-1.9c-3.99-0.16-6.92,1.17-10.04,2.25c0.03-1.03,1.46-1.77,2.25-2.08
		c1.86-0.71,4.96-1.18,7.44-1.21c3.44-0.04,6.62,1.96,9.69,1.56C386.39,18.81,389.02,16.41,391.67,17.83"/>
	<path style="clip-path:url(#SVGID_8_);fill-rule:evenodd;clip-rule:evenodd;" d="M371.25,23.19c-0.45,1.37-2.19,1.42-3.29,2.08
		c-1.13,0.68-2.15,1.51-3.12,2.25c1.45-0.01,2.76,0.12,3.46,0.86c-3.24-0.4-6.7,0.25-8.48,2.25c-1.5-0.31-5.28,2.65-6.23,0.17
		c0.21-0.72,1.16-0.68,1.73-1.04C360.71,27.77,363.84,22.59,371.25,23.19"/>
	<path style="clip-path:url(#SVGID_8_);fill-rule:evenodd;clip-rule:evenodd;" d="M402.23,32.88c-3.27,0.76-6-2.46-9.52-2.6
		c-1.31-0.05-2.29,0.84-3.81,0.35c0.29-1.27,2.66-0.45,3.81-0.86c-2.62-1.14-5.4-3-5.89-5.71c0.25,0.01,0.49,0.03,0.52-0.17
		c3.24,4.26,10.57,4.43,14.71,7.79C402.16,32.03,401.84,32.81,402.23,32.88"/>
	<path style="clip-path:url(#SVGID_8_);fill-rule:evenodd;clip-rule:evenodd;" d="M371.94,32.37c0.39,1.38-1.66,1.69-2.77,2.25
		c-2.68,1.35-6.76,3.58-11.25,1.9c-0.48-0.54-0.47-0.55-1.21-0.69c1.21-0.93,2.9-1.44,4.5-2.08
		C364.14,32.59,367.69,31.42,371.94,32.37 M367.79,34.1c-0.35-0.37-0.91-1.17-1.56-0.69c-0.1,0.69-0.39,2.11-1.9,1.9
		c-0.48-0.33-0.71-0.91-1.04-1.38c-1.55,0.87-3.78,1.06-5.19,2.08c1.58,0.15,2.99,0.47,4.85,0.35c-0.12-0.56-1.51-1.15-0.69-1.56
		c0.68,0.24,0.88,0.97,1.56,1.21c2.8-0.73,4.9-2.13,7.44-3.12c-1.21,0.11-2.88-0.23-3.81,0.17C367.8,33.21,368.52,33.87,367.79,34.1
		"/>
	<path style="clip-path:url(#SVGID_8_);fill-rule:evenodd;clip-rule:evenodd;fill:#FFFFFF;" d="M367.44,33.06
		c0.92-0.4,2.59-0.06,3.81-0.17c-2.54,0.98-4.65,2.39-7.44,3.11c-0.68-0.24-0.88-0.97-1.56-1.21c-0.81,0.41,0.57,0.99,0.69,1.56
		c-1.86,0.13-3.27-0.19-4.85-0.35c1.41-1.01,3.64-1.21,5.19-2.08c0.33,0.48,0.56,1.06,1.04,1.38c1.51,0.2,1.8-1.21,1.9-1.9
		c0.64-0.47,1.21,0.32,1.56,0.69C368.52,33.87,367.8,33.21,367.44,33.06"/>
	<path style="clip-path:url(#SVGID_8_);fill-rule:evenodd;clip-rule:evenodd;" d="M399.81,36.17c0.12,0.78-0.29,0.4-0.69,0.35
		c-3.21,2.29-11.55,1.24-12.98-2.42c0.05-0.24,0.43-0.14,0.69-0.17c-0.13-0.44-1.12-0.04-1.04-0.69
		C390.17,33.69,397.17,33.96,399.81,36.17 M389.42,36c-0.42-0.33-0.12-1.38,0.17-1.56c-0.9-0.08-1.52-0.44-2.42-0.52
		C387.46,34.96,388.64,36.03,389.42,36 M392.19,36.52c-1.8,0.04-1.13-3.14-2.6-1.21c0.63,0.01,0.35,0.92,0.69,1.21
		c1.56,0.69,4.31,0.82,4.67-1.04c-0.53-0.22-0.86-0.63-1.56-0.69C393.83,35.8,392.73,36.51,392.19,36.52 M394.79,37.04
		c1.31-0.24,2.72-0.4,3.81-0.86c-1.23-0.1-1.79-0.86-3.12-0.87C395.47,36.02,395.33,36.5,394.79,37.04"/>
	<path style="clip-path:url(#SVGID_8_);fill-rule:evenodd;clip-rule:evenodd;fill:#FFFFFF;" d="M393.4,34.79
		c0.69,0.06,1.03,0.47,1.56,0.69c-0.36,1.86-3.12,1.73-4.67,1.04c-0.34-0.29-0.07-1.2-0.69-1.21c1.47-1.93,0.8,1.25,2.6,1.21
		C392.73,36.51,393.83,35.8,393.4,34.79"/>
	<path style="clip-path:url(#SVGID_8_);fill-rule:evenodd;clip-rule:evenodd;fill:#FFFFFF;" d="M395.48,35.31
		c1.32,0.01,1.89,0.77,3.11,0.87c-1.09,0.47-2.49,0.62-3.81,0.87C395.33,36.5,395.47,36.02,395.48,35.31"/>
	<path style="clip-path:url(#SVGID_8_);fill-rule:evenodd;clip-rule:evenodd;" d="M367.62,37.38c0.26,2.71-6.3,4.25-7.27,1.73
		C362.61,39.93,366.34,39.45,367.62,37.38"/>
	<path style="clip-path:url(#SVGID_8_);fill-rule:evenodd;clip-rule:evenodd;" d="M388.73,38.25c1.96,1.65,4.63,3.02,7.44,1.21
		C395.17,42.43,388.89,41.18,388.73,38.25"/>
	<path style="clip-path:url(#SVGID_8_);fill-rule:evenodd;clip-rule:evenodd;fill:#FFFFFF;" d="M342,38.77
		c0.81,12.85,4.7,24.17,9.69,34.27c2.31,4.68,4.89,9.54,8.14,13.85c4.05,5.39,9.44,10.18,16.96,11.25H342V38.77z"/>
	<path style="clip-path:url(#SVGID_8_);fill-rule:evenodd;clip-rule:evenodd;" d="M383.71,55.9c0.05,1.06-1.61,1.2-2.6,1.56
		c-1.02,0.37-2.2,0.99-3.29,1.04c-2.52,0.1-4.8-1.37-6.58-2.08c1.25-0.88,2.8,0.93,4.85,1.21c2.93,0.4,5.42-0.67,7.27-1.9
		C383.57,55.7,383.67,55.77,383.71,55.9"/>
	<path style="clip-path:url(#SVGID_8_);fill-rule:evenodd;clip-rule:evenodd;" d="M388.56,71.65c-1.02-0.67-2.76-2.07-4.5-2.6
		c-4.43,0.7-10.52-1.02-14.19,0.17c-2.06,0.67-2.36,2.51-3.98,2.94c1-4.66,7.37-4.09,13.5-3.81c1.77,0.08,3.55-0.22,4.85,0
		C386.44,68.73,388.28,70.42,388.56,71.65"/>
	<path style="clip-path:url(#SVGID_8_);fill-rule:evenodd;clip-rule:evenodd;" d="M381.63,76.5c-0.03,0.74-1.18,0.02-1.56,0
		c-2.05-0.34-4.15,0.79-5.54,0C376.17,75.41,380.16,74.94,381.63,76.5"/>
	<path style="clip-path:url(#SVGID_8_);fill-rule:evenodd;clip-rule:evenodd;fill:#FFFFFF;" d="M387.17,33.92
		c0.9,0.08,1.52,0.44,2.42,0.52c-0.3,0.18-0.6,1.23-0.17,1.56C388.64,36.03,387.46,34.96,387.17,33.92"/>
</g>
<g>
	<defs>
		<rect id="SVGID_9_" x="450" y="0" width="72" height="98.13"/>
	</defs>
	<clipPath id="SVGID_10_">
		<use xlink:href="#SVGID_9_"  style="overflow:visible;"/>
	</clipPath>
	<path style="clip-path:url(#SVGID_10_);fill-rule:evenodd;clip-rule:evenodd;fill:#FFFFFF;" d="M486.69,98.14
		c6.25-0.7,10.81-4.13,14.71-8.31c8.09-8.66,13.4-23.48,17.48-37.38c2.3-7.82,3.83-16.83,1.9-25.96
		C518.04,13.5,509.97,3.6,496.21,1.21c-6.27-1.09-13.34-1.63-20.25-0.52c-10.08,1.62-18.98,9.01-22.67,17.13
		c-1.62,3.56-2.68,9.59-3.29,14.37V0h72v98.13H486.69z"/>
	<path style="clip-path:url(#SVGID_10_);fill-rule:evenodd;clip-rule:evenodd;" d="M486.69,98.14h-1.9
		c-7.52-1.07-12.91-5.86-16.96-11.25c-3.24-4.31-5.82-9.17-8.14-13.85c-4.99-10.1-8.88-21.41-9.69-34.27V32.2
		c0.61-4.78,1.67-10.81,3.29-14.37c3.69-8.12,12.59-15.51,22.67-17.13c6.91-1.11,13.98-0.57,20.25,0.52
		c13.75,2.38,21.83,12.28,24.58,25.27c1.93,9.13,0.39,18.14-1.9,25.96c-4.08,13.9-9.39,28.72-17.48,37.38
		C497.5,94.01,492.94,97.44,486.69,98.14 M481.85,1.39c-6.03,0.28-10.89,1.49-15.23,3.98c-4.02,2.3-8,5.61-10.21,9
		c-3.92,6.01-5.02,13.98-5.02,21.63c0,16.11,5.28,30.24,11.42,40.85c3.29,5.68,6.88,11.31,11.25,15.06c1.91,1.64,4.33,3.26,6.4,3.98
		c5.3,1.85,10.31,0.84,14.89-2.25c10.38-7.02,16.62-22.58,21.11-36.17c1.72-5.19,3.25-10.56,3.98-15.23
		c1.43-9.05-0.82-18.65-3.98-24.58c-6.05-11.36-15.47-17.81-34.1-16.44c-0.1,0.01-0.2,0.17-0.17,0.17
		C482.08,1.39,481.96,1.38,481.85,1.39"/>
	<path style="clip-path:url(#SVGID_10_);fill-rule:evenodd;clip-rule:evenodd;fill:#FFFFFF;" d="M482.19,1.39
		c-0.03,0,0.07-0.17,0.17-0.17c18.63-1.37,28.04,5.08,34.1,16.44c3.16,5.93,5.41,15.53,3.98,24.58c-0.74,4.67-2.26,10.04-3.98,15.23
		c-4.5,13.59-10.73,29.15-21.11,36.17c-4.57,3.09-9.58,4.1-14.89,2.25c-2.07-0.72-4.5-2.35-6.4-3.98
		c-4.37-3.75-7.96-9.38-11.25-15.06c-6.14-10.61-11.42-24.74-11.42-40.85c0-7.65,1.11-15.62,5.02-21.63c2.21-3.39,6.19-6.7,10.21-9
		c4.35-2.49,9.2-3.7,15.23-3.98C481.96,1.38,482.08,1.39,482.19,1.39 M471.81,11.95c-0.39,0.13-0.52,0.52-0.69,0.86
		c3.41,0.96,6.78,0.76,10.04,1.9c2.57,0.91,4.54,2.49,7.1,2.77c0.69,0.08,3.57,0.62,3.29-1.04
		C484.36,16.88,479.23,12.41,471.81,11.95 M490.33,22.16c-0.67,0.11-1.8,0.11-2.77-0.17c-3-0.86-5.57-4.01-9.52-4.85
		c-1.44-0.31-2.81-0.41-4.15-0.35c-1.65,0.08-4.34,0.39-5.19,2.6c3.95-1.23,7.61-2.1,11.6-0.52c3.24,1.28,5.79,4.68,8.83,4.67
		c1.31,0,3.1-1.27,4.5-2.08c1.3-0.75,3.44-1.61,3.63-2.77C494.67,18.34,492.94,21.75,490.33,22.16 M476.83,24.58
		c-6.38,0.74-9.42,5.04-15.06,5.54c-0.05,0.53-0.38,0.78-0.52,1.21c2.98,3.62,8.43-2.42,10.73-2.77c2.33-0.35,3.99,2.03,5.89,1.73
		c-0.69-1.04-3.12-1.84-4.85-2.42c2.52-1.11,5.95-1.32,8.31-2.6C480.43,23.84,477.95,24.45,476.83,24.58 M508.33,31.16
		c-3.56-2.74-10.62-2.72-13.67-6.06c-0.23,0.18-0.64,0.17-0.87,0.35c0.52,2.42,2.83,3.06,4.5,4.33c-1.24,0.44-3.08,0.27-3.29,1.73
		c1.78-0.29,2.85-1.42,4.5-1.38c3.7,0.08,7.15,3.66,10.38,3.81C510.2,32.7,509.03,31.7,508.33,31.16 M480.29,32.2
		c-1.36,1.08-3.09,0.71-5.36,0.86c-3.18,0.22-7,1.38-8.48,1.56c-0.59,0.07-1.83-0.68-1.9,0.35c1.12,1.55,3.78,0.45,6.75,0.17
		c4.11-0.38,8.2-0.4,9.69-2.6C480.51,32.67,480.63,32.2,480.29,32.2 M492.92,33.75c-0.01,0.22-0.22,0.24-0.17,0.52
		c1.58,1.86,4.77,1.05,7.96,1.39c3.01,0.32,5.7,1.79,7.79,1.21C504.57,34.31,498.12,34.26,492.92,33.75 M477.69,35.83
		c-1.79,1.16-4.34,2.77-7.1,2.77c-1.13,0-2.15-0.84-3.12-0.17c0.93,1.09,2.89,1.04,4.33,0.87c2.48-0.3,5.15-1.94,6.58-2.94
		C477.83,36.5,478.03,35.9,477.69,35.83 M494.65,37.56c1.99,2.9,8.96,3.39,11.94,1.04c-1.6-0.05-3.1,0.88-5.02,0.87
		c-2.74-0.02-5.02-1.28-6.58-2.6C495,37.21,494.53,37.09,494.65,37.56 M487.38,57.64c-3.35,0.37-6.06-1.09-8.13-1.73h-0.35
		c1.93,2.56,7.26,3.05,10.73,1.9c1.04-0.34,2.3-0.81,2.6-1.56C490.91,56.06,489.41,57.41,487.38,57.64 M491.54,68.02
		c-2.63-0.11-5.7,0.71-8.48,0.35c-0.9-0.12-1.7-0.67-2.6-0.69c-2.81-0.05-5.85,1.95-6.4,3.98c1.34,0.19,1.89-1.09,2.94-1.56
		c4.17-1.87,9.85,1.38,15.06,1.73c1.75,0.12,4.09,0.43,5.71-0.69C496.54,69.71,494.51,68.15,491.54,68.02 M482.37,75.98
		c1.13,0.88,6.79,2.04,7.1,0c-2.04-0.12-5.43,0.3-6.92-0.87C482.61,75.54,482.22,75.5,482.37,75.98"/>
	<path style="clip-path:url(#SVGID_10_);fill-rule:evenodd;clip-rule:evenodd;" d="M491.54,16.45c0.29,1.66-2.6,1.12-3.29,1.04
		c-2.56-0.28-4.53-1.86-7.1-2.77c-3.26-1.15-6.63-0.94-10.04-1.9c0.17-0.34,0.3-0.74,0.69-0.87
		C479.23,12.41,484.36,16.88,491.54,16.45"/>
	<path style="clip-path:url(#SVGID_10_);fill-rule:evenodd;clip-rule:evenodd;" d="M497.25,18.7c-0.19,1.16-2.33,2.02-3.64,2.77
		c-1.4,0.81-3.19,2.07-4.5,2.08c-3.03,0.01-5.59-3.39-8.83-4.67c-3.98-1.58-7.64-0.71-11.6,0.52c0.85-2.2,3.54-2.51,5.19-2.6
		c1.35-0.07,2.71,0.04,4.15,0.35c3.95,0.83,6.52,3.99,9.52,4.85c0.97,0.28,2.1,0.28,2.77,0.17
		C492.94,21.75,494.67,18.34,497.25,18.7"/>
	<path style="clip-path:url(#SVGID_10_);fill-rule:evenodd;clip-rule:evenodd;" d="M481.33,25.27c-2.35,1.28-5.78,1.49-8.31,2.6
		c1.72,0.59,4.15,1.38,4.85,2.42c-1.89,0.3-3.55-2.09-5.88-1.73c-2.3,0.35-7.75,6.39-10.73,2.77c0.14-0.43,0.47-0.68,0.52-1.21
		c5.64-0.5,8.68-4.8,15.06-5.54C477.95,24.45,480.43,23.84,481.33,25.27"/>
	<path style="clip-path:url(#SVGID_10_);fill-rule:evenodd;clip-rule:evenodd;" d="M509.88,33.93c-3.24-0.14-6.68-3.73-10.39-3.81
		c-1.65-0.04-2.72,1.1-4.5,1.39c0.21-1.46,2.05-1.29,3.29-1.73c-1.67-1.27-3.98-1.9-4.5-4.33c0.23-0.18,0.64-0.17,0.86-0.35
		c3.05,3.34,10.12,3.32,13.67,6.06C509.03,31.7,510.2,32.7,509.88,33.93"/>
	<path style="clip-path:url(#SVGID_10_);fill-rule:evenodd;clip-rule:evenodd;" d="M480.98,32.54c-1.5,2.2-5.58,2.22-9.69,2.6
		c-2.97,0.27-5.63,1.38-6.75-0.17c0.07-1.03,1.31-0.28,1.9-0.35c1.48-0.18,5.3-1.34,8.48-1.56c2.28-0.15,4,0.22,5.37-0.86
		C480.63,32.2,480.51,32.67,480.98,32.54"/>
	<path style="clip-path:url(#SVGID_10_);fill-rule:evenodd;clip-rule:evenodd;" d="M508.5,36.87c-2.09,0.58-4.78-0.89-7.79-1.21
		c-3.19-0.34-6.38,0.48-7.96-1.38c-0.05-0.28,0.16-0.3,0.17-0.52C498.12,34.26,504.57,34.31,508.5,36.87"/>
	<path style="clip-path:url(#SVGID_10_);fill-rule:evenodd;clip-rule:evenodd;" d="M478.38,36.35c-1.43,1.01-4.1,2.65-6.58,2.94
		c-1.44,0.17-3.4,0.22-4.33-0.86c0.96-0.66,1.99,0.17,3.12,0.17c2.76,0,5.31-1.61,7.1-2.77C478.03,35.9,477.83,36.5,478.38,36.35"/>
	<path style="clip-path:url(#SVGID_10_);fill-rule:evenodd;clip-rule:evenodd;" d="M495,36.87c1.55,1.32,3.84,2.58,6.58,2.6
		c1.92,0.01,3.42-0.91,5.02-0.86c-2.98,2.35-9.95,1.86-11.94-1.04C494.53,37.09,495,37.21,495,36.87"/>
	<path style="clip-path:url(#SVGID_10_);fill-rule:evenodd;clip-rule:evenodd;fill:#FFFFFF;" d="M450,38.77
		c0.81,12.85,4.7,24.17,9.69,34.27c2.31,4.68,4.89,9.54,8.14,13.85c4.05,5.39,9.44,10.18,16.96,11.25H450V38.77z"/>
	<path style="clip-path:url(#SVGID_10_);fill-rule:evenodd;clip-rule:evenodd;" d="M492.23,56.25c-0.3,0.75-1.56,1.22-2.6,1.56
		c-3.47,1.15-8.8,0.66-10.73-1.9h0.35c2.08,0.64,4.78,2.1,8.14,1.73C489.41,57.41,490.91,56.06,492.23,56.25"/>
	<path style="clip-path:url(#SVGID_10_);fill-rule:evenodd;clip-rule:evenodd;" d="M497.77,71.14c-1.62,1.12-3.97,0.81-5.71,0.69
		c-5.21-0.35-10.89-3.6-15.06-1.73c-1.05,0.47-1.6,1.75-2.94,1.56c0.55-2.03,3.6-4.04,6.4-3.98c0.89,0.02,1.69,0.57,2.6,0.69
		c2.78,0.36,5.86-0.46,8.48-0.35C494.51,68.15,496.54,69.71,497.77,71.14 M483.92,69.41C483.89,68.89,483.2,69.57,483.92,69.41
		c3.06,1.39,7.68,1.21,11.77,1.56C494.29,68.25,488.14,69.68,483.92,69.41"/>
	<path style="clip-path:url(#SVGID_10_);fill-rule:evenodd;clip-rule:evenodd;" d="M482.54,75.12c1.5,1.16,4.88,0.74,6.92,0.86
		c-0.31,2.04-5.97,0.89-7.1,0C482.22,75.49,482.61,75.54,482.54,75.12"/>
	<path style="clip-path:url(#SVGID_10_);fill-rule:evenodd;clip-rule:evenodd;fill:#FFFFFF;" d="M495.69,70.96
		c-4.09-0.35-8.71-0.17-11.77-1.56c-0.72,0.17-0.04-0.52,0,0C488.14,69.67,494.29,68.25,495.69,70.96"/>
</g>
<g>
	<defs>
		<rect id="SVGID_11_" x="558" y="0" width="72" height="98.13"/>
	</defs>
	<clipPath id="SVGID_12_">
		<use xlink:href="#SVGID_11_"  style="overflow:visible;"/>
	</clipPath>
	<path style="clip-path:url(#SVGID_12_);fill-rule:evenodd;clip-rule:evenodd;fill:#FFFFFF;" d="M594.69,98.14
		c6.25-0.7,10.81-4.13,14.71-8.31c8.09-8.66,13.4-23.48,17.48-37.38c2.3-7.82,3.83-16.83,1.9-25.96
		C626.04,13.5,617.97,3.6,604.21,1.21c-6.27-1.09-13.34-1.63-20.25-0.52c-10.09,1.62-18.98,9.01-22.67,17.13
		c-1.62,3.56-2.68,9.59-3.29,14.37V0h72v98.13H594.69z"/>
	<path style="clip-path:url(#SVGID_12_);fill-rule:evenodd;clip-rule:evenodd;" d="M594.69,98.14h-1.9
		c-7.52-1.07-12.91-5.86-16.96-11.25c-3.24-4.31-5.82-9.17-8.14-13.85c-4.99-10.1-8.88-21.41-9.69-34.27V32.2
		c0.61-4.78,1.67-10.81,3.29-14.37c3.69-8.12,12.59-15.51,22.67-17.13c6.91-1.11,13.98-0.57,20.25,0.52
		c13.75,2.38,21.83,12.28,24.58,25.27c1.93,9.13,0.39,18.14-1.9,25.96c-4.08,13.9-9.39,28.72-17.48,37.38
		C605.5,94.01,600.94,97.44,594.69,98.14 M589.85,1.39c-6.03,0.28-10.89,1.49-15.23,3.98c-4.02,2.3-8,5.61-10.21,9
		c-3.92,6.01-5.02,13.98-5.02,21.63c0,16.11,5.28,30.24,11.42,40.85c3.29,5.68,6.88,11.31,11.25,15.06c1.91,1.64,4.33,3.26,6.4,3.98
		c5.3,1.85,10.31,0.84,14.89-2.25c10.38-7.02,16.62-22.58,21.11-36.17c1.72-5.19,3.25-10.56,3.98-15.23
		c1.43-9.05-0.82-18.65-3.98-24.58c-6.05-11.36-15.47-17.81-34.1-16.44c-0.1,0.01-0.2,0.17-0.17,0.17
		C590.08,1.39,589.96,1.38,589.85,1.39"/>
	<path style="clip-path:url(#SVGID_12_);fill-rule:evenodd;clip-rule:evenodd;fill:#FFFFFF;" d="M590.19,1.39
		c-0.03,0,0.08-0.17,0.17-0.17c18.63-1.37,28.04,5.08,34.1,16.44c3.16,5.93,5.41,15.53,3.98,24.58c-0.73,4.67-2.26,10.04-3.98,15.23
		c-4.5,13.59-10.73,29.15-21.11,36.17c-4.57,3.09-9.58,4.1-14.89,2.25c-2.07-0.72-4.5-2.35-6.4-3.98
		c-4.37-3.75-7.96-9.38-11.25-15.06c-6.14-10.61-11.42-24.74-11.42-40.85c0-7.65,1.1-15.62,5.02-21.63c2.21-3.39,6.19-6.7,10.21-9
		c4.35-2.49,9.2-3.7,15.23-3.98C589.96,1.38,590.08,1.39,590.19,1.39 M608.37,12.47c-5.17-0.49-7.44,1.91-10.38,3.63
		c-1.67,0.98-4.12,2.23-5.54,2.25c-4.81,0.08-6.86-6.98-11.94-7.61c-2.66-0.33-5.37,0.34-6.4,1.73c1.73,0.28,4.18-1.1,6.4-0.69
		c5.03,0.92,6.98,7.94,12.64,8.13c4.61-1.76,8.58-6.56,14.71-6.4c1.67,0.04,2.74,0.72,4.15,0.69
		C611.7,12.74,609.63,12.59,608.37,12.47 M606.12,19.04c-2.73,0.07-6.6,0.64-9.17,1.38c-1.41,0.4-2.32,1.3-3.63,1.38
		c-3.82,0.24-7.03-3.26-11.42-4.33c-1.75-0.43-4.05-0.5-5.37-0.35c-1.92,0.22-4.89,0.25-6.23,2.08c3.16,0.62,5.63-1.1,8.65-1.04
		c5.38,0.1,8.58,4.96,13.5,5.02c4.71,0.06,9.29-3.65,15.23-2.94c2.94,0.35,5.25,2.64,7.44,1.39
		C612.2,20.07,609.6,18.95,606.12,19.04 M583.96,24.06c-4.17,0.66-7.85,3.43-11.6,4.67c-0.89,0.3-1.93-0.02-2.42,1.04
		c0.03,0.89,1.01,2.34,1.9,2.94c7.03-0.94,11.29,5.57,17.14,1.56c-1.03-1.59-2.35,0.17-3.98,0.35c-4.41,0.47-7.1-3.35-11.42-2.94
		c2.11-0.55,2.6-1.97,4.33-2.25c4.18-0.68,6.25,5.44,9.35,2.6c-3.57-0.29-5.09-2.64-7.96-3.63c2.19-1.39,5.28-2.72,8.65-2.77
		c0.89-0.01,2.11,0.61,2.77-0.35C589.71,23.38,585.85,23.76,583.96,24.06 M602.14,25.45c-0.17,0.23-0.46,0.35-0.69,0.52
		c1.14,1.92,3.04,3.08,5.02,4.15c-1.42,0.78-2.5,2.49-4.33,2.77c-0.77,0.12-1.64-0.89-1.9,0.35c3.22,2.15,5.75-2.63,9.35-2.25
		c1.73,0.18,3.39,1.32,4.67,2.42c-4.21-0.97-7.97,1.94-11.6,1.73c-1.08-0.06-2.24-1.15-2.94,0.17c4.41,3.17,10.79-2.82,16.44-0.35
		c0.23-1.16,1.65-1.12,1.9-2.25C614.18,28.86,605.95,29.36,602.14,25.45 M571.67,34.79c-0.36,0.34-0.85,0.54-0.87,1.21
		c1.94,1.52,6.55,2.7,10.38,2.42c1.45-0.1,3.83-0.26,3.81-1.56C580.66,37.48,574.54,37.17,571.67,34.79 M615.29,36.7
		c-1.55-0.07-4.36,1.72-6.4,1.9c-2.38,0.22-3.57-1.12-5.37-0.87c2.64,3.53,9.76,1.58,13.15,0C616.88,36.63,615.85,36.72,615.29,36.7
		 M593.14,57.98c-2.63-0.29-4.11-2.45-6.06-3.12c-0.04,0.13-0.01,0.34-0.17,0.35c1.42,4.69,12.36,4.47,14.02,0.17
		C598.2,56.03,596.34,58.34,593.14,57.98 M602.31,65.25c-3.8,0.09-6.96,1.59-10.56,0.52c-0.71-0.21-1.17-0.75-1.9-0.86
		c-1.57-0.26-3.46,0.05-4.67,0.52c-1.32,0.51-3.03,1.48-3.29,2.6c0.82,0.44,1.81-0.97,2.42-0.69c1.04,3.86,0.94,8.86,4.33,10.39
		c4.41-0.76,8.96-1.66,12.46,0.52c2.92-2.1,2.86-7.18,3.64-11.42c0.78,0.04,1.37,0.88,1.9,0.17
		C606.07,65.38,603.89,65.21,602.31,65.25 M589.67,83.08c2.42-0.39,6.76,0.25,9-0.17C597,80.97,591.24,81.11,589.67,83.08"/>
	<path style="clip-path:url(#SVGID_12_);fill-rule:evenodd;clip-rule:evenodd;" d="M612,14.2c-1.41,0.02-2.48-0.65-4.15-0.69
		c-6.13-0.16-10.1,4.65-14.71,6.4c-5.66-0.19-7.61-7.22-12.63-8.14c-2.22-0.41-4.68,0.97-6.4,0.69c1.04-1.39,3.75-2.06,6.4-1.73
		c5.09,0.64,7.13,7.69,11.94,7.62c1.42-0.02,3.87-1.27,5.54-2.25c2.95-1.72,5.21-4.13,10.38-3.64
		C609.63,12.59,611.69,12.74,612,14.2"/>
	<path style="clip-path:url(#SVGID_12_);fill-rule:evenodd;clip-rule:evenodd;" d="M615.12,21.64c-2.2,1.25-4.5-1.03-7.44-1.38
		c-5.94-0.71-10.52,3-15.23,2.94c-4.92-0.06-8.12-4.92-13.5-5.02c-3.02-0.06-5.5,1.66-8.65,1.04c1.34-1.82,4.31-1.86,6.23-2.08
		c1.32-0.15,3.62-0.08,5.36,0.35c4.39,1.07,7.6,4.57,11.42,4.33c1.32-0.08,2.23-0.98,3.64-1.39c2.57-0.74,6.44-1.31,9.17-1.38
		C609.6,18.95,612.2,20.07,615.12,21.64"/>
	<path style="clip-path:url(#SVGID_12_);fill-rule:evenodd;clip-rule:evenodd;" d="M590.71,25.27c-0.66,0.96-1.88,0.33-2.77,0.35
		c-3.37,0.05-6.47,1.38-8.65,2.77c2.87,1,4.39,3.34,7.96,3.63c-3.1,2.84-5.16-3.28-9.35-2.6c-1.72,0.28-2.22,1.7-4.33,2.25
		c4.32-0.41,7.01,3.41,11.42,2.94c1.64-0.17,2.95-1.93,3.98-0.35c-5.85,4.02-10.1-2.5-17.13-1.56c-0.89-0.61-1.87-2.05-1.9-2.94
		c0.49-1.06,1.53-0.74,2.42-1.04c3.74-1.24,7.43-4.01,11.6-4.67C585.85,23.76,589.71,23.38,590.71,25.27"/>
	<path style="clip-path:url(#SVGID_12_);fill-rule:evenodd;clip-rule:evenodd;" d="M585,36.87c0.03,1.3-2.36,1.45-3.81,1.56
		c-3.84,0.28-8.44-0.9-10.38-2.42c0.02-0.67,0.51-0.88,0.86-1.21C574.54,37.17,580.66,37.48,585,36.87"/>
	<path style="clip-path:url(#SVGID_12_);fill-rule:evenodd;clip-rule:evenodd;" d="M616.67,37.73c-3.4,1.59-10.51,3.53-13.15,0
		c1.8-0.26,2.99,1.08,5.37,0.87c2.04-0.19,4.85-1.98,6.4-1.9C615.85,36.72,616.88,36.63,616.67,37.73"/>
	<path style="clip-path:url(#SVGID_12_);fill-rule:evenodd;clip-rule:evenodd;fill:#FFFFFF;" d="M558,38.77
		c0.81,12.86,4.7,24.17,9.69,34.27c2.31,4.68,4.89,9.54,8.14,13.85c4.05,5.39,9.44,10.18,16.96,11.25H558V38.77z"/>
	<path style="clip-path:url(#SVGID_12_);fill-rule:evenodd;clip-rule:evenodd;" d="M600.92,55.39c-1.66,4.3-12.6,4.52-14.02-0.17
		c0.17-0.01,0.13-0.21,0.17-0.35c1.95,0.66,3.43,2.83,6.06,3.11C596.34,58.34,598.2,56.02,600.92,55.39"/>
	<path style="clip-path:url(#SVGID_12_);fill-rule:evenodd;clip-rule:evenodd;" d="M606.63,66.98c-0.53,0.7-1.13-0.13-1.9-0.17
		c-0.77,4.25-0.71,9.33-3.63,11.42c-3.5-2.17-8.05-1.28-12.46-0.52c-3.38-1.52-3.28-6.52-4.33-10.38c-0.61-0.28-1.61,1.13-2.42,0.69
		c0.26-1.12,1.97-2.08,3.29-2.6c1.21-0.47,3.1-0.77,4.67-0.52c0.73,0.12,1.2,0.65,1.9,0.87c3.6,1.07,6.76-0.43,10.56-0.52
		C603.89,65.21,606.07,65.38,606.63,66.98 M596.25,67.16c-3.76,0.29-7.06-1.94-10.39-0.69c3.81,3.51,13.47,3.97,17.14,0
		C600.57,66.46,598.44,66.99,596.25,67.16 M585.69,67.68c0.61,3.2,0.96,6.65,2.77,8.65c4.21,0.26,9.14-1.87,12.29,0.86
		c1.83-1.94,2.91-6.4,2.25-9.69C599.42,71.56,589.81,70.54,585.69,67.68"/>
	<path style="clip-path:url(#SVGID_12_);fill-rule:evenodd;clip-rule:evenodd;fill:#FFFFFF;" d="M603,66.46
		c-3.66,3.97-13.32,3.51-17.14,0c3.32-1.24,6.63,0.98,10.39,0.69C598.44,66.99,600.57,66.46,603,66.46"/>
	<path style="clip-path:url(#SVGID_12_);fill-rule:evenodd;clip-rule:evenodd;fill:#FFFFFF;" d="M603,67.5
		c0.66,3.29-0.42,7.75-2.25,9.69c-3.15-2.74-8.08-0.61-12.29-0.87c-1.81-2-2.16-5.45-2.77-8.65C589.81,70.54,599.42,71.56,603,67.5"
		/>
	<path style="clip-path:url(#SVGID_12_);fill-rule:evenodd;clip-rule:evenodd;" d="M598.67,82.91c-2.24,0.42-6.58-0.22-9,0.17
		C591.24,81.11,597,80.97,598.67,82.91"/>
	<path style="clip-path:url(#SVGID_12_);fill-rule:evenodd;clip-rule:evenodd;" d="M618.06,32.71c-0.26,1.13-1.68,1.09-1.9,2.25
		c-5.66-2.47-12.03,3.51-16.44,0.35c0.7-1.32,1.86-0.24,2.94-0.17c3.62,0.21,7.39-2.7,11.6-1.73c-1.28-1.1-2.94-2.24-4.67-2.42
		c-3.6-0.38-6.13,4.4-9.35,2.25c0.27-1.23,1.14-0.23,1.9-0.35c1.83-0.28,2.91-1.99,4.33-2.77c-1.98-1.08-3.88-2.24-5.02-4.15
		c0.23-0.17,0.52-0.28,0.69-0.52C605.95,29.36,614.18,28.86,618.06,32.71"/>
</g>
</svg>
