<?xml version="1.0" encoding="utf-8"?>
<!-- Generator: Adobe Illustrator 24.0.2, SVG Export Plug-In . SVG Version: 6.00 Build 0)  -->
<svg version="1.1" id="Layer_1" xmlns="http://www.w3.org/2000/svg" xmlns:xlink="http://www.w3.org/1999/xlink" x="0px" y="0px"
	 viewBox="0 0 453.54 343.08" style="enable-background:new 0 0 453.54 343.08;" xml:space="preserve">
<line style="fill:none;stroke:#939598;stroke-width:0.5;stroke-linejoin:round;" x1="192.21" y1="112.58" x2="299.06" y2="112.58"/>
<line style="fill:none;stroke:#939598;stroke-width:0.5;stroke-linejoin:round;" x1="226.13" y1="134.8" x2="299.06" y2="134.8"/>
<line style="fill:none;stroke:#939598;stroke-width:0.5;stroke-linejoin:round;" x1="265.59" y1="168.26" x2="299.06" y2="168.26"/>
<line style="fill:none;stroke:#939598;stroke-width:0.5;stroke-linejoin:round;" x1="270.61" y1="189.53" x2="299.06" y2="189.53"/>
<line style="fill:none;stroke:#939598;stroke-width:0.5;stroke-linejoin:round;" x1="224.95" y1="210.63" x2="299.06" y2="210.63"/>
<line style="fill:none;stroke:#939598;stroke-width:0.5;stroke-linejoin:round;" x1="248.87" y1="233.69" x2="299.06" y2="233.69"/>
<line style="fill:none;stroke:#939598;stroke-width:0.5;stroke-linejoin:round;" x1="217.27" y1="255.93" x2="299.06" y2="255.93"/>
<g id="XMLID_495_">
	<path id="XMLID_178_" style="stroke:#231F20;stroke-width:0.25;stroke-miterlimit:10;" d="M211.35,195.26
		c0.75-0.33,1.55-0.13,2.33-0.09c1.27,0.05,2.61-0.22,3.86,0.08c1.93,0.46,3.32,2.52,4.75,3.77c0.82,0.72,1.52,1.45,1.94,2.3
		c0.64,0.83,0.96,1.67,0.48,2.38c-0.11,0.17-0.32,0.24-0.51,0.13c-1.01-0.59-1.81-1.39-2.65-2.14c-0.08,0-0.15-0.02-0.21-0.05
		c-0.91-0.44-1.47-1.12-2.53-1.28c-0.92-0.14-1.89,0.13-2.78,0.3c-2.03,0.39-3.49,0.02-5.49-0.5c-0.55-0.14-0.97-0.7-0.96-1.26
		C209.62,197.59,210.05,195.84,211.35,195.26z"/>
	<path id="XMLID_25_" style="stroke:#231F20;stroke-width:0.25;stroke-miterlimit:10;" d="M138.38,146.07
		c4.03-2.08,8.8-2.73,13.7-2.78c1.2-0.07,2.41-0.04,3.62,0.06c4.77,0.21,9.52,0.82,13.7,1.13c5.27,0.39,10.11,1.19,14.62,4.17
		c2.63,1.74,4.53,4.22,6.93,6.21c2.23,1.84,4.98,2.51,7.08,4.5c0.19,0.18-0.09,0.44-0.29,0.29c-1.84-1.46-4.34-1.79-6.36-2.96
		c-0.01,0.18-0.18,0.34-0.4,0.24c-10.63-4.98-22.83-9.35-34.76-11.21c-5.9-0.43-11.84-0.35-17.41,1.34
		C138.22,147.24,137.83,146.35,138.38,146.07z"/>
	<path id="XMLID_24_" style="stroke:#231F20;stroke-width:0.25;stroke-miterlimit:10;" d="M236.91,168.64
		c4.37-3.73,12.67-3.49,17.99-2.71c7.98,1.17,12.94,6.79,17.6,12.85c1.03,0.98,2.01,1.99,2.94,3.02c0.24,0.26,0.01,0.8-0.38,0.65
		c-5.03-2.03-8.53-6.37-13.43-8.71c-6.66-3.18-15.22-5.5-22.57-4.65c-0.04,0-0.07-0.01-0.11-0.01c-0.43,0.18-0.85,0.37-1.25,0.58
		C237.08,169.99,236.32,169.14,236.91,168.64z"/>
	<g id="XMLID_264_">
		<path id="XMLID_332_" style="stroke:#231F20;stroke-width:0.25;stroke-miterlimit:10;" d="M230.49,257.16
			c-1.96-4.05-1.65-8.69-3.34-12.8c-2.48-6.02-11.54-7.36-17.23-8.93c-7.86-2.17-13.85-0.52-21.28,2.26
			c-6.98,2.62-14.3,4.96-21.56,6.66c-1.07,0.25-1.4-1.2-0.44-1.6c8.28-3.45,17.35-5.68,25.85-8.63c7.24-2.51,12.81-2.07,20.01,0.06
			c4.56,1.35,11.29,2.67,14.33,6.74c3.14,4.2,3.03,11.18,3.89,16.13C230.75,257.2,230.56,257.31,230.49,257.16L230.49,257.16z"/>
	</g>
	<g id="XMLID_271_">
		<path id="XMLID_339_" style="stroke:#231F20;stroke-width:0.25;stroke-miterlimit:10;" d="M168.61,242.79
			c-5.87,10.54-0.45,21.99,10.19,26.19c8.49,3.35,17.69,5.59,26.41,8.22c7.67,2.31,17.56,6.71,21.37-2.85
			c3.73-9.35,6.4-19.03,5.62-29.1c-0.06-0.75,1.09-0.87,1.28-0.17c1.68,5.98,0.54,11.87-1.26,17.69
			c-1.52,4.91-2.63,10.82-5.36,15.26c-4.64,7.53-15.67,2.87-22.13,0.93c-6.82-2.06-13.56-4.32-20.43-6.24
			c-5.03-1.41-10.54-2.99-14.51-6.58c-6.1-5.5-7.78-17.76-2.31-24.2C168.02,241.29,168.99,242.1,168.61,242.79L168.61,242.79z"/>
	</g>
	<g id="XMLID_278_">
		<path id="XMLID_346_" style="stroke:#231F20;stroke-width:0.25;stroke-miterlimit:10;" d="M227.29,261.04
			c-0.07,3.14-0.38,6.44-1.62,9.36c-0.85,2.01-2.66,5.13-5.22,4.99c-0.25-0.01-0.33-0.32-0.12-0.46c2.64-1.82,3.99-3.3,5.14-6.38
			c0.89-2.4,1.48-4.95,1.69-7.5C227.15,260.96,227.29,260.95,227.29,261.04L227.29,261.04z"/>
	</g>
	<g id="XMLID_285_">
		<path id="XMLID_353_" style="stroke:#231F20;stroke-width:0.25;stroke-miterlimit:10;" d="M223.75,277.7
			c-5.36-1.59-11.19-2.72-16.33-4.91c-2.7-1.15-5.21-2.68-7.93-3.77c-3.34-1.34-6.78-1.63-10.34-1.9
			c-8.48-0.65-17.88-1.2-22.86-9.12c-0.39-0.63,0.54-1.38,1.04-0.8c7.58,8.76,17.65,7,27.96,8.77c4.51,0.77,8.15,3.21,12.26,5.06
			c5.39,2.44,11.55,2.6,16.45,6.11C224.26,277.33,224.11,277.81,223.75,277.7L223.75,277.7z"/>
	</g>
	<g id="XMLID_292_">
		<path id="XMLID_360_" style="stroke:#231F20;stroke-width:0.25;stroke-miterlimit:10;" d="M167.79,243.76
			c5.68,6.94,13.03,8.54,21.5,9.85c6,0.93,13.67,1.72,18.06,6.43c0.48,0.51-0.12,1.3-0.75,0.97c-7.65-4.07-14.92-5.05-23.29-6.8
			c-6.48-1.36-12.84-3.86-16.33-9.83C166.7,243.9,167.41,243.3,167.79,243.76L167.79,243.76z"/>
	</g>
	<g id="XMLID_299_">
		<path id="XMLID_367_" style="stroke:#231F20;stroke-width:0.25;stroke-miterlimit:10;" d="M171.37,240.75
			c7.55-0.26,14.65,5.77,19.42,11.03c0.25,0.27-0.08,0.78-0.42,0.54c-6.15-4.44-11.1-9.56-19-10.46
			C170.68,241.78,170.64,240.77,171.37,240.75L171.37,240.75z"/>
	</g>
	<g id="XMLID_306_">
		<path id="XMLID_374_" style="stroke:#231F20;stroke-width:0.25;stroke-miterlimit:10;" d="M180.64,243.15
			c11.72,6.73,26.43,6.38,35.49,17.59c1.97,2.44,4.12,6.26,1.66,9.16c-2.7,3.19-9.29,2.3-12.81,1.6c-0.83-0.17-0.88-1.61,0-1.73
			c1.5-0.21,2.94-0.11,4.45-0.08c0.79,0.01,2.05,0.29,2.8,0.02c1.48-0.53,3.89-4.58,3.54-6.1c-0.82-3.6-8.23-8.19-11.17-9.59
			c-7.9-3.78-17.9-3.95-24.54-10.11C179.66,243.52,180.18,242.88,180.64,243.15L180.64,243.15z"/>
	</g>
	<g id="XMLID_313_">
		<path id="XMLID_381_" style="stroke:#231F20;stroke-width:0.25;stroke-miterlimit:10;" d="M227.71,242.72
			c-2.12,3.65-7.89,1.47-10.93,0.46c-7.21-2.39-15.08-4.5-21.48-8.65c-0.59-0.38-0.23-1.46,0.5-1.19
			c5.67,2.09,11.16,4.59,16.86,6.64c3.46,1.24,10.96,5.36,14.15,2.04C227.27,241.55,228.04,242.16,227.71,242.72L227.71,242.72z"/>
	</g>
	<g id="XMLID_320_">
		<path id="XMLID_388_" style="stroke:#231F20;stroke-width:0.25;stroke-miterlimit:10;" d="M232.98,248.64
			c-0.01-3.1-0.06-6.38-0.94-9.36c-0.57-1.95-1.4-4.06-2.84-5.54c-2.23-2.28-5.4-2.02-8.31-2.42c-6.24-0.86-11.69-2.97-18.14-2.5
			c-12.42,0.91-26.86,4.41-35.29,14.22c-0.72,0.84-1.86-0.36-1.2-1.2c8.9-11.25,27.58-15.32,41.26-14.92
			c4.07,0.12,7.62,1.78,11.57,2.43c3.52,0.58,7.35,0.06,10.32,2.42c4.73,3.77,5.19,11.51,4.44,16.99
			C233.78,249.25,232.98,249.12,232.98,248.64L232.98,248.64z"/>
	</g>
	<g id="XMLID_327_" style="opacity:0.8;">
		<path id="XMLID_395_" style="stroke:#231F20;stroke-width:0.25;stroke-miterlimit:10;" d="M210.18,291.62
			c-6.6-5.45-12.29-7.6-20.81-6.57c-3.58,0.43-9.13,1.78-11.48-1.86c-0.16-0.25,0.15-0.53,0.4-0.4c5.64,3.06,12.03-0.05,18,0.47
			c6.23,0.54,9.8,4.1,14.11,8.13C210.56,291.53,210.34,291.74,210.18,291.62L210.18,291.62z"/>
	</g>
	<g id="XMLID_348_">
		<path id="XMLID_416_" style="stroke:#231F20;stroke-width:0.25;stroke-miterlimit:10;" d="M221.19,310.86
			c-10.59,12.33-29.96,16.07-45.41,12.04c-18.32-4.77-32.04-22.34-44.06-35.75c-0.2-0.22,0.1-0.52,0.32-0.32
			c7.36,6.45,13.15,14.24,21.03,20.19c6.3,4.75,12.83,9.82,20.28,12.63c15.27,5.75,36.15,3.09,47.47-9.14
			C221.06,310.26,221.41,310.62,221.19,310.86L221.19,310.86z"/>
	</g>
	<g id="XMLID_13_">
		<path id="XMLID_21_" style="stroke:#231F20;stroke-width:0.25;stroke-miterlimit:10;" d="M11.17,152.02
			c9.69-11.75,28.2-9.78,40.38-3.21c0.67,0.36,0.18,1.28-0.49,1.16c-7.84-1.42-15.09-4.67-23.27-3.85
			c-7.99,0.8-15.02,5.76-17.92,13.32c-5.67,14.76,4.63,27.64,13.2,38.53c3.74,4.75,6.71,9.69,9.61,14.98
			c1.59,2.9,3.57,5.33,5.72,7.6c0.3,0.02,0.59,0.16,0.76,0.49c0.1,0.19,0.18,0.39,0.27,0.59c2.42,2.44,5.01,4.74,7.51,7.28
			c4.37,4.43,8.32,12.33,14.87,13.73c9.33,1.99,14.76-8.25,15.06-15.99c0.04-0.93,1.56-1.25,1.71-0.23
			c1.37,9.35-5.99,19.73-16.05,18.85c-5.98-0.52-9.41-5.35-12.94-9.6c-2.25-2.72-4.87-5.12-7.49-7.5
			c3.31,9.37,5.04,19.34,9.34,28.37c4.95,10.4,11.91,19.83,20.76,27.22c20.23,16.9,46.6,22.12,68.06,36.67
			c18.41,12.49,47.53,19.74,68.3,8.87c10.73-5.62,17.94-16.11,27.24-23.68c10.01-8.14,19.15-15.94,25.25-27.58
			c7.36-14.03,11.61-30.02,12.55-45.8c0.86-14.5,11.84-30.1,1.1-43.63c-0.09-0.13-0.15-0.29-0.12-0.49
			c2.7-20.02-4.41-38.69-6.58-58.42c-2.16-19.57-0.05-39.72-12.84-56.23c-0.28-0.36,0.2-0.87,0.51-0.51
			c13.09,15.22,12.43,33.79,14.4,52.69c1.23,11.82,3.46,23.37,5.96,34.97c1.79,8.28,1.55,17.27,0.36,25.44
			c11.05,20.5,0.38,30.82-0.48,46.17c-0.77,13.78-4.09,27.23-9.39,39.96c-5.24,12.58-12.84,22.22-23.3,30.83
			c-4.79,3.94-9.74,7.7-14.2,12.04c-4.55,4.43-8.34,9.39-13.53,13.13c-18.87,13.59-44.69,9.73-64.92,1.31
			c-5.33-2.22-10.04-5.53-14.78-8.77c-6.74-4.6-13.64-7.46-21.19-10.5c-12.71-5.11-25.28-11.1-36.66-18.75
			c-10.54-7.09-19.1-16.18-25.46-27.18c-7.15-12.36-10.27-26.41-14.44-39.97c-1.55-1.52-3.03-3.1-4.34-4.82
			c-4.24-5.57-6.83-12.2-11.09-17.81c-4.21-5.55-8.98-10.73-12.36-16.87C4.67,174.69,3.4,161.45,11.17,152.02z"/>
		<path id="XMLID_133_" style="stroke:#231F20;stroke-width:0.25;stroke-miterlimit:10;" d="M58.15,210.34
			c-6.28-3.69-13.02-1.3-17.29-8.4c-0.06-0.1-0.03-0.19,0.03-0.26c-3.11-3.56-4-9.66-3.55-13.97c0.05-0.45,0.67-0.46,0.71,0
			c0.32,4.82,1.53,11.37,4.95,15.01c0.1,0.11,0.09,0.25,0.03,0.37c2.24,1.72,4.41,2.83,7.45,3.35c2.76,0.47,5.63,0.72,8.18,2.01
			c1.67,0.85,2.65,2.43,4.17,3.39c0.8,1.24,1.94,1.48,3.44,0.73c2.48,0.61,3.17-0.11,2.07-2.18c-0.26-1.47-1.3-3.23-2.1-4.45
			c-2.13-3.28-5.67-5.37-7.12-8.99c-1.44,0.75-2.84,1.62-4.14,2.59c-1.49,1.11-2.61,2.75-4.11,3.77c-0.33,0.22-0.67-0.14-0.61-0.47
			c0.31-1.7,2.32-3.12,3.61-4.08c1.52-1.13,3.16-2.06,4.94-2.71c-0.05-0.19-0.11-0.39-0.15-0.59c-0.55-2.7-0.2-5.63,0.44-8.59
			c-4.51,4.85-12.92,11.05-16.74,4.47c-0.23-0.4,0.23-0.88,0.64-0.64c5.37,3.16,9.99-0.33,13.98-4.11
			c-1.29-4.32-2.69-9.8-4.66-15.09c-0.03,0.13-0.1,0.26-0.25,0.35c-3.3,2.15-5.91,4.86-7.47,8.5c-1.36,3.16-1.27,6.45-2.06,9.72
			c-0.08,0.33-0.6,0.34-0.68,0c-1.77-7.64,3.44-15.35,9.64-19.2c0.22-0.14,0.43-0.1,0.59,0.02c-0.59-1.54-1.23-3.06-1.93-4.53
			c-2.6,2.26-6.33,4.22-9.73,3.02c-0.25-0.09-0.31-0.5,0-0.56c1.81-0.33,3.6-0.36,5.34-1.01c1.44-0.53,2.77-1.3,4.16-1.93
			c-3.47-7.05-8.43-12.72-16.21-13.14c-13.1-0.7-16.65,15.44-13.14,25.15c1.49,4.12,3.64,7.91,5.67,11.73
			c-0.81-4.48-1.27-9.02-1.08-13.57c0.32-7.51,2.49-15.2,10.17-18c0.36-0.13,0.62,0.47,0.26,0.63c-8.48,3.65-9.48,13.65-8.84,21.79
			c0.32,4.1,1.02,8.17,1.94,12.18c0.47,2.06,1.24,4.15,1.75,6.24c0.62,1.84,1.1,3.74,1.36,5.75c0.05,0.4-0.53,0.41-0.66,0.09
			c-0.31-0.79-0.63-1.57-0.94-2.35c-0.15-0.04-0.3-0.11-0.39-0.25c-1.12-1.72-1.81-3.89-2.32-6.09c-1.92-4.28-4.01-8.45-6.42-12.65
			c-2.41-4.19-4.06-8.48-4-13.39c0.11-8.64,4.91-17.84,14.35-18.78c17.68-1.77,22.74,21.97,25.78,35.15
			c0.9-0.86,1.77-1.73,2.61-2.53c0.76-2.95,1.6-5.86,1.89-8.53c0.03-0.29,0.44-0.3,0.46,0c0.22,4.71-0.56,9.04-1.25,13.67
			c-0.9,6.14,0.66,8.5,4.59,12.67c2.46,2.61,7.51,9.49,4.45,13.23C66.07,219.63,61.05,212.05,58.15,210.34z"/>
		<path id="XMLID_134_" style="stroke:#231F20;stroke-width:0.25;stroke-miterlimit:10;" d="M238.6,176.39
			c0.76,1.53,1.89,2.91,2.97,4.29c3.95,3.34,8.31,5.81,12.92,8.38c0.45,0.25,0.05,0.91-0.4,0.68c-3.12-1.55-6.95-3.17-10.11-5.39
			c1.6,3.52-0.56,9.1,1.66,10.9c2.59,2.09,3.15,6.42,1.78,9.92c-0.47,1.19-1.33,1.78-2.27,2.2c6.81,4.67,4.98,20.27,4.48,26.83
			c-0.46,5.98-1.65,11.23-4.37,16.63c-2.2,4.36-4.48,8.6-6.05,13.25c-1.43,4.23-2.26,8.64-3.8,12.83c-0.14,0.38-0.65,0.22-0.59-0.16
			c0.93-6.84,3.22-13.86,6.17-20.1c3.14-6.64,6.53-12.36,7.3-19.82c0.9-8.76,2.73-22.08-3.66-29.24c-1.16,0.45-2.34,0.78-2.96,1.75
			c-0.22,0.35-0.7,0.18-0.74-0.2c-0.01-0.15-0.03-0.3-0.04-0.45c-0.02-0.19,0.12-0.39,0.27-0.47c0.54-0.31,1.29-0.67,1.75-1.08
			c5.22-4.64,5.23-7.88,1.82-10.21c-2.67-1.83-0.96-5.94-1.24-9.66c-0.34-4.39-4.85-7.11-6.16-11.15
			c-2.41-5.18-3.32-11.31-1.82-16.44l0,0c-7-7.34-19.33-6.02-28.6-6.8c-0.18-0.02-0.18-0.27,0-0.28c7.96-0.68,23.85-1.62,28.78,6.49
			c1.27-3.81,3.94-7.02,8.39-8.78c0.19-0.08,0.33,0.25,0.14,0.34C233.07,156,236.11,166.88,238.6,176.39z"/>
		<path id="XMLID_135_" style="stroke:#231F20;stroke-width:0.25;stroke-miterlimit:10;" d="M221.15,207.89
			c4.31,5.31,8.13-1.1,12.84-1.33c0.37-0.02,0.41,0.44,0.17,0.62c-2.05,1.55-5.44,3.4-8,3.85c-2.48,0.44-4.15-0.78-5.31-2.92
			C220.75,207.94,221.01,207.71,221.15,207.89z"/>
		<path id="XMLID_136_" style="stroke:#231F20;stroke-width:0.25;stroke-miterlimit:10;" d="M188.44,133.84
			c-4.98-2.06-10.21-2.42-15.47-3.3c-0.45-0.08-0.27-0.68,0.1-0.73c6.61-0.86,13.26,0.7,18.94,3.98c0.12-0.09,0.28-0.12,0.45-0.03
			c1,0.56,1.85,1.24,2.59,2.01c2.93,2.16,5.51,4.8,7.55,7.82c0.15,0.23-0.18,0.47-0.37,0.29c-1.58-1.53-3.16-3.02-4.8-4.39
			c0.36,0.9,0.62,1.86,0.77,2.87c0.27,1.77,0.17,3.53,0.25,5.3c0.19,3.96,1.27,7.48,2.58,11.19c0.13,0.36-0.46,0.62-0.63,0.26
			c-1.76-3.72-2.9-7.33-3.09-11.45c-0.22-4.58-0.94-7.57-3.29-10.77C192.3,135.72,190.46,134.68,188.44,133.84z"/>
		<path id="XMLID_137_" style="stroke:#231F20;stroke-width:0.25;stroke-miterlimit:10;" d="M194.24,153.79
			c0.08,0.4-0.5,0.57-0.61,0.17c-2.21-7.71-12.5-11.64-19.67-12.7c-8.34-1.23-16.8-0.76-25.15-0.01c-0.42,0.04-0.42-0.54-0.09-0.68
			C160.61,135.59,190.89,137.3,194.24,153.79z"/>
		<path id="XMLID_138_" style="stroke:#231F20;stroke-width:0.25;stroke-miterlimit:10;" d="M195.67,163.61
			c-16.52,5.1-31.53-1.48-44.21-12.39c-0.22-0.19,0.06-0.53,0.3-0.39c6.6,3.83,12.72,8.54,19.89,11.33
			c7.69,2.99,15.99,3.28,23.94,1.14C195.79,163.25,195.87,163.55,195.67,163.61z"/>
		<path id="XMLID_139_" style="stroke:#231F20;stroke-width:0.25;stroke-miterlimit:10;" d="M197.97,124.45
			c0.11,0.09-0.04,0.28-0.15,0.19c-5.59-3.98-12.95,0.32-19.14,0.6c-5.8,0.26-11.11-0.19-16.8,1.34c-0.42,0.11-0.62-0.44-0.29-0.68
			c5.22-3.67,13.23-1.42,19.15-2.04C187.17,123.19,192.35,119.98,197.97,124.45z"/>
		<path id="XMLID_143_" style="stroke:#231F20;stroke-width:0.25;stroke-miterlimit:10;" d="M211.67,128.11
			c-3.29-6.55-7.85-12.32-15.46-13.4c-5.65-0.8-11.51-0.08-17.02-1.72c-0.32-0.09-0.28-0.65,0.08-0.61
			c6.95,0.77,15.25-0.22,21.84,2.42c5.42,2.17,8.98,7.8,11.19,12.93C212.49,128.16,211.89,128.54,211.67,128.11z"/>
		<path id="XMLID_145_" style="stroke:#231F20;stroke-width:0.25;stroke-miterlimit:10;" d="M265.86,149.08
			c-2.58-2.11-5.36-1.73-8.4-1.17c-2.18,0.4-4.36,0.59-6.54,0.95c-0.08,0.01-0.1-0.11-0.02-0.11c4.79-0.2,11.86-5.96,15.57-0.14
			C266.74,149,266.19,149.34,265.86,149.08z"/>
		<path id="XMLID_146_" style="stroke:#231F20;stroke-width:0.25;stroke-miterlimit:10;" d="M271.9,175.68
			c0.11,0.75-0.86,1.3-1.3,0.55c-3.53-5.94-6.1-10.75-13.11-13.13c-7.15-2.44-12.13,1.56-18.99,1.69c-0.23,0-0.25-0.31-0.05-0.38
			c7.43-2.68,14.65-5.49,22.27-2.06C266.03,164.73,271.02,169.74,271.9,175.68z"/>
		<path id="XMLID_147_" style="stroke:#231F20;stroke-width:0.25;stroke-miterlimit:10;" d="M195.84,183.85
			c1.59-2.94,3.66-5.45,5.9-6.93c0.08-0.06,0.18,0.07,0.11,0.14c-3.87,3.83-7.02,8.9-7.74,14.37c-0.96,7.29,3.07,10.43,8.95,13.52
			c0.26,0.14,0.14,0.55-0.15,0.54c-12-0.21-11.83-12.32-7.36-21.08c-26.38,21.26-32.94,56.99-56.19,80.78
			c-0.25,0.25-0.62-0.13-0.39-0.39C161.21,240.1,168.81,204.41,195.84,183.85z"/>
		<path id="XMLID_148_" style="stroke:#231F20;stroke-width:0.25;stroke-miterlimit:10;" d="M213.68,158.54
			c-0.17,0-0.22-0.28-0.04-0.31c6.26-1.17,13.08-0.84,18.71,2.31c0.13,0.07,0.02,0.26-0.12,0.2
			C226.27,157.68,220.1,158.43,213.68,158.54z"/>
		<path id="XMLID_39_" style="stroke:#231F20;stroke-width:0.25;stroke-miterlimit:10;" d="M236.73,144.27
			c0.17,0.05,0.13,0.33-0.05,0.31c-6.32-0.76-12.74-3.11-17.16-7.81c-0.1-0.11,0.06-0.26,0.17-0.15
			C224.46,141.32,230.57,142.45,236.73,144.27z"/>
		<path id="XMLID_38_" style="stroke:#231F20;stroke-width:0.25;stroke-miterlimit:10;" d="M113.64,204.39
			c-0.08,0.34-1.18,0.14-1.22-0.24c-1.29-13.17,3.46-25.89,18.46-33.41c0.34-0.17,1.03,0.24,0.7,0.42
			C116.78,179.43,116.51,192,113.64,204.39z"/>
		<path id="XMLID_1_" style="stroke:#231F20;stroke-width:0.25;stroke-miterlimit:10;" d="M254.93,133.81
			c-2.19,0.87-4.06,1.52-5.65,3.37c-1.46,1.7-2.59,3.9-3.31,6.01c-0.06,0.17-0.3,0.1-0.27-0.07c0.69-4.23,3.96-10.41,9.16-9.81
			C255.15,133.34,255.2,133.7,254.93,133.81z"/>
		<path id="XMLID_149_" style="stroke:#231F20;stroke-width:0.25;stroke-miterlimit:10;" d="M254.93,133.81
			c-2.19,0.87-4.06,1.52-5.65,3.37c-1.46,1.7-2.59,3.9-3.31,6.01c-0.06,0.17-0.3,0.1-0.27-0.07c0.69-4.23,3.96-10.41,9.16-9.81
			C255.15,133.34,255.2,133.7,254.93,133.81z"/>
	</g>
	<path style="stroke:#231F20;stroke-width:0.25;stroke-miterlimit:10;" d="M244.65,59.24c-29.98-32.02-75.38-49.45-119.09-44.56
		c-14.84,1.66-29.35,5.67-43.29,11c-7.28,2.78-14.52,5.98-20.59,10.87c-9.51,7.66-15.51,18.82-20.95,29.53
		c-5.68,11.18-10.36,22.85-14.1,34.82c-4.5,14.38-7.64,29.18-9.52,44.13c5.75-26.07,14.95-51.39,26.64-75.38
		c4.57-9.38,9.13-19.82,16.63-27.29c5.17-5.17,11.76-8.67,18.41-11.73c21.57-9.9,45.21-15.9,68.93-15.17
		c42.44,1.31,82.65,24.7,108.69,58.24C252.84,68.6,248.9,63.77,244.65,59.24z"/>
	<path id="XMLID_117_" style="stroke:#231F20;stroke-width:0.25;stroke-miterlimit:10;" d="M233.13,205.78
		c0.4-0.38,0.9-0.5,1.3-0.82c0.42-0.34,0.53-0.85,0.91-1.23c0.75-0.75,2.27-1.17,3.26-1.38c1.27-0.26,3.16-0.32,4.44-0.04
		c1.03,0.23,1.01,1.08,1.79,1.54c0.24,0.14,0.08,0.52-0.19,0.45c-0.75-0.18-1.45-0.68-2.23-0.76c-0.32-0.03-0.67-0.04-1.02-0.03
		c0.02,0.27-0.08,0.55-0.39,0.8c-0.96,0.76-1.44,1.33-2.6,1.77c-1.37,0.53-2.66,1.27-4.05,1.79
		C233.16,208.32,232.26,206.61,233.13,205.78z"/>
</g>
<g>
	<g>
		<path style="fill:#231F20;" d="M306.28,110.58h1.97c1.27,0,2.2,0.41,2.2,1.61c0,0.62-0.32,1.22-0.86,1.42v0.04
			c0.68,0.16,1.18,0.67,1.18,1.55c0,1.31-1.01,1.92-2.37,1.92h-2.13V110.58z M308.16,113.28c0.86,0,1.23-0.36,1.23-0.92
			c0-0.63-0.4-0.87-1.2-0.87h-0.8v1.79H308.16z M308.3,116.21c0.91,0,1.41-0.34,1.41-1.08c0-0.69-0.49-0.99-1.41-0.99h-0.92v2.07
			H308.3z"/>
		<path style="fill:#231F20;" d="M311.82,112.21h0.89l0.08,0.88h0.03c0.33-0.64,0.82-1,1.32-1c0.24,0,0.38,0.03,0.52,0.1l-0.19,1
			c-0.16-0.05-0.28-0.08-0.48-0.08c-0.37,0-0.81,0.27-1.09,1.02v2.99h-1.09V112.21z"/>
		<path style="fill:#231F20;" d="M315.03,114.66c0-1.64,1.05-2.58,2.2-2.58s2.2,0.94,2.2,2.58c0,1.63-1.05,2.57-2.2,2.57
			S315.03,116.29,315.03,114.66z M318.32,114.66c0-0.98-0.41-1.64-1.09-1.64c-0.68,0-1.09,0.66-1.09,1.64
			c0,0.98,0.41,1.63,1.09,1.63C317.91,116.3,318.32,115.65,318.32,114.66z"/>
		<path style="fill:#231F20;" d="M320.05,112.21h1.09l0.56,2.55c0.09,0.48,0.16,0.94,0.24,1.42h0.04c0.09-0.48,0.18-0.95,0.29-1.42
			l0.61-2.55h0.99l0.62,2.55c0.11,0.48,0.2,0.94,0.31,1.42h0.04c0.09-0.48,0.16-0.94,0.25-1.42l0.55-2.55h1.01l-1.17,4.91h-1.29
			l-0.54-2.29c-0.1-0.46-0.18-0.91-0.28-1.42h-0.04c-0.09,0.51-0.17,0.97-0.28,1.43l-0.52,2.28h-1.25L320.05,112.21z"/>
		<path style="fill:#231F20;" d="M327.11,116.55l0.5-0.73c0.41,0.34,0.81,0.55,1.28,0.55c0.5,0,0.74-0.25,0.74-0.59
			c0-0.41-0.5-0.6-1-0.8c-0.61-0.24-1.3-0.61-1.3-1.43c0-0.85,0.65-1.47,1.69-1.47c0.64,0,1.16,0.28,1.54,0.59l-0.5,0.71
			c-0.32-0.25-0.65-0.43-1.01-0.43c-0.47,0-0.69,0.24-0.69,0.54c0,0.39,0.47,0.54,0.97,0.73c0.63,0.25,1.33,0.57,1.33,1.48
			c0,0.84-0.63,1.52-1.8,1.52C328.23,117.23,327.56,116.95,327.11,116.55z"/>
		<path style="fill:#231F20;" d="M331.54,113.04c0-0.45,0.31-0.78,0.7-0.78c0.4,0,0.7,0.33,0.7,0.78c0,0.44-0.31,0.78-0.7,0.78
			C331.85,113.82,331.54,113.48,331.54,113.04z M331.54,116.46c0-0.45,0.31-0.78,0.7-0.78c0.4,0,0.7,0.33,0.7,0.78
			c0,0.44-0.31,0.78-0.7,0.78C331.85,117.23,331.54,116.9,331.54,116.46z"/>
		<path style="fill:#231F20;" d="M336.27,110.56h0.79v5.85h2.7v0.71h-3.49V110.56z"/>
		<path style="fill:#231F20;" d="M340.45,114.69c0-1.62,1-2.56,2.12-2.56c1.12,0,2.12,0.93,2.12,2.56c0,1.61-1,2.54-2.12,2.54
			C341.45,117.23,340.45,116.3,340.45,114.69z M343.89,114.69c0-1.11-0.53-1.87-1.32-1.87c-0.79,0-1.32,0.76-1.32,1.87
			s0.53,1.86,1.32,1.86C343.36,116.55,343.89,115.81,343.89,114.69z"/>
		<path style="fill:#231F20;" d="M345.35,112.26h0.79l0.68,2.81c0.1,0.46,0.18,0.9,0.27,1.35h0.04c0.1-0.46,0.2-0.9,0.31-1.35
			l0.71-2.81h0.76l0.71,2.81c0.11,0.46,0.21,0.9,0.32,1.35h0.04c0.1-0.46,0.18-0.89,0.28-1.35l0.67-2.81h0.74l-1.23,4.86h-0.95
			l-0.66-2.61c-0.11-0.46-0.2-0.91-0.31-1.4h-0.04c-0.1,0.49-0.19,0.95-0.32,1.41l-0.64,2.6h-0.91L345.35,112.26z"/>
		<path style="fill:#231F20;" d="M352.33,114.69c0-1.58,1.01-2.56,2.06-2.56c1.17,0,1.83,0.89,1.83,2.28c0,0.17-0.01,0.35-0.04,0.47
			h-3.09c0.06,1.03,0.65,1.7,1.52,1.7c0.44,0,0.8-0.15,1.14-0.39l0.28,0.54c-0.4,0.28-0.89,0.5-1.51,0.5
			C353.31,117.23,352.33,116.29,352.33,114.69z M355.54,114.29c0-0.97-0.41-1.5-1.13-1.5c-0.64,0-1.22,0.55-1.31,1.5H355.54z"/>
		<path style="fill:#231F20;" d="M357.35,112.26h0.64l0.07,0.88h0.03c0.32-0.62,0.79-1,1.3-1c0.2,0,0.35,0.03,0.49,0.1l-0.14,0.72
			c-0.16-0.05-0.26-0.08-0.44-0.08c-0.39,0-0.85,0.3-1.16,1.12v3.12h-0.78V112.26z"/>
		<path style="fill:#231F20;" d="M360.29,114.69c0-1.58,1.01-2.56,2.06-2.56c1.17,0,1.83,0.89,1.83,2.28c0,0.17-0.01,0.35-0.04,0.47
			h-3.09c0.06,1.03,0.65,1.7,1.52,1.7c0.44,0,0.8-0.15,1.14-0.39l0.28,0.54c-0.4,0.28-0.89,0.5-1.51,0.5
			C361.26,117.23,360.29,116.29,360.29,114.69z M363.49,114.29c0-0.97-0.41-1.5-1.13-1.5c-0.64,0-1.22,0.55-1.31,1.5H363.49z"/>
		<path style="fill:#231F20;" d="M364.98,114.69c0-1.58,0.94-2.56,1.98-2.56c0.53,0,0.88,0.21,1.29,0.56l-0.03-0.83v-1.87h0.78v7.12
			h-0.64l-0.07-0.57h-0.03c-0.36,0.38-0.84,0.69-1.39,0.69C365.72,117.23,364.98,116.31,364.98,114.69z M368.21,115.88v-2.55
			c-0.39-0.37-0.74-0.5-1.12-0.5c-0.73,0-1.32,0.75-1.32,1.86c0,1.17,0.46,1.86,1.26,1.86
			C367.46,116.54,367.83,116.32,368.21,115.88z"/>
		<path style="fill:#231F20;" d="M370.21,118.33c0.53-0.25,0.85-0.69,0.85-1.24l-0.08-0.74l0.38,0.6c-0.1,0.13-0.24,0.17-0.39,0.17
			c-0.3,0-0.56-0.2-0.56-0.57c0-0.36,0.27-0.57,0.58-0.57c0.41,0,0.66,0.37,0.66,0.96c0,0.86-0.47,1.54-1.24,1.87L370.21,118.33z"/>
		<path style="fill:#231F20;" d="M374.45,114.69c0-1.58,0.94-2.56,1.98-2.56c0.53,0,0.88,0.21,1.29,0.56l-0.03-0.83v-1.87h0.78v7.12
			h-0.64l-0.07-0.57h-0.03c-0.36,0.38-0.84,0.69-1.39,0.69C375.19,117.23,374.45,116.31,374.45,114.69z M377.68,115.88v-2.55
			c-0.39-0.37-0.74-0.5-1.12-0.5c-0.73,0-1.32,0.75-1.32,1.86c0,1.17,0.46,1.86,1.26,1.86C376.93,116.54,377.3,116.32,377.68,115.88
			z"/>
		<path style="fill:#231F20;" d="M380.01,112.26h0.64l0.07,0.88h0.03c0.32-0.62,0.79-1,1.3-1c0.2,0,0.35,0.03,0.49,0.1l-0.14,0.72
			c-0.16-0.05-0.26-0.08-0.44-0.08c-0.39,0-0.85,0.3-1.16,1.12v3.12h-0.78V112.26z"/>
		<path style="fill:#231F20;" d="M383,115.85c0-1.06,0.86-1.59,2.82-1.81c0-0.63-0.2-1.23-0.95-1.23c-0.53,0-1.01,0.27-1.37,0.52
			l-0.3-0.56c0.42-0.29,1.06-0.63,1.8-0.63c1.12,0,1.59,0.79,1.59,2v2.98h-0.64l-0.07-0.58h-0.03c-0.44,0.39-0.95,0.7-1.52,0.7
			C383.58,117.23,383,116.73,383,115.85z M385.82,115.93v-1.35c-1.54,0.2-2.06,0.59-2.06,1.21c0,0.55,0.35,0.78,0.8,0.78
			C385.01,116.57,385.37,116.34,385.82,115.93z"/>
		<path style="fill:#231F20;" d="M387.49,112.26h0.79l0.68,2.81c0.1,0.46,0.18,0.9,0.27,1.35h0.04c0.1-0.46,0.2-0.9,0.31-1.35
			l0.71-2.81h0.76l0.71,2.81c0.11,0.46,0.21,0.9,0.32,1.35h0.04c0.1-0.46,0.18-0.89,0.28-1.35l0.67-2.81h0.74l-1.23,4.86h-0.94
			l-0.66-2.61c-0.11-0.46-0.2-0.91-0.31-1.4h-0.04c-0.1,0.49-0.19,0.95-0.31,1.41l-0.64,2.6h-0.91L387.49,112.26z"/>
		<path style="fill:#231F20;" d="M394.81,112.26h0.64l0.07,0.7h0.03c0.44-0.46,0.91-0.82,1.54-0.82c0.97,0,1.4,0.66,1.4,1.9v3.08
			h-0.78v-2.97c0-0.91-0.26-1.29-0.87-1.29c-0.47,0-0.79,0.25-1.25,0.75v3.52h-0.78V112.26z"/>
		<path style="fill:#231F20;" d="M402,115.61v-2.69h-0.68v-0.62l0.72-0.05l0.09-1.36h0.65v1.36h1.24v0.67h-1.24v2.7
			c0,0.59,0.18,0.94,0.71,0.94c0.16,0,0.37-0.07,0.52-0.13l0.15,0.62c-0.26,0.09-0.56,0.18-0.85,0.18
			C402.33,117.23,402,116.58,402,115.61z"/>
		<path style="fill:#231F20;" d="M404.71,114.69c0-1.62,1-2.56,2.12-2.56c1.12,0,2.12,0.93,2.12,2.56c0,1.61-1,2.54-2.12,2.54
			C405.71,117.23,404.71,116.3,404.71,114.69z M408.16,114.69c0-1.11-0.53-1.87-1.32-1.87c-0.79,0-1.32,0.76-1.32,1.87
			s0.53,1.86,1.32,1.86C407.62,116.55,408.16,115.81,408.16,114.69z"/>
		<path style="fill:#231F20;" d="M409.81,118.05c0-0.42,0.25-0.81,0.67-1.1v-0.04c-0.23-0.15-0.41-0.42-0.41-0.8
			c0-0.4,0.27-0.72,0.5-0.9v-0.04c-0.3-0.25-0.59-0.72-0.59-1.3c0-1.06,0.79-1.73,1.72-1.73c0.25,0,0.48,0.05,0.65,0.12h1.6v0.63
			h-0.94c0.22,0.22,0.37,0.58,0.37,1c0,1.04-0.74,1.68-1.68,1.68c-0.22,0-0.48-0.06-0.68-0.17c-0.17,0.15-0.29,0.31-0.29,0.57
			c0,0.31,0.19,0.53,0.8,0.53h0.89c1.07,0,1.6,0.35,1.6,1.16c0,0.9-0.9,1.68-2.32,1.68C410.59,119.35,409.81,118.88,409.81,118.05z
			 M413.27,117.79c0-0.45-0.32-0.6-0.92-0.6h-0.79c-0.17,0-0.39-0.02-0.6-0.07c-0.33,0.25-0.47,0.54-0.47,0.81
			c0,0.52,0.5,0.85,1.33,0.85C412.69,118.78,413.27,118.3,413.27,117.79z M412.68,113.87c0-0.71-0.43-1.13-0.97-1.13
			s-0.97,0.42-0.97,1.13c0,0.71,0.45,1.16,0.97,1.16S412.68,114.57,412.68,113.87z"/>
		<path style="fill:#231F20;" d="M414.58,114.69c0-1.58,1.01-2.56,2.06-2.56c1.17,0,1.83,0.89,1.83,2.28c0,0.17-0.01,0.35-0.04,0.47
			h-3.09c0.06,1.03,0.65,1.7,1.52,1.7c0.44,0,0.8-0.15,1.14-0.39l0.28,0.54c-0.4,0.28-0.89,0.5-1.51,0.5
			C415.55,117.23,414.58,116.29,414.58,114.69z M417.78,114.29c0-0.97-0.41-1.5-1.13-1.5c-0.64,0-1.22,0.55-1.31,1.5H417.78z"/>
		<path style="fill:#231F20;" d="M419.73,115.61v-2.69h-0.68v-0.62l0.72-0.05l0.09-1.36h0.65v1.36h1.24v0.67h-1.24v2.7
			c0,0.59,0.18,0.94,0.71,0.94c0.16,0,0.37-0.07,0.52-0.13l0.15,0.62c-0.26,0.09-0.56,0.18-0.85,0.18
			C420.06,117.23,419.73,116.58,419.73,115.61z"/>
		<path style="fill:#231F20;" d="M422.78,109.99h0.78v1.95l-0.03,1c0.43-0.44,0.89-0.8,1.52-0.8c0.97,0,1.4,0.66,1.4,1.9v3.08h-0.78
			v-2.97c0-0.91-0.26-1.29-0.87-1.29c-0.47,0-0.79,0.25-1.25,0.75v3.52h-0.78V109.99z"/>
		<path style="fill:#231F20;" d="M427.58,114.69c0-1.58,1.01-2.56,2.06-2.56c1.17,0,1.83,0.89,1.83,2.28c0,0.17-0.01,0.35-0.04,0.47
			h-3.09c0.06,1.03,0.65,1.7,1.52,1.7c0.44,0,0.8-0.15,1.14-0.39l0.28,0.54c-0.4,0.28-0.89,0.5-1.51,0.5
			C428.55,117.23,427.58,116.29,427.58,114.69z M430.78,114.29c0-0.97-0.41-1.5-1.13-1.5c-0.64,0-1.22,0.55-1.31,1.5H430.78z"/>
		<path style="fill:#231F20;" d="M432.59,112.26h0.64l0.07,0.88h0.03c0.32-0.62,0.79-1,1.3-1c0.2,0,0.35,0.03,0.49,0.1l-0.14,0.72
			c-0.16-0.05-0.26-0.08-0.44-0.08c-0.39,0-0.85,0.3-1.16,1.12v3.12h-0.78V112.26z"/>
	</g>
</g>
<g>
	<g>
		<path style="fill:#231F20;" d="M306.28,164.87h3.71v0.98h-2.62v1.67h2.22v0.98h-2.22v1.93h2.71v0.98h-3.81V164.87z"/>
		<path style="fill:#231F20;" d="M310.96,173.32l0.2-0.89c0.09,0.03,0.22,0.07,0.33,0.07c0.49,0,0.77-0.35,0.92-0.84l0.09-0.31
			l-1.82-4.85h1.1l0.8,2.41c0.14,0.44,0.27,0.92,0.41,1.39h0.04c0.12-0.46,0.23-0.94,0.35-1.39l0.69-2.41h1.05l-1.67,5.13
			c-0.38,1.11-0.87,1.79-1.88,1.79C311.31,173.42,311.13,173.38,310.96,173.32z"/>
		<path style="fill:#231F20;" d="M315.63,168.95c0-1.6,1.04-2.58,2.13-2.58c1.25,0,1.91,0.96,1.91,2.33c0,0.22-0.02,0.44-0.05,0.56
			h-2.94c0.09,0.87,0.62,1.37,1.37,1.37c0.4,0,0.74-0.13,1.07-0.36l0.37,0.71c-0.44,0.32-1,0.53-1.59,0.53
			C316.63,171.52,315.63,170.57,315.63,168.95z M318.73,168.48c0-0.75-0.32-1.21-0.95-1.21c-0.54,0-1.01,0.43-1.11,1.21H318.73z"/>
		<path style="fill:#231F20;" d="M320.25,170.84l0.5-0.73c0.41,0.34,0.81,0.55,1.28,0.55c0.5,0,0.74-0.25,0.74-0.59
			c0-0.41-0.5-0.6-1-0.8c-0.61-0.24-1.3-0.61-1.3-1.43c0-0.85,0.65-1.47,1.69-1.47c0.64,0,1.16,0.28,1.54,0.59l-0.5,0.71
			c-0.32-0.25-0.65-0.43-1.01-0.43c-0.47,0-0.69,0.24-0.69,0.54c0,0.39,0.47,0.54,0.97,0.73c0.63,0.25,1.33,0.57,1.33,1.48
			c0,0.84-0.63,1.52-1.8,1.52C321.37,171.52,320.71,171.23,320.25,170.84z"/>
		<path style="fill:#231F20;" d="M324.69,167.33c0-0.45,0.31-0.78,0.7-0.78c0.4,0,0.7,0.33,0.7,0.78c0,0.44-0.31,0.78-0.7,0.78
			C324.99,168.1,324.69,167.77,324.69,167.33z M324.69,170.75c0-0.45,0.31-0.78,0.7-0.78c0.4,0,0.7,0.33,0.7,0.78
			c0,0.44-0.31,0.78-0.7,0.78C324.99,171.52,324.69,171.19,324.69,170.75z"/>
		<path style="fill:#231F20;" d="M330.71,165.55h-1.87v-0.71h4.53v0.71h-1.87v5.85h-0.79V165.55z"/>
		<path style="fill:#231F20;" d="M334.26,165.01c0-0.32,0.23-0.53,0.54-0.53s0.54,0.21,0.54,0.53c0,0.31-0.23,0.53-0.54,0.53
			S334.26,165.32,334.26,165.01z M334.4,166.54h0.78v4.86h-0.78V166.54z"/>
		<path style="fill:#231F20;" d="M336.37,172.33c0-0.42,0.25-0.81,0.67-1.1v-0.04c-0.23-0.15-0.41-0.42-0.41-0.8
			c0-0.4,0.27-0.72,0.5-0.9v-0.04c-0.3-0.25-0.59-0.72-0.59-1.3c0-1.06,0.79-1.73,1.72-1.73c0.25,0,0.48,0.05,0.65,0.12h1.6v0.63
			h-0.94c0.22,0.22,0.37,0.58,0.37,1c0,1.04-0.74,1.68-1.68,1.68c-0.22,0-0.48-0.06-0.68-0.17c-0.17,0.15-0.29,0.31-0.29,0.57
			c0,0.31,0.19,0.53,0.8,0.53h0.89c1.07,0,1.6,0.35,1.6,1.16c0,0.9-0.9,1.68-2.32,1.68C337.15,173.64,336.37,173.17,336.37,172.33z
			 M339.83,172.08c0-0.45-0.32-0.6-0.92-0.6h-0.79c-0.17,0-0.39-0.02-0.6-0.07c-0.33,0.25-0.47,0.54-0.47,0.81
			c0,0.52,0.5,0.85,1.33,0.85C339.25,173.07,339.83,172.59,339.83,172.08z M339.24,168.15c0-0.71-0.43-1.13-0.97-1.13
			s-0.97,0.42-0.97,1.13c0,0.71,0.45,1.16,0.97,1.16S339.24,168.86,339.24,168.15z"/>
		<path style="fill:#231F20;" d="M341.48,164.28h0.78v1.95l-0.03,1c0.43-0.44,0.89-0.8,1.52-0.8c0.97,0,1.4,0.66,1.4,1.9v3.08h-0.78
			v-2.97c0-0.91-0.26-1.29-0.87-1.29c-0.47,0-0.79,0.25-1.25,0.75v3.52h-0.78V164.28z"/>
		<path style="fill:#231F20;" d="M346.74,169.9v-2.69h-0.68v-0.62l0.72-0.05l0.09-1.36h0.65v1.36h1.24v0.67h-1.24v2.7
			c0,0.59,0.18,0.94,0.71,0.94c0.16,0,0.37-0.07,0.52-0.13l0.15,0.62c-0.26,0.09-0.56,0.18-0.85,0.18
			C347.07,171.52,346.74,170.87,346.74,169.9z"/>
		<path style="fill:#231F20;" d="M349.8,170.43v-6.14h0.78v6.2c0,0.25,0.1,0.35,0.22,0.35c0.04,0,0.08,0,0.17-0.02l0.1,0.63
			c-0.11,0.04-0.24,0.08-0.45,0.08C350.04,171.52,349.8,171.13,349.8,170.43z"/>
		<path style="fill:#231F20;" d="M351.74,173.4l0.15-0.66c0.09,0.03,0.23,0.07,0.35,0.07c0.52,0,0.84-0.44,1.03-1.04l0.1-0.36
			l-1.84-4.87h0.8l0.93,2.69c0.14,0.42,0.3,0.92,0.45,1.37h0.04c0.13-0.44,0.26-0.94,0.39-1.37l0.82-2.69h0.76L354,171.8
			c-0.32,0.96-0.8,1.69-1.72,1.69C352.07,173.5,351.89,173.46,351.74,173.4z"/>
		<path style="fill:#231F20;" d="M358.15,168.98c0-1.62,1.03-2.56,2.21-2.56c0.6,0,1.02,0.26,1.34,0.57l-0.4,0.54
			c-0.27-0.26-0.55-0.43-0.91-0.43c-0.83,0-1.44,0.76-1.44,1.87s0.58,1.86,1.42,1.86c0.42,0,0.79-0.22,1.08-0.48l0.34,0.55
			c-0.41,0.39-0.93,0.62-1.48,0.62C359.08,171.52,358.15,170.59,358.15,168.98z"/>
		<path style="fill:#231F20;" d="M362.8,170.43v-6.14h0.78v6.2c0,0.25,0.1,0.35,0.22,0.35c0.04,0,0.08,0,0.17-0.02l0.1,0.63
			c-0.11,0.04-0.24,0.08-0.45,0.08C363.04,171.52,362.8,171.13,362.8,170.43z"/>
		<path style="fill:#231F20;" d="M364.86,168.98c0-1.62,1-2.56,2.12-2.56c1.12,0,2.12,0.93,2.12,2.56c0,1.61-1,2.54-2.12,2.54
			C365.86,171.52,364.86,170.59,364.86,168.98z M368.31,168.98c0-1.11-0.53-1.87-1.32-1.87c-0.79,0-1.32,0.76-1.32,1.87
			s0.53,1.86,1.32,1.86C367.77,170.84,368.31,170.09,368.31,168.98z"/>
		<path style="fill:#231F20;" d="M369.81,170.85l0.38-0.54c0.4,0.34,0.8,0.58,1.35,0.58c0.6,0,0.9-0.34,0.9-0.75
			c0-0.5-0.54-0.72-1.05-0.92c-0.64-0.25-1.37-0.58-1.37-1.4c0-0.78,0.59-1.38,1.58-1.38c0.57,0,1.07,0.25,1.43,0.55l-0.37,0.53
			c-0.32-0.25-0.64-0.43-1.05-0.43c-0.58,0-0.84,0.33-0.84,0.7c0,0.46,0.5,0.64,1.02,0.84c0.66,0.26,1.4,0.55,1.4,1.47
			c0,0.79-0.59,1.44-1.67,1.44C370.87,171.52,370.24,171.23,369.81,170.85z"/>
		<path style="fill:#231F20;" d="M373.93,168.98c0-1.58,1.01-2.56,2.06-2.56c1.17,0,1.83,0.89,1.83,2.28c0,0.17-0.01,0.35-0.04,0.47
			h-3.09c0.06,1.03,0.65,1.7,1.52,1.7c0.44,0,0.8-0.15,1.14-0.39l0.28,0.54c-0.4,0.28-0.89,0.5-1.51,0.5
			C374.9,171.52,373.93,170.57,373.93,168.98z M377.13,168.58c0-0.97-0.41-1.5-1.13-1.5c-0.64,0-1.22,0.55-1.31,1.5H377.13z"/>
		<path style="fill:#231F20;" d="M378.62,168.98c0-1.58,0.94-2.56,1.98-2.56c0.53,0,0.88,0.21,1.29,0.56l-0.03-0.83v-1.87h0.78v7.12
			h-0.64l-0.07-0.57h-0.03c-0.36,0.38-0.84,0.69-1.39,0.69C379.36,171.52,378.62,170.6,378.62,168.98z M381.85,170.17v-2.55
			c-0.39-0.37-0.74-0.5-1.12-0.5c-0.73,0-1.32,0.75-1.32,1.86c0,1.17,0.46,1.86,1.26,1.86C381.1,170.83,381.47,170.61,381.85,170.17
			z"/>
	</g>
</g>
<g>
	<g>
		<path style="fill:#231F20;" d="M305.96,188.96c0-2.14,1.26-3.41,2.83-3.41c0.77,0,1.39,0.39,1.78,0.83l-0.58,0.75
			c-0.32-0.34-0.69-0.57-1.17-0.57c-1,0-1.72,0.9-1.72,2.37c0,1.49,0.66,2.39,1.7,2.39c0.55,0,0.97-0.27,1.32-0.67l0.58,0.73
			c-0.5,0.62-1.14,0.95-1.94,0.95C307.19,192.32,305.96,191.12,305.96,188.96z"/>
		<path style="fill:#231F20;" d="M311.62,185.14h1.09v1.83l-0.04,0.95c0.39-0.39,0.85-0.74,1.48-0.74c0.99,0,1.43,0.71,1.43,1.95
			v3.08h-1.09v-2.93c0-0.81-0.22-1.11-0.72-1.11c-0.41,0-0.68,0.21-1.06,0.61v3.43h-1.09V185.14z"/>
		<path style="fill:#231F20;" d="M316.58,189.75c0-1.6,1.04-2.58,2.13-2.58c1.25,0,1.91,0.96,1.91,2.33c0,0.22-0.02,0.44-0.05,0.56
			h-2.94c0.09,0.87,0.62,1.37,1.37,1.37c0.4,0,0.74-0.13,1.07-0.36l0.37,0.71c-0.44,0.32-1,0.53-1.59,0.53
			C317.58,192.32,316.58,191.37,316.58,189.75z M319.69,189.28c0-0.75-0.32-1.21-0.95-1.21c-0.54,0-1.01,0.43-1.11,1.21H319.69z"/>
		<path style="fill:#231F20;" d="M321.36,189.75c0-1.6,1.04-2.58,2.13-2.58c1.25,0,1.91,0.96,1.91,2.33c0,0.22-0.02,0.44-0.05,0.56
			h-2.94c0.09,0.87,0.62,1.37,1.37,1.37c0.4,0,0.74-0.13,1.07-0.36l0.37,0.71c-0.44,0.32-1,0.53-1.59,0.53
			C322.37,192.32,321.36,191.37,321.36,189.75z M324.47,189.28c0-0.75-0.32-1.21-0.95-1.21c-0.54,0-1.01,0.43-1.11,1.21H324.47z"/>
		<path style="fill:#231F20;" d="M326.45,185.14h1.06v4.41h0.03l1.72-2.26h1.19l-1.59,2l1.75,2.91h-1.18l-1.19-2.13l-0.72,0.88v1.25
			h-1.06V185.14z"/>
		<path style="fill:#231F20;" d="M330.92,191.64l0.5-0.73c0.41,0.34,0.81,0.55,1.28,0.55c0.5,0,0.74-0.25,0.74-0.59
			c0-0.41-0.5-0.6-1-0.8c-0.61-0.24-1.3-0.61-1.3-1.43c0-0.85,0.65-1.47,1.69-1.47c0.64,0,1.16,0.28,1.54,0.59l-0.5,0.71
			c-0.32-0.25-0.65-0.43-1.01-0.43c-0.47,0-0.69,0.24-0.69,0.54c0,0.39,0.47,0.54,0.97,0.73c0.63,0.25,1.33,0.57,1.33,1.48
			c0,0.84-0.63,1.52-1.8,1.52C332.04,192.32,331.37,192.03,330.92,191.64z"/>
		<path style="fill:#231F20;" d="M335.35,188.13c0-0.45,0.31-0.78,0.7-0.78c0.4,0,0.7,0.33,0.7,0.78c0,0.44-0.31,0.78-0.7,0.78
			C335.65,188.9,335.35,188.57,335.35,188.13z M335.35,191.55c0-0.45,0.31-0.78,0.7-0.78c0.4,0,0.7,0.33,0.7,0.78
			c0,0.44-0.31,0.78-0.7,0.78C335.65,192.32,335.35,191.99,335.35,191.55z"/>
		<path style="fill:#231F20;" d="M340.08,185.64h1.94c1.26,0,2.17,0.48,2.17,1.85c0,1.31-0.91,1.94-2.17,1.94h-1.15v2.77h-0.79
			V185.64z M341.9,188.75c0.96,0,1.49-0.41,1.49-1.26c0-0.86-0.53-1.17-1.49-1.17h-1.04v2.43H341.9z M341.86,189.2l0.62-0.43
			l1.89,3.43h-0.89L341.86,189.2z"/>
		<path style="fill:#231F20;" d="M345.09,190.94c0-1.06,0.86-1.59,2.82-1.81c0-0.63-0.2-1.23-0.95-1.23c-0.53,0-1.01,0.27-1.37,0.52
			l-0.3-0.56c0.42-0.29,1.06-0.63,1.8-0.63c1.12,0,1.59,0.79,1.59,2v2.98h-0.64l-0.07-0.58h-0.03c-0.44,0.39-0.95,0.7-1.52,0.7
			C345.67,192.32,345.09,191.82,345.09,190.94z M347.9,191.02v-1.35c-1.54,0.2-2.06,0.59-2.06,1.21c0,0.55,0.35,0.78,0.8,0.78
			C347.09,191.66,347.46,191.43,347.9,191.02z"/>
		<path style="fill:#231F20;" d="M349.99,185.81c0-0.32,0.23-0.53,0.54-0.53s0.54,0.21,0.54,0.53c0,0.31-0.23,0.53-0.54,0.53
			S349.99,186.12,349.99,185.81z M350.13,187.34h0.78v4.86h-0.78V187.34z"/>
		<path style="fill:#231F20;" d="M351.94,191.65l0.38-0.54c0.4,0.34,0.8,0.58,1.35,0.58c0.6,0,0.9-0.34,0.9-0.75
			c0-0.5-0.54-0.72-1.05-0.92c-0.64-0.25-1.37-0.58-1.37-1.4c0-0.78,0.59-1.38,1.58-1.38c0.57,0,1.07,0.25,1.43,0.55l-0.37,0.53
			c-0.32-0.25-0.64-0.43-1.05-0.43c-0.58,0-0.84,0.33-0.84,0.7c0,0.46,0.5,0.64,1.02,0.84c0.66,0.26,1.4,0.55,1.4,1.47
			c0,0.79-0.59,1.44-1.67,1.44C353,192.32,352.37,192.03,351.94,191.65z"/>
		<path style="fill:#231F20;" d="M356.06,189.78c0-1.58,1.01-2.56,2.06-2.56c1.17,0,1.83,0.89,1.83,2.28c0,0.17-0.01,0.35-0.04,0.47
			h-3.09c0.06,1.03,0.65,1.7,1.52,1.7c0.44,0,0.8-0.15,1.14-0.39l0.28,0.54c-0.4,0.28-0.89,0.5-1.51,0.5
			C357.03,192.32,356.06,191.37,356.06,189.78z M359.26,189.38c0-0.97-0.41-1.5-1.13-1.5c-0.64,0-1.22,0.55-1.31,1.5H359.26z"/>
		<path style="fill:#231F20;" d="M360.75,189.78c0-1.58,0.94-2.56,1.98-2.56c0.53,0,0.88,0.21,1.29,0.56l-0.03-0.83v-1.87h0.78v7.12
			h-0.64l-0.07-0.57h-0.03c-0.36,0.38-0.84,0.69-1.39,0.69C361.5,192.32,360.75,191.4,360.75,189.78z M363.99,190.97v-2.55
			c-0.39-0.37-0.74-0.5-1.12-0.5c-0.73,0-1.32,0.75-1.32,1.86c0,1.17,0.46,1.86,1.26,1.86C363.24,191.63,363.6,191.41,363.99,190.97
			z"/>
	</g>
</g>
<g>
	<g>
		<path style="fill:#231F20;" d="M306.28,207.06h1.12l1.92,3.67l0.64,1.4H310c-0.05-0.68-0.14-1.5-0.14-2.23v-2.84h1.04v6.54h-1.12
			l-1.92-3.68l-0.64-1.39h-0.04c0.05,0.69,0.14,1.48,0.14,2.21v2.86h-1.04V207.06z"/>
		<path style="fill:#231F20;" d="M312.07,211.14c0-1.64,1.05-2.58,2.2-2.58s2.2,0.94,2.2,2.58c0,1.63-1.05,2.57-2.2,2.57
			S312.07,212.77,312.07,211.14z M315.36,211.14c0-0.98-0.41-1.64-1.09-1.64c-0.68,0-1.09,0.66-1.09,1.64
			c0,0.98,0.41,1.63,1.09,1.63C314.95,212.77,315.36,212.12,315.36,211.14z"/>
		<path style="fill:#231F20;" d="M317.09,213.03l0.5-0.73c0.41,0.34,0.81,0.55,1.28,0.55c0.5,0,0.74-0.25,0.74-0.59
			c0-0.41-0.5-0.6-1-0.8c-0.61-0.24-1.3-0.61-1.3-1.43c0-0.85,0.65-1.47,1.69-1.47c0.64,0,1.16,0.28,1.54,0.59l-0.5,0.71
			c-0.32-0.25-0.65-0.43-1.01-0.43c-0.47,0-0.69,0.24-0.69,0.54c0,0.39,0.47,0.54,0.97,0.73c0.63,0.25,1.33,0.57,1.33,1.48
			c0,0.84-0.63,1.52-1.8,1.52C318.21,213.71,317.55,213.42,317.09,213.03z"/>
		<path style="fill:#231F20;" d="M321.32,211.14c0-1.6,1.04-2.58,2.13-2.58c1.25,0,1.91,0.96,1.91,2.33c0,0.22-0.02,0.44-0.05,0.56
			h-2.94c0.09,0.87,0.62,1.37,1.37,1.37c0.4,0,0.74-0.13,1.07-0.36l0.37,0.71c-0.44,0.32-1,0.53-1.59,0.53
			C322.32,213.71,321.32,212.76,321.32,211.14z M324.42,210.67c0-0.75-0.32-1.21-0.95-1.21c-0.54,0-1.01,0.43-1.11,1.21H324.42z"/>
		<path style="fill:#231F20;" d="M326.31,209.52c0-0.45,0.31-0.78,0.7-0.78c0.4,0,0.7,0.33,0.7,0.78c0,0.44-0.31,0.78-0.7,0.78
			C326.62,210.29,326.31,209.96,326.31,209.52z M326.31,212.94c0-0.45,0.31-0.78,0.7-0.78c0.4,0,0.7,0.33,0.7,0.78
			c0,0.44-0.31,0.78-0.7,0.78C326.62,213.71,326.31,213.38,326.31,212.94z"/>
		<path style="fill:#231F20;" d="M331.04,207.03h1.84c1.26,0,2.13,0.45,2.13,1.61c0,0.65-0.33,1.22-0.9,1.42v0.04
			c0.74,0.15,1.26,0.67,1.26,1.57c0,1.29-0.96,1.92-2.34,1.92h-1.98V207.03z M332.74,209.82c1.05,0,1.49-0.41,1.49-1.08
			c0-0.77-0.5-1.05-1.45-1.05h-0.95v2.13H332.74z M332.91,212.93c1.06,0,1.68-0.4,1.68-1.29c0-0.81-0.6-1.18-1.68-1.18h-1.08v2.47
			H332.91z"/>
		<path style="fill:#231F20;" d="M336.51,208.73h0.64l0.07,0.88h0.03c0.32-0.62,0.79-1,1.3-1c0.2,0,0.35,0.03,0.49,0.1l-0.14,0.72
			c-0.16-0.05-0.26-0.08-0.44-0.08c-0.39,0-0.85,0.3-1.16,1.12v3.12h-0.78V208.73z"/>
		<path style="fill:#231F20;" d="M339.45,211.17c0-1.62,1-2.56,2.12-2.56c1.12,0,2.12,0.93,2.12,2.56c0,1.61-1,2.54-2.12,2.54
			C340.45,213.71,339.45,212.78,339.45,211.17z M342.89,211.17c0-1.11-0.53-1.87-1.32-1.87c-0.79,0-1.32,0.76-1.32,1.87
			s0.53,1.86,1.32,1.86C342.36,213.03,342.89,212.28,342.89,211.17z"/>
		<path style="fill:#231F20;" d="M344.62,212.33c0-1.06,0.86-1.59,2.82-1.81c0-0.63-0.2-1.23-0.95-1.23c-0.53,0-1.01,0.27-1.37,0.52
			l-0.3-0.56c0.42-0.29,1.06-0.63,1.8-0.63c1.12,0,1.59,0.79,1.59,2v2.98h-0.64l-0.07-0.58h-0.03c-0.44,0.39-0.95,0.7-1.52,0.7
			C345.19,213.71,344.62,213.21,344.62,212.33z M347.43,212.41v-1.35c-1.54,0.2-2.06,0.59-2.06,1.21c0,0.55,0.35,0.78,0.8,0.78
			C346.62,213.05,346.99,212.82,347.43,212.41z"/>
		<path style="fill:#231F20;" d="M349.33,211.17c0-1.58,0.94-2.56,1.98-2.56c0.53,0,0.88,0.21,1.29,0.56l-0.03-0.83v-1.87h0.78v7.12
			h-0.64l-0.07-0.57h-0.03c-0.36,0.38-0.84,0.69-1.39,0.69C350.07,213.71,349.33,212.79,349.33,211.17z M352.56,212.36v-2.55
			c-0.39-0.37-0.74-0.5-1.12-0.5c-0.73,0-1.32,0.75-1.32,1.86c0,1.17,0.46,1.86,1.26,1.86C351.81,213.02,352.18,212.8,352.56,212.36
			z"/>
		<path style="fill:#231F20;" d="M354.55,211.17c0-1.58,1.01-2.56,2.06-2.56c1.17,0,1.83,0.89,1.83,2.28c0,0.17-0.01,0.35-0.04,0.47
			h-3.09c0.06,1.03,0.65,1.7,1.52,1.7c0.44,0,0.8-0.15,1.14-0.39l0.28,0.54c-0.4,0.28-0.89,0.5-1.51,0.5
			C355.52,213.71,354.55,212.76,354.55,211.17z M357.76,210.77c0-0.97-0.41-1.5-1.13-1.5c-0.64,0-1.22,0.55-1.31,1.5H357.76z"/>
		<path style="fill:#231F20;" d="M359.57,208.73h0.64l0.07,0.7h0.03c0.44-0.46,0.91-0.82,1.54-0.82c0.97,0,1.4,0.66,1.4,1.9v3.08
			h-0.78v-2.97c0-0.91-0.26-1.29-0.87-1.29c-0.47,0-0.79,0.25-1.25,0.75v3.52h-0.78V208.73z"/>
		<path style="fill:#231F20;" d="M364.39,211.17c0-1.58,1.01-2.56,2.06-2.56c1.17,0,1.83,0.89,1.83,2.28c0,0.17-0.01,0.35-0.04,0.47
			h-3.09c0.06,1.03,0.65,1.7,1.52,1.7c0.44,0,0.8-0.15,1.14-0.39l0.28,0.54c-0.4,0.28-0.89,0.5-1.51,0.5
			C365.36,213.71,364.39,212.76,364.39,211.17z M367.59,210.77c0-0.97-0.41-1.5-1.13-1.5c-0.64,0-1.22,0.55-1.31,1.5H367.59z"/>
		<path style="fill:#231F20;" d="M369.08,211.17c0-1.58,0.94-2.56,1.98-2.56c0.53,0,0.88,0.21,1.29,0.56l-0.03-0.83v-1.87h0.78v7.12
			h-0.64l-0.07-0.57h-0.03c-0.36,0.38-0.84,0.69-1.39,0.69C369.83,213.71,369.08,212.79,369.08,211.17z M372.32,212.36v-2.55
			c-0.39-0.37-0.74-0.5-1.12-0.5c-0.73,0-1.32,0.75-1.32,1.86c0,1.17,0.46,1.86,1.26,1.86C371.57,213.02,371.93,212.8,372.32,212.36
			z"/>
	</g>
</g>
<g>
	<g>
		<path style="fill:#231F20;" d="M306.28,231.12h1.12l1.92,3.67l0.64,1.4H310c-0.05-0.68-0.14-1.5-0.14-2.23v-2.84h1.04v6.54h-1.12
			l-1.92-3.68l-0.64-1.39h-0.04c0.05,0.69,0.14,1.48,0.14,2.21v2.86h-1.04V231.12z"/>
		<path style="fill:#231F20;" d="M312.13,236.34c0-1.05,0.82-1.6,2.72-1.82c-0.02-0.53-0.22-0.97-0.84-0.97
			c-0.46,0-0.89,0.22-1.3,0.48l-0.4-0.77c0.51-0.34,1.17-0.64,1.9-0.64c1.16,0,1.73,0.76,1.73,2.12v2.91h-0.89l-0.08-0.54h-0.03
			c-0.42,0.38-0.89,0.66-1.44,0.66C312.68,237.78,312.13,237.19,312.13,236.34z M314.85,236.34v-1.1c-1.26,0.17-1.67,0.52-1.67,1.01
			c0,0.43,0.28,0.62,0.67,0.62C314.22,236.88,314.51,236.68,314.85,236.34z"/>
		<path style="fill:#231F20;" d="M316.78,237.1l0.5-0.73c0.41,0.34,0.81,0.55,1.28,0.55c0.5,0,0.74-0.25,0.74-0.59
			c0-0.41-0.5-0.6-1-0.8c-0.61-0.24-1.3-0.61-1.3-1.43c0-0.85,0.65-1.47,1.69-1.47c0.64,0,1.16,0.28,1.54,0.59l-0.5,0.71
			c-0.32-0.25-0.65-0.43-1.01-0.43c-0.47,0-0.69,0.24-0.69,0.54c0,0.39,0.47,0.54,0.97,0.73c0.63,0.25,1.33,0.57,1.33,1.48
			c0,0.84-0.63,1.52-1.8,1.52C317.9,237.78,317.24,237.49,316.78,237.1z"/>
		<path style="fill:#231F20;" d="M321,235.21c0-1.64,1.05-2.58,2.2-2.58s2.2,0.94,2.2,2.58c0,1.63-1.05,2.57-2.2,2.57
			S321,236.84,321,235.21z M324.29,235.21c0-0.98-0.41-1.64-1.09-1.64c-0.68,0-1.09,0.66-1.09,1.64c0,0.98,0.41,1.63,1.09,1.63
			C323.88,236.84,324.29,236.19,324.29,235.21z"/>
		<path style="fill:#231F20;" d="M326.49,236.39v-5.8h1.09v5.86c0,0.28,0.12,0.38,0.23,0.38c0.05,0,0.09,0,0.17-0.02l0.14,0.86
			c-0.13,0.06-0.31,0.1-0.57,0.1C326.77,237.78,326.49,237.25,326.49,236.39z"/>
		<path style="fill:#231F20;" d="M328.79,236.34c0-1.05,0.82-1.6,2.72-1.82c-0.02-0.53-0.22-0.97-0.84-0.97
			c-0.46,0-0.89,0.22-1.3,0.48l-0.4-0.77c0.51-0.34,1.17-0.64,1.9-0.64c1.16,0,1.73,0.76,1.73,2.12v2.91h-0.89l-0.08-0.54h-0.03
			c-0.42,0.38-0.89,0.66-1.44,0.66C329.35,237.78,328.79,237.19,328.79,236.34z M331.52,236.34v-1.1c-1.26,0.17-1.67,0.52-1.67,1.01
			c0,0.43,0.28,0.62,0.67,0.62C330.89,236.88,331.17,236.68,331.52,236.34z"/>
		<path style="fill:#231F20;" d="M334.89,237.14h-0.03l-0.09,0.52h-0.86v-7.06H335v1.83l-0.03,0.82c0.39-0.36,0.86-0.61,1.34-0.61
			c1.16,0,1.83,0.98,1.83,2.49c0,1.68-0.95,2.66-1.98,2.66C335.73,237.78,335.28,237.55,334.89,237.14z M337.02,235.14
			c0-0.98-0.3-1.56-1.01-1.56c-0.33,0-0.66,0.18-1.01,0.55v2.29c0.32,0.3,0.66,0.41,0.93,0.41
			C336.54,236.83,337.02,236.25,337.02,235.14z"/>
		<path style="fill:#231F20;" d="M339.1,231.24c0-0.39,0.29-0.65,0.67-0.65s0.67,0.26,0.67,0.65c0,0.38-0.29,0.65-0.67,0.65
			S339.1,231.62,339.1,231.24z M339.22,232.75h1.09v4.91h-1.09V232.75z"/>
		<path style="fill:#231F20;" d="M341.45,236.34c0-1.05,0.82-1.6,2.72-1.82c-0.02-0.53-0.22-0.97-0.84-0.97
			c-0.46,0-0.89,0.22-1.3,0.48l-0.4-0.77c0.51-0.34,1.17-0.64,1.9-0.64c1.16,0,1.73,0.76,1.73,2.12v2.91h-0.89l-0.08-0.54h-0.03
			c-0.42,0.38-0.89,0.66-1.44,0.66C342,237.78,341.45,237.19,341.45,236.34z M344.17,236.34v-1.1c-1.26,0.17-1.67,0.52-1.67,1.01
			c0,0.43,0.28,0.62,0.67,0.62C343.54,236.88,343.83,236.68,344.17,236.34z"/>
		<path style="fill:#231F20;" d="M346.56,236.39v-5.8h1.09v5.86c0,0.28,0.12,0.38,0.23,0.38c0.05,0,0.09,0,0.17-0.02l0.14,0.86
			c-0.13,0.06-0.31,0.1-0.57,0.1C346.85,237.78,346.56,237.25,346.56,236.39z"/>
		<path style="fill:#231F20;" d="M350.57,232.8l0.68-0.05h1.93v0.92h-2.61V232.8z M351.19,232.24c0-1.02,0.44-1.76,1.54-1.76
			c0.34,0,0.64,0.08,0.85,0.17l-0.21,0.86c-0.17-0.08-0.34-0.12-0.5-0.12c-0.38,0-0.59,0.26-0.59,0.83v5.44h-1.09V232.24z"/>
		<path style="fill:#231F20;" d="M353.69,235.21c0-1.64,1.05-2.58,2.2-2.58s2.2,0.94,2.2,2.58c0,1.63-1.05,2.57-2.2,2.57
			S353.69,236.84,353.69,235.21z M356.98,235.21c0-0.98-0.41-1.64-1.09-1.64c-0.68,0-1.09,0.66-1.09,1.64
			c0,0.98,0.41,1.63,1.09,1.63C356.57,236.84,356.98,236.19,356.98,235.21z"/>
		<path style="fill:#231F20;" d="M359.17,236.39v-5.8h1.09v5.86c0,0.28,0.12,0.38,0.23,0.38c0.05,0,0.09,0,0.17-0.02l0.14,0.86
			c-0.13,0.06-0.31,0.1-0.57,0.1C359.46,237.78,359.17,237.25,359.17,236.39z"/>
		<path style="fill:#231F20;" d="M361.45,235.21c0-1.6,0.95-2.58,1.96-2.58c0.52,0,0.86,0.21,1.21,0.54l-0.04-0.79v-1.78h1.09v7.06
			h-0.89l-0.08-0.53h-0.03c-0.34,0.36-0.82,0.65-1.32,0.65C362.2,237.78,361.45,236.83,361.45,235.21z M364.58,236.28v-2.29
			c-0.32-0.3-0.63-0.41-0.94-0.41c-0.59,0-1.08,0.59-1.08,1.62c0,1.07,0.38,1.63,1.05,1.63
			C363.98,236.83,364.28,236.66,364.58,236.28z"/>
		<path style="fill:#231F20;" d="M366.96,233.58c0-0.45,0.31-0.78,0.7-0.78c0.4,0,0.7,0.33,0.7,0.78c0,0.44-0.31,0.78-0.7,0.78
			C367.26,234.36,366.96,234.03,366.96,233.58z M366.96,237c0-0.45,0.31-0.78,0.7-0.78c0.4,0,0.7,0.33,0.7,0.78
			c0,0.44-0.31,0.78-0.7,0.78C367.26,237.78,366.96,237.45,366.96,237z"/>
		<path style="fill:#231F20;" d="M371.69,231.1h1.55c1.9,0,2.92,1.17,2.92,3.26s-1.02,3.3-2.89,3.3h-1.58V231.1z M373.18,236.97
			c1.45,0,2.17-0.96,2.17-2.62s-0.72-2.57-2.17-2.57h-0.7v5.19H373.18z"/>
		<path style="fill:#231F20;" d="M377.08,235.24c0-1.58,1.01-2.56,2.06-2.56c1.17,0,1.83,0.89,1.83,2.28c0,0.17-0.01,0.35-0.04,0.47
			h-3.09c0.06,1.03,0.65,1.7,1.52,1.7c0.44,0,0.8-0.15,1.14-0.39l0.28,0.54c-0.4,0.28-0.89,0.5-1.51,0.5
			C378.05,237.78,377.08,236.83,377.08,235.24z M380.28,234.84c0-0.97-0.41-1.5-1.13-1.5c-0.64,0-1.22,0.55-1.31,1.5H380.28z"/>
		<path style="fill:#231F20;" d="M381.76,235.24c0-1.58,1.01-2.56,2.06-2.56c1.17,0,1.83,0.89,1.83,2.28c0,0.17-0.01,0.35-0.04,0.47
			h-3.09c0.06,1.03,0.65,1.7,1.52,1.7c0.44,0,0.8-0.15,1.14-0.39l0.28,0.54c-0.4,0.28-0.89,0.5-1.51,0.5
			C382.73,237.78,381.76,236.83,381.76,235.24z M384.96,234.84c0-0.97-0.41-1.5-1.13-1.5c-0.64,0-1.22,0.55-1.31,1.5H384.96z"/>
		<path style="fill:#231F20;" d="M386.78,232.8h0.64l0.07,0.56h0.03c0.41-0.36,0.93-0.68,1.46-0.68c1.18,0,1.82,0.97,1.82,2.48
			c0,1.66-0.94,2.62-1.99,2.62c-0.42,0-0.85-0.21-1.27-0.56l0.02,0.85v1.64h-0.78V232.8z M389.99,235.16c0-1.07-0.34-1.79-1.21-1.79
			c-0.39,0-0.78,0.23-1.23,0.66v2.55c0.42,0.37,0.81,0.5,1.12,0.5C389.43,237.09,389.99,236.36,389.99,235.16z"/>
		<path style="fill:#231F20;" d="M391.67,235.24c0-1.58,1.01-2.56,2.06-2.56c1.17,0,1.83,0.89,1.83,2.28c0,0.17-0.01,0.35-0.04,0.47
			h-3.09c0.06,1.03,0.65,1.7,1.52,1.7c0.44,0,0.8-0.15,1.14-0.39l0.28,0.54c-0.4,0.28-0.89,0.5-1.51,0.5
			C392.64,237.78,391.67,236.83,391.67,235.24z M394.88,234.84c0-0.97-0.41-1.5-1.13-1.5c-0.64,0-1.22,0.55-1.31,1.5H394.88z"/>
		<path style="fill:#231F20;" d="M396.69,232.8h0.64l0.07,0.7h0.03c0.44-0.46,0.91-0.82,1.54-0.82c0.97,0,1.4,0.66,1.4,1.9v3.08
			h-0.78v-2.97c0-0.91-0.26-1.29-0.87-1.29c-0.47,0-0.79,0.25-1.25,0.75v3.52h-0.78V232.8z"/>
		<path style="fill:#231F20;" d="M401.52,235.24c0-1.58,0.94-2.56,1.98-2.56c0.53,0,0.88,0.21,1.29,0.56l-0.03-0.83v-1.87h0.78v7.12
			h-0.64l-0.07-0.57h-0.03c-0.36,0.38-0.84,0.69-1.39,0.69C402.27,237.78,401.52,236.85,401.52,235.24z M404.76,236.42v-2.55
			c-0.39-0.37-0.74-0.5-1.12-0.5c-0.73,0-1.32,0.75-1.32,1.86c0,1.17,0.46,1.86,1.26,1.86
			C404.01,237.09,404.38,236.87,404.76,236.42z"/>
	</g>
</g>
<g>
	<g>
		<path style="fill:#231F20;" d="M306.28,252.76h1.24l1.09,3.19c0.14,0.42,0.26,0.86,0.4,1.28h0.04c0.14-0.43,0.25-0.87,0.39-1.28
			l1.07-3.19h1.24v6.54h-1v-2.99c0-0.6,0.09-1.47,0.14-2.08h-0.04l-0.5,1.52l-1.01,2.94h-0.65l-1.02-2.94l-0.49-1.52h-0.04
			c0.05,0.61,0.14,1.48,0.14,2.08v2.99h-0.99V252.76z"/>
		<path style="fill:#231F20;" d="M312.91,256.85c0-1.64,1.05-2.58,2.2-2.58s2.2,0.94,2.2,2.58c0,1.63-1.05,2.57-2.2,2.57
			S312.91,258.47,312.91,256.85z M316.2,256.85c0-0.98-0.41-1.64-1.09-1.64c-0.68,0-1.09,0.66-1.09,1.64c0,0.98,0.41,1.63,1.09,1.63
			C315.79,258.48,316.2,257.83,316.2,256.85z"/>
		<path style="fill:#231F20;" d="M318.34,257.47v-3.08h1.09v2.93c0,0.81,0.22,1.11,0.72,1.11c0.41,0,0.67-0.2,1.03-0.68v-3.36h1.09
			v4.91h-0.89l-0.08-0.72h-0.03c-0.41,0.51-0.86,0.84-1.49,0.84C318.77,259.42,318.34,258.71,318.34,257.47z"/>
		<path style="fill:#231F20;" d="M323.8,257.64v-2.34h-0.66v-0.86l0.72-0.05l0.13-1.34h0.9v1.34h1.18v0.92h-1.18v2.34
			c0,0.58,0.21,0.86,0.66,0.86c0.16,0,0.35-0.06,0.48-0.11l0.18,0.85c-0.25,0.09-0.58,0.18-0.95,0.18
			C324.2,259.42,323.8,258.7,323.8,257.64z"/>
		<path style="fill:#231F20;" d="M327.04,252.24h1.09v1.83l-0.04,0.95c0.39-0.39,0.85-0.74,1.48-0.74c0.99,0,1.43,0.71,1.43,1.95
			v3.08h-1.09v-2.93c0-0.81-0.22-1.11-0.72-1.11c-0.41,0-0.68,0.21-1.06,0.61v3.43h-1.09V252.24z"/>
		<path style="fill:#231F20;" d="M332.21,255.22c0-0.45,0.31-0.78,0.7-0.78c0.4,0,0.7,0.33,0.7,0.78c0,0.44-0.31,0.78-0.7,0.78
			C332.52,256,332.21,255.67,332.21,255.22z M332.21,258.64c0-0.45,0.31-0.78,0.7-0.78c0.4,0,0.7,0.33,0.7,0.78
			c0,0.44-0.31,0.78-0.7,0.78C332.52,259.42,332.21,259.09,332.21,258.64z"/>
		<path style="fill:#231F20;" d="M336.58,255.99c0-2.1,1.09-3.38,2.65-3.38c1.55,0,2.64,1.28,2.64,3.38c0,2.1-1.09,3.42-2.64,3.42
			C337.68,259.42,336.58,258.1,336.58,255.99z M341.06,255.99c0-1.63-0.73-2.64-1.83-2.64c-1.11,0-1.83,1.01-1.83,2.64
			c0,1.63,0.73,2.69,1.83,2.69C340.33,258.68,341.06,257.63,341.06,255.99z"/>
		<path style="fill:#231F20;" d="M343.14,254.44h0.64l0.07,0.56h0.03c0.41-0.36,0.93-0.68,1.46-0.68c1.18,0,1.82,0.97,1.82,2.48
			c0,1.66-0.94,2.62-1.99,2.62c-0.42,0-0.85-0.21-1.27-0.56l0.02,0.85v1.64h-0.78V254.44z M346.35,256.8c0-1.07-0.34-1.79-1.21-1.79
			c-0.39,0-0.78,0.23-1.23,0.66v2.55c0.42,0.37,0.81,0.5,1.12,0.5C345.79,258.72,346.35,258,346.35,256.8z"/>
		<path style="fill:#231F20;" d="M348.03,256.87c0-1.58,1.01-2.56,2.06-2.56c1.17,0,1.83,0.89,1.83,2.28c0,0.17-0.01,0.35-0.04,0.47
			h-3.09c0.06,1.03,0.65,1.7,1.52,1.7c0.44,0,0.8-0.15,1.14-0.39l0.28,0.54c-0.4,0.28-0.89,0.5-1.51,0.5
			C349,259.42,348.03,258.47,348.03,256.87z M351.24,256.48c0-0.97-0.41-1.5-1.13-1.5c-0.64,0-1.22,0.55-1.31,1.5H351.24z"/>
		<path style="fill:#231F20;" d="M353.05,254.44h0.64l0.07,0.7h0.03c0.44-0.46,0.91-0.82,1.54-0.82c0.97,0,1.4,0.66,1.4,1.9v3.08
			h-0.78v-2.97c0-0.91-0.26-1.29-0.87-1.29c-0.47,0-0.79,0.25-1.25,0.75v3.52h-0.78V254.44z"/>
		<path style="fill:#231F20;" d="M357.88,260.51c0.53-0.25,0.85-0.69,0.85-1.24l-0.08-0.74l0.38,0.6c-0.1,0.13-0.24,0.17-0.39,0.17
			c-0.3,0-0.56-0.2-0.56-0.57c0-0.36,0.27-0.57,0.58-0.57c0.41,0,0.66,0.37,0.66,0.96c0,0.86-0.47,1.54-1.24,1.87L357.88,260.51z"/>
		<path style="fill:#231F20;" d="M361.94,258.74l0.38-0.54c0.4,0.34,0.8,0.58,1.35,0.58c0.6,0,0.9-0.34,0.9-0.75
			c0-0.5-0.54-0.72-1.05-0.92c-0.64-0.25-1.37-0.58-1.37-1.4c0-0.78,0.59-1.38,1.58-1.38c0.57,0,1.07,0.25,1.43,0.55l-0.37,0.53
			c-0.32-0.25-0.64-0.43-1.05-0.43c-0.58,0-0.84,0.33-0.84,0.7c0,0.46,0.5,0.64,1.02,0.84c0.66,0.26,1.4,0.55,1.4,1.47
			c0,0.79-0.59,1.44-1.67,1.44C363,259.42,362.37,259.12,361.94,258.74z"/>
		<path style="fill:#231F20;" d="M369.31,259.62l0.03-0.88c-0.37,0.38-0.85,0.68-1.38,0.68c-1.15,0-1.89-0.92-1.89-2.54
			c0-1.58,0.94-2.56,1.98-2.56c0.53,0,0.9,0.21,1.31,0.58h0.03l0.07-0.46h0.62v6.91h-0.78V259.62z M369.31,258.06v-2.55
			c-0.39-0.37-0.74-0.5-1.12-0.5c-0.73,0-1.32,0.75-1.32,1.86c0,1.17,0.46,1.86,1.26,1.86
			C368.56,258.72,368.92,258.51,369.31,258.06z"/>
		<path style="fill:#231F20;" d="M371.57,257.52v-3.08h0.78v2.97c0,0.9,0.26,1.29,0.87,1.29c0.47,0,0.79-0.25,1.23-0.82v-3.45h0.78
			v4.86h-0.64l-0.07-0.76h-0.03c-0.42,0.53-0.88,0.88-1.51,0.88C372.01,259.42,371.57,258.76,371.57,257.52z"/>
		<path style="fill:#231F20;" d="M376.48,258.04c0-1.06,0.86-1.59,2.82-1.81c0-0.63-0.2-1.23-0.95-1.23c-0.53,0-1.01,0.27-1.37,0.52
			l-0.3-0.56c0.42-0.29,1.06-0.63,1.8-0.63c1.12,0,1.59,0.79,1.59,2v2.98h-0.64l-0.07-0.58h-0.03c-0.44,0.39-0.95,0.7-1.52,0.7
			C377.06,259.42,376.48,258.91,376.48,258.04z M379.3,258.11v-1.35c-1.54,0.2-2.06,0.59-2.06,1.21c0,0.55,0.35,0.78,0.8,0.78
			C378.49,258.76,378.85,258.53,379.3,258.11z"/>
		<path style="fill:#231F20;" d="M381.52,254.44h0.64l0.07,0.88h0.03c0.32-0.62,0.79-1,1.3-1c0.2,0,0.35,0.03,0.49,0.1l-0.14,0.72
			c-0.16-0.05-0.26-0.08-0.44-0.08c-0.39,0-0.85,0.3-1.16,1.12v3.12h-0.78V254.44z"/>
		<path style="fill:#231F20;" d="M384.65,252.91c0-0.32,0.23-0.53,0.54-0.53s0.54,0.21,0.54,0.53c0,0.31-0.23,0.53-0.54,0.53
			S384.65,253.22,384.65,252.91z M384.79,254.44h0.78v4.86h-0.78V254.44z"/>
		<path style="fill:#231F20;" d="M386.61,258.74l0.38-0.54c0.4,0.34,0.8,0.58,1.35,0.58c0.6,0,0.9-0.34,0.9-0.75
			c0-0.5-0.54-0.72-1.05-0.92c-0.64-0.25-1.37-0.58-1.37-1.4c0-0.78,0.59-1.38,1.58-1.38c0.57,0,1.07,0.25,1.43,0.55l-0.37,0.53
			c-0.32-0.25-0.64-0.43-1.05-0.43c-0.58,0-0.84,0.33-0.84,0.7c0,0.46,0.5,0.64,1.02,0.84c0.66,0.26,1.4,0.55,1.4,1.47
			c0,0.79-0.59,1.44-1.67,1.44C387.67,259.42,387.04,259.12,386.61,258.74z"/>
		<path style="fill:#231F20;" d="M391.07,252.18h0.78v1.95l-0.03,1c0.43-0.44,0.89-0.8,1.52-0.8c0.97,0,1.4,0.66,1.4,1.9v3.08h-0.78
			v-2.97c0-0.91-0.26-1.29-0.87-1.29c-0.47,0-0.79,0.25-1.25,0.75v3.52h-0.78V252.18z"/>
	</g>
</g>
<g>
	<g>
		<path style="fill:#231F20;" d="M306.28,132.84h3.73v0.98h-2.63v1.85h2.24v0.98h-2.24v2.73h-1.09V132.84z"/>
		<path style="fill:#231F20;" d="M310.69,136.93c0-1.64,1.05-2.58,2.2-2.58s2.2,0.94,2.2,2.58c0,1.63-1.05,2.57-2.2,2.57
			S310.69,138.56,310.69,136.93z M313.98,136.93c0-0.98-0.41-1.64-1.09-1.64c-0.68,0-1.09,0.66-1.09,1.64
			c0,0.98,0.41,1.63,1.09,1.63C313.57,138.56,313.98,137.91,313.98,136.93z"/>
		<path style="fill:#231F20;" d="M316.18,134.47h0.89l0.08,0.88h0.03c0.33-0.64,0.82-1,1.32-1c0.24,0,0.38,0.03,0.52,0.1l-0.19,1
			c-0.16-0.05-0.28-0.08-0.48-0.08c-0.37,0-0.81,0.27-1.09,1.02v2.99h-1.09V134.47z"/>
		<path style="fill:#231F20;" d="M319.39,136.93c0-1.6,1.04-2.58,2.13-2.58c1.25,0,1.91,0.96,1.91,2.33c0,0.22-0.02,0.44-0.05,0.56
			h-2.94c0.09,0.87,0.62,1.37,1.37,1.37c0.4,0,0.74-0.13,1.07-0.36l0.37,0.71c-0.44,0.32-1,0.53-1.59,0.53
			C320.39,139.5,319.39,138.55,319.39,136.93z M322.5,136.46c0-0.75-0.32-1.21-0.95-1.21c-0.54,0-1.01,0.43-1.11,1.21H322.5z"/>
		<path style="fill:#231F20;" d="M324.48,132.32h1.09v1.83l-0.04,0.95c0.39-0.39,0.85-0.74,1.48-0.74c0.99,0,1.43,0.71,1.43,1.95
			v3.08h-1.09v-2.93c0-0.81-0.22-1.11-0.72-1.11c-0.41,0-0.68,0.21-1.06,0.61v3.43h-1.09V132.32z"/>
		<path style="fill:#231F20;" d="M329.44,136.93c0-1.6,1.04-2.58,2.13-2.58c1.25,0,1.91,0.96,1.91,2.33c0,0.22-0.02,0.44-0.05,0.56
			h-2.94c0.09,0.87,0.62,1.37,1.37,1.37c0.4,0,0.74-0.13,1.07-0.36l0.37,0.71c-0.44,0.32-1,0.53-1.59,0.53
			C330.44,139.5,329.44,138.55,329.44,136.93z M332.54,136.46c0-0.75-0.32-1.21-0.95-1.21c-0.54,0-1.01,0.43-1.11,1.21H332.54z"/>
		<path style="fill:#231F20;" d="M334.28,138.06c0-1.05,0.82-1.6,2.72-1.82c-0.02-0.53-0.22-0.97-0.84-0.97
			c-0.46,0-0.89,0.22-1.3,0.48l-0.4-0.77c0.51-0.34,1.17-0.64,1.9-0.64c1.16,0,1.73,0.76,1.73,2.12v2.91h-0.89l-0.08-0.54h-0.03
			c-0.42,0.38-0.89,0.66-1.44,0.66C334.83,139.5,334.28,138.92,334.28,138.06z M337,138.06v-1.1c-1.26,0.17-1.67,0.52-1.67,1.01
			c0,0.43,0.28,0.62,0.67,0.62C336.37,138.6,336.66,138.4,337,138.06z"/>
		<path style="fill:#231F20;" d="M339.11,136.93c0-1.6,0.95-2.58,1.96-2.58c0.52,0,0.86,0.21,1.21,0.54l-0.04-0.79v-1.78h1.09v7.06
			h-0.89l-0.08-0.53h-0.03c-0.34,0.36-0.82,0.65-1.32,0.65C339.86,139.5,339.11,138.55,339.11,136.93z M342.24,138v-2.29
			c-0.32-0.3-0.63-0.41-0.94-0.41c-0.59,0-1.08,0.59-1.08,1.62c0,1.07,0.38,1.63,1.05,1.63C341.64,138.55,341.94,138.38,342.24,138z
			"/>
		<path style="fill:#231F20;" d="M344.62,135.31c0-0.45,0.31-0.78,0.7-0.78c0.4,0,0.7,0.33,0.7,0.78c0,0.44-0.31,0.78-0.7,0.78
			C344.92,136.08,344.62,135.75,344.62,135.31z M344.62,138.72c0-0.45,0.31-0.78,0.7-0.78c0.4,0,0.7,0.33,0.7,0.78
			c0,0.44-0.31,0.78-0.7,0.78C344.92,139.5,344.62,139.17,344.62,138.72z"/>
		<path style="fill:#231F20;" d="M349.35,132.82h1.84c1.26,0,2.13,0.45,2.13,1.61c0,0.65-0.33,1.22-0.9,1.42v0.04
			c0.74,0.15,1.26,0.67,1.26,1.57c0,1.29-0.96,1.92-2.34,1.92h-1.98V132.82z M351.05,135.61c1.05,0,1.49-0.41,1.49-1.08
			c0-0.77-0.5-1.05-1.45-1.05h-0.95v2.13H351.05z M351.21,138.72c1.06,0,1.68-0.4,1.68-1.29c0-0.81-0.6-1.18-1.68-1.18h-1.08v2.47
			H351.21z"/>
		<path style="fill:#231F20;" d="M354.76,137.6v-3.08h0.78v2.97c0,0.9,0.26,1.29,0.87,1.29c0.47,0,0.79-0.25,1.23-0.82v-3.45h0.78
			v4.86h-0.64l-0.07-0.76h-0.03c-0.42,0.53-0.88,0.88-1.51,0.88C355.2,139.5,354.76,138.84,354.76,137.6z"/>
		<path style="fill:#231F20;" d="M359.96,138.4v-6.14h0.78v6.2c0,0.25,0.1,0.35,0.22,0.35c0.04,0,0.08,0,0.17-0.02l0.1,0.63
			c-0.11,0.04-0.24,0.08-0.45,0.08C360.2,139.5,359.96,139.11,359.96,138.4z"/>
		<path style="fill:#231F20;" d="M362.04,136.96c0-1.58,0.94-2.56,1.98-2.56c0.53,0,0.88,0.21,1.29,0.56l-0.03-0.83v-1.87h0.78v7.12
			h-0.64l-0.07-0.57h-0.03c-0.36,0.38-0.84,0.69-1.39,0.69C362.78,139.5,362.04,138.58,362.04,136.96z M365.27,138.15v-2.55
			c-0.39-0.37-0.74-0.5-1.12-0.5c-0.73,0-1.32,0.75-1.32,1.86c0,1.17,0.46,1.86,1.26,1.86
			C364.52,138.81,364.89,138.59,365.27,138.15z"/>
		<path style="fill:#231F20;" d="M367.25,140.31c0-0.42,0.25-0.81,0.67-1.1v-0.04c-0.23-0.15-0.41-0.42-0.41-0.8
			c0-0.4,0.27-0.72,0.5-0.9v-0.04c-0.3-0.25-0.59-0.72-0.59-1.3c0-1.06,0.79-1.73,1.72-1.73c0.25,0,0.48,0.05,0.65,0.12h1.6v0.63
			h-0.94c0.22,0.22,0.37,0.58,0.37,1c0,1.04-0.74,1.68-1.68,1.68c-0.22,0-0.48-0.06-0.68-0.17c-0.17,0.15-0.29,0.31-0.29,0.57
			c0,0.31,0.19,0.53,0.8,0.53h0.89c1.07,0,1.6,0.35,1.6,1.16c0,0.9-0.9,1.68-2.32,1.68C368.02,141.62,367.25,141.15,367.25,140.31z
			 M370.71,140.06c0-0.45-0.32-0.6-0.92-0.6h-0.79c-0.17,0-0.39-0.02-0.6-0.07c-0.33,0.25-0.47,0.54-0.47,0.81
			c0,0.52,0.5,0.85,1.33,0.85C370.13,141.05,370.71,140.57,370.71,140.06z M370.12,136.13c0-0.71-0.43-1.13-0.97-1.13
			s-0.97,0.42-0.97,1.13c0,0.71,0.45,1.16,0.97,1.16S370.12,136.84,370.12,136.13z"/>
		<path style="fill:#231F20;" d="M372.01,136.96c0-1.58,1.01-2.56,2.06-2.56c1.17,0,1.83,0.89,1.83,2.28c0,0.17-0.01,0.35-0.04,0.47
			h-3.09c0.06,1.03,0.65,1.7,1.52,1.7c0.44,0,0.8-0.15,1.14-0.39l0.28,0.54c-0.4,0.28-0.89,0.5-1.51,0.5
			C372.98,139.5,372.01,138.55,372.01,136.96z M375.22,136.56c0-0.97-0.41-1.5-1.13-1.5c-0.64,0-1.22,0.55-1.31,1.5H375.22z"/>
		<path style="fill:#231F20;" d="M379.64,138.88h-0.03l-0.07,0.5h-0.62v-7.12h0.78v1.95l-0.03,0.87c0.42-0.38,0.93-0.68,1.44-0.68
			c1.18,0,1.82,0.97,1.82,2.47c0,1.66-0.94,2.63-1.99,2.63C380.52,139.5,380.04,139.27,379.64,138.88z M382.13,136.88
			c0-1.07-0.34-1.79-1.21-1.79c-0.39,0-0.79,0.23-1.23,0.66v2.55c0.4,0.37,0.81,0.5,1.12,0.5
			C381.57,138.81,382.13,138.08,382.13,136.88z"/>
		<path style="fill:#231F20;" d="M383.79,136.96c0-1.58,1.01-2.56,2.06-2.56c1.17,0,1.83,0.89,1.83,2.28c0,0.17-0.01,0.35-0.04,0.47
			h-3.09c0.06,1.03,0.65,1.7,1.52,1.7c0.44,0,0.8-0.15,1.14-0.39l0.28,0.54c-0.4,0.28-0.89,0.5-1.51,0.5
			C384.77,139.5,383.79,138.55,383.79,136.96z M387,136.56c0-0.97-0.41-1.5-1.13-1.5c-0.64,0-1.22,0.55-1.31,1.5H387z"/>
		<path style="fill:#231F20;" d="M388.95,137.88v-2.69h-0.68v-0.62l0.72-0.05l0.09-1.36h0.65v1.36h1.24v0.67h-1.24v2.7
			c0,0.59,0.18,0.94,0.71,0.94c0.16,0,0.37-0.07,0.52-0.13l0.15,0.62c-0.26,0.09-0.56,0.18-0.85,0.18
			C389.28,139.5,388.95,138.84,388.95,137.88z"/>
		<path style="fill:#231F20;" d="M391.46,134.52h0.79l0.68,2.81c0.1,0.46,0.18,0.9,0.27,1.35h0.04c0.1-0.46,0.2-0.9,0.31-1.35
			l0.71-2.81h0.76l0.71,2.81c0.11,0.46,0.21,0.9,0.32,1.35h0.04c0.1-0.46,0.18-0.89,0.28-1.35l0.67-2.81h0.74l-1.23,4.86h-0.94
			l-0.66-2.61c-0.11-0.46-0.2-0.91-0.31-1.4h-0.04c-0.1,0.49-0.19,0.95-0.31,1.41l-0.64,2.6h-0.91L391.46,134.52z"/>
		<path style="fill:#231F20;" d="M398.43,136.96c0-1.58,1.01-2.56,2.06-2.56c1.17,0,1.83,0.89,1.83,2.28c0,0.17-0.01,0.35-0.04,0.47
			h-3.09c0.06,1.03,0.65,1.7,1.52,1.7c0.44,0,0.8-0.15,1.14-0.39l0.28,0.54c-0.4,0.28-0.89,0.5-1.51,0.5
			C399.41,139.5,398.43,138.55,398.43,136.96z M401.64,136.56c0-0.97-0.41-1.5-1.13-1.5c-0.64,0-1.22,0.55-1.31,1.5H401.64z"/>
		<path style="fill:#231F20;" d="M403.11,136.96c0-1.58,1.01-2.56,2.06-2.56c1.17,0,1.83,0.89,1.83,2.28c0,0.17-0.01,0.35-0.04,0.47
			h-3.09c0.06,1.03,0.65,1.7,1.52,1.7c0.44,0,0.8-0.15,1.14-0.39l0.28,0.54c-0.4,0.28-0.89,0.5-1.51,0.5
			C404.09,139.5,403.11,138.55,403.11,136.96z M406.32,136.56c0-0.97-0.41-1.5-1.13-1.5c-0.64,0-1.22,0.55-1.31,1.5H406.32z"/>
		<path style="fill:#231F20;" d="M408.13,134.52h0.64l0.07,0.7h0.03c0.44-0.46,0.91-0.82,1.54-0.82c0.97,0,1.4,0.66,1.4,1.9v3.08
			h-0.78v-2.97c0-0.91-0.26-1.29-0.87-1.29c-0.47,0-0.79,0.25-1.25,0.75v3.52h-0.78V134.52z"/>
		<path style="fill:#231F20;" d="M415.9,138.88h-0.03l-0.07,0.5h-0.62v-7.12h0.78v1.95l-0.03,0.87c0.42-0.38,0.93-0.68,1.44-0.68
			c1.18,0,1.82,0.97,1.82,2.47c0,1.66-0.94,2.63-1.99,2.63C416.78,139.5,416.3,139.27,415.9,138.88z M418.39,136.88
			c0-1.07-0.34-1.79-1.21-1.79c-0.39,0-0.79,0.23-1.23,0.66v2.55c0.4,0.37,0.81,0.5,1.12,0.5
			C417.83,138.81,418.39,138.08,418.39,136.88z"/>
		<path style="fill:#231F20;" d="M420.4,134.52h0.64l0.07,0.88h0.03c0.32-0.62,0.79-1,1.3-1c0.2,0,0.35,0.03,0.49,0.1l-0.14,0.72
			c-0.16-0.05-0.26-0.08-0.44-0.08c-0.39,0-0.85,0.3-1.16,1.12v3.12h-0.78V134.52z"/>
		<path style="fill:#231F20;" d="M423.33,136.96c0-1.62,1-2.56,2.12-2.56c1.12,0,2.12,0.93,2.12,2.56c0,1.61-1,2.54-2.12,2.54
			C424.33,139.5,423.33,138.57,423.33,136.96z M426.78,136.96c0-1.11-0.53-1.87-1.32-1.87c-0.79,0-1.32,0.76-1.32,1.87
			s0.53,1.86,1.32,1.86C426.24,138.82,426.78,138.07,426.78,136.96z"/>
		<path style="fill:#231F20;" d="M428.24,134.52h0.79l0.68,2.81c0.1,0.46,0.18,0.9,0.27,1.35h0.04c0.1-0.46,0.2-0.9,0.31-1.35
			l0.71-2.81h0.76l0.71,2.81c0.11,0.46,0.21,0.9,0.32,1.35h0.04c0.1-0.46,0.18-0.89,0.28-1.35l0.67-2.81h0.74l-1.23,4.86h-0.94
			l-0.66-2.61c-0.11-0.46-0.2-0.91-0.31-1.4h-0.04c-0.1,0.49-0.19,0.95-0.31,1.41l-0.64,2.6h-0.91L428.24,134.52z"/>
		<path style="fill:#231F20;" d="M435.05,138.83l0.38-0.54c0.4,0.34,0.8,0.58,1.35,0.58c0.6,0,0.9-0.34,0.9-0.75
			c0-0.5-0.54-0.72-1.05-0.92c-0.64-0.25-1.37-0.58-1.37-1.4c0-0.78,0.59-1.38,1.58-1.38c0.57,0,1.07,0.25,1.43,0.55l-0.37,0.53
			c-0.32-0.25-0.64-0.43-1.05-0.43c-0.58,0-0.84,0.33-0.84,0.7c0,0.46,0.5,0.64,1.02,0.84c0.66,0.26,1.4,0.55,1.4,1.47
			c0,0.79-0.59,1.44-1.67,1.44C436.11,139.5,435.48,139.21,435.05,138.83z"/>
		<path style="fill:#231F20;" d="M439.18,140.59c0.53-0.25,0.85-0.69,0.85-1.24l-0.08-0.74l0.38,0.6c-0.1,0.13-0.24,0.17-0.39,0.17
			c-0.3,0-0.56-0.2-0.56-0.57c0-0.36,0.27-0.57,0.58-0.57c0.41,0,0.66,0.37,0.66,0.96c0,0.86-0.47,1.54-1.24,1.87L439.18,140.59z"/>
		<path style="fill:#231F20;" d="M305.61,146.52h0.8l0.87,2.76c0.14,0.47,0.29,0.97,0.42,1.43h0.04c0.14-0.46,0.29-0.96,0.42-1.43
			l0.87-2.76h0.76l-1.62,4.86h-0.9L305.61,146.52z"/>
		<path style="fill:#231F20;" d="M310.33,148.96c0-1.58,1.01-2.56,2.06-2.56c1.17,0,1.83,0.89,1.83,2.28c0,0.17-0.01,0.35-0.04,0.47
			h-3.09c0.06,1.03,0.65,1.7,1.52,1.7c0.44,0,0.8-0.15,1.14-0.39l0.28,0.54c-0.4,0.28-0.89,0.5-1.51,0.5
			C311.31,151.5,310.33,150.55,310.33,148.96z M313.54,148.56c0-0.97-0.41-1.5-1.13-1.5c-0.64,0-1.22,0.55-1.31,1.5H313.54z"/>
		<path style="fill:#231F20;" d="M315.35,146.52H316l0.07,0.88h0.03c0.32-0.62,0.79-1,1.3-1c0.2,0,0.35,0.03,0.49,0.1l-0.14,0.72
			c-0.16-0.05-0.26-0.08-0.44-0.08c-0.39,0-0.85,0.3-1.16,1.12v3.12h-0.78V146.52z"/>
		<path style="fill:#231F20;" d="M318.76,149.88v-2.69h-0.68v-0.62l0.72-0.05l0.09-1.36h0.65v1.36h1.24v0.67h-1.24v2.7
			c0,0.59,0.18,0.94,0.71,0.94c0.16,0,0.37-0.07,0.52-0.13l0.15,0.62c-0.26,0.09-0.56,0.18-0.85,0.18
			C319.09,151.5,318.76,150.84,318.76,149.88z"/>
		<path style="fill:#231F20;" d="M321.67,144.99c0-0.32,0.23-0.53,0.54-0.53s0.54,0.21,0.54,0.53c0,0.31-0.23,0.53-0.54,0.53
			S321.67,145.3,321.67,144.99z M321.82,146.52h0.78v4.86h-0.78V146.52z"/>
		<path style="fill:#231F20;" d="M323.8,148.96c0-1.62,1.03-2.56,2.21-2.56c0.6,0,1.02,0.26,1.34,0.57l-0.4,0.54
			c-0.27-0.26-0.55-0.43-0.91-0.43c-0.83,0-1.44,0.76-1.44,1.87s0.58,1.86,1.42,1.86c0.42,0,0.79-0.22,1.08-0.48l0.34,0.55
			c-0.41,0.39-0.93,0.62-1.48,0.62C324.73,151.5,323.8,150.57,323.8,148.96z"/>
		<path style="fill:#231F20;" d="M328.15,150.12c0-1.06,0.86-1.59,2.82-1.81c0-0.63-0.2-1.23-0.95-1.23c-0.53,0-1.01,0.27-1.37,0.52
			l-0.3-0.56c0.42-0.29,1.06-0.63,1.8-0.63c1.12,0,1.59,0.79,1.59,2v2.98h-0.64l-0.07-0.58h-0.03c-0.44,0.39-0.95,0.7-1.52,0.7
			C328.73,151.5,328.15,150.99,328.15,150.12z M330.97,150.19v-1.35c-1.54,0.2-2.06,0.59-2.06,1.21c0,0.55,0.35,0.78,0.8,0.78
			C330.16,150.84,330.53,150.61,330.97,150.19z"/>
		<path style="fill:#231F20;" d="M333.19,150.4v-6.14h0.78v6.2c0,0.25,0.1,0.35,0.22,0.35c0.04,0,0.08,0,0.17-0.02l0.1,0.63
			c-0.11,0.04-0.24,0.08-0.45,0.08C333.43,151.5,333.19,151.11,333.19,150.4z"/>
		<path style="fill:#231F20;" d="M336.99,146.57l0.66-0.05h1.71v0.67h-2.37V146.57z M337.61,145.75c0-0.99,0.42-1.61,1.34-1.61
			c0.28,0,0.55,0.07,0.76,0.17l-0.16,0.63c-0.17-0.08-0.36-0.13-0.52-0.13c-0.43,0-0.65,0.32-0.65,0.95v5.62h-0.78V145.75z"/>
		<path style="fill:#231F20;" d="M340.18,149.6v-3.08h0.78v2.97c0,0.9,0.26,1.29,0.87,1.29c0.47,0,0.79-0.25,1.23-0.82v-3.45h0.78
			v4.86h-0.64l-0.07-0.76h-0.03c-0.42,0.53-0.88,0.88-1.51,0.88C340.61,151.5,340.18,150.84,340.18,149.6z"/>
		<path style="fill:#231F20;" d="M345.37,146.52h0.64l0.07,0.88h0.03c0.32-0.62,0.79-1,1.3-1c0.2,0,0.35,0.03,0.49,0.1l-0.14,0.72
			c-0.16-0.05-0.26-0.08-0.44-0.08c-0.39,0-0.85,0.3-1.16,1.12v3.12h-0.78V146.52z"/>
		<path style="fill:#231F20;" d="M348.65,146.52h0.64l0.07,0.88h0.03c0.32-0.62,0.79-1,1.3-1c0.2,0,0.35,0.03,0.49,0.1l-0.14,0.72
			c-0.16-0.05-0.26-0.08-0.44-0.08c-0.39,0-0.85,0.3-1.16,1.12v3.12h-0.78V146.52z"/>
		<path style="fill:#231F20;" d="M351.58,148.96c0-1.62,1-2.56,2.12-2.56c1.12,0,2.12,0.93,2.12,2.56c0,1.61-1,2.54-2.12,2.54
			C352.58,151.5,351.58,150.57,351.58,148.96z M355.03,148.96c0-1.11-0.53-1.87-1.32-1.87c-0.79,0-1.32,0.76-1.32,1.87
			s0.53,1.86,1.32,1.86C354.49,150.82,355.03,150.07,355.03,148.96z"/>
		<path style="fill:#231F20;" d="M356.48,146.52h0.79l0.68,2.81c0.1,0.46,0.18,0.9,0.27,1.35h0.04c0.1-0.46,0.2-0.9,0.31-1.35
			l0.71-2.81h0.76l0.71,2.81c0.11,0.46,0.21,0.9,0.32,1.35h0.04c0.1-0.46,0.18-0.89,0.28-1.35l0.67-2.81h0.74l-1.23,4.86h-0.95
			l-0.66-2.61c-0.11-0.46-0.2-0.91-0.31-1.4h-0.04c-0.1,0.49-0.19,0.95-0.32,1.41l-0.64,2.6h-0.91L356.48,146.52z"/>
		<path style="fill:#231F20;" d="M363.3,150.83l0.38-0.54c0.4,0.34,0.8,0.58,1.35,0.58c0.6,0,0.9-0.34,0.9-0.75
			c0-0.5-0.54-0.72-1.05-0.92c-0.64-0.25-1.37-0.58-1.37-1.4c0-0.78,0.59-1.38,1.58-1.38c0.57,0,1.07,0.25,1.43,0.55l-0.37,0.53
			c-0.32-0.25-0.64-0.43-1.05-0.43c-0.58,0-0.84,0.33-0.84,0.7c0,0.46,0.5,0.64,1.02,0.84c0.66,0.26,1.4,0.55,1.4,1.47
			c0,0.79-0.59,1.44-1.67,1.44C364.36,151.5,363.73,151.21,363.3,150.83z"/>
	</g>
</g>
</svg>
