<?xml version="1.0" encoding="utf-8"?>
<!-- Generator: Adobe Illustrator 24.1.1, SVG Export Plug-In . SVG Version: 6.00 Build 0)  -->
<svg version="1.1" id="Layer_1" xmlns="http://www.w3.org/2000/svg" xmlns:xlink="http://www.w3.org/1999/xlink" x="0px" y="0px"
	 viewBox="0 0 453.54 343.08" style="enable-background:new 0 0 453.54 343.08;" xml:space="preserve">
<path style="fill:none;stroke:#939598;stroke-width:0.5;stroke-linejoin:round;" d="M299.06,82.8h-72.93
	c-0.73,50.92-0.73,50.92-0.73,50.92"/>
<path style="fill:none;stroke:#939598;stroke-width:0.5;stroke-linejoin:round;" d="M299.06,158.26h-33.47
	c-1.38,2.52-1.38,2.52-1.38,2.52"/>
<line style="fill:none;stroke:#939598;stroke-width:0.5;stroke-linejoin:round;" x1="270.61" y1="197.53" x2="299.06" y2="197.53"/>
<line style="fill:none;stroke:#939598;stroke-width:0.5;stroke-linejoin:round;" x1="248.87" y1="233.69" x2="299.06" y2="233.69"/>
<g id="XMLID_495_">
	<path id="XMLID_178_" style="stroke:#231F20;stroke-width:0.25;stroke-miterlimit:10;" d="M211.35,195.26
		c0.75-0.33,1.55-0.13,2.33-0.09c1.27,0.05,2.61-0.22,3.86,0.08c1.93,0.46,3.32,2.52,4.75,3.77c0.82,0.72,1.52,1.45,1.94,2.3
		c0.64,0.83,0.96,1.67,0.48,2.38c-0.11,0.17-0.32,0.24-0.51,0.13c-1.01-0.59-1.81-1.39-2.65-2.14c-0.08,0-0.15-0.02-0.21-0.05
		c-0.91-0.44-1.47-1.12-2.53-1.28c-0.92-0.14-1.89,0.13-2.78,0.3c-2.03,0.39-3.49,0.02-5.49-0.5c-0.55-0.14-0.97-0.7-0.96-1.26
		C209.62,197.59,210.05,195.84,211.35,195.26z"/>
	<path id="XMLID_25_" style="stroke:#231F20;stroke-width:0.25;stroke-miterlimit:10;" d="M138.38,146.07
		c4.03-2.08,8.8-2.73,13.7-2.78c1.2-0.07,2.41-0.04,3.62,0.06c4.77,0.21,9.52,0.82,13.7,1.13c5.27,0.39,10.11,1.19,14.62,4.17
		c2.63,1.74,4.53,4.22,6.93,6.21c2.23,1.84,4.98,2.51,7.08,4.5c0.19,0.18-0.09,0.44-0.29,0.29c-1.84-1.46-4.34-1.79-6.36-2.96
		c-0.01,0.18-0.18,0.34-0.4,0.24c-10.63-4.98-22.83-9.35-34.76-11.21c-5.9-0.43-11.84-0.35-17.41,1.34
		C138.22,147.24,137.83,146.35,138.38,146.07z"/>
	<path id="XMLID_24_" style="stroke:#231F20;stroke-width:0.25;stroke-miterlimit:10;" d="M236.91,168.64
		c4.37-3.73,12.67-3.49,17.99-2.71c7.98,1.17,12.94,6.79,17.6,12.85c1.03,0.98,2.01,1.99,2.94,3.02c0.24,0.26,0.01,0.8-0.38,0.65
		c-5.03-2.03-8.53-6.37-13.43-8.71c-6.66-3.18-15.22-5.5-22.57-4.65c-0.04,0-0.07-0.01-0.11-0.01c-0.43,0.18-0.85,0.37-1.25,0.58
		C237.08,169.99,236.32,169.14,236.91,168.64z"/>
	<g id="XMLID_264_">
		<path id="XMLID_332_" style="stroke:#231F20;stroke-width:0.25;stroke-miterlimit:10;" d="M230.49,257.16
			c-1.96-4.05-1.65-8.69-3.34-12.8c-2.48-6.02-11.54-7.36-17.23-8.93c-7.86-2.17-13.85-0.52-21.28,2.26
			c-6.98,2.62-14.3,4.96-21.56,6.66c-1.07,0.25-1.4-1.2-0.44-1.6c8.28-3.45,17.35-5.68,25.85-8.63c7.24-2.51,12.81-2.07,20.01,0.06
			c4.56,1.35,11.29,2.67,14.33,6.74c3.14,4.2,3.03,11.18,3.89,16.13C230.75,257.2,230.56,257.31,230.49,257.16L230.49,257.16z"/>
	</g>
	<g id="XMLID_271_">
		<path id="XMLID_339_" style="stroke:#231F20;stroke-width:0.25;stroke-miterlimit:10;" d="M168.61,242.79
			c-5.87,10.54-0.45,21.99,10.19,26.19c8.49,3.35,17.69,5.59,26.41,8.22c7.67,2.31,17.56,6.71,21.37-2.85
			c3.73-9.35,6.4-19.03,5.62-29.1c-0.06-0.75,1.09-0.87,1.28-0.17c1.68,5.98,0.54,11.87-1.26,17.69
			c-1.52,4.91-2.63,10.82-5.36,15.26c-4.64,7.53-15.67,2.87-22.13,0.93c-6.82-2.06-13.56-4.32-20.43-6.24
			c-5.03-1.41-10.54-2.99-14.51-6.58c-6.1-5.5-7.78-17.76-2.31-24.2C168.02,241.29,168.99,242.1,168.61,242.79L168.61,242.79z"/>
	</g>
	<g id="XMLID_278_">
		<path id="XMLID_346_" style="stroke:#231F20;stroke-width:0.25;stroke-miterlimit:10;" d="M227.29,261.04
			c-0.07,3.14-0.38,6.44-1.62,9.36c-0.85,2.01-2.66,5.13-5.22,4.99c-0.25-0.01-0.33-0.32-0.12-0.46c2.64-1.82,3.99-3.3,5.14-6.38
			c0.89-2.4,1.48-4.95,1.69-7.5C227.15,260.96,227.29,260.95,227.29,261.04L227.29,261.04z"/>
	</g>
	<g id="XMLID_285_">
		<path id="XMLID_353_" style="stroke:#231F20;stroke-width:0.25;stroke-miterlimit:10;" d="M223.75,277.7
			c-5.36-1.59-11.19-2.72-16.33-4.91c-2.7-1.15-5.21-2.68-7.93-3.77c-3.34-1.34-6.78-1.63-10.34-1.9
			c-8.48-0.65-17.88-1.2-22.86-9.12c-0.39-0.63,0.54-1.38,1.04-0.8c7.58,8.76,17.65,7,27.96,8.77c4.51,0.77,8.15,3.21,12.26,5.06
			c5.39,2.44,11.55,2.6,16.45,6.11C224.26,277.33,224.11,277.81,223.75,277.7L223.75,277.7z"/>
	</g>
	<g id="XMLID_292_">
		<path id="XMLID_360_" style="stroke:#231F20;stroke-width:0.25;stroke-miterlimit:10;" d="M167.79,243.76
			c5.68,6.94,13.03,8.54,21.5,9.85c6,0.93,13.67,1.72,18.06,6.43c0.48,0.51-0.12,1.3-0.75,0.97c-7.65-4.07-14.92-5.05-23.29-6.8
			c-6.48-1.36-12.84-3.86-16.33-9.83C166.7,243.9,167.41,243.3,167.79,243.76L167.79,243.76z"/>
	</g>
	<g id="XMLID_299_">
		<path id="XMLID_367_" style="stroke:#231F20;stroke-width:0.25;stroke-miterlimit:10;" d="M171.37,240.75
			c7.55-0.26,14.65,5.77,19.42,11.03c0.25,0.27-0.08,0.78-0.42,0.54c-6.15-4.44-11.1-9.56-19-10.46
			C170.68,241.78,170.64,240.77,171.37,240.75L171.37,240.75z"/>
	</g>
	<g id="XMLID_306_">
		<path id="XMLID_374_" style="stroke:#231F20;stroke-width:0.25;stroke-miterlimit:10;" d="M180.64,243.15
			c11.72,6.73,26.43,6.38,35.49,17.59c1.97,2.44,4.12,6.26,1.66,9.16c-2.7,3.19-9.29,2.3-12.81,1.6c-0.83-0.17-0.88-1.61,0-1.73
			c1.5-0.21,2.94-0.11,4.45-0.08c0.79,0.01,2.05,0.29,2.8,0.02c1.48-0.53,3.89-4.58,3.54-6.1c-0.82-3.6-8.23-8.19-11.17-9.59
			c-7.9-3.78-17.9-3.95-24.54-10.11C179.66,243.52,180.18,242.88,180.64,243.15L180.64,243.15z"/>
	</g>
	<g id="XMLID_313_">
		<path id="XMLID_381_" style="stroke:#231F20;stroke-width:0.25;stroke-miterlimit:10;" d="M227.71,242.72
			c-2.12,3.65-7.89,1.47-10.93,0.46c-7.21-2.39-15.08-4.5-21.48-8.65c-0.59-0.38-0.23-1.46,0.5-1.19
			c5.67,2.09,11.16,4.59,16.86,6.64c3.46,1.24,10.96,5.36,14.15,2.04C227.27,241.55,228.04,242.16,227.71,242.72L227.71,242.72z"/>
	</g>
	<g id="XMLID_320_">
		<path id="XMLID_388_" style="stroke:#231F20;stroke-width:0.25;stroke-miterlimit:10;" d="M232.98,248.64
			c-0.01-3.1-0.06-6.38-0.94-9.36c-0.57-1.95-1.4-4.06-2.84-5.54c-2.23-2.28-5.4-2.02-8.31-2.42c-6.24-0.86-11.69-2.97-18.14-2.5
			c-12.42,0.91-26.86,4.41-35.29,14.22c-0.72,0.84-1.86-0.36-1.2-1.2c8.9-11.25,27.58-15.32,41.26-14.92
			c4.07,0.12,7.62,1.78,11.57,2.43c3.52,0.58,7.35,0.06,10.32,2.42c4.73,3.77,5.19,11.51,4.44,16.99
			C233.78,249.25,232.98,249.12,232.98,248.64L232.98,248.64z"/>
	</g>
	<g id="XMLID_327_" style="opacity:0.8;">
		<path id="XMLID_395_" style="stroke:#231F20;stroke-width:0.25;stroke-miterlimit:10;" d="M210.18,291.62
			c-6.6-5.45-12.29-7.6-20.81-6.57c-3.58,0.43-9.13,1.78-11.48-1.86c-0.16-0.25,0.15-0.53,0.4-0.4c5.64,3.06,12.03-0.05,18,0.47
			c6.23,0.54,9.8,4.1,14.11,8.13C210.56,291.53,210.34,291.74,210.18,291.62L210.18,291.62z"/>
	</g>
	<g id="XMLID_348_">
		<path id="XMLID_416_" style="stroke:#231F20;stroke-width:0.25;stroke-miterlimit:10;" d="M221.19,310.86
			c-10.59,12.33-29.96,16.07-45.41,12.04c-18.32-4.77-32.04-22.34-44.06-35.75c-0.2-0.22,0.1-0.52,0.32-0.32
			c7.36,6.45,13.15,14.24,21.03,20.19c6.3,4.75,12.83,9.82,20.28,12.63c15.27,5.75,36.15,3.09,47.47-9.14
			C221.06,310.26,221.41,310.62,221.19,310.86L221.19,310.86z"/>
	</g>
	<g id="XMLID_13_">
		<path id="XMLID_21_" style="stroke:#231F20;stroke-width:0.25;stroke-miterlimit:10;" d="M11.17,152.02
			c9.69-11.75,28.2-9.78,40.38-3.21c0.67,0.36,0.18,1.28-0.49,1.16c-7.84-1.42-15.09-4.67-23.27-3.85
			c-7.99,0.8-15.02,5.76-17.92,13.32c-5.67,14.76,4.63,27.64,13.2,38.53c3.74,4.75,6.71,9.69,9.61,14.98
			c1.59,2.9,3.57,5.33,5.72,7.6c0.3,0.02,0.59,0.16,0.76,0.49c0.1,0.19,0.18,0.39,0.27,0.59c2.42,2.44,5.01,4.74,7.51,7.28
			c4.37,4.43,8.32,12.33,14.87,13.73c9.33,1.99,14.76-8.25,15.06-15.99c0.04-0.93,1.56-1.25,1.71-0.23
			c1.37,9.35-5.99,19.73-16.05,18.85c-5.98-0.52-9.41-5.35-12.94-9.6c-2.25-2.72-4.87-5.12-7.49-7.5
			c3.31,9.37,5.04,19.34,9.34,28.37c4.95,10.4,11.91,19.83,20.76,27.22c20.23,16.9,46.6,22.12,68.06,36.67
			c18.41,12.49,47.53,19.74,68.3,8.87c10.73-5.62,17.94-16.11,27.24-23.68c10.01-8.14,19.15-15.94,25.25-27.58
			c7.36-14.03,11.61-30.02,12.55-45.8c0.86-14.5,11.84-30.1,1.1-43.63c-0.09-0.13-0.15-0.29-0.12-0.49
			c2.7-20.02-4.41-38.69-6.58-58.42c-2.16-19.57-0.05-39.72-12.84-56.23c-0.28-0.36,0.2-0.87,0.51-0.51
			c13.09,15.22,12.43,33.79,14.4,52.69c1.23,11.82,3.46,23.37,5.96,34.97c1.79,8.28,1.55,17.27,0.36,25.44
			c11.05,20.5,0.38,30.82-0.48,46.17c-0.77,13.78-4.09,27.23-9.39,39.96c-5.24,12.58-12.84,22.22-23.3,30.83
			c-4.79,3.94-9.74,7.7-14.2,12.04c-4.55,4.43-8.34,9.39-13.53,13.13c-18.87,13.59-44.69,9.73-64.92,1.31
			c-5.33-2.22-10.04-5.53-14.78-8.77c-6.74-4.6-13.64-7.46-21.19-10.5c-12.71-5.11-25.28-11.1-36.66-18.75
			c-10.54-7.09-19.1-16.18-25.46-27.18c-7.15-12.36-10.27-26.41-14.44-39.97c-1.55-1.52-3.03-3.1-4.34-4.82
			c-4.24-5.57-6.83-12.2-11.09-17.81c-4.21-5.55-8.98-10.73-12.36-16.87C4.67,174.69,3.4,161.45,11.17,152.02z"/>
		<path id="XMLID_133_" style="stroke:#231F20;stroke-width:0.25;stroke-miterlimit:10;" d="M58.15,210.34
			c-6.28-3.69-13.02-1.3-17.29-8.4c-0.06-0.1-0.03-0.19,0.03-0.26c-3.11-3.56-4-9.66-3.55-13.97c0.05-0.45,0.67-0.46,0.71,0
			c0.32,4.82,1.53,11.37,4.95,15.01c0.1,0.11,0.09,0.25,0.03,0.37c2.24,1.72,4.41,2.83,7.45,3.35c2.76,0.47,5.63,0.72,8.18,2.01
			c1.67,0.85,2.65,2.43,4.17,3.39c0.8,1.24,1.94,1.48,3.44,0.73c2.48,0.61,3.17-0.11,2.07-2.18c-0.26-1.47-1.3-3.23-2.1-4.45
			c-2.13-3.28-5.67-5.37-7.12-8.99c-1.44,0.75-2.84,1.62-4.14,2.59c-1.49,1.11-2.61,2.75-4.11,3.77c-0.33,0.22-0.67-0.14-0.61-0.47
			c0.31-1.7,2.32-3.12,3.61-4.08c1.52-1.13,3.16-2.06,4.94-2.71c-0.05-0.19-0.11-0.39-0.15-0.59c-0.55-2.7-0.2-5.63,0.44-8.59
			c-4.51,4.85-12.92,11.05-16.74,4.47c-0.23-0.4,0.23-0.88,0.64-0.64c5.37,3.16,9.99-0.33,13.98-4.11
			c-1.29-4.32-2.69-9.8-4.66-15.09c-0.03,0.13-0.1,0.26-0.25,0.35c-3.3,2.15-5.91,4.86-7.47,8.5c-1.36,3.16-1.27,6.45-2.06,9.72
			c-0.08,0.33-0.6,0.34-0.68,0c-1.77-7.64,3.44-15.35,9.64-19.2c0.22-0.14,0.43-0.1,0.59,0.02c-0.59-1.54-1.23-3.06-1.93-4.53
			c-2.6,2.26-6.33,4.22-9.73,3.02c-0.25-0.09-0.31-0.5,0-0.56c1.81-0.33,3.6-0.36,5.34-1.01c1.44-0.53,2.77-1.3,4.16-1.93
			c-3.47-7.05-8.43-12.72-16.21-13.14c-13.1-0.7-16.65,15.44-13.14,25.15c1.49,4.12,3.64,7.91,5.67,11.73
			c-0.81-4.48-1.27-9.02-1.08-13.57c0.32-7.51,2.49-15.2,10.17-18c0.36-0.13,0.62,0.47,0.26,0.63c-8.48,3.65-9.48,13.65-8.84,21.79
			c0.32,4.1,1.02,8.17,1.94,12.18c0.47,2.06,1.24,4.15,1.75,6.24c0.62,1.84,1.1,3.74,1.36,5.75c0.05,0.4-0.53,0.41-0.66,0.09
			c-0.31-0.79-0.63-1.57-0.94-2.35c-0.15-0.04-0.3-0.11-0.39-0.25c-1.12-1.72-1.81-3.89-2.32-6.09c-1.92-4.28-4.01-8.45-6.42-12.65
			c-2.41-4.19-4.06-8.48-4-13.39c0.11-8.64,4.91-17.84,14.35-18.78c17.68-1.77,22.74,21.97,25.78,35.15
			c0.9-0.86,1.77-1.73,2.61-2.53c0.76-2.95,1.6-5.86,1.89-8.53c0.03-0.29,0.44-0.3,0.46,0c0.22,4.71-0.56,9.04-1.25,13.67
			c-0.9,6.14,0.66,8.5,4.59,12.67c2.46,2.61,7.51,9.49,4.45,13.23C66.07,219.63,61.05,212.05,58.15,210.34z"/>
		<path id="XMLID_134_" style="stroke:#231F20;stroke-width:0.25;stroke-miterlimit:10;" d="M238.6,176.39
			c0.76,1.53,1.89,2.91,2.97,4.29c3.95,3.34,8.31,5.81,12.92,8.38c0.45,0.25,0.05,0.91-0.4,0.68c-3.12-1.55-6.95-3.17-10.11-5.39
			c1.6,3.52-0.56,9.1,1.66,10.9c2.59,2.09,3.15,6.42,1.78,9.92c-0.47,1.19-1.33,1.78-2.27,2.2c6.81,4.67,4.98,20.27,4.48,26.83
			c-0.46,5.98-1.65,11.23-4.37,16.63c-2.2,4.36-4.48,8.6-6.05,13.25c-1.43,4.23-2.26,8.64-3.8,12.83c-0.14,0.38-0.65,0.22-0.59-0.16
			c0.93-6.84,3.22-13.86,6.17-20.1c3.14-6.64,6.53-12.36,7.3-19.82c0.9-8.76,2.73-22.08-3.66-29.24c-1.16,0.45-2.34,0.78-2.96,1.75
			c-0.22,0.35-0.7,0.18-0.74-0.2c-0.01-0.15-0.03-0.3-0.04-0.45c-0.02-0.19,0.12-0.39,0.27-0.47c0.54-0.31,1.29-0.67,1.75-1.08
			c5.22-4.64,5.23-7.88,1.82-10.21c-2.67-1.83-0.96-5.94-1.24-9.66c-0.34-4.39-4.85-7.11-6.16-11.15
			c-2.41-5.18-3.32-11.31-1.82-16.44l0,0c-7-7.34-19.33-6.02-28.6-6.8c-0.18-0.02-0.18-0.27,0-0.28c7.96-0.68,23.85-1.62,28.78,6.49
			c1.27-3.81,3.94-7.02,8.39-8.78c0.19-0.08,0.33,0.25,0.14,0.34C233.07,156,236.11,166.88,238.6,176.39z"/>
		<path id="XMLID_135_" style="stroke:#231F20;stroke-width:0.25;stroke-miterlimit:10;" d="M221.15,207.89
			c4.31,5.31,8.13-1.1,12.84-1.33c0.37-0.02,0.41,0.44,0.17,0.62c-2.05,1.55-5.44,3.4-8,3.85c-2.48,0.44-4.15-0.78-5.31-2.92
			C220.75,207.94,221.01,207.71,221.15,207.89z"/>
		<path id="XMLID_136_" style="stroke:#231F20;stroke-width:0.25;stroke-miterlimit:10;" d="M188.44,133.84
			c-4.98-2.06-10.21-2.42-15.47-3.3c-0.45-0.08-0.27-0.68,0.1-0.73c6.61-0.86,13.26,0.7,18.94,3.98c0.12-0.09,0.28-0.12,0.45-0.03
			c1,0.56,1.85,1.24,2.59,2.01c2.93,2.16,5.51,4.8,7.55,7.82c0.15,0.23-0.18,0.47-0.37,0.29c-1.58-1.53-3.16-3.02-4.8-4.39
			c0.36,0.9,0.62,1.86,0.77,2.87c0.27,1.77,0.17,3.53,0.25,5.3c0.19,3.96,1.27,7.48,2.58,11.19c0.13,0.36-0.46,0.62-0.63,0.26
			c-1.76-3.72-2.9-7.33-3.09-11.45c-0.22-4.58-0.94-7.57-3.29-10.77C192.3,135.72,190.46,134.68,188.44,133.84z"/>
		<path id="XMLID_137_" style="stroke:#231F20;stroke-width:0.25;stroke-miterlimit:10;" d="M194.24,153.79
			c0.08,0.4-0.5,0.57-0.61,0.17c-2.21-7.71-12.5-11.64-19.67-12.7c-8.34-1.23-16.8-0.76-25.15-0.01c-0.42,0.04-0.42-0.54-0.09-0.68
			C160.61,135.59,190.89,137.3,194.24,153.79z"/>
		<path id="XMLID_138_" style="stroke:#231F20;stroke-width:0.25;stroke-miterlimit:10;" d="M195.67,163.61
			c-16.52,5.1-31.53-1.48-44.21-12.39c-0.22-0.19,0.06-0.53,0.3-0.39c6.6,3.83,12.72,8.54,19.89,11.33
			c7.69,2.99,15.99,3.28,23.94,1.14C195.79,163.25,195.87,163.55,195.67,163.61z"/>
		<path id="XMLID_139_" style="stroke:#231F20;stroke-width:0.25;stroke-miterlimit:10;" d="M197.97,124.45
			c0.11,0.09-0.04,0.28-0.15,0.19c-5.59-3.98-12.95,0.32-19.14,0.6c-5.8,0.26-11.11-0.19-16.8,1.34c-0.42,0.11-0.62-0.44-0.29-0.68
			c5.22-3.67,13.23-1.42,19.15-2.04C187.17,123.19,192.35,119.98,197.97,124.45z"/>
		<path id="XMLID_143_" style="stroke:#231F20;stroke-width:0.25;stroke-miterlimit:10;" d="M211.67,128.11
			c-3.29-6.55-7.85-12.32-15.46-13.4c-5.65-0.8-11.51-0.08-17.02-1.72c-0.32-0.09-0.28-0.65,0.08-0.61
			c6.95,0.77,15.25-0.22,21.84,2.42c5.42,2.17,8.98,7.8,11.19,12.93C212.49,128.16,211.89,128.54,211.67,128.11z"/>
		<path id="XMLID_145_" style="stroke:#231F20;stroke-width:0.25;stroke-miterlimit:10;" d="M265.86,149.08
			c-2.58-2.11-5.36-1.73-8.4-1.17c-2.18,0.4-4.36,0.59-6.54,0.95c-0.08,0.01-0.1-0.11-0.02-0.11c4.79-0.2,11.86-5.96,15.57-0.14
			C266.74,149,266.19,149.34,265.86,149.08z"/>
		<path id="XMLID_146_" style="stroke:#231F20;stroke-width:0.25;stroke-miterlimit:10;" d="M271.9,175.68
			c0.11,0.75-0.86,1.3-1.3,0.55c-3.53-5.94-6.1-10.75-13.11-13.13c-7.15-2.44-12.13,1.56-18.99,1.69c-0.23,0-0.25-0.31-0.05-0.38
			c7.43-2.68,14.65-5.49,22.27-2.06C266.03,164.73,271.02,169.74,271.9,175.68z"/>
		<path id="XMLID_147_" style="stroke:#231F20;stroke-width:0.25;stroke-miterlimit:10;" d="M195.84,183.85
			c1.59-2.94,3.66-5.45,5.9-6.93c0.08-0.06,0.18,0.07,0.11,0.14c-3.87,3.83-7.02,8.9-7.74,14.37c-0.96,7.29,3.07,10.43,8.95,13.52
			c0.26,0.14,0.14,0.55-0.15,0.54c-12-0.21-11.83-12.32-7.36-21.08c-26.38,21.26-32.94,56.99-56.19,80.78
			c-0.25,0.25-0.62-0.13-0.39-0.39C161.21,240.1,168.81,204.41,195.84,183.85z"/>
		<path id="XMLID_148_" style="stroke:#231F20;stroke-width:0.25;stroke-miterlimit:10;" d="M213.68,158.54
			c-0.17,0-0.22-0.28-0.04-0.31c6.26-1.17,13.08-0.84,18.71,2.31c0.13,0.07,0.02,0.26-0.12,0.2
			C226.27,157.68,220.1,158.43,213.68,158.54z"/>
		<path id="XMLID_39_" style="stroke:#231F20;stroke-width:0.25;stroke-miterlimit:10;" d="M236.73,144.27
			c0.17,0.05,0.13,0.33-0.05,0.31c-6.32-0.76-12.74-3.11-17.16-7.81c-0.1-0.11,0.06-0.26,0.17-0.15
			C224.46,141.32,230.57,142.45,236.73,144.27z"/>
		<path id="XMLID_38_" style="stroke:#231F20;stroke-width:0.25;stroke-miterlimit:10;" d="M113.64,204.39
			c-0.08,0.34-1.18,0.14-1.22-0.24c-1.29-13.17,3.46-25.89,18.46-33.41c0.34-0.17,1.03,0.24,0.7,0.42
			C116.78,179.43,116.51,192,113.64,204.39z"/>
		<path id="XMLID_1_" style="stroke:#231F20;stroke-width:0.25;stroke-miterlimit:10;" d="M254.93,133.81
			c-2.19,0.87-4.06,1.52-5.65,3.37c-1.46,1.7-2.59,3.9-3.31,6.01c-0.06,0.17-0.3,0.1-0.27-0.07c0.69-4.23,3.96-10.41,9.16-9.81
			C255.15,133.34,255.2,133.7,254.93,133.81z"/>
		<path id="XMLID_149_" style="stroke:#231F20;stroke-width:0.25;stroke-miterlimit:10;" d="M254.93,133.81
			c-2.19,0.87-4.06,1.52-5.65,3.37c-1.46,1.7-2.59,3.9-3.31,6.01c-0.06,0.17-0.3,0.1-0.27-0.07c0.69-4.23,3.96-10.41,9.16-9.81
			C255.15,133.34,255.2,133.7,254.93,133.81z"/>
	</g>
	<path style="stroke:#231F20;stroke-width:0.25;stroke-miterlimit:10;" d="M244.65,59.24c-29.98-32.02-75.38-49.45-119.09-44.56
		c-14.84,1.66-29.35,5.67-43.29,11c-7.28,2.78-14.52,5.98-20.59,10.87c-9.51,7.66-15.51,18.82-20.95,29.53
		c-5.68,11.18-10.36,22.85-14.1,34.82c-4.5,14.38-7.64,29.18-9.52,44.13c5.75-26.07,14.95-51.39,26.64-75.38
		c4.57-9.38,9.13-19.82,16.63-27.29c5.17-5.17,11.76-8.67,18.41-11.73c21.57-9.9,45.21-15.9,68.93-15.17
		c42.44,1.31,82.65,24.7,108.69,58.24C252.84,68.6,248.9,63.77,244.65,59.24z"/>
	<path id="XMLID_117_" style="stroke:#231F20;stroke-width:0.25;stroke-miterlimit:10;" d="M233.13,205.78
		c0.4-0.38,0.9-0.5,1.3-0.82c0.42-0.34,0.53-0.85,0.91-1.23c0.75-0.75,2.27-1.17,3.26-1.38c1.27-0.26,3.16-0.32,4.44-0.04
		c1.03,0.23,1.01,1.08,1.79,1.54c0.24,0.14,0.08,0.52-0.19,0.45c-0.75-0.18-1.45-0.68-2.23-0.76c-0.32-0.03-0.67-0.04-1.02-0.03
		c0.02,0.27-0.08,0.55-0.39,0.8c-0.96,0.76-1.44,1.33-2.6,1.77c-1.37,0.53-2.66,1.27-4.05,1.79
		C233.16,208.32,232.26,206.61,233.13,205.78z"/>
</g>
<g>
	<g>
		<path style="fill:#231F20;" d="M304.2,19.36h3.16c2.03,0,3.52,0.64,3.52,2.51c0,0.96-0.51,1.9-1.37,2.21v0.06
			c1.09,0.26,1.9,1.04,1.9,2.42c0,2.04-1.62,2.99-3.79,2.99h-3.41V19.36z M307.2,23.57c1.38,0,1.96-0.56,1.96-1.44
			c0-0.99-0.65-1.36-1.93-1.36h-1.29v2.8H307.2z M307.43,28.15c1.45,0,2.26-0.54,2.26-1.68c0-1.07-0.78-1.54-2.26-1.54h-1.48v3.23
			H307.43z"/>
		<path style="fill:#231F20;" d="M313.06,21.9h1.42l0.13,1.37h0.05c0.53-1,1.31-1.55,2.11-1.55c0.38,0,0.62,0.05,0.84,0.16
			l-0.3,1.56c-0.26-0.07-0.45-0.12-0.76-0.12c-0.59,0-1.3,0.42-1.75,1.58v4.67h-1.74V21.9z"/>
		<path style="fill:#231F20;" d="M318.2,25.74c0-2.55,1.68-4.02,3.53-4.02c1.85,0,3.53,1.47,3.53,4.02c0,2.54-1.68,4.01-3.53,4.01
			C319.88,29.75,318.2,28.27,318.2,25.74z M323.46,25.74c0-1.53-0.65-2.56-1.74-2.56c-1.09,0-1.74,1.02-1.74,2.56
			s0.65,2.54,1.74,2.54C322.81,28.28,323.46,27.27,323.46,25.74z"/>
		<path style="fill:#231F20;" d="M326.23,21.9h1.74l0.9,3.97c0.15,0.74,0.25,1.46,0.39,2.21h0.06c0.14-0.75,0.29-1.48,0.47-2.21
			l0.97-3.97h1.58l0.99,3.97c0.18,0.74,0.33,1.46,0.49,2.21h0.06c0.14-0.75,0.25-1.47,0.4-2.21l0.89-3.97h1.62l-1.88,7.66h-2.06
			l-0.87-3.57c-0.16-0.72-0.29-1.42-0.45-2.22h-0.06c-0.14,0.8-0.27,1.52-0.44,2.24l-0.84,3.56h-2L326.23,21.9z"/>
		<path style="fill:#231F20;" d="M337.53,28.68l0.81-1.14c0.66,0.53,1.29,0.85,2.05,0.85c0.81,0,1.19-0.39,1.19-0.92
			c0-0.64-0.8-0.93-1.59-1.24c-0.97-0.38-2.08-0.95-2.08-2.23c0-1.33,1.04-2.29,2.7-2.29c1.03,0,1.86,0.43,2.46,0.92l-0.8,1.1
			c-0.52-0.39-1.04-0.67-1.62-0.67c-0.75,0-1.1,0.37-1.1,0.85c0,0.6,0.75,0.84,1.55,1.14c1,0.39,2.13,0.89,2.13,2.31
			c0,1.32-1.01,2.38-2.88,2.38C339.32,29.75,338.25,29.3,337.53,28.68z"/>
		<path style="fill:#231F20;" d="M344.62,23.2c0-0.7,0.49-1.22,1.12-1.22s1.12,0.52,1.12,1.22c0,0.69-0.49,1.21-1.12,1.21
			S344.62,23.9,344.62,23.2z M344.62,28.54c0-0.71,0.49-1.22,1.12-1.22s1.12,0.52,1.12,1.22c0,0.69-0.49,1.21-1.12,1.21
			S344.62,29.23,344.62,28.54z"/>
		<path style="fill:#231F20;" d="M352.19,19.33h1.26v9.13h4.32v1.1h-5.58V19.33z"/>
		<path style="fill:#231F20;" d="M358.86,25.78c0-2.53,1.6-3.99,3.4-3.99s3.4,1.46,3.4,3.99c0,2.51-1.6,3.97-3.4,3.97
			S358.86,28.29,358.86,25.78z M364.38,25.78c0-1.74-0.86-2.92-2.12-2.92s-2.12,1.18-2.12,2.92c0,1.74,0.85,2.9,2.12,2.9
			S364.38,27.52,364.38,25.78z"/>
		<path style="fill:#231F20;" d="M366.71,21.98h1.27l1.09,4.38c0.16,0.72,0.3,1.4,0.44,2.11h0.06c0.16-0.71,0.32-1.41,0.5-2.11
			l1.13-4.38h1.21l1.14,4.38c0.18,0.72,0.34,1.4,0.51,2.11h0.06c0.16-0.71,0.29-1.39,0.45-2.11l1.07-4.38h1.18l-1.97,7.58h-1.51
			l-1.06-4.07c-0.18-0.72-0.32-1.41-0.5-2.18h-0.06c-0.16,0.77-0.31,1.49-0.5,2.2l-1.03,4.05h-1.45L366.71,21.98z"/>
		<path style="fill:#231F20;" d="M377.88,25.78c0-2.47,1.61-3.99,3.3-3.99c1.87,0,2.93,1.39,2.93,3.56c0,0.27-0.02,0.54-0.06,0.73
			h-4.94c0.09,1.61,1.04,2.65,2.44,2.65c0.7,0,1.28-0.23,1.83-0.61l0.44,0.84c-0.64,0.44-1.42,0.79-2.42,0.79
			C379.44,29.75,377.88,28.27,377.88,25.78z M383.01,25.16c0-1.52-0.66-2.35-1.81-2.35c-1.03,0-1.95,0.86-2.1,2.35H383.01z"/>
		<path style="fill:#231F20;" d="M385.91,21.98h1.03l0.11,1.38h0.04c0.51-0.96,1.26-1.57,2.09-1.57c0.32,0,0.55,0.04,0.78,0.16
			l-0.23,1.13c-0.25-0.08-0.42-0.12-0.71-0.12c-0.62,0-1.36,0.46-1.86,1.74v4.87h-1.24V21.98z"/>
		<path style="fill:#231F20;" d="M390.61,25.78c0-2.47,1.61-3.99,3.3-3.99c1.87,0,2.93,1.39,2.93,3.56c0,0.27-0.02,0.54-0.06,0.73
			h-4.94c0.09,1.61,1.04,2.65,2.44,2.65c0.7,0,1.28-0.23,1.83-0.61l0.44,0.84c-0.64,0.44-1.42,0.79-2.42,0.79
			C392.16,29.75,390.61,28.27,390.61,25.78z M395.73,25.16c0-1.52-0.66-2.35-1.81-2.35c-1.03,0-1.95,0.86-2.1,2.35H395.73z"/>
		<path style="fill:#231F20;" d="M398.12,25.78c0-2.46,1.5-3.99,3.17-3.99c0.85,0,1.41,0.33,2.06,0.88l-0.05-1.3v-2.92h1.24v11.11
			h-1.03l-0.11-0.89h-0.04c-0.57,0.59-1.35,1.08-2.23,1.08C399.3,29.75,398.12,28.31,398.12,25.78z M403.29,27.63v-3.97
			c-0.63-0.58-1.19-0.79-1.79-0.79c-1.17,0-2.11,1.17-2.11,2.9c0,1.82,0.73,2.9,2.01,2.9C402.09,28.67,402.68,28.33,403.29,27.63z"
			/>
		<path style="fill:#231F20;" d="M406.49,31.46c0.85-0.39,1.36-1.08,1.36-1.93l-0.13-1.15l0.61,0.94c-0.17,0.21-0.39,0.27-0.63,0.27
			c-0.48,0-0.9-0.31-0.9-0.89c0-0.56,0.43-0.89,0.92-0.89c0.66,0,1.05,0.57,1.05,1.51c0,1.35-0.76,2.4-1.98,2.92L406.49,31.46z"/>
		<path style="fill:#231F20;" d="M303.66,44.5c0-2.46,1.5-3.99,3.17-3.99c0.85,0,1.41,0.33,2.06,0.88l-0.05-1.3v-2.92h1.24v11.11
			h-1.03l-0.11-0.89h-0.04c-0.57,0.59-1.35,1.08-2.23,1.08C304.85,48.46,303.66,47.02,303.66,44.5z M308.84,46.35v-3.97
			c-0.63-0.58-1.19-0.79-1.79-0.79c-1.17,0-2.11,1.17-2.11,2.9c0,1.82,0.73,2.9,2.01,2.9C307.63,47.39,308.22,47.04,308.84,46.35z"
			/>
		<path style="fill:#231F20;" d="M312.56,40.7h1.03l0.11,1.38h0.04c0.51-0.96,1.26-1.57,2.09-1.57c0.32,0,0.55,0.04,0.78,0.16
			l-0.23,1.13c-0.25-0.08-0.42-0.12-0.71-0.12c-0.62,0-1.36,0.46-1.86,1.74v4.87h-1.24V40.7z"/>
		<path style="fill:#231F20;" d="M317.34,46.31c0-1.65,1.38-2.48,4.51-2.83c0-0.98-0.32-1.91-1.51-1.91c-0.85,0-1.61,0.42-2.19,0.81
			l-0.49-0.88c0.68-0.46,1.71-0.99,2.88-0.99c1.79,0,2.55,1.23,2.55,3.12v4.65h-1.03l-0.11-0.91h-0.04c-0.7,0.6-1.52,1.09-2.43,1.09
			C318.26,48.46,317.34,47.68,317.34,46.31z M321.85,46.43v-2.1c-2.46,0.31-3.29,0.93-3.29,1.9c0,0.86,0.57,1.21,1.29,1.21
			C320.55,47.43,321.14,47.08,321.85,46.43z"/>
		<path style="fill:#231F20;" d="M324.53,40.7h1.27l1.09,4.38c0.16,0.72,0.3,1.4,0.44,2.11h0.06c0.16-0.71,0.32-1.41,0.5-2.11
			l1.13-4.38h1.21l1.14,4.38c0.18,0.72,0.34,1.4,0.51,2.11h0.06c0.16-0.71,0.29-1.39,0.45-2.11l1.07-4.38h1.18l-1.97,7.58h-1.51
			l-1.06-4.07c-0.18-0.72-0.32-1.41-0.5-2.18h-0.06c-0.16,0.77-0.31,1.49-0.5,2.2l-1.03,4.05h-1.45L324.53,40.7z"/>
		<path style="fill:#231F20;" d="M336.24,40.7h1.03l0.11,1.09h0.04c0.7-0.71,1.45-1.28,2.46-1.28c1.54,0,2.24,1.03,2.24,2.96v4.8
			h-1.24v-4.64c0-1.41-0.41-2.02-1.38-2.02c-0.75,0-1.27,0.4-2,1.16v5.49h-1.24V40.7z"/>
		<path style="fill:#231F20;" d="M347.73,45.93v-4.19h-1.09v-0.97l1.15-0.07l0.15-2.13h1.04v2.13h1.99v1.04h-1.99v4.21
			c0,0.93,0.29,1.46,1.13,1.46c0.26,0,0.6-0.1,0.84-0.2l0.24,0.97c-0.41,0.14-0.9,0.28-1.36,0.28
			C348.26,48.46,347.73,47.44,347.73,45.93z"/>
		<path style="fill:#231F20;" d="M352.07,44.5c0-2.53,1.6-3.99,3.4-3.99s3.4,1.46,3.4,3.99c0,2.51-1.6,3.97-3.4,3.97
			S352.07,47.01,352.07,44.5z M357.59,44.5c0-1.74-0.86-2.92-2.12-2.92s-2.12,1.18-2.12,2.92c0,1.74,0.85,2.9,2.12,2.9
			S357.59,46.23,357.59,44.5z"/>
		<path style="fill:#231F20;" d="M360.24,49.73c0-0.65,0.4-1.26,1.08-1.71v-0.06c-0.37-0.24-0.66-0.65-0.66-1.24
			c0-0.63,0.43-1.13,0.81-1.41v-0.06c-0.49-0.39-0.95-1.13-0.95-2.04c0-1.66,1.26-2.7,2.75-2.7c0.4,0,0.77,0.08,1.04,0.19h2.56v0.99
			h-1.51c0.35,0.34,0.6,0.91,0.6,1.56c0,1.62-1.19,2.63-2.69,2.63c-0.36,0-0.76-0.09-1.09-0.26c-0.26,0.23-0.47,0.48-0.47,0.9
			c0,0.48,0.3,0.82,1.29,0.82h1.43c1.71,0,2.56,0.55,2.56,1.81c0,1.41-1.44,2.62-3.71,2.62C361.48,51.77,360.24,51.04,360.24,49.73z
			 M365.77,49.34c0-0.7-0.51-0.94-1.48-0.94h-1.27c-0.28,0-0.63-0.03-0.95-0.11c-0.52,0.38-0.75,0.84-0.75,1.27
			c0,0.81,0.79,1.33,2.13,1.33C364.85,50.88,365.77,50.13,365.77,49.34z M364.83,43.21c0-1.1-0.69-1.77-1.56-1.77
			s-1.56,0.66-1.56,1.77c0,1.1,0.71,1.8,1.56,1.8C364.12,45.01,364.83,44.31,364.83,43.21z"/>
		<path style="fill:#231F20;" d="M367.86,44.5c0-2.47,1.61-3.99,3.3-3.99c1.87,0,2.93,1.39,2.93,3.56c0,0.27-0.02,0.54-0.06,0.73
			h-4.94c0.09,1.61,1.04,2.65,2.44,2.65c0.7,0,1.28-0.23,1.83-0.61l0.44,0.84c-0.64,0.44-1.42,0.79-2.42,0.79
			C369.42,48.46,367.86,46.99,367.86,44.5z M372.99,43.88c0-1.52-0.66-2.35-1.81-2.35c-1.03,0-1.95,0.86-2.1,2.35H372.99z"/>
		<path style="fill:#231F20;" d="M376.11,45.93v-4.19h-1.09v-0.97l1.15-0.07l0.15-2.13h1.04v2.13h1.99v1.04h-1.99v4.21
			c0,0.93,0.29,1.46,1.13,1.46c0.26,0,0.6-0.1,0.84-0.2l0.24,0.97c-0.41,0.14-0.9,0.28-1.36,0.28
			C376.64,48.46,376.11,47.44,376.11,45.93z"/>
		<path style="fill:#231F20;" d="M380.99,37.17h1.24v3.04l-0.04,1.56c0.68-0.68,1.43-1.25,2.44-1.25c1.54,0,2.24,1.03,2.24,2.96v4.8
			h-1.24v-4.64c0-1.41-0.41-2.02-1.38-2.02c-0.75,0-1.27,0.4-2,1.16v5.49h-1.24V37.17z"/>
		<path style="fill:#231F20;" d="M388.66,44.5c0-2.47,1.61-3.99,3.3-3.99c1.87,0,2.93,1.39,2.93,3.56c0,0.27-0.02,0.54-0.06,0.73
			h-4.94c0.09,1.61,1.04,2.65,2.44,2.65c0.7,0,1.28-0.23,1.83-0.61l0.44,0.84c-0.64,0.44-1.42,0.79-2.42,0.79
			C390.22,48.46,388.66,46.99,388.66,44.5z M393.79,43.88c0-1.52-0.66-2.35-1.81-2.35c-1.03,0-1.95,0.86-2.1,2.35H393.79z"/>
		<path style="fill:#231F20;" d="M396.69,40.7h1.03l0.11,1.38h0.04c0.51-0.96,1.26-1.57,2.09-1.57c0.32,0,0.55,0.04,0.78,0.16
			l-0.23,1.13c-0.25-0.08-0.42-0.12-0.71-0.12c-0.62,0-1.36,0.46-1.86,1.74v4.87h-1.24V40.7z"/>
	</g>
</g>
<g>
	<g>
		<path style="fill:#231F20;" d="M304.2,153.28h5.94v1.52h-4.19v2.61h3.55v1.52h-3.55v3.02h4.34v1.52h-6.09V153.28z"/>
		<path style="fill:#231F20;" d="M311.69,166.46l0.32-1.39c0.14,0.04,0.36,0.11,0.53,0.11c0.78,0,1.23-0.55,1.48-1.32l0.14-0.48
			l-2.92-7.57h1.76l1.28,3.76c0.22,0.68,0.43,1.43,0.65,2.16H315c0.19-0.71,0.37-1.47,0.57-2.16l1.1-3.76h1.68l-2.68,8.01
			c-0.62,1.73-1.39,2.79-3.01,2.79C312.25,166.62,311.96,166.56,311.69,166.46z"/>
		<path style="fill:#231F20;" d="M319.15,159.65c0-2.49,1.67-4.02,3.42-4.02c2,0,3.06,1.5,3.06,3.64c0,0.34-0.04,0.69-0.08,0.87
			h-4.71c0.15,1.36,0.99,2.13,2.19,2.13c0.63,0,1.18-0.21,1.72-0.56l0.59,1.12c-0.71,0.49-1.6,0.83-2.54,0.83
			C320.76,163.66,319.15,162.18,319.15,159.65z M324.12,158.92c0-1.18-0.51-1.9-1.52-1.9c-0.86,0-1.62,0.67-1.77,1.9H324.12z"/>
		<path style="fill:#231F20;" d="M326.55,162.6l0.81-1.14c0.66,0.53,1.29,0.85,2.05,0.85c0.81,0,1.19-0.39,1.19-0.92
			c0-0.64-0.8-0.93-1.59-1.24c-0.97-0.38-2.08-0.95-2.08-2.23c0-1.33,1.04-2.29,2.7-2.29c1.03,0,1.86,0.43,2.46,0.92l-0.8,1.1
			c-0.52-0.39-1.04-0.67-1.62-0.67c-0.75,0-1.1,0.37-1.1,0.85c0,0.6,0.75,0.84,1.55,1.14c1,0.39,2.13,0.89,2.13,2.31
			c0,1.32-1.01,2.38-2.88,2.38C328.35,163.66,327.28,163.21,326.55,162.6z"/>
		<path style="fill:#231F20;" d="M333.65,157.12c0-0.7,0.49-1.22,1.12-1.22s1.12,0.52,1.12,1.22c0,0.69-0.49,1.21-1.12,1.21
			S333.65,157.81,333.65,157.12z M333.65,162.45c0-0.71,0.49-1.22,1.12-1.22s1.12,0.52,1.12,1.22c0,0.69-0.49,1.21-1.12,1.21
			S333.65,163.15,333.65,162.45z"/>
		<path style="fill:#231F20;" d="M343.28,154.34h-3v-1.1h7.25v1.1h-3v9.13h-1.26V154.34z"/>
		<path style="fill:#231F20;" d="M348.96,153.51c0-0.5,0.37-0.83,0.86-0.83c0.48,0,0.86,0.32,0.86,0.83c0,0.48-0.38,0.83-0.86,0.83
			C349.34,154.34,348.96,153.99,348.96,153.51z M349.19,155.9h1.24v7.58h-1.24V155.9z"/>
		<path style="fill:#231F20;" d="M352.35,164.93c0-0.65,0.4-1.26,1.08-1.71v-0.06c-0.37-0.24-0.66-0.65-0.66-1.24
			c0-0.63,0.43-1.13,0.81-1.41v-0.06c-0.49-0.39-0.95-1.13-0.95-2.04c0-1.66,1.26-2.7,2.75-2.7c0.4,0,0.77,0.08,1.04,0.19h2.56v0.99
			h-1.51c0.35,0.34,0.6,0.91,0.6,1.56c0,1.62-1.19,2.63-2.69,2.63c-0.36,0-0.76-0.09-1.09-0.26c-0.26,0.23-0.47,0.48-0.47,0.9
			c0,0.48,0.3,0.82,1.29,0.82h1.43c1.71,0,2.56,0.55,2.56,1.81c0,1.41-1.44,2.62-3.71,2.62
			C353.59,166.96,352.35,166.24,352.35,164.93z M357.88,164.54c0-0.7-0.51-0.94-1.48-0.94h-1.27c-0.28,0-0.63-0.03-0.95-0.11
			c-0.52,0.38-0.75,0.84-0.75,1.27c0,0.81,0.79,1.33,2.13,1.33C356.96,166.08,357.88,165.33,357.88,164.54z M356.93,158.41
			c0-1.1-0.69-1.77-1.56-1.77s-1.56,0.66-1.56,1.77c0,1.1,0.71,1.8,1.56,1.8C356.22,160.21,356.93,159.51,356.93,158.41z"/>
		<path style="fill:#231F20;" d="M360.51,152.37h1.24v3.04l-0.04,1.56c0.68-0.68,1.43-1.25,2.44-1.25c1.54,0,2.24,1.03,2.24,2.96
			v4.8h-1.24v-4.64c0-1.41-0.41-2.02-1.38-2.02c-0.75,0-1.27,0.4-2,1.16v5.49h-1.24V152.37z"/>
		<path style="fill:#231F20;" d="M368.94,161.13v-4.19h-1.09v-0.97l1.15-0.07l0.15-2.13h1.04v2.13h1.99v1.04h-1.99v4.21
			c0,0.93,0.29,1.46,1.13,1.46c0.26,0,0.6-0.1,0.84-0.2l0.24,0.97c-0.41,0.14-0.9,0.28-1.36,0.28
			C369.47,163.66,368.94,162.64,368.94,161.13z"/>
		<path style="fill:#231F20;" d="M373.82,161.95v-9.59h1.24v9.68c0,0.39,0.17,0.55,0.35,0.55c0.07,0,0.13,0,0.27-0.03l0.17,0.98
			c-0.18,0.07-0.39,0.12-0.71,0.12C374.21,163.66,373.82,163.05,373.82,161.95z"/>
		<path style="fill:#231F20;" d="M376.94,166.59l0.24-1.02c0.14,0.05,0.37,0.11,0.56,0.11c0.83,0,1.35-0.69,1.65-1.63l0.17-0.56
			l-2.94-7.6h1.28l1.5,4.2c0.23,0.66,0.48,1.43,0.71,2.14h0.06c0.21-0.69,0.42-1.47,0.62-2.14l1.31-4.2h1.22l-2.76,8.21
			c-0.52,1.5-1.28,2.64-2.75,2.64C377.46,166.74,377.17,166.68,376.94,166.59z"/>
		<path style="fill:#231F20;" d="M387.19,159.7c0-2.53,1.65-3.99,3.53-3.99c0.96,0,1.63,0.41,2.15,0.89l-0.63,0.85
			c-0.43-0.4-0.88-0.67-1.46-0.67c-1.33,0-2.3,1.18-2.3,2.92c0,1.74,0.92,2.9,2.27,2.9c0.67,0,1.26-0.34,1.72-0.76l0.54,0.86
			c-0.66,0.61-1.49,0.96-2.37,0.96C388.68,163.66,387.19,162.21,387.19,159.7z"/>
		<path style="fill:#231F20;" d="M394.62,161.95v-9.59h1.24v9.68c0,0.39,0.17,0.55,0.35,0.55c0.07,0,0.13,0,0.27-0.03l0.17,0.98
			c-0.18,0.07-0.39,0.12-0.71,0.12C395,163.66,394.62,163.05,394.62,161.95z"/>
		<path style="fill:#231F20;" d="M397.93,159.7c0-2.53,1.6-3.99,3.4-3.99s3.4,1.46,3.4,3.99c0,2.51-1.6,3.97-3.4,3.97
			S397.93,162.21,397.93,159.7z M403.44,159.7c0-1.74-0.86-2.92-2.12-2.92s-2.12,1.18-2.12,2.92c0,1.74,0.85,2.9,2.12,2.9
			S403.44,161.43,403.44,159.7z"/>
		<path style="fill:#231F20;" d="M405.84,162.61l0.61-0.84c0.64,0.53,1.28,0.9,2.17,0.9c0.96,0,1.44-0.53,1.44-1.18
			c0-0.78-0.87-1.13-1.68-1.44c-1.03-0.39-2.19-0.91-2.19-2.19c0-1.21,0.94-2.15,2.53-2.15c0.91,0,1.71,0.39,2.28,0.85l-0.59,0.82
			c-0.51-0.39-1.02-0.67-1.67-0.67c-0.92,0-1.35,0.51-1.35,1.09c0,0.72,0.8,0.99,1.63,1.31c1.06,0.41,2.24,0.86,2.24,2.3
			c0,1.23-0.95,2.25-2.68,2.25C407.53,163.66,406.53,163.21,405.84,162.61z"/>
		<path style="fill:#231F20;" d="M412.43,159.7c0-2.47,1.61-3.99,3.3-3.99c1.87,0,2.93,1.39,2.93,3.56c0,0.27-0.02,0.54-0.06,0.73
			h-4.94c0.09,1.61,1.04,2.65,2.44,2.65c0.7,0,1.28-0.23,1.83-0.61l0.44,0.84c-0.64,0.44-1.42,0.79-2.42,0.79
			C413.99,163.66,412.43,162.19,412.43,159.7z M417.56,159.08c0-1.52-0.66-2.35-1.81-2.35c-1.03,0-1.95,0.86-2.1,2.35H417.56z"/>
		<path style="fill:#231F20;" d="M419.94,159.7c0-2.46,1.5-3.99,3.17-3.99c0.85,0,1.41,0.33,2.06,0.88l-0.05-1.3v-2.92h1.24v11.11
			h-1.03l-0.11-0.89h-0.04c-0.57,0.59-1.35,1.08-2.23,1.08C421.13,163.66,419.94,162.22,419.94,159.7z M425.12,161.55v-3.97
			c-0.63-0.58-1.19-0.79-1.79-0.79c-1.17,0-2.11,1.17-2.11,2.9c0,1.82,0.73,2.9,2.01,2.9C423.92,162.58,424.5,162.24,425.12,161.55z
			"/>
	</g>
</g>
<g>
	<g>
		<path style="fill:#231F20;" d="M303.68,195.69c0-3.34,2.02-5.32,4.52-5.32c1.24,0,2.22,0.61,2.84,1.29l-0.94,1.17
			c-0.51-0.52-1.1-0.89-1.87-0.89c-1.61,0-2.76,1.4-2.76,3.69c0,2.33,1.06,3.74,2.72,3.74c0.88,0,1.55-0.42,2.11-1.05l0.94,1.13
			c-0.8,0.96-1.83,1.49-3.11,1.49C305.65,200.94,303.68,199.06,303.68,195.69z"/>
		<path style="fill:#231F20;" d="M312.74,189.74h1.74v2.85l-0.07,1.48c0.62-0.61,1.36-1.16,2.37-1.16c1.59,0,2.28,1.11,2.28,3.04
			v4.8h-1.74v-4.57c0-1.26-0.35-1.73-1.15-1.73c-0.65,0-1.08,0.33-1.69,0.96v5.35h-1.74V189.74z"/>
		<path style="fill:#231F20;" d="M320.68,196.93c0-2.49,1.67-4.02,3.42-4.02c2,0,3.06,1.5,3.06,3.64c0,0.34-0.04,0.69-0.08,0.87
			h-4.71c0.15,1.36,0.99,2.13,2.19,2.13c0.63,0,1.18-0.21,1.72-0.55l0.59,1.12c-0.71,0.49-1.6,0.83-2.54,0.83
			C322.28,200.94,320.68,199.46,320.68,196.93z M325.65,196.19c0-1.18-0.51-1.9-1.52-1.9c-0.86,0-1.62,0.67-1.77,1.9H325.65z"/>
		<path style="fill:#231F20;" d="M328.33,196.93c0-2.49,1.67-4.02,3.42-4.02c2,0,3.06,1.5,3.06,3.64c0,0.34-0.04,0.69-0.08,0.87
			h-4.71c0.15,1.36,0.99,2.13,2.19,2.13c0.63,0,1.18-0.21,1.72-0.55l0.59,1.12c-0.71,0.49-1.6,0.83-2.54,0.83
			C329.93,200.94,328.33,199.46,328.33,196.93z M333.3,196.19c0-1.18-0.51-1.9-1.52-1.9c-0.86,0-1.62,0.67-1.77,1.9H333.3z"/>
		<path style="fill:#231F20;" d="M336.47,189.74h1.7v6.88h0.05l2.75-3.52h1.9l-2.54,3.12l2.8,4.54h-1.89l-1.91-3.33l-1.16,1.38v1.95
			h-1.7V189.74z"/>
		<path style="fill:#231F20;" d="M343.61,199.87l0.81-1.14c0.66,0.53,1.29,0.86,2.05,0.86c0.81,0,1.19-0.39,1.19-0.92
			c0-0.64-0.8-0.93-1.59-1.24c-0.97-0.38-2.08-0.95-2.08-2.23c0-1.33,1.04-2.29,2.7-2.29c1.03,0,1.86,0.43,2.46,0.92l-0.8,1.1
			c-0.52-0.39-1.04-0.67-1.62-0.67c-0.75,0-1.1,0.37-1.1,0.85c0,0.61,0.75,0.84,1.55,1.14c1,0.39,2.13,0.89,2.13,2.31
			c0,1.32-1.01,2.38-2.88,2.38C345.41,200.94,344.34,200.49,343.61,199.87z"/>
		<path style="fill:#231F20;" d="M350.7,194.4c0-0.71,0.49-1.22,1.12-1.22s1.12,0.52,1.12,1.22c0,0.69-0.49,1.21-1.12,1.21
			S350.7,195.09,350.7,194.4z M350.7,199.73c0-0.7,0.49-1.22,1.12-1.22s1.12,0.52,1.12,1.22c0,0.69-0.49,1.21-1.12,1.21
			S350.7,200.42,350.7,199.73z"/>
		<path style="fill:#231F20;" d="M358.27,190.52h3.1c2.02,0,3.47,0.75,3.47,2.88c0,2.04-1.45,3.03-3.47,3.03h-1.84v4.33h-1.26
			V190.52z M361.19,195.37c1.54,0,2.39-0.64,2.39-1.97c0-1.35-0.85-1.82-2.39-1.82h-1.66v3.8H361.19z M361.13,196.07l0.99-0.67
			l3.02,5.36h-1.43L361.13,196.07z"/>
		<path style="fill:#231F20;" d="M366.29,198.79c0-1.65,1.38-2.48,4.51-2.83c0-0.98-0.32-1.92-1.51-1.92
			c-0.85,0-1.61,0.42-2.19,0.81l-0.49-0.88c0.68-0.46,1.71-0.99,2.88-0.99c1.79,0,2.55,1.23,2.55,3.12v4.65h-1.03l-0.11-0.91h-0.04
			c-0.7,0.6-1.52,1.09-2.43,1.09C367.21,200.94,366.29,200.15,366.29,198.79z M370.8,198.9v-2.11c-2.46,0.31-3.29,0.93-3.29,1.9
			c0,0.86,0.57,1.21,1.29,1.21C369.5,199.91,370.09,199.55,370.8,198.9z"/>
		<path style="fill:#231F20;" d="M374.13,190.79c0-0.5,0.37-0.83,0.86-0.83c0.48,0,0.86,0.33,0.86,0.83c0,0.48-0.38,0.83-0.86,0.83
			C374.5,191.62,374.13,191.27,374.13,190.79z M374.35,193.17h1.24v7.58h-1.24V193.17z"/>
		<path style="fill:#231F20;" d="M377.25,199.89l0.61-0.84c0.64,0.53,1.28,0.9,2.17,0.9c0.96,0,1.44-0.53,1.44-1.18
			c0-0.78-0.87-1.13-1.68-1.44c-1.03-0.39-2.19-0.91-2.19-2.19c0-1.21,0.94-2.15,2.53-2.15c0.91,0,1.71,0.39,2.28,0.85l-0.59,0.82
			c-0.51-0.39-1.02-0.67-1.67-0.67c-0.92,0-1.35,0.51-1.35,1.09c0,0.72,0.8,1,1.63,1.32c1.06,0.41,2.24,0.86,2.24,2.3
			c0,1.23-0.95,2.25-2.68,2.25C378.95,200.94,377.94,200.48,377.25,199.89z"/>
		<path style="fill:#231F20;" d="M383.84,196.97c0-2.47,1.61-3.99,3.3-3.99c1.87,0,2.93,1.39,2.93,3.56c0,0.27-0.02,0.54-0.06,0.73
			h-4.94c0.09,1.61,1.04,2.65,2.44,2.65c0.7,0,1.28-0.23,1.83-0.61l0.44,0.84c-0.64,0.43-1.42,0.79-2.42,0.79
			C385.4,200.94,383.84,199.46,383.84,196.97z M388.97,196.35c0-1.52-0.66-2.34-1.81-2.34c-1.03,0-1.95,0.86-2.1,2.34H388.97z"/>
		<path style="fill:#231F20;" d="M391.35,196.97c0-2.46,1.5-3.99,3.17-3.99c0.85,0,1.41,0.33,2.06,0.88l-0.05-1.3v-2.92h1.24v11.11
			h-1.03l-0.11-0.89h-0.04c-0.57,0.59-1.35,1.08-2.23,1.08C392.54,200.94,391.35,199.5,391.35,196.97z M396.53,198.83v-3.97
			c-0.63-0.58-1.19-0.79-1.79-0.79c-1.17,0-2.11,1.17-2.11,2.9c0,1.82,0.73,2.9,2.01,2.9C395.33,199.86,395.92,199.52,396.53,198.83
			z"/>
	</g>
</g>
<g>
	<g>
		<path style="fill:#231F20;" d="M304.2,227.83h1.8l3.07,5.73l1.02,2.18h0.06c-0.08-1.05-0.22-2.35-0.22-3.48v-4.43h1.67v10.2h-1.8
			l-3.07-5.74l-1.02-2.17h-0.06c0.08,1.08,0.22,2.31,0.22,3.44v4.47h-1.67V227.83z"/>
		<path style="fill:#231F20;" d="M313.46,234.21c0-2.55,1.68-4.02,3.53-4.02c1.85,0,3.53,1.47,3.53,4.02c0,2.54-1.68,4.01-3.53,4.01
			C315.14,238.22,313.46,236.75,313.46,234.21z M318.73,234.21c0-1.53-0.65-2.56-1.74-2.56c-1.09,0-1.74,1.02-1.74,2.56
			c0,1.54,0.65,2.55,1.74,2.55C318.07,236.75,318.73,235.74,318.73,234.21z"/>
		<path style="fill:#231F20;" d="M321.5,237.15l0.81-1.14c0.66,0.53,1.29,0.86,2.05,0.86c0.81,0,1.19-0.39,1.19-0.92
			c0-0.64-0.8-0.93-1.59-1.24c-0.97-0.38-2.08-0.95-2.08-2.23c0-1.33,1.04-2.29,2.7-2.29c1.03,0,1.86,0.43,2.46,0.92l-0.8,1.1
			c-0.52-0.39-1.04-0.67-1.62-0.67c-0.75,0-1.1,0.37-1.1,0.85c0,0.61,0.75,0.84,1.55,1.14c1,0.39,2.13,0.89,2.13,2.31
			c0,1.32-1.01,2.38-2.88,2.38C323.29,238.22,322.23,237.77,321.5,237.15z"/>
		<path style="fill:#231F20;" d="M328.25,234.21c0-2.49,1.67-4.02,3.42-4.02c2,0,3.06,1.5,3.06,3.64c0,0.34-0.04,0.69-0.08,0.87
			h-4.71c0.15,1.36,0.99,2.13,2.19,2.13c0.63,0,1.18-0.21,1.72-0.55l0.59,1.12c-0.71,0.49-1.6,0.83-2.54,0.83
			C329.86,238.22,328.25,236.73,328.25,234.21z M333.23,233.47c0-1.18-0.51-1.9-1.52-1.9c-0.86,0-1.62,0.67-1.77,1.9H333.23z"/>
		<path style="fill:#231F20;" d="M336.25,231.68c0-0.71,0.49-1.22,1.12-1.22s1.12,0.52,1.12,1.22c0,0.69-0.49,1.21-1.12,1.21
			S336.25,232.37,336.25,231.68z M336.25,237.01c0-0.7,0.49-1.22,1.12-1.22s1.12,0.52,1.12,1.22c0,0.69-0.49,1.21-1.12,1.21
			S336.25,237.7,336.25,237.01z"/>
		<path style="fill:#231F20;" d="M343.81,227.8h2.94c2.01,0,3.41,0.71,3.41,2.51c0,1.01-0.52,1.91-1.45,2.22v0.06
			c1.18,0.24,2.01,1.05,2.01,2.45c0,2.01-1.54,2.99-3.75,2.99h-3.17V227.8z M346.54,232.15c1.68,0,2.38-0.64,2.38-1.68
			c0-1.2-0.79-1.64-2.33-1.64h-1.52v3.32H346.54z M346.8,237c1.69,0,2.69-0.63,2.69-2.01c0-1.26-0.96-1.84-2.69-1.84h-1.72V237
			H346.8z"/>
		<path style="fill:#231F20;" d="M352.57,230.45h1.03l0.11,1.38h0.04c0.51-0.96,1.26-1.57,2.09-1.57c0.32,0,0.55,0.04,0.78,0.16
			l-0.23,1.13c-0.25-0.08-0.42-0.13-0.71-0.13c-0.62,0-1.36,0.46-1.86,1.74v4.87h-1.24V230.45z"/>
		<path style="fill:#231F20;" d="M357.27,234.25c0-2.53,1.6-3.99,3.4-3.99s3.4,1.46,3.4,3.99c0,2.51-1.6,3.97-3.4,3.97
			S357.27,236.76,357.27,234.25z M362.78,234.25c0-1.74-0.86-2.92-2.12-2.92s-2.12,1.18-2.12,2.92s0.85,2.9,2.12,2.9
			S362.78,235.99,362.78,234.25z"/>
		<path style="fill:#231F20;" d="M365.54,236.06c0-1.65,1.38-2.48,4.51-2.83c0-0.98-0.32-1.92-1.51-1.92
			c-0.85,0-1.61,0.42-2.19,0.81l-0.49-0.88c0.68-0.46,1.71-0.99,2.88-0.99c1.79,0,2.55,1.23,2.55,3.12v4.65h-1.03l-0.11-0.91h-0.04
			c-0.7,0.6-1.52,1.09-2.43,1.09C366.46,238.22,365.54,237.43,365.54,236.06z M370.04,236.18v-2.11c-2.46,0.31-3.29,0.93-3.29,1.9
			c0,0.86,0.57,1.21,1.29,1.21C368.75,237.18,369.33,236.83,370.04,236.18z"/>
		<path style="fill:#231F20;" d="M373.08,234.25c0-2.46,1.5-3.99,3.17-3.99c0.85,0,1.41,0.33,2.06,0.88l-0.05-1.3v-2.92h1.24v11.11
			h-1.03l-0.11-0.89h-0.04c-0.57,0.59-1.35,1.08-2.23,1.08C374.26,238.22,373.08,236.78,373.08,234.25z M378.25,236.1v-3.97
			c-0.63-0.58-1.19-0.79-1.79-0.79c-1.17,0-2.11,1.17-2.11,2.9c0,1.82,0.73,2.9,2.01,2.9C377.05,237.14,377.64,236.8,378.25,236.1z"
			/>
		<path style="fill:#231F20;" d="M381.43,234.25c0-2.47,1.61-3.99,3.3-3.99c1.87,0,2.93,1.39,2.93,3.56c0,0.27-0.02,0.54-0.06,0.73
			h-4.94c0.09,1.61,1.04,2.65,2.44,2.65c0.7,0,1.28-0.23,1.83-0.61l0.44,0.84c-0.64,0.43-1.42,0.79-2.42,0.79
			C382.99,238.22,381.43,236.74,381.43,234.25z M386.56,233.63c0-1.52-0.66-2.34-1.81-2.34c-1.03,0-1.95,0.86-2.1,2.34H386.56z"/>
		<path style="fill:#231F20;" d="M389.46,230.45h1.03l0.11,1.09h0.04c0.7-0.71,1.45-1.28,2.46-1.28c1.54,0,2.24,1.03,2.24,2.96v4.8
			h-1.24v-4.64c0-1.41-0.41-2.02-1.38-2.02c-0.75,0-1.27,0.4-2,1.16v5.49h-1.24V230.45z"/>
		<path style="fill:#231F20;" d="M397.17,234.25c0-2.47,1.61-3.99,3.3-3.99c1.87,0,2.93,1.39,2.93,3.56c0,0.27-0.02,0.54-0.06,0.73
			h-4.94c0.09,1.61,1.04,2.65,2.44,2.65c0.7,0,1.28-0.23,1.83-0.61l0.44,0.84c-0.64,0.43-1.42,0.79-2.42,0.79
			C398.73,238.22,397.17,236.74,397.17,234.25z M402.3,233.63c0-1.52-0.66-2.34-1.81-2.34c-1.03,0-1.95,0.86-2.1,2.34H402.3z"/>
		<path style="fill:#231F20;" d="M404.68,234.25c0-2.46,1.5-3.99,3.17-3.99c0.85,0,1.41,0.33,2.06,0.88l-0.05-1.3v-2.92h1.24v11.11
			h-1.03l-0.11-0.89h-0.04c-0.57,0.59-1.35,1.08-2.23,1.08C405.87,238.22,404.68,236.78,404.68,234.25z M409.86,236.1v-3.97
			c-0.63-0.58-1.19-0.79-1.79-0.79c-1.17,0-2.11,1.17-2.11,2.9c0,1.82,0.73,2.9,2.01,2.9C408.66,237.14,409.25,236.8,409.86,236.1z"
			/>
	</g>
</g>
<g>
	<g>
		<path style="fill:#231F20;" d="M304.2,267.11h1.8l3.07,5.73l1.02,2.18h0.06c-0.08-1.05-0.22-2.35-0.22-3.48v-4.43h1.67v10.2h-1.8
			l-3.07-5.74l-1.02-2.17h-0.06c0.08,1.08,0.22,2.31,0.22,3.44v4.47h-1.67V267.11z"/>
		<path style="fill:#231F20;" d="M313.55,275.25c0-1.64,1.32-2.5,4.36-2.83c-0.02-0.82-0.34-1.51-1.35-1.51
			c-0.74,0-1.43,0.34-2.08,0.75l-0.64-1.2c0.81-0.53,1.87-1,3.04-1c1.85,0,2.76,1.18,2.76,3.31v4.54h-1.42l-0.13-0.85h-0.05
			c-0.66,0.59-1.42,1.04-2.3,1.04C314.45,277.5,313.55,276.59,313.55,275.25z M317.91,275.26v-1.72c-2.01,0.26-2.68,0.8-2.68,1.58
			c0,0.68,0.45,0.97,1.07,0.97C316.9,276.09,317.36,275.78,317.91,275.26z"/>
		<path style="fill:#231F20;" d="M321,276.43l0.81-1.14c0.66,0.53,1.29,0.86,2.05,0.86c0.81,0,1.19-0.39,1.19-0.92
			c0-0.64-0.8-0.93-1.59-1.24c-0.97-0.38-2.08-0.95-2.08-2.23c0-1.33,1.04-2.29,2.7-2.29c1.03,0,1.86,0.43,2.46,0.92l-0.8,1.1
			c-0.52-0.39-1.04-0.67-1.62-0.67c-0.75,0-1.1,0.37-1.1,0.85c0,0.61,0.75,0.84,1.55,1.14c1,0.39,2.13,0.89,2.13,2.31
			c0,1.32-1.01,2.38-2.88,2.38C322.8,277.5,321.73,277.05,321,276.43z"/>
		<path style="fill:#231F20;" d="M327.75,273.49c0-2.55,1.68-4.02,3.53-4.02c1.85,0,3.53,1.47,3.53,4.02c0,2.54-1.68,4.01-3.53,4.01
			C329.43,277.5,327.75,276.02,327.75,273.49z M333.02,273.49c0-1.53-0.65-2.56-1.74-2.56c-1.09,0-1.74,1.02-1.74,2.56
			c0,1.54,0.65,2.55,1.74,2.55C332.37,276.03,333.02,275.02,333.02,273.49z"/>
		<path style="fill:#231F20;" d="M336.53,275.34v-9.04h1.74v9.14c0,0.44,0.19,0.6,0.38,0.6c0.08,0,0.14,0,0.27-0.03l0.22,1.34
			c-0.21,0.09-0.5,0.16-0.92,0.16C336.98,277.5,336.53,276.67,336.53,275.34z"/>
		<path style="fill:#231F20;" d="M340.22,275.25c0-1.64,1.32-2.5,4.36-2.83c-0.02-0.82-0.34-1.51-1.35-1.51
			c-0.74,0-1.43,0.34-2.08,0.75l-0.64-1.2c0.81-0.53,1.87-1,3.04-1c1.85,0,2.76,1.18,2.76,3.31v4.54h-1.42l-0.13-0.85h-0.05
			c-0.66,0.59-1.42,1.04-2.3,1.04C341.12,277.5,340.22,276.59,340.22,275.25z M344.58,275.26v-1.72c-2.01,0.26-2.68,0.8-2.68,1.58
			c0,0.68,0.45,0.97,1.07,0.97C343.57,276.09,344.03,275.78,344.58,275.26z"/>
		<path style="fill:#231F20;" d="M349.98,276.51h-0.05l-0.15,0.8h-1.37v-11.02h1.74v2.85l-0.05,1.27c0.62-0.56,1.38-0.95,2.14-0.95
			c1.85,0,2.92,1.53,2.92,3.89c0,2.63-1.51,4.15-3.16,4.15C351.33,277.5,350.6,277.14,349.98,276.51z M353.38,273.38
			c0-1.53-0.48-2.43-1.61-2.43c-0.54,0-1.06,0.28-1.62,0.86v3.57c0.52,0.47,1.06,0.64,1.49,0.64
			C352.62,276.01,353.38,275.11,353.38,273.38z"/>
		<path style="fill:#231F20;" d="M356.71,267.29c0-0.61,0.46-1.02,1.07-1.02c0.62,0,1.08,0.41,1.08,1.02c0,0.59-0.46,1.02-1.08,1.02
			C357.17,268.31,356.71,267.88,356.71,267.29z M356.91,269.65h1.74v7.66h-1.74V269.65z"/>
		<path style="fill:#231F20;" d="M360.46,275.25c0-1.64,1.32-2.5,4.36-2.83c-0.02-0.82-0.34-1.51-1.35-1.51
			c-0.74,0-1.43,0.34-2.08,0.75l-0.64-1.2c0.81-0.53,1.87-1,3.04-1c1.85,0,2.76,1.18,2.76,3.31v4.54h-1.42l-0.13-0.85h-0.05
			c-0.66,0.59-1.42,1.04-2.3,1.04C361.36,277.5,360.46,276.59,360.46,275.25z M364.82,275.26v-1.72c-2.01,0.26-2.68,0.8-2.68,1.58
			c0,0.68,0.45,0.97,1.07,0.97C363.81,276.09,364.27,275.78,364.82,275.26z"/>
		<path style="fill:#231F20;" d="M368.65,275.34v-9.04h1.74v9.14c0,0.44,0.19,0.6,0.38,0.6c0.08,0,0.14,0,0.27-0.03l0.22,1.34
			c-0.21,0.09-0.5,0.16-0.92,0.16C369.1,277.5,368.65,276.67,368.65,275.34z"/>
		<path style="fill:#231F20;" d="M375.06,269.73l1.09-0.08h3.1v1.43h-4.18V269.73z M376.06,268.86c0-1.59,0.71-2.75,2.46-2.75
			c0.54,0,1.03,0.13,1.36,0.27l-0.33,1.34c-0.27-0.12-0.55-0.18-0.8-0.18c-0.62,0-0.94,0.4-0.94,1.29v8.48h-1.74V268.86z"/>
		<path style="fill:#231F20;" d="M380.05,273.49c0-2.55,1.68-4.02,3.53-4.02c1.85,0,3.53,1.47,3.53,4.02c0,2.54-1.68,4.01-3.53,4.01
			C381.73,277.5,380.05,276.02,380.05,273.49z M385.32,273.49c0-1.53-0.65-2.56-1.74-2.56c-1.09,0-1.74,1.02-1.74,2.56
			c0,1.54,0.65,2.55,1.74,2.55C384.67,276.03,385.32,275.02,385.32,273.49z"/>
		<path style="fill:#231F20;" d="M388.83,275.34v-9.04h1.74v9.14c0,0.44,0.19,0.6,0.38,0.6c0.08,0,0.14,0,0.27-0.03l0.22,1.34
			c-0.21,0.09-0.5,0.16-0.92,0.16C389.28,277.5,388.83,276.67,388.83,275.34z"/>
		<path style="fill:#231F20;" d="M392.47,273.49c0-2.5,1.51-4.02,3.14-4.02c0.84,0,1.37,0.32,1.94,0.84l-0.07-1.24v-2.78h1.74v11.02
			h-1.42l-0.13-0.83h-0.05c-0.55,0.57-1.31,1.02-2.11,1.02C393.66,277.5,392.47,276.01,392.47,273.49z M397.48,275.15v-3.57
			c-0.51-0.47-1.01-0.64-1.51-0.64c-0.94,0-1.72,0.92-1.72,2.52c0,1.67,0.62,2.54,1.68,2.54C396.51,276.01,397,275.75,397.48,275.15
			z"/>
		<path style="fill:#231F20;" d="M401.28,270.95c0-0.71,0.49-1.22,1.12-1.22s1.12,0.52,1.12,1.22c0,0.69-0.49,1.21-1.12,1.21
			S401.28,271.65,401.28,270.95z M401.28,276.29c0-0.7,0.49-1.22,1.12-1.22s1.12,0.52,1.12,1.22c0,0.69-0.49,1.21-1.12,1.21
			S401.28,276.98,401.28,276.29z"/>
		<path style="fill:#231F20;" d="M304.3,285.79h2.48c3.05,0,4.68,1.83,4.68,5.08s-1.63,5.15-4.62,5.15h-2.53V285.79z M306.68,294.96
			c2.32,0,3.47-1.5,3.47-4.09s-1.16-4.01-3.47-4.01h-1.12v8.1H306.68z"/>
		<path style="fill:#231F20;" d="M312.92,292.25c0-2.47,1.61-3.99,3.3-3.99c1.87,0,2.93,1.39,2.93,3.56c0,0.27-0.02,0.54-0.06,0.73
			h-4.94c0.09,1.61,1.04,2.65,2.44,2.65c0.7,0,1.28-0.23,1.83-0.61l0.44,0.84c-0.64,0.43-1.42,0.79-2.42,0.79
			C314.48,296.22,312.92,294.74,312.92,292.25z M318.05,291.63c0-1.52-0.66-2.34-1.81-2.34c-1.03,0-1.95,0.86-2.1,2.34H318.05z"/>
		<path style="fill:#231F20;" d="M320.41,292.25c0-2.47,1.61-3.99,3.3-3.99c1.87,0,2.93,1.39,2.93,3.56c0,0.27-0.02,0.54-0.06,0.73
			h-4.94c0.09,1.61,1.04,2.65,2.44,2.65c0.7,0,1.28-0.23,1.83-0.61l0.44,0.84c-0.64,0.43-1.42,0.79-2.42,0.79
			C321.96,296.22,320.41,294.74,320.41,292.25z M325.53,291.63c0-1.52-0.66-2.34-1.81-2.34c-1.03,0-1.95,0.86-2.1,2.34H325.53z"/>
		<path style="fill:#231F20;" d="M328.44,288.45h1.03l0.11,0.88h0.04c0.66-0.57,1.49-1.06,2.34-1.06c1.89,0,2.91,1.52,2.91,3.86
			c0,2.58-1.5,4.09-3.18,4.09c-0.67,0-1.36-0.32-2.03-0.88l0.03,1.32v2.57h-1.24V288.45z M333.57,292.13c0-1.67-0.55-2.79-1.93-2.79
			c-0.62,0-1.25,0.35-1.96,1.04v3.97c0.66,0.58,1.3,0.79,1.79,0.79C332.68,295.14,333.57,294.01,333.57,292.13z"/>
		<path style="fill:#231F20;" d="M336.27,292.25c0-2.47,1.61-3.99,3.3-3.99c1.87,0,2.93,1.39,2.93,3.56c0,0.27-0.02,0.54-0.06,0.73
			h-4.94c0.09,1.61,1.04,2.65,2.44,2.65c0.7,0,1.28-0.23,1.83-0.61l0.44,0.84c-0.64,0.43-1.42,0.79-2.42,0.79
			C337.83,296.22,336.27,294.74,336.27,292.25z M341.4,291.63c0-1.52-0.66-2.34-1.81-2.34c-1.03,0-1.95,0.86-2.1,2.34H341.4z"/>
		<path style="fill:#231F20;" d="M344.3,288.45h1.03l0.11,1.09h0.04c0.7-0.71,1.45-1.28,2.46-1.28c1.54,0,2.24,1.03,2.24,2.96v4.8
			h-1.24v-4.64c0-1.41-0.41-2.02-1.38-2.02c-0.75,0-1.27,0.4-2,1.16v5.49h-1.24V288.45z"/>
		<path style="fill:#231F20;" d="M352.01,292.25c0-2.47,1.61-3.99,3.3-3.99c1.87,0,2.93,1.39,2.93,3.56c0,0.27-0.02,0.54-0.06,0.73
			h-4.94c0.09,1.61,1.04,2.65,2.44,2.65c0.7,0,1.28-0.23,1.83-0.61l0.44,0.84c-0.64,0.43-1.42,0.79-2.42,0.79
			C353.57,296.22,352.01,294.74,352.01,292.25z M357.14,291.63c0-1.52-0.66-2.34-1.81-2.34c-1.03,0-1.95,0.86-2.1,2.34H357.14z"/>
		<path style="fill:#231F20;" d="M359.52,292.25c0-2.46,1.5-3.99,3.17-3.99c0.85,0,1.41,0.33,2.06,0.88l-0.05-1.3v-2.92h1.24v11.11
			h-1.03l-0.11-0.89h-0.04c-0.57,0.59-1.35,1.08-2.23,1.08C360.71,296.22,359.52,294.77,359.52,292.25z M364.7,294.1v-3.97
			c-0.63-0.58-1.19-0.79-1.79-0.79c-1.17,0-2.11,1.17-2.11,2.9c0,1.82,0.73,2.9,2.01,2.9C363.5,295.14,364.08,294.79,364.7,294.1z"
			/>
	</g>
</g>
<g>
	<g>
		<path style="fill:#231F20;" d="M304.2,318.92h1.98l1.75,4.98c0.22,0.65,0.42,1.33,0.63,2h0.06c0.22-0.67,0.41-1.35,0.62-2
			l1.71-4.98h1.98v10.2h-1.61v-4.67c0-0.94,0.14-2.3,0.22-3.24h-0.06l-0.8,2.37l-1.62,4.58h-1.04l-1.63-4.58l-0.79-2.37h-0.06
			c0.08,0.94,0.22,2.3,0.22,3.24v4.67h-1.58V318.92z"/>
		<path style="fill:#231F20;" d="M314.8,325.3c0-2.55,1.68-4.02,3.53-4.02c1.85,0,3.53,1.47,3.53,4.02c0,2.54-1.68,4.01-3.53,4.01
			C316.48,329.31,314.8,327.83,314.8,325.3z M320.07,325.3c0-1.53-0.65-2.56-1.74-2.56c-1.09,0-1.74,1.02-1.74,2.56
			c0,1.54,0.65,2.55,1.74,2.55C319.42,327.84,320.07,326.83,320.07,325.3z"/>
		<path style="fill:#231F20;" d="M323.5,326.26v-4.8h1.74v4.57c0,1.26,0.35,1.73,1.15,1.73c0.65,0,1.08-0.31,1.64-1.06v-5.25h1.74
			v7.66h-1.42l-0.13-1.13h-0.05c-0.65,0.8-1.37,1.32-2.38,1.32C324.19,329.31,323.5,328.2,323.5,326.26z"/>
		<path style="fill:#231F20;" d="M332.23,326.54v-3.65h-1.06v-1.35l1.15-0.08l0.21-2.09h1.44v2.09h1.89v1.43h-1.89v3.65
			c0,0.9,0.34,1.34,1.05,1.34c0.25,0,0.55-0.09,0.77-0.17l0.3,1.32c-0.4,0.14-0.92,0.28-1.52,0.28
			C332.87,329.31,332.23,328.19,332.23,326.54z"/>
		<path style="fill:#231F20;" d="M337.42,318.1h1.74v2.85l-0.07,1.48c0.62-0.61,1.36-1.16,2.37-1.16c1.59,0,2.28,1.11,2.28,3.04v4.8
			H342v-4.57c0-1.26-0.35-1.73-1.15-1.73c-0.65,0-1.08,0.33-1.69,0.96v5.35h-1.74V318.1z"/>
		<path style="fill:#231F20;" d="M345.69,322.76c0-0.71,0.49-1.22,1.12-1.22s1.12,0.52,1.12,1.22c0,0.69-0.49,1.21-1.12,1.21
			S345.69,323.46,345.69,322.76z M345.69,328.1c0-0.7,0.49-1.22,1.12-1.22s1.12,0.52,1.12,1.22c0,0.69-0.49,1.21-1.12,1.21
			S345.69,328.79,345.69,328.1z"/>
		<path style="fill:#231F20;" d="M352.69,323.97c0-3.28,1.75-5.27,4.23-5.27s4.23,2,4.23,5.27c0,3.28-1.75,5.34-4.23,5.34
			S352.69,327.24,352.69,323.97z M359.85,323.97c0-2.55-1.16-4.12-2.93-4.12s-2.93,1.57-2.93,4.12s1.16,4.2,2.93,4.2
			S359.85,326.52,359.85,323.97z"/>
		<path style="fill:#231F20;" d="M363.17,321.54h1.03l0.11,0.88h0.04c0.66-0.57,1.49-1.06,2.34-1.06c1.89,0,2.91,1.52,2.91,3.86
			c0,2.58-1.5,4.09-3.18,4.09c-0.67,0-1.36-0.32-2.03-0.88l0.03,1.32v2.57h-1.24V321.54z M368.31,325.23c0-1.67-0.55-2.79-1.93-2.79
			c-0.62,0-1.25,0.35-1.96,1.04v3.97c0.66,0.58,1.3,0.79,1.79,0.79C367.41,328.23,368.31,327.1,368.31,325.23z"/>
		<path style="fill:#231F20;" d="M371,325.34c0-2.47,1.61-3.99,3.3-3.99c1.87,0,2.93,1.39,2.93,3.56c0,0.27-0.02,0.54-0.06,0.73
			h-4.94c0.09,1.61,1.04,2.65,2.44,2.65c0.7,0,1.28-0.23,1.83-0.61l0.44,0.84c-0.64,0.43-1.42,0.79-2.42,0.79
			C372.56,329.31,371,327.83,371,325.34z M376.13,324.72c0-1.52-0.66-2.34-1.81-2.34c-1.03,0-1.95,0.86-2.1,2.34H376.13z"/>
		<path style="fill:#231F20;" d="M379.03,321.54h1.03l0.11,1.09h0.04c0.7-0.71,1.45-1.28,2.46-1.28c1.54,0,2.24,1.03,2.24,2.96v4.8
			h-1.24v-4.64c0-1.41-0.41-2.02-1.38-2.02c-0.75,0-1.27,0.4-2,1.16v5.49h-1.24V321.54z"/>
		<path style="fill:#231F20;" d="M386.76,331.02c0.85-0.39,1.36-1.08,1.36-1.93l-0.13-1.15l0.61,0.94
			c-0.17,0.21-0.39,0.27-0.63,0.27c-0.48,0-0.9-0.31-0.9-0.89c0-0.56,0.43-0.89,0.92-0.89c0.66,0,1.05,0.57,1.05,1.51
			c0,1.35-0.76,2.4-1.98,2.92L386.76,331.02z"/>
		<path style="fill:#231F20;" d="M393.25,328.25l0.61-0.84c0.64,0.53,1.28,0.9,2.17,0.9c0.96,0,1.44-0.53,1.44-1.18
			c0-0.78-0.87-1.13-1.68-1.44c-1.03-0.39-2.19-0.91-2.19-2.19c0-1.21,0.94-2.15,2.53-2.15c0.91,0,1.71,0.39,2.28,0.85l-0.59,0.82
			c-0.51-0.39-1.02-0.67-1.67-0.67c-0.92,0-1.35,0.51-1.35,1.09c0,0.72,0.8,1,1.63,1.32c1.06,0.41,2.24,0.86,2.24,2.3
			c0,1.23-0.95,2.25-2.68,2.25C394.95,329.31,393.94,328.85,393.25,328.25z"/>
		<path style="fill:#231F20;" d="M405.04,329.62l0.05-1.37c-0.59,0.59-1.36,1.06-2.21,1.06c-1.83,0-3.02-1.44-3.02-3.97
			c0-2.46,1.5-3.99,3.17-3.99c0.85,0,1.45,0.32,2.1,0.91h0.04l0.12-0.72h0.99v10.78h-1.24V329.62z M405.04,327.19v-3.97
			c-0.63-0.58-1.19-0.79-1.79-0.79c-1.17,0-2.11,1.17-2.11,2.9c0,1.82,0.73,2.9,2.01,2.9C403.84,328.23,404.43,327.89,405.04,327.19
			z"/>
		<path style="fill:#231F20;" d="M408.67,326.34v-4.8h1.24v4.64c0,1.41,0.41,2.02,1.38,2.02c0.75,0,1.27-0.38,1.96-1.28v-5.38h1.24
			v7.58h-1.03l-0.1-1.19h-0.04c-0.68,0.83-1.41,1.37-2.42,1.37C409.36,329.31,408.67,328.28,408.67,326.34z"/>
		<path style="fill:#231F20;" d="M416.52,327.15c0-1.65,1.38-2.48,4.51-2.83c0-0.98-0.32-1.92-1.51-1.92
			c-0.85,0-1.61,0.42-2.19,0.81l-0.49-0.88c0.68-0.46,1.71-0.99,2.88-0.99c1.79,0,2.55,1.23,2.55,3.12v4.65h-1.03l-0.11-0.91h-0.04
			c-0.7,0.6-1.52,1.09-2.43,1.09C417.45,329.31,416.52,328.52,416.52,327.15z M421.03,327.27v-2.11c-2.46,0.31-3.29,0.93-3.29,1.9
			c0,0.86,0.57,1.21,1.29,1.21C419.73,328.27,420.32,327.92,421.03,327.27z"/>
		<path style="fill:#231F20;" d="M424.59,321.54h1.03l0.11,1.38h0.04c0.51-0.96,1.26-1.57,2.09-1.57c0.32,0,0.55,0.04,0.78,0.16
			l-0.23,1.13c-0.25-0.08-0.42-0.13-0.71-0.13c-0.62,0-1.36,0.46-1.86,1.74v4.87h-1.24V321.54z"/>
		<path style="fill:#231F20;" d="M429.6,319.15c0-0.5,0.37-0.83,0.86-0.83c0.48,0,0.86,0.33,0.86,0.83c0,0.48-0.38,0.83-0.86,0.83
			C429.97,319.98,429.6,319.64,429.6,319.15z M429.82,321.54h1.24v7.58h-1.24V321.54z"/>
		<path style="fill:#231F20;" d="M432.72,328.25l0.61-0.84c0.64,0.53,1.28,0.9,2.17,0.9c0.96,0,1.44-0.53,1.44-1.18
			c0-0.78-0.87-1.13-1.68-1.44c-1.03-0.39-2.19-0.91-2.19-2.19c0-1.21,0.94-2.15,2.53-2.15c0.91,0,1.71,0.39,2.28,0.85l-0.59,0.82
			c-0.51-0.39-1.02-0.67-1.67-0.67c-0.92,0-1.35,0.51-1.35,1.09c0,0.72,0.8,1,1.63,1.32c1.06,0.41,2.24,0.86,2.24,2.3
			c0,1.23-0.95,2.25-2.68,2.25C434.42,329.31,433.41,328.85,432.72,328.25z"/>
		<path style="fill:#231F20;" d="M439.86,318.01h1.24v3.04l-0.04,1.56c0.68-0.68,1.43-1.25,2.44-1.25c1.54,0,2.24,1.03,2.24,2.96
			v4.8h-1.24v-4.64c0-1.41-0.41-2.02-1.38-2.02c-0.75,0-1.27,0.4-2,1.16v5.49h-1.24V318.01z"/>
	</g>
</g>
<g>
	<g>
		<path style="fill:#231F20;" d="M304.2,76.28h5.96v1.52h-4.21v2.89h3.59v1.52h-3.59v4.26h-1.75V76.28z"/>
		<path style="fill:#231F20;" d="M311.26,82.66c0-2.55,1.68-4.02,3.53-4.02c1.85,0,3.53,1.47,3.53,4.02c0,2.54-1.68,4.01-3.53,4.01
			C312.94,86.67,311.26,85.19,311.26,82.66z M316.52,82.66c0-1.53-0.65-2.56-1.74-2.56c-1.09,0-1.74,1.02-1.74,2.56
			s0.65,2.54,1.74,2.54C315.87,85.2,316.52,84.19,316.52,82.66z"/>
		<path style="fill:#231F20;" d="M320.03,78.82h1.42l0.13,1.37h0.05c0.53-1,1.31-1.55,2.11-1.55c0.38,0,0.62,0.05,0.84,0.16
			l-0.3,1.56c-0.26-0.07-0.45-0.12-0.76-0.12c-0.59,0-1.3,0.42-1.75,1.58v4.67h-1.74V78.82z"/>
		<path style="fill:#231F20;" d="M325.17,82.66c0-2.49,1.67-4.02,3.42-4.02c2,0,3.06,1.5,3.06,3.64c0,0.34-0.04,0.69-0.08,0.87
			h-4.71c0.15,1.36,0.99,2.13,2.19,2.13c0.63,0,1.18-0.21,1.72-0.56l0.59,1.12c-0.71,0.49-1.6,0.83-2.54,0.83
			C326.78,86.67,325.17,85.18,325.17,82.66z M330.15,81.92c0-1.18-0.51-1.9-1.52-1.9c-0.86,0-1.62,0.67-1.77,1.9H330.15z"/>
		<path style="fill:#231F20;" d="M333.32,75.46h1.74v2.85l-0.07,1.48c0.62-0.6,1.36-1.16,2.37-1.16c1.59,0,2.28,1.11,2.28,3.04v4.8
			h-1.74v-4.57c0-1.26-0.35-1.73-1.15-1.73c-0.65,0-1.08,0.33-1.69,0.95v5.35h-1.74V75.46z"/>
		<path style="fill:#231F20;" d="M341.25,82.66c0-2.49,1.67-4.02,3.42-4.02c2,0,3.06,1.5,3.06,3.64c0,0.34-0.04,0.69-0.08,0.87
			h-4.71c0.15,1.36,0.99,2.13,2.19,2.13c0.63,0,1.18-0.21,1.72-0.56l0.59,1.12c-0.71,0.49-1.6,0.83-2.54,0.83
			C342.86,86.67,341.25,85.18,341.25,82.66z M346.22,81.92c0-1.18-0.51-1.9-1.52-1.9c-0.86,0-1.62,0.67-1.77,1.9H346.22z"/>
		<path style="fill:#231F20;" d="M348.99,84.42c0-1.64,1.32-2.5,4.36-2.83c-0.02-0.82-0.34-1.51-1.35-1.51
			c-0.74,0-1.43,0.34-2.08,0.75l-0.64-1.2c0.81-0.53,1.87-1,3.04-1c1.85,0,2.76,1.18,2.76,3.31v4.53h-1.42l-0.13-0.85h-0.05
			c-0.66,0.59-1.42,1.04-2.3,1.04C349.89,86.67,348.99,85.76,348.99,84.42z M353.35,84.43v-1.72c-2.01,0.26-2.68,0.8-2.68,1.58
			c0,0.68,0.45,0.97,1.07,0.97C352.34,85.26,352.8,84.95,353.35,84.43z"/>
		<path style="fill:#231F20;" d="M356.73,82.66c0-2.5,1.51-4.02,3.14-4.02c0.84,0,1.37,0.32,1.94,0.84l-0.07-1.24v-2.78h1.74v11.02
			h-1.42l-0.13-0.83h-0.05c-0.55,0.57-1.31,1.02-2.11,1.02C357.92,86.67,356.73,85.18,356.73,82.66z M361.74,84.32v-3.57
			c-0.51-0.47-1.01-0.64-1.51-0.64c-0.94,0-1.72,0.92-1.72,2.52c0,1.67,0.62,2.54,1.68,2.54C360.77,85.18,361.25,84.92,361.74,84.32
			z"/>
		<path style="fill:#231F20;" d="M365.54,80.12c0-0.7,0.49-1.22,1.12-1.22s1.12,0.52,1.12,1.22c0,0.69-0.49,1.21-1.12,1.21
			S365.54,80.82,365.54,80.12z M365.54,85.46c0-0.71,0.49-1.22,1.12-1.22s1.12,0.52,1.12,1.22c0,0.69-0.49,1.21-1.12,1.21
			S365.54,86.15,365.54,85.46z"/>
		<path style="fill:#231F20;" d="M373.11,76.24h2.94c2.01,0,3.41,0.71,3.41,2.51c0,1.01-0.52,1.91-1.45,2.22v0.06
			c1.18,0.24,2.01,1.05,2.01,2.45c0,2.01-1.54,2.99-3.75,2.99h-3.17V76.24z M375.84,80.6c1.68,0,2.38-0.64,2.38-1.68
			c0-1.2-0.79-1.64-2.33-1.64h-1.52v3.32H375.84z M376.09,85.45c1.69,0,2.69-0.63,2.69-2.01c0-1.26-0.96-1.84-2.69-1.84h-1.72v3.85
			H376.09z"/>
		<path style="fill:#231F20;" d="M381.77,83.7v-4.8h1.24v4.64c0,1.41,0.41,2.02,1.38,2.02c0.75,0,1.27-0.38,1.96-1.28V78.9h1.24
			v7.58h-1.03l-0.1-1.19h-0.04c-0.68,0.83-1.41,1.37-2.42,1.37C382.47,86.67,381.77,85.64,381.77,83.7z"/>
		<path style="fill:#231F20;" d="M390.08,84.96v-9.59h1.24v9.68c0,0.39,0.17,0.55,0.35,0.55c0.07,0,0.13,0,0.27-0.03l0.17,0.98
			c-0.18,0.07-0.39,0.12-0.71,0.12C390.46,86.67,390.08,86.05,390.08,84.96z"/>
		<path style="fill:#231F20;" d="M393.37,87.94c0-0.65,0.4-1.26,1.08-1.71v-0.06c-0.37-0.24-0.66-0.65-0.66-1.24
			c0-0.63,0.43-1.13,0.81-1.41v-0.06c-0.49-0.39-0.95-1.13-0.95-2.04c0-1.66,1.26-2.7,2.75-2.7c0.4,0,0.77,0.08,1.04,0.19H400v0.99
			h-1.51c0.35,0.34,0.6,0.91,0.6,1.56c0,1.62-1.19,2.63-2.69,2.63c-0.36,0-0.76-0.09-1.09-0.26c-0.26,0.23-0.47,0.48-0.47,0.9
			c0,0.48,0.3,0.82,1.29,0.82h1.43c1.71,0,2.56,0.55,2.56,1.81c0,1.41-1.44,2.62-3.71,2.62C394.61,89.97,393.37,89.24,393.37,87.94z
			 M398.9,87.54c0-0.7-0.51-0.94-1.48-0.94h-1.27c-0.28,0-0.63-0.03-0.95-0.11c-0.52,0.38-0.75,0.84-0.75,1.27
			c0,0.81,0.79,1.33,2.13,1.33C397.98,89.08,398.9,88.33,398.9,87.54z M397.96,81.41c0-1.1-0.69-1.77-1.56-1.77
			s-1.56,0.66-1.56,1.77c0,1.1,0.71,1.8,1.56,1.8C397.25,83.21,397.96,82.52,397.96,81.41z"/>
		<path style="fill:#231F20;" d="M400.99,82.7c0-2.47,1.61-3.99,3.3-3.99c1.87,0,2.93,1.39,2.93,3.56c0,0.27-0.02,0.54-0.06,0.73
			h-4.94c0.09,1.61,1.04,2.65,2.44,2.65c0.7,0,1.28-0.23,1.83-0.61l0.44,0.84c-0.64,0.44-1.42,0.79-2.42,0.79
			C402.55,86.67,400.99,85.19,400.99,82.7z M406.12,82.08c0-1.52-0.66-2.34-1.81-2.34c-1.03,0-1.95,0.86-2.1,2.34H406.12z"/>
		<path style="fill:#231F20;" d="M305.33,104.41h-0.04l-0.12,0.78h-0.99V94.09h1.24v3.04l-0.04,1.36c0.67-0.6,1.49-1.06,2.3-1.06
			c1.9,0,2.91,1.52,2.91,3.86c0,2.59-1.5,4.1-3.18,4.1C306.74,105.38,305.98,105.02,305.33,104.41z M309.32,101.3
			c0-1.67-0.55-2.79-1.93-2.79c-0.62,0-1.27,0.35-1.96,1.03v3.97c0.64,0.58,1.3,0.79,1.79,0.79
			C308.42,104.31,309.32,103.18,309.32,101.3z"/>
		<path style="fill:#231F20;" d="M311.98,101.42c0-2.47,1.61-3.99,3.3-3.99c1.87,0,2.93,1.39,2.93,3.56c0,0.27-0.02,0.54-0.06,0.73
			h-4.94c0.09,1.61,1.04,2.65,2.44,2.65c0.7,0,1.28-0.23,1.83-0.61l0.44,0.84c-0.64,0.44-1.42,0.79-2.42,0.79
			C313.54,105.38,311.98,103.91,311.98,101.42z M317.11,100.8c0-1.52-0.66-2.34-1.81-2.34c-1.03,0-1.95,0.86-2.1,2.34H317.11z"/>
		<path style="fill:#231F20;" d="M320.23,102.85v-4.19h-1.09v-0.97l1.15-0.07l0.15-2.13h1.04v2.13h1.99v1.04h-1.99v4.21
			c0,0.93,0.29,1.46,1.13,1.46c0.26,0,0.6-0.1,0.84-0.2l0.24,0.97c-0.41,0.14-0.9,0.28-1.36,0.28
			C320.76,105.38,320.23,104.36,320.23,102.85z"/>
		<path style="fill:#231F20;" d="M324.24,97.62h1.27l1.09,4.38c0.16,0.72,0.3,1.4,0.44,2.11h0.06c0.16-0.71,0.32-1.41,0.5-2.11
			l1.13-4.38h1.21l1.14,4.38c0.18,0.72,0.34,1.4,0.51,2.11h0.06c0.16-0.71,0.29-1.39,0.45-2.11l1.07-4.38h1.18l-1.97,7.58h-1.51
			l-1.06-4.07c-0.18-0.72-0.32-1.41-0.5-2.18h-0.06c-0.16,0.77-0.31,1.49-0.5,2.2l-1.03,4.05h-1.45L324.24,97.62z"/>
		<path style="fill:#231F20;" d="M335.41,101.42c0-2.47,1.61-3.99,3.3-3.99c1.87,0,2.93,1.39,2.93,3.56c0,0.27-0.02,0.54-0.06,0.73
			h-4.94c0.09,1.61,1.04,2.65,2.44,2.65c0.7,0,1.28-0.23,1.83-0.61l0.44,0.84c-0.64,0.44-1.42,0.79-2.42,0.79
			C336.97,105.38,335.41,103.91,335.41,101.42z M340.54,100.8c0-1.52-0.66-2.34-1.81-2.34c-1.03,0-1.95,0.86-2.1,2.34H340.54z"/>
		<path style="fill:#231F20;" d="M342.9,101.42c0-2.47,1.61-3.99,3.3-3.99c1.87,0,2.93,1.39,2.93,3.56c0,0.27-0.02,0.54-0.06,0.73
			h-4.94c0.09,1.61,1.04,2.65,2.44,2.65c0.7,0,1.28-0.23,1.83-0.61l0.44,0.84c-0.64,0.44-1.42,0.79-2.42,0.79
			C344.45,105.38,342.9,103.91,342.9,101.42z M348.02,100.8c0-1.52-0.66-2.34-1.81-2.34c-1.03,0-1.95,0.86-2.1,2.34H348.02z"/>
		<path style="fill:#231F20;" d="M350.93,97.62h1.03l0.11,1.09h0.04c0.7-0.71,1.45-1.28,2.46-1.28c1.54,0,2.24,1.03,2.24,2.96v4.8
			h-1.24v-4.64c0-1.41-0.41-2.02-1.38-2.02c-0.75,0-1.27,0.4-2,1.16v5.49h-1.24V97.62z"/>
		<path style="fill:#231F20;" d="M363.35,104.41h-0.04l-0.12,0.78h-0.99V94.09h1.24v3.04l-0.04,1.36c0.67-0.6,1.49-1.06,2.3-1.06
			c1.9,0,2.91,1.52,2.91,3.86c0,2.59-1.5,4.1-3.18,4.1C364.76,105.38,364,105.02,363.35,104.41z M367.34,101.3
			c0-1.67-0.55-2.79-1.93-2.79c-0.62,0-1.27,0.35-1.96,1.03v3.97c0.64,0.58,1.3,0.79,1.79,0.79
			C366.44,104.31,367.34,103.18,367.34,101.3z"/>
		<path style="fill:#231F20;" d="M370.55,97.62h1.03l0.11,1.38h0.04c0.51-0.96,1.26-1.57,2.09-1.57c0.32,0,0.55,0.04,0.78,0.16
			l-0.23,1.13c-0.25-0.08-0.42-0.12-0.71-0.12c-0.62,0-1.36,0.46-1.86,1.74v4.87h-1.24V97.62z"/>
		<path style="fill:#231F20;" d="M375.24,101.42c0-2.53,1.6-3.99,3.4-3.99s3.4,1.46,3.4,3.99c0,2.51-1.6,3.97-3.4,3.97
			S375.24,103.93,375.24,101.42z M380.76,101.42c0-1.74-0.86-2.92-2.12-2.92s-2.12,1.18-2.12,2.92c0,1.74,0.85,2.9,2.12,2.9
			S380.76,103.15,380.76,101.42z"/>
		<path style="fill:#231F20;" d="M383.09,97.62h1.27l1.09,4.38c0.16,0.72,0.3,1.4,0.44,2.11h0.06c0.16-0.71,0.32-1.41,0.5-2.11
			l1.13-4.38h1.21l1.14,4.38c0.18,0.72,0.34,1.4,0.51,2.11h0.06c0.16-0.71,0.29-1.39,0.45-2.11l1.07-4.38h1.18l-1.97,7.58h-1.51
			l-1.06-4.07c-0.18-0.72-0.32-1.41-0.5-2.18h-0.06c-0.16,0.77-0.31,1.49-0.5,2.2l-1.03,4.05h-1.45L383.09,97.62z"/>
		<path style="fill:#231F20;" d="M393.99,104.33l0.61-0.84c0.64,0.53,1.28,0.9,2.17,0.9c0.96,0,1.44-0.53,1.44-1.18
			c0-0.78-0.87-1.13-1.68-1.44c-1.03-0.39-2.19-0.91-2.19-2.19c0-1.21,0.94-2.15,2.53-2.15c0.91,0,1.71,0.39,2.28,0.85l-0.59,0.82
			c-0.51-0.39-1.02-0.67-1.67-0.67c-0.92,0-1.35,0.51-1.35,1.09c0,0.72,0.8,0.99,1.63,1.31c1.06,0.41,2.24,0.86,2.24,2.3
			c0,1.23-0.95,2.25-2.68,2.25C395.69,105.38,394.68,104.93,393.99,104.33z"/>
		<path style="fill:#231F20;" d="M400.6,107.09c0.85-0.39,1.36-1.08,1.36-1.93l-0.13-1.15l0.61,0.94c-0.17,0.21-0.39,0.27-0.63,0.27
			c-0.48,0-0.9-0.31-0.9-0.89c0-0.56,0.43-0.89,0.92-0.89c0.66,0,1.05,0.57,1.05,1.51c0,1.35-0.76,2.4-1.98,2.92L400.6,107.09z"/>
		<path style="fill:#231F20;" d="M303.13,116.33h1.28l1.39,4.31c0.22,0.74,0.46,1.51,0.68,2.24h0.06c0.22-0.72,0.46-1.5,0.68-2.24
			l1.39-4.31h1.22l-2.59,7.58h-1.44L303.13,116.33z"/>
		<path style="fill:#231F20;" d="M310.69,120.14c0-2.47,1.61-3.99,3.3-3.99c1.87,0,2.93,1.39,2.93,3.56c0,0.27-0.02,0.54-0.06,0.73
			h-4.94c0.09,1.61,1.04,2.65,2.44,2.65c0.7,0,1.28-0.23,1.83-0.61l0.44,0.84c-0.64,0.44-1.42,0.79-2.42,0.79
			C312.24,124.1,310.69,122.63,310.69,120.14z M315.81,119.51c0-1.52-0.66-2.35-1.81-2.35c-1.03,0-1.95,0.86-2.1,2.35H315.81z"/>
		<path style="fill:#231F20;" d="M318.72,116.33h1.03l0.11,1.38h0.04c0.51-0.96,1.26-1.57,2.09-1.57c0.32,0,0.55,0.04,0.78,0.16
			l-0.23,1.13c-0.25-0.08-0.42-0.12-0.71-0.12c-0.62,0-1.36,0.46-1.86,1.74v4.87h-1.24V116.33z"/>
		<path style="fill:#231F20;" d="M324.17,121.57v-4.19h-1.09v-0.97l1.15-0.07l0.15-2.13h1.04v2.13h1.99v1.04h-1.99v4.21
			c0,0.93,0.29,1.46,1.13,1.46c0.26,0,0.6-0.1,0.84-0.2l0.24,0.97c-0.41,0.14-0.9,0.28-1.36,0.28
			C324.7,124.1,324.17,123.08,324.17,121.57z"/>
		<path style="fill:#231F20;" d="M328.83,113.95c0-0.5,0.37-0.83,0.86-0.83c0.48,0,0.86,0.32,0.86,0.83c0,0.48-0.38,0.83-0.86,0.83
			C329.2,114.78,328.83,114.43,328.83,113.95z M329.06,116.33h1.24v7.58h-1.24V116.33z"/>
		<path style="fill:#231F20;" d="M332.22,120.14c0-2.53,1.65-3.99,3.53-3.99c0.96,0,1.63,0.41,2.15,0.89l-0.63,0.85
			c-0.43-0.4-0.88-0.67-1.46-0.67c-1.33,0-2.3,1.18-2.3,2.92c0,1.74,0.92,2.9,2.27,2.9c0.67,0,1.26-0.34,1.72-0.76l0.54,0.86
			c-0.66,0.61-1.49,0.96-2.37,0.96C333.71,124.1,332.22,122.64,332.22,120.14z"/>
		<path style="fill:#231F20;" d="M339.2,121.95c0-1.65,1.38-2.48,4.51-2.83c0-0.98-0.32-1.91-1.51-1.91c-0.85,0-1.61,0.42-2.19,0.81
			l-0.49-0.88c0.68-0.46,1.71-0.99,2.88-0.99c1.79,0,2.55,1.23,2.55,3.12v4.65h-1.03l-0.11-0.91h-0.04c-0.7,0.6-1.52,1.09-2.43,1.09
			C340.12,124.1,339.2,123.31,339.2,121.95z M343.7,122.07v-2.1c-2.46,0.31-3.29,0.93-3.29,1.9c0,0.86,0.57,1.21,1.29,1.21
			C342.41,123.07,342.99,122.71,343.7,122.07z"/>
		<path style="fill:#231F20;" d="M347.26,122.39v-9.59h1.24v9.68c0,0.39,0.17,0.55,0.35,0.55c0.07,0,0.13,0,0.27-0.03l0.17,0.98
			c-0.18,0.07-0.39,0.12-0.71,0.12C347.64,124.1,347.26,123.49,347.26,122.39z"/>
		<path style="fill:#231F20;" d="M353.34,116.41l1.05-0.07h2.74v1.04h-3.79V116.41z M354.33,115.14c0-1.54,0.68-2.52,2.15-2.52
			c0.45,0,0.89,0.12,1.22,0.26l-0.26,0.98c-0.28-0.13-0.57-0.2-0.83-0.2c-0.69,0-1.03,0.5-1.03,1.48v8.77h-1.24V115.14z"/>
		<path style="fill:#231F20;" d="M358.44,121.14v-4.8h1.24v4.64c0,1.41,0.41,2.02,1.38,2.02c0.75,0,1.27-0.38,1.96-1.28v-5.38h1.24
			v7.58h-1.03l-0.1-1.19h-0.04c-0.68,0.83-1.41,1.37-2.42,1.37C359.13,124.1,358.44,123.07,358.44,121.14z"/>
		<path style="fill:#231F20;" d="M366.75,116.33h1.03l0.11,1.38h0.04c0.51-0.96,1.26-1.57,2.09-1.57c0.32,0,0.55,0.04,0.78,0.16
			l-0.23,1.13c-0.25-0.08-0.42-0.12-0.71-0.12c-0.62,0-1.36,0.46-1.86,1.74v4.87h-1.24V116.33z"/>
		<path style="fill:#231F20;" d="M371.98,116.33h1.03l0.11,1.38h0.04c0.51-0.96,1.26-1.57,2.09-1.57c0.32,0,0.55,0.04,0.78,0.16
			l-0.23,1.13c-0.25-0.08-0.42-0.12-0.71-0.12c-0.62,0-1.36,0.46-1.86,1.74v4.87h-1.24V116.33z"/>
		<path style="fill:#231F20;" d="M376.67,120.14c0-2.53,1.6-3.99,3.4-3.99s3.4,1.46,3.4,3.99c0,2.51-1.6,3.97-3.4,3.97
			S376.67,122.64,376.67,120.14z M382.19,120.14c0-1.74-0.86-2.92-2.12-2.92s-2.12,1.18-2.12,2.92c0,1.74,0.85,2.9,2.12,2.9
			S382.19,121.87,382.19,120.14z"/>
		<path style="fill:#231F20;" d="M384.53,116.33h1.27l1.09,4.38c0.16,0.72,0.3,1.4,0.44,2.11h0.06c0.16-0.71,0.32-1.41,0.5-2.11
			l1.13-4.38h1.21l1.14,4.38c0.18,0.72,0.34,1.4,0.51,2.11h0.06c0.16-0.71,0.29-1.39,0.45-2.11l1.07-4.38h1.18l-1.97,7.58h-1.51
			l-1.06-4.07c-0.18-0.72-0.32-1.41-0.5-2.18h-0.06c-0.16,0.77-0.31,1.49-0.5,2.2l-1.03,4.05h-1.45L384.53,116.33z"/>
		<path style="fill:#231F20;" d="M395.42,123.05l0.61-0.84c0.64,0.53,1.28,0.9,2.17,0.9c0.96,0,1.44-0.53,1.44-1.18
			c0-0.78-0.87-1.13-1.68-1.44c-1.03-0.39-2.19-0.91-2.19-2.19c0-1.21,0.94-2.15,2.53-2.15c0.91,0,1.71,0.39,2.28,0.85l-0.59,0.82
			c-0.51-0.39-1.02-0.67-1.67-0.67c-0.92,0-1.35,0.51-1.35,1.09c0,0.72,0.8,0.99,1.63,1.31c1.06,0.41,2.24,0.86,2.24,2.3
			c0,1.23-0.95,2.25-2.68,2.25C397.12,124.1,396.11,123.65,395.42,123.05z"/>
	</g>
</g>
<path style="fill:none;stroke:#939598;stroke-width:0.5;stroke-linejoin:round;" d="M299.12,25.17H192.27l0.31,29.87
	c-0.51,57.96-0.31,54.69-0.31,54.69"/>
<line style="fill:none;stroke:#939598;stroke-width:0.5;stroke-linejoin:round;" x1="227.79" y1="183.77" x2="249.63" y2="234.2"/>
<polyline style="fill:none;stroke:#939598;stroke-width:0.5;stroke-linejoin:round;" points="295.36,324.45 230.72,324.45 
	217.26,252.34 "/>
<polyline style="fill:none;stroke:#939598;stroke-width:0.5;stroke-linejoin:round;" points="226.77,206.56 258.7,272.17 
	295.36,272.17 "/>
</svg>
