<?xml version="1.0" encoding="utf-8"?>
<!-- Generator: Adobe Illustrator 24.0.1, SVG Export Plug-In . SVG Version: 6.00 Build 0)  -->
<svg version="1.1" id="Layer_1" xmlns="http://www.w3.org/2000/svg" xmlns:xlink="http://www.w3.org/1999/xlink" x="0px" y="0px"
	 viewBox="0 0 453.5 288.7" style="enable-background:new 0 0 453.5 288.7;" xml:space="preserve">
<g>
	<g>
		<path d="M42.7,134.2l1.3-1.7c0.7,0.7,1.6,1.2,2.4,1.2c0.9,0,1.4-0.4,1.4-1.1c0-0.7-0.6-0.9-1.4-1.3l-1.3-0.6c-1-0.5-2-1.4-2-3
			c0-1.8,1.5-3.3,3.5-3.3c1.1,0,2.3,0.5,3.2,1.5l-1.1,1.6c-0.6-0.6-1.3-0.9-2-0.9c-0.8,0-1.2,0.4-1.2,1c0,0.7,0.6,0.9,1.5,1.3
			l1.2,0.6c1.2,0.5,1.9,1.5,1.9,3c0,1.8-1.4,3.5-3.7,3.5C45,135.8,43.7,135.3,42.7,134.2z"/>
		<path d="M51.5,123.6h2.2v2.9l-0.1,1.5c0.6-0.6,1.3-1.2,2.3-1.2c1.6,0,2.3,1.3,2.3,3.4v5.3H56v-4.9c0-1.2-0.3-1.6-0.9-1.6
			c-0.6,0-0.9,0.3-1.4,0.8v5.7h-2.2V123.6z"/>
		<path d="M59.6,131.4c0-2.8,1.7-4.4,3.6-4.4s3.6,1.6,3.6,4.4c0,2.8-1.7,4.4-3.6,4.4S59.6,134.2,59.6,131.4z M64.6,131.4
			c0-1.5-0.5-2.4-1.4-2.4c-0.9,0-1.4,1-1.4,2.4c0,1.5,0.5,2.4,1.4,2.4C64.1,133.8,64.6,132.8,64.6,131.4z"/>
		<path d="M68.4,127.1h1.8l0.2,1.5h0.1c0.5-1.1,1.4-1.7,2.1-1.7c0.4,0,0.7,0.1,0.9,0.2l-0.4,2.2c-0.3-0.1-0.5-0.1-0.8-0.1
			c-0.6,0-1.2,0.4-1.6,1.6v4.9h-2.2V127.1z"/>
		<path d="M74.6,132.5v-3.4h-1v-1.9l1.1-0.1l0.3-2.3h1.8v2.3h1.8v2h-1.8v3.4c0,1,0.4,1.3,1,1.3c0.2,0,0.5-0.1,0.7-0.2l0.3,1.8
			c-0.4,0.1-0.9,0.3-1.7,0.3C75.4,135.8,74.6,134.5,74.6,132.5z"/>
		<path d="M80.1,127.1h1.8l0.2,1.1h0.1c0.6-0.7,1.4-1.3,2.4-1.3c1.6,0,2.3,1.3,2.3,3.4v5.3h-2.2v-4.9c0-1.2-0.3-1.6-0.9-1.6
			c-0.6,0-0.9,0.3-1.4,0.8v5.7h-2.2V127.1z"/>
		<path d="M88.3,131.4c0-2.8,1.7-4.4,3.5-4.4c2.1,0,3.2,1.8,3.2,4.1c0,0.5,0,0.9-0.1,1.1h-4.5c0.2,1.2,0.9,1.8,1.9,1.8
			c0.6,0,1.1-0.2,1.6-0.6l0.7,1.5c-0.8,0.6-1.8,1-2.6,1C89.9,135.8,88.3,134.2,88.3,131.4z M93.1,130.4c0-0.9-0.4-1.6-1.2-1.6
			c-0.7,0-1.3,0.5-1.5,1.6H93.1z"/>
		<path d="M95.8,134.6l1-1.6c0.7,0.6,1.3,0.9,1.9,0.9c0.7,0,0.9-0.3,0.9-0.7c0-0.6-0.7-0.8-1.5-1.2c-0.9-0.4-2-1.1-2-2.5
			c0-1.6,1.1-2.7,2.8-2.7c1.1,0,2,0.5,2.6,1.1l-1,1.5c-0.5-0.4-1.1-0.7-1.6-0.7c-0.6,0-0.9,0.3-0.9,0.7c0,0.5,0.7,0.7,1.5,1.1
			c0.9,0.4,2,1,2,2.6c0,1.5-1.1,2.7-3.1,2.7C97.7,135.8,96.6,135.3,95.8,134.6z"/>
		<path d="M102.5,134.6l1-1.6c0.7,0.6,1.3,0.9,1.9,0.9c0.7,0,0.9-0.3,0.9-0.7c0-0.6-0.7-0.8-1.5-1.2c-0.9-0.4-2-1.1-2-2.5
			c0-1.6,1.1-2.7,2.8-2.7c1.1,0,2,0.5,2.6,1.1l-1,1.5c-0.5-0.4-1.1-0.7-1.6-0.7c-0.6,0-0.9,0.3-0.9,0.7c0,0.5,0.7,0.7,1.5,1.1
			c0.9,0.4,2,1,2,2.6c0,1.5-1.1,2.7-3.1,2.7C104.3,135.8,103.2,135.3,102.5,134.6z"/>
		<path d="M47,151.9c0-2.8,1.7-4.4,3.6-4.4s3.6,1.6,3.6,4.4c0,2.8-1.7,4.4-3.6,4.4S47,154.7,47,151.9z M52,151.9
			c0-1.5-0.5-2.4-1.4-2.4c-0.9,0-1.4,1-1.4,2.4c0,1.5,0.5,2.4,1.4,2.4C51.5,154.3,52,153.4,52,151.9z"/>
		<path d="M55.1,147.7l1.1-0.1h3.4v2h-4.5V147.7z M56.1,147.2c0-1.8,0.7-3.3,2.7-3.3c0.6,0,1.2,0.2,1.5,0.3l-0.4,1.9
			c-0.3-0.1-0.5-0.2-0.8-0.2c-0.5,0-0.9,0.3-0.9,1.2v9h-2.2V147.2z"/>
		<path d="M65.8,155.2L65.8,155.2l-0.2,0.9h-1.7v-12h2.2v2.9l-0.1,1.3c0.6-0.6,1.3-0.9,2-0.9c1.8,0,2.9,1.7,2.9,4.3
			c0,2.9-1.5,4.6-3.1,4.6C67.1,156.3,66.4,156,65.8,155.2z M68.7,151.8c0-1.5-0.4-2.3-1.3-2.3c-0.5,0-0.9,0.2-1.3,0.8v3.5
			c0.4,0.4,0.8,0.5,1.2,0.5C68,154.3,68.7,153.5,68.7,151.8z"/>
		<path d="M72.5,147.7h1.8l0.2,1.5h0.1c0.5-1.1,1.4-1.7,2.1-1.7c0.4,0,0.7,0.1,0.9,0.2l-0.4,2.2c-0.3-0.1-0.5-0.1-0.8-0.1
			c-0.6,0-1.2,0.4-1.6,1.6v4.9h-2.2V147.7z"/>
		<path d="M78,151.9c0-2.8,1.7-4.4,3.5-4.4c2.1,0,3.2,1.8,3.2,4.1c0,0.5,0,0.9-0.1,1.1h-4.5c0.2,1.2,0.9,1.8,1.9,1.8
			c0.6,0,1.1-0.2,1.6-0.6l0.7,1.5c-0.8,0.6-1.8,1-2.6,1C79.7,156.3,78,154.7,78,151.9z M82.8,151c0-0.9-0.4-1.6-1.2-1.6
			c-0.7,0-1.3,0.5-1.5,1.6H82.8z"/>
		<path d="M85.9,153.8c0-1.8,1.2-2.8,4.2-3.1c0-0.7-0.4-1.2-1.2-1.2c-0.6,0-1.2,0.3-2,0.8l-0.8-1.6c0.9-0.7,2-1.1,3.2-1.1
			c1.9,0,3,1.2,3,3.8v4.8h-1.8l-0.2-0.9h-0.1c-0.6,0.6-1.3,1.1-2.2,1.1C86.8,156.3,85.9,155.2,85.9,153.8z M90.1,153.7v-1.5
			c-1.6,0.2-2.1,0.8-2.1,1.4c0,0.5,0.3,0.8,0.9,0.8C89.4,154.4,89.7,154.1,90.1,153.7z"/>
		<path d="M94.5,153v-3.4h-1v-1.9l1.1-0.1l0.3-2.3h1.8v2.3h1.8v2h-1.8v3.4c0,1,0.4,1.3,1,1.3c0.2,0,0.5-0.1,0.7-0.2l0.3,1.8
			c-0.4,0.1-0.9,0.3-1.7,0.3C95.2,156.3,94.5,155,94.5,153z"/>
		<path d="M99.9,144.2h2.2v2.9l-0.1,1.5c0.6-0.6,1.3-1.2,2.3-1.2c1.6,0,2.3,1.3,2.3,3.4v5.3h-2.2v-4.9c0-1.2-0.3-1.6-0.9-1.6
			c-0.6,0-0.9,0.3-1.4,0.8v5.7h-2.2V144.2z"/>
	</g>
</g>
<g>
	<g>
		<path d="M353.4,136.3h2.6l3.1,11.1h-2.3l-1.3-5.6c-0.3-1.1-0.5-2.4-0.8-3.6h-0.1c-0.2,1.2-0.5,2.5-0.8,3.6l-1.3,5.6h-2.3
			L353.4,136.3z M352.3,142.8h4.7v2h-4.7V142.8z"/>
		<path d="M360,138.9h1.8l0.2,1.1h0.1c0.6-0.7,1.4-1.3,2.4-1.3c1.6,0,2.3,1.3,2.3,3.4v5.3h-2.2v-4.9c0-1.2-0.3-1.6-0.9-1.6
			c-0.6,0-0.9,0.3-1.4,0.8v5.7H360V138.9z"/>
		<path d="M370.1,143l-2.2-4.1h2.4l0.7,1.4c0.2,0.5,0.4,1,0.6,1.4h0.1c0.2-0.5,0.3-1,0.5-1.4l0.5-1.4h2.3l-2.2,4.4l2.3,4.1h-2.4
			L372,146c-0.2-0.5-0.5-1-0.7-1.5h-0.1c-0.2,0.5-0.4,1-0.6,1.5l-0.6,1.4h-2.3L370.1,143z"/>
		<path d="M376.1,136.4c0-0.8,0.5-1.3,1.3-1.3c0.7,0,1.3,0.5,1.3,1.3c0,0.8-0.5,1.3-1.3,1.3C376.6,137.7,376.1,137.2,376.1,136.4z
			 M376.3,138.9h2.2v8.5h-2.2V138.9z"/>
		<path d="M380,143.2c0-2.8,1.7-4.4,3.5-4.4c2.1,0,3.2,1.8,3.2,4.1c0,0.5,0,0.9-0.1,1.1h-4.5c0.2,1.2,0.9,1.8,1.9,1.8
			c0.6,0,1.1-0.2,1.6-0.6l0.7,1.5c-0.8,0.6-1.8,1-2.6,1C381.6,147.6,380,146,380,143.2z M384.8,142.3c0-0.9-0.4-1.6-1.2-1.6
			c-0.7,0-1.3,0.5-1.5,1.6H384.8z"/>
		<path d="M388.5,144.3v-3.4h-1V139l1.1-0.1l0.3-2.3h1.8v2.3h1.8v2h-1.8v3.4c0,1,0.4,1.3,1,1.3c0.2,0,0.5-0.1,0.7-0.2l0.3,1.8
			c-0.4,0.1-0.9,0.3-1.7,0.3C389.2,147.6,388.5,146.3,388.5,144.3z"/>
		<path d="M393.7,150.6l0.4-1.9c0.1,0,0.3,0.1,0.5,0.1c0.7,0,1.1-0.5,1.3-1.1l0.1-0.4l-2.9-8.3h2.2l1.1,3.6c0.2,0.8,0.4,1.6,0.6,2.4
			h0.1c0.2-0.8,0.3-1.6,0.5-2.4l0.9-3.6h2.1l-2.6,8.6c-0.7,2.1-1.5,3.2-3.3,3.2C394.3,150.7,394,150.7,393.7,150.6z"/>
	</g>
</g>
<path d="M65.7,93.9c89.4-44.7,194.6-47.9,286.5-8.8l-8.7,20.2l55.7-18L374,34.6l-8.7,20.2c-100.9-43-216.4-39.4-314.5,9.6L65.7,93.9
	z"/>
<path d="M387.7,190.2c-89.2,45.1-194.4,48.7-286.5,10l8.6-20.3l-55.6,18.3l25.5,52.7l8.6-20.3c101.1,42.5,216.6,38.5,314.4-11
	L387.7,190.2z"/>
</svg>
