<?xml version="1.0" encoding="utf-8"?>
<!-- Generator: Adobe Illustrator 24.0.1, SVG Export Plug-In . SVG Version: 6.00 Build 0)  -->
<svg version="1.1" id="Layer_1" xmlns="http://www.w3.org/2000/svg" xmlns:xlink="http://www.w3.org/1999/xlink" x="0px" y="0px"
	 viewBox="0 0 453.5 451.8" style="enable-background:new 0 0 453.5 451.8;" xml:space="preserve">
<style type="text/css">
	.st0{fill:none;stroke:#000000;stroke-miterlimit:10;}
	.st1{fill:none;stroke:#231F20;stroke-width:0.75;stroke-linecap:round;stroke-linejoin:round;stroke-miterlimit:10;}
</style>
<g>
	<g>
		<path d="M15.5,262.2v-1.1h7.2v1.1H15.5z"/>
		<path d="M17.3,259.6v-0.9l0.7-0.1v0c-0.5-0.4-0.9-0.9-0.9-1.6c0-1,0.8-1.5,2.1-1.5h3.4v1.1h-3.2c-0.9,0-1.2,0.2-1.2,0.7
			c0,0.4,0.2,0.7,0.7,1.1h3.8v1.1H17.3z"/>
		<path d="M20,254.5c-1.8,0-2.8-1.1-2.8-2.4c0-0.6,0.3-1,0.6-1.4l0.8,0.5c-0.3,0.3-0.4,0.5-0.4,0.8c0,0.8,0.7,1.3,1.8,1.3
			c1.1,0,1.8-0.5,1.8-1.3c0-0.4-0.2-0.7-0.5-1l0.8-0.5c0.4,0.4,0.7,1,0.7,1.5C22.8,253.5,21.8,254.5,20,254.5z"/>
		<path d="M17.3,249.7v-0.9l1-0.1v0c-0.7-0.3-1.1-0.8-1.1-1.3c0-0.2,0-0.4,0.1-0.5l1.1,0.2c-0.1,0.2-0.1,0.3-0.1,0.5
			c0,0.4,0.3,0.8,1.1,1.1h3.3v1.1H17.3z"/>
		<path d="M20,246.4c-1.8,0-2.8-1.1-2.8-2.2c0-1.3,1.1-2,2.6-2c0.2,0,0.5,0,0.6,0v3c1-0.1,1.5-0.6,1.5-1.4c0-0.4-0.1-0.8-0.4-1.1
			l0.8-0.4c0.3,0.5,0.6,1,0.6,1.6C22.8,245.4,21.8,246.4,20,246.4z M19.4,243.2c-0.8,0-1.3,0.3-1.3,1c0,0.6,0.5,1,1.3,1.1V243.2z"/>
		<path d="M21.2,241.5c-1.2,0-1.8-0.8-2-2.8c-0.6,0-1.1,0.2-1.1,0.9c0,0.5,0.2,0.9,0.5,1.3l-0.8,0.4c-0.4-0.5-0.7-1.2-0.7-1.9
			c0-1.2,0.8-1.8,2.3-1.8h3.2v0.9l-0.6,0.1v0c0.4,0.4,0.7,0.9,0.7,1.5C22.8,240.9,22.2,241.5,21.2,241.5z M21.2,238.7H20
			c0.2,1.3,0.6,1.7,1.1,1.7c0.5,0,0.7-0.3,0.7-0.7C21.8,239.3,21.6,239,21.2,238.7z"/>
		<path d="M22,236.7l-0.8-0.5c0.4-0.4,0.6-0.8,0.6-1.3c0-0.5-0.3-0.8-0.6-0.8c-0.5,0-0.7,0.5-0.9,1c-0.3,0.6-0.7,1.3-1.6,1.3
			c-0.9,0-1.6-0.7-1.6-1.7c0-0.7,0.3-1.2,0.6-1.6l0.8,0.5c-0.3,0.3-0.5,0.7-0.5,1c0,0.5,0.3,0.7,0.6,0.7c0.4,0,0.6-0.5,0.8-1
			c0.3-0.6,0.6-1.4,1.6-1.4c0.9,0,1.7,0.6,1.7,1.8C22.8,235.6,22.5,236.2,22,236.7z"/>
		<path d="M15.6,232.2c-0.4,0-0.7-0.3-0.7-0.7s0.3-0.7,0.7-0.7c0.4,0,0.7,0.3,0.7,0.7S16,232.2,15.6,232.2z M17.3,232.1v-1.1h5.4
			v1.1H17.3z"/>
		<path d="M17.3,229.5v-0.9l0.7-0.1v0c-0.5-0.4-0.9-0.9-0.9-1.6c0-1,0.8-1.5,2.1-1.5h3.4v1.1h-3.2c-0.9,0-1.2,0.2-1.2,0.7
			c0,0.4,0.2,0.7,0.7,1.1h3.8v1.1H17.3z"/>
		<path d="M23.6,224.4c-0.5,0-0.9-0.2-1.2-0.7h0c-0.2,0.2-0.5,0.4-0.9,0.4c-0.4,0-0.8-0.2-1-0.5h0c-0.3,0.3-0.8,0.6-1.4,0.6
			c-1.2,0-1.9-0.9-1.9-1.9c0-0.3,0.1-0.5,0.1-0.7V220h0.9v0.9c0.2-0.2,0.5-0.3,0.9-0.3c1.2,0,1.8,0.8,1.8,1.8c0,0.2,0,0.4-0.1,0.6
			c0.1,0.1,0.3,0.2,0.5,0.2c0.3,0,0.5-0.2,0.5-0.8v-0.8c0-1.1,0.4-1.7,1.3-1.7c1.1,0,1.9,1,1.9,2.5
			C25.1,223.6,24.6,224.4,23.6,224.4z M19.1,221.6c-0.7,0-1.1,0.4-1.1,0.8s0.4,0.8,1.1,0.8c0.7,0,1.1-0.4,1.1-0.8
			S19.8,221.6,19.1,221.6z M23.4,221c-0.4,0-0.5,0.3-0.5,0.8v0.7c0,0.3,0,0.5-0.1,0.6c0.2,0.3,0.5,0.4,0.7,0.4
			c0.5,0,0.8-0.5,0.8-1.2C24.2,221.5,23.8,221,23.4,221z"/>
		<path d="M20,217.5c-1.8,0-2.8-1.1-2.8-2.3c0-1.2,1-2.3,2.8-2.3c1.8,0,2.8,1.1,2.8,2.3C22.8,216.4,21.8,217.5,20,217.5z M20,214.1
			c-1.1,0-1.8,0.4-1.8,1.1s0.7,1.1,1.8,1.1c1.1,0,1.8-0.4,1.8-1.1S21.1,214.1,20,214.1z"/>
		<path d="M17.3,211.9v-0.9l1-0.1v0c-0.7-0.3-1.1-0.8-1.1-1.3c0-0.2,0-0.4,0.1-0.5l1.1,0.2c-0.1,0.2-0.1,0.3-0.1,0.5
			c0,0.4,0.3,0.8,1.1,1.1h3.3v1.1H17.3z"/>
		<path d="M17.3,206.3v-0.9l0.6-0.1v0c-0.4-0.4-0.7-0.9-0.7-1.4c0-1.2,1.1-1.9,2.8-1.9c1.8,0,2.9,1,2.9,2c0,0.4-0.2,0.8-0.6,1.2
			l0.9,0h1.7v1.1H17.3z M19.9,203.1c-1.1,0-1.7,0.3-1.7,1c0,0.3,0.2,0.7,0.6,1h2.5c0.3-0.3,0.4-0.7,0.4-1
			C21.8,203.6,21.1,203.1,19.9,203.1z"/>
		<path d="M20,201.2c-1.8,0-2.8-1.1-2.8-2.2c0-1.3,1.1-2,2.6-2c0.2,0,0.5,0,0.6,0v3c1-0.1,1.5-0.6,1.5-1.4c0-0.4-0.1-0.8-0.4-1.1
			l0.8-0.4c0.3,0.5,0.6,1,0.6,1.6C22.8,200.1,21.8,201.2,20,201.2z M19.4,198c-0.8,0-1.3,0.3-1.3,1c0,0.6,0.5,1,1.3,1.1V198z"/>
		<path d="M17.3,196V195l1-0.1v0c-0.7-0.3-1.1-0.8-1.1-1.3c0-0.2,0-0.4,0.1-0.5l1.1,0.2c-0.1,0.2-0.1,0.3-0.1,0.5
			c0,0.4,0.3,0.8,1.1,1.1h3.3v1.1H17.3z"/>
		<path d="M22,192.8l-0.8-0.5c0.4-0.4,0.6-0.8,0.6-1.3c0-0.5-0.3-0.8-0.6-0.8c-0.5,0-0.7,0.5-0.9,1c-0.3,0.6-0.7,1.3-1.6,1.3
			c-0.9,0-1.6-0.7-1.6-1.7c0-0.7,0.3-1.2,0.6-1.6l0.8,0.5c-0.3,0.3-0.5,0.7-0.5,1c0,0.5,0.3,0.7,0.6,0.7c0.4,0,0.6-0.5,0.8-1
			c0.3-0.6,0.6-1.4,1.6-1.4c0.9,0,1.7,0.6,1.7,1.8C22.8,191.7,22.5,192.4,22,192.8z"/>
		<path d="M15.6,188.3c-0.4,0-0.7-0.3-0.7-0.7s0.3-0.7,0.7-0.7c0.4,0,0.7,0.3,0.7,0.7S16,188.3,15.6,188.3z M17.3,188.2v-1.1h5.4
			v1.1H17.3z"/>
		<path d="M22,186.1l-0.8-0.5c0.4-0.4,0.6-0.8,0.6-1.3c0-0.5-0.3-0.8-0.6-0.8c-0.5,0-0.7,0.5-0.9,1c-0.3,0.6-0.7,1.3-1.6,1.3
			c-0.9,0-1.6-0.7-1.6-1.7c0-0.7,0.3-1.2,0.6-1.6l0.8,0.5c-0.3,0.3-0.5,0.7-0.5,1c0,0.5,0.3,0.7,0.6,0.7c0.4,0,0.6-0.5,0.8-1
			c0.3-0.6,0.6-1.4,1.6-1.4c0.9,0,1.7,0.6,1.7,1.8C22.8,185,22.5,185.7,22,186.1z"/>
		<path d="M20.8,181.3h-2.6v0.7h-1l-0.1-0.7l-1.5-0.1v-0.9h1.5V179h1v1.2h2.6c0.6,0,0.9-0.2,0.9-0.7c0-0.2-0.1-0.4-0.1-0.5l0.9-0.2
			c0.1,0.3,0.2,0.6,0.2,1C22.8,180.9,22,181.3,20.8,181.3z"/>
		<path d="M15.6,178.1c-0.4,0-0.7-0.3-0.7-0.7c0-0.4,0.3-0.7,0.7-0.7c0.4,0,0.7,0.3,0.7,0.7C16.3,177.8,16,178.1,15.6,178.1z
			 M17.3,178v-1.1h5.4v1.1H17.3z"/>
		<path d="M17.3,175.5v-0.9l0.7-0.1v0c-0.5-0.4-0.9-0.9-0.9-1.6c0-1,0.8-1.5,2.1-1.5h3.4v1.1h-3.2c-0.9,0-1.2,0.2-1.2,0.7
			c0,0.4,0.2,0.7,0.7,1.1h3.8v1.1H17.3z"/>
		<path d="M23.6,170.4c-0.5,0-0.9-0.2-1.2-0.7h0c-0.2,0.2-0.5,0.4-0.9,0.4c-0.4,0-0.8-0.3-1-0.5h0c-0.3,0.3-0.8,0.6-1.4,0.6
			c-1.2,0-1.9-0.9-1.9-1.9c0-0.3,0.1-0.5,0.1-0.7V166h0.9v0.9c0.2-0.2,0.5-0.3,0.9-0.3c1.2,0,1.8,0.8,1.8,1.8c0,0.2,0,0.4-0.1,0.6
			c0.1,0.1,0.3,0.2,0.5,0.2c0.3,0,0.5-0.2,0.5-0.8v-0.8c0-1.1,0.4-1.7,1.3-1.7c1.1,0,1.9,1,1.9,2.5
			C25.1,169.5,24.6,170.4,23.6,170.4z M19.1,167.5c-0.7,0-1.1,0.4-1.1,0.8c0,0.5,0.4,0.8,1.1,0.8c0.7,0,1.1-0.4,1.1-0.8
			C20.2,167.9,19.8,167.5,19.1,167.5z M23.4,166.9c-0.4,0-0.5,0.3-0.5,0.8v0.7c0,0.3,0,0.5-0.1,0.6c0.2,0.3,0.5,0.4,0.7,0.4
			c0.5,0,0.8-0.5,0.8-1.2C24.2,167.5,23.8,166.9,23.4,166.9z"/>
		<path d="M17.3,163.1v-0.9l0.6-0.1v0c-0.4-0.4-0.7-0.9-0.7-1.4c0-1.2,1.1-1.9,2.8-1.9c1.8,0,2.9,1,2.9,2c0,0.4-0.2,0.8-0.6,1.2
			l0.9,0h1.7v1.1H17.3z M19.9,159.9c-1.1,0-1.7,0.3-1.7,1c0,0.3,0.2,0.7,0.6,1h2.5c0.3-0.3,0.4-0.7,0.4-0.9
			C21.8,160.4,21.1,159.9,19.9,159.9z"/>
		<path d="M21.2,157.9c-1.2,0-1.8-0.8-2-2.8c-0.6,0-1.1,0.2-1.1,0.9c0,0.5,0.2,0.9,0.5,1.3l-0.8,0.4c-0.4-0.5-0.7-1.2-0.7-1.9
			c0-1.2,0.8-1.8,2.3-1.8h3.2v0.9l-0.6,0.1v0c0.4,0.4,0.7,0.9,0.7,1.5C22.8,157.3,22.2,157.9,21.2,157.9z M21.2,155.1H20
			c0.2,1.3,0.6,1.7,1.1,1.7c0.5,0,0.7-0.3,0.7-0.7C21.8,155.8,21.6,155.5,21.2,155.1z"/>
		<path d="M15.6,152.8c-0.4,0-0.7-0.3-0.7-0.7s0.3-0.7,0.7-0.7c0.4,0,0.7,0.3,0.7,0.7S16,152.8,15.6,152.8z M17.3,152.7v-1.1h5.4
			v1.1H17.3z"/>
		<path d="M17.3,150.1v-0.9l0.7-0.1v0c-0.5-0.4-0.9-0.9-0.9-1.6c0-1,0.8-1.5,2.1-1.5h3.4v1.1h-3.2c-0.9,0-1.2,0.2-1.2,0.7
			c0,0.4,0.2,0.7,0.7,1.1h3.8v1.1H17.3z"/>
	</g>
</g>
<g>
	<g>
		<path d="M351.4,31.8l0.8-1.1c0.4,0.4,1,0.7,1.5,0.7c0.6,0,0.9-0.3,0.9-0.7c0-0.5-0.4-0.6-0.9-0.9l-0.8-0.4c-0.7-0.3-1.3-0.9-1.3-2
			c0-1.2,0.9-2.1,2.2-2.1c0.7,0,1.5,0.3,2,0.9l-0.7,1c-0.4-0.4-0.8-0.6-1.3-0.6c-0.5,0-0.8,0.2-0.8,0.6c0,0.4,0.4,0.6,1,0.8l0.8,0.4
			c0.8,0.4,1.2,0.9,1.2,2c0,1.2-0.9,2.2-2.4,2.2C352.9,32.8,352.1,32.5,351.4,31.8z"/>
		<path d="M357.3,30.7v-2.2h-0.7v-1.2l0.7-0.1l0.2-1.5h1.2v1.5h1.1v1.3h-1.1v2.2c0,0.6,0.2,0.9,0.6,0.9c0.2,0,0.3-0.1,0.5-0.1
			l0.2,1.2c-0.3,0.1-0.6,0.2-1.1,0.2C357.7,32.8,357.3,32,357.3,30.7z"/>
		<path d="M360.5,30c0-1.8,1.1-2.9,2.3-2.9c1.4,0,2,1.1,2,2.6c0,0.3,0,0.6-0.1,0.7h-2.9c0.1,0.8,0.6,1.2,1.2,1.2
			c0.4,0,0.7-0.1,1-0.4l0.5,1c-0.5,0.4-1.1,0.6-1.7,0.6C361.6,32.8,360.5,31.8,360.5,30z M363.6,29.4c0-0.6-0.2-1-0.8-1
			c-0.4,0-0.8,0.3-0.9,1H363.6z"/>
		<path d="M365.8,27.2h1.2l0.1,0.5h0c0.4-0.4,0.9-0.7,1.4-0.7c1.2,0,1.9,1.1,1.9,2.8c0,1.9-1,2.9-2,2.9c-0.4,0-0.8-0.2-1.1-0.6
			l0,0.9v1.6h-1.4V27.2z M368.9,29.9c0-1-0.3-1.5-0.8-1.5c-0.3,0-0.5,0.1-0.8,0.5v2.2c0.3,0.3,0.5,0.3,0.8,0.3
			C368.5,31.5,368.9,31,368.9,29.9z"/>
		<path d="M372.8,31.8l0.7-1c0.4,0.4,0.8,0.7,1.3,0.7c0.6,0,1-0.3,1-0.8c0-0.6-0.3-1-1.6-1v-1.1c1.1,0,1.4-0.4,1.4-0.9
			c0-0.5-0.3-0.8-0.8-0.8c-0.4,0-0.8,0.2-1.1,0.6l-0.7-1c0.6-0.6,1.2-0.9,1.9-0.9c1.3,0,2.1,0.7,2.1,1.9c0,0.7-0.4,1.2-1,1.6v0
			c0.7,0.2,1.2,0.8,1.2,1.7c0,1.3-1,2-2.3,2C374,32.8,373.3,32.4,372.8,31.8z"/>
	</g>
</g>
<g>
	<g>
		<path d="M351.4,67.3l0.8-1.1c0.4,0.4,1,0.7,1.5,0.7c0.6,0,0.9-0.3,0.9-0.7c0-0.5-0.4-0.6-0.9-0.9l-0.8-0.4c-0.7-0.3-1.3-0.9-1.3-2
			c0-1.2,0.9-2.1,2.2-2.1c0.7,0,1.5,0.3,2,0.9l-0.7,1c-0.4-0.4-0.8-0.6-1.3-0.6c-0.5,0-0.8,0.2-0.8,0.6c0,0.4,0.4,0.6,1,0.8l0.8,0.4
			c0.8,0.4,1.2,0.9,1.2,2c0,1.2-0.9,2.2-2.4,2.2C352.9,68.3,352.1,67.9,351.4,67.3z"/>
		<path d="M358.4,62.4h-1.7V61h4.9v1.4h-1.7v5.8h-1.4V62.4z"/>
		<path d="M362.6,61h2.3c1.3,0,2.4,0.5,2.4,2.2c0,1.6-1.1,2.4-2.4,2.4H364v2.6h-1.4V61z M364.7,64.3c0.7,0,1.2-0.4,1.2-1.1
			c0-0.7-0.4-0.9-1.2-0.9H364v2H364.7z M364.6,65.2l1-1l2,4H366L364.6,65.2z"/>
		<path d="M368.2,64.6c0-2.3,1.2-3.7,2.9-3.7c1.7,0,2.9,1.4,2.9,3.7c0,2.3-1.2,3.7-2.9,3.7C369.4,68.3,368.2,66.9,368.2,64.6z
			 M372.5,64.6c0-1.4-0.5-2.3-1.4-2.3c-0.9,0-1.4,0.8-1.4,2.3s0.5,2.3,1.4,2.3C371.9,66.9,372.5,66,372.5,64.6z"/>
		<path d="M375.1,61h1.5l1.6,3.6l0.6,1.6h0c-0.1-0.8-0.2-1.8-0.2-2.6V61h1.4v7.2h-1.5l-1.6-3.6l-0.6-1.6h0c0.1,0.8,0.2,1.8,0.2,2.6
			v2.5h-1.4V61z"/>
		<path d="M381.2,64.6c0-2.4,1.4-3.8,3.1-3.8c0.9,0,1.6,0.4,2,0.9l-0.8,1c-0.3-0.3-0.6-0.6-1.2-0.6c-1,0-1.7,0.9-1.7,2.3
			c0,1.5,0.6,2.3,1.8,2.3c0.3,0,0.5-0.1,0.7-0.2v-1.2h-1v-1.3h2.3v3.3c-0.4,0.5-1.2,0.9-2.1,0.9C382.6,68.3,381.2,67,381.2,64.6z"/>
		<path d="M389.3,64.6c0-2.3,1.2-3.7,2.9-3.7c1.7,0,2.9,1.4,2.9,3.7c0,2.3-1.2,3.7-2.9,3.7C390.5,68.3,389.3,66.9,389.3,64.6z
			 M393.6,64.6c0-1.4-0.5-2.3-1.4-2.3c-0.9,0-1.4,0.8-1.4,2.3s0.5,2.3,1.4,2.3C393.1,66.9,393.6,66,393.6,64.6z"/>
		<path d="M396.2,61h2.2c1.4,0,2.5,0.6,2.5,2.3c0,1.7-1.1,2.4-2.5,2.4h-0.8v2.4h-1.4V61z M398.4,64.5c0.8,0,1.2-0.4,1.2-1.1
			c0-0.8-0.4-1-1.2-1h-0.7v2.2H398.4z"/>
		<path d="M402,61h1.4v7.2H402V61z"/>
		<path d="M404.6,64.6c0-2.3,1.2-3.7,2.9-3.7c1.7,0,2.9,1.4,2.9,3.7c0,2.3-1.2,3.7-2.9,3.7C405.8,68.3,404.6,66.9,404.6,64.6z
			 M408.9,64.6c0-1.4-0.5-2.3-1.4-2.3c-0.9,0-1.4,0.8-1.4,2.3s0.5,2.3,1.4,2.3C408.3,66.9,408.9,66,408.9,64.6z"/>
		<path d="M411.5,61h1.4v7.2h-1.4V61z"/>
		<path d="M414.4,61h1.8c1.9,0,3.2,1.1,3.2,3.6s-1.2,3.6-3.1,3.6h-1.9V61z M416.1,66.9c1.1,0,1.8-0.6,1.8-2.3s-0.7-2.2-1.8-2.2h-0.3
			v4.6H416.1z"/>
		<path d="M423.8,65.1h-1.7V64h1.7v-2h1v2h1.7v1.1h-1.7v2h-1V65.1z"/>
		<path d="M351.9,92.2h0.8l2.3,4.5l0.7,1.5h0c0-0.7-0.1-1.5-0.1-2.3v-3.7h0.8v7.2h-0.8l-2.3-4.5l-0.7-1.5h0c0,0.7,0.1,1.5,0.1,2.3
			v3.8h-0.8V92.2z"/>
		<path d="M357.8,95.7c0-2.3,1.1-3.7,2.7-3.7c1.6,0,2.7,1.4,2.7,3.7c0,2.3-1.1,3.8-2.7,3.8C358.9,99.5,357.8,98,357.8,95.7z
			 M362.4,95.7c0-1.8-0.7-2.9-1.9-2.9s-1.9,1.1-1.9,2.9s0.7,3,1.9,3S362.4,97.5,362.4,95.7z"/>
		<path d="M364.6,92.2h0.8l2.3,4.5l0.7,1.5h0c0-0.7-0.1-1.5-0.1-2.3v-3.7h0.8v7.2h-0.8l-2.3-4.5l-0.7-1.5h0c0,0.7,0.1,1.5,0.1,2.3
			v3.8h-0.8V92.2z"/>
		<path d="M370.4,96.3h2.2V97h-2.2V96.3z"/>
		<path d="M373.5,95.7c0-2.3,1.1-3.7,2.7-3.7s2.7,1.4,2.7,3.7c0,2.3-1.1,3.8-2.7,3.8S373.5,98,373.5,95.7z M378.1,95.7
			c0-1.8-0.7-2.9-1.9-2.9s-1.9,1.1-1.9,2.9s0.7,3,1.9,3S378.1,97.5,378.1,95.7z"/>
		<path d="M380.3,92.2h1.8c1.4,0,2.4,0.5,2.4,2.1c0,1.5-1,2.2-2.3,2.2h-1v2.9h-0.8V92.2z M382,95.8c1.1,0,1.6-0.5,1.6-1.5
			c0-1-0.6-1.4-1.7-1.4h-0.9v2.9H382z"/>
		<path d="M385.8,92.2h0.8v7.2h-0.8V92.2z"/>
		<path d="M387.9,95.7c0-2.3,1.1-3.7,2.7-3.7s2.7,1.4,2.7,3.7c0,2.3-1.1,3.8-2.7,3.8S387.9,98,387.9,95.7z M392.5,95.7
			c0-1.8-0.7-2.9-1.9-2.9s-1.9,1.1-1.9,2.9s0.7,3,1.9,3S392.5,97.5,392.5,95.7z"/>
		<path d="M394.7,92.2h1.6c1.9,0,3,1.3,3,3.6s-1,3.6-3,3.6h-1.6V92.2z M396.2,98.6c1.5,0,2.2-1.1,2.2-2.9s-0.7-2.8-2.2-2.8h-0.7v5.7
			H396.2z"/>
		<path d="M353.2,127.3h-1.8v-0.7h1.8v-2.1h0.6v2.1h1.8v0.7h-1.8v2.1h-0.6V127.3z"/>
		<path d="M358.6,122.8h0.6l-2.6,9.6H356L358.6,122.8z"/>
		<path d="M359.7,127.5h6.9v0.6h-6.9V127.5z"/>
		<path d="M351.6,158.2c0-2.3,1.2-3.7,2.8-3.7c0.8,0,1.4,0.4,1.7,0.9l-0.4,0.6c-0.3-0.4-0.8-0.7-1.3-0.7c-1.2,0-2,1.1-2,2.9
			c0,1.8,0.8,3,2,3c0.6,0,1.1-0.3,1.5-0.8l0.4,0.6c-0.5,0.7-1.1,1-1.9,1C352.8,161.9,351.6,160.5,351.6,158.2z"/>
		<path d="M357.1,158.1c0-2.3,1.1-3.7,2.7-3.7s2.7,1.4,2.7,3.7c0,2.3-1.1,3.8-2.7,3.8S357.1,160.4,357.1,158.1z M361.7,158.1
			c0-1.8-0.7-2.9-1.9-2.9s-1.9,1.1-1.9,2.9s0.7,3,1.9,3S361.7,159.9,361.7,158.1z"/>
		<path d="M363.4,158.7h2.2v0.7h-2.2V158.7z"/>
		<path d="M368.2,154.5h0.9l2.1,7.2h-0.9l-1.1-4c-0.2-0.8-0.4-1.6-0.6-2.4h0c-0.2,0.8-0.4,1.6-0.6,2.4l-1.1,4H366L368.2,154.5z
			 M367.2,158.8h2.9v0.7h-2.9V158.8z"/>
		<path d="M372.1,154.5h0.8l2.3,4.5l0.7,1.5h0c0-0.7-0.1-1.5-0.1-2.3v-3.7h0.8v7.2h-0.8l-2.3-4.5l-0.7-1.5h0c0,0.7,0.1,1.5,0.1,2.3
			v3.8h-0.8V154.5z"/>
		<path d="M379.7,154.5h0.9l2.1,7.2h-0.9l-1.1-4c-0.2-0.8-0.4-1.6-0.6-2.4h0c-0.2,0.8-0.4,1.6-0.6,2.4l-1.1,4h-0.8L379.7,154.5z
			 M378.7,158.8h2.9v0.7h-2.9V158.8z"/>
		<path d="M383.7,154.5h0.8v6.4h2.8v0.8h-3.6V154.5z"/>
		<path d="M388,158.2c0-2.3,1.2-3.7,2.9-3.7c0.9,0,1.5,0.5,1.8,0.9l-0.4,0.6c-0.3-0.4-0.7-0.7-1.4-0.7c-1.3,0-2.1,1.1-2.1,2.9
			c0,1.8,0.8,3,2.1,3c0.5,0,0.9-0.2,1.1-0.4v-1.9h-1.3V158h2.1v3c-0.4,0.5-1.1,0.8-2,0.8C389.2,161.9,388,160.5,388,158.2z"/>
		<path d="M394.3,154.5h3.7v0.8h-2.8v2.3h2.4v0.8h-2.4v2.6h2.9v0.8h-3.8V154.5z"/>
		<path d="M399,160.8l0.5-0.6c0.5,0.5,1.1,0.9,1.7,0.9c0.8,0,1.3-0.5,1.3-1.2c0-0.7-0.5-1-1.1-1.3l-0.9-0.5
			c-0.6-0.3-1.3-0.8-1.3-1.9c0-1.1,0.8-1.9,2-1.9c0.8,0,1.4,0.4,1.9,0.9l-0.4,0.6c-0.4-0.4-0.9-0.7-1.4-0.7c-0.7,0-1.2,0.4-1.2,1.1
			c0,0.7,0.6,1,1,1.2l0.9,0.4c0.7,0.4,1.3,0.9,1.3,1.9c0,1.1-0.8,2.1-2.2,2.1C400.3,161.9,399.5,161.5,399,160.8z"/>
		<path d="M404.6,154.5h0.8v7.2h-0.8V154.5z"/>
		<path d="M408.4,154.5h0.9l2.1,7.2h-0.9l-1.1-4c-0.2-0.8-0.4-1.6-0.6-2.4h0c-0.2,0.8-0.4,1.6-0.6,2.4l-1.1,4h-0.8L408.4,154.5z
			 M407.4,158.8h2.9v0.7h-2.9V158.8z"/>
	</g>
</g>
<g>
	<g>
		<path d="M242.8,240.7h1.5l0.4,3.3c0.1,0.8,0.2,1.5,0.3,2.3h0c0.1-0.8,0.2-1.5,0.4-2.3l0.7-3.3h1.2l0.7,3.3
			c0.1,0.7,0.3,1.5,0.4,2.3h0c0.1-0.8,0.2-1.5,0.3-2.3l0.4-3.3h1.4l-1.1,7.2h-1.8l-0.6-3.3c-0.1-0.6-0.2-1.1-0.3-1.7h0
			c-0.1,0.5-0.2,1.1-0.3,1.7l-0.6,3.3H244L242.8,240.7z"/>
		<path d="M251.3,240.7h3.9v1.4h-2.5v1.4h2.1v1.4h-2.1v1.7h2.6v1.4h-4V240.7z"/>
		<path d="M257.8,240.7h1.7l2,7.2H260l-0.8-3.6c-0.2-0.7-0.3-1.6-0.5-2.3h0c-0.2,0.8-0.3,1.6-0.5,2.3l-0.8,3.6h-1.5L257.8,240.7z
			 M257.1,244.9h3v1.3h-3V244.9z"/>
		<path d="M262.2,240.7h1.4v2.9h0l1.9-2.9h1.6l-1.9,2.9l2.3,4.3h-1.6l-1.5-3l-0.7,1.1v1.9h-1.4V240.7z"/>
		<path d="M269.7,244.2c0-2.3,1.2-3.7,2.9-3.7c1.7,0,2.9,1.4,2.9,3.7c0,2.3-1.2,3.7-2.9,3.7C270.9,248,269.7,246.6,269.7,244.2z
			 M274,244.2c0-1.4-0.5-2.3-1.4-2.3c-0.9,0-1.4,0.8-1.4,2.3s0.5,2.3,1.4,2.3C273.4,246.6,274,245.7,274,244.2z"/>
		<path d="M276.6,240.7h2.2c1.4,0,2.5,0.6,2.5,2.3c0,1.7-1.1,2.4-2.5,2.4h-0.8v2.4h-1.4V240.7z M278.8,244.1c0.8,0,1.2-0.4,1.2-1.1
			c0-0.8-0.4-1-1.2-1h-0.7v2.2H278.8z"/>
		<path d="M282.4,240.7h1.4v7.2h-1.4V240.7z"/>
		<path d="M285,244.2c0-2.3,1.2-3.7,2.9-3.7c1.7,0,2.9,1.4,2.9,3.7c0,2.3-1.2,3.7-2.9,3.7C286.2,248,285,246.6,285,244.2z
			 M289.3,244.2c0-1.4-0.5-2.3-1.4-2.3c-0.9,0-1.4,0.8-1.4,2.3s0.5,2.3,1.4,2.3C288.7,246.6,289.3,245.7,289.3,244.2z"/>
		<path d="M291.9,240.7h1.4v7.2h-1.4V240.7z"/>
		<path d="M294.8,240.7h1.8c1.9,0,3.2,1.1,3.2,3.6s-1.2,3.6-3.1,3.6h-1.9V240.7z M296.5,246.5c1.1,0,1.8-0.6,1.8-2.3
			s-0.7-2.2-1.8-2.2h-0.3v4.6H296.5z"/>
		<path d="M304.2,244.8h-1.7v-1.1h1.7v-2h1v2h1.7v1.1h-1.7v2h-1V244.8z"/>
		<path d="M243.6,271.8h0.8l2.3,4.5l0.7,1.5h0c0-0.7-0.1-1.5-0.1-2.3v-3.7h0.8v7.2h-0.8l-2.3-4.5l-0.7-1.5h0c0,0.7,0.1,1.5,0.1,2.3
			v3.8h-0.8V271.8z"/>
		<path d="M249.5,275.4c0-2.3,1.1-3.7,2.7-3.7c1.6,0,2.7,1.4,2.7,3.7c0,2.3-1.1,3.8-2.7,3.8C250.6,279.2,249.5,277.7,249.5,275.4z
			 M254.1,275.4c0-1.8-0.7-2.9-1.9-2.9s-1.9,1.1-1.9,2.9s0.7,3,1.9,3S254.1,277.2,254.1,275.4z"/>
		<path d="M256.3,271.8h0.8l2.3,4.5l0.7,1.5h0c0-0.7-0.1-1.5-0.1-2.3v-3.7h0.8v7.2h-0.8l-2.3-4.5L257,273h0c0,0.7,0.1,1.5,0.1,2.3
			v3.8h-0.8V271.8z"/>
		<path d="M262,275.9h2.2v0.7H262V275.9z"/>
		<path d="M265.1,275.4c0-2.3,1.1-3.7,2.7-3.7s2.7,1.4,2.7,3.7c0,2.3-1.1,3.8-2.7,3.8S265.1,277.7,265.1,275.4z M269.7,275.4
			c0-1.8-0.7-2.9-1.9-2.9s-1.9,1.1-1.9,2.9s0.7,3,1.9,3S269.7,277.2,269.7,275.4z"/>
		<path d="M271.9,271.8h1.8c1.4,0,2.4,0.5,2.4,2.1c0,1.5-1,2.2-2.3,2.2h-1v2.9h-0.8V271.8z M273.7,275.4c1.1,0,1.6-0.5,1.6-1.5
			c0-1-0.6-1.4-1.7-1.4h-0.9v2.9H273.7z"/>
		<path d="M277.4,271.8h0.8v7.2h-0.8V271.8z"/>
		<path d="M279.6,275.4c0-2.3,1.1-3.7,2.7-3.7s2.7,1.4,2.7,3.7c0,2.3-1.1,3.8-2.7,3.8S279.6,277.7,279.6,275.4z M284.2,275.4
			c0-1.8-0.7-2.9-1.9-2.9s-1.9,1.1-1.9,2.9s0.7,3,1.9,3S284.2,277.2,284.2,275.4z"/>
		<path d="M286.4,271.8h1.6c1.9,0,3,1.3,3,3.6s-1,3.6-3,3.6h-1.6V271.8z M287.9,278.3c1.5,0,2.2-1.1,2.2-2.9s-0.7-2.8-2.2-2.8h-0.7
			v5.7H287.9z"/>
		<path d="M243.2,306.6c0-2.3,1.2-3.7,2.8-3.7c0.8,0,1.4,0.4,1.7,0.9l-0.4,0.6c-0.3-0.4-0.8-0.7-1.3-0.7c-1.2,0-2,1.1-2,2.9
			c0,1.8,0.8,3,2,3c0.6,0,1.1-0.3,1.5-0.8l0.4,0.6c-0.5,0.7-1.1,1-1.9,1C244.4,310.4,243.2,309,243.2,306.6z"/>
		<path d="M248.7,306.6c0-2.3,1.1-3.7,2.7-3.7s2.7,1.4,2.7,3.7c0,2.3-1.1,3.8-2.7,3.8S248.7,308.9,248.7,306.6z M253.3,306.6
			c0-1.8-0.7-2.9-1.9-2.9s-1.9,1.1-1.9,2.9s0.7,3,1.9,3S253.3,308.4,253.3,306.6z"/>
		<path d="M255.1,307.1h2.2v0.7h-2.2V307.1z"/>
		<path d="M259.8,303h0.9l2.1,7.2H262l-1.1-4c-0.2-0.8-0.4-1.6-0.6-2.4h0c-0.2,0.8-0.4,1.6-0.6,2.4l-1.1,4h-0.8L259.8,303z
			 M258.8,307.3h2.9v0.7h-2.9V307.3z"/>
		<path d="M263.8,303h0.8l2.3,4.5l0.7,1.5h0c0-0.7-0.1-1.5-0.1-2.3V303h0.8v7.2h-0.8l-2.3-4.5l-0.7-1.5h0c0,0.7,0.1,1.5,0.1,2.3v3.8
			h-0.8V303z"/>
		<path d="M271.3,303h0.9l2.1,7.2h-0.9l-1.1-4c-0.2-0.8-0.4-1.6-0.6-2.4h0c-0.2,0.8-0.4,1.6-0.6,2.4l-1.1,4h-0.8L271.3,303z
			 M270.3,307.3h2.9v0.7h-2.9V307.3z"/>
		<path d="M275.3,303h0.8v6.4h2.8v0.8h-3.6V303z"/>
		<path d="M279.6,306.6c0-2.3,1.2-3.7,2.9-3.7c0.9,0,1.5,0.5,1.8,0.9l-0.4,0.6c-0.3-0.4-0.7-0.7-1.4-0.7c-1.3,0-2.1,1.1-2.1,2.9
			c0,1.8,0.8,3,2.1,3c0.5,0,0.9-0.2,1.1-0.4v-1.9h-1.3v-0.8h2.1v3c-0.4,0.5-1.1,0.8-2,0.8C280.8,310.4,279.6,309,279.6,306.6z"/>
		<path d="M286,303h3.7v0.8h-2.8v2.3h2.4v0.8h-2.4v2.6h2.9v0.8H286V303z"/>
		<path d="M290.6,309.3l0.5-0.6c0.5,0.5,1.1,0.9,1.7,0.9c0.8,0,1.3-0.5,1.3-1.2c0-0.7-0.5-1-1.1-1.3l-0.9-0.5
			c-0.6-0.3-1.3-0.8-1.3-1.9c0-1.1,0.8-1.9,2-1.9c0.8,0,1.4,0.4,1.9,0.9l-0.4,0.6c-0.4-0.4-0.9-0.7-1.4-0.7c-0.7,0-1.2,0.4-1.2,1.1
			c0,0.7,0.6,1,1,1.2l0.9,0.4c0.7,0.4,1.3,0.9,1.3,1.9c0,1.1-0.8,2.1-2.2,2.1C291.9,310.4,291.1,309.9,290.6,309.3z"/>
		<path d="M296.2,303h0.8v7.2h-0.8V303z"/>
		<path d="M300.1,303h0.9l2.1,7.2h-0.9l-1.1-4c-0.2-0.8-0.4-1.6-0.6-2.4h0c-0.2,0.8-0.4,1.6-0.6,2.4l-1.1,4h-0.8L300.1,303z
			 M299,307.3h2.9v0.7H299V307.3z"/>
	</g>
</g>
<g>
	<g>
		<path d="M124.7,378.3h1.5l1.6,3.6l0.6,1.6h0c-0.1-0.8-0.2-1.8-0.2-2.6v-2.5h1.4v7.2h-1.5l-1.6-3.6l-0.6-1.6h0
			c0.1,0.8,0.2,1.8,0.2,2.6v2.5h-1.4V378.3z"/>
		<path d="M130.8,381.8c0-2.3,1.2-3.7,2.9-3.7s2.9,1.4,2.9,3.7c0,2.3-1.2,3.7-2.9,3.7S130.8,384.2,130.8,381.8z M135.1,381.8
			c0-1.4-0.5-2.3-1.4-2.3s-1.4,0.8-1.4,2.3s0.5,2.3,1.4,2.3S135.1,383.3,135.1,381.8z"/>
		<path d="M137.7,378.3h1.5l1.6,3.6l0.6,1.6h0c-0.1-0.8-0.2-1.8-0.2-2.6v-2.5h1.4v7.2h-1.5l-1.6-3.6l-0.6-1.6h0
			c0.1,0.8,0.2,1.8,0.2,2.6v2.5h-1.4V378.3z"/>
		<path d="M143.8,382.1h2.4v1.1h-2.4V382.1z"/>
		<path d="M147,381.8c0-2.3,1.2-3.7,2.9-3.7s2.9,1.4,2.9,3.7c0,2.3-1.2,3.7-2.9,3.7S147,384.2,147,381.8z M151.3,381.8
			c0-1.4-0.5-2.3-1.4-2.3s-1.4,0.8-1.4,2.3s0.5,2.3,1.4,2.3S151.3,383.3,151.3,381.8z"/>
		<path d="M153.9,378.3h2.2c1.4,0,2.5,0.6,2.5,2.3c0,1.7-1.1,2.4-2.5,2.4h-0.8v2.4h-1.4V378.3z M156.1,381.7c0.8,0,1.2-0.4,1.2-1.1
			c0-0.8-0.4-1-1.2-1h-0.7v2.2H156.1z"/>
		<path d="M159.7,378.3h1.4v7.2h-1.4V378.3z"/>
		<path d="M162.3,381.8c0-2.3,1.2-3.7,2.9-3.7s2.9,1.4,2.9,3.7c0,2.3-1.2,3.7-2.9,3.7S162.3,384.2,162.3,381.8z M166.6,381.8
			c0-1.4-0.5-2.3-1.4-2.3s-1.4,0.8-1.4,2.3s0.5,2.3,1.4,2.3S166.6,383.3,166.6,381.8z"/>
		<path d="M169.2,378.3h1.4v7.2h-1.4V378.3z"/>
		<path d="M172.1,378.3h1.8c1.9,0,3.2,1.1,3.2,3.6s-1.2,3.6-3.1,3.6h-1.9V378.3z M173.8,384.2c1.1,0,1.8-0.6,1.8-2.3
			s-0.7-2.2-1.8-2.2h-0.3v4.6H173.8z"/>
		<path d="M181.5,382.4h-1.7v-1.1h1.7v-2h1v2h1.7v1.1h-1.7v2h-1V382.4z"/>
		<path d="M186.6,377.6h0.9l-1.9,9.6h-0.9L186.6,377.6z"/>
		<path d="M188.3,382.2h6.9v1h-6.9V382.2z"/>
		<path d="M124.4,413.1c0-2.3,1.2-3.7,2.8-3.7c0.8,0,1.4,0.4,1.7,0.9l-0.4,0.6c-0.3-0.4-0.8-0.7-1.3-0.7c-1.2,0-2,1.1-2,2.9
			c0,1.8,0.8,3,2,3c0.6,0,1.1-0.3,1.5-0.8l0.4,0.6c-0.5,0.7-1.1,1-1.9,1C125.6,416.8,124.4,415.4,124.4,413.1z"/>
		<path d="M129.9,413c0-2.3,1.1-3.7,2.7-3.7c1.6,0,2.7,1.4,2.7,3.7c0,2.3-1.1,3.8-2.7,3.8C131.1,416.8,129.9,415.3,129.9,413z
			 M134.5,413c0-1.8-0.7-2.9-1.9-2.9s-1.9,1.1-1.9,2.9s0.7,3,1.9,3S134.5,414.8,134.5,413z"/>
		<path d="M136.3,413.5h2.2v0.7h-2.2V413.5z"/>
		<path d="M141,409.4h0.9l2.1,7.2h-0.9l-1.1-4c-0.2-0.8-0.4-1.6-0.6-2.4h0c-0.2,0.8-0.4,1.6-0.6,2.4l-1.1,4h-0.8L141,409.4z
			 M140,413.7h2.9v0.7H140V413.7z"/>
		<path d="M145,409.4h0.8l2.3,4.5l0.7,1.5h0c0-0.7-0.1-1.5-0.1-2.3v-3.7h0.8v7.2h-0.8l-2.3-4.5l-0.7-1.5h0c0,0.7,0.1,1.5,0.1,2.3
			v3.8H145V409.4z"/>
		<path d="M152.5,409.4h0.9l2.1,7.2h-0.9l-1.1-4c-0.2-0.8-0.4-1.6-0.6-2.4h0c-0.2,0.8-0.4,1.6-0.6,2.4l-1.1,4h-0.8L152.5,409.4z
			 M151.5,413.7h2.9v0.7h-2.9V413.7z"/>
		<path d="M156.5,409.4h0.8v6.4h2.8v0.8h-3.6V409.4z"/>
		<path d="M160.8,413.1c0-2.3,1.2-3.7,2.9-3.7c0.9,0,1.5,0.5,1.8,0.9l-0.4,0.6c-0.3-0.4-0.7-0.7-1.4-0.7c-1.3,0-2.1,1.1-2.1,2.9
			c0,1.8,0.8,3,2.1,3c0.5,0,0.9-0.2,1.1-0.4v-1.9h-1.3v-0.8h2.1v3c-0.4,0.5-1.1,0.8-2,0.8C162,416.8,160.8,415.4,160.8,413.1z"/>
		<path d="M167.2,409.4h3.7v0.8H168v2.3h2.4v0.8H168v2.6h2.9v0.8h-3.8V409.4z"/>
		<path d="M171.8,415.7l0.5-0.6c0.5,0.5,1.1,0.9,1.7,0.9c0.8,0,1.3-0.5,1.3-1.2c0-0.7-0.5-1-1.1-1.3l-0.9-0.5
			c-0.6-0.3-1.3-0.8-1.3-1.9c0-1.1,0.8-1.9,2-1.9c0.8,0,1.4,0.4,1.9,0.9l-0.4,0.6c-0.4-0.4-0.9-0.7-1.4-0.7c-0.7,0-1.2,0.4-1.2,1.1
			c0,0.7,0.6,1,1,1.2l0.9,0.4c0.7,0.4,1.3,0.9,1.3,1.9c0,1.1-0.8,2.1-2.2,2.1C173.1,416.8,172.3,416.4,171.8,415.7z"/>
		<path d="M177.4,409.4h0.8v7.2h-0.8V409.4z"/>
		<path d="M181.3,409.4h0.9l2.1,7.2h-0.9l-1.1-4c-0.2-0.8-0.4-1.6-0.6-2.4h0c-0.2,0.8-0.4,1.6-0.6,2.4l-1.1,4h-0.8L181.3,409.4z
			 M180.2,413.7h2.9v0.7h-2.9V413.7z"/>
	</g>
</g>
<g>
	<g>
		<path d="M243.1,212.4l0.8-1.1c0.4,0.4,1,0.7,1.5,0.7c0.6,0,0.9-0.3,0.9-0.7c0-0.5-0.4-0.6-0.9-0.9l-0.8-0.4
			c-0.7-0.3-1.3-0.9-1.3-2c0-1.2,0.9-2.1,2.2-2.1c0.7,0,1.5,0.3,2,0.9l-0.7,1c-0.4-0.4-0.8-0.6-1.3-0.6c-0.5,0-0.8,0.2-0.8,0.6
			c0,0.4,0.4,0.6,1,0.8l0.8,0.4c0.8,0.4,1.2,0.9,1.2,2c0,1.2-0.9,2.2-2.4,2.2C244.6,213.5,243.7,213.1,243.1,212.4z"/>
		<path d="M248.9,211.3v-2.2h-0.7v-1.2l0.7-0.1l0.2-1.5h1.2v1.5h1.1v1.3h-1.1v2.2c0,0.6,0.2,0.9,0.6,0.9c0.2,0,0.3-0.1,0.5-0.1
			l0.2,1.2c-0.3,0.1-0.6,0.2-1.1,0.2C249.4,213.5,248.9,212.6,248.9,211.3z"/>
		<path d="M252.1,210.6c0-1.8,1.1-2.9,2.3-2.9c1.4,0,2,1.1,2,2.6c0,0.3,0,0.6-0.1,0.7h-2.9c0.1,0.8,0.6,1.2,1.2,1.2
			c0.4,0,0.7-0.1,1-0.4l0.5,1c-0.5,0.4-1.1,0.6-1.7,0.6C253.2,213.5,252.1,212.4,252.1,210.6z M255.2,210c0-0.6-0.2-1-0.8-1
			c-0.4,0-0.8,0.3-0.9,1H255.2z"/>
		<path d="M257.4,207.9h1.2l0.1,0.5h0c0.4-0.4,0.9-0.7,1.4-0.7c1.2,0,1.9,1.1,1.9,2.8c0,1.9-1,2.9-2,2.9c-0.4,0-0.8-0.2-1.1-0.6
			l0,0.9v1.6h-1.4V207.9z M260.5,210.5c0-1-0.3-1.5-0.8-1.5c-0.3,0-0.5,0.1-0.8,0.5v2.2c0.3,0.3,0.5,0.3,0.8,0.3
			C260.1,212.1,260.5,211.7,260.5,210.5z"/>
		<path d="M264.6,212.4c1.6-1.7,2.7-2.9,2.7-3.9c0-0.7-0.3-1-0.9-1c-0.4,0-0.8,0.3-1.1,0.7l-0.8-0.9c0.6-0.7,1.2-1.1,2.1-1.1
			c1.2,0,2,0.9,2,2.2c0,1.2-1,2.4-2,3.6c0.3,0,0.7-0.1,1-0.1h1.2v1.4h-4.3V212.4z"/>
	</g>
</g>
<g>
	<g>
		<path d="M124.3,348.2l0.8-1.1c0.4,0.4,1,0.7,1.5,0.7c0.6,0,0.9-0.3,0.9-0.7c0-0.5-0.4-0.6-0.9-0.9l-0.8-0.4
			c-0.7-0.3-1.3-0.9-1.3-2c0-1.2,0.9-2.1,2.2-2.1c0.7,0,1.5,0.3,2,0.9l-0.7,1c-0.4-0.4-0.8-0.6-1.3-0.6c-0.5,0-0.8,0.2-0.8,0.6
			c0,0.4,0.4,0.6,1,0.8l0.8,0.4c0.8,0.4,1.2,0.9,1.2,2c0,1.2-0.9,2.2-2.4,2.2C125.8,349.2,124.9,348.9,124.3,348.2z"/>
		<path d="M130.1,347.1v-2.2h-0.7v-1.2l0.7-0.1l0.2-1.5h1.2v1.5h1.1v1.3h-1.1v2.2c0,0.6,0.2,0.9,0.6,0.9c0.2,0,0.3-0.1,0.5-0.1
			l0.2,1.2c-0.3,0.1-0.6,0.2-1.1,0.2C130.6,349.2,130.1,348.4,130.1,347.1z"/>
		<path d="M133.3,346.3c0-1.8,1.1-2.9,2.3-2.9c1.4,0,2,1.1,2,2.6c0,0.3,0,0.6-0.1,0.7h-2.9c0.1,0.8,0.6,1.2,1.2,1.2
			c0.4,0,0.7-0.1,1-0.4l0.5,1c-0.5,0.4-1.1,0.6-1.7,0.6C134.4,349.2,133.3,348.2,133.3,346.3z M136.4,345.8c0-0.6-0.2-1-0.8-1
			c-0.4,0-0.8,0.3-0.9,1H136.4z"/>
		<path d="M138.6,343.6h1.2l0.1,0.5h0c0.4-0.4,0.9-0.7,1.4-0.7c1.2,0,1.9,1.1,1.9,2.8c0,1.9-1,2.9-2,2.9c-0.4,0-0.8-0.2-1.1-0.6
			l0,0.9v1.6h-1.4V343.6z M141.7,346.3c0-1-0.3-1.5-0.8-1.5c-0.3,0-0.5,0.1-0.8,0.5v2.2c0.3,0.3,0.5,0.3,0.8,0.3
			C141.3,347.9,141.7,347.4,141.7,346.3z"/>
		<path d="M146.1,347.8h1.3v-4h-1.1v-1c0.7-0.1,1.1-0.3,1.5-0.6h1v5.7h1.1v1.3h-3.9V347.8z"/>
	</g>
</g>
<g>
	<g>
		<path d="M47.9,384.1h1.6l1,3.2c0.1,0.4,0.2,0.9,0.4,1.3h0c0.1-0.4,0.2-0.9,0.4-1.3l1-3.2h1.6v7.2h-1.3v-2.6c0-0.7,0.1-1.7,0.2-2.4
			h0l-0.5,1.7l-0.9,2.7h-0.8l-0.9-2.7l-0.5-1.7h0c0.1,0.7,0.2,1.7,0.2,2.4v2.6h-1.3V384.1z"/>
		<path d="M55.3,384.1h1.4v7.2h-1.4V384.1z"/>
		<path d="M58.2,384.1h1.4v5.8h2.5v1.4h-3.9V384.1z"/>
		<path d="M63.2,384.1H65c1.9,0,3.2,1.1,3.2,3.6s-1.2,3.6-3.1,3.6h-1.9V384.1z M64.9,389.9c1.1,0,1.8-0.6,1.8-2.3s-0.7-2.2-1.8-2.2
			h-0.3v4.6H64.9z"/>
		<path d="M71.2,384.1h2.2c1.4,0,2.5,0.6,2.5,2.3c0,1.7-1.1,2.4-2.5,2.4h-0.8v2.4h-1.4V384.1z M73.4,387.5c0.8,0,1.2-0.4,1.2-1.1
			c0-0.8-0.4-1-1.2-1h-0.7v2.2H73.4z"/>
		<path d="M78.2,384.1h1.7l2,7.2h-1.5l-0.8-3.6c-0.2-0.7-0.3-1.6-0.5-2.3h0c-0.2,0.8-0.3,1.6-0.5,2.3l-0.8,3.6h-1.5L78.2,384.1z
			 M77.5,388.3h3v1.3h-3V388.3z"/>
		<path d="M82.5,384.1H84v7.2h-1.4V384.1z"/>
		<path d="M85.5,384.1h1.5l1.6,3.6l0.6,1.6h0c-0.1-0.8-0.2-1.8-0.2-2.6v-2.5h1.4v7.2h-1.5l-1.6-3.6l-0.6-1.6h0
			c0.1,0.8,0.2,1.8,0.2,2.6v2.5h-1.4V384.1z"/>
		<path d="M47.8,401.4c0-1.9,0.5-3.5,1.3-5l0.9,0.4c-0.7,1.4-1,3-1,4.6s0.3,3.2,1,4.6l-0.9,0.4C48.3,404.9,47.8,403.3,47.8,401.4z"
			/>
		<path d="M51.1,403.1h1.3v-4h-1.1v-1c0.7-0.1,1.1-0.3,1.5-0.6h1v5.7h1.1v1.3h-3.9V403.1z"/>
		<path d="M56,401.1h2.4v1.1H56V401.1z"/>
		<path d="M59,403.6l0.7-1c0.4,0.4,0.8,0.7,1.3,0.7c0.6,0,1-0.3,1-0.8c0-0.6-0.3-1-1.6-1v-1.1c1.1,0,1.4-0.4,1.4-0.9
			c0-0.5-0.3-0.8-0.8-0.8c-0.4,0-0.8,0.2-1.1,0.6l-0.7-1c0.6-0.6,1.2-0.9,1.9-0.9c1.3,0,2.1,0.7,2.1,1.9c0,0.7-0.4,1.2-1,1.6v0
			c0.7,0.2,1.2,0.8,1.2,1.7c0,1.3-1,2-2.3,2C60.1,404.6,59.4,404.2,59,403.6z"/>
		<path d="M64.4,406c0.7-1.4,1-3,1-4.6s-0.3-3.2-1-4.6l0.9-0.4c0.8,1.5,1.3,3.1,1.3,5s-0.5,3.5-1.3,5L64.4,406z"/>
	</g>
</g>
<g>
	<g>
		<path d="M47.9,227.4h1.6l1,3.2c0.1,0.4,0.2,0.9,0.4,1.3h0c0.1-0.4,0.2-0.9,0.4-1.3l1-3.2h1.6v7.2h-1.3v-2.6c0-0.7,0.1-1.7,0.2-2.4
			h0l-0.5,1.7l-0.9,2.7h-0.8l-0.9-2.7l-0.5-1.7h0c0.1,0.7,0.2,1.7,0.2,2.4v2.6h-1.3V227.4z"/>
		<path d="M55,230.9c0-2.3,1.2-3.7,2.9-3.7s2.9,1.4,2.9,3.7c0,2.3-1.2,3.7-2.9,3.7S55,233.3,55,230.9z M59.2,230.9
			c0-1.4-0.5-2.3-1.4-2.3s-1.4,0.8-1.4,2.3s0.5,2.3,1.4,2.3S59.2,232.4,59.2,230.9z"/>
		<path d="M61.9,227.4h1.8c1.9,0,3.2,1.1,3.2,3.6s-1.2,3.6-3.1,3.6h-1.9V227.4z M63.6,233.2c1.1,0,1.8-0.6,1.8-2.3s-0.7-2.2-1.8-2.2
			h-0.3v4.6H63.6z"/>
		<path d="M68,227.4H72v1.4h-2.5v1.4h2.1v1.4h-2.1v1.7H72v1.4h-4V227.4z"/>
		<path d="M73.3,227.4h2.3c1.3,0,2.4,0.5,2.4,2.2c0,1.6-1.1,2.4-2.4,2.4h-0.8v2.6h-1.4V227.4z M75.5,230.7c0.7,0,1.2-0.4,1.2-1.1
			c0-0.7-0.4-0.9-1.2-0.9h-0.7v2H75.5z M75.3,231.5l1-1l2,4h-1.6L75.3,231.5z"/>
		<path d="M80.4,227.4h1.7l2,7.2h-1.5l-0.8-3.6c-0.2-0.7-0.3-1.6-0.5-2.3h0c-0.2,0.8-0.3,1.6-0.5,2.3l-0.8,3.6h-1.5L80.4,227.4z
			 M79.7,231.6h3v1.3h-3V231.6z"/>
		<path d="M86,228.7h-1.7v-1.4h4.9v1.4h-1.7v5.8H86V228.7z"/>
		<path d="M90.1,227.4h3.9v1.4h-2.5v1.4h2.1v1.4h-2.1v1.7h2.6v1.4h-4V227.4z"/>
		<path d="M97.4,227.4h2.2c1.4,0,2.5,0.6,2.5,2.3c0,1.7-1.1,2.4-2.5,2.4h-0.8v2.4h-1.4V227.4z M99.5,230.8c0.8,0,1.2-0.4,1.2-1.1
			c0-0.8-0.4-1-1.2-1h-0.7v2.2H99.5z"/>
		<path d="M104.3,227.4h1.7l2,7.2h-1.5l-0.8-3.6c-0.2-0.7-0.3-1.6-0.5-2.3h0c-0.2,0.8-0.3,1.6-0.5,2.3l-0.8,3.6h-1.5L104.3,227.4z
			 M103.6,231.6h3v1.3h-3V231.6z"/>
		<path d="M108.7,227.4h1.4v7.2h-1.4V227.4z"/>
		<path d="M111.6,227.4h1.5l1.6,3.6l0.6,1.6h0c-0.1-0.8-0.2-1.8-0.2-2.6v-2.5h1.4v7.2h-1.5l-1.6-3.6l-0.6-1.6h0
			c0.1,0.8,0.2,1.8,0.2,2.6v2.5h-1.4V227.4z"/>
		<path d="M47.8,244.7c0-1.9,0.5-3.5,1.3-5l0.9,0.4c-0.7,1.4-1,3-1,4.6s0.3,3.2,1,4.6l-0.9,0.4C48.3,248.2,47.8,246.6,47.8,244.7z"
			/>
		<path d="M53.3,243.7c0-0.4,0-1.1,0.1-1.6h0c-0.2,0.4-0.3,0.8-0.5,1.2l-0.8,1.5h3.3v1.2h-4.7v-1.1l2.2-4.2h1.7v7h-1.3V243.7z"/>
		<path d="M56,244.4h2.4v1.1H56V244.4z"/>
		<path d="M62,242.1h-2.8v-1.4h4.3v1c-1.4,1.9-1.6,3.3-1.7,6h-1.4C60.4,245.4,60.8,243.9,62,242.1z"/>
		<path d="M64.4,249.3c0.7-1.4,1-3,1-4.6s-0.3-3.2-1-4.6l0.9-0.4c0.8,1.5,1.3,3.1,1.3,5s-0.5,3.5-1.3,5L64.4,249.3z"/>
	</g>
</g>
<g>
	<g>
		<path d="M47.5,76.9l0.8-1.1c0.4,0.4,1,0.7,1.5,0.7c0.6,0,0.9-0.3,0.9-0.7c0-0.5-0.4-0.6-0.9-0.9L49,74.6c-0.7-0.3-1.3-0.9-1.3-2
			c0-1.2,0.9-2.1,2.2-2.1c0.7,0,1.5,0.3,2,0.9l-0.7,1c-0.4-0.4-0.8-0.6-1.3-0.6c-0.5,0-0.8,0.2-0.8,0.6c0,0.4,0.4,0.6,1,0.8l0.8,0.4
			c0.8,0.4,1.2,0.9,1.2,2c0,1.2-0.9,2.2-2.4,2.2C49,77.9,48.1,77.6,47.5,76.9z"/>
		<path d="M53.3,70.6h3.9V72h-2.5v1.4h2.1v1.4h-2.1v1.7h2.6v1.4h-4V70.6z"/>
		<path d="M57.8,70.6h1.5L60,74c0.2,0.8,0.3,1.5,0.5,2.3h0c0.2-0.8,0.3-1.5,0.5-2.3l0.7-3.3h1.5l-1.9,7.2h-1.7L57.8,70.6z"/>
		<path d="M63.9,70.6h3.9V72h-2.5v1.4h2.1v1.4h-2.1v1.7H68v1.4h-4V70.6z"/>
		<path d="M69.2,70.6h2.3c1.3,0,2.4,0.5,2.4,2.2c0,1.6-1.1,2.4-2.4,2.4h-0.8v2.6h-1.4V70.6z M71.4,73.9c0.7,0,1.2-0.4,1.2-1.1
			c0-0.7-0.4-0.9-1.2-0.9h-0.7v2H71.4z M71.2,74.8l1-1l2,4h-1.6L71.2,74.8z"/>
		<path d="M75.2,70.6h3.9V72h-2.5v1.4h2.1v1.4h-2.1v1.7h2.6v1.4h-4V70.6z"/>
		<path d="M82.4,70.6h2.2c1.4,0,2.5,0.6,2.5,2.3c0,1.7-1.1,2.4-2.5,2.4h-0.8v2.4h-1.4V70.6z M84.5,74.1c0.8,0,1.2-0.4,1.2-1.1
			c0-0.8-0.4-1-1.2-1h-0.7v2.2H84.5z"/>
		<path d="M89.3,70.6H91l2,7.2h-1.5l-0.8-3.6c-0.2-0.7-0.3-1.6-0.5-2.3h0c-0.2,0.8-0.3,1.6-0.5,2.3l-0.8,3.6h-1.5L89.3,70.6z
			 M88.6,74.8h3v1.3h-3V74.8z"/>
		<path d="M93.7,70.6h1.4v7.2h-1.4V70.6z"/>
		<path d="M96.6,70.6h1.5l1.6,3.6l0.6,1.6h0c-0.1-0.8-0.2-1.8-0.2-2.6v-2.5h1.4v7.2h-1.5l-1.6-3.6l-0.6-1.6h0
			c0.1,0.8,0.2,1.8,0.2,2.6v2.5h-1.4V70.6z"/>
		<path d="M47.8,88c0-1.9,0.5-3.5,1.3-5l0.9,0.4c-0.7,1.4-1,3-1,4.6s0.3,3.2,1,4.6L49.1,93C48.3,91.5,47.8,89.9,47.8,88z"/>
		<path d="M50.9,89.2c0-0.8,0.5-1.4,1-1.7v0c-0.5-0.4-0.8-0.9-0.8-1.6c0-1.2,0.8-1.9,2-1.9c1.1,0,1.9,0.8,1.9,1.9
			c0,0.7-0.4,1.2-0.8,1.5v0c0.6,0.4,1.1,0.9,1.1,1.8c0,1.1-0.9,1.9-2.2,1.9C51.8,91.1,50.9,90.4,50.9,89.2z M53.9,89.2
			c0-0.6-0.5-0.9-1.3-1.2c-0.3,0.3-0.5,0.7-0.5,1.1c0,0.6,0.4,1,0.9,1C53.5,90,53.9,89.7,53.9,89.2z M53.8,85.9
			c0-0.5-0.3-0.9-0.7-0.9c-0.4,0-0.7,0.3-0.7,0.8c0,0.6,0.4,0.8,1.1,1.1C53.6,86.6,53.8,86.3,53.8,85.9z"/>
		<path d="M56,87.7h2.4v1.1H56V87.7z"/>
		<path d="M59.5,89.7h1.3v-4h-1.1v-1c0.7-0.1,1.1-0.3,1.5-0.6h1v5.7h1.1V91h-3.9V89.7z"/>
		<path d="M64.2,87.5c0-2.4,0.9-3.6,2.2-3.6c1.3,0,2.2,1.2,2.2,3.6c0,2.4-0.9,3.7-2.2,3.7C65.1,91.1,64.2,89.9,64.2,87.5z
			 M67.3,87.5c0-1.9-0.4-2.3-0.9-2.3c-0.5,0-0.9,0.4-0.9,2.3s0.4,2.4,0.9,2.4C66.9,89.9,67.3,89.4,67.3,87.5z"/>
		<path d="M69.5,92.6c0.7-1.4,1-3,1-4.6s-0.3-3.2-1-4.6l0.9-0.4c0.8,1.5,1.3,3.1,1.3,5s-0.5,3.5-1.3,5L69.5,92.6z"/>
	</g>
</g>
<g>
	<g>
		<path d="M29.1,13c-0.1,0-0.2,0-0.2-0.1c-0.1-0.1-0.1-0.3,0-0.5l5.3-5.3c0.1-0.1,0.3-0.1,0.5,0c0.1,0.1,0.1,0.3,0,0.5l-5.3,5.3
			C29.3,13,29.2,13,29.1,13z"/>
	</g>
	<g>
		<path d="M39.8,13c-0.1,0-0.2,0-0.2-0.1l-5.3-5.3c-0.1-0.1-0.1-0.3,0-0.5c0.1-0.1,0.3-0.1,0.5,0l5.3,5.3c0.1,0.1,0.1,0.3,0,0.5
			C40,13,39.9,13,39.8,13z"/>
	</g>
	<g>
		<path d="M34.5,446.2c-0.2,0-0.3-4.6-0.3-10.3V18.5c0-5.7,0.2-10.3,0.3-10.3c0.2,0,0.3,4.6,0.3,10.3v417.4
			C34.8,441.6,34.6,446.2,34.5,446.2z"/>
	</g>
</g>
<g>
	<line class="st0" x1="109.3" y1="447.1" x2="109.3" y2="319.7"/>
	<line class="st0" x1="109.3" y1="319.7" x2="221.7" y2="319.7"/>
	<line class="st0" x1="221.7" y1="319.7" x2="221.7" y2="189.5"/>
	<line class="st0" x1="221.7" y1="189.5" x2="334.2" y2="189.5"/>
	<line class="st0" x1="334.2" y1="189.5" x2="334.2" y2="8.2"/>
	<line class="st0" x1="334.2" y1="8.2" x2="446.6" y2="8.2"/>
</g>
<g>
	<g>
		<path class="st1" d="M148.3,298.3c-19.7-27.3-31.9-69.7,51.1-90"/>
	</g>
	<polygon points="196.5,205.4 197.1,207.1 197.6,208.7 197.6,208.7 198.2,210.4 198.8,212.1 204.3,206.6 	"/>
	<polygon points="150.6,296 149.2,297 147.7,298 147.7,298 146.2,299 144.8,300 151.6,303.8 	"/>
</g>
<g>
	<g>
		<path class="st1" d="M261.4,142.6c-19.7-27.3-31.9-69.7,51.1-90"/>
	</g>
	<polygon points="309.6,49.6 310.2,51.3 310.7,53 310.7,53 311.3,54.7 311.9,56.3 317.4,50.8 	"/>
	<polygon points="263.7,140.3 262.3,141.2 260.8,142.2 260.8,142.2 259.3,143.2 257.9,144.2 264.6,148.1 	"/>
</g>
</svg>
