<?xml version="1.0" encoding="utf-8"?>
<!-- Generator: Adobe Illustrator 16.0.0, SVG Export Plug-In . SVG Version: 6.00 Build 0)  -->
<!DOCTYPE svg PUBLIC "-//W3C//DTD SVG 1.1//EN" "http://www.w3.org/Graphics/SVG/1.1/DTD/svg11.dtd">
<svg version="1.1" id="Layer_1" xmlns="http://www.w3.org/2000/svg" xmlns:xlink="http://www.w3.org/1999/xlink" x="0px" y="0px"
	 width="595.276px" height="368.504px" viewBox="0 0 595.276 368.504" enable-background="new 0 0 595.276 368.504"
	 xml:space="preserve">
<g>
	<g>
		<defs>
			<polygon id="SVGID_1_" points="43.228,109.284 53.858,109.284 53.858,244.701 43.228,244.701 64.063,276.205 85.748,244.701 
				75.118,244.701 75.118,109.284 85.748,109.284 64.913,77.78 			"/>
		</defs>
		<clipPath id="SVGID_2_">
			<use xlink:href="#SVGID_1_"  overflow="visible"/>
		</clipPath>
		
			<linearGradient id="SVGID_3_" gradientUnits="userSpaceOnUse" x1="0" y1="368.5029" x2="1" y2="368.5029" gradientTransform="matrix(0 -198.4252 198.4252 0 -73055.8516 276.2887)">
			<stop  offset="0" style="stop-color:#E6E7E8"/>
			<stop  offset="1" style="stop-color:#77787B"/>
		</linearGradient>
		<rect x="43.228" y="77.78" clip-path="url(#SVGID_2_)" fill="url(#SVGID_3_)" width="42.52" height="198.425"/>
	</g>
	<g>
		<defs>
			<polygon id="SVGID_4_" points="382.338,109.284 392.968,109.284 392.968,244.701 382.338,244.701 403.172,276.205 
				424.857,244.701 414.227,244.701 414.227,109.284 424.857,109.284 404.023,77.78 			"/>
		</defs>
		<clipPath id="SVGID_5_">
			<use xlink:href="#SVGID_4_"  overflow="visible"/>
		</clipPath>
		
			<linearGradient id="SVGID_6_" gradientUnits="userSpaceOnUse" x1="0" y1="368.5029" x2="1" y2="368.5029" gradientTransform="matrix(0 -198.4252 198.4252 0 -72716.7266 276.2887)">
			<stop  offset="0" style="stop-color:#E6E7E8"/>
			<stop  offset="1" style="stop-color:#77787B"/>
		</linearGradient>
		<rect x="382.338" y="77.78" clip-path="url(#SVGID_5_)" fill="url(#SVGID_6_)" width="42.52" height="198.425"/>
	</g>
	<g>
		<defs>
			<polygon id="SVGID_7_" points="496.851,109.284 507.48,109.284 507.48,244.701 496.851,244.701 517.685,276.205 539.37,244.701 
				528.74,244.701 528.74,109.284 539.37,109.284 518.536,77.78 			"/>
		</defs>
		<clipPath id="SVGID_8_">
			<use xlink:href="#SVGID_7_"  overflow="visible"/>
		</clipPath>
		
			<linearGradient id="SVGID_9_" gradientUnits="userSpaceOnUse" x1="0" y1="368.5029" x2="1" y2="368.5029" gradientTransform="matrix(0 -198.4252 198.4252 0 -72602.2266 276.2887)">
			<stop  offset="0" style="stop-color:#E6E7E8"/>
			<stop  offset="1" style="stop-color:#77787B"/>
		</linearGradient>
		<rect x="496.851" y="77.78" clip-path="url(#SVGID_8_)" fill="url(#SVGID_9_)" width="42.52" height="198.425"/>
	</g>
	<g>
		<defs>
			<polygon id="SVGID_10_" points="112.551,332.897 339.323,332.897 225.937,21.087 			"/>
		</defs>
		<clipPath id="SVGID_11_">
			<use xlink:href="#SVGID_10_"  overflow="visible"/>
		</clipPath>
		
			<linearGradient id="SVGID_12_" gradientUnits="userSpaceOnUse" x1="0" y1="368.5039" x2="1" y2="368.5039" gradientTransform="matrix(0 -311.811 311.811 0 -114677.8516 332.8813)">
			<stop  offset="0" style="stop-color:#E6E7E8"/>
			<stop  offset="1" style="stop-color:#77787B"/>
		</linearGradient>
		<rect x="112.551" y="21.087" clip-path="url(#SVGID_11_)" fill="url(#SVGID_12_)" width="226.772" height="311.811"/>
	</g>
	<g>
		<defs>
			<rect id="SVGID_13_" width="595.276" height="368.504"/>
		</defs>
		<clipPath id="SVGID_14_">
			<use xlink:href="#SVGID_13_"  overflow="visible"/>
		</clipPath>
		<path clip-path="url(#SVGID_14_)" d="M564.67,14.042c0-1.787-1.224-2.182-2.195-2.182c-1.081,0-1.669,0.73-1.896,1.066h-0.024
			v-0.886h-0.995v6.274h1.055v-3.419c0-1.705,1.057-2.089,1.657-2.089c1.032,0,1.344,0.552,1.344,1.644v3.864h1.056V14.042z
			 M553.617,15.17c0-0.84,0.313-2.401,1.825-2.401s1.824,1.561,1.824,2.401c0,0.84-0.312,2.401-1.824,2.401
			S553.617,16.01,553.617,15.17 M552.526,15.17c0,1.62,0.911,3.311,2.916,3.311c2.004,0,2.915-1.691,2.915-3.311
			c0-1.621-0.911-3.311-2.915-3.311C553.438,11.859,552.526,13.549,552.526,15.17 M543.609,15.158c0-0.805,0.084-2.353,1.717-2.353
			c1.524,0,1.692,1.645,1.692,2.665c0,1.668-1.044,2.113-1.716,2.113C544.149,17.583,543.609,16.538,543.609,15.158 M548.086,9.698
			h-1.056v3.143l-0.023,0.084c-0.252-0.36-0.732-1.066-1.872-1.066c-1.669,0-2.616,1.366-2.616,3.131c0,1.5,0.624,3.503,2.76,3.503
			c0.612,0,1.332-0.192,1.788-1.043h0.024v0.863h0.995V9.698z M537.033,14.679c0-0.973,0.769-1.874,1.741-1.874
			c1.284,0,1.692,0.901,1.752,1.874H537.033z M540.479,16.346c-0.036,0.468-0.624,1.237-1.62,1.237
			c-1.213,0-1.825-0.757-1.825-2.066h4.584c0-2.22-0.887-3.658-2.698-3.658c-2.077,0-3.013,1.546-3.013,3.49
			c0,1.813,1.043,3.144,2.809,3.144c1.008,0,1.416-0.24,1.704-0.431c0.791-0.528,1.079-1.416,1.114-1.716H540.479z M534.79,13.825
			c0-0.312-0.156-1.966-2.399-1.966c-1.237,0-2.376,0.622-2.376,2.002c0,0.865,0.576,1.309,1.451,1.525l1.225,0.3
			c0.9,0.228,1.248,0.396,1.248,0.9c0,0.696-0.684,0.997-1.439,0.997c-1.489,0-1.634-0.793-1.669-1.285h-1.02
			c0.036,0.756,0.216,2.195,2.7,2.195c1.416,0,2.483-0.779,2.483-2.075c0-0.852-0.455-1.332-1.764-1.656l-1.056-0.264
			c-0.817-0.205-1.142-0.325-1.142-0.841c0-0.78,0.925-0.888,1.249-0.888c1.332,0,1.477,0.66,1.488,1.056H534.79z M528.79,13.825
			c0-0.312-0.156-1.966-2.399-1.966c-1.237,0-2.376,0.622-2.376,2.002c0,0.865,0.576,1.309,1.451,1.525l1.225,0.3
			c0.9,0.228,1.248,0.396,1.248,0.9c0,0.696-0.684,0.997-1.439,0.997c-1.489,0-1.634-0.793-1.669-1.285h-1.02
			c0.036,0.756,0.216,2.195,2.7,2.195c1.416,0,2.483-0.779,2.483-2.075c0-0.852-0.455-1.332-1.764-1.656l-1.056-0.264
			c-0.817-0.205-1.142-0.325-1.142-0.841c0-0.78,0.925-0.888,1.249-0.888c1.332,0,1.477,0.66,1.488,1.056H528.79z M522.622,18.313
			v-6.274h-1.056v3.456c0,0.912-0.396,2.088-1.728,2.088c-0.686,0-1.213-0.348-1.213-1.38v-4.164h-1.056v4.512
			c0,1.499,1.115,1.942,2.039,1.942c1.01,0,1.549-0.383,1.993-1.114l0.024,0.024v0.91H522.622z M516.478,14.149
			c-0.084-1.092-0.708-2.29-2.352-2.29c-2.076,0-3.012,1.546-3.012,3.491c0,1.812,1.043,3.143,2.808,3.143
			c1.836,0,2.448-1.403,2.556-2.399h-1.02c-0.181,0.96-0.792,1.489-1.5,1.489c-1.452,0-1.717-1.333-1.717-2.413
			c0-1.117,0.421-2.365,1.729-2.365c0.888,0,1.356,0.504,1.488,1.344H516.478z M505.594,15.17c0-0.84,0.312-2.401,1.825-2.401
			c1.512,0,1.823,1.561,1.823,2.401c0,0.84-0.312,2.401-1.823,2.401C505.905,17.571,505.594,16.01,505.594,15.17 M504.503,15.17
			c0,1.62,0.911,3.311,2.916,3.311c2.004,0,2.915-1.691,2.915-3.311c0-1.621-0.911-3.311-2.915-3.311
			C505.414,11.859,504.503,13.549,504.503,15.17 M504.25,12.913v-0.874h-1.057v-0.781c0-0.505,0.168-0.733,0.624-0.733
			c0.132,0,0.3,0.012,0.433,0.024V9.603c-0.168-0.012-0.324-0.023-0.48-0.023c-1.031,0-1.631,0.431-1.631,1.378v1.082h-0.864v0.874
			h0.864v5.4h1.055v-5.4H504.25z M492.706,14.679c0-0.973,0.768-1.874,1.74-1.874c1.284,0,1.692,0.901,1.752,1.874H492.706z
			 M496.15,16.346c-0.036,0.468-0.624,1.237-1.62,1.237c-1.213,0-1.824-0.757-1.824-2.066h4.584c0-2.22-0.888-3.658-2.699-3.658
			c-2.077,0-3.012,1.546-3.012,3.49c0,1.813,1.043,3.144,2.808,3.144c1.008,0,1.416-0.24,1.704-0.431
			c0.792-0.528,1.079-1.416,1.115-1.716H496.15z M489.321,14.666c0-0.912,0.624-1.68,1.608-1.68h0.396v-1.09
			c-0.085-0.025-0.145-0.036-0.276-0.036c-0.792,0-1.344,0.491-1.764,1.222h-0.024v-1.042h-0.995v6.274h1.055V14.666z
			 M482.182,15.17c0-0.84,0.313-2.401,1.825-2.401c1.512,0,1.824,1.561,1.824,2.401c0,0.84-0.313,2.401-1.824,2.401
			C482.494,17.571,482.182,16.01,482.182,15.17 M481.091,15.17c0,1.62,0.911,3.311,2.916,3.311c2.004,0,2.915-1.691,2.915-3.311
			c0-1.621-0.911-3.311-2.915-3.311C482.002,11.859,481.091,13.549,481.091,15.17 M479.806,18.313V9.698h-1.655l-2.447,7.285h-0.024
			l-2.461-7.285h-1.667v8.615h1.127v-5.086c0-0.254-0.024-1.346-0.024-2.138h0.024l2.425,7.224h1.152l2.424-7.236h0.024
			c0,0.804-0.024,1.896-0.024,2.148v5.088H479.806z"/>
	</g>
	<text transform="matrix(1 0 0 1 564.6699 18.314)" font-family="'HelveticaLTStd-Roman'" font-size="12"> </text>
	<g>
		<defs>
			<rect id="SVGID_15_" width="595.276" height="368.504"/>
		</defs>
		<clipPath id="SVGID_16_">
			<use xlink:href="#SVGID_15_"  overflow="visible"/>
		</clipPath>
		<path clip-path="url(#SVGID_16_)" d="M562.156,28.226c0-0.312-0.156-1.967-2.4-1.967c-1.236,0-2.375,0.623-2.375,2.003
			c0,0.864,0.575,1.308,1.451,1.524l1.224,0.3c0.901,0.229,1.249,0.397,1.249,0.901c0,0.696-0.684,0.996-1.44,0.996
			c-1.488,0-1.633-0.792-1.668-1.284h-1.02c0.036,0.756,0.216,2.195,2.699,2.195c1.417,0,2.483-0.779,2.483-2.075
			c0-0.853-0.455-1.333-1.763-1.657l-1.057-0.264c-0.816-0.204-1.14-0.324-1.14-0.84c0-0.78,0.924-0.888,1.247-0.888
			c1.333,0,1.478,0.66,1.489,1.056H562.156z M551.728,29.079c0-0.973,0.769-1.873,1.74-1.873c1.285,0,1.693,0.9,1.753,1.873H551.728
			z M555.173,30.746c-0.036,0.469-0.624,1.237-1.621,1.237c-1.212,0-1.824-0.756-1.824-2.065h4.584c0-2.22-0.887-3.659-2.699-3.659
			c-2.076,0-3.012,1.547-3.012,3.491c0,1.813,1.043,3.144,2.808,3.144c1.009,0,1.417-0.24,1.705-0.432
			c0.791-0.527,1.078-1.416,1.114-1.716H555.173z M549.844,28.55c-0.084-1.092-0.708-2.291-2.352-2.291
			c-2.076,0-3.012,1.547-3.012,3.491c0,1.813,1.043,3.144,2.808,3.144c1.836,0,2.448-1.403,2.556-2.399h-1.02
			c-0.181,0.96-0.792,1.488-1.5,1.488c-1.452,0-1.717-1.332-1.717-2.413c0-1.116,0.421-2.364,1.729-2.364
			c0.888,0,1.355,0.504,1.488,1.344H549.844z M543.315,24.099h-1.055v1.198h1.055V24.099z M543.315,26.438h-1.055v6.275h1.055
			V26.438z M538.433,31.551h-0.023l-1.632-5.112h-1.225l2.292,6.275h1.127l2.388-6.275h-1.151L538.433,31.551z M533.08,29.066
			c0-0.912,0.624-1.68,1.607-1.68h0.396v-1.091c-0.084-0.024-0.145-0.036-0.276-0.036c-0.792,0-1.344,0.491-1.764,1.223h-0.024
			v-1.043h-0.994v6.275h1.055V29.066z M526.036,29.079c0-0.973,0.768-1.873,1.741-1.873c1.283,0,1.691,0.9,1.752,1.873H526.036z
			 M529.48,30.746c-0.035,0.469-0.624,1.237-1.619,1.237c-1.214,0-1.825-0.756-1.825-2.065h4.584c0-2.22-0.888-3.659-2.699-3.659
			c-2.077,0-3.012,1.547-3.012,3.491c0,1.813,1.043,3.144,2.808,3.144c1.008,0,1.416-0.24,1.704-0.432
			c0.791-0.527,1.079-1.416,1.115-1.716H529.48z M523.792,28.226c0-0.312-0.156-1.967-2.399-1.967c-1.236,0-2.376,0.623-2.376,2.003
			c0,0.864,0.575,1.308,1.451,1.524l1.226,0.3c0.899,0.229,1.247,0.397,1.247,0.901c0,0.696-0.684,0.996-1.439,0.996
			c-1.489,0-1.633-0.792-1.669-1.284h-1.02c0.036,0.756,0.217,2.195,2.7,2.195c1.416,0,2.483-0.779,2.483-2.075
			c0-0.853-0.456-1.333-1.764-1.657l-1.057-0.264c-0.816-0.204-1.14-0.324-1.14-0.84c0-0.78,0.924-0.888,1.249-0.888
			c1.332,0,1.476,0.66,1.487,1.056H523.792z M510.028,29.079c0-0.973,0.768-1.873,1.74-1.873c1.284,0,1.692,0.9,1.752,1.873H510.028
			z M513.473,30.746c-0.036,0.469-0.624,1.237-1.62,1.237c-1.213,0-1.824-0.756-1.824-2.065h4.584c0-2.22-0.888-3.659-2.699-3.659
			c-2.077,0-3.013,1.547-3.013,3.491c0,1.813,1.044,3.144,2.809,3.144c1.008,0,1.416-0.24,1.704-0.432
			c0.791-0.527,1.079-1.416,1.115-1.716H513.473z M505.697,31.551h-0.024l-1.632-5.112h-1.225l2.293,6.275h1.127l2.388-6.275h-1.152
			L505.697,31.551z M501.916,24.099h-1.055v1.198h1.055V24.099z M501.916,26.438h-1.055v6.275h1.055V26.438z M499.804,27.313v-0.875
			h-1.008v-1.752h-1.055v1.752h-0.853v0.875h0.853v4.141c0,0.756,0.228,1.343,1.271,1.343c0.108,0,0.408-0.048,0.792-0.084v-0.827
			h-0.372c-0.216,0-0.636,0-0.636-0.492v-4.081H499.804z M494.657,30.543c0,0.84-0.96,1.476-1.944,1.476
			c-0.793,0-1.141-0.408-1.141-1.092c0-0.792,0.828-0.949,1.345-1.021c1.308-0.168,1.572-0.264,1.74-0.396V30.543z M491.764,28.346
			c0.072-0.48,0.24-1.212,1.441-1.212c0.996,0,1.476,0.36,1.476,1.02c0,0.624-0.3,0.72-0.552,0.744l-1.741,0.216
			c-1.751,0.216-1.907,1.441-1.907,1.969c0,1.08,0.815,1.811,1.968,1.811c1.225,0,1.86-0.575,2.269-1.019
			c0.036,0.479,0.18,0.959,1.115,0.959c0.24,0,0.396-0.072,0.576-0.12v-0.767c-0.12,0.024-0.252,0.048-0.349,0.048
			c-0.216,0-0.348-0.108-0.348-0.372V28.01c0-1.607-1.823-1.751-2.327-1.751c-1.549,0-2.544,0.587-2.592,2.087H491.764z
			 M488.152,29.066c0-0.912,0.623-1.68,1.607-1.68h0.396v-1.091c-0.084-0.024-0.145-0.036-0.276-0.036
			c-0.792,0-1.344,0.491-1.764,1.223h-0.024v-1.043h-0.994v6.275h1.055V29.066z M485.368,32.714v-6.275h-1.055v3.456
			c0,0.912-0.396,2.088-1.729,2.088c-0.685,0-1.213-0.348-1.213-1.38v-4.164h-1.054v4.512c0,1.499,1.113,1.943,2.038,1.943
			c1.009,0,1.549-0.384,1.992-1.115l0.024,0.024v0.911H485.368z M479.224,28.55c-0.084-1.092-0.708-2.291-2.352-2.291
			c-2.076,0-3.01,1.547-3.01,3.491c0,1.813,1.042,3.144,2.806,3.144c1.836,0,2.448-1.403,2.556-2.399h-1.02
			c-0.181,0.96-0.792,1.488-1.5,1.488c-1.452,0-1.716-1.332-1.716-2.413c0-1.116,0.42-2.364,1.728-2.364
			c0.888,0,1.356,0.504,1.488,1.344H479.224z"/>
		<path clip-path="url(#SVGID_16_)" d="M564.67,325.853c0-1.787-1.224-2.183-2.195-2.183c-1.081,0-1.669,0.73-1.896,1.066h-0.024
			v-0.886h-0.995v6.273h1.055v-3.419c0-1.705,1.057-2.089,1.657-2.089c1.032,0,1.344,0.552,1.344,1.645v3.863h1.056V325.853z
			 M553.617,326.981c0-0.84,0.313-2.401,1.825-2.401s1.824,1.562,1.824,2.401s-0.312,2.4-1.824,2.4S553.617,327.821,553.617,326.981
			 M552.526,326.981c0,1.62,0.911,3.311,2.916,3.311c2.004,0,2.915-1.69,2.915-3.311c0-1.621-0.911-3.312-2.915-3.312
			C553.438,323.67,552.526,325.36,552.526,326.981 M543.609,326.97c0-0.806,0.084-2.354,1.717-2.354
			c1.524,0,1.692,1.646,1.692,2.665c0,1.668-1.044,2.113-1.716,2.113C544.149,329.395,543.609,328.35,543.609,326.97
			 M548.086,321.51h-1.056v3.143l-0.023,0.084c-0.252-0.36-0.732-1.066-1.872-1.066c-1.669,0-2.616,1.366-2.616,3.132
			c0,1.5,0.624,3.503,2.76,3.503c0.612,0,1.332-0.192,1.788-1.043h0.024v0.862h0.995V321.51z M537.033,326.49
			c0-0.973,0.769-1.874,1.741-1.874c1.284,0,1.692,0.901,1.752,1.874H537.033z M540.479,328.157
			c-0.036,0.468-0.624,1.237-1.62,1.237c-1.213,0-1.825-0.757-1.825-2.066h4.584c0-2.22-0.887-3.658-2.698-3.658
			c-2.077,0-3.013,1.547-3.013,3.49c0,1.813,1.043,3.145,2.809,3.145c1.008,0,1.416-0.24,1.704-0.432
			c0.791-0.527,1.079-1.416,1.114-1.716H540.479z M534.79,325.637c0-0.313-0.156-1.967-2.399-1.967
			c-1.237,0-2.376,0.622-2.376,2.002c0,0.865,0.576,1.31,1.451,1.525l1.225,0.3c0.9,0.229,1.248,0.396,1.248,0.9
			c0,0.696-0.684,0.997-1.439,0.997c-1.489,0-1.634-0.793-1.669-1.285h-1.02c0.036,0.756,0.216,2.195,2.7,2.195
			c1.416,0,2.483-0.779,2.483-2.075c0-0.853-0.455-1.332-1.764-1.656l-1.056-0.264c-0.817-0.205-1.142-0.325-1.142-0.841
			c0-0.78,0.925-0.889,1.249-0.889c1.332,0,1.477,0.66,1.488,1.057H534.79z M528.79,325.637c0-0.313-0.156-1.967-2.399-1.967
			c-1.237,0-2.376,0.622-2.376,2.002c0,0.865,0.576,1.31,1.451,1.525l1.225,0.3c0.9,0.229,1.248,0.396,1.248,0.9
			c0,0.696-0.684,0.997-1.439,0.997c-1.489,0-1.634-0.793-1.669-1.285h-1.02c0.036,0.756,0.216,2.195,2.7,2.195
			c1.416,0,2.483-0.779,2.483-2.075c0-0.853-0.455-1.332-1.764-1.656l-1.056-0.264c-0.817-0.205-1.142-0.325-1.142-0.841
			c0-0.78,0.925-0.889,1.249-0.889c1.332,0,1.477,0.66,1.488,1.057H528.79z M522.622,330.124v-6.273h-1.056v3.456
			c0,0.912-0.396,2.088-1.728,2.088c-0.686,0-1.213-0.349-1.213-1.381v-4.163h-1.056v4.512c0,1.499,1.115,1.942,2.039,1.942
			c1.01,0,1.549-0.384,1.993-1.114l0.024,0.023v0.91H522.622z M516.478,325.96c-0.084-1.092-0.708-2.29-2.352-2.29
			c-2.076,0-3.012,1.547-3.012,3.491c0,1.813,1.043,3.144,2.808,3.144c1.836,0,2.448-1.403,2.556-2.399h-1.02
			c-0.181,0.96-0.792,1.489-1.5,1.489c-1.452,0-1.717-1.333-1.717-2.413c0-1.117,0.421-2.365,1.729-2.365
			c0.888,0,1.356,0.504,1.488,1.344H516.478z M505.594,326.981c0-0.84,0.312-2.401,1.825-2.401c1.512,0,1.823,1.562,1.823,2.401
			s-0.312,2.4-1.823,2.4C505.905,329.382,505.594,327.821,505.594,326.981 M504.503,326.981c0,1.62,0.911,3.311,2.916,3.311
			c2.004,0,2.915-1.69,2.915-3.311c0-1.621-0.911-3.312-2.915-3.312C505.414,323.67,504.503,325.36,504.503,326.981 M504.25,324.725
			v-0.874h-1.057v-0.781c0-0.505,0.168-0.733,0.624-0.733c0.132,0,0.3,0.013,0.433,0.024v-0.947
			c-0.168-0.012-0.324-0.022-0.48-0.022c-1.031,0-1.631,0.431-1.631,1.378v1.082h-0.864v0.874h0.864v5.399h1.055v-5.399H504.25z
			 M492.706,326.49c0-0.973,0.768-1.874,1.74-1.874c1.284,0,1.692,0.901,1.752,1.874H492.706z M496.15,328.157
			c-0.036,0.468-0.624,1.237-1.62,1.237c-1.213,0-1.824-0.757-1.824-2.066h4.584c0-2.22-0.888-3.658-2.699-3.658
			c-2.077,0-3.012,1.547-3.012,3.49c0,1.813,1.043,3.145,2.808,3.145c1.008,0,1.416-0.24,1.704-0.432
			c0.792-0.527,1.079-1.416,1.115-1.716H496.15z M489.321,326.477c0-0.912,0.624-1.681,1.608-1.681h0.396v-1.091
			c-0.085-0.023-0.145-0.035-0.276-0.035c-0.792,0-1.344,0.491-1.764,1.223h-0.024v-1.042h-0.995v6.273h1.055V326.477z
			 M482.182,326.981c0-0.84,0.313-2.401,1.825-2.401c1.512,0,1.824,1.562,1.824,2.401s-0.313,2.4-1.824,2.4
			C482.494,329.382,482.182,327.821,482.182,326.981 M481.091,326.981c0,1.62,0.911,3.311,2.916,3.311
			c2.004,0,2.915-1.69,2.915-3.311c0-1.621-0.911-3.312-2.915-3.312C482.002,323.67,481.091,325.36,481.091,326.981
			 M479.806,330.124v-8.614h-1.655l-2.447,7.284h-0.024l-2.461-7.284h-1.667v8.614h1.127v-5.087c0-0.253-0.024-1.345-0.024-2.137
			h0.024l2.425,7.224h1.152l2.424-7.235h0.024c0,0.804-0.024,1.896-0.024,2.147v5.088H479.806z"/>
	</g>
	<text transform="matrix(1 0 0 1 564.6699 330.125)" font-family="'HelveticaLTStd-Roman'" font-size="12"> </text>
	<g>
		<defs>
			<rect id="SVGID_17_" width="595.276" height="368.504"/>
		</defs>
		<clipPath id="SVGID_18_">
			<use xlink:href="#SVGID_17_"  overflow="visible"/>
		</clipPath>
		<path clip-path="url(#SVGID_18_)" d="M552.184,341.369c0-0.804,0.084-2.353,1.717-2.353c1.524,0,1.692,1.645,1.692,2.665
			c0,1.669-1.044,2.112-1.716,2.112C552.724,343.794,552.184,342.749,552.184,341.369 M556.66,335.91h-1.056v3.142l-0.023,0.084
			c-0.252-0.358-0.732-1.065-1.872-1.065c-1.669,0-2.616,1.366-2.616,3.131c0,1.5,0.623,3.503,2.76,3.503
			c0.612,0,1.332-0.192,1.788-1.042h0.024v0.862h0.995V335.91z M549.892,340.252c0-1.787-1.223-2.182-2.194-2.182
			c-1.081,0-1.67,0.73-1.897,1.065h-0.024v-0.886h-0.994v6.274h1.055v-3.419c0-1.705,1.056-2.089,1.657-2.089
			c1.031,0,1.344,0.552,1.344,1.644v3.864h1.055V340.252z M541.937,342.354c0,0.84-0.96,1.477-1.944,1.477
			c-0.792,0-1.141-0.408-1.141-1.093c0-0.792,0.828-0.948,1.346-1.021c1.308-0.168,1.571-0.264,1.739-0.396V342.354z
			 M539.044,340.157c0.072-0.481,0.24-1.213,1.44-1.213c0.996,0,1.477,0.36,1.477,1.021c0,0.624-0.3,0.721-0.552,0.744l-1.741,0.216
			c-1.751,0.217-1.907,1.44-1.907,1.969c0,1.08,0.815,1.811,1.967,1.811c1.226,0,1.861-0.575,2.27-1.018
			c0.036,0.479,0.18,0.958,1.114,0.958c0.24,0,0.396-0.072,0.576-0.12v-0.767c-0.12,0.024-0.252,0.049-0.348,0.049
			c-0.216,0-0.348-0.108-0.348-0.372v-3.614c0-1.607-1.823-1.75-2.327-1.75c-1.549,0-2.544,0.587-2.593,2.087H539.044z
			 M533.212,340.252c0-1.787-1.224-2.182-2.195-2.182c-1.081,0-1.669,0.73-1.896,1.065h-0.024v-0.886h-0.995v6.274h1.056v-3.419
			c0-1.705,1.056-2.089,1.656-2.089c1.032,0,1.345,0.552,1.345,1.644v3.864h1.055V340.252z M522.16,341.381
			c0-0.84,0.312-2.4,1.824-2.4s1.824,1.561,1.824,2.4c0,0.841-0.312,2.401-1.824,2.401S522.16,342.222,522.16,341.381
			 M521.068,341.381c0,1.62,0.911,3.312,2.916,3.312c2.004,0,2.915-1.691,2.915-3.312c0-1.621-0.911-3.311-2.915-3.311
			C521.979,338.07,521.068,339.76,521.068,341.381 M519.844,335.91h-1.055v1.199h1.055V335.91z M519.844,338.25h-1.055v6.275h1.055
			V338.25z M517.731,339.124v-0.874h-1.008v-1.752h-1.054v1.752h-0.853v0.874h0.853v4.143c0,0.755,0.227,1.342,1.27,1.342
			c0.108,0,0.408-0.048,0.792-0.084v-0.826h-0.372c-0.216,0-0.636,0-0.636-0.492v-4.082H517.731z M513.868,340.252
			c0-1.787-1.224-2.182-2.195-2.182c-1.081,0-1.669,0.73-1.897,1.065h-0.023v-0.886h-0.994v6.274h1.054v-3.419
			c0-1.705,1.058-2.089,1.657-2.089c1.032,0,1.345,0.552,1.345,1.644v3.864h1.055V340.252z M502.912,340.891
			c0-0.974,0.768-1.874,1.74-1.874c1.284,0,1.693,0.9,1.754,1.874H502.912z M506.357,342.558c-0.035,0.468-0.625,1.236-1.621,1.236
			c-1.213,0-1.824-0.757-1.824-2.065h4.584c0-2.22-0.888-3.658-2.699-3.658c-2.077,0-3.011,1.547-3.011,3.49
			c0,1.813,1.042,3.144,2.807,3.144c1.008,0,1.416-0.239,1.704-0.431c0.792-0.527,1.079-1.416,1.115-1.716H506.357z
			 M498.581,343.362h-0.024l-1.632-5.112h-1.224l2.292,6.274h1.128l2.387-6.274h-1.152L498.581,343.362z M490.899,340.891
			c0-0.974,0.769-1.874,1.741-1.874c1.284,0,1.692,0.9,1.752,1.874H490.899z M494.345,342.558c-0.036,0.468-0.624,1.236-1.62,1.236
			c-1.213,0-1.825-0.757-1.825-2.065h4.584c0-2.22-0.887-3.658-2.698-3.658c-2.077,0-3.013,1.547-3.013,3.49
			c0,1.813,1.043,3.144,2.809,3.144c1.008,0,1.416-0.239,1.704-0.431c0.792-0.527,1.079-1.416,1.114-1.716H494.345z
			 M487.516,340.876c0-0.912,0.624-1.68,1.608-1.68h0.396v-1.09c-0.084-0.024-0.144-0.036-0.275-0.036
			c-0.792,0-1.345,0.491-1.765,1.222h-0.023v-1.042h-0.995v6.274h1.055V340.876z M479.561,347.008h1.056v-3.142h0.023
			c0.276,0.443,0.828,0.838,1.669,0.838c2.136,0,2.759-2.003,2.759-3.503c0-1.765-0.946-3.131-2.614-3.131
			c-1.142,0-1.621,0.707-1.873,1.065h-0.024v-0.886h-0.995V347.008z M480.567,341.682c0-1.021,0.168-2.665,1.693-2.665
			c1.632,0,1.716,1.549,1.716,2.353c0,1.38-0.54,2.425-1.691,2.425C481.611,343.794,480.567,343.351,480.567,341.682"/>
	</g>
	<text transform="matrix(1 0 0 1 556.6602 344.5254)" font-family="'HelveticaLTStd-Roman'" font-size="12"> </text>
	<g>
		<defs>
			<rect id="SVGID_19_" width="595.276" height="368.504"/>
		</defs>
		<clipPath id="SVGID_20_">
			<use xlink:href="#SVGID_19_"  overflow="visible"/>
		</clipPath>
		<path clip-path="url(#SVGID_20_)" d="M561.897,354.652c0-1.787-1.223-2.182-2.194-2.182c-1.081,0-1.669,0.729-1.897,1.065h-0.023
			v-0.887h-0.995v6.274h1.055v-3.419c0-1.704,1.056-2.089,1.656-2.089c1.033,0,1.345,0.553,1.345,1.645v3.863h1.055V354.652z
			 M550.846,355.781c0-0.84,0.313-2.401,1.824-2.401c1.513,0,1.825,1.562,1.825,2.401s-0.313,2.401-1.825,2.401
			C551.158,358.183,550.846,356.621,550.846,355.781 M549.755,355.781c0,1.62,0.911,3.312,2.915,3.312
			c2.005,0,2.916-1.691,2.916-3.312c0-1.621-0.911-3.311-2.916-3.311C550.666,352.471,549.755,354.16,549.755,355.781
			 M548.53,350.311h-1.056v1.199h1.056V350.311z M548.53,352.649h-1.056v6.274h1.056V352.649z M546.418,353.524v-0.875h-1.008
			v-1.752h-1.056v1.752h-0.852v0.875h0.852v4.141c0,0.756,0.229,1.344,1.271,1.344c0.108,0,0.408-0.049,0.792-0.085v-0.825h-0.372
			c-0.216,0-0.636,0-0.636-0.493v-4.081H546.418z M538.174,355.781c0-0.84,0.313-2.401,1.824-2.401c1.513,0,1.825,1.562,1.825,2.401
			s-0.313,2.401-1.825,2.401C538.486,358.183,538.174,356.621,538.174,355.781 M537.083,355.781c0,1.62,0.911,3.312,2.915,3.312
			c2.005,0,2.916-1.691,2.916-3.312c0-1.621-0.911-3.311-2.916-3.311C537.994,352.471,537.083,354.16,537.083,355.781
			 M527.447,358.924h1.055v-3.42c0-1.703,1.056-2.088,1.657-2.088c0.779,0,0.983,0.637,0.983,1.164v4.344h1.056v-3.827
			c0-0.841,0.588-1.681,1.477-1.681c0.9,0,1.164,0.588,1.164,1.452v4.056h1.055v-4.344c0-1.763-1.271-2.109-1.942-2.109
			c-0.974,0-1.394,0.431-1.921,1.018c-0.181-0.336-0.539-1.018-1.667-1.018c-1.129,0-1.67,0.729-1.897,1.065h-0.024v-0.887h-0.994
			V358.924z M521.506,355.781c0-0.84,0.313-2.401,1.825-2.401c1.512,0,1.824,1.562,1.824,2.401s-0.313,2.401-1.824,2.401
			C521.818,358.183,521.506,356.621,521.506,355.781 M520.415,355.781c0,1.62,0.911,3.312,2.916,3.312
			c2.004,0,2.915-1.691,2.915-3.312c0-1.621-0.911-3.311-2.915-3.311C521.326,352.471,520.415,354.16,520.415,355.781
			 M518.218,355.276c0-0.912,0.624-1.68,1.608-1.68h0.396v-1.091c-0.084-0.024-0.144-0.035-0.275-0.035
			c-0.792,0-1.345,0.49-1.765,1.222h-0.023v-1.043h-0.995v6.274h1.055V355.276z M510.263,361.408h1.056v-3.143h0.023
			c0.276,0.443,0.828,0.839,1.669,0.839c2.136,0,2.759-2.003,2.759-3.503c0-1.766-0.946-3.131-2.614-3.131
			c-1.142,0-1.621,0.706-1.873,1.065h-0.024v-0.887h-0.995V361.408z M511.27,356.081c0-1.021,0.168-2.665,1.693-2.665
			c1.632,0,1.716,1.548,1.716,2.354c0,1.38-0.54,2.425-1.691,2.425C512.313,358.194,511.27,357.749,511.27,356.081 M505.45,354.652
			c0-1.787-1.224-2.182-2.195-2.182c-1.009,0-1.537,0.623-1.837,1.018h-0.024v-3.178h-1.055v8.613h1.055v-3.42
			c0-1.584,0.889-2.088,1.753-2.088c1.009,0,1.248,0.553,1.248,1.404v4.104h1.056V354.652z M499.306,353.524v-0.875h-1.008v-1.752
			h-1.055v1.752h-0.853v0.875h0.853v4.141c0,0.756,0.228,1.344,1.271,1.344c0.108,0,0.408-0.049,0.792-0.085v-0.825h-0.372
			c-0.216,0-0.636,0-0.636-0.493v-4.081H499.306z M495.418,350.311h-1.055v8.615h1.055V350.311z M491.495,356.753
			c0,0.841-0.96,1.477-1.944,1.477c-0.793,0-1.141-0.408-1.141-1.092c0-0.792,0.828-0.948,1.345-1.021
			c1.308-0.168,1.572-0.264,1.74-0.396V356.753z M488.602,354.557c0.072-0.48,0.24-1.212,1.441-1.212
			c0.996,0,1.476,0.359,1.476,1.02c0,0.625-0.3,0.721-0.552,0.745l-1.741,0.216c-1.751,0.216-1.906,1.44-1.906,1.968
			c0,1.08,0.814,1.812,1.967,1.812c1.225,0,1.86-0.575,2.269-1.02c0.036,0.48,0.181,0.959,1.115,0.959
			c0.24,0,0.396-0.071,0.576-0.12v-0.767c-0.12,0.024-0.252,0.048-0.349,0.048c-0.216,0-0.348-0.107-0.348-0.372v-3.612
			c0-1.607-1.823-1.75-2.327-1.75c-1.549,0-2.544,0.586-2.592,2.086H488.602z M481.822,355.289c0-0.972,0.768-1.873,1.74-1.873
			c1.284,0,1.692,0.901,1.753,1.873H481.822z M485.267,356.957c-0.036,0.469-0.624,1.237-1.62,1.237
			c-1.213,0-1.824-0.757-1.824-2.066h4.584c0-2.22-0.888-3.657-2.699-3.657c-2.077,0-3.011,1.546-3.011,3.489
			c0,1.813,1.042,3.145,2.807,3.145c1.008,0,1.416-0.24,1.704-0.432c0.792-0.527,1.079-1.416,1.115-1.716H485.267z M479.434,354.652
			c0-1.787-1.223-2.182-2.194-2.182c-1.01,0-1.537,0.623-1.837,1.018h-0.024v-3.178h-1.055v8.613h1.055v-3.42
			c0-1.584,0.888-2.088,1.753-2.088c1.008,0,1.248,0.553,1.248,1.404v4.104h1.055V354.652z"/>
		<path clip-path="url(#SVGID_20_)" d="M447.95,18.194h0.635c0,0.564-0.132,1.164-0.635,1.212v0.552
			c0.24-0.036,1.246-0.228,1.246-1.86v-1.174h-1.246V18.194z M441.744,15.039c0-0.805,0.084-2.353,1.717-2.353
			c1.525,0,1.693,1.645,1.693,2.665c0,1.668-1.045,2.113-1.717,2.113C442.285,17.464,441.744,16.419,441.744,15.039 M446.22,9.579
			h-1.054v3.143l-0.023,0.084c-0.252-0.36-0.732-1.066-1.873-1.066c-1.668,0-2.615,1.366-2.615,3.131c0,1.5,0.623,3.503,2.759,3.503
			c0.612,0,1.333-0.192,1.789-1.043h0.024v0.863h0.993V9.579z M435.168,14.56c0-0.973,0.77-1.874,1.741-1.874
			c1.285,0,1.693,0.901,1.753,1.874H435.168z M438.614,16.227c-0.036,0.468-0.624,1.237-1.621,1.237
			c-1.212,0-1.825-0.757-1.825-2.066h4.584c0-2.22-0.886-3.658-2.699-3.658c-2.075,0-3.011,1.546-3.011,3.49
			c0,1.813,1.042,3.144,2.808,3.144c1.009,0,1.417-0.24,1.705-0.431c0.79-0.528,1.078-1.416,1.113-1.716H438.614z M432.925,13.706
			c0-0.312-0.155-1.966-2.399-1.966c-1.237,0-2.375,0.622-2.375,2.002c0,0.865,0.575,1.309,1.451,1.525l1.224,0.3
			c0.901,0.228,1.249,0.396,1.249,0.9c0,0.696-0.684,0.997-1.441,0.997c-1.488,0-1.632-0.793-1.668-1.285h-1.019
			c0.036,0.756,0.216,2.195,2.699,2.195c1.417,0,2.482-0.779,2.482-2.075c0-0.852-0.455-1.332-1.762-1.656l-1.057-0.264
			c-0.816-0.205-1.142-0.325-1.142-0.841c0-0.78,0.925-0.888,1.249-0.888c1.333,0,1.478,0.66,1.489,1.056H432.925z M426.757,9.579
			h-1.055v1.199h1.055V9.579z M426.757,11.92h-1.055v6.274h1.055V11.92z M424.093,9.579h-1.055v8.615h1.055V9.579z M420.17,16.023
			c0,0.84-0.96,1.477-1.944,1.477c-0.792,0-1.141-0.409-1.141-1.093c0-0.792,0.828-0.948,1.345-1.02
			c1.309-0.168,1.572-0.264,1.74-0.396V16.023z M417.277,13.826c0.072-0.48,0.24-1.212,1.44-1.212c0.996,0,1.477,0.36,1.477,1.02
			c0,0.625-0.3,0.721-0.552,0.745l-1.741,0.216c-1.751,0.216-1.907,1.44-1.907,1.968c0,1.08,0.815,1.811,1.967,1.811
			c1.226,0,1.861-0.575,2.27-1.019c0.036,0.48,0.18,0.959,1.114,0.959c0.24,0,0.396-0.072,0.576-0.12v-0.767
			c-0.12,0.025-0.252,0.049-0.348,0.049c-0.216,0-0.348-0.109-0.348-0.373V13.49c0-1.607-1.823-1.75-2.327-1.75
			c-1.549,0-2.544,0.587-2.592,2.086H417.277z M414.757,9.579h-1.055v1.199h1.055V9.579z M414.757,11.92h-1.055v6.274h1.055V11.92z
			 M412.621,14.03c-0.084-1.092-0.708-2.29-2.352-2.29c-2.076,0-3.012,1.546-3.012,3.491c0,1.812,1.043,3.143,2.808,3.143
			c1.836,0,2.448-1.403,2.556-2.399h-1.02c-0.181,0.96-0.792,1.489-1.5,1.489c-1.452,0-1.717-1.333-1.717-2.413
			c0-1.117,0.42-2.365,1.729-2.365c0.888,0,1.355,0.504,1.488,1.344H412.621z M401.833,14.56c0-0.973,0.769-1.874,1.741-1.874
			c1.284,0,1.692,0.901,1.752,1.874H401.833z M405.278,16.227c-0.036,0.468-0.624,1.237-1.62,1.237
			c-1.213,0-1.825-0.757-1.825-2.066h4.584c0-2.22-0.887-3.658-2.699-3.658c-2.076,0-3.012,1.546-3.012,3.49
			c0,1.813,1.043,3.144,2.809,3.144c1.008,0,1.415-0.24,1.703-0.431c0.792-0.528,1.079-1.416,1.115-1.716H405.278z M394.25,20.678
			h1.055v-3.143h0.024c0.276,0.444,0.828,0.839,1.669,0.839c2.136,0,2.759-2.003,2.759-3.503c0-1.765-0.946-3.131-2.614-3.131
			c-1.142,0-1.621,0.706-1.873,1.066h-0.024V11.92h-0.995V20.678z M395.257,15.351c0-1.02,0.168-2.665,1.693-2.665
			c1.632,0,1.716,1.548,1.716,2.353c0,1.38-0.54,2.425-1.691,2.425C396.301,17.464,395.257,17.019,395.257,15.351 M392.917,13.706
			c0-0.312-0.156-1.966-2.398-1.966c-1.237,0-2.376,0.622-2.376,2.002c0,0.865,0.575,1.309,1.45,1.525l1.226,0.3
			c0.899,0.228,1.248,0.396,1.248,0.9c0,0.696-0.685,0.997-1.44,0.997c-1.489,0-1.633-0.793-1.669-1.285h-1.019
			c0.036,0.756,0.216,2.195,2.7,2.195c1.416,0,2.482-0.779,2.482-2.075c0-0.852-0.455-1.332-1.763-1.656l-1.057-0.264
			c-0.816-0.205-1.141-0.325-1.141-0.841c0-0.78,0.924-0.888,1.249-0.888c1.332,0,1.476,0.66,1.488,1.056H392.917z M379.153,14.56
			c0-0.973,0.768-1.874,1.741-1.874c1.283,0,1.691,0.901,1.752,1.874H379.153z M382.599,16.227c-0.036,0.468-0.624,1.237-1.62,1.237
			c-1.213,0-1.825-0.757-1.825-2.066h4.584c0-2.22-0.887-3.658-2.699-3.658c-2.077,0-3.012,1.546-3.012,3.49
			c0,1.813,1.043,3.144,2.808,3.144c1.008,0,1.416-0.24,1.704-0.431c0.792-0.528,1.079-1.416,1.115-1.716H382.599z M375.77,14.546
			c0-0.912,0.624-1.68,1.607-1.68h0.396v-1.09c-0.084-0.025-0.145-0.036-0.276-0.036c-0.792,0-1.344,0.491-1.764,1.222h-0.024V11.92
			h-0.995v6.274h1.056V14.546z M368.629,15.051c0-0.84,0.313-2.401,1.825-2.401c1.512,0,1.824,1.561,1.824,2.401
			c0,0.84-0.313,2.401-1.824,2.401C368.941,17.452,368.629,15.891,368.629,15.051 M367.538,15.051c0,1.62,0.911,3.311,2.916,3.311
			c2.004,0,2.915-1.691,2.915-3.311c0-1.621-0.911-3.311-2.915-3.311C368.449,11.74,367.538,13.43,367.538,15.051 M366.253,18.194
			V9.579h-1.654l-2.448,7.285h-0.024l-2.461-7.285h-1.667v8.615h1.127v-5.086c0-0.254-0.023-1.346-0.023-2.138h0.023l2.425,7.224
			h1.152l2.424-7.236h0.024c0,0.804-0.024,1.896-0.024,2.148v5.088H366.253z"/>
	</g>
	<text transform="matrix(1 0 0 1 449.1963 18.1948)" font-family="'HelveticaLTStd-Roman'" font-size="12"> </text>
	<g>
		<defs>
			<rect id="SVGID_21_" width="595.276" height="368.504"/>
		</defs>
		<clipPath id="SVGID_22_">
			<use xlink:href="#SVGID_21_"  overflow="visible"/>
		</clipPath>
		<path clip-path="url(#SVGID_22_)" d="M430.729,31.431h-0.024l-1.667-5.112h-1.2l2.327,6.444c-0.504,1.296-0.563,1.452-1.114,1.452
			c-0.288,0-0.504-0.06-0.637-0.108v0.971c0.168,0.036,0.288,0.084,0.444,0.084c1.354,0,1.463-0.144,2.459-2.686
			c0.804-2.053,1.524-4.105,2.255-6.157h-1.163L430.729,31.431z M427.141,23.979h-1.055v8.615h1.055V23.979z M425.028,27.194v-0.875
			h-1.008v-1.752h-1.054v1.752h-0.853v0.875h0.853v4.141c0,0.756,0.228,1.343,1.27,1.343c0.108,0,0.408-0.048,0.792-0.084v-0.827
			h-0.372c-0.216,0-0.636,0-0.636-0.492v-4.081H425.028z M421.31,28.106c0-0.312-0.156-1.966-2.4-1.966
			c-1.235,0-2.375,0.622-2.375,2.002c0,0.865,0.575,1.309,1.451,1.525l1.224,0.3c0.901,0.228,1.249,0.396,1.249,0.9
			c0,0.696-0.684,0.997-1.44,0.997c-1.489,0-1.632-0.793-1.668-1.285h-1.02c0.036,0.756,0.217,2.195,2.699,2.195
			c1.417,0,2.483-0.779,2.483-2.075c0-0.852-0.455-1.332-1.763-1.656l-1.057-0.264c-0.816-0.205-1.141-0.325-1.141-0.841
			c0-0.78,0.925-0.888,1.249-0.888c1.333,0,1.477,0.66,1.488,1.056H421.31z M410.784,29.451c0-0.84,0.313-2.401,1.825-2.401
			c1.513,0,1.825,1.561,1.825,2.401c0,0.84-0.313,2.4-1.825,2.4C411.098,31.851,410.784,30.291,410.784,29.451 M409.694,29.451
			c0,1.62,0.911,3.311,2.915,3.311c2.005,0,2.915-1.691,2.915-3.311c0-1.621-0.91-3.311-2.915-3.311
			C410.605,26.14,409.694,27.83,409.694,29.451 M408.996,28.43c-0.084-1.092-0.708-2.29-2.352-2.29c-2.075,0-3.01,1.546-3.01,3.491
			c0,1.812,1.043,3.143,2.806,3.143c1.836,0,2.448-1.403,2.556-2.399h-1.02c-0.18,0.96-0.792,1.489-1.5,1.489
			c-1.452,0-1.716-1.333-1.716-2.413c0-1.117,0.42-2.365,1.728-2.365c0.888,0,1.356,0.504,1.488,1.344H408.996z M394.872,28.959
			c0-0.972,0.77-1.873,1.741-1.873c1.285,0,1.693,0.901,1.753,1.873H394.872z M398.318,30.627c-0.036,0.468-0.624,1.237-1.621,1.237
			c-1.212,0-1.825-0.757-1.825-2.066h4.584c0-2.22-0.886-3.658-2.698-3.658c-2.076,0-3.012,1.546-3.012,3.49
			c0,1.813,1.043,3.144,2.808,3.144c1.009,0,1.417-0.24,1.705-0.431c0.791-0.528,1.079-1.416,1.114-1.716H398.318z M391.488,28.946
			c0-0.912,0.624-1.68,1.608-1.68h0.396v-1.091c-0.084-0.024-0.144-0.035-0.275-0.035c-0.792,0-1.345,0.491-1.765,1.222h-0.022
			v-1.043h-0.995v6.275h1.054V28.946z M384.349,29.451c0-0.84,0.313-2.401,1.825-2.401s1.824,1.561,1.824,2.401
			c0,0.84-0.312,2.4-1.824,2.4S384.349,30.291,384.349,29.451 M383.259,29.451c0,1.62,0.91,3.311,2.915,3.311
			s2.914-1.691,2.914-3.311c0-1.621-0.909-3.311-2.914-3.311S383.259,27.83,383.259,29.451 M373.622,32.594h1.056v-3.42
			c0-1.704,1.056-2.088,1.655-2.088c0.781,0,0.985,0.636,0.985,1.164v4.344h1.055v-3.828c0-0.84,0.588-1.68,1.477-1.68
			c0.9,0,1.165,0.588,1.165,1.452v4.056h1.055V28.25c0-1.763-1.271-2.11-1.943-2.11c-0.973,0-1.393,0.431-1.921,1.018
			c-0.18-0.336-0.539-1.018-1.667-1.018c-1.129,0-1.669,0.73-1.896,1.066h-0.024v-0.887h-0.995V32.594z"/>
		<path clip-path="url(#SVGID_22_)" d="M449.229,330.005h0.635c0,0.564-0.132,1.164-0.635,1.212v0.552
			c0.239-0.036,1.246-0.228,1.246-1.859v-1.175h-1.246V330.005z M443.023,326.85c0-0.805,0.084-2.353,1.716-2.353
			c1.524,0,1.692,1.644,1.692,2.665c0,1.668-1.044,2.113-1.717,2.113C443.563,329.275,443.023,328.229,443.023,326.85
			 M447.499,321.39h-1.055v3.144l-0.024,0.084c-0.252-0.36-0.731-1.066-1.873-1.066c-1.668,0-2.615,1.366-2.615,3.131
			c0,1.5,0.623,3.503,2.76,3.503c0.612,0,1.333-0.191,1.789-1.043h0.023v0.863h0.995V321.39z M436.447,326.37
			c0-0.973,0.768-1.873,1.74-1.873c1.284,0,1.692,0.9,1.753,1.873H436.447z M439.893,328.038c-0.036,0.468-0.624,1.237-1.621,1.237
			c-1.213,0-1.824-0.758-1.824-2.066h4.584c0-2.22-0.887-3.658-2.7-3.658c-2.076,0-3.011,1.546-3.011,3.49
			c0,1.813,1.043,3.144,2.807,3.144c1.009,0,1.417-0.239,1.705-0.431c0.791-0.528,1.079-1.416,1.115-1.716H439.893z
			 M434.203,325.517c0-0.312-0.156-1.966-2.4-1.966c-1.235,0-2.375,0.622-2.375,2.002c0,0.865,0.575,1.31,1.451,1.525l1.225,0.3
			c0.9,0.228,1.249,0.396,1.249,0.9c0,0.695-0.685,0.997-1.441,0.997c-1.488,0-1.632-0.794-1.668-1.285h-1.02
			c0.036,0.756,0.217,2.194,2.699,2.194c1.417,0,2.484-0.778,2.484-2.074c0-0.853-0.456-1.332-1.763-1.656l-1.058-0.265
			c-0.815-0.204-1.14-0.324-1.14-0.841c0-0.779,0.924-0.888,1.248-0.888c1.333,0,1.477,0.66,1.488,1.056H434.203z M428.035,321.39
			h-1.055v1.199h1.055V321.39z M428.035,323.729h-1.055v6.275h1.055V323.729z M425.371,321.39h-1.055v8.615h1.055V321.39z
			 M421.448,327.834c0,0.84-0.96,1.476-1.945,1.476c-0.792,0-1.14-0.407-1.14-1.092c0-0.792,0.828-0.948,1.345-1.02
			c1.308-0.168,1.572-0.265,1.74-0.396V327.834z M418.555,325.637c0.072-0.479,0.24-1.212,1.441-1.212
			c0.996,0,1.476,0.36,1.476,1.021c0,0.625-0.3,0.721-0.552,0.744l-1.741,0.217c-1.751,0.216-1.906,1.439-1.906,1.968
			c0,1.08,0.814,1.811,1.967,1.811c1.225,0,1.86-0.574,2.269-1.019c0.036,0.479,0.181,0.959,1.115,0.959
			c0.24,0,0.396-0.072,0.576-0.12v-0.767c-0.12,0.023-0.252,0.048-0.348,0.048c-0.217,0-0.349-0.108-0.349-0.372v-3.613
			c0-1.606-1.823-1.75-2.327-1.75c-1.549,0-2.544,0.586-2.592,2.086H418.555z M414.943,326.356c0-0.911,0.624-1.68,1.607-1.68h0.396
			v-1.091c-0.084-0.024-0.145-0.035-0.276-0.035c-0.792,0-1.344,0.491-1.764,1.222h-0.024v-1.043h-0.995v6.275h1.056V326.356z
			 M407.899,326.37c0-0.973,0.768-1.873,1.74-1.873c1.284,0,1.692,0.9,1.753,1.873H407.899z M411.344,328.038
			c-0.036,0.468-0.624,1.237-1.62,1.237c-1.213,0-1.824-0.758-1.824-2.066h4.584c0-2.22-0.888-3.658-2.699-3.658
			c-2.077,0-3.012,1.546-3.012,3.49c0,1.813,1.043,3.144,2.808,3.144c1.008,0,1.416-0.239,1.704-0.431
			c0.791-0.528,1.079-1.416,1.115-1.716H411.344z M405.511,325.732c0-1.786-1.223-2.182-2.194-2.182
			c-1.081,0-1.669,0.73-1.897,1.066h-0.023v-0.888H400.4v6.275h1.055v-3.419c0-1.705,1.056-2.089,1.657-2.089
			c1.032,0,1.344,0.552,1.344,1.644v3.864h1.055V325.732z M394.555,326.37c0-0.973,0.769-1.873,1.741-1.873
			c1.284,0,1.692,0.9,1.752,1.873H394.555z M398,328.038c-0.036,0.468-0.624,1.237-1.62,1.237c-1.213,0-1.825-0.758-1.825-2.066
			h4.584c0-2.22-0.887-3.658-2.698-3.658c-2.077,0-3.013,1.546-3.013,3.49c0,1.813,1.043,3.144,2.809,3.144
			c1.008,0,1.416-0.239,1.704-0.431c0.792-0.528,1.079-1.416,1.114-1.716H398z M392.263,323.729h-0.994v0.888h-0.024
			c-0.252-0.36-0.732-1.066-1.872-1.066c-1.669,0-2.616,1.366-2.616,3.131c0,1.5,0.624,3.503,2.76,3.503
			c0.841,0,1.393-0.395,1.668-0.839v-0.048h0.024v0.264c0,0.743,0.036,2.208-1.788,2.208c-0.252,0-1.225,0-1.417-0.996h-1.055
			c0.204,1.667,1.655,1.871,2.399,1.871c2.903,0,2.915-2.256,2.915-3.154V323.729z M387.847,326.85c0-0.805,0.084-2.353,1.718-2.353
			c1.523,0,1.691,1.644,1.691,2.665c0,1.668-1.044,2.113-1.716,2.113C388.387,329.275,387.847,328.229,387.847,326.85
			 M377.875,326.37c0-0.973,0.769-1.873,1.741-1.873c1.284,0,1.691,0.9,1.752,1.873H377.875z M381.32,328.038
			c-0.036,0.468-0.624,1.237-1.62,1.237c-1.213,0-1.825-0.758-1.825-2.066h4.584c0-2.22-0.887-3.658-2.699-3.658
			c-2.077,0-3.012,1.546-3.012,3.49c0,1.813,1.043,3.144,2.808,3.144c1.009,0,1.416-0.239,1.704-0.431
			c0.792-0.528,1.079-1.416,1.115-1.716H381.32z M374.491,326.356c0-0.911,0.624-1.68,1.607-1.68h0.396v-1.091
			c-0.084-0.024-0.144-0.035-0.276-0.035c-0.792,0-1.344,0.491-1.764,1.222h-0.024v-1.043h-0.994v6.275h1.055V326.356z
			 M367.352,326.862c0-0.841,0.312-2.401,1.824-2.401s1.824,1.561,1.824,2.401c0,0.84-0.312,2.399-1.824,2.399
			S367.352,327.702,367.352,326.862 M366.26,326.862c0,1.619,0.911,3.311,2.916,3.311c2.004,0,2.915-1.691,2.915-3.311
			c0-1.621-0.911-3.312-2.915-3.312C367.171,323.551,366.26,325.241,366.26,326.862 M364.975,330.005v-8.615h-1.654l-2.448,7.284
			h-0.024l-2.461-7.284h-1.667v8.615h1.127v-5.087c0-0.253-0.023-1.345-0.023-2.137h0.023l2.426,7.224h1.151l2.424-7.236h0.024
			c0,0.805-0.024,1.896-0.024,2.148v5.088H364.975z"/>
	</g>
	<text transform="matrix(1 0 0 1 450.4746 330.0059)" font-family="'HelveticaLTStd-Roman'" font-size="12"> </text>
	<g>
		<defs>
			<rect id="SVGID_23_" width="595.276" height="368.504"/>
		</defs>
		<clipPath id="SVGID_24_">
			<use xlink:href="#SVGID_23_"  overflow="visible"/>
		</clipPath>
		<path clip-path="url(#SVGID_24_)" d="M427.837,343.243h-0.022l-1.668-5.112h-1.2l2.328,6.444
			c-0.505,1.296-0.564,1.452-1.116,1.452c-0.288,0-0.504-0.061-0.636-0.108v0.97c0.168,0.036,0.287,0.084,0.443,0.084
			c1.356,0,1.464-0.144,2.459-2.686c0.804-2.052,1.524-4.104,2.256-6.156h-1.164L427.837,343.243z M424.249,335.791h-1.054v8.615
			h1.054V335.791z M422.137,339.005v-0.874h-1.008v-1.752h-1.055v1.752h-0.853v0.874h0.853v4.141c0,0.757,0.228,1.344,1.271,1.344
			c0.108,0,0.408-0.049,0.792-0.084v-0.826h-0.372c-0.216,0-0.636,0-0.636-0.493v-4.081H422.137z M418.417,339.917
			c0-0.313-0.156-1.966-2.399-1.966c-1.236,0-2.376,0.623-2.376,2.002c0,0.865,0.575,1.309,1.451,1.524l1.226,0.301
			c0.899,0.228,1.248,0.396,1.248,0.899c0,0.696-0.685,0.997-1.44,0.997c-1.489,0-1.633-0.793-1.669-1.285h-1.02
			c0.036,0.756,0.217,2.195,2.7,2.195c1.416,0,2.483-0.779,2.483-2.075c0-0.852-0.456-1.332-1.763-1.656l-1.058-0.264
			c-0.815-0.204-1.14-0.325-1.14-0.841c0-0.78,0.924-0.888,1.248-0.888c1.333,0,1.477,0.659,1.489,1.056H418.417z M407.893,341.262
			c0-0.84,0.313-2.4,1.825-2.4s1.824,1.561,1.824,2.4s-0.312,2.401-1.824,2.401S407.893,342.102,407.893,341.262 M406.802,341.262
			c0,1.62,0.911,3.312,2.916,3.312c2.004,0,2.915-1.691,2.915-3.312c0-1.621-0.911-3.311-2.915-3.311
			C407.713,337.951,406.802,339.641,406.802,341.262 M406.105,340.241c-0.084-1.093-0.708-2.29-2.353-2.29
			c-2.076,0-3.011,1.546-3.011,3.491c0,1.812,1.043,3.143,2.807,3.143c1.836,0,2.448-1.403,2.557-2.399h-1.021
			c-0.18,0.96-0.792,1.489-1.5,1.489c-1.452,0-1.716-1.333-1.716-2.413c0-1.117,0.42-2.365,1.728-2.365
			c0.889,0,1.356,0.505,1.488,1.345H406.105z M396.409,339.917c0-0.313-0.156-1.966-2.399-1.966c-1.236,0-2.376,0.623-2.376,2.002
			c0,0.865,0.575,1.309,1.451,1.524l1.225,0.301c0.9,0.228,1.248,0.396,1.248,0.899c0,0.696-0.684,0.997-1.439,0.997
			c-1.489,0-1.633-0.793-1.669-1.285h-1.02c0.036,0.756,0.217,2.195,2.7,2.195c1.416,0,2.483-0.779,2.483-2.075
			c0-0.852-0.456-1.332-1.764-1.656l-1.057-0.264c-0.816-0.204-1.14-0.325-1.14-0.841c0-0.78,0.924-0.888,1.248-0.888
			c1.333,0,1.477,0.659,1.488,1.056H396.409z M390.409,339.917c0-0.313-0.156-1.966-2.399-1.966c-1.236,0-2.376,0.623-2.376,2.002
			c0,0.865,0.575,1.309,1.451,1.524l1.225,0.301c0.9,0.228,1.248,0.396,1.248,0.899c0,0.696-0.684,0.997-1.439,0.997
			c-1.489,0-1.633-0.793-1.669-1.285h-1.02c0.036,0.756,0.217,2.195,2.7,2.195c1.416,0,2.483-0.779,2.483-2.075
			c0-0.852-0.456-1.332-1.764-1.656l-1.057-0.264c-0.816-0.204-1.14-0.325-1.14-0.841c0-0.78,0.924-0.888,1.248-0.888
			c1.333,0,1.477,0.659,1.488,1.056H390.409z M379.981,340.771c0-0.973,0.768-1.874,1.74-1.874c1.284,0,1.692,0.901,1.752,1.874
			H379.981z M383.426,342.438c-0.036,0.469-0.624,1.237-1.62,1.237c-1.213,0-1.824-0.757-1.824-2.065h4.584
			c0-2.221-0.888-3.658-2.699-3.658c-2.077,0-3.013,1.546-3.013,3.489c0,1.813,1.044,3.145,2.809,3.145
			c1.008,0,1.416-0.24,1.704-0.431c0.791-0.528,1.079-1.416,1.115-1.717H383.426z M377.569,335.791h-1.056v8.615h1.056V335.791z"/>
		<path clip-path="url(#SVGID_24_)" d="M102.54,13.706c0-0.312-0.156-1.967-2.4-1.967c-1.236,0-2.375,0.623-2.375,2.003
			c0,0.865,0.575,1.309,1.451,1.525l1.225,0.3c0.9,0.228,1.248,0.396,1.248,0.9c0,0.696-0.684,0.996-1.441,0.996
			c-1.488,0-1.632-0.792-1.668-1.284h-1.019c0.036,0.756,0.216,2.195,2.699,2.195c1.417,0,2.484-0.779,2.484-2.075
			c0-0.852-0.456-1.332-1.763-1.656l-1.057-0.264c-0.816-0.205-1.14-0.325-1.14-0.841c0-0.78,0.924-0.888,1.248-0.888
			c1.333,0,1.477,0.66,1.489,1.056H102.54z M96.924,12.794V11.92h-1.008v-1.753H94.86v1.753h-0.852v0.874h0.852v4.141
			c0,0.756,0.228,1.343,1.271,1.343c0.108,0,0.408-0.048,0.792-0.084v-0.826h-0.372c-0.216,0-0.636,0-0.636-0.493v-4.081H96.924z
			 M93.06,13.922c0-1.787-1.223-2.183-2.195-2.183c-1.081,0-1.669,0.731-1.897,1.067h-0.024V11.92h-0.995v6.274h1.055v-3.419
			c0-1.705,1.056-2.089,1.656-2.089c1.033,0,1.345,0.552,1.345,1.644v3.864h1.055V13.922z M82.104,14.559
			c0-0.972,0.768-1.873,1.74-1.873c1.285,0,1.693,0.901,1.753,1.873H82.104z M85.549,16.227c-0.036,0.468-0.624,1.236-1.621,1.236
			c-1.212,0-1.824-0.756-1.824-2.065h4.584c0-2.22-0.887-3.659-2.7-3.659c-2.076,0-3.011,1.547-3.011,3.491
			c0,1.813,1.043,3.144,2.807,3.144c1.009,0,1.417-0.24,1.705-0.431c0.791-0.528,1.079-1.416,1.115-1.716H85.549z M79.691,9.579
			h-1.055v1.199h1.055V9.579z M79.691,11.92h-1.055v6.274h1.055V11.92z M77.58,12.794V11.92h-1.008v-1.753h-1.055v1.753h-0.852
			v0.874h0.852v4.141c0,0.756,0.228,1.343,1.271,1.343c0.108,0,0.408-0.048,0.792-0.084v-0.826h-0.372c-0.216,0-0.636,0-0.636-0.493
			v-4.081H77.58z M72.433,16.023c0,0.84-0.96,1.476-1.945,1.476c-0.792,0-1.14-0.408-1.14-1.092c0-0.792,0.828-0.948,1.344-1.02
			c1.309-0.168,1.573-0.264,1.741-0.396V16.023z M69.54,13.826c0.072-0.48,0.24-1.212,1.441-1.212c0.996,0,1.476,0.36,1.476,1.02
			c0,0.625-0.3,0.721-0.552,0.745l-1.741,0.216c-1.751,0.216-1.907,1.44-1.907,1.968c0,1.08,0.815,1.811,1.967,1.811
			c1.225,0,1.861-0.575,2.269-1.019c0.036,0.48,0.18,0.959,1.115,0.959c0.24,0,0.396-0.072,0.576-0.12v-0.767
			c-0.12,0.024-0.252,0.049-0.348,0.049c-0.216,0-0.348-0.109-0.348-0.373V13.49c0-1.607-1.823-1.751-2.327-1.751
			c-1.549,0-2.544,0.587-2.592,2.087H69.54z M61.849,20.678h1.055v-3.143h0.024c0.276,0.444,0.828,0.839,1.669,0.839
			c2.136,0,2.759-2.003,2.759-3.503c0-1.765-0.947-3.132-2.615-3.132c-1.141,0-1.621,0.707-1.873,1.067h-0.024V11.92h-0.995V20.678z
			 M62.855,15.351c0-1.021,0.168-2.665,1.693-2.665c1.632,0,1.716,1.548,1.716,2.353c0,1.38-0.54,2.424-1.692,2.424
			C63.899,17.463,62.855,17.019,62.855,15.351 M55.8,14.546c0-0.912,0.624-1.68,1.608-1.68h0.396v-1.091
			c-0.084-0.024-0.144-0.036-0.276-0.036c-0.792,0-1.344,0.492-1.764,1.223H55.74V11.92h-0.995v6.274H55.8V14.546z M48.755,14.559
			c0-0.972,0.768-1.873,1.741-1.873c1.284,0,1.692,0.901,1.752,1.873H48.755z M52.201,16.227c-0.036,0.468-0.624,1.236-1.62,1.236
			c-1.213,0-1.825-0.756-1.825-2.065h4.584c0-2.22-0.887-3.659-2.699-3.659c-2.077,0-3.012,1.547-3.012,3.491
			c0,1.813,1.043,3.144,2.808,3.144c1.008,0,1.416-0.24,1.704-0.431c0.791-0.528,1.079-1.416,1.115-1.716H52.201z M42.9,13.334
			h0.024l1.272,4.86h1.091l1.824-6.274h-1.056l-1.272,4.931H44.76l-1.223-4.931h-1.176l-1.212,4.931h-0.024l-1.2-4.931h-1.151
			l1.811,6.274h1.092L42.9,13.334z M33.78,14.559c0-0.972,0.768-1.873,1.741-1.873c1.284,0,1.692,0.901,1.752,1.873H33.78z
			 M37.225,16.227c-0.036,0.468-0.624,1.236-1.62,1.236c-1.213,0-1.825-0.756-1.825-2.065h4.584c0-2.22-0.887-3.659-2.699-3.659
			c-2.077,0-3.012,1.547-3.012,3.491c0,1.813,1.043,3.144,2.808,3.144c1.008,0,1.416-0.24,1.704-0.431
			c0.791-0.528,1.079-1.416,1.115-1.716H37.225z M27.396,14.282h4.224v-1.03h-4.224V10.61h4.8V9.579h-5.962v8.615h1.162V14.282z"/>
	</g>
	<text transform="matrix(1 0 0 1 102.7432 18.1948)" font-family="'HelveticaLTStd-Roman'" font-size="12"> </text>
	<g>
		<defs>
			<rect id="SVGID_25_" width="595.276" height="368.504"/>
		</defs>
		<clipPath id="SVGID_26_">
			<use xlink:href="#SVGID_25_"  overflow="visible"/>
		</clipPath>
		<path clip-path="url(#SVGID_26_)" d="M76.914,28.322c0-1.787-1.223-2.183-2.195-2.183c-1.081,0-1.669,0.731-1.897,1.067h-0.024
			v-0.887h-0.995v6.275h1.055v-3.42c0-1.704,1.056-2.088,1.657-2.088c1.032,0,1.344,0.552,1.344,1.644v3.864h1.055V28.322z
			 M65.958,28.959c0-0.973,0.768-1.873,1.74-1.873c1.285,0,1.693,0.9,1.753,1.873H65.958z M69.403,30.626
			c-0.036,0.469-0.624,1.237-1.621,1.237c-1.212,0-1.824-0.756-1.824-2.065h4.584c0-2.22-0.887-3.659-2.699-3.659
			c-2.077,0-3.012,1.547-3.012,3.491c0,1.813,1.043,3.144,2.807,3.144c1.009,0,1.417-0.24,1.705-0.432
			c0.791-0.527,1.079-1.416,1.115-1.716H69.403z M59.286,28.959c0-0.973,0.768-1.873,1.74-1.873c1.285,0,1.693,0.9,1.753,1.873
			H59.286z M62.73,30.626c-0.036,0.469-0.624,1.237-1.621,1.237c-1.212,0-1.824-0.756-1.824-2.065h4.584
			c0-2.22-0.887-3.659-2.699-3.659c-2.077,0-3.012,1.547-3.012,3.491c0,1.813,1.043,3.144,2.807,3.144
			c1.009,0,1.417-0.24,1.705-0.432c0.791-0.527,1.079-1.416,1.115-1.716H62.73z M57.042,28.106c0-0.312-0.156-1.967-2.4-1.967
			c-1.236,0-2.375,0.623-2.375,2.003c0,0.864,0.575,1.308,1.451,1.524l1.225,0.301c0.9,0.228,1.248,0.396,1.248,0.9
			c0,0.696-0.684,0.996-1.441,0.996c-1.488,0-1.632-0.792-1.668-1.284h-1.019c0.036,0.756,0.216,2.195,2.699,2.195
			c1.417,0,2.484-0.779,2.484-2.075c0-0.852-0.456-1.333-1.763-1.657l-1.057-0.264c-0.816-0.204-1.14-0.324-1.14-0.84
			c0-0.78,0.924-0.888,1.248-0.888c1.333,0,1.477,0.66,1.489,1.056H57.042z"/>
		<path clip-path="url(#SVGID_26_)" d="M242.977,107.249h-0.024l-1.668-5.112h-1.2l2.328,6.444
			c-0.504,1.295-0.564,1.452-1.116,1.452c-0.288,0-0.504-0.06-0.636-0.108v0.97c0.168,0.036,0.288,0.084,0.444,0.084
			c1.356,0,1.464-0.144,2.46-2.687c0.803-2.052,1.523-4.103,2.255-6.155h-1.164L242.977,107.249z M237.576,104.763
			c0-0.912,0.624-1.68,1.608-1.68h0.396v-1.091c-0.084-0.024-0.144-0.036-0.276-0.036c-0.792,0-1.344,0.492-1.764,1.223h-0.024
			v-1.042h-0.994v6.274h1.054V104.763z M233.534,106.24c0,0.84-0.961,1.476-1.945,1.476c-0.793,0-1.141-0.408-1.141-1.092
			c0-0.792,0.829-0.948,1.345-1.02c1.308-0.168,1.573-0.264,1.741-0.396V106.24z M230.64,104.042c0.072-0.48,0.24-1.212,1.441-1.212
			c0.996,0,1.477,0.36,1.477,1.02c0,0.624-0.301,0.721-0.553,0.745l-1.74,0.216c-1.752,0.216-1.907,1.44-1.907,1.968
			c0,1.08,0.814,1.811,1.967,1.811c1.224,0,1.86-0.575,2.269-1.019c0.035,0.48,0.179,0.959,1.114,0.959
			c0.24,0,0.396-0.072,0.576-0.12v-0.767c-0.12,0.024-0.252,0.049-0.348,0.049c-0.216,0-0.348-0.109-0.348-0.373v-3.613
			c0-1.607-1.823-1.751-2.327-1.751c-1.549,0-2.544,0.587-2.592,2.087H230.64z M228.12,99.796h-1.054v1.198h1.054V99.796z
			 M228.12,102.137h-1.054v6.274h1.054V102.137z M226.008,103.011v-0.874H225v-1.753h-1.054v1.753h-0.852v0.874h0.852v4.141
			c0,0.756,0.227,1.343,1.27,1.343c0.108,0,0.408-0.048,0.792-0.084v-0.826h-0.372c-0.216,0-0.636,0-0.636-0.493v-4.081H226.008z
			 M220.428,104.763c0-0.912,0.624-1.68,1.608-1.68h0.396v-1.091c-0.084-0.024-0.144-0.036-0.276-0.036
			c-0.792,0-1.344,0.492-1.763,1.223h-0.024v-1.042h-0.995v6.274h1.054V104.763z M213.384,104.775c0-0.972,0.769-1.873,1.741-1.873
			c1.285,0,1.693,0.901,1.753,1.873H213.384z M216.83,106.443c-0.036,0.468-0.624,1.236-1.621,1.236
			c-1.212,0-1.825-0.756-1.825-2.065h4.584c0-2.22-0.886-3.659-2.699-3.659c-2.076,0-3.011,1.547-3.011,3.491
			c0,1.813,1.043,3.144,2.807,3.144c1.009,0,1.417-0.24,1.705-0.431c0.791-0.528,1.079-1.416,1.115-1.716H216.83z M206.054,100.827
			h2.916v7.584h1.162v-7.584h2.916v-1.03h-6.994V100.827z"/>
		<path clip-path="url(#SVGID_26_)" d="M251.593,178.947h-0.024l-1.667-5.112h-1.2l2.327,6.444
			c-0.504,1.296-0.563,1.452-1.115,1.452c-0.288,0-0.504-0.06-0.636-0.108v0.971c0.168,0.036,0.288,0.084,0.444,0.084
			c1.355,0,1.463-0.144,2.459-2.687c0.804-2.052,1.524-4.104,2.255-6.156h-1.163L251.593,178.947z M246.193,176.462
			c0-0.912,0.624-1.68,1.608-1.68h0.396v-1.091c-0.084-0.024-0.144-0.036-0.276-0.036c-0.792,0-1.344,0.491-1.764,1.223h-0.024
			v-1.043h-0.995v6.275h1.055V176.462z M242.15,177.939c0,0.84-0.96,1.476-1.945,1.476c-0.792,0-1.14-0.408-1.14-1.092
			c0-0.792,0.828-0.948,1.344-1.021c1.309-0.168,1.573-0.264,1.741-0.396V177.939z M239.257,175.742
			c0.072-0.48,0.24-1.212,1.44-1.212c0.997,0,1.477,0.36,1.477,1.02c0,0.624-0.3,0.72-0.552,0.744l-1.741,0.216
			c-1.751,0.216-1.907,1.441-1.907,1.969c0,1.08,0.815,1.811,1.967,1.811c1.225,0,1.861-0.575,2.269-1.019
			c0.036,0.479,0.18,0.959,1.115,0.959c0.24,0,0.396-0.072,0.576-0.12v-0.767c-0.12,0.024-0.252,0.048-0.348,0.048
			c-0.216,0-0.348-0.108-0.348-0.372v-3.613c0-1.607-1.823-1.751-2.328-1.751c-1.548,0-2.543,0.587-2.591,2.087H239.257z
			 M232.381,176.954c0-0.804,0.084-2.352,1.716-2.352c1.525,0,1.693,1.644,1.693,2.664c0,1.669-1.044,2.113-1.717,2.113
			C232.921,179.379,232.381,178.335,232.381,176.954 M236.857,171.495h-1.055v3.143l-0.024,0.084
			c-0.252-0.36-0.732-1.067-1.873-1.067c-1.668,0-2.615,1.367-2.615,3.131c0,1.501,0.623,3.504,2.759,3.504
			c0.613,0,1.333-0.192,1.789-1.043h0.024v0.863h0.995V171.495z M230.089,175.838c0-1.787-1.223-2.183-2.195-2.183
			c-1.081,0-1.669,0.731-1.897,1.067h-0.024v-0.887h-0.995v6.275h1.055v-3.42c0-1.704,1.056-2.088,1.656-2.088
			c1.033,0,1.345,0.552,1.345,1.644v3.864h1.055V175.838z M219.037,176.966c0-0.84,0.312-2.4,1.824-2.4
			c1.513,0,1.825,1.56,1.825,2.4c0,0.841-0.312,2.401-1.825,2.401C219.349,179.367,219.037,177.807,219.037,176.966
			 M217.946,176.966c0,1.621,0.911,3.312,2.915,3.312c2.005,0,2.916-1.691,2.916-3.312c0-1.62-0.911-3.311-2.916-3.311
			C218.857,173.655,217.946,175.346,217.946,176.966 M217.249,175.946c-0.084-1.092-0.708-2.291-2.352-2.291
			c-2.076,0-3.011,1.547-3.011,3.491c0,1.813,1.043,3.144,2.807,3.144c1.836,0,2.448-1.403,2.556-2.399h-1.02
			c-0.18,0.96-0.792,1.488-1.5,1.488c-1.452,0-1.716-1.332-1.716-2.413c0-1.116,0.42-2.364,1.728-2.364
			c0.888,0,1.356,0.504,1.488,1.344H217.249z M206.461,176.475c0-0.973,0.768-1.873,1.74-1.873c1.285,0,1.693,0.9,1.753,1.873
			H206.461z M209.906,178.142c-0.036,0.469-0.624,1.237-1.621,1.237c-1.212,0-1.824-0.756-1.824-2.065h4.584
			c0-2.22-0.887-3.659-2.7-3.659c-2.076,0-3.011,1.547-3.011,3.491c0,1.813,1.043,3.144,2.807,3.144c1.009,0,1.417-0.24,1.705-0.432
			c0.791-0.527,1.079-1.416,1.115-1.716H209.906z M204.049,174.014c-0.048-0.948-0.348-2.747-3.36-2.747
			c-2.088,0-2.963,1.319-2.963,2.663c0,1.5,1.271,1.896,1.835,2.028l1.765,0.409c1.416,0.336,1.836,0.624,1.836,1.524
			c0,1.236-1.416,1.452-2.257,1.452c-1.104,0-2.376-0.456-2.376-2.016h-1.091c0,0.804,0.144,1.524,0.875,2.184
			c0.384,0.347,1.008,0.827,2.604,0.827c1.477,0,3.372-0.564,3.372-2.603c0-1.368-0.839-2.041-1.955-2.305l-2.461-0.564
			c-0.504-0.12-1.02-0.36-1.02-1.092c0-1.308,1.236-1.512,1.968-1.512c0.973,0,2.077,0.42,2.137,1.752H204.049z"/>
		<path clip-path="url(#SVGID_26_)" d="M243.114,246.751h-0.024l-1.667-5.112h-1.2l2.327,6.444
			c-0.503,1.296-0.563,1.451-1.115,1.451c-0.288,0-0.504-0.06-0.636-0.107v0.971c0.168,0.036,0.288,0.084,0.444,0.084
			c1.355,0,1.463-0.144,2.459-2.687c0.804-2.053,1.524-4.104,2.256-6.156h-1.164L243.114,246.751z M237.714,244.266
			c0-0.912,0.624-1.68,1.608-1.68h0.396v-1.092c-0.084-0.023-0.144-0.035-0.276-0.035c-0.792,0-1.344,0.491-1.764,1.223h-0.024
			v-1.043h-0.995v6.275h1.055V244.266z M233.671,245.742c0,0.841-0.96,1.477-1.945,1.477c-0.792,0-1.14-0.408-1.14-1.092
			c0-0.792,0.828-0.948,1.344-1.021c1.309-0.168,1.573-0.264,1.741-0.396V245.742z M230.778,243.546
			c0.072-0.48,0.24-1.212,1.44-1.212c0.997,0,1.477,0.359,1.477,1.02c0,0.624-0.3,0.721-0.552,0.745l-1.741,0.216
			c-1.751,0.216-1.907,1.44-1.907,1.968c0,1.08,0.815,1.812,1.967,1.812c1.225,0,1.861-0.575,2.269-1.02
			c0.036,0.48,0.18,0.959,1.115,0.959c0.24,0,0.396-0.071,0.576-0.119v-0.768c-0.12,0.024-0.252,0.048-0.348,0.048
			c-0.216,0-0.348-0.107-0.348-0.372v-3.612c0-1.607-1.823-1.751-2.328-1.751c-1.548,0-2.543,0.587-2.591,2.087H230.778z
			 M219.848,247.914h1.055v-3.421c0-1.703,1.056-2.088,1.657-2.088c0.78,0,0.984,0.637,0.984,1.164v4.345h1.055v-3.828
			c0-0.84,0.588-1.681,1.477-1.681c0.9,0,1.164,0.588,1.164,1.452v4.057h1.055v-4.345c0-1.763-1.271-2.11-1.943-2.11
			c-0.973,0-1.393,0.432-1.921,1.019c-0.18-0.336-0.539-1.019-1.667-1.019c-1.129,0-1.669,0.73-1.897,1.066h-0.024v-0.887h-0.995
			V247.914z M218.263,239.299h-1.054v1.199h1.054V239.299z M218.263,241.639h-1.054v6.275h1.054V241.639z M214.207,244.266
			c0-0.912,0.624-1.68,1.608-1.68h0.396v-1.092c-0.084-0.023-0.144-0.035-0.276-0.035c-0.792,0-1.344,0.491-1.764,1.223h-0.024
			v-1.043h-0.995v6.275h1.055V244.266z M207.079,244.277h2.713c1.872,0,2.555-1.354,2.555-2.555c0-1.393-0.959-2.424-2.555-2.424
			h-3.876v8.615h1.163V244.277z M207.079,240.294h2.365c0.96,0,1.704,0.348,1.704,1.44c0,1.164-0.708,1.548-1.752,1.548h-2.317
			V240.294z"/>
		<path clip-path="url(#SVGID_26_)" d="M99.771,325.517c0-0.312-0.156-1.966-2.4-1.966c-1.236,0-2.375,0.622-2.375,2.002
			c0,0.865,0.575,1.31,1.451,1.525l1.224,0.3c0.901,0.228,1.249,0.396,1.249,0.9c0,0.695-0.684,0.997-1.441,0.997
			c-1.488,0-1.632-0.794-1.668-1.285h-1.019c0.036,0.756,0.216,2.194,2.699,2.194c1.417,0,2.483-0.778,2.483-2.074
			c0-0.853-0.455-1.332-1.762-1.656l-1.057-0.265c-0.816-0.204-1.141-0.324-1.141-0.841c0-0.779,0.925-0.888,1.249-0.888
			c1.333,0,1.477,0.66,1.489,1.056H99.771z M94.155,324.604v-0.875h-1.008v-1.752h-1.054v1.752h-0.852v0.875h0.852v4.142
			c0,0.756,0.228,1.343,1.27,1.343c0.108,0,0.408-0.048,0.792-0.084v-0.827h-0.372c-0.216,0-0.636,0-0.636-0.492v-4.081H94.155z
			 M90.291,325.732c0-1.786-1.222-2.182-2.195-2.182c-1.08,0-1.668,0.73-1.896,1.066h-0.024v-0.888h-0.995v6.275h1.054v-3.419
			c0-1.705,1.057-2.089,1.657-2.089c1.033,0,1.345,0.552,1.345,1.644v3.864h1.054V325.732z M79.334,326.37
			c0-0.973,0.769-1.873,1.741-1.873c1.285,0,1.693,0.9,1.753,1.873H79.334z M82.781,328.038c-0.036,0.468-0.624,1.237-1.621,1.237
			c-1.212,0-1.825-0.758-1.825-2.066h4.584c0-2.22-0.886-3.658-2.699-3.658c-2.076,0-3.011,1.546-3.011,3.49
			c0,1.813,1.043,3.144,2.807,3.144c1.009,0,1.417-0.239,1.705-0.431c0.791-0.528,1.079-1.416,1.115-1.716H82.781z M76.924,321.39
			H75.87v1.199h1.054V321.39z M76.924,323.729H75.87v6.275h1.054V323.729z M74.812,324.604v-0.875h-1.008v-1.752h-1.055v1.752
			h-0.852v0.875h0.852v4.142c0,0.756,0.228,1.343,1.271,1.343c0.108,0,0.408-0.048,0.792-0.084v-0.827h-0.372
			c-0.216,0-0.636,0-0.636-0.492v-4.081H74.812z M69.665,327.834c0,0.84-0.96,1.476-1.945,1.476c-0.792,0-1.14-0.407-1.14-1.092
			c0-0.792,0.828-0.948,1.344-1.02c1.309-0.168,1.573-0.265,1.741-0.396V327.834z M66.771,325.637
			c0.072-0.479,0.24-1.212,1.44-1.212c0.997,0,1.477,0.36,1.477,1.021c0,0.625-0.3,0.721-0.552,0.744l-1.741,0.217
			c-1.751,0.216-1.907,1.439-1.907,1.968c0,1.08,0.815,1.811,1.967,1.811c1.225,0,1.861-0.574,2.269-1.019
			c0.036,0.479,0.18,0.959,1.115,0.959c0.24,0,0.396-0.072,0.576-0.12v-0.767c-0.12,0.023-0.252,0.048-0.348,0.048
			c-0.216,0-0.348-0.108-0.348-0.372v-3.613c0-1.606-1.823-1.75-2.327-1.75c-1.549,0-2.544,0.586-2.592,2.086H66.771z
			 M59.081,332.489h1.055v-3.144h0.024c0.276,0.444,0.828,0.839,1.668,0.839c2.137,0,2.76-2.003,2.76-3.503
			c0-1.765-0.947-3.131-2.616-3.131c-1.14,0-1.62,0.706-1.872,1.066h-0.024v-0.888h-0.995V332.489z M60.088,327.162
			c0-1.021,0.168-2.665,1.692-2.665c1.633,0,1.717,1.548,1.717,2.353c0,1.38-0.54,2.426-1.693,2.426
			C61.132,329.275,60.088,328.83,60.088,327.162 M50.156,326.37c0-0.973,0.768-1.873,1.741-1.873c1.284,0,1.692,0.9,1.752,1.873
			H50.156z M53.601,328.038c-0.036,0.468-0.624,1.237-1.62,1.237c-1.213,0-1.825-0.758-1.825-2.066h4.584
			c0-2.22-0.887-3.658-2.699-3.658c-2.077,0-3.012,1.546-3.012,3.49c0,1.813,1.043,3.144,2.808,3.144
			c1.008,0,1.416-0.239,1.704-0.431c0.792-0.528,1.079-1.416,1.115-1.716H53.601z M46.771,326.356c0-0.911,0.624-1.68,1.608-1.68
			h0.396v-1.091c-0.084-0.024-0.144-0.035-0.276-0.035c-0.792,0-1.344,0.491-1.764,1.222h-0.024v-1.043h-0.995v6.275h1.055V326.356z
			 M39.632,326.862c0-0.841,0.312-2.401,1.825-2.401c1.512,0,1.824,1.561,1.824,2.401c0,0.84-0.312,2.399-1.824,2.399
			C39.944,329.262,39.632,327.702,39.632,326.862 M38.541,326.862c0,1.619,0.911,3.311,2.916,3.311c2.004,0,2.915-1.691,2.915-3.311
			c0-1.621-0.911-3.312-2.915-3.312C39.452,323.551,38.541,325.241,38.541,326.862 M37.256,330.005v-8.615h-1.655l-2.448,7.284
			h-0.024l-2.461-7.284H29v8.615h1.127v-5.087c0-0.253-0.024-1.345-0.024-2.137h0.024l2.425,7.224h1.152l2.425-7.236h0.023
			c0,0.805-0.023,1.896-0.023,2.148v5.088H37.256z"/>
	</g>
	<text transform="matrix(1 0 0 1 99.9746 330.0059)" font-family="'HelveticaLTStd-Roman'" font-size="12"> </text>
	<g>
		<defs>
			<rect id="SVGID_27_" width="595.276" height="368.504"/>
		</defs>
		<clipPath id="SVGID_28_">
			<use xlink:href="#SVGID_27_"  overflow="visible"/>
		</clipPath>
		<path clip-path="url(#SVGID_28_)" d="M76.914,340.134c0-1.787-1.223-2.184-2.195-2.184c-1.081,0-1.669,0.731-1.897,1.067h-0.024
			v-0.888h-0.995v6.275h1.055v-3.42c0-1.704,1.056-2.088,1.657-2.088c1.032,0,1.344,0.552,1.344,1.644v3.864h1.055V340.134z
			 M65.958,340.771c0-0.974,0.768-1.873,1.74-1.873c1.285,0,1.693,0.899,1.753,1.873H65.958z M69.403,342.438
			c-0.036,0.469-0.624,1.236-1.621,1.236c-1.212,0-1.824-0.756-1.824-2.064h4.584c0-2.22-0.887-3.659-2.699-3.659
			c-2.077,0-3.012,1.547-3.012,3.491c0,1.813,1.043,3.144,2.807,3.144c1.009,0,1.417-0.239,1.705-0.432
			c0.791-0.527,1.079-1.416,1.115-1.716H69.403z M59.286,340.771c0-0.974,0.768-1.873,1.74-1.873c1.285,0,1.693,0.899,1.753,1.873
			H59.286z M62.73,342.438c-0.036,0.469-0.624,1.236-1.621,1.236c-1.212,0-1.824-0.756-1.824-2.064h4.584
			c0-2.22-0.887-3.659-2.699-3.659c-2.077,0-3.012,1.547-3.012,3.491c0,1.813,1.043,3.144,2.807,3.144
			c1.009,0,1.417-0.239,1.705-0.432c0.791-0.527,1.079-1.416,1.115-1.716H62.73z M57.042,339.917c0-0.312-0.156-1.967-2.4-1.967
			c-1.236,0-2.375,0.623-2.375,2.003c0,0.864,0.575,1.309,1.451,1.524l1.225,0.301c0.9,0.228,1.248,0.396,1.248,0.9
			c0,0.695-0.684,0.995-1.441,0.995c-1.488,0-1.632-0.792-1.668-1.283h-1.019c0.036,0.756,0.216,2.194,2.699,2.194
			c1.417,0,2.484-0.778,2.484-2.074c0-0.853-0.456-1.333-1.763-1.657l-1.057-0.265c-0.816-0.203-1.14-0.323-1.14-0.84
			c0-0.779,0.924-0.888,1.248-0.888c1.333,0,1.477,0.66,1.489,1.056H57.042z"/>
	</g>
</g>
</svg>
