<?xml version="1.0" encoding="utf-8"?>
<!-- Generator: Adobe Illustrator 16.0.0, SVG Export Plug-In . SVG Version: 6.00 Build 0)  -->
<!DOCTYPE svg PUBLIC "-//W3C//DTD SVG 1.1//EN" "http://www.w3.org/Graphics/SVG/1.1/DTD/svg11.dtd">
<svg version="1.1" id="Layer_1" xmlns="http://www.w3.org/2000/svg" xmlns:xlink="http://www.w3.org/1999/xlink" x="0px" y="0px"
	 width="538.583px" height="368.504px" viewBox="0 0 538.583 368.504" enable-background="new 0 0 538.583 368.504"
	 xml:space="preserve">
<g>
	<g>
		<defs>
			<rect id="SVGID_1_" width="538.583" height="368.504"/>
		</defs>
		<clipPath id="SVGID_2_">
			<use xlink:href="#SVGID_1_"  overflow="visible"/>
		</clipPath>
		<path clip-path="url(#SVGID_2_)" fill="none" stroke="#939598" stroke-width="3" d="M67.232,35.477c0,0,2.732,13.148,9.728,16.92
			c2.546,1.373,14.557,13.1,13.328,24.31c-0.279,2.542-3.198,7.697,3.172,13.989c1.559,1.54,9.196,6.427,6.984,13.011
			c-2.314,6.888-3.732,11.707,5.016,17.199c3.61,2.266,14.213,6.414,9.072,18.396c-1.378,3.213-0.757,11.801,8.428,18.051
			c5.06,3.443,13.383,9.163,8.591,20.604c-4.791,11.441,1.793,13.8,3.146,17.678c12.472,37.566,56.551,71.06,56.551,50.314V35.477
			c0,0,5.669,2.172,7.938,7.087c2.267,4.914,7.937,3.496,7.937,13.606c0,10.11,2.409,9.071,7.37,10.488
			c4.96,1.418,5.811,6.378,6.52,12.756c0.708,6.378-0.497,9.071,3.755,11.906c4.252,2.834,6.237,7.511,6.237,12.472
			s7.441,18.851,7.441,26.646s15.59,20.409,17.007,31.748c1.418,11.338-2.912,19.984,7.009,27.779
			c9.921,7.796,8.865,2.41,9.999,13.04c1.135,10.63,2.269,15.874,5.67,20.976c7.564,11.347,7.952,5.669,7.952,11.339
			c0,8.407,1.039,9.72,6.222,15.874c4.534,5.387,7.228,1.072,10.771,11.338c2.56,7.416-2.702,12.82,7.938,22.395
			c7.086,6.378,8.22,1.983,11.338,14.307c2.612,10.328,2.018,14.146,3.969,16.024c3.826,3.685,2.834-21.118,2.834-21.118V35.477
			c0,0,9.835,1.607,11.252,4.252c2.678,4.998,2.551,2.268,3.685,7.087c1.743,7.405,6.149,1.818,7.654,7.653
			c0.512,1.985-0.197,4.819-0.709,6.52c-2.858,9.5,1.417,18.425,5.669,21.968c4.252,3.544,7.796,2.835,9.213,12.048
			c1.417,9.212-4.961,12.756,0,20.551s12.756,7.795,12.756,14.173s-7.087,9.921,0,17.717c7.088,7.795,11.34,7.795,11.34,19.134
			c0,11.338,1.417,13.464,7.086,19.842c5.669,6.378,6.662,13.322,5.953,21.118c-0.71,7.795-4.415,12.188,4.736,20.692
			c9.153,8.504,6.405,10.63,7.822,19.843c1.417,9.212,2.409,7.938,11.622,15.023c9.213,7.087,10.229,15.094,15.307,10.488
			c2.813-2.552,0-238.11,0-238.11"/>
	</g>
	<line fill="none" stroke="#414042" stroke-dasharray="2.989,1.989" x1="63.264" y1="34.977" x2="479.39" y2="34.977"/>
	<line fill="none" stroke="#414042" stroke-dasharray="2.989,1.989" x1="63.264" y1="233.202" x2="479.39" y2="233.202"/>
	
		<line fill="none" stroke="#414042" stroke-width="2" stroke-linecap="round" stroke-linejoin="round" stroke-dasharray="0,4.001" x1="67.265" y1="300.232" x2="477.389" y2="300.232"/>
	<path fill="none" stroke="#414042" stroke-width="2" stroke-linecap="round" stroke-linejoin="round" d="M479.39,300.232
		L479.39,300.232 M63.264,300.232L63.264,300.232"/>
	<polygon fill="#939598" points="141.107,227.273 140.193,228.857 147.188,228.757 143.851,222.521 142.937,224.105 
		131.754,217.649 129.925,220.817 	"/>
	<polygon fill="#939598" points="182.029,261.509 183.205,262.91 185.503,256.302 178.502,257.306 179.678,258.707 169.787,267.007 
		172.138,269.809 	"/>
	<polygon fill="#939598" points="182.699,223.418 182.699,225.247 169.787,225.247 161.335,225.247 161.335,223.418 
		155.327,227.003 161.335,230.733 161.335,228.904 169.787,228.904 174.247,228.904 182.699,228.904 182.699,230.733 
		188.707,227.148 	"/>
	<polygon fill="#939598" points="270.38,227.273 269.466,228.857 276.461,228.757 273.123,222.521 272.209,224.105 261.027,217.649 
		259.198,220.817 	"/>
	<polygon fill="#939598" points="396.297,227.273 395.383,228.857 402.377,228.757 399.039,222.521 398.125,224.105 
		386.943,217.649 385.114,220.817 	"/>
	<polygon points="507.343,333.115 507.343,335.95 61.989,335.95 61.989,22.721 64.823,22.721 59.863,12.8 54.902,22.721 
		57.737,22.721 57.737,340.202 507.343,340.202 507.343,343.036 517.264,338.076 	"/>
	<g>
		<defs>
			<rect id="SVGID_3_" width="538.583" height="368.504"/>
		</defs>
		<clipPath id="SVGID_4_">
			<use xlink:href="#SVGID_3_"  overflow="visible"/>
		</clipPath>
		<path clip-path="url(#SVGID_4_)" d="M54.407,25.748h-1.776l-1.307,4.704H51.3l-1.368-4.704H48.06l2.352,6.648
			c-0.156,0.876-0.492,0.96-1.104,0.96c-0.144,0-0.252-0.012-0.324-0.024v1.343c0.24,0.012,0.528,0.024,0.756,0.024
			c1.464,0,1.68-0.312,2.471-2.675L54.407,25.748z M46.607,24.02h-1.679v1.728h-0.864v1.199h0.864v3.877
			c0,0.827,0.264,1.379,1.715,1.379h0.216c0.264,0,0.528-0.012,0.792-0.024v-1.271c-0.12,0.012-0.24,0.024-0.348,0.024
			c-0.684,0-0.696-0.144-0.696-0.516v-3.469h1.044v-1.199h-1.044V24.02z M43.115,23.432h-1.678v1.559h1.678V23.432z M41.436,32.131
			h1.678v-6.382h-1.678V32.131z M39.275,24.02h-1.678v1.728h-0.864v1.199h0.864v3.877c0,0.827,0.263,1.379,1.714,1.379h0.216
			c0.264,0,0.528-0.012,0.792-0.024v-1.271c-0.12,0.012-0.24,0.024-0.348,0.024c-0.684,0-0.696-0.144-0.696-0.516v-3.469h1.044
			v-1.199h-1.044V24.02z M35.831,27.715c0-1.404-0.971-2.135-2.219-2.135c-1.212,0-1.693,0.719-1.921,1.103h-0.024v-0.935h-1.606
			v6.383h1.678v-3.66c0-0.972,0.576-1.476,1.321-1.476c1.069,0,1.093,0.792,1.093,1.26v3.876h1.678V27.715z M26.917,29.84
			c0,0.78-0.757,1.26-1.501,1.26c-0.325,0-0.781-0.18-0.781-0.768c0-0.696,0.516-0.852,1.141-0.96
			c0.696-0.108,0.973-0.216,1.141-0.348V29.84z M28.559,27.427c0-1.571-1.642-1.847-2.543-1.847c-1.309,0-2.664,0.276-2.856,2.231
			h1.619c0.048-0.372,0.192-0.888,1.033-0.888c0.432,0,1.105,0.036,1.105,0.744c0,0.36-0.325,0.468-0.589,0.504l-1.513,0.228
			c-1.067,0.156-1.858,0.792-1.858,2.041c0,1.319,0.983,1.859,1.942,1.859c1.141,0,1.681-0.528,2.066-0.923
			c0.036,0.36,0.06,0.456,0.155,0.755h1.811V31.88c-0.204-0.072-0.372-0.24-0.372-0.996V27.427z M21.815,25.748h-1.678v3.683
			c0,1.141-0.745,1.453-1.297,1.453c-0.516,0-1.093-0.192-1.093-1.176v-3.96h-1.678v4.2c0,1.632,0.911,2.351,2.171,2.351
			c0.888,0,1.561-0.384,1.945-1.067h0.024v0.899h1.606V25.748z M14.783,31.783l-0.935-0.887c0.528-0.672,0.899-1.656,0.899-3.072
			c0-4.044-2.999-4.536-4.139-4.536c-1.14,0-4.139,0.492-4.139,4.536c0,4.043,2.999,4.535,4.139,4.535
			c0.504,0,1.392-0.096,2.209-0.576l1.019,0.972L14.783,31.783z M10.716,29.792l0.864,0.816c-0.324,0.168-0.672,0.228-0.972,0.228
			c-0.972,0-2.341-0.6-2.341-3.012c0-2.413,1.369-3.013,2.341-3.013c0.972,0,2.341,0.6,2.341,3.013c0,0.804-0.156,1.404-0.396,1.848
			L11.64,28.82L10.716,29.792z"/>
	</g>
	<text transform="matrix(1 0 0 1 54.4072 32.1313)" font-family="'HelveticaLTStd-Bold'" font-size="12"> </text>
	<g>
		<defs>
			<rect id="SVGID_5_" width="538.583" height="368.504"/>
		</defs>
		<clipPath id="SVGID_6_">
			<use xlink:href="#SVGID_5_"  overflow="visible"/>
		</clipPath>
		<path clip-path="url(#SVGID_6_)" d="M48.797,44.516l0.696-0.72l1.524,2.735h2.016l-2.316-3.911l2.256-2.471h-2.064l-2.112,2.423
			v-4.655h-1.679v8.614h1.679V44.516z M44.43,44.204c0,0.3-0.288,1.117-1.14,1.117c-1.273,0-1.297-1.381-1.297-2.077
			c0-0.792,0.276-1.849,1.333-1.849h0.084c0.72,0,0.96,0.624,1.032,1.033h1.703c-0.156-1.992-1.811-2.447-2.819-2.447
			c-2.161,0-3.06,1.474-3.06,3.539c0,1.345,0.552,3.179,2.952,3.179c2.339,0,2.855-1.834,2.915-2.495H44.43z M37.734,43.339
			c0,0.816-0.24,1.945-1.536,1.945c-1.297,0-1.537-1.129-1.537-1.945s0.24-1.945,1.537-1.945
			C37.494,41.395,37.734,42.523,37.734,43.339 M39.461,43.339c0-2.304-1.547-3.359-3.263-3.359c-1.717,0-3.264,1.055-3.264,3.359
			c0,2.304,1.547,3.359,3.264,3.359C37.914,46.698,39.461,45.644,39.461,43.339 M31.433,38.42h-1.679v1.728H28.89v1.198h0.864v3.878
			c0,0.827,0.264,1.378,1.715,1.378h0.216c0.264,0,0.528-0.012,0.792-0.024v-1.27c-0.12,0.012-0.24,0.024-0.348,0.024
			c-0.684,0-0.696-0.144-0.696-0.516v-3.47h1.044v-1.198h-1.044V38.42z M28.133,42.093c-0.132-1.802-1.619-2.113-2.868-2.113
			c-1.991,0-2.579,1.198-2.579,2.137c0,2.385,3.96,1.581,3.96,2.65c0,0.24-0.204,0.661-1.068,0.661
			c-1.057,0-1.393-0.397-1.393-0.938h-1.727c0.048,1.705,1.619,2.208,3.072,2.208c0.996,0,2.795-0.335,2.795-2.196
			c0-2.349-3.996-1.617-3.996-2.626c0-0.277,0.12-0.626,1.032-0.626c0.913,0,1.057,0.434,1.129,0.843H28.133z M17.489,41.347h1.092
			v-1.198h-1.092v-0.253c0-0.528,0.012-0.709,0.588-0.709h0.468v-1.354c-0.144-0.012-0.372-0.024-0.864-0.024
			c-1.151,0-1.871,0.503-1.871,1.823v0.517h-0.924v1.198h0.924v5.184h1.679V41.347z M12.642,43.339c0,0.816-0.24,1.945-1.536,1.945
			c-1.297,0-1.537-1.129-1.537-1.945s0.24-1.945,1.537-1.945C12.402,41.395,12.642,42.523,12.642,43.339 M14.369,43.339
			c0-2.304-1.547-3.359-3.263-3.359c-1.717,0-3.264,1.055-3.264,3.359c0,2.304,1.547,3.359,3.264,3.359
			C12.822,46.698,14.369,45.644,14.369,43.339"/>
		<path clip-path="url(#SVGID_6_)" d="M504.131,351.877c0.096-0.841,0.516-1.346,1.309-1.346c0.54,0,1.2,0.312,1.297,1.346H504.131z
			 M506.664,353.832c-0.132,0.456-0.612,0.696-1.08,0.696c-1.357,0-1.453-1.081-1.501-1.562h4.38v-0.3
			c0-2.915-1.739-3.514-2.999-3.514c-2.796,0-3.06,2.459-3.06,3.227c0,2.628,1.379,3.491,3.18,3.491
			c1.092,0,2.363-0.503,2.807-2.039H506.664z M501.371,351.287c0-1.403-0.971-2.134-2.219-2.134c-1.021,0-1.489,0.707-1.705,1.018
			c-0.433-0.683-0.852-1.018-1.775-1.018c-1.129,0-1.597,0.683-1.813,1.102h-0.024v-0.934h-1.607v6.382h1.68v-3.888
			c0-0.696,0.252-1.248,1.045-1.248c1.008,0,1.008,0.756,1.008,1.296v3.84h1.679v-3.828c0-0.756,0.3-1.308,1.142-1.308
			c0.491,0,0.911,0.312,0.911,1.26v3.876h1.68V351.287z M490.631,347.004h-1.678v1.56h1.678V347.004z M488.952,355.703h1.678v-6.383
			h-1.678V355.703z M485.363,348.611h2.604v-1.523h-7.006v1.523h2.604v7.092h1.799V348.611z"/>
		<path clip-path="url(#SVGID_6_)" fill="#939598" d="M126.238,212.199c0-0.76,0.52-1.4,1.34-1.4h0.33v-0.909
			c-0.07-0.02-0.12-0.029-0.23-0.029c-0.66,0-1.12,0.41-1.47,1.019h-0.02v-0.869h-0.829v5.229h0.879V212.199z M120.368,212.21
			c0-0.81,0.64-1.561,1.451-1.561c1.07,0,1.41,0.751,1.46,1.561H120.368z M123.239,213.599c-0.03,0.392-0.52,1.031-1.35,1.031
			c-1.011,0-1.521-0.63-1.521-1.721h3.82c0-1.85-0.739-3.049-2.249-3.049c-1.731,0-2.51,1.289-2.51,2.909
			c0,1.511,0.869,2.619,2.34,2.619c0.84,0,1.18-0.199,1.42-0.358c0.659-0.44,0.899-1.18,0.929-1.432H123.239z M114.728,212.61
			c0-0.671,0.07-1.961,1.431-1.961c1.27,0,1.41,1.37,1.41,2.221c0,1.39-0.87,1.76-1.43,1.76
			C115.178,214.63,114.728,213.76,114.728,212.61 M118.458,208.061h-0.879v2.618l-0.02,0.07c-0.21-0.3-0.61-0.889-1.561-0.889
			c-1.39,0-2.179,1.139-2.179,2.609c0,1.25,0.519,2.919,2.3,2.919c0.51,0,1.11-0.159,1.49-0.868h0.02v0.719h0.829V208.061z
			 M111.988,212.199c0-0.76,0.52-1.4,1.34-1.4h0.33v-0.909c-0.07-0.02-0.12-0.029-0.23-0.029c-0.66,0-1.12,0.41-1.47,1.019h-0.02
			v-0.869h-0.829v5.229h0.879V212.199z M106.038,212.62c0-0.701,0.26-2.001,1.521-2.001c1.26,0,1.52,1.3,1.52,2.001
			c0,0.7-0.26,2-1.52,2C106.298,214.62,106.038,213.32,106.038,212.62 M105.129,212.62c0,1.35,0.759,2.759,2.43,2.759
			c1.67,0,2.429-1.409,2.429-2.759c0-1.351-0.759-2.76-2.429-2.76C105.888,209.86,105.129,211.27,105.129,212.62 M104.338,212.021
			h-2.449v0.898h2.449V212.021z M97.228,212.21c0-0.81,0.64-1.561,1.451-1.561c1.07,0,1.41,0.751,1.46,1.561H97.228z
			 M100.099,213.599c-0.03,0.392-0.52,1.031-1.35,1.031c-1.011,0-1.521-0.63-1.521-1.721h3.82c0-1.85-0.739-3.049-2.249-3.049
			c-1.731,0-2.51,1.289-2.51,2.909c0,1.511,0.869,2.619,2.34,2.619c0.84,0,1.18-0.199,1.42-0.358c0.659-0.44,0.899-1.18,0.929-1.432
			H100.099z M90.718,208.889h2.421c0.48,0,1.29,0.091,1.29,1.201c0,1.061-0.75,1.24-1.46,1.24h-2.251V208.889z M90.718,212.159
			h2.351c1.16,0,1.28,0.689,1.28,1.281c0,0.27,0.03,1.359,0.17,1.799h1.189v-0.159c-0.3-0.17-0.35-0.32-0.36-0.72l-0.06-1.301
			c-0.04-1-0.449-1.181-0.859-1.35c0.46-0.27,0.999-0.66,0.999-1.72c0-1.521-1.179-1.93-2.359-1.93h-3.32v7.179h0.969V212.159z"/>
	</g>
	<text transform="matrix(1 0 0 1 127.9082 215.2393)" fill="#939598" font-family="'HelveticaLTStd-Roman'" font-size="10"> </text>
	<g>
		<defs>
			<rect id="SVGID_7_" width="538.583" height="368.504"/>
		</defs>
		<clipPath id="SVGID_8_">
			<use xlink:href="#SVGID_7_"  overflow="visible"/>
		</clipPath>
		<path clip-path="url(#SVGID_8_)" fill="#939598" d="M127.908,222.738v-0.728h-0.84v-1.46h-0.879v1.46h-0.71v0.728h0.71v3.451
			c0,0.63,0.19,1.119,1.059,1.119c0.09,0,0.34-0.04,0.66-0.07v-0.688h-0.31c-0.18,0-0.53,0-0.53-0.411v-3.401H127.908z
			 M124.688,223.679c0-1.489-1.019-1.818-1.829-1.818c-0.901,0-1.391,0.609-1.581,0.889h-0.02v-0.738h-0.829v5.228h0.879v-2.849
			c0-1.421,0.88-1.741,1.38-1.741c0.861,0,1.121,0.46,1.121,1.37v3.22h0.879V223.679z M119.108,220.061h-0.879v0.999h0.879V220.061z
			 M119.108,222.011h-0.879v5.229h0.879V222.011z M113.258,224.62c0-0.7,0.26-2.001,1.521-2.001c1.26,0,1.52,1.301,1.52,2.001
			c0,0.699-0.26,2.001-1.52,2.001C113.518,226.621,113.258,225.319,113.258,224.62 M112.349,224.62c0,1.35,0.759,2.759,2.43,2.759
			c1.67,0,2.429-1.409,2.429-2.759c0-1.351-0.759-2.76-2.429-2.76C113.108,221.86,112.349,223.27,112.349,224.62 M107.02,229.309
			h0.879v-2.619h0.02c0.23,0.37,0.69,0.699,1.391,0.699c1.78,0,2.299-1.669,2.299-2.919c0-1.471-0.789-2.609-2.179-2.609
			c-0.951,0-1.351,0.589-1.561,0.889h-0.02v-0.738h-0.829V229.309z M107.858,224.87c0-0.851,0.14-2.222,1.411-2.222
			c1.36,0,1.43,1.291,1.43,1.961c0,1.15-0.45,2.021-1.41,2.021C108.729,226.631,107.858,226.26,107.858,224.87"/>
		<path clip-path="url(#SVGID_8_)" fill="#939598" d="M255.51,212.199c0-0.76,0.52-1.4,1.34-1.4h0.33v-0.909
			c-0.07-0.02-0.12-0.029-0.23-0.029c-0.66,0-1.12,0.41-1.47,1.019h-0.02v-0.869h-0.829v5.229h0.879V212.199z M249.641,212.21
			c0-0.81,0.64-1.561,1.451-1.561c1.07,0,1.41,0.751,1.46,1.561H249.641z M252.512,213.599c-0.03,0.392-0.52,1.031-1.35,1.031
			c-1.011,0-1.521-0.63-1.521-1.721h3.82c0-1.85-0.739-3.049-2.249-3.049c-1.731,0-2.51,1.289-2.51,2.909
			c0,1.511,0.869,2.619,2.34,2.619c0.84,0,1.18-0.199,1.42-0.358c0.659-0.44,0.899-1.18,0.929-1.432H252.512z M244,212.61
			c0-0.671,0.07-1.961,1.431-1.961c1.27,0,1.41,1.37,1.41,2.221c0,1.39-0.87,1.76-1.43,1.76C244.451,214.63,244,213.76,244,212.61
			 M247.73,208.061h-0.879v2.618l-0.02,0.07c-0.21-0.3-0.61-0.889-1.561-0.889c-1.39,0-2.179,1.139-2.179,2.609
			c0,1.25,0.519,2.919,2.3,2.919c0.51,0,1.11-0.159,1.49-0.868h0.02v0.719h0.829V208.061z M241.26,212.199c0-0.76,0.52-1.4,1.34-1.4
			h0.33v-0.909c-0.07-0.02-0.12-0.029-0.23-0.029c-0.66,0-1.12,0.41-1.47,1.019h-0.02v-0.869h-0.829v5.229h0.879V212.199z
			 M235.311,212.62c0-0.701,0.26-2.001,1.52-2.001c1.261,0,1.521,1.3,1.521,2.001c0,0.7-0.26,2-1.521,2
			C235.57,214.62,235.311,213.32,235.311,212.62 M234.401,212.62c0,1.35,0.759,2.759,2.429,2.759c1.671,0,2.43-1.409,2.43-2.759
			c0-1.351-0.759-2.76-2.43-2.76C235.161,209.86,234.401,211.27,234.401,212.62 M233.61,212.021h-2.449v0.898h2.449V212.021z
			 M226.5,212.21c0-0.81,0.64-1.561,1.451-1.561c1.07,0,1.41,0.751,1.46,1.561H226.5z M229.372,213.599
			c-0.03,0.392-0.52,1.031-1.35,1.031c-1.011,0-1.521-0.63-1.521-1.721h3.82c0-1.85-0.739-3.049-2.249-3.049
			c-1.731,0-2.51,1.289-2.51,2.909c0,1.511,0.869,2.619,2.34,2.619c0.84,0,1.18-0.199,1.42-0.358c0.659-0.44,0.899-1.18,0.929-1.432
			H229.372z M219.991,208.889h2.421c0.48,0,1.29,0.091,1.29,1.201c0,1.061-0.75,1.24-1.46,1.24h-2.251V208.889z M219.991,212.159
			h2.351c1.16,0,1.28,0.689,1.28,1.281c0,0.27,0.03,1.359,0.17,1.799h1.189v-0.159c-0.3-0.17-0.35-0.32-0.36-0.72l-0.06-1.301
			c-0.04-1-0.449-1.181-0.859-1.35c0.46-0.27,0.999-0.66,0.999-1.72c0-1.521-1.179-1.93-2.359-1.93h-3.32v7.179h0.969V212.159z"/>
	</g>
	<text transform="matrix(1 0 0 1 257.1797 215.2393)" fill="#939598" font-family="'HelveticaLTStd-Roman'" font-size="10"> </text>
	<g>
		<defs>
			<rect id="SVGID_9_" width="538.583" height="368.504"/>
		</defs>
		<clipPath id="SVGID_10_">
			<use xlink:href="#SVGID_9_"  overflow="visible"/>
		</clipPath>
		<path clip-path="url(#SVGID_10_)" fill="#939598" d="M257.181,222.738v-0.728h-0.84v-1.46h-0.879v1.46h-0.71v0.728h0.71v3.451
			c0,0.63,0.19,1.119,1.059,1.119c0.09,0,0.34-0.04,0.66-0.07v-0.688h-0.31c-0.18,0-0.53,0-0.53-0.411v-3.401H257.181z
			 M253.96,223.679c0-1.489-1.019-1.818-1.829-1.818c-0.901,0-1.391,0.609-1.581,0.889h-0.02v-0.738h-0.829v5.228h0.879v-2.849
			c0-1.421,0.88-1.741,1.38-1.741c0.861,0,1.121,0.46,1.121,1.37v3.22h0.879V223.679z M248.38,220.061h-0.879v0.999h0.879V220.061z
			 M248.38,222.011h-0.879v5.229h0.879V222.011z M242.531,224.62c0-0.7,0.26-2.001,1.521-2.001c1.26,0,1.52,1.301,1.52,2.001
			c0,0.699-0.26,2.001-1.52,2.001C242.791,226.621,242.531,225.319,242.531,224.62 M241.622,224.62c0,1.35,0.759,2.759,2.43,2.759
			c1.67,0,2.429-1.409,2.429-2.759c0-1.351-0.759-2.76-2.429-2.76C242.38,221.86,241.622,223.27,241.622,224.62 M236.292,229.309
			h0.879v-2.619h0.02c0.23,0.37,0.69,0.699,1.391,0.699c1.78,0,2.299-1.669,2.299-2.919c0-1.471-0.789-2.609-2.179-2.609
			c-0.951,0-1.351,0.589-1.561,0.889h-0.02v-0.738h-0.829V229.309z M237.13,224.87c0-0.851,0.14-2.222,1.411-2.222
			c1.36,0,1.43,1.291,1.43,1.961c0,1.15-0.45,2.021-1.41,2.021C238,226.631,237.13,226.26,237.13,224.87"/>
		<path clip-path="url(#SVGID_10_)" fill="#939598" d="M381.427,212.199c0-0.76,0.521-1.4,1.341-1.4h0.329v-0.909
			c-0.069-0.02-0.119-0.029-0.229-0.029c-0.66,0-1.12,0.41-1.47,1.019h-0.021v-0.869h-0.829v5.229h0.879V212.199z M375.557,212.21
			c0-0.81,0.641-1.561,1.451-1.561c1.07,0,1.41,0.751,1.46,1.561H375.557z M378.428,213.599c-0.029,0.392-0.52,1.031-1.35,1.031
			c-1.011,0-1.521-0.63-1.521-1.721h3.82c0-1.85-0.739-3.049-2.249-3.049c-1.73,0-2.51,1.289-2.51,2.909
			c0,1.511,0.869,2.619,2.34,2.619c0.84,0,1.18-0.199,1.42-0.358c0.659-0.44,0.899-1.18,0.929-1.432H378.428z M369.917,212.61
			c0-0.671,0.07-1.961,1.431-1.961c1.271,0,1.41,1.37,1.41,2.221c0,1.39-0.87,1.76-1.43,1.76
			C370.367,214.63,369.917,213.76,369.917,212.61 M373.647,208.061h-0.879v2.618l-0.021,0.07c-0.21-0.3-0.61-0.889-1.561-0.889
			c-1.391,0-2.18,1.139-2.18,2.609c0,1.25,0.52,2.919,2.3,2.919c0.511,0,1.11-0.159,1.49-0.868h0.021v0.719h0.829V208.061z
			 M367.177,212.199c0-0.76,0.521-1.4,1.341-1.4h0.329v-0.909c-0.069-0.02-0.119-0.029-0.229-0.029c-0.66,0-1.12,0.41-1.47,1.019
			h-0.021v-0.869h-0.829v5.229h0.879V212.199z M361.228,212.62c0-0.701,0.26-2.001,1.521-2.001c1.26,0,1.521,1.3,1.521,2.001
			c0,0.7-0.261,2-1.521,2C361.487,214.62,361.228,213.32,361.228,212.62 M360.318,212.62c0,1.35,0.759,2.759,2.43,2.759
			c1.67,0,2.429-1.409,2.429-2.759c0-1.351-0.759-2.76-2.429-2.76C361.077,209.86,360.318,211.27,360.318,212.62 M359.527,212.021
			h-2.449v0.898h2.449V212.021z M352.417,212.21c0-0.81,0.64-1.561,1.451-1.561c1.07,0,1.41,0.751,1.46,1.561H352.417z
			 M355.288,213.599c-0.03,0.392-0.52,1.031-1.35,1.031c-1.012,0-1.521-0.63-1.521-1.721h3.82c0-1.85-0.739-3.049-2.249-3.049
			c-1.731,0-2.51,1.289-2.51,2.909c0,1.511,0.868,2.619,2.34,2.619c0.84,0,1.18-0.199,1.42-0.358c0.659-0.44,0.898-1.18,0.929-1.432
			H355.288z M345.907,208.889h2.421c0.479,0,1.29,0.091,1.29,1.201c0,1.061-0.75,1.24-1.46,1.24h-2.251V208.889z M345.907,212.159
			h2.351c1.16,0,1.28,0.689,1.28,1.281c0,0.27,0.03,1.359,0.17,1.799h1.189v-0.159c-0.301-0.17-0.351-0.32-0.36-0.72l-0.06-1.301
			c-0.04-1-0.449-1.181-0.859-1.35c0.46-0.27,0.999-0.66,0.999-1.72c0-1.521-1.179-1.93-2.359-1.93h-3.319v7.179h0.969V212.159z"/>
	</g>
	<text transform="matrix(1 0 0 1 383.0967 215.2393)" fill="#939598" font-family="'HelveticaLTStd-Roman'" font-size="10"> </text>
	<g>
		<defs>
			<rect id="SVGID_11_" width="538.583" height="368.504"/>
		</defs>
		<clipPath id="SVGID_12_">
			<use xlink:href="#SVGID_11_"  overflow="visible"/>
		</clipPath>
		<path clip-path="url(#SVGID_12_)" fill="#939598" d="M383.098,222.738v-0.728h-0.841v-1.46h-0.879v1.46h-0.71v0.728h0.71v3.451
			c0,0.63,0.19,1.119,1.06,1.119c0.09,0,0.34-0.04,0.66-0.07v-0.688h-0.311c-0.18,0-0.53,0-0.53-0.411v-3.401H383.098z
			 M379.877,223.679c0-1.489-1.019-1.818-1.829-1.818c-0.9,0-1.391,0.609-1.581,0.889h-0.02v-0.738h-0.829v5.228h0.879v-2.849
			c0-1.421,0.88-1.741,1.38-1.741c0.861,0,1.121,0.46,1.121,1.37v3.22h0.879V223.679z M374.297,220.061h-0.879v0.999h0.879V220.061z
			 M374.297,222.011h-0.879v5.229h0.879V222.011z M368.447,224.62c0-0.7,0.26-2.001,1.521-2.001c1.26,0,1.52,1.301,1.52,2.001
			c0,0.699-0.26,2.001-1.52,2.001C368.707,226.621,368.447,225.319,368.447,224.62 M367.538,224.62c0,1.35,0.759,2.759,2.431,2.759
			c1.67,0,2.429-1.409,2.429-2.759c0-1.351-0.759-2.76-2.429-2.76C368.297,221.86,367.538,223.27,367.538,224.62 M362.208,229.309
			h0.879v-2.619h0.021c0.229,0.37,0.689,0.699,1.391,0.699c1.78,0,2.299-1.669,2.299-2.919c0-1.471-0.789-2.609-2.179-2.609
			c-0.951,0-1.351,0.589-1.561,0.889h-0.021v-0.738h-0.829V229.309z M363.047,224.87c0-0.851,0.141-2.222,1.411-2.222
			c1.36,0,1.431,1.291,1.431,1.961c0,1.15-0.45,2.021-1.41,2.021C363.917,226.631,363.047,226.26,363.047,224.87"/>
		<path clip-path="url(#SVGID_12_)" fill="#939598" d="M167.667,260.365l2-1.949h-1.12l-2.25,2.209v-4.159h-0.849v7.179h0.849
			v-1.979l0.73-0.66l1.63,2.64h1.13L167.667,260.365z M164.747,260.175c-0.07-0.91-0.59-1.909-1.96-1.909
			c-1.73,0-2.509,1.289-2.509,2.909c0,1.511,0.869,2.62,2.339,2.62c1.53,0,2.04-1.169,2.13-1.999h-0.85
			c-0.15,0.8-0.66,1.24-1.25,1.24c-1.21,0-1.43-1.11-1.43-2.012c0-0.93,0.35-1.97,1.44-1.97c0.74,0,1.13,0.42,1.24,1.12H164.747z
			 M155.677,261.024c0-0.699,0.26-2,1.52-2c1.261,0,1.521,1.301,1.521,2c0,0.701-0.26,2.001-1.521,2.001
			C155.937,263.025,155.677,261.726,155.677,261.024 M154.768,261.024c0,1.352,0.759,2.761,2.429,2.761
			c1.671,0,2.43-1.409,2.43-2.761c0-1.35-0.759-2.759-2.43-2.759C155.527,258.266,154.768,259.675,154.768,261.024 M154.407,259.145
			v-0.729h-0.84v-1.46h-0.879v1.46h-0.71v0.729h0.71v3.451c0,0.63,0.19,1.119,1.059,1.119c0.09,0,0.34-0.04,0.66-0.07v-0.688h-0.31
			c-0.18,0-0.53,0-0.53-0.41v-3.401H154.407z M151.307,259.904c0-0.26-0.13-1.639-2-1.639c-1.03,0-1.979,0.52-1.979,1.669
			c0,0.72,0.479,1.09,1.209,1.271l1.02,0.251c0.751,0.189,1.041,0.33,1.041,0.75c0,0.58-0.57,0.83-1.201,0.83
			c-1.24,0-1.36-0.66-1.39-1.07h-0.849c0.03,0.63,0.18,1.829,2.249,1.829c1.181,0,2.07-0.649,2.07-1.729
			c0-0.711-0.38-1.11-1.469-1.381l-0.881-0.22c-0.68-0.17-0.95-0.271-0.95-0.7c0-0.65,0.77-0.74,1.04-0.74
			c1.111,0,1.231,0.551,1.241,0.88H151.307z M140.417,259.595h0.02l1.06,4.05h0.91l1.52-5.229h-0.88l-1.06,4.109h-0.02l-1.02-4.109
			h-0.98l-1.009,4.109h-0.02l-1-4.109h-0.96l1.51,5.229h0.91L140.417,259.595z M132.817,260.615c0-0.811,0.64-1.561,1.45-1.561
			c1.071,0,1.411,0.75,1.461,1.561H132.817z M135.688,262.005c-0.03,0.391-0.52,1.031-1.351,1.031c-1.01,0-1.52-0.631-1.52-1.722
			h3.82c0-1.85-0.739-3.049-2.25-3.049c-1.73,0-2.509,1.289-2.509,2.909c0,1.511,0.869,2.62,2.339,2.62
			c0.841,0,1.181-0.2,1.421-0.36c0.659-0.438,0.899-1.18,0.929-1.43H135.688z M129.778,262.266h-0.02l-3.591-5.8h-1.149v7.179h0.939
			v-5.8h0.02l3.651,5.8h1.089v-7.179h-0.939V262.266z"/>
	</g>
	<text transform="matrix(1 0 0 1 169.7871 263.6455)" fill="#939598" font-family="'HelveticaLTStd-Roman'" font-size="10"> </text>
	<g>
		<defs>
			<rect id="SVGID_13_" width="538.583" height="368.504"/>
		</defs>
		<clipPath id="SVGID_14_">
			<use xlink:href="#SVGID_13_"  overflow="visible"/>
		</clipPath>
		<path clip-path="url(#SVGID_14_)" fill="#939598" d="M169.617,271.905c0-0.261-0.13-1.64-2-1.64c-1.03,0-1.979,0.52-1.979,1.669
			c0,0.721,0.479,1.09,1.209,1.271l1.02,0.25c0.751,0.19,1.041,0.331,1.041,0.751c0,0.58-0.57,0.83-1.201,0.83
			c-1.24,0-1.36-0.66-1.39-1.07h-0.849c0.03,0.63,0.18,1.829,2.249,1.829c1.181,0,2.07-0.649,2.07-1.729
			c0-0.711-0.38-1.11-1.469-1.381l-0.881-0.22c-0.68-0.17-0.95-0.271-0.95-0.7c0-0.649,0.77-0.74,1.04-0.74
			c1.111,0,1.231,0.551,1.241,0.881H169.617z M160.927,272.616c0-0.812,0.64-1.562,1.45-1.562c1.071,0,1.411,0.75,1.461,1.562
			H160.927z M163.798,274.005c-0.03,0.39-0.52,1.031-1.351,1.031c-1.01,0-1.52-0.631-1.52-1.722h3.82c0-1.85-0.739-3.049-2.25-3.049
			c-1.73,0-2.509,1.289-2.509,2.909c0,1.511,0.869,2.62,2.339,2.62c0.841,0,1.181-0.2,1.421-0.36c0.659-0.438,0.899-1.18,0.929-1.43
			H163.798z M157.317,274.676h-0.02l-1.359-4.26h-1.02l1.909,5.229h0.94l1.99-5.229h-0.96L157.317,274.676z M154.167,268.466h-0.879
			v0.999h0.879V268.466z M154.167,270.416h-0.879v5.229h0.879V270.416z M150.787,272.604c0-0.76,0.52-1.399,1.34-1.399h0.33v-0.909
			c-0.07-0.021-0.12-0.03-0.23-0.03c-0.66,0-1.12,0.409-1.47,1.02h-0.02v-0.869h-0.829v5.229h0.879V272.604z M147.457,272.604
			c0-0.76,0.52-1.399,1.34-1.399h0.33v-0.909c-0.07-0.021-0.12-0.03-0.23-0.03c-0.66,0-1.12,0.409-1.47,1.02h-0.02v-0.869h-0.829
			v5.229h0.879V272.604z M144.088,273.836c0,0.7-0.8,1.229-1.621,1.229c-0.66,0-0.95-0.34-0.95-0.909c0-0.661,0.69-0.791,1.12-0.852
			c1.091-0.14,1.311-0.22,1.451-0.33V273.836z M141.677,272.005c0.06-0.4,0.2-1.01,1.201-1.01c0.83,0,1.23,0.3,1.23,0.85
			c0,0.521-0.25,0.6-0.46,0.62l-1.451,0.18c-1.459,0.181-1.589,1.201-1.589,1.642c0,0.899,0.679,1.509,1.639,1.509
			c1.021,0,1.551-0.479,1.891-0.849c0.03,0.398,0.15,0.799,0.929,0.799c0.2,0,0.33-0.061,0.48-0.101v-0.639
			c-0.1,0.02-0.21,0.04-0.29,0.04c-0.18,0-0.29-0.09-0.29-0.311v-3.011c0-1.339-1.519-1.459-1.939-1.459
			c-1.291,0-2.12,0.489-2.16,1.739H141.677z"/>
		<path clip-path="url(#SVGID_14_)" fill="#939598" d="M178.741,208.623c0-0.67,0.07-1.96,1.431-1.96c1.27,0,1.41,1.37,1.41,2.22
			c0,1.392-0.87,1.762-1.43,1.762C179.191,210.645,178.741,209.774,178.741,208.623 M182.471,204.074h-0.879v2.619l-0.02,0.07
			c-0.21-0.301-0.61-0.89-1.56-0.89c-1.391,0-2.18,1.14-2.18,2.609c0,1.251,0.52,2.92,2.3,2.92c0.51,0,1.11-0.16,1.49-0.869h0.02
			v0.719h0.829V204.074z M175.762,209.444c0,0.7-0.8,1.229-1.621,1.229c-0.66,0-0.95-0.34-0.95-0.909c0-0.66,0.69-0.791,1.121-0.852
			c1.09-0.14,1.31-0.22,1.45-0.33V209.444z M173.351,207.613c0.06-0.4,0.2-1.01,1.201-1.01c0.83,0,1.23,0.3,1.23,0.85
			c0,0.521-0.25,0.6-0.46,0.62l-1.451,0.18c-1.459,0.181-1.589,1.201-1.589,1.642c0,0.899,0.679,1.509,1.639,1.509
			c1.021,0,1.551-0.479,1.891-0.849c0.03,0.398,0.15,0.799,0.929,0.799c0.2,0,0.33-0.061,0.48-0.101v-0.639
			c-0.1,0.02-0.21,0.04-0.29,0.04c-0.18,0-0.29-0.09-0.29-0.311v-3.011c0-1.339-1.519-1.459-1.939-1.459
			c-1.291,0-2.12,0.489-2.16,1.739H173.351z M167.701,208.225c0-0.812,0.64-1.562,1.451-1.562c1.07,0,1.41,0.75,1.46,1.562H167.701z
			 M170.572,209.613c-0.03,0.391-0.52,1.031-1.35,1.031c-1.011,0-1.521-0.63-1.521-1.722h3.82c0-1.85-0.739-3.049-2.249-3.049
			c-1.731,0-2.51,1.289-2.51,2.909c0,1.511,0.869,2.62,2.34,2.62c0.84,0,1.18-0.2,1.42-0.36c0.659-0.438,0.899-1.18,0.929-1.43
			H170.572z M162.531,204.074h-0.969v7.179h4.609v-0.858h-3.64V204.074z"/>
		<path clip-path="url(#SVGID_14_)" fill="#939598" d="M177.371,220.224c0-0.81,0.64-1.561,1.45-1.561
			c1.071,0,1.411,0.751,1.461,1.561H177.371z M180.242,221.613c-0.03,0.391-0.52,1.03-1.351,1.03c-1.01,0-1.52-0.63-1.52-1.721h3.82
			c0-1.85-0.739-3.049-2.25-3.049c-1.73,0-2.509,1.289-2.509,2.909c0,1.511,0.869,2.62,2.339,2.62c0.841,0,1.181-0.2,1.421-0.359
			c0.659-0.439,0.899-1.18,0.929-1.431H180.242z M168.353,223.253h0.879v-2.85c0-1.42,0.88-1.74,1.381-1.74
			c0.65,0,0.82,0.53,0.82,0.97v3.62h0.879v-3.189c0-0.7,0.49-1.4,1.231-1.4c0.75,0,0.97,0.49,0.97,1.21v3.38h0.879v-3.62
			c0-1.469-1.059-1.759-1.619-1.759c-0.811,0-1.161,0.36-1.601,0.849c-0.15-0.279-0.449-0.849-1.389-0.849
			c-0.941,0-1.391,0.609-1.581,0.889h-0.02v-0.738h-0.829V223.253z M167.031,216.074h-0.879v0.999h0.879V216.074z M167.031,218.024
			h-0.879v5.229h0.879V218.024z M165.271,218.753v-0.729h-0.84v-1.46h-0.879v1.46h-0.71v0.729h0.71v3.451
			c0,0.63,0.19,1.119,1.059,1.119c0.09,0,0.34-0.04,0.66-0.07v-0.688h-0.31c-0.18,0-0.53,0-0.53-0.41v-3.401H165.271z"/>
		<path clip-path="url(#SVGID_14_)" fill="#414042" d="M508.487,297.043h-0.021l-1.389-4.26h-1l1.939,5.37
			c-0.42,1.08-0.471,1.21-0.93,1.21c-0.239,0-0.42-0.05-0.529-0.09v0.809c0.14,0.03,0.239,0.07,0.37,0.07
			c1.129,0,1.219-0.12,2.049-2.239c0.67-1.71,1.27-3.42,1.88-5.13h-0.97L508.487,297.043z M505.558,293.512v-0.729h-0.841v-1.46
			h-0.879v1.46h-0.71v0.729h0.71v3.451c0,0.63,0.19,1.119,1.06,1.119c0.09,0,0.34-0.04,0.66-0.07v-0.688h-0.311
			c-0.18,0-0.53,0-0.53-0.41v-3.401H505.558z M498.768,294.983c0-0.812,0.64-1.562,1.449-1.562c1.071,0,1.411,0.75,1.462,1.562
			H498.768z M501.639,296.372c-0.03,0.39-0.521,1.031-1.352,1.031c-1.01,0-1.52-0.631-1.52-1.721h3.819
			c0-1.851-0.738-3.05-2.25-3.05c-1.729,0-2.509,1.289-2.509,2.909c0,1.511,0.869,2.62,2.339,2.62c0.841,0,1.182-0.2,1.421-0.36
			c0.659-0.438,0.899-1.18,0.93-1.43H501.639z M497.567,293.512v-0.729h-0.88v-0.651c0-0.42,0.14-0.609,0.52-0.609
			c0.11,0,0.25,0.01,0.36,0.02v-0.789c-0.14-0.01-0.271-0.02-0.4-0.02c-0.859,0-1.358,0.358-1.358,1.148v0.901h-0.721v0.729h0.721
			v4.5h0.879v-4.5H497.567z M493.229,296.203c0,0.7-0.8,1.23-1.621,1.23c-0.66,0-0.95-0.341-0.95-0.91
			c0-0.661,0.69-0.791,1.12-0.852c1.091-0.14,1.311-0.22,1.451-0.33V296.203z M490.817,294.372c0.06-0.399,0.2-1.01,1.2-1.01
			c0.831,0,1.23,0.3,1.23,0.85c0,0.521-0.25,0.601-0.46,0.62l-1.451,0.18c-1.459,0.181-1.589,1.201-1.589,1.642
			c0,0.899,0.68,1.509,1.64,1.509c1.021,0,1.551-0.479,1.891-0.849c0.03,0.398,0.15,0.799,0.929,0.799c0.2,0,0.33-0.061,0.48-0.101
			v-0.639c-0.101,0.021-0.21,0.04-0.29,0.04c-0.181,0-0.29-0.09-0.29-0.31v-3.012c0-1.339-1.52-1.459-1.94-1.459
			c-1.29,0-2.119,0.489-2.159,1.739H490.817z M488.867,292.933c-0.04-0.79-0.29-2.289-2.8-2.289c-1.74,0-2.469,1.099-2.469,2.219
			c0,1.25,1.059,1.58,1.528,1.689l1.471,0.341c1.181,0.279,1.53,0.521,1.53,1.271c0,1.03-1.18,1.21-1.881,1.21
			c-0.92,0-1.979-0.38-1.979-1.68h-0.909c0,0.67,0.12,1.27,0.729,1.82c0.32,0.288,0.841,0.688,2.17,0.688
			c1.231,0,2.811-0.47,2.811-2.169c0-1.141-0.699-1.701-1.629-1.921l-2.051-0.47c-0.421-0.101-0.851-0.301-0.851-0.91
			c0-1.09,1.03-1.26,1.641-1.26c0.811,0,1.73,0.35,1.78,1.46H488.867z"/>
	</g>
	<text transform="matrix(1 0 0 1 510.8564 298.0127)" fill="#414042" font-family="'HelveticaLTStd-Roman'" font-size="10"> </text>
	<g>
		<defs>
			<rect id="SVGID_15_" width="538.583" height="368.504"/>
		</defs>
		<clipPath id="SVGID_16_">
			<use xlink:href="#SVGID_15_"  overflow="visible"/>
		</clipPath>
		<path clip-path="url(#SVGID_16_)" fill="#414042" d="M528.098,302.833h-0.879v7.179h0.879V302.833z M522.327,306.983
			c0-0.812,0.64-1.562,1.451-1.562c1.07,0,1.41,0.75,1.46,1.562H522.327z M525.198,308.372c-0.03,0.39-0.52,1.031-1.35,1.031
			c-1.012,0-1.521-0.631-1.521-1.722h3.82c0-1.85-0.739-3.049-2.249-3.049c-1.731,0-2.51,1.289-2.51,2.909
			c0,1.511,0.868,2.62,2.34,2.62c0.84,0,1.18-0.2,1.42-0.36c0.659-0.438,0.898-1.18,0.929-1.43H525.198z M518.717,309.043h-0.02
			l-1.359-4.26h-1.02l1.91,5.229h0.938l1.99-5.229h-0.96L518.717,309.043z M512.317,306.983c0-0.812,0.64-1.562,1.45-1.562
			c1.07,0,1.411,0.75,1.461,1.562H512.317z M515.188,308.372c-0.03,0.39-0.521,1.031-1.351,1.031c-1.011,0-1.521-0.631-1.521-1.722
			h3.82c0-1.85-0.739-3.049-2.25-3.049c-1.73,0-2.51,1.289-2.51,2.909c0,1.511,0.869,2.62,2.339,2.62c0.842,0,1.182-0.2,1.422-0.36
			c0.658-0.438,0.898-1.18,0.929-1.43H515.188z M510.308,302.833h-0.879v7.179h0.879V302.833z M503.867,306.732l2-1.949h-1.12
			l-2.25,2.209v-4.159h-0.849v7.179h0.849v-1.979l0.73-0.66l1.63,2.64h1.13L503.867,306.732z M500.947,306.542
			c-0.07-0.91-0.59-1.909-1.96-1.909c-1.73,0-2.509,1.289-2.509,2.909c0,1.511,0.869,2.62,2.339,2.62c1.53,0,2.04-1.169,2.13-1.999
			h-0.85c-0.15,0.8-0.66,1.24-1.25,1.24c-1.21,0-1.431-1.11-1.431-2.011c0-0.931,0.351-1.971,1.44-1.971c0.74,0,1.13,0.42,1.24,1.12
			H500.947z M491.877,307.393c0-0.7,0.261-2,1.521-2c1.26,0,1.52,1.3,1.52,2s-0.26,2.001-1.52,2.001
			C492.138,309.394,491.877,308.093,491.877,307.393 M490.969,307.393c0,1.351,0.759,2.76,2.43,2.76c1.67,0,2.429-1.409,2.429-2.76
			s-0.759-2.76-2.429-2.76C491.728,304.633,490.969,306.042,490.969,307.393 M490.607,305.512v-0.729h-0.84v-1.46h-0.879v1.46h-0.71
			v0.729h0.71v3.451c0,0.63,0.189,1.119,1.059,1.119c0.09,0,0.34-0.04,0.66-0.07v-0.688h-0.311c-0.18,0-0.529,0-0.529-0.41v-3.401
			H490.607z M487.507,306.272c0-0.261-0.13-1.64-2-1.64c-1.029,0-1.979,0.52-1.979,1.669c0,0.721,0.479,1.091,1.209,1.271l1.02,0.25
			c0.751,0.19,1.041,0.331,1.041,0.751c0,0.58-0.569,0.83-1.2,0.83c-1.24,0-1.36-0.66-1.391-1.07h-0.849
			c0.03,0.63,0.18,1.829,2.249,1.829c1.181,0,2.07-0.649,2.07-1.729c0-0.712-0.381-1.111-1.47-1.382l-0.881-0.22
			c-0.68-0.17-0.95-0.27-0.95-0.7c0-0.649,0.771-0.739,1.04-0.739c1.111,0,1.231,0.55,1.241,0.88H487.507z"/>
		<path clip-path="url(#SVGID_16_)" fill="#414042" d="M515.398,222.656h0.879v-2.85c0-1.42,0.88-1.74,1.38-1.74
			c0.65,0,0.82,0.53,0.82,0.97v3.62h0.88v-3.189c0-0.7,0.489-1.4,1.229-1.4c0.751,0,0.971,0.49,0.971,1.21v3.38h0.879v-3.62
			c0-1.469-1.059-1.759-1.619-1.759c-0.811,0-1.16,0.36-1.601,0.849c-0.149-0.279-0.45-0.849-1.39-0.849
			c-0.94,0-1.391,0.609-1.58,0.889h-0.021v-0.738h-0.828V222.656z M514.077,222.656v-5.229h-0.879v2.88c0,0.76-0.33,1.74-1.441,1.74
			c-0.57,0-1.01-0.29-1.01-1.15v-3.47h-0.879v3.76c0,1.25,0.929,1.619,1.699,1.619c0.84,0,1.291-0.319,1.66-0.93l0.021,0.021v0.759
			H514.077z M501.608,222.656h0.879v-2.85c0-1.42,0.88-1.74,1.38-1.74c0.65,0,0.82,0.53,0.82,0.97v3.62h0.88v-3.189
			c0-0.7,0.489-1.4,1.229-1.4c0.751,0,0.971,0.49,0.971,1.21v3.38h0.879v-3.62c0-1.469-1.059-1.759-1.619-1.759
			c-0.811,0-1.16,0.36-1.601,0.849c-0.149-0.279-0.45-0.849-1.389-0.849c-0.941,0-1.392,0.609-1.581,0.889h-0.021v-0.738h-0.828
			V222.656z M500.287,215.478h-0.879v0.999h0.879V215.478z M500.287,217.428h-0.879v5.229h0.879V217.428z M498.087,219.097
			c0-1.489-1.019-1.819-1.829-1.819c-0.9,0-1.391,0.609-1.581,0.889h-0.02v-0.738h-0.829v5.229h0.879v-2.849
			c0-1.421,0.88-1.741,1.38-1.741c0.861,0,1.121,0.46,1.121,1.37v3.22h0.879V219.097z M492.507,215.478h-0.879v0.999h0.879V215.478z
			 M492.507,217.428h-0.879v5.229h0.879V217.428z M490.237,222.656v-7.179h-1.379l-2.04,6.07h-0.021l-2.051-6.07h-1.389v7.179h0.938
			v-4.239c0-0.211-0.02-1.12-0.02-1.78h0.02l2.021,6.02h0.96l2.02-6.03h0.021c0,0.671-0.021,1.58-0.021,1.79v4.24H490.237z"/>
	</g>
	<text transform="matrix(1 0 0 1 522.4365 222.6572)" fill="#414042" font-family="'HelveticaLTStd-Roman'" font-size="10"> </text>
	<g>
		<defs>
			<rect id="SVGID_17_" width="538.583" height="368.504"/>
		</defs>
		<clipPath id="SVGID_18_">
			<use xlink:href="#SVGID_17_"  overflow="visible"/>
		</clipPath>
		<path clip-path="url(#SVGID_18_)" fill="#414042" d="M528.098,227.478h-0.879v7.179h0.879V227.478z M522.327,231.628
			c0-0.812,0.64-1.562,1.451-1.562c1.07,0,1.41,0.75,1.46,1.562H522.327z M525.198,233.017c-0.03,0.39-0.52,1.031-1.35,1.031
			c-1.012,0-1.521-0.631-1.521-1.721h3.82c0-1.851-0.739-3.05-2.249-3.05c-1.731,0-2.51,1.289-2.51,2.909
			c0,1.511,0.868,2.62,2.339,2.62c0.841,0,1.181-0.2,1.421-0.36c0.659-0.438,0.898-1.18,0.929-1.43H525.198z M518.717,233.688h-0.02
			l-1.359-4.26h-1.02l1.91,5.229h0.938l1.99-5.229h-0.96L518.717,233.688z M512.317,231.628c0-0.812,0.64-1.562,1.45-1.562
			c1.07,0,1.411,0.75,1.461,1.562H512.317z M515.188,233.017c-0.03,0.39-0.521,1.031-1.352,1.031c-1.01,0-1.52-0.631-1.52-1.721
			h3.82c0-1.851-0.739-3.05-2.249-3.05c-1.731,0-2.511,1.289-2.511,2.909c0,1.511,0.869,2.62,2.339,2.62
			c0.842,0,1.182-0.2,1.422-0.36c0.658-0.438,0.898-1.18,0.929-1.43H515.188z M510.308,227.478h-0.879v7.179h0.879V227.478z
			 M503.867,231.377l2-1.949h-1.12l-2.25,2.209v-4.159h-0.849v7.179h0.849v-1.979l0.73-0.66l1.63,2.64h1.13L503.867,231.377z
			 M500.947,231.187c-0.07-0.91-0.59-1.909-1.96-1.909c-1.73,0-2.509,1.289-2.509,2.909c0,1.511,0.869,2.62,2.339,2.62
			c1.53,0,2.04-1.169,2.13-1.999h-0.85c-0.15,0.8-0.66,1.24-1.25,1.24c-1.21,0-1.431-1.11-1.431-2.011
			c0-0.931,0.351-1.971,1.44-1.971c0.74,0,1.13,0.42,1.24,1.12H500.947z M491.877,232.037c0-0.7,0.261-2,1.521-2
			c1.26,0,1.52,1.3,1.52,2s-0.26,2.001-1.52,2.001C492.138,234.038,491.877,232.737,491.877,232.037 M490.969,232.037
			c0,1.351,0.759,2.76,2.43,2.76c1.67,0,2.429-1.409,2.429-2.76s-0.759-2.76-2.429-2.76
			C491.728,229.277,490.969,230.687,490.969,232.037 M490.607,230.156v-0.729h-0.84v-1.46h-0.879v1.46h-0.71v0.729h0.71v3.451
			c0,0.63,0.189,1.119,1.059,1.119c0.09,0,0.34-0.04,0.66-0.07v-0.688h-0.311c-0.18,0-0.529,0-0.529-0.41v-3.401H490.607z
			 M487.507,230.917c0-0.261-0.13-1.64-2-1.64c-1.029,0-1.979,0.52-1.979,1.669c0,0.721,0.479,1.091,1.209,1.271l1.02,0.25
			c0.751,0.191,1.041,0.331,1.041,0.751c0,0.58-0.569,0.83-1.2,0.83c-1.24,0-1.36-0.66-1.391-1.07h-0.849
			c0.03,0.63,0.18,1.829,2.249,1.829c1.181,0,2.07-0.648,2.07-1.729c0-0.711-0.381-1.111-1.47-1.382l-0.881-0.22
			c-0.68-0.17-0.95-0.27-0.95-0.7c0-0.649,0.771-0.739,1.04-0.739c1.111,0,1.231,0.55,1.241,0.88H487.507z"/>
	</g>
	<text transform="matrix(1 0 0 1 528.0977 234.6572)" fill="#414042" font-family="'HelveticaLTStd-Roman'" font-size="10"> </text>
	<g>
		<defs>
			<rect id="SVGID_19_" width="538.583" height="368.504"/>
		</defs>
		<clipPath id="SVGID_20_">
			<use xlink:href="#SVGID_19_"  overflow="visible"/>
		</clipPath>
		<path clip-path="url(#SVGID_20_)" fill="#414042" d="M519.487,243.616c0-0.76,0.52-1.399,1.34-1.399h0.33v-0.909
			c-0.07-0.02-0.12-0.03-0.23-0.03c-0.66,0-1.12,0.409-1.47,1.02h-0.021v-0.869h-0.828v5.229h0.879V243.616z M513.617,243.628
			c0-0.812,0.64-1.562,1.451-1.562c1.069,0,1.409,0.75,1.46,1.562H513.617z M516.488,245.017c-0.03,0.391-0.521,1.031-1.351,1.031
			c-1.011,0-1.521-0.63-1.521-1.722h3.819c0-1.85-0.738-3.049-2.249-3.049c-1.73,0-2.51,1.289-2.51,2.909
			c0,1.511,0.869,2.62,2.339,2.62c0.842,0,1.182-0.2,1.421-0.36c0.659-0.438,0.899-1.18,0.93-1.43H516.488z M507.977,244.026
			c0-0.67,0.07-1.96,1.432-1.96c1.27,0,1.41,1.37,1.41,2.22c0,1.392-0.87,1.762-1.431,1.762
			C508.427,246.048,507.977,245.178,507.977,244.026 M511.707,239.478h-0.879v2.619l-0.021,0.07c-0.21-0.301-0.609-0.89-1.561-0.89
			c-1.39,0-2.179,1.14-2.179,2.609c0,1.251,0.519,2.92,2.3,2.92c0.51,0,1.109-0.16,1.49-0.869h0.02v0.719h0.829V239.478z
			 M505.237,243.616c0-0.76,0.52-1.399,1.34-1.399h0.33v-0.909c-0.07-0.02-0.12-0.03-0.23-0.03c-0.66,0-1.12,0.409-1.47,1.02h-0.021
			v-0.869h-0.828v5.229h0.879V243.616z M499.287,244.036c0-0.699,0.26-2,1.52-2c1.262,0,1.521,1.301,1.521,2
			c0,0.701-0.26,2.002-1.521,2.002C499.547,246.038,499.287,244.737,499.287,244.036 M498.378,244.036
			c0,1.352,0.759,2.761,2.429,2.761c1.671,0,2.431-1.409,2.431-2.761c0-1.35-0.76-2.759-2.431-2.759
			C499.137,241.277,498.378,242.687,498.378,244.036 M497.587,243.438h-2.449v0.899h2.449V243.438z M490.477,243.628
			c0-0.812,0.641-1.562,1.451-1.562c1.07,0,1.41,0.75,1.46,1.562H490.477z M493.348,245.017c-0.029,0.391-0.52,1.031-1.35,1.031
			c-1.011,0-1.521-0.63-1.521-1.722h3.82c0-1.85-0.739-3.049-2.249-3.049c-1.73,0-2.51,1.289-2.51,2.909
			c0,1.511,0.869,2.62,2.34,2.62c0.84,0,1.18-0.2,1.42-0.36c0.659-0.438,0.899-1.18,0.929-1.43H493.348z M487.657,243.616
			c0-0.76,0.52-1.399,1.34-1.399h0.33v-0.909c-0.07-0.02-0.12-0.03-0.23-0.03c-0.66,0-1.12,0.409-1.47,1.02h-0.02v-0.869h-0.829
			v5.229h0.879V243.616z M485.047,239.327c-1.08,1.54-1.688,2.961-1.688,4.72c0,1.87,0.679,3.12,1.719,4.68h0.59
			c-0.8-1.57-1.37-2.79-1.37-4.44c0-2.398,0.51-3.358,1.36-4.959H485.047z"/>
	</g>
	<text transform="matrix(1 0 0 1 521.1572 246.6572)" fill="#414042" font-family="'HelveticaLTStd-Roman'" font-size="10"> </text>
	<g>
		<defs>
			<rect id="SVGID_21_" width="538.583" height="368.504"/>
		</defs>
		<clipPath id="SVGID_22_">
			<use xlink:href="#SVGID_21_"  overflow="visible"/>
		</clipPath>
		<path clip-path="url(#SVGID_22_)" fill="#414042" d="M503.658,260.726c1.08-1.539,1.688-2.959,1.688-4.719
			c0-1.87-0.679-3.119-1.719-4.679h-0.59c0.8,1.569,1.37,2.789,1.37,4.438c0,2.4-0.51,3.36-1.36,4.959H503.658z M502.027,251.478
			h-0.879v7.18h0.879V251.478z M496.257,255.628c0-0.811,0.641-1.563,1.451-1.563c1.07,0,1.41,0.752,1.46,1.563H496.257z
			 M499.128,257.017c-0.03,0.391-0.52,1.031-1.35,1.031c-1.012,0-1.521-0.631-1.521-1.722h3.82c0-1.85-0.739-3.048-2.249-3.048
			c-1.731,0-2.51,1.289-2.51,2.908c0,1.511,0.869,2.619,2.34,2.619c0.84,0,1.18-0.199,1.42-0.358
			c0.659-0.439,0.898-1.181,0.929-1.431H499.128z M492.648,257.688h-0.021l-1.36-4.26h-1.02l1.91,5.229h0.938l1.99-5.229h-0.96
			L492.648,257.688z M486.247,255.628c0-0.811,0.64-1.563,1.451-1.563c1.069,0,1.41,0.752,1.46,1.563H486.247z M489.118,257.017
			c-0.03,0.391-0.521,1.031-1.351,1.031c-1.011,0-1.521-0.631-1.521-1.722h3.82c0-1.85-0.739-3.048-2.249-3.048
			c-1.731,0-2.511,1.289-2.511,2.908c0,1.511,0.869,2.619,2.34,2.619c0.841,0,1.181-0.199,1.421-0.358
			c0.658-0.439,0.898-1.181,0.929-1.431H489.118z M484.237,251.478h-0.879v7.18h0.879V251.478z"/>
		<path clip-path="url(#SVGID_22_)" fill="#414042" d="M515.209,32.302h0.88v-2.85c0-1.42,0.88-1.74,1.381-1.74
			c0.649,0,0.819,0.53,0.819,0.97v3.62h0.879v-3.19c0-0.7,0.49-1.4,1.23-1.4c0.751,0,0.971,0.49,0.971,1.21v3.38h0.879v-3.62
			c0-1.469-1.059-1.759-1.618-1.759c-0.812,0-1.161,0.36-1.602,0.849c-0.149-0.28-0.449-0.849-1.389-0.849
			c-0.941,0-1.392,0.609-1.581,0.889h-0.021v-0.739h-0.829V32.302z M513.889,32.302v-5.229h-0.879v2.88c0,0.76-0.33,1.74-1.441,1.74
			c-0.57,0-1.01-0.29-1.01-1.15v-3.47h-0.879v3.76c0,1.25,0.929,1.619,1.699,1.619c0.841,0,1.291-0.319,1.66-0.929l0.021,0.02v0.759
			H513.889z M501.42,32.302h0.879v-2.85c0-1.42,0.88-1.74,1.381-1.74c0.649,0,0.819,0.53,0.819,0.97v3.62h0.88v-3.19
			c0-0.7,0.489-1.4,1.229-1.4c0.751,0,0.971,0.49,0.971,1.21v3.38h0.879v-3.62c0-1.469-1.059-1.759-1.618-1.759
			c-0.812,0-1.161,0.36-1.602,0.849c-0.149-0.28-0.449-0.849-1.389-0.849c-0.941,0-1.392,0.609-1.581,0.889h-0.021v-0.739h-0.828
			V32.302z M500.099,25.123h-0.879v0.999h0.879V25.123z M500.099,27.073h-0.879v5.229h0.879V27.073z M496.608,29.612l1.771-2.539
			h-1.08l-1.209,1.839l-1.21-1.839h-1.131l1.75,2.539l-1.84,2.69h1.11l1.26-1.97l1.299,1.97h1.12L496.608,29.612z M491.829,30.493
			c0,0.7-0.8,1.23-1.621,1.23c-0.659,0-0.949-0.34-0.949-0.91c0-0.66,0.689-0.79,1.12-0.85c1.091-0.14,1.311-0.22,1.45-0.33V30.493z
			 M489.419,28.662c0.06-0.4,0.199-1.01,1.2-1.01c0.83,0,1.23,0.3,1.23,0.85c0,0.52-0.25,0.6-0.46,0.62l-1.451,0.18
			c-1.459,0.181-1.589,1.201-1.589,1.641c0,0.9,0.679,1.509,1.639,1.509c1.021,0,1.551-0.479,1.892-0.849
			c0.029,0.4,0.149,0.799,0.929,0.799c0.2,0,0.33-0.06,0.479-0.1v-0.639c-0.1,0.02-0.21,0.04-0.29,0.04c-0.18,0-0.29-0.09-0.29-0.31
			v-3.011c0-1.339-1.519-1.459-1.938-1.459c-1.291,0-2.12,0.489-2.16,1.739H489.419z M487.269,32.302v-7.179h-1.379l-2.04,6.07
			h-0.021l-2.051-6.07h-1.389v7.179h0.938v-4.239c0-0.211-0.02-1.121-0.02-1.781h0.02l2.021,6.02h0.96l2.02-6.03h0.021
			c0,0.67-0.021,1.58-0.021,1.79v4.24H487.269z"/>
	</g>
	<text transform="matrix(1 0 0 1 522.248 32.3027)" fill="#414042" font-family="'HelveticaLTStd-Roman'" font-size="10"> </text>
	<g>
		<defs>
			<rect id="SVGID_23_" width="538.583" height="368.504"/>
		</defs>
		<clipPath id="SVGID_24_">
			<use xlink:href="#SVGID_23_"  overflow="visible"/>
		</clipPath>
		<path clip-path="url(#SVGID_24_)" fill="#414042" d="M525.129,37.124h-0.879v7.179h0.879V37.124z M519.358,41.273
			c0-0.811,0.641-1.561,1.451-1.561c1.07,0,1.41,0.75,1.46,1.561H519.358z M522.229,42.662c-0.029,0.39-0.52,1.031-1.35,1.031
			c-1.011,0-1.521-0.631-1.521-1.721h3.82c0-1.85-0.739-3.049-2.249-3.049c-1.73,0-2.51,1.289-2.51,2.909
			c0,1.511,0.869,2.62,2.339,2.62c0.841,0,1.181-0.2,1.421-0.36c0.659-0.439,0.899-1.18,0.929-1.43H522.229z M515.749,43.333h-0.021
			l-1.358-4.26h-1.021l1.91,5.229h0.939l1.989-5.229h-0.96L515.749,43.333z M509.349,41.273c0-0.811,0.64-1.561,1.45-1.561
			c1.071,0,1.411,0.75,1.461,1.561H509.349z M512.22,42.662c-0.03,0.39-0.52,1.031-1.351,1.031c-1.011,0-1.521-0.631-1.521-1.721
			h3.82c0-1.85-0.739-3.049-2.25-3.049c-1.73,0-2.509,1.289-2.509,2.909c0,1.511,0.868,2.62,2.339,2.62
			c0.841,0,1.181-0.2,1.421-0.36c0.659-0.439,0.898-1.18,0.929-1.43H512.22z M507.339,37.124h-0.879v7.179h0.879V37.124z
			 M500.898,41.023l2-1.95h-1.12l-2.25,2.209v-4.159h-0.849v7.179h0.849v-1.98l0.73-0.66l1.63,2.64h1.13L500.898,41.023z
			 M497.979,40.833c-0.069-0.91-0.59-1.909-1.96-1.909c-1.729,0-2.509,1.289-2.509,2.909c0,1.511,0.869,2.62,2.339,2.62
			c1.53,0,2.04-1.169,2.13-1.999h-0.85c-0.15,0.8-0.66,1.24-1.25,1.24c-1.21,0-1.43-1.11-1.43-2.011c0-0.93,0.35-1.97,1.439-1.97
			c0.74,0,1.13,0.42,1.24,1.12H497.979z M488.909,41.682c0-0.7,0.26-2,1.521-2c1.26,0,1.521,1.3,1.521,2
			c0,0.701-0.261,2.001-1.521,2.001C489.169,43.683,488.909,42.383,488.909,41.682 M488,41.682c0,1.351,0.759,2.76,2.43,2.76
			c1.67,0,2.429-1.409,2.429-2.76c0-1.35-0.759-2.759-2.429-2.759C488.759,38.923,488,40.333,488,41.682 M487.639,39.802v-0.729
			h-0.84v-1.46h-0.879v1.46h-0.71v0.729h0.71v3.451c0,0.629,0.189,1.119,1.059,1.119c0.09,0,0.34-0.04,0.66-0.07v-0.689h-0.31
			c-0.181,0-0.53,0-0.53-0.41v-3.401H487.639z M484.539,40.563c0-0.26-0.13-1.639-2-1.639c-1.03,0-1.979,0.519-1.979,1.669
			c0,0.72,0.479,1.09,1.209,1.27l1.021,0.25c0.751,0.191,1.041,0.331,1.041,0.751c0,0.58-0.57,0.83-1.201,0.83
			c-1.24,0-1.36-0.66-1.391-1.07h-0.849c0.03,0.63,0.18,1.829,2.249,1.829c1.181,0,2.07-0.649,2.07-1.729
			c0-0.711-0.38-1.111-1.469-1.381l-0.882-0.22c-0.68-0.17-0.949-0.27-0.949-0.7c0-0.65,0.77-0.74,1.04-0.74
			c1.11,0,1.23,0.55,1.24,0.88H484.539z"/>
	</g>
</g>
</svg>
