<?xml version="1.0" encoding="utf-8"?>
<!-- Generator: Adobe Illustrator 16.0.0, SVG Export Plug-In . SVG Version: 6.00 Build 0)  -->
<!DOCTYPE svg PUBLIC "-//W3C//DTD SVG 1.1//EN" "http://www.w3.org/Graphics/SVG/1.1/DTD/svg11.dtd">
<svg version="1.1" id="Layer_1" xmlns="http://www.w3.org/2000/svg" xmlns:xlink="http://www.w3.org/1999/xlink" x="0px" y="0px"
	 width="595.276px" height="368.504px" viewBox="0 0 595.276 368.504" enable-background="new 0 0 595.276 368.504"
	 xml:space="preserve">
<g>
	<g>
		<defs>
			<rect id="SVGID_1_" width="595.276" height="368.504"/>
		</defs>
		<clipPath id="SVGID_2_">
			<use xlink:href="#SVGID_1_"  overflow="visible"/>
		</clipPath>
		<path clip-path="url(#SVGID_2_)" fill="#414042" d="M74.394,254.094h2.968v7.435h3.302v-7.435h2.968v-2.644h-9.238V254.094z
			 M66.357,251.45h-3.093v10.078h3.162v-3.191l-0.125-2.296l3.599,5.487h3.092V251.45H69.83v3.205l0.126,2.296L66.357,251.45z
			 M61.667,261.528v-2.351h-5.11v-1.584h4.158v-2.35h-4.158V253.8h4.914v-2.35h-8.217v10.078H61.667z M51.111,251.45h-3.302v10.078
			h3.302V251.45z M37.071,254.094h2.968v7.435h3.302v-7.435h2.968v-2.644h-9.238V254.094z M30.42,261.528l0.378-1.33h3.29
			l0.391,1.33h3.29l-3.611-10.078h-3.36l-3.611,10.078H30.42z M33.514,258.1h-2.086l1.022-3.611L33.514,258.1z M22.061,261.528
			v-3.137h1.667c2.898,0,4.185-1.37,4.185-3.541c0-2.071-1.399-3.4-4.297-3.4h-4.857v10.078H22.061z M22.061,256.042V253.8H23
			c0.7,0,1.765,0.126,1.765,1.065c0,0.869-0.561,1.177-1.331,1.177H22.061z"/>
		<path clip-path="url(#SVGID_2_)" fill="#414042" d="M75.064,278.328v-3.415l-0.07-1.567l-0.14-1.484h0.028l1.834,6.467h2.297
			l1.835-6.467h0.028l-0.168,1.82l-0.042,1.567v3.079h2.966V268.25h-3.989l-1.778,6.285l-1.779-6.285h-3.988v10.078H75.064z
			 M65.531,274.814c1.54,0,1.765,0.434,1.765,1.751c0,0.896,0.084,1.54,0.168,1.763h3.344v-0.306c-0.392,0-0.35-0.449-0.35-1.766
			c0-2.03-0.644-2.281-1.707-2.674c1.175-0.321,1.693-1.302,1.693-2.465c0-1.959-1.105-2.868-4.465-2.868H61.22v10.078h3.302v-3.514
			H65.531z M64.522,270.601h1.541c0.77,0,1.331,0.336,1.331,1.051c0,0.701-0.547,0.953-1.569,0.953h-1.303V270.601z M52.861,278.328
			l0.378-1.33h3.289l0.392,1.33h3.29l-3.612-10.078h-3.359l-3.611,10.078H52.861z M55.956,274.9H53.87l1.022-3.612L55.956,274.9z
			 M42.081,278.328v-3.906h3.124v3.906h3.302V268.25h-3.302v3.402h-3.124v-3.402h-3.302v10.078H42.081z"/>
		<path clip-path="url(#SVGID_2_)" fill="#414042" d="M578.102,77.926c-0.238-1.763-1.511-3.19-4.313-3.19
			c-2.52,0-4.366,1.077-4.366,3.218c0,3.851,5.796,2.801,5.796,4.328c0,0.476-0.546,0.742-1.372,0.742
			c-0.323,0-0.673-0.084-0.939-0.252c-0.279-0.169-0.476-0.434-0.546-0.798h-3.163c0.07,1.819,1.807,3.372,4.466,3.372
			c2.772,0,4.718-1.133,4.718-3.471c0-3.669-5.796-2.73-5.796-4.243c0-0.364,0.321-0.574,1.05-0.574
			c0.323,0,0.617,0.056,0.854,0.182c0.238,0.126,0.42,0.336,0.477,0.686H578.102z M563.094,85.081c3.234,0,5.348-1.455,5.348-5.249
			c0-3.318-2.015-4.829-5.264-4.829h-4.423v10.078H563.094z M562.058,77.353h0.63c1.765,0,2.451,0.56,2.451,2.661
			c0,1.904-0.84,2.717-2.381,2.717h-0.7V77.353z M552.117,81.566c1.541,0,1.766,0.434,1.766,1.751c0,0.896,0.084,1.54,0.168,1.763
			h3.345v-0.306c-0.392,0-0.35-0.448-0.35-1.765c0-2.031-0.645-2.282-1.707-2.674c1.175-0.322,1.692-1.302,1.692-2.465
			c0-1.959-1.105-2.868-4.465-2.868h-4.76v10.078h3.303v-3.514H552.117z M551.109,77.353h1.541c0.771,0,1.33,0.336,1.33,1.051
			c0,0.701-0.546,0.953-1.569,0.953h-1.302V77.353z M539.448,85.081l0.378-1.33h3.289l0.393,1.33h3.29l-3.612-10.078h-3.359
			l-3.611,10.078H539.448z M542.542,81.652h-2.085l1.021-3.612L542.542,81.652z M535.542,85.081v-2.35h-5.096l4.899-5.392v-2.336
			h-8.692v2.35h4.633l-4.828,5.336v2.392H535.542z M518.448,85.081l0.378-1.33h3.289l0.393,1.33h3.29l-3.612-10.078h-3.359
			l-3.61,10.078H518.448z M521.543,81.652h-2.086l1.021-3.612L521.543,81.652z M507.668,85.081v-3.906h3.124v3.906h3.302V75.002
			h-3.302v3.402h-3.124v-3.402h-3.303v10.078H507.668z"/>
		<path clip-path="url(#SVGID_2_)" fill="#58595B" d="M559.808,237.623h-0.995v0.888h-0.024c-0.252-0.36-0.731-1.066-1.873-1.066
			c-1.668,0-2.614,1.366-2.614,3.131c0,1.5,0.623,3.503,2.759,3.503c0.841,0,1.393-0.395,1.669-0.839v-0.048h0.024v0.264
			c0,0.743,0.035,2.208-1.789,2.208c-0.252,0-1.225,0-1.416-0.996h-1.056c0.204,1.667,1.655,1.871,2.399,1.871
			c2.904,0,2.916-2.256,2.916-3.154V237.623z M555.392,240.743c0-0.805,0.084-2.353,1.716-2.353c1.525,0,1.693,1.644,1.693,2.665
			c0,1.668-1.044,2.112-1.717,2.112C555.932,243.168,555.392,242.123,555.392,240.743 M553.039,239.626
			c0-1.786-1.223-2.182-2.194-2.182c-1.081,0-1.669,0.73-1.897,1.066h-0.023v-0.888h-0.995v6.275h1.055v-3.419
			c0-1.705,1.056-2.089,1.656-2.089c1.033,0,1.345,0.552,1.345,1.644v3.864h1.055V239.626z M546.344,235.283h-1.056v1.199h1.056
			V235.283z M546.344,237.623h-1.056v6.275h1.056V237.623z M541.951,239.964l2.4-2.341h-1.344l-2.7,2.652v-4.992h-1.02v8.615h1.02
			v-2.375l0.876-0.792l1.956,3.167h1.355L541.951,239.964z M533.323,240.756c0-0.841,0.313-2.401,1.825-2.401
			c1.512,0,1.824,1.561,1.824,2.401c0,0.84-0.313,2.399-1.824,2.399C533.636,243.155,533.323,241.596,533.323,240.756
			 M532.232,240.756c0,1.619,0.911,3.311,2.916,3.311c2.004,0,2.915-1.691,2.915-3.311c0-1.621-0.911-3.312-2.915-3.312
			C533.144,237.444,532.232,239.135,532.232,240.756 M526.651,240.756c0-0.841,0.313-2.401,1.825-2.401
			c1.512,0,1.824,1.561,1.824,2.401c0,0.84-0.313,2.399-1.824,2.399C526.964,243.155,526.651,241.596,526.651,240.756
			 M525.561,240.756c0,1.619,0.911,3.311,2.916,3.311c2.004,0,2.915-1.691,2.915-3.311c0-1.621-0.911-3.312-2.915-3.312
			C526.472,237.444,525.561,239.135,525.561,240.756 M524.336,235.283h-1.056v8.615h1.056V235.283z M516.607,239.964l2.4-2.341
			h-1.345l-2.699,2.652v-4.992h-1.019v8.615h1.019v-2.375l0.876-0.792l1.956,3.167h1.355L516.607,239.964z M510.943,240.25
			c0-0.911,0.624-1.68,1.608-1.68h0.396v-1.091c-0.084-0.024-0.144-0.035-0.275-0.035c-0.792,0-1.345,0.491-1.765,1.222h-0.023
			v-1.043h-0.994v6.275h1.054V240.25z M503.899,240.264c0-0.973,0.769-1.873,1.741-1.873c1.284,0,1.693,0.9,1.753,1.873H503.899z
			 M507.346,241.932c-0.036,0.468-0.625,1.236-1.621,1.236c-1.213,0-1.825-0.757-1.825-2.065h4.584c0-2.22-0.887-3.658-2.699-3.658
			c-2.077,0-3.011,1.546-3.011,3.49c0,1.813,1.042,3.144,2.807,3.144c1.009,0,1.416-0.239,1.705-0.431
			c0.791-0.528,1.078-1.416,1.114-1.716H507.346z M501.487,235.283h-1.055v8.615h1.055V235.283z M499.352,239.734
			c-0.084-1.092-0.708-2.29-2.353-2.29c-2.074,0-3.01,1.546-3.01,3.491c0,1.812,1.042,3.143,2.807,3.143
			c1.836,0,2.447-1.402,2.556-2.398h-1.021c-0.18,0.96-0.792,1.488-1.5,1.488c-1.451,0-1.716-1.333-1.716-2.412
			c0-1.117,0.42-2.365,1.729-2.365c0.888,0,1.355,0.504,1.487,1.344H499.352z M487.76,239.964l2.399-2.341h-1.344l-2.7,2.652v-4.992
			h-1.018v8.615h1.018v-2.375l0.876-0.792l1.956,3.167h1.356L487.76,239.964z M483.656,239.41c0-0.312-0.156-1.966-2.399-1.966
			c-1.237,0-2.375,0.622-2.375,2.002c0,0.865,0.574,1.31,1.45,1.525l1.225,0.3c0.9,0.228,1.249,0.396,1.249,0.9
			c0,0.695-0.686,0.996-1.441,0.996c-1.489,0-1.632-0.793-1.668-1.284h-1.019c0.036,0.756,0.216,2.194,2.699,2.194
			c1.417,0,2.482-0.778,2.482-2.075c0-0.852-0.455-1.331-1.763-1.655l-1.057-0.265c-0.816-0.204-1.141-0.324-1.141-0.841
			c0-0.779,0.925-0.888,1.249-0.888c1.333,0,1.477,0.66,1.489,1.056H483.656z M473.228,240.264c0-0.973,0.769-1.873,1.741-1.873
			c1.285,0,1.692,0.9,1.753,1.873H473.228z M476.674,241.932c-0.036,0.468-0.624,1.236-1.621,1.236
			c-1.212,0-1.825-0.757-1.825-2.065h4.584c0-2.22-0.886-3.658-2.699-3.658c-2.076,0-3.011,1.546-3.011,3.49
			c0,1.813,1.042,3.144,2.807,3.144c1.008,0,1.417-0.239,1.705-0.431c0.791-0.528,1.078-1.416,1.114-1.716H476.674z
			 M465.093,236.278h2.172c1.585,0,2.581,1.092,2.581,3.265s-0.984,3.36-2.497,3.36h-2.256V236.278z M463.93,243.898h3.442
			c2.833,0,3.673-2.495,3.673-4.427c0-2.485-1.38-4.188-3.624-4.188h-3.491V243.898z"/>
	</g>
	<text transform="matrix(1 0 0 1 559.8076 243.8994)" fill="#58595B" font-family="'HelveticaLTStd-Roman'" font-size="12"> </text>
	<g>
		<defs>
			<rect id="SVGID_3_" width="595.276" height="368.504"/>
		</defs>
		<clipPath id="SVGID_4_">
			<use xlink:href="#SVGID_3_"  overflow="visible"/>
		</clipPath>
		<path clip-path="url(#SVGID_4_)" fill="#58595B" d="M530.384,254.65c0-0.912,0.624-1.68,1.608-1.68h0.396v-1.091
			c-0.084-0.024-0.144-0.036-0.275-0.036c-0.792,0-1.345,0.491-1.765,1.223h-0.023v-1.043h-0.995v6.275h1.055V254.65z
			 M523.34,254.663c0-0.972,0.769-1.873,1.74-1.873c1.285,0,1.693,0.901,1.753,1.873H523.34z M526.785,256.331
			c-0.036,0.469-0.624,1.236-1.621,1.236c-1.212,0-1.824-0.756-1.824-2.065h4.584c0-2.22-0.887-3.658-2.7-3.658
			c-2.075,0-3.011,1.547-3.011,3.49c0,1.813,1.043,3.145,2.807,3.145c1.01,0,1.417-0.24,1.705-0.431
			c0.791-0.528,1.079-1.416,1.115-1.717H526.785z M516.572,255.144c0-0.805,0.084-2.354,1.716-2.354
			c1.524,0,1.692,1.645,1.692,2.665c0,1.668-1.044,2.112-1.717,2.112C517.112,257.567,516.572,256.523,516.572,255.144
			 M521.048,249.684h-1.055v3.143l-0.024,0.084c-0.252-0.359-0.731-1.066-1.873-1.066c-1.668,0-2.615,1.366-2.615,3.132
			c0,1.5,0.623,3.503,2.76,3.503c0.612,0,1.333-0.192,1.789-1.043h0.023v0.863h0.995V249.684z M514.256,249.684h-1.054v8.614h1.054
			V249.684z M507.236,255.155c0-0.84,0.312-2.4,1.823-2.4c1.514,0,1.825,1.561,1.825,2.4s-0.312,2.401-1.825,2.401
			C507.548,257.557,507.236,255.995,507.236,255.155 M506.145,255.155c0,1.62,0.911,3.312,2.915,3.312
			c2.006,0,2.916-1.691,2.916-3.312c0-1.621-0.91-3.312-2.916-3.312C507.056,251.844,506.145,253.534,506.145,255.155
			 M505.892,252.898v-0.875h-1.056v-0.78c0-0.505,0.168-0.732,0.624-0.732c0.132,0,0.3,0.012,0.432,0.023v-0.946
			c-0.168-0.013-0.323-0.024-0.479-0.024c-1.032,0-1.631,0.432-1.631,1.379v1.081h-0.864v0.875h0.864v5.4h1.055v-5.4H505.892z
			 M499.16,252.898v-0.875h-1.008v-1.752h-1.056v1.752h-0.852v0.875h0.852v4.141c0,0.756,0.229,1.344,1.271,1.344
			c0.107,0,0.408-0.049,0.792-0.084v-0.826h-0.372c-0.216,0-0.636,0-0.636-0.493v-4.081H499.16z M495.44,253.811
			c0-0.313-0.156-1.967-2.4-1.967c-1.236,0-2.375,0.623-2.375,2.003c0,0.864,0.575,1.309,1.451,1.524l1.225,0.301
			c0.9,0.228,1.248,0.396,1.248,0.899c0,0.696-0.684,0.996-1.439,0.996c-1.489,0-1.634-0.792-1.669-1.284h-1.02
			c0.036,0.756,0.216,2.195,2.7,2.195c1.416,0,2.482-0.779,2.482-2.075c0-0.852-0.456-1.332-1.763-1.656l-1.057-0.264
			c-0.816-0.205-1.141-0.325-1.141-0.841c0-0.78,0.925-0.888,1.248-0.888c1.333,0,1.478,0.659,1.489,1.056H495.44z M484.916,255.155
			c0-0.84,0.312-2.4,1.824-2.4s1.825,1.561,1.825,2.4s-0.313,2.401-1.825,2.401S484.916,255.995,484.916,255.155 M483.825,255.155
			c0,1.62,0.911,3.312,2.915,3.312c2.005,0,2.916-1.691,2.916-3.312c0-1.621-0.911-3.312-2.916-3.312
			C484.736,251.844,483.825,253.534,483.825,255.155 M482.6,249.684h-1.055v8.614h1.055V249.684z M475.388,254.65
			c0-0.912,0.624-1.68,1.608-1.68h0.396v-1.091c-0.084-0.024-0.144-0.036-0.275-0.036c-0.792,0-1.345,0.491-1.765,1.223h-0.023
			v-1.043h-0.994v6.275h1.054V254.65z M468.248,255.155c0-0.84,0.312-2.4,1.825-2.4c1.512,0,1.823,1.561,1.823,2.4
			s-0.312,2.401-1.823,2.401C468.56,257.557,468.248,255.995,468.248,255.155 M467.158,255.155c0,1.62,0.91,3.312,2.915,3.312
			c2.004,0,2.915-1.691,2.915-3.312c0-1.621-0.911-3.312-2.915-3.312C468.068,251.844,467.158,253.534,467.158,255.155
			 M466.904,252.898v-0.875h-1.057v-0.78c0-0.505,0.168-0.732,0.624-0.732c0.132,0,0.3,0.012,0.433,0.023v-0.946
			c-0.168-0.013-0.324-0.024-0.48-0.024c-1.031,0-1.631,0.432-1.631,1.379v1.081h-0.863v0.875h0.863v5.4h1.055v-5.4H466.904z"/>
		<path clip-path="url(#SVGID_4_)" fill="#58595B" d="M523.445,288.202c0-0.312-0.155-1.967-2.399-1.967
			c-1.236,0-2.375,0.623-2.375,2.003c0,0.864,0.575,1.308,1.451,1.524l1.225,0.3c0.9,0.228,1.248,0.396,1.248,0.9
			c0,0.696-0.684,0.996-1.441,0.996c-1.487,0-1.632-0.792-1.668-1.283h-1.019c0.036,0.756,0.216,2.194,2.7,2.194
			c1.416,0,2.482-0.778,2.482-2.075c0-0.853-0.456-1.333-1.763-1.656l-1.057-0.265c-0.816-0.204-1.141-0.323-1.141-0.84
			c0-0.78,0.924-0.888,1.248-0.888c1.333,0,1.478,0.66,1.489,1.056H523.445z M517.302,288.418c0-1.788-1.223-2.183-2.195-2.183
			c-1.081,0-1.669,0.731-1.896,1.067h-0.024v-0.888h-0.995v6.275h1.056v-3.42c0-1.704,1.056-2.089,1.656-2.089
			c1.032,0,1.345,0.553,1.345,1.645v3.864h1.055V288.418z M506.25,289.546c0-0.84,0.312-2.399,1.823-2.399
			c1.514,0,1.825,1.56,1.825,2.399c0,0.842-0.312,2.401-1.825,2.401C506.562,291.947,506.25,290.388,506.25,289.546
			 M505.158,289.546c0,1.621,0.911,3.313,2.915,3.313c2.006,0,2.916-1.691,2.916-3.313c0-1.619-0.91-3.311-2.916-3.311
			C506.069,286.235,505.158,287.927,505.158,289.546 M503.934,284.075h-1.055v1.199h1.055V284.075z M503.934,286.415h-1.055v6.275
			h1.055V286.415z M501.438,288.202c0-0.312-0.156-1.967-2.398-1.967c-1.237,0-2.376,0.623-2.376,2.003
			c0,0.864,0.575,1.308,1.45,1.524l1.226,0.3c0.899,0.228,1.248,0.396,1.248,0.9c0,0.696-0.685,0.996-1.44,0.996
			c-1.489,0-1.633-0.792-1.669-1.283h-1.019c0.036,0.756,0.216,2.194,2.699,2.194c1.416,0,2.483-0.778,2.483-2.075
			c0-0.853-0.455-1.333-1.763-1.656l-1.058-0.265c-0.815-0.204-1.14-0.323-1.14-0.84c0-0.78,0.924-0.888,1.249-0.888
			c1.332,0,1.476,0.66,1.488,1.056H501.438z M495.438,288.202c0-0.312-0.156-1.967-2.398-1.967c-1.237,0-2.376,0.623-2.376,2.003
			c0,0.864,0.575,1.308,1.45,1.524l1.226,0.3c0.899,0.228,1.248,0.396,1.248,0.9c0,0.696-0.685,0.996-1.44,0.996
			c-1.489,0-1.633-0.792-1.669-1.283h-1.019c0.036,0.756,0.216,2.194,2.699,2.194c1.416,0,2.483-0.778,2.483-2.075
			c0-0.853-0.455-1.333-1.763-1.656l-1.058-0.265c-0.815-0.204-1.14-0.323-1.14-0.84c0-0.78,0.924-0.888,1.249-0.888
			c1.332,0,1.476,0.66,1.488,1.056H495.438z M489.27,284.075h-1.055v1.199h1.055V284.075z M489.27,286.415h-1.055v6.275h1.055
			V286.415z M478.195,292.69h1.055v-3.421c0-1.703,1.057-2.088,1.656-2.088c0.781,0,0.985,0.637,0.985,1.165v4.344h1.054v-3.828
			c0-0.84,0.59-1.681,1.478-1.681c0.9,0,1.165,0.588,1.165,1.453v4.056h1.054v-4.344c0-1.765-1.27-2.111-1.943-2.111
			c-0.972,0-1.393,0.431-1.921,1.019c-0.179-0.336-0.539-1.019-1.667-1.019s-1.669,0.731-1.896,1.067h-0.024v-0.888h-0.994V292.69z
			 M472.254,289.534c0-0.804,0.084-2.353,1.717-2.353c1.525,0,1.693,1.645,1.693,2.665c0,1.669-1.045,2.112-1.718,2.112
			C472.794,291.959,472.254,290.915,472.254,289.534 M476.729,284.075h-1.054v3.143l-0.024,0.085
			c-0.252-0.36-0.732-1.067-1.873-1.067c-1.669,0-2.614,1.367-2.614,3.131c0,1.501,0.623,3.504,2.759,3.504
			c0.612,0,1.333-0.191,1.789-1.043h0.023v0.863h0.994V284.075z M468.68,290.52c0,0.84-0.961,1.476-1.945,1.476
			c-0.793,0-1.141-0.408-1.141-1.092c0-0.793,0.829-0.949,1.345-1.021c1.309-0.168,1.573-0.264,1.741-0.396V290.52z
			 M465.786,288.322c0.071-0.479,0.239-1.212,1.44-1.212c0.996,0,1.478,0.36,1.478,1.02c0,0.624-0.301,0.721-0.554,0.744
			l-1.739,0.216c-1.753,0.217-1.907,1.441-1.907,1.97c0,1.08,0.814,1.811,1.967,1.811c1.224,0,1.861-0.576,2.269-1.019
			c0.036,0.479,0.18,0.959,1.114,0.959c0.24,0,0.396-0.072,0.576-0.12v-0.768c-0.12,0.024-0.252,0.049-0.348,0.049
			c-0.217,0-0.349-0.108-0.349-0.372v-3.613c0-1.607-1.822-1.751-2.327-1.751c-1.549,0-2.544,0.587-2.592,2.087H465.786z
			 M460.481,287.29v-0.875h-1.008v-1.752h-1.054v1.752h-0.853v0.875h0.853v4.142c0,0.755,0.227,1.343,1.27,1.343
			c0.108,0,0.408-0.048,0.792-0.084v-0.827h-0.372c-0.216,0-0.636,0-0.636-0.492v-4.081H460.481z M456.618,288.418
			c0-1.788-1.223-2.183-2.195-2.183c-1.08,0-1.669,0.731-1.897,1.067h-0.023v-0.888h-0.994v6.275h1.054v-3.42
			c0-1.704,1.058-2.089,1.657-2.089c1.033,0,1.345,0.553,1.345,1.645v3.864h1.055V288.418z M445.662,289.056
			c0-0.974,0.769-1.874,1.74-1.874c1.284,0,1.693,0.9,1.753,1.874H445.662z M449.107,290.723c-0.036,0.468-0.625,1.236-1.621,1.236
			c-1.213,0-1.824-0.757-1.824-2.064h4.584c0-2.221-0.888-3.659-2.699-3.659c-2.077,0-3.011,1.547-3.011,3.491
			c0,1.813,1.042,3.144,2.807,3.144c1.008,0,1.417-0.24,1.705-0.432c0.791-0.527,1.078-1.416,1.114-1.716H449.107z M443.37,286.415
			h-0.994v0.888h-0.024c-0.252-0.36-0.732-1.067-1.873-1.067c-1.669,0-2.615,1.367-2.615,3.131c0,1.501,0.623,3.504,2.76,3.504
			c0.84,0,1.393-0.396,1.669-0.839v-0.048h0.023v0.264c0,0.743,0.036,2.208-1.789,2.208c-0.252,0-1.225,0-1.417-0.997h-1.055
			c0.204,1.668,1.656,1.872,2.4,1.872c2.902,0,2.915-2.256,2.915-3.154V286.415z M438.954,289.534c0-0.804,0.084-2.353,1.717-2.353
			c1.524,0,1.692,1.645,1.692,2.665c0,1.669-1.045,2.112-1.717,2.112C439.494,291.959,438.954,290.915,438.954,289.534
			 M435.605,289.042c0-0.913,0.624-1.68,1.608-1.68h0.396v-1.091c-0.084-0.024-0.144-0.036-0.275-0.036
			c-0.792,0-1.345,0.491-1.765,1.223h-0.023v-1.043h-0.994v6.275h1.054V289.042z M432.821,292.69v-6.275h-1.054v3.456
			c0,0.912-0.396,2.088-1.729,2.088c-0.686,0-1.213-0.348-1.213-1.38v-4.164h-1.055v4.513c0,1.499,1.114,1.942,2.039,1.942
			c1.008,0,1.548-0.384,1.993-1.115l0.024,0.024v0.911H432.821z M422.838,288.418c0-1.788-1.223-2.183-2.195-2.183
			c-1.08,0-1.669,0.731-1.896,1.067h-0.024v-0.888h-0.994v6.275h1.054v-3.42c0-1.704,1.058-2.089,1.657-2.089
			c1.033,0,1.345,0.553,1.345,1.645v3.864h1.055V288.418z M416.142,284.075h-1.055v1.199h1.055V284.075z M416.142,286.415h-1.055
			v6.275h1.055V286.415z M405.882,289.056c0-0.974,0.769-1.874,1.741-1.874c1.284,0,1.692,0.9,1.753,1.874H405.882z
			 M409.328,290.723c-0.036,0.468-0.624,1.236-1.621,1.236c-1.212,0-1.825-0.757-1.825-2.064h4.584c0-2.221-0.886-3.659-2.699-3.659
			c-2.076,0-3.011,1.547-3.011,3.491c0,1.813,1.042,3.144,2.807,3.144c1.008,0,1.417-0.24,1.705-0.432
			c0.791-0.527,1.079-1.416,1.114-1.716H409.328z M403.639,288.202c0-0.312-0.156-1.967-2.4-1.967c-1.236,0-2.375,0.623-2.375,2.003
			c0,0.864,0.575,1.308,1.451,1.524l1.225,0.3c0.9,0.228,1.249,0.396,1.249,0.9c0,0.696-0.685,0.996-1.441,0.996
			c-1.489,0-1.632-0.792-1.668-1.283h-1.019c0.035,0.756,0.216,2.194,2.698,2.194c1.417,0,2.483-0.778,2.483-2.075
			c0-0.853-0.455-1.333-1.763-1.656l-1.057-0.265c-0.815-0.204-1.141-0.323-1.141-0.84c0-0.78,0.925-0.888,1.249-0.888
			c1.333,0,1.477,0.66,1.489,1.056H403.639z M396.498,289.042c0-0.913,0.624-1.68,1.607-1.68h0.396v-1.091
			c-0.084-0.024-0.145-0.036-0.276-0.036c-0.792,0-1.344,0.491-1.764,1.223h-0.024v-1.043h-0.994v6.275h1.055V289.042z
			 M393.714,292.69v-6.275h-1.054v3.456c0,0.912-0.396,2.088-1.729,2.088c-0.684,0-1.213-0.348-1.213-1.38v-4.164h-1.054v4.513
			c0,1.499,1.113,1.942,2.039,1.942c1.008,0,1.549-0.384,1.992-1.115l0.024,0.024v0.911H393.714z M385.808,291.035h-0.024
			l-4.309-6.96h-1.379v8.615h1.126v-6.96h0.025l4.381,6.96h1.306v-8.615h-1.126V291.035z"/>
	</g>
	<text transform="matrix(1 0 0 1 523.6494 292.6904)" fill="#58595B" font-family="'HelveticaLTStd-Roman'" font-size="12"> </text>
	<g>
		<defs>
			<rect id="SVGID_5_" width="595.276" height="368.504"/>
		</defs>
		<clipPath id="SVGID_6_">
			<use xlink:href="#SVGID_5_"  overflow="visible"/>
		</clipPath>
		<path clip-path="url(#SVGID_6_)" fill="#58595B" d="M450.69,303.155l2.4-2.34h-1.345l-2.699,2.651v-4.991h-1.02v8.614h1.02v-2.376
			l0.875-0.792l1.956,3.168h1.356L450.69,303.155z M445.159,304.919c0,0.84-0.96,1.477-1.943,1.477
			c-0.794,0-1.142-0.408-1.142-1.093c0-0.792,0.828-0.948,1.345-1.021c1.309-0.168,1.572-0.264,1.74-0.396V304.919z
			 M442.267,302.723c0.071-0.48,0.24-1.213,1.44-1.213c0.996,0,1.477,0.36,1.477,1.021c0,0.624-0.3,0.72-0.552,0.744l-1.741,0.216
			c-1.751,0.216-1.907,1.441-1.907,1.969c0,1.08,0.815,1.812,1.967,1.812c1.226,0,1.861-0.575,2.27-1.02
			c0.036,0.479,0.18,0.959,1.114,0.959c0.24,0,0.396-0.071,0.576-0.12v-0.767c-0.12,0.024-0.252,0.048-0.348,0.048
			c-0.216,0-0.348-0.107-0.348-0.372v-3.613c0-1.606-1.823-1.751-2.327-1.751c-1.55,0-2.544,0.588-2.593,2.088H442.267z
			 M435.486,303.455c0-0.973,0.768-1.873,1.741-1.873c1.284,0,1.691,0.9,1.752,1.873H435.486z M438.932,305.122
			c-0.036,0.469-0.624,1.237-1.62,1.237c-1.213,0-1.825-0.756-1.825-2.065h4.584c0-2.22-0.887-3.659-2.699-3.659
			c-2.077,0-3.012,1.548-3.012,3.491c0,1.813,1.043,3.145,2.808,3.145c1.009,0,1.416-0.24,1.704-0.433
			c0.792-0.526,1.079-1.416,1.115-1.716H438.932z M432.103,303.442c0-0.912,0.624-1.681,1.607-1.681h0.396v-1.091
			c-0.084-0.023-0.145-0.036-0.276-0.036c-0.792,0-1.344,0.491-1.764,1.224h-0.024v-1.043h-0.995v6.274h1.056V303.442z
			 M428.563,303.935c0,1.381-0.54,2.425-1.692,2.425c-0.673,0-1.717-0.444-1.717-2.113c0-1.02,0.168-2.664,1.693-2.664
			C428.479,301.582,428.563,303.13,428.563,303.935 M425.143,307.09v-0.778h0.023c0.217,0.348,0.66,0.959,1.729,0.959
			c2.136,0,2.759-2.003,2.759-3.504c0-1.765-0.947-3.132-2.615-3.132c-0.732,0.013-1.356,0.313-1.813,0.972h-0.024v-3.131h-1.055
			v8.614H425.143z M419.334,302.818c0-1.788-1.223-2.184-2.194-2.184c-1.081,0-1.669,0.731-1.897,1.067h-0.023v-0.887h-0.995v6.274
			h1.055v-3.42c0-1.704,1.056-2.088,1.657-2.088c1.032,0,1.344,0.552,1.344,1.645v3.863h1.055V302.818z M408.282,303.946
			c0-0.84,0.313-2.4,1.825-2.4c1.512,0,1.824,1.561,1.824,2.4c0,0.841-0.313,2.401-1.824,2.401
			C408.595,306.348,408.282,304.787,408.282,303.946 M407.191,303.946c0,1.621,0.911,3.312,2.916,3.312
			c2.004,0,2.915-1.69,2.915-3.312c0-1.62-0.911-3.312-2.915-3.312C408.103,300.635,407.191,302.326,407.191,303.946
			 M401.371,304.919c0,0.84-0.96,1.477-1.943,1.477c-0.793,0-1.142-0.408-1.142-1.093c0-0.792,0.828-0.948,1.346-1.021
			c1.308-0.168,1.571-0.264,1.739-0.396V304.919z M398.479,302.723c0.072-0.48,0.24-1.213,1.44-1.213
			c0.996,0,1.477,0.36,1.477,1.021c0,0.624-0.3,0.72-0.552,0.744l-1.741,0.216c-1.751,0.216-1.907,1.441-1.907,1.969
			c0,1.08,0.815,1.812,1.967,1.812c1.226,0,1.861-0.575,2.27-1.02c0.036,0.479,0.18,0.959,1.115,0.959
			c0.239,0,0.396-0.071,0.575-0.12v-0.767c-0.12,0.024-0.252,0.048-0.348,0.048c-0.216,0-0.348-0.107-0.348-0.372v-3.613
			c0-1.606-1.823-1.751-2.327-1.751c-1.549,0-2.544,0.588-2.592,2.088H398.479z M391.698,303.455c0-0.973,0.769-1.873,1.741-1.873
			c1.284,0,1.692,0.9,1.752,1.873H391.698z M395.144,305.122c-0.036,0.469-0.624,1.237-1.62,1.237c-1.213,0-1.825-0.756-1.825-2.065
			h4.584c0-2.22-0.887-3.659-2.699-3.659c-2.076,0-3.012,1.548-3.012,3.491c0,1.813,1.043,3.145,2.808,3.145
			c1.009,0,1.416-0.24,1.704-0.433c0.792-0.526,1.079-1.416,1.115-1.716H395.144z M388.314,303.442c0-0.912,0.624-1.681,1.607-1.681
			h0.396v-1.091c-0.084-0.023-0.144-0.036-0.276-0.036c-0.792,0-1.344,0.491-1.764,1.224h-0.024v-1.043h-0.994v6.274h1.055V303.442z
			 M384.271,304.919c0,0.84-0.96,1.477-1.945,1.477c-0.792,0-1.14-0.408-1.14-1.093c0-0.792,0.828-0.948,1.345-1.021
			c1.309-0.168,1.572-0.264,1.74-0.396V304.919z M381.378,302.723c0.072-0.48,0.24-1.213,1.441-1.213
			c0.996,0,1.476,0.36,1.476,1.021c0,0.624-0.3,0.72-0.552,0.744l-1.741,0.216c-1.751,0.216-1.906,1.441-1.906,1.969
			c0,1.08,0.814,1.812,1.967,1.812c1.225,0,1.861-0.575,2.269-1.02c0.036,0.479,0.181,0.959,1.115,0.959
			c0.24,0,0.396-0.071,0.576-0.12v-0.767c-0.12,0.024-0.252,0.048-0.348,0.048c-0.217,0-0.349-0.107-0.349-0.372v-3.613
			c0-1.606-1.823-1.751-2.327-1.751c-1.549,0-2.544,0.588-2.592,2.088H381.378z"/>
		<path clip-path="url(#SVGID_6_)" fill="#58595B" d="M458.318,350.391v-0.874h-1.008v-1.752h-1.055v1.752h-0.853v0.874h0.853v4.141
			c0,0.757,0.228,1.344,1.271,1.344c0.108,0,0.408-0.049,0.792-0.084v-0.826h-0.372c-0.216,0-0.636,0-0.636-0.493v-4.081H458.318z
			 M454.454,351.519c0-1.787-1.223-2.182-2.194-2.182c-1.081,0-1.669,0.729-1.897,1.065h-0.024v-0.886h-0.994v6.274h1.055v-3.419
			c0-1.705,1.056-2.09,1.657-2.09c1.031,0,1.344,0.553,1.344,1.645v3.864h1.055V351.519z M443.498,352.156
			c0-0.973,0.769-1.874,1.741-1.874c1.284,0,1.692,0.901,1.752,1.874H443.498z M446.943,353.823
			c-0.036,0.469-0.624,1.237-1.62,1.237c-1.213,0-1.825-0.757-1.825-2.066h4.584c0-2.22-0.887-3.657-2.698-3.657
			c-2.077,0-3.013,1.546-3.013,3.489c0,1.813,1.043,3.145,2.809,3.145c1.008,0,1.416-0.24,1.704-0.431
			c0.792-0.528,1.078-1.416,1.114-1.717H446.943z M441.086,347.176h-1.055v1.199h1.055V347.176z M441.086,349.517h-1.055v6.275
			h1.055V349.517z M438.975,350.391v-0.874h-1.008v-1.752h-1.055v1.752h-0.852v0.874h0.852v4.141c0,0.757,0.228,1.344,1.271,1.344
			c0.107,0,0.408-0.049,0.792-0.084v-0.826h-0.372c-0.216,0-0.636,0-0.636-0.493v-4.081H438.975z M433.828,353.619
			c0,0.841-0.961,1.478-1.944,1.478c-0.793,0-1.142-0.409-1.142-1.093c0-0.792,0.829-0.948,1.345-1.021
			c1.309-0.168,1.573-0.264,1.741-0.396V353.619z M430.935,351.423c0.072-0.48,0.24-1.212,1.44-1.212
			c0.996,0,1.478,0.359,1.478,1.02c0,0.625-0.3,0.721-0.553,0.745l-1.74,0.216c-1.752,0.216-1.907,1.44-1.907,1.968
			c0,1.08,0.815,1.812,1.967,1.812c1.225,0,1.86-0.575,2.27-1.02c0.036,0.48,0.179,0.959,1.113,0.959
			c0.24,0,0.396-0.071,0.576-0.119v-0.768c-0.12,0.024-0.252,0.049-0.348,0.049c-0.216,0-0.348-0.108-0.348-0.373v-3.612
			c0-1.607-1.823-1.75-2.327-1.75c-1.549,0-2.544,0.586-2.593,2.086H430.935z M423.244,358.274h1.055v-3.143h0.023
			c0.276,0.443,0.829,0.839,1.669,0.839c2.136,0,2.759-2.003,2.759-3.503c0-1.766-0.946-3.131-2.614-3.131
			c-1.142,0-1.621,0.706-1.873,1.065h-0.024v-0.886h-0.994V358.274z M424.25,352.947c0-1.02,0.168-2.665,1.693-2.665
			c1.633,0,1.717,1.549,1.717,2.354c0,1.38-0.541,2.425-1.692,2.425C425.295,355.061,424.25,354.615,424.25,352.947
			 M417.194,352.143c0-0.912,0.624-1.68,1.608-1.68h0.396v-1.091c-0.084-0.024-0.144-0.035-0.275-0.035
			c-0.792,0-1.345,0.49-1.765,1.222h-0.023v-1.042h-0.994v6.274h1.054V352.143z M410.15,352.156c0-0.973,0.769-1.874,1.741-1.874
			c1.285,0,1.692,0.901,1.753,1.874H410.15z M413.597,353.823c-0.036,0.469-0.625,1.237-1.621,1.237
			c-1.213,0-1.825-0.757-1.825-2.066h4.584c0-2.22-0.887-3.657-2.699-3.657c-2.077,0-3.011,1.546-3.011,3.489
			c0,1.813,1.042,3.145,2.807,3.145c1.009,0,1.417-0.24,1.705-0.431c0.791-0.528,1.078-1.416,1.114-1.717H413.597z M407.763,351.519
			c0-1.787-1.223-2.182-2.195-2.182c-1.008,0-1.537,0.623-1.837,1.018h-0.024v-3.179h-1.054v8.615h1.054v-3.42
			c0-1.585,0.89-2.089,1.753-2.089c1.01,0,1.249,0.553,1.249,1.404v4.104h1.055V351.519z M401.618,350.391v-0.874h-1.008v-1.752
			h-1.054v1.752h-0.853v0.874h0.853v4.141c0,0.757,0.227,1.344,1.27,1.344c0.108,0,0.408-0.049,0.792-0.084v-0.826h-0.372
			c-0.216,0-0.636,0-0.636-0.493v-4.081H401.618z M393.374,352.647c0-0.84,0.313-2.4,1.825-2.4s1.825,1.561,1.825,2.4
			s-0.313,2.401-1.825,2.401S393.374,353.487,393.374,352.647 M392.284,352.647c0,1.62,0.91,3.312,2.915,3.312
			s2.915-1.691,2.915-3.312c0-1.621-0.91-3.311-2.915-3.311S392.284,351.026,392.284,352.647 M391.082,351.519
			c0-1.787-1.222-2.182-2.194-2.182c-1.08,0-1.669,0.729-1.897,1.065h-0.023v-0.886h-0.994v6.274h1.054v-3.419
			c0-1.705,1.057-2.09,1.657-2.09c1.033,0,1.345,0.553,1.345,1.645v3.864h1.054V351.519z M383.128,353.619
			c0,0.841-0.961,1.478-1.944,1.478c-0.793,0-1.142-0.409-1.142-1.093c0-0.792,0.829-0.948,1.346-1.021
			c1.309-0.168,1.572-0.264,1.74-0.396V353.619z M380.234,351.423c0.072-0.48,0.24-1.212,1.441-1.212
			c0.996,0,1.477,0.359,1.477,1.02c0,0.625-0.3,0.721-0.553,0.745l-1.74,0.216c-1.751,0.216-1.907,1.44-1.907,1.968
			c0,1.08,0.815,1.812,1.967,1.812c1.225,0,1.861-0.575,2.27-1.02c0.036,0.48,0.179,0.959,1.114,0.959
			c0.239,0,0.396-0.071,0.575-0.119v-0.768c-0.119,0.024-0.252,0.049-0.348,0.049c-0.216,0-0.348-0.108-0.348-0.373v-3.612
			c0-1.607-1.823-1.75-2.327-1.75c-1.549,0-2.544,0.586-2.592,2.086H380.234z M374.402,351.519c0-1.787-1.222-2.182-2.195-2.182
			c-1.008,0-1.537,0.623-1.837,1.018h-0.023v-3.179h-1.055v8.615h1.055v-3.42c0-1.585,0.889-2.089,1.753-2.089
			c1.009,0,1.249,0.553,1.249,1.404v4.104h1.054V351.519z M368.259,350.391v-0.874h-1.009v-1.752h-1.054v1.752h-0.852v0.874h0.852
			v4.141c0,0.757,0.228,1.344,1.271,1.344c0.107,0,0.407-0.049,0.792-0.084v-0.826h-0.372c-0.217,0-0.637,0-0.637-0.493v-4.081
			H368.259z M364.37,347.176h-1.055v1.199h1.055V347.176z M364.37,349.517h-1.055v6.275h1.055V349.517z M358.144,350.931h0.023
			l1.272,4.86h1.092l1.824-6.274H361.3l-1.272,4.932h-0.024l-1.224-4.932h-1.176l-1.211,4.932h-0.024l-1.2-4.932h-1.151l1.812,6.274
			h1.092L358.144,350.931z M347.535,354.629h-0.023l-1.667-5.112h-1.2l2.328,6.444c-0.504,1.295-0.564,1.452-1.116,1.452
			c-0.288,0-0.504-0.061-0.636-0.108v0.97c0.168,0.036,0.288,0.084,0.443,0.084c1.355,0,1.463-0.144,2.459-2.686
			c0.805-2.054,1.524-4.104,2.256-6.156h-1.163L347.535,354.629z M344.115,351.303c0-0.313-0.156-1.966-2.399-1.966
			c-1.236,0-2.375,0.622-2.375,2.002c0,0.864,0.574,1.309,1.45,1.524l1.225,0.301c0.9,0.228,1.249,0.396,1.249,0.899
			c0,0.696-0.685,0.997-1.441,0.997c-1.488,0-1.632-0.793-1.668-1.285h-1.019c0.035,0.756,0.216,2.195,2.698,2.195
			c1.417,0,2.483-0.779,2.483-2.075c0-0.852-0.455-1.332-1.762-1.656l-1.058-0.264c-0.815-0.205-1.141-0.325-1.141-0.841
			c0-0.78,0.925-0.888,1.249-0.888c1.333,0,1.477,0.659,1.489,1.056H344.115z M337.946,355.791v-6.274h-1.054v3.456
			c0,0.912-0.396,2.088-1.729,2.088c-0.684,0-1.213-0.348-1.213-1.38v-4.164h-1.054v4.512c0,1.499,1.115,1.942,2.039,1.942
			c1.008,0,1.549-0.383,1.993-1.114l0.023,0.024v0.91H337.946z M330.761,352.635c0,1.381-0.54,2.426-1.693,2.426
			c-0.672,0-1.717-0.445-1.717-2.113c0-1.02,0.168-2.665,1.692-2.665C330.677,350.282,330.761,351.831,330.761,352.635
			 M327.338,355.791v-0.779h0.024c0.216,0.348,0.661,0.959,1.729,0.959c2.136,0,2.759-2.003,2.759-3.503
			c0-1.766-0.946-3.131-2.615-3.131c-0.732,0.011-1.356,0.311-1.813,0.97h-0.023v-3.131h-1.054v8.615H327.338z M320.294,352.143
			c0-0.912,0.624-1.68,1.608-1.68h0.396v-1.091c-0.084-0.024-0.145-0.035-0.276-0.035c-0.792,0-1.344,0.49-1.764,1.222h-0.023
			v-1.042h-0.995v6.274h1.054V352.143z M313.154,352.647c0-0.84,0.313-2.4,1.825-2.4c1.513,0,1.825,1.561,1.825,2.4
			s-0.313,2.401-1.825,2.401C313.468,355.049,313.154,353.487,313.154,352.647 M312.064,352.647c0,1.62,0.911,3.312,2.915,3.312
			c2.005,0,2.915-1.691,2.915-3.312c0-1.621-0.91-3.311-2.915-3.311C312.976,349.337,312.064,351.026,312.064,352.647
			 M311.631,350.391v-0.874h-1.009v-1.752h-1.054v1.752h-0.852v0.874h0.852v4.141c0,0.757,0.227,1.344,1.27,1.344
			c0.108,0,0.408-0.049,0.793-0.084v-0.826h-0.372c-0.217,0-0.637,0-0.637-0.493v-4.081H311.631z M308.271,351.627
			c-0.084-1.093-0.708-2.29-2.353-2.29c-2.074,0-3.01,1.546-3.01,3.49c0,1.813,1.042,3.144,2.807,3.144
			c1.836,0,2.447-1.403,2.556-2.399h-1.021c-0.18,0.96-0.792,1.489-1.5,1.489c-1.451,0-1.716-1.333-1.716-2.413
			c0-1.117,0.42-2.365,1.729-2.365c0.888,0,1.355,0.504,1.487,1.345H308.271z M297.387,352.647c0-0.84,0.312-2.4,1.824-2.4
			c1.514,0,1.825,1.561,1.825,2.4s-0.312,2.401-1.825,2.401C297.698,355.049,297.387,353.487,297.387,352.647 M296.296,352.647
			c0,1.62,0.911,3.312,2.915,3.312c2.006,0,2.915-1.691,2.915-3.312c0-1.621-0.909-3.311-2.915-3.311
			C297.207,349.337,296.296,351.026,296.296,352.647 M289.347,348.171h2.172c1.585,0,2.581,1.092,2.581,3.265
			c0,2.172-0.984,3.361-2.497,3.361h-2.256V348.171z M288.185,355.791h3.443c2.833,0,3.672-2.495,3.672-4.428
			c0-2.484-1.379-4.188-3.624-4.188h-3.491V355.791z"/>
	</g>
	
		<line fill="none" stroke="#58595B" stroke-width="2" stroke-linecap="round" stroke-linejoin="round" stroke-dasharray="0,3.929" x1="281.746" y1="288.003" x2="281.746" y2="352.826"/>
	<path fill="none" stroke="#58595B" stroke-width="2" stroke-linecap="round" stroke-linejoin="round" d="M281.746,354.791
		L281.746,354.791 M281.746,284.074L281.746,284.074"/>
	
		<line fill="none" stroke="#58595B" stroke-width="2" stroke-linecap="round" stroke-linejoin="round" stroke-dasharray="0,3.917" x1="376.559" y1="235.578" x2="376.559" y2="304.132"/>
	<path fill="none" stroke="#58595B" stroke-width="2" stroke-linecap="round" stroke-linejoin="round" d="M376.559,306.091
		L376.559,306.091 M376.559,231.661L376.559,231.661"/>
	
		<line fill="none" stroke="#58595B" stroke-width="2" stroke-linecap="round" stroke-linejoin="round" stroke-dasharray="0,3.993" x1="459.015" y1="189.409" x2="459.015" y2="255.302"/>
	<path fill="none" stroke="#58595B" stroke-width="2" stroke-linecap="round" stroke-linejoin="round" d="M459.015,257.299
		L459.015,257.299 M459.015,185.416L459.015,185.416"/>
	<g>
		<defs>
			<rect id="SVGID_7_" width="595.276" height="368.504"/>
		</defs>
		<clipPath id="SVGID_8_">
			<use xlink:href="#SVGID_7_"  overflow="visible"/>
		</clipPath>
		<path clip-path="url(#SVGID_8_)" fill="#9D9FA2" d="M477.564,148.1c0,3.638-2.903,6.586-6.482,6.586
			c-3.58,0-6.482-2.948-6.482-6.586c0-3.637,2.902-6.586,6.482-6.586C474.661,141.514,477.564,144.463,477.564,148.1
			 M444.673,114.985c0,7.956-6.448,14.405-14.403,14.405c-7.956,0-14.405-6.449-14.405-14.405c0-7.955,6.449-14.404,14.405-14.404
			C438.225,100.581,444.673,107.03,444.673,114.985 M431.109,72.792c0,4.541-3.683,8.222-8.224,8.222s-8.222-3.681-8.222-8.222
			s3.681-8.222,8.222-8.222S431.109,68.251,431.109,72.792 M415.145,154.958c0-5.768,4.675-10.444,10.442-10.444
			c5.769,0,10.443,4.676,10.443,10.444c0,5.768-4.675,10.443-10.443,10.443C419.819,165.401,415.145,160.726,415.145,154.958
			 M395.938,119.787c0,3.977-3.226,7.202-7.203,7.202s-7.202-3.225-7.202-7.202c0-3.978,3.225-7.202,7.202-7.202
			S395.938,115.809,395.938,119.787 M501.091,164.801l-5.018-12.909c0,0-3.608,1.362-5.209-2.756s2.093-5.26,2.093-5.26
			s-27.111-69.397-33.879-85.549c-9.975-23.802-22.327-45.614-22.327-45.614h-10.707c0,0,8.307,17.285,3.265,23.768
			c-5.438,6.991-12.244,2.4-12.244,2.4s-10.769,15.632-17.525,25.928c-17.436,26.57-43.094,71.183-43.094,71.183
			s21.007,33.01,64.701,45.014C471.486,190.926,501.091,164.801,501.091,164.801"/>
		<path clip-path="url(#SVGID_8_)" fill="#414042" d="M500.693,164.801h-72.042c-0.653,0.23-1.339,0.392-2.044,0.491v3.95h-25.208
			v-4.441h-15.674c9.39,6.372,21.043,12.364,35.023,16.205C471.075,190.922,500.677,164.816,500.693,164.801"/>
		<path clip-path="url(#SVGID_8_)" fill="#BCBEC0" d="M466.461,148.1c0,3.638-2.903,6.586-6.482,6.586
			c-3.58,0-6.482-2.948-6.482-6.586c0-3.637,2.902-6.586,6.482-6.586C463.558,141.514,466.461,144.463,466.461,148.1
			 M433.569,114.985c0,7.956-6.448,14.405-14.403,14.405c-7.956,0-14.405-6.449-14.405-14.405c0-7.955,6.449-14.404,14.405-14.404
			C427.121,100.581,433.569,107.03,433.569,114.985 M420.006,72.792c0,4.541-3.683,8.222-8.224,8.222
			c-4.54,0-8.222-3.681-8.222-8.222s3.682-8.222,8.222-8.222C416.323,64.57,420.006,68.251,420.006,72.792 M404.041,154.958
			c0-5.768,4.675-10.444,10.442-10.444c5.769,0,10.443,4.676,10.443,10.444c0,5.768-4.675,10.443-10.443,10.443
			C408.716,165.401,404.041,160.726,404.041,154.958 M384.835,119.787c0,3.977-3.226,7.202-7.203,7.202s-7.202-3.225-7.202-7.202
			c0-3.978,3.225-7.202,7.202-7.202S384.835,115.809,384.835,119.787 M489.987,164.801l-24.089-61.514c0,0-3.6-2.971-5.92-9.008
			s-1.757-10.597-1.757-10.597s-7.853-19.642-10.247-25.355C438,34.525,425.647,12.713,425.647,12.713l-9.844,10.803
			c0,0,7.443,6.482,2.401,12.965c-5.438,6.991-12.244,2.4-12.244,2.4s-10.769,15.632-17.525,25.928
			c-17.436,26.57-43.094,71.183-43.094,71.183s21.007,33.01,64.701,45.014C460.383,190.926,489.987,164.801,489.987,164.801"/>
		<path clip-path="url(#SVGID_8_)" fill="#DCDDDE" d="M466.461,148.1c0,3.638-2.903,6.586-6.482,6.586
			c-3.58,0-6.482-2.948-6.482-6.586c0-3.637,2.902-6.586,6.482-6.586C463.558,141.514,466.461,144.463,466.461,148.1
			 M433.569,114.985c0,7.956-6.448,14.405-14.403,14.405c-7.956,0-14.405-6.449-14.405-14.405c0-7.955,6.449-14.404,14.405-14.404
			C427.121,100.581,433.569,107.03,433.569,114.985 M420.006,72.792c0,4.541-3.683,8.222-8.224,8.222
			c-4.54,0-8.222-3.681-8.222-8.222s3.682-8.222,8.222-8.222C416.323,64.57,420.006,68.251,420.006,72.792 M404.041,154.958
			c0-5.768,4.675-10.444,10.442-10.444c5.769,0,10.443,4.676,10.443,10.444c0,5.768-4.675,10.443-10.443,10.443
			C408.716,165.401,404.041,160.726,404.041,154.958 M384.835,119.787c0,3.977-3.226,7.202-7.203,7.202s-7.202-3.225-7.202-7.202
			c0-3.978,3.225-7.202,7.202-7.202S384.835,115.809,384.835,119.787 M489.987,164.801l-24.089-61.514c0,0-7.502-1.471-9.821-7.508
			c-2.32-6.037,2.145-12.097,2.145-12.097s-7.853-19.642-10.247-25.355C438,34.525,425.647,12.713,425.647,12.713l-9.844,10.803
			c0,0,7.443,6.482,2.401,12.965c-5.438,6.991-12.244,2.4-12.244,2.4s-10.769,15.632-17.525,25.928
			c-17.436,26.57-43.094,71.183-43.094,71.183s21.007,33.01,64.701,45.014C460.383,190.926,489.987,164.801,489.987,164.801"/>
		<path clip-path="url(#SVGID_8_)" fill="#DCDDDE" d="M388.604,188.12c0,4.142-3.304,7.499-7.38,7.499s-7.38-3.357-7.38-7.499
			s3.304-7.499,7.38-7.499S388.604,183.979,388.604,188.12 M351.156,150.417c0,9.058-7.343,16.401-16.399,16.401
			c-9.059,0-16.401-7.343-16.401-16.401c0-9.058,7.343-16.401,16.401-16.401C343.813,134.016,351.156,141.359,351.156,150.417
			 M335.713,102.377c0,5.171-4.191,9.362-9.362,9.362c-5.17,0-9.362-4.191-9.362-9.362c0-5.171,4.192-9.362,9.362-9.362
			C331.521,93.015,335.713,97.206,335.713,102.377 M317.535,195.929c0-6.567,5.323-11.891,11.891-11.891
			c6.566,0,11.891,5.324,11.891,11.891s-5.324,11.89-11.891,11.89C322.858,207.818,317.535,202.496,317.535,195.929
			 M295.667,155.884c0,4.529-3.671,8.2-8.2,8.2c-4.529,0-8.2-3.671-8.2-8.2c0-4.529,3.671-8.2,8.2-8.2
			C291.997,147.684,295.667,151.354,295.667,155.884 M415.393,207.136l-27.427-70.038c0,0-8.541-1.675-11.184-8.548
			c-2.641-6.873,2.442-13.773,2.442-13.773s-8.941-22.364-11.667-28.869c-11.357-27.102-25.421-51.935-25.421-51.935l-11.207,12.3
			c0,0,8.473,7.381,2.732,14.761c-6.19,7.96-13.939,2.733-13.939,2.733s-12.261,17.798-19.954,29.521
			c-19.853,30.252-49.066,81.047-49.066,81.047s23.918,37.585,73.667,51.252C381.686,236.881,415.393,207.136,415.393,207.136"/>
		<path clip-path="url(#SVGID_8_)" fill="#9D9FA2" d="M401.247,188.12c0,4.142-3.305,7.499-7.38,7.499
			c-4.076,0-7.381-3.357-7.381-7.499s3.305-7.499,7.381-7.499C397.942,180.622,401.247,183.979,401.247,188.12 M363.799,150.417
			c0,9.058-7.343,16.401-16.4,16.401s-16.4-7.343-16.4-16.401c0-9.058,7.343-16.401,16.4-16.401S363.799,141.359,363.799,150.417
			 M348.354,102.377c0,5.171-4.19,9.362-9.361,9.362c-5.17,0-9.362-4.191-9.362-9.362c0-5.171,4.192-9.362,9.362-9.362
			C344.164,93.015,348.354,97.206,348.354,102.377 M330.178,195.929c0-6.567,5.323-11.891,11.89-11.891
			c6.567,0,11.892,5.324,11.892,11.891s-5.324,11.89-11.892,11.89C335.501,207.818,330.178,202.496,330.178,195.929 M308.31,155.884
			c0,4.529-3.671,8.2-8.2,8.2c-4.529,0-8.2-3.671-8.2-8.2c0-4.529,3.671-8.2,8.2-8.2C304.639,147.684,308.31,151.354,308.31,155.884
			 M428.035,207.136l-5.715-14.698c0,0-4.106,1.551-5.93-3.138c-1.822-4.688,2.383-5.989,2.383-5.989s-30.867-79.013-38.573-97.403
			c-11.357-27.102-25.422-51.935-25.422-51.935h-12.19c0,0,9.457,19.681,3.717,27.061c-6.191,7.96-13.939,2.733-13.939,2.733
			s-12.262,17.798-19.954,29.521c-19.854,30.252-49.066,81.047-49.066,81.047s23.918,37.585,73.667,51.252
			C394.328,236.881,428.035,207.136,428.035,207.136"/>
		<path clip-path="url(#SVGID_8_)" fill="#414042" d="M427.582,207.136h-82.025c-0.745,0.263-1.523,0.446-2.326,0.56v4.498h-28.701
			v-5.058h-17.847c10.691,7.256,23.959,14.077,39.876,18.45C393.859,236.877,427.563,207.153,427.582,207.136"/>
		<path clip-path="url(#SVGID_8_)" fill="#BCBEC0" d="M388.604,188.12c0,4.142-3.304,7.499-7.38,7.499s-7.38-3.357-7.38-7.499
			s3.304-7.499,7.38-7.499S388.604,183.979,388.604,188.12 M351.156,150.417c0,9.058-7.343,16.401-16.399,16.401
			c-9.059,0-16.401-7.343-16.401-16.401c0-9.058,7.343-16.401,16.401-16.401C343.813,134.016,351.156,141.359,351.156,150.417
			 M335.713,102.377c0,5.171-4.191,9.362-9.362,9.362c-5.17,0-9.362-4.191-9.362-9.362c0-5.171,4.192-9.362,9.362-9.362
			C331.521,93.015,335.713,97.206,335.713,102.377 M317.535,195.929c0-6.567,5.323-11.891,11.891-11.891
			c6.566,0,11.891,5.324,11.891,11.891s-5.324,11.89-11.891,11.89C322.858,207.818,317.535,202.496,317.535,195.929
			 M295.667,155.884c0,4.529-3.671,8.2-8.2,8.2c-4.529,0-8.2-3.671-8.2-8.2c0-4.529,3.671-8.2,8.2-8.2
			C291.997,147.684,295.667,151.354,295.667,155.884 M415.393,207.136l-27.427-70.038c0,0-4.1-3.383-6.741-10.257
			c-2.641-6.873-2-12.064-2-12.064s-8.941-22.364-11.667-28.869c-11.357-27.102-25.421-51.935-25.421-51.935l-11.207,12.3
			c0,0,8.473,7.381,2.732,14.761c-6.19,7.96-13.939,2.733-13.939,2.733s-12.261,17.798-19.954,29.521
			c-19.853,30.252-49.066,81.047-49.066,81.047s23.918,37.585,73.667,51.252C381.686,236.881,415.393,207.136,415.393,207.136"/>
		<path clip-path="url(#SVGID_8_)" fill="#DCDDDE" d="M388.604,188.12c0,4.142-3.304,7.499-7.38,7.499s-7.38-3.357-7.38-7.499
			s3.304-7.499,7.38-7.499S388.604,183.979,388.604,188.12 M351.155,150.417c0,9.058-7.343,16.401-16.399,16.401
			c-9.059,0-16.401-7.343-16.401-16.401c0-9.058,7.343-16.401,16.401-16.401C343.813,134.016,351.155,141.359,351.155,150.417
			 M335.712,102.377c0,5.171-4.191,9.362-9.362,9.362c-5.17,0-9.362-4.191-9.362-9.362c0-5.171,4.192-9.362,9.362-9.362
			C331.521,93.015,335.712,97.206,335.712,102.377 M317.535,195.929c0-6.567,5.322-11.891,11.89-11.891
			c6.566,0,11.891,5.324,11.891,11.891s-5.324,11.89-11.891,11.89C322.857,207.818,317.535,202.496,317.535,195.929
			 M295.667,155.884c0,4.529-3.671,8.2-8.2,8.2c-4.529,0-8.2-3.671-8.2-8.2c0-4.529,3.671-8.2,8.2-8.2
			C291.996,147.684,295.667,151.354,295.667,155.884 M415.392,207.136l-27.427-70.038c0,0-8.541-1.675-11.184-8.548
			c-2.641-6.873,2.442-13.773,2.442-13.773s-8.941-22.364-11.667-28.869c-11.357-27.102-25.421-51.935-25.421-51.935l-11.207,12.3
			c0,0,8.473,7.381,2.733,14.761c-6.191,7.96-13.94,2.733-13.94,2.733s-12.261,17.798-19.954,29.521
			c-19.853,30.252-49.066,81.047-49.066,81.047s23.918,37.585,73.667,51.252C381.685,236.881,415.392,207.136,415.392,207.136"/>
		<path clip-path="url(#SVGID_8_)" fill="#9D9FA2" d="M316.499,234.841c0,4.597-3.668,8.323-8.192,8.323s-8.193-3.727-8.193-8.323
			s3.669-8.324,8.193-8.324S316.499,230.244,316.499,234.841 M274.931,192.989c0,10.055-8.15,18.205-18.204,18.205
			c-10.055,0-18.205-8.15-18.205-18.205c0-10.054,8.15-18.205,18.205-18.205C266.781,174.785,274.931,182.936,274.931,192.989
			 M257.789,139.666c0,5.739-4.653,10.391-10.392,10.391c-5.74,0-10.392-4.652-10.392-10.391c0-5.739,4.652-10.392,10.392-10.392
			C253.136,129.274,257.789,133.927,257.789,139.666 M237.612,243.508c0-7.289,5.909-13.198,13.198-13.198
			c7.289,0,13.198,5.909,13.198,13.198c0,7.29-5.909,13.198-13.198,13.198C243.521,256.706,237.612,250.798,237.612,243.508
			 M213.339,199.058c0,5.027-4.076,9.104-9.103,9.104s-9.102-4.076-9.102-9.104s4.075-9.102,9.102-9.102
			S213.339,194.03,213.339,199.058 M346.232,255.947l-6.342-16.314c0,0-4.559,1.722-6.582-3.482
			c-2.023-5.205,2.645-6.647,2.645-6.647s-34.264-87.705-42.817-108.118c-12.607-30.083-28.217-57.648-28.217-57.648h-13.532
			c0,0,10.498,21.845,4.126,30.038c-6.872,8.835-15.474,3.034-15.474,3.034s-13.61,19.755-22.149,32.768
			c-22.036,33.579-54.463,89.962-54.463,89.962s26.549,41.719,81.77,56.889C308.817,288.965,346.232,255.947,346.232,255.947"/>
		<path clip-path="url(#SVGID_8_)" fill="#414042" d="M345.73,255.947h-91.048c-0.826,0.291-1.692,0.495-2.583,0.621v4.992h-31.858
			v-5.613h-19.81c11.867,8.054,26.595,15.626,44.263,20.48C308.298,288.96,345.709,255.967,345.73,255.947"/>
		<path clip-path="url(#SVGID_8_)" fill="#BCBEC0" d="M302.466,234.841c0,4.597-3.668,8.323-8.192,8.323
			c-4.525,0-8.193-3.727-8.193-8.323s3.668-8.324,8.193-8.324C298.798,226.517,302.466,230.244,302.466,234.841 M260.898,192.989
			c0,10.055-8.15,18.205-18.204,18.205c-10.055,0-18.205-8.15-18.205-18.205c0-10.054,8.15-18.205,18.205-18.205
			C252.748,174.785,260.898,182.936,260.898,192.989 M243.756,139.666c0,5.739-4.653,10.391-10.392,10.391
			c-5.74,0-10.392-4.652-10.392-10.391c0-5.739,4.652-10.392,10.392-10.392C239.103,129.274,243.756,133.927,243.756,139.666
			 M223.579,243.508c0-7.289,5.909-13.198,13.198-13.198s13.198,5.909,13.198,13.198c0,7.29-5.909,13.198-13.198,13.198
			S223.579,250.798,223.579,243.508 M199.306,199.058c0,5.027-4.076,9.104-9.103,9.104c-5.027,0-9.102-4.076-9.102-9.104
			s4.075-9.102,9.102-9.102C195.23,189.956,199.306,194.03,199.306,199.058 M332.2,255.947l-30.444-77.742
			c0,0-4.55-3.756-7.482-11.385c-2.933-7.629-2.221-13.392-2.221-13.392s-9.924-24.824-12.95-32.044
			c-12.607-30.083-28.217-57.648-28.217-57.648l-12.44,13.653c0,0,9.406,8.192,3.034,16.385c-6.872,8.835-15.474,3.034-15.474,3.034
			s-13.61,19.755-22.149,32.768c-22.036,33.579-54.463,89.962-54.463,89.962s26.549,41.719,81.77,56.889
			C294.785,288.965,332.2,255.947,332.2,255.947"/>
		<path clip-path="url(#SVGID_8_)" fill="#DCDDDE" d="M302.466,234.841c0,4.597-3.668,8.323-8.192,8.323
			c-4.525,0-8.193-3.727-8.193-8.323s3.668-8.324,8.193-8.324C298.798,226.517,302.466,230.244,302.466,234.841 M260.898,192.989
			c0,10.055-8.15,18.205-18.204,18.205c-10.055,0-18.205-8.15-18.205-18.205c0-10.054,8.15-18.205,18.205-18.205
			C252.748,174.785,260.898,182.936,260.898,192.989 M243.756,139.666c0,5.739-4.653,10.391-10.392,10.391
			c-5.74,0-10.392-4.652-10.392-10.391c0-5.739,4.652-10.392,10.392-10.392C239.103,129.274,243.756,133.927,243.756,139.666
			 M223.579,243.508c0-7.289,5.909-13.198,13.198-13.198s13.198,5.909,13.198,13.198c0,7.29-5.909,13.198-13.198,13.198
			S223.579,250.798,223.579,243.508 M199.306,199.058c0,5.027-4.076,9.104-9.103,9.104c-5.027,0-9.102-4.076-9.102-9.104
			s4.075-9.102,9.102-9.102C195.23,189.956,199.306,194.03,199.306,199.058 M332.2,255.947l-30.444-77.742
			c0,0-9.481-1.86-12.413-9.489c-2.932-7.629,2.71-15.288,2.71-15.288s-9.924-24.824-12.95-32.044
			c-12.607-30.083-28.217-57.648-28.217-57.648l-12.44,13.653c0,0,9.406,8.192,3.034,16.385c-6.872,8.835-15.474,3.034-15.474,3.034
			s-13.61,19.755-22.149,32.768c-22.036,33.579-54.463,89.962-54.463,89.962s26.549,41.719,81.77,56.889
			C294.785,288.965,332.2,255.947,332.2,255.947"/>
		<path clip-path="url(#SVGID_8_)" fill="#414042" d="M474.238,96.206l24.734-11.22l-4.611-10.358l-24.436,10.676
			C471.327,88.839,472.777,92.508,474.238,96.206"/>
		<path clip-path="url(#SVGID_8_)" fill="#414042" d="M433.553,114.662c-0.1-4.491-2.25-8.466-5.556-11.04l-9.952,4.348
			l-24.654,10.771c1.548,3.91,3.141,7.942,4.739,11.99l11.318-5.134L433.553,114.662z"/>
		<path clip-path="url(#SVGID_8_)" fill="#414042" d="M351.156,150.417c0-4.365-1.717-8.321-4.497-11.26l-8.623,3.768
			l-30.827,13.468c1.703,4.296,3.458,8.737,5.226,13.211l12.837-5.824l25.801-11.703
			C351.127,151.531,351.156,150.978,351.156,150.417"/>
		<path clip-path="url(#SVGID_8_)" fill="#414042" d="M260.896,192.98c-0.002-5.443-2.406-10.314-6.195-13.649l-30.19,13.19v0.001
			l-26.849,11.729l0.001-0.001l-8.669,3.786l0.003,0.001l-36.431,15.915h-0.001l-30.314,13.244l-4.66-10.467l-28.257,34.433v-0.001
			v0.002l44.495,2.039l-0.001-0.001h0.001l-4.66-10.467l113.9-51.667v-0.001L260.896,192.98z"/>
	</g>
</g>
</svg>
