<?xml version="1.0" encoding="utf-8"?>
<!-- Generator: Adobe Illustrator 16.0.0, SVG Export Plug-In . SVG Version: 6.00 Build 0)  -->
<!DOCTYPE svg PUBLIC "-//W3C//DTD SVG 1.1//EN" "http://www.w3.org/Graphics/SVG/1.1/DTD/svg11.dtd">
<svg version="1.1" id="Layer_1" xmlns="http://www.w3.org/2000/svg" xmlns:xlink="http://www.w3.org/1999/xlink" x="0px" y="0px"
	 width="510.236px" height="283.465px" viewBox="0 0 510.236 283.465" enable-background="new 0 0 510.236 283.465"
	 xml:space="preserve">
<g>
	<polygon fill="#6D6E71" points="328.193,238.063 328.193,248.959 174.345,248.959 174.345,238.063 138.552,259.42 174.345,281.646 
		174.345,270.75 328.193,270.75 328.193,281.646 363.986,260.29 	"/>
	<polygon fill="#6D6E71" points="430.518,156.13 422.171,163.134 323.279,45.279 331.625,38.276 292.26,24.584 298.239,66.29 
		306.586,59.286 405.478,177.142 397.131,184.146 436.497,197.836 	"/>
	<polygon fill="#6D6E71" points="171.58,38.276 179.927,45.28 81.035,163.135 72.688,156.13 66.041,197.276 106.075,184.146 
		97.728,177.142 196.62,59.287 204.967,66.292 211.614,25.146 	"/>
	<g>
		<defs>
			<rect id="SVGID_1_" width="510.236" height="283.465"/>
		</defs>
		<clipPath id="SVGID_2_">
			<use xlink:href="#SVGID_1_"  overflow="visible"/>
		</clipPath>
		<path clip-path="url(#SVGID_2_)" d="M267.689,5.741h3.999v10.015h4.451V5.741h3.998V2.177h-12.448V5.741z M266.105,6.119
			c-0.32-2.377-2.036-4.301-5.809-4.301c-3.395,0-5.885,1.453-5.885,4.338c0,5.187,7.809,3.772,7.809,5.828c0,0.641-0.735,1-1.849,1
			c-0.434,0-0.905-0.114-1.264-0.34c-0.377-0.226-0.642-0.585-0.735-1.075h-4.262c0.094,2.452,2.432,4.545,6.016,4.545
			c3.734,0,6.356-1.527,6.356-4.677c0-4.941-7.808-3.678-7.808-5.715c0-0.49,0.433-0.773,1.413-0.773
			c0.435,0,0.83,0.076,1.151,0.245c0.32,0.17,0.565,0.453,0.641,0.925H266.105z M245.625,1.818c-4.225,0-7.111,2.773-7.111,7.035
			c0,4.621,2.848,7.261,7.111,7.261c4.017,0,7.129-2.602,7.129-7.223C252.753,5.308,250.471,1.818,245.625,1.818 M245.586,5.138
			c1.961-0.057,2.716,1.905,2.716,3.753c0,2.244-0.755,3.904-2.678,3.904c-2.131,0-2.66-2.169-2.66-3.904
			C242.964,7.175,243.568,5.138,245.586,5.138 M227.82,15.756v-5.262h4.206v5.262h4.451V2.177h-4.451V6.76h-4.206V2.177h-4.451
			v13.579H227.82z"/>
		<path clip-path="url(#SVGID_2_)" d="M173.276,221.977h3.998v10.016h4.451v-10.016h3.998v-3.564h-12.447V221.977z M162.451,218.412
			h-4.168v13.58h4.263v-4.301l-0.17-3.093l4.847,7.394h4.168v-13.58h-4.262v4.318l0.169,3.094L162.451,218.412z M156.134,231.992
			v-3.169h-6.884v-2.132h5.601v-3.168h-5.601v-1.942h6.62v-3.169h-11.071v13.58H156.134z M142.102,224.522h-6.092v2.942h1.962
			c-0.227,0.943-1.377,1.566-2.282,1.566c-2.245,0-2.848-1.755-2.848-3.679c0-2.395,0.829-3.979,2.583-3.979
			c1.151,0,1.962,0.603,2.283,1.716h4.224c-0.547-3.338-3.168-5.036-6.431-5.036c-4.394,0-7.11,2.98-7.11,7.318
			c0,4.733,3.112,6.978,6.582,6.978c2.131,0,3.357-0.792,4.092-1.66l0.17,1.34h2.867V224.522z M117.545,231.992l0.509-1.792h4.433
			l0.528,1.792h4.432l-4.866-13.58h-4.527l-4.865,13.58H117.545z M121.713,227.371h-2.81l1.377-4.866L121.713,227.371z
			 M105.438,224.522h-6.091v2.942h1.961c-0.226,0.943-1.377,1.566-2.282,1.566c-2.244,0-2.848-1.755-2.848-3.679
			c0-2.395,0.83-3.979,2.584-3.979c1.15,0,1.961,0.603,2.282,1.716h4.225c-0.547-3.338-3.169-5.036-6.432-5.036
			c-4.394,0-7.11,2.98-7.11,7.318c0,4.733,3.112,6.978,6.582,6.978c2.131,0,3.357-0.792,4.093-1.66l0.17,1.34h2.866V224.522z
			 M80.75,218.412h-4.168v13.58h4.262v-4.301l-0.17-3.093l4.847,7.394h4.168v-13.58h-4.262v4.318l0.17,3.094L80.75,218.412z
			 M73.829,218.412h-4.451v13.579h4.451V218.412z M66.946,222.354c-0.321-2.376-2.037-4.3-5.809-4.3
			c-3.395,0-5.884,1.452-5.884,4.338c0,5.187,7.808,3.772,7.808,5.828c0,0.642-0.736,0.999-1.849,0.999
			c-0.434,0-0.905-0.113-1.263-0.339c-0.378-0.227-0.642-0.585-0.736-1.075h-4.262c0.094,2.452,2.433,4.545,6.016,4.545
			c3.734,0,6.356-1.527,6.356-4.677c0-4.942-7.808-3.678-7.808-5.715c0-0.49,0.434-0.773,1.414-0.773
			c0.434,0,0.83,0.075,1.151,0.245c0.32,0.17,0.566,0.453,0.641,0.924H66.946z M39.938,226.07c0,4.677,2.339,6.279,6.545,6.279
			c4.507,0,6.525-1.904,6.525-6.261v-7.677h-4.451v8.129c0,1.471-0.471,2.49-2.074,2.49c-1.83,0-2.094-1.151-2.094-2.49v-8.129
			h-4.451V226.07z M28.509,231.992l0.509-1.792h4.433l0.528,1.792h4.432l-4.866-13.58h-4.527l-4.865,13.58H28.509z M32.677,227.371
			h-2.81l1.377-4.866L32.677,227.371z M23.285,223.599c-0.358-3.489-2.678-5.545-6.827-5.545c-3.791,0-6.771,2.735-6.771,7.129
			c0,4.413,2.716,7.167,7.204,7.167c3.584,0,6.092-2.111,6.488-5.62h-4.281c-0.17,1.302-0.849,2.302-2.282,2.302
			c-2.263,0-2.678-1.792-2.678-3.697c0-2.621,0.943-3.96,2.508-3.96c1.396,0,2.282,0.81,2.414,2.225H23.285z"/>
		<path clip-path="url(#SVGID_2_)" d="M486.085,221.977h3.998v10.015h4.45v-10.015h3.998v-3.564h-12.446V221.977z M475.259,218.412
			h-4.168v13.579h4.262v-4.3l-0.169-3.093l4.847,7.393h4.168v-13.579h-4.263v4.319l0.17,3.093L475.259,218.412z M468.94,231.991
			v-3.168h-6.884v-2.132h5.602v-3.168h-5.602v-1.943h6.62v-3.168h-11.07v13.579H468.94z M443.5,231.991v-4.602l-0.096-2.112
			l-0.188-1.999h0.037l2.471,8.713h3.093l2.472-8.713h0.037l-0.227,2.451l-0.056,2.113v4.148h3.998v-13.579h-5.375l-2.396,8.469
			l-2.396-8.469h-5.375v13.579H443.5z M428.129,218.412h-4.168v13.579h4.262v-4.3l-0.17-3.093l4.847,7.393h4.168v-13.579h-4.262
			v4.319l0.17,3.093L428.129,218.412z M414.795,218.054c-4.226,0-7.11,2.772-7.11,7.035c0,4.621,2.848,7.261,7.11,7.261
			c4.017,0,7.129-2.603,7.129-7.223C421.924,221.544,419.642,218.054,414.795,218.054 M414.757,221.374
			c1.962-0.058,2.716,1.904,2.716,3.753c0,2.243-0.754,3.903-2.678,3.903c-2.131,0-2.659-2.169-2.659-3.903
			C412.136,223.41,412.738,221.374,414.757,221.374 M399.234,227.258c2.075,0,2.377,0.585,2.377,2.357
			c0,1.207,0.113,2.074,0.227,2.376h4.508v-0.415c-0.528,0-0.472-0.603-0.472-2.376c0-2.734-0.867-3.073-2.302-3.603
			c1.584-0.434,2.282-1.754,2.282-3.319c0-2.64-1.49-3.866-6.016-3.866h-6.412v13.579h4.45v-4.733H399.234z M397.877,221.58h2.075
			c1.036,0,1.792,0.453,1.792,1.415c0,0.943-0.736,1.282-2.113,1.282h-1.754V221.58z M390.823,218.412h-4.45v13.579h4.45V218.412z
			 M375.32,231.991h4.471l4.715-13.579h-4.489l-2.47,9.034l-2.377-9.034h-4.488L375.32,231.991z M360.025,218.412h-4.168v13.579
			h4.263v-4.3l-0.171-3.093l4.848,7.393h4.168v-13.579h-4.262v4.319l0.17,3.093L360.025,218.412z M353.708,231.991v-3.168h-6.885
			v-2.132h5.603v-3.168h-5.603v-1.943h6.62v-3.168h-11.07v13.579H353.708z"/>
	</g>
</g>
</svg>
