<?xml version="1.0" encoding="utf-8"?>
<!-- Generator: Adobe Illustrator 16.0.0, SVG Export Plug-In . SVG Version: 6.00 Build 0)  -->
<!DOCTYPE svg PUBLIC "-//W3C//DTD SVG 1.1//EN" "http://www.w3.org/Graphics/SVG/1.1/DTD/svg11.dtd">
<svg version="1.1" id="Layer_1" xmlns="http://www.w3.org/2000/svg" xmlns:xlink="http://www.w3.org/1999/xlink" x="0px" y="0px"
	 width="510.236px" height="240.945px" viewBox="0 0 510.236 240.945" enable-background="new 0 0 510.236 240.945"
	 xml:space="preserve">
<g>
	<g>
		<defs>
			<rect id="SVGID_1_" width="510.236" height="240.945"/>
		</defs>
		<clipPath id="SVGID_2_">
			<use xlink:href="#SVGID_1_"  overflow="visible"/>
		</clipPath>
		<path clip-path="url(#SVGID_2_)" fill="#636466" d="M30.974,179.563c19.828,32.016,55.258,53.353,95.685,53.353
			c40.427,0,75.857-21.337,95.685-53.353l-95.685-55.244L30.974,179.563z M123.292,118.486V8.029
			C62.729,9.815,14.173,59.435,14.173,120.43c0,19.291,4.862,37.442,13.418,53.308L123.292,118.486z M239.146,120.43
			c0-60.995-48.556-110.615-109.118-112.401v110.457l95.7,55.252C234.283,157.872,239.146,139.72,239.146,120.43"/>
		<path clip-path="url(#SVGID_2_)" fill="#636466" d="M287.585,179.563c19.828,32.016,55.259,53.353,95.686,53.353
			s75.856-21.337,95.685-53.353l-95.685-55.244L287.585,179.563z M379.902,118.486V8.029
			C319.341,9.815,270.784,59.435,270.784,120.43c0,19.291,4.862,37.442,13.418,53.308L379.902,118.486z M495.757,120.43
			c0-60.995-48.557-110.615-109.118-112.401v110.457l95.699,55.252C490.895,157.872,495.757,139.72,495.757,120.43"/>
		<path clip-path="url(#SVGID_2_)" fill="#B1B3B6" d="M73.083,55.175c-0.322,0.56-0.131,1.275,0.428,1.598
			c0.56,0.323,1.275,0.131,1.598-0.428c0.323-0.56,0.131-1.275-0.428-1.598C74.121,54.424,73.405,54.616,73.083,55.175
			 M66.556,51.781c0-3.326-2.697-6.022-6.023-6.022c-3.326,0-6.022,2.696-6.022,6.022c0,3.326,2.696,6.023,6.022,6.023
			C63.859,57.804,66.556,55.107,66.556,51.781 M71.355,49.508c-0.323-0.559-1.038-0.751-1.598-0.428
			c-0.559,0.323-0.751,1.038-0.428,1.597c0.323,0.56,1.038,0.751,1.598,0.428C71.486,50.782,71.678,50.067,71.355,49.508
			 M71.355,54.178c0.323-0.559,0.131-1.275-0.428-1.598c-0.56-0.323-1.275-0.131-1.598,0.428c-0.323,0.56-0.131,1.275,0.428,1.598
			C70.317,54.929,71.032,54.737,71.355,54.178 M71.501,60.426c0,0,0.62-2.064-1.513-2.958c-2.132-0.894-3.432,1.307-3.432,1.307
			l-2.828,7.91l-2.476-4.471c0,0-0.825-2.796-5.022-3.118c-4.196-0.321-5.159,3.118-5.159,3.118l-4.196,13.552v20.672h10.25V79.342
			l2.958-8.667l2.613,4.334c0,0,0.895,1.101,2.133,0.894c1.238-0.206,1.727-1.307,1.727-1.307L71.501,60.426z M75.108,47.341
			c-0.323-0.559-1.038-0.751-1.598-0.428c-0.559,0.323-0.75,1.038-0.428,1.597c0.323,0.56,1.039,0.751,1.598,0.428
			C75.239,48.616,75.431,47.9,75.108,47.341 M76.514,51.98c0-0.645-0.524-1.169-1.169-1.169c-0.646,0-1.17,0.524-1.17,1.169
			c0,0.646,0.524,1.17,1.17,1.17C75.99,53.15,76.514,52.626,76.514,51.98 M78.861,45.174c-0.323-0.559-1.038-0.751-1.597-0.428
			c-0.56,0.323-0.751,1.038-0.428,1.598c0.322,0.559,1.038,0.751,1.597,0.428C78.992,46.449,79.184,45.734,78.861,45.174
			 M76.836,57.342c-0.323,0.56-0.132,1.275,0.428,1.598c0.559,0.323,1.274,0.131,1.597-0.428c0.323-0.56,0.131-1.275-0.428-1.598
			C77.875,56.591,77.158,56.783,76.836,57.342 M79.678,50.811c-0.646,0-1.169,0.524-1.169,1.169c0,0.646,0.523,1.17,1.169,1.17
			s1.17-0.524,1.17-1.17C80.848,51.335,80.324,50.811,79.678,50.811 M81.161,55.76c-0.646,0-1.169,0.524-1.169,1.169
			c0,0.646,0.523,1.17,1.169,1.17s1.169-0.524,1.169-1.17C82.33,56.284,81.807,55.76,81.161,55.76 M81.161,46.244
			c-0.646,0-1.169,0.524-1.169,1.17s0.523,1.169,1.169,1.169s1.169-0.523,1.169-1.169S81.807,46.244,81.161,46.244 M82.614,43.008
			c-0.323-0.56-1.038-0.751-1.597-0.429c-0.56,0.323-0.751,1.039-0.428,1.598c0.323,0.559,1.038,0.751,1.597,0.428
			C82.745,44.282,82.938,43.567,82.614,43.008 M86.367,40.841c-0.323-0.56-1.038-0.751-1.597-0.428
			c-0.56,0.323-0.751,1.038-0.428,1.597c0.323,0.559,1.038,0.751,1.597,0.428C86.499,42.115,86.69,41.4,86.367,40.841 M89.278,51.98
			c0,0.646-0.524,1.17-1.169,1.17c-0.646,0-1.17-0.524-1.17-1.17c0-0.645,0.524-1.169,1.17-1.169
			C88.754,50.811,89.278,51.335,89.278,51.98 M87.111,48.583c0,0.646-0.523,1.169-1.169,1.169s-1.17-0.523-1.17-1.169
			s0.524-1.169,1.17-1.169S87.111,47.937,87.111,48.583 M84.944,51.98c0,0.646-0.523,1.17-1.169,1.17s-1.169-0.524-1.169-1.17
			c0-0.645,0.523-1.169,1.169-1.169S84.944,51.335,84.944,51.98 M84.772,55.378c0-0.646,0.524-1.17,1.17-1.17
			s1.169,0.524,1.169,1.17s-0.523,1.169-1.169,1.169S84.772,56.024,84.772,55.378 M93.89,51.781c0-3.326-2.696-6.022-6.023-6.022
			c-3.326,0-6.022,2.696-6.022,6.022c0,3.327,2.696,6.023,6.022,6.023C91.194,57.804,93.89,55.108,93.89,51.781 M87.096,64.237
			c-0.323,0.559-1.038,0.75-1.597,0.427c-0.559-0.322-0.751-1.038-0.428-1.597c0.323-0.559,1.038-0.751,1.597-0.428
			C87.229,62.962,87.419,63.677,87.096,64.237 M83.343,62.07c-0.323,0.559-1.038,0.75-1.597,0.428
			c-0.559-0.323-0.751-1.038-0.428-1.598c0.323-0.559,1.038-0.751,1.597-0.428C83.475,60.795,83.667,61.51,83.343,62.07
			 M98.936,61.32c-1.513-1.615-3.097-1.49-3.097-1.49h-7.485h-0.971h-7.485c0,0-1.584-0.125-3.097,1.49
			c-2.559,2.729-1.915,5.572-1.915,5.572v20.086c0,0,0.207,2.064,2.546,1.926c2.338-0.137,2.022-1.719,2.022-1.719V69.38l0.72-0.069
			v27.127h6.836v-7.396h1.344h0.373v7.396h6.836V69.311l0.72,0.069v17.805c0,0-0.316,1.582,2.022,1.719
			c2.339,0.138,2.546-1.926,2.546-1.926V66.892C100.85,66.892,101.494,64.049,98.936,61.32"/>
		<path clip-path="url(#SVGID_2_)" fill="#B1B3B6" d="M329.693,54.776c-0.322,0.56-0.131,1.275,0.428,1.598
			c0.561,0.323,1.275,0.131,1.599-0.428c0.322-0.559,0.131-1.275-0.429-1.598C330.732,54.025,330.017,54.217,329.693,54.776
			 M323.167,51.382c0-3.326-2.696-6.022-6.022-6.022s-6.022,2.696-6.022,6.022c0,3.327,2.696,6.023,6.022,6.023
			S323.167,54.709,323.167,51.382 M327.967,49.109c-0.323-0.559-1.038-0.751-1.599-0.428c-0.559,0.323-0.751,1.038-0.428,1.597
			c0.323,0.56,1.038,0.751,1.598,0.428C328.098,50.383,328.289,49.668,327.967,49.109 M327.967,53.779
			c0.322-0.559,0.131-1.275-0.429-1.598c-0.56-0.322-1.274-0.131-1.598,0.428c-0.323,0.56-0.131,1.275,0.428,1.598
			C326.929,54.53,327.644,54.338,327.967,53.779 M328.112,60.027c0,0,0.619-2.064-1.513-2.958s-3.433,1.307-3.433,1.307l-2.827,7.91
			l-2.477-4.471c0,0-0.825-2.796-5.021-3.117c-4.196-0.322-5.159,3.117-5.159,3.117l-4.196,13.552v20.672h10.25V78.944l2.958-8.668
			l2.613,4.334c0,0,0.895,1.101,2.133,0.894c1.238-0.206,1.727-1.307,1.727-1.307L328.112,60.027z M331.72,46.942
			c-0.323-0.559-1.038-0.751-1.599-0.428c-0.559,0.323-0.75,1.038-0.428,1.598c0.323,0.559,1.039,0.75,1.598,0.428
			C331.851,48.217,332.042,47.502,331.72,46.942 M333.125,51.582c0-0.646-0.523-1.17-1.169-1.17s-1.17,0.524-1.17,1.17
			c0,0.645,0.524,1.169,1.17,1.169S333.125,52.227,333.125,51.582 M335.473,44.775c-0.323-0.559-1.038-0.751-1.598-0.428
			c-0.56,0.323-0.751,1.038-0.428,1.598c0.322,0.559,1.038,0.751,1.597,0.428C335.604,46.05,335.795,45.335,335.473,44.775
			 M333.447,56.943c-0.323,0.56-0.132,1.275,0.428,1.598c0.56,0.323,1.274,0.131,1.598-0.428c0.322-0.56,0.131-1.275-0.429-1.598
			C334.485,56.192,333.77,56.384,333.447,56.943 M336.289,50.412c-0.646,0-1.169,0.524-1.169,1.17c0,0.645,0.523,1.169,1.169,1.169
			c0.646,0,1.17-0.524,1.17-1.169C337.459,50.936,336.936,50.412,336.289,50.412 M337.772,55.361c-0.646,0-1.169,0.524-1.169,1.17
			c0,0.645,0.522,1.169,1.169,1.169c0.646,0,1.169-0.524,1.169-1.169C338.941,55.885,338.418,55.361,337.772,55.361 M337.772,45.845
			c-0.646,0-1.169,0.524-1.169,1.17s0.522,1.169,1.169,1.169c0.646,0,1.169-0.523,1.169-1.169S338.418,45.845,337.772,45.845
			 M339.226,42.609c-0.323-0.56-1.038-0.751-1.598-0.428c-0.56,0.322-0.751,1.038-0.428,1.597s1.038,0.751,1.597,0.428
			C339.356,43.883,339.549,43.168,339.226,42.609 M342.979,40.442c-0.323-0.56-1.038-0.751-1.597-0.428
			c-0.561,0.323-0.751,1.038-0.429,1.597c0.323,0.559,1.038,0.751,1.598,0.428C343.109,41.716,343.302,41.001,342.979,40.442
			 M345.89,51.582c0,0.645-0.524,1.169-1.169,1.169c-0.646,0-1.17-0.524-1.17-1.169c0-0.646,0.523-1.17,1.17-1.17
			C345.365,50.412,345.89,50.936,345.89,51.582 M343.723,48.184c0,0.646-0.523,1.17-1.169,1.17c-0.646,0-1.17-0.524-1.17-1.17
			s0.523-1.169,1.17-1.169C343.199,47.015,343.723,47.538,343.723,48.184 M341.556,51.582c0,0.645-0.523,1.169-1.169,1.169
			c-0.646,0-1.169-0.524-1.169-1.169c0-0.646,0.522-1.17,1.169-1.17C341.032,50.412,341.556,50.936,341.556,51.582 M341.384,54.979
			c0-0.646,0.523-1.169,1.17-1.169c0.646,0,1.169,0.523,1.169,1.169s-0.523,1.169-1.169,1.169
			C341.907,56.148,341.384,55.625,341.384,54.979 M350.501,51.382c0-3.326-2.695-6.022-6.022-6.022
			c-3.326,0-6.022,2.696-6.022,6.022c0,3.327,2.696,6.023,6.022,6.023C347.806,57.405,350.501,54.709,350.501,51.382
			 M343.707,63.838c-0.322,0.559-1.038,0.75-1.597,0.428c-0.559-0.323-0.751-1.039-0.428-1.598s1.038-0.751,1.597-0.428
			C343.84,62.563,344.03,63.278,343.707,63.838 M339.954,61.671c-0.322,0.559-1.038,0.751-1.597,0.428
			c-0.559-0.323-0.751-1.038-0.428-1.598c0.322-0.559,1.038-0.751,1.597-0.428C340.086,60.396,340.277,61.111,339.954,61.671
			 M355.547,60.921c-1.514-1.614-3.098-1.49-3.098-1.49h-7.484h-0.972h-7.484c0,0-1.584-0.124-3.098,1.49
			c-2.559,2.729-1.915,5.572-1.915,5.572v20.086c0,0,0.207,2.064,2.546,1.926c2.339-0.137,2.022-1.719,2.022-1.719V68.981
			l0.72-0.069v27.127h6.836v-7.396h1.345h0.372v7.396h6.837V68.912l0.72,0.069v17.805c0,0-0.316,1.582,2.021,1.719
			c2.339,0.138,2.546-1.926,2.546-1.926V66.493C357.461,66.493,358.105,63.65,355.547,60.921"/>
	</g>
	<path fill="#B1B3B6" d="M151.604,56.924h53.546v35.922h-53.546V56.924z M213.458,55.577l-35.212-17.849l-35.06,17.849h5.388v40.861
		h59.496V55.577H213.458z"/>
	<g>
		<defs>
			<rect id="SVGID_3_" width="510.236" height="240.945"/>
		</defs>
		<clipPath id="SVGID_4_">
			<use xlink:href="#SVGID_3_"  overflow="visible"/>
		</clipPath>
		<path clip-path="url(#SVGID_4_)" fill="#DCDDDE" d="M168.331,76.812l-2.021,1.166c0,0-1.553-1.295-1.122-4.534
			c0.431-3.238,2.694-6.061,2.694-6.061s-3.964,1.561-5.276,5.275c-1.313,3.715,0.112,7.746,0.112,7.746l-2.02,1.235l5.837,0.449
			L168.331,76.812z"/>
		<path clip-path="url(#SVGID_4_)" fill="#DCDDDE" d="M179.453,83.656l1.022,2.097c0,0-1.401,1.459-4.601,0.804
			c-3.2-0.656-5.859-3.111-5.859-3.111s1.282,4.063,4.895,5.631c3.614,1.569,7.735,0.429,7.735,0.429l1.091,2.102l0.855-5.792
			L179.453,83.656z"/>
		<path clip-path="url(#SVGID_4_)" fill="#DCDDDE" d="M177.078,66.182l-1.022-2.097c0,0,1.4-1.459,4.601-0.804
			c3.2,0.656,5.859,3.111,5.859,3.111s-1.282-4.063-4.895-5.631c-3.614-1.569-7.735-0.429-7.735-0.429l-1.091-2.102l-0.855,5.792
			L177.078,66.182z"/>
		<path clip-path="url(#SVGID_4_)" fill="#DCDDDE" d="M187.302,74.658l2.041-1.131c0,0,1.53,1.323,1.043,4.553
			c-0.487,3.23-2.8,6.014-2.8,6.014s3.991-1.492,5.368-5.183c1.377-3.691,0.023-7.747,0.023-7.747l2.042-1.199l-5.829-0.551
			L187.302,74.658z"/>
		<path clip-path="url(#SVGID_4_)" fill="#8A8C8E" d="M381.737,175.105c0-3.758-3.047-6.805-6.805-6.805s-6.805,3.047-6.805,6.805
			c0,3.76,3.047,6.807,6.805,6.807S381.737,178.865,381.737,175.105 M387.438,185.884c-1.71-1.824-3.5-1.684-3.5-1.684h-8.458
			h-1.096h-8.458c0,0-1.79-0.141-3.5,1.684c-2.892,3.084-2.163,6.296-2.163,6.296v22.697c0,0,0.232,2.332,2.876,2.176
			c2.643-0.155,2.285-1.943,2.285-1.943v-20.118l0.813-0.077v30.652h7.726v-8.357h1.518h0.422v8.357h7.726v-30.652l0.813,0.077
			v20.118c0,0-0.357,1.788,2.285,1.943c2.642,0.156,2.876-2.176,2.876-2.176V192.18C389.603,192.18,390.329,188.968,387.438,185.884
			"/>
		<path clip-path="url(#SVGID_4_)" fill="#B1B3B6" d="M396.488,181.442c0-3.759-3.047-6.806-6.805-6.806s-6.805,3.047-6.805,6.806
			s3.047,6.806,6.805,6.806S396.488,185.201,396.488,181.442 M402.189,192.22c-1.71-1.824-3.5-1.684-3.5-1.684h-8.458h-1.096h-8.458
			c0,0-1.79-0.141-3.5,1.684c-2.892,3.084-2.163,6.296-2.163,6.296v22.697c0,0,0.233,2.332,2.876,2.177s2.285-1.943,2.285-1.943
			v-20.119l0.813-0.077v30.653h7.726v-8.358h1.518h0.422v8.358h7.726V201.25l0.813,0.077v20.119c0,0-0.357,1.788,2.285,1.943
			c2.642,0.155,2.876-2.177,2.876-2.177v-22.697C404.354,198.516,405.081,195.304,402.189,192.22"/>
		<path clip-path="url(#SVGID_4_)" fill="#B1B3B6" d="M349.333,170.121c0-3.194-2.589-5.784-5.783-5.784
			c-3.195,0-5.785,2.59-5.785,5.784c0,3.195,2.59,5.785,5.785,5.785C346.744,175.906,349.333,173.316,349.333,170.121
			 M354.18,179.283c-1.453-1.551-2.976-1.431-2.976-1.431h-7.188h-0.933h-7.188c0,0-1.521-0.12-2.976,1.431
			c-2.456,2.622-1.839,5.352-1.839,5.352v19.292c0,0,0.198,1.982,2.445,1.851c2.246-0.132,1.942-1.652,1.942-1.652v-17.101
			l0.69-0.066v26.056h6.567v-7.104h1.29h0.357v7.104h6.567v-26.056l0.691,0.066v17.101c0,0-0.305,1.521,1.941,1.652
			c2.247,0.132,2.445-1.851,2.445-1.851v-19.292C356.019,184.634,356.638,181.905,354.18,179.283"/>
		<path clip-path="url(#SVGID_4_)" fill="#B1B3B6" d="M439.109,168.932c0-3.194-2.589-5.784-5.784-5.784
			c-3.194,0-5.785,2.59-5.785,5.784c0,3.195,2.591,5.785,5.785,5.785C436.521,174.717,439.109,172.127,439.109,168.932
			 M443.955,178.094c-1.453-1.551-2.975-1.431-2.975-1.431h-7.189h-0.932h-7.189c0,0-1.521-0.12-2.975,1.431
			c-2.457,2.621-1.839,5.352-1.839,5.352v19.292c0,0,0.198,1.982,2.445,1.851c2.246-0.132,1.941-1.652,1.941-1.652v-17.101
			l0.691-0.066v26.056h6.566v-7.104h1.29h0.358v7.104h6.567v-26.056l0.69,0.066v17.101c0,0-0.304,1.521,1.942,1.652
			c2.247,0.132,2.444-1.851,2.444-1.851v-19.292C445.794,183.446,446.413,180.715,443.955,178.094"/>
		<path clip-path="url(#SVGID_4_)" fill="#8A8C8E" d="M412.841,171.145c0-3.758-3.047-6.805-6.805-6.805
			c-3.759,0-6.806,3.047-6.806,6.805c0,3.759,3.047,6.806,6.806,6.806C409.794,177.951,412.841,174.904,412.841,171.145
			 M418.542,181.924c-1.71-1.824-3.5-1.685-3.5-1.685h-8.458h-1.096h-8.459c0,0-1.789-0.14-3.5,1.685
			c-2.891,3.084-2.162,6.296-2.162,6.296v22.697c0,0,0.232,2.332,2.876,2.177c2.643-0.156,2.284-1.944,2.284-1.944v-20.119
			l0.813-0.078v30.654h7.725v-8.357h1.519h0.422v8.357h7.725v-30.654l0.814,0.078v20.119c0,0-0.358,1.788,2.285,1.944
			c2.642,0.155,2.876-2.177,2.876-2.177V188.22C420.706,188.22,421.433,185.008,418.542,181.924"/>
		<path clip-path="url(#SVGID_4_)" fill="#8A8C8E" d="M331.546,168.278c0-3.308-2.681-5.989-5.987-5.989
			c-3.309,0-5.989,2.682-5.989,5.989c0,3.307,2.681,5.988,5.989,5.988C328.865,174.266,331.546,171.584,331.546,168.278
			 M336.563,177.763c-1.505-1.605-3.08-1.482-3.08-1.482h-7.443h-0.965h-7.442c0,0-1.574-0.123-3.08,1.482
			c-2.545,2.714-1.903,5.539-1.903,5.539v19.975c0,0,0.205,2.052,2.53,1.915s2.012-1.71,2.012-1.71v-17.705l0.715-0.068v26.976
			h6.798v-7.355h1.336h0.371v7.355h6.798v-26.976l0.716,0.068v17.705c0,0-0.314,1.573,2.012,1.71c2.325,0.137,2.53-1.915,2.53-1.915
			v-19.975C338.467,183.302,339.107,180.477,336.563,177.763"/>
		<path clip-path="url(#SVGID_4_)" fill="#8A8C8E" d="M453.469,169.282c0-2.729-2.213-4.941-4.941-4.941
			c-2.729,0-4.942,2.213-4.942,4.941c0,2.73,2.213,4.943,4.942,4.943C451.256,174.225,453.469,172.012,453.469,169.282
			 M457.609,177.11c-1.242-1.325-2.543-1.223-2.543-1.223h-6.142h-0.796h-6.142c0,0-1.301-0.103-2.542,1.223
			c-2.101,2.24-1.571,4.572-1.571,4.572v16.483c0,0,0.169,1.693,2.088,1.581c1.92-0.113,1.66-1.411,1.66-1.411v-14.611l0.591-0.057
			v22.261h5.61v-6.069h1.102h0.306v6.069h5.611v-22.261l0.59,0.057v14.611c0,0-0.26,1.298,1.66,1.411
			c1.919,0.112,2.088-1.581,2.088-1.581v-16.483C459.18,181.682,459.709,179.35,457.609,177.11"/>
		<path clip-path="url(#SVGID_4_)" fill="#DCDDDE" d="M430.998,176.271c0-3.308-2.681-5.988-5.988-5.988s-5.988,2.681-5.988,5.988
			s2.681,5.988,5.988,5.988S430.998,179.579,430.998,176.271 M436.016,185.756c-1.506-1.605-3.08-1.482-3.08-1.482h-7.443h-0.965
			h-7.442c0,0-1.575-0.123-3.08,1.482c-2.545,2.714-1.903,5.54-1.903,5.54v19.974c0,0,0.205,2.053,2.53,1.915
			c2.325-0.137,2.012-1.71,2.012-1.71V193.77l0.715-0.067v26.975h6.798v-7.354h1.336h0.371v7.354h6.798v-26.975l0.716,0.067v17.705
			c0,0-0.314,1.573,2.012,1.71c2.325,0.138,2.53-1.915,2.53-1.915v-19.974C437.919,191.296,438.56,188.47,436.016,185.756"/>
		<path clip-path="url(#SVGID_4_)" fill="#DCDDDE" d="M362.076,183.269c0-3.307-2.682-5.988-5.988-5.988
			c-3.308,0-5.989,2.682-5.989,5.988c0,3.309,2.682,5.989,5.989,5.989C359.395,189.258,362.076,186.578,362.076,183.269
			 M367.093,192.754c-1.505-1.604-3.08-1.482-3.08-1.482h-7.442h-0.965h-7.442c0,0-1.575-0.122-3.08,1.482
			c-2.545,2.714-1.904,5.541-1.904,5.541v19.973c0,0,0.205,2.053,2.531,1.915c2.325-0.137,2.011-1.71,2.011-1.71v-17.705
			l0.715-0.067v26.975h6.799v-7.354h1.336h0.371v7.354h6.798v-26.975l0.716,0.067v17.705c0,0-0.315,1.573,2.011,1.71
			c2.326,0.138,2.531-1.915,2.531-1.915v-19.973C368.997,198.295,369.637,195.468,367.093,192.754"/>
		<path clip-path="url(#SVGID_4_)" fill="#DCDDDE" d="M315.444,172.076c0-2.085-1.69-3.775-3.774-3.775
			c-2.085,0-3.775,1.69-3.775,3.775s1.69,3.775,3.775,3.775C313.754,175.851,315.444,174.161,315.444,172.076 M318.606,178.055
			c-0.949-1.013-1.94-0.935-1.94-0.935h-4.692h-0.609h-4.69c0,0-0.993-0.078-1.942,0.935c-1.604,1.711-1.2,3.492-1.2,3.492v12.591
			c0,0,0.131,1.294,1.597,1.208c1.466-0.088,1.267-1.078,1.267-1.078v-11.161l0.451-0.043v17.004h4.286v-4.636h0.842h0.233v4.636
			h4.285v-17.004l0.451,0.043v11.161c0,0-0.197,0.99,1.269,1.078c1.466,0.086,1.595-1.208,1.595-1.208v-12.591
			C319.807,181.547,320.211,179.766,318.606,178.055"/>
		<path clip-path="url(#SVGID_4_)" fill="#B1B3B6" d="M433.671,38.857c0.884-4.962-2.765-7.687-7.021-7.687
			c-4.258,0-8.153,2.86-7.123,7.552c2.787,5.86,2.865,8.666,7.123,8.666S430.514,45.031,433.671,38.857 M435.271,51.088
			c-4.25-1.68-8.001-1.907-8.001-1.907h-1.242c0,0-3.089-0.356-8.001,1.907c-3.275,3.494-2.451,7.132-2.451,7.132v25.711
			c0,0-0.528,2.641,2.466,2.465c2.994-0.176,1.005-2.202,1.005-2.202V59.028l0.921-0.087c0,0-0.591,8.833,0,10
			c0.591,1.168,1.266,0.494,1.266,2.245c0,2.913-1.094,1.836-1.266,2.916c-0.172,1.081,0,21.938,0,21.938h5.583v-9.468h1.72h0.477
			v9.468h5.583c0,0,0.244-20.593,0-21.938c-0.243-1.344-0.961-0.003-0.961-2.916c0-1.796,0.486-1.122,0.961-2.245s0-10,0-10
			l0.922,0.087v25.166c0,0-1.99,2.026,1.004,2.202c2.994,0.176,2.466-2.465,2.466-2.465V58.22
			C437.722,58.22,438.546,54.582,435.271,51.088"/>
		<path clip-path="url(#SVGID_4_)" fill="#B1B3B6" d="M134.367,171.035c0-4.257-3.451-7.708-7.708-7.708
			c-4.258,0-7.709,3.451-7.709,7.708c0,4.258,3.451,7.709,7.709,7.709C130.917,178.744,134.367,175.292,134.367,171.035
			 M140.825,183.245c-1.937-2.067-3.965-1.908-3.965-1.908h-9.58h-1.243h-9.58c0,0-2.027-0.159-3.964,1.908
			c-3.275,3.493-2.451,7.132-2.451,7.132v25.71c0,0,0.264,2.643,3.258,2.466c2.993-0.177,2.588-2.201,2.588-2.201v-22.79
			l0.921-0.089v34.724h8.751v-9.467h1.72h0.477v9.467h8.751v-34.724l0.922,0.089v22.79c0,0-0.406,2.024,2.588,2.201
			c2.994,0.177,3.258-2.466,3.258-2.466v-25.71C143.276,190.376,144.101,186.738,140.825,183.245"/>
		<path clip-path="url(#SVGID_4_)" fill="#8A8C8E" d="M131.113,195.723c2.304,0,4.171-1.868,4.171-4.171
			c0-2.305-1.867-4.173-4.171-4.173c-2.304,0-4.171,1.868-4.171,4.173C126.942,193.855,128.809,195.723,131.113,195.723"/>
		<path clip-path="url(#SVGID_4_)" fill="#E6E7E8" d="M134.372,191.402l2.751-0.991l-2.917-0.193c0,0-0.107,0.21-0.051,0.61
			C134.212,191.23,134.372,191.402,134.372,191.402 M134.003,192.971l2.203,0.034L134.245,192c0,0-0.138,0.132-0.22,0.461
			C133.943,192.79,134.003,192.971,134.003,192.971 M133.205,193.783c-0.259,0.26-0.255,0.51-0.255,0.51l3.081,2.315l-2.316-3.08
			C133.715,193.528,133.464,193.523,133.205,193.783 M131.114,195.016c-0.405,0.007-0.607,0.201-0.607,0.201l0.653,3.137
			l0.543-3.158C131.703,195.196,131.52,195.009,131.114,195.016 M131.476,192.554l0.674,0.781l-0.022-1.031
			c0,0-0.167-0.071-0.388,0.014C131.519,192.402,131.476,192.554,131.476,192.554 M127.874,193.277l-1.844,2.608l2.609-1.843
			c0,0,0.036-0.298-0.223-0.557S127.874,193.277,127.874,193.277 M126.357,192.566l1.411,0.147c0,0,0.033-0.151-0.028-0.44
			c-0.062-0.29-0.154-0.414-0.154-0.414L126.357,192.566z M127.805,190.273l-2.31,0.622l2.348,0.459c0,0,0.104-0.178,0.091-0.544
			C127.921,190.443,127.805,190.273,127.805,190.273 M128.95,189.299c0.236-0.281,0.244-0.502,0.244-0.502l-2.539-1.426l1.844,2.255
			C128.499,189.626,128.715,189.579,128.95,189.299 M129.598,191.344c0.139-0.263,0.103-0.462,0.103-0.462l-1.396-0.247l0.986,1.019
			C129.291,191.654,129.459,191.605,129.598,191.344 M130.349,193.055c-0.287-0.072-0.459,0.061-0.459,0.061l0.098,1.414l0.75-1.203
			C130.738,193.327,130.637,193.126,130.349,193.055 M131.106,189.777l-0.707-1.229l-0.147,1.411c0,0,0.169,0.097,0.459,0.035
			S131.106,189.777,131.106,189.777 M131.156,188.103c0.405,0,0.598-0.167,0.598-0.167l-0.598-3.533l-0.598,3.533
			C130.558,187.936,130.751,188.103,131.156,188.103 M133.269,190.495l-1.376,0.345c0,0-0.032,0.17,0.125,0.421
			c0.157,0.252,0.338,0.319,0.338,0.319L133.269,190.495z M133.278,189.482l2.038-3.27l-2.866,2.574c0,0,0.017,0.25,0.298,0.485
			C133.029,189.508,133.278,189.482,133.278,189.482"/>
		<path clip-path="url(#SVGID_4_)" fill="#8A8C8E" d="M119.478,191.341c1.837,0,3.327-1.489,3.327-3.327
			c0-1.837-1.49-3.327-3.327-3.327c-1.837,0-3.327,1.49-3.327,3.327C116.151,189.852,117.641,191.341,119.478,191.341"/>
		<path clip-path="url(#SVGID_4_)" fill="#E6E7E8" d="M122.078,187.895l2.193-0.79l-2.326-0.155c0,0-0.085,0.168-0.04,0.488
			C121.95,187.757,122.078,187.895,122.078,187.895 M121.783,189.147l1.757,0.025l-1.564-0.801c0,0-0.109,0.105-0.175,0.368
			C121.736,189.001,121.783,189.147,121.783,189.147 M121.147,189.793c-0.207,0.206-0.203,0.406-0.203,0.406l2.456,1.847
			l-1.846-2.457C121.554,189.589,121.354,189.586,121.147,189.793 M119.479,190.777c-0.323,0.006-0.484,0.161-0.484,0.161
			l0.521,2.501l0.433-2.519C119.949,190.92,119.803,190.772,119.479,190.777 M119.768,188.814l0.537,0.623l-0.018-0.823
			c0,0-0.132-0.056-0.308,0.011C119.802,188.693,119.768,188.814,119.768,188.814 M116.895,189.391l-1.47,2.08l2.08-1.471
			c0,0,0.029-0.236-0.178-0.443C117.121,189.35,116.895,189.391,116.895,189.391 M115.686,188.824l1.125,0.117
			c0,0,0.026-0.12-0.023-0.352c-0.049-0.23-0.122-0.331-0.122-0.331L115.686,188.824z M116.84,186.995l-1.842,0.496l1.872,0.366
			c0,0,0.083-0.143,0.073-0.435C116.933,187.13,116.84,186.995,116.84,186.995 M117.753,186.217
			c0.188-0.224,0.195-0.399,0.195-0.399l-2.025-1.137l1.471,1.798C117.394,186.479,117.566,186.442,117.753,186.217 M118.27,187.849
			c0.111-0.209,0.082-0.368,0.082-0.368l-1.113-0.198l0.786,0.813C118.025,188.096,118.159,188.057,118.27,187.849 M118.869,189.212
			c-0.229-0.057-0.366,0.05-0.366,0.05l0.078,1.128l0.598-0.96C119.179,189.43,119.098,189.27,118.869,189.212 M119.473,186.599
			l-0.564-0.98l-0.117,1.125c0,0,0.135,0.078,0.366,0.029S119.473,186.599,119.473,186.599 M119.513,185.264
			c0.323,0,0.477-0.134,0.477-0.134l-0.477-2.816l-0.477,2.816C119.036,185.13,119.189,185.264,119.513,185.264 M121.198,187.171
			l-1.097,0.275c0,0-0.026,0.135,0.099,0.335c0.126,0.201,0.27,0.255,0.27,0.255L121.198,187.171z M121.205,186.364l1.626-2.608
			l-2.287,2.055c0,0,0.014,0.198,0.238,0.387C121.006,186.384,121.205,186.364,121.205,186.364"/>
		<path clip-path="url(#SVGID_4_)" fill="#8A8C8E" d="M122.194,201.207c1.139,0,2.063-0.923,2.063-2.063s-0.924-2.063-2.063-2.063
			s-2.063,0.923-2.063,2.063S121.055,201.207,122.194,201.207"/>
		<path clip-path="url(#SVGID_4_)" fill="#E6E7E8" d="M123.806,199.07l1.36-0.489l-1.442-0.096c0,0-0.053,0.103-0.025,0.302
			C123.727,198.985,123.806,199.07,123.806,199.07 M123.623,199.846l1.09,0.017l-0.97-0.497c0,0-0.068,0.065-0.108,0.228
			C123.594,199.756,123.623,199.846,123.623,199.846 M123.229,200.247c-0.128,0.129-0.126,0.253-0.126,0.253l1.523,1.146
			l-1.145-1.524C123.481,200.121,123.357,200.119,123.229,200.247 M122.195,200.857c-0.2,0.004-0.3,0.1-0.3,0.1l0.323,1.551
			l0.268-1.562C122.486,200.946,122.395,200.854,122.195,200.857 M122.374,199.64l0.333,0.386l-0.011-0.51
			c0,0-0.082-0.035-0.191,0.007C122.395,199.565,122.374,199.64,122.374,199.64 M120.593,199.998l-0.912,1.289l1.29-0.911
			c0,0,0.018-0.146-0.11-0.274S120.593,199.998,120.593,199.998 M119.843,199.646l0.697,0.072c0,0,0.017-0.074-0.014-0.218
			c-0.03-0.143-0.075-0.205-0.075-0.205L119.843,199.646z M120.559,198.512l-1.142,0.308l1.16,0.227c0,0,0.052-0.088,0.046-0.27
			C120.616,198.596,120.559,198.512,120.559,198.512 M121.125,198.03c0.117-0.139,0.121-0.248,0.121-0.248l-1.256-0.704l0.912,1.114
			C120.902,198.192,121.009,198.168,121.125,198.03 M121.445,199.042c0.069-0.13,0.051-0.229,0.051-0.229l-0.69-0.122l0.488,0.504
			C121.294,199.195,121.377,199.17,121.445,199.042 M121.817,199.888c-0.142-0.036-0.227,0.029-0.227,0.029l0.048,0.699l0.371-0.595
			C122.009,200.022,121.959,199.922,121.817,199.888 M122.191,198.267l-0.35-0.608l-0.072,0.698c0,0,0.083,0.048,0.227,0.018
			C122.139,198.343,122.191,198.267,122.191,198.267 M122.216,197.439c0.2,0,0.295-0.082,0.295-0.082l-0.295-1.747l-0.296,1.747
			C121.92,197.357,122.015,197.439,122.216,197.439 M123.26,198.622l-0.68,0.17c0,0-0.015,0.084,0.062,0.208
			c0.078,0.125,0.167,0.159,0.167,0.159L123.26,198.622z M123.265,198.121l1.008-1.617l-1.418,1.273c0,0,0.009,0.124,0.148,0.24
			C123.142,198.133,123.265,198.121,123.265,198.121"/>
		<path clip-path="url(#SVGID_4_)" fill="#8A8C8E" d="M129.237,207.79c1.786,0,3.234-1.448,3.234-3.234
			c0-1.785-1.448-3.233-3.234-3.233s-3.234,1.448-3.234,3.233C126.003,206.341,127.451,207.79,129.237,207.79"/>
		<path clip-path="url(#SVGID_4_)" fill="#E6E7E8" d="M131.763,204.439l2.133-0.768l-2.262-0.15c0,0-0.083,0.163-0.039,0.475
			C131.64,204.306,131.763,204.439,131.763,204.439 M131.478,205.656l1.708,0.026l-1.52-0.779c0,0-0.107,0.103-0.171,0.358
			C131.432,205.516,131.478,205.656,131.478,205.656 M130.859,206.285c-0.201,0.201-0.198,0.396-0.198,0.396l2.388,1.795
			l-1.795-2.388C131.254,206.088,131.06,206.084,130.859,206.285 M129.237,207.241c-0.314,0.007-0.47,0.156-0.47,0.156l0.506,2.433
			l0.421-2.448C129.694,207.381,129.552,207.236,129.237,207.241 M129.519,205.333l0.522,0.604l-0.017-0.799
			c0,0-0.129-0.055-0.3,0.01C129.551,205.215,129.519,205.333,129.519,205.333 M126.726,205.893l-1.429,2.023l2.022-1.431
			c0,0,0.028-0.229-0.173-0.431C126.944,205.854,126.726,205.893,126.726,205.893 M125.549,205.342l1.094,0.114
			c0,0,0.026-0.117-0.022-0.342c-0.048-0.225-0.119-0.32-0.119-0.32L125.549,205.342z M126.672,203.564l-1.791,0.482l1.82,0.355
			c0,0,0.081-0.138,0.071-0.422C126.762,203.696,126.672,203.564,126.672,203.564 M127.561,202.809
			c0.182-0.218,0.189-0.389,0.189-0.389l-1.969-1.105l1.43,1.748C127.21,203.063,127.377,203.026,127.561,202.809 M128.063,204.395
			c0.108-0.203,0.08-0.357,0.08-0.357l-1.083-0.192l0.765,0.79C127.824,204.635,127.955,204.597,128.063,204.395 M128.645,205.721
			c-0.222-0.056-0.356,0.047-0.356,0.047l0.076,1.097l0.582-0.933C128.946,205.932,128.867,205.776,128.645,205.721 M129.231,203.18
			l-0.548-0.953l-0.114,1.094c0,0,0.131,0.075,0.356,0.028C129.149,203.301,129.231,203.18,129.231,203.18 M129.271,201.882
			c0.314,0,0.463-0.129,0.463-0.129l-0.463-2.739l-0.464,2.739C128.807,201.753,128.956,201.882,129.271,201.882 M130.908,203.736
			l-1.067,0.268c0,0-0.024,0.132,0.097,0.327c0.122,0.194,0.262,0.248,0.262,0.248L130.908,203.736z M130.916,202.951l1.58-2.535
			l-2.222,1.997c0,0,0.013,0.193,0.231,0.377C130.722,202.971,130.916,202.951,130.916,202.951"/>
		<path clip-path="url(#SVGID_4_)" fill="#8A8C8E" d="M130.645,215.804c1.161,0,2.102-0.941,2.102-2.103s-0.941-2.102-2.102-2.102
			c-1.161,0-2.102,0.94-2.102,2.102S129.484,215.804,130.645,215.804"/>
		<path clip-path="url(#SVGID_4_)" fill="#E6E7E8" d="M132.287,213.625l1.387-0.499l-1.47-0.097c0,0-0.054,0.104-0.026,0.307
			C132.206,213.54,132.287,213.625,132.287,213.625 M132.101,214.417l1.111,0.018l-0.989-0.507c0,0-0.069,0.066-0.11,0.232
			C132.071,214.326,132.101,214.417,132.101,214.417 M131.699,214.826c-0.13,0.131-0.128,0.257-0.128,0.257l1.552,1.167
			l-1.167-1.552C131.956,214.698,131.83,214.696,131.699,214.826 M130.646,215.448c-0.205,0.003-0.306,0.101-0.306,0.101
			l0.329,1.581l0.273-1.591C130.942,215.539,130.85,215.444,130.646,215.448 M130.828,214.207l0.339,0.395l-0.011-0.521
			c0,0-0.084-0.036-0.195,0.007C130.85,214.13,130.828,214.207,130.828,214.207 M129.013,214.572l-0.929,1.313l1.314-0.929
			c0,0,0.018-0.149-0.112-0.28C129.155,214.545,129.013,214.572,129.013,214.572 M128.248,214.212l0.711,0.074
			c0,0,0.017-0.076-0.014-0.222c-0.031-0.146-0.077-0.208-0.077-0.208L128.248,214.212z M128.978,213.058l-1.164,0.313l1.183,0.231
			c0,0,0.052-0.089,0.046-0.274C129.036,213.143,128.978,213.058,128.978,213.058 M129.555,212.567
			c0.119-0.143,0.123-0.253,0.123-0.253l-1.28-0.718l0.93,1.136C129.328,212.732,129.436,212.708,129.555,212.567 M129.882,213.597
			c0.07-0.132,0.051-0.232,0.051-0.232l-0.703-0.125l0.497,0.513C129.727,213.752,129.812,213.729,129.882,213.597 M130.26,214.458
			c-0.145-0.036-0.231,0.031-0.231,0.031l0.049,0.713l0.378-0.605C130.456,214.597,130.405,214.496,130.26,214.458 M130.642,212.808
			l-0.357-0.62l-0.074,0.711c0,0,0.085,0.049,0.231,0.018S130.642,212.808,130.642,212.808 M130.667,211.963
			c0.204,0,0.301-0.084,0.301-0.084l-0.301-1.779l-0.302,1.779C130.365,211.879,130.462,211.963,130.667,211.963 M131.73,213.168
			l-0.693,0.174c0,0-0.016,0.087,0.063,0.213c0.079,0.127,0.17,0.16,0.17,0.16L131.73,213.168z M131.736,212.659l1.027-1.648
			l-1.445,1.299c0,0,0.009,0.126,0.151,0.243C131.61,212.671,131.736,212.659,131.736,212.659"/>
		<path clip-path="url(#SVGID_4_)" fill="#8A8C8E" d="M121.477,215.556c1.475,0,2.671-1.196,2.671-2.671
			c0-1.476-1.196-2.672-2.671-2.672s-2.671,1.196-2.671,2.672C118.806,214.36,120.002,215.556,121.477,215.556"/>
		<path clip-path="url(#SVGID_4_)" fill="#E6E7E8" d="M123.564,212.789l1.761-0.634l-1.868-0.124c0,0-0.068,0.134-0.032,0.391
			C123.461,212.679,123.564,212.789,123.564,212.789 M123.328,213.793l1.411,0.022l-1.256-0.645c0,0-0.088,0.085-0.14,0.296
			C123.29,213.678,123.328,213.793,123.328,213.793 M122.816,214.314c-0.166,0.166-0.163,0.326-0.163,0.326l1.972,1.482
			l-1.482-1.973C123.144,214.15,122.982,214.148,122.816,214.314 M121.479,215.103c-0.26,0.005-0.389,0.129-0.389,0.129l0.418,2.009
			l0.347-2.021C121.854,215.219,121.737,215.099,121.479,215.103 M121.709,213.527l0.432,0.5l-0.015-0.66
			c0,0-0.106-0.046-0.248,0.009C121.737,213.43,121.709,213.527,121.709,213.527 M119.403,213.99l-1.181,1.67l1.67-1.18
			c0,0,0.024-0.19-0.142-0.356S119.403,213.99,119.403,213.99 M118.433,213.535l0.903,0.094c0,0,0.021-0.097-0.018-0.281
			c-0.04-0.187-0.098-0.266-0.098-0.266L118.433,213.535z M119.359,212.066l-1.479,0.398l1.503,0.295c0,0,0.066-0.114,0.058-0.35
			C119.434,212.175,119.359,212.066,119.359,212.066 M120.092,211.443c0.151-0.18,0.156-0.321,0.156-0.321l-1.626-0.913l1.181,1.443
			C119.803,211.652,119.941,211.622,120.092,211.443 M120.507,212.751c0.089-0.167,0.066-0.295,0.066-0.295l-0.894-0.159
			l0.631,0.653C120.311,212.951,120.418,212.919,120.507,212.751 M120.988,213.848c-0.184-0.046-0.294,0.039-0.294,0.039
			l0.062,0.905l0.481-0.771C121.237,214.022,121.172,213.893,120.988,213.848 M121.474,211.749l-0.454-0.787l-0.094,0.903
			c0,0,0.109,0.063,0.294,0.023C121.405,211.849,121.474,211.749,121.474,211.749 M121.504,210.677c0.26,0,0.383-0.107,0.383-0.107
			l-0.383-2.262l-0.383,2.262C121.122,210.57,121.246,210.677,121.504,210.677 M122.857,212.208l-0.881,0.221
			c0,0-0.02,0.108,0.08,0.27c0.101,0.161,0.217,0.205,0.217,0.205L122.857,212.208z M122.863,211.56l1.305-2.094l-1.836,1.648
			c0,0,0.012,0.16,0.192,0.312C122.704,211.577,122.863,211.56,122.863,211.56"/>
		<path clip-path="url(#SVGID_4_)" d="M110.337,109.343v-1.901h-4.133v-1.28h3.363v-1.901h-3.363v-1.168h3.974v-1.9h-6.644v8.15
			H110.337z M98.042,106.5c1.246,0,1.427,0.351,1.427,1.416c0,0.725,0.068,1.246,0.136,1.426h2.705v-0.248
			c-0.317,0-0.283-0.362-0.283-1.427c0-1.642-0.521-1.846-1.381-2.162c0.951-0.261,1.369-1.053,1.369-1.993
			c0-1.585-0.894-2.32-3.611-2.32h-3.848v8.15h2.67V106.5H98.042z M97.227,103.093h1.246c0.623,0,1.076,0.272,1.076,0.85
			c0,0.567-0.441,0.771-1.268,0.771h-1.054V103.093z M85.227,105.789c0,2.807,1.403,3.769,3.928,3.769
			c2.706,0,3.917-1.143,3.917-3.757v-4.608H90.4v4.879c0,0.884-0.283,1.495-1.246,1.495c-1.099,0-1.257-0.691-1.257-1.495v-4.879
			h-2.671V105.789z M83.833,103.558c-0.193-1.426-1.222-2.58-3.487-2.58c-2.038,0-3.532,0.871-3.532,2.602
			c0,3.115,4.688,2.265,4.688,3.5c0,0.385-0.442,0.6-1.111,0.6c-0.26,0-0.544-0.068-0.759-0.204
			c-0.226-0.136-0.385-0.351-0.441-0.645h-2.558c0.057,1.471,1.46,2.727,3.611,2.727c2.242,0,3.815-0.916,3.815-2.807
			c0-2.967-4.687-2.208-4.687-3.431c0-0.295,0.26-0.464,0.849-0.464c0.261,0,0.499,0.045,0.691,0.147
			c0.193,0.102,0.34,0.272,0.386,0.555H83.833z M71.539,100.978c-2.537,0-4.268,1.663-4.268,4.222c0,2.774,1.709,4.358,4.268,4.358
			c2.412,0,4.279-1.561,4.279-4.335C75.817,103.071,74.448,100.978,71.539,100.978 M71.516,102.969
			c1.178-0.034,1.631,1.144,1.631,2.254c0,1.347-0.453,2.344-1.608,2.344c-1.28,0-1.597-1.303-1.597-2.344
			C69.941,104.192,70.304,102.969,71.516,102.969 M61.971,109.343v-2.536h1.348c2.344,0,3.385-1.109,3.385-2.864
			c0-1.676-1.132-2.75-3.475-2.75h-3.928v8.15H61.971z M61.971,104.906v-1.813h0.759c0.567,0,1.428,0.102,1.428,0.861
			c0,0.703-0.454,0.952-1.077,0.952H61.971z M54.25,107.057l1.313,2.286h3l-2.773-4.233l2.751-3.917h-3l-1.166,2.083l-1.155-2.083
			h-3l2.604,3.917l-2.887,4.233h3L54.25,107.057z M49.335,109.343v-1.901h-4.132v-1.28h3.362v-1.901h-3.362v-1.168h3.974v-1.9
			h-6.645v8.15H49.335z"/>
	</g>
	<text transform="matrix(1 0 0 1 110.3379 109.3232)" font-family="'HelveticaLTStd-Blk'" font-size="11.3219"> </text>
	<g>
		<defs>
			<rect id="SVGID_5_" width="510.236" height="240.945"/>
		</defs>
		<clipPath id="SVGID_6_">
			<use xlink:href="#SVGID_5_"  overflow="visible"/>
		</clipPath>
		<path clip-path="url(#SVGID_6_)" d="M89.563,122.929c2.117,0,3.509-0.634,3.509-2.456c0-0.884-0.475-1.642-1.358-1.868
			c0.521-0.328,1.064-0.94,1.064-1.778c0-1.619-1.46-2.048-3.294-2.048H85.59v8.15H89.563z M89.201,116.679
			c0.566,0,1.088,0.012,1.088,0.646c0,0.476-0.386,0.714-0.918,0.714H88.26v-1.36H89.201z M89.11,119.521
			c0.85,0,1.473,0.045,1.473,0.759c0,0.612-0.499,0.748-1.156,0.748H88.26v-1.507H89.11z M76.951,116.917h2.401v6.012h2.67v-6.012
			h2.401v-2.138h-7.472V116.917z M68.108,114.563c-2.536,0-4.267,1.664-4.267,4.223c0,2.774,1.709,4.358,4.267,4.358
			c2.412,0,4.279-1.561,4.279-4.336C72.387,116.657,71.019,114.563,68.108,114.563 M68.086,116.555
			c1.178-0.034,1.631,1.144,1.631,2.253c0,1.348-0.453,2.345-1.609,2.345c-1.279,0-1.597-1.303-1.597-2.345
			C66.511,117.778,66.875,116.555,68.086,116.555 M55.576,116.917h2.4v6.012h2.671v-6.012h2.4v-2.138h-7.471V116.917z"/>
		<path clip-path="url(#SVGID_6_)" d="M366.988,109.343v-1.901h-4.134v-1.28h3.363v-1.901h-3.363v-1.168h3.975v-1.9h-6.645v8.15
			H366.988z M354.693,106.5c1.245,0,1.427,0.351,1.427,1.416c0,0.725,0.067,1.246,0.136,1.426h2.705v-0.248
			c-0.317,0-0.283-0.362-0.283-1.427c0-1.642-0.521-1.846-1.381-2.162c0.951-0.261,1.369-1.053,1.369-1.993
			c0-1.585-0.895-2.32-3.611-2.32h-3.849v8.15h2.671V106.5H354.693z M353.877,103.093h1.246c0.623,0,1.076,0.272,1.076,0.85
			c0,0.567-0.441,0.771-1.269,0.771h-1.054V103.093z M341.877,105.789c0,2.807,1.403,3.769,3.928,3.769
			c2.706,0,3.917-1.143,3.917-3.757v-4.608h-2.671v4.879c0,0.883-0.283,1.495-1.246,1.495c-1.099,0-1.257-0.691-1.257-1.495v-4.879
			h-2.671V105.789z M340.484,103.558c-0.193-1.426-1.223-2.58-3.487-2.58c-2.038,0-3.532,0.871-3.532,2.602
			c0,3.115,4.688,2.265,4.688,3.5c0,0.385-0.442,0.6-1.111,0.6c-0.26,0-0.544-0.068-0.759-0.204
			c-0.227-0.136-0.386-0.351-0.441-0.645h-2.558c0.057,1.471,1.46,2.727,3.61,2.727c2.242,0,3.815-0.916,3.815-2.807
			c0-2.967-4.688-2.208-4.688-3.431c0-0.295,0.261-0.464,0.85-0.464c0.261,0,0.499,0.045,0.69,0.147
			c0.193,0.102,0.341,0.272,0.387,0.555H340.484z M328.188,100.978c-2.536,0-4.268,1.663-4.268,4.222
			c0,2.774,1.709,4.358,4.268,4.358c2.412,0,4.279-1.561,4.279-4.335C332.468,103.071,331.098,100.978,328.188,100.978
			 M328.166,102.969c1.178-0.034,1.631,1.144,1.631,2.254c0,1.347-0.453,2.344-1.608,2.344c-1.279,0-1.597-1.303-1.597-2.344
			C326.592,104.192,326.954,102.969,328.166,102.969 M318.621,109.343v-2.536h1.348c2.344,0,3.385-1.109,3.385-2.864
			c0-1.676-1.132-2.75-3.475-2.75h-3.928v8.15H318.621z M318.621,104.906v-1.813h0.759c0.567,0,1.428,0.102,1.428,0.861
			c0,0.703-0.454,0.952-1.077,0.952H318.621z M310.899,107.057l1.313,2.286h3l-2.773-4.233l2.751-3.917h-3l-1.166,2.083
			l-1.154-2.083h-3l2.604,3.917l-2.887,4.233h3L310.899,107.057z M305.986,109.343v-1.901h-4.134v-1.28h3.363v-1.901h-3.363v-1.168
			h3.975v-1.9h-6.645v8.15H305.986z"/>
	</g>
	<text transform="matrix(1 0 0 1 366.9873 109.3232)" font-family="'HelveticaLTStd-Blk'" font-size="11.3219"> </text>
	<g>
		<defs>
			<rect id="SVGID_7_" width="510.236" height="240.945"/>
		</defs>
		<clipPath id="SVGID_8_">
			<use xlink:href="#SVGID_7_"  overflow="visible"/>
		</clipPath>
		<path clip-path="url(#SVGID_8_)" d="M346.214,122.929c2.117,0,3.509-0.634,3.509-2.456c0-0.884-0.475-1.642-1.358-1.868
			c0.521-0.328,1.064-0.94,1.064-1.778c0-1.619-1.46-2.048-3.294-2.048h-3.895v8.15H346.214z M345.852,116.679
			c0.566,0,1.087,0.012,1.087,0.646c0,0.476-0.385,0.714-0.917,0.714h-1.11v-1.36H345.852z M345.761,119.521
			c0.85,0,1.473,0.045,1.473,0.759c0,0.612-0.499,0.748-1.155,0.748h-1.167v-1.507H345.761z M333.602,116.917h2.401v6.012h2.67
			v-6.012h2.399v-2.138h-7.471V116.917z M324.759,114.563c-2.536,0-4.267,1.664-4.267,4.223c0,2.774,1.709,4.358,4.267,4.358
			c2.412,0,4.279-1.561,4.279-4.336C329.038,116.657,327.669,114.563,324.759,114.563 M324.736,116.555
			c1.179-0.034,1.632,1.144,1.632,2.253c0,1.348-0.453,2.345-1.609,2.345c-1.279,0-1.597-1.303-1.597-2.345
			C323.162,117.778,323.524,116.555,324.736,116.555 M312.227,116.917h2.4v6.012h2.671v-6.012h2.399v-2.138h-7.471V116.917z"/>
		<path clip-path="url(#SVGID_8_)" d="M483.214,101.193h-2.501v8.15h2.559v-2.581l-0.103-1.856l2.911,4.437h2.501v-8.15h-2.558
			v2.592l0.102,1.856L483.214,101.193z M475.21,100.978c-2.536,0-4.267,1.663-4.267,4.222c0,2.774,1.708,4.358,4.267,4.358
			c2.412,0,4.279-1.561,4.279-4.335C479.489,103.071,478.12,100.978,475.21,100.978 M475.188,102.969
			c1.178-0.034,1.631,1.144,1.631,2.254c0,1.347-0.453,2.344-1.609,2.344c-1.28,0-1.597-1.303-1.597-2.344
			C473.613,104.192,473.977,102.969,475.188,102.969 M469.628,101.193h-2.671v8.15h2.671V101.193z M458.274,103.331h2.399v6.012
			h2.67v-6.012h2.401v-2.138h-7.471V103.331z M457.05,101.193h-2.671v8.15h2.671V101.193z M448.887,106.5
			c1.246,0,1.428,0.351,1.428,1.416c0,0.725,0.067,1.246,0.136,1.426h2.705v-0.248c-0.317,0-0.283-0.362-0.283-1.427
			c0-1.642-0.521-1.846-1.381-2.162c0.951-0.261,1.369-1.053,1.369-1.993c0-1.585-0.894-2.32-3.611-2.32h-3.848v8.15h2.67V106.5
			H448.887z M448.071,103.093h1.246c0.624,0,1.077,0.272,1.077,0.85c0,0.567-0.442,0.771-1.27,0.771h-1.054V103.093z
			 M436.887,103.331h2.4v6.012h2.671v-6.012h2.4v-2.138h-7.472V103.331z M427.897,105.789c0,2.807,1.402,3.769,3.928,3.769
			c2.706,0,3.917-1.143,3.917-3.757v-4.608h-2.671v4.879c0,0.883-0.283,1.495-1.246,1.495c-1.099,0-1.257-0.691-1.257-1.495v-4.879
			h-2.671V105.789z M420.956,101.193h-2.501v8.15h2.557v-2.581l-0.102-1.856l2.911,4.437h2.501v-8.15h-2.557v2.592l0.102,1.856
			L420.956,101.193z M417.321,109.343v-1.901h-3.668v-6.249h-2.67v8.15H417.321z M404.053,109.343l0.307-1.076h2.66l0.316,1.076
			h2.66l-2.921-8.15h-2.716l-2.921,8.15H404.053z M406.555,106.571h-1.687l0.826-2.922L406.555,106.571z M393.704,109.343v-2.762
			l-0.057-1.268l-0.113-1.2h0.023l1.482,5.23h1.858l1.482-5.23h0.023l-0.136,1.472l-0.034,1.268v2.49h2.398v-8.15h-3.226
			l-1.438,5.082l-1.438-5.082h-3.227v8.15H393.704z"/>
		<path clip-path="url(#SVGID_8_)" d="M401.341,142.792h-3.033v2.059h3.033V142.792z M393.313,143.876
			c1.246,0,1.428,0.352,1.428,1.416c0,0.725,0.067,1.245,0.135,1.426h2.705v-0.247c-0.316,0-0.282-0.363-0.282-1.428
			c0-1.643-0.521-1.846-1.382-2.162c0.951-0.261,1.37-1.054,1.37-1.993c0-1.585-0.894-2.32-3.61-2.32h-3.85v8.15h2.67v-2.842
			H393.313z M392.497,140.469h1.247c0.623,0,1.076,0.271,1.076,0.849c0,0.567-0.442,0.771-1.269,0.771h-1.055V140.469z
			 M388.625,146.718v-1.9h-4.132v-1.281h3.363v-1.9h-3.363v-1.167h3.975v-1.901h-6.646v8.15H388.625z M375.188,146.718h2.683
			l2.83-8.15h-2.693l-1.483,5.422l-1.426-5.422h-2.694L375.188,146.718z M367.433,138.353c-2.537,0-4.269,1.663-4.269,4.222
			c0,2.774,1.709,4.358,4.269,4.358c2.412,0,4.278-1.562,4.278-4.335C371.711,140.446,370.342,138.353,367.433,138.353
			 M367.409,140.344c1.178-0.034,1.631,1.144,1.631,2.254c0,1.347-0.453,2.344-1.607,2.344c-1.28,0-1.598-1.302-1.598-2.344
			C365.835,141.567,366.197,140.344,367.409,140.344"/>
		<path clip-path="url(#SVGID_8_)" d="M416.97,155.823h-3.655v1.765h1.177c-0.135,0.567-0.826,0.941-1.369,0.941
			c-1.349,0-1.711-1.055-1.711-2.208c0-1.439,0.498-2.39,1.552-2.39c0.691,0,1.179,0.361,1.37,1.03h2.535
			c-0.328-2.004-1.901-3.022-3.86-3.022c-2.638,0-4.268,1.788-4.268,4.393c0,2.842,1.867,4.188,3.951,4.188
			c1.279,0,2.015-0.476,2.457-0.996l0.102,0.803h1.72V155.823z M402.15,152.154h-2.501v8.151h2.557v-2.581l-0.102-1.857l2.911,4.438
			h2.501v-8.151h-2.558v2.593l0.103,1.856L402.15,152.154z M397.995,152.154h-2.671v8.15h2.671V152.154z M389.9,160.305
			c2.616,0,4.324-1.178,4.324-4.245c0-2.685-1.63-3.906-4.257-3.906h-3.576v8.151H389.9z M389.063,154.055h0.509
			c1.428,0,1.983,0.452,1.983,2.151c0,1.54-0.681,2.197-1.927,2.197h-0.565V154.055z M381.092,152.154h-2.208l-0.974,5.038h-0.021
			l-0.918-5.038h-2.58l2.025,8.151h2.627l0.928-4.732h0.022l0.94,4.732h2.626l2.026-8.151h-2.581l-0.917,5.038h-0.022
			L381.092,152.154z M369.611,151.939c-2.536,0-4.268,1.663-4.268,4.223c0,2.774,1.708,4.358,4.268,4.358
			c2.412,0,4.279-1.562,4.279-4.336C373.891,154.033,372.521,151.939,369.611,151.939 M369.589,153.931
			c1.179-0.034,1.631,1.143,1.631,2.253c0,1.348-0.452,2.345-1.608,2.345c-1.28,0-1.597-1.303-1.597-2.345
			C368.015,155.154,368.377,153.931,369.589,153.931 M360.271,157.462c1.246,0,1.427,0.352,1.427,1.416
			c0,0.726,0.068,1.246,0.136,1.427h2.704v-0.248c-0.317,0-0.283-0.362-0.283-1.428c0-1.642-0.52-1.846-1.38-2.162
			c0.95-0.261,1.369-1.053,1.369-1.993c0-1.584-0.894-2.32-3.611-2.32h-3.849v8.151h2.671v-2.843H360.271z M359.455,154.055h1.246
			c0.623,0,1.076,0.271,1.076,0.85c0,0.567-0.442,0.771-1.27,0.771h-1.053V154.055z M355.696,155.267
			c-0.215-2.095-1.608-3.328-4.099-3.328c-2.275,0-4.063,1.641-4.063,4.278c0,2.65,1.63,4.303,4.324,4.303
			c2.15,0,3.657-1.268,3.895-3.373h-2.569c-0.103,0.78-0.511,1.382-1.37,1.382c-1.359,0-1.608-1.076-1.608-2.22
			c0-1.574,0.566-2.378,1.506-2.378c0.838,0,1.37,0.486,1.449,1.336H355.696z"/>
		<path clip-path="url(#SVGID_8_)" d="M192.088,106.501c1.247,0,1.428,0.351,1.428,1.416c0,0.725,0.068,1.246,0.136,1.426h2.704
			v-0.248c-0.317,0-0.283-0.362-0.283-1.427c0-1.642-0.52-1.846-1.38-2.163c0.95-0.26,1.369-1.052,1.369-1.993
			c0-1.584-0.894-2.32-3.611-2.32h-3.849v8.151h2.671v-2.842H192.088z M191.273,103.093h1.246c0.623,0,1.076,0.272,1.076,0.85
			c0,0.567-0.442,0.771-1.269,0.771h-1.053V103.093z M183.19,100.977c-2.537,0-4.268,1.663-4.268,4.223
			c0,2.774,1.709,4.358,4.268,4.358c2.411,0,4.279-1.561,4.279-4.336C187.47,103.07,186.1,100.977,183.19,100.977 M183.167,102.969
			c1.178-0.034,1.631,1.143,1.631,2.253c0,1.348-0.453,2.345-1.608,2.345c-1.28,0-1.597-1.303-1.597-2.345
			C181.594,104.192,181.956,102.969,183.167,102.969 M173.76,100.977c-2.537,0-4.268,1.663-4.268,4.223
			c0,2.774,1.709,4.358,4.268,4.358c2.411,0,4.279-1.561,4.279-4.336C178.039,103.07,176.668,100.977,173.76,100.977
			 M173.737,102.969c1.178-0.034,1.631,1.143,1.631,2.253c0,1.348-0.453,2.345-1.608,2.345c-1.28,0-1.598-1.303-1.598-2.345
			C172.162,104.192,172.524,102.969,173.737,102.969 M164.191,109.343v-2.536h1.348c2.344,0,3.385-1.109,3.385-2.864
			c0-1.676-1.132-2.751-3.475-2.751h-3.929v8.151H164.191z M164.191,104.906v-1.813h0.759c0.567,0,1.428,0.102,1.428,0.861
			c0,0.703-0.454,0.952-1.077,0.952H164.191z"/>
	</g>
	<text transform="matrix(1 0 0 1 196.3574 109.3232)" font-family="'HelveticaLTStd-Blk'" font-size="11.3219"> </text>
	<g>
		<defs>
			<rect id="SVGID_9_" width="510.236" height="240.945"/>
		</defs>
		<clipPath id="SVGID_10_">
			<use xlink:href="#SVGID_9_"  overflow="visible"/>
		</clipPath>
		<path clip-path="url(#SVGID_10_)" d="M215.932,114.779h-2.5v8.15h2.557v-2.581l-0.102-1.856l2.911,4.437h2.501v-8.15h-2.557v2.592
			l0.101,1.856L215.932,114.779z M207.928,114.564c-2.536,0-4.267,1.663-4.267,4.222c0,2.774,1.709,4.358,4.267,4.358
			c2.412,0,4.279-1.561,4.279-4.335C212.207,116.657,210.838,114.564,207.928,114.564 M207.906,116.555
			c1.178-0.034,1.631,1.144,1.631,2.254c0,1.347-0.453,2.344-1.609,2.344c-1.279,0-1.597-1.303-1.597-2.344
			C206.331,117.778,206.694,116.555,207.906,116.555 M202.346,114.779h-2.671v8.15h2.671V114.779z M190.992,116.917h2.4v6.012h2.671
			v-6.012h2.4v-2.138h-7.471V116.917z M185.613,122.929l0.306-1.076h2.66l0.317,1.076h2.661l-2.921-8.15h-2.717l-2.92,8.15H185.613z
			 M188.115,120.157h-1.686l0.826-2.922L188.115,120.157z M182.522,122.929v-1.901h-3.669v-6.249h-2.67v8.15H182.522z
			 M174.449,114.779h-2.671v8.15h2.671V114.779z M163.095,116.917h2.4v6.012h2.671v-6.012h2.4v-2.138h-7.471V116.917z
			 M156.595,114.779h-2.501v8.15h2.557v-2.581l-0.101-1.856l2.911,4.437h2.5v-8.15h-2.557v2.592l0.102,1.856L156.595,114.779z
			 M152.802,122.929v-1.901h-4.132v-1.28h3.362v-1.901h-3.362v-1.168h3.974v-1.9h-6.645v8.15H152.802z M139.364,122.929h2.683
			l2.83-8.15h-2.694l-1.483,5.422l-1.427-5.422h-2.694L139.364,122.929z"/>
	</g>
	<path d="M131.946,145.116h2.683l2.83-8.149h-2.694l-1.483,5.422l-1.426-5.422h-2.694L131.946,145.116z M128.04,136.966h-2.671
		v8.149h2.671V136.966z M118.529,145.116v-3.159h2.526v3.159h2.671v-8.149h-2.671v2.751h-2.526v-2.751h-2.671v8.149H118.529z"/>
	<text transform="matrix(1 0 0 1 137.459 145.1167)" font-family="'HelveticaLTStd-Blk'" font-size="11.3219"> </text>
	<g>
		<defs>
			<rect id="SVGID_11_" width="510.236" height="240.945"/>
		</defs>
		<clipPath id="SVGID_12_">
			<use xlink:href="#SVGID_11_"  overflow="visible"/>
		</clipPath>
		<path clip-path="url(#SVGID_12_)" d="M156.741,150.821h-2.619v8.537h2.678v-2.703l-0.106-1.945l3.049,4.648h2.62v-8.537h-2.679
			v2.715l0.107,1.945L156.741,150.821z M148.357,150.595c-2.657,0-4.471,1.741-4.471,4.423c0,2.905,1.79,4.565,4.471,4.565
			c2.526,0,4.482-1.636,4.482-4.542C152.839,152.788,151.405,150.595,148.357,150.595 M148.333,152.681
			c1.234-0.035,1.709,1.197,1.709,2.36c0,1.412-0.475,2.456-1.685,2.456c-1.341,0-1.673-1.364-1.673-2.456
			C146.684,153.961,147.064,152.681,148.333,152.681 M142.509,150.821h-2.798v8.538h2.798V150.821z M130.615,153.061h2.515v6.297
			h2.797v-6.297h2.514v-2.24h-7.826V153.061z M129.831,154.081c-0.225-2.193-1.684-3.485-4.293-3.485
			c-2.384,0-4.257,1.719-4.257,4.482c0,2.775,1.707,4.506,4.529,4.506c2.254,0,3.831-1.328,4.08-3.533h-2.692
			c-0.107,0.818-0.534,1.447-1.435,1.447c-1.423,0-1.684-1.127-1.684-2.325c0-1.649,0.593-2.491,1.577-2.491
			c0.878,0,1.435,0.51,1.518,1.399H129.831z M120.486,159.358v-1.991h-4.329v-1.341h3.522v-1.991h-3.522v-1.223h4.162v-1.991h-6.96
			v8.537H120.486z M108.222,159.358v-3h3.06v-1.991h-3.06v-1.555h3.843v-1.991h-6.64v8.537H108.222z M98.106,150.821h-2.62v8.537
			h2.679v-2.703l-0.107-1.945l3.05,4.648h2.619v-8.537h-2.678v2.715l0.106,1.945L98.106,150.821z M93.753,150.821h-2.797v8.538
			h2.797V150.821z"/>
	</g>
</g>
</svg>
