<?xml version="1.0" encoding="utf-8"?>
<!-- Generator: Adobe Illustrator 23.0.1, SVG Export Plug-In . SVG Version: 6.00 Build 0)  -->
<svg version="1.1" id="Layer_1" xmlns="http://www.w3.org/2000/svg" xmlns:xlink="http://www.w3.org/1999/xlink" x="0px" y="0px"
	 viewBox="0 0 510.2 240.9" style="enable-background:new 0 0 510.2 240.9;" xml:space="preserve">
<style type="text/css">
	.st0{clip-path:url(#SVGID_2_);fill:#808285;}
	.st1{clip-path:url(#SVGID_4_);fill:#808285;}
	.st2{clip-path:url(#SVGID_6_);fill:#D1D3D4;}
	.st3{clip-path:url(#SVGID_8_);fill:#D1D3D4;}
	.st4{fill:#D1D3D4;}
	.st5{clip-path:url(#SVGID_10_);fill:#DCDDDE;}
	.st6{clip-path:url(#SVGID_12_);fill:#DCDDDE;}
	.st7{clip-path:url(#SVGID_14_);fill:#DCDDDE;}
	.st8{clip-path:url(#SVGID_16_);fill:#DCDDDE;}
	.st9{clip-path:url(#SVGID_18_);fill:#B1B3B6;}
	.st10{clip-path:url(#SVGID_20_);fill:#D1D3D4;}
	.st11{clip-path:url(#SVGID_22_);fill:#D1D3D4;}
	.st12{clip-path:url(#SVGID_24_);fill:#D1D3D4;}
	.st13{clip-path:url(#SVGID_26_);fill:#B1B3B6;}
	.st14{clip-path:url(#SVGID_28_);fill:#B1B3B6;}
	.st15{clip-path:url(#SVGID_30_);fill:#B1B3B6;}
	.st16{clip-path:url(#SVGID_32_);fill:#DCDDDE;}
	.st17{clip-path:url(#SVGID_34_);fill:#DCDDDE;}
	.st18{clip-path:url(#SVGID_36_);fill:#DCDDDE;}
	.st19{clip-path:url(#SVGID_38_);fill:#D1D3D4;}
	.st20{clip-path:url(#SVGID_40_);fill:#D1D3D4;}
	.st21{clip-path:url(#SVGID_42_);fill:#B1B3B6;}
	.st22{clip-path:url(#SVGID_44_);fill:#E6E7E8;}
	.st23{clip-path:url(#SVGID_46_);fill:#B1B3B6;}
	.st24{clip-path:url(#SVGID_48_);fill:#E6E7E8;}
	.st25{clip-path:url(#SVGID_50_);fill:#B1B3B6;}
	.st26{clip-path:url(#SVGID_52_);fill:#E6E7E8;}
	.st27{clip-path:url(#SVGID_54_);fill:#B1B3B6;}
	.st28{clip-path:url(#SVGID_56_);fill:#E6E7E8;}
	.st29{clip-path:url(#SVGID_58_);fill:#B1B3B6;}
	.st30{clip-path:url(#SVGID_60_);fill:#E6E7E8;}
	.st31{clip-path:url(#SVGID_62_);fill:#B1B3B6;}
	.st32{clip-path:url(#SVGID_64_);fill:#E6E7E8;}
	.st33{clip-path:url(#SVGID_66_);}
	.st34{font-family:'Helvetica';}
	.st35{font-size:11.3219px;}
	.st36{clip-path:url(#SVGID_68_);}
	.st37{clip-path:url(#SVGID_70_);}
	.st38{clip-path:url(#SVGID_72_);}
	.st39{clip-path:url(#SVGID_74_);}
	.st40{clip-path:url(#SVGID_76_);}
	.st41{clip-path:url(#SVGID_78_);}
	.st42{clip-path:url(#SVGID_80_);}
	.st43{clip-path:url(#SVGID_82_);}
	.st44{clip-path:url(#SVGID_84_);}
</style>
<g>
	<g>
		<defs>
			<rect id="SVGID_1_" y="0" width="510.2" height="240.9"/>
		</defs>
		<clipPath id="SVGID_2_">
			<use xlink:href="#SVGID_1_"  style="overflow:visible;"/>
		</clipPath>
		<path class="st0" d="M31,179.6c19.8,32,55.3,53.4,95.7,53.4s75.9-21.3,95.7-53.4l-95.7-55.2L31,179.6z M123.3,118.5V8
			C62.7,9.8,14.2,59.4,14.2,120.4c0,19.3,4.9,37.4,13.4,53.3L123.3,118.5z M239.1,120.4C239.1,59.4,190.6,9.8,130,8v110.5l95.7,55.3
			C234.3,157.9,239.1,139.7,239.1,120.4"/>
	</g>
	<g>
		<defs>
			<rect id="SVGID_3_" y="0" width="510.2" height="240.9"/>
		</defs>
		<clipPath id="SVGID_4_">
			<use xlink:href="#SVGID_3_"  style="overflow:visible;"/>
		</clipPath>
		<path class="st1" d="M287.6,179.6c19.8,32,55.3,53.4,95.7,53.4s75.9-21.3,95.7-53.4l-95.7-55.2L287.6,179.6z M379.9,118.5V8
			c-60.6,1.8-109.1,51.4-109.1,112.4c0,19.3,4.9,37.4,13.4,53.3L379.9,118.5z M495.8,120.4c0-61-48.6-110.6-109.1-112.4v110.5
			l95.7,55.3C490.9,157.9,495.8,139.7,495.8,120.4"/>
	</g>
	<g>
		<defs>
			<rect id="SVGID_5_" y="0" width="510.2" height="240.9"/>
		</defs>
		<clipPath id="SVGID_6_">
			<use xlink:href="#SVGID_5_"  style="overflow:visible;"/>
		</clipPath>
		<path class="st2" d="M73.1,55.2c-0.3,0.6-0.1,1.3,0.4,1.6c0.6,0.3,1.3,0.1,1.6-0.4c0.3-0.6,0.1-1.3-0.4-1.6
			C74.1,54.4,73.4,54.6,73.1,55.2 M66.6,51.8c0-3.3-2.7-6-6-6s-6,2.7-6,6s2.7,6,6,6C63.9,57.8,66.6,55.1,66.6,51.8 M71.4,49.5
			c-0.3-0.6-1-0.8-1.6-0.4c-0.6,0.3-0.8,1-0.4,1.6c0.3,0.6,1,0.8,1.6,0.4C71.5,50.8,71.7,50.1,71.4,49.5 M71.4,54.2
			c0.3-0.6,0.1-1.3-0.4-1.6c-0.6-0.3-1.3-0.1-1.6,0.4c-0.3,0.6-0.1,1.3,0.4,1.6C70.3,54.9,71,54.7,71.4,54.2 M71.5,60.4
			c0,0,0.6-2.1-1.5-3c-2.1-0.9-3.4,1.3-3.4,1.3l-2.8,7.9l-2.5-4.5c0,0-0.8-2.8-5-3.1c-4.2-0.3-5.2,3.1-5.2,3.1l-4.2,13.6v20.7h10.2
			V79.3l3-8.7l2.6,4.3c0,0,0.9,1.1,2.1,0.9c1.2-0.2,1.7-1.3,1.7-1.3L71.5,60.4z M75.1,47.3c-0.3-0.6-1-0.8-1.6-0.4
			c-0.6,0.3-0.8,1-0.4,1.6c0.3,0.6,1,0.8,1.6,0.4C75.2,48.6,75.4,47.9,75.1,47.3 M76.5,52c0-0.6-0.5-1.2-1.2-1.2
			c-0.6,0-1.2,0.5-1.2,1.2c0,0.6,0.5,1.2,1.2,1.2C76,53.2,76.5,52.6,76.5,52 M78.9,45.2c-0.3-0.6-1-0.8-1.6-0.4
			c-0.6,0.3-0.8,1-0.4,1.6c0.3,0.6,1,0.8,1.6,0.4S79.2,45.7,78.9,45.2 M76.8,57.3c-0.3,0.6-0.1,1.3,0.4,1.6c0.6,0.3,1.3,0.1,1.6-0.4
			c0.3-0.6,0.1-1.3-0.4-1.6C77.9,56.6,77.2,56.8,76.8,57.3 M79.7,50.8c-0.6,0-1.2,0.5-1.2,1.2c0,0.6,0.5,1.2,1.2,1.2
			s1.2-0.5,1.2-1.2C80.8,51.3,80.3,50.8,79.7,50.8 M81.2,55.8c-0.6,0-1.2,0.5-1.2,1.2c0,0.6,0.5,1.2,1.2,1.2s1.2-0.5,1.2-1.2
			C82.3,56.3,81.8,55.8,81.2,55.8 M81.2,46.2c-0.6,0-1.2,0.5-1.2,1.2s0.5,1.2,1.2,1.2s1.2-0.5,1.2-1.2S81.8,46.2,81.2,46.2 M82.6,43
			c-0.3-0.6-1-0.8-1.6-0.4c-0.6,0.3-0.8,1-0.4,1.6c0.3,0.6,1,0.8,1.6,0.4C82.7,44.3,82.9,43.6,82.6,43 M86.4,40.8
			c-0.3-0.6-1-0.8-1.6-0.4c-0.6,0.3-0.8,1-0.4,1.6s1,0.8,1.6,0.4C86.5,42.1,86.7,41.4,86.4,40.8 M89.3,52c0,0.6-0.5,1.2-1.2,1.2
			c-0.6,0-1.2-0.5-1.2-1.2c0-0.6,0.5-1.2,1.2-1.2C88.8,50.8,89.3,51.3,89.3,52 M87.1,48.6c0,0.6-0.5,1.2-1.2,1.2s-1.2-0.5-1.2-1.2
			s0.5-1.2,1.2-1.2S87.1,47.9,87.1,48.6 M84.9,52c0,0.6-0.5,1.2-1.2,1.2s-1.2-0.5-1.2-1.2c0-0.6,0.5-1.2,1.2-1.2S84.9,51.3,84.9,52
			 M84.8,55.4c0-0.6,0.5-1.2,1.2-1.2s1.2,0.5,1.2,1.2s-0.5,1.2-1.2,1.2S84.8,56,84.8,55.4 M93.9,51.8c0-3.3-2.7-6-6-6
			c-3.3,0-6,2.7-6,6c0,3.3,2.7,6,6,6C91.2,57.8,93.9,55.1,93.9,51.8 M87.1,64.2c-0.3,0.6-1,0.8-1.6,0.4c-0.6-0.3-0.8-1-0.4-1.6
			c0.3-0.6,1-0.8,1.6-0.4C87.2,63,87.4,63.7,87.1,64.2 M83.3,62.1c-0.3,0.6-1,0.8-1.6,0.4c-0.6-0.3-0.8-1-0.4-1.6
			c0.3-0.6,1-0.8,1.6-0.4C83.5,60.8,83.7,61.5,83.3,62.1 M98.9,61.3c-1.5-1.6-3.1-1.5-3.1-1.5h-7.5h-1h-7.5c0,0-1.6-0.1-3.1,1.5
			c-2.6,2.7-1.9,5.6-1.9,5.6V87c0,0,0.2,2.1,2.5,1.9c2.3-0.1,2-1.7,2-1.7V69.4l0.7-0.1v27.1H87V89h1.3h0.4v7.4h6.8V69.3l0.7,0.1
			v17.8c0,0-0.3,1.6,2,1.7c2.3,0.1,2.5-1.9,2.5-1.9V66.9C100.8,66.9,101.5,64,98.9,61.3"/>
	</g>
	<g>
		<defs>
			<rect id="SVGID_7_" y="0" width="510.2" height="240.9"/>
		</defs>
		<clipPath id="SVGID_8_">
			<use xlink:href="#SVGID_7_"  style="overflow:visible;"/>
		</clipPath>
		<path class="st3" d="M329.7,54.8c-0.3,0.6-0.1,1.3,0.4,1.6c0.6,0.3,1.3,0.1,1.6-0.4c0.3-0.6,0.1-1.3-0.4-1.6
			C330.7,54,330,54.2,329.7,54.8 M323.2,51.4c0-3.3-2.7-6-6-6s-6,2.7-6,6c0,3.3,2.7,6,6,6S323.2,54.7,323.2,51.4 M328,49.1
			c-0.3-0.6-1-0.8-1.6-0.4c-0.6,0.3-0.8,1-0.4,1.6c0.3,0.6,1,0.8,1.6,0.4C328.1,50.4,328.3,49.7,328,49.1 M328,53.8
			c0.3-0.6,0.1-1.3-0.4-1.6c-0.6-0.3-1.3-0.1-1.6,0.4c-0.3,0.6-0.1,1.3,0.4,1.6C326.9,54.5,327.6,54.3,328,53.8 M328.1,60
			c0,0,0.6-2.1-1.5-3s-3.4,1.3-3.4,1.3l-2.8,7.9l-2.5-4.5c0,0-0.8-2.8-5-3.1c-4.2-0.3-5.2,3.1-5.2,3.1l-4.2,13.6V96h10.2V78.9l3-8.7
			l2.6,4.3c0,0,0.9,1.1,2.1,0.9c1.2-0.2,1.7-1.3,1.7-1.3L328.1,60z M331.7,46.9c-0.3-0.6-1-0.8-1.6-0.4c-0.6,0.3-0.8,1-0.4,1.6
			c0.3,0.6,1,0.8,1.6,0.4C331.9,48.2,332,47.5,331.7,46.9 M333.1,51.6c0-0.6-0.5-1.2-1.2-1.2s-1.2,0.5-1.2,1.2
			c0,0.6,0.5,1.2,1.2,1.2S333.1,52.2,333.1,51.6 M335.5,44.8c-0.3-0.6-1-0.8-1.6-0.4c-0.6,0.3-0.8,1-0.4,1.6c0.3,0.6,1,0.8,1.6,0.4
			C335.6,46.1,335.8,45.3,335.5,44.8 M333.4,56.9c-0.3,0.6-0.1,1.3,0.4,1.6c0.6,0.3,1.3,0.1,1.6-0.4c0.3-0.6,0.1-1.3-0.4-1.6
			C334.5,56.2,333.8,56.4,333.4,56.9 M336.3,50.4c-0.6,0-1.2,0.5-1.2,1.2c0,0.6,0.5,1.2,1.2,1.2s1.2-0.5,1.2-1.2
			C337.5,50.9,336.9,50.4,336.3,50.4 M337.8,55.4c-0.6,0-1.2,0.5-1.2,1.2c0,0.6,0.5,1.2,1.2,1.2c0.6,0,1.2-0.5,1.2-1.2
			C338.9,55.9,338.4,55.4,337.8,55.4 M337.8,45.8c-0.6,0-1.2,0.5-1.2,1.2s0.5,1.2,1.2,1.2c0.6,0,1.2-0.5,1.2-1.2
			S338.4,45.8,337.8,45.8 M339.2,42.6c-0.3-0.6-1-0.8-1.6-0.4c-0.6,0.3-0.8,1-0.4,1.6s1,0.8,1.6,0.4
			C339.4,43.9,339.5,43.2,339.2,42.6 M343,40.4c-0.3-0.6-1-0.8-1.6-0.4c-0.6,0.3-0.8,1-0.4,1.6c0.3,0.6,1,0.8,1.6,0.4
			C343.1,41.7,343.3,41,343,40.4 M345.9,51.6c0,0.6-0.5,1.2-1.2,1.2c-0.6,0-1.2-0.5-1.2-1.2c0-0.6,0.5-1.2,1.2-1.2
			C345.4,50.4,345.9,50.9,345.9,51.6 M343.7,48.2c0,0.6-0.5,1.2-1.2,1.2s-1.2-0.5-1.2-1.2s0.5-1.2,1.2-1.2
			C343.2,47,343.7,47.5,343.7,48.2 M341.6,51.6c0,0.6-0.5,1.2-1.2,1.2s-1.2-0.5-1.2-1.2c0-0.6,0.5-1.2,1.2-1.2
			C341,50.4,341.6,50.9,341.6,51.6 M341.4,55c0-0.6,0.5-1.2,1.2-1.2c0.6,0,1.2,0.5,1.2,1.2s-0.5,1.2-1.2,1.2
			C341.9,56.1,341.4,55.6,341.4,55 M350.5,51.4c0-3.3-2.7-6-6-6c-3.3,0-6,2.7-6,6c0,3.3,2.7,6,6,6C347.8,57.4,350.5,54.7,350.5,51.4
			 M343.7,63.8c-0.3,0.6-1,0.7-1.6,0.4c-0.6-0.3-0.8-1-0.4-1.6s1-0.8,1.6-0.4C343.8,62.6,344,63.3,343.7,63.8 M340,61.7
			c-0.3,0.6-1,0.8-1.6,0.4c-0.6-0.3-0.8-1-0.4-1.6c0.3-0.6,1-0.8,1.6-0.4C340.1,60.4,340.3,61.1,340,61.7 M355.5,60.9
			c-1.5-1.6-3.1-1.5-3.1-1.5H345h-1h-7.5c0,0-1.6-0.1-3.1,1.5c-2.6,2.7-1.9,5.6-1.9,5.6v20.1c0,0,0.2,2.1,2.5,1.9
			c2.3-0.1,2-1.7,2-1.7V69l0.7-0.1V96h6.8v-7.4h1.3h0.4V96h6.8V68.9l0.7,0.1v17.8c0,0-0.3,1.6,2,1.7c2.3,0.1,2.5-1.9,2.5-1.9V66.5
			C357.5,66.5,358.1,63.7,355.5,60.9"/>
	</g>
</g>
<path class="st4" d="M151.6,56.9h53.5v35.9h-53.5V56.9z M213.5,55.6l-35.2-17.8l-35.1,17.8h5.4v40.9h59.5V55.6H213.5z"/>
<g>
	<g>
		<defs>
			<rect id="SVGID_9_" y="0" width="510.2" height="240.9"/>
		</defs>
		<clipPath id="SVGID_10_">
			<use xlink:href="#SVGID_9_"  style="overflow:visible;"/>
		</clipPath>
		<path class="st5" d="M168.3,76.8l-2,1.2c0,0-1.6-1.3-1.1-4.5c0.4-3.2,2.7-6.1,2.7-6.1s-4,1.6-5.3,5.3c-1.3,3.7,0.1,7.7,0.1,7.7
			l-2,1.2l5.8,0.4L168.3,76.8z"/>
	</g>
	<g>
		<defs>
			<rect id="SVGID_11_" y="0" width="510.2" height="240.9"/>
		</defs>
		<clipPath id="SVGID_12_">
			<use xlink:href="#SVGID_11_"  style="overflow:visible;"/>
		</clipPath>
		<path class="st6" d="M179.5,83.7l1,2.1c0,0-1.4,1.5-4.6,0.8c-3.2-0.7-5.9-3.1-5.9-3.1s1.3,4.1,4.9,5.6c3.6,1.6,7.7,0.4,7.7,0.4
			l1.1,2.1l0.9-5.8L179.5,83.7z"/>
	</g>
	<g>
		<defs>
			<rect id="SVGID_13_" y="0" width="510.2" height="240.9"/>
		</defs>
		<clipPath id="SVGID_14_">
			<use xlink:href="#SVGID_13_"  style="overflow:visible;"/>
		</clipPath>
		<path class="st7" d="M177.1,66.2l-1-2.1c0,0,1.4-1.5,4.6-0.8c3.2,0.7,5.9,3.1,5.9,3.1s-1.3-4.1-4.9-5.6c-3.6-1.6-7.7-0.4-7.7-0.4
			l-1.1-2.1l-0.9,5.8L177.1,66.2z"/>
	</g>
	<g>
		<defs>
			<rect id="SVGID_15_" y="0" width="510.2" height="240.9"/>
		</defs>
		<clipPath id="SVGID_16_">
			<use xlink:href="#SVGID_15_"  style="overflow:visible;"/>
		</clipPath>
		<path class="st8" d="M187.3,74.7l2-1.1c0,0,1.5,1.3,1,4.6s-2.8,6-2.8,6s4-1.5,5.4-5.2s0-7.7,0-7.7l2-1.2l-5.8-0.6L187.3,74.7z"/>
	</g>
	<g>
		<defs>
			<rect id="SVGID_17_" y="0" width="510.2" height="240.9"/>
		</defs>
		<clipPath id="SVGID_18_">
			<use xlink:href="#SVGID_17_"  style="overflow:visible;"/>
		</clipPath>
		<path class="st9" d="M381.7,175.1c0-3.8-3-6.8-6.8-6.8s-6.8,3-6.8,6.8c0,3.8,3,6.8,6.8,6.8S381.7,178.9,381.7,175.1 M387.4,185.9
			c-1.7-1.8-3.5-1.7-3.5-1.7h-8.5h-1.1h-8.5c0,0-1.8-0.1-3.5,1.7c-2.9,3.1-2.2,6.3-2.2,6.3v22.7c0,0,0.2,2.3,2.9,2.2
			c2.6-0.2,2.3-1.9,2.3-1.9V195l0.8-0.1v30.7h7.7v-8.4h1.5h0.4v8.4h7.7v-30.7l0.8,0.1v20.1c0,0-0.4,1.8,2.3,1.9
			c2.6,0.2,2.9-2.2,2.9-2.2v-22.7C389.6,192.2,390.3,189,387.4,185.9"/>
	</g>
	<g>
		<defs>
			<rect id="SVGID_19_" y="0" width="510.2" height="240.9"/>
		</defs>
		<clipPath id="SVGID_20_">
			<use xlink:href="#SVGID_19_"  style="overflow:visible;"/>
		</clipPath>
		<path class="st10" d="M396.5,181.4c0-3.8-3-6.8-6.8-6.8s-6.8,3-6.8,6.8s3,6.8,6.8,6.8S396.5,185.2,396.5,181.4 M402.2,192.2
			c-1.7-1.8-3.5-1.7-3.5-1.7h-8.5h-1.1h-8.5c0,0-1.8-0.1-3.5,1.7c-2.9,3.1-2.2,6.3-2.2,6.3v22.7c0,0,0.2,2.3,2.9,2.2
			s2.3-1.9,2.3-1.9v-20.1l0.8-0.1v30.7h7.7v-8.4h1.5h0.4v8.4h7.7v-30.7l0.8,0.1v20.1c0,0-0.4,1.8,2.3,1.9s2.9-2.2,2.9-2.2v-22.7
			C404.4,198.5,405.1,195.3,402.2,192.2"/>
	</g>
	<g>
		<defs>
			<rect id="SVGID_21_" y="0" width="510.2" height="240.9"/>
		</defs>
		<clipPath id="SVGID_22_">
			<use xlink:href="#SVGID_21_"  style="overflow:visible;"/>
		</clipPath>
		<path class="st11" d="M349.3,170.1c0-3.2-2.6-5.8-5.8-5.8c-3.2,0-5.8,2.6-5.8,5.8c0,3.2,2.6,5.8,5.8,5.8
			C346.7,175.9,349.3,173.3,349.3,170.1 M354.2,179.3c-1.5-1.6-3-1.4-3-1.4H344h-0.9h-7.2c0,0-1.5-0.1-3,1.4
			c-2.5,2.6-1.8,5.4-1.8,5.4v19.3c0,0,0.2,2,2.4,1.9c2.2-0.1,1.9-1.7,1.9-1.7V187l0.7-0.1V213h6.6v-7.1h1.3h0.4v7.1h6.6V187l0.7,0.1
			v17.1c0,0-0.3,1.5,1.9,1.7c2.2,0.1,2.4-1.9,2.4-1.9v-19.3C356,184.6,356.6,181.9,354.2,179.3"/>
	</g>
	<g>
		<defs>
			<rect id="SVGID_23_" y="0" width="510.2" height="240.9"/>
		</defs>
		<clipPath id="SVGID_24_">
			<use xlink:href="#SVGID_23_"  style="overflow:visible;"/>
		</clipPath>
		<path class="st12" d="M439.1,168.9c0-3.2-2.6-5.8-5.8-5.8c-3.2,0-5.8,2.6-5.8,5.8c0,3.2,2.6,5.8,5.8,5.8
			C436.5,174.7,439.1,172.1,439.1,168.9 M444,178.1c-1.5-1.6-3-1.4-3-1.4h-7.2h-0.9h-7.2c0,0-1.5-0.1-3,1.4
			c-2.5,2.6-1.8,5.4-1.8,5.4v19.3c0,0,0.2,2,2.4,1.9c2.2-0.1,1.9-1.7,1.9-1.7v-17.1l0.7-0.1v26.1h6.6v-7.1h1.3h0.4v7.1h6.6v-26.1
			l0.7,0.1v17.1c0,0-0.3,1.5,1.9,1.7c2.2,0.1,2.4-1.9,2.4-1.9v-19.3C445.8,183.4,446.4,180.7,444,178.1"/>
	</g>
	<g>
		<defs>
			<rect id="SVGID_25_" y="0" width="510.2" height="240.9"/>
		</defs>
		<clipPath id="SVGID_26_">
			<use xlink:href="#SVGID_25_"  style="overflow:visible;"/>
		</clipPath>
		<path class="st13" d="M412.8,171.1c0-3.8-3-6.8-6.8-6.8c-3.8,0-6.8,3-6.8,6.8c0,3.8,3,6.8,6.8,6.8
			C409.8,178,412.8,174.9,412.8,171.1 M418.5,181.9c-1.7-1.8-3.5-1.7-3.5-1.7h-8.5h-1.1H397c0,0-1.8-0.1-3.5,1.7
			c-2.9,3.1-2.2,6.3-2.2,6.3v22.7c0,0,0.2,2.3,2.9,2.2c2.6-0.2,2.3-1.9,2.3-1.9V191l0.8-0.1v30.7h7.7v-8.4h1.5h0.4v8.4h7.7V191
			l0.8,0.1v20.1c0,0-0.4,1.8,2.3,1.9c2.6,0.2,2.9-2.2,2.9-2.2v-22.7C420.7,188.2,421.4,185,418.5,181.9"/>
	</g>
	<g>
		<defs>
			<rect id="SVGID_27_" y="0" width="510.2" height="240.9"/>
		</defs>
		<clipPath id="SVGID_28_">
			<use xlink:href="#SVGID_27_"  style="overflow:visible;"/>
		</clipPath>
		<path class="st14" d="M331.5,168.3c0-3.3-2.7-6-6-6c-3.3,0-6,2.7-6,6c0,3.3,2.7,6,6,6C328.9,174.3,331.5,171.6,331.5,168.3
			 M336.6,177.8c-1.5-1.6-3.1-1.5-3.1-1.5H326h-1h-7.4c0,0-1.6-0.1-3.1,1.5c-2.5,2.7-1.9,5.5-1.9,5.5v20c0,0,0.2,2.1,2.5,1.9
			s2-1.7,2-1.7v-17.7l0.7-0.1v27h6.8v-7.4h1.3h0.4v7.4h6.8v-27l0.7,0.1v17.7c0,0-0.3,1.6,2,1.7c2.3,0.1,2.5-1.9,2.5-1.9v-20
			C338.5,183.3,339.1,180.5,336.6,177.8"/>
	</g>
	<g>
		<defs>
			<rect id="SVGID_29_" y="0" width="510.2" height="240.9"/>
		</defs>
		<clipPath id="SVGID_30_">
			<use xlink:href="#SVGID_29_"  style="overflow:visible;"/>
		</clipPath>
		<path class="st15" d="M453.5,169.3c0-2.7-2.2-4.9-4.9-4.9c-2.7,0-4.9,2.2-4.9,4.9c0,2.7,2.2,4.9,4.9,4.9
			C451.3,174.2,453.5,172,453.5,169.3 M457.6,177.1c-1.2-1.3-2.5-1.2-2.5-1.2h-6.1h-0.8H442c0,0-1.3-0.1-2.5,1.2
			c-2.1,2.2-1.6,4.6-1.6,4.6v16.5c0,0,0.2,1.7,2.1,1.6c1.9-0.1,1.7-1.4,1.7-1.4v-14.6l0.6-0.1v22.3h5.6v-6.1h1.1h0.3v6.1h5.6v-22.3
			l0.6,0.1v14.6c0,0-0.3,1.3,1.7,1.4c1.9,0.1,2.1-1.6,2.1-1.6v-16.5C459.2,181.7,459.7,179.4,457.6,177.1"/>
	</g>
	<g>
		<defs>
			<rect id="SVGID_31_" y="0" width="510.2" height="240.9"/>
		</defs>
		<clipPath id="SVGID_32_">
			<use xlink:href="#SVGID_31_"  style="overflow:visible;"/>
		</clipPath>
		<path class="st16" d="M431,176.3c0-3.3-2.7-6-6-6s-6,2.7-6,6s2.7,6,6,6S431,179.6,431,176.3 M436,185.8c-1.5-1.6-3.1-1.5-3.1-1.5
			h-7.4h-1h-7.4c0,0-1.6-0.1-3.1,1.5c-2.5,2.7-1.9,5.5-1.9,5.5v20c0,0,0.2,2.1,2.5,1.9c2.3-0.1,2-1.7,2-1.7v-17.7l0.7-0.1v27h6.8
			v-7.4h1.3h0.4v7.4h6.8v-27l0.7,0.1v17.7c0,0-0.3,1.6,2,1.7c2.3,0.1,2.5-1.9,2.5-1.9v-20C437.9,191.3,438.6,188.5,436,185.8"/>
	</g>
	<g>
		<defs>
			<rect id="SVGID_33_" y="0" width="510.2" height="240.9"/>
		</defs>
		<clipPath id="SVGID_34_">
			<use xlink:href="#SVGID_33_"  style="overflow:visible;"/>
		</clipPath>
		<path class="st17" d="M362.1,183.3c0-3.3-2.7-6-6-6c-3.3,0-6,2.7-6,6c0,3.3,2.7,6,6,6S362.1,186.6,362.1,183.3 M367.1,192.8
			c-1.5-1.6-3.1-1.5-3.1-1.5h-7.4h-1h-7.4c0,0-1.6-0.1-3.1,1.5c-2.5,2.7-1.9,5.5-1.9,5.5v20c0,0,0.2,2.1,2.5,1.9
			c2.3-0.1,2-1.7,2-1.7v-17.7l0.7-0.1v27h6.8v-7.4h1.3h0.4v7.4h6.8v-27l0.7,0.1v17.7c0,0-0.3,1.6,2,1.7c2.3,0.1,2.5-1.9,2.5-1.9v-20
			C369,198.3,369.6,195.5,367.1,192.8"/>
	</g>
	<g>
		<defs>
			<rect id="SVGID_35_" y="0" width="510.2" height="240.9"/>
		</defs>
		<clipPath id="SVGID_36_">
			<use xlink:href="#SVGID_35_"  style="overflow:visible;"/>
		</clipPath>
		<path class="st18" d="M315.4,172.1c0-2.1-1.7-3.8-3.8-3.8c-2.1,0-3.8,1.7-3.8,3.8s1.7,3.8,3.8,3.8
			C313.8,175.9,315.4,174.2,315.4,172.1 M318.6,178.1c-0.9-1-1.9-0.9-1.9-0.9H312h-0.6h-4.7c0,0-1-0.1-1.9,0.9
			c-1.6,1.7-1.2,3.5-1.2,3.5v12.6c0,0,0.1,1.3,1.6,1.2c1.5-0.1,1.3-1.1,1.3-1.1v-11.2l0.5,0v17h4.3v-4.6h0.8h0.2v4.6h4.3v-17l0.5,0
			v11.2c0,0-0.2,1,1.3,1.1c1.5,0.1,1.6-1.2,1.6-1.2v-12.6C319.8,181.5,320.2,179.8,318.6,178.1"/>
	</g>
	<g>
		<defs>
			<rect id="SVGID_37_" y="0" width="510.2" height="240.9"/>
		</defs>
		<clipPath id="SVGID_38_">
			<use xlink:href="#SVGID_37_"  style="overflow:visible;"/>
		</clipPath>
		<path class="st19" d="M433.7,38.9c0.9-5-2.8-7.7-7-7.7c-4.3,0-8.2,2.9-7.1,7.6c2.8,5.9,2.9,8.7,7.1,8.7S430.5,45,433.7,38.9
			 M435.3,51.1c-4.2-1.7-8-1.9-8-1.9H426c0,0-3.1-0.4-8,1.9c-3.3,3.5-2.5,7.1-2.5,7.1v25.7c0,0-0.5,2.6,2.5,2.5c3-0.2,1-2.2,1-2.2
			V59l0.9-0.1c0,0-0.6,8.8,0,10c0.6,1.2,1.3,0.5,1.3,2.2c0,2.9-1.1,1.8-1.3,2.9c-0.2,1.1,0,21.9,0,21.9h5.6v-9.5h1.7h0.5V96h5.6
			c0,0,0.2-20.6,0-21.9c-0.2-1.3-1,0-1-2.9c0-1.8,0.5-1.1,1-2.2s0-10,0-10l0.9,0.1v25.2c0,0-2,2,1,2.2s2.5-2.5,2.5-2.5V58.2
			C437.7,58.2,438.5,54.6,435.3,51.1"/>
	</g>
	<g>
		<defs>
			<rect id="SVGID_39_" y="0" width="510.2" height="240.9"/>
		</defs>
		<clipPath id="SVGID_40_">
			<use xlink:href="#SVGID_39_"  style="overflow:visible;"/>
		</clipPath>
		<path class="st20" d="M134.4,171c0-4.3-3.5-7.7-7.7-7.7c-4.3,0-7.7,3.5-7.7,7.7c0,4.3,3.5,7.7,7.7,7.7S134.4,175.3,134.4,171
			 M140.8,183.2c-1.9-2.1-4-1.9-4-1.9h-9.6H126h-9.6c0,0-2-0.2-4,1.9c-3.3,3.5-2.5,7.1-2.5,7.1v25.7c0,0,0.3,2.6,3.3,2.5
			c3-0.2,2.6-2.2,2.6-2.2v-22.8l0.9-0.1v34.7h8.8v-9.5h1.7h0.5v9.5h8.8v-34.7l0.9,0.1v22.8c0,0-0.4,2,2.6,2.2s3.3-2.5,3.3-2.5v-25.7
			C143.3,190.4,144.1,186.7,140.8,183.2"/>
	</g>
	<g>
		<defs>
			<rect id="SVGID_41_" y="0" width="510.2" height="240.9"/>
		</defs>
		<clipPath id="SVGID_42_">
			<use xlink:href="#SVGID_41_"  style="overflow:visible;"/>
		</clipPath>
		<path class="st21" d="M131.1,195.7c2.3,0,4.2-1.9,4.2-4.2c0-2.3-1.9-4.2-4.2-4.2s-4.2,1.9-4.2,4.2
			C126.9,193.9,128.8,195.7,131.1,195.7"/>
	</g>
	<g>
		<defs>
			<rect id="SVGID_43_" y="0" width="510.2" height="240.9"/>
		</defs>
		<clipPath id="SVGID_44_">
			<use xlink:href="#SVGID_43_"  style="overflow:visible;"/>
		</clipPath>
		<path class="st22" d="M134.4,191.4l2.8-1l-2.9-0.2c0,0-0.1,0.2-0.1,0.6C134.2,191.2,134.4,191.4,134.4,191.4 M134,193l2.2,0l-2-1
			c0,0-0.1,0.1-0.2,0.5S134,193,134,193 M133.2,193.8c-0.3,0.3-0.3,0.5-0.3,0.5l3.1,2.3l-2.3-3.1
			C133.7,193.5,133.5,193.5,133.2,193.8 M131.1,195c-0.4,0-0.6,0.2-0.6,0.2l0.7,3.1l0.5-3.2C131.7,195.2,131.5,195,131.1,195
			 M131.5,192.6l0.7,0.8l0-1c0,0-0.2-0.1-0.4,0C131.5,192.4,131.5,192.6,131.5,192.6 M127.9,193.3l-1.8,2.6l2.6-1.8
			c0,0,0-0.3-0.2-0.6S127.9,193.3,127.9,193.3 M126.4,192.6l1.4,0.1c0,0,0-0.2,0-0.4c-0.1-0.3-0.2-0.4-0.2-0.4L126.4,192.6z
			 M127.8,190.3l-2.3,0.6l2.3,0.5c0,0,0.1-0.2,0.1-0.5C127.9,190.4,127.8,190.3,127.8,190.3 M128.9,189.3c0.2-0.3,0.2-0.5,0.2-0.5
			l-2.5-1.4l1.8,2.3C128.5,189.6,128.7,189.6,128.9,189.3 M129.6,191.3c0.1-0.3,0.1-0.5,0.1-0.5l-1.4-0.2l1,1
			C129.3,191.7,129.5,191.6,129.6,191.3 M130.3,193.1c-0.3-0.1-0.5,0.1-0.5,0.1l0.1,1.4l0.8-1.2
			C130.7,193.3,130.6,193.1,130.3,193.1 M131.1,189.8l-0.7-1.2l-0.1,1.4c0,0,0.2,0.1,0.5,0S131.1,189.8,131.1,189.8 M131.2,188.1
			c0.4,0,0.6-0.2,0.6-0.2l-0.6-3.5l-0.6,3.5C130.6,187.9,130.8,188.1,131.2,188.1 M133.3,190.5l-1.4,0.3c0,0,0,0.2,0.1,0.4
			c0.2,0.3,0.3,0.3,0.3,0.3L133.3,190.5z M133.3,189.5l2-3.3l-2.9,2.6c0,0,0,0.2,0.3,0.5C133,189.5,133.3,189.5,133.3,189.5"/>
	</g>
	<g>
		<defs>
			<rect id="SVGID_45_" y="0" width="510.2" height="240.9"/>
		</defs>
		<clipPath id="SVGID_46_">
			<use xlink:href="#SVGID_45_"  style="overflow:visible;"/>
		</clipPath>
		<path class="st23" d="M119.5,191.3c1.8,0,3.3-1.5,3.3-3.3c0-1.8-1.5-3.3-3.3-3.3c-1.8,0-3.3,1.5-3.3,3.3
			C116.2,189.9,117.6,191.3,119.5,191.3"/>
	</g>
	<g>
		<defs>
			<rect id="SVGID_47_" y="0" width="510.2" height="240.9"/>
		</defs>
		<clipPath id="SVGID_48_">
			<use xlink:href="#SVGID_47_"  style="overflow:visible;"/>
		</clipPath>
		<path class="st24" d="M122.1,187.9l2.2-0.8l-2.3-0.2c0,0-0.1,0.2,0,0.5C121.9,187.8,122.1,187.9,122.1,187.9 M121.8,189.1l1.8,0
			l-1.6-0.8c0,0-0.1,0.1-0.2,0.4C121.7,189,121.8,189.1,121.8,189.1 M121.1,189.8c-0.2,0.2-0.2,0.4-0.2,0.4l2.5,1.8l-1.8-2.5
			C121.6,189.6,121.4,189.6,121.1,189.8 M119.5,190.8c-0.3,0-0.5,0.2-0.5,0.2l0.5,2.5l0.4-2.5C119.9,190.9,119.8,190.8,119.5,190.8
			 M119.8,188.8l0.5,0.6l0-0.8c0,0-0.1-0.1-0.3,0C119.8,188.7,119.8,188.8,119.8,188.8 M116.9,189.4l-1.5,2.1l2.1-1.5
			c0,0,0-0.2-0.2-0.4C117.1,189.4,116.9,189.4,116.9,189.4 M115.7,188.8l1.1,0.1c0,0,0-0.1,0-0.4c0-0.2-0.1-0.3-0.1-0.3L115.7,188.8
			z M116.8,187l-1.8,0.5l1.9,0.4c0,0,0.1-0.1,0.1-0.4C116.9,187.1,116.8,187,116.8,187 M117.8,186.2c0.2-0.2,0.2-0.4,0.2-0.4l-2-1.1
			l1.5,1.8C117.4,186.5,117.6,186.4,117.8,186.2 M118.3,187.8c0.1-0.2,0.1-0.4,0.1-0.4l-1.1-0.2l0.8,0.8
			C118,188.1,118.2,188.1,118.3,187.8 M118.9,189.2c-0.2-0.1-0.4,0.1-0.4,0.1l0.1,1.1l0.6-1C119.2,189.4,119.1,189.3,118.9,189.2
			 M119.5,186.6l-0.6-1l-0.1,1.1c0,0,0.1,0.1,0.4,0S119.5,186.6,119.5,186.6 M119.5,185.3c0.3,0,0.5-0.1,0.5-0.1l-0.5-2.8l-0.5,2.8
			C119,185.1,119.2,185.3,119.5,185.3 M121.2,187.2l-1.1,0.3c0,0,0,0.1,0.1,0.3c0.1,0.2,0.3,0.3,0.3,0.3L121.2,187.2z M121.2,186.4
			l1.6-2.6l-2.3,2.1c0,0,0,0.2,0.2,0.4C121,186.4,121.2,186.4,121.2,186.4"/>
	</g>
	<g>
		<defs>
			<rect id="SVGID_49_" y="0" width="510.2" height="240.9"/>
		</defs>
		<clipPath id="SVGID_50_">
			<use xlink:href="#SVGID_49_"  style="overflow:visible;"/>
		</clipPath>
		<path class="st25" d="M122.2,201.2c1.1,0,2.1-0.9,2.1-2.1s-0.9-2.1-2.1-2.1s-2.1,0.9-2.1,2.1S121.1,201.2,122.2,201.2"/>
	</g>
	<g>
		<defs>
			<rect id="SVGID_51_" y="0" width="510.2" height="240.9"/>
		</defs>
		<clipPath id="SVGID_52_">
			<use xlink:href="#SVGID_51_"  style="overflow:visible;"/>
		</clipPath>
		<path class="st26" d="M123.8,199.1l1.4-0.5l-1.4-0.1c0,0-0.1,0.1,0,0.3C123.7,199,123.8,199.1,123.8,199.1 M123.6,199.8l1.1,0
			l-1-0.5c0,0-0.1,0.1-0.1,0.2C123.6,199.8,123.6,199.8,123.6,199.8 M123.2,200.2c-0.1,0.1-0.1,0.3-0.1,0.3l1.5,1.1l-1.1-1.5
			C123.5,200.1,123.4,200.1,123.2,200.2 M122.2,200.9c-0.2,0-0.3,0.1-0.3,0.1l0.3,1.6l0.3-1.6C122.5,200.9,122.4,200.9,122.2,200.9
			 M122.4,199.6l0.3,0.4l0-0.5c0,0-0.1,0-0.2,0C122.4,199.6,122.4,199.6,122.4,199.6 M120.6,200l-0.9,1.3l1.3-0.9c0,0,0-0.1-0.1-0.3
			S120.6,200,120.6,200 M119.8,199.6l0.7,0.1c0,0,0-0.1,0-0.2c0-0.1-0.1-0.2-0.1-0.2L119.8,199.6z M120.6,198.5l-1.1,0.3l1.2,0.2
			c0,0,0.1-0.1,0-0.3C120.6,198.6,120.6,198.5,120.6,198.5 M121.1,198c0.1-0.1,0.1-0.2,0.1-0.2l-1.3-0.7l0.9,1.1
			C120.9,198.2,121,198.2,121.1,198 M121.4,199c0.1-0.1,0.1-0.2,0.1-0.2l-0.7-0.1l0.5,0.5C121.3,199.2,121.4,199.2,121.4,199
			 M121.8,199.9c-0.1,0-0.2,0-0.2,0l0,0.7l0.4-0.6C122,200,122,199.9,121.8,199.9 M122.2,198.3l-0.3-0.6l-0.1,0.7c0,0,0.1,0,0.2,0
			C122.1,198.3,122.2,198.3,122.2,198.3 M122.2,197.4c0.2,0,0.3-0.1,0.3-0.1l-0.3-1.7l-0.3,1.7C121.9,197.4,122,197.4,122.2,197.4
			 M123.3,198.6l-0.7,0.2c0,0,0,0.1,0.1,0.2c0.1,0.1,0.2,0.2,0.2,0.2L123.3,198.6z M123.3,198.1l1-1.6l-1.4,1.3c0,0,0,0.1,0.1,0.2
			C123.1,198.1,123.3,198.1,123.3,198.1"/>
	</g>
	<g>
		<defs>
			<rect id="SVGID_53_" y="0" width="510.2" height="240.9"/>
		</defs>
		<clipPath id="SVGID_54_">
			<use xlink:href="#SVGID_53_"  style="overflow:visible;"/>
		</clipPath>
		<path class="st27" d="M129.2,207.8c1.8,0,3.2-1.4,3.2-3.2c0-1.8-1.4-3.2-3.2-3.2s-3.2,1.4-3.2,3.2S127.5,207.8,129.2,207.8"/>
	</g>
	<g>
		<defs>
			<rect id="SVGID_55_" y="0" width="510.2" height="240.9"/>
		</defs>
		<clipPath id="SVGID_56_">
			<use xlink:href="#SVGID_55_"  style="overflow:visible;"/>
		</clipPath>
		<path class="st28" d="M131.8,204.4l2.1-0.8l-2.3-0.1c0,0-0.1,0.2,0,0.5C131.6,204.3,131.8,204.4,131.8,204.4 M131.5,205.7l1.7,0
			l-1.5-0.8c0,0-0.1,0.1-0.2,0.4C131.4,205.5,131.5,205.7,131.5,205.7 M130.9,206.3c-0.2,0.2-0.2,0.4-0.2,0.4l2.4,1.8l-1.8-2.4
			C131.3,206.1,131.1,206.1,130.9,206.3 M129.2,207.2c-0.3,0-0.5,0.2-0.5,0.2l0.5,2.4l0.4-2.4C129.7,207.4,129.6,207.2,129.2,207.2
			 M129.5,205.3l0.5,0.6l0-0.8c0,0-0.1-0.1-0.3,0C129.6,205.2,129.5,205.3,129.5,205.3 M126.7,205.9l-1.4,2l2-1.4c0,0,0-0.2-0.2-0.4
			C126.9,205.9,126.7,205.9,126.7,205.9 M125.5,205.3l1.1,0.1c0,0,0-0.1,0-0.3c0-0.2-0.1-0.3-0.1-0.3L125.5,205.3z M126.7,203.6
			l-1.8,0.5l1.8,0.4c0,0,0.1-0.1,0.1-0.4C126.8,203.7,126.7,203.6,126.7,203.6 M127.6,202.8c0.2-0.2,0.2-0.4,0.2-0.4l-2-1.1l1.4,1.7
			C127.2,203.1,127.4,203,127.6,202.8 M128.1,204.4c0.1-0.2,0.1-0.4,0.1-0.4l-1.1-0.2l0.8,0.8C127.8,204.6,128,204.6,128.1,204.4
			 M128.6,205.7c-0.2-0.1-0.4,0-0.4,0l0.1,1.1l0.6-0.9C128.9,205.9,128.9,205.8,128.6,205.7 M129.2,203.2l-0.5-1l-0.1,1.1
			c0,0,0.1,0.1,0.4,0C129.1,203.3,129.2,203.2,129.2,203.2 M129.3,201.9c0.3,0,0.5-0.1,0.5-0.1l-0.5-2.7l-0.5,2.7
			C128.8,201.8,129,201.9,129.3,201.9 M130.9,203.7l-1.1,0.3c0,0,0,0.1,0.1,0.3c0.1,0.2,0.3,0.2,0.3,0.2L130.9,203.7z M130.9,203
			l1.6-2.5l-2.2,2c0,0,0,0.2,0.2,0.4C130.7,203,130.9,203,130.9,203"/>
	</g>
	<g>
		<defs>
			<rect id="SVGID_57_" y="0" width="510.2" height="240.9"/>
		</defs>
		<clipPath id="SVGID_58_">
			<use xlink:href="#SVGID_57_"  style="overflow:visible;"/>
		</clipPath>
		<path class="st29" d="M130.6,215.8c1.2,0,2.1-0.9,2.1-2.1s-0.9-2.1-2.1-2.1c-1.2,0-2.1,0.9-2.1,2.1S129.5,215.8,130.6,215.8"/>
	</g>
	<g>
		<defs>
			<rect id="SVGID_59_" y="0" width="510.2" height="240.9"/>
		</defs>
		<clipPath id="SVGID_60_">
			<use xlink:href="#SVGID_59_"  style="overflow:visible;"/>
		</clipPath>
		<path class="st30" d="M132.3,213.6l1.4-0.5l-1.5-0.1c0,0-0.1,0.1,0,0.3C132.2,213.5,132.3,213.6,132.3,213.6 M132.1,214.4l1.1,0
			l-1-0.5c0,0-0.1,0.1-0.1,0.2C132.1,214.3,132.1,214.4,132.1,214.4 M131.7,214.8c-0.1,0.1-0.1,0.3-0.1,0.3l1.6,1.2l-1.2-1.6
			C132,214.7,131.8,214.7,131.7,214.8 M130.6,215.4c-0.2,0-0.3,0.1-0.3,0.1l0.3,1.6l0.3-1.6C130.9,215.5,130.9,215.4,130.6,215.4
			 M130.8,214.2l0.3,0.4l0-0.5c0,0-0.1,0-0.2,0C130.9,214.1,130.8,214.2,130.8,214.2 M129,214.6l-0.9,1.3l1.3-0.9c0,0,0-0.1-0.1-0.3
			C129.2,214.5,129,214.6,129,214.6 M128.2,214.2l0.7,0.1c0,0,0-0.1,0-0.2s-0.1-0.2-0.1-0.2L128.2,214.2z M129,213.1l-1.2,0.3
			l1.2,0.2c0,0,0.1-0.1,0-0.3C129,213.1,129,213.1,129,213.1 M129.6,212.6c0.1-0.1,0.1-0.3,0.1-0.3l-1.3-0.7l0.9,1.1
			C129.3,212.7,129.4,212.7,129.6,212.6 M129.9,213.6c0.1-0.1,0.1-0.2,0.1-0.2l-0.7-0.1l0.5,0.5
			C129.7,213.8,129.8,213.7,129.9,213.6 M130.3,214.5c-0.1,0-0.2,0-0.2,0l0,0.7l0.4-0.6C130.5,214.6,130.4,214.5,130.3,214.5
			 M130.6,212.8l-0.4-0.6l-0.1,0.7c0,0,0.1,0,0.2,0S130.6,212.8,130.6,212.8 M130.7,212c0.2,0,0.3-0.1,0.3-0.1l-0.3-1.8l-0.3,1.8
			C130.4,211.9,130.5,212,130.7,212 M131.7,213.2l-0.7,0.2c0,0,0,0.1,0.1,0.2c0.1,0.1,0.2,0.2,0.2,0.2L131.7,213.2z M131.7,212.7
			l1-1.6l-1.4,1.3c0,0,0,0.1,0.2,0.2C131.6,212.7,131.7,212.7,131.7,212.7"/>
	</g>
	<g>
		<defs>
			<rect id="SVGID_61_" y="0" width="510.2" height="240.9"/>
		</defs>
		<clipPath id="SVGID_62_">
			<use xlink:href="#SVGID_61_"  style="overflow:visible;"/>
		</clipPath>
		<path class="st31" d="M121.5,215.6c1.5,0,2.7-1.2,2.7-2.7c0-1.5-1.2-2.7-2.7-2.7s-2.7,1.2-2.7,2.7
			C118.8,214.4,120,215.6,121.5,215.6"/>
	</g>
	<g>
		<defs>
			<rect id="SVGID_63_" y="0" width="510.2" height="240.9"/>
		</defs>
		<clipPath id="SVGID_64_">
			<use xlink:href="#SVGID_63_"  style="overflow:visible;"/>
		</clipPath>
		<path class="st32" d="M123.6,212.8l1.8-0.6l-1.9-0.1c0,0-0.1,0.1,0,0.4C123.5,212.7,123.6,212.8,123.6,212.8 M123.3,213.8l1.4,0
			l-1.3-0.6c0,0-0.1,0.1-0.1,0.3C123.3,213.7,123.3,213.8,123.3,213.8 M122.8,214.3c-0.2,0.2-0.2,0.3-0.2,0.3l2,1.5l-1.5-2
			C123.1,214.2,123,214.1,122.8,214.3 M121.5,215.1c-0.3,0-0.4,0.1-0.4,0.1l0.4,2l0.3-2C121.9,215.2,121.7,215.1,121.5,215.1
			 M121.7,213.5l0.4,0.5l0-0.7c0,0-0.1,0-0.2,0C121.7,213.4,121.7,213.5,121.7,213.5 M119.4,214l-1.2,1.7l1.7-1.2c0,0,0-0.2-0.1-0.4
			S119.4,214,119.4,214 M118.4,213.5l0.9,0.1c0,0,0-0.1,0-0.3c0-0.2-0.1-0.3-0.1-0.3L118.4,213.5z M119.4,212.1l-1.5,0.4l1.5,0.3
			c0,0,0.1-0.1,0.1-0.4C119.4,212.2,119.4,212.1,119.4,212.1 M120.1,211.4c0.2-0.2,0.2-0.3,0.2-0.3l-1.6-0.9l1.2,1.4
			C119.8,211.7,119.9,211.6,120.1,211.4 M120.5,212.8c0.1-0.2,0.1-0.3,0.1-0.3l-0.9-0.2l0.6,0.7C120.3,213,120.4,212.9,120.5,212.8
			 M121,213.8c-0.2,0-0.3,0-0.3,0l0.1,0.9l0.5-0.8C121.2,214,121.2,213.9,121,213.8 M121.5,211.7L121,211l-0.1,0.9
			c0,0,0.1,0.1,0.3,0C121.4,211.8,121.5,211.7,121.5,211.7 M121.5,210.7c0.3,0,0.4-0.1,0.4-0.1l-0.4-2.3l-0.4,2.3
			C121.1,210.6,121.2,210.7,121.5,210.7 M122.9,212.2l-0.9,0.2c0,0,0,0.1,0.1,0.3c0.1,0.2,0.2,0.2,0.2,0.2L122.9,212.2z
			 M122.9,211.6l1.3-2.1l-1.8,1.6c0,0,0,0.2,0.2,0.3C122.7,211.6,122.9,211.6,122.9,211.6"/>
	</g>
	<g>
		<defs>
			<rect id="SVGID_65_" y="0" width="510.2" height="240.9"/>
		</defs>
		<clipPath id="SVGID_66_">
			<use xlink:href="#SVGID_65_"  style="overflow:visible;"/>
		</clipPath>
		<path class="st33" d="M110.3,109.3v-1.9h-4.1v-1.3h3.4v-1.9h-3.4v-1.2h4v-1.9h-6.6v8.2H110.3z M98,106.5c1.2,0,1.4,0.4,1.4,1.4
			c0,0.7,0.1,1.2,0.1,1.4h2.7v-0.2c-0.3,0-0.3-0.4-0.3-1.4c0-1.6-0.5-1.8-1.4-2.2c1-0.3,1.4-1.1,1.4-2c0-1.6-0.9-2.3-3.6-2.3h-3.8
			v8.2h2.7v-2.8H98z M97.2,103.1h1.2c0.6,0,1.1,0.3,1.1,0.8c0,0.6-0.4,0.8-1.3,0.8h-1.1V103.1z M85.2,105.8c0,2.8,1.4,3.8,3.9,3.8
			c2.7,0,3.9-1.1,3.9-3.8v-4.6h-2.7v4.9c0,0.9-0.3,1.5-1.2,1.5c-1.1,0-1.3-0.7-1.3-1.5v-4.9h-2.7L85.2,105.8L85.2,105.8z
			 M83.8,103.6c-0.2-1.4-1.2-2.6-3.5-2.6c-2,0-3.5,0.9-3.5,2.6c0,3.1,4.7,2.3,4.7,3.5c0,0.4-0.4,0.6-1.1,0.6c-0.3,0-0.5-0.1-0.8-0.2
			c-0.2-0.1-0.4-0.4-0.4-0.6h-2.6c0.1,1.5,1.5,2.7,3.6,2.7c2.2,0,3.8-0.9,3.8-2.8c0-3-4.7-2.2-4.7-3.4c0-0.3,0.3-0.5,0.8-0.5
			c0.3,0,0.5,0,0.7,0.1c0.2,0.1,0.3,0.3,0.4,0.6H83.8z M71.5,101c-2.5,0-4.3,1.7-4.3,4.2c0,2.8,1.7,4.4,4.3,4.4
			c2.4,0,4.3-1.6,4.3-4.3C75.8,103.1,74.4,101,71.5,101 M71.5,103c1.2,0,1.6,1.1,1.6,2.3c0,1.3-0.5,2.3-1.6,2.3
			c-1.3,0-1.6-1.3-1.6-2.3C69.9,104.2,70.3,103,71.5,103 M62,109.3v-2.5h1.3c2.3,0,3.4-1.1,3.4-2.9c0-1.7-1.1-2.8-3.5-2.8h-3.9v8.2
			H62z M62,104.9v-1.8h0.8c0.6,0,1.4,0.1,1.4,0.9c0,0.7-0.5,1-1.1,1H62z M54.2,107.1l1.3,2.3h3l-2.8-4.2l2.8-3.9h-3l-1.2,2.1
			l-1.2-2.1h-3l2.6,3.9l-2.9,4.2h3L54.2,107.1z M49.3,109.3v-1.9h-4.1v-1.3h3.4v-1.9h-3.4v-1.2h4v-1.9h-6.6v8.2H49.3z"/>
	</g>
</g>
<text transform="matrix(1 0 0 1 110.3379 109.3232)" class="st34 st35"> </text>
<g>
	<g>
		<defs>
			<rect id="SVGID_67_" y="0" width="510.2" height="240.9"/>
		</defs>
		<clipPath id="SVGID_68_">
			<use xlink:href="#SVGID_67_"  style="overflow:visible;"/>
		</clipPath>
		<path class="st36" d="M89.6,122.9c2.1,0,3.5-0.6,3.5-2.5c0-0.9-0.5-1.6-1.4-1.9c0.5-0.3,1.1-0.9,1.1-1.8c0-1.6-1.5-2-3.3-2h-3.9
			v8.2H89.6z M89.2,116.7c0.6,0,1.1,0,1.1,0.6c0,0.5-0.4,0.7-0.9,0.7h-1.1v-1.4H89.2z M89.1,119.5c0.8,0,1.5,0,1.5,0.8
			c0,0.6-0.5,0.7-1.2,0.7h-1.2v-1.5C88.3,119.5,89.1,119.5,89.1,119.5z M77,116.9h2.4v6H82v-6h2.4v-2.1H77V116.9z M68.1,114.6
			c-2.5,0-4.3,1.7-4.3,4.2c0,2.8,1.7,4.4,4.3,4.4c2.4,0,4.3-1.6,4.3-4.3C72.4,116.7,71,114.6,68.1,114.6 M68.1,116.6
			c1.2,0,1.6,1.1,1.6,2.3c0,1.3-0.5,2.3-1.6,2.3c-1.3,0-1.6-1.3-1.6-2.3C66.5,117.8,66.9,116.6,68.1,116.6 M55.6,116.9H58v6h2.7v-6
			H63v-2.1h-7.5C55.6,114.8,55.6,116.9,55.6,116.9z"/>
	</g>
	<g>
		<defs>
			<rect id="SVGID_69_" y="0" width="510.2" height="240.9"/>
		</defs>
		<clipPath id="SVGID_70_">
			<use xlink:href="#SVGID_69_"  style="overflow:visible;"/>
		</clipPath>
		<path class="st37" d="M367,109.3v-1.9h-4.1v-1.3h3.4v-1.9h-3.4v-1.2h4v-1.9h-6.6v8.2H367z M354.7,106.5c1.2,0,1.4,0.4,1.4,1.4
			c0,0.7,0.1,1.2,0.1,1.4h2.7v-0.2c-0.3,0-0.3-0.4-0.3-1.4c0-1.6-0.5-1.8-1.4-2.2c1-0.3,1.4-1.1,1.4-2c0-1.6-0.9-2.3-3.6-2.3h-3.8
			v8.2h2.7v-2.8H354.7z M353.9,103.1h1.2c0.6,0,1.1,0.3,1.1,0.8c0,0.6-0.4,0.8-1.3,0.8h-1.1L353.9,103.1L353.9,103.1z M341.9,105.8
			c0,2.8,1.4,3.8,3.9,3.8c2.7,0,3.9-1.1,3.9-3.8v-4.6h-2.7v4.9c0,0.9-0.3,1.5-1.2,1.5c-1.1,0-1.3-0.7-1.3-1.5v-4.9h-2.7L341.9,105.8
			L341.9,105.8z M340.5,103.6c-0.2-1.4-1.2-2.6-3.5-2.6c-2,0-3.5,0.9-3.5,2.6c0,3.1,4.7,2.3,4.7,3.5c0,0.4-0.4,0.6-1.1,0.6
			c-0.3,0-0.5-0.1-0.8-0.2c-0.2-0.1-0.4-0.4-0.4-0.6h-2.6c0.1,1.5,1.5,2.7,3.6,2.7c2.2,0,3.8-0.9,3.8-2.8c0-3-4.7-2.2-4.7-3.4
			c0-0.3,0.3-0.5,0.9-0.5c0.3,0,0.5,0,0.7,0.1c0.2,0.1,0.3,0.3,0.4,0.6H340.5z M328.2,101c-2.5,0-4.3,1.7-4.3,4.2
			c0,2.8,1.7,4.4,4.3,4.4c2.4,0,4.3-1.6,4.3-4.3C332.5,103.1,331.1,101,328.2,101 M328.2,103c1.2,0,1.6,1.1,1.6,2.3
			c0,1.3-0.5,2.3-1.6,2.3c-1.3,0-1.6-1.3-1.6-2.3C326.6,104.2,327,103,328.2,103 M318.6,109.3v-2.5h1.3c2.3,0,3.4-1.1,3.4-2.9
			c0-1.7-1.1-2.8-3.5-2.8H316v8.2H318.6z M318.6,104.9v-1.8h0.8c0.6,0,1.4,0.1,1.4,0.9c0,0.7-0.5,1-1.1,1H318.6z M310.9,107.1
			l1.3,2.3h3l-2.8-4.2l2.8-3.9h-3l-1.2,2.1l-1.2-2.1h-3l2.6,3.9l-2.9,4.2h3L310.9,107.1z M306,109.3v-1.9h-4.1v-1.3h3.4v-1.9h-3.4
			v-1.2h4v-1.9h-6.6v8.2H306z"/>
	</g>
</g>
<text transform="matrix(1 0 0 1 366.9873 109.3232)" class="st34 st35"> </text>
<g>
	<g>
		<defs>
			<rect id="SVGID_71_" y="0" width="510.2" height="240.9"/>
		</defs>
		<clipPath id="SVGID_72_">
			<use xlink:href="#SVGID_71_"  style="overflow:visible;"/>
		</clipPath>
		<path class="st38" d="M346.2,122.9c2.1,0,3.5-0.6,3.5-2.5c0-0.9-0.5-1.6-1.4-1.9c0.5-0.3,1.1-0.9,1.1-1.8c0-1.6-1.5-2-3.3-2h-3.9
			v8.2H346.2z M345.9,116.7c0.6,0,1.1,0,1.1,0.6c0,0.5-0.4,0.7-0.9,0.7h-1.1v-1.4H345.9z M345.8,119.5c0.9,0,1.5,0,1.5,0.8
			c0,0.6-0.5,0.7-1.2,0.7h-1.2v-1.5C344.9,119.5,345.8,119.5,345.8,119.5z M333.6,116.9h2.4v6h2.7v-6h2.4v-2.1h-7.5L333.6,116.9
			L333.6,116.9z M324.8,114.6c-2.5,0-4.3,1.7-4.3,4.2c0,2.8,1.7,4.4,4.3,4.4c2.4,0,4.3-1.6,4.3-4.3
			C329,116.7,327.7,114.6,324.8,114.6 M324.7,116.6c1.2,0,1.6,1.1,1.6,2.3c0,1.3-0.5,2.3-1.6,2.3c-1.3,0-1.6-1.3-1.6-2.3
			C323.2,117.8,323.5,116.6,324.7,116.6 M312.2,116.9h2.4v6h2.7v-6h2.4v-2.1h-7.5L312.2,116.9L312.2,116.9z"/>
	</g>
	<g>
		<defs>
			<rect id="SVGID_73_" y="0" width="510.2" height="240.9"/>
		</defs>
		<clipPath id="SVGID_74_">
			<use xlink:href="#SVGID_73_"  style="overflow:visible;"/>
		</clipPath>
		<path class="st39" d="M483.2,101.2h-2.5v8.2h2.6v-2.6l-0.1-1.9l2.9,4.4h2.5v-8.2H486v2.6l0.1,1.9L483.2,101.2z M475.2,101
			c-2.5,0-4.3,1.7-4.3,4.2c0,2.8,1.7,4.4,4.3,4.4c2.4,0,4.3-1.6,4.3-4.3C479.5,103.1,478.1,101,475.2,101 M475.2,103
			c1.2,0,1.6,1.1,1.6,2.3c0,1.3-0.5,2.3-1.6,2.3c-1.3,0-1.6-1.3-1.6-2.3C473.6,104.2,474,103,475.2,103 M469.6,101.2H467v8.2h2.7
			V101.2z M458.3,103.3h2.4v6h2.7v-6h2.4v-2.1h-7.5L458.3,103.3L458.3,103.3z M457,101.2h-2.7v8.2h2.7V101.2z M448.9,106.5
			c1.2,0,1.4,0.4,1.4,1.4c0,0.7,0.1,1.2,0.1,1.4h2.7v-0.2c-0.3,0-0.3-0.4-0.3-1.4c0-1.6-0.5-1.8-1.4-2.2c1-0.3,1.4-1.1,1.4-2
			c0-1.6-0.9-2.3-3.6-2.3h-3.8v8.2h2.7v-2.8H448.9z M448.1,103.1h1.2c0.6,0,1.1,0.3,1.1,0.8c0,0.6-0.4,0.8-1.3,0.8h-1.1L448.1,103.1
			L448.1,103.1z M436.9,103.3h2.4v6h2.7v-6h2.4v-2.1h-7.5L436.9,103.3L436.9,103.3z M427.9,105.8c0,2.8,1.4,3.8,3.9,3.8
			c2.7,0,3.9-1.1,3.9-3.8v-4.6h-2.7v4.9c0,0.9-0.3,1.5-1.2,1.5c-1.1,0-1.3-0.7-1.3-1.5v-4.9h-2.7L427.9,105.8L427.9,105.8z
			 M421,101.2h-2.5v8.2h2.6v-2.6l-0.1-1.9l2.9,4.4h2.5v-8.2h-2.6v2.6l0.1,1.9L421,101.2z M417.3,109.3v-1.9h-3.7v-6.2H411v8.2H417.3
			z M404.1,109.3l0.3-1.1h2.7l0.3,1.1h2.7l-2.9-8.2h-2.7l-2.9,8.2H404.1z M406.6,106.6h-1.7l0.8-2.9L406.6,106.6z M393.7,109.3v-2.8
			l-0.1-1.3l-0.1-1.2h0l1.5,5.2h1.9l1.5-5.2h0l-0.1,1.5l0,1.3v2.5h2.4v-8.2h-3.2l-1.4,5.1l-1.4-5.1h-3.2v8.2H393.7z"/>
	</g>
	<g>
		<defs>
			<rect id="SVGID_75_" y="0" width="510.2" height="240.9"/>
		</defs>
		<clipPath id="SVGID_76_">
			<use xlink:href="#SVGID_75_"  style="overflow:visible;"/>
		</clipPath>
		<path class="st40" d="M401.3,142.8h-3v2.1h3V142.8z M393.3,143.9c1.2,0,1.4,0.4,1.4,1.4c0,0.7,0.1,1.2,0.1,1.4h2.7v-0.2
			c-0.3,0-0.3-0.4-0.3-1.4c0-1.6-0.5-1.8-1.4-2.2c1-0.3,1.4-1.1,1.4-2c0-1.6-0.9-2.3-3.6-2.3h-3.9v8.1h2.7v-2.8H393.3z M392.5,140.5
			h1.2c0.6,0,1.1,0.3,1.1,0.8c0,0.6-0.4,0.8-1.3,0.8h-1.1L392.5,140.5L392.5,140.5z M388.6,146.7v-1.9h-4.1v-1.3h3.4v-1.9h-3.4v-1.2
			h4v-1.9h-6.6v8.1L388.6,146.7L388.6,146.7z M375.2,146.7h2.7l2.8-8.1H378l-1.5,5.4l-1.4-5.4h-2.7L375.2,146.7z M367.4,138.4
			c-2.5,0-4.3,1.7-4.3,4.2c0,2.8,1.7,4.4,4.3,4.4c2.4,0,4.3-1.6,4.3-4.3C371.7,140.4,370.3,138.4,367.4,138.4 M367.4,140.3
			c1.2,0,1.6,1.1,1.6,2.3c0,1.3-0.5,2.3-1.6,2.3c-1.3,0-1.6-1.3-1.6-2.3C365.8,141.6,366.2,140.3,367.4,140.3"/>
	</g>
	<g>
		<defs>
			<rect id="SVGID_77_" y="0" width="510.2" height="240.9"/>
		</defs>
		<clipPath id="SVGID_78_">
			<use xlink:href="#SVGID_77_"  style="overflow:visible;"/>
		</clipPath>
		<path class="st41" d="M417,155.8h-3.7v1.8h1.2c-0.1,0.6-0.8,0.9-1.4,0.9c-1.3,0-1.7-1.1-1.7-2.2c0-1.4,0.5-2.4,1.6-2.4
			c0.7,0,1.2,0.4,1.4,1h2.5c-0.3-2-1.9-3-3.9-3c-2.6,0-4.3,1.8-4.3,4.4c0,2.8,1.9,4.2,4,4.2c1.3,0,2-0.5,2.5-1l0.1,0.8h1.7
			L417,155.8L417,155.8z M402.1,152.2h-2.5v8.2h2.6v-2.6l-0.1-1.9l2.9,4.4h2.5v-8.2H405v2.6l0.1,1.9L402.1,152.2z M398,152.2h-2.7
			v8.1h2.7V152.2z M389.9,160.3c2.6,0,4.3-1.2,4.3-4.2c0-2.7-1.6-3.9-4.3-3.9h-3.6v8.2H389.9z M389.1,154.1h0.5c1.4,0,2,0.5,2,2.2
			c0,1.5-0.7,2.2-1.9,2.2h-0.6V154.1z M381.1,152.2h-2.2l-1,5h0l-0.9-5h-2.6l2,8.2h2.6l0.9-4.7h0l0.9,4.7h2.6l2-8.2H383l-0.9,5h0
			L381.1,152.2z M369.6,151.9c-2.5,0-4.3,1.7-4.3,4.2c0,2.8,1.7,4.4,4.3,4.4c2.4,0,4.3-1.6,4.3-4.3
			C373.9,154,372.5,151.9,369.6,151.9 M369.6,153.9c1.2,0,1.6,1.1,1.6,2.3c0,1.3-0.5,2.3-1.6,2.3c-1.3,0-1.6-1.3-1.6-2.3
			C368,155.2,368.4,153.9,369.6,153.9 M360.3,157.5c1.2,0,1.4,0.4,1.4,1.4c0,0.7,0.1,1.2,0.1,1.4h2.7v-0.2c-0.3,0-0.3-0.4-0.3-1.4
			c0-1.6-0.5-1.8-1.4-2.2c1-0.3,1.4-1.1,1.4-2c0-1.6-0.9-2.3-3.6-2.3h-3.8v8.2h2.7v-2.8H360.3z M359.5,154.1h1.2
			c0.6,0,1.1,0.3,1.1,0.9c0,0.6-0.4,0.8-1.3,0.8h-1.1L359.5,154.1L359.5,154.1z M355.7,155.3c-0.2-2.1-1.6-3.3-4.1-3.3
			c-2.3,0-4.1,1.6-4.1,4.3c0,2.6,1.6,4.3,4.3,4.3c2.1,0,3.7-1.3,3.9-3.4h-2.6c-0.1,0.8-0.5,1.4-1.4,1.4c-1.4,0-1.6-1.1-1.6-2.2
			c0-1.6,0.6-2.4,1.5-2.4c0.8,0,1.4,0.5,1.4,1.3L355.7,155.3L355.7,155.3z"/>
	</g>
	<g>
		<defs>
			<rect id="SVGID_79_" y="0" width="510.2" height="240.9"/>
		</defs>
		<clipPath id="SVGID_80_">
			<use xlink:href="#SVGID_79_"  style="overflow:visible;"/>
		</clipPath>
		<path class="st42" d="M192.1,106.5c1.2,0,1.4,0.4,1.4,1.4c0,0.7,0.1,1.2,0.1,1.4h2.7v-0.2c-0.3,0-0.3-0.4-0.3-1.4
			c0-1.6-0.5-1.8-1.4-2.2c0.9-0.3,1.4-1.1,1.4-2c0-1.6-0.9-2.3-3.6-2.3h-3.8v8.2h2.7v-2.8C191.3,106.5,192.1,106.5,192.1,106.5z
			 M191.3,103.1h1.2c0.6,0,1.1,0.3,1.1,0.8c0,0.6-0.4,0.8-1.3,0.8h-1.1L191.3,103.1L191.3,103.1z M183.2,101c-2.5,0-4.3,1.7-4.3,4.2
			c0,2.8,1.7,4.4,4.3,4.4c2.4,0,4.3-1.6,4.3-4.3C187.5,103.1,186.1,101,183.2,101 M183.2,103c1.2,0,1.6,1.1,1.6,2.3
			c0,1.3-0.5,2.3-1.6,2.3c-1.3,0-1.6-1.3-1.6-2.3C181.6,104.2,182,103,183.2,103 M173.8,101c-2.5,0-4.3,1.7-4.3,4.2
			c0,2.8,1.7,4.4,4.3,4.4c2.4,0,4.3-1.6,4.3-4.3C178,103.1,176.7,101,173.8,101 M173.7,103c1.2,0,1.6,1.1,1.6,2.3
			c0,1.3-0.5,2.3-1.6,2.3c-1.3,0-1.6-1.3-1.6-2.3C172.2,104.2,172.5,103,173.7,103 M164.2,109.3v-2.5h1.3c2.3,0,3.4-1.1,3.4-2.9
			c0-1.7-1.1-2.8-3.5-2.8h-3.9v8.2H164.2z M164.2,104.9v-1.8h0.8c0.6,0,1.4,0.1,1.4,0.9c0,0.7-0.5,1-1.1,1H164.2z"/>
	</g>
</g>
<text transform="matrix(1 0 0 1 196.3574 109.3232)" class="st34 st35"> </text>
<g>
	<g>
		<defs>
			<rect id="SVGID_81_" y="0" width="510.2" height="240.9"/>
		</defs>
		<clipPath id="SVGID_82_">
			<use xlink:href="#SVGID_81_"  style="overflow:visible;"/>
		</clipPath>
		<path class="st43" d="M215.9,114.8h-2.5v8.2h2.6v-2.6l-0.1-1.9l2.9,4.4h2.5v-8.2h-2.6v2.6l0.1,1.9L215.9,114.8z M207.9,114.6
			c-2.5,0-4.3,1.7-4.3,4.2c0,2.8,1.7,4.4,4.3,4.4c2.4,0,4.3-1.6,4.3-4.3C212.2,116.7,210.8,114.6,207.9,114.6 M207.9,116.6
			c1.2,0,1.6,1.1,1.6,2.3c0,1.3-0.5,2.3-1.6,2.3c-1.3,0-1.6-1.3-1.6-2.3C206.3,117.8,206.7,116.6,207.9,116.6 M202.3,114.8h-2.7v8.2
			h2.7V114.8z M191,116.9h2.4v6h2.7v-6h2.4v-2.1H191V116.9z M185.6,122.9l0.3-1.1h2.7l0.3,1.1h2.7l-2.9-8.2h-2.7l-2.9,8.2H185.6z
			 M188.1,120.2h-1.7l0.8-2.9L188.1,120.2z M182.5,122.9V121h-3.7v-6.2h-2.7v8.2H182.5z M174.4,114.8h-2.7v8.2h2.7V114.8z
			 M163.1,116.9h2.4v6h2.7v-6h2.4v-2.1h-7.5V116.9z M156.6,114.8h-2.5v8.2h2.6v-2.6l-0.1-1.9l2.9,4.4h2.5v-8.2h-2.6v2.6l0.1,1.9
			L156.6,114.8z M152.8,122.9V121h-4.1v-1.3h3.4v-1.9h-3.4v-1.2h4v-1.9H146v8.2H152.8z M139.4,122.9h2.7l2.8-8.2h-2.7l-1.5,5.4
			l-1.4-5.4h-2.7L139.4,122.9z"/>
	</g>
</g>
<path d="M131.9,145.1h2.7l2.8-8.1h-2.7l-1.5,5.4l-1.4-5.4h-2.7L131.9,145.1z M128,137h-2.7v8.1h2.7V137z M118.5,145.1V142h2.5v3.2
	h2.7V137h-2.7v2.8h-2.5V137h-2.7v8.1H118.5z"/>
<text transform="matrix(1 0 0 1 137.459 145.1167)" class="st34 st35"> </text>
<g>
	<g>
		<defs>
			<rect id="SVGID_83_" y="0" width="510.2" height="240.9"/>
		</defs>
		<clipPath id="SVGID_84_">
			<use xlink:href="#SVGID_83_"  style="overflow:visible;"/>
		</clipPath>
		<path class="st44" d="M156.7,150.8h-2.6v8.5h2.7v-2.7l-0.1-1.9l3,4.6h2.6v-8.5h-2.7v2.7l0.1,1.9L156.7,150.8z M148.4,150.6
			c-2.7,0-4.5,1.7-4.5,4.4c0,2.9,1.8,4.6,4.5,4.6c2.5,0,4.5-1.6,4.5-4.5C152.8,152.8,151.4,150.6,148.4,150.6 M148.3,152.7
			c1.2,0,1.7,1.2,1.7,2.4c0,1.4-0.5,2.5-1.7,2.5c-1.3,0-1.7-1.4-1.7-2.5C146.7,154,147.1,152.7,148.3,152.7 M142.5,150.8h-2.8v8.5
			h2.8V150.8z M130.6,153.1h2.5v6.3h2.8v-6.3h2.5v-2.2h-7.8V153.1z M129.8,154.1c-0.2-2.2-1.7-3.5-4.3-3.5c-2.4,0-4.3,1.7-4.3,4.5
			c0,2.8,1.7,4.5,4.5,4.5c2.3,0,3.8-1.3,4.1-3.5h-2.7c-0.1,0.8-0.5,1.4-1.4,1.4c-1.4,0-1.7-1.1-1.7-2.3c0-1.6,0.6-2.5,1.6-2.5
			c0.9,0,1.4,0.5,1.5,1.4H129.8z M120.5,159.4v-2h-4.3V156h3.5v-2h-3.5v-1.2h4.2v-2h-7v8.5H120.5z M108.2,159.4v-3h3.1v-2h-3.1v-1.6
			h3.8v-2h-6.6v8.5L108.2,159.4L108.2,159.4z M98.1,150.8h-2.6v8.5h2.7v-2.7l-0.1-1.9l3.1,4.6h2.6v-8.5H101v2.7l0.1,1.9L98.1,150.8z
			 M93.8,150.8H91v8.5h2.8V150.8z"/>
	</g>
</g>
</svg>
