<svg version="1.1" xmlns="http://www.w3.org/2000/svg" x="0" y="0" width="326.984" height="392.417" viewBox="-58.29 -72.019 326.984 392.417" xml:space="preserve"><g fill="none" stroke="#000" stroke-linecap="round"><path d="M53.212 69.186l-.445.192c-.023 5.906 8.735 7.574 11.93 3.007M149.54 69.186c.661-.189 1.18-.522 1.913-.64M58.953 70.145c-.481-.084-1.037-.391-1.276-.96M145.074 71.104c.064.148.127.297.193.445 3.312 1.802 10.247 3.134 11.923-1.085M118.281 103.083c1.211-.275 2.688-.671 3.828 0M84.471 103.723h4.465M83.195 136.98c2.335.454 5.247-.466 7.018 1.28M118.918 137.623c3.369-.216 6.687.223 9.889.958M80.643 140.178c2.064 1.58 4.501 1.015 7.017 1.28M118.281 140.818c3.323-.452 6.735 1.076 9.889-.32M122.747 144.978c.379-.185 1.145-.282 1.914-.324M149.858-30.907c1.072 5.2 1.667 10.6.532 15.883M150.391-15.024c4.877 3.917 9.394 8.032 15.524 9.805M165.915-5.217c2.242.021 4.196-1.312 6.085-2.214 4.9-.91 8.14-2.258 12.12-3.199 17.489-4.142 26.55-4.3 39.573 5.475 13.406 10.062 27.068 23.022 42.74 32.617.706.143 1.086.616 1.761.791M165.915-5.217C154.68 4.007 139.734 7.32 125.298 9.066M150.391-15.024c-5.639 5.177-12.917 7.095-19.986 9.379M149.858-30.907c-6.522 4.434-15.992 6.286-24.018 9.178-13.117 4.726-23.448 8.87-36.067 5.651-7.079-1.806-12.996-5.226-20.745-7.984-8.551-3.046-16.986-4.84-23.934-11.807-7.475-7.494-13.532-17.672-16.764-29.894M149.858-30.907c1.595-.971 3.257-1.691 4.295-3.369 16.754-3.739 21.396-22.327 21.541-37.243M99.144-66.402c-6.488-7.828-16.7 1.014-21.242 6.458.207.133.733.54 1.255 1.003M79.155-58.94c.08-.025.161-.048.239-.073 6.169.553 10.904 2.022 16.062 2.704 8.646 1.138 13.906-3.081 23.781-4.976M119.238-61.286c.231-.446.494-.872.623-1.219-3.502-5.111-13.608-12.016-18.166-4.538M79.155-58.94c6.095 17.148 35.871 16.291 40.083-2.345M86.386-32.506c5.434 9.292 24.495 6.802 29.344-2.559M51.618-10.601c2.922 4.214 8.522 4.937 13.077 6.236M36.837-4.152C51.78 3.631 68.374 11.062 86.384 9.707M36.837-4.152C-4.693-15.49-28.514 26.219-57.79 46.161M36.837-4.152c.023-.082.045-.165.07-.249 4.924-1.676 10.327-2.934 14.71-6.2M51.618-10.601c-.143-4.761-.98-10.179.957-14.871M109.35 175.995c-.723-24.519-4.058-50.146-.32-73.871M109.032 102.124c.066-6.069-.701-12.344.056-18.187 3.622-7.419 12.603-8.804 19.719-5.957M128.807 77.979c.14-.039.278-.076.418-.116 9.464 6.04 10.592 17.767 11.894 27.909 2.247 17.597-1.775 39.693 3.744 54.659M144.862 160.431c4.335-.135 7.165 3.803 11.377 4.368M156.239 164.804c4.396-3.519 10.505-3.567 15.946-4.64M172.186 160.165c4.207-12.801 8.276-25.878 15.152-37.734M187.338 122.43c-.987-1.08-1.794-2.909-1.117-4.319M186.221 118.111c-2.483-14.916-4.941-30.799-3.511-46.049M182.71 72.062c-.418-3.172.522-6.017 1.386-8.954M184.096 63.11c1.664-7.268 5.707-15.775 12.652-18.867M184.096 63.11c17.098-16.942 42.104-2.537 54.436 13.431M182.71 72.062c4.456 2.054 8.777 5.002 11.657 9.101 12.872 11.461 20.001 22.937 24.574 39.32 3.46 12.399-.423 26.228 2.472 36.538M221.413 157.02c6.691 9.13 7.853 22.459 5.315 33.678M226.731 190.705l.55.216c8.695 10.23-.853 28.254-3.981 44.847-3.481 18.457-3.547 30.426-5.694 44.923-1.61 10.871-4.185 21.065-2.349 31.531M226.731 190.705c-1.778 2.604-2.158 5.768-3.823 8.312"/><path d="M221.413 157.02c-.516.861-.766 2.359.085 3.111 4.263 11.777-1.888 22.387-6.887 32.488M189.729 120.35c2.205-1.401 4.059-3.283 6.38-4.477M172.186 160.165c7.26-.338 14.761.233 21.691 2.717M156.239 164.804c6.667 5.131 12.163 11.782 17.543 18.229M144.862 160.431c3.979 12.957 15.082 23.6 15.522 37.947M109.032 102.124c3.513 8.46 16.01 9.219 21.041 1.905 1.359-8.408 2.009-18.177-1.267-26.048M187.338 122.43c1.281-.134 1.77-1.119 2.392-2.08M189.729 120.35c-1.461-.501-1.757-2.624-3.509-2.239M27.376 70.145c1.533 5.202 2.114 11.659 1.116 17.267M28.492 87.414c.801 12.377-.816 24.575-5.051 35.921M23.441 123.335c7.697 12.126 15.096 25.255 17.331 39.546M40.772 162.881c1.845 1.749 4.937 2.626 7.337 3.518M40.772 162.881c-6.915-.738-13.011-4.39-20.094-4.156M23.441 123.335c-.987-.296-1.894-.588-2.765-1.067M28.492 87.414c-7.574 4.461-22.917 21.858-26.824 33.068-1.627 4.674-2.667 9.116-3.825 13.433-3.576 13.312-7.989 28.391-10.21 41.57-.857 5.095-.216 10.634.189 14.896M-12.177 190.384c2.229 4.752 1.802 10.471 3.509 15.03M-12.177 190.384c-8.704 6.742-6.228 19.047-5.209 28.675M-17.385 219.059c1.091 3.484 1.806 7.091 2.34 10.656"/><path d="M-17.385 219.059l-.248.073c-6.022 15.2 5.099 29.604 9.475 44.613 4.76 16.325 8.169 35.059 13.526 51.035M-30.356 95.409c4.588-4.336 13.729-11.404 21.859-18.377C3.721 66.55 12.959 57.668 27.377 70.148M27.376 70.145c.06-9.446-6.994-21.115-17.861-19.826M56.083 165.441c.077.144.155.282.231.425-3.293 10.079-5.167 20.882-4.379 31.874M56.083 165.441c-9.014 5.872-18.558 14.191-22.008 24.622M56.083 165.441c6.485-10.149 10-28.344 11.457-45.713.981-11.689-.47-34.038 11.827-37.427M79.367 82.297c4.55-7.611 12.603-5.17 16.247.021 2.161 3.082 1.396 8.23 2.254 11.811M97.868 94.129c.441.647.75 1.01 1.129 1.409 1.733 24.728 1.299 50.386-1.768 74.699"/><path d="M79.367 82.297c.182 7.909-2.627 16.089-.454 23.801 4.25 4.202 11.667 3.323 16.241.019 1.644-3.828 1.253-8.124 2.714-11.988M82.558 144.654c1.935.485 4.105 1.128 5.743-.637M96.592 177.276v-1.921M74.582 319.898c20.506-43.51 30.064-94.342 22.008-142.622M96.592 177.276c-4.257 5.861-6.425 13.78-9.568 20.464M109.35 183.668c.259-1.06.687-2.089.637-3.199M109.35 183.668c.466.318.777.545 1.082.771.445 3.991 1.521 7.589 2.746 11.383"/><path d="M145.393 319.578c-14.73-18.619-19.781-28.859-25.698-45.231-2.795-7.734-4.812-18.862-5.791-28.729-.851-8.571-1.049-18.818-1.686-28.606-.909-13.899-4.779-25.692-2.861-33.343"/></g></svg>