<svg version="1.1" xmlns="http://www.w3.org/2000/svg" x="0" y="0" width="411.023" height="398.256" viewBox="-42.52 0 411.023 398.256" xml:space="preserve"><path d="M235.228.021c.655-.08 1.083.069 1.153.577.595 1.308-1.053 2.671-1.731 3.462-2.733 3.186-5.964 6.176-8.654 10.096-3.426 4.988-5.033 12.774-9.519 16.442-2.541 2.079-5.957 2.571-8.653 4.328-14.158-.398-26.429-5.381-40.667-5.193 8.238 7.245 17.595 15.862 22.207 27.692-1.943.113-2.652-2.381-3.46-3.75-2.663-4.513-6.362-9.574-10.095-13.269-10.405-13.389-27.662-17.842-47.016-21.922-18.038-3.804-34.527.163-52.791 1.153-5.449.296-11.129 0-16.731 0-8.001 0-15.826-.188-23.941-.288-13.247-.164-25.939 2.048-37.5 1.443.613-2.035 3.391-1.347 4.903-1.443 20.282-1.281 41.397-1.66 62.886-1.731 9.5-.032 17.957-.438 26.828-1.441 25.817-2.925 52.063 1.347 71.539 12.116 9.138.163 17.275 1 26.534 2.595 10.087 1.74 18.062 4.341 25.094-1.73 3.9-3.366 6.269-12.261 9.521-16.731 1.462-2.01 3.373-3.878 4.902-5.77 1.806-2.241 3.487-4.356 5.191-6.636zM201.48 57.425c4.782 4.382 12.701 6.742 19.612 9.231 14.062 5.061 24.861 13.935 34.327 23.653-4.846-2.402-8.76-6.108-12.694-9.519-4.025-3.493-8.475-5.788-13.266-8.654-9.546-4.304-20.77-6.922-27.981-13.558-.479-.574.027-.368.002-1.153zM69.081 80.503h.864c7.697 6.511 15.033 14.006 21.923 21.634 2.466 2.731 5.542 4.892 7.788 7.791 2.072 2.67 3.775 5.572 6.059 8.364 4.25 5.198 7.747 11.52 10.672 18.174 1.36 3.09 3.626 6.195 3.751 9.807-1.852-.633-2.417-3.093-3.174-4.615-2.737-5.509-5.083-11.155-8.365-16.442-2.124-3.42-4.372-6.651-6.635-9.807-6.845-9.553-16.705-17.303-24.229-26.54-3.457-1.928-5.798-4.973-8.654-7.501-.514-.213-.043-.525 0-.865zM99.368 129.83c-22.547-3.589-45.152 5.432-69.231 3.171 3.644 14.017 9.985 27.322 12.981 42.693 1.509 7.749 1.779 15.953 2.596 24.231 1.596 16.162 1.205 33.828 3.751 49.616 1.286 7.979 2.785 15.372 4.614 23.077 2.607 10.984 6.846 21.333 9.231 32.308.613 2.828 1.108 5.579 2.019 7.788 1.348 3.264 1.887 8.99 2.596 13.559 2.903 18.662 7.611 35.714 13.557 51.924 1.147 3.129 2.64 6.322 3.75 9.519 1.035 2.975 2.772 6.19 2.308 9.521-2.437.322-.79-3.439-2.885-3.463.417-3.063-1.507-5.824-2.596-8.652-6.597-17.156-12.159-36.986-15.865-57.405-.555-3.057-.488-6.079-1.153-8.653-.229-.875-.9-1.733-1.155-2.596-1.045-3.528-1.527-7.579-2.308-11.251-2.315-10.897-6.967-21.777-9.519-32.885-1.783-7.758-3.478-15.46-4.326-23.365-1.769-16.457-2.573-33.246-4.039-49.615-.733-8.189-.292-16.34-2.019-23.942-3.412-15.015-9.174-28.388-14.136-42.117-6.805-.925-13.889-1.353-21.059-2.596-7.36-1.276-14.791-1.179-22.5-1.731-5.92-.424-11.825-1.191-18.461-1.154-1.615.009-4.274.366-5.193-1.153v-.577c-.045-.336.064-.514.288-.578 13.729 1.434 32.508 1.437 48.175 3.752 15.028 2.22 29.667 2.788 44.422 1.73 12.063-.863 22.974-4.589 36.636-3.749 3.304.2 7.453.446 9.521 2.593z"/><path d="M68.504 134.445c1.277 6.317 5.357 9.837 11.249 11.54 1.95 3.041-.018 6.684.288 9.518.573 5.326 6.805 6.054 7.211 11.539-1.372-4.79-7.463-5.777-8.077-10.96-.34-2.875 1.927-5.778.288-9.233-5.479-2.087-11.508-6.147-10.959-12.404zM124.177 148.867c5.465 6.654 10.608 13.622 15.289 21.059-1.768-1.208-3.063-3.225-4.326-4.904-3.739-4.967-7.447-10.596-10.963-16.155zM209.265 170.214c-4.282-1.063-5.7 2.091-8.363 2.597-7.318 1.393-12.532-7.905-20.479-2.885-1.472 1.313-2.136 3.439-4.035 4.326 2.119-4.112 4.862-6.846 10.959-6.346 4.755.391 7.493 4.518 12.689 4.04 3.911-.362 5.533-4.347 9.229-1.732zM86.677 169.349c.335-.046.514.063.578.287-.114 6.363 2.134 10.364 6.058 12.693 1.269.115.753-1.555 1.731-1.73 1.28-.001-.47 1.009-.577 1.443-2.779 7.029-.097 16.349 4.038 19.904 2.665 2.29 7.161 4.136 6.345 10.096-1.544-9.156-10.922-9.561-12.115-19.616-.362-3.049.133-6.281.866-9.23-4.96-1.966-7.133-6.715-6.924-13.847zM226.862 186.946c3.264-7.218.902-14.46-7.211-15.866-3.932-.681-7.111.947-10.674 2.021 6.867-5.405 19.9-2.574 20.192 6.347.108 3.314-1.37 4.71-2.307 7.498zM184.751 182.042c-2.234-1.502-3.517-4.588-6.921-5.771-.842-.291-2.662-.567-3.748-.577-4.023-.036-7.265 3.373-10.961 3.463-3.954.095-7.189-4.939-10.673-5.482-2.445-.381-3.891.562-6.346.866 3.69-2.456 7.626-2.072 11.25.289 1.64 1.067 3.202 3.27 4.903 3.46 3.866.435 7.438-3.408 11.827-3.46 5.105-.063 8.117 3.078 10.669 7.212zM248.208 187.235c-.715-3.192-1.148-6.452-3.749-8.367-3.099-2.276-7.594-3.112-12.117-1.441 6.3-4.309 17.976 1.47 15.866 9.808zM140.044 176.561c-.1.766-.758.974-1.444 1.153-.279-1.143.836-.895 1.444-1.153zM199.171 195.599c1.496-.946 3.655-2.636 5.192-2.596-1.321 1.468-3.802 1.773-5.192 3.175-3.694-1.86-7.527-7.259-12.688-4.615-2.237 1.144-3.046 4.527-5.192 6.346.039-2.655 3.476-4.405 4.614-6.924 5.842-1.871 9.539 1.968 13.266 4.614zM249.073 191.849c4.54 1.868 10.718-.08 14.712 2.887 1.085.804 2.95 3.464 3.464 5.191.391 1.32 1.01 3.999-.579 5.192.744-4.609-1.677-7.979-4.04-10.384-4.12-2.589-10.302.337-13.557-2.886zM198.305 196.753c-1.854 5.195-1.233 12.5 0 18.461 1.236-1.868 2.548-4.446 2.886-6.346 3.551 1.505 6.009 4.449 5.768 9.231-.102 2.021-1.487 3.288-1.729 5.192-.42 3.287 3.38 6.469 4.324 10.961.841 3.996.587 7.283 0 11.539-1.721-1.497.044-4.273-.289-6.635-.138-.975-1.164-4.127-1.73-5.77-2.119-6.158-7.01-11.84-6.344-19.039 1.739 1.628.588 6.142 2.305 7.789 2.97-3.064 1.9-9.641-1.729-11.249-2.603 3.07-.96 10.385-3.463 13.557-.449 5.55 3.139 7.053 4.616 10.672-2.815-2.471-5.664-4.913-5.192-10.672-4.046-1.285-5.64-11.935-11.825-8.365-.615 3.126 3.364 5.109 3.172 7.788-.165 2.345-2.47 3.027-2.305 5.192.233 3.111 4.859 6.135 8.364 6.924 3.053.688 5.288-.175 8.361.864.987 2.861 2.492 5.201 4.327 7.212-3.305-.541-3.655-4.037-5.192-6.347-8.156.566-18.281-1.879-17.595-10.962.562-1.27 1.771-1.885 2.311-3.172-1.049-2.513-3.045-4.07-3.463-7.212.499-1.521 2.149-1.887 2.886-3.173 6.788-.155 6.838 6.43 10.958 8.942 1.56-7.049-4.5-17.934.578-25.382zM180.717 198.484c.271 1.344-1.882 1.758-.867 2.886-1.427.428-.569-2.871.867-2.886zM176.099 204.254c-2.858-.67-6.248-1.928-8.941-1.443-5.231.943-6.597 8.891-5.191 12.693-3.145-3.059-.181-9.738 2.308-11.827 2.036-1.71 3.77-1.146 6.922-.866 2.044.18 4.379-.713 4.902 1.443zM266.382 205.406c1.388 1.632-1.448 3.637-1.153 6.06-.519.035-.609-.354-1.153-.289.787-1.904 1.643-3.741 2.306-5.771zM281.673 233.677c-1.134-1.49-1.234-2.795-2.02-4.039-1.535-2.421-6.281-4.162-6.635-7.789-.343-3.489 3.708-5.201 3.459-8.94-.204-3.096-3.433-5.02-7.499-4.326.127-.259.253-.517.578-.577 2.336-.905 5.245.22 6.345 1.441 3.87 4.302-2.269 8.185-2.017 12.116.327 5.135 8.347 5.442 7.789 12.114zM151.87 213.485c.707.254 1.663.26 1.73 1.153-.909-.051-1.72-.202-1.73-1.153zM147.831 213.773h1.153a.616.616 0 0 1-1.153 0zM259.17 214.061c1 1.02.427 3.611 1.153 4.902 2.648 2.217 7.399 1.701 8.079 5.48.655 3.671-2.426 8.286-4.617 10.673 1.206-3.081 4.3-6.417 4.039-9.807-.304-3.95-4.841-3.969-8.076-5.77-.289-1.441-.68-2.782-.578-4.616-10.025-1.166-14.539 5.642-19.613 10.386 3.607-5.734 9.959-11.371 19.613-11.248zM146.1 214.927c.517-.036.608.353 1.155.287-.251.422-.432.915-1.155.866v-1.153zM75.426 215.504c1.619.591 2.113 2.312 3.174 3.46-1.564-.648-2.436-1.987-3.174-3.46zM145.811 217.235c1.033-.167.878.854.867 1.729-.893.028-.86-.87-.867-1.729zM78.889 219.83c.07-.363.573-.29.577 0 5.486 6.135 9.94 12.121 13.269 18.75 3.845 7.657 4.142 16.739 6.347 25.386 1.914 7.505 5.983 15.417 9.808 22.788 7.462 14.388 17.223 25.843 29.711 35.193 6.049 4.531 13.295 8.938 20.193 12.116 12.063 5.563 26.52 8.078 41.532 9.809 1.831.211 3.381.285 4.615.288 2.06.002 3.703-.994 6.058-1.154 1.381-.095 2.967.668 4.614.577 3.194-.178 7.786-1.703 11.537-2.885 18.084-5.689 33-15.21 44.713-27.405 3.435-3.575 6.644-7.743 9.519-12.116 4.512-6.86 7.697-16.021 10.963-24.806-.056 10.181-5.422 18.536-10.096 25.961-11.87 18.852-29.958 31.047-53.366 39.229-7.619 2.664-14.69 4.326-24.23 4.326-2.825 0-5.466-.832-8.074-1.153-6.81-.84-14.601-1.066-21.344-2.883-11.965-3.229-22.213-8.509-31.44-14.425-9.217-5.909-17.71-13.029-24.521-21.348-7.15-8.732-11.569-18.539-16.731-29.134-2.754-5.653-4.604-10.978-5.77-17.308-1.046-5.691-2.233-12.132-4.615-18.174-1.539-3.9-4.373-7.41-6.346-11.249-1.878-3.649-3.85-7.478-6.923-10.383zM146.389 220.119c.608.235.792 1.521.289 2.021-.608-.237-.793-1.523-.289-2.021zM146.678 223.292c.43-.867 1.293.212 1.153.865-1.129.458-.598-.749-1.153-.865z"/><path d="M197.443 229.349c-2.115.286-2.149-1.504-3.461-2.02-1.277 1.126-2.408 2.4-3.172 4.039-.735-1.702 1.201-3.214 2.305-4.039-.594-.656-1.502-.995-2.885-.865 1.7-1.004 5.444.363 6.059 2.309.51.066 1.443-.29 1.154.576zM251.959 234.254c.342 2.379-2.999 3.322-.866 4.903-.669.093-1.107-.046-1.441-.288-1.763 2.369-3.312 4.756-6.924 4.903-2.933.122-6.43-1.795-8.942 0 5.09.07 9.397 4.567 14.714 4.038 4.217-.419 7.443-4.001 9.23-7.787-1.853-1.261-4.162-.578-6.058-1.443 1.782-.238 5.572.002 6.924 1.154-1.02 3.939-6.061 8.588-10.387 8.942-5.277.43-9.725-5.196-15.865-3.75-4.678 1.102-7.454 8.273-13.271 8.078 9.365-5.156 14.979-14.062 27.981-15.576-2.136 2.477-7.496 1.729-10.096 3.748 6.169 2.669 11.016-.82 12.405-5.481-5.613-.805-11.181.656-14.999 3.174 1.955-.069 5.516-1.021 8.364-1.154-3.163 1.547-8.081 1.341-10.959 3.174-2.556 1.771-4.279 4.373-6.924 6.059.957-2.556 3.257-4.736 5.193-6.634 5.01-4.914 11.739-7.01 21.921-6.06zM278.209 236.273c5.604.546 4.705 12.237.578 14.712 3.775 4.355 3.779 16.766 0 21.058 1.966-5.256 3.643-15.165-.288-19.615-1.918.302-5.411-1.827-6.635-4.039 1.859.833 2.926 2.46 4.902 3.175 4.731-2.829 6.87-11.897 1.443-15.291zM266.67 237.427c1.19.442 2.507.763 2.886 2.019-.996-.638-2.323-.947-2.886-2.019zM140.907 238.293c-1.562 2.734-5.317 3.094-6.345 6.347-.941 2.978 1.712 7.428-.577 10.385 3.481 4.357 11.778-.873 15.288 0-.057 1.384-.443 2.44-.577 3.75 1.378 1.122 4.302.698 5.193 2.308-2.226-.371-4.019-1.175-6.059-1.73-.005-1.545.924-2.152.577-4.038-4.676.48-11.639 4.222-15.001 0 1.858-3.104-.692-8.216.866-11.54 1.335-2.847 3.888-3.137 6.635-5.482zM108.022 239.157c-.965 3.304-3.172 7.135-2.021 11.538.948 3.618 4.427 7.705 7.501 8.366 1.246.269 4.087.359 4.615-1.155.584 2.195-2.911 2.747-5.192 2.021-6.673-2.127-10.742-14.858-4.903-20.77zM264.075 254.446c-4.064 3.146-10.576 2.991-16.156 3.75-7.863 1.067-16.201.791-23.077-.865 3.04-2.289 6.983-.284 10.675 0 2.817.217 6.708.445 9.519-.577 4.021-1.462 6.415-6.43 12.979-4.326-3.246.273-8.38.928-10.673 3.75 4.295-.129 11.105-.241 14.424-2.309-1.288-1.687-3.591-3.67-5.48-4.038-2.767-.538-6.064 1.212-8.366 2.308-3.199 1.523-6.048 3.659-9.808 3.75-3.981.096-5.322-2.539-10.097-2.021 3.437-2.177 5.894.76 10.097.576 7.117-.308 12.381-7.023 18.462-6.059 1.837.295 8.277 3.828 7.501 6.061zM209.556 254.158c.71 2.668 4.729 2.849 6.345.865-.163 2.874-7.195 2.963-6.345-.865zM218.207 254.446h.865c.356 4.201-.834 6.857-4.613 6.924 2.48-1.076 4.337-2.781 3.748-6.924zM200.039 259.062c-2.857 2.112-9.776-.278-12.403 2.596-2.827.005-4.641-.478-6.633.577.73 9.647-3.593 12.402-12.692 13.558-5.687.722-12.523.855-15.864-2.308-.825-5.285 2.687-8.634 4.326-12.405 2.886-1.9 6.188-.965 9.809-1.441 2.141-.284 4.067-1.909 6.345-2.309 3.308-.579 6.805.381 9.228-1.73 5.164 2.977 13.385-.11 17.884 3.462zm-13.268-.864c-2.033-2.135-3.896-.303-6.347.286-4.827 1.166-9.355-.245-11.823 2.597-.055 1.166 2.295.956 1.441 2.02-4.219-1.572-8.34-3.557-11.827-.864-2.643 2.041-3.657 6.093-4.04 10.385 5.384 3.787 15.872.695 21.923-.288 2.965-1.848 2.976-7.03 3.172-10.096-1.203-.244-1.361.563-2.307.577.259 6.813-7.286 8.842-12.401 8.365 4.785-.405 8.352-2.031 10.958-4.615-1.525-.235-5.498-.178-6.92-1.443 2.704-.123 5.245 1.391 7.209.289-.201-1.259.49-1.623.289-2.885 3.128-1.011 6.979-4.437 10.384-1.73 2.797-1.843 7.323-2.067 11.248-2.02-3.654-.718-6.449-.662-10.959-.578zM123.312 258.198h.864c.158.418-.336 1.49.289 1.443-.544.8-1.277-.624-1.153-1.443z"/><path d="M276.191 258.198c1.112-.168.418 1.898-.29 1.729-.038-.711-.045-1.39.29-1.729zM205.519 260.216c-2.578 1.727-6.354.857-9.23 1.153-5.667.579-9.833 4.43-13.268 6.923 2.427 7.657-3.901 11.191-6.344 15.865-3.39.938-5.105 3.549-9.808 3.172-3.368-2.055-1.697-8.566.287-10.96-.083 2.994-3.358 9.63.865 10.384 2.84.509 4.928-2.695 7.787-3.171 2.896-4.139 8.607-8.167 6.345-15.578 4.988-5.58 14.729-8.283 23.366-7.788zM206.094 259.927c.467-.081.497.272.865.289-.523 1.399-1.47 2.375-1.439 4.325-5.207 7.145-18.148 11.246-23.076 20.482-1.298 2.437-2.518 7.066.578 8.077 1.621-.396 1.915-2.123 3.75-2.308-8.391 5.66-6.107 16.412-2.886 25.096.993.126 1.618-.114 2.31-.288 2.396-3.275 6.738-4.606 7.209-9.807-2.149 1.556-6.517 2.663-7.209-1.154 1.498.037 1.556 1.521 2.882 1.731 1.861-.256 2.532-1.699 4.326-2.02-.616-3.808-1.92-6.925-3.175-10.098-3.205.063-3.674 2.861-5.192 4.615-.118-3.58 2.445-4.481 4.617-5.769 0-2.592-.411-6.245-.289-9.809-1.615.884-1.438 3.56-3.171 4.327 2.517-5.078 4.588-10.603 9.806-12.981.965-1.149 2.242-1.989 3.46-2.886.815-.238.749.407 1.443.289 2.824-2.366 4.161-6.222 7.21-8.364-2.727 5.731-6.615 10.305-12.402 12.979 1.619 7.454.295 12.692-3.749 16.731 3.142 5.921 5.646 17.198-1.733 20.192-.076 2.698-1.729 4.538-1.439 6.635.21 1.526 1.369 1.525 2.596 2.885 2.1 2.33 2.957 4.726 5.768 5.769-2.642.358-4.565-3.197-6.343-5.191-1.993-2.234-4.084-3.593-2.021-8.078-.979.285-2.099 2.272-3.753 2.308-5.016.109-5.342-12.02-5.768-17.596-2.527 1.124-5.388 1.917-7.787 3.173-.818-.238-1.465-.652-1.729-1.442 1.054-.188 1.106.623 2.02.576 2.425-1.321 5.788-1.709 7.496-3.75-.142-2.355 1.078-3.344 2.02-4.615-4.542-2.666-.652-9.683 2.02-12.98 1.211-1.496 3.116-3.383 4.901-4.903 2.75-2.34 6.369-3.849 9.231-6.059.882-.684 1.442-1.909 2.306-2.596 2.571-2.046 5.531-4.027 6.347-7.785zm-16.44 22.211c.708 2.617.441 7.439.863 9.809 3.814-2.947 5.247-10.394 2.598-14.712-.863 1.925-2.155 3.419-3.461 4.903zM285.708 259.927c3.333 7.808-1.421 16.345-8.074 17.884 5.507-3.006 9.892-8.495 8.074-17.884zM114.079 262.236c.336-.048.514.063.577.288-2.117 6.774-2.497 15.312 2.597 19.038 1.892.29 5.059.666 6.058 2.307.686 1.131.447 3.786 1.154 5.771 1.13 3.175 4.999 7.342 9.229 7.498 2.628.1 6.707-1.018 6.059-4.902 1.459 7.879-9.877 5.934-12.981 2.885-1.28-1.261-2.647-3.648-3.174-5.193-.607-1.781-.09-3.903-1.153-5.481-1.183-1.752-2.524-.763-5.192-2.019-6.795-3.195-4.672-14-3.174-20.192zM273.883 263.678c-.499.365-.756.974-1.731.863.344-.554.986-1.572 1.731-.863zM218.497 265.117c.465-.078.495.274.863.289 1.297 1.396.319 5.067 2.885 5.192 1.017 2.736 1.01 4.94 1.733 7.211 2.595 8.158 10.733 9.475 17.593 13.848 1.826-1.733 1.341-5.774 1.445-9.231-1.875-2.452-4.984-3.671-8.366-4.616.544 2.261 1.269 6.719 1.441 9.52-1.057-1.058-1.227-3.003-1.441-4.903-1.142.879-1.386 2.653-2.309 3.751-.891-1.141 1.481-3.865 2.309-5.192.163-1.604-1.587-2.511-1.154-3.461-2.629-.212-5.915-.585-6.923-3.173 3.597 3.423 11.676 2.361 15.289 5.769-.292-2.838-3.095-3.211-5.771-4.326-2.913-1.217-5.868-3.522-8.366-4.326-2.633-.848-5.8-.418-5.769-4.038 1.958 3.616 8.004 3.149 11.25 5.479 2.093-.812 4.852 1.069 7.211 2.885 1.879 1.443 3.528 2.734 4.327 5.192 1.203 3.69.261 9.802-2.021 12.403-2.616-.248-4.492-1.933-6.634-3.172-4.349-2.518-9.511-3.238-11.826-7.501-.458-.843-1.45-3.703-1.733-4.613-.414-1.341-.113-2.868-.575-4.326-.805-2.561-3.411-4.7-3.458-8.661zM270.709 265.696c-.234.612-1.188 1.125-1.732.578.034-.739.967-.572 1.732-.578zM268.402 267.427h.863v1.153c-.759.088-.947-.397-.863-1.153zM268.978 269.447c.911 1.203.476 3.756.578 5.77-1.478-.595-.391-3.576-.578-5.77zM281.673 276.948c1.465 3.791-4.08 5.523-4.327 9.23-.075 1.113.762 2.136.863 3.173.428 4.308-1.736 7.786-3.75 10.096-2.389 2.739-6.236 5.663-10.384 6.348 5.415-2.47 13.948-8.21 13.558-15.577-.067-1.205-.88-2.235-.867-3.463.039-4.018 4.742-6.135 4.907-9.807z"/><path d="M123.023 278.678c.755-.081 1.241.104 1.153.864-.492.522-1.135-.089-1.153-.864zM251.671 280.696c1.341.295.834 1.133 2.597.578-.266.699-1.16.764-2.02.864-.126-.55-.622-.724-.577-1.442zM158.504 281.851h.866c-1.596 3.213-5.326 4.289-5.771 8.653 1.66 1.579 4.229 1.742 4.904 3.75 1.331 3.955-5.97 8.004-3.174 13.271-.943-.308-.866-1.635-1.731-2.021.299-4.614 4.848-7.37 4.04-11.25-1.246-1.64-3.572-2.198-4.905-3.75 1.099-3.132 2.338-6.124 5.482-7.211-.09-.671.046-1.107.289-1.442zM274.459 292.235c.052 1.013-.975.949-1.154 1.729-.617-.447.542-1.552 1.154-1.729zM254.554 295.408c-.683 1.529-5.518 2.134-6.924.576 2.475.848 4.551-.441 6.924-.576zM137.736 298.293c-1.395 10.826 8.982 15.948 16.441 10.385.482 1.083-1.768 1.606-2.595 2.308 2.511 2.101 2.297 5.554 4.326 7.789 2.744 3.021 7.364 3.113 10.674 5.771 3.444-.498 6.636-1.248 7.209-4.617 1.244 4.184-4.813 5.861-7.496 5.48-.907-.129-1.584-1.209-2.599-1.73-2.866-1.478-7.437-2.41-9.23-5.191-1.655-2.57-1.643-5.716-3.75-7.214-8.153 2.889-14.966-3.863-12.98-12.981zM168.6 300.889c.464-.081.494.271.862.286-.121.551-.619.726-.575 1.444-4.197 1.668-6.218 5.512-12.404 5.191 4.89-.878 8.013-3.525 11.826-5.479-.237-.814.409-.748.291-1.442zM203.785 318.488h.866c-.333.34-.328 1.018-.288 1.729-3.126 1.395-3.665 5.373-5.48 8.077-.338-4.093 3.617-6.381 4.902-9.806zM197.152 329.447c.36.744-2.488 2.996-3.749 3.463-7.641 2.82-15.795-2.992-21.629-3.463 6.856-.405 12.105 4.736 19.61 3.463 2.476-.42 3.85-1.957 5.768-3.463zM272.151 11.27c1.899 2.904 1.484 6.599 2.02 10.096 1.771 11.614 6.572 24.199 6.921 34.904-3.022-14.956-6.463-29.493-8.941-45zM327.249 92.906c-2.912 5.839-6.295 11.206-9.809 16.444.713-3.191 3.249-5.92 5.19-8.942 1.609-2.505 2.356-5.67 4.619-7.502zM217.919 204.254c-.854 2.616-3.448 7.179-2.885 11.25 4.506-2.576 9.662-9.833 6.059-15.289-.215.525-1.676 2.325-.286 2.596-.628.486-1.686 1.566-2.309 1.153.654-4.403 2.772-8.565.575-12.98-5.033 4.924-11.924 14.967-5.192 22.501-1.478.513-1.962-2.454-2.595-3.75.882 2.647-.168 6.261 0 9.229.197 3.433 2.017 6.537 2.306 10.963.121 1.799-.013 3.892 0 5.769.01 1.036 1.158 2.975-.575 3.463-.432-3.21-.101-5.858-.289-8.653-.301-4.507-2.85-8.071-3.171-11.826-.183-2.147.492-4.232.287-6.348-.205-2.103-1.462-4.006-.578-6.922-1.007-2.07-3.515-2.638-4.902-4.327.415-2.193.415-5.307 0-7.499 1.983 1.072.456 5.106.867 7.21.986 1.223 2.694 1.726 3.747 2.885 2.558-5.522 5.613-10.54 9.52-14.712 3.819.783 2.445 5.061 3.171 8.653.496 2.44 3.331 4.243 2.311 6.347 2.801-1.43 3.116-5.344 5.191-7.5 2.952-.606 4.818-2.297 8.366-2.308 1.545 1.725 1.634 4.902 2.021 7.788-1.51-1.665-.726-5.62-2.308-7.211-6.08.556-9.684 3.587-10.962 8.941-3.146 2.533-4.497 7.268-3.46 11.827.505 2.231 2.366 3.642 2.882 5.479.882 3.139.027 5.559.578 7.789 1.024-1.643.17-3.766.577-5.77.274-1.352 1.299-2.219 1.439-3.174.252-1.669-.798-3.338-.575-5.193.853-7.114 9.647-10.244 14.711-14.135 2.189-1.68 5.37-5.551 6.636-.865 1.114 4.122-1.851 13.055-3.75 15.29-3.528 4.155-7.851 5.745-12.981 8.077-3.043 4.382-2.317 10.41-4.326 15-.914 2.088-2.725 4.519-4.036 6.345-1.349 1.874-3.158 4.256-5.482 4.904 3.051-4.265 7.144-7.31 8.942-12.98 1.649-5.209.606-11.724 3.174-16.155 1.679-.916 2.284-2.905 4.325-3.461.784-3.354.388-7.884 2.31-10.097-2.771.597-3.812 2.922-6.059 4.039-2.261 2.933-.961 9.426-3.174 12.405-.172 4.624-1.028 9.135-2.308 12.98-1.039 3.134-2.283 6.89-4.901 8.367 2.235-4.105 3.684-8.034 5.19-13.271-1.266-3.471-.34-6.458-1.153-9.518-.83-3.123-4.119-5.778-2.884-10.387-2.136 2.577-4.373 5.052-6.634 7.502.318 3.559 1.441 7.577 0 11.539.064.414.86.1.865.577.03 4.613-.523 10.431-2.6 14.423-.222-3.975 2.095-7.906 1.734-12.98-.08-.606-.77.418-1.153-.289.788-4.465-.769-8.722-.581-12.692.042-.871.706-1.475.867-2.307.303-1.577-.238-3.646 0-5.48.213-1.646 1.044-3.254 1.153-4.616.254-3.202-1.438-6.487.866-9.23-.312 2.454-.539 5.955 0 8.365.442-.614 1.037-1.076 1.439-1.731zm18.174 11.826c3.327-.905 3.458-5.006 4.904-7.788.78 1.175-.334 3.61-.864 4.903-1.724 4.19-7.814 4.346-8.366 8.366 5.474-2.89 11.68-5.053 13.847-11.251-.648-.531-1.92 2.296-2.886 1.442 3.28-2.517 5.362-7.157 4.039-12.691-5.45 3.779-11.512 6.949-10.674 17.019zM138.023 195.599c-.855.686-1.429 1.647-2.596 2.021.625-.915 1.403-1.675 2.596-2.021zM107.159 237.427c-6.581-3.137-5.53-16.114-2.31-22.213-1.984 6.013-3.854 18.255 2.597 21.635 2.916-.431 1.552.214-.287.578zM135.427 217.811c-4.979.503-5.703 5.259-6.058 10.387-.879-5.027 1.202-11.093 6.058-10.387zM269.556 243.196c-.015-1.271.21-2.48.287-2.884 1.577 2.009-.889 4.844-2.595 5.48.649-.985.896-2.368 2.308-2.596zM254.844 265.117c-1.316-2.763-3.224-3.13-6.636-4.324-4.066-1.426-10.096 2.042-13.557-.577 3.866 1.401 7.213-.609 10.387-1.154 8.626-1.482 12.147 6.22 15.576 12.115-.713 1.075-.276 1.502-.29 3.174-3.798 1.614-7.818-.582-10.96-1.444-6.659-7.121-17.04-12.235-29.135-9.229 1.718-1.42 4.99-1.797 7.499-2.021 8.574-.763 14.348 4.844 21.634 5.479 2.029-.469 3.084-1.914 5.482-2.019zm.864 6.06c-4.29-.611-5.988-3.819-10.384-4.325 2.994 3.257 7.396 7.521 13.27 6.057.268-2.918-2.012-5.382-3.752-7.211-2.353-.236-2.691 1.539-4.902 1.442.608 2.661 4.655 1.883 5.768 4.037zM267.824 277.811c.592 1.421-.84 1.491-2.307 1.731.459-.887 2.148-.544 2.307-1.731zM271.285 295.12c-2.181 1.173-3.814 3.479-6.923 2.885-3.702 6.298-8.395 11.605-16.731 13.269.581 8.114-6.033 13.448-12.979 14.135-1.568.155-3.434-.406-5.19 0-2.171.5-3.188 2.815-5.194 4.327-2.381 1.793-6.458 3.944-9.808 3.75-4.082-.237-7.967-3.921-12.689-2.886 3.637-2.484 8.572 1.995 12.689 2.31 6.901.524 10.809-7.574 15.289-8.367 2.374-.42 4.73.54 6.922 0 4.012-.988 9.424-5.42 10.096-9.519.229-1.39-.183-3.032 0-4.039 5.339-2.277 10.62-3.532 13.557-8.076 1.32-2.041 1.574-4.354 3.753-5.771 3.633.56 4.581-1.567 7.208-2.018z"/><path d="M218.497 315.312c-2.333.359-3.028 2.358-4.905 3.176-2.068-.433-4.165-.834-4.325-3.176-1.205.347-2.236.301-3.173-.287.975-.51 2.374.259 3.752-.288 3.148 7.86 6.677-3.308 10.961 1.441 1.743 1.936 6.854 3.988 10.384 5.193 4.042-2.698 4.063-10.539 2.595-15.866 1.924-1.538 6.021-.904 8.366-2.02-.007-2.693.048-4.523-.287-6.348 1.086-.739 2.642-1.009 4.614-.863-.367 1.267-3.315-.047-3.751 1.154-.071 2.378.509 4.105.29 6.634-2.493.68-5.497.85-8.079 1.442.669 5.439.849 13.592-2.597 16.442-2.01 1.671-9.997-4.282-11.535-5.193-.719-.42-1.795-.426-2.31-1.441zM360.71 21.655c.648 2.487-.374 5.099-1.153 7.211-2.237 6.044-5.605 12.065-8.654 17.884-2.898 5.531-6.461 11.332-8.941 17.308-.772 1.861-.621 4.067-1.154 6.058-.213.798-.896 1.196-1.153 2.021-2.669 8.438-3.501 18.309-5.482 27.693 1.442 3.211 5.074 3.157 8.077 4.039 5.898 1.731 12.434 4.851 18.175 7.5 1.786.824 4.462 1.122 5.19 3.174-10.737-2.821-18.865-8.253-30-10.673-.594-1.135-1.867-1.593-2.596-2.596-.576-9.523 3.484-18.613 4.901-27.981-2.976 2.983-4.412 10.01-7.788 13.556-.721 1.49-.491 3.934-2.883 3.752 10.937-23.101 23.488-44.588 33.175-68.943.095-.003.191-.003.286-.003zM203.21 249.542c-3.9-.14-6.006-4.567-10.96-4.615-1.194-.055-.976-1.523-2.02-1.731-6.136 2.041-14.724-2.007-17.016-7.501-7.283-1.908-11.058 2.664-15.575 4.04 2.213-1.537 4.479-3.021 6.922-4.326-1.054-.679-3.127-.337-3.461-1.731 1.98.698 4.876 1.41 7.209.864-1.061-1.054-2.098-2.132-3.171-3.172-4.25 1.171-8.492-1.382-12.118 0 .379 4.334 1.711 7.713 3.461 10.673 6.261 2.102 9.497-2.972 14.134-4.327 1.012 1.223-.879 1.471-.863 2.597 1.893 2.659 9.696 4.634 14.421 5.192 2.002.236 4.337-.518 6.344 0 .913.234 1.465 1.147 2.307 1.443.856.298 1.703.064 2.599.287 3.624.906 6.037 3.506 8.939 4.903-2.585.639-5.762-3.066-8.652-4.038-2.85.35-4.098-.9-5.769-1.731-6.937 2.29-13.856-1.542-20.188-2.596-.77-.77-1.293-1.784-1.731-2.884-2.626 2.514-7.596 3.938-12.116 2.884-2.787-3.078-3.787-7.942-4.326-13.269 1.281-.074 2.959-1.261 3.462-1.153 6.73 2.281 18.222-1.776 23.074 2.596 2.531 2.279 2.756 6.243 6.347 8.942 2.278.315 3.862 1.328 6.345 1.442 1.103-.046.938 1.178 1.441 1.73 5.314.167 7.444 3.519 10.961 5.481zm-29.128-14.425c1.968 3.321 4.568 7.547 9.515 6.925-3.74-1.933-4.601-6.745-7.497-9.519-2.582-.447-6.064-1.75-9.517-.867 1.932 2.183 3.818 3.604 7.499 3.461zM204.94 285.024c-.813-.53.512-1.761.865-2.886.609-1.937.513-4.624 1.73-5.769-1.652 2.13-5.423 4.721-6.056 8.076-.621 3.295 2.741 12.607 4.325 15.866.959 1.973 2.338 3.556 3.172 4.903 2.525-4.153 5.9-12.48 3.175-18.173-1.406.194-1.914-.509-2.886 0-.591 2.002.025 5.216-1.153 6.635.169-1.846-.479-3.573 0-5.771.203-.928 1.069-.98 1.443-1.731.424-.856.811-3.2.863-4.038.062-.998-.479-1.881-.576-2.885-.564-5.83 3.748-11.171 4.036-17.596.691 3.402-.077 7.57-1.441 10.96-1.064 2.644-2.131 4.437 0 7.211 1.34 1.744 3.619 3.833 5.769 5.771 5.15 4.631 10.317 11 5.773 19.327-1.418.47-2.114-1.197-2.887-2.02-2.403-2.557-4.593-6.072-6.345-9.81-1.404 4.251-1.682 11.397-5.19 14.425-2.269-.04-1.955-2.663-3.752-3.173-.81-3.757-3.136-6.701-4.325-10.963-1.059-3.794-2.474-7.756-.863-11.249 1.211-2.635 4.729-4.934 6.921-8.077 2.541-3.641 3.276-7.894 4.614-13.27 1.511 1.032.198 4.037 0 5.191-.877 5.044-4.747 9.551-5.193 15.577-.983.85-.996 2.666-2.019 3.469zm6.058.865c5.305 1.041 4.209 8.484 8.074 10.962.395-1.326-.121-4.045.867-5.481-.138 5.244-.803 9.395 3.173 10.673 3.081-10.928-7.131-15.116-11.827-21.634.982 1.989-.629 3.238-.287 5.48z"/></svg>