<svg version="1.1" xmlns="http://www.w3.org/2000/svg" x="0" y="0" width="411.023" height="281.183" viewBox="-42.52 0 411.023 281.183" xml:space="preserve"><path fill="#D1D3D4" d="M16.793 223.633h15.862v2.44H16.793zM50.958 223.633H66.82v2.44H50.958zM86.343 219.973h15.862v6.101H86.343zM121.728 196.789h15.862v29.284h-15.862zM180.294 266.339h15.859v9.762h-15.859zM157.114 110.155h15.861v115.918h-15.861zM192.493 63.789h15.86v162.285h-15.86zM226.654 29.624h15.863v196.45h-15.863zM260.819 97.953h17.083v128.12h-17.083zM296.205 107.715h17.082v118.358h-17.082z"/><path fill="none" stroke="#000" stroke-miterlimit="10" d="M6.422 11.321v214.752M5.811 226.684h316.017M321.219 226.073V11.321"/><path fill="none" stroke="#000" stroke-linecap="round" stroke-miterlimit="10" d="M3.371 11.931h2.44M3.371 42.435h2.44M3.371 72.939h2.44M3.371 103.444h2.44M3.371 133.948h2.44M3.371 165.675h2.44M3.371 196.179h2.44M3.371 226.684h2.44M321.828 226.684h2.44M321.828 202.279h2.44M321.828 179.097h2.44M321.828 154.692h2.44M321.828 131.508h2.44M321.828 107.104h2.44M321.828 83.921h2.44M321.828 59.518h2.44M321.828 35.114h2.44M321.828 11.931h2.44M321.219 227.293v2.44M285.833 227.293v2.44M252.888 227.293v2.44M217.504 227.293v2.44M182.124 227.293v2.44M147.962 227.293v2.44M112.577 227.293v2.44M77.192 227.293v2.44M41.806 227.293v2.44M6.422 227.293v2.44"/><path fill="#939598" d="M22.894 223.633h4.881v4.881h-4.881zM57.059 223.633h4.881v4.881h-4.881zM92.444 221.192h4.88v4.881h-4.88zM127.829 202.89h4.881v4.881h-4.881zM161.994 146.762h4.88v3.66h-4.88zM197.373 91.853h4.88v4.881h-4.88zM232.756 43.045h3.66v4.881h-3.66zM266.921 56.467h3.66v4.881h-3.66zM302.305 21.082h3.661v4.881h-3.661z"/><path fill="none" stroke="#939598" stroke-width="2" stroke-linecap="round" stroke-miterlimit="10" d="M304.068 24.18l-35.269 34.971-34.133-13.802-35.268 48.848-35.264 54.574-34.131 56.869-35.27 18.79-35.268 2.863H25.334"/><path d="M-14.722 8.548v.594l-2.898 6.063h-.932l2.888-5.889v-.02h-3.256v-.748h4.198zM-9.356 11.805c0 2.263-.851 3.513-2.315 3.513-1.299 0-2.191-1.219-2.211-3.421 0-2.243.972-3.462 2.326-3.462 1.391 0 2.2 1.249 2.2 3.37zm-3.615.103c0 1.73.531 2.714 1.35 2.714.912 0 1.353-1.075 1.353-2.776 0-1.638-.409-2.713-1.353-2.713-.777-.002-1.35.961-1.35 2.775zM-4.104 11.805c0 2.263-.851 3.513-2.314 3.513-1.301 0-2.191-1.219-2.213-3.421 0-2.243.972-3.462 2.325-3.462 1.393 0 2.202 1.249 2.202 3.37zm-3.615.103c0 1.73.533 2.714 1.351 2.714.912 0 1.352-1.075 1.352-2.776 0-1.638-.409-2.713-1.352-2.713-.778-.002-1.351.961-1.351 2.775zM1.149 11.805c0 2.263-.848 3.513-2.314 3.513-1.301 0-2.191-1.219-2.213-3.421 0-2.243.974-3.462 2.325-3.462 1.394 0 2.202 1.249 2.202 3.37zm-3.616.103c0 1.73.533 2.714 1.351 2.714.913 0 1.353-1.075 1.353-2.776 0-1.638-.409-2.713-1.353-2.713-.776-.002-1.351.961-1.351 2.775zM-15.093 39.761a3.285 3.285 0 0 0-.676.051c-1.424.226-2.161 1.25-2.315 2.356h.021c.317-.431.88-.779 1.617-.779 1.18 0 2.009.86 2.009 2.151 0 1.23-.83 2.356-2.224 2.356-1.413 0-2.345-1.107-2.345-2.837 0-1.312.461-2.346 1.126-3.002.554-.542 1.292-.881 2.13-.983.266-.04.492-.051.656-.051l.001.738zm-.256 3.842c0-.953-.543-1.525-1.373-1.525a1.48 1.48 0 0 0-1.301.819.832.832 0 0 0-.092.389c.01 1.096.522 1.916 1.475 1.916.77-.001 1.291-.646 1.291-1.599zM-9.205 42.384c0 2.263-.851 3.513-2.315 3.513-1.3 0-2.191-1.219-2.211-3.422 0-2.243.972-3.461 2.325-3.461 1.392.001 2.201 1.249 2.201 3.37zm-3.615.102c0 1.73.533 2.715 1.351 2.715.912 0 1.353-1.076 1.353-2.776 0-1.639-.409-2.715-1.353-2.715-.778 0-1.351.963-1.351 2.776zM-3.952 42.384c0 2.263-.851 3.513-2.314 3.513-1.301 0-2.191-1.219-2.213-3.422 0-2.243.972-3.461 2.326-3.461 1.392.001 2.201 1.249 2.201 3.37zm-3.617.102c0 1.73.534 2.715 1.353 2.715.912 0 1.352-1.076 1.352-2.776 0-1.639-.41-2.715-1.352-2.715-.78 0-1.353.963-1.353 2.776zM1.299 42.384c0 2.263-.85 3.513-2.314 3.513-1.3 0-2.191-1.219-2.212-3.422 0-2.243.973-3.461 2.326-3.461 1.392.001 2.2 1.249 2.2 3.37zm-3.615.102c0 1.73.532 2.715 1.351 2.715.912 0 1.353-1.076 1.353-2.776 0-1.639-.411-2.715-1.353-2.715-.777 0-1.351.963-1.351 2.776zM-15.071 70.464h-2.539l-.258 1.71c.154-.021.298-.031.543-.031.522 0 1.024.102 1.434.357.523.288.953.87.953 1.701 0 1.301-1.034 2.275-2.479 2.275-.727 0-1.331-.205-1.659-.411l.225-.685c.278.163.819.368 1.434.368.84 0 1.578-.554 1.568-1.445 0-.861-.583-1.465-1.905-1.465-.39 0-.686.03-.933.061l.43-3.196h3.186v.761zM-9.356 72.963c0 2.264-.851 3.514-2.315 3.514-1.299 0-2.191-1.219-2.21-3.422 0-2.243.973-3.461 2.325-3.461 1.391 0 2.2 1.249 2.2 3.369zm-3.615.102c0 1.732.531 2.715 1.35 2.715.912 0 1.353-1.075 1.353-2.774 0-1.639-.409-2.715-1.353-2.715-.777-.001-1.35.962-1.35 2.774zM-4.104 72.963c0 2.264-.851 3.514-2.314 3.514-1.301 0-2.191-1.219-2.213-3.422 0-2.243.972-3.461 2.325-3.461 1.392 0 2.202 1.249 2.202 3.369zm-3.615.102c0 1.732.533 2.715 1.351 2.715.913 0 1.352-1.075 1.352-2.774 0-1.639-.409-2.715-1.352-2.715-.779-.001-1.351.962-1.351 2.774zM1.148 72.963c0 2.264-.849 3.514-2.314 3.514-1.301 0-2.191-1.219-2.212-3.422 0-2.243.974-3.461 2.325-3.461 1.394 0 2.201 1.249 2.201 3.369zm-3.616.102c0 1.732.532 2.715 1.352 2.715.912 0 1.353-1.075 1.353-2.774 0-1.639-.409-2.715-1.353-2.715-.777-.001-1.352.962-1.352 2.774zM-16.24 107.138v-1.823h-3.092v-.584l2.97-4.25h.973v4.138h.933v.697h-.933v1.823h-.851zm0-2.52v-2.223c0-.348.011-.695.031-1.044h-.031a18.57 18.57 0 0 1-.553.983l-1.629 2.262v.021l2.182.001zM-9.337 103.737c0 2.263-.85 3.513-2.314 3.513-1.301 0-2.191-1.219-2.213-3.421 0-2.243.972-3.462 2.325-3.462 1.392-.001 2.202 1.249 2.202 3.37zm-3.617.102c0 1.73.534 2.713 1.353 2.713.912 0 1.352-1.075 1.352-2.774 0-1.639-.409-2.715-1.352-2.715-.78 0-1.353.963-1.353 2.776zM-4.085 103.737c0 2.263-.851 3.513-2.315 3.513-1.301 0-2.191-1.219-2.211-3.421 0-2.243.972-3.462 2.325-3.462 1.392-.001 2.201 1.249 2.201 3.37zm-3.616.102c0 1.73.534 2.713 1.352 2.713.912 0 1.353-1.075 1.353-2.774 0-1.639-.41-2.715-1.353-2.715-.778 0-1.352.963-1.352 2.776zM1.168 103.737c0 2.263-.851 3.513-2.315 3.513-1.299 0-2.191-1.219-2.21-3.421 0-2.243.972-3.462 2.325-3.462 1.391-.001 2.2 1.249 2.2 3.37zm-3.616.102c0 1.73.531 2.713 1.35 2.713.912 0 1.353-1.075 1.353-2.774 0-1.639-.409-2.715-1.353-2.715-.776 0-1.35.963-1.35 2.776zM-18.81 136.993c.256.153.839.41 1.474.41 1.146 0 1.517-.728 1.506-1.291-.01-.933-.849-1.332-1.72-1.332h-.502v-.676h.502c.656 0 1.484-.338 1.484-1.127 0-.533-.338-1.002-1.167-1.002-.534 0-1.045.235-1.331.44l-.246-.655c.357-.257 1.034-.513 1.751-.513 1.311 0 1.906.778 1.906 1.588 0 .695-.419 1.279-1.229 1.576v.021c.82.153 1.475.768 1.484 1.7 0 1.065-.84 1.997-2.428 1.997-.749 0-1.402-.234-1.73-.45l.246-.686zM-9.337 134.617c0 2.264-.85 3.513-2.314 3.513-1.301 0-2.191-1.219-2.213-3.422 0-2.242.972-3.461 2.325-3.461 1.392 0 2.202 1.249 2.202 3.37zm-3.617.103c0 1.73.534 2.716 1.353 2.716.912 0 1.352-1.077 1.352-2.776 0-1.64-.409-2.716-1.352-2.716-.78-.001-1.353.962-1.353 2.776zM-4.085 134.617c0 2.264-.851 3.513-2.315 3.513-1.301 0-2.191-1.219-2.211-3.422 0-2.242.972-3.461 2.325-3.461 1.392 0 2.201 1.249 2.201 3.37zm-3.616.103c0 1.73.534 2.716 1.352 2.716.912 0 1.353-1.077 1.353-2.776 0-1.64-.41-2.716-1.353-2.716-.778-.001-1.352.962-1.352 2.776zM1.168 134.617c0 2.264-.851 3.513-2.315 3.513-1.299 0-2.191-1.219-2.21-3.422 0-2.242.972-3.461 2.325-3.461 1.391 0 2.2 1.249 2.2 3.37zm-3.616.103c0 1.73.531 2.716 1.35 2.716.912 0 1.353-1.077 1.353-2.776 0-1.64-.409-2.716-1.353-2.716-.776-.001-1.35.962-1.35 2.776zM-19.025 168.749v-.555l.707-.685c1.7-1.618 2.478-2.48 2.478-3.483 0-.676-.317-1.3-1.31-1.3-.605 0-1.107.308-1.415.563l-.287-.637a2.946 2.946 0 0 1 1.874-.675c1.434 0 2.038.982 2.038 1.935 0 1.229-.89 2.224-2.293 3.576l-.522.491V168h2.98v.747h-4.25zM-9.337 165.349c0 2.262-.85 3.514-2.314 3.514-1.301 0-2.191-1.221-2.213-3.423 0-2.242.972-3.461 2.325-3.461 1.392 0 2.202 1.25 2.202 3.37zm-3.617.102c0 1.73.534 2.715 1.353 2.715.912 0 1.352-1.075 1.352-2.775 0-1.639-.409-2.714-1.352-2.714-.78-.002-1.353.961-1.353 2.774zM-4.085 165.349c0 2.262-.851 3.514-2.315 3.514-1.301 0-2.191-1.221-2.211-3.423 0-2.242.972-3.461 2.325-3.461 1.392 0 2.201 1.25 2.201 3.37zm-3.616.102c0 1.73.534 2.715 1.352 2.715.912 0 1.353-1.075 1.353-2.775 0-1.639-.41-2.714-1.353-2.714-.778-.002-1.352.961-1.352 2.774zM1.168 165.349c0 2.262-.851 3.514-2.315 3.514-1.299 0-2.191-1.221-2.21-3.423 0-2.242.972-3.461 2.325-3.461 1.391 0 2.2 1.25 2.2 3.37zm-3.616.102c0 1.73.531 2.715 1.35 2.715.912 0 1.353-1.075 1.353-2.775 0-1.639-.409-2.714-1.353-2.714-.776-.002-1.35.961-1.35 2.774zM-17.069 193.51h-.021l-1.157.626-.174-.687 1.454-.778h.768v6.658h-.87v-5.819zM-9.337 195.928c0 2.264-.85 3.513-2.314 3.513-1.301 0-2.191-1.22-2.213-3.423 0-2.242.972-3.46 2.325-3.46 1.392 0 2.202 1.249 2.202 3.37zm-3.617.102c0 1.729.534 2.714 1.353 2.714.912 0 1.352-1.074 1.352-2.776 0-1.637-.409-2.714-1.352-2.714-.78 0-1.353.962-1.353 2.776zM-4.085 195.928c0 2.264-.851 3.513-2.315 3.513-1.301 0-2.191-1.22-2.211-3.423 0-2.242.972-3.46 2.325-3.46 1.392 0 2.201 1.249 2.201 3.37zm-3.616.102c0 1.729.534 2.714 1.352 2.714.912 0 1.353-1.074 1.353-2.776 0-1.637-.41-2.714-1.353-2.714-.778 0-1.352.962-1.352 2.776zM1.168 195.928c0 2.264-.851 3.513-2.315 3.513-1.299 0-2.191-1.22-2.21-3.423 0-2.242.972-3.46 2.325-3.46 1.391 0 2.2 1.249 2.2 3.37zm-3.616.102c0 1.729.531 2.714 1.35 2.714.912 0 1.353-1.074 1.353-2.776 0-1.637-.409-2.714-1.353-2.714-.776 0-1.35.962-1.35 2.776zM1.168 226.657c0 2.263-.851 3.514-2.315 3.514-1.299 0-2.191-1.22-2.212-3.421 0-2.244.973-3.462 2.326-3.462 1.392-.001 2.201 1.249 2.201 3.369zm-3.616.102c0 1.732.531 2.714 1.35 2.714.912 0 1.353-1.075 1.353-2.774 0-1.638-.409-2.714-1.353-2.714-.776-.001-1.35.962-1.35 2.774zM331.149 226.663c0 2.263-.85 3.513-2.315 3.513-1.299 0-2.191-1.22-2.211-3.422 0-2.243.974-3.462 2.324-3.462 1.393 0 2.202 1.25 2.202 3.371zm-3.615.103c0 1.73.532 2.714 1.35 2.714.913 0 1.353-1.077 1.353-2.776 0-1.638-.408-2.714-1.353-2.714-.777-.001-1.35.962-1.35 2.776zM330.689 200.061h-2.541l-.256 1.712c.153-.021.297-.031.542-.031.523 0 1.024.103 1.434.358.523.287.953.87.953 1.702 0 1.3-1.036 2.273-2.479 2.273-.729 0-1.332-.205-1.658-.41l.225-.687c.279.163.822.368 1.435.368.839 0 1.578-.554 1.567-1.445 0-.859-.584-1.463-1.905-1.463-.39 0-.687.03-.933.061l.43-3.196h3.188v.758zM336.401 202.56c0 2.263-.85 3.513-2.313 3.513-1.301 0-2.192-1.218-2.212-3.421 0-2.242.973-3.462 2.325-3.462 1.392-.001 2.2 1.248 2.2 3.37zm-3.615.102c0 1.732.533 2.715 1.352 2.715.91 0 1.353-1.075 1.353-2.774 0-1.639-.41-2.714-1.353-2.714-.779-.003-1.352.96-1.352 2.773zM297.209 235.446c-.748-.35-1.066-.921-1.066-1.496 0-1.056.892-1.771 2.07-1.771 1.29 0 1.945.8 1.945 1.639 0 .563-.285 1.177-1.105 1.556v.031c.83.329 1.343.923 1.343 1.721 0 1.168-.993 1.937-2.264 1.937-1.394 0-2.233-.818-2.233-1.792 0-.841.503-1.443 1.321-1.792l-.011-.033zm2.273 1.773c0-.799-.563-1.197-1.464-1.454-.778.226-1.199.748-1.199 1.382-.029.665.483 1.261 1.331 1.261.81-.001 1.332-.504 1.332-1.189zm-2.479-3.33c-.008.665.503 1.024 1.271 1.229.573-.195 1.013-.604 1.013-1.208 0-.534-.317-1.087-1.126-1.087-.747 0-1.158.492-1.158 1.066zM305.666 235.549c0 2.263-.849 3.513-2.314 3.513-1.3 0-2.191-1.219-2.211-3.421 0-2.243.972-3.462 2.324-3.462 1.392.001 2.201 1.25 2.201 3.37zm-3.614.102c0 1.729.534 2.715 1.352 2.715.911 0 1.353-1.077 1.353-2.776 0-1.638-.41-2.714-1.353-2.714-.78 0-1.352.963-1.352 2.775zM309.404 233.5v2.407h2.313v.615h-2.313v2.427h-.655v-2.427h-2.314v-.615h2.314V233.5h.655z"/><g><path d="M261.045 232.292v.595l-2.897 6.063h-.934l2.888-5.89v-.021h-3.257v-.748h4.2zM266.41 235.549c0 2.263-.851 3.513-2.313 3.513-1.3 0-2.19-1.219-2.212-3.421 0-2.243.973-3.462 2.325-3.462 1.391.001 2.2 1.25 2.2 3.37zm-3.615.102c0 1.729.533 2.715 1.352 2.715.912 0 1.352-1.077 1.352-2.776 0-1.638-.41-2.714-1.352-2.714-.779 0-1.352.963-1.352 2.775zM271.582 236.041v.614h-4.508v-.614h4.508zM273.578 235.446c-.75-.35-1.066-.921-1.066-1.496 0-1.056.891-1.771 2.069-1.771 1.289 0 1.945.8 1.945 1.639 0 .563-.285 1.177-1.105 1.556v.031c.831.329 1.342.923 1.342 1.721 0 1.168-.993 1.937-2.263 1.937-1.394 0-2.234-.818-2.234-1.792 0-.841.503-1.443 1.322-1.792l-.01-.033zm2.272 1.773c0-.799-.563-1.197-1.464-1.454-.779.226-1.197.748-1.197 1.382-.031.665.48 1.261 1.331 1.261.808-.001 1.33-.504 1.33-1.189zm-2.478-3.33c-.01.665.503 1.024 1.27 1.229.573-.195 1.015-.604 1.015-1.208 0-.534-.317-1.087-1.126-1.087-.75 0-1.159.492-1.159 1.066zM282.033 235.549c0 2.263-.847 3.513-2.313 3.513-1.302 0-2.192-1.219-2.212-3.421 0-2.243.974-3.462 2.324-3.462 1.394.001 2.201 1.25 2.201 3.37zm-3.615.102c0 1.729.535 2.715 1.353 2.715.913 0 1.353-1.077 1.353-2.776 0-1.638-.408-2.714-1.353-2.714-.779 0-1.353.963-1.353 2.775z"/></g><g><path d="M225.878 232.926a3.306 3.306 0 0 0-.677.053c-1.424.225-2.162 1.249-2.315 2.355h.021c.319-.43.883-.778 1.618-.778 1.179 0 2.009.86 2.009 2.151 0 1.229-.832 2.355-2.224 2.355-1.413 0-2.345-1.105-2.345-2.836 0-1.313.46-2.348 1.126-3.003.553-.542 1.29-.881 2.131-.982.266-.04.492-.052.656-.052v.737zm-.258 3.842c0-.953-.543-1.525-1.371-1.525-.543 0-1.056.329-1.302.818a.843.843 0 0 0-.093.39c.013 1.097.524 1.916 1.478 1.916.766-.001 1.288-.646 1.288-1.599zM231.764 235.549c0 2.263-.85 3.513-2.315 3.513-1.3 0-2.191-1.219-2.211-3.421 0-2.243.974-3.462 2.322-3.462 1.395.001 2.204 1.25 2.204 3.37zm-3.617.102c0 1.729.534 2.715 1.352 2.715.913 0 1.353-1.077 1.353-2.776 0-1.638-.409-2.714-1.353-2.714-.777 0-1.352.963-1.352 2.775zM236.933 236.041v.614h-4.506v-.614h4.506zM242.022 232.292v.595l-2.897 6.063h-.933l2.888-5.89v-.021h-3.257v-.748h4.199zM247.389 235.549c0 2.263-.851 3.513-2.314 3.513-1.3 0-2.192-1.219-2.211-3.421 0-2.243.972-3.462 2.324-3.462 1.392.001 2.201 1.25 2.201 3.37zm-3.615.102c0 1.729.531 2.715 1.35 2.715.912 0 1.353-1.077 1.353-2.776 0-1.638-.41-2.714-1.353-2.714-.777 0-1.35.963-1.35 2.775z"/></g><g><path d="M190.656 233.05h-2.539l-.256 1.711c.153-.021.297-.031.542-.031.521 0 1.023.102 1.434.358.522.285.953.869.953 1.701 0 1.3-1.035 2.273-2.479 2.273-.727 0-1.332-.205-1.658-.41l.227-.687c.277.165.819.37 1.433.37.839 0 1.578-.553 1.568-1.444 0-.86-.585-1.466-1.906-1.466-.389 0-.686.031-.932.063l.429-3.196h3.186v.758h-.002zM196.366 235.549c0 2.263-.847 3.513-2.312 3.513-1.302 0-2.192-1.219-2.212-3.421 0-2.243.974-3.462 2.323-3.462 1.392.001 2.201 1.25 2.201 3.37zm-3.614.102c0 1.729.535 2.715 1.353 2.715.911 0 1.351-1.077 1.351-2.776 0-1.638-.408-2.714-1.351-2.714-.779 0-1.353.963-1.353 2.775zM201.539 236.041v.614h-4.505v-.614h4.505zM206.103 232.926a3.288 3.288 0 0 0-.675.053c-1.424.225-2.162 1.249-2.315 2.355h.022c.317-.43.881-.778 1.617-.778 1.179 0 2.007.86 2.007 2.151 0 1.229-.828 2.355-2.222 2.355-1.413 0-2.345-1.105-2.345-2.836 0-1.313.461-2.348 1.126-3.003.555-.542 1.292-.881 2.131-.982.267-.04.491-.052.654-.052v.737zm-.255 3.842c0-.953-.542-1.525-1.373-1.525-.542 0-1.055.329-1.3.818a.831.831 0 0 0-.091.39c.01 1.097.521 1.916 1.474 1.916.768-.001 1.29-.646 1.29-1.599zM211.991 235.549c0 2.263-.851 3.513-2.315 3.513-1.298 0-2.189-1.219-2.21-3.421 0-2.243.972-3.462 2.323-3.462 1.392.001 2.202 1.25 2.202 3.37zm-3.614.102c0 1.729.531 2.715 1.349 2.715.911 0 1.352-1.077 1.352-2.776 0-1.638-.41-2.714-1.352-2.714-.776 0-1.349.963-1.349 2.775z"/></g><g><path d="M154.977 238.949v-1.824h-3.093v-.584l2.971-4.25h.974v4.138h.932v.696h-.932v1.824h-.852zm0-2.52v-2.222c0-.348.01-.696.031-1.045h-.031c-.205.39-.368.677-.553.984l-1.629 2.263v.02h2.182zM161.879 235.549c0 2.263-.851 3.513-2.315 3.513-1.3 0-2.191-1.219-2.211-3.421 0-2.243.972-3.462 2.325-3.462 1.392.001 2.201 1.25 2.201 3.37zm-3.616.102c0 1.729.531 2.715 1.35 2.715.913 0 1.352-1.077 1.352-2.776 0-1.638-.409-2.714-1.352-2.714-.777 0-1.35.963-1.35 2.775zM167.051 236.041v.614h-4.508v-.614h4.508zM171.788 233.05h-2.538l-.256 1.711c.153-.021.296-.031.542-.031.522 0 1.024.102 1.434.358.522.285.952.869.952 1.701 0 1.3-1.035 2.273-2.478 2.273-.729 0-1.332-.205-1.659-.41l.226-.687c.277.165.819.37 1.435.37.839 0 1.577-.553 1.567-1.444 0-.86-.584-1.466-1.906-1.466-.39 0-.685.031-.932.063l.431-3.196h3.185v.758h-.003zM177.5 235.549c0 2.263-.848 3.513-2.313 3.513-1.301 0-2.192-1.219-2.212-3.421 0-2.243.974-3.462 2.324-3.462 1.392.001 2.201 1.25 2.201 3.37zm-3.614.102c0 1.729.534 2.715 1.351 2.715.913 0 1.352-1.077 1.352-2.776 0-1.638-.409-2.714-1.352-2.714-.779 0-1.351.963-1.351 2.775z"/></g><g><path d="M117.76 237.926c.256.153.84.41 1.475.41 1.147 0 1.516-.728 1.506-1.292-.009-.932-.851-1.33-1.721-1.33h-.502v-.677h.502c.656 0 1.485-.338 1.485-1.126 0-.532-.337-1.004-1.167-1.004-.533 0-1.044.235-1.331.44l-.246-.655c.358-.256 1.036-.513 1.753-.513 1.311 0 1.904.778 1.904 1.588 0 .695-.419 1.279-1.229 1.576v.021c.819.152 1.474.767 1.485 1.7 0 1.065-.839 1.997-2.428 1.997-.747 0-1.403-.235-1.73-.449l.244-.686zM127.232 235.549c0 2.263-.85 3.513-2.314 3.513-1.301 0-2.191-1.219-2.213-3.421 0-2.243.974-3.462 2.325-3.462 1.394.001 2.202 1.25 2.202 3.37zm-3.615.102c0 1.729.533 2.715 1.351 2.715.912 0 1.353-1.077 1.353-2.776 0-1.638-.41-2.714-1.353-2.714-.777 0-1.351.963-1.351 2.775zM132.404 236.041v.614h-4.506v-.614h4.506zM135.956 238.949v-1.824h-3.093v-.584l2.97-4.25h.974v4.138h.932v.696h-.932v1.824h-.851zm0-2.52v-2.222c0-.348.009-.696.031-1.045h-.031c-.205.39-.368.677-.554.984l-1.629 2.263v.02h2.183zM142.857 235.549c0 2.263-.851 3.513-2.315 3.513-1.3 0-2.191-1.219-2.212-3.421 0-2.243.973-3.462 2.324-3.462 1.394.001 2.203 1.25 2.203 3.37zm-3.615.102c0 1.729.533 2.715 1.352 2.715.911 0 1.352-1.077 1.352-2.776 0-1.638-.409-2.714-1.352-2.714-.779 0-1.352.963-1.352 2.775z"/></g><g><path d="M82.297 238.949v-.554l.705-.687c1.702-1.617 2.48-2.478 2.48-3.481 0-.676-.317-1.302-1.312-1.302-.603 0-1.104.308-1.413.565l-.287-.637a2.946 2.946 0 0 1 1.874-.676c1.434 0 2.038.983 2.038 1.936 0 1.229-.891 2.222-2.293 3.574l-.522.492v.021h2.979v.747h-4.249v.002zM91.984 235.549c0 2.263-.85 3.513-2.314 3.513-1.301 0-2.191-1.219-2.213-3.421 0-2.243.972-3.462 2.325-3.462 1.393.001 2.202 1.25 2.202 3.37zm-3.615.102c0 1.729.533 2.715 1.351 2.715.913 0 1.351-1.077 1.351-2.776 0-1.638-.409-2.714-1.351-2.714-.779 0-1.351.963-1.351 2.775zM97.154 236.041v.614h-4.507v-.614h4.507zM98.136 237.926c.256.153.84.41 1.474.41 1.147 0 1.517-.728 1.506-1.292-.01-.932-.85-1.33-1.721-1.33h-.503v-.677h.503c.655 0 1.484-.338 1.484-1.126 0-.532-.338-1.004-1.167-1.004-.533 0-1.044.235-1.331.44l-.246-.655c.357-.256 1.036-.513 1.753-.513 1.31 0 1.904.778 1.904 1.588 0 .695-.419 1.279-1.229 1.576v.021c.818.152 1.474.767 1.484 1.7 0 1.065-.839 1.997-2.428 1.997-.747 0-1.402-.235-1.73-.449l.247-.686zM107.608 235.549c0 2.263-.85 3.513-2.314 3.513-1.3 0-2.191-1.219-2.213-3.421 0-2.243.974-3.462 2.326-3.462 1.393.001 2.201 1.25 2.201 3.37zm-3.615.102c0 1.729.532 2.715 1.351 2.715.912 0 1.353-1.077 1.353-2.776 0-1.638-.411-2.714-1.353-2.714-.777 0-1.351.963-1.351 2.775z"/></g><g><path d="M49.004 233.131h-.021l-1.156.626-.175-.686 1.455-.779h.768v6.658h-.87v-5.819zM56.735 235.549c0 2.263-.85 3.513-2.315 3.513-1.3 0-2.191-1.219-2.212-3.421 0-2.243.973-3.462 2.324-3.462 1.395.001 2.203 1.25 2.203 3.37zm-3.614.102c0 1.729.531 2.715 1.351 2.715.912 0 1.353-1.077 1.353-2.776 0-1.638-.409-2.714-1.353-2.714-.779 0-1.351.963-1.351 2.775zM61.906 236.041v.614H57.4v-.614h4.506zM62.674 238.949v-.554l.707-.687c1.7-1.617 2.479-2.478 2.479-3.481 0-.676-.318-1.302-1.312-1.302-.603 0-1.104.308-1.413.565l-.287-.637a2.946 2.946 0 0 1 1.874-.676c1.434 0 2.038.983 2.038 1.936 0 1.229-.891 2.222-2.293 3.574l-.522.492v.021h2.979v.747h-4.25v.002zM72.36 235.549c0 2.263-.851 3.513-2.314 3.513-1.301 0-2.191-1.219-2.212-3.421 0-2.243.972-3.462 2.325-3.462 1.392.001 2.201 1.25 2.201 3.37zm-3.615.102c0 1.729.532 2.715 1.351 2.715.912 0 1.351-1.077 1.351-2.776 0-1.638-.409-2.714-1.351-2.714-.778 0-1.351.963-1.351 2.775z"/></g><g><path d="M18.56 235.549c0 2.263-.851 3.513-2.315 3.513-1.3 0-2.191-1.219-2.211-3.421 0-2.243.972-3.462 2.325-3.462 1.392.001 2.201 1.25 2.201 3.37zm-3.616.102c0 1.729.533 2.715 1.351 2.715.912 0 1.353-1.077 1.353-2.776 0-1.638-.409-2.714-1.353-2.714-.777 0-1.351.963-1.351 2.775zM23.732 236.041v.614h-4.508v-.614h4.508zM26.453 233.131h-.02l-1.157.626-.174-.686 1.454-.779h.768v6.658h-.87v-5.819zM34.184 235.549c0 2.263-.848 3.513-2.314 3.513-1.301 0-2.191-1.219-2.212-3.421 0-2.243.972-3.462 2.325-3.462 1.392.001 2.201 1.25 2.201 3.37zm-3.615.102c0 1.729.533 2.715 1.352 2.715.913 0 1.351-1.077 1.351-2.776 0-1.638-.409-2.714-1.351-2.714-.779 0-1.352.963-1.352 2.775z"/></g><g><path d="M328.671 176.643h-.021l-1.157.626-.175-.686 1.453-.779h.768v6.657h-.869l.001-5.818zM336.401 179.061c0 2.263-.85 3.513-2.313 3.513-1.301 0-2.192-1.219-2.212-3.421 0-2.242.973-3.462 2.325-3.462 1.392.001 2.2 1.249 2.2 3.37zm-3.615.102c0 1.731.533 2.716 1.352 2.716.91 0 1.353-1.075 1.353-2.775 0-1.639-.41-2.716-1.353-2.716-.779 0-1.352.963-1.352 2.775zM341.655 179.061c0 2.263-.851 3.513-2.314 3.513-1.3 0-2.19-1.219-2.212-3.421 0-2.242.973-3.462 2.325-3.462 1.39.001 2.201 1.249 2.201 3.37zm-3.615.102c0 1.731.531 2.716 1.35 2.716.912 0 1.352-1.075 1.352-2.775 0-1.639-.41-2.716-1.352-2.716-.777 0-1.35.963-1.35 2.775z"/></g><g><path d="M328.671 152.392h-.021l-1.157.625-.175-.687 1.453-.778h.768v6.657h-.869l.001-5.817zM335.94 152.31h-2.539l-.258 1.71c.155-.021.298-.03.544-.03.521 0 1.024.103 1.435.359.521.286.952.869.952 1.701 0 1.299-1.036 2.272-2.479 2.272-.728 0-1.331-.205-1.66-.41l.228-.685a2.98 2.98 0 0 0 1.434.369c.839 0 1.577-.554 1.567-1.444 0-.86-.586-1.466-1.907-1.466-.387 0-.685.031-.932.063l.431-3.196h3.185v.757h-.001zM341.655 154.809c0 2.264-.851 3.513-2.314 3.513-1.3 0-2.19-1.219-2.212-3.421 0-2.243.973-3.462 2.325-3.462 1.39-.001 2.201 1.249 2.201 3.37zm-3.615.102c0 1.729.531 2.714 1.35 2.714.912 0 1.352-1.074 1.352-2.775 0-1.638-.41-2.713-1.352-2.713-.777 0-1.35.961-1.35 2.774z"/></g><g><path d="M326.714 134.708v-.554l.706-.686c1.701-1.618 2.479-2.479 2.479-3.482 0-.676-.318-1.301-1.313-1.301-.603 0-1.104.308-1.412.564l-.285-.636a2.936 2.936 0 0 1 1.873-.677c1.434 0 2.038.983 2.038 1.936 0 1.23-.891 2.224-2.295 3.575l-.522.491v.021h2.979v.747h-4.248zM336.401 131.31c0 2.262-.85 3.513-2.313 3.513-1.301 0-2.192-1.22-2.212-3.422 0-2.242.973-3.462 2.325-3.462 1.392-.001 2.2 1.249 2.2 3.371zm-3.615.1c0 1.731.533 2.715 1.352 2.715.91 0 1.353-1.075 1.353-2.774 0-1.639-.41-2.715-1.353-2.715-.779 0-1.352.962-1.352 2.774zM341.655 131.31c0 2.262-.851 3.513-2.314 3.513-1.3 0-2.19-1.22-2.212-3.422 0-2.242.973-3.462 2.325-3.462 1.39-.001 2.201 1.249 2.201 3.371zm-3.615.1c0 1.731.531 2.715 1.35 2.715.912 0 1.352-1.075 1.352-2.774 0-1.639-.41-2.715-1.352-2.715-.777 0-1.35.962-1.35 2.774z"/></g><g><path d="M326.714 110.909v-.555l.706-.686c1.701-1.618 2.479-2.478 2.479-3.482 0-.676-.318-1.301-1.313-1.301-.603 0-1.104.308-1.412.564l-.285-.636a2.941 2.941 0 0 1 1.873-.676c1.434 0 2.038.984 2.038 1.935 0 1.229-.891 2.222-2.295 3.575l-.522.492v.021h2.979v.748h-4.248v.001zM335.94 105.008h-2.539l-.258 1.71c.155-.021.298-.03.544-.03.521 0 1.024.102 1.435.357.521.286.952.872.952 1.701 0 1.299-1.036 2.274-2.479 2.274-.728 0-1.331-.205-1.66-.411l.228-.686a2.98 2.98 0 0 0 1.434.369c.839 0 1.577-.553 1.567-1.445 0-.86-.586-1.466-1.907-1.466-.387 0-.685.032-.932.063l.431-3.196h3.185v.76h-.001zM341.655 107.508c0 2.264-.851 3.514-2.314 3.514-1.3 0-2.19-1.219-2.212-3.422 0-2.242.973-3.461 2.325-3.461 1.39-.001 2.201 1.249 2.201 3.369zm-3.615.103c0 1.73.531 2.714 1.35 2.714.912 0 1.352-1.075 1.352-2.775 0-1.639-.41-2.715-1.352-2.715-.777 0-1.35.962-1.35 2.776z"/></g><g><path d="M326.928 85.933c.257.154.839.41 1.475.41 1.146 0 1.517-.728 1.505-1.291-.009-.933-.848-1.333-1.719-1.333h-.503v-.676h.503c.654 0 1.484-.338 1.484-1.126 0-.533-.337-1.004-1.168-1.004-.532 0-1.043.235-1.331.44l-.246-.655c.358-.256 1.035-.512 1.753-.512 1.311 0 1.906.778 1.906 1.587 0 .696-.422 1.28-1.229 1.577v.021c.819.153 1.475.768 1.484 1.7 0 1.066-.84 1.997-2.427 1.997-.749 0-1.404-.235-1.731-.45l.244-.685zM336.401 83.556c0 2.263-.85 3.513-2.313 3.513-1.301 0-2.192-1.219-2.212-3.421 0-2.243.973-3.461 2.325-3.461 1.392.001 2.2 1.25 2.2 3.369zm-3.615.103c0 1.73.533 2.715 1.352 2.715.91 0 1.353-1.075 1.353-2.776 0-1.639-.41-2.714-1.353-2.714-.779 0-1.352.963-1.352 2.775zM341.655 83.556c0 2.263-.851 3.513-2.314 3.513-1.3 0-2.19-1.219-2.212-3.421 0-2.243.973-3.461 2.325-3.461 1.39.001 2.201 1.25 2.201 3.369zm-3.615.103c0 1.73.531 2.715 1.35 2.715.912 0 1.352-1.075 1.352-2.776 0-1.639-.41-2.714-1.352-2.714-.777 0-1.35.963-1.35 2.775z"/></g><g><path d="M326.928 61.831c.257.154.839.411 1.475.411 1.146 0 1.517-.728 1.505-1.291-.009-.933-.848-1.331-1.719-1.331h-.503v-.676h.503c.654 0 1.484-.338 1.484-1.126 0-.533-.337-1.004-1.168-1.004-.532 0-1.043.235-1.331.44l-.246-.656c.358-.255 1.035-.512 1.753-.512 1.311 0 1.906.778 1.906 1.588 0 .695-.422 1.279-1.229 1.576v.021c.819.154 1.475.769 1.484 1.701 0 1.065-.84 1.997-2.427 1.997-.749 0-1.404-.235-1.731-.451l.244-.687zM335.94 56.957h-2.539l-.258 1.71c.155-.021.298-.03.544-.03.521 0 1.024.101 1.435.357.521.287.952.87.952 1.701 0 1.301-1.036 2.274-2.479 2.274-.728 0-1.331-.205-1.66-.41l.228-.686a2.98 2.98 0 0 0 1.434.369c.839 0 1.577-.554 1.567-1.445 0-.861-.586-1.465-1.907-1.465-.387 0-.685.03-.932.061l.431-3.196h3.185v.76h-.001zM341.655 59.455c0 2.264-.851 3.513-2.314 3.513-1.3 0-2.19-1.219-2.212-3.421 0-2.244.973-3.462 2.325-3.462 1.39 0 2.201 1.25 2.201 3.37zm-3.615.102c0 1.731.531 2.715 1.35 2.715.912 0 1.352-1.075 1.352-2.774 0-1.639-.41-2.715-1.352-2.715-.777-.001-1.35.962-1.35 2.774z"/></g><g><path d="M329.5 38.905v-1.823h-3.092v-.584l2.971-4.25h.973v4.138h.933v.696h-.933v1.823h-.852zm0-2.519v-2.224c0-.348.012-.695.031-1.044h-.031c-.205.389-.369.676-.553.984l-1.628 2.262v.021h2.181v.001zM336.401 35.504c0 2.264-.85 3.513-2.313 3.513-1.301 0-2.192-1.219-2.212-3.421 0-2.243.973-3.461 2.325-3.461 1.392-.001 2.2 1.249 2.2 3.369zm-3.615.103c0 1.731.533 2.715 1.352 2.715.91 0 1.353-1.075 1.353-2.775 0-1.639-.41-2.714-1.353-2.714-.779-.002-1.352.961-1.352 2.774zM341.655 35.504c0 2.264-.851 3.513-2.314 3.513-1.3 0-2.19-1.219-2.212-3.421 0-2.243.973-3.461 2.325-3.461 1.39-.001 2.201 1.249 2.201 3.369zm-3.615.103c0 1.731.531 2.715 1.35 2.715.912 0 1.352-1.075 1.352-2.775 0-1.639-.41-2.714-1.352-2.714-.777-.002-1.35.961-1.35 2.774z"/></g><g><path d="M329.5 15.255v-1.823h-3.092v-.584l2.971-4.25h.973v4.138h.933v.697h-.933v1.823h-.852zm0-2.521v-2.222c0-.348.012-.697.031-1.044h-.031a19.75 19.75 0 0 1-.553.983l-1.628 2.263v.021h2.181v-.001zM335.94 9.354h-2.539l-.258 1.711c.155-.021.298-.031.544-.031.521 0 1.024.103 1.435.357.521.287.952.872.952 1.701 0 1.299-1.036 2.273-2.479 2.273-.728 0-1.331-.205-1.66-.411l.228-.685c.275.164.818.37 1.434.37.839 0 1.577-.554 1.567-1.445 0-.86-.586-1.465-1.907-1.465a7.33 7.33 0 0 0-.932.062l.431-3.196h3.185v.759h-.001zM341.655 11.854c0 2.264-.851 3.514-2.314 3.514-1.3 0-2.19-1.219-2.212-3.422 0-2.243.973-3.461 2.325-3.461 1.39 0 2.201 1.249 2.201 3.369zm-3.615.104c0 1.73.531 2.714 1.35 2.714.912 0 1.352-1.075 1.352-2.775 0-1.639-.41-2.715-1.352-2.715-.777-.001-1.35.962-1.35 2.776z"/></g><g><path fill="none" stroke="#939598" stroke-width="2" stroke-linecap="round" stroke-miterlimit="10" d="M104.646 271.22H86.343"/><path fill="#939598" d="M93.664 268.779h4.88v4.881h-4.88z"/></g><g><path d="M113.691 268.241a10.265 10.265 0 0 1 1.711-.145c.953 0 1.578.185 1.997.564.338.308.543.778.543 1.32 0 .902-.574 1.507-1.292 1.753v.03c.523.185.84.677 1.004 1.394.226.963.39 1.629.533 1.895h-.922c-.112-.205-.266-.788-.449-1.648-.205-.954-.585-1.312-1.394-1.342h-.839v2.99h-.892v-6.811zm.891 3.145h.912c.952 0 1.556-.522 1.556-1.313 0-.89-.646-1.279-1.587-1.279-.429 0-.727.029-.88.072v2.52zM122.775 273.864c0 .43.02.851.071 1.188h-.809l-.071-.624h-.031c-.276.39-.809.737-1.516.737-1.003 0-1.516-.708-1.516-1.425 0-1.198 1.066-1.854 2.98-1.844v-.102c0-.4-.113-1.146-1.127-1.137-.471 0-.954.134-1.3.368l-.206-.604c.411-.257 1.014-.432 1.64-.432 1.517 0 1.885 1.035 1.885 2.019v1.856zm-.87-1.342c-.984-.021-2.101.154-2.101 1.117 0 .594.39.859.84.859.657 0 1.076-.409 1.219-.829.03-.103.042-.205.042-.287v-.86zM125.272 268.905v1.188h1.29v.687h-1.29v2.674c0 .613.174.963.675.963.247 0 .39-.021.523-.063l.041.687a2.46 2.46 0 0 1-.798.124c-.42 0-.758-.146-.973-.38-.246-.278-.347-.718-.347-1.3v-2.705h-.77v-.687h.77v-.92l.879-.268zM128.016 272.736c.02 1.221.788 1.724 1.7 1.724.646 0 1.045-.113 1.373-.258l.165.646c-.318.144-.872.317-1.66.317-1.526 0-2.438-1.016-2.438-2.51 0-1.496.88-2.664 2.326-2.664 1.628 0 2.047 1.413 2.047 2.326 0 .184-.01.316-.031.419h-3.482zm2.642-.643c.011-.563-.236-1.453-1.25-1.453-.922 0-1.311.829-1.382 1.453h2.632zM132.52 274.141c.278.164.749.349 1.199.349.646 0 .953-.316.953-.737 0-.431-.256-.655-.911-.901-.902-.328-1.322-.809-1.322-1.403 0-.798.655-1.454 1.711-1.454.501 0 .941.133 1.208.308l-.214.655a1.915 1.915 0 0 0-1.015-.298c-.532 0-.819.308-.819.676 0 .41.287.595.932.85.851.318 1.301.748 1.301 1.486 0 .88-.686 1.495-1.843 1.495-.542 0-1.045-.143-1.394-.348l.214-.678z"/></g><g><path d="M210.334 274.63c-.318.163-.983.328-1.822.328-1.945 0-3.4-1.229-3.4-3.504 0-2.171 1.463-3.626 3.605-3.626.849 0 1.401.185 1.639.308l-.227.729c-.329-.166-.81-.287-1.383-.287-1.618 0-2.693 1.034-2.693 2.848 0 1.7.973 2.775 2.643 2.775.552 0 1.104-.113 1.463-.289l.175.718zM214.838 273.656c0 .431.021.851.072 1.188h-.81l-.071-.625h-.031c-.275.39-.81.738-1.516.738-1.004 0-1.515-.708-1.515-1.426 0-1.198 1.065-1.853 2.979-1.843v-.103c0-.399-.111-1.147-1.126-1.138-.472 0-.953.133-1.299.369l-.207-.604c.411-.256 1.014-.43 1.64-.43 1.516 0 1.885 1.034 1.885 2.017l-.001 1.857zm-.871-1.342c-.983-.02-2.101.155-2.101 1.117 0 .595.39.86.84.86.656 0 1.076-.409 1.219-.83.03-.103.041-.205.041-.287l.001-.86zM216.169 273.933c.275.165.747.349 1.197.349.644 0 .952-.317.952-.736 0-.432-.256-.656-.911-.901-.901-.329-1.321-.811-1.321-1.403 0-.799.655-1.454 1.709-1.454.502 0 .944.133 1.209.308l-.215.655a1.913 1.913 0 0 0-1.016-.298c-.531 0-.819.308-.819.676 0 .41.288.595.933.85.853.318 1.301.748 1.301 1.485 0 .881-.686 1.496-1.844 1.496-.543 0-1.044-.144-1.393-.349l.218-.678zM220.846 272.529c.021 1.218.788 1.721 1.702 1.721.645 0 1.044-.112 1.372-.255l.165.645c-.319.143-.871.316-1.66.316-1.525 0-2.437-1.014-2.437-2.509 0-1.496.881-2.663 2.324-2.663 1.629 0 2.049 1.413 2.049 2.323 0 .185-.011.319-.028.42h-3.487v.002zm2.645-.644c.01-.563-.236-1.455-1.25-1.455-.921 0-1.311.829-1.384 1.455h2.634zM225.352 273.933c.276.165.747.349 1.197.349.645 0 .953-.317.953-.736 0-.432-.256-.656-.911-.901-.902-.329-1.323-.811-1.323-1.403 0-.799.657-1.454 1.712-1.454.501 0 .941.133 1.208.308l-.216.655a1.91 1.91 0 0 0-1.014-.298c-.533 0-.82.308-.82.676 0 .41.287.595.932.85.852.318 1.303.748 1.303 1.485 0 .881-.688 1.496-1.845 1.496-.542 0-1.045-.144-1.394-.349l.218-.678z"/></g><g><path d="M130.169 253.571l-.717 2.174h-.921l2.355-6.904h1.065l2.357 6.904h-.953l-.738-2.174h-2.448zm2.274-.694l-.687-1.988c-.154-.451-.256-.86-.359-1.259h-.019c-.103.398-.205.829-.349 1.248l-.675 1.999h2.089zM139.406 255.017c0 1.147-.236 1.833-.707 2.274-.492.441-1.188.594-1.813.594-.593 0-1.249-.143-1.649-.41l.225-.695c.329.214.84.4 1.455.4.921 0 1.598-.483 1.598-1.742v-.544h-.02c-.266.46-.809.831-1.577.831-1.229 0-2.11-1.045-2.11-2.418 0-1.678 1.095-2.621 2.244-2.621.859 0 1.322.44 1.547.851h.02l.032-.748h.798c-.031.348-.042.759-.042 1.351l-.001 2.877zm-.901-2.273c0-.154-.011-.288-.051-.4-.164-.532-.595-.963-1.26-.963-.86 0-1.474.729-1.474 1.876 0 .972.501 1.78 1.464 1.78.563 0 1.065-.349 1.25-.923.051-.152.071-.327.071-.479v-.891zM141.39 253.43c.021 1.219.788 1.722 1.701 1.722.646 0 1.045-.112 1.373-.258l.165.646c-.318.143-.873.316-1.66.316-1.525 0-2.438-1.013-2.438-2.509s.879-2.664 2.325-2.664c1.628 0 2.048 1.412 2.048 2.325 0 .185-.009.318-.031.421h-3.483v.001zm2.643-.647c.009-.563-.236-1.454-1.25-1.454-.921 0-1.31.83-1.382 1.454h2.632zM151.672 254.556c0 .432.021.851.072 1.189h-.81l-.073-.626h-.03c-.278.39-.81.737-1.517.737-1.005 0-1.517-.708-1.517-1.425 0-1.197 1.066-1.853 2.981-1.842v-.103c0-.4-.113-1.149-1.128-1.139-.471 0-.951.133-1.3.37l-.205-.605c.41-.257 1.015-.431 1.638-.431 1.516 0 1.884 1.034 1.884 2.019v1.854h.005zm-.87-1.342c-.983-.021-2.1.152-2.1 1.117 0 .594.387.86.839.86.655 0 1.075-.409 1.219-.83a1.01 1.01 0 0 0 .042-.287v-.86zM154.169 249.599v1.189h1.292v.686h-1.292v2.673c0 .615.175.963.677.963.245 0 .388-.021.522-.061l.04.686c-.175.061-.45.122-.799.122-.419 0-.758-.142-.972-.379-.247-.276-.348-.716-.348-1.301v-2.703h-.769v-.686h.769v-.922l.88-.267zM162.914 248.472v5.992c0 .44.021.942.042 1.281h-.8l-.041-.86h-.031c-.266.553-.86.972-1.669.972-1.198 0-2.13-1.015-2.13-2.52-.011-1.65 1.023-2.653 2.223-2.653.768 0 1.271.359 1.494.747h.021v-2.959h.891zm-.891 4.332c0-.112-.01-.265-.041-.379a1.327 1.327 0 0 0-1.301-1.034c-.932 0-1.485.819-1.485 1.905 0 1.005.502 1.834 1.465 1.834.605 0 1.158-.41 1.321-1.075a1.55 1.55 0 0 0 .041-.388v-.863zM165.423 249.394c0 .308-.216.553-.576.553-.327 0-.541-.245-.541-.553a.55.55 0 0 1 .563-.563.54.54 0 0 1 .554.563zm-1.004 6.351v-4.959h.9v4.959h-.9zM170.296 254.556c0 .432.021.851.073 1.189h-.811l-.071-.626h-.031c-.275.39-.81.737-1.516.737-1.004 0-1.514-.708-1.514-1.425 0-1.197 1.063-1.853 2.978-1.842v-.103c0-.4-.111-1.149-1.126-1.139-.472 0-.951.133-1.299.37l-.206-.605c.409-.257 1.015-.431 1.639-.431 1.516 0 1.885 1.034 1.885 2.019l-.001 1.856zm-.872-1.342c-.981-.021-2.098.152-2.098 1.117 0 .594.388.86.839.86.654 0 1.075-.409 1.22-.83a1.07 1.07 0 0 0 .038-.287l.001-.86zM175.987 255.017c0 1.147-.235 1.833-.706 2.274-.49.441-1.188.594-1.813.594-.594 0-1.249-.143-1.65-.41l.229-.695c.327.214.839.4 1.453.4.922 0 1.597-.483 1.597-1.742v-.544h-.021c-.267.46-.808.831-1.576.831-1.23 0-2.11-1.045-2.11-2.418 0-1.678 1.096-2.621 2.242-2.621.859 0 1.322.44 1.547.851h.021l.031-.748h.798c-.029.348-.041.759-.041 1.351v2.877zm-.898-2.273c0-.154-.013-.288-.053-.4-.163-.532-.594-.963-1.259-.963-.86 0-1.476.729-1.476 1.876 0 .972.503 1.78 1.465 1.78.563 0 1.064-.349 1.247-.923.053-.152.075-.327.075-.479v-.891zM177.408 252.128c0-.522-.008-.932-.038-1.342h.796l.051.819h.022c.246-.46.819-.922 1.639-.922.688 0 1.752.41 1.752 2.11v2.948h-.898v-2.857c0-.798-.298-1.466-1.148-1.466-.583 0-1.044.42-1.209.923-.04.111-.061.267-.061.419v2.981h-.901v-3.614h-.005zM187.579 253.225c0 1.834-1.282 2.632-2.469 2.632-1.332 0-2.375-.982-2.375-2.55 0-1.649 1.095-2.621 2.458-2.621 1.422-.002 2.386 1.033 2.386 2.539zm-3.924.05c0 1.086.614 1.904 1.495 1.904.86 0 1.506-.808 1.506-1.926 0-.839-.421-1.895-1.486-1.895-1.054.001-1.515.986-1.515 1.917zM188.588 254.832c.279.164.75.348 1.199.348.646 0 .953-.316.953-.736 0-.432-.257-.655-.912-.9-.901-.329-1.322-.811-1.322-1.404 0-.797.656-1.453 1.71-1.453.503 0 .942.133 1.209.307l-.216.656a1.904 1.904 0 0 0-1.013-.298c-.535 0-.82.307-.82.675 0 .411.285.595.933.852.85.316 1.301.747 1.301 1.484 0 .881-.688 1.495-1.844 1.495-.543 0-1.045-.142-1.396-.347l.218-.679zM193.769 249.394c0 .308-.216.553-.573.553-.329 0-.543-.245-.543-.553 0-.305.227-.563.563-.563.33 0 .553.244.553.563zm-1.003 6.351v-4.959h.9v4.959h-.9zM195.039 254.832c.277.164.748.348 1.197.348.646 0 .952-.316.952-.736 0-.432-.255-.655-.91-.9-.902-.329-1.322-.811-1.322-1.404 0-.797.655-1.453 1.71-1.453.501 0 .942.133 1.209.307l-.216.656a1.914 1.914 0 0 0-1.014-.298c-.534 0-.82.307-.82.675 0 .411.286.595.933.852.851.316 1.301.747 1.301 1.484 0 .881-.687 1.495-1.846 1.495-.541 0-1.042-.142-1.393-.347l.219-.679z"/></g><g><path d="M-31.49 172.61h-6.903v-.982l3.492-2.204c.809-.502 1.537-.912 2.244-1.229l-.011-.029c-.922.082-1.761.101-2.837.101h-2.887v-.84h6.904v.902l-3.503 2.191c-.767.482-1.557.942-2.306 1.279l.01.031a47.163 47.163 0 0 1 2.848-.063h2.95v.843zM-32.852 161.755c.522 0 .972-.009 1.362-.04v.798l-.81.053v.021c.399.225.922.758.922 1.639 0 .779-.441 1.711-2.172 1.711h-2.898v-.901h2.735c.941 0 1.587-.298 1.587-1.105 0-.605-.419-1.024-.829-1.189a1.244 1.244 0 0 0-.46-.081h-3.033v-.903h3.596zM-35.106 160.264c-.523 0-.932.02-1.342.04v-.789l.809-.04v-.031c-.471-.276-.912-.736-.912-1.567 0-.665.41-1.178.994-1.393v-.021a1.929 1.929 0 0 1-.646-.563c-.227-.298-.349-.614-.349-1.085 0-.665.43-1.639 2.151-1.639h2.908v.881h-2.793c-.964 0-1.527.357-1.527 1.076 0 .521.38.91.809 1.074.133.041.287.071.45.071h3.063v.881h-2.97c-.788 0-1.353.348-1.353 1.036 0 .553.452.972.902 1.115.124.052.287.072.441.072h2.981v.881h-3.616v.001zM-38.763 151.722v-.89h3.115v-.021c-.553-.318-.902-.891-.902-1.69 0-1.239 1.025-2.1 2.52-2.1 1.771 0 2.653 1.126 2.653 2.233 0 .716-.278 1.29-.922 1.669v.021l.81.051v.769c-.338-.021-.84-.042-1.281-.042h-5.993zm5.286-.89c.113 0 .226-.011.329-.042a1.38 1.38 0 0 0 1.055-1.351c0-.954-.768-1.507-1.905-1.507-.993 0-1.843.512-1.843 1.485 0 .604.43 1.177 1.107 1.361.112.03.235.052.379.052l.878.002zM-33.805 145.395c1.219-.021 1.721-.788 1.721-1.701 0-.645-.112-1.044-.256-1.373l.645-.163c.143.318.318.871.318 1.66 0 1.526-1.014 2.438-2.511 2.438-1.496 0-2.663-.882-2.663-2.324 0-1.629 1.413-2.049 2.326-2.049.184 0 .317.01.419.03v3.482h.001zm-.646-2.643c-.563-.012-1.454.236-1.454 1.249 0 .922.829 1.311 1.454 1.382v-2.631zM-34.901 140.767c-.584 0-1.086.01-1.547.041v-.788l.983-.042v-.029c-.665-.227-1.085-.779-1.085-1.384 0-.093.01-.163.021-.245h.85c-.021.092-.021.185-.021.308 0 .634.471 1.087 1.146 1.208.124.021.277.031.419.031h2.643v.9h-3.409zM-34.01 130.76c1.834 0 2.633 1.281 2.633 2.469 0 1.331-.984 2.376-2.55 2.376-1.65 0-2.623-1.096-2.623-2.459-.001-1.422 1.034-2.386 2.54-2.386zm.051 3.923c1.085 0 1.904-.613 1.904-1.495 0-.86-.808-1.507-1.925-1.507-.84 0-1.896.42-1.896 1.485.001 1.056.987 1.517 1.917 1.517zM-31.49 129.534h-4.271v.686h-.688v-.686h-.236c-.696 0-1.331-.165-1.731-.574-.327-.339-.46-.789-.46-1.209 0-.328.073-.593.144-.768l.696.123a1.325 1.325 0 0 0-.112.574c0 .769.665.963 1.434.963h.266v-1.198h.685v1.198h4.271v.891h.002zM-31.664 120.932c.112.235.287.758.287 1.424 0 1.496-1.014 2.467-2.53 2.467-1.525 0-2.643-1.044-2.643-2.662 0-.533.133-1.004.266-1.249l.686.203a2.222 2.222 0 0 0-.236 1.046c0 1.137.851 1.751 1.875 1.751 1.147 0 1.854-.736 1.854-1.721 0-.511-.123-.85-.235-1.104l.676-.155zM-32.679 116.395a8.35 8.35 0 0 0 1.189-.072v.81l-.625.072v.03c.39.275.738.809.738 1.516 0 1.003-.707 1.515-1.424 1.515-1.199 0-1.854-1.064-1.845-2.979h-.102c-.398 0-1.146.112-1.137 1.126 0 .472.134.952.37 1.302l-.605.204c-.256-.411-.43-1.016-.43-1.64 0-1.516 1.034-1.884 2.019-1.884h1.852zm-1.341.87c-.021.983.153 2.101 1.117 2.101.593 0 .86-.39.86-.84 0-.655-.409-1.075-.831-1.219a.97.97 0 0 0-.286-.042h-.86zM-32.402 115.065c.164-.277.347-.749.347-1.198 0-.646-.317-.952-.737-.952-.431 0-.655.255-.9.911-.328.9-.811 1.321-1.403 1.321-.798 0-1.455-.655-1.455-1.709 0-.503.133-.941.307-1.209l.655.216a1.914 1.914 0 0 0-.298 1.014c0 .533.308.82.676.82.41 0 .595-.287.851-.933.317-.85.748-1.301 1.485-1.301.882 0 1.497.686 1.497 1.844 0 .543-.143 1.045-.348 1.394l-.677-.218zM-33.805 110.386c1.219-.02 1.721-.788 1.721-1.7 0-.646-.112-1.044-.256-1.373l.645-.165c.143.318.318.872.318 1.66 0 1.525-1.014 2.438-2.511 2.438-1.496 0-2.663-.88-2.663-2.325 0-1.627 1.413-2.049 2.326-2.049.184 0 .317.01.419.031v3.483h.001zm-.646-2.642c-.563-.01-1.454.235-1.454 1.249 0 .921.829 1.311 1.454 1.383v-2.632zM-32.402 105.88c.164-.276.347-.747.347-1.198 0-.645-.317-.952-.737-.952-.431 0-.655.255-.9.912-.328.9-.811 1.322-1.403 1.322-.798 0-1.455-.655-1.455-1.71 0-.502.133-.942.307-1.209l.655.216a1.917 1.917 0 0 0-.298 1.014c0 .534.308.82.676.82.41 0 .595-.287.851-.932.317-.851.748-1.3 1.485-1.3.882 0 1.497.686 1.497 1.843 0 .542-.143 1.044-.348 1.394l-.677-.22zM-34.83 99.532c-.636 0-1.147.02-1.618.041v-.798l.851-.051v-.022c-.604-.357-.953-.951-.953-1.76 0-1.209 1.014-2.11 2.51-2.11 1.781 0 2.664 1.096 2.664 2.263 0 .656-.287 1.229-.779 1.527v.021h2.694v.891l-5.369-.002zm1.321-.89a1.392 1.392 0 0 0 1.424-1.394c0-.952-.778-1.506-1.916-1.506-.983 0-1.834.522-1.834 1.476 0 .613.431 1.197 1.107 1.361.112.03.246.061.357.061h.861v.002zM-33.805 93.204c1.219-.02 1.721-.788 1.721-1.7 0-.646-.112-1.044-.256-1.373l.645-.165c.143.317.318.872.318 1.66 0 1.525-1.014 2.438-2.511 2.438-1.496 0-2.663-.88-2.663-2.325 0-1.629 1.413-2.049 2.326-2.049.184 0 .317.01.419.032v3.482h.001zm-.646-2.642c-.563-.01-1.454.235-1.454 1.249 0 .921.829 1.312 1.454 1.382v-2.631zM-34.901 88.576c-.584 0-1.086.01-1.547.041v-.788l.983-.041v-.03c-.665-.225-1.085-.779-1.085-1.383 0-.093.01-.165.021-.246h.85c-.021.092-.021.185-.021.306 0 .636.471 1.086 1.146 1.209.124.022.277.032.419.032h2.643v.9h-3.409zM-36.448 82.729l2.93-1.075c.328-.123.716-.245 1.014-.329v-.02c-.298-.092-.677-.195-1.036-.317l-2.909-.983v-.953l3.533 1.351c1.701.646 2.562 1.087 3.105 1.701.379.45.532.881.573 1.106l-.748.225a2.391 2.391 0 0 0-.441-.789c-.194-.245-.542-.542-1.003-.757-.092-.042-.165-.071-.216-.071s-.123.021-.235.071l-4.568 1.824v-.984zM-33.805 77.833c1.219-.021 1.721-.788 1.721-1.701 0-.645-.112-1.044-.256-1.373l.645-.165c.143.318.318.871.318 1.66 0 1.525-1.014 2.438-2.511 2.438-1.496 0-2.663-.881-2.663-2.326 0-1.629 1.413-2.048 2.326-2.048.184 0 .317.01.419.03v3.485h.001zm-.646-2.643c-.563-.009-1.454.235-1.454 1.25 0 .922.829 1.311 1.454 1.383V75.19zM-32.679 69.723a8.35 8.35 0 0 0 1.189-.072v.809l-.625.073v.03c.39.276.738.809.738 1.516 0 1.002-.707 1.515-1.424 1.515-1.199 0-1.854-1.063-1.845-2.98h-.102c-.398 0-1.146.112-1.137 1.126 0 .471.134.952.37 1.301l-.605.204c-.256-.41-.43-1.014-.43-1.639 0-1.515 1.034-1.884 2.019-1.884h1.852zm-1.341.87c-.021.984.153 2.1 1.117 2.1.593 0 .86-.39.86-.839 0-.655-.409-1.075-.831-1.219a1.004 1.004 0 0 0-.286-.042h-.86zM-34.901 68.271c-.584 0-1.086.01-1.547.042v-.789l.983-.041v-.03c-.665-.226-1.085-.779-1.085-1.383 0-.092.01-.165.021-.246h.85c-.021.092-.021.184-.021.306 0 .636.471 1.085 1.146 1.209.125.021.279.03.422.03h2.643v.902h-3.412z"/></g><g><path d="M350.036 153.652c-.08-.45-.144-1.105-.144-1.711 0-.952.184-1.577.563-1.997.309-.337.779-.543 1.32-.543.902 0 1.508.574 1.753 1.291h.031c.184-.521.676-.839 1.393-1.003.963-.226 1.629-.389 1.896-.533v.922c-.207.111-.788.266-1.649.45-.953.205-1.311.584-1.343 1.393v.84h2.99v.892h-6.81v-.001zm3.144-.891v-.911c0-.953-.522-1.558-1.313-1.558-.889 0-1.279.646-1.279 1.588 0 .43.03.728.073.881h2.519zM355.659 144.568c.431 0 .851-.021 1.188-.072v.81l-.625.072v.03c.39.277.736.809.736 1.516 0 1.004-.706 1.517-1.424 1.517-1.198 0-1.854-1.065-1.844-2.981h-.103c-.4 0-1.146.114-1.138 1.128 0 .472.132.953.369 1.301l-.605.205c-.255-.41-.429-1.015-.429-1.64 0-1.516 1.034-1.885 2.018-1.885h1.857zm-1.342.872c-.021.982.154 2.1 1.117 2.1.594 0 .859-.389.859-.839 0-.658-.41-1.075-.829-1.221a1.09 1.09 0 0 0-.287-.04h-.86zM350.702 142.071h1.188v-1.29h.686v1.29h2.674c.613 0 .962-.174.962-.676 0-.246-.021-.39-.063-.522l.686-.041c.063.174.124.452.124.8 0 .42-.142.758-.379.973-.276.246-.718.348-1.302.348h-2.703v.769h-.686v-.769h-.922l-.265-.882zM354.532 139.326c1.218-.021 1.721-.789 1.721-1.701 0-.646-.112-1.044-.258-1.373l.646-.163c.145.316.318.871.318 1.659 0 1.527-1.015 2.438-2.51 2.438s-2.663-.882-2.663-2.325c0-1.627 1.412-2.049 2.323-2.049.185 0 .319.01.422.03l.001 3.484zm-.645-2.641c-.564-.011-1.456.234-1.456 1.249 0 .923.832 1.311 1.456 1.383v-2.632zM353.508 132.528c-.636 0-1.146.021-1.618.041v-.799l.85-.052v-.021c-.604-.358-.952-.953-.952-1.762 0-1.208 1.015-2.109 2.51-2.109 1.782 0 2.663 1.096 2.663 2.263 0 .655-.286 1.229-.779 1.525v.021h2.694v.892l-5.368.001zm1.321-.89a1.39 1.39 0 0 0 1.424-1.394c0-.952-.78-1.507-1.916-1.507-.982 0-1.832.523-1.832 1.477 0 .613.43 1.198 1.105 1.361.113.03.245.063.358.063h.861zM354.532 126.2c1.218-.021 1.721-.788 1.721-1.701 0-.646-.112-1.044-.258-1.372l.646-.165c.145.317.318.871.318 1.659 0 1.525-1.015 2.438-2.51 2.438s-2.663-.88-2.663-2.324c0-1.629 1.412-2.049 2.323-2.049.185 0 .319.012.422.032l.001 3.482zm-.645-2.642c-.564-.011-1.456.235-1.456 1.249 0 .921.832 1.313 1.456 1.383v-2.632zM353.436 121.572c-.584 0-1.087.01-1.547.041v-.788l.982-.041v-.032c-.664-.226-1.085-.778-1.085-1.383 0-.093.01-.163.021-.245h.851c-.022.092-.022.185-.022.307 0 .636.472 1.087 1.147 1.209.124.022.276.03.419.03h2.645v.902h-3.411zM351.029 114.382v.021l.626 1.158-.687.173-.778-1.454v-.768h6.657v.87h-5.818zM353.447 106.651c2.263 0 3.513.85 3.513 2.314 0 1.3-1.218 2.191-3.421 2.212-2.244 0-3.463-.974-3.463-2.326 0-1.391 1.25-2.2 3.371-2.2zm.102 3.617c1.731 0 2.715-.534 2.715-1.353 0-.913-1.074-1.352-2.774-1.352-1.639 0-2.715.41-2.715 1.352-.002.777.962 1.353 2.774 1.353zM353.447 101.397c2.263 0 3.513.851 3.513 2.315 0 1.3-1.218 2.191-3.421 2.212-2.244 0-3.463-.974-3.463-2.325 0-1.392 1.25-2.202 3.371-2.202zm.102 3.616c1.731 0 2.715-.533 2.715-1.352 0-.913-1.074-1.352-2.774-1.352-1.639 0-2.715.41-2.715 1.352-.002.778.962 1.352 2.774 1.352zM353.447 93.973c2.263 0 3.513.851 3.513 2.315 0 1.3-1.218 2.191-3.421 2.212-2.244 0-3.463-.973-3.463-2.325 0-1.392 1.25-2.202 3.371-2.202zm.102 3.616c1.731 0 2.715-.533 2.715-1.352 0-.913-1.074-1.352-2.774-1.352-1.639 0-2.715.41-2.715 1.352-.002.778.962 1.352 2.774 1.352zM353.447 88.72c2.263 0 3.513.851 3.513 2.314 0 1.301-1.218 2.192-3.421 2.212-2.244 0-3.463-.974-3.463-2.325 0-1.392 1.25-2.201 3.371-2.201zm.102 3.617c1.731 0 2.715-.533 2.715-1.353 0-.912-1.074-1.352-2.774-1.352-1.639 0-2.715.41-2.715 1.352-.002.778.962 1.353 2.774 1.353zM353.447 83.466c2.263 0 3.513.851 3.513 2.315 0 1.301-1.218 2.191-3.421 2.212-2.244 0-3.463-.974-3.463-2.326 0-1.391 1.25-2.201 3.371-2.201zm.102 3.618c1.731 0 2.715-.535 2.715-1.352 0-.913-1.074-1.352-2.774-1.352-1.639 0-2.715.41-2.715 1.352-.002.776.962 1.352 2.774 1.352z"/></g></svg>