<svg version="1.1" xmlns="http://www.w3.org/2000/svg" x="0" y="0" width="411.023" height="338.433" viewBox="-42.019 0 411.023 338.433" xml:space="preserve"><path d="M82.279 46.226c.867.199 1.207.921 1.69 1.503l-.468.469.095.658c-.739-.013-1.412-.092-1.878-.375l.468-.469-.468-.47c.053-.303-.179-.324-.188-.563l.47-.283.279-.47zM112.51 172.416c1.378.026 1.068 2.438 2.629 1.689-.736 1.34-2.361-.741-2.629-1.689zM302.35 268.937c1.298-.415 2.329 1.051 3.383 1.502-1.07.188-2.314-1.064-3.383-1.502zM108.192 169.224c-.332-1.649-.997-.831-1.502-.188-.329-.222.433-.932.375-1.502.512-.138.377.373.751.375.365-.412-.494-.77.187-1.314.802.605-.151 2.992 1.691 2.065-.458.847.126 1.639-.189 2.065.085-.114-1.268-.336-.938.563-.407.032-.085-.666-.189-.938-.249.188-.698.178-.75.564-.381-.633-1.054-1.932.564-1.69zM108.005 172.604c1.329.388.618 1.34 1.314 1.878-.141-.11 1.079-.149.751-.939-1.353.459-1.09-1.17-.938-2.253.407.504.255.854.187 1.502.774-.178.705-.034 1.316-.375-.001 1.094-.595 2.649.374 2.817-.045.33-.322.428-.75.375.168.331.419.582.75.75-1.181.368-2.535-1.297-2.441-2.253-.784.142-1.838.49-1.877-.375.576.344.845-.169 1.313.188.507-.223.001-.979.001-1.315zM339.908 71.765c1.665.338 3.479.529 4.883 1.127l-.096.421.284.33v.375l-.657.094.095.657c-1.98-.21-3.67-.711-5.072-1.501l.557-.647.006-.856z"/><g fill="none" stroke="#000" stroke-linecap="round"><path d="M-2.247 333.676c-3.616-4.988-7.043-9.504-9.788-13.842-3.638-5.746-6.042-12.628-8.686-19.249-6.685-16.742-7.701-33.747-10.446-50.264-2.529-15.221-5.893-34.282-7.117-51.51-.885-12.484-1.603-24.707.321-36.764 1.431-8.965 2.549-18.999 5.256-28.356.081-.278.129-.655.189-.936 1.735-7.933 7.43-16.192 8.319-24.644 1.907-18.132-5.336-36.388-.052-54.806.941-3.281 1.753-5.762 3.428-9.033 9.52-18.602 26.769-21.806 40.954-35.197 2.601-2.459 6.892-4.982 9.286-8.576M148.201 12.227c1.598 2.054 2.658 4.608 4.873 6.208M147.345 15.147c.445-.945.037-2.123.856-2.921M148.201 12.227c-.327-3.568.322-7.174.366-10.788M126.44 25.61c6.454-.368 19.705 1.944 22.769 10.098.534 1.418 2.122 3.532 2.831 4.791M126.44 25.61c2.173 4.356 4.167 9.28 7.736 12.623M76.927 8.716c16.149 6.402 37.703 1.506 49.514 16.894M84.063 15.585c-3.135.469-7.89 1.534-9.483-2.223M60.776 16.463c3.807-5.737 9.887-.885 12.583 3.192M83.499 48.198c3.063 1.046 6.246 1.94 8.797 4.001M64.925 45.632c-2.657.617-5.319-.664-7.904-.534M41.848 43.54c3.095-3.337 7.938 1.494 11.15-.869M52.998 42.671c4.755-2.743 10.235-4.178 15.15-6.539M68.148 36.132c-4.37-5.082-9.732-10.717-8.185-18.105M68.148 36.132c4.602 3.464 9.146 7.2 13.849 10.563M52.998 42.671c3.572 1.613 8.732.609 11.926 2.961M64.925 45.632c5.645 1.43 11.524 1.457 17.259 2.375M179.267 19.091c8.376.123 16.688-.613 24.971.374M206.302 18.903c5.136.524 11.805-.044 17.51 1.445 3.759.98 9.439 4.689 12.531 4.738 5.377.087 13.682 4.422 18.593 6.493M162.368 20.782c4.919.43 9.906-.462 14.832-.095M162.368 20.782c-1.697.856-3.819.558-5.634 1.126M151.852 20.5c3.407-.462 7.358-.878 10.515.282M70.917 27.354c-4.263 2.121-7.145-3.157-8.638-6.385M183.209 21.156c5.733.165 11.893-1.047 17.631.291 5.218 1.219 10.103 3.849 15.213 5.817 4.306 1.657 8.812 1.036 13.969 2.574 4.043 1.204 7.498 2.134 11.315 2.292.875.035 1.587-.2 2.521.011M150.914 22.941c1.763 7.278 9.971 9.413 16.421 7.896M167.335 30.838c1.566-.973 3.594-.711 5.361-.479M167.335 30.838c1.75 1.72 3.02 3.881 4.379 5.947M72.514 26.039c.613-.904 1.554-1.817 1.47-3.005M179.926 32.742c4.446 2.772 9.31 6.484 14.409 7.266 5.936.91 10.79 3.691 16.081 7.232M210.416 47.242c2.569-1.512 4.765-3.722 7.688-4.544M210.416 47.242c-.408.822-1.187 1.45-1.339 2.39M209.077 49.631c.489.298 1.118.467 1.662.217M210.74 49.847c3.407-4.137 9.313-5.155 14.341-6.11M210.74 49.847c4.622 1.786 9.691 2.683 14.464 4.234M225.203 54.081c5.705-2.863 12.425.095 18.28 1.157M225.203 54.081c.916.967 2.378 1.191 3.406 2.04M209.077 49.631c-2.907-.471-6.425-.17-8.97-1.809M174.198 31.297c1.854.668 3.851.93 5.729 1.445M179.926 32.742c.011-1.029-.02-2.093-.002-3.136M202.266 38.152c-.335-1.893-.133-3.848.375-5.727M89.038 41.25c.773-2.18 2.848-3.618 4.789-4.695M91.251 43.154a9.65 9.65 0 0 1 3.515-4.158M175.825 44.566c.756-.982 1.556-1.968 2.716-2.512M184.336 43.503c1.613-.116 3.21.053 4.693.61M177.484 49.511c.858-2.255 1.512-4.438 3.781-5.187 1.084-.358 2.171.207 3.07-.821M184.336 43.503c-.942-.96-2.4-.491-3.567-.375M50.449 51.952c2.091-1.192 1.901-4.111 1.19-6.071M216.251 48.01c5.744-.474 12.735-2.698 17.78.438M232.59 51.859c6.169-.126 11.882 2.493 17.84 3.38M195.131 62.281c.604-4.302 3.988-7.815 7.659-9.897M94.671 65.473c1.742-3.261 4.156-6.166 7.136-8.356M178.232 80.12c-1.084-3.76-3.174-7.367-4.88-10.985M112.981 179.738c-4.642.183-8.751-4.54-7.062-9.03M310.897 272.785c1.941 1.048 3.906 1.977 5.915 2.913M102.466 36.272c5.046 2.212 9.259 5.839 12.849 9.939M115.316 46.212c4.554-1.622 10.511-1.809 15.662-2.339 4.943-.51 9.213-1.81 13.329-.338 4.038 1.446 8.45 5.787 11.113 9.169M115.316 46.212c-.748 1.387-2.42 1.601-3.621 2.414M102.466 36.272c-3.611-.48-8.329-3.872-12.829-6.476-3.914-2.265-7.926-4.479-10.582-6.262"/><path d="M102.466 36.272c-1.335-4.111-5.806-8.357-11.589-10.456-6.216-2.254-15.241-4.593-17.824-11.914-.6-1.707-.904-4.193 1.621-4.67M110.351 167.252c.989.276 1.75-1.928 2.554-2.327 1.84-.912 4.931.438 6.123 2.072 1.064 1.456 1.535 4.777 1.182 6.828M367.794 80.559c-7.694-2.396-15.229-5.589-23.099-7.246M324.3 131.53c-.812.691-.554 1.543.442 2.339 1.413 1.122 2.357 1.783 4.319 3.005 8.624 5.358 22.011 14.735 28.405 18.925M273.472 162.615c3.072.884 7.046-.551 10.384-.057 1.432.214 3.011 1.065 4.687 1.646 5.675 1.959 11.749 3.997 17.619 5.778 9.583 2.911 19.854 4.982 28.331 9.146 2.666 1.308 5.322 2.5 8.139 3.71M235.732 233.232c.383 1.938 4.72 4.478 7.666 6.16 11.921 6.813 33.725 17.495 45.634 22.914 2.808 1.277 6.055 3.235 9.003 4.564M185.606 186.529c-3.301 6.339-9.413 13.263-17.362 11.885M168.243 198.414c.332 11.695-2.529 22.912-2.389 33.414.194 14.211 8.541 28.337 12.132 42.031 2.656 10.132 2.567 20.338 3.651 30.783.271 2.589.495 5.207.634 7.76.385 7.017-.046 13.65-.377 20.85M168.243 198.414c-.223-4.559-1.236-8.961-1.65-13.511M28.339 54.677c4.505-1.093 8.982-2.645 13.097-4.883M41.435 49.792c-.451-1.766-1.261-3.48-.939-5.353M41.435 49.792c2.974 3.521 7.664 5.101 12.357 6.705 6.063 2.068 12.329 4.268 18.183 6.276 6.941 2.382 13.264 7.098 18.339 12.695 7.648 8.436 12.625 17.117 22.374 22.821 4.423 2.588 8.587 5.592 12.397 8.426M125.087 106.716c2.199-.007 4.218 1.784 6.483 1.947M125.087 106.716c4.62 5.501 11.675 12.75 16.871 18.141 13.896 14.413 25.177 33.619 37.556 52.126 2.172 3.246 4.687 6.414 6.093 9.546M185.606 186.529c8.509 10.005 18.122 20.427 29.061 29.589 7.065 5.917 13.415 12.677 21.064 17.114"/><path d="M235.732 233.232c.017-8.746-.121-18.485 1.672-26.479 1.158-5.162 2.457-10.144 4.243-14.733 2.219-5.708 5.28-11.021 8.505-16.681 3.15-5.536 6.495-7.855 14.223-10.095 2.523-.729 5.784-1.163 9.098-2.629M273.472 162.615c-13.509-8.945-30.353-15.243-45.003-24.463-.144-.09-.306-.243-.473-.337-14.044-7.741-27.373-19.598-36.64-32.462-3.158-4.386-8.047-9.188-9.141-14.284-.888-4.141-.229-9.371-.891-12.984-.698-3.808-2.83-6.673-4.102-10.029M177.224 68.055c-6.418-8.292-15.871-14.315-21.053-23.615M177.224 68.055c.82-3.831-.074-7.833.212-11.689M177.436 56.366c-2.928-2.335-7.965-3.934-8.321-8.284M169.115 48.082c-2.034-3.533-.955-8.078 3.188-9.562 4.648-1.664 8.109 1.241 13.375 2.025 5.477.816 9.705 5.411 12.741 6.9"/><path d="M169.115 48.082c1.3.1 1.583 1.74 2.743 1.958.703-.602.424-1.705.743-2.501M177.436 56.366c8.065 2.693 15.593 7.635 22.871 12.083M200.309 68.448c-.098-2.015-2.164-3.616-2.078-5.792M200.309 68.448c9.745 13.264 19.168 22.081 32.62 25.604 6.828 1.788 14.587 1.667 21.379 2.523 7.139.899 17.271.709 24.413 2.629.441.119 1.293.446 2.037.687 9.58 3.1 12.088 7.641 20.179 14.278 3.021 2.48 6.701 4.539 9.754 6.99 4.162 3.345 9.643 7.242 13.61 10.371"/><path d="M324.3 131.53c5.831-1.905 14.735-8.975 16.954-15.956 1.213-3.815 2.022-8.441 2.751-12.396 1.475-8 5.008-15.563 4.055-22.674-.372-2.774-1.655-4.417-3.738-6.395M248.926 32.799c4.259.578 8.613.833 12.515 2.183 7.851 2.719 14.394 10.435 22.955 15.647 5.9 3.589 11.529 6.827 17.797 9.142 11.501 4.246 23.194 9.018 34.737 12.392.994.292 2.208.573 2.972.457M43.239 201.24c10.577-.766 20.716 6.457 30.455 9.858 8.269 2.888 17.94 3.978 28.144 2.041 6.302-1.194 11.991-2.907 17.834-5.252 14.543-5.835 25.854-19.116 32.431-34.931.409-.985.661-2.09 1.197-2.945M108.474 333.629c-10.665-9.412-21.32-19.64-33.356-26.346-3.425-1.907-7.029-3.543-10.551-5.632-3.798-2.251-7.246-4.554-11.411-7.136-3.665-2.271-10.374-5.513-12.38-9.158-.249-.452-.35-1.387-.398-1.612-2.929-13.704-4.639-27.448-2.438-41.616 1.303-8.387 2.225-16.786 3.193-25.351a351.828 351.828 0 0 1 2.104-15.538M43.239 201.24c1.19-11.481.928-23.328 1.113-34.914.114-7.226-.388-14.666.35-21.843 1.005-9.754 2.799-19.05 5.466-28.354"/></g></svg>