<svg version="1.1" xmlns="http://www.w3.org/2000/svg" xmlns:xlink="http://www.w3.org/1999/xlink" x="0" y="0" width="325.962" height="134.644" viewBox="44.277 20.31 325.962 134.644" xml:space="preserve"><defs><path id="a" d="M53.616 20.31h316.623v134.644H53.616z"/></defs><clipPath id="b"><use xlink:href="#a" overflow="visible"/></clipPath><g clip-path="url(#b)"><path d="M98.298 90.597h-2.847c-.366 3.051.738 8.646-.301 10.895l-.174-.223-.274.072v-.299c-.438-.607-1.646-.45-2.249-.896l.226-.173-.076-.273h.602v-3.58l.226-.172-.075-.277c.691-.092.862.336 1.5.301V94.78l.19-.364-.341-.229c.18-.199.058-.236 0-.448l.341-.231-.19-.359v-1.046l.226-.301-.228-.3v-.299l.188-.373-.188-.372v-.148h.375l.227-.299c.95.099 2.297-.196 2.997.148l-.226.175.071.263zm-4.048 9.105c-.034.253.169.369.149 0v-.745-1.64c-.032-.283.169-.325.149-.594-.033-.119-.127-.175-.3-.148.002 1.037.002 2.081.002 3.127zM87.578 102.722l.074.409h-.449l.074-.521-.523-.074h-.75l-.365-.189-.233.34c-3.173-.271-7.439-.148-11.245-.148-1.614 0-3.65-.306-4.2.446l-.354.043-.246.256c-1.335-.213-3.075-.021-4.197-.447l.226-.174-.075-.272c1.078-.097 1.637.281 2.25 0-.829-.21-.847-1.622-.449-2.095l.173.227.276-.074v1.194c4.949.503 15.681.317 20.394.146l-.075.273.226.172c-.028.123-.15.146-.149.298l-.383.19zm-18.069-.185c-.218.082-.772-.174-.75.148.219-.081.775.176.75-.148zM54.34 142.605l-.276.074c.166-1.032.369-2.021.899-2.688l.175.225.274-.072c-.267.951-.547 1.403-.149 2.389l-.275-.075-.174.226c-.121.025-.148.148-.3.148l-.174-.227zM60.538 101.269l-.174.223c-.243.042-.259-.142-.45-.148V89.11c.242.042.257-.144.45-.148l.104.252.197.194c.07.471-.271.526-.149 1.044l-.052.396.353.199c-.081.12-.157.242-.149.445l-.345.234.194.361v1.043l-.052.396.353.201c-.027.122-.149.146-.149.299.121.13.409.091.446.299l-.225.171.074.274h-.447v1.192c.898.057 1.194-.502 2.097-.445l-.074.273.226.172c-.883.516-.269 2.519-.449 3.73h.601l-.075.271.226.174c-.479.221-.971.429-1.649.446l.074-.271-.225-.175v-3.581h-.451c-.471.876-.249 2.437-.3 3.729h.3l-.075.275.226.171c-.116.133-.16.338-.149.598l-.282-.06zM64.336 88.087l-.227-.175c.021-.329.637-.062.899-.147-.026-.128.058-.143.15-.149l.3.299.3-.299h.9l-.075.271.226.177c-.68.269-1.581.314-2.548.298l.075-.275zM89.452 77.392v-.374c.146-.003.118-.185.149-.301h.301v-.297c1.392.854 3.981.516 6.148.599.038-2.559 4.723-2.896 4.498.147 1.654.183 4.202.425 5.249-.448l.075.227.075.225v.299h.3l-.075.272.227.174c-1.688.061-2.911.32-4.647.6l.075-.274-.226-.175c-.176-.284-1.659-.503-1.051.148l-.074.273.226.174c-1.285.518-3.038.902-4.2 0l.075-.274-.226-.173c-.029-1.113-2.571-.521-3.298-.446l-.226.175.074.271c-1.543.202-2.521-1.439-3.298-.299l-.173-.224-.273.074v-.148l.295-.225zm9.297-.523c.024-.324-.532-.067-.75-.149-.341.591.918.66.75.149zm.15 1.193c-.961-.172-.33.457 0 0zM89.577 75.601l-.277.075c.308-2.481.881-4.695 1.199-7.162.895-.404 1.466-1.13 2.698-1.194l-.074.271.226.175c-.095.133-.182.267 0 .298l-.075.225.075.225c-.284.27-1.998.522-1.35.745l-.075.273.226.173c-.068.244-1.133.246-.6.597l-.074.273.224.175c-.075.334-1.229.354-.75.747l-.075.274.226.173c-.659.537-.923 1.467-.899 2.686l-.226.374.375.226a1.338 1.338 0 0 1-.601.598l-.173-.227zM94.025 67.343l-.227-.174c-.027-.127.058-.141.15-.147l.46.011-.011-.458c.74.192-.144-1.236.601-1.045l.075.374.375.075c-.028.127.057.14.149.147l-.074.274.227.174v.298l-.227.174.075.274c-.466.185-1.068.23-1.65.298l.077-.275zM102.672 66.995l.428.024v.147l-.227.175.074.273c-.654-.046-1.227-.171-1.8-.298l.075-.274-.226-.174c-.026-.126.058-.141.149-.147l.525-.075.523.075c.12-.079.244-.156.451-.149l.028.423zM105.471 68.438l.173-.227c.471-.069.396.401.75.448.009 2.01.135 2.984.149 4.925l-.273-.075-.175.227c-.341-.16-.058-.938-.15-1.343-.199-.15-.451-.246-.6-.448l.308-.241-.157-.355V71.2l.467-.015-.167-.435c.087-.584-.616-.381-.75-.746l.227-.174-.075-.272c.723-.057-.418-.351-.45-.599l.227-.173-.075-.272c.173.022.268-.034.3-.149l.271.073zM109.77 71.969l-.226-.174c1.646-.347 3.946-.051 5.849-.147.54-.956.071-2.913.448-4.03l.174.225.276-.073v4.179h-.502l-.397.298h-5.698l.076-.278zM68.584 79.331l-.276.076c-.028-.428-.02-.814.448-.747.118.104.334.832 0 .896l-.172-.225zM87.628 79.182l-.274.074c.029-.518.125-.972.75-.896.015.462-.067.826-.3 1.044l-.176-.222z"/><path d="M62.386 92.363l-.075-.272c.779-.08 1.11.286 1.799.3l-.074.272.226.175c-.928.221-1.872.426-2.85.598l.074-.274-.225-.173c.128-.321.772-.127.899-.447l.226-.179zM90.426 92.513l-.074-.273c1.28.079 2.317-.086 3.299-.299l-.074.272.225.175c-.112.281-.447.102-.149.443l-.226.177.075.274c-1.036-.266-2.316-.284-3.298-.598l.222-.171zM62.086 94.901l-.074-.274c3.012.739 7.036.004 10.646-.146a116.233 116.233 0 0 1 16.045.444l-.227.175.074.272h-.149v3.73c.311.089.985-.188 1.047.146l-.226.172.074.276c-.556.208-1.583-.378-1.498.148l-.462-.015.014.457H67.704l.074-.271-.223-.173c.417-.595-.764.064-1.351-.148l.074-.276-.225-.172c.553-.738.199-2.39.3-3.581-.432-.244-1.317.119-1.948.148v3.583h.6l-.074.271.226.176c-.546.252-1.283.313-2.1.299l.074-.276-.222-.166c.407-.602.657-3.371-.15-3.729l.075-.276-.226-.172c-.049-.354-.653-.146-.75-.447l.228-.175zm11.322 3.755h4.798v-3.581h-4.798v3.581zm5.997 0c1.198.002 2.454-.058 3.448.149.245-.925.245-2.81 0-3.73h-3.448v3.581zm-7.197.149c.241-.646.117-2.307.149-3.582-1.762-.111-3.06.237-4.798.148v3.58c2.848 0 2.771.275 2.771.275l.227.174c4.299.3 10.247.3 16.195.3.229-.079.01-.159-.149-.149-5.26-.343-11.796-.462-17.244 0 1.2-.146 1.273-.425 1.273-.425l-.225-.173c.002.001-.071-.125 1.801-.148zm11.846 0c1.656.072 1.799.077 3.147.146v-3.58c-1.193.093-1.939-.26-3.147-.148v3.582zM89.826 95.349l-.075-.274c1.564.165 2.339-.458 3.75-.448l-.075.274.226.174c-.128.32-.771.126-.899.447l-.226.172.075.274h-.601c-.063 1.181.15 2.64-.149 3.581.218.081.774-.174.75.149l-.226.171.075.276c-.816.017-1.557-.047-2.101-.299l.227-.176-.075-.271c.637-.16.146-2.545.301-3.583-.156-.343-1.071.071-1.2-.298l.223-.169z"/><g fill="none" stroke="#000" stroke-linecap="round"><path stroke-width=".643" d="M94.974 101.269c-2.086 1.291-4.96 1.475-7.396 1.453"/><path stroke-width=".641" d="M97.402 146.977c.014.03.021.062.033.095-.682 2.845-3.307 4.83-6.309 5.714-5.058 1.491-12.675 1.459-18.93 1.074-2.628-.161-5.587-.563-7.7-1.042-5.16-1.177-11.326-4.402-10.158-10.214"/><path stroke-width=".667" d="M71.675 121.448c-.05-.021-.096-.041-.145-.059-.282-.096-.586.006-.866-.079-.372-.181-.863-.476-.99-1.127-.448-2.299-.016-5.607-.016-8.611 0-3.106.042-6.29-.055-8.538"/><path stroke-width=".619" d="M65.385 102.661c-1.58-.477-3.58-.198-4.848-1.392"/><path stroke-width=".597" d="M60.467 89.21c1.149-.741 2.563-.844 3.868-1.123"/><path stroke-width=".648" d="M65.46 87.912c.325-2.688 1.211-6.257 1.787-8.918.563-2.601.859-2.735 3.325-3.177 2.506-.448 4.812-.657 7.627-.652 3.635.005 7.063.689 11.252 2.229"/><path stroke-width=".531" d="M89.901 76.719c-.319-.275-.481-.71-.322-1.116"/><path stroke-width=".525" d="M93.125 67.592c.315-.039.583-.209.899-.249"/><path stroke-width=".648" d="M92.885 64.93c-.135-2.191 5.618-2.542 8.725-1.934 1.094.214 2.578.661 2.825 1.31.028.197-.003.456-.096.688"/><path stroke-width=".643" d="M104.338 64.996c.57 1.189-.923 1.537-1.666 1.998"/><path stroke-width=".592" d="M102.872 67.343c.874.302 1.997.332 2.601 1.097"/><path stroke-width=".658" d="M106.38 75.152c.354.621.16 1.48-.509 1.791"/><path stroke-width=".636" d="M107.82 77.317c.201-1.866-.479-4.673 1.949-5.35"/><path stroke-width=".674" d="M118.976 68.811c3.666.228 7.497-.483 11.044.404"/><path stroke-width=".627" d="M130.02 69.216c1.122-3.78 6.704-4.57 8.563-.902"/><path stroke-width=".6" d="M138.583 68.313c10.38-9.063 24.184-14.65 37.103-12.182 6.155 1.178 12.513 4.147 18.466 8.608 1.444 1.083 2.876 2.806 4.771 2.421 1.146-.229 2.128-1.182 2.944-2.268 1.117-1.486 2.144-6.17 5.085-4.879l.15.032"/><path stroke-width=".642" d="M207.104 60.049c1.396-2.469 5.733-1.884 7.854-.715"/><path stroke-width=".618" d="M214.955 59.334c12.485-1.793 26.478 2.08 34.563 12.238"/><path stroke-width=".809" d="M249.519 71.572c.271-.131.441-.249.629-.344 4.5.062 9.053.104 13.552-.021.253.072.434.198.555.397.043.26.059.539-.044.789"/><path stroke-width=".68" d="M264.213 72.392c.114.257.059.547.076.818"/><path stroke-width=".685" d="M264.289 73.212c1 .226 2.085-.093 3.08.185"/><path stroke-width=".641" d="M267.369 73.395c.525-.246 1.148.042 1.668-.245.917.104.615 1.303 1.1 1.835"/><path stroke-width=".611" d="M270.136 74.985c5.178-.195 6.761-4.853 7.78-9.273 5.157-22.272 22.386-48.456 49.705-44.646 23.4 3.262 37.075 28.478 40.536 49.509 4.242 25.805-2.844 58.884-26.171 73.619-7.575 4.787-15.137 6.231-22.876 5.606-18.778-1.513-33.114-19.267-39.22-37.529-1.247-3.729-1.821-8.215-3.191-11.725-1.328-3.396-3.885-4.317-6.521-4.92"/><path stroke-width=".694" d="M270.136 74.985c.069.521-.177 1.153.206 1.586"/><path stroke-width=".606" d="M270.342 76.571c6.44-.085 8.192-6.828 9.378-11.605 3.947-15.895 14.559-35.849 33.817-41.379 26.017-7.47 45.57 17.041 51.627 40.422 3.514 13.563 3.771 28.779-.07 42.83-4.938 18.044-16.742 37.775-37.14 41.071-4.739.768-9.413.632-13.708-.565-17.607-4.909-27.523-19.88-32.722-35.272-1.1-3.254-1.761-6.842-2.695-10.146-1.182-4.146-3.5-6.992-8.437-7.813"/><path stroke-width=".666" d="M270.342 76.571c.519 5.794.42 11.762.053 17.542"/><path stroke-width=".606" d="M138.934 98.969c4.174 3.356 10.013 7.394 16.449 9.856 5.135 1.969 10.27 3.075 16.851 2.506 8.448-.732 16.931-4.824 22.732-9.779 1.083-.924 2.238-2.038 3.713-1.852 3.674.472 3.688 5.167 5.971 6.971.771.608.946.592 2.355.279.023-.005.055-.009.081-.013"/><path stroke-width=".663" d="M207.084 106.939c1.556-1.441 1.147-4.729 1.282-7.548.229-4.859.509-9.917.748-14.675.095-1.852-.019-4.486-.156-7.019-.222-3.949-.433-8.743-.602-12.386-.094-1.974-.004-4.137-1.254-5.268"/><path stroke-width=".643" d="M207.084 106.939c1.017 2.891 5.746 2.244 7.871.984"/><path stroke-width=".669" d="M214.955 107.922c.248-16.15.248-32.438 0-48.591"/><path stroke-width=".627" d="M214.955 107.922c12.456 1.802 26.343-2.126 34.519-12.099"/><path stroke-width=".631" d="M249.473 95.824c4.291-5.969 5.259-13.893 2.295-20.634"/><path stroke-width=".623" d="M251.768 75.19c-.673-.748-1.255-1.713-1.5-2.688"/><path stroke-width=".638" d="M92.885 64.93c3.595-1.369 7.879-1.55 11.451.064"/><path stroke-width=".643" d="M95.075 65.901c1.71-1.403 5.333-1.526 6.808.188.009.164-.096.363-.21.559"/><path stroke-width=".712" d="M92.885 64.93c-.473 1.166.906 1.501 1.526 2.1"/><path stroke-width=".607" d="M129.979 98.125c.233 4.931 7.733 5.675 8.953.845"/><path stroke-width=".67" d="M138.934 98.969c-.001-9.774.001-19.553-.001-29.326-.133-.441-.327-.862-.35-1.33"/><path stroke-width=".677" d="M97.924 67.02c.324.018.665-.054.976.073"/><path stroke-width=".658" d="M98.899 67.094c.659-.132 1.363-.103 2.023 0"/><path stroke-width=".513" d="M100.922 67.094c.1-.006.2-.025.301-.049"/><path stroke-width=".69" d="M101.673 66.647c-1.827-1.043-4.205-.915-6.146-.249"/><path stroke-width=".67" d="M115.789 95.533c.433 1.57-.396 5.491 2.015 4.909.95-.231 1.05-1.04 1.175-2.084"/><path stroke-width=".834" d="M118.976 98.358c-.1-9.834-.1-19.713 0-29.547"/><path stroke-width=".643" d="M118.976 68.811c.443-1.874-2.391-3.02-2.958-.973"/><path stroke-width=".627" d="M93.275 68.289a23.328 23.328 0 0 1 4.648-.597"/><path stroke-width=".191" d="M97.924 67.691v-.672"/><path stroke-width=".643" d="M97.924 67.02c-.803-.042-1.612.055-2.396.022"/><path stroke-width=".519" d="M97.924 67.691c.325-.021.678.077.976-.101"/><path stroke-width=".667" d="M98.899 67.592v-.498"/><path stroke-width=".666" d="M98.899 67.592c.548.324 1.229.113 1.837.175"/><path stroke-width=".245" d="M100.735 67.766c.155-.167.174-.482.188-.673"/><path stroke-width=".611" d="M100.735 67.766c1.413.308 2.87.498 4.236 1.02"/><path stroke-width=".637" d="M91.927 69.532c4.27-1.239 9.176-1.395 13.345.298"/><path stroke-width=".64" d="M91.476 70.576c4.619-1.583 10.104-1.763 14.486.607"/><path stroke-width=".666" d="M118.976 98.358c3.661-.118 7.411.257 11.003-.232"/><path stroke-width=".67" d="M129.979 98.125c.207-9.602.125-19.289.042-28.909"/><path stroke-width=".639" d="M90.876 71.771c4.588-1.962 10.128-1.806 14.777-.066"/><path stroke-width=".665" d="M89.976 75.003c5.139-2.079 11.345-2.133 16.405.148"/><path stroke-width=".693" d="M106.38 75.152c-.01-.546.111-1.123-.109-1.643"/><path stroke-width=".682" d="M249.519 71.572c.004.451.375.745.749.933"/><path stroke-width=".739" d="M107.82 90.748c.054 2.575-.039 4.392 2.141 4.911.961.233 4.604-.221 5.826-.126"/><path stroke-width=".997" d="M115.789 95.533c.093-7.852.086-15.735.003-23.588"/><path stroke-width=".674" d="M251.768 75.19c1.138-.293 2.372.047 3.523-.188"/><path stroke-width=".702" d="M255.292 75.003c.011-.562.106-1.25.586-1.61.115-.022.244-.012.348-.004.019.002.032.006.051.007"/><path stroke-width=".655" d="M256.275 73.395c.602-.063 1.27-.461 1.814-.01"/><path stroke-width=".671" d="M264.213 72.392c-4.644.072-9.331-.148-13.944.11"/><path stroke-width=".698" d="M256.341 97.388c.558.109 1.186.141 1.733-.034"/><path stroke-width=".66" d="M258.074 97.354c1.381-7.825 1.369-16.117.017-23.969"/><path stroke-width=".662" d="M267.369 73.395c1.53 7.81 1.357 16.156.064 23.993"/><path stroke-width=".634" d="M267.437 97.388c1.563.572 2.471-.334 2.743-1.762"/><path stroke-width=".71" d="M270.181 95.628c-.06-.502-.133-1.094.211-1.516"/><path stroke-width=".671" d="M258.074 97.354c3.084.202 6.267.138 9.362.034"/><path stroke-width=".672" d="M264.289 73.212c-2.043.236-4.165-.103-6.2.173"/><path stroke-width=".636" d="M255.292 96.045c.019.487.212 1.037.559 1.376.131.032.271.017.396 0 .03-.014.063-.021.096-.031"/><path stroke-width=".664" d="M256.341 97.388c1.338-7.863 1.478-16.164-.064-23.993"/><path stroke-width=".675" d="M249.473 95.824c1.882.382 3.904-.044 5.819.221"/><path stroke-width=".662" d="M255.292 96.045c.06-.028.119-.061.18-.094.917-5.317 1.316-13.363.412-19.393-.095-.625-.119-1.111-.592-1.557"/><path stroke-width=".673" d="M66.585 87.887c.415-.151.872-.066 1.273-.262"/><path stroke-width=".659" d="M67.859 87.627c-.027-2.802.578-5.52.728-8.297"/><path stroke-width=".755" d="M67.859 87.627c6.099-.335 12.344-.321 18.446-.089"/><path stroke-width=".639" d="M86.302 87.539c-.109-2.858.604-5.624 1.323-8.354"/><path stroke-width=".67" d="M86.302 87.539c1.679.19 3.403.554 5.099.448"/><path stroke-width=".616" d="M91.401 87.986c-1.584-3.149-3.395-6.746-1.976-10.296"/><path stroke-width=".638" d="M91.401 87.986c1.172.641 2.736.355 3.71 1.375.087.308-.021.642.115.937"/><path stroke-width=".667" d="M98.224 90.325c3.189.207 6.378.396 9.596.423"/><path stroke-width=".671" d="M107.82 90.748a240.57 240.57 0 0 0 0-13.431"/><path stroke-width=".607" d="M107.82 77.317c-.563.07-1.097.293-1.648.422"/><path stroke-width=".636" d="M92.825 77.939c1.206.394 2.497.496 3.749.448"/><path stroke-width=".637" d="M100.473 78.486c.425-.223.923-.022 1.35-.249"/><path stroke-width=".683" d="M64.036 92.662c8.667-1.205 17.701-1.166 26.39-.146"/><path stroke-width=".615" d="M93.575 92.215c.509-.104.972-.398 1.5-.425"/><path stroke-width=".7" d="M95.038 90.822c-11.213-2.317-23.355-2.393-34.576.021"/><path stroke-width=".615" d="M62.386 92.363c-.698-.176-1.352-.51-2.066-.637"/><path stroke-width=".639" d="M61.487 93.161c-.346.115-.678.26-1.023.373"/><path stroke-width=".561" d="M60.887 94.503c.412.107.778.33 1.198.397"/><path stroke-width=".637" d="M88.477 95.1c.425.223.923.021 1.348.249"/><path stroke-width=".626" d="M93.425 93.01c.539.173 1.081.303 1.617.489"/><path stroke-width=".561" d="M92.526 95.698c.309.056.605.141.899.249"/><path stroke-width=".603" d="M95.042 94.412c-.558.102-1.077.324-1.617.489"/><path stroke-width=".637" d="M89.227 99.427c.427.225.924.022 1.351.247M64.936 99.675c.425-.223.923-.021 1.351-.247"/><path stroke-width=".522" d="M62.836 95.698c-.099.033-.199.064-.3.099M92.376 99.875l.3.1M70.634 99.129c-.1.034-.199.065-.3.102M63.137 99.875l-.301.1"/><path stroke-width=".581" d="M61.487 100.324c-.245.09-.501.159-.748.246"/><path stroke-width=".5" d="M67.286 100.523c.108-.215.314-.383.501-.498"/><path stroke-width=".627" d="M87.877 102.064c.769-.567.449-2.021-.538-2.227"/><path stroke-width=".671" d="M83.004 121.474c.038-.016.083-.031.127-.053.877-.193 2.129.192 2.539-.923.154-5.81-.132-11.666.145-17.45"/><path stroke-width=".69" d="M85.812 103.051c-.095-.243-.129-.524-.175-.703"/><path stroke-width=".665" d="M85.812 103.051c.503-.103 1.093.017 1.466-.438"/><path stroke-width=".61" d="M97.402 146.977c.748-.786.431-2.645.289-3.412-.665-3.688-2.336-9.021-6.532-11.602-.531-.321-1.021-.546-1.625-.848-2.275-1.136-6.118-1.926-6.681-4.354-.375-1.619.431-3.673.148-5.287"/><path stroke-width=".677" d="M83.004 121.474c-3.729-.24-7.591-.188-11.326-.026"/><path stroke-width=".625" d="M71.675 121.448c-.253 2.003.191 4.102-.247 6.061-.594.729-2.493.294-3.481.397-.844.091-1.951.4-2.798.604-6.395 1.529-7.53 5.359-10.008 11.706"/><path stroke-width=".639" d="M97.402 146.977a1.92 1.92 0 0 1-.15-.01c-7.84 3.75-19.163 4.853-29.638 3.357-5.538-.79-10.746-2.75-12.625-7.871"/></g></g><path fill="none" stroke="#231F20" stroke-width=".5" d="M62.958 64.96h15.81"/><path fill="#231F20" d="M45.876 64.392l-1.599-4.875h.688l.76 2.4c.203.658.383 1.251.521 1.822h.015c.138-.563.333-1.179.558-1.815l.824-2.407h.673l-1.743 4.875h-.697z"/><g fill="#231F20"><path d="M51.049 63.552c0 .305.015.602.051.84h-.571l-.051-.441h-.021a1.3 1.3 0 0 1-1.069.521c-.709 0-1.071-.499-1.071-1.006 0-.847.752-1.31 2.104-1.302v-.072c0-.281-.08-.811-.795-.803a1.69 1.69 0 0 0-.919.26l-.145-.427c.29-.181.716-.304 1.156-.304 1.07 0 1.331.729 1.331 1.425v1.309zm-.616-.946c-.694-.016-1.482.107-1.482.788 0 .42.275.606.593.606a.88.88 0 0 0 .86-.586.744.744 0 0 0 .029-.202v-.606zM52.076 59.258h.637v5.136h-.637v-5.136z"/></g><path fill="#231F20" d="M54.03 60.891l.687 1.96c.116.325.211.614.282.903h.021c.08-.289.181-.578.297-.903l.68-1.96h.666l-1.375 3.501h-.608l-1.331-3.501h.681zM57.553 62.758c.015.861.557 1.216 1.2 1.216.456 0 .738-.079.97-.182l.115.456c-.224.103-.614.225-1.172.225-1.078 0-1.721-.717-1.721-1.771s.622-1.881 1.642-1.881c1.15 0 1.447.998 1.447 1.643 0 .13-.007.225-.021.296l-2.46-.002zm1.866-.456c.007-.397-.167-1.026-.882-1.026-.65 0-.926.586-.977 1.026h1.859z"/><path fill="none" stroke="#231F20" stroke-width=".5" d="M275.905 134.396h15.811"/><path fill="#231F20" d="M245.755 131.368a7.295 7.295 0 0 1 1.207-.102c.674 0 1.114.13 1.41.396.239.218.384.55.384.935 0 .637-.404 1.063-.91 1.235v.022c.368.13.593.477.709.982.157.681.273 1.149.375 1.338h-.65c-.08-.145-.188-.557-.318-1.164-.145-.673-.412-.926-.982-.947h-.593v2.111h-.63l-.002-4.806zm.629 2.221h.645c.673 0 1.099-.369 1.099-.926 0-.63-.455-.904-1.121-.904-.303 0-.513.021-.621.052l-.002 1.778z"/><g fill="#231F20"><path d="M250.001 134.543c.016.861.558 1.215 1.201 1.215.455 0 .737-.078.969-.181l.115.456c-.224.102-.614.224-1.172.224-1.077 0-1.721-.716-1.721-1.771s.622-1.881 1.642-1.881c1.149 0 1.446.998 1.446 1.643 0 .13-.007.225-.021.296l-2.459-.001zm1.866-.455c.007-.397-.167-1.026-.882-1.026-.652 0-.926.586-.978 1.026h1.86zM253.185 135.534c.194.115.527.246.847.246.456 0 .673-.225.673-.521 0-.304-.182-.463-.645-.636-.638-.23-.934-.571-.934-.991 0-.563.463-1.026 1.208-1.026.354 0 .666.095.854.218l-.152.463a1.354 1.354 0 0 0-.716-.21c-.376 0-.579.217-.579.479 0 .288.203.419.658.6.602.225.919.528.919 1.049 0 .622-.484 1.056-1.302 1.056-.384 0-.738-.101-.984-.244l.153-.483zM256.491 134.543c.015.861.557 1.215 1.201 1.215.455 0 .737-.078.969-.181l.115.456c-.225.102-.614.224-1.172.224-1.077 0-1.722-.716-1.722-1.771s.622-1.881 1.643-1.881c1.148 0 1.446.998 1.446 1.643 0 .13-.008.225-.021.296l-2.459-.001zm1.867-.455c.007-.397-.167-1.026-.882-1.026-.652 0-.927.586-.978 1.026h1.86z"/></g><path fill="#231F20" d="M259.762 133.769c0-.412-.008-.768-.028-1.094h.557l.029.694h.021c.158-.47.55-.767.978-.767.063 0 .115.008.174.015v.601c-.066-.015-.131-.015-.218-.015-.448 0-.768.333-.854.812a1.824 1.824 0 0 0-.021.296v1.865h-.637v-2.407zM262.547 132.677l.688 1.961c.116.325.211.614.283.903h.021c.079-.289.182-.578.297-.903l.681-1.961h.665l-1.374 3.501h-.607l-1.331-3.501h.677z"/><g fill="#231F20"><path d="M268.885 134.398c0 1.295-.903 1.857-1.743 1.857-.939 0-1.679-.693-1.679-1.801 0-1.164.773-1.852 1.736-1.852 1.006.002 1.686.733 1.686 1.796zm-2.77.036c0 .767.435 1.346 1.057 1.346.607 0 1.063-.571 1.063-1.36 0-.593-.296-1.338-1.049-1.338-.745 0-1.071.694-1.071 1.352zM270.398 131.693c0 .217-.151.391-.404.391-.231 0-.384-.174-.384-.391s.159-.397.396-.397c.234 0 .392.173.392.397zm-.709 4.484v-3.501h.637v3.501h-.637zM271.382 133.769c0-.412-.006-.768-.027-1.094h.558l.028.694h.021c.159-.47.551-.767.978-.767.064 0 .116.008.173.015v.601c-.064-.015-.129-.015-.217-.015-.447 0-.767.333-.854.812a1.944 1.944 0 0 0-.021.296v1.865h-.638v-2.407z"/></g><path fill="none" stroke="#231F20" stroke-width=".5" d="M93.34 134.396h15.81"/><path fill="#231F20" d="M116.48 134.037c-.036-.68-.08-1.505-.08-2.104h-.014a38.715 38.715 0 0 1-.615 1.852l-.861 2.364h-.478l-.795-2.321a22.767 22.767 0 0 1-.558-1.895h-.014a72.724 72.724 0 0 1-.094 2.154l-.131 2.09h-.601l.34-4.875h.803l.832 2.358c.203.6.362 1.135.492 1.642h.016c.13-.491.304-1.026.521-1.642l.868-2.358h.803l.305 4.875h-.622l-.117-2.14z"/><g fill="#231F20"><path d="M120.67 135.339c0 .305.015.602.051.839h-.571l-.051-.44h-.021a1.302 1.302 0 0 1-1.07.521c-.709 0-1.07-.499-1.07-1.005 0-.847.752-1.31 2.104-1.302v-.072c0-.281-.08-.811-.795-.803a1.69 1.69 0 0 0-.919.26l-.145-.427c.29-.181.716-.304 1.156-.304 1.07 0 1.331.729 1.331 1.425v1.308zm-.616-.948c-.694-.016-1.482.107-1.482.788 0 .42.275.606.593.606a.882.882 0 0 0 .86-.586.744.744 0 0 0 .029-.202v-.606zM121.611 135.534c.195.115.528.246.846.246.456 0 .672-.225.672-.521 0-.304-.181-.463-.644-.636-.637-.23-.933-.571-.933-.991 0-.563.463-1.026 1.207-1.026.354 0 .666.095.854.218l-.152.463a1.357 1.357 0 0 0-.716-.21c-.376 0-.579.217-.579.479 0 .288.203.419.658.6.601.225.918.528.918 1.049 0 .622-.484 1.056-1.302 1.056-.383 0-.738-.101-.984-.244l.155-.483zM125.192 134.283h.015c.086-.123.202-.275.305-.398l1.033-1.208h.76l-1.346 1.439 1.541 2.062h-.78l-1.2-1.678-.326.361v1.315h-.629v-5.135h.629l-.002 3.242z"/></g><path fill="none" stroke="#231F20" stroke-width=".5" d="M168.973 43.809h15.808"/><g fill="#231F20"><path d="M188.003 40.789a5.68 5.68 0 0 1 1.149-.107c.63 0 1.034.107 1.331.354.253.188.412.479.412.86 0 .478-.318.89-.824 1.07v.021c.463.107 1.005.491 1.005 1.215 0 .42-.167.745-.419.978-.333.311-.883.454-1.679.454-.435 0-.768-.027-.977-.058l.002-4.787zm.629 1.996h.571c.658 0 1.048-.354 1.048-.824 0-.563-.426-.796-1.062-.796-.289 0-.455.022-.558.044v1.576zm0 2.329c.131.021.305.029.527.029.651 0 1.252-.239 1.252-.947 0-.658-.572-.94-1.259-.94h-.521l.001 1.858zM194.363 44.753c0 .305.014.602.05.839h-.571l-.051-.44h-.021a1.305 1.305 0 0 1-1.07.521c-.709 0-1.07-.499-1.07-1.005 0-.847.752-1.31 2.104-1.302v-.072c0-.282-.079-.811-.796-.803a1.69 1.69 0 0 0-.918.26l-.146-.427c.289-.181.715-.304 1.156-.304 1.07 0 1.332.729 1.332 1.425v1.308zm-.616-.948c-.695-.016-1.481.107-1.481.787 0 .421.273.607.593.607a.88.88 0 0 0 .859-.586.75.75 0 0 0 .029-.202v-.606zM198.384 45.078c0 .812-.166 1.295-.497 1.605-.349.312-.841.42-1.281.42-.419 0-.882-.103-1.164-.289l.159-.492c.23.152.593.282 1.025.282.651 0 1.129-.34 1.129-1.229v-.384h-.015c-.188.326-.571.586-1.114.586-.867 0-1.488-.737-1.488-1.707 0-1.186.773-1.852 1.584-1.852.606 0 .933.312 1.093.601h.014l.021-.528h.563c-.021.246-.029.535-.029.955v2.032zm-.637-1.606a.864.864 0 0 0-.035-.282c-.115-.376-.42-.681-.891-.681-.607 0-1.041.515-1.041 1.323 0 .688.354 1.259 1.034 1.259a.917.917 0 0 0 .882-.65 1.08 1.08 0 0 0 .051-.34v-.629z"/></g><path fill="none" stroke="#231F20" stroke-width=".5" d="M169.079 43.583v11.998"/></svg>