<svg version="1.1" id="Layer_1" xmlns="http://www.w3.org/2000/svg" x="0" y="0" viewBox="0 0 411 354.3" xml:space="preserve"><style type="text/css">.st0{fill:#d1d3d4}.st1{fill:none;stroke:#000}.st2{enable-background:new}.st3{fill:none;stroke:#000;stroke-linecap:round;stroke-linejoin:round}</style><g id="Layer_1_1_"><path class="st0" d="M240.2 2.7h-69.3l-34.7 20.4 34.7 20.4h69.3l34.6-20.4z"/><path class="st1" d="M240.2 2.7h-69.3l-34.7 20.4 34.7 20.4h69.3l34.6-20.4z"/><path class="st0" d="M2.9 42.7h132.7v58.7H2.9zM275.4 42.7h132.7v58.7H275.4z"/><g class="st2"><path d="M26.7 146.6c0-.5.4-.9.9-.9s.9.4.9.9-.4.9-.9.9-.9-.4-.9-.9zM35.4 148.5c-.3.1-1 .3-1.7.3-.9 0-1.6-.2-2.1-.7-.5-.5-.8-1.2-.8-2.1 0-1.7 1.2-2.9 3.1-2.9.7 0 1.2.1 1.4.3l-.2.6c-.3-.1-.7-.2-1.2-.2-1.4 0-2.3.9-2.3 2.3s.9 2.3 2.2 2.3c.5 0 .8-.1 1-.2v-1.7h-1.1v-.6h1.9c-.2-.1-.2 2.6-.2 2.6zM37.3 143.6c0 .3-.2.5-.5.5s-.4-.2-.4-.5.2-.5.5-.5c.2 0 .4.2.4.5zm-.8 5.2v-4h.7v4h-.7z"/></g><path d="M38.7 144.7l.8 2.3c.1.4.2.7.3 1 .1-.3.2-.7.3-1l.8-2.3h.8l-1.6 4h-.7l-1.5-4h.8z" class="st2"/><g class="st2"><path d="M42.8 146.9c0 1 .6 1.4 1.4 1.4.5 0 .9-.1 1.1-.2l.1.5c-.3.1-.7.3-1.4.3-1.2 0-2-.8-2-2s.7-2.2 1.9-2.2c1.3 0 1.7 1.2 1.7 1.9v.3h-2.8zm2.2-.5c0-.5-.2-1.2-1-1.2s-1.1.7-1.1 1.2H45zM49.7 144l-1 .5-.1-.6 1.2-.6h.6v5.4h-.7V144zM56 146c0 1.8-.7 2.9-1.9 2.9-1.1 0-1.8-1-1.8-2.8s.8-2.8 1.9-2.8c1.2-.1 1.8 1 1.8 2.7zm-2.9.1c0 1.4.4 2.2 1.1 2.2.7 0 1.1-.9 1.1-2.3 0-1.3-.3-2.2-1.1-2.2-.7 0-1.1.8-1.1 2.3z"/></g><g class="st2"><path d="M58.7 145.8v-1.1h.6v.7c.2-.4.6-.7 1.3-.7.5 0 1 .3 1.1.8.1-.2.3-.4.5-.5.2-.2.5-.3.9-.3.5 0 1.3.4 1.3 1.8v2.4h-.7v-2.3c0-.8-.3-1.2-.9-1.2-.4 0-.7.3-.9.7 0 .1-.1.2-.1.4v2.5h-.7v-2.4c0-.6-.3-1.1-.8-1.1-.4 0-.8.4-.9.7 0 .1-.1.2-.1.4v2.4h-.7v-3.2h.1zM65.7 142.8h.7v5.9h-.7v-5.9zM67 149.1l2.3-6.1h.6l-2.3 6.1H67zM71.2 146.6c.1-.1.3-.3.4-.5l1.2-1.4h.9l-1.6 1.7 1.8 2.4H73l-1.4-1.9-.4.4v1.5h-.7v-5.9h.7v3.7zM77.9 148.2c0 .9-.2 1.5-.6 1.9s-1 .5-1.5.5-1-.1-1.3-.3l.2-.6c.3.2.7.3 1.2.3.8 0 1.3-.4 1.3-1.4v-.4c-.2.4-.7.7-1.3.7-1 0-1.7-.9-1.7-2 0-1.4.9-2.1 1.8-2.1.7 0 1.1.4 1.3.7v-.6h.7v1.1l-.1 2.2zm-.8-1.9v-.3c-.1-.4-.5-.8-1-.8-.7 0-1.2.6-1.2 1.5 0 .8.4 1.5 1.2 1.5.5 0 .9-.3 1-.8 0-.1.1-.3.1-.4l-.1-.7zM80.9 145.8v-1.1h.6v.7c.2-.4.6-.7 1.3-.7.5 0 1 .3 1.1.8.1-.2.3-.4.5-.5.2-.2.5-.3.9-.3.5 0 1.3.4 1.3 1.8v2.4h-.7v-2.3c0-.8-.3-1.2-.9-1.2-.4 0-.7.3-.9.7 0 .1-.1.2-.1.4v2.5h-.7v-2.4c0-.6-.3-1.1-.8-1.1s-.8.4-.9.7c0 .1-.1.2-.1.4v2.4h-.7l.1-3.2zM88.7 143.6c0 .3-.2.5-.5.5s-.4-.2-.4-.5.2-.5.5-.5c.2 0 .4.2.4.5zm-.9 5.2v-4h.7v4h-.7zM89.8 142.8h.7v5.9h-.7v-5.9zM92.5 146.6c.1-.1.3-.3.4-.5l1.2-1.4h.9l-1.6 1.7 1.8 2.4h-.9l-1.4-1.9-.4.4v1.5h-.7v-5.9h.7v3.7z"/></g><path d="M97.5 148.8v-3.5H97v-.6h.6v-.2c0-.6.1-1.1.5-1.4.3-.3.6-.4 1-.4.3 0 .5.1.6.1l-.1.6c-.1-.1-.3-.1-.5-.1-.6 0-.8.5-.8 1.2v.2h1v.6h-1v3.5h-.8z" class="st2"/><g class="st2"><path d="M100.2 146.9c0 1 .6 1.4 1.4 1.4.5 0 .9-.1 1.1-.2l.1.5c-.3.1-.7.3-1.4.3-1.2 0-2-.8-2-2s.7-2.2 1.9-2.2c1.3 0 1.7 1.2 1.7 1.9v.3h-2.8zm2.2-.5c0-.5-.2-1.2-1-1.2s-1.1.7-1.1 1.2h2.1zM104.4 146.9c0 1 .6 1.4 1.4 1.4.5 0 .9-.1 1.1-.2l.1.5c-.3.1-.7.3-1.4.3-1.2 0-2-.8-2-2s.7-2.2 1.9-2.2c1.3 0 1.7 1.2 1.7 1.9v.3h-2.8zm2.1-.5c0-.5-.2-1.2-1-1.2s-1.1.7-1.1 1.2h2.1zM111.7 142.8v5.9h-.7v-.7c-.2.5-.7.8-1.4.8-1 0-1.7-.8-1.7-2.1s.8-2.2 1.8-2.2c.6 0 1 .3 1.2.6v-2.4l.8.1zm-.8 3.6v-.3c-.1-.5-.5-.8-1.1-.8-.8 0-1.2.7-1.2 1.6 0 .8.4 1.5 1.2 1.5.5 0 .9-.3 1.1-.9v-1.1z"/></g><path d="M22.9 156.6c0-.5.4-.9.9-.9s.9.4.9.9-.4.9-.9.9-.9-.4-.9-.9zM32.1 156.3c0-.8-.1-1.7-.1-2.4-.2.7-.4 1.4-.7 2.1l-1 2.7h-.6l-.9-2.7c-.3-.8-.5-1.5-.6-2.2 0 .7-.1 1.6-.1 2.5l-.2 2.4h-.7l.4-5.6h.9l1 2.7c.2.7.4 1.3.6 1.9.2-.6.4-1.2.6-1.9l1-2.7h.9l.4 5.6h-.7l-.2-2.4z" class="st2"/><g class="st2"><path d="M34.5 156.9c0 1 .6 1.4 1.4 1.4.5 0 .9-.1 1.1-.2l.1.5c-.3.1-.7.3-1.4.3-1.2 0-2-.8-2-2s.7-2.2 1.9-2.2c1.3 0 1.7 1.2 1.7 1.9v.3h-2.8zm2.2-.5c0-.5-.2-1.2-1-1.2s-1.1.7-1.1 1.2h2.1zM41.1 157.8c0 .4 0 .7.1 1h-.7l-.1-.5c-.2.3-.7.6-1.2.6-.8 0-1.2-.6-1.2-1.2 0-1 .9-1.5 2.4-1.5v-.1c0-.3-.1-.9-.9-.9-.4 0-.8.1-1.1.3l-.2-.5c.3-.2.8-.4 1.3-.4 1.2 0 1.5.8 1.5 1.6v1.6h.1zm-.7-1.1c-.8 0-1.7.1-1.7.9 0 .5.3.7.7.7.5 0 .9-.3 1-.7V156.7zM42.2 158.1c.2.1.6.3 1 .3.5 0 .8-.3.8-.6 0-.4-.2-.5-.7-.7-.7-.3-1.1-.7-1.1-1.1 0-.6.5-1.2 1.4-1.2.4 0 .8.1 1 .3l-.2.5c-.2-.1-.5-.2-.8-.2-.4 0-.7.3-.7.6s.2.5.8.7c.7.3 1.1.6 1.1 1.2 0 .7-.6 1.2-1.5 1.2-.4 0-.9-.1-1.1-.3v-.7zM49 157.7v1.1h-.7v-.7c-.2.3-.6.8-1.3.8-.6 0-1.4-.4-1.4-1.8v-2.4h.7v2.2c0 .8.2 1.3.9 1.3.5 0 .8-.3 1-.7 0-.1.1-.2.1-.4v-2.5h.7v3.1z"/></g><path d="M50.2 156v-1.3h.6v.8c.2-.5.6-.9 1.1-.9h.2v.7h-.3c-.5 0-.9.4-1 .9v2.5h-.7l.1-2.7z" class="st2"/><g class="st2"><path d="M53.3 156.9c0 1 .6 1.4 1.4 1.4.5 0 .9-.1 1.1-.2l.1.5c-.3.1-.7.3-1.4.3-1.2 0-2-.8-2-2s.7-2.2 1.9-2.2c1.3 0 1.7 1.2 1.7 1.9v.3h-2.8zm2.2-.5c0-.5-.2-1.2-1-1.2s-1.1.7-1.1 1.2h2.1zM58.9 152.9h.7v2.5c.3-.4.7-.7 1.4-.7 1 0 1.7.8 1.7 2.1 0 1.4-.9 2.2-1.8 2.2-.6 0-1.1-.2-1.4-.8v.7h-.6v-6zm.7 4.3v.3c.1.5.6.9 1.1.9.8 0 1.2-.6 1.2-1.6 0-.8-.4-1.5-1.2-1.5-.5 0-1 .4-1.1.9v1zM63.6 152.9h.7v5.9h-.7v-5.9zM69.2 156.7c0 1.5-1 2.1-2 2.1-1.1 0-1.9-.8-1.9-2.1s.9-2.1 2-2.1c1.2.1 1.9.9 1.9 2.1zm-3.2.1c0 .9.5 1.6 1.2 1.6s1.2-.7 1.2-1.6c0-.7-.3-1.5-1.2-1.5-.8-.1-1.2.7-1.2 1.5zM73.8 156.7c0 1.5-1 2.1-2 2.1-1.1 0-1.9-.8-1.9-2.1s.9-2.1 2-2.1c1.1.1 1.9.9 1.9 2.1zm-3.2.1c0 .9.5 1.6 1.2 1.6s1.2-.7 1.2-1.6c0-.7-.3-1.5-1.2-1.5-.8-.1-1.2.7-1.2 1.5zM78.2 152.9v5.9h-.7v-.7c-.2.5-.7.8-1.4.8-1 0-1.7-.8-1.7-2.1s.8-2.2 1.8-2.2c.6 0 1 .3 1.2.6v-2.4l.8.1zm-.7 3.5v-.3c-.1-.5-.5-.8-1.1-.8-.8 0-1.2.7-1.2 1.6 0 .8.4 1.5 1.2 1.5.5 0 .9-.3 1.1-.9v-1.1zM84.7 158.2c0 .9-.2 1.5-.6 1.9s-1 .5-1.5.5-1-.1-1.3-.3l.2-.6c.3.2.7.3 1.2.3.8 0 1.3-.4 1.3-1.4v-.4c-.2.4-.7.7-1.3.7-1 0-1.7-.9-1.7-2 0-1.4.9-2.1 1.8-2.1.7 0 1.1.4 1.3.7v-.6h.7v1.1l-.1 2.2zm-.7-1.8v-.3c-.1-.4-.5-.8-1-.8-.7 0-1.2.6-1.2 1.5 0 .8.4 1.5 1.2 1.5.5 0 .9-.3 1-.8 0-.1.1-.3.1-.4l-.1-.7zM85.9 152.9h.7v5.9h-.7v-5.9zM91.3 157.7v1.1h-.7v-.7c-.2.3-.6.8-1.3.8-.6 0-1.4-.4-1.4-1.8v-2.4h.7v2.2c0 .8.2 1.3.9 1.3.5 0 .8-.3 1-.7 0-.1.1-.2.1-.4v-2.5h.7v3.1z"/></g><path d="M95.4 158.7c-.2.1-.6.2-1.2.2-1.2 0-2-.8-2-2.1 0-1.2.9-2.2 2.2-2.2.4 0 .8.1 1 .2l-.2.6c-.2-.1-.5-.2-.9-.2-.9 0-1.4.7-1.4 1.5 0 .9.6 1.5 1.4 1.5.4 0 .7-.1.9-.2l.2.7z" class="st2"/><g class="st2"><path d="M99.8 156.7c0 1.5-1 2.1-2 2.1-1.1 0-1.9-.8-1.9-2.1s.9-2.1 2-2.1c1.2.1 1.9.9 1.9 2.1zm-3.2.1c0 .9.5 1.6 1.2 1.6s1.2-.7 1.2-1.6c0-.7-.3-1.5-1.2-1.5-.8-.1-1.2.7-1.2 1.5zM100.7 158.1c.2.1.6.3 1 .3.5 0 .8-.3.8-.6 0-.4-.2-.5-.7-.7-.7-.3-1.1-.7-1.1-1.1 0-.7.5-1.2 1.4-1.2.4 0 .8.1 1 .3l-.2.5c-.2-.1-.5-.2-.8-.2-.4 0-.7.3-.7.6s.2.5.8.7c.7.3 1.1.6 1.1 1.2 0 .7-.6 1.2-1.5 1.2-.4 0-.9-.1-1.1-.3v-.7zM104.5 156.9c0 1 .6 1.4 1.4 1.4.5 0 .9-.1 1.1-.2l.1.5c-.3.1-.7.3-1.4.3-1.2 0-2-.8-2-2s.7-2.2 1.9-2.2c1.3 0 1.7 1.2 1.7 1.9v.3h-2.8zm2.2-.5c0-.5-.2-1.2-1-1.2s-1.1.7-1.1 1.2h2.1zM110.9 153.6c0 .3-.2.5-.5.5s-.4-.2-.4-.5.2-.5.5-.5c.2.1.4.3.4.5zm-.9 5.2v-4h.7v4h-.7zM112 155.9v-1.1h.7v.7c.2-.4.7-.8 1.3-.8.6 0 1.4.3 1.4 1.7v2.4h-.7v-2.3c0-.7-.2-1.2-.9-1.2-.5 0-.9.3-1 .8 0 .1-.1.2-.1.3v2.4h-.7v-2.9z"/></g><g class="st2"><path d="M50.5 168c.2.1.7.3 1.2.3.9 0 1.2-.6 1.2-1.1 0-.8-.7-1.1-1.4-1.1h-.4v-.6h.4c.5 0 1.2-.3 1.2-.9 0-.4-.3-.8-1-.8-.4 0-.9.2-1.1.4l-.2-.5c.3-.2.8-.4 1.4-.4 1.1 0 1.6.6 1.6 1.3 0 .6-.3 1-1 1.3.7.1 1.2.6 1.2 1.4 0 .9-.7 1.6-2 1.6-.6 0-1.1-.2-1.4-.4l.3-.5zM58.2 166.1c0 1.8-.7 2.9-1.9 2.9-1.1 0-1.8-1-1.8-2.8s.8-2.8 1.9-2.8c1.2-.1 1.8.9 1.8 2.7zm-2.9 0c0 1.4.4 2.2 1.1 2.2.7 0 1.1-.9 1.1-2.3 0-1.3-.3-2.2-1.1-2.2-.7.1-1.1.9-1.1 2.3z"/></g><g class="st2"><path d="M60.9 165.9v-1.1h.6v.7c.2-.4.6-.7 1.3-.7.5 0 1 .3 1.1.8.1-.2.3-.4.5-.5.2-.2.5-.3.9-.3.5 0 1.3.4 1.3 1.8v2.4H66v-2.3c0-.8-.3-1.2-.9-1.2-.4 0-.7.3-.9.7 0 .1-.1.2-.1.4v2.5h-.7v-2.4c0-.6-.3-1.1-.8-1.1s-.8.4-.9.7c0 .1-.1.2-.1.4v2.4h-.7v-3.2zM68.7 163.6c0 .2-.2.4-.5.4s-.4-.2-.4-.4c0-.3.2-.5.5-.5.2.1.4.3.4.5zm-.8 5.2v-4h.7v4h-.7zM69.8 165.9v-1.1h.7v.7c.2-.4.7-.8 1.3-.8.6 0 1.4.3 1.4 1.7v2.4h-.7v-2.3c0-.7-.2-1.2-.9-1.2-.5 0-.9.3-1 .8 0 .1-.1.2-.1.3v2.4h-.7v-2.9zM77.8 167.7v1.1h-.7v-.7c-.2.3-.6.8-1.3.8-.6 0-1.4-.4-1.4-1.8v-2.4h.7v2.2c0 .8.2 1.3.9 1.3.5 0 .8-.3 1-.7 0-.1.1-.2.1-.4v-2.5h.7v3.1z"/></g><path d="M80 163.8v1h1v.6h-1v2.2c0 .5.1.8.6.8.2 0 .3 0 .4-.1v.6c-.1 0-.4.1-.7.1-.3 0-.6-.1-.8-.3-.2-.2-.3-.6-.3-1.1v-2.2h-.6v-.6h.6v-.8l.8-.2z" class="st2"/><g class="st2"><path d="M82.2 166.9c0 1 .6 1.4 1.4 1.4.5 0 .9-.1 1.1-.2l.1.5c-.3.1-.7.3-1.4.3-1.2 0-2-.8-2-2s.7-2.2 1.9-2.2c1.3 0 1.7 1.2 1.7 1.9v.3h-2.8zm2.1-.5c0-.5-.2-1.2-1-1.2s-1.1.7-1.1 1.2h2.1zM85.9 168.1c.2.1.6.3 1 .3.5 0 .8-.3.8-.6 0-.4-.2-.5-.7-.7-.7-.3-1.1-.7-1.1-1.1 0-.7.5-1.2 1.4-1.2.4 0 .8.1 1 .2l-.2.5c-.2-.1-.5-.2-.8-.2-.4 0-.7.3-.7.6s.2.5.8.7c.7.3 1.1.6 1.1 1.2 0 .7-.6 1.2-1.5 1.2-.4 0-.9-.1-1.1-.3v-.6z"/></g><path class="st3" d="M2.9 127.4v57.1M4 185h131.1M135.7 184v-57.2M134.6 126.3H3.5M2.9000000000000057 185"/><path d="M20.4 230.2c0-.5.4-.9.9-.9s.9.4.9.9-.4.9-.9.9c-.6 0-.9-.4-.9-.9zM29.6 229.9c0-.8-.1-1.7-.1-2.4-.2.7-.4 1.4-.7 2.1l-1 2.7h-.6l-.9-2.7c-.3-.8-.5-1.5-.6-2.2 0 .7-.1 1.6-.1 2.5l-.1 2.4h-.7l.4-5.6h.8l1 2.7c.2.7.4 1.3.6 1.9.1-.6.4-1.2.6-1.9l1-2.7h.9l.4 5.6h-.7l-.2-2.4z" class="st2"/><g class="st2"><path d="M32.4 227.2c0 .2-.2.4-.5.4s-.4-.2-.4-.4c0-.3.2-.5.5-.5.2.1.4.3.4.5zm-.8 5.2v-4h.7v4h-.7zM33.6 226.5h.7v5.9h-.7v-5.9zM36.3 230.2c.1-.1.2-.3.4-.5l1.2-1.4h.9l-1.6 1.7 1.8 2.4h-1l-1.4-1.9-.4.4v1.5h-.7v-5.9h.7l.1 3.7z"/></g><path d="M41.3 232.4v-3.5h-.6v-.6h.6v-.2c0-.6.1-1.1.5-1.4.3-.3.6-.4 1-.4.3 0 .5.1.6.1l-.1.6c-.1-.1-.3-.1-.5-.1-.6 0-.8.5-.8 1.2v.2h1v.6h-1v3.5h-.7z" class="st2"/><g class="st2"><path d="M44 230.5c0 1 .6 1.4 1.4 1.4.5 0 .9-.1 1.1-.2l.1.5c-.3.1-.7.3-1.4.3-1.2 0-2-.8-2-2s.7-2.2 1.9-2.2c1.3 0 1.7 1.2 1.7 1.9v.3H44zm2.1-.5c0-.5-.2-1.2-1-1.2s-1.1.7-1.1 1.2h2.1zM48.2 230.5c0 1 .6 1.4 1.4 1.4.5 0 .9-.1 1.1-.2l.1.5c-.3.1-.7.3-1.4.3-1.2 0-2-.8-2-2s.7-2.2 1.9-2.2c1.3 0 1.7 1.2 1.7 1.9v.3h-2.8zm2.1-.5c0-.5-.2-1.2-1-1.2s-1.1.7-1.1 1.2h2.1zM55.4 226.5v5.9h-.7v-.7c-.2.5-.7.8-1.4.8-1 0-1.7-.8-1.7-2.1s.8-2.2 1.8-2.2c.6 0 1 .3 1.2.6v-2.4l.8.1zm-.7 3.5v-.3c-.1-.5-.5-.8-1.1-.8-.8 0-1.2.7-1.2 1.6 0 .8.4 1.5 1.2 1.5.5 0 .9-.3 1.1-.9V230zM58.7 228.4l.5 2.1c.1.5.2.9.3 1.3.1-.4.2-.8.4-1.3l.7-2.1h.6l.6 2c.1.5.3.9.4 1.3.1-.4.2-.8.3-1.3l.6-2h.7l-1.3 4h-.7l-.6-1.9c-.1-.5-.3-.9-.4-1.3-.1.5-.2.9-.4 1.3l-.7 1.9H59l-1.2-4h.9zM65.4 227.2c0 .2-.2.4-.5.4s-.4-.2-.4-.4c0-.3.2-.5.5-.5.2.1.4.3.4.5zm-.8 5.2v-4h.7v4h-.7zM67.4 227.4v1h1.1v.6h-1.1v2.2c0 .5.1.8.6.8.2 0 .3 0 .4-.1v.6c-.1 0-.4.1-.7.1-.3 0-.6-.1-.8-.3-.2-.2-.3-.6-.3-1.1V229H66v-.6h.6v-.8l.8-.2zM69.3 226.5h.7v2.5c.1-.2.3-.4.5-.5s.5-.2.8-.2c.5 0 1.4.3 1.4 1.7v2.4H72v-2.3c0-.7-.2-1.2-.9-1.2-.5 0-.8.3-1 .7 0 .1-.1.2-.1.4v2.4h-.7v-5.9zM78.5 231.5c0 .3 0 .7.1 1h-.7l-.1-.5c-.2.3-.7.6-1.2.6-.8 0-1.2-.6-1.2-1.2 0-1 .9-1.5 2.4-1.5v-.1c0-.3-.1-.9-.9-.9-.4 0-.8.1-1.1.3l-.2-.5c.3-.2.8-.4 1.3-.4 1.2 0 1.5.8 1.5 1.6l.1 1.6zm-.7-1.1c-.8 0-1.7.1-1.7.9 0 .5.3.7.7.7.5 0 .9-.3 1-.7V230.4zM83.2 226.5v5.9h-.7v-.7c-.2.5-.7.8-1.4.8-1 0-1.7-.8-1.7-2.1s.8-2.2 1.8-2.2c.6 0 1 .3 1.2.6v-2.4l.8.1zm-.7 3.5v-.3c-.1-.5-.5-.8-1.1-.8-.8 0-1.2.7-1.2 1.6 0 .8.4 1.5 1.2 1.5.5 0 .9-.3 1.1-.9v-.3-.8zM87.9 226.5v5.9h-.7v-.7c-.2.5-.7.8-1.4.8-1 0-1.7-.8-1.7-2.1s.8-2.2 1.8-2.2c.6 0 1 .3 1.2.6v-2.4l.8.1zm-.7 3.5v-.3c-.1-.5-.5-.8-1.1-.8-.8 0-1.2.7-1.2 1.6 0 .8.4 1.5 1.2 1.5.5 0 .9-.3 1.1-.9v-.3-.8zM89.6 230.5c0 1 .6 1.4 1.4 1.4.5 0 .9-.1 1.1-.2l.1.5c-.3.1-.7.3-1.4.3-1.2 0-2-.8-2-2s.7-2.2 1.9-2.2c1.3 0 1.7 1.2 1.7 1.9v.3h-2.8zm2.1-.5c0-.5-.2-1.2-1-1.2s-1.1.7-1.1 1.2h2.1zM96.8 226.5v5.9h-.7v-.7c-.2.5-.7.8-1.4.8-1 0-1.7-.8-1.7-2.1s.8-2.2 1.8-2.2c.6 0 1 .3 1.2.6v-2.4l.8.1zm-.7 3.5v-.3c-.1-.5-.5-.8-1.1-.8-.8 0-1.2.7-1.2 1.6 0 .8.4 1.5 1.2 1.5.5 0 .9-.3 1.1-.9v-.3-.8z"/></g><g class="st2"><path d="M99.7 231.7c.2.1.6.3 1 .3.5 0 .8-.3.8-.6 0-.4-.2-.5-.7-.7-.7-.3-1.1-.7-1.1-1.1 0-.7.5-1.2 1.4-1.2.4 0 .8.1 1 .2l-.2.5c-.2-.1-.5-.2-.8-.2-.4 0-.7.3-.7.6s.2.5.8.7c.7.3 1.1.6 1.1 1.2 0 .7-.6 1.2-1.5 1.2-.4 0-.9-.1-1.1-.3v-.6zM106.5 231.3v1.1h-.7v-.7c-.2.3-.6.8-1.3.8-.6 0-1.4-.4-1.4-1.8v-2.4h.7v2.2c0 .8.2 1.3.9 1.3.5 0 .8-.3 1-.7 0-.1.1-.2.1-.4v-2.5h.7v3.1zM111.2 231.8c0 .9-.2 1.5-.6 1.9s-1 .5-1.5.5-1-.1-1.3-.3l.2-.6c.3.2.7.3 1.2.3.8 0 1.3-.4 1.3-1.4v-.4c-.2.4-.7.7-1.3.7-1 0-1.7-.9-1.7-2 0-1.4.9-2.1 1.8-2.1.7 0 1.1.4 1.3.7v-.6h.7v1.1l-.1 2.2zm-.7-1.8v-.3c-.1-.4-.5-.8-1-.8-.7 0-1.2.6-1.2 1.5 0 .8.4 1.5 1.2 1.5.5 0 .9-.3 1-.8 0-.1.1-.3.1-.4l-.1-.7zM115.3 231.5c0 .3 0 .7.1 1h-.7l-.1-.5c-.2.3-.7.6-1.2.6-.8 0-1.2-.6-1.2-1.2 0-1 .9-1.5 2.4-1.5v-.1c0-.3-.1-.9-.9-.9-.4 0-.8.1-1.1.3l-.2-.5c.3-.2.8-.4 1.3-.4 1.2 0 1.5.8 1.5 1.6l.1 1.6zm-.8-1.1c-.8 0-1.7.1-1.7.9 0 .5.3.7.7.7.5 0 .9-.3 1-.7V230.4zM116.4 229.6v-1.3h.6v.8c.2-.5.6-.9 1.1-.9h.2v.7h-.2c-.5 0-.9.4-1 .9v2.5h-.7v-2.7z"/></g><path d="M22.9 240.3c0-.5.4-.9.9-.9s.9.4.9.9-.4.9-.9.9c-.5-.1-.9-.4-.9-.9zM32.1 240c0-.8-.1-1.7-.1-2.4-.2.7-.4 1.4-.7 2.1l-1 2.7h-.5l-.9-2.7c-.3-.8-.5-1.5-.6-2.2 0 .7-.1 1.6-.1 2.5l-.2 2.4h-.7l.4-5.6h.9l1 2.7c.2.7.4 1.3.6 1.9.2-.6.4-1.2.6-1.9l1-2.7h.9l.4 5.6h-.7l-.3-2.4z" class="st2"/><g class="st2"><path d="M34.5 240.6c0 1 .6 1.4 1.4 1.4.5 0 .9-.1 1.1-.2l.1.5c-.3.1-.7.3-1.4.3-1.2 0-2-.8-2-2s.7-2.2 1.9-2.2c1.3 0 1.7 1.2 1.7 1.9v.3h-2.8zm2.2-.6c0-.5-.2-1.2-1-1.2s-1.1.7-1.1 1.2h2.1zM41.1 241.5c0 .4 0 .7.1 1h-.7l-.1-.5c-.2.3-.7.6-1.2.6-.8 0-1.2-.6-1.2-1.2 0-1 .9-1.5 2.4-1.5v-.1c0-.3-.1-.9-.9-.9-.4 0-.8.1-1.1.3l-.2-.5c.3-.2.8-.4 1.3-.4 1.2 0 1.5.8 1.5 1.6v1.6h.1zm-.7-1.1c-.8 0-1.7.1-1.7.9 0 .5.3.7.7.7.5 0 .9-.3 1-.7V240.4zM42.2 241.7c.2.1.6.3 1 .3.5 0 .8-.3.8-.6 0-.4-.2-.5-.7-.7-.7-.3-1.1-.7-1.1-1.1 0-.7.5-1.2 1.4-1.2.4 0 .8.1 1 .2l-.2.5c-.2-.1-.5-.2-.8-.2-.4 0-.7.3-.7.6s.2.5.8.7c.7.3 1.1.6 1.1 1.2 0 .7-.6 1.2-1.5 1.2-.4 0-.9-.1-1.1-.3v-.6zM49 241.3v1.1h-.7v-.7c-.2.3-.6.8-1.3.8-.6 0-1.4-.4-1.4-1.8v-2.4h.7v2.2c0 .8.2 1.3.9 1.3.5 0 .8-.3 1-.7 0-.1.1-.2.1-.4v-2.5h.7v3.1z"/></g><path d="M50.2 239.7v-1.3h.6v.8c.2-.5.6-.9 1.1-.9h.2v.7h-.3c-.5 0-.9.4-1 .9v2.5h-.7l.1-2.7z" class="st2"/><g class="st2"><path d="M53.3 240.6c0 1 .6 1.4 1.4 1.4.5 0 .9-.1 1.1-.2l.1.5c-.3.1-.7.3-1.4.3-1.2 0-2-.8-2-2s.7-2.2 1.9-2.2c1.3 0 1.7 1.2 1.7 1.9v.3h-2.8zm2.2-.6c0-.5-.2-1.2-1-1.2s-1.1.7-1.1 1.2h2.1zM58.9 236.5h.7v2.5c.3-.4.7-.7 1.4-.7 1 0 1.7.8 1.7 2.1 0 1.4-.9 2.2-1.8 2.2-.6 0-1.1-.2-1.4-.8v.7h-.6v-6zm.7 4.3v.3c.1.5.6.9 1.1.9.8 0 1.2-.6 1.2-1.6 0-.8-.4-1.5-1.2-1.5-.5 0-1 .4-1.1.9v1zM63.6 236.5h.7v5.9h-.7v-5.9zM69.2 240.4c0 1.5-1 2.1-2 2.1-1.1 0-1.9-.8-1.9-2.1s.9-2.1 2-2.1c1.2 0 1.9.9 1.9 2.1zm-3.2 0c0 .9.5 1.6 1.2 1.6s1.2-.7 1.2-1.6c0-.7-.3-1.5-1.2-1.5-.8 0-1.2.8-1.2 1.5zM73.8 240.4c0 1.5-1 2.1-2 2.1-1.1 0-1.9-.8-1.9-2.1s.9-2.1 2-2.1 1.9.9 1.9 2.1zm-3.2 0c0 .9.5 1.6 1.2 1.6s1.2-.7 1.2-1.6c0-.7-.3-1.5-1.2-1.5-.8 0-1.2.8-1.2 1.5zM78.2 236.5v5.9h-.7v-.7c-.2.5-.7.8-1.4.8-1 0-1.7-.8-1.7-2.1s.8-2.2 1.8-2.2c.6 0 1 .3 1.2.6v-2.4l.8.1zm-.7 3.6v-.3c-.1-.5-.5-.8-1.1-.8-.8 0-1.2.7-1.2 1.6 0 .8.4 1.5 1.2 1.5.5 0 .9-.3 1.1-.9v-1.1zM84.7 241.9c0 .9-.2 1.5-.6 1.9s-1 .5-1.5.5-1-.1-1.3-.3l.2-.6c.3.2.7.3 1.2.3.8 0 1.3-.4 1.3-1.4v-.4c-.2.4-.7.7-1.3.7-1 0-1.7-.9-1.7-2 0-1.4.9-2.1 1.8-2.1.7 0 1.1.4 1.3.7v-.6h.7v1.1l-.1 2.2zM84 240v-.3c-.1-.4-.5-.8-1-.8-.7 0-1.2.6-1.2 1.5 0 .8.4 1.5 1.2 1.5.5 0 .9-.3 1-.8 0-.1.1-.3.1-.4l-.1-.7zM85.9 236.5h.7v5.9h-.7v-5.9zM91.3 241.3v1.1h-.7v-.7c-.2.3-.6.8-1.3.8-.6 0-1.4-.4-1.4-1.8v-2.4h.7v2.2c0 .8.2 1.3.9 1.3.5 0 .8-.3 1-.7 0-.1.1-.2.1-.4v-2.5h.7v3.1z"/></g><path d="M95.4 242.3c-.2.1-.6.2-1.2.2-1.2 0-2-.8-2-2.1 0-1.2.9-2.2 2.2-2.2.4 0 .8.1 1 .2l-.2.6c-.2-.1-.5-.2-.9-.2-.9 0-1.4.7-1.4 1.5 0 .9.6 1.5 1.4 1.5.4 0 .7-.1.9-.2l.2.7z" class="st2"/><g class="st2"><path d="M99.9 240.4c0 1.5-1 2.1-2 2.1-1.1 0-1.9-.8-1.9-2.1s.9-2.1 2-2.1 1.9.9 1.9 2.1zm-3.3 0c0 .9.5 1.6 1.2 1.6s1.2-.7 1.2-1.6c0-.7-.3-1.5-1.2-1.5-.8 0-1.2.8-1.2 1.5zM100.7 241.7c.2.1.6.3 1 .3.5 0 .8-.3.8-.6 0-.4-.2-.5-.7-.7-.7-.3-1.1-.7-1.1-1.1 0-.7.5-1.2 1.4-1.2.4 0 .8.1 1 .2l-.2.5c-.2-.1-.5-.2-.8-.2-.4 0-.7.3-.7.6s.2.5.8.7c.7.3 1.1.6 1.1 1.2 0 .7-.6 1.2-1.5 1.2-.4 0-.9-.1-1.1-.3v-.6zM104.5 240.6c0 1 .6 1.4 1.4 1.4.5 0 .9-.1 1.1-.2l.1.5c-.3.1-.7.3-1.4.3-1.2 0-2-.8-2-2s.7-2.2 1.9-2.2c1.3 0 1.7 1.2 1.7 1.9v.3h-2.8zm2.2-.6c0-.5-.2-1.2-1-1.2s-1.1.7-1.1 1.2h2.1zM110.9 237.3c0 .3-.2.5-.5.5s-.4-.2-.4-.5.2-.5.5-.5c.2 0 .4.2.4.5zm-.9 5.2v-4h.7v4h-.7zM112 239.5v-1.1h.7v.7c.2-.4.7-.8 1.3-.8.6 0 1.4.3 1.4 1.7v2.4h-.7v-2.3c0-.7-.2-1.2-.9-1.2-.5 0-.9.3-1 .8 0 .1-.1.2-.1.3v2.4h-.7v-2.9z"/></g><g class="st2"><path d="M50.5 251.6c.2.1.7.3 1.2.3.9 0 1.2-.6 1.2-1.1 0-.8-.7-1.1-1.4-1.1h-.4v-.6h.4c.5 0 1.2-.3 1.2-.9 0-.4-.3-.8-1-.8-.4 0-.9.2-1.1.4l-.2-.5c.3-.2.8-.4 1.4-.4 1.1 0 1.6.6 1.6 1.3 0 .6-.3 1-1 1.3.7.1 1.2.6 1.2 1.4 0 .9-.7 1.6-2 1.6-.6 0-1.1-.2-1.4-.4l.3-.5zM58.2 249.7c0 1.8-.7 2.9-1.9 2.9-1.1 0-1.8-1-1.8-2.8s.8-2.8 1.9-2.8c1.2 0 1.8 1 1.8 2.7zm-2.9.1c0 1.4.4 2.2 1.1 2.2.7 0 1.1-.9 1.1-2.3 0-1.3-.3-2.2-1.1-2.2-.7 0-1.1.8-1.1 2.3z"/></g><g class="st2"><path d="M60.9 249.5v-1.1h.6v.7c.2-.4.6-.7 1.3-.7.5 0 1 .3 1.1.8.1-.2.3-.4.5-.5.2-.2.5-.3.9-.3.5 0 1.3.4 1.3 1.8v2.4H66v-2.3c0-.8-.3-1.2-.9-1.2-.4 0-.7.3-.9.7 0 .1-.1.2-.1.4v2.5h-.7v-2.4c0-.6-.3-1.1-.8-1.1s-.8.4-.9.7c0 .1-.1.2-.1.4v2.4h-.7v-3.2zM68.7 247.3c0 .3-.2.5-.5.5s-.4-.2-.4-.5.2-.5.5-.5c.2 0 .4.2.4.5zm-.8 5.2v-4h.7v4h-.7zM69.8 249.5v-1.1h.7v.7c.2-.4.7-.8 1.3-.8.6 0 1.4.3 1.4 1.7v2.4h-.7v-2.3c0-.7-.2-1.2-.9-1.2-.5 0-.9.3-1 .8 0 .1-.1.2-.1.3v2.4h-.7v-2.9zM77.9 251.4v1.1h-.7v-.7c-.2.3-.6.8-1.3.8-.6 0-1.4-.4-1.4-1.8v-2.4h.7v2.2c0 .8.2 1.3.9 1.3.5 0 .8-.3 1-.7 0-.1.1-.2.1-.4v-2.5h.7v3.1z"/></g><path d="M80 247.5v1h1v.6h-1v2.2c0 .5.1.8.6.8.2 0 .3 0 .4-.1v.6c-.1 0-.4.1-.7.1-.3 0-.6-.1-.8-.3-.2-.2-.3-.6-.3-1.1V249h-.6v-.6h.6v-.8l.8-.1z" class="st2"/><g class="st2"><path d="M82.2 250.6c0 1 .6 1.4 1.4 1.4.5 0 .9-.1 1.1-.2l.1.5c-.3.1-.7.3-1.4.3-1.2 0-2-.8-2-2s.7-2.2 1.9-2.2c1.3 0 1.7 1.2 1.7 1.9v.3h-2.8zm2.2-.5c0-.5-.2-1.2-1-1.2s-1.1.7-1.1 1.2h2.1zM85.9 251.7c.2.1.6.3 1 .3.5 0 .8-.3.8-.6 0-.4-.2-.5-.7-.7-.7-.3-1.1-.7-1.1-1.1 0-.6.5-1.2 1.4-1.2.4 0 .8.1 1 .3l-.2.5c-.2-.1-.5-.2-.8-.2-.4 0-.7.3-.7.6s.2.5.8.7c.7.3 1.1.6 1.1 1.2 0 .7-.6 1.2-1.5 1.2-.4 0-.9-.1-1.1-.3v-.7z"/></g><path class="st3" d="M2.9 211v57.1M4 268.7h131.1M135.7 267.6v-57.1M134.6 210H3.5M2.9000000000000057 268.7"/><path d="M15.9 315.3h-1.7v-.6h4.2v.6h-1.7v5H16l-.1-5zM18.6 317.6v-1.3h.6v.8c.2-.5.6-.9 1.1-.9h.2v.7h-.3c-.5 0-.9.4-1 .9v2.5h-.7l.1-2.7zM21.6 318.5c0 1 .6 1.4 1.4 1.4.5 0 .9-.1 1.1-.2l.1.5c-.3.1-.7.3-1.4.3-1.2 0-2-.8-2-2s.7-2.2 1.9-2.2c1.3 0 1.7 1.2 1.7 1.9v.3h-2.8zm2.2-.6c0-.5-.2-1.2-1-1.2s-1.1.7-1.1 1.2h2.1zM28.2 319.4c0 .3 0 .7.1 1h-.7l-.1-.5c-.2.3-.7.6-1.2.6-.8 0-1.2-.6-1.2-1.2 0-1 .9-1.5 2.4-1.5v-.1c0-.3-.1-.9-.9-.9-.4 0-.8.1-1.1.3l-.2-.5c.3-.2.8-.4 1.3-.4 1.2 0 1.5.8 1.5 1.6.1.1.1 1.6.1 1.6zm-.7-1.1c-.8 0-1.7.1-1.7.9 0 .5.3.7.7.7.5 0 .9-.3 1-.7V318.3z" class="st2"/><g class="st2"><path d="M30.3 315.3v1h1.1v.6h-1.1v2.2c0 .5.1.8.6.8.2 0 .3 0 .4-.1v.6c-.1.1-.4.1-.7.1-.3 0-.6-.1-.8-.3-.2-.2-.3-.6-.3-1.1v-2.2h-.6v-.6h.6v-.8l.8-.2zM36.8 319.4c0 .3 0 .7.1 1h-.7l-.1-.5c-.2.3-.7.6-1.2.6-.8 0-1.2-.6-1.2-1.2 0-1 .9-1.5 2.4-1.5v-.1c0-.3-.1-.9-.9-.9-.4 0-.8.1-1.1.3l-.2-.5c.3-.2.8-.4 1.3-.4 1.2 0 1.5.8 1.5 1.6l.1 1.6zm-.7-1.1c-.8 0-1.7.1-1.7.9 0 .5.3.7.7.7.5 0 .9-.3 1-.7V318.3zM37.9 319.6c.2.1.6.3 1 .3.5 0 .8-.3.8-.6 0-.4-.2-.5-.7-.7-.7-.3-1.1-.7-1.1-1.1 0-.7.5-1.2 1.4-1.2.4 0 .8.1 1 .2l-.3.5c-.2-.1-.5-.2-.8-.2-.4 0-.7.3-.7.6s.2.5.8.7c.7.3 1.1.6 1.1 1.2 0 .7-.6 1.2-1.5 1.2-.4 0-.9-.1-1.1-.3l.1-.6z"/></g><path d="M43.1 320.3v-3.5h-.6v-.6h.6v-.2c0-.6.1-1.1.5-1.4.3-.3.6-.4 1-.4.3 0 .5.1.6.1l-.1.6c-.1 0-.2-.1-.5-.1-.6 0-.8.5-.8 1.2v.2h1v.6h-1v3.5h-.7z" class="st2"/><g class="st2"><path d="M49.1 318.3c0 1.5-1 2.1-2 2.1-1.1 0-1.9-.8-1.9-2.1s.9-2.1 2-2.1 1.9.9 1.9 2.1zm-3.2 0c0 .9.5 1.6 1.2 1.6s1.2-.7 1.2-1.6c0-.7-.3-1.5-1.2-1.5s-1.2.8-1.2 1.5zM50 317.6v-1.3h.6v.8c.2-.5.6-.9 1.1-.9h.2v.7h-.3c-.5 0-.9.4-1 .9v2.5H50v-2.7zM54.4 319.6c.2.1.6.3 1 .3.5 0 .8-.3.8-.6 0-.4-.2-.5-.7-.7-.7-.3-1.1-.7-1.1-1.1 0-.7.5-1.2 1.4-1.2.4 0 .8.1 1 .2l-.2.5c-.2-.1-.5-.2-.8-.2-.4 0-.7.3-.7.6s.2.5.8.7c.7.3 1.1.6 1.1 1.2 0 .7-.6 1.2-1.5 1.2-.4 0-.9-.1-1.1-.3v-.6zM58.2 318.5c0 1 .6 1.4 1.4 1.4.5 0 .9-.1 1.1-.2l.1.5c-.3.1-.7.3-1.4.3-1.2 0-2-.8-2-2s.7-2.2 1.9-2.2c1.3 0 1.7 1.2 1.7 1.9v.3h-2.8zm2.2-.6c0-.5-.2-1.2-1-1.2s-1.1.7-1.1 1.2h2.1z"/></g><path d="M62.3 316.3l.8 2.3c.1.4.2.7.3 1 .1-.3.2-.7.3-1l.8-2.3h.8l-1.6 4H63l-1.5-4h.8zM66.3 318.5c0 1 .6 1.4 1.4 1.4.5 0 .9-.1 1.1-.2l.1.5c-.3.1-.7.3-1.4.3-1.2 0-2-.8-2-2s.7-2.2 1.9-2.2c1.3 0 1.7 1.2 1.7 1.9v.3h-2.8zm2.2-.6c0-.5-.2-1.2-1-1.2s-1.1.7-1.1 1.2h2.1zM70.1 317.6v-1.3h.6v.8c.2-.5.6-.9 1.1-.9h.2v.7h-.3c-.5 0-.9.4-1 .9v2.5H70l.1-2.7zM73.2 318.5c0 1 .6 1.4 1.4 1.4.5 0 .9-.1 1.1-.2l.1.5c-.3.1-.7.3-1.4.3-1.2 0-2-.8-2-2s.7-2.2 1.9-2.2c1.3 0 1.7 1.2 1.7 1.9v.3h-2.8zm2.1-.6c0-.5-.2-1.2-1-1.2s-1.1.7-1.1 1.2h2.1zM19.2 324.4h.8v2.5c.1-.2.3-.4.5-.5s.5-.2.8-.2c.5 0 1.4.3 1.4 1.7v2.4H22V328c0-.6-.2-1.2-.9-1.2-.5 0-.8.3-1 .7v2.8h-.7c-.2.1-.2-5.9-.2-5.9z" class="st2"/><g class="st2"><path d="M24 326.3l.9 2.4c.1.3.2.6.3.8.1-.2.2-.6.3-.8l.8-2.4h.7l-1.1 2.9c-.5 1.4-.9 2.1-1.4 2.5-.4.3-.7.4-.9.5l-.2-.6c.2-.1.4-.2.6-.4.2-.2.4-.4.6-.8 0-.1.1-.1.1-.2 0 0 0-.1-.1-.2l-1.5-3.7h.9zM27.7 327.7v-1.3h.7v.7c.3-.5.8-.8 1.4-.8 1 0 1.7.8 1.7 2 0 1.5-.9 2.2-1.8 2.2-.5 0-1-.2-1.2-.6v2.2h-.7l-.1-4.4zm.7 1v.3c.1.5.6.9 1.1.9.8 0 1.2-.6 1.2-1.6 0-.8-.4-1.5-1.2-1.5-.5 0-1 .4-1.1.9 0 .1-.1.2-.1.3l.1.7zM36.1 328.3c0 1.5-1 2.1-2 2.1-1.1 0-1.9-.8-1.9-2.1s.9-2.1 2-2.1 1.9.9 1.9 2.1zm-3.2.1c0 .9.5 1.6 1.2 1.6s1.2-.7 1.2-1.6c0-.7-.3-1.5-1.2-1.5-.8-.1-1.2.7-1.2 1.5zM40.5 329.8c0 .9-.2 1.5-.6 1.9-.4.4-1 .5-1.5.5s-1-.1-1.3-.3l.2-.6c.3.2.7.3 1.2.3.8 0 1.3-.4 1.3-1.4v-.4c-.2.4-.7.7-1.3.7-1 0-1.7-.9-1.7-2 0-1.4.9-2.1 1.8-2.1.7 0 1.1.4 1.3.7v-.6h.7v1.1l-.1 2.2zm-.7-1.9v-.3c-.1-.4-.5-.8-1-.8-.7 0-1.2.6-1.2 1.5 0 .8.4 1.5 1.2 1.5.5 0 .9-.3 1-.8 0-.1.1-.3.1-.4l-.1-.7zM41.7 324.4h.7v5.9h-.7v-5.9z"/></g><path d="M43.9 326.3l.9 2.4c.1.3.2.6.3.8.1-.2.2-.6.3-.8l.8-2.4h.8l-1.1 2.9c-.5 1.4-.9 2.1-1.4 2.5-.4.3-.7.4-.9.5l-.2-.6c.2-.1.4-.2.6-.4.2-.2.4-.4.6-.8 0-.1.1-.1.1-.2 0 0 0-.1-.1-.2l-1.5-3.7h.8z" class="st2"/><g class="st2"><path d="M50.4 330.2c-.2.1-.6.2-1.2.2-1.2 0-2-.8-2-2.1 0-1.2.9-2.2 2.2-2.2.4 0 .8.1 1 .2l-.2.6c-.2-.1-.5-.2-.9-.2-.9 0-1.4.7-1.4 1.5 0 .9.6 1.5 1.4 1.5.4 0 .7-.1.9-.2l.2.7zM54.1 329.4c0 .4 0 .7.1 1h-.7l-.1-.5c-.2.3-.7.6-1.2.6-.8 0-1.2-.6-1.2-1.2 0-1 .9-1.5 2.4-1.5v-.1c0-.3-.1-.9-.9-.9-.4 0-.8.1-1.1.3l-.2-.5c.3-.2.8-.3 1.3-.3 1.2 0 1.5.8 1.5 1.6v1.5h.1zm-.7-1.1c-.8 0-1.7.1-1.7.9 0 .5.3.7.7.7.5 0 .9-.3 1-.7V328.3zM55.7 328.5c0 1 .6 1.4 1.4 1.4.5 0 .9-.1 1.1-.2l.1.5c-.3.1-.7.3-1.4.3-1.2 0-2-.8-2-2s.7-2.2 1.9-2.2c1.3 0 1.7 1.2 1.7 1.9v.3h-2.8zm2.2-.5c0-.5-.2-1.2-1-1.2s-1.1.7-1.1 1.2h2.1zM59.5 327.4v-1.1h.6v.7c.2-.4.6-.7 1.3-.7.5 0 1 .3 1.1.8.1-.2.3-.4.5-.5.2-.2.5-.3.9-.3.5 0 1.3.4 1.3 1.8v2.4h-.7v-2.3c0-.8-.3-1.2-.9-1.2-.4 0-.7.3-.9.7 0 .1-.1.2-.1.4v2.5H62V328c0-.6-.3-1.1-.8-1.1s-.8.4-.9.7c0 .1-.1.2-.1.4v2.4h-.7v-3zM67.3 325.2c0 .3-.2.4-.5.4s-.4-.2-.4-.4c0-.3.2-.5.5-.5.2 0 .4.2.4.5zm-.8 5.2v-4h.7v4h-.7zM71.3 329.4c0 .4 0 .7.1 1h-.7l-.1-.5c-.2.3-.7.6-1.2.6-.8 0-1.2-.6-1.2-1.2 0-1 .9-1.5 2.4-1.5v-.1c0-.3-.1-.9-.9-.9-.4 0-.8.1-1.1.3l-.2-.5c.3-.2.8-.3 1.3-.3 1.2 0 1.5.8 1.5 1.6l.1 1.5zm-.7-1.1c-.8 0-1.7.1-1.7.9 0 .5.3.7.7.7.5 0 .9-.3 1-.7V328.3z"/></g><path class="st3" d="M2.9 293.9v57.2M4 351.6h83M87.5 350.5v-57.1M86.5 292.9h-83M2.9000000000000057 351.59999999999997"/><g class="st2"><path d="M126 313.1c0-.5.4-.9.9-.9s.9.4.9.9-.4.9-.9.9-.9-.4-.9-.9zM130.5 315.3v-5.6h.8l1.8 2.9c.4.7.7 1.3 1 1.8-.1-.8-.1-1.4-.1-2.3v-2.4h.7v5.6h-.7l-1.8-2.9c-.4-.6-.8-1.3-1-1.9 0 .7.1 1.4.1 2.3v2.4l-.8.1zM139.6 313.3c0 1.5-1 2.1-2 2.1-1.1 0-1.9-.8-1.9-2.1s.9-2.1 2-2.1 1.9.8 1.9 2.1zm-3.2 0c0 .9.5 1.6 1.2 1.6s1.2-.7 1.2-1.6c0-.7-.3-1.5-1.2-1.5-.8 0-1.2.8-1.2 1.5z"/></g><path d="M140.5 312.5v-1.3h.6v.8c.2-.5.6-.9 1.1-.9h.2v.7h-.3c-.5 0-.9.4-1 .9v2.5h-.7l.1-2.7z" class="st2"/><g class="st2"><path d="M143.3 312.4v-1.1h.6v.7c.2-.4.6-.7 1.3-.7.5 0 1 .3 1.1.8.1-.2.3-.4.5-.5.2-.2.5-.3.9-.3.5 0 1.3.4 1.3 1.8v2.4h-.7v-2.3c0-.8-.3-1.2-.9-1.2-.4 0-.7.3-.9.7 0 .1-.1.2-.1.4v2.5h-.7v-2.4c0-.6-.3-1.1-.8-1.1s-.8.4-.9.7c0 .1-.1.2-.1.4v2.4h-.7l.1-3.2zM153.1 314.4c0 .3 0 .7.1 1h-.7l-.1-.5c-.2.3-.7.6-1.2.6-.8 0-1.2-.6-1.2-1.2 0-1 .9-1.5 2.4-1.5v-.1c0-.3-.1-.9-.9-.9-.4 0-.8.1-1.1.3l-.2-.5c.3-.2.8-.4 1.3-.4 1.2 0 1.5.8 1.5 1.6l.1 1.6zm-.7-1.1c-.8 0-1.7.1-1.7.9 0 .5.3.7.7.7.5 0 .9-.3 1-.7V313.3zM154.3 309.4h.7v5.9h-.7v-5.9z"/></g><path d="M158.1 315.3v-3.5h-.6v-.6h.6v-.2c0-.6.1-1.1.5-1.4.3-.3.6-.4 1-.4.3 0 .5.1.6.1l-.1.6c-.1-.1-.3-.1-.5-.1-.6 0-.8.5-.8 1.2v.2h1v.6h-1v3.5h-.7z" class="st2"/><g class="st2"><path d="M160.8 313.4c0 1 .6 1.4 1.4 1.4.5 0 .9-.1 1.1-.2l.1.5c-.3.1-.7.3-1.4.3-1.2 0-2-.8-2-2s.7-2.2 1.9-2.2c1.3 0 1.7 1.2 1.7 1.9v.3h-2.8zm2.1-.5c0-.5-.2-1.2-1-1.2s-1.1.7-1.1 1.2h2.1zM165 313.4c0 1 .6 1.4 1.4 1.4.5 0 .9-.1 1.1-.2l.1.5c-.3.1-.7.3-1.4.3-1.2 0-2-.8-2-2s.7-2.2 1.9-2.2c1.3 0 1.7 1.2 1.7 1.9v.3H165zm2.1-.5c0-.5-.2-1.2-1-1.2s-1.1.7-1.1 1.2h2.1zM172.2 309.4v5.9h-.7v-.7c-.2.5-.7.8-1.4.8-1 0-1.7-.8-1.7-2.1s.8-2.2 1.8-2.2c.6 0 1 .3 1.2.6v-2.4l.8.1zm-.7 3.5v-.3c-.1-.5-.5-.8-1.1-.8-.8 0-1.2.7-1.2 1.6 0 .8.4 1.5 1.2 1.5.5 0 .9-.3 1.1-.9v-1.1zM173.4 314.6c.2.1.6.3 1 .3.5 0 .8-.3.8-.6 0-.4-.2-.5-.7-.7-.7-.3-1.1-.7-1.1-1.1 0-.7.5-1.2 1.4-1.2.4 0 .8.1 1 .2l-.2.5c-.2-.1-.5-.2-.8-.2-.4 0-.7.3-.7.6s.2.5.8.7c.7.3 1.1.6 1.1 1.2 0 .7-.6 1.2-1.5 1.2-.4 0-.9-.1-1.1-.3v-.6z"/></g><path d="M123.1 323.2c0-.5.4-.9.9-.9s.9.4.9.9-.4.9-.9.9c-.5-.1-.9-.4-.9-.9zM132.3 322.9c0-.8-.1-1.7-.1-2.4-.2.7-.4 1.4-.7 2.1l-1 2.7h-.5l-.9-2.7c-.3-.8-.5-1.5-.6-2.2 0 .7-.1 1.6-.1 2.5l-.1 2.4h-.7l.4-5.6h.9l1 2.7c.2.7.4 1.3.6 1.9.2-.6.4-1.2.6-1.9l1-2.7h.9l.4 5.6h-.7l-.4-2.4z" class="st2"/><g class="st2"><path d="M134.7 323.5c0 1 .6 1.4 1.4 1.4.5 0 .9-.1 1.1-.2l.1.5c-.3.1-.7.3-1.4.3-1.2 0-2-.8-2-2s.7-2.2 1.9-2.2c1.3 0 1.7 1.2 1.7 1.9v.3h-2.8zm2.2-.6c0-.5-.2-1.2-1-1.2s-1.1.7-1.1 1.2h2.1zM141.4 324.4c0 .4 0 .7.1 1h-.7l-.1-.5c-.2.3-.7.6-1.2.6-.8 0-1.2-.6-1.2-1.2 0-1 .9-1.5 2.4-1.5v-.1c0-.3-.1-.9-.9-.9-.4 0-.8.1-1.1.3l-.2-.5c.3-.2.8-.4 1.3-.4 1.2 0 1.5.8 1.5 1.6l.1 1.6zm-.8-1.1c-.8 0-1.7.1-1.7.9 0 .5.3.7.7.7.5 0 .9-.3 1-.7V323.3zM142.4 324.6c.2.1.6.3 1 .3.5 0 .8-.3.8-.6 0-.4-.2-.5-.7-.7-.7-.3-1.1-.7-1.1-1.1 0-.7.5-1.2 1.4-1.2.4 0 .8.1 1 .2l-.2.5c-.2-.1-.5-.2-.8-.2-.4 0-.7.3-.7.6s.2.5.8.7c.7.3 1.1.6 1.1 1.2 0 .7-.6 1.2-1.5 1.2-.4 0-.9-.1-1.1-.3v-.6zM149.2 324.3v1.1h-.7v-.7c-.2.3-.6.8-1.3.8-.6 0-1.4-.4-1.4-1.8v-2.4h.7v2.2c0 .8.2 1.3.9 1.3.5 0 .8-.3 1-.7 0-.1.1-.2.1-.4v-2.5h.7v3.1z"/></g><path d="M150.5 322.6v-1.3h.6v.8c.2-.5.6-.9 1.1-.9h.2v.7h-.3c-.5 0-.9.4-1 .9v2.5h-.7l.1-2.7z" class="st2"/><g class="st2"><path d="M153.5 323.5c0 1 .6 1.4 1.4 1.4.5 0 .9-.1 1.1-.2l.1.5c-.3.1-.7.3-1.4.3-1.2 0-2-.8-2-2s.7-2.2 1.9-2.2c1.3 0 1.7 1.2 1.7 1.9v.3h-2.8zm2.2-.6c0-.5-.2-1.2-1-1.2s-1.1.7-1.1 1.2h2.1zM159.1 319.4h.7v2.5c.3-.4.7-.7 1.4-.7 1 0 1.7.8 1.7 2.1 0 1.4-.9 2.2-1.8 2.2-.6 0-1.1-.2-1.4-.8v.7h-.7v-6h.1zm.7 4.3v.3c.1.5.6.9 1.1.9.8 0 1.2-.6 1.2-1.6 0-.8-.4-1.5-1.2-1.5-.5 0-1 .4-1.1.9v1zM163.8 319.4h.7v5.9h-.7v-5.9zM169.5 323.3c0 1.5-1 2.1-2 2.1-1.1 0-1.9-.8-1.9-2.1s.9-2.1 2-2.1 1.9.9 1.9 2.1zm-3.2 0c0 .9.5 1.6 1.2 1.6s1.2-.7 1.2-1.6c0-.7-.3-1.5-1.2-1.5s-1.2.8-1.2 1.5zM174 323.3c0 1.5-1 2.1-2 2.1-1.1 0-1.9-.8-1.9-2.1s.9-2.1 2-2.1c1.2 0 1.9.9 1.9 2.1zm-3.2 0c0 .9.5 1.6 1.2 1.6s1.2-.7 1.2-1.6c0-.7-.3-1.5-1.2-1.5-.8 0-1.2.8-1.2 1.5zM178.5 319.4v5.9h-.7v-.7c-.2.5-.7.8-1.4.8-1 0-1.7-.8-1.7-2.1s.8-2.2 1.8-2.2c.6 0 1 .3 1.2.6v-2.4l.8.1zm-.8 3.6v-.3c-.1-.5-.5-.8-1.1-.8-.8 0-1.2.7-1.2 1.6 0 .8.4 1.5 1.2 1.5.5 0 .9-.3 1.1-.9V323z"/></g><g class="st2"><path d="M126.3 334.8c0 .9-.2 1.5-.6 1.9s-1 .5-1.5.5-1-.1-1.3-.3l.2-.6c.3.2.7.3 1.2.3.8 0 1.3-.4 1.3-1.4v-.4c-.2.4-.7.7-1.3.7-1 0-1.7-.9-1.7-2 0-1.4.9-2.1 1.8-2.1.7 0 1.1.4 1.3.7v-.6h.7v1.1l-.1 2.2zm-.7-1.9v-.3c-.1-.4-.5-.8-1-.8-.7 0-1.2.6-1.2 1.5 0 .8.4 1.5 1.2 1.5.5 0 .9-.3 1-.8 0-.1.1-.3.1-.4l-.1-.7zM127.5 329.5h.7v5.9h-.7v-5.9zM132.9 334.3v1.1h-.7v-.7c-.2.3-.6.8-1.3.8-.6 0-1.4-.4-1.4-1.8v-2.4h.7v2.2c0 .8.2 1.3.9 1.3.5 0 .8-.3 1-.7 0-.1.1-.2.1-.4v-2.5h.7v3.1z"/></g><path d="M137 335.2c-.2.1-.6.2-1.2.2-1.2 0-2-.8-2-2.1 0-1.2.9-2.2 2.2-2.2.4 0 .8.1 1 .2l-.2.6c-.2-.1-.5-.2-.9-.2-.9 0-1.4.7-1.4 1.5 0 .9.6 1.5 1.4 1.5.4 0 .7-.1.9-.2l.2.7z" class="st2"/><g class="st2"><path d="M141.5 333.3c0 1.5-1 2.1-2 2.1-1.1 0-1.9-.8-1.9-2.1s.9-2.1 2-2.1c1.1.1 1.9.9 1.9 2.1zm-3.2.1c0 .9.5 1.6 1.2 1.6s1.2-.7 1.2-1.6c0-.7-.3-1.5-1.2-1.5-.9-.1-1.2.7-1.2 1.5zM142.3 334.6c.2.1.6.3 1 .3.5 0 .8-.3.8-.6 0-.4-.2-.5-.7-.7-.7-.3-1.1-.7-1.1-1.1 0-.7.5-1.2 1.4-1.2.4 0 .8.1 1 .3l-.2.5c-.2-.1-.5-.2-.8-.2-.4 0-.7.2-.7.6 0 .3.2.5.8.7.7.3 1.1.6 1.1 1.2 0 .7-.6 1.2-1.5 1.2-.4 0-.9-.1-1.1-.3v-.7zM146.1 333.5c0 1 .6 1.4 1.4 1.4.5 0 .9-.1 1.1-.2l.1.5c-.3.1-.7.3-1.4.3-1.2 0-2-.8-2-2s.7-2.2 1.9-2.2c1.3 0 1.7 1.2 1.7 1.9v.3h-2.8zm2.2-.5c0-.5-.2-1.2-1-1.2s-1.1.7-1.1 1.2h2.1zM151.6 334.6c.2.1.7.3 1.2.3.9 0 1.2-.6 1.2-1.1 0-.8-.7-1.1-1.4-1.1h-.4v-.6h.4c.5 0 1.2-.3 1.2-.9 0-.4-.3-.8-1-.8-.4 0-.9.2-1.1.4l-.2-.5c.3-.2.8-.4 1.4-.4 1.1 0 1.6.6 1.6 1.3 0 .6-.3 1-1 1.3.7.1 1.2.6 1.2 1.4 0 .9-.7 1.6-2 1.6-.6 0-1.1-.2-1.4-.4l.3-.5zM157.7 329.5h.7v2.5c.1-.2.3-.4.5-.5s.5-.2.8-.2c.5 0 1.4.3 1.4 1.7v2.4h-.7v-2.3c0-.6-.2-1.2-.9-1.2-.5 0-.8.3-1 .7 0 .1-.1.2-.1.4v2.4h-.7v-5.9zM166 333.3c0 1.5-1 2.1-2 2.1-1.1 0-1.9-.8-1.9-2.1s.9-2.1 2-2.1c1.1.1 1.9.9 1.9 2.1zm-3.2.1c0 .9.5 1.6 1.2 1.6s1.2-.7 1.2-1.6c0-.7-.3-1.5-1.2-1.5-.8-.1-1.2.7-1.2 1.5zM170.3 334.3v1.1h-.7v-.7c-.2.3-.6.8-1.3.8-.6 0-1.4-.4-1.4-1.8v-2.4h.7v2.2c0 .8.2 1.3.9 1.3.5 0 .8-.3 1-.7 0-.1.1-.2.1-.4v-2.5h.7v3.1z"/></g><path d="M171.5 332.6v-1.3h.6v.8c.2-.5.6-.9 1.1-.9h.2v.7h-.3c-.5 0-.9.4-1 .9v2.5h-.7l.1-2.7z" class="st2"/><g class="st2"><path d="M174.3 329.5h.7v5.9h-.7v-5.9zM176.5 331.3l.9 2.4c.1.3.2.6.3.8.1-.2.2-.6.3-.8l.8-2.4h.8l-1.1 2.9c-.5 1.4-.9 2.1-1.4 2.5-.4.3-.7.4-.9.5l-.2-.6c.2-.1.4-.2.6-.4.2-.2.4-.4.6-.8 0-.1.1-.1.1-.2 0 0 0-.1-.1-.2l-1.5-3.7h.8z"/></g><path class="st3" d="M105.8 293.9v57.2M106.9 351.6h88.6M196 350.5v-57.1M195 292.9h-88.6M105.8 351.59999999999997"/><path d="M233.3 313.1c0-.5.4-.9.9-.9s.9.4.9.9-.4.9-.9.9-.9-.4-.9-.9zM237.7 314.4c.3.2.8.4 1.3.4.7 0 1.2-.4 1.2-1 0-.5-.3-.8-1.1-1.1-.9-.3-1.5-.8-1.5-1.6 0-.9.7-1.5 1.8-1.5.6 0 1 .1 1.2.3l-.2.6c-.2-.1-.6-.3-1.1-.3-.8 0-1.1.5-1.1.8 0 .5.3.8 1.1 1.1 1 .4 1.4.8 1.4 1.7 0 .9-.6 1.6-2 1.6-.5 0-1.1-.2-1.4-.4l.4-.6z" class="st2"/><g class="st2"><path d="M242.7 310.3v1h1.1v.6h-1.1v2.2c0 .5.1.8.6.8.2 0 .3 0 .4-.1v.6c-.1 0-.4.1-.7.1s-.6-.1-.8-.3c-.2-.2-.3-.6-.3-1.1v-2.2h-.6v-.6h.6v-.8l.8-.2zM247.4 314.4c0 .3 0 .7.1 1h-.7l-.1-.5c-.2.3-.7.6-1.2.6-.8 0-1.2-.6-1.2-1.2 0-1 .9-1.5 2.4-1.5v-.1c0-.3-.1-.9-.9-.9-.4 0-.8.1-1.1.3l-.2-.5c.3-.2.8-.4 1.3-.4 1.2 0 1.5.8 1.5 1.6l.1 1.6zm-.7-1.1c-.8 0-1.7.1-1.7.9 0 .5.3.7.7.7.5 0 .9-.3 1-.7V313.3z"/></g><path d="M248.6 312.5v-1.3h.6v.8c.2-.5.6-.9 1.1-.9h.2v.7h-.2c-.5 0-.9.4-1 .9v2.5h-.7v-2.7z" class="st2"/><g class="st2"><path d="M252.5 310.3v1h1.1v.6h-1.1v2.2c0 .5.1.8.6.8.2 0 .3 0 .4-.1v.6c-.1 0-.4.1-.7.1s-.6-.1-.8-.3c-.2-.2-.3-.6-.3-1.1v-2.2h-.6v-.6h.6v-.8l.8-.2zM256.1 312.4v-1.1h.6v.7c.2-.4.6-.7 1.3-.7.5 0 1 .3 1.1.8.1-.2.3-.4.5-.5.2-.2.5-.3.9-.3.5 0 1.3.4 1.3 1.8v2.4h-.7v-2.3c0-.8-.3-1.2-.9-1.2-.4 0-.7.3-.9.7 0 .1-.1.2-.1.4v2.5h-.7v-2.4c0-.6-.3-1.1-.8-1.1s-.8.4-.9.7c0 .1-.1.2-.1.4v2.4h-.7v-3.2h.1zM263.9 310.2c0 .2-.2.5-.5.5s-.4-.2-.4-.5.2-.5.5-.5c.2 0 .4.2.4.5zm-.8 5.1v-4h.7v4h-.7zM265 309.4h.7v5.9h-.7v-5.9zM267.7 313.1c.1-.1.3-.3.4-.5l1.2-1.4h.9l-1.6 1.7 1.8 2.4h-.9l-1.4-1.9-.4.4v1.5h-.7v-5.9h.7v3.7z"/></g><path d="M272.8 315.3v-3.5h-.6v-.6h.6v-.2c0-.6.1-1.1.5-1.4.3-.3.6-.4 1-.4.3 0 .5.1.6.1l-.1.6c-.1-.1-.3-.1-.5-.1-.6 0-.8.5-.8 1.2v.2h1v.6h-1v3.5h-.7z" class="st2"/><g class="st2"><path d="M275.4 313.4c0 1 .6 1.4 1.4 1.4.5 0 .9-.1 1.1-.2l.1.5c-.3.1-.7.3-1.4.3-1.2 0-2-.8-2-2s.7-2.2 1.9-2.2c1.3 0 1.7 1.2 1.7 1.9v.3h-2.8zm2.2-.5c0-.5-.2-1.2-1-1.2s-1.1.7-1.1 1.2h2.1zM279.6 313.4c0 1 .6 1.4 1.4 1.4.5 0 .9-.1 1.1-.2l.1.5c-.3.1-.7.3-1.4.3-1.2 0-2-.8-2-2s.7-2.2 1.9-2.2c1.3 0 1.7 1.2 1.7 1.9v.3h-2.8zm2.2-.5c0-.5-.2-1.2-1-1.2s-1.1.7-1.1 1.2h2.1zM286.9 309.4v5.9h-.7v-.7c-.2.5-.7.8-1.4.8-1 0-1.7-.8-1.7-2.1s.8-2.2 1.8-2.2c.6 0 1 .3 1.2.6v-2.4l.8.1zm-.7 3.5v-.3c-.1-.5-.5-.8-1.1-.8-.8 0-1.2.7-1.2 1.6 0 .8.4 1.5 1.2 1.5.5 0 .9-.3 1.1-.9v-1.1zM288 314.6c.2.1.6.3 1 .3.5 0 .8-.3.8-.6 0-.4-.2-.5-.7-.7-.7-.3-1.1-.7-1.1-1.1 0-.7.5-1.2 1.4-1.2.4 0 .8.1 1 .2l-.2.5c-.2-.1-.5-.2-.8-.2-.4 0-.7.3-.7.6s.2.5.8.7c.7.3 1.1.6 1.1 1.2 0 .7-.6 1.2-1.5 1.2-.4 0-.9-.1-1.1-.3v-.6z"/></g><path d="M234.1 323.2c0-.5.4-.9.9-.9s.9.4.9.9-.4.9-.9.9c-.5-.1-.9-.4-.9-.9zM243.3 322.9c0-.8-.1-1.7-.1-2.4-.2.7-.4 1.4-.7 2.1l-1 2.7h-.6l-.9-2.7c-.3-.8-.5-1.5-.6-2.2 0 .7-.1 1.6-.1 2.5l-.2 2.4h-.7l.4-5.6h.9l1 2.7c.2.7.4 1.3.6 1.9.2-.6.4-1.2.6-1.9l1-2.7h.9l.4 5.6h-.7l-.2-2.4z" class="st2"/><g class="st2"><path d="M245.7 323.5c0 1 .6 1.4 1.4 1.4.5 0 .9-.1 1.1-.2l.1.5c-.3.1-.7.3-1.4.3-1.2 0-2-.8-2-2s.7-2.2 1.9-2.2c1.3 0 1.7 1.2 1.7 1.9v.3h-2.8zm2.2-.6c0-.5-.2-1.2-1-1.2s-1.1.7-1.1 1.2h2.1zM252.3 324.4c0 .4 0 .7.1 1h-.7l-.1-.5c-.2.3-.7.6-1.2.6-.8 0-1.2-.6-1.2-1.2 0-1 .9-1.5 2.4-1.5v-.1c0-.3-.1-.9-.9-.9-.4 0-.8.1-1.1.3l-.2-.5c.3-.2.8-.4 1.3-.4 1.2 0 1.5.8 1.5 1.6l.1 1.6zm-.7-1.1c-.8 0-1.7.1-1.7.9 0 .5.3.7.7.7.5 0 .9-.3 1-.7V323.3zM253.4 324.6c.2.1.6.3 1 .3.5 0 .8-.3.8-.6 0-.4-.2-.5-.7-.7-.7-.3-1.1-.7-1.1-1.1 0-.7.5-1.2 1.4-1.2.4 0 .8.1 1 .2l-.2.5c-.2-.1-.5-.2-.8-.2-.4 0-.7.3-.7.6s.2.5.8.7c.7.3 1.1.6 1.1 1.2 0 .7-.6 1.2-1.5 1.2-.4 0-.9-.1-1.1-.3v-.6zM260.2 324.3v1.1h-.7v-.7c-.2.3-.6.8-1.3.8-.6 0-1.4-.4-1.4-1.8v-2.4h.7v2.2c0 .8.2 1.3.9 1.3.5 0 .8-.3 1-.7 0-.1.1-.2.1-.4v-2.5h.7v3.1z"/></g><path d="M261.4 322.6v-1.3h.6v.8c.2-.5.6-.9 1.1-.9h.2v.7h-.3c-.5 0-.9.4-1 .9v2.5h-.7l.1-2.7z" class="st2"/><g class="st2"><path d="M264.5 323.5c0 1 .6 1.4 1.4 1.4.5 0 .9-.1 1.1-.2l.1.5c-.3.1-.7.3-1.4.3-1.2 0-2-.8-2-2s.7-2.2 1.9-2.2c1.3 0 1.7 1.2 1.7 1.9v.3h-2.8zm2.1-.6c0-.5-.2-1.2-1-1.2s-1.1.7-1.1 1.2h2.1zM270 319.4h.7v2.5c.3-.4.7-.7 1.4-.7 1 0 1.7.8 1.7 2.1 0 1.4-.9 2.2-1.8 2.2-.6 0-1.1-.2-1.4-.8v.7h-.6v-6zm.8 4.3v.3c.1.5.6.9 1.1.9.8 0 1.2-.6 1.2-1.6 0-.8-.4-1.5-1.2-1.5-.5 0-1 .4-1.1.9v1zM274.8 319.4h.7v5.9h-.7v-5.9zM280.4 323.3c0 1.5-1 2.1-2 2.1-1.1 0-1.9-.8-1.9-2.1s.9-2.1 2-2.1 1.9.9 1.9 2.1zm-3.2 0c0 .9.5 1.6 1.2 1.6s1.2-.7 1.2-1.6c0-.7-.3-1.5-1.2-1.5-.8 0-1.2.8-1.2 1.5zM285 323.3c0 1.5-1 2.1-2 2.1-1.1 0-1.9-.8-1.9-2.1s.9-2.1 2-2.1 1.9.9 1.9 2.1zm-3.2 0c0 .9.5 1.6 1.2 1.6s1.2-.7 1.2-1.6c0-.7-.3-1.5-1.2-1.5-.8 0-1.2.8-1.2 1.5zM289.4 319.4v5.9h-.7v-.7c-.2.5-.7.8-1.4.8-1 0-1.7-.8-1.7-2.1s.8-2.2 1.8-2.2c.6 0 1 .3 1.2.6v-2.4l.8.1zm-.7 3.6v-.3c-.1-.5-.5-.8-1.1-.8-.8 0-1.2.7-1.2 1.6 0 .8.4 1.5 1.2 1.5.5 0 .9-.3 1.1-.9V323z"/></g><g class="st2"><path d="M240.3 334.8c0 .9-.2 1.5-.6 1.9-.4.4-1 .5-1.5.5s-1-.1-1.3-.3l.2-.6c.3.2.7.3 1.2.3.8 0 1.3-.4 1.3-1.4v-.4c-.2.4-.7.7-1.3.7-1 0-1.7-.9-1.7-2 0-1.4.9-2.1 1.8-2.1.7 0 1.1.4 1.3.7v-.6h.7v1.1l-.1 2.2zm-.7-1.9v-.3c-.1-.4-.5-.8-1-.8-.7 0-1.2.6-1.2 1.5 0 .8.4 1.5 1.2 1.5.5 0 .9-.3 1-.8 0-.1.1-.3.1-.4l-.1-.7zM241.5 329.5h.7v5.9h-.7v-5.9zM246.9 334.3v1.1h-.7v-.7c-.2.3-.6.8-1.3.8-.6 0-1.4-.4-1.4-1.8v-2.4h.7v2.2c0 .8.2 1.3.9 1.3.5 0 .8-.3 1-.7 0-.1.1-.2.1-.4v-2.5h.7v3.1z"/></g><path d="M251 335.2c-.2.1-.6.2-1.2.2-1.2 0-2-.8-2-2.1 0-1.2.9-2.2 2.2-2.2.4 0 .8.1 1 .2l-.2.6c-.2-.1-.4-.2-.9-.2-.9 0-1.4.7-1.4 1.5 0 .9.6 1.5 1.4 1.5.4 0 .7-.1.9-.2l.2.7z" class="st2"/><g class="st2"><path d="M255.5 333.3c0 1.5-1 2.1-2 2.1-1.1 0-1.9-.8-1.9-2.1s.9-2.1 2-2.1c1.1.1 1.9.9 1.9 2.1zm-3.2.1c0 .9.5 1.6 1.2 1.6s1.2-.7 1.2-1.6c0-.7-.3-1.5-1.2-1.5-.9-.1-1.2.7-1.2 1.5zM256.3 334.6c.2.1.6.3 1 .3.5 0 .8-.3.8-.6 0-.4-.2-.5-.7-.7-.7-.3-1.1-.7-1.1-1.1 0-.7.5-1.2 1.4-1.2.4 0 .8.1 1 .3l-.2.5c-.2-.1-.5-.2-.8-.2-.4 0-.7.2-.7.6 0 .3.2.5.8.7.7.3 1.1.6 1.1 1.2 0 .7-.6 1.2-1.5 1.2-.4 0-.9-.1-1.1-.3v-.7zM260.1 333.5c0 1 .6 1.4 1.4 1.4.5 0 .9-.1 1.1-.2l.1.5c-.3.1-.7.3-1.4.3-1.2 0-2-.8-2-2s.7-2.2 1.9-2.2c1.3 0 1.7 1.2 1.7 1.9v.3h-2.8zm2.2-.5c0-.5-.2-1.2-1-1.2s-1.1.7-1.1 1.2h2.1zM265.7 329.5h.7v2.5c.1-.2.3-.4.5-.5s.5-.2.8-.2c.5 0 1.4.3 1.4 1.7v2.4h-.7v-2.3c0-.6-.2-1.2-.9-1.2-.5 0-.8.3-1 .7v2.8h-.7l-.1-5.9zM274 333.3c0 1.5-1 2.1-2 2.1-1.1 0-1.9-.8-1.9-2.1s.9-2.1 2-2.1c1.1.1 1.9.9 1.9 2.1zm-3.2.1c0 .9.5 1.6 1.2 1.6s1.2-.7 1.2-1.6c0-.7-.3-1.5-1.2-1.5-.9-.1-1.2.7-1.2 1.5zM278.3 334.3v1.1h-.7v-.7c-.2.3-.6.8-1.3.8-.6 0-1.4-.4-1.4-1.8v-2.4h.7v2.2c0 .8.2 1.3.9 1.3.5 0 .8-.3 1-.7 0-.1.1-.2.1-.4v-2.5h.7v3.1z"/></g><path d="M279.5 332.6v-1.3h.6v.8c.2-.5.6-.9 1.1-.9h.2v.7h-.3c-.5 0-.9.4-1 .9v2.5h-.7l.1-2.7z" class="st2"/><g class="st2"><path d="M282.3 329.5h.7v5.9h-.7v-5.9zM284.5 331.3l.9 2.4c.1.3.2.6.3.8.1-.2.2-.6.3-.8l.8-2.4h.8l-1.1 2.9c-.5 1.4-.9 2.1-1.4 2.5-.4.3-.7.4-.9.5l-.2-.6c.2-.1.4-.2.6-.4.2-.2.4-.4.6-.8 0-.1.1-.1.1-.2 0 0 0-.1-.1-.2l-1.5-3.7h.8z"/></g><path class="st3" d="M216.1 293.9v57.2M217.2 351.6h89.9M307.7 350.5v-57.1M306.6 292.9h-89.9M216.1 351.59999999999997"/><g class="st2"><path d="M355.7 315.1c-.3.1-1 .3-1.7.3-.9 0-1.6-.2-2.1-.7s-.8-1.2-.8-2.1c0-1.7 1.2-2.9 3.1-2.9.7 0 1.2.1 1.4.3l-.2.6c-.3-.1-.7-.2-1.2-.2-1.4 0-2.3.9-2.3 2.3s.9 2.3 2.2 2.3c.5 0 .8-.1 1-.2V313H354v-.6h1.9l-.2 2.7zM357.6 310.2c0 .2-.2.5-.5.5s-.4-.2-.4-.5.2-.5.5-.5c.2 0 .4.2.4.5zm-.8 5.1v-4h.7v4h-.7z"/></g><path d="M359 311.3l.8 2.3c.1.4.2.7.3 1 .1-.3.2-.7.3-1l.8-2.3h.8l-1.6 4h-.7l-1.5-4h.8z" class="st2"/><g class="st2"><path d="M363.1 313.4c0 1 .6 1.4 1.4 1.4.5 0 .9-.1 1.1-.2l.1.5c-.3.1-.7.3-1.4.3-1.2 0-2-.8-2-2s.7-2.2 1.9-2.2c1.3 0 1.7 1.2 1.7 1.9v.3h-2.8zm2.1-.5c0-.5-.2-1.2-1-1.2s-1.1.7-1.1 1.2h2.1zM371.6 310.5h-2.1l-.2 1.4h.4c.4 0 .8.1 1.2.3.4.2.8.7.8 1.4 0 1.1-.8 1.9-2 1.9-.6 0-1.1-.2-1.4-.3l.2-.6c.2.1.7.3 1.2.3.7 0 1.3-.5 1.3-1.2s-.5-1.2-1.6-1.2h-.8l.4-2.6h2.6v.6z"/></g><g class="st2"><path d="M374.7 312.4v-1.1h.6v.7c.2-.4.6-.7 1.3-.7.5 0 1 .3 1.1.8.1-.2.3-.4.5-.5.2-.2.5-.3.9-.3.5 0 1.3.4 1.3 1.8v2.4h-.7v-2.3c0-.8-.3-1.2-.9-1.2-.4 0-.7.3-.9.7 0 .1-.1.2-.1.4v2.5h-.7v-2.4c0-.6-.3-1.1-.8-1.1s-.8.4-.9.7c0 .1-.1.2-.1.4v2.4h-.7l.1-3.2zM385.1 314.7c0 .9-.2 1.5-.6 1.9s-1 .5-1.5.5-1-.1-1.3-.3l.2-.6c.3.2.7.3 1.2.3.8 0 1.3-.4 1.3-1.4v-.4c-.2.4-.7.7-1.3.7-1 0-1.7-.9-1.7-2 0-1.4.9-2.1 1.8-2.1.7 0 1.1.4 1.3.7v-.6h.7V314.7h-.1zm-.7-1.8v-.3c-.1-.4-.5-.8-1-.8-.7 0-1.2.6-1.2 1.5 0 .8.4 1.5 1.2 1.5.5 0 .9-.3 1-.8 0-.1.1-.3.1-.4l-.1-.7z"/></g><path d="M342.3 319.4h.7v2.5c.1-.2.3-.4.5-.5s.5-.2.8-.2c.5 0 1.4.3 1.4 1.7v2.4h-.7V323c0-.7-.2-1.2-.9-1.2-.5 0-.8.3-1 .7v2.8h-.7l-.1-5.9zM347.1 321.3l.9 2.4c.1.3.2.6.3.8.1-.2.2-.6.3-.8l.8-2.4h.8l-1.1 2.9c-.5 1.4-.9 2.1-1.4 2.5-.4.3-.7.4-.9.5l-.2-.6c.2-.1.4-.2.6-.4.2-.2.4-.4.6-.8 0-.1.1-.1.1-.2 0 0 0-.1-.1-.2l-1.5-3.7h.8zM354.2 319.4v5.9h-.6v-.7c-.2.5-.7.8-1.4.8-1 0-1.7-.8-1.7-2.1s.8-2.2 1.8-2.2c.6 0 1 .3 1.2.6v-2.4l.7.1zm-.7 3.6v-.3c-.1-.5-.5-.8-1.1-.8-.8 0-1.2.7-1.2 1.6 0 .8.4 1.5 1.2 1.5.5 0 .9-.3 1.1-.9V323zM355.5 322.6v-1.3h.6v.8c.2-.5.6-.9 1.1-.9h.2v.7h-.3c-.5 0-.9.4-1 .9v2.5h-.7l.1-2.7zM361.8 323.3c0 1.5-1 2.1-2 2.1-1.1 0-1.9-.8-1.9-2.1s.9-2.1 2-2.1 1.9.9 1.9 2.1zm-3.2 0c0 .9.5 1.6 1.2 1.6s1.2-.7 1.2-1.6c0-.7-.3-1.5-1.2-1.5s-1.2.8-1.2 1.5zM365.6 325.2c-.2.1-.6.2-1.2.2-1.2 0-2-.8-2-2.1 0-1.2.9-2.2 2.2-2.2.4 0 .8.1 1 .2l-.2.6c-.2-.1-.5-.2-.9-.2-.9 0-1.4.7-1.4 1.5 0 .9.6 1.5 1.4 1.5.4 0 .7-.1.9-.2l.2.7zM370 323.3c0 1.5-1 2.1-2 2.1-1.1 0-1.9-.8-1.9-2.1s.9-2.1 2-2.1c1.2 0 1.9.9 1.9 2.1zm-3.2 0c0 .9.5 1.6 1.2 1.6s1.2-.7 1.2-1.6c0-.7-.3-1.5-1.2-1.5-.8 0-1.2.8-1.2 1.5zM371 322.6v-1.3h.6v.8c.2-.5.6-.9 1.1-.9h.2v.7h-.2c-.5 0-.9.4-1 .9v2.5h-.7v-2.7z" class="st2"/><g class="st2"><path d="M374.8 320.3v1h1.1v.6h-1.1v2.2c0 .5.1.8.6.8.2 0 .3 0 .4-.1v.6c-.1 0-.4.1-.7.1-.3 0-.6-.1-.8-.3-.2-.2-.3-.6-.3-1.1v-2.2h-.6v-.6h.6v-.8l.8-.2zM377.5 320.2c0 .3-.2.5-.5.5s-.4-.2-.4-.5.2-.5.5-.5c.2 0 .4.2.4.5zm-.8 5.2v-4h.7v4h-.7zM378.5 324.6c.2.1.6.3 1 .3.5 0 .8-.3.8-.6 0-.4-.2-.5-.7-.7-.7-.3-1.1-.7-1.1-1.1 0-.7.5-1.2 1.4-1.2.4 0 .8.1 1 .2l-.2.5c-.2-.1-.5-.2-.8-.2-.4 0-.7.3-.7.6s.2.5.8.7c.7.3 1.1.6 1.1 1.2 0 .7-.6 1.2-1.5 1.2-.4 0-.9-.1-1.1-.3v-.6zM385.6 323.3c0 1.5-1 2.1-2 2.1-1.1 0-1.9-.8-1.9-2.1s.9-2.1 2-2.1 1.9.9 1.9 2.1zm-3.2 0c0 .9.5 1.6 1.2 1.6s1.2-.7 1.2-1.6c0-.7-.3-1.5-1.2-1.5-.8 0-1.2.8-1.2 1.5zM386.5 322.4v-1.1h.6v.7c.2-.4.7-.8 1.3-.8.6 0 1.4.3 1.4 1.7v2.4h-.7V323c0-.7-.2-1.2-.9-1.2-.5 0-.9.3-1 .8V325.3h-.7v-2.9zM391.6 323.5c0 1 .6 1.4 1.4 1.4.5 0 .9-.1 1.1-.2l.1.5c-.3.1-.7.3-1.4.3-1.2 0-2-.8-2-2s.7-2.2 1.9-2.2c1.3 0 1.7 1.2 1.7 1.9v.3h-2.8zm2.1-.6c0-.5-.2-1.2-1-1.2s-1.1.7-1.1 1.2h2.1z"/></g><path d="M346.1 330.2c0 .3-.2.5-.5.5s-.4-.2-.4-.5.2-.5.5-.5c.2 0 .4.2.4.5zm-.8 5.2v-4h.7v4h-.7zM347.2 332.4v-1.1h.6v.7c.2-.4.7-.8 1.3-.8.6 0 1.4.3 1.4 1.7v2.4h-.7V333c0-.7-.2-1.2-.9-1.2-.5 0-.9.3-1 .8V335.3h-.7v-2.9zM352.7 330.4v1h1.1v.6h-1.1v2.2c0 .5.1.8.6.8.2 0 .3 0 .4-.1v.6c-.1 0-.4.1-.7.1-.3 0-.6-.1-.8-.3-.2-.2-.3-.6-.3-1.1V332h-.6v-.6h.6v-.8l.8-.2zM354.6 332.6v-1.3h.6v.8c.2-.5.6-.9 1.1-.9h.2v.7h-.3c-.5 0-.9.4-1 .9v2.5h-.7l.1-2.7zM360.1 334.4c0 .4 0 .7.1 1h-.7l-.1-.5c-.2.3-.7.6-1.2.6-.8 0-1.2-.6-1.2-1.2 0-1 .9-1.5 2.4-1.5v-.1c0-.3-.1-.9-.9-.9-.4 0-.8.1-1.1.3l-.2-.5c.3-.2.8-.4 1.3-.4 1.2 0 1.5.8 1.5 1.6l.1 1.6zm-.7-1.1c-.8 0-1.7.1-1.7.9 0 .5.3.7.7.7.5 0 .9-.3 1-.7V333.3zM361.6 331.3l.8 2.3c.1.4.2.7.3 1 .1-.3.2-.7.3-1l.8-2.3h.8l-1.6 4h-.7l-1.5-4h.8z" class="st2"/><g class="st2"><path d="M365.6 333.5c0 1 .6 1.4 1.4 1.4.5 0 .9-.1 1.1-.2l.1.5c-.3.1-.7.3-1.4.3-1.2 0-2-.8-2-2s.7-2.2 1.9-2.2c1.3 0 1.7 1.2 1.7 1.9v.3h-2.8zm2.2-.5c0-.5-.2-1.2-1-1.2s-1.1.7-1.1 1.2h2.1zM369.4 332.4v-1.1h.7v.7c.2-.4.7-.8 1.3-.8.6 0 1.4.3 1.4 1.7v2.4h-.7V333c0-.7-.2-1.2-.9-1.2-.5 0-.9.3-1 .8V335.3h-.7l-.1-2.9zM377.7 333.3c0 1.5-1 2.1-2 2.1-1.1 0-1.9-.8-1.9-2.1s.9-2.1 2-2.1c1.1.1 1.9.9 1.9 2.1zm-3.2.1c0 .9.5 1.6 1.2 1.6s1.2-.7 1.2-1.6c0-.7-.3-1.5-1.2-1.5-.8-.1-1.2.7-1.2 1.5zM382 334.3v1.1h-.7v-.7c-.2.3-.6.8-1.3.8-.6 0-1.4-.4-1.4-1.8v-2.4h.7v2.2c0 .8.2 1.3.9 1.3.5 0 .8-.3 1-.7 0-.1.1-.2.1-.4v-2.5h.7v3.1zM383.1 334.6c.2.1.6.3 1 .3.5 0 .8-.3.8-.6 0-.4-.2-.5-.7-.7-.7-.3-1.1-.7-1.1-1.1 0-.7.5-1.2 1.4-1.2.4 0 .8.1 1 .3l-.2.5c-.2-.1-.5-.2-.8-.2-.4 0-.7.2-.7.6 0 .3.2.5.8.7.7.3 1.1.6 1.1 1.2 0 .7-.6 1.2-1.5 1.2-.4 0-.9-.1-1.1-.3v-.7zM386.5 329.5h.7v5.9h-.7v-5.9zM388.8 331.3l.9 2.4c.1.3.2.6.3.8.1-.2.2-.6.3-.8l.8-2.4h.8l-1.1 2.9c-.5 1.4-.9 2.1-1.4 2.5-.4.3-.7.4-.9.5l-.2-.6c.2-.1.4-.2.6-.4.2-.2.4-.4.6-.8 0-.1.1-.1.1-.2 0 0 0-.1-.1-.2l-1.5-3.7h.8z"/></g><path class="st3" d="M328.4 293.9v57.2M329.4 351.6h78.2M408.1 350.5v-57.1M407 292.9h-78.1M328.4 351.59999999999997"/><path d="M290.1 240.3c0-.5.4-.9.9-.9s.9.4.9.9-.4.9-.9.9c-.5-.1-.9-.4-.9-.9zM299.4 240c0-.8-.1-1.7-.1-2.4-.2.7-.4 1.4-.7 2.1l-1 2.7h-.6l-.9-2.7c-.3-.8-.5-1.5-.6-2.2 0 .7-.1 1.6-.1 2.5l-.1 2.4h-.7l.4-5.6h.9l1 2.7c.2.7.4 1.3.6 1.9.1-.6.4-1.2.6-1.9l1-2.7h.9l.4 5.6h-.7l-.3-2.4z" class="st2"/><g class="st2"><path d="M301.8 240.6c0 1 .6 1.4 1.4 1.4.5 0 .9-.1 1.1-.2l.1.5c-.3.1-.7.3-1.4.3-1.2 0-2-.8-2-2s.7-2.2 1.9-2.2c1.3 0 1.7 1.2 1.7 1.9v.3h-2.8zm2.1-.6c0-.5-.2-1.2-1-1.2s-1.1.7-1.1 1.2h2.1zM308.4 241.5c0 .4 0 .7.1 1h-.7l-.1-.5c-.2.3-.7.6-1.2.6-.8 0-1.2-.6-1.2-1.2 0-1 .9-1.5 2.4-1.5v-.1c0-.3-.1-.9-.9-.9-.4 0-.8.1-1.1.3l-.2-.5c.3-.2.8-.4 1.3-.4 1.2 0 1.5.8 1.5 1.6l.1 1.6zm-.7-1.1c-.8 0-1.7.1-1.7.9 0 .5.3.7.7.7.5 0 .9-.3 1-.7V240.4zM309.5 241.7c.2.1.6.3 1 .3.5 0 .8-.3.8-.6 0-.4-.2-.5-.7-.7-.7-.3-1.1-.7-1.1-1.1 0-.7.5-1.2 1.4-1.2.4 0 .8.1 1 .2l-.2.5c-.2-.1-.5-.2-.8-.2-.4 0-.7.3-.7.6s.2.5.8.7c.7.3 1.1.6 1.1 1.2 0 .7-.6 1.2-1.5 1.2-.4 0-.9-.1-1.1-.3v-.6zM316.3 241.3v1.1h-.7v-.7c-.2.3-.6.8-1.3.8-.6 0-1.4-.4-1.4-1.8v-2.4h.7v2.2c0 .8.2 1.3.9 1.3.5 0 .8-.3 1-.7 0-.1.1-.2.1-.4v-2.5h.7v3.1z"/></g><path d="M317.5 239.7v-1.3h.6v.8c.2-.5.6-.9 1.1-.9h.2v.7h-.2c-.5 0-.9.4-1 .9v2.5h-.7v-2.7z" class="st2"/><g class="st2"><path d="M320.5 240.6c0 1 .6 1.4 1.4 1.4.5 0 .9-.1 1.1-.2l.1.5c-.3.1-.7.3-1.4.3-1.2 0-2-.8-2-2s.7-2.2 1.9-2.2c1.3 0 1.7 1.2 1.7 1.9v.3h-2.8zm2.2-.6c0-.5-.2-1.2-1-1.2s-1.1.7-1.1 1.2h2.1zM326.1 236.5h.7v2.5c.3-.4.7-.7 1.4-.7 1 0 1.7.8 1.7 2.1 0 1.4-.9 2.2-1.8 2.2-.6 0-1.1-.2-1.4-.8v.7h-.6v-6zm.7 4.3v.3c.1.5.6.9 1.1.9.8 0 1.2-.6 1.2-1.6 0-.8-.4-1.5-1.2-1.5-.5 0-1 .4-1.1.9v1zM330.9 236.5h.7v5.9h-.7v-5.9zM336.5 240.4c0 1.5-1 2.1-2 2.1-1.1 0-1.9-.8-1.9-2.1s.9-2.1 2-2.1 1.9.9 1.9 2.1zm-3.2 0c0 .9.5 1.6 1.2 1.6s1.2-.7 1.2-1.6c0-.7-.3-1.5-1.2-1.5-.8 0-1.2.8-1.2 1.5zM341.1 240.4c0 1.5-1 2.1-2 2.1-1.1 0-1.9-.8-1.9-2.1s.9-2.1 2-2.1 1.9.9 1.9 2.1zm-3.2 0c0 .9.5 1.6 1.2 1.6s1.2-.7 1.2-1.6c0-.7-.3-1.5-1.2-1.5-.9 0-1.2.8-1.2 1.5zM345.5 236.5v5.9h-.7v-.7c-.2.5-.7.8-1.4.8-1 0-1.7-.8-1.7-2.1s.8-2.2 1.8-2.2c.6 0 1 .3 1.2.6v-2.4l.8.1zm-.7 3.6v-.3c-.1-.5-.5-.8-1.1-.8-.8 0-1.2.7-1.2 1.6 0 .8.4 1.5 1.2 1.5.5 0 .9-.3 1.1-.9v-1.1zM351.9 241.9c0 .9-.2 1.5-.6 1.9s-1 .5-1.5.5-1-.1-1.3-.3l.2-.6c.3.2.7.3 1.2.3.8 0 1.3-.4 1.3-1.4v-.4c-.2.4-.7.7-1.3.7-1 0-1.7-.9-1.7-2 0-1.4.9-2.1 1.8-2.1.7 0 1.1.4 1.3.7v-.6h.7v1.1l-.1 2.2zm-.7-1.9v-.3c-.1-.4-.5-.8-1-.8-.7 0-1.2.6-1.2 1.5 0 .8.4 1.5 1.2 1.5.5 0 .9-.3 1-.8 0-.1.1-.3.1-.4l-.1-.7zM353.2 236.5h.7v5.9h-.7v-5.9zM358.5 241.3v1.1h-.7v-.7c-.2.3-.6.8-1.3.8-.6 0-1.4-.4-1.4-1.8v-2.4h.7v2.2c0 .8.2 1.3.9 1.3.5 0 .8-.3 1-.7 0-.1.1-.2.1-.4v-2.5h.7v3.1z"/></g><path d="M362.6 242.3c-.2.1-.6.2-1.2.2-1.2 0-2-.8-2-2.1 0-1.2.9-2.2 2.2-2.2.4 0 .8.1 1 .2l-.2.6c-.2-.1-.5-.2-.9-.2-.9 0-1.4.7-1.4 1.5 0 .9.6 1.5 1.4 1.5.4 0 .7-.1.9-.2l.2.7z" class="st2"/><g class="st2"><path d="M367.1 240.4c0 1.5-1 2.1-2 2.1-1.1 0-1.9-.8-1.9-2.1s.9-2.1 2-2.1 1.9.9 1.9 2.1zm-3.2 0c0 .9.5 1.6 1.2 1.6s1.2-.7 1.2-1.6c0-.7-.3-1.5-1.2-1.5-.8 0-1.2.8-1.2 1.5zM367.9 241.7c.2.1.6.3 1 .3.5 0 .8-.3.8-.6 0-.4-.2-.5-.7-.7-.7-.3-1.1-.7-1.1-1.1 0-.7.5-1.2 1.4-1.2.4 0 .8.1 1 .2l-.2.5c-.2-.1-.5-.2-.8-.2-.4 0-.7.3-.7.6s.2.5.8.7c.7.3 1.1.6 1.1 1.2 0 .7-.6 1.2-1.5 1.2-.4 0-.9-.1-1.1-.3v-.6zM371.7 240.6c0 1 .6 1.4 1.4 1.4.5 0 .9-.1 1.1-.2l.1.5c-.3.1-.7.3-1.4.3-1.2 0-2-.8-2-2s.7-2.2 1.9-2.2c1.3 0 1.7 1.2 1.7 1.9v.3h-2.8zm2.2-.6c0-.5-.2-1.2-1-1.2s-1.1.7-1.1 1.2h2.1zM378.1 237.3c0 .3-.2.5-.5.5s-.4-.2-.4-.5.2-.5.5-.5c.2 0 .4.2.4.5zm-.8 5.2v-4h.7v4h-.7zM379.2 239.5v-1.1h.6v.7c.2-.4.7-.8 1.3-.8.6 0 1.4.3 1.4 1.7v2.4h-.5v-2.3c0-.7-.2-1.2-.9-1.2-.5 0-.9.3-1 .8V242.4h-.7l-.2-2.9zM387 237.7l-1 .5-.1-.6 1.2-.6h.6v5.4h-.7v-4.7zM392.9 237.6h-2.1l-.2 1.4h.4c.4 0 .8.1 1.2.3.4.2.8.7.8 1.4 0 1.1-.8 1.9-2 1.9-.6 0-1.1-.2-1.4-.3l.2-.6c.2.1.7.3 1.2.3.7 0 1.3-.5 1.3-1.2s-.5-1.2-1.6-1.2h-.8l.4-2.6h2.6v.6z"/></g><g class="st2"><path d="M328.1 249.5v-1.1h.6v.7c.2-.4.6-.7 1.3-.7.5 0 1 .3 1.1.8.1-.2.3-.4.5-.5.2-.2.5-.3.9-.3.5 0 1.3.4 1.3 1.8v2.4h-.7v-2.3c0-.8-.3-1.2-.9-1.2-.4 0-.7.3-.9.7 0 .1-.1.2-.1.4v2.5h-.7v-2.4c0-.6-.3-1.1-.8-1.1s-.8.4-.9.7c0 .1-.1.2-.1.4v2.4h-.7l.1-3.2zM335.9 247.3c0 .3-.2.5-.5.5s-.4-.2-.4-.5.2-.5.5-.5c.2 0 .4.2.4.5zm-.8 5.2v-4h.7v4h-.7zM337.1 249.5v-1.1h.7v.7c.2-.4.7-.8 1.3-.8.6 0 1.4.3 1.4 1.7v2.4h-.7v-2.3c0-.7-.2-1.2-.9-1.2-.5 0-.9.3-1 .8V252.4h-.7l-.1-2.9zM345.1 251.4v1.1h-.7v-.7c-.2.3-.6.8-1.3.8-.6 0-1.4-.4-1.4-1.8v-2.4h.7v2.2c0 .8.2 1.3.9 1.3.5 0 .8-.3 1-.7 0-.1.1-.2.1-.4v-2.5h.7v3.1z"/></g><path d="M347.2 247.5v1h1.1v.6h-1.1v2.2c0 .5.1.8.5.8.2 0 .3 0 .4-.1v.6c-.1 0-.4.1-.6.1-.3 0-.6-.1-.8-.3-.2-.2-.3-.6-.3-1.1V249h-.6v-.6h.6v-.8l.8-.1z" class="st2"/><g class="st2"><path d="M349.4 250.6c0 1 .6 1.4 1.4 1.4.5 0 .9-.1 1.1-.2l.1.5c-.3.1-.7.3-1.4.3-1.2 0-2-.8-2-2s.7-2.2 1.9-2.2c1.3 0 1.7 1.2 1.7 1.9v.3h-2.8zm2.2-.5c0-.5-.2-1.2-1-1.2s-1.1.7-1.1 1.2h2.1zM353.1 251.7c.2.1.6.3 1 .3.5 0 .8-.3.8-.6 0-.4-.2-.5-.7-.7-.7-.3-1.1-.7-1.1-1.1 0-.6.5-1.2 1.4-1.2.4 0 .8.1 1 .3l-.2.5c-.2-.1-.5-.2-.8-.2-.4 0-.7.3-.7.6s.2.5.8.7c.7.3 1.1.6 1.1 1.2 0 .7-.6 1.2-1.5 1.2-.4 0-.9-.1-1.1-.3v-.7z"/></g><path class="st3" d="M275.4 211v57.1M276.4 268.7h131.2M408.1 267.6v-57.1M407 210H275.9M275.4 268.7"/><path d="M302.3 141.8c0-.5.4-.9.9-.9s.9.4.9.9-.4.9-.9.9-.9-.4-.9-.9zM308.1 139.3l-1 .5-.1-.6 1.2-.6h.6v5.4h-.7v-4.7zM314.4 141.2c0 1.8-.7 2.9-1.9 2.9-1.1 0-1.8-1-1.8-2.8s.8-2.8 1.9-2.8c1.2 0 1.8 1 1.8 2.7zm-2.9.1c0 1.4.4 2.2 1.1 2.2s1.1-.9 1.1-2.3c0-1.3-.3-2.2-1.1-2.2-.7 0-1.1.8-1.1 2.3zM317.5 140.1c0 1.1-.6 1.7-1.3 1.7-.7 0-1.3-.5-1.3-1.6s.6-1.7 1.3-1.7c.8 0 1.3.6 1.3 1.6zm-2 0c0 .7.3 1.2.7 1.2.5 0 .7-.5.7-1.2s-.2-1.2-.7-1.2c-.4 0-.7.6-.7 1.2zm.7 4l3.2-5.6h.5l-3.2 5.6h-.5zm4.9-1.8c0 1.1-.6 1.7-1.3 1.7-.7 0-1.3-.5-1.3-1.6s.6-1.7 1.3-1.7c.8 0 1.3.6 1.3 1.6zm-2 .1c0 .7.2 1.2.7 1.2s.7-.5.7-1.2-.2-1.2-.7-1.2c-.5 0-.7.5-.7 1.2zM327.2 138.1v5.9h-.7v-.7c-.2.5-.7.8-1.4.8-1 0-1.7-.8-1.7-2.1s.8-2.2 1.8-2.2c.6 0 1 .3 1.2.6V138l.8.1zm-.7 3.5v-.3c-.1-.5-.5-.8-1.1-.8-.8 0-1.2.7-1.2 1.6 0 .8.4 1.5 1.2 1.5.5 0 .9-.3 1.1-.9v-1.1z"/><path d="M328.8 142.1c0 1 .6 1.4 1.4 1.4.5 0 .9-.1 1.1-.2l.1.5c-.3.1-.7.3-1.4.3-1.2 0-2-.8-2-2s.7-2.2 1.9-2.2c1.3 0 1.7 1.2 1.7 1.9v.3h-2.8zm2.2-.5c0-.5-.2-1.2-1-1.2s-1.1.7-1.1 1.2h2.1zM332.9 140l.6.9c.2.2.3.4.4.7.1-.2.3-.4.4-.7l.6-.9h.8l-1.4 2 1.4 2.1h-.8l-.6-.9c-.2-.2-.3-.5-.4-.7-.1.2-.3.5-.4.7l-.6.9h-.9l1.4-2.1-1.4-2h.9zM337.5 139v1h1.1v.6h-1.1v2.2c0 .5.1.8.6.8.2 0 .3 0 .4-.1v.6c-.1 0-.4.1-.7.1-.3 0-.6-.1-.8-.3-.2-.2-.3-.6-.3-1.1v-2.2h-.6v-.6h.6v-.8l.8-.2zM339.3 141.2v-1.3h.6v.8c.2-.5.6-.9 1.1-.9h.2v.7h-.3c-.5 0-.9.4-1 .9v2.5h-.7l.1-2.7z" class="st2"/><g class="st2"><path d="M345.7 141.9c0 1.5-1 2.1-2 2.1-1.1 0-1.9-.8-1.9-2.1s.9-2.1 2-2.1c1.1.1 1.9.9 1.9 2.1zm-3.3.1c0 .9.5 1.6 1.2 1.6s1.2-.7 1.2-1.6c0-.7-.3-1.5-1.2-1.5-.8-.1-1.2.7-1.2 1.5zM346.5 143.3c.2.1.6.3 1 .3.5 0 .8-.3.8-.6 0-.4-.2-.5-.7-.7-.7-.3-1.1-.7-1.1-1.1 0-.7.5-1.2 1.4-1.2.4 0 .8.1 1 .2l-.2.5c-.2-.1-.5-.2-.8-.2-.4 0-.7.3-.7.6s.2.5.8.7c.7.3 1.1.6 1.1 1.2 0 .7-.6 1.2-1.5 1.2-.4 0-.9-.1-1.1-.3v-.6zM350.3 142.1c0 1 .6 1.4 1.4 1.4.5 0 .9-.1 1.1-.2l.1.5c-.3.1-.7.3-1.4.3-1.2 0-2-.8-2-2s.7-2.2 1.9-2.2c1.3 0 1.7 1.2 1.7 1.9v.3h-2.8zm2.2-.5c0-.5-.2-1.2-1-1.2s-1.1.7-1.1 1.2h2.1zM356.7 138.8c0 .3-.2.5-.5.5s-.4-.2-.4-.5.2-.5.5-.5c.2.1.4.3.4.5zm-.9 5.2v-4h.7v4h-.7zM357.8 141.1V140h.7v.7c.2-.4.7-.8 1.3-.8.6 0 1.4.3 1.4 1.7v2.4h-.7v-2.3c0-.7-.2-1.2-.9-1.2-.5 0-.9.3-1 .8V144h-.7l-.1-2.9zM362.5 144v-3.5h-.5v-.5h.6v-.2c0-.6.1-1.1.5-1.4.3-.3.6-.4 1-.4.3 0 .5.1.6.1l-.1.6c-.1 0-.2-.1-.5-.1-.6 0-.8.5-.8 1.2v.2h1v.6h-1v3.5l-.8-.1zM368.3 142.9v1.1h-.7v-.7c-.2.3-.6.8-1.3.8-.6 0-1.4-.4-1.4-1.8V140h.7v2.2c0 .8.2 1.3.9 1.3.5 0 .8-.3 1-.7 0-.1.1-.2.1-.4V140h.7v2.9zM369.4 143.3c.2.1.6.3 1 .3.5 0 .8-.3.8-.6 0-.4-.2-.5-.7-.7-.7-.3-1.1-.7-1.1-1.1 0-.7.5-1.2 1.4-1.2.4 0 .8.1 1 .2l-.2.5c-.2-.1-.5-.2-.8-.2-.4 0-.7.3-.7.6s.2.5.8.7c.7.3 1.1.6 1.1 1.2 0 .7-.6 1.2-1.5 1.2-.4 0-.9-.1-1.1-.3v-.6zM373.6 138.8c0 .3-.2.5-.5.5s-.4-.2-.4-.5.2-.5.5-.5c.2.1.4.3.4.5zm-.8 5.2v-4h.7v4h-.7zM378.4 141.9c0 1.5-1 2.1-2 2.1-1.1 0-1.9-.8-1.9-2.1s.9-2.1 2-2.1c1.1.1 1.9.9 1.9 2.1zm-3.2.1c0 .9.5 1.6 1.2 1.6s1.2-.7 1.2-1.6c0-.7-.3-1.5-1.2-1.5-.8-.1-1.2.7-1.2 1.5zM379.3 141.1V140h.7v.7c.2-.4.7-.8 1.3-.8.6 0 1.4.3 1.4 1.7v2.4h-.7v-2.3c0-.7-.2-1.2-.9-1.2-.5 0-.9.3-1 .8 0 .1-.1.2-.1.3v2.4h-.7v-2.9z"/></g><path d="M291.9 162.5c0-.5.4-.9.9-.9s.9.4.9.9-.4.9-.9.9-.9-.4-.9-.9zM301.2 162.2c0-.8-.1-1.7-.1-2.4-.2.7-.4 1.4-.7 2.1l-1 2.7h-.6l-.9-2.7c-.3-.8-.5-1.5-.6-2.2 0 .7-.1 1.6-.1 2.5l-.1 2.4h-.7l.4-5.6h.9l1 2.7c.2.7.4 1.3.6 1.9.1-.6.4-1.2.6-1.9l1-2.7h.9l.4 5.6h-.7l-.3-2.4z" class="st2"/><g class="st2"><path d="M303.6 162.8c0 1 .6 1.4 1.4 1.4.5 0 .9-.1 1.1-.2l.1.5c-.3.1-.7.3-1.4.3-1.2 0-2-.8-2-2s.7-2.2 1.9-2.2c1.3 0 1.7 1.2 1.7 1.9v.3h-2.8zm2.1-.5c0-.5-.2-1.2-1-1.2s-1.1.7-1.1 1.2h2.1zM310.2 163.7c0 .4 0 .7.1 1h-.7l-.1-.5c-.2.3-.7.6-1.2.6-.8 0-1.2-.6-1.2-1.2 0-1 .9-1.5 2.4-1.5v-.1c0-.3-.1-.9-.9-.9-.4 0-.8.1-1.1.3l-.2-.5c.3-.2.8-.4 1.3-.4 1.2 0 1.5.8 1.5 1.6l.1 1.6zm-.7-1.1c-.8 0-1.7.1-1.7.9 0 .5.3.7.7.7.5 0 .9-.3 1-.7V162.6zM311.3 163.9c.2.1.6.3 1 .3.5 0 .8-.3.8-.6 0-.4-.2-.5-.7-.7-.7-.3-1.1-.7-1.1-1.1 0-.7.5-1.2 1.4-1.2.4 0 .8.1 1 .3l-.2.5c-.2-.1-.5-.2-.8-.2-.4 0-.7.3-.7.6s.2.5.8.7c.7.3 1.1.6 1.1 1.2 0 .7-.6 1.2-1.5 1.2-.4 0-.9-.1-1.1-.3v-.7zM318.1 163.6v1.1h-.7v-.7c-.2.3-.6.8-1.3.8-.6 0-1.4-.4-1.4-1.8v-2.4h.7v2.2c0 .8.2 1.3.9 1.3.5 0 .8-.3 1-.7 0-.1.1-.2.1-.4v-2.5h.7v3.1z"/></g><path d="M319.3 161.9v-1.3h.6v.8c.2-.5.6-.9 1.1-.9h.2v.7h-.2c-.5 0-.9.4-1 .9v2.5h-.7v-2.7z" class="st2"/><g class="st2"><path d="M322.4 162.8c0 1 .6 1.4 1.4 1.4.5 0 .9-.1 1.1-.2l.1.5c-.3.1-.7.3-1.4.3-1.2 0-2-.8-2-2s.7-2.2 1.9-2.2c1.3 0 1.7 1.2 1.7 1.9v.3h-2.8zm2.1-.5c0-.5-.2-1.2-1-1.2s-1.1.7-1.1 1.2h2.1zM327.9 158.7h.7v2.5c.3-.4.7-.7 1.4-.7 1 0 1.7.8 1.7 2.1 0 1.4-.9 2.2-1.8 2.2-.6 0-1.1-.2-1.4-.8v.7h-.6v-6zm.7 4.4v.3c.1.5.6.9 1.1.9.8 0 1.2-.6 1.2-1.6 0-.8-.4-1.5-1.2-1.5-.5 0-1 .4-1.1.9v1zM332.7 158.7h.7v5.9h-.7v-5.9zM338.3 162.6c0 1.5-1 2.1-2 2.1-1.1 0-1.9-.8-1.9-2.1s.9-2.1 2-2.1 1.9.9 1.9 2.1zm-3.2.1c0 .9.5 1.6 1.2 1.6s1.2-.7 1.2-1.6c0-.7-.3-1.5-1.2-1.5-.8-.1-1.2.7-1.2 1.5zM342.9 162.6c0 1.5-1 2.1-2 2.1-1.1 0-1.9-.8-1.9-2.1s.9-2.1 2-2.1 1.9.9 1.9 2.1zm-3.2.1c0 .9.5 1.6 1.2 1.6s1.2-.7 1.2-1.6c0-.7-.3-1.5-1.2-1.5-.8-.1-1.2.7-1.2 1.5zM347.3 158.7v5.9h-.7v-.7c-.2.5-.7.8-1.4.8-1 0-1.7-.8-1.7-2.1s.8-2.2 1.8-2.2c.6 0 1 .3 1.2.6v-2.4l.8.1zm-.7 3.6v-.3c-.1-.5-.5-.8-1.1-.8-.8 0-1.2.7-1.2 1.6 0 .8.4 1.5 1.2 1.5.5 0 .9-.3 1.1-.9v-1.1zM353.7 164.1c0 .9-.2 1.5-.6 1.9s-1 .5-1.5.5-1-.1-1.3-.3l.2-.6c.3.2.7.3 1.2.3.8 0 1.3-.4 1.3-1.4v-.5c-.2.4-.7.7-1.3.7-1 0-1.7-.9-1.7-2 0-1.4.9-2.1 1.8-2.1.7 0 1.1.4 1.3.7v-.6h.7v1.1l-.1 2.3zm-.7-1.9v-.3c-.1-.4-.5-.8-1-.8-.7 0-1.2.6-1.2 1.5 0 .8.4 1.5 1.2 1.5.5 0 .9-.3 1-.8 0-.1.1-.3.1-.4l-.1-.7zM355 158.7h.7v5.9h-.7v-5.9zM360.3 163.6v1.1h-.7v-.7c-.2.3-.6.8-1.3.8-.6 0-1.4-.4-1.4-1.8v-2.4h.7v2.2c0 .8.2 1.3.9 1.3.5 0 .8-.3 1-.7 0-.1.1-.2.1-.4v-2.5h.7v3.1z"/></g><path d="M364.4 164.5c-.2.1-.6.2-1.2.2-1.2 0-2-.8-2-2.1 0-1.2.9-2.2 2.2-2.2.4 0 .8.1 1 .2l-.2.6c-.2-.1-.5-.2-.9-.2-.9 0-1.4.7-1.4 1.5 0 .9.6 1.5 1.4 1.5.4 0 .7-.1.9-.2l.2.7z" class="st2"/><g class="st2"><path d="M368.9 162.6c0 1.5-1 2.1-2 2.1-1.1 0-1.9-.8-1.9-2.1s.9-2.1 2-2.1 1.9.9 1.9 2.1zm-3.2.1c0 .9.5 1.6 1.2 1.6s1.2-.7 1.2-1.6c0-.7-.3-1.5-1.2-1.5-.8-.1-1.2.7-1.2 1.5zM369.7 163.9c.2.1.6.3 1 .3.5 0 .8-.3.8-.6 0-.4-.2-.5-.7-.7-.7-.3-1.1-.7-1.1-1.1 0-.7.5-1.2 1.4-1.2.4 0 .8.1 1 .3l-.2.5c-.2-.1-.5-.2-.8-.2-.4 0-.7.3-.7.6s.2.5.8.7c.7.3 1.1.6 1.1 1.2 0 .7-.6 1.2-1.5 1.2-.4 0-.9-.1-1.1-.3v-.7zM373.5 162.8c0 1 .6 1.4 1.4 1.4.5 0 .9-.1 1.1-.2l.1.5c-.3.1-.7.3-1.4.3-1.2 0-2-.8-2-2s.7-2.2 1.9-2.2c1.3 0 1.7 1.2 1.7 1.9v.3h-2.8zm2.2-.5c0-.5-.2-1.2-1-1.2s-1.1.7-1.1 1.2h2.1zM379.9 159.5c0 .3-.2.5-.5.5s-.4-.2-.4-.5.2-.5.5-.5c.2 0 .4.2.4.5zm-.8 5.2v-4h.7v4h-.7zM381 161.7v-1.1h.6v.7c.2-.4.7-.8 1.3-.8.6 0 1.4.3 1.4 1.7v2.4h-.7v-2.3c0-.7-.2-1.2-.9-1.2-.5 0-.9.3-1 .8V164.6h-.7v-2.9zM388.8 159.9l-1 .5-.1-.6 1.2-.6h.6v5.4h-.7v-4.7zM394.8 159.9h-2.1l-.2 1.4h.4c.4 0 .8.1 1.2.3.4.2.8.7.8 1.4 0 1.1-.8 1.9-2 1.9-.6 0-1.1-.2-1.4-.3l.2-.6c.2.1.7.3 1.2.3.7 0 1.3-.5 1.3-1.2s-.5-1.2-1.6-1.2c-.3 0-.6 0-.8.1l.4-2.6h2.6v.5z"/></g><g class="st2"><path d="M329.9 171.8v-1.1h.6v.7c.2-.4.6-.7 1.3-.7.5 0 1 .3 1.1.8.1-.2.3-.4.5-.5.2-.2.5-.3.9-.3.5 0 1.3.4 1.3 1.8v2.4h-.6v-2.3c0-.8-.3-1.2-.9-1.2-.4 0-.7.3-.9.7 0 .1-.1.2-.1.4v2.5h-.7v-2.4c0-.6-.3-1.1-.8-1.1s-.8.4-.9.7c0 .1-.1.2-.1.4v2.4h-.7v-3.2zM337.7 169.5c0 .3-.2.5-.5.5s-.4-.2-.4-.5c0-.2.2-.5.5-.5.3.1.4.3.4.5zm-.8 5.2v-4h.7v4h-.7zM338.9 171.8v-1.1h.7v.7c.2-.4.7-.8 1.3-.8.6 0 1.4.3 1.4 1.7v2.4h-.7v-2.3c0-.7-.2-1.2-.9-1.2-.5 0-.9.3-1 .8V174.7h-.7l-.1-2.9zM346.9 173.6v1.1h-.7v-.7c-.2.3-.6.8-1.3.8-.6 0-1.4-.4-1.4-1.8v-2.4h.7v2.2c0 .8.2 1.3.9 1.3.5 0 .8-.3 1-.7 0-.1.1-.2.1-.4v-2.5h.7v3.1z"/></g><path d="M349 169.7v1h1.1v.6H349v2.2c0 .5.1.8.5.8.2 0 .3 0 .4-.1v.6c-.1.1-.4.1-.6.1-.3 0-.6-.1-.8-.3-.2-.2-.3-.6-.3-1.1v-2.2h-.6v-.6h.6v-.8l.8-.2z" class="st2"/><g class="st2"><path d="M351.2 172.8c0 1 .6 1.4 1.4 1.4.5 0 .9-.1 1.1-.2l.1.5c-.3.1-.7.3-1.4.3-1.2 0-2-.8-2-2s.7-2.2 1.9-2.2c1.3 0 1.7 1.2 1.7 1.9v.3h-2.8zm2.2-.5c0-.5-.2-1.2-1-1.2s-1.1.7-1.1 1.2h2.1zM354.9 174c.2.1.6.3 1 .3.5 0 .8-.3.8-.6 0-.4-.2-.5-.7-.7-.7-.3-1.1-.7-1.1-1.1 0-.6.5-1.2 1.4-1.2.4 0 .8.1 1 .3l-.2.5c-.2-.1-.5-.2-.8-.2-.4 0-.7.3-.7.6s.2.5.8.7c.7.3 1.1.6 1.1 1.2 0 .7-.6 1.2-1.5 1.2-.4 0-.9-.1-1.1-.3v-.7z"/></g><path class="st3" d="M275.4 127.4v57.1M276.4 185h131.2M408.1 184v-57.2M407 126.3H275.9M275.4 185"/><path class="st1" d="M135.9 238.8h31.4"/><path d="M172.2 238.8l-6.6-2.4v4.8z"/><path class="st1" d="M69.3 101.6v19.5"/><path d="M69.3 126.1l2.4-6.7h-4.8z"/><path class="st1" d="M69.3 23.2h67.2M274.6 23h67.1M135.9 155.2h36.3M238.8 154.7h36.3M171.9 154.9v132.8"/><path d="M171.9 292.6l2.4-6.6h-4.8z"/><path class="st1" d="M239.1 154.9v132.8"/><path d="M239.1 292.6l2.4-6.6h-4.8z"/><path class="st1" d="M69.3 185.3v19.5"/><path d="M69.3 209.7l2.4-6.6h-4.8z"/><path class="st1" d="M69.3 269.2v19.5"/><path d="M69.3 293.7l2.4-6.7h-4.8z"/><path class="st1" d="M275.1 239.3h-30.6"/><path d="M239.6 239.3l6.6-2.4v4.8z"/><path class="st1" d="M341.7 101.6v19.5"/><path d="M341.7 126.1l2.4-6.7h-4.8z"/><path class="st1" d="M341.7 185.3v19.5"/><path d="M341.7 209.7l2.4-6.6h-4.8z"/><path class="st1" d="M341.7 269.2v19.5"/><path d="M341.7 293.7l2.4-6.7h-4.8z"/><path class="st1" d="M341.7 23.2v14.1"/><path d="M341.7 42.3l2.4-6.6h-4.8z"/><path class="st1" d="M69.3 23.2v14.1"/><path d="M69.3 42.3l2.4-6.6h-4.8z"/><g class="st2"><path d="M138.3 148.4v-5.6h.8l1.8 2.9c.4.7.7 1.3 1 1.8-.1-.8-.1-1.4-.1-2.3v-2.4h.7v5.6h-.7l-1.8-2.9c-.4-.6-.8-1.3-1-1.9 0 .7.1 1.4.1 2.3v2.4l-.8.1zM147.5 146.3c0 1.5-1 2.1-2 2.1-1.1 0-1.9-.8-1.9-2.1s.9-2.1 2-2.1 1.9.9 1.9 2.1zm-3.2 0c0 .9.5 1.6 1.2 1.6s1.2-.7 1.2-1.6c0-.7-.3-1.5-1.2-1.5s-1.2.8-1.2 1.5z"/></g><path d="M148.4 145.6v-1.3h.6v.8c.2-.5.6-.9 1.1-.9h.2v.7h-.3c-.5 0-.9.4-1 .9v2.5h-.7l.1-2.7z" class="st2"/><g class="st2"><path d="M151.2 145.4v-1.1h.6v.7c.2-.4.6-.7 1.3-.7.5 0 1 .3 1.1.8.1-.2.3-.4.5-.5.2-.2.5-.3.9-.3.5 0 1.3.4 1.3 1.8v2.4h-.7v-2.3c0-.8-.3-1.2-.9-1.2-.4 0-.7.3-.9.7 0 .1-.1.2-.1.4v2.5h-.7v-2.4c0-.6-.3-1.1-.8-1.1s-.8.4-.9.7c0 .1-.1.2-.1.4v2.4h-.7l.1-3.2zM161 147.4c0 .4 0 .7.1 1h-.7l-.1-.5c-.2.3-.7.6-1.2.6-.8 0-1.2-.6-1.2-1.2 0-1 .9-1.5 2.4-1.5v-.1c0-.3-.1-.9-.9-.9-.4 0-.8.1-1.1.3l-.2-.5c.3-.2.8-.4 1.3-.4 1.2 0 1.5.8 1.5 1.6l.1 1.6zm-.7-1.1c-.8 0-1.7.1-1.7.9 0 .5.3.7.7.7.5 0 .9-.3 1-.7V146.3zM162.2 142.4h.7v5.9h-.7v-5.9z"/></g><g class="st2"><path d="M241.7 148.4v-5.6h.8l1.8 2.9c.4.7.7 1.3 1 1.8-.1-.8-.1-1.4-.1-2.3v-2.4h.7v5.6h-.7l-1.8-2.9c-.4-.6-.8-1.3-1-1.9 0 .7.1 1.4.1 2.3v2.4l-.8.1zM250.8 146.3c0 1.5-1 2.1-2 2.1-1.1 0-1.9-.8-1.9-2.1s.9-2.1 2-2.1 1.9.9 1.9 2.1zm-3.2 0c0 .9.5 1.6 1.2 1.6s1.2-.7 1.2-1.6c0-.7-.3-1.5-1.2-1.5-.8 0-1.2.8-1.2 1.5z"/></g><path d="M251.7 145.6v-1.3h.6v.8c.2-.5.6-.9 1.1-.9h.2v.7h-.3c-.5 0-.9.4-1 .9v2.5h-.7l.1-2.7z" class="st2"/><g class="st2"><path d="M254.5 145.4v-1.1h.6v.7c.2-.4.6-.7 1.3-.7.5 0 1 .3 1.1.8.1-.2.3-.4.5-.5.2-.2.5-.3.9-.3.5 0 1.3.4 1.3 1.8v2.4h-.7v-2.3c0-.8-.3-1.2-.9-1.2-.4 0-.7.3-.9.7 0 .1-.1.2-.1.4v2.5h-.6v-2.4c0-.6-.3-1.1-.8-1.1s-.8.4-.9.7c0 .1-.1.2-.1.4v2.4h-.7v-3.2zM264.3 147.4c0 .4 0 .7.1 1h-.7l-.1-.5c-.2.3-.7.6-1.2.6-.8 0-1.2-.6-1.2-1.2 0-1 .9-1.5 2.4-1.5v-.1c0-.3-.1-.9-.9-.9-.4 0-.8.1-1.1.3l-.2-.5c.3-.2.8-.4 1.3-.4 1.2 0 1.5.8 1.5 1.6v1.6h.1zm-.7-1.1c-.8 0-1.7.1-1.7.9 0 .5.3.7.7.7.5 0 .9-.3 1-.7V146.3zM265.5 142.4h.7v5.9h-.7v-5.9z"/></g><path d="M43.3 194.9h.7v5h2.4v.6h-3.1v-5.6zM50.8 198.5c0 1.5-1 2.1-2 2.1-1.1 0-1.9-.8-1.9-2.1s.9-2.1 2-2.1 1.9.9 1.9 2.1zm-3.2.1c0 .9.5 1.6 1.2 1.6s1.2-.7 1.2-1.6c0-.7-.3-1.5-1.2-1.5-.9-.1-1.2.7-1.2 1.5zM51.9 196.5l.5 2.1c.1.5.2.9.3 1.3.1-.4.2-.8.4-1.3l.7-2.1h.6l.6 2c.2.5.3.9.4 1.3.1-.4.2-.8.3-1.3l.6-2h.7l-1.3 4H55l-.6-1.9c-.1-.4-.3-.9-.4-1.3-.1.5-.2.9-.4 1.3l-.7 1.9h-.7l-1.2-4h.9zM43.3 277.1h.7v5h2.4v.6h-3.1v-5.6zM50.8 280.7c0 1.5-1 2.1-2 2.1-1.1 0-1.9-.8-1.9-2.1s.9-2.1 2-2.1 1.9.9 1.9 2.1zm-3.2 0c0 .9.5 1.6 1.2 1.6s1.2-.7 1.2-1.6c0-.7-.3-1.5-1.2-1.5-.9 0-1.2.8-1.2 1.5zM51.9 278.7l.5 2.1c.1.5.2.9.3 1.3.1-.4.2-.8.4-1.3l.7-2.1h.6l.6 2c.2.5.3.9.4 1.3.1-.4.2-.8.3-1.3l.6-2h.7l-1.3 4H55l-.6-1.9c-.1-.5-.3-.9-.4-1.3-.1.5-.2.9-.4 1.3l-.7 1.9h-.7l-1.2-4h.9zM350.5 277.1h.7v5h2.4v.6h-3.1v-5.6zM358 280.7c0 1.5-1 2.1-2 2.1-1.1 0-1.9-.8-1.9-2.1s.9-2.1 2-2.1 1.9.9 1.9 2.1zm-3.2 0c0 .9.5 1.6 1.2 1.6s1.2-.7 1.2-1.6c0-.7-.3-1.5-1.2-1.5-.9 0-1.2.8-1.2 1.5zM359.1 278.7l.5 2.1c.1.5.2.9.3 1.3.1-.4.2-.8.4-1.3l.7-2.1h.6l.6 2c.1.5.3.9.4 1.3.1-.4.2-.8.3-1.3l.6-2h.7l-1.3 4h-.7l-.6-1.9c-.1-.5-.3-.9-.4-1.3-.1.5-.2.9-.4 1.3l-.7 1.9h-.7l-1.2-4h.9zM350.5 194.2h.7v5h2.4v.6h-3.1v-5.6zM358 197.8c0 1.5-1 2.1-2 2.1-1.1 0-1.9-.8-1.9-2.1s.9-2.1 2-2.1 1.9.9 1.9 2.1zm-3.2 0c0 .9.5 1.6 1.2 1.6s1.2-.7 1.2-1.6c0-.7-.3-1.5-1.2-1.5-.9 0-1.2.8-1.2 1.5zM359.1 195.8l.5 2.1c.1.4.2.9.3 1.3.1-.4.2-.8.4-1.3l.7-2.1h.6l.6 2c.1.5.3.9.4 1.3.1-.4.2-.8.3-1.3l.6-2h.7l-1.3 4h-.7l-.6-1.9c-.1-.5-.3-.9-.4-1.3-.1.5-.2.9-.4 1.3l-.7 1.9h-.7l-1.2-4h.9z" class="st2"/><g class="st2"><path d="M138.3 232.8v-5.6h.8l1.8 2.9c.4.7.7 1.3 1 1.8-.1-.8-.1-1.4-.1-2.3v-2.4h.7v5.6h-.7l-1.8-2.9c-.4-.6-.8-1.3-1-1.9 0 .7.1 1.4.1 2.3v2.4l-.8.1zM147.5 230.7c0 1.5-1 2.1-2 2.1-1.1 0-1.9-.8-1.9-2.1s.9-2.1 2-2.1 1.9.9 1.9 2.1zm-3.2 0c0 .9.5 1.6 1.2 1.6s1.2-.7 1.2-1.6c0-.7-.3-1.5-1.2-1.5s-1.2.8-1.2 1.5z"/></g><path d="M148.4 230v-1.3h.6v.8c.2-.5.6-.9 1.1-.9h.2v.7h-.3c-.5 0-.9.4-1 .9v2.5h-.7l.1-2.7z" class="st2"/><g class="st2"><path d="M151.2 229.8v-1.1h.6v.7c.2-.4.6-.7 1.3-.7.5 0 1 .3 1.1.8.1-.2.3-.4.5-.5.2-.2.5-.3.9-.3.5 0 1.3.4 1.3 1.8v2.4h-.7v-2.3c0-.8-.3-1.2-.9-1.2-.4 0-.7.3-.9.7 0 .1-.1.2-.1.4v2.5h-.7v-2.4c0-.6-.3-1.1-.8-1.1s-.8.4-.9.7c0 .1-.1.2-.1.4v2.4h-.7l.1-3.2zM161 231.8c0 .3 0 .7.1 1h-.7l-.1-.5c-.2.3-.7.6-1.2.6-.8 0-1.2-.6-1.2-1.2 0-1 .9-1.5 2.4-1.5v-.1c0-.3-.1-.9-.9-.9-.4 0-.8.1-1.1.3l-.2-.5c.3-.2.8-.4 1.3-.4 1.2 0 1.5.8 1.5 1.6l.1 1.6zm-.7-1.1c-.8 0-1.7.1-1.7.9 0 .5.3.7.7.7.5 0 .9-.3 1-.7V230.7zM162.2 226.8h.7v5.9h-.7v-5.9z"/></g><g class="st2"><path d="M241.7 232.8v-5.6h.8l1.8 2.9c.4.7.7 1.3 1 1.8-.1-.8-.1-1.4-.1-2.3v-2.4h.7v5.6h-.7l-1.8-2.9c-.4-.6-.8-1.3-1-1.9 0 .7.1 1.4.1 2.3v2.4l-.8.1zM250.8 230.7c0 1.5-1 2.1-2 2.1-1.1 0-1.9-.8-1.9-2.1s.9-2.1 2-2.1 1.9.9 1.9 2.1zm-3.2 0c0 .9.5 1.6 1.2 1.6s1.2-.7 1.2-1.6c0-.7-.3-1.5-1.2-1.5-.8 0-1.2.8-1.2 1.5z"/></g><g class="st2"><path d="M251.7 230v-1.3h.6v.8c.2-.5.6-.9 1.1-.9h.2v.7h-.3c-.5 0-.9.4-1 .9v2.5h-.7l.1-2.7z"/></g><g class="st2"><path d="M254.5 229.8v-1.1h.6v.7c.2-.4.6-.7 1.3-.7.5 0 1 .3 1.1.8.1-.2.3-.4.5-.5.2-.2.5-.3.9-.3.5 0 1.3.4 1.3 1.8v2.4h-.7v-2.3c0-.8-.3-1.2-.9-1.2-.4 0-.7.3-.9.7 0 .1-.1.2-.1.4v2.5h-.6v-2.4c0-.6-.3-1.1-.8-1.1s-.8.4-.9.7c0 .1-.1.2-.1.4v2.4h-.7v-3.2zM264.3 231.8c0 .3 0 .7.1 1h-.7l-.1-.5c-.2.3-.7.6-1.2.6-.8 0-1.2-.6-1.2-1.2 0-1 .9-1.5 2.4-1.5v-.1c0-.3-.1-.9-.9-.9-.4 0-.8.1-1.1.3l-.2-.5c.3-.2.8-.4 1.3-.4 1.2 0 1.5.8 1.5 1.6v1.6h.1zm-.7-1.1c-.8 0-1.7.1-1.7.9 0 .5.3.7.7.7.5 0 .9-.3 1-.7V230.7zM265.5 226.8h.7v5.9h-.7v-5.9z"/></g><g class="st2"><path d="M164.3 15.7c.3-.1.8-.1 1.4-.1.7 0 1.2.1 1.6.4.3.2.5.6.5 1 0 .6-.4 1-1 1.3.5.1 1.2.6 1.2 1.4 0 .5-.2.9-.5 1.1-.4.4-1 .5-2 .5-.5 0-.9 0-1.1-.1l-.1-5.5zm.7 2.3h.7c.8 0 1.2-.4 1.2-1 0-.7-.5-.9-1.3-.9-.3 0-.5 0-.7.1V18h.1zm0 2.8h.6c.8 0 1.5-.3 1.5-1.1s-.7-1.1-1.5-1.1h-.6v2.2zM168.8 15.3h.7v6h-.7v-6zM174.6 19.2c0 1.5-1.1 2.2-2 2.2-1.1 0-2-.8-2-2.1 0-1.4.9-2.2 2-2.2 1.2 0 2 .9 2 2.1zm-3.3.1c0 .9.5 1.6 1.2 1.6s1.2-.7 1.2-1.6c0-.7-.3-1.6-1.2-1.6s-1.2.8-1.2 1.6zM179.2 19.2c0 1.5-1.1 2.2-2 2.2-1.1 0-2-.8-2-2.1 0-1.4.9-2.2 2-2.2 1.2 0 2 .9 2 2.1zm-3.2.1c0 .9.5 1.6 1.2 1.6s1.2-.7 1.2-1.6c0-.7-.3-1.6-1.2-1.6s-1.2.8-1.2 1.6zM183.7 15.3v6.1h-.7v-.7c-.2.5-.7.8-1.4.8-1 0-1.8-.8-1.8-2.1 0-1.4.8-2.2 1.8-2.2.6 0 1.1.3 1.2.6v-2.5h.9zm-.7 3.6v-.3c-.1-.5-.5-.9-1.1-.9-.8 0-1.2.7-1.2 1.6 0 .8.4 1.5 1.2 1.5.5 0 1-.3 1.1-.9v-1zM190.3 17.2v3.5c0 .9-.2 1.5-.6 1.9-.4.4-1 .5-1.5.5s-1-.1-1.4-.3l.2-.6c.3.2.7.3 1.2.3.8 0 1.3-.4 1.3-1.4v-.5c-.2.4-.7.7-1.3.7-1 0-1.8-.9-1.8-2 0-1.4.9-2.2 1.9-2.2.7 0 1.1.4 1.3.7v-.6h.7zm-.8 1.6v-.3c-.1-.4-.5-.8-1-.8-.7 0-1.2.6-1.2 1.6 0 .8.4 1.5 1.2 1.5.5 0 .9-.3 1-.8 0-.1.1-.3.1-.4v-.8h-.1zM191.5 15.3h.7v6h-.7v-6zM197 20.2v1.1h-.7v-.7c-.2.3-.6.8-1.4.8-.6 0-1.4-.4-1.4-1.8v-2.4h.7v2.3c0 .8.2 1.3.9 1.3.5 0 .9-.3 1-.7 0-.1.1-.2.1-.4v-2.5h.7l.1 3zM201.1 21.2c-.2.1-.6.2-1.2.2-1.2 0-2-.8-2-2.1s.9-2.2 2.2-2.2c.4 0 .8.1 1 .2l-.2.6c-.2-.1-.5-.2-.9-.2-.9 0-1.5.7-1.5 1.6 0 1 .6 1.5 1.4 1.5.4 0 .7-.1.9-.2l.3.6zM205.7 19.2c0 1.5-1.1 2.2-2 2.2-1.1 0-2-.8-2-2.1 0-1.4.9-2.2 2-2.2 1.2 0 2 .9 2 2.1zm-3.3.1c0 .9.5 1.6 1.2 1.6s1.2-.7 1.2-1.6c0-.7-.3-1.6-1.2-1.6s-1.2.8-1.2 1.6zM206.5 20.5c.2.1.6.3 1 .3.5 0 .8-.3.8-.6 0-.4-.2-.6-.8-.8-.7-.3-1.1-.7-1.1-1.2 0-.7.5-1.2 1.4-1.2.4 0 .8.1 1 .3l-.2.5c-.2-.1-.5-.2-.8-.2-.4 0-.7.3-.7.6s.2.5.8.7c.7.3 1.1.6 1.1 1.2 0 .7-.6 1.2-1.5 1.2-.5 0-.9-.1-1.2-.3l.2-.5zM210.4 19.4c0 1 .7 1.4 1.4 1.4.5 0 .9-.1 1.1-.2l.1.5c-.3.1-.7.3-1.4.3-1.3 0-2-.8-2-2.1 0-1.2.7-2.2 1.9-2.2 1.3 0 1.7 1.2 1.7 1.9v.3h-2.8v.1zm2.2-.5c0-.5-.2-1.2-1-1.2s-1.1.7-1.1 1.2h2.1zM216.1 15.3h.7v6h-.7v-6zM218.5 19.4c0 1 .7 1.4 1.4 1.4.5 0 .9-.1 1.1-.2l.1.5c-.3.1-.7.3-1.4.3-1.3 0-2-.8-2-2.1 0-1.2.7-2.2 1.9-2.2 1.3 0 1.7 1.2 1.7 1.9v.3h-2.8v.1zm2.2-.5c0-.5-.2-1.2-1-1.2s-1.1.7-1.1 1.2h2.1zM222.2 20.5c.2.1.6.3 1 .3.5 0 .8-.3.8-.6 0-.4-.2-.6-.8-.8-.7-.3-1.1-.7-1.1-1.2 0-.7.5-1.2 1.4-1.2.4 0 .8.1 1 .3l-.2.5c-.2-.1-.5-.2-.8-.2-.4 0-.7.3-.7.6s.2.5.8.7c.7.3 1.1.6 1.1 1.2 0 .7-.6 1.2-1.5 1.2-.5 0-.9-.1-1.2-.3l.2-.5zM225.6 20.5c.2.1.6.3 1 .3.5 0 .8-.3.8-.6 0-.4-.2-.6-.8-.8-.7-.3-1.1-.7-1.1-1.2 0-.7.5-1.2 1.4-1.2.4 0 .8.1 1 .3l-.2.5c-.2-.1-.5-.2-.8-.2-.4 0-.7.3-.7.6s.2.5.8.7c.7.3 1.1.6 1.1 1.2 0 .7-.6 1.2-1.5 1.2-.5 0-.9-.1-1.2-.3l.2-.5zM231.8 16v1.2h1.1v.6h-1.1V20c0 .5.1.8.6.8.2 0 .3 0 .4-.1v.6c-.1.1-.4.1-.7.1s-.6-.1-.8-.3c-.2-.2-.3-.6-.3-1.1v-2.2h-.6v-.6h.6v-1l.8-.2zM233.7 15.3h.7v2.6c.1-.2.3-.4.5-.5s.5-.2.8-.2c.6 0 1.4.3 1.4 1.8v2.4h-.7V19c0-.7-.2-1.2-1-1.2-.5 0-.9.3-1 .7 0 .1-.1.2-.1.4v2.5h-.7v-6.1h.1zM240.7 21.3l-.1-.5c-.2.3-.7.6-1.3.6-.8 0-1.3-.6-1.3-1.2 0-1 .9-1.5 2.5-1.5v-.1c0-.3-.1-1-.9-1-.4 0-.8.1-1.1.3l-.2-.5c.3-.2.8-.4 1.4-.4 1.3 0 1.6.9 1.6 1.7v1.5c0 .4 0 .7.1 1h-.7v.1zm-.1-2.1c-.8 0-1.7.1-1.7.9 0 .5.3.7.7.7.5 0 .9-.3 1-.7V19.2zM242.5 18.3v-1.1h.7v.7c.2-.4.7-.8 1.4-.8.6 0 1.5.3 1.5 1.8v2.5h-.7V19c0-.7-.2-1.2-1-1.2-.5 0-.9.3-1 .8 0 .1-.1.2-.1.3v2.5h-.7l-.1-3.1z"/></g><g class="st2"><path d="M186.5 31.5V31l.6-.6c1.4-1.3 2-2.1 2.1-2.9 0-.6-.3-1.1-1.1-1.1-.5 0-.9.3-1.2.5l-.2-.5c.4-.3.9-.6 1.6-.6 1.2 0 1.7.8 1.7 1.6 0 1-.7 1.8-1.9 3l-.4.4h2.5v.6h-3.7v.1zM190.9 31.1c0-.3.2-.5.5-.5s.5.2.5.5-.2.5-.5.5-.5-.2-.5-.5zM195.9 26.6h-2.1l-.2 1.4h.5c.4 0 .8.1 1.2.3.4.2.8.7.8 1.4 0 1.1-.9 1.9-2.1 1.9-.6 0-1.1-.2-1.4-.3l.2-.6c.2.1.7.3 1.2.3.7 0 1.3-.5 1.3-1.2s-.5-1.2-1.6-1.2c-.3 0-.6 0-.8.1l.4-2.7h2.6v.6zM199 28.5v-1.1h.7v.7c.2-.4.6-.8 1.3-.8.6 0 1 .3 1.2.8.1-.2.3-.4.5-.5.2-.2.5-.3.9-.3.5 0 1.4.4 1.4 1.8v2.4h-.7v-2.3c0-.8-.3-1.3-.9-1.3-.4 0-.8.3-.9.7 0 .1-.1.2-.1.4v2.5h-.7V29c0-.7-.3-1.1-.9-1.1-.5 0-.8.4-.9.7 0 .1-.1.2-.1.4v2.5h-.8v-3zM206.1 28.5v-1.1h.7v.7c.2-.4.6-.8 1.3-.8.6 0 1 .3 1.2.8.1-.2.3-.4.5-.5.2-.2.5-.3.9-.3.5 0 1.4.4 1.4 1.8v2.4h-.7v-2.3c0-.8-.3-1.3-.9-1.3-.4 0-.8.3-.9.7 0 .1-.1.2-.1.4v2.5h-.7V29c0-.7-.3-1.1-.9-1.1-.5 0-.8.4-.9.7 0 .1-.1.2-.1.4v2.5h-.7v-3h-.1zM216.9 29.4c0 1.5-1.1 2.2-2 2.2-1.1 0-2-.8-2-2.1 0-1.4.9-2.2 2-2.2 1.2 0 2 .9 2 2.1zm-3.3.1c0 .9.5 1.6 1.2 1.6s1.2-.7 1.2-1.6c0-.7-.3-1.6-1.2-1.6s-1.2.8-1.2 1.6zM217.9 25.5h.7v6h-.7v-6zM219.2 31.9l2.4-6.2h.6l-2.4 6.2h-.6zM222.8 25.5h.7v6h-.7v-6z"/></g><g class="st2"><path d="M18.1 64.8c.3-.1.8-.1 1.4-.1.7 0 1.2.1 1.6.4.3.2.5.6.5 1 0 .6-.4 1-1 1.3.5.1 1.2.6 1.2 1.4 0 .5-.2.9-.5 1.1-.4.4-1 .5-2 .5-.5 0-.9 0-1.1-.1v-5.5h-.1zm.7 2.4h.7c.8 0 1.2-.4 1.2-1 0-.7-.5-.9-1.3-.9-.3 0-.5 0-.7.1l.1 1.8zm0 2.7h.6c.8 0 1.5-.3 1.5-1.1s-.7-1.1-1.5-1.1h-.6v2.2zM22.7 64.4h.7v6h-.7v-6zM28.4 68.4c0 1.5-1.1 2.2-2 2.2-1.1 0-2-.8-2-2.1 0-1.4.9-2.2 2-2.2 1.2 0 2 .8 2 2.1zm-3.3 0c0 .9.5 1.6 1.2 1.6s1.2-.7 1.2-1.6c0-.7-.3-1.6-1.2-1.6s-1.2.8-1.2 1.6zM33.1 68.4c0 1.5-1.1 2.2-2 2.2-1.1 0-2-.8-2-2.1 0-1.4.9-2.2 2-2.2 1.2 0 2 .8 2 2.1zm-3.3 0c0 .9.5 1.6 1.2 1.6s1.2-.7 1.2-1.6c0-.7-.3-1.6-1.2-1.6s-1.2.8-1.2 1.6zM37.6 64.4v6.1h-.7v-.7c-.2.5-.7.8-1.4.8-1 0-1.8-.8-1.8-2.1 0-1.4.8-2.2 1.8-2.2.6 0 1.1.3 1.2.6v-2.5h.9zm-.8 3.6v-.3c-.1-.5-.5-.9-1.1-.9-.8 0-1.2.7-1.2 1.6 0 .8.4 1.5 1.2 1.5.5 0 1-.3 1.1-.9v-1zM44.2 66.4v3.5c0 .9-.2 1.5-.6 1.9-.4.4-1 .5-1.5.5s-1-.1-1.4-.3l.2-.6c.3.2.7.3 1.2.3.8 0 1.3-.4 1.3-1.4v-.5c-.2.4-.7.7-1.3.7-1 0-1.8-.9-1.8-2 0-1.4.9-2.2 1.9-2.2.7 0 1.1.4 1.3.7v-.6h.7zm-.8 1.6v-.3c-.1-.4-.5-.8-1-.8-.7 0-1.2.6-1.2 1.6 0 .8.4 1.5 1.2 1.5.5 0 .9-.3 1-.8 0-.1.1-.3.1-.4l-.1-.8zM45.4 64.4h.7v6h-.7v-6zM50.8 69.3v1.1h-.7v-.7c-.2.3-.6.8-1.4.8-.6 0-1.4-.4-1.4-1.8v-2.4h.7v2.3c0 .8.2 1.3.9 1.3.5 0 .9-.3 1-.7 0-.1.1-.2.1-.4v-2.5h.7l.1 3c-.1 0 0 0 0 0zM55 70.3c-.2.1-.6.2-1.2.2-1.2 0-2-.8-2-2.1s.9-2.2 2.2-2.2c.4 0 .8.1 1 .2l-.2.6c-.2-.1-.5-.2-.9-.2-.9 0-1.5.7-1.5 1.6 0 1 .6 1.5 1.4 1.5.4 0 .7-.1.9-.2l.3.6zM59.5 68.4c0 1.5-1.1 2.2-2 2.2-1.1 0-2-.8-2-2.1 0-1.4.9-2.2 2-2.2 1.2 0 2 .8 2 2.1zm-3.2 0c0 .9.5 1.6 1.2 1.6s1.2-.7 1.2-1.6c0-.7-.3-1.6-1.2-1.6s-1.2.8-1.2 1.6zM60.4 69.7c.2.1.6.3 1 .3.5 0 .8-.3.8-.6 0-.4-.2-.6-.8-.8-.7-.3-1.1-.7-1.1-1.2 0-.7.5-1.2 1.4-1.2.4 0 .8.1 1 .3l-.2.5c-.2-.1-.5-.2-.8-.2-.4 0-.7.3-.7.6s.2.5.8.7c.7.3 1.1.6 1.1 1.2 0 .7-.6 1.2-1.5 1.2-.5 0-.9-.1-1.2-.3l.2-.5zM64.3 68.5c0 1 .7 1.4 1.4 1.4.5 0 .9-.1 1.1-.2l.1.5c-.3.1-.7.3-1.4.3-1.3 0-2-.8-2-2.1 0-1.2.7-2.2 1.9-2.2 1.3 0 1.7 1.2 1.7 1.9v.3l-2.8.1zm2.2-.5c0-.5-.2-1.2-1-1.2s-1.1.7-1.1 1.2h2.1zM71.3 65.6l-1 .5-.1-.6 1.2-.6h.6v5.5h-.7v-4.8zM74.1 70c0-.3.2-.5.5-.5s.5.2.5.5-.2.5-.5.5c-.3.1-.5-.2-.5-.5zM78.1 70.5V69h-2.6v-.5L78 65h.8v3.4h.8v.6h-.8v1.5h-.7zm0-2.1v-1.8-.9c-.2.3-.3.6-.5.8l-1.4 1.9h1.9zM83.8 68.1v.5H80v-.5h3.8zM84.4 70.5V70l.6-.6c1.4-1.3 2-2.1 2.1-2.9 0-.6-.3-1.1-1.1-1.1-.5 0-.9.3-1.2.5l-.2-.5c.4-.3.9-.6 1.6-.6 1.2 0 1.7.8 1.7 1.6 0 1-.7 1.8-1.9 3l-.4.4h2.5v.6l-3.7.1zM88.8 70c0-.3.2-.5.5-.5s.5.2.5.5-.2.5-.5.5c-.3.1-.5-.2-.5-.5zM93.8 65.6h-2.1l-.2 1.4h.5c.4 0 .8.1 1.2.3.4.2.8.7.8 1.4 0 1.1-.9 1.9-2.1 1.9-.6 0-1.1-.2-1.4-.3l.2-.6c.2.1.7.3 1.2.3.7 0 1.3-.5 1.3-1.2s-.5-1.2-1.6-1.2c-.3 0-.6 0-.8.1l.4-2.7h2.6v.6zM96.9 67.5v-1.1h.7v.7c.2-.4.6-.8 1.3-.8.6 0 1 .3 1.2.8.1-.2.3-.4.5-.5.2-.2.5-.3.9-.3.5 0 1.4.4 1.4 1.8v2.4h-.7v-2.3c0-.8-.3-1.3-.9-1.3-.4 0-.8.3-.9.7 0 .1-.1.2-.1.4v2.5h-.7V68c0-.7-.3-1.1-.9-1.1-.5 0-.8.4-.9.7 0 .1-.1.2-.1.4v2.5H97l-.1-3zM104 67.5v-1.1h.7v.7c.2-.4.6-.8 1.3-.8.6 0 1 .3 1.2.8.1-.2.3-.4.5-.5.2-.2.5-.3.9-.3.5 0 1.4.4 1.4 1.8v2.4h-.7v-2.3c0-.8-.3-1.3-.9-1.3-.4 0-.8.3-.9.7 0 .1-.1.2-.1.4v2.5h-.7V68c0-.7-.3-1.1-.9-1.1-.5 0-.8.4-.9.7 0 .1-.1.2-.1.4v2.5h-.8v-3zM114.8 68.4c0 1.5-1.1 2.2-2 2.2-1.1 0-2-.8-2-2.1 0-1.4.9-2.2 2-2.2 1.2 0 2 .8 2 2.1zm-3.2 0c0 .9.5 1.6 1.2 1.6s1.2-.7 1.2-1.6c0-.7-.3-1.6-1.2-1.6s-1.2.8-1.2 1.6zM115.8 64.4h.7v6h-.7v-6zM117.1 70.8l2.4-6.2h.6l-2.4 6.2h-.6zM120.7 64.4h.7v6h-.7v-6z"/></g><g class="st2"><path d="M33.6 74.8c-.6.8-1.1 1.9-1.1 3.5 0 1.5.5 2.6 1.1 3.5H33c-.5-.7-1.1-1.8-1.1-3.5s.6-2.8 1.1-3.5h.6zM34.4 77.7v-1.1h.6v.7c.2-.4.6-.8 1.3-.8.6 0 1 .3 1.2.8.1-.2.3-.4.5-.5.2-.2.5-.3.9-.3.5 0 1.4.4 1.4 1.8v2.4h-.7v-2.3c0-.8-.3-1.3-.9-1.3-.4 0-.8.3-.9.7 0 .1-.1.2-.1.4v2.5H37v-2.5c0-.7-.3-1.1-.9-1.1-.5 0-.8.4-.9.7 0 .1-.1.2-.1.4v2.5h-.7v-3zM42.3 75.4c0 .3-.2.5-.5.5s-.5-.2-.5-.5.2-.5.5-.5.5.2.5.5zm-.8 5.3v-4.1h.7v4.1h-.7zM43.5 74.6h.7v6h-.7v-6zM49 74.6v6.1h-.7V80c-.2.5-.7.8-1.4.8-1 0-1.8-.8-1.8-2.1 0-1.4.8-2.2 1.8-2.2.6 0 1.1.3 1.2.6v-2.5h.9zm-.7 3.6v-.3c-.1-.5-.5-.9-1.1-.9-.8 0-1.2.7-1.2 1.6 0 .8.4 1.5 1.2 1.5.5 0 1-.3 1.1-.9v-1zM52.1 74.6h.7v2.6c.1-.2.3-.4.5-.5s.5-.2.8-.2c.6 0 1.4.3 1.4 1.8v2.4h-.7v-2.4c0-.7-.2-1.2-1-1.2-.5 0-.9.3-1 .7 0 .1-.1.2-.1.4v2.5H52l.1-6.1zM56.9 76.6l.9 2.4c.1.3.2.6.3.8.1-.2.2-.6.3-.9l.8-2.4h.8l-1.1 2.9c-.5 1.4-.9 2.1-1.4 2.6-.4.3-.7.5-.9.5l-.2-.6c.2-.1.4-.2.7-.4.2-.2.5-.5.6-.8 0-.1.1-.1.1-.2 0 0 0-.1-.1-.2l-1.5-3.8.7.1zM60.7 77.9v-1.3h.7v.7c.3-.5.8-.8 1.5-.8 1 0 1.7.8 1.7 2.1 0 1.5-.9 2.2-1.9 2.2-.5 0-1-.2-1.3-.6v2.2h-.7v-4.5zm.7 1.1v.3c.1.5.6.9 1.1.9.8 0 1.2-.6 1.2-1.6 0-.8-.4-1.5-1.2-1.5-.5 0-1 .4-1.1.9 0 .1-.1.2-.1.3l.1.7zM69.2 78.6c0 1.5-1.1 2.2-2 2.2-1.1 0-2-.8-2-2.1 0-1.4.9-2.2 2-2.2 1.2 0 2 .8 2 2.1zm-3.2 0c0 .9.5 1.6 1.2 1.6s1.2-.7 1.2-1.6c0-.7-.3-1.6-1.2-1.6s-1.2.8-1.2 1.6zM73.7 76.6v3.5c0 .9-.2 1.5-.6 1.9s-1 .5-1.5.5-1-.1-1.4-.3l.2-.6c.3.2.7.3 1.2.3.8 0 1.3-.4 1.3-1.4V80c-.2.4-.7.7-1.3.7-1 0-1.8-.9-1.8-2 0-1.4.9-2.2 1.9-2.2.7 0 1.1.4 1.3.7v-.6h.7zm-.7 1.6v-.3c-.1-.4-.5-.8-1-.8-.7 0-1.2.6-1.2 1.6 0 .8.4 1.5 1.2 1.5.5 0 .9-.3 1-.8 0-.1.1-.3.1-.4l-.1-.8zM74.9 74.6h.7v6h-.7v-6zM77.2 76.6l.9 2.4c.1.3.2.6.3.8.1-.2.2-.6.3-.9l.8-2.4h.8l-1.1 2.9c-.5 1.4-.9 2.1-1.4 2.6-.4.3-.7.5-.9.5l-.2-.6c.2-.1.4-.2.7-.4.2-.2.5-.5.6-.8 0-.1.1-.1.1-.2 0 0 0-.1-.1-.2l-1.5-3.8.7.1zM83.8 80.5c-.2.1-.6.2-1.2.2-1.2 0-2-.8-2-2.1s.9-2.2 2.2-2.2c.4 0 .8.1 1 .2l-.2.6c-.2-.1-.5-.2-.9-.2-.9 0-1.5.7-1.5 1.6 0 1 .6 1.5 1.4 1.5.4 0 .7-.1.9-.2l.3.6zM86.9 80.7l-.1-.5c-.2.3-.7.6-1.3.6-.8 0-1.3-.6-1.3-1.2 0-1 .9-1.5 2.5-1.5V78c0-.3-.1-1-.9-1-.4 0-.8.1-1.1.3l-.2-.5c.3-.2.8-.4 1.4-.4 1.3 0 1.6.9 1.6 1.7v1.5c0 .4 0 .7.1 1l-.7.1zm-.1-2.1c-.8 0-1.7.1-1.7.9 0 .5.3.7.7.7.5 0 .9-.3 1-.7V78.6zM89.2 78.7c0 1 .7 1.4 1.4 1.4.5 0 .9-.1 1.1-.2l.1.5c-.3.1-.7.3-1.4.3-1.3 0-2-.8-2-2.1 0-1.2.7-2.2 1.9-2.2 1.3 0 1.7 1.2 1.7 1.9v.3l-2.8.1zm2.2-.5c0-.5-.2-1.2-1-1.2s-1.1.7-1.1 1.2h2.1zM93 77.7v-1.1h.7v.7c.2-.4.6-.8 1.3-.8.6 0 1 .3 1.2.8.1-.2.3-.4.5-.5.2-.2.5-.3.9-.3.5 0 1.4.4 1.4 1.8v2.4h-.7v-2.3c0-.8-.3-1.3-.9-1.3-.4 0-.8.3-.9.7 0 .1-.1.2-.1.4v2.5h-.7v-2.5c0-.7-.3-1.1-.9-1.1-.5 0-.8.4-.9.7 0 .1-.1.2-.1.4v2.5H93v-3zM100.9 75.4c0 .3-.2.5-.5.5s-.5-.2-.5-.5.2-.5.5-.5c.4 0 .5.2.5.5zm-.8 5.3v-4.1h.7v4.1h-.7zM104.4 80.7l-.1-.5c-.2.3-.7.6-1.3.6-.8 0-1.3-.6-1.3-1.2 0-1 .9-1.5 2.5-1.5V78c0-.3-.1-1-.9-1-.4 0-.8.1-1.1.3l-.2-.5c.3-.2.8-.4 1.4-.4 1.3 0 1.6.9 1.6 1.7v1.5c0 .4 0 .7.1 1l-.7.1zm-.1-2.1c-.8 0-1.7.1-1.7.9 0 .5.3.7.7.7.5 0 .9-.3 1-.7V78.6zM105.7 81.7c.6-.8 1.1-1.9 1.1-3.5 0-1.5-.5-2.6-1.1-3.5h.6c.5.7 1.1 1.8 1.1 3.5s-.6 2.7-1.1 3.5h-.6z"/></g><g class="st2"><path d="M303.1 74.8c-.6.8-1.1 1.9-1.1 3.5 0 1.5.5 2.6 1.1 3.5h-.6c-.5-.7-1.1-1.8-1.1-3.5s.6-2.8 1.1-3.5h.6zM303.7 79.9c.2.1.6.3 1 .3.5 0 .8-.3.8-.6 0-.4-.2-.6-.8-.8-.7-.3-1.1-.7-1.1-1.2 0-.7.5-1.2 1.4-1.2.4 0 .8.1 1 .3l-.2.5c-.2-.1-.5-.2-.8-.2-.4 0-.7.3-.7.6s.2.5.8.7c.7.3 1.1.6 1.1 1.2 0 .7-.6 1.2-1.5 1.2-.5 0-.9-.1-1.2-.3l.2-.5zM307.6 78.7c0 1 .7 1.4 1.4 1.4.5 0 .9-.1 1.1-.2l.1.5c-.3.1-.7.3-1.4.3-1.3 0-2-.8-2-2.1 0-1.2.7-2.2 1.9-2.2 1.3 0 1.7 1.2 1.7 1.9v.3l-2.8.1zm2.2-.5c0-.5-.2-1.2-1-1.2s-1.1.7-1.1 1.2h2.1zM311.8 76.6l.8 2.3c.1.4.2.7.3 1.1.1-.3.2-.7.3-1.1l.8-2.3h.8l-1.6 4.1h-.7l-1.6-4.1h.9zM315.9 78.7c0 1 .7 1.4 1.4 1.4.5 0 .9-.1 1.1-.2l.1.5c-.3.1-.7.3-1.4.3-1.3 0-2-.8-2-2.1 0-1.2.7-2.2 1.9-2.2 1.3 0 1.7 1.2 1.7 1.9v.3l-2.8.1zm2.2-.5c0-.5-.2-1.2-1-1.2s-1.1.7-1.1 1.2h2.1zM319.7 77.8v-1.3h.7v.8c.2-.6.6-.9 1.1-.9h.2v.7h-.3c-.5 0-.9.4-1 1v2.5h-.7v-2.8zM322.8 78.7c0 1 .7 1.4 1.4 1.4.5 0 .9-.1 1.1-.2l.1.5c-.3.1-.7.3-1.4.3-1.3 0-2-.8-2-2.1 0-1.2.7-2.2 1.9-2.2 1.3 0 1.7 1.2 1.7 1.9v.3l-2.8.1zm2.2-.5c0-.5-.2-1.2-1-1.2s-1.1.7-1.1 1.2h2.1zM328.5 74.6h.7v2.6c.1-.2.3-.4.5-.5s.5-.2.8-.2c.6 0 1.4.3 1.4 1.8v2.4h-.7v-2.4c0-.7-.2-1.2-1-1.2-.5 0-.9.3-1 .7 0 .1-.1.2-.1.4v2.5h-.7v-6.1h.1zM333.4 76.6l.9 2.4c.1.3.2.6.3.8.1-.2.2-.6.3-.9l.8-2.4h.8l-1.1 2.9c-.5 1.4-.9 2.1-1.4 2.6-.4.3-.7.5-.9.5l-.2-.6c.2-.1.4-.2.7-.4.2-.2.5-.5.6-.8 0-.1.1-.1.1-.2 0 0 0-.1-.1-.2l-1.5-3.8.7.1zM337.1 77.9v-1.3h.7v.7c.3-.5.8-.8 1.5-.8 1 0 1.7.8 1.7 2.1 0 1.5-.9 2.2-1.9 2.2-.5 0-1-.2-1.3-.6v2.2h-.7v-4.5zm.7 1.1v.3c.1.5.6.9 1.1.9.8 0 1.2-.6 1.2-1.6 0-.8-.4-1.5-1.2-1.5-.5 0-1 .4-1.1.9 0 .1-.1.2-.1.3v.7h.1zM345.7 78.6c0 1.5-1.1 2.2-2 2.2-1.1 0-2-.8-2-2.1 0-1.4.9-2.2 2-2.2 1.2 0 2 .8 2 2.1zm-3.3 0c0 .9.5 1.6 1.2 1.6s1.2-.7 1.2-1.6c0-.7-.3-1.6-1.2-1.6s-1.2.8-1.2 1.6zM350.1 76.6v3.5c0 .9-.2 1.5-.6 1.9s-1 .5-1.5.5-1-.1-1.4-.3l.2-.6c.3.2.7.3 1.2.3.8 0 1.3-.4 1.3-1.4V80c-.2.4-.7.7-1.3.7-1 0-1.8-.9-1.8-2 0-1.4.9-2.2 1.9-2.2.7 0 1.1.4 1.3.7v-.6h.7zm-.7 1.6v-.3c-.1-.4-.5-.8-1-.8-.7 0-1.2.6-1.2 1.6 0 .8.4 1.5 1.2 1.5.5 0 .9-.3 1-.8 0-.1.1-.3.1-.4v-.8h-.1zM351.4 74.6h.7v6h-.7v-6zM353.6 76.6l.9 2.4c.1.3.2.6.3.8.1-.2.2-.6.3-.9l.8-2.4h.8l-1.1 2.9c-.5 1.4-.9 2.1-1.4 2.6-.4.3-.7.5-.9.5l-.2-.6c.2-.1.4-.2.7-.4.2-.2.5-.5.6-.8 0-.1.1-.1.1-.2 0 0 0-.1-.1-.2l-1.5-3.8.7.1zM360.2 80.5c-.2.1-.6.2-1.2.2-1.2 0-2-.8-2-2.1s.9-2.2 2.2-2.2c.4 0 .8.1 1 .2l-.2.6c-.2-.1-.5-.2-.9-.2-.9 0-1.5.7-1.5 1.6 0 1 .6 1.5 1.4 1.5.4 0 .7-.1.9-.2l.3.6zM363.4 80.7l-.1-.5c-.2.3-.7.6-1.3.6-.8 0-1.3-.6-1.3-1.2 0-1 .9-1.5 2.5-1.5V78c0-.3-.1-1-.9-1-.4 0-.8.1-1.1.3l-.2-.5c.3-.2.8-.4 1.4-.4 1.3 0 1.6.9 1.6 1.7v1.5c0 .4 0 .7.1 1l-.7.1zm-.1-2.1c-.8 0-1.7.1-1.7.9 0 .5.3.7.7.7.5 0 .9-.3 1-.7V78.6zM365.6 78.7c0 1 .7 1.4 1.4 1.4.5 0 .9-.1 1.1-.2l.1.5c-.3.1-.7.3-1.4.3-1.3 0-2-.8-2-2.1 0-1.2.7-2.2 1.9-2.2 1.3 0 1.7 1.2 1.7 1.9v.3l-2.8.1zm2.2-.5c0-.5-.2-1.2-1-1.2s-1.1.7-1.1 1.2h2.1zM369.4 77.7v-1.1h.7v.7c.2-.4.6-.8 1.3-.8.6 0 1 .3 1.2.8.1-.2.3-.4.5-.5.2-.2.5-.3.9-.3.5 0 1.4.4 1.4 1.8v2.4h-.7v-2.3c0-.8-.3-1.3-.9-1.3-.4 0-.8.3-.9.7 0 .1-.1.2-.1.4v2.5h-.8v-2.5c0-.7-.3-1.1-.9-1.1-.5 0-.8.4-.9.7 0 .1-.1.2-.1.4v2.5h-.7v-3zM377.4 75.4c0 .3-.2.5-.5.5s-.5-.2-.5-.5.2-.5.5-.5.5.2.5.5zm-.9 5.3v-4.1h.7v4.1h-.7zM380.8 80.7l-.1-.5c-.2.3-.7.6-1.3.6-.8 0-1.3-.6-1.3-1.2 0-1 .9-1.5 2.5-1.5V78c0-.3-.1-1-.9-1-.4 0-.8.1-1.1.3l-.2-.5c.3-.2.8-.4 1.4-.4 1.3 0 1.6.9 1.6 1.7v1.5c0 .4 0 .7.1 1l-.7.1zm-.1-2.1c-.8 0-1.7.1-1.7.9 0 .5.3.7.7.7.5 0 .9-.3 1-.7V78.6zM382.2 81.7c.6-.8 1.1-1.9 1.1-3.5 0-1.5-.5-2.6-1.1-3.5h.6c.5.7 1.1 1.8 1.1 3.5s-.6 2.7-1.1 3.5h-.6z"/></g><g class="st2"><path d="M303.4 154v-.5l.6-.6c1.4-1.3 2-2.1 2.1-2.9 0-.6-.3-1.1-1.1-1.1-.5 0-.9.3-1.2.5l-.2-.5c.4-.3.9-.6 1.6-.6 1.2 0 1.7.8 1.7 1.6 0 1-.7 1.8-1.9 3l-.4.4h2.5v.6h-3.7v.1zM308 151v-1.1h.7v.7c.2-.4.6-.8 1.3-.8.6 0 1 .3 1.2.8.1-.2.3-.4.5-.5.2-.2.5-.3.9-.3.5 0 1.4.4 1.4 1.8v2.4h-.7v-2.3c0-.8-.3-1.3-.9-1.3-.4 0-.8.3-.9.7 0 .1-.1.2-.1.4v2.5h-.7v-2.5c0-.7-.3-1.1-.9-1.1-.5 0-.8.4-.9.7 0 .1-.1.2-.1.4v2.5h-.8v-3zM315.1 147.9h.7v6h-.7v-6zM320.3 149.1l-1 .5-.1-.6 1.2-.6h.6v5.5h-.7v-4.8zM326.7 151.1c0 1.9-.7 2.9-1.9 2.9-1.1 0-1.8-1-1.8-2.8 0-1.9.8-2.9 1.9-2.9 1.1 0 1.8 1.1 1.8 2.8zm-3 .1c0 1.4.4 2.3 1.1 2.3.8 0 1.1-.9 1.1-2.3s-.3-2.3-1.1-2.3c-.6 0-1.1.8-1.1 2.3zM329.9 150c0 1.2-.6 1.7-1.3 1.7-.7 0-1.3-.6-1.3-1.7s.6-1.7 1.3-1.7c.8 0 1.3.6 1.3 1.7zm-2 0c0 .7.2 1.2.7 1.2s.7-.5.7-1.3c0-.7-.2-1.2-.7-1.2-.5.1-.7.6-.7 1.3zm.6 4.1l3.2-5.7h.5l-3.2 5.7h-.5zm5-1.8c0 1.2-.6 1.7-1.3 1.7-.7 0-1.3-.6-1.3-1.7s.6-1.7 1.3-1.7c.8 0 1.3.6 1.3 1.7zm-2 0c0 .7.3 1.2.7 1.2.5 0 .7-.5.7-1.3 0-.7-.2-1.2-.7-1.2-.5.1-.7.6-.7 1.3zM339.7 147.9v6.1h-.7v-.7c-.2.5-.7.8-1.4.8-1 0-1.8-.8-1.8-2.1 0-1.4.8-2.2 1.8-2.2.6 0 1.1.3 1.2.6v-2.5h.9zm-.7 3.6v-.3c-.1-.5-.5-.9-1.1-.9-.8 0-1.2.7-1.2 1.6 0 .8.4 1.5 1.2 1.5.5 0 1-.3 1.1-.9v-1zM341.4 152c0 1 .7 1.4 1.4 1.4.5 0 .9-.1 1.1-.2l.1.5c-.3.1-.7.3-1.4.3-1.3 0-2-.8-2-2.1 0-1.2.7-2.2 1.9-2.2 1.3 0 1.7 1.2 1.7 1.9v.3h-2.8v.1zm2.2-.5c0-.5-.2-1.2-1-1.2s-1.1.7-1.1 1.2h2.1zM345.5 149.8l.6.9c.2.2.3.4.4.7.1-.2.3-.5.4-.7l.6-.9h.8l-1.4 2 1.4 2.1h-.8l-.5-.9c-.2-.2-.3-.5-.4-.7-.1.2-.3.5-.4.7l-.6.9h-.8l1.5-2.1-1.4-2h.6zM350.1 148.7v1.2h1.1v.6h-1.1v2.2c0 .5.1.8.6.8.2 0 .3 0 .4-.1v.6c-.1.1-.4.1-.7.1-.3 0-.6-.1-.8-.3-.2-.2-.3-.6-.3-1.1v-2.2h-.6v-.6h.6v-1l.8-.2zM352.1 151.1v-1.3h.7v.8c.2-.6.6-.9 1.1-.9h.2v.7h-.3c-.5 0-.9.4-1 1v2.5h-.7v-2.8zM358.5 151.9c0 1.5-1.1 2.2-2 2.2-1.1 0-2-.8-2-2.1 0-1.4.9-2.2 2-2.2 1.2 0 2 .8 2 2.1zm-3.3 0c0 .9.5 1.6 1.2 1.6s1.2-.7 1.2-1.6c0-.7-.3-1.6-1.2-1.6s-1.2.8-1.2 1.6zM359.3 153.2c.2.1.6.3 1 .3.5 0 .8-.3.8-.6 0-.4-.2-.6-.8-.8-.7-.3-1.1-.7-1.1-1.2 0-.7.5-1.2 1.4-1.2.4 0 .8.1 1 .3l-.2.5c-.2-.1-.5-.2-.8-.2-.4 0-.7.3-.7.6s.2.5.8.7c.7.3 1.1.6 1.1 1.2 0 .7-.6 1.2-1.5 1.2-.5 0-.9-.1-1.2-.3l.2-.5zM363.2 152c0 1 .7 1.4 1.4 1.4.5 0 .9-.1 1.1-.2l.1.5c-.3.1-.7.3-1.4.3-1.3 0-2-.8-2-2.1 0-1.2.7-2.2 1.9-2.2 1.3 0 1.7 1.2 1.7 1.9v.3h-2.8v.1zm2.2-.5c0-.5-.2-1.2-1-1.2s-1.1.7-1.1 1.2h2.1zM368.8 154v-6.1h.7v2.6c.3-.5.7-.8 1.4-.8 1 0 1.7.8 1.7 2.1 0 1.5-.9 2.2-1.8 2.2-.6 0-1.1-.2-1.4-.8v.7h-.6v.1zm.8-1.7v.3c.1.5.6.9 1.1.9.8 0 1.2-.6 1.2-1.6 0-.8-.4-1.5-1.2-1.5-.5 0-1 .3-1.1.9v1zM377.4 151.9c0 1.5-1.1 2.2-2 2.2-1.1 0-2-.8-2-2.1 0-1.4.9-2.2 2-2.2 1.2 0 2 .8 2 2.1zm-3.3 0c0 .9.5 1.6 1.2 1.6s1.2-.7 1.2-1.6c0-.7-.3-1.6-1.2-1.6s-1.2.8-1.2 1.6zM378.3 147.9h.7v6h-.7v-6zM383.8 152.8v1.1h-.7v-.7c-.2.3-.6.8-1.4.8-.6 0-1.4-.4-1.4-1.8v-2.4h.7v2.3c0 .8.2 1.3.9 1.3.5 0 .8-.3 1-.7 0-.1.1-.2.1-.4v-2.5h.7l.1 3zM384.9 153.2c.2.1.6.3 1 .3.5 0 .8-.3.8-.6 0-.4-.2-.6-.8-.8-.7-.3-1.1-.7-1.1-1.2 0-.7.5-1.2 1.4-1.2.4 0 .8.1 1 .3l-.2.5c-.2-.1-.5-.2-.8-.2-.4 0-.7.3-.7.6s.2.5.8.7c.7.3 1.1.6 1.1 1.2 0 .7-.6 1.2-1.5 1.2-.5 0-.9-.1-1.2-.3l.2-.5z"/></g><path d="M299.3 151c0-.5.4-.9.9-.9s.9.4.9.9-.4.9-.9.9-.9-.4-.9-.9z"/><g class="st2"><path d="M305.6 227.6h-2.1l-.2 1.4h.5c.4 0 .8.1 1.2.3.4.2.8.7.8 1.4 0 1.1-.9 1.9-2.1 1.9-.6 0-1.1-.2-1.4-.3l.2-.6c.2.1.7.3 1.2.3.7 0 1.3-.5 1.3-1.2s-.5-1.2-1.6-1.2c-.3 0-.6 0-.8.1l.4-2.7h2.6v.6zM306.9 229.5v-1.1h.7v.7c.2-.4.6-.8 1.3-.8.6 0 1 .3 1.2.8.1-.2.3-.4.5-.5.2-.2.5-.3.9-.3.5 0 1.4.4 1.4 1.8v2.4h-.7v-2.3c0-.8-.3-1.3-.9-1.3-.4 0-.8.3-.9.7 0 .1-.1.2-.1.4v2.5h-.7V230c0-.7-.3-1.1-.9-1.1-.5 0-.8.4-.9.7 0 .1-.1.2-.1.4v2.5h-.7l-.1-3zM314 226.5h.7v6h-.7v-6zM319.2 227.7l-1 .5-.1-.6 1.2-.6h.6v5.5h-.7v-4.8zM325.6 229.7c0 1.9-.7 2.9-1.9 2.9-1.1 0-1.8-1-1.8-2.8 0-1.9.8-2.9 1.9-2.9 1.2 0 1.8 1 1.8 2.8zm-3 .1c0 1.4.4 2.3 1.1 2.3.8 0 1.1-.9 1.1-2.3s-.3-2.3-1.1-2.3c-.6 0-1.1.8-1.1 2.3zM328.8 228.5c0 1.2-.6 1.7-1.3 1.7-.7 0-1.3-.6-1.3-1.7s.6-1.7 1.3-1.7c.8.1 1.3.7 1.3 1.7zm-2 .1c0 .7.2 1.2.7 1.2s.7-.5.7-1.3c0-.7-.2-1.2-.7-1.2s-.7.6-.7 1.3zm.6 4l3.2-5.7h.5l-3.2 5.7h-.5zm5-1.8c0 1.2-.6 1.7-1.3 1.7-.7 0-1.3-.6-1.3-1.7s.6-1.7 1.3-1.7c.8.1 1.3.7 1.3 1.7zm-2 .1c0 .7.3 1.2.7 1.2.5 0 .7-.5.7-1.3 0-.7-.2-1.2-.7-1.2-.5 0-.7.6-.7 1.3zM338.6 226.5v6.1h-.6v-.7c-.2.5-.7.8-1.4.8-1 0-1.8-.8-1.8-2.1 0-1.4.8-2.2 1.8-2.2.6 0 1.1.3 1.2.6v-2.5h.8zm-.7 3.6v-.3c-.1-.5-.5-.9-1.1-.9-.8 0-1.2.7-1.2 1.6 0 .8.4 1.5 1.2 1.5.5 0 1-.3 1.1-.9v-1zM340.3 230.6c0 1 .7 1.4 1.4 1.4.5 0 .9-.1 1.1-.2l.1.5c-.3.1-.7.3-1.4.3-1.3 0-2-.8-2-2.1 0-1.2.7-2.2 1.9-2.2 1.3 0 1.7 1.2 1.7 1.9v.3h-2.8v.1zm2.2-.5c0-.5-.2-1.2-1-1.2s-1.1.7-1.1 1.2h2.1zM344.5 228.4l.6.9c.2.2.3.4.4.7.1-.2.3-.5.4-.7l.6-.9h.8l-1.4 2 1.4 2.1h-.8l-.6-.9c-.2-.2-.3-.5-.4-.7-.1.2-.3.5-.4.7l-.6.9h-.8l1.5-2.1-1.4-2h.7zM349.1 227.2v1.2h1.1v.6h-1.1v2.2c0 .5.1.8.6.8.2 0 .3 0 .4-.1v.6c-.1.1-.4.1-.7.1-.3 0-.6-.1-.8-.3-.2-.2-.3-.6-.3-1.1V229h-.6v-.6h.6v-1l.8-.2zM351 229.7v-1.3h.7v.8c.2-.6.6-.9 1.1-.9h.2v.7h-.3c-.5 0-.9.4-1 1v2.5h-.7v-2.8zM357.4 230.4c0 1.5-1.1 2.2-2 2.2-1.1 0-2-.8-2-2.1 0-1.4.9-2.2 2-2.2 1.2 0 2 .9 2 2.1zm-3.3.1c0 .9.5 1.6 1.2 1.6s1.2-.7 1.2-1.6c0-.7-.3-1.6-1.2-1.6s-1.2.8-1.2 1.6zM358.2 231.8c.2.1.6.3 1 .3.5 0 .8-.3.8-.6 0-.4-.2-.6-.8-.8-.7-.3-1.1-.7-1.1-1.2 0-.7.5-1.2 1.4-1.2.4 0 .8.1 1 .3l-.2.5c-.2-.1-.5-.2-.8-.2-.4 0-.7.3-.7.6s.2.5.8.7c.7.3 1.1.6 1.1 1.2 0 .7-.6 1.2-1.5 1.2-.5 0-.9-.1-1.2-.3l.2-.5zM362.1 230.6c0 1 .7 1.4 1.4 1.4.5 0 .9-.1 1.1-.2l.1.5c-.3.1-.7.3-1.4.3-1.3 0-2-.8-2-2.1 0-1.2.7-2.2 1.9-2.2 1.3 0 1.7 1.2 1.7 1.9v.3h-2.8v.1zm2.2-.5c0-.5-.2-1.2-1-1.2s-1.1.7-1.1 1.2h2.1zM367.7 232.5v-6.1h.7v2.6c.3-.5.7-.8 1.4-.8 1 0 1.7.8 1.7 2.1 0 1.5-.9 2.2-1.8 2.2-.6 0-1.1-.2-1.4-.8v.7h-.6v.1zm.8-1.6v.3c.1.5.6.9 1.1.9.8 0 1.2-.6 1.2-1.6 0-.8-.4-1.5-1.2-1.5-.5 0-1 .3-1.1.9v1zM376.3 230.4c0 1.5-1.1 2.2-2 2.2-1.1 0-2-.8-2-2.1 0-1.4.9-2.2 2-2.2 1.2 0 2 .9 2 2.1zm-3.2.1c0 .9.5 1.6 1.2 1.6s1.2-.7 1.2-1.6c0-.7-.3-1.6-1.2-1.6s-1.2.8-1.2 1.6zM377.3 226.5h.7v6h-.7v-6zM382.7 231.4v1.1h-.7v-.7c-.2.3-.6.8-1.4.8-.6 0-1.4-.4-1.4-1.8v-2.4h.7v2.3c0 .8.2 1.3.9 1.3.5 0 .8-.3 1-.7 0-.1.1-.2.1-.4v-2.5h.7l.1 3zM383.9 231.8c.2.1.6.3 1 .3.5 0 .8-.3.8-.6 0-.4-.2-.6-.8-.8-.7-.3-1.1-.7-1.1-1.2 0-.7.5-1.2 1.4-1.2.4 0 .8.1 1 .3l-.2.5c-.2-.1-.5-.2-.8-.2-.4 0-.7.3-.7.6s.2.5.8.7c.7.3 1.1.6 1.1 1.2 0 .7-.6 1.2-1.5 1.2-.5 0-.9-.1-1.2-.3l.2-.5z"/></g><path d="M298.2 229.5c0-.5.4-.9.9-.9s.9.4.9.9-.4.9-.9.9-.9-.4-.9-.9z"/><g class="st2"><path d="M281.6 64.9c.3-.1.8-.1 1.3-.1.7 0 1.2.1 1.6.4.3.2.5.6.5 1 0 .5-.4 1-1 1.3.5.1 1.2.6 1.2 1.4 0 .5-.2.9-.5 1.1-.4.4-1 .5-2 .5-.5 0-.9 0-1.1-.1v-5.5zm.8 2.3h.7c.8 0 1.2-.4 1.2-1 0-.7-.5-.9-1.3-.9-.3 0-.5 0-.7.1l.1 1.8zm0 2.8h.6c.8 0 1.5-.3 1.5-1.1s-.7-1.1-1.5-1.1h-.6V70zM286.2 64.5h.7v6h-.7v-6zM291.9 68.4c0 1.5-1 2.2-2 2.2-1.1 0-2-.8-2-2.1 0-1.4.9-2.2 2-2.2 1.2 0 2 .9 2 2.1zm-3.2.1c0 .9.5 1.6 1.2 1.6s1.2-.7 1.2-1.6c0-.7-.3-1.6-1.2-1.6s-1.2.8-1.2 1.6zM296.6 68.4c0 1.5-1.1 2.2-2 2.2-1.1 0-2-.8-2-2.1 0-1.4.9-2.2 2-2.2 1.2 0 2 .9 2 2.1zm-3.3.1c0 .9.5 1.6 1.2 1.6s1.2-.7 1.2-1.6c0-.7-.3-1.6-1.2-1.6s-1.2.8-1.2 1.6zM301.1 64.5v6.1h-.7v-.7c-.2.5-.7.8-1.4.8-1 0-1.8-.8-1.8-2.1 0-1.4.8-2.2 1.8-2.2.6 0 1 .3 1.2.6v-2.4h.9v-.1zm-.8 3.6v-.3c-.1-.5-.5-.9-1.1-.9-.8 0-1.2.7-1.2 1.6 0 .8.4 1.5 1.2 1.5.5 0 1-.3 1.1-.9v-1zM307.6 66.4v3.5c0 .9-.2 1.5-.6 1.9s-1 .5-1.5.5-1-.1-1.4-.3l.2-.6c.3.2.7.3 1.2.3.8 0 1.3-.4 1.3-1.4v-.5c-.2.4-.7.7-1.3.7-1 0-1.7-.9-1.7-2 0-1.4.9-2.2 1.8-2.2.7 0 1.1.4 1.3.7v-.6h.7zm-.7 1.6v-.3c-.1-.4-.5-.8-1-.8-.7 0-1.2.6-1.2 1.5 0 .8.4 1.5 1.2 1.5.5 0 .9-.3 1-.8 0-.1.1-.3.1-.4V68h-.1zM308.8 64.5h.7v6h-.7v-6zM314.3 69.4v1.1h-.7v-.7c-.2.3-.6.8-1.4.8-.6 0-1.4-.4-1.4-1.8v-2.4h.7v2.3c0 .8.2 1.3.9 1.3.5 0 .8-.3 1-.7 0-.1.1-.2.1-.4v-2.5h.7l.1 3zM318.4 70.4c-.2.1-.6.2-1.2.2-1.2 0-2-.8-2-2.1s.9-2.2 2.2-2.2c.4 0 .8.1 1 .2l-.2.6c-.2-.1-.5-.2-.9-.2-.9 0-1.4.7-1.4 1.5 0 .9.6 1.5 1.4 1.5.4 0 .7-.1.9-.2l.2.7zM323 68.4c0 1.5-1.1 2.2-2 2.2-1.1 0-2-.8-2-2.1 0-1.4.9-2.2 2-2.2 1.2 0 2 .9 2 2.1zm-3.3.1c0 .9.5 1.6 1.2 1.6s1.2-.7 1.2-1.6c0-.7-.3-1.6-1.2-1.6s-1.2.8-1.2 1.6zM323.8 69.8c.2.1.6.3 1 .3.5 0 .8-.3.8-.6 0-.4-.2-.6-.8-.8-.7-.3-1.1-.7-1.1-1.2 0-.7.5-1.2 1.4-1.2.4 0 .8.1 1 .3l-.2.5c-.2-.1-.5-.2-.8-.2-.4 0-.7.3-.7.6s.2.5.8.7c.7.3 1.1.6 1.1 1.2 0 .7-.6 1.2-1.5 1.2-.4 0-.9-.1-1.2-.3l.2-.5zM327.7 68.6c0 1 .7 1.4 1.4 1.4.5 0 .9-.1 1.1-.2l.1.5c-.3.1-.7.3-1.4.3-1.3 0-2-.8-2-2.1s.7-2.2 1.9-2.2c1.3 0 1.7 1.2 1.7 1.9v.3l-2.8.1zm2.1-.5c0-.5-.2-1.2-1-1.2s-1.1.7-1.1 1.2h2.1zM333.3 64.5h.7v6h-.7v-6zM335.7 68.6c0 1 .7 1.4 1.4 1.4.5 0 .9-.1 1.1-.2l.1.5c-.3.1-.7.3-1.4.3-1.3 0-2-.8-2-2.1s.7-2.2 1.9-2.2c1.3 0 1.7 1.2 1.7 1.9v.3l-2.8.1zm2.2-.5c0-.5-.2-1.2-1-1.2s-1.1.7-1.1 1.2h2.1zM339.4 69.8c.2.1.6.3 1 .3.5 0 .8-.3.8-.6 0-.4-.2-.6-.8-.8-.7-.3-1.1-.7-1.1-1.2 0-.7.5-1.2 1.4-1.2.4 0 .8.1 1 .3l-.2.5c-.2-.1-.5-.2-.8-.2-.4 0-.7.3-.7.6s.2.5.8.7c.7.3 1.1.6 1.1 1.2 0 .7-.6 1.2-1.5 1.2-.4 0-.9-.1-1.2-.3l.2-.5zM342.8 69.8c.2.1.6.3 1 .3.5 0 .8-.3.8-.6 0-.4-.2-.6-.8-.8-.7-.3-1.1-.7-1.1-1.2 0-.7.5-1.2 1.4-1.2.4 0 .8.1 1 .3l-.2.5c-.2-.1-.5-.2-.8-.2-.4 0-.7.3-.7.6s.2.5.8.7c.7.3 1.1.6 1.1 1.2 0 .7-.6 1.2-1.5 1.2-.4 0-.9-.1-1.2-.3l.2-.5zM348.9 65.2v1.2h1.1v.6h-1.1v2.2c0 .5.1.8.6.8.2 0 .3 0 .4-.1v.6c-.1.1-.4.1-.7.1-.3 0-.6-.1-.8-.3-.2-.2-.3-.6-.3-1.1V67h-.6v-.6h.6v-1l.8-.2zM350.8 64.5h.7v2.6c.1-.2.3-.4.5-.5s.5-.2.8-.2c.6 0 1.4.3 1.4 1.8v2.4h-.7v-2.4c0-.7-.2-1.2-.9-1.2-.5 0-.9.3-1 .7 0 .1-.1.2-.1.4v2.5h-.7v-6.1zM357.8 70.5l-.1-.5c-.2.3-.7.6-1.3.6-.8 0-1.3-.6-1.3-1.2 0-1 .9-1.5 2.5-1.5v-.1c0-.3-.1-.9-.9-.9-.4 0-.8.1-1.1.3l-.2-.5c.3-.2.8-.4 1.3-.4 1.3 0 1.6.9 1.6 1.7v1.5c0 .4 0 .7.1 1h-.6zm-.1-2.1c-.8 0-1.7.1-1.7.9 0 .5.3.7.7.7.5 0 .9-.3 1-.7V68.4zM359.6 67.5v-1.1h.7v.7c.2-.4.7-.8 1.4-.8.6 0 1.4.3 1.4 1.7v2.4h-.7V68c0-.7-.2-1.2-.9-1.2-.5 0-.9.3-1 .8 0 .1-.1.2-.1.3v2.5h-.7l-.1-2.9zM367.5 65.7l-1 .5-.1-.6 1.2-.6h.6v5.5h-.7v-4.8zM370.3 70.1c0-.3.2-.5.5-.5s.5.2.5.5-.2.5-.5.5-.5-.2-.5-.5zM374.3 70.5V69h-2.6v-.5l2.5-3.5h.8v3.4h.8v.6h-.8v1.5h-.7zm0-2.1v-1.8-.9c-.2.3-.3.6-.5.8l-1.3 1.9h1.8zM378.4 67.5v-1.1h.7v.7c.2-.4.6-.8 1.3-.8.6 0 1 .3 1.2.8.1-.2.3-.4.5-.5.2-.2.5-.3.9-.3.5 0 1.3.4 1.3 1.8v2.4h-.7v-2.3c0-.8-.3-1.3-.9-1.3-.4 0-.8.3-.9.7 0 .1-.1.2-.1.4v2.5h-.7V68c0-.7-.3-1.1-.9-1.1-.5 0-.8.4-.9.7 0 .1-.1.2-.1.4v2.5h-.7v-3zM385.4 67.5v-1.1h.7v.7c.2-.4.6-.8 1.3-.8.6 0 1 .3 1.2.8.1-.2.3-.4.5-.5.2-.2.5-.3.9-.3.5 0 1.3.4 1.3 1.8v2.4h-.7v-2.3c0-.8-.3-1.3-.9-1.3-.4 0-.8.3-.9.7 0 .1-.1.2-.1.4v2.5h-.7V68c0-.7-.3-1.1-.9-1.1-.5 0-.8.4-.9.7 0 .1-.1.2-.1.4v2.5h-.7v-3zM396.2 68.4c0 1.5-1 2.2-2 2.2-1.1 0-2-.8-2-2.1 0-1.4.9-2.2 2-2.2 1.2 0 2 .9 2 2.1zm-3.2.1c0 .9.5 1.6 1.2 1.6s1.2-.7 1.2-1.6c0-.7-.3-1.6-1.2-1.6s-1.2.8-1.2 1.6zM397.2 64.5h.7v6h-.7v-6zM398.5 70.9l2.4-6.1h.6l-2.4 6.1h-.6zM402.1 64.5h.7v6h-.7v-6z"/></g></g></svg>