<svg version="1.1" xmlns="http://www.w3.org/2000/svg" x="0" y="0" width="411.023" height="308.27" viewBox="-42.52 -174.033 411.023 308.27" xml:space="preserve"><path fill="none" stroke="#000" stroke-width=".5" d="M32.785-137.267h326.046M32.785-108.315h325.296M32.785-78.737h325.296M32.785-48.245h325.296M32.785-17.568h325.296M32.785 10.866h325.296M32.785 44.395h325.296M32.785 70.541h325.296M40.288-169.813V70.936M81.629-169.813V70.936M129.473-169.813V70.936M172.12-169.813V70.936M220.805-169.813V70.936M264.368-168.222V72.521M312.796-169.813V70.936M358.081-168.222V72.521"/><path d="M143.436 127.321l-.887 2.683h-1.141l2.913-8.537h1.317l2.913 8.537h-1.178l-.912-2.683h-3.025zm2.81-.861l-.849-2.458c-.19-.561-.316-1.063-.443-1.557h-.025c-.128.495-.254 1.025-.432 1.546l-.835 2.474 2.584-.005zM154.874 129.109c0 1.419-.29 2.267-.873 2.808-.607.545-1.472.737-2.243.737-.733 0-1.545-.177-2.039-.506l.28-.861c.406.267 1.037.496 1.797.496 1.141 0 1.977-.596 1.977-2.15v-.671h-.025c-.331.565-1 1.022-1.951 1.022-1.519 0-2.607-1.291-2.607-2.991 0-2.076 1.355-3.243 2.773-3.243 1.066 0 1.636.545 1.913 1.053h.027l.038-.925h.988c-.036.428-.05.938-.05 1.672l-.005 3.559zm-1.114-2.813c0-.188-.013-.354-.064-.493-.201-.659-.733-1.191-1.557-1.191-1.064 0-1.823.899-1.823 2.317 0 1.202.619 2.205 1.81 2.205.697 0 1.318-.43 1.546-1.141.063-.191.087-.405.087-.597l.001-1.1zM157.333 127.149c.026 1.504.978 2.125 2.102 2.125.8 0 1.29-.14 1.695-.313l.203.798c-.393.175-1.077.393-2.051.393-1.886 0-3.015-1.254-3.015-3.103s1.091-3.293 2.876-3.293c2.012 0 2.531 1.748 2.531 2.872 0 .231-.012.392-.037.521h-4.304zm3.27-.803c.013-.695-.292-1.797-1.545-1.797-1.142 0-1.621 1.022-1.711 1.797h3.256zM166.989 122.154c0 .38-.267.686-.71.686-.405 0-.67-.305-.67-.686a.68.68 0 0 1 .696-.697c.405 0 .684.304.684.697zm-1.242 7.85v-6.127h1.116v6.127h-1.116zM168.713 125.536a21.1 21.1 0 0 0-.052-1.659h.988l.064 1.012h.026c.302-.566 1.016-1.14 2.024-1.14.849 0 2.164.508 2.164 2.609v3.646h-1.116v-3.53c0-.989-.366-1.811-1.418-1.811-.72 0-1.288.519-1.488 1.14-.049.14-.077.329-.077.518v3.684h-1.116v-4.469h.001zM183.714 121.018v7.407c0 .548.025 1.167.047 1.583h-.986l-.047-1.064h-.04c-.329.688-1.063 1.208-2.063 1.208-1.482 0-2.635-1.254-2.635-3.118-.013-2.04 1.269-3.277 2.748-3.277.951 0 1.567.441 1.845.924h.031v-3.661l1.1-.002zm-1.109 5.352c0-.14-.012-.328-.049-.467-.164-.697-.771-1.285-1.608-1.285-1.153 0-1.836 1.019-1.836 2.354 0 1.239.62 2.268 1.812 2.268.751 0 1.43-.5 1.633-1.329.037-.155.049-.297.049-.485v-1.056h-.001zM189.879 128.54c0 .532.027 1.052.091 1.469h-1.001l-.09-.769h-.035c-.343.486-1.001.911-1.876.911-1.239 0-1.879-.878-1.879-1.76 0-1.485 1.317-2.288 3.685-2.276v-.128c0-.495-.141-1.421-1.393-1.405-.582 0-1.179.166-1.613.455l-.254-.751c.507-.316 1.256-.534 2.026-.534 1.878 0 2.332 1.284 2.332 2.492v2.293l.007.003zm-1.071-1.661c-1.219-.027-2.601.189-2.601 1.379 0 .736.485 1.066 1.04 1.066.81 0 1.329-.507 1.504-1.023.034-.127.05-.253.05-.36v-1.063l.007.001zM191.998 123.877l1.33 3.622c.153.403.301.887.404 1.253h.029c.112-.366.236-.835.39-1.283l1.22-3.597h1.177l-1.674 4.37c-.798 2.102-1.345 3.166-2.103 3.837-.559.469-1.091.658-1.364.707l-.283-.922a2.98 2.98 0 0 0 .976-.549c.302-.236.671-.671.937-1.238.054-.114.095-.207.095-.267 0-.063-.029-.154-.095-.295l-2.257-5.643 1.218.005zM197.335 128.878c.341.201.92.429 1.481.429.802 0 1.178-.392 1.178-.911 0-.533-.317-.812-1.128-1.113-1.114-.406-1.633-1.003-1.633-1.737 0-.989.811-1.799 2.112-1.799.623 0 1.166.164 1.495.378l-.267.813a2.369 2.369 0 0 0-1.253-.364c-.659 0-1.015.376-1.015.834 0 .502.355.734 1.154 1.049 1.051.394 1.611.926 1.611 1.836 0 1.09-.851 1.849-2.277 1.849-.675 0-1.288-.177-1.728-.43l.27-.834zM-.8-138.531c.317.188 1.039.506 1.823.506 1.419 0 1.874-.898 1.859-1.595-.012-1.152-1.052-1.647-2.127-1.647h-.62v-.837h.621c.812 0 1.836-.417 1.836-1.393 0-.658-.417-1.24-1.445-1.24-.659 0-1.292.292-1.646.545l-.305-.813c.444-.314 1.281-.631 2.166-.631 1.62 0 2.356.961 2.356 1.963 0 .86-.52 1.583-1.519 1.947v.027c1.014.189 1.823.95 1.836 2.1 0 1.319-1.039 2.473-3.001 2.473-.923 0-1.736-.293-2.14-.558l.306-.847zM10.347-144.56h-3.14l-.316 2.114a4.78 4.78 0 0 1 .671-.035c.646 0 1.265.126 1.772.44.646.357 1.177 1.079 1.177 2.103 0 1.61-1.278 2.812-3.065 2.812-.899 0-1.646-.254-2.051-.506l.28-.849c.342.203 1.013.456 1.773.456 1.038 0 1.951-.683 1.938-1.786 0-1.063-.723-1.811-2.356-1.811-.481 0-.849.038-1.153.078l.531-3.952h3.937l.002.936zM17.417-141.47c0 2.798-1.052 4.343-2.862 4.343-1.608 0-2.71-1.506-2.734-4.229 0-2.774 1.202-4.281 2.874-4.281 1.722 0 2.722 1.545 2.722 4.167zm-4.469.127c0 2.138.659 3.353 1.672 3.353 1.126 0 1.671-1.327 1.671-3.43 0-2.026-.507-3.356-1.671-3.356-.963.001-1.672 1.19-1.672 3.433zM-.8-108.796c.317.191 1.039.507 1.823.507 1.419 0 1.874-.901 1.859-1.597-.012-1.153-1.052-1.646-2.127-1.646h-.62v-.836h.621c.812 0 1.836-.417 1.836-1.393 0-.658-.417-1.242-1.445-1.242-.659 0-1.292.294-1.646.545l-.305-.812c.444-.315 1.281-.63 2.166-.63 1.62 0 2.356.961 2.356 1.962 0 .861-.52 1.582-1.519 1.951v.024c1.014.189 1.823.951 1.836 2.104 0 1.316-1.039 2.468-3.001 2.468-.923 0-1.736-.29-2.14-.557l.306-.848zM10.918-111.731c0 2.798-1.051 4.342-2.862 4.342-1.609 0-2.71-1.504-2.738-4.229 0-2.774 1.204-4.279 2.875-4.279 1.725-.001 2.725 1.543 2.725 4.166zm-4.47.127c0 2.139.659 3.353 1.671 3.353 1.127 0 1.672-1.329 1.672-3.433 0-2.024-.506-3.352-1.672-3.352-.962 0-1.671 1.19-1.671 3.432zM17.417-111.731c0 2.798-1.052 4.342-2.862 4.342-1.608 0-2.71-1.504-2.734-4.229 0-2.774 1.202-4.279 2.874-4.279 1.722-.001 2.722 1.543 2.722 4.166zm-4.469.127c0 2.139.659 3.353 1.672 3.353 1.126 0 1.671-1.329 1.671-3.433 0-2.024-.507-3.352-1.671-3.352-.963 0-1.672 1.19-1.672 3.432zM-1.067-78.347v-.685l.875-.85c2.103-2 3.065-3.064 3.065-4.304 0-.837-.392-1.609-1.62-1.609-.748 0-1.368.378-1.749.696l-.354-.787a3.66 3.66 0 0 1 2.317-.833c1.772 0 2.52 1.216 2.52 2.395 0 1.519-1.102 2.747-2.836 4.418l-.647.606v.026h3.685v.926h-5.256zM10.347-85.643h-3.14l-.316 2.115c.188-.025.367-.038.671-.038.646 0 1.265.128 1.772.443.646.357 1.177 1.075 1.177 2.102 0 1.609-1.278 2.811-3.065 2.811-.899 0-1.646-.253-2.051-.505l.28-.85c.342.203 1.013.458 1.773.458 1.038 0 1.951-.684 1.938-1.787 0-1.063-.723-1.81-2.356-1.81-.481 0-.849.035-1.153.075l.531-3.952h3.937l.002.938zM17.417-82.553c0 2.798-1.052 4.342-2.862 4.342-1.608 0-2.71-1.506-2.734-4.229 0-2.775 1.202-4.28 2.874-4.28 1.722.001 2.722 1.545 2.722 4.167zm-4.469.126c0 2.139.659 3.355 1.672 3.355 1.126 0 1.671-1.331 1.671-3.432 0-2.026-.507-3.355-1.671-3.355-.963 0-1.672 1.19-1.672 3.432zM-1.067-47.851v-.685l.875-.849c2.103-2 3.065-3.063 3.065-4.305 0-.834-.392-1.609-1.62-1.609-.748 0-1.368.378-1.749.694l-.354-.786a3.66 3.66 0 0 1 2.317-.833c1.772 0 2.52 1.216 2.52 2.393 0 1.521-1.102 2.748-2.836 4.419l-.646.608v.027H4.19v.924l-5.257.002zM10.918-52.056c0 2.799-1.051 4.343-2.862 4.343-1.609 0-2.71-1.506-2.738-4.229 0-2.774 1.204-4.281 2.875-4.281 1.725 0 2.725 1.546 2.725 4.167zm-4.47.128c0 2.138.659 3.354 1.671 3.354 1.127 0 1.672-1.328 1.672-3.432 0-2.026-.506-3.354-1.672-3.354-.962-.001-1.671 1.189-1.671 3.432zM17.417-52.056c0 2.799-1.052 4.343-2.862 4.343-1.608 0-2.71-1.506-2.734-4.229 0-2.774 1.202-4.281 2.874-4.281 1.722 0 2.722 1.546 2.722 4.167zm-4.469.128c0 2.138.659 3.354 1.672 3.354 1.126 0 1.671-1.328 1.671-3.432 0-2.026-.507-3.354-1.671-3.354-.963-.001-1.672 1.189-1.672 3.432z"/><g><path d="M1.353-24.369h-.027l-1.429.772-.215-.85 1.798-.959h.95v8.232H1.353v-7.195zM10.347-24.471h-3.14l-.316 2.115c.188-.027.367-.038.671-.038.646 0 1.265.126 1.772.442.646.356 1.177 1.075 1.177 2.102 0 1.609-1.278 2.811-3.065 2.811-.899 0-1.646-.254-2.051-.503l.28-.85c.342.203 1.013.456 1.773.456 1.038 0 1.951-.684 1.938-1.789 0-1.061-.723-1.816-2.356-1.816-.481 0-.849.039-1.153.084l.531-3.957h3.937l.002.943zM17.417-21.382c0 2.798-1.052 4.342-2.862 4.342-1.608 0-2.71-1.507-2.734-4.229 0-2.778 1.202-4.284 2.874-4.284 1.722.005 2.722 1.55 2.722 4.171zm-4.469.128c0 2.144.659 3.356 1.672 3.356 1.126 0 1.671-1.332 1.671-3.431 0-2.026-.507-3.357-1.671-3.357-.963.002-1.672 1.189-1.672 3.432z"/></g><g><path d="M1.353 4.064h-.027l-1.43.771-.215-.85 1.796-.959h.951v8.229H1.351l.002-7.191zM10.918 7.053c0 2.802-1.051 4.341-2.862 4.341-1.609 0-2.71-1.506-2.738-4.229 0-2.775 1.204-4.28 2.875-4.28 1.725 0 2.725 1.543 2.725 4.168zm-4.47.127c0 2.144.659 3.353 1.671 3.353 1.127 0 1.672-1.328 1.672-3.434 0-2.024-.506-3.35-1.672-3.35-.962.001-1.671 1.188-1.671 3.431zM17.417 7.053c0 2.802-1.052 4.341-2.862 4.341-1.608 0-2.71-1.506-2.734-4.229 0-2.775 1.202-4.28 2.874-4.28 1.722 0 2.722 1.543 2.722 4.168zm-4.469.127c0 2.144.659 3.353 1.672 3.353 1.126 0 1.671-1.328 1.671-3.434 0-2.024-.507-3.35-1.671-3.35-.963.001-1.672 1.188-1.672 3.431z"/></g><g><path d="M3.846 36.701H.706L.39 38.815c.19-.027.367-.036.671-.036.646 0 1.266.126 1.772.441.647.358 1.179 1.076 1.179 2.103 0 1.608-1.278 2.812-3.065 2.812-.897 0-1.646-.254-2.049-.507l.278-.848c.342.202 1.012.456 1.771.456 1.04 0 1.951-.685 1.938-1.788 0-1.063-.721-1.816-2.354-1.816-.481 0-.849.038-1.153.08l.531-3.95h3.937v.939zM10.918 39.79c0 2.797-1.051 4.343-2.862 4.343-1.609 0-2.71-1.507-2.738-4.236 0-2.773 1.204-4.274 2.875-4.274 1.725.002 2.725 1.546 2.725 4.167zm-4.47.129c0 2.144.659 3.356 1.671 3.356 1.127 0 1.672-1.332 1.672-3.435 0-2.026-.506-3.352-1.672-3.352-.962.002-1.671 1.189-1.671 3.431z"/></g><g><path d="M4.418 66.727c0 2.797-1.052 4.343-2.862 4.343-1.608 0-2.71-1.507-2.735-4.231 0-2.773 1.202-4.279 2.875-4.279 1.722 0 2.722 1.546 2.722 4.167zm-4.471.128c0 2.139.659 3.353 1.671 3.353 1.128 0 1.672-1.327 1.672-3.432 0-2.025-.507-3.354-1.672-3.354-.959-.001-1.671 1.19-1.671 3.433z"/></g><g><path d="M49.878 96.469c0 2.801-1.051 4.339-2.861 4.339-1.608 0-2.709-1.504-2.735-4.23 0-2.774 1.202-4.28 2.875-4.28 1.721 0 2.721 1.546 2.721 4.171zm-4.47.125c0 2.143.659 3.352 1.671 3.352 1.127 0 1.672-1.328 1.672-3.43 0-2.026-.506-3.355-1.672-3.355-.961 0-1.671 1.193-1.671 3.433z"/></g><g><path d="M87.599 93.475h-.025l-1.432.773-.215-.85 1.796-.958h.951v8.228h-1.076l.001-7.193z"/></g><g><path d="M133.823 100.669v-.686l.875-.848c2.102-2.001 3.064-3.066 3.064-4.307 0-.834-.393-1.612-1.622-1.612-.748 0-1.368.379-1.748.695l-.355-.786a3.642 3.642 0 0 1 2.315-.834c1.773 0 2.521 1.22 2.521 2.398 0 1.521-1.101 2.743-2.837 4.422l-.646.604v.027h3.685v.924l-5.252.003z"/></g><g><path d="M176.736 99.402c.316.189 1.036.507 1.819.507 1.419 0 1.877-.9 1.864-1.597-.019-1.155-1.052-1.646-2.131-1.646h-.625v-.836h.625c.813 0 1.835-.418 1.835-1.394 0-.657-.422-1.238-1.442-1.238-.659 0-1.286.293-1.646.544l-.298-.81c.441-.316 1.279-.633 2.164-.633 1.619 0 2.352.962 2.352 1.963 0 .861-.52 1.583-1.521 1.948v.025c1.02.191 1.821.955 1.838 2.103 0 1.317-1.037 2.469-3 2.469-.926 0-1.739-.29-2.145-.556l.311-.849z"/></g><g><path d="M227.808 100.669v-2.255h-3.823v-.722l3.67-5.252h1.206v5.113h1.152v.86h-1.152v2.255l-1.053.001zm0-3.115v-2.749c0-.429.016-.861.038-1.288h-.038c-.25.484-.455.836-.685 1.219l-2.013 2.805v.027h2.697v-.014z"/></g><g><path d="M273.229 93.374h-3.139l-.313 2.115c.187-.03.363-.037.671-.037.644 0 1.27.126 1.772.441.646.355 1.177 1.077 1.177 2.101 0 1.61-1.28 2.808-3.068 2.808-.896 0-1.645-.249-2.05-.499l.279-.853c.342.204 1.014.458 1.771.458 1.036 0 1.95-.689 1.94-1.789 0-1.062-.719-1.816-2.354-1.816a8.17 8.17 0 0 0-1.155.078l.531-3.947h3.938v.938z"/></g><g><path d="M321.836 93.222c-.23-.012-.52.016-.834.063-1.758.282-2.675 1.548-2.864 2.915h.025c.391-.531 1.09-.958 2.003-.958 1.457 0 2.479 1.063 2.479 2.659 0 1.519-1.022 2.914-2.743 2.914-1.75 0-2.901-1.365-2.901-3.509 0-1.615.567-2.899 1.396-3.71.688-.676 1.598-1.09 2.632-1.22.329-.048.611-.062.813-.062v.909h-.006zm-.318 4.75c0-1.175-.67-1.885-1.691-1.885-.674 0-1.304.409-1.611 1.017a1.032 1.032 0 0 0-.115.485c.018 1.353.647 2.363 1.826 2.363.941-.005 1.591-.804 1.591-1.98z"/></g><g><path d="M367.375 92.442v.733l-3.587 7.496h-1.156l3.569-7.283v-.026h-4.024v-.924h5.194v.005l.004-.001z"/></g><path fill="none" stroke="#000" d="M40.196-169.021V70.143l317.885.793v-240.749z"/><g><path d="M-36.016-164.333h-2.594v-.937h6.319v.937h-2.61v7.607h-1.115v-7.607zM-31.556-158.074a3.743 3.743 0 0 0 1.963.561c1.126 0 1.784-.596 1.784-1.459 0-.786-.456-1.254-1.608-1.685-1.394-.506-2.253-1.242-2.253-2.431 0-1.331 1.102-2.317 2.761-2.317.858 0 1.505.203 1.873.418l-.304.896c-.265-.163-.835-.404-1.608-.404-1.165 0-1.609.696-1.609 1.278 0 .8.519 1.193 1.696 1.646 1.444.561 2.165 1.254 2.165 2.507 0 1.323-.961 2.481-2.976 2.481-.823 0-1.721-.255-2.178-.561l.294-.93zM-25.168-165.144c.481-.11 1.254-.187 2.013-.187 1.102 0 1.813.187 2.331.62.442.331.721.834.721 1.508 0 .834-.556 1.555-1.441 1.874v.038c.81.188 1.76.86 1.76 2.127 0 .735-.292 1.307-.736 1.715-.583.546-1.544.801-2.937.801a13 13 0 0 1-1.711-.102v-8.394zm1.1 3.496h1.001c1.154 0 1.836-.62 1.836-1.443 0-.988-.748-1.394-1.861-1.394-.507 0-.799.039-.976.076v2.761zm0 4.083c.228.035.531.05.923.05 1.141 0 2.19-.422 2.19-1.663 0-1.153-1-1.648-2.203-1.648h-.913l.003 3.261zM-11.512-157.679c-.254.484-.849 1.07-1.76 1.07-.559 0-1.078-.205-1.344-.676v.75c0 .687.027 1.819.14 2.329h-.999c-.128-.382-.179-1.286-.179-2.277v-6.382h1.116v3.624c0 .949.392 1.739 1.38 1.739.735 0 1.254-.521 1.456-1.029a1.62 1.62 0 0 0 .101-.581v-3.749h1.116v4.445c0 .675.126.942.583.967l-.089.813a1.151 1.151 0 0 1-.392.051c-.546 0-.987-.303-1.089-1.096h-.041l.001.002zM-8.647-161.205c0-.646-.025-1.152-.051-1.66h.977l.05 1.001h.037c.343-.583.911-1.126 1.94-1.126.823 0 1.453.506 1.72 1.228h.028c.188-.356.443-.608.692-.798.367-.278.76-.429 1.345-.429.826 0 2.024.531 2.024 2.66v3.605h-1.09v-3.466c0-1.19-.44-1.886-1.331-1.886-.647 0-1.125.468-1.328 1.001a1.884 1.884 0 0 0-.089.557v3.794h-1.09v-3.682c0-.975-.43-1.671-1.28-1.671-.686 0-1.203.557-1.382 1.114a1.547 1.547 0 0 0-.086.543v3.695H-8.65v-4.481l.003.001zM7.467-159.851c0 2.272-1.584 3.266-3.051 3.266-1.647 0-2.94-1.224-2.94-3.163 0-2.039 1.355-3.241 3.042-3.241 1.759-.001 2.949 1.277 2.949 3.138zm-4.852.063c0 1.344.759 2.36 1.848 2.36 1.063 0 1.862-1.005 1.862-2.386 0-1.038-.519-2.341-1.837-2.341-1.303.001-1.873 1.217-1.873 2.367zM8.874-165.727H9.99v9.001H8.874v-9.001zM10.927-156.232l3.523-9.191h.875l-3.544 9.191h-.854zM18.276-163.928h-.026l-1.433.771-.217-.846 1.796-.961h.953v8.24h-1.077l.004-7.204z"/></g><g fill="none" stroke="#000" stroke-width="2"><path d="M194.302-96.199c93.533-1.871 178.083-1.88 165.363-1.694M51.686 42.416S100.774-94.329 194.301-96.199"/></g></svg>