<svg version="1.1" xmlns="http://www.w3.org/2000/svg" x="0" y="0" width="326.232" height="422.68" viewBox="0 0 326.232 422.68" xml:space="preserve"><path fill="none" stroke="#000" stroke-width=".485" d="M1.387 0h324.597M1.387 8.06h324.597"/><path fill="none" stroke="#000" stroke-width=".97" d="M1.387 16.118h324.597"/><path fill="none" stroke="#000" stroke-width=".485" d="M1.387 24.178h324.597M1.387 32.357h324.597M1.387 40.416h324.597"/><path fill="none" stroke="#000" stroke-width=".97" d="M1.387 48.475h324.597"/><path fill="none" stroke="#000" stroke-width=".485" d="M1.387 56.534h324.597M1.387 64.593h324.597M1.387 72.651h324.597"/><path fill="none" stroke="#000" stroke-width=".97" d="M1.387 80.711h324.597"/><path fill="none" stroke="#000" stroke-width=".485" d="M1.387 88.77h324.597M1.387 96.829h324.597M1.387 105.008h324.597"/><path fill="none" stroke="#000" stroke-width=".97" d="M1.387 113.068h324.597"/><path fill="none" stroke="#000" stroke-width=".485" d="M1.387 121.127h324.597M1.387 129.186h324.597M1.387 137.245h324.597"/><path fill="none" stroke="#000" stroke-width=".97" d="M1.387 145.304h324.597"/><path fill="none" stroke="#000" stroke-width=".485" d="M1.387 153.363h324.597M1.387 161.422h324.597M1.387 169.481h324.597"/><path fill="none" stroke="#000" stroke-width=".97" d="M1.387 177.66h324.597"/><path fill="none" stroke="#000" stroke-width=".485" d="M1.387 185.719h324.597M1.387 193.779h324.597M1.387 201.837h324.597"/><path fill="none" stroke="#000" stroke-width=".97" d="M1.387 209.897h324.597"/><path fill="none" stroke="#000" stroke-width=".485" d="M1.387 217.955h324.597M1.387 226.016h324.597M1.387 234.072h324.597"/><path fill="none" stroke="#000" stroke-width=".97" d="M1.387 242.133h324.597"/><path fill="none" stroke="#000" stroke-width=".485" d="M1.387 250.312h324.597M1.387 258.371h324.597"/><g fill="none" stroke="#000" stroke-width=".485"><path d="M1.458 0v257.527M17.696 0v257.527M33.935 0v257.527M50.173 0v257.527M66.412 0v257.527M82.65 0v257.527M98.888 0v257.527M115.126 0v257.527M131.365 0v257.527M147.483 0v257.527M163.721 0v257.527M179.96 0v257.527M196.199 0v257.527M212.436 0v257.527M228.675 0v257.527M244.913 0v257.527M261.153 0v257.527M277.39 0v257.527M293.627 0v257.527M309.867 0v257.527M325.984 0v257.527"/></g><path fill="none" stroke="#000" stroke-width=".485" d="M14.449 288.081l-.24 129.427M30.808 288.081l-.241 129.427M47.167 288.081l-.241 129.427M63.404 288.081l-.24 129.427M79.763 288.081l-.24 129.427M96.122 288.081l-.241 129.427M112.48 288.081l-.241 129.427M128.719 288.081l-.24 129.427M145.078 288.081l-.241 129.427M161.437 288.081l-.241 129.427M177.793 288.081l-.238 129.427M194.033 288.081l-.241 129.427M210.393 288.081l-.242 129.427M226.75 288.081l-.24 129.427M243.11 288.081l-.241 129.427M259.347 288.081l-.239 129.427M275.707 288.081l-.241 129.427M292.065 288.081l-.24 129.427M308.423 288.081l-.24 129.427"/><g fill="none" stroke="#000"><path stroke-width=".97" d="M0 288.323h325.984"/><path stroke-width=".485" d="M0 301.312h325.984"/><path stroke-width=".97" d="M0 314.425h325.984"/><path stroke-width=".485" d="M0 327.414h325.984"/><path stroke-width=".97" d="M0 340.405h325.984"/><path stroke-width=".485" d="M0 353.395h325.984"/><path stroke-width=".97" d="M0 366.267h325.984"/><path stroke-width=".485" d="M0 379.256h325.984"/><path stroke-width=".97" d="M0 392.249h325.984"/><path stroke-width=".485" d="M0 405.238h325.984"/><path stroke-width=".97" d="M0 418.229h325.984"/></g><path fill="#FFF" d="M136.417 11.187h22.013v11.428h-22.013zM135.816 41.498h22.132v11.428h-22.132zM136.898 74.336h22.012v11.308h-22.012zM136.778 106.572h22.132v11.427h-22.132zM136.298 138.448h22.012v11.307h-22.012zM135.816 171.766h22.012v11.307h-22.012zM136.778 203.041h22.012v11.307h-22.012zM136.298 236.239h22.012v11.427h-22.012z"/><path d="M143.273 20.329v1.083h-6.134c0-.361.118-.602.118-.842.241-.361.482-.842.843-1.203.24-.362.843-.843 1.443-1.444.962-.842 1.685-1.443 2.045-1.924a2.31 2.31 0 0 0 .48-1.444c0-.361-.119-.723-.48-1.083-.24-.361-.723-.482-1.204-.482-.601 0-.962.121-1.322.482-.361.36-.481.842-.481 1.444l-1.203-.121c.12-.963.361-1.563.961-2.044.482-.481 1.203-.722 2.045-.722.964 0 1.564.24 2.166.722.481.601.723 1.202.723 1.924 0 .361 0 .723-.241 1.083-.12.36-.361.722-.722 1.083-.36.481-.961.962-1.805 1.684-.602.602-1.083.963-1.323 1.083-.12.24-.36.481-.48.722l4.571-.001zM147.604 12.029c.48 0 .843.119 1.204.361.48.119.721.481.962.842.24.361.479.842.601 1.323.121.601.241 1.323.241 2.286 0 1.083-.12 1.924-.362 2.646-.24.601-.6 1.083-.961 1.442-.48.482-1.083.602-1.685.602v-.962c.48 0 .962-.241 1.204-.723.359-.48.6-1.563.6-3.006 0-1.564-.24-2.526-.6-3.127a1.329 1.329 0 0 0-1.204-.723v-.961zm-3.128 4.811c0-1.083.12-2.045.36-2.646.241-.722.602-1.204 1.083-1.563.36-.361.962-.601 1.685-.601v.961h-.12c-.481 0-.842.242-1.204.723-.36.481-.601 1.563-.601 3.127 0 1.443.24 2.526.601 3.006.362.482.723.723 1.324.723v.962c-.962 0-1.685-.361-2.166-.962-.601-.723-.962-2.046-.962-3.73zM154.7 12.029c.603 0 .962.119 1.323.361.361.119.723.481.963.842.241.361.48.842.602 1.323.12.601.24 1.323.24 2.286 0 1.083-.12 1.924-.36 2.646a3.282 3.282 0 0 1-1.082 1.442c-.362.482-.964.602-1.686.602v-.962c.603 0 .962-.241 1.323-.723.362-.48.603-1.563.603-3.006 0-1.564-.24-2.526-.603-3.127-.36-.481-.721-.723-1.323-.723v-.961zm-3.007 4.811c0-1.083.121-2.045.361-2.646.24-.722.602-1.204.963-1.563.48-.361 1.083-.601 1.684-.601v.961c-.481 0-.842.242-1.203.723-.36.481-.602 1.563-.602 3.127 0 1.443.241 2.526.48 3.006.362.482.842.723 1.324.723v.962c-.842 0-1.563-.361-2.044-.962-.602-.723-.963-2.046-.963-3.73zM141.59 52.084h-1.083v-7.218l-1.083.722c-.48.241-.842.481-1.202.601v-1.083c.602-.36 1.202-.721 1.684-1.082.481-.481.722-.842.962-1.323h.723v9.383h-.001zM147.604 42.702c.722.12 1.443.24 1.925.721.479.481.721 1.083.721 1.804 0 .361-.119.721-.359 1.083-.24.361-.602.601-.963.722.48.24.963.481 1.203.962.361.361.481.842.481 1.444 0 .722-.241 1.443-.842 2.044-.603.481-1.323.722-2.166.722v-.962c.48 0 .962-.121 1.323-.481s.48-.842.48-1.323c0-.602-.119-.963-.48-1.323-.361-.362-.843-.602-1.323-.602v-.962c.36 0 .722-.121 1.083-.362.24-.241.36-.601.36-.962 0-.48-.121-.842-.36-1.082-.361-.362-.723-.482-1.083-.482v-.961zm-1.324 4.33c-.48-.121-.842-.361-1.083-.722a2.04 2.04 0 0 1-.36-1.204c0-.601.241-1.202.723-1.684.479-.481 1.203-.721 2.044-.721v.962c-.481 0-.842.12-1.083.482-.36.24-.481.601-.481.961 0 .482.121.842.481 1.083.241.241.602.362 1.083.362v.962h-.12c-.481 0-.962.24-1.323.602-.361.36-.48.721-.48 1.323 0 .24.12.602.24.962.12.24.36.481.723.601.239.241.601.241.962.241v.962c-.962 0-1.685-.241-2.285-.842-.481-.481-.843-1.203-.843-1.924 0-.602.239-1.203.48-1.563.361-.362.721-.723 1.322-.843zM154.7 42.702c.603 0 .962.12 1.323.361.361.24.723.481.963.842.241.36.48.842.602 1.443.12.482.24 1.204.24 2.166 0 1.082-.12 1.925-.36 2.646-.24.601-.603 1.203-1.082 1.563-.362.361-.964.481-1.686.481v-.962c.603 0 .962-.241 1.323-.722.362-.481.603-1.444.603-3.007 0-1.564-.24-2.525-.603-3.007-.36-.601-.721-.842-1.323-.842v-.962zm-3.007 4.811c0-1.083.121-2.044.361-2.646a3.86 3.86 0 0 1 .963-1.563c.48-.361 1.083-.601 1.684-.601v.962c-.481 0-.842.241-1.203.722-.36.602-.602 1.563-.602 3.127 0 1.563.241 2.526.48 3.007.362.481.842.722 1.324.722v.962c-.842 0-1.563-.241-2.044-.962-.602-.723-.963-2.046-.963-3.73zM141.59 84.801h-1.083v-7.217c-.36.241-.722.481-1.083.842a8.08 8.08 0 0 1-1.202.481v-1.082a5.058 5.058 0 0 0 1.684-1.083c.481-.361.722-.842.962-1.203h.723v9.262h-.001zM150.491 77.824l-1.203.121c-.121-.482-.241-.843-.362-.963-.36-.361-.721-.481-1.202-.481h-.12v-.962h.241c.721 0 1.322.24 1.805.602.359.36.72.962.841 1.683zm-2.887.963h.241c.721 0 1.443.36 1.925.842.601.601.842 1.323.842 2.165 0 .602-.12 1.204-.362 1.685-.24.48-.6.842-1.082 1.082-.359.361-.961.481-1.442.481h-.12v-.962h.12c.481 0 .842-.24 1.203-.601.361-.362.48-.962.48-1.563 0-.602-.119-1.204-.48-1.564-.361-.362-.722-.481-1.323-.481l-.002-1.084zm0-2.286c-.361 0-.602.12-.842.24-.361.241-.602.722-.843 1.204-.24.48-.36 1.202-.36 2.165.36-.481.602-.722 1.083-.963.239-.12.601-.241.962-.36v1.082c-.481 0-.962.12-1.324.481-.36.36-.48.842-.48 1.443 0 .481.12.842.24 1.204.121.361.361.601.723.842.24.119.601.24.842.24v.962c-.962 0-1.685-.361-2.285-1.083-.604-.721-.843-1.803-.843-3.487 0-1.805.36-3.007.962-3.849.602-.722 1.324-1.083 2.166-1.083v.962h-.001zM154.7 75.539c.603 0 .962.121 1.323.24.361.241.723.602.963.963.241.361.48.842.602 1.323.12.602.24 1.324.24 2.166 0 1.083-.12 2.044-.36 2.646-.24.722-.603 1.203-1.082 1.564-.362.361-.964.602-1.686.602v-.962c.603 0 .962-.24 1.323-.721.362-.602.603-1.564.603-3.128 0-1.443-.24-2.526-.603-3.007-.36-.481-.721-.721-1.323-.721v-.965zm-3.007 4.691c0-1.083.121-1.925.361-2.646.24-.601.602-1.203.963-1.564.48-.36 1.083-.48 1.684-.48v.962c-.481 0-.842.24-1.203.601-.36.602-.602 1.685-.602 3.127 0 1.563.241 2.526.48 3.128.362.481.842.721 1.324.721v.962c-.842 0-1.563-.361-2.044-.962-.602-.842-.963-2.045-.963-3.849zM141.59 118.12h-1.083v-7.216l-1.083.721c-.48.24-.842.481-1.202.602v-1.083c.602-.361 1.202-.722 1.684-1.083.481-.481.722-.843.962-1.203h.723v9.262h-.001zM148.206 118.12v-2.165h-1.443v-1.083h1.443v-4.21l-1.443 2.044v-1.563l1.562-2.285h.963v6.015h1.323v1.083h-1.323v2.165l-1.082-.001zm-1.444-2.165h-2.646v-1.083l2.646-3.729v1.563l-1.443 2.167h1.443v1.082zM154.7 108.858c.603 0 .962 0 1.323.241.361.24.723.481.963.842.241.361.48.842.602 1.443.12.481.24 1.204.24 2.166 0 1.083-.12 1.924-.36 2.646-.24.602-.603 1.203-1.082 1.562-.362.362-.964.482-1.686.482v-.962c.603 0 .962-.241 1.323-.722.362-.482.603-1.444.603-3.007s-.24-2.526-.603-3.007c-.36-.601-.721-.842-1.323-.842v-.842zm-3.007 4.691c0-1.083.121-2.045.361-2.646a3.85 3.85 0 0 1 .963-1.564c.48-.361 1.083-.481 1.684-.481v.842c-.481 0-.842.241-1.203.722-.36.601-.602 1.564-.602 3.127s.241 2.525.48 3.007c.362.481.842.722 1.324.722v.962c-.842 0-1.563-.24-2.044-.962-.602-.722-.963-2.046-.963-3.729zM141.59 148.913h-1.083v-7.218l-1.083.723c-.48.24-.842.481-1.202.6v-1.082c.602-.361 1.202-.722 1.684-1.083.481-.481.722-.842.962-1.323h.723v9.383h-.001zM150.491 147.829v1.084h-6.135c0-.241 0-.602.121-.843.239-.361.48-.842.843-1.203.24-.361.842-.842 1.443-1.444.962-.722 1.685-1.443 2.045-1.924.359-.482.48-.963.48-1.324 0-.481-.121-.842-.48-1.202a1.845 1.845 0 0 0-1.204-.482c-.602 0-.962.241-1.324.482-.36.36-.48.842-.48 1.443l-1.203-.121c.119-.842.36-1.564.842-2.045.602-.481 1.324-.722 2.166-.722.843 0 1.562.36 2.166.842.479.481.722 1.083.722 1.804 0 .361-.121.723-.242 1.083-.119.361-.359.722-.721 1.082-.361.481-.963.962-1.805 1.685-.602.602-1.082.961-1.323 1.203-.121.12-.361.361-.481.601l4.57.001zM154.7 139.53c.603 0 .962.12 1.323.36.361.242.723.482.963.843.241.361.48.842.602 1.443.12.482.24 1.204.24 2.166 0 1.083-.12 1.925-.36 2.646-.24.602-.603 1.203-1.082 1.564-.362.362-.964.481-1.686.481v-.962c.603 0 .962-.241 1.323-.722.362-.481.603-1.444.603-3.007 0-1.564-.24-2.525-.603-3.007-.36-.601-.721-.842-1.323-.842v-.963zm-3.007 4.811c0-1.082.121-2.044.361-2.646a3.86 3.86 0 0 1 .963-1.563c.48-.361 1.083-.602 1.684-.602v.962c-.481 0-.842.241-1.203.722-.36.602-.602 1.563-.602 3.127 0 1.563.241 2.526.48 3.007.362.48.842.722 1.324.722v.962c-.842 0-1.563-.24-2.044-.962-.602-.721-.963-2.044-.963-3.729zM141.59 182.713h-1.083v-7.338c-.36.241-.722.602-1.083.842-.48.241-.842.482-1.202.602v-1.083c.602-.361 1.202-.721 1.684-1.083.481-.481.722-.842.962-1.323h.723v9.383h-.001zM147.604 173.33c.48 0 .843.12 1.204.361.48.12.721.481.962.842a4.5 4.5 0 0 1 .601 1.324c.121.601.241 1.323.241 2.285 0 1.083-.12 1.925-.362 2.526-.24.722-.6 1.204-.961 1.563-.48.361-1.083.601-1.685.601v-.961c.48 0 .962-.242 1.204-.723.359-.481.6-1.563.6-3.007 0-1.564-.24-2.646-.6-3.126a1.327 1.327 0 0 0-1.204-.723v-.962zm-3.128 4.811c0-1.202.12-2.044.36-2.646.241-.721.602-1.203 1.083-1.563.36-.361.962-.602 1.685-.602v.962h-.12c-.481 0-.842.241-1.204.723-.36.48-.601 1.562-.601 3.126 0 1.444.24 2.526.601 3.007.362.481.723.723 1.324.723v.961c-.962 0-1.685-.361-2.166-.961-.601-.723-.962-2.045-.962-3.73zM154.7 173.33c.603 0 .962.12 1.323.361.361.12.723.481.963.842.241.361.48.842.602 1.324.12.601.24 1.323.24 2.285 0 1.083-.12 1.925-.36 2.526-.24.722-.603 1.204-1.082 1.563-.362.361-.964.601-1.686.601v-.961c.603 0 .962-.242 1.323-.723.362-.481.603-1.563.603-3.007 0-1.564-.24-2.646-.603-3.126-.36-.482-.721-.723-1.323-.723v-.962zm-3.007 4.811c0-1.202.121-2.044.361-2.646a3.86 3.86 0 0 1 .963-1.563c.48-.361 1.083-.602 1.684-.602v.962c-.481 0-.842.241-1.203.723-.36.48-.602 1.562-.602 3.126 0 1.444.241 2.526.48 3.007.362.481.842.723 1.324.723v.961c-.842 0-1.563-.361-2.044-.961-.602-.723-.963-2.045-.963-3.73zM147.604 204.604c.722 0 1.443.242 1.925.722.479.481.721 1.083.721 1.685 0 .481-.119.842-.359 1.203-.24.24-.602.481-.963.722.48.121.963.481 1.203.842.361.481.481.963.481 1.564 0 .723-.241 1.444-.842 1.926-.603.602-1.323.842-2.166.842v-.963c.48 0 .962-.119 1.323-.481.361-.36.48-.842.48-1.323 0-.601-.119-1.083-.48-1.443-.361-.361-.843-.481-1.323-.481v-.963c.36 0 .722-.12 1.083-.36.24-.241.36-.602.36-1.083 0-.362-.121-.722-.36-.963-.361-.36-.723-.481-1.083-.481v-.965zm-1.324 4.33c-.48-.241-.842-.481-1.083-.722a2.037 2.037 0 0 1-.36-1.203c0-.601.241-1.204.723-1.685.479-.48 1.203-.722 2.044-.722v.962c-.481 0-.842.121-1.083.481-.36.241-.481.601-.481.963 0 .361.121.722.481 1.083.241.24.602.36 1.083.36v.963h-.12c-.481 0-.962.121-1.323.481s-.48.842-.48 1.323c0 .361.12.722.24.964.12.36.36.601.723.721.239.121.601.24.962.24v.963c-.962 0-1.685-.24-2.285-.842a2.904 2.904 0 0 1-.843-2.046c0-.602.239-1.083.48-1.444.361-.48.721-.719 1.322-.84zM154.7 204.604c.603 0 .962.121 1.323.361.361.121.723.482.963.842.241.362.48.842.602 1.324.12.602.24 1.323.24 2.286 0 1.083-.12 1.924-.36 2.646a3.3 3.3 0 0 1-1.082 1.444c-.362.361-.964.601-1.686.601v-.963c.603 0 .962-.24 1.323-.721.362-.48.603-1.563.603-3.007 0-1.564-.24-2.527-.603-3.127-.36-.482-.721-.722-1.323-.722v-.964zm-3.007 4.812c0-1.083.121-2.045.361-2.646.24-.722.602-1.203.963-1.564.48-.36 1.083-.602 1.684-.602v.962c-.481 0-.842.24-1.203.722-.36.481-.602 1.563-.602 3.127 0 1.443.241 2.526.48 3.007.362.48.842.721 1.324.721v.963c-.842 0-1.563-.36-2.044-.963-.602-.721-.963-2.044-.963-3.727zM150.491 239.729l-1.203.119c-.121-.479-.241-.844-.362-.961-.36-.363-.721-.603-1.202-.603l-.12.118v-.961h.241c.721 0 1.322.119 1.805.601.359.36.72.962.841 1.687zm-2.887.96h.241c.721 0 1.443.24 1.925.84.601.604.842 1.326.842 2.166 0 .604-.12 1.084-.362 1.685-.24.481-.6.843-1.082 1.082-.359.24-.961.363-1.442.363h-.12v-.843h.12c.481 0 .842-.24 1.203-.604.361-.361.48-.962.48-1.562 0-.723-.119-1.203-.48-1.562-.361-.361-.722-.604-1.323-.604l-.002-.961zm0-2.287c-.361 0-.602.121-.842.242-.361.241-.602.602-.843 1.201-.24.482-.36 1.202-.36 2.045.36-.361.602-.722 1.083-.843.239-.237.601-.358.962-.358v.961c-.481.121-.962.24-1.324.604-.36.359-.48.842-.48 1.441 0 .361.12.842.24 1.205.121.238.361.6.723.721.24.24.601.361.842.361v.843c-.962 0-1.685-.363-2.285-.964-.604-.723-.843-1.924-.843-3.488 0-1.805.36-3.127.962-3.85.602-.722 1.324-1.082 2.166-1.082v.961h-.001zM154.7 237.441c.603 0 .962.119 1.323.24.361.24.723.48.963.842.241.479.48.844.602 1.443.12.481.24 1.202.24 2.165 0 1.083-.12 1.925-.36 2.646-.24.722-.603 1.203-1.082 1.562-.362.36-.964.483-1.686.483v-.843c.603 0 .962-.24 1.323-.844.362-.48.603-1.443.603-3.007s-.24-2.526-.603-3.008c-.36-.479-.721-.722-1.323-.722v-.957zm-3.007 4.692c0-1.084.121-1.925.361-2.646.24-.6.602-1.201.963-1.562.48-.361 1.083-.48 1.684-.48v.961c-.481 0-.842.121-1.203.602-.36.604-.602 1.564-.602 3.129 0 1.563.241 2.525.48 3.008.362.603.842.842 1.324.842v.844c-.842 0-1.563-.242-2.044-.964-.602-.726-.963-1.929-.963-3.734z"/><path fill="none" stroke="#000" stroke-width="1.457" d="M3.021 133.035c0-1.443 1.925-6.856 2.767-3.849.36 1.443.481 4.451.842 2.406.36-1.684 0-3.85 1.806-1.324 1.684 2.767.12 2.887 1.684-1.083 1.203-2.767 1.203-.842 1.203.723 0 4.089 0 3.247 2.766 1.323 2.406-1.805 3.85 1.323 5.774 3.247 2.165 2.045.842-13.472 2.286-11.908 3.006 3.007 1.323-2.286 2.524-1.082 1.805 1.805.962 7.698.962 10.223 0 4.692-.119-.601 1.203-.601 1.083 0 .361-4.571 1.805-1.684 1.925 4.089-.36 6.014 2.646.842 1.324-2.044.241 3.368 2.166 1.443 2.044-2.044-.361-3.487 3.969-3.487 1.323 0 1.083 4.811 2.285-.722 1.805-7.458 1.686 4.209 4.932-2.285 3.128-6.375 3.007-2.165 5.414-1.444.36 0 5.411 7.097 6.855 7.097 1.082 0 2.886-2.525 2.886-3.848 0-1.564 4.21 2.165 2.407 2.165 1.443.121 1.563.121 2.285-.481.361-.361 1.443-2.766 1.562-3.608 0-.361-.12-2.044.24-2.044 1.685-.482 1.204 3.006 2.406 3.006.962 0 1.804-1.804 1.804-2.887s.482.121.482.121c.241.36.241 2.405.601 3.126.361.602 1.443-.24 1.443.962 0 .482-.12 1.443-.12 1.925 0 .842.962.481 1.082.602v1.684s1.204-2.406 1.204-2.768c0-.48.601-1.562.962-1.323.601.722 1.083 1.805 1.562 2.646.361.481 1.563-2.166 1.806-2.406.24-.721.962-1.684.962-2.525.48.361 1.083.842 1.324 1.323.119.361 1.082-1.563 1.082-1.563.12 0 1.442.963 1.442.963.12.119.481.119.603-.242 0-.12.48-.24.48-.24.241-.241.603-1.323.603-1.323 0-.121.239-.121.239-.121l.962 1.083c.36.481.843.843.843 1.323 0 .481.601.602.601 1.083 0-3.247 3.488-.602 4.21.24.842.723 1.202 1.444 1.805.723 1.805-1.805 1.924-4.451 3.127.481.239 1.443 1.202-4.812 3.487-1.684 1.443 2.044 2.646-1.564 2.767-2.767 1.082-6.135 3.127 12.75 3.367 12.51 2.406-1.084 1.806.24 1.806 4.089 0 2.406-.361 3.368.842.963 2.045-4.21 2.045-.843 2.887.961.481.963-.12 3.369 1.443 3.369 5.172 0 3.248 9.382 3.248 13.952 0 .963.601 7.939.601 4.571 0-.48.843-3.127.963-3.247 0 0 1.925 4.451 2.405 4.932 0 1.203-.48 6.496.722 6.496 1.925 0 1.323 6.134 2.767 7.578.48.481-.241 2.405-.241 3.247 0 2.166 2.887.843 2.887 3.609 0 1.083 4.932 4.691 4.932 8.179 0 5.052 2.887 4.089 2.887 7.938.481.842.361 2.045 1.083.962 1.443-2.044 4.57-6.254 4.57-.962 0 .962 1.083 1.924 1.805 2.526 1.083 1.203 1.805 1.203 2.767.241.602-.722 3.126-5.654 3.126-1.323 0 1.924 3.97 3.127 4.571 1.562.481-.961 1.685-7.698 3.849-3.126.361.601.843 2.525 1.203 1.203.12-.602 2.767-2.165 2.767-2.165.121 1.202 2.045 1.924 3.008 2.887.962.962 4.21-4.691 6.374-5.654.242-.24.962 2.886.962 2.886 1.083 2.286 5.172-6.014 5.172-7.938 0-1.563 1.687.361 2.405.361 2.287 0 3.852-5.894 4.212-8.06 0-.842.24-6.375 1.562-2.285 0 .24 2.405-6.496 2.767-6.856.603-.602.603-2.044.603-3.488 0-1.443 2.166-.722 2.166-1.924 2.526-1.324-1.204-7.458 2.403-8.3 1.563-.361.481-6.135 1.926-5.533.36.241 2.768 1.684 3.127 1.684.962 0 .24-3.608.962-3.849 2.166-1.202 3.73-5.051 4.692-6.976.601-1.324 1.202-2.286 1.684-3.729.723-2.286-.239-2.406 1.927-1.926 2.044-.48 6.854-9.742 7.335-9.742 3.85 0 .962-.602 2.888-2.525.843-.842 3.248 2.286 4.812-2.887.842-2.526-.12-2.286 1.685-.481.962.962 2.404-4.089 2.888-4.089.6 0 1.321 3.247 1.922 1.805.725-1.324.962-1.926 2.405-1.685 2.647.722-.24 1.685 2.407-1.083 2.164-2.165 3.247.842 3.247 1.925 0 1.443 2.404.601 2.404.601 0-1.443 0 2.767 2.768.962 2.286-1.443 4.21-2.646 4.21 1.082 0 2.406 2.889-3.126 4.934.723 2.163 4.691 1.924-.963 3.97-.963 1.804 0 .963 4.209 2.646.963 2.404-4.933.24 2.405 3.126.962.843-.241.843-4.33 2.646-4.33 0 0 4.212-3.608 3.851-3.608 0 3.248.24 4.209 1.323 6.736.359.601.841 4.45 1.083 4.811.359.361 1.201-1.203 1.201-1.203 0-.24.843-1.684.843-1.924 0-.121 1.083 1.803 1.202 2.165.48.962 2.288-5.654 2.767-5.654 1.205 0 1.806 0 2.647-.842.963-.962 1.442-2.525 2.046-.481.119.601.479 1.323.479 1.925 0 1.684 2.646-4.812 2.887-4.451.842.723 1.804 2.166 2.405 2.887.48.482 0 .722.962-.241 1.686-1.562 1.083-2.045 2.647-.962.841.481.962 1.443 1.803.722.603-.722 2.285-1.924 2.285-1.924.241.48 2.526 3.367 2.646 3.127 0 0 .482-.602.722-.722.482-.481.241-1.203 1.084.482.479 1.082.842 2.043 1.441 2.766.723.602 1.687-.722 1.927-1.443.24-.602 2.525 2.886 2.525 2.886.119.24 3.006-1.324 3.127-1.443.844-1.324 1.564-2.766 2.526-3.729 1.202-1.323.479.601 1.924.601 1.204 0 1.204-.962 1.564-1.805 0-.12 1.081-1.563 1.322-1.924.362-.36.962-.963 1.443-1.444.36-.361 1.202 2.166 1.803 2.166 1.443 0 1.927-3.127 4.212-.842.359.361.359 1.443.842 1.925.481.482 2.404-.121 2.404-.842"/><path d="M97.565 273.406v-7.458h5.052v.962h-4.089v2.288h3.488v.841h-3.488v3.367zM107.188 265.829c.601 0 1.203.239 1.805.479.602.362.962.844 1.203 1.443.36.602.479 1.203.479 1.924 0 .844-.12 1.445-.479 2.047a2.611 2.611 0 0 1-1.203 1.322 3.415 3.415 0 0 1-1.805.48v-.84c.722 0 1.323-.242 1.805-.725.481-.604.721-1.322.721-2.286 0-.6-.119-1.081-.359-1.562-.242-.48-.481-.723-.843-1.084-.481-.241-.843-.358-1.323-.358v-.84zm-3.609 3.969c0-1.202.362-2.164.962-2.888.723-.721 1.564-1.081 2.646-1.081v.843c-.723 0-1.323.238-1.806.721-.48.481-.842 1.324-.842 2.405 0 .964.241 1.562.723 2.165.48.48 1.083.725 1.924.725v.84c-.723 0-1.323-.12-1.924-.48-.602-.359-.964-.843-1.203-1.443-.359-.483-.48-1.207-.48-1.807zM114.886 265.948h.361c.722 0 1.203.12 1.563.241.239.119.601.36.722.721.24.361.36.724.36 1.083 0 .603-.12.963-.481 1.323-.361.359-.842.602-1.562.723.239.121.359.24.601.359.241.242.481.603.722.961l1.323 2.047h-1.203l-.962-1.562a3.922 3.922 0 0 1-.723-.964c-.24-.239-.36-.481-.481-.481-.119-.118-.119-.118-.241-.118v-.962h.122c.481 0 .843-.119 1.082-.24.241 0 .481-.242.603-.359.12-.242.24-.482.24-.725 0-.359-.12-.602-.481-.842-.241-.241-.601-.362-1.203-.362h-.362v-.842zm-2.887 7.458v-7.458h2.888v.841h-1.925v2.527h1.925v.963c-.12 0-.12-.119-.24-.119h-1.685v3.246h-.963zM122.344 273.406v-7.458h.962v3.129h3.85v-3.129h.961v7.458h-.961v-3.488h-3.85v3.488zM129.921 272.324h1.083v1.082h-1.083zM135.455 265.948c.481 0 .843.12 1.203.12.361.121.601.121.842.361.241.12.482.358.602.723.121.238.24.601.24.961 0 .722-.24 1.203-.601 1.685-.361.362-1.083.601-2.166.601h-.12v-.84h.12c.603 0 1.083-.121 1.323-.359.242-.242.481-.604.481-.965 0-.359-.121-.601-.239-.842-.242-.24-.362-.36-.724-.481h-.962v-.964h.001zm-2.767 7.458v-7.458h2.767v.962h-1.805v2.646h1.805v.842h-1.805v3.008h-.962zM138.341 272.324h1.083v1.082h-1.083zM146.04 272.805c.24 0 .361-.117.603-.238a.946.946 0 0 0 .48-.481c.12-.239.24-.481.361-.843.12-.361.12-.723.12-1.081v-.242c-.12.242-.481.479-.723.724-.239.119-.602.238-.842.238v-.72c.481 0 .842-.242 1.083-.483.24-.359.361-.721.361-1.201 0-.602-.121-.963-.361-1.322-.36-.242-.602-.48-1.083-.48v-.724c.481 0 .842.12 1.203.36.481.362.722.723.963 1.203s.36 1.084.36 2.045c0 .963-.119 1.685-.36 2.287-.241.601-.481.959-.963 1.201-.361.36-.722.48-1.203.48v-.723zm-2.286-1.082l.962-.119c0 .48.121.722.362.963.241.121.481.238.842.238h.12v.723h-.12c-.601 0-1.083-.12-1.443-.48-.362-.36-.602-.724-.723-1.325zm2.286-.843h-.24c-.603 0-1.083-.239-1.562-.601a2.945 2.945 0 0 1-.603-1.805c0-.723.24-1.322.722-1.804.36-.481.963-.724 1.563-.724h.12v.724c-.359.117-.721.238-.961.601-.362.24-.481.722-.481 1.203 0 .48.119.842.36 1.201.362.241.723.362 1.083.483l-.001.722zM154.218 272.564v.842h-4.93c0-.239 0-.36.119-.604.121-.359.362-.72.602-.96.24-.362.723-.722 1.203-1.202.843-.603 1.323-1.205 1.564-1.563.36-.36.48-.724.48-1.084 0-.359-.12-.603-.361-.841-.24-.363-.602-.48-1.082-.48-.361 0-.723.238-.962.48-.36.238-.481.601-.481 1.082l-.963-.12c.121-.724.362-1.204.723-1.563a2.967 2.967 0 0 1 1.806-.603c.6 0 1.202.241 1.684.603.361.359.601.842.601 1.442 0 .36-.119.603-.239.963a2.778 2.778 0 0 1-.604.842c-.239.362-.721.722-1.322 1.324-.602.479-.963.722-1.082.962-.241.119-.361.24-.361.48h3.605zM155.181 267.031v-.963h4.812v.721c-.48.482-.842 1.204-1.323 2.046a11.49 11.49 0 0 0-1.082 2.524c-.24.604-.36 1.326-.36 2.047h-.963c0-.604.121-1.322.361-2.047.239-.84.48-1.684.962-2.403a6.047 6.047 0 0 1 1.323-1.925h-3.73zM163.36 265.948c.361 0 .723.12 1.083.241.241.119.48.36.723.721.239.242.36.724.481 1.083.119.481.119 1.084.119 1.805 0 .843-.119 1.562-.24 2.046-.24.602-.481.961-.842 1.323-.36.239-.843.36-1.324.36v-.725c.361 0 .723-.238 1.083-.601.241-.359.361-1.202.361-2.405 0-1.202-.12-2.045-.361-2.525-.36-.361-.722-.601-1.083-.601v-.722zm-2.404 3.85c0-.963.119-1.563.24-2.164.241-.481.481-.962.842-1.204.361-.359.722-.48 1.323-.48v.724c-.481 0-.721.238-.962.601-.361.48-.481 1.324-.481 2.525 0 1.203.12 2.047.361 2.405.361.362.601.601 1.082.601v.725c-.721 0-1.323-.241-1.685-.725-.48-.603-.72-1.684-.72-3.008zM166.608 270.279h2.768v.962h-2.768zM172.622 265.948c.362 0 .725.12.964.241.36.119.602.36.723.721.239.242.359.724.479 1.083.123.481.242 1.084.242 1.805 0 .843-.119 1.562-.361 2.046-.12.602-.359.961-.722 1.323-.36.239-.841.36-1.324.36v-.725c.362 0 .725-.238.964-.601.36-.359.481-1.202.481-2.405 0-1.202-.121-2.045-.481-2.525-.239-.361-.602-.601-.964-.601v-.722h-.001zm-2.525 3.85c0-.963.119-1.563.359-2.164.119-.481.361-.962.723-1.204.36-.359.843-.48 1.441-.48v.724c-.479 0-.841.238-1.081.601-.24.48-.48 1.324-.48 2.525 0 1.203.12 2.047.48 2.405.24.362.602.601 1.081.601v.725c-.721 0-1.321-.241-1.682-.725-.48-.603-.841-1.684-.841-3.008zM178.877 273.406v-1.805h-1.203v-.842h1.203v-3.248l-1.203 1.564v-1.203l1.324-1.926h.722v4.812h1.081v.843h-1.081v1.804l-.843.001zm-1.203-1.802h-2.043v-.843l2.043-2.887v1.203l-1.201 1.684h1.201v.843zM184.17 265.948c.601 0 1.081.241 1.442.603.48.359.603.842.603 1.323 0 .36 0 .722-.239.961-.121.242-.481.481-.843.603.479.121.843.36 1.082.724.24.237.361.72.361 1.081 0 .722-.242 1.203-.723 1.684-.36.361-.963.604-1.685.604v-.725c.361 0 .722-.117 1.081-.479.242-.24.361-.602.361-.965 0-.479-.119-.84-.361-1.08-.359-.361-.72-.481-1.081-.481v-.721c.361 0 .601-.121.842-.36.239-.242.36-.482.36-.843s-.121-.603-.36-.843a1.291 1.291 0 0 0-.842-.359l.002-.727zm-1.082 3.49c-.36-.119-.602-.359-.843-.603-.24-.239-.24-.601-.24-.961 0-.481.119-.964.602-1.323a2 2 0 0 1 1.443-.603h.12v.724c-.361 0-.722.117-.964.359-.239.24-.359.48-.359.843 0 .36.12.601.359.843.242.239.603.36.964.36v.721h-.12c-.36 0-.723.12-.962.362-.36.359-.481.72-.481 1.081 0 .239.121.603.24.843.12.24.241.359.48.48.242.121.48.238.843.238v.725c-.843 0-1.323-.241-1.805-.604-.481-.48-.722-.962-.722-1.684 0-.48.119-.844.36-1.202.243-.36.603-.478 1.085-.599zM190.425 273.406v-1.805h-1.203v-.842h1.203v-3.248l-1.203 1.564v-1.203l1.324-1.926h.721v4.812h.964v.843h-.964v1.804l-.842.001zm-1.204-1.802h-2.047v-.843l2.047-2.887v1.203l-1.201 1.684h1.201v.843z"/><path fill="none" stroke="#000" stroke-width=".97" d="M13.366 391.887c3.488-.602 11.307-1.081 14.434-3.488 5.533-4.21 6.135 1.926 10.226 1.926 2.405 0 3.969-1.082 7.457-1.082 3.608 0 13.472 3.246 13.472-4.69 0-2.646 3.128-9.021 6.016-9.021 4.57-5.773 7.697-11.188 9.383-18.284 2.887-12.148 1.322-18.284 15.997-21.17 11.668-2.405 12.51 2.286 15.999 9.382 1.924 3.85 6.496 1.325 6.496 9.384 0 3.729 5.772 3.488 5.772 8.179 0 4.45 5.533 8.3 5.533 13.473 0 8.661 0 9.502 5.413 14.795 7.579.964 9.864-1.685 17.201-1.685 6.496 0 5.772 3.849 13.23 1.321 4.09-1.321 6.376.604 10.947-.962 5.051-1.562 7.696 1.324 14.072 1.324 1.563 0 .963-1.925 2.283-2.286 3.13-.962 9.022 1.807 8.66 1.807 5.174 1.683 7.099-2.888 11.188-.603 6.013 3.488 8.66-4.211 13.471.603 1.924 1.925 21.17.359 25.62.359 2.286.601 13.111 2.284 14.795.601 2.168-2.164 6.495.723 8.661.723 6.134 0 11.187-1.924 17.439-1.924 3.368 0 16.602 1.924 19.246 3.247"/><g><path fill="#FFF" d="M133.29 281.466h24.538v12.63H133.29zM132.929 308.648h24.538v12.512h-24.538zM132.929 333.909h24.538v12.509h-24.538zM132.929 359.169h24.538v12.391h-24.538zM133.049 385.511h24.539v12.631h-24.539zM133.049 410.17h24.539v12.51h-24.539z"/><path d="M141.349 310.815c.842 0 1.442.239 1.924.722.48.479.722 1.081.722 1.684 0 .48-.121.843-.361 1.204-.12.238-.481.48-.962.72.603.121.962.48 1.323.844.241.479.36.964.36 1.562 0 .722-.24 1.443-.842 1.925-.481.603-1.203.842-2.165.842v-.963c.602 0 .961-.119 1.322-.48.361-.359.603-.841.603-1.322 0-.6-.241-1.083-.603-1.443-.36-.239-.842-.481-1.322-.481v-.962c.479 0 .842-.119 1.083-.359.239-.24.48-.603.48-1.083 0-.359-.241-.722-.48-.963-.241-.358-.603-.479-1.083-.479l.001-.968zm-1.324 4.33c-.481-.238-.842-.48-.962-.72a2.043 2.043 0 0 1-.361-1.204c0-.603.241-1.203.722-1.684.481-.481 1.083-.722 1.926-.722v.962c-.482 0-.843.121-1.082.479-.242.241-.482.604-.482.963 0 .361.24.722.482 1.083.239.24.6.359 1.082.359v.962c-.603 0-.963.121-1.324.481-.36.36-.602.845-.602 1.324 0 .36.12.721.241.961.24.361.36.603.722.724.24.239.602.239.963.239v.962c-.963 0-1.685-.239-2.166-.842-.602-.48-.843-1.202-.843-2.044 0-.604.121-1.085.361-1.443.361-.479.842-.719 1.323-.84zM148.565 310.815c.481 0 .963.12 1.324.358.359.121.602.481.842.843a4.5 4.5 0 0 1 .602 1.324c.12.601.24 1.321.24 2.283 0 1.084-.12 1.926-.361 2.646a4.28 4.28 0 0 1-.963 1.443c-.479.481-1.082.602-1.684.602v-.963c.481 0 .963-.238 1.324-.722.359-.48.48-1.562.48-3.008 0-1.562-.121-2.525-.48-3.126-.361-.481-.843-.722-1.324-.722v-.958zm-3.006 4.81c0-1.081.12-2.043.24-2.644.24-.725.602-1.204 1.082-1.564.481-.361.963-.602 1.685-.602v.962c-.602 0-.962.239-1.323.722s-.601 1.562-.601 3.126c0 1.445.239 2.526.601 3.008.361.482.722.722 1.323.722v.963c-.962 0-1.685-.36-2.165-.963-.601-.722-.842-2.044-.842-3.73zM144.236 337.397l-1.204.119c0-.48-.24-.841-.361-.962-.36-.359-.721-.601-1.203-.601 0 0 0 .119-.119.119v-.96h.24c.722 0 1.323.119 1.805.6.481.362.721.965.842 1.685zm-2.887.963h.24c.843 0 1.443.239 2.044.842.481.601.722 1.322.722 2.165 0 .601-.119 1.081-.36 1.684a2.363 2.363 0 0 1-1.083 1.083c-.361.24-.843.36-1.444.36h-.119v-.841h.119c.482 0 .843-.241 1.203-.604.361-.359.603-.962.603-1.563 0-.721-.241-1.2-.603-1.562-.36-.36-.721-.602-1.203-.602h-.119v-.962zm0-2.286c-.24 0-.603.121-.843.242-.36.238-.602.599-.842 1.2a8.597 8.597 0 0 0-.241 2.045c.241-.359.602-.72.963-.841.36-.241.602-.36.963-.36v.962c-.482.121-.843.239-1.203.602a1.996 1.996 0 0 0-.603 1.443c0 .36.121.843.241 1.202.24.241.482.603.722.722.24.241.603.362.843.362v.841c-.843 0-1.564-.36-2.166-.962-.602-.722-.961-1.925-.961-3.488 0-1.804.36-3.129 1.083-3.849.48-.723 1.202-1.081 2.045-1.081l-.001.96zM148.565 335.114c.481 0 .963.119 1.324.237a2.8 2.8 0 0 1 .842.844c.241.48.48.841.602 1.442.12.48.24 1.204.24 2.164 0 1.082-.12 1.926-.361 2.646a3.805 3.805 0 0 1-.963 1.563c-.479.361-1.082.481-1.684.481v-.841c.481 0 .963-.241 1.324-.843.359-.481.48-1.443.48-3.009 0-1.562-.121-2.523-.48-3.005-.361-.48-.843-.724-1.324-.724v-.955zm-3.006 4.689c0-1.081.12-1.924.24-2.646.24-.603.602-1.202 1.082-1.564.481-.358.963-.479 1.685-.479v.96c-.602 0-.962.121-1.323.603-.361.603-.601 1.563-.601 3.126 0 1.564.239 2.526.601 3.009.361.602.722.843 1.323.843v.841c-.962 0-1.685-.239-2.165-.962-.601-.722-.842-1.927-.842-3.731zM141.951 370.355v-2.284h-1.444v-.962h1.444v-4.092l-1.444 2.046V363.5l1.685-2.286h.961v5.896h1.203v.962h-1.203v2.284l-1.202-.001zm-1.444-2.284h-2.524v-.962l2.524-3.609v1.563l-1.442 2.046h1.442v.962zM148.565 361.095c.481 0 .963.119 1.324.359.359.241.602.48.842.843.241.361.48.843.602 1.443.12.479.24 1.204.24 2.164 0 .964-.12 1.805-.361 2.525-.239.604-.601 1.203-.963 1.564-.479.359-1.082.48-1.684.48v-.963c.481 0 .963-.242 1.324-.723.359-.481.48-1.562.48-2.887 0-1.562-.121-2.524-.48-3.005-.361-.604-.843-.844-1.324-.844v-.956zm-3.006 4.809c0-1.081.12-2.043.24-2.646.24-.722.602-1.202 1.082-1.562.481-.36.963-.602 1.685-.602v.962c-.602 0-.962.24-1.323.723-.361.479-.601 1.562-.601 3.126 0 1.323.239 2.404.601 2.887.361.479.722.723 1.323.723v.963c-.962 0-1.685-.359-2.165-.963-.601-.724-.842-2.046-.842-3.611zM144.236 395.976v1.083h-6.015c-.121-.358 0-.601.119-.841.121-.36.361-.843.723-1.204.36-.48.842-.841 1.442-1.442 1.083-.841 1.685-1.442 2.045-1.924.361-.482.602-.963.602-1.443 0-.361-.24-.723-.48-1.083-.36-.359-.842-.48-1.322-.48-.482 0-.963.121-1.324.48-.36.36-.481.841-.481 1.443l-1.203-.121c.121-.962.361-1.564.964-2.045.48-.479 1.202-.722 2.045-.722.961 0 1.684.241 2.165.722.48.479.723 1.203.723 1.926 0 .36 0 .721-.241 1.083-.121.358-.361.722-.722 1.081-.361.36-.963.962-1.685 1.686a8.377 8.377 0 0 0-1.322 1.083c-.242.239-.362.479-.482.72l4.449-.002zM148.565 387.677c.481 0 .963.12 1.324.36.359.121.602.48.842.841.241.363.48.845.602 1.325.12.603.24 1.322.24 2.284 0 1.083-.12 1.926-.361 2.646a4.27 4.27 0 0 1-.963 1.443c-.479.361-1.082.602-1.684.602v-.962c.481 0 .963-.242 1.324-.723.359-.481.48-1.562.48-3.008 0-1.564-.121-2.646-.48-3.127-.361-.482-.843-.722-1.324-.722v-.959zm-3.006 4.81c0-1.081.12-2.045.24-2.646.24-.722.602-1.202 1.082-1.563.481-.359.963-.602 1.685-.602v.963c-.602 0-.962.238-1.323.722-.361.48-.601 1.562-.601 3.127 0 1.444.239 2.525.601 3.008.361.479.722.723 1.323.723v.962c-.962 0-1.685-.36-2.165-.962-.601-.724-.842-2.046-.842-3.732zM144.957 411.975c.481 0 .963 0 1.323.24.362.24.602.48.843.841.24.361.481.844.602 1.443.121.48.24 1.204.24 2.166 0 1.083-.119 1.924-.36 2.646-.241.723-.481 1.204-.962 1.566-.481.357-1.083.479-1.686.479v-.842c.481 0 .963-.36 1.323-.843.362-.479.482-1.441.482-3.007s-.12-2.526-.482-3.007c-.36-.481-.842-.722-1.323-.842v-.84zm-3.006 4.69c0-1.083.119-1.924.24-2.646.241-.722.602-1.202 1.083-1.563.48-.361.963-.48 1.684-.48v.843c-.602 0-.962.238-1.322.722-.361.601-.603 1.562-.603 3.127s.241 2.526.603 3.007c.36.481.721.843 1.322.843v.842c-.962 0-1.562-.24-2.165-.963-.602-.725-.842-1.927-.842-3.732zM138.943 292.292h-1.083v-7.34c-.24.362-.603.603-1.083.845-.48.238-.842.48-1.203.602v-1.082c.602-.363 1.203-.724 1.684-1.084.482-.48.843-.842.964-1.322h.722v9.381h-.001zM144.957 282.909c.481 0 .963.118 1.323.36.362.119.602.48.843.842.24.361.481.841.602 1.322.121.602.24 1.324.24 2.287 0 1.082-.119 1.924-.36 2.646-.241.603-.481 1.083-.962 1.442-.481.482-1.083.604-1.686.604v-.963c.481 0 .963-.24 1.323-.721.362-.483.482-1.564.482-3.009 0-1.563-.12-2.526-.482-3.128-.36-.48-.842-.722-1.323-.722v-.96zm-3.006 4.812c0-1.082.119-2.045.24-2.646.241-.723.602-1.202 1.083-1.562.48-.361.963-.602 1.684-.602v.962c-.602 0-.962.239-1.322.722-.361.48-.603 1.563-.603 3.129 0 1.442.241 2.523.603 3.008.36.479.721.721 1.322.721v.963c-.962 0-1.562-.362-2.165-.963-.602-.724-.842-2.049-.842-3.732zM152.175 282.909c.481 0 .843.118 1.323.36.361.119.603.48.842.842.241.361.481.841.603 1.322.12.602.24 1.324.24 2.287 0 1.082-.12 1.924-.36 2.646a4.317 4.317 0 0 1-.962 1.442c-.482.482-1.082.604-1.685.604v-.963c.481 0 .962-.24 1.323-.721.361-.483.481-1.564.481-3.009 0-1.563-.121-2.526-.481-3.128-.36-.48-.842-.722-1.323-.722l-.001-.96zm-3.008 4.812c0-1.082.121-2.045.24-2.646.242-.723.602-1.202 1.083-1.562.36-.361.962-.602 1.684-.602v.962c-.602 0-.963.239-1.323.722-.36.48-.603 1.563-.603 3.129 0 1.442.242 2.523.603 3.008.36.479.722.721 1.323.721v.963c-.963 0-1.684-.362-2.166-.963-.601-.724-.841-2.049-.841-3.732z"/></g></svg>