<svg version="1.1" xmlns="http://www.w3.org/2000/svg" x="0" y="0" width="327.324" height="178.289" viewBox="0 0 327.324 178.289" xml:space="preserve"><path fill="none" stroke="#000" stroke-width="2.68" d="M89.186 176.949c48.354 0 87.847-39.41 87.847-87.763 0-48.354-39.493-87.847-87.847-87.847C40.833 1.34 1.34 40.833 1.34 89.187c0 48.352 39.493 87.762 87.846 87.762z"/><path fill="none" stroke="#000" stroke-width="1.007" d="M20.495 146.569L92.73 82.267l14.599-78.143M178.551 84.208c-28.86.253-57.468 0-85.906-1.52"/><path stroke="#000" stroke-width="1.007" d="M81.338 92.393c5.569-9.451 10.717-20.59 15.61-32.827 4.726 8.776 10.127 17.046 17.384 24.05-11.054 2.448-22.024 5.233-32.994 8.777z"/><path d="M227.664 57.626v-8.438h1.096v7.425h4.136v1.013zM238.126 56.866c-.42.337-.759.507-1.095.675-.254.085-.422.085-.592.169v-.844c.254 0 .506-.084.761-.169.251-.169.506-.422.673-.759.086-.253.171-.591.171-1.012v-.338c-.424.084-.929.253-1.604.338v-.845c.676-.083 1.181-.253 1.604-.337v-.253c0-.422-.171-.759-.338-.928-.255-.253-.675-.337-1.183-.337h-.084v-.844h.254c.507 0 .927.085 1.266.168.336.169.591.254.676.506.168.169.338.423.338.676.084.169.084.506.084.929v1.349c0 1.013 0 1.604.082 1.857 0 .253.086.507.256.76h-1.1c-.082-.254-.169-.508-.169-.761zm-1.685.844h-.592c-.676 0-1.183-.169-1.52-.423-.336-.336-.592-.759-.592-1.265 0-.337.084-.591.256-.844.082-.253.336-.422.505-.591.253-.168.506-.252.759-.337.17-.083.508-.083.93-.169h.254v.845h-.086c-.422.083-.76.168-.928.253-.17 0-.339.168-.423.337a.64.64 0 0 0-.169.422c0 .337.169.506.338.675.254.253.508.338.928.338.086 0 .254 0 .34-.085v.844zm0-5.485c-.422 0-.76.084-.93.253-.254.168-.423.506-.592.928l-.926-.168c.082-.422.167-.759.42-1.013.169-.253.506-.507.928-.591.34-.168.678-.253 1.1-.253v.844zM240.66 57.626v-6.077h.928v.845c.169-.338.422-.591.76-.76.254-.168.676-.253 1.098-.253.423 0 .761.085 1.098.253.253.254.506.507.591.845.507-.76 1.097-1.098 1.857-1.098.589 0 1.095.168 1.433.507.254.337.424.844.424 1.519v4.22h-1.015v-3.882c0-.422 0-.675-.084-.843-.083-.169-.169-.338-.336-.422-.171-.169-.422-.169-.677-.169-.422 0-.76.084-1.014.422-.336.253-.423.675-.423 1.35v3.545h-1.013V53.66c0-.507-.082-.845-.251-1.013-.169-.253-.509-.337-.845-.337-.338 0-.59 0-.846.169-.253.168-.42.422-.506.675a5.118 5.118 0 0 0-.169 1.266v3.207l-1.01-.001zM252.98 51.381h.084c.422 0 .761.085 1.099.253.336.084.589.338.842.591.17.253.339.59.507 1.013.086.337.168.76.168 1.265 0 1.013-.252 1.772-.758 2.363a2.4 2.4 0 0 1-1.857.844h-.084v-.844c.422 0 .846-.169 1.184-.591.253-.337.422-.929.422-1.688 0-.844-.086-1.434-.422-1.772-.338-.421-.678-.59-1.184-.59v-.844h-.001zm-1.602 6.245h-1.015v-8.438h1.096v3.038c.423-.507.93-.844 1.521-.844v.844c-.422 0-.844.169-1.183.59-.253.422-.42.928-.42 1.688 0 .76.081 1.266.252 1.604.337.506.759.759 1.351.759v.844c-.676 0-1.269-.254-1.603-.844v.759zM260.829 57.626v-.76c-.339.507-.845.844-1.604.844v-.844c.506 0 .844-.169 1.182-.506.338-.422.507-.928.507-1.688 0-.844-.169-1.434-.507-1.856-.338-.337-.676-.59-1.182-.59v-.844c.338 0 .592.085.844.253.338.169.592.338.762.591v-3.038h1.011v8.438h-1.013zm-1.604.084h-.084c-.424 0-.93-.084-1.267-.337-.422-.338-.761-.676-1.013-1.181-.17-.423-.34-1.013-.34-1.604 0-.59.17-1.181.34-1.687.168-.506.507-.845.929-1.097.421-.254.845-.422 1.351-.422h.084v.844c-.42 0-.843.169-1.182.59-.253.338-.424.928-.424 1.772 0 .759.171 1.351.508 1.688.337.422.678.591 1.098.591v.843zM265.891 51.381c.846 0 1.519.253 2.025.844.591.506.846 1.266.846 2.278 0 .76-.088 1.351-.339 1.857a2.921 2.921 0 0 1-1.015 1.013c-.506.253-.928.337-1.52.337v-.844c.508 0 .93-.169 1.268-.591.338-.337.507-.929.507-1.772 0-.759-.169-1.265-.507-1.688-.338-.421-.76-.59-1.268-.59v-.844h.003zm-2.87 3.206c0-1.181.338-2.025 1.014-2.532a2.778 2.778 0 0 1 1.855-.675v.844c-.507 0-.929.169-1.267.59-.337.422-.506.928-.506 1.772 0 .759.169 1.351.506 1.688.338.422.761.591 1.267.591v.844c-.844 0-1.518-.254-2.024-.759-.507-.59-.845-1.349-.845-2.363zM269.941 50.368v-1.181h1.098v1.181h-1.098zm0 7.258v-6.077h1.098v6.077h-1.098zM276.523 57.626v-.76c-.424.507-.928.844-1.604.844v-.844c.422 0 .844-.169 1.1-.506.336-.422.504-.928.504-1.688 0-.844-.168-1.434-.504-1.856-.256-.337-.678-.59-1.1-.59v-.844c.254 0 .592.085.844.253.256.169.506.338.676.591v-3.038h1.013v8.438h-.929zm-1.603.084h-.086c-.504 0-.928-.084-1.35-.337-.422-.338-.758-.676-.928-1.181-.252-.423-.339-1.013-.339-1.604 0-.59.087-1.181.253-1.687.256-.506.508-.845.93-1.097.422-.254.845-.422 1.352-.422h.168v.844h-.086c-.422 0-.842.169-1.096.59-.338.338-.506.928-.506 1.772 0 .759.168 1.351.506 1.688.338.422.674.591 1.182.591v.843zM281.924 55.769l1.014-.168c.086.422.252.759.506.928.252.253.591.338 1.099.338.422 0 .843-.084 1.011-.253.256-.168.34-.421.34-.675a.759.759 0 0 0-.256-.591c-.166-.083-.504-.168-1.095-.337-.761-.169-1.269-.337-1.519-.506-.34-.083-.508-.336-.678-.59-.166-.169-.253-.506-.253-.759s.087-.506.169-.759c.17-.253.338-.422.506-.591.17-.085.422-.254.676-.337.252-.085.591-.085.93-.085.42 0 .844.085 1.18.168.422.169.676.338.846.591.168.253.252.591.338.928l-1.014.169c0-.337-.17-.591-.423-.759-.167-.169-.507-.253-.927-.253-.422 0-.762.084-1.014.253-.17.168-.254.337-.254.506 0 .169 0 .253.084.422.084.084.254.168.422.254.084 0 .423.083.931.252.675.168 1.181.337 1.517.507a1.3 1.3 0 0 1 .678.506c.168.253.252.506.252.928 0 .338-.084.591-.338.928-.17.337-.506.506-.842.675-.338.169-.845.254-1.267.254-.847 0-1.437-.169-1.856-.507-.341-.255-.679-.762-.763-1.437zM292.218 57.626v-.929c-.504.676-1.181 1.013-1.94 1.013a3.13 3.13 0 0 1-1.012-.169c-.336-.168-.591-.337-.675-.506-.169-.253-.252-.506-.338-.759-.084-.253-.084-.59-.084-1.012V51.55h1.015v3.376c0 .506.082.843.082 1.012.084.337.168.506.422.675.168.169.506.253.76.253.339 0 .591-.084.844-.253.339-.168.506-.337.592-.675.169-.253.169-.675.169-1.181v-3.208h1.011v6.077h-.846zM296.945 56.697l.17.929c-.256 0-.508.084-.76.084-.424 0-.676-.084-.93-.169-.169-.168-.338-.337-.423-.506-.082-.168-.082-.59-.082-1.181V52.31h-.761v-.76h.761v-1.519l1.011-.675v2.193h1.014v.76h-1.014v3.544c0 .338 0 .506.084.591 0 .084.086.168.172.168.082.084.168.084.336.084l.422.001zM301.925 57.626v-.929c-.422.676-1.099 1.013-1.856 1.013-.422 0-.76-.084-1.014-.169-.337-.168-.591-.337-.761-.506-.083-.253-.252-.506-.252-.759-.084-.253-.084-.59-.084-1.012V51.55h1.013v3.376c0 .506 0 .843.084 1.012.086.337.168.506.422.675.17.169.422.253.76.253s.591-.084.844-.253c.338-.168.507-.337.591-.675.086-.253.169-.675.169-1.181v-3.208h1.014v6.077h-.93zM304.455 57.626v-6.077h.93v.929c.254-.506.506-.76.676-.929.168-.083.422-.168.674-.168.338 0 .676.085 1.014.337l-.338.929c-.254-.084-.506-.168-.76-.168-.168 0-.422 0-.59.168-.17.168-.338.337-.338.591-.17.337-.17.76-.17 1.182v3.207l-1.098-.001zM312.557 55.601l1.096.168a2.849 2.849 0 0 1-.926 1.435c-.508.337-1.099.507-1.772.507h-.086v-.844h.086c.338 0 .675-.084.928-.253.336-.254.506-.507.674-1.013zm-1.689-4.22c.846 0 1.521.253 2.026.844.506.506.758 1.35.758 2.362v.253h-2.784v-.843h1.688c0-.507-.168-.929-.338-1.182-.338-.421-.76-.59-1.352-.59l.002-.844zm0 6.329c-.843 0-1.517-.254-2.024-.759-.505-.591-.758-1.351-.758-2.364s.253-1.772.758-2.362c.508-.591 1.184-.844 2.024-.844v.844c-.423 0-.843.169-1.181.506-.336.253-.508.675-.508 1.266h1.688v.843h-1.771c.082.676.254 1.182.59 1.52.338.337.676.506 1.181.506v.844zM230.956 110.283c.507 0 .927 0 1.181.084.422.086.76.17 1.098.338.254.254.507.506.676.846.168.336.253.758.253 1.18 0 .676-.253 1.268-.675 1.771-.506.508-1.266.761-2.448.761h-.083v-1.015h.083c.675 0 1.183-.082 1.519-.42.256-.252.424-.591.424-1.099 0-.336-.084-.675-.254-.929a1.323 1.323 0 0 0-.674-.506h-1.098l-.002-1.011zm-3.207 8.354v-8.354H230.956v1.014h-2.11v2.953h2.11v1.014h-2.11v3.375l-1.097-.002zM237.874 112.477c.844 0 1.521.253 2.026.761.591.592.844 1.35.844 2.277 0 .76-.169 1.436-.338 1.855-.254.422-.59.844-1.012 1.014-.508.253-1.014.423-1.521.423v-.845c.508 0 .93-.17 1.266-.592.34-.422.508-1.011.508-1.771 0-.761-.168-1.353-.508-1.688-.336-.424-.758-.591-1.266-.591l.001-.843zm-2.869 3.123c0-1.099.337-1.942 1.015-2.448.504-.505 1.097-.675 1.854-.675v.845c-.506 0-.928.168-1.264.592-.34.336-.508.928-.508 1.688 0 .761.168 1.35.508 1.771.336.422.758.59 1.264.59v.846c-.842 0-1.52-.253-2.023-.846-.509-.506-.846-1.352-.846-2.363zM241.502 116.865l1.014-.169c.086.423.254.675.508.929.252.252.588.338 1.097.338.507 0 .844-.086 1.097-.338.17-.168.338-.422.338-.676 0-.166-.168-.422-.338-.507-.169-.082-.506-.252-1.012-.337-.76-.253-1.352-.337-1.604-.506a1.54 1.54 0 0 1-.676-.592 1.42 1.42 0 0 1-.255-.844c0-.252.085-.508.255-.761.083-.167.254-.422.506-.506.084-.169.338-.252.592-.336.338-.086.588-.086.928-.086.505 0 .844 0 1.266.17.338.167.592.336.76.591.168.167.338.506.338.928l-1.015.084c0-.252-.167-.506-.336-.674-.253-.171-.591-.254-.928-.254-.509 0-.845.083-1.013.167-.254.169-.34.341-.34.591 0 .17.086.256.17.34.084.168.17.254.338.254.17.084.42.168.929.336.758.17 1.267.339 1.519.423.338.169.506.338.676.591.168.169.254.506.254.844s-.086.676-.254 1.012c-.254.256-.506.508-.928.678-.339.169-.76.253-1.267.253-.759 0-1.351-.17-1.772-.509-.423-.337-.678-.842-.847-1.434zM250.025 117.708l.17.929c-.254.086-.508.086-.76.086-.422 0-.674-.086-.845-.169a.884.884 0 0 1-.507-.422c-.083-.256-.083-.675-.083-1.267v-3.461h-.76v-.842h.76v-1.52l1.014-.592v2.11h1.012v.842h-1.012v3.546c0 .252 0 .508.084.59 0 .084.086.084.168.168.086.086.17.086.34.086.082 0 .251 0 .419-.084zM255.257 116.696l1.015.169c-.17.592-.506 1.098-.928 1.434-.423.338-1.015.509-1.771.509v-.845h.082c.34 0 .676-.086.931-.338.249-.168.504-.506.671-.929zm-1.685-4.219c.758 0 1.433.253 1.938.761.592.592.846 1.35.846 2.362 0 .084 0 .169-.084.253h-2.699v-.844h1.686c-.082-.508-.167-.844-.422-1.098-.337-.424-.759-.591-1.264-.591v-.843zm0 6.33c-.93 0-1.604-.339-2.112-.845-.505-.506-.758-1.267-.758-2.278 0-1.013.253-1.854.844-2.362.507-.592 1.181-.845 2.026-.845v.845c-.508 0-.846.168-1.184.422-.338.336-.507.758-.591 1.266h1.772v.845h-1.772c0 .675.169 1.181.507 1.604.338.336.76.504 1.268.504v.844zM257.537 118.637v-6.074h.928v.927c.253-.421.508-.676.676-.843.168-.17.422-.17.676-.17.338 0 .674.086 1.014.337l-.339.93c-.253-.168-.505-.254-.761-.254a.915.915 0 0 0-.59.254c-.168.086-.336.254-.336.506-.168.424-.168.76-.168 1.267v3.122l-1.1-.002zM261.503 111.464v-1.182h1.011v1.182h-1.011zm0 7.173v-6.074h1.011v6.074h-1.011zM266.566 112.477c.843 0 1.52.253 2.024.761.505.592.845 1.35.845 2.277 0 .76-.17 1.436-.422 1.855-.171.422-.507.844-1.013 1.014-.422.253-.931.423-1.435.423v-.845c.504 0 .928-.17 1.266-.592.336-.422.506-1.011.506-1.771 0-.761-.17-1.353-.506-1.688-.338-.424-.762-.591-1.266-.591v-.843h.001zm-2.869 3.123c0-1.099.338-1.942.928-2.448.507-.505 1.182-.675 1.941-.675v.845c-.508 0-.928.168-1.267.592-.338.336-.505.928-.505 1.688 0 .761.167 1.35.505 1.771.339.422.759.59 1.267.59v.846c-.844 0-1.52-.253-2.111-.846-.504-.506-.758-1.352-.758-2.363zM270.617 118.637v-6.074h.93v.927c.167-.421.422-.676.59-.843.252-.17.422-.17.674-.17.34 0 .762.086 1.098.337l-.336.93c-.254-.168-.508-.254-.762-.254-.252 0-.422.086-.674.254-.168.086-.255.254-.337.506-.086.424-.171.76-.171 1.267v3.122l-1.012-.002zM278.042 118.637v-5.231h-.929v-.843h.929v-.591c0-.422 0-.762.084-.928.086-.256.253-.508.506-.678.255-.168.591-.252 1.099-.252.254 0 .592.084.929.084l-.171.928c-.166 0-.422-.082-.59-.082-.336 0-.506.082-.676.25-.168.086-.168.338-.168.761v.508h1.184v.843h-1.184v5.231h-1.013zM283.443 112.477c.844 0 1.521.253 2.109.761.506.592.76 1.35.76 2.277 0 .76-.086 1.436-.338 1.855-.252.422-.592.844-1.012 1.014-.422.253-.93.423-1.521.423v-.845c.592 0 1.014-.17 1.351-.592.34-.422.507-1.011.507-1.771 0-.761-.167-1.353-.507-1.688-.337-.424-.842-.591-1.351-.591v-.844h.002zm-2.784 3.123c0-1.099.253-1.942.929-2.448.506-.505 1.182-.675 1.855-.675v.845c-.506 0-.928.168-1.264.592-.342.336-.509.928-.509 1.688 0 .761.167 1.35.509 1.771.336.422.758.59 1.264.59v.846c-.844 0-1.52-.253-2.024-.846-.507-.506-.76-1.352-.76-2.363zM287.577 118.637v-6.074h.846v.843c.509-.592 1.097-.929 1.94-.929.423 0 .761 0 1.014.17.338.083.592.336.76.505.082.254.252.506.252.762.086.166.086.506.086 1.012v3.713h-1.015v-3.713c0-.424-.083-.676-.169-.928-.083-.168-.167-.34-.422-.508a1.59 1.59 0 0 0-.676-.168c-.422 0-.844.168-1.182.422-.252.254-.421.844-.421 1.604v3.29l-1.013-.001zM296.27 117.708l.168.929c-.25.086-.506.086-.758.086-.336 0-.677-.086-.845-.169a.878.878 0 0 1-.506-.422c-.085-.256-.085-.676-.085-1.268v-3.461h-.762v-.842h.762v-1.52l1.013-.592v2.11h1.013v.842h-1.013v3.546c0 .252 0 .508.087.59 0 .084.082.084.166.168.086.086.17.086.338.086a.904.904 0 0 0 .422-.083zM301.249 117.876c-.337.338-.759.592-1.097.761-.17 0-.338.086-.506.086v-.761c.252 0 .506-.086.674-.254.338-.168.592-.422.676-.676.169-.25.169-.591.169-1.012v-.42c-.338.169-.845.253-1.519.422v-.929c.674-.084 1.181-.168 1.519-.254v-.338c0-.422-.085-.674-.253-.844-.254-.254-.676-.337-1.182-.337h-.084v-.845h.252c.508 0 .929 0 1.267.17.339.083.506.252.675.422.169.169.253.42.337.76 0 .168.085.42.085.928v3.207c.086.252.17.422.338.675h-1.096c-.087-.169-.17-.423-.255-.761zm-1.603.847c-.17.084-.424.084-.592.084-.675 0-1.183-.17-1.519-.509-.423-.336-.591-.758-.591-1.266 0-.25.082-.506.252-.759.084-.253.253-.506.508-.591.253-.169.422-.337.759-.337.169-.085.507-.169.929-.169l.254-.086v.93h-.17c-.422 0-.674.084-.844.169-.169.084-.339.17-.422.337-.084.169-.169.338-.169.506 0 .254.085.508.338.676.167.168.507.254.929.254h.338v.761zm0-5.402c-.424 0-.76.083-1.014.255-.169.168-.339.42-.506.842l-1.014-.084c.084-.422.254-.758.508-1.097.168-.255.506-.424.843-.591.338-.084.759-.17 1.183-.17v.845zM303.863 118.637v-6.074h.931v.843c.422-.592 1.013-.929 1.854-.929.424 0 .761 0 1.014.17.338.083.591.336.76.505.086.254.253.506.253.762.087.166.087.506.087 1.012v3.713h-1.015v-3.713c0-.424-.085-.676-.169-.928 0-.168-.169-.34-.422-.508a1.601 1.601 0 0 0-.676-.168c-.422 0-.844.168-1.181.422-.254.254-.423.844-.423 1.604v3.29l-1.013-.001zM314.499 116.696l1.097.169a2.82 2.82 0 0 1-.93 1.434c-.506.338-1.096.509-1.771.509h-.084v-.845h.084c.422 0 .678-.086 1.014-.338.251-.168.42-.506.59-.929zm-1.688-4.219c.842 0 1.519.253 2.023.761.506.592.762 1.35.762 2.362v.253h-2.785v-.844h1.688c0-.508-.17-.844-.339-1.098-.339-.424-.761-.591-1.267-.591h-.084v-.844h.002zm0 6.33c-.845 0-1.52-.339-2.024-.845-.507-.506-.761-1.267-.761-2.278 0-1.013.254-1.854.761-2.362.506-.592 1.181-.845 2.024-.845v.845c-.422 0-.845.168-1.183.422-.253.336-.506.758-.506 1.266h1.688v.845h-1.772c.085.675.254 1.181.591 1.604.338.336.76.504 1.182.504v.844zM316.861 110.283h1.013v8.354h-1.013zM319.477 110.283h1.012v8.354h-1.012zM326.227 116.696l1.098.169a2.849 2.849 0 0 1-.928 1.434c-.506.338-1.098.509-1.772.509h-.084v-.845h.084c.422 0 .676-.086 1.013-.338.253-.168.421-.506.589-.929zm-1.687-4.219c.844 0 1.519.253 2.024.761.508.592.76 1.35.76 2.362v.253h-2.784v-.844h1.688a1.9 1.9 0 0 0-.336-1.098c-.34-.424-.762-.591-1.353-.591v-.843zm0 6.33c-.845 0-1.519-.339-2.024-.845s-.76-1.267-.76-2.278c0-1.013.253-1.854.76-2.362.506-.592 1.182-.845 2.024-.845v.845c-.422 0-.845.168-1.181.422-.254.336-.508.758-.508 1.266h1.688v.845h-1.771c.084.675.252 1.181.59 1.604.338.336.76.504 1.182.504v.844zM227.327 162.433l1.097-.083c0 .422.169.76.338 1.013.17.338.424.506.846.676.336.168.842.254 1.266.254.42 0 .842-.086 1.098-.17.336-.168.588-.338.758-.506.17-.254.254-.507.254-.762 0-.252-.084-.505-.254-.675-.17-.167-.422-.339-.758-.505-.17-.086-.678-.256-1.521-.422-.76-.17-1.264-.34-1.604-.506-.338-.17-.675-.508-.844-.762-.253-.338-.338-.675-.338-1.097 0-.423.169-.761.338-1.183.253-.338.592-.59 1.098-.844.422-.168.93-.253 1.519-.253.675 0 1.183.085 1.688.339.422.168.844.42 1.098.842.253.422.337.844.421 1.352l-1.097.086c-.086-.594-.254-.93-.592-1.268-.337-.254-.845-.338-1.434-.338-.676 0-1.184.084-1.52.338-.252.252-.424.506-.424.929 0 .253.086.506.338.675.17.255.76.422 1.688.59.845.254 1.521.424 1.854.594.424.166.846.506 1.016.842.253.338.421.761.421 1.183s-.168.845-.421 1.267c-.254.422-.592.674-1.1.928-.504.252-1.013.338-1.602.338-.76 0-1.436-.086-1.941-.338-.507-.254-.928-.592-1.182-1.012-.335-.424-.42-.931-.504-1.522zM239.395 164.375c-.422.338-.761.59-1.1.676-.169.084-.336.168-.589.168v-.76c.253 0 .507-.084.76-.252.337-.17.507-.422.673-.676.086-.253.17-.593.17-1.099v-.336c-.336.169-.843.253-1.603.336v-.845c.76-.084 1.267-.168 1.603-.336v-.254c0-.42-.084-.674-.252-.845-.34-.251-.676-.335-1.184-.335h-.167v-.846c.084 0 .167-.084.253-.084.591 0 1.014.084 1.266.253.338.086.592.253.76.422s.252.422.338.675v2.365c0 .929.085 1.604.085 1.771.084.338.168.508.253.76h-1.098a1.687 1.687 0 0 1-.168-.758zm-1.688.843c-.169.085-.339.085-.591.085-.593 0-1.183-.169-1.521-.507s-.507-.76-.507-1.266c0-.253.085-.593.169-.844.17-.169.338-.422.592-.591.17-.084.422-.255.674-.337.256 0 .509-.086.929-.086l.255-.086v.845l-.086.086c-.42 0-.76.084-.928.169a.654.654 0 0 0-.338.337c-.168.169-.168.338-.168.507 0 .254.084.506.336.676.17.168.508.252.845.252h.339v.76zm0-5.399c-.422 0-.762.084-.928.251-.256.17-.424.424-.508.844l-1.014-.082c.084-.424.254-.846.424-1.099.252-.252.506-.422.928-.591.336-.085.676-.169 1.098-.169v.846zM244.287 166.738c.424 0 .761-.086.93-.253.338-.169.506-.508.592-.846 0-.168.084-.591.084-1.267a2.077 2.077 0 0 1-1.604.76v-.842c.424 0 .846-.17 1.185-.508.336-.422.506-1.013.506-1.771 0-.761-.17-1.267-.506-1.688a1.667 1.667 0 0 0-1.185-.506v-.846c.677 0 1.185.255 1.688.846v-.762h.928v5.234c0 1.01-.084 1.686-.252 2.023-.254.422-.508.76-.93.928-.423.254-.928.338-1.436.338v-.84zm-2.531-1.098l1.014.169c0 .338.168.508.336.677.256.167.592.254 1.015.254h.167v.844h-.167c-.675 0-1.267-.17-1.688-.424-.507-.339-.677-.844-.677-1.52zm2.531-.506h-.082c-.844 0-1.521-.254-1.941-.928-.507-.592-.676-1.269-.676-2.109 0-.592.084-1.1.253-1.604.253-.508.507-.93.931-1.183.422-.254.842-.422 1.435-.422l.082.084v.846c-.504 0-.843.167-1.181.507-.336.422-.506.928-.506 1.688 0 .759.17 1.35.506 1.771.254.338.677.508 1.181.508l-.002.842zM248.506 157.962v-1.183h1.014v1.183h-1.014zm0 7.172v-6.076h1.014v6.076h-1.014zM253.316 164.207l.17.928c-.336.084-.592.084-.76.084-.422 0-.676-.084-.929-.168a.86.86 0 0 1-.42-.506c-.088-.17-.088-.592-.088-1.183v-3.459h-.758v-.846h.758v-1.519l1.015-.59v2.107h1.012v.846h-1.012v4.051c.084.084.084.168.17.252.084 0 .252.086.42.086a.871.871 0 0 0 .422-.083zM256.609 164.207l.084.928c-.254.084-.506.084-.76.084-.336 0-.677-.084-.844-.168-.255-.086-.339-.254-.424-.506-.082-.17-.168-.592-.168-1.183v-3.459h-.76v-.846h.76v-1.519l1.012-.59v2.107h1.1v.846h-1.1v3.543c0 .254 0 .422.088.508 0 .084.082.168.168.252.084 0 .168.086.336.086.17.002.254.002.508-.083zM261.503 164.375c-.337.338-.675.59-1.099.676-.168.084-.338.168-.506.168v-.76a.968.968 0 0 0 .677-.252c.336-.17.591-.422.673-.676.171-.253.171-.593.171-1.099v-.336c-.338.169-.844.253-1.521.336v-.845c.677-.084 1.183-.168 1.521-.336.084-.084.084-.17.084-.254 0-.42-.169-.674-.337-.845-.255-.251-.678-.335-1.182-.335h-.086v-.846c.086 0 .168-.084.254-.084.506 0 .929.084 1.267.253.337.086.591.253.675.422.167.169.254.422.338.675.082.256.082.508.082 1.014v1.351c0 .929 0 1.604.086 1.771 0 .338.084.508.254.76h-1.098c-.086-.169-.168-.421-.253-.758zm-1.605.843c-.168.085-.422.085-.59.085-.674 0-1.182-.169-1.519-.507-.422-.338-.591-.76-.591-1.266 0-.253.084-.593.253-.844.084-.169.253-.422.506-.591.253-.084.506-.255.759-.337.17 0 .508-.086.93-.086l.252-.086v.845l-.084.086c-.422 0-.76.084-.928.169-.17.084-.338.167-.423.337-.082.169-.168.338-.168.507 0 .254.168.506.339.676.252.168.506.252.928.252h.336v.76zm0-5.399c-.422 0-.758.084-1.012.251-.17.17-.338.424-.505.844l-1.014-.082c.168-.424.251-.846.506-1.099.169-.252.508-.422.931-.591.336-.085.672-.169 1.094-.169v.846zM264.035 156.78h1.097v8.354h-1.097zM269.52 163.362l1.015-.169c.083.422.252.676.505.93.253.17.59.336 1.098.336.506 0 .844-.084 1.014-.336.252-.17.422-.422.422-.677 0-.168-.17-.422-.338-.508-.17-.084-.506-.251-1.098-.336-.676-.253-1.267-.423-1.52-.506a1.547 1.547 0 0 1-.676-.593 1.428 1.428 0 0 1-.254-.844c0-.252.086-.507.254-.758.084-.17.254-.422.506-.508.087-.167.339-.253.592-.338.339-.084.59-.168.93-.168.42 0 .842.084 1.266.253.338.169.591.339.76.591.169.17.338.506.338.928l-1.014.086c0-.252-.168-.508-.338-.677-.252-.167-.592-.251-.93-.251-.504 0-.843 0-1.012.167-.253.168-.338.339-.338.593 0 .082.085.252.169.336.086.084.169.168.338.254.17.084.421.17.929.252.758.254 1.266.422 1.52.508.338.169.507.338.676.591.168.169.253.506.253.844 0 .339-.085.675-.253 1.013-.254.252-.507.506-.93.676-.338.168-.76.253-1.266.253-.759 0-1.351-.169-1.771-.507-.426-.339-.679-.844-.847-1.435zM279.814 165.134v-.842c-.506.672-1.098 1.011-1.94 1.011-.336 0-.675-.085-1.013-.253-.338-.086-.506-.254-.676-.506-.166-.17-.252-.422-.338-.76 0-.17-.084-.507-.084-.931v-3.797h1.098v4.474c.084.254.252.506.422.676.255.086.506.168.76.168.337 0 .59-.082.93-.252.252-.086.42-.338.59-.592.084-.253.17-.677.17-1.182v-3.292h1.013v6.075h-.931v.003zM284.625 164.207l.083.928c-.253.084-.506.084-.758.084-.339 0-.677-.084-.845-.168-.254-.086-.338-.254-.422-.506-.086-.17-.17-.592-.17-1.183v-3.459h-.759v-.846h.759v-1.519l1.014-.59v2.107h1.098v.846h-1.098v3.543c0 .254 0 .422.084.508 0 .084.084.168.168.252.085 0 .171.086.34.086.168.002.254.002.506-.083zM289.604 165.134v-.842c-.506.672-1.182 1.011-1.94 1.011-.337 0-.675-.085-1.015-.253-.336-.086-.59-.254-.674-.506-.168-.17-.252-.422-.338-.76-.085-.17-.085-.507-.085-.931v-3.797h1.015v3.375c0 .506.082.93.082 1.099.086.254.256.506.424.676.17.086.505.168.76.168.338 0 .591-.082.928-.252.254-.086.424-.338.506-.592.17-.253.17-.677.17-1.182v-3.292h1.099v6.075h-.931v.003zM292.137 165.134v-6.076h.926v.929c.17-.422.422-.675.592-.844.254-.169.422-.253.676-.253.337 0 .674.168 1.097.339l-.423 1.011c-.168-.169-.421-.253-.674-.253-.254 0-.508.084-.676.253-.17.086-.252.256-.338.508-.168.422-.168.758-.168 1.182v3.205h-1.012v-.001zM300.152 163.193l1.097.169a2.853 2.853 0 0 1-.929 1.435c-.506.338-1.012.506-1.772.506h-.083v-.844h.083c.425 0 .761-.084 1.015-.336.251-.17.419-.508.589-.93zm-1.688-4.303h.083c.762 0 1.436.339 1.941.844.507.592.76 1.35.76 2.363v.253h-2.784v-.845h1.688c0-.508-.17-.844-.338-1.098-.338-.422-.76-.589-1.268-.589h-.083v-.928h.001zm0 6.412a2.8 2.8 0 0 1-2.026-.844c-.506-.506-.758-1.35-.758-2.278 0-1.011.252-1.854.758-2.36.508-.591 1.185-.846 2.026-.93v.93c-.422 0-.843.167-1.097.42-.34.34-.508.76-.592 1.266h1.688v.846h-1.771c.084.675.254 1.182.59 1.52.34.338.761.59 1.183.59v.84z"/><path stroke="#000" stroke-width=".03" stroke-linecap="round" stroke-linejoin="round" d="M137.792 82.773l9.874-2.532c-2.532-1.097-3.967-2.785-4.051-5.738l-5.823 8.27zM104.713 87.076l2.447 9.958c1.097-2.617 2.869-3.967 5.738-3.967l-8.185-5.991zM59.735 113.404l7.088 7.344c-.336-2.785.506-4.896 2.954-6.414l-10.042-.93z"/><path fill="none" stroke="#000" stroke-width=".335" d="M221.588 53.575h-42.951L138.72 82.351M224.288 114.587h-99.913l-19.241-26.666M224.288 161.589h-72.741l-90.884-48.013"/></svg>