<svg version="1.1" xmlns="http://www.w3.org/2000/svg" xmlns:xlink="http://www.w3.org/1999/xlink" x="0" y="0" width="326.484" height="316.605" viewBox="0 0 326.484 316.605" xml:space="preserve"><path fill="none" stroke="#231F20" stroke-width="1" stroke-miterlimit="10" d="M61.523 216.767C24.762 197.382 3.971 163.734.857 119.842-2.959 65.304 24.26 28.744 60.62.62c33.848 23.604 57.854 56.648 60.666 110.786-3.717 50.019-27.321 81.758-59.763 105.361z"/><g stroke="#231F20" stroke-miterlimit="10"><path fill="none" stroke-width=".5" d="M51.178 278.437v38.168M44.649 279.542L57.707 315.4M38.924 282.856l24.508 29.229M34.706 287.979l33.044 19.083M32.396 294.207l37.564 6.628M32.396 300.835l37.564-6.628M34.706 307.062l33.044-19.083M38.924 312.085l24.508-29.229M44.649 315.4l13.058-35.858"/><path fill="#FFF" stroke-width="1" d="M51.178 302.041c2.611 0 4.619-2.008 4.619-4.52 0-2.611-2.008-4.62-4.619-4.62-2.512 0-4.521 2.009-4.521 4.62a4.502 4.502 0 0 0 4.521 4.52z"/></g><path fill="#231F20" stroke="#231F20" stroke-width=".045" stroke-linecap="round" stroke-linejoin="round" stroke-miterlimit="10" d="M70.663 297.32l11.351 4.319c-1.708-2.812-1.908-5.425 0-8.336l-11.351 4.017zM124.198 230.427l11.35 4.318c-1.809-2.912-1.908-5.523 0-8.437l-11.35 4.119zM92.359 138.524l11.349 4.319c-1.708-2.812-1.908-5.424 0-8.337l-11.349 4.018zM114.154 73.841l11.45 4.319c-1.81-2.913-1.909-5.524-.102-8.437l-11.348 4.118z"/><path fill="none" stroke="#231F20" stroke-width="2" stroke-miterlimit="10" d="M55.396 124.664l-4.418 84.47 53.835 76.836-8.839-102.146z"/><path fill="#231F20" d="M218.411 77.457l-3.917-9.943H216l2.512 7.231c.2.603.401 1.105.603 1.607a9.945 9.945 0 0 1 .502-1.607l2.712-7.231h1.306l-3.917 9.943h-1.307zM228.354 76.553c-.402.401-.904.703-1.307.803-.2.101-.401.201-.603.201v-.904c.302-.1.603-.201.804-.301.402-.201.604-.502.805-.804.1-.301.2-.703.2-1.306v-.402c-.401.201-1.004.302-1.808.402v-1.004c.804-.101 1.406-.201 1.808-.402v-.302c0-.502-.101-.803-.302-1.004-.301-.302-.803-.502-1.406-.502l-.101.1v-1.104h.302c.604 0 1.104.1 1.506.301.302.101.604.302.804.503.2.201.302.502.401.803V74.444c0 1.104.102 1.808.102 2.109.1.301.199.603.301.904h-1.206c-.199-.201-.199-.503-.3-.904zm-1.908 1.004c-.301 0-.502.101-.703.101-.803 0-1.406-.201-1.908-.603-.401-.402-.603-.904-.603-1.507 0-.301.1-.703.201-1.004.2-.302.401-.502.703-.704.2-.1.502-.301.903-.401.201 0 .604-.101 1.005-.101l.401-.1v1.004h-.201c-.502.101-.804.201-1.004.302-.301.1-.402.2-.502.401-.101.201-.201.402-.201.603 0 .301.101.603.402.804.201.201.602.301 1.104.301h.401v.904h.002zm0-6.428c-.604 0-.904.101-1.205.201-.301.301-.502.603-.603 1.105l-1.205-.1c.1-.603.301-1.005.502-1.306.301-.302.703-.502 1.104-.704.402-.1.904-.201 1.406-.301l.001 1.105zM234.179 79.365c.503 0 .904-.1 1.205-.301.302-.301.503-.603.604-1.005.1-.2.1-.703.1-1.506a2.472 2.472 0 0 1-1.908.904v-1.005c.603 0 1.005-.201 1.406-.703.402-.402.604-1.105.604-2.009 0-.904-.201-1.507-.604-2.009-.401-.402-.903-.603-1.406-.703v-1.004c.804.1 1.507.402 2.01 1.104v-.904h1.104v6.227c0 1.105-.101 1.909-.302 2.411a2.914 2.914 0 0 1-1.104 1.105c-.503.301-1.005.402-1.708.402v-1.004zm-3.012-1.306l1.205.201c.102.302.201.603.402.804.301.201.703.301 1.306.301h.101v1.005h-.101c-.904 0-1.605-.201-2.108-.603-.504-.301-.805-.904-.805-1.708zm3.012-.602h-.101c-1.004 0-1.808-.402-2.31-1.105-.604-.703-.805-1.506-.805-2.511 0-.703.101-1.406.302-1.908.302-.603.703-1.105 1.104-1.407.503-.301 1.105-.502 1.708-.502h.101v1.004c-.603 0-1.005.301-1.406.703-.402.502-.604 1.105-.604 2.009 0 .904.201 1.607.604 2.009.401.502.804.703 1.406.703v1.005h.001zM239.202 68.919v-1.406h1.206v1.406h-1.206zm0 8.538v-7.232h1.206v7.232h-1.206zM242.315 77.457v-7.232h1.005v1.004c.603-.803 1.306-1.205 2.31-1.205.503 0 .905.1 1.206.301.402.101.703.302.904.603.1.201.301.502.301.904.102.201.102.603.102 1.206v4.419h-1.206v-4.419c0-.502-.101-.804-.201-1.104-.101-.201-.2-.402-.502-.603a1.883 1.883 0 0 0-.803-.201c-.502 0-1.005.201-1.406.502-.301.302-.502.904-.502 1.908v3.917h-1.208zM254.77 76.553c-.502.401-.904.703-1.307.803-.2.101-.502.201-.702.201v-.904l.903-.301c.301-.201.604-.502.805-.804.1-.301.2-.703.2-1.306v-.402c-.401.201-1.104.302-1.908.402v-1.004c.804-.101 1.507-.201 1.908-.402v-.302c0-.502-.101-.803-.401-1.004-.303-.302-.703-.502-1.407-.502l-.1.1v-1.104h.301c.603 0 1.104.1 1.506.301.402.101.703.302.904.503.101.201.302.502.302.803.1.201.1.603.1 1.206v1.607c0 1.104 0 1.808.101 2.109 0 .301.101.603.302.904h-1.306a2.001 2.001 0 0 1-.201-.904zm-2.009 1.004c-.201 0-.402.101-.703.101-.805 0-1.406-.201-1.809-.603-.401-.402-.603-.904-.603-1.507 0-.301 0-.703.201-1.004.2-.302.401-.502.602-.704.302-.1.604-.301.905-.401.2 0 .602-.101 1.104-.101l.302-.1v1.004h-.102c-.502.101-.904.201-1.104.302-.2.1-.401.2-.502.401-.101.201-.101.402-.101.603 0 .301.101.603.301.804.302.201.604.301 1.105.301h.402l.002.904zm0-6.428c-.503 0-.904.101-1.105.201-.301.301-.502.603-.603 1.105l-1.205-.1c.1-.603.301-1.005.502-1.306.301-.302.603-.502 1.104-.704.402-.1.804-.201 1.307-.301v1.105zM218.411 142.241l-3.917-10.044H216l2.512 7.333c.2.502.401 1.104.603 1.605a9.863 9.863 0 0 1 .502-1.605l2.712-7.333h1.306l-3.917 10.044h-1.307zM228.354 141.337c-.402.402-.904.703-1.307.803-.2.101-.401.101-.603.201v-.904c.302-.1.603-.201.804-.301.402-.201.604-.502.805-.904.1-.201.2-.603.2-1.206v-.402c-.401.101-1.004.302-1.808.402v-1.004c.804-.101 1.406-.201 1.808-.402v-.301c0-.502-.101-.904-.302-1.104a2.596 2.596 0 0 0-1.406-.402h-.101v-1.004h.302c.604 0 1.104.101 1.506.201.302.201.604.402.804.604.2.201.302.502.401.803V139.229c0 1.104.102 1.808.102 2.109.1.301.199.602.301.904h-1.206c-.199-.303-.199-.604-.3-.905zm-1.908 1.004h-.703c-.803 0-1.406-.1-1.908-.502-.401-.402-.603-.904-.603-1.507 0-.402.1-.703.201-1.004.2-.302.401-.502.703-.704.2-.2.502-.301.903-.401.201 0 .604-.101 1.005-.201h.401v1.004h-.201c-.502.101-.804.201-1.004.302-.301.1-.402.201-.502.401-.101.101-.201.302-.201.603 0 .302.101.502.402.804.201.201.602.301 1.104.301h.401v.904h.002zm0-6.529c-.604 0-.904.101-1.205.301-.301.201-.502.603-.603 1.105l-1.205-.201c.1-.502.301-.904.502-1.205.301-.302.703-.603 1.104-.703.402-.201.904-.201 1.406-.302l.001 1.005zM234.179 144.148c.503 0 .904-.1 1.205-.301.302-.301.503-.603.604-1.004.1-.201.1-.804.1-1.607-.502.603-1.205 1.004-1.908 1.004v-1.004c.603 0 1.005-.201 1.406-.703.402-.402.604-1.105.604-2.009s-.201-1.607-.604-2.009c-.401-.402-.903-.703-1.406-.703v-1.004c.804.101 1.507.402 2.01 1.105v-.904h1.104v6.228c0 1.104-.101 1.908-.302 2.41a2.914 2.914 0 0 1-1.104 1.105c-.503.302-1.005.402-1.708.402v-1.006zm-3.012-1.304l1.205.2c.102.302.201.603.402.804.301.201.703.301 1.306.301h.101v1.005h-.101c-.904 0-1.605-.201-2.108-.603-.504-.403-.805-.905-.805-1.707zm3.012-.603h-.101c-1.004 0-1.808-.402-2.31-1.105-.604-.703-.805-1.605-.805-2.611 0-.603.101-1.306.302-1.909.302-.502.703-1.004 1.104-1.306.503-.301 1.105-.502 1.708-.502h.101v1.004c-.603 0-1.005.301-1.406.703-.402.402-.604 1.105-.604 2.009s.201 1.607.604 2.009c.401.502.804.703 1.406.703v1.005h.001zM239.202 133.603v-1.407h1.206v1.407h-1.206zm0 8.638v-7.232h1.206v7.232h-1.206zM242.315 142.241v-7.232h1.005v1.005c.603-.804 1.306-1.206 2.31-1.206.503 0 .905.101 1.206.302.402.1.703.301.904.602.1.201.301.503.301.904.102.201.102.603.102 1.206v4.419h-1.206v-4.419c0-.502-.101-.904-.201-1.104-.101-.302-.2-.502-.502-.603a1.898 1.898 0 0 0-.803-.201c-.502 0-1.005.101-1.406.502-.301.302-.502.904-.502 1.908v3.917h-1.208zM254.77 141.337c-.502.402-.904.703-1.307.803-.2.101-.502.101-.702.201v-.904l.903-.301c.301-.201.604-.502.805-.904.1-.201.2-.603.2-1.206v-.402c-.401.101-1.104.302-1.908.402v-1.004c.804-.101 1.507-.201 1.908-.402v-.301c0-.502-.101-.904-.401-1.104-.303-.201-.703-.402-1.407-.402h-.1v-1.004h.301c.603 0 1.104.101 1.506.201.402.201.703.402.904.604.101.201.302.502.302.803.1.201.1.603.1 1.104v1.708c0 1.104 0 1.808.101 2.109 0 .301.101.602.302.904h-1.306c-.101-.303-.201-.604-.201-.905zm-2.009 1.004h-.703c-.805 0-1.406-.1-1.809-.502-.401-.402-.603-.904-.603-1.507 0-.402 0-.703.201-1.004.2-.302.401-.502.602-.704.302-.2.604-.301.905-.401.2 0 .602-.101 1.104-.201h.302v1.004h-.102c-.502.101-.904.201-1.104.302-.2.1-.401.201-.502.401-.101.101-.101.302-.101.603 0 .302.101.502.301.804.302.201.604.301 1.105.301h.402l.002.904zm0-6.529c-.503 0-.904.101-1.105.301-.301.201-.502.603-.603 1.105l-1.205-.201c.1-.502.301-.904.502-1.205.301-.302.603-.603 1.104-.703.402-.201.804-.201 1.307-.302v1.005zM257.783 132.196h1.205v10.044h-1.205zM269.735 139.93l1.205.101c-.201.803-.502 1.306-1.104 1.708-.502.401-1.205.602-2.009.602h-.1v-1.004h.1c.402 0 .804-.101 1.104-.302.302-.201.604-.602.804-1.105zm-2.008-5.122c1.004 0 1.808.302 2.411 1.004.602.703.903 1.607.903 2.812v.302h-3.313v-1.005h2.008c-.102-.602-.201-1.104-.502-1.406-.402-.402-.904-.703-1.506-.703l-.001-1.004zm0 7.533c-1.005 0-1.809-.301-2.411-.904-.703-.703-1.005-1.607-1.005-2.812s.302-2.109 1.005-2.812a3.326 3.326 0 0 1 2.411-1.004v1.004c-.604 0-1.005.201-1.407.603-.401.402-.603.904-.603 1.506h2.01v1.005h-2.11c0 .803.302 1.406.703 1.808.402.402.804.603 1.407.603v1.003zM275.561 134.808h.201c.603 0 1.104.201 1.606.502.502.302.803.804 1.105 1.306.2.603.301 1.206.301 1.909 0 .804-.102 1.406-.402 2.009a2.603 2.603 0 0 1-1.104 1.406c-.502.302-1.105.402-1.607.402h-.101v-1.004c.603 0 1.005-.201 1.406-.603.402-.502.604-1.205.604-2.209 0-.904-.201-1.607-.604-2.009-.401-.502-.804-.703-1.306-.703h-.101v-1.006h.002zm-3.013 10.145v-9.944h1.105v.904c.201-.301.502-.603.904-.803a1.696 1.696 0 0 1 1.004-.302v1.004c-.502 0-.904.201-1.307.703-.4.502-.602 1.205-.602 2.109 0 1.005.201 1.607.502 2.109.402.402.904.603 1.406.603v1.004c-.401 0-.703 0-1.004-.201-.303-.201-.604-.401-.805-.703v3.516l-1.203.001zM280.282 133.603v-1.407h1.205v1.407h-1.205zm0 8.638v-7.232h1.205v7.232h-1.205zM286.007 141.136l.201 1.105c-.302 0-.603.1-.903.1-.402 0-.805-.1-1.006-.201-.301-.201-.401-.401-.502-.602s-.2-.704-.2-1.407v-4.218h-.904v-.904h.904v-1.808l1.204-.703v2.511h1.206v.904h-1.206v4.218c0 .402 0 .603.102.703 0 .101.1.201.201.302h.903zM287.212 142.241v-10.044h1.307v3.616c.503-.703 1.206-1.004 2.109-1.004.502 0 1.004.101 1.406.302.402.2.703.502.804.904.201.401.302.904.302 1.607v4.62h-1.205v-4.62c0-.603-.201-1.005-.402-1.306-.301-.301-.703-.402-1.105-.402-.401 0-.702.101-1.104.302-.301.1-.502.401-.604.703-.2.301-.2.803-.2 1.306v4.018h-1.307v-.002zM299.968 139.93l1.307.101c-.201.803-.604 1.306-1.205 1.708-.503.401-1.206.602-2.01.602h-.101v-1.004h.101c.401 0 .804-.101 1.104-.302.402-.201.603-.602.804-1.105zm-2.009-5.122c1.005 0 1.809.302 2.411 1.004.604.703.904 1.607.904 2.812v.302h-3.314v-1.005h2.01c0-.602-.201-1.104-.503-1.406-.301-.402-.804-.703-1.507-.703l-.001-1.004zm0 7.533c-1.004 0-1.808-.301-2.411-.904-.603-.703-.903-1.607-.903-2.812s.301-2.109.903-2.812a3.327 3.327 0 0 1 2.411-1.004v1.004c-.502 0-1.004.201-1.405.603-.402.402-.604.904-.604 1.506h2.009v1.005h-2.108c.101.803.302 1.406.704 1.808.4.402.803.603 1.405.603l-.001 1.003zM302.78 132.196h1.205v10.044h-1.205zM305.894 133.603v-1.407h1.206v1.407h-1.206zm0 8.638v-7.232h1.206v7.232h-1.206zM313.729 142.241v-1.105c-.604.803-1.307 1.205-2.312 1.205-.401 0-.804 0-1.205-.201a2.788 2.788 0 0 1-.804-.602c-.201-.302-.301-.603-.402-.904 0-.302-.1-.603-.1-1.206v-4.419h1.306v5.324c.101.302.302.502.502.703.302.201.604.302.904.302.402 0 .703-.101 1.104-.302.301-.201.502-.401.603-.803.201-.302.201-.703.201-1.406v-3.817h1.306v7.232l-1.103-.001zM316.741 142.241v-7.232h1.105v1.005c.2-.402.502-.603.903-.904a2.786 2.786 0 0 1 1.307-.302c.503 0 .903.101 1.306.402.302.201.603.502.703.904.603-.904 1.306-1.306 2.21-1.306.703 0 1.305.201 1.707.603.302.401.502 1.004.502 1.808v5.022h-1.206v-4.62c0-.402 0-.804-.1-1.005-.102-.201-.201-.401-.402-.502-.201-.201-.502-.201-.804-.201-.502 0-.904.101-1.205.502-.402.302-.503.904-.503 1.607v4.218h-1.205v-4.721c0-.502-.102-.904-.301-1.205-.201-.301-.604-.402-1.005-.402s-.702.101-1.005.201a1.559 1.559 0 0 0-.602.804 6.008 6.008 0 0 0-.201 1.507v3.816l-1.204.001zM215.498 190.453v-10.045h2.009l2.311 7.133c.201.602.402 1.104.503 1.405.1-.301.301-.903.502-1.606l2.411-6.932h1.808v10.045h-1.306v-8.338l-2.913 8.338h-1.206l-2.812-8.539v8.539h-1.307zM231.77 190.453v-1.105c-.604.803-1.407 1.205-2.312 1.205-.401 0-.804 0-1.205-.201s-.603-.402-.804-.602c-.201-.303-.301-.604-.402-.904-.1-.301-.1-.604-.1-1.205v-4.419h1.205v4.018c0 .603.101 1.005.101 1.306.101.302.302.502.502.703.302.201.604.303.904.303.402 0 .703-.102 1.104-.303.301-.201.502-.401.603-.803.201-.302.201-.804.201-1.406v-3.816h1.306v7.232h-1.104v-.003zM234.28 188.242l1.205-.201c.101.502.302.904.603 1.105.303.301.703.402 1.307.402.502 0 .903-.102 1.206-.303.301-.201.4-.502.4-.803 0-.302-.1-.503-.301-.703-.201-.101-.603-.201-1.306-.402-.904-.2-1.506-.401-1.908-.603a1.21 1.21 0 0 1-.703-.702c-.201-.201-.301-.604-.301-.904 0-.303.1-.604.201-.905.2-.302.401-.502.602-.703.201-.101.503-.201.804-.302.303-.1.703-.2 1.006-.2.603 0 1.104.101 1.507.301.502.101.803.302 1.004.603.201.302.302.703.401 1.105l-1.204.201c-.102-.402-.201-.703-.503-.904-.2-.201-.603-.301-1.104-.301s-.904.1-1.205.301c-.201.201-.302.402-.302.604s0 .301.101.502c.101.101.301.201.502.301.102 0 .502.102 1.104.303.804.2 1.407.401 1.808.602.302.101.604.302.804.603.201.302.302.603.302 1.104 0 .402-.201.703-.401 1.104-.201.402-.603.603-1.005.804a4.026 4.026 0 0 1-1.507.301c-1.004 0-1.708-.2-2.209-.502-.506-.402-.808-1.006-.908-1.808zM246.434 187.74l1.206.201c-.102.805-.402 1.508-1.006 1.909-.502.502-1.204.703-2.009.703-1.004 0-1.808-.302-2.411-.904-.603-.703-.903-1.606-.903-2.812a5.5 5.5 0 0 1 .401-2.01c.302-.603.703-1.104 1.205-1.406.502-.2 1.105-.401 1.708-.401.805 0 1.507.201 1.909.603.502.402.904 1.004 1.004 1.709l-1.205.201c-.101-.503-.302-.904-.603-1.105-.301-.301-.604-.401-1.005-.401-.603 0-1.104.2-1.506.703-.402.401-.604 1.104-.604 2.108 0 .904.201 1.607.604 2.109.301.402.803.604 1.405.604.502 0 .904-.102 1.205-.402.303-.304.504-.806.605-1.409zM248.643 180.408h1.306v10.045h-1.306zM256.779 188.142l1.206.102c-.201.702-.503 1.305-1.105 1.707-.502.401-1.206.602-2.009.602h-.1v-1.004h.1c.402 0 .804-.1 1.105-.301.301-.303.602-.603.803-1.106zm-2.009-5.122c1.005 0 1.808.301 2.411 1.004.603.603.903 1.606.903 2.812v.303h-3.313v-1.006h2.009c-.1-.603-.201-1.104-.502-1.405-.402-.503-.904-.703-1.507-.703l-.001-1.005zm0 7.532c-1.005 0-1.809-.301-2.411-.904-.604-.703-1.004-1.607-1.004-2.812s.4-2.108 1.004-2.812c.603-.704 1.406-1.004 2.411-1.004v1.004c-.604 0-1.005.2-1.406.603-.402.302-.603.904-.603 1.506h2.009v1.006h-2.109c0 .803.302 1.406.704 1.808.401.402.803.603 1.406.603l-.001 1.002zM219.314 225.405c.703 0 1.205.101 1.507.101.502.101.904.302 1.205.502.402.201.603.502.804 1.005.201.401.301.803.301 1.306 0 .904-.2 1.607-.803 2.21-.503.502-1.507.804-2.914.804h-.1v-1.104h.1c.905 0 1.507-.201 1.81-.502.4-.302.602-.804.602-1.306s-.1-.805-.301-1.104c-.301-.301-.502-.502-.904-.603-.201-.101-.603-.101-1.206-.101h-.1v-1.208h-.001zm-3.816 10.044v-10.044h3.816v1.206h-2.411v3.616h2.411v1.104h-2.411v4.119h-1.405v-.001zM229.66 233.139l1.205.101c-.2.805-.502 1.307-1.104 1.709-.503.401-1.205.602-2.01.602h-.1v-1.004h.1c.402 0 .805-.102 1.105-.301.302-.204.603-.605.804-1.107zm-2.009-5.123c1.004 0 1.808.302 2.411 1.005.603.703.903 1.607.903 2.812v.301h-3.313v-1.006h2.009c-.1-.602-.201-1.104-.502-1.405-.402-.402-.904-.703-1.507-.703l-.001-1.004zm0 7.534c-1.005 0-1.809-.303-2.411-.904-.703-.703-1.005-1.607-1.005-2.812s.402-2.108 1.005-2.812a3.326 3.326 0 0 1 2.411-1.005v1.005c-.604 0-1.005.201-1.406.603-.402.401-.603.904-.603 1.506h2.009v1.006h-2.11c0 .804.302 1.406.704 1.808.401.402.803.603 1.406.603v1.002zM232.473 235.449v-7.232h1.104v1.105c.201-.502.502-.904.703-1.004.301-.201.502-.302.804-.302.401 0 .804.101 1.307.401l-.502 1.105c-.201-.1-.502-.201-.804-.201s-.603.102-.804.201c-.201.201-.301.402-.402.703-.2.402-.2.904-.2 1.406v3.816h-1.206zM237.093 226.812v-1.407h1.205v1.407h-1.205zm0 8.637v-7.232h1.205v7.232h-1.205zM240.206 235.449v-7.232h1.105v1.005c.502-.804 1.306-1.206 2.31-1.206.402 0 .804.102 1.206.302.301.101.604.302.803.603.201.201.303.502.402.904v5.625h-1.205v-4.42c0-.502 0-.904-.101-1.105a1.032 1.032 0 0 0-.502-.602c-.302-.201-.604-.201-.904-.201-.502 0-1.005.101-1.306.502-.402.301-.604.904-.604 1.809v4.018h-1.204v-.002zM252.861 233.139l1.306.101c-.201.805-.602 1.307-1.104 1.709-.502.401-1.205.602-2.109.602h-.101v-1.004h.101c.502 0 .904-.102 1.205-.301.301-.204.502-.605.702-1.107zm-2.008-5.123h.101c.904 0 1.707.302 2.311 1.005.603.703.903 1.607.903 2.812v.301h-3.313v-1.006h2.009c0-.602-.201-1.104-.401-1.405-.401-.402-.903-.703-1.506-.703h-.101v-1.004h-.003zm0 7.534c-1.004 0-1.809-.303-2.411-.904-.604-.703-.904-1.607-.904-2.812s.301-2.108.904-2.812c.703-.603 1.507-1.005 2.411-1.005v1.005c-.502 0-1.004.201-1.307.603-.401.401-.602.904-.702 1.506h2.009v1.006h-2.009c0 .804.2 1.406.603 1.808.402.402.904.603 1.406.603v1.002zM260.394 234.544c-.401.402-.904.604-1.306.805-.2.102-.401.102-.603.201v-.904c.301-.102.603-.201.803-.301.402-.201.704-.502.805-.904.2-.201.2-.604.2-1.206v-.401c-.401.101-1.004.301-1.808.401v-1.004c.803-.101 1.406-.201 1.808-.401v-.302c0-.503-.1-.903-.301-1.104a2.602 2.602 0 0 0-1.407-.402h-.1v-1.005h.301a6.14 6.14 0 0 1 1.506.2c.402.201.604.402.805.604.2.201.301.502.401.805 0 .199.101.602.101 1.104v3.816l.301.904h-1.205c-.2-.302-.2-.604-.301-.906zm-1.908 1.006h-.703c-.804 0-1.406-.102-1.808-.504-.502-.4-.703-.903-.703-1.506 0-.401.101-.703.302-1.004.1-.302.301-.502.602-.703.201-.201.504-.301.904-.401.201 0 .604-.101 1.005-.201h.402v1.004h-.201c-.502.101-.804.201-1.004.302-.201.102-.401.201-.502.402-.1.1-.201.301-.201.502 0 .402.102.604.402.904.201.201.603.301 1.104.301h.402v.904h-.001zm0-6.529c-.502 0-.904.1-1.206.301-.201.201-.401.604-.602 1.104l-1.206-.2c.101-.502.302-.904.603-1.205a1.842 1.842 0 0 1 1.004-.703c.402-.2.905-.302 1.407-.302v1.005zM263.408 225.405h1.206v10.044h-1.206zM269.937 233.24l1.205-.201c.101.502.302.903.603 1.205.301.2.703.301 1.306.301.503 0 1.005-.101 1.205-.301.303-.201.402-.502.402-.804s-.1-.502-.301-.703c-.201-.101-.604-.2-1.307-.401-.903-.201-1.507-.402-1.808-.604-.402-.1-.603-.301-.804-.604-.201-.301-.301-.703-.301-1.004s.1-.603.2-.903c.201-.302.401-.503.603-.703.201-.101.503-.201.804-.302.301-.1.703-.201 1.105-.201a4.05 4.05 0 0 1 1.507.302c.401.101.703.302.903.603.201.302.302.703.402 1.104l-1.206.201c0-.401-.201-.703-.4-.904-.303-.2-.704-.301-1.105-.301-.602 0-1.004.101-1.205.301-.301.201-.402.402-.402.603 0 .201 0 .402.102.502.1.102.301.201.502.303.1 0 .502.199 1.105.301.903.201 1.506.402 1.808.604.302.1.603.301.804.602.201.303.301.704.301 1.105 0 .402-.101.804-.401 1.104-.2.401-.502.704-1.004.904-.402.101-.904.2-1.506.2-.904 0-1.708-.1-2.211-.502a3.076 3.076 0 0 1-.906-1.807zM277.369 235.449v-10.044h1.306v5.725l2.912-2.914h1.507l-2.712 2.713 3.014 4.52h-1.507l-2.411-3.717-.803.805v2.912zM284.399 226.812v-1.407h1.206v1.407h-1.206zm0 8.637v-7.232h1.206v7.232h-1.206zM287.514 235.449v-7.232h1.104v1.005c.502-.804 1.306-1.206 2.311-1.206.401 0 .804.102 1.206.302.301.101.602.302.803.603.201.201.302.502.401.904v5.625h-1.204v-4.42c0-.502 0-.904-.102-1.105a1.025 1.025 0 0 0-.502-.602c-.301-.201-.603-.201-.904-.201-.502 0-1.005.101-1.306.502-.402.301-.603.904-.603 1.809v4.018h-1.204v-.002zM219.014 292.399h.702l4.119 10.043h-1.507l-1.206-3.112h-2.108v-1.004h1.707l-1.005-2.812c-.302-.704-.502-1.307-.702-1.909v-1.206zm-4.52 10.043l3.816-10.043h.704v1.205-.101c-.201.604-.303 1.205-.604 1.908l-1.104 2.914h1.708v1.004h-2.01l-1.104 3.112h-1.406v.001zM224.739 302.442v-7.332h1.104v1.104c.503-.803 1.307-1.205 2.311-1.205.402 0 .804.101 1.206.201.301.201.602.401.803.603.201.301.302.603.402.903V302.443h-1.205v-4.419c0-.502 0-.903-.102-1.104a1.035 1.035 0 0 0-.502-.604c-.301-.201-.603-.301-.903-.301-.502 0-1.004.201-1.307.502-.401.4-.603 1.004-.603 1.908v4.018l-1.204-.001zM237.193 302.442v-1.104c-.604.804-1.306 1.205-2.311 1.205-.401 0-.804-.101-1.205-.201-.302-.2-.604-.401-.804-.603-.201-.301-.302-.603-.401-.903V295.109h1.205v4.018c0 .703 0 1.105.101 1.307 0 .402.201.604.401.804a1.7 1.7 0 0 0 1.005.302c.301 0 .703-.101 1.005-.302.301-.2.502-.502.703-.804.1-.301.201-.805.201-1.406v-3.917h1.204v7.332h-1.104v-.001zM239.704 300.233l1.205-.2c.101.502.301.903.604 1.104.301.302.702.401 1.306.401.602 0 1.004-.1 1.205-.301.302-.302.502-.502.502-.804s-.2-.502-.401-.703c-.201-.101-.603-.2-1.306-.401-.804-.201-1.507-.401-1.809-.603-.401-.201-.603-.401-.804-.703-.201-.301-.301-.603-.301-.903 0-.402.1-.703.301-.904.102-.303.301-.502.604-.703.1-.201.4-.303.703-.402.401-.101.702-.101 1.104-.101.502 0 1.004.101 1.507.2.401.201.703.402.904.703.201.303.402.604.402 1.105l-1.206.2c0-.401-.201-.703-.402-.904-.301-.2-.703-.301-1.105-.301-.602 0-1.004.101-1.204.301-.303.201-.402.402-.402.603 0 .201.1.302.201.402.1.201.201.301.401.402.201 0 .502.1 1.105.301.904.201 1.507.402 1.808.502.402.201.604.402.805.704.199.302.301.603.301 1.004s-.102.804-.301 1.206c-.303.301-.604.602-1.104.803-.402.201-.905.303-1.507.303-.904 0-1.607-.201-2.11-.604-.504-.401-.805-.903-1.006-1.707z"/><path fill="#231F20" stroke="#231F20" stroke-width=".045" stroke-linecap="round" stroke-linejoin="round" stroke-miterlimit="10" d="M79.201 185.43l11.35 4.319c-1.706-2.914-1.907-5.525 0-8.438l-11.35 4.119z"/><path fill="none" stroke="#231F20" stroke-width=".5" stroke-miterlimit="10" d="M120.683 74.243h88.788M100.595 139.127h109.78M87.638 185.53h120.829M130.827 231.13h78.142M80.909 297.419h129.969"/><defs><path id="a" d="M54.689 122.062l-3.711 86.452 54.848 71.239-9.852-95.929z"/></defs><clipPath id="b"><use xlink:href="#a" overflow="visible"/></clipPath><g clip-path="url(#b)"><path fill="#FFF" d="M53.444 122.47c17.519 25.986 34.795 52.329 52.61 77.878v3.86c-18.6-26.586-36.478-54.229-54.911-81.06v-.68c.768.002 1.535.002 2.301.002z"/><path fill="#4D4D4D" d="M53.444 122.47h.92c17.213 25.53 34.18 51.426 51.69 76.516v1.362c-17.814-25.55-35.091-51.892-52.61-77.878z"/><path fill="#FFF" d="M54.365 122.47h2.455a12123.959 12123.959 0 0 0 49.235 72.883v3.632C88.544 173.896 71.578 148 54.365 122.47z"/><path fill="#4D4D4D" d="M56.819 122.47h.92a11829.768 11829.768 0 0 0 48.315 71.522v1.361a12171.377 12171.377 0 0 1-49.235-72.883z"/><path fill="#FFF" d="M57.739 122.47h2.608a10463.719 10463.719 0 0 0 45.708 67.663v3.859a11783.362 11783.362 0 0 1-48.316-71.522z"/><path fill="#4D4D4D" d="M60.347 122.47h.919a10005.932 10005.932 0 0 0 44.788 66.298v1.362a10489.45 10489.45 0 0 1-45.707-67.66z"/><path fill="#FFF" d="M61.267 122.47h2.607a8887.351 8887.351 0 0 0 42.181 62.44v3.858a10005.932 10005.932 0 0 1-44.788-66.298z"/><path fill="#4D4D4D" d="M63.875 122.47h.919a8514.403 8514.403 0 0 0 41.261 61.077v1.363a8934.225 8934.225 0 0 1-42.18-62.44z"/><path fill="#FFF" d="M64.794 122.47h2.608a7461.687 7461.687 0 0 0 38.652 57.216v3.86a8524.87 8524.87 0 0 1-41.26-61.076z"/><path fill="#4D4D4D" d="M67.403 122.47h.92a7101.717 7101.717 0 0 0 37.732 55.854v1.361a7491.407 7491.407 0 0 1-38.652-57.215z"/><path fill="#FFF" d="M68.323 122.47h2.607a6170.487 6170.487 0 0 0 35.125 51.995v3.859a7092.775 7092.775 0 0 1-37.732-55.854z"/><path fill="#4D4D4D" d="M70.93 122.47h.767c11.388 17.046 22.841 34 34.357 50.86v1.135A6194.542 6194.542 0 0 1 70.93 122.47z"/><path fill="#FFF" d="M71.697 122.47h2.761a4928.83 4928.83 0 0 0 31.598 46.772v4.086a5919.311 5919.311 0 0 1-34.359-50.858z"/><path fill="#4D4D4D" d="M74.458 122.47h.768a4735.253 4735.253 0 0 0 30.83 45.637v1.137a4980.919 4980.919 0 0 1-31.598-46.774z"/><path fill="#FFF" d="M75.225 122.47h2.606a3957.691 3957.691 0 0 0 28.224 41.776v3.86a4772.13 4772.13 0 0 1-30.83-45.636z"/><path fill="#4D4D4D" d="M77.832 122.47h.921a3762.863 3762.863 0 0 0 27.303 40.417v1.361a3999.822 3999.822 0 0 1-28.224-41.778z"/><path fill="#FFF" d="M78.753 122.47h2.606a3049.97 3049.97 0 0 0 24.695 36.555v3.859a3757.12 3757.12 0 0 1-27.301-40.414z"/><path fill="#4D4D4D" d="M81.359 122.47h.921a2826.757 2826.757 0 0 0 23.774 35.192v1.363a3073.92 3073.92 0 0 1-24.695-36.555z"/><path fill="#FFF" d="M82.28 122.47h2.454c7.118 10.428 14.177 20.941 21.32 31.332v3.86A2837.813 2837.813 0 0 1 82.28 122.47z"/><path fill="#4D4D4D" d="M84.734 122.47h.92c6.82 9.961 13.558 20.042 20.4 29.97v1.362c-7.142-10.391-14.202-20.905-21.32-31.332z"/><path fill="#FFF" d="M85.655 122.47h2.607c5.976 8.637 11.804 17.493 17.793 26.11v3.859c-6.842-9.928-13.58-20.008-20.4-29.969z"/><path fill="#4D4D4D" d="M88.262 122.47h.921c5.679 8.167 11.183 16.595 16.872 24.748v1.362c-5.99-8.618-11.818-17.474-17.793-26.11z"/><path fill="#FFF" d="M89.183 122.47h2.605c4.84 6.837 9.425 14.052 14.267 20.888v3.86c-5.69-8.154-11.194-16.581-16.872-24.748z"/><path fill="#4D4D4D" d="M91.789 122.47h.921c4.538 6.375 8.809 13.149 13.346 19.525v1.363c-4.842-6.836-9.427-14.051-14.267-20.888z"/><path fill="#FFF" d="M92.71 122.47h2.761a565.447 565.447 0 0 0 10.584 15.667v3.859c-4.537-6.377-8.807-13.151-13.345-19.526z"/><path fill="#4D4D4D" d="M95.47 122.47h.921a468.279 468.279 0 0 0 9.664 14.304v1.363A565.47 565.47 0 0 1 95.47 122.47z"/><path fill="#FFF" d="M96.391 122.47h2.607a249.99 249.99 0 0 0 7.057 10.444v3.86a471.965 471.965 0 0 1-9.664-14.304z"/><path fill="#4D4D4D" d="M98.999 122.47h.768a197.06 197.06 0 0 0 6.289 9.309v1.135a249.017 249.017 0 0 1-7.057-10.444z"/><path fill="#FFF" d="M99.766 122.47h2.761a62.684 62.684 0 0 0 3.528 5.222v4.087a197.577 197.577 0 0 1-6.289-9.309z"/><path fill="#4D4D4D" d="M102.527 122.47h.767a37.757 37.757 0 0 0 2.762 4.086v1.136a62.448 62.448 0 0 1-3.529-5.222zM51.144 123.149c18.434 26.829 36.312 54.474 54.911 81.06v1.362c-18.594-26.592-36.484-54.219-54.911-81.059v-1.363z"/><path fill="#FFF" d="M51.144 124.512c18.427 26.84 36.317 54.466 54.911 81.059v3.859c-18.575-26.617-36.506-54.188-54.911-81.058v-3.86z"/><path fill="#4D4D4D" d="M51.144 128.373c18.405 26.87 36.336 54.44 54.911 81.058v1.135c-18.571-26.625-36.513-54.177-54.911-81.058v-1.135z"/><path fill="#FFF" d="M51.144 129.507c18.398 26.88 36.34 54.433 54.911 81.058v4.087c-18.551-26.654-36.537-54.141-54.911-81.057v-4.088z"/><path fill="#4D4D4D" d="M51.144 133.595c18.374 26.917 36.36 54.403 54.911 81.057v1.137c-18.543-26.666-36.543-54.131-54.911-81.058v-1.136z"/><path fill="#FFF" d="M51.144 134.73c18.368 26.926 36.368 54.393 54.911 81.057v3.86c-18.521-26.698-36.568-54.097-54.911-81.058v-3.859z"/><path fill="#4D4D4D" d="M51.144 138.59c18.343 26.962 36.39 54.359 54.911 81.058v1.361c-18.514-26.709-36.577-54.082-54.911-81.057v-1.362z"/><path fill="#FFF" d="M51.144 139.952c18.334 26.973 36.397 54.346 54.911 81.057v3.861c-18.489-26.746-36.601-54.047-54.911-81.059v-3.859z"/><path fill="#4D4D4D" d="M51.144 143.812c18.312 27.012 36.422 54.312 54.911 81.059v1.36c-18.481-26.757-36.608-54.035-54.911-81.058v-1.361z"/><path fill="#FFF" d="M51.144 145.174c18.303 27.022 36.43 54.3 54.911 81.058v3.859c-18.457-26.793-36.634-53.998-54.911-81.056v-3.861z"/><path fill="#4D4D4D" d="M51.144 149.035c18.277 27.058 36.455 54.263 54.911 81.056v1.363c-18.448-26.807-36.642-53.988-54.911-81.058v-1.361z"/><path fill="#FFF" d="M51.144 150.397c18.27 27.069 36.463 54.25 54.911 81.058v3.859c-18.424-26.843-36.663-53.955-54.911-81.058v-3.859z"/><path fill="#4D4D4D" d="M51.144 154.256c18.248 27.103 36.487 54.215 54.911 81.058v1.361c-18.416-26.854-36.671-53.943-54.911-81.057v-1.362z"/><path fill="#FFF" d="M51.144 155.619c18.24 27.114 36.496 54.205 54.911 81.058v3.633c-18.531-26.609-36.503-54.039-54.911-80.831v-3.86z"/><path fill="#4D4D4D" d="M51.144 159.479c18.408 26.792 36.38 54.222 54.911 80.831v1.361c-18.527-26.614-36.507-54.033-54.911-80.83v-1.362z"/><path fill="#FFF" d="M51.144 160.841c18.404 26.797 36.384 54.216 54.911 80.83v3.859c-18.518-26.629-36.514-54.023-54.911-80.83v-3.859z"/><path fill="#4D4D4D" d="M51.144 164.701c18.397 26.807 36.395 54.201 54.911 80.83v1.363c-18.513-26.637-36.518-54.021-54.911-80.832v-1.361z"/><path fill="#FFF" d="M51.144 166.062c18.395 26.812 36.398 54.195 54.911 80.832v3.857c-18.499-26.654-36.525-54.006-54.911-80.83v-3.859z"/><path fill="#4D4D4D" d="M51.144 169.923c18.386 26.824 36.412 54.174 54.911 80.83v1.136c-18.496-26.66-36.527-54.002-54.911-80.831v-1.135z"/><path fill="#FFF" d="M51.144 171.058c18.384 26.828 36.415 54.17 54.911 80.831v4.087c-18.481-26.684-36.537-53.989-54.911-80.831v-4.087z"/><path fill="#4D4D4D" d="M51.144 175.145c18.374 26.842 36.43 54.147 54.911 80.831v1.135c-18.477-26.689-36.541-53.982-54.911-80.83v-1.136z"/><path fill="#FFF" d="M51.144 176.281c18.371 26.846 36.436 54.141 54.911 80.83v3.859c-18.46-26.71-36.55-53.971-54.911-80.83v-3.859z"/><path fill="#4D4D4D" d="M51.144 180.141c18.361 26.86 36.451 54.118 54.911 80.83v1.364c-18.456-26.721-36.553-53.967-54.911-80.832v-1.362z"/><path fill="#FFF" d="M51.144 181.501c18.358 26.865 36.455 54.111 54.911 80.832v3.859c-18.439-26.744-36.562-53.951-54.911-80.831v-3.86z"/><path fill="#4D4D4D" d="M51.144 185.362c18.35 26.88 36.472 54.087 54.911 80.831v1.362c-18.435-26.751-36.565-53.947-54.911-80.831v-1.362z"/><path fill="#FFF" d="M51.144 186.725c18.346 26.884 36.477 54.079 54.911 80.831v4.087c-18.268-27.075-36.599-54.05-54.911-81.058v-3.86z"/><path fill="#4D4D4D" d="M51.144 190.583c18.312 27.008 36.645 53.983 54.911 81.059v1.363c-18.263-27.082-36.602-54.047-54.911-81.057v-1.365z"/><path fill="#FFF" d="M51.144 191.949c18.311 27.01 36.648 53.975 54.911 81.057v3.859c-18.251-27.099-36.605-54.041-54.911-81.057v-3.859z"/><path fill="#4D4D4D" d="M51.144 195.808c18.306 27.016 36.66 53.958 54.911 81.057v1.361c-18.395-26.889-36.518-54.17-54.911-81.059v-1.359z"/><path fill="#FFF" d="M51.144 197.169c18.394 26.887 36.517 54.17 54.911 81.058v3.633c-18.543-26.666-36.431-54.299-54.911-81.058v-3.633z"/><path fill="#4D4D4D" d="M51.144 200.802c18.48 26.758 36.368 54.391 54.911 81.057v1.362c-18.544-26.664-36.431-54.298-54.911-81.058v-1.361z"/><path fill="#FFF" d="M51.144 202.166c18.48 26.758 36.367 54.394 54.911 81.057-.101 1.215.2 3.023-.154 3.859-18.343-26.886-36.355-54.256-54.757-81.057v-3.859z"/><path fill="#4D4D4D" d="M51.144 206.024c18.401 26.802 36.415 54.171 54.757 81.058h-.92c-18.037-26.429-35.741-53.354-53.837-79.695v-1.363z"/><path fill="#FFF" d="M51.144 207.387c18.096 26.342 35.8 53.267 53.837 79.694h-2.607c-17.172-25.137-33.997-50.785-51.229-75.834l-.001-3.86z"/><path fill="#4D4D4D" d="M51.144 211.246c17.231 25.051 34.057 50.698 51.229 75.836h-.767c-16.919-24.754-33.485-50.033-50.462-74.701v-1.135z"/><path fill="#FFF" d="M51.144 212.38c16.978 24.67 33.543 49.947 50.462 74.701h-2.761c-16.004-23.387-31.641-47.312-47.702-70.611l.001-4.09z"/><path fill="#4D4D4D" d="M51.144 216.468c16.062 23.3 31.698 47.227 47.702 70.613h-.768c-15.746-23.008-31.127-46.556-46.935-69.479l.001-1.134z"/><path fill="#FFF" d="M51.144 217.604c15.808 22.922 31.188 46.47 46.935 69.478h-2.607c-14.877-21.72-29.389-43.986-44.327-65.617l-.001-3.861z"/><path fill="#4D4D4D" d="M51.144 221.462c14.938 21.631 29.45 43.898 44.327 65.619h-.919c-14.57-21.27-28.775-43.08-43.407-64.256l-.001-1.363z"/><path fill="#FFF" d="M51.144 222.828c14.632 21.176 28.837 42.985 43.406 64.254h-2.762c-13.488-20.221-26.962-40.461-40.646-60.395.002-1.288.002-2.574.002-3.859z"/><path fill="#4D4D4D" d="M51.144 226.687c13.683 19.934 27.158 40.174 40.646 60.395h-.919c-13.18-19.771-26.351-39.552-39.726-59.033l-.001-1.362z"/><path fill="#FFF" d="M51.144 228.048c13.375 19.48 26.546 39.263 39.726 59.033h-2.607c-12.304-18.494-24.616-36.976-37.118-55.174l-.001-3.859z"/><path fill="#4D4D4D" d="M51.144 231.908c12.502 18.198 24.814 36.68 37.118 55.174h-.921c-11.993-18.045-24.003-36.063-36.197-53.811v-1.363z"/><path fill="#FFF" d="M51.144 233.271c12.194 17.747 24.205 35.766 36.197 53.811h-2.606C73.622 270.308 62.464 253.6 51.144 237.13v-3.859z"/><path fill="#4D4D4D" d="M51.144 237.13c11.319 16.469 22.478 33.178 33.591 49.951h-.92c-10.803-16.326-21.659-32.57-32.671-48.588v-1.363z"/><path fill="#FFF" d="M51.144 238.492c11.012 16.018 21.868 32.264 32.671 48.59H81.36c-10.067-14.992-20.097-30.041-30.216-44.957v-3.633z"/><path fill="#4D4D4D" d="M51.144 242.125c10.119 14.918 20.147 29.965 30.216 44.957h-.919c-9.76-14.541-19.489-29.125-29.296-43.595l-.001-1.362z"/><path fill="#FFF" d="M51.144 243.488c9.807 14.469 19.537 29.055 29.296 43.594h-2.608c-8.882-13.266-17.766-26.527-26.688-39.733v-3.861z"/><path fill="#4D4D4D" d="M51.144 247.347c8.922 13.207 17.807 26.468 26.688 39.734h-.92a11397.941 11397.941 0 0 0-25.768-38.373v-1.361z"/><path fill="#FFF" d="M51.144 248.708a11709.097 11709.097 0 0 1 25.768 38.373h-2.606c-7.693-11.545-15.438-23.014-23.161-34.513l-.001-3.86z"/><path fill="#4D4D4D" d="M51.144 252.57c7.724 11.499 15.468 22.969 23.161 34.512h-.768c-7.432-11.172-14.934-22.244-22.394-33.375l.001-1.137z"/><path fill="#FFF" d="M51.144 253.705c7.46 11.133 14.961 22.205 22.394 33.377h-2.761c-6.496-9.834-13.118-19.482-19.633-29.291v-4.086z"/><path fill="#4D4D4D" d="M51.144 257.792c6.515 9.808 13.137 19.455 19.633 29.289h-.768c-6.235-9.461-12.612-18.715-18.865-28.154v-1.135z"/><path fill="#FFF" d="M51.144 258.927c6.253 9.438 12.63 18.693 18.865 28.154h-2.605c-5.347-8.207-10.907-16.097-16.259-24.295l-.001-3.859z"/><path fill="#4D4D4D" d="M51.144 262.787c5.353 8.198 10.912 16.088 16.259 24.295h-.921c-5.033-7.763-10.302-15.174-15.338-22.933v-1.362z"/><path fill="#FFF" d="M51.144 264.15c5.037 7.758 10.306 15.169 15.338 22.932h-2.607a822.352 822.352 0 0 0-12.73-18.845l-.001-4.087z"/><path fill="#4D4D4D" d="M51.144 268.237a809.554 809.554 0 0 1 12.73 18.845h-.921A698.496 698.496 0 0 0 51.142 269.6c.002-.456.002-.91.002-1.363z"/><path fill="#FFF" d="M51.144 269.599c4 5.732 7.938 11.561 11.811 17.482h-2.606a425.295 425.295 0 0 0-9.204-13.623l-.001-3.859z"/><path fill="#4D4D4D" d="M51.144 273.458a427.509 427.509 0 0 1 9.204 13.623h-.921a344.454 344.454 0 0 0-8.283-12.26v-1.363z"/><path fill="#FFF" d="M51.144 274.822a344.454 344.454 0 0 1 8.283 12.26H56.82a161.903 161.903 0 0 0-5.676-8.399v-3.861z"/><path fill="#4D4D4D" d="M51.144 278.681a162.794 162.794 0 0 1 5.676 8.4h-.921a113.418 113.418 0 0 0-4.755-7.039v-1.361z"/><path fill="#FFF" d="M51.144 280.042a114.31 114.31 0 0 1 4.755 7.039h-2.454a26.615 26.615 0 0 0-2.301-3.406v-3.633z"/><path fill="#4D4D4D" d="M51.144 283.675a26.686 26.686 0 0 1 2.301 3.406h-.92a9.498 9.498 0 0 0-1.381-2.041v-1.365z"/><path fill="#FFF" d="M51.144 285.039a9.675 9.675 0 0 1 1.381 2.043h-1.381v-2.043zM103.294 122.47h2.762v4.086a37.856 37.856 0 0 1-2.762-4.086z"/></g><g><path fill="none" stroke="#231F20" stroke-width=".5" stroke-miterlimit="10" d="M54.689 122.062l-3.711 86.452 54.848 71.239-9.852-95.929z"/></g><g><defs><path id="c" d="M54.689 122.062l51.303 165.027-10.018-103.265z"/></defs><clipPath id="d"><use xlink:href="#c" overflow="visible"/></clipPath><g clip-path="url(#d)"><path fill="#FFF" d="M53.768 122.47a17.035 17.035 0 0 1-1.84 2.724v-2.724h1.84z"/><path fill="#4D4D4D" d="M53.768 122.47h.919a38.038 38.038 0 0 1-2.76 4.086v-1.362a17.018 17.018 0 0 0 1.841-2.724z"/><path fill="#FFF" d="M54.688 122.47h2.605a145.24 145.24 0 0 1-5.365 7.946v-3.86a38.436 38.436 0 0 0 2.76-4.086z"/><path fill="#4D4D4D" d="M57.293 122.47h.92a197.785 197.785 0 0 1-6.286 9.309v-1.362a144.529 144.529 0 0 0 5.366-7.947z"/><path fill="#FFF" d="M58.214 122.47h2.607a398.852 398.852 0 0 1-8.893 13.168v-3.859a199.867 199.867 0 0 0 6.286-9.309z"/><path fill="#4D4D4D" d="M60.821 122.47h.919a485.654 485.654 0 0 1-9.812 14.531v-1.363a400.424 400.424 0 0 0 8.893-13.168z"/><path fill="#FFF" d="M61.74 122.47h2.606a777.91 777.91 0 0 1-12.418 18.391v-3.86a486.324 486.324 0 0 0 9.812-14.531z"/><path fill="#4D4D4D" d="M64.346 122.47h.92a895.087 895.087 0 0 1-13.34 19.753v-1.362a768.906 768.906 0 0 0 12.42-18.391z"/><path fill="#FFF" d="M65.267 122.47h2.605a1280.736 1280.736 0 0 1-15.944 23.613v-3.859a899.888 899.888 0 0 0 13.339-19.754z"/><path fill="#4D4D4D" d="M67.873 122.47h.92a1438.394 1438.394 0 0 1-16.864 24.975v-1.362a1290.862 1290.862 0 0 0 15.944-23.613z"/><path fill="#FFF" d="M68.793 122.47h2.606a1909.868 1909.868 0 0 1-19.471 28.835v-3.86a1432.79 1432.79 0 0 0 16.865-24.975z"/><path fill="#4D4D4D" d="M71.399 122.47h.921a2097.278 2097.278 0 0 1-20.392 30.197v-1.362a1922.5 1922.5 0 0 0 19.471-28.835z"/><path fill="#FFF" d="M72.32 122.47h2.604a2664.356 2664.356 0 0 1-22.997 34.058v-3.86A2094.76 2094.76 0 0 0 72.32 122.47z"/><path fill="#4D4D4D" d="M74.925 122.47h.92a2893.078 2893.078 0 0 1-23.917 35.42v-1.362a2653.947 2653.947 0 0 0 22.997-34.058z"/><path fill="#FFF" d="M75.845 122.47h2.606a3548.533 3548.533 0 0 1-26.523 39.28v-3.859a2897.204 2897.204 0 0 0 23.917-35.421z"/><path fill="#4D4D4D" d="M78.452 122.47h.766a3762.008 3762.008 0 0 1-27.289 40.417v-1.137c8.904-13 17.745-26.093 26.523-39.28z"/><path fill="#FFF" d="M79.218 122.47h2.607c-9.889 14.872-19.828 29.669-29.896 44.276v-3.859a3802.01 3802.01 0 0 0 27.289-40.417z"/><path fill="#4D4D4D" d="M81.825 122.47h.919a4771.27 4771.27 0 0 1-30.815 45.637v-1.361c10.068-14.607 20.007-29.405 29.896-44.276z"/><path fill="#FFF" d="M82.744 122.47h2.607a5672.067 5672.067 0 0 1-33.424 49.497v-3.859a4778.122 4778.122 0 0 0 30.817-45.638z"/><path fill="#4D4D4D" d="M85.352 122.47h.919a5949.844 5949.844 0 0 1-34.343 50.86v-1.363a5694.579 5694.579 0 0 0 33.424-49.497z"/><path fill="#FFF" d="M86.271 122.47h2.605a6823.916 6823.916 0 0 1-36.948 54.719v-3.859a5996.953 5996.953 0 0 0 34.343-50.86z"/><path fill="#4D4D4D" d="M88.876 122.47h.921a7196.45 7196.45 0 0 1-37.87 56.083v-1.363a6860.25 6860.25 0 0 0 36.949-54.72z"/><path fill="#FFF" d="M89.797 122.47h2.453c-13.203 20.257-26.773 39.969-40.323 59.714v-3.632a7196.25 7196.25 0 0 0 37.87-56.082z"/><path fill="#4D4D4D" d="M92.25 122.47h.919c-13.51 20.708-27.389 40.875-41.242 61.077v-1.362c13.55-19.747 27.121-39.458 40.323-59.715z"/><path fill="#FFF" d="M93.17 122.47h2.607c-14.385 21.987-29.129 43.444-43.849 64.936v-3.859c13.853-20.202 27.732-40.369 41.242-61.077z"/><path fill="#4D4D4D" d="M95.777 122.47h.919c-14.694 22.438-29.743 44.351-44.77 66.298v-1.362c14.722-21.492 29.466-42.949 43.851-64.936z"/><path fill="#FFF" d="M96.696 122.47h2.607c-15.568 23.716-31.481 46.922-47.375 70.159v-3.859c15.025-21.949 30.074-43.862 44.768-66.3z"/><path fill="#4D4D4D" d="M99.303 122.47h.919c-15.878 24.167-32.096 47.831-48.295 71.522v-1.363c15.895-23.237 31.808-46.443 47.376-70.159z"/><path fill="#FFF" d="M100.223 122.47h2.606c-16.754 25.443-33.833 50.403-50.901 75.38v-3.858c16.2-23.692 32.417-47.355 48.295-71.522z"/><path fill="#4D4D4D" d="M102.83 122.47h.919c-17.062 25.893-34.446 51.311-51.82 76.743v-1.362c17.067-24.978 34.146-49.938 50.901-75.381z"/><path fill="#FFF" d="M103.749 122.47h2.299v.68c-17.982 26.723-35.958 53.465-54.12 79.924v-3.859c17.374-25.434 34.759-50.853 51.821-76.745z"/><path fill="#4D4D4D" d="M106.048 123.149v1.136c-17.978 26.731-35.965 53.455-54.121 79.921v-1.136c18.163-26.455 36.138-53.197 54.121-79.921z"/><path fill="#FFF" d="M106.048 124.286v3.861a8251.469 8251.469 0 0 1-54.121 79.921v-3.859c18.156-26.469 36.144-53.192 54.121-79.923z"/><path fill="#4D4D4D" d="M106.048 128.146v1.361a10683.71 10683.71 0 0 1-54.121 79.923v-1.363a8208.949 8208.949 0 0 0 54.121-79.921z"/><path fill="#FFF" d="M106.048 129.507v3.86c-17.932 26.798-36.019 53.375-54.121 79.923v-3.86a10653.364 10653.364 0 0 0 54.121-79.923z"/><path fill="#4D4D4D" d="M106.048 133.367v1.363c-17.926 26.807-36.026 53.363-54.121 79.921v-1.36c18.102-26.547 36.19-53.124 54.121-79.924z"/><path fill="#FFF" d="M106.048 134.73v3.859c-17.911 26.829-36.046 53.334-54.121 79.923v-3.861c18.094-26.558 36.195-53.114 54.121-79.921z"/><path fill="#4D4D4D" d="M106.048 138.59v1.362c-17.907 26.834-36.052 53.326-54.121 79.922v-1.362c18.075-26.587 36.209-53.093 54.121-79.922z"/><path fill="#FFF" d="M106.048 139.952v3.86c-18.129 26.508-35.991 53.416-54.121 79.922v-3.859c18.07-26.597 36.213-53.088 54.121-79.923z"/><path fill="#4D4D4D" d="M106.048 143.812v1.362c-18.129 26.508-35.991 53.416-54.121 79.923v-1.362c18.13-26.507 35.992-53.415 54.121-79.923z"/><path fill="#FFF" d="M106.048 145.174v3.861c-18.129 26.507-35.991 53.416-54.121 79.921v-3.859c18.13-26.508 35.992-53.415 54.121-79.923z"/><path fill="#4D4D4D" d="M106.048 149.035v1.362c-18.129 26.507-35.991 53.415-54.121 79.921v-1.361c18.13-26.506 35.992-53.415 54.121-79.922z"/><path fill="#FFF" d="M106.048 150.397v3.859c-18.129 26.508-35.991 53.416-54.121 79.921v-3.859c18.13-26.506 35.992-53.414 54.121-79.921z"/><path fill="#4D4D4D" d="M106.048 154.256v1.362c-18.129 26.508-35.991 53.415-54.121 79.922v-1.363c18.13-26.506 35.992-53.413 54.121-79.921z"/><path fill="#FFF" d="M106.048 155.619v3.86c-18.129 26.509-35.991 53.416-54.121 79.922v-3.86c18.13-26.506 35.992-53.415 54.121-79.922z"/><path fill="#4D4D4D" d="M106.048 159.479v1.362c-18.129 26.507-35.991 53.416-54.121 79.922v-1.362c18.13-26.507 35.992-53.414 54.121-79.922z"/><path fill="#FFF" d="M106.048 160.841v3.859c-18.129 26.508-35.991 53.416-54.121 79.922v-3.859c18.13-26.506 35.992-53.415 54.121-79.922z"/><path fill="#4D4D4D" d="M106.048 164.701v1.135c-18.129 26.508-35.991 53.416-54.121 79.924v-1.135c18.13-26.508 35.992-53.417 54.121-79.924z"/><path fill="#FFF" d="M106.048 165.835v3.86c-18.102 26.548-35.966 53.453-54.121 79.923v-3.859c18.13-26.508 35.992-53.416 54.121-79.924z"/><path fill="#4D4D4D" d="M106.048 169.696v1.362c-18.129 26.507-35.991 53.416-54.121 79.922v-1.361c18.156-26.47 36.019-53.375 54.121-79.923z"/><path fill="#FFF" d="M106.048 171.058v3.859c-18.129 26.508-35.991 53.416-54.121 79.922v-3.859c18.13-26.506 35.992-53.415 54.121-79.922z"/><path fill="#4D4D4D" d="M106.048 174.917v1.363c-18.129 26.508-35.991 53.414-54.121 79.922v-1.361c18.13-26.508 35.992-53.416 54.121-79.924z"/><path fill="#FFF" d="M106.048 176.281v3.859c-18.129 26.508-35.991 53.415-54.121 79.922v-3.859c18.13-26.508 35.992-53.414 54.121-79.922z"/><path fill="#4D4D4D" d="M106.048 180.141v1.362c-18.129 26.508-35.991 53.416-54.121 79.922v-1.362c18.13-26.507 35.992-53.415 54.121-79.922z"/><path fill="#FFF" d="M106.048 181.501v3.633c-18.113 26.529-35.83 53.656-54.121 79.923v-3.634c18.13-26.506 35.992-53.412 54.121-79.922z"/><path fill="#4D4D4D" d="M106.048 185.136v1.361c-18.104 26.541-35.836 53.645-54.121 79.922v-1.361c18.292-26.267 36.008-53.392 54.121-79.922z"/><path fill="#FFF" d="M106.048 186.498v3.86c-18.082 26.577-35.859 53.608-54.121 79.922v-3.858c18.285-26.28 36.016-53.381 54.121-79.924z"/><path fill="#4D4D4D" d="M106.048 190.358v1.362c-18.072 26.591-35.867 53.599-54.121 79.922v-1.362c18.261-26.314 36.04-53.345 54.121-79.922z"/><path fill="#FFF" d="M106.048 191.72v3.861c-18.048 26.627-35.891 53.562-54.12 79.92v-3.859c18.252-26.324 36.048-53.331 54.12-79.922z"/><path fill="#4D4D4D" d="M106.048 195.582v1.361c-18.039 26.639-35.899 53.551-54.121 79.921v-1.362c18.23-26.359 36.073-53.294 54.121-79.92z"/><path fill="#FFF" d="M106.048 196.943v3.859c-18.015 26.676-35.925 53.512-54.121 79.922v-3.859c18.221-26.371 36.083-53.283 54.121-79.922z"/><path fill="#4D4D4D" d="M106.048 200.802v1.361c-18.007 26.688-35.934 53.5-54.121 79.922v-1.361c18.196-26.41 36.106-53.246 54.121-79.922z"/><path fill="#FFF" d="M106.048 202.166v3.859c-17.982 26.723-35.958 53.464-54.121 79.922v-3.859c18.187-26.424 36.115-53.235 54.121-79.922z"/><path fill="#4D4D4D" d="M106.048 206.024v1.136c-17.9 26.77-36.015 53.227-53.967 79.922-.333.039-.069-.806-.154-1.136 18.163-26.458 36.138-53.198 54.121-79.922z"/><path fill="#FFF" d="M106.048 207.16v3.86c-16.997 25.537-34.255 50.687-51.36 76.062h-2.606c17.951-26.696 36.065-53.153 53.966-79.922z"/><path fill="#4D4D4D" d="M106.048 211.02v1.36c-16.717 25.045-33.665 49.746-50.44 74.701h-.919c17.104-25.374 34.363-50.524 51.359-76.061z"/><path fill="#FFF" d="M106.048 212.38v3.861c-15.841 23.768-31.927 47.17-47.834 70.84h-2.606c16.776-24.955 33.724-49.656 50.44-74.701z"/><path fill="#4D4D4D" d="M106.048 216.242v1.362c-15.531 23.317-31.312 46.263-46.915 69.478h-.919c15.908-23.67 31.993-47.073 47.834-70.84z"/><path fill="#FFF" d="M106.048 217.604v3.858c-14.655 22.041-29.574 43.693-44.308 65.619h-2.607c15.602-23.214 31.383-46.16 46.915-69.477z"/><path fill="#4D4D4D" d="M106.048 221.462v1.363c-14.348 21.59-28.96 42.785-43.389 64.256h-.919c14.734-21.923 29.652-43.578 44.308-65.619z"/><path fill="#FFF" d="M106.048 222.828v3.859a8378.272 8378.272 0 0 0-40.781 60.395H62.66c14.428-21.471 29.041-42.666 43.388-64.254z"/><path fill="#4D4D4D" d="M106.048 226.687v1.361a7962.442 7962.442 0 0 0-39.861 59.033h-.919a8323.273 8323.273 0 0 1 40.78-60.394z"/><path fill="#FFF" d="M106.048 228.048v3.859a7047.566 7047.566 0 0 0-37.255 55.174h-2.606a7962.442 7962.442 0 0 1 39.861-59.033z"/><path fill="#4D4D4D" d="M106.048 231.908v1.363a6677.377 6677.377 0 0 0-36.336 53.811h-.919a6992.28 6992.28 0 0 1 37.255-55.174z"/><path fill="#FFF" d="M106.048 233.271v3.859a5731.162 5731.162 0 0 0-33.729 49.951h-2.607a6685.732 6685.732 0 0 1 36.336-53.81z"/><path fill="#4D4D4D" d="M106.048 237.13v1.361a5458.979 5458.979 0 0 0-32.81 48.59h-.919a5700.964 5700.964 0 0 1 33.729-49.951z"/><path fill="#FFF" d="M106.048 238.492v3.86a4631.849 4631.849 0 0 0-30.203 44.729h-2.606a5458.73 5458.73 0 0 1 32.809-48.589z"/><path fill="#4D4D4D" d="M106.048 242.353v1.361a4336.834 4336.834 0 0 0-29.282 43.367h-.92a4601.147 4601.147 0 0 1 30.202-44.728z"/><path fill="#FFF" d="M106.048 243.714v3.861a3580.072 3580.072 0 0 0-26.677 39.506h-2.605a4360.02 4360.02 0 0 1 29.282-43.367z"/><path fill="#4D4D4D" d="M106.048 247.576v1.135a3395.189 3395.189 0 0 0-25.909 38.371h-.768a3584.63 3584.63 0 0 1 26.677-39.506z"/><path fill="#FFF" d="M106.048 248.708v3.86c-7.796 11.461-15.58 22.943-23.304 34.513h-2.605a3400.157 3400.157 0 0 1 25.909-38.373z"/><path fill="#4D4D4D" d="M106.048 252.57v1.362a2557.423 2557.423 0 0 0-22.384 33.149h-.92c7.725-11.568 15.508-23.05 23.304-34.511z"/><path fill="#FFF" d="M106.048 253.932v3.86a1978.215 1978.215 0 0 0-19.777 29.289h-2.606a2533.962 2533.962 0 0 1 22.383-33.149z"/><path fill="#4D4D4D" d="M106.048 257.792v1.361a1775.138 1775.138 0 0 0-18.856 27.928h-.92a1962.714 1962.714 0 0 1 19.776-29.289z"/><path fill="#FFF" d="M106.048 259.154v3.86a1339.136 1339.136 0 0 0-16.251 24.067h-2.605a1791.404 1791.404 0 0 1 18.856-27.927z"/><path fill="#4D4D4D" d="M106.048 263.015v1.361a1191.97 1191.97 0 0 0-15.331 22.705h-.92a1328.56 1328.56 0 0 1 16.251-24.066z"/><path fill="#FFF" d="M106.048 264.376v3.633a842.129 842.129 0 0 0-12.878 19.072h-2.453a1196.695 1196.695 0 0 1 15.331-22.705z"/><path fill="#4D4D4D" d="M106.048 268.009v1.363a722.247 722.247 0 0 0-11.959 17.709h-.919a835.523 835.523 0 0 1 12.878-19.072z"/><path fill="#FFF" d="M106.048 269.373v3.858a441.25 441.25 0 0 0-9.352 13.851h-2.607a720.334 720.334 0 0 1 11.959-17.709z"/><path fill="#4D4D4D" d="M106.048 273.231v1.362a358.254 358.254 0 0 0-8.433 12.488h-.919a444.122 444.122 0 0 1 9.352-13.85z"/><path fill="#FFF" d="M106.048 274.593v3.861a170.295 170.295 0 0 0-5.825 8.627h-2.607a361.568 361.568 0 0 1 8.432-12.488z"/><path fill="#4D4D4D" d="M106.048 278.455v1.361a120.484 120.484 0 0 0-4.904 7.266h-.92a168.963 168.963 0 0 1 5.824-8.627z"/><path fill="#FFF" d="M106.048 279.816v3.859a26.675 26.675 0 0 0-2.299 3.406h-2.605a120.776 120.776 0 0 1 4.904-7.265z"/><path fill="#4D4D4D" d="M106.048 283.675v1.363a9.71 9.71 0 0 0-1.38 2.043h-.919a26.675 26.675 0 0 1 2.299-3.406z"/><path fill="#FFF" d="M106.048 285.039v2.043h-1.38a9.609 9.609 0 0 1 1.38-2.043z"/></g><g><path fill="none" stroke="#231F20" stroke-width=".5" stroke-miterlimit="10" d="M54.689 122.062l51.303 165.027-10.018-103.265z"/></g></g></svg>