<svg version="1.1" xmlns="http://www.w3.org/2000/svg" x="0" y="0" width="411.023" height="438.391" viewBox="-41.774 46.525 411.023 438.391" xml:space="preserve"><path fill="none" stroke="#000" stroke-width="1" d="M4.549 160.506h320.415v188.976H4.549z"/><path fill="#FFF" stroke="#000" stroke-width="1" d="M137.538 48.979h79.773l-25.336 51.669h-79.774zM121.494 137.604h86.522c14.492 0 26.332 11.948 26.332 26.441 0 14.495-11.837 26.444-26.332 26.444h-86.522c-14.491 0-26.443-11.949-26.443-26.444.001-14.492 11.951-26.441 26.443-26.441zM-39.154 249.24l43.593-39.387L48.03 249.24 4.439 288.741zM280.708 249.24l43.591-39.387 43.593 39.387-43.593 39.501zM51.57 311.751h226.373v71.807H51.57zM82.771 426.044h167.953v54.768H82.771z"/><path fill="none" stroke="#000" stroke-width="1" d="M164.757 99.985v35.184"/><path d="M135.99 69.006V57.941h6.195v1.55h-4.314v2.767h4.314v1.548h-4.314v3.54h4.314v1.66zM144.51 69.006h-1.769l2.766-3.872-2.323-3.319h1.77l.995 1.548c.113.111.223.221.223.442.111.111.221.221.221.332.11-.111.221-.221.221-.332.11-.111.221-.333.334-.553l.995-1.438h1.771l-2.324 3.319 2.656 3.872h-1.769l-1.327-1.88v-.111c-.334-.442-.443-.663-.554-.886-.11.223-.221.333-.221.553-.11.112-.223.221-.334.443l-1.331 1.882zM156.346 63.917a1.713 1.713 0 0 0-.885-.664c-.332-.11-.663-.222-1.106-.222-.665 0-1.106.222-1.55.664-.441.442-.551.996-.551 1.66 0 .773.111 1.325.551 1.771.442.441.995.663 1.66.663.442 0 .774-.109 1.106-.221.223-.222.554-.441.774-.664v1.882c-.332.11-.665.22-.995.332-.332.111-.665.111-1.106.111-1.106 0-1.991-.333-2.655-.997-.774-.774-1.106-1.66-1.106-2.766 0-1.217.441-2.103 1.106-2.766.775-.775 1.66-1.107 2.876-1.107.332 0 .665 0 .995.111.334.111.665.221.885.332v1.881h.001zM164.866 65.687h-3.651v-1.106h1.991c-.109-.554-.332-.885-.663-1.218-.332-.221-.776-.332-1.326-.332v-1.438c1.106 0 2.103.333 2.655.997.665.663.995 1.548.995 2.766l-.001.331zm-3.65 2.101c.551 0 .995-.109 1.326-.332.334-.221.663-.553.884-1.106l1.328.774a3.914 3.914 0 0 1-1.439 1.548c-.551.443-1.326.554-2.102.554v-1.438h.003zm0-2.101h-1.991c0 .665.221 1.108.551 1.55.334.333.774.553 1.439.553v1.439c-1.106 0-1.992-.333-2.766-.996-.665-.774-.998-1.66-.998-2.766 0-1.107.333-2.103 1.107-2.766.665-.776 1.55-1.108 2.656-1.108v1.438c-.554 0-.885.11-1.22.333-.332.223-.551.663-.662 1.218h1.882l.002 1.105zM165.753 67.679l1.328-.776a2.4 2.4 0 0 0 .55.885c.334.111.664.223.996.223.334 0 .553-.111.774-.223.221-.221.334-.442.334-.663 0-.442-.334-.774-1.108-.997-.111-.109-.332-.221-.441-.221-.774-.332-1.328-.665-1.551-.997-.329-.332-.552-.774-.552-1.217 0-.663.334-1.106.774-1.548.554-.333 1.22-.553 1.881-.553.554 0 .998.111 1.438.333.332.11.663.442.886.775l-1.218.884c-.11-.221-.224-.442-.442-.553-.222-.111-.441-.222-.774-.222-.11 0-.441.111-.551.222a.605.605 0 0 0-.334.553c0 .442.442.774 1.219 1.107.221 0 .441.11.552.221a3.58 3.58 0 0 1 1.438.885c.221.332.441.665.441 1.218 0 .665-.332 1.217-.771 1.659-.554.333-1.22.555-2.105.555-.663 0-1.217-.111-1.659-.333-.442-.332-.887-.665-1.105-1.217zM172.168 67.679l1.328-.776c.109.333.332.664.55.885.334.111.665.223 1.109.223.332 0 .664-.111.886-.223.111-.221.221-.442.221-.663 0-.442-.332-.774-1.106-.997-.221-.109-.442-.221-.553-.221-.774-.332-1.326-.665-1.549-.997-.332-.332-.441-.774-.441-1.217 0-.663.222-1.106.663-1.548a3.808 3.808 0 0 1 1.992-.553c.553 0 .995.111 1.438.333.442.11.663.442.886.775l-1.22.884c0-.221-.221-.442-.441-.553-.224-.111-.442-.222-.663-.222-.333 0-.554.111-.774.222a.607.607 0 0 0-.333.553c0 .442.441.774 1.326 1.107.221 0 .442.11.553.221a3.579 3.579 0 0 1 1.436.885c.225.332.442.665.442 1.218 0 .665-.334 1.217-.773 1.659-.554.333-1.218.555-2.103.555-.774 0-1.327-.111-1.772-.333-.436-.332-.88-.665-1.102-1.217zM179.362 58.716c0-.221.109-.442.331-.664.222-.22.441-.332.773-.332.223 0 .441.111.665.332.222.221.332.442.332.664 0 .333-.11.554-.332.776-.224.221-.442.332-.665.332-.332 0-.552-.111-.773-.332-.222-.222-.331-.443-.331-.776zm.22 10.29v-7.191h1.66v7.191h-1.66zM186.11 69.338l-3.763-7.522h1.771l1.549 3.651c0 .109.108.221.222.442 0 .221.11.442.221.774 0-.221.108-.441.108-.664a.832.832 0 0 0 .226-.553l1.547-3.651h1.772l-3.653 7.523zM197.727 65.687h-3.653v-1.106h1.885c0-.554-.225-.885-.554-1.218-.332-.221-.774-.332-1.328-.332v-1.438c1.109 0 1.993.333 2.655.997.664.663.998 1.548.998 2.766l-.003.331zm-3.652 2.101c.442 0 .885-.109 1.219-.332.332-.222.665-.553.886-1.106l1.436.774c-.442.663-.885 1.217-1.547 1.548-.552.443-1.219.554-1.993.554v-1.438zm0-2.101h-2.102c0 .665.221 1.108.553 1.55.441.333.885.553 1.437.553h.109v1.439c-1.217 0-2.101-.333-2.766-.996-.664-.774-.995-1.66-.995-2.766 0-1.107.331-2.103.995-2.766.774-.776 1.66-1.108 2.766-1.108v1.438c-.551 0-.995.11-1.325.333-.331.223-.554.663-.665 1.218h1.991v1.104h.002zM140.747 86.266c.663 0 1.108-.222 1.438-.664.331-.442.554-.995.554-1.77s-.223-1.327-.554-1.771c-.332-.332-.885-.554-1.438-.554V80.07h.442c.995 0 1.77.331 2.323.995.551.665.885 1.66.885 2.767 0 1.217-.334 2.101-.885 2.766-.554.774-1.328 1.106-2.323 1.106-.221 0-.332 0-.442-.11v-1.328zm-1.992-2.433c0 .663.222 1.328.555 1.77.332.442.884.664 1.437.664v1.327c-.332 0-.662-.11-.885-.221-.441-.221-.772-.553-1.107-.885v.885h-1.549V75.755h1.549v5.644c.222-.442.555-.774.996-.997.223-.219.554-.331.995-.331v1.438c-.662 0-1.106.11-1.437.554-.333.442-.554.995-.554 1.77zM146.169 75.755h1.66v11.618h-1.66zM157.011 84.053h-3.651v-1.106h1.991c-.111-.442-.332-.885-.665-1.106-.332-.333-.774-.442-1.325-.442v-1.328c1.106 0 1.991.221 2.654.885.664.664.995 1.66.995 2.767v.33h.001zm-3.651 2.102c.551 0 .884-.111 1.326-.332.334-.222.554-.553.885-.996l1.328.665a3.606 3.606 0 0 1-1.438 1.659c-.661.333-1.326.554-2.101.554v-1.55zm0-2.102h-1.991c0 .665.221 1.218.551 1.549.334.332.774.553 1.439.553v1.549c-1.106 0-1.991-.332-2.766-1.106-.664-.665-.995-1.549-.995-2.766 0-1.107.332-1.992 1.106-2.767.664-.664 1.549-.995 2.655-.995v1.327c-.554 0-.885.11-1.22.442-.332.222-.551.552-.773 1.107h1.991l.003 1.107zM165.532 84.053h-3.652v-1.106h1.991c-.109-.442-.221-.885-.553-1.106-.332-.333-.774-.442-1.326-.442h-.11v-1.328c1.217 0 2.101.221 2.655.885.661.664.996 1.66.996 2.767l-.001.33zm-3.652 2.102c.551 0 .995-.111 1.326-.332.333-.222.665-.553.885-.996l1.44.665c-.444.773-.997 1.325-1.551 1.659-.554.333-1.217.554-2.101.554l.001-1.55zm0-2.102h-1.994c0 .665.223 1.218.554 1.549.332.332.885.553 1.439.553v1.549c-1.108 0-1.994-.332-2.655-1.106-.665-.665-.998-1.549-.998-2.766 0-1.107.333-1.992.998-2.767.662-.664 1.546-.995 2.655-.995v1.327c-.443 0-.885.11-1.22.442-.332.222-.551.552-.665 1.107h1.883l.003 1.107zM172.28 83.833c0-.774-.221-1.327-.552-1.771-.334-.442-.774-.554-1.438-.554V80.07c.334 0 .663.111.996.331.443.222.774.554.885.996v-5.644h1.659v11.618h-1.659v-.886a2.622 2.622 0 0 1-.996.886 2.073 2.073 0 0 1-.885.221v-1.328c.553 0 .996-.222 1.438-.664.331-.44.552-1.104.552-1.767zm-1.991-2.325c-.665 0-1.107.222-1.437.554-.223.442-.442.996-.442 1.771s.222 1.328.442 1.77c.332.442.771.664 1.437.664v1.327c-.111.11-.333.11-.441.11-.996 0-1.659-.332-2.213-1.106-.664-.665-.885-1.549-.885-2.766 0-1.107.221-2.103.885-2.767.554-.664 1.219-.995 2.213-.995h.441v1.438zM175.932 77.193c0-.332.11-.553.331-.663.222-.223.442-.333.665-.333.33 0 .55.11.774.222.221.221.33.442.33.773 0 .333-.109.554-.33.774-.225.111-.444.221-.774.221-.223 0-.443-.11-.665-.332-.221-.107-.331-.441-.331-.662zm.222 10.18v-7.08h1.658v7.08h-1.658zM180.135 87.373v-7.08h1.549v1.106c.334-.442.663-.774 1.108-.997.441-.219.995-.331 1.546-.331.555 0 .997 0 1.438.221.334.11.666.442.888.774.11.11.221.332.221.664.108.221.108.663.108 1.327v4.314h-1.657V83.72c0-.885-.112-1.549-.334-1.881-.221-.333-.663-.442-1.217-.442-.442 0-.774.109-.997.221-.332.111-.552.332-.772.553-.113.221-.113.442-.225.664 0 .332-.109.664-.109 1.326v3.208l-1.547.004zM194.297 83.833c0-.774-.224-1.327-.553-1.771s-.885-.554-1.438-.554V80.07c.334 0 .663.111.997.331.441.222.662.554.886.996v-1.106h1.657v6.638c0 1.438-.332 2.322-.886 2.988-.55.552-1.437.774-2.654.774v-1.329c.663 0 1.108-.111 1.438-.442.331-.33.442-.773.442-1.548v-.885c-.223.333-.664.664-.997.885a2.073 2.073 0 0 1-.885.221v-1.327c.552 0 .997-.222 1.438-.664.333-.442.555-1.106.555-1.769zm-1.991-2.325c-.662 0-1.106.222-1.437.554-.334.442-.553.996-.553 1.771s.221 1.328.553 1.77c.333.442.774.664 1.437.664v1.327c-.111.11-.332.11-.441.11-.995 0-1.77-.332-2.435-1.106-.551-.665-.774-1.549-.774-2.766 0-1.107.224-2.103.886-2.767.554-.664 1.328-.995 2.323-.995h.441v1.438zm0 7.856v1.329h-.111c-.995 0-1.771-.222-2.32-.555-.665-.442-.886-.994-.886-1.66h1.656c.114.223.225.554.442.666.333.219.665.219 1.107.219h.112zM129.794 148.005c0-.112-.111-.333-.111-.554 0-.333-.11-.552-.11-.663 0 .221-.111.332-.111.553-.112.221-.112.442-.223.665l-2.32 4.646-2.324-4.757c-.11-.221-.221-.442-.221-.553-.11-.221-.11-.442-.223-.553v.553c0 .221-.11.442-.11.665l-.995 4.313h-1.326l2.103-9.182 2.545 5.531c.111.111.111.223.221.442.111.222.223.442.335.774.109-.222.221-.552.33-.995.111-.112.111-.112.111-.223l2.545-5.531 2.104 9.182h-1.219l-1.001-4.313zM138.534 149.664h-2.876v-.885h1.546c0-.442-.221-.773-.441-.885-.221-.221-.664-.332-1.106-.332v-1.107c.884 0 1.66.222 2.101.774.555.553.775 1.218.775 2.213l.001.222zm-2.876 1.659c.441 0 .772-.111.995-.222.332-.222.551-.442.774-.884l1.107.664c-.335.553-.775.995-1.219 1.217-.441.333-.996.442-1.658.442l.001-1.217zm0-1.659h-1.66c.11.554.221.885.551 1.218.223.332.665.442 1.108.442v1.218c-.885 0-1.66-.331-2.213-.885-.553-.553-.775-1.218-.775-2.213 0-.885.334-1.55.885-2.212.554-.553 1.22-.774 2.105-.774v1.106c-.443 0-.774.111-.998.221a2.138 2.138 0 0 0-.551.995h1.55l-.002.884zM140.194 152.318v-4.536h-.995v-1.216h.995v-2.102h1.327v2.102h.996v1.216h-.996v4.536zM143.624 152.318v-9.294h1.217v4.537c.334-.442.553-.664.995-.885.334-.222.774-.222 1.219-.222.441 0 .774 0 1.106.11.333.221.555.333.665.665a.85.85 0 0 1 .221.553c.11.221.11.553.11 1.106v3.428h-1.326v-2.986c0-.665-.113-1.217-.223-1.438-.221-.221-.551-.332-.995-.332-.332 0-.551 0-.885.111-.221.109-.332.332-.551.442 0 .221-.112.332-.112.552-.111.222-.111.553-.111.996v2.655h-1.327v.002h-.003zM155.351 149.443c0-.442-.111-.885-.551-1.327-.334-.333-.665-.553-1.22-.553v-1.106c.443 0 .884 0 1.22.221.332.111.661.332.995.664.332.221.551.553.662.995.224.332.224.774.224 1.106 0 .442 0 .884-.224 1.218-.111.332-.332.664-.662.995-.334.221-.665.554-.995.663-.443.111-.776.223-1.22.223v-1.218c.554 0 .884-.111 1.22-.553.331-.333.551-.776.551-1.328zm-1.769-1.881c-.441 0-.885.221-1.217.553-.334.442-.553.884-.553 1.328 0 .553.221.995.553 1.327.332.442.774.553 1.217.553v1.217c-.441 0-.776-.111-1.217-.223-.334-.108-.665-.442-.996-.663-.334-.332-.554-.663-.664-.995-.111-.332-.221-.775-.221-1.217 0-.442.11-.776.221-1.107.11-.442.332-.773.664-.995.332-.333.662-.553.996-.664.441-.222.774-.222 1.217-.222v1.108zM162.212 149.443c0-.553-.109-.995-.442-1.327-.221-.333-.661-.553-1.106-.553v-1.106c.221 0 .554.11.774.221.332.222.553.553.774.885v-4.537h1.217v9.293h-1.217v-.773c-.332.332-.553.553-.884.773-.221.112-.443.223-.665.223v-1.109c.442 0 .774-.221 1.106-.553.332-.331.443-.885.443-1.437zm-1.549-1.881c-.551 0-.885.221-1.217.553-.221.333-.442.774-.442 1.328 0 .664.223 1.106.442 1.438.332.333.665.553 1.217.553v1.106h-.332c-.884 0-1.438-.223-1.992-.774-.442-.553-.663-1.327-.663-2.323 0-.885.221-1.66.775-2.213.441-.553.995-.774 1.77-.774h.441v1.106zM170.178 146.566v3.209c0 .552.111.995.332 1.217.223.221.554.332 1.108.332.441 0 .886-.111 1.107-.332.221-.222.331-.665.331-1.217v-3.209h1.327v2.877c0 1.106-.221 1.88-.662 2.324-.441.552-1.218.774-2.104.774-.995 0-1.659-.223-2.104-.774-.441-.442-.662-1.218-.662-2.324v-2.877h1.327zM175.489 151.323l.996-.664c.11.332.224.553.443.664.221.11.55.221.884.221.333 0 .551-.11.665-.221.221-.111.221-.332.221-.553 0-.222-.221-.553-.886-.774-.109 0-.334-.111-.442-.111-.553-.333-.996-.552-1.217-.774-.333-.333-.444-.663-.444-.995 0-.553.225-.885.665-1.218.334-.332.884-.442 1.548-.442.441 0 .774 0 1.106.221a.988.988 0 0 1 .663.664l-.884.665a1.519 1.519 0 0 0-.332-.442c-.224-.112-.334-.222-.554-.222-.331 0-.552.11-.664.222-.109.111-.221.332-.221.442 0 .332.333.553.995.885.222 0 .443.11.555.11.441.221.884.442 1.104.775.223.221.333.552.333.995 0 .553-.222.996-.661 1.327-.335.333-.998.442-1.659.442a3.08 3.08 0 0 1-1.439-.331c-.332-.222-.667-.553-.775-.886zM186.775 149.664h-2.878v-.885h1.549c0-.442-.224-.773-.443-.885-.221-.221-.663-.332-1.105-.332v-1.107c.885 0 1.659.222 2.104.774.554.553.774 1.218.774 2.213v.222h-.001zm-2.878 1.659c.441 0 .774-.111.997-.222.331-.222.552-.442.774-.884l1.106.664c-.332.553-.774.995-1.219 1.217-.442.333-.996.442-1.659.442v-1.217zm0-1.659h-1.66c0 .554.223.885.442 1.218.334.332.664.442 1.219.442v1.218c-.885 0-1.659-.331-2.212-.885-.551-.553-.774-1.218-.774-2.213 0-.885.224-1.55.884-2.212.554-.553 1.22-.774 2.105-.774v1.106c-.443 0-.774.111-.995.221a2.115 2.115 0 0 0-.554.995h1.549l-.004.884zM192.306 149.443c0-.553-.222-.995-.441-1.327-.331-.333-.662-.553-1.22-.553v-1.106c.335 0 .555.11.889.221.331.222.551.553.661.885v-4.537h1.327v9.293h-1.327v-.773a2.548 2.548 0 0 1-.774.773c-.221.112-.441.223-.775.223v-1.109c.555 0 .889-.221 1.22-.553.219-.331.44-.885.44-1.437zm-1.661-1.881c-.441 0-.882.221-1.105.553-.332.333-.441.774-.441 1.328 0 .664.109 1.106.441 1.438.222.333.664.553 1.105.553v1.106h-.33c-.775 0-1.439-.223-1.882-.774-.442-.553-.663-1.327-.663-2.323 0-.885.221-1.66.663-2.213.441-.553 1.106-.774 1.882-.774h.33v1.106zM199.386 152.318v-4.536h-.997v-1.216h.997v-2.102h1.218v2.102h.996v1.216h-.996v4.536zM207.242 149.443c0-.442-.221-.885-.553-1.327-.334-.333-.774-.553-1.22-.553v-1.106c.443 0 .777 0 1.22.221.334.111.663.332.998.664.331.221.553.553.663.995.222.332.222.774.222 1.106 0 .442 0 .884-.222 1.218-.11.332-.334.664-.663.995-.335.221-.664.554-.998.663-.442.111-.774.223-1.22.223v-1.218c.443 0 .886-.111 1.22-.553.333-.333.553-.776.553-1.328zm-1.772-1.881c-.439 0-.883.221-1.217.553-.331.442-.552.884-.552 1.328 0 .553.223.995.552 1.327.334.442.777.553 1.217.553v1.217c-.439 0-.771-.111-1.217-.223-.331-.108-.663-.442-.996-.663-.33-.332-.553-.663-.662-.995-.222-.332-.222-.775-.222-1.217 0-.442 0-.776.222-1.107.109-.442.334-.773.662-.995.333-.333.665-.553.996-.664.334-.222.777-.222 1.217-.222v1.108zM105.343 167.034h-1.217v-5.643h1.217v.886c.222-.442.553-.664.884-.886.333-.111.665-.221 1.107-.221.444 0 .885.11 1.106.221.334.222.554.442.663.886.334-.442.665-.664.995-.886.334-.111.665-.221 1.108-.221.441 0 .772 0 .995.221.332.112.551.333.664.553.111.11.111.333.222.444v4.645h-1.328v-2.875c0-.774-.11-1.328-.221-1.549-.11-.219-.441-.332-.884-.332-.441 0-.885.111-1.106.442-.223.332-.334.885-.334 1.769v2.546h-1.326v-2.876c0-.774 0-1.218-.221-1.549-.112-.219-.443-.332-.884-.332-.223 0-.442 0-.665.111a1.312 1.312 0 0 0-.552.552c0 .111-.111.222-.111.442 0 .222-.11.554-.11 1.106v2.546h-.002zM120.168 167.034h-1.328v-.774c-.221.333-.441.664-.774.774-.221.111-.441.223-.661.223v-1.108c.441 0 .774-.221 1.106-.552.221-.333.443-.885.443-1.439 0-.553-.112-.995-.443-1.328-.221-.332-.665-.552-1.106-.552v-1.106c.22 0 .551.11.774.221.332.221.551.553.661.885v-.885h1.328v5.641zm-2.764.223h-.443c-.774 0-1.437-.223-1.881-.777-.441-.552-.665-1.326-.665-2.322 0-.885.223-1.66.665-2.212.554-.553 1.107-.774 1.881-.774h.443v1.106c-.555 0-.885.221-1.22.552a2.476 2.476 0 0 0-.441 1.44c0 .553.222.994.441 1.327.222.332.664.552 1.109.552h.111v1.108zM121.938 167.034v-5.643h1.326v.886c.223-.442.554-.664.884-.886.334-.111.774-.221 1.219-.221.441 0 .885 0 1.106.221.332.112.554.333.774.553 0 .11.111.333.222.552v4.536h-1.327v-2.875c0-.774-.109-1.328-.223-1.549-.221-.219-.551-.332-.996-.332-.332 0-.551 0-.774.111a1.31 1.31 0 0 0-.551.552c-.109.111-.221.222-.221.442-.112.222-.112.554-.112 1.106v2.546h-1.327zM134.551 167.034h-1.326v-.774c-.221.333-.443.664-.774.774-.221.111-.442.223-.665.223v-1.108c.443 0 .774-.221 1.106-.552.223-.333.443-.885.443-1.439 0-.553-.221-.995-.443-1.328-.221-.332-.661-.552-1.106-.552v-1.106c.221 0 .554.11.774.221.332.221.554.553.665.885v-.885h1.326v5.641zm-2.766.223h-.441c-.774 0-1.439-.223-1.88-.777-.443-.552-.664-1.326-.664-2.322 0-.885.221-1.66.664-2.212.551-.553 1.106-.774 1.88-.774h.441v1.106c-.551 0-.886.221-1.217.552a2.476 2.476 0 0 0-.442 1.44c0 .553.223.994.442 1.327.221.332.665.552 1.106.552h.111v1.108zM140.415 164.158c0-.553-.109-.995-.332-1.328-.334-.332-.665-.552-1.219-.552v-1.106c.334 0 .553.11.885.221.334.221.554.553.663.885v-.885h1.328v5.311c0 1.106-.223 1.881-.665 2.323-.444.442-1.219.664-2.213.664v-.996c.554 0 .885-.221 1.22-.442.221-.222.332-.664.332-1.218v-.774c-.221.333-.441.664-.774.774-.221.111-.441.223-.774.223v-1.108c.443 0 .885-.221 1.108-.552.331-.336.441-.886.441-1.44zm-1.549-1.881c-.441 0-.885.221-1.107.552-.332.333-.442.776-.442 1.44 0 .553.112.994.442 1.327.221.333.665.552 1.107.552v1.108h-.332c-.775 0-1.438-.223-1.881-.777-.443-.552-.665-1.326-.665-2.322 0-.885.221-1.66.665-2.212.441-.553 1.106-.774 1.881-.774h.332v1.106zm0 6.417v.996c-.885 0-1.437-.111-1.882-.442-.554-.333-.774-.774-.774-1.327h1.439c0 .221.11.442.332.553.222.109.443.22.885.22zM149.046 164.379h-2.99v-.885h1.549c0-.442-.11-.665-.441-.885-.222-.219-.554-.332-.995-.332h-.11v-1.106c.995 0 1.657.221 2.211.774.442.552.774 1.218.774 2.212v.223h.002zm-2.989 1.66c.442 0 .774 0 1.108-.223.221-.221.441-.443.665-.885l1.106.666c-.333.552-.664.995-1.22 1.217-.441.332-.995.442-1.659.442v-1.217zm0-1.66h-1.548c0 .552.111.994.441 1.218.221.332.665.442 1.106.442v1.218c-.885 0-1.548-.223-2.103-.777-.554-.552-.885-1.326-.885-2.211 0-.996.332-1.661.885-2.214.554-.664 1.217-.884 2.103-.884v1.106c-.332 0-.663.111-.995.332-.221.221-.441.442-.551.885h1.55l-.003.885zM154.357 167.034v-4.536h-.997v-1.107h.997v-2.212h1.327v2.212h.995v1.107h-.995v4.536zM157.785 167.034v-9.294h1.217v4.537c.333-.442.553-.664.995-.886.334-.111.774-.221 1.22-.221.441 0 .774 0 1.106.221.333.112.554.333.663.553.111.11.221.333.221.552.111.222.111.553.111 1.107v3.429h-1.326v-2.875c0-.774-.11-1.328-.334-1.549-.111-.219-.441-.332-.885-.332-.332 0-.661 0-.884.111a1.318 1.318 0 0 0-.552.552c-.11.111-.11.222-.223.442v3.652h-1.329zM170.399 164.379h-2.767v-.885h1.439c-.111-.442-.223-.665-.443-.885-.222-.219-.551-.332-.996-.332v-1.106c.886 0 1.439.221 1.991.774.554.552.775 1.218.775 2.212v.222h.001zm-2.766 1.66c.334 0 .665 0 .997-.223.109-.221.442-.443.663-.885l.996.666a2.412 2.412 0 0 1-1.107 1.217c-.552.332-.995.442-1.549.442v-1.217zm0-1.66h-1.66c0 .552.226.994.443 1.218.333.332.665.442 1.107.442h.109v1.218c-.997 0-1.66-.223-2.21-.777-.554-.552-.774-1.326-.774-2.211 0-.996.221-1.661.774-2.214.55-.664 1.326-.884 2.21-.884v1.106c-.441 0-.774.111-.997.332-.329.221-.44.442-.551.885h1.548v.885zM175.157 164.712h1.325c0 .442.109.774.442.994.221.223.664.333 1.105.333.555 0 .996-.111 1.218-.333.334-.332.442-.663.442-1.218 0-.442-.109-.884-.442-1.106-.332-.332-.771-.442-1.325-.442h-.22v-1.106h.22c.554 0 .885-.111 1.217-.333.225-.222.334-.553.334-.996 0-.333-.109-.663-.334-.885-.221-.221-.55-.333-.995-.333-.441 0-.774.112-.996.333-.221.223-.333.442-.333.885h-1.327c0-.774.334-1.327.774-1.77.442-.332 1.107-.553 1.991-.553.774 0 1.438.221 1.885.663.441.333.66.885.66 1.66 0 .553-.11.996-.333 1.327-.332.333-.663.555-1.104.664.55.111.884.332 1.217.665.332.442.443.884.443 1.549 0 .773-.224 1.437-.774 1.88-.554.443-1.327.664-2.214.664-.884 0-1.547-.222-2.101-.664-.554-.443-.775-1.104-.775-1.878zM184.231 162.277c.108-.442.332-.664.551-.886.221-.111.441-.221.774-.221h.553c.222.11.442.11.554.221l-.445 1.107c-.108-.108-.22-.108-.329-.108-.222-.112-.334-.112-.445-.112-.441 0-.771.221-.995.552-.11.333-.219.885-.219 1.66v2.546h-1.327v-5.643h1.327l.001.884zM191.532 164.158c0-.553-.113-.995-.443-1.328-.221-.332-.664-.552-1.105-.552v-1.106c.221 0 .55.11.774.221.331.221.55.553.661.885v-4.536h1.328v9.294h-1.328v-.774c-.221.332-.441.663-.775.774-.221.111-.441.222-.66.222v-1.108c.441 0 .774-.221 1.105-.552.221-.336.443-.886.443-1.44zm-1.548-1.881c-.555 0-.885.221-1.219.552a2.46 2.46 0 0 0-.441 1.44c0 .553.221.994.441 1.327.223.333.662.552 1.108.552h.11v1.108h-.443c-.773 0-1.436-.223-1.881-.777-.441-.552-.665-1.326-.665-2.322 0-.885.226-1.66.665-2.212.552-.553 1.107-.774 1.881-.774h.443v1.106zM197.615 166.039l1.109-.666c.109.332.222.555.441.666.222.221.442.221.774.221.334 0 .554 0 .774-.221.109-.111.221-.223.221-.442 0-.333-.332-.666-.886-.885-.221 0-.33-.111-.441-.111-.662-.331-1.108-.554-1.326-.774-.221-.333-.332-.553-.332-.997 0-.44.221-.884.55-1.217.444-.333.999-.442 1.66-.442.442 0 .773 0 1.108.221a1 1 0 0 1 .662.664l-.886.664a.868.868 0 0 0-.441-.442c-.109-.111-.334-.111-.554-.111s-.441 0-.55.111c-.225.111-.225.332-.225.442 0 .332.334.663.999.885.222.108.332.108.441.22.553.111.885.443 1.105.663.224.223.336.555.336.996 0 .554-.112.995-.554 1.328-.441.332-.996.441-1.771.441-.554 0-.996-.111-1.325-.333-.334-.218-.666-.44-.889-.881zM203.815 167.034v-4.536h-.999v-1.107h.999v-2.212h1.325v2.212h.998v1.107h-.998v4.536zM212.554 167.034h-1.22v-.774c-.222.333-.551.664-.885.774-.222.111-.441.223-.663.223v-1.108c.442 0 .773-.221 1.108-.552.331-.333.441-.885.441-1.439 0-.553-.111-.995-.441-1.328-.225-.332-.665-.552-1.108-.552v-1.106c.223 0 .552.11.773.221.335.221.553.553.774.885v-.885h1.22v5.641h.001zm-2.767.223h-.333c-.884 0-1.438-.223-1.992-.777-.443-.552-.662-1.326-.662-2.322 0-.885.222-1.66.773-2.212.441-.553.997-.774 1.771-.774h.441v1.106c-.552 0-.886.221-1.218.552-.222.333-.331.777-.331 1.44 0 .553.109.994.331 1.327.332.332.664.552 1.218.552l.002 1.108zM218.527 164.158c0-.553-.222-.995-.441-1.328-.334-.332-.663-.552-1.22-.552v-1.106c.335 0 .665.11.886.221.334.221.553.553.664.885v-.885h1.327v5.311c0 1.106-.225 1.881-.663 2.323-.443.442-1.106.664-2.214.664v-.996c.554 0 .999-.221 1.22-.442.221-.222.333-.664.333-1.218v-.774c-.222.333-.441.664-.774.774-.222.111-.441.223-.775.223v-1.108c.554 0 .888-.221 1.22-.552.216-.336.437-.886.437-1.44zm-1.66-1.881c-.441 0-.772.221-1.106.552-.332.333-.441.776-.441 1.44 0 .553.111.994.441 1.327.222.333.665.552 1.106.552v1.108h-.332c-.774 0-1.438-.223-1.882-.777-.442-.552-.663-1.326-.663-2.322 0-.885.222-1.66.663-2.212.555-.553 1.107-.774 1.882-.774h.332v1.106zm0 6.417v.996c-.772 0-1.436-.111-1.881-.442-.441-.331-.774-.774-.774-1.327h1.438c0 .221.111.442.336.553.219.109.55.22.881.22zM227.047 164.379h-2.877v-.885h1.551c-.114-.442-.226-.665-.555-.885-.222-.219-.554-.332-.996-.332v-1.106c.885 0 1.551.221 2.103.774.555.552.774 1.218.774 2.212v.222zm-2.877 1.66c.332 0 .664 0 .996-.223.221-.221.555-.443.663-.885l1.106.666c-.329.552-.663.995-1.106 1.217a3.126 3.126 0 0 1-1.659.442v-1.217zm0-1.66h-1.66c0 .552.111.994.442 1.218.334.332.664.442 1.108.442h.11v1.218c-.995 0-1.659-.223-2.213-.777-.55-.552-.774-1.326-.774-2.211 0-.996.225-1.661.774-2.214.554-.664 1.328-.884 2.213-.884v1.106c-.442 0-.774.111-1.105.332-.224.221-.443.442-.554.885h1.659v.885zM141.744 178.985c0-.554-.223-.997-.553-1.328-.332-.441-.665-.554-1.217-.554v-1.217c.441 0 .773.111 1.217.222.332.111.663.333.995.663.332.332.554.665.664.997.221.332.221.773.221 1.218 0 .331 0 .773-.221 1.105-.11.442-.334.774-.664.996-.332.333-.665.553-.995.664-.443.221-.776.221-1.217.221v-1.106c.441 0 .885-.221 1.217-.554.33-.333.553-.886.553-1.327zm-1.771-1.883c-.442 0-.884.111-1.219.553a1.835 1.835 0 0 0-.551 1.328c0 .441.222.995.551 1.326.335.333.775.553 1.219.553v1.106c-.442 0-.774 0-1.219-.221-.331-.111-.664-.332-.995-.663-.332-.223-.554-.554-.663-.996-.222-.333-.222-.774-.222-1.107 0-.441 0-.885.222-1.217.109-.332.333-.664.663-.997.333-.331.665-.552.995-.662.444-.112.775-.223 1.219-.223v1.22zM144.619 181.75v-4.537h-.995v-1.106h.995v-1.549c0-.773.221-1.328.551-1.66.334-.333.774-.554 1.439-.554h.442c.109 0 .332.111.441.111v1.218c-.111-.111-.222-.111-.333-.111-.11-.111-.223-.111-.334-.111-.332 0-.551.111-.662.333-.112.109-.223.44-.223.994v1.328h1.439v1.106h-1.439v4.537h-1.321zM152.032 172.456h1.328v9.295h-1.328zM160.552 181.75h-1.326v-.664c-.223.332-.444.553-.774.664-.223.11-.444.221-.775.221v-1.106c.441 0 .884-.222 1.106-.554.332-.332.444-.773.444-1.438 0-.553-.113-.996-.334-1.327-.333-.331-.665-.552-1.217-.552v.11-1.218c.332.111.551.111.884.333.333.109.551.441.665.774v-.885h1.326l.001 5.642zm-2.876.219h-.334c-.772 0-1.437-.221-1.88-.774-.441-.552-.661-1.325-.661-2.322 0-.885.221-1.548.661-2.103a2.37 2.37 0 0 1 1.88-.886h.334v1.218c-.442 0-.885.111-1.106.442-.334.332-.442.774-.442 1.438 0 .552.111.995.442 1.326.221.333.662.553 1.106.553v1.108zM165.198 180.865c.555 0 .885-.222 1.109-.554.329-.332.441-.773.441-1.325 0-.665-.113-1.108-.441-1.439-.225-.331-.664-.441-1.109-.441v-1.218h.335c.774 0 1.436.333 1.881.885.441.554.663 1.218.663 2.104 0 .997-.224 1.771-.663 2.322-.443.554-1.106.774-1.881.774h-.335v-1.108zm-1.547-1.992c0 .664.111 1.106.441 1.438.221.333.665.554 1.106.554v1.105c-.332 0-.552-.109-.772-.221a2.057 2.057 0 0 1-.774-.663v.663h-1.328v-9.294h1.328v4.537a1.32 1.32 0 0 1 .774-.774c.221-.223.441-.223.772-.334v1.218-.109c-.552 0-.885.221-1.217.552-.221.331-.33.775-.33 1.328zM173.828 178.985c0-.554-.11-.997-.441-1.328-.335-.441-.774-.554-1.327-.554v-1.217c.442 0 .884.111 1.218.222.441.111.774.333.997.663.331.332.55.665.774.997.11.332.222.773.222 1.218 0 .331-.111.773-.222 1.105-.225.442-.443.774-.665.996-.332.333-.662.553-1.106.664-.334.221-.773.221-1.218.221v-1.106c.553 0 .995-.221 1.327-.554s.441-.886.441-1.327zm-1.769-1.883c-.441 0-.887.111-1.219.553a1.824 1.824 0 0 0-.552 1.328c0 .441.221.995.552 1.326.332.333.774.553 1.219.553v1.106c-.333 0-.774 0-1.107-.221-.442-.111-.774-.332-1.106-.663-.224-.223-.442-.554-.664-.996-.109-.333-.221-.774-.221-1.107 0-.441.111-.885.221-1.217.222-.332.441-.664.664-.997.332-.331.661-.552.995-.662.441-.112.886-.223 1.219-.223v1.22zM177.923 176.107v3.208c0 .554.109.885.331 1.218.225.221.554.332 1.11.332.441 0 .884-.111 1.104-.332.222-.333.333-.663.333-1.218v-3.208h1.328v2.766c0 1.106-.223 1.881-.665 2.435-.441.441-1.217.662-2.101.662-.999 0-1.66-.221-2.106-.662-.441-.554-.663-1.328-.663-2.435v-2.766h1.329zM185.116 176.993c.221-.334.331-.666.552-.886.223-.11.549-.223.886-.223.221 0 .331 0 .549.112.226 0 .334.11.555.11l-.555 1.106c-.111 0-.22-.111-.331-.111-.109-.109-.221-.109-.441-.109-.442 0-.662.221-.885.552-.224.332-.332.885-.332 1.771v2.434h-1.328v-5.643h1.328l.002.887zM190.316 179.647v-.332c0-.442 0-.774.109-1.106.111-.223.336-.441.443-.774.221-.11.441-.333.774-.664.441-.332.662-.663.775-.773.109-.222.109-.443.109-.664 0-.441-.109-.774-.442-1.107-.332-.332-.774-.552-1.217-.552-.444 0-.885.221-1.108.443-.333.331-.552.774-.661 1.438l-1.11-.22c.114-.774.443-1.44.886-1.882.553-.442 1.22-.664 1.994-.664.885 0 1.55.221 2.102.774.443.442.664.997.664 1.661 0 .442 0 .774-.221 1.105-.224.332-.554.665-1.108 1.107-.332.332-.552.552-.662.774-.11.109-.11.221-.224.441 0 .221-.111.553-.111.995h-.992zm-.112 2.103v-1.218h1.217v1.218h-1.217zM-12.822 237.512c.332 0 .665-.111.774-.223.332-.108.441-.441.441-.884s-.111-.775-.441-.996c-.223-.112-.443-.222-.774-.222v-1.218h.995c.332.11.553.223.774.441.332.112.551.443.665.776.11.332.222.775.222 1.106 0 .441-.111.886-.222 1.218-.113.331-.334.555-.665.775-.221.219-.442.331-.774.331-.221.11-.554.11-.995.11v-1.214zm-1.107.112h.333c.332 0 .554 0 .774-.11v1.218h-1.218v3.981h-1.325v-8.851h2.102c.223 0 .334 0 .443.111v1.217h-1.106l-.003 2.434zM-4.081 242.712h-1.328v-.774a2.551 2.551 0 0 1-.774.774c-.221.111-.441.224-.662.224v-1.108c.441-.11.776-.221 1.106-.553.221-.441.441-.886.441-1.438 0-.553-.111-.996-.441-1.328-.221-.333-.665-.554-1.106-.554v-1.107c.221 0 .551.112.776.223.332.222.551.556.661.885v-.995h1.328v5.751zm-2.766.224h-.334c-.886 0-1.437-.224-1.992-.775-.444-.553-.665-1.327-.665-2.323 0-.886.221-1.661.665-2.211.554-.556 1.106-.778 1.88-.778h.443v1.107c-.554 0-.884.221-1.22.554-.221.332-.441.775-.441 1.328 0 .664.221 1.105.441 1.438.334.333.665.553 1.106.553h.112v1.108h.005zM-2.865 241.717l.995-.664c.11.331.223.554.443.664.221.11.551.221.884.221.332 0 .551-.11.665-.221.221-.11.221-.333.221-.552 0-.224-.221-.554-.885-.776-.11 0-.334-.109-.442-.109-.551-.333-.997-.556-1.217-.775-.221-.332-.442-.663-.442-.995 0-.554.223-.886.663-1.218.334-.333.885-.443 1.55-.443.441 0 .774 0 1.106.223.335.111.555.332.776.663l-.997.665c0-.223-.111-.332-.333-.441-.223-.112-.334-.223-.554-.223-.332 0-.442.11-.665.223-.109.11-.221.331-.221.441 0 .331.332.552.995.885.221 0 .443.11.555.11.441.222.884.442 1.106.775.221.222.332.552.332.995 0 .553-.221.995-.662 1.327-.335.333-.885.443-1.661.443-.553 0-.995-.112-1.439-.334-.33-.222-.552-.551-.773-.884zM2.335 241.717l1.106-.664c0 .331.223.554.442.664.221.11.442.221.774.221s.551-.11.665-.221a.609.609 0 0 0 .332-.552c0-.224-.332-.554-.885-.776-.221 0-.334-.109-.443-.109-.661-.333-1.106-.556-1.326-.775-.221-.332-.334-.663-.334-.995 0-.554.223-.886.554-1.218.442-.333.885-.443 1.549-.443.441 0 .885 0 1.217.223.223.111.554.332.665.663l-.886.665a.848.848 0 0 0-.441-.441.85.85 0 0 0-.554-.223.844.844 0 0 0-.554.223c-.221.11-.221.331-.221.441 0 .331.332.552.995.885.221 0 .334.11.443.11.551.222.885.442 1.106.775.221.222.332.552.332.995 0 .553-.221.995-.551 1.327-.442.333-.995.443-1.771.443-.554 0-.995-.112-1.328-.334-.442-.222-.665-.551-.886-.884zM8.09 234.524a.84.84 0 0 1 .221-.551c.221-.111.441-.222.665-.222.222 0 .332.11.551.222a.85.85 0 0 1 .223.551.85.85 0 0 1-.223.554c-.221.222-.332.332-.551.332-.223 0-.443-.11-.665-.332a.835.835 0 0 1-.221-.554zm.22 8.188v-5.754h1.325v5.754H8.31zM13.4 243.045l-2.99-6.087h1.438l1.327 2.878c0 .11 0 .222.112.441 0 .222.111.331.111.663.11-.221.11-.332.221-.552 0-.222.11-.332.11-.553l1.328-2.878h1.326l-2.983 6.088zM22.693 240.058h-2.876v-.886h1.55c0-.441-.222-.774-.444-.885-.221-.221-.662-.332-1.106-.332v-1.107c.885 0 1.66.223 2.104.775.551.553.773 1.218.773 2.213l-.001.222zm-2.876 1.659c.442 0 .775-.11.995-.223.334-.22.555-.441.775-.886l1.106.666c-.332.551-.775.995-1.217 1.217-.441.332-.995.441-1.66.441v-1.215zm0-1.659h-1.66c0 .551.221.884.443 1.217.332.333.662.442 1.217.442v1.219c-.884 0-1.66-.334-2.211-.886-.554-.554-.774-1.218-.774-2.213 0-.886.221-1.549.885-2.211.551-.556 1.217-.778 2.101-.778v1.107c-.441 0-.774.112-.995.221a2.158 2.158 0 0 0-.554.996h1.548v.886zM-15.921 257.428h-1.217v-5.642h1.217v.885c.221-.442.554-.666.885-.885.334-.112.664-.223 1.108-.223.441 0 .885.11 1.106.223.332.219.551.441.665.885.332-.442.661-.666.995-.885.332-.112.661-.223 1.106-.223.441 0 .774 0 .995.223.333.109.555.331.665.551.111.112.111.334.221.441v4.647h-1.327v-2.877c0-.775 0-1.328-.222-1.549-.111-.222-.441-.331-.886-.331-.441 0-.885.109-1.106.441-.221.331-.332.884-.332 1.769v2.545h-1.219v-2.877c0-.773-.11-1.218-.332-1.548-.111-.224-.442-.333-.885-.333-.221 0-.442 0-.665.109a1.366 1.366 0 0 0-.553.554c0 .112-.111.223-.111.441 0 .223-.109.554-.109 1.107l.001 2.552zM-.984 254.773H-3.86v-.885h1.548c0-.441-.221-.664-.442-.885-.221-.223-.661-.332-1.106-.332v-1.107c.884 0 1.66.223 2.101.773.554.554.775 1.217.775 2.212v.224zm-2.877 1.659c.442 0 .774 0 .995-.222.334-.223.553-.441.774-.886l1.106.663c-.332.554-.776.998-1.217 1.218-.442.334-.996.442-1.66.442l.002-1.215zm0-1.659h-1.66c.11.552.221.996.554 1.218.221.332.665.441 1.106.441v1.217c-.885 0-1.66-.221-2.213-.772a3.573 3.573 0 0 1-.773-2.213c0-.997.332-1.659.885-2.212.551-.663 1.217-.885 2.102-.885v1.107c-.441 0-.774.109-.995.331s-.442.441-.553.886h1.55l-.003.882zM.676 257.428v-4.537h-.997v-1.104h.997v-2.215h1.329v2.215H3v1.104h-.995v4.537zM4.106 257.428v-9.293h1.219v4.536c.332-.441.661-.663.995-.885.332-.11.774-.223 1.217-.223.444 0 .774 0 1.106.223.334.111.553.332.665.552a.856.856 0 0 1 .221.553c.109.223.109.554.109 1.107v3.43H8.313v-2.876c0-.776-.111-1.328-.221-1.549-.223-.223-.554-.332-.995-.332-.334 0-.554 0-.774.109-.334.11-.442.333-.665.554 0 .11-.11.22-.11.441-.111.221-.111.554-.111 1.106v2.545l-1.331.002zM15.834 254.663c0-.554-.114-.996-.554-1.438-.332-.333-.665-.553-1.217-.553v-1.107c.441 0 .884.112 1.217.223.332.111.663.332.995.663.332.331.553.664.663.997.221.332.332.773.332 1.105 0 .442-.111.885-.332 1.218-.11.333-.334.663-.663.996-.332.332-.665.553-.995.663-.332.111-.776.223-1.217.223v-1.107c.551 0 .884-.222 1.217-.554.442-.444.554-.887.554-1.329zm-1.769-1.992c-.443 0-.885.22-1.219.551-.332.442-.553.886-.553 1.439 0 .441.222.885.553 1.326.334.332.774.553 1.219.553v1.106c-.443 0-.775-.11-1.219-.221-.332-.111-.665-.333-.997-.664-.332-.332-.554-.664-.663-.996-.111-.331-.222-.774-.222-1.217 0-.333.11-.775.222-1.107.109-.441.333-.772.663-.996.333-.333.665-.553.997-.662.442-.112.774-.223 1.219-.223v1.111zM22.693 254.552c0-.554-.11-.998-.441-1.328-.221-.333-.663-.553-1.106-.553v-1.107c.222 0 .551.112.772.223.334.222.554.552.775.885v-4.536h1.219v9.293h-1.219v-.774c-.332.332-.551.664-.884.774-.221.111-.442.221-.663.221v-1.105c.442 0 .774-.221 1.106-.553.33-.334.441-.887.441-1.44zm-1.549-1.881c-.553 0-.885.22-1.219.551a2.465 2.465 0 0 0-.441 1.439c0 .551.221.995.441 1.326.334.332.665.553 1.219.553v1.106h-.334c-.884 0-1.435-.221-1.991-.773-.443-.554-.665-1.327-.665-2.324 0-.885.221-1.658.775-2.212.443-.551.995-.773 1.77-.773h.442l.003 1.107zM311.799 240.942h1.327l-.994-1.991c0-.109-.112-.332-.112-.441-.113-.221-.113-.333-.222-.554V235.3l4.314 9.074h-1.549l-.995-2.213h-1.771l.002-1.219zm-1.218 0h1.218v1.219h-1.66l-1.107 2.212h-1.438l4.205-9.073v2.656c0 .22 0 .332-.112.551 0 .112-.11.335-.11.443l-.996 1.992zM321.092 240.28c-.224-.222-.442-.333-.774-.442-.222-.111-.553-.221-.773-.221-.554 0-.997.221-1.328.551-.332.334-.441.774-.441 1.327 0 .663.11 1.107.441 1.438.334.332.774.442 1.328.442.331 0 .552 0 .885-.11.221-.11.441-.332.663-.553v1.549c-.334.111-.554.222-.774.222-.334.111-.553.111-.885.111-.886 0-1.66-.222-2.212-.775-.552-.664-.887-1.326-.887-2.211 0-.996.335-1.66.887-2.213.663-.664 1.326-.886 2.323-.886.331 0 .552 0 .773.109.332 0 .551.112.774.223v1.439zM322.64 244.373v-4.537h-.995v-1.107h.995v-2.214h1.329v2.214h.996v1.107h-.996v4.537zM325.959 236.185c0-.222.11-.332.334-.554a.856.856 0 0 1 .551-.222c.219 0 .443.112.554.222.11.222.221.334.221.554 0 .332-.11.441-.221.663a.855.855 0 0 1-.554.223.844.844 0 0 1-.551-.223c-.223-.222-.334-.441-.334-.663zm.222 8.188v-5.644h1.325v5.644h-1.325zM331.382 244.704l-2.989-5.973h1.328l1.327 2.877s0 .221.108.333c0 .22.11.441.223.662 0-.221 0-.333.113-.553 0-.109.108-.332.221-.441l1.218-2.878h1.436l-2.985 5.973zM340.565 241.717h-2.877v-.885h1.547c0-.333-.221-.665-.441-.886-.223-.223-.664-.333-1.108-.333v-1.107c.886 0 1.66.223 2.212.778.441.552.663 1.217.663 2.21v.223h.004zm-2.877 1.658c.442 0 .774 0 .997-.221.332-.222.55-.442.773-.885l1.106.663c-.332.553-.773.995-1.218 1.217-.441.333-.997.444-1.659.444v-1.218h.001zm0-1.658h-1.659c.111.553.223.995.552 1.219.222.331.664.441 1.107.441v1.217c-.886 0-1.659-.221-2.211-.773a3.555 3.555 0 0 1-.777-2.212c0-.885.336-1.659.887-2.214.554-.552 1.219-.886 2.104-.886v1.107c-.441 0-.773.109-.996.333-.222.221-.441.442-.551.885h1.547l-.003.883zM305.158 259.088h-1.325v-5.644h1.217v.885c.334-.333.552-.663.884-.885.334-.11.774-.223 1.22-.223.441 0 .774.112 1.105.332.223.112.444.442.665.775.331-.333.55-.663.885-.885.441-.11.774-.223 1.219-.223.334 0 .662.112.996.223.224.109.442.333.661.552 0 .111.113.333.113.443 0 .222.109.441.109.772v3.874h-1.326v-2.876c0-.775-.111-1.328-.22-1.549-.224-.222-.444-.332-.887-.332-.554 0-.883.11-1.108.441-.222.334-.333.996-.333 1.771v2.547h-1.325v-2.878c0-.662-.113-1.217-.225-1.438-.221-.333-.441-.443-.884-.443-.222 0-.552 0-.774.223-.111.11-.333.221-.441.441-.111.111-.111.331-.222.441V259.085h-.004zM320.096 256.432h-2.878v-.884h1.548c-.109-.333-.221-.665-.441-.886a1.864 1.864 0 0 0-1.108-.333v-1.107c.884 0 1.547.223 2.104.774.551.553.774 1.328.774 2.214l.001.222zm-2.876 1.771c.334 0 .663-.112.994-.332.225-.111.553-.442.665-.775l1.106.553c-.223.554-.662.996-1.106 1.328a4.417 4.417 0 0 1-1.659.331v-1.105zm0-1.771h-1.661c0 .554.225.996.443 1.327.331.222.664.442 1.106.442h.111v1.105c-.997 0-1.661-.219-2.211-.772-.553-.554-.774-1.329-.774-2.212 0-.886.222-1.66.774-2.214.55-.552 1.325-.885 2.211-.885v1.108c-.441 0-.774.109-.997.331-.331.221-.441.552-.55.886h1.547v.884zM321.754 259.088v-4.536h-.995v-1.107h.995v-2.212h1.329v2.212h.995v1.107h-.995v4.536zM325.185 259.088v-9.295h1.22v4.536c.222-.333.55-.663.885-.775.332-.22.774-.332 1.325-.332.443 0 .773.112 1.109.223.221.109.441.331.66.552.111.224.225.333.225.553 0 .221.112.554.112 1.107v3.432h-1.33v-2.878c0-.773-.11-1.217-.331-1.549-.112-.222-.442-.332-.996-.332-.225 0-.554.11-.774.223-.222.109-.442.221-.554.441-.109.111-.109.331-.222.553V259.089h-1.329v-.001zM336.914 256.323a1.84 1.84 0 0 0-.553-1.328c-.333-.442-.775-.553-1.218-.553v-1.218c.441 0 .771.11 1.218.223l.995.662c.222.333.553.664.664.996.11.443.222.774.222 1.218 0 .332-.111.775-.222 1.106-.111.441-.333.774-.664.995-.331.334-.663.554-1.105.666-.336.22-.665.22-1.107.22v-1.106c.441 0 .885-.221 1.218-.552.329-.334.552-.778.552-1.329zm-1.77-1.883c-.553 0-.884.112-1.327.554-.331.331-.441.773-.441 1.326 0 .554.111.996.441 1.327.443.334.774.554 1.327.554v1.105c-.444 0-.884 0-1.221-.22-.44-.11-.774-.333-.994-.665-.334-.221-.554-.553-.662-.995a2.107 2.107 0 0 1-.335-1.106c0-.442.11-.885.335-1.217.108-.334.331-.666.662-.997.22-.221.554-.441.994-.664.337-.11.774-.222 1.221-.222v1.22zM343.662 256.21c0-.553-.112-.995-.333-1.327-.333-.331-.664-.441-1.218-.441v-1.218c.333.11.551.11.885.333.333.109.552.441.664.775v-4.536h1.326v9.293h-1.326v-.666c-.224.333-.443.553-.774.666-.224.11-.441.22-.773.22v-1.106c.441 0 .884-.22 1.217-.554.221-.331.332-.775.332-1.439zm-1.547-1.77c-.444 0-.887.112-1.11.442-.331.333-.441.774-.441 1.438 0 .554.111 1.107.441 1.439.224.222.664.441 1.11.441v1.105h-.336c-.774 0-1.438-.22-1.88-.774-.443-.551-.665-1.326-.665-2.212 0-.995.224-1.658.665-2.212s1.105-.886 1.88-.886h.336v1.219zM59.426 334.213v-7.523h-1.771l.555-1.107h2.543v8.63zM64.736 333.548c0-.222 0-.331.223-.553a.85.85 0 0 1 .552-.221c.223 0 .443.11.554.221.11.222.221.334.221.553a.842.842 0 0 1-.221.552c-.111.223-.332.223-.554.223-.221 0-.441 0-.552-.223-.223-.107-.223-.329-.223-.552zM72.039 325.472h1.436v8.741h-1.436zM75.469 334.213v-5.643h1.217v.886c.221-.334.554-.666.884-.775.443-.225.776-.333 1.328-.333.441 0 .774.108 1.106.223.221.11.554.332.665.552s.221.441.221.551c0 .224.11.663.11 1.108v3.428h-1.326v-2.878c0-.772-.112-1.217-.334-1.435-.111-.333-.441-.443-.885-.443-.332 0-.665.11-.885.22-.221.112-.441.225-.554.442-.11.111-.11.333-.221.553v3.541l-1.326.003zM82.882 334.213v-4.537h-.995v-1.105h.995v-1.548c0-.776.111-1.329.442-1.661.331-.332.774-.554 1.437-.554.223 0 .334 0 .444.111h.441v1.218c-.111-.112-.221-.112-.221-.112-.111 0-.221-.107-.333-.107-.334 0-.554.107-.664.329-.222.224-.222.554-.222.998v1.326h1.326v1.107h-1.326v4.537l-1.324-.002zM87.75 328.571v3.207c0 .554.111.997.332 1.218.221.222.553.334 1.106.334.442 0 .885-.112 1.108-.334.221-.221.332-.664.332-1.218v-3.207h1.328v2.766c0 1.105-.223 1.881-.665 2.435-.443.442-1.106.772-2.105.772-.996 0-1.657-.331-2.101-.772-.441-.441-.665-1.329-.665-2.435v-2.766h1.33zM93.06 333.217l.995-.553c.111.221.332.442.441.663.223.111.554.223.885.223.333 0 .554-.111.664-.223a.61.61 0 0 0 .335-.552c0-.334-.335-.554-.995-.773-.114-.112-.335-.112-.444-.223-.554-.221-.995-.443-1.217-.774-.223-.221-.442-.554-.442-.886 0-.551.221-.995.665-1.329.332-.22.884-.44 1.548-.44.441 0 .886.108 1.107.221.332.22.554.443.774.776l-.995.552c0-.11-.111-.333-.335-.442-.11 0-.332-.109-.551-.109-.334 0-.442.109-.665.222-.109.109-.221.222-.221.441 0 .336.332.554.997.776.221.11.441.11.551.221.554.222.886.441 1.109.663.221.335.332.664.332.997 0 .552-.221.995-.665 1.325-.332.334-.885.553-1.661.553-.551 0-.995-.11-1.325-.332-.444-.221-.665-.555-.887-.997zM98.814 326.135c0-.22.112-.443.223-.553.221-.221.332-.333.551-.333.223 0 .442.112.665.333a.861.861 0 0 1 .221.553.85.85 0 0 1-.221.553c-.221.223-.441.223-.665.223-.222 0-.332-.112-.551-.223a.84.84 0 0 1-.223-.553zm.112 8.078v-5.643h1.326v5.643h-1.326zM106.559 331.447c0-.553-.111-.995-.441-1.327-.333-.441-.774-.551-1.219-.551v-1.219c.334 0 .774.108 1.109.221.441.22.774.443 1.106.662.221.336.441.666.665.999.11.442.221.773.221 1.217s-.111.773-.221 1.107c-.223.441-.442.774-.665.996-.332.333-.665.55-1.106.663a2.132 2.132 0 0 1-1.109.333v-1.218c.442 0 .885-.224 1.219-.553.33-.335.441-.777.441-1.33zm-1.66-1.881c-.551 0-.995.11-1.326.553-.332.333-.443.774-.443 1.328s.112.995.443 1.325.774.55 1.326.55v1.22h-.11c-.332 0-.776-.109-1.106-.334-.441-.11-.774-.332-.995-.661-.332-.225-.554-.551-.774-.996-.111-.333-.221-.663-.221-1.108 0-.441.11-.886.221-1.217.221-.332.443-.664.774-.998.221-.22.554-.441.995-.661.332-.113.774-.222 1.106-.222h.11v1.221zM109.325 334.213v-5.643h1.219v.886c.332-.334.665-.666.995-.775.332-.225.774-.333 1.217-.333.444 0 .776.108 1.109.223.332.11.551.332.662.552.112.22.223.441.223.551.109.224.109.663.109 1.108v3.428h-1.328v-2.878c0-.772-.111-1.217-.221-1.435-.221-.333-.554-.443-.997-.443-.333 0-.553.11-.774.22-.332.112-.441.225-.664.442 0 .111-.111.333-.111.553-.11.222-.11.554-.11.996v2.545l-1.329.003zM125.7 334.656l-1.217-2.988c-.111-.221-.221-.443-.334-.664 0-.11-.11-.332-.11-.442-.111.225-.221.442-.221.663-.111.112-.111.336-.221.336l-1.328 3.096-2.988-6.085h1.439l1.217 2.766c.111.11.111.224.221.443 0 .223.111.442.111.662 0-.11 0-.223.11-.441 0-.112.112-.334.223-.554l1.325-3.097h.111l1.439 3.097c.11.222.11.333.221.554v.441c.11-.223.11-.441.221-.552 0-.222.112-.441.112-.551l1.327-2.766h1.328l-2.986 6.082zM129.462 326.135c0-.22 0-.443.221-.553a.61.61 0 0 1 .551-.333.61.61 0 0 1 .554.333c.221.111.221.335.221.553 0 .222 0 .441-.221.553-.111.223-.332.223-.554.223a.837.837 0 0 1-.551-.223c-.221-.11-.221-.331-.221-.553zm.111 8.078v-5.643h1.326v5.643h-1.326zM133.003 334.213v-4.537h-.997v-1.105h.997v-2.104h1.327v2.104h.995v1.105h-.995v4.537zM136.431 334.213v-9.294h1.22v4.537c.332-.332.665-.666.996-.773.332-.225.774-.333 1.217-.333.444 0 .774.108 1.108.221.332.112.551.332.661.554.113.223.223.441.223.552.111.223.111.665.111 1.108v3.429h-1.328v-2.877c0-.775-.11-1.219-.221-1.438-.221-.333-.554-.442-.995-.442-.332 0-.554.112-.774.222-.332.11-.441.224-.665.442 0 .114-.11.333-.11.553-.111.222-.111.551-.111.996v2.545l-1.332-.002zM152.697 333.107v1.106h-5.975l3.32-3.872c.442-.553.774-.885.885-1.327.221-.333.332-.664.332-.999 0-.442-.109-.773-.441-.992-.221-.335-.554-.444-.995-.444-.442 0-.774.112-.995.444-.334.219-.444.548-.444.992h-1.437c0-.773.332-1.437.885-1.88.441-.553 1.217-.773 2.102-.773.774 0 1.438.221 1.991.663.443.441.774.998.774 1.771 0 .553-.221 1.107-.441 1.661-.334.549-.885 1.325-1.77 2.32l-1.219 1.325h3.427v.005zM160.773 330.007c0 1.439-.221 2.547-.774 3.32-.551.774-1.326 1.218-2.322 1.218v-1.326c.551 0 .996-.222 1.217-.775.334-.552.443-1.438.443-2.544 0-1.109-.11-1.883-.333-2.434-.332-.554-.774-.887-1.326-.887v-1.218c.997 0 1.771.441 2.322 1.218.553.776.773 1.992.773 3.428zm-3.097 4.536c-.996 0-1.771-.441-2.324-1.217-.551-.775-.885-1.992-.885-3.429 0-1.44.334-2.546.885-3.32.554-.774 1.328-1.219 2.324-1.219v1.219c-.553 0-.996.333-1.328.887-.332.551-.441 1.437-.441 2.434 0 1.105.111 1.991.441 2.544.334.554.774.775 1.328.775v1.326zM167.191 328.571v3.207c0 .554.111.997.333 1.218.332.222.663.334 1.106.334s.773-.112 1.108-.334c.221-.221.331-.664.331-1.218v-3.207h1.219v2.766c0 1.105-.223 1.881-.553 2.435-.442.442-1.218.772-2.104.772s-1.659-.331-1.994-.772c-.439-.441-.663-1.329-.663-2.435v-2.766h1.217zM173.054 334.213v-5.643h1.219v.886c.332-.334.551-.666.997-.775.33-.225.773-.333 1.217-.333s.772.108 1.108.223c.331.11.551.332.661.552.11.221.224.441.224.551.111.224.111.663.111 1.108v3.428h-1.329v-2.878c0-.772-.11-1.217-.221-1.435-.222-.333-.553-.443-.995-.443-.335 0-.554.11-.886.22-.221.112-.335.225-.553.442 0 .111-.11.333-.11.553-.112.222-.112.554-.112.996v2.545l-1.331.003zM180.245 326.135c0-.22 0-.443.221-.553a.612.612 0 0 1 .552-.333c.225 0 .442.112.554.333.221.111.221.335.221.553 0 .222 0 .441-.221.553-.111.223-.332.223-.554.223a.842.842 0 0 1-.552-.223c-.221-.11-.221-.331-.221-.553zm.112 8.078v-5.643h1.325v5.643h-1.325zM183.897 334.213v-4.537h-.995v-1.105h.995v-2.104h1.219v2.104h.994v1.105h-.994v4.537zM186.664 333.217l.995-.553c.111.221.221.442.443.663.222.111.55.223.885.223.221 0 .55-.111.661-.223.225-.11.225-.332.225-.552 0-.334-.225-.554-.886-.773-.223-.112-.335-.112-.442-.223-.554-.221-.995-.443-1.217-.774-.337-.221-.443-.554-.443-.886 0-.551.22-.995.665-1.329.33-.22.884-.44 1.549-.44.441 0 .774.108 1.105.221.332.22.554.443.664.776l-.885.552c-.11-.11-.222-.333-.335-.442-.222 0-.332-.109-.55-.109-.334 0-.554.109-.665.222-.109.109-.223.222-.223.441 0 .336.334.554.997.776.221.11.441.11.552.221.442.222.884.441 1.108.663.221.335.332.664.332.997 0 .552-.222.995-.664 1.325-.332.334-.996.553-1.657.553-.553 0-.999-.11-1.44-.332-.334-.221-.663-.555-.774-.997zM200.715 331.447c0-.553-.221-.995-.554-1.327-.332-.441-.772-.551-1.216-.551v-1.219c.442 0 .774.108 1.216.221.335.22.663.443.998.662.332.336.551.666.661.999.111.442.224.773.224 1.217s-.112.773-.224 1.107c-.11.441-.331.774-.661.996-.335.333-.663.55-.998.663-.441.223-.772.333-1.216.333v-1.218c.442 0 .884-.224 1.216-.553a1.84 1.84 0 0 0 .554-1.33zm-1.769-1.881c-.555 0-.886.11-1.219.553-.442.333-.552.774-.552 1.328s.109.995.552 1.325c.333.333.661.55 1.219.55v1.22c-.444 0-.886-.109-1.219-.334-.334-.11-.774-.332-.997-.661-.333-.225-.551-.551-.662-.996a1.854 1.854 0 0 1-.334-1.108c0-.441.11-.886.334-1.217.111-.332.332-.664.662-.998.223-.22.553-.441.997-.661a3.902 3.902 0 0 1 1.219-.222v1.221zM203.59 334.213v-4.537h-.995v-1.105h.995v-1.548c0-.776.226-1.329.442-1.661.332-.332.885-.554 1.549-.554.109 0 .224 0 .441.111h.442v1.218c-.114-.112-.223-.112-.334-.112-.11 0-.223-.107-.331-.107-.337 0-.554.107-.666.329a2.26 2.26 0 0 0-.222.998v1.326h1.327v1.107h-1.327v4.537l-1.321-.002zM215.431 331.447c0-.553-.221-.995-.554-1.327-.332-.441-.774-.551-1.217-.551v-1.219c.441 0 .774.108 1.217.221.335.22.663.443.995.662l.664.999c.111.442.222.773.222 1.217s-.11.773-.222 1.107c-.109.441-.441.774-.664.996-.332.333-.66.55-1.106.663a2.116 2.116 0 0 1-1.105.333v-1.218c.441 0 .885-.224 1.217-.553.332-.335.553-.777.553-1.33zm-1.771-1.881c-.554 0-.885.11-1.328.553-.332.333-.441.774-.441 1.328s.109.995.441 1.325c.443.333.774.55 1.328.55v1.22c-.443 0-.885-.109-1.22-.334-.441-.11-.771-.332-.996-.661-.332-.225-.55-.551-.774-.996-.11-.333-.221-.663-.221-1.108 0-.441.11-.886.334-1.217.111-.332.332-.664.661-.998.225-.22.554-.441.996-.661a3.925 3.925 0 0 1 1.22-.222v1.221zM218.527 334.213h-1.437l2.104-2.989-1.771-2.653h1.438l.774 1.218c.11.11.11.219.221.331.111.112.111.222.223.332 0-.11 0-.22.109-.332.111-.112.111-.221.225-.331l.771-1.218h1.438l-1.769 2.653 2.101 2.989h-1.436l-1.105-1.438v-.111c-.225-.223-.334-.552-.443-.662 0 .11-.11.332-.222.442 0 .111-.109.223-.222.333l-.999 1.436zM224.723 336.979h-1.326l1.549-3.208-2.104-5.2h1.438l.995 2.99c.111.109.111.332.222.552 0 .109 0 .332.111.552 0-.223.114-.552.334-.996v-.109l1.44-2.988h1.436l-4.095 8.407zM229.814 334.213v-4.537h-.995v-1.105h.995v-2.104h1.328v2.104h.995v1.105h-.995v4.537zM237.667 331.447c0-.553-.11-.995-.441-1.327-.334-.441-.773-.551-1.326-.551v-1.219c.442 0 .884.108 1.218.221.441.22.774.443.997.662.331.336.551.666.773.999.111.442.221.773.221 1.217s-.109.773-.221 1.107c-.223.441-.442.774-.663.996-.333.333-.664.55-1.107.663-.334.223-.774.333-1.218.333v-1.218c.553 0 .995-.224 1.326-.553.332-.335.441-.777.441-1.33zm-1.768-1.881c-.441 0-.887.11-1.218.553-.335.333-.553.774-.553 1.328s.221.995.553 1.325c.331.333.774.55 1.218.55v1.22c-.333 0-.775-.109-1.107-.334-.442-.11-.774-.332-1.106-.661-.223-.225-.442-.551-.663-.996-.111-.333-.222-.663-.222-1.108 0-.441.11-.886.222-1.217l.663-.998c.332-.22.661-.441.996-.661.442-.113.774-.222 1.218-.222v1.221h-.001zM244.747 330.23c-.221-.224-.441-.441-.774-.554-.221-.11-.55-.11-.884-.11-.441 0-.885.11-1.217.443-.333.335-.441.776-.441 1.438 0 .554.109.995.441 1.328a1.83 1.83 0 0 0 1.326.552c.332 0 .552-.109.887-.222.221-.109.441-.333.66-.553v1.548c-.331.112-.55.223-.774.334-.33 0-.55.109-.884.109-.886 0-1.657-.331-2.211-.885-.554-.552-.886-1.327-.886-2.212 0-.886.332-1.657.886-2.212.663-.549 1.325-.883 2.322-.883.332 0 .552.109.772.109.335.112.554.112.774.225l.003 1.545zM245.966 326.135c0-.22 0-.443.222-.553a.613.613 0 0 1 .554-.333c.221 0 .441.112.553.333.222.111.222.335.222.553 0 .222 0 .441-.222.553-.114.223-.335.223-.553.223a.848.848 0 0 1-.554-.223c-.222-.11-.222-.331-.222-.553zm.113 8.078v-5.643h1.325v5.643h-1.325zM249.287 334.213v-5.643h1.217v.886c.221-.334.553-.666.885-.775.331-.225.774-.333 1.327-.333.441 0 .772.108 1.106.223.222.11.441.332.665.552.109.221.109.441.221.551v4.536h-1.22v-2.878c0-.772-.11-1.217-.332-1.435-.222-.333-.554-.443-.996-.443-.221 0-.553.11-.774.22-.221.112-.442.225-.553.442a.852.852 0 0 0-.222.553v3.541l-1.324.003zM62.413 347.823v1.219h-5.975l3.319-3.985c.441-.442.665-.884.885-1.325.221-.332.332-.663.332-.995 0-.442-.221-.775-.441-.995-.223-.225-.553-.335-.995-.335-.443 0-.774.11-.998.335-.332.22-.441.55-.441.995h-1.438c0-.775.334-1.438.774-1.88a3.564 3.564 0 0 1 2.213-.776c.775 0 1.437.223 1.991.664.441.441.664 1.106.664 1.771 0 .551-.11 1.107-.334 1.658-.332.553-.885 1.326-1.88 2.434l-1.106 1.22h3.43v-.005zM64.736 348.375c0-.22 0-.441.223-.552a.608.608 0 0 1 .552-.334c.223 0 .443.111.554.334.11.11.221.335.221.552 0 .225-.111.334-.221.554a.84.84 0 0 1-.554.221.831.831 0 0 1-.552-.221c-.223-.221-.223-.333-.223-.554zM72.039 349.041v-8.854h4.98v1.217h-3.542v2.213h3.542v1.217h-3.542v2.875h3.542v1.332zM78.457 349.041v-5.755h1.219v.996c.332-.441.662-.663.995-.885.332-.222.774-.333 1.217-.333.444 0 .774.111 1.106.222.334.111.553.333.774.663 0 .111.11.333.11.553.112.112.112.551.112.995v3.544h-1.327v-2.99c0-.773-.11-1.219-.221-1.437-.222-.222-.554-.442-.995-.442-.334 0-.554.11-.774.221-.334.112-.442.222-.554.442a.846.846 0 0 0-.221.553c-.111.222-.111.551-.111.995v2.658h-1.33zM85.094 347.93l1.107-.55c0 .333.221.55.442.662.221.113.441.225.772.225.334 0 .554-.111.665-.225a.613.613 0 0 0 .334-.552c0-.333-.334-.551-.885-.774-.223-.11-.442-.11-.554-.221-.553-.224-.995-.443-1.217-.774-.224-.225-.334-.552-.334-.886 0-.551.11-.996.554-1.219.441-.332.885-.552 1.547-.552.442 0 .886.111 1.218.334.221.11.441.332.665.662l-.995.664c0-.224-.112-.333-.334-.443a.848.848 0 0 0-.551-.222c-.223 0-.443.112-.664.222-.111.11-.221.223-.221.443 0 .332.332.552.995.771.221.113.441.225.551.225.554.222.885.441 1.108.661.221.334.332.665.332.998 0 .55-.221.995-.554 1.328-.441.333-.995.55-1.771.55-.551 0-.995-.11-1.325-.33-.442-.219-.663-.552-.885-.997zM92.177 343.285v3.208c0 .555.109.995.441 1.217.223.221.553.333 1.108.333.441 0 .885-.112 1.106-.333.221-.222.332-.662.332-1.217v-3.208h1.219v2.878c0 1.104-.111 1.88-.553 2.321-.441.554-1.217.774-2.103.774-.995 0-1.66-.221-2.104-.774-.441-.441-.664-1.217-.664-2.321v-2.878h1.218zM99.478 344.169c.11-.334.334-.553.554-.772.221-.224.551-.334.885-.334.221 0 .332.11.553.11.11 0 .332.111.551.224l-.551 1.104c-.113-.109-.223-.222-.334-.222h-.441c-.442 0-.775.112-.885.442-.223.332-.334.996-.334 1.771v2.545H98.15v-5.753h1.326v.885h.002zM108.219 346.382h-2.876v-.886h1.55c-.11-.442-.225-.773-.554-.995-.222-.222-.554-.333-.996-.333v-1.107c.884 0 1.55.336 2.102.886.442.442.775 1.218.775 2.104l-.001.331zm-2.876 1.66c.332 0 .665-.112.996-.22.221-.226.442-.556.665-.888l1.106.552c-.332.663-.665.996-1.106 1.326a3.12 3.12 0 0 1-1.661.443v-1.213zm0-1.66h-1.66c0 .441.109.885.442 1.218.332.333.662.442 1.106.442h.111v1.217h-.111c-.884 0-1.548-.331-2.104-.885-.551-.552-.885-1.327-.885-2.212 0-.886.334-1.658.885-2.211a3.04 3.04 0 0 1 2.104-.886h.111v1.108c-.443 0-.774.11-1.106.332a2.136 2.136 0 0 0-.553.995h1.66v.882zM113.53 349.041v-4.54h-.997v-1.216h.997v-2.103h1.327v2.103h.995v1.216h-.995v4.54zM116.96 349.041v-9.295h1.219v4.536c.332-.441.551-.663.995-.885.332-.222.774-.333 1.217-.333.444 0 .774.111 1.106.222a1 1 0 0 1 .665.663.846.846 0 0 1 .221.553c.112.112.112.551.112.995v3.544h-1.328v-2.99c0-.773-.11-1.219-.221-1.437-.221-.222-.554-.442-.995-.442-.334 0-.554.11-.885.221-.223.112-.334.222-.554.442 0 .111-.11.333-.11.553-.111.222-.111.551-.111.995v2.658h-1.331zM129.573 349.041h-1.328v-.774c-.222.333-.441.55-.774.774-.222.108-.441.108-.775.219v-1.217c.553 0 .884-.112 1.219-.554.221-.331.441-.774.441-1.326 0-.664-.221-1.107-.441-1.437-.335-.334-.665-.441-1.219-.441v-1.107c.334 0 .665.111.884.225.335.22.555.441.665.883v-.996h1.328v5.751zm-2.877.218h-.332c-.774 0-1.438-.331-1.88-.885-.442-.552-.665-1.217-.665-2.212 0-.886.221-1.658.665-2.211a2.372 2.372 0 0 1 1.88-.886c.111 0 .221.111.332.111v1.107c-.441 0-.885.112-1.106.441-.332.441-.442.885-.442 1.437 0 .663.111 1.108.442 1.438.221.333.665.442 1.106.442v1.218zM131.674 349.041v-4.54h-.995v-1.216h.995v-2.103h1.329v2.103h.995v1.216h-.995v4.54zM140.085 343.285v3.208c0 .555.109.995.332 1.217.221.221.554.333 1.106.333.554 0 .885-.112 1.108-.333.221-.222.332-.662.332-1.217v-3.208h1.328v2.878c0 1.104-.223 1.88-.664 2.321-.442.554-1.108.774-2.104.774s-1.66-.221-2.102-.774c-.443-.441-.665-1.217-.665-2.321v-2.878h1.329zM146.39 349.041v-4.54h-.995v-1.216h.995v-2.103h1.216v2.103h.996v1.216h-.996v4.54zM155.24 346.382h-2.875v-.886h1.546c-.111-.442-.221-.773-.441-.995a1.867 1.867 0 0 0-1.106-.333v-1.107c.884 0 1.546.336 2.101.886.554.442.774 1.218.774 2.104l.001.331zm-2.875 1.66c.332 0 .661-.112.995-.22.221-.226.551-.556.774-.888l.995.552c-.221.663-.665.996-1.106 1.326a3.119 3.119 0 0 1-1.66.443l.002-1.213zm0-1.66h-1.66c0 .441.221.885.441 1.218.334.333.664.442 1.109.442h.111v1.217c-.996 0-1.66-.331-2.213-.885-.551-.552-.774-1.327-.774-2.212 0-.886.223-1.658.774-2.211.554-.55 1.328-.886 2.213-.886v1.108c-.443 0-.775.11-.996.332-.334.222-.443.554-.554.995h1.55v.881h-.001zM157.896 344.169c.111-.334.333-.553.555-.772.221-.224.551-.334.884-.334.111 0 .333.11.553.11.109 0 .334.111.442.224l-.442 1.104c-.111-.109-.221-.222-.333-.222h-.443c-.441 0-.772.112-.884.442-.222.332-.333.996-.333 1.771v2.545h-1.326v-5.753h1.326l.001.885zM162.433 343.285v3.208c0 .555.111.995.334 1.217.221.221.551.333 1.106.333.441 0 .885-.112 1.106-.333.221-.222.334-.662.334-1.217v-3.208h1.325v2.878c0 1.104-.219 1.88-.663 2.321-.44.554-1.216.774-2.101.774-.995 0-1.66-.221-2.104-.774-.441-.441-.661-1.217-.661-2.321v-2.878h1.324zM167.743 347.93l.885-.55c.11.333.224.55.443.662.219.113.55.225.884.225.333 0 .551-.111.664-.225.221-.112.221-.333.221-.552 0-.333-.221-.551-.885-.774-.11-.11-.334-.11-.442-.221-.552-.224-.886-.443-1.107-.774-.332-.225-.441-.552-.441-.886 0-.551.222-.996.662-1.219.223-.332.774-.552 1.438-.552.441 0 .774.111 1.105.334.336.11.554.332.665.662l-.886.664c0-.224-.222-.333-.331-.443-.224-.11-.334-.222-.554-.222-.332 0-.442.112-.663.222-.111.11-.223.223-.223.443 0 .332.333.552.997.771.222.113.442.225.552.225.441.222.886.441 1.107.661.222.334.332.665.332.998 0 .55-.223.995-.661 1.328-.336.333-.999.55-1.66.55-.553 0-.996-.11-1.327-.33s-.664-.552-.775-.997zM177.037 340.851a.61.61 0 0 1 .333-.554c.109-.22.334-.22.553-.22.222 0 .441 0 .554.22.11.113.221.334.221.554 0 .222-.11.442-.221.552-.114.224-.335.224-.554.224-.22 0-.443 0-.553-.224a.606.606 0 0 1-.333-.552zm.221 8.19v-5.755h1.329v5.755h-1.329zM179.803 347.93l.996-.55c.111.333.224.55.443.662.219.113.55.225.885.225.332 0 .55-.111.663-.225.221-.112.221-.333.221-.552 0-.333-.221-.551-.884-.774-.111-.11-.335-.11-.442-.221-.552-.224-.996-.443-1.219-.774-.33-.225-.442-.552-.442-.886 0-.551.224-.996.663-1.219.335-.332.886-.552 1.549-.552.441 0 .774.111 1.107.334a.99.99 0 0 1 .663.662l-.885.664c0-.224-.221-.333-.332-.443-.225-.11-.334-.222-.554-.222-.334 0-.442.112-.663.222-.111.11-.221.223-.221.443 0 .332.332.552.995.771.221.113.442.225.554.225.441.222.884.441 1.105.661.224.334.332.665.332.998 0 .55-.22.995-.661 1.328-.334.333-.998.55-1.659.55-.554 0-.998-.11-1.438-.33-.334-.219-.665-.552-.776-.997zM194.85 349.371l-1.326-2.988c-.109-.223-.221-.443-.333-.664 0-.11-.11-.331-.11-.441-.111.22-.223.441-.223.661-.109.112-.109.334-.221.441l-1.327 2.99-2.986-6.086h1.435l1.327 2.767c0 .112 0 .332.112.441 0 .221.109.441.109.661 0-.107 0-.22.111-.441 0-.11.11-.332.223-.552l1.326-3.097h.11l1.438 3.097c.111.22.111.333.223.552 0 .11 0 .334.109.441 0-.22 0-.332.111-.55 0-.224.113-.336.224-.553l1.216-2.767h1.328l-2.876 6.088zM204.034 346.382h-2.877v-.886h1.546c0-.442-.222-.773-.441-.995a1.868 1.868 0 0 0-1.107-.333v-1.107c.885 0 1.659.336 2.103.886.557.442.775 1.218.775 2.104v.332h.001zm-2.877 1.66c.441 0 .771-.112.996-.22.33-.226.55-.556.774-.888l1.106.552c-.335.663-.776.996-1.22 1.326-.441.333-.996.443-1.657.443v-1.213zm0-1.66h-1.66c0 .441.223.885.441 1.218.335.333.664.442 1.22.442v1.217c-.885 0-1.659-.331-2.212-.885-.555-.552-.775-1.327-.775-2.212 0-.886.221-1.658.775-2.211.553-.55 1.327-.886 2.212-.886v1.108c-.442 0-.774.11-.998.332-.332.222-.442.554-.552.995h1.55l-.001.882zM205.47 339.745h1.33v9.293h-1.33zM208.681 339.745h1.328v9.293h-1.328zM219.856 344.944c-.221-.222-.442-.442-.774-.552-.221-.112-.554-.112-.775-.112-.55 0-.995.112-1.325.442-.334.442-.443.886-.443 1.438s.111.995.443 1.326c.331.335.774.552 1.325.552.335 0 .665-.112.887-.22.221-.113.442-.224.663-.442v1.436c-.333.112-.554.225-.774.334-.333 0-.554.111-.885.111-.886 0-1.66-.333-2.211-.886-.554-.55-.889-1.325-.889-2.211 0-.885.335-1.658.889-2.212.661-.551 1.325-.885 2.319-.885.335 0 .555.11.775.11.332.111.554.224.774.333l.001 1.438zM225.608 346.163c0-.553-.111-.998-.441-1.327-.442-.334-.774-.551-1.328-.551v-1.22c.443 0 .886.111 1.22.222.332.223.774.441.995.774.333.224.556.553.664.995.221.336.332.665.332 1.108s-.111.775-.332 1.219c-.108.333-.334.662-.664.995-.221.223-.663.442-.995.665-.334.109-.774.22-1.22.22v-1.218c.554 0 .886-.11 1.22-.553.437-.334.549-.779.549-1.329zm-1.771-1.883c-.441 0-.885.222-1.217.554-.332.331-.553.774-.553 1.326s.224.995.553 1.326c.332.442.774.552 1.217.552v1.219c-.441 0-.771-.111-1.217-.221-.332-.225-.665-.441-.995-.665-.222-.333-.554-.663-.665-.996-.109-.441-.221-.773-.221-1.217s.111-.775.221-1.219c.111-.333.443-.664.665-.996.33-.222.663-.441.995-.663.442-.111.774-.222 1.217-.222v1.222zM228.376 349.041v-5.755h1.217v.996c.222-.441.552-.663.885-.885.443-.222.774-.333 1.328-.333.441 0 .771.111 1.106.222.221.111.551.333.663.663a.847.847 0 0 1 .222.553c0 .112.111.551.111.995v3.544h-1.329v-2.99c0-.773-.11-1.219-.331-1.437-.111-.222-.441-.442-.885-.442-.333 0-.665.11-.886.221-.221.112-.441.222-.554.442-.109.111-.109.333-.223.553v3.653h-1.324zM235.899 349.041v-4.54h-.995v-1.216h.995v-2.103h1.327v2.103h.997v1.216h-.997v4.54zM240.656 344.169c.109-.334.332-.553.551-.772.224-.224.443-.334.885-.334.11 0 .334.11.442.11.221 0 .441.111.551.224l-.441 1.104c-.11-.109-.222-.222-.333-.222h-.442c-.441 0-.775.112-.996.442-.111.332-.221.996-.221 1.771v2.545h-1.328v-5.753h1.328v.885h.004zM249.175 349.041h-1.217v-.774c-.332.333-.555.55-.887.774-.219.108-.441.108-.664.219v-1.217c.445 0 .774-.112 1.109-.554.332-.331.441-.774.441-1.326 0-.664-.112-1.107-.441-1.437-.222-.334-.662-.441-1.109-.441v-1.107c.225 0 .554.111.774.225.335.22.556.441.776.883v-.996h1.217v5.751h.001zm-2.768.218h-.329c-.887 0-1.44-.331-1.993-.885-.442-.552-.664-1.217-.664-2.212 0-.886.222-1.658.774-2.211.441-.55.996-.886 1.769-.886.114 0 .333.111.442.111v1.107c-.551 0-.885.112-1.216.441-.223.441-.444.885-.444 1.437 0 .663.225 1.108.444 1.438.331.333.663.442 1.216.442l.001 1.218zM255.26 344.944c-.221-.222-.441-.442-.662-.552-.333-.112-.553-.112-.885-.112-.553 0-.995.112-1.327.442-.332.442-.441.886-.441 1.438s.111.995.441 1.326c.334.335.774.552 1.327.552.332 0 .662-.112.885-.22.222-.113.441-.224.662-.442v1.436c-.221.112-.441.225-.771.334-.224 0-.554.111-.886.111-.885 0-1.549-.333-2.213-.886-.553-.55-.774-1.325-.774-2.211 0-.885.222-1.658.885-2.212.554-.551 1.328-.885 2.213-.885.332 0 .552.11.885.11.222.111.441.224.662.333v1.438zM256.92 349.041v-4.54h-.995v-1.216h.995v-2.103h1.329v2.103h.995v1.216h-.995v4.54zM265.77 346.382h-2.876v-.886h1.549c0-.442-.221-.773-.443-.995a1.853 1.853 0 0 0-1.105-.333v-1.107c.885 0 1.659.336 2.104.886.55.442.771 1.218.771 2.104v.331zm-2.875 1.66c.442 0 .774-.112.996-.22.334-.226.553-.556.774-.888l1.106.552c-.332.663-.772.996-1.217 1.326-.441.332-.995.443-1.66.443v-1.213zm0-1.66h-1.659c0 .441.224.885.442 1.218.332.333.664.442 1.217.442v1.217c-.885 0-1.659-.331-2.211-.885-.554-.552-.774-1.327-.774-2.212 0-.886.221-1.658.885-2.211.551-.55 1.217-.886 2.102-.886v1.108c-.441 0-.774.11-.995.332a2.154 2.154 0 0 0-.553.995h1.548l-.002.882zM271.192 346.163c0-.666-.111-1.108-.334-1.438-.329-.333-.662-.443-1.215-.443v-1.106c.329 0 .55.11.886.222.329.222.55.442.661.885v-4.536h1.326v9.295h-1.326v-.774c-.223.333-.443.55-.774.774-.223.108-.443.108-.772.219v-1.217c.44 0 .886-.112 1.215-.442.224-.444.333-.889.333-1.439zm-1.546-1.883c-.445 0-.888.112-1.108.442-.334.442-.443.886-.443 1.438 0 .662.109 1.107.443 1.437.221.334.661.441 1.108.441v1.219h-.337a2.37 2.37 0 0 1-1.88-.886c-.441-.55-.662-1.218-.662-2.211 0-.885.222-1.658.662-2.212a2.37 2.37 0 0 1 1.88-.885c.113 0 .226.11.337.11v1.107zM56.771 361.43h1.328c0 .443.221.774.441.997.334.222.665.331 1.108.331.551 0 .996-.109 1.217-.331.332-.332.443-.664.443-1.218 0-.442-.112-.885-.443-1.106-.221-.335-.665-.443-1.325-.443h-.223v-1.108h.223c.551 0 .885-.109 1.217-.333.221-.221.332-.552.332-.995 0-.335-.11-.662-.332-.885-.221-.222-.554-.333-.885-.333a1.85 1.85 0 0 0-1.106.333c-.223.223-.334.442-.334.885h-1.325c.11-.775.332-1.325.774-1.771.441-.442 1.106-.552 1.991-.552.775 0 1.439.222 1.88.552.442.443.665.995.665 1.771 0 .551-.111.995-.334 1.326-.332.333-.663.552-1.106.552.554.111.995.443 1.22.774.332.441.441.886.441 1.549 0 .773-.221 1.439-.774 1.882-.551.442-1.326.662-2.211.662-.884 0-1.548-.22-2.104-.662-.447-.549-.778-1.102-.778-1.877zM64.736 363.09c0-.222 0-.441.223-.553.111-.222.333-.222.552-.222.223 0 .443 0 .554.222.11.111.221.333.221.553 0 .222-.111.332-.221.554a.854.854 0 0 1-.554.22.846.846 0 0 1-.552-.22c-.223-.224-.223-.333-.223-.554zM79.12 357.117c-.443-.333-.774-.665-1.328-.774a2.914 2.914 0 0 0-1.326-.332c-.995 0-1.769.332-2.434.995-.554.554-.886 1.438-.886 2.321 0 .998.333 1.771.886 2.435.665.552 1.328.885 2.213.885.551 0 .995-.11 1.546-.333.442-.113.885-.442 1.328-.773v1.659c-.443.221-.774.442-1.217.553-.554.109-.998.222-1.55.222-.664 0-1.219-.112-1.88-.334-.555-.222-.999-.552-1.439-.995-.442-.444-.775-.886-.995-1.439-.221-.551-.334-1.217-.334-1.88s.113-1.218.334-1.771c.221-.552.551-1.107.995-1.549.441-.441.884-.662 1.549-.885a4.55 4.55 0 0 1 1.771-.332c.551 0 .995 0 1.437.222.554.11.998.333 1.439.663l-.109 1.442zM85.206 360.878c0-.441-.111-.998-.444-1.327-.331-.334-.774-.554-1.217-.554v-1.105c.332 0 .774 0 1.107.221.443.112.774.334 1.108.664.221.221.441.55.662.995.11.333.223.774.223 1.108 0 .441-.113.886-.223 1.217l-.662.997a9.908 9.908 0 0 1-1.108.664c-.333.11-.775.221-1.107.221v-1.218c.441 0 .885-.11 1.217-.553.332-.334.444-.778.444-1.33zm-1.661-1.882c-.553 0-.995.222-1.328.554-.332.331-.441.885-.441 1.326 0 .552.11.995.441 1.324.334.443.775.554 1.328.554v1.217h-.111c-.334 0-.774-.111-1.106-.222-.442-.222-.774-.441-.998-.663-.332-.332-.551-.662-.772-.995-.113-.441-.223-.775-.223-1.217 0-.444.11-.775.223-1.108.221-.443.441-.774.772-.996.223-.332.554-.553.998-.664.332-.222.772-.222 1.106-.222h.111v1.112zM87.972 363.753v-5.752h1.217v.995c.334-.442.665-.662.998-.885.332-.221.773-.221 1.217-.221.443 0 .776 0 1.106.11.334.221.554.333.665.662.11.112.221.333.221.554.109.222.109.551.109 1.107v3.429H92.18v-2.988c0-.662-.111-1.219-.221-1.438-.223-.219-.554-.332-.997-.332-.333 0-.552 0-.774.113-.334.109-.442.331-.663.441 0 .221-.111.331-.111.551-.11.222-.11.553-.11.998v2.655h-1.332v.001zM95.495 363.753v-4.536h-.996V358h.996v-2.102h1.328V358h.996v1.217h-.996v4.536zM100.253 358.996c.109-.441.332-.663.553-.886.221-.221.551-.221.885-.221h.551c.114.111.334.111.554.221l-.554 1.107c-.109-.109-.221-.109-.332-.222h-.443c-.441 0-.773.112-.886.554-.221.331-.332.885-.332 1.658v2.546h-1.326V358h1.326v.995h.004zM107.998 360.878c0-.441-.221-.998-.554-1.327-.332-.334-.775-.554-1.217-.554v-1.105c.441 0 .775 0 1.217.221.334.112.665.334.996.664.334.221.554.55.664.995.111.333.221.774.221 1.108 0 .441-.11.886-.221 1.217-.11.333-.332.664-.664.997l-.996.664c-.441.11-.775.221-1.217.221v-1.218c.441 0 .885-.11 1.217-.553.334-.334.554-.778.554-1.33zm-1.772-1.882c-.554 0-.884.222-1.217.554-.443.331-.554.885-.554 1.326 0 .552.111.995.554 1.324.332.443.662.554 1.217.554v1.217c-.442 0-.884-.111-1.217-.222-.334-.222-.774-.441-.998-.663-.332-.332-.551-.662-.661-.995-.223-.441-.334-.775-.334-1.217 0-.444.111-.775.334-1.108.11-.443.332-.774.661-.996.223-.332.554-.553.998-.664.332-.222.773-.222 1.217-.222v1.112zM110.764 354.46h1.328v9.293h-1.328zM113.972 354.46h1.326v9.293h-1.326zM122.603 361.098h-2.879v-.886h1.549c0-.442-.221-.773-.441-.886-.223-.219-.665-.332-1.108-.332v-1.106c.885 0 1.66.221 2.104.773.551.442.774 1.218.774 2.212v.225h.001zm-2.878 1.66c.442 0 .774-.112.998-.222.332-.222.551-.441.771-.886l1.109.664c-.334.554-.774.996-1.22 1.217-.441.332-.995.442-1.66.442l.002-1.215zm0-1.66h-1.66c.113.552.223.885.554 1.218.221.333.663.442 1.106.442v1.217c-.885 0-1.66-.331-2.211-.885-.554-.552-.774-1.217-.774-2.212 0-.886.332-1.549.884-2.211.555-.554 1.217-.774 2.102-.774V359a2.22 2.22 0 0 0-.995.223 2.128 2.128 0 0 0-.551.995h1.546l-.001.88zM128.134 360.878c0-.554-.221-.998-.442-1.327-.332-.334-.662-.554-1.217-.554v-1.105c.332 0 .665.11.885.221.332.225.553.551.663.885v-4.536h1.327v9.292h-1.327v-.775a2.543 2.543 0 0 1-.774.775c-.221.11-.442.11-.774.224v-1.219c.553 0 .885-.112 1.219-.441.219-.444.44-.888.44-1.44zm-1.659-1.882c-.441 0-.774.222-1.106.554-.334.331-.443.772-.443 1.326 0 .662.111 1.107.443 1.437.221.334.665.441 1.106.441v1.217h-.332c-.774 0-1.438-.331-1.88-.885-.442-.441-.665-1.217-.665-2.21 0-.885.221-1.658.665-2.212.551-.554 1.106-.774 1.88-.774h.332v1.106zM139.088 359.662c-.223-.223-.442-.335-.665-.441-.224-.225-.554-.225-.885-.225-.554 0-.995.112-1.219.554a1.823 1.823 0 0 0-.551 1.326c0 .552.221 1.105.551 1.437.334.332.775.441 1.328.441.332 0 .551 0 .776-.109.33-.222.551-.333.665-.554v1.438c-.223.11-.443.223-.774.332-.223.112-.555.112-.885.112-.885 0-1.549-.334-2.105-.886-.551-.552-.884-1.326-.884-2.212 0-.885.334-1.66.884-2.212.554-.554 1.328-.774 2.324-.774h.776l.665.333-.001 1.44zM144.951 360.878c0-.441-.221-.998-.551-1.327-.334-.334-.774-.554-1.22-.554v-1.105c.443 0 .774 0 1.22.221.332.112.662.334.995.664.332.221.551.55.663.995.112.333.223.774.223 1.108 0 .441-.111.886-.223 1.217-.111.333-.332.664-.663.997-.334.222-.665.442-.995.664-.443.11-.774.221-1.22.221v-1.218c.443 0 .884-.11 1.22-.553a1.85 1.85 0 0 0 .551-1.33zm-1.769-1.882c-.551 0-.885.222-1.217.554-.442.331-.553.885-.553 1.326 0 .552.111.995.553 1.324.332.443.665.554 1.217.554v1.217c-.441 0-.885-.111-1.217-.222-.334-.222-.774-.441-.995-.663-.334-.332-.554-.662-.665-.995-.221-.441-.332-.775-.332-1.217 0-.444.111-.775.332-1.108.109-.443.332-.774.665-.996.221-.332.551-.553.995-.664.332-.222.774-.222 1.217-.222v1.112zM148.934 358.996c.221-.441.333-.663.552-.886.223-.221.554-.221.884-.221h.554c.221.111.332.111.553.221l-.442 1.107c-.11-.109-.332-.109-.441-.222h-.443c-.441 0-.663.112-.884.554-.221.331-.333.885-.333 1.658v2.546h-1.22V358h1.22v.996zM156.237 360.878c0-.554-.111-.998-.332-1.327-.334-.334-.665-.554-1.219-.554v-1.105c.334 0 .554.11.885.221.334.225.554.551.665.885v-4.536h1.328v9.292h-1.328v-.775a2.525 2.525 0 0 1-.775.775c-.221.11-.441.11-.774.224v-1.219c.442 0 .885-.112 1.108-.441.331-.444.442-.888.442-1.44zm-1.55-1.882c-.441 0-.885.222-1.106.554-.332.331-.441.772-.441 1.326 0 .662.11 1.107.441 1.437.221.334.664.441 1.106.441v1.217h-.332c-.774 0-1.439-.331-1.88-.885-.442-.441-.665-1.217-.665-2.21 0-.885.221-1.658.665-2.212.441-.554 1.106-.774 1.88-.774h.332v1.106zM167.302 359.662c-.221-.223-.443-.335-.666-.441-.329-.225-.551-.225-.883-.225-.555 0-.996.112-1.327.554-.223.331-.442.772-.442 1.326 0 .552.221 1.105.442 1.437.332.332.772.441 1.436.441.224 0 .555 0 .774-.109.223-.222.445-.333.666-.554v1.438c-.221.11-.443.223-.774.332-.221.112-.555.112-.886.112-.885 0-1.55-.334-2.104-.886-.662-.552-.885-1.326-.885-2.212 0-.885.334-1.66.885-2.212.554-.554 1.328-.774 2.213-.774h.883c.224.111.445.221.666.333l.002 1.44zM173.054 360.878a2.04 2.04 0 0 0-.552-1.327c-.334-.334-.774-.554-1.218-.554v-1.105c.442 0 .774 0 1.218.221.333.112.661.334.996.664.223.221.553.55.664.995.11.333.221.774.221 1.108 0 .441-.11.886-.221 1.217-.111.333-.334.664-.664.997-.335.222-.663.442-1.106.664-.333.11-.774.221-1.107.221v-1.218c.442 0 .884-.11 1.218-.553.331-.334.551-.778.551-1.33zm-1.77-1.882c-.553 0-.886.222-1.327.554-.334.331-.442.885-.442 1.326 0 .552.109.995.442 1.324.441.443.774.554 1.327.554v1.217c-.441 0-.886-.111-1.219-.222-.442-.222-.773-.441-.994-.663-.336-.332-.443-.662-.665-.995-.109-.441-.221-.775-.221-1.217 0-.444.111-.775.332-1.108.11-.443.221-.774.554-.996.221-.332.55-.553.994-.664.333-.222.774-.222 1.219-.222v1.112zM175.708 363.753v-5.752h1.328v.995c.221-.442.554-.662.885-.885.332-.221.774-.221 1.218-.221s.885 0 1.108.11c.333.221.551.333.771.662 0 .112.113.333.225.554v4.536h-1.328v-2.988c0-.662-.111-1.219-.222-1.438-.221-.219-.553-.332-.995-.332-.334 0-.553 0-.774.113-.221.109-.442.331-.553.441-.112.221-.222.331-.222.551-.111.222-.111.553-.111.998v2.655h-1.33v.001zM183.344 363.753v-4.536h-.996V358h.996v-2.102h1.216V358h.996v1.217h-.996v4.536zM187.99 358.996c.222-.441.335-.663.554-.886.222-.221.554-.221.884-.221h.555c.221.111.332.111.55.221l-.55 1.107c-.111-.109-.225-.109-.335-.222h-.441c-.443 0-.664.112-.885.554-.222.331-.335.885-.335 1.658v2.546h-1.325V358h1.325l.003.996zM196.62 363.753h-1.326v-.775c-.221.334-.552.554-.774.775-.222.11-.442.11-.774.222v-1.217c.443 0 .886-.112 1.106-.442.335-.442.442-.886.442-1.438 0-.554-.109-.996-.334-1.326-.331-.332-.662-.553-1.217-.553v-1.106c.332 0 .553.111.774.221.332.224.664.554.774.886v-.995h1.325l.004 5.748zm-2.876.222h-.331a2.362 2.362 0 0 1-1.881-.885c-.443-.441-.664-1.217-.664-2.212 0-.886.221-1.658.664-2.211.441-.554 1.106-.774 1.881-.774h.331V359c-.441 0-.885.223-1.105.553-.334.333-.443.772-.443 1.326 0 .663.111 1.107.443 1.438.221.333.663.442 1.105.442v1.216zM202.596 359.662c-.112-.223-.333-.335-.664-.441-.222-.225-.55-.225-.886-.225-.441 0-.885.112-1.217.554a1.826 1.826 0 0 0-.554 1.326c0 .552.225 1.105.554 1.437s.774.441 1.328.441c.332 0 .55 0 .884-.109.222-.222.441-.333.553-.554v1.438c-.222.11-.441.223-.665.332-.331.112-.662.112-.885.112-.886 0-1.66-.334-2.211-.886-.553-.552-.884-1.326-.884-2.212 0-.885.331-1.66.884-2.212.551-.554 1.325-.774 2.324-.774h.771c.225.111.553.221.665.333l.003 1.44zM204.255 363.753v-4.536h-.997V358h.997v-2.102h1.327V358h.998v1.217h-.998v4.536zM207.575 355.567c0-.223.11-.441.222-.554.221-.11.442-.22.663-.22s.332.109.554.22c.11.112.221.334.221.554a.84.84 0 0 1-.221.552c-.225.222-.335.332-.554.332-.218 0-.442-.11-.663-.332a.835.835 0 0 1-.222-.552zm.222 8.186v-5.752h1.327v5.752h-1.327zM215.431 360.878c0-.441-.221-.998-.554-1.327-.332-.334-.774-.554-1.217-.554v-1.105c.441 0 .774 0 1.217.221.335.112.663.334.995.664.335.221.555.55.664.995.111.333.222.774.222 1.108 0 .441-.11.886-.222 1.217-.109.333-.331.664-.664.997-.332.222-.66.442-.995.664-.441.11-.774.221-1.217.221v-1.218c.441 0 .885-.11 1.217-.553a1.84 1.84 0 0 0 .554-1.33zm-1.771-1.882c-.554 0-.885.222-1.22.554-.332.331-.55.885-.55 1.326 0 .552.221.995.55 1.324.335.443.663.554 1.22.554v1.217c-.443 0-.885-.111-1.22-.222l-.996-.663c-.332-.332-.55-.662-.661-.995-.224-.441-.224-.775-.224-1.217 0-.444 0-.775.224-1.108.111-.443.332-.774.661-.996.225-.332.664-.553.996-.664.335-.222.774-.222 1.22-.222v1.112zM218.197 363.753v-5.752h1.217v.995c.225-.442.554-.662.885-.885.335-.221.774-.221 1.328-.221.331 0 .774 0 .995.11.332.221.554.333.774.662.111.112.111.333.222.554v4.536h-1.325v-2.988c0-.662 0-1.219-.224-1.438-.222-.219-.551-.332-.996-.332-.331 0-.551 0-.774.113-.221.109-.441.331-.551.441-.109.221-.222.331-.222.551 0 .222-.112.553-.112.998v2.655h-1.217v.001z"/><path stroke="#000" stroke-width=".059" stroke-linecap="round" stroke-linejoin="round" d="M164.978 136.829l6.194-16.486c-4.09 2.546-8.076 2.877-12.392.112l6.198 16.374zM324.743 211.18l6.416-16.486c-4.313 2.656-8.187 2.877-12.612.222l6.196 16.264z"/><g stroke="#000"><path fill="none" stroke-width="1" d="M164.866 382.342v35.293"/><path stroke-width=".059" stroke-linecap="round" stroke-linejoin="round" d="M164.757 426.156l6.195-16.376c-4.094 2.545-8.076 2.877-12.392.111l6.197 16.265z"/></g><path stroke="#000" stroke-width=".059" stroke-linecap="round" stroke-linejoin="round" d="M277.278 349.482l16.484 6.416c-2.541-4.314-2.878-8.188-.111-12.613l-16.373 6.197zM51.903 349.591l-16.485-6.307c2.545 4.203 2.875 8.189.11 12.504l16.375-6.197zM4.549 210.848l6.305-16.374c-4.314 2.544-8.188 2.877-12.615.109l6.31 16.265z"/><path d="M94.831 445.408v-8.851h1.771l2.101 6.194c.223.664.334 1.107.443 1.327.111-.333.221-.773.441-1.327l2.104-6.194h1.546v8.851h-1.106v-7.414l-2.545 7.414h-.995l-2.546-7.523v7.523h-1.214zM109.214 444.632c-.441.331-.774.551-1.217.663-.111.109-.332.109-.554.222v-.885c.334 0 .554-.112.776-.222.334-.223.554-.441.663-.776.111-.219.221-.551.221-1.104v-.332c-.332.11-.884.22-1.66.332v-.885c.776-.112 1.328-.223 1.66-.332v-.226c0-.442-.109-.773-.332-.995-.221-.224-.665-.333-1.219-.333h-.111v-.885h.224c.551 0 .995 0 1.325.222.443.11.665.223.774.442.221.224.332.442.332.775.111.11.111.442.111.995V444.628c.112.224.223.55.334.773h-1.106c-.11-.215-.221-.547-.221-.769zm-1.771.885h-.661c-.665 0-1.219-.222-1.55-.554-.443-.331-.554-.772-.554-1.217 0-.331 0-.663.221-.885.112-.332.334-.441.554-.664.221-.109.442-.222.774-.334.221-.109.555-.109.885-.109l.332-.109v.885h-.11c-.441.109-.774.22-.995.22-.111.112-.332.225-.332.443-.111.11-.223.332-.223.441 0 .332.112.554.333.773.222.112.551.225.996.225h.332l-.002.885zm0-5.753c-.441 0-.775.109-.996.222a2.148 2.148 0 0 0-.551.995l-1.108-.109c.11-.554.334-.886.554-1.107.222-.333.554-.554.884-.663.441-.11.775-.222 1.217-.222v.884zM111.87 445.408v-8.851h1.107v5.088l2.545-2.654h1.327l-2.436 2.322 2.767 4.095h-1.328l-2.101-3.32-.774.774v2.546zM122.38 443.305l1.108.11c-.223.663-.554 1.219-.997 1.548-.442.332-1.108.553-1.771.553h-.11v-.885h.11c.334 0 .665-.112.997-.333.221-.219.442-.551.663-.993zm-1.769-4.426c.884 0 1.549.222 2.104.885.551.553.775 1.325.775 2.434v.223h-2.879v-.886h1.77c0-.442-.221-.885-.442-1.218a1.816 1.816 0 0 0-1.328-.553v-.885zm0 6.638c-.885 0-1.659-.334-2.103-.885-.553-.554-.885-1.327-.885-2.435 0-.994.333-1.88.885-2.434.554-.553 1.217-.885 2.103-.885v.885c-.441 0-.885.109-1.217.442a1.84 1.84 0 0 0-.554 1.326h1.771v.885h-1.88c.11.775.223 1.329.665 1.661.332.333.664.554 1.217.554l-.002.886zM127.802 443.525l1.107-.22c0 .441.221.773.441.995.334.222.665.334 1.219.334.441 0 .884-.112 1.106-.334.221-.222.332-.442.332-.663a.607.607 0 0 0-.332-.552c-.109-.111-.553-.222-1.106-.442-.774-.223-1.328-.333-1.66-.442-.221-.222-.553-.441-.665-.663a2.115 2.115 0 0 1-.222-.886c0-.222 0-.553.222-.775.111-.22.221-.441.443-.55.221-.112.441-.222.774-.333.221-.112.551-.112.885-.112.551 0 .995 0 1.325.224.332.109.665.331.885.552.11.22.221.554.332.995l-1.106.109c0-.331-.111-.55-.332-.771-.334-.113-.554-.223-.995-.223-.553 0-.884.109-1.108.223-.221.222-.332.332-.332.553 0 .219.111.333.111.442.11.109.334.224.443.224.11.109.441.109.995.331.774.222 1.325.332 1.548.441.332.112.551.332.772.554.113.332.223.554.223.995 0 .334-.11.663-.334.995-.222.334-.441.554-.885.775-.441.109-.884.222-1.326.222-.885 0-1.439-.222-1.88-.554a2.184 2.184 0 0 1-.88-1.444zM138.534 445.408v-.997c-.442.775-1.107 1.109-1.992 1.109-.334 0-.664-.112-.998-.225-.332-.109-.661-.332-.772-.551-.112-.223-.223-.444-.334-.775 0-.22-.111-.552-.111-.995v-3.983h1.106v3.542c0 .553 0 .996.109 1.105 0 .335.223.553.443.666.221.22.441.332.774.332.332 0 .665-.112.885-.332.332-.113.551-.335.665-.666.11-.22.11-.659.11-1.218v-3.43h1.106v6.418h-.991zM141.191 445.408v-6.417h.995v.995c.221-.441.443-.775.664-.885.221-.222.441-.222.775-.222.332 0 .661.111 1.106.331l-.442.998c-.221-.112-.441-.223-.772-.223-.223 0-.442.11-.665.223-.11.109-.334.331-.334.551-.11.442-.221.775-.221 1.328v3.316h-1.106v.005zM149.711 443.305l1.106.11c-.221.663-.554 1.219-.995 1.548-.443.332-1.106.553-1.771.553h-.111v-.885h.111c.332 0 .665-.112.996-.333.22-.219.441-.551.664-.993zm-1.772-4.426c.885 0 1.547.222 2.102.885.554.553.774 1.325.774 2.434v.223h-2.876v-.886h1.771c0-.442-.223-.885-.442-1.218a1.817 1.817 0 0 0-1.327-.553l-.002-.885zm0 6.638c-.884 0-1.66-.334-2.104-.885-.551-.554-.885-1.327-.885-2.435 0-.994.334-1.88.885-2.434.554-.553 1.219-.885 2.104-.885v.885c-.443 0-.884.109-1.219.442a1.837 1.837 0 0 0-.551 1.326h1.77v.885h-1.883c.112.775.223 1.329.663 1.661.334.333.665.554 1.22.554v.886zM157.896 444.411l.221.997h-.884c-.332 0-.662 0-.885-.112-.221-.109-.332-.332-.441-.551-.11-.11-.11-.554-.11-1.22v-3.651h-.774v-.883h.774v-1.551l1.106-.661v2.212h.995v.883h-.995v4.317c0 .109.111.109.221.22h.772zM159.002 445.408v-8.851h1.109v3.207c.441-.663 1.106-.885 1.88-.885.442 0 .886.111 1.217.222.334.222.665.441.774.772.111.335.221.886.221 1.439v4.091h-1.106v-4.091c0-.554-.111-.886-.332-1.104-.223-.335-.554-.444-.998-.444-.332 0-.661.109-.884.224-.332.222-.551.442-.662.771-.11.223-.11.666-.11 1.108v3.541h-1.109zM170.068 443.305l1.105.11c-.109.663-.441 1.219-.995 1.548a2.714 2.714 0 0 1-1.659.553h-.111v-.885h.111c.334 0 .663-.112.885-.333.332-.219.552-.551.664-.993zm-1.661-4.426c.774 0 1.439.222 1.993.885.552.553.885 1.325.885 2.434v.223h-2.878v-.886h1.66c0-.442-.111-.885-.332-1.218-.334-.336-.774-.553-1.22-.553h-.11l.002-.885zm0 6.638c-.884 0-1.549-.334-2.101-.885-.554-.554-.774-1.327-.774-2.435 0-.994.221-1.88.774-2.434.55-.553 1.217-.885 2.101-.885v.885c-.441 0-.884.109-1.217.442-.334.336-.442.775-.555 1.326h1.771v.885h-1.771c0 .775.223 1.329.555 1.661.333.333.774.554 1.217.554v.886zM180.135 445.408v-.997c-.441.775-1.107 1.109-1.991 1.109-.333 0-.774-.112-1.107-.225a1.128 1.128 0 0 1-.663-.551c-.221-.223-.332-.444-.332-.775-.111-.22-.111-.552-.111-.995v-3.983h1.106v3.542c0 .553 0 .996.111 1.105 0 .335.222.553.442.666.221.22.441.332.771.332.334 0 .663-.112.886-.332.334-.113.552-.335.663-.666.111-.22.111-.659.111-1.218v-3.43h1.108v6.418h-.994zM185.223 444.411l.112.997h-.774c-.442 0-.773 0-.997-.112-.221-.109-.332-.332-.441-.551-.111-.11-.111-.554-.111-1.22v-3.651h-.774v-.883h.774v-1.551l1.108-.661v2.212h1.105v.883h-1.105v4.317c.111.109.111.109.22.22h.883zM190.645 443.305l1.109.11c-.221.663-.552 1.219-.995 1.548-.443.332-1.109.553-1.884.553v-.885a1.89 1.89 0 0 0 1.11-.333c.219-.219.439-.551.66-.993zm-1.77-4.426c.774 0 1.549.222 2.104.885.554.553.774 1.325.774 2.434v.223h-2.879v-.886h1.77c-.109-.442-.221-.885-.441-1.218a1.817 1.817 0 0 0-1.328-.553v-.885zm0 6.638c-.885 0-1.657-.334-2.211-.885-.553-.554-.773-1.327-.773-2.435 0-.994.221-1.88.773-2.434.553-.553 1.326-.885 2.211-.885v.885c-.55 0-.885.109-1.217.442a1.84 1.84 0 0 0-.555 1.326h1.771v.885h-1.883c0 .775.226 1.329.557 1.661.33.333.774.554 1.325.554l.002.886zM193.08 445.408v-6.417h.995v.995c.223-.441.442-.775.664-.885.221-.222.442-.222.663-.222.332 0 .774.111 1.106.331l-.332.998c-.334-.112-.554-.223-.774-.223-.331 0-.442.11-.663.223-.222.109-.332.331-.441.551-.109.442-.109.775-.109 1.328v3.316h-1.108v.005zM201.379 445.408v-.997c-.555.775-1.221 1.109-2.105 1.109-.331 0-.661-.112-.995-.225-.332-.109-.552-.332-.774-.551-.111-.223-.222-.444-.332-.775v-4.978h.995v3.542c0 .553.111.996.111 1.105.109.335.221.553.442.666.222.22.441.332.774.332.332 0 .661-.112.996-.332a1.14 1.14 0 0 0 .55-.666c.112-.22.224-.659.224-1.218v-3.43h.996v6.418h-.882zM203.59 443.525l.997-.22c.111.441.332.773.552.995.223.222.666.334 1.108.334.553 0 .884-.112 1.105-.334.335-.222.443-.442.443-.663a.605.605 0 0 0-.334-.552c-.223-.111-.552-.222-1.108-.442-.772-.223-1.326-.333-1.657-.442-.335-.222-.552-.441-.664-.663-.219-.223-.334-.553-.334-.886 0-.222.115-.553.224-.775.11-.22.331-.441.55-.55l.664-.333c.332-.112.666-.112.998-.112.442 0 .885 0 1.326.224.334.109.661.331.777.552.221.22.331.554.331.995l-.996.109c0-.331-.225-.55-.442-.771a2.163 2.163 0 0 0-.995-.223 2.17 2.17 0 0 0-.997.223c-.223.222-.332.332-.332.553 0 .219 0 .333.109.442.113.109.223.224.443.224.108.109.442.109.885.331.774.222 1.327.332 1.658.441.336.112.554.332.665.554.221.332.332.554.332.995 0 .334-.111.663-.332.995-.222.334-.554.554-.886.775-.442.109-.885.222-1.438.222-.776 0-1.438-.222-1.883-.554-.439-.332-.658-.778-.769-1.444zM213.55 437.774v-1.219h1.105v1.219h-1.105zm0 7.634v-6.417h1.105v6.417h-1.105zM215.87 443.525l1.11-.22c0 .441.221.773.441.995.334.222.663.334 1.219.334.441 0 .772-.112.997-.334.331-.222.441-.442.441-.663a.606.606 0 0 0-.333-.552c-.11-.111-.553-.222-1.106-.442-.774-.223-1.328-.333-1.659-.442-.334-.222-.553-.441-.665-.663-.221-.223-.221-.553-.221-.886 0-.222 0-.553.111-.775.109-.22.331-.441.551-.55l.664-.333c.334-.112.663-.112.996-.112.442 0 .884 0 1.326.224.333.109.665.331.774.552.222.22.333.554.441.995l-1.105.109c0-.331-.221-.55-.443-.771a2.163 2.163 0 0 0-.995-.223c-.441 0-.773.109-.996.223-.222.222-.333.332-.333.553 0 .219 0 .333.111.442s.222.224.441.224c.109.109.442.109.995.331.663.222 1.22.332 1.549.441.333.11.554.332.664.554.221.332.331.554.331.995 0 .334-.11.663-.331.995-.222.334-.554.554-.885.775-.444.109-.886.222-1.328.222-.886 0-1.548-.222-1.991-.554-.326-.337-.658-.778-.771-1.444zM227.047 445.408l-1.992-6.417h1.106l1.106 3.651.336 1.437c0-.109.108-.554.332-1.327l.993-3.761h1.111l.995 3.761.333 1.218.334-1.326 1.106-3.652h.996l-1.991 6.421h-1.11l-.997-3.877-.22-1.104-1.325 4.978h-1.113v-.002zM239.107 443.305l1.107.11c-.223.663-.552 1.219-.996 1.548-.441.332-1.106.553-1.77.553h-.111v-.885h.111c.331 0 .663-.112.995-.333.221-.219.443-.551.664-.993zm-1.77-4.426c.886 0 1.549.222 2.103.885.552.553.774 1.325.774 2.434v.223h-2.877v-.886h1.77c0-.442-.221-.885-.442-1.218a1.814 1.814 0 0 0-1.326-.553l-.002-.885zm0 6.638c-.885 0-1.659-.334-2.104-.885-.55-.554-.886-1.327-.886-2.435 0-.994.336-1.88.886-2.434.553-.553 1.22-.885 2.104-.885v.885c-.442 0-.885.109-1.217.442a1.828 1.828 0 0 0-.554 1.326h1.771v.885h-1.88c.109.775.221 1.329.663 1.661.332.333.661.554 1.217.554v.886zM241.54 436.557h1.107v8.851h-1.107zM244.308 436.557h1.105v8.851h-1.105zM98.926 456.804l1.106.109a3.014 3.014 0 0 1-.885 1.771c-.554.331-1.106.551-1.77.551-.885 0-1.549-.222-2.105-.886-.551-.551-.771-1.326-.771-2.434 0-.661.111-1.217.332-1.771.221-.551.555-.886.996-1.217.443-.222.995-.333 1.549-.333.665 0 1.217.223 1.66.554.441.331.774.771.884 1.435l-1.108.223c-.111-.441-.221-.772-.441-.998-.332-.219-.665-.329-.995-.329-.553 0-.995.22-1.329.552-.332.441-.441.994-.441 1.88s.11 1.438.441 1.883c.335.332.776.551 1.329.551.332 0 .774-.109.995-.331.329-.324.441-.659.553-1.21zM103.461 452.597c.885 0 1.66.332 2.211.888.554.552.774 1.327.774 2.322 0 .885-.11 1.438-.332 1.992-.221.441-.552.773-1.106 1.107-.442.22-.884.333-1.548.333v-.886c.551 0 .995-.223 1.436-.554.334-.442.443-1.107.443-1.88 0-.773-.111-1.438-.443-1.773-.441-.442-.885-.659-1.436-.659l.001-.89zm-2.988 3.32c0-1.217.334-2.103.995-2.656.554-.441 1.22-.663 1.994-.663v.888c-.443 0-.885.22-1.328.552-.332.441-.551 1.106-.551 1.88 0 .775.221 1.438.551 1.883.443.332.884.551 1.328.551v.886c-.885 0-1.549-.222-2.105-.886-.551-.553-.884-1.328-.884-2.435zM107.778 459.126v-6.417h.995v.886c.441-.666 1.106-.999 1.991-.999.334 0 .774.113 1.106.226.334.107.554.332.663.55.221.224.334.442.334.773.109.224.109.552.109.997v3.981h-1.108v-3.873c0-.441 0-.775-.111-.997-.11-.22-.221-.441-.441-.554-.223-.107-.442-.22-.774-.22-.442 0-.884.22-1.219.441-.332.333-.441.886-.441 1.661v3.539h-1.105v.005h.001zM116.96 458.131l.11.995c-.222 0-.551.111-.776.111-.441 0-.662-.111-.885-.222-.221-.109-.441-.333-.441-.554-.111-.109-.221-.551-.221-1.217v-3.65h-.775v-.886h.775v-1.549l1.106-.666v2.215h1.107v.886h-1.107v3.76c0 .223 0 .443.111.554 0 .112.11.112.11.223h.886zM117.955 459.126v-6.417h.995v.995c.224-.444.554-.775.665-.883.221-.112.442-.226.774-.226.334 0 .665.113 1.106.333l-.441.997c-.221-.112-.442-.222-.775-.222-.221 0-.442.109-.663.222-.111.112-.221.332-.332.552-.109.441-.221.888-.221 1.327v3.318h-1.107v.004zM126.253 458.353a2.936 2.936 0 0 1-1.106.663c-.223.11-.443.11-.554.222v-.885c.221 0 .441-.112.665-.222.332-.223.551-.443.774-.776.11-.219.11-.551.11-.994v-.443c-.334.112-.884.22-1.549.333v-.885c.665-.111 1.217-.221 1.549-.333v-.224c0-.441-.11-.771-.223-.997-.332-.22-.773-.329-1.217-.329h-.111v-.888h.221c.554 0 .995.112 1.328.224.332.107.551.22.775.44.11.225.221.442.331.778v2.433c0 .995 0 1.658.111 1.88 0 .224.11.554.22.773h-1.106c-.107-.216-.218-.55-.218-.77zm-1.66.885h-.665c-.663 0-1.217-.111-1.66-.441-.332-.443-.551-.885-.551-1.329 0-.331.111-.66.221-.885.111-.22.332-.441.554-.661.221-.112.551-.225.773-.334.223 0 .553-.11.997-.11l.332-.111v.885l-.221.112a1.7 1.7 0 0 0-.884.22c-.223 0-.334.112-.442.334-.111.109-.111.332-.111.441 0 .335.111.554.332.775.223.224.442.224.884.224h.443v.881h-.002zm0-5.753c-.554 0-.885.11-1.106.22-.223.222-.334.554-.554.997l-.995-.112c.111-.442.221-.885.442-1.104.223-.334.553-.556.997-.663.332-.112.772-.225 1.217-.225v.888h-.001zM133.113 456.804l1.106.109c-.111.776-.442 1.327-.995 1.771a2.719 2.719 0 0 1-1.659.551c-.886 0-1.66-.222-2.103-.886-.554-.551-.884-1.326-.884-2.434 0-.661.109-1.217.332-1.771a3.98 3.98 0 0 1 1.106-1.217c.442-.222.995-.333 1.549-.333.665 0 1.217.223 1.659.554.441.331.774.771.884 1.435l-1.106.223c-.113-.441-.223-.772-.554-.998-.221-.219-.554-.329-.885-.329-.554 0-.995.22-1.328.552-.332.441-.551.994-.551 1.88s.221 1.438.551 1.883c.334.332.776.551 1.22.551.441 0 .775-.109 1.106-.331.33-.324.442-.659.552-1.21zM137.428 458.131l.221.995c-.33 0-.665.111-.885.111-.334 0-.663-.111-.884-.222-.221-.109-.334-.333-.443-.554-.111-.109-.111-.551-.111-1.217v-3.65h-.774v-.886h.774v-1.549l.995-.666v2.215h1.108v.886h-1.108v3.76c0 .223.113.443.113.554 0 .112.11.112.221.223h.773zM142.849 457.024l1.106.222a2.164 2.164 0 0 1-.995 1.439c-.442.441-.995.551-1.769.551h-.111v-.886h.111c.441 0 .774-.109.995-.331.331-.22.553-.552.663-.995zm-1.77-4.427c.885 0 1.55.332 2.103.888.554.552.884 1.327.884 2.432v.334h-2.986v-.995h1.77c0-.443-.11-.885-.334-1.109a1.73 1.73 0 0 0-1.326-.661h-.111v-.889zm0 6.641c-.885 0-1.548-.331-2.104-.885-.551-.554-.775-1.327-.775-2.322 0-1.109.224-1.992.775-2.546.554-.554 1.219-.885 2.104-.885v.885c-.442 0-.885.22-1.219.441a1.834 1.834 0 0 0-.551 1.329h1.77v.995h-1.77c0 .663.221 1.219.551 1.549.334.332.774.551 1.219.551v.888zM149.488 459.126v-.773c-.441.554-.995.885-1.659.885v-.885c.441 0 .885-.222 1.217-.554.332-.441.441-.995.441-1.769 0-.885-.111-1.551-.441-1.885-.332-.441-.774-.661-1.217-.661v-.884c.332 0 .551.109.885.222.22.22.551.333.661.663v-3.209h1.108v8.853h-.996v-.003zm-1.659.112h-.113c-.551 0-.995-.111-1.435-.441-.443-.223-.776-.663-.997-1.108-.223-.552-.334-1.108-.334-1.771s.111-1.218.334-1.772c.221-.443.551-.886.997-1.106.332-.331.884-.441 1.325-.441h.223v.886h-.113c-.441 0-.884.219-1.217.554a3.896 3.896 0 0 0-.443 1.88c0 .773.223 1.437.554 1.88.332.335.665.554 1.219.554v.885zM159.778 458.353c-.441.332-.774.554-1.217.663-.109.11-.333.11-.553.222v-.885c.334 0 .553-.112.774-.222.332-.223.554-.443.665-.776.221-.219.221-.551.221-.994v-.443c-.333.112-.886.22-1.661.333v-.885c.774-.111 1.328-.221 1.661-.333v-.224c0-.441-.111-.771-.333-.997-.223-.22-.664-.329-1.22-.329h-.109v-.888h.334c.552 0 .995.112 1.327.224.332.107.554.22.664.44.221.225.332.442.332.778.11.107.11.442.11.995v1.438c0 .995 0 1.658.111 1.88 0 .224.112.554.223.773h-1.108c-.111-.216-.221-.55-.221-.77zm-1.77.885h-.551c-.775 0-1.328-.111-1.66-.441-.334-.443-.554-.885-.554-1.329 0-.331.111-.66.221-.885.111-.22.334-.441.554-.661.221-.112.441-.225.774-.334.221 0 .551-.11.995-.11l.221-.111v.885l-.111.112c-.441 0-.774.109-.884.22-.221 0-.332.112-.441.334-.112.109-.223.332-.223.441 0 .335.111.554.334.775.221.224.551.224.996.224h.332l-.003.88zm0-5.753c-.441 0-.774.11-.995.22a2.17 2.17 0 0 0-.554.997l-.996-.112c0-.442.223-.885.442-1.104.221-.334.551-.556.995-.663.332-.112.665-.225 1.106-.225l.002.887zM162.654 459.126v-5.531h-.886v-.886h.886v-.666c0-.44.112-.772.112-.995.111-.223.332-.442.551-.663.334-.109.664-.222 1.106-.222.334 0 .664 0 .997.112l-.111.885h-.663c-.334 0-.554.11-.665.22-.11.112-.221.334-.221.775v.554h1.217v.886h-1.217v5.531h-1.106zM168.187 458.131l.221.995c-.331 0-.663.111-.884.111-.333 0-.665-.111-.888-.222-.22-.109-.329-.333-.44-.554-.113-.109-.113-.551-.113-1.217v-3.65h-.771v-.886h.771v-1.549l.999-.666v2.215h1.105v.886h-1.105v3.76c0 .223.109.443.109.554 0 .112.111.112.222.223h.774zM173.497 457.024l1.106.222a2.162 2.162 0 0 1-.996 1.439c-.441.441-.995.551-1.77.551h-.111v-.886h.111c.441 0 .774-.109.996-.331.33-.22.554-.552.664-.995zm-1.77-4.427c.886 0 1.549.332 2.103.888.553.552.885 1.327.885 2.432v.334h-2.987v-.995h1.771c0-.443-.11-.885-.335-1.109a1.725 1.725 0 0 0-1.325-.661h-.111l-.001-.889zm0 6.641c-.885 0-1.549-.331-2.104-.885-.55-.554-.771-1.327-.771-2.322 0-1.109.222-1.992.771-2.546.554-.554 1.22-.885 2.104-.885v.885c-.442 0-.885.22-1.22.441a1.838 1.838 0 0 0-.551 1.329h1.771v.995h-1.771c0 .663.222 1.219.551 1.549.335.332.776.551 1.22.551v.888zM175.932 459.126v-6.417h.996v.995c.221-.444.55-.775.663-.883.221-.112.441-.226.771-.226.335 0 .664.113 1.108.333l-.442.997c-.221-.112-.441-.222-.774-.222-.222 0-.441.109-.66.222-.114.112-.224.332-.336.552-.109.441-.221.888-.221 1.327v3.318h-1.105v.004zM187.659 459.126v-.773c-.441.554-.995.885-1.769.885v-.885h.11c.442 0 .885-.222 1.22-.554.219-.441.441-.995.441-1.769 0-.885-.224-1.551-.556-1.885-.33-.441-.659-.661-1.214-.661v-.884c.329 0 .663.109.995.222.219.22.442.333.664.663v-3.209h1.104v8.853h-.994v-.002h-.001zm-1.768.112c-.554 0-.997-.111-1.44-.441-.441-.223-.772-.663-.996-1.108-.221-.552-.332-1.108-.332-1.771s.111-1.218.332-1.772c.224-.443.554-.886.885-1.106.442-.331.998-.441 1.438-.441h.114v.886c-.443 0-.889.219-1.22.554-.334.441-.442.994-.442 1.88 0 .773.219 1.437.551 1.88.334.335.662.554 1.108.554l.002.885zM194.74 457.024l1.106.222c-.222.554-.551 1.108-.996 1.439-.441.441-1.106.551-1.881.551v-.886c.443 0 .774-.109 1.106-.331.222-.22.444-.552.665-.995zm-1.77-4.427c.886 0 1.549.332 2.105.888.55.552.771 1.327.771 2.432v.334h-2.877v-.995h1.771c-.11-.443-.222-.885-.441-1.109a1.578 1.578 0 0 0-1.326-.661l-.003-.889zm0 6.641c-.885 0-1.659-.331-2.211-.885-.553-.554-.773-1.327-.773-2.322 0-1.109.221-1.992.773-2.546.551-.554 1.326-.885 2.211-.885v.885c-.55 0-.885.22-1.217.441a1.827 1.827 0 0 0-.553 1.329h1.77v.995h-1.881c0 .663.222 1.219.554 1.549.441.332.775.551 1.325.551l.002.888zM197.175 450.276h1.105v8.851h-1.105zM199.941 451.605v-1.329h1.105v1.329h-1.105zm0 7.521v-6.417h1.105v6.417h-1.105zM204.365 459.126l-2.434-6.417h1.22l1.325 3.873c.225.334.335.772.442 1.217.113-.332.222-.663.334-1.217l1.437-3.873h1.108l-2.325 6.417h-1.107zM213.107 457.024l1.106.222c-.11.554-.441 1.108-.885 1.439-.55.441-1.107.551-1.882.551h-.109v-.886h.109c.444 0 .774-.109.996-.331.334-.22.554-.552.665-.995zm-1.77-4.427h.109c.774 0 1.55.332 1.994.888.551.552.887 1.327.887 2.432v.334h-2.99v-.995h1.88c-.11-.443-.221-.885-.441-1.109a1.584 1.584 0 0 0-1.329-.661h-.109v-.889zm0 6.641c-.886 0-1.549-.331-2.103-.885-.555-.554-.774-1.327-.774-2.322 0-1.109.221-1.992.774-2.546a3.013 3.013 0 0 1 2.103-.885v.885c-.441 0-.886.22-1.217.441-.334.333-.443.775-.554 1.329h1.771v.995h-1.771c0 .663.222 1.219.554 1.549.33.332.774.551 1.217.551v.888zM215.652 459.126v-6.417h.885v.995c.334-.444.553-.775.774-.883.222-.112.442-.226.665-.226.33 0 .772.113 1.105.333l-.333.997c-.333-.112-.552-.222-.884-.222a.835.835 0 0 0-.554.222c-.222.112-.331.332-.441.552-.112.441-.223.888-.223 1.327v3.318h-.995v.004zM219.635 461.56l-.112-.995c.222 0 .441.109.662.109.225 0 .443-.109.554-.109.111-.109.221-.222.332-.334.109-.11.223-.441.334-.883 0 0 .111-.112.111-.222l-2.435-6.419h1.217l1.328 3.763c.11.442.331.885.441 1.438.112-.554.224-.996.442-1.438l1.326-3.763h1.108l-2.435 6.528c-.221.663-.442 1.22-.553 1.438a4.782 4.782 0 0 1-.661.773c-.334.112-.553.222-.885.222a2.032 2.032 0 0 1-.774-.108zM97.376 466.318c.885 0 1.549.334 2.103.886.554.554.884 1.326.884 2.321 0 .886-.109 1.552-.332 1.993a5.295 5.295 0 0 1-1.106 1.106c-.443.223-.998.332-1.549.332v-.886c.551 0 .995-.219 1.326-.55.334-.442.554-1.108.554-1.884 0-.771-.221-1.436-.554-1.768a1.58 1.58 0 0 0-1.326-.665v-.885zm-2.988 3.319c0-1.217.334-1.992.999-2.655.551-.443 1.217-.664 1.991-.664v.886c-.553 0-.995.222-1.329.663-.332.334-.551.995-.551 1.771 0 .886.221 1.439.551 1.881.335.334.776.553 1.329.553v.886c-.885 0-1.661-.223-2.213-.775-.555-.665-.777-1.438-.777-2.546zM101.912 472.844v-5.531h-.995v-.885h.995v-.664c0-.441 0-.772.109-.885.111-.332.221-.554.554-.773.221-.112.551-.222 1.106-.222.221 0 .554 0 .995.109l-.221.998c-.221-.112-.443-.112-.554-.112-.332 0-.665.112-.774.222-.111.109-.221.442-.221.773v.554h1.328v.885h-1.328v5.531h-.994zM110.764 471.849l.221.995c-.332 0-.551.112-.885.112-.332 0-.661-.112-.884-.222-.221-.11-.332-.334-.441-.441-.111-.223-.111-.666-.111-1.327v-3.65h-.774v-.888h.774v-1.547l1.106-.663v2.211h.995v.888h-.995v4.312c0 .112.11.112.221.225.11 0 .223.111.334.111.107-.004.328-.116.439-.116zM111.87 472.844v-8.851h1.108v3.207a2.366 2.366 0 0 1 1.88-.885c.441 0 .885.112 1.217.334.334.109.554.441.774.775.111.332.222.773.222 1.324v4.095h-1.106v-4.095c0-.441-.111-.883-.333-1.104-.223-.222-.554-.442-.995-.442-.334 0-.665.111-.885.335a.99.99 0 0 0-.664.662c-.111.223-.111.663-.111 1.108v3.539h-1.108v-.002zM123.045 470.745l1.106.222c-.11.661-.441 1.104-.995 1.437-.441.441-.995.554-1.77.554h-.111v-.886h.111c.443 0 .774-.109.995-.332.332-.113.552-.445.664-.995zm-1.771-4.427c.886 0 1.55.334 2.105.886.551.554.885 1.438.885 2.434v.332h-2.99v-.883h1.771c0-.554-.111-.998-.332-1.22-.442-.442-.884-.663-1.328-.663h-.111v-.886zm0 6.639c-.884 0-1.548-.222-2.101-.886-.554-.552-.886-1.325-.886-2.322 0-1.106.332-1.991.886-2.544.551-.55 1.217-.886 2.101-.886v.886c-.441 0-.884.222-1.217.553a1.818 1.818 0 0 0-.554 1.326h1.77v.886h-1.77c0 .663.221 1.217.554 1.549.332.331.775.551 1.217.551v.887zM131.674 466.318h.111c.553 0 .995.112 1.438.441.441.223.774.666.995 1.219.11.442.221.997.221 1.659 0 .663-.111 1.219-.332 1.771a3.464 3.464 0 0 1-.995 1.219 3.039 3.039 0 0 1-1.439.333v-.886c.443 0 .885-.22 1.217-.551.334-.441.442-1.107.442-1.883 0-.886-.11-1.437-.442-1.881-.332-.333-.772-.554-1.217-.554v-.887zm-2.766 8.96v-8.85h.995v.885c.221-.331.554-.554.774-.773.332-.111.665-.224.995-.224v.885c-.441 0-.884.225-1.217.666-.334.332-.553.995-.553 1.769 0 .885.221 1.438.553 1.883.332.331.663.551 1.217.551v.886c-.332 0-.664 0-.884-.22-.332-.113-.554-.336-.774-.554v3.096h-1.106zM135.769 463.994h1.106v8.851h-1.106zM142.63 472.071a2.942 2.942 0 0 1-1.109.664c-.221.109-.332.109-.551.222v-.886c.221 0 .551-.109.774-.222.332-.109.551-.441.663-.772a2.24 2.24 0 0 0 .223-.998v-.441c-.443.109-.999.332-1.66.441v-.995c.661 0 1.217-.112 1.66-.334v-.22c0-.443-.114-.775-.334-.998-.332-.223-.665-.332-1.217-.332h-.11v-.886h.221c.554 0 .995.11 1.326.223.334.113.665.223.774.442.111.222.223.442.334.775 0 .11.11.441.11.995v3.319c.111.222.111.553.332.773h-1.217c-.11-.216-.11-.438-.219-.77zm-1.66.886h-.665c-.665 0-1.217-.112-1.55-.442-.441-.333-.551-.773-.551-1.326 0-.332 0-.663.222-.883.111-.223.221-.443.551-.665.223-.11.443-.22.775-.332.11 0 .443-.111.884-.111l.334-.109v.995h-.111c-.443 0-.774.111-.998.223-.11 0-.332.11-.441.332-.11.109-.11.332-.11.551 0 .223.11.441.332.666.221.22.554.332.995.332.111 0 .223 0 .334-.112l-.001.881zm0-5.753c-.443 0-.776.112-.997.331-.334.112-.442.443-.553.886l-1.106-.109c.11-.444.332-.886.551-1.107.223-.332.443-.552.885-.664.334-.109.774-.222 1.22-.222v.885zM149.488 470.523l1.108.109a3.01 3.01 0 0 1-.884 1.771c-.442.334-1.108.554-1.771.554-.884 0-1.549-.223-2.104-.775-.551-.663-.774-1.437-.774-2.544 0-.663.112-1.217.334-1.771.221-.551.551-.885.995-1.107.441-.333.995-.442 1.549-.442.662 0 1.217.222 1.661.553.441.333.772.772.885 1.437l-1.108.222c0-.441-.222-.773-.441-.995-.333-.222-.553-.334-.995-.334-.553 0-.995.225-1.328.554-.332.442-.441.995-.441 1.88 0 .886.111 1.439.441 1.883.334.332.774.551 1.328.551.442 0 .776-.109.995-.332.329-.329.55-.66.55-1.214zM155.905 470.745l1.106.222c-.221.661-.554 1.104-.995 1.437-.442.441-1.106.554-1.88.554v-.886a1.86 1.86 0 0 0 1.106-.332c.219-.113.442-.445.663-.995zm-1.769-4.427c.885 0 1.548.334 2.102.886.554.554.774 1.438.774 2.434v.332h-2.876v-.883h1.769c-.11-.554-.221-.998-.442-1.22a1.576 1.576 0 0 0-1.326-.663l-.001-.886zm0 6.639c-.886 0-1.66-.222-2.213-.886-.551-.552-.774-1.325-.774-2.322 0-1.106.223-1.991.774-2.544.554-.55 1.328-.886 2.213-.886v.886c-.554 0-.886.222-1.22.553a1.827 1.827 0 0 0-.551 1.326h1.77v.886h-1.88c0 .663.221 1.217.551 1.549.334.331.775.551 1.328.551l.002.887zM158.339 472.844v-6.416h.995v.997c.441-.775 1.107-1.109 1.992-1.109.441 0 .774.112 1.106.224.334.11.553.332.665.552.221.222.332.441.332.775.113.22.113.551.113 1.104v3.873h-1.108v-3.873c0-.441 0-.772-.11-.995-.111-.222-.221-.441-.441-.551-.223-.112-.442-.112-.774-.112-.442 0-.885.112-1.219.332-.333.333-.441.885-.441 1.771v3.429h-1.11zM167.524 471.849l.221.995c-.332 0-.661.112-.886.112a2.12 2.12 0 0 1-.886-.222c-.22-.11-.331-.334-.44-.441-.112-.223-.112-.666-.112-1.327v-3.65h-.884v-.888h.884v-1.547l.996-.663v2.211h1.107v.888h-1.107v3.762c0 .222.111.441.111.55 0 .112.108.112.222.225 0 0 .109.111.334.111.107-.004.218-.116.44-.116zM172.613 472.071a2.94 2.94 0 0 1-1.106.664c-.223.109-.442.109-.554.222v-.886c.221 0 .441-.109.664-.222.331-.109.664-.441.773-.772.111-.223.111-.554.111-.998v-.441c-.334.109-.885.332-1.549.441v-.995c.664 0 1.217-.112 1.549-.334.111-.109.111-.22.111-.22 0-.443-.111-.775-.332-.998-.335-.223-.664-.332-1.22-.332h-.11v-.886h.221c.554 0 .996.11 1.328.223.332.113.551.223.773.442.111.222.223.442.332.775v2.434c0 .994.112 1.656.112 1.88 0 .222.109.553.221.773h-1.106c-.108-.216-.108-.438-.218-.77zm-1.661.886h-.663c-.665 0-1.217-.112-1.659-.442-.223-.333-.441-.773-.441-1.326 0-.332.11-.663.221-.883.222-.223.222-.443.442-.665.222-.11.551-.22.771-.332.225 0 .554-.111.999-.111l.331-.109v.995h-.11c-.442 0-.774.111-.995.223-.225 0-.334.11-.442.332-.111.109-.111.332-.111.551 0 .223.111.441.332.666.224.22.554.332.888.332.221 0 .331 0 .441-.112l-.004.881zm0-5.753a1.88 1.88 0 0 0-1.105.331c-.225.112-.334.443-.443.886l-.996-.109c.111-.444.223-.886.332-1.107.225-.332.554-.552.999-.664.331-.109.771-.222 1.217-.222l-.004.885z"/></svg>