<svg version="1.1" xmlns="http://www.w3.org/2000/svg" x="0" y="0" width="325.98" height="225.866" viewBox="0.001 0.022 325.98 225.866" xml:space="preserve"><g fill="none" stroke="#000" stroke-miterlimit="10"><path d="M239.675.022c0 14.583-20.35 87.497-10.217 104.22 18.864 31.062 11.203 93.263 8.731 121.603M77.372.022c0 14.583 20.35 87.497 10.134 104.22-18.784 31.062-11.205 93.263-8.733 121.603"/></g><path fill="none" stroke="#000" stroke-width=".737" stroke-miterlimit="10" stroke-dasharray="1.474,0.737" d="M83.635 31.576c20.514-5.602 49.431-18.618 67.557-29.906l5.686 10.051 9.475-9.475c20.926 15.489 43.254 22.656 67.476 28.423"/><g fill="none" stroke="#000" stroke-width="1" stroke-miterlimit="10"><path d="M107.031 177.074l53.882 37.896 53.471-38.226M160.584 214.23v11.039"/></g><path fill="none" stroke="#000" stroke-width="1" stroke-miterlimit="10" stroke-dasharray="5.0003,3.0002,1.0001,3.0002" d="M125.239 190.501l27.437-.578c1.895 0 5.025 1.074 5.025 4.121v10.135M193.62 190.501l-27.353-.578c-1.896 0-5.026 1.074-5.026 4.121v10.135"/><path fill="none" stroke="#000" stroke-width=".737" stroke-miterlimit="10" stroke-dasharray="3.685,2.211" d="M152.592 190.089c.989-3.459 3.46-6.262 7.662-6.838 3.459-.494 6.261 2.471 8.239 7.084"/><path fill="none" stroke="#000" stroke-width=".737" stroke-miterlimit="10" stroke-dasharray="3.685,2.211" d="M150.037 190.337c-4.86-8.896-5.355-17.879-.906-26.693 3.214-6.262 7.58-9.721 12.522-9.393 6.098.412 11.947 3.707 14.254 11.617 3.049 10.875-.494 18.455-5.687 24.221"/><path fill="none" stroke="#000" stroke-width=".737" stroke-miterlimit="10" stroke-dasharray="3.685,2.211" d="M145.754 190.089c-5.687-11.037-9.062-22.574-6.839-34.109 3.048-15.57 11.205-22.656 21.339-22.16 12.521.576 20.431 8.98 22.655 25.541 1.565 11.451-1.646 21.832-8.732 30.975"/><path fill="none" stroke="#000" stroke-width=".737" stroke-miterlimit="10" stroke-dasharray="3.685,2.211" d="M139.245 190.089c-8.568-12.77-10.462-26.527-6.262-40.699 4.366-14.908 13.924-23.645 27.271-23.809 14.499-.248 24.552 8.814 27.435 27.848 2.144 13.346-1.151 25.457-7.58 36.66"/><path fill="none" stroke="#000" stroke-width=".737" stroke-miterlimit="10" stroke-dasharray="3.685,2.211" d="M132.984 190.585c-9.146-13.76-12.439-28.916-7.991-44.82 5.107-18.043 17.714-27.6 34.933-28.751 14.17-.908 24.551 7.25 30.319 21.007 7.411 17.631 5.106 35.428-4.201 52.564"/><path fill="none" stroke="#000" stroke-width=".5" stroke-miterlimit="10" d="M159.512 129.783c2.472 0 4.449-1.978 4.449-4.367s-1.978-4.364-4.449-4.364c-2.389 0-4.366 1.976-4.366 4.364 0 2.389 1.977 4.367 4.366 4.367zM159.925 116.765h124.404M161.654 125.25h121.521M159.348 133.819h124.403M159.925 154.251h123.826M159.925 183.253h123.25M155.393 123.027H51.421"/><path d="M5.323 118.266H6.4v4.702c0 .818-.093 1.467-.277 1.949-.187.479-.521.871-1.001 1.174-.482.302-1.116.451-1.902.451-.763 0-1.386-.133-1.871-.395s-.832-.645-1.038-1.14c-.207-.501-.31-1.179-.31-2.041v-4.702h1.076v4.695c0 .709.066 1.229.196 1.564.132.333.357.592.678.772.319.182.711.272 1.174.272.792 0 1.355-.179 1.692-.541.336-.356.504-1.049.504-2.068l.002-4.692zM8.066 126.403v-5.894h.894v.826c.186-.287.433-.521.74-.696a2.113 2.113 0 0 1 1.049-.263c.436 0 .794.093 1.072.271.279.182.479.436.593.76.466-.688 1.072-1.029 1.819-1.029.584 0 1.035.16 1.35.484s.473.822.473 1.497v4.048h-.994v-3.715c0-.4-.031-.688-.098-.861a.834.834 0 0 0-.353-.426 1.111 1.111 0 0 0-.6-.16c-.414 0-.758.137-1.032.412-.272.273-.411.717-.411 1.321v3.427h-1v-3.83c0-.442-.082-.775-.243-1-.162-.222-.43-.332-.801-.332-.28 0-.541.07-.779.224-.238.147-.412.36-.521.646-.106.286-.161.697-.161 1.233v3.058l-.997-.001zM18.458 126.403h-.928v-8.138h.999v2.902c.424-.528.961-.791 1.616-.791.363 0 .706.072 1.03.218.323.146.59.354.798.616.21.265.373.586.493.957.119.375.177.774.177 1.201 0 1.012-.25 1.789-.749 2.344-.5.55-1.098.826-1.799.826-.696 0-1.242-.291-1.637-.871v.736zm-.012-2.991c0 .707.097 1.217.288 1.535.315.512.74.771 1.277.771.436 0 .813-.189 1.133-.569.318-.38.478-.945.478-1.695 0-.771-.152-1.34-.458-1.703-.306-.366-.676-.551-1.107-.551-.436 0-.812.19-1.132.57-.319.376-.479.923-.479 1.642zM23.864 119.416v-1.151h.999v1.151h-.999zm0 6.987v-5.894h.999v5.894h-.999zM26.362 126.403v-8.138h.999v8.138h-.999zM28.916 119.416v-1.151h1v1.151h-1zm0 6.987v-5.894h1v5.894h-1zM35.285 124.244l.981.129c-.106.677-.382 1.209-.825 1.591-.441.382-.984.573-1.629.573-.807 0-1.456-.264-1.946-.791-.491-.526-.736-1.285-.736-2.266 0-.638.105-1.193.315-1.672.213-.477.532-.836.964-1.075.432-.237.9-.356 1.407-.356.641 0 1.163.16 1.571.483.406.324.667.785.782 1.382l-.971.149c-.094-.396-.258-.692-.491-.894a1.273 1.273 0 0 0-.854-.301c-.504 0-.912.182-1.227.541-.315.359-.473.932-.473 1.713 0 .793.151 1.366.456 1.729.304.357.698.539 1.188.539.394 0 .721-.121.983-.362.268-.243.433-.612.505-1.112zM40.985 126.403v-.864c-.458.666-1.083.998-1.871.998-.347 0-.672-.065-.975-.197-.302-.135-.525-.305-.672-.504a1.87 1.87 0 0 1-.308-.739c-.042-.196-.062-.507-.062-.935v-3.649h.999v3.269c0 .521.021.873.062 1.055.062.264.194.47.398.619.205.149.456.224.755.224s.581-.076.846-.229c.261-.151.447-.361.558-.625.109-.268.163-.65.163-1.151v-3.16h1v5.894h-.895v-.006zM43.044 124.645l.989-.155c.055.396.211.698.463.91.252.213.607.315 1.062.315.459 0 .8-.095 1.022-.279.221-.188.333-.405.333-.659a.608.608 0 0 0-.295-.531c-.138-.09-.478-.201-1.021-.34-.732-.187-1.241-.345-1.523-.48a1.485 1.485 0 0 1-.646-.561 1.494 1.494 0 0 1-.219-.791c0-.263.061-.504.181-.729.12-.224.285-.411.492-.56.155-.113.368-.211.635-.291a3.09 3.09 0 0 1 .862-.117c.463 0 .87.063 1.219.197.351.135.608.312.774.541.167.229.281.532.344.912l-.977.135a1.082 1.082 0 0 0-.387-.711c-.213-.168-.514-.254-.9-.254-.459 0-.788.074-.983.228-.196.151-.294.331-.294.534 0 .13.041.246.123.349a.898.898 0 0 0 .383.269c.101.035.395.121.882.256.708.188 1.2.342 1.479.461.278.119.5.296.658.525.157.23.237.514.237.854 0 .333-.097.646-.292.94-.192.295-.475.522-.841.685a3.058 3.058 0 0 1-1.244.241c-.766 0-1.35-.158-1.751-.479-.397-.318-.653-.789-.765-1.415z"/><g><path d="M292.31 117.147v.771h-4.326c-.006-.19.025-.379.095-.559.11-.293.286-.583.528-.869.242-.285.595-.617 1.052-.992.711-.582 1.19-1.045 1.442-1.385.248-.343.375-.664.375-.968 0-.319-.115-.586-.342-.807-.229-.217-.525-.329-.894-.329-.387 0-.692.118-.928.35-.231.23-.352.552-.354.964l-.826-.085c.055-.617.27-1.086.639-1.408s.865-.485 1.486-.485c.629 0 1.123.174 1.492.523.364.35.549.782.549 1.295 0 .263-.055.52-.162.774a2.925 2.925 0 0 1-.533.798c-.248.281-.66.663-1.237 1.155-.482.404-.791.679-.933.822-.137.146-.25.289-.338.436l3.215-.001zM295.747 117.917v-1.566h-2.84v-.736l2.985-4.242h.656v4.242h.885v.736h-.885v1.566h-.801zm0-2.304v-2.952l-2.05 2.952h2.05zM301.898 117.917l-1.451-4.74h.83l.754 2.738.281 1.019.244-.978.756-2.777h.826l.709 2.75.236.904.272-.914.812-2.741h.781l-1.48 4.741h-.834l-.756-2.838-.185-.808-.959 3.647h-.838v-.006.003zM310.872 116.391l.832.104c-.134.486-.377.861-.729 1.131-.354.268-.807.398-1.358.398-.691 0-1.244-.212-1.648-.639-.406-.43-.609-1.026-.609-1.801 0-.795.203-1.413.617-1.855.408-.44.943-.66 1.598-.66.636 0 1.15.214 1.554.646.401.432.604 1.039.604 1.82 0 .049-.002.121-.006.217h-3.537c.031.521.179.92.443 1.195.264.277.596.416.99.416.295 0 .547-.076.754-.231.208-.155.37-.401.495-.741zm-2.638-1.298h2.646c-.035-.4-.137-.7-.305-.898a1.236 1.236 0 0 0-.994-.465c-.369 0-.681.125-.933.371-.248.245-.389.578-.414.992zM315.958 116.391l.83.104c-.132.486-.373.861-.728 1.131-.356.268-.807.398-1.356.398-.695 0-1.246-.212-1.65-.639-.404-.43-.609-1.026-.609-1.801 0-.795.205-1.413.617-1.855.408-.44.941-.66 1.599-.66.633 0 1.151.214 1.553.646.402.432.604 1.039.604 1.82 0 .049-.002.121-.006.217h-3.537c.029.521.179.92.441 1.195.266.277.598.416.994.416.293 0 .545-.076.752-.231.209-.155.373-.401.496-.741zm-2.638-1.298h2.648c-.035-.4-.139-.7-.305-.898a1.234 1.234 0 0 0-.996-.465c-.369 0-.679.125-.931.371-.25.248-.389.578-.416.992zM317.802 117.917v-6.545h.805v3.731l1.9-1.927h1.041l-1.812 1.76 1.994 2.979h-.99l-1.565-2.424-.568.547v1.881l-.805-.002zM322.048 116.503l.795-.125c.045.318.166.562.373.731.203.171.488.257.854.257.369 0 .646-.074.822-.226.178-.149.269-.326.269-.528a.49.49 0 0 0-.236-.43c-.109-.072-.383-.164-.822-.273-.59-.146-.996-.275-1.225-.387a1.178 1.178 0 0 1-.521-.451 1.207 1.207 0 0 1-.176-.637c0-.21.049-.404.146-.586.096-.182.229-.33.395-.451a1.68 1.68 0 0 1 .512-.232 2.36 2.36 0 0 1 .693-.097c.373 0 .699.055.98.161.28.107.487.252.62.438.136.183.228.427.277.731l-.787.109a.86.86 0 0 0-.309-.571c-.172-.137-.412-.206-.728-.206-.368 0-.633.062-.791.185-.155.123-.233.264-.233.429 0 .103.031.196.098.28a.73.73 0 0 0 .31.216c.077.028.315.099.709.206.567.15.965.273 1.19.373.223.096.4.236.529.422.127.182.188.41.188.687 0 .27-.078.521-.233.759-.156.235-.381.42-.676.547-.296.13-.63.197-1 .197-.617 0-1.087-.129-1.408-.388-.32-.257-.525-.637-.615-1.14z"/></g><g><path d="M292.31 127.363v.771h-4.326a1.403 1.403 0 0 1 .095-.558 2.97 2.97 0 0 1 .528-.871c.242-.287.595-.614 1.052-.99.711-.586 1.19-1.047 1.442-1.387.248-.344.375-.662.375-.97 0-.317-.115-.586-.342-.807-.229-.218-.525-.326-.894-.326-.387 0-.692.116-.928.349-.231.232-.352.553-.354.963l-.826-.084c.055-.617.27-1.084.639-1.405.369-.324.865-.485 1.486-.485.629 0 1.123.172 1.492.523.364.349.549.779.549 1.296 0 .262-.055.519-.162.771a2.95 2.95 0 0 1-.533.801c-.248.281-.66.664-1.237 1.153-.482.404-.791.679-.933.822-.137.146-.25.291-.338.435h3.215v-.001zM297.396 127.363v.771h-4.326a1.336 1.336 0 0 1 .095-.558c.108-.293.285-.586.526-.871.244-.287.597-.614 1.054-.99.711-.586 1.19-1.047 1.442-1.387.25-.344.375-.662.375-.97 0-.317-.115-.586-.342-.807-.229-.218-.523-.326-.891-.326-.388 0-.695.116-.931.349-.231.232-.35.553-.354.963l-.824-.084c.055-.617.266-1.084.637-1.405.371-.324.867-.485 1.488-.485.627 0 1.123.172 1.49.523.367.349.549.779.549 1.296 0 .262-.053.519-.16.771-.106.254-.285.521-.535.801-.248.281-.66.664-1.237 1.153-.482.404-.791.679-.931.822a2.72 2.72 0 0 0-.34.435h3.215v-.001zM301.898 128.133l-1.453-4.743h.83l.756 2.736.281 1.021.244-.979.754-2.777h.828l.707 2.751.238.908.271-.917.814-2.742h.781l-1.482 4.745h-.834l-.754-2.84-.185-.808-.959 3.647-.837-.002zM310.872 126.607l.832.105c-.134.484-.377.863-.729 1.128-.354.268-.807.401-1.358.401-.691 0-1.244-.215-1.648-.641-.406-.43-.609-1.027-.609-1.797 0-.798.203-1.417.617-1.857.408-.441.943-.662 1.598-.662.636 0 1.15.215 1.554.646.402.432.604 1.039.604 1.822 0 .051-.002.119-.006.216h-3.537c.031.521.179.921.443 1.198.264.275.596.414.99.414.295 0 .547-.078.754-.231.208-.155.37-.402.495-.742zm-2.638-1.298h2.646c-.035-.399-.137-.696-.305-.897a1.231 1.231 0 0 0-.994-.463c-.369 0-.681.123-.933.367-.248.248-.389.579-.414.993zM315.958 126.607l.83.105c-.132.484-.373.863-.728 1.128-.356.268-.807.401-1.356.401-.695 0-1.246-.215-1.65-.641-.404-.43-.609-1.027-.609-1.797 0-.798.205-1.417.617-1.857.408-.441.941-.662 1.599-.662.633 0 1.151.215 1.553.646.402.432.604 1.039.604 1.822 0 .051-.002.119-.006.216h-3.537c.029.521.179.921.441 1.198.266.275.598.414.994.414.293 0 .545-.078.752-.231.209-.155.373-.402.496-.742zm-2.638-1.298h2.648c-.035-.399-.139-.696-.305-.897a1.23 1.23 0 0 0-.996-.463c-.369 0-.679.123-.931.367-.25.248-.389.579-.416.993zM317.802 128.133v-6.546h.805v3.731l1.902-1.929h1.041l-1.814 1.761 1.996 2.982h-.989l-1.568-2.423-.566.543v1.88h-.807v.001zM322.048 126.719l.795-.126c.045.32.166.564.373.736.203.168.488.254.854.254.369 0 .646-.076.822-.226.178-.149.269-.325.269-.53a.49.49 0 0 0-.236-.43c-.109-.07-.383-.16-.822-.271-.59-.147-.996-.277-1.225-.387a1.205 1.205 0 0 1-.521-.449 1.217 1.217 0 0 1-.176-.64 1.272 1.272 0 0 1 .541-1.034c.125-.093.295-.17.512-.234.216-.065.447-.098.693-.098.373 0 .699.055.98.162.28.106.487.252.62.436.136.184.228.428.277.734l-.787.107a.866.866 0 0 0-.309-.572c-.172-.136-.412-.203-.728-.203-.368 0-.633.062-.791.183-.155.122-.233.264-.233.429 0 .104.031.199.098.281a.722.722 0 0 0 .31.215c.077.031.315.1.709.206.567.151.965.274 1.19.373.223.096.4.235.529.422.127.185.188.411.188.687 0 .268-.078.521-.233.758-.156.236-.381.42-.676.551-.296.127-.63.193-1 .193-.617 0-1.087-.127-1.408-.386-.321-.258-.525-.639-.615-1.141z"/></g><g><path d="M292.31 138.156v.772h-4.326a1.4 1.4 0 0 1 .095-.56 2.98 2.98 0 0 1 .528-.873c.242-.285.595-.614 1.052-.992.711-.581 1.19-1.045 1.442-1.385.248-.34.375-.664.375-.965 0-.32-.115-.592-.342-.809-.229-.219-.525-.328-.894-.328-.387 0-.692.115-.928.348-.231.232-.352.553-.354.965l-.826-.082c.055-.616.27-1.088.639-1.409.369-.322.865-.484 1.486-.484.629 0 1.123.177 1.492.522.364.349.549.781.549 1.296 0 .264-.055.52-.162.772a2.943 2.943 0 0 1-.533.799c-.248.279-.66.664-1.237 1.152-.482.406-.791.682-.933.824-.137.145-.25.291-.338.436h3.215v.001zM293.171 135.699c0-.773.08-1.396.24-1.867.157-.474.395-.836.709-1.092.312-.257.709-.386 1.186-.386.353 0 .658.074.924.213.265.142.482.347.656.613.172.267.309.592.406.976.098.381.146.897.146 1.545 0 .77-.078 1.389-.235 1.858-.158.476-.394.838-.709 1.097-.312.26-.711.387-1.188.387-.631 0-1.127-.228-1.486-.68-.432-.548-.649-1.435-.649-2.664zm.826 0c0 1.075.125 1.791.379 2.146.25.356.561.532.93.532.367 0 .678-.176.93-.534.252-.355.379-1.072.379-2.146 0-1.074-.127-1.789-.379-2.146-.252-.354-.563-.531-.938-.531-.369 0-.664.154-.885.472-.277.395-.416 1.133-.416 2.207zM301.898 138.928l-1.453-4.746h.83l.756 2.74.281 1.018.244-.977.754-2.781h.828l.707 2.752.238.908.271-.918.814-2.742h.781l-1.482 4.746h-.834l-.754-2.843-.185-.807-.959 3.648-.837.002zM310.872 137.399l.832.104c-.134.484-.377.861-.729 1.131-.354.266-.807.398-1.358.398-.691 0-1.244-.211-1.648-.64-.406-.428-.609-1.026-.609-1.799 0-.797.203-1.416.617-1.856.408-.439.943-.662 1.598-.662.636 0 1.15.217 1.554.647.402.431.604 1.039.604 1.821 0 .05-.002.119-.006.216h-3.537c.031.521.179.922.443 1.198.264.275.596.414.99.414.295 0 .547-.075.754-.231.208-.152.37-.4.495-.741zm-2.638-1.299h2.646c-.035-.399-.137-.697-.305-.896a1.227 1.227 0 0 0-.994-.465c-.369 0-.681.123-.933.37-.248.247-.389.577-.414.991zM315.958 137.399l.83.104c-.132.484-.373.861-.728 1.131-.356.266-.807.398-1.356.398-.695 0-1.246-.211-1.65-.64-.404-.428-.609-1.026-.609-1.799 0-.797.205-1.416.617-1.856.408-.439.941-.662 1.599-.662.633 0 1.151.217 1.553.647.402.433.604 1.039.604 1.821 0 .05-.002.119-.006.216h-3.537c.029.521.179.922.441 1.198.264.275.598.414.994.414.293 0 .545-.075.752-.231.209-.152.373-.4.496-.741zm-2.638-1.299h2.648c-.035-.399-.139-.697-.305-.896a1.226 1.226 0 0 0-.996-.465c-.369 0-.679.123-.931.37-.25.247-.389.577-.416.991zM317.802 138.928v-6.547h.805v3.731l1.902-1.932h1.041l-1.814 1.76 1.996 2.984h-.989l-1.568-2.426-.566.545v1.883l-.807.002zM322.048 137.51l.795-.123c.045.317.166.562.373.733.203.166.488.254.854.254.369 0 .646-.073.822-.223.178-.152.269-.326.269-.533a.496.496 0 0 0-.236-.428c-.109-.072-.383-.162-.822-.271-.59-.146-.996-.276-1.225-.387-.228-.108-.4-.26-.521-.451a1.201 1.201 0 0 1-.176-.637c0-.213.049-.406.146-.588a1.32 1.32 0 0 1 .395-.449c.125-.092.295-.17.512-.233a2.5 2.5 0 0 1 .693-.097c.373 0 .699.054.98.16.28.109.487.254.62.438.136.182.228.428.277.733l-.787.107a.864.864 0 0 0-.309-.572c-.172-.137-.412-.205-.728-.205-.368 0-.633.062-.791.185-.155.12-.233.262-.233.43 0 .104.031.197.098.281a.74.74 0 0 0 .31.215c.077.028.315.097.709.205.567.151.965.274 1.19.371.223.1.4.239.529.424.127.185.188.412.188.688 0 .267-.078.521-.233.759a1.527 1.527 0 0 1-.676.547c-.296.131-.63.194-1 .194-.617 0-1.087-.129-1.408-.385-.32-.259-.525-.636-.615-1.142z"/></g><g><path d="M291.113 156.558h-.803v-5.123a4.227 4.227 0 0 1-.762.555 5.443 5.443 0 0 1-.848.416v-.779c.45-.211.842-.469 1.18-.768.336-.301.574-.592.715-.875h.518v6.574zM297.343 151.617l-.801.062c-.072-.316-.172-.545-.304-.689a1.074 1.074 0 0 0-.803-.344c-.26 0-.481.072-.676.215-.254.186-.453.453-.6.809-.146.355-.222.859-.228 1.516.193-.295.43-.514.709-.656.279-.145.572-.215.883-.215.535 0 .99.195 1.367.592.377.395.566.902.566 1.529 0 .408-.09.791-.267 1.143a1.944 1.944 0 0 1-.729.812 2 2 0 0 1-1.055.281c-.668 0-1.216-.246-1.64-.74-.422-.494-.633-1.305-.633-2.436 0-1.264.232-2.184.699-2.76.408-.5.957-.75 1.647-.75.515 0 .937.146 1.265.434.336.288.534.687.6 1.197zm-3.281 2.822c0 .277.06.543.176.793.115.252.281.447.492.578.213.133.435.199.666.199.34 0 .633-.139.875-.41.244-.273.367-.646.367-1.117 0-.453-.119-.812-.361-1.07a1.185 1.185 0 0 0-.911-.393c-.361 0-.671.131-.925.393-.254.263-.379.601-.379 1.027zM301.898 156.558l-1.453-4.742h.83l.756 2.736.281 1.02.244-.977.754-2.777h.828l.707 2.75.238.906.271-.916.814-2.742h.781l-1.482 4.744h-.834l-.754-2.842-.185-.809-.959 3.648h-.837v.001zM310.872 155.031l.832.105c-.134.482-.377.857-.729 1.129-.354.266-.807.4-1.358.4-.691 0-1.244-.215-1.648-.643-.406-.428-.609-1.025-.609-1.797 0-.797.203-1.416.617-1.857.408-.439.943-.66 1.598-.66.636 0 1.15.217 1.554.646.401.432.604 1.039.604 1.824 0 .047-.002.119-.006.215h-3.537c.031.52.179.92.443 1.197.264.273.596.412.99.412.295 0 .547-.074.754-.23.208-.153.37-.401.495-.741zm-2.638-1.299h2.646c-.035-.4-.137-.697-.305-.896a1.23 1.23 0 0 0-.994-.465c-.369 0-.681.123-.933.371-.248.246-.389.578-.414.99zM315.958 155.031l.83.105c-.132.482-.373.857-.728 1.129-.356.266-.807.4-1.356.4-.695 0-1.246-.215-1.65-.643s-.609-1.025-.609-1.797c0-.797.205-1.416.617-1.857.408-.439.941-.66 1.599-.66.633 0 1.151.217 1.553.646.402.432.604 1.039.604 1.824 0 .047-.002.119-.006.215h-3.537c.029.52.179.92.441 1.197.266.273.598.412.994.412.293 0 .545-.074.752-.23.209-.153.373-.401.496-.741zm-2.638-1.299h2.648c-.035-.4-.139-.697-.305-.896a1.229 1.229 0 0 0-.996-.465c-.369 0-.679.123-.931.371-.25.246-.389.578-.416.99zM317.802 156.558v-6.547h.805v3.73l1.902-1.928h1.041l-1.814 1.758 1.996 2.984h-.989l-1.568-2.426-.566.545v1.881h-.806v.003zM322.048 155.142l.795-.123c.045.316.166.561.373.73.203.17.488.258.854.258.369 0 .646-.074.822-.227.177-.15.269-.326.269-.527a.49.49 0 0 0-.236-.43c-.109-.074-.383-.164-.822-.271-.59-.148-.996-.279-1.225-.391a1.18 1.18 0 0 1-.521-.449 1.201 1.201 0 0 1-.176-.637c0-.213.049-.406.146-.588.096-.182.229-.33.395-.449a1.61 1.61 0 0 1 .512-.232c.216-.064.447-.098.693-.098.373 0 .699.055.98.16.28.107.487.252.62.438.136.184.228.428.277.734l-.787.107a.864.864 0 0 0-.309-.572c-.172-.137-.412-.203-.728-.203-.368 0-.633.061-.791.182-.155.123-.233.264-.233.43a.43.43 0 0 0 .098.281.713.713 0 0 0 .31.215c.077.029.315.098.709.205.567.15.965.273 1.19.373.223.098.4.236.529.424.127.182.188.41.188.688 0 .266-.078.521-.233.758a1.508 1.508 0 0 1-.676.547c-.296.131-.63.195-1 .195-.617 0-1.087-.127-1.408-.385-.32-.26-.525-.637-.615-1.143z"/></g><g><path d="M291.113 186.054h-.803v-5.123a4.326 4.326 0 0 1-.762.555 5.054 5.054 0 0 1-.848.412v-.775c.45-.211.842-.469 1.18-.768.336-.301.574-.592.715-.877h.518v6.576zM297.396 185.281v.773h-4.326a1.341 1.341 0 0 1 .095-.561c.108-.293.285-.584.526-.871.244-.285.597-.613 1.054-.99.711-.584 1.19-1.047 1.442-1.387.25-.342.375-.664.375-.969 0-.318-.115-.586-.342-.807-.229-.219-.523-.328-.891-.328-.388 0-.695.117-.931.35-.231.232-.35.553-.354.965l-.824-.084c.055-.615.266-1.088.637-1.406.371-.322.867-.486 1.488-.486.627 0 1.123.176 1.49.521.367.352.549.779.549 1.299 0 .262-.053.518-.16.77a2.902 2.902 0 0 1-.535.799c-.248.281-.66.664-1.237 1.154-.482.404-.791.678-.931.824a2.473 2.473 0 0 0-.34.434h3.215zM301.898 186.054l-1.453-4.744h.83l.756 2.738.281 1.02.244-.979.754-2.779h.828l.707 2.752.238.906.271-.916.814-2.742h.781l-1.482 4.744h-.834l-.754-2.844-.185-.807-.959 3.65h-.837v.001zM310.872 184.527l.832.104c-.134.484-.377.861-.729 1.129-.354.268-.807.402-1.358.402-.691 0-1.244-.215-1.648-.643-.406-.426-.609-1.025-.609-1.797 0-.797.203-1.416.617-1.857.408-.439.943-.66 1.598-.66.636 0 1.15.213 1.554.646.401.432.604 1.039.604 1.822 0 .049-.002.117-.006.215h-3.537c.031.52.179.92.443 1.195.264.277.596.414.99.414.295 0 .547-.074.754-.229.208-.155.37-.401.495-.741zm-2.638-1.301h2.646c-.035-.4-.137-.697-.305-.896a1.23 1.23 0 0 0-.994-.465c-.369 0-.681.123-.933.371-.248.246-.389.576-.414.99zM315.958 184.527l.83.104c-.132.484-.373.861-.728 1.129-.356.268-.807.402-1.356.402-.695 0-1.246-.215-1.65-.643-.404-.426-.609-1.025-.609-1.797 0-.797.205-1.416.617-1.857.408-.439.941-.66 1.599-.66.633 0 1.151.213 1.553.646.402.432.604 1.039.604 1.822 0 .049-.002.117-.006.215h-3.537c.029.52.179.92.441 1.195.266.277.598.414.994.414.293 0 .545-.074.752-.229.209-.155.373-.401.496-.741zm-2.638-1.301h2.648c-.035-.4-.139-.697-.305-.896a1.229 1.229 0 0 0-.996-.465c-.369 0-.679.123-.931.371s-.389.576-.416.99zM317.802 186.054v-6.547h.805v3.73l1.902-1.93h1.041l-1.814 1.76 1.996 2.98h-.989l-1.568-2.422-.566.545v1.881h-.806v.003zM322.048 184.636l.795-.123c.045.316.166.562.373.732.203.166.488.254.854.254.369 0 .646-.072.822-.227.178-.148.269-.326.269-.527a.488.488 0 0 0-.236-.428c-.109-.072-.383-.164-.822-.273-.59-.148-.996-.275-1.225-.387a1.21 1.21 0 0 1-.521-.451 1.196 1.196 0 0 1-.176-.637c0-.213.049-.406.146-.588a1.32 1.32 0 0 1 .395-.449 1.61 1.61 0 0 1 .512-.232c.216-.064.447-.098.693-.098.373 0 .699.055.98.16.28.107.487.252.62.438.136.184.228.43.277.734l-.787.105a.859.859 0 0 0-.309-.57c-.172-.137-.412-.205-.728-.205-.368 0-.633.062-.791.186-.155.119-.233.264-.233.43 0 .104.031.197.098.279a.733.733 0 0 0 .31.217c.077.029.315.096.709.205.567.15.965.273 1.19.373.223.098.4.236.529.42.127.186.188.414.188.688 0 .27-.078.521-.233.758a1.515 1.515 0 0 1-.676.551c-.296.127-.63.193-1 .193-.617 0-1.087-.127-1.408-.385-.32-.26-.525-.637-.615-1.143z"/></g></svg>