<svg version="1.1" xmlns="http://www.w3.org/2000/svg" x="0" y="0" width="325.984" height="120.854" viewBox="0 0 325.984 120.854" xml:space="preserve"><path d="M-.002 104.307v-6.206h4.488v.73H.819v1.901h3.434v.729H.819v2.112H4.63v.731l-4.632.003zM8.585 104.307v-.566c-.286.445-.705.67-1.257.67-.358 0-.688-.1-.989-.298a1.935 1.935 0 0 1-.698-.827 2.861 2.861 0 0 1-.248-1.222c0-.447.074-.854.226-1.221.148-.364.373-.646.673-.841a1.802 1.802 0 0 1 1.002-.291c.271 0 .513.057.726.17.213.114.385.266.518.447V98.1h.757v6.208l-.71-.001zm-2.41-2.244c0 .576.122 1.005.364 1.29.243.286.529.429.86.429.333 0 .615-.138.849-.409s.35-.688.35-1.246c0-.615-.118-1.067-.355-1.355s-.529-.433-.876-.433c-.338 0-.621.14-.85.416-.229.276-.342.713-.342 1.308zM10.349 104.68l.74.109c.032.229.117.396.259.498.188.143.447.213.774.213.354 0 .625-.07.818-.213.19-.141.321-.338.389-.593.039-.155.058-.479.055-.979-.332.394-.747.59-1.243.59-.617 0-1.097-.225-1.437-.671-.339-.446-.509-.979-.509-1.604 0-.431.078-.824.231-1.188.155-.362.381-.643.677-.841a1.822 1.822 0 0 1 1.04-.296c.528 0 .968.215 1.312.644v-.542h.704v3.888c0 .7-.072 1.196-.214 1.487a1.567 1.567 0 0 1-.677.691c-.311.169-.689.254-1.144.254-.536 0-.969-.121-1.3-.36-.325-.239-.485-.603-.475-1.087zm.632-2.701c0 .59.116 1.021.351 1.292.234.271.528.405.88.405s.646-.135.881-.403c.236-.271.355-.691.355-1.27 0-.55-.122-.965-.366-1.244-.244-.278-.538-.419-.883-.419-.339 0-.627.139-.864.414-.237.274-.354.683-.354 1.225zM18.389 102.861l.786.096c-.125.46-.354.817-.688 1.071-.335.255-.766.383-1.287.383-.658 0-1.18-.201-1.565-.605-.385-.406-.577-.975-.577-1.705 0-.758.194-1.344.583-1.762.39-.417.896-.627 1.517-.627.602 0 1.093.205 1.473.613.382.408.572.984.572 1.727 0 .048 0 .113-.004.203h-3.354c.027.494.167.873.418 1.137.251.262.563.395.939.395.279 0 .519-.073.715-.223.2-.15.358-.383.472-.703zm-2.502-1.235h2.511c-.034-.379-.129-.661-.288-.854a1.171 1.171 0 0 0-.944-.438c-.35 0-.645.117-.884.354-.237.234-.369.546-.395.938zM22.259 102.059c0-.832.231-1.448.694-1.85.387-.335.858-.5 1.414-.5.618 0 1.123.203 1.516.605.395.406.589.966.589 1.682 0 .578-.087 1.032-.261 1.363a1.824 1.824 0 0 1-.757.772 2.202 2.202 0 0 1-1.086.274c-.629 0-1.138-.201-1.526-.605-.388-.399-.583-.98-.583-1.741zm.784 0c0 .575.125 1.008.377 1.294s.567.431.948.431c.379 0 .693-.145.944-.433s.377-.729.377-1.316c0-.557-.126-.978-.38-1.264a1.202 1.202 0 0 0-.941-.431c-.381 0-.697.144-.948.429s-.377.714-.377 1.29zM27.548 104.307v-3.903h-.673v-.593h.673v-.479c0-.302.026-.526.08-.674a.96.96 0 0 1 .389-.479c.186-.125.443-.186.775-.186.215 0 .452.023.711.074l-.113.665a2.781 2.781 0 0 0-.447-.041c-.231 0-.396.05-.492.147-.096.1-.145.282-.145.555v.416h.876v.593h-.876v3.903l-.758.002zM35.1 104.307v-.566c-.284.445-.703.67-1.259.67-.356 0-.688-.1-.986-.298a1.93 1.93 0 0 1-.699-.827 2.861 2.861 0 0 1-.248-1.222c0-.447.075-.854.224-1.221.149-.364.374-.646.674-.841.3-.194.634-.291 1.002-.291.271 0 .514.057.726.17.212.114.384.266.517.447V98.1h.758v6.208l-.709-.001zm-2.408-2.244c0 .576.122 1.005.363 1.29.241.286.528.429.858.429.333 0 .616-.138.85-.409.232-.271.35-.688.35-1.246 0-.615-.119-1.067-.356-1.355-.235-.288-.527-.433-.876-.433-.338 0-.62.14-.849.416-.228.276-.34.713-.34 1.308zM36.998 104.307v-4.496h.687v.683c.176-.318.338-.528.484-.632a.833.833 0 0 1 .489-.15 1.5 1.5 0 0 1 .783.244l-.264.707a1.103 1.103 0 0 0-.56-.164.734.734 0 0 0-.449.149.802.802 0 0 0-.283.418 2.946 2.946 0 0 0-.128.891v2.354h-.761l.002-.004zM39.61 102.059c0-.832.229-1.448.693-1.85.387-.335.857-.5 1.413-.5.618 0 1.124.203 1.518.605.393.406.588.966.588 1.682 0 .578-.087 1.032-.26 1.363a1.834 1.834 0 0 1-.759.772 2.2 2.2 0 0 1-1.087.274c-.629 0-1.138-.201-1.524-.605-.39-.399-.582-.98-.582-1.741zm.784 0c0 .575.125 1.008.376 1.294s.565.431.947.431c.379 0 .693-.145.944-.433s.377-.729.377-1.316c0-.557-.126-.978-.379-1.264a1.203 1.203 0 0 0-.942-.431 1.21 1.21 0 0 0-.947.429c-.251.285-.376.714-.376 1.29zM44.716 106.031V99.81h.693v.583a1.74 1.74 0 0 1 .555-.514c.206-.113.456-.171.749-.171.385 0 .725.099 1.019.295.294.198.515.479.665.837.147.359.224.753.224 1.184 0 .459-.083.875-.248 1.243a1.89 1.89 0 0 1-.72.848 1.858 1.858 0 0 1-.993.293c-.254 0-.48-.054-.685-.16a1.549 1.549 0 0 1-.498-.407v2.188l-.761.002zm.69-3.947c0 .578.117 1.006.352 1.284.235.274.52.416.853.416.339 0 .628-.145.87-.433.24-.286.36-.729.36-1.329 0-.574-.117-1.003-.354-1.289-.236-.283-.52-.426-.846-.426-.324 0-.611.15-.86.455-.25.304-.375.743-.375 1.322zM49.522 104.307v-6.206h.762v6.206h-.762zM54.543 102.861l.787.096c-.125.46-.354.817-.689 1.071-.336.255-.765.383-1.286.383-.658 0-1.181-.201-1.564-.605-.386-.406-.579-.975-.579-1.705 0-.758.195-1.344.584-1.762.391-.417.896-.627 1.517-.627.602 0 1.093.205 1.474.613s.572.984.572 1.727c0 .048-.002.113-.005.203H52c.028.494.167.873.419 1.137.251.261.564.395.939.395.277 0 .518-.073.716-.223.197-.15.353-.383.469-.703zm-2.503-1.235h2.511c-.033-.379-.13-.661-.287-.854a1.168 1.168 0 0 0-.943-.438c-.351 0-.646.117-.882.354-.241.234-.373.546-.399.938zM57.951 103.625l.11.672a2.779 2.779 0 0 1-.576.068c-.277 0-.491-.046-.646-.131a.745.745 0 0 1-.32-.346c-.062-.145-.095-.443-.095-.899v-2.588h-.558v-.594h.558v-1.112l.761-.456v1.57h.766v.593h-.766v2.632c0 .216.013.354.039.417.026.062.07.111.132.147a.508.508 0 0 0 .26.058c.085 0 .197-.01.335-.031zM64.039 102.66l.75.096c-.082.52-.292.923-.628 1.215-.338.293-.751.438-1.243.438-.614 0-1.109-.199-1.481-.603-.375-.401-.562-.979-.562-1.729 0-.486.08-.91.242-1.272.161-.365.406-.639.733-.82a2.192 2.192 0 0 1 1.072-.271c.489 0 .889.123 1.198.37.312.247.51.599.597 1.052l-.739.114c-.07-.302-.195-.527-.375-.682a.977.977 0 0 0-.65-.229c-.384 0-.696.139-.937.414-.239.273-.359.709-.359 1.307 0 .604.116 1.043.347 1.316.231.271.533.411.906.411.299 0 .549-.091.75-.274.198-.19.326-.472.379-.853zM65.424 104.307v-6.206h.765v6.206h-.765zM70.445 102.861l.788.096c-.125.46-.354.817-.69 1.071-.336.255-.765.383-1.288.383-.657 0-1.18-.201-1.562-.605-.386-.406-.578-.975-.578-1.705 0-.758.194-1.344.584-1.762.389-.417.895-.627 1.516-.627.603 0 1.093.205 1.476.613.381.408.569.984.569 1.727 0 .048-.001.113-.004.203h-3.353c.027.494.168.873.419 1.137.251.262.562.395.939.395.278 0 .52-.073.715-.223.197-.15.353-.383.469-.703zm-2.502-1.235h2.511c-.034-.379-.129-.661-.288-.854a1.168 1.168 0 0 0-.943-.438c-.351 0-.645.117-.884.354-.24.235-.37.546-.396.938zM75.124 103.751c-.283.24-.555.411-.814.51a2.348 2.348 0 0 1-.84.146c-.493 0-.874-.119-1.14-.361a1.198 1.198 0 0 1-.396-.925 1.251 1.251 0 0 1 .545-1.042c.161-.108.345-.194.547-.25.148-.04.376-.077.679-.114.614-.072 1.067-.159 1.358-.263l.005-.199c0-.31-.072-.527-.217-.655-.193-.174-.483-.261-.868-.261-.358 0-.623.062-.794.188-.172.126-.298.349-.38.667l-.744-.102c.066-.318.18-.575.334-.773.154-.195.38-.346.673-.452a3.023 3.023 0 0 1 1.02-.158c.385 0 .695.046.937.134.24.092.417.205.528.344.112.138.191.31.237.52.026.13.038.362.038.704v1.016c0 .709.017 1.155.048 1.346.033.188.098.365.194.539h-.796a1.595 1.595 0 0 1-.154-.559zm-.066-1.701c-.275.113-.689.208-1.244.288-.312.047-.535.097-.665.152a.69.69 0 0 0-.302.246.655.655 0 0 0-.104.363c0 .201.077.373.23.508.152.137.379.202.676.202.293 0 .555-.062.781-.191.229-.128.396-.306.504-.528.082-.172.123-.426.123-.762l.001-.278zM77.003 104.307v-4.496h.688v.683c.175-.318.336-.528.484-.632a.83.83 0 0 1 .487-.15c.257 0 .52.082.784.244l-.265.707a1.1 1.1 0 0 0-.559-.164.73.73 0 0 0-.448.149.801.801 0 0 0-.284.418 2.978 2.978 0 0 0-.127.891v2.354H77l.003-.004zM79.883 104.307v-6.206h.763v6.206h-.763zM81.792 106.039l-.085-.716c.167.046.312.066.438.066a.821.821 0 0 0 .405-.085.682.682 0 0 0 .249-.237c.049-.075.126-.267.233-.566l.067-.187-1.705-4.505h.819l.937 2.604c.122.331.229.677.325 1.041.09-.35.192-.69.313-1.024l.96-2.62h.764l-1.71 4.572c-.185.492-.327.833-.428 1.021-.136.253-.292.437-.467.553a1.094 1.094 0 0 1-.625.176 1.513 1.513 0 0 1-.49-.093zM88.287 102.059c0-.832.229-1.448.694-1.85.386-.335.855-.5 1.415-.5.616 0 1.123.203 1.515.605.394.406.588.966.588 1.682 0 .578-.087 1.032-.26 1.363a1.815 1.815 0 0 1-.758.772 2.198 2.198 0 0 1-1.085.274c-.631 0-1.141-.201-1.527-.605-.389-.399-.582-.98-.582-1.741zm.783 0c0 .575.126 1.008.377 1.294s.566.431.949.431a1.2 1.2 0 0 0 .942-.433c.25-.288.376-.729.376-1.316 0-.557-.128-.978-.378-1.264a1.203 1.203 0 0 0-.94-.431c-.383 0-.698.144-.949.429s-.377.714-.377 1.29zM96.339 104.307v-.661c-.35.508-.825.763-1.427.763-.266 0-.513-.052-.744-.151-.229-.104-.4-.229-.512-.382a1.44 1.44 0 0 1-.235-.564 3.898 3.898 0 0 1-.046-.711v-2.785h.763v2.492c0 .397.016.668.046.806.05.199.149.355.306.474.154.113.348.17.576.17.228 0 .441-.058.644-.176a.968.968 0 0 0 .425-.479c.083-.201.124-.494.124-.878v-2.41h.766v4.496l-.686-.004zM99.878 103.625l.11.672a2.779 2.779 0 0 1-.576.068c-.275 0-.491-.046-.646-.131a.735.735 0 0 1-.32-.346c-.062-.145-.093-.443-.093-.899v-2.588h-.561v-.594h.561v-1.112l.758-.456v1.57h.766v.593h-.766v2.632c0 .216.013.354.04.417.026.062.07.111.132.147s.146.058.26.058c.086 0 .198-.01.335-.031zM100.606 104.307v-6.206h.763v6.206h-.763zM102.552 98.976V98.1h.765v.876h-.765zm0 5.331v-4.496h.765v4.496h-.765zM104.475 104.307v-4.496h.688v.641c.329-.495.807-.742 1.432-.742.271 0 .521.05.746.146.229.099.397.227.511.382.112.157.19.348.235.563.028.141.042.388.042.74v2.766h-.763v-2.733c0-.312-.029-.545-.089-.697a.76.76 0 0 0-.316-.368.996.996 0 0 0-.53-.136 1.24 1.24 0 0 0-.841.309c-.235.206-.354.599-.354 1.173v2.456l-.761-.004zM112.377 102.861l.787.096c-.125.46-.354.817-.689 1.071-.336.255-.765.383-1.286.383-.658 0-1.181-.201-1.564-.605-.385-.406-.578-.975-.578-1.705 0-.758.194-1.344.584-1.762.391-.417.896-.627 1.517-.627.602 0 1.093.205 1.473.613.382.408.572.984.572 1.727 0 .048 0 .113-.004.203h-3.354c.027.494.167.873.419 1.137.25.262.563.395.939.395.279 0 .519-.073.716-.223.196-.15.351-.383.468-.703zm-2.503-1.235h2.51c-.033-.379-.129-.661-.287-.854a1.167 1.167 0 0 0-.943-.438c-.351 0-.646.117-.883.354-.239.234-.37.546-.397.938zM117.038 104.307v-.566c-.285.445-.704.67-1.258.67-.358 0-.688-.1-.989-.298a1.926 1.926 0 0 1-.697-.827 2.861 2.861 0 0 1-.248-1.222c0-.447.074-.854.226-1.221a1.77 1.77 0 0 1 .672-.841 1.8 1.8 0 0 1 1.003-.291c.271 0 .513.057.726.17.211.114.384.266.517.447V98.1h.759v6.208l-.711-.001zm-2.408-2.244c0 .576.121 1.005.364 1.29.243.286.529.429.86.429.333 0 .613-.138.849-.409.234-.271.351-.688.351-1.246 0-.615-.119-1.067-.355-1.355-.237-.288-.529-.433-.876-.433-.339 0-.622.14-.851.416-.229.276-.342.713-.342 1.308z"/><g><path d="M193.774 104.307v-6.206h4.487v.73h-3.666v1.901h3.436v.729h-3.436v2.112h3.811v.731l-4.632.003zM202.36 104.307v-.566c-.284.445-.704.67-1.258.67-.357 0-.688-.1-.988-.298a1.944 1.944 0 0 1-.699-.827 2.892 2.892 0 0 1-.247-1.222c0-.447.075-.854.225-1.221.148-.364.375-.646.674-.841.3-.194.634-.291 1.002-.291.271 0 .514.057.725.17.213.114.385.266.52.447V98.1h.758v6.208h-.706v-.001h-.006zm-2.41-2.244c0 .576.122 1.005.364 1.29.24.286.526.429.856.429.333 0 .617-.138.852-.409.231-.271.349-.688.349-1.246 0-.615-.117-1.067-.354-1.355-.234-.288-.528-.433-.877-.433-.337 0-.619.14-.85.416-.227.276-.34.713-.34 1.308zM204.125 104.68l.741.109c.031.229.116.396.258.498.189.143.448.213.775.213.353 0 .626-.07.816-.213.192-.141.322-.338.392-.593.039-.155.057-.479.055-.979-.332.394-.747.59-1.245.59-.617 0-1.096-.225-1.436-.671s-.511-.979-.511-1.604c0-.431.078-.824.233-1.188.156-.362.381-.643.674-.841a1.833 1.833 0 0 1 1.04-.296c.531 0 .969.215 1.312.644v-.542h.703v3.888c0 .7-.07 1.196-.213 1.487a1.58 1.58 0 0 1-.678.691c-.311.169-.688.254-1.143.254-.536 0-.971-.121-1.3-.36-.323-.239-.485-.603-.473-1.087zm.631-2.701c0 .59.117 1.021.354 1.292.231.271.527.405.88.405.351 0 .644-.135.88-.403.237-.271.354-.691.354-1.27 0-.55-.12-.965-.364-1.244-.244-.278-.539-.419-.884-.419-.339 0-.627.139-.863.414-.238.274-.357.683-.357 1.225zM212.166 102.861l.786.096c-.125.46-.354.817-.689 1.071-.335.255-.764.383-1.286.383-.658 0-1.183-.201-1.564-.605-.385-.406-.577-.975-.577-1.705 0-.758.194-1.344.585-1.762.389-.417.895-.627 1.515-.627.602 0 1.094.205 1.475.613.382.408.573.984.573 1.727 0 .048-.002.113-.008.203h-3.354c.028.494.166.873.419 1.137.25.262.564.395.938.395.278 0 .519-.073.717-.223.196-.15.353-.383.47-.703zm-2.503-1.235h2.511c-.033-.379-.13-.661-.287-.854a1.167 1.167 0 0 0-.943-.438 1.2 1.2 0 0 0-.884.354c-.239.234-.371.546-.397.938zM216.036 102.059c0-.832.23-1.448.693-1.85.387-.335.856-.5 1.415-.5.615 0 1.122.203 1.515.605.395.406.588.966.588 1.682 0 .578-.086 1.032-.26 1.363a1.815 1.815 0 0 1-.758.772 2.195 2.195 0 0 1-1.085.274c-.631 0-1.141-.201-1.527-.605-.388-.399-.581-.98-.581-1.741zm.783 0c0 .575.126 1.008.377 1.294s.566.431.947.431c.38 0 .691-.145.942-.433.252-.288.377-.729.377-1.316 0-.557-.127-.978-.379-1.264a1.198 1.198 0 0 0-.94-.431c-.382 0-.697.144-.947.429-.251.285-.377.714-.377 1.29zM221.323 104.307v-3.903h-.674v-.593h.674v-.479c0-.302.026-.526.08-.674a.961.961 0 0 1 .387-.479c.187-.125.445-.186.777-.186.215 0 .45.023.711.074l-.114.665a2.805 2.805 0 0 0-.449-.041c-.229 0-.396.05-.491.147-.096.1-.146.282-.146.555v.416h.878v.593h-.878v3.903h-.757v-.002h.002v.004zM228.875 104.307v-.566c-.284.445-.704.67-1.257.67-.357 0-.688-.1-.989-.298a1.949 1.949 0 0 1-.698-.827 2.876 2.876 0 0 1-.247-1.222c0-.447.074-.854.226-1.221a1.77 1.77 0 0 1 .672-.841 1.815 1.815 0 0 1 1.004-.291c.271 0 .513.057.725.17.214.114.386.266.518.447V98.1h.758v6.208h-.706v-.001h-.006zm-2.408-2.244c0 .576.121 1.005.365 1.29.242.286.528.429.858.429.333 0 .615-.138.85-.409s.35-.688.35-1.246c0-.615-.118-1.067-.354-1.355-.237-.288-.528-.433-.877-.433-.339 0-.621.14-.85.416-.23.276-.342.713-.342 1.308zM230.773 104.307v-4.496h.687v.683c.174-.318.337-.528.485-.632a.827.827 0 0 1 .487-.15c.258 0 .52.082.782.244l-.264.707a1.096 1.096 0 0 0-.557-.164.74.74 0 0 0-.451.149.807.807 0 0 0-.284.418 2.946 2.946 0 0 0-.128.891v2.354h-.76l.003-.004zM233.385 102.059c0-.832.229-1.448.692-1.85.385-.335.855-.5 1.415-.5.616 0 1.123.203 1.514.605.396.406.59.966.59 1.682 0 .578-.089 1.032-.262 1.363a1.807 1.807 0 0 1-.757.772 2.195 2.195 0 0 1-1.085.274c-.631 0-1.139-.201-1.527-.605-.385-.399-.58-.98-.58-1.741zm.784 0c0 .575.125 1.008.377 1.294.251.286.567.431.948.431.379 0 .693-.145.943-.433.253-.288.379-.729.379-1.316 0-.557-.128-.978-.38-1.264a1.204 1.204 0 0 0-.942-.431 1.21 1.21 0 0 0-.948.429c-.252.285-.377.714-.377 1.29zM238.492 106.031V99.81h.692v.583c.164-.229.349-.397.557-.514.205-.113.455-.171.748-.171.384 0 .723.099 1.017.295.294.198.517.479.665.837.149.359.226.753.226 1.184 0 .459-.082.875-.247 1.243a1.876 1.876 0 0 1-.722.848 1.85 1.85 0 0 1-.992.293c-.254 0-.481-.054-.686-.16a1.53 1.53 0 0 1-.496-.407v2.188l-.762.002zm.689-3.947c0 .578.115 1.006.353 1.284.233.274.519.416.852.416.339 0 .629-.145.869-.433.241-.286.362-.729.362-1.329 0-.574-.118-1.003-.354-1.289-.236-.285-.52-.426-.847-.426-.325 0-.611.15-.86.455-.25.304-.375.743-.375 1.322zM243.297 104.307v-6.206h.763v6.206h-.763zM248.319 102.861l.787.096c-.124.46-.354.817-.69 1.071-.336.255-.766.383-1.287.383-.656 0-1.18-.201-1.562-.605-.386-.406-.578-.975-.578-1.705 0-.758.193-1.344.583-1.762.391-.417.896-.627 1.518-.627.602 0 1.092.205 1.475.613.382.408.568.984.568 1.727l-.003.203h-3.354c.028.494.168.873.419 1.137.25.261.562.395.938.395.28 0 .521-.073.717-.223.195-.15.352-.383.469-.703zm-2.503-1.235h2.511c-.034-.379-.129-.661-.288-.854a1.164 1.164 0 0 0-.943-.438 1.2 1.2 0 0 0-.882.354c-.242.234-.373.546-.398.938zM251.725 103.625l.109.672a2.771 2.771 0 0 1-.576.068c-.274 0-.489-.046-.643-.131a.75.75 0 0 1-.322-.346c-.062-.145-.092-.443-.092-.899v-2.588h-.562v-.594h.562v-1.112l.757-.456v1.57h.768v.593h-.768v2.632c0 .216.015.354.041.417a.301.301 0 0 0 .129.147.519.519 0 0 0 .262.058c.087 0 .199-.01.335-.031zM254.88 104.307v-4.496h.688v.641c.328-.495.806-.742 1.43-.742.272 0 .521.05.748.146.228.099.396.227.51.382.112.157.192.348.235.563.028.141.042.388.042.74v2.766h-.762v-2.733c0-.312-.028-.545-.089-.697a.76.76 0 0 0-.314-.368.998.998 0 0 0-.53-.136c-.325 0-.604.103-.841.309-.236.206-.354.599-.354 1.173v2.456l-.763-.004zM259.419 102.059c0-.832.23-1.448.693-1.85.388-.335.855-.5 1.415-.5.617 0 1.123.203 1.516.605.393.406.588.966.588 1.682 0 .578-.087 1.032-.261 1.363a1.818 1.818 0 0 1-.757.772 2.202 2.202 0 0 1-1.086.274c-.631 0-1.14-.201-1.527-.605-.387-.399-.581-.98-.581-1.741zm.784 0c0 .575.124 1.008.377 1.294.25.286.565.431.947.431a1.2 1.2 0 0 0 .943-.433c.251-.288.377-.729.377-1.316 0-.557-.126-.978-.379-1.264a1.204 1.204 0 0 0-.941-.431c-.382 0-.697.144-.947.429-.253.285-.377.714-.377 1.29zM266.19 103.625l.106.672a2.755 2.755 0 0 1-.575.068c-.274 0-.489-.046-.644-.131a.73.73 0 0 1-.322-.346c-.062-.145-.092-.443-.092-.899v-2.588h-.561v-.594h.561v-1.112l.757-.456v1.57h.768v.593h-.768v2.632c0 .216.016.354.039.417a.318.318 0 0 0 .132.147.52.52 0 0 0 .263.058c.085 0 .197-.01.336-.031zM272.278 102.66l.748.096c-.082.52-.291.923-.627 1.215-.34.293-.752.438-1.244.438-.615 0-1.109-.199-1.483-.603-.375-.401-.562-.979-.562-1.729 0-.486.08-.91.239-1.272.161-.365.405-.639.734-.82a2.193 2.193 0 0 1 1.073-.271c.486 0 .889.123 1.198.37.311.247.51.599.597 1.052l-.741.114c-.069-.302-.195-.527-.375-.682a.964.964 0 0 0-.647-.229c-.386 0-.697.139-.938.414-.24.273-.359.709-.359 1.307 0 .604.115 1.043.348 1.316.229.271.533.411.905.411.301 0 .55-.091.749-.274.203-.19.329-.472.385-.853zM273.661 104.307v-6.206h.762v6.206h-.762zM278.682 102.861l.787.096c-.124.46-.354.817-.689 1.071-.335.255-.766.383-1.286.383-.658 0-1.18-.201-1.564-.605-.386-.406-.577-.975-.577-1.705 0-.758.193-1.344.583-1.762.391-.417.896-.627 1.516-.627.603 0 1.095.205 1.473.613.383.408.573.984.573 1.727 0 .048-.002.113-.005.203h-3.354c.026.494.167.873.419 1.137.251.262.563.395.938.395.279 0 .519-.073.716-.223.198-.15.355-.383.47-.703zm-2.502-1.235h2.513c-.033-.379-.131-.661-.288-.854a1.17 1.17 0 0 0-.943-.438c-.35 0-.645.117-.884.354-.241.234-.372.546-.398.938zM283.362 103.751c-.281.24-.555.411-.814.51a2.364 2.364 0 0 1-.843.146c-.492 0-.872-.119-1.138-.361-.269-.239-.397-.55-.397-.925 0-.222.052-.422.149-.604.1-.182.23-.327.395-.438.162-.108.345-.194.548-.25.149-.04.377-.077.678-.114.614-.072 1.066-.159 1.358-.263l.003-.199c0-.31-.069-.527-.217-.655-.193-.174-.482-.261-.867-.261-.355 0-.624.062-.794.188-.171.126-.297.349-.379.667l-.746-.102a1.91 1.91 0 0 1 .334-.773c.156-.195.381-.346.674-.452a3.041 3.041 0 0 1 1.021-.158c.382 0 .695.046.937.134.237.092.416.205.527.344.112.138.191.31.237.52.021.13.037.362.037.704v1.016c0 .709.017 1.155.05 1.346.032.188.095.365.191.539h-.797a1.735 1.735 0 0 1-.147-.559zm-.064-1.701c-.273.113-.689.208-1.244.288-.312.047-.533.097-.665.152a.693.693 0 0 0-.303.246.663.663 0 0 0-.104.363c0 .201.076.373.229.508.155.137.38.202.676.202.293 0 .557-.062.781-.191a1.19 1.19 0 0 0 .505-.528c.082-.172.123-.426.123-.762l.002-.278zM285.241 104.307v-4.496h.687v.683c.175-.318.337-.528.484-.632a.833.833 0 0 1 .489-.15c.258 0 .519.082.781.244l-.264.707a1.1 1.1 0 0 0-.559-.164.74.74 0 0 0-.45.149.811.811 0 0 0-.283.418 2.947 2.947 0 0 0-.127.891v2.354h-.761l.003-.004zM288.12 104.307v-6.206h.762v6.206h-.762zM290.029 106.039l-.086-.716c.168.046.312.066.437.066a.822.822 0 0 0 .407-.085.695.695 0 0 0 .251-.237c.048-.075.126-.267.231-.566.016-.041.037-.104.066-.187l-1.706-4.505h.82l.937 2.604c.121.331.23.677.326 1.041.087-.35.19-.69.312-1.024l.963-2.62h.763l-1.712 4.572c-.183.492-.325.833-.428 1.021-.135.253-.29.437-.465.553a1.098 1.098 0 0 1-.628.176 1.526 1.526 0 0 1-.488-.093zM296.525 102.059c0-.832.23-1.448.694-1.85.387-.335.856-.5 1.412-.5.617 0 1.123.203 1.518.605.392.406.588.966.588 1.682 0 .578-.087 1.032-.259 1.363a1.84 1.84 0 0 1-.761.772c-.33.184-.691.274-1.086.274-.629 0-1.139-.201-1.525-.605-.387-.399-.581-.98-.581-1.741zm.781 0c0 .575.128 1.008.38 1.294a1.2 1.2 0 0 0 .945.431 1.2 1.2 0 0 0 .944-.433c.251-.288.377-.729.377-1.316 0-.557-.126-.978-.379-1.264a1.203 1.203 0 0 0-.942-.431c-.382 0-.695.144-.945.429-.252.285-.38.714-.38 1.29zM304.576 104.307v-.661c-.35.508-.824.763-1.427.763-.268 0-.515-.052-.743-.151-.231-.104-.4-.229-.513-.382a1.47 1.47 0 0 1-.235-.564 3.768 3.768 0 0 1-.048-.711v-2.785h.764v2.492c0 .397.017.668.046.806.051.199.15.355.308.474.153.113.348.17.575.17.229 0 .442-.058.644-.176a.961.961 0 0 0 .424-.479c.084-.201.127-.494.127-.878v-2.41h.763v4.496l-.685-.004zM308.116 103.625l.108.672a2.762 2.762 0 0 1-.575.068c-.276 0-.491-.046-.645-.131a.745.745 0 0 1-.32-.346c-.062-.145-.094-.443-.094-.899v-2.588h-.559v-.594h.559v-1.112l.761-.456v1.57h.765v.593h-.765v2.632c0 .216.014.354.038.417.026.062.07.111.132.147.06.036.146.058.261.058.084 0 .197-.01.334-.031zM308.844 104.307v-6.206h.763v6.206h-.763zM310.793 98.976V98.1h.763v.876h-.763zm0 5.331v-4.496h.763v4.496h-.763zM312.715 104.307v-4.496h.688v.641c.331-.495.808-.742 1.432-.742.271 0 .521.05.747.146.228.099.396.227.509.382.113.157.193.348.237.563.027.141.043.388.043.74v2.766h-.763v-2.733c0-.312-.03-.545-.091-.697a.746.746 0 0 0-.312-.368 1.003 1.003 0 0 0-.532-.136c-.322 0-.604.103-.84.309-.234.206-.354.599-.354 1.173v2.456l-.764-.004zM320.615 102.861l.786.096c-.125.46-.354.817-.69 1.071-.336.255-.764.383-1.287.383-.656 0-1.18-.201-1.562-.605-.386-.406-.578-.975-.578-1.705 0-.758.194-1.344.583-1.762.391-.417.896-.627 1.518-.627.602 0 1.091.205 1.474.613.382.408.57.984.57 1.727l-.003.203h-3.354c.026.494.167.873.417 1.137.253.262.565.395.94.395.278 0 .518-.073.717-.223.198-.15.353-.383.469-.703zm-2.502-1.235h2.511c-.034-.379-.13-.661-.288-.854a1.165 1.165 0 0 0-.943-.438c-.351 0-.646.117-.883.354-.24.234-.372.546-.397.938zM325.276 104.307v-.566c-.285.445-.704.67-1.256.67-.36 0-.689-.1-.991-.298a1.931 1.931 0 0 1-.696-.827 2.847 2.847 0 0 1-.249-1.222c0-.447.075-.854.226-1.221.149-.364.375-.646.675-.841a1.797 1.797 0 0 1 1.002-.291c.271 0 .513.057.725.17.211.114.384.266.518.447V98.1h.759v6.208h-.707v-.001h-.006zm-2.409-2.244c0 .576.122 1.005.364 1.29.241.286.527.429.857.429.334 0 .615-.138.851-.409.232-.271.35-.688.35-1.246 0-.615-.119-1.067-.354-1.355-.237-.288-.528-.433-.876-.433-.341 0-.622.14-.853.416-.224.276-.339.713-.339 1.308z"/></g><g stroke="#000" stroke-width=".216" stroke-miterlimit="10"><path d="M45.871 6.854c1.131 0 2.074-.941 2.074-2.073s-.943-2.073-2.074-2.073-2.073.941-2.073 2.073c0 1.13.942 2.073 2.073 2.073zM50.207 5.597a2.09 2.09 0 0 0 2.073-2.073c0-1.131-.942-2.073-2.073-2.073s-2.074.942-2.074 2.073c0 1.132.943 2.073 2.074 2.073z"/><path d="M54.04 4.34c1.131 0 2.073-.88 2.073-2.011 0-1.193-.942-2.074-2.073-2.074s-2.074.88-2.074 2.074c0 1.131.942 2.011 2.074 2.011zM58.375 4.529a2.09 2.09 0 0 0 2.074-2.072A2.091 2.091 0 0 0 58.375.384a2.09 2.09 0 0 0-2.072 2.073 2.089 2.089 0 0 0 2.072 2.072zM62.773 3.587c1.131 0 2.011-.942 2.011-2.073 0-1.132-.879-2.073-2.011-2.073a2.05 2.05 0 0 0-2.074 2.073c0 1.131.88 2.073 2.074 2.073zM71.067 5.597c1.131 0 2.073-.88 2.073-2.011 0-1.193-.941-2.072-2.073-2.072s-2.073.879-2.073 2.072c0 1.132.942 2.011 2.073 2.011zM76.595 9.179a2.05 2.05 0 0 0 2.073-2.073c0-1.131-.941-2.012-2.073-2.012s-2.072.88-2.072 2.012c0 1.193.943 2.073 2.072 2.073zM80.931 14.33c1.132 0 2.072-.941 2.072-2.073s-.94-2.073-2.072-2.073-2.073.941-2.073 2.073.943 2.073 2.073 2.073zM86.147 19.987a2.091 2.091 0 0 0 2.073-2.073c0-1.132-.942-2.074-2.073-2.074s-2.073.942-2.073 2.074c0 1.129.941 2.073 2.073 2.073zM88.284 24.07c1.13 0 2.009-.941 2.009-2.072s-.879-2.073-2.009-2.073c-1.195 0-2.074.942-2.074 2.073s.879 2.072 2.074 2.072zM90.357 28.156a2.091 2.091 0 0 0 2.073-2.074 2.091 2.091 0 0 0-2.073-2.073c-1.132 0-2.073.942-2.073 2.073s.941 2.074 2.073 2.074zM94.693 35.318c1.13 0 2.072-.88 2.072-2.073 0-1.132-.942-2.012-2.072-2.012-1.132 0-2.074.88-2.074 2.012-.001 1.193.942 2.073 2.074 2.073zM96.137 42.668c1.13 0 2.072-.879 2.072-2.01a2.051 2.051 0 0 0-2.072-2.074 2.05 2.05 0 0 0-2.073 2.074c0 1.13.942 2.01 2.073 2.01z"/><path d="M97.897 44.867c1.131 0 2.072-.88 2.072-2.011a2.05 2.05 0 0 0-2.072-2.073 2.05 2.05 0 0 0-2.074 2.073c-.001 1.134.941 2.011 2.074 2.011z"/><path d="M97.582 48.323c1.131 0 2.074-.942 2.074-2.073s-.942-2.074-2.074-2.074c-1.131 0-2.073.943-2.073 2.074s.942 2.073 2.073 2.073z"/><path d="M95.697 50.333a2.05 2.05 0 0 0 2.073-2.073c0-1.131-.88-2.073-2.073-2.073-1.131 0-2.011.942-2.011 2.073 0 1.132.881 2.073 2.011 2.073z"/><path d="M95.258 53.727a2.09 2.09 0 0 0 2.074-2.074 2.09 2.09 0 0 0-2.074-2.072 2.088 2.088 0 0 0-2.071 2.072 2.088 2.088 0 0 0 2.071 2.074z"/><path d="M92.68 56.616c1.193 0 2.073-.942 2.073-2.073s-.88-2.074-2.073-2.074c-1.132 0-2.011.943-2.011 2.074s.881 2.073 2.011 2.073zM88.973 62.712a2.089 2.089 0 0 0 2.073-2.071c0-1.068-.94-2.013-2.073-2.013-1.132 0-2.072.942-2.072 2.013a2.092 2.092 0 0 0 2.072 2.071zM84.702 67.675a2.09 2.09 0 0 0 2.074-2.071c0-1.132-.943-2.073-2.074-2.073s-2.073.941-2.073 2.073a2.09 2.09 0 0 0 2.073 2.071z"/><path d="M83.382 69.184a2.09 2.09 0 0 0 2.074-2.072 2.09 2.09 0 0 0-2.074-2.074c-1.13 0-2.072.942-2.072 2.074a2.09 2.09 0 0 0 2.072 2.072zM79.11 68.807a2.09 2.09 0 0 0 2.073-2.074c0-1.13-.942-2.071-2.073-2.071s-2.073.941-2.073 2.071a2.09 2.09 0 0 0 2.073 2.074z"/><path d="M78.293 72.701a2.092 2.092 0 0 0 2.074-2.072 2.091 2.091 0 0 0-2.074-2.073 2.09 2.09 0 0 0-2.072 2.073 2.089 2.089 0 0 0 2.072 2.072z"/><path d="M77.098 74.713a2.05 2.05 0 0 0 2.072-2.072c0-1.132-.94-2.012-2.072-2.012-1.133 0-2.073.88-2.073 2.012 0 1.192.942 2.072 2.073 2.072zM72.512 76.408a2.09 2.09 0 0 0 2.071-2.072 2.09 2.09 0 0 0-2.071-2.073 2.09 2.09 0 0 0-2.074 2.073c0 1.13.943 2.072 2.074 2.072z"/><path d="M69.433 76.911a2.09 2.09 0 0 0 2.072-2.072c0-1.132-.94-2.073-2.072-2.073a2.09 2.09 0 0 0-2.073 2.073 2.09 2.09 0 0 0 2.073 2.072z"/><path d="M69.685 78.734c1.131 0 2.011-.941 2.011-2.071 0-1.132-.879-2.074-2.011-2.074s-2.073.942-2.073 2.074a2.09 2.09 0 0 0 2.073 2.071zM62.648 78.86a2.09 2.09 0 0 0 2.073-2.071 2.091 2.091 0 0 0-2.073-2.074 2.09 2.09 0 0 0-2.073 2.074 2.09 2.09 0 0 0 2.073 2.071zM56.803 77.288a2.05 2.05 0 0 0 2.073-2.072 2.05 2.05 0 0 0-2.073-2.073c-1.132 0-2.011.941-2.011 2.073.002 1.133.881 2.072 2.011 2.072z"/><path d="M54.291 78.42c1.131 0 2.074-.88 2.074-2.012 0-1.192-.943-2.072-2.074-2.072s-2.074.88-2.074 2.072c0 1.132.943 2.012 2.074 2.012zM47.254 77.037a2.09 2.09 0 0 0 2.074-2.072 2.09 2.09 0 0 0-2.074-2.073 2.09 2.09 0 0 0-2.072 2.073 2.087 2.087 0 0 0 2.072 2.072zM40.907 72.514a2.052 2.052 0 0 0 2.074-2.074 2.049 2.049 0 0 0-2.074-2.071c-1.131 0-2.011.939-2.011 2.071 0 1.133.881 2.074 2.011 2.074zM32.363 68.681a2.09 2.09 0 0 0 2.073-2.072c0-1.132-.942-2.073-2.073-2.073s-2.074.941-2.074 2.073c0 1.131.943 2.072 2.074 2.072zM26.582 65.036c1.131 0 2.01-.942 2.01-2.074 0-1.13-.879-2.071-2.01-2.071s-2.073.941-2.073 2.071c0 1.132.942 2.074 2.073 2.074zM23.126 58.69c1.193 0 2.073-.94 2.073-2.072s-.88-2.073-2.073-2.073c-1.131 0-2.011.941-2.011 2.073 0 1.13.88 2.072 2.011 2.072zM19.922 53.286c1.132 0 2.074-.942 2.074-2.073s-.942-2.073-2.074-2.073a2.09 2.09 0 0 0-2.073 2.073 2.09 2.09 0 0 0 2.073 2.073zM23.943 51.906c1.131 0 2.072-.942 2.072-2.073s-.941-2.074-2.072-2.074-2.074.943-2.074 2.074.943 2.073 2.074 2.073zM20.864 48.073A2.09 2.09 0 0 0 22.937 46c0-1.131-.942-2.073-2.073-2.073S18.79 44.869 18.79 46s.943 2.073 2.074 2.073z"/><path d="M24.885 46.816a2.091 2.091 0 0 0 2.074-2.073 2.09 2.09 0 0 0-2.074-2.073 2.089 2.089 0 0 0-2.071 2.073 2.09 2.09 0 0 0 2.071 2.073z"/><path d="M21.618 44.554c1.131 0 2.074-.943 2.074-2.074s-.943-2.072-2.074-2.072-2.073.941-2.073 2.072.942 2.074 2.073 2.074z"/><path d="M23.252 42.103c1.131 0 2.011-.941 2.011-2.072 0-1.132-.88-2.074-2.011-2.074-1.193 0-2.072.942-2.072 2.074a2.048 2.048 0 0 0 2.072 2.072z"/><path d="M24.822 39.653a2.09 2.09 0 0 0 2.073-2.072c0-1.131-.942-2.074-2.073-2.074s-2.074.943-2.074 2.074a2.094 2.094 0 0 0 2.074 2.072z"/><path d="M23.126 36.636c1.131 0 2.073-.879 2.073-2.01 0-1.193-.942-2.072-2.073-2.072s-2.073.879-2.073 2.072c-.001 1.13.942 2.01 2.073 2.01zM26.959 33.684a2.092 2.092 0 0 0 2.074-2.074 2.09 2.09 0 0 0-2.074-2.072 2.091 2.091 0 0 0-2.074 2.072c0 1.131.943 2.074 2.074 2.074zM28.529 29.158c1.131 0 2.074-.88 2.074-2.074 0-1.131-.943-2.01-2.074-2.01s-2.073.879-2.073 2.01a2.05 2.05 0 0 0 2.073 2.074z"/><path d="M29.471 26.708a2.09 2.09 0 0 0 2.073-2.074c0-1.131-.94-2.01-2.073-2.01-1.132 0-2.072.879-2.072 2.01a2.09 2.09 0 0 0 2.072 2.074z"/><path d="M30.351 24.258a2.089 2.089 0 0 0 2.072-2.072 2.09 2.09 0 0 0-2.071-2.074 2.091 2.091 0 0 0-2.074 2.074 2.09 2.09 0 0 0 2.073 2.072z"/><path d="M29.345 21.809a2.089 2.089 0 0 0 2.072-2.073c0-1.131-.94-2.073-2.072-2.073s-2.072.942-2.072 2.073.943 2.073 2.072 2.073zM32.676 17.283a2.05 2.05 0 0 0 2.073-2.073c0-1.131-.941-2.011-2.073-2.011-1.131 0-2.071.88-2.071 2.011-.002 1.196.941 2.073 2.071 2.073z"/><path d="M34.247 19.671c1.131 0 2.074-.941 2.074-2.073s-.942-2.073-2.074-2.073a2.091 2.091 0 0 0-2.074 2.073 2.092 2.092 0 0 0 2.074 2.073zM35.881 13.766c1.132 0 2.012-.941 2.012-2.074 0-1.131-.88-2.01-2.012-2.01-1.192 0-2.073.879-2.073 2.01a2.05 2.05 0 0 0 2.073 2.074zM40.342 9.116a2.052 2.052 0 0 0 2.074-2.074 2.05 2.05 0 0 0-2.074-2.073c-1.131 0-2.011.941-2.011 2.073 0 1.131.88 2.074 2.011 2.074zM42.478 12.823a2.051 2.051 0 0 0 2.072-2.074c0-1.131-.941-2.012-2.072-2.012-1.132 0-2.073.881-2.073 2.012a2.05 2.05 0 0 0 2.073 2.074zM47.316 14.205a2.091 2.091 0 0 0 2.073-2.074 2.09 2.09 0 0 0-2.073-2.072c-1.131 0-2.011.941-2.011 2.072 0 1.133.88 2.074 2.011 2.074zM59.255 14.646a2.09 2.09 0 0 0 2.074-2.072 2.09 2.09 0 0 0-2.074-2.073 2.09 2.09 0 0 0-2.072 2.073 2.09 2.09 0 0 0 2.072 2.072zM67.046 16.341a2.09 2.09 0 0 0 2.073-2.073 2.09 2.09 0 0 0-2.073-2.073 2.09 2.09 0 0 0-2.073 2.073 2.09 2.09 0 0 0 2.073 2.073zM60.385 22.311a2.09 2.09 0 0 0 2.073-2.073 2.091 2.091 0 0 0-2.073-2.073 2.09 2.09 0 0 0-2.072 2.073 2.09 2.09 0 0 0 2.072 2.073zM40.091 22.247c1.132 0 2.073-.879 2.073-2.012a2.09 2.09 0 0 0-2.073-2.073 2.091 2.091 0 0 0-2.073 2.073c-.001 1.132.942 2.012 2.073 2.012zM32.927 32.93c1.131 0 2.072-.942 2.072-2.074s-.941-2.073-2.072-2.073c-1.132 0-2.073.942-2.073 2.073s.943 2.074 2.073 2.074zM30.351 39.778c1.132 0 2.072-.942 2.072-2.073s-.94-2.073-2.071-2.073c-1.132 0-2.074.942-2.074 2.073s.942 2.073 2.073 2.073zM28.153 43.863c1.131 0 2.072-.941 2.072-2.072s-.941-2.074-2.072-2.074-2.074.943-2.074 2.074.943 2.072 2.074 2.072zM33.367 45.685a2.052 2.052 0 0 0 2.074-2.074c0-1.131-.942-2.011-2.074-2.011-1.131 0-2.073.88-2.073 2.011 0 1.194.943 2.074 2.073 2.074zM42.73 39.653c1.131 0 2.072-.94 2.072-2.072a2.091 2.091 0 0 0-2.072-2.074 2.091 2.091 0 0 0-2.073 2.074 2.09 2.09 0 0 0 2.073 2.072zM47.945 29.097c1.131 0 2.01-.941 2.01-2.073s-.879-2.073-2.01-2.073c-1.194 0-2.074.941-2.074 2.073s.88 2.073 2.074 2.073zM55.359 34.374a2.09 2.09 0 0 0 2.073-2.073c0-1.131-.942-2.011-2.073-2.011s-2.073.88-2.073 2.011a2.09 2.09 0 0 0 2.073 2.073zM63.15 40.908a2.091 2.091 0 0 0 2.073-2.074c0-1.131-.942-2.073-2.073-2.073s-2.073.942-2.073 2.073c0 1.132.942 2.074 2.073 2.074zM71.131 35.003a2.09 2.09 0 0 0 2.072-2.072c0-1.133-.941-2.074-2.072-2.074s-2.073.941-2.073 2.074c-.003 1.13.941 2.072 2.073 2.072zM77.665 26.206a2.052 2.052 0 0 0 2.073-2.074 2.05 2.05 0 0 0-2.073-2.072c-1.132 0-2.011.941-2.011 2.072 0 1.132.879 2.074 2.011 2.074zM83.948 31.672c1.131 0 2.073-.941 2.073-2.073s-.942-2.073-2.073-2.073-2.074.941-2.074 2.073.943 2.073 2.074 2.073zM81.937 42.607c1.131 0 2.011-.88 2.011-2.073 0-1.133-.88-2.012-2.011-2.012-1.193 0-2.073.879-2.073 2.012 0 1.192.879 2.073 2.073 2.073zM88.848 44.805a2.052 2.052 0 0 0 2.073-2.074c0-1.132-.941-2.012-2.073-2.012s-2.072.88-2.072 2.012c0 1.193.943 2.074 2.072 2.074zM80.429 55.486c1.13 0 2.072-.941 2.072-2.072s-.942-2.074-2.072-2.074a2.09 2.09 0 0 0-2.073 2.074c0 1.129.942 2.072 2.073 2.072zM66.857 69.31a2.09 2.09 0 0 0 2.073-2.074c0-1.132-.941-2.073-2.073-2.073s-2.073.941-2.073 2.073a2.09 2.09 0 0 0 2.073 2.074zM63.653 61.517c1.131 0 2.072-.941 2.072-2.012 0-1.131-.941-2.072-2.072-2.072s-2.074.941-2.074 2.072c0 1.069.943 2.012 2.074 2.012zM54.04 65.916c1.131 0 2.073-.88 2.073-2.011 0-1.193-.942-2.073-2.073-2.073s-2.074.88-2.074 2.073c0 1.131.942 2.011 2.074 2.011z"/><path d="M55.108 64.031a2.091 2.091 0 0 0 2.073-2.074c0-1.131-.942-2.073-2.073-2.073s-2.073.942-2.073 2.073a2.09 2.09 0 0 0 2.073 2.074zM37.075 57.686a2.091 2.091 0 0 0 2.073-2.074c0-1.131-.942-2.072-2.073-2.072s-2.074.941-2.074 2.072c0 1.131.943 2.074 2.074 2.074zM30.038 56.24a2.05 2.05 0 0 0 2.073-2.073 2.05 2.05 0 0 0-2.073-2.073c-1.131 0-2.011.941-2.011 2.073 0 1.131.879 2.073 2.011 2.073zM51.652 46.565c1.131 0 2.01-.942 2.01-2.073 0-1.132-.879-2.074-2.01-2.074a2.051 2.051 0 0 0-2.074 2.074c0 1.131.88 2.073 2.074 2.073z"/></g><g><path d="M222.753 35.253c.051-5.332.65-10.615 2.566-15.622 2.026-5.294 6.625-8.96 10.956-12.358 2.298-1.802 4.166-2.914 7.131-2.881 1.618.019 3.416.323 5-.14 2.229-.649 3.437-2.589 5.912-2.766 2.138-.151 4.351 1.111 6.502 1.279.832.064.836-1.436 0-1.5-2.225-.175-4.276-1.091-6.502-1.279-2.788-.237-4.34 2.531-6.994 2.93-2.257.338-4.664-.471-6.893.159-2.561.723-4.667 2.764-6.688 4.411-3.972 3.237-7.466 6.632-9.523 11.388-2.201 5.085-2.688 10.9-2.74 16.379-.011.95 1.264.948 1.273 0zM270.938 4.461c2.605-.012 4.659.808 6.461 2.733.956 1.021 2.314 1.213 3.632 1.448 1.383.248 4.135 1.27 5.102 2.384.643.738 1.182 1.573 1.95 2.189.712.57 1.271-.793.646-1.295-.8-.64-1.287-1.964-2.158-2.461-1.411-.807-2.843-1.729-4.426-2.12-1.202-.297-2.374-.339-3.509-.908-.691-.348-1.695-1.517-2.373-1.989-1.883-1.315-2.944-1.494-5.323-1.482-.842.005-.842 1.505-.002 1.501zM222.044 42.982c.194 4.054 1.868 7.515 3.787 11.025 1.778 3.257 3.203 6.74 5.336 9.782 2.021 2.878 3.983 3.758 7.357 3.861 4.648.146 8.501 2.528 12.998 2.908.831.069.835-1.431 0-1.5-3.069-.261-5.713-2.043-8.735-2.513-3.879-.603-7.241.211-10.104-3.031-2.099-2.376-3.144-5.485-4.626-8.233-2.116-3.923-4.52-7.719-4.736-12.302-.046-.94-1.322-.948-1.277.003zM296.248 31.737c.073 1.492.421 2.925.722 4.384.396 1.918.223 3.972.223 5.921 0 .949 1.273.949 1.273 0 0-1.558.038-3.12-.031-4.675-.086-1.906-.815-3.719-.909-5.63-.048-.943-1.325-.953-1.278 0zM293.423 55.361c-.11 1.519-1.229 1.334-2.072 2.056-.641.546-.704 1.23-.751 2.043-.031.562.188 1.356-.38 1.743-.313.214-.588.357-.841.642-.629.702-1.3 2.114-2.273 2.347-.792.188-.515 1.648.34 1.446 1.049-.25 1.797-1.42 2.421-2.211.629-.797 1.688-1.107 1.93-2.147.334-1.445-.322-2.482 1.306-3.182 1.192-.514 1.509-1.502 1.601-2.734.065-.955-1.212-.94-1.281-.003zM283.87 65.639c-1.435 1.784-2.729 3.327-4.987 4.024-2.438.753-5.4.905-7.943.971-.84.021-.839 1.521 0 1.5 2.744-.068 5.607-.384 8.283-1.022 2.477-.593 4.03-2.521 5.552-4.411.511-.642-.306-1.807-.905-1.062z"/><path stroke="#000" stroke-width=".216" stroke-miterlimit="10" d="M256.234 31.737a.629.629 0 0 0 .629-.629c0-.314-.251-.564-.629-.564a.562.562 0 0 0-.564.564c-.001.313.25.629.564.629zM255.354 33.62c.313 0 .629-.251.629-.565 0-.312-.313-.564-.629-.564a.561.561 0 0 0-.563.564.56.56 0 0 0 .563.565zM255.104 34.751c.377 0 .629-.251.629-.564s-.252-.564-.629-.564a.563.563 0 1 0 0 1.128z"/><circle stroke="#000" stroke-width=".216" stroke-miterlimit="10" cx="255.417" cy="35.442" r=".565"/><path stroke="#000" stroke-width=".216" stroke-miterlimit="10" d="M255.669 37.328c.313 0 .564-.251.564-.629a.562.562 0 1 0-1.127 0c-.002.377.248.629.563.629z"/><circle stroke="#000" stroke-width=".216" stroke-miterlimit="10" cx="256.988" cy="36.448" r=".565"/><path stroke="#000" stroke-width=".216" stroke-miterlimit="10" d="M257.114 38.207c.312 0 .563-.312.563-.629a.562.562 0 0 0-.563-.564.562.562 0 0 0-.565.564c0 .316.25.629.565.629z"/><circle stroke="#000" stroke-width=".216" stroke-miterlimit="10" cx="256.11" cy="37.956" r=".565"/><path stroke="#000" stroke-width=".216" stroke-miterlimit="10" d="M255.104 39.463c.312 0 .563-.312.563-.629a.564.564 0 1 0-1.129 0c-.001.317.252.629.566.629zM253.847 38.899c.312 0 .562-.251.562-.564s-.25-.564-.562-.564c-.314 0-.631.251-.631.564.001.312.316.564.631.564z"/><path stroke="#000" stroke-width=".216" stroke-miterlimit="10" d="M252.779 38.396c.377 0 .629-.251.629-.628 0-.313-.252-.564-.629-.564a.562.562 0 0 0-.565.564c-.001.376.251.628.565.628zM252.842 37.076a.562.562 0 0 0 .563-.566c0-.312-.25-.628-.563-.628s-.629.313-.629.628.314.566.629.566zM253.72 43.109c.313 0 .629-.251.629-.564 0-.312-.313-.628-.629-.628-.312 0-.564.312-.564.628 0 .314.251.564.564.564z"/><circle stroke="#000" stroke-width=".216" stroke-miterlimit="10" cx="254.664" cy="40.72" r=".565"/><path stroke="#000" stroke-width=".216" stroke-miterlimit="10" d="M256.11 41.537c.312 0 .562-.251.562-.564s-.25-.63-.562-.63c-.314 0-.629.314-.629.63 0 .312.313.564.629.564z"/><circle stroke="#000" stroke-width=".216" stroke-miterlimit="10" cx="256.234" cy="42.48" r=".565"/><path stroke="#000" stroke-width=".216" stroke-miterlimit="10" d="M256.988 40.596c.377 0 .627-.252.627-.564 0-.313-.25-.565-.627-.565a.562.562 0 0 0-.565.565c0 .311.25.564.565.564zM258.307 40.847c.312 0 .565-.251.565-.564s-.253-.63-.565-.63-.564.313-.564.63a.561.561 0 0 0 .564.564zM259.627 41.098a.563.563 0 0 0 .565-.564c0-.377-.252-.63-.565-.63-.312 0-.563.252-.563.63a.56.56 0 0 0 .563.564z"/><path stroke="#000" stroke-width=".216" stroke-miterlimit="10" d="M257.302 41.726a.564.564 0 0 0 .565-.564c0-.377-.253-.628-.565-.628s-.562.25-.562.628a.558.558 0 0 0 .562.564zM258.747 42.229a.563.563 0 0 0 .566-.564c0-.377-.252-.629-.566-.629-.312 0-.564.251-.564.629a.56.56 0 0 0 .564.564z"/><circle stroke="#000" stroke-width=".216" stroke-miterlimit="10" cx="258.497" cy="40.971" r=".565"/><path stroke="#000" stroke-width=".216" stroke-miterlimit="10" d="M259.314 39.841c.312 0 .562-.251.562-.564s-.251-.564-.562-.564c-.315 0-.63.251-.63.564s.314.564.63.564zM258.811 38.71a.562.562 0 0 0 .563-.565c0-.377-.252-.628-.563-.628a.631.631 0 0 0-.63.628c0 .314.316.565.63.565zM259.941 38.144c.313 0 .629-.25.629-.564 0-.313-.313-.564-.629-.564a.562.562 0 0 0-.564.564.56.56 0 0 0 .564.564zM260.633 39.212c.313 0 .565-.313.565-.628a.564.564 0 1 0-1.129 0c-.002.316.251.628.564.628z"/><circle stroke="#000" stroke-width=".216" stroke-miterlimit="10" cx="260.633" cy="36.009" r=".565"/><circle stroke="#000" stroke-width=".216" stroke-miterlimit="10" cx="259.25" cy="36.134" r=".566"/><circle stroke="#000" stroke-width=".216" stroke-miterlimit="10" cx="259.25" cy="34.437" r=".566"/><path stroke="#000" stroke-width=".216" stroke-miterlimit="10" d="M256.926 35.003c.313 0 .63-.251.63-.564s-.314-.565-.63-.565a.563.563 0 0 0-.564.565.56.56 0 0 0 .564.564zM261.072 35.003a.564.564 0 0 0 .565-.564c0-.377-.254-.629-.565-.629-.313 0-.565.251-.565.629 0 .312.252.564.565.564zM263.145 35.505a.562.562 0 0 0 .564-.564c0-.377-.251-.628-.564-.628s-.563.25-.563.628a.56.56 0 0 0 .563.564zM263.711 37.265a.564.564 0 1 0 0-1.129c-.377 0-.627.251-.627.565 0 .313.25.564.627.564z"/><path stroke="#000" stroke-width=".216" stroke-miterlimit="10" d="M262.769 36.888c.376 0 .629-.252.629-.564 0-.378-.253-.629-.629-.629-.313 0-.564.25-.564.629a.561.561 0 0 0 .564.564zM261.762 38.019c.314 0 .629-.25.629-.564 0-.312-.312-.564-.629-.564a.562.562 0 0 0-.563.564.56.56 0 0 0 .563.564zM262.204 39.151c.312 0 .563-.251.563-.564s-.251-.564-.563-.564c-.314 0-.629.25-.629.564 0 .312.313.564.629.564z"/><path stroke="#000" stroke-width=".216" stroke-miterlimit="10" d="M262.957 38.773a.563.563 0 0 0 .566-.564c0-.377-.252-.629-.566-.629-.312 0-.564.251-.564.629a.56.56 0 0 0 .564.564z"/><path stroke="#000" stroke-width=".216" stroke-miterlimit="10" d="M263.774 39.527c.312 0 .564-.25.564-.564 0-.313-.252-.628-.564-.628-.313 0-.629.313-.629.628s.315.564.629.564z"/><path stroke="#000" stroke-width=".216" stroke-miterlimit="10" d="M264.528 40.281c.313 0 .629-.251.629-.565 0-.313-.312-.629-.629-.629-.313 0-.564.312-.564.629a.56.56 0 0 0 .564.565z"/><path stroke="#000" stroke-width=".216" stroke-miterlimit="10" d="M265.345 41.034a.56.56 0 0 0 .562-.565c0-.312-.25-.628-.562-.628-.313 0-.565.312-.565.628s.25.565.565.565z"/><path stroke="#000" stroke-width=".216" stroke-miterlimit="10" d="M266.098 41.788c.312 0 .63-.251.63-.564s-.313-.564-.63-.564a.563.563 0 0 0-.564.564.561.561 0 0 0 .564.564z"/><circle stroke="#000" stroke-width=".216" stroke-miterlimit="10" cx="265.093" cy="41.851" r=".565"/><path stroke="#000" stroke-width=".216" stroke-miterlimit="10" d="M264.717 43.171c.313 0 .63-.251.63-.564s-.313-.564-.63-.564a.562.562 0 0 0-.564.564.56.56 0 0 0 .564.564zM263.586 42.542c.314 0 .564-.313.564-.628a.56.56 0 0 0-.564-.564.561.561 0 0 0-.563.564c-.002.314.249.628.563.628z"/><circle stroke="#000" stroke-width=".216" stroke-miterlimit="10" cx="262.455" cy="42.041" r=".566"/><path stroke="#000" stroke-width=".216" stroke-miterlimit="10" d="M261.323 42.732c.314 0 .564-.251.564-.564s-.25-.565-.564-.565-.628.251-.628.565c.001.312.314.564.628.564z"/><circle stroke="#000" stroke-width=".216" stroke-miterlimit="10" cx="261.952" cy="40.72" r=".565"/><circle stroke="#000" stroke-width=".216" stroke-miterlimit="10" cx="260.696" cy="43.297" r=".565"/><path stroke="#000" stroke-width=".216" stroke-miterlimit="10" d="M261.323 44.49c.314 0 .629-.251.629-.565 0-.312-.312-.564-.629-.564a.561.561 0 0 0-.564.564c0 .315.25.565.564.565z"/><circle stroke="#000" stroke-width=".216" stroke-miterlimit="10" cx="262.014" cy="44.554" r=".565"/><path stroke="#000" stroke-width=".216" stroke-miterlimit="10" d="M263.586 44.741a.562.562 0 0 0 .564-.565c0-.377-.25-.628-.564-.628a.63.63 0 0 0-.629.628c0 .314.315.565.629.565z"/><path stroke="#000" stroke-width=".216" stroke-miterlimit="10" d="M264.088 45.621c.314 0 .565-.251.565-.564s-.251-.63-.565-.63c-.312 0-.562.313-.562.63a.558.558 0 0 0 .562.564zM258.307 45.244c.312 0 .565-.312.565-.629a.564.564 0 1 0-1.129 0c-.001.316.251.629.564.629zM259.627 46.375c.313 0 .565-.251.565-.628a.564.564 0 1 0-1.128 0c-.002.376.25.628.563.628zM256.423 33.181c.313 0 .63-.25.63-.564 0-.313-.312-.565-.63-.565a.563.563 0 0 0-.564.565.561.561 0 0 0 .564.564zM258.181 33.055c.314 0 .564-.313.564-.629a.562.562 0 0 0-.564-.564.562.562 0 0 0-.563.564c-.003.314.25.629.563.629zM258.998 31.484c.315 0 .565-.251.565-.629a.562.562 0 0 0-.565-.564c-.377 0-.627.251-.627.564 0 .378.25.629.627.629z"/><circle stroke="#000" stroke-width=".216" stroke-miterlimit="10" cx="260.256" cy="32.427" r=".565"/><circle stroke="#000" stroke-width=".216" stroke-miterlimit="10" cx="259.501" cy="33.055" r=".566"/><path stroke="#000" stroke-width=".216" stroke-miterlimit="10" d="M260.57 30.164c.312 0 .565-.312.565-.628a.565.565 0 0 0-1.13 0c0 .315.251.628.565.628zM261.888 30.918c.314 0 .565-.312.565-.629a.562.562 0 0 0-.565-.564c-.377 0-.627.251-.627.564 0 .317.25.629.627.629z"/><circle stroke="#000" stroke-width=".216" stroke-miterlimit="10" cx="262.517" cy="32.615" r=".565"/><path stroke="#000" stroke-width=".216" stroke-miterlimit="10" d="M263.711 32.93a.563.563 0 0 0 .565-.565c0-.313-.252-.629-.565-.629-.312 0-.627.312-.627.629 0 .313.314.565.627.565zM265.785 33.432a.562.562 0 0 0 .563-.564c0-.377-.251-.628-.563-.628a.63.63 0 0 0-.629.628c0 .313.313.564.629.564z"/><circle stroke="#000" stroke-width=".216" stroke-miterlimit="10" cx="266.035" cy="33.998" r=".565"/><circle stroke="#000" stroke-width=".216" stroke-miterlimit="10" cx="265.659" cy="35.129" r=".566"/><path stroke="#000" stroke-width=".216" stroke-miterlimit="10" d="M265.785 37.076c.312 0 .627-.251.627-.566 0-.312-.312-.564-.627-.564s-.565.252-.565.564a.56.56 0 0 0 .565.566zM265.972 38.522a.561.561 0 0 0 .564-.564c0-.377-.25-.629-.564-.629a.63.63 0 0 0-.627.629c0 .312.314.564.627.564zM267.355 37.955c.312 0 .629-.251.629-.564s-.313-.564-.629-.564c-.313 0-.563.251-.563.564s.249.564.563.564z"/></g><g><path d="M39.692 120.078v-6.206h2.341c.413 0 .728.02.944.06.305.051.56.146.766.291.206.143.372.343.497.6.126.257.188.537.188.847 0 .525-.168.976-.505 1.34-.336.366-.941.55-1.818.55h-1.593v2.523l-.82-.005zm.819-3.255h1.604c.531 0 .908-.1 1.13-.297.224-.197.334-.477.334-.834a1.12 1.12 0 0 0-.197-.668.894.894 0 0 0-.518-.363c-.139-.038-.395-.056-.768-.056H40.51v2.218h.001zM45.224 117.055c0-1.031.275-1.837.83-2.42s1.269-.876 2.144-.876c.573 0 1.09.139 1.55.412.46.272.812.655 1.053 1.146.242.491.362 1.045.362 1.665 0 .63-.127 1.19-.381 1.69a2.596 2.596 0 0 1-1.08 1.128 3.072 3.072 0 0 1-1.508.383 2.945 2.945 0 0 1-1.566-.424 2.712 2.712 0 0 1-1.045-1.154 3.47 3.47 0 0 1-.359-1.55zm.848.014c0 .748.201 1.337.603 1.769.402.43.907.645 1.515.645.617 0 1.127-.216 1.524-.649.399-.436.602-1.053.602-1.851 0-.506-.086-.946-.257-1.323a1.942 1.942 0 0 0-.75-.876 2.018 2.018 0 0 0-1.106-.312 2.1 2.1 0 0 0-1.501.6c-.421.394-.63 1.061-.63 1.997zM51.94 118.084l.772-.067c.037.312.123.565.257.767.135.198.343.356.625.481.281.121.601.185.951.185.313 0 .591-.049.83-.141.24-.093.418-.221.536-.383a.89.89 0 0 0 .175-.53.822.822 0 0 0-.169-.511c-.112-.146-.3-.268-.56-.365-.167-.064-.535-.166-1.105-.303-.569-.139-.969-.268-1.197-.389-.297-.155-.518-.348-.661-.578a1.405 1.405 0 0 1-.22-.771c0-.312.09-.604.269-.878.178-.271.438-.479.779-.62a2.935 2.935 0 0 1 1.14-.213c.46 0 .866.074 1.218.225.352.146.621.365.811.653s.291.612.307.979l-.787.059c-.043-.392-.187-.688-.43-.891-.244-.199-.605-.3-1.081-.3-.497 0-.859.09-1.087.271-.229.183-.342.399-.342.657 0 .224.079.405.24.551.158.145.571.292 1.239.442.667.149 1.125.283 1.374.396.36.165.628.379.8.634.172.256.258.55.258.885 0 .33-.094.642-.283.933-.188.293-.46.521-.814.682a2.815 2.815 0 0 1-1.197.244c-.562 0-1.031-.084-1.412-.245a1.981 1.981 0 0 1-.893-.739 2.105 2.105 0 0 1-.343-1.12zM58.142 120.078v-6.206h.82v6.206h-.82zM61.991 120.078v-5.476h-2.045v-.73h4.919v.73h-2.053v5.476h-.821zM65.847 120.078v-6.206h.82v6.206h-.82zM69.891 120.078l-2.403-6.206h.889l1.613 4.509c.129.361.238.7.327 1.017.096-.339.208-.677.335-1.017l1.675-4.509h.838l-2.43 6.206h-.844zM73.917 120.078v-6.206h4.488v.73h-3.667v1.899h3.435v.729h-3.435v2.111h3.81v.732h-4.631v.005z"/></g><g><path d="M239.113 120.078v-6.206h.843l3.26 4.873v-4.873h.786v6.206h-.842l-3.261-4.878v4.878h-.786zM245.401 120.078v-6.206h4.488v.73h-3.666v1.899h3.434v.729h-3.434v2.111h3.81v.732h-4.632v.005zM254.072 117.645v-.729l2.63-.005v2.303c-.404.322-.82.563-1.249.728-.43.163-.869.243-1.321.243a3.492 3.492 0 0 1-1.661-.393 2.594 2.594 0 0 1-1.129-1.132 3.57 3.57 0 0 1-.382-1.655c0-.604.126-1.167.378-1.691.253-.522.617-.912 1.092-1.166.477-.254 1.021-.382 1.64-.382.447 0 .854.072 1.219.219.362.146.646.349.854.605.206.26.362.601.472 1.019l-.741.203a2.387 2.387 0 0 0-.347-.747 1.467 1.467 0 0 0-.596-.436 2.178 2.178 0 0 0-.854-.163c-.375 0-.701.057-.974.173a1.812 1.812 0 0 0-.663.45 2.215 2.215 0 0 0-.394.614 3.241 3.241 0 0 0-.235 1.249c0 .554.096 1.016.285 1.39.19.371.469.647.832.828.362.182.75.271 1.16.271.354 0 .702-.069 1.041-.204.338-.139.597-.282.771-.438v-1.154h-1.828zM257.231 120.078l2.383-6.206h.885l2.541 6.206h-.936l-.727-1.88h-2.596l-.683 1.88h-.867zm1.79-2.547h2.104l-.646-1.721a14.22 14.22 0 0 1-.439-1.289c-.08.398-.19.795-.334 1.188l-.685 1.822zM264.63 120.078v-5.476h-2.044v-.73h4.919v.73h-2.052v5.476h-.823zM268.487 120.078v-6.206h.821v6.206h-.821zM272.531 120.078l-2.406-6.206h.891l1.613 4.509c.129.361.236.7.325 1.017.097-.339.208-.677.334-1.017l1.677-4.509h.84l-2.432 6.206h-.842zM276.557 120.078v-6.206h4.486v.73h-3.666v1.899h3.437v.729h-3.437v2.111h3.812v.732h-4.633v.005h.001z"/></g></svg>