<svg version="1.1" xmlns="http://www.w3.org/2000/svg" x="0" y="0" width="411.023" height="597.391" viewBox="-42.26 110.25 411.023 597.391" xml:space="preserve"><path fill="#FFF" stroke="#000" stroke-width=".664" d="M252.062 638.585h112.994v63.964H252.062zM209.881 374.95h112.995v63.964H209.881zM-38.913 375.731H74.078v63.963H-38.913z"/><path fill="#FFF" stroke="#000" stroke-width=".906" d="M-.924 163.755h275.641l78.319-50.702H77.397z"/><path d="M90.094 512.018H18.137l-.288-.307-.287-.307V449.433h2.301v61.356l-1.151-1.223h71.382v2.452zM257.613 267.791v-8.389h2.59c.609 0 1.06.054 1.348.16.396.146.712.414.95.807.234.394.353.875.353 1.447 0 .756-.19 1.372-.576 1.848-.386.478-1.051.716-1.994.716h-1.76v3.411h-.911zm.911-4.401h1.777c.56 0 .969-.127 1.228-.381.26-.254.389-.636.389-1.146 0-.333-.064-.617-.191-.854-.128-.236-.283-.397-.462-.486-.183-.087-.508-.131-.979-.131h-1.761v2.998h-.001zM263.546 264.75c0-1.048.221-1.84.661-2.374s.997-.802 1.671-.802c.663 0 1.218.267 1.663.802.443.534.668 1.305.668 2.311 0 1.091-.22 1.903-.656 2.438-.438.533-.997.802-1.675.802-.667 0-1.223-.269-1.666-.805-.445-.535-.666-1.326-.666-2.372zm.861-.001c0 .787.144 1.372.431 1.755.286.384.64.575 1.063.575.396 0 .735-.193 1.021-.581.284-.389.425-.972.425-1.751 0-.782-.143-1.366-.428-1.75-.287-.384-.641-.575-1.063-.575-.4 0-.742.193-1.022.579-.284.386-.427.968-.427 1.748zM268.883 264.75c0-1.048.222-1.84.66-2.374.441-.534.998-.802 1.672-.802.663 0 1.219.267 1.663.802.444.534.669 1.305.669 2.311 0 1.091-.22 1.903-.656 2.438-.44.533-.997.802-1.676.802-.666 0-1.222-.269-1.666-.805-.444-.535-.666-1.326-.666-2.372zm.862-.001c0 .787.144 1.372.431 1.755.285.384.639.575 1.063.575.396 0 .735-.193 1.02-.581.285-.389.426-.972.426-1.751 0-.782-.144-1.366-.428-1.75-.287-.384-.641-.575-1.064-.575-.4 0-.741.193-1.023.579-.284.386-.425.968-.425 1.748zM274.541 267.791v-6.076h.759v.921c.193-.427.373-.709.535-.849a.812.812 0 0 1 .545-.209c.283 0 .57.11.863.332l-.286.956c-.209-.149-.413-.223-.61-.223a.747.747 0 0 0-.492.188 1.016 1.016 0 0 0-.315.527c-.106.393-.16.811-.16 1.252v3.182l-.839-.001zM224.129 284.662v-8.387h4.635v.99h-3.726v2.597h3.224v.989h-3.224v3.811h-.909zM233.209 282.707l.869.132c-.145.649-.407 1.138-.787 1.467-.38.33-.85.495-1.409.495-.703 0-1.273-.268-1.711-.805-.436-.536-.653-1.31-.653-2.319 0-1.05.22-1.85.66-2.401.438-.551.997-.827 1.672-.827.643 0 1.181.271 1.61.813.431.542.646 1.325.646 2.352l-.005.274h-3.715c.033.684.191 1.196.475 1.544.282.348.625.521 1.028.521.631.002 1.072-.414 1.32-1.246zm-2.772-1.665h2.776c-.038-.526-.149-.92-.337-1.18-.272-.377-.615-.566-1.035-.566-.378 0-.7.158-.966.472-.264.315-.411.739-.438 1.274zM236.063 284.662l-1.529-6.075h.871l.794 3.508.291 1.303.263-1.252.791-3.558h.87l.741 3.525.249 1.161.286-1.173.849-3.514h.823l-1.553 6.076h-.879l-.794-3.64-.19-1.035-1.004 4.673h-.879zM245.424 282.707l.868.132c-.145.649-.406 1.138-.785 1.467-.38.33-.849.495-1.408.495-.705 0-1.276-.268-1.712-.805-.437-.536-.654-1.31-.654-2.319 0-1.05.221-1.85.659-2.401.44-.551.997-.827 1.672-.827.645 0 1.181.271 1.611.813.432.542.647 1.325.647 2.352l-.006.274h-3.715c.034.684.192 1.196.475 1.544.283.348.625.521 1.028.521.633.002 1.073-.414 1.32-1.246zm-2.771-1.665h2.776c-.037-.526-.149-.92-.336-1.18-.272-.377-.617-.566-1.036-.566-.377 0-.698.158-.964.472-.267.315-.414.739-.44 1.274zM247.363 284.662v-6.075h.761v.921c.192-.426.372-.709.534-.849a.814.814 0 0 1 .545-.21c.283 0 .568.112.862.334l-.286.955c-.209-.149-.414-.223-.609-.223a.743.743 0 0 0-.492.188 1.01 1.01 0 0 0-.315.525c-.106.393-.16.811-.16 1.254v3.181h-.839v-.001zM255.204 283.743l.114.908c-.232.061-.44.091-.629.091-.294 0-.53-.058-.709-.174s-.3-.275-.368-.478c-.066-.203-.1-.605-.1-1.207v-3.495h-.617v-.803h.617v-1.504l.84-.619v2.123h.853v.803h-.853v3.552c0 .329.025.54.075.635.072.138.207.207.406.207.094 0 .219-.014.371-.039zM255.765 284.662v-8.387h.84v3.008c.197-.278.421-.486.672-.626.249-.14.524-.209.825-.209.528 0 .947.169 1.255.507.306.338.459.956.459 1.856v3.851h-.84v-3.851c0-.526-.093-.903-.281-1.133-.186-.229-.442-.344-.771-.344-.367 0-.679.146-.935.441-.257.293-.386.813-.386 1.561v3.324l-.838.002zM264.343 283.913a3.143 3.143 0 0 1-.88.664 2.16 2.16 0 0 1-.948.222c-.518 0-.932-.156-1.24-.47-.309-.312-.463-.734-.463-1.265 0-.35.072-.661.218-.933.145-.27.343-.482.594-.634.253-.152.633-.266 1.144-.337.686-.103 1.188-.222 1.51-.362l.005-.263c0-.414-.074-.707-.223-.876-.21-.243-.532-.364-.967-.364-.39 0-.686.08-.88.243-.193.163-.336.469-.428.918l-.829-.138c.119-.651.357-1.126.717-1.425.36-.298.875-.446 1.547-.446.521 0 .93.099 1.227.296.298.196.486.439.564.729.077.289.116.713.116 1.269v1.374c0 .961.019 1.566.054 1.816.036.251.108.494.214.729h-.878a2.421 2.421 0 0 1-.174-.747zm-.068-2.3c-.31.153-.769.282-1.379.389-.354.061-.6.13-.742.208a.813.813 0 0 0-.328.332 1.01 1.01 0 0 0-.119.493c0 .291.089.523.271.697.179.174.427.26.742.26.301 0 .575-.079.821-.234.244-.155.428-.364.549-.625.123-.26.184-.642.184-1.143v-.377h.001zM266.44 284.662v-6.075h.759v.857c.183-.333.406-.583.67-.748a1.69 1.69 0 0 1 .91-.248c.266 0 .512.053.738.157s.41.241.549.412c.137.169.24.39.311.661.068.27.102.686.102 1.246v3.736h-.841v-3.699c0-.448-.036-.773-.114-.98a.973.973 0 0 0-.357-.479.962.962 0 0 0-.563-.168c-.402 0-.726.149-.965.451-.24.301-.359.819-.359 1.552v3.322h-.839v.003zM274.563 284.662v-5.273h-.748v-.803h.748v-.647c0-.478.051-.834.149-1.072s.252-.42.456-.547c.204-.125.461-.189.771-.189.239 0 .502.036.79.109l-.126.893a2.365 2.365 0 0 0-.496-.058c-.253 0-.433.066-.54.198-.11.132-.164.382-.164.752v.561h.97v.801h-.97v5.275h-.84zM276.998 277.459v-1.185h.841v1.185h-.841zm0 7.203v-6.075h.841v6.075h-.841zM280.52 284.662l-1.893-6.075h.892l1.069 3.639c.123.412.229.821.322 1.224.072-.318.175-.705.309-1.155l1.111-3.707h.868l-1.894 6.075h-.784v-.001zM287.328 282.707l.869.132c-.145.649-.407 1.138-.787 1.467-.379.33-.849.495-1.407.495-.705 0-1.275-.268-1.712-.805-.437-.536-.654-1.31-.654-2.319 0-1.05.22-1.85.66-2.401.439-.551.997-.827 1.672-.827.643 0 1.181.271 1.611.813.43.542.646 1.325.646 2.352l-.005.274h-3.716c.034.684.192 1.196.475 1.544.283.348.625.521 1.028.521.632.002 1.073-.414 1.32-1.246zm-2.77-1.665h2.775c-.036-.526-.148-.92-.337-1.18-.271-.377-.615-.566-1.034-.566-.377 0-.7.158-.967.472-.263.315-.412.739-.437 1.274zM292.59 284.662h-.783v-8.387h.846v2.991a1.94 1.94 0 0 1 .608-.615c.228-.134.479-.203.757-.203.389 0 .742.118 1.062.349.318.233.571.585.761 1.059.19.474.286 1.048.286 1.722 0 1.03-.216 1.824-.648 2.383-.431.559-.934.839-1.51.839a1.4 1.4 0 0 1-.782-.228 1.86 1.86 0 0 1-.597-.673v.763zm-.015-3.083c0 .627.06 1.101.174 1.413s.277.552.486.715c.211.164.444.245.7.245.346 0 .653-.194.923-.586.271-.392.404-.975.404-1.753 0-.798-.129-1.384-.389-1.756-.26-.374-.578-.562-.958-.562-.346 0-.656.197-.93.587-.271.391-.41.957-.41 1.697zM300.554 282.707l.869.132c-.146.649-.407 1.138-.786 1.467-.38.33-.851.495-1.409.495-.705 0-1.274-.268-1.711-.805-.438-.536-.655-1.31-.655-2.319 0-1.05.222-1.85.661-2.401.439-.551.997-.827 1.671-.827.646 0 1.182.271 1.612.813.43.542.646 1.325.646 2.352l-.006.274h-3.715c.034.684.192 1.196.475 1.544.283.348.625.521 1.028.521.634.002 1.072-.414 1.32-1.246zm-2.769-1.665h2.775c-.037-.526-.15-.92-.337-1.18-.27-.377-.615-.566-1.033-.566-.377 0-.7.158-.967.472-.265.315-.414.739-.438 1.274zM305.734 283.913a3.147 3.147 0 0 1-.881.664 2.168 2.168 0 0 1-.949.222c-.518 0-.932-.156-1.239-.47-.309-.312-.464-.734-.464-1.265 0-.35.072-.661.218-.933.145-.27.343-.482.596-.634.251-.152.632-.266 1.143-.337.686-.103 1.188-.222 1.509-.362l.006-.263c0-.414-.076-.707-.224-.876-.209-.243-.532-.364-.965-.364-.394 0-.687.08-.881.243s-.337.469-.428.918l-.829-.138c.118-.651.357-1.126.717-1.425.36-.298.876-.446 1.546-.446.521 0 .931.099 1.228.296.297.196.484.439.563.729.076.289.116.713.116 1.269v1.374c0 .961.02 1.566.055 1.816.037.251.107.494.214.729h-.88a2.454 2.454 0 0 1-.171-.747zm-.069-2.3c-.31.153-.768.282-1.378.389-.354.061-.601.13-.743.208a.813.813 0 0 0-.328.332 1.01 1.01 0 0 0-.119.493c0 .291.09.523.271.697.178.174.426.26.741.26.302 0 .575-.079.821-.234.244-.155.429-.364.549-.625.123-.26.184-.642.184-1.143v-.377h.002zM309.704 283.743l.114.908a2.497 2.497 0 0 1-.629.091c-.294 0-.531-.058-.709-.174a.877.877 0 0 1-.368-.478c-.067-.203-.1-.605-.1-1.207v-3.495h-.618v-.803h.618v-1.504l.839-.619v2.123h.854v.803h-.854v3.552c0 .329.026.54.076.635.072.138.207.207.406.207.094 0 .219-.014.371-.039zM310.053 282.843l.843-.159c.049.428.183.747.402.956.223.21.513.314.878.314.364 0 .647-.093.848-.272a.895.895 0 0 0 .299-.689c0-.241-.085-.427-.257-.561-.119-.093-.403-.207-.857-.343-.653-.204-1.093-.375-1.313-.516a1.436 1.436 0 0 1-.516-.566 1.727 1.727 0 0 1-.183-.808c0-.519.166-.939.497-1.265s.791-.487 1.377-.487c.369 0 .694.067.974.201s.495.313.644.537c.149.226.25.548.309.968l-.823.138c-.076-.664-.437-.996-1.08-.996-.364 0-.638.073-.816.219a.69.69 0 0 0-.268.562c0 .224.084.401.257.53.103.075.408.197.914.364.7.222 1.151.399 1.355.53.205.132.363.312.479.54.115.228.171.497.171.81 0 .581-.183 1.051-.551 1.41-.368.36-.868.54-1.507.54-1.193 0-1.883-.652-2.076-1.957zM-22.484 398.23l.914.281c-.202.941-.555 1.645-1.06 2.107-.506.464-1.119.695-1.842.695-.637 0-1.181-.156-1.633-.467-.451-.312-.821-.812-1.108-1.498-.288-.688-.433-1.498-.433-2.433 0-.925.145-1.706.433-2.345.287-.641.677-1.122 1.17-1.449a2.91 2.91 0 0 1 1.647-.49c.664 0 1.234.207 1.71.62.477.414.811 1.02 1 1.819l-.891.258c-.305-1.165-.918-1.746-1.837-1.746-.458 0-.855.118-1.19.353-.337.233-.604.6-.805 1.097-.201.495-.299 1.123-.299 1.884 0 1.148.201 2.011.604 2.586s.941.86 1.611.86c.496 0 .923-.176 1.283-.528.364-.351.605-.887.726-1.604zM-20.919 398.133c0-1.05.22-1.841.66-2.376.44-.532.997-.801 1.67-.801.664 0 1.217.266 1.663.801s.669 1.306.669 2.312c0 1.091-.219 1.903-.658 2.438-.438.535-.996.803-1.674.803-.667 0-1.222-.268-1.666-.805-.443-.536-.664-1.327-.664-2.372zm.864-.003c0 .786.144 1.372.428 1.755.286.383.64.575 1.064.575.395 0 .736-.194 1.019-.581.284-.39.425-.971.425-1.751 0-.783-.142-1.367-.428-1.751-.285-.383-.64-.574-1.063-.574-.4 0-.742.192-1.024.579-.282.386-.421.968-.421 1.748zM-15.261 401.17v-6.075h.76v.856c.181-.333.406-.582.67-.747.264-.164.568-.248.91-.248.266 0 .513.052.739.156.225.104.408.242.547.412.139.169.243.391.311.662.068.27.104.686.104 1.246v3.736h-.84v-3.7c0-.447-.039-.773-.115-.979a.98.98 0 0 0-.357-.479.974.974 0 0 0-.563-.168c-.404 0-.726.149-.965.451-.24.302-.361.819-.361 1.553v3.321h-.839v.003zM-8.05 400.25l.114.91a2.49 2.49 0 0 1-.628.091c-.293 0-.529-.059-.708-.174a.886.886 0 0 1-.369-.478c-.068-.203-.101-.605-.101-1.209v-3.494h-.618v-.803h.618v-1.504l.84-.618v2.122h.851v.803h-.851v3.553c0 .328.024.54.074.635.073.136.208.206.406.206.095 0 .219-.013.372-.04zM-7.373 393.967v-1.184h.839v1.184h-.839zm0 7.203v-6.075h.839v6.075h-.839zM-5.334 401.17v-6.075h.758v.856c.183-.333.406-.582.67-.747.264-.164.568-.248.911-.248.267 0 .513.052.738.156.225.104.41.242.547.412.139.169.243.391.312.662.069.27.103.686.103 1.246v3.736h-.84v-3.7c0-.447-.039-.773-.114-.979a.98.98 0 0 0-.357-.479.976.976 0 0 0-.563-.168c-.404 0-.726.149-.964.451-.241.302-.361.819-.361 1.553v3.321h-.839v.003zM3.26 401.17v-.893c-.195.343-.423.601-.686.771a1.586 1.586 0 0 1-.891.258c-.393 0-.727-.104-1.007-.315a1.511 1.511 0 0 1-.557-.806c-.094-.323-.14-.767-.14-1.327v-3.765h.84v3.37c0 .625.032 1.045.095 1.257a.957.957 0 0 0 .929.701c.405 0 .735-.165.995-.499.221-.284.331-.81.331-1.573v-3.256h.847v6.076l-.756.001zM8.74 399.215l.87.131c-.146.649-.407 1.139-.787 1.468-.378.329-.849.495-1.408.495-.704 0-1.274-.268-1.712-.805-.436-.537-.654-1.31-.654-2.32 0-1.049.22-1.85.659-2.401.44-.551.999-.826 1.672-.826.643 0 1.181.271 1.611.813.429.542.646 1.325.646 2.351l-.006.275H5.916c.034.683.192 1.196.476 1.544.282.348.625.521 1.027.521.633.001 1.073-.415 1.321-1.246zm-2.772-1.666h2.777c-.039-.526-.15-.919-.338-1.179-.271-.377-.615-.567-1.035-.567-.377 0-.699.158-.965.472-.265.316-.412.741-.439 1.274zM14.147 401.17l-1.528-6.075h.871l.794 3.507.292 1.304.263-1.252.79-3.558h.869l.742 3.524.25 1.161.286-1.172.85-3.514h.823l-1.554 6.075h-.879l-.794-3.639-.19-1.036-1.005 4.674h-.88zM20.108 393.967v-1.184h.839v1.184h-.839zm0 7.203v-6.075h.839v6.075h-.839zM24.02 400.25l.116.91a2.502 2.502 0 0 1-.628.091c-.294 0-.53-.059-.709-.174a.88.88 0 0 1-.368-.478c-.068-.203-.101-.605-.101-1.209v-3.494h-.618v-.803h.618v-1.504l.84-.618v2.122h.851v.803h-.851v3.553c0 .328.024.54.074.635.073.136.208.206.406.206.094 0 .217-.013.37-.04zM24.697 401.17v-8.387h.84v3.008c.197-.278.422-.486.672-.626a1.65 1.65 0 0 1 .825-.209c.53 0 .948.169 1.256.507.306.338.459.955.459 1.856v3.851h-.84v-3.851c0-.526-.092-.903-.279-1.133-.188-.23-.444-.345-.772-.345-.366 0-.677.147-.934.441-.256.293-.385.813-.385 1.562v3.324l-.842.002zM33.66 401.17v-5.274h-.748v-.803h.748v-.646c0-.478.05-.834.15-1.072.1-.238.251-.421.456-.547.205-.126.462-.19.771-.19.24 0 .503.037.791.11l-.125.892a2.43 2.43 0 0 0-.497-.057c-.252 0-.432.065-.54.198-.108.131-.164.382-.164.751v.561h.971v.802h-.971v5.275h-.842zM39.379 399.215l.869.131c-.146.649-.407 1.139-.785 1.468-.378.329-.849.495-1.408.495-.705 0-1.275-.268-1.712-.805s-.655-1.31-.655-2.32c0-1.049.221-1.85.66-2.401.44-.551.997-.826 1.67-.826.645 0 1.182.271 1.611.813.43.542.646 1.325.646 2.351l-.006.275h-3.714c.034.683.192 1.196.474 1.544.283.348.625.521 1.029.521.632.001 1.074-.415 1.321-1.246zm-2.771-1.666h2.777c-.039-.526-.151-.919-.338-1.179-.271-.377-.616-.567-1.035-.567-.377 0-.699.158-.965.472-.266.316-.412.741-.439 1.274zM43.19 400.25l.114.91a2.49 2.49 0 0 1-.628.091c-.294 0-.529-.059-.709-.174a.9.9 0 0 1-.369-.478c-.067-.203-.101-.605-.101-1.209v-3.494h-.617v-.803h.618v-1.504l.841-.618v2.122h.851v.803h-.851v3.553c0 .328.024.54.074.635.072.136.208.206.406.206.095 0 .219-.013.371-.04zM47.107 400.421a3.154 3.154 0 0 1-.879.664 2.174 2.174 0 0 1-.949.221c-.518 0-.932-.155-1.24-.469-.309-.312-.463-.734-.463-1.265 0-.351.073-.661.218-.933.145-.27.342-.482.594-.635.252-.152.632-.265 1.143-.337.686-.102 1.189-.221 1.509-.362l.005-.263c0-.413-.074-.706-.223-.875-.209-.243-.531-.365-.966-.365-.392 0-.686.081-.88.243-.193.163-.337.47-.428.918l-.83-.137c.118-.652.357-1.126.718-1.425.36-.298.875-.446 1.546-.446.521 0 .931.099 1.228.295.298.197.485.44.563.729.078.289.118.713.118 1.27v1.374c0 .96.018 1.565.055 1.816.035.25.107.493.214.729h-.88a2.488 2.488 0 0 1-.173-.747zm-.068-2.3c-.309.153-.769.282-1.376.39-.355.061-.602.13-.744.206a.84.84 0 0 0-.329.334 1.006 1.006 0 0 0-.117.493c0 .291.089.522.269.696.179.174.426.261.743.261.301 0 .574-.079.821-.234.247-.156.429-.365.552-.625.122-.261.183-.643.183-1.144v-.377h-.002zM49.176 401.17v-8.387h.84v8.387h-.84zM-25.628 418.045v-6.076h.755v.849c.167-.316.382-.56.645-.729.263-.171.549-.256.862-.256.35 0 .646.09.888.271.242.18.414.442.517.787.2-.353.427-.617.685-.792a1.48 1.48 0 0 1 .857-.266c.478 0 .855.163 1.13.486.276.323.413.844.413 1.557v4.173h-.84v-3.833c0-.438-.031-.743-.095-.924a.816.816 0 0 0-.784-.571c-.363 0-.66.146-.89.433-.23.29-.344.742-.344 1.362v3.533h-.841v-3.952c0-.503-.077-.857-.231-1.064s-.366-.309-.637-.309c-.385 0-.689.155-.912.467-.223.311-.334.878-.334 1.702v3.156h-.841v-.004zM-18.065 415.008c0-1.05.22-1.841.66-2.375.44-.533.997-.801 1.67-.801.664 0 1.218.268 1.664.801.446.537.668 1.306.668 2.312 0 1.09-.219 1.902-.658 2.437-.438.535-.996.803-1.674.803-.666 0-1.221-.27-1.666-.805-.443-.538-.664-1.326-.664-2.372zm.864-.002c0 .785.144 1.371.428 1.755.286.382.64.574 1.064.574.395 0 .736-.192 1.019-.581.284-.387.425-.97.425-1.748 0-.783-.142-1.367-.428-1.751-.285-.384-.64-.576-1.063-.576-.4 0-.741.192-1.023.578-.283.387-.422.968-.422 1.749zM-11.015 418.045l-1.893-6.076h.891l1.07 3.64c.123.411.23.819.322 1.224.072-.321.175-.705.308-1.155l1.112-3.711h.87l-1.895 6.079h-.785v-.001zM-4.182 416.088l.868.131c-.145.649-.406 1.139-.785 1.469-.378.331-.849.494-1.408.494-.704 0-1.274-.268-1.711-.803-.437-.537-.654-1.311-.654-2.32 0-1.05.22-1.85.659-2.399.441-.552.998-.827 1.67-.827.644 0 1.182.271 1.612.81.429.543.646 1.325.646 2.354l-.006.274h-3.714c.034.684.192 1.196.474 1.544.284.348.625.521 1.029.521.63-.001 1.07-.417 1.32-1.248zm-2.774-1.663h2.777c-.039-.528-.151-.92-.338-1.18-.271-.377-.617-.566-1.035-.566-.377 0-.699.158-.965.472-.264.313-.412.739-.439 1.274zM-2.24 418.045v-6.076h.755v.849a1.9 1.9 0 0 1 .644-.729c.263-.171.55-.256.862-.256.35 0 .646.09.888.271.242.18.413.442.517.787.199-.353.427-.617.685-.792.259-.178.544-.266.857-.266.478 0 .855.163 1.129.486.276.323.414.844.414 1.557v4.173H3.67v-3.833c0-.438-.03-.743-.095-.924a.814.814 0 0 0-.308-.42.797.797 0 0 0-.477-.151 1.09 1.09 0 0 0-.89.433c-.229.29-.345.742-.345 1.362v3.533h-.84v-3.952c0-.503-.077-.857-.231-1.064a.75.75 0 0 0-.639-.309 1.06 1.06 0 0 0-.911.467c-.222.311-.335.878-.335 1.702v3.156h-.84v-.004zM9.044 416.088l.868.131c-.145.649-.406 1.139-.786 1.469-.378.331-.849.494-1.408.494-.704 0-1.274-.268-1.712-.803-.437-.537-.654-1.311-.654-2.32 0-1.05.22-1.85.659-2.399.441-.552.997-.827 1.67-.827.645 0 1.182.271 1.612.81.429.543.646 1.325.646 2.354l-.006.274H6.22c.034.684.192 1.196.474 1.544.283.348.625.521 1.028.521.633-.001 1.073-.417 1.322-1.248zm-2.773-1.663h2.777c-.039-.528-.15-.92-.338-1.18-.271-.377-.616-.566-1.035-.566-.377 0-.699.158-.965.472-.264.313-.412.739-.439 1.274zM10.981 418.045v-6.076h.76v.858c.181-.336.406-.584.67-.749a1.67 1.67 0 0 1 .909-.246c.266 0 .513.052.738.156.226.106.41.24.548.413.138.17.243.387.311.659s.104.688.104 1.247v3.737h-.84v-3.701c0-.444-.039-.772-.114-.979a.987.987 0 0 0-.357-.479.973.973 0 0 0-.563-.167c-.404 0-.726.15-.965.452-.239.299-.361.816-.361 1.551v3.322h-.839v.002zM18.192 417.124l.115.91a2.496 2.496 0 0 1-.629.092c-.294 0-.529-.058-.708-.175a.913.913 0 0 1-.369-.477c-.067-.204-.101-.605-.101-1.211v-3.494h-.616v-.803h.616v-1.505l.842-.617v2.122h.851v.803h-.851v3.553c0 .33.024.542.074.637.072.137.208.207.406.207.094 0 .217-.015.37-.042zM24.678 415.821l.83.131c-.096.725-.334 1.277-.717 1.658a1.881 1.881 0 0 1-1.379.572c-.652 0-1.188-.268-1.608-.803-.421-.537-.632-1.328-.632-2.378 0-1.058.213-1.849.638-2.376.424-.53.97-.793 1.637-.793.514 0 .948.161 1.299.479.353.321.579.803.677 1.441l-.815.148c-.081-.408-.22-.715-.417-.919a.967.967 0 0 0-.715-.304c-.415 0-.758.185-1.031.552s-.41.953-.41 1.753c0 .827.131 1.425.392 1.795.261.369.594.555 1.003.555.32 0 .593-.122.821-.367.224-.247.365-.627.427-1.144zM25.925 415.008c0-1.05.22-1.841.66-2.375.44-.533.997-.801 1.67-.801.664 0 1.218.268 1.663.801.446.537.669 1.306.669 2.312 0 1.09-.219 1.902-.658 2.437-.438.535-.996.803-1.674.803-.667 0-1.222-.27-1.666-.805-.443-.538-.664-1.326-.664-2.372zm.863-.002c0 .785.143 1.371.428 1.755.286.382.64.574 1.064.574.395 0 .735-.192 1.019-.581.285-.387.426-.97.426-1.748 0-.783-.142-1.367-.428-1.751-.284-.384-.639-.576-1.063-.576-.4 0-.742.192-1.023.578-.284.387-.423.968-.423 1.749zM34.839 418.045v-.893c-.194.343-.423.601-.686.771a1.594 1.594 0 0 1-.891.258c-.393 0-.727-.104-1.007-.316a1.52 1.52 0 0 1-.558-.805c-.092-.323-.139-.767-.139-1.325v-3.767h.84v3.37c0 .625.032 1.046.095 1.257a.96.96 0 0 0 .929.7c.404 0 .736-.165.995-.496.221-.286.331-.81.331-1.575v-3.256h.848v6.079h-.756v-.002zM36.919 418.045v-6.076h.76v.858c.181-.336.406-.584.67-.749.264-.166.568-.246.909-.246.267 0 .513.052.738.156.226.106.41.24.548.413.138.17.243.387.311.659s.104.688.104 1.247v3.737h-.84v-3.701c0-.444-.039-.772-.114-.979a.987.987 0 0 0-.357-.479.973.973 0 0 0-.563-.167c-.404 0-.726.15-.965.452-.239.299-.361.816-.361 1.551v3.322h-.839v.002zM44.13 417.124l.114.91a2.496 2.496 0 0 1-.629.092c-.294 0-.529-.058-.708-.175a.91.91 0 0 1-.37-.477c-.067-.204-.101-.605-.101-1.211v-3.494h-.615v-.803h.616v-1.505l.841-.617v2.122h.851v.803h-.852v3.553c0 .33.024.542.074.637.072.137.208.207.406.207.097 0 .221-.015.373-.042zM238.316 403.092v-8.388h3.047c.635 0 1.106.078 1.408.234.303.157.552.416.747.781.192.363.29.786.29 1.268 0 .632-.165 1.146-.494 1.537s-.808.642-1.438.749a2.3 2.3 0 0 1 .584.467c.271.32.508.678.715 1.069l1.199 2.282h-1.144l-.914-1.744c-.354-.682-.624-1.141-.805-1.378-.18-.237-.355-.396-.525-.478-.169-.083-.406-.124-.71-.124h-1.051v3.725h-.909zm.91-4.684h1.954c.427 0 .75-.052.971-.154.222-.104.396-.267.526-.487.129-.222.193-.478.193-.773 0-.423-.124-.755-.371-.998-.248-.242-.616-.363-1.103-.363h-2.172l.002 2.775zM248.481 401.136l.869.133c-.146.647-.407 1.138-.786 1.467-.379.331-.849.495-1.409.495-.705 0-1.274-.269-1.711-.805-.438-.536-.655-1.31-.655-2.321 0-1.048.223-1.848.662-2.399.438-.553.996-.827 1.67-.827.646 0 1.182.272 1.612.813.432.541.646 1.324.646 2.353l-.006.272h-3.714c.033.685.191 1.198.474 1.546.283.347.625.521 1.028.521.634-.001 1.074-.417 1.32-1.248zm-2.769-1.664h2.777c-.039-.527-.151-.918-.338-1.179-.271-.378-.615-.566-1.034-.566-.377 0-.698.155-.965.472-.268.314-.415.739-.44 1.273zM250.42 405.422v-8.404h.778v.789c.188-.328.4-.564.632-.71.232-.146.498-.217.8-.217.392 0 .745.117 1.062.349.316.233.569.586.761 1.063.191.474.288 1.045.288 1.712 0 1.033-.216 1.831-.647 2.388-.433.559-.941.839-1.523.839-.261 0-.5-.068-.728-.201a1.841 1.841 0 0 1-.582-.566v2.957h-.84v.001zm.766-5.333c0 .786.129 1.365.392 1.737s.58.557.955.557c.354 0 .668-.191.939-.577.27-.385.403-.979.403-1.785 0-.794-.13-1.381-.393-1.763-.263-.381-.581-.571-.959-.571-.337 0-.645.205-.922.614-.276.41-.415 1.006-.415 1.788zM259.158 401.136l.869.133c-.146.647-.407 1.138-.787 1.467-.381.331-.85.495-1.409.495-.705 0-1.274-.269-1.71-.805-.438-.536-.656-1.31-.656-2.321 0-1.048.222-1.848.662-2.399.438-.553.997-.827 1.67-.827.645 0 1.182.272 1.612.813s.647 1.324.647 2.353l-.008.272h-3.713c.033.685.192 1.198.474 1.546.282.347.625.521 1.029.521.631-.001 1.07-.417 1.32-1.248zm-2.772-1.664h2.775c-.037-.527-.15-.918-.336-1.179-.271-.378-.615-.566-1.034-.566-.377 0-.7.155-.966.472-.266.314-.414.739-.439 1.273zM264.335 402.342a3.114 3.114 0 0 1-.881.664 2.15 2.15 0 0 1-.949.224c-.518 0-.932-.156-1.239-.47-.309-.313-.463-.734-.463-1.266 0-.352.073-.66.217-.933.146-.27.343-.482.597-.635.249-.151.632-.265 1.143-.338.686-.1 1.188-.219 1.508-.359l.006-.263c0-.416-.075-.708-.223-.876-.209-.244-.533-.367-.965-.367-.395 0-.686.082-.881.246-.194.163-.338.467-.429.917l-.828-.137c.117-.652.357-1.128.718-1.426.359-.298.874-.446 1.544-.446.521 0 .931.099 1.229.296.297.196.484.438.563.729.076.29.116.713.116 1.271v1.372c0 .962.021 1.566.056 1.816.036.251.107.492.215.729h-.881a2.422 2.422 0 0 1-.173-.748zm-.07-2.298c-.31.152-.768.282-1.377.388-.354.061-.602.13-.744.208a.828.828 0 0 0-.329.332 1.022 1.022 0 0 0-.116.495c0 .289.09.521.269.695.18.172.428.26.744.26.301 0 .573-.078.819-.233a1.45 1.45 0 0 0 .551-.627c.122-.261.182-.641.182-1.141v-.377h.001zM268.306 402.172l.114.909a2.513 2.513 0 0 1-.629.093c-.293 0-.529-.059-.708-.176a.884.884 0 0 1-.369-.478c-.066-.203-.101-.604-.101-1.207v-3.497h-.616v-.801h.616v-1.504l.842-.619v2.123h.852v.801h-.852v3.554c0 .328.025.541.073.635.073.138.21.207.405.207.096 0 .22-.013.373-.04zM274.773 402.342a3.138 3.138 0 0 1-.88.664 2.152 2.152 0 0 1-.948.224c-.519 0-.932-.156-1.24-.47s-.464-.734-.464-1.266c0-.352.073-.66.218-.933.145-.27.343-.482.595-.635.253-.151.632-.265 1.143-.338.687-.1 1.189-.219 1.511-.359l.005-.263c0-.416-.074-.708-.223-.876-.211-.244-.531-.367-.967-.367-.391 0-.686.082-.88.246-.193.163-.336.467-.429.917l-.829-.137c.119-.652.357-1.128.718-1.426.359-.298.875-.446 1.546-.446.522 0 .932.099 1.228.296.298.196.486.438.563.729.078.29.117.713.117 1.271v1.372c0 .962.019 1.566.054 1.816.036.251.109.492.215.729h-.879a2.51 2.51 0 0 1-.174-.748zm-.066-2.298c-.31.152-.769.282-1.379.388-.353.061-.6.13-.742.208a.82.82 0 0 0-.328.332 1.012 1.012 0 0 0-.119.495c0 .289.089.521.271.695.179.172.427.26.742.26.301 0 .575-.078.821-.233.245-.155.428-.364.549-.627.123-.261.184-.641.184-1.141v-.377h.001zM277.106 403.092v-5.275h-.749v-.801h.749v-.648c0-.477.05-.834.148-1.071.1-.238.252-.422.456-.547s.461-.188.771-.188c.24 0 .504.036.792.107l-.127.894a2.352 2.352 0 0 0-.497-.058c-.252 0-.432.065-.54.197-.109.133-.164.383-.164.752v.561h.972v.803h-.972v5.274h-.839zM281.414 402.172l.115.909a2.513 2.513 0 0 1-.629.093c-.292 0-.529-.059-.708-.176a.873.873 0 0 1-.368-.478c-.068-.203-.102-.604-.102-1.207v-3.497h-.616v-.801h.616v-1.504l.842-.619v2.123h.851v.801h-.851v3.554c0 .328.024.541.073.635.074.138.209.207.405.207.096 0 .218-.013.372-.04zM285.377 401.136l.866.133c-.145.647-.404 1.138-.785 1.467-.379.331-.849.495-1.409.495-.705 0-1.274-.269-1.711-.805-.438-.536-.655-1.31-.655-2.321 0-1.048.222-1.848.66-2.399.44-.553.997-.827 1.671-.827.646 0 1.182.272 1.613.813.431.541.646 1.324.646 2.353l-.007.272h-3.713c.034.685.191 1.198.474 1.546.283.347.625.521 1.029.521.631-.001 1.073-.417 1.321-1.248zm-2.773-1.664h2.777c-.039-.527-.151-.918-.339-1.179-.271-.378-.616-.566-1.034-.566-.377 0-.699.155-.964.472-.267.314-.413.739-.44 1.273zM287.313 403.092v-6.075h.76v.922c.193-.429.372-.71.535-.849a.798.798 0 0 1 .545-.21c.283 0 .568.11.862.331l-.284.957c-.21-.149-.413-.223-.611-.223a.743.743 0 0 0-.492.188 1.007 1.007 0 0 0-.313.527 4.74 4.74 0 0 0-.161 1.252v3.181l-.841-.001zM244.027 419.964v-2.009h-2.978v-.943l3.129-5.435h.694v5.435h.932v.943h-.932v2.009h-.845zm0-2.952v-3.781l-2.148 3.781h2.148zM246.66 417.768l.887-.092c.069.535.225.931.464 1.193.243.261.523.392.846.392.398 0 .744-.185 1.033-.555.288-.367.436-.867.436-1.51 0-.596-.142-1.063-.421-1.394a1.325 1.325 0 0 0-1.055-.493c-.255 0-.494.07-.717.214a1.516 1.516 0 0 0-.53.599l-.794-.127.669-4.309h3.411v.982h-2.741l-.367 2.257c.407-.353.84-.528 1.297-.528.575 0 1.076.243 1.501.734.424.491.637 1.152.637 1.984 0 .822-.213 1.524-.637 2.11-.425.586-.996.881-1.712.881a2.033 2.033 0 0 1-1.507-.623c-.408-.411-.642-.983-.7-1.715zM254.795 419.964v-6.077h.756v.849c.166-.315.382-.559.644-.729.263-.17.55-.255.861-.255.349 0 .646.09.888.27.239.181.413.442.516.788.199-.353.428-.617.686-.793.258-.177.545-.265.855-.265.479 0 .856.163 1.13.486.275.323.413.844.413 1.556v4.173h-.84v-3.832c0-.438-.031-.744-.095-.924a.822.822 0 0 0-.785-.571 1.09 1.09 0 0 0-.891.433c-.231.289-.345.741-.345 1.361v3.533h-.84v-3.951c0-.503-.077-.858-.232-1.065a.75.75 0 0 0-.639-.309c-.384 0-.688.156-.909.467-.223.312-.336.878-.336 1.702v3.156h-.838v-.003zM262.679 412.761v-1.184h.839v1.184h-.839zm0 7.203v-6.077h.839v6.077h-.839zM264.717 419.964v-6.077h.761v.858c.183-.335.406-.583.669-.749.265-.165.568-.245.909-.245.268 0 .512.051.739.155.226.107.409.241.547.414.139.17.242.386.312.658s.104.688.104 1.248v3.737h-.842v-3.698c0-.445-.037-.773-.114-.98a.963.963 0 0 0-.357-.479.959.959 0 0 0-.562-.168c-.403 0-.728.15-.964.452-.241.299-.361.817-.361 1.551v3.322h-.841zM273.313 419.964v-.893c-.194.343-.423.601-.686.771a1.593 1.593 0 0 1-.893.258c-.392 0-.728-.104-1.007-.315a1.517 1.517 0 0 1-.557-.806c-.093-.323-.139-.766-.139-1.325v-3.767h.839v3.37c0 .625.031 1.046.095 1.258a.958.958 0 0 0 .929.7c.404 0 .734-.165.995-.496.221-.287.33-.81.33-1.576v-3.256h.848v6.079h-.755v-.002zM277.263 419.042l.114.909c-.231.062-.44.093-.628.093-.293 0-.529-.059-.708-.175a.887.887 0 0 1-.367-.479c-.069-.202-.102-.603-.102-1.208v-3.494h-.616v-.803h.616v-1.505l.841-.618v2.123h.851v.803h-.851v3.552c0 .331.023.543.074.638.072.136.207.206.405.206a2.35 2.35 0 0 0 .371-.042zM281.344 418.006l.869.132c-.146.649-.407 1.138-.786 1.469-.381.33-.851.493-1.411.493-.703 0-1.272-.268-1.71-.802-.437-.538-.654-1.312-.654-2.32 0-1.051.222-1.851.661-2.4.44-.552.997-.826 1.671-.826.645 0 1.182.27 1.612.81.43.542.646 1.325.646 2.354l-.006.275h-3.714c.033.683.191 1.196.475 1.544.282.348.625.521 1.028.521.63-.002 1.07-.418 1.319-1.25zm-2.773-1.663h2.777c-.039-.527-.15-.919-.337-1.179-.271-.377-.615-.567-1.033-.567-.378 0-.7.158-.967.472-.266.314-.413.739-.44 1.274zM282.955 418.145l.841-.16c.049.428.184.749.403.958.222.207.514.312.878.312.365 0 .647-.09.847-.271.2-.182.3-.41.3-.69 0-.24-.086-.428-.256-.56-.119-.092-.405-.206-.857-.345-.654-.202-1.095-.372-1.314-.513a1.469 1.469 0 0 1-.516-.567 1.74 1.74 0 0 1-.181-.805c0-.521.165-.943.496-1.267.333-.323.791-.486 1.377-.486.37 0 .693.065.975.199.279.134.493.313.643.537.148.227.251.55.309.968l-.824.137c-.075-.664-.435-.995-1.079-.995-.365 0-.638.073-.816.22a.69.69 0 0 0-.269.562c0 .224.085.401.257.53.104.075.408.196.915.364.699.222 1.15.398 1.355.53.206.131.364.312.479.54.115.226.171.496.171.81 0 .581-.182 1.05-.551 1.41-.368.359-.869.54-1.506.54-1.195 0-1.887-.654-2.077-1.958zM114.166 499.383v-.99l2.908-.007v3.119a4.915 4.915 0 0 1-1.382.98 3.438 3.438 0 0 1-1.469.331c-.671 0-1.268-.168-1.793-.504-.525-.335-.942-.826-1.249-1.471-.307-.647-.46-1.423-.46-2.325 0-.916.154-1.714.463-2.393.309-.681.711-1.182 1.211-1.503.5-.323 1.089-.486 1.771-.486.503 0 .942.095 1.321.282.376.188.687.452.931.795.243.346.427.815.548 1.413l-.818.277c-.109-.475-.248-.827-.417-1.063a1.72 1.72 0 0 0-.662-.552 2.08 2.08 0 0 0-.926-.2c-.5 0-.929.122-1.289.362-.36.243-.649.62-.87 1.131-.219.511-.328 1.136-.328 1.875 0 1.121.233 1.96.702 2.52.468.559 1.078.839 1.83.839.359 0 .725-.083 1.101-.258.375-.171.673-.375.894-.61v-1.562h-2.016zM117.878 499.633c0-1.048.22-1.838.659-2.373.441-.535.998-.8 1.672-.8.663 0 1.217.265 1.663.8.445.535.668 1.306.668 2.31 0 1.092-.22 1.904-.658 2.439-.439.532-.996.803-1.674.803-.667 0-1.222-.271-1.666-.806-.444-.537-.664-1.325-.664-2.373zm.862-.002c0 .787.143 1.374.429 1.755.284.385.639.577 1.063.577.396 0 .735-.192 1.02-.581.283-.39.425-.971.425-1.751 0-.783-.143-1.367-.428-1.749-.286-.384-.641-.576-1.064-.576-.398 0-.74.192-1.023.579-.282.387-.422.968-.422 1.746zM123.216 499.633c0-1.048.22-1.838.659-2.373.441-.535.998-.8 1.672-.8.663 0 1.217.265 1.663.8.445.535.668 1.306.668 2.31 0 1.092-.22 1.904-.658 2.439-.439.532-.996.803-1.674.803-.667 0-1.222-.271-1.667-.806-.443-.537-.663-1.325-.663-2.373zm.862-.002c0 .787.143 1.374.429 1.755.284.385.639.577 1.063.577.396 0 .735-.192 1.02-.581.283-.39.425-.971.425-1.751 0-.783-.143-1.367-.428-1.749-.286-.384-.641-.576-1.064-.576-.4 0-.74.192-1.023.579-.282.387-.422.968-.422 1.746zM132.094 502.673v-.767a1.693 1.693 0 0 1-.589.672c-.24.155-.499.233-.777.233-.586 0-1.094-.277-1.522-.832-.428-.555-.643-1.337-.643-2.344 0-.69.095-1.274.285-1.756.191-.481.445-.839.762-1.07a1.746 1.746 0 0 1 1.058-.348c.278 0 .536.073.773.219.238.148.435.353.592.615v-3.008h.851v8.387h-.789v-.001zm-2.668-3.032c0 .785.137 1.369.41 1.75.273.382.591.572.953.572.359 0 .67-.183.933-.548.263-.367.394-.919.394-1.66 0-.852-.13-1.472-.394-1.863-.263-.389-.596-.586-.996-.586-.354 0-.659.188-.915.564-.258.378-.385.966-.385 1.771zM138.153 502.673l-1.894-6.077h.891l1.071 3.641c.122.411.229.819.321 1.223.072-.32.175-.705.309-1.155l1.111-3.708h.869l-1.893 6.077h-.785v-.001zM144.825 501.921a3.105 3.105 0 0 1-.88.664c-.305.15-.621.227-.948.227-.518 0-.931-.158-1.24-.47-.309-.313-.463-.736-.463-1.267 0-.351.073-.662.216-.932.146-.272.343-.483.596-.635.251-.153.632-.265 1.143-.338.686-.102 1.189-.221 1.509-.359l.005-.266c0-.416-.074-.705-.223-.873-.209-.245-.533-.367-.967-.367-.391 0-.686.08-.88.243-.195.163-.337.47-.428.917l-.829-.136c.118-.652.357-1.129.717-1.426.36-.296.875-.444 1.546-.444.521 0 .93.097 1.228.294s.485.44.563.729c.078.287.117.713.117 1.27v1.374c0 .96.02 1.568.055 1.816.037.25.107.493.214.729h-.879a2.519 2.519 0 0 1-.172-.75zm-.067-2.297c-.309.153-.769.285-1.378.39-.354.061-.601.129-.743.209a.804.804 0 0 0-.328.333.996.996 0 0 0-.118.493c0 .29.09.523.27.696.179.172.427.26.743.26.302 0 .574-.078.821-.233.245-.155.429-.365.551-.628.123-.262.184-.642.184-1.14l-.002-.38zM146.923 502.673v-6.077h.759v.922c.194-.428.372-.71.535-.852a.816.816 0 0 1 .544-.206c.283 0 .57.109.863.33l-.286.956c-.209-.148-.414-.222-.612-.222a.748.748 0 0 0-.491.188 1.007 1.007 0 0 0-.313.525 4.774 4.774 0 0 0-.161 1.255v3.181h-.838zM150.222 495.47v-1.184h.839v1.184h-.839zm0 7.203v-6.077h.839v6.077h-.839zM155.501 501.921a3.105 3.105 0 0 1-.88.664c-.305.15-.622.227-.948.227-.518 0-.932-.158-1.24-.47-.309-.313-.463-.736-.463-1.267 0-.351.072-.662.216-.932.146-.272.343-.483.596-.635.25-.153.632-.265 1.143-.338.686-.102 1.189-.221 1.509-.359l.005-.266c0-.416-.075-.705-.223-.873-.21-.245-.532-.367-.966-.367-.393 0-.686.08-.88.243s-.338.47-.428.917l-.83-.136c.118-.652.357-1.129.717-1.426.359-.296.875-.444 1.545-.444.521 0 .932.097 1.229.294s.484.44.563.729c.077.287.117.713.117 1.27v1.374c0 .96.019 1.568.055 1.816.036.25.107.493.214.729h-.88a2.552 2.552 0 0 1-.171-.75zm-.068-2.297c-.309.153-.769.285-1.377.39-.355.061-.601.129-.743.209a.82.82 0 0 0-.33.333 1.007 1.007 0 0 0-.117.493c0 .29.09.523.269.696.18.172.428.26.744.26.301 0 .574-.078.821-.233a1.45 1.45 0 0 0 .55-.628c.123-.262.184-.642.184-1.14l-.001-.38zM158.369 502.673h-.783v-8.387h.846v2.99c.179-.271.382-.479.608-.612.227-.136.479-.204.757-.204.388 0 .742.116 1.059.35.318.231.573.584.763 1.058.191.473.285 1.049.285 1.725 0 1.028-.215 1.823-.647 2.381-.43.559-.934.839-1.51.839-.291 0-.551-.076-.781-.227-.232-.15-.43-.374-.598-.674v.761h.001zm-.012-3.084c0 .63.057 1.102.171 1.413.116.313.277.55.488.715.209.165.442.246.699.246.348 0 .655-.195.925-.586.269-.392.405-.976.405-1.754 0-.797-.13-1.381-.391-1.758-.259-.372-.579-.56-.957-.56-.348 0-.658.195-.931.586-.271.393-.409.957-.409 1.698zM162.935 495.47v-1.184h.839v1.184h-.839zm0 7.203v-6.077h.839v6.077h-.839zM165.038 502.673v-8.387h.839v8.387h-.839zM167.196 495.47v-1.184h.842v1.184h-.842zm0 7.203v-6.077h.842v6.077h-.842zM170.922 501.751l.114.912c-.232.061-.441.09-.629.09-.292 0-.528-.059-.707-.175a.877.877 0 0 1-.369-.479c-.067-.202-.101-.603-.101-1.206v-3.497h-.616v-.802h.616v-1.503l.842-.62v2.123h.851v.802h-.851v3.553c0 .328.024.54.072.635.074.139.209.207.406.207.095.001.218-.013.372-.04zM171.572 505.015l-.093-.968c.188.063.348.092.481.092.179 0 .327-.036.443-.109s.211-.185.288-.338c.026-.051.136-.389.331-1.009l-1.893-6.087h.908l1.041 3.519c.129.438.25.907.359 1.405.095-.472.209-.934.342-1.383l1.063-3.541h.847l-1.887 6.182c-.248.8-.445 1.335-.59 1.604-.141.268-.303.462-.486.579-.18.119-.386.18-.615.18a1.512 1.512 0 0 1-.539-.126zM105.744 519.534v-5.274h-.749v-.802h.749v-.647c0-.477.05-.834.15-1.072.1-.238.251-.418.455-.544.204-.127.462-.188.771-.188.241 0 .504.034.791.106l-.126.893a2.48 2.48 0 0 0-.496-.056c-.252 0-.433.065-.541.197-.108.131-.163.382-.163.751v.562h.971v.8h-.971v5.277h-.84v-.003zM108.178 512.332v-1.185h.839v1.185h-.839zm0 7.202v-6.076h.839v6.076h-.839zM111.701 519.534l-1.895-6.076h.892l1.071 3.64c.122.411.229.819.321 1.224.073-.321.177-.705.309-1.155l1.112-3.708h.868l-1.893 6.076h-.785v-.001zM118.51 517.577l.869.131c-.146.649-.407 1.138-.785 1.469-.379.328-.85.494-1.409.494-.704 0-1.274-.268-1.712-.806-.437-.534-.654-1.308-.654-2.319 0-1.048.22-1.848.659-2.4.441-.552.998-.826 1.672-.826.643 0 1.181.27 1.611.812.43.543.646 1.325.646 2.352l-.006.275h-3.714c.034.683.192 1.198.475 1.544.282.348.625.521 1.027.521.634 0 1.073-.416 1.321-1.247zm-2.77-1.663h2.776c-.039-.528-.151-.92-.337-1.18-.272-.377-.616-.564-1.035-.564-.378 0-.7.156-.966.472-.266.314-.413.736-.438 1.272zM122.679 516.495c0-1.049.221-1.839.66-2.374.441-.534.997-.8 1.67-.8.664 0 1.218.266 1.664.8.446.535.668 1.307.668 2.311 0 1.092-.219 1.904-.656 2.438-.439.533-.997.803-1.676.803-.666 0-1.22-.27-1.666-.805-.442-.537-.664-1.326-.664-2.373zm.864-.003c0 .788.144 1.374.428 1.756.286.384.641.576 1.064.576.395 0 .736-.192 1.019-.581.284-.389.427-.971.427-1.751 0-.783-.144-1.366-.429-1.748-.285-.385-.64-.576-1.063-.576-.4 0-.741.191-1.024.578-.283.386-.422.967-.422 1.746zM128.337 519.534v-6.076h.76v.921c.195-.428.372-.71.534-.851a.825.825 0 0 1 .546-.207c.282 0 .57.109.862.331l-.285.955c-.209-.147-.414-.221-.611-.221a.746.746 0 0 0-.491.188 1 1 0 0 0-.314.524 4.78 4.78 0 0 0-.16 1.255v3.181h-.841zM134.193 519.534v-6.076h.755v.849a1.91 1.91 0 0 1 .645-.729c.263-.171.55-.256.862-.256.35 0 .646.09.887.271.242.182.414.442.517.79.2-.353.427-.618.685-.795a1.48 1.48 0 0 1 .857-.266c.478 0 .854.163 1.129.489.276.323.414.841.414 1.556v4.171h-.84v-3.833c0-.435-.03-.743-.095-.924a.843.843 0 0 0-.308-.423.815.815 0 0 0-.477-.148c-.364 0-.66.146-.89.436-.229.287-.345.741-.345 1.359v3.533h-.84v-3.952c0-.503-.077-.858-.231-1.064a.748.748 0 0 0-.637-.309c-.385 0-.689.155-.912.467-.223.311-.335.878-.335 1.702v3.156h-.84v-.004zM141.756 516.495c0-1.049.22-1.839.66-2.374.44-.534.997-.8 1.67-.8.664 0 1.217.266 1.663.8.446.535.669 1.307.669 2.311 0 1.092-.219 1.904-.658 2.438-.438.533-.996.803-1.674.803-.666 0-1.222-.27-1.666-.805-.445-.537-.664-1.326-.664-2.373zm.864-.003c0 .788.143 1.374.428 1.756.284.384.639.576 1.063.576.396 0 .737-.192 1.02-.581.285-.389.425-.971.425-1.751 0-.783-.142-1.366-.428-1.748-.285-.385-.64-.576-1.063-.576-.4 0-.742.191-1.024.578-.282.386-.421.967-.421 1.746zM147.415 519.534v-6.076h.76v.921c.194-.428.372-.71.534-.851a.825.825 0 0 1 .546-.207c.282 0 .57.109.862.331l-.284.955c-.209-.147-.414-.221-.612-.221a.747.747 0 0 0-.492.188 1.02 1.02 0 0 0-.314.524 4.78 4.78 0 0 0-.16 1.255v3.181h-.84zM154.113 517.577l.869.131c-.146.649-.407 1.138-.785 1.469-.378.328-.85.494-1.408.494-.705 0-1.275-.268-1.712-.806-.438-.534-.655-1.308-.655-2.319 0-1.048.22-1.848.66-2.4.44-.552.997-.826 1.671-.826.643 0 1.182.27 1.611.812.43.543.647 1.325.647 2.352l-.007.275h-3.713c.033.683.192 1.198.474 1.544.282.348.625.521 1.029.521.631 0 1.071-.416 1.319-1.247zm-2.771-1.663h2.776c-.038-.528-.151-.92-.337-1.18-.271-.377-.616-.564-1.035-.564-.377 0-.7.156-.966.472-.265.314-.412.736-.438 1.272zM159.375 519.534h-.783v-8.387h.845v2.991c.179-.272.382-.479.609-.613a1.44 1.44 0 0 1 .756-.204c.389 0 .743.117 1.06.351.318.23.573.583.762 1.058.191.472.286 1.048.286 1.724 0 1.029-.215 1.824-.648 2.384-.43.557-.934.836-1.51.836-.29 0-.55-.075-.781-.226a1.872 1.872 0 0 1-.597-.674v.76h.001zm-.013-3.083c0 .63.059 1.102.173 1.413.114.313.276.549.486.715.209.165.444.245.7.245.347 0 .654-.194.924-.586s.405-.975.405-1.753c0-.798-.129-1.382-.389-1.759-.259-.371-.579-.559-.958-.559-.347 0-.657.194-.932.586-.272.392-.409.955-.409 1.698zM167.341 517.577l.868.131c-.145.649-.406 1.138-.785 1.469-.379.328-.85.494-1.408.494-.705 0-1.276-.268-1.712-.806-.438-.534-.655-1.308-.655-2.319 0-1.048.22-1.848.66-2.4.439-.552.996-.826 1.671-.826.644 0 1.181.27 1.611.812.43.543.647 1.325.647 2.352l-.007.275h-3.713c.032.683.191 1.198.474 1.544.282.348.625.521 1.028.521.633 0 1.072-.416 1.321-1.247zm-2.772-1.663h2.775c-.036-.528-.149-.92-.335-1.18-.272-.377-.617-.564-1.036-.564-.377 0-.699.156-.966.472-.264.314-.413.736-.438 1.272zM172.518 518.785a3.143 3.143 0 0 1-.881.662c-.304.15-.62.226-.948.226-.518 0-.932-.158-1.24-.469-.309-.314-.462-.737-.462-1.268 0-.35.072-.661.217-.931.146-.272.343-.484.596-.635.25-.153.632-.266 1.143-.338.686-.101 1.188-.222 1.509-.36l.005-.265c0-.416-.074-.705-.222-.873-.21-.246-.533-.367-.966-.367-.393 0-.686.08-.881.243-.193.163-.338.469-.429.916l-.828-.136c.118-.651.357-1.126.718-1.425.359-.297.874-.445 1.544-.445.522 0 .931.098 1.229.295.298.196.485.439.563.729.076.286.116.712.116 1.269v1.374c0 .961.02 1.568.055 1.816.035.251.108.494.214.729h-.879a2.451 2.451 0 0 1-.173-.747zm-.068-2.3c-.309.153-.769.284-1.378.389-.354.061-.601.129-.742.209a.806.806 0 0 0-.329.333 1.022 1.022 0 0 0-.117.494c0 .289.089.522.268.695.181.173.429.26.745.26a1.497 1.497 0 0 0 1.37-.86c.123-.26.183-.642.183-1.141v-.379zM176.489 518.612l.114.912c-.232.061-.441.09-.628.09-.294 0-.531-.058-.71-.175a.87.87 0 0 1-.367-.479c-.067-.202-.101-.604-.101-1.207v-3.496h-.616v-.803h.616v-1.503l.84-.617v2.12h.853v.803h-.853v3.553c0 .328.025.54.075.635.072.139.208.206.405.206.095.003.22-.012.372-.039zM176.84 517.715l.841-.161c.05.431.184.749.403.958.222.209.515.312.879.312.365 0 .648-.088.848-.27a.898.898 0 0 0 .298-.69c0-.241-.084-.426-.258-.56-.118-.093-.402-.207-.855-.346-.657-.199-1.095-.372-1.315-.513a1.445 1.445 0 0 1-.514-.566 1.708 1.708 0 0 1-.184-.805c0-.521.165-.941.497-1.265.331-.326.791-.489 1.375-.489.37 0 .697.068.976.199.278.134.492.314.642.54.149.227.253.547.309.966l-.821.139c-.077-.664-.437-.997-1.078-.997-.367 0-.642.072-.818.219a.693.693 0 0 0-.269.562c0 .224.085.401.257.53.104.075.409.197.916.364.699.222 1.148.399 1.354.53.204.134.364.312.479.54.113.229.172.498.172.81 0 .581-.185 1.051-.552 1.41-.367.36-.868.54-1.506.54-1.195 0-1.885-.654-2.076-1.957zM282.011 532.791v-8.386h2.587c.609 0 1.06.053 1.35.16.395.144.711.413.948.808.237.391.354.872.354 1.444 0 .756-.193 1.373-.578 1.848-.386.477-1.05.715-1.995.715h-1.761v3.411h-.905zm.906-4.399h1.778c.56 0 .97-.129 1.229-.382s.389-.637.389-1.147a1.78 1.78 0 0 0-.19-.852c-.128-.238-.282-.398-.464-.488-.18-.085-.507-.132-.979-.132h-1.761l-.002 3.001zM287.942 529.753c0-1.048.219-1.84.658-2.375.44-.533.997-.8 1.672-.8.663 0 1.217.267 1.663.8.446.537.669 1.306.669 2.313 0 1.092-.22 1.901-.657 2.437-.437.535-.996.802-1.675.802-.666 0-1.222-.267-1.665-.805-.445-.538-.665-1.326-.665-2.372zm.862-.002c0 .785.143 1.371.429 1.756.287.382.64.573 1.063.573.396 0 .737-.191 1.019-.581.283-.389.426-.97.426-1.748 0-.783-.141-1.366-.429-1.751-.285-.384-.64-.576-1.063-.576-.399 0-.742.194-1.023.579-.281.387-.422.968-.422 1.748zM293.279 529.753c0-1.048.219-1.84.659-2.375.44-.533.997-.8 1.672-.8.662 0 1.217.267 1.663.8.446.537.669 1.306.669 2.313 0 1.092-.221 1.901-.658 2.437-.437.535-.996.802-1.674.802-.667 0-1.223-.267-1.666-.805-.445-.538-.665-1.326-.665-2.372zm.863-.002c0 .785.141 1.371.428 1.756.286.382.64.573 1.063.573.396 0 .738-.191 1.021-.581.282-.389.426-.97.426-1.748 0-.783-.142-1.366-.43-1.751-.285-.384-.64-.576-1.063-.576-.397 0-.74.194-1.021.579-.284.387-.424.968-.424 1.748zM298.935 532.791v-6.076h.761v.922c.192-.429.372-.71.534-.852a.811.811 0 0 1 .544-.206c.283 0 .569.109.863.33l-.285.956c-.209-.148-.414-.224-.61-.224a.74.74 0 0 0-.492.189c-.15.126-.255.302-.315.525a4.81 4.81 0 0 0-.16 1.255v3.18h-.84v.001zM306.177 532.791l-1.895-6.076h.893l1.07 3.641c.122.41.229.819.32 1.223.074-.321.178-.705.309-1.155l1.113-3.71h.868l-1.894 6.078h-.784v-.001zM312.848 532.042a3.12 3.12 0 0 1-.88.663 2.153 2.153 0 0 1-.949.224c-.519 0-.932-.157-1.239-.469-.309-.313-.463-.734-.463-1.265 0-.351.074-.661.216-.934.146-.27.343-.484.598-.635.25-.153.632-.265 1.143-.338.686-.1 1.188-.222 1.508-.36l.006-.263c0-.415-.074-.707-.223-.875-.209-.245-.532-.367-.966-.367-.393 0-.686.083-.88.246-.194.162-.337.467-.429.914l-.828-.137c.116-.651.357-1.125.717-1.425.36-.297.876-.444 1.546-.444.521 0 .931.097 1.228.294s.485.44.562.729c.078.289.117.712.117 1.271v1.371c0 .963.021 1.568.056 1.816.035.251.107.494.215.732h-.88a2.493 2.493 0 0 1-.175-.748zm-.067-2.3c-.31.153-.768.282-1.377.389-.354.062-.602.129-.744.21a.798.798 0 0 0-.328.333 1.004 1.004 0 0 0-.118.493c0 .289.091.521.271.695.179.173.427.261.742.261.302 0 .574-.078.82-.236.244-.155.43-.364.551-.625.121-.263.182-.642.182-1.143v-.377h.001zM314.948 532.791v-6.076h.759v.922c.194-.429.373-.71.536-.852a.808.808 0 0 1 .545-.206c.283 0 .569.109.863.33l-.286.956c-.21-.148-.413-.224-.61-.224a.741.741 0 0 0-.492.189 1.016 1.016 0 0 0-.313.525c-.107.394-.16.812-.16 1.255v3.18h-.842v.001zM318.246 525.588v-1.184h.839v1.184h-.839zm0 7.203v-6.076h.839v6.076h-.839zM323.526 532.042a3.123 3.123 0 0 1-.881.663 2.157 2.157 0 0 1-.949.224c-.518 0-.932-.157-1.239-.469-.309-.313-.464-.734-.464-1.265 0-.351.073-.661.218-.934.145-.27.343-.484.596-.635.25-.153.632-.265 1.143-.338.686-.1 1.189-.222 1.509-.36l.006-.263c0-.415-.076-.707-.224-.875-.209-.245-.532-.367-.965-.367-.393 0-.686.083-.881.246-.194.162-.337.467-.428.914l-.829-.137c.118-.651.357-1.125.718-1.425.359-.297.874-.444 1.545-.444.521 0 .932.097 1.228.294.297.197.484.44.563.729.076.289.116.712.116 1.271v1.371c0 .963.02 1.568.055 1.816.037.251.107.494.214.732h-.88a2.467 2.467 0 0 1-.171-.748zm-.069-2.3c-.309.153-.768.282-1.378.389-.354.062-.601.129-.742.21a.794.794 0 0 0-.329.333 1.005 1.005 0 0 0-.119.493c0 .289.091.521.271.695.179.173.427.261.742.261.302 0 .575-.078.821-.236.244-.155.429-.364.55-.625.121-.263.184-.642.184-1.143v-.377zM326.392 532.791h-.782v-8.386h.846v2.99c.18-.274.382-.479.608-.612a1.44 1.44 0 0 1 .757-.204c.388 0 .742.116 1.061.35.318.231.571.584.763 1.058.19.472.285 1.046.285 1.722 0 1.031-.217 1.824-.647 2.383-.431.56-.935.839-1.511.839a1.39 1.39 0 0 1-.781-.226c-.232-.151-.431-.375-.599-.674v.76zm-.011-3.083c0 .63.059 1.102.173 1.413.115.313.278.552.487.715a1.1 1.1 0 0 0 .699.245c.347 0 .654-.194.924-.586.27-.389.403-.975.403-1.753 0-.798-.13-1.381-.389-1.756-.26-.374-.579-.562-.957-.562-.348 0-.657.197-.93.586-.273.392-.41.958-.41 1.698zM330.96 525.588v-1.184h.841v1.184h-.841zm0 7.203v-6.076h.841v6.076h-.841zM333.062 532.791v-8.386h.841v8.386h-.841zM335.224 525.588v-1.184h.839v1.184h-.839zm0 7.203v-6.076h.839v6.076h-.839zM338.947 531.87l.114.909a2.499 2.499 0 0 1-.627.093c-.294 0-.531-.059-.71-.176a.878.878 0 0 1-.367-.479c-.068-.202-.102-.604-.102-1.206v-3.497h-.616v-.802h.616v-1.506l.841-.617v2.123h.852v.802h-.852v3.553c0 .328.025.54.075.635.071.136.208.207.404.207.097.002.221-.013.372-.039zM339.595 535.132l-.092-.968c.187.062.347.093.481.093a.82.82 0 0 0 .443-.109.826.826 0 0 0 .288-.338c.025-.054.136-.39.332-1.01l-1.894-6.086h.907l1.041 3.517c.13.439.249.909.359 1.407.095-.474.209-.934.343-1.384l1.063-3.54h.847l-1.889 6.182c-.248.8-.442 1.332-.587 1.602-.144.271-.306.463-.487.582s-.387.177-.614.177a1.472 1.472 0 0 1-.541-.125zM267.587 549.664v-8.389h4.635v.989h-3.727v2.6h3.223v.99h-3.223v3.81h-.908zM276.667 547.707l.867.131c-.143.649-.405 1.139-.786 1.469-.379.329-.849.494-1.408.494-.704 0-1.273-.268-1.712-.805-.435-.535-.652-1.309-.652-2.32 0-1.048.22-1.848.659-2.399.44-.553.998-.827 1.673-.827.643 0 1.179.27 1.61.813.431.542.646 1.325.646 2.351l-.005.275h-3.715c.034.684.191 1.198.474 1.544.283.348.626.521 1.028.521.631 0 1.073-.415 1.321-1.247zm-2.773-1.666h2.777c-.038-.525-.15-.919-.339-1.177-.271-.379-.615-.566-1.034-.566-.377 0-.699.155-.966.472-.263.313-.411.738-.438 1.271zM279.521 549.664l-1.531-6.076h.873l.793 3.506.292 1.304.263-1.252.79-3.558h.87l.74 3.523.251 1.162.286-1.172.849-3.514h.822l-1.552 6.076h-.88l-.794-3.638-.189-1.035-1.004 4.673h-.879v.001zM288.883 547.707l.868.131c-.145.649-.406 1.139-.785 1.469-.381.329-.85.494-1.408.494-.705 0-1.276-.268-1.712-.805-.438-.535-.654-1.309-.654-2.32 0-1.048.219-1.848.659-2.399.44-.553.997-.827 1.672-.827.644 0 1.181.27 1.611.813.43.542.647 1.325.647 2.351l-.007.275h-3.713c.032.684.19 1.198.474 1.544.282.348.625.521 1.028.521.632 0 1.071-.415 1.32-1.247zm-2.772-1.666h2.775c-.036-.525-.149-.919-.336-1.177-.272-.379-.616-.566-1.035-.566-.377 0-.699.155-.966.472-.264.313-.413.738-.438 1.271zM290.821 549.664v-6.076h.76v.919c.193-.426.372-.707.535-.849a.812.812 0 0 1 .544-.209c.282 0 .569.112.863.331l-.287.958c-.209-.148-.413-.224-.61-.224a.75.75 0 0 0-.491.187 1.02 1.02 0 0 0-.314.528 4.74 4.74 0 0 0-.16 1.252v3.183h-.84zM298.663 548.743l.114.909a2.5 2.5 0 0 1-.63.09c-.293 0-.529-.059-.708-.175a.878.878 0 0 1-.369-.477c-.065-.202-.1-.605-.1-1.209v-3.496h-.618v-.801h.618v-1.505l.84-.617v2.122h.854v.801h-.854v3.555c0 .326.026.54.075.635.073.136.208.204.406.204.094.003.219-.01.372-.036zM299.223 549.664v-8.389h.84v3.011a2.11 2.11 0 0 1 .671-.628c.25-.139.525-.206.826-.206.528 0 .946.167 1.254.505.307.336.46.956.46 1.855v3.852h-.841v-3.852c0-.527-.092-.904-.28-1.133-.188-.229-.442-.343-.771-.343-.367 0-.679.148-.936.442-.256.292-.385.813-.385 1.562v3.323h-.838v.001zM307.801 548.913a3.138 3.138 0 0 1-.88.664 2.152 2.152 0 0 1-.948.224c-.519 0-.932-.158-1.24-.47-.309-.313-.464-.734-.464-1.265 0-.35.072-.661.218-.934.145-.27.343-.481.594-.635.253-.152.633-.265 1.144-.338.687-.1 1.188-.221 1.511-.359l.005-.263c0-.416-.076-.708-.224-.875-.211-.243-.531-.367-.966-.367-.392 0-.686.082-.88.245-.193.163-.337.467-.429.917l-.829-.139c.119-.652.357-1.126.717-1.423.359-.299.875-.447 1.546-.447.521 0 .932.098 1.229.294.298.197.484.44.563.729.077.29.117.713.117 1.272v1.373c0 .961.017 1.566.054 1.816.036.251.107.491.214.729h-.879a2.38 2.38 0 0 1-.173-.748zm-.069-2.298c-.309.15-.768.282-1.378.389-.354.062-.6.129-.742.209a.813.813 0 0 0-.329.331 1.022 1.022 0 0 0-.118.494c0 .289.089.522.269.695.18.175.428.26.744.26.299 0 .575-.078.819-.233.246-.155.43-.364.551-.627.122-.261.184-.643.184-1.141v-.377zM309.896 549.664v-6.076h.761v.855c.181-.333.405-.581.67-.746a1.68 1.68 0 0 1 .909-.248c.266 0 .512.054.739.158.226.104.409.24.547.411.139.17.242.389.312.661.069.27.102.686.102 1.247v3.735h-.84v-3.701c0-.445-.038-.771-.114-.978a.945.945 0 0 0-.92-.65c-.404 0-.727.151-.966.452-.239.302-.358.82-.358 1.555v3.321h-.841v.004zM318.02 549.664v-5.276h-.747v-.8h.747v-.646c0-.477.052-.834.15-1.075a1.14 1.14 0 0 1 .456-.545c.204-.124.459-.187.77-.187.24 0 .503.036.791.106l-.128.895a2.333 2.333 0 0 0-.494-.058c-.253 0-.435.065-.541.196-.109.132-.163.385-.163.754v.56h.97v.803h-.97v5.273h-.841zM320.456 542.459v-1.185h.84v1.185h-.84zm0 7.205v-6.076h.84v6.076h-.84zM323.978 549.664l-1.895-6.076h.894l1.069 3.638c.121.413.229.822.32 1.223.074-.318.177-.702.31-1.154l1.112-3.709h.866l-1.892 6.077h-.785v.001zM330.787 547.707l.869.131c-.145.649-.407 1.139-.787 1.469-.38.329-.85.494-1.408.494-.704 0-1.274-.268-1.712-.805-.436-.535-.653-1.309-.653-2.32 0-1.048.22-1.848.66-2.399.44-.553.997-.827 1.672-.827.644 0 1.181.27 1.611.813.43.542.646 1.325.646 2.351l-.005.275h-3.715c.033.684.191 1.198.475 1.544.282.348.625.521 1.028.521.63 0 1.07-.415 1.319-1.247zm-2.772-1.666h2.776c-.038-.525-.149-.919-.337-1.177-.272-.379-.615-.566-1.035-.566-.378 0-.7.155-.966.472-.263.313-.411.738-.438 1.271zM336.048 549.664h-.783v-8.389h.845v2.993c.181-.274.382-.479.609-.615.228-.136.479-.201.756-.201.39 0 .743.114 1.062.348.319.233.572.586.762 1.058.19.474.285 1.048.285 1.724 0 1.028-.215 1.824-.647 2.383-.431.557-.934.837-1.511.837-.289 0-.551-.075-.781-.227a1.86 1.86 0 0 1-.597-.671v.76zm-.014-3.085c0 .63.06 1.102.174 1.415.114.311.277.55.486.712.211.166.444.246.7.246.346 0 .653-.194.923-.586.271-.39.404-.976.404-1.754 0-.797-.129-1.381-.389-1.755-.26-.375-.578-.562-.958-.562-.346 0-.656.196-.93.588s-.41.956-.41 1.696zM344.013 547.707l.869.131c-.146.649-.407 1.139-.786 1.469-.38.329-.849.494-1.409.494-.705 0-1.274-.268-1.711-.805-.438-.535-.655-1.309-.655-2.32 0-1.048.222-1.848.661-2.399.44-.553.997-.827 1.671-.827.646 0 1.182.27 1.612.813.432.542.646 1.325.646 2.351l-.006.275h-3.715c.034.684.192 1.198.475 1.544.283.348.625.521 1.028.521.632 0 1.072-.415 1.32-1.247zm-2.77-1.666h2.775c-.038-.525-.15-.919-.337-1.177-.27-.379-.615-.566-1.033-.566-.377 0-.7.155-.967.472-.265.315-.413.738-.438 1.271zM349.191 548.913a3.124 3.124 0 0 1-.88.664 2.16 2.16 0 0 1-.949.224c-.519 0-.932-.158-1.239-.47-.309-.313-.465-.734-.465-1.265 0-.35.073-.661.218-.934.146-.27.343-.481.596-.635.251-.152.633-.265 1.144-.338.686-.1 1.188-.221 1.509-.359l.006-.263c0-.416-.077-.708-.224-.875-.209-.243-.532-.367-.966-.367-.393 0-.686.082-.88.245s-.337.467-.428.917l-.829-.139c.117-.652.357-1.126.717-1.423.36-.299.876-.447 1.546-.447.52 0 .931.098 1.228.294.297.197.483.44.563.729.077.29.117.713.117 1.272v1.373c0 .961.02 1.566.055 1.816.036.251.107.491.214.729h-.88a2.437 2.437 0 0 1-.173-.748zm-.069-2.298c-.309.15-.767.282-1.377.389-.355.062-.601.129-.743.209a.805.805 0 0 0-.328.331 1.011 1.011 0 0 0-.119.494c0 .289.09.522.27.695.179.175.427.26.743.26.302 0 .575-.078.821-.233.244-.155.429-.364.549-.627.122-.261.184-.643.184-1.141v-.377zM353.161 548.743l.114.909c-.233.061-.441.09-.628.09-.295 0-.531-.059-.709-.175a.872.872 0 0 1-.368-.477c-.067-.202-.1-.605-.1-1.209v-3.496h-.618v-.801h.618v-1.505l.839-.617v2.122h.854v.801h-.854v3.555c0 .326.026.54.076.635.071.136.207.204.405.204.095.003.22-.01.371-.036zM353.512 547.845l.843-.16c.049.428.183.746.402.955.223.209.513.313.878.313.364 0 .647-.09.848-.272a.891.891 0 0 0 .299-.688c0-.241-.085-.428-.257-.562-.119-.093-.403-.207-.857-.343-.653-.202-1.093-.375-1.313-.516a1.406 1.406 0 0 1-.516-.567 1.703 1.703 0 0 1-.183-.805c0-.518.166-.94.497-1.264.332-.326.791-.486 1.377-.486.369 0 .694.065.974.199s.495.313.644.537c.149.227.25.547.309.968l-.823.136c-.076-.663-.437-.996-1.08-.996-.364 0-.638.075-.816.221a.688.688 0 0 0-.268.56c0 .226.084.401.257.532.103.075.408.194.914.365.7.221 1.151.396 1.355.529.205.132.363.312.479.538.114.229.17.498.17.812 0 .581-.183 1.051-.551 1.411-.368.357-.868.539-1.507.539-1.192-.001-1.883-.652-2.075-1.956zM274.489 670.447l.913.282c-.202.943-.555 1.644-1.06 2.108-.506.462-1.119.695-1.843.695-.637 0-1.18-.155-1.632-.467s-.821-.81-1.108-1.495c-.288-.691-.433-1.501-.433-2.435 0-.924.145-1.704.433-2.347.287-.64.678-1.121 1.168-1.446a2.908 2.908 0 0 1 1.647-.491c.664 0 1.234.206 1.711.62.477.413.809 1.019 1 1.818l-.891.256c-.306-1.162-.917-1.744-1.837-1.744-.459 0-.856.119-1.19.353-.336.234-.604.601-.805 1.097-.202.496-.301 1.124-.301 1.885 0 1.147.202 2.009.605 2.585.404.574.941.86 1.612.86.495 0 .922-.177 1.281-.529.363-.352.607-.887.73-1.605zM279.613 672.638a3.129 3.129 0 0 1-.88.663c-.304.148-.62.225-.949.225-.519 0-.932-.158-1.24-.47-.309-.313-.462-.734-.462-1.265 0-.35.072-.661.218-.934.145-.27.341-.481.594-.635.252-.153.633-.265 1.144-.338.686-.1 1.188-.221 1.509-.359l.005-.263c0-.416-.073-.708-.222-.876-.21-.245-.532-.367-.967-.367-.392 0-.686.083-.88.246-.192.163-.337.467-.43.916l-.827-.138c.119-.652.357-1.126.717-1.426.36-.296.876-.444 1.546-.444.522 0 .931.097 1.229.294.297.197.485.44.562.729.078.289.118.713.118 1.271v1.374c0 .961.019 1.566.055 1.816.034.248.108.491.214.729h-.879a2.406 2.406 0 0 1-.175-.748zm-.067-2.298c-.31.15-.769.282-1.377.387-.354.063-.602.131-.744.209a.822.822 0 0 0-.328.333 1.043 1.043 0 0 0-.116.493c0 .29.087.523.268.695.18.176.428.261.744.261.3 0 .573-.078.819-.233.245-.156.429-.365.552-.628.121-.26.181-.642.181-1.14v-.377h.001zM285.111 671.432l.867.131c-.145.649-.406 1.138-.785 1.469-.38.328-.849.494-1.408.494-.705 0-1.276-.268-1.712-.806-.437-.537-.654-1.308-.654-2.319 0-1.048.221-1.848.659-2.4.441-.552.997-.826 1.672-.826.645 0 1.181.27 1.61.812.432.543.648 1.325.648 2.352l-.006.275h-3.715c.034.683.192 1.198.475 1.544.283.348.625.521 1.028.521.632 0 1.073-.416 1.321-1.247zm-2.771-1.666h2.776c-.037-.525-.149-.919-.337-1.177-.272-.38-.616-.566-1.035-.566-.377 0-.698.155-.965.472-.268.313-.413.739-.439 1.271zM286.722 671.571l.84-.163c.049.431.184.749.403.958.222.209.514.313.88.313.364 0 .646-.09.846-.272a.89.89 0 0 0 .301-.69.674.674 0 0 0-.258-.56c-.121-.092-.404-.206-.857-.343-.654-.201-1.093-.374-1.314-.516a1.435 1.435 0 0 1-.515-.566 1.724 1.724 0 0 1-.184-.805c0-.518.167-.941.499-1.265.331-.325.79-.486 1.375-.486.371 0 .695.065.975.199.281.132.494.314.644.538.149.226.251.547.309.968l-.823.136c-.077-.664-.438-.997-1.079-.997-.366 0-.639.075-.818.219a.702.702 0 0 0-.268.563c0 .226.085.4.258.532.103.075.408.194.916.364.698.222 1.148.396 1.355.53.204.132.363.312.477.537.114.229.171.499.171.813 0 .581-.182 1.051-.549 1.41-.37.357-.871.538-1.507.538-1.196 0-1.887-.652-2.077-1.955zM295.111 672.638a3.1 3.1 0 0 1-.88.663 2.14 2.14 0 0 1-.948.225c-.519 0-.932-.158-1.24-.47-.309-.313-.462-.734-.462-1.265 0-.35.072-.661.216-.934.146-.27.343-.481.596-.635.252-.153.633-.265 1.144-.338.686-.1 1.188-.221 1.509-.359l.005-.263c0-.416-.073-.708-.222-.876-.21-.245-.532-.367-.967-.367-.392 0-.686.083-.88.246-.192.163-.337.467-.429.916l-.828-.138c.117-.652.357-1.126.717-1.426.36-.296.876-.444 1.546-.444.522 0 .931.097 1.228.294.298.197.486.44.563.729.078.289.117.713.117 1.271v1.374c0 .961.02 1.566.055 1.816.035.248.109.491.215.729h-.879a2.434 2.434 0 0 1-.176-.748zm-.066-2.298c-.309.15-.769.282-1.377.387-.354.063-.602.131-.744.209a.81.81 0 0 0-.328.333 1.031 1.031 0 0 0-.116.493c0 .29.087.523.268.695.18.176.428.261.744.261.3 0 .573-.078.819-.233.245-.156.429-.365.552-.628.122-.26.181-.642.181-1.14v-.377h.001zM297.209 673.389v-6.079h.759v.922c.193-.426.373-.708.534-.849a.819.819 0 0 1 .545-.209c.283 0 .57.111.863.33l-.285.958c-.21-.147-.414-.224-.61-.224a.75.75 0 0 0-.493.188 1.012 1.012 0 0 0-.314.527c-.107.392-.16.811-.16 1.253v3.183h-.839zM303.909 671.432l.869.131c-.146.649-.407 1.138-.786 1.469-.381.328-.851.494-1.411.494-.703 0-1.272-.268-1.71-.806-.437-.537-.654-1.308-.654-2.319 0-1.048.221-1.848.661-2.4.44-.552.997-.826 1.671-.826.645 0 1.182.27 1.612.812.43.543.646 1.325.646 2.352l-.006.275h-3.714c.033.683.191 1.198.475 1.544.282.348.625.521 1.028.521.63 0 1.071-.416 1.319-1.247zm-2.773-1.666h2.777c-.039-.525-.15-.919-.337-1.177-.271-.38-.615-.566-1.033-.566-.378 0-.7.155-.967.472-.266.313-.412.739-.44 1.271zM309.086 672.638a3.115 3.115 0 0 1-.88.663 2.157 2.157 0 0 1-.951.225c-.518 0-.932-.158-1.237-.47-.309-.313-.464-.734-.464-1.265 0-.35.073-.661.217-.934.146-.27.342-.481.596-.635.251-.153.632-.265 1.143-.338.688-.1 1.188-.221 1.508-.359l.008-.263c0-.416-.076-.708-.224-.876-.21-.245-.533-.367-.965-.367-.394 0-.687.083-.88.246-.194.163-.338.467-.431.916l-.828-.138c.118-.652.357-1.126.718-1.426.359-.296.875-.444 1.545-.444.521 0 .932.097 1.229.294.295.197.483.44.562.729.077.289.117.713.117 1.271v1.374c0 .961.02 1.566.056 1.816.035.248.106.491.214.729h-.88a2.38 2.38 0 0 1-.173-.748zm-.071-2.298c-.309.15-.766.282-1.375.387-.355.063-.604.131-.745.209a.818.818 0 0 0-.329.333 1.043 1.043 0 0 0-.116.493c0 .29.09.523.269.695.18.176.427.261.743.261a1.5 1.5 0 0 0 1.371-.861c.12-.26.182-.642.182-1.14v-.377zM310.936 673.389v-6.079h.761v.858c.183-.333.406-.581.669-.746a1.66 1.66 0 0 1 .909-.248c.268 0 .512.054.739.158.227.104.41.24.548.41.138.171.241.39.311.662.069.27.104.686.104 1.247v3.735h-.842v-3.701c0-.445-.037-.773-.114-.98a.946.946 0 0 0-.919-.647c-.403 0-.727.15-.964.452-.241.302-.361.819-.361 1.554v3.322h-.84v.003zM318.501 671.571l.841-.163c.048.431.185.749.403.958.221.209.515.313.879.313s.648-.09.847-.272c.2-.183.3-.411.3-.69a.669.669 0 0 0-.258-.56c-.119-.092-.403-.206-.855-.343-.655-.201-1.094-.374-1.315-.516a1.425 1.425 0 0 1-.514-.566 1.7 1.7 0 0 1-.184-.805c0-.518.165-.941.499-1.265.33-.325.79-.486 1.375-.486.369 0 .695.065.975.199.28.132.492.314.642.538.15.226.252.547.31.968l-.823.136c-.077-.664-.437-.997-1.078-.997-.367 0-.64.075-.818.219a.7.7 0 0 0-.268.563c0 .226.084.4.258.532.102.075.407.194.914.364.7.222 1.148.396 1.355.53.204.132.363.312.477.537.115.229.173.499.173.813 0 .581-.184 1.051-.551 1.41-.368.357-.87.538-1.507.538-1.195 0-1.886-.652-2.077-1.955zM327.051 671.432l.869.131c-.146.649-.407 1.138-.786 1.469-.381.328-.851.494-1.411.494-.703 0-1.272-.268-1.709-.806-.438-.537-.655-1.308-.655-2.319 0-1.048.222-1.848.661-2.4.44-.552.997-.826 1.671-.826.645 0 1.182.27 1.612.812.43.543.646 1.325.646 2.352l-.006.275h-3.714c.033.683.191 1.198.475 1.544.282.348.625.521 1.028.521.63 0 1.07-.416 1.319-1.247zm-2.771-1.666h2.775c-.039-.525-.15-.919-.337-1.177-.271-.38-.615-.566-1.033-.566-.378 0-.7.155-.967.472-.266.313-.413.739-.438 1.271zM332.245 671.162l.827.132c-.093.725-.333 1.279-.716 1.658a1.877 1.877 0 0 1-1.379.574c-.651 0-1.188-.268-1.609-.806-.421-.537-.631-1.327-.631-2.375 0-1.058.213-1.851.637-2.378.425-.528.972-.793 1.637-.793.513 0 .948.16 1.301.481.352.318.577.802.677 1.441l-.816.148c-.08-.411-.219-.717-.418-.919a.96.96 0 0 0-.714-.307c-.415 0-.759.186-1.031.553-.273.369-.41.953-.41 1.753 0 .829.132 1.427.392 1.797.263.369.596.555 1.005.555.319 0 .595-.124.819-.37.223-.244.366-.624.429-1.144zM335.685 672.467l.114.91c-.233.061-.441.09-.629.09-.294 0-.53-.059-.709-.175a.875.875 0 0 1-.368-.478c-.066-.201-.1-.605-.1-1.208v-3.497h-.617v-.802h.617v-1.503l.839-.618v2.121h.854v.802h-.854v3.553c0 .328.027.543.077.638.071.136.206.204.405.204.095.002.219-.012.371-.037zM336.362 666.184V665h.839v1.184h-.839zm0 7.205v-6.079h.839v6.079h-.839zM338.08 670.35c0-1.049.221-1.841.661-2.376.439-.532.996-.8 1.67-.8.664 0 1.219.268 1.663.8.445.537.669 1.306.669 2.313 0 1.092-.219 1.901-.656 2.437-.437.535-.997.803-1.676.803-.666 0-1.221-.268-1.665-.806-.444-.535-.666-1.326-.666-2.371zm.863-.003c0 .785.142 1.372.43 1.756.284.384.64.574 1.063.574.396 0 .735-.192 1.019-.582.285-.389.426-.97.426-1.748 0-.783-.143-1.366-.428-1.751-.286-.384-.64-.576-1.063-.576-.399 0-.742.194-1.023.579-.283.387-.424.968-.424 1.748zM343.737 673.389v-6.079h.762v.858c.181-.333.404-.581.667-.746.267-.168.569-.248.911-.248.266 0 .512.054.737.158.228.104.41.24.549.41.138.171.24.39.312.662.067.27.103.686.103 1.247v3.735h-.841v-3.701c0-.445-.038-.773-.115-.98a.945.945 0 0 0-.918-.647c-.404 0-.728.15-.966.452-.24.302-.361.819-.361 1.554v3.322h-.839v.003zM312.657 440.589l-.307 40.938h-3.063l.305-40.938h3.065zM20.318 166.241v54.276h-3.063l.308-54.276h2.755zM270.367 166.212l-.306 55.057h-2.758l.304-55.057h2.76zM20.318 365.364h-3.063l.308-38.624h2.757M312.657 593.467l-.307 30.843h-3.063l.305-30.843h3.065zM226.242 439.917v70.872l-.2.615v.307l-.403.307h-18.963v-2.454h18.762l-1.011 1.226v-70.872h1.815v-.001zM270.367 332.572l-.306 30.337h-2.758l.304-30.337h2.76zM113.808 140.465v-8.388h4.636v.99h-3.727v2.597h3.223v.99h-3.223v3.811h-.909zM122.888 138.508l.87.132c-.146.649-.407 1.138-.786 1.468-.378.33-.849.494-1.408.494-.705 0-1.275-.268-1.712-.804-.438-.537-.655-1.31-.655-2.321 0-1.048.22-1.849.66-2.4.439-.552.997-.827 1.67-.827.645 0 1.182.272 1.611.813.429.542.647 1.325.647 2.352l-.007.274h-3.713c.034.684.192 1.198.474 1.545s.625.521 1.028.521c.635 0 1.075-.416 1.321-1.247zm-2.77-1.665h2.775c-.038-.526-.149-.918-.336-1.179-.271-.377-.617-.566-1.035-.566-.377 0-.699.157-.967.472-.265.315-.412.739-.437 1.273zM126.7 139.544l.115.909a2.508 2.508 0 0 1-.629.092c-.294 0-.529-.059-.708-.174a.893.893 0 0 1-.369-.479c-.067-.202-.101-.605-.101-1.207v-3.496h-.617v-.802h.617v-1.504l.84-.619v2.123h.852v.802h-.852v3.553c0 .329.025.54.075.635.072.137.208.207.406.207.094.001.219-.013.371-.04zM130.617 139.716a3.12 3.12 0 0 1-.88.663 2.148 2.148 0 0 1-.948.223c-.518 0-.931-.155-1.24-.469-.309-.313-.463-.734-.463-1.265 0-.351.073-.661.216-.933.146-.27.343-.483.596-.634.252-.152.632-.266 1.143-.337.686-.101 1.189-.221 1.509-.361l.005-.263c0-.415-.074-.708-.223-.875-.209-.245-.531-.366-.966-.366-.392 0-.686.081-.88.244-.195.163-.337.468-.428.917l-.829-.137c.118-.652.357-1.126.717-1.426.36-.297.875-.445 1.546-.445.522 0 .932.099 1.228.295.298.197.485.439.563.729.078.291.117.713.117 1.271v1.373c0 .961.02 1.566.055 1.816.037.25.108.494.215.73h-.88a2.524 2.524 0 0 1-.173-.75zm-.067-2.3c-.309.153-.769.283-1.377.389-.354.061-.601.13-.743.208a.816.816 0 0 0-.328.333 1.008 1.008 0 0 0-.117.494c0 .29.089.521.269.696.179.173.427.26.743.26a1.499 1.499 0 0 0 1.371-.86c.123-.26.184-.641.184-1.142l-.002-.378zM132.687 140.465v-8.388h.839v8.388h-.839z"/><g><path d="M138.617 140.465v-8.388h.839v3.009a2.06 2.06 0 0 1 .672-.626c.248-.139.524-.209.826-.209.529 0 .947.169 1.255.507.306.337.459.957.459 1.856v3.851h-.84v-3.851c0-.526-.092-.904-.279-1.133-.188-.229-.444-.343-.772-.343-.366 0-.677.147-.934.441s-.385.814-.385 1.561v3.324h-.84v.001zM147.354 138.508l.869.132c-.146.649-.407 1.138-.785 1.468-.379.33-.85.494-1.409.494-.704 0-1.274-.268-1.712-.804-.437-.537-.654-1.31-.654-2.321 0-1.048.22-1.849.66-2.4.439-.552.997-.827 1.67-.827.643 0 1.182.272 1.611.813.429.542.646 1.325.646 2.352l-.006.274h-3.713c.033.684.191 1.198.475 1.545.282.347.625.521 1.027.521.634 0 1.073-.416 1.321-1.247zm-2.77-1.665h2.775c-.039-.526-.151-.918-.337-1.179-.272-.377-.616-.566-1.035-.566-.378 0-.7.157-.966.472-.265.315-.412.739-.437 1.273zM152.532 139.716a3.134 3.134 0 0 1-.88.663 2.148 2.148 0 0 1-.948.223c-.518 0-.931-.155-1.24-.469-.309-.313-.463-.734-.463-1.265 0-.351.071-.661.216-.933.146-.27.341-.483.594-.634.252-.152.634-.266 1.143-.337.687-.101 1.189-.221 1.509-.361l.006-.263c0-.415-.075-.708-.224-.875-.209-.245-.531-.366-.965-.366-.393 0-.687.081-.88.244-.195.163-.338.468-.429.917l-.83-.137c.119-.652.357-1.126.717-1.426.36-.297.875-.445 1.547-.445.521 0 .931.099 1.229.295.297.197.484.439.563.729.077.291.117.713.117 1.271v1.373c0 .961.018 1.566.055 1.816.037.25.107.494.214.73h-.88a2.526 2.526 0 0 1-.171-.75zm-.069-2.3c-.308.153-.767.283-1.376.389-.355.061-.602.13-.743.208a.833.833 0 0 0-.33.333 1.019 1.019 0 0 0-.117.494c0 .29.09.521.269.696.18.173.427.26.744.26a1.501 1.501 0 0 0 1.372-.86c.122-.26.183-.641.183-1.142v-.377h-.002z"/></g><g><path d="M154.63 140.465v-6.076h.76v.922c.195-.427.372-.71.534-.849a.817.817 0 0 1 .546-.209c.282 0 .57.111.862.333l-.285.957c-.209-.149-.413-.223-.611-.223a.744.744 0 0 0-.491.188 1.008 1.008 0 0 0-.315.527 4.74 4.74 0 0 0-.161 1.252v3.181h-.839v-.003z"/></g><g><path d="M159.803 139.544l.114.909a2.495 2.495 0 0 1-.628.092c-.294 0-.529-.059-.709-.174a.896.896 0 0 1-.368-.479c-.067-.202-.101-.605-.101-1.207v-3.496h-.618v-.802h.618v-1.504l.841-.619v2.123h.851v.802h-.851v3.553c0 .329.024.54.074.635.072.137.208.207.406.207.095.001.218-.013.371-.04z"/></g><g><path d="M163.032 140.465v-6.076h.76v.922c.194-.427.372-.71.534-.849a.816.816 0 0 1 .546-.209c.282 0 .57.111.862.333l-.285.957c-.209-.149-.413-.223-.611-.223a.744.744 0 0 0-.491.188 1 1 0 0 0-.314.527 4.74 4.74 0 0 0-.161 1.252v3.181h-.839v-.003z"/></g><g><path d="M169.572 139.716a3.134 3.134 0 0 1-.88.663 2.163 2.163 0 0 1-.95.223c-.518 0-.931-.155-1.238-.469-.31-.313-.465-.734-.465-1.265 0-.351.074-.661.218-.933.145-.27.343-.483.596-.634.252-.152.632-.266 1.143-.337.686-.101 1.189-.221 1.509-.361l.006-.263c0-.415-.075-.708-.224-.875-.209-.245-.531-.366-.965-.366-.392 0-.686.081-.881.244-.194.163-.336.468-.428.917l-.829-.137c.118-.652.357-1.126.718-1.426.359-.297.875-.445 1.546-.445.521 0 .932.099 1.228.295.296.197.484.439.563.729.078.291.116.713.116 1.271v1.373c0 .961.02 1.566.055 1.816.037.25.107.494.216.73h-.881a2.493 2.493 0 0 1-.173-.75zm-.068-2.3c-.309.153-.767.283-1.377.389-.354.061-.601.13-.743.208a.81.81 0 0 0-.328.333 1.009 1.009 0 0 0-.119.494c0 .29.09.521.271.696.178.173.426.26.742.26a1.494 1.494 0 0 0 1.37-.86c.123-.26.184-.641.184-1.142v-.378z"/></g><g><path d="M173.544 139.544l.114.909a2.503 2.503 0 0 1-.63.092c-.293 0-.528-.059-.707-.174a.895.895 0 0 1-.37-.479c-.065-.202-.1-.605-.1-1.207v-3.496h-.617v-.802h.617v-1.504l.841-.619v2.123h.854v.802h-.854v3.553c0 .329.026.54.075.635.072.137.208.207.406.207.092.001.217-.013.371-.04z"/></g><g><path d="M177.618 138.508l.869.132c-.145.649-.407 1.138-.786 1.468-.38.33-.849.494-1.408.494-.705 0-1.275-.268-1.712-.804s-.654-1.31-.654-2.321c0-1.048.221-1.849.661-2.4.438-.552.996-.827 1.671-.827.645 0 1.181.272 1.611.813.432.542.646 1.325.646 2.352l-.005.274h-3.715c.034.684.191 1.198.474 1.545s.625.521 1.028.521c.633 0 1.074-.416 1.32-1.247zm-2.77-1.665h2.775c-.036-.526-.147-.918-.336-1.179-.271-.377-.615-.566-1.035-.566-.377 0-.699.157-.967.472-.264.315-.412.739-.437 1.273z"/></g><g><path d="M183.5 140.465l-1.894-6.076h.891l1.071 3.64c.122.412.23.82.321 1.224.073-.319.176-.706.309-1.155l1.112-3.708h.867l-1.893 6.076h-.784z"/></g><g><path d="M190.173 139.716a3.134 3.134 0 0 1-.88.663 2.151 2.151 0 0 1-.948.223c-.519 0-.932-.155-1.24-.469-.31-.313-.464-.734-.464-1.265 0-.351.073-.661.219-.933a1.6 1.6 0 0 1 .594-.634c.253-.152.632-.266 1.143-.337.686-.101 1.189-.221 1.511-.361l.004-.263c0-.415-.073-.708-.222-.875-.211-.245-.531-.366-.967-.366-.391 0-.686.081-.88.244-.192.163-.336.468-.429.917l-.829-.137c.119-.652.357-1.126.718-1.426.359-.297.875-.445 1.546-.445.521 0 .932.099 1.228.295.298.197.486.439.563.729.078.291.118.713.118 1.271v1.373c0 .961.017 1.566.054 1.816.035.25.108.494.214.73h-.879c-.09-.21-.146-.46-.174-.75zm-.067-2.3c-.31.153-.769.283-1.378.389-.354.061-.601.13-.743.208a.822.822 0 0 0-.328.333 1.008 1.008 0 0 0-.118.494c0 .29.088.521.269.696.179.173.427.26.743.26a1.502 1.502 0 0 0 1.372-.86c.121-.26.182-.641.182-1.142v-.377h.001z"/></g><g><path d="M192.27 140.465v-6.076h.76v.922c.193-.427.373-.71.534-.849a.817.817 0 0 1 .545-.209c.283 0 .569.111.863.333l-.287.957c-.209-.149-.413-.223-.608-.223a.748.748 0 0 0-.493.188 1 1 0 0 0-.314.527 4.74 4.74 0 0 0-.16 1.252v3.181h-.839v-.003z"/></g><g><path d="M195.568 133.263v-1.185h.841v1.185h-.841zm0 7.202v-6.076h.841v6.076h-.841z"/></g><g><path d="M200.848 139.716a3.134 3.134 0 0 1-.88.663 2.151 2.151 0 0 1-.948.223c-.519 0-.932-.155-1.24-.469-.309-.313-.463-.734-.463-1.265 0-.351.072-.661.217-.933.146-.27.343-.483.595-.634.253-.152.633-.266 1.143-.337.687-.101 1.189-.221 1.511-.361l.005-.263c0-.415-.074-.708-.223-.875-.211-.245-.532-.366-.967-.366-.391 0-.686.081-.88.244-.193.163-.336.468-.428.917l-.83-.137c.119-.652.357-1.126.718-1.426.359-.297.875-.445 1.547-.445.521 0 .93.099 1.227.295.298.197.486.439.563.729.078.291.117.713.117 1.271v1.373c0 .961.019 1.566.054 1.816.036.25.108.494.214.73h-.878a2.492 2.492 0 0 1-.174-.75zm-.068-2.3c-.309.153-.768.283-1.378.389-.354.061-.6.13-.742.208a.816.816 0 0 0-.328.333 1.009 1.009 0 0 0-.119.494c0 .29.089.521.27.696.179.173.427.26.743.26.301 0 .575-.078.821-.234a1.46 1.46 0 0 0 .549-.626c.123-.26.184-.641.184-1.142v-.378z"/></g><g><path d="M204.819 139.544l.114.909a2.515 2.515 0 0 1-.63.092c-.293 0-.528-.059-.707-.174a.895.895 0 0 1-.37-.479c-.065-.202-.1-.605-.1-1.207v-3.496h-.617v-.802h.617v-1.504l.841-.619v2.123h.854v.802h-.854v3.553c0 .329.026.54.075.635.072.137.208.207.406.207.093.001.218-.013.371-.04z"/></g><g><path d="M205.496 133.263v-1.185h.84v1.185h-.84zm0 7.202v-6.076h.84v6.076h-.84z"/></g><g><path d="M207.215 137.428c0-1.049.219-1.841.659-2.375.439-.534.997-.802 1.672-.802.662 0 1.217.266 1.663.802.444.534.668 1.305.668 2.311 0 1.091-.22 1.903-.657 2.438-.438.534-.996.802-1.674.802-.667 0-1.223-.268-1.666-.804-.444-.538-.665-1.327-.665-2.372zm.863-.003c0 .787.141 1.372.428 1.755.286.384.64.575 1.063.575.396 0 .737-.194 1.021-.581.283-.389.426-.972.426-1.751 0-.783-.143-1.366-.43-1.75-.286-.384-.64-.575-1.063-.575-.397 0-.74.193-1.021.579-.284.386-.424.969-.424 1.748zM212.872 140.465v-6.076h.76v.858c.181-.333.405-.583.67-.748.264-.165.566-.248.909-.248.266 0 .512.052.738.157.228.104.41.241.548.412.139.17.242.39.312.661.068.271.103.687.103 1.247v3.736h-.841v-3.697c0-.447-.037-.773-.115-.979-.076-.207-.194-.366-.356-.478s-.349-.169-.563-.169c-.403 0-.726.15-.966.452-.24.301-.359.819-.359 1.552v3.322h-.84z"/></g><g><path d="M6.524 266.039v-.99l2.908-.005v3.117a4.94 4.94 0 0 1-1.382.981 3.48 3.48 0 0 1-1.469.328 3.268 3.268 0 0 1-1.793-.502c-.525-.337-.944-.827-1.249-1.473-.308-.645-.46-1.419-.46-2.323 0-.917.154-1.714.463-2.394.309-.68.711-1.18 1.211-1.503.5-.322 1.089-.484 1.771-.484.503 0 .942.094 1.32.28.377.188.687.452.932.796.243.343.427.814.548 1.413l-.818.274c-.109-.473-.248-.826-.417-1.062a1.73 1.73 0 0 0-.662-.552 2.094 2.094 0 0 0-.926-.2c-.5 0-.929.122-1.289.363-.36.242-.649.62-.87 1.131-.219.512-.328 1.136-.328 1.872 0 1.122.233 1.964.702 2.523.468.559 1.078.839 1.83.839.357 0 .725-.087 1.1-.258.375-.173.674-.377.894-.613v-1.563H6.524v.005z"/></g><g><path d="M10.237 266.292c0-1.049.22-1.841.659-2.375.441-.533.998-.802 1.672-.802.663 0 1.217.267 1.663.802.445.534.669 1.305.669 2.311 0 1.091-.22 1.904-.658 2.438-.439.535-.996.802-1.674.802-.667 0-1.222-.267-1.666-.805-.444-.538-.665-1.328-.665-2.371zm.862-.003c0 .787.144 1.372.429 1.755.285.384.64.576 1.063.576.396 0 .736-.195 1.02-.582.283-.389.426-.971.426-1.75 0-.783-.144-1.367-.428-1.751-.286-.384-.641-.575-1.063-.575-.4 0-.741.192-1.024.579-.282.385-.423.968-.423 1.748zM15.574 266.292c0-1.049.22-1.841.659-2.375.441-.533.998-.802 1.672-.802.663 0 1.217.267 1.663.802.445.534.667 1.305.667 2.311 0 1.091-.219 1.904-.656 2.438-.439.535-.996.802-1.674.802-.667 0-1.222-.267-1.667-.805-.442-.538-.664-1.328-.664-2.371zm.862-.003c0 .787.144 1.372.428 1.755.286.384.641.576 1.064.576.396 0 .736-.195 1.02-.582.283-.389.426-.971.426-1.75 0-.783-.144-1.367-.428-1.751-.286-.384-.641-.575-1.063-.575-.4 0-.741.192-1.024.579-.282.385-.423.968-.423 1.748zM24.453 269.329v-.767a1.684 1.684 0 0 1-.59.671 1.395 1.395 0 0 1-.777.232c-.586 0-1.094-.277-1.522-.831-.428-.556-.644-1.336-.644-2.343 0-.69.094-1.275.285-1.757.191-.48.445-.837.762-1.069.317-.233.671-.35 1.058-.35.278 0 .536.074.773.221.238.147.436.353.592.615v-3.009h.851v8.388h-.789v-.001zm-2.669-3.032c0 .785.138 1.369.41 1.751.272.38.591.571.954.571.357 0 .668-.184.932-.55.263-.366.394-.919.394-1.659 0-.851-.13-1.472-.394-1.863-.264-.39-.596-.586-.996-.586-.354 0-.659.188-.914.564-.258.377-.386.967-.386 1.772z"/></g><g><path d="M-22.705 286.199v-8.387h4.635v.989h-3.727v2.598h3.223v.989h-3.223v3.811h-.908zM-17.025 278.997v-1.185h.839v1.185h-.839zm0 7.202v-6.074h.839v6.074h-.839zM-13.503 286.199l-1.893-6.074h.891l1.07 3.638c.123.413.229.822.322 1.226.072-.321.175-.708.309-1.156l1.111-3.707h.869l-1.894 6.074h-.785zM-6.695 284.243l.87.132c-.146.648-.408 1.139-.786 1.468-.378.33-.849.495-1.408.495-.706 0-1.275-.269-1.712-.805-.438-.538-.655-1.311-.655-2.321 0-1.048.22-1.85.66-2.4.439-.552.997-.826 1.67-.826.643 0 1.182.271 1.611.813.429.541.647 1.323.647 2.351l-.007.274h-3.713c.034.685.192 1.197.474 1.545.282.348.625.521 1.028.521.634 0 1.075-.416 1.321-1.247zm-2.77-1.665h2.775c-.038-.527-.149-.919-.337-1.179-.271-.377-.616-.566-1.034-.566-.377 0-.701.156-.967.472-.263.315-.412.738-.437 1.273z"/></g><g><path d="M-1.434 286.199h-.783v-8.387h.845v2.991c.179-.275.382-.479.609-.614.226-.135.479-.203.756-.203.389 0 .743.117 1.06.348.318.233.573.586.762 1.06.191.473.286 1.046.286 1.721 0 1.03-.215 1.825-.648 2.384-.43.559-.934.837-1.51.837-.29 0-.55-.075-.781-.226a1.867 1.867 0 0 1-.597-.673v.762zm-.013-3.083c0 .63.058 1.102.173 1.412.114.314.276.553.486.715.209.166.443.247.7.247.346 0 .654-.195.924-.587.27-.391.405-.974.405-1.752 0-.799-.129-1.384-.389-1.757-.259-.373-.579-.561-.958-.561-.346 0-.656.195-.931.587-.274.391-.41.956-.41 1.696zM6.531 284.243l.869.132c-.146.648-.407 1.139-.785 1.468-.378.33-.849.495-1.408.495-.706 0-1.275-.269-1.712-.805-.438-.538-.655-1.311-.655-2.321 0-1.048.22-1.85.66-2.4.439-.552.997-.826 1.67-.826.643 0 1.182.271 1.611.813.429.541.647 1.323.647 2.351l-.007.274H3.708c.033.685.192 1.197.475 1.545.282.348.625.521 1.028.521.633 0 1.072-.416 1.32-1.247zm-2.771-1.665h2.775c-.038-.527-.151-.919-.337-1.179-.271-.377-.616-.566-1.035-.566-.376 0-.7.156-.966.472-.263.315-.411.738-.437 1.273zM11.709 285.45c-.282.294-.575.516-.88.664s-.621.224-.948.224c-.518 0-.931-.155-1.24-.471-.309-.313-.463-.734-.463-1.265 0-.352.071-.661.216-.933.146-.27.343-.483.596-.635.25-.151.632-.265 1.143-.338.686-.101 1.189-.22 1.509-.36l.004-.263c0-.415-.075-.707-.222-.876-.209-.244-.533-.365-.967-.365-.393 0-.686.081-.88.244-.195.163-.338.468-.428.918l-.829-.138c.118-.652.357-1.127.717-1.426.359-.297.874-.445 1.545-.445.521 0 .931.099 1.229.294.298.197.484.44.563.729.077.291.117.715.117 1.271v1.373c0 .962.02 1.567.055 1.816.037.25.107.493.214.729h-.88a2.538 2.538 0 0 1-.171-.747zm-.068-2.299c-.309.153-.769.283-1.378.388-.355.061-.601.131-.743.209a.813.813 0 0 0-.328.332 1.01 1.01 0 0 0-.118.495c0 .289.09.52.269.695.18.173.428.26.744.26.302 0 .574-.079.821-.234.246-.155.429-.365.551-.626.123-.261.184-.641.184-1.142l-.002-.377z"/></g><g><path d="M15.682 285.278l.114.908a2.467 2.467 0 0 1-.628.093c-.294 0-.529-.059-.709-.174a.893.893 0 0 1-.368-.478c-.067-.203-.101-.605-.101-1.209v-3.495h-.618v-.802h.618v-1.505l.84-.616v2.122h.852v.802h-.852v3.554c0 .328.025.54.075.635.072.136.208.207.406.207.093-.001.218-.014.371-.042z"/></g><g><path d="M16.032 284.379l.841-.16c.05.43.184.749.404.958.221.208.514.313.879.313s.648-.091.848-.271a.886.886 0 0 0 .299-.69c0-.239-.085-.427-.256-.559-.119-.093-.405-.207-.857-.345-.656-.203-1.093-.373-1.314-.516a1.411 1.411 0 0 1-.514-.566 1.719 1.719 0 0 1-.184-.806c0-.521.165-.941.497-1.266.331-.323.79-.486 1.376-.486.37 0 .695.066.975.2.281.133.495.313.643.538s.25.547.308.968l-.822.136c-.077-.664-.437-.996-1.08-.996-.366 0-.639.074-.818.221a.69.69 0 0 0-.268.561c0 .225.086.4.258.531.103.075.408.196.917.364.698.222 1.149.397 1.354.53.206.131.364.312.478.539.114.227.17.497.17.811 0 .581-.182 1.051-.552 1.41-.369.36-.868.539-1.505.539-1.195 0-1.886-.653-2.077-1.958z"/></g><g><path d="M23.415 283.161c0-1.048.22-1.84.659-2.375.441-.533.998-.801 1.672-.801.663 0 1.217.266 1.663.801.445.535.668 1.306.668 2.312 0 1.091-.22 1.902-.658 2.438-.438.534-.996.803-1.674.803-.667 0-1.222-.269-1.666-.805-.443-.536-.664-1.328-.664-2.373zm.862-.003c0 .787.144 1.373.429 1.756.284.383.639.575 1.063.575.396 0 .735-.194 1.02-.581.283-.39.426-.972.426-1.751 0-.783-.144-1.366-.428-1.751-.286-.383-.641-.575-1.064-.575-.398 0-.74.193-1.022.58-.283.386-.424.967-.424 1.747z"/></g><g><path d="M29.071 286.199v-6.074h.759v.922c.194-.429.373-.71.535-.851a.81.81 0 0 1 .545-.209c.283 0 .57.111.863.332l-.286.957c-.209-.149-.413-.223-.61-.223a.737.737 0 0 0-.492.188 1.002 1.002 0 0 0-.313.526 4.755 4.755 0 0 0-.161 1.254v3.18h-.839v-.002z"/></g><g><path d="M34.927 286.199v-6.074h.754v.846c.167-.314.383-.558.646-.728.263-.172.548-.257.861-.257.35 0 .646.09.887.27.242.181.414.443.517.788.199-.353.428-.617.686-.794.259-.176.543-.265.856-.265.478 0 .856.161 1.131.486.274.324.413.843.413 1.556v4.172h-.84v-3.832c0-.436-.032-.744-.095-.926a.829.829 0 0 0-.307-.42.804.804 0 0 0-.477-.15c-.363 0-.661.146-.891.432-.229.288-.344.743-.344 1.361v3.532h-.84v-3.951c0-.503-.078-.858-.232-1.063a.753.753 0 0 0-.637-.311c-.386 0-.688.156-.912.467-.222.312-.334.88-.334 1.705v3.156h-.842z"/></g><g><path d="M42.491 283.161c0-1.048.221-1.84.66-2.375.441-.533.997-.801 1.67-.801.664 0 1.218.266 1.664.801.446.535.668 1.306.668 2.312 0 1.091-.219 1.902-.656 2.438-.439.534-.997.803-1.676.803-.665 0-1.221-.269-1.666-.805-.441-.536-.664-1.328-.664-2.373zm.863-.003c0 .787.144 1.373.428 1.756.286.383.641.575 1.064.575.396 0 .736-.194 1.02-.581.283-.39.426-.972.426-1.751 0-.783-.144-1.366-.429-1.751-.285-.383-.64-.575-1.063-.575-.4 0-.741.193-1.024.58-.281.386-.422.967-.422 1.747z"/></g><g><path d="M48.149 286.199v-6.074h.759v.922c.195-.429.372-.71.534-.851a.814.814 0 0 1 .546-.209c.282 0 .57.111.863.332l-.286.957c-.209-.149-.414-.223-.611-.223a.736.736 0 0 0-.491.188c-.15.126-.254.302-.314.526a4.755 4.755 0 0 0-.161 1.254v3.18h-.839v-.002z"/></g><g><path d="M54.85 284.243l.868.132c-.145.648-.406 1.139-.785 1.468-.378.33-.849.495-1.408.495-.704 0-1.274-.269-1.712-.805-.437-.538-.654-1.311-.654-2.321 0-1.048.22-1.85.659-2.4.44-.552.997-.826 1.67-.826.645 0 1.182.271 1.612.813.429.541.646 1.323.646 2.351l-.006.274h-3.714c.034.685.192 1.197.475 1.545.283.348.625.521 1.028.521.631 0 1.071-.416 1.321-1.247zm-2.774-1.665h2.777c-.039-.527-.151-.919-.338-1.179-.271-.377-.617-.566-1.035-.566-.377 0-.699.156-.965.472-.263.315-.412.738-.439 1.273z"/></g><path stroke="#000" stroke-width=".101" stroke-linecap="round" stroke-linejoin="round" d="M195.39 509.849l22.356 7.423c-3.456-4.978-3.796-9.534-.169-14.597l-22.187 7.174zM18.57 233.009l7.424-22.356c-4.977 3.457-9.533 3.795-14.596.169l7.172 22.187zM269.389 233.686l7.425-22.356c-4.978 3.457-9.533 3.797-14.598.169l7.173 22.187zM18.881 370.778l7.424-22.356c-4.976 3.458-9.533 3.796-14.596.17l7.172 22.186zM268.678 369.708l7.424-22.356c-4.978 3.458-9.534 3.796-14.597.171l7.173 22.185zM310.015 497.399l7.424-22.356c-4.978 3.458-9.534 3.796-14.598.17l7.174 22.186zM311.012 631.393l7.424-22.356c-4.978 3.458-9.534 3.796-14.596.17l7.172 22.186zM19.217 442.654l-7.424 22.356c4.978-3.458 9.533-3.796 14.596-.171l-7.172-22.185z"/><path fill="none" stroke="#000" stroke-width=".5" d="M16.96 324.417l-48.591-44.124M65.471 280.293L16.96 324.417M16.96 236.174l48.511 44.119M-31.631 280.293l48.591-44.119"/><path fill="none" stroke="#000" stroke-width=".532" d="M268.607 329.6l-51.721-46.963M320.241 281.605l-51.634 46.962M268.607 235.675l51.634 46.962M216.886 282.637l51.721-46.962"/><path fill="none" stroke="#000" stroke-width=".544" d="M143.179 559.845l-52.896-48.027M195.982 511.818l-52.803 48.027M143.179 463.79l52.803 48.028M90.283 511.818l52.896-48.028"/><path fill="none" stroke="#000" stroke-width=".565" d="M311.01 592.966l-56.023-48.914M366.932 544.052l-55.922 48.914M311.01 495.142l55.922 48.91M254.987 544.052l56.023-48.91"/></svg>