<svg version="1.1" id="Layer_1" xmlns="http://www.w3.org/2000/svg" x="0" y="0" viewBox="0 0 326 294.6" xml:space="preserve"><style type="text/css">.st0,.st1{fill:none;stroke:#808285;stroke-width:.5}.st1{stroke:#a7a9ac}.st2{fill:#fff}.st3{enable-background:new}.st4,.st5{fill:none;stroke:#000;stroke-width:.5}.st5{stroke-width:1.0001}</style><path class="st0" d="M0 31.9l326-.7M0 48.2l326-.5"/><path class="st1" d="M0 40l326-.5M0 56.4l326-.5M0 72.9l326-.7M0 89.2l326-.5M0 105.7l326-.6M0 122.1l326-.5M0 138.4l326-.5M0 154.9l326-.5M0 171.1l326-.5M0 187.6l326-.5M0 204l326-.5"/><path class="st0" d="M0 228.6l326-.5M0 245l326-.5M0 261.5l326-.5M0 277.8l326-.5M0 294.3l326-.6M0 64.6l326-.5M0 81l326-.5M0 97.4l326-.5M0 113.9l326-.5M0 130.2l326-.5M0 146.7l326-.6M0 163l326-.6M0 179.4l326-.6M0 195.8l326-.5M0 212.2l326-.6"/><path class="st1" d="M0 220.5l326-.7M0 236.8l326-.5M0 253.3l326-.6M0 269.7l326-.5M0 286l326-.5"/><path class="st0" d="M15.1 31.9v262.6M31.3 31.9v262.6M47.7 31.9v262.6M64 31.9v262.6M80.4 31.9v262.6M96.7 31.9v262.6M113.1 31.9v262.6M129.4 31.9v262.6M145.8 31.9v262.6M161.9 31.9v262.6M178.3 31.9v262.6M194.6 31.9v262.6M211 31.9v262.6M227.3 31.9v262.6M243.7 31.9v262.6M260 31.9v262.6M276.4 31.9v262.6M292.6 31.9v262.6M309 31.9v262.6M325.3 31.9v262.6"/><path class="st2" d="M151 41.7h20.4v10.6H151zM152.1 75h20.6v10.6h-20.6zM152.3 108.4h20.6V119h-20.6zM152.6 140.9h20.6v10.6h-20.6zM152.3 173.2h20.6v10.7h-20.6zM152.3 205.8h20.6v10.6h-20.6zM152.1 239.2h20.6v10.6h-20.6zM151.7 272.7h20.6v10.7h-20.6z"/><g><g class="st3"><path d="M157.5 50.1v1h-5.9c0-.3 0-.5.1-.8.1-.4.4-.8.7-1.2.3-.4.8-.8 1.4-1.3 1-.8 1.6-1.4 2-1.9.3-.5.5-.9.5-1.3s-.2-.8-.5-1.1c-.3-.3-.7-.4-1.2-.4s-.9.2-1.3.5c-.3.3-.5.8-.5 1.3l-1.1-.1c.1-.8.4-1.5.9-1.9.5-.4 1.2-.7 2-.7.9 0 1.5.2 2 .7.5.5.7 1.1.7 1.8 0 .4-.1.7-.2 1-.1.3-.4.7-.7 1.1s-.9.9-1.7 1.6c-.7.5-1.1.9-1.3 1.1-.2.2-.3.4-.5.6h4.6zM158.7 46.8c0-1 .1-1.9.3-2.5s.5-1.1 1-1.5c.4-.3 1-.5 1.6-.5.5 0 .9.1 1.3.3.4.2.7.5.9.8.2.4.4.8.6 1.3s.2 1.2.2 2.1c0 1-.1 1.9-.3 2.5-.2.6-.5 1.1-1 1.5s-1 .5-1.6.5c-.9 0-1.5-.3-2-.9-.7-.8-1-2-1-3.6zm1.1 0c0 1.5.2 2.4.5 2.9s.8.7 1.3.7.9-.2 1.3-.7.5-1.5.5-2.9c0-1.5-.2-2.4-.5-2.9s-.8-.7-1.3-.7-.9.2-1.2.6c-.4.5-.6 1.5-.6 3zM165.6 46.8c0-1 .1-1.9.3-2.5s.5-1.1 1-1.5 1-.5 1.6-.5c.5 0 .9.1 1.3.3.4.2.7.5.9.8.2.4.4.8.6 1.3s.2 1.2.2 2.1c0 1-.1 1.9-.3 2.5-.2.6-.5 1.1-1 1.5s-1 .5-1.6.5c-.9 0-1.5-.3-2-.9-.7-.8-1-2-1-3.6zm1.1 0c0 1.5.2 2.4.5 2.9s.8.7 1.3.7.9-.2 1.3-.7.5-1.5.5-2.9c0-1.5-.2-2.4-.5-2.9s-.8-.7-1.3-.7-.9.2-1.2.6c-.4.5-.6 1.5-.6 3z"/></g></g><g><g class="st3"><path d="M155.9 84.1h-1.1v-6.9c-.3.2-.6.5-1 .8s-.8.4-1.1.6v-1.1c.6-.3 1.1-.6 1.6-1s.8-.8 1-1.2h.7v8.8zM160.4 79.3c-.5-.2-.8-.4-1-.7s-.3-.7-.3-1.1c0-.6.2-1.2.7-1.6.5-.4 1.1-.7 1.9-.7.8 0 1.4.2 1.9.7s.7 1 .7 1.6c0 .4-.1.8-.3 1.1s-.5.5-1 .7c.5.2 1 .5 1.2.9.3.4.4.9.4 1.4 0 .8-.3 1.4-.8 1.9s-1.2.8-2.1.8-1.6-.3-2.1-.8-.8-1.2-.8-1.9c0-.6.1-1.1.4-1.4.2-.5.6-.8 1.2-.9zm-.6 2.3c0 .3.1.6.2.9.1.3.4.5.7.7s.6.2.9.2c.5 0 .9-.2 1.3-.5s.5-.8.5-1.3-.2-1-.5-1.3c-.3-.3-.8-.5-1.3-.5s-.9.2-1.3.5-.5.7-.5 1.3zm.4-4.1c0 .4.1.8.4 1 .3.3.6.4 1.1.4.4 0 .8-.1 1-.4.3-.3.4-.6.4-1s-.1-.7-.4-1c-.3-.3-.6-.4-1-.4s-.8.1-1 .4c-.4.3-.5.6-.5 1zM165.6 79.7c0-1 .1-1.9.3-2.5s.5-1.1 1-1.5 1-.5 1.6-.5c.5 0 .9.1 1.3.3.4.2.7.5.9.8.2.4.4.8.6 1.3s.2 1.2.2 2.1c0 1-.1 1.9-.3 2.5-.2.6-.5 1.1-1 1.5s-1 .5-1.6.5c-.9 0-1.5-.3-2-.9-.7-.7-1-1.9-1-3.6zm1.1 0c0 1.5.2 2.4.5 2.9s.8.7 1.3.7.9-.2 1.3-.7.5-1.5.5-2.9c0-1.5-.2-2.4-.5-2.9s-.8-.7-1.3-.7-.9.2-1.2.6c-.4.6-.6 1.6-.6 3z"/></g></g><g><g class="st3"><path d="M155.9 117.1h-1.1v-6.9c-.3.2-.6.5-1 .8s-.8.4-1.1.6v-1.1c.6-.3 1.1-.6 1.6-1s.8-.8 1-1.2h.7v8.8zM164.4 110.4l-1.1.1c-.1-.4-.2-.7-.4-.9-.3-.3-.7-.5-1.1-.5-.3 0-.7.1-.9.3-.3.2-.6.6-.8 1.1-.2.5-.3 1.2-.3 2.1.3-.4.6-.7 1-.9.4-.2.8-.3 1.2-.3.7 0 1.3.3 1.9.8.5.5.8 1.2.8 2.1 0 .6-.1 1.1-.4 1.6-.2.5-.6.8-1 1.1-.4.3-.9.4-1.4.4-.9 0-1.6-.3-2.2-1s-.9-1.8-.9-3.3c0-1.7.3-3 1-3.7.6-.7 1.3-1 2.2-1 .7 0 1.3.2 1.7.6.3.2.6.7.7 1.4zm-4.5 3.8c0 .4.1.7.2 1.1.2.3.4.6.7.8.3.2.6.3.9.3.5 0 .9-.2 1.2-.6.3-.4.5-.9.5-1.5s-.2-1.1-.5-1.4c-.3-.4-.7-.5-1.2-.5s-.9.2-1.3.5c-.3.3-.5.7-.5 1.3zM165.6 112.7c0-1 .1-1.9.3-2.5s.5-1.1 1-1.5 1-.5 1.6-.5c.5 0 .9.1 1.3.3.4.2.7.5.9.8.2.4.4.8.6 1.3s.2 1.2.2 2.1c0 1-.1 1.9-.3 2.5-.2.6-.5 1.1-1 1.5s-1 .5-1.6.5c-.9 0-1.5-.3-2-.9-.7-.7-1-1.9-1-3.6zm1.1 0c0 1.5.2 2.4.5 2.9s.8.7 1.3.7.9-.2 1.3-.7.5-1.5.5-2.9c0-1.5-.2-2.4-.5-2.9s-.8-.7-1.3-.7-.9.2-1.2.6c-.4.6-.6 1.6-.6 3z"/></g></g><g><g class="st3"><path d="M155.9 150.2h-1.1v-6.9c-.3.2-.6.5-1 .8s-.8.4-1.1.6v-1.1c.6-.3 1.1-.6 1.6-1s.8-.8 1-1.2h.7v8.8zM162.2 150.2v-2.1h-3.9v-1l4-5.8h.9v5.8h1.2v1h-1.2v2.1h-1zm0-3.1v-4l-2.8 4h2.8zM165.6 145.8c0-1 .1-1.9.3-2.5s.5-1.1 1-1.5 1-.5 1.6-.5c.5 0 .9.1 1.3.3.4.2.7.5.9.8.2.4.4.8.6 1.3s.2 1.2.2 2.1c0 1-.1 1.9-.3 2.5-.2.6-.5 1.1-1 1.5s-1 .5-1.6.5c-.9 0-1.5-.3-2-.9-.7-.7-1-1.9-1-3.6zm1.1 0c0 1.5.2 2.4.5 2.9s.8.7 1.3.7.9-.2 1.3-.7.5-1.5.5-2.9c0-1.5-.2-2.4-.5-2.9s-.8-.7-1.3-.7-.9.2-1.2.6c-.4.6-.6 1.6-.6 3z"/></g></g><g><g class="st3"><path d="M155.9 183h-1.1v-6.9c-.3.2-.6.5-1 .8s-.8.4-1.1.6v-1.1c.6-.3 1.1-.6 1.6-1s.8-.8 1-1.2h.7v8.8zM164.4 182v1h-5.9c0-.3 0-.5.1-.8.1-.4.4-.8.7-1.2.3-.4.8-.8 1.4-1.3 1-.8 1.6-1.4 2-1.9.3-.5.5-.9.5-1.3s-.2-.8-.5-1.1c-.3-.3-.7-.4-1.2-.4s-.9.2-1.3.5c-.3.3-.5.8-.5 1.3l-1.1-.1c.1-.8.4-1.5.9-1.9.5-.4 1.2-.7 2-.7.9 0 1.5.2 2 .7.5.5.7 1.1.7 1.8 0 .4-.1.7-.2 1-.1.3-.4.7-.7 1.1s-.9.9-1.7 1.6c-.7.5-1.1.9-1.3 1.1-.2.2-.3.4-.5.6h4.6zM165.6 178.6c0-1 .1-1.9.3-2.5s.5-1.1 1-1.5 1-.5 1.6-.5c.5 0 .9.1 1.3.3.4.2.7.5.9.8.2.4.4.8.6 1.3s.2 1.2.2 2.1c0 1-.1 1.9-.3 2.5-.2.6-.5 1.1-1 1.5s-1 .5-1.6.5c-.9 0-1.5-.3-2-.9-.7-.7-1-1.9-1-3.6zm1.1 0c0 1.5.2 2.4.5 2.9s.8.7 1.3.7.9-.2 1.3-.7.5-1.5.5-2.9c0-1.5-.2-2.4-.5-2.9s-.8-.7-1.3-.7-.9.2-1.2.6c-.4.6-.6 1.6-.6 3z"/></g></g><g><g class="st3"><path d="M155.9 216.1h-1.1v-6.9c-.3.2-.6.5-1 .8s-.8.4-1.1.6v-1.1c.6-.3 1.1-.6 1.6-1s.8-.8 1-1.2h.7v8.8zM158.7 211.7c0-1 .1-1.9.3-2.5s.5-1.1 1-1.5c.4-.3 1-.5 1.6-.5.5 0 .9.1 1.3.3.4.2.7.5.9.8.2.4.4.8.6 1.3s.2 1.2.2 2.1c0 1-.1 1.9-.3 2.5-.2.6-.5 1.1-1 1.5s-1 .5-1.6.5c-.9 0-1.5-.3-2-.9-.7-.7-1-1.9-1-3.6zm1.1 0c0 1.5.2 2.4.5 2.9s.8.7 1.3.7.9-.2 1.3-.7.5-1.5.5-2.9c0-1.5-.2-2.4-.5-2.9s-.8-.7-1.3-.7-.9.2-1.2.6c-.4.6-.6 1.6-.6 3zM165.6 211.7c0-1 .1-1.9.3-2.5s.5-1.1 1-1.5 1-.5 1.6-.5c.5 0 .9.1 1.3.3.4.2.7.5.9.8.2.4.4.8.6 1.3s.2 1.2.2 2.1c0 1-.1 1.9-.3 2.5-.2.6-.5 1.1-1 1.5s-1 .5-1.6.5c-.9 0-1.5-.3-2-.9-.7-.7-1-1.9-1-3.6zm1.1 0c0 1.5.2 2.4.5 2.9s.8.7 1.3.7.9-.2 1.3-.7.5-1.5.5-2.9c0-1.5-.2-2.4-.5-2.9s-.8-.7-1.3-.7-.9.2-1.2.6c-.4.6-.6 1.6-.6 3z"/></g></g><g><g class="st3"><path d="M157.3 244.3c-.5-.2-.8-.4-1-.7-.2-.3-.3-.7-.3-1.1 0-.6.2-1.2.7-1.6s1.1-.7 1.9-.7c.8 0 1.4.2 1.9.7s.7 1 .7 1.6c0 .4-.1.8-.3 1.1s-.5.5-1 .7c.5.2 1 .5 1.2.9.3.4.4.9.4 1.4 0 .8-.3 1.4-.8 1.9s-1.2.8-2.1.8-1.6-.3-2.1-.8-.8-1.2-.8-1.9c0-.6.1-1.1.4-1.4.3-.5.7-.8 1.2-.9zm-.5 2.2c0 .3.1.6.2.9.1.3.4.5.7.7s.6.2.9.2c.5 0 .9-.2 1.3-.5s.5-.8.5-1.3-.2-1-.5-1.3c-.3-.3-.8-.5-1.3-.5s-.9.2-1.3.5-.5.8-.5 1.3zm.3-4.1c0 .4.1.8.4 1 .3.3.6.4 1.1.4.4 0 .8-.1 1-.4.3-.3.4-.6.4-1s-.1-.7-.4-1c-.3-.3-.6-.4-1-.4s-.8.1-1 .4c-.4.3-.5.7-.5 1zM162.5 244.7c0-1 .1-1.9.3-2.5s.5-1.1 1-1.5 1-.5 1.6-.5c.5 0 .9.1 1.3.3.4.2.7.5.9.8.2.4.4.8.6 1.3.1.5.2 1.2.2 2.1 0 1-.1 1.9-.3 2.5-.2.6-.5 1.1-1 1.5s-1 .5-1.6.5c-.9 0-1.5-.3-2-.9-.7-.7-1-1.9-1-3.6zm1.2 0c0 1.5.2 2.4.5 2.9s.8.7 1.3.7.9-.2 1.3-.7c.3-.5.5-1.5.5-2.9 0-1.5-.2-2.4-.5-2.9s-.8-.7-1.3-.7-.9.2-1.2.6c-.4.6-.6 1.6-.6 3z"/></g></g><g><g class="st3"><path d="M161.3 275.4l-1.1.1c-.1-.4-.2-.7-.4-.9-.3-.3-.7-.5-1.1-.5-.3 0-.7.1-.9.3-.3.2-.6.6-.8 1.1-.2.5-.3 1.2-.3 2.1.3-.4.6-.7 1-.9.4-.2.8-.3 1.2-.3.7 0 1.3.3 1.9.8.5.5.8 1.2.8 2.1 0 .6-.1 1.1-.4 1.6-.2.5-.6.8-1 1.1-.4.3-.9.4-1.4.4-.9 0-1.6-.3-2.2-1s-.9-1.8-.9-3.3c0-1.7.3-3 1-3.7.6-.7 1.3-1 2.2-1 .7 0 1.3.2 1.7.6.3.1.6.7.7 1.4zm-4.4 3.8c0 .4.1.7.2 1.1.2.3.4.6.7.8.3.2.6.3.9.3.5 0 .9-.2 1.2-.6.3-.4.5-.9.5-1.5s-.2-1.1-.5-1.4c-.3-.4-.7-.5-1.2-.5s-.9.2-1.3.5c-.4.2-.5.7-.5 1.3zM162.5 277.7c0-1 .1-1.9.3-2.5s.5-1.1 1-1.5 1-.5 1.6-.5c.5 0 .9.1 1.3.3.4.2.7.5.9.8.2.4.4.8.6 1.3.1.5.2 1.2.2 2.1 0 1-.1 1.9-.3 2.5-.2.6-.5 1.1-1 1.5s-1 .5-1.6.5c-.9 0-1.5-.3-2-.9-.7-.7-1-1.9-1-3.6zm1.2 0c0 1.5.2 2.4.5 2.9s.8.7 1.3.7.9-.2 1.3-.7c.3-.5.5-1.5.5-2.9 0-1.5-.2-2.4-.5-2.9s-.8-.7-1.3-.7-.9.2-1.2.6c-.4.5-.6 1.5-.6 3z"/></g></g><path class="st4" d="M185.4 220l-12.9-9.2"/><path class="st5" d="M15.3 149.9c.4-.8 1.9-4.2 1.9-4.2.5 1.1.8 3.1 1.3 4.2 0 .3.6 2.2.8 1.9.8-.8 1-2.4 1.5-3.1.3-.1 1.1-1.5 1.1-1.5.4 0 0-.8.4-.8.3 0 .9 2.2.9 2.2 0 2.8 2.4-2 2.7-2.4.1-.4.8-.8.8-1.1 0-.1.1-.8.4-.9.1-.3 1.1 4.2 1.3 4.2.3 0 3.3-3.3 3.3-3.3 0 1.8-.3 3.6-.3 5.2 0 1 1.5-1.9 1.9-2 .4-.3 0-.9.3-.3.5 1.8 1.9 3.8 1.9 5.6 0 2 2.6-4.5 2.6-4.6.4-1.4.1-1 .9.1.4.6.6 2.3.6 1.9 0-.9 1.3-2.8 1.3-4.1 0-.4.8-1.2.8-1.7 0-1 1 1.9 1 2.3 0 2.2 1.2-1.1 1.2-1.4.4-.8.5-1.9.8-2.4.5-1.1.8 1.5 1.2 1.9.1.1.4.9.4 1.3 0 2.2 2.7-5 2.7-4.3 0 1.9.6 4 .6 5.1.1-1.1 2-3.2 2-3.2 1.4 4.5.8 5.4 2.6-.3.4-1.3.5 2.9.8 3.7.1.6 2.3-4.5 2.3-3.3s.8 6.6 1.5 4.9c.8-1.5 2.9-6.1 2.9-2.7v3.3c0 3.2.5-1.4 1.3-2.2 2.2-2.2-.5-3.7 1.5.8.3.4 1 4.5 1 3.3 0-.4 2.3-10.5 2.4-9.8 1.5 4.7 1.5-2.7 1.5-5.2 0-1.4 1-3.3 1.2-4.6 1.1-6 1.8-.8 1.7-.6 0 0-.6 0-.6-1.1 0-2.3 2.3-10.6 2.3-10.6 4.1 6.3.4-.8 2.2-6.1.1-.8 1.5 2.9 1.5 1.5 0-4.9 1.3-8.4 1.3-12.5 0-.5 1 4.5 2.9 6.4s-2.6-8.8.8-3.8c.4.5 1.9 4 1.9 3.8 0-2.3 1-5 1-6.9 0 1.7.9 3.1.9 4.7 0 .6.6.8 1.2.8 1.8.3 1.8-.1 1 1.2-.3.4.1 4.9.5 4.9.3 0-.5.3-.4.3.3 0 2.2-1.4 2.2-.6v6.1c0 3.1 1.7-1.7 1.7 1.9 0 1.8 2.2 4 2.2 4.9.4 4.1-.3 6.8 2.2 1.4 1.9-4.7 1.5 2.8 1.5 4.7s.4 4.5.4 6.6c0 .8 2-6.4 2.7-.4 0 .5.5 4.6.8 5.1.5 1.9 1.7 3.1 1.7 0 0-4.7 1 6.3 1 7.8 0 5.1 2.7-4.1 2.7-4.9s1.2-3.8 1.4-4.5c0 0-.6 5-.3 6.6.8 2.4 2.9 9.2 2.9 11.8.4-1.3.3-3.2 1.3-2.9.9.1 1.7 0 2.2-.6.6-.8.9-1.8.9-3.3 0-1 1.4.8 1.4-2.9 0-.6.5-1.1.5-1.8 0-3.3.8 0 .8 1.4 0 1.7.4 2.8 1.4.5.8-2 1.5-4.9 2.2-6.9.4-1.5.1.8.4 1.5 0 .4.9 4.1.9 4.1.6.5 2.3-2.4 2.6-3.2 0-.1.5-2 .5-2 .4-.4.4-1.1.6.1.4 1.8 1.7 4.9 1.7 6 1-1.1 1.9-3.7 2.7-4.5.4-.4 1.5-2.4 1.5-2.8 0-.3.9 2.7 1 3.4 0 .1.8 1.9.8 1.9 1 0 2.7-3.4 2.9-4.1.5-1.1.9 1.8 1.1 2.6.8 1.8.5 3.1 2.3.8.4-.6.9-3.3.9-4.1l.6-2c.1.1.9 3.5 1.1 3.8.1.4 1.1 2 1.1 2M186.3 143.2c0 1.4 1.1 5.2 1.5 6.3 1.7 3.6 2.3-8.7 4.6-1.4 2.2 6.4 1.5-.6 3.5-2.6 1.1-1.1.6 3.6 1.8 6 .8 1.5 4.3-6.9 4.6-7.3.1-.4 1.1 3.4 1.1 5.6 0 5.1 3.3-6.3 3.3-6.3.1-.4 2.3 8.6 2.3 6 0-.9 1.9-4.9 1.9-4.6 1.9 10.2 5-1.4 5.4-.6 2.7 4.3 1.2 8.9 4.1-.1.5-2.2 2.3 2.8 2.4 3.6.4 2 4.1-7.4 4.1 0 0 2.2 2-.5 3.2-1.7 1-1 1.7 5.2 1.8 5.6 1.4 2.7 3.7-4.7 3.7-3.1 0 3.8 4 10.4 4 1.9 0-5.9 3.1-1.8 3.1 1.1 0 .9 1.7 4.2 1.7.5 0-1.3.5-3.6.5-5.2 0-.9 2.9 4.5 2.9-3.1 0-.8 0-4.6.8-3.1.5 1.4.9 3.7 1.5 4.9 0 0 0 1.3-.3 1.3"/><path class="st5" d="M249.7 145.8c.8-1.1 3.1-4.3 3.1-5.5 0-.3.1 1.5.1 1.5.3.8 1.2 2.4 1.2 2.8.6 3.7 2.4-1.7 3.3-2.7 1.5-1.5-.1-1.9 1.1.8.6 1.1 1.4 4.9 1.5 4.2.6-1.5 2.2-3.5 2.9-5 2.3-4.7 1.7 8.9 3.2 3.8.3-.9 1.7-2.8 1.7-3.8 0-.4 1.7 5.4 1.7 7 0 .1 1-3.3 1.1-3.7.3-.4.8-1.1 1-1.5.1-.4 2 4.2 2.7 6.8 0 .1 1.2-2.8 1.3-3.6 0-.4.4-4 .8-2.4.3 1.3 1.1 4.1 1.5 5.4.6 1.9 2.2-4.2 2.9-5 .6-.6-.4-1.4.4.1.4 1 1.1 4.7 1.4 4.9.8.8 3.1-5.2 3.6-7.2 1.1-3.6 2.3-.4 2.3 1.8.4-1.8 2.6-6 2.6-7.5 0-3.3 1.1 1.1 1.5 2.2 0 .1.6 2 .6 1.3.1-2 2-6 3.1-7.9.4-.8.4-2 .5-.5.4 1.9 1 3.4 1 5.4 0 3.8 1.3-2.6 1.5-3.4.8-2.3.4-.8.4.5 0 2.9.4 6 .4 8.9 0 5.8 1.5-4.1 1.5-3.8l1.1 7v2c0 3.1 2.3-2.2 2.6-2.8.4-1.3 1.1-2.3 1.5-3.4.4-1.5.1 1.1.1 1.8 0 1.7.8 3.8.8 4.6 0 3.7.6 0 1-1.4.8-2.7 2.4-4.6 4.3-6.5.8-.8 1.5 5.4 1.5 6.9.4-.4 1-.9 1-1.5 0-.4.4-.8.5-.9.3-.3 1.3-2.3 1.3-2.6 0-.1.1-.5.1-.8 0-.4.3-.4.4-.8.4-.5.4-.9.4-.9.3-.6.3-.6.3 0 0 .1.4.8.4.9 0 1.1.4 2.7.4 3.8v1.8c0 .1.5-.8.5-.8 0-.4.8-.8.8-1 .6-1.1 1.9 1.1 1.9 1.4"/><g class="st3"><path d="M8.2 3.1c.8-.1 1.9-.2 3-.2 1.6 0 2.7.3 3.5 1 .6.5.9 1.3.9 2.3 0 1.6-1 2.6-2.2 3v.1c.9.3 1.5 1.2 1.7 2.4.4 1.7.7 2.8.9 3.3h-1.6c-.2-.4-.5-1.4-.8-2.9-.4-1.6-1-2.3-2.4-2.3H9.7V15H8.2V3.1zm1.5 5.4h1.6c1.7 0 2.7-.9 2.7-2.3C14 4.7 12.9 4 11.2 4c-.7 0-1.2.1-1.5.1v4.4zM18.6 10.8c0 2.1 1.4 3 2.9 3 1.1 0 1.8-.2 2.4-.4l.3 1.1c-.5.2-1.5.6-2.9.6-2.6 0-4.2-1.8-4.2-4.3s1.5-4.6 4-4.6c2.8 0 3.5 2.4 3.5 4 0 .3 0 .6-.1.7h-5.9zm4.6-1.1c0-1-.4-2.5-2.2-2.5-1.6 0-2.3 1.4-2.4 2.5h4.6zM32.7 12.8c0 .7 0 1.5.1 2.1h-1.4l-.1-1.1h-.1c-.5.7-1.4 1.3-2.6 1.3-1.7 0-2.6-1.2-2.6-2.5 0-2.1 1.8-3.2 5.2-3.2v-.2c0-.7-.2-2-2-2-.8 0-1.6.2-2.3.6l-.4-1c.7-.4 1.8-.7 2.8-.7 2.6 0 3.3 1.8 3.3 3.5l.1 3.2zm-1.5-2.3c-1.7 0-3.6.3-3.6 1.9 0 1 .7 1.5 1.5 1.5 1.1 0 1.9-.7 2.1-1.4.1-.2.1-.4.1-.5-.1 0-.1-1.5-.1-1.5zM41.3 14.6c-.4.2-1.3.5-2.5.5-2.6 0-4.3-1.8-4.3-4.4 0-2.6 1.8-4.6 4.6-4.6.9 0 1.7.2 2.2.5L41 7.7c-.4-.2-1-.4-1.8-.4-2 0-3 1.5-3 3.2 0 2 1.3 3.2 3 3.2.9 0 1.5-.2 1.9-.4l.2 1.3zM45.3 4.2v2.1h2.2v1.2h-2.2v4.6c0 1.1.3 1.7 1.2 1.7.4 0 .7 0 .9-.1l.1 1.2c-.3.1-.8.2-1.4.2-.7 0-1.3-.2-1.7-.7-.4-.5-.6-1.2-.6-2.3V7.5h-1.3V6.3h1.3V4.7l1.5-.5zM51 3.9c0 .5-.4 1-1 1s-.9-.4-.9-1c0-.5.4-1 1-1 .5 0 .9.4.9 1zm-1.8 11V6.3h1.6v8.6h-1.6zM54 6.3l1.7 4.8c.3.8.5 1.5.7 2.2h.1c.2-.7.4-1.4.7-2.2l1.7-4.8h1.6l-3.4 8.6h-1.5l-3.3-8.6H54zM62.6 10.8c0 2.1 1.4 3 2.9 3 1.1 0 1.8-.2 2.4-.4l.3 1.1c-.6.2-1.5.6-2.9.6-2.6 0-4.2-1.8-4.2-4.3s1.5-4.6 4-4.6c2.8 0 3.5 2.4 3.5 4 0 .3 0 .6-.1.7h-5.9zm4.6-1.1c0-1-.4-2.5-2.2-2.5-1.6 0-2.3 1.4-2.4 2.5h4.6zM74.4 9.1c0-1.1 0-2-.1-2.8h1.4l.1 1.5c.6-1 1.7-1.7 3.1-1.7 2.1 0 3.7 1.8 3.7 4.3 0 3.1-1.9 4.6-3.9 4.6-1.1 0-2.1-.5-2.6-1.3v4.7h-1.5l-.2-9.3zm1.6 2.3c0 .2 0 .4.1.6.3 1.1 1.2 1.8 2.3 1.8 1.7 0 2.6-1.3 2.6-3.3 0-1.7-.9-3.2-2.6-3.2-1.1 0-2.1.7-2.4 1.9v2.2zM90.5 12.8c0 .7 0 1.5.1 2.1h-1.4l-.1-1.1H89c-.5.7-1.4 1.3-2.6 1.3-1.7 0-2.6-1.2-2.6-2.5 0-2.1 1.8-3.2 5.2-3.2v-.2c0-.7-.2-2-2-2-.8 0-1.7.2-2.3.6l-.4-1c.7-.4 1.8-.7 2.8-.7 2.6 0 3.3 1.8 3.3 3.5l.1 3.2zM89 10.5c-1.7 0-3.6.3-3.6 1.9 0 1 .7 1.5 1.5 1.5 1.1 0 1.9-.7 2.1-1.4v-2zM94.9 4.2v2.1h2.2v1.2h-2.2v4.6c0 1.1.3 1.7 1.2 1.7.4 0 .7 0 .9-.1l.1 1.2c-.3.1-.8.2-1.4.2-.7 0-1.3-.2-1.7-.7-.4-.5-.6-1.2-.6-2.3V7.5H92V6.3h1.3V4.7l1.6-.5zM100.8 4.2v2.1h2.2v1.2h-2.2v4.6c0 1.1.3 1.7 1.2 1.7.4 0 .7 0 .9-.1l.1 1.2c-.3.1-.8.2-1.4.2-.7 0-1.3-.2-1.7-.7-.4-.5-.6-1.2-.6-2.3V7.5H98V6.3h1.3V4.7l1.5-.5zM105.5 10.8c0 2.1 1.4 3 2.9 3 1.1 0 1.8-.2 2.4-.4l.3 1.1c-.6.2-1.5.6-2.9.6-2.6 0-4.2-1.8-4.2-4.3s1.5-4.6 4-4.6c2.8 0 3.5 2.4 3.5 4 0 .3 0 .6-.1.7h-5.9zm4.6-1.1c0-1-.4-2.5-2.2-2.5-1.6 0-2.3 1.4-2.4 2.5h4.6zM113.5 8.9c0-1 0-1.9-.1-2.7h1.4l.1 1.7h.1c.4-1.2 1.3-1.9 2.4-1.9h.4v1.5h-.5c-1.1 0-1.9.8-2.1 2 0 .2-.1.5-.1.7v4.6h-1.6V8.9zM119.4 8.6c0-.9 0-1.6-.1-2.3h1.4l.1 1.4c.4-.8 1.4-1.6 2.8-1.6 1.2 0 3 .7 3 3.7v5.1H125v-5c0-1.4-.5-2.5-2-2.5-1 0-1.8.7-2.1 1.6.1.2.1.4.1.7v5.2h-1.6V8.6z"/></g><g class="st3"><path d="M166.1 14.9v-12h1.7l3.8 6.1c.9 1.4 1.6 2.7 2.1 3.9h.1c-.1-1.6-.2-3.1-.2-4.9V3h1.5v12h-1.6l-3.8-6.1c-.8-1.3-1.6-2.7-2.2-4h-.1c.1 1.5.1 2.9.1 4.9v5.1h-1.4zM185.5 10.5c0 3.2-2.2 4.6-4.3 4.6-2.3 0-4.1-1.7-4.1-4.4 0-2.9 1.9-4.5 4.3-4.5 2.4-.1 4.1 1.7 4.1 4.3zm-6.8.1c0 1.9 1.1 3.3 2.6 3.3s2.6-1.4 2.6-3.3c0-1.5-.7-3.3-2.6-3.3-1.8 0-2.6 1.7-2.6 3.3zM187.4 8.6c0-.9 0-1.6-.1-2.3h1.4l.1 1.4c.4-.8 1.4-1.6 2.8-1.6 1.2 0 3 .7 3 3.7v5.1H193v-5c0-1.4-.5-2.5-2-2.5-1 0-1.8.7-2.1 1.6.1.2.1.4.1.7v5.2h-1.6V8.6zM200.9 9.5v1.1h-4.4V9.5h4.4zM202.7 8.9c0-1 0-1.9-.1-2.7h1.4l.1 1.7h.1c.4-1.2 1.3-1.9 2.4-1.9h.4v1.5h-.5c-1.1 0-1.9.8-2.1 2 0 .2-.1.5-.1.7v4.6h-1.6V8.9zM209.2 10.8c0 2.1 1.4 3 2.9 3 1.1 0 1.8-.2 2.4-.4l.3 1.1c-.6.2-1.5.6-2.9.6-2.6 0-4.2-1.8-4.2-4.3s1.5-4.6 4-4.6c2.8 0 3.5 2.4 3.5 4 0 .3 0 .6-.1.7h-5.9zm4.6-1.1c0-1-.4-2.5-2.2-2.5-1.6 0-2.3 1.4-2.4 2.5h4.6zM223.3 12.8c0 .7 0 1.5.1 2.1H222l-.1-1.1h-.1c-.5.7-1.4 1.3-2.6 1.3-1.7 0-2.6-1.2-2.6-2.5 0-2.1 1.8-3.2 5.2-3.2v-.2c0-.7-.2-2-2-2-.8 0-1.6.2-2.3.6l-.4-1c.7-.4 1.8-.7 2.8-.7 2.6 0 3.3 1.8 3.3 3.5l.1 3.2zm-1.5-2.3c-1.7 0-3.6.3-3.6 1.9 0 1 .7 1.5 1.5 1.5 1.1 0 1.9-.7 2.1-1.4.1-.2.1-.4.1-.5l-.1-1.5zM231.9 14.6c-.4.2-1.3.5-2.5.5-2.6 0-4.3-1.8-4.3-4.4 0-2.6 1.8-4.6 4.6-4.6.9 0 1.7.2 2.2.5l-.4 1.2c-.4-.2-1-.4-1.8-.4-2 0-3 1.5-3 3.2 0 2 1.3 3.2 3 3.2.9 0 1.5-.2 1.9-.4l.3 1.2zM235.9 4.2v2.1h2.2v1.2h-2.2v4.6c0 1.1.3 1.7 1.2 1.7.4 0 .7 0 .9-.1l.1 1.2c-.3.1-.8.2-1.4.2-.7 0-1.3-.2-1.7-.7-.4-.5-.6-1.2-.6-2.3V7.5H233V6.3h1.3V4.7l1.6-.5zM241.6 3.9c0 .5-.4 1-1 1s-.9-.4-.9-1c0-.5.4-1 1-1 .5 0 .9.4.9 1zm-1.7 11V6.3h1.6v8.6h-1.6zM244.6 6.3l1.7 4.8c.3.8.5 1.5.7 2.2h.1c.2-.7.4-1.4.7-2.2l1.7-4.8h1.6l-3.4 8.6h-1.5l-3.3-8.6h1.7zM253.2 10.8c0 2.1 1.4 3 2.9 3 1.1 0 1.8-.2 2.4-.4l.3 1.1c-.5.2-1.5.6-2.9.6-2.6 0-4.2-1.8-4.2-4.3s1.5-4.6 4-4.6c2.8 0 3.6 2.4 3.6 4 0 .3 0 .6-.1.7h-6zm4.6-1.1c0-1-.4-2.5-2.2-2.5-1.6 0-2.3 1.4-2.4 2.5h4.6zM265 9.1c0-1.1 0-2-.1-2.8h1.4l.1 1.5c.6-1 1.6-1.7 3.1-1.7 2.1 0 3.7 1.8 3.7 4.3 0 3.1-1.9 4.6-3.9 4.6-1.1 0-2.1-.5-2.6-1.3v4.7H265V9.1zm1.6 2.3c0 .2 0 .4.1.6.3 1.1 1.2 1.8 2.3 1.8 1.6 0 2.6-1.3 2.6-3.3 0-1.7-.9-3.2-2.6-3.2-1.1 0-2.1.7-2.4 1.9-.1.2-.1.4-.1.6v1.6zM281.2 12.8c0 .7 0 1.5.1 2.1h-1.4l-.1-1.1h-.1c-.5.7-1.4 1.3-2.6 1.3-1.7 0-2.6-1.2-2.6-2.5 0-2.1 1.8-3.2 5.2-3.2v-.2c0-.7-.2-2-2-2-.8 0-1.6.2-2.3.6l-.4-1c.7-.4 1.8-.7 2.8-.7 2.6 0 3.3 1.8 3.3 3.5l.1 3.2zm-1.5-2.3c-1.7 0-3.6.3-3.6 1.9 0 1 .7 1.5 1.5 1.5 1.1 0 1.9-.7 2.1-1.4.1-.2.1-.4.1-.5l-.1-1.5zM285.5 4.2v2.1h2.2v1.2h-2.2v4.6c0 1.1.3 1.7 1.2 1.7.4 0 .7 0 .9-.1l.1 1.2c-.3.1-.8.2-1.4.2-.7 0-1.3-.2-1.7-.7-.4-.5-.6-1.2-.6-2.3V7.5h-1.3V6.3h1.3V4.7l1.5-.5zM291.4 4.2v2.1h2.2v1.2h-2.2v4.6c0 1.1.3 1.7 1.2 1.7.4 0 .7 0 .9-.1l.1 1.2c-.3.1-.8.2-1.4.2-.7 0-1.3-.2-1.7-.7-.4-.5-.6-1.2-.6-2.3V7.5h-1.3V6.3h1.3V4.7l1.5-.5zM296.1 10.8c0 2.1 1.4 3 2.9 3 1.1 0 1.8-.2 2.4-.4l.3 1.1c-.5.2-1.5.6-2.9.6-2.6 0-4.2-1.8-4.2-4.3s1.5-4.6 4-4.6c2.8 0 3.5 2.4 3.5 4 0 .3 0 .6-.1.7h-5.9zm4.6-1.1c0-1-.4-2.5-2.2-2.5-1.6 0-2.3 1.4-2.4 2.5h4.6zM304.1 8.9c0-1 0-1.9-.1-2.7h1.4l.1 1.7h.1C306 6.7 307 6 308 6h.4v1.5h-.5c-1.1 0-1.9.8-2.1 2 0 .2-.1.5-.1.7v4.6h-1.6V8.9zM310 8.6c0-.9 0-1.6-.1-2.3h1.4l.1 1.4c.4-.8 1.4-1.6 2.8-1.6 1.2 0 3 .7 3 3.7v5.1h-1.6v-5c0-1.4-.5-2.5-2-2.5-1 0-1.8.7-2.1 1.6-.1.2-.1.5-.1.7v5.2H310V8.6z"/></g><path class="st2" d="M187.9 211.3H266v16.4h-78.1zM9.4 263.8H117v16.4H9.4z"/><g><g class="st3"><path d="M191.2 223.7v-8.9h3.3c.7 0 1.2.1 1.6.3.4.2.7.5 1 .8.2.4.3.8.3 1.2 0 .4-.1.7-.3 1.1-.2.3-.5.6-.9.8.5.2.9.4 1.2.8.3.4.4.8.4 1.3 0 .4-.1.8-.3 1.2s-.4.6-.6.8c-.3.2-.6.3-1 .4-.4.1-.9.1-1.4.1l-3.3.1zm1.2-5.2h1.9c.5 0 .9 0 1.1-.1.3-.1.5-.2.7-.4.1-.2.2-.5.2-.8 0-.3-.1-.6-.2-.8-.1-.2-.3-.4-.6-.5-.3-.1-.7-.1-1.4-.1h-1.8l.1 2.7zm0 4.1h3c.3 0 .5-.1.7-.2.2-.1.3-.3.4-.5s.2-.5.2-.7c0-.3-.1-.6-.3-.9s-.4-.4-.7-.5-.7-.1-1.3-.1h-2.1v2.9zM203.8 221.6l1.1.1c-.2.7-.5 1.2-1 1.5s-1.1.5-1.8.5c-.9 0-1.7-.3-2.2-.9-.6-.6-.8-1.4-.8-2.4 0-1.1.3-1.9.8-2.5.6-.6 1.3-.9 2.2-.9.9 0 1.6.3 2.1.9.5.6.8 1.4.8 2.5v.3h-4.8c0 .7.2 1.2.6 1.6s.8.6 1.3.6c.4 0 .7-.1 1-.3.3-.2.5-.6.7-1zm-3.6-1.8h3.6c0-.5-.2-.9-.4-1.2-.3-.4-.8-.6-1.4-.6-.5 0-.9.2-1.3.5-.3.3-.5.8-.5 1.3zM210.4 222.9c-.4.3-.8.6-1.2.7-.4.1-.8.2-1.2.2-.7 0-1.2-.2-1.6-.5s-.6-.8-.6-1.3c0-.3.1-.6.2-.9.1-.3.3-.5.6-.6.2-.2.5-.3.8-.4.2-.1.5-.1 1-.2.9-.1 1.5-.2 1.9-.4v-.3c0-.4-.1-.8-.3-.9-.3-.2-.7-.4-1.2-.4s-.9.1-1.1.3c-.2.2-.4.5-.5 1l-1.1-.1c.1-.5.3-.8.5-1.1s.5-.5 1-.6.9-.2 1.5-.2c.5 0 1 .1 1.3.2.3.1.6.3.8.5.2.2.3.4.3.7 0 .2.1.5.1 1v1.5c0 1 0 1.7.1 1.9 0 .3.1.5.3.8h-1.1c-.3-.4-.4-.6-.5-.9zm0-2.5c-.4.2-1 .3-1.8.4-.4.1-.8.1-.9.2-.2.1-.3.2-.4.4s-.2.3-.2.5c0 .3.1.5.3.7s.5.3 1 .3c.4 0 .8-.1 1.1-.3s.6-.4.7-.8c.1-.2.2-.6.2-1.1v-.3zM215.5 222.7l.2 1c-.3.1-.6.1-.8.1-.4 0-.7-.1-.9-.2-.2-.1-.4-.3-.5-.5-.1-.2-.1-.6-.1-1.3v-3.7h-.8v-.8h.8v-1.6l1.1-.7v2.2h1.1v.8h-1.1v3.8c0 .3 0 .5.1.6 0 .1.1.2.2.2.1.1.2.1.4.1h.3zM216.2 221.7l1.1-.2c.1.4.2.8.5 1 .3.2.7.3 1.2.3s.9-.1 1.1-.3c.2-.2.4-.4.4-.7 0-.2-.1-.4-.3-.6-.1-.1-.5-.2-1.1-.4-.8-.2-1.4-.4-1.7-.5s-.5-.4-.7-.6c-.2-.3-.2-.5-.2-.9 0-.3.1-.6.2-.8s.3-.4.5-.6c.2-.1.4-.2.7-.3.3-.1.6-.1.9-.1.5 0 .9.1 1.3.2s.7.3.8.6.3.6.4 1l-1.1.1c0-.3-.2-.6-.4-.8s-.6-.3-1-.3c-.5 0-.9.1-1.1.2-.2.2-.3.4-.3.6 0 .1 0 .3.1.4.1.1.2.2.4.3.1 0 .4.1 1 .3.8.2 1.3.4 1.6.5.3.1.5.3.7.6.2.2.3.6.3.9 0 .4-.1.7-.3 1-.2.3-.5.6-.9.7s-.9.3-1.4.3c-.8 0-1.5-.2-1.9-.5-.4-.2-.7-.7-.8-1.4zM222 223.8l2.6-9.2h.9l-2.6 9.2h-.9zM226.2 223.7v-6.4h1v.9c.2-.3.5-.6.8-.8.3-.2.7-.3 1.1-.3.5 0 .9.1 1.2.3s.5.5.6.8c.5-.8 1.2-1.1 2-1.1.6 0 1.1.2 1.5.5.3.4.5.9.5 1.6v4.4h-1.1v-4c0-.4 0-.8-.1-.9-.1-.2-.2-.3-.4-.5-.2-.1-.4-.2-.7-.2-.5 0-.8.1-1.1.5-.3.3-.4.8-.4 1.4v3.7H230v-4.2c0-.5-.1-.8-.3-1.1s-.5-.4-.9-.4c-.3 0-.6.1-.9.2s-.4.4-.6.7-.2.8-.2 1.3v3.3l-.9.3zM236.6 216v-1.3h1.1v1.3h-1.1zm0 7.7v-6.4h1.1v6.4h-1.1zM239.3 223.7v-6.4h1v.9c.5-.7 1.2-1.1 2-1.1.4 0 .7.1 1.1.2.3.1.6.3.7.5s.3.5.3.8c0 .2.1.6.1 1.1v4h-1.1v-3.9c0-.4 0-.8-.1-1-.1-.2-.2-.4-.5-.5-.2-.1-.5-.2-.8-.2-.5 0-.9.1-1.2.4-.3.3-.5.9-.5 1.7v3.5h-1zM250.4 223.7v-.9c-.5.7-1.2 1.1-2 1.1-.4 0-.7-.1-1.1-.2-.3-.1-.6-.3-.7-.5-.2-.2-.3-.5-.3-.8 0-.2-.1-.6-.1-1v-4h1.1v3.6c0 .6 0 1 .1 1.1.1.3.2.5.4.7.2.2.5.2.8.2.3 0 .6-.1.9-.3.3-.2.5-.4.6-.7.1-.3.2-.7.2-1.3v-3.4h1.1v6.4h-1zM255.5 222.7l.2 1c-.3.1-.6.1-.8.1-.4 0-.7-.1-.9-.2-.2-.1-.4-.3-.5-.5-.1-.2-.1-.6-.1-1.3v-3.7h-.8v-.8h.8v-1.6l1.1-.7v2.2h1.1v.8h-1.1v3.8c0 .3 0 .5.1.6 0 .1.1.2.2.2.1.1.2.1.4.1h.3zM260.9 221.6l1.1.1c-.2.7-.5 1.2-1 1.5s-1.1.5-1.8.5c-.9 0-1.7-.3-2.2-.9-.6-.6-.8-1.4-.8-2.4 0-1.1.3-1.9.8-2.5.6-.6 1.3-.9 2.2-.9.9 0 1.6.3 2.1.9.5.6.8 1.4.8 2.5v.3h-4.8c0 .7.2 1.2.6 1.6s.8.6 1.3.6c.4 0 .7-.1 1-.3.4-.2.6-.6.7-1zm-3.5-1.8h3.6c0-.5-.2-.9-.4-1.2-.3-.4-.8-.6-1.4-.6-.5 0-.9.2-1.3.5-.3.3-.5.8-.5 1.3z"/></g></g><g><g class="st3"><path d="M14.4 276.2v-8.9h3.9c.8 0 1.4.1 1.8.2.4.2.7.4 1 .8.2.4.4.8.4 1.3 0 .6-.2 1.2-.6 1.6s-1 .7-1.9.8c.3.1.5.3.7.4.3.3.7.7 1 1.2l1.5 2.4h-1.5l-1.2-1.8c-.3-.5-.6-.9-.8-1.2-.2-.3-.4-.5-.6-.6-.2-.1-.4-.2-.5-.2H15.5v3.9l-1.1.1zm1.2-5h2.5c.5 0 1-.1 1.3-.2.3-.1.5-.3.7-.5.2-.2.2-.5.2-.8 0-.4-.2-.8-.5-1s-.8-.4-1.4-.4h-2.8v2.9zM27.4 275.4c-.4.3-.8.6-1.2.7-.4.1-.8.2-1.2.2-.7 0-1.2-.2-1.6-.5s-.6-.8-.6-1.3c0-.3.1-.6.2-.9.1-.3.3-.5.6-.6s.5-.3.8-.4c.2-.1.5-.1 1-.2.9-.1 1.5-.2 1.9-.4v-.3c0-.4-.1-.8-.3-.9-.3-.2-.7-.4-1.2-.4s-.9.1-1.1.3c-.2.2-.4.5-.5 1l-1.1-.1c.1-.5.3-.8.5-1.1s.5-.5 1-.6c.4-.2.9-.2 1.5-.2.5 0 1 .1 1.3.2.3.1.6.3.8.5.2.2.3.4.3.7 0 .2.1.5.1 1v1.5c0 1 0 1.7.1 1.9s.1.5.3.8h-1.1c-.4-.3-.5-.6-.5-.9zm-.1-2.4c-.4.2-1 .3-1.8.4-.4.1-.8.1-1 .2-.2.1-.3.2-.4.4s-.2.3-.2.5c0 .3.1.5.3.7s.5.3 1 .3c.4 0 .8-.1 1.1-.3s.6-.4.7-.8c.1-.2.2-.6.2-1.1v-.3zM32.5 275.2l.2 1c-.3.1-.6.1-.8.1-.4 0-.7-.1-.9-.2s-.4-.3-.5-.5c-.1-.2-.1-.6-.1-1.3v-3.7h-.8v-.8h.8v-1.6l1.1-.7v2.2h1.1v.8h-1.1v3.8c0 .3 0 .5.1.6 0 .1.1.2.2.2s.2.1.4.1h.3zM37.9 274.1l1.1.1c-.2.7-.5 1.2-1 1.5s-1.1.5-1.8.5c-.9 0-1.7-.3-2.2-.9-.6-.6-.8-1.4-.8-2.4 0-1.1.3-1.9.8-2.5.6-.6 1.3-.9 2.2-.9.9 0 1.6.3 2.1.9.5.6.8 1.4.8 2.5v.3h-4.8c0 .7.2 1.2.6 1.6.4.4.8.6 1.3.6.4 0 .7-.1 1-.3.3-.2.6-.5.7-1zm-3.6-1.7h3.6c0-.5-.2-.9-.4-1.2-.3-.4-.8-.6-1.3-.6s-.9.2-1.3.5-.5.7-.6 1.3zM40.7 271v-1.2H42v1.2h-1.3zm0 5.2V275H42v1.2h-1.3zM51.1 276.2H50v-6.9c-.3.2-.6.5-1 .8s-.8.4-1.1.6v-1.1c.6-.3 1.1-.6 1.6-1s.8-.8 1-1.2h.7c-.1-.1-.1 8.8-.1 8.8zM61.8 273.8l1.1.1c-.1.7-.4 1.3-.9 1.7-.5.4-1.1.6-1.8.6-.9 0-1.6-.3-2.1-.9-.5-.6-.8-1.4-.8-2.5 0-.7.1-1.3.3-1.8s.6-.9 1-1.2c.5-.3 1-.4 1.5-.4.7 0 1.3.2 1.7.5s.7.9.9 1.5l-1.1.2c-.1-.4-.3-.8-.5-1-.3-.2-.6-.3-.9-.3-.5 0-1 .2-1.3.6-.3.4-.5 1-.5 1.9 0 .9.2 1.5.5 1.9.3.4.8.6 1.3.6.4 0 .8-.1 1.1-.4.3-.1.5-.5.5-1.1zM63.8 276.2v-6.4h1v.9c.2-.3.5-.6.8-.8.3-.2.7-.3 1.1-.3.5 0 .9.1 1.2.3s.5.5.6.8c.5-.8 1.2-1.1 2-1.1.6 0 1.1.2 1.5.5.3.4.5.9.5 1.6v4.4h-1.1v-4c0-.4 0-.8-.1-.9-.1-.2-.2-.3-.4-.5-.2-.1-.4-.2-.7-.2-.5 0-.8.1-1.1.5-.3.3-.4.8-.4 1.4v3.7h-1.1V272c0-.5-.1-.8-.3-1.1-.2-.2-.5-.4-.9-.4-.3 0-.6.1-.9.2s-.4.4-.6.7-.2.8-.2 1.3v3.3l-.9.2zM73.3 276.3l2.6-9.2h.9l-2.6 9.2h-.9zM77.6 276.2v-6.4h1v.9c.2-.3.5-.6.8-.8.3-.2.7-.3 1.1-.3.5 0 .9.1 1.2.3s.5.5.6.8c.5-.8 1.2-1.1 2-1.1.6 0 1.1.2 1.5.5.3.4.5.9.5 1.6v4.4h-1.1v-4c0-.4 0-.8-.1-.9-.1-.2-.2-.3-.4-.5-.2-.1-.4-.2-.7-.2-.5 0-.8.1-1.1.5-.3.3-.4.8-.4 1.4v3.7h-1.1V272c0-.5-.1-.8-.3-1.1-.2-.2-.5-.4-.9-.4-.3 0-.6.1-.9.2s-.4.4-.6.7-.2.8-.2 1.3v3.3l-.9.2zM87.9 268.6v-1.3H89v1.3h-1.1zm0 7.6v-6.4H89v6.4h-1.1zM90.7 276.2v-6.4h1v.9c.5-.7 1.2-1.1 2-1.1.4 0 .7.1 1.1.2.3.1.6.3.7.5.2.2.3.5.3.8 0 .2.1.6.1 1.1v4h-1.1v-3.9c0-.4 0-.8-.1-1-.1-.2-.2-.4-.5-.5-.2-.1-.5-.2-.8-.2-.5 0-.9.1-1.2.4-.3.3-.5.9-.5 1.7v3.5h-1zM101.8 276.2v-.9c-.5.7-1.2 1.1-2 1.1-.4 0-.7-.1-1.1-.2-.3-.1-.6-.3-.7-.5s-.3-.5-.3-.8c0-.2-.1-.6-.1-1v-4h1.1v3.6c0 .6 0 1 .1 1.1.1.3.2.5.4.7s.5.2.8.2c.3 0 .6-.1.9-.3.3-.2.5-.4.6-.7.1-.3.2-.7.2-1.3v-3.4h1.1v6.4h-1zM106.9 275.2l.2 1c-.3.1-.6.1-.8.1-.4 0-.7-.1-.9-.2s-.4-.3-.5-.5c-.1-.2-.1-.6-.1-1.3v-3.7h-.8v-.8h.8v-1.6l1.1-.7v2.2h1.1v.8h-1.1v3.8c0 .3 0 .5.1.6 0 .1.1.2.2.2s.2.1.4.1h.3zM112.3 274.1l1.1.1c-.2.7-.5 1.2-1 1.5s-1.1.5-1.8.5c-.9 0-1.7-.3-2.2-.9-.6-.6-.8-1.4-.8-2.4 0-1.1.3-1.9.8-2.5.6-.6 1.3-.9 2.2-.9.9 0 1.6.3 2.1.9.5.6.8 1.4.8 2.5v.3h-4.8c0 .7.2 1.2.6 1.6s.8.6 1.3.6c.4 0 .7-.1 1-.3.3-.2.6-.5.7-1zm-3.6-1.7h3.6c0-.5-.2-.9-.4-1.2-.3-.4-.8-.6-1.3-.6s-.9.2-1.3.5-.5.7-.6 1.3z"/></g></g></svg>