<svg version="1.1" xmlns="http://www.w3.org/2000/svg" x="0" y="0" width="411.023" height="277.391" viewBox="-42.395 -15.124 411.023 277.391" xml:space="preserve"><g fill="none" stroke-width=".5"><path stroke="#808285" d="M-37 6.105h192.193"/><path stroke="#A7A9AC" d="M-37 10.884h192.193"/><path stroke="#808285" d="M-37 15.742h192.193"/><path stroke="#A7A9AC" d="M-37 20.601h192.193"/><path stroke="#808285" d="M-37 25.459h192.193"/><path stroke="#A7A9AC" d="M-37 30.238h192.193"/><path stroke="#808285" d="M-37 35.097h192.193"/><path stroke="#A7A9AC" d="M-37 39.956h192.193"/><path stroke="#808285" d="M-37 44.815h192.193"/><path stroke="#A7A9AC" d="M-37 49.673h192.193"/><path stroke="#808285" d="M-37 54.451h192.193"/><path stroke="#A7A9AC" d="M-37 59.311h192.193"/><path stroke="#808285" d="M-37 64.169h192.193"/><path stroke="#A7A9AC" d="M-37 69.027h192.193"/><path stroke="#808285" d="M-37 73.807h192.193"/><path stroke="#A7A9AC" d="M-37 78.665h192.193"/><path stroke="#808285" d="M-37 83.523h192.193"/><path stroke="#A7A9AC" d="M-37 88.383h192.193"/><path stroke="#808285" d="M-37 93.24h192.193"/><path stroke="#A7A9AC" d="M-37 98.019h192.193"/><path stroke="#808285" d="M-37 102.877h192.193"/><path stroke="#A7A9AC" d="M-37 107.737h192.193"/><path stroke="#808285" d="M-37 112.516h192.193"/><path stroke="#A7A9AC" d="M-37 117.296h192.193"/><path stroke="#808285" d="M-37 122.154h192.193"/><path stroke="#A7A9AC" d="M-37 127.013h192.193"/><path stroke="#808285" d="M-37 131.871h192.193"/><path stroke="#A7A9AC" d="M-37 136.729h192.193"/><path stroke="#808285" d="M-37 141.509h192.193"/><path stroke="#A7A9AC" d="M-37 146.366h192.193"/><path stroke="#808285" d="M-37 151.225h192.193"/><path stroke="#A7A9AC" d="M-37 156.083h192.193"/><path stroke="#808285" d="M-37 160.863h192.193"/><g stroke="#808285"><path d="M-29.273 6.105l-.639 154.916M-19.556 6.105l-.638 154.916M-9.84 6.105l-.636 154.916M-.043 6.105l-.636 154.916M9.675 6.105l-.638 154.916M19.393 6.105l-.639 154.916M29.189 6.105l-.637 154.916M38.906 6.105l-.637 154.916M48.623 6.105l-.636 154.916M58.42 6.105l-.637 154.916M68.137 6.105L67.5 161.021M77.855 6.105l-.638 154.916M87.652 6.105l-.639 154.916M97.367 6.105l-.636 154.916M107.085 6.105l-.637 154.916M116.883 6.105l-.639 154.916M126.6 6.105l-.638 154.916M136.397 6.105l-.718 154.916M146.113 6.105l-.636 154.916M155.831 6.105l-.638 154.916"/></g></g><path fill="#FFF" d="M51.888 11.839h14.098v7.168H51.888zM52.127 31.193h14.096v7.168H52.127zM52.366 50.629h14.099v7.168H52.366zM51.969 70.062h14.096v7.168H51.969zM51.49 89.418h14.177v7.168H51.49zM51.888 108.931h14.098v7.168H51.888zM51.331 127.888H65.43v7.169H51.331zM50.933 147.322h14.096v7.168H50.933z"/><path d="M56.737 17.531v.68h-3.806c-.005-.17.022-.334.083-.491.097-.259.252-.514.465-.766s.522-.542.925-.872c.626-.513 1.049-.92 1.269-1.22.22-.3.33-.583.33-.851 0-.28-.101-.517-.301-.709s-.461-.289-.784-.289c-.34 0-.613.102-.817.307-.204.204-.308.487-.31.848l-.727-.075c.05-.542.237-.955.562-1.239s.761-.426 1.308-.426c.553 0 .99.153 1.312.46.322.306.483.686.483 1.139 0 .23-.047.457-.142.679s-.25.457-.469.703-.582.584-1.09 1.014c-.424.356-.697.598-.817.725s-.22.255-.298.383h2.824zM57.495 15.371c0-.681.07-1.229.21-1.644s.348-.735.625-.96c.276-.225.624-.338 1.043-.338.309 0 .58.063.813.187.233.124.426.304.578.538s.271.52.357.856c.086.337.129.791.129 1.361 0 .675-.069 1.221-.208 1.636s-.346.736-.623.962-.625.34-1.047.34c-.555 0-.991-.199-1.308-.597-.379-.48-.569-1.26-.569-2.341zm.727 0c0 .945.111 1.574.332 1.887s.494.47.819.47.598-.157.819-.472c.222-.314.332-.943.332-1.885 0-.948-.11-1.578-.332-1.89-.221-.312-.497-.467-.827-.467a.907.907 0 0 0-.778.413c-.243.35-.365.998-.365 1.944zM61.969 15.371c0-.681.07-1.229.21-1.644s.348-.735.625-.96c.276-.225.624-.338 1.043-.338.309 0 .58.063.813.187.233.124.426.304.578.538s.271.52.357.856c.086.337.129.791.129 1.361 0 .675-.069 1.221-.208 1.636s-.346.736-.623.962-.625.34-1.047.34c-.555 0-.991-.199-1.308-.597-.379-.48-.569-1.26-.569-2.341zm.727 0c0 .945.111 1.574.332 1.887s.494.47.819.47.598-.157.819-.472c.222-.314.332-.943.332-1.885 0-.948-.11-1.578-.332-1.89-.221-.312-.497-.467-.827-.467a.907.907 0 0 0-.778.413c-.243.35-.365.998-.365 1.944zM55.684 37.567h-.707v-4.505a3.66 3.66 0 0 1-.67.487 4.758 4.758 0 0 1-.744.366v-.685c.396-.186.741-.411 1.037-.676s.505-.521.628-.77h.456v5.783zM58.583 34.444c-.293-.107-.511-.261-.652-.46a1.197 1.197 0 0 1-.212-.715 1.4 1.4 0 0 1 .452-1.057c.301-.285.702-.428 1.202-.428.503 0 .907.146 1.214.438.306.292.459.647.459 1.066 0 .267-.07.5-.21.697-.14.198-.353.351-.639.458.354.115.623.301.808.558s.277.563.277.919c0 .493-.174.906-.522 1.241-.348.335-.807.503-1.375.503s-1.026-.168-1.375-.505c-.349-.336-.522-.756-.522-1.259 0-.375.095-.688.285-.941.189-.251.459-.423.81-.515zm-.369 1.461c0 .202.048.397.144.585.095.188.237.334.426.438.189.104.392.155.609.155.338 0 .617-.109.837-.326.22-.217.33-.494.33-.829 0-.34-.113-.622-.34-.844s-.51-.334-.851-.334a1.122 1.122 0 0 0-1.155 1.155zm.228-2.659c0 .272.087.495.263.668.175.173.403.259.683.259a.913.913 0 0 0 .67-.257.853.853 0 0 0 .261-.631.884.884 0 0 0-.269-.654.917.917 0 0 0-.67-.265.92.92 0 0 0-.671.259.836.836 0 0 0-.267.621zM61.969 34.727c0-.681.07-1.229.21-1.644s.348-.735.625-.96c.276-.225.624-.338 1.043-.338.309 0 .58.063.813.187.233.124.426.304.578.538s.271.52.357.856c.086.337.129.791.129 1.361 0 .675-.069 1.221-.208 1.636s-.346.736-.623.962-.625.34-1.047.34c-.555 0-.991-.199-1.308-.597-.379-.479-.569-1.259-.569-2.341zm.727 0c0 .945.111 1.574.332 1.887s.494.47.819.47.598-.157.819-.472c.222-.314.332-.943.332-1.885 0-.948-.11-1.578-.332-1.89-.221-.312-.497-.467-.827-.467a.907.907 0 0 0-.778.413c-.243.35-.365.999-.365 1.944zM55.684 56.92h-.707v-4.505a3.66 3.66 0 0 1-.67.487 4.758 4.758 0 0 1-.744.366v-.684c.396-.186.741-.411 1.037-.676s.505-.521.628-.77h.456v5.782zM61.164 52.572l-.703.055c-.063-.277-.152-.479-.267-.605a.938.938 0 0 0-.707-.302.975.975 0 0 0-.593.188c-.223.163-.398.399-.526.711-.128.312-.195.756-.201 1.332.17-.259.378-.452.625-.577.247-.126.504-.188.774-.188.472 0 .873.173 1.204.521.331.347.497.795.497 1.345 0 .361-.078.697-.234 1.007-.156.311-.37.548-.642.713a1.755 1.755 0 0 1-.927.248c-.589 0-1.07-.217-1.441-.65-.372-.434-.558-1.148-.558-2.143 0-1.113.206-1.922.617-2.427.359-.44.842-.66 1.45-.66.453 0 .824.127 1.114.381.287.252.46.603.518 1.051zm-2.887 2.482c0 .244.051.477.155.699s.248.392.434.509c.186.116.381.175.585.175.298 0 .555-.121.77-.362.214-.241.322-.568.322-.982 0-.398-.106-.711-.318-.94a1.046 1.046 0 0 0-.801-.344c-.32 0-.591.114-.813.344-.223.229-.334.529-.334.901zM61.969 54.08c0-.681.07-1.229.21-1.644s.348-.735.625-.96c.276-.225.624-.338 1.043-.338.309 0 .58.063.813.187.233.124.426.304.578.538s.271.52.357.856c.086.337.129.791.129 1.361 0 .675-.069 1.221-.208 1.636s-.346.736-.623.962-.625.34-1.047.34c-.555 0-.991-.199-1.308-.597-.379-.479-.569-1.259-.569-2.341zm.727 0c0 .945.111 1.574.332 1.887s.494.47.819.47.598-.157.819-.472c.222-.314.332-.943.332-1.885 0-.948-.11-1.578-.332-1.89-.221-.312-.497-.467-.827-.467a.907.907 0 0 0-.778.413c-.243.35-.365.999-.365 1.944z"/><g><path d="M55.206 76.196h-.707v-4.505a3.66 3.66 0 0 1-.67.487 4.758 4.758 0 0 1-.744.366v-.684c.396-.186.741-.411 1.037-.676s.505-.521.628-.77h.456v5.782zM59.284 76.196v-1.379h-2.499v-.648l2.628-3.731h.578v3.731h.777v.648h-.777v1.379h-.707zm0-2.027v-2.596l-1.803 2.596h1.803zM61.491 73.356c0-.681.07-1.229.21-1.644s.348-.735.625-.96c.276-.225.624-.338 1.043-.338.309 0 .58.063.813.187.233.124.426.304.578.538s.271.52.357.856c.086.337.129.791.129 1.361 0 .675-.069 1.221-.208 1.636s-.346.736-.623.962-.625.34-1.047.34c-.555 0-.991-.199-1.308-.597-.379-.479-.569-1.259-.569-2.341zm.727 0c0 .945.111 1.574.332 1.887s.494.47.819.47.598-.157.819-.472c.222-.314.332-.943.332-1.885 0-.948-.11-1.578-.332-1.89-.222-.311-.497-.466-.827-.466a.907.907 0 0 0-.778.413c-.244.35-.365.998-.365 1.943z"/></g><g><path d="M55.684 95.711h-.707v-4.505a3.66 3.66 0 0 1-.67.487 4.758 4.758 0 0 1-.744.366v-.684c.396-.186.741-.411 1.037-.676s.505-.521.628-.77h.456v5.782zM61.211 95.032v.68h-3.806c-.005-.17.022-.334.083-.491.097-.259.252-.514.465-.766s.522-.542.925-.872c.626-.513 1.049-.92 1.269-1.22.22-.3.33-.583.33-.851 0-.28-.101-.517-.301-.709s-.461-.289-.784-.289c-.34 0-.613.102-.817.307-.204.204-.308.487-.31.848l-.727-.075c.05-.542.237-.955.562-1.239s.761-.426 1.308-.426c.553 0 .99.153 1.312.46.322.306.483.686.483 1.139 0 .23-.047.457-.142.679s-.25.457-.469.703-.582.584-1.09 1.014c-.424.356-.697.598-.817.725s-.22.255-.298.383h2.824zM61.969 92.872c0-.681.07-1.229.21-1.644s.348-.735.625-.96c.276-.225.624-.338 1.043-.338.309 0 .58.063.813.187.233.124.426.304.578.538s.271.52.357.856c.086.337.129.791.129 1.361 0 .675-.069 1.221-.208 1.636s-.346.736-.623.962-.625.34-1.047.34c-.555 0-.991-.199-1.308-.597-.379-.48-.569-1.26-.569-2.341zm.727 0c0 .945.111 1.574.332 1.887s.494.47.819.47.598-.157.819-.472c.222-.314.332-.943.332-1.885 0-.948-.11-1.578-.332-1.89-.221-.312-.497-.467-.827-.467a.907.907 0 0 0-.778.413c-.243.35-.365.998-.365 1.944z"/></g><g><path d="M55.684 114.986h-.707v-4.505a3.66 3.66 0 0 1-.67.487 4.758 4.758 0 0 1-.744.366v-.684c.396-.186.741-.411 1.037-.676s.505-.521.628-.77h.456v5.782zM57.495 112.146c0-.681.07-1.229.21-1.644s.348-.735.625-.96c.276-.225.624-.338 1.043-.338.309 0 .58.063.813.187.233.124.426.304.578.538s.271.52.357.856c.086.337.129.791.129 1.361 0 .676-.069 1.221-.208 1.636s-.346.736-.623.963-.625.34-1.047.34c-.555 0-.991-.199-1.308-.598-.379-.479-.569-1.259-.569-2.341zm.727 0c0 .945.111 1.574.332 1.888.221.313.494.469.819.469s.598-.157.819-.471c.222-.314.332-.943.332-1.886 0-.948-.11-1.578-.332-1.89-.221-.312-.497-.467-.827-.467a.907.907 0 0 0-.778.413c-.243.351-.365.999-.365 1.944zM61.969 112.146c0-.681.07-1.229.21-1.644s.348-.735.625-.96c.276-.225.624-.338 1.043-.338.309 0 .58.063.813.187.233.124.426.304.578.538s.271.52.357.856c.086.337.129.791.129 1.361 0 .676-.069 1.221-.208 1.636s-.346.736-.623.963-.625.34-1.047.34c-.555 0-.991-.199-1.308-.598-.379-.479-.569-1.259-.569-2.341zm.727 0c0 .945.111 1.574.332 1.888.221.313.494.469.819.469s.598-.157.819-.471c.222-.314.332-.943.332-1.886 0-.948-.11-1.578-.332-1.89-.221-.312-.497-.467-.827-.467a.907.907 0 0 0-.778.413c-.243.351-.365.999-.365 1.944z"/></g><g><path d="M56.419 131.218c-.293-.107-.511-.261-.652-.459a1.2 1.2 0 0 1-.212-.715 1.4 1.4 0 0 1 .452-1.057c.301-.286.702-.429 1.202-.429.503 0 .907.146 1.214.438.306.292.459.647.459 1.066 0 .267-.07.499-.21.697-.14.197-.353.35-.639.457.354.115.623.302.808.558.185.257.277.563.277.92 0 .492-.174.905-.522 1.241-.348.335-.807.503-1.375.503s-1.026-.169-1.375-.505a1.678 1.678 0 0 1-.522-1.259c0-.375.095-.688.285-.941s.459-.423.81-.515zm-.369 1.462c0 .201.048.396.144.585.095.188.237.334.426.438.189.104.392.155.609.155.338 0 .617-.108.837-.326.22-.217.33-.493.33-.828 0-.341-.113-.622-.34-.845s-.51-.334-.851-.334c-.333 0-.608.11-.827.33a1.12 1.12 0 0 0-.328.825zm.228-2.66c0 .272.087.495.263.668.175.173.403.26.683.26a.914.914 0 0 0 .67-.258.85.85 0 0 0 .261-.63.918.918 0 0 0-.939-.92.922.922 0 0 0-.671.26.828.828 0 0 0-.267.62zM59.805 131.501c0-.681.07-1.229.21-1.644s.348-.735.625-.961c.276-.225.624-.338 1.043-.338.309 0 .58.063.813.187.233.125.426.304.578.538s.271.521.357.856c.086.337.129.79.129 1.361 0 .676-.069 1.221-.208 1.636s-.346.736-.623.963-.625.34-1.047.34c-.555 0-.991-.199-1.308-.598-.379-.479-.569-1.259-.569-2.34zm.726 0c0 .945.111 1.574.332 1.888.221.313.494.469.819.469s.598-.157.819-.471c.222-.314.332-.943.332-1.886 0-.948-.11-1.578-.332-1.89-.221-.312-.497-.467-.827-.467a.906.906 0 0 0-.778.412c-.243.351-.365 1-.365 1.945z"/></g><g><path d="M58.999 149.346l-.703.056c-.063-.278-.152-.479-.267-.605a.938.938 0 0 0-.707-.303.97.97 0 0 0-.593.189c-.223.162-.398.399-.526.711-.128.312-.195.755-.201 1.331a1.635 1.635 0 0 1 1.399-.765c.472 0 .873.173 1.204.521.331.347.497.795.497 1.345 0 .361-.078.697-.234 1.008s-.37.548-.642.713a1.755 1.755 0 0 1-.927.248c-.589 0-1.07-.217-1.441-.65-.372-.434-.558-1.147-.558-2.143 0-1.113.206-1.923.617-2.428.359-.44.842-.66 1.45-.66.453 0 .824.127 1.114.381.287.252.461.603.518 1.051zm-2.886 2.482c0 .244.051.477.155.699s.248.393.434.509c.186.117.381.175.585.175.298 0 .555-.12.77-.361.214-.24.322-.568.322-.981 0-.398-.106-.712-.318-.941a1.046 1.046 0 0 0-.801-.344c-.32 0-.591.115-.813.344-.223.228-.334.529-.334.9zM59.805 150.854c0-.681.07-1.229.21-1.644s.348-.735.625-.961c.276-.225.624-.338 1.043-.338.309 0 .58.063.813.187.233.125.426.304.578.538s.271.521.357.856c.086.337.129.79.129 1.361 0 .676-.069 1.221-.208 1.636s-.346.736-.623.963-.625.34-1.047.34c-.555 0-.991-.199-1.308-.598-.379-.478-.569-1.258-.569-2.34zm.726 0c0 .945.111 1.574.332 1.888.221.313.494.469.819.469s.598-.157.819-.471c.222-.314.332-.943.332-1.886 0-.948-.11-1.578-.332-1.89-.221-.312-.497-.467-.827-.467a.906.906 0 0 0-.778.412c-.243.352-.365 1-.365 1.945z"/></g><path fill="none" stroke="#000" stroke-width="1" d="M-24.336 73.727c.478-1.672 1.194-.717 1.194.717 0 2.31 1.434-3.585 2.31-1.752.955 2.388 1.832.397 1.832-1.595 0-1.832 1.195.797 1.275 1.354.239 1.354 1.354-1.911 1.434-2.31.236-1.195 1.113.637 1.113.956s1.275-1.991 1.354-2.23c.639-1.833.958 2.47.958 3.265 0 .319.558-.956.558-.956 0-1.115 1.673 2.548 1.832 2.708.558.638.558-.238.718-1.434 0 0 1.035 1.273 1.513 1.991.639 1.035.478.717 1.115-.479.478-.876.078-1.114.636.08.558 1.115 1.115 3.026 1.913 1.593.636-1.115.239-3.744 1.115-2.628.396.478.955 1.354 1.354 1.753.078.079.795-3.266.955-3.506.159-.318 1.593 2.629 1.675 2.948 1.432-2.23.319-1.752 1.272-.717.399.319.64-3.185.876-2.867 3.346 3.904-.236-1.594 3.425 1.194.958.718 1.197.08 1.674-1.035 1.354-2.788 1.832 1.753 2.23.956 2.23-3.982 1.673 1.513 3.584-.956.558-.717 1.353 1.513 1.593 2.389.08.479 1.513-1.991 1.671-.796.399 2.628 1.116 1.673 1.992-.08.636-1.433.636 6.213 1.513 3.744.239-.876.558-1.035.558 0 0 0 .956-3.026 1.354-2.628.636.558 1.911 2.07 2.07 2.868.08-.24.239-.478.319-.717.159-.478.318-.876.397-1.354.078-.398.319-1.035.399-1.433.159-.319 0-.638.159-.319.159.398.559 1.194.717 1.434.159.319.396.957.396 1.354 0 .558.958-1.116.958-1.195 0-.238.319-.876.319-.956v-.079s.078-.08.078 0c0 .317.558 1.273.718 1.434.16.16.48.876.48 1.115 0-2.151-.159-4.381 1.513-1.912 1.671 2.469.955-3.026 1.911-1.035 1.035 2.07 1.354.557 2.308-.957.24-.318.876.796.958.796 1.115 1.195 1.912-3.186 2.389-1.912.159.637.876 3.186 1.194 2.708l1.194-2.389c.159-.397.48 2.071 1.434 1.115.558-.558.876-.797 1.115-1.514.796-1.514.955-2.787.955.08 0 3.982.799-.08 1.593-1.354.558-.796.399 9.24 1.99 5.497.639-1.673.32-2.39 1.515-.638.319.478.796 1.513.955 1.991.478 1.594 2.548-3.902 3.823-1.035.478 1.115.958 2.788.958.876 0-4.221 1.91-3.665 2.786-.319.799 2.867.398 3.584.958.319.478-2.47.159-3.105 1.752-4.62 0 .797.318 1.594.318 2.39 0 .636 1.594-3.026 1.752-3.585.078-.238.399-1.593.399-1.434 0 1.196.318 3.187.477 4.302.396 1.753 2.549-2.55 2.948-3.266.796-1.752.396-.319.396.956 0 .238.32 2.23.399 1.911.239-1.035 1.035-1.673 1.035-2.946 0-.638.398-.958.398.238 0 .956.399.478.478-.159.08-.797.08-.876.799-1.274 1.432-.957.318.398.555 1.912.08.238.318.558.318.716.24.956.24.238.559-.557a4.296 4.296 0 0 1 1.274-1.913c.558-.637.399.796.399 1.513 0 .319.396.956.396 1.434.958-2.788 1.434-2.788 2.151-.558.399 1.195.636 4.541 1.912 1.913.955-1.913.558 4.7 3.184 1.513 1.115-1.433-.236-.557 1.115.797.478.478 1.116-.876 1.673-1.673 1.035-1.592.557 5.177 2.31 1.513.478-.956 2.07-4.46 2.07-1.513 0 .08.08 1.673.159 1.434.399-.717.796-1.752 1.115-2.469.159-.238.876 1.194.876 1.274 0 1.354.796-2.311.876-2.469.159-.319.874.718.874.876.24 1.673.321-6.452 1.911-1.593.876 2.788 2.788 4.779 3.665.958.24-1.034 1.116 1.435 2.389.717.321-.159 2.469-3.027 1.991-3.027 1.117 2.23-.239 8.284 2.868 3.664.398-.718 1.274 1.354 1.274 1.912 0 1.273.239 1.433.478.079.48-2.47.558.238.799 1.194.396 1.195 2.149-5.097 2.466-4.38 1.115 2.23 1.753 2.469 2.869-1.035.876-2.867 1.434-.159 1.832 1.354.399 1.115 2.552-4.779 2.869-5.417.236-.558 1.113.876 1.195 1.035.399.717 1.912 1.911 1.99 2.469.08.717.958 2.788 1.356 1.991.955-1.991 1.432-2.468 2.148-3.585.159-.238.558 3.504.558 5.735 0 1.035 2.389-3.584 2.389-3.665 0 1.434.558 3.027.558 4.301 0 2.07.159 1.672.637.716.876-1.911 1.674 4.939 2.311 3.027.397-1.115 1.113-2.231 1.513-3.346.239-.717.799-5.098.799-2.788 0 .637.555 3.186 1.194 4.46 1.673 3.505 1.673-1.672 1.912-3.266.078-.558.396-3.664.876-1.354.078.558.714 1.593.796 2.23.398 2.629.636-.478.636-1.592 0-2.869 1.514-2.469 1.834 0 0 .477.555 2.708.555 2.468 0-1.672.48-3.026 1.115-4.38 1.115-2.31 1.672 3.585 1.672 2.31 0-.238.958-1.035 1.194-1.513l.958-1.752c-.08-.558.159-1.274.398-1.753.159-.319.795 1.194.795 1.514.08.557.239 1.273.478 1.671.239.478.639 1.594 1.035.876.558-.956.876-1.833 1.115-2.868.159-.637.159.239.159.558.078.876.478 1.991.638 2.708.08.318.398.876.479 1.194.16.478.715-.32.875-.479.321-.478 1.833-1.912 1.833-2.389"/><g><g fill="none" stroke-width=".5"><path stroke="#808285" d="M174.787 6.105h192.272"/><path stroke="#A7A9AC" d="M174.787 10.884h192.272"/><path stroke="#808285" d="M174.787 15.742h192.272"/><path stroke="#A7A9AC" d="M174.787 20.601h192.272"/><path stroke="#808285" d="M174.787 25.459h192.272"/><path stroke="#A7A9AC" d="M174.787 30.238h192.272"/><path stroke="#808285" d="M174.787 35.097h192.272"/><path stroke="#A7A9AC" d="M174.787 39.956h192.272"/><path stroke="#808285" d="M174.787 44.815h192.272"/><path stroke="#A7A9AC" d="M174.787 49.673h192.272"/><path stroke="#808285" d="M174.787 54.451h192.272"/><path stroke="#A7A9AC" d="M174.787 59.311h192.272"/><path stroke="#808285" d="M174.787 64.169h192.272"/><path stroke="#A7A9AC" d="M174.787 69.027h192.272"/><path stroke="#808285" d="M174.787 73.807h192.272"/><path stroke="#A7A9AC" d="M174.787 78.665h192.272"/><path stroke="#808285" d="M174.787 83.523h192.272"/><path stroke="#A7A9AC" d="M174.787 88.383h192.272"/><path stroke="#808285" d="M174.787 93.24h192.272"/><path stroke="#A7A9AC" d="M174.787 98.019h192.272"/><path stroke="#808285" d="M174.787 102.877h192.272"/><path stroke="#A7A9AC" d="M174.787 107.737h192.272"/><path stroke="#808285" d="M174.787 112.516h192.272"/><path stroke="#A7A9AC" d="M174.787 117.296h192.272"/><path stroke="#808285" d="M174.787 122.154h192.272"/><path stroke="#A7A9AC" d="M174.787 127.013h192.272"/><path stroke="#808285" d="M174.787 131.871h192.272"/><path stroke="#A7A9AC" d="M174.787 136.729h192.272"/><path stroke="#808285" d="M174.787 141.509h192.272"/><path stroke="#A7A9AC" d="M174.787 146.366h192.272"/><path stroke="#808285" d="M174.787 151.225h192.272"/><path stroke="#A7A9AC" d="M174.787 156.083h192.272"/><path stroke="#808285" d="M174.787 160.863h192.272"/><g stroke="#808285"><path d="M182.514 6.105l-.639 154.916M192.231 6.105l-.637 154.916M201.949 6.105l-.64 154.916M211.744 6.105l-.637 154.916M221.462 6.105l-.636 154.916M231.178 6.105l-.638 154.916M240.974 6.105l-.636 154.916M250.693 6.105l-.638 154.916M260.409 6.105l-.636 154.916M270.207 6.105l-.638 154.916M279.924 6.105l-.637 154.916M289.72 6.105l-.718 154.916M299.438 6.105l-.638 154.916M309.155 6.105l-.638 154.916M318.951 6.105l-.636 154.916M328.669 6.105l-.638 154.916M338.386 6.105l-.634 154.916M348.181 6.105l-.635 154.916M357.899 6.105l-.636 154.916M367.617 6.105l-.637 154.916"/></g></g><path fill="#FFF" d="M263.675 11.839h14.099v7.168h-14.099zM263.916 31.193h14.095v7.168h-14.095zM264.154 50.629h14.097v7.168h-14.097zM263.756 70.062h14.096v7.168h-14.096zM263.356 89.418h14.096v7.168h-14.096zM263.675 108.931h14.099v7.168h-14.099zM263.117 127.888h14.099v7.169h-14.099zM262.719 147.322h14.096v7.168h-14.096z"/><path d="M268.523 17.531v.68h-3.807c-.005-.17.022-.334.083-.491.097-.259.252-.514.465-.766.214-.251.522-.542.926-.872.626-.513 1.049-.92 1.269-1.22s.33-.583.33-.851c0-.28-.101-.517-.301-.709s-.462-.289-.783-.289c-.341 0-.613.102-.817.307-.204.204-.308.487-.311.848l-.727-.075c.05-.542.237-.955.562-1.239.325-.284.761-.426 1.309-.426.553 0 .989.153 1.312.46.322.306.483.686.483 1.139 0 .23-.047.457-.142.679a2.617 2.617 0 0 1-.47.703c-.218.246-.582.584-1.09 1.014-.424.356-.696.598-.816.725a2.283 2.283 0 0 0-.299.383h2.824zM269.281 15.371c0-.681.07-1.229.21-1.644.141-.415.349-.735.625-.96.276-.225.623-.338 1.043-.338.309 0 .579.063.813.187.233.124.426.304.577.538.152.234.271.52.357.856.087.337.13.791.13 1.361 0 .675-.069 1.221-.208 1.636s-.347.736-.623.962c-.275.227-.625.34-1.046.34-.556 0-.991-.199-1.309-.597-.38-.48-.569-1.26-.569-2.341zm.727 0c0 .945.11 1.574.332 1.887.221.313.494.47.819.47.324 0 .598-.157.818-.472.222-.314.332-.943.332-1.885 0-.948-.11-1.578-.332-1.89-.221-.312-.497-.467-.826-.467a.907.907 0 0 0-.778.413c-.243.35-.365.998-.365 1.944zM273.756 15.371c0-.681.07-1.229.21-1.644.141-.415.349-.735.625-.96.276-.225.623-.338 1.043-.338.309 0 .579.063.813.187.233.124.426.304.577.538.152.234.271.52.357.856.087.337.13.791.13 1.361 0 .675-.069 1.221-.208 1.636s-.347.736-.623.962c-.275.227-.625.34-1.046.34-.556 0-.991-.199-1.309-.597-.38-.48-.569-1.26-.569-2.341zm.726 0c0 .945.11 1.574.332 1.887.221.313.494.47.819.47.324 0 .598-.157.818-.472.222-.314.332-.943.332-1.885 0-.948-.11-1.578-.332-1.89-.221-.312-.497-.467-.826-.467a.907.907 0 0 0-.778.413c-.243.35-.365.998-.365 1.944zM267.47 37.567h-.707v-4.505a3.66 3.66 0 0 1-.67.487 4.758 4.758 0 0 1-.744.366v-.685c.396-.186.741-.411 1.037-.676s.505-.521.628-.77h.456v5.783zM270.369 34.444c-.293-.107-.511-.261-.652-.46a1.204 1.204 0 0 1-.212-.715c0-.419.15-.771.452-1.057.301-.285.701-.428 1.202-.428.502 0 .907.146 1.213.438.307.292.46.647.46 1.066 0 .267-.07.5-.21.697-.141.198-.354.351-.639.458.354.115.623.301.808.558s.276.563.276.919c0 .493-.174.906-.522 1.241-.348.335-.807.503-1.374.503-.568 0-1.027-.168-1.375-.505-.349-.336-.522-.756-.522-1.259 0-.375.095-.688.284-.941.19-.251.46-.423.811-.515zM270 35.905c0 .202.048.397.144.585s.237.334.426.438.392.155.609.155c.338 0 .616-.109.836-.326.221-.217.33-.494.33-.829 0-.34-.113-.622-.34-.844s-.51-.334-.85-.334A1.122 1.122 0 0 0 270 35.905zm.227-2.659c0 .272.088.495.264.668.175.173.403.259.684.259a.912.912 0 0 0 .669-.257.85.85 0 0 0 .262-.631.881.881 0 0 0-.27-.654.913.913 0 0 0-.669-.265.923.923 0 0 0-.672.259.833.833 0 0 0-.268.621zM273.756 34.727c0-.681.07-1.229.21-1.644.141-.415.349-.735.625-.96.276-.225.623-.338 1.043-.338.309 0 .579.063.813.187.233.124.426.304.577.538.152.234.271.52.357.856.087.337.13.791.13 1.361 0 .675-.069 1.221-.208 1.636s-.347.736-.623.962c-.275.227-.625.34-1.046.34-.556 0-.991-.199-1.309-.597-.38-.479-.569-1.259-.569-2.341zm.726 0c0 .945.11 1.574.332 1.887.221.313.494.47.819.47.324 0 .598-.157.818-.472.222-.314.332-.943.332-1.885 0-.948-.11-1.578-.332-1.89-.221-.312-.497-.467-.826-.467a.907.907 0 0 0-.778.413c-.243.35-.365.999-.365 1.944zM267.47 56.92h-.707v-4.505a3.66 3.66 0 0 1-.67.487 4.758 4.758 0 0 1-.744.366v-.684c.396-.186.741-.411 1.037-.676s.505-.521.628-.77h.456v5.782zM272.95 52.572l-.703.055c-.063-.277-.152-.479-.268-.605a.938.938 0 0 0-.707-.302.975.975 0 0 0-.593.188c-.223.163-.398.399-.526.711-.129.312-.195.756-.2 1.332a1.632 1.632 0 0 1 1.398-.765c.471 0 .872.173 1.203.521.332.347.497.795.497 1.345 0 .361-.078.697-.233 1.007-.156.311-.37.548-.643.713s-.581.248-.927.248c-.589 0-1.069-.217-1.441-.65-.372-.434-.558-1.148-.558-2.143 0-1.113.205-1.922.616-2.427.359-.44.842-.66 1.449-.66.453 0 .824.127 1.114.381.291.252.464.603.522 1.051zm-2.888 2.482c0 .244.052.477.155.699s.248.392.435.509c.186.116.381.175.585.175.299 0 .555-.121.77-.362.215-.241.322-.568.322-.982 0-.398-.105-.711-.318-.94a1.046 1.046 0 0 0-.801-.344c-.319 0-.591.114-.813.344-.223.229-.335.529-.335.901zM273.756 54.08c0-.681.07-1.229.21-1.644.141-.415.349-.735.625-.96.276-.225.623-.338 1.043-.338.309 0 .579.063.813.187.233.124.426.304.577.538.152.234.271.52.357.856.087.337.13.791.13 1.361 0 .675-.069 1.221-.208 1.636s-.347.736-.623.962c-.275.227-.625.34-1.046.34-.556 0-.991-.199-1.309-.597-.38-.479-.569-1.259-.569-2.341zm.726 0c0 .945.11 1.574.332 1.887.221.313.494.47.819.47.324 0 .598-.157.818-.472.222-.314.332-.943.332-1.885 0-.948-.11-1.578-.332-1.89-.221-.312-.497-.467-.826-.467a.907.907 0 0 0-.778.413c-.243.35-.365.999-.365 1.944z"/><g><path d="M266.993 76.196h-.707v-4.505a3.66 3.66 0 0 1-.67.487 4.758 4.758 0 0 1-.744.366v-.684c.396-.186.741-.411 1.037-.676s.505-.521.628-.77h.456v5.782zM271.07 76.196v-1.379h-2.498v-.648l2.627-3.731h.578v3.731h.777v.648h-.777v1.379h-.707zm0-2.027v-2.596l-1.803 2.596h1.803zM273.278 73.356c0-.681.07-1.229.21-1.644.141-.415.349-.735.625-.96.276-.225.623-.338 1.043-.338.309 0 .579.063.813.187.233.124.426.304.577.538.152.234.271.52.357.856.087.337.13.791.13 1.361 0 .675-.069 1.221-.208 1.636s-.347.736-.623.962c-.275.227-.625.34-1.046.34-.556 0-.991-.199-1.309-.597-.379-.479-.569-1.259-.569-2.341zm.727 0c0 .945.11 1.574.332 1.887.221.313.494.47.819.47.324 0 .598-.157.818-.472.222-.314.332-.943.332-1.885 0-.948-.11-1.578-.332-1.89-.221-.312-.497-.467-.826-.467a.907.907 0 0 0-.778.413c-.243.351-.365.999-.365 1.944z"/></g><g><path d="M267.47 95.711h-.707v-4.505a3.66 3.66 0 0 1-.67.487 4.758 4.758 0 0 1-.744.366v-.684c.396-.186.741-.411 1.037-.676s.505-.521.628-.77h.456v5.782zM272.997 95.032v.68h-3.807c-.005-.17.022-.334.083-.491.097-.259.252-.514.465-.766.214-.251.522-.542.926-.872.626-.513 1.049-.92 1.269-1.22s.33-.583.33-.851c0-.28-.101-.517-.301-.709s-.462-.289-.783-.289c-.341 0-.613.102-.817.307-.204.204-.308.487-.311.848l-.727-.075c.05-.542.237-.955.562-1.239.325-.284.761-.426 1.309-.426.553 0 .989.153 1.312.46.322.306.483.686.483 1.139 0 .23-.047.457-.142.679a2.617 2.617 0 0 1-.47.703c-.218.246-.582.584-1.09 1.014-.424.356-.696.598-.816.725a2.283 2.283 0 0 0-.299.383h2.824zM273.756 92.872c0-.681.07-1.229.21-1.644.141-.415.349-.735.625-.96.276-.225.623-.338 1.043-.338.309 0 .579.063.813.187.233.124.426.304.577.538.152.234.271.52.357.856.087.337.13.791.13 1.361 0 .675-.069 1.221-.208 1.636s-.347.736-.623.962c-.275.227-.625.34-1.046.34-.556 0-.991-.199-1.309-.597-.38-.48-.569-1.26-.569-2.341zm.726 0c0 .945.11 1.574.332 1.887.221.313.494.47.819.47.324 0 .598-.157.818-.472.222-.314.332-.943.332-1.885 0-.948-.11-1.578-.332-1.89-.221-.312-.497-.467-.826-.467a.907.907 0 0 0-.778.413c-.243.35-.365.998-.365 1.944z"/></g><g><path d="M267.47 114.986h-.707v-4.505a3.66 3.66 0 0 1-.67.487 4.758 4.758 0 0 1-.744.366v-.684c.396-.186.741-.411 1.037-.676s.505-.521.628-.77h.456v5.782zM269.281 112.146c0-.681.07-1.229.21-1.644.141-.415.349-.735.625-.96.276-.225.623-.338 1.043-.338.309 0 .579.063.813.187.233.124.426.304.577.538.152.234.271.52.357.856.087.337.13.791.13 1.361 0 .676-.069 1.221-.208 1.636s-.347.736-.623.963c-.275.227-.625.34-1.046.34-.556 0-.991-.199-1.309-.598-.38-.479-.569-1.259-.569-2.341zm.727 0c0 .945.11 1.574.332 1.888.221.313.494.469.819.469.324 0 .598-.157.818-.471.222-.314.332-.943.332-1.886 0-.948-.11-1.578-.332-1.89-.221-.312-.497-.467-.826-.467a.907.907 0 0 0-.778.413c-.243.351-.365.999-.365 1.944zM273.756 112.146c0-.681.07-1.229.21-1.644.141-.415.349-.735.625-.96.276-.225.623-.338 1.043-.338.309 0 .579.063.813.187.233.124.426.304.577.538.152.234.271.52.357.856.087.337.13.791.13 1.361 0 .676-.069 1.221-.208 1.636s-.347.736-.623.963c-.275.227-.625.34-1.046.34-.556 0-.991-.199-1.309-.598-.38-.479-.569-1.259-.569-2.341zm.726 0c0 .945.11 1.574.332 1.888.221.313.494.469.819.469.324 0 .598-.157.818-.471.222-.314.332-.943.332-1.886 0-.948-.11-1.578-.332-1.89-.221-.312-.497-.467-.826-.467a.907.907 0 0 0-.778.413c-.243.351-.365.999-.365 1.944z"/></g><g><path d="M268.205 131.218c-.293-.107-.511-.261-.652-.459a1.206 1.206 0 0 1-.212-.715c0-.419.15-.771.452-1.057.301-.286.701-.429 1.202-.429.502 0 .907.146 1.213.438.307.292.46.647.46 1.066 0 .267-.07.499-.21.697-.141.197-.354.35-.639.457.354.115.623.302.808.558.185.257.276.563.276.92 0 .492-.174.905-.522 1.241-.348.335-.807.503-1.374.503-.568 0-1.027-.169-1.375-.505a1.678 1.678 0 0 1-.522-1.259c0-.375.095-.688.284-.941.19-.252.46-.423.811-.515zm-.369 1.462c0 .201.048.396.144.585s.237.334.426.438.392.155.609.155c.338 0 .616-.108.836-.326a1.11 1.11 0 0 0 .33-.828c0-.341-.113-.622-.34-.845s-.51-.334-.85-.334a1.122 1.122 0 0 0-1.155 1.155zm.227-2.66c0 .272.088.495.264.668.175.173.403.26.684.26a.913.913 0 0 0 .669-.258.848.848 0 0 0 .262-.63c0-.26-.09-.478-.27-.654a.914.914 0 0 0-.669-.266.924.924 0 0 0-.672.26.83.83 0 0 0-.268.62zM271.591 131.501c0-.681.07-1.229.21-1.644.141-.415.349-.735.625-.961.276-.225.623-.338 1.043-.338.309 0 .579.063.813.187.233.125.426.304.577.538.152.234.271.521.357.856.087.337.13.79.13 1.361 0 .676-.069 1.221-.208 1.636s-.347.736-.623.963c-.275.227-.625.34-1.046.34-.556 0-.991-.199-1.309-.598-.38-.479-.569-1.259-.569-2.34zm.726 0c0 .945.11 1.574.332 1.888.221.313.494.469.819.469.324 0 .598-.157.818-.471.222-.314.332-.943.332-1.886 0-.948-.11-1.578-.332-1.89-.221-.312-.497-.467-.826-.467a.906.906 0 0 0-.778.412c-.243.351-.365 1-.365 1.945z"/></g><g><path d="M270.786 149.346l-.703.056c-.063-.278-.152-.479-.268-.605a.938.938 0 0 0-.707-.303.97.97 0 0 0-.593.189c-.223.162-.398.399-.526.711-.129.312-.195.755-.2 1.331a1.64 1.64 0 0 1 1.398-.765c.471 0 .872.173 1.203.521.332.347.497.795.497 1.345 0 .361-.078.697-.233 1.008-.156.311-.37.548-.643.713s-.581.248-.927.248c-.589 0-1.069-.217-1.441-.65s-.558-1.147-.558-2.143c0-1.113.205-1.923.616-2.428.359-.44.842-.66 1.449-.66.453 0 .824.127 1.114.381.29.252.464.603.522 1.051zm-2.888 2.482c0 .244.052.477.155.699s.248.393.435.509c.186.117.381.175.585.175.299 0 .555-.12.77-.361.215-.24.322-.568.322-.981 0-.398-.105-.712-.318-.941a1.046 1.046 0 0 0-.801-.344c-.319 0-.591.115-.813.344-.223.228-.335.529-.335.9zM271.591 150.854c0-.681.07-1.229.21-1.644.141-.415.349-.735.625-.961.276-.225.623-.338 1.043-.338.309 0 .579.063.813.187.233.125.426.304.577.538.152.234.271.521.357.856.087.337.13.79.13 1.361 0 .676-.069 1.221-.208 1.636s-.347.736-.623.963c-.275.227-.625.34-1.046.34-.556 0-.991-.199-1.309-.598-.38-.478-.569-1.258-.569-2.34zm.726 0c0 .945.11 1.574.332 1.888.221.313.494.469.819.469.324 0 .598-.157.818-.471.222-.314.332-.943.332-1.886 0-.948-.11-1.578-.332-1.89-.221-.312-.497-.467-.826-.467a.906.906 0 0 0-.778.412c-.243.352-.365 1-.365 1.945z"/></g><g><path d="M296.341 111.639v-5.53h.732v4.877h2.724v.653h-3.456zM303.196 111.145c-.252.214-.494.365-.727.453s-.482.132-.749.132c-.44 0-.778-.107-1.015-.322a1.066 1.066 0 0 1-.354-.824c0-.196.045-.375.134-.538s.206-.292.351-.391.308-.172.489-.223c.133-.035.334-.069.604-.102.548-.065.951-.144 1.211-.234l.003-.177c0-.277-.063-.472-.192-.585-.173-.153-.431-.23-.772-.23-.32 0-.556.056-.708.168-.152.112-.265.31-.338.594l-.663-.09c.06-.284.159-.514.298-.688.138-.175.338-.31.6-.404s.564-.141.909-.141c.342 0 .62.04.834.121s.371.182.472.304.171.276.211.462c.022.116.034.325.034.626v.905c0 .631.014 1.03.043 1.198s.086.328.172.481h-.709a1.377 1.377 0 0 1-.138-.495zm-.057-1.517c-.247.101-.616.186-1.109.256-.279.041-.477.086-.593.136a.578.578 0 0 0-.362.543c0 .181.068.332.205.453s.338.181.602.181c.262 0 .494-.057.698-.171a1.06 1.06 0 0 0 .449-.47c.072-.153.109-.38.109-.679v-.249zM306.361 111.031l.098.6a2.53 2.53 0 0 1-.513.06c-.247 0-.438-.039-.573-.117-.137-.078-.231-.181-.287-.308s-.083-.394-.083-.802v-2.305h-.498v-.528h.498v-.992l.675-.407v1.399h.684v.528h-.684v2.342c0 .194.013.318.036.374.024.056.063.1.117.132a.446.446 0 0 0 .231.049c.076.002.175-.007.299-.025zM309.767 110.349l.701.086c-.11.41-.315.729-.614.955-.3.227-.682.339-1.147.339-.586 0-1.05-.18-1.394-.541s-.515-.867-.515-1.519c0-.674.173-1.197.521-1.569.347-.372.797-.558 1.351-.558.535 0 .973.182 1.313.547s.51.877.51 1.539l-.004.181H307.5c.025.44.149.777.374 1.011.224.234.503.351.837.351.249 0 .462-.065.638-.196s.315-.34.418-.626zm-2.229-1.099h2.237c-.03-.337-.116-.589-.257-.758a1.042 1.042 0 0 0-.842-.393c-.312 0-.573.104-.786.313-.213.21-.33.489-.352.838zM316.067 111.639v-.505c-.254.397-.627.596-1.12.596-.319 0-.613-.088-.881-.264a1.735 1.735 0 0 1-.623-.738 2.562 2.562 0 0 1-.221-1.088c0-.4.067-.763.2-1.088a1.58 1.58 0 0 1 .6-.749 1.6 1.6 0 0 1 .895-.26 1.336 1.336 0 0 1 1.106.551v-1.984h.675v5.53h-.631zm-2.146-2c0 .513.108.896.324 1.151.217.254.472.381.766.381a.96.96 0 0 0 .757-.364c.207-.243.312-.613.312-1.111 0-.548-.105-.951-.317-1.207-.211-.257-.472-.385-.78-.385-.302 0-.555.123-.757.37s-.305.635-.305 1.165zM320.508 110.349l.701.086c-.11.41-.315.729-.614.955-.3.227-.682.339-1.147.339-.586 0-1.05-.18-1.394-.541s-.515-.867-.515-1.519c0-.674.173-1.197.521-1.569.347-.372.797-.558 1.351-.558.535 0 .973.182 1.313.547s.51.877.51 1.539l-.004.181h-2.988c.025.44.149.777.374 1.011.224.234.503.351.837.351.249 0 .462-.065.638-.196s.313-.34.417-.626zm-2.23-1.099h2.237c-.03-.337-.116-.589-.257-.758a1.042 1.042 0 0 0-.842-.393c-.312 0-.573.104-.786.313-.212.21-.329.489-.352.838zM324.677 110.171l.667.086c-.072.46-.26.821-.56 1.081-.301.26-.67.39-1.107.39-.549 0-.989-.179-1.322-.538-.333-.358-.5-.872-.5-1.541 0-.432.071-.811.215-1.135.144-.325.361-.568.654-.73s.612-.243.957-.243c.435 0 .791.11 1.067.33.276.22.454.532.532.938l-.66.102c-.063-.269-.175-.472-.334-.607a.864.864 0 0 0-.579-.204c-.343 0-.62.123-.834.368-.214.246-.32.633-.32 1.164 0 .538.103.929.309 1.173.207.244.476.366.808.366.267 0 .489-.082.668-.245s.291-.415.339-.755zM328.667 110.349l.701.086c-.11.41-.315.729-.614.955-.3.227-.682.339-1.147.339-.586 0-1.05-.18-1.394-.541s-.515-.867-.515-1.519c0-.674.173-1.197.521-1.569.347-.372.797-.558 1.351-.558.535 0 .973.182 1.313.547s.51.877.51 1.539l-.004.181h-2.988c.025.44.149.777.374 1.011.224.234.503.351.837.351.249 0 .462-.065.638-.196s.313-.34.417-.626zm-2.23-1.099h2.237c-.03-.337-.116-.589-.257-.758a1.042 1.042 0 0 0-.842-.393c-.312 0-.573.104-.786.313-.212.21-.329.489-.352.838zM330.206 111.639v-5.53h.679v5.53h-.679zM334.68 110.349l.701.086c-.11.41-.315.729-.614.955-.3.227-.682.339-1.147.339-.586 0-1.05-.18-1.394-.541s-.515-.867-.515-1.519c0-.674.173-1.197.521-1.569.347-.372.797-.558 1.351-.558.535 0 .973.182 1.313.547s.51.877.51 1.539l-.004.181h-2.988c.025.44.149.777.374 1.011.224.234.503.351.837.351.249 0 .462-.065.638-.196s.314-.34.417-.626zm-2.229-1.099h2.237c-.03-.337-.116-.589-.257-.758a1.042 1.042 0 0 0-.842-.393c-.312 0-.573.104-.786.313-.212.21-.33.489-.352.838zM336.227 111.639v-4.006h.611v.607c.155-.284.3-.472.432-.562a.75.75 0 0 1 .436-.136c.229 0 .462.073.698.219l-.234.63a.972.972 0 0 0-.498-.147c-.148 0-.281.044-.399.134s-.203.213-.253.372a2.655 2.655 0 0 0-.113.792v2.098h-.68zM341.422 111.145c-.252.214-.494.365-.727.453s-.482.132-.749.132c-.44 0-.778-.107-1.015-.322a1.066 1.066 0 0 1-.354-.824c0-.196.045-.375.134-.538s.206-.292.351-.391.308-.172.489-.223c.133-.035.334-.069.604-.102.548-.065.951-.144 1.211-.234l.003-.177c0-.277-.063-.472-.192-.585-.173-.153-.431-.23-.772-.23-.32 0-.556.056-.708.168-.152.112-.265.31-.338.594l-.663-.09c.06-.284.159-.514.298-.688.138-.175.338-.31.6-.404s.564-.141.909-.141c.342 0 .62.04.834.121s.371.182.472.304.171.276.211.462c.022.116.034.325.034.626v.905c0 .631.014 1.03.043 1.198s.086.328.172.481h-.709a1.357 1.357 0 0 1-.138-.495zm-.057-1.517c-.247.101-.616.186-1.109.256-.279.041-.477.086-.593.136a.578.578 0 0 0-.362.543c0 .181.068.332.205.453s.338.181.602.181c.262 0 .494-.057.698-.171a1.06 1.06 0 0 0 .449-.47c.072-.153.109-.38.109-.679v-.249zM344.587 111.031l.098.6a2.53 2.53 0 0 1-.513.06c-.247 0-.438-.039-.573-.117-.137-.078-.231-.181-.287-.308s-.083-.394-.083-.802v-2.305h-.498v-.528h.498v-.992l.675-.407v1.399h.684v.528h-.684v2.342c0 .194.013.318.036.374.024.056.063.1.117.132a.446.446 0 0 0 .231.049c.076.002.175-.007.299-.025zM345.254 106.889v-.781h.68v.781h-.68zm0 4.75v-4.006h.68v4.006h-.68zM346.715 109.636c0-.742.206-1.292.618-1.649.345-.296.765-.445 1.26-.445.551 0 1.001.18 1.351.541s.524.86.524 1.496c0 .516-.077.921-.231 1.216-.155.296-.38.525-.676.688a1.959 1.959 0 0 1-.968.245c-.561 0-1.014-.18-1.359-.539-.347-.359-.519-.877-.519-1.553zm.697 0c0 .513.112.897.336 1.152s.506.383.845.383c.338 0 .618-.128.842-.385s.336-.647.336-1.173c0-.495-.113-.871-.338-1.126a1.077 1.077 0 0 0-.84-.383c-.339 0-.621.127-.845.381s-.336.638-.336 1.151zM351.264 111.639v-4.006h.61v.57c.295-.44.72-.66 1.275-.66.241 0 .463.043.666.13.202.087.354.201.454.341.101.141.171.308.212.502.024.126.037.346.037.66v2.463h-.679v-2.437c0-.276-.026-.483-.079-.621s-.146-.247-.281-.328-.292-.123-.474-.123c-.289 0-.539.092-.749.275s-.314.532-.314 1.045v2.188h-.678z"/></g><path fill="none" stroke="#000" stroke-width=".5" d="M293.783 109.41l-10.832-12.186"/><path fill="none" stroke="#000" stroke-width="1" d="M183.787 73.966c2.711-3.744 1.195 1.832 3.186-.159.877-.876.638-1.673 1.435 0 1.035 2.31 1.272-.319 1.911-.319 1.112 0 .875 2.389 1.911.875 1.833-2.708 1.515-.796 3.026.797 1.354 1.275.238-3.982 3.106-1.115 1.193 1.195 1.674-1.991 1.834-1.673 1.99 3.105.796 2.07 1.912-.239.714-1.513 1.99 3.744 1.99 1.673 0-.638 1.753-5.018 1.753-1.673 0 .558.397 2.788.877 1.991 1.591-2.708 1.91-2.07 1.91 1.195 0 .797 1.354-3.824 2.231-1.035 1.83 5.655 3.743-3.981 3.743 1.434 0 1.194 1.675-3.904 2.709-1.035 1.112 2.788.479-2.708 2.231-.957 2.146 2.151 1.195-6.292 2.946-1.035.318 1.115.558 3.105 1.113.557.321-1.273.957-1.592 1.434-1.434.558.24.398 1.195.958 1.912.236-.478 1.911-4.541 2.071-3.982l1.911 4.221c.078.159 1.194-2.31 1.194-1.911 0 .478 1.514 2.788 1.753 2.31.797-1.354.956-3.186 1.831-1.354.718 1.434 2.151-1.354 2.151-1.913 0 0 .876 1.594.876 2.149 0 .319 1.75-1.513 1.75-1.513.64-1.114 1.433 3.107 1.433 1.195 0-.239.639 3.982 1.355 2.31.159-.239.238 1.672.238 1.753v2.55c0 .636 1.195-2.471 1.195-.24 0 .319.478 1.99.557 2.31.558 1.194-.159.239.718-.637.637-.718.956-2.788.956.319 0 3.265.957 1.115 1.751-.478.958-2.07.876 2.788 1.354 2.788.876-3.186 1.195.557 1.195 2.07 0 1.273.321 2.708.321 4.141 0 .24.395-.398.395-.398 1.594-2.07.479 2.07 1.115 2.07 2.307 0-.237-2.708 1.354.319.077.319.077 1.672.077 1.991 0 2.389 1.434-3.265 1.835-.079.159.876.159 3.584.558 2.788 1.113-1.912.877.557.877 1.592 0 2.07.158-1.194 1.27.956.08.24.718 2.231.718 2.07 1.115-2.149.638 1.673 1.513 2.071 1.036.478.558-1.195 1.116-1.195.876 0 .478 2.07.876 2.311 1.752.875 1.594-3.585 2.629-.319.555 1.752.716.956 1.91-.637 1.112-1.434 1.272 2.15 1.272 3.026 0 .716.48-2.788.558-3.026 1.355-2.629 1.195 3.743 1.434 2.867 1.354-5.417 2.868.558 2.868-2.867 0-.24.237-1.434.237-1.194 0 1.035.56 4.142 1.037 1.592.16-.398.876-2.629 1.271-2.629.397.16.479 1.035.876 1.035.16 0 1.516-3.106 1.752-3.505.08-.398.16-1.273.318-.717.321 1.913 1.274-1.832 1.593-2.469.398-.797 1.835.478 2.151 1.275.159.478.877-2.31.877-2.708 0-1.672.876.079.876-.318V90.611s0 .08.955.876c1.434 1.115.877-.637.877-1.753 0-.876-.399-1.354.478-.478.716.797 3.585-4.938 3.585-2.15.319-1.433 1.753-3.265 1.753-4.619 0-.876.798-4.381 1.114-4.62.636-.478 3.186-4.142 3.186-4.62 0-1.114.236.479.318.718.077.317 1.354-1.912 1.354-2.47V72.53l.08.08h.235l.08-.24.077-.08.16-.159.08-.079.159-.24v-.079l.16-.08.158-.239h.08v-.238s.319-.636.319-.239c0 .239.159.319.159.558v.796c0 .239.159.399.159.638V73.486c.159.319.236.238.236.478 0-1.274 1.197-3.186 2.311-2.31 2.07 1.592 2.309-1.035 3.424 1.274.558 1.194.08-1.274 2.392 1.035 1.195 1.194.957-1.434 1.113-1.354 1.514 2.31 1.434 3.185 2.629.636.237-.557 1.114.797 1.273 1.196.479.876 3.105-1.593 3.344-2.15.238-.478.238 3.027 2.07 1.195.08-.08.957-1.195.957.238 0 .876 1.91-1.354 1.91-1.194 1.515 4.54 1.593-.558 3.502 1.275 2.15 2.229 1.753-3.026 3.269-1.514 1.194 1.195.875-2.23 1.75-1.354.479.478 1.675 1.913 1.675 2.469 0 1.035 1.515-1.912 1.515-1.353 0 .797.238 3.823.797 2.229.557-1.911 1.432-.796 1.833.559.397 1.035 1.675-3.346 2.469-1.673 1.593 3.426 2.39-3.743 3.185-.636.321 1.513.878 1.592 1.911.636 1.913-1.673 1.037-1.673 1.752 0 .718 1.434 1.594-.478 2.231-1.114.479-.398.479.238.479.637 0 1.115.318.478.478.239 1.354-1.274 1.912 1.991 2.55.637.08-.159.799-1.753.799-1.912 0-.718 4.777.638 5.575.718"/></g><g><path d="M28.948 170.5v-5.53h3.731v.652H29.68v1.713h2.595v.652H29.68v2.513h-.732zM33.407 167.807c0-.918.247-1.637.739-2.156.493-.52 1.129-.779 1.909-.779.511 0 .971.122 1.381.366.41.244.723.584.938 1.021s.323.932.323 1.484c0 .561-.113 1.063-.34 1.505-.226.443-.547.778-.962 1.006s-.863.342-1.343.342a2.61 2.61 0 0 1-1.396-.378 2.434 2.434 0 0 1-.932-1.029 3.124 3.124 0 0 1-.317-1.382zm.754.01c0 .667.179 1.192.538 1.575.358.384.808.575 1.349.575.551 0 1.004-.193 1.36-.581.356-.387.534-.937.534-1.648 0-.45-.076-.843-.228-1.179a1.757 1.757 0 0 0-1.654-1.057c-.518 0-.964.178-1.337.533-.375.357-.562.95-.562 1.782zM39.651 170.5v-5.53h2.452c.493 0 .868.05 1.124.148.256.1.461.275.615.526.154.252.23.529.23.834 0 .393-.127.723-.381.992-.254.27-.646.44-1.177.513.193.094.341.186.441.275.214.196.416.441.607.736l.962 1.505h-.92l-.732-1.15c-.214-.332-.39-.586-.528-.763-.138-.176-.262-.299-.372-.369s-.221-.119-.334-.147a2.172 2.172 0 0 0-.407-.026h-.849v2.456h-.731zm.732-3.09h1.573c.334 0 .596-.034.785-.104.189-.069.332-.18.43-.332s.147-.317.147-.496a.826.826 0 0 0-.285-.646c-.19-.168-.49-.252-.899-.252h-1.75v1.83zM47.387 170.5v-5.53h.732v2.271h2.875v-2.271h.732v5.53h-.732v-2.606h-2.875v2.606h-.732zM53.05 170.5v-.773h.773v.773h-.773zM55.091 170.5v-5.53h2.086c.367 0 .647.018.841.053.271.045.499.132.683.259s.332.305.443.533c.112.229.168.48.168.755 0 .47-.149.868-.449 1.193-.299.326-.84.489-1.623.489h-1.418v2.248h-.731zm.732-2.901h1.43c.473 0 .809-.088 1.007-.264.198-.176.298-.424.298-.743 0-.231-.059-.43-.175-.594a.821.821 0 0 0-.462-.327c-.123-.032-.351-.049-.683-.049h-1.415v1.977zM59.354 170.5v-.773h.773v.773h-.773zM63.367 169.221l.653-.06c.055.307.161.529.317.667a.868.868 0 0 0 .6.208c.209 0 .392-.048.549-.144s.286-.223.387-.383.185-.375.253-.647a3.397 3.397 0 0 0 .098-.965 1.538 1.538 0 0 1-.557.525c-.235.135-.49.202-.764.202-.458 0-.845-.166-1.162-.498s-.475-.77-.475-1.313c0-.561.165-1.013.496-1.354.331-.342.745-.513 1.243-.513.36 0 .688.097.987.29.298.193.524.47.679.828.155.358.232.877.232 1.557 0 .706-.077 1.269-.23 1.688s-.381.737-.685.956c-.303.22-.658.329-1.066.329-.433 0-.786-.12-1.06-.36s-.439-.578-.495-1.013zm2.781-2.441c0-.39-.104-.699-.311-.928a.977.977 0 0 0-.749-.344c-.302 0-.564.123-.788.37-.224.246-.336.565-.336.958 0 .353.106.639.319.858s.475.33.787.33c.314 0 .573-.11.775-.33.202-.218.303-.524.303-.914zM71.131 169.848v.652h-3.655c-.005-.163.021-.32.079-.472.093-.249.242-.494.447-.735s.501-.521.888-.838c.601-.492 1.007-.883 1.219-1.171.211-.288.317-.561.317-.817 0-.269-.096-.496-.289-.681s-.443-.277-.753-.277c-.327 0-.588.099-.785.295-.196.195-.295.468-.298.814l-.698-.071c.047-.521.228-.918.54-1.19.312-.273.73-.409 1.256-.409.531 0 .951.146 1.26.441.309.294.464.658.464 1.094 0 .222-.045.438-.136.652-.091.214-.241.439-.451.676s-.559.561-1.047.973c-.408.343-.669.574-.785.696s-.211.245-.287.368h2.714zM71.905 165.694v-.653h3.58v.528c-.352.375-.701.873-1.047 1.494a9.055 9.055 0 0 0-.801 1.916c-.136.463-.223.97-.26 1.521h-.698c.008-.436.093-.961.257-1.577a8.28 8.28 0 0 1 .703-1.782 7.596 7.596 0 0 1 .976-1.446h-2.71zM76.156 167.772c0-.653.067-1.18.202-1.579.135-.398.334-.706.6-.922.266-.217.6-.324 1.002-.324.296 0 .557.06.781.179a1.5 1.5 0 0 1 .555.517c.146.226.26.5.343.823.083.322.125.759.125 1.307 0 .649-.067 1.173-.2 1.571s-.333.707-.598.924c-.266.218-.601.327-1.005.327-.533 0-.952-.191-1.256-.574-.366-.46-.549-1.209-.549-2.249zm.698 0c0 .908.106 1.513.319 1.813.212.301.475.451.787.451.312 0 .574-.151.787-.453.212-.302.318-.905.318-1.811 0-.91-.106-1.516-.318-1.814-.213-.299-.478-.449-.794-.449a.87.87 0 0 0-.747.396c-.235.337-.352.959-.352 1.867zM80.378 168.84v-.683h2.086v.683h-2.086zM83.026 167.772c0-.653.067-1.18.202-1.579.135-.398.334-.706.6-.922.266-.217.6-.324 1.002-.324.296 0 .557.06.781.179a1.5 1.5 0 0 1 .555.517c.146.226.26.5.343.823.083.322.125.759.125 1.307 0 .649-.067 1.173-.2 1.571s-.333.707-.598.924c-.266.218-.601.327-1.005.327-.533 0-.952-.191-1.256-.574-.367-.46-.549-1.209-.549-2.249zm.698 0c0 .908.106 1.513.319 1.813.212.301.475.451.787.451.312 0 .574-.151.787-.453.212-.302.318-.905.318-1.811 0-.91-.106-1.516-.318-1.814-.213-.299-.478-.449-.794-.449a.87.87 0 0 0-.747.396c-.235.337-.352.959-.352 1.867zM89.499 170.5v-1.324H87.1v-.622l2.524-3.584h.554v3.584h.747v.622h-.747v1.324h-.679zm0-1.946v-2.494l-1.732 2.494h1.732zM92.664 167.501c-.282-.104-.491-.25-.626-.441s-.204-.42-.204-.687c0-.402.145-.741.434-1.015.289-.274.674-.411 1.154-.411.483 0 .871.14 1.166.42.294.281.441.622.441 1.024 0 .257-.067.479-.202.67-.135.189-.339.336-.613.439.339.11.598.289.775.535.177.247.266.541.266.883 0 .474-.167.87-.502 1.192s-.775.483-1.32.483c-.546 0-.986-.162-1.32-.485s-.502-.726-.502-1.209c0-.359.091-.661.273-.903.184-.242.443-.407.78-.495zm-.354 1.403c0 .193.045.381.138.563a.97.97 0 0 0 .409.42c.181.1.376.149.584.149.325 0 .592-.104.804-.313s.317-.474.317-.796c0-.327-.109-.597-.326-.811a1.119 1.119 0 0 0-.817-.321 1.077 1.077 0 0 0-1.109 1.109zm.219-2.553c0 .262.084.475.252.641s.387.249.657.249a.877.877 0 0 0 .643-.247.816.816 0 0 0 .251-.605.845.845 0 0 0-.259-.628.878.878 0 0 0-.643-.255c-.259 0-.474.083-.645.249s-.256.364-.256.596zM98.093 170.5v-1.324h-2.399v-.622l2.524-3.584h.554v3.584h.747v.622h-.747v1.324h-.679zm0-1.946v-2.494l-1.732 2.494h1.732z"/></g><g><g fill="none" stroke-width=".5"><g stroke="#808285"><path d="M-33.415 178.943l192.91-.239M-33.415 186.75l192.91-.321M-33.415 194.474l192.91-.24M-33.415 202.279l192.91-.317M-33.415 210.005l192.91-.236M-33.415 217.812l192.91-.318M-33.415 225.618l192.91-.318M-33.415 233.343l192.91-.318M-33.415 241.148l192.91-.319M-33.415 248.874l192.91-.318M-33.415 256.68l192.91-.318"/></g><path stroke="#000" d="M-15.176 178.943v77.419"/><path stroke="#808285" d="M-5.458 178.943v77.419M4.258 178.943v77.419M13.976 178.943v77.419M23.692 178.943v77.419M33.331 178.943v77.419M43.047 178.943v77.419M52.765 178.943v77.419M62.483 178.943v77.419M72.199 178.943v77.419M81.837 178.943v77.419M91.554 178.943v77.419M101.271 178.943v77.419M110.988 178.943v77.419M120.706 178.943v77.419M130.344 178.943v77.419M140.06 178.943v77.419M149.778 178.943v77.419M159.495 178.943v77.419"/></g><path d="M-34.595 184.996v-4.732h.942l1.12 3.351c.104.313.179.546.226.701.054-.173.138-.426.252-.759l1.133-3.293h.842v4.732h-.604v-3.961l-1.375 3.961h-.565l-1.369-4.028v4.028h-.602zM-29.056 184.996v-4.732h3.421v.559h-2.795v1.449h2.618v.556h-2.618v1.61h2.905v.559h-3.531zM-24.659 184.996v-4.732h1.63c.368 0 .649.022.842.068.271.063.502.175.694.339.25.211.436.48.56.809.124.328.186.703.186 1.125 0 .359-.042.678-.126.955s-.191.508-.323.689-.275.325-.431.429a1.747 1.747 0 0 1-.564.237 3.215 3.215 0 0 1-.76.081h-1.708zm.626-.558h1.01c.312 0 .557-.029.734-.087.178-.059.319-.14.425-.245.148-.148.264-.349.347-.599.083-.251.125-.555.125-.912 0-.495-.082-.876-.244-1.142-.163-.266-.36-.443-.593-.534-.167-.064-.438-.097-.81-.097h-.994v3.616zM-20.098 183.476l.591-.052c.028.237.093.432.195.583s.261.274.476.368.458.14.726.14c.239 0 .45-.035.633-.106a.866.866 0 0 0 .408-.292.678.678 0 0 0 .134-.405.62.62 0 0 0-.129-.389c-.086-.11-.228-.204-.426-.279a8.443 8.443 0 0 0-.843-.23c-.435-.104-.739-.203-.914-.296a1.28 1.28 0 0 1-.505-.44 1.076 1.076 0 0 1-.167-.589c0-.239.068-.462.204-.67s.333-.365.594-.473.55-.161.869-.161c.351 0 .66.056.928.169.268.113.474.279.618.499s.222.468.232.745l-.6.046c-.033-.3-.142-.525-.328-.678-.187-.153-.461-.229-.825-.229-.378 0-.654.069-.828.208s-.26.307-.26.502c0 .17.061.31.184.42.121.109.436.222.944.337s.858.216 1.047.302c.275.127.479.288.61.482.131.195.197.42.197.674 0 .251-.072.488-.216.711s-.351.396-.621.521a2.18 2.18 0 0 1-.912.186c-.428 0-.787-.063-1.077-.188s-.516-.313-.681-.563a1.623 1.623 0 0 1-.258-.853zM-29.239 192.482v-4.732h1.63c.368 0 .649.022.842.068.271.063.502.175.694.339.25.211.436.48.56.809.124.328.186.703.186 1.125 0 .359-.042.678-.126.955s-.191.508-.323.689-.275.325-.431.429a1.747 1.747 0 0 1-.564.237 3.215 3.215 0 0 1-.76.081h-1.708zm.626-.558h1.01c.312 0 .557-.029.734-.087.178-.059.319-.14.425-.245.148-.148.264-.349.347-.599.083-.251.125-.555.125-.912 0-.495-.082-.876-.244-1.142-.163-.266-.36-.443-.593-.534-.167-.064-.438-.097-.81-.097h-.994v3.616zM-24.491 192.482v-4.732h.626v4.174h2.331v.559h-2.957zM-31.218 199.891v-4.732h3.421v.559h-2.795v1.449h2.618v.556h-2.618v1.61h2.905v.559h-3.531zM-26.789 199.891v-4.732h3.192v.559h-2.566v1.466h2.221v.559h-2.221v2.149h-.626zM-22.75 199.891v-4.732h3.192v.559h-2.566v1.466h2.221v.559h-2.221v2.149h-.626zM-31.524 205.938l.591-.052c.028.237.093.432.195.583s.261.274.476.368.458.14.726.14c.239 0 .45-.035.633-.106a.866.866 0 0 0 .408-.292.678.678 0 0 0 .134-.405.62.62 0 0 0-.129-.389c-.086-.11-.228-.204-.426-.279a8.443 8.443 0 0 0-.843-.23c-.435-.104-.739-.203-.914-.296a1.28 1.28 0 0 1-.505-.44 1.076 1.076 0 0 1-.167-.589c0-.239.068-.462.204-.67s.333-.365.594-.473.55-.161.869-.161c.351 0 .66.056.928.169.268.113.474.279.618.499s.222.468.232.745l-.6.046c-.033-.3-.142-.525-.328-.678-.187-.153-.461-.229-.825-.229-.378 0-.654.069-.828.208s-.26.307-.26.502c0 .17.061.31.184.42.121.109.436.222.944.337s.858.216 1.047.302c.275.127.479.288.61.482.131.195.197.42.197.674 0 .251-.072.488-.216.711s-.351.396-.621.521a2.18 2.18 0 0 1-.912.186c-.428 0-.787-.063-1.077-.188s-.516-.313-.681-.563a1.626 1.626 0 0 1-.258-.853zM-25.698 207.459v-4.174h-1.559v-.559h3.751v.559h-1.565v4.174h-.627zM-23.874 207.459l1.817-4.732h.675l1.937 4.732h-.713l-.552-1.434h-1.979l-.52 1.434h-.665zm1.366-1.943h1.604l-.494-1.311a12.736 12.736 0 0 1-.336-.981c-.06.304-.145.605-.255.904l-.519 1.388zM-32.575 216.457v-4.732h2.098c.422 0 .743.043.962.128.22.085.395.235.526.45s.197.453.197.713c0 .336-.108.619-.326.85-.218.23-.553.376-1.007.438.166.08.292.158.377.236.183.167.356.377.52.629l.823 1.288h-.788l-.626-.984a8.67 8.67 0 0 0-.452-.652 1.411 1.411 0 0 0-.318-.316.937.937 0 0 0-.286-.126 1.9 1.9 0 0 0-.349-.022h-.726v2.102h-.625zm.626-2.644h1.346c.286 0 .51-.029.671-.089.161-.06.284-.154.368-.284s.126-.271.126-.425a.705.705 0 0 0-.244-.552c-.163-.144-.419-.216-.77-.216h-1.498v1.566zM-28.002 214.152c0-.785.211-1.4.633-1.845s.966-.667 1.633-.667c.437 0 .831.104 1.182.313.351.209.618.5.802.873.184.373.276.797.276 1.271 0 .479-.097.909-.291 1.288a1.982 1.982 0 0 1-.823.859 2.35 2.35 0 0 1-1.149.293c-.446 0-.844-.108-1.194-.323-.351-.215-.617-.509-.797-.881s-.272-.766-.272-1.181zm.646.01c0 .57.153 1.02.46 1.348s.691.492 1.154.492c.471 0 .859-.166 1.164-.497.305-.331.457-.802.457-1.411 0-.385-.065-.721-.195-1.009a1.503 1.503 0 0 0-1.415-.905c-.443 0-.825.152-1.145.457-.32.304-.48.812-.48 1.525zM-22.688 216.457v-4.732h.942l1.12 3.351c.104.313.179.546.226.701.054-.173.138-.426.252-.759l1.133-3.293h.842v4.732h-.604v-3.961l-1.375 3.961h-.565l-1.369-4.028v4.028h-.602zM-29.156 224.7v-4.741h.53v.445c.125-.175.266-.306.423-.393.157-.087.347-.131.571-.131.292 0 .551.075.774.227.224.15.393.363.507.638.114.273.171.574.171.901 0 .352-.063.667-.189.948a1.437 1.437 0 0 1-1.306.87c-.194 0-.368-.041-.521-.122a1.188 1.188 0 0 1-.379-.311v1.669h-.581zm.527-3.008c0 .44.089.767.268.978a.82.82 0 0 0 .649.316c.258 0 .479-.109.663-.327.184-.219.276-.558.276-1.016 0-.437-.09-.764-.27-.981-.18-.217-.394-.326-.644-.326-.247 0-.466.116-.657.348s-.285.567-.285 1.008zM-25.385 223.387v-4.732h.626v1.943h2.459v-1.943h.626v4.732h-.626v-2.23h-2.459v2.23h-.626zM-28.714 229.047c0-.785.211-1.4.633-1.845s.966-.667 1.633-.667c.437 0 .831.104 1.182.313.351.209.618.5.802.873.184.373.276.797.276 1.271 0 .479-.097.909-.291 1.288a1.982 1.982 0 0 1-.823.859 2.35 2.35 0 0 1-1.149.293c-.446 0-.844-.108-1.194-.323-.351-.215-.617-.509-.797-.881s-.272-.766-.272-1.181zm.646.01c0 .57.153 1.02.46 1.348s.691.492 1.154.492c.471 0 .859-.166 1.164-.497.305-.331.457-.802.457-1.411 0-.385-.065-.721-.195-1.009a1.503 1.503 0 0 0-1.415-.905c-.443 0-.825.152-1.145.457-.32.304-.48.812-.48 1.525z"/><g><path d="M-22.213 232.428v.275h-1.545a.497.497 0 0 1 .034-.199c.04-.105.103-.209.189-.312.086-.102.212-.22.375-.354.254-.208.426-.373.515-.495s.134-.236.134-.345a.385.385 0 0 0-.122-.288.44.44 0 0 0-.318-.117.449.449 0 0 0-.332.124.471.471 0 0 0-.126.345l-.295-.03c.02-.221.096-.388.228-.503.132-.115.309-.174.531-.174.224 0 .402.063.533.188.13.124.196.278.196.462a.703.703 0 0 1-.057.276 1.11 1.11 0 0 1-.19.285 4.55 4.55 0 0 1-.443.411 5.47 5.47 0 0 0-.332.294.968.968 0 0 0-.121.156h1.146z"/></g><g><path d="M-36.488 239.557v-4.732h1.785c.314 0 .554.016.72.046.232.038.427.112.584.221s.284.261.379.457c.096.195.144.411.144.646 0 .402-.128.743-.384 1.021-.256.278-.719.418-1.388.418h-1.214v1.924h-.626zm.626-2.483h1.224c.404 0 .691-.075.862-.226.17-.15.255-.363.255-.636a.858.858 0 0 0-.15-.509.698.698 0 0 0-.395-.279c-.105-.028-.3-.042-.584-.042h-1.21v1.692zM-28.973 234.824h.626v2.734c0 .476-.054.854-.162 1.133-.107.28-.302.508-.583.683-.281.176-.649.264-1.105.264-.443 0-.806-.077-1.088-.229a1.309 1.309 0 0 1-.604-.663c-.121-.29-.181-.686-.181-1.187v-2.734h.626v2.731c0 .411.038.714.115.908.076.195.208.345.394.45s.414.158.683.158c.46 0 .789-.104.985-.313.196-.209.293-.61.293-1.204v-2.731zM-27.33 239.557v-4.732h.626v4.174h2.331v.559h-2.957zM-23.841 238.036l.591-.052c.028.237.093.432.195.583s.261.274.476.368.458.14.726.14c.239 0 .45-.035.633-.106a.866.866 0 0 0 .408-.292.678.678 0 0 0 .134-.405.62.62 0 0 0-.129-.389c-.086-.11-.228-.204-.426-.279a8.443 8.443 0 0 0-.843-.23c-.435-.104-.739-.203-.914-.296a1.28 1.28 0 0 1-.505-.44 1.076 1.076 0 0 1-.167-.589c0-.239.068-.462.204-.67s.333-.365.594-.473.55-.161.869-.161c.351 0 .66.056.928.169.268.113.474.279.618.499s.222.468.232.745l-.6.046c-.033-.3-.142-.525-.328-.678-.187-.153-.461-.229-.825-.229-.378 0-.654.069-.828.208s-.26.307-.26.502c0 .17.061.31.184.42.121.109.436.222.944.337s.858.216 1.047.302c.275.127.479.288.61.482.131.195.197.42.197.674 0 .251-.072.488-.216.711s-.351.396-.621.521a2.18 2.18 0 0 1-.912.186c-.428 0-.787-.063-1.077-.188s-.516-.313-.681-.563a1.635 1.635 0 0 1-.258-.853zM-19.205 239.557v-4.732h3.421v.559h-2.795v1.449h2.618v.556h-2.618v1.61h2.905v.559h-3.531z"/></g><g><path d="M-33.372 247.76v-4.174h-1.559v-.559h3.751v.559h-1.565v4.174h-.627zM-30.525 247.76v-4.732h3.421v.559h-2.795v1.449h2.618v.556h-2.618v1.61h2.905v.559h-3.531zM-26.147 247.76v-4.732h.942l1.12 3.351c.104.313.179.546.226.701.054-.173.138-.426.252-.759l1.133-3.293h.842v4.732h-.604v-3.961l-1.375 3.961h-.565l-1.369-4.028v4.028h-.602zM-20.621 247.76v-4.732h1.785c.314 0 .554.016.72.046.232.038.427.112.584.221s.284.261.379.457c.096.195.144.411.144.646 0 .402-.128.743-.384 1.021-.256.278-.719.418-1.388.418h-1.214v1.924h-.626zm.626-2.483h1.224c.404 0 .691-.075.862-.226.17-.15.255-.363.255-.636a.858.858 0 0 0-.15-.509.698.698 0 0 0-.395-.279c-.105-.028-.3-.042-.584-.042h-1.21v1.692zM-16.973 247.76v-.662h.662v.662h-.662z"/></g><g><path d="M-30.381 255.246v-4.732h1.775c.361 0 .651.048.87.144s.39.243.513.442c.124.199.186.407.186.625 0 .202-.055.393-.165.571a1.175 1.175 0 0 1-.497.433c.286.084.506.227.66.429.154.203.231.441.231.717 0 .222-.047.428-.141.618-.093.19-.209.338-.347.44a1.43 1.43 0 0 1-.518.234 3.14 3.14 0 0 1-.764.079h-1.803zm.626-2.744h1.023c.277 0 .477-.018.597-.055.159-.047.279-.126.36-.235s.121-.247.121-.413a.764.764 0 0 0-.113-.415.572.572 0 0 0-.323-.245c-.14-.044-.38-.066-.72-.066h-.946v1.429zm0 2.186h1.178c.202 0 .344-.008.426-.022.144-.025.265-.068.361-.129s.176-.148.239-.264a.813.813 0 0 0 .094-.398.785.785 0 0 0-.136-.46.708.708 0 0 0-.376-.274c-.16-.053-.391-.079-.692-.079h-1.094v1.626zM-26.456 255.327l1.372-4.894h.465l-1.369 4.894h-.468zM-24.109 255.246v-4.732h1.785c.314 0 .554.016.72.046.232.038.427.112.584.221s.284.261.379.457c.096.195.144.411.144.646 0 .402-.128.743-.384 1.021-.256.278-.719.418-1.388.418h-1.214v1.924h-.626zm.626-2.482h1.224c.404 0 .691-.075.862-.226.17-.15.255-.363.255-.636a.858.858 0 0 0-.15-.509.698.698 0 0 0-.395-.279c-.105-.028-.3-.042-.584-.042h-1.21v1.692z"/></g><path fill="#FFF" d="M56.747 176.634h12.345v6.45H56.747zM55.79 191.688h12.346v6.45H55.79zM55.394 207.059h12.424v6.451H55.394zM55.075 222.433h12.344v6.449H55.075zM54.755 237.805h12.347v6.449H54.755zM54.358 253.177h12.344v6.451H54.358z"/><g><path d="M59.929 182.209h-.581v-3.702c-.14.133-.323.267-.55.4a3.952 3.952 0 0 1-.612.3v-.562c.325-.153.609-.338.852-.556.243-.217.416-.428.517-.633h.375v4.753zM61.418 179.875c0-.56.058-1.01.173-1.351.115-.341.286-.604.513-.789.227-.186.513-.278.857-.278.254 0 .477.052.668.153.192.103.35.25.475.442.125.193.223.428.294.704.071.276.106.649.106 1.118 0 .556-.057 1.004-.171 1.345-.114.341-.285.604-.512.791-.227.186-.514.279-.86.279-.456 0-.814-.164-1.075-.491-.313-.393-.468-1.034-.468-1.923zm.597 0c0 .777.091 1.294.273 1.551.182.258.406.386.673.386s.491-.129.673-.387c.182-.259.273-.775.273-1.55 0-.779-.091-1.296-.273-1.553-.182-.256-.408-.384-.679-.384a.744.744 0 0 0-.639.339c-.201.288-.301.822-.301 1.598zM65.094 179.875c0-.56.058-1.01.173-1.351.115-.341.286-.604.513-.789.227-.186.513-.278.857-.278.254 0 .477.052.668.153.192.103.35.25.475.442.125.193.223.428.294.704.071.276.106.649.106 1.118 0 .556-.057 1.004-.171 1.345-.114.341-.285.604-.512.791-.227.186-.514.279-.86.279-.456 0-.814-.164-1.075-.491-.312-.393-.468-1.034-.468-1.923zm.597 0c0 .777.091 1.294.273 1.551.182.258.406.386.673.386s.491-.129.673-.387c.182-.259.273-.775.273-1.55 0-.779-.091-1.296-.273-1.553-.182-.256-.408-.384-.679-.384a.744.744 0 0 0-.639.339c-.201.288-.301.822-.301 1.598zM60.467 195.095c-.241-.088-.419-.214-.536-.378a.987.987 0 0 1-.174-.587c0-.345.124-.634.371-.868s.577-.353.988-.353c.413 0 .746.12.998.36.251.24.377.532.377.876 0 .22-.058.411-.173.573-.115.163-.29.288-.524.376.291.095.512.248.664.459.151.211.228.462.228.755 0 .404-.143.744-.429 1.021-.287.275-.663.413-1.13.413-.467 0-.844-.139-1.13-.415s-.429-.621-.429-1.034c0-.309.078-.565.234-.773.154-.208.376-.35.665-.425zm-.304 1.201c0 .166.039.326.118.48a.833.833 0 0 0 .35.36c.155.085.322.127.5.127.277 0 .507-.089.688-.268s.271-.405.271-.681a.93.93 0 0 0-.279-.694.958.958 0 0 0-.699-.274.926.926 0 0 0-.949.95zm.187-2.186c0 .224.072.407.216.549s.332.213.562.213a.75.75 0 0 0 .55-.211.699.699 0 0 0 .215-.519.75.75 0 0 0-.771-.755.756.756 0 0 0-.552.213.687.687 0 0 0-.22.51zM63.249 195.327c0-.56.058-1.01.173-1.351.115-.341.286-.604.513-.789.227-.186.513-.278.857-.278.254 0 .477.052.668.153.192.103.35.25.475.442.125.193.223.428.294.704.071.276.106.649.106 1.118 0 .556-.057 1.004-.171 1.345-.114.341-.285.604-.512.791-.227.186-.514.279-.86.279-.456 0-.814-.164-1.075-.491-.312-.393-.468-1.034-.468-1.923zm.597 0c0 .777.091 1.294.273 1.551.182.258.406.386.673.386s.491-.129.673-.387c.182-.259.273-.775.273-1.55 0-.779-.091-1.296-.273-1.553-.182-.256-.408-.384-.679-.384a.744.744 0 0 0-.639.339c-.2.289-.301.822-.301 1.598zM62.587 209.46l-.578.045c-.052-.228-.125-.394-.219-.497a.768.768 0 0 0-.581-.248.808.808 0 0 0-.488.154 1.32 1.32 0 0 0-.432.585c-.105.256-.161.62-.165 1.094.14-.213.311-.371.513-.475.203-.104.415-.154.636-.154.387 0 .717.143.989.428s.408.653.408 1.105c0 .297-.064.572-.192.827a1.39 1.39 0 0 1-.528.586 1.439 1.439 0 0 1-.762.204c-.484 0-.879-.179-1.185-.534-.306-.356-.458-.943-.458-1.762 0-.914.169-1.579.507-1.994.295-.361.692-.543 1.191-.543.373 0 .677.104.916.313.238.21.381.498.428.866zm-2.372 2.04c0 .2.042.392.128.574.085.184.204.322.356.418s.313.144.481.144a.82.82 0 0 0 .633-.297c.176-.197.265-.467.265-.807 0-.327-.087-.585-.262-.773a.86.86 0 0 0-.658-.282.9.9 0 0 0-.668.282c-.184.188-.275.435-.275.741zM63.249 210.699c0-.56.058-1.01.173-1.351.115-.341.286-.604.513-.789.227-.186.513-.278.857-.278.254 0 .477.052.668.153.192.103.35.25.475.442.125.193.223.428.294.704.071.276.106.649.106 1.118 0 .556-.057 1.004-.171 1.345-.114.341-.285.604-.512.791-.227.186-.514.279-.86.279-.456 0-.814-.164-1.075-.491-.312-.393-.468-1.034-.468-1.923zm.597 0c0 .777.091 1.294.273 1.551.182.258.406.386.673.386s.491-.129.673-.387c.182-.259.273-.775.273-1.55 0-.779-.091-1.296-.273-1.553-.182-.256-.408-.384-.679-.384a.744.744 0 0 0-.639.339c-.2.289-.301.822-.301 1.598z"/><g><path d="M61.435 228.485v-1.133h-2.053v-.533l2.16-3.066h.474v3.066h.639v.533h-.639v1.133h-.581zm0-1.666v-2.133l-1.481 2.133h1.481zM63.249 226.151c0-.56.058-1.01.173-1.351.115-.341.286-.604.513-.789.227-.186.513-.278.857-.278.254 0 .477.052.668.153.192.103.35.25.475.442.125.193.223.428.294.704.071.276.106.649.106 1.118 0 .556-.057 1.004-.171 1.345-.114.341-.285.604-.512.791-.227.186-.514.279-.86.279-.456 0-.814-.164-1.075-.491-.312-.392-.468-1.034-.468-1.923zm.597 0c0 .777.091 1.294.273 1.551.182.258.406.386.673.386s.491-.129.673-.387c.182-.259.273-.775.273-1.55 0-.779-.091-1.296-.273-1.553-.182-.256-.408-.384-.679-.384a.744.744 0 0 0-.639.339c-.2.289-.301.822-.301 1.598z"/></g><g><path d="M62.626 243.379v.559h-3.128c-.004-.14.018-.274.068-.403.08-.213.207-.423.382-.63.175-.206.429-.445.76-.717.514-.421.862-.756 1.042-1.002s.271-.479.271-.698c0-.23-.083-.425-.247-.583s-.379-.237-.644-.237c-.28 0-.503.084-.671.252s-.253.4-.255.697l-.597-.062c.041-.445.194-.785.461-1.019.267-.233.625-.351 1.075-.351.454 0 .813.126 1.078.378.265.252.397.564.397.937 0 .189-.039.375-.116.559-.078.183-.206.375-.386.577s-.479.48-.896.833c-.349.293-.572.491-.671.596s-.181.209-.245.314h2.322zM63.249 241.604c0-.56.058-1.01.173-1.351.115-.341.286-.604.513-.789.227-.186.513-.278.857-.278.254 0 .477.052.668.153.192.103.35.25.475.442.125.193.223.428.294.704.071.276.106.649.106 1.118 0 .556-.057 1.004-.171 1.345-.114.341-.285.604-.512.791-.227.186-.514.279-.86.279-.456 0-.814-.164-1.075-.491-.312-.393-.468-1.035-.468-1.923zm.597 0c0 .777.091 1.294.273 1.551.182.258.406.386.673.386s.491-.129.673-.387c.182-.259.273-.775.273-1.55 0-.779-.091-1.296-.273-1.553-.182-.256-.408-.384-.679-.384a.744.744 0 0 0-.639.339c-.2.288-.301.821-.301 1.598z"/></g><g><path d="M61.404 256.976c0-.56.058-1.01.173-1.351.115-.341.286-.604.513-.789.227-.186.513-.278.857-.278.254 0 .477.052.668.153.192.103.35.25.475.442.125.193.223.428.294.704.071.276.106.649.106 1.118 0 .556-.057 1.004-.171 1.345-.114.341-.285.604-.512.791-.227.186-.514.279-.86.279-.456 0-.814-.164-1.075-.491-.312-.393-.468-1.035-.468-1.923zm.597 0c0 .777.091 1.294.273 1.551.182.258.406.386.673.386s.491-.129.673-.387c.182-.259.273-.775.273-1.55 0-.779-.091-1.296-.273-1.553-.182-.256-.408-.384-.679-.384a.744.744 0 0 0-.639.339c-.201.288-.301.821-.301 1.598z"/></g></g><g><path d="M45.679 217.625l.732.186c-.153.601-.43 1.06-.828 1.375s-.886.474-1.462.474c-.596 0-1.081-.122-1.454-.364-.374-.243-.658-.595-.853-1.055s-.292-.954-.292-1.482c0-.576.11-1.078.33-1.507s.533-.755.939-.978.853-.334 1.341-.334c.553 0 1.019.142 1.396.423s.64.678.789 1.188l-.721.17c-.128-.402-.314-.695-.558-.879-.244-.184-.551-.275-.92-.275-.425 0-.781.102-1.066.305a1.616 1.616 0 0 0-.602.821 3.293 3.293 0 0 0-.174 1.062c0 .471.069.881.206 1.231.137.352.35.613.64.787.289.173.602.26.939.26.41 0 .757-.118 1.041-.354s.477-.588.577-1.054zM46.973 217.562c0-.742.207-1.292.619-1.648.345-.297.765-.445 1.26-.445.551 0 1.001.181 1.351.541.35.361.524.859.524 1.496 0 .516-.078.921-.232 1.217-.155.295-.38.524-.675.688a1.972 1.972 0 0 1-.968.245c-.561 0-1.014-.18-1.36-.54-.346-.36-.519-.878-.519-1.554zm.699 0c0 .513.112.897.335 1.152.224.255.506.383.845.383.337 0 .617-.128.841-.385.224-.257.335-.647.335-1.173 0-.496-.112-.871-.337-1.127a1.075 1.075 0 0 0-.839-.383c-.339 0-.621.127-.845.382-.224.254-.335.637-.335 1.151zM51.523 219.564v-4.006h.611v.569c.294-.44.719-.66 1.275-.66.241 0 .463.043.666.13.202.087.354.2.455.342.101.141.171.308.211.501.025.126.038.347.038.66v2.464H54.1v-2.437c0-.277-.026-.484-.079-.621a.657.657 0 0 0-.281-.328.893.893 0 0 0-.474-.123c-.289 0-.539.092-.749.275s-.315.532-.315 1.045v2.188h-.679zM57.302 218.957l.098.6c-.191.04-.362.061-.513.061-.246 0-.438-.039-.573-.117a.65.65 0 0 1-.287-.308c-.055-.127-.083-.394-.083-.801v-2.306h-.498v-.527h.498v-.992l.675-.408v1.4h.683v.527h-.683v2.343c0 .194.012.318.036.374a.287.287 0 0 0 .117.132.458.458 0 0 0 .232.049c.075-.001.175-.009.298-.027zM57.959 219.564v-4.006h.611v.606c.156-.284.3-.471.432-.562a.75.75 0 0 1 .436-.136c.229 0 .461.073.698.219l-.234.63a.972.972 0 0 0-.498-.147.65.65 0 0 0-.4.134.725.725 0 0 0-.253.372 2.627 2.627 0 0 0-.113.792v2.098h-.679zM63.154 219.07a2.548 2.548 0 0 1-.726.453 2.1 2.1 0 0 1-.749.132c-.44 0-.778-.107-1.015-.323a1.064 1.064 0 0 1-.354-.824 1.124 1.124 0 0 1 .485-.928c.145-.098.307-.172.488-.223.133-.035.334-.069.604-.102.548-.065.952-.144 1.211-.234l.004-.177c0-.276-.064-.472-.192-.585-.173-.153-.432-.23-.773-.23-.319 0-.555.057-.708.168-.152.112-.265.311-.337.595l-.664-.091c.061-.284.16-.514.298-.688a1.29 1.29 0 0 1 .6-.403c.262-.095.564-.142.909-.142.342 0 .62.04.833.12.214.081.371.183.472.304.101.122.171.276.211.463.022.115.034.324.034.626v.905c0 .631.015 1.03.043 1.197.029.168.086.328.172.481h-.709a1.395 1.395 0 0 1-.137-.494zm-.057-1.516c-.247.101-.616.187-1.109.257-.279.04-.477.085-.592.136a.588.588 0 0 0-.362.543c0 .181.068.332.206.453.137.12.338.181.602.181.262 0 .495-.058.698-.172s.353-.271.449-.47c.073-.153.109-.38.109-.679v-.249zM67.45 218.097l.668.087c-.073.46-.26.82-.561 1.081-.3.26-.669.391-1.107.391-.548 0-.989-.18-1.322-.538-.333-.358-.5-.872-.5-1.541 0-.433.072-.811.215-1.136.144-.324.362-.567.655-.729s.612-.243.956-.243c.435 0 .791.109 1.068.33.276.22.454.532.532.938l-.66.102c-.063-.269-.174-.472-.334-.607s-.353-.203-.579-.203c-.342 0-.62.122-.834.367s-.321.634-.321 1.164c0 .538.104.93.31 1.173.206.244.475.366.807.366a.954.954 0 0 0 .668-.245c.178-.166.291-.417.339-.757zM70.181 218.957l.098.6c-.191.04-.362.061-.513.061-.246 0-.438-.039-.573-.117a.65.65 0 0 1-.287-.308c-.055-.127-.083-.394-.083-.801v-2.306h-.498v-.527h.498v-.992l.675-.408v1.4h.683v.527h-.683v2.343c0 .194.012.318.036.374a.287.287 0 0 0 .117.132.458.458 0 0 0 .232.049 2.32 2.32 0 0 0 .298-.027zM70.849 214.815v-.781h.679v.781h-.679zm0 4.749v-4.006h.679v4.006h-.679zM72.309 217.562c0-.742.207-1.292.619-1.648.345-.297.765-.445 1.26-.445.551 0 1.001.181 1.351.541.35.361.524.859.524 1.496 0 .516-.078.921-.232 1.217-.155.295-.38.524-.675.688a1.972 1.972 0 0 1-.968.245c-.561 0-1.014-.18-1.36-.54-.346-.36-.519-.878-.519-1.554zm.698 0c0 .513.112.897.335 1.152.224.255.506.383.845.383.337 0 .617-.128.841-.385.224-.257.335-.647.335-1.173 0-.496-.112-.871-.337-1.127a1.075 1.075 0 0 0-.839-.383c-.339 0-.621.127-.845.382-.223.254-.335.637-.335 1.151zM76.859 219.564v-4.006h.611v.569c.294-.44.719-.66 1.275-.66.241 0 .463.043.666.13.202.087.354.2.455.342.101.141.171.308.211.501.025.126.038.347.038.66v2.464h-.679v-2.437c0-.277-.026-.484-.079-.621a.657.657 0 0 0-.281-.328.893.893 0 0 0-.474-.123c-.289 0-.539.092-.749.275s-.315.532-.315 1.045v2.188h-.679zM80.884 218.368l.671-.105c.038.27.143.476.315.619s.413.215.723.215c.312 0 .543-.063.694-.19s.227-.276.227-.447a.413.413 0 0 0-.2-.362c-.093-.061-.324-.137-.694-.229-.498-.126-.843-.234-1.036-.326s-.338-.22-.438-.382a1.001 1.001 0 0 1-.149-.537c0-.179.041-.344.123-.496.082-.152.193-.278.333-.379.106-.078.25-.145.432-.198.182-.054.378-.081.586-.081.314 0 .59.045.828.136s.413.213.526.368c.113.154.191.361.234.62l-.664.091a.73.73 0 0 0-.262-.483c-.145-.115-.349-.173-.613-.173-.312 0-.535.051-.668.154s-.2.224-.2.362c0 .088.027.167.083.237a.6.6 0 0 0 .26.182c.068.024.268.083.6.173.48.129.815.233 1.005.315s.339.2.447.356c.108.156.162.35.162.581 0 .227-.066.439-.198.64-.132.199-.322.354-.571.464s-.531.164-.845.164c-.521 0-.917-.108-1.19-.325-.271-.218-.446-.538-.521-.964z"/></g><path fill="none" stroke="#000" stroke-width=".5" d="M38.189 216.378l-8.283 5.893M86.776 216.619l15.609 6.211"/><path fill="none" stroke="#000" stroke-width="1" d="M-15.255 240.829c.396-1.271.078-1.513.796-.16.239.641 1.035-1.991 1.035-1.033 0 3.744 1.513-1.595 2.31.158 1.593 3.107 2.389-3.663 2.389.799 0 1.432.558-.321.558-1.035 0-1.99 1.753 1.112 1.753 1.353 0 0 1.194-2.23 1.194-2.869 0-1.432 1.035 4.383 1.432 2.552.08-.799 1.594-4.939 1.594-4.939 0 4.46.958-.236 1.035-1.834.48-3.903.64-1.432.876.639.24 1.673 1.593-4.141 1.752-5.019.08-.558-.955 4.222 1.194.478.159-.478 1.115-4.06 1.115-3.502 0 5.496 1.432-5.418 2.629-1.274.636 2.71 1.59-1.513 1.832-2.946.159-.558 1.194 4.938 1.194-.558 0 0 .478-1.675.478-1.194 1.115 6.291-.876-6.533 1.992-.958 1.113 2.391 1.514-6.212 2.309-2.07.716 3.583 1.433-1.275 1.674-.639 1.035 2.628 1.035-.157 1.99-1.114.558-.639.48.478.876 1.355 1.195 2.391.159-2.869 2.23.236.64.956 2.232-3.743 2.232.4 1.673-2.149 1.75 1.271 1.75 2.945 0 .16.958-1.433.958-1.114 0 2.23.159 3.105 1.275 1.913.159-.161.236 2.944.396 3.184.319.638 1.354-3.345 1.354-.479 0 .319.239 1.113.399 1.514.478 1.354 1.035-2.148 1.753 2.548.716 4.782.716-2.228 1.592.718.237.957.478 2.07.876 2.788 1.271 2.709-.239.638.558-1.192.478-.878 1.273 2.945 1.273 3.583 0 3.105 1.275-1.913 1.275 0 0 .639.718 2.23.955 2.628.159.396.64-2.391.799-2.23.159.16.716 2.627.876 3.105.078.557.718-1.753.955-1.514.159.237.876 3.505 1.275 2.31 1.272-3.904 1.035 3.184 2.229.716.638-1.433.478-1.273 1.035 0 .078.319 1.194 1.515 1.194 1.832.24-.875.558-2.626 1.117-1.513 2.147 4.381 1.194-3.345 3.501 1.433.718 1.516 1.593-.717 1.992-1.752.236-.716 1.354 1.035 1.434 1.354.478 1.113.796-.875 1.271-1.354.877-.796.717 3.025 2.23.717.159-.237.48-.877.64-.717l1.113 1.515c1.195 1.674 1.275-3.184 2.23.237.48 1.593 1.275-.797 1.516-1.675.159-.317 0 .162.395.718 1.834 3.266 1.992-2.948 3.506.238 1.194 2.311 1.035.556 1.593-.716.159-.24.717 3.026 1.99.396.876-1.753 1.115 3.585 1.434 2.23 1.194-5.098 1.672 1.354 2.947-1.195.957-1.992 1.035-2.388 2.311.238.876 1.753 1.195-.718 1.673-1.513.239-.399.958 2.07 1.035 2.548.24-.319 1.434-2.788 1.672-2.467 2.552 3.983 1.035-.558 3.108.478 1.114.479 1.751.236 3.107-1.035.078-.159.796 2.07 1.113 1.515 1.752-2.552 2.869 2.07 2.869-2.15 0-1.114.159-1.355.396-2.15.477-1.431.876-.955 1.353.558.08.479 1.115-2.391 1.115-2.468.159-.957.478-.716.478-2.788 0-3.026 1.911 2.788 2.71-1.271.478-2.869 1.194 1.035 2.07-1.118 2.148-4.536 1.195-.236 2.948-3.819.396-.717 1.75-2.947 2.229-1.674.717 1.753.955 0 1.431-1.116.08-.477.321-3.424.321-.956 0 .319.875-1.992.875-4.381 0-1.991 1.514.24 1.514.639.558-1.674 1.593-4.698 1.593-.715 0 1.433 1.273-2.948 2.149-1.195 1.115 2.468 1.354 0 2.469-1.035.399-.48 1.035 2.468 1.593 2.468 1.195 0 1.035-3.663 1.753-1.674 1.99 5.178 1.99-2.788 3.265 2.388 0 .321.637 2.311.718 2.471.478.396 1.194-2.628 1.271-1.913.159.557 1.434 4.539 1.434 4.222.558-3.665.716-3.184 1.434-.319.556 2.55 0 .799 1.114-.398.239-.236.958 2.552.958 3.427 0 2.467.957-1.514.957-1.433.478 1.433 1.194 6.451 1.991 3.027.478-2.07 1.753 2.232 1.753 3.186 0 .716 0 1.911.555.957 1.434-2.15 1.515 2.07 1.515 3.346 0 2.228 2.148-3.028 2.148 2.149 1.275-2.23 2.23-2.47 2.23.078 0 .718.558 1.99 1.035.878.716-1.755 1.194-.16 1.194.875 0 .718 1.356-1.115 1.356-1.272.159-.24.956 1.673 1.353 1.99 0 0 .237 1.195.319 1.195.796 0 1.672-3.429 1.99-1.435 0 .16.958 2.23.958 2.23.317-.479 1.114-3.267 1.513-2.468 0 0 .958 2.149 1.035 2.149 0 0 .958-1.752 1.035-1.912.478-.715 1.194 3.108 1.912 1.435.478-1.035.799-1.913 1.513-.798.48.638.321 1.272.799 0 .236-.718 2.23 2.868 3.184 2.868"/></g><g><path d="M316.447 169.923c.19-.158.381-.276.571-.356.189-.079.378-.118.563-.118.42 0 .768.144 1.041.43.274.287.412.673.412 1.158 0 .626-.204 1.163-.611 1.611-.353.385-.78.577-1.283.577-.457 0-.839-.168-1.145-.504s-.458-.814-.458-1.436c0-.556.098-1.131.294-1.724.15-.455.338-.831.561-1.126.222-.296.458-.513.709-.651.25-.138.532-.207.847-.207.377 0 .686.117.924.353.239.235.375.571.408 1.009l-.634.061c-.035-.299-.12-.516-.255-.648a.671.671 0 0 0-.492-.2c-.204 0-.409.079-.615.237s-.384.394-.532.704-.25.587-.305.83zm-.238 1.652c0 .313.097.574.291.787.193.213.412.318.656.318.171 0 .352-.064.543-.194.191-.129.354-.326.486-.59.134-.265.2-.527.2-.789 0-.337-.093-.606-.277-.809s-.408-.304-.669-.304c-.303 0-.583.147-.842.443-.258.296-.388.676-.388 1.138zM319.71 171.862l.642-.064c.043.31.131.53.264.66a.656.656 0 0 0 .476.196c.262 0 .504-.113.728-.339.33-.332.572-.809.729-1.43a2.87 2.87 0 0 1-.609.365 1.414 1.414 0 0 1-.545.109 1.36 1.36 0 0 1-.905-.339c-.353-.295-.528-.717-.528-1.268 0-.624.204-1.158.611-1.604.35-.383.778-.573 1.286-.573.458 0 .838.169 1.14.507.302.339.452.817.452 1.436 0 .602-.101 1.194-.302 1.78-.238.689-.562 1.197-.97 1.524-.331.267-.705.4-1.12.4-.382 0-.694-.119-.938-.356-.244-.236-.381-.571-.411-1.004zm.909-2.187c0 .347.093.623.277.829.185.207.404.31.658.31a.991.991 0 0 0 .563-.192c.186-.128.346-.32.479-.575.134-.255.2-.518.2-.786 0-.212-.044-.408-.132-.589s-.208-.317-.36-.409-.307-.138-.462-.138c-.151 0-.3.04-.445.12a1.374 1.374 0 0 0-.405.355c-.125.155-.218.335-.279.537s-.094.382-.094.538z"/><g fill="none" stroke-width=".5"><g stroke="#808285"><path d="M174.787 178.943l192.83-.239M174.787 186.75l192.83-.321M174.787 194.474l192.83-.24M174.787 202.279l192.83-.317M174.787 210.005l192.83-.236M174.787 217.812l192.83-.318M174.787 225.618l192.83-.318M174.787 233.343l192.83-.318M174.787 241.148l192.83-.319M174.787 248.874l192.83-.318M174.787 256.68l192.83-.318"/></g><path stroke="#000" d="M193.027 178.943v77.419"/><path stroke="#808285" d="M202.744 178.943v77.419M212.46 178.943v77.419M222.097 178.943v77.419M231.815 178.943v77.419M241.533 178.943v77.419M251.251 178.943v77.419M260.969 178.943v77.419M270.604 178.943v77.419M280.321 178.943v77.419M290.039 178.943v77.419M299.758 178.943v77.419M309.475 178.943v77.419M319.111 178.943v77.419M328.828 178.943v77.419M338.546 178.943v77.419M348.263 178.943v77.419M357.899 178.943v77.419M367.617 178.943v77.419"/></g><path d="M173.608 184.996v-4.732h.943l1.12 3.351c.103.313.178.546.226.701.054-.173.138-.426.252-.759l1.133-3.293h.843v4.732h-.604v-3.961l-1.376 3.961h-.564l-1.368-4.028v4.028h-.605zM179.147 184.996v-4.732h3.422v.559h-2.795v1.449h2.617v.556h-2.617v1.61h2.905v.559h-3.532zM183.544 184.996v-4.732h1.63c.368 0 .649.022.843.068.271.063.503.175.694.339.249.211.437.48.56.809.124.328.186.703.186 1.125 0 .359-.042.678-.125.955-.084.277-.192.508-.323.689s-.275.325-.431.429c-.156.104-.345.184-.565.237s-.474.081-.76.081h-1.709zm.627-.558h1.01c.313 0 .557-.029.734-.087.178-.059.319-.14.425-.245.148-.148.264-.349.347-.599.083-.251.124-.555.124-.912 0-.495-.081-.876-.243-1.142-.163-.266-.36-.443-.593-.534-.168-.064-.438-.097-.81-.097h-.994v3.616zM188.105 183.476l.591-.052c.028.237.093.432.195.583s.261.274.477.368c.215.094.457.14.726.14.239 0 .45-.035.633-.106a.866.866 0 0 0 .408-.292.672.672 0 0 0 .134-.405.62.62 0 0 0-.129-.389c-.086-.11-.228-.204-.426-.279-.127-.049-.408-.126-.843-.23s-.739-.203-.913-.296a1.277 1.277 0 0 1-.506-.44 1.084 1.084 0 0 1-.166-.589c0-.239.068-.462.203-.67.136-.208.334-.365.595-.473.26-.107.55-.161.868-.161.351 0 .66.056.928.169s.474.279.618.499.222.468.232.745l-.601.046c-.032-.3-.142-.525-.327-.678-.187-.153-.461-.229-.825-.229-.379 0-.654.069-.828.208-.173.139-.26.307-.26.502 0 .17.062.31.185.42.12.109.435.222.944.337.509.115.857.216 1.047.302.275.127.479.288.61.482.131.195.197.42.197.674 0 .251-.072.488-.217.711s-.352.396-.621.521a2.18 2.18 0 0 1-.912.186c-.429 0-.787-.063-1.076-.188a1.514 1.514 0 0 1-.682-.563 1.633 1.633 0 0 1-.259-.853zM178.883 192.482v-4.732h1.63c.368 0 .649.022.843.068.271.063.503.175.694.339.249.211.437.48.56.809.124.328.186.703.186 1.125 0 .359-.042.678-.125.955-.084.277-.192.508-.323.689s-.275.325-.431.429c-.156.104-.345.184-.565.237s-.474.081-.76.081h-1.709zm.627-.558h1.01c.313 0 .557-.029.734-.087.178-.059.319-.14.425-.245.148-.148.264-.349.347-.599.083-.251.124-.555.124-.912 0-.495-.081-.876-.243-1.142-.163-.266-.36-.443-.593-.534-.168-.064-.438-.097-.81-.097h-.994v3.616zM183.632 192.482v-4.732h.626v4.174h2.331v.559h-2.957zM176.905 199.891v-4.732h3.422v.559h-2.795v1.449h2.617v.556h-2.617v1.61h2.905v.559h-3.532zM181.334 199.891v-4.732h3.192v.559h-2.565v1.466h2.221v.559h-2.221v2.149h-.627zM185.372 199.891v-4.732h3.192v.559h-2.565v1.466h2.221v.559h-2.221v2.149h-.627zM176.6 205.938l.591-.052c.028.237.093.432.195.583s.261.274.477.368c.215.094.457.14.726.14.239 0 .45-.035.633-.106a.866.866 0 0 0 .408-.292.672.672 0 0 0 .134-.405.62.62 0 0 0-.129-.389c-.086-.11-.228-.204-.426-.279-.127-.049-.408-.126-.843-.23s-.739-.203-.913-.296a1.277 1.277 0 0 1-.506-.44 1.084 1.084 0 0 1-.166-.589c0-.239.068-.462.203-.67.136-.208.334-.365.595-.473.26-.107.55-.161.868-.161.351 0 .66.056.928.169s.474.279.618.499.222.468.232.745l-.601.046c-.032-.3-.142-.525-.327-.678-.187-.153-.461-.229-.825-.229-.379 0-.654.069-.828.208-.173.139-.26.307-.26.502 0 .17.062.31.185.42.12.109.435.222.944.337.509.115.857.216 1.047.302.275.127.479.288.61.482.131.195.197.42.197.674 0 .251-.072.488-.217.711s-.352.396-.621.521a2.18 2.18 0 0 1-.912.186c-.429 0-.787-.063-1.076-.188a1.514 1.514 0 0 1-.682-.563 1.627 1.627 0 0 1-.259-.853zM182.427 207.459v-4.174h-1.559v-.559h3.751v.559h-1.566v4.174h-.626zM184.251 207.459l1.817-4.732h.675l1.937 4.732h-.713l-.553-1.434h-1.979l-.52 1.434h-.664zm1.365-1.943h1.604l-.494-1.311c-.15-.398-.263-.725-.335-.981a6.075 6.075 0 0 1-.256.904l-.519 1.388zM175.548 216.457v-4.732h2.099c.422 0 .742.043.962.128.219.085.395.235.525.45.132.215.197.453.197.713 0 .336-.108.619-.326.85-.217.23-.553.376-1.007.438.166.08.292.158.378.236.183.167.355.377.52.629l.823 1.288h-.788l-.626-.984c-.183-.284-.334-.502-.452-.652s-.224-.256-.317-.316a.959.959 0 0 0-.286-.126 1.908 1.908 0 0 0-.349-.022h-.727v2.102h-.626zm.626-2.644h1.347c.286 0 .51-.029.671-.089.162-.06.284-.154.368-.284s.126-.271.126-.425a.705.705 0 0 0-.244-.552c-.162-.144-.419-.216-.77-.216h-1.498v1.566zM180.122 214.152c0-.785.211-1.4.633-1.845s.967-.667 1.634-.667c.437 0 .83.104 1.181.313.352.209.618.5.803.873.184.373.275.797.275 1.271a2.8 2.8 0 0 1-.29 1.288 1.977 1.977 0 0 1-.823.859 2.35 2.35 0 0 1-1.149.293c-.445 0-.844-.108-1.194-.323s-.616-.509-.797-.881-.273-.766-.273-1.181zm.645.01c0 .57.153 1.02.46 1.348s.691.492 1.154.492c.472 0 .859-.166 1.164-.497.304-.331.456-.802.456-1.411 0-.385-.064-.721-.195-1.009-.13-.287-.32-.51-.571-.668a1.548 1.548 0 0 0-.844-.237c-.443 0-.825.152-1.145.457s-.479.812-.479 1.525zM185.434 216.457v-4.732h.943l1.12 3.351c.103.313.178.546.226.701.054-.173.138-.426.252-.759l1.133-3.293h.843v4.732h-.604v-3.961l-1.376 3.961h-.564l-1.368-4.028v4.028h-.605zM178.969 224.7v-4.741h.529v.445c.125-.175.266-.306.423-.393s.348-.131.571-.131c.293 0 .551.075.775.227.224.15.393.363.507.638.113.273.171.574.171.901 0 .352-.063.667-.189.948a1.435 1.435 0 0 1-1.306.87c-.193 0-.367-.041-.521-.122a1.203 1.203 0 0 1-.38-.311v1.669h-.58zm.526-3.008c0 .44.089.767.268.978s.396.316.649.316c.258 0 .479-.109.663-.327.184-.219.276-.558.276-1.016 0-.437-.09-.764-.27-.981-.18-.217-.395-.326-.645-.326-.247 0-.466.116-.656.348s-.285.567-.285 1.008zM182.739 223.387v-4.732h.626v1.943h2.46v-1.943h.626v4.732h-.626v-2.23h-2.46v2.23h-.626zM179.411 229.047c0-.785.211-1.4.633-1.845s.967-.667 1.634-.667c.437 0 .83.104 1.181.313.352.209.618.5.803.873.184.373.275.797.275 1.271a2.8 2.8 0 0 1-.29 1.288 1.977 1.977 0 0 1-.823.859 2.35 2.35 0 0 1-1.149.293c-.445 0-.844-.108-1.194-.323s-.616-.509-.797-.881-.273-.766-.273-1.181zm.645.01c0 .57.153 1.02.46 1.348s.691.492 1.154.492c.472 0 .859-.166 1.164-.497.304-.331.456-.802.456-1.411 0-.385-.064-.721-.195-1.009-.13-.287-.32-.51-.571-.668a1.548 1.548 0 0 0-.844-.237c-.443 0-.825.152-1.145.457s-.479.812-.479 1.525z"/><g><path d="M185.911 232.428v.275h-1.545a.497.497 0 0 1 .034-.199c.039-.105.102-.209.188-.312.087-.102.212-.22.376-.354.254-.208.426-.373.515-.495s.134-.236.134-.345c0-.114-.041-.21-.122-.288s-.188-.117-.318-.117c-.138 0-.248.041-.331.124s-.125.198-.126.345l-.295-.03c.02-.221.096-.388.228-.503s.309-.174.531-.174c.225 0 .401.063.532.188a.61.61 0 0 1 .196.462.687.687 0 0 1-.058.276c-.038.09-.102.185-.19.285-.089.1-.236.237-.442.411a5.34 5.34 0 0 0-.331.294.923.923 0 0 0-.122.156h1.146z"/></g><g><path d="M171.715 239.557v-4.732h1.785c.314 0 .555.016.72.046.232.038.428.112.585.221.156.108.283.261.379.457.096.195.144.411.144.646 0 .402-.128.743-.384 1.021-.257.278-.719.418-1.389.418h-1.213v1.924h-.627zm.627-2.483h1.223c.405 0 .692-.075.862-.226s.255-.363.255-.636a.858.858 0 0 0-.15-.509.697.697 0 0 0-.396-.279c-.105-.028-.3-.042-.584-.042h-1.21v1.692zM179.229 234.824h.626v2.734c0 .476-.054.854-.161 1.133-.107.28-.302.508-.583.683-.28.176-.649.264-1.105.264-.443 0-.806-.077-1.088-.229a1.317 1.317 0 0 1-.604-.663c-.12-.29-.181-.686-.181-1.187v-2.734h.626v2.731c0 .411.039.714.115.908.076.195.207.345.394.45s.414.158.683.158c.461 0 .789-.104.984-.313.196-.209.294-.61.294-1.204v-2.731zM180.873 239.557v-4.732h.626v4.174h2.331v.559h-2.957zM184.362 238.036l.591-.052c.028.237.093.432.195.583s.261.274.477.368c.215.094.457.14.726.14.239 0 .45-.035.633-.106a.866.866 0 0 0 .408-.292.672.672 0 0 0 .134-.405.62.62 0 0 0-.129-.389c-.086-.11-.228-.204-.426-.279-.127-.049-.408-.126-.843-.23s-.739-.203-.913-.296a1.277 1.277 0 0 1-.506-.44 1.084 1.084 0 0 1-.166-.589c0-.239.068-.462.203-.67.136-.208.334-.365.595-.473.26-.107.55-.161.868-.161.351 0 .66.056.928.169s.474.279.618.499.222.468.232.745l-.601.046c-.032-.3-.142-.525-.327-.678-.187-.153-.461-.229-.825-.229-.379 0-.654.069-.828.208-.173.139-.26.307-.26.502 0 .17.062.31.185.42.12.109.435.222.944.337.509.115.857.216 1.047.302.275.127.479.288.61.482.131.195.197.42.197.674 0 .251-.072.488-.217.711s-.352.396-.621.521a2.18 2.18 0 0 1-.912.186c-.429 0-.787-.063-1.076-.188a1.514 1.514 0 0 1-.682-.563 1.627 1.627 0 0 1-.259-.853zM188.997 239.557v-4.732h3.422v.559h-2.795v1.449h2.617v.556h-2.617v1.61h2.905v.559h-3.532z"/></g><g><path d="M174.832 247.76v-4.174h-1.559v-.559h3.751v.559h-1.566v4.174h-.626zM177.678 247.76v-4.732h3.422v.559h-2.795v1.449h2.617v.556h-2.617v1.61h2.905v.559h-3.532zM182.055 247.76v-4.732h.943l1.12 3.351c.103.313.178.546.226.701.054-.173.138-.426.252-.759l1.133-3.293h.843v4.732h-.604v-3.961l-1.376 3.961h-.564l-1.368-4.028v4.028h-.605zM187.582 247.76v-4.732h1.785c.314 0 .555.016.72.046.232.038.428.112.585.221.156.108.283.261.379.457.096.195.144.411.144.646 0 .402-.128.743-.384 1.021-.257.278-.719.418-1.389.418h-1.213v1.924h-.627zm.627-2.483h1.223c.405 0 .692-.075.862-.226s.255-.363.255-.636a.858.858 0 0 0-.15-.509.697.697 0 0 0-.396-.279c-.105-.028-.3-.042-.584-.042h-1.21v1.692zM191.23 247.76v-.662h.661v.662h-.661z"/></g><g><path d="M177.822 255.246v-4.732h1.775c.361 0 .651.048.87.144.218.096.389.243.513.442s.186.407.186.625c0 .202-.055.393-.164.571-.11.179-.275.322-.497.433.286.084.506.227.66.429.153.203.23.441.23.717 0 .222-.047.428-.141.618s-.209.338-.347.44a1.428 1.428 0 0 1-.519.234 3.132 3.132 0 0 1-.763.079h-1.803zm.626-2.744h1.023c.277 0 .477-.018.597-.055.159-.047.279-.126.36-.235s.121-.247.121-.413c0-.157-.038-.296-.113-.415s-.183-.201-.322-.245c-.141-.044-.38-.066-.72-.066h-.946v1.429zm0 2.186h1.179c.202 0 .344-.008.426-.022.144-.025.265-.068.361-.129s.177-.148.239-.264a.813.813 0 0 0 .094-.398.792.792 0 0 0-.136-.46.715.715 0 0 0-.376-.274c-.161-.053-.392-.079-.692-.079h-1.095v1.626zM181.747 255.327l1.372-4.894h.465l-1.369 4.894h-.468zM184.094 255.246v-4.732h1.785c.314 0 .555.016.72.046.232.038.428.112.585.221.156.108.283.261.379.457.096.195.144.411.144.646 0 .402-.128.743-.384 1.021-.257.278-.719.418-1.389.418h-1.213v1.924h-.627zm.626-2.482h1.223c.405 0 .692-.075.862-.226s.255-.363.255-.636a.858.858 0 0 0-.15-.509.697.697 0 0 0-.396-.279c-.105-.028-.3-.042-.584-.042h-1.21v1.692z"/></g><path fill="#FFF" d="M264.87 176.634h12.346v6.45H264.87zM263.916 191.688h12.425v6.45h-12.425zM263.597 207.059h12.342v6.451h-12.342zM263.276 222.433h12.346v6.449h-12.346zM262.88 237.805h12.343v6.449H262.88zM262.561 253.177h12.344v6.451h-12.344z"/><g><path d="M268.052 182.209h-.581v-3.702a2.98 2.98 0 0 1-.551.4 3.991 3.991 0 0 1-.611.3v-.562c.325-.153.609-.338.853-.556.243-.217.415-.428.517-.633h.374v4.753zM269.54 179.875c0-.56.058-1.01.173-1.351s.286-.604.513-.789c.228-.186.513-.278.857-.278.254 0 .477.052.668.153.191.103.35.25.475.442.125.193.223.428.294.704s.106.649.106 1.118c0 .556-.057 1.004-.171 1.345s-.285.604-.512.791c-.228.186-.514.279-.86.279-.456 0-.814-.164-1.075-.491-.312-.393-.468-1.034-.468-1.923zm.596 0c0 .777.092 1.294.273 1.551.182.258.406.386.673.386s.491-.129.673-.387c.182-.259.272-.775.272-1.55 0-.779-.091-1.296-.272-1.553-.182-.256-.408-.384-.68-.384a.745.745 0 0 0-.639.339c-.199.288-.3.822-.3 1.598zM273.217 179.875c0-.56.058-1.01.173-1.351s.286-.604.513-.789c.228-.186.513-.278.857-.278.254 0 .477.052.668.153.191.103.35.25.475.442.125.193.223.428.294.704s.106.649.106 1.118c0 .556-.057 1.004-.171 1.345s-.285.604-.512.791c-.228.186-.514.279-.86.279-.456 0-.814-.164-1.075-.491-.312-.393-.468-1.034-.468-1.923zm.596 0c0 .777.092 1.294.273 1.551.182.258.406.386.673.386s.491-.129.673-.387c.182-.259.272-.775.272-1.55 0-.779-.091-1.296-.272-1.553-.182-.256-.408-.384-.68-.384a.745.745 0 0 0-.639.339c-.199.288-.3.822-.3 1.598zM268.59 195.095c-.241-.088-.42-.214-.536-.378a.987.987 0 0 1-.175-.587c0-.345.124-.634.371-.868.248-.234.577-.353.988-.353.413 0 .746.12.997.36.252.24.378.532.378.876 0 .22-.058.411-.173.573-.115.163-.29.288-.524.376.291.095.512.248.663.459.152.211.228.462.228.755 0 .404-.143.744-.429 1.021-.286.275-.663.413-1.13.413s-.844-.139-1.13-.415-.43-.621-.43-1.034c0-.309.078-.565.234-.773s.379-.35.668-.425zm-.304 1.201c0 .166.039.326.118.48.078.155.194.275.35.36s.322.127.5.127a.937.937 0 0 0 .688-.268.915.915 0 0 0 .271-.681.93.93 0 0 0-.279-.694.955.955 0 0 0-.698-.274.923.923 0 0 0-.95.95zm.187-2.186c0 .224.071.407.216.549s.331.213.562.213c.224 0 .407-.07.551-.211a.703.703 0 0 0 .215-.519.72.72 0 0 0-.222-.537.75.75 0 0 0-.55-.218.76.76 0 0 0-.553.213.686.686 0 0 0-.219.51zM271.372 195.327c0-.56.058-1.01.173-1.351s.286-.604.513-.789c.228-.186.513-.278.857-.278.254 0 .477.052.668.153.191.103.35.25.475.442.125.193.223.428.294.704s.106.649.106 1.118c0 .556-.057 1.004-.171 1.345s-.285.604-.512.791c-.228.186-.514.279-.86.279-.456 0-.814-.164-1.075-.491-.312-.393-.468-1.034-.468-1.923zm.597 0c0 .777.092 1.294.273 1.551.182.258.406.386.673.386s.491-.129.673-.387c.182-.259.272-.775.272-1.55 0-.779-.091-1.296-.272-1.553-.182-.256-.408-.384-.68-.384a.745.745 0 0 0-.639.339c-.2.289-.3.822-.3 1.598zM270.71 209.46l-.577.045c-.052-.228-.125-.394-.22-.497a.768.768 0 0 0-.581-.248.801.801 0 0 0-.487.154 1.321 1.321 0 0 0-.433.585c-.105.256-.16.62-.165 1.094.14-.213.312-.371.514-.475s.414-.154.636-.154c.388 0 .717.143.989.428s.408.653.408 1.105c0 .297-.063.572-.192.827a1.394 1.394 0 0 1-.527.586 1.439 1.439 0 0 1-.762.204c-.484 0-.879-.179-1.185-.534-.306-.356-.458-.943-.458-1.762 0-.914.168-1.579.506-1.994.295-.361.692-.543 1.191-.543.372 0 .678.104.915.313.238.21.381.498.428.866zm-2.372 2.04c0 .2.042.392.127.574a.945.945 0 0 0 .357.418.887.887 0 0 0 .48.144.822.822 0 0 0 .633-.297c.177-.197.265-.467.265-.807 0-.327-.087-.585-.262-.773a.86.86 0 0 0-.658-.282.9.9 0 0 0-.668.282c-.184.188-.274.435-.274.741zM271.372 210.699c0-.56.058-1.01.173-1.351s.286-.604.513-.789c.228-.186.513-.278.857-.278.254 0 .477.052.668.153.191.103.35.25.475.442.125.193.223.428.294.704s.106.649.106 1.118c0 .556-.057 1.004-.171 1.345s-.285.604-.512.791c-.228.186-.514.279-.86.279-.456 0-.814-.164-1.075-.491-.312-.393-.468-1.034-.468-1.923zm.597 0c0 .777.092 1.294.273 1.551.182.258.406.386.673.386s.491-.129.673-.387c.182-.259.272-.775.272-1.55 0-.779-.091-1.296-.272-1.553-.182-.256-.408-.384-.68-.384a.745.745 0 0 0-.639.339c-.2.289-.3.822-.3 1.598z"/><g><path d="M269.557 228.485v-1.133h-2.053v-.533l2.159-3.066h.475v3.066h.64v.533h-.64v1.133h-.581zm0-1.666v-2.133l-1.481 2.133h1.481zM271.372 226.151c0-.56.058-1.01.173-1.351s.286-.604.513-.789c.228-.186.513-.278.857-.278.254 0 .477.052.668.153.191.103.35.25.475.442.125.193.223.428.294.704s.106.649.106 1.118c0 .556-.057 1.004-.171 1.345s-.285.604-.512.791c-.228.186-.514.279-.86.279-.456 0-.814-.164-1.075-.491-.312-.392-.468-1.034-.468-1.923zm.597 0c0 .777.092 1.294.273 1.551.182.258.406.386.673.386s.491-.129.673-.387c.182-.259.272-.775.272-1.55 0-.779-.091-1.296-.272-1.553-.182-.256-.408-.384-.68-.384a.745.745 0 0 0-.639.339c-.2.289-.3.822-.3 1.598z"/></g><g><path d="M270.749 243.379v.559h-3.128c-.005-.14.019-.274.067-.403a2.14 2.14 0 0 1 .383-.63c.176-.206.429-.445.76-.717.515-.421.862-.756 1.043-1.002s.271-.479.271-.698a.78.78 0 0 0-.247-.583c-.165-.158-.379-.237-.645-.237-.279 0-.503.084-.671.252s-.253.4-.255.697l-.598-.062c.041-.445.195-.785.462-1.019s.625-.351 1.075-.351c.454 0 .813.126 1.078.378s.396.564.396.937c0 .189-.038.375-.116.559-.077.183-.206.375-.386.577s-.478.48-.896.833a9.834 9.834 0 0 0-.671.596c-.1.104-.182.209-.246.314h2.324zM271.372 241.604c0-.56.058-1.01.173-1.351s.286-.604.513-.789c.228-.186.513-.278.857-.278.254 0 .477.052.668.153.191.103.35.25.475.442.125.193.223.428.294.704s.106.649.106 1.118c0 .556-.057 1.004-.171 1.345s-.285.604-.512.791c-.228.186-.514.279-.86.279-.456 0-.814-.164-1.075-.491-.312-.393-.468-1.035-.468-1.923zm.597 0c0 .777.092 1.294.273 1.551.182.258.406.386.673.386s.491-.129.673-.387c.182-.259.272-.775.272-1.55 0-.779-.091-1.296-.272-1.553-.182-.256-.408-.384-.68-.384a.745.745 0 0 0-.639.339c-.2.288-.3.821-.3 1.598z"/></g><g><path d="M269.608 256.976c0-.56.058-1.01.173-1.351s.286-.604.513-.789c.228-.186.513-.278.857-.278.254 0 .477.052.668.153.191.103.35.25.475.442.125.193.223.428.294.704s.106.649.106 1.118c0 .556-.057 1.004-.171 1.345s-.285.604-.512.791c-.228.186-.514.279-.86.279-.456 0-.814-.164-1.075-.491-.312-.393-.468-1.035-.468-1.923zm.597 0c0 .777.092 1.294.273 1.551.182.258.406.386.673.386s.491-.129.673-.387c.182-.259.272-.775.272-1.55 0-.779-.091-1.296-.272-1.553-.182-.256-.408-.384-.68-.384a.745.745 0 0 0-.639.339c-.2.288-.3.821-.3 1.598z"/></g></g><path fill="none" stroke="#000" stroke-width="1" d="M174.469 240.989c1.753.479 2.389 1.274 3.823 1.674 1.514.556.957-2.788 2.708-1.753 2.87 1.675 8.363-.079 11.946-.079 1.593 0 3.187.158 4.782.158 1.273 0 .717 1.113 1.513.32 1.116-1.112 3.983-1.99 4.939-1.035 2.229 2.23 2.946-2.468 4.857-.558 1.673 1.673 2.468.079 3.266-2.39 2.308-6.929 1.99.16 4.378-4.698.558-1.195 4.464-5.576 5.499-6.611 0-2.072 3.664-9.556 4.142-8.521 1.112 2.149 3.744-2.628 3.744-3.269 0-1.99 1.433 1.753 2.548-1.59 0-.078 5.18-1.275 5.34-1.195.637.715 1.751-.24 1.751-.875 0-1.99 2.391.395 3.586 1.59 1.111 1.114 1.513-.956 2.389-.555 0 0 .717 1.99 1.513 1.91 2.311-.32 4.782 1.913 4.782 2.87 0 2.867 2.708.797 2.708 1.591 0 4.143 2.31 1.515 2.469 3.105.397 2.39 3.183 5.658 3.183 6.053 0 .878 1.198 4.303 2.233 2.232 1.195-2.47 1.673 2.229 2.071 2.229 1.99 3.188 1.59-1.43 3.183.16.641.558 1.195 2.392 1.595 3.186 1.511 3.025.875-3.426 1.591-2.708.638.558 2.23 3.107 2.23 3.902 0 .08.559-1.194 1.196-.637.717.717.875 1.272 1.193 2.31.159.558.957-1.197 2.47.318 2.308 2.31 1.274-.558 3.106-.558 1.753 0 .079 3.905 2.47 1.515.716-.715 1.99-1.99 1.99.638 0 2.788 4.142-5.019 4.142.718 0 1.671.958-.239 1.195-.875.397-1.195 1.434.395 1.434.875 0 0 .799-2.471 1.992-1.274 1.112 1.114 2.071 2.07 2.709.557 1.353-2.71 2.628 3.346 2.628 0 0-1.432 3.183 1.514 3.266 1.192.318-.955 1.911-2.307 2.787-.475.319.555 1.274-1.035 1.274-1.035.318-.641 6.053 2.308 7.248 1.112 1.672-1.753 1.99-2.55 3.823-1.593 1.752.798 2.787-1.112 5.497-1.112 2.945 0 3.742 2.706 6.769 1.192 2.549 0 2.948 1.275 5.337 1.275 2.31 0 4.699-.798 6.532-.397 2.392.636 4.938.796 7.41.796 1.671 0 3.901 1.114 4.857 1.114"/><g><path d="M287.176 214.039l.731.186c-.153.601-.429 1.06-.827 1.375-.399.315-.887.474-1.462.474-.597 0-1.081-.122-1.455-.364-.373-.243-.657-.595-.853-1.055a3.775 3.775 0 0 1-.292-1.482c0-.576.11-1.078.33-1.507s.533-.755.939-.978.854-.334 1.341-.334c.554 0 1.019.142 1.396.423s.64.678.788 1.188l-.721.17c-.128-.402-.314-.695-.559-.879s-.551-.275-.92-.275c-.425 0-.78.102-1.066.305a1.628 1.628 0 0 0-.602.821 3.32 3.32 0 0 0-.173 1.062c0 .471.068.881.205 1.231.137.352.351.613.64.787.289.173.603.26.939.26.41 0 .757-.118 1.041-.354s.479-.588.58-1.054zM288.469 213.976c0-.742.206-1.292.618-1.648.345-.297.765-.445 1.26-.445.551 0 1.001.181 1.351.541.35.361.524.859.524 1.496 0 .516-.077.921-.231 1.217-.155.295-.38.524-.676.688a1.97 1.97 0 0 1-.968.245c-.561 0-1.014-.18-1.359-.54-.346-.36-.519-.878-.519-1.554zm.698 0c0 .513.112.897.336 1.152s.506.383.845.383c.338 0 .618-.128.842-.385s.336-.647.336-1.173c0-.496-.113-.871-.338-1.127a1.077 1.077 0 0 0-.84-.383c-.339 0-.621.127-.845.382-.224.254-.336.637-.336 1.151zM293.019 215.979v-4.006h.61v.569c.295-.44.72-.66 1.275-.66.241 0 .463.043.666.13.202.087.354.2.454.342.101.141.171.308.212.501.024.126.037.347.037.66v2.464h-.679v-2.437c0-.277-.026-.484-.079-.621s-.146-.246-.281-.328-.292-.123-.474-.123c-.289 0-.539.092-.749.275s-.314.532-.314 1.045v2.188h-.678zM298.799 215.371l.098.6c-.191.04-.362.061-.513.061-.247 0-.438-.039-.573-.117a.645.645 0 0 1-.287-.308c-.056-.127-.083-.394-.083-.801V212.5h-.498v-.527h.498v-.992l.675-.408v1.4h.684v.527h-.684v2.343c0 .194.013.318.036.374a.287.287 0 0 0 .117.132.456.456 0 0 0 .231.049c.076-.001.175-.009.299-.027zM299.455 215.979v-4.006h.611v.606c.155-.284.3-.471.432-.562s.277-.136.436-.136c.229 0 .462.073.698.219l-.234.63a.972.972 0 0 0-.498-.147.646.646 0 0 0-.399.134.731.731 0 0 0-.253.372 2.66 2.66 0 0 0-.113.792v2.098h-.68zM304.65 215.484a2.552 2.552 0 0 1-.727.453 2.096 2.096 0 0 1-.749.132c-.44 0-.778-.107-1.015-.323a1.064 1.064 0 0 1-.354-.824 1.114 1.114 0 0 1 .485-.928c.145-.098.308-.172.489-.223.133-.035.334-.069.604-.102.548-.065.951-.144 1.211-.234l.003-.177c0-.276-.063-.472-.192-.585-.173-.153-.431-.23-.772-.23-.32 0-.556.057-.708.168-.152.112-.265.311-.338.595l-.663-.091c.06-.284.159-.514.298-.688a1.29 1.29 0 0 1 .6-.403c.262-.095.564-.142.909-.142.342 0 .62.04.834.12.214.081.371.183.472.304.101.122.171.276.211.463.022.115.034.324.034.626v.905c0 .631.014 1.03.043 1.197.029.168.086.328.172.481h-.709a1.374 1.374 0 0 1-.138-.494zm-.056-1.516c-.247.101-.616.187-1.109.257-.279.04-.477.085-.593.136a.578.578 0 0 0-.362.543.58.58 0 0 0 .205.453c.137.12.338.181.602.181.262 0 .494-.058.698-.172.203-.114.354-.271.449-.47.072-.153.109-.38.109-.679v-.249zM308.947 214.511l.667.087c-.072.46-.26.82-.56 1.081-.301.26-.67.391-1.107.391-.549 0-.989-.18-1.322-.538s-.5-.872-.5-1.541c0-.433.071-.811.215-1.136.144-.324.361-.567.654-.729s.612-.243.957-.243c.435 0 .791.109 1.067.33.276.22.454.532.532.938l-.66.102c-.063-.269-.175-.472-.334-.607a.863.863 0 0 0-.579-.203c-.343 0-.62.122-.834.367s-.32.634-.32 1.164c0 .538.103.93.309 1.173.207.244.476.366.808.366.267 0 .489-.082.668-.245s.291-.417.339-.757zM311.677 215.371l.098.6c-.191.04-.362.061-.513.061-.247 0-.438-.039-.573-.117a.645.645 0 0 1-.287-.308c-.056-.127-.083-.394-.083-.801V212.5h-.498v-.527h.498v-.992l.675-.408v1.4h.684v.527h-.684v2.343c0 .194.013.318.036.374a.287.287 0 0 0 .117.132.456.456 0 0 0 .231.049c.077-.001.175-.009.299-.027zM312.344 211.229v-.781h.68v.781h-.68zm0 4.75v-4.006h.68v4.006h-.68zM313.805 213.976c0-.742.206-1.292.618-1.648.345-.297.765-.445 1.26-.445.551 0 1.001.181 1.351.541.35.361.524.859.524 1.496 0 .516-.077.921-.231 1.217-.155.295-.38.524-.676.688a1.97 1.97 0 0 1-.968.245c-.561 0-1.014-.18-1.359-.54-.346-.36-.519-.878-.519-1.554zm.698 0c0 .513.112.897.336 1.152s.506.383.845.383c.338 0 .618-.128.842-.385s.336-.647.336-1.173c0-.496-.113-.871-.338-1.127a1.077 1.077 0 0 0-.84-.383c-.339 0-.621.127-.845.382-.224.254-.336.637-.336 1.151zM318.355 215.979v-4.006h.61v.569c.295-.44.72-.66 1.275-.66.241 0 .463.043.666.13.202.087.354.2.454.342.101.141.171.308.212.501.024.126.037.347.037.66v2.464h-.679v-2.437c0-.277-.026-.484-.079-.621s-.146-.246-.281-.328-.292-.123-.474-.123c-.289 0-.539.092-.749.275s-.314.532-.314 1.045v2.188h-.678z"/></g><path fill="none" stroke="#000" stroke-width=".5" d="M281.437 213.671l-22.699 6.768"/></g><g><path d="M44.512-4.888v-7.456h1.062l2.378 3.772c.542.874.984 1.66 1.328 2.423l.033-.011c-.089-.996-.111-1.903-.111-3.064v-3.12h.907v7.456h-.974l-2.367-3.783c-.52-.83-1.018-1.682-1.383-2.489l-.033.011c.055.94.066 1.836.066 3.075v3.186h-.906zM56.603-7.609c0 1.98-1.383 2.843-2.666 2.843-1.438 0-2.566-1.062-2.566-2.754 0-1.781 1.184-2.832 2.655-2.832 1.538-.001 2.577 1.117 2.577 2.743zm-4.237.055c0 1.172.664 2.058 1.615 2.058.929 0 1.626-.874 1.626-2.08 0-.907-.454-2.047-1.604-2.047-1.138 0-1.637 1.062-1.637 2.069zM57.831-8.572c0-.63-.011-1.172-.044-1.67h.852l.044 1.062h.033c.244-.719.841-1.172 1.494-1.172.1 0 .177.011.266.022v.918c-.1-.022-.199-.022-.332-.022-.686 0-1.173.509-1.305 1.239a2.936 2.936 0 0 0-.033.454v2.854h-.974v-3.685zM61.493-8.793c0-.564-.022-1.006-.044-1.449h.852l.044.874h.033c.299-.509.797-.984 1.693-.984.719 0 1.272.442 1.504 1.073h.022c.166-.31.387-.531.608-.697.321-.243.664-.376 1.173-.376.719 0 1.77.464 1.77 2.323v3.142h-.951v-3.02c0-1.04-.387-1.648-1.162-1.648-.564 0-.985.409-1.162.874-.044.144-.078.31-.078.487v3.308h-.951v-3.208c0-.852-.376-1.46-1.118-1.46-.597 0-1.051.487-1.206.974a1.31 1.31 0 0 0-.078.476v3.219h-.951v-3.908zM74.48-6.171c0 .464.022.918.078 1.283h-.874l-.078-.675h-.033c-.299.42-.874.796-1.637.796-1.084 0-1.637-.763-1.637-1.538 0-1.294 1.15-2.002 3.219-1.991v-.111c0-.431-.122-1.239-1.217-1.228-.509 0-1.029.144-1.405.398l-.221-.653c.443-.276 1.095-.464 1.77-.464 1.637 0 2.036 1.117 2.036 2.179v2.004zm-.94-1.449c-1.062-.022-2.268.166-2.268 1.206 0 .642.42.93.907.93.708 0 1.161-.443 1.316-.896.033-.11.044-.221.044-.31v-.93zM76.051-12.742h.974v7.854h-.974v-7.854z"/></g><g><path d="M244.843-7.233l-.774 2.345h-.996l2.545-7.456h1.15l2.544 7.456h-1.028l-.797-2.345h-2.644zm2.456-.752l-.741-2.146c-.166-.487-.277-.929-.388-1.361h-.022c-.11.432-.221.896-.376 1.35l-.729 2.157h2.256zM250.341-12.742h.962v3.363h.022c.343-.598.963-.974 1.825-.974 1.339 0 2.269 1.106 2.269 2.721 0 1.914-1.218 2.865-2.412 2.865-.774 0-1.394-.298-1.803-.996h-.022l-.056.874h-.829c.021-.365.044-.907.044-1.383v-6.47zm.961 5.708c0 .122.012.243.045.354a1.492 1.492 0 0 0 1.46 1.139c1.029 0 1.626-.83 1.626-2.058 0-1.073-.553-1.991-1.604-1.991-.653 0-1.272.465-1.472 1.195a1.531 1.531 0 0 0-.056.409v.952zM256.635-8.793c0-.564-.011-1.006-.044-1.449h.862l.056.885h.022c.265-.498.885-.996 1.77-.996.741 0 1.892.442 1.892 2.279v3.186h-.974v-3.086c0-.863-.32-1.582-1.238-1.582-.631 0-1.129.454-1.306.996a1.384 1.384 0 0 0-.066.454v3.219h-.974v-3.906zM267.62-7.609c0 1.98-1.383 2.843-2.666 2.843-1.438 0-2.567-1.062-2.567-2.754 0-1.781 1.185-2.832 2.655-2.832 1.538-.001 2.578 1.117 2.578 2.743zm-4.237.055c0 1.172.664 2.058 1.615 2.058.929 0 1.626-.874 1.626-2.08 0-.907-.453-2.047-1.604-2.047-1.139 0-1.637 1.062-1.637 2.069zM268.847-8.572c0-.63-.011-1.172-.044-1.67h.852l.044 1.062h.033c.243-.719.841-1.172 1.494-1.172.099 0 .177.011.265.022v.918c-.1-.022-.199-.022-.331-.022-.687 0-1.173.509-1.306 1.239a2.936 2.936 0 0 0-.033.454v2.854h-.974v-3.685zM272.509-8.793c0-.564-.022-1.006-.044-1.449h.852l.044.874h.033c.299-.509.797-.984 1.692-.984.72 0 1.272.442 1.505 1.073h.022c.166-.31.387-.531.608-.697.32-.243.663-.376 1.173-.376.719 0 1.77.464 1.77 2.323v3.142h-.951v-3.02c0-1.04-.388-1.648-1.162-1.648-.563 0-.984.409-1.161.874-.044.144-.077.31-.077.487v3.308h-.952v-3.208c0-.852-.376-1.46-1.117-1.46-.597 0-1.051.487-1.206.974a1.31 1.31 0 0 0-.077.476v3.219h-.951v-3.908zM285.497-6.171c0 .464.021.918.077 1.283h-.874l-.077-.675h-.033c-.299.42-.874.796-1.638.796-1.084 0-1.638-.763-1.638-1.538 0-1.294 1.151-2.002 3.22-1.991v-.111c0-.431-.122-1.239-1.217-1.228-.509 0-1.029.144-1.405.398l-.221-.653c.442-.276 1.095-.464 1.77-.464 1.638 0 2.036 1.117 2.036 2.179v2.004zm-.941-1.449c-1.063-.022-2.269.166-2.269 1.206 0 .642.421.93.907.93.708 0 1.162-.443 1.316-.896.033-.11.045-.221.045-.31v-.93zM287.067-12.742h.974v7.854h-.974v-7.854z"/></g></svg>