<svg version="1.1" xmlns="http://www.w3.org/2000/svg" xmlns:xlink="http://www.w3.org/1999/xlink" x="0" y="0" viewBox="0 0 454.84 95.62" xml:space="preserve"><path d="M16.01 11.66l423.47.27v69.71" fill="#fff" stroke="#000" stroke-miterlimit="10"/><path d="M281.21 34.87v-1.31l-1.19-1.78h.5l.61.93c.11.17.22.35.31.52.09-.16.21-.34.34-.55l.6-.91h.48l-1.23 1.78v1.31h-.42zM289.38 34.87v-1.31l-1.19-1.78h.5l.61.93c.11.17.22.35.31.52.09-.16.21-.34.34-.55l.6-.91h.48l-1.23 1.78v1.31h-.42zM297.54 34.87v-1.31l-1.19-1.78h.5l.61.93c.11.17.22.35.31.52.09-.16.21-.34.34-.55l.6-.91h.48l-1.23 1.78v1.31h-.42zM305.7 34.87v-1.31l-1.19-1.78h.5l.61.93c.11.17.22.35.31.52.09-.16.21-.34.34-.55l.6-.91h.48l-1.23 1.78v1.31h-.42zM313.86 34.87v-1.31l-1.19-1.78h.5l.61.93c.11.17.22.35.31.52.09-.16.21-.34.34-.55l.6-.91h.48l-1.23 1.78v1.31h-.42zM322.02 34.87v-1.31l-1.19-1.78h.5l.61.93c.11.17.22.35.31.52.09-.16.21-.34.34-.55l.6-.91h.48l-1.23 1.78v1.31h-.42zM330.18 34.87v-1.31l-1.19-1.78h.5l.61.93c.11.17.22.35.31.52.09-.16.21-.34.34-.55l.6-.91h.48l-1.23 1.78v1.31h-.42zM338.34 34.87v-1.31l-1.19-1.78h.5l.61.93c.11.17.22.35.31.52.09-.16.21-.34.34-.55l.6-.91h.48l-1.23 1.78v1.31h-.42zM346.5 34.87v-1.31l-1.19-1.78h.5l.61.93c.11.17.22.35.31.52.09-.16.21-.34.34-.55l.6-.91h.48l-1.23 1.78v1.31h-.42zM354.66 34.87v-1.31l-1.19-1.78h.5l.61.93c.11.17.22.35.31.52.09-.16.21-.34.34-.55l.6-.91h.48l-1.23 1.78v1.31h-.42zM362.82 34.87v-1.31l-1.19-1.78h.5l.61.93c.11.17.22.35.31.52.09-.16.21-.34.34-.55l.6-.91h.48l-1.23 1.78v1.31h-.42zM370.98 34.87v-1.31l-1.19-1.78h.5l.61.93c.11.17.22.35.31.52.09-.16.21-.34.34-.55l.6-.91h.48l-1.23 1.78v1.31h-.42zM379.14 34.87v-1.31l-1.19-1.78h.5l.61.93c.11.17.22.35.31.52.09-.16.21-.34.34-.55l.6-.91h.48l-1.23 1.78v1.31h-.42zM387.3 34.87v-1.31l-1.19-1.78h.5l.61.93c.11.17.22.35.31.52.09-.16.21-.34.34-.55l.6-.91h.48l-1.23 1.78v1.31h-.42zM395.46 34.87v-1.31l-1.19-1.78h.5l.61.93c.11.17.22.35.31.52.09-.16.21-.34.34-.55l.6-.91h.48l-1.23 1.78v1.31h-.42zM403.62 34.87v-1.31l-1.19-1.78h.5l.61.93c.11.17.22.35.31.52.09-.16.21-.34.34-.55l.6-.91h.48l-1.23 1.78v1.31h-.42zM411.78 34.87v-1.31l-1.19-1.78h.5l.61.93c.11.17.22.35.31.52.09-.16.21-.34.34-.55l.6-.91h.48l-1.23 1.78v1.31h-.42zM419.94 34.87v-1.31l-1.19-1.78h.5l.61.93c.11.17.22.35.31.52.09-.16.21-.34.34-.55l.6-.91h.48l-1.23 1.78v1.31h-.42zM428.1 34.87v-1.31l-1.19-1.78h.5l.61.93c.11.17.22.35.31.52.09-.16.21-.34.34-.55l.6-.91h.48l-1.23 1.78v1.31h-.42zM436.26 34.87v-1.31l-1.19-1.78h.5l.61.93c.11.17.22.35.31.52.09-.16.21-.34.34-.55l.6-.91h.48l-1.23 1.78v1.31h-.42zM280.23 44.23v-3.09h.42l1.62 2.43v-2.43h.39v3.09h-.42l-1.62-2.43v2.43h-.39zM288.39 44.23v-3.09h.42l1.62 2.43v-2.43h.39v3.09h-.42l-1.62-2.43v2.43h-.39zM296.55 44.23v-3.09h.42l1.62 2.43v-2.43h.39v3.09h-.42l-1.62-2.43v2.43h-.39zM304.71 44.23v-3.09h.42l1.62 2.43v-2.43h.39v3.09h-.42l-1.62-2.43v2.43h-.39zM312.87 44.23v-3.09h.42l1.62 2.43v-2.43h.39v3.09h-.42l-1.62-2.43v2.43h-.39zM321.03 44.23v-3.09h.42l1.62 2.43v-2.43h.39v3.09h-.42l-1.62-2.43v2.43h-.39zM329.19 44.23v-3.09h.42l1.62 2.43v-2.43h.39v3.09h-.42l-1.62-2.43v2.43h-.39zM337.35 44.23v-3.09h.42l1.62 2.43v-2.43h.39v3.09h-.42l-1.62-2.43v2.43h-.39zM345.51 44.23v-3.09h.42l1.62 2.43v-2.43h.39v3.09h-.42l-1.62-2.43v2.43h-.39zM353.67 44.23v-3.09h.42l1.62 2.43v-2.43h.39v3.09h-.42l-1.62-2.43v2.43h-.39zM361.83 44.23v-3.09h.42l1.62 2.43v-2.43h.39v3.09h-.42l-1.62-2.43v2.43h-.39zM369.99 44.23v-3.09h.42l1.62 2.43v-2.43h.39v3.09H372l-1.62-2.43v2.43h-.39zM378.15 44.23v-3.09h.42l1.62 2.43v-2.43h.39v3.09h-.42l-1.62-2.43v2.43h-.39zM386.31 44.23v-3.09h.42l1.62 2.43v-2.43h.39v3.09h-.42l-1.62-2.43v2.43h-.39zM394.47 44.23v-3.09h.42l1.62 2.43v-2.43h.39v3.09h-.42l-1.62-2.43v2.43h-.39zM402.63 44.23v-3.09h.42l1.62 2.43v-2.43h.39v3.09h-.42l-1.62-2.43v2.43h-.39zM410.8 44.23v-3.09h.42l1.62 2.43v-2.43h.39v3.09h-.42l-1.62-2.43v2.43h-.39zM418.96 44.23v-3.09h.42l1.62 2.43v-2.43h.39v3.09h-.42l-1.62-2.43v2.43h-.39zM427.12 44.23v-3.09h.42l1.62 2.43v-2.43h.39v3.09h-.42l-1.62-2.43v2.43h-.39zM435.28 44.23v-3.09h.42l1.62 2.43v-2.43h.39v3.09h-.42l-1.62-2.43v2.43h-.39zM41.25 58.63V55.9h-1.02v-.36h2.45v.36h-1.02v2.73h-.41zM42.92 59.5l-.04-.36c.08.02.16.03.22.03.08 0 .15-.01.2-.04s.09-.07.12-.12c.02-.04.06-.13.12-.28.01-.02.02-.05.03-.09l-.85-2.25h.41l.47 1.3c.06.16.11.34.16.52.04-.17.1-.34.16-.51l.48-1.31h.38l-.85 2.28c-.09.25-.16.42-.21.51-.07.13-.14.22-.23.28-.09.06-.19.09-.31.09-.09-.01-.17-.02-.26-.05zM44.98 59.49v-3.1h.35v.29c.08-.11.17-.2.28-.26.1-.06.23-.09.37-.09.19 0 .36.05.51.15s.26.24.33.42.11.38.11.59c0 .23-.04.44-.12.62-.08.18-.2.32-.36.42s-.32.15-.49.15c-.13 0-.24-.03-.34-.08s-.18-.12-.25-.2v1.09h-.39zm.34-1.96c0 .29.06.5.18.64s.26.21.42.21c.17 0 .31-.07.43-.21s.18-.36.18-.66c0-.29-.06-.5-.18-.64a.54.54 0 0 0-.42-.21c-.16 0-.3.08-.43.23s-.18.35-.18.64zM48.92 57.91l.39.05c-.06.23-.18.41-.34.53-.17.13-.38.19-.64.19-.33 0-.59-.1-.78-.3-.19-.2-.29-.48-.29-.85 0-.38.1-.67.29-.88.19-.21.45-.31.76-.31.3 0 .54.1.73.31s.28.49.28.86v.1h-1.67c.01.25.08.43.21.57.13.13.28.2.47.2.14 0 .26-.04.36-.11.09-.08.17-.2.23-.36zm-1.25-.61h1.25c-.02-.19-.06-.33-.14-.42a.573.573 0 0 0-.47-.22c-.17 0-.32.06-.44.17a.68.68 0 0 0-.2.47zM49.64 56.11l.1-.3c.22.08.39.15.49.21-.03-.25-.04-.43-.04-.53h.31c0 .14-.02.31-.05.52.14-.07.31-.14.5-.2l.1.3c-.18.06-.35.1-.53.12.09.07.21.21.36.4l-.25.18c-.08-.11-.18-.26-.29-.45-.1.2-.2.35-.27.45l-.25-.18c.16-.2.28-.33.35-.4-.2-.04-.37-.08-.53-.12zM53.39 59.54c-.21-.26-.39-.57-.53-.93a2.77 2.77 0 0 1-.22-1.1c0-.33.05-.66.16-.96.13-.36.32-.71.59-1.06h.27c-.17.29-.28.5-.34.63-.09.19-.15.4-.2.61-.06.26-.09.53-.09.79 0 .68.21 1.35.63 2.03h-.27zM54.16 58.63v-3.09h2.24v.36h-1.83v.95h1.71v.36h-1.71v1.05h1.9v.36h-2.31zM56.7 58.69l.9-3.2h.3l-.89 3.2h-.31zM59.12 58.63l-1.2-3.09h.44l.8 2.25c.06.18.12.35.16.51.05-.17.1-.34.17-.51l.84-2.25h.42l-1.21 3.09h-.42zM60.78 58.69l.9-3.2h.3l-.89 3.2h-.31zM62.3 58.63v-3.09h.41v2.73h1.52v.36H62.3zM64.92 59.54h-.27c.42-.67.63-1.35.63-2.03a3.546 3.546 0 0 0-.29-1.4c-.05-.13-.17-.34-.34-.63h.27c.26.35.46.71.59 1.06.11.31.16.63.16.96 0 .38-.07.75-.22 1.1-.14.37-.32.68-.53.94zM37.45 75.79V72.7h.41v2.73h1.52v.37h-1.93zM39.82 73.14v-.44h.38v.44h-.38zm0 2.65v-2.24h.38v2.24h-.38zM42.09 76.65v-1.1c-.06.08-.14.15-.25.21-.11.06-.22.08-.34.08-.27 0-.49-.11-.69-.32-.19-.21-.29-.5-.29-.87 0-.22.04-.43.12-.61s.19-.31.34-.41c.15-.09.31-.14.49-.14.28 0 .5.12.65.35v-.3h.34v3.1h-.37zm-1.17-1.98c0 .29.06.5.18.65.12.14.27.22.43.22.16 0 .3-.07.42-.21.12-.14.18-.35.18-.63 0-.3-.06-.52-.18-.67s-.27-.23-.43-.23c-.16 0-.3.07-.42.21-.12.14-.18.36-.18.66zM44.53 75.79v-.33a.82.82 0 0 1-.71.38c-.13 0-.26-.03-.37-.08s-.2-.11-.26-.19a.791.791 0 0 1-.12-.28c-.02-.07-.02-.19-.02-.35v-1.39h.38v1.24c0 .2.01.33.02.4.02.1.07.18.15.24.08.06.17.09.29.09.11 0 .22-.03.32-.09s.17-.14.21-.24.06-.25.06-.44v-1.2h.38v2.24h-.33zM45.21 74.67c0-.42.12-.72.35-.92.19-.17.43-.25.7-.25.31 0 .56.1.76.3.2.2.29.48.29.84 0 .29-.04.52-.13.68-.09.17-.21.29-.38.38-.17.09-.35.14-.54.14-.31 0-.57-.1-.76-.3s-.29-.49-.29-.87zm.39 0c0 .29.06.5.19.64s.28.21.47.21c.19 0 .35-.07.47-.21.13-.14.19-.36.19-.66 0-.28-.06-.49-.19-.63a.609.609 0 0 0-.47-.21c-.19 0-.35.07-.47.21-.13.15-.19.37-.19.65zM47.75 75.79v-2.24h.34v.34c.09-.16.17-.26.24-.31s.16-.08.24-.08c.13 0 .26.04.39.12l-.13.35a.596.596 0 0 0-.28-.08.34.34 0 0 0-.22.07c-.07.05-.11.12-.14.21-.04.13-.06.28-.06.44v1.17h-.38zM49.04 73.27l.1-.3c.22.08.39.15.49.2-.03-.25-.04-.43-.04-.53h.31c0 .14-.02.31-.05.52.14-.07.31-.14.5-.2l.1.3c-.18.06-.35.1-.53.12.09.08.21.21.36.4l-.25.18c-.08-.11-.18-.26-.29-.45-.1.2-.2.35-.27.45l-.25-.18c.16-.2.28-.33.35-.4-.19-.03-.36-.07-.53-.11zM52.8 76.7c-.21-.26-.39-.57-.53-.93a2.77 2.77 0 0 1-.22-1.1c0-.33.05-.66.16-.96.13-.36.32-.71.59-1.06h.27c-.17.29-.28.5-.34.63-.09.19-.15.4-.2.61-.06.26-.09.53-.09.79 0 .68.21 1.35.63 2.03h-.27zM53.63 75.79V72.7h.41v3.09h-.41zM54.31 75.85l.9-3.2h.3l-.89 3.2h-.31zM58.05 74.71l.41.1c-.09.34-.24.59-.46.77-.22.18-.5.26-.82.26-.33 0-.6-.07-.81-.2-.21-.14-.37-.33-.48-.59-.11-.26-.16-.53-.16-.83 0-.32.06-.6.18-.84s.3-.42.52-.55c.23-.12.48-.19.75-.19.31 0 .57.08.78.24s.36.38.44.67l-.4.09c-.07-.23-.18-.39-.31-.49a.854.854 0 0 0-.51-.15c-.24 0-.44.06-.6.17-.16.11-.27.27-.34.46-.06.19-.1.39-.1.59 0 .26.04.49.11.69s.2.34.36.44c.16.1.34.15.53.15.23 0 .42-.07.58-.2.17-.14.28-.33.33-.59zM58.63 75.85l.9-3.2h.3l-.89 3.2h-.31zM60.15 75.79V72.7h1.16c.24 0 .43.03.57.09.14.06.25.16.34.29s.12.27.12.41a.735.735 0 0 1-.43.65c.19.05.33.15.43.28.1.13.15.29.15.47 0 .14-.03.28-.09.4-.06.13-.14.22-.23.29s-.2.12-.34.15-.3.05-.5.05h-1.18zm.41-1.79h.67c.18 0 .31-.01.39-.04.1-.03.18-.08.23-.15.05-.07.08-.16.08-.27 0-.1-.02-.19-.07-.27s-.12-.13-.21-.16-.25-.04-.47-.04h-.62V74zm0 1.43h.77c.13 0 .23 0 .28-.01.09-.02.17-.04.24-.08.06-.04.12-.1.16-.17.04-.08.06-.16.06-.26 0-.12-.03-.22-.09-.3a.524.524 0 0 0-.25-.18c-.1-.03-.26-.05-.45-.05h-.72v1.05zM62.71 75.85l.9-3.2h.3l-.89 3.2h-.31zM64.23 75.79V72.7h.62l.73 2.19c.07.2.12.36.15.46.03-.11.09-.28.16-.5l.74-2.15h.55v3.09h-.39V73.2l-.9 2.59h-.37l-.89-2.63v2.63h-.4zM67.93 76.7h-.27c.42-.67.63-1.35.63-2.03a3.546 3.546 0 0 0-.29-1.4c-.05-.13-.17-.34-.34-.63h.27c.26.35.46.71.59 1.06.11.31.16.63.16.96 0 .38-.07.75-.22 1.1-.15.37-.32.68-.53.94z"/><defs><path id="a" d="M15.77 11.95h8.16v70.08h-8.16z"/></defs><clipPath id="b"><use xlink:href="#a" overflow="visible"/></clipPath><g clip-path="url(#b)"><path d="M21.29 66.32H18.2v-2.09h.36v1.68h.96v-1.45h.36v1.45h1.4v.41zM21.29 63.69H18.2v-2.24h.36v1.83h.95v-1.71h.36v1.71h1.05v-1.9h.36v2.31zM21.29 60.03h-2.73v1.02h-.36V58.6h.36v1.02h2.73v.41zM21.29 58.52l-3.09-1.19v-.44l3.09-1.27v.47l-.94.36v1.29l.94.34v.44zm-1.27-.89v-1.05l-.86.32c-.26.1-.47.17-.64.22.2.04.4.09.59.17l.91.34zM21.29 55.32H18.2v-.41h2.73v-1.52h.36v1.93zM20.21 48.29l.1-.41c.34.09.59.24.77.46.18.22.26.5.26.82 0 .33-.07.6-.2.81s-.33.37-.59.48-.53.16-.83.16c-.32 0-.6-.06-.84-.19s-.42-.3-.55-.52-.19-.48-.19-.75c0-.31.08-.57.24-.78.16-.21.38-.36.66-.44l.09.4c-.23.07-.39.18-.49.31-.1.14-.15.31-.15.52 0 .24.06.44.17.6s.27.27.46.34c.19.06.39.1.59.1.26 0 .49-.04.69-.12s.34-.2.44-.36.15-.34.15-.53c0-.23-.07-.42-.2-.58-.13-.16-.32-.26-.58-.32zM19.78 47.5c-.51 0-.92-.14-1.21-.41-.29-.28-.44-.63-.44-1.07 0-.29.07-.54.2-.77.14-.23.33-.4.57-.52.24-.12.52-.18.83-.18.31 0 .59.06.84.19s.43.31.56.54.19.48.19.75c0 .29-.07.55-.21.78-.14.23-.33.4-.58.52-.22.11-.47.17-.75.17zm.01-.42c.37 0 .67-.1.88-.3.21-.2.32-.45.32-.75 0-.31-.11-.56-.32-.76-.22-.2-.52-.3-.92-.3-.25 0-.47.04-.66.13-.19.08-.33.21-.44.37-.1.16-.16.35-.16.55 0 .29.1.54.3.75.2.2.54.31 1 .31zM21.29 44.02H18.2v-.42l2.43-1.62H18.2v-.39h3.09V42l-2.43 1.63h2.43v.39zM21.29 40.9H18.2v-1.06c0-.24.01-.42.04-.55.04-.18.11-.33.22-.45.14-.16.31-.29.53-.37.21-.08.46-.12.74-.12.23 0 .44.03.62.08s.33.13.45.21.21.18.28.28c.07.1.12.23.16.37s.05.31.05.5v1.11zm-.36-.41v-.66c0-.2-.02-.36-.06-.48a.688.688 0 0 0-.16-.28c-.1-.1-.23-.17-.39-.23-.16-.05-.36-.08-.6-.08-.32 0-.57.05-.75.16-.17.11-.29.23-.35.39-.04.11-.06.29-.06.53v.65h2.37zM21.29 37.71H18.2v-.41h3.09v.41zM21.29 35.79h-2.73v1.02h-.36v-2.45h.36v1.02h2.73v.41zM21.29 33.87H18.2v-.41h3.09v.41zM19.78 32.86c-.51 0-.92-.14-1.21-.41-.29-.28-.44-.63-.44-1.07 0-.29.07-.54.2-.77.14-.23.33-.4.57-.52.24-.12.52-.18.83-.18.31 0 .59.06.84.19s.43.31.56.54.19.48.19.75c0 .29-.07.55-.21.78-.14.23-.33.4-.58.52-.22.11-.47.17-.75.17zm.01-.42c.37 0 .67-.1.88-.3.21-.2.32-.45.32-.75 0-.31-.11-.56-.32-.76-.22-.2-.52-.3-.92-.3-.25 0-.47.04-.66.13-.19.08-.33.21-.44.37-.1.16-.16.35-.16.55 0 .29.1.54.3.75.2.21.54.31 1 .31zM21.29 29.38H18.2v-.42l2.43-1.62H18.2v-.39h3.09v.42L18.86 29h2.43v.38z"/></g><path d="M32.45 21.07v-3.09h2.09v.37h-1.68v.96h1.45v.36h-1.45v1.41h-.41zM36.55 20.35l.39.05c-.06.23-.18.41-.34.53-.17.13-.38.19-.64.19-.33 0-.59-.1-.78-.3-.19-.2-.29-.49-.29-.85 0-.38.1-.67.29-.88.19-.21.45-.31.76-.31.3 0 .54.1.73.31s.28.49.28.86v.1h-1.67c.01.25.08.43.21.57s.28.2.47.2c.14 0 .26-.04.36-.11.09-.08.17-.2.23-.36zm-1.25-.61h1.25c-.02-.19-.06-.33-.14-.42a.573.573 0 0 0-.47-.22c-.17 0-.32.06-.44.17a.68.68 0 0 0-.2.47zM38.25 20.73l.05.33c-.11.02-.2.03-.29.03-.14 0-.24-.02-.32-.07a.33.33 0 0 1-.16-.17c-.03-.07-.05-.22-.05-.45v-1.29h-.28v-.29h.28v-.55l.38-.23v.78h.38v.29h-.38v1.31c0 .11.01.18.02.21s.04.06.07.07.07.03.13.03c.04.02.1.01.17 0zM40.08 20.8c-.14.12-.28.2-.41.25-.13.05-.27.07-.42.07-.25 0-.44-.06-.57-.18a.597.597 0 0 1-.2-.46c0-.11.02-.21.07-.3s.12-.16.2-.22c.08-.06.17-.1.27-.13.07-.02.19-.04.34-.06.31-.04.53-.08.68-.13v-.1c0-.15-.04-.26-.11-.33-.1-.09-.24-.13-.43-.13-.18 0-.31.03-.4.09-.09.06-.15.17-.19.33l-.37-.05c.03-.16.09-.29.17-.38.08-.1.19-.17.34-.23.15-.05.32-.08.51-.08s.35.02.47.07c.12.04.21.1.26.17.06.07.1.15.12.26.01.06.02.18.02.35v.51c0 .35.01.58.02.67.02.09.05.18.1.27h-.4a.893.893 0 0 1-.07-.26zm-.03-.85c-.14.06-.34.1-.62.14-.16.02-.27.05-.33.08s-.11.07-.15.12c-.04.05-.05.11-.05.18 0 .1.04.19.12.25.08.07.19.1.34.1.15 0 .28-.03.39-.1.11-.06.2-.15.25-.26a.94.94 0 0 0 .06-.38v-.13zM41.01 21.07v-3.09h.38v3.09h-.38zM43.06 21.07v-3.09h.38v1.11c.18-.21.4-.31.67-.31.17 0 .31.03.43.1s.21.16.26.27.08.28.08.5v1.42h-.38v-1.42c0-.19-.04-.33-.12-.41-.08-.09-.2-.13-.35-.13a.62.62 0 0 0-.32.09c-.1.06-.17.14-.21.24-.04.1-.06.24-.06.41v1.23h-.38zM46.88 20.35l.39.05c-.06.23-.18.41-.34.53-.17.13-.38.19-.64.19-.33 0-.59-.1-.78-.3-.19-.2-.29-.49-.29-.85 0-.38.1-.67.29-.88.19-.21.45-.31.76-.31.3 0 .54.1.73.31s.28.49.28.86v.1h-1.67c.01.25.08.43.21.57s.28.2.47.2c.14 0 .26-.04.36-.11.1-.08.18-.2.23-.36zm-1.24-.61h1.25c-.02-.19-.06-.33-.14-.42a.573.573 0 0 0-.47-.22c-.17 0-.32.06-.44.17-.13.12-.19.27-.2.47zM49.21 20.8c-.14.12-.28.2-.41.25-.13.05-.27.07-.42.07-.25 0-.44-.06-.57-.18a.597.597 0 0 1-.2-.46c0-.11.02-.21.07-.3s.12-.16.2-.22c.08-.06.17-.1.27-.13.07-.02.19-.04.34-.06.31-.04.53-.08.68-.13v-.1c0-.15-.04-.26-.11-.33-.1-.09-.24-.13-.43-.13-.18 0-.31.03-.4.09-.09.06-.15.17-.19.33l-.37-.05c.03-.16.09-.29.17-.38.08-.1.19-.17.34-.23.15-.05.32-.08.51-.08s.35.02.47.07c.12.04.21.1.26.17.06.07.1.15.12.26.01.06.02.18.02.35v.51c0 .35.01.58.02.67.02.09.05.18.1.27h-.4a.893.893 0 0 1-.07-.26zm-.03-.85c-.14.06-.34.1-.62.14-.16.02-.27.05-.33.08s-.11.07-.15.12c-.04.05-.05.11-.05.18 0 .1.04.19.12.25.08.07.19.1.34.1.15 0 .28-.03.39-.1.11-.06.2-.15.25-.26a.94.94 0 0 0 .06-.38v-.13zM50.15 21.07v-2.24h.34v.34c.09-.16.17-.26.24-.31s.16-.08.24-.08c.13 0 .26.04.39.12l-.13.35a.596.596 0 0 0-.28-.08.34.34 0 0 0-.22.07c-.07.05-.11.12-.14.21-.04.13-.06.28-.06.44v1.17h-.38zM52.42 20.73l.05.33c-.11.02-.2.03-.29.03-.14 0-.24-.02-.32-.07a.33.33 0 0 1-.16-.17c-.03-.07-.05-.22-.05-.45v-1.29h-.28v-.29h.28v-.55l.38-.23v.78h.38v.29h-.38v1.31c0 .11.01.18.02.21s.04.06.07.07.07.03.13.03c.05.02.1.01.17 0zM53.99 21.07v-2.24h.34v.34c.09-.16.17-.26.24-.31s.16-.08.24-.08c.13 0 .26.04.39.12l-.13.35a.596.596 0 0 0-.28-.08.34.34 0 0 0-.22.07c-.07.05-.11.12-.14.21-.04.13-.06.28-.06.44v1.17h-.38zM56.89 20.8c-.14.12-.28.2-.41.25-.13.05-.27.07-.42.07-.25 0-.44-.06-.57-.18a.597.597 0 0 1-.2-.46c0-.11.02-.21.07-.3s.12-.16.2-.22c.08-.06.17-.1.27-.13.07-.02.19-.04.34-.06.31-.04.53-.08.68-.13v-.1c0-.15-.04-.26-.11-.33-.1-.09-.24-.13-.43-.13-.18 0-.31.03-.4.09-.09.06-.15.17-.19.33l-.37-.05c.03-.16.09-.29.17-.38.08-.1.19-.17.34-.23.15-.05.32-.08.51-.08s.35.02.47.07c.12.04.21.1.26.17.06.07.1.15.12.26.01.06.02.18.02.35v.51c0 .35.01.58.02.67.02.09.05.18.1.27h-.4a.893.893 0 0 1-.07-.26zm-.03-.85c-.14.06-.34.1-.62.14-.16.02-.27.05-.33.08s-.11.07-.15.12c-.04.05-.05.11-.05.18 0 .1.04.19.12.25.08.07.19.1.34.1.15 0 .28-.03.39-.1.11-.06.2-.15.25-.26a.94.94 0 0 0 .06-.38v-.13zM58.66 20.73l.05.33c-.11.02-.2.03-.29.03-.14 0-.24-.02-.32-.07a.33.33 0 0 1-.16-.17c-.03-.07-.05-.22-.05-.45v-1.29h-.28v-.29h.28v-.55l.38-.23v.78h.38v.29h-.38v1.31c0 .11.01.18.02.21s.04.06.07.07.07.03.13.03c.05.02.1.01.17 0zM60.57 20.35l.39.05c-.06.23-.18.41-.34.53-.17.13-.38.19-.64.19-.33 0-.59-.1-.78-.3-.19-.2-.29-.49-.29-.85 0-.38.1-.67.29-.88.19-.21.45-.31.76-.31.3 0 .54.1.73.31s.28.49.28.86v.1H59.3c.01.25.08.43.21.57s.28.2.47.2c.14 0 .26-.04.36-.11.09-.08.17-.2.23-.36zm-1.25-.61h1.25c-.02-.19-.06-.33-.14-.42a.573.573 0 0 0-.47-.22c-.17 0-.32.06-.44.17a.68.68 0 0 0-.2.47zM63.36 21.98c-.21-.26-.39-.57-.53-.93a2.77 2.77 0 0 1-.22-1.1c0-.33.05-.66.16-.96.13-.36.32-.71.59-1.06h.27c-.17.29-.28.5-.34.63-.09.19-.15.4-.2.61-.06.26-.09.52-.09.79 0 .68.21 1.35.63 2.03h-.27zM64.43 21.07h-.35v-3.09h.38v1.1c.16-.2.37-.3.61-.3.14 0 .27.03.39.08s.22.13.3.23.14.22.19.36c.04.14.07.29.07.46 0 .38-.1.68-.29.89-.19.21-.42.31-.68.31-.26 0-.47-.11-.62-.33v.29zm-.01-1.13c0 .27.04.46.11.58.12.2.28.29.49.29.17 0 .31-.07.43-.22.12-.14.18-.36.18-.64 0-.29-.06-.51-.17-.65a.526.526 0 0 0-.85.01c-.12.15-.19.35-.19.63zM66.48 21.93v-3.1h.35v.29c.08-.11.17-.2.28-.26.1-.06.23-.08.37-.08.19 0 .36.05.51.15s.26.24.33.42.11.38.11.59c0 .23-.04.44-.12.62-.08.18-.2.32-.36.42-.16.1-.32.15-.49.15-.13 0-.24-.03-.34-.08a.818.818 0 0 1-.25-.2v1.09h-.39zm.34-1.96c0 .29.06.5.18.64s.26.21.42.21c.17 0 .31-.07.43-.21s.18-.36.18-.66c0-.29-.06-.5-.18-.64a.54.54 0 0 0-.42-.21c-.16 0-.3.08-.43.23s-.18.35-.18.64zM68.88 21.07v-2.24h.34v.31c.07-.11.16-.2.28-.26.12-.07.25-.1.4-.1.17 0 .3.03.41.1.11.07.18.17.22.29.18-.26.41-.39.69-.39.22 0 .39.06.51.18s.18.31.18.57v1.54h-.38v-1.41c0-.15-.01-.26-.04-.33a.293.293 0 0 0-.13-.16.414.414 0 0 0-.23-.06c-.16 0-.29.05-.39.16s-.16.27-.16.5v1.3h-.38v-1.46c0-.17-.03-.29-.09-.38-.06-.08-.16-.13-.3-.13a.61.61 0 0 0-.3.08.5.5 0 0 0-.2.25c-.04.11-.06.26-.06.47v1.16h-.37zM72.85 21.98h-.27c.42-.67.63-1.35.63-2.03a3.546 3.546 0 0 0-.29-1.4c-.05-.13-.17-.34-.34-.63h.27c.26.35.46.71.59 1.06.11.31.16.63.16.96 0 .38-.07.75-.22 1.1-.15.37-.32.68-.53.94zM33.63 38.83v-3.09h1.06c.24 0 .42.01.55.04.18.04.33.11.45.22.16.14.29.31.37.53.08.21.12.46.12.74 0 .24-.03.44-.08.63-.05.18-.13.33-.21.45-.09.12-.18.21-.28.28s-.23.12-.37.16-.31.05-.5.05h-1.11zm.4-.36h.66c.2 0 .36-.02.48-.06.12-.04.21-.09.28-.16.1-.1.17-.23.23-.39s.08-.36.08-.6c0-.32-.05-.57-.16-.75-.11-.17-.23-.29-.39-.35-.11-.04-.29-.06-.53-.06h-.65v2.37zM38.23 38.11l.39.05c-.06.23-.18.41-.34.53-.17.13-.38.19-.64.19-.33 0-.59-.1-.78-.3-.19-.2-.29-.49-.29-.85 0-.38.1-.67.29-.88.19-.21.45-.31.76-.31.3 0 .54.1.73.31s.28.49.28.86v.1h-1.67c.01.25.08.43.21.57s.28.2.47.2c.14 0 .26-.04.36-.11.09-.08.17-.2.23-.36zm-1.25-.61h1.25c-.02-.19-.06-.33-.14-.42a.573.573 0 0 0-.47-.22c-.17 0-.32.06-.44.17-.12.12-.18.27-.2.47zM40.56 38.01l.37.05c-.04.26-.15.46-.31.6s-.37.22-.62.22c-.31 0-.55-.1-.74-.3s-.28-.49-.28-.86c0-.24.04-.45.12-.63.08-.18.2-.32.37-.41.16-.09.34-.14.53-.14.24 0 .44.06.6.18s.25.3.3.52l-.37.06a.661.661 0 0 0-.19-.34.463.463 0 0 0-.32-.11c-.19 0-.35.07-.47.21-.12.14-.18.35-.18.65 0 .3.06.52.17.66.12.14.27.21.45.21.15 0 .27-.05.37-.14.11-.1.17-.24.2-.43zM42.79 38.11l.39.05c-.06.23-.18.41-.34.53-.17.13-.38.19-.64.19-.33 0-.59-.1-.78-.3-.19-.2-.29-.49-.29-.85 0-.38.1-.67.29-.88.19-.21.45-.31.76-.31.3 0 .54.1.73.31s.28.49.28.86v.1h-1.67c.01.25.08.43.21.57s.28.2.47.2c.14 0 .26-.04.36-.11.1-.08.17-.2.23-.36zm-1.24-.61h1.25c-.02-.19-.06-.33-.14-.42a.573.573 0 0 0-.47-.22c-.17 0-.32.06-.44.17-.13.12-.19.27-.2.47zM43.65 38.83v-3.09h.38v3.09h-.38zM46.04 38.11l.39.05c-.06.23-.18.41-.34.53-.17.13-.38.19-.64.19-.33 0-.59-.1-.78-.3-.19-.2-.29-.49-.29-.85 0-.38.1-.67.29-.88.19-.21.45-.31.76-.31.3 0 .54.1.73.31s.28.49.28.86v.1h-1.67c.01.25.08.43.21.57s.28.2.47.2c.14 0 .26-.04.36-.11.09-.08.17-.2.23-.36zm-1.25-.61h1.25c-.02-.19-.06-.33-.14-.42a.573.573 0 0 0-.47-.22c-.17 0-.32.06-.44.17a.68.68 0 0 0-.2.47zM46.9 38.83v-2.24h.34v.34c.09-.16.17-.26.24-.31s.16-.08.24-.08c.13 0 .26.04.39.12l-.13.35a.596.596 0 0 0-.28-.08.34.34 0 0 0-.22.07c-.07.05-.11.12-.14.21-.04.13-.06.28-.06.44v1.17h-.38zM49.81 38.56c-.14.12-.28.2-.41.25-.13.05-.27.07-.42.07-.25 0-.44-.06-.57-.18a.597.597 0 0 1-.2-.46c0-.11.02-.21.07-.3s.12-.16.2-.22c.08-.06.17-.1.27-.13.07-.02.19-.04.34-.06.31-.04.53-.08.68-.13v-.1c0-.15-.04-.26-.11-.33-.1-.09-.24-.13-.43-.13-.18 0-.31.03-.4.09-.09.06-.15.17-.19.33l-.37-.05c.03-.16.09-.29.17-.38.08-.1.19-.17.34-.23.15-.05.32-.08.51-.08s.35.02.47.07c.12.04.21.1.26.17.06.07.1.15.12.26.01.06.02.18.02.35v.51c0 .35.01.58.02.67.02.09.05.18.1.27h-.4a.662.662 0 0 1-.07-.26zm-.03-.85c-.14.06-.34.1-.62.14-.16.02-.27.05-.33.08s-.11.07-.15.12c-.04.05-.05.11-.05.18 0 .1.04.19.12.25.08.07.19.1.34.1.15 0 .28-.03.39-.1.11-.06.2-.15.25-.26a.94.94 0 0 0 .06-.38v-.13zM51.58 38.49l.05.33c-.11.02-.2.03-.29.03-.14 0-.24-.02-.32-.07a.33.33 0 0 1-.16-.17c-.03-.07-.05-.22-.05-.45v-1.29h-.28v-.29h.28v-.55l.38-.23v.78h.38v.29h-.37v1.31c0 .11.01.18.02.21s.04.06.07.07.07.03.13.03c.03.02.09.01.16 0zM51.95 36.18v-.44h.38v.44h-.38zm0 2.65v-2.24h.38v2.24h-.38zM52.65 37.71c0-.42.12-.72.35-.92.19-.17.43-.25.7-.25.31 0 .56.1.76.3.2.2.29.48.29.84 0 .29-.04.52-.13.68-.09.17-.21.29-.38.38-.17.09-.35.14-.54.14-.31 0-.57-.1-.76-.3s-.29-.49-.29-.87zm.39 0c0 .29.06.5.19.64s.28.21.47.21c.19 0 .35-.07.47-.21.13-.14.19-.36.19-.66 0-.28-.06-.49-.19-.63a.609.609 0 0 0-.47-.21c-.19 0-.35.07-.47.21-.13.15-.19.37-.19.65zM55.19 38.83v-2.24h.34v.32c.16-.25.4-.37.71-.37.14 0 .26.02.37.07.11.05.2.11.25.19s.1.17.12.28c.01.07.02.19.02.37v1.38h-.38v-1.36c0-.15-.01-.27-.04-.35-.03-.08-.08-.14-.16-.18s-.16-.07-.26-.07c-.16 0-.3.05-.42.15-.12.1-.18.3-.18.58v1.22h-.37zM57.33 38.16l.38-.06c.02.15.08.27.18.35s.23.12.4.12.3-.04.39-.11.13-.15.13-.25c0-.09-.04-.15-.11-.2a1.64 1.64 0 0 0-.39-.13c-.28-.07-.47-.13-.58-.18a.577.577 0 0 1-.25-.21.52.52 0 0 1-.08-.3c0-.1.02-.19.07-.28.05-.08.11-.16.19-.21.06-.04.14-.08.24-.11s.21-.04.33-.04c.18 0 .33.03.46.08s.23.12.29.21c.06.09.11.2.13.35l-.37.05c-.02-.12-.07-.21-.15-.27s-.2-.1-.34-.1c-.17 0-.3.03-.37.09s-.11.13-.11.2c0 .05.02.09.05.13.03.04.08.07.15.1.04.01.15.05.33.1.27.07.46.13.56.18.11.05.19.11.25.2.06.09.09.2.09.33s-.04.25-.11.36c-.07.11-.18.2-.32.26s-.3.09-.47.09c-.29 0-.51-.06-.67-.18a.96.96 0 0 1-.3-.57zM61.57 39.74c-.21-.26-.39-.57-.53-.93a2.77 2.77 0 0 1-.22-1.1c0-.33.05-.66.16-.96.13-.36.32-.71.59-1.06h.27c-.17.29-.28.5-.34.63-.09.19-.15.4-.2.61-.06.26-.09.53-.09.79 0 .68.21 1.35.63 2.03h-.27zM63.2 38.83v-1.31l-1.19-1.78h.5l.61.93c.11.17.22.35.31.52.09-.16.21-.34.34-.55l.6-.91h.48l-1.23 1.78v1.31h-.42zM66.58 38.11l.39.05c-.06.23-.18.41-.34.53-.17.13-.38.19-.64.19-.33 0-.59-.1-.78-.3-.19-.2-.29-.49-.29-.85 0-.38.1-.67.29-.88.19-.21.45-.31.76-.31.3 0 .54.1.73.31s.28.49.28.86v.1h-1.67c.01.25.08.43.21.57s.28.2.47.2c.14 0 .26-.04.36-.11.09-.08.17-.2.23-.36zm-1.25-.61h1.25c-.02-.19-.06-.33-.14-.42a.573.573 0 0 0-.47-.22c-.17 0-.32.06-.44.17a.68.68 0 0 0-.2.47zM67.29 38.16l.38-.06c.02.15.08.27.18.35s.23.12.4.12.3-.04.39-.11.13-.15.13-.25c0-.09-.04-.15-.11-.2a1.64 1.64 0 0 0-.39-.13c-.28-.07-.47-.13-.58-.18a.577.577 0 0 1-.25-.21.52.52 0 0 1-.08-.3c0-.1.02-.19.07-.28.05-.08.11-.16.19-.21.06-.04.14-.08.24-.11s.21-.04.33-.04c.18 0 .33.03.46.08s.23.12.29.21c.06.09.11.2.13.35l-.37.05c-.02-.12-.07-.21-.15-.27s-.2-.1-.34-.1c-.17 0-.3.03-.37.09s-.11.13-.11.2c0 .05.02.09.05.13.03.04.08.07.15.1.04.01.15.05.33.1.27.07.46.13.56.18.11.05.19.11.25.2.06.09.09.2.09.33s-.04.25-.11.36c-.07.11-.18.2-.32.26s-.3.09-.47.09c-.29 0-.51-.06-.67-.18-.16-.15-.25-.33-.3-.57zM69.32 38.89l.9-3.2h.3l-.89 3.2h-.31zM70.85 38.83v-3.09h.42l1.62 2.43v-2.43h.39v3.09h-.42l-1.62-2.43v2.43h-.39zM73.79 37.71c0-.42.12-.72.35-.92.19-.17.43-.25.7-.25.31 0 .56.1.76.3.2.2.29.48.29.84 0 .29-.04.52-.13.68-.09.17-.21.29-.38.38-.17.09-.35.14-.54.14-.31 0-.57-.1-.76-.3s-.29-.49-.29-.87zm.39 0c0 .29.06.5.19.64s.28.21.47.21c.19 0 .35-.07.47-.21.13-.14.19-.36.19-.66 0-.28-.06-.49-.19-.63a.609.609 0 0 0-.47-.21c-.19 0-.35.07-.47.21-.13.15-.19.37-.19.65zM76.58 39.74h-.27c.42-.67.63-1.35.63-2.03a3.546 3.546 0 0 0-.29-1.4c-.05-.13-.17-.34-.34-.63h.27c.26.35.46.71.59 1.06.11.31.16.63.16.96 0 .38-.07.75-.22 1.1-.15.37-.32.68-.53.94zM219.02 43.75v-3.09h.42l1.62 2.43v-2.43h.39v3.09h-.42l-1.63-2.43v2.43h-.38zM235.34 43.75v-3.09h.42l1.62 2.43v-2.43h.39v3.09h-.42l-1.63-2.43v2.43h-.38zM251.66 43.75v-3.09h.42l1.63 2.43v-2.43h.39v3.09h-.42l-1.63-2.43v2.43h-.39zM267.98 43.75v-3.09h.42l1.62 2.43v-2.43h.39v3.09H270l-1.62-2.43v2.43h-.4zM89.46 34.39v-1.31l-1.19-1.78h.5l.61.93c.11.17.22.35.31.52.09-.16.21-.34.34-.55l.6-.91h.48l-1.23 1.78v1.31h-.42zM88.46 43.75v-3.09h.42l1.62 2.43v-2.43h.39v3.09h-.42l-1.62-2.43v2.43h-.39zM105.78 34.39v-1.31l-1.19-1.78h.5l.61.93c.11.17.22.35.31.52.09-.16.21-.34.34-.55l.6-.91h.48l-1.23 1.78v1.31h-.42zM122.1 34.39v-1.31l-1.19-1.78h.5l.61.93c.11.17.22.35.31.52.09-.16.21-.34.34-.55l.6-.91h.48l-1.23 1.78v1.31h-.42zM138.42 34.39v-1.31l-1.19-1.78h.5l.61.93c.11.17.22.35.31.52.09-.16.21-.34.34-.55l.6-.91h.48l-1.23 1.78v1.31h-.42zM154.74 34.39v-1.31l-1.19-1.78h.5l.61.93c.11.17.22.35.31.52.09-.16.21-.34.34-.55l.6-.91h.48l-1.23 1.78v1.31h-.42zM171.06 34.39v-1.31l-1.19-1.78h.5l.61.93c.11.17.22.35.31.52.09-.16.21-.34.34-.55l.6-.91h.48l-1.23 1.78v1.31h-.42zM187.38 34.39v-1.31l-1.19-1.78h.5l.61.93c.11.17.22.35.31.52.09-.16.21-.34.34-.55l.6-.91h.48l-1.23 1.78v1.31h-.42zM203.7 34.39v-1.31l-1.19-1.78h.5l.61.93c.11.17.22.35.31.52.09-.16.21-.34.34-.55l.6-.91h.48l-1.23 1.78v1.31h-.42zM220.02 34.39v-1.31l-1.19-1.78h.5l.61.93c.11.17.22.35.31.52.09-.16.21-.34.34-.55l.6-.91h.48l-1.23 1.78v1.31h-.42zM236.35 34.39v-1.31l-1.19-1.78h.5l.61.93c.11.17.22.35.31.52.09-.16.21-.34.34-.55l.6-.91h.48l-1.23 1.78v1.31h-.42zM252.67 34.39v-1.31l-1.19-1.78h.5l.61.93c.11.17.22.35.31.52.09-.16.21-.34.34-.55l.6-.91h.48l-1.23 1.78v1.31h-.42zM268.99 34.39v-1.31l-1.19-1.78h.5l.61.93c.11.17.22.35.31.52.09-.16.21-.34.34-.55l.6-.91h.48l-1.23 1.78v1.31h-.42zM104.79 43.75v-3.09h.42l1.62 2.43v-2.43h.39v3.09h-.42l-1.62-2.43v2.43h-.39zM121.11 43.75v-3.09h.42l1.62 2.43v-2.43h.39v3.09h-.42l-1.62-2.43v2.43h-.39zM137.43 43.75v-3.09h.42l1.62 2.43v-2.43h.39v3.09h-.42l-1.62-2.43v2.43h-.39zM153.75 43.75v-3.09h.42l1.62 2.43v-2.43h.39v3.09h-.42l-1.62-2.43v2.43h-.39zM170.07 43.75v-3.09h.42l1.62 2.43v-2.43h.39v3.09h-.42l-1.62-2.43v2.43h-.39zM186.4 43.75v-3.09h.42l1.62 2.43v-2.43h.39v3.09h-.42l-1.62-2.43v2.43h-.39zM202.72 43.75v-3.09h.42l1.62 2.43v-2.43h.39v3.09h-.42l-1.63-2.43v2.43h-.38zM24.17 27.79h252v.48h-252zM24.17 47.35h252v.48h-252zM24.17 67.27h252v.48h-252zM15.53 11.7v70.57h.48V11.66c-.16.02-.32.03-.48.04zM23.69 12.19h.48v70.08h-.48z"/><path d="M80.81 12.19h.48v70.08h-.48zM97.13 12.19h.48v70.08h-.48zM113.45 12.19h.48v70.08h-.48zM129.77 12.19h.48v70.08h-.48zM146.09 12.19h.48v70.08h-.48zM162.41 12.19h.48v70.08h-.48zM178.73 12.19h.48v70.08h-.48zM195.05 12.19h.48v70.08h-.48zM211.37 12.19h.48v70.08h-.48zM227.69 12.19h.48v70.08h-.48zM260.33 12.19h.48v70.08h-.48zM292.97 12.19h.48v70.08h-.48zM309.29 12.19h.48v70.08h-.48zM325.61 12.19h.48v70.08h-.48zM341.93 12.19h.48v70.08h-.48zM358.25 12.19h.48v70.08h-.48zM374.57 12.19h.48v70.08h-.48zM391.08 12.19h-.19v70.08h.48V12.21c-.1 0-.19-.01-.29-.02zM407.21 12.93v69.34h.48V12.95c-.16-.01-.32-.01-.48-.02zM423.53 12.9v69.38h.48v-69.4c-.16 0-.32.01-.48.02zM244.49 82.87V12.19h-.48v70.63c.17 0 .32.03.48.05zM284.81 11.5v70.78h.48V11.57c-.16-.02-.32-.05-.48-.07zM301.29 11.34c-.05 0-.11-.01-.16-.02v70.95h.48V11.34h-.32zM317.45 11.29v70.98h.48V11.29c-.16 0-.32.01-.48 0zM333.77 11.57v70.7h.48V11.55c-.16.01-.32.02-.48.02zM350.09 11.34v70.93h.48V11.34c-.16 0-.32.01-.48 0zM366.41 11.53v70.74h.48V11.49c-.16.02-.32.03-.48.04zM382.73 11.62v70.65h.48V11.66c-.16-.01-.32-.02-.48-.04zM399.05 12.64v69.63h.48V12.66c-.16-.01-.32-.01-.48-.02zM415.37 13.03v69.24h.48V13.03h-.48zM431.69 12.45v69.83h.48V12.41c-.16.02-.32.02-.48.04z"/><path d="M276.22 82.59c.51-.01 1.01.01 1.51.06V11.71h-1.56v70.88h.05z" fill-rule="evenodd" clip-rule="evenodd"/><path d="M277.73 27.79h162.6v.48h-162.6zM277.73 47.35h162.6v.48h-162.6zM277.73 67.27h162.6v.48h-162.6z"/><g><path d="M92.23 42.33c0 1.1-.3 1.96-.9 2.58s-1.42.93-2.46.93c-.92 0-1.68-.32-2.27-.95-.58-.62-.86-1.46-.86-2.5 0-1.1.25-2 .76-2.68.55-.73 1.35-1.1 2.39-1.1 1.05 0 1.87.33 2.46.98.59.64.88 1.56.88 2.74zm-.82.02c0-.96-.22-1.7-.65-2.21-.43-.51-1.05-.76-1.85-.76-.76 0-1.34.25-1.73.75-.4.5-.59 1.22-.59 2.18 0 .84.22 1.5.66 2.01.44.5 1.01.75 1.71.75.75 0 1.35-.24 1.79-.71.43-.49.66-1.16.66-2.01z"/></g><g><path d="M91.28 22.98c.25 0 .37.33.37 1 0 .95-.16 1.43-.49 1.43-.15 0-.23-.07-.23-.22 0-.03.01-.11.04-.23.03-.14.05-.26.07-.37-1.12-.32-2.05-.49-2.81-.49h-.03c.23.49.34.84.34 1.04 0 .14-.09.21-.26.21-.1 0-.18-.04-.23-.11-.03-.04-.07-.15-.13-.31-.04-.1-.12-.33-.24-.67-.07-.2-.11-.33-.11-.4 0-.24.21-.36.62-.36.65 0 1.61.17 2.9.5 0-.03.01-.08.01-.14 0-.12-.02-.25-.06-.4s-.06-.22-.06-.24c0-.16.1-.24.3-.24zM89.91 19.97c.09 0 .16.07.21.21.04.12.09.34.12.65.3.05.58.08.86.1.14.01.27.02.41.02.14.01.24.04.3.08s.09.11.09.21c0 .19-.13.29-.4.29-.06 0-.47-.05-1.24-.14-.07.88-.29 1.32-.65 1.32-.17 0-.46-.07-.88-.2-.24-.08-.49-.21-.76-.39-.33-.22-.49-.41-.49-.57 0-.17.06-.25.18-.25.05 0 .13.04.24.11.12.09.24.17.37.26.38.26.81.41 1.29.44.12-.21.17-.47.17-.76v-.04c-1.02-.25-1.64-.44-1.85-.58-.06-.04-.08-.1-.08-.19 0-.11.02-.2.07-.26s.11-.1.18-.1c.05 0 .23.06.53.18.39.16.76.29 1.1.38-.01-.1-.03-.2-.06-.31-.02-.09-.04-.15-.04-.17.01-.2.12-.29.33-.29zM89.43 16.47c.64 0 1.16.15 1.55.45.39.3.58.7.58 1.19s-.16.89-.47 1.18c-.31.3-.74.44-1.27.44-.63 0-1.14-.17-1.53-.52s-.59-.78-.59-1.29c0-.45.15-.8.46-1.07.3-.25.73-.38 1.27-.38zm.12.58c-.42 0-.75.08-.99.25-.24.17-.37.4-.37.68 0 .33.14.61.43.83.3.23.69.34 1.17.34.39 0 .7-.1.93-.29.22-.19.33-.44.33-.75 0-.29-.15-.55-.44-.76-.28-.2-.64-.3-1.06-.3z"/></g><g><path d="M124.36 23.13c.25.01.36.35.33 1.01-.03.95-.21 1.42-.54 1.41-.15 0-.23-.08-.22-.23 0-.03.02-.11.05-.23.04-.14.06-.26.08-.36-1.1-.36-2.04-.56-2.79-.59h-.04c.21.5.31.85.3 1.05-.01.14-.1.21-.27.2-.1 0-.18-.04-.22-.11-.03-.04-.07-.15-.11-.32-.03-.1-.1-.33-.22-.67-.07-.2-.1-.33-.1-.41.01-.24.22-.35.64-.34.65.02 1.61.22 2.88.6 0-.03.01-.08.01-.14 0-.12-.01-.26-.04-.4s-.05-.22-.05-.24c.01-.16.11-.24.31-.23zM123.11 20.08c.09 0 .16.08.2.22.04.12.07.34.1.65.29.06.58.1.85.13.14.01.27.03.41.04.14.02.24.05.29.09.06.04.08.12.08.22-.01.19-.14.29-.41.28-.06 0-.47-.07-1.24-.19-.1.88-.33 1.31-.7 1.29-.17-.01-.46-.08-.87-.23-.24-.09-.48-.23-.74-.42-.32-.24-.48-.43-.47-.59.01-.17.07-.25.19-.25.05 0 .13.04.24.12l.36.27c.37.28.79.44 1.28.48.12-.21.19-.46.2-.75v-.04c-1.01-.29-1.62-.5-1.83-.65-.06-.04-.08-.1-.08-.19 0-.11.03-.19.08-.26s.11-.1.18-.1c.05 0 .23.07.52.19.39.17.75.31 1.08.42-.01-.1-.03-.2-.05-.32a1.19 1.19 0 0 1-.03-.17c.03-.17.14-.25.36-.24zM123.51 17.24c.46.02.83.18 1.11.48.28.3.41.68.4 1.14-.01.34-.1.61-.28.82a.74.74 0 0 1-.63.3c-.08 0-.15-.03-.21-.09s-.08-.12-.08-.19c0-.05.03-.09.08-.13.01 0 .07-.04.2-.11.25-.14.37-.34.38-.6.01-.3-.07-.55-.24-.73s-.4-.28-.7-.29c-.33-.01-.61.07-.85.24-.24.17-.36.38-.37.63-.01.14.02.3.08.46.06.16.09.26.08.29 0 .15-.09.22-.25.22-.5-.02-.95-.11-1.35-.27-.17-.07-.26-.24-.25-.52.01-.4.1-.78.26-1.15.09-.22.2-.33.31-.33.08 0 .14.04.2.11.05.07.08.16.08.27 0 .1-.05.25-.13.46-.08.22-.13.38-.13.49 0 0 0 .05.01.15.19.1.4.16.64.17-.04-.19-.06-.36-.06-.51.01-.4.18-.73.49-.97.32-.24.72-.35 1.21-.34z"/></g><g><path d="M156.14 23.45c.25-.01.39.32.42.98.04.95-.1 1.44-.42 1.45-.15.01-.23-.06-.24-.21 0-.03.01-.11.03-.23.02-.14.04-.26.05-.37-1.13-.27-2.07-.39-2.83-.36h-.04c.25.48.38.82.39 1.02.01.14-.08.21-.25.22-.1 0-.18-.03-.23-.1-.03-.04-.08-.14-.14-.31-.04-.1-.13-.32-.27-.65-.08-.19-.13-.32-.13-.4-.01-.24.19-.37.61-.39.65-.03 1.62.09 2.92.37v-.14c-.01-.12-.03-.25-.08-.39s-.07-.22-.07-.24c-.02-.16.08-.24.28-.25zM154.63 20.51c.09 0 .16.06.22.2.05.12.1.33.15.64.3.04.58.06.86.06h.41c.14.01.24.03.3.07.06.04.09.11.1.21.01.19-.12.3-.38.31-.06 0-.47-.03-1.25-.09-.03.88-.23 1.33-.59 1.35-.17.01-.47-.05-.88-.16-.24-.07-.5-.19-.77-.36-.34-.21-.51-.39-.52-.55-.01-.17.05-.25.17-.26.05 0 .14.03.25.09.12.08.25.16.38.25.39.24.83.37 1.31.38.11-.22.15-.48.14-.77v-.04c-1.03-.2-1.66-.37-1.88-.5a.202.202 0 0 1-.09-.18c0-.11.02-.2.06-.27.05-.07.1-.11.17-.11.05 0 .23.05.54.15.4.14.77.25 1.11.33-.02-.1-.04-.2-.08-.31a.695.695 0 0 1-.04-.17c-.01-.17.1-.26.31-.27zM153.99 17.03c.64-.03 1.17.1 1.57.38.4.28.61.67.63 1.17.02.49-.12.89-.42 1.2-.3.31-.72.48-1.25.5-.63.03-1.15-.12-1.55-.45-.41-.33-.62-.75-.64-1.26-.02-.45.12-.81.41-1.09s.71-.43 1.25-.45zm.15.57c-.42.02-.74.12-.98.3s-.35.41-.34.69c.02.33.17.6.47.81.31.21.7.31 1.19.29.39-.02.69-.13.91-.33.21-.2.31-.45.3-.76-.01-.29-.17-.54-.47-.74-.3-.18-.66-.27-1.08-.26z"/></g><g><path d="M222.19 23.23c.25-.01.38.32.41.99.03.95-.11 1.43-.44 1.45-.15.01-.23-.07-.24-.21 0-.03.01-.11.03-.23.03-.14.04-.26.05-.37-1.13-.28-2.07-.41-2.83-.38h-.04c.25.48.37.82.38 1.02 0 .14-.08.21-.26.22-.1 0-.18-.03-.23-.1-.03-.04-.08-.14-.14-.31l-.27-.66a1.89 1.89 0 0 1-.13-.4c-.01-.24.2-.37.61-.38.65-.02 1.62.11 2.91.39v-.14c0-.12-.03-.25-.07-.39-.04-.14-.06-.22-.07-.24.03-.16.13-.25.33-.26zM220.71 20.28c.09 0 .16.06.22.2.05.12.1.33.15.64.3.04.59.06.86.07.14 0 .27.01.41.01.14.01.24.03.3.07.06.04.09.11.09.21.01.19-.12.29-.38.3-.06 0-.47-.03-1.25-.1-.04.88-.24 1.33-.6 1.34-.17.01-.47-.05-.88-.17-.24-.07-.5-.19-.77-.36-.33-.21-.51-.4-.51-.56-.01-.17.05-.25.17-.26.05 0 .14.03.24.1.12.08.25.16.38.25.39.25.82.38 1.31.39.11-.22.16-.47.15-.77v-.04c-1.03-.21-1.66-.38-1.87-.51a.202.202 0 0 1-.09-.18c0-.11.02-.2.06-.27.05-.07.1-.11.17-.11.05 0 .23.05.54.16.4.14.77.26 1.11.34-.02-.1-.04-.2-.07-.31a.695.695 0 0 1-.04-.17c-.02-.17.09-.26.3-.27zM220.1 16.79c.64-.02 1.17.11 1.56.39.4.29.61.68.62 1.17.02.49-.12.89-.43 1.2-.3.31-.72.47-1.25.49-.63.02-1.15-.13-1.55-.46-.4-.33-.61-.75-.63-1.27-.02-.45.12-.81.42-1.08.31-.27.72-.42 1.26-.44zm.14.58c-.42.01-.74.11-.98.29s-.35.41-.34.69c.01.33.17.61.46.82.31.22.7.32 1.18.3.39-.01.69-.12.92-.32.22-.2.32-.45.31-.76-.01-.29-.16-.54-.46-.74-.3-.2-.66-.29-1.09-.28z"/></g><g><path d="M189.18 23.32c.25 0 .37.33.37 1 0 .95-.16 1.43-.49 1.43-.15 0-.23-.07-.23-.22 0-.03.01-.11.04-.23.03-.14.05-.26.07-.37-1.12-.32-2.05-.49-2.81-.49h-.04c.23.49.34.84.34 1.04 0 .14-.09.21-.26.21-.1 0-.18-.04-.23-.11-.03-.04-.07-.15-.13-.31-.04-.1-.12-.33-.24-.67-.07-.2-.11-.33-.11-.4 0-.24.21-.36.62-.36.65 0 1.61.17 2.9.5 0-.03.01-.08.01-.14 0-.12-.02-.25-.06-.39s-.06-.22-.06-.24c.01-.17.11-.25.31-.25zM188.11 20.41c.46 0 .84.15 1.13.44s.44.67.44 1.13c0 .34-.08.62-.25.83s-.37.32-.61.32c-.08 0-.15-.03-.21-.08a.25.25 0 0 1-.08-.19c0-.05.02-.09.07-.13.01-.01.07-.04.19-.12.24-.15.36-.35.36-.62 0-.3-.09-.54-.26-.72-.18-.18-.41-.26-.71-.26-.33 0-.61.09-.84.27s-.35.4-.35.65c0 .14.03.3.1.46s.1.25.1.29c0 .15-.08.23-.25.23-.5 0-.95-.07-1.36-.22-.18-.06-.26-.23-.26-.51 0-.4.07-.79.21-1.16.09-.22.18-.34.3-.34.08 0 .14.04.2.11s.09.16.09.27c0 .1-.04.25-.11.47s-.11.38-.11.5c0 0 0 .05.01.15.19.1.41.14.65.14-.05-.19-.08-.36-.08-.51 0-.4.15-.73.46-.99s.68-.41 1.17-.41zM187.33 16.78c.64 0 1.16.15 1.55.45s.58.7.58 1.19-.16.89-.47 1.18-.74.44-1.27.44c-.63 0-1.14-.17-1.53-.52s-.59-.78-.59-1.29c0-.45.15-.8.46-1.07s.73-.38 1.27-.38zm.12.58c-.42 0-.75.09-.99.25-.24.17-.37.4-.37.68 0 .33.14.61.43.83.3.23.69.34 1.17.34.39 0 .7-.1.93-.29.22-.19.33-.44.33-.75 0-.29-.15-.55-.44-.75-.28-.21-.64-.31-1.06-.31z"/></g><g><path d="M125.18 42.22c0 1.1-.3 1.96-.9 2.58s-1.42.93-2.46.93c-.92 0-1.68-.32-2.27-.95-.58-.62-.86-1.46-.86-2.5 0-1.1.25-2 .76-2.68.55-.73 1.35-1.1 2.39-1.1 1.05 0 1.87.33 2.46.98.58.64.88 1.56.88 2.74zm-.82.02c0-.96-.22-1.7-.65-2.21-.43-.51-1.05-.76-1.85-.76-.76 0-1.34.25-1.73.75-.4.5-.59 1.22-.59 2.18 0 .84.22 1.5.66 2.01.44.5 1.01.75 1.71.75.75 0 1.35-.24 1.79-.71.43-.5.66-1.16.66-2.01z"/></g><g><path d="M90.34 78.29c0 .19-.13.39-.4.61-.45.36-1.02.54-1.72.54-.75 0-1.33-.23-1.74-.68s-.62-1.09-.62-1.91c0-.79.21-1.44.62-1.93.45-.54 1.05-.8 1.8-.8.64 0 1.16.17 1.56.5.15.12.23.24.23.34 0 .08-.03.15-.09.21s-.13.09-.21.09c-.05 0-.12-.03-.22-.1-.42-.3-.85-.45-1.29-.45-.54 0-.98.19-1.3.58s-.49.91-.49 1.57c0 1.33.58 2 1.74 2 .66 0 1.13-.16 1.42-.48l.19-.25c.08-.09.15-.13.23-.13.08 0 .15.03.21.08s.08.13.08.21z"/></g><g><path d="M123.68 78.89c0 .19-.13.39-.4.61-.45.36-1.02.54-1.72.54-.75 0-1.33-.23-1.74-.68s-.62-1.09-.62-1.91c0-.79.21-1.44.62-1.93.45-.54 1.05-.8 1.8-.8.64 0 1.16.17 1.56.5.15.12.23.24.23.34 0 .08-.03.15-.09.21s-.13.09-.21.09c-.05 0-.12-.03-.22-.1-.42-.3-.85-.45-1.29-.45-.54 0-.98.19-1.3.58s-.49.91-.49 1.57c0 1.33.58 2 1.74 2 .66 0 1.13-.16 1.42-.48l.19-.25c.06-.07.13-.11.21-.11.08 0 .15.03.21.08s.1.11.1.19z"/></g><g><path d="M190.87 42.04c0 1.1-.3 1.96-.9 2.58s-1.42.93-2.46.93c-.92 0-1.68-.32-2.27-.95-.58-.62-.86-1.46-.86-2.5 0-1.1.25-2 .76-2.68.55-.73 1.35-1.1 2.39-1.1 1.05 0 1.87.33 2.46.98.59.64.88 1.56.88 2.74zm-.82.03c0-.96-.22-1.7-.65-2.21-.43-.51-1.05-.76-1.85-.76-.76 0-1.34.25-1.73.75-.4.5-.59 1.22-.59 2.18 0 .84.22 1.5.66 2.01.44.5 1.01.75 1.71.75.75 0 1.35-.24 1.79-.71.44-.5.66-1.17.66-2.01z"/></g><g><path d="M157.59 42.22c0 1.1-.3 1.96-.9 2.58s-1.42.93-2.46.93c-.92 0-1.68-.32-2.27-.95-.58-.62-.86-1.46-.86-2.5 0-1.1.25-2 .76-2.68.55-.73 1.35-1.1 2.39-1.1 1.05 0 1.87.33 2.46.98.58.64.88 1.56.88 2.74zm-.82.02c0-.96-.22-1.7-.65-2.21-.43-.51-1.05-.76-1.85-.76-.76 0-1.34.25-1.73.75-.4.5-.59 1.22-.59 2.18 0 .84.22 1.5.66 2.01.44.5 1.01.75 1.71.75.75 0 1.35-.24 1.79-.71.43-.5.66-1.16.66-2.01z"/></g><g><path d="M223.28 41.87c0 1.1-.3 1.96-.9 2.58s-1.42.93-2.46.93c-.92 0-1.68-.32-2.27-.95-.58-.62-.86-1.46-.86-2.5 0-1.1.25-2 .76-2.68.55-.73 1.34-1.1 2.39-1.1s1.87.33 2.46.98c.59.64.88 1.55.88 2.74zm-.82.02c0-.96-.22-1.7-.65-2.21-.43-.51-1.05-.76-1.85-.76-.76 0-1.34.25-1.73.75-.4.5-.59 1.22-.59 2.18 0 .84.22 1.5.66 2.01.44.5 1.01.75 1.71.75.75 0 1.34-.24 1.79-.71.43-.5.66-1.16.66-2.01z"/></g><g><path d="M282.8 23.58c.25-.01.38.32.41.99.03.95-.11 1.43-.43 1.45-.15.01-.23-.07-.24-.21 0-.03.01-.11.03-.23.03-.14.04-.26.05-.37-1.13-.28-2.07-.41-2.83-.38h-.04c.25.48.37.82.38 1.02.01.14-.08.21-.25.22-.1 0-.18-.03-.23-.1-.03-.04-.08-.15-.14-.31l-.27-.66a1.89 1.89 0 0 1-.13-.4c-.01-.24.2-.37.61-.38.65-.02 1.62.11 2.91.39v-.14c0-.12-.03-.25-.07-.39s-.07-.22-.07-.24c.01-.17.11-.25.31-.26zM281.33 20.63c.09 0 .16.06.22.2.05.12.1.33.15.64.3.04.58.06.86.07.14 0 .27.01.41.01.14.01.24.03.3.07.06.04.09.11.09.21.01.19-.12.29-.38.3-.06 0-.47-.03-1.25-.1-.04.88-.24 1.33-.6 1.34-.17.01-.47-.05-.88-.17-.24-.07-.5-.19-.77-.37-.34-.21-.51-.4-.51-.56-.01-.17.05-.25.17-.26.05 0 .14.03.24.1.12.08.25.16.38.25.39.25.82.38 1.31.39.11-.22.16-.48.15-.77v-.04c-1.03-.21-1.66-.38-1.87-.51a.202.202 0 0 1-.09-.18c0-.11.02-.2.06-.27.05-.07.11-.11.18-.11.05 0 .23.05.54.16.4.14.77.26 1.11.34-.02-.1-.04-.2-.07-.31a.695.695 0 0 1-.04-.17c-.03-.16.07-.26.29-.26zM280.72 17.14c.64-.02 1.17.11 1.56.39.4.29.61.68.62 1.17.02.49-.13.89-.43 1.2-.3.31-.72.47-1.25.49-.63.02-1.15-.13-1.55-.46-.4-.33-.61-.75-.63-1.27-.02-.45.12-.81.42-1.08s.72-.42 1.26-.44zm.14.58c-.42.01-.74.11-.98.29s-.35.41-.34.69c.01.33.17.6.46.81.31.22.7.32 1.18.3.39-.01.69-.12.91-.32.22-.2.32-.45.31-.76-.01-.29-.17-.54-.46-.74-.3-.19-.66-.28-1.08-.27z"/></g><g><path d="M290.86 23.93c.25-.01.38.32.41.99.03.95-.11 1.43-.43 1.45-.15.01-.23-.07-.24-.21 0-.03.01-.11.03-.23.03-.14.04-.26.05-.37-1.13-.28-2.07-.41-2.83-.39h-.04c.25.48.37.82.38 1.02 0 .14-.08.21-.26.22-.1 0-.18-.03-.23-.1-.03-.04-.08-.14-.14-.31l-.27-.66a1.89 1.89 0 0 1-.13-.4c-.01-.24.19-.37.61-.38.65-.02 1.62.11 2.91.39v-.14c0-.12-.03-.25-.07-.39s-.06-.22-.07-.24c.02-.15.12-.24.32-.25zM289.39 20.98c.09 0 .16.06.22.2.05.12.1.33.15.64.3.04.58.06.86.07.14 0 .27.01.41.01.14.01.24.03.3.07.06.04.09.11.09.21.01.19-.12.29-.38.3-.06 0-.47-.03-1.25-.1-.04.88-.24 1.33-.6 1.34-.17.01-.47-.05-.88-.17-.24-.07-.5-.19-.77-.37-.34-.21-.51-.39-.51-.55-.01-.17.05-.25.17-.26.05 0 .14.03.24.1.12.08.25.16.38.25.39.25.82.38 1.31.39.11-.22.16-.47.15-.77v-.04c-1.03-.21-1.66-.38-1.87-.51a.202.202 0 0 1-.09-.18c0-.11.02-.2.06-.27.05-.07.1-.11.17-.11.05 0 .23.05.54.16.4.14.77.26 1.11.34-.02-.1-.04-.2-.07-.31a.695.695 0 0 1-.04-.17c-.03-.17.08-.26.3-.27zM289.58 18.12c.46-.02.84.12 1.15.4.3.28.46.65.48 1.11.01.34-.06.62-.22.84-.16.22-.36.33-.6.34-.08 0-.16-.02-.21-.08s-.09-.12-.09-.19c0-.05.02-.09.07-.13.01-.01.07-.05.19-.12.23-.16.35-.37.34-.63-.01-.3-.11-.54-.29-.71s-.42-.25-.72-.24c-.33.01-.61.11-.83.3-.22.19-.33.41-.32.66 0 .14.04.29.11.45.07.16.11.25.11.29.01.15-.07.23-.24.24-.5.02-.96-.04-1.37-.17-.18-.06-.27-.22-.28-.5-.01-.4.04-.79.17-1.17.08-.23.17-.34.28-.35.08 0 .14.03.2.1s.09.16.1.26c0 .1-.03.25-.09.47-.07.22-.1.39-.09.5 0 0 .01.05.02.15.2.09.41.13.65.12-.06-.18-.09-.35-.09-.51-.01-.4.13-.74.42-1.01.27-.26.66-.4 1.15-.42z"/></g><g><path d="M298.92 23.93c.25-.01.38.32.41.99.03.95-.11 1.43-.43 1.45-.15.01-.23-.07-.24-.21 0-.03.01-.11.03-.23.03-.14.04-.26.05-.37-1.13-.28-2.07-.41-2.83-.39h-.04c.25.48.37.82.38 1.03 0 .14-.08.21-.26.22-.1 0-.18-.03-.23-.1-.03-.04-.08-.14-.14-.31l-.27-.66a1.89 1.89 0 0 1-.13-.4c-.01-.24.2-.37.61-.38.65-.02 1.62.11 2.91.39v-.14c0-.12-.03-.25-.07-.39s-.06-.22-.07-.24c.02-.16.12-.25.32-.26zM297.75 21.06c.46-.02.84.12 1.15.4.3.28.46.65.48 1.11.01.34-.06.62-.22.84s-.36.33-.6.34c-.08 0-.16-.02-.21-.08s-.09-.12-.09-.19c0-.05.02-.09.07-.13.01-.01.07-.05.19-.12.23-.16.35-.37.34-.63-.01-.3-.11-.54-.29-.71-.18-.17-.42-.25-.72-.24-.33.01-.61.11-.83.3-.22.19-.33.41-.32.66.01.14.04.29.11.45.07.16.11.25.11.29 0 .15-.07.23-.24.24-.5.02-.96-.04-1.37-.17-.18-.06-.27-.22-.28-.5-.01-.4.04-.79.17-1.17.08-.23.17-.34.28-.35.08 0 .14.03.2.1s.09.16.1.26c0 .09-.03.25-.09.47-.07.22-.1.39-.09.5 0 0 .01.05.02.15.2.09.41.13.65.12-.06-.18-.09-.35-.09-.51-.01-.4.13-.74.42-1.01.26-.25.66-.4 1.15-.42zM296.83 17.47c.64-.02 1.17.11 1.56.39.4.29.61.68.62 1.17.02.49-.12.89-.43 1.2-.3.31-.72.47-1.25.49-.63.02-1.15-.13-1.55-.46-.4-.33-.61-.75-.63-1.27-.02-.45.13-.81.42-1.08.31-.28.72-.43 1.26-.44zm.14.57c-.42.01-.74.11-.98.29s-.35.41-.34.69c.01.33.17.6.46.81.31.22.7.32 1.18.3.39-.01.69-.12.92-.32.22-.19.32-.45.31-.76-.01-.29-.16-.54-.46-.74-.3-.19-.66-.28-1.09-.27z"/></g><g><path d="M307.15 23.41c.25-.01.38.32.41.99.03.95-.11 1.43-.43 1.45-.15 0-.23-.07-.24-.21 0-.03.01-.11.03-.23.03-.14.04-.26.05-.37-1.13-.28-2.07-.41-2.83-.38h-.04c.25.48.37.82.38 1.02 0 .14-.08.21-.26.22-.1 0-.18-.03-.23-.1-.03-.04-.08-.14-.14-.31l-.27-.66a1.89 1.89 0 0 1-.13-.4c-.01-.24.19-.37.61-.38.65-.02 1.62.11 2.91.39v-.14c0-.12-.03-.25-.07-.39-.04-.14-.07-.22-.07-.24.02-.17.12-.25.32-.26zM306.35 20.53c.39-.01.71.09.96.3s.38.5.39.87c.01.41-.14.73-.47.96-.33.23-.82.36-1.46.38-.83.03-1.49-.09-1.98-.35-.47-.26-.72-.62-.73-1.08-.01-.3.09-.55.32-.76.12-.11.23-.17.32-.17.08 0 .14.03.21.11s.09.16.1.25c0 .06-.03.12-.09.16-.22.16-.33.31-.32.47.01.23.17.41.48.55.33.15.78.22 1.36.23-.21-.17-.32-.4-.33-.7-.01-.34.1-.62.34-.85s.52-.35.9-.37zm.14.6c-.27.01-.49.09-.65.23a.64.64 0 0 0-.23.53c.01.16.07.29.19.39.12.09.29.14.49.13.26-.01.47-.09.64-.23.17-.14.25-.31.25-.51a.53.53 0 0 0-.19-.4c-.13-.11-.29-.15-.5-.14zM305.07 17c.64-.02 1.17.11 1.56.39.4.29.61.68.62 1.17.02.49-.12.89-.43 1.2-.3.31-.72.47-1.25.49-.63.02-1.15-.13-1.55-.46-.4-.33-.61-.75-.63-1.27-.02-.45.12-.81.42-1.08.3-.28.72-.42 1.26-.44zm.14.57c-.42.01-.74.11-.98.29s-.35.41-.34.69c.01.33.17.6.46.81.31.22.7.32 1.18.3.39-.01.69-.12.92-.32.22-.19.32-.45.31-.76-.01-.29-.17-.54-.46-.74s-.67-.28-1.09-.27z"/></g><g><path d="M316.26 23.41c.25-.01.38.32.41.99.03.95-.11 1.43-.43 1.45-.15 0-.23-.07-.24-.21 0-.03.01-.11.03-.23.03-.14.04-.26.05-.37-1.13-.28-2.07-.41-2.83-.38h-.04c.25.48.37.82.38 1.02 0 .14-.08.21-.26.22-.1 0-.18-.03-.23-.1-.03-.04-.08-.14-.14-.31l-.27-.66a1.89 1.89 0 0 1-.13-.4c-.01-.24.19-.37.61-.38.65-.02 1.62.11 2.91.39v-.14c0-.12-.03-.25-.07-.39-.04-.14-.06-.22-.07-.24.02-.17.12-.25.32-.26zM315.46 20.53c.39-.01.71.09.96.3s.38.5.39.87c.02.41-.14.73-.47.96-.33.23-.82.36-1.46.38-.83.03-1.49-.09-1.98-.35-.47-.26-.72-.62-.73-1.08-.01-.3.09-.55.32-.76.12-.11.23-.17.33-.17.08 0 .14.03.2.11s.09.16.1.25c0 .06-.03.12-.09.16-.22.16-.33.31-.32.47.01.23.17.41.48.55.33.15.78.22 1.36.23-.21-.17-.32-.4-.33-.7-.01-.34.1-.62.34-.85s.52-.35.9-.37zm.14.6c-.27.01-.49.09-.65.23a.64.64 0 0 0-.23.53c.01.16.07.29.19.39.12.09.29.14.49.13.26-.01.47-.09.64-.23.17-.14.25-.31.24-.51a.53.53 0 0 0-.19-.4c-.12-.11-.28-.15-.49-.14zM314.18 17c.64-.02 1.17.11 1.56.39s.61.68.62 1.17c.02.49-.12.89-.43 1.2-.3.31-.72.47-1.25.49-.63.02-1.15-.13-1.55-.46-.4-.33-.61-.75-.63-1.27-.02-.45.12-.81.42-1.08.3-.28.72-.42 1.26-.44zm.14.57c-.42.01-.74.11-.98.29s-.35.41-.34.69c.01.33.17.6.46.81.31.22.7.32 1.18.3.39-.01.69-.12.92-.32.22-.19.32-.45.31-.76-.01-.29-.16-.54-.46-.74-.31-.19-.67-.28-1.09-.27z"/></g><g><path d="M284.25 42.74c0 1.1-.3 1.96-.9 2.58s-1.42.93-2.46.93c-.92 0-1.68-.32-2.27-.95-.58-.62-.86-1.46-.86-2.5 0-1.1.25-2 .76-2.68.55-.73 1.34-1.1 2.39-1.1s1.87.33 2.46.98c.58.64.88 1.56.88 2.74zm-.83.03c0-.96-.22-1.7-.65-2.21-.43-.51-1.05-.76-1.85-.76-.76 0-1.34.25-1.73.75-.4.5-.59 1.22-.59 2.18 0 .84.22 1.5.66 2.01.44.5 1.01.75 1.71.75.75 0 1.34-.24 1.79-.71.44-.5.66-1.17.66-2.01z"/></g><g><path d="M291.95 33.63c0 1.1-.3 1.96-.9 2.58s-1.42.93-2.46.93c-.92 0-1.68-.32-2.27-.95-.58-.62-.86-1.46-.86-2.5 0-1.1.25-2 .76-2.68.55-.73 1.34-1.1 2.39-1.1s1.87.33 2.46.98c.59.64.88 1.56.88 2.74zm-.82.03c0-.96-.22-1.7-.65-2.21-.43-.51-1.05-.76-1.85-.76-.76 0-1.34.25-1.73.75-.4.5-.59 1.22-.59 2.18 0 .84.22 1.5.66 2.01.44.5 1.01.75 1.71.75.75 0 1.34-.24 1.79-.71.44-.5.66-1.17.66-2.01z"/></g><g><path d="M300.54 33.63c0 1.1-.3 1.96-.9 2.58s-1.42.93-2.46.93c-.92 0-1.68-.32-2.27-.95-.58-.62-.86-1.46-.86-2.5 0-1.1.25-2 .76-2.68.55-.73 1.34-1.1 2.39-1.1s1.87.33 2.46.98c.58.64.88 1.56.88 2.74zm-.83.03c0-.96-.22-1.7-.65-2.21-.43-.51-1.05-.76-1.85-.76-.76 0-1.34.25-1.73.75-.4.5-.59 1.22-.59 2.18 0 .84.22 1.5.66 2.01.44.5 1.01.75 1.71.75.75 0 1.34-.24 1.79-.71.44-.5.66-1.17.66-2.01z"/></g><g><path d="M308.42 33.46c0 1.1-.3 1.96-.9 2.58s-1.42.93-2.46.93c-.92 0-1.68-.32-2.27-.95-.58-.62-.86-1.46-.86-2.5 0-1.1.25-2 .76-2.68.55-.73 1.34-1.1 2.39-1.1s1.87.33 2.46.98c.59.64.88 1.56.88 2.74zm-.82.02c0-.96-.22-1.7-.65-2.21-.43-.51-1.05-.76-1.85-.76-.76 0-1.34.25-1.73.75-.4.5-.59 1.22-.59 2.18 0 .84.22 1.5.66 2.01.44.5 1.01.75 1.71.75.75 0 1.34-.24 1.79-.71.43-.5.66-1.16.66-2.01z"/></g><g><path d="M317.36 33.28c0 1.1-.3 1.96-.9 2.58s-1.42.93-2.46.93c-.92 0-1.68-.32-2.27-.95-.58-.62-.86-1.46-.86-2.5 0-1.1.25-2 .76-2.68.55-.73 1.34-1.1 2.39-1.1s1.87.33 2.46.98c.58.64.88 1.56.88 2.74zm-.83.03c0-.96-.22-1.7-.65-2.21-.43-.51-1.05-.76-1.85-.76-.76 0-1.34.25-1.73.75-.4.5-.59 1.22-.59 2.18 0 .84.22 1.5.66 2.01.44.5 1.01.75 1.71.75.75 0 1.34-.24 1.79-.71.44-.5.66-1.17.66-2.01z"/></g><g><path d="M283.1 77.49c0 .19-.13.39-.4.61-.45.36-1.02.54-1.72.54-.75 0-1.33-.23-1.74-.68-.41-.45-.62-1.09-.62-1.91 0-.79.21-1.44.62-1.93.45-.54 1.05-.8 1.8-.8.64 0 1.16.17 1.56.5.15.12.23.24.23.34 0 .08-.03.15-.09.21s-.13.09-.21.09c-.05 0-.12-.03-.22-.1-.42-.3-.85-.45-1.29-.45-.54 0-.98.19-1.3.58s-.49.91-.49 1.57c0 1.33.58 2 1.74 2 .66 0 1.13-.16 1.42-.48l.19-.25c.06-.07.13-.11.21-.11.08 0 .15.03.21.08.07.04.1.11.1.19z"/></g><g><path d="M316.36 76.11c0 .75-.03 1.37-.1 1.84-.04.28-.15.42-.33.42-.2 0-.29-.11-.29-.32a16.9 16.9 0 0 0 .11-1.07c.02-.37.04-.76.04-1.17 0-.69-.06-1.44-.18-2.25-.47.47-.89 1.2-1.25 2.19-.07.21-.14.41-.22.62-.07.15-.17.23-.29.23-.12 0-.21-.06-.27-.18a6.05 6.05 0 0 1-.17-.52c-.24-.81-.69-1.57-1.36-2.29-.22.7-.33 1.66-.33 2.88 0 .18.01.39.02.65s.02.43.02.51c0 .3-.1.45-.3.45-.15 0-.25-.09-.3-.28-.03-.14-.04-.45-.04-.94 0-1.32.1-2.41.29-3.27.07-.29.13-.5.2-.62.07-.13.17-.19.29-.19.13 0 .27.09.44.26.34.37.61.68.79.95.3.42.54.89.74 1.41.36-.86.74-1.55 1.15-2.07.34-.46.6-.7.8-.7.08 0 .15.04.19.11.04.06.07.18.11.35.17.63.24 1.63.24 3z"/></g><g><path d="M315.75 59.76c0 .54-.16.94-.49 1.2v.01c-.3.18-.75.28-1.34.28-.88 0-1.58-.05-2.09-.16a.961.961 0 0 1-.32-.11c-.07-.05-.1-.13-.1-.22 0-.15.1-.23.31-.23.1 0 .23.01.38.04-.06-.64-.09-1.19-.09-1.64 0-.75.05-1.53.15-2.35l-.14.01H312c-.18 0-.27-.09-.27-.26 0-.13.06-.22.17-.28.1-.05.28-.07.52-.07.39 0 .69.05.91.14.21.09.31.21.31.35 0 .08-.03.15-.08.21s-.12.09-.19.09c-.05 0-.13-.03-.25-.08-.13-.06-.24-.1-.33-.11-.12.8-.18 1.58-.18 2.35 0 .34.04.91.11 1.71.46.05.82.07 1.09.07.49 0 .87-.09 1.16-.26.08-.1.14-.31.19-.61.03-.2.05-.32.08-.37.04-.08.12-.13.23-.13.18.01.28.14.28.42z"/></g><g><path d="M307.51 59.41c0 .54-.16.94-.49 1.2v.01c-.3.18-.75.28-1.34.28-.88 0-1.58-.05-2.09-.16a.961.961 0 0 1-.32-.11c-.07-.05-.1-.13-.1-.22 0-.15.1-.23.31-.23.1 0 .23.01.38.04-.06-.64-.09-1.19-.09-1.64 0-.75.05-1.53.15-2.35l-.14.01h-.02c-.18 0-.27-.09-.27-.26 0-.13.06-.22.17-.28.1-.05.28-.07.52-.07.39 0 .69.05.91.14.21.09.31.21.31.35 0 .08-.03.15-.08.21s-.12.09-.19.09c-.05 0-.13-.03-.25-.08-.13-.06-.24-.1-.33-.11-.12.8-.18 1.58-.18 2.35 0 .34.04.91.11 1.71.46.05.82.07 1.09.07.49 0 .87-.09 1.16-.26.08-.1.14-.31.19-.61.03-.2.05-.32.08-.37.04-.08.12-.13.23-.13.19.01.28.15.28.42z"/></g><g><path d="M290.58 60.15c0 .17-.2.32-.59.47-.38.14-.84.24-1.36.29-.31.03-.78.04-1.4.04-.22 0-.37-.01-.45-.02-.2-.04-.29-.12-.29-.25 0-.08.03-.15.08-.2.05-.06.12-.08.19-.08h.27c.1-.47.14-1.48.14-3.01 0-.06 0-.42-.01-1.07h-.31c-.21 0-.31-.09-.31-.27 0-.12.05-.2.16-.25.1-.04.27-.06.51-.06 1.01 0 1.82.09 2.43.28.4.12.61.27.61.43 0 .07-.03.13-.08.19s-.11.08-.17.08c-.04 0-.11-.02-.23-.07-.14-.06-.27-.1-.37-.13-.27-.07-.82-.13-1.67-.18 0 .35 0 .91-.01 1.68.25.02.48.02.71.02.16 0 .32-.01.49-.02s.26-.02.28-.02c.21 0 .32.09.32.27 0 .14-.09.23-.27.27-.12.03-.39.04-.82.04-.23 0-.47-.01-.72-.02-.02.9-.06 1.5-.11 1.83h.12c.78 0 1.37-.06 1.77-.18.11-.03.26-.1.46-.2.16-.08.27-.12.35-.12.07 0 .13.03.18.08s.1.11.1.18z"/></g><g><path d="M299.16 60.5c0 .17-.2.32-.59.47-.38.14-.84.24-1.36.29-.31.03-.78.04-1.4.04-.22 0-.37-.01-.45-.02-.2-.04-.29-.12-.29-.25 0-.08.03-.15.08-.2.05-.06.12-.08.19-.08h.27c.1-.47.14-1.48.14-3.01 0-.06 0-.42-.01-1.07h-.31c-.21 0-.31-.09-.31-.27 0-.12.05-.2.16-.25.1-.04.27-.06.51-.06 1.01 0 1.82.09 2.43.28.4.12.61.27.61.43 0 .07-.03.13-.08.19s-.11.08-.17.08c-.04 0-.11-.02-.23-.07-.14-.06-.27-.1-.37-.13-.27-.07-.82-.13-1.67-.18 0 .35 0 .91-.01 1.68.25.02.48.02.71.02.16 0 .32-.01.49-.02s.26-.02.28-.02c.21 0 .32.09.32.27 0 .14-.09.23-.27.27-.12.03-.39.04-.82.04-.23 0-.47-.01-.72-.02-.02.9-.06 1.5-.11 1.83h.12c.78 0 1.37-.06 1.77-.18.11-.03.26-.1.46-.2.16-.08.27-.12.35-.12.07 0 .13.03.18.08s.1.11.1.18z"/></g><path d="M439.76 81.63c-141.12.34-283.12.34-424.23.64" fill="#fff" stroke="#000" stroke-miterlimit="10"/></svg>