<svg version="1.1" xmlns="http://www.w3.org/2000/svg" x="0" y="0" width="329.984" height="135.764" viewBox="0 0 329.984 135.764" xml:space="preserve"><path fill="none" stroke="#000" stroke-width="1.502" d="M218.874 105.413c.708-21.455 2.004-42.851 2.182-64.306.06-8.725 3.241-13.911 11.259-13.439 9.018.53 12.79 7.015 12.201 17.389-1.12 20.1-1.77 40.198-2.652 60.356M267.031 105.59c5.835-20.63 12.438-42.025 17.683-62.833 2.182-8.487 6.543-12.731 14.146-10.374 8.664 2.652 10.786 9.845 7.78 19.746-5.895 19.274-9.137 34.011-14.854 53.345M67.095 105.355c6.307-16.445 12.85-33.187 18.566-49.631 2.829-8.252 7.544-12.143 14.972-9.137 8.37 3.36 9.902 10.729 6.013 20.336-5.6 13.97-9.549 25.582-14.205 38.432M14.577 105.355c1.296-16.858 2.711-34.07 3.418-50.691.413-8.724 3.772-13.793 11.729-13.085 9.019.825 12.555 7.427 11.611 17.801-1.531 16.858-1.886 30.18-2.888 45.977"/><path fill="none" stroke="#000" stroke-width="1" d="M240.624 35.742c-5.48-5.305-10.964-5.363-16.387-.235-2.239 9.077-1.649 17.802 7.074 20.276 6.307 1.828 10.609-4.185 9.313-20.041zM305.048 42.167c-4.065-6.425-9.37-7.84-15.854-4.126-4.303 8.252-5.837 16.858 2.003 21.396 5.718 3.301 11.317-1.532 13.851-17.27zM105.938 56.903c-3.537-6.778-8.665-8.605-15.502-5.482-4.952 7.839-7.191 16.327.294 21.516 5.365 3.712 11.377-.591 15.208-16.034zM37.741 49.948c-5.246-5.481-10.728-5.776-16.387-.825-2.476 8.959-2.239 17.742 6.425 20.571 6.19 2.004 10.728-3.832 9.962-19.746z"/><path fill="none" stroke="#000" stroke-width="4" d="M220.819.023c-.236 20.688-.825 35.837-2.476 42.852-1.711 7.191-3.949 1.65-4.656 0-2.947-7.604-1.71-16.092-2.416-24.462-.648-7.486-5.07-9.372-8.548-4.42-2.652 3.713-1.001 7.839-.53 12.438 2.829 26.348 2.476 52.812 3.714 79.22M311.768 9.808c-.472 11.376-.885 22.163-1.18 33.539-.354 11.258 1.475 11.905 3.892 8.782 2.534-3.301 4.716-10.196 6.365-18.803 1.826-9.373 3.596-14.5 5.836-14.441 2.062.06 1.296 5.776.295 16.622-2.417 24.874-5.718 47.272-9.313 70.143M21.237.73c.59 15.502.295 29.59-2.122 41.497-.059.354-2.888 9.783-4.715.529-2.123-11.021.117-19.923-3.892-25.816-1.768-2.652-6.837-2.122-7.309 2.062-3.124 28.765.413 57.824 4.185 86.646M112.835 9.336c-2.771 12.614-4.833 25.229-4.421 37.9.236 7.604 2.711 7.604 4.421 6.249 6.189-4.894 8.075-15.62 10.963-26.112 2.24-8.016 5.481-2.062 5.481-.235.531 27.173-5.363 53.226-10.138 79.042"/><path d="M49.801 130.13l.927.234c-.194.762-.544 1.342-1.049 1.741-.505.4-1.122.6-1.851.6-.755 0-1.369-.153-1.842-.461-.473-.308-.833-.752-1.08-1.335a4.764 4.764 0 0 1-.37-1.878c0-.729.139-1.365.418-1.908s.675-.956 1.19-1.237a3.472 3.472 0 0 1 1.698-.423c.701 0 1.29.178 1.768.535.478.356.811.858.999 1.505l-.913.215c-.162-.51-.398-.881-.707-1.113s-.697-.349-1.166-.349c-.539 0-.988.129-1.35.387-.362.258-.616.604-.762 1.039s-.22.883-.22 1.345c0 .596.087 1.116.26 1.561.174.444.443.776.81.996.366.22.763.329 1.189.329.519 0 .958-.149 1.319-.449.361-.3.605-.745.732-1.334zM51.439 130.049c0-.939.261-1.636.784-2.088.437-.376.968-.563 1.596-.563.698 0 1.268.229 1.71.686s.664 1.089.664 1.895c0 .652-.098 1.166-.294 1.541a2.08 2.08 0 0 1-.855.871 2.494 2.494 0 0 1-1.226.311c-.71 0-1.284-.228-1.722-.683-.438-.458-.657-1.113-.657-1.97zm.884 0c0 .65.142 1.137.425 1.46.284.323.64.484 1.07.484.427 0 .782-.162 1.065-.487.284-.324.425-.819.425-1.485 0-.628-.143-1.103-.428-1.427a1.36 1.36 0 0 0-1.063-.484c-.43 0-.787.161-1.07.482-.282.322-.424.807-.424 1.457zM57.192 132.586v-5.074h.774v.77c.198-.359.38-.598.547-.712a.959.959 0 0 1 .552-.172c.29 0 .584.093.884.277l-.296.798a1.231 1.231 0 0 0-.63-.187.817.817 0 0 0-.506.17.915.915 0 0 0-.32.47 3.347 3.347 0 0 0-.143 1.004v2.656h-.862zM60.45 132.586v-5.074h.774v.77c.198-.359.38-.598.547-.712a.959.959 0 0 1 .552-.172c.29 0 .584.093.884.277l-.296.798a1.231 1.231 0 0 0-.63-.187.817.817 0 0 0-.506.17.915.915 0 0 0-.32.47 3.347 3.347 0 0 0-.143 1.004v2.656h-.862zM67.191 130.952l.889.109c-.14.52-.399.923-.779 1.209-.379.287-.863.43-1.452.43-.742 0-1.331-.229-1.766-.686-.435-.457-.652-1.098-.652-1.923 0-.854.22-1.516.659-1.987s1.01-.707 1.71-.707c.678 0 1.232.23 1.663.692s.645 1.112.645 1.949c0 .052-.001.128-.005.229H64.32c.032.558.189.984.473 1.28.284.297.637.444 1.061.444.315 0 .584-.082.807-.248.223-.164.4-.428.53-.791zm-2.823-1.391h2.833c-.038-.427-.146-.747-.325-.96a1.319 1.319 0 0 0-1.065-.497 1.37 1.37 0 0 0-.997.396c-.269.265-.418.619-.446 1.061zM72.471 130.727l.846.109c-.093.583-.329 1.039-.709 1.369-.381.33-.848.494-1.402.494-.694 0-1.253-.227-1.675-.681s-.633-1.104-.633-1.951c0-.548.091-1.027.272-1.438.182-.411.458-.719.829-.924a2.454 2.454 0 0 1 1.211-.309c.551 0 1.001.14 1.352.418.35.278.575.675.673 1.188l-.836.129c-.08-.341-.221-.598-.423-.77s-.447-.258-.733-.258c-.433 0-.785.155-1.056.466-.271.311-.406.802-.406 1.474 0 .682.13 1.177.392 1.486.261.309.602.463 1.022.463.338 0 .62-.104.846-.311s.369-.524.43-.954zM75.929 131.816l.125.76a3.186 3.186 0 0 1-.65.076c-.312 0-.554-.049-.726-.147-.172-.099-.293-.229-.363-.39s-.105-.499-.105-1.016v-2.919h-.631v-.669h.631v-1.256l.855-.517v1.772h.865v.669h-.865v2.967c0 .246.015.403.045.474s.08.126.148.167a.573.573 0 0 0 .293.062c.097.001.223-.01.378-.033zM241.773 132.586v-7.004h.926v7.004h-.926zM244.223 132.586v-5.074h.774v.722c.372-.558.91-.836 1.614-.836.306 0 .587.055.843.165.257.109.449.254.576.432.127.179.217.391.268.636.031.159.048.438.048.836v3.12h-.86V129.5c0-.351-.033-.612-.1-.786-.067-.174-.186-.312-.356-.416s-.37-.155-.6-.155c-.366 0-.683.116-.948.349s-.398.674-.398 1.323v2.771h-.861zM252.976 130.727l.846.109c-.093.583-.329 1.039-.709 1.369-.381.33-.849.494-1.402.494-.695 0-1.254-.227-1.676-.681s-.633-1.104-.633-1.951c0-.548.092-1.027.272-1.438.182-.411.458-.719.829-.924a2.454 2.454 0 0 1 1.211-.309c.551 0 1.002.14 1.353.418s.575.675.673 1.188l-.836.129c-.079-.341-.221-.598-.422-.77a1.096 1.096 0 0 0-.734-.258c-.433 0-.785.155-1.055.466-.271.311-.406.802-.406 1.474 0 .682.13 1.177.391 1.486.262.309.603.463 1.023.463.338 0 .619-.104.846-.311.225-.206.369-.524.429-.954zM254.238 130.049c0-.939.261-1.636.783-2.088.437-.376.969-.563 1.596-.563.697 0 1.268.229 1.711.686.442.457.664 1.089.664 1.895 0 .652-.099 1.166-.295 1.541-.195.374-.48.664-.854.871s-.782.311-1.226.311c-.711 0-1.284-.228-1.723-.683-.437-.458-.656-1.113-.656-1.97zm.884 0c0 .65.142 1.137.425 1.46s.641.484 1.07.484c.427 0 .781-.162 1.065-.487.284-.324.425-.819.425-1.485 0-.628-.143-1.103-.428-1.427a1.359 1.359 0 0 0-1.062-.484c-.43 0-.787.161-1.07.482-.284.322-.425.807-.425 1.457zM259.99 132.586v-5.074h.773v.77c.197-.359.38-.598.547-.712a.964.964 0 0 1 .553-.172c.289 0 .584.093.883.277l-.296.798a1.234 1.234 0 0 0-.63-.187.822.822 0 0 0-.507.17.915.915 0 0 0-.32.47 3.346 3.346 0 0 0-.144 1.004v2.656h-.859zM263.248 132.586v-5.074h.773v.77c.198-.359.381-.598.548-.712s.351-.172.552-.172c.289 0 .584.093.884.277l-.296.798a1.238 1.238 0 0 0-.631-.187.817.817 0 0 0-.506.17.91.91 0 0 0-.32.47 3.346 3.346 0 0 0-.144 1.004v2.656h-.86zM269.989 130.952l.889.109c-.14.52-.399.923-.778 1.209-.379.287-.863.43-1.453.43-.742 0-1.33-.229-1.766-.686-.434-.457-.651-1.098-.651-1.923 0-.854.22-1.516.659-1.987s1.01-.707 1.711-.707c.678 0 1.232.23 1.662.692s.645 1.112.645 1.949c0 .052-.001.128-.004.229h-3.784c.032.558.189.984.473 1.28.284.297.638.444 1.062.444.314 0 .584-.082.807-.248s.398-.428.528-.791zm-2.823-1.391h2.833c-.038-.427-.146-.747-.325-.96a1.317 1.317 0 0 0-1.064-.497c-.396 0-.728.132-.997.396-.269.265-.419.619-.447 1.061zM275.269 130.727l.846.109c-.094.583-.33 1.039-.71 1.369-.381.33-.849.494-1.402.494-.694 0-1.253-.227-1.675-.681s-.633-1.104-.633-1.951c0-.548.091-1.027.271-1.438a1.9 1.9 0 0 1 .83-.924 2.452 2.452 0 0 1 1.211-.309c.551 0 1.002.14 1.352.418.351.278.575.675.674 1.188l-.836.129c-.08-.341-.221-.598-.423-.77s-.446-.258-.733-.258c-.434 0-.785.155-1.056.466s-.406.802-.406 1.474c0 .682.13 1.177.392 1.486.262.309.602.463 1.022.463.338 0 .62-.104.846-.311s.37-.524.43-.954zM278.727 131.816l.124.76a3.185 3.185 0 0 1-.649.076c-.312 0-.554-.049-.726-.147a.82.82 0 0 1-.363-.39c-.07-.161-.105-.499-.105-1.016v-2.919h-.631v-.669h.631v-1.256l.855-.517v1.772h.864v.669h-.864v2.967c0 .246.015.403.045.474s.08.126.148.167.166.062.293.062c.096.001.223-.01.378-.033z"/><path stroke="#000" stroke-width=".062" stroke-linecap="round" stroke-linejoin="round" d="M21.944 48.415l-.413 8.96c2.122-2.535 4.598-3.95 7.957-4.303l-7.544-4.657z"/><path fill="none" stroke="#000" stroke-width="1" d="M23.771 52.247l9.255 17.329"/><path stroke="#000" stroke-width=".062" stroke-linecap="round" stroke-linejoin="round" d="M103.581 53.485l-8.782 1.945c2.947 1.414 5.011 3.359 6.248 6.542l2.534-8.487z"/><path fill="none" stroke="#000" stroke-width="1" d="M100.339 56.255L86.016 69.753"/><path stroke="#000" stroke-width=".062" stroke-linecap="round" stroke-linejoin="round" d="M224.768 43.641l7.722 4.539c-1.238-3.065-1.356-5.836-.06-9.02l-7.662 4.481z"/><path fill="none" stroke="#000" stroke-width="1" d="M229.012 43.818h14.971"/><path stroke="#000" stroke-width=".062" stroke-linecap="round" stroke-linejoin="round" d="M305.874 46.824l-7.722-4.539c1.18 3.065 1.297 5.835.06 9.02l7.662-4.481z"/><path fill="none" stroke="#000" stroke-width="1" d="M301.571 46.647h-14.912"/></svg>