<svg version="1.1" xmlns="http://www.w3.org/2000/svg" x="0" y="0" viewBox="0 0 309.6 52" xml:space="preserve"><style type="text/css">.st0{display:none}.st1{display:inline}.st2{fill:#4f89d2}.st3{fill:#706f6f}</style><g id="bettercare" class="st0"><g class="st1"><path class="st2" d="M16.6.1l-4.4 21.2h.1c2.8-3.8 7-6 11.5-6 7.5 0 10.6 6.1 10.6 12.4 0 11.1-7.6 24.3-22.6 24.3C4.5 52 .1 48.9.1 42.6c0-2 .3-4.1.6-6L8.1.1h8.5zM9.1 36.9c-.2 1.2-.4 2.5-.4 4.2 0 2.9 1.7 4.5 4.7 4.5 7.3 0 12.2-9.4 12.2-16.3 0-3.9-1.7-7.1-5.5-7.1-4.3 0-8.8 4.5-10.2 11.5l-.8 3.2zM65.7 49.2c-3.5 1.8-8.1 2.7-12.4 2.7-9.7 0-14.4-5.9-14.4-14.5 0-10.6 7.8-22.1 19.9-22.1 6.9 0 11.3 4 11.3 9.9 0 9-9.4 11.9-23 11.6-.1 1.2.1 3.6.9 5 1.4 2.4 3.9 3.6 7.2 3.6 4 0 7.1-1 9.6-2.3l.9 6.1zm-8-27.6c-5.3 0-8.7 4.7-9.7 8.9 8.6.1 14.2-1.1 14.2-5.3-.1-2.2-1.9-3.6-4.5-3.6zM90.6 6.5l-1.8 9.6h7.9l-1.3 6.5h-7.8l-2.8 14.2c-.3 1.7-.6 3.5-.6 5 0 1.9.9 3.1 3.1 3.1 1 0 2 0 2.9-.1l-.8 6.6c-1.2.4-3.5.7-5.5.7-5.8 0-8.4-3.2-8.4-7.2 0-2 .2-4 .8-6.6l3-15.6h-4.8l1.2-6.5h4.8L82 8.6l8.6-2.1zM114.5 6.5l-1.8 9.6h7.9l-1.3 6.5h-7.8l-2.8 14.2c-.3 1.7-.6 3.5-.6 5 0 1.9.9 3.1 3.1 3.1 1 0 2 0 2.9-.1l-.8 6.6c-1.2.4-3.5.7-5.5.7-5.8 0-8.4-3.2-8.4-7.2 0-2 .2-4 .8-6.6l3-15.6h-4.8l1.2-6.5h4.8l1.4-7.6 8.7-2.1zM147.7 49.2c-3.5 1.8-8.1 2.7-12.4 2.7-9.7 0-14.4-5.9-14.4-14.5 0-10.6 7.8-22.1 19.9-22.1 6.9 0 11.3 4 11.3 9.9 0 9-9.4 11.9-23 11.6-.1 1.2.1 3.6.9 5 1.4 2.4 3.9 3.6 7.2 3.6 4 0 7.1-1 9.6-2.3l.9 6.1zm-8-27.6c-5.3 0-8.7 4.7-9.7 8.9 8.6.1 14.2-1.1 14.2-5.3 0-2.2-1.8-3.6-4.5-3.6zM154.7 51.2l4.1-21.6c.9-5 1.4-10.3 1.8-13.5h7.3c-.2 2.4-.4 4.8-.8 7.4h.2c2.4-4.8 6.2-8.2 11-8.2.6 0 1.2.1 1.8.1l-1.7 8.2c-.4-.1-1-.1-1.6-.1-6 0-9.8 6-11.2 13.5l-2.7 14.1h-8.2z"/></g><g class="st1"><path class="st3" d="M208.8 50c-2 1-5.6 1.9-10.1 1.9-8.8 0-14.2-5.6-14.2-14 0-12.2 9.3-22.6 22.3-22.6 3.1 0 5.8.8 7.1 1.4l-2.2 6.6c-1.3-.6-3-1.1-5.3-1.1-8.1 0-13.3 7.5-13.3 14.8 0 5.3 3 8.2 7.7 8.2 3.2 0 5.7-.9 7.5-1.7l.5 6.5zM236.8 51.2c.1-2.1.4-4.9.6-7.9h-.2c-3.5 6.5-8.1 8.7-12.5 8.7-6.3 0-10.4-4.9-10.4-12 0-12 8.4-24.7 24.7-24.7 3.8 0 7.9.7 10.6 1.6L246 35.2c-1 5.3-1.6 11.8-1.4 16h-7.8zm3.4-29c-.9-.2-1.9-.4-3.5-.4-7.8 0-13.8 8.7-13.8 16.7 0 3.7 1.4 6.7 5 6.7 3.9 0 8.6-4.9 10.3-13.8l2-9.2zM252.8 51.2l4.1-21.6c.9-5 1.4-10.3 1.8-13.5h7.3c-.2 2.4-.4 4.8-.8 7.4h.2c2.4-4.8 6.2-8.2 11-8.2.6 0 1.2.1 1.8.1l-1.7 8.2c-.4-.1-1-.1-1.6-.1-6 0-9.8 6-11.2 13.5L261 51.1h-8.2zM305 49.2c-3.5 1.8-8.1 2.7-12.4 2.7-9.7 0-14.4-5.9-14.4-14.5 0-10.6 7.8-22.1 19.9-22.1 6.9 0 11.3 4 11.3 9.9 0 9-9.4 11.9-23 11.6-.1 1.2.1 3.6.9 5 1.4 2.4 3.9 3.6 7.2 3.6 4 0 7.1-1 9.6-2.3l.9 6.1zm-7.9-27.6c-5.3 0-8.7 4.7-9.7 8.9 8.6.1 14.2-1.1 14.2-5.3-.1-2.2-1.9-3.6-4.5-3.6z"/></g></g><g id="as_paths"><path class="st2" d="M16.6.1l-4.4 21.2h.1c2.8-3.8 7-6 11.5-6 7.5 0 10.6 6.1 10.6 12.4 0 11.1-7.6 24.3-22.6 24.3C4.5 52 .1 48.9.1 42.6c0-2 .3-4.1.6-6L8.1.1h8.5zM9.1 36.9c-.2 1.2-.4 2.5-.4 4.2 0 2.9 1.7 4.5 4.7 4.5 7.3 0 12.2-9.4 12.2-16.3 0-3.9-1.7-7.1-5.5-7.1-4.3 0-8.8 4.5-10.2 11.5l-.8 3.2zM65.7 49.2c-3.5 1.8-8.1 2.7-12.4 2.7-9.7 0-14.4-5.9-14.4-14.5 0-10.6 7.8-22.1 19.9-22.1 6.9 0 11.3 4 11.3 9.9 0 9-9.4 11.9-23 11.6-.1 1.2.1 3.6.9 5 1.4 2.4 3.9 3.6 7.2 3.6 4 0 7.1-1 9.6-2.3l.9 6.1zm-8-27.6c-5.3 0-8.7 4.7-9.7 8.9 8.6.1 14.2-1.1 14.2-5.3-.1-2.2-1.9-3.6-4.5-3.6zM90.6 6.5l-1.8 9.6h7.9l-1.3 6.5h-7.8l-2.8 14.2c-.3 1.7-.6 3.5-.6 5 0 1.9.9 3.1 3.1 3.1 1 0 2 0 2.9-.1l-.8 6.6c-1.2.4-3.5.7-5.5.7-5.8 0-8.4-3.2-8.4-7.2 0-2 .2-4 .8-6.6l3-15.6h-4.8l1.2-6.5h4.8L82 8.6l8.6-2.1zM114.5 6.5l-1.8 9.6h7.9l-1.3 6.5h-7.8l-2.8 14.2c-.3 1.7-.6 3.5-.6 5 0 1.9.9 3.1 3.1 3.1 1 0 2 0 2.9-.1l-.8 6.6c-1.2.4-3.5.7-5.5.7-5.8 0-8.4-3.2-8.4-7.2 0-2 .2-4 .8-6.6l3-15.6h-4.8l1.2-6.5h4.8l1.4-7.6 8.7-2.1zM147.7 49.2c-3.5 1.8-8.1 2.7-12.4 2.7-9.7 0-14.4-5.9-14.4-14.5 0-10.6 7.8-22.1 19.9-22.1 6.9 0 11.3 4 11.3 9.9 0 9-9.4 11.9-23 11.6-.1 1.2.1 3.6.9 5 1.4 2.4 3.9 3.6 7.2 3.6 4 0 7.1-1 9.6-2.3l.9 6.1zm-8-27.6c-5.3 0-8.7 4.7-9.7 8.9 8.6.1 14.2-1.1 14.2-5.3 0-2.2-1.8-3.6-4.5-3.6zM154.7 51.2l4.1-21.6c.9-5 1.4-10.3 1.8-13.5h7.3c-.2 2.4-.4 4.8-.8 7.4h.2c2.4-4.8 6.2-8.2 11-8.2.6 0 1.2.1 1.8.1l-1.7 8.2c-.4-.1-1-.1-1.6-.1-6 0-9.8 6-11.2 13.5l-2.7 14.1h-8.2z"/><path class="st3" d="M208.8 50c-2 1-5.6 1.9-10.1 1.9-8.8 0-14.2-5.6-14.2-14 0-12.2 9.3-22.6 22.3-22.6 3.1 0 5.8.8 7.1 1.4l-2.2 6.6c-1.3-.6-3-1.1-5.3-1.1-8.1 0-13.3 7.5-13.3 14.8 0 5.3 3 8.2 7.7 8.2 3.2 0 5.7-.9 7.5-1.7l.5 6.5zM236.8 51.2c.1-2.1.4-4.9.6-7.9h-.2c-3.5 6.5-8.1 8.7-12.5 8.7-6.3 0-10.4-4.9-10.4-12 0-12 8.4-24.7 24.7-24.7 3.8 0 7.9.7 10.6 1.6L246 35.2c-1 5.3-1.6 11.8-1.4 16h-7.8zm3.4-29c-.9-.2-1.9-.4-3.5-.4-7.8 0-13.8 8.7-13.8 16.7 0 3.7 1.4 6.7 5 6.7 3.9 0 8.6-4.9 10.3-13.8l2-9.2zM252.8 51.2l4.1-21.6c.9-5 1.4-10.3 1.8-13.5h7.3c-.2 2.4-.4 4.8-.8 7.4h.2c2.4-4.8 6.2-8.2 11-8.2.6 0 1.2.1 1.8.1l-1.7 8.2c-.4-.1-1-.1-1.6-.1-6 0-9.8 6-11.2 13.5L261 51.1h-8.2zM305 49.2c-3.5 1.8-8.1 2.7-12.4 2.7-9.7 0-14.4-5.9-14.4-14.5 0-10.6 7.8-22.1 19.9-22.1 6.9 0 11.3 4 11.3 9.9 0 9-9.4 11.9-23 11.6-.1 1.2.1 3.6.9 5 1.4 2.4 3.9 3.6 7.2 3.6 4 0 7.1-1 9.6-2.3l.9 6.1zm-7.9-27.6c-5.3 0-8.7 4.7-9.7 8.9 8.6.1 14.2-1.1 14.2-5.3-.1-2.2-1.9-3.6-4.5-3.6z"/></g></svg>