<svg version="1.1" xmlns="http://www.w3.org/2000/svg" xmlns:xlink="http://www.w3.org/1999/xlink" x="0" y="0" viewBox="0 0 258.17 162.11" xml:space="preserve"><defs><path id="a" d="M1.35 5.5h317.32v147.02H1.35z"/></defs><clipPath id="b"><use xlink:href="#a" overflow="visible"/></clipPath><path clip-path="url(#b)" d="M3.84 14.29H2.21v-.62h4.05v.62H4.54v4.91h-.7zM6.72 19.28v-3.97h.7v3.97h-.7zm.86-5.14c0 .23-.16.47-.47.47-.23 0-.47-.23-.47-.47 0-.23.16-.47.47-.47.24.08.47.24.47.47zM8.67 16.32v-1.09h.62v.62c.23-.39.62-.7 1.25-.7.55 0 .93.31 1.09.78.16-.23.31-.39.47-.55.23-.16.47-.31.86-.31.55 0 1.32.31 1.32 1.71v2.34h-.7v-2.26c0-.78-.31-1.25-.86-1.25-.39 0-.7.31-.86.62 0 .08-.08.23-.08.39v2.41h-.7v-2.34c0-.62-.31-1.09-.86-1.09-.47 0-.78.39-.86.7-.08.08-.08.23-.08.39v2.41h-.61v-2.78zM18.01 16.86c0-.47-.16-1.17-1.01-1.17-.7 0-1.01.7-1.09 1.17h2.1zm-2.1.55c0 1.01.62 1.4 1.32 1.4.55 0 .86-.08 1.09-.23l.16.55c-.23.08-.7.23-1.32.23-1.25 0-1.95-.78-1.95-2.02 0-1.17.7-2.1 1.87-2.1 1.32 0 1.64 1.17 1.64 1.87v.31h-2.81zM19.42 18.81c0-.31.23-.55.47-.55.31 0 .47.23.47.55 0 .31-.16.47-.47.47-.24.08-.47-.16-.47-.47zm0-2.88c0-.31.23-.55.47-.55.31 0 .47.23.47.55 0 .31-.16.55-.47.55-.24 0-.47-.24-.47-.55zM23.47 16.63c0 1.4.39 2.18 1.09 2.18s1.09-.86 1.09-2.18-.31-2.18-1.09-2.18c-.63-.08-1.09.7-1.09 2.18zm2.88-.08c0 1.79-.7 2.8-1.87 2.8-1.01 0-1.79-1.01-1.79-2.73 0-1.79.78-2.8 1.87-2.8 1.16.01 1.79 1.02 1.79 2.73zM29.85 17.49c0-.78-.47-1.25-1.09-1.25-.47 0-.86.23-1.01.62-.08.08-.08.16-.08.31 0 .86.39 1.56 1.17 1.56.62.08 1.01-.46 1.01-1.24zm.23-3.04c-.16 0-.31 0-.55.08-1.17.16-1.71 1.01-1.87 1.87.23-.31.7-.62 1.32-.62.93 0 1.64.7 1.64 1.71s-.7 1.87-1.79 1.87c-1.17 0-1.87-.86-1.87-2.26 0-1.01.39-1.87.93-2.41.47-.47 1.01-.7 1.71-.78.23 0 .39-.08.55-.08l-.07.62zM31.25 18.81c0-.31.23-.55.47-.55.31 0 .47.23.47.55 0 .31-.16.47-.47.47-.23.08-.47-.16-.47-.47zm0-2.88c0-.31.23-.55.47-.55.31 0 .47.23.47.55 0 .31-.16.55-.47.55-.23 0-.47-.24-.47-.55zM33.59 16.63c0 1.4.39 2.18 1.09 2.18s1.09-.86 1.09-2.18-.31-2.18-1.09-2.18c-.62-.08-1.09.7-1.09 2.18zm2.88-.08c0 1.79-.7 2.8-1.87 2.8-1.01 0-1.79-1.01-1.79-2.73 0-1.79.78-2.8 1.87-2.8s1.79 1.02 1.79 2.73zM37.79 16.63c0 1.4.39 2.18 1.09 2.18s1.09-.86 1.09-2.18-.31-2.18-1.09-2.18c-.7-.08-1.09.7-1.09 2.18zm2.89-.08c0 1.79-.7 2.8-1.87 2.8-1.01 0-1.71-1.01-1.79-2.73 0-1.79.78-2.8 1.87-2.8s1.79 1.02 1.79 2.73zM44.65 14.61l-.94.46-.15-.54 1.16-.62h.63v5.29h-.7zM47.92 16.63c0 1.4.39 2.18 1.09 2.18s1.09-.86 1.09-2.18-.31-2.18-1.09-2.18c-.63-.08-1.09.7-1.09 2.18zm2.88-.08c0 1.79-.7 2.8-1.87 2.8-1.01 0-1.71-1.01-1.79-2.73 0-1.79.78-2.8 1.87-2.8 1.17.01 1.79 1.02 1.79 2.73zM51.5 18.81c0-.31.23-.55.47-.55.31 0 .47.23.47.55 0 .31-.16.47-.47.47-.24.08-.47-.16-.47-.47zm0-2.88c0-.31.23-.55.47-.55.31 0 .47.23.47.55 0 .31-.16.55-.47.55-.24 0-.47-.24-.47-.55zM53.76 16.63c0 1.4.39 2.18 1.09 2.18.7 0 1.09-.86 1.09-2.18s-.31-2.18-1.09-2.18c-.63-.08-1.09.7-1.09 2.18zm2.96-.08c0 1.79-.7 2.8-1.87 2.8-1.01 0-1.71-1.01-1.79-2.73 0-1.79.78-2.8 1.87-2.8s1.79 1.02 1.79 2.73zM57.96 16.63c0 1.4.39 2.18 1.09 2.18.7 0 1.09-.86 1.09-2.18s-.31-2.18-1.09-2.18c-.62-.08-1.09.7-1.09 2.18zm2.96-.08c0 1.79-.7 2.8-1.87 2.8-1.01 0-1.79-1.01-1.79-2.73 0-1.79.78-2.8 1.87-2.8s1.79 1.02 1.79 2.73zM3.53 28.54h.62c.7 0 1.4-.23 1.4-1.09 0-.78-.62-1.09-1.4-1.09h-.62v2.18zm0-2.64h.62c.78 0 1.17-.39 1.17-.93 0-.62-.47-.93-1.17-.93-.31 0-.55 0-.62.08v1.78zm-.7-2.26c.31-.08.78-.16 1.32-.16.7 0 1.17.16 1.48.39.31.23.47.55.47 1.01 0 .55-.39 1.01-.93 1.25.55.16 1.17.55 1.17 1.4 0 .47-.16.86-.47 1.09-.39.39-1.02.55-1.87.55-.47 0-.86 0-1.09-.08v-5.45h-.08zM7.19 23.25h.7v5.84h-.7zM9.61 27.07c0 .86.47 1.56 1.17 1.56s1.17-.62 1.17-1.56c0-.7-.31-1.48-1.17-1.48-.79 0-1.17.77-1.17 1.48zm3.11 0c0 1.48-1.01 2.1-1.95 2.1-1.09 0-1.87-.78-1.87-2.02 0-1.32.86-2.1 1.95-2.1s1.87.77 1.87 2.02zM14.12 27.07c0 .86.47 1.56 1.17 1.56s1.17-.62 1.17-1.56c0-.7-.31-1.48-1.17-1.48-.86 0-1.17.77-1.17 1.48zm3.12 0c0 1.48-1.01 2.1-1.95 2.1-1.09 0-1.87-.78-1.87-2.02 0-1.32.86-2.1 1.95-2.1s1.87.77 1.87 2.02zM20.82 26.75v-.31c-.08-.47-.47-.86-1.01-.86-.78 0-1.17.62-1.17 1.56 0 .78.39 1.48 1.17 1.48.47 0 .93-.31 1.09-.86v-.31l-.08-.7zm.78-3.5v5.84h-.62v-.7c-.23.47-.7.78-1.32.78-.93 0-1.71-.78-1.71-2.02 0-1.32.86-2.1 1.79-2.1.62 0 1.01.31 1.17.62v-2.34l.69-.08zM25.18 27.45v.31c.16.47.55.86 1.09.86.78 0 1.17-.62 1.17-1.56 0-.78-.39-1.48-1.17-1.48-.47 0-.93.31-1.09.86 0 .08-.08.23-.08.31l.08.7zm-.7-1.09v-1.32h.62l.08.7c.31-.47.78-.78 1.4-.78.93 0 1.71.78 1.71 2.02 0 1.4-.86 2.1-1.79 2.1-.55 0-1.01-.23-1.25-.62v2.18h-.7l-.07-4.28zM29.15 26.36v-1.25h.62v.78c.16-.55.62-.86 1.09-.86h.23v.7h-.23c-.55 0-.86.39-.93.93v2.41h-.7l-.08-2.71zM34.29 26.68c0-.47-.16-1.17-1.01-1.17-.7 0-1.01.7-1.09 1.17h2.1zm-2.1.54c0 1.01.62 1.4 1.32 1.4.55 0 .86-.08 1.09-.23l.16.55c-.23.08-.7.23-1.32.23-1.25 0-1.95-.78-1.95-2.02 0-1.17.7-2.1 1.87-2.1 1.32 0 1.64 1.17 1.64 1.87v.31h-2.81zM35.77 28.31c.23.16.62.31.93.31.55 0 .78-.23.78-.62 0-.31-.23-.55-.7-.7-.7-.23-1.09-.62-1.09-1.09 0-.62.55-1.17 1.4-1.17.39 0 .78.08.93.23l-.16.55c-.16-.08-.47-.23-.78-.23-.39 0-.62.23-.62.55 0 .31.23.47.78.7.7.23 1.01.62 1.01 1.17 0 .7-.55 1.17-1.48 1.17-.47 0-.86-.08-1.09-.31l.09-.56zM39.04 28.31c.23.16.62.31.93.31.55 0 .78-.23.78-.62 0-.31-.23-.55-.7-.7-.7-.23-1.09-.62-1.09-1.09 0-.62.55-1.17 1.4-1.17.39 0 .78.08.93.23l-.16.55c-.16-.08-.47-.23-.78-.23-.39 0-.62.23-.62.55 0 .31.23.47.78.7.7.23 1.01.62 1.01 1.17 0 .7-.55 1.17-1.48 1.17-.47 0-.86-.08-1.09-.31l.09-.56zM45.66 28v1.09h-.62l-.08-.62c-.16.31-.62.7-1.32.7-.62 0-1.4-.39-1.4-1.71v-2.34h.7v2.18c0 .78.23 1.25.86 1.25.47 0 .86-.31.93-.7.08-.08.08-.23.08-.39v-2.41h.7l.15 2.95zM46.83 26.36v-1.25h.62v.78c.16-.55.62-.86 1.09-.86h.23v.7h-.23c-.55 0-.86.39-.93.93v2.41h-.7l-.08-2.71zM51.97 26.68c0-.47-.16-1.17-1.01-1.17-.7 0-1.01.7-1.09 1.17h2.1zm-2.11.54c0 1.01.62 1.4 1.32 1.4.55 0 .86-.08 1.09-.23l.16.55c-.23.08-.7.23-1.32.23-1.25 0-1.95-.78-1.95-2.02 0-1.17.7-2.1 1.87-2.1 1.32 0 1.64 1.17 1.64 1.87v.31h-2.81zM53.37 28.62c0-.31.23-.55.47-.55.31 0 .47.23.47.55 0 .31-.16.55-.47.55-.24 0-.47-.24-.47-.55zm0-2.88c0-.31.23-.55.47-.55.31 0 .47.23.47.55 0 .31-.16.55-.47.55-.24 0-.47-.24-.47-.55zM58.35 24.42l-.93.47-.16-.55 1.17-.62h.62v5.29h-.7zM62.56 24.42l-.94.47-.15-.55 1.16-.62h.63v5.29h-.7zM65.83 26.44c0 1.4.39 2.18 1.09 2.18.7 0 1.09-.86 1.09-2.18s-.31-2.18-1.09-2.18c-.63-.08-1.09.7-1.09 2.18zm2.88-.08c0 1.79-.7 2.8-1.87 2.8-1.01 0-1.71-1.01-1.79-2.73 0-1.79.78-2.8 1.87-2.8 1.17.01 1.79 1.02 1.79 2.73zM69.02 29.4l2.26-5.92h.54l-2.26 5.92zM75.64 23.72v.46l-2.34 4.83h-.78l2.34-4.67h-2.57v-.62zM77.04 26.44c0 1.4.39 2.18 1.09 2.18.7 0 1.09-.86 1.09-2.18s-.31-2.18-1.09-2.18c-.62-.08-1.09.7-1.09 2.18zm2.88-.08c0 1.79-.7 2.8-1.87 2.8-1.01 0-1.71-1.01-1.79-2.73 0-1.79.78-2.8 1.87-2.8 1.17.01 1.79 1.02 1.79 2.73zM85.61 24.42l-.94.47-.15-.55 1.16-.62h.63v5.29h-.7zM88.41 28.23c.23.16.7.31 1.17.31.93 0 1.25-.55 1.17-1.01 0-.78-.7-1.09-1.4-1.09h-.39v-.54h.39c.55 0 1.17-.23 1.17-.93 0-.39-.23-.78-.93-.78-.39 0-.86.16-1.09.39l-.23-.55c.31-.23.86-.39 1.4-.39 1.01 0 1.56.62 1.56 1.25 0 .55-.31 1.01-1.01 1.25.62.16 1.17.62 1.17 1.32 0 .86-.7 1.56-1.95 1.56-.62 0-1.09-.16-1.4-.39l.37-.4zM93.08 26.44c0 1.4.39 2.18 1.09 2.18.7 0 1.09-.86 1.09-2.18s-.31-2.18-1.09-2.18c-.62-.08-1.09.7-1.09 2.18zm2.88-.08c0 1.79-.7 2.8-1.87 2.8-1.01 0-1.79-1.01-1.79-2.73 0-1.79.78-2.8 1.87-2.8 1.17.01 1.79 1.02 1.79 2.73zM96.27 29.4l2.26-5.92h.55l-2.26 5.92zM100.25 25.04c0 .55.39.86 1.01 1.01.47-.16.78-.47.78-.93 0-.39-.23-.86-.93-.86-.47-.08-.86.31-.86.78zm2.02 2.65c0-.62-.47-.93-1.17-1.17-.62.16-.93.62-.93 1.09 0 .55.39 1.01 1.09 1.01.62 0 1.01-.39 1.01-.93zm-1.79-1.4c-.62-.31-.86-.7-.86-1.17 0-.86.7-1.4 1.64-1.4 1.01 0 1.56.62 1.56 1.32 0 .47-.23.93-.86 1.25.7.23 1.09.7 1.09 1.4 0 .93-.78 1.56-1.79 1.56-1.09 0-1.79-.62-1.79-1.4-.08-.78.31-1.25 1.01-1.56zM104.29 26.44c0 1.4.39 2.18 1.09 2.18.7 0 1.09-.86 1.09-2.18s-.31-2.18-1.09-2.18c-.62-.08-1.09.7-1.09 2.18zm2.89-.08c0 1.79-.7 2.8-1.87 2.8-1.01 0-1.79-1.01-1.79-2.73 0-1.79.78-2.8 1.87-2.8 1.16.01 1.79 1.02 1.79 2.73zM3.53 36.1c.16.08.39.08.62.08.86 0 1.4-.39 1.4-1.17 0-.7-.55-1.09-1.32-1.09-.31 0-.55 0-.7.08v2.1zm-.7-2.65c.31-.08.78-.08 1.4-.08.7 0 1.25.16 1.56.47.31.23.47.7.47 1.17s-.16.86-.39 1.17c-.39.39-1.01.62-1.71.62-.23 0-.39 0-.55-.08v2.18h-.78v-5.45zM10.31 37.81v1.09h-.63l-.08-.62c-.08.31-.55.7-1.25.7-.62 0-1.4-.39-1.4-1.71v-2.34h.7v2.18c0 .78.23 1.25.86 1.25.47 0 .86-.31.93-.7.08-.08.08-.23.08-.39v-2.41h.7l.09 2.95zM11.55 33.06h.7v5.84h-.7zM13.34 38.2c.23.16.62.31.93.31.55 0 .78-.23.78-.62 0-.31-.23-.55-.7-.7-.7-.23-1.09-.62-1.09-1.09 0-.62.55-1.17 1.4-1.17.39 0 .78.08.93.23l-.16.55c-.16-.08-.47-.23-.78-.23-.39 0-.62.23-.62.55 0 .31.23.47.78.7.7.23 1.01.62 1.01 1.17 0 .7-.55 1.17-1.48 1.17-.47 0-.86-.08-1.09-.31l.09-.56zM19.18 36.57c0-.47-.16-1.17-1.01-1.17-.7 0-1.01.7-1.09 1.17h2.1zm-2.1.46c0 1.01.62 1.4 1.32 1.4.55 0 .86-.08 1.09-.23l.16.55c-.23.08-.7.23-1.32.23-1.25 0-1.95-.78-1.95-2.02s.7-2.1 1.87-2.1c1.32 0 1.64 1.17 1.64 1.87v.31h-2.81zM20.66 38.51c0-.31.23-.55.47-.55.31 0 .47.23.47.55s-.16.47-.47.47-.47-.23-.47-.47zm0-2.96c0-.31.23-.55.47-.55.31 0 .47.23.47.55 0 .31-.16.55-.47.55s-.47-.24-.47-.55zM27.44 33.61v.46L25.1 38.9h-.78l2.34-4.67h-2.57v-.62zM28.84 36.25c0 1.4.39 2.18 1.09 2.18s1.09-.86 1.09-2.18-.31-2.18-1.09-2.18c-.62 0-1.09.78-1.09 2.18zm2.88-.07c0 1.79-.7 2.8-1.87 2.8-1.01 0-1.79-1.01-1.79-2.73 0-1.79.78-2.8 1.87-2.8 1.17 0 1.79 1.01 1.79 2.73zM32.03 39.21l2.26-5.91h.54l-2.25 5.91zM35.46 36.02v-1.09h.62v.62c.23-.39.62-.7 1.25-.7.55 0 .93.31 1.09.78.16-.23.31-.39.47-.55.23-.16.47-.31.86-.31.55 0 1.32.31 1.32 1.71v2.34h-.7v-2.18c0-.78-.31-1.25-.86-1.25-.39 0-.7.31-.86.62 0 .08-.08.23-.08.39v2.41h-.62v-2.34c0-.62-.31-1.09-.86-1.09-.47 0-.78.39-.86.7-.08.08-.08.23-.08.39v2.41h-.7v-2.86zM42.31 38.9v-3.97h.7v3.97h-.7zm.78-5.06c0 .23-.16.47-.47.47-.23 0-.47-.23-.47-.47 0-.23.16-.47.47-.47s.47.24.47.47zM44.18 36.02v-1.09h.62l.08.62c.23-.39.62-.7 1.32-.7.55 0 1.4.31 1.4 1.71v2.34h-.7v-2.26c0-.62-.23-1.17-.93-1.17-.47 0-.86.31-.93.7 0 .08-.08.23-.08.31v2.41h-.78v-2.87zM50.95 35.32c0 .7.39 1.09 1.01 1.09.47 0 .86-.23 1.01-.55.08-.08.08-.16.08-.23 0-.93-.31-1.64-1.09-1.64-.62.08-1.01.55-1.01 1.33zm-.31 3.04h.55c.39-.08.78-.23 1.09-.55.39-.31.62-.78.7-1.4-.31.39-.7.55-1.25.55-.93 0-1.56-.7-1.56-1.64 0-1.01.7-1.87 1.79-1.87s1.79.86 1.79 2.26c0 1.17-.39 1.95-.93 2.49-.39.39-1.01.62-1.56.7-.23.08-.39.08-.62.08v-.62zM55.08 36.25c0 1.4.39 2.18 1.09 2.18.7 0 1.09-.86 1.09-2.18s-.31-2.18-1.09-2.18c-.62 0-1.09.78-1.09 2.18zm2.88-.07c0 1.79-.7 2.8-1.87 2.8-1.01 0-1.79-1.01-1.79-2.73 0-1.79.78-2.8 1.87-2.8 1.17 0 1.79 1.01 1.79 2.73zM58.27 39.21l2.26-5.91h.55l-2.26 5.91zM61.7 36.02v-1.09h.62v.62c.23-.39.62-.7 1.25-.7.55 0 .93.31 1.09.78.16-.23.31-.39.47-.55.23-.16.47-.31.86-.31.55 0 1.32.31 1.32 1.71v2.34h-.7v-2.18c0-.78-.31-1.25-.86-1.25-.39 0-.7.31-.86.62 0 .08-.08.23-.08.39v2.41h-.7v-2.34c0-.62-.31-1.09-.86-1.09-.47 0-.78.39-.86.7-.08.08-.08.23-.08.39v2.41h-.7l.09-2.86zM68.55 38.9v-3.97h.7v3.97h-.7zm.78-5.06c0 .23-.16.47-.47.47-.23 0-.47-.23-.47-.47 0-.23.16-.47.47-.47s.47.24.47.47zM70.42 36.02v-1.09h.62l.08.62c.23-.39.62-.7 1.32-.7.55 0 1.4.31 1.4 1.71v2.34h-.7v-2.26c0-.62-.23-1.17-.93-1.17-.47 0-.86.31-.93.7 0 .08-.08.23-.08.31v2.41h-.7l-.08-2.87zM3.84 43.81H2.21v-.63h4.05v.63H4.54v4.9h-.7zM8.75 46.38c0-.47-.16-1.17-1.01-1.17-.7 0-1.01.7-1.09 1.17h2.1zm-2.1.46c0 1.01.62 1.4 1.32 1.4.55 0 .86-.08 1.09-.23l.16.55c-.23.08-.7.23-1.32.23-1.25 0-1.95-.78-1.95-2.02 0-1.17.7-2.1 1.87-2.1 1.32 0 1.64 1.17 1.64 1.87v.31H6.65zM10.38 45.83v-1.09H11v.62c.23-.39.62-.7 1.25-.7.55 0 .93.31 1.09.78.16-.23.31-.39.47-.55.23-.16.47-.31.86-.31.55 0 1.32.31 1.32 1.71v2.34h-.62v-2.26c0-.78-.31-1.25-.86-1.25-.39 0-.7.31-.86.62 0 .08-.08.23-.08.39v2.41h-.7V46.2c0-.62-.31-1.09-.86-1.09-.47 0-.78.39-.86.7-.08.08-.08.23-.08.39v2.41h-.7c.01.1.01-2.78.01-2.78zM17.94 47.08v.31c.16.47.55.86 1.09.86.78 0 1.17-.62 1.17-1.56 0-.78-.39-1.48-1.17-1.48-.47 0-.93.31-1.09.86 0 .08-.08.23-.08.31.08.08.08.7.08.7zm-.7-1.01v-1.32h.62l.08.7c.31-.47.78-.78 1.4-.78.93 0 1.71.78 1.71 2.02 0 1.4-.86 2.1-1.79 2.1-.55 0-1.01-.23-1.25-.62v2.18h-.7l-.07-4.28zM21.67 48.32c0-.31.23-.55.47-.55.31 0 .47.23.47.55 0 .31-.16.55-.47.55-.23-.08-.47-.31-.47-.55zm0-2.88c0-.31.23-.55.47-.55.31 0 .47.23.47.55 0 .31-.16.55-.47.55-.23-.08-.47-.31-.47-.55zM25.26 47.93c.23.16.7.31 1.17.31.93 0 1.25-.55 1.17-1.01 0-.78-.7-1.09-1.4-1.09h-.4v-.54h.47c.55 0 1.17-.23 1.17-.93 0-.39-.23-.78-.93-.78-.39 0-.86.16-1.09.39l-.23-.55c.31-.23.86-.39 1.4-.39 1.01 0 1.56.62 1.56 1.25 0 .55-.31 1.01-1.01 1.25.62.16 1.17.62 1.17 1.32 0 .86-.7 1.56-1.95 1.56-.62 0-1.09-.16-1.4-.39l.3-.4zM32.73 43.42v.47l-2.33 4.82h-.78l2.33-4.67h-2.57v-.62zM35.54 44.2c0 .39.23.7.62.7s.62-.31.62-.7c0-.31-.16-.7-.62-.7-.47 0-.62.39-.62.7zm1.71 0c0 .7-.55 1.09-1.09 1.09-.62 0-1.09-.47-1.09-1.09 0-.62.47-1.09 1.09-1.09.7 0 1.09.54 1.09 1.09zM41.92 48.56c-.23.16-.78.23-1.48.23-1.56 0-2.73-1.01-2.73-2.8 0-1.71 1.17-2.88 2.88-2.88.7 0 1.09.16 1.32.23l-.16.55c-.23-.16-.62-.23-1.09-.23-1.32 0-2.18.86-2.18 2.26 0 1.32.78 2.18 2.1 2.18.47 0 .86-.08 1.17-.23l.17.69zM44.49 47.93c.23.16.7.31 1.17.31.93 0 1.25-.55 1.17-1.01 0-.78-.7-1.09-1.4-1.09h-.39v-.54h.39c.55 0 1.17-.23 1.17-.93 0-.39-.23-.78-.93-.78-.39 0-.86.16-1.09.39l-.23-.55c.31-.23.86-.39 1.4-.39 1.01 0 1.56.62 1.56 1.25 0 .55-.31 1.01-1.01 1.25.62.16 1.17.62 1.17 1.32 0 .86-.7 1.56-1.95 1.56-.62 0-1.09-.16-1.4-.39l.37-.4zM51.97 43.42v.47l-2.34 4.82h-.78l2.34-4.67h-2.57v-.62zM52.74 48.32c0-.31.23-.55.47-.55s.47.23.47.55c0 .31-.23.55-.47.55-.23-.08-.47-.31-.47-.55zM55.94 44.04l-.94.47-.15-.55 1.17-.62h.62v5.3h-.7zM60.61 44.2c0 .39.23.7.62.7s.62-.31.62-.7c0-.31-.16-.7-.62-.7-.39 0-.62.39-.62.7zm1.79 0c0 .7-.55 1.09-1.09 1.09-.62 0-1.09-.47-1.09-1.09 0-.62.47-1.09 1.09-1.09.62 0 1.09.54 1.09 1.09zM67.07 48.56c-.23.16-.78.23-1.48.23-1.56 0-2.73-1.01-2.73-2.8 0-1.71 1.17-2.88 2.88-2.88.7 0 1.09.16 1.32.23l-.16.55c-.23-.16-.62-.23-1.09-.23-1.32 0-2.18.86-2.18 2.26 0 1.32.78 2.18 2.1 2.18.47 0 .86-.08 1.17-.23l.17.69zM4 58.52L2.21 53h.78l.86 2.73c.23.78.47 1.4.62 2.02.16-.62.39-1.32.62-2.02l.93-2.65h.78L4.85 58.6 4 58.52zM7.5 56.58c0 .86.47 1.56 1.17 1.56s1.17-.62 1.17-1.56c0-.7-.31-1.48-1.17-1.48-.78-.08-1.17.7-1.17 1.48zm3.2 0c0 1.48-1.01 2.1-1.95 2.1-1.09 0-1.87-.78-1.87-2.02 0-1.32.86-2.1 1.95-2.1 1.09-.08 1.87.77 1.87 2.02zM11.55 52.76h.7v5.84h-.7zM16.85 57.43v1.09h-.62l-.08-.62c-.16.31-.62.7-1.32.7-.62 0-1.4-.39-1.4-1.71v-2.34h.7v2.18c0 .78.23 1.25.86 1.25.47 0 .86-.31.93-.7.08-.08.08-.23.08-.39v-2.34h.7l.15 2.88zM18.01 55.64v-1.09h.62v.62c.23-.39.62-.7 1.25-.7.55 0 .93.31 1.09.78.16-.23.31-.39.47-.55.23-.16.47-.31.86-.31.55 0 1.32.31 1.32 1.71v2.34h-.7v-2.26c0-.78-.31-1.25-.86-1.25-.39 0-.7.31-.86.62 0 .08-.08.23-.08.39v2.41h-.7v-2.34c0-.62-.31-1.09-.86-1.09-.47 0-.78.39-.86.7-.08.08-.08.23-.08.39v2.41h-.7l.09-2.78zM27.36 56.19c0-.47-.16-1.17-1.01-1.17-.7 0-1.01.7-1.09 1.17h2.1zm-2.1.54c0 1.01.62 1.4 1.32 1.4.55 0 .86-.08 1.09-.23l.16.55c-.23.08-.7.23-1.32.23-1.25 0-1.95-.78-1.95-2.02 0-1.17.7-2.1 1.87-2.1 1.32 0 1.64 1.17 1.64 1.87v.31h-2.81zM28.76 58.14c0-.31.23-.55.47-.55.31 0 .47.23.47.55 0 .31-.16.55-.47.55-.24-.01-.47-.24-.47-.55zm0-2.89c0-.31.23-.55.47-.55.31 0 .47.23.47.55 0 .31-.16.55-.47.55-.24-.08-.47-.23-.47-.55zM33.74 53.93l-.93.47-.16-.55 1.17-.62h.63v5.29h-.71zM39.82 53.23v.47l-2.34 4.82h-.78l2.34-4.67h-2.57v-.62zM43.71 53.85h-2.02l-.23 1.4h.47c.39 0 .86.08 1.17.31.39.23.78.7.78 1.32 0 1.01-.86 1.79-1.95 1.79-.55 0-1.09-.16-1.32-.31l.16-.55c.23.16.62.31 1.17.31.7 0 1.25-.47 1.25-1.17s-.47-1.17-1.56-1.17c-.31 0-.55 0-.78.08l.31-2.57h2.57v.56zM46.75 55.64v-1.09h.55v.62c.23-.39.62-.7 1.25-.7.55 0 .93.31 1.09.78.16-.23.31-.39.47-.55.23-.16.47-.31.86-.31.55 0 1.32.31 1.32 1.71v2.34h-.7v-2.26c0-.78-.31-1.25-.86-1.25-.39 0-.7.31-.86.62 0 .08-.08.23-.08.39v2.41h-.7v-2.34c0-.62-.31-1.09-.86-1.09-.47 0-.78.39-.86.7-.08.08-.08.23-.08.39v2.41h-.7l.16-2.78zM53.52 52.76h.78v5.84h-.78zM58.59 53.93l-.94.47-.15-.55 1.16-.62h.63v5.29h-.7zM64.35 53.85h-2.02l-.23 1.4h.47c.39 0 .86.08 1.17.31.39.23.78.7.78 1.32 0 1.01-.86 1.79-1.95 1.79-.55 0-1.09-.16-1.32-.31l.16-.55c.23.16.62.31 1.17.31.7 0 1.25-.47 1.25-1.17s-.47-1.17-1.56-1.17c-.31 0-.55 0-.78.08l.31-2.57h2.57v.56zM66.06 55.96c0 1.4.39 2.18 1.09 2.18.7 0 1.09-.86 1.09-2.18s-.31-2.18-1.09-2.18c-.62-.08-1.09.7-1.09 2.18zm2.88-.16c0 1.79-.7 2.8-1.87 2.8-1.01 0-1.71-1.01-1.79-2.73 0-1.79.78-2.8 1.87-2.8 1.17.08 1.79 1.09 1.79 2.73zM71.59 55.64v-1.09h.62v.62c.23-.39.62-.7 1.25-.7.55 0 .93.31 1.09.78.16-.23.31-.39.47-.55.23-.16.47-.31.86-.31.55 0 1.32.31 1.32 1.71v2.34h-.7v-2.26c0-.78-.31-1.25-.86-1.25-.39 0-.7.31-.86.62 0 .08-.08.23-.08.39v2.41H74v-2.34c0-.62-.31-1.09-.86-1.09-.47 0-.78.39-.86.7-.08.08-.08.23-.08.39v2.41h-.7l.09-2.78zM78.36 52.76h.7v5.84h-.7zM3.53 65.61c.16.08.39.08.62.08.86 0 1.4-.39 1.4-1.17 0-.7-.55-1.09-1.32-1.09-.31 0-.55 0-.7.08v2.1zm-.7-2.65c.31-.08.78-.08 1.4-.08.7 0 1.25.16 1.56.47.31.23.47.7.47 1.17s-.16.86-.39 1.17c-.47.31-1.09.54-1.79.54-.23 0-.39 0-.55-.08v2.18h-.7v-5.37zM7.04 65.69v-1.25h.55v.78c.16-.55.62-.86 1.09-.86h.23v.7h-.23c-.55 0-.86.39-.93.93v2.41h-.7v-2.71zM10.07 66.39c0 .86.47 1.56 1.17 1.56s1.17-.62 1.17-1.56c0-.7-.31-1.48-1.17-1.48-.78 0-1.17.78-1.17 1.48zm3.12 0c0 1.48-1.01 2.1-1.95 2.1-1.09 0-1.87-.78-1.87-2.02 0-1.32.86-2.1 1.95-2.1s1.87.77 1.87 2.02zM14.98 63.43v.93h1.01v.55h-1.01v2.1c0 .47.16.78.55.78.23 0 .31 0 .39-.08v.55c-.16.08-.39.08-.62.08-.31 0-.62-.08-.78-.31-.23-.23-.31-.55-.31-1.01v-2.18h-.62v-.55h.62v-.7l.77-.16zM19.26 66c0-.47-.16-1.17-1.01-1.17-.7 0-1.01.7-1.09 1.17h2.1zm-2.1.55c0 1.01.62 1.4 1.32 1.4.55 0 .86-.08 1.09-.23l.16.55c-.23.08-.7.23-1.32.23-1.25 0-1.95-.78-1.95-2.02 0-1.17.7-2.1 1.87-2.1 1.32 0 1.64 1.09 1.64 1.87v.31h-2.81zM20.9 68.41v-3.97h.7v3.97h-.7zm.77-5.14c0 .23-.16.47-.47.47-.23 0-.47-.23-.47-.47 0-.23.16-.47.47-.47.32.09.47.24.47.47zM22.77 65.46v-1.09h.62l.08.62c.23-.39.62-.7 1.32-.7.55 0 1.4.31 1.4 1.71v2.34h-.7v-2.26c0-.62-.23-1.17-.93-1.17-.47 0-.86.31-.93.7 0 .08-.08.23-.08.31v2.41h-.7l-.08-2.87zM27.2 67.95c0-.31.23-.55.47-.55.31 0 .47.23.47.55 0 .31-.16.47-.47.47-.31.07-.47-.16-.47-.47zm0-2.88c0-.31.23-.55.47-.55.31 0 .47.23.47.55 0 .31-.16.55-.47.55s-.47-.24-.47-.55zM30.79 68.41v-5.53h.78l1.79 2.8c.39.62.7 1.25 1.01 1.79-.08-.7-.08-1.4-.08-2.26v-2.34h.7v5.53h-.7l-1.71-2.8c-.39-.62-.78-1.25-1.01-1.87.08.7.08 1.32.08 2.26v2.34l-.86.08zM36.63 66.39c0 .86.47 1.56 1.17 1.56s1.17-.62 1.17-1.56c0-.7-.31-1.48-1.17-1.48s-1.17.78-1.17 1.48zm3.11 0c0 1.48-1.01 2.1-1.95 2.1-1.09 0-1.87-.78-1.87-2.02 0-1.32.86-2.1 1.95-2.1s1.87.77 1.87 2.02zM40.68 65.46v-1.09h.62l.08.62c.23-.39.62-.7 1.32-.7.55 0 1.4.31 1.4 1.71v2.34h-.7v-2.26c0-.62-.23-1.17-.93-1.17-.47 0-.86.31-.93.7 0 .08-.08.23-.08.31v2.41h-.7v-2.88h-.08zM47.68 66c0-.47-.16-1.17-1.01-1.17-.7 0-1.01.7-1.09 1.17h2.1zm-2.1.55c0 1.01.62 1.4 1.32 1.4.55 0 .86-.08 1.09-.23l.16.55c-.23.08-.7.23-1.32.23-1.25 0-1.95-.78-1.95-2.02 0-1.17.7-2.1 1.87-2.1 1.32 0 1.64 1.09 1.64 1.87v.31h-2.81zM51.03 68.41v-5.53h.78l1.79 2.8c.39.62.7 1.25 1.01 1.79-.08-.7-.08-1.4-.08-2.26v-2.34h.7v5.53h-.7l-1.79-2.8c-.39-.62-.78-1.25-1.01-1.87.08.7.08 1.32.08 2.26v2.34l-.78.08zM56.87 66.39c0 .86.47 1.56 1.17 1.56s1.17-.62 1.17-1.56c0-.7-.31-1.48-1.17-1.48-.78 0-1.17.78-1.17 1.48zm3.12 0c0 1.48-1.01 2.1-1.95 2.1-1.09 0-1.87-.78-1.87-2.02 0-1.32.86-2.1 1.95-2.1s1.87.77 1.87 2.02zM60.92 65.46v-1.09h.62l.08.62c.23-.39.62-.7 1.32-.7.55 0 1.4.31 1.4 1.71v2.34h-.7v-2.26c0-.62-.23-1.17-.93-1.17-.47 0-.86.31-.93.7 0 .08-.08.23-.08.31v2.41H61l-.08-2.87zM68.01 66c0-.47-.16-1.17-1.01-1.17-.7 0-1.01.7-1.09 1.17h2.1zm-2.18.55c0 1.01.62 1.4 1.32 1.4.55 0 .86-.08 1.09-.23l.16.55c-.23.08-.7.23-1.32.23-1.25 0-1.95-.78-1.95-2.02 0-1.17.7-2.1 1.87-2.1 1.32 0 1.64 1.09 1.64 1.87v.31h-2.81zM2.83 72.7h.7v2.65c.16-.24.31-.39.47-.55l1.71-2.1h.86l-2.02 2.34 2.18 3.19h-.86L4.08 75.5l-.55.62v2.1h-.7V72.7zM9.76 75.81c0-.47-.16-1.17-1.01-1.17-.7 0-1.01.7-1.09 1.17h2.1zm-2.1.55c0 1.01.62 1.4 1.32 1.4.55 0 .86-.08 1.09-.23l.16.55c-.23.08-.7.23-1.32.23-1.25 0-1.95-.78-1.95-2.02 0-1.17.7-2.1 1.87-2.1 1.32 0 1.64 1.17 1.64 1.87v.31H7.66zM12.17 73.32v.93h1.01v.55h-1.01v2.1c0 .47.16.78.55.78.23 0 .31 0 .39-.08v.55c-.16.08-.39.08-.62.08-.31 0-.62-.08-.78-.31-.23-.23-.31-.55-.31-1.01v-2.1h-.62v-.55h.7v-.7l.69-.24zM14.43 76.2c0 .86.47 1.56 1.17 1.56s1.17-.62 1.17-1.56c0-.7-.31-1.48-1.17-1.48-.78 0-1.17.78-1.17 1.48zm3.12 0c0 1.48-1.01 2.1-1.95 2.1-1.09 0-1.87-.78-1.87-2.02 0-1.32.86-2.1 1.95-2.1s1.87.78 1.87 2.02zM18.48 75.34v-1.09h.62l.08.62c.23-.39.62-.7 1.32-.7.55 0 1.4.31 1.4 1.71v2.34h-.7v-2.26c0-.62-.23-1.17-.93-1.17-.47 0-.86.31-.93.7 0 .08-.08.23-.08.31v2.41h-.78v-2.87zM25.57 75.81c0-.47-.16-1.17-1.01-1.17-.7 0-1.01.7-1.09 1.17h2.1zm-2.1.55c0 1.01.62 1.4 1.32 1.4.55 0 .86-.08 1.09-.23l.16.55c-.23.08-.7.23-1.32.23-1.25 0-1.95-.78-1.95-2.02 0-1.17.7-2.1 1.87-2.1 1.32 0 1.64 1.17 1.64 1.87v.31h-2.81zM27.05 77.45c.23.16.62.31.93.31.55 0 .78-.23.78-.62 0-.31-.23-.55-.7-.7-.7-.23-1.09-.62-1.09-1.09 0-.62.55-1.17 1.4-1.17.39 0 .78.08.93.23l-.16.55c-.16-.08-.47-.23-.78-.23-.39 0-.62.23-.62.55 0 .31.23.47.78.7.7.23 1.01.62 1.01 1.17 0 .7-.55 1.17-1.48 1.17-.47 0-.86-.08-1.09-.31l.09-.56zM30.24 77.76c0-.31.23-.55.47-.55.31 0 .47.23.47.55 0 .31-.16.55-.47.55s-.47-.24-.47-.55zm0-2.88c0-.31.23-.55.47-.55.31 0 .47.23.47.55 0 .31-.16.55-.47.55s-.47-.24-.47-.55zM33.82 78.23V72.7h.78l1.79 2.8c.39.62.7 1.25 1.01 1.79-.08-.7-.08-1.4-.08-2.26V72.7h.62v5.53h-.7l-1.79-2.8c-.39-.62-.78-1.25-1.01-1.87.08.7.08 1.32.08 2.26v2.34l-.7.07zM39.66 76.2c0 .86.47 1.56 1.17 1.56S42 77.14 42 76.2c0-.7-.31-1.48-1.17-1.48s-1.17.78-1.17 1.48zm3.12 0c0 1.48-1.01 2.1-1.95 2.1-1.09 0-1.87-.78-1.87-2.02 0-1.32.86-2.1 1.95-2.1s1.87.78 1.87 2.02zM43.71 75.34v-1.09h.62l.08.62c.23-.39.62-.7 1.32-.7.55 0 1.4.31 1.4 1.71v2.34h-.7v-2.26c0-.62-.23-1.17-.93-1.17-.47 0-.86.31-.93.7 0 .08-.08.23-.08.31v2.41h-.7l-.08-2.87zM50.72 75.81c0-.47-.16-1.17-1.01-1.17-.7 0-1.01.7-1.09 1.17h2.1zm-2.1.55c0 1.01.62 1.4 1.32 1.4.55 0 .86-.08 1.09-.23l.16.55c-.23.08-.7.23-1.32.23-1.25 0-1.95-.78-1.95-2.02 0-1.17.7-2.1 1.87-2.1 1.32 0 1.64 1.17 1.64 1.87v.31h-2.81zM56.17 73.87v1.94h1.87v.47h-1.87v1.95h-.54v-1.95h-1.87v-.47h1.87v-1.94zM7.04 87.8c-.31.16-.93.31-1.71.31-.86 0-1.56-.23-2.02-.7-.47-.47-.78-1.17-.78-2.02 0-1.64 1.17-2.88 2.96-2.88.62 0 1.17.16 1.4.23l-.16.55c-.31-.16-.7-.23-1.25-.23-1.32 0-2.18.86-2.18 2.18 0 1.4.86 2.26 2.1 2.26.47 0 .78-.08.93-.16V85.7H5.17v-.55h1.79l.08 2.65zM8.05 82.2h.7v5.84h-.7zM13.34 86.95v1.09h-.62l-.08-.62c-.16.31-.62.7-1.32.7-.62 0-1.4-.39-1.4-1.71v-2.34h.78v2.18c0 .78.23 1.25.86 1.25.47 0 .86-.31.93-.7.08-.08.08-.23.08-.39V84h.7v2.96h.07zM17.31 87.88c-.16.08-.62.23-1.17.23-1.17 0-1.95-.78-1.95-2.02 0-1.25.86-2.1 2.1-2.1.39 0 .78.08 1.01.23l-.16.55c-.16-.08-.47-.16-.86-.16-.93 0-1.4.7-1.4 1.48 0 .93.62 1.48 1.4 1.48.39 0 .7-.08.86-.16l.17.47zM18.56 86.09c0 .86.47 1.56 1.17 1.56s1.17-.62 1.17-1.56c0-.7-.31-1.48-1.17-1.48-.78-.08-1.17.7-1.17 1.48zm3.19-.08c0 1.48-1.01 2.1-1.95 2.1-1.09 0-1.87-.78-1.87-2.02 0-1.32.86-2.1 1.95-2.1s1.87.85 1.87 2.02zM22.53 87.34c.23.16.62.31.93.31.55 0 .78-.23.78-.62 0-.31-.23-.55-.7-.7-.7-.23-1.09-.62-1.09-1.09 0-.62.55-1.17 1.4-1.17.39 0 .78.08.93.23l-.16.55c-.16-.08-.47-.23-.78-.23-.39 0-.62.23-.62.55 0 .31.23.47.78.7.7.23 1.01.62 1.01 1.17 0 .7-.55 1.17-1.48 1.17-.47 0-.86-.08-1.09-.31l.09-.56zM28.37 85.7c0-.47-.16-1.17-1.01-1.17-.7 0-1.01.7-1.09 1.17h2.1zm-2.1.47c0 1.01.62 1.4 1.32 1.4.55 0 .86-.08 1.09-.23l.16.55c-.23.08-.7.23-1.32.23-1.25 0-1.95-.78-1.95-2.02 0-1.17.7-2.1 1.87-2.1 1.32 0 1.64 1.17 1.64 1.87v.31h-2.81zM29.85 87.65c0-.31.23-.55.47-.55.31 0 .47.23.47.55 0 .31-.16.47-.47.47s-.47-.24-.47-.47zm0-2.88c0-.31.23-.55.47-.55.31 0 .47.23.47.55 0 .31-.16.55-.47.55-.31-.09-.47-.32-.47-.55zM33.43 88.04v-5.53h.78l1.79 2.8c.39.62.7 1.25 1.01 1.79-.08-.7-.08-1.4-.08-2.26V82.5h.7v5.53h-.7l-1.79-2.8c-.39-.62-.78-1.25-1.01-1.87.08.7.08 1.32.08 2.26v2.34h-.78v.08zM39.27 86.09c0 .86.47 1.56 1.17 1.56s1.17-.62 1.17-1.56c0-.7-.31-1.48-1.17-1.48-.86-.08-1.17.7-1.17 1.48zm3.12-.08c0 1.48-1.01 2.1-1.95 2.1-1.09 0-1.87-.78-1.87-2.02 0-1.32.86-2.1 1.95-2.1s1.87.85 1.87 2.02zM43.32 85.16v-1.09h.62l.08.62c.23-.39.62-.7 1.32-.7.55 0 1.4.31 1.4 1.71v2.34h-.7v-2.26c0-.62-.23-1.17-.93-1.17-.47 0-.86.31-.93.7 0 .08-.08.23-.08.31v2.41h-.7l-.08-2.87zM50.33 85.7c0-.47-.16-1.17-1.01-1.17-.7 0-1.01.7-1.09 1.17h2.1zm-2.1.47c0 1.01.62 1.4 1.32 1.4.55 0 .86-.08 1.09-.23l.16.55c-.23.08-.7.23-1.32.23-1.25 0-1.95-.78-1.95-2.02 0-1.17.7-2.1 1.87-2.1 1.32 0 1.64 1.17 1.64 1.87v.31h-2.81zM53.68 88.04v-5.53h.78l1.79 2.8c.39.62.7 1.25 1.01 1.79-.08-.7-.08-1.4-.08-2.26V82.5h.7v5.53h-.7l-1.71-2.8c-.39-.62-.78-1.25-1.01-1.87.08.7.08 1.32.08 2.26v2.34h-.86v.08zM59.52 86.09c0 .86.47 1.56 1.17 1.56s1.17-.62 1.17-1.56c0-.7-.31-1.48-1.17-1.48-.78-.08-1.17.7-1.17 1.48zm3.11-.08c0 1.48-1.01 2.1-1.95 2.1-1.09 0-1.87-.78-1.87-2.02 0-1.32.86-2.1 1.95-2.1s1.87.85 1.87 2.02zM63.57 85.16v-1.09h.62l.08.62c.23-.39.62-.7 1.32-.7.55 0 1.4.31 1.4 1.71v2.34h-.7v-2.26c0-.62-.23-1.17-.93-1.17-.47 0-.86.31-.93.7 0 .08-.08.23-.08.31v2.41h-.7l-.08-2.87zM70.66 85.7c0-.47-.16-1.17-1.01-1.17-.7 0-1.01.7-1.09 1.17h2.1zm-2.19.47c0 1.01.62 1.4 1.32 1.4.55 0 .86-.08 1.09-.23l.16.55c-.23.08-.7.23-1.32.23-1.25 0-1.95-.78-1.95-2.02 0-1.17.7-2.1 1.87-2.1 1.32 0 1.64 1.17 1.64 1.87v.31h-2.81zM3.53 97.3h.62c.7 0 1.4-.23 1.4-1.09 0-.78-.62-1.09-1.4-1.09h-.62v2.18zm0-2.64h.62c.78 0 1.17-.39 1.17-.93 0-.62-.47-.93-1.17-.93-.31 0-.55 0-.62.08v1.78zm-.7-2.26c.31-.08.78-.16 1.32-.16.7 0 1.17.16 1.48.39.31.23.47.55.47 1.01 0 .55-.39 1.01-.93 1.25.55.16 1.17.55 1.17 1.4 0 .47-.16.86-.47 1.09-.39.39-1.02.55-1.87.55-.47 0-.86 0-1.09-.08V92.4h-.08zM7.19 92.09h.7v5.84h-.7zM9.61 95.9c0 .86.47 1.56 1.17 1.56s1.17-.62 1.17-1.56c0-.7-.31-1.48-1.17-1.48-.79-.07-1.17.7-1.17 1.48zm3.11-.08c0 1.48-1.01 2.1-1.95 2.1-1.09 0-1.87-.78-1.87-2.02 0-1.32.86-2.1 1.95-2.1s1.87.86 1.87 2.02zM14.12 95.9c0 .86.47 1.56 1.17 1.56s1.17-.62 1.17-1.56c0-.7-.31-1.48-1.17-1.48-.86-.07-1.17.7-1.17 1.48zm3.12-.08c0 1.48-1.01 2.1-1.95 2.1-1.09 0-1.87-.78-1.87-2.02 0-1.32.86-2.1 1.95-2.1s1.87.86 1.87 2.02zM20.82 95.51v-.31c-.08-.47-.47-.86-1.01-.86-.78 0-1.17.62-1.17 1.56 0 .78.39 1.48 1.17 1.48.47 0 .93-.31 1.09-.86v-.31l-.08-.7zm.78-3.42v5.76h-.62v-.7c-.23.47-.7.78-1.32.78-.93 0-1.71-.78-1.71-2.02 0-1.32.86-2.1 1.79-2.1.62 0 1.01.31 1.17.62v-2.34h.69zM22.61 97.46c0-.31.23-.55.47-.55.31 0 .47.23.47.55 0 .31-.16.55-.47.55-.31-.08-.47-.24-.47-.55zm0-2.88c0-.31.23-.55.47-.55.31 0 .47.23.47.55 0 .31-.16.55-.47.55-.31-.08-.47-.32-.47-.55zM28.29 93.49v1.95h1.87v.46h-1.87v1.95h-.54V95.9h-1.87v-.46h1.87v-1.95zM34.91 93.49v1.95h1.87v.46h-1.87v1.95h-.54V95.9H32.5v-.46h1.87v-1.95z"/><g><path d="M150.59 154.19v-2.73h-1.02v-.37h2.45v.37H151v2.73h-.41zM152.4 154.19v-3.09h.41v3.09h-.41zM153.4 154.19v-3.09h.62l.73 2.19c.07.2.12.36.15.46.03-.11.09-.28.16-.5l.74-2.15h.55v3.09h-.39v-2.59l-.9 2.59h-.37l-.89-2.63v2.63h-.4zM156.9 154.19v-3.09h2.24v.37h-1.83v.95h1.71v.36h-1.71v1.05h1.9v.37h-2.31z"/></g><g><path d="M131.65 120.74h.41v1.79c0 .31-.04.56-.11.74s-.2.33-.38.45-.42.17-.72.17c-.29 0-.53-.05-.71-.15a.856.856 0 0 1-.39-.43c-.08-.19-.12-.45-.12-.78v-1.79h.41v1.79c0 .27.02.47.07.59s.14.23.26.29c.12.07.27.1.45.1.3 0 .52-.07.64-.21.13-.14.19-.4.19-.79v-1.77zM132.75 123.83v-3.09h1.37c.28 0 .48.03.63.08s.26.15.34.29.13.3.13.47c0 .22-.07.4-.21.56-.14.15-.36.25-.66.29.11.05.19.1.25.15.12.11.23.25.34.41l.54.84h-.51l-.41-.64c-.12-.19-.22-.33-.3-.43s-.15-.17-.21-.21a.455.455 0 0 0-.19-.08c-.05-.01-.12-.01-.23-.01h-.47v1.37h-.41zm.41-1.72h.88c.19 0 .33-.02.44-.06.11-.04.19-.1.24-.19.05-.08.08-.18.08-.28 0-.15-.05-.27-.16-.36-.11-.09-.27-.14-.5-.14h-.98v1.03zM135.93 123.83v-3.09h.41v3.09h-.41zM136.94 123.83v-3.09h.42l1.62 2.43v-2.43h.39v3.09h-.42l-1.62-2.43v2.43h-.39zM140.07 123.83v-3.09h2.24v.37h-1.83v.95h1.71v.36h-1.71v1.05h1.9v.37h-2.31z"/></g><g><defs><path id="c" d="M151.85 107.15h24.48v6.24h-24.48z"/></defs><clipPath id="d"><use xlink:href="#c" overflow="visible"/></clipPath><g clip-path="url(#d)"><path d="M162.41 112.07l-1.06-2.75h.39l.71 2c.06.16.11.31.14.45.04-.15.09-.3.15-.45l.74-2h.37l-1.08 2.75h-.36zM163.98 111.08c0-.37.1-.64.31-.82.17-.15.38-.22.63-.22.27 0 .5.09.67.27.17.18.26.43.26.74 0 .26-.04.46-.12.6-.08.15-.19.26-.34.34-.15.08-.31.12-.48.12-.28 0-.5-.09-.68-.27-.16-.17-.25-.42-.25-.76zm.35 0c0 .26.06.45.17.57s.25.19.42.19c.17 0 .31-.06.42-.19.11-.13.17-.32.17-.58 0-.25-.06-.43-.17-.56s-.25-.19-.42-.19c-.17 0-.31.06-.42.19s-.17.31-.17.57zM166.14 112.07v-2.75h.34v2.75h-.34zM168.29 112.07v-.29c-.15.23-.37.34-.63.34-.12 0-.23-.02-.33-.07s-.18-.1-.23-.17a.626.626 0 0 1-.1-.25c-.01-.07-.02-.17-.02-.32v-1.23h.34v1.1c0 .18.01.29.02.36.02.09.07.16.14.21s.15.08.25.08.2-.03.29-.08.15-.12.19-.21c.04-.09.06-.22.06-.39v-1.07h.34v1.99h-.32zM169.15 112.07v-1.99h.3v.28c.06-.1.15-.18.25-.24s.22-.09.35-.09c.15 0 .27.03.36.09s.16.15.2.26c.16-.23.36-.35.62-.35.2 0 .35.05.46.16.11.11.16.28.16.5v1.37h-.34v-1.25c0-.14-.01-.23-.03-.29a.236.236 0 0 0-.12-.14.351.351 0 0 0-.2-.05c-.14 0-.26.05-.35.14-.09.09-.14.24-.14.45v1.16h-.34v-1.29c0-.15-.03-.26-.08-.34-.05-.08-.15-.11-.27-.11-.1 0-.18.03-.26.08s-.14.12-.18.22c-.04.1-.05.23-.05.42v1.03h-.34zM173.75 111.43l.35.04c-.05.2-.16.36-.31.47a.94.94 0 0 1-.57.17c-.29 0-.52-.09-.69-.27-.17-.18-.26-.43-.26-.75 0-.33.09-.6.26-.78s.4-.28.67-.28.48.09.65.27c.17.18.25.44.25.77v.09h-1.49c.01.22.07.39.19.5.11.12.25.17.42.17.12 0 .23-.03.32-.1.09-.05.16-.15.21-.3zm-1.11-.54h1.11c-.02-.17-.06-.29-.13-.38a.53.53 0 0 0-.42-.2c-.15 0-.29.05-.39.16-.1.11-.16.24-.17.42z"/></g></g><g><defs><path id="e" d="M151.85 113.39h24.48v6.24h-24.48z"/></defs><clipPath id="f"><use xlink:href="#e" overflow="visible"/></clipPath><g clip-path="url(#f)"><path d="M162.47 118.31v-2.75h1.04c.18 0 .32.01.42.03.13.02.25.07.34.13.09.06.16.15.22.26.06.11.08.24.08.38 0 .23-.07.43-.22.59-.15.16-.42.24-.81.24h-.71v1.12h-.36zm.36-1.44h.71c.23 0 .4-.04.5-.13.1-.09.15-.21.15-.37 0-.12-.03-.21-.09-.3a.376.376 0 0 0-.23-.16c-.06-.02-.17-.02-.34-.02h-.7v.98zM164.94 118.31v-1.99h.3v.3c.08-.14.15-.23.21-.28a.44.44 0 0 1 .22-.07c.11 0 .23.04.35.11l-.12.31a.475.475 0 0 0-.25-.07c-.07 0-.14.02-.2.07a.4.4 0 0 0-.13.18c-.04.12-.06.25-.06.39v1.04h-.32zM166.14 117.32c0-.37.1-.64.31-.82.17-.15.38-.22.63-.22.27 0 .5.09.67.27.17.18.26.43.26.74 0 .26-.04.46-.12.6-.08.15-.19.26-.34.34-.15.08-.31.12-.48.12-.28 0-.5-.09-.68-.27-.17-.17-.25-.42-.25-.76zm.34 0c0 .26.06.45.17.57s.25.19.42.19c.17 0 .31-.06.42-.19.11-.13.17-.32.17-.58 0-.25-.06-.43-.17-.56s-.25-.19-.42-.19c-.17 0-.31.06-.42.19s-.17.31-.17.57zM169.04 118.01l.05.3c-.09.02-.18.03-.25.03-.12 0-.22-.02-.29-.06a.335.335 0 0 1-.14-.15c-.03-.06-.04-.2-.04-.4v-1.15h-.25v-.26h.25v-.49l.34-.2v.7h.34v.26h-.34v1.16c0 .1.01.16.02.19s.03.05.06.07c.03.02.07.02.12.02.02 0 .07-.01.13-.02zM170.74 117.67l.35.04c-.05.2-.16.36-.31.47a.94.94 0 0 1-.57.17c-.29 0-.52-.09-.69-.27-.17-.18-.26-.43-.26-.75 0-.33.09-.6.26-.78s.4-.28.67-.28.48.09.65.27c.17.18.25.44.25.77v.09h-1.49c.01.22.07.39.19.5.11.12.25.17.42.17.12 0 .23-.03.32-.1.09-.05.16-.15.21-.3zm-1.1-.54h1.11c-.02-.17-.06-.29-.13-.38a.53.53 0 0 0-.42-.2c-.15 0-.29.05-.39.16-.1.11-.16.24-.17.42zM171.42 115.95v-.39h.34v.39h-.34zm0 2.36v-1.99h.34v1.99h-.34zM172.26 118.31v-1.99h.3v.28a.72.72 0 0 1 .63-.33c.12 0 .23.02.33.06s.18.1.23.17c.05.07.08.15.1.25.01.06.02.17.02.33v1.22h-.34v-1.21c0-.14-.01-.24-.04-.31a.311.311 0 0 0-.14-.16.475.475 0 0 0-.24-.06c-.14 0-.27.05-.37.14-.1.09-.16.26-.16.52v1.09h-.32z"/></g></g><g><path d="M160.65 124.55v-2.75h.36v1.36l1.36-1.36h.49l-1.15 1.11 1.2 1.63h-.48l-.98-1.39-.45.44v.95h-.35zM164.51 123.91l.35.04c-.05.2-.16.36-.31.47a.94.94 0 0 1-.57.17c-.29 0-.52-.09-.69-.27-.17-.18-.26-.43-.26-.75 0-.33.09-.6.26-.78s.4-.28.67-.28.48.09.65.27c.17.18.25.44.25.77v.09h-1.49c.01.22.07.39.19.5.11.12.25.17.42.17.12 0 .23-.03.32-.1.09-.05.16-.15.21-.3zm-1.11-.54h1.11c-.02-.17-.06-.29-.13-.38a.53.53 0 0 0-.42-.2c-.15 0-.29.05-.39.16-.1.11-.16.24-.17.42zM165.92 124.25l.05.3c-.09.02-.18.03-.25.03-.12 0-.22-.02-.29-.06a.335.335 0 0 1-.14-.15c-.03-.06-.04-.2-.04-.4v-1.15H165v-.26h.25v-.49l.34-.2v.7h.34v.26h-.34v1.16c0 .1.01.16.02.19s.03.05.06.07c.03.02.07.02.12.02.02 0 .07-.01.13-.02zM166.14 123.56c0-.37.1-.64.31-.82.17-.15.38-.22.63-.22.27 0 .5.09.67.27.17.18.26.43.26.74 0 .26-.04.46-.12.6-.08.15-.19.26-.34.34-.15.08-.31.12-.48.12-.28 0-.5-.09-.68-.27-.17-.17-.25-.43-.25-.76zm.35 0c0 .26.06.45.17.57s.25.19.42.19c.17 0 .31-.06.42-.19.11-.13.17-.32.17-.58 0-.25-.06-.43-.17-.56s-.25-.19-.42-.19c-.17 0-.31.06-.42.19s-.17.31-.17.57zM168.3 124.55v-1.99h.3v.28a.72.72 0 0 1 .63-.33c.12 0 .23.02.33.06s.18.1.23.17c.05.07.08.15.1.25.01.06.02.17.02.33v1.22h-.34v-1.21c0-.14-.01-.24-.04-.31a.311.311 0 0 0-.14-.16.475.475 0 0 0-.24-.06c-.14 0-.27.05-.37.14-.1.09-.16.26-.16.52v1.09h-.32zM171.83 123.91l.35.04c-.05.2-.16.36-.31.47a.94.94 0 0 1-.57.17c-.29 0-.52-.09-.69-.27-.17-.18-.26-.43-.26-.75 0-.33.09-.6.26-.78s.4-.28.67-.28.48.09.65.27c.17.18.25.44.25.77v.09h-1.49c.01.22.07.39.19.5.11.12.25.17.42.17.12 0 .23-.03.32-.1.09-.05.15-.15.21-.3zm-1.11-.54h1.11c-.02-.17-.06-.29-.13-.38a.53.53 0 0 0-.42-.2c-.15 0-.29.05-.39.16-.1.11-.16.24-.17.42zM172.37 123.96l.33-.05c.02.13.07.24.16.31s.21.11.36.11c.16 0 .27-.03.35-.09s.11-.14.11-.22c0-.08-.03-.14-.1-.18-.05-.03-.16-.07-.35-.11-.25-.06-.42-.12-.51-.16s-.17-.11-.22-.19-.07-.17-.07-.27a.52.52 0 0 1 .23-.44c.05-.04.12-.07.21-.1s.19-.04.29-.04c.16 0 .29.02.41.07.12.04.21.11.26.18s.1.18.12.31l-.33.04a.36.36 0 0 0-.13-.24.448.448 0 0 0-.3-.09c-.15 0-.27.03-.33.08-.07.05-.1.11-.1.18 0 .04.01.08.04.12.03.04.07.07.13.09l.3.09c.24.06.41.12.5.16.09.04.17.1.22.18.05.08.08.17.08.29 0 .11-.03.22-.1.32s-.16.18-.28.23c-.12.05-.26.08-.42.08-.26 0-.46-.05-.59-.16s-.23-.29-.27-.5z"/></g><g><defs><path id="g" d="M160.01 97.79h16.32v6.24h-16.32z"/></defs><clipPath id="h"><use xlink:href="#g" overflow="visible"/></clipPath><g clip-path="url(#h)"><path d="M172.72 100.51l-.36.03a.689.689 0 0 0-.14-.31c-.1-.1-.22-.15-.36-.15-.11 0-.21.03-.3.1-.11.08-.2.2-.27.36-.07.16-.1.38-.1.68.09-.13.19-.23.32-.29s.26-.1.39-.1c.24 0 .44.09.61.26.17.18.25.4.25.68 0 .18-.04.35-.12.51s-.19.28-.33.36c-.14.08-.29.13-.47.13-.3 0-.54-.11-.73-.33-.19-.22-.28-.58-.28-1.09 0-.56.1-.98.31-1.23.18-.22.43-.33.73-.33.23 0 .42.06.56.19.17.12.26.3.29.53zm-1.46 1.26c0 .12.03.24.08.35.05.11.13.2.22.26a.53.53 0 0 0 .69-.09c.11-.12.16-.29.16-.5 0-.2-.05-.36-.16-.48a.516.516 0 0 0-.41-.17c-.16 0-.3.06-.41.17-.12.12-.17.27-.17.46zM173.14 101.27c0-.35.04-.62.11-.83.07-.21.18-.37.32-.49s.32-.17.53-.17c.16 0 .29.03.41.09s.22.15.29.27c.08.12.14.26.18.43.04.17.07.4.07.69 0 .34-.04.62-.11.83-.07.21-.18.37-.32.49a.84.84 0 0 1-.53.17c-.28 0-.5-.1-.66-.3-.2-.23-.29-.63-.29-1.18zm.37 0c0 .48.06.8.17.96.11.16.25.24.42.24s.3-.08.42-.24.17-.48.17-.96-.06-.8-.17-.96-.25-.24-.42-.24c-.16 0-.3.07-.39.21-.14.19-.2.51-.2.99z"/></g></g><g><defs><path id="i" d="M151.85 125.87h24.48v6.24h-24.48z"/></defs><clipPath id="j"><use xlink:href="#i" overflow="visible"/></clipPath><g clip-path="url(#j)"><path d="M164.97 130.79v-2.75H166c.21 0 .38.03.51.08s.23.14.3.26c.07.12.11.24.11.36s-.03.23-.1.33c-.06.1-.16.19-.29.25.17.05.29.13.38.25.09.12.13.26.13.42 0 .13-.03.25-.08.36a.67.67 0 0 1-.2.26c-.08.06-.18.11-.3.14s-.27.05-.44.05h-1.05zm.36-1.59h.59c.16 0 .28-.01.35-.03.09-.03.16-.07.21-.14s.07-.14.07-.24c0-.09-.02-.17-.07-.24a.302.302 0 0 0-.19-.14c-.08-.03-.22-.04-.42-.04h-.55v.83zm0 1.27h.68c.12 0 .2 0 .25-.01a.65.65 0 0 0 .21-.07c.06-.04.1-.09.14-.15.04-.07.05-.14.05-.23 0-.1-.03-.19-.08-.27a.398.398 0 0 0-.22-.16c-.09-.03-.23-.05-.4-.05h-.64v.94zM167.46 130.79v-2.75h.34v2.75h-.34zM168.18 129.8c0-.37.1-.64.31-.82.17-.15.38-.22.63-.22.27 0 .5.09.67.27.17.18.26.43.26.74 0 .26-.04.46-.12.6-.08.15-.19.26-.34.34-.15.08-.31.12-.48.12-.28 0-.5-.09-.68-.27-.16-.17-.25-.42-.25-.76zm.35 0c0 .26.06.45.17.57s.25.19.42.19c.17 0 .31-.06.42-.19.11-.13.17-.32.17-.58 0-.25-.06-.43-.17-.56s-.25-.19-.42-.19c-.17 0-.31.06-.42.19s-.17.31-.17.57zM170.22 129.8c0-.37.1-.64.31-.82.17-.15.38-.22.63-.22.27 0 .5.09.67.27.17.18.26.43.26.74 0 .26-.04.46-.12.6-.08.15-.19.26-.34.34-.15.08-.31.12-.48.12-.28 0-.5-.09-.68-.27-.16-.17-.25-.42-.25-.76zm.35 0c0 .26.06.45.17.57s.25.19.42.19c.17 0 .31-.06.42-.19.11-.13.17-.32.17-.58 0-.25-.06-.43-.17-.56s-.25-.19-.42-.19c-.17 0-.31.06-.42.19s-.17.31-.17.57zM173.68 130.79v-.25c-.13.2-.31.3-.56.3a.78.78 0 0 1-.44-.13.87.87 0 0 1-.31-.37c-.07-.16-.11-.34-.11-.54s.03-.38.1-.54c.07-.16.17-.29.3-.37a.758.758 0 0 1 .76-.05c.09.05.17.12.23.2v-.99h.34v2.75h-.31zm-1.07-.99c0 .26.05.45.16.57.11.13.23.19.38.19s.27-.06.38-.18c.1-.12.15-.3.15-.55 0-.27-.05-.47-.16-.6a.465.465 0 0 0-.39-.19c-.15 0-.28.06-.38.18-.09.12-.14.32-.14.58z"/></g></g><g><defs><path id="k" d="M151.85 132.11h24.48v6.24h-24.48z"/></defs><clipPath id="l"><use xlink:href="#k" overflow="visible"/></clipPath><g clip-path="url(#l)"><path d="M161.83 135.96v-.32h1.16v1.02c-.18.14-.36.25-.55.32a1.644 1.644 0 0 1-1.32-.06 1.15 1.15 0 0 1-.5-.5c-.11-.22-.17-.46-.17-.73 0-.27.06-.52.17-.75s.27-.4.48-.52.45-.17.73-.17c.2 0 .38.03.54.1s.29.15.38.27c.09.11.16.26.21.45l-.33.09c-.04-.14-.09-.25-.15-.33-.06-.08-.15-.14-.26-.19s-.24-.07-.38-.07c-.17 0-.31.03-.43.08s-.22.12-.29.2c-.07.08-.13.17-.17.27-.07.17-.1.35-.1.55 0 .25.04.45.13.62s.21.29.37.37c.16.08.33.12.51.12.16 0 .31-.03.46-.09s.26-.13.34-.19v-.51h-.83zM163.49 137.03v-2.75h.34v2.75h-.34zM165.65 137.03v-.29c-.15.23-.37.34-.63.34-.12 0-.23-.02-.33-.07s-.18-.1-.23-.17a.626.626 0 0 1-.1-.25c-.01-.07-.02-.17-.02-.32v-1.23h.34v1.1c0 .18.01.29.02.36.02.09.07.16.14.21s.15.08.25.08.2-.03.29-.08.15-.12.19-.21c.04-.09.06-.22.06-.39v-1.07h.34v1.99h-.32zM167.8 136.31l.33.04c-.04.23-.13.41-.28.54-.15.13-.33.19-.55.19-.27 0-.49-.09-.66-.27-.17-.18-.25-.43-.25-.77 0-.21.04-.4.11-.56s.18-.28.33-.36c.15-.08.3-.12.48-.12.22 0 .39.05.53.16s.23.26.26.47l-.33.05c-.03-.13-.09-.23-.17-.3s-.18-.1-.29-.1c-.17 0-.31.06-.41.18s-.16.31-.16.58c0 .27.05.46.15.58.1.12.24.18.4.18.13 0 .24-.04.33-.12s.16-.21.18-.37zM168.3 136.04c0-.37.1-.64.31-.82.17-.15.38-.22.63-.22.27 0 .5.09.67.27.17.18.26.43.26.74 0 .26-.04.46-.12.6-.08.15-.19.26-.34.34-.15.08-.31.12-.48.12-.28 0-.5-.09-.68-.27-.17-.17-.25-.42-.25-.76zm.34 0c0 .26.06.45.17.57s.25.19.42.19c.17 0 .31-.06.42-.19.11-.13.17-.32.17-.58 0-.25-.06-.43-.17-.56s-.25-.19-.42-.19c-.17 0-.31.06-.42.19s-.17.31-.17.57zM170.33 136.44l.33-.05c.02.13.07.24.16.31s.21.11.36.11c.16 0 .27-.03.35-.09s.11-.14.11-.22c0-.08-.03-.14-.1-.18-.05-.03-.16-.07-.35-.11-.25-.06-.42-.12-.51-.16s-.17-.11-.22-.19-.07-.17-.07-.27a.52.52 0 0 1 .23-.44c.05-.04.12-.07.21-.1s.19-.04.29-.04c.16 0 .29.02.41.07.12.04.21.11.26.18s.1.18.12.31l-.33.04a.36.36 0 0 0-.13-.24.448.448 0 0 0-.3-.09c-.15 0-.27.03-.33.08-.07.05-.1.11-.1.18 0 .04.01.08.04.12.03.04.07.07.13.09l.3.09c.24.06.41.12.5.16.09.04.17.1.22.18.05.08.08.17.08.29 0 .11-.03.22-.1.32s-.16.18-.28.23c-.12.05-.26.08-.42.08-.26 0-.46-.05-.59-.16s-.24-.29-.27-.5zM173.74 136.39l.35.04c-.05.2-.16.36-.31.47a.94.94 0 0 1-.57.17c-.29 0-.52-.09-.69-.27-.17-.18-.26-.43-.26-.75 0-.33.09-.6.26-.78s.4-.28.67-.28.48.09.65.27c.17.18.25.44.25.77v.09h-1.49c.01.22.07.39.19.5.11.12.25.17.42.17.12 0 .23-.03.32-.1.09-.05.16-.15.21-.3zm-1.1-.54h1.11c-.02-.17-.06-.29-.13-.38a.53.53 0 0 0-.42-.2c-.15 0-.29.05-.39.16-.1.11-.16.24-.17.42z"/></g></g><g><defs><path id="m" d="M111.05 138.35h65.28v7.8h-65.28z"/></defs><clipPath id="n"><use xlink:href="#m" overflow="visible"/></clipPath><g clip-path="url(#n)"><path d="M125.61 143.27v-2.73h-1.02v-.37h2.45v.37h-1.02v2.73h-.41zM127.35 143.27v-3.09h2.24v.37h-1.83v.95h1.71v.36h-1.71v1.05h1.9v.37h-2.31zM130.21 143.27v-3.09h.62l.73 2.19c.07.2.12.36.15.46.03-.11.09-.28.16-.5l.74-2.15h.55v3.09h-.39v-2.59l-.9 2.59h-.37l-.89-2.63v2.63h-.4zM133.71 143.27v-3.09h1.17c.21 0 .36.01.47.03.15.03.28.07.38.14.1.07.19.17.25.3.06.13.09.27.09.42 0 .26-.08.49-.25.67-.17.18-.47.27-.91.27h-.79v1.26h-.41zm.41-1.62h.8c.26 0 .45-.05.56-.15.11-.1.17-.24.17-.42 0-.13-.03-.24-.1-.33s-.15-.15-.26-.18c-.07-.02-.2-.03-.38-.03h-.79v1.11zM136.6 143.27v-3.09h2.24v.37h-1.83v.95h1.71v.36h-1.71v1.05h1.9v.37h-2.31zM139.48 143.27v-3.09h1.37c.28 0 .48.03.63.08s.26.15.34.29.13.3.13.47c0 .22-.07.4-.21.56-.14.15-.36.25-.66.29.11.05.19.1.25.15.12.11.23.25.34.41l.54.84h-.51l-.41-.64c-.12-.19-.22-.33-.3-.43s-.15-.17-.21-.21a.455.455 0 0 0-.19-.08c-.05-.01-.12-.01-.23-.01h-.47v1.37h-.41zm.41-1.72h.88c.19 0 .33-.02.44-.06.11-.04.19-.1.24-.19.05-.08.08-.18.08-.28 0-.15-.05-.27-.16-.36-.11-.09-.27-.14-.5-.14h-.98v1.03zM142.25 143.27l1.19-3.09h.44l1.27 3.09h-.47l-.36-.94h-1.29l-.34.94h-.44zm.89-1.26h1.05l-.32-.86c-.1-.26-.17-.47-.22-.64-.04.2-.09.4-.17.59l-.34.91zM146.14 143.27v-2.73h-1.02v-.37h2.45v.37h-1.02v2.73h-.41zM149.91 140.18h.41v1.79c0 .31-.04.56-.11.74s-.2.33-.38.45-.42.17-.72.17c-.29 0-.53-.05-.71-.15a.856.856 0 0 1-.39-.43c-.08-.19-.12-.45-.12-.78v-1.79h.41v1.79c0 .27.02.47.07.59s.14.23.26.29c.12.07.27.1.45.1.3 0 .52-.07.64-.21.13-.14.19-.4.19-.79v-1.77zM151 143.27v-3.09h1.37c.28 0 .48.03.63.08s.26.15.34.29.13.3.13.47c0 .22-.07.4-.21.56-.14.15-.36.25-.66.29.11.05.19.1.25.15.12.11.23.25.34.41l.54.84h-.51l-.41-.64c-.12-.19-.22-.33-.3-.43s-.15-.17-.21-.21a.455.455 0 0 0-.19-.08c-.05-.01-.12-.01-.23-.01h-.47v1.37H151zm.41-1.72h.88c.19 0 .33-.02.44-.06.11-.04.19-.1.24-.19.05-.08.08-.18.08-.28 0-.15-.05-.27-.16-.36-.11-.09-.27-.14-.5-.14h-.98v1.03zM154.13 143.27v-3.09h2.24v.37h-1.83v.95h1.71v.36h-1.71v1.05h1.9v.37h-2.31zM159.85 140.13c.2 0 .37.07.5.21.13.14.19.33.19.58 0 .25-.06.44-.19.58s-.29.21-.5.21c-.2 0-.37-.07-.5-.21s-.19-.33-.19-.58c0-.25.06-.45.19-.59.13-.13.3-.2.5-.2zm0 .28c-.11 0-.21.04-.27.12-.07.08-.1.21-.1.39 0 .18.04.31.11.39.07.08.16.12.27.12.11 0 .2-.04.27-.12s.11-.22.11-.4c0-.17-.04-.3-.11-.38a.363.363 0 0 0-.28-.12zM163.17 142.19l.41.1c-.09.34-.24.59-.46.77-.22.18-.5.26-.82.26-.33 0-.6-.07-.81-.2-.21-.14-.37-.33-.48-.59-.11-.26-.16-.53-.16-.83 0-.32.06-.6.18-.84s.3-.42.52-.55c.23-.13.48-.19.75-.19.31 0 .57.08.78.24.21.16.36.38.44.67l-.4.09c-.07-.22-.18-.39-.31-.49a.854.854 0 0 0-.51-.15c-.24 0-.44.06-.6.17s-.27.27-.34.46c-.06.19-.1.39-.1.59 0 .26.04.49.11.69s.2.34.36.44c.16.1.34.15.53.15.23 0 .42-.07.58-.2.16-.13.27-.33.33-.59z"/></g></g><g><defs><path id="o" d="M111.05 7.31h8.16v131.04h-8.16z"/></defs><clipPath id="p"><use xlink:href="#o" overflow="visible"/></clipPath><g clip-path="url(#p)"><path d="M116.57 97.11h-3.09v-.61l2.19-.73c.2-.07.36-.12.46-.15-.11-.03-.28-.09-.5-.16l-2.15-.74v-.55h3.09v.39h-2.59l2.59.9v.37l-2.63.89h2.63v.39zM116.57 93.84l-3.09-1.19v-.44l3.09-1.27v.47l-.94.36v1.29l.94.34v.44zm-1.27-.89V91.9l-.86.32c-.26.1-.47.17-.64.22.2.04.4.09.59.17l.91.34zM116.57 89.83h-2.73v1.02h-.37V88.4h.37v1.02h2.73v.41zM116.57 87.97h-3.09v-2.24h.37v1.83h.95v-1.71h.36v1.71h1.05v-1.9h.37v2.31zM116.57 85.09h-3.09v-1.37c0-.28.03-.48.08-.63s.15-.26.29-.34.3-.13.47-.13c.22 0 .4.07.56.21.15.14.25.36.29.66.05-.11.1-.19.15-.25.11-.12.25-.23.41-.34l.84-.54v.51l-.64.41c-.19.12-.33.22-.43.29-.1.08-.17.15-.21.21-.04.06-.07.12-.08.19-.01.05-.01.12-.01.23v.47h1.37v.42zm-1.73-.4v-.88c0-.19-.02-.33-.06-.44a.422.422 0 0 0-.19-.24.538.538 0 0 0-.28-.08c-.15 0-.27.05-.36.16-.09.11-.14.27-.14.5v.98h1.03zM116.57 81.98h-3.09v-.42l2.43-1.62h-2.43v-.39h3.09v.42l-2.43 1.62h2.43v.39zM116.57 79.2l-3.09-1.19v-.44l3.09-1.27v.47l-.94.36v1.29l.94.34v.44zm-1.27-.89v-1.05l-.86.32c-.26.1-.47.17-.64.22.2.04.4.09.59.17l.91.34zM116.57 76h-3.09v-.41h2.73v-1.52h.37V76zM115.49 68.97l.1-.41c.34.09.59.24.77.46s.26.5.26.82c0 .33-.07.6-.2.81s-.33.37-.59.48c-.26.11-.53.16-.83.16-.32 0-.6-.06-.84-.19-.24-.12-.42-.3-.55-.52-.13-.23-.19-.48-.19-.75 0-.31.08-.57.24-.78.16-.21.38-.36.67-.44l.09.4c-.22.07-.39.18-.49.31-.1.14-.15.31-.15.52 0 .24.06.44.17.6s.27.27.46.34c.19.06.39.1.59.1.26 0 .49-.04.69-.12s.34-.2.44-.36c.1-.16.15-.34.15-.53 0-.23-.07-.42-.2-.58-.14-.16-.33-.26-.59-.32zM115.06 68.18c-.51 0-.92-.14-1.21-.41-.29-.28-.44-.63-.44-1.07 0-.29.07-.54.21-.77.14-.23.33-.4.57-.52s.52-.18.83-.18c.31 0 .59.06.84.19s.43.31.56.54c.13.23.19.48.19.75 0 .29-.07.55-.21.78-.14.23-.33.4-.58.52-.23.11-.48.17-.76.17zm.01-.42c.37 0 .67-.1.88-.3.21-.2.32-.45.32-.75 0-.31-.11-.56-.32-.76s-.52-.3-.92-.3c-.25 0-.47.04-.66.13s-.33.21-.44.37c-.1.16-.16.35-.16.55 0 .29.1.54.3.75.2.2.53.31 1 .31zM116.57 64.7h-3.09v-.42l2.43-1.63h-2.43v-.39h3.09v.42l-2.43 1.63h2.43v.39zM116.57 61.58h-3.09v-1.06c0-.24.02-.42.04-.55.04-.18.11-.33.22-.45.14-.16.31-.29.53-.37.21-.08.46-.12.73-.12.24 0 .44.03.63.08s.33.13.45.21a1.064 1.064 0 0 1 .44.65c.04.14.05.31.05.5v1.11zm-.37-.41v-.66c0-.2-.02-.36-.06-.48a.688.688 0 0 0-.16-.28c-.1-.1-.23-.17-.39-.23s-.36-.08-.6-.08c-.32 0-.57.05-.75.16-.17.11-.29.23-.35.39-.04.11-.06.29-.06.53v.65h2.37zM116.57 58.39h-3.09v-.41h3.09v.41zM116.57 56.47h-2.73v1.02h-.37v-2.45h.37v1.02h2.73v.41zM116.57 54.55h-3.09v-.41h3.09v.41zM115.06 53.54c-.51 0-.92-.14-1.21-.41-.29-.28-.44-.63-.44-1.07 0-.29.07-.54.21-.77.14-.23.33-.4.57-.52.24-.12.52-.18.83-.18.31 0 .59.06.84.19s.43.31.56.54c.13.23.19.48.19.75 0 .29-.07.55-.21.78-.14.23-.33.4-.58.52-.23.11-.48.17-.76.17zm.01-.42c.37 0 .67-.1.88-.3.21-.2.32-.45.32-.75 0-.31-.11-.56-.32-.76s-.52-.3-.92-.3c-.25 0-.47.04-.66.13-.19.08-.33.21-.44.37s-.16.35-.16.55c0 .29.1.54.3.75.2.21.53.31 1 .31zM116.57 50.06h-3.09v-.42l2.43-1.62h-2.43v-.39h3.09v.42l-2.43 1.63h2.43v.38z"/></g></g><g><defs><path id="q" d="M119.21 22.91h40.8v6.24h-40.8z"/></defs><clipPath id="r"><use xlink:href="#q" overflow="visible"/></clipPath><g clip-path="url(#r)"><path d="M122.23 27.49c-.12.13-.25.23-.39.3-.14.07-.29.1-.45.1-.3 0-.54-.1-.71-.3a.842.842 0 0 1-.21-.55c0-.18.06-.34.17-.49s.29-.27.52-.38c-.13-.15-.22-.27-.26-.37a.721.721 0 0 1-.07-.27c0-.17.07-.33.21-.46.14-.13.31-.19.52-.19.2 0 .36.06.49.18s.19.27.19.44c0 .28-.18.51-.55.71l.52.67c.06-.12.11-.25.14-.41l.37.08c-.06.25-.15.46-.26.63.13.18.29.33.46.45l-.24.28c-.15-.1-.3-.24-.45-.42zm-.23-.28l-.66-.81c-.19.12-.32.22-.39.32s-.1.2-.1.29c0 .12.05.24.14.37.09.13.23.19.4.19.11 0 .22-.03.33-.1.12-.07.21-.16.28-.26zm-.5-1.24c.16-.09.26-.17.3-.24a.39.39 0 0 0 .07-.23c0-.1-.03-.18-.09-.24a.324.324 0 0 0-.24-.09.324.324 0 0 0-.31.46c.02.05.06.1.1.16l.17.18zM124.45 27.83v-2.92h1.1c.19 0 .34.01.44.03.14.02.26.07.36.14.1.07.18.16.23.28.06.12.09.25.09.4 0 .25-.08.46-.24.63-.16.17-.44.26-.86.26h-.75v1.19h-.37zm.38-1.53h.75c.25 0 .43-.05.53-.14.1-.09.16-.22.16-.39 0-.12-.03-.23-.09-.31a.414.414 0 0 0-.24-.17c-.07-.02-.19-.03-.36-.03h-.75v1.04zM129.12 24.91h.39v1.69c0 .29-.03.53-.1.7-.07.17-.19.31-.36.42s-.4.16-.68.16c-.27 0-.5-.05-.67-.14a.78.78 0 0 1-.37-.41c-.07-.18-.11-.42-.11-.73v-1.69h.39v1.69c0 .25.02.44.07.56.05.12.13.21.24.28s.26.1.42.1c.28 0 .49-.06.61-.19s.18-.38.18-.74v-1.7zM130.19 27.83v-2.92h.39v2.58h1.44v.34h-1.83zM132.35 26.9l.36-.03c.02.15.06.27.12.36s.16.17.29.23.28.09.45.09c.15 0 .28-.02.39-.07s.2-.1.25-.18c.06-.08.08-.16.08-.25s-.03-.17-.08-.24a.514.514 0 0 0-.26-.17c-.08-.03-.25-.08-.52-.14-.27-.06-.46-.13-.56-.18-.14-.07-.24-.16-.31-.27s-.1-.23-.1-.36c0-.15.04-.29.13-.41s.21-.23.37-.29c.16-.07.34-.1.54-.1.22 0 .41.04.57.1.17.07.29.17.38.31.09.13.14.29.14.46l-.37.03c-.02-.18-.09-.32-.2-.42s-.28-.14-.51-.14c-.23 0-.4.04-.51.13a.37.37 0 0 0-.05.57c.07.07.27.14.58.21.31.07.53.13.65.19.17.08.3.18.38.3s.12.26.12.42-.04.3-.13.44-.22.25-.38.32-.35.11-.56.11c-.26 0-.49-.04-.66-.12a.905.905 0 0 1-.42-.35c-.12-.18-.17-.36-.18-.55zM135.25 27.83v-2.92h2.11v.34h-1.73v.89h1.62v.34h-1.62v.99h1.79v.34h-2.17z"/></g></g><g><defs><path id="s" d="M160.01 22.91h16.32v6.24h-16.32z"/></defs><clipPath id="t"><use xlink:href="#s" overflow="visible"/></clipPath><g clip-path="url(#t)"><path d="M169.93 27.83h-.36v-2.29c-.09.08-.2.17-.34.25s-.27.14-.38.19v-.35c.2-.09.38-.21.53-.34s.26-.26.32-.39h.23v2.93zM171.41 26.25a.635.635 0 0 1-.33-.23.615.615 0 0 1-.11-.36c0-.21.08-.39.23-.54.15-.14.36-.22.61-.22s.46.07.62.22c.16.15.23.33.23.54 0 .14-.04.25-.11.35a.65.65 0 0 1-.32.23c.18.06.32.15.41.28.09.13.14.29.14.47 0 .25-.09.46-.27.63s-.41.25-.7.25-.52-.08-.7-.26-.26-.38-.26-.64c0-.19.05-.35.14-.48.1-.11.24-.19.42-.24zm-.19.74c0 .1.02.2.07.3.05.1.12.17.22.22.1.05.2.08.31.08.17 0 .31-.05.42-.17.11-.11.17-.25.17-.42 0-.17-.06-.32-.17-.43a.596.596 0 0 0-.43-.17c-.17 0-.31.06-.42.17-.11.11-.17.25-.17.42zm.12-1.35c0 .14.04.25.13.34.09.09.2.13.35.13.14 0 .25-.04.34-.13s.13-.19.13-.32-.05-.24-.14-.33a.452.452 0 0 0-.34-.13c-.14 0-.25.04-.34.13-.09.09-.13.19-.13.31zM173.13 26.39c0-.35.04-.62.11-.83.07-.21.18-.37.32-.49s.32-.17.53-.17c.16 0 .29.03.41.09s.22.15.29.27c.08.12.14.26.18.43.04.17.07.4.07.69 0 .34-.04.62-.11.83-.07.21-.18.37-.32.49a.84.84 0 0 1-.53.17c-.28 0-.5-.1-.66-.3-.19-.23-.29-.63-.29-1.18zm.37 0c0 .48.06.8.17.96.11.16.25.24.42.24s.3-.08.42-.24.17-.48.17-.96-.06-.8-.17-.96-.25-.24-.42-.24c-.16 0-.3.07-.39.21-.14.19-.2.51-.2.99z"/></g></g><g><defs><path id="u" d="M119.21 29.15h40.8v76.44h-40.8z"/></defs></g><g><defs><path id="v" d="M160.01 29.15h16.32v6.24h-16.32z"/></defs><clipPath id="w"><use xlink:href="#v" overflow="visible"/></clipPath><g clip-path="url(#w)"><path d="M169.93 34.07h-.36v-2.29a2 2 0 0 1-.34.25c-.14.08-.27.14-.38.19v-.35c.2-.09.38-.21.53-.34s.26-.26.32-.39h.23v2.93zM170.88 31.54v-.34h1.89v.28c-.19.2-.37.46-.55.79-.18.33-.32.67-.42 1.01-.07.24-.12.51-.14.8h-.37c0-.23.05-.51.14-.83.09-.33.21-.64.37-.94.16-.3.33-.56.51-.76h-1.43zM173.13 32.63c0-.35.04-.62.11-.83.07-.21.18-.37.32-.49s.32-.17.53-.17c.16 0 .29.03.41.09s.22.15.29.27c.08.12.14.26.18.43.04.17.07.4.07.69 0 .34-.04.62-.11.83-.07.21-.18.37-.32.49a.84.84 0 0 1-.53.17c-.28 0-.5-.1-.66-.3-.19-.23-.29-.63-.29-1.18zm.37 0c0 .48.06.8.17.96.11.16.25.24.42.24s.3-.08.42-.24.17-.48.17-.96-.06-.8-.17-.96-.25-.24-.42-.24c-.16 0-.3.07-.39.21-.14.19-.2.51-.2.99z"/></g></g><g><defs><path id="x" d="M160.01 35.39h16.32v6.24h-16.32z"/></defs><clipPath id="y"><use xlink:href="#x" overflow="visible"/></clipPath><g clip-path="url(#y)"><path d="M169.93 40.31h-.36v-2.29c-.09.08-.2.17-.34.25s-.27.14-.38.19v-.35c.2-.09.38-.21.53-.34s.26-.26.32-.39h.23v2.93zM172.72 38.11l-.36.03a.689.689 0 0 0-.14-.31c-.1-.1-.22-.15-.36-.15-.11 0-.21.03-.3.1-.11.08-.2.2-.27.36-.07.16-.1.38-.1.68.09-.13.19-.23.32-.29s.26-.1.39-.1c.24 0 .44.09.61.26.17.18.25.4.25.68 0 .18-.04.35-.12.51s-.19.28-.33.36c-.14.08-.29.13-.47.13-.3 0-.54-.11-.73-.33-.19-.22-.28-.58-.28-1.09 0-.56.1-.98.31-1.23.18-.22.43-.33.73-.33.23 0 .42.06.56.19.17.12.26.3.29.53zm-1.47 1.26c0 .12.03.24.08.35.05.11.13.2.22.26a.53.53 0 0 0 .69-.09c.11-.12.16-.29.16-.5 0-.2-.05-.36-.16-.48a.516.516 0 0 0-.41-.17c-.16 0-.3.06-.41.17-.11.12-.17.27-.17.46zM173.13 38.87c0-.35.04-.62.11-.83.07-.21.18-.37.32-.49s.32-.17.53-.17c.16 0 .29.03.41.09s.22.15.29.27c.08.12.14.26.18.43.04.17.07.4.07.69 0 .34-.04.62-.11.83-.07.21-.18.37-.32.49a.84.84 0 0 1-.53.17c-.28 0-.5-.1-.66-.3-.19-.23-.29-.63-.29-1.18zm.37 0c0 .48.06.8.17.96.11.16.25.24.42.24s.3-.08.42-.24.17-.48.17-.96-.06-.8-.17-.96-.25-.24-.42-.24c-.16 0-.3.07-.39.21-.14.19-.2.51-.2.99z"/></g></g><g><defs><path id="z" d="M160.01 41.63h16.32v6.24h-16.32z"/></defs><clipPath id="A"><use xlink:href="#z" overflow="visible"/></clipPath><g clip-path="url(#A)"><path d="M169.93 46.55h-.36v-2.29c-.09.08-.2.17-.34.25s-.27.14-.38.19v-.35c.2-.09.38-.21.53-.34s.26-.26.32-.39h.23v2.93zM170.86 45.79l.38-.03c.03.18.09.32.19.41.1.09.22.14.37.14.17 0 .32-.07.44-.2s.18-.3.18-.52c0-.21-.06-.37-.17-.48a.595.595 0 0 0-.45-.18.62.62 0 0 0-.31.08c-.09.05-.17.12-.22.2l-.34-.04.28-1.5h1.45v.34h-1.17l-.16.79c.18-.12.36-.18.55-.18.25 0 .47.09.65.26.18.18.26.4.26.68 0 .26-.08.49-.23.69-.19.24-.44.35-.77.35-.27 0-.48-.07-.65-.22a.892.892 0 0 1-.28-.59zM173.13 45.11c0-.35.04-.62.11-.83.07-.21.18-.37.32-.49s.32-.17.53-.17c.16 0 .29.03.41.09s.22.15.29.27c.08.12.14.26.18.43.04.17.07.4.07.69 0 .34-.04.62-.11.83-.07.21-.18.37-.32.49a.84.84 0 0 1-.53.17c-.28 0-.5-.1-.66-.3-.19-.23-.29-.63-.29-1.18zm.37 0c0 .48.06.8.17.96.11.16.25.24.42.24s.3-.08.42-.24.17-.48.17-.96-.06-.8-.17-.96-.25-.24-.42-.24c-.16 0-.3.07-.39.21-.14.19-.2.51-.2.99z"/></g></g><g><defs><path id="B" d="M160.01 72.83h16.32v6.24h-16.32z"/></defs><clipPath id="C"><use xlink:href="#B" overflow="visible"/></clipPath><g clip-path="url(#C)"><path d="M169.93 77.75h-.36v-2.29c-.09.08-.2.17-.34.25s-.27.14-.38.19v-.35c.2-.09.38-.21.53-.34s.26-.26.32-.39h.23v2.93zM170.86 76.31c0-.35.04-.62.11-.83.07-.21.18-.37.32-.49s.32-.17.53-.17c.16 0 .29.03.41.09s.22.15.29.27c.08.12.14.26.18.43.04.17.07.4.07.69 0 .34-.04.62-.11.83-.07.21-.18.37-.32.49a.84.84 0 0 1-.53.17c-.28 0-.5-.1-.66-.3-.2-.23-.29-.63-.29-1.18zm.37 0c0 .48.06.8.17.96.11.16.25.24.42.24s.3-.08.42-.24.17-.48.17-.96-.06-.8-.17-.96-.25-.24-.42-.24c-.16 0-.3.07-.39.21-.14.19-.2.51-.2.99zM173.13 76.31c0-.35.04-.62.11-.83.07-.21.18-.37.32-.49s.32-.17.53-.17c.16 0 .29.03.41.09s.22.15.29.27c.08.12.14.26.18.43.04.17.07.4.07.69 0 .34-.04.62-.11.83-.07.21-.18.37-.32.49a.84.84 0 0 1-.53.17c-.28 0-.5-.1-.66-.3-.19-.23-.29-.63-.29-1.18zm.37 0c0 .48.06.8.17.96.11.16.25.24.42.24s.3-.08.42-.24.17-.48.17-.96-.06-.8-.17-.96-.25-.24-.42-.24c-.16 0-.3.07-.39.21-.14.19-.2.51-.2.99z"/></g></g><g><defs><path id="D" d="M160.01 79.07h16.32v6.24h-16.32z"/></defs><clipPath id="E"><use xlink:href="#D" overflow="visible"/></clipPath><g clip-path="url(#E)"><path d="M170.91 83.32l.34-.03c.03.16.08.28.17.35.08.07.19.11.32.11.11 0 .21-.03.29-.08.08-.05.15-.12.2-.2.05-.08.1-.2.13-.34.04-.14.05-.29.05-.44v-.07c-.07.11-.17.21-.29.28a.816.816 0 0 1-1.01-.15c-.17-.18-.25-.41-.25-.69 0-.3.09-.53.26-.71.17-.18.39-.27.66-.27a.928.928 0 0 1 .88.59c.08.19.12.46.12.82 0 .37-.04.67-.12.89-.08.22-.2.39-.36.51-.16.12-.35.17-.56.17-.23 0-.42-.06-.56-.19a.876.876 0 0 1-.27-.55zm1.47-1.29c0-.21-.05-.37-.16-.49a.518.518 0 0 0-.4-.18c-.16 0-.3.07-.42.2s-.18.3-.18.51c0 .19.06.34.17.45.11.12.25.17.42.17.17 0 .3-.06.41-.17.11-.12.16-.28.16-.49zM173.14 82.55c0-.35.04-.62.11-.83.07-.21.18-.37.32-.49s.32-.17.53-.17c.16 0 .29.03.41.09s.22.15.29.27c.08.12.14.26.18.43.04.17.07.4.07.69 0 .34-.04.62-.11.83-.07.21-.18.37-.32.49a.84.84 0 0 1-.53.17c-.28 0-.5-.1-.66-.3-.2-.23-.29-.63-.29-1.18zm.37 0c0 .48.06.8.17.96.11.16.25.24.42.24s.3-.08.42-.24.17-.48.17-.96-.06-.8-.17-.96-.25-.24-.42-.24c-.16 0-.3.07-.39.21-.14.19-.2.51-.2.99z"/></g></g><g><defs><path id="F" d="M160.01 85.31h16.32v6.24h-16.32z"/></defs><clipPath id="G"><use xlink:href="#F" overflow="visible"/></clipPath><g clip-path="url(#G)"><path d="M171.41 88.65a.635.635 0 0 1-.33-.23.615.615 0 0 1-.11-.36c0-.21.08-.39.23-.54.15-.14.36-.22.61-.22s.46.07.62.22c.16.15.23.33.23.54 0 .14-.04.25-.11.35a.65.65 0 0 1-.32.23c.18.06.32.15.41.28.09.13.14.29.14.47 0 .25-.09.46-.27.63s-.41.25-.7.25-.52-.08-.7-.26-.26-.38-.26-.64c0-.19.05-.35.14-.48.11-.11.24-.19.42-.24zm-.19.74c0 .1.02.2.07.3.05.1.12.17.22.22.1.05.2.08.31.08.17 0 .31-.05.42-.17.11-.11.17-.25.17-.42 0-.17-.06-.32-.17-.43a.596.596 0 0 0-.43-.17c-.17 0-.31.06-.42.17-.11.12-.17.26-.17.42zm.12-1.35c0 .14.04.25.13.34.09.09.2.13.35.13.14 0 .25-.04.34-.13s.13-.19.13-.32-.05-.24-.14-.33a.452.452 0 0 0-.34-.13c-.14 0-.25.04-.34.13-.09.09-.13.19-.13.31zM173.14 88.79c0-.35.04-.62.11-.83.07-.21.18-.37.32-.49s.32-.17.53-.17c.16 0 .29.03.41.09s.22.15.29.27c.08.12.14.26.18.43.04.17.07.4.07.69 0 .34-.04.62-.11.83-.07.21-.18.37-.32.49a.84.84 0 0 1-.53.17c-.28 0-.5-.1-.66-.3-.2-.23-.29-.63-.29-1.18zm.37 0c0 .48.06.8.17.96.11.16.25.24.42.24s.3-.08.42-.24.17-.48.17-.96-.06-.8-.17-.96-.25-.24-.42-.24c-.16 0-.3.07-.39.21-.14.19-.2.51-.2.99z"/></g></g><g><defs><path id="H" d="M160.01 91.55h16.32v6.24h-16.32z"/></defs><clipPath id="I"><use xlink:href="#H" overflow="visible"/></clipPath><g clip-path="url(#I)"><path d="M170.88 93.94v-.34h1.89v.28c-.19.2-.37.46-.55.79-.18.33-.32.67-.42 1.01-.07.24-.12.51-.14.8h-.37c0-.23.05-.51.14-.83.09-.33.21-.64.37-.94.16-.3.33-.56.51-.76h-1.43zM173.14 95.03c0-.35.04-.62.11-.83.07-.21.18-.37.32-.49s.32-.17.53-.17c.16 0 .29.03.41.09s.22.15.29.27c.08.12.14.26.18.43.04.17.07.4.07.69 0 .34-.04.62-.11.83-.07.21-.18.37-.32.49a.84.84 0 0 1-.53.17c-.28 0-.5-.1-.66-.3-.2-.23-.29-.63-.29-1.18zm.37 0c0 .48.06.8.17.96.11.16.25.24.42.24s.3-.08.42-.24.17-.48.17-.96-.06-.8-.17-.96-.25-.24-.42-.24c-.16 0-.3.07-.39.21-.14.19-.2.51-.2.99z"/></g></g><g><defs><path id="J" d="M160.01 47.87h16.32v6.24h-16.32z"/></defs><clipPath id="K"><use xlink:href="#J" overflow="visible"/></clipPath><g clip-path="url(#K)"><path d="M169.93 52.79h-.36V50.5c-.09.08-.2.17-.34.25s-.27.14-.38.19v-.34c.2-.09.38-.21.53-.34s.26-.26.32-.39h.23v2.92zM172.01 52.79v-.7h-1.27v-.33l1.33-1.89h.29v1.89h.39v.33h-.39v.7h-.35zm0-1.02v-1.32l-.91 1.32h.91zM173.13 51.35c0-.35.04-.62.11-.83.07-.21.18-.37.32-.49s.32-.17.53-.17c.16 0 .29.03.41.09s.22.15.29.27c.08.12.14.26.18.43.04.17.07.4.07.69 0 .34-.04.62-.11.83-.07.21-.18.37-.32.49a.84.84 0 0 1-.53.17c-.28 0-.5-.1-.66-.3-.19-.23-.29-.63-.29-1.18zm.37 0c0 .48.06.8.17.96.11.16.25.24.42.24s.3-.08.42-.24.17-.48.17-.96-.06-.8-.17-.96-.25-.24-.42-.24c-.16 0-.3.07-.39.21-.14.19-.2.51-.2.99z"/></g></g><g><defs><path id="L" d="M160.01 54.11h16.32v6.24h-16.32z"/></defs><clipPath id="M"><use xlink:href="#L" overflow="visible"/></clipPath><g clip-path="url(#M)"><path d="M169.93 59.03h-.36v-2.29c-.09.08-.2.17-.34.25s-.27.14-.38.19v-.35c.2-.09.38-.21.53-.34s.26-.26.32-.39h.23v2.93zM170.86 58.26l.36-.05c.04.2.11.35.21.44.1.09.22.13.36.13.17 0 .31-.06.43-.17.12-.12.17-.26.17-.43 0-.17-.05-.3-.16-.41a.542.542 0 0 0-.41-.16c-.07 0-.15.01-.25.04l.04-.31h.06c.15 0 .29-.04.41-.12.12-.08.18-.2.18-.37a.445.445 0 0 0-.47-.46c-.14 0-.26.04-.35.13a.71.71 0 0 0-.18.39l-.36-.06c.04-.24.14-.43.3-.56.16-.13.35-.2.58-.2.16 0 .31.03.44.1s.24.16.31.28c.07.12.11.24.11.38 0 .13-.03.24-.1.34s-.17.19-.3.25c.17.04.31.12.4.25.1.13.14.28.14.47 0 .25-.09.47-.28.65-.19.18-.42.27-.71.27a.93.93 0 0 1-.64-.23.839.839 0 0 1-.29-.59zM173.13 57.59c0-.35.04-.62.11-.83.07-.21.18-.37.32-.49s.32-.17.53-.17c.16 0 .29.03.41.09s.22.15.29.27c.08.12.14.26.18.43.04.17.07.4.07.69 0 .34-.04.62-.11.83-.07.21-.18.37-.32.49a.84.84 0 0 1-.53.17c-.28 0-.5-.1-.66-.3-.19-.23-.29-.63-.29-1.18zm.37 0c0 .48.06.8.17.96.11.16.25.24.42.24s.3-.08.42-.24.17-.48.17-.96-.06-.8-.17-.96-.25-.24-.42-.24c-.16 0-.3.07-.39.21-.14.19-.2.51-.2.99z"/></g></g><g><defs><path id="N" d="M160.01 60.35h16.32v6.24h-16.32z"/></defs><clipPath id="O"><use xlink:href="#N" overflow="visible"/></clipPath><g clip-path="url(#O)"><path d="M169.93 65.27h-.36v-2.29c-.09.08-.2.17-.34.25s-.27.14-.38.19v-.35c.2-.09.38-.21.53-.34s.26-.26.32-.39h.23v2.93zM172.74 64.93v.34h-1.93c0-.09.01-.17.04-.25.05-.13.13-.26.24-.39.11-.13.26-.27.47-.44.32-.26.53-.47.64-.62.11-.15.17-.3.17-.43 0-.14-.05-.26-.15-.36s-.23-.15-.4-.15-.31.05-.41.16-.16.25-.16.43l-.37-.04c.02-.27.12-.48.28-.63.16-.14.39-.22.66-.22.28 0 .5.08.67.23.16.16.25.35.25.58 0 .12-.02.23-.07.34-.05.11-.13.23-.24.36-.11.13-.3.3-.55.51-.22.18-.35.3-.41.37s-.11.13-.15.19h1.42zM173.13 63.83c0-.35.04-.62.11-.83.07-.21.18-.37.32-.49s.32-.17.53-.17c.16 0 .29.03.41.09s.22.15.29.27c.08.12.14.26.18.43.04.17.07.4.07.69 0 .34-.04.62-.11.83-.07.21-.18.37-.32.49a.84.84 0 0 1-.53.17c-.28 0-.5-.1-.66-.3-.19-.23-.29-.63-.29-1.18zm.37 0c0 .48.06.8.17.96.11.16.25.24.42.24s.3-.08.42-.24.17-.48.17-.96-.06-.8-.17-.96-.25-.24-.42-.24c-.16 0-.3.07-.39.21-.14.19-.2.51-.2.99z"/></g></g><g><defs><path id="P" d="M160.01 66.59h16.32v6.24h-16.32z"/></defs><clipPath id="Q"><use xlink:href="#P" overflow="visible"/></clipPath><g clip-path="url(#Q)"><path d="M169.93 71.51h-.36v-2.29c-.09.08-.2.17-.34.25s-.27.14-.38.19v-.35c.2-.09.38-.21.53-.34s.26-.26.32-.39h.23v2.93zM172.21 71.51h-.36v-2.29c-.09.08-.2.17-.34.25s-.27.14-.38.19v-.35c.2-.09.38-.21.53-.34s.26-.26.32-.39h.23v2.93zM173.13 70.07c0-.35.04-.62.11-.83.07-.21.18-.37.32-.49s.32-.17.53-.17c.16 0 .29.03.41.09s.22.15.29.27c.08.12.14.26.18.43.04.17.07.4.07.69 0 .34-.04.62-.11.83-.07.21-.18.37-.32.49a.84.84 0 0 1-.53.17c-.28 0-.5-.1-.66-.3-.19-.23-.29-.63-.29-1.18zm.37 0c0 .48.06.8.17.96.11.16.25.24.42.24s.3-.08.42-.24.17-.48.17-.96-.06-.8-.17-.96-.25-.24-.42-.24c-.16 0-.3.07-.39.21-.14.19-.2.51-.2.99z"/></g></g><g><defs><path id="R" d="M160.01 10.43h16.32v6.24h-16.32z"/></defs><clipPath id="S"><use xlink:href="#R" overflow="visible"/></clipPath><g clip-path="url(#S)"><path d="M170.46 15.01v.34h-1.93c0-.09.01-.17.04-.25.05-.13.13-.26.24-.39.11-.13.26-.27.47-.44.32-.26.53-.47.64-.62.11-.15.17-.3.17-.43 0-.14-.05-.26-.15-.36s-.23-.15-.4-.15-.31.05-.41.16c-.1.1-.16.25-.16.43l-.37-.04c.02-.27.12-.48.28-.63s.39-.22.66-.22c.28 0 .5.08.67.23.16.16.25.35.25.58 0 .12-.02.23-.07.34-.05.11-.13.23-.24.36s-.3.3-.55.51c-.22.18-.35.3-.41.37s-.11.13-.15.19h1.42zM170.86 13.91c0-.35.04-.62.11-.83.07-.21.18-.37.32-.49s.32-.17.53-.17c.16 0 .29.03.41.09s.22.15.29.27c.08.12.14.26.18.43.04.17.07.4.07.69 0 .34-.04.62-.11.83-.07.21-.18.37-.32.49s-.32.17-.53.17c-.28 0-.5-.1-.66-.3-.2-.23-.29-.63-.29-1.18zm.37 0c0 .48.06.8.17.96s.25.24.42.24.3-.08.42-.24c.11-.16.17-.48.17-.96s-.06-.8-.17-.96c-.11-.16-.25-.24-.42-.24-.16 0-.3.07-.39.21-.14.19-.2.51-.2.99zM173.13 13.91c0-.35.04-.62.11-.83.07-.21.18-.37.32-.49s.32-.17.53-.17c.16 0 .29.03.41.09s.22.15.29.27c.08.12.14.26.18.43.04.17.07.4.07.69 0 .34-.04.62-.11.83-.07.21-.18.37-.32.49s-.32.17-.53.17c-.28 0-.5-.1-.66-.3-.19-.23-.29-.63-.29-1.18zm.37 0c0 .48.06.8.17.96s.25.24.42.24.3-.08.42-.24c.11-.16.17-.48.17-.96s-.06-.8-.17-.96c-.11-.16-.25-.24-.42-.24-.16 0-.3.07-.39.21-.14.19-.2.51-.2.99z"/></g></g><g><defs><path id="T" d="M119.21 16.67h40.8v6.24h-40.8z"/></defs><clipPath id="U"><use xlink:href="#T" overflow="visible"/></clipPath><g clip-path="url(#U)"><path d="M120.59 21.59v-2.92h1.1c.22 0 .4.03.54.09.13.06.24.15.32.27.08.12.11.25.11.39 0 .12-.03.24-.1.35s-.17.2-.31.27c.18.05.31.14.41.26.09.13.14.27.14.44 0 .14-.03.26-.09.38s-.13.21-.21.27a.86.86 0 0 1-.32.14c-.13.03-.29.05-.47.05h-1.12zm.39-1.69h.63c.17 0 .29-.01.37-.03.1-.03.17-.08.22-.15s.07-.15.07-.25-.02-.18-.07-.26-.11-.12-.2-.15-.23-.04-.44-.04h-.58v.88zm0 1.35h.73c.12 0 .21 0 .26-.01.09-.02.16-.04.22-.08a.463.463 0 0 0 .21-.41c0-.11-.03-.2-.08-.28a.438.438 0 0 0-.23-.17c-.1-.03-.24-.05-.43-.05h-.68v1zM123.35 21.59v-2.92h.39v2.58h1.44v.34h-1.83zM125.52 20.17c0-.48.13-.86.39-1.14.26-.27.6-.41 1.01-.41.27 0 .51.06.73.19.22.13.38.31.5.54.11.23.17.49.17.78 0 .3-.06.56-.18.79-.12.23-.29.41-.51.53-.22.12-.46.18-.71.18-.27 0-.52-.07-.74-.2a1.22 1.22 0 0 1-.49-.54 1.59 1.59 0 0 1-.17-.72zm.4.01c0 .35.09.63.28.83.19.2.43.3.71.3.29 0 .53-.1.72-.31.19-.2.28-.49.28-.87 0-.24-.04-.44-.12-.62a.94.94 0 0 0-.87-.56c-.27 0-.51.09-.71.28s-.29.51-.29.95zM128.64 20.17c0-.48.13-.86.39-1.14.26-.27.6-.41 1.01-.41.27 0 .51.06.73.19.22.13.38.31.5.54.11.23.17.49.17.78 0 .3-.06.56-.18.79-.12.23-.29.41-.51.53-.22.12-.46.18-.71.18-.27 0-.52-.07-.74-.2a1.22 1.22 0 0 1-.49-.54 1.59 1.59 0 0 1-.17-.72zm.4.01c0 .35.09.63.28.83.19.2.43.3.71.3.29 0 .53-.1.72-.31.19-.2.28-.49.28-.87 0-.24-.04-.44-.12-.62a.94.94 0 0 0-.87-.56c-.27 0-.51.09-.71.28s-.29.51-.29.95zM131.88 21.59v-2.92h1.01c.23 0 .4.01.52.04.17.04.31.11.43.21.15.13.27.3.35.5s.11.43.11.69c0 .22-.03.42-.08.59-.05.17-.12.31-.2.43-.08.11-.17.2-.27.27s-.21.11-.35.15-.29.05-.47.05h-1.05zm.39-.34h.62c.19 0 .34-.02.45-.05.11-.04.2-.09.26-.15.09-.09.16-.21.21-.37.05-.15.08-.34.08-.56 0-.31-.05-.54-.15-.7a.778.778 0 0 0-.37-.33c-.1-.04-.27-.06-.5-.06h-.61v2.22zM135.96 21.59v-2.92h1.1c.19 0 .34.01.44.03.14.02.26.07.36.14.1.07.18.16.23.28.06.12.09.25.09.4 0 .25-.08.46-.24.63-.16.17-.44.26-.86.26h-.75v1.19h-.37zm.39-1.53h.75c.25 0 .43-.05.53-.14s.16-.22.16-.39c0-.12-.03-.23-.09-.31a.414.414 0 0 0-.24-.17c-.07-.02-.19-.03-.36-.03h-.75v1.04zM138.73 21.59v-2.92h1.29c.26 0 .46.03.59.08.14.05.24.15.32.28s.12.28.12.44c0 .21-.07.38-.2.52s-.34.23-.62.27c.1.05.18.1.23.15.11.1.22.23.32.39l.51.79h-.49l-.39-.61c-.11-.18-.21-.31-.28-.4a.688.688 0 0 0-.2-.19c-.06-.04-.12-.06-.18-.08-.04-.01-.12-.01-.22-.01h-.45v1.3h-.35zm.38-1.63h.83c.18 0 .31-.02.41-.05.1-.04.18-.09.23-.18.05-.08.08-.17.08-.26 0-.14-.05-.25-.15-.34-.1-.09-.26-.13-.48-.13h-.92v.96zM141.73 21.59v-2.92h2.11v.34h-1.73v.89h1.62v.34h-1.62v.99h1.79v.34h-2.17zM144.35 20.66l.36-.03c.02.15.06.27.12.36.06.09.16.17.29.23.13.06.28.09.45.09.15 0 .28-.02.39-.07.11-.04.2-.1.25-.18.06-.08.08-.16.08-.25s-.03-.17-.08-.24a.514.514 0 0 0-.26-.17c-.08-.03-.25-.08-.52-.14-.27-.06-.46-.13-.56-.18a.752.752 0 0 1-.31-.27.653.653 0 0 1-.1-.36c0-.15.04-.29.13-.41.08-.13.21-.23.37-.29.16-.07.34-.1.54-.1.22 0 .41.03.57.1a.832.832 0 0 1 .52.77l-.37.03c-.02-.18-.09-.32-.2-.42s-.28-.14-.51-.14c-.23 0-.4.04-.51.13-.11.09-.16.19-.16.31 0 .1.04.19.11.26s.27.14.58.21c.31.07.53.13.65.19.17.08.3.18.38.3s.12.26.12.42c0 .16-.04.3-.13.44a.92.92 0 0 1-.38.32c-.17.08-.35.11-.56.11-.26 0-.49-.04-.66-.12a.905.905 0 0 1-.42-.35.904.904 0 0 1-.18-.55zM147.1 20.66l.36-.03c.02.15.06.27.12.36.06.09.16.17.29.23.13.06.28.09.45.09.15 0 .28-.02.39-.07.11-.04.2-.1.25-.18.06-.08.08-.16.08-.25s-.03-.17-.08-.24a.514.514 0 0 0-.26-.17c-.08-.03-.25-.08-.52-.14-.27-.06-.46-.13-.56-.18a.752.752 0 0 1-.31-.27.653.653 0 0 1-.1-.36c0-.15.04-.29.13-.41.08-.13.21-.23.37-.29.16-.07.34-.1.54-.1.22 0 .41.03.57.1a.832.832 0 0 1 .52.77l-.37.03c-.02-.18-.09-.32-.2-.42s-.28-.14-.51-.14c-.23 0-.4.04-.51.13-.11.09-.16.19-.16.31 0 .1.04.19.11.26s.27.14.58.21c.31.07.53.13.65.19.17.08.3.18.38.3s.12.26.12.42c0 .16-.04.3-.13.44a.92.92 0 0 1-.38.32c-.17.08-.35.11-.56.11-.26 0-.49-.04-.66-.12a.905.905 0 0 1-.42-.35c-.12-.18-.17-.36-.18-.55zM151.91 18.67h.39v1.69c0 .29-.03.53-.1.7-.07.17-.19.31-.36.42-.17.11-.4.16-.68.16-.27 0-.5-.05-.67-.14a.78.78 0 0 1-.37-.41c-.07-.18-.11-.42-.11-.73v-1.69h.39v1.69c0 .25.02.44.07.56.05.12.13.21.24.28s.26.1.42.1c.28 0 .49-.06.61-.19s.18-.38.18-.74v-1.7zM153 21.59v-2.92h1.29c.26 0 .46.03.59.08.14.05.24.15.32.28s.12.28.12.44c0 .21-.07.38-.2.52s-.34.23-.62.27c.1.05.18.1.23.15.11.1.22.23.32.39l.51.79h-.49l-.39-.61c-.11-.18-.21-.31-.28-.4a.688.688 0 0 0-.2-.19c-.06-.04-.12-.06-.18-.08-.04-.01-.12-.01-.22-.01h-.45v1.3H153zm.38-1.63h.83c.18 0 .31-.02.41-.05.1-.04.18-.09.23-.18.05-.08.08-.17.08-.26 0-.14-.05-.25-.15-.34-.1-.09-.26-.13-.48-.13h-.92v.96zM156 21.59v-2.92h2.11v.34h-1.73v.89H158v.34h-1.62v.99h1.79v.34H156z"/></g></g><g><defs><path id="V" d="M160.01 16.67h16.32v6.24h-16.32z"/></defs><clipPath id="W"><use xlink:href="#V" overflow="visible"/></clipPath><g clip-path="url(#W)"><path d="M169.93 21.59h-.36V19.3a2 2 0 0 1-.34.25c-.14.08-.27.14-.38.19v-.35c.2-.09.38-.21.53-.34s.26-.26.32-.39h.23v2.93zM170.91 20.92l.34-.03c.03.16.08.28.17.35.08.07.19.11.32.11.11 0 .21-.02.29-.08.08-.05.15-.12.2-.2s.1-.2.13-.34c.04-.14.05-.29.05-.44v-.07c-.07.11-.17.21-.29.28a.816.816 0 0 1-1.01-.15.988.988 0 0 1-.25-.69c0-.3.09-.53.26-.72.17-.18.39-.27.66-.27a.928.928 0 0 1 .88.59c.08.19.12.46.12.82 0 .37-.04.67-.12.89s-.2.39-.36.5c-.16.12-.35.17-.56.17-.23 0-.42-.06-.56-.19-.15-.12-.24-.3-.27-.53zm1.47-1.29c0-.21-.05-.37-.16-.49a.518.518 0 0 0-.4-.18c-.16 0-.3.06-.42.2s-.18.3-.18.51c0 .19.06.34.17.45s.25.17.42.17c.17 0 .3-.06.41-.17s.16-.28.16-.49zM173.13 20.15c0-.35.04-.62.11-.83.07-.21.18-.37.32-.49s.32-.17.53-.17c.16 0 .29.03.41.09s.22.15.29.27c.08.12.14.26.18.43.04.17.07.4.07.69 0 .34-.04.62-.11.83-.07.21-.18.37-.32.49s-.32.17-.53.17c-.28 0-.5-.1-.66-.3-.19-.23-.29-.63-.29-1.18zm.37 0c0 .48.06.8.17.96s.25.24.42.24.3-.08.42-.24c.11-.16.17-.48.17-.96s-.06-.8-.17-.96c-.11-.16-.25-.24-.42-.24-.16 0-.3.07-.39.21-.14.19-.2.51-.2.99z"/></g></g><path d="M258.98 7.07H111.29v.48H258.9c.02-.16.04-.32.08-.48zM258.59 13.31h-82.02v.48h82.08c-.03-.15-.05-.31-.06-.48zM258.47 20.01c.01-.15.02-.31.04-.46h-81.94v.48h81.9v-.02zM258.22 25.79h-81.65v.48h81.64c0-.16 0-.32.01-.48zM258.18 32.03h-81.61v.48h81.61v-.48zM176.09 7.56h.48v30.48h-.48z"/><path d="M192.41 7.56h.48v30.48h-.48zM208.73 7.56h.48v30.48h-.48zM225.05 7.56h.48v30.48h-.48zM241.37 7.56h.48v30.48h-.48zM257.69 7.56h.48v30.48h-.48z"/><path d="M258.23 38.03h-82.14v1.08h82.14v-1.08z" fill-rule="evenodd" clip-rule="evenodd"/><path d="M258.25 44.51h-81.68v.48h81.68v-.48zM258.27 50.75h-81.7v.48h81.7v-.48zM258.32 56.99h-81.75v.48h81.76c-.01-.16-.01-.32-.01-.48zM258.39 63.23h-81.82v.48h81.83c-.01-.16-.01-.32-.01-.48zM258.47 69.47h-81.9v.48h81.91c0-.16 0-.32-.01-.48zM258.59 75.71h-82.02v.48h82.02v-.48zM176.09 39.11h.48v42.6h-.48z"/><path d="M192.41 26.11h.48v43.36h-.48zM208.73 39.11h.48v42.6h-.48zM225.05 39.11h.48v42.6h-.48zM241.37 39.11h.48v42.6h-.48zM257.69 39.11h.48v42.6h-.48z"/><path d="M258.69 81.71h-82.6v1.08h82.62c-.01-.36-.01-.72-.02-1.08z" fill-rule="evenodd" clip-rule="evenodd"/><path d="M258.8 88.19h-82.23v.48h82.23v-.48zM258.86 94.43h-82.29v.48h82.29v-.48zM258.9 100.67h-82.33v.48h82.33c-.01-.16 0-.32 0-.48zM258.89 106.91H119.45v.48h139.44v-.48zM258.87 113.15H152.09v.48h106.78v-.48zM258.84 119.39H152.09v.48h106.75v-.48zM258.79 125.63h-106.7v.48h106.7v-.48zM258.74 131.87H152.09v.48h106.64c0-.16.01-.32.01-.48zM258.68 138.11H119.45v.48h139.23v-.48zM258.62 145.91H111.29v.48h147.32c0-.16.01-.32.01-.48zM110.81 7.07h.48v139.32h-.48zM167.93 148.67h.48v9.36h-.48zM118.97 7.55h.48v131.04h-.48z"/><path d="M176.09 82.8h.48v63.6h-.48zM192.41 82.8h.48v63.6h-.48zM208.73 82.8h.48v63.6h-.48zM225.05 82.8h.48v63.6h-.48zM241.37 82.8h.48v63.6h-.48zM257.69 82.8h.48v63.6h-.48zM151.61 107.39h.48v31.2h-.48zM258.6 148.19H111.29v.48H258.6v-.48zM258.55 157.55H111.29v.48h147.26v-.48z"/><path d="M138.48 65.93c0-.45.38-.81.84-.81.47 0 .84.36.84.81 0 .45-.38.82-.84.82-.46 0-.84-.37-.84-.82" fill-rule="evenodd" clip-rule="evenodd"/><path d="M138.48 65.93c0-.45.38-.81.84-.81.47 0 .84.36.84.81 0 .45-.38.82-.84.82-.46 0-.84-.37-.84-.82zM139.33 66.42v11.97" fill="none" stroke="#000" stroke-width=".405" stroke-linejoin="round" stroke-miterlimit="10"/><path fill-rule="evenodd" clip-rule="evenodd" d="M140.95 77.85l-1.62 3.24-1.62-3.24z"/><path fill="none" stroke="#000" stroke-width=".405" stroke-linejoin="round" stroke-miterlimit="10" d="M139.33 65.44V54.77"/><path fill-rule="evenodd" clip-rule="evenodd" d="M140.95 55.31l-1.62-3.24-1.62 3.24z"/><path d="M203.83 95.83c.44.31.65.55.65.73 0 .13-.05.25-.14.35-.09.1-.2.15-.31.15-.22 0-1.09-.61-2.62-1.82-.44.47-.89.94-1.33 1.41-.34.34-.57.51-.7.51s-.25-.05-.35-.15c-.1-.1-.15-.22-.15-.35 0-.17.19-.42.56-.75.63-.57 1.09-1.02 1.37-1.33-.93-.92-1.54-1.74-1.84-2.47-.19-.11-.28-.24-.28-.41 0-.14.05-.27.15-.37.1-.1.21-.15.34-.15.19 0 .34.07.46.21.08.1.2.3.34.6.26.56.74 1.18 1.44 1.86.52-.58.93-1.15 1.2-1.71.1-.22.2-.45.3-.68.1-.18.24-.27.42-.27.15 0 .27.05.36.14.09.09.14.21.14.36 0 .58-.57 1.54-1.7 2.88.29.26.86.68 1.69 1.26zM198.18 154.26c0 .59-.14 1.06-.41 1.42-.27.36-.64.53-1.09.53-.45 0-.81-.14-1.08-.43s-.41-.67-.41-1.17c0-.58.16-1.05.48-1.4.32-.36.71-.54 1.18-.54.41 0 .74.14.98.42.23.29.35.68.35 1.17zm-.53.11c0-.38-.08-.68-.23-.91-.16-.22-.36-.34-.62-.34-.31 0-.56.13-.76.39-.21.27-.31.63-.31 1.07 0 .36.09.64.27.85.17.2.4.31.68.31.27 0 .5-.13.69-.4s.28-.58.28-.97zm3.3-.75c0 .33-.17.58-.51.74.33.19.49.45.49.78 0 .34-.12.62-.36.83-.25.22-.58.33-.99.33-.36 0-.65-.1-.87-.3a.984.984 0 0 1-.33-.77c0-.41.18-.71.54-.9-.25-.21-.38-.48-.38-.8 0-.28.11-.52.33-.71.22-.19.5-.29.85-.29.36 0 .66.1.88.3.24.22.35.48.35.79zm-.79 2.04c.13-.12.2-.27.2-.46 0-.18-.06-.33-.19-.45a.765.765 0 0 0-.51-.17c-.22 0-.39.06-.52.18s-.2.27-.2.46.06.34.18.45c.12.11.28.17.48.17.23-.01.42-.07.56-.18zm.23-2c0-.2-.06-.35-.19-.47a.649.649 0 0 0-.48-.18c-.18 0-.33.05-.44.16-.11.11-.17.25-.17.42 0 .17.06.32.18.43.12.11.27.17.45.17.2 0 .36-.05.48-.14.11-.11.17-.23.17-.39zm1.79.11c0 .1-.04.19-.12.27-.08.08-.18.11-.29.11-.12 0-.21-.04-.29-.11a.4.4 0 0 1-.11-.3c0-.11.04-.2.11-.27.08-.07.18-.1.3-.1a.393.393 0 0 1 .4.4zm.13 1.71c0 .1-.04.2-.13.28s-.19.12-.31.12a.407.407 0 0 1-.42-.42c0-.11.04-.21.12-.28s.18-.11.3-.11c.14 0 .25.04.33.11.07.07.11.17.11.3zm3.45-1.22c0 .59-.14 1.06-.41 1.42-.27.36-.64.53-1.09.53-.45 0-.81-.14-1.08-.43s-.41-.67-.41-1.17c0-.58.16-1.05.48-1.4.32-.36.71-.54 1.18-.54.41 0 .74.14.98.42.23.29.35.68.35 1.17zm-.54.11c0-.38-.08-.68-.23-.91-.16-.22-.36-.34-.62-.34-.31 0-.56.13-.76.39-.21.27-.31.63-.31 1.07 0 .36.09.64.27.85.17.2.4.31.68.31.27 0 .5-.13.69-.4s.28-.58.28-.97zm3.74-.11c0 .59-.14 1.06-.41 1.42-.27.36-.64.53-1.09.53-.45 0-.81-.14-1.08-.43s-.41-.67-.41-1.17c0-.58.16-1.05.48-1.4.32-.36.71-.54 1.18-.54.41 0 .74.14.98.42.23.29.35.68.35 1.17zm-.53.11c0-.38-.08-.68-.23-.91-.16-.22-.36-.34-.62-.34-.31 0-.56.13-.76.39-.21.27-.31.63-.31 1.07 0 .36.09.64.27.85.17.2.4.31.68.31.27 0 .5-.13.69-.4s.28-.58.28-.97zM235.89 83.66c.44.31.65.55.65.73 0 .13-.05.25-.14.35-.09.1-.2.15-.31.15-.22 0-1.09-.61-2.62-1.82-.44.47-.89.94-1.33 1.41-.34.34-.57.51-.7.51s-.25-.05-.35-.15c-.1-.1-.15-.22-.15-.35 0-.17.19-.42.56-.75.63-.57 1.09-1.02 1.37-1.33-.93-.92-1.54-1.74-1.84-2.47-.19-.11-.28-.24-.28-.41 0-.14.05-.27.15-.37.1-.1.21-.15.34-.15.19 0 .34.07.46.21.08.1.2.3.34.6.26.56.74 1.18 1.44 1.86.52-.58.93-1.15 1.2-1.71.1-.22.2-.45.3-.68.1-.18.24-.27.42-.27.15 0 .27.05.36.14.09.09.14.21.14.36 0 .58-.57 1.54-1.7 2.88.29.26.86.68 1.69 1.26zM203.09 135.03c0 .64-.15 1.16-.45 1.55-.3.39-.7.58-1.19.58s-.89-.16-1.18-.47c-.3-.31-.44-.74-.44-1.27 0-.63.17-1.14.52-1.53.35-.39.78-.59 1.29-.59.45 0 .81.15 1.07.46.25.31.38.73.38 1.27zm-.58.12c0-.42-.08-.75-.25-.99-.17-.24-.39-.37-.68-.37-.33 0-.61.14-.83.43-.23.3-.34.69-.34 1.17 0 .39.1.7.29.93.19.22.44.33.75.33.29 0 .55-.15.75-.44s.31-.64.31-1.06zM202.64 122.66c0 .64-.15 1.16-.45 1.55-.3.39-.7.58-1.19.58s-.89-.16-1.18-.47c-.3-.31-.44-.74-.44-1.27 0-.63.17-1.14.52-1.53.35-.39.78-.59 1.29-.59.45 0 .81.15 1.07.46.25.3.38.73.38 1.27zm-.58.12c0-.42-.08-.75-.25-.99-.17-.24-.39-.37-.68-.37-.33 0-.61.14-.83.43-.23.3-.34.69-.34 1.17 0 .39.1.7.29.93.19.22.44.33.75.33.29 0 .55-.15.75-.44s.31-.64.31-1.06zM227.97 155.51c.15 0 .23.09.23.28 0 .23-.31.34-.92.34-.87 0-1.31-.15-1.31-.45 0-.14.07-.21.2-.21.03 0 .1.01.21.04.13.03.24.05.34.06.3-1.02.45-1.88.45-2.58v-.04c-.45.21-.77.31-.95.31-.13 0-.19-.08-.19-.24 0-.09.03-.16.1-.21.04-.03.14-.07.29-.12.09-.03.3-.11.61-.22.18-.07.3-.1.37-.1.22 0 .33.19.33.57 0 .59-.15 1.48-.46 2.66.03 0 .07.01.13.01.11 0 .23-.02.36-.05s.2-.05.21-.05zM231.37 154.09c0 .59-.14 1.06-.41 1.42-.27.36-.64.53-1.09.53-.45 0-.81-.14-1.08-.43s-.41-.67-.41-1.17c0-.58.16-1.05.48-1.4.32-.36.71-.54 1.18-.54.41 0 .74.14.98.42.23.29.35.67.35 1.17zm-.53.11c0-.38-.08-.68-.23-.91-.16-.22-.36-.34-.62-.34-.31 0-.56.13-.76.39-.21.27-.31.63-.31 1.07 0 .36.09.64.27.85.17.2.4.31.68.31.27 0 .5-.13.69-.4s.28-.58.28-.97zm1.71-.6c0 .1-.04.19-.12.27-.08.08-.18.11-.29.11-.12 0-.21-.04-.29-.11a.4.4 0 0 1-.11-.3c0-.11.04-.2.11-.27.08-.07.18-.1.3-.1a.4.4 0 0 1 .29.12c.07.07.11.16.11.28zm.13 1.7c0 .1-.04.2-.13.28s-.19.12-.31.12a.407.407 0 0 1-.42-.42c0-.11.04-.21.12-.28s.18-.11.3-.11c.14 0 .25.04.33.11.07.07.11.17.11.3zm3.45-1.21c0 .59-.14 1.06-.41 1.42-.27.36-.64.53-1.09.53-.45 0-.81-.14-1.08-.43s-.41-.67-.41-1.17c0-.58.16-1.05.48-1.4.32-.36.71-.54 1.18-.54.41 0 .74.14.98.42.23.29.35.67.35 1.17zm-.53.11c0-.38-.08-.68-.23-.91-.16-.22-.36-.34-.62-.34-.31 0-.56.13-.76.39-.21.27-.31.63-.31 1.07 0 .36.09.64.27.85.17.2.4.31.68.31.27 0 .5-.13.69-.4s.28-.58.28-.97zm3.74-.11c0 .59-.14 1.06-.41 1.42-.27.36-.64.53-1.09.53-.45 0-.81-.14-1.08-.43s-.41-.67-.41-1.17c0-.58.16-1.05.48-1.4.32-.36.71-.54 1.18-.54.41 0 .74.14.98.42.23.29.35.67.35 1.17zm-.54.11c0-.38-.08-.68-.23-.91-.16-.22-.36-.34-.62-.34-.31 0-.56.13-.76.39-.21.27-.31.63-.31 1.07 0 .36.09.64.27.85.17.2.4.31.68.31.27 0 .5-.13.69-.4s.28-.58.28-.97z"/><path stroke="#000" stroke-width="2" stroke-linecap="square" stroke-miterlimit="10" d="M192.65 70.62V93.9"/><path d="M234.77 116.31c0 .64-.15 1.16-.45 1.55-.3.39-.7.58-1.19.58s-.89-.16-1.18-.47c-.3-.31-.44-.74-.44-1.27 0-.63.17-1.14.52-1.53.35-.39.78-.59 1.29-.59.45 0 .81.15 1.07.46.25.31.38.73.38 1.27zm-.58.12c0-.42-.08-.75-.25-.99-.17-.24-.39-.37-.68-.37-.33 0-.61.14-.83.43-.23.3-.34.69-.34 1.17 0 .39.1.7.29.93.19.22.44.33.75.33.29 0 .55-.15.75-.44s.31-.63.31-1.06z"/><g><path d="M201.31 142.96c0 .53-.19.94-.58 1.25-.39.31-.92.46-1.6.46-1.02 0-1.53-.24-1.53-.71 0-.13.04-.23.13-.31s.19-.12.32-.12c.26 0 .39.12.4.35.2.1.42.16.67.16.43 0 .77-.09 1-.28.24-.19.36-.45.36-.79 0-.45-.21-.79-.64-1.01-.12-.06-.25-.1-.4-.13l-.36-.03c-.3-.04-.45-.16-.45-.37 0-.22.12-.33.36-.33.09 0 .32.05.68.14.36 0 .53-.21.53-.61 0-.41-.24-.61-.72-.61-.1 0-.23.02-.4.07s-.29.07-.35.07c-.2 0-.31-.11-.31-.33 0-.13.1-.23.31-.31s.5-.12.87-.12c.43 0 .77.11 1.03.33.26.22.39.51.39.86 0 .37-.19.69-.58.96.59.32.87.79.87 1.41zM206.02 140.13c0 .11-.04.27-.11.47a9.21 9.21 0 0 1-1.7 2.9c-.35.42-.71.76-1.08 1.03-.31.22-.52.34-.65.34-.09 0-.17-.03-.24-.1-.07-.07-.11-.14-.11-.22 0-.11.18-.33.53-.66.23-.21.57-.54 1.02-1 .62-.69 1.09-1.52 1.41-2.49-.45-.15-.93-.22-1.45-.22-.37 0-.76.03-1.15.1.01.03.01.08.01.13 0 .36-.17.54-.51.54-.25 0-.38-.23-.38-.69 0-.26.11-.44.33-.53.43-.17 1-.26 1.72-.26 1.57.02 2.36.23 2.36.66z"/></g><g><path d="M199.4 112.76c0 .32-.47.48-1.42.48-1.35 0-2.02-.21-2.02-.63 0-.2.1-.29.31-.29.05 0 .15.02.32.05.2.04.37.07.52.09.46-1.44.69-2.65.69-3.63v-.05c-.69.29-1.18.44-1.47.44-.2 0-.3-.11-.3-.34 0-.13.05-.23.15-.29.06-.04.21-.09.44-.16.15-.05.46-.15.94-.31.28-.1.47-.14.57-.14.34 0 .51.27.51.81 0 .84-.23 2.08-.7 3.74.04 0 .11.01.2.01.17 0 .36-.02.56-.07.2-.05.31-.07.34-.07.25-.03.36.1.36.36zM204.1 108.7c0 .11-.04.27-.11.47a9.21 9.21 0 0 1-1.7 2.9c-.35.42-.71.76-1.08 1.03-.31.22-.52.34-.65.34-.09 0-.17-.03-.24-.1-.07-.07-.11-.14-.11-.22 0-.11.18-.33.53-.66.23-.21.57-.54 1.02-1 .62-.69 1.09-1.52 1.41-2.49-.45-.15-.93-.22-1.45-.22-.37 0-.76.03-1.15.1.01.03.01.08.01.13 0 .36-.17.54-.51.54-.25 0-.38-.23-.38-.69 0-.26.11-.44.33-.53.43-.17 1-.26 1.72-.26 1.57.02 2.36.23 2.36.66zM208.02 111.38c0 .6-.21 1.08-.62 1.46-.41.38-.94.56-1.59.56-.48 0-.87-.11-1.18-.32-.3-.21-.46-.48-.46-.79 0-.11.04-.2.12-.27s.17-.11.27-.11c.07 0 .13.03.18.09.01.01.06.09.17.25.21.31.5.46.87.46.43 0 .77-.11 1.02-.34.25-.23.38-.53.38-.92 0-.42-.13-.79-.38-1.08-.26-.3-.56-.45-.91-.45-.2 0-.42.04-.64.13-.22.08-.36.13-.41.13-.22 0-.32-.11-.32-.32 0-.64.1-1.23.31-1.76.09-.23.33-.34.72-.34.56 0 1.11.09 1.65.28.32.11.48.24.48.38 0 .1-.05.18-.15.26s-.23.11-.38.11c-.14 0-.36-.05-.67-.14-.31-.1-.54-.14-.7-.14-.01 0-.08 0-.21.02-.14.25-.2.53-.2.83.26-.07.5-.1.72-.1.57 0 1.04.2 1.4.59s.53.9.53 1.53z"/></g><g><path d="M229.64 142.96c0 .53-.19.94-.58 1.25-.39.31-.92.46-1.6.46-1.02 0-1.53-.24-1.53-.71 0-.13.04-.23.13-.31s.19-.12.32-.12c.26 0 .39.12.4.35.2.1.42.16.67.16.43 0 .77-.09 1-.28.24-.19.36-.45.36-.79 0-.45-.21-.79-.64-1.01-.12-.06-.25-.1-.4-.13l-.36-.03c-.3-.04-.45-.16-.45-.37 0-.22.12-.33.36-.33.09 0 .32.05.68.14.36 0 .53-.21.53-.61 0-.41-.24-.61-.72-.61-.1 0-.23.02-.4.07s-.29.07-.35.07c-.2 0-.31-.11-.31-.33 0-.13.1-.23.31-.31s.5-.12.87-.12c.43 0 .77.11 1.03.33.26.22.39.51.39.86 0 .37-.19.69-.58.96.58.32.87.79.87 1.41zM234.35 140.13c0 .11-.04.27-.11.47a9.21 9.21 0 0 1-1.7 2.9c-.35.42-.71.76-1.08 1.03-.31.22-.52.34-.65.34-.09 0-.17-.03-.24-.1-.07-.07-.11-.14-.11-.22 0-.11.18-.33.53-.66.23-.21.57-.54 1.02-1 .62-.69 1.09-1.52 1.41-2.49-.45-.15-.93-.22-1.45-.22-.37 0-.76.03-1.15.1.01.03.01.08.01.13 0 .36-.17.54-.51.54-.25 0-.38-.23-.38-.69 0-.26.11-.44.33-.53.43-.17 1-.26 1.72-.26 1.57.02 2.36.23 2.36.66zM236.28 143.61c0 .19-.06.34-.18.45s-.29.17-.49.17c-.18 0-.32-.05-.44-.16a.573.573 0 0 1-.17-.42c0-.16.06-.29.19-.41.13-.11.28-.17.46-.17.41.01.63.18.63.54zM240.6 144.19c0 .32-.47.48-1.42.48-1.35 0-2.02-.21-2.02-.63 0-.2.1-.29.31-.29.05 0 .15.02.32.05.2.04.37.07.52.09.46-1.44.69-2.65.69-3.63v-.05c-.69.29-1.18.44-1.47.44-.2 0-.3-.11-.3-.34 0-.13.05-.23.15-.29.06-.04.21-.09.44-.16.15-.05.46-.15.94-.31.28-.1.47-.14.57-.14.34 0 .51.27.51.81 0 .84-.23 2.08-.7 3.74.04 0 .11.01.2.01.17 0 .36-.02.56-.07.2-.05.31-.07.34-.07.25-.03.36.1.36.36z"/></g><g><path d="M230.77 112.76c0 .32-.47.48-1.42.48-1.35 0-2.02-.21-2.02-.63 0-.2.1-.29.31-.29.05 0 .15.02.32.05.2.04.37.07.52.09.46-1.44.69-2.65.69-3.63v-.05c-.69.29-1.18.44-1.47.44-.2 0-.3-.11-.3-.34 0-.13.05-.23.15-.29.06-.04.21-.09.44-.16.15-.05.46-.15.94-.31.28-.1.47-.14.57-.14.34 0 .51.27.51.81 0 .84-.23 2.08-.7 3.74.04 0 .11.01.2.01.17 0 .36-.02.56-.07.2-.05.31-.07.34-.07.24-.03.36.1.36.36zM234.89 111.38c0 .6-.21 1.08-.62 1.46-.41.38-.94.56-1.59.56-.48 0-.87-.11-1.18-.32-.3-.21-.46-.48-.46-.79 0-.11.04-.2.12-.27s.17-.11.27-.11c.07 0 .13.03.18.09.01.01.06.09.17.25.21.31.5.46.87.46.43 0 .77-.11 1.02-.34.25-.23.38-.53.38-.92 0-.42-.13-.79-.38-1.08-.26-.3-.56-.45-.91-.45-.2 0-.42.04-.64.13-.22.08-.36.13-.41.13-.22 0-.32-.11-.32-.32 0-.64.1-1.23.31-1.76.09-.23.33-.34.72-.34.56 0 1.11.09 1.65.28.32.11.48.24.48.38 0 .1-.05.18-.15.26s-.23.11-.38.11c-.14 0-.36-.05-.67-.14-.31-.1-.54-.14-.7-.14-.01 0-.08 0-.21.02-.14.25-.2.53-.2.83.26-.07.5-.1.72-.1.57 0 1.04.2 1.4.59s.53.9.53 1.53zM240.02 110.37c0 .83-.21 1.5-.64 2-.42.5-.99.75-1.69.75s-1.25-.2-1.67-.6c-.42-.4-.63-.95-.63-1.64 0-.81.24-1.47.73-1.98.49-.5 1.1-.76 1.82-.76.64 0 1.14.2 1.51.59.39.4.57.94.57 1.64zm-.82.15c0-.54-.12-.96-.36-1.28s-.56-.47-.96-.47c-.47 0-.86.19-1.18.56-.32.39-.48.89-.48 1.51 0 .5.14.9.41 1.2.26.29.62.43 1.06.43.42 0 .77-.19 1.07-.56.29-.38.44-.84.44-1.39z"/></g><path d="M202.53 116.86c0 .64-.15 1.16-.45 1.55-.3.39-.7.58-1.19.58s-.89-.16-1.18-.47c-.3-.31-.44-.74-.44-1.27 0-.63.17-1.14.52-1.53.35-.39.78-.59 1.29-.59.45 0 .81.15 1.07.46.25.3.38.73.38 1.27zm-.58.12c0-.42-.08-.75-.25-.99-.17-.24-.39-.37-.68-.37-.33 0-.61.14-.83.43-.23.3-.34.69-.34 1.17 0 .39.1.7.29.93.19.22.44.33.75.33.29 0 .55-.15.75-.44s.31-.64.31-1.06zM234.77 135.03c0 .64-.15 1.16-.45 1.55-.3.39-.7.58-1.19.58s-.89-.16-1.18-.47c-.3-.31-.44-.74-.44-1.27 0-.63.17-1.14.52-1.53.35-.39.78-.59 1.29-.59.45 0 .81.15 1.07.46.25.31.38.73.38 1.27zm-.58.12c0-.42-.08-.75-.25-.99-.17-.24-.39-.37-.68-.37-.33 0-.61.14-.83.43-.23.3-.34.69-.34 1.17 0 .39.1.7.29.93.19.22.44.33.75.33.29 0 .55-.15.75-.44s.31-.63.31-1.06z"/><path stroke="#000" stroke-width="2" stroke-linecap="square" stroke-miterlimit="10" d="M225.05 58.36v28.89"/><g><path d="M202.51 129.67c0 .18-.12.27-.36.27-.06 0-.2-.02-.43-.06-.33-.06-.61-.1-.82-.13-.07.69-.12 1.08-.14 1.18-.06.25-.17.37-.35.37-.2 0-.31-.13-.31-.38 0-.01.02-.15.05-.4.04-.29.07-.57.09-.86l-1.24-.06c-.27-.03-.41-.12-.41-.28 0-.2.16-.29.48-.29.34 0 .75.02 1.23.07.02-.37.05-.75.07-1.12.04-.24.15-.36.33-.36.22 0 .33.14.33.42 0 .03-.01.16-.02.37-.02.27-.03.53-.04.77.64.09 1.02.15 1.16.18.25.07.38.17.38.31z"/></g><g><path d="M235.07 123.43c0 .18-.12.27-.36.27-.06 0-.2-.02-.43-.06-.33-.06-.61-.1-.82-.13-.07.69-.12 1.08-.14 1.18-.06.25-.17.37-.35.37-.2 0-.31-.13-.31-.38 0-.01.02-.15.05-.4.04-.29.07-.57.09-.86l-1.24-.06c-.27-.03-.41-.12-.41-.28 0-.2.16-.29.48-.29.34 0 .75.02 1.23.07.02-.37.05-.75.07-1.12.04-.24.15-.36.33-.36.22 0 .33.14.33.42 0 .03-.01.16-.02.37-.02.27-.03.53-.04.77.64.09 1.02.15 1.16.18.25.06.38.17.38.31z"/></g><g><path d="M235.06 129.67c0 .18-.12.27-.36.27-.06 0-.2-.02-.43-.06-.33-.06-.61-.1-.82-.13-.07.69-.12 1.08-.14 1.18-.06.25-.17.37-.35.37-.2 0-.31-.13-.31-.38 0-.01.02-.15.05-.4.04-.29.07-.57.09-.86l-1.24-.06c-.27-.03-.41-.12-.41-.28 0-.2.16-.29.48-.29.34 0 .75.02 1.23.07.02-.37.05-.75.07-1.12.04-.24.15-.36.33-.36.22 0 .33.14.33.42 0 .03-.01.16-.02.37-.02.27-.03.53-.04.77.64.09 1.02.15 1.16.18.26.07.38.17.38.31z"/></g></svg>