<svg version="1.1" xmlns="http://www.w3.org/2000/svg" x="0" y="0" width="326.286" height="359.338" viewBox="0 0 326.286 359.338" xml:space="preserve"><path d="M163.767 218.289h.826v.835h-.826v-.835zM166.656 220.372c-.181.507-.528.854-1.239.832-.192-.889.589-.791 1.239-.832zM160.051 222.454h.824v.832h-.824v-.832zM162.942 224.535h.826v.834h-.826v-.834zM167.069 224.535h.829v.834h-.829v-.834zM157.162 226.2c-1.253 1.537-1.391-1.262 0 0zM169.133 226.2c.06-.165.873-.737 1.238-.416.817.714-1.822 1.987-1.238.416zM127.024 227.449c1.252-1.538 1.391 1.265 0 0zM154.684 227.866h.829v.832h-.829v-.832zM158.4 227.866h.828v.832h-.828v-.832zM161.702 228.698h.826v.834h-.826v-.834zM168.308 228.698h.825v.834h-.825v-.834zM126.612 229.532c-.181.511-.529.854-1.239.832-.193-.888.59-.795 1.239-.832zM129.501 230.781h.826v.831h-.826v-.831zM171.612 231.197c.664-.118.708.395 1.235.415.167.809-1.878.608-1.235-.415zM169.545 231.612c-.361.609-.616 1.32-1.652 1.25-.123-1.097.572-1.365 1.652-1.25zM159.228 266.172c-.405 2.742-3.561 3.653-6.192 2.914.106-2.747 3.621-4.003 6.192-2.914zM146.428 268.254c-1.47 1.779-5.523 1.408-7.019 0 .52-4.196 5.119-.964 7.019 0zM210.417 281.161c-.133.979-1.277.932-1.651 1.666-1.085-.592.87-1.582 1.651-1.666zM212.068 304.894c1.407-.026 1.226 1.543 1.238 2.915-.486-.899-.856-1.912-1.238-2.915zM95.649 316.137c.065-1.036 1.398-.121 1.655 0-.066 1.035-1.401.123-1.655 0zM200.097 335.706c.071.906-.337 1.324-1.238 1.249.438-.39.129-1.536 1.238-1.249zM197.618 337.371c-.972 1.34-1.666-1.465 0 0zM181.108 346.529c-.271.559-.887.779-1.654.838.1-.736.711-.953 1.654-.838zM166.656 352.359h.824v.838h-.824v-.838zM171.198 354.025c-.975 1.34-1.669-1.464 0 0zM125.373 221.619c.037 1.562.463 1.187 0 2.498h.825l-.206.626.619.208c.078.336.411.415.41.837-1.126.031-.83-.697-1.651 0-.361 1.331 1.071.861 1.239 1.663-1.296-.196-1.686.521-2.064 1.25l-.62-.211-.206.625c-.334-.078-.412-.417-.826-.414l-.413-.211-.41.211c.987-1.916.888-4.937 1.651-7.08h1.652v-.002zM173.057 239.315l.615.209c-.51 1.285-1.019 2.58-2.062 3.33l-.481-.625-.756.209c-.24-.252-.968-1.975 0-2.082.447.104.279.828.826.834.24-.865.866-1.348 1.237-2.084l.621.209zM170.579 243.896l.211.625c-.692 1.662-1.403 3.309-2.893 4.164l-.209-.625-.62.207h-.409l.207-.623-.619-.207c.319-.371.447-.942.412-1.666l.619.211-.21-.623c.886.193.791-.599.829-1.25l.867-.039.367-.793c.548.5.652.164 1.24 0l.208.619zM130.121 246.396l.206.623c-1.76-1.695-1.958-4.965-2.89-7.494l.62.209.206-.625c1.665 1.097 2.174 3.358 2.89 5.418l-.206.412.206.416c-.483.067-.348.758-.41 1.248l-.622-.207zM90.282 303.854l.414.207c.184 2.106 3.218 3.082 1.236 4.996l-.41-.207-.414.207c-.6-1.477-2.724-3.164-1.239-5.412l.413.209zM86.361 295.942l-.619.207c.116-.672-.39-.717-.414-1.248l.619-.209-.206-.625c.011-.404.505-.321.825-.416l.619.211.62.211c.354 1.324-.652 1.283-.829 2.082l-.615-.213zM132.186 112.74l-.62.208c-.255-3.131-.255-4.364 0-7.495l.62.208.616.208c.31 1.913.147 4.293.827 5.83l-.207.416.207.417c-.269.559-.883.775-1.652.833l.209-.625zM158.4 160.415c-.793-1.007-.263-3.347-.412-4.994.915-.229.589.795 1.24.832l.206.625.618-.209c-.227 1.295-.336 2.714-.824 3.746l-.413-.209-.415.209zM144.776 233.694c.034.66-.199 1.589.41 1.666l-.205.625.619-.213v1.666l-.619-.213.205.623h-.825c-.317.37-.444.94-.41 1.666h-.413v.418c-.334-.08-.409-.418-.826-.418-.303.389-.751.631-1.239.832l-.41-.207-.414.207c-.011-.404-.505-.322-.826-.414l-.207-.625-.209.625c-.449-.104-.277-.828-.826-.834l.209-.623-.619-.209c.168-1.002-.754-.906-.413-2.082l.206-.416-.206-.416c.902-.062.889-1.045.825-2.082 1.539.439 1.333-.877 2.065-1.25.07.488.753.354 1.239.416v-.416l.41.213.414-.213c-.363 1.334.635 1.302 1.239 1.666l.41.207.416-.199zM162.117 249.103c.399-.013.315-.512.408-.834l.618.209.208-.625h.413l.619.207-.211-.623c.59-.035 1.173-.069 1.238.416l-.205.625.619.207c-.664 1.275-1.818 2.053-3.303 2.498l-.208-.623-.618-.209v-.834l.618.209-.196-.623zM133.217 247.019c.86.244 1.335.875 2.065 1.25l.41.209.414-.209c-.193.889.59.793 1.239.834l.206.414.207.412c-1.196.233.632.652.414 1.25l-.62.207.207.625c-2.991-.172-4.352-1.996-5.367-4.162l.62-.214.205-.616zM208.353 323.215c-.177.793-.89 1.044-.825 2.082-.723-.099-.177-2.35.825-2.082zM200.922 331.126c1.084.592-.869 1.581-1.651 1.662.038-1.067 1.61-.593 1.651-1.662z"/><g fill="none" stroke="#000" stroke-linecap="round"><path stroke-width=".512" d="M109.067 162.496c2.528.77 4.607 2.529 7.226 3.332"/><path stroke-width=".443" d="M106.589 165.203c2.397 1.106 4.748 2.461 7.435 2.915"/><path stroke-width=".47" d="M170.579 238.483c.752-.746.271-1.967.412-2.914"/><path stroke-width=".603" d="M165.418 245.562c.035-3.211.636-6.353.619-9.576"/><path stroke-width=".437" d="M149.524 240.981v-1.662"/><path stroke-width=".592" d="M146.222 262.217c-.218-.834-.409-1.665-.62-2.499"/><path stroke-width=".751" d="M136.176 264.99c-4.951 2.53 5.22 10.428 8.749 12.432 5.904 3.358 10.483-1.34 13.533-6.547 2.72-.853 5.178-3.547 4.072-6.578"/><path stroke-width=".464" d="M188.743 297.19c-1.021-.111-2.144.24-3.096-.209"/><path stroke-width=".45" d="M128.677 302.396c2.073-.685 3.631-2.488 4.95-4.168"/><path stroke-width=".443" d="M179.247 298.44c1.627.451 3.229.998 4.955 1.246"/><path stroke-width=".488" d="M163.561 299.688c1.48.648 3.443 1.517 4.951.838"/><path stroke-width=".399" d="M168.514 300.522c-.375-.551-.664-.797-.825-1.25"/><path stroke-width=".722" d="M168.514 300.522c1.505.057 2.984.449 4.406.139"/><path stroke-width=".545" d="M172.918 300.661c-.123-.49-.676-.807-1.104-.975"/><path stroke-width=".596" d="M172.918 300.661c1.014.217 1.99-.314 3.026-.139"/><path stroke-width=".437" d="M175.327 299.063c1.014.955 2.346.894 3.512 1.459"/><path stroke-width=".537" d="M117.942 299.897c-1.049 1.062-2.458 1.379-3.921 1.457"/><path stroke-width=".505" d="M123.928 302.604c2.095.006 3.346-1.818 4.955-2.5M111.132 300.938c.874-.145 1.528-.965 2.477-.834"/><path stroke-width=".489" d="M117.737 301.354c1.508.078 2.879-.59 4.125-1.25"/><path stroke-width=".437" d="M209.383 307.185h.83"/><path stroke-width=".486" d="M96.269 308.434c-.341-.352-1.043-.332-1.235-.833"/><path stroke-width=".452" d="M96.681 312.18v-.833"/><path stroke-width=".597" d="M95.443 312.598c-.061-.361-.255-.48-.41-.626"/><path stroke-width=".505" d="M204.844 320.924c.57-2.021 3.383-.816 4.127-2.498"/><path stroke-width=".525" d="M96.269 320.506c.554-.264.62-1.457 1.499-1.274a.97.97 0 0 1 .321.439c.012.072.023.143.038.217"/><path stroke-width=".422" d="M201.542 325.921c.203-.072.354-.203.504-.338.466-.062.709.245 1.147.338"/><path stroke-width=".491" d="M196.174 332.167c.311-.384.99-.389 1.654-.412"/><path stroke-width=".553" d="M190.395 338.412a1.682 1.682 0 0 1 .229-.957c.938-.315 1.969-.133 2.869-.5"/><path stroke-width=".452" d="M111.956 337.995c.048-.223.225-.322.41-.411"/><path stroke-width=".423" d="M182.138 342.992c.555-.217.911-.747 1.332-1.156.37-.084.723-.041 1.024.034.137.137.284.265.433.391.131.562.44.943.927 1.146"/><path stroke-width=".427" d="M114.021 342.159c.677.011 1.445-.072 1.938.122.049.649.314 1.071.634 1.442.229.045.479.073.731.096"/><path stroke-width=".437" d="M124.134 346.115c.789-.212 1.387-.797 2.273-.625"/><path stroke-width=".416" d="M173.468 347.572c.698-.604 2.206-.674 2.479.416"/><path stroke-width=".476" d="M128.057 348.821c-.363.329-.573.811-.919 1.153-2.033-.055-4.197-.582-5.893-1.778"/><path stroke-width=".472" d="M171.404 352.151c2.073 1.117 4.272-.072 6.192-.832"/><path stroke-width=".44" d="M140.028 353.401c1.228-.055 2.074-1.207 3.302-1.25"/><path stroke-width=".437" d="M158.606 354.65c.375-.316.978-.404 1.652-.416"/><path stroke-width=".668" d="M146.222 354.65c.428-.12.764-.185 1.235-.208"/><path stroke-width=".47" d="M163.146 356.731c.655-.702 1.78-.181 2.479-.832"/><path stroke-width=".521" d="M152.827 357.148c.909.234 2.144.022 3.096-.214"/><path stroke-width=".749" d="M131.566 219.644c.386-1.16.159-2.506.7-3.582 2.207-.959 5.293.651 7.13-.895.245-3.756.025-7.255.518-10.915 4.247-.874 8.812-.726 13.085-.058.988 2.906.762 6.273.947 9.392 1.972 1.261 4.567.013 6.722.748"/><path stroke-width=".598" d="M160.671 214.334c5.311 1.183 7.539 7.248 11.351 10.619"/><path stroke-width=".584" d="M172.024 224.951c1.104-6.167-3.479-13.294-9.289-15.202"/><path stroke-width=".712" d="M172.024 224.951c.757 2.621 2.434 5.01 2.409 7.841"/><path stroke-width=".958" d="M174.432 232.794c.941 2.078-.689 4.512-1.374 6.527"/><path stroke-width=".629" d="M152.62 258.677c-.541 1.407-1.168 2.898-1.444 4.372"/><path stroke-width=".658" d="M131.359 248.06c-.178-.568-.848-1.24-1.235-1.664"/><path stroke-width=".978" d="M86.498 286.92c.468.452.641 1.269.794 1.839"/><path stroke-width="1.11" d="M87.29 288.759c.347.068.698.127 1.032.209"/><path stroke-width=".618" d="M88.321 288.968c.722-.16 1.384.038 1.858.104"/><path stroke-width=".757" d="M90.179 289.071c.183-.674.069-1.391.103-2.081"/><path stroke-width=".721" d="M90.179 289.071c.57 2.57.909 5.324-.517 7.703"/><path stroke-width=".505" d="M89.664 296.774c2.338 2.248 3.417 5.43 4.128 8.328"/><path stroke-width=".882" d="M89.664 296.774c-.136.078-.268.156-.407.234-.172.465-.311 1.219-.523 1.535"/><path stroke-width=".924" d="M88.734 298.545c.556 1.791 1.925 3.308 1.547 5.31"/><path stroke-width=".639" d="M91.522 308.851c1.641 2.701.193 7.184 3.392 8.77-1.893 4.584 1.749 8.424 3.833 12.05"/><path stroke-width=".785" d="M88.734 298.545c-.903-.765-1.686-1.668-2.374-2.603"/><path stroke-width=".479" d="M81.957 291.502c-5.354 7.463-10.625 15.331-17.89 21.094"/><path stroke-width=".57" d="M81.957 291.502c.907-1.915 2.474-3.894 4.541-4.582"/><path stroke-width=".545" d="M86.498 286.92c.019-.054.033-.108.049-.164 9.239-6.866 17.477-12.823 23.252-21.718 7.027-10.822 9.28-24.119 12.685-36.553"/><path stroke-width=".565" d="M125.166 119.819c-4.527 11.954-11.612 23.164-18.482 36.32-4.272 8.186-6.263 18.961-10.825 24.467"/><path stroke-width=".525" d="M95.857 180.606c-3.265 10.961-9.319 21.619-15.688 31.229"/><path stroke-width=".516" d="M95.857 180.606c-6.99 5.64-15.349 10.457-20.024 18.53"/><path stroke-width=".603" d="M-1.16 303.021c11.563-11.066 15.59-21.957 20.32-31.08 3.717-7.162 5.276-16.871 10.136-25.635 3.122-5.625 8.64-12.992 10.516-18.916 5.953-18.817 5.48-39.529 15.815-56.278 8.434-9.806 20.022-16.539 30.836-23.71 8.089-5.366 18.415-10.835 26.413-17.49.863-.718 1.596-1.385 2.477-2.082 3.366-2.659 6.622-6.209 9.816-8.009"/><path stroke-width=".834" d="M125.166 119.819c.458-.757 1.265-1.297 2.065-1.666"/><path stroke-width=".577" d="M127.232 118.153c2.174-1.406 2.475-4.166 4.954-5.413"/><path stroke-width=".864" d="M128.882 35.713c-.63-.248-1.336-.264-1.945-.541-1.012-1.266-.491-2.779-.742-4.247"/><path stroke-width=".495" d="M170.168 188.937c7.943.373 12.076 5.721 17.236 12.17 8.191 10.23 13.223 17.324 18.795 26.437.651.203 1.021.749 1.531 1.156"/><path stroke-width=".61" d="M207.734 228.698c4.177.15 8.994-2.771 9.288-7.286"/><path stroke-width=".56" d="M217.022 221.412c-8.402.36-14.128-10.218-11.766-17.487"/><path stroke-width=".426" d="M205.256 203.925c-4.795-10.097-14.594-16.882-20.506-26.37"/><path stroke-width=".461" d="M184.75 177.555c-1.97-1.48-3.601-3.787-4.885-5.897"/><path stroke-width=".498" d="M179.866 171.657c-1.236-.921-1.846-2.656-3.095-3.539"/><path stroke-width=".509" d="M179.866 171.657c7.196-1.142 13.379 2.562 20.023 4.372"/><path stroke-width=".574" d="M207.734 228.698c3.336 8.438 6.382 17.758 4.541 27.271"/><path stroke-width=".825" d="M212.275 255.972c7.735-.842 3.738 8.87 5.47 17.338.286 1.41.969 2.75 1.237 4.164.995 5.295-1.046 11.832-5.821 12.045-.089.024-.175.051-.266.074"/><path stroke-width=".514" d="M212.894 289.593c.745 4.975 1.461 9.682 1.034 14.262"/><path stroke-width=".627" d="M212.894 289.593c-.099-.074-.195-.15-.293-.226-.492-1.604-.603-3.433.188-4.979"/><path stroke-width=".505" d="M212.79 284.388c-2.526-1.646-.107-4.343-1.342-6.35"/><path stroke-width=".728" d="M210.624 265.408a71.4 71.4 0 0 0-.412.223c-1.303 4.128-.373 8.729-.618 13.032"/><path stroke-width=".588" d="M160.981 190.81c-.5 1.596.114 3.318-.723 4.789"/><path stroke-width=".651" d="M130.121 192.267c-4.679 8.607-5.961 19.855-5.574 29.354"/><path stroke-width=".71" d="M124.548 221.619c1.591-2.813 2.771-5.888 4.748-8.534"/><path stroke-width=".642" d="M152.757 227.033c.414.905.795 2.071.21 2.983"/><path stroke-width=".627" d="M152.965 230.019c.052.193.19.554.387.862.724.088 1.43.433 1.811 1.079"/><path stroke-width=".771" d="M155.165 231.96c.475.03.99.062 1.277.486"/><path stroke-width=".505" d="M156.439 232.446c2.447.117 4.677.902 6.915 1.664"/><path stroke-width=".685" d="M158.916 29.154c.07-6.893 2.614-15.513-.809-21.605-7.621-9.912-23.396-6.932-32.081.297-.002 7.525-.006 15.653.173 23.079"/><path stroke-width=".817" d="M157.059 33.735a8.04 8.04 0 0 0 1.322-.362c1.003-1.147 1.105-2.818.536-4.219"/><path stroke-width=".636" d="M158.916 29.154c-9.071-7.535-25.068-7.716-32.718 1.77"/><path stroke-width=".751" d="M158.09 119.611c.036-28.617.108-57.273-1.032-85.876"/><path stroke-width=".635" d="M157.059 33.735c-1.338-8.493-28.413-8.402-27.579 1.055-.119.175-.374.538-.6.923"/><path stroke-width=".815" d="M128.882 35.713c1.25 23.312 1.428 46.853 3.301 69.95"/><path stroke-width=".639" d="M146.944 118.362c8.445 5.011 1.342 24.148-1.903 33.58-1.825 5.312-3.814 11.248-4.022 15.693-1.145 4.752-3.498 9.065-5.328 13.599"/><path stroke-width=".643" d="M135.694 181.233c7.224-3.126 16.575-3.686 23.325 1.039"/><path stroke-width=".704" d="M159.019 182.272c.43-7.056-1.156-14.783-.205-22.066"/><path stroke-width=".613" d="M127.232 118.153c-.748 5.139-3.878 10.041-4.721 15.341 2.487 3.265 9.968 6.224 14.812 5.578 7.226-.962 10.934-13.306 9.622-20.71"/><path stroke-width=".566" d="M146.944 118.362c-1.104-6.145-8.087-9.469-13.521-6.246"/><path stroke-width="1.1" d="M169.752 188.937h.414"/><path stroke-width=".623" d="M170.168 188.937c3.904-6.047 4.523-13.751 4.539-20.817"/><path stroke-width=".681" d="M159.019 182.272c1.182 2.768.34 6.074 1.962 8.537"/><path stroke-width=".534" d="M160.981 190.81c3.064.969 6.643.811 8.771-1.873"/><path stroke-width=".5" d="M169.752 188.937c-1.746-2.17-2.396-5.18-4.85-6.766a2.712 2.712 0 0 1-.193-.508c1.606-5.179 4.699-11.782 10-13.545"/><path stroke-width=".543" d="M174.708 168.118c8.758-17.921.412-39.452-16.618-48.505"/><path stroke-width=".709" d="M158.09 119.611c-.438 11.602.858 22.855.41 34.437.504.403 1.163.299 1.759.329"/><path stroke-width=".81" d="M160.258 154.377c.586-1.333 1.422-2.584 1.857-3.955"/><path stroke-width=".915" d="M160.258 154.377c-.078.892-.42 1.713-.826 2.499"/><path stroke-width=".604" d="M135.694 181.233c-2.127 3.533-4.546 7.018-5.57 11.033"/><path stroke-width=".533" d="M130.121 192.267c.785.912.082 2.338.826 3.332"/><path stroke-width=".508" d="M130.947 195.597c4.899-1.477 7.047-6.818 8.256-11.24"/><path stroke-width=".736" d="M130.947 195.597c-.728 5.428.377 10.891.303 16.324 1.703.551 3.853.497 5.559.048 1.006-4.046.402-8.36 1.003-12.442 5.466-.993 11.014-.453 16.581-.785.198.127.398.31.585.453.157 3.533.045 7.063.159 10.531.063.106.164.205.265.303.042.105.102.229.166.354 1.315.703 3.106.531 4.404-.022.797-4.823.544-9.854.289-14.764"/><path stroke-width=".607" d="M160.258 195.597c-5.138-1.986-7.048-7.729-9.289-12.281"/><path stroke-width=".783" d="M140.441 227.241c1.182-.301 2.532-.344 3.715 0"/><path stroke-width=".863" d="M144.157 227.241a83.616 83.616 0 0 1 8.601-.208"/><path stroke-width=".702" d="M152.757 227.033c3.4-1.856 5.47-5.205 8.218-7.777.156-1.642-.386-3.37-.305-4.922"/><path stroke-width=".647" d="M123.928 228.49c.742 1.435.314 3.233 1.239 4.579"/><path stroke-width=".452" d="M125.166 233.069c1.541.016 2.918.687 4.542.418"/><path stroke-width=".489" d="M129.708 233.487c.311-.385.992-.389 1.651-.418"/><path stroke-width=".551" d="M131.359 233.069c1.205-.541 2.51-1.531 3.925-1.353"/><path stroke-width=".732" d="M135.281 231.718c1.253-1.475 3.147-2.178 4.746-3.228"/><path stroke-width=".837" d="M140.028 228.49c.133-.415.252-.832.413-1.249"/><path stroke-width=".878" d="M140.441 227.241c-2.768-2.751-7.033-4.213-8.875-7.6"/><path stroke-width=".554" d="M131.566 219.644c-2.552.705-4.077 3.064-5.573 5.101"/><path stroke-width=".579" d="M140.028 228.49c1.257.563 2.388-.556 3.654-.474.174-.158.3-.467.476-.775"/><path stroke-width=".716" d="M135.281 231.718c-1.759 2.213-2.632 5.01-1.858 8.016"/><path stroke-width=".661" d="M133.424 239.733c1.061.699 1.805 1.859 2.064 3.121"/><path stroke-width=".595" d="M135.488 242.854c1.878.024 3.508 1.033 5.366 1.25"/><path stroke-width=".558" d="M140.854 244.104c1.664-.44 3.632-.182 4.955-1.457"/><path stroke-width="1.1" d="M145.809 242.647v-1.11"/><path stroke-width="1.086" d="M145.809 241.537a15.893 15.893 0 0 1-1.033-.453"/><path stroke-width=".766" d="M144.776 241.087c-.41.104-.875.076-1.169.033"/><path stroke-width=".517" d="M143.607 241.12c-.507.831-1.56.779-2.34.486"/><path stroke-width=".698" d="M141.267 241.606a3.075 3.075 0 0 0-.273.307c-.659.25-1.418.059-1.997-.307"/><path stroke-width=".656" d="M138.997 241.606c-.507-.049-1.182-.172-1.307-.765"/><path stroke-width=".938" d="M145.809 234.319c-.026-.694-.202-1.389-.207-2.082"/><path stroke-width=".605" d="M147.253 236.608c1.567.8 3.23.867 4.889.485"/><path stroke-width=".485" d="M152.965 230.019c-3.06-.949-5.959.256-9.013.347"/><path stroke-width=".618" d="M143.952 230.364c.874 1.082-.061 2.387.41 3.539"/><path stroke-width=".578" d="M143.952 230.364c-.53.178-1.09.314-1.446.417"/><path stroke-width=".505" d="M142.506 230.781c-.002.772-.159 1.096-.209 1.456"/><path stroke-width=".573" d="M142.506 230.781c-2.59.188-5.057 1.702-5.78 4.37"/><path stroke-width=".505" d="M136.726 235.151c.207.211.41.418.62.627"/><path stroke-width=".743" d="M137.346 235.778h.616"/><path stroke-width=".441" d="M131.359 233.069c.074 2.517.021 4.972 0 7.494"/><path stroke-width=".437" d="M129.708 233.487c.254 1.363-.349 2.462-.41 3.744"/><path stroke-width=".7" d="M125.166 233.069c.713 2.453 2.254 4.086 2.891 6.664"/><path stroke-width=".556" d="M152.139 237.095c.047.206-.141.735-.138 1.389"/><path stroke-width=".461" d="M145.809 242.647c.273.425.44.77.688 1.109"/><path stroke-width=".647" d="M146.496 243.758a53.11 53.11 0 0 0 1.582-.591"/><path stroke-width=".555" d="M148.078 243.167c-.372-1.505.264-2.756.211-4.268"/><path stroke-width=".671" d="M148.078 243.167c1.089.131 2.202.161 3.234.591"/><path stroke-width=".491" d="M151.313 243.758c.472-.562.024-1.47.691-1.944"/><path stroke-width=".664" d="M151.313 243.758c.651.882.699 2.181 1.927 2.638"/><path stroke-width=".605" d="M153.24 246.396c.35-2.193.46-4.42.413-6.664"/><path stroke-width=".505" d="M155.165 231.96c-.265 1.324-.723 2.58-1.26 3.8-.759.175-1.421.589-1.764 1.335"/><path stroke-width=".607" d="M163.146 244.729c-.21 1.153-.833 2.674 0 3.746"/><path stroke-width=".544" d="M164.387 248.06c-.676-3.578.098-7.552.41-11.24"/><path stroke-width=".553" d="M167.277 245.979c-.96-3.186.177-6.713.41-9.994"/><path stroke-width="1.025" d="M168.763 244.063c.848-2.396-.459-5.385.784-8.078"/><path stroke-width="1.034" d="M170.579 243.896c.198-.422.364-1.062.553-1.666"/><path stroke-width=".673" d="M174.432 232.794c-.63.023-1.195.322-1.789.484"/><path stroke-width=".461" d="M172.643 233.278c.12 1.375-.696 2.547-.414 3.957"/><path stroke-width=".558" d="M172.643 233.278c-3.005.646-6.131 1.353-9.289.838"/><path stroke-width=".535" d="M163.354 234.11a4.56 4.56 0 0 0-.41 1.146"/><path stroke-width=".618" d="M162.942 235.256c.088.056.172.112.263.166.39 2.114-.192 4.267-.055 6.396"/><path stroke-width=".837" d="M162.942 235.256a9.412 9.412 0 0 0-1.036.313"/><path stroke-width=".686" d="M161.908 235.569c.372.941.161 2.107-.41 2.914"/><path stroke-width="1.1" d="M161.497 238.483v.416"/><path stroke-width=".604" d="M161.497 238.899c.817.789.212 1.851-.414 2.498"/><path stroke-width=".804" d="M161.083 241.397c.036 2.095-.353 4.138-.205 6.244"/><path stroke-width=".483" d="M156.439 232.446c-.57 5.254-.124 10.574-.997 15.753"/><path stroke-width=".647" d="M155.442 248.199c.485.301 1.065.606 1.651.416"/><path stroke-width=".547" d="M157.092 248.615c.238-4.65.381-9.496.692-14.296"/><path stroke-width=".656" d="M157.092 248.615c.507.353 1.104.538 1.72.485"/><path stroke-width=".576" d="M158.814 249.103c.016-4.545.279-9.227.825-13.742"/><path stroke-width=".442" d="M158.814 249.103c1.079.586 2.536-.283 3.508.623"/><path stroke-width=".535" d="M145.809 241.537c.12-.073.237-.149.357-.224.409-1.48.113-3.353 1.087-4.703"/><path stroke-width=".479" d="M147.253 236.608c-.217-.905-.538-1.844-1.444-2.289"/><path stroke-width=".683" d="M145.809 234.319c-.217.508-.332.984-.826 1.666"/><path stroke-width=".727" d="M136.726 238.899c.421-.996-.073-2.205.62-3.121"/><path stroke-width=".655" d="M136.726 235.151c-.964.901-1.69 3.207 0 3.748"/><path stroke-width=".824" d="M136.726 238.899c.141.717.086 1.715.963 1.942"/><path stroke-width=".564" d="M137.69 240.843c.502-.721-.002-2.044 1.102-2.357"/><path stroke-width=".668" d="M161.908 235.569l-.413.123c-.551.733-.716 2.092.003 2.789"/><path stroke-width=".489" d="M144.776 241.087c.133-1.273 1.23-2.664.207-3.852M138.997 241.606c.412-.707.723-1.438.619-2.289"/><path stroke-width=".556" d="M143.607 241.12c-.073-.512.366-1.112-.072-1.596"/><path stroke-width=".559" d="M161.497 238.899c-.798.531-1.168 1.76-.414 2.498"/><path stroke-width=".505" d="M141.267 241.606c-.002-.772-.156-1.097-.206-1.457"/><path stroke-width=".525" d="M133.424 239.733c-1.157 2.006.289 4.701-.826 6.66"/><path stroke-width="1.091" d="M132.598 246.396v.832"/><path stroke-width="1.01" d="M132.598 247.228c.138.14.275.276.413.414"/><path stroke-width=".437" d="M137.552 249.517v-3.537"/><path stroke-width=".661" d="M138.791 249.517c.202-1.021.032-2.16.41-3.121"/><path stroke-width=".534" d="M142.368 249.031c-.506-1.107.158-1.942.138-3.054M144.019 248.615c.168-.951-.212-2.437.554-3.054"/><path stroke-width=".437" d="M140.854 244.104v3.539"/><path stroke-width="1.359" d="M135.488 242.854c-.113.184-.161.304-.207.418"/><path stroke-width=".618" d="M135.281 243.272c.75.521.688 1.529.41 2.289"/><path stroke-width=".551" d="M135.694 245.562c.121.961.403 1.971 0 2.916"/><path stroke-width=".679" d="M155.442 248.199c-1.276.522-1.903-.806-2.202-1.806"/><path stroke-width=".595" d="M146.496 243.758c-.563 1.627.084 5.101-2.477 4.857"/><path stroke-width=".727" d="M144.019 248.615c-.629.532-1.274.442-1.651.416"/><path stroke-width=".637" d="M142.368 249.031c-1.107.452-2.369.515-3.579.485"/><path stroke-width=".757" d="M138.791 249.517h-1.239"/><path stroke-width=".533" d="M135.281 243.272c-.646.473-.778 1.467-.492 2.162.235.062.567.096.903.127"/><path stroke-width=".618" d="M132.598 246.396c-.914-.073-1.017-1.098-1.651-1.459"/><path stroke-width=".782" d="M166.863 247.642c-.59.508-.963.56-1.651.84"/><path stroke-width=".868" d="M162.322 250.56c-5.695 3.211-11.565-3.154-18.105.633-1.115.646-4.671 1.406-6.664.199"/><path stroke-width=".618" d="M132.598 247.228c-.41.269-.826.508-1.239.832"/><path stroke-width=".992" d="M131.359 248.06c.231.81.193 1.787.92 2.357.499.828 1.778 4.221 3.416 5.902 4.944 5.076 7.983-1.248 14.158.711.933.296 1.816.99 2.771 1.646"/><path stroke-width=".708" d="M152.62 258.677c7.035 1.83 12.675-4.664 15.066-10.617"/><path stroke-width=".82" d="M81.957 291.502c1.579.743 1.953 3.11 3.991 3.19"/><path stroke-width=".696" d="M87.187 293.858c.594-.321 1.377-.35 1.749-1 .318-1.325-.123-2.666-.613-3.892"/><path stroke-width=".818" d="M87.29 288.759c-.554 1.639-.855 3.45-.103 5.102"/><path stroke-width=".618" d="M212.894 186.229c-1.67.01-3.233-.873-4.886-.764"/><path stroke-width=".533" d="M226.933 196.64c.471-.217.915-.463 1.335-.733-.844-6.562-10.723-6.396-15.376-9.677"/><path stroke-width=".676" d="M212.275 255.972c-.403 3.176-2.13 6.244-1.651 9.438"/><path stroke-width=".614" d="M210.624 265.408c.121.075.233.151.352.225.158 1.567 1.695 1.765 2.915 2.041 2.662 4.629 1.239 10.992.334 16.068-.384.237-.881.432-1.429.649"/><path stroke-width=".491" d="M207.734 205.174c6.851-.925 14.986-2.629 19.201-8.534"/><path stroke-width=".545" d="M226.933 196.64c-7.039-1.31-19.327-1.184-18.923-11.173"/><path stroke-width=".542" d="M214.2 179.499c-3.285-3.325-9.563-4.003-14.312-3.47"/><path stroke-width=".507" d="M184.75 177.555c7.58 1.542 17.707 1.501 23.258 7.912"/><path stroke-width=".548" d="M212.894 186.229c1.44-1.698 3.709-4.916 1.308-6.73"/><path stroke-width=".489" d="M214.2 179.499c-4.171 3.445-10.777-.667-14.312-3.47"/><path stroke-width=".607" d="M217.022 221.412c-.242-6.622-5.396-11.437-9.288-16.238"/><path stroke-width=".783" d="M207.734 205.174c-.875-.368-1.476-1.146-2.478-1.249"/><path stroke-width=".545" d="M106.177 170.198c2.093 2.524 5.533 1.837 8.256 2.917"/><path stroke-width=".556" d="M131.669 278.56c.886.828 2.144 1.178 2.607 2.543-1.002 4.756-6.17 7.057-10.348 8.176"/><path stroke-width=".908" d="M121.038 278.663c3.59.552 7.021-.41 10.63-.104"/><path stroke-width=".541" d="M131.669 278.56c.568-.527.891-1.11 1.25-1.44 1.061-3.837-3.315-6.746-6.308-8.032"/><path stroke-width=".463" d="M167.481 279.912c-3.652-5.347 3.525-9.181 7.639-10.617"/><path stroke-width=".655" d="M167.481 279.912c3.484.625 7.084.782 10.527-.208"/><path stroke-width=".52" d="M169.34 289.278c-3.514-1.35-5.617-6.631-1.855-9.367"/><path stroke-width=".589" d="M208.42 298.579c-3.224-5.102-.359-9.471.139-14.29"/><path stroke-width=".483" d="M208.42 298.579c.85.273 1.846.957 1.793 1.947"/><path stroke-width=".487" d="M168.514 346.739c.227-.467.604-.779.919-1.155 2.651-1.115 7.065 1.368 7.802-2.962 1.287-1.836 3.834-.587 5.2-2.233 1.081-4.768 7.351-4.019 8.595-8.842 1.799-.846 3.76-1.191 5.651-1.771.981-1.085.502-2.448.858-3.734 3.319-1.6 3.687-4.916 6.385-7.297 1.812-4.385.078-9.761 1.854-13.944 1.204-2.024.102-4.979 2.645-6.229"/><path stroke-width=".48" d="M121.864 302.188c1.1-.506 2.24-1.084 3.302-1.662"/><path stroke-width=".456" d="M99.158 332.583c1.342.334 2.464 1.994 3.925 1.457"/><path stroke-width=".515" d="M103.081 334.04c-.175-1.462 1.608-1.115 1.854-2.289"/><path stroke-width=".511" d="M103.081 334.04c.711.537 1.319 1.194 2.05 1.676-.449 4.748 6.062 3.919 6.12 7.984 5.55 2.979 11.272 5.919 15.657 10.856 2.295.684 4.961.483 6.602 2.499 2.18.721 4.407.562 6.655.647"/><path stroke-width=".771" d="M140.167 357.704c.039-.122.053-.339.072-.554"/><path stroke-width=".485" d="M140.236 357.148c-.237-.999-1.261-1.737-2.273-1.665"/><path stroke-width=".465" d="M140.236 357.148c1.569-.085 3.314-.988 3.922-2.498"/><path stroke-width=".494" d="M140.167 357.704c.532.339 1.183.521 1.603 1.023 4.603.201 9.232.398 13.821 1.212 2.246-2.483 5.367-.496 8.253-1.252 2.979-2.787 7.98-.428 10.549-3.935.355-.061.576-.252.814-.429 5.144-.005 7.897-4.746 11.976-6.659 1.306-.611 2.991-.031 4.328-.631 2.92-1.31 3.856-4.507 6.821-6.025 3.271-.129 1.877-3.903 3.72-5.41 1.587-.573 3.208-1.476 3.942-3.103-.392-3.253 2.642-4.7 4.127-7.082-.44-3.411 2.047-5.441 3.721-7.912.035-1.256-.991-2.251-1.485-3.331.009-1.559 2.47-2.729 1.155-4.489"/><path stroke-width=".424" d="M208.971 316.344l-.289-.123c-.122-.903-.385-2.035.289-2.789"/><path stroke-width=".522" d="M98.746 314.263c.229 1.104 1.984 1.433 2.061 2.914"/><path stroke-width=".517" d="M100.397 326.337c.437.025.795-.023 1.117-.124.11-.184.161-.335.21-.484.02-1.242-2.102-1.339-1.061-2.924.243-.145.523-.247.752-.369.074-.019.147-.028.22-.045"/><path stroke-width=".489" d="M101.636 322.381c.065-.984-.105-1.469-.413-1.87"/><path stroke-width=".479" d="M101.636 322.381c1.207.786 2.875.121 4.017 1.15.602 1.693 1.59 2.786 2.474 4.166 4 .586 4.269 6.269 8.314 6.194 1.168 1.568 2.485 3.161 3.362 4.939"/><path stroke-width=".424" d="M101.223 330.915c1.136.352 1.678-.821 2.477-1.243"/><path stroke-width=".506" d="M106.589 331.333c.974-.181 1.872-1.422 2.891-.832"/><path stroke-width=".433" d="M107.621 336.955c.17.902 1.061 1.132 1.854 1.036"/><path stroke-width=".451" d="M130.121 343.825c-.071-.626-.34-1.045-.531-1.54-1.805-.86-3.923-.568-5.663-1.374"/><path stroke-width=".431" d="M186.266 346.322c.974-.551 2.025-.875 2.89-1.662"/><path stroke-width=".445" d="M140.028 347.988c-.472.669-.718 1.036-1.236 1.249"/><path stroke-width=".529" d="M132.186 345.906c2.758.689 5.44.289 7.841 2.082"/><path stroke-width=".61" d="M140.028 347.988c2.242-1.386 6.253-.64 6.835 2.257 2.062 1.394 4.157-1.593 6.241.102"/><path stroke-width=".594" d="M153.103 350.347c4-.757 7.25-4.023 11.283-1.945"/><path stroke-width=".771" d="M164.387 348.404c.271-.113.552-.163.826-.208"/><path stroke-width="1.1" d="M164.387 348.404v.417"/><path stroke-width=".618" d="M164.387 348.821c.189.433.335.77.41 1.249"/><path stroke-width=".505" d="M164.387 348.821c-1.103.42-2.157.734-3.099 1.458"/><path stroke-width=".58" d="M153.103 350.347c0 .185-.286.531-.691.974"/><path stroke-width=".535" d="M131.566 351.527c.873-.112 1.505-1.101 2.46-.771.282.229.681.624 1.046.981"/></g><g fill="#231F20"><path d="M271.918 232.351h-2.414v2.247h2.701v.675h-3.515v-6.232h3.375v.675h-2.562v1.97h2.414v.665zM273.225 232.258c0-.573-.019-1.035-.037-1.461h.721l.047.768h.018c.324-.546.861-.86 1.592-.86 1.09 0 1.904.916 1.904 2.266 0 1.609-.99 2.404-2.043 2.404-.592 0-1.11-.259-1.379-.702h-.018v2.432h-.805v-4.847zm.805 1.193a1.255 1.255 0 0 0 1.257 1.285c.86 0 1.359-.703 1.359-1.729 0-.888-.472-1.655-1.331-1.655-.555 0-1.082.389-1.23.999a1.358 1.358 0 0 0-.055.323v.777zM279.395 229.539c0 .277-.193.5-.518.5-.295 0-.49-.223-.49-.5s.204-.508.51-.508c.295 0 .498.222.498.508zm-.906 5.733v-4.476h.814v4.476h-.814zM284.483 234.616c0 1.035-.213 1.655-.639 2.053-.443.397-1.072.536-1.637.536-.535 0-1.127-.13-1.488-.37l.203-.629c.297.194.759.361 1.313.361.832 0 1.442-.435 1.442-1.572v-.49h-.019c-.24.416-.73.749-1.424.749-1.11 0-1.905-.943-1.905-2.183 0-1.516.99-2.367 2.025-2.367.777 0 1.193.398 1.396.768h.018l.028-.675h.722c-.028.314-.037.685-.037 1.221v2.598zm-.815-2.053a1.07 1.07 0 0 0-.046-.361c-.147-.48-.536-.869-1.138-.869-.776 0-1.331.657-1.331 1.692 0 .879.453 1.609 1.322 1.609.509 0 .962-.314 1.128-.833.047-.139.064-.296.064-.435v-.803zM285.827 228.707h.813v6.565h-.813v-6.565zM292.06 232.998c0 1.655-1.155 2.376-2.229 2.376-1.202 0-2.146-.888-2.146-2.303 0-1.488.99-2.367 2.22-2.367 1.286 0 2.155.935 2.155 2.294zm-3.542.046c0 .98.555 1.72 1.351 1.72.776 0 1.359-.73 1.359-1.738 0-.758-.38-1.711-1.341-1.711-.953-.001-1.369.887-1.369 1.729zM294.07 229.725v1.072h1.165v.62h-1.165v2.413c0 .555.157.869.61.869.222 0 .352-.019.472-.056l.036.62c-.156.055-.406.11-.721.11-.379 0-.684-.129-.879-.342-.221-.25-.314-.647-.314-1.175v-2.44h-.693v-.62h.693v-.832l.796-.239zM297.132 229.725v1.072h1.165v.62h-1.165v2.413c0 .555.157.869.61.869.222 0 .352-.019.472-.056l.036.62c-.156.055-.406.11-.721.11-.379 0-.684-.129-.879-.342-.221-.25-.314-.647-.314-1.175v-2.44h-.693v-.62h.693v-.832l.796-.239zM300.121 229.539c0 .277-.194.5-.518.5-.296 0-.49-.223-.49-.5s.204-.508.509-.508c.295 0 .499.222.499.508zm-.907 5.733v-4.476h.813v4.476h-.813zM301.268 234.449c.25.148.676.314 1.082.314.583 0 .86-.286.86-.666 0-.388-.231-.592-.823-.813-.813-.296-1.192-.73-1.192-1.267 0-.722.592-1.313 1.544-1.313.453 0 .851.121 1.092.277l-.195.592a1.74 1.74 0 0 0-.915-.268c-.48 0-.739.277-.739.61 0 .37.259.536.842.768.767.286 1.174.675 1.174 1.341 0 .795-.619 1.35-1.664 1.35-.49 0-.943-.129-1.258-.314l.192-.611z"/></g><path fill="none" stroke="#231F20" stroke-width=".5" d="M152.695 233.976h105.836"/><g fill="#231F20"><path d="M270.961 63.271h.813v5.558h2.663v.675h-3.477v-6.233zM278.454 68.432c0 .388.019.768.064 1.072h-.73l-.064-.564h-.027c-.25.352-.73.666-1.369.666-.906 0-1.368-.638-1.368-1.285 0-1.082.962-1.674 2.69-1.664v-.093c0-.36-.102-1.036-1.018-1.026-.425 0-.859.12-1.174.333l-.185-.546c.37-.231.915-.389 1.479-.389 1.368 0 1.701.935 1.701 1.822v1.674zm-.786-1.212c-.889-.019-1.896.139-1.896 1.008 0 .536.352.777.758.777.592 0 .972-.37 1.102-.749a.955.955 0 0 0 .037-.259v-.777z"/></g><g><path fill="#231F20" d="M279.77 66.425c0-.527-.008-.98-.036-1.396h.712l.037.888h.027c.203-.601.703-.98 1.248-.98.084 0 .148.01.223.019v.768c-.084-.019-.166-.019-.277-.019-.574 0-.98.426-1.092 1.036-.018.11-.027.249-.027.379v2.386h-.814v-3.081z"/></g><g fill="#231F20"><path d="M283.315 65.028l.971 2.645c.111.296.223.647.297.916h.018c.084-.269.176-.61.287-.935l.888-2.626h.86l-1.221 3.19c-.583 1.535-.98 2.312-1.535 2.802-.407.342-.795.48-.999.518l-.203-.675c.203-.064.472-.194.712-.397.222-.176.49-.49.684-.906.037-.083.065-.148.065-.194s-.019-.111-.065-.213l-1.646-4.124h.887zM287.377 66.24c0-.472-.01-.842-.037-1.212h.721l.047.74h.018c.223-.416.74-.833 1.48-.833.619 0 1.581.37 1.581 1.905v2.663h-.813v-2.58c0-.721-.269-1.322-1.036-1.322-.526 0-.942.379-1.091.832a1.179 1.179 0 0 0-.056.38v2.69h-.813V66.24zM296.34 68.848c0 1.035-.213 1.655-.638 2.053-.444.397-1.073.536-1.637.536-.536 0-1.128-.13-1.489-.37l.204-.629c.296.194.758.361 1.313.361.832 0 1.441-.435 1.441-1.572v-.49h-.018c-.24.416-.73.749-1.424.749-1.11 0-1.905-.943-1.905-2.183 0-1.516.989-2.367 2.024-2.367.777 0 1.193.398 1.396.768h.019l.028-.675h.721a14.49 14.49 0 0 0-.037 1.221v2.598zm-.813-2.053a1.07 1.07 0 0 0-.046-.361c-.148-.48-.537-.869-1.138-.869-.776 0-1.331.657-1.331 1.692 0 .879.453 1.609 1.322 1.609.508 0 .961-.314 1.128-.833.046-.139.064-.296.064-.435v-.803zM301.735 67.229c0 1.655-1.156 2.376-2.229 2.376-1.203 0-2.146-.888-2.146-2.303 0-1.488.989-2.367 2.22-2.367 1.286.001 2.155.935 2.155 2.294zm-3.542.046c0 .98.555 1.72 1.351 1.72.776 0 1.359-.73 1.359-1.738 0-.758-.38-1.711-1.342-1.711-.952 0-1.368.888-1.368 1.729zM302.653 68.681c.25.148.676.314 1.082.314.582 0 .859-.286.859-.666 0-.388-.23-.592-.822-.813-.814-.296-1.193-.73-1.193-1.267 0-.722.592-1.313 1.545-1.313.453 0 .851.121 1.091.277l-.194.592a1.743 1.743 0 0 0-.916-.268c-.48 0-.739.277-.739.61 0 .37.259.536.842.768.768.286 1.175.675 1.175 1.341 0 .795-.62 1.35-1.665 1.35-.49 0-.943-.129-1.258-.314l.193-.611z"/></g><g><path fill="#231F20" d="M309.62 69.347a3.145 3.145 0 0 1-1.285.259c-1.35 0-2.229-.915-2.229-2.284 0-1.377.943-2.386 2.404-2.386.48 0 .906.121 1.128.241l-.185.619a1.993 1.993 0 0 0-.943-.213c-1.027 0-1.582.768-1.582 1.692 0 1.036.666 1.674 1.555 1.674.461 0 .767-.111.998-.213l.139.611z"/></g><g fill="#231F20"><path d="M314.569 67.229c0 1.655-1.155 2.376-2.229 2.376-1.201 0-2.145-.888-2.145-2.303 0-1.488.989-2.367 2.219-2.367 1.286.001 2.155.935 2.155 2.294zm-3.541.046c0 .98.555 1.72 1.35 1.72.777 0 1.359-.73 1.359-1.738 0-.758-.379-1.711-1.34-1.711-.953 0-1.369.888-1.369 1.729zM315.598 66.489c0-.573-.018-1.035-.036-1.461h.722l.046.768h.019c.323-.546.859-.86 1.59-.86 1.092 0 1.905.916 1.905 2.266 0 1.609-.989 2.404-2.044 2.404-.592 0-1.109-.259-1.377-.702h-.02v2.432h-.805v-4.847zm.805 1.194a1.257 1.257 0 0 0 1.258 1.285c.86 0 1.359-.703 1.359-1.729 0-.888-.472-1.655-1.332-1.655-.555 0-1.081.389-1.229.999a1.314 1.314 0 0 0-.057.323v.777zM321.317 67.414c.018 1.101.712 1.554 1.535 1.554.582 0 .943-.102 1.238-.231l.148.583c-.287.129-.786.286-1.498.286-1.378 0-2.201-.915-2.201-2.266 0-1.35.795-2.404 2.1-2.404 1.47 0 1.85 1.276 1.85 2.1 0 .166-.01.286-.028.379h-3.144zm2.385-.582c.01-.509-.212-1.313-1.127-1.313-.833 0-1.184.749-1.249 1.313h2.376z"/></g><path fill="none" stroke="#231F20" stroke-width=".5" d="M159.184 68.042h99.347"/></svg>