<svg version="1.1" xmlns="http://www.w3.org/2000/svg" x="0" y="0" width="326.195" height="405.954" viewBox="-54.635 -72.363 326.195 405.954" xml:space="preserve"><path d="M92.187 15.67c.557.443 1.675.325 1.499 1.498-.953-.043-1.453-.543-1.499-1.498zM94.811 15.67c.605-.105.645.354 1.124.375.149.727-1.707.548-1.124-.375zM89.562 16.047c.303.07.373.375.75.374-.2.881-1.773.229-.75-.374zM106.428 17.545c.368-1.15 1 .432 1.5.374-.368 1.149-1-.43-1.5-.374zM94.435 17.545c.605-.105.645.354 1.124.374.149.729-1.705.549-1.124-.374zM83.941 17.92c1.094-.551 1.094 1.674 0 1.124V17.92zM86.565 17.92c1.718.251-.301 2.269 0 0zM92.187 18.294h.75v.75h-.75v-.75zM88.063 19.044c1.72.251-.301 2.269 0 0zM108.302 19.044c.912.211 1.927.322 1.874 1.5-.706-.419-1.721-.527-1.874-1.5zM81.693 19.418c.831-.207.534.715 1.125.75-.154.934-1.455.022-1.125-.75zM85.441 19.418h.75v.75h-.75v-.75zM93.311 19.418h.75v.75h-.75v-.75zM106.053 19.794c1.061-.31.972.529 1.875.375.065.611-2.452.756-1.875-.375zM83.941 20.168c1.708.54 4.237.261 5.247 1.498v1.875c-.872 1.251-3.251.997-4.873 1.498-.186-1.188-1.217-1.532-2.249-1.875-.066-1.688 2.324-.923 1.875-2.996zM94.435 20.542c.637-.137.708.293.75.75-.318-.068-.354.146-.374.374-.44-.06-.316-.683-.376-1.124zM106.428 21.668c.98-.104 1.612.137 1.5 1.125-.277-.598-1.834.084-1.5-1.125zM108.678 21.668h.749v.75h-.749v-.75zM91.062 22.417c.717.157 1.613.135 1.5 1.125-.718-.157-1.614-.137-1.5-1.125zM111.302 23.166c1.048-.059 1.222 1.059.749 1.498-.504-.245-.699-.8-.749-1.498zM92.937 23.542c.557.442 1.675.324 1.498 1.498-.955-.046-1.453-.546-1.498-1.498zM89.188 24.291c.366-1.147 1.263.167 1.498.374-.367 1.149-.999-.431-1.498-.374zM97.058 23.917c-.164.461-.479.769-1.125.75-.174-.802.537-.714 1.125-.75zM89.939 26.54c1.154-.278.719 1.028 1.874.75.589 2.256-3.119 3.214-1.498 4.123-.132.982-3.418-1.217-3.374.75-1.038-.895-1.229-2.025-2.624-.75-.844-4.25 2.269-5.509 5.247-4.874l.188.188.187-.187zM103.806 25.041h.749v.75h-.749v-.75zM78.695 25.416c.605-.105.645.355 1.124.374.148.728-1.708.548-1.124-.374zM80.943 25.416h.75v.75h-.75v-.75zM97.809 25.416h.749v.75h-.749v-.75zM82.443 25.79c.869-.119 1.439.061 1.874.374.065.612-2.452.758-1.874-.374zM91.437 25.79c.818-.067 1.192.307 1.125 1.125-.818.067-1.192-.307-1.125-1.125zM102.68 26.54c.933-.058 1.161.589 1.874.75-.272.837-2.137.181-1.874-.75zM106.053 26.54h.75v.75h-.75v-.75zM82.067 27.29c-.883 1.205-1.514-1.318 0 0zM109.803 26.914h1.123c.273 1.022-.745.755-.75 1.498-.508-.114-.311-.937-.373-1.498zM78.695 27.29h.75v.75h-.75v-.75zM93.687 27.664c.129-.452.997-.302 1.124 0 .339.81-1.373.869-1.124 0zM107.554 27.664h.75v.75h-.75v-.75zM104.93 28.038c.658.091.854.645.75 1.498-.661-.088-.856-.643-.75-1.498zM111.302 28.038h.749v.75h-.749v-.75z"/><path d="M82.817 28.414c.35.399 1.382.117 1.124 1.124-.817.068-1.191-.308-1.124-1.124zM98.933 28.414c.604-.105.645.355 1.125.375.148.727-1.708.546-1.125-.375zM101.93 28.788h.75v.75h-.75v-.75zM95.559 29.538c-.12-.662 2.1-.668 1.5.375-.672.047-.79-.459-1.5-.375zM109.052 29.538c-.148-.728 1.706-.547 1.124.375h-.749c.068-.319-.147-.353-.375-.375zM100.432 29.913c.129-.453.997-.303 1.124 0 .339.81-1.372.869-1.124 0zM82.067 29.913h.75v.749h-.75v-.749zM107.554 30.662c.274-.667.681-.054 1.124 0-.276.667-.683.054-1.124 0zM96.311 32.536c-.15-.728 1.706-.548 1.124.374h-.75c.068-.319-.147-.354-.374-.374zM99.307 32.536c.333-.785 2.092.121 1.874 1.124-.661-.336-1.094-.905-1.874-1.124zM111.302 32.536c.819.368-.339 1.876-1.126 1.874.22-.78.787-1.212 1.126-1.874zM98.182 33.286h.75v.75h-.75v-.75zM88.815 34.036h.749v.75h-.749v-.75zM94.811 34.41c-.148-.728 1.707-.547 1.124.374h-.75c.07-.317-.147-.352-.374-.374zM112.424 34.036c.869.105.861 1.001.373 1.5-.507-.117-.308-.94-.373-1.5zM108.302 34.41c2.194.498-1.357 1.77 0 0zM109.052 35.909h.751v.75h-.751v-.75zM107.178 36.284c.785.331-.121 2.092-1.125 1.873.22-.779.787-1.211 1.125-1.873zM112.051 36.659c-.56.439-.441 1.557-1.499 1.498.128-.869.241-1.756 1.499-1.498zM113.175 36.659h.751v.75h-.751v-.75zM108.302 37.784h.75v.75h-.75v-.75zM113.175 37.784c.272 1.023-.744.755-.751 1.5-.793-.12-.08-1.778.751-1.5zM109.052 39.282h.751c.104.604-.354.645-.376 1.124h-.744c-.112-.605.348-.646.369-1.124zM111.302 40.781c-.165.462-.482.769-1.126.75.165-.462.479-.77 1.126-.75zM107.178 41.531c.943.377-.298 1.658-1.125 1.5-.329-1.203.972-.778 1.125-1.5zM108.678 43.029c1.125.561-.276 1.68-1.124 1.498.11-.762 1.012-.734 1.124-1.498zM111.302 43.029c.777.21.793.584.373 1.124h-.756c-.1-.604.361-.644.383-1.124zM109.803 45.279c.727-.148.547 1.706-.376 1.125v-.75c.32.068.354-.147.376-.375zM112.424 45.279c1.019.34-.381 1.313-.373 1.874-1.135-.458.264-1.431.373-1.874zM108.678 47.527c-.129.871-.242 1.756-1.5 1.498.56-.437.441-1.555 1.5-1.498zM113.926 47.903c-.164.462-.481.769-1.125.75.163-.462.478-.771 1.125-.75zM110.926 48.277c-.561.439-.442 1.557-1.499 1.5.047-.954.546-1.454 1.499-1.5zM108.302 50.9c.896.562-.594 1.876-1.5 1.875.196-.93.916-1.337 1.5-1.875zM110.926 51.275h.749c.105.604-.354.644-.367 1.124h-.756c-.107-.606.353-.645.374-1.124zM113.926 51.651c1.136-1.387 1.262 1.136 0 0zM110.176 53.525c-.165.461-.479.769-1.124.75-.175-.801.536-.716 1.124-.75zM112.424 53.525h1.126c-.326.547-.562 1.187-1.499 1.124.197-.303.39-.608.373-1.124zM108.302 55.772c-.164.462-.479.769-1.126.75-.174-.798.536-.715 1.126-.75zM110.926 56.146c.068.818-.305 1.192-1.123 1.125.398-.349.115-1.382 1.123-1.125zM107.928 58.396h.75c.105.605-.355.646-.375 1.124h-.75c-.107-.604.354-.644.375-1.124zM108.302 64.018c1.771-1.772-.163 2.074-.374.374-.056-.445.196-.196.374-.374zM117.297 92.5c-.883 1.208-1.515-1.317 0 0zM113.926 94.749c.968-1.29.903 1.927 0 0zM111.675 96.998c.802-.175.715.535.756 1.125-.302-.07-.373-.375-.756-.374v-.751zM116.921 97.749c.42-1.095 1.22.477 1.125 1.125-1.33.581-.225-1.275-1.125-1.125zM119.172 98.496c.822-.066 1.191.307 1.123 1.126-.816.067-1.191-.307-1.123-1.126zM112.051 99.622h.75v.75h-.75v-.75zM115.049 99.622h.749v.75h-.749v-.75zM120.295 100.746c-.099-.885 1.099.135 1.125.374.068.616-1.029.483-1.125-.374zM112.801 101.12c.46.164.77.479.749 1.124-.463-.162-.77-.479-.749-1.124zM115.798 101.87c.8-.175.712.535.75 1.126-.302-.072-.374-.375-.75-.374v-.752zM121.044 102.621c.154-.933 1.452-.023 1.126.749-.832.205-.535-.716-1.126-.749zM118.796 102.621h.749v.749h-.749v-.749zM113.55 102.996h1.123v.75h-1.123v-.75zM113.926 104.868c.968-1.29.903 1.928 0 0zM121.795 104.868c.604-.105.646.355 1.124.375.147.729-1.707.549-1.124-.375zM117.672 106.368c1.137-1.385 1.262 1.138 0 0zM114.673 106.744c.274-.667.682-.054 1.125 0-.274.665-.681.052-1.125 0zM122.919 106.744c1.718.248-.302 2.267 0 0zM119.172 108.242c1.717.25-.302 2.269 0 0zM124.418 108.242c1.72.25-.302 2.269 0 0zM115.424 108.992c.46.164.77.479.75 1.126-.463-.166-.771-.482-.75-1.126zM120.295 110.865c.831-.207.534.715 1.125.75-.152.933-1.452.023-1.125-.75zM89.188 240.164c-.715-.16-.678-1.071-1.874-.749-.043-1.295.756-1.743 2.249-1.497l-.187.564.562.185v1.123l-.562-.184-.188.558z"/><path d="M165.643 174.576c8.816-5.346 15.876-12.967 24.362-19.111 6.061-4.393 12.56-9.618 18.738-14.618 8.904-7.199 17.367-14.583 25.492-22.487 3.924-3.822 8.158-7.678 11.244-12.743 1.363-2.245 2.857-4.989 5.249-6.745 5.354-11.075 13.259-23.137 14.618-37.853.149-1.617-.07-3.537 0-5.247.202-4.942.224-10.056-.753-14.618-.98-4.61-4.042-7.802-5.245-12.741-2.444-4.485-8.856-5.526-14.241-5.246-2.837.147-5.804 1.608-8.991 2.249-5.749 1.156-11.938 2.19-18.364 3.374-2.588.476-5.012.125-7.498.374-4.231.429-7.568 1.616-12.739 1.498-6.199-.138-9.954-1.709-13.869-5.996-2.503-5.299-3.924-12.182-3.748-19.488.119-5.045 1.983-10.698 3.372-16.115 1.835-7.165 3.721-14.154 5.247-20.989 1.688-7.546 2.048-17.167-2.619-22.861-.327-.396-1.016.358-1.126-.374-.118-.772-.14-.746-1.123-1.874-1.427-1.633-3.482-4.044-5.622-5.246-3.995-2.244-10.314-3.727-14.991-4.122-3.8-.322-8.538-.123-12.371.75-4.414 1.006-7.437 4.405-11.617 6.371-4.271 4.476-9.318 8.174-13.494 12.742-1.922 4.026-5.174 7.195-7.497 11.244-2.227 3.889-3.71 8.748-5.246 13.492-3.165 9.791-3.813 20.846-6 30.733-1.035 4.693-2.654 9.03-.75 13.866-.93 1.318-2.016 2.482-4.498 2.25l-.188-.562-.188.562c-1.241-.025-2.791-.935-4.122-1.874-.463-2.384 1.933-5.86-.375-5.622 1.218-.599 1.395-.814 1.498-1.874.062-1.062-2.31.311-2.249-.75h.375v-.375h1.498c3.047-13.542 5.953-28.078 10.12-42.349.943-3.231 2.382-6.682 3.748-9.745 1.291-2.887 2.555-5.097 4.497-7.871 4.126-5.901 9.63-10.534 14.991-15.741 2.837-2.757 5.864-4.837 9.74-7.122 2.017-1.182 3.114-2.436 5.622-2.998 8.544-1.914 19.471-1.148 27.734 1.124 4.199 1.154 5.406 1.828 8.62 4.122 1.083.771 2.642 1.358 3.748 2.25.46.371.548 1.296 1.123 1.874 1.844 1.847 5.076 3.766 6.371 6.372.992 1.996 1.832 5.154 2.252 7.122.694 3.294-.49 8.5-1.126 12.368-3.022 18.272-13.312 38.691-7.126 55.843 3.037 2.1 5.674 5.366 9.746 5.621.888.056 2.057-.625 2.997-.75 1.247-.166 2.337.111 3.749 0 4.087-.322 8.803-1.489 13.493-2.25 3.521-.572 7.302-.58 10.87-1.499 6.935-1.787 13.067-4.824 20.61-4.497 3.49.151 7.514 1.335 10.867 2.998 3.263 3.881 5.038 6.294 7.125 11.244 3.72 8.844 5.08 24.211 2.997 36.354-.935 5.44-4.03 11.611-6.741 17.615-3.742 8.263-6.297 15.342-11.244 21.737-1.501 1.939-3.327 3.652-4.876 5.622-4.49 5.709-9.214 11.759-14.62 16.865a169.158 169.158 0 0 1-11.245 9.745c-3.903 3.089-7.37 6.746-11.618 8.994-.646.227.028 1.777-.752 1.873-9.729 5.461-18.928 13.659-27.732 20.99-4.679 3.89-10.072 6.347-13.118 11.617l-.373-.182-.37.182c.914-3.287-.693-4.973-2.25-6.741l.188-.374-.186-.387z"/><path d="M101.368 25.228l.188-.188c.005.745 1.022.476.75 1.498-.548-.327-1.453-.298-1.125-1.498l.187.188zM77.383 28.6l-.188-.562c3 .83 1.142 2.452 3.748 4.122l-.563.188.188.562c-1.25 0-1.278-1.22-2.622-1.124l-.188-.562-.562.188c.266-1.39-.64-1.608-.375-2.999l.562.187zM116.548 88.191l.373.187c2.687.182 4.098 1.648 5.998 2.622l-.188.376.188.374c.56 1.688 1.914 2.583 1.874 4.872l-.688-.188-.438.562c-1.679-5.69-7.86-6.879-15.365-6.745l.188-.688-.562-.437c1.958-1.162 5.997-.251 8.245-1.124l.375.189z"/><path d="M124.355 97.187l.431-.562c1.494 3.251 2.278 7.223 3.374 10.869l-.564-.188-.189.562c-1.89-2.985-4.186-5.557-3.747-10.87l.695.189zM89.751 91.564l-.188.562c-.318.068-.353-.146-.374-.374-3.179.366-5.386-1.232-7.869-.75-3.374.658-3.909 3.881-5.622 6.372l-.437-.563-.688.189c-.318-1.415 1.246-1.759.375-2.624v-.374h-.375c2.596-1.652 1.808-3.895 4.123-4.872 3.007-1.269 8.126 1.959 10.493.374l.562.188.188-.562c.54.084.13 1.119.75 1.124l-.188.562.561.188c.138.639-.292.708-.749.75l-.562-.19z"/><path d="M75.009 97.561l.688-.188c-.194 1.644-.116 1.231-.374 2.624-.992 2.057-2.275 4.057-3.374 6.372-.925 1.948-1.2 5.112-4.122 5.246 2.013-5.109 4.216-10.026 6.745-14.618l.437.564zM74.759 73.575l-.562.188v-1.875l.562.188.188-.562h.75l-.188.562.561.187c-.119.87.061 1.438.375 1.875h-1.498l-.188-.563zM90.313 19.044c.89.234 1.744.504 1.874 1.5-.354-.771-1.932-.318-1.874-1.5zM116.921 114.987c-.068-.318.147-.353.37-.374h.755c-.006.746-1.029.477-.755 1.498-1.322-.041.802-1.238-.37-1.124z"/><g fill="none" stroke="#000" stroke-linecap="round"><path stroke-width=".281" d="M80.005 23.729c.559-.061.936.063 1.125.374"/><path stroke-width=".235" d="M89.377 25.978c.134.24.292.457.374.75"/><path stroke-width=".367" d="M109.239 25.978c.944.029 1.797-1.003 2.812-.188"/><path stroke-width=".408" d="M96.122 25.978c.244.243.606.606.936.938"/><path stroke-width=".26" d="M93.499 29.351c.667-.079 1.275.574 1.498 1.125"/><path stroke-width=".235" d="M98.371 31.224c-.206-.044-.293-.207-.374-.374"/><path stroke-width=".367" d="M89.751 40.969c.358-1.003.705-2.017 1.124-2.999"/><path stroke-width=".311" d="M117.485 94.562c.202.522.726.898.751 1.5"/><path stroke-width=".322" d="M162.646 179.45c-5.876 3.689-10.984 8.421-17.055 11.806"/><path stroke-width=".326" d="M157.211 188.634c2.945-2.064 5.606-4.717 8.245-7.122"/><path stroke-width=".331" d="M148.592 194.628c1.647-1.768 4.235-2.628 5.995-4.122"/><path stroke-width=".281" d="M113.736 204.748c2.222 2.49 3.837 5.783 5.997 8.246"/><path stroke-width=".439" d="M136.598 204.748c.01.062.016.126.025.188-.425 1.433-2.093 1.951-3.273 2.685"/><path stroke-width=".437" d="M120.295 218.053c-.268-.119-.498-.232-.672-.386-.205-.529-.625-1.011-.483-1.625 1.279-.574 2.523.858 3.892.493 1.295-.419 2.652-1.867 1.012-2.979"/><path stroke-width=".319" d="M90.125 221.238c.746 1.098 1.208 2.571 2.25 3.372"/><path stroke-width=".432" d="M103.992 229.108l.19.187c1.923.871 2.976-1.172 4.963-1.415.081-.171.157-.311.235-.452.044-.443.078-1.131-.016-1.489-.223-.125-.387-.331-.5-.583"/><path stroke-width=".327" d="M83.005 226.11c2.461 3.001 4.415 6.557 6.746 9.744"/><path stroke-width=".419" d="M89.377 238.478c.928-.322 1.951-.155 2.918-.168.186.105.383.307.562.481.007.241-.106.493-.217.709-.885.492-1.677 1.015-2.703 1.32"/><path stroke-width=".676" d="M89.939 240.82c0 .556.431 1.208.936 1.407"/><path stroke-width=".706" d="M89.939 240.82a43.256 43.256 0 0 0-.562-1.221"/><path stroke-width=".404" d="M74.386 251.221c.57 1.041 1.721.673 2.587.334.861-.648.591-1.814.18-2.64.223-.981 1.433-1.681 2.426-1.628.568.195.952.812 1.177 1.312"/><path stroke-width=".438" d="M63.422 258.811c.542-.725 1.521-.762 2.344-.843"/><path stroke-width=".507" d="M63.422 258.811c-.918-.239-1.876.294-2.289 1.097-.099.567.045.912.179 1.397.789.631 2.227.964 3.039.242.795-1.091-.351-1.909-.929-2.736"/><path stroke-width=".235" d="M101.368 24.479v.75"/><path stroke-width=".272" d="M79.757 20.856c.309.153.482.361.624.624"/><path stroke-width=".409" d="M114.393 27.382c2.721-5.932-2.923-9.792-7.396-11.899"/><path stroke-width=".43" d="M115.984 75.447c.897 4.168-.423 8.551.564 12.744"/><path stroke-width=".401" d="M122.73 91.377c31.405-.501 63.144 1.501 93.696 7.683"/><path stroke-width=".744" d="M124.105 96.436l.25.75"/><path stroke-width=".501" d="M129.29 109.928c-.497-.958-1.216-1.654-1.688-2.622"/><path stroke-width=".999" d="M95.185 91l-.312.312"/><path stroke-width=".444" d="M94.872 91.315c.425.793.638 1.647.875 2.498"/><path stroke-width=".536" d="M95.747 93.812c.621.54 1.096 1.282 1.835 1.665.287.358.473.808.572 1.048.11 1.878-1.383 2.968-2.963 3.52-.275-.009-.772-.514-1.036-.893"/><path stroke-width=".516" d="M90.687 93.876c-.711-.58-.694-1.506-.936-2.312"/><path stroke-width=".744" d="M75.259 96.81l-.25.75"/><path stroke-width=".375" d="M-10.878 107.492c28.41-4.86 56.833-11.062 85.826-13.493"/><path stroke-width=".368" d="M81.131 83.319c-.603 1.243-.132 2.686-.563 3.935"/><path stroke-width=".593" d="M76.54 78.165c-1.677-.57-2.023-3.061-1.78-4.591"/><path stroke-width=".52" d="M75.884 68.328c.079-1.441.913-2.737 2.156-3.468"/><path stroke-width=".467" d="M78.04 64.86a3.558 3.558 0 0 1 2.467-2.403"/><path stroke-width=".443" d="M80.505 62.457c.413-10.467-1.594-20.946-2.748-31.232"/><path stroke-width=".349" d="M77.383 28.6c-1.78-2.393.158-6.212 2.374-7.746"/><path stroke-width=".335" d="M79.757 20.856c3.417-5.246 10.653-6.255 16.553-5.935"/><path stroke-width=".316" d="M147.342 197.377c-1.449.969-2.883 2.017-4.372 2.875"/><path stroke-width=".296" d="M76.915 260.777c-10.839 8.29-22.642 15.889-34.01 23.423"/><path stroke-width=".381" d="M-40.548 328.677c-.058 1.24 1.53 2.032 1.133 3.309-.973.397-1.753 1.19-2.799 1.396-4.763-5.942-9.05-12.774-12.21-19.607.181-.365.348-.556.496-.776.638-.339 1.127-1.098 1.958-.896.771 1.09 1.749 2.222 2.387 3.374.175.025.296.056.416.092"/><path stroke-width=".302" d="M-49.167 315.558c23.727-17.205 48.251-32.875 72.956-48.973"/><path stroke-width=".308" d="M23.788 266.585c-2.391-4.388-5.53-8.222-8.245-12.368"/><path stroke-width=".383" d="M27.413 272.333c.759.525 1.525 1.393 1.811 2.312"/><path stroke-width=".385" d="M32.972 280.547c4.579 3.485 5.831 10.945 11.003 13.582.696-.365 1.36-.78 2.024-1.2.056-.111.07-.282.082-.454-1.559-3.356-4.269-5.959-5.987-9.21"/><path stroke-width=".348" d="M40.093 283.265c-7.363-10.671-14.604-21.521-21.659-32.313a2.475 2.475 0 0 0-.828-.337c-.771.231-1.633.712-2.062 1.355"/><path stroke-width=".298" d="M40.093 283.265c12.135-7.594 24.036-15.798 35.791-24.174"/><path stroke-width=".3" d="M75.884 259.091c-4.928-6.801-9.077-13.956-14.118-20.489"/><path stroke-width=".367" d="M61.766 238.602c-.485.095-.858.364-1.062.813"/><path stroke-width=".39" d="M60.704 239.415c.659 2.156 1.923 3.986 3.186 5.807"/><path stroke-width=".323" d="M60.704 239.415c-2.66 1.206-5.225 3.217-7.471 5.06 2.023 4.273 5.437 7.826 7.66 11.993"/><path stroke-width=".508" d="M61.766 238.602c.04-.214.077-.444.126-.63"/><path stroke-width=".311" d="M61.892 237.979c-1.065-.737-1.372-2.169-2.312-3.062"/><path stroke-width=".313" d="M59.58 234.917c-11.458 7.211-22.259 15.587-33.73 22.861"/><path stroke-width=".307" d="M59.58 234.917c22.208-15.902 45.159-31.444 67.916-46.767.188-.211.475-.253.719-.294 1.338 2.313 2.687 5.126 4.822 6.677"/><path stroke-width=".435" d="M133.037 194.536c1.048-.875 2.47-1.11 3.686-.407"/><path stroke-width=".358" d="M136.723 194.129c1.902-1.158 3.248-2.973 5.497-3.623"/><path stroke-width=".623" d="M142.22 190.506c.146-1.2.24-2.322 1.312-3.092"/><path stroke-width=".569" d="M143.532 187.414c1.882-3.292 5.711-5.119 8.993-6.84"/><path stroke-width=".478" d="M152.528 180.574c2.388-1.748 4.727-3.807 7.681-4.31"/><path stroke-width="1.11" d="M160.209 176.265c.255-.199.521-.29.749-.373"/><path stroke-width=".639" d="M160.958 175.892c1.147-1.559 3.266-1.661 4.878-.939"/><path stroke-width=".343" d="M61.892 237.979c2.039-.667 3.383-2.642 5.498-3.124"/><path stroke-width=".298" d="M67.39 234.854c1.662-1.936 4.205-3.572 6.621-4.62"/><path stroke-width=".333" d="M77.383 227.609c-.632-.649-.673-1.847-1.5-2.248"/><path stroke-width=".307" d="M77.383 227.609c6.429-4.587 12.846-9.443 19.675-13.303"/><path stroke-width=".314" d="M97.058 214.307c2.354-2.105 5.179-3.946 7.87-5.622"/><path stroke-width=".3" d="M104.93 208.682c4.894-3.43 9.717-7.155 14.927-10.184"/><path stroke-width=".326" d="M119.857 198.501c2.397-1.701 5.314-5.255 8.397-4.523 2.074 2.62 3.716 5.58 5.719 8.146"/><path stroke-width=".273" d="M119.857 198.501c1.363 1.183 2.442 2.873 3.248 4.373"/><path stroke-width=".288" d="M104.93 208.682c1.63 1.339 2.066 3.71 3.56 5.061"/><path stroke-width=".31" d="M97.058 214.307c2.388 3.523 4.67 7.037 7.122 10.492"/><path stroke-width=".706" d="M91.249 248.599h.374"/><path stroke-width=".305" d="M91.624 248.599c16.681-12.372 33.994-23.688 50.973-35.231"/><path stroke-width=".299" d="M92.375 250.097a5007.402 5007.402 0 0 0 52.996-36.714c-.06-.252-.115-.702-.262-1.03-1.563-2.35-3.415-4.427-4.636-6.979"/><path stroke-width=".31" d="M140.47 205.373c-2.644-3.366-5.482-7.08-7.433-10.84"/><path stroke-width=".6" d="M160.958 175.892c.251.231.501.395.75.563"/><path stroke-width=".35" d="M142.22 190.506c1.53 2.488 3.694 4.379 5.122 6.866"/><path stroke-width=".333" d="M147.342 197.377c.557.253 1.035.688 1.495 1.083 3.87-.332 6.651-4.014 9.775-6.547 3.695-3.002 7.298-6.389 9.653-10.025"/><path stroke-width=".368" d="M140.47 205.373c.728-.433 1.33-1.051 1.692-1.807-.377-3.757-4.651-5.872-5.446-9.443"/><path stroke-width=".318" d="M81.505 67.016c4.263-1.56 6.44-6.247 9.37-9.556"/><path stroke-width=".744" d="M80.943 73.48c.553.423.884 1.002.999 1.406"/><path stroke-width=".476" d="M81.943 74.886c1.132-.176 1.77.909 2.749 1.217"/><path stroke-width=".526" d="M84.691 76.104c.636-.168 1.406-.17 1.911.319"/><path stroke-width=".764" d="M86.602 76.424c.735-.34 1.625-.266 2.399-.1"/><path stroke-width=".706" d="M89 76.324c.479-.198.768-.337 1.124-.5"/><path stroke-width=".462" d="M90.125 75.824c-.519-1.494.871-2.852 1.624-3.998"/><path stroke-width=".458" d="M91.749 71.826c.336-1.25 1.548-2.344 2.78-2.841"/><path stroke-width=".713" d="M94.529 68.984c.474-.402 1.031-.728 1.457-1.201"/><path stroke-width=".956" d="M95.985 67.782c-.029-.134-.04-.263-.051-.391"/><path stroke-width=".511" d="M95.934 67.391c-.679-.335-1.028-1.021-1.312-1.687"/><path stroke-width=".523" d="M94.623 65.704c-1.04-.296-1.934-.972-2.702-1.737-.099-.296-.1-.809-.087-1.188.36-.576.845-1.071 1.179-1.665.193-.054.548-.159.861-.281"/><path stroke-width=".731" d="M103.563 68.784c1.432-.056 2 1.278 2.488 2.354"/><path stroke-width=".652" d="M106.053 71.138c.53.513 1.012 1.108 1.688 1.437"/><path stroke-width=".594" d="M107.74 72.576a2.52 2.52 0 0 1 1.874-.125"/><path stroke-width=".666" d="M109.613 72.45c.575-.592 1.458-.738 2.251-.75"/><path stroke-width=".511" d="M111.864 71.7c.209-.525.767-.78 1.247-.999"/><path stroke-width=".476" d="M113.111 70.701c.465-.62 1.089-1.311 1.875-1.5"/><path stroke-width=".484" d="M114.986 69.202c.352-.869.578-1.859 1.373-2.374"/><path stroke-width=".333" d="M116.359 66.828c-.123-.872-.082-1.945.188-2.811"/><path stroke-width=".402" d="M117.11 60.082c-.383-10.899-1.732-21.963-2.718-32.7"/><path stroke-width=".373" d="M114.393 27.382c-7.96 9.118-23.441 11.328-34.012 4.966"/><path stroke-width=".502" d="M120.484 64.58c.432-1.918-1.496-4.09-3.374-4.498"/><path stroke-width=".394" d="M117.11 60.082c-.473 1.167-1.116 2.703-.562 3.936"/><path stroke-width=".408" d="M94.623 65.704c1.029-.151.801-1.421 1.326-2.049.781-.371 1.801-.03 2.518-.667"/><path stroke-width=".506" d="M98.464 62.988c-.788-1.667-2.718-2.965-4.592-2.156"/><path stroke-width=".294" d="M93.873 60.833c.276.39.352.661.454.914-.29.135-.396.528-.454.96"/><path stroke-width=".459" d="M81.131 66.454c.312-1.313-.145-2.773-.625-3.997"/><path stroke-width=".476" d="M95.934 67.391c1.097-1.303 2.107-2.521 3.936-2.561"/><path stroke-width=".592" d="M99.87 64.83c-.181-.78-.542-1.641-1.406-1.841"/><path stroke-width=".438" d="M116.359 66.828c.897-.033 1.755.222 2.623.375"/><path stroke-width=".301" d="M114.986 69.202c.643.591 1.854.437 2.124 1.375"/><path stroke-width=".326" d="M113.111 70.701c.715.667 1.767.667 2.416 1.46.23.936-.234 2.092.688 2.763"/><path stroke-width=".512" d="M116.21 74.924c2.713-2.271 6.616-6.851 4.274-10.344"/><path stroke-width=".455" d="M120.484 64.58c-1.328-.242-2.592-1.178-3.937-.562"/><path stroke-width=".436" d="M81.255 70.076c.884-.823.18-2.059.25-3.06"/><path stroke-width=".666" d="M81.505 67.016c-.205-.146-.292-.353-.374-.562"/><path stroke-width=".388" d="M81.131 66.454c-1.09-.476-1.882-1.356-3.091-1.592"/><path stroke-width=".577" d="M95.985 67.782c.785.162 1.63-.232 2.385.17"/><path stroke-width=".582" d="M98.371 67.952c1.276-.524 2.655.158 3.936-.187"/><path stroke-width=".557" d="M102.307 67.766c-.431-1.194-1.092-2.604-2.437-2.937"/><path stroke-width=".438" d="M80.905 72.676c.908-.654.843-1.73.351-2.599"/><path stroke-width=".357" d="M81.255 70.076c-1.522-1.071-3.14-2.961-5.372-1.748"/><path stroke-width=".521" d="M75.884 68.328c-1.106.802-1.61 2.426-1.125 3.748"/><path stroke-width=".666" d="M97.62 73.575c.625-.011 1.25-.159 1.875-.374"/><path stroke-width=".368" d="M99.495 73.2c.673-1.943-.805-3.594-1.124-5.249"/><path stroke-width=".738" d="M99.495 73.2c.568.126 1.07.386 1.562.687"/><path stroke-width=".455" d="M101.056 73.887c1.185-1.576 2.076-3.169 2.507-5.104"/><path stroke-width="1.006" d="M103.563 68.784c-.259-.373-.821-.653-1.259-1.018"/><path stroke-width=".726" d="M95.425 74.591c.453.097.954.092 1.446.107"/><path stroke-width=".657" d="M96.873 74.7c.25-.456.5-.793.75-1.125"/><path stroke-width=".387" d="M97.62 73.575c-.552-1.89-1.449-3.448-3.091-4.591"/><path stroke-width=".473" d="M102.118 79.571c.761 2.226-.738 4.235-1.668 6.133"/><path stroke-width=".583" d="M100.45 85.704c2.677 1.1 5.366-.777 6.104-3.321"/><path stroke-width=".436" d="M106.554 82.382c-1.258-.354-1.832 1.07-2.937 1.123"/><path stroke-width=".495" d="M106.554 82.382c1.144-1.136 2.041-2.628 1.749-4.31"/><path stroke-width=".374" d="M108.302 78.072c-1.5.386-2.8.953-4.122 1.687"/><path stroke-width=".849" d="M108.302 78.072c.07-.054.129-.121.188-.188"/><path stroke-width=".58" d="M108.49 77.885c-.137-1.057-.084-2.157-.374-3.186"/><path stroke-width=".323" d="M108.116 74.7a2.78 2.78 0 0 0-.966.12c-.575 1.494-2.166 2.189-3.156 3.252"/><path stroke-width=".369" d="M106.053 71.138c-.419 1.532-1.372 2.86-2.436 3.936"/><path stroke-width=".471" d="M113.27 76.386c.949-.132 1.845-.501 2.715-.938"/><path stroke-width=".798" d="M115.984 75.447c.081-.222.16-.375.231-.525"/><path stroke-width=".432" d="M76.54 78.165c.634-.968.608-2.159.716-3.257.205-.143.402-.316.586-.5 1.074-.247 2.019-.699 3.101-.928"/><path stroke-width=".956" d="M80.943 73.48a7.911 7.911 0 0 0-.038-.806"/><path stroke-width=".413" d="M80.905 72.676c-1.487-1.183-3.767-2.076-5.396-.6"/><path stroke-width=".726" d="M90.125 75.824c.386-.003.664.029.936.063"/><path stroke-width=".567" d="M91.062 75.886c.391-.72 1.082-1.253 1.969-1.094"/><path stroke-width=".455" d="M95.249 74.323c.582-2.24-2.154-2.125-3.499-2.498"/><path stroke-width=".379" d="M109.613 72.45c.101 1.234 1.106 2.153 1.125 3.373"/><path stroke-width=".508" d="M107.74 72.576c-.342.729.115 1.451.375 2.124"/><path stroke-width=".473" d="M108.49 77.885c1.786.285 3.458-.533 4.777-1.498"/><path stroke-width=".463" d="M113.27 76.386c.036-1.751-.164-3.371-1.405-4.686"/><path stroke-width=".538" d="M96.873 74.7c.619.595 1.292 1.13 1.874 1.874"/><path stroke-width=".394" d="M98.745 76.573c.39-.166.694-.021 1.125 0"/><path stroke-width=".456" d="M98.84 78.727c1.094.378 2.063 1.062 3.28.843"/><path stroke-width=".514" d="M102.118 79.571c.508-1.941-.553-3.846-1.062-5.684"/><path stroke-width=".596" d="M76.54 78.165c.589 2.441 2.887 3.578 4.591 5.153"/><path stroke-width=".696" d="M81.131 83.319c1.613.271 3.242.538 4.872.75"/><path stroke-width=".342" d="M86.003 84.069c-.704-2.544-1.812-5.451.599-7.645"/><path stroke-width=".373" d="M84.691 76.104c.242 1.223-1.129 1.095-1.796 1.425-.702 1.396.215 2.85.109 4.291"/><path stroke-width=".361" d="M81.943 74.886c-1.104.864-2.487 1.438-2.772 2.987.364.802.566 1.915 1.209 2.446"/><path stroke-width=".393" d="M93.031 74.793c-.537 1.955.006 3.713.468 5.527"/><path stroke-width=".321" d="M91.062 75.886c-.399 1.532-.901 3.124-.45 4.698.126.126.24.26.355.395.336.038.506.243.657.466"/><path stroke-width=".362" d="M89 76.324c-.441.989-1.147 1.769-1.296 2.865.199 1.208.892 2.127 1.672 3.006"/><path stroke-width=".797" d="M86.003 84.069c1.04.018 2.111-.175 3.079.322"/><path stroke-width=".541" d="M89.082 84.391c2.703-1.019 5.583-1.904 7.791-3.693"/><path stroke-width=".322" d="M96.873 80.696c-.915-1.876-2.706-3.999-1.446-6.104"/><path stroke-width=".849" d="M95.425 74.591l-.178-.268"/><path stroke-width=".555" d="M95.249 74.323c-.812-.353-1.615-.155-2.218.469"/><path stroke-width=".577" d="M96.873 80.696c.538-.16.956-.173 1.249-.25"/><path stroke-width=".533" d="M98.12 80.445c-.055-.687.299-1.205.718-1.718"/><path stroke-width=".726" d="M98.84 78.727c-.162-.705-.065-1.437-.094-2.156"/><path stroke-width=".314" d="M94.997 87.816c-.012.755.088 1.531-.188 2.249"/><path stroke-width=".652" d="M94.811 90.065c.125.272.25.603.374.936"/><path stroke-width=".924" d="M95.185 91c4.393-.549 8.939-.459 13.305-1.436"/><path stroke-width=".387" d="M98.12 80.445c.715.561 1.179 1.568 2.124 1.75"/><path stroke-width=".739" d="M89.082 84.391c.132.793.773 1.287 1.168 1.926"/><path stroke-width=".565" d="M90.25 86.317c1.196.07 1.989 1.2 3.248.938"/><path stroke-width=".423" d="M93.499 87.254c-.099-.732-.557-1.291-.936-1.874"/><path stroke-width=".717" d="M93.499 87.254c.387.217.836.427 1.498.562"/><path stroke-width=".637" d="M94.997 87.816c.771-.193 1.683-.062 2.25-.75"/><path stroke-width=".285" d="M97.247 87.067c-.629-.993-1.624-1.645-2.25-2.622"/><path stroke-width=".566" d="M97.247 87.067c1.063-.147 1.802-.993 2.812-1.312"/><path stroke-width=".344" d="M100.058 85.755c-.797-.989-2.333-1.159-2.812-2.436"/><path stroke-width=".956" d="M100.058 85.755c.127-.006.26-.029.392-.051"/><path stroke-width=".53" d="M90.25 86.317c-.234 1.095-.633 2.299-.5 3.374"/><path stroke-width=".363" d="M94.811 90.065c-1.14.213-1.95-1.63-3.084-.643-.165.622-.57 1.211-1.225 1.393"/><path stroke-width=".548" d="M90.687 93.876c-.208 1.203.878 1.928 1.312 2.935"/><path stroke-width=".553" d="M94.872 91.315c-1.986.044-2.655 1.759-4.186 2.562"/><path stroke-width=".592" d="M91.999 96.81c.406 1.011.931 2.228 2.156 2.342"/><path stroke-width=".372" d="M94.155 99.152c.468-.807.814-1.85 1.592-2.342"/><path stroke-width=".342" d="M95.747 93.812c-.713.64-1.836.102-2.523.849-.387.74-.232 1.917-1.224 2.148"/><path stroke-width=".304" d="M152.528 180.574c.118.255.227.521.373.749"/><path stroke-width=".403" d="M152.901 181.323c2.693-.87 5.955-2.616 7.308-5.059"/><path stroke-width=".328" d="M143.532 187.414c3.314-1.12 6.97-3.529 9.369-6.091"/><path stroke-width=".719" d="M75.884 259.091"/><path stroke-width=".307" d="M75.884 259.091c5.215-3.351 10.353-6.791 15.365-10.495"/><path stroke-width=".305" d="M91.249 248.599c-4.479-7.227-9.137-13.963-13.866-20.989"/><path stroke-width=".719" d="M77.383 227.609"/><path stroke-width=".311" d="M77.383 227.609c-1.162.853-2.638 1.392-3.374 2.621"/><path stroke-width=".325" d="M74.009 230.234c1.339 1.568 2.236 3.517 3.374 5.245"/><path stroke-width=".337" d="M67.39 234.854c2.88 3.2 4.634 7.481 7.37 10.744"/><path stroke-width=".36" d="M92.375 250.097a8.388 8.388 0 0 1-.75-1.498"/><path stroke-width=".398" d="M75.884 259.091c.549.418.805 1.061 1.03 1.687"/><path stroke-width=".297" d="M76.915 260.777c5.31-3.136 10.771-6.777 15.459-10.681"/><path stroke-width=".308" d="M-40.548 328.677c24.51-16.26 48.488-32.537 73.52-48.127"/><path stroke-width=".302" d="M32.972 280.547c-.675-2.19-2.506-4.021-3.748-5.902"/><path stroke-width=".305" d="M29.224 274.645c-24.808 14.794-47.858 31.812-71.771 47.785"/><path stroke-width=".351" d="M27.413 272.333c-.93-2.062-2.108-4.017-3.625-5.745"/><path stroke-width=".304" d="M-45.794 320.805c24.37-16.414 48.206-32.823 73.207-48.472"/><path stroke-width=".392" d="M-40.548 328.677c-2.126-2.216-3.968-4.995-5.247-7.866"/><path stroke-width=".33" d="M-45.794 320.805c-1.494-1.374-2.586-3.332-3.373-5.247"/><path stroke-width=".348" d="M106.615 24.104c.878.429 1.494-.902 2.25-.374"/><path stroke-width=".338" d="M94.997 52.586c3.394-3.832 4.283-9.036 6.372-13.491"/></g></svg>