<svg version="1.1" xmlns="http://www.w3.org/2000/svg" x="0" y="0" width="326.984" height="345.255" viewBox="0 0 326.984 345.255" xml:space="preserve"><g fill-rule="evenodd" clip-rule="evenodd"><path d="M233.258 173.059c-.624-.65-2.209-.342-2.37-1.458.667-.067 2.515.122 2.37 1.458zM235.083 308.565c.034-.155-.069-.171-.183-.182l-.091-.639-.638-.091c.623-.958 1.097-2.065 1.823-2.919l.456.639.64.456c-.056 1.282-.735 1.941-.913 3.101l-.455-.456-.639.091zM219.582 309.295c-.459.204 2.788.009 1.642 1.095-.608.574-3.262-.378-1.642-1.095zM226.693 316.043c-.699-.709-1.16-1.162-2.371-.547-.875-2.225 4.166-1.137 2.371.547zM74.773 340.117c-1.196-.29-1.439-1.905-2.917-.912-.126-2.799 3.626-.55 2.917.912z"/><g fill="none" stroke="#000" stroke-linecap="round"><path d="M.5 67.189c7.293-4.616 17.565-11.503 25.802-16.804 16.967-10.922 33.651-26.002 51.08-31.576 13.516-4.323 26.649-2.785 39.181-5.9.355-.088.773-.053 1.125-.186 4.999-1.884 8.331-7.4 11.708-12.223M254.689 115.52c1.697-8.315 2.725-16.718 2.827-25.351M56.444 118.802c-.6-7.318-2.533-14.333-4.651-21.248M297.658 159.136c5.495-3.467 11.359-6.513 17.216-9.056M238.32 242.5c-.318 2.288.723 6.668.799 9.737.047 1.867 1.119 5.34.893 6.659-.34 1.951-3.958 5.907-6.317 9.219-3.308 4.641-7.012 9.375-8.586 13.727-2.885 7.979-4.89 16.953-6.967 25.222-.633 2.521-2.838 8.938 1.759 9.163M177.251 186.026c7.212 5.252 13.185 11.25 21.885 14.072 6.923 2.247 16.98 4.371 25.76 2.299 3.111-.732 5.246-1.484 8.932-2.845M233.828 199.553c3.38-2.696 7.435-5.432 9.752-7.654 7.254-6.95 10.056-15.459 11.589-23.972 1.515-8.419-.065-18.533-.017-28.299.025-5.157-.143-10.176-.332-14.758M254.82 124.87c-1.314-2.471-1.248-5.729-2.502-8.439M254.82 124.87c1.527-6.586 1.046-14.054 5.009-19.945M259.829 104.924c.296-1.313 1.111-2.455 1.863-3.558M233.828 199.553c1.482 14.268 2.007 28.861 4.492 42.947M238.32 242.5c8.348-7.525 15.738-13.862 21.4-22.771 4.502-7.081 7.877-14.501 10.507-22.65 5.029-15.593 14.989-27.38 27.431-37.942"/><path d="M297.658 159.136c-9.141-10.291-17.134-24.695-24.976-39.519-3.456-6.53-6.169-13.277-12.854-14.693M69.002 320.603c.066 2.216 1.565 6.272 4.059 8.608 4.548 4.258 6.479 10.211 4.504 14.614-1.349 3.008-4.549-2.188-6.531-2.862M71.035 340.963c-4.037.08-8.709-1.167-11.843-3.467M59.191 337.496c-3.24-.352-4.157-4.125-6.577-5.651M52.614 331.845c-6.024.092-11.61-4.944-15.221-10.771-4.649-7.505-9.019-17.002-12.91-26.375-3.969-9.563-9.379-16.453-14.216-25.794-2.108-4.073-4.702-7.386-6.288-10.523M52.614 331.845c-1.546-3.205-3.995-6.157-5.927-9.236M59.191 337.496c2.287-.696 4.918-.799 6.873-2.349M66.064 335.147c-4.298-4.729-8.917-10.928-11.758-16.341-.273-.521-.231-.854-.46-.967-.339-.165-5.02.992-5.426.301M69.002 320.603c-2.612-3.578-5-7.381-7.999-10.67M83.087 322.034c-.858-2.059 1.423-3.055 3.085-2.557M59.147 265.649c-1.107-.841-2.625-3.402-4.034-4.816-3.054-3.066-7.277-5.555-10.856-8.588-2.181-1.847-4.62-3.945-6.156-5.641-3.915-4.324-6.856-10.214-10.218-15.575-9.84-15.701-19.229-31.522-26.639-46.875M.72 153.437c17.552-13.268 35.049-26.487 52.494-39.859M53.213 113.578c-.236-1.237-.824-2.367-1.51-3.439M53.213 113.578c2.29 4.2 1.973 9.193 2.43 13.825M55.643 127.403c1.757-1.989 2.062-5.171 3.811-7.324M55.643 127.403c-.249 12.428-2.989 24.829-.794 37.221M54.849 164.624c1.443 1.558 1.905 4.478 3.083 6.691 6.418 12.054 16.401 20.809 27.993 24.017 12.275 3.399 24.513-.478 36.228-6.263"/><path d="M54.849 164.624c-.966 2.568 1.02 8.244 1.628 10.846.935 3.992 1.908 7.729 2.998 11.292 2.033 6.644 5.083 12.57 6.385 18.787 1.393 6.656 1.044 13.193-.695 21.168-2.159 9.908-4.961 19.263-5.349 31.025-.087 2.646-.053 6.374-.67 7.908M59.147 265.649c.766 6.96 1.606 14.409 4.079 21.261a122.572 122.572 0 0 1 1.539 4.535c.642 2.027.772 4.461 1.55 6.048 1.292 2.634 3.827 4.804 5.499 7.073.846 1.148 1.503 2.305 2.344 3.307 2.211 2.635 5.944 4.771 8.832 5.624 1.912.564 8.774 2.751 6.271 6.283-.921 1.299-4.812 1.836-6.174 2.254M83.087 322.034c-4.702 1.476-10.095 1.738-14.085-1.432M71.035 340.963c-1.01-2.271-3.247-4.01-4.971-5.815M91.07 167.458c-1.434.403-1.85 3.282-.112 3.202-.017-.437-.125-1.004.505-1.095.174.032.245.01.362-.062M231.344 168.226c1.262-.246 2.774.208 3.465 1.277M230.979 179.169c1.03.013 2.139.003 2.98-.669M234.809 307.745c-1.999 3.399-5.186 7.557-7.836 11.773-.714 1.135-1.737 2.981-2.816 3.319-2.496.784-3.857-.867-3.537-3.202.699-5.06 6.035-13.41 8.762-18.918 2.091-4.222 4.484-8.598 4.151-13.217M236.451 305.374c2.107-3.798 3.161-8.021 4.378-12.128M235.722 308.475c-.429 2.169-2.218 3.826-2.589 5.967 3.726-.822 7.925-3.455 10.233-6.65M243.367 307.791c-1.756-.344-3.186 1.181-4.91 1.23M243.367 307.791c1.02-.643 1.995-1.38 3.114-1.844M246.481 305.947c1.562-2.969 2.976-6.087 4.074-9.267M246.481 305.947c.217.088.51.232.763.355M247.244 306.303c3.084-1.274 7.668-2.998 9.015-5.604.922-1.782 1.083-3.746 1.421-5.949.656-4.314 1.712-8.504 2.776-13.2 2.156-9.509 5.529-16.113 9.737-25.028.374-.793 1.002-1.587 1.771-2.59 5.125-6.7 9.769-13.214 16.133-19.074 8.065-7.426 17.838-16.805 26.467-24.91 3.857-3.622 8.762-7.192 11.92-10.353M247.244 306.303c-.2 7.863-1.614 15.68-2.525 23.51M219.672 18.069c7.411-.214 15.149.699 22.376 2.281 9.611 2.104 16.84 4.894 23.69 10.035 5.034 3.778 10.002 8.107 15.085 12.59 11.075 9.769 18.879 23.396 29.357 35.124 4.217 4.721 11.245 12.22 15.088 17.632"/><path d="M87.266 166.403c2.561-2.33 6.055-2.902 7.521.483.554 1.28.524 2.507 1.087 4.002.092-.005.163-.023.231-.042.669-1.522.079-3.057-.571-4.505M91.643 175.794c-1.818.077-3.681.118-4.808-2.087-.53-1.036-.61-3.483-.355-3.648 1.174-.756 1.422 1.905 2.174 2.729 1.22 1.333 3.633 1.32 4.356-.276M227.028 176.068c-.223 1.145.871 2.047 1.764 2.553M227.028 176.068c-1.011-2.276-.255-5.581 2.037-6.657M227.028 176.068c1.404-.237 1.57 1.004 2.857 1.368M231.344 176.433c-3.258-.132-3.212-4.377-.911-5.653"/></g></g></svg>