<svg version="1.1" id="Layer_1" xmlns="http://www.w3.org/2000/svg" x="0" y="0" viewBox="0 0 595.3 425.2" xml:space="preserve"><style type="text/css">.st0{fill:#231f20}.st1{fill:#fff}</style><path class="st0" d="M462.2 269h1.5c.5 0 1.1.1 1.8.2s1.4.2 2.3.4c.8.2 1.7.4 2.6.7.5.1.9.3 1.4.4l1.5.6c1 .4 2 .9 3 1.3 1 .5 2 1 2.9 1.6s1.9 1.2 2.8 1.8c.9.7 1.8 1.3 2.6 1.9.8.7 1.6 1.3 2.3 2l1.9 1.9c.6.6 1.1 1.1 1.6 1.7.4.5.8 1 1.1 1.3.6.8 1 1.2 1 1.2l-1.1-1.1c-.3-.4-.8-.8-1.2-1.3l-1.6-1.6c-.6-.6-1.3-1.2-2-1.8-.7-.6-1.5-1.3-2.3-1.9-.8-.7-1.7-1.3-2.6-1.9-.9-.7-1.8-1.2-2.8-1.9-.9-.6-1.9-1.1-2.9-1.6s-2-1-2.9-1.3c-.5-.2-1-.4-1.4-.6-.5-.2-.9-.3-1.4-.5-.9-.3-1.8-.5-2.6-.7-.8-.2-1.6-.3-2.2-.4-.7-.1-1.3-.2-1.8-.2-.9-.2-1.5-.2-1.5-.2zM226.3 117.2s-.2.2-.6.5c-.4.4-1.1.9-1.8 1.6-1.6 1.4-3.8 3.7-6.1 6.8-2.4 3.2-4.9 7.3-6.9 12.5-2 5.1-3.3 11.3-3.3 18.1s1.5 14.2 4.8 21.2 8.4 13.8 15.2 18.8c.9.6 1.7 1.3 2.6 1.9.9.6 1.8 1.1 2.8 1.7.5.3.9.6 1.4.8l1.5.7c1 .5 1.9 1 2.9 1.4s2.1.7 3.1 1.1c.5.2 1 .4 1.6.5l1.6.4c1.1.3 2.1.6 3.2.8 1.1.2 2.2.3 3.3.5l1.7.2 1.7.1c1.1.1 2.2.1 3.3.2 1.1 0 2.2-.1 3.4-.2l1.7-.1c.6 0 1.1-.2 1.7-.2l3.3-.5c1.1-.2 2.2-.5 3.3-.8l1.6-.4c.5-.2 1.1-.4 1.6-.6l3.2-1.2c8.3-3.6 15.7-9.3 20.9-16.5 5.4-7.1 8.5-15.6 9.6-23.9.2-1 .2-2.1.3-3.1 0-1 .1-2.1.1-3.1-.1-1-.1-2.1-.2-3.1s-.1-2.1-.3-3.1c-.3-2-.5-4-1.1-5.9-.2-1-.5-1.9-.7-2.9-.3-.9-.7-1.8-1-2.8-2.7-7.3-6.9-13.5-11.8-18.2-4.8-4.7-10.2-8.2-15.2-10.4-1.2-.6-2.5-1-3.7-1.4-.6-.2-1.2-.5-1.8-.6-.6-.2-1.2-.3-1.8-.5-1.2-.3-2.3-.6-3.3-.8-1.1-.2-2.1-.3-3.1-.5-.5-.1-1-.2-1.4-.2-.5 0-.9 0-1.4-.1-.9 0-1.7-.1-2.5-.1-1.5-.1-2.8 0-3.9 0-2.1.1-3.2.3-3.2.3s1.1-.2 3.2-.3c1.1 0 2.4-.1 3.9 0 .8 0 1.6.1 2.5.1.4 0 .9 0 1.4.1s.9.1 1.4.2c1 .1 2 .3 3.1.5s2.2.5 3.3.8c.6.1 1.2.3 1.8.5.6.1 1.2.4 1.8.6 1.2.5 2.5.8 3.8 1.4 5.1 2.1 10.5 5.6 15.4 10.3 4.9 4.7 9.2 11 12 18.3.3.9.7 1.8 1 2.8s.5 1.9.8 2.9c.6 1.9.8 4 1.1 6 .2 1 .2 2 .3 3.1.1 1 .1 2.1.2 3.1 0 1.1-.1 2.1-.1 3.2-.1 1.1-.1 2.1-.3 3.2-1.1 8.4-4.2 17-9.7 24.1-5.3 7.3-12.8 13-21.1 16.6l-3.2 1.2c-.5.2-1.1.4-1.6.6l-1.7.4c-1.1.3-2.2.6-3.3.8l-3.4.5c-.6.1-1.1.2-1.7.2l-1.7.1c-1.1.1-2.2.1-3.4.2-1.1-.1-2.3-.1-3.4-.2l-1.7-.1-1.7-.3c-1.1-.2-2.2-.3-3.3-.5-1.1-.3-2.2-.6-3.2-.8l-1.6-.4c-.5-.2-1-.4-1.6-.6-1-.4-2.1-.8-3.1-1.1-1-.4-2-.9-3-1.4l-1.5-.7c-.5-.2-.9-.6-1.4-.8-.9-.6-1.8-1.1-2.8-1.7-.9-.6-1.7-1.3-2.6-1.9-6.8-5.1-11.9-11.9-15.2-19s-4.8-14.5-4.8-21.3 1.3-13 3.3-18.2 4.5-9.3 6.9-12.5 4.6-5.4 6.2-6.8c.8-.7 1.4-1.2 1.8-1.6.3-.4.5-.6.6-.5z"/><path class="st0" d="M244.6 158.7s0 .4.1 1.2c0 .4.1.9.2 1.4 0 .3.1.6.1.9.1.3.2.6.3 1 .4 1.4 1 3.1 2.2 4.8 1.1 1.7 2.7 3.4 4.8 4.8 2.1 1.4 4.7 2.4 7.5 2.7s5.9-.1 8.7-1.4c1.4-.6 2.7-1.5 4-2.5 1.2-1 2.3-2.3 3.2-3.6.9-1.4 1.6-2.9 2.1-4.4.5-1.6.7-3.2.7-4.9s-.3-3.3-.7-4.9c-.5-1.6-1.2-3.1-2.1-4.4-.9-1.3-2-2.5-3.2-3.6-1.2-1-2.6-1.9-4-2.5-2.8-1.3-5.9-1.6-8.7-1.3-2.8.3-5.4 1.3-7.4 2.7-2.1 1.4-3.6 3.1-4.8 4.7-1.1 1.7-1.8 3.3-2.2 4.7-.1.4-.2.7-.3 1s-.1.6-.2.9c-.1.6-.2 1-.2 1.4-.1.9-.1 1.3-.1 1.3zm0 0s0-.4.1-1.2c0-.4.1-.9.2-1.4 0-.3.1-.6.1-.9.1-.3.2-.7.3-1 .4-1.4 1-3.1 2.1-4.8s2.7-3.5 4.8-4.9 4.7-2.5 7.6-2.8c2.9-.4 6 .1 8.9 1.4 1.5.6 2.8 1.5 4.1 2.5 1.3 1.1 2.3 2.3 3.3 3.7.9 1.4 1.6 2.9 2.1 4.5s.7 3.3.7 5-.3 3.4-.8 5-1.2 3.1-2.1 4.5-2 2.6-3.3 3.6-2.6 1.9-4.1 2.5-2.9 1.1-4.5 1.3c-.8.1-1.5.1-2.2.2-.7 0-1.5 0-2.2-.1-2.9-.4-5.5-1.4-7.5-2.8-2.1-1.4-3.6-3.2-4.8-4.9-1.1-1.7-1.8-3.4-2.1-4.8-.1-.4-.2-.7-.3-1s-.1-.6-.1-.9c-.1-.6-.2-1-.2-1.4-.1-.9-.1-1.3-.1-1.3zM132.2 181l2.5-5.3c.9-1.7 1.8-3.5 2.8-5.2 2-3.4 4.1-6.7 6.4-9.8l1.8-2.3c.6-.8 1.3-1.5 1.9-2.3 1.2-1.5 2.6-2.9 3.9-4.4 1.3-1.4 2.8-2.8 4.1-4.1 1.5-1.3 2.9-2.6 4.4-3.9l2.3-1.9c.8-.6 1.6-1.2 2.3-1.8 1.5-1.2 3.2-2.3 4.8-3.4 3.3-2.1 6.6-4.1 10.1-5.9 6.9-3.6 14.2-6.5 21.7-8.8 3.7-1.1 7.5-2.1 11.4-2.8 1.9-.4 3.9-.6 5.8-.9 1.9-.3 3.9-.6 5.8-1s3.8-.7 5.7-1.3l2.8-.7c.9-.3 1.9-.6 2.8-.9 1.9-.5 3.7-1.3 5.5-2 1.8-.8 3.6-1.6 5.3-2.6 3.4-1.9 6.6-4.2 9.3-7 2.7-2.8 4.8-6.2 6-9.9.6-1.9 1-3.8 1.2-5.7.2-1.9.1-3.9 0-5.8-.4-3.9-1.5-7.7-3.2-11.2-.2-.6-.5-1.2-1-1.8-.2-.3-.5-.5-.7-.7-.3-.2-.5-.4-.9-.6-.3-.1-.6-.3-.9-.4-.3-.1-.6-.2-1-.3-.3-.1-.7-.1-1-.2l-1-.1h-1c-.3 0-.7 0-1 .1-.7.1-1.4.2-2.1.4-.7.2-1.4.3-2 .5l-2 .7c-5.5 1.2-10.9 2.3-16.4 3.3-2.8.5-5.5.9-8.3 1.3l-2.1.3c-.7.1-1.4.2-2.1.2l-4.2.3c-2.9-.8-6-1.4-9-1.6-3.1-.3-6.1-.3-9.2 0-3 .3-6 1.1-8.8 2.3-.7.3-1.4.6-2 1-.7.4-1.3.8-1.9 1.2-.6.5-1.2.9-1.8 1.4s-1.1 1.1-1.6 1.6c-3 1.4-6 2.6-9.1 3.6s-6.2 1.9-9.4 2.5c-3.2.5-6.4 1.2-9.5 2-1.6.4-3.1.8-4.7 1.2-1.6.4-3.1.8-4.7 1.3l-4.7 1.4-4.6 1.5c-3.1.9-6.1 2.1-9.2 3.1-1.5.5-3.1 1.1-4.6 1.7l-4.5 1.7c-3 1.1-6 2.5-9 3.7l-2.2.9-2.2 1-4.4 2c-3 1.3-5.9 2.8-8.8 4.2l-4.4 2.2c-1.5.7-2.9 1.5-4.3 2.3-2.8 1.6-5.7 3-8.5 4.7l-8.4 5c-1.4.8-2.8 1.7-4.1 2.6l-4.1 2.6-4.1 2.6c-1.3.9-2.7 1.9-4 2.8l-7.9 5.6 7.9-5.7c1.3-.9 2.6-1.9 4-2.8l4.1-2.7 4.1-2.7c1.4-.9 2.7-1.8 4.1-2.6l8.4-5c2.8-1.7 5.7-3.1 8.5-4.7 1.4-.8 2.8-1.6 4.3-2.3l4.4-2.2c2.9-1.5 5.8-2.9 8.8-4.2l4.4-2 2.2-1 2.2-.9c3-1.2 6-2.6 9-3.7l4.5-1.8c1.5-.6 3-1.2 4.6-1.7 3.1-1.1 6.1-2.2 9.2-3.2 1.5-.5 3.1-1 4.6-1.5l4.7-1.4c1.6-.5 3.1-.9 4.7-1.3s3.1-.8 4.7-1.2c3.2-.8 6.3-1.5 9.5-2 3.2-.6 6.3-1.4 9.4-2.4 3.1-1 6.1-2.2 9-3.6l-.1.1c.6-.5 1.1-1.1 1.7-1.6.6-.5 1.2-1 1.8-1.4s1.3-.9 2-1.2c.7-.4 1.4-.7 2.1-1 2.8-1.3 5.9-2 9-2.3s6.2-.3 9.3 0 6.1.8 9.1 1.7h-.1c1.4-.1 2.8-.1 4.2-.3.7-.1 1.4-.1 2.1-.2l2.1-.3c2.8-.4 5.5-.8 8.3-1.3 5.5-1 11-2.1 16.4-3.3l2-.7 2.1-.6c.7-.2 1.4-.3 2.1-.4.3-.1.7-.1 1.1-.1.4 0 .7-.1 1.1 0l1.1.1c.4 0 .7.1 1.1.2.4 0 .7.2 1 .3.4.1.7.3 1 .4s.6.4.9.6c.3.3.6.5.8.8.5.6.9 1.2 1.1 1.9 1.7 3.5 2.7 7.4 3.2 11.3.2 2 .2 3.9 0 5.9s-.6 3.9-1.2 5.8c-1.2 3.7-3.4 7.2-6 10-2.7 2.9-5.9 5.2-9.4 7-1.7 1-3.5 1.7-5.3 2.6-1.8.7-3.6 1.5-5.5 2-.9.3-1.9.6-2.8.9l-2.8.7c-1.9.5-3.8.9-5.7 1.3s-3.9.6-5.8 1c-1.9.3-3.9.5-5.8.9-3.8.7-7.6 1.7-11.4 2.8-7.5 2.2-14.8 5.1-21.7 8.7-3.5 1.8-6.8 3.8-10.1 5.9-1.6 1.1-3.2 2.2-4.8 3.4-.8.6-1.6 1.2-2.3 1.8l-2.3 1.8c-1.5 1.2-2.9 2.6-4.4 3.8-1.4 1.4-2.8 2.7-4.2 4.1-1.3 1.4-2.7 2.8-3.9 4.4-.6.7-1.3 1.5-1.9 2.2l-1.8 2.3c-2.4 3.1-4.5 6.4-6.4 9.8-1 1.7-1.8 3.4-2.8 5.2l-3.5 5.4z"/><path class="st0" d="M426.6 158.7c-1.5-.4-3-.6-4.6-.8-1.5-.2-3.1-.3-4.7-.2-.8 0-1.6 0-2.3.1-.8.1-1.6.1-2.3.2-.8.1-1.5.2-2.3.3s-1.5.3-2.3.5c-.2-1.3-.7-2.6-1.3-3.8-.4-.6-.7-1.2-1.1-1.7l-.6-.8-.7-.7c-2-1.9-4.6-3-7.2-3.5l-2-.3-2-.1h-1c-.3 0-.7.1-1 .1l-2 .2c-2.7.4-5.4 1-8 1.8-2.6.7-5.2 1.7-7.7 2.8s-5 2.2-7.5 3.4l-3.7 1.8-3.6 1.9c-2.4 1.3-4.8 2.7-7.1 4-2.3 1.4-4.7 2.8-7 4.3s-4.6 2.9-6.9 4.5-4.6 3-6.8 4.6l-6.7 4.8-6.5 5c-2.2 1.6-4.3 3.4-6.4 5.1l-3.2 2.6-3.1 2.6-6.3 5.3-16.7 10c-7.5 2-15 3.9-22.5 5.7s-15.1 3.6-22.7 5.3l-5.7 1.2-6.1 1.1-5.7 1.1c-1.9.4-3.8.7-5.7 1.1-1.9.4-3.8.7-5.7 1s-3.8.7-5.7.9l-5.8.8-5.8.7h-.2c-3.5-1.6-6.7-3.5-10-5.5-3.2-2-6.3-4.2-9.3-6.6-1.5-1.2-2.9-2.4-4.3-3.7l-2.1-1.9-2-2c-1.3-1.4-2.6-2.7-3.8-4.2-.6-.7-1.2-1.4-1.8-2.2-.6-.7-1.2-1.5-1.7-2.3s-1.1-1.5-1.6-2.3l-1.5-2.4c-.9-1.6-1.9-3.3-2.7-5-.9-1.7-1.6-3.4-2.3-5.2-.6-1.8-1.3-3.6-1.7-5.4-.6-1.8-.9-3.7-1.2-5.5l-.4-2.8c-.1-.5-.1-.9-.2-1.4l-.1-1.4c0-.9-.1-1.9-.1-2.8l.1-2.8c0-.9.1-1.9.2-2.8l.3-2.8-.2 2.8c-.1.9-.2 1.9-.2 2.8v2.8c0 .9.1 1.9.1 2.8l.1 1.4c0 .5.1.9.2 1.4l.4 2.8c.4 1.8.7 3.7 1.3 5.5.5 1.8 1.1 3.6 1.8 5.4.7 1.7 1.4 3.5 2.3 5.2.8 1.7 1.8 3.3 2.7 4.9l1.5 2.4c.5.8 1.1 1.5 1.6 2.3s1.1 1.5 1.7 2.2c.6.7 1.2 1.5 1.8 2.2 1.2 1.4 2.5 2.8 3.8 4.2l2 2 2.1 1.9c1.4 1.2 2.9 2.5 4.3 3.6 3 2.3 6.1 4.5 9.3 6.5s6.5 3.8 9.9 5.4h-.1l5.8-.7 5.8-.8 5.7-.9c1.9-.3 3.8-.6 5.7-1s3.8-.7 5.7-1.1l5.7-1.1 5.7-1.2 5.7-1.2c7.6-1.7 15.1-3.4 22.7-5.2 7.5-1.8 15.1-3.7 22.5-5.7l16.7-10 6.3-5.3 3.1-2.6 3.2-2.6c2.2-1.7 4.3-3.5 6.4-5.1l6.5-5 6.7-4.8c2.2-1.6 4.5-3.1 6.8-4.6 2.2-1.6 4.6-3 6.9-4.5s4.7-2.8 7-4.3c2.4-1.4 4.7-2.7 7.2-4l3.6-1.9 3.7-1.8c2.5-1.2 5-2.3 7.5-3.4 2.5-1 5.1-2.1 7.7-2.8 2.6-.8 5.3-1.4 8-1.8l2-.2c.3 0 .7-.1 1-.1h1l2.1.1 2 .3c2.7.5 5.3 1.7 7.3 3.6l.7.7.6.8c.5.5.8 1.1 1.1 1.7.6 1.2 1.1 2.5 1.3 3.9h-.1c.8-.1 1.5-.3 2.3-.5.8-.1 1.5-.2 2.3-.3s1.5-.1 2.3-.2c.8 0 1.6-.1 2.3-.1 1.6 0 3.1.1 4.7.3 1.7.4 3.3.6 4.8 1z"/><path class="st0" d="M408.1 158.7c.1.5 0 .9-.1 1.4-.1.4-.3.9-.5 1.3s-.5.8-.7 1.2c-.3.4-.5.8-.8 1.1l-.9 1-1 1c-.3.3-.7.6-1 .9-.4.3-.7.6-1.1.9-.7.6-1.5 1.1-2.2 1.6l-1.1.8c-.4.3-.8.5-1.2.7-.8.5-1.6 1-2.4 1.4l-2.4 1.4-8.1 7.8c-2.7 2.6-5.3 5.3-8 8l-7.8 8.1c-2.6 2.7-5.1 5.5-7.6 8.3-1.3 1.4-2.5 2.8-3.8 4.2l-3.7 4.2-3.6 4.3c-1.2 1.4-2.4 2.9-3.6 4.4s-2.4 2.9-3.5 4.4-2.3 3-3.3 4.5l-3.2 4.6-2.9 4.8 2.8-4.9c1-1.6 2.1-3.1 3.1-4.7s2.2-3 3.3-4.6c1.1-1.5 2.3-3 3.4-4.5 1.2-1.5 2.3-3 3.5-4.4l3.6-4.3 3.7-4.2c1.2-1.4 2.5-2.8 3.8-4.2 2.5-2.8 5.1-5.5 7.7-8.2s5.2-5.4 7.9-8.1c2.6-2.7 5.3-5.3 8-7.9 2.7-2.6 5.4-5.2 8.2-7.8l2.4-1.3c.8-.4 1.6-.9 2.4-1.4.4-.2.8-.5 1.2-.7l1.1-.8c.8-.5 1.5-1.1 2.2-1.6.4-.3.7-.6 1.1-.9.3-.3.7-.6 1-.9l1-1 .9-1c.3-.3.6-.7.8-1.1.2-.4.5-.8.7-1.2s.4-.8.5-1.3c.2-.4.2-.9.2-1.3zM426.6 158.7c1.8.6 3.5 1.3 5.2 2.2 1.7.8 3.3 1.7 4.9 2.8 1.5 1 3 2.2 4.2 3.7.6.7 1.1 1.5 1.5 2.4s.6 1.8.6 2.7c0 .5-.1.9-.1 1.4-.1.4-.2.9-.5 1.3l-.3.6-.4.6c-.2.4-.5.8-.8 1.1-.6.7-1.4 1.3-2.1 1.9-.7.6-1.5 1.1-2.3 1.6-1.5 1-3.2 2-4.8 2.9-.8.4-1.7.8-2.5 1.2s-1.7.7-2.6 1.1l-15.9 11.6c-1.3 1-2.7 1.9-3.9 2.9l-3.9 3.1-7.7 6.2-7.6 6.2c-2.5 2.1-5.1 4.2-7.5 6.3-1.3 1.1-2.5 2.1-3.7 3.2-1.2 1.1-2.4 2.2-3.7 3.3-1.2 1.1-2.4 2.2-3.5 3.4l-1.7 1.8-1.6 1.9 1.6-1.9 1.7-1.8c1.1-1.2 2.3-2.3 3.5-3.5 1.2-1.1 2.4-2.3 3.6-3.3 1.2-1.1 2.4-2.2 3.7-3.3 2.5-2.2 5-4.3 7.5-6.4 2.5-2.1 5.1-4.2 7.6-6.2 2.6-2.1 5.1-4.1 7.7-6.1l3.9-3c1.3-1 2.6-2 4-2.9l15.9-11.5c.9-.4 1.7-.7 2.6-1.1.9-.4 1.7-.8 2.5-1.2 1.7-.8 3.3-1.8 4.8-2.8.8-.5 1.5-1.1 2.3-1.6.7-.6 1.5-1.1 2.1-1.8.3-.4.6-.7.8-1.1l.4-.6.3-.6c.2-.4.3-.9.4-1.3.1-.5.2-.9.1-1.4 0-.9-.2-1.8-.6-2.7-.4-.8-.9-1.6-1.5-2.3-1.2-1.4-2.6-2.6-4.2-3.7-1.5-1.1-3.2-2-4.8-2.8-1.8-1.1-3.5-1.9-5.2-2.5z"/><path class="st0" d="M408.1 199.4c2.5-.5 5-.8 7.5-.8 1.3 0 2.5.1 3.8.2.6.1 1.3.2 1.9.3s1.2.3 1.8.5l1.8.6c.6.3 1.1.5 1.7.9.3.2.5.3.8.5s.5.4.7.6c.5.4.9.9 1.3 1.4l.6.8c.2.3.3.5.5.8s.3.6.4.9c.1.3.3.6.3.9l.3.9.2.9c.1.6.2 1.3.2 1.9.2.7.3 1.4.3 2.1 0 .7-.1 1.4-.3 2.1-.1.4-.3.7-.4 1s-.3.6-.5 1l-.6.9c-.2.3-.4.6-.7.8-.3.3-.5.5-.7.8l-.8.7-.9.6-.9.6-.9.5c-.3.2-.6.4-.9.5l-2 .9c-6.9 3.7-13.7 7.6-20.3 11.9-1.6 1.1-3.3 2.1-4.9 3.3l-2.4 1.7-2.4 1.7c-.8.6-1.6 1.2-2.3 1.8-.8.6-1.5 1.2-2.3 1.8-1.5 1.2-3 2.6-4.4 3.9l-8.4 8.2-8.4 8.2c-5.6 5.5-11.3 10.9-16.9 16.4 5.5-5.6 11.1-11.1 16.7-16.6l8.4-8.3 8.4-8.2c1.4-1.3 2.9-2.7 4.4-3.9.7-.6 1.5-1.2 2.3-1.8s1.5-1.2 2.3-1.8l2.4-1.7 2.4-1.7c1.6-1.1 3.3-2.2 4.9-3.2 6.6-4.2 13.4-8.2 20.4-11.8l1.9-.8c.3-.1.6-.3.9-.5l.9-.5.9-.6.9-.6.8-.7c.3-.2.5-.5.7-.7s.5-.5.7-.8.4-.5.6-.9c.2-.3.4-.6.5-.9.1-.3.3-.6.4-1 .2-.7.3-1.4.3-2.1 0-.7 0-1.4-.2-2.1-.1-.6-.1-1.3-.2-1.9l-.2-.9-.3-.9-.3-.9c-.1-.3-.2-.6-.4-.8-.2-.3-.3-.5-.5-.8l-.6-.8c-.4-.5-.8-.9-1.3-1.3-.2-.2-.5-.4-.7-.6-.3-.2-.5-.4-.8-.5-.5-.3-1.1-.6-1.7-.9-.6-.2-1.2-.5-1.8-.7-.6-.2-1.2-.3-1.8-.5-.6-.1-1.2-.2-1.9-.3-1.2-.2-2.5-.2-3.8-.2-2.4-.1-4.9.1-7.4.5z"/><path class="st0" d="M358.1 273.9c2.8-.5 5.7-.7 8.6-.6.7 0 1.4.1 2.1.2l2.1.3c.7.1 1.4.3 2.1.5s1.4.4 2 .7c.7.3 1.3.6 1.9 1s1.2.8 1.7 1.3l.8.8.7.8c.4.6.8 1.2 1.1 1.9.2.3.3.7.4 1s.2.7.3 1c.2.7.3 1.4.4 2.1s.1 1.4.1 2.2c0 .7-.1 1.4-.1 2.2.1.5 0 1-.1 1.5-.2.5-.4.9-.7 1.3-.1.2-.3.4-.5.6s-.3.4-.5.5c-.4.3-.7.6-1.2.9-.4.2-.8.5-1.3.7l-1.3.6-1.4.5c-.4.2-.9.3-1.4.5l-1.4.4c-.5.1-.9.2-1.4.4-.9.2-1.9.5-2.8.6-1 .2-1.9.4-2.9.5l-2.9.4-48 17.7h.1c-.7.5-1.4.9-2.1 1.3s-1.5.8-2.2 1.1c-.7.3-1.5.7-2.3.9-.8.3-1.5.5-2.3.8s-1.6.5-2.4.7l-2.4.6c-.8.2-1.6.3-2.4.4s-1.6.3-2.4.3l-2.4.2c-.8.1-1.6.1-2.5.1-.8 0-1.6.1-2.5 0l-2.5-.1c-1.6 0-3.3-.2-4.9-.4l-2.4-.3-2.4-.3-27.7-.7-27.7-.8 27.7.5 27.7.6 2.4.4c.8.1 1.6.3 2.4.3 1.6.1 3.2.3 4.9.4l2.4.1h2.4c.8 0 1.6 0 2.4-.1l2.4-.2 2.4-.3c.8-.1 1.6-.3 2.4-.4.8-.2 1.6-.3 2.4-.5s1.6-.4 2.3-.7c.8-.3 1.6-.5 2.3-.8.8-.3 1.5-.6 2.3-.9.7-.3 1.5-.7 2.2-1.1l2.1-1.2 48-17.6 2.9-.4c1-.1 1.9-.3 2.9-.5s1.9-.4 2.8-.6c.5-.1.9-.2 1.4-.4l1.4-.4c.5-.1.9-.3 1.4-.5l1.4-.5 1.3-.6c.4-.2.8-.5 1.2-.7.4-.2.8-.6 1.2-.9.2-.1.3-.3.5-.5l.5-.5c.3-.4.5-.8.7-1.2.2-.4.2-.9.1-1.4 0-.7.1-1.4.1-2.1s0-1.4-.1-2.1c0-.7-.2-1.4-.4-2.1-.1-.3-.2-.7-.3-1-.1-.3-.2-.7-.4-1-.3-.7-.7-1.3-1.1-1.8l-.7-.8-.8-.8c-.5-.5-1.1-.9-1.7-1.3s-1.2-.7-1.9-1c-.6-.3-1.3-.5-2-.7s-1.4-.4-2.1-.5l-2.1-.3c-.7-.1-1.4-.1-2.1-.2-2.5-.6-5.3-.4-8.2 0zM404.4 151.7s-.3-.1-.7-.3c-.2-.1-.5-.1-.9-.2-.3-.1-.7-.1-1.1-.1s-.9 0-1.3.1c-.5 0-1 .2-1.5.3-.5.2-1 .3-1.5.5s-1 .4-1.5.7-.9.6-1.4.9c-.4.3-.9.6-1.2 1-.4.3-.8.7-1.1 1-.3.3-.7.7-1 .9-.6.6-1 1.1-1.4 1.5-.3.4-.5.6-.5.6s.2-.2.4-.6c.1-.2.3-.4.5-.7s.4-.6.7-.9c.3-.3.6-.7.9-1 .3-.4.7-.7 1.1-1 .4-.4.8-.7 1.3-1s.9-.6 1.4-.9c.5-.3 1-.5 1.5-.7s1.1-.3 1.6-.5c.5-.1 1-.2 1.5-.2.5-.1.9 0 1.4 0 .4 0 .8.1 1.1.2.3.1.6.2.9.2.5.1.8.2.8.2zM429.5 166s-.2-.1-.7-.3c-.2-.1-.5-.2-.8-.2-.3-.1-.7-.1-1.1-.2-.4 0-.9-.1-1.3 0-.5 0-1 .1-1.5.2s-1 .2-1.5.4-1 .3-1.5.6l-.8.3-.7.4c-.2.1-.5.3-.7.4-.2.1-.4.3-.7.4-.4.3-.9.5-1.2.8-.4.3-.8.5-1.1.8-.7.5-1.2 1-1.6 1.2-.4.3-.6.5-.6.5s.2-.2.5-.6l.6-.6.8-.8c.3-.3.7-.6 1.1-.9.4-.3.8-.6 1.3-.9.2-.1.5-.3.7-.4.2-.1.5-.3.7-.4l.7-.4.8-.3c.5-.2 1.1-.4 1.6-.6.5-.2 1.1-.2 1.6-.4.5 0 1-.1 1.5-.1s.9 0 1.4.1c.4.1.8.1 1.1.2.3.1.6.2.8.3.4.3.7.5.6.5zM421.3 207.3s-.2-.1-.7-.3c-.4-.2-1.1-.4-1.9-.6-.4-.1-.8-.2-1.3-.3s-1-.1-1.5-.2h-1.6c-.3 0-.5.1-.8.1l-.8.2c-.5.1-1 .3-1.5.5s-.9.5-1.4.7c-.4.2-.8.6-1.2.8-.4.2-.7.6-1 .8-.3.3-.6.5-.8.8-.2.2-.4.5-.6.6l-.5.5s.2-.2.4-.6c.1-.2.3-.4.5-.7s.5-.6.8-.9c.3-.3.6-.7 1-.9.4-.3.8-.6 1.3-.9.5-.2 1-.5 1.5-.7s1.1-.4 1.6-.5l.8-.2c.3 0 .6 0 .8-.1.6-.1 1.1 0 1.6 0 .5.1 1 .1 1.5.2s.9.2 1.3.3c.8.2 1.4.5 1.9.7.4.5.6.7.6.7z"/><path class="st0" d="M372.4 282.1s-1.2-.4-3-.7c-.5-.1-1-.1-1.5-.1h-1.7c-.6 0-1.2.1-1.8.1l-1.8.3c-.6.1-1.2.3-1.8.5-.6.2-1.1.4-1.7.6-.5.2-1 .5-1.5.7s-.9.5-1.3.7-.8.4-1.1.6c-.3.2-.6.4-.8.5-.5.3-.7.4-.7.4s.2-.2.7-.5c.2-.2.5-.4.8-.6s.7-.5 1.1-.7.8-.5 1.3-.8c.5-.2 1-.5 1.5-.7.6-.2 1.1-.4 1.7-.6.6-.1 1.2-.3 1.8-.4.6-.1 1.2-.2 1.9-.3.6-.1 1.2-.1 1.8-.1.6 0 1.2 0 1.7.1s1 .1 1.5.2c1.7.2 2.9.7 2.9.8zM321.6 287.7s-17.8 4.3-35.6 8.5c-4.5 1.1-8.9 2.1-13.1 3.1-2.1.5-4.1 1-6 1.4s-3.7.8-5.4 1.2c-6.7 1.5-11.2 2.5-11.2 2.5s4.4-1.1 11.1-2.8c1.7-.4 3.5-.8 5.4-1.3s3.9-.9 6-1.4c4.2-1 8.6-2 13.1-3 17.8-4.1 35.7-8.2 35.7-8.2zM246.2 310.1c-1.7 1.1-3.5 2.2-5.4 3.1-.9.5-1.9.9-2.8 1.4l-2.8 1.3-2.9 1.2c-1 .4-1.9.7-2.9 1.1s-2 .7-2.9 1l-1.5.5-1.5.4c-1 .3-2 .6-3 .8l-3 .7c-1 .2-2 .4-3.1.5-1 .2-2 .3-3.1.4l-3.1.3-3.1.1h-1.6l-1.5.1-3.1-.1c-5.8-.9-11.7-2-17.5-3.2s-11.6-2.4-17.3-3.8c-2.9-.7-5.7-1.4-8.6-2.1-2.9-.7-5.7-1.5-8.6-2.3-2.9-.8-5.7-1.6-8.5-2.4s-5.7-1.7-8.5-2.6l-82.5-32.7-20.6-8.2-20.6-8.2c-3.4-1.4-6.9-2.7-10.3-4.2l-10.2-4.3-20.5-8.6 20.5 8.5L-4 253c3.4 1.4 6.9 2.8 10.3 4.1l20.6 8.1 20.6 8.2 82.4 32.8c2.8.9 5.6 1.8 8.5 2.6 2.8.8 5.7 1.7 8.5 2.4 2.8.8 5.7 1.5 8.6 2.3 2.9.7 5.7 1.5 8.6 2.1 5.8 1.4 11.5 2.7 17.3 3.9 5.8 1.2 11.6 2.3 17.4 3.3l3.1.1 1.6.1h1.6l3.1-.1 3.1-.3c1-.1 2.1-.2 3.1-.4s2.1-.3 3.1-.5l3-.7c1-.2 2-.5 3-.8l1.5-.4 1.5-.5c1-.3 2-.6 2.9-1 1-.4 1.9-.7 2.9-1.1l2.9-1.2 2.8-1.3c.9-.5 1.9-.9 2.8-1.4 1.9-1.1 3.7-2.2 5.4-3.2z"/><path class="st0" d="M276.9 287.7s-6.2.9-15.3 2.7c-2.3.4-4.8.9-7.4 1.5-2.6.5-5.4 1.1-8.2 1.8-2.8.6-5.8 1.4-8.7 2.1l-4.5 1.2c-1.5.5-3 .9-4.4 1.4-2.9 1-5.9 2-8.6 3.5-2.7 1.4-5.4 2.8-8.1 3.9-2.7 1.1-5.3 2.2-7.9 3-1.3.4-2.5.7-3.8 1.1-1.2.3-2.4.6-3.6.8-1.2.2-2.3.4-3.3.6-1.1.1-2.1.2-3 .3-1 0-1.8.1-2.7.1-.8 0-1.6-.1-2.3-.1-1.4 0-2.4-.3-3.1-.4a12.047 12.047 0 0 0 0 0c.7.1 1.8.3 3.1.3.7 0 1.4.1 2.2 0 .8 0 1.7-.1 2.6-.1.9-.1 1.9-.2 3-.4 1-.2 2.1-.4 3.3-.6 1.1-.3 2.3-.6 3.5-.9 1.2-.4 2.5-.7 3.7-1.1 2.5-.8 5.2-1.8 7.8-3 2.7-1.1 5.4-2.5 8.1-3.9 2.7-1.4 5.7-2.4 8.7-3.4 1.5-.5 3-.9 4.5-1.4l4.5-1.2c3-.8 5.9-1.5 8.8-2.1 2.8-.6 5.6-1.2 8.2-1.7s5.1-1 7.4-1.4c9.3-1.7 15.5-2.6 15.5-2.6z"/><path class="st0" d="M297.2 258.4l-75.9 24.9h.1c-2 1.4-4.1 2.7-6.3 3.9-1.1.6-2.1 1.2-3.2 1.8-1.1.6-2.2 1.1-3.3 1.7-1.1.5-2.2 1-3.4 1.5l-1.7.7c-.6.2-1.2.4-1.7.6-.6.2-1.2.4-1.8.5s-1.2.3-1.8.4l-1.8.3-1.8.1 1.8-.1 1.8-.3c.6-.1 1.2-.3 1.8-.5.6-.1 1.2-.4 1.7-.6.6-.2 1.2-.4 1.7-.6l1.7-.7c1.1-.5 2.2-1 3.3-1.6 1.1-.5 2.2-1.1 3.3-1.7s2.1-1.2 3.2-1.8c2.1-1.3 4.2-2.6 6.2-4l76.1-24.5zM164.9 293.4s-4.9-1.3-9.7-2.7c-1.2-.3-2.4-.7-3.6-1-1.1-.3-2.2-.7-3.1-1-1.8-.6-3-1.1-3-1.1s1.2.3 3.1.7c.9.2 2 .5 3.1.8 1.1.4 2.3.7 3.5 1.1 4.9 1.6 9.7 3.1 9.7 3.2zM35.6-12.3s-.5 8.8-.3 22c0 3.3.1 6.9.3 10.7s.4 7.8.7 11.9.7 8.4 1.1 12.7c.5 4.3 1 8.7 1.7 13 .3 2.2.7 4.4 1.1 6.5.2 1.1.4 2.2.6 3.2.2 1.1.4 2.1.7 3.2.9 4.2 1.9 8.4 2.9 12.4.5 2 1.1 3.9 1.7 5.8.6 1.9 1.2 3.7 1.8 5.5s1.3 3.5 1.9 5.2c.6 1.7 1.3 3.2 2 4.8.6 1.5 1.4 2.9 2 4.3s1.3 2.6 2 3.8c1.2 2.4 2.5 4.3 3.5 6 .5.8 1 1.5 1.4 2.1s.8 1.1 1.1 1.5c.6.8.9 1.3.9 1.3s-.3-.4-.9-1.3c-.3-.4-.7-.9-1.1-1.5-.4-.6-1-1.3-1.5-2.1-1-1.6-2.4-3.6-3.6-5.9-.7-1.2-1.4-2.4-2-3.8s-1.4-2.8-2-4.3-1.4-3.1-2-4.8c-.6-1.7-1.3-3.4-1.9-5.2-1.3-3.6-2.4-7.4-3.5-11.4s-2.1-8.2-2.9-12.4c-.2-1.1-.4-2.1-.6-3.2-.2-1.1-.4-2.2-.6-3.2-.4-2.2-.7-4.3-1-6.5-1.1-4.3-1.6-8.7-2.1-13-.4-4.3-.8-8.6-1.1-12.7s-.5-8.1-.6-11.9-.2-7.4-.2-10.7c-.1-13.2.4-22 .5-22zM421.3 157.8s4.7-4.6 10.8-12.2c1.5-1.9 3.2-4 4.9-6.2 1.7-2.2 3.4-4.6 5.1-7.2 1.7-2.5 3.4-5.2 5.1-7.9 1.7-2.7 3.3-5.6 4.8-8.4 1.5-2.9 3-5.8 4.2-8.7.6-1.5 1.3-2.9 1.9-4.4.3-.7.6-1.5.9-2.2s.5-1.4.8-2.2c.3-.7.5-1.4.8-2.1.2-.7.5-1.4.7-2.1.5-1.4.9-2.8 1.2-4.1.2-.7.4-1.3.6-2s.3-1.3.5-2c.3-1.3.6-2.5.8-3.7.2-1.2.5-2.3.6-3.4s.3-2.1.4-3.1c.2-2 .3-3.7.5-5.1.1-2.8.1-4.5.1-4.5v4.5c-.1 1.4-.2 3.2-.4 5.1-.1 1-.2 2-.4 3.1-.1 1.1-.4 2.3-.6 3.5s-.5 2.5-.8 3.7c-.1.6-.3 1.3-.4 2-.2.7-.4 1.3-.5 2l-.6 2.1c-.2.7-.4 1.4-.7 2.1-.2.7-.5 1.4-.7 2.1-.3.7-.5 1.4-.8 2.1s-.5 1.4-.8 2.2c-.3.7-.6 1.4-.9 2.2-.6 1.5-1.2 2.9-1.9 4.4-1.3 2.9-2.8 5.8-4.3 8.7-1.6 2.9-3.2 5.7-4.9 8.4-1.7 2.7-3.4 5.4-5.2 7.9-1.7 2.5-3.5 4.9-5.2 7.1-1.7 2.2-3.4 4.3-4.9 6.2-6 7.6-10.7 12.2-10.7 12.1z"/><path class="st1" d="M415.4 283.3c1.1 10.8-1.2 19.7-5.4 26.9-7.6 13.2-21.1 20.9-30.7 24.4-73.9 27-112.8 28.6-138.7 12.4-5.4-3.4-10.2-7.5-14.7-12.4-33.5-36.4 37.7-65.3 37.7-65.3 95.9-40.4 132-18 144.7-2.4 4.9 6 6.3 11.1 6.3 11.1.4 1.8.6 3.6.8 5.3zm-40.1 47.6c14.2-5 38-19.7 32-49.2 0 0-16.4-56.1-136.8-7.5 0 0-64.5 25.1-34.1 56.7 8.7 9.1 19 15.3 32.5 18.1 23 4.8 55.5-.3 106.4-18.1z"/><path class="st1" d="M410 310.3c-6.3 68.6-18.9 77-18.9 77-14 10.6-36.6 15.5-36.6 15.5-11.2-9.3-22-15.5-22-15.5-9.3-6.4-15.9-5.3-20.4-2.1-5.4 3.8-7.6 10.6-7.6 10.6s-.1 6.8 3.9 15.1l-.2.1c-8.5.7-17.6 0-17.6 0-4.8-16.7-8.4-26.2-8.4-26.2-11.6-29.3-36.8-16-36.8-16-.6-10-4.9-21.6-4.9-21.6 25.9 16.2 64.7 14.6 138.7-12.4 9.7-3.6 23.2-11.3 30.8-24.5z"/><path class="st1" d="M407.3 281.7c6 29.5-17.8 44.2-32 49.2-24-22.5-106.4 18.1-106.4 18.1-13.5-2.8-23.8-9.1-32.5-18.1-30.4-31.6 34.1-56.7 34.1-56.7 120.4-48.6 136.8 7.5 136.8 7.5z"/><path class="st1" d="M268.9 349s82.4-40.6 106.4-18.1c-50.9 17.8-83.4 22.9-106.4 18.1z"/><g><path class="st0" d="M408.3 267c-6.4-7.8-15.3-13.2-24.8-16.3s-19.6-4.2-29.6-4.1c-10 .2-20 1.4-29.8 3.4s-19.5 4.6-29 7.7-18.9 6.6-28.2 10.4c-4.7 1.8-9.2 3.9-13.6 6.3-4.4 2.3-8.7 4.9-12.8 7.8-4.1 2.8-8 6-11.6 9.5s-6.7 7.4-9 11.9c-1.1 2.2-1.9 4.6-2.4 7s-.5 5-.2 7.4c.7 4.9 3.1 9.5 6.1 13.4 6.3 7.7 14.1 14.3 23.1 18.7 9 4.3 18.9 6.5 28.9 7 10 .6 20-.4 29.9-1.9l3.7-.6c1.2-.2 2.5-.5 3.7-.7 2.5-.5 4.9-1 7.4-1.5 4.9-1.2 9.8-2.2 14.6-3.6 2.4-.7 4.8-1.3 7.2-2l7.2-2.2c4.8-1.4 9.5-3.1 14.3-4.6 4.8-1.6 9.5-3.3 14.2-4.9 4.8-1.6 9.3-3.7 13.6-6.3 8.5-5.2 16-12.4 20.3-21.5 2.2-4.5 3.5-9.4 4-14.4.2-2.5.3-5 .1-7.5l-.1-1.9c-.1-.6-.2-1.2-.3-1.9l-.5-3.7c-.6-2-1.6-4-2.7-5.8-1.2-1.7-2.4-3.5-3.7-5.1 1.4 1.6 2.6 3.4 3.7 5.2 1.1 1.9 2 3.8 2.7 5.8l.6 3.7c.1.6.2 1.2.3 1.9l.2 1.9c.2 2.5.1 5-.1 7.5-.5 5-1.8 9.9-3.9 14.4-2.2 4.5-5.1 8.7-8.6 12.3-1.7 1.8-3.6 3.5-5.6 5.1-2 1.5-4 3-6.2 4.3-4.3 2.6-8.9 4.8-13.6 6.4-4.7 1.7-9.4 3.4-14.2 5-4.8 1.6-9.5 3.2-14.3 4.6l-7.2 2.2c-2.4.7-4.8 1.3-7.2 2-4.8 1.4-9.7 2.4-14.6 3.6-2.4.5-4.9 1-7.4 1.5-1.2.2-2.5.5-3.7.7l-3.7.6c-9.9 1.5-19.9 2.4-30 1.9-10-.6-20-2.7-29.1-7.1l-.9-.4-.8-.5-1.6-.9c-1.1-.6-2.2-1.2-3.3-1.9-2.1-1.4-4.1-2.9-6.1-4.4-1.9-1.6-3.8-3.3-5.6-5.1-1.8-1.8-3.5-3.6-5-5.6-3-4-5.4-8.6-6.1-13.6-.3-2.5-.3-5.1.2-7.5.5-2.5 1.3-4.9 2.4-7.1 2.3-4.5 5.5-8.5 9-12 3.6-3.5 7.5-6.6 11.7-9.5 4.1-2.8 8.4-5.4 12.9-7.8 4.4-2.3 9-4.5 13.6-6.3 9.3-3.8 18.6-7.3 28.2-10.4 9.5-3.1 19.2-5.7 29-7.7s19.8-3.2 29.8-3.3 20.1 1 29.6 4.1c9.6 3.1 18.5 8.5 24.9 16.4z"/><path class="st0" d="M375.3 330.9c2.5-.9 5-2 7.4-3.2 1.2-.6 2.4-1.3 3.5-1.9 1.2-.7 2.3-1.4 3.4-2.2 2.2-1.5 4.3-3.2 6.3-5.1 1-.9 1.9-1.9 2.8-2.9.4-.5.9-1 1.3-1.5l1.2-1.6 1.1-1.7c.4-.6.7-1.2 1-1.7.3-.6.6-1.2 1-1.8.3-.6.6-1.2.8-1.8.5-1.2 1-2.5 1.4-3.8s.7-2.6.9-3.9l.2-1 .1-1c.1-.7.2-1.3.2-2 .1-1.3.1-2.7.1-4-.1-1.3-.1-2.7-.3-4-.1-1.3-.4-2.7-.6-4-1.3-3.7-3.5-7-6.1-10-2.6-2.9-5.6-5.5-8.9-7.6s-6.8-3.9-10.5-5.2l-1.4-.5c-.5-.2-.9-.3-1.4-.4l-2.8-.8-2.9-.7c-1-.2-1.9-.4-2.9-.6-7.7-1.4-15.6-1.6-23.4-1.2-3.9.2-7.8.6-11.7 1.1-3.9.6-7.8 1.2-11.6 2-3.9.7-7.7 1.7-11.5 2.6-1.9.4-3.8 1-5.7 1.5-1.9.5-3.8 1-5.7 1.6-7.5 2.3-14.9 4.9-22.3 7.7l-5.5 2.1c-1.8.7-3.7 1.4-5.4 2.2-3.6 1.6-7.1 3.4-10.5 5.3-6.8 3.8-13.4 8.2-19 13.7-2.8 2.8-5.3 5.8-7.1 9.3s-2.8 7.4-2.4 11.2c.3 3.9 1.9 7.6 4.1 10.8 2.2 3.2 5 6 7.9 8.6 5.8 5.2 12.6 9.4 20 11.9 3.7 1.3 7.5 2.3 11.4 2.9l1.4.3 1.5.2 2.9.3c2 .1 3.9.3 5.9.4 7.8.2 15.7-.4 23.5-1.5s15.5-2.6 23.1-4.5 15.2-3.9 22.7-6.3c7.6-2.3 15.1-4.8 22.5-7.3zm0 0c-7.4 2.6-14.9 5.1-22.4 7.4s-15.1 4.5-22.7 6.3c-7.6 1.9-15.3 3.5-23.1 4.6-7.8 1.1-15.6 1.8-23.5 1.6-2-.1-3.9-.2-5.9-.3l-2.9-.3-1.5-.2-1.5-.3c-3.9-.6-7.7-1.6-11.4-2.9-7.5-2.6-14.3-6.8-20.2-12-2.9-2.6-5.7-5.4-7.9-8.7-2.2-3.3-3.8-7-4.1-11s.7-8 2.5-11.5 4.4-6.6 7.1-9.4c5.6-5.6 12.2-10 19.1-13.8 3.4-1.9 7-3.7 10.6-5.3 1.8-.8 3.6-1.5 5.5-2.2l5.5-2.1c7.3-2.8 14.8-5.3 22.3-7.6 1.9-.6 3.8-1.1 5.7-1.6 1.9-.5 3.8-1.1 5.7-1.5 3.8-.9 7.6-1.9 11.5-2.6 3.8-.8 7.7-1.4 11.6-2 3.9-.4 7.8-.9 11.7-1.1 7.8-.4 15.8-.1 23.5 1.2 1 .1 1.9.4 2.9.6l2.9.7 2.8.9c.5.1.9.3 1.4.4l1.4.5c3.7 1.3 7.3 3.1 10.6 5.2s6.3 4.7 8.9 7.7 4.8 6.3 6.1 10c.2 1.3.5 2.7.6 4 .2 1.3.2 2.7.3 4 0 1.3 0 2.7-.1 4 0 .7-.1 1.3-.2 2l-.1 1-.2 1c-.2 1.3-.6 2.6-1 3.9s-.9 2.6-1.4 3.8l-.9 1.8c-.3.6-.6 1.2-1 1.8-.4.6-.7 1.2-1.1 1.7l-1.1 1.7-1.2 1.6c-.4.5-.9 1-1.3 1.5-.9 1-1.8 2-2.8 2.9-2 1.9-4.1 3.5-6.3 5.1-1.1.8-2.2 1.5-3.4 2.2-1.2.7-2.3 1.3-3.5 1.9-2.4 1.5-4.9 2.5-7.5 3.4z"/><path class="st0" d="M268.9 349s6.3-3.1 16-7.2 22.8-9.1 36.3-12.8c6.8-1.9 13.6-3.4 20.2-4.3 3.3-.4 6.4-.7 9.5-.8 3-.1 5.9.1 8.5.4 5.2.6 9.5 2.1 12.1 3.7 1.3.8 2.3 1.5 2.9 2.1.6.5.9.8.9.8s-.3-.3-1-.8c-.6-.5-1.6-1.2-2.9-2-1.3-.7-3-1.5-5.1-2.1-2-.6-4.4-1.1-7-1.4-5.2-.6-11.4-.3-17.9.6s-13.4 2.3-20.1 4.2C307.8 333 294.7 338 285 342c-9.8 4-16.1 7.1-16.1 7zM225.9 334.7h-1.3c-.8 0-2.1 0-3.6.2-1.6.2-3.4.7-5.4 1.5s-4.3 1.9-6.4 3.5c-2 1.7-4 4.1-4.5 7.1-.4 1.5-.3 3.1-.1 4.7.3 1.6.7 3.2 1.1 4.8 1.6 6.5 3.4 13.4 5.2 20.3.9 3.4 1.9 6.9 2.8 10.3 1 3.4 1.9 6.7 2.8 9.9.9 3.2 1.9 6.3 2.7 9.3.9 2.9 1.7 5.7 2.6 8.3.4 1.3.8 2.5 1.2 3.6l1.2 3.3c.7 2.1 1.5 3.8 2 5.3.6 1.5 1.2 2.5 1.5 3.3.4.8.5 1.2.5 1.2s-.2-.4-.6-1.1c-.4-.8-1-1.8-1.6-3.3-.6-1.4-1.4-3.2-2.1-5.2-.4-1-.8-2.1-1.2-3.3-.4-1.2-.8-2.4-1.3-3.6-.9-2.5-1.8-5.3-2.7-8.2-.9-2.9-1.9-6-2.8-9.3-1.9-6.4-3.7-13.3-5.5-20.3-1.8-6.9-3.5-13.9-5.1-20.4-.4-1.6-.8-3.2-1.1-4.8-.2-1.6-.2-3.2.1-4.7.6-3.1 2.6-5.5 4.6-7.2 2.1-1.7 4.4-2.7 6.4-3.5s3.9-1.2 5.5-1.4c1.6-.2 2.8-.2 3.6-.2 1-.2 1.5-.1 1.5-.1zM240.6 347.1c1.3 3.5 2.3 7 3.2 10.6.4 1.8.8 3.6 1.1 5.4.1.9.3 1.8.4 2.7.1.9.2 1.8.3 2.8l-.2-.1c1.7-.8 3.5-1.5 5.3-2s3.7-.8 5.6-1c3.8-.3 7.6.2 11.1 1.7 1.8.7 3.4 1.7 4.9 2.9 1.5 1.1 2.9 2.5 4.1 4 .6.7 1.2 1.5 1.7 2.3.6.8 1 1.6 1.5 2.4 1 1.6 1.8 3.4 2.5 5.1.7 1.8 1.3 3.5 2 5.3l1.8 5.4c1.2 3.6 2.3 7.2 3.3 10.8l1.6 5.4 1.4 5.5 2.8 11-3.1-10.9-1.5-5.5-1.6-5.4c-1.1-3.6-2.2-7.2-3.4-10.8l-1.8-5.4c-.6-1.8-1.2-3.6-1.9-5.3-.7-1.7-1.5-3.4-2.4-5.1-.5-.8-.9-1.6-1.5-2.4-.5-.8-1.1-1.5-1.7-2.3-1.2-1.4-2.5-2.8-4-3.9-1.5-1.2-3.1-2.2-4.8-2.9-3.4-1.5-7.3-2-11-1.7-1.9.1-3.7.5-5.5.9-1.8.5-3.6 1.1-5.3 1.9l-.1.1v-.2c-.1-.9-.1-1.8-.2-2.8-.1-.9-.2-1.8-.4-2.7-.3-1.8-.7-3.6-1.1-5.4-.9-3.3-1.9-6.9-3.1-10.4z"/><path class="st0" d="M254.6 431.2l-1.8-2.9c-.6-1-1.2-1.9-1.8-2.9l-1.7-3c-.6-1-1.1-2-1.6-3s-1-2-1.5-3.1l-1.4-3.1c-.5-1-.9-2.1-1.3-3.2s-.9-2.1-1.2-3.2l-1.1-3.2-1-3.3c-.4-1.1-.6-2.2-.9-3.3-.3-1.1-.6-2.2-.8-3.3-.3-1.1-.5-2.2-.7-3.4-.2-1.1-.4-2.3-.6-3.4-.2-1.1-.3-2.3-.5-3.4-.1-1.1-.2-2.3-.3-3.4v.1l-.2-1c0-.2-.1-.3-.1-.5v-.5c0-.3 0-.7.1-1l.2-1 .4-1c.1-.3.4-.6.5-.9.2-.3.4-.6.6-.8.2-.3.4-.5.7-.8.3-.2.5-.5.8-.7l.8-.6c.6-.4 1.1-.8 1.7-1.1 1.2-.7 2.5-1.2 3.8-1.6h.1c.5.1.9.3 1.3.6s.7.6 1 .9c.6.6 1.1 1.4 1.6 2.1.5.8.9 1.6 1.2 2.4.2.4.4.8.5 1.2.2.4.3.8.5 1.2.3.8.6 1.7.8 2.5.2.9.5 1.7.7 2.6s.4 1.7.5 2.6l.5 2.6-.5-2.6c-.2-.9-.4-1.7-.6-2.6-.2-.9-.5-1.7-.7-2.5-.2-.9-.6-1.7-.8-2.5-.1-.4-.3-.8-.5-1.2-.2-.4-.3-.8-.5-1.2-.4-.8-.8-1.6-1.2-2.3-.5-.7-1-1.4-1.6-2-.3-.3-.6-.6-1-.8-.3-.2-.7-.4-1.1-.5h.1c-.6.2-1.3.5-1.9.7l-1.8.9c-.6.3-1.1.7-1.7 1.1l-.8.6c-.3.2-.5.4-.7.7-.3.2-.5.5-.7.7s-.4.5-.6.8c-.2.3-.4.5-.5.8l-.4.9-.2 1c-.1.3-.1.6-.1 1v.5c0 .2 0 .3.1.5l.1 1c0 1.1.1 2.3.3 3.4.1 1.1.3 2.3.4 3.4.2 1.1.3 2.3.6 3.4.2 1.1.4 2.2.7 3.3.3 1.1.5 2.2.8 3.3.3 1.1.5 2.2.9 3.3l1 3.3 1.1 3.2c.3 1.1.8 2.1 1.2 3.2s.8 2.1 1.3 3.2l1.4 3.1c.5 1 1 2.1 1.5 3.1s1 2.1 1.5 3.1l1.6 3c.5 1 1.2 2 1.7 2.9l1.8 2.6zM312.2 385.1c.4-.2.7-.5 1.2-.7l1.2-.6c.4-.2.9-.3 1.3-.5.4-.1.9-.3 1.3-.4.5-.1.9-.2 1.4-.2s.9-.1 1.4-.1.9 0 1.4.1c.5 0 .9.1 1.4.2s.9.2 1.3.3c.4.1.9.2 1.3.4.4.1.9.3 1.3.5s.9.3 1.3.5c.8.4 1.6.8 2.4 1.3.8.4 1.6 1 2.3 1.5 3.1 1.8 6.2 3.8 9.2 5.8s5.9 4.2 8.8 6.4c5.7 4.4 11.2 9.2 16.1 14.5 1 .6 2 1 3.1 1.3s2.3.3 3.3 0c.3-.1.5-.2.8-.3.2-.2.5-.3.7-.5l.6-.6.5-.7c.7-.9 1.5-1.8 2.3-2.6.8-.9 1.6-1.7 2.5-2.5.8-.8 1.7-1.6 2.6-2.3.9-.7 1.8-1.5 2.7-2.2.9-.7 1.9-1.3 2.9-2l1.5-.9c.5-.3 1-.6 1.5-.8 1-.5 2.1-1 3.2-1.5 1.1-.4 2.2-.8 3.3-1.1 1.1-.3 2.3-.6 3.4-.7 1.2-.2 2.3-.3 3.5-.3s2.3 0 3.5.2l1.7.3 1.7.4 1.7.5 1.6.6-1.6-.6-1.7-.5-1.7-.4-1.7-.2c-1.2-.1-2.3-.2-3.5-.1-1.2 0-2.3.1-3.4.3-1.1.2-2.3.4-3.4.8-1.1.3-2.2.7-3.3 1.1-1.1.5-2.1.9-3.1 1.5-.5.3-1 .5-1.5.8l-1.5.9c-1 .6-1.9 1.3-2.9 2l-2.7 2.1c-.9.7-1.7 1.5-2.6 2.3-.8.8-1.7 1.6-2.4 2.5-.8.8-1.6 1.7-2.3 2.6l-.5.7-.7.7c-.2.2-.5.3-.8.5-.3.1-.6.3-.8.3-1.2.4-2.4.3-3.6 0-1.1-.3-2.2-.8-3.3-1.4-4.9-5.3-10.3-10.1-16-14.6-2.9-2.2-5.8-4.4-8.8-6.4s-6-4-9.1-5.9c-.8-.5-1.5-1-2.3-1.5s-1.6-.9-2.4-1.3c-.4-.2-.8-.4-1.3-.5-.4-.2-.9-.3-1.3-.5s-.9-.3-1.3-.4-.9-.2-1.3-.3c-.4-.1-.9-.2-1.4-.2s-.9-.1-1.4-.1-.9 0-1.4.1c-.5 0-.9.1-1.4.2-.4.1-.9.2-1.3.4s-.9.3-1.3.5l-1.2.6c-.2.2-.6.5-1 .7zM328.8 431.2c-.8-.5-1.7-.9-2.5-1.4l-2.4-1.5c-.8-.5-1.5-1.1-2.3-1.6-.7-.6-1.5-1.1-2.2-1.7-2.9-2.4-5.5-5.2-7.6-8.3-.6-.8-1.1-1.6-1.6-2.4s-1-1.6-1.4-2.5c-.4-.8-.8-1.7-1.2-2.5-.4-.9-.7-1.7-1-2.6-.6-1.8-1.2-3.6-1.5-5.4-.4-1.9-.7-3.7-.7-5.6.8-2.1 1.8-4.1 3.1-5.9.3-.5.7-.9 1-1.3.2-.2.4-.4.5-.6l.6-.6c.4-.4.8-.8 1.2-1.1.4-.4.9-.7 1.3-1-.4.4-.9.7-1.3 1.1l-1.2 1.2c-.2.2-.4.4-.5.6-.2.2-.4.4-.5.6-.3.4-.7.9-1 1.3-1.2 1.8-2.2 3.8-2.9 5.8v-.1c0 .9.1 1.8.2 2.8.1.9.3 1.8.5 2.8.4 1.8.9 3.6 1.5 5.4.3.9.6 1.7 1 2.6s.8 1.7 1.2 2.5c.4.8.9 1.6 1.4 2.4l1.5 2.4c2.1 3.1 4.7 5.9 7.5 8.3.7.6 1.4 1.2 2.2 1.8.8.6 1.5 1.1 2.3 1.6l2.4 1.5c.8.5 1.6.9 2.4 1.4zM408.3 267c-.2-2.2-.2-4.3 0-6.5.2-2.1.5-4.3 1-6.4.3-1 .6-2.1.9-3.1l.6-1.5c.2-.5.4-1 .7-1.5.5-1 1-1.9 1.6-2.8.6-.9 1.3-1.7 2-2.5.4-.4.8-.8 1.2-1.1.2-.2.4-.4.6-.5l.7-.5c.4-.3.9-.7 1.3-.9.5-.3.9-.6 1.4-.8l1.5-.7 1.5-.5c.5-.2 1-.3 1.6-.4.5-.1 1-.3 1.6-.3l1.6-.2 1.6-.1c1.1-.1 2.2 0 3.2 0 1.1 0 2.2.2 3.2.3l3.2.5c1.2.5 2.3 1.2 3.4 1.9s2.1 1.5 3.1 2.3 1.9 1.7 2.8 2.6c.9.9 1.7 1.9 2.6 2.9.8 1 1.6 2 2.3 3.1.8 1 1.4 2.2 2.1 3.2.7 1.1 1.2 2.2 1.9 3.4l.9 1.7c.3.6.5 1.2.8 1.8l1.5 3.6 1.2 3.7.6 1.8.5 1.9.9 3.7c.3 1.2.5 2.5.7 3.8l.7 3.8.7 7.7-.9-7.6-.7-3.8c-.3-1.3-.4-2.5-.7-3.8l-1-3.7-.5-1.9-.6-1.8-1.2-3.6c-.5-1.2-1-2.4-1.5-3.5-.3-.6-.5-1.2-.8-1.8l-.9-1.7c-.6-1.1-1.1-2.3-1.8-3.4s-1.3-2.2-2.1-3.2-1.5-2.1-2.3-3.1c-.9-.9-1.6-2-2.5-2.9s-1.8-1.8-2.8-2.6c-.9-.9-2-1.6-3-2.3-1.1-.7-2.2-1.4-3.3-1.9l-3.2-.5c-1.1-.1-2.1-.2-3.2-.3-1.1 0-2.1-.1-3.2 0l-1.6.1-1.6.2c-.5.1-1.1.2-1.6.3s-1.1.2-1.5.4l-1.5.5-1.5.7c-.5.2-.9.5-1.4.8s-.9.6-1.3.9c-.4.3-.9.6-1.2 1-.4.4-.8.7-1.2 1.1-.7.8-1.4 1.6-2 2.5s-1.1 1.8-1.6 2.8c-.2.5-.5 1-.7 1.5l-.6 1.5c-.4 1-.7 2-.9 3.1-.5 2.1-.9 4.2-1 6.4-.4 1.8-.5 4-.3 6.2zM426.2 431.2s.8-.2 2.3-.7c.8-.2 1.6-.6 2.7-.9.5-.2 1.1-.4 1.7-.6s1.2-.5 1.9-.8l2.1-.9c.7-.3 1.5-.7 2.3-1.1 1.6-.8 3.2-1.7 5.1-2.6 3.5-2.1 7.5-4.2 11.6-7.1 4.2-2.7 8.4-6.1 13-9.5.6-.4 1.1-.9 1.7-1.4.5-.5 1.1-.9 1.7-1.4 1.1-1 2.2-1.9 3.4-2.9 1.1-1 2.3-2 3.4-3l.9-.8.8-.8c.6-.5 1.1-1.1 1.7-1.6 2.2-2.2 4.5-4.4 6.8-6.6.6-.6 1.2-1.1 1.7-1.7l1.6-1.8 3.3-3.6c2.2-2.4 4.4-4.8 6.6-7.3 2.1-2.6 4.2-5.1 6.3-7.7l3.1-3.9c1-1.3 2.1-2.5 3.1-3.9 2-2.7 3.9-5.3 5.8-8 1.9-2.6 3.8-5.3 5.7-7.8 1.8-2.7 3.5-5.3 5.2-7.9s3.4-5.2 5-7.7c.8-1.3 1.6-2.5 2.4-3.7.7-1.3 1.5-2.5 2.2-3.7 2.9-4.9 5.7-9.6 8.2-13.8 2.6-4.2 4.7-8.3 6.6-11.9 1.9-3.6 3.6-6.7 4.9-9.3 2.7-5.1 4.3-8.1 4.3-8.1s-1.5 3-4.2 8.1c-1.3 2.6-3 5.7-4.8 9.3-1.9 3.6-3.9 7.7-6.5 11.9-2.5 4.3-5.2 9-8.1 13.9-.7 1.2-1.5 2.5-2.2 3.7-.8 1.2-1.6 2.5-2.4 3.7-1.6 2.5-3.3 5.1-5 7.7s-3.4 5.3-5.2 7.9c-1.9 2.6-3.8 5.2-5.8 7.8-1.9 2.6-3.9 5.3-5.8 8-.9 1.4-2.1 2.6-3.1 3.9l-3.2 3.9c-2.1 2.6-4.2 5.1-6.3 7.7-2.2 2.5-4.5 4.9-6.7 7.3l-3.3 3.6-1.7 1.9c-.6.6-1.2 1.1-1.7 1.7-2.3 2.2-4.6 4.4-6.8 6.6-.6.5-1.1 1.1-1.7 1.6l-.8.8-.9.8c-1.2 1-2.3 2-3.4 3-2.3 1.9-4.5 3.9-6.7 5.7-4.6 3.4-8.8 6.8-13 9.5-4.1 2.9-8.1 5-11.6 7.1-1.8.9-3.5 1.8-5.1 2.6-.8.4-1.5.8-2.3 1.1l-2.1.9c-.7.3-1.3.6-1.9.8-.6.2-1.2.4-1.7.6-1.1.4-2 .7-2.7.9-1.6.3-2.4.5-2.4.5zM429.5 300.8s1.8.6 3.7.9c.5.1.9.1 1.4.1.4 0 .9.1 1.2.1.7.1 1.2.2 1.2.2s-.5.1-1.2.2h-1.2c-.5 0-.9-.1-1.4-.2-1-.2-1.9-.5-2.6-.7-.6-.4-1.1-.6-1.1-.6zM415.4 283.3s.4 1.4 1.3 3.4c.5 1 1 2.1 1.7 3.3.3.6.7 1.2 1.1 1.8.4.6.8 1.2 1.3 1.7s.9 1.1 1.4 1.6.9 1 1.5 1.5c.5.5 1 .9 1.4 1.3.5.4.9.8 1.4 1.1.4.3.9.6 1.2.8.4.2.7.4 1 .5.6.3.9.5.9.5s-.3-.1-.9-.4c-.3-.1-.7-.3-1.1-.4-.4-.2-.8-.5-1.3-.7-.5-.3-.9-.6-1.5-1-.5-.4-1-.8-1.5-1.3s-1-1-1.4-1.5c-.5-.5-.9-1.1-1.4-1.7l-1.2-1.8c-.4-.6-.7-1.2-1.1-1.8-.7-1.2-1.2-2.3-1.6-3.4-.9-2-1.2-3.4-1.2-3.5z"/><path class="st0" d="M429.5 300.8c3.5 3.3 6.9 6.8 10 10.4.8.9 1.6 1.8 2.3 2.7.8.9 1.5 1.9 2.3 2.8 1.5 1.9 2.9 3.8 4.3 5.8.7 1 1.4 2 2 3 .7 1 1.3 2 1.9 3.1.6 1 1.1 2.1 1.7 3.2s1 2.2 1.5 3.3c.4 1.1.9 2.2 1.3 3.4.3 1.2.7 2.3 1 3.5.1.6.3 1.2.4 1.8l.3 1.8.1.9v.9l.1 1.8h-.1l-.1-1.8-.1-.9-.2-.9-.3-1.8c-.1-.6-.3-1.2-.4-1.7-.3-1.2-.7-2.3-1.1-3.4s-.9-2.2-1.3-3.3c-.5-1.1-1-2.2-1.5-3.2-.6-1.1-1.1-2.1-1.7-3.2-.6-1-1.2-2.1-1.8-3.1-.6-1-1.3-2-1.9-3-1.3-2-2.8-3.9-4.2-5.8-.7-.9-1.5-1.9-2.2-2.8-.8-.9-1.5-1.9-2.3-2.8-3.2-3.9-6.5-7.4-10-10.7z"/><path class="st0" d="M437.1 308.5s.5 3.4.9 8.6c.1 1.3.2 2.7.3 4.2.1 1.5.1 3 .1 4.7v5c0 1.7-.1 3.4-.2 5.1s-.3 3.4-.4 5.1c-.2 1.7-.4 3.3-.6 4.9-.3 1.6-.5 3.1-.9 4.6-.4 1.4-.7 2.8-1.1 4s-.8 2.3-1.2 3.3c-.3 1-.8 1.8-1.1 2.5-.6 1.4-1 2.1-1 2.1s.3-.8.9-2.2c.1-.3.3-.7.5-1.2.2-.4.3-.9.5-1.4.3-1 .7-2.1 1.1-3.4.3-1.3.6-2.6 1-4 .3-1.5.6-3 .9-4.6.2-1.6.4-3.2.7-4.9.1-1.7.4-3.4.5-5.1s.2-3.4.2-5.1.1-3.4.1-5-.1-3.2-.1-4.7-.1-2.9-.2-4.2c-.5-4.9-1-8.3-.9-8.3zM391.1 400.4c.7-1.9 1.5-3.8 2.3-5.6.4-.9.9-1.8 1.3-2.7.5-.9 1-1.8 1.4-2.7l1.5-2.6c.5-.9 1.1-1.7 1.6-2.6s1.1-1.7 1.7-2.5l.9-1.2.9-1.2c.6-.8 1.2-1.6 1.9-2.4l2-2.3c.7-.8 1.4-1.5 2.1-2.2l1.1-1.1c.4-.4.7-.7 1.1-1l2.3-2 2.4-1.9 1.2-.9 1.3-.9 2.5-1.7-2.4 1.8-1.2.9-1.2 1-2.3 2-2.2 2.1c-.4.3-.7.7-1.1 1l-1 1.1c-.7.7-1.4 1.4-2.1 2.2l-2 2.3c-.7.8-1.3 1.6-1.9 2.4l-.9 1.2-.9 1.2c-.6.8-1.2 1.6-1.7 2.5-.5.8-1.1 1.7-1.6 2.5l-1.6 2.6-1.5 2.7c-.5.9-.9 1.8-1.4 2.7-.9 1.6-1.7 3.4-2.5 5.3zM426.3 324.1s-1.5 11.1-2.9 22.3c-.7 5.6-1.4 11.1-1.9 15.3-.5 4.2-.8 7-.8 7s0-.7.1-1.9.2-3 .4-5.1c.1-1 .2-2.2.3-3.4.1-1.2.3-2.5.4-3.8.3-2.6.7-5.4 1.1-8.2 1.5-11.1 3.2-22.2 3.3-22.2zM290.7 410.9s1.1.1 2.7.1 3.8.1 6 0c1.1 0 2.2-.1 3.2-.1h5.6s-.3 0-.8.1-1.2.2-2 .2c-.8.1-1.8.1-2.8.2h-3.2c-4.3 0-8.7-.5-8.7-.5zM354.6 402.7s1.8-.4 5-1.3c1.6-.4 3.5-1 5.7-1.7s4.6-1.6 7.2-2.6 5.4-2.2 8.3-3.7c2.9-1.4 5.8-3.1 8.7-5.1l1.1-.8c.4-.2.7-.5 1-.8.6-.6 1.1-1.4 1.6-2.1.5-.8 1-1.5 1.4-2.3s.9-1.6 1.2-2.5c.8-1.7 1.4-3.4 2.1-5.1.6-1.8 1.2-3.5 1.8-5.3.5-1.8 1.1-3.6 1.5-5.4s.9-3.6 1.3-5.4c.7-3.6 1.6-7.2 2.2-10.6l.9-5.1c.3-1.7.5-3.3.8-4.9s.5-3.1.7-4.6.4-3 .6-4.4c.4-2.8.7-5.3 1-7.6.3-2.3.5-4.3.7-5.9.4-3.3.6-5.1.6-5.1s-.2 1.9-.5 5.1c-.2 1.6-.3 3.6-.6 5.9-.2 2.3-.6 4.8-.9 7.6-.2 1.4-.3 2.9-.5 4.4s-.4 3.1-.7 4.7c-.2 1.6-.5 3.2-.7 4.9l-.9 5.1c-.6 3.5-1.4 7-2.2 10.6-.5 1.8-.9 3.6-1.4 5.4s-1 3.6-1.6 5.4-1.2 3.6-1.8 5.3c-.7 1.7-1.4 3.5-2.2 5.2-.4.8-.8 1.7-1.3 2.5-.4.8-.9 1.6-1.4 2.4s-1.1 1.5-1.7 2.1c-.3.3-.7.6-1.1.8l-1.1.8c-2.9 2-5.9 3.7-8.8 5.1s-5.7 2.6-8.3 3.6c-2.6 1-5.1 1.8-7.2 2.6-2.2.7-4.1 1.3-5.7 1.7-3 .7-4.8 1.1-4.8 1.1zM217.8 335.6s1.2.7 2.6 2.2c.4.4.7.8 1.1 1.2.4.4.8.9 1.1 1.5.3.5.8 1.1 1.1 1.7.2.3.3.6.5.9l.4.9c.3.6.5 1.3.8 1.9s.4 1.3.5 1.9c.2.6.2 1.3.3 1.8.1.6.1 1.1.1 1.7v1.4c0 .4-.1.8-.1 1.1-.1.6-.1.9-.1.9v-.9-1.1c0-.4-.1-.9-.1-1.4s0-1.1-.2-1.6c-.1-.6-.1-1.2-.3-1.8-.2-.6-.2-1.3-.5-1.9-.2-.6-.4-1.3-.7-1.9l-.4-.9c-.2-.3-.3-.6-.5-.9-.3-.6-.7-1.1-1-1.7-.4-.5-.7-1-1.1-1.5-.4-.5-.7-.9-1.1-1.2-1.4-1.5-2.5-2.3-2.4-2.3zM312.2 385.1s.4 0 1 .1c.3 0 .7.1 1.2.2.4.1.9.2 1.5.4.5.2 1.1.4 1.7.6s1.2.6 1.8.9c.6.4 1.2.7 1.8 1.2.6.4 1.2.9 1.7 1.4.6.5 1 1.1 1.5 1.6.5.6.9 1.2 1.3 1.8.4.6.7 1.2 1 1.8.3.6.5 1.2.7 1.7s.4 1 .5 1.5c.1.4.2.8.3 1.1.1.6.2 1 .2 1s-.1-.4-.3-1c-.1-.3-.2-.7-.4-1.1-.1-.4-.4-.9-.6-1.4s-.4-1.1-.7-1.6c-.3-.5-.6-1.1-1-1.7s-.8-1.2-1.2-1.7c-.5-.5-.9-1.2-1.4-1.6-.5-.5-1.1-1-1.6-1.5-.6-.5-1.2-.8-1.7-1.2-.6-.3-1.2-.7-1.8-.9-.6-.3-1.1-.5-1.7-.7-.5-.2-1-.3-1.4-.5-.4-.1-.8-.2-1.1-.3-.9-.1-1.3-.1-1.3-.1zM310.3 414s.7.3 1.7.5c.5.1 1.2.2 1.8.2.3 0 .7 0 1-.1s.7-.1 1-.2.7-.2 1-.4c.3-.1.6-.4.9-.5.3-.2.5-.4.7-.6.3-.2.4-.4.6-.6s.4-.3.5-.5.3-.3.4-.4c.2-.2.3-.4.3-.4s-.1.2-.2.5c-.1.1-.2.3-.3.5-.1.2-.3.4-.4.6-.2.2-.3.5-.6.7-.2.2-.5.5-.8.6-.3.2-.6.4-1 .5-.3.1-.7.3-1.1.4s-.7.1-1.1.2h-1.1c-.7 0-1.3-.1-1.9-.3-.8-.3-1.5-.7-1.4-.7z"/></g></svg>