<svg version="1.1" xmlns="http://www.w3.org/2000/svg" x="0" y="0" width="325.984" height="175.111" viewBox="0 0 325.984 175.111" xml:space="preserve"><path d="M314.935 55.108c-8.349-8.835-18.218-16.27-27.908-23.547-10.872-8.166-20.931-17.353-31.663-25.695l-.081-.205c-.182-.46-.74-.689-1.194-.544l-.251.08a.994.994 0 0 0-.399.25c-14.4 2.862-28.056 8.776-41.586 14.307-15.278 6.245-30.551 12.618-45.613 19.369-.053-.001-.104-.005-.155-.007-.193-.151-.38-.132-.529-.022-7.498-.362-14.559-3.131-21.893-4.524-5.455-1.036-11.182-1.205-16.742-1.779-.929-1.219-1.763-2.495-2.428-3.873-.347-.719-1.032-.471-1.325.048-4.664-1.822-9.997-2.604-14.795-3.966-.442-.126-.866.133-1.056.531l-.07.146c-.015.016-.036.021-.05.039-.566.695-1.1 1.416-1.643 2.131-2.594-1.697-5.469-2.163-8.507-2.936a486.818 486.818 0 0 0-13.748-3.281c-9.275-2.078-18.631-3.807-28.055-5.054-7.541-.998-14.709-2.646-22.122-4.313-5.536-1.246-11.967-2.555-17.484-.589-.325-.105-.596.04-.771.304-.076.031-.154.057-.229.09a.672.672 0 0 0-.386.504c-.227.074-.435.255-.546.601-.5 1.553-1.248 3.034-1.95 4.503-.56 1.17-1.345 2.354-1.719 3.613-.514-.241-1.09.626-.801 1.187.493.953 1.081 1.866 1.82 2.647.449.476 1.062 1.13 1.726 1.529-.036.326.062.662.354.807C25.933 33.746 39.4 38.733 52.663 43.932c9.495 3.722 18.995 7.438 28.45 11.261-4.803 2.759-8.891 6.469-12.816 10.402-.365-.161-.663.242-.588.597-4.941 4.993-9.698 10.245-15.407 14.253a.83.83 0 0 0-.402.005c-3.995 1.053-7.983 2.632-11.83 4.129-2.428.944-6.226 2.279-8.048 4.602-.035.004-.066-.005-.104.004-.305.064-.552.259-.759.528-.729-.026-1.125 1.022-.704 1.652-.191.744-.299 1.499-.399 1.947-.415 1.846-.804 3.901-.601 5.801.063.585.438.879.82.905.038.17.114.336.246.479 9.499 10.323 17.616 21.743 26.218 32.796 4.434 5.696 8.295 11.843 12.985 17.338 3.885 4.551 9.569 7.372 12.508 12.735.281.513.69.646 1.062.549.013.155.026.31.05.461-.037.02-.075.037-.112.057-.916.484-.594 2.412.498 1.932 8.654-3.806 17.992-5.756 26.969-8.629 10.367-3.319 20.021-8.868 29.901-13.382 9.818-4.484 19.86-8.094 29.974-11.822 10.49-3.867 20.643-8.643 30.599-13.714 9.565-4.873 18.952-10.023 28.675-14.593 10.232-4.809 20.641-9.235 31.071-13.592 10.3-4.301 20.967-7.802 31.148-12.366 7.626-3.419 16.137-5.962 22.651-11.39.889-.741.315-2.636-.638-2.523.274-1.989.641-4.042.224-5.932.486-.383.845-.829.926-1.358.032-.21.02-.404-.022-.583.148-.45.103-.976-.273-1.373zM143.144 36.99c7.821 1.285 15.154 4.425 23.156 4.662 2.977 4.414 7.128 8.256 10.768 12.044 4.74 4.933 9.625 9.724 14.389 14.636 9.262 9.551 17.657 19.888 25.902 30.316 1.006 1.271 2.487-.691 1.574-1.838-8.292-10.406-16.682-20.732-25.966-30.28-4.448-4.575-9.015-9.034-13.501-13.571-3.834-3.879-7.372-8.31-11.376-12.061a257.36 257.36 0 0 0 10.794-4.151c-1.337.8-2.653 1.666-3.981 2.555-.497.333-.04 1.208.486.855 3.89-2.603 7.711-5.178 12.431-5.928.594-.095.581-1.095-.016-1-.394.062-.771.154-1.151.239 8.56-3.697 17.057-7.576 25.646-11.081-4.364 3.419-8.495 7.235-13.19 10.403-3.752 2.531-8.206 3.697-12.428 5.209-2.638.943-7.478 2.094-8.941 4.817-.291.542.508 1.062.814.491.735-1.368 2.794-2.104 4.114-2.688 1.953-.862 3.98-1.562 5.993-2.27 3.79-1.333 7.55-2.497 10.934-4.705 4.551-2.969 8.477-6.795 12.669-10.224a54.945 54.945 0 0 1 2.911-2.212c12.68-5.19 25.496-10.524 38.97-13.189.039-.008.07-.023.106-.035.914.745 1.826 1.492 2.736 2.242-3.433.875-6.629 2.391-9.75 4.073-.526.283-.069 1.154.484.855 3.267-1.761 6.612-3.31 10.234-4.131 2.68 2.216 5.346 4.448 8.013 6.68-7.868.967-14.674 5.388-21.912 8.374-7.581 3.129-15.301 6.398-21.686 11.66-5.454 4.494-7.283 11.957-12.779 16.428-2.373 1.931-5.268 3.461-7.935 4.936-2.79 1.542-5.964 3.388-9.186 3.793-.601.076-.587 1.076.016 1 5.333-.672 10.806-4.368 15.194-7.256 2.608-1.717 4.678-3.53 6.523-6.078 2.127-2.935 3.76-6.188 5.958-9.077 5.13-6.743 14.362-10.333 21.914-13.513 3.813-1.605 7.54-3.249 11.257-5.07 4.368-2.143 8.836-3.898 13.713-4.295 1.063.889 2.128 1.777 3.192 2.664-8.082 1.896-14.686 7.637-21.782 11.674-7.114 4.047-15.613 6.574-20.98 13.104-.131.157-.195.426-.064.606 4.645 6.428 13.351 2.576 19.572 1.256 2.271-.481 4.617-.508 6.906-.916 2.699-.481 5.325-1.338 7.904-2.251 5.149-1.822 10.123-4.033 15.484-5.201.586-.128.338-1.092-.266-.96-9.111 1.984-17.296 6.938-26.663 7.911-3.095.322-6.001 1.021-9.021 1.775-3.619.902-7.821 1.828-11.22-.218-.881-.53-1.938-1.372-1.105-2.309.724-.813 1.561-1.529 2.4-2.216 1.477-1.208 3.117-2.213 4.762-3.171 3.558-2.074 7.348-3.725 11.007-5.604 7.973-4.096 15.033-10.917 24.036-12.674 1.197.994 2.397 1.984 3.6 2.972-4.23 1.278-8.437 2.62-12.48 4.427-4.04 1.805-8.492 4.251-10.591 8.341-.133.259-.023.663.292.729 10.254 2.174 18.114-7.412 28.124-7.317.609.006.592-.994-.016-1-9.683-.092-17.494 9.065-27.234 7.464 2.319-3.862 6.921-6.066 10.896-7.787 3.864-1.673 7.903-2.895 11.933-4.1a411.485 411.485 0 0 0 9.063 7.227c9.598 7.404 19.159 14.703 27.79 23.237-.51.212-1.289.752-1.655.929-1.475.709-2.979 1.357-4.478 2.014-3.415 1.498-6.813 3.029-10.216 4.557-10.322 4.635-20.884 8.632-31.268 13.121-10.49 4.535-20.766 9.59-30.935 14.799s-20.133 11.064-30.67 15.502c-9.548 4.02-19.605 6.729-29.484 9.79-10.701 3.315-20.88 7.653-31.101 12.21-10.351 4.615-20.688 9.205-31.172 13.506-1.488.61-3.008 1.19-4.531 1.774a167.922 167.922 0 0 0 9.907-16.288c3.717-7 6.382-14.504 10.107-21.505.383-.718-.013-1.471-.57-1.743-.149-.455-.51-.82-1.074-.822-12.517-.019-24.977-.775-37.478-1.126-8.904-.25-19.955 1.303-28.009-3.351.703-3.334 1.471-6.247.826-9.665 7.551.72 15.133.991 22.685 1.795 7.599.808 15.171 1.829 22.801 2.306 14.358.896 29.468-.41 43.608 2.54.734.153 1.21-.363 1.329-.964.227.227.536.33.876.202 6.091 1.977 12.719 2.692 19.089 2.753.665.006 1.035-.649 1.053-1.233.052-1.679.31-3.329.442-4.996.2-.377.207-.881.035-1.268a.903.903 0 0 0-.113-.296c.294-.467.373-1.137-.023-1.641-8.132-10.338-17.055-20.023-25.048-30.473-4.068-5.318-8.028-10.721-12.044-16.08-1.897-2.533-4.24-4.817-6.392-7.227 4.34 1.506 9.998.935 14.063 1.602zm-26.217 70.946c.367-.354.361-.924.156-1.394 2.496.069 4.992.116 7.491.128-3.203 6.255-5.767 12.81-8.855 19.121-3.206 6.554-7.968 12.398-10.976 19.03-1.711-1.845-3.531-3.554-5.151-5.517-.851-1.031-1.839-2.525-3.095-3.26 6.306-9.707 12.003-20.03 20.43-28.108zm-10.6-77.488c.16-.138.284-.336.36-.564.569-.799 1.042-1.694 1.559-2.511 1.089 1.104 2.067 2.78 2.938 3.849a190.19 190.19 0 0 1 4.523 5.738c4.791 6.363 8.28 13.709 12.865 20.247 7.841 11.179 15.201 24.356 25.733 33.306a1.18 1.18 0 0 0-.037.913c-.25.239-.514.468-.784.685-.377.302-.768.588-1.159.871-.032-.043-.062-.087-.102-.127-8.89-9.035-15.099-20.254-22.687-30.324-3.958-5.252-8.182-10.295-12.091-15.59-3.95-5.353-7.388-11.005-11.118-16.493zm10.42-.39c.484 1.821 1.906 3.106 3.614 3.823.231.098.546-.123.579-.359.139-.978.005-1.826-.373-2.565 1.02.207 2.029.393 3.013.531.022.003.04-.005.062-.003 1.583 3.701 5.159 6.561 7.78 9.449 4.788 5.276 8.665 11.674 12.983 17.347 8.446 11.099 17.795 21.438 26.421 32.39a31.433 31.433 0 0 1-6.679.069c-.78-.072-5.582-.232-7.61-.673a1.129 1.129 0 0 0-.341-.85c-10.808-10.892-18.935-23.686-27.808-36.124-4.595-6.44-7.888-13.711-12.879-19.876-.835-1.031-1.981-2.869-3.277-4.514 1.48.494 2.993.95 4.515 1.355zm2.428.602c.549.545.852 1.197.874 1.988-.965-.522-1.753-1.303-2.188-2.3.439.11.876.213 1.314.312zm50.949 65.508c-5.329-.105-10.74-.647-15.971-1.744.214-.154.432-.306.641-.467.627-.485 1.302-1.006 1.67-1.688 4.549.482 9.455 1.718 13.982.957a26.782 26.782 0 0 0-.322 2.942zM34.864 15.024c7.132 1.662 14.024 3.04 21.283 4.007 8.485 1.13 16.901 2.761 25.263 4.583 4.158.906 8.3 1.892 12.434 2.908 3.447.848 7.271 1.311 10.351 3.155-.181.569.131 1.192.606 1.412a71.715 71.715 0 0 0 2.034 4.006c-4.673-.475-10.603.983-14.024-2.724-.195-.211-.479-.158-.674.01-2.767 2.394-8.319 1.058-10.66-1.344-.449-.461-1.09.278-.66.719 2.489 2.554 8.648 4.225 11.661 1.619-.21.182 2.095 1.502 2.202 1.545 1.197.473 2.408.701 3.682.846 3.02.344 6.079-.095 9.085.412 5.492 9.671 13.083 18.566 19.865 27.109 7.993 10.067 14.068 21.541 23.002 30.87-5.346-1.46-11.289-1.399-16.781-1.661-8.14-.389-16.292-.434-24.433-.796-14.367-.64-29.017-4.053-43.466-3.778 3.001-1.236 5.958-2.826 8.765-3.993 4.686-1.947 9.199-4.021 13.41-6.866a91.857 91.857 0 0 0 3.142-2.23c.051 2.258 1.714 4.715 3.658 5.631 1.06.498 2.046.073 2.86-.629-.506.436 2.851 2.133 3.381 2.148 1.271.039 2.652-.963 3.848-1.312 3.621-1.056 7.308-.476 10.946.001 6.358.831 12.8-.012 19.177.558.202.019.426-.18.457-.374.158-1.006-.063-1.115-.896-1.562-.553-.296-.994.55-.491.854-.896-.08-1.797-.107-2.695-.139-1.788-.062-3.58-.024-5.369 0-4.289.058-8.436-.096-12.684-.729-2.903-.432-5.86-.195-8.716.43-.929.203-1.794.664-2.666 1.027-1.782.744-2.929-.771-3.948-2.034-.162-.2-.52-.179-.678.011-2.385 2.84-5.637-2.146-5.191-4.526.007-.035-.001-.065-.001-.099 6.887-5.167 13.652-10.958 22.192-12.78.859-.183.963-1.253.553-1.938a1.117 1.117 0 0 0-.081-.532c-1.667-3.647-4.934-6.396-8.375-8.87 1.381-2.726 4.632-1.234 6.796-.422.586.221.806-.755.238-.968-2.645-.993-6.173-2.299-7.823.827-2.131-1.5-4.287-2.913-6.136-4.383-.292-.232-.565-.26-.794-.16-13.354-6.935-27.329-12.567-41.507-17.573-7.645-2.698-15.385-5.034-22.936-8.011-5.264-2.074-11.45-3.405-16.396-6.33 5.744-.618 11.637.78 17.19 2.075zm70.852 37.581c2.593 1.94 4.5 4.156 6.546 6.518-4.644 1.218-8.834 3.572-12.81 6.312-.531-.821-1.354-1.522-1.991-2.206-.687-.738-1.39-1.456-2.09-2.178 2.638-3.281 4.725-7.877 5.516-11.986 1.603 1.187 3.23 2.343 4.829 3.54zm-12.305 9.049c.833 1.14 1.752 2.194 2.697 3.245.486.539.97 1.242 1.527 1.819-3.095 2.243-6.081 4.647-9.075 6.84-4.602 3.371-9.536 5.787-14.772 8.011-.784.333-1.609.658-2.451.986 4.24-3.779 8.418-7.631 12.589-11.486 3.231-2.986 6.612-6.034 9.485-9.415zM11.43 22.865c.02-.021.041-.03.06-.056.883-1.164 1.418-2.678 2.046-3.995.773-1.622 1.36-3.269 1.684-5.034a20.928 20.928 0 0 0 3.52 2.23c-1.668 2.851-3.01 5.818-4.441 8.843a1.163 1.163 0 0 0-.1.35c-.548-.591-1.357-.987-1.953-1.524-.286-.26-.552-.536-.816-.814zm3.179 3.39c.037.032.075.062.114.088l-.125-.05c.002-.012.008-.025.011-.038zm.484.232c.326.052.671-.09.902-.546 1.552-3.056 2.629-6.242 3.768-9.437 3.572 1.641 7.48 2.604 11.127 4.096 7.532 3.079 15.203 5.732 22.944 8.234a284.48 284.48 0 0 1 43.771 18.34c.331.173.636.173.894.068.249.198.502.39.754.584-.463 2.434-1.4 4.621-2.558 6.798-.562 1.057-1.245 2.077-1.882 3.118-.255-.137-.569-.126-.886.13-13.047-5.489-26.261-10.563-39.453-15.693-13.169-5.122-26.198-10.615-39.381-15.692zM69.692 67.76c1.561 1.135 3.119 2.273 4.887 3.072.575.26 1.024-.619.467-.871-1.678-.758-3.166-1.822-4.646-2.897 3.877-3.825 7.887-7.495 12.616-10.31a.983.983 0 0 0 .458-.613 997.083 997.083 0 0 1 8.63 3.568c-3.688 3.763-7.296 7.577-11.152 11.193-3.891 3.648-7.82 7.229-11.244 11.332-.21.251-.165.671.009.953-2.939 1.154-5.962 2.447-8.325 4.359-.574-1.339-2.126-2.122-3.301-2.893-1.409-.925-2.78-1.861-3.929-3.072 5.821-3.837 10.599-8.918 15.53-13.821zM51.935 82.674a.765.765 0 0 0 .659-.09l.017-.011c.972 1.259 2.134 2.286 3.444 3.229.744.536 1.51 1.043 2.257 1.575.505.36.985.866 1.532 1.2a.945.945 0 0 0-.108.545c-.027.031-.058.06-.085.091-.11.129-.055.479.168.446.037-.006.074-.017.11-.022a.809.809 0 0 0 .337.238c-.022 3.399-1.714 6.942-2.39 10.243-.165.807.448 1.357 1.023 1.358 7.718 4.961 18.634 3.887 27.371 3.992 9.604.116 19.19.704 28.792 1.015-8.485 8.06-14.146 18.627-20.293 28.454-.331.53-.159 1.25.193 1.665.928 1.934 2.63 3.621 3.958 5.285 1.108 1.391 2.32 3.108 3.794 4.299-1.768.729-3.505 1.508-5.171 2.393-4.237 2.252-8.207 4.992-12.748 6.594a1.232 1.232 0 0 0-.22-.354c-10.317-11.456-20.185-23.434-29.9-35.402-4.456-5.49-8.695-11.438-12.518-17.383-2.462-3.828-4.887-8.032-8.534-10.839 5.216-4.651 12.618-4.812 18.312-8.521zm20.708 67.661c-5.027-4.788-8.549-11.167-12.714-16.681-8.903-11.783-17.625-24.063-28.043-34.572.476-.203.926-.609 1.359-.834.211-.11.037-.492-.199-.37-.474.247-1.054.553-1.473.925a.784.784 0 0 0-.376-.129c.101-1.459.438-2.914.752-4.334.092-.416.279-.924.47-1.459 4.091 3.402 6.55 8.471 9.479 12.834 3.793 5.65 7.811 11.287 12.095 16.575 9.378 11.576 18.752 23.582 29.055 34.349.141.147.285.245.428.303.124.257.344.432.658.401a20.105 20.105 0 0 0-.569 2.819l-.114.838c-2.636-4.344-7.18-7.209-10.808-10.665zm239.75-90.815c.001.878-.099 1.756-.19 2.627-.134 1.26-.317 2.531-.398 3.8-6.347 4.583-14.248 6.997-21.312 10.164-9.865 4.423-20.231 7.787-30.216 11.948-20.428 8.514-40.077 18.091-59.751 28.184-9.546 4.896-19.303 9.389-29.321 13.232-10.492 4.025-21.006 7.653-31.259 12.305-9.54 4.327-18.78 9.615-28.688 13.053-8.689 3.016-17.861 4.705-26.185 8.677.087-1.04.039-2.117.095-3.132.06-1.081.088-2.158.001-3.23 3.751-.808 7.022-2.815 10.35-4.709 4.875-2.778 10.25-4.621 15.433-6.743 10.918-4.471 21.699-9.197 32.478-13.995 10.648-4.741 21.259-9.131 32.406-12.568 10.751-3.316 21.592-6.35 31.883-10.965 10.519-4.717 20.568-10.636 30.846-15.855 10.576-5.373 21.318-10.443 32.254-15.041 10.594-4.453 21.379-8.42 31.73-13.445 2.741-1.33 5.588-2.451 8.358-3.722.381-.175.918-.377 1.486-.622-.002.01 0 .024 0 .037z"/><path d="M130.336 49.167c.698.36 1.707.69 2.375.105.623-.547.244-1.487-.215-2.243.179-.223.2-.578-.116-.735a9.313 9.313 0 0 0-.639-.29.5.5 0 0 0-.119-.047 2.773 2.773 0 0 0-.984-.195c-.391 0-.819.207-1.155.4-.414.238-.68.629-.711 1.105-.056.866.895 1.555 1.564 1.9zm-.618-1.886l.004-.011c0 .005 0 .021.004.054-.004-.028-.007-.037-.008-.043zm2.336 1.27l-.003.002c.002 0 .002-.003.017-.021l-.014.019zm-2.196-1.459c.028-.025.242-.145.354-.189.376-.151.696-.124 1.017-.024.276.378.55.773.72 1.206.064.166.097.303.102.396.003.044-.001.065-.002.074-.002.001-.001-.001-.003.001-.023.016.053-.01-.072.025-.014.004-.014.005-.016.006l-.042.003a1.43 1.43 0 0 1-.207-.001 4.718 4.718 0 0 1-.334-.069 3.442 3.442 0 0 1-.426-.151 3.854 3.854 0 0 1-.766-.463 2.477 2.477 0 0 1-.312-.311c-.027-.031-.021-.022-.078-.116l-.04-.073-.006-.01-.005-.02c-.008-.023-.021-.112-.021-.104l.009-.028.001-.008a.36.36 0 0 0 .03-.047c-.05.085.068-.07.097-.097zM138.182 57.797c.767.035 1.831-.194 2.113-1.015.268-.78-.396-1.42-1.122-1.883l.107-.022c.597-.148.339-1.111-.27-.961-.399.1-.792.189-1.161.328a.472.472 0 0 0-.372.166 2.46 2.46 0 0 0-.518.355c-.439.4-.825 1.014-.773 1.631.085 1.003 1.136 1.361 1.996 1.401zm-.534-2.336c.062-.061.142-.102.218-.148.428.211.854.439 1.21.752.122.107.217.213.287.336.044.074.022.084.019.096.021-.08-.053.043-.04.033-.118.092-.168.105-.261.141-.299.112-.536.131-.856.128-.242-.002-.556-.056-.73-.133a.794.794 0 0 1-.261-.162c-.068-.063-.092-.131-.091-.122-.045-.309.235-.651.505-.921zM163.94 89.923c-1.052-3.042-4.68-5.019-4.963-8.275 4.199.787 4.905 5.679 7.501 8.44.441.471 1.092-.266.668-.717-2.987-3.179-3.518-8.277-8.675-8.809-.279-.028-.463.27-.472.508-.156 3.912 3.849 5.75 5.019 9.133.21.608 1.13.322.922-.28zM107.913 68.165c6.599 3.08 13.885 1.319 20.78 3.049.609.152.833-.819.238-.969-6.781-1.7-14.081.069-20.552-2.951-.573-.267-1.021.612-.466.871zM139.027 43.214c2.089.597 4.485.473 6.634.721 1.516.175 3.044.421 4.487.928 2.134.749 1.141 2.051-.25 3.106-.399.304-.228.869.256.928 5.232.635 10.419-1.229 15.666-1 .619.027.601-.973-.016-1-4.851-.212-9.648 1.36-14.479 1.1 1.521-1.604 1.441-3.268-1.252-4.212-3.487-1.224-7.319-.542-10.808-1.539-.603-.173-.827.799-.238.968zM164.693 69.214c6.512.956 13.014-.525 19.461-1.317.611-.075.6-1.076-.016-1-6.344.779-12.8 2.29-19.207 1.349-.616-.091-.845.879-.238.968zM171.138 80.23c-.609.087-.599 1.088.016 1 4.313-.619 10.036-.88 13.883 1.676-.017.054-.045.1-.039.165.363 4.118-6.204 3.363-8.731 2.842-.616-.127-.847.844-.24.969 2.998.618 9.537 1.123 9.932-2.996.154.031.32.043.529.012.391-.059.673-.543.327-.859-3.995-3.665-10.656-3.529-15.677-2.809zM189.154 90.23c1.854-.073 6.194-.019 6.071-2.851-.097-2.227-2.54-4.096-1.326-6.404.293-.557-.539-1.062-.84-.49-.909 1.729-.222 3.438.538 5.078.311.672.918 1.678.571 2.434-.624 1.361-3.884 1.188-5.03 1.233-.624.024-.608 1.024.016 1zM199.576 84.498c1.617.744 3.32.699 5.039.379.609-.113.344-1.075-.271-.961-1.436.268-2.938.334-4.295-.289-.577-.264-1.037.613-.473.871zM146.691 105.547c3.147 1.014 6.354 1.608 9.592.662.597-.174.334-1.137-.273-.959-3.07.896-6.102.287-9.076-.671-.604-.194-.832.779-.243.968zM190.267 109.579c-9.844-2.534-20.101-2.438-30-4.667-.617-.139-.849.832-.242.969 9.9 2.229 20.157 2.133 30 4.666.614.158.846-.812.242-.968zM168.228 111.302c-5.29 2.718-11.824.034-17.424-.072-.242-.005-.409.182-.455.396-2.636.221-5.287.308-7.93.369-1.702.04-3.406.046-5.108-.002-.743-.021-3.289-.437-3.365-.138.157-.617-.773-.877-.934-.252-.583 2.274 16.232 1.141 18.142.959a.513.513 0 0 0 .416-.3c5.624.299 11.876 2.608 17.16-.105.552-.284.064-1.145-.502-.855zM152.471 120.23c-8.232.706-17.077 1.595-25.204-.317-.615-.145-.846.826-.242.969 8.226 1.937 17.134 1.063 25.462.349.621-.055.608-1.055-.016-1.001zM103.138 96.563c-4.369.297-9.396.13-12.66-3.191a.465.465 0 0 0-.58-.069c-3.832 2.536-8.663 1.976-12.967 1.277-.615-.101-.843.87-.238.968 2.422.394 4.836.67 7.294.582 1.031-.035 2.047-.22 3.051-.445.364-.082 2.973-1.395 3.245-1.117 3.161 3.217 8.715 3.278 12.871 2.996.619-.042.606-1.042-.016-1.001zM115.471 98.23c-.535.003-.935.13-1.338.485-.467.412.212 1.118.691.696.201-.177.409-.181.662-.182.625-.002.608-1.002-.015-.999zM67.912 82.165c.523.363.97-.523.469-.871-2.036-1.414-4.002-3.626-5.158-5.823-.302-.572-1.11-.035-.82.518 1.238 2.353 3.334 4.667 5.509 6.176zM73.154 75.563c.62.016.603-.984-.016-1-2.286-.057-4.345-.951-5.995-2.525-.465-.443-1.108.293-.662.719 1.836 1.751 4.131 2.742 6.673 2.806zM77.027 64.881c1.919.372 3.425 1.53 4.788 2.875.458.451 1.102-.285.662-.719-1.473-1.452-3.14-2.723-5.212-3.125-.613-.119-.838.852-.238.969zM52.598 35.579c-3.796-1.292-7.431-2.913-10.886-4.952-.411-.242-.765.193-.693.559-5.977-1.564-12.455-4.25-16.876-8.481-.464-.444-1.108.291-.662.718 4.924 4.712 12.336 7.6 18.879 9.125a.438.438 0 0 0 .471-.172 60.5 60.5 0 0 0 9.529 4.172c.595.202.817-.772.238-.969zM78.598 44.912c-4.533-.914-8.543-3.881-12.385-6.406a.553.553 0 0 0-.167-.212c-3.258-2.427-6.991-3.986-10.781-5.382-.589-.217-.812.758-.238.969 3.383 1.245 6.696 2.638 9.673 4.669a.494.494 0 0 0 .212.282c4.17 2.672 8.491 6.049 13.448 7.049.614.124.843-.847.238-.969zM90.715 50.627c-3.592-1.701-6.631-4.265-10.001-6.333-.544-.334-.992.55-.469.871 3.369 2.069 6.409 4.632 9.999 6.333.573.272 1.027-.607.471-.871zM56.82 112.563c5.618.488 10.77-2.19 16.334-2.333.619-.017.604-1.016-.016-1-5.561.143-10.731 2.819-16.334 2.333-.616-.053-.595.947.016 1zM67.281 124.543c12.202-3.895 23.938-9.293 36.666-11.334.604-.096.344-1.058-.27-.959-12.728 2.04-24.465 7.439-36.666 11.333-.587.188-.33 1.152.27.96zM92.011 128.25c-4.291 1.938-8.739 3.323-13.334 4.333-.602.132-.342 1.095.27.96 4.596-1.01 9.044-2.395 13.334-4.334.555-.25.301-1.218-.27-.959zM88.344 139.25c-2.103.373-4.074 1.078-5.781 2.385-.484.372-.007 1.244.5.855 1.646-1.261 3.526-1.922 5.553-2.281.606-.107.343-1.068-.272-.959zM105.913 139.498c.562.299 1.006-.584.467-.871-2.789-1.484-4.576-4.237-6.57-6.59-.415-.49-1.055.253-.66.719 2.051 2.421 3.893 5.215 6.763 6.742zM106.914 133.832c.537.341.979-.545.465-.871-1.59-1.009-2.729-2.651-3.443-4.372-.244-.588-1.155-.304-.912.281.816 1.966 2.067 3.807 3.89 4.962zM108.579 128.165c.527.356.97-.53.467-.871-.898-.607-1.494-1.31-1.776-2.371-.167-.625-1.076-.331-.914.28.349 1.311 1.115 2.213 2.223 2.962zM113.072 120.989c.304.572 1.106.031.814-.518-.378-.711-.955-1.289-1.333-2-.304-.572-1.105-.031-.814.518.378.71.955 1.289 1.333 2zM117.338 117.071c.027.639.978.626.949-.016-.017-.396-.222-.728-.478-1.018-.427-.481-1.065.261-.66.719.077.086.187.275.189.315zM123.344 147.583c-8.854 3.455-17.708 8.474-27.54 7.313-.611-.072-.59.929.016 1 9.92 1.17 18.858-3.867 27.794-7.354.567-.22.315-1.186-.27-.959zM139.898 140.635c-2.75 1.287-5.777 1.598-8.76 1.928-.61.068-.598 1.068.016 1 3.166-.351 6.324-.707 9.24-2.072.554-.259.075-1.123-.496-.856zM252.502 69.358c3.801-1.399 7.729-2.343 11.506-3.84 3.762-1.49 7.419-3.24 11.097-4.925 6.23-2.854 12.655-6.854 19.716-7.03.608-.015.593-1.015-.016-1-6.136.153-12.196 3.168-17.574 5.875-7.225 3.637-14.72 7.047-22.551 9.146-7.852 2.104-14.874 6.649-22.666 9-3.98 1.201-8.178 1.352-12.191 2.417-3.748.994-6.72 4.019-10.684 4.229-.61.032-.596 1.032.016 1 3.105-.165 5.58-1.893 8.269-3.272 3.714-1.905 8.193-1.973 12.225-2.752 8.029-1.554 15.241-6.047 22.853-8.848zM267.347 70.916c-3.211 1.064-6.512 1.818-9.715 2.905-3.334 1.132-6.23 3.084-9.424 4.516-3.084 1.382-6.377 2.28-9.63 3.161-6.284 1.703-12.64 3.287-18.011 7.137-.488.351-.026 1.226.488.855 5.518-3.955 12.098-5.49 18.544-7.236 3.267-.885 6.49-1.889 9.583-3.275 3.195-1.432 6.074-3.3 9.418-4.436 3.23-1.097 6.568-1.856 9.808-2.932 3.282-1.088 6.323-2.896 9.382-4.474 6.799-3.507 14.232-5.227 20.598-9.647.491-.34.035-1.216-.484-.855-6.129 4.256-13.234 6.025-19.844 9.266-3.552 1.742-6.938 3.763-10.713 5.015zM236.252 63.6c8.494-1.995 17.301-4.072 25.424-7.285 4.198-1.66 8.165-3.154 12.595-4.138 4.619-1.024 9.255-1.893 13.674-3.634.556-.219.312-1.188-.264-.96-7.697 3.032-16.311 3.201-23.82 6.718-7.409 3.469-15.561 4.996-23.392 7.195-7.707 2.164-15.639 3.385-23.41 5.279-2.979.726-5.943 1.482-8.981 1.922-2.988.434-6.798.748-9.271-1.326-.489-.41-1.118.326-.652.717 4.023 3.373 10.578 1.66 15.168.62 7.634-1.729 15.308-3.317 22.929-5.108zM280.722 37.49c1.4-.688 2.857-1.22 4.432-1.261.607-.016.592-1.016-.016-1-1.746.046-3.351.644-4.902 1.405-.538.266-.077 1.134.486.856zM210.135 40.965c3.735-5.758 10.354-9.289 16.305-12.326 5.724-2.923 10.396-6.803 15.615-10.481.485-.342.032-1.22-.484-.855-4.702 3.314-8.911 7.121-14.096 9.714-5.512 2.758-10.629 5.758-15.237 9.878-4.327 3.868-5.835 9.891-10.386 13.641-4.498 3.706-10.672 5.661-16.38 6.362-.601.074-.587 1.074.016 1 5.104-.627 10.046-2.236 14.477-4.857 4.861-2.88 7.201-7.5 10.17-12.076z"/></svg>