<svg version="1.1" xmlns="http://www.w3.org/2000/svg" x="0" y="0" width="325.984" height="184.593" viewBox="0 0 325.984 184.593" xml:space="preserve"><path d="M149.49 109.474c-.974 0-1.862-.178-2.667-.536a5.731 5.731 0 0 1-2.075-1.552c-.578-.676-1.024-1.491-1.345-2.45-.319-.957-.479-2.043-.479-3.259 0-1.201.16-2.277.479-3.229.318-.949.768-1.75 1.345-2.406a5.888 5.888 0 0 1 2.075-1.504c.806-.353 1.694-.524 2.667-.524.972 0 1.861.175 2.668.524a5.974 5.974 0 0 1 2.086 1.504c.584.656 1.038 1.457 1.356 2.406.317.948.479 2.024.479 3.229 0 1.216-.16 2.302-.479 3.259-.318.959-.771 1.774-1.356 2.45a5.868 5.868 0 0 1-2.086 1.552c-.807.358-1.695.536-2.668.536zm0-2.303c.593 0 1.125-.129 1.597-.387.473-.262.874-.627 1.208-1.105s.595-1.057.775-1.732c.183-.677.271-1.434.271-2.27 0-1.672-.346-2.982-1.036-3.934-.691-.953-1.632-1.427-2.815-1.427-1.187 0-2.124.478-2.815 1.427-.689.948-1.036 2.262-1.036 3.934 0 .836.091 1.593.271 2.27.183.678.439 1.254.774 1.732.334.479.736.847 1.209 1.105a3.279 3.279 0 0 0 1.597.387zM167.207 109.201l-3.214-5.836h-2.28v5.836h-2.645V94.289h5.04c.772 0 1.497.076 2.166.229.669.151 1.245.397 1.73.741.485.341.87.795 1.151 1.357.281.561.422 1.262.422 2.098 0 1.14-.271 2.06-.811 2.759-.538.698-1.261 1.202-2.153 1.505l3.557 6.225h-2.966l.003-.002zm-5.495-7.935h2.121c1.02 0 1.797-.214 2.337-.64.539-.424.812-1.063.812-1.914 0-.866-.271-1.467-.812-1.801s-1.317-.502-2.337-.502h-2.121v4.857z"/><g><path d="M109.445 8.376C102.329 3.682 93.803 1.652 85.469.512 66.397-2.1 45.629-1.736 28.762 8.599 16.036 16.397 10.115 29.934 11.47 44.648c.034.371.39.604.669.556-1.021 2.94-1.423 6.185-1.664 9.098-.307 3.717-.041 7.387.328 11.088.42 4.22-1.152 7.81-1.369 11.935-.069 1.307 1.66 1.217 1.758-.043.254-3.246 1.777-6.208 1.712-9.489-.063-3.252-.625-6.461-.597-9.724.055-6.412 1.003-12.722 5.365-17.658.16-.181.231-.415.238-.656 1.137-.823 2.352-1.498 3.865-1.914 3.148-.865 6.656-.014 9.639 1.044 5.678 2.013 11.683 6.719 13.183 12.781.272 1.099 1.472 1.11 2.012.253 1.219-1.937 1.87-4.007 2.193-6.178 4.123 6.282 5.492 13.354 6.086 20.922.068.863 1.202 1.849 1.885.85 3.008-4.4 3.638-9.943 3.55-15.152l-.004-.153c5.1 5.684 7.225 13.986 7.002 21.454-.021.681.871 1.545 1.516.947 3.926-3.636 4.263-9.345 4.012-14.377-.227-4.559-.875-11.312-4.005-14.908-.615-.706-1.477.175-1.271.904 1.166 4.128 2.593 7.931 3.108 12.244.452 3.782.653 8.792-1.411 12.311-.332-7.313-2.712-16.512-9.017-20.241-.268-4.489-1.353-10.139-4.843-12.821-.866-.665-1.606.758-1.195 1.465 3.833 6.599 5.719 16.329 2.497 23.776-.925-7.74-2.978-14.873-7.986-21.237-.745-.947-1.806.063-1.833.939-.063 2.034-.364 3.933-1.067 5.739-2.516-5.687-8.272-9.71-13.911-11.9-5.19-2.016-13.14-2.125-16.355 2.997-1.331 1.312-2.301 2.91-3.02 4.65.818-7.968 1.518-15.843 5.896-22.809C23.628 13.076 33.1 8.046 42.103 5.097c10.131-3.319 21.06-3.665 31.616-3.091 9.359.51 18.851 1.612 27.637 5.037 19.292 7.521 29.076 29.794 33.767 48.544 2.736 10.935 2.784 22.141.634 33.181-1.771 9.095-5.537 17.533-7.984 26.426-1.885 6.848-3.228 15.271.128 21.805-3.49-1.05-6.933-2.276-9.766-4.65-1.293-1.084-2.679.745-1.643 1.908 2.308 2.59 6.445 5.171 7.804 8.4.658 1.565 2.641.061 2.035-1.375-.386-.914-.965-1.771-1.651-2.588 1.963.706 3.982 1.302 6.004 1.918 1.341.41 1.902-1.431 1.145-2.286-6.028-6.803-3.181-17.594-.865-25.364 2.727-9.153 6.259-17.821 7.788-27.326 3.188-19.83-2.222-40.176-11.933-57.487-4.338-7.733-9.923-14.857-17.374-19.773z"/><path d="M121.712 142.139c-4.139-2.388-9.959-3.687-11.079-9.175-.196-.963-1.476-1.118-1.891-.236a26.014 26.014 0 0 0-2.004 6.146c.001-.093-.004-.184-.002-.276.119-5.626 2.02-10.962 2.788-16.489a16.428 16.428 0 0 0 1.603-3.278c.003-.01.002-.021.005-.03 3.477.624 7.239.371 9.487-2.625 1.925-2.566 2.559-6.085 3.329-9.111 1.08-4.243 1.859-8.516 1.334-12.896-.647-5.398-4.367-11.39-9.875-12.733-2.803-.684-4.947.727-6.974 2.449-1.095.932-2.937 2.355-2.488 3.998.171.624 1.073.883 1.346.171.531-1.389 2.453-2.508 3.586-3.346 2.335-1.724 4.87-1.127 7.116.38 5.189 3.481 5.779 10.851 4.936 16.366-.661 4.325-1.623 9.918-4.309 13.474-2.029 2.687-6.248 1.062-9.001 1.223-1.059.062-1.277 1.648-.462 2.148-3.907 6.207-9.188 10.345-14.784 15.032-5.758 4.823-11.875 10.446-16.038 16.769-2.756-4.997-4.269-9.646-4.038-15.519.175-4.462 2.155-9.183 1.667-13.658 1.831-.563 3.72-.987 5.532-1.568 1.093-.351 2.29-.691 3.402-1.17a12.569 12.569 0 0 0 3.648-1.132c3.923-1.896 7.424-4.969 9.943-8.504 5.436-7.631 2.367-18.834 1.284-27.271-.061-.47-.29-1.143-.857-1.223-1.441-.202-2.862-.265-4.282-.251.66-11.963-14.367-15.444-21.223-22.284-.132-.132-.303.064-.216.204 5.396 8.674 18.622 10.869 19.453 22.153-.954.057-1.911.131-2.879.23-4.104.425-8.206.416-12.328.302-8.441-.232-16.85-1.173-25.273-1.712-7.109-.456-14.064-.17-21.157.365-7.036.531-14.309 1.052-21.263-.42-.105-.347-.368-.632-.791-.649-5.934-.249-3.331 7.937-3.392 11.413-.069 3.957-2.756 14.966 2.233 17.33.338.16.689.302 1.048.435-1.665 2.684-1.562 6.146 1.383 8.098-1.834 10.95 2.947 21.535 6.219 31.79 2.759 8.646 2.118 18.509 9.754 24.693 5.983 4.845 15.044 4.503 22.141 3.122 1.816-.354 3.611-.789 5.4-1.25-.039.47.014.992.088 1.51.236 1.642.481 3.946 1.453 5.331.517.737 1.546.425 1.515-.514-.049-1.469-.738-2.972-1.104-4.391a34.8 34.8 0 0 1-.458-2.116l-.038-.198c3.234-.855 6.458-1.756 9.752-2.402 6.901-1.355 13.871-2.248 20.705-3.946.804-.199 1.005-1.315.652-1.948-1.571-2.816-3.883-5.109-5.337-7.998-.768-1.526-2.674-.009-1.982 1.373 1.173 2.344 2.898 4.29 4.351 6.437-10.286 2.438-20.747 3.745-30.966 6.562-7.57 2.086-16.716 3.235-23.806-.934-8.124-4.777-7.537-16.099-10.013-24.057-3.092-9.939-7.69-19.8-6.532-30.404 1.704.229 3.699-.292 5.17-.607 3.503-.753 6.868-2.021 10.218-3.262 7.423-2.749 14.713 3.179 21.47 5.811 7.846 3.056 16.382 4.355 24.423 1.315.583-.221.799-.823.736-1.381.039.025.077.053.12.073a.624.624 0 0 0-.009.269c.14.655.208 1.301.248 1.942-.443.242-.886.487-1.333.747-.447.261-.148 1.231.386.998.32-.14.644-.271.971-.394-.082 2.742-.854 5.398-1.48 8.147-.605 2.654-.707 5.532-.677 8.246.058 5.233 2.159 10.032 4.854 14.421.801 1.304 2.404-.048 1.722-1.232-.066-.115-.123-.228-.188-.342 6.418-5.214 11.954-11.479 18.377-16.703 3.295-2.681 7.234-5.487 10.237-8.882-1.411 4.864-2.561 9.784-2.682 14.903-.108 4.567.665 9.141 1.688 13.578 1.833 7.951 5.562 20.083 14.125 23.215 1.199.438 1.765-1.665.747-2.193-8.236-4.271-11.363-15.094-13.211-23.508a51.142 51.142 0 0 1-.528-2.809c.556.103 1.237-.465 1.097-1.271-.63-3.626-.142-7.365 1.098-10.815.818 1.513 2.018 2.818 3.388 3.89 2.218 1.736 5.396 3.93 8.348 3.836.871-.031 1.088-1.37.374-1.782zm-46.021-22.731a10.176 10.176 0 0 0-.477-1.438 37.304 37.304 0 0 1 3.323.141c-.976.39-1.919.826-2.846 1.297zM9.392 96.39c-.188.268-.201.656-.061.969-.187 1.823-.67 3.629-1.411 5.723a6.193 6.193 0 0 1-.514-1.467c-.573-2.521-.192-5.37 0-7.915.16-2.127.422-4.258.217-6.389-.164-1.7-1.41-5.676.253-6.958.346.099.695.175 1.042.264-.012.044-.035.077-.042.127-.451 3.516-.615 6.986.075 10.485.38 1.924.514 3.572.441 5.161zm.1 8.12c.99-2.146 1.73-4.299 2.005-6.558 4.383.335 9.879.842 13.008-2.516.484 1.075 2.051.411 1.695-.773-1.972-6.578-10.976-10.675-15.239-4.995-.376-2.852-.714-5.681-.525-8.677 12.714 2.735 26.144-.551 39.027.049 7.948.37 15.865 1.246 23.808 1.714 1.889.111 3.779.182 5.669.223l.005.021c1.491 4.035 1.41 8.222 1.186 12.458-.191 3.608-.195 7.313-.772 10.885-1.574 9.747-14.864 6.107-21.547 4.983-6.03-1.014-15.784-1.46-19.484-7.116-1.473-2.251-2.145-5.425-2.889-7.996a53.368 53.368 0 0 1-.909-3.61c-.146-.678-.212-2.005-.651-1.372.134-.193.11-.44-.079-.588-.16-.124-.297-.167-.42-.161.142-1.117-1.336-2.053-2.002-.782-2.266 4.324-2.19 9.828-5.168 13.753-2.332 3.074-10.103 2.16-13.417 1.922a17.932 17.932 0 0 1-1.37-.145.662.662 0 0 0-.648-.118c-.5-.111-.95-.266-1.351-.48.024-.042.047-.076.068-.121zm6.613-8.544c2.68-.296 3.075-4.949 1.751-6.938 2.35.636 4.607 2.369 5.846 4.549-2.294 1.406-4.159 2.191-6.921 2.398-1.71.129-3.439.079-5.162.085-.001-.39-.014-.781-.046-1.179a73.696 73.696 0 0 0-.369-3.373c.772-1.268 1.786-2.052 2.914-2.44-.668 1.05-.888 2.446-.829 3.625.075 1.516 1.017 3.472 2.816 3.273zm57.388 20.86c-.223-.142-.504-.188-.835-.069-6.988 2.502-13.854 1.728-20.803-.49-5.965-1.903-11.291-5.491-17.259-7.267-3.991-1.188-7.782.677-11.458 2.019-2.14.781-4.358 1.393-6.567 1.948-1.548.389-3.167.64-4.761.405-2.961-.437-2.099-3.905-.751-5.58 4.398.921 9.656.337 13.617-.625 5.672-1.376 6.135-9.718 7.929-14.73 0 .091.004.168.012.22.517 3.422 1.672 6.701 2.719 9.985 2.798 8.774 12.994 9.377 20.685 10.826 7.378 1.39 21.068 5.263 24.737-3.988 1.437-3.623 1.121-7.88 1.374-11.693.332-4.992.673-9.997-.891-14.78 1.568.009 3.136.002 4.704-.039 3.948-.104 7.784-.9 11.729-.485 1.067 7.774 2.998 16.109-.475 23.5-1.878 3.996-6.375 7.073-10.238 8.938-.864.164-1.725.453-2.581.802-3.198.501-6.472-.559-9.766-.427-.836.031-1.201.817-1.121 1.53z"/><path d="M109.85 110.649c.286 1.118 1.401 4.308 3.213 3.469 1.928-.893 2.551-3.416 3.167-5.263 1.646-4.934 4.065-11.166 3.544-16.363-.257-2.556-1.857-4.228-4.219-5.007-3.332-1.101-6.466 2.393-7.503 5.103-.249.65.552 1.727 1.086.925 1.628-2.439 5.663-5.816 8.1-2.247 1.158 1.696.373 4.453-.051 6.264-.691 2.949-1.662 5.872-2.481 8.792-.432 1.539-.936 3.053-1.641 4.489-.613 1.249-.905-.223-1.117-.89-.665-2.09.264-3.386 1.231-5.064.746-1.296.944-2.491.736-3.936-.282-1.963-2.791-2.509-1.28-4.56.574-.779-.104-2.276-1.13-1.62-2.131 1.363-2.238 3.255-.823 5.22 1.504 2.087.889 3.135-.291 5.201-1.042 1.823-1.04 3.535-.541 5.487zM89.664 87.53c1.397-.045 3.865.512 4.889-.591.315-.34.276-.973-.032-1.301-1.078-1.146-3.958-.484-5.39-.388-1.263.086-3.638.045-4.21 1.465-.102.252-.055.547.178.71 1.094.763 3.314.146 4.565.105zM94.367 90.483c-1.017-.691-2.379-.558-3.573-.587-1.591-.039-3.071.217-4.62.545-.473.101-.428.966.026 1.062 1.364.29 2.703.559 4.099.63 1.249.064 2.732.503 3.917.067.712-.261.743-1.315.151-1.717zM85.003 95.291c1.352.733 2.734 1.103 4.244 1.362 1.386.238 3.028.546 4.427.43 1.152-.097 1.227-1.828.202-2.192-1.202-.428-2.66-.339-3.924-.445-1.5-.127-3.017-.163-4.483-.537-.768-.197-1.11 1.033-.466 1.382zM86.552 100.276c-.319.063-.294.666.018.723 1.324.242 2.431.56 3.803.569 1.54.011 3.1.02 4.636-.088 1.341-.095 1.269-2.284-.058-2.355-2.907-.155-5.609.597-8.399 1.151zM75.205 151.803c-.774 1.261-.832 2.842.459 3.771 1.068.769 2.72.555 3.842.054.793-.355 1.265-1.427.495-2.073-.618-.518-1.472.138-2.131.285-.406.091-.955.068-1.319-.138-.062-.035-.095-.09-.111-.108 0-.278.182-.561.314-.792.596-1.043-.858-2.123-1.549-.999zM26.65 126.677c-1.187 1.104-2.178 2.351-3.231 3.581-1.114 1.302-2.698 2.401-3.539 3.881-.367.646.208 1.769 1.022 1.474 1.476-.535 2.602-2.246 3.562-3.426 1.157-1.422 2.226-2.897 3.062-4.528.254-.492-.313-1.504-.876-.982zM54.998 131.029c.78-.131.802-1.496-.036-1.453-6.964.362-13.187-1.661-19.989-2.549-.292-.038-.274.454-.049.542 6.325 2.468 13.232 4.608 20.074 3.46zM30.544 162.248c-.39.101-.292.8.112.792 2.519-.048 5.034-.141 7.551-.222 2.204-.07 4.463.316 6.613-.191.636-.15.482-1.134-.032-1.322-4.162-1.521-10.059-.136-14.244.943zM41.46 94.265c6.217 6.443 15.983 2.159 23.551 1.309.412-.046.695-.29.864-.606.068.102.142.203.205.306.833 1.37 2.415-.014 1.801-1.275-4.032-8.287-28.208-15.02-26.577-.643-.094.314-.069.676.156.909zm11.183-1.484c.321-1.365.515-4.202-.601-5.508 4.427.457 9.338 2.896 12.294 5.843-4.175.571-8.852 2.056-13.284 2.21.768-.622 1.378-1.64 1.591-2.545zm-2.046-3.449l.009-.04c.015.03.032.059.042.097.109.377.108.775.112 1.165a7.1 7.1 0 0 1-.12 1.396 10.67 10.67 0 0 1-.138-1.29c-.016-.451.01-.887.095-1.328zm-1.536-2.038c-.437.561-.668 1.39-.749 2.291-.007-.054-.02-.106-.027-.159-.048-.378-.077-.756-.112-1.136-.02-.216-.053-.455-.156-.65l-.088-.127a9.598 9.598 0 0 1 1.132-.219zm-2.588.753c-.675 2.119.292 5.227 1.518 6.884.079.106.16.191.24.278-1.936-.24-3.785-.862-5.482-2.063.56-2.576 1.913-4.211 3.724-5.099zM319.107 102.907c2.688-10.205 3.906-20.849 4.309-31.377.374-9.812-.691-18.561-4.678-27.6-7.357-16.691-21.074-31.715-38.543-37.725-8.356-2.874-17.418-3.703-26.182-4.297-7.977-.54-16.111.578-23.715 2.999-10.473 3.335-19.687 10.135-24.578 20.116-2.938 5.995-3.109 13.056-4.203 19.525-.012.067-.027.133-.039.2-.396.212-.784.427-1.15.646-.734.439-.239 1.703.592 1.528.035-.008.07-.018.104-.025-1.249 5.13-3.474 9.894-4.036 15.133-.135-.237-.358-.407-.699-.387-2.105.128-3.492.724-4.682 2.529-.363.553-.381 1.4.241 1.799 2.021 1.292 4.277 1.667 6.62 1.998 3.379.477 6.607 1.385 9.926 2.174 8.004 1.905 15.886 1.853 24.049 2.321 7.871.452 15.452 2.622 23.389 2.364 6.911-.225 13.656-2.774 20.542-3.206-8.442 2.086-17.091 3.148-25.787 3.742-10.903.744-21.888.925-32.786.051-10.446-.839-22.715-2.37-32.122-7.335-6.19-3.268-2.823-8.089 1.913-10.422 3.395-1.673 8.362-1.338 10.754-4.616.22-.302.145-1.071-.38-1.001-4.29.578-9.386 2.113-13.174 4.205-2.92 1.612-5.237 4.562-4.97 8.001.007.096.026.187.039.281-1.055 1.831-1.371 3.768-1.318 5.926.021.953.207 2.612.729 3.945-.11.969.16 1.86.694 2.674a2204.373 2204.373 0 0 0-3.082 56.586c-.301 7.217 1.022 13.639 5.305 19.522 4.305 5.915 10.939 10.787 17.463 13.968 6.47 3.153 13.738 4.351 20.816 5.206a306.6 306.6 0 0 0 18.367 1.653c.022.331.035.665.04.999.03 2.091-.94 4.275-.702 6.312.074.63.867 1.375 1.394.629 1.38-1.955 1.365-5.389 1.214-7.833.834.045 1.67.1 2.502.137 7.047.317 14.166-.091 21.023-1.816 3.002-.755 5.853-1.962 8.529-3.504 3.516-2.024 5.049-5.418 8.092-7.847.321-.257.461-.624.476-.998 3.367-3.826 3.72-8.519 3.897-13.691.205-5.962-.137-11.934-.549-17.893 2.972-2.953 6.089-5.735 9.453-8.139.431-.308.535-.844.434-1.325 1.799 1.131 3.879 2.095 5.904 1.62 2.879-.674 4.471-3.204 5.855-5.621 4.125-7.196 5.325-16.603 2.223-24.401-1.85-4.65-6.879-7.375-11.748-6.555-2.908.49-6.381 3.173-6.887 6.315-.132-.128-.305-.19-.512-.099-2.16.956-4.051 2.275-5.805 3.776-.021-3.953-.053-7.904-.095-11.857-.034-3.216.13-6.531-.232-9.748.216-.067.432-.131.646-.2 1.386-.449.858-2.967-.58-2.627a.966.966 0 0 0-.5-.254c-4.12-.76-8.331-.367-12.508.358a.99.99 0 0 0 .005-.379c-.576-2.525-3.169-4.707-4.999-6.385-1.909-1.749-4.064-3.244-6.4-4.364.312-4.249-.644-8.807-2.255-11.544-.649-1.103-1.847-.177-1.64.862.94 4.718 3.948 14.313-1.228 17.608-.619-7.302-2.57-15.118-8.207-20.105-.797-.705-1.672-.08-1.712.885-.262 6.2-.168 12.422-2.905 18.027-2.043-5.71-1.582-15.327-7.15-18.199.437-2.38.357-4.777-.811-6.756-.652-1.107-1.92-.191-1.672.881.781 3.367.281 6.448-.909 9.523-2.923-5.008-6.589-8.978-12.91-9.238-4.246-.176-9.573 1.183-13.907 3.104.574-3.228.949-6.499 1.545-9.721 1.793-9.71 7.641-17.12 15.945-22.217 15.133-9.285 34.668-8.304 51.387-4.854 20.133 4.154 35.008 19.229 43.711 37.333 4.869 10.129 5.24 20.283 4.613 31.299-.634 11.15-2.481 22.314-5.97 32.933-2.771 8.432-5.875 16.452-5.36 25.425.285 4.988 2.205 12.569 8.759 10.383 1.456-.486.831-3.07-.7-2.561-6.376 2.124-5.898-9.604-5.691-13.265.497-8.744 4.961-17.127 7.169-25.514zM196.869 65.322c0 .015.007.024.008.038a13.761 13.761 0 0 1-2.416-.607l1.877-1.127a.838.838 0 0 0 .551-.334c-.036.668-.05 1.342-.02 2.03zm93.078 26.249c.033.405.106.812.254 1.221.151.417.62.534.854.108 1.751-3.173 2.301-5.851 6.473-6.483 3.743-.568 7.142 1.678 8.907 4.838 3.079 5.509 1.822 13.55-.35 19.093-1.014 2.584-2.434 5.478-4.669 7.208-2.352 1.819-5.666-.743-7.56-2.067-1.32-.923-2.263 1.473-1.087 2.295l.502.35a1.187 1.187 0 0 0-.183.105c-3.08 2.211-5.875 4.726-8.539 7.38-.113-1.596-.227-3.191-.329-4.784-.522-8.07-.504-16.137-.536-24.219 1.931-1.931 3.969-3.702 6.263-5.045zm-26.469-14.756c.062.365.127.73.199 1.095-.09.032-.181.074-.273.137-1.727 1.158-4.429.83-6.562 1.015-.119-.481-.227-.967-.356-1.446 2.336-.219 4.668-.485 6.992-.801zm-19.732 1.602c.029.424.049.848.073 1.271-2.412.148-4.776.262-7.198.231-.032-.437-.061-.874-.09-1.312 2.406-.038 4.811-.099 7.215-.19zm-44.197-3.041c1.85.386 3.693.729 5.504 1.053-.156.67-.014 1.455-.755 1.795-.778.357-1.716.181-2.506-.032-1.134-.305-3.396-1.382-2.243-2.816zm25.571 94.957c-7.689-.675-15.376-1.771-22.61-4.57-6.609-2.559-12.723-7.35-17.411-12.586-6.017-6.719-6.453-14.789-5.908-23.381 1.07-16.873 3.038-34.214 2.214-51.147 2.628 2.228 6.975 3.681 9.09 4.358a59.61 59.61 0 0 0 3.395.962c-.947 2.631-.655 5.174-.33 7.948.497 4.231-.078 8.017-1.068 12.122a38.547 38.547 0 0 0-1.041 7.842 1.49 1.49 0 0 0-.011.718c-.056 3.665.354 7.324 1.104 11.065 1.346 6.704 3.949 13.113 6.489 19.436 2.362 5.877 3.991 12.877 7.806 18.033 6.337 8.565 16.596 9.583 26.444 7.962 1.162-.191 2.316-.394 3.472-.596.82.868 1.344 1.879 1.658 2.975-4.439-.302-8.876-.755-13.293-1.141zM198.666 97.41c.061.184.146.354.244.516-1.146-.286-2.115-.868-2.729-1.84-.217-.342-.496-.39-.727-.281l-.004-.253a.535.535 0 0 0 .323-.239c.954-1.393 2.455-2.303 4.133-2.744a2.88 2.88 0 0 0-.089.624c-.203-.083-.451-.033-.613.238-.716 1.204-.98 2.62-.538 3.979zm11.979-.621c.57-.157 1.075-.805.827-1.499-2.157-6.027-12.637-7.472-16.104-2.053-.163-2.959-.503-5.932-.645-9.062 5.735 1.387 11.663 2.011 17.532 2.32 13.214.697 26.362-.818 39.557-1.058 9.586-.173 20.826.71 29.632-3.926.028 3.651.211 7.314.188 10.804l-.03 3.659c-2.265 2.206-4.373 4.621-6.656 6.803-4.984 4.765-10.338 8.387-16.078 11.875-.181-.344-.486-.607-.918-.65a132.459 132.459 0 0 1-18.479-3.164c-5.775-1.413-11.104-3.705-16.668-5.709-2.359-.85-4.572-.886-6.703-.46.451-1.457.824-2.964 1.282-4.353.876-2.654 1.37-5.237 1.282-8.039-.047-1.511-2.066-1.462-2.035.051.066 3.06-.707 5.74-1.746 8.588-.52 1.425-1.193 2.956-1.389 4.496-6.509 2.361-12.484 7.912-19.956 6.088a44.37 44.37 0 0 1 1.146-8.079c.449-1.908.662-3.76.738-5.59 2.282 4.568 12.691 2.726 15.223-1.042zm-10.546-2.673c.239.263.584.377.91.289.146.739.154 1.602-.076 2.137-.215.502-.621-.14-.686-.355a5.248 5.248 0 0 1-.148-2.071zm2.377-1.847c2.536.031 5.056 1.021 6.488 2.954-1.355 1.262-3.894 2.397-6.418 2.779 1.026-1.489.745-4.074-.07-5.733zm57.52 59.292c1.373.168 2.749-.252 4.087-1.021 1.944 3.057 4.153 5.963 6.31 8.861-10.518 4.41-22.4 3.786-33.407 6.335-9.829 2.277-21.071 2.933-28.077-5.645-3.845-4.706-5.333-11.529-7.586-17.103-2.491-6.16-4.926-12.321-6.502-18.789-.859-3.521-1.307-6.944-1.334-10.366 4.803 1.312 9.146-.094 13.659-2.37 2.556-1.289 4.796-2.68 7.116-3.551a.618.618 0 0 0 .6-.209c2.25-.747 4.604-.967 7.422-.086 6.055 1.892 11.715 4.512 17.926 6.04 5.188 1.275 10.477 2.125 15.785 2.717l-.516.307c-.917.54-.332 2.392.781 2.026a25.91 25.91 0 0 0 1.232-.443c-1.091 8.266-.348 16.675 2.594 24.507.725 1.926 1.636 3.755 2.649 5.53-.979.713-1.983 1.417-3.021 2.163-.439.318-.234 1.034.282 1.097zm23.023-13.579c.137 3.762.118 7.521-.064 11.279-.205 4.237-1.406 6.981-4.062 10.218a.956.956 0 0 0-.122.196c-1.964 1.904-3.323 4.281-5.565 5.991-2.53 1.931-5.561 3.106-8.574 4.041-6.537 2.029-13.627 2.233-20.417 2.057a131.686 131.686 0 0 1-3.815-.172c-.373-1.302-1.037-2.456-2.014-3.374 4.775-.842 9.525-1.699 14.381-2.27 6.785-.797 13.658-1.763 19.887-4.717.906-.43 1.017-1.448.456-2.214-2.397-3.277-4.872-6.479-7.044-9.877 3.129-2.591 5.916-6.587 7.785-8.731 2.84-3.258 5.742-6.577 8.787-9.755.152 2.441.292 4.884.381 7.328zm-7.544-2.626a537.414 537.414 0 0 0-6.944 7.838c-1.229 1.41-2.52 2.569-3.864 3.641a45.27 45.27 0 0 1-2.081-4.027c-3.387-7.533-4.008-16.429-2.854-24.517a1.41 1.41 0 0 0-.18-.93c5.758-2.773 10.963-7.489 15.479-11.676 2.26-2.095 4.366-4.528 6.549-6.878-.043 5.452-.059 10.907.145 16.354.157 4.205.449 8.402.727 12.601-2.372 2.482-4.666 5.047-6.977 7.594zm1.946-60.31c.123-.363.286-.654.387-.992 1.355-.348 2.706-.718 4.049-1.12a44.57 44.57 0 0 0-.196 1.991c-.276-.141-.604-.154-.879.065-.383.307-.492.659-.646 1.017a.851.851 0 0 1-.27.303c-.521.258-.99.193-1.574-.008a4.154 4.154 0 0 1-.578-.325c-.252-.222-.295-.304-.339-.446-.026-.084-.026-.148-.032-.087.01-.123.042-.29.078-.398zm-.131 3.463c.987.49 2.169.659 3.214.236.349-.141.686-.386.979-.683-.006.206-.019.411-.023.618-8.652 4.076-18.116 4.029-27.525 4.108-11.539.099-23.038 1.276-34.584 1.325-7.922.033-15.766-.516-23.511-2.206-5.122-1.118-10.117-2.58-13.865-6.011a.767.767 0 0 0 .04-.28c-.124-1.498-1.174-2.796-1.467-4.327-.264-1.378-.232-2.998.108-4.473 1.36 2.268 4.104 3.748 6.39 4.773 3.484 1.564 7.294 2.639 11.129 3.49a1.717 1.717 0 0 0-.4.474c-.353.607-.243 1.43.011 2.044.558 1.345 1.872 2.191 3.157 2.736 1.353.573 3.031.713 4.357.011 1.123-.594 2-2.258 1.73-3.591 9.383 1.561 18.873 1.979 28.366 1.87-.343.603-.377 1.489-.456 2.084-.063.468.096 1.175.66 1.282 3.046.578 6.484.68 9.508-.067.637-.157.807-.917.623-1.522.027-.684-.098-1.379-.273-2.055 3.18-.138 6.362-.331 9.538-.603.023.863.147 1.715.165 2.581.012.518.414 1.191 1.016 1.132 2.688-.267 6.016.354 8.383-1.233.255-.171.398-.418.463-.687.014-.004.028-.004.043-.009.584-.204.754-.869.645-1.417-.105-.531-.303-1.037-.493-1.546 3.426-.508 6.83-1.141 10.202-1.927-.102.402-.14.808-.094 1.148.157 1.198.883 2.188 1.964 2.725zm-62.482-35.38c7.605-1.094 11.672 3.656 14.938 9.823.416.787 1.454.757 1.833-.045.727-1.537 1.491-3.377 1.997-5.286 1.996 2.772 3.001 5.577 3.666 9.145.674 3.603 1.1 7.217 2.91 10.468.431.772 1.267.633 1.686-.042 3.477-5.606 3.811-11.992 4.058-18.382 4.335 4.995 5.686 12.052 6.056 18.518.038.655.591 1.405 1.332 1.132 3.083-1.139 4.762-4.124 5.433-7.612 2.153 1.14 4.07 2.699 5.849 4.35 1.557 1.444 2.689 3.432 4.239 4.844-2.959.566-5.894 1.249-8.759 1.758-7.887 1.4-15.621-.434-23.429-1.423-8.357-1.06-16.755-.339-25.049-2.046-3.246-.669-6.433-1.624-9.679-2.275-1.154-.231-2.339-.343-3.515-.481.025-.09.05-.181.052-.29.041-5.472 2.098-10.22 3.766-15.332.387-1.181.697-2.379.969-3.586 3.882-1.082 7.599-2.656 11.647-3.238z"/><path d="M308.761 139.077c.785.22 1.5-.884 1.064-1.705-.622-1.174-1.41-2.115-1.795-3.43-.41-1.402-2.108-.956-2.148.388-.098 3.318.958 6.289 2.123 9.286-4.118-1.825-7.955-5.562-9.354-9.659-.291-.852-1.508-1.271-1.928-.24a74.91 74.91 0 0 1-2.65 5.77c-.107-4.815-.668-9.567-3.648-13.058-.578-.677-1.326.306-.994.934 2.361 4.46 2.307 9.673 2.359 14.598.006.55.035 1.09.051 1.636l-.08.143c-.28.479-.162.967.124 1.292a90.88 90.88 0 0 0 1.209 11.187c1.687 9.907 5.847 18.124 13.663 24.556 1.236 1.018 2.231-1.353 1.112-2.273-8.921-7.339-11.897-17.164-13.448-28.224-.277-1.981-.314-4.158-.32-6.401a79.491 79.491 0 0 0 3.547-6.886c2.424 4.648 7.138 8.581 12.07 9.869.863.226 1.62-.773 1.313-1.582-.79-2.089-1.674-4.109-2.27-6.201zM294.531 95.248c1.413-1.611 4.133-4.612 6.369-2.636 1.307 1.155 1.3 3.492 1.326 5.072.049 2.819-.438 5.903-1.502 8.522a17.08 17.08 0 0 1-2.174 3.828c-.379.502-1.254 1.715-1.801.301-.583-1.512.171-3.065 1.029-4.312.654-.953 1.625-2.21 1.623-3.414-.004-1.937-1.23-3.138-.312-5.135.436-.947-.572-2.052-1.42-1.223-2.729 2.672.364 5.209-1.48 8.001-1.715 2.595-2.484 4.37-1.313 7.445 1.927 5.059 6.021-.71 7.192-2.99 2.168-4.224 2.817-9.751 1.951-14.381-.409-2.188-1.703-3.915-3.777-4.704-2.829-1.076-5.475 2.486-6.812 4.4-.544.778.339 2.095 1.101 1.226zM210.964 112.902c.566-.476.1-1.687-.634-1.199-1.389.924-2.783 1.812-4.265 2.58-1.387.719-2.854.97-4.336 1.393-.96.273-.709 1.941.275 1.962 3.437.068 6.497-2.67 8.96-4.736zM228.662 113.929c.714-.028.661-1.202-.031-1.254-1.909-.143-3.701-.594-5.039-2.049-.418-.454-.867.285-.555.686 1.371 1.756 3.401 2.705 5.625 2.617zM26.744 113.007c-1.573 1.549-3.153 3.149-4.922 4.474-2.062 1.544-4.289 1.834-6.737 2.284-.799.146-.68 1.575.043 1.751 5.332 1.294 9.754-3.576 12.755-7.253.644-.788-.314-2.069-1.139-1.256zM47.517 117.675c-3.832-1.268-7.793-1.714-11.275-3.926-.59-.375-1.096.604-.636 1.01 3.23 2.846 7.359 4 11.504 4.836 1.148.232 1.445-1.577.407-1.92zM212.48 120.644c-1.283 2.601-3.027 4.877-4.957 7.024-1.762 1.961-3.981 3.438-5.664 5.46-.352.423-.038 1.523.639 1.209 5.057-2.349 8.881-8.078 10.982-13.043.295-.696-.611-1.439-1-.65zM243.959 126.055c-7.325.021-13.822 1.092-20.707-2.331-.725-.36-1.156.773-.543 1.156 6.299 3.933 14.33 4.925 21.501 2.965.87-.237.651-1.792-.251-1.79zM230.211 158.223c-4.395-.953-9.593-1.399-13.467 1.307-.404.282-.166 1.103.367.934 4.17-1.319 8.432-1.15 12.639-.082 1.282.326 1.67-1.897.461-2.159zM225.574 95.8c4.061 3.544 10.083 3.882 15.246 4.328 2.664.229 10.479 1.147 11.201-2.737.07-.381-.07-.799-.327-1.056.263-.368.345-.881.034-1.355-3.134-4.794-9.366-7.384-14.848-8.123-4.859-.656-11.735 1.394-11.479 7.463.008.17.075.329.174.465-.22.279-.263.787-.001 1.015zm10.998-6.636c.436.06.867.128 1.282.206 4.276.799 9.64 3.093 12.045 6.921.072.115.151.203.234.28-2.994 1.674-6.71 1.28-10.069.99a86.746 86.746 0 0 1-4.189-.459c.98-.885 1.406-2.606 1.525-3.726.149-1.393.001-3.042-.828-4.212zm-2.814.207c.037-.109.046-.235.041-.363l.129-.004c-.062.135-.127.269-.181.407.005-.013.007-.028.011-.04zm-6.957 5.355c1.076-2.296 1.596-4.094 4.145-5.146.314-.129.639-.228.968-.311-1.071 1.906-1.038 5.34.198 7.185-1.833-.391-3.635-.904-5.385-1.591.024-.045.054-.08.074-.137z"/></g></svg>