<svg version="1.1" xmlns="http://www.w3.org/2000/svg" x="0" y="0" width="325.984" height="327.39" viewBox="0 0 325.984 327.39" xml:space="preserve"><path d="M113.291 9.711c2.723.743 4.933 4.22 7.178 5.904 5.223 3.921 11.1 7 16.623 10.469.816.514 1.556-.127 1.799-.899 2.029-6.456 12.68-8.179 13.745-15.23.19-1.258-1.259-2.202-1.987-.913-3.098 5.49-10.639 8.266-13.495 13.847-5.347-3.285-10.907-6.312-15.979-10.008-2.128-1.551-4.754-5.571-7.668-5.526-1.219.019-1.334 2.05-.216 2.356z"/><path d="M104.822 9.211c3.06 5.911 9.447 10.764 14.652 14.749 5.775 4.422 12.417 7.498 18.366 11.666.006.006.016.01.024.016.049.035.102.067.152.103.351.247.669.281.933.182 4.144.349 9.074-4.573 11.882-6.82 5.75-4.601 10.358-10.882 12.698-17.914.442-1.332-1.082-2.799-1.919-1.259-3.301 6.07-5.91 11.859-11.436 16.326-2.854 2.308-6.916 6.486-10.827 7.214a1.267 1.267 0 0 0-.161-.158c-5.35-4.281-11.784-7.03-17.385-10.971-3.099-2.181-5.974-4.674-8.75-7.247-2.478-2.295-4.537-5.083-7.19-7.163-.712-.558-1.377.584-1.014 1.28l-.025-.004zM48.692 34.88c-.062-.73-.82-1.021-1.229-.359-1.127 1.826-.329 5.061-.152 7.081a84.965 84.965 0 0 0 1.968 12.292c1.817 7.637 5.618 15.166 12.152 19.771 1.118.788 2.143-1.194 1.244-1.972-10.986-9.485-12.793-23.104-13.983-36.813zM63.539 54.966c-1.258-3.575-3.192-6.866-4.466-10.467-1.26-3.561-2.266-7.217-3.268-10.857-.194-.705-1.021-.326-.898.315 1.335 6.955 2.646 16.312 7.46 21.852.555.636 1.412-.161 1.172-.843zM63.271 37.032c.225 1.187 1.865.812 1.775-.328-.637-8.009-3.698-15.207-7.658-22.08-.137-.239-.461-.112-.439.154.249 3.199 2.058 6.153 3.146 9.129 1.555 4.255 2.331 8.692 3.176 13.125zM80.694 42.265c3.063-6.462 4.018-14.195 3.7-21.281-.021-.474-.611-.452-.626.015-.221 7.364-2.522 13.639-4.417 20.64-.229.846.919 1.517 1.343.626zM88.734 50.245c-.503-5.3.842-10.157 1.885-15.299 1-4.928 1.378-10.212 1.389-15.241.001-.369-.471-.348-.485.013-.229 5.881-1.301 11.701-2.827 17.375-1.176 4.376-2.438 8.907-1.548 13.444.207 1.053 1.682.727 1.586-.292zM102.211 47.62c.626 1.5 2.311-.012 1.795-1.297-3.196-7.964-.976-17.053-4.482-24.87-.425-.948-1.525-.118-1.325.702 2.049 8.38.65 17.414 4.012 25.465zM80.162 64.114c-3.328-6.142-.732-12.281-2.453-18.627-.219-.804-1.164-.529-1.188.219-.2 6.393-2.099 14.372 2.125 19.85.832 1.079 2.031-.49 1.516-1.442zM84.583 118.49c3.406 5.022 6.24 10.493 9.868 15.353.514.687 1.236-.3.947-.889-2.633-5.378-6.529-10.321-10.401-14.856-.234-.274-.587.136-.414.392zM81.603 102.376c2.658 4.348 5.168 8.81 8.178 12.928.597.819 1.635-.38 1.163-1.104-2.741-4.205-5.564-8.364-8.412-12.495-.47-.682-1.317.034-.929.671zM89.308 106.106c.764 1.257 2.213-.039 1.621-1.177-2.102-4.036-4.121-8.135-6.937-11.736-.872-1.115-1.999.647-1.289 1.598 2.634 3.516 4.332 7.576 6.605 11.315zM216.65 71.518c4.188-1.604 6.722-6.401 8.72-10.137 3.149-5.89 4.837-11.996 6.085-18.534.075-.4-.438-.596-.554-.167-2.563 9.526-6.662 20.807-15.067 26.707-.873.613-.371 2.586.816 2.131zM216.505 49.203c.769-1.326 1.605-2.616 2.148-4.057.148-.396-.371-.847-.564-.375-.581 1.426-1.475 2.668-2.242 3.994-.258.442.366.943.658.438zM210.799 48.43c4.994-6.574 3.756-16.947 4.381-24.7a.285.285 0 0 0-.564-.079c-.732 3.592-1.065 7.223-1.462 10.863-.503 4.612-1.962 8.63-3.409 12.991-.21.628.458 1.709 1.054.925zM219.17 38.854c.707-3.019.916-6.11 1.399-9.167.21-1.322-1.573-2.019-1.835-.557-.545 3.038-.812 6.123-1.528 9.128-.337 1.411 1.605 2.125 1.964.596zM203.964 31.344c-.135 1.226 1.524 1.899 1.737.519.938-6.097-.146-12.18-1.388-18.148-.112-.545-.867-.378-.812.152.611 5.868 1.117 11.589.463 17.477zM198.636 27.181c.563 1.042 1.717.148 1.505-.801-1.398-6.249-4.442-13.197-8.359-18.259-.601-.777-1.508.369-1.094 1.056 3.439 5.706 4.822 12.223 7.948 18.004zM203.988 49.044c.81 1.333 2.19-.026 1.689-1.218-2.711-6.438-6.379-12.527-9.494-18.781-3.097-6.213-5.54-12.664-8.334-19.005-.152-.343-.506-.03-.458.244 1.128 6.468 3.813 12.641 6.479 18.607 3.038 6.798 6.252 13.783 10.118 20.153zM195.673 44.133c3.606 7.637 7.212 15.632 11.55 22.877.839 1.4 2.402-.021 1.806-1.291-3.558-7.562-7.595-15.574-12.672-22.235-.384-.501-.886.224-.684.649zM202.826 63.458c-2.177-3.668-4.598-7.366-8.039-9.961-.447-.339-.786.452-.488.779 2.824 3.104 4.745 6.771 7.052 10.239.721 1.085 2.076-.041 1.475-1.057zM204.28 69.687c-2.254-3.12-4.522-6.257-7.194-9.038-.747-.778-1.512.486-.973 1.188 2.382 3.104 4.283 6.553 6.709 9.623.985 1.248 2.233-.703 1.458-1.773zM200.781 75.019c.516-.366.546-1.031.316-1.565-.73-1.706-1.587-3.356-2.635-4.889-.757-1.107-2.18.05-1.531 1.089.99 1.591 1.703 3.295 2.487 4.99.236.511.905.701 1.363.375zM196.709 78.098c.517 1.229 1.918.139 1.712-.886-.392-1.95-1.226-3.782-1.789-5.687-.423-1.427-2.251-.689-1.896.656.53 2.009 1.167 4 1.973 5.917zM54.756 123.844c-2.258-1.769-6.999-6.147-9.818-3.176-.348.366-.017 1.094.5.956 3.088-.824 6.195 2.577 8.322 4.355 1.116.934 2.042-1.316.996-2.135zM54.643 129.922c-1.625-1.456-3.438-2.485-5.592-2.917-.562-.113-.68.748-.195.935 1.876.726 3.465 1.944 5.132 3.04.61.401 1.125-.638.655-1.058zM85.219 165.998c-.057-.264-.402-.247-.452.011-.708 3.657-.501 7.149-.21 10.853.322 4.091.142 8.559 1.143 12.529.221.875 1.335.817 1.529-.036.804-3.542.06-7.431-.312-11.012-.43-4.147-.811-8.272-1.698-12.345zM119.183 198.521c-2.634 2.354-6.07 4.893-6.655 8.602-.18 1.149 1.395 2.301 1.917.9 1.403-3.754 4.945-5.806 7.642-8.546 4.19-4.26 8.26-8.628 12.357-12.978 8.051-8.551 15.969-17.208 24.538-25.242.273-.257.408-.624.437-1.008 5.177 3.885 8.913 9.368 12.919 14.395 5.178 6.498 10.764 12.579 15.642 19.328 4.942 6.838 10.313 13.327 15.884 19.659 5.588 6.353 11.1 13.198 17.253 19.002 1.37 1.295 3.003-.866 1.827-2.118-11.591-12.354-23.223-24.954-33.188-38.672-5.124-7.054-11-13.404-16.452-20.184-4.402-5.472-8.501-11.454-14.809-14.884-1.316-.716-2.12 1.434-.997 2.135.026.015.05.037.076.054-9.102 7.537-16.79 16.957-24.892 25.522-4.444 4.7-8.674 9.721-13.499 14.035z"/><path d="M199.597 254.58c-7.571 7.034-14.879 14.888-23.179 21.073-10.898-9.607-19.087-21.837-29.351-32.083-11.048-11.033-22.089-22.094-32.023-34.16-1.063-1.293-2.446.757-1.552 1.884 9.727 12.249 20.726 23.354 31.773 34.397 10.329 10.327 18.537 22.688 29.548 32.325.133.115.268.192.403.253.299.517.857.811 1.496.373 8.82-6.024 16.396-14.272 24.199-21.532 8.096-7.532 16.853-14.372 24.202-22.674 1.051-1.186-.521-3.479-1.779-2.066-7.225 8.115-15.796 14.832-23.737 22.21zM128.374 153.264c-3.853-4.348-4.32-8.425-3.729-14.01.36-3.402.939-6.879-.358-10.135-.22-.551-1.02-.345-1.083.194-.548 4.641-.986 9.466-1.157 14.143-.165 4.487 1.584 8.573 4.826 11.648 1.185 1.124 2.435-.785 1.501-1.84zM135.229 125.588c-.515-1.289-2.03-.152-1.776.936.783 3.346.673 6.817 2.049 10.022 1.449 3.381 3.544 7.149 6.314 9.627.905.811 1.918-.378 1.405-1.329-1.958-3.636-4.694-6.559-6.148-10.517-1.038-2.829-.721-5.929-1.844-8.739zM114.8 168.821c1.217 1.076 2.411-.755 1.499-1.829-3.656-4.303-4.519-7.849-4.386-13.389.065-2.706 1.067-5.479.958-8.152-.021-.498-.609-1.174-1.121-.716-1.999 1.784-1.87 6.437-2.056 8.922-.434 5.776.57 11.147 5.106 15.164zM98.548 166.637c-.087-3.252.878-6.591.265-9.805-.058-.3-.399-.294-.534-.069-4.036 6.698-2.845 18.949 3.754 23.593 1.18.832 2.097-1.167 1.278-2.022-3.366-3.512-4.633-6.852-4.763-11.697zM75.265 191.63c-.161-1.379.039-2.812-.479-4.123-.069-.174-.297-.179-.408-.05-1.198 1.381-1.034 3.701-.933 5.405.128 2.187.86 4.372 2.358 5.995 1.138 1.234 2.522-.809 1.552-1.894-1.343-1.5-1.862-3.367-2.09-5.333zM68.344 198.987c-1.437 2.155-1.127 5.339-.691 7.762.174.967 1.403.604 1.418-.257.043-2.432-.296-4.865-.29-7.308.001-.209-.287-.421-.437-.197zM153.024 103.874c-.206-.695-1.048-.482-1.059.194-.085 5.609 1.394 11.857 3.896 16.874.599 1.203 2.172.197 1.816-.937-1.684-5.359-3.062-10.753-4.653-16.131zM164.58 96.727c-.147-.864-1.215-.397-1.094.384.893 5.715 1.999 11.521 3.837 17.015.278.836 1.252.404 1.104-.383-1.064-5.722-2.866-11.268-3.847-17.016zM174.764 95.953c-.338-.999-1.609-.49-1.338.467 1.406 4.96 2.961 10.191 5.834 14.528.676 1.019 1.883-.013 1.379-.982-2.358-4.536-4.238-9.169-5.875-14.013z"/><path d="M276.682 171.795c-2.021-.156-4.596.594-6.06 2.202-.665-1.854-1.904-3.621-3.293-5.262.168-.225.283-.513.309-.864.505-7.07-2.357-15.098-4.276-21.814-2.222-7.776-6.023-14.943-10.984-21.31-4.946-6.346-5.694-14.121-7.649-21.704-2.131-8.27-5.982-16.065-8.038-24.313 3.212-2.646 6.445-5.264 9.819-7.735 4.154-3.043 8.201-6.107 6.809-11.793-.265-1.085-1.167-1.139-1.742-.648-2.211-9.885-9.557-18.008-15.456-25.882-3.487-4.653-6.651-9.452-9.792-14.341-2.414-3.758-6.308-6.748-8.266-10.723-.571-1.159-2.001-.168-1.678.894 1.02 3.364 3.736 5.73 5.917 8.374 3.57 4.33 6.096 9.678 9.357 14.264 3.279 4.611 6.744 9.11 10.14 13.637 3.524 4.698 5.021 9.903 7.848 14.912.396.701 1.026.685 1.474.337 1.175 5.653-7.548 9.795-11.295 12.68-4.852 3.737-9.389 7.816-14.157 11.651-4.453 3.581-9.992 7.729-15.404 9.808a80.838 80.838 0 0 1-3.757-4.326c3.738-.529 7.229-2.742 10.431-4.65 3.566-2.126 7.328-4.396 10.315-7.303 2.603-2.534 4.562-5.771 6.74-8.657 2.402-3.182 4.726-5.042 8.253-6.735.748-.359.999-1.975-.052-2.145-5.582-.906-10.224 7.578-12.882 11.247-2.529 3.492-5.25 5.947-8.788 8.413-4.6 3.205-10.16 5.452-14.434 9.022a.407.407 0 0 0-.104.152 60.606 60.606 0 0 1-.967-1.261c-2.495-3.368-5.389-7.263-9.368-8.977-5.072-2.185-10.312-.1-15.285 1.476-3.319 1.052-6.618 1.971-10.053 2.571-2.15.375-4.299.796-6.099 1.984.037-.098.066-.206.087-.326a107.645 107.645 0 0 0 1.481-16.047c.08-4.689.215-10.877-2.001-15.255.161-.586.035-1.323-.473-1.744-.75-.623-1.745-.799-2.798-.76a101.344 101.344 0 0 1-3.319-3.304c-1.578-1.659-3.16-3.474-5.082-4.746-.384-.254-.564.356-.373.616 1.881 2.572 3.904 5.393 6.173 7.84-.654.156-1.271.326-1.804.452-3.762.891-7.465 2.043-11.223 2.965-6.501 1.596-12.869 1.8-19.526 1.762-4.471-.024-10.196-1.604-14.614-.357a.456.456 0 0 0-.204-.141c-4.547-1.442-4.632 7.995-4.667 10.385-.136 9.041-1.762 17.94-1.318 27.018.315 6.454.456 14.974 7.836 16.899 3.058.797 6.473.562 9.605.628 4.907.107 9.857-.315 14.73-.944-3.144 3.186-6.299 6.343-9.553 9.404a.809.809 0 0 0-.493-.108c-6.458.632-16.82-3.707-18.374 5.439-.385 2.261-.145 7.252 1.548 9.921-5.094 4.883-9.893 10.114-14.611 15.287-3.729 4.089-7.263 8.354-11.008 12.425-.498.542-.998 1.076-1.497 1.612-.429-2.219-.356-4.734-.521-6.893-.272-3.602-.373-7.221-.484-10.829-.176-5.674-.288-11.345-.609-17.009.997 2.06 2.212 3.979 3.481 5.886 1.23 1.851 2.205 4.535 4.051 5.808.542.375 1.162-.218 1.124-.782-.155-2.234-1.844-4.066-3.099-5.845-1.573-2.229-3.252-4.383-4.934-6.531-.25-.319-.529-.26-.724-.055-.069-1.078-.129-2.157-.217-3.235-.537-6.539-2.162-12.932-2.823-19.457-.568-5.619.129-12.209-1.981-17.569.104-.387.197-.775.264-1.163.234-1.364-1.623-2.039-1.934-.564-.703 3.348-1.844 6.388-1.948 9.783-4.367-1.809-6.727-7.01-9.29-10.596-.705-.987-1.748.423-1.347 1.258a27.725 27.725 0 0 0 4.704 6.873c1.756 1.885 3.566 2.808 5.923 3.157.001.083-.007.165-.004.25.023.8 1.1.771 1.1-.028-.002-1.874.653-3.705 1.344-5.529-.205 5.168.61 10.78 1.078 15.662.68 7.069 2.338 13.97 2.813 21.075.484 7.246.489 14.521.684 21.777.098 3.6.303 7.197.58 10.789.149 1.945.059 4.072.805 5.887-1.518 1.662-2.974 3.364-4.28 5.206-.478-.197-1.053-.015-1.261.778-1.548 5.9-3.759 11.541-6.218 17.083-.567-1.361-1.432-2.438-2.499-3.643-1.301-1.469-.004-4.165.128-5.799.139-1.722.058-3.321-.18-5.03-1.196-8.587-3.023-16.837-2.726-25.576.284-8.335 3.71-15.879 5.127-23.99.654-3.743 1.623-7.454 1.844-11.263.205-3.521-.321-6.709-.879-10.096.798-.086 1.565-.587 2.155-1.309 1.266-1.551 1.07-3.918.27-5.604-.356-.748-1.301-.799-1.824-.223-.517.57-5.06-1.662-5.845-2.027-1.051-.49-2.55-1.559-3.874-1.771-.018-.485-.248-.985-.719-1.195-6.04-2.701-11.972-5.426-17.305-9.394-4.85-3.608-7.618-8.637-9.831-14.005.058-.124.122-.253.168-.37 1.861-4.7 2.719-9.81 4.322-14.606 1.64-4.903 3.606-9.684 5.107-14.638 3.225-10.641 9.017-20.109 13.254-30.312.527-1.27-1.021-2.595-1.807-1.19-6.21 11.106-10.979 22.73-15.106 34.728-1.981 5.762-4.244 11.386-5.897 17.259-.807 2.871-1.472 5.748-2.571 8.531-1.001 2.538-2.804 4.554-4.167 6.875-5.174 8.811 5.329 15.25 12.029 19.051-1.606 9.077.619 18.134-.268 27.244-.396 4.079-2.312 7.924-3.525 11.804-1.501 4.798-2.386 9.919-3.259 14.863-1.497 8.473-.375 16.515 2.128 24.678 1.171 3.818 2.897 7.345 4.484 11.001 1.784 4.107.249 8.659 2.35 12.594.038.07.089.109.133.167 2.795 8.917 8.456 16.777 9.585 26.222.796 6.657.37 15.233 6.276 19.768.716.549 1.303.034 1.505-.656 2.146 4.191 5.178 8.019 8.069 11.531 6.952 8.442 14.411 16.479 22.372 23.98 7.97 7.511 15.557 15.274 23.312 22.994 3.919 3.904 8.035 7.609 12.188 11.261 3.48 3.06 6.836 6.184 11.079 8.147 7.33 3.394 16.157 1.462 23.489-.89 9.762-3.131 17.006-10.9 26.271-14.936.209-.09.379-.217.513-.366.491-.011.899-.313 1.14-.723 3.053-.484 5.229-3.291 7.244-5.439 3.9-4.153 8.381-7.823 12.603-11.64 8.49-7.674 15.497-16.923 24.272-24.24 8.222-6.857 17.032-12.728 24.164-20.825 3.361-3.816 6.071-8.146 9.326-12.03 1.438-1.715 2.739-3.51 3.385-5.499.016 0 .025.008.04.008 7.223.043 9.498-5.874 7.488-12.06-.496-1.524-1.261-2.948-2.096-4.31-1.496-2.434-.698-4.914-.542-7.541.144-2.431-.513-5.278-2.232-7.043l.06-.54c.436-.066.853-.364 1.053-.978 1.029-3.147 6.134-2.543 8.328-4.697 2.374-2.333 2.658-5.191 2.081-8.341-.42-2.32-1.897-4.994-4.522-5.2zm-48.688-85.944c2.282-1.818 4.525-3.674 6.768-5.528 1.533 7.498 5.128 14.722 7.149 22.09 1.84 6.705 2.395 14.199 5.83 20.338 1.684 3.009 4.065 5.614 5.953 8.489 2.616 3.985 4.659 8.328 6.233 12.818 1.328 3.79 2.215 7.734 3.113 11.641.793 3.448 1.746 6.891 1.912 10.422-.809-.85-1.59-1.653-2.262-2.404-6.578-7.341-11.565-16.356-17.228-24.396-5.041-7.156-10.585-13.966-15.671-21.089.707.341 1.411.687 2.1 1.063 1.085.592 1.996 1.411 3.126 1.915.794.356 1.056-.849.842-1.343-1.078-2.497-4.516-3.35-6.856-4.16-.34-.118-.611.019-.8.255-.285-.412-.575-.821-.856-1.236 3.1-1.49 5.534-4.679 6.866-7.746.41-.943-.746-2.421-1.539-1.327-2.001 2.768-3.597 5.498-6.265 7.675-2.008-3.009-3.962-6.049-6.092-8.977-1.761-2.423-3.964-5.676-6.884-6.858-.57-.587-1.135-1.172-1.693-1.758 4.715-1.174 14.735-8.674 16.254-9.884zM138.2 106.802c-6.895.772-13.666 1.172-20.604 1.021-3.24-.071-7.687-.133-8.898-3.821-1.267-3.857-1.532-8.13-1.734-12.156-.371-7.403.538-14.851 1.16-22.216.376-4.443-.437-8.236 2.036-11.915 10.015 1.455 20.574 2.381 30.624.745a90.543 90.543 0 0 0 11.67-2.726c1.924-.586 5.388-2.114 7.958-2.073.203.173.401.356.608.521.42.332.811.167 1.071-.174.034.016.072.026.104.043.203.108.388.16.559.169-.064 4.312.745 8.739.739 13.059-.007 5.584-.614 11.166-1.56 16.664-.178 1.034.627 1.75 1.353 1.737-.008.008-.017.013-.026.021a.917.917 0 0 0-.212.315c-7.833 4.903-14.285 11.739-20.754 18.258a1089.125 1089.125 0 0 0-3.028 3.066c-.203-.359-.557-.595-1.066-.538zm-26.92 16.564c1.307-3.349 8.703-1.539 13.229-1.581a143.377 143.377 0 0 1-6.415 5.492 120.349 120.349 0 0 0-6.261 5.423c-1.779-1.777-1.217-7.632-.553-9.334zM27.714 81.327c-1.719-2.618 1.444-7.097 3.662-10.583 1.185 4.289 4.642 8.69 7.203 11.227 5.51 5.456 13.315 9.291 20.612 11.784.015.117.041.231.088.332.883 1.896 4.514 2.918 6.321 3.702 1.264.548 3.352 1.562 4.996 1.35a2.79 2.79 0 0 1-.149 1.378c-.28.765-.875.961-1.519 1.17-.182-.452-.568-.783-1.168-.731-4.719.405-9.131-1.491-13.472-3.095a96.466 96.466 0 0 1-14.597-6.805c-4.522-2.592-9.051-5.27-11.977-9.729zm23.96 137.069c-.969-5.439-3.448-10.883-6.16-16.076.067.079.136.156.226.213.19.12.413.106.597-.016.77-.51.478-1.492.399-2.271-.124-1.218-.187-2.482.007-3.696.051-.321-.354-.771-.616-.393-.652.943-.835 1.924-.91 3.052-.045.673-.227 1.771.008 2.563-1.08-2.05-2.187-4.056-3.246-6.007.239-.307.36-.717.211-1.158-1.112-3.298-.502-6.726-1.171-10.101-.808-4.084-3.546-7.927-4.869-11.856-3.128-9.292-3.846-17.919-2.035-27.569a177.997 177.997 0 0 1 2.667-11.845c1.044-4.019 2.802-7.694 3.44-11.827 1.373-8.902-1.291-17.888-.018-26.824 4.344 2.366 8.794 4.463 13.465 6.134 4.552 1.627 9.221 3.718 14.164 3.141.329-.039.588-.185.783-.389.037.018.075.024.112.042-.331 2.9.123 5.806.011 8.739-.191 4.97-1.499 10.038-2.564 14.881-1.757 7.975-4.569 15.172-4.861 23.455-.306 8.619 1.739 16.918 2.911 25.383.409 2.957-1.401 6.031-.68 8.849.656 2.568 2.952 3.955 3.662 6.528.095.343.268.558.465.707a618.852 618.852 0 0 1-3.894 8.248c-.24.502-.458 1.011-.672 1.521-.026-1.507-.433-3.13-.57-4.466-.137-1.34-.136-2.566.413-3.821.109-.248.174-.782-.073-.99a1.085 1.085 0 0 0-.073-.062c-.253-.215-.634-.369-.933-.114-1.992 1.698-1.492 4.961-1.229 7.272.248 2.188.387 3.696-1.145 5.547a6.343 6.343 0 0 1-2.411 1.769c.29-.229.56-.478.796-.707.943-.914 1.641-1.958 2.177-3.152.174-.388.107-.986-.308-1.209a19.477 19.477 0 0 1-2.748-1.822c-.478-.375-.993.088-1.11.59-.387.355-.84.649-1.26.96-.273.202-.111.847.266.676.464-.21 1.194-.221 1.741-.427.501.36 1.013.705 1.532 1.038a19.89 19.89 0 0 1-1.127 1.333c-.752.804-2.002 1.166-2.602 2.046-.249.364-.255.928.066 1.234-.134.002-.267-.004-.401-.009.606-3.808-.228-7.142-1.248-10.921-1.583-5.86.708-11.983 7.648-11.492 1.453.103 1.374-2.416-.062-2.547-4.457-.401-8.592 1.903-9.96 6.34-1.951 6.324 2.388 12.115 1.24 18.466-.789.434-.784 1.99.248 2.401 3.576 1.433 7.375-.497 9.531-3.458-.906 2.95-1.619 5.96-2.492 8.947-1.371 4.697-3.962 8.718-4.28 13.683-.209 3.3.425 6.404 1.562 9.342-3.882-5.955-3.383-12.929-4.62-19.875zm82.135 97.081c-4.367-2.319-8.113-6.353-11.783-9.627a237.433 237.433 0 0 1-10.98-10.422c-6.987-7.079-13.923-14.066-21.208-20.853-7.281-6.783-14.05-14.093-20.49-21.672-6.381-7.506-14.275-16.76-11.528-27.465 1.087-4.238 3.293-8.218 4.457-12.489 1.459-5.354 3.131-10.252 5.587-15.239 3.493-7.091 7.209-14.835 8.875-22.686.021-.032.044-.057.064-.088.965-1.596 2.083-3.066 3.277-4.475-.901 3.885.115 8.695.007 12.68-.12 4.47-.48 9.034.265 13.464.131.778.768.943 1.292.723 4.866 8.784 13.821 14.523 20.268 22.199 8.87 10.562 18.222 20.66 27.548 30.812 8.76 9.535 17.463 18.662 27.165 27.246 4.807 4.254 9.287 8.875 13.871 13.362 3.47 3.398 7.124 7.476 11.28 10.293-7.644 3.784-14.088 9.691-21.941 13.164-7.939 3.51-18.088 5.29-26.026 1.073zm123.985-84.147c-3.038 4.016-6.209 7.873-9.828 11.381-.432.42-.883.814-1.326 1.222a1.479 1.479 0 0 0-.263-.445c-8.417-9.722-18.552-17.789-27.347-27.161-9.105-9.701-17.847-19.768-25.937-30.331-8.198-10.71-16.295-21.496-24.502-32.201-3.922-5.116-7.316-10.654-11.379-15.651-3.626-4.458-7.586-8.541-11.136-13.058.409-.293.702-.829.584-1.476-.858-4.73-.221-12.175-3.654-15.958-.214-.237-.475.004-.486.253-.137 2.829.568 5.671.855 8.483.262 2.583.528 5.168 1.021 7.719-.218.219-.351.56-.251.859 1.608 4.807 5.412 8.519 8.75 12.193 4.215 4.64 7.451 9.996 11.147 15.039 8.265 11.279 16.962 22.272 25.365 33.453 8.32 11.072 17.352 21.544 26.745 31.715 9.067 9.817 19.613 18.179 28.365 28.279.034.039.07.066.106.101-6.232 5.384-13.132 9.948-19.187 15.534-7.31 6.745-13.504 14.588-20.844 21.337-3.504 3.223-7.069 6.379-10.496 9.683-2.79 2.69-5.256 5.643-8.177 8.184a1.343 1.343 0 0 0-.37-.283c-4.981-2.554-9.233-7.457-13.225-11.316-4.618-4.468-9.139-9.032-13.913-13.338-9.621-8.675-18.452-17.673-27.217-27.218-8.984-9.781-18.032-19.459-26.673-29.554-3.771-4.408-7.611-8.453-11.979-12.278-3.502-3.07-7.202-6.349-10.229-9.961.022-.095.05-.187.049-.294-.07-4.891-.069-9.745.015-14.64.061-3.578.628-8.769-1.78-11.722-.003-.004-.006-.004-.009-.006 1.706-1.951 3.545-3.795 5.336-5.676 3.808-3.994 7.32-8.292 11.055-12.36 4.879-5.317 9.845-10.603 15.112-15.556.792.151 1.725-.02 2.823-.649.743-.426.714-1.521.241-2.156a130.014 130.014 0 0 1 5.38-4.57c15.866-12.687 27.733-30.292 45.049-41.142.366-.228.541-.602.577-1.001 4.015-1.006 8.104-1.62 12.103-2.75 5.465-1.545 11.809-4.872 17.306-1.958 3.821 2.025 6.454 6.217 8.926 9.614 2.775 3.814 5.888 7.241 9.674 10.084.272.204.528.247.757.189 1.253 1.5 2.614 2.941 3.73 4.455 2.554 3.462 4.75 7.191 7.147 10.762 5.164 7.693 11.09 14.899 16.478 22.439 5.315 7.438 10.272 15.112 15.65 22.506 1.695 2.331 3.498 4.434 5.415 6.581 1.901 2.131 4.993 5.151 5.077 8.202-1.556 6.857-1.211 14.444-1.96 21.415-.749 6.962-1.829 13.889-2.461 20.861-.064.712.413 1.155.956 1.273-.564 3.775-5.172 8.258-7.165 10.893zm12.599-23.713c2.752 5.193 4.352 10.929-2.94 12.093a8.24 8.24 0 0 0-.18-1.546c-.104-.491-.325-.785-.591-.922.916-6.585 1.65-13.207 2.338-19.815.056-.534.115-1.076.178-1.621.59 3.877-.82 8.01 1.195 11.811zm6.106-23.751c-2.375 1.237-4.702 1.325-6.361 2.705.173-2.816.163-5.621-.229-8.31.627-.069 1.22-.538 1.228-1.424.002-.212-.02-.423-.036-.633 1.698-.621 3.013-1.582 4.97-1.683 1.921-.101 2.493 1.812 2.851 3.278.593 2.439-.084 4.849-2.423 6.067zM292.174 161.973c3.021 12.504 1.352 24.851-.827 37.308-.234 1.343 1.471 1.96 1.876.554 3.558-12.353 2.95-25.786-.46-38.072-.128-.461-.693-.214-.589.21zM300.106 154.047c-.676-1.059-1.895.041-1.372 1.008 4.506 8.361 6.813 17.56 7.804 26.963.848 8.047 1.302 16.897-2.339 24.352-.723 1.479 1.291 3.006 2.152 1.377 3.925-7.407 3.389-16.646 2.616-24.723-.969-10.133-3.325-20.319-8.861-28.977zM320.487 171.696c-1.196-9.85-4.132-21.093-9.902-29.32-.38-.542-1.062.155-.884.647 3.19 8.806 6.646 17.09 8.171 26.411 1.72 10.508 1.078 21.451-2.698 31.444-.574 1.516 1.484 3.113 2.159 1.383 3.808-9.774 4.411-20.222 3.154-30.565zM63.524 260.56c-7.159-2.624-11.818-8.926-15.087-15.537-1.688-3.414-2.856-7.062-3.752-10.755-.836-3.449-.827-7.018-1.592-10.448-.191-.857-1.281-.773-1.463.037-1.61 7.133 1.854 16.243 4.766 22.619 3.341 7.319 8.812 14.024 16.528 16.854 1.593.583 2.103-2.22.6-2.77zM50.036 265.961c-13.509-9.314-19.959-26.318-16.743-42.253.146-.723-.888-1.394-1.188-.551-5.639 15.855 3.07 36.206 16.863 45.019 1.331.85 2.224-1.42 1.068-2.215zM40.594 284.299c-9.895-5.208-15.979-17.558-20.27-27.416-2.688-6.179-4.035-12.927-4.894-19.581-.865-6.705.057-12.742 1.272-19.301.086-.459-.504-1.11-.873-.566-3.285 4.842-3.227 11.61-2.944 17.228.373 7.441 2.016 14.993 4.629 21.95 2.309 6.146 5.679 11.989 9.221 17.504 3.255 5.066 7.248 9.839 12.646 12.678 1.567.824 2.637-1.746 1.213-2.496z"/></svg>