<svg version="1.1" xmlns="http://www.w3.org/2000/svg" x="0" y="0" width="325.987" height="294.807" viewBox="-23.14 -3.09 325.987 294.807" xml:space="preserve"><path fill="none" stroke="#231F20" stroke-miterlimit="10" stroke-dasharray="5,3" d="M-22.605 72.895l325.451.38"/><path fill="#BBBDBF" d="M109.447 74.417h10.961v13.244h-10.961z"/><path fill="none" stroke="#231F20" stroke-width=".5" stroke-miterlimit="10" d="M109.447 74.417h10.961v13.244h-10.961z"/><path fill="#FFF" d="M82.732 100.6l-6.089-27.173c10.353 0 20.854-1.295 31.129 0 1.903.229 3.351 2.588 3.351 4.415v7.764c0 1.219-1.601 2.437-2.895 2.513-10.806.379-18.95 4.566-25.496 12.481"/><path fill="none" stroke="#231F20" stroke-width="1.502" stroke-miterlimit="10" d="M76.644 73.427c10.353 0 20.854-1.295 31.129 0 1.903.229 3.351 2.588 3.351 4.415v7.764c0 1.219-1.601 2.437-2.895 2.513-10.808.381-18.952 4.566-25.497 12.481"/><path fill="#FFF" d="M146.361 100.828l6.091-27.172c-10.275 0-20.778-1.219-31.056 0-1.75.229-3.425 2.512-3.425 4.413v7.688c0 1.294 1.598 2.513 2.969 2.513 10.808.457 18.876 4.566 25.421 12.558"/><path fill="none" stroke="#231F20" stroke-width="1.502" stroke-miterlimit="10" d="M152.45 73.656c-10.275 0-20.778-1.219-31.056 0-1.75.229-3.425 2.512-3.425 4.413v7.688c0 1.294 1.598 2.513 2.969 2.513 10.81.457 18.875 4.564 25.421 12.56"/><path fill="#BBBDBF" d="M225.44 74.95h12.026v13.167H225.44z"/><path fill="none" stroke="#231F20" stroke-width=".5" stroke-miterlimit="10" d="M225.44 74.95h12.026v13.167H225.44z"/><path fill="#FFF" d="M198.726 101.057l-6.089-27.173c10.351 0 20.854-1.294 31.129 0 1.904.229 3.424 2.589 3.424 4.414v7.688c0 1.217-1.674 2.513-2.97 2.513-10.804.455-18.949 4.565-25.494 12.558"/><path fill="none" stroke="#231F20" stroke-width="1.502" stroke-miterlimit="10" d="M192.637 73.885c10.351 0 20.854-1.294 31.129 0 1.904.229 3.424 2.589 3.424 4.414v7.688c0 1.217-1.674 2.513-2.97 2.513-10.806.456-18.951 4.565-25.495 12.56"/><path fill="#FFF" d="M262.354 101.284l6.166-27.173c-10.351 0-20.854-1.216-31.129 0-1.75.153-3.424 2.513-3.424 4.339v7.765c0 1.218 1.598 2.437 2.97 2.513 10.803.378 18.872 4.565 25.417 12.556"/><path fill="none" stroke="#231F20" stroke-width="1.502" stroke-miterlimit="10" d="M268.52 74.112c-10.351 0-20.854-1.218-31.129 0-1.75.153-3.424 2.513-3.424 4.339v7.765c0 1.218 1.598 2.437 2.97 2.513 10.808.38 18.874 4.565 25.42 12.559"/><path fill="none" stroke="#231F20" stroke-width="4" stroke-miterlimit="10" d="M228.256 20.607c19.638-.229 35.85 15.525 36.153 35.164.229 19.712-15.526 35.924-35.164 36.229-19.712.229-35.926-15.525-36.229-35.239-.227-19.715 15.527-35.85 35.24-36.154zM114.318 10.94c19.713-.305 35.851 15.451 36.076 35.163.308 19.714-15.374 35.85-35.087 36.152-19.712.306-35.924-15.45-36.152-35.163-.304-19.711 15.45-35.923 35.163-36.152zM26.715-1.085c19.712-.305 35.848 15.451 36.152 35.163.305 19.713-15.45 35.925-35.163 36.152C7.991 70.536-8.22 54.781-8.449 35.068-8.753 15.355 7.002-.856 26.715-1.085z"/><path fill="#D0D2D3" d="M21.234 73.504h9.209V87.28h-9.209z"/><path fill="none" stroke="#231F20" stroke-width=".5" stroke-miterlimit="10" d="M21.234 73.504h9.209V87.28h-9.209z"/><path fill="#FFF" d="M-5.48 100.219l-6.165-27.172c10.353 0 20.854-1.294 31.13 0 1.979.229 3.427 2.589 3.427 4.338v7.767c0 1.217-1.601 2.437-2.97 2.513-10.809.376-18.877 4.563-25.422 12.554"/><path fill="none" stroke="#231F20" stroke-width="1.502" stroke-miterlimit="10" d="M-11.646 73.047c10.353 0 20.854-1.294 31.13 0 1.979.229 3.427 2.589 3.427 4.338v7.767c0 1.217-1.601 2.437-2.97 2.513-10.808.376-18.876 4.563-25.421 12.554"/><path fill="#FFF" d="M58.148 100.448L64.237 73.2c-10.351 0-20.776-1.218-31.13 0-1.75.229-3.424 2.587-3.424 4.414v7.765c0 1.218 1.674 2.436 2.968 2.512 10.808.379 18.952 4.564 25.497 12.557"/><path fill="none" stroke="#231F20" stroke-width="1.502" stroke-miterlimit="10" d="M64.237 73.2c-10.351 0-20.776-1.218-31.13 0-1.75.229-3.424 2.587-3.424 4.414v7.765c0 1.218 1.674 2.436 2.968 2.512 10.81.38 18.951 4.566 25.497 12.56"/><path fill="#231F20" d="M282.453 33.853c-7.521 8.403-23.09 24.806-13.646 36.853.814 1.039 4.077 4.948 5.663 4.055 3.093-1.741 5.359-4.101 7.182-7.136 1.146-1.907 1.471-4.522 3.166-6.07 2.033-1.854 3.917-3.866 5.733-5.933 2.961-3.368 5.491-7.095 7.744-10.964.434-.746-.611-1.6-1.104-.758-3.858 6.635-8.696 12.414-14.36 17.582-.752.688-.889 2.438-1.307 3.44-.651 1.566-1.576 2.999-2.6 4.347-.951 1.254-2.17 2.271-3.434 3.192-2.46 1.793-5.158-1.86-6.312-3.622-3.369-5.137-1.771-10.69.767-15.809 3.33-6.708 8.446-12.576 13.405-18.118.555-.614-.259-1.771-.897-1.059z"/><g fill="#231F20"><path d="M292.008 33.445l-10.73 18.039c-.316.536.49 1.061.82.506l10.73-18.039c.318-.537-.49-1.061-.82-.506zM283.335 61.605c-5.689-2.521-10.394 7.529-12.257 11.112-.287.552.521 1.079.818.506 1.693-3.252 6.091-12.911 11.187-10.654.568.252.802-.72.252-.964z"/></g><path fill="#231F20" d="M280.24 54.172l1.219-9.21c1.444 2.438 3.35 3.729 6.242 3.809l-7.461 5.401z"/><path fill="none" stroke="#231F20" stroke-width=".046" stroke-linecap="round" stroke-linejoin="round" stroke-miterlimit="10" d="M280.24 54.172l1.219-9.21c1.444 2.438 3.35 3.729 6.242 3.809l-7.461 5.401z"/><path fill="#231F20" d="M174.377 34.38c7.546 8.437 21.579 22.818 13.6 34.765-.622.932-3.433 4.188-4.988 3.322-1.354-.754-2.505-1.826-3.562-2.941-1.146-1.208-2-2.668-2.782-4.125-.629-1.172-.949-3.654-1.819-4.449-5.654-5.158-10.521-10.898-14.285-17.582-.479-.851-1.524.006-1.104.757a70.552 70.552 0 0 0 6.839 10.001c1.705 2.089 3.594 4.022 5.52 5.908 1.971 1.929 2.604 3.729 3.751 6.123 1.359 2.847 3.467 5.24 6.001 7.091 2.665 1.946 4.598-.035 6.64-2.171 11.169-11.681-5.414-29.385-12.9-37.758-.646-.714-1.461.444-.911 1.059z"/><g fill="#231F20"><path d="M164.827 33.417c3.603 6.013 7.203 12.024 10.808 18.037.332.554 1.141.029.82-.505-3.604-6.013-7.205-12.025-10.81-18.037-.33-.553-1.138-.03-.818.505zM174.762 62.062c4.867-2.324 9.474 7.608 11.071 10.628.303.572 1.109.044.818-.505-1.905-3.604-6.671-13.708-12.372-10.986-.548.263-.088 1.135.483.863z"/></g><path fill="#231F20" d="M177.414 53.64l-1.22-9.21c-1.443 2.437-3.271 3.729-6.239 3.807l7.459 5.403z"/><path fill="none" stroke="#231F20" stroke-width=".046" stroke-linecap="round" stroke-linejoin="round" stroke-miterlimit="10" d="M177.414 53.64l-1.22-9.21c-1.443 2.437-3.271 3.729-6.239 3.807l7.459 5.403z"/><path fill="#231F20" d="M19.637 106.612l.913-.075c.076.458.229.762.532 1.066.229.229.607.305.914.305.457 0 .837-.153 1.142-.458.305-.382.456-.838.456-1.369 0-.533-.076-.914-.38-1.22-.304-.304-.687-.455-1.217-.455-.307 0-.533 0-.764.151a1.385 1.385 0 0 0-.606.532l-.837-.074.685-3.884h3.806v.838h-3.045l-.38 2.056c.457-.307.913-.457 1.446-.457.609 0 1.218.229 1.598.685.457.458.687 1.064.687 1.75 0 .687-.152 1.296-.532 1.751-.533.608-1.218.914-2.055.914-.688 0-1.22-.153-1.677-.533-.382-.381-.686-.913-.686-1.523M25.04 108.667l2.207-7.764h.762l-2.207 7.764zM28.389 106.612l.99-.075c.077.458.228.762.533 1.066.229.229.531.305.914.305.457 0 .837-.153 1.142-.458.304-.382.456-.838.456-1.369 0-.533-.152-.914-.456-1.22-.229-.304-.686-.455-1.142-.455-.306 0-.533 0-.839.151a1.725 1.725 0 0 0-.53.532l-.838-.074.686-3.884h3.805v.838h-3.044l-.38 2.056c.457-.307.913-.457 1.37-.457.687 0 1.218.229 1.675.685.457.458.687 1.064.687 1.75 0 .687-.152 1.296-.608 1.751-.457.608-1.142.914-1.979.914-.687 0-1.22-.153-1.676-.533-.462-.381-.69-.913-.766-1.523M108.078 106.765h-2.057v-.839l2.057-2.969v1.218l-1.144 1.749h1.144v.841zm1.217 1.826v-1.825h-1.217v-.839h1.217v-3.424l-1.217 1.674v-1.218l1.368-1.979h.763v4.946h.99v.839h-.99v1.826h-.914zM111.73 108.667l2.208-7.764h.761l-2.207 7.764zM115.079 106.612l.988-.075c.076.458.229.762.533 1.066.229.229.533.305.913.305.457 0 .837-.153 1.142-.458.307-.382.457-.838.457-1.369 0-.533-.15-.914-.381-1.22-.304-.304-.685-.455-1.217-.455-.305 0-.533 0-.761.151a1.402 1.402 0 0 0-.608.532l-.838-.074.688-3.884h3.806v.838h-3.045l-.381 2.056c.457-.307.914-.457 1.371-.457.685 0 1.218.229 1.674.685.457.458.685 1.064.685 1.75 0 .687-.15 1.296-.607 1.751-.457.608-1.144.914-1.979.914-.685 0-1.218-.153-1.674-.533-.461-.381-.689-.913-.766-1.523M224.527 106.536l.913-.076c.152.534.308.914.532 1.143.306.229.609.307.99.307s.761-.153 1.063-.458a1.5 1.5 0 0 0 .457-1.065c0-.456-.15-.837-.38-1.065a1.508 1.508 0 0 0-1.065-.457c-.229 0-.456.076-.685.154l.076-.838h.152c.456 0 .762-.076 1.063-.306.38-.229.532-.532.532-.99 0-.304-.152-.608-.379-.837-.229-.229-.533-.305-.913-.305-.306 0-.609.075-.915.305-.227.229-.379.607-.456 1.064l-.912-.151c.152-.687.38-1.143.76-1.445.458-.38.914-.533 1.522-.533.381 0 .761.077 1.142.229.383.229.609.458.837.763.153.304.229.608.229.989 0 .306-.076.608-.229.837-.228.306-.454.533-.837.687.458.074.837.305 1.066.606.228.307.38.764.38 1.219 0 .687-.229 1.218-.686 1.675a2.735 2.735 0 0 1-1.826.687c-.686 0-1.217-.153-1.674-.532-.453-.466-.68-.921-.757-1.607M229.931 108.667l2.207-7.764h.762l-2.208 7.764zM233.356 106.612l.988-.151c0 .532.229.838.459 1.143.304.229.606.304.991.304.456 0 .76-.151 1.142-.456.305-.381.456-.838.456-1.37s-.151-.913-.456-1.218c-.306-.38-.686-.532-1.219-.532-.306 0-.532.075-.762.229s-.457.306-.608.534l-.837-.075.761-3.883h3.73v.837h-3.046l-.38 2.055c.455-.304.911-.456 1.443-.456.609 0 1.219.229 1.675.684.457.459.687.991.687 1.751 0 .687-.229 1.295-.608 1.751-.531.608-1.142.912-1.978.912-.688 0-1.296-.151-1.751-.531-.383-.386-.61-.918-.687-1.528M208.918 5.871c-1.806 6.826-3.874 13.614-7.091 19.924-2.386 4.677-6.044 9.763-11.646 10.464a16.623 16.623 0 0 1-5.018-.115c-3.362-.597-3.607-2.225-3.196-5.206.257-1.864 1.037-3.621 1.868-5.289.708-1.424 2.786-3.04 3.02-4.538 1.185-7.566 3.312-14.823 6.786-21.665.389-.765-.658-1.628-1.102-.757a71.802 71.802 0 0 0-4.355 10.646c-.771 2.409-1.347 4.877-1.859 7.354-.572 2.747-1.469 4.775-2.969 7.111-2.175 3.387-3.077 7.362-2.774 11.345.154 2.061 5.106 2.629 6.578 2.752 15.075 1.256 20.146-20.881 22.986-31.627.234-.876-.979-1.341-1.228-.399z"/><g fill="#231F20"><path d="M204.404-2.555l-9.134 18.876c-.27.558.538 1.088.82.506l9.134-18.876c.27-.558-.537-1.089-.82-.506zM186.004 21.495c4.56 2.906-1.068 12.001-2.758 15.069-.303.545.508 1.071.818.505 1.994-3.62 7.726-13.055 2.416-16.438-.534-.341-.99.537-.476.864z"/></g><path fill="#231F20" d="M194.463 19.085l7.003-6.015c-2.816.076-4.87-.761-6.622-3.118l-.381 9.133z"/><path fill="none" stroke="#231F20" stroke-width=".046" stroke-linecap="round" stroke-linejoin="round" stroke-miterlimit="10" d="M194.463 19.085l7.003-6.015c-2.816.076-4.87-.761-6.622-3.118l-.381 9.133z"/><path fill="#231F20" d="M246.822 7.259c3.047 11.563 7.322 30.464 21.839 31.624 1.648.133 7.202-.33 7.704-2.474.808-3.447-.625-7.424-2.133-10.453-1.208-2.428-2.854-4.104-3.337-6.908-.438-2.538-1.062-5.039-1.762-7.515-1.151-4.077-2.788-8.009-4.705-11.779-.443-.872-1.49-.008-1.102.757 3.265 6.421 5.351 13.197 6.569 20.286.313 1.825.089 1.344 1.233 2.8 1.707 2.17 2.894 4.664 3.638 7.311.332 1.177 1.184 4.317-.197 5.209-2.08 1.345-4.751 1.359-7.116 1.171-5.706-.457-9.208-4.953-11.852-9.611-3.636-6.412-5.688-13.73-7.552-20.813-.244-.946-1.457-.482-1.227.395z"/><g fill="#231F20"><path d="M251.746-.984l9.133 18.875c.282.583 1.09.052.82-.506-3.046-6.292-6.091-12.583-9.135-18.875-.28-.581-1.087-.051-.818.506zM270.562 21.698c-5.34 3.342.362 12.739 2.343 16.362.312.567 1.119.041.82-.505-1.688-3.087-7.28-12.118-2.683-14.995.517-.323.061-1.201-.48-.862z"/></g><path fill="#231F20" d="M262.507 20.15l-7.002-6.015c2.813.075 4.948-.762 6.622-3.118l.38 9.133z"/><path fill="none" stroke="#231F20" stroke-width=".046" stroke-linecap="round" stroke-linejoin="round" stroke-miterlimit="10" d="M262.507 20.15l-7.002-6.015c2.813.075 4.948-.762 6.622-3.118l.38 9.133z"/><path fill="#BBBDBF" d="M32.271 214.615h10.43v13.242h-10.43z"/><path fill="none" stroke="#231F20" stroke-width=".5" stroke-miterlimit="10" d="M32.271 214.615h10.43v13.242h-10.43z"/><path fill="#FFF" d="M5.556 240.796l-6.165-27.171c10.428 0 20.931-1.296 31.206 0 1.903.229 3.349 2.587 3.349 4.414v7.688c0 1.218-1.598 2.511-2.892 2.511-10.809.456-18.952 4.567-25.498 12.558M69.185 241.024l6.165-27.171c-10.352 0-20.854-1.22-31.129 0-1.75.15-3.425 2.512-3.425 4.338v7.765c0 1.217 1.598 2.438 2.968 2.513 10.807.378 18.875 4.563 25.421 12.555"/><path fill="none" stroke="#231F20" stroke-width="1.502" stroke-miterlimit="10" d="M75.35 213.854c-10.352 0-20.854-1.22-31.129 0-1.75.15-3.425 2.512-3.425 4.338v7.765c0 1.217 1.598 2.438 2.968 2.514 10.808.379 18.875 4.563 25.421 12.558M-.609 213.625c10.428 0 20.931-1.296 31.206 0 1.903.229 3.349 2.587 3.349 4.414v7.688c0 1.218-1.598 2.511-2.892 2.511-10.808.458-18.951 4.567-25.497 12.561"/><path fill="#BBBDBF" d="M136.01 214.842h10.808v12.711H136.01z"/><path fill="none" stroke="#231F20" stroke-width=".5" stroke-miterlimit="10" d="M136.01 214.842h10.808v12.711H136.01z"/><path fill="#FFF" d="M109.295 240.492l-6.089-27.174c10.351 0 20.854-1.295 31.13 0 1.9.229 3.425 2.588 3.425 4.415v7.687c0 1.22-1.675 2.514-2.968 2.514-10.809.457-18.876 4.566-25.498 12.558"/><path fill="none" stroke="#231F20" stroke-width="1.502" stroke-miterlimit="10" d="M103.206 213.319c10.351 0 20.854-1.295 31.13 0 1.9.229 3.425 2.588 3.425 4.415v7.687c0 1.22-1.675 2.514-2.968 2.514-10.81.458-18.875 4.565-25.498 12.561"/><path fill="#FFF" d="M172.924 240.721l6.089-27.173c-10.351 0-20.854-1.219-31.053 0-1.75.152-3.425 2.513-3.425 4.339v7.765c0 1.217 1.674 2.437 2.969 2.512 10.73.378 18.799 4.565 25.42 12.557"/><path fill="none" stroke="#231F20" stroke-width="1.502" stroke-miterlimit="10" d="M179.013 213.549c-10.351 0-20.854-1.219-31.053 0-1.75.152-3.425 2.513-3.425 4.339v7.765c0 1.217 1.674 2.437 2.969 2.512 10.729.38 18.799 4.566 25.421 12.561"/><path fill="#BBBDBF" d="M234.954 214.995h11.034v12.861h-11.034z"/><path fill="none" stroke="#231F20" stroke-width=".5" stroke-miterlimit="10" d="M234.954 214.995h11.034v12.861h-11.034z"/><path fill="#FFF" d="M208.24 240.796l-6.165-27.171c10.427 0 20.854-1.296 31.129 0 1.979.229 3.426 2.587 3.426 4.414v7.688c0 1.295-1.602 2.511-2.969 2.511-10.807.456-18.876 4.567-25.421 12.558"/><path fill="none" stroke="#231F20" stroke-width="1.502" stroke-miterlimit="10" d="M202.074 213.625c10.427 0 20.854-1.296 31.129 0 1.979.229 3.426 2.587 3.426 4.414v7.688c0 1.295-1.602 2.511-2.969 2.511-10.811.458-18.875 4.567-25.424 12.561"/><path fill="#FFF" d="M271.868 241.024l6.165-27.171c-10.429 0-20.854-1.22-31.131 0-1.825.229-3.424 2.512-3.424 4.338v7.765c0 1.217 1.6 2.438 2.972 2.513 10.804.378 18.873 4.563 25.418 12.555"/><path fill="none" stroke="#231F20" stroke-width="1.502" stroke-miterlimit="10" d="M278.033 213.854c-10.429 0-20.854-1.22-31.131 0-1.825.229-3.424 2.512-3.424 4.338v7.765c0 1.217 1.6 2.438 2.972 2.514 10.806.379 18.873 4.563 25.42 12.558"/><path fill="none" stroke="#231F20" stroke-width="4" stroke-miterlimit="10" d="M140.577 196.728c19.637-.305 35.849 15.375 36.073 35.087.308 19.712-15.447 35.925-35.086 36.151-19.713.306-35.925-15.449-36.151-35.162-.304-19.712 15.451-35.848 35.164-36.076zm-104.044-9.666c19.712-.305 35.924 15.448 36.151 35.086.304 19.714-15.451 35.85-35.164 36.152-19.713.304-35.923-15.45-36.151-35.163-.304-19.635 15.451-35.847 35.164-36.075z"/><path fill="#231F20" d="M233.433 287.909c0-.913.076-1.676.304-2.208.152-.532.457-.912.764-1.219.38-.304.837-.456 1.369-.456v.763c-.383 0-.762.151-.989.532-.304.457-.456 1.295-.456 2.588 0 1.218.075 2.055.379 2.437.305.458.684.607 1.066.607v.763c-.686 0-1.297-.229-1.677-.763-.533-.608-.76-1.675-.76-3.044m2.434-3.882c.458 0 .762.076 1.064.229.303.153.608.382.76.687.23.305.384.685.533 1.142.076.457.154 1.065.154 1.827 0 .837-.076 1.598-.305 2.133-.152.532-.457.988-.838 1.216-.304.306-.763.458-1.369.458v-.762c.458 0 .837-.151 1.142-.608.229-.381.38-1.218.38-2.437 0-1.294-.153-2.132-.38-2.513-.305-.381-.684-.607-1.142-.607v-.765h.001zM238.836 291.714l2.207-7.763h.762l-2.207 7.763zM242.261 289.66l.989-.153c.076.532.229.836.458 1.143.305.229.607.305.989.305.456 0 .838-.151 1.144-.456.304-.381.456-.838.456-1.37 0-.534-.152-.914-.456-1.218-.306-.38-.688-.533-1.144-.533-.306 0-.607.075-.838.229-.228.151-.457.306-.607.532l-.836-.074.761-3.884h3.729v.839h-3.045l-.38 2.054c.456-.305.912-.455 1.445-.455.608 0 1.218.229 1.674.684.458.458.688.991.688 1.752 0 .686-.229 1.294-.608 1.75-.533.608-1.143.912-1.979.912-.688 0-1.297-.152-1.676-.531-.46-.384-.687-.917-.764-1.526"/><path fill="none" stroke="#231F20" stroke-width="4" stroke-miterlimit="10" d="M239.521 206.698c19.713-.229 35.925 15.449 36.152 35.164.305 19.712-15.45 35.85-35.164 36.151-19.712.229-35.848-15.524-36.151-35.164-.304-19.71 15.45-35.846 35.163-36.151z"/><path fill="none" stroke="#231F20" stroke-miterlimit="10" stroke-dasharray="5,3" d="M-23.139 213.092l325.452.381"/><path fill="#231F20" d="M34.174 272.077v.911h-4.948c0-.229 0-.455.077-.683.152-.306.304-.687.608-.991s.685-.685 1.218-1.141c.837-.687 1.37-1.219 1.674-1.602.304-.38.456-.761.456-1.142s-.152-.685-.38-.912c-.305-.229-.609-.38-1.065-.38-.457 0-.837.151-1.064.38-.306.303-.38.685-.38 1.143l-.99-.076c.077-.764.305-1.295.761-1.675.381-.381.99-.533 1.675-.533.763 0 1.293.229 1.75.608.457.381.609.913.609 1.521 0 .306-.077.533-.152.839-.15.305-.381.607-.607.912-.307.381-.763.837-1.445 1.37-.533.456-.914.762-1.066.914-.15.229-.304.379-.38.532h3.653v.004h-.004zM34.782 273.067l2.208-7.763h.685l-2.132 7.763zM38.131 271.012l.99-.075c.074.456.229.837.531 1.064.229.229.533.306.913.306.457 0 .838-.153 1.144-.457.304-.382.457-.839.457-1.371s-.152-.912-.457-1.218c-.307-.305-.687-.456-1.144-.456-.304 0-.606.074-.837.151-.228.152-.38.305-.533.532l-.912-.075.762-3.882h3.729v.837h-2.968l-.457 2.056a2.69 2.69 0 0 1 1.446-.458c.685 0 1.217.229 1.674.687.456.456.685 1.063.685 1.75 0 .685-.229 1.294-.607 1.749-.457.608-1.144.914-1.979.914-.685 0-1.217-.151-1.674-.532-.458-.383-.687-.913-.763-1.522M135.706 281.896h-.913v-5.938a2.695 2.695 0 0 1-.914.606c-.305.229-.687.38-.913.534v-.914a7.156 7.156 0 0 0 1.37-.913c.38-.306.607-.686.761-.988h.608l.001 7.613zM137.685 282.049l2.207-7.84h.685l-2.131 7.84zM141.033 279.916l.987-.075c.076.458.229.839.533 1.064.23.229.533.382.915.382.456 0 .836-.229 1.142-.532.306-.381.457-.762.457-1.371 0-.531-.151-.911-.457-1.217s-.686-.458-1.142-.458a2.77 2.77 0 0 0-.838.152c-.229.151-.38.381-.533.532l-.912-.076.762-3.881h3.729v.838h-2.969l-.457 2.056a2.675 2.675 0 0 1 1.443-.457c.687 0 1.219.229 1.676.685.458.458.685 1.064.685 1.751 0 .685-.228 1.293-.609 1.826-.454.607-1.141.912-1.977.912a2.515 2.515 0 0 1-1.674-.607c-.456-.381-.684-.915-.761-1.524M17.728 172.706c-1.804 6.825-3.875 13.614-7.091 19.924-2.384 4.676-6.044 9.762-11.643 10.463a16.897 16.897 0 0 1-5.02-.104c-3.373-.579-3.606-2.152-3.197-5.155.259-1.878 1.037-3.647 1.868-5.33.708-1.434 2.785-3.052 3.021-4.555 1.185-7.561 3.386-14.763 6.86-21.589.392-.767-.655-1.629-1.101-.758a74.106 74.106 0 0 0-4.396 10.605c-.786 2.396-1.369 4.855-1.893 7.321-.581 2.744-1.477 4.778-2.972 7.117-2.176 3.404-3.078 7.412-2.776 11.409.154 2.027 5.133 2.561 6.578 2.676 15.085 1.219 20.14-20.852 22.988-31.627.235-.874-.977-1.339-1.226-.397z"/><g fill="#231F20"><path d="M13.214 164.281c-3.021 6.316-6.039 12.635-9.06 18.951-.267.559.541 1.09.82.504 3.021-6.316 6.039-12.635 9.06-18.951.267-.557-.541-1.089-.82-.504zM-5.188 188.331c4.531 2.994-1.037 11.943-2.758 15.068-.3.545.508 1.07.82.504 2.033-3.689 7.684-12.955 2.417-16.438-.53-.348-.986.531-.479.866z"/></g><path fill="#231F20" d="M3.272 185.92l7.002-6.013c-2.814.151-4.872-.762-6.622-3.121l-.38 9.134z"/><path fill="none" stroke="#231F20" stroke-width=".046" stroke-linecap="round" stroke-linejoin="round" stroke-miterlimit="10" d="M3.272 185.92l7.002-6.013c-2.814.151-4.872-.762-6.622-3.121l-.38 9.134z"/><path fill="#231F20" d="M55.631 174.171c3.042 11.509 7.361 30.477 21.838 31.624 1.684.135 7.272-.375 7.781-2.55.8-3.421-.708-7.457-2.205-10.452-1.208-2.418-2.856-4.095-3.34-6.889-.439-2.533-1.064-5.029-1.764-7.503-1.152-4.087-2.786-8.03-4.707-11.812-.44-.871-1.487-.008-1.101.759 3.262 6.421 5.344 13.21 6.572 20.297.312 1.812.093 1.337 1.232 2.788 1.708 2.172 2.898 4.668 3.655 7.312.342 1.19 1.226 4.321-.165 5.233-2.098 1.376-4.771 1.413-7.169 1.224-5.691-.451-9.224-5.04-11.849-9.668-3.629-6.398-5.688-13.693-7.555-20.76-.243-.944-1.455-.479-1.223.397z"/><g fill="#231F20"><path d="M60.554 165.851l9.133 18.876c.282.583 1.09.053.82-.504l-9.133-18.876c-.282-.583-1.089-.053-.82.504zM79.372 188.533c-5.373 3.348.426 12.822 2.417 16.438.312.566 1.121.04.818-.505-1.688-3.067-7.375-12.191-2.758-15.068.52-.324.063-1.202-.477-.865z"/></g><path fill="#231F20" d="M71.315 186.986l-7.002-6.014c2.816.075 4.947-.762 6.622-3.12l.38 9.134z"/><path fill="none" stroke="#231F20" stroke-width=".046" stroke-linecap="round" stroke-linejoin="round" stroke-miterlimit="10" d="M71.315 186.986l-7.002-6.014c2.816.075 4.947-.762 6.622-3.12l.38 9.134z"/></svg>