<svg version="1.1" xmlns="http://www.w3.org/2000/svg" xmlns:xlink="http://www.w3.org/1999/xlink" x="0" y="0" width="326.234" height="168.283" viewBox="0 0 326.234 168.283" xml:space="preserve"><defs><path id="a" d="M.25.25h53.559v55.645H.25z"/></defs><clipPath id="b"><use xlink:href="#a" overflow="visible"/></clipPath><g clip-path="url(#b)"><path d="M4.276.236v1.793H.172V.236h4.104z"/><path fill="#FFF" d="M4.276.236h4.103v1.793h3.848c.572-.11.104-1.263.256-1.793h4.103v1.793h3.848c.572-.11.104-1.263.256-1.793h4.103v1.793h3.848c.572-.11.104-1.263.256-1.793h4.358v1.793h3.848c.572-.11.104-1.263.257-1.793h4.103v1.793h3.848c.572-.11.104-1.263.256-1.793h4.103v1.793h4.104v12.293h-3.848c-.593.859-.09 2.812-.256 4.097h4.104v12.55h-3.848c-.593.859-.09 2.812-.256 4.098h4.104V47.36h-3.848c-.593.859-.09 2.813-.256 4.098h4.104v4.354H49.67c-.778-.425-3.325-.425-4.103 0h-4.104c-.777-.425-3.323-.425-4.103 0h-4.104c-.862-.426-3.496-.426-4.358 0h-4.104c-.777-.425-3.324-.425-4.103 0h-4.104c-.777-.425-3.323-.425-4.103 0H8.38c-.778-.425-3.324-.425-4.103 0H.173v-4.354h3.848c.593-.86.089-2.813.256-4.098H.173V35.067h3.848c.593-.859.089-2.812.256-4.098H.173v-12.55h3.848c.593-.859.089-2.813.256-4.097H.173V2.029h4.104L4.276.236zm0 9.988h4.103V6.126H4.276v4.098zm8.206 0h4.103V6.126h-4.103v4.098zm8.206 0h4.103V6.126h-4.103v4.098zm8.206 0h4.358V6.126h-4.358v4.098zm8.462 0h4.103V6.126h-4.103v4.098zm8.206 0h4.103V6.126h-4.103v4.098zM8.379 18.419h4.104v-4.097H8.379v4.097zm8.205 0h4.104v-4.097h-4.104v4.097zm8.207 0h4.104v-4.097h-4.104v4.097zm8.461 0h4.104v-4.097h-4.104v4.097zm8.206 0h4.104v-4.097h-4.104v4.097zM4.276 26.872h4.103v-4.354H4.276v4.354zm8.206 0h4.103v-4.354h-4.103v4.354zm8.206 0h4.103v-4.354h-4.103v4.354zm8.206 0h4.358v-4.354h-4.358v4.354zm8.462 0h4.103v-4.354h-4.103v4.354zm8.206 0h4.103v-4.354h-4.103v4.354zM8.379 35.067h4.104v-4.098H8.379v4.098zm8.205 0h4.104v-4.098h-4.104v4.098zm8.207 0h4.104v-4.098h-4.104v4.098zm8.461 0h4.104v-4.098h-4.104v4.098zm8.206 0h4.104v-4.098h-4.104v4.098zM4.276 43.263h4.103v-4.098H4.276v4.098zm8.206 0h4.103v-4.098h-4.103v4.098zm8.206 0h4.103v-4.098h-4.103v4.098zm8.206 0h4.358v-4.098h-4.358v4.098zm8.462 0h4.103v-4.098h-4.103v4.098zm8.206 0h4.103v-4.098h-4.103v4.098zM8.379 51.458h4.104V47.36H8.379v4.098zm8.205 0h4.104V47.36h-4.104v4.098zm8.207 0h4.104V47.36h-4.104v4.098zm8.461 0h4.104V47.36h-4.104v4.098zm8.206 0h4.104V47.36h-4.104v4.098z"/><path d="M8.379.236h4.104c-.152.53.316 1.683-.256 1.793H8.379V.236zM16.584.236h4.104c-.153.53.316 1.683-.256 1.793h-3.848V.236zM24.791.236h4.104c-.152.53.316 1.683-.256 1.793h-3.848V.236zM33.252.236h4.104c-.153.53.315 1.683-.257 1.793h-3.848l.001-1.793zM41.458.236h4.104c-.153.53.316 1.683-.256 1.793h-3.848V.236zM49.665.236h4.104v1.793h-4.104V.236zM4.276 6.126h4.103v4.098H4.276V6.126zM12.482 6.126h4.103v4.098h-4.103V6.126zM20.688 6.126h4.103v4.098h-4.103V6.126zM28.894 6.126h4.358v4.098h-4.358V6.126zM37.356 6.126h4.103v4.098h-4.103V6.126zM45.562 6.126h4.103v4.098h-4.103V6.126zM.173 14.322h4.104c-.167 1.284.336 3.238-.256 4.097H.173v-4.097zM8.379 14.322h4.104v4.097H8.379v-4.097zM16.584 14.322h4.104v4.097h-4.104v-4.097zM24.791 14.322h4.104v4.097h-4.104v-4.097zM33.252 14.322h4.104v4.097h-4.104v-4.097zM41.458 14.322h4.104v4.097h-4.104v-4.097zM53.768 14.322v4.097h-4.104c.167-1.284-.336-3.238.256-4.097h3.848zM4.276 22.518h4.103v4.354H4.276v-4.354zM12.482 22.518h4.103v4.354h-4.103v-4.354zM20.688 22.518h4.103v4.354h-4.103v-4.354zM28.894 22.518h4.358v4.354h-4.358v-4.354zM37.356 22.518h4.103v4.354h-4.103v-4.354zM45.562 22.518h4.103v4.354h-4.103v-4.354zM.173 30.969h4.104c-.167 1.285.336 3.238-.256 4.098H.173v-4.098zM8.379 30.969h4.104v4.098H8.379v-4.098zM16.584 30.969h4.104v4.098h-4.104v-4.098zM24.791 30.969h4.104v4.098h-4.104v-4.098zM33.252 30.969h4.104v4.098h-4.104v-4.098zM41.458 30.969h4.104v4.098h-4.104v-4.098zM53.768 30.969v4.098h-4.104c.167-1.285-.336-3.238.256-4.098h3.848zM4.276 39.165h4.103v4.098H4.276v-4.098zM12.482 39.165h4.103v4.098h-4.103v-4.098zM20.688 39.165h4.103v4.098h-4.103v-4.098zM28.894 39.165h4.358v4.098h-4.358v-4.098zM37.356 39.165h4.103v4.098h-4.103v-4.098zM45.562 39.165h4.103v4.098h-4.103v-4.098zM.173 47.36h4.104c-.167 1.285.336 3.238-.256 4.098H.173V47.36zM8.379 47.36h4.104v4.098H8.379V47.36zM16.584 47.36h4.104v4.098h-4.104V47.36zM24.791 47.36h4.104v4.098h-4.104V47.36zM33.252 47.36h4.104v4.098h-4.104V47.36zM41.458 47.36h4.104v4.098h-4.104V47.36zM53.768 47.36v4.098h-4.104c.167-1.285-.336-3.239.256-4.098h3.848zM4.276 55.812c.778-.425 3.324-.425 4.103 0H4.276zM12.482 55.812c.777-.425 3.324-.425 4.103 0h-4.103zM20.688 55.812c.778-.425 3.325-.425 4.103 0h-4.103zM28.894 55.812c.862-.426 3.496-.426 4.358 0h-4.358zM37.356 55.812c.777-.425 3.324-.425 4.103 0h-4.103zM45.562 55.812c.777-.425 3.324-.425 4.103 0h-4.103z"/></g><path fill="none" stroke="#000" stroke-width=".5" d="M.25.25h53.559v55.645H.25z"/><defs><path id="c" d="M.25 56.358h53.559v55.644H.25z"/></defs><clipPath id="d"><use xlink:href="#c" overflow="visible"/></clipPath><g clip-path="url(#d)"><path d="M1.199 56.344c17.497 17.612 35.007 35.212 52.569 52.759v1.537C35.809 92.89 18.274 74.719.173 57.112v-.768h1.026z"/><path fill="#FFF" d="M1.199 56.344h4.359c16.03 16.173 32.122 32.288 48.209 48.405v4.354C36.206 91.558 18.695 73.957 1.199 56.344z"/><path d="M5.558 56.344h1.539c15.513 15.667 31.104 31.253 46.671 46.868v1.537C37.68 88.632 21.589 72.518 5.558 56.344z"/><path fill="#FFF" d="M7.097 56.344h4.358c14.04 14.237 28.235 28.318 42.313 42.514v4.354C38.202 87.599 22.609 72.011 7.097 56.344z"/><path d="M11.456 56.344h1.539c13.519 13.731 27.22 27.281 40.773 40.979v1.536C39.69 84.662 25.495 70.581 11.456 56.344z"/><path fill="#FFF" d="M12.995 56.344h4.359c12.042 12.304 24.348 24.343 36.414 36.624v4.354C40.215 83.625 26.512 70.076 12.995 56.344z"/><path d="M17.354 56.344h1.539c11.52 11.801 23.336 23.304 34.875 35.087v1.537c-12.066-12.281-24.372-24.32-36.414-36.624z"/><path fill="#FFF" d="M18.893 56.344h4.358c10.037 10.379 20.474 20.36 30.517 30.733v4.354C42.229 79.648 30.413 68.145 18.893 56.344z"/><path d="M23.252 56.344h1.282c9.604 9.958 19.626 19.499 29.234 29.453v1.28C43.725 76.704 33.289 66.723 23.252 56.344z"/><path fill="#FFF" d="M24.534 56.344h4.616A1333.336 1333.336 0 0 0 53.768 80.93v4.866c-9.608-9.953-19.63-19.494-29.234-29.452z"/><path d="M29.15 56.344h1.282A1200.862 1200.862 0 0 0 53.767 79.65v1.281A1339.595 1339.595 0 0 1 29.15 56.344z"/><path fill="#FFF" d="M30.432 56.344h4.358a792.31 792.31 0 0 0 18.977 18.952v4.354a1203.678 1203.678 0 0 1-23.335-23.306z"/><path d="M34.792 56.344h1.539a670.583 670.583 0 0 0 17.438 17.415v1.537a790.465 790.465 0 0 1-18.977-18.952z"/><path fill="#FFF" d="M36.33 56.344h4.359c4.252 4.46 8.61 8.814 13.078 13.062v4.354A672.158 672.158 0 0 1 36.33 56.344z"/><path d="M40.689 56.344h1.539a291.642 291.642 0 0 0 11.54 11.524v1.537a375.477 375.477 0 0 1-13.079-13.061z"/><path fill="#FFF" d="M42.228 56.344h4.103a122.03 122.03 0 0 0 7.438 7.427v4.097a291.667 291.667 0 0 1-11.541-11.524z"/><path d="M46.331 56.344h1.539a76.954 76.954 0 0 0 5.898 5.891v1.537a122.317 122.317 0 0 1-7.437-7.428z"/><path fill="#FFF" d="M47.87 56.344h4.359a5.208 5.208 0 0 0 1.539 1.537v4.354a76.773 76.773 0 0 1-5.898-5.891z"/><path d="M52.229 56.344h1.539v1.537a5.184 5.184 0 0 1-1.539-1.537z"/><path fill="#FFF" d="M.173 57.112C18.275 74.719 35.809 92.89 53.768 110.64v1.28h-3.077C33.857 95.011 17.089 78.036.173 61.21v-4.098z"/><path d="M.173 61.21c16.917 16.826 33.686 33.801 50.519 50.71h-1.539C32.835 95.519 16.569 79.068.173 62.747V61.21z"/><path fill="#FFF" d="M.173 62.747c16.396 16.321 32.663 32.771 48.979 49.174h-4.359C29.943 96.956 15.09 81.997.173 67.101v-4.354z"/><path d="M.173 67.101c14.917 14.896 29.771 29.855 44.62 44.82h-1.539A13735.656 13735.656 0 0 0 .173 68.637v-1.536z"/><path fill="#FFF" d="M.173 68.637a13628.114 13628.114 0 0 1 43.081 43.283h-4.359C26.033 98.897 13.087 85.961.173 72.991v-4.354z"/><path d="M.173 72.991c12.914 12.97 25.86 25.906 38.722 38.929h-1.282C25.187 99.317 12.646 86.829.173 74.272v-1.281z"/><path fill="#FFF" d="M.173 74.272c12.474 12.557 25.015 25.045 37.439 37.648h-4.616C22.136 100.826 11.063 89.944.173 78.881v-4.609z"/><path d="M.173 78.881c10.892 11.063 21.964 21.945 32.823 33.039h-1.282C21.288 101.247 10.627 90.81.173 80.163v-1.282z"/><path fill="#FFF" d="M.173 80.163c10.454 10.646 21.115 21.084 31.542 31.758h-4.359C18.418 102.664 9.123 93.763.173 84.517v-4.354z"/><path d="M.173 84.516c8.949 9.247 18.244 18.147 27.183 27.404h-1.538C17.404 103.164 8.593 94.803.173 86.053v-1.537z"/><path fill="#FFF" d="M.173 86.053c8.42 8.75 17.229 17.111 25.645 25.867h-4.359A1003.77 1003.77 0 0 0 .174 90.663l-.001-4.61z"/><path d="M.173 90.663a994.369 994.369 0 0 1 21.284 21.257h-1.539A859.83 859.83 0 0 0 .173 92.199v-1.536z"/><path fill="#FFF" d="M.173 92.199a859.872 859.872 0 0 1 19.746 19.721h-4.358A518.497 518.497 0 0 0 .174 96.553l-.001-4.354z"/><path d="M.173 96.553A524.597 524.597 0 0 1 15.56 111.92h-1.539A421.97 421.97 0 0 0 .173 98.089v-1.536z"/><path fill="#FFF" d="M.173 98.09a420.985 420.985 0 0 1 13.848 13.831H9.662a199.06 199.06 0 0 0-9.488-9.477L.173 98.09z"/><path d="M.173 102.444a196.276 196.276 0 0 1 9.488 9.476H8.122a139.414 139.414 0 0 0-7.949-7.94v-1.536z"/><path fill="#FFF" d="M.173 103.979a139.741 139.741 0 0 1 7.949 7.94H4.019a32.472 32.472 0 0 0-3.848-3.842c.002-1.365.002-2.73.002-4.098z"/><path d="M.173 108.079a32.472 32.472 0 0 1 3.848 3.842H2.482a11.673 11.673 0 0 0-2.309-2.305v-1.537z"/><path fill="#FFF" d="M.173 109.615a11.754 11.754 0 0 1 2.309 2.305H.173v-2.305z"/></g><path fill="none" stroke="#000" stroke-width=".5" d="M.25 56.358h53.559v55.644H.25z"/><path stroke="#000" stroke-width=".5" d="M.25 112.466h53.559v55.566H.25z"/><path d="M84.644 22.122h.619l3.786 9.196h-1.391l-1.082-2.782h-1.933v-1.005h1.624l-1.005-2.55c-.232-.695-.465-1.236-.619-1.7v-1.159zm-4.173 9.196l3.478-9.196h.695v1.159-.155c-.154.541-.31 1.16-.541 1.7l-1.005 2.705h1.545v1.005H82.79l-1.082 2.782h-1.237zM97.164 28.922l1.082.155c-.155.695-.463 1.314-.927 1.778-.541.386-1.159.618-1.855.618-.927 0-1.623-.309-2.24-.85-.541-.618-.773-1.468-.773-2.627 0-.695.078-1.314.31-1.855s.618-.927 1.082-1.237c.542-.231 1.083-.386 1.623-.386.696 0 1.314.155 1.777.541.464.387.773.928.928 1.545l-1.158.155c-.077-.386-.232-.772-.541-1.005-.231-.231-.541-.309-.929-.309-.618 0-1.082.231-1.391.618-.386.387-.541 1.082-.541 1.932 0 .927.154 1.546.464 1.932.386.464.85.618 1.391.618.465 0 .773-.154 1.082-.386a2.11 2.11 0 0 0 .616-1.237zM101.956 24.517c.851 0 1.624.309 2.241.928.542.541.851 1.391.851 2.473 0 .85-.153 1.546-.387 2.01-.23.541-.618.85-1.159 1.159-.463.309-1.005.386-1.546.386v-.927c.541 0 1.005-.232 1.392-.618.387-.464.542-1.082.542-1.932s-.155-1.468-.542-1.932c-.387-.387-.851-.618-1.392-.618v-.929zm-3.168 3.478c0-1.237.31-2.164 1.004-2.705.618-.541 1.313-.773 2.164-.773v.928c-.618 0-1.082.231-1.468.618-.309.464-.542 1.082-.542 1.932 0 .85.232 1.468.542 1.932.386.386.85.618 1.468.618v.927c-1.004 0-1.7-.309-2.317-.85-.543-.617-.851-1.467-.851-2.627zM106.361 31.318v-6.646h1.005v.928c.541-.696 1.237-1.083 2.164-1.083.386 0 .773.078 1.082.232.387.154.619.309.772.541.154.232.31.541.387.85v5.178h-1.082V27.3c0-.464-.078-.85-.154-1.083-.078-.231-.231-.386-.464-.541-.232-.077-.464-.154-.772-.154-.464 0-.928.154-1.236.464-.387.309-.541.85-.541 1.7v3.632h-1.161zM116.021 30.313l.154 1.004c-.31.078-.617.078-.85.078-.387 0-.772 0-.927-.154a1.827 1.827 0 0 1-.542-.541c-.077-.155-.077-.619-.077-1.314v-3.864h-.85v-.85h.85v-1.7l1.082-.619v2.319h1.159v.85h-1.159v3.941c0 .309 0 .542.077.618 0 .078.077.155.155.232.154 0 .231.078.386.078s.311 0 .542-.078zM117.104 31.318v-6.646h1.005v1.004c.309-.463.541-.773.771-.927.155-.155.465-.232.696-.232.387 0 .773.155 1.159.386l-.386 1.005c-.31-.155-.541-.232-.851-.232a.88.88 0 0 0-.619.232 1.22 1.22 0 0 0-.464.619c-.153.386-.153.85-.153 1.313v3.478h-1.158zM125.759 30.545c-.387.31-.85.618-1.236.696-.154.077-.386.154-.541.231v-.927c.231 0 .541-.078.772-.232.31-.154.541-.463.772-.772.078-.232.155-.619.155-1.16v-.386c-.387.155-1.006.309-1.7.386v-.928c.694-.077 1.313-.231 1.7-.386v-.231c0-.464-.077-.85-.311-1.005-.309-.231-.771-.386-1.312-.386h-.077v-.928h.231c.618 0 1.082.078 1.392.232.386.077.618.231.771.463.232.232.31.463.388.773 0 .231.076.541.076 1.082v1.469c0 1.082 0 1.7.078 2.009 0 .31.077.541.231.772h-1.159c-.075-.231-.153-.462-.23-.772zm-1.777.928h-.696c-.695 0-1.313-.155-1.7-.541-.386-.309-.541-.772-.541-1.314 0-.386.077-.695.232-.927.154-.31.309-.464.541-.619.231-.232.541-.309.85-.386a3.033 3.033 0 0 1 1.004-.155l.311-.078v.928h-.155a6.842 6.842 0 0 0-1.005.232c-.154.078-.309.232-.463.387-.077.155-.154.386-.154.541 0 .309.154.541.386.772.231.154.541.309 1.005.309.076 0 .231 0 .387-.077v.928h-.002zm0-6.028c-.541 0-.851.077-1.082.309-.232.155-.464.464-.541 1.005l-1.159-.155c.155-.541.309-.927.541-1.159.231-.309.541-.542 1.004-.695.311-.155.773-.232 1.237-.232v.927zM132.947 28.922l1.082.155a2.688 2.688 0 0 1-.927 1.778c-.464.386-1.082.618-1.855.618-.927 0-1.623-.309-2.164-.85-.541-.618-.85-1.468-.85-2.627 0-.695.078-1.314.387-1.855.231-.541.541-.927 1.082-1.237a3.532 3.532 0 0 1 1.546-.386c.773 0 1.314.155 1.778.541.463.387.771.928.927 1.545l-1.082.155c-.155-.386-.309-.772-.618-1.005-.231-.231-.541-.309-.927-.309-.619 0-1.083.231-1.392.618-.387.387-.541 1.082-.541 1.932 0 .927.154 1.546.541 1.932.309.464.772.618 1.313.618.464 0 .851-.154 1.082-.386a2.1 2.1 0 0 0 .618-1.237zM137.506 30.313l.155 1.004c-.309.078-.619.078-.85.078-.464 0-.773 0-1.005-.154-.231-.155-.387-.31-.465-.541-.076-.155-.153-.619-.153-1.314v-3.864h-.772v-.85h.772v-1.7l1.159-.619v2.319h1.158v.85h-1.158v3.941c0 .309 0 .542.077.618 0 .078.077.155.155.232.077 0 .231.078.386.078s.31 0 .541-.078zM138.588 23.436v-1.314h1.159v1.314h-1.159zm0 7.882v-6.646h1.159v6.646h-1.159zM144.153 24.517c.928 0 1.7.309 2.241.928.618.541.928 1.391.928 2.473 0 .85-.155 1.546-.386 2.01-.311.541-.696.85-1.16 1.159s-1.004.386-1.623.386v-.927c.541 0 1.005-.232 1.391-.618.388-.464.618-1.082.618-1.932s-.23-1.468-.618-1.932c-.386-.387-.85-.618-1.391-.618v-.929zm-3.091 3.478c0-1.237.309-2.164 1.005-2.705.541-.541 1.236-.773 2.086-.773v.928c-.541 0-1.005.231-1.391.618-.387.464-.541 1.082-.541 1.932 0 .85.153 1.468.541 1.932.386.386.85.618 1.391.618v.927c-.927 0-1.7-.309-2.241-.85-.619-.617-.85-1.467-.85-2.627zM148.636 31.318v-6.646h1.004v.928c.463-.696 1.158-1.083 2.087-1.083.464 0 .771.078 1.159.232.309.154.541.309.771.541.155.232.232.541.309.85.078.232.078.541.078 1.082v4.096h-1.158V27.3c0-.464 0-.85-.078-1.083-.155-.231-.31-.386-.463-.541a2.795 2.795 0 0 0-.851-.154c-.464 0-.85.154-1.237.464-.309.309-.541.85-.541 1.7v3.632h-1.08zM159.301 22.122h1.159v9.196h-1.159zM166.565 30.545c-.387.31-.773.618-1.159.696-.232.077-.464.154-.619.231v-.927c.232 0 .541-.078.773-.232.309-.154.618-.463.771-.772.078-.232.154-.619.154-1.16v-.386c-.386.155-1.004.309-1.7.386v-.928c.773-.077 1.314-.231 1.7-.386v-.231c0-.464-.077-.85-.309-1.005-.31-.231-.695-.386-1.314-.386h-.077v-.928h.232c.618 0 1.082.078 1.392.232.386.077.618.231.772.463.231.232.309.463.386.773.078.231.078.541.078 1.082v1.469c0 1.082 0 1.7.077 2.009 0 .31.153.541.231.772h-1.159c-.074-.231-.151-.462-.229-.772zm-1.777.928h-.695c-.694 0-1.235-.155-1.699-.541-.387-.309-.541-.772-.541-1.314 0-.386.077-.695.231-.927.154-.31.31-.464.541-.619.232-.232.541-.309.851-.386a3.03 3.03 0 0 1 1.005-.155l.309-.078v.928h-.154a6.81 6.81 0 0 0-1.005.232c-.154.078-.309.232-.464.387-.077.155-.153.386-.153.541 0 .309.153.541.387.772.23.154.541.309 1.004.309.155 0 .231 0 .386-.077l-.003.928zm0-6.028c-.464 0-.85.077-1.082.309-.231.155-.464.464-.542 1.005l-1.159-.155c.154-.541.31-.927.541-1.159.231-.309.541-.542 1.004-.695.311-.155.772-.232 1.236-.232v.927h.002zM168.961 29.386l1.082-.23c.077.463.232.771.541 1.082.31.231.695.309 1.159.309.541 0 .927-.078 1.16-.309.309-.231.386-.464.386-.773 0-.232-.077-.386-.309-.541-.155-.155-.541-.231-1.16-.386-.85-.232-1.391-.386-1.7-.541-.309-.155-.618-.386-.771-.695-.155-.232-.232-.542-.232-.85 0-.31.077-.619.232-.85.076-.232.309-.464.541-.619.153-.155.386-.231.694-.309.31-.077.619-.155 1.005-.155.541 0 1.004.078 1.392.232.387.154.694.309.85.618.232.232.311.619.387 1.005l-1.083.155c-.076-.31-.23-.619-.464-.773-.23-.231-.541-.309-1.004-.309-.542 0-.928.077-1.083.231-.23.232-.386.387-.386.619 0 .155.077.309.155.386.077.155.23.232.463.31.077.077.387.154 1.004.309.772.231 1.313.386 1.623.541.31.077.619.31.772.541.154.31.231.619.231 1.005 0 .386-.077.695-.309 1.082-.232.31-.541.542-.928.773a4.396 4.396 0 0 1-1.392.231c-.927 0-1.545-.155-2.009-.541-.46-.311-.769-.852-.847-1.548zM178.312 30.313l.154 1.004c-.309.078-.618.078-.85.078-.387 0-.772 0-1.005-.154-.155-.155-.386-.31-.464-.541-.077-.155-.154-.619-.154-1.314v-3.864h-.772v-.85h.772v-1.7l1.159-.619v2.319h1.159v.85h-1.159v3.941c0 .309 0 .542.077.618 0 .078.078.155.153.232.155 0 .232.078.388.078s.311 0 .542-.078zM179.395 23.436v-1.314h1.159v1.314h-1.159zm0 7.882v-6.646h1.159v6.646h-1.159zM182.254 31.318v-6.646h1.005v.928c.541-.696 1.236-1.083 2.164-1.083.387 0 .772.078 1.082.232.387.154.619.309.773.541s.309.541.386.85v5.178h-1.082V27.3c0-.464-.078-.85-.154-1.083-.077-.231-.232-.386-.464-.541-.231-.077-.464-.154-.772-.154-.541 0-.927.154-1.236.464-.386.309-.541.85-.541 1.7v3.632h-1.161zM191.992 33.096c.464 0 .85-.078 1.082-.309.309-.231.464-.464.541-.85.078-.231.154-.695.078-1.469-.464.542-1.005.85-1.701.85v-.927c.541 0 .928-.155 1.314-.619.309-.386.541-1.005.541-1.855s-.231-1.468-.541-1.854c-.387-.387-.851-.618-1.314-.618v-.928c.773 0 1.391.309 1.854.928v-.773h1.005v5.796c0 1.005-.077 1.778-.31 2.164-.154.464-.542.773-1.005 1.082-.387.232-.928.309-1.546.309l.002-.927zm-2.783-1.237l1.082.232c.077.309.232.541.388.695.309.231.694.309 1.158.309h.154v.927h-.154c-.772 0-1.392-.154-1.933-.541-.463-.308-.695-.849-.695-1.622zm2.783-.541h-.077c-.927 0-1.7-.309-2.164-1.004-.541-.618-.771-1.391-.771-2.318 0-.695.153-1.237.386-1.778.231-.541.541-1.004 1.004-1.236.386-.309.927-.464 1.546-.464h.077v.928c-.541 0-.927.231-1.312.618-.311.387-.541 1.004-.541 1.854s.23 1.469.541 1.855c.386.464.771.619 1.312.619v.926zM200.184 22.122h1.082v9.196h-1.082zM207.604 29.155l1.159.154a2.926 2.926 0 0 1-1.005 1.623c-.542.386-1.158.541-1.932.541h-.077v-.927h.077c.464 0 .773-.078 1.082-.309.308-.232.541-.542.696-1.082zm-1.855-4.638c.927 0 1.623.309 2.241.928.541.618.85 1.468.85 2.55v.309h-3.091v-.927h1.855c0-.541-.155-1.005-.388-1.314-.386-.387-.85-.618-1.391-.618h-.077v-.928zm0 6.956c-.928 0-1.7-.309-2.242-.85-.541-.618-.85-1.468-.85-2.55 0-1.159.309-2.009.85-2.627.619-.619 1.314-.928 2.242-.928v.928c-.464 0-.928.155-1.236.541-.387.309-.618.772-.618 1.391h1.854v.927h-1.933c.078.696.231 1.314.619 1.701.386.309.772.541 1.313.541v.926zM209.767 29.386l1.082-.23c.076.463.231.771.541 1.082.309.231.694.309 1.235.309.464 0 .851-.078 1.159-.309.232-.231.311-.464.311-.773 0-.232-.077-.386-.311-.541-.154-.155-.541-.231-1.159-.386-.85-.232-1.391-.386-1.7-.541-.309-.155-.617-.386-.771-.695-.155-.232-.232-.542-.232-.85 0-.31.078-.619.232-.85.154-.232.309-.464.541-.619.155-.155.387-.231.696-.309.309-.077.617-.155 1.005-.155.541 0 1.004.078 1.391.232.386.154.696.309.851.618.231.232.31.619.386 1.005l-1.082.155c-.077-.31-.232-.619-.464-.773-.231-.231-.541-.309-1.005-.309-.541 0-.928.077-1.082.231-.232.232-.387.387-.387.619 0 .155.077.309.154.386.077.155.232.232.463.31.078.077.387.154 1.005.309.773.231 1.314.386 1.623.541.311.077.619.31.772.541.154.31.231.619.231 1.005 0 .386-.078.695-.309 1.082-.232.31-.541.542-.927.773-.388.154-.929.231-1.393.231-.927 0-1.545-.155-2.009-.541-.46-.311-.77-.852-.847-1.548zM216.182 29.386l1.158-.23c0 .463.232.771.465 1.082.309.231.695.309 1.236.309.54 0 .929-.078 1.159-.309.231-.231.386-.464.386-.773 0-.232-.153-.386-.386-.541-.155-.155-.541-.231-1.159-.386-.772-.232-1.392-.386-1.701-.541a1.508 1.508 0 0 1-.694-.695c-.155-.232-.311-.542-.311-.85 0-.31.078-.619.232-.85.154-.232.309-.464.541-.619.23-.155.463-.231.771-.309.31-.077.619-.155.928-.155.541 0 1.005.078 1.392.232.386.154.695.309.927.618.155.232.311.619.388 1.005l-1.159.155c0-.31-.154-.619-.386-.773-.311-.231-.619-.309-1.083-.309-.465 0-.851.077-1.082.231-.232.232-.31.387-.31.619 0 .155 0 .309.077.386.154.155.232.232.464.31.154.077.464.154 1.005.309.772.231 1.392.386 1.7.541.309.077.541.31.695.541.231.31.309.619.309 1.005 0 .386-.154.695-.309 1.082-.231.31-.541.542-1.005.773-.388.154-.852.231-1.392.231-.851 0-1.546-.155-2.01-.541-.46-.311-.692-.852-.846-1.548zM229.087 30.313l.155 1.004c-.31.078-.617.078-.851.078-.463 0-.772 0-1.005-.154-.23-.155-.387-.31-.463-.541-.078-.155-.154-.619-.154-1.314v-3.864h-.852v-.85h.852v-1.7l1.159-.619v2.319h1.157v.85h-1.157v3.941c0 .309 0 .542.076.618 0 .078.077.155.154.232.076 0 .231.078.386.078.158 0 .313 0 .543-.078zM230.17 31.318v-9.196h1.081v3.323c.541-.619 1.237-.928 2.011-.928.54 0 .928.078 1.313.309.386.155.617.464.771.773.154.386.232.85.232 1.545v4.173h-1.083v-4.173c0-.618-.154-1.005-.386-1.237-.231-.309-.619-.386-1.082-.386-.311 0-.618.078-.928.231-.311.155-.463.387-.618.696-.154.309-.232.695-.232 1.236v3.632h-1.08v.002zM241.685 30.545c-.463.31-.852.618-1.237.696-.153.077-.386.154-.617.231v-.927c.311 0 .617-.078.852-.232.309-.154.541-.463.693-.772.155-.232.233-.619.233-1.16v-.386c-.387.155-1.006.309-1.778.386v-.928c.772-.077 1.393-.231 1.778-.386v-.231c0-.464-.155-.85-.311-1.005-.31-.231-.771-.386-1.313-.386h-.154v-.928h.311c.541 0 1.004.078 1.391.232.386.077.618.231.772.463s.31.463.387.773c0 .231.077.541.077 1.082V30.545c.077.31.154.541.31.772h-1.16a1.284 1.284 0 0 1-.234-.772zm-1.854.928h-.618c-.694 0-1.313-.155-1.699-.541-.388-.309-.541-.772-.541-1.314 0-.386.075-.695.153-.927.155-.31.388-.464.618-.619.232-.232.542-.309.852-.386.152-.077.541-.155 1.005-.155l.23-.078v.928h-.077c-.464.078-.851.155-1.006.232-.152.078-.308.232-.462.387-.079.155-.155.386-.155.541 0 .309.155.541.388.772.229.154.541.309 1.004.309.078 0 .231 0 .31-.077l-.002.928zm0-6.028c-.463 0-.771.077-1.004.309-.31.155-.465.464-.62 1.005l-1.081-.155c.077-.541.311-.927.542-1.159.153-.309.539-.542.928-.695a3.193 3.193 0 0 1 1.235-.232v.927zM244.467 31.318v-6.646h1.006v.928c.541-.696 1.235-1.083 2.165-1.083.386 0 .771.078 1.08.232.387.154.619.309.772.541.154.232.31.541.388.85v5.178h-1.082V27.3c0-.464-.078-.85-.154-1.083-.077-.231-.232-.386-.464-.541-.231-.077-.465-.154-.773-.154-.463 0-.927.154-1.236.464-.386.309-.541.85-.541 1.7v3.632h-1.161zM260.852 30.236v1.082h-6.106c0-.231.078-.541.155-.772.155-.386.386-.85.771-1.236.311-.387.772-.85 1.47-1.392 1.006-.772 1.699-1.468 2.01-1.932.387-.464.541-.928.541-1.391 0-.387-.154-.772-.465-1.083-.309-.309-.771-.463-1.313-.463-.541 0-.927.154-1.234.463-.388.31-.541.773-.541 1.391l-1.16-.154c.078-.85.387-1.546.929-2.01.462-.464 1.158-.618 2.086-.618.851 0 1.546.231 2.087.695.541.464.772 1.083.772 1.855 0 .309-.078.695-.231 1.082-.154.31-.387.696-.771 1.083-.311.386-.929.927-1.7 1.623-.696.618-1.16 1.004-1.314 1.159a2.556 2.556 0 0 0-.465.619l4.479-.001zM265.102 22.122c.465 0 .927.078 1.313.231.31.232.618.542.927.928.232.309.387.771.541 1.313.155.541.233 1.313.233 2.164 0 1.082-.155 2.009-.389 2.628-.23.695-.54 1.236-1.004 1.545-.387.386-1.004.541-1.623.541v-.927c.465 0 .927-.232 1.313-.695.31-.541.541-1.546.541-3.092 0-1.468-.231-2.473-.541-3.014-.388-.464-.772-.695-1.313-.695l.002-.927zm-3.015 4.636c0-1.082.078-1.932.312-2.627.229-.619.54-1.159 1.004-1.469.464-.386 1.005-.541 1.7-.541v.928c-.54 0-1.004.231-1.314.618-.386.541-.54 1.623-.54 3.091 0 1.545.154 2.551.54 3.092.312.463.774.695 1.314.695v.927c-.928 0-1.623-.309-2.086-.927-.619-.773-.93-2.009-.93-3.787zM272.677 29.386l1.157-.23c0 .463.231.771.463 1.082.311.231.696.309 1.237.309.542 0 .928-.078 1.159-.309s.387-.464.387-.773c0-.232-.153-.386-.387-.541-.155-.155-.541-.231-1.159-.386-.771-.232-1.392-.386-1.7-.541a1.51 1.51 0 0 1-.695-.695c-.154-.232-.309-.542-.309-.85 0-.31.076-.619.231-.85.154-.232.309-.464.541-.619.23-.155.463-.231.772-.309.309-.077.617-.155.927-.155.541 0 1.006.078 1.392.232.387.154.695.309.928.618.155.232.311.619.387 1.005l-1.159.155c0-.31-.154-.619-.387-.773-.31-.231-.618-.309-1.082-.309-.463 0-.85.077-1.083.231-.23.232-.309.387-.309.619 0 .155 0 .309.077.386.155.155.311.232.465.31.153.077.463.154 1.004.309.773.231 1.392.386 1.7.541.31.077.542.31.696.541.23.31.309.619.309 1.005 0 .386-.155.695-.309 1.082-.232.31-.542.542-1.006.773-.388.154-.85.231-1.392.231-.851 0-1.546-.155-2.01-.541-.459-.311-.69-.852-.845-1.548zM284.115 29.155l1.235.154c-.23.696-.541 1.236-1.082 1.623-.463.386-1.081.541-1.854.541h-.154v-.927h.154c.386 0 .773-.078 1.006-.309.307-.232.539-.542.695-1.082zm-1.856-4.638h.078c.851 0 1.622.309 2.162.928.542.618.852 1.468.852 2.55v.309h-3.092v-.927h1.934c-.077-.541-.232-1.005-.465-1.314-.387-.387-.85-.618-1.391-.618h-.078v-.928zm0 6.956c-.927 0-1.622-.309-2.24-.85-.541-.618-.851-1.468-.851-2.55 0-1.159.31-2.009.928-2.627.541-.619 1.312-.928 2.163-.928v.928c-.464 0-.927.155-1.235.541-.387.309-.541.772-.618 1.391h1.854v.927h-1.854c0 .696.231 1.314.618 1.701.31.309.771.541 1.235.541v.926zM291.069 28.922l1.16.155c-.154.695-.464 1.314-.927 1.778-.541.386-1.159.618-1.855.618-.927 0-1.7-.309-2.241-.85-.541-.618-.851-1.468-.851-2.627 0-.695.153-1.314.387-1.855.232-.541.619-.927 1.082-1.237.541-.231 1.006-.386 1.623-.386.696 0 1.313.155 1.777.541.464.387.772.928.851 1.545l-1.082.155a2.122 2.122 0 0 0-.541-1.005c-.309-.231-.618-.309-1.005-.309-.541 0-1.004.231-1.392.618-.31.387-.464 1.082-.464 1.932 0 .927.154 1.546.464 1.932.388.464.773.618 1.392.618.387 0 .772-.154 1.082-.386.308-.309.464-.696.54-1.237zM295.861 24.517c.929 0 1.701.309 2.242.928.618.541.928 1.391.928 2.473 0 .85-.155 1.546-.387 2.01-.311.541-.619.85-1.159 1.159-.464.309-1.005.386-1.624.386v-.927c.619 0 1.083-.232 1.47-.618.31-.464.54-1.082.54-1.932s-.23-1.468-.618-1.932c-.309-.387-.771-.618-1.392-.618v-.929zm-3.092 3.478c0-1.237.311-2.164 1.006-2.705.618-.541 1.312-.773 2.086-.773v.928c-.54 0-1.004.231-1.391.618-.388.464-.541 1.082-.541 1.932 0 .85.153 1.468.541 1.932.387.386.851.618 1.391.618v.927c-.927 0-1.7-.309-2.241-.85-.54-.617-.851-1.467-.851-2.627zM300.344 31.318v-6.646h1.004v.928c.541-.696 1.236-1.083 2.165-1.083.387 0 .771.078 1.081.232.31.154.618.309.771.541.154.232.31.541.31.85.078.232.078.541.078 1.082v4.096h-1.083V27.3c0-.464-.076-.85-.153-1.083-.076-.231-.231-.386-.463-.541-.233-.077-.541-.154-.774-.154-.539 0-.927.154-1.313.464-.308.309-.463.85-.463 1.7v3.632h-1.16zM311.86 31.318v-.85c-.464.696-1.005 1.005-1.777 1.005v-.927c.463 0 .926-.154 1.236-.618.386-.386.541-1.005.541-1.854 0-.85-.155-1.545-.541-2.009-.312-.387-.773-.618-1.236-.618v-.928c.309 0 .618.078.926.232.312.154.541.386.773.695v-3.323h1.082v9.196h-1.004zm-1.777.155h-.078a2.972 2.972 0 0 1-1.469-.386 3.298 3.298 0 0 1-1.081-1.236 4.684 4.684 0 0 1-.387-1.855c0-.618.154-1.237.387-1.778.231-.541.54-1.004 1.004-1.236.388-.309.929-.464 1.47-.464h.154v.928h-.078c-.464 0-.928.231-1.235.618-.311.387-.541 1.082-.541 1.932s.23 1.546.541 1.932c.387.386.771.618 1.313.618v.927zM314.255 29.386l1.081-.23c.078.463.233.771.541 1.082.233.231.696.309 1.159.309.541 0 .928-.078 1.16-.309.309-.231.387-.464.387-.773 0-.232-.078-.386-.31-.541-.155-.155-.542-.231-1.159-.386-.851-.232-1.391-.386-1.7-.541-.387-.155-.618-.386-.771-.695-.155-.232-.232-.542-.232-.85 0-.31.077-.619.232-.85.076-.232.309-.464.54-.619.153-.155.388-.231.694-.309.311-.077.619-.155 1.006-.155.541 0 .929.078 1.392.232.386.154.695.309.851.618.153.232.31.619.387 1.005l-1.082.155c-.076-.31-.231-.619-.465-.773-.231-.231-.54-.309-1.004-.309-.541 0-.929.077-1.158.231-.155.232-.312.387-.312.619 0 .155.079.309.155.386.078.155.23.232.465.31.076.077.386.154.926.309.852.231 1.393.386 1.701.541.309.077.54.31.771.541.155.31.232.619.232 1.005 0 .386-.077.695-.31 1.082-.232.31-.541.542-.929.773a4.515 4.515 0 0 1-1.469.231c-.85 0-1.467-.155-1.932-.541-.46-.311-.77-.852-.847-1.548zM84.644 78.229h.619l3.786 9.197h-1.391l-1.082-2.782h-1.933V83.64h1.624l-1.005-2.55c-.232-.696-.465-1.236-.619-1.7v-1.161zm-4.173 9.197l3.478-9.197h.695v1.16-.155c-.154.541-.31 1.159-.541 1.7l-1.005 2.705h1.545v1.004H82.79l-1.082 2.781-1.237.002zM97.164 85.031l1.082.153c-.155.695-.463 1.314-.927 1.778-.541.386-1.159.618-1.855.618-.927 0-1.623-.309-2.24-.85-.541-.619-.773-1.469-.773-2.627 0-.696.078-1.314.31-1.855s.618-.928 1.082-1.236c.542-.232 1.083-.387 1.623-.387.696 0 1.314.154 1.777.541.464.387.773.928.928 1.546l-1.158.231c-.077-.464-.232-.85-.541-1.082-.231-.232-.541-.309-.929-.309-.618 0-1.082.231-1.391.618-.386.387-.541 1.083-.541 1.933 0 .927.154 1.545.464 1.932.386.464.85.619 1.391.619.465 0 .773-.155 1.082-.387a2.11 2.11 0 0 0 .616-1.236zM101.956 80.625c.851 0 1.624.309 2.241.928.542.541.851 1.391.851 2.473 0 .85-.153 1.545-.387 2.009-.23.541-.618.85-1.159 1.159-.463.31-1.005.387-1.546.387v-.928c.541 0 1.005-.231 1.392-.618.387-.464.542-1.082.542-1.932s-.155-1.469-.542-1.933c-.387-.386-.851-.618-1.392-.618v-.927zm-3.168 3.479c0-1.237.31-2.164 1.004-2.705.618-.541 1.313-.773 2.164-.773v.928c-.618 0-1.082.231-1.468.618-.309.464-.542 1.083-.542 1.933s.232 1.468.542 1.932c.386.464.85.619 1.468.619v.927c-1.004 0-1.7-.309-2.317-.85-.543-.621-.851-1.47-.851-2.629zM106.361 87.426V80.78h1.005v.928c.541-.695 1.237-1.082 2.164-1.082.386 0 .773.077 1.082.232.387.155.619.309.772.541.154.231.31.541.387.85v5.178h-1.082v-4.019c0-.464-.078-.85-.154-1.082-.078-.232-.231-.386-.464-.541-.232-.077-.464-.155-.772-.155-.464 0-.928.155-1.236.464-.387.31-.541.85-.541 1.7v3.632h-1.161zM116.021 86.421l.154 1.005c-.31.078-.617.078-.85.078-.387 0-.772 0-.927-.155a1.804 1.804 0 0 1-.542-.541c-.077-.154-.077-.617-.077-1.313V81.63h-.85v-.85h.85v-1.623l1.082-.695v2.318h1.159v.85h-1.159v3.941c0 .309 0 .541.077.619 0 .078.077.153.155.23.154 0 .231.078.386.078s.311.001.542-.077zM117.104 87.426V80.78h1.005v1.005c.309-.464.541-.772.771-.927.155-.155.465-.232.696-.232.387 0 .773.154 1.159.387l-.386 1.004c-.31-.154-.541-.231-.851-.231a.888.888 0 0 0-.619.231 1.22 1.22 0 0 0-.464.619c-.153.386-.153.85-.153 1.314v3.478h-1.159v-.002zM125.759 86.653c-.387.31-.85.619-1.236.695-.154.077-.386.155-.541.232v-.85c.231-.078.541-.155.772-.311.31-.154.541-.463.772-.771.078-.231.155-.618.155-1.159v-.386c-.387.154-1.006.309-1.7.386v-.927c.694-.078 1.313-.232 1.7-.387v-.232c0-.464-.077-.85-.311-1.004-.309-.232-.771-.386-1.312-.386h-.077v-.928h.231c.618 0 1.082.077 1.392.232.386.077.618.232.771.463.232.232.31.464.388.773 0 .232.076.541.076 1.082v1.468c0 1.082 0 1.7.078 2.01 0 .31.077.541.231.772h-1.159c-.075-.231-.153-.462-.23-.772zm-1.777.928h-.696c-.695 0-1.313-.155-1.7-.541-.386-.309-.541-.771-.541-1.314 0-.386.077-.694.232-.927.154-.309.309-.464.541-.619.231-.231.541-.309.85-.386a3.011 3.011 0 0 1 1.004-.154l.311-.077v.927l-.155.077c-.463 0-.771.077-1.005.155-.154.154-.309.231-.463.387-.077.154-.154.386-.154.541 0 .309.154.541.386.771.231.232.541.311 1.005.311h.387v.849h-.002zm0-6.028c-.541 0-.851.077-1.082.309-.232.154-.464.463-.541 1.004l-1.159-.154c.155-.542.309-.928.541-1.159.231-.31.541-.541 1.004-.696.311-.155.773-.232 1.237-.232v.928zM132.947 85.031l1.082.153a2.688 2.688 0 0 1-.927 1.778c-.464.386-1.082.618-1.855.618-.927 0-1.623-.309-2.164-.85-.541-.619-.85-1.469-.85-2.627 0-.696.078-1.314.387-1.855.231-.541.541-.928 1.082-1.236a3.519 3.519 0 0 1 1.546-.387c.773 0 1.314.154 1.778.541.463.387.771.928.927 1.546l-1.082.231c-.155-.464-.309-.85-.618-1.082-.231-.232-.541-.309-.927-.309-.619 0-1.083.231-1.392.618-.387.387-.541 1.083-.541 1.933 0 .927.154 1.545.541 1.932.309.464.772.619 1.313.619.464 0 .851-.155 1.082-.387a2.1 2.1 0 0 0 .618-1.236zM137.506 86.421l.155 1.005c-.309.078-.619.078-.85.078-.464 0-.773 0-1.005-.155-.231-.154-.387-.309-.465-.541-.076-.154-.153-.617-.153-1.313V81.63h-.772v-.85h.772v-1.623l1.159-.695v2.318h1.158v.85h-1.158v3.941c0 .309 0 .541.077.619 0 .078.077.153.155.23.077 0 .231.078.386.078s.31.001.541-.077zM138.588 79.543v-1.314h1.159v1.314h-1.159zm0 7.883V80.78h1.159v6.646h-1.159zM144.153 80.625c.928 0 1.7.309 2.241.928.618.541.928 1.391.928 2.473 0 .85-.155 1.545-.386 2.009-.311.541-.696.85-1.16 1.159s-1.004.387-1.623.387v-.928c.541 0 1.005-.231 1.391-.618.388-.464.618-1.082.618-1.932s-.23-1.469-.618-1.933c-.386-.386-.85-.618-1.391-.618v-.927zm-3.091 3.479c0-1.237.309-2.164 1.005-2.705.541-.541 1.236-.773 2.086-.773v.928c-.541 0-1.005.231-1.391.618-.387.464-.541 1.083-.541 1.933s.153 1.468.541 1.932c.387.464.85.619 1.391.619v.927c-.927 0-1.7-.309-2.241-.85-.619-.621-.85-1.47-.85-2.629zM148.636 87.426V80.78h1.004v.928c.463-.695 1.158-1.082 2.087-1.082.464 0 .771.077 1.159.232.309.155.541.309.771.541.155.231.232.541.309.85.078.231.078.541.078 1.082v4.096h-1.158v-4.019c0-.464 0-.85-.078-1.082-.155-.232-.31-.386-.463-.541a2.794 2.794 0 0 0-.851-.155c-.464 0-.85.155-1.237.464-.309.31-.541.85-.541 1.7v3.632h-1.08zM159.301 78.229h1.159v9.197h-1.159zM166.565 86.653c-.387.31-.773.619-1.159.695a5.36 5.36 0 0 0-.619.232v-.85c.232-.078.541-.155.773-.311.309-.154.618-.463.771-.771.078-.231.154-.618.154-1.159v-.386c-.386.154-1.004.309-1.7.386v-.927c.773-.078 1.314-.232 1.7-.387v-.232c0-.464-.077-.85-.309-1.004-.31-.232-.695-.386-1.314-.386h-.077v-.928h.232c.618 0 1.082.077 1.392.232.386.077.618.232.772.463.231.232.309.464.386.773.078.232.078.541.078 1.082v1.468c0 1.082 0 1.7.077 2.01 0 .31.153.541.231.772h-1.159c-.074-.231-.151-.462-.229-.772zm-1.777.928h-.695c-.694 0-1.235-.155-1.699-.541-.387-.309-.541-.771-.541-1.314 0-.386.077-.694.231-.927a1.44 1.44 0 0 1 .541-.619c.232-.231.541-.309.851-.386a3.008 3.008 0 0 1 1.005-.154l.309-.077v.927l-.154.077c-.464 0-.771.077-1.005.155-.154.154-.309.231-.464.387-.077.154-.153.386-.153.541 0 .309.153.541.387.771.23.232.541.311 1.004.311h.386l-.003.849zm0-6.028c-.464 0-.85.077-1.082.309-.231.154-.464.463-.542 1.004l-1.159-.154c.154-.542.31-.928.541-1.159.231-.31.541-.541 1.004-.696.311-.155.772-.232 1.236-.232v.928h.002zM168.961 85.494l1.082-.231c.077.463.232.85.541 1.082.31.232.695.311 1.159.311.541 0 .927-.078 1.16-.311.309-.23.386-.464.386-.695 0-.309-.077-.463-.309-.617-.155-.155-.541-.232-1.16-.387-.85-.231-1.391-.387-1.7-.542-.309-.155-.618-.387-.771-.696-.155-.232-.232-.541-.232-.85s.077-.618.232-.85c.076-.232.309-.464.541-.618.153-.155.386-.232.694-.31.31-.077.619-.154 1.005-.154.541 0 1.004.077 1.392.232.387.155.694.309.85.618.232.232.311.618.387 1.004l-1.083.155c-.076-.309-.23-.619-.464-.771-.23-.232-.541-.309-1.004-.309-.542 0-.928.077-1.083.231-.23.231-.386.386-.386.619 0 .154.077.309.155.386.077.154.23.231.463.309.077.077.387.155 1.004.309.772.232 1.313.386 1.623.541.31.077.619.309.772.541.154.309.231.618.231 1.004s-.077.696-.309 1.082c-.232.309-.541.542-.928.772a4.37 4.37 0 0 1-1.392.232c-.927 0-1.545-.155-2.009-.541-.46-.309-.769-.85-.847-1.546zM178.312 86.421l.154 1.005c-.309.078-.618.078-.85.078-.387 0-.772 0-1.005-.155-.155-.154-.386-.309-.464-.541-.077-.154-.154-.617-.154-1.313V81.63h-.772v-.85h.772v-1.623l1.159-.695v2.318h1.159v.85h-1.159v3.941c0 .309 0 .541.077.619 0 .078.078.153.153.23.155 0 .232.078.388.078.156.001.311.001.542-.077zM179.395 79.543v-1.314h1.159v1.314h-1.159zm0 7.883V80.78h1.159v6.646h-1.159zM182.254 87.426V80.78h1.005v.928c.541-.695 1.236-1.082 2.164-1.082.387 0 .772.077 1.082.232.387.155.619.309.773.541.154.231.309.541.386.85v5.178h-1.082v-4.019c0-.464-.078-.85-.154-1.082-.077-.232-.232-.386-.464-.541-.231-.077-.464-.155-.772-.155-.541 0-.927.155-1.236.464-.386.31-.541.85-.541 1.7v3.632h-1.161zM191.992 89.204c.464 0 .85-.078 1.082-.309.309-.155.464-.465.541-.851.078-.231.154-.696.078-1.469-.464.542-1.005.85-1.701.85v-.927c.541 0 .928-.155 1.314-.619.309-.386.541-1.004.541-1.854s-.231-1.391-.541-1.855c-.387-.386-.851-.618-1.314-.618v-.928c.773 0 1.391.309 1.854.928v-.772h1.005v5.796c0 1.005-.077 1.778-.31 2.164-.154.464-.542.772-1.005 1.083-.387.23-.928.309-1.546.309l.002-.928zm-2.783-1.159l1.082.154c.077.309.232.541.388.696.309.23.694.309 1.158.309h.154v.927h-.154c-.772 0-1.392-.155-1.933-.541-.463-.309-.695-.85-.695-1.545zm2.783-.619h-.077c-.927 0-1.7-.309-2.164-1.005-.541-.618-.771-1.391-.771-2.318 0-.696.153-1.237.386-1.778.231-.541.541-1.005 1.004-1.236.386-.31.927-.464 1.546-.464h.077v.928c-.541 0-.927.231-1.312.618-.311.387-.541 1.005-.541 1.855s.23 1.468.541 1.854c.386.464.771.619 1.312.619v.927zM205.826 86.344v1.082h-6.104c0-.231 0-.541.153-.772.155-.385.388-.772.696-1.235.386-.387.85-.851 1.468-1.392 1.005-.772 1.7-1.468 2.087-1.932.31-.464.541-.928.541-1.391 0-.387-.23-.773-.541-1.082-.31-.309-.695-.463-1.235-.463-.541 0-1.005.155-1.314.463-.309.309-.463.773-.463 1.392l-1.16-.155c.078-.85.387-1.545.851-2.009.542-.386 1.236-.619 2.087-.619.927 0 1.623.232 2.164.696.463.464.771 1.082.771 1.854 0 .31-.077.696-.231 1.083-.154.309-.465.695-.773 1.082-.386.386-.927.927-1.777 1.623-.617.619-1.082 1.004-1.313 1.16-.155.231-.31.463-.464.617l4.557-.002zM209.999 78.229c.541 0 .927.078 1.313.232.387.231.695.541.928.927.231.309.464.773.619 1.313.077.541.154 1.313.154 2.241 0 1.082-.078 1.932-.31 2.55-.231.696-.542 1.237-1.005 1.546-.464.386-1.005.541-1.7.541v-.928c.541 0 1.005-.231 1.313-.695.387-.541.542-1.545.542-3.014 0-1.545-.155-2.55-.542-3.091a1.518 1.518 0 0 0-1.313-.696v-.926zm-3.014 4.715c0-1.159.155-2.009.386-2.705.232-.619.541-1.16 1.005-1.469.387-.386 1.004-.541 1.623-.541v.928c-.541 0-.928.232-1.236.618-.387.541-.541 1.623-.541 3.168 0 1.469.154 2.474.464 3.014.386.463.85.696 1.313.696v.927c-.85 0-1.545-.31-2.087-.927-.618-.773-.927-2.009-.927-3.709zM217.65 83.562h3.478v1.16h-3.478zM229.166 87.426v-2.163h-1.391V84.18h1.391v-4.096l-1.391 2.009v-1.545l1.623-2.319h.927v5.951h1.236v1.083h-1.236v2.164l-1.159-.001zm-1.391-2.163h-2.629V84.18l2.629-3.632v1.545l-1.47 2.086h1.47v1.084zM235.735 78.229c.463 0 .927.078 1.312.232.389.231.696.541.93.927.229.309.386.773.541 1.313.153.541.229 1.313.229 2.241 0 1.082-.152 1.932-.386 2.55-.155.696-.541 1.237-.927 1.546-.464.386-1.005.541-1.7.541v-.928c.541 0 .927-.231 1.312-.695.312-.541.542-1.545.542-3.014 0-1.545-.23-2.55-.542-3.091-.386-.464-.771-.696-1.312-.696l.001-.926zm-3.015 4.715c0-1.159.077-2.009.31-2.705.231-.619.617-1.16 1.005-1.469.463-.386 1.005-.541 1.7-.541v.928c-.542 0-.929.232-1.237.618-.386.541-.617 1.623-.617 3.168 0 1.469.154 2.474.54 3.014.311.463.772.696 1.314.696v.927c-.929 0-1.623-.31-2.088-.927-.617-.773-.927-2.009-.927-3.709zM243.308 85.494l1.158-.231c0 .463.232.85.465 1.082.31.232.694.311 1.235.311s.93-.078 1.16-.311c.23-.23.386-.464.386-.695 0-.309-.154-.463-.31-.617-.153-.155-.541-.232-1.158-.387-.85-.231-1.469-.387-1.778-.542s-.541-.387-.694-.696c-.155-.232-.231-.541-.231-.85s0-.618.155-.85c.153-.232.308-.464.541-.618.229-.155.463-.232.771-.31.31-.077.618-.154.93-.154.54 0 1.004.077 1.391.232.386.155.695.309.927.618.154.232.311.618.388 1.004l-1.159.155c0-.309-.154-.619-.386-.771-.233-.232-.619-.309-1.083-.309s-.852.077-1.082.231c-.231.231-.31.386-.31.619 0 .154 0 .309.154.386.077.154.23.231.386.309.154.077.464.155 1.005.309.773.232 1.392.386 1.7.541.311.077.541.309.696.541.231.309.309.618.309 1.004s-.076.696-.309 1.082c-.232.309-.541.542-1.006.772-.387.155-.851.232-1.392.232-.851 0-1.545-.155-2.01-.541-.385-.309-.695-.85-.849-1.546zM254.824 85.34l1.159.078c-.231.694-.541 1.235-1.082 1.623-.463.386-1.083.541-1.855.541h-.076v-.927h.076c.388 0 .772-.078 1.007-.311.307-.232.539-.54.771-1.004zm-1.855-4.715c.85 0 1.623.309 2.163.928.541.618.852 1.468.852 2.55v.309h-3.015v-.928h1.854c-.078-.541-.231-1.005-.464-1.314-.387-.386-.851-.618-1.393-.618v-.927h.003zm0 6.956c-1.005 0-1.699-.309-2.24-.85-.619-.618-.929-1.469-.929-2.551 0-1.159.31-2.009.929-2.627.541-.619 1.312-.928 2.24-.928v.928c-.541 0-.928.154-1.313.541-.386.31-.541.773-.618 1.391h1.933v.928h-1.933c0 .695.232 1.312.618 1.699.31.31.772.541 1.313.541v.928zM261.702 85.031l1.16.153c-.155.695-.464 1.314-.928 1.778-.541.386-1.16.618-1.854.618-.928 0-1.623-.309-2.241-.85-.541-.619-.772-1.469-.772-2.627 0-.696.077-1.314.309-1.855.233-.541.619-.928 1.083-1.236.541-.232 1.082-.387 1.623-.387.694 0 1.313.154 1.776.541.465.387.771.928.851 1.546l-1.082.231a2.058 2.058 0 0 0-.541-1.082c-.23-.232-.618-.309-.928-.309-.617 0-1.082.231-1.391.618-.387.387-.541 1.083-.541 1.933 0 .927.154 1.545.464 1.932.386.464.851.619 1.392.619.386 0 .772-.155 1.082-.387.306-.309.461-.696.538-1.236zM266.494 80.625c.928 0 1.7.309 2.318.928.541.541.851 1.391.851 2.473 0 .85-.154 1.545-.387 2.009-.232.541-.618.85-1.158 1.159-.465.31-1.006.387-1.624.387v-.928c.618 0 1.082-.231 1.469-.618.31-.464.541-1.082.541-1.932s-.231-1.469-.541-1.933c-.387-.386-.851-.618-1.469-.618v-.927zm-3.092 3.479c0-1.237.31-2.164 1.005-2.705.618-.541 1.314-.773 2.087-.773v.928c-.541 0-1.006.231-1.392.618-.387.464-.54 1.083-.54 1.933s.153 1.468.54 1.932c.386.464.851.619 1.392.619v.927c-.927 0-1.623-.309-2.241-.85-.542-.621-.851-1.47-.851-2.629zM270.976 87.426V80.78h1.005v.928c.541-.695 1.237-1.082 2.163-1.082.388 0 .773.077 1.083.232.386.155.618.309.771.541.154.231.311.541.387.85v5.178h-1.081v-4.019c0-.464-.077-.85-.155-1.082-.077-.232-.23-.386-.464-.541-.231-.077-.463-.155-.772-.155-.541 0-.928.155-1.234.464-.389.31-.542.85-.542 1.7v3.632h-1.161zM282.492 87.426v-.85c-.387.696-1.005 1.005-1.778 1.005v-.928c.465 0 .929-.154 1.236-.618.388-.386.542-1.004.542-1.855 0-.85-.154-1.545-.542-2.009a1.611 1.611 0 0 0-1.236-.618v-.928c.311 0 .619.077.929.232.309.155.541.386.771.696v-3.324h1.082v9.197h-1.004zm-1.779.155h-.076a2.962 2.962 0 0 1-1.469-.387c-.464-.31-.85-.695-1.083-1.236a4.7 4.7 0 0 1-.386-1.854c0-.619.154-1.237.386-1.778.233-.541.541-1.005 1.005-1.236.388-.31.929-.464 1.47-.464h.153v.928h-.076c-.464 0-.928.231-1.236.618-.311.387-.464 1.083-.464 1.933s.153 1.544.541 1.932c.309.386.772.619 1.235.619v.925zM284.887 85.494l1.082-.231c.076.463.23.85.539 1.082.312.232.696.311 1.16.311.54 0 .928-.078 1.16-.311.309-.23.386-.464.386-.695 0-.309-.077-.463-.31-.617-.155-.155-.541-.232-1.159-.387-.851-.231-1.392-.387-1.7-.542s-.618-.387-.771-.696c-.154-.232-.232-.541-.232-.85s.078-.618.232-.85c.076-.232.309-.464.541-.618.153-.155.386-.232.693-.31.312-.077.62-.154 1.007-.154.54 0 1.005.077 1.391.232.387.155.696.309.85.618.232.232.311.618.389 1.004l-1.082.155c-.078-.309-.231-.619-.465-.771-.231-.232-.541-.309-1.005-.309-.542 0-.928.077-1.083.231-.229.231-.386.386-.386.619 0 .154.077.309.155.386.076.154.229.231.463.309.078.077.388.155 1.005.309.773.232 1.314.386 1.623.541.31.077.618.309.773.541.152.309.23.618.23 1.004s-.078.696-.31 1.082c-.231.309-.541.542-.928.772a4.374 4.374 0 0 1-1.392.232c-.927 0-1.546-.155-2.009-.541-.46-.309-.77-.85-.847-1.546zM84.644 134.338h.619l3.786 9.196h-1.391l-1.082-2.782h-1.933v-1.005h1.624l-1.005-2.55c-.232-.695-.465-1.236-.619-1.7v-1.159zm-4.173 9.196l3.478-9.196h.695v1.159-.155c-.154.541-.31 1.16-.541 1.7l-1.005 2.705h1.545v1.005H82.79l-1.082 2.782h-1.237zM97.164 141.14l1.082.154c-.155.773-.463 1.314-.927 1.778-.541.463-1.159.618-1.855.618-.927 0-1.623-.31-2.24-.851-.541-.618-.773-1.468-.773-2.55 0-.771.078-1.391.31-1.932s.618-.928 1.082-1.236c.542-.232 1.083-.387 1.623-.387.696 0 1.314.154 1.777.541.464.387.773.928.928 1.546l-1.158.231c-.077-.464-.232-.85-.541-1.082-.231-.154-.541-.309-.929-.309-.618 0-1.082.232-1.391.618-.386.387-.541 1.081-.541 1.932 0 .927.154 1.546.464 1.933.386.463.85.617 1.391.617.465 0 .773-.078 1.082-.386.307-.31.539-.694.616-1.235zM101.956 136.733c.851 0 1.624.309 2.241.928.542.541.851 1.391.851 2.473 0 .85-.153 1.547-.387 2.01-.23.541-.618.928-1.159 1.159-.463.31-1.005.386-1.546.386v-.926c.541 0 1.005-.154 1.392-.619.387-.463.542-1.082.542-1.932s-.155-1.468-.542-1.932c-.387-.387-.851-.618-1.392-.618v-.929zm-3.168 3.478c0-1.235.31-2.164 1.004-2.705.618-.541 1.313-.772 2.164-.772v.928c-.618 0-1.082.232-1.468.617-.309.465-.542 1.082-.542 1.933s.232 1.546.542 1.933c.386.463.85.617 1.468.617v.928c-1.004 0-1.7-.31-2.317-.851-.543-.617-.851-1.468-.851-2.628zM106.361 143.534v-6.646h1.005v.928c.541-.695 1.237-1.082 2.164-1.082.386 0 .773.078 1.082.231.387.154.619.31.772.541.154.231.31.541.387.851v5.178h-1.082v-4.018c0-.465-.078-.851-.154-1.084-.078-.23-.231-.386-.464-.541-.232-.076-.464-.154-.772-.154-.464 0-.928.154-1.236.464-.387.309-.541.85-.541 1.7v3.632h-1.161zM116.021 142.53l.154 1.004c-.31.078-.617.154-.85.154-.387 0-.772-.076-.927-.23a1.839 1.839 0 0 1-.542-.541c-.077-.154-.077-.619-.077-1.314v-3.863h-.85v-.85h.85v-1.623l1.082-.697v2.318h1.159v.85h-1.159v3.941c0 .309 0 .543.077.618 0 .078.077.155.155.231.154.078.231.078.386.078s.311 0 .542-.076zM117.104 143.534v-6.646h1.005v1.006c.309-.465.541-.773.771-.928.155-.154.465-.232.696-.232.387 0 .773.156 1.159.388l-.386 1.005c-.31-.154-.541-.232-.851-.232a.884.884 0 0 0-.619.232c-.23.154-.386.387-.464.618-.153.386-.153.85-.153 1.313v3.478l-1.158-.002zM125.759 142.763c-.387.309-.85.618-1.236.771-.154 0-.386.078-.541.154v-.85c.231-.076.541-.154.772-.309.31-.154.541-.463.772-.772.078-.231.155-.618.155-1.159v-.387c-.387.155-1.006.311-1.7.387v-.928c.694-.077 1.313-.232 1.7-.309v-.31c0-.464-.077-.772-.311-1.005-.309-.23-.771-.386-1.312-.386h-.077v-.929h.231c.618 0 1.082.078 1.392.232.386.077.618.309.771.463.232.232.31.465.388.773 0 .23.076.541.076 1.082v1.469c0 1.082 0 1.7.078 2.009 0 .31.077.541.231.772h-1.159c-.075-.228-.153-.46-.23-.768zm-1.777.925h-.696c-.695 0-1.313-.154-1.7-.541-.386-.309-.541-.771-.541-1.313 0-.386.077-.618.232-.927.154-.232.309-.465.541-.619.231-.23.541-.309.85-.387a3.064 3.064 0 0 1 1.004-.154l.311-.077v.927l-.155.078c-.463 0-.771.077-1.005.154-.154.154-.309.232-.463.387-.077.154-.154.387-.154.541 0 .309.154.541.386.771.231.232.541.31 1.005.31h.387v.85h-.002zm0-6.027c-.541 0-.851.154-1.082.309-.232.155-.464.463-.541 1.006l-1.159-.156c.155-.463.309-.85.541-1.158.231-.309.541-.541 1.004-.695.311-.154.773-.232 1.237-.232v.926zM132.947 141.14l1.082.154c-.077.773-.387 1.314-.927 1.778-.464.463-1.082.618-1.855.618-.927 0-1.623-.31-2.164-.851-.541-.618-.85-1.468-.85-2.55 0-.771.078-1.391.387-1.932.231-.541.541-.928 1.082-1.236a3.519 3.519 0 0 1 1.546-.387c.773 0 1.314.154 1.778.541.463.387.771.928.927 1.546l-1.082.231c-.155-.464-.309-.85-.618-1.082-.231-.154-.541-.309-.927-.309-.619 0-1.083.232-1.392.618-.387.387-.541 1.081-.541 1.932 0 .927.154 1.546.541 1.933.309.463.772.617 1.313.617.464 0 .851-.078 1.082-.386.309-.31.541-.694.618-1.235zM137.506 142.53l.155 1.004c-.309.078-.619.154-.85.154-.464 0-.773-.076-1.005-.23-.231-.155-.387-.311-.465-.541-.076-.154-.153-.619-.153-1.314v-3.863h-.772v-.85h.772v-1.623l1.159-.697v2.318h1.158v.85h-1.158v3.941c0 .309 0 .543.077.618 0 .078.077.155.155.231.077.078.231.078.386.078s.31 0 .541-.076zM138.588 135.651v-1.313h1.159v1.313h-1.159zm0 7.883v-6.646h1.159v6.646h-1.159zM144.153 136.733c.928 0 1.7.309 2.241.928.618.541.928 1.391.928 2.473 0 .85-.155 1.547-.386 2.01-.311.541-.696.928-1.16 1.159-.464.31-1.004.386-1.623.386v-.926c.541 0 1.005-.154 1.391-.619.388-.463.618-1.082.618-1.932s-.23-1.468-.618-1.932c-.386-.387-.85-.618-1.391-.618v-.929zm-3.091 3.478c0-1.235.309-2.164 1.005-2.705.541-.541 1.236-.772 2.086-.772v.928c-.541 0-1.005.232-1.391.617-.387.465-.541 1.082-.541 1.933s.153 1.546.541 1.933c.386.463.85.617 1.391.617v.928c-.927 0-1.7-.31-2.241-.851-.619-.617-.85-1.468-.85-2.628zM148.636 143.534v-6.646h1.004v.928c.463-.695 1.158-1.082 2.087-1.082.464 0 .771.078 1.159.231.309.154.541.31.771.541.155.231.232.541.309.851.078.231.078.541.078 1.082v4.096h-1.158v-4.018c0-.465 0-.851-.078-1.084-.155-.23-.31-.386-.463-.541a2.826 2.826 0 0 0-.851-.154c-.464 0-.85.154-1.237.464-.309.309-.541.85-.541 1.7v3.632h-1.08zM159.301 134.338h1.159v9.196h-1.159zM166.565 142.763c-.387.309-.773.618-1.159.771a1.48 1.48 0 0 0-.619.154v-.85c.232-.076.541-.154.773-.309.309-.154.618-.463.771-.772.078-.231.154-.618.154-1.159v-.387c-.386.155-1.004.311-1.7.387v-.928c.773-.077 1.314-.232 1.7-.309v-.31c0-.464-.077-.772-.309-1.005-.31-.23-.695-.386-1.314-.386h-.077v-.929h.232c.618 0 1.082.078 1.392.232.386.077.618.309.772.463.231.232.309.465.386.773.078.23.078.541.078 1.082v1.469c0 1.082 0 1.7.077 2.009 0 .31.153.541.231.772h-1.159c-.074-.228-.151-.46-.229-.768zm-1.777.925h-.695c-.694 0-1.235-.154-1.699-.541-.387-.309-.541-.771-.541-1.313 0-.386.077-.618.231-.927.154-.232.31-.465.541-.619.232-.23.541-.309.851-.387a3.061 3.061 0 0 1 1.005-.154l.309-.077v.927l-.154.078c-.464 0-.771.077-1.005.154-.154.154-.309.232-.464.387-.077.154-.153.387-.153.541 0 .309.153.541.387.771.23.232.541.31 1.004.31h.386l-.003.85zm0-6.027c-.464 0-.85.154-1.082.309-.231.155-.464.463-.542 1.006l-1.159-.156c.154-.463.31-.85.541-1.158s.541-.541 1.004-.695c.311-.154.772-.232 1.236-.232v.928h.002zM168.961 141.603l1.082-.231c.077.463.232.851.541 1.082.31.231.695.31 1.159.31.541 0 .927-.078 1.16-.31.309-.231.386-.464.386-.695 0-.31-.077-.464-.309-.618-.155-.156-.541-.231-1.16-.387-.85-.23-1.391-.386-1.7-.541-.309-.154-.618-.386-.771-.618a2.054 2.054 0 0 1-.232-.927c0-.311.077-.541.232-.85.076-.232.309-.465.541-.619.153-.155.386-.231.694-.309.31-.078.619-.156 1.005-.156.541 0 1.004.078 1.392.232.387.154.694.387.85.618.232.231.311.619.387 1.005l-1.083.155c-.076-.31-.23-.618-.464-.773-.23-.231-.541-.309-1.004-.309-.542 0-.928.077-1.083.231-.23.232-.386.387-.386.618 0 .155.077.31.155.386.077.155.23.232.463.31.077.077.387.155 1.004.31.772.231 1.313.387 1.623.541s.619.31.772.541c.154.311.231.619.231 1.006 0 .386-.077.694-.309 1.082-.232.31-.541.541-.928.772a4.425 4.425 0 0 1-1.392.231c-.927 0-1.545-.155-2.009-.541-.46-.31-.769-.851-.847-1.546zM178.312 142.53l.154 1.004c-.309.078-.618.154-.85.154-.387 0-.772-.076-1.005-.23-.155-.155-.386-.311-.464-.541-.077-.154-.154-.619-.154-1.314v-3.863h-.772v-.85h.772v-1.623l1.159-.697v2.318h1.159v.85h-1.159v3.941c0 .309 0 .543.077.618 0 .078.078.155.153.231.155.078.232.078.388.078s.311 0 .542-.076zM179.395 135.651v-1.313h1.159v1.313h-1.159zm0 7.883v-6.646h1.159v6.646h-1.159zM182.254 143.534v-6.646h1.005v.928c.541-.695 1.236-1.082 2.164-1.082.387 0 .772.078 1.082.231.387.154.619.31.773.541s.309.541.386.851v5.178h-1.082v-4.018c0-.465-.078-.851-.154-1.084-.077-.23-.232-.386-.464-.541-.231-.076-.464-.154-.772-.154-.541 0-.927.154-1.236.464-.386.309-.541.85-.541 1.7v3.632h-1.161zM191.992 145.312c.464 0 .85-.076 1.082-.309.309-.154.464-.464.541-.85.078-.231.154-.695.078-1.469-.464.541-1.005.85-1.701.85v-.928c.541 0 .928-.154 1.314-.541.309-.463.541-1.082.541-1.933 0-.772-.231-1.391-.541-1.854-.387-.385-.851-.617-1.314-.617v-.928c.773 0 1.391.387 1.854.928v-.773h1.005v5.797c0 1.004-.077 1.777-.31 2.164-.154.463-.542.772-1.005 1.082-.387.231-.928.31-1.546.31l.002-.929zm-2.783-1.159l1.082.154c.077.31.232.541.388.695.309.232.694.309 1.158.309h.154v.928h-.154c-.772 0-1.392-.154-1.933-.463-.463-.386-.695-.927-.695-1.623zm2.783-.619h-.077c-.927 0-1.7-.309-2.164-.928-.541-.695-.771-1.469-.771-2.396 0-.694.153-1.235.386-1.778.231-.541.541-.927 1.004-1.235.386-.31.927-.464 1.546-.464h.077v.928c-.541 0-.927.232-1.312.617-.311.388-.541 1.005-.541 1.854 0 .851.23 1.47.541 1.854.386.465.771.619 1.312.619v.929zM200.184 143.534v-6.646h1.004v.928c.231-.31.463-.618.85-.772.311-.231.696-.31 1.16-.31.541 0 .927.078 1.236.31.309.231.541.464.694.851.465-.772 1.16-1.16 2.011-1.16.694 0 1.158.156 1.545.543.386.386.541.927.541 1.699v4.56h-1.159v-4.173c0-.465 0-.773-.077-1.006-.078-.153-.232-.309-.386-.463-.232-.076-.464-.154-.696-.154-.464 0-.85.154-1.159.464-.309.31-.464.772-.464 1.468v3.864h-1.159v-4.328c0-.463-.077-.851-.231-1.082-.232-.31-.541-.387-.929-.387-.309 0-.617.077-.927.231-.231.155-.464.387-.541.696-.155.386-.231.851-.231 1.468v3.4h-1.082zM213.631 136.733c.929 0 1.623.309 2.241.928.541.541.851 1.391.851 2.473 0 .85-.077 1.547-.387 2.01a2.26 2.26 0 0 1-1.082 1.159c-.541.31-1.083.386-1.623.386v-.926c.541 0 1.004-.154 1.392-.619.387-.463.542-1.082.542-1.932s-.154-1.468-.542-1.932c-.386-.387-.851-.618-1.392-.618v-.929zm-3.169 3.478c0-1.235.388-2.164 1.082-2.705.541-.541 1.237-.772 2.087-.772v.928c-.617 0-1.082.232-1.391.617-.386.465-.619 1.082-.619 1.933s.232 1.546.619 1.933c.309.463.773.617 1.391.617v.928c-.927 0-1.699-.31-2.318-.851-.542-.617-.851-1.468-.851-2.628zM218.037 143.534v-6.646h1.005v1.006c.31-.465.54-.773.772-.928.23-.154.464-.232.694-.232.388 0 .773.156 1.16.388l-.387 1.005a1.564 1.564 0 0 0-.851-.232.882.882 0 0 0-.618.232 1.2 1.2 0 0 0-.464.618c-.077.386-.154.85-.154 1.313v3.478l-1.157-.002zM226.846 141.448l1.159.078a2.935 2.935 0 0 1-1.005 1.623c-.541.386-1.159.541-1.932.541h-.078v-.928h.078c.463 0 .771-.078 1.081-.309.311-.231.543-.541.697-1.005zm-1.854-4.715c.928 0 1.624.309 2.241.928.542.617.851 1.468.851 2.55v.31h-3.092v-.928h1.854c0-.541-.154-1.005-.387-1.236-.386-.463-.85-.695-1.391-.695h-.078l.002-.929zm0 6.955c-.928 0-1.7-.309-2.241-.85-.464-.617-.771-1.468-.771-2.55 0-1.159.309-2.009.771-2.627.619-.619 1.313-.929 2.241-.929v.929c-.463 0-.928.155-1.235.541-.387.309-.618.772-.618 1.391h1.854v.929h-1.932c.077.694.23 1.312.618 1.699.386.387.771.541 1.312.541l.001.926zM235.502 142.53l.154 1.004c-.31.078-.617.154-.851.154-.387 0-.771-.076-.927-.23a1.812 1.812 0 0 1-.541-.541c-.077-.154-.077-.619-.077-1.314v-3.863h-.851v-.85h.851v-1.623l1.081-.697v2.318h1.159v.85h-1.159v3.941c0 .309 0 .543.077.618 0 .078.077.155.155.231.154.078.23.078.386.078.157 0 .312 0 .543-.076zM236.585 143.534v-9.196h1.158v3.323c.542-.619 1.159-.928 2.01-.928.464 0 .929.078 1.236.309.386.155.619.464.851.773.154.386.231.85.231 1.545v4.173h-1.159v-4.173c0-.618-.154-1.006-.386-1.236-.232-.309-.62-.387-1.006-.387-.387 0-.694.078-1.004.231a1.835 1.835 0 0 0-.619.696 4.854 4.854 0 0 0-.154 1.236v3.632l-1.158.002zM248.1 142.763c-.388.309-.772.618-1.159.771-.232 0-.464.078-.618.154v-.85c.231-.076.54-.154.773-.309.308-.154.616-.463.771-.772.078-.231.155-.618.155-1.159v-.387c-.386.155-.927.311-1.7.387v-.928c.773-.077 1.314-.232 1.7-.309v-.31c0-.464-.077-.772-.311-1.005-.31-.23-.694-.386-1.312-.386h-.077v-.929h.231c.617 0 1.083.078 1.392.232.386.077.618.309.851.463.154.232.231.465.309.773.078.23.078.541.078 1.082v1.469c0 1.082 0 1.7.076 2.009 0 .31.154.541.231.772h-1.159a9.26 9.26 0 0 1-.231-.768zm-1.777.925h-.696c-.694 0-1.235-.154-1.623-.541-.463-.309-.617-.771-.617-1.313 0-.386.076-.618.23-.927.155-.232.311-.465.541-.619.232-.23.542-.309.851-.387a3.073 3.073 0 0 1 1.006-.154l.31-.077v.927l-.155.078c-.464 0-.771.077-1.005.154-.154.154-.309.232-.386.387-.154.154-.154.387-.154.541 0 .309.077.541.31.771.231.231.541.31 1.006.31h.386v.851h-.004zm0-6.027a1.99 1.99 0 0 0-1.082.309c-.232.155-.464.463-.541 1.006l-1.159-.156c.155-.463.31-.85.541-1.158s.541-.541 1.004-.695c.312-.154.772-.232 1.237-.232v.926zM250.959 143.534v-6.646h1.005v.928c.464-.695 1.159-1.082 2.088-1.082.387 0 .771.078 1.158.231.309.154.541.31.696.541.231.231.308.541.386.851.076.231.076.541.076 1.082v4.096h-1.158v-4.018c0-.465 0-.851-.153-1.084-.078-.23-.232-.386-.465-.541-.231-.076-.465-.154-.773-.154-.462 0-.851.154-1.235.464-.387.309-.541.85-.541 1.7v3.632h-1.084zM264.948 143.534v-2.164h-1.391v-1.082h1.391v-4.096l-1.391 2.086v-1.622l1.622-2.318h.928v5.951h1.236v1.082h-1.236v2.164l-1.159-.001zm-1.391-2.163h-2.552v-1.082l2.552-3.632v1.623l-1.471 2.009h1.471v1.082zM271.517 134.338c.464 0 .927.078 1.313.231.387.232.694.541.928.928.23.309.464.773.539 1.314.155.541.233 1.313.233 2.24 0 1.082-.078 1.932-.31 2.551-.232.694-.618 1.235-1.005 1.545-.465.386-1.006.541-1.7.541v-.928c.541 0 .927-.232 1.313-.695.387-.541.54-1.545.54-3.014 0-1.546-.153-2.55-.54-3.091-.388-.464-.772-.694-1.313-.694l.002-.928zm-3.014 4.714c0-1.158.154-2.01.387-2.627.153-.695.54-1.236.927-1.546.465-.386 1.006-.541 1.701-.541v.929c-.541 0-.928.23-1.236.617-.387.619-.618 1.623-.618 3.169 0 1.47.231 2.474.541 3.015.387.463.772.695 1.313.695v.926c-.852 0-1.546-.309-2.089-.926-.617-.774-.926-2.011-.926-3.711zM279.09 141.603l1.16-.231c.076.463.231.851.541 1.082.231.231.695.31 1.158.31.542 0 .929-.078 1.159-.31.231-.231.387-.464.387-.695 0-.31-.076-.464-.309-.618-.154-.156-.541-.231-1.16-.387-.851-.23-1.392-.386-1.776-.541a1.806 1.806 0 0 1-.695-.618 2.065 2.065 0 0 1-.231-.927c0-.311.077-.541.154-.85.154-.232.387-.465.618-.619.154-.155.387-.231.695-.309.311-.078.617-.156 1.004-.156.464 0 .929.078 1.393.232.387.154.618.387.851.618.154.231.31.619.386 1.005l-1.082.155c-.076-.31-.231-.618-.463-.773-.231-.231-.619-.309-1.005-.309-.541 0-.928.077-1.16.231-.23.232-.309.387-.309.618 0 .155.077.31.154.386.076.155.231.232.387.31s.463.155 1.004.31c.85.231 1.392.387 1.7.541.31.154.542.31.772.541.155.311.231.619.231 1.006 0 .386-.076.694-.309 1.082-.231.31-.541.541-.928.772a4.553 4.553 0 0 1-1.47.231c-.849 0-1.468-.155-1.932-.541-.461-.31-.769-.851-.925-1.546zM290.606 141.448l1.159.078c-.231.695-.541 1.236-1.004 1.623-.542.386-1.159.541-1.933.541h-.079v-.928h.079c.386 0 .772-.078 1.081-.309s.543-.541.697-1.005zm-1.856-4.715c.929 0 1.624.309 2.165.928.618.617.851 1.468.851 2.55v.31h-3.016v-.928h1.855c-.077-.541-.231-1.005-.463-1.236-.311-.463-.773-.695-1.394-.695l.002-.929zm0 6.955c-.927 0-1.7-.309-2.241-.85-.616-.617-.849-1.468-.849-2.55 0-1.159.231-2.009.849-2.627.541-.619 1.314-.929 2.241-.929v.929c-.541 0-.927.155-1.312.541-.31.309-.542.772-.542 1.391h1.854v.929h-1.931c0 .694.229 1.312.618 1.699.309.387.771.541 1.312.541l.001.926zM297.562 141.14l1.082.154c-.078.773-.464 1.314-.929 1.778-.464.463-1.082.618-1.854.618-.927 0-1.622-.31-2.162-.851-.619-.618-.852-1.468-.852-2.55 0-.771.076-1.391.31-1.932.309-.541.618-.928 1.159-1.236a3.518 3.518 0 0 1 1.545-.387c.773 0 1.313.154 1.778.541.464.387.771.928.927 1.546l-1.159.231c-.076-.464-.23-.85-.541-1.082-.23-.154-.541-.309-.927-.309-.618 0-1.082.232-1.393.618-.387.387-.541 1.081-.541 1.932 0 .927.154 1.546.541 1.933.311.463.773.617 1.313.617.464 0 .773-.078 1.083-.386.31-.31.543-.694.62-1.235zM302.353 136.733c.927 0 1.623.309 2.241.928.54.541.851 1.391.851 2.473 0 .85-.154 1.547-.386 2.01a2.266 2.266 0 0 1-1.083 1.159c-.541.31-1.082.386-1.623.386v-.926c.541 0 1.006-.154 1.392-.619.386-.463.541-1.082.541-1.932s-.155-1.468-.541-1.932c-.386-.387-.851-.618-1.392-.618v-.929zm-3.168 3.478c0-1.235.387-2.164 1.081-2.705.541-.541 1.236-.772 2.087-.772v.928c-.618 0-1.082.232-1.468.617-.311.465-.541 1.082-.541 1.933s.23 1.546.541 1.933c.386.463.85.617 1.468.617v.928c-.928 0-1.7-.31-2.318-.851-.541-.617-.85-1.468-.85-2.628zM306.759 143.534v-6.646h1.005v.928c.541-.695 1.235-1.082 2.164-1.082.387 0 .772.078 1.08.231.389.154.619.31.773.541s.309.541.387.851c0 .231.077.541.077 1.082v4.096h-1.159v-4.018c0-.465-.078-.851-.154-1.084-.076-.23-.23-.386-.464-.541-.231-.076-.464-.154-.772-.154-.463 0-.927.154-1.236.464-.387.309-.541.85-.541 1.7v3.632h-1.16zM318.274 143.534v-.85c-.387.695-1.005 1.004-1.777 1.004v-.926c.54 0 .928-.154 1.314-.619.308-.386.463-1.004.463-1.854s-.155-1.545-.542-2.009c-.309-.387-.695-.618-1.235-.618v-.929c.387 0 .694.078.928.232.309.231.618.387.772.695v-3.323h1.159v9.196h-1.082zm-1.777.154h-.077c-.542 0-1.005-.154-1.469-.386-.464-.309-.772-.694-1.082-1.235-.231-.541-.309-1.159-.309-1.855 0-.618.076-1.236.309-1.777s.541-1.004 1.005-1.236c.463-.309.929-.465 1.47-.465h.153v.929c-.541 0-.927.231-1.313.618-.31.387-.463 1.082-.463 1.932s.153 1.546.541 1.932c.31.387.771.619 1.235.619v.924zM320.669 141.603l1.082-.231c.077.463.232.851.54 1.082.311.231.696.31 1.237.31.463 0 .852-.078 1.159-.31.231-.231.387-.464.387-.695 0-.31-.154-.464-.387-.618-.154-.156-.541-.231-1.159-.387-.772-.23-1.391-.386-1.7-.541-.31-.154-.541-.386-.771-.618a2.052 2.052 0 0 1-.231-.927c0-.311.076-.541.231-.85.153-.232.31-.465.541-.619.153-.155.464-.231.693-.309.311-.078.696-.156 1.006-.156.541 0 1.006.078 1.392.232.387.154.695.387.851.618.232.231.31.619.387 1.005l-1.083.155c-.075-.31-.229-.618-.462-.773-.232-.231-.542-.309-1.006-.309-.541 0-.85.077-1.083.231-.229.232-.386.387-.386.618 0 .155.078.31.155.386.077.155.229.232.464.31.076.077.463.155 1.004.31.772.231 1.312.387 1.623.541.387.154.619.31.772.541.155.311.31.619.31 1.006 0 .386-.153.694-.387 1.082-.231.31-.541.541-.928.772-.387.153-.851.231-1.392.231-.849 0-1.545-.155-2.01-.541-.462-.31-.771-.851-.849-1.546z"/></svg>