<svg version="1.1" xmlns="http://www.w3.org/2000/svg" x="0" y="0" width="411.023" height="192.391" viewBox="-42.02 -52.922 411.023 192.391" xml:space="preserve"><path fill="none" stroke="#000" stroke-width=".5" d="M174.193-50.295h192.799v18.436H174.193zM174.193-20.828h192.799v73.076H174.193z"/><g fill="none" stroke="#000"><path stroke-width=".5" d="M198.609-50.295v18.437M222.685-50.295v18.437M246.765-50.295v18.437M270.844-50.295v18.437M294.841-50.295v18.437M318.835-50.295v18.437M342.912-50.295v18.437"/><path stroke-width="2" d="M366.992-50.295v18.437"/></g><g fill="none" stroke="#000"><path stroke-width=".5" d="M198.609-21.081v73.33M222.685-21.081v73.33M246.765-21.081v73.33M270.844-21.081v73.33M294.841-21.081v73.33M318.835-21.081v73.33M342.912-21.081v73.33"/><path stroke-width="2" d="M366.992-21.081v73.33"/></g><path fill="none" stroke="#000" stroke-width=".5" d="M174.193-10.386h192.799M174.193-20.828h192.799M174.193.052h192.799M174.193 10.49h192.799M161.816 20.932h205.176M161.816 31.37h205.176M174.193 41.809h192.799M174.193 52.249h192.799M174.193 70.52h192.799v62.639H174.193z"/><g fill="none" stroke="#000"><path stroke-width=".5" d="M198.609 71.865v61.293M222.685 71.865v61.293M246.765 71.865v61.293M270.844 71.865v61.293M294.841 71.865v61.293M318.835 71.865v61.293M342.912 71.865v61.293"/><path stroke-width="2" d="M366.992 71.865v61.293"/></g><path fill="none" stroke="#000" stroke-width=".5" d="M174.193 80.959h192.799M174.193 70.52h192.799M174.193 91.4h192.799M174.193 101.838h192.799M174.193 112.279h192.799M174.193 122.719h192.799M174.193 133.242h192.799"/><path d="M155.251-43.896h-1.012v-.507h2.695v.507h-1.01v6.146h-.673zM157.692-44.403h.589v6.654h-.589zM160.048-44.403h.506l.674 4.294c0 .083.085.42.167 1.011v.591c.084-.254.084-.506.084-.756.085-.254.085-.506.167-.845l.758-4.294h.505l.755 6.654h-.505l-.502-4.38v-.083c0-.505-.085-.926-.085-1.346 0 .42-.084.756-.084 1.01-.082.251-.082.504-.082.674l-.758 4.124h-.504l-.675-4.294v-.086c-.08-.59-.167-1.01-.167-1.429 0 .167-.082.501-.082.755 0 .503-.085.757-.085.844l-.42 4.209h-.592l.925-6.653zM164.595-44.403h2.022v.591h-1.433v2.357h1.433v.59h-1.433v2.524h1.516v.591h-2.105zM132.435-9.884c.167 0 .252-.083.42-.252.081-.168.167-.503.167-.925 0-.424-.084-.758-.167-.926-.084-.085-.253-.17-.42-.253v-.505c.336 0 .674.169.842.338.253.336.337.755.337 1.347 0 .42 0 .756-.169 1.01-.168.253-.337.422-.673.506.338.081.592.252.758.501.167.254.252.675.252 1.098 0 .674-.171 1.093-.42 1.347-.252.25-.505.42-.926.42v-.505l.502-.251c.171-.169.253-.505.253-1.01 0-.42-.081-.843-.253-1.011-.167-.169-.336-.253-.502-.337l-.001-.592zm-.674-2.357V-9.8h.42c.08 0 .167-.083.253-.083v.592h-.673v2.607h.673v.505c-.084.082-.171.082-.338.082h-.927v-6.734h1.011c.08 0 .167 0 .252.083v.505h-.252l-.419.002zM134.96-12.83h.589v6.146h1.431v.588h-2.02zM138.917-6.599c.422 0 .674-.254.842-.674.167-.506.252-1.179.252-2.191 0-1.01-.085-1.768-.252-2.188-.168-.422-.42-.673-.842-.673v-.59c.589 0 1.01.336 1.263.841.252.59.42 1.431.42 2.611 0 1.181-.168 2.021-.42 2.611-.253.503-.674.842-1.263.842v-.589zm0-5.725c-.338 0-.593.251-.758.673-.167.504-.252 1.178-.252 2.188 0 1.012.083 1.686.252 2.191.168.42.42.674.758.674v.588c-.505 0-.926-.338-1.266-.842-.253-.592-.335-1.43-.335-2.611 0-1.177.081-2.021.335-2.611.338-.504.758-.841 1.266-.841v.591zM142.959-6.599c.337 0 .588-.254.755-.674.171-.506.252-1.179.252-2.191 0-1.01-.082-1.768-.252-2.188-.169-.422-.42-.673-.755-.673v-.59c.588 0 1.01.336 1.263.841.252.59.42 1.431.42 2.611 0 1.181-.168 2.021-.42 2.611-.253.503-.674.842-1.263.842v-.589zm0-5.725c-.338 0-.593.251-.758.673-.169.504-.252 1.178-.252 2.188 0 1.012.083 1.686.252 2.191.168.42.42.674.758.674v.588c-.593 0-1.011-.338-1.266-.842-.253-.592-.42-1.43-.42-2.611 0-1.177.169-2.021.42-2.611.253-.504.674-.841 1.266-.841v.591zM147-6.852c.253-.083.336-.17.502-.42.171-.338.253-1.011.253-2.104 0-1.179-.081-1.937-.253-2.272a.752.752 0 0 0-.502-.505v-.59c.42.085.755.338.922.674.338.421.505 1.348.505 2.611 0 1.265-.167 2.104-.505 2.611-.167.336-.502.505-.922.674v-.679zm-.758-5.389v5.557h.084c.254 0 .502-.084.674-.169v.674c-.171 0-.42.082-.674.082h-.673v-6.733h.755c.172 0 .42.083.593.083v.59c-.171-.083-.338-.083-.593-.083h-.166v-.001zM132.435 1.315c.167-.083.336-.17.42-.254.167-.168.167-.503.167-.923 0-.423-.084-.673-.167-.926-.168-.083-.253-.171-.42-.171v-.589c.336.085.674.169.842.422.253.253.42.674.42 1.348 0 .592-.167 1.011-.42 1.262-.167.253-.505.338-.842.423v-.592zm-.674-2.357v2.358h.674v.591h-.674v3.197h-.593v-6.651h1.266v.588c-.084-.081-.253-.081-.338-.081h-.335v-.002zM135.803 1.315a.63.63 0 0 0 .42-.17c.08-.252.169-.504.169-.925 0-.423 0-.756-.169-.926a.466.466 0 0 0-.42-.254v-.589c.336.085.674.169.842.338.252.25.42.756.42 1.348 0 .589-.084.923-.337 1.263-.171.252-.505.42-.926.42l1.428 3.284h-.589l-.841-2.021.003-1.768zm-.673-2.357v2.441h.337c.083 0 .252 0 .338-.083v1.767l-.673-1.429v3.45h-.593v-6.651h1.263v.588c-.083-.081-.252-.081-.337-.081h-.334v-.002zM138.159-1.548h2.021v.506h-1.432v2.441h1.432v.506h-1.432v2.608h1.517v.59h-2.106zM141.106 4.093c.168.167.336.252.505.336.168.084.337.17.502.17.338 0 .593-.084.846-.338a1.42 1.42 0 0 0 .253-.842c0-.167 0-.338-.085-.42 0-.17-.084-.253-.168-.421-.085-.17-.338-.338-.673-.591-.173-.083-.254-.17-.338-.252-.337-.253-.589-.503-.674-.756-.168-.253-.253-.592-.253-.926 0-.504.171-.926.42-1.262.338-.338.673-.423 1.097-.423.249 0 .42 0 .589.083.168 0 .336.085.505.253v.756c-.171-.167-.337-.336-.505-.422-.167-.083-.338-.167-.505-.167-.335 0-.505.167-.755.338-.171.167-.252.503-.252.842 0 .253.08.506.167.673.168.253.42.505.926.843.42.338.754.592.926.841.082.253.169.592.169.926 0 .592-.169 1.011-.422 1.348-.338.338-.673.504-1.179.504-.169 0-.42-.083-.589-.083-.171-.082-.337-.168-.505-.253v-.757h-.002zM144.559 4.093c.08.167.249.252.501.336.171.084.338.17.506.17.336 0 .589-.084.758-.338.252-.251.336-.504.336-.842 0-.167 0-.338-.08-.42 0-.17-.085-.253-.173-.421-.167-.17-.42-.338-.674-.591-.167-.083-.253-.17-.336-.252-.338-.253-.593-.503-.758-.756-.08-.253-.168-.592-.168-.926 0-.504.084-.926.421-1.262.252-.338.673-.423 1.095-.423.167 0 .338 0 .505.083.167 0 .336.085.505.253v.756a1.031 1.031 0 0 0-.421-.422c-.171-.081-.337-.167-.592-.167-.255 0-.506.167-.674.338-.168.167-.253.503-.253.842 0 .253.085.506.169.673.084.253.423.505.844.843.503.338.842.592.926.841.167.253.249.592.249.926 0 .592-.169 1.011-.42 1.348a1.65 1.65 0 0 1-1.175.504c-.252 0-.421-.083-.593-.083a39.43 39.43 0 0 1-.503-.253l.005-.757zM148.178-1.548h.593v4.715c0 .59.08.926.253 1.178.08.168.249.253.589.253.337 0 .505-.084.589-.253.171-.252.252-.591.252-1.178v-4.715h.593v4.715c0 .758-.171 1.264-.338 1.599-.253.254-.589.421-1.094.421-.505 0-.841-.168-1.095-.421-.253-.337-.338-.841-.338-1.599l-.004-4.715zM153.651 1.315c.169 0 .253-.083.336-.17.171-.252.253-.504.253-.925 0-.423-.08-.756-.253-.926-.081-.168-.167-.254-.336-.254v-.589c.336.085.674.169.842.338.252.25.42.756.42 1.348 0 .589-.168.923-.337 1.263-.172.252-.505.42-.927.42l1.428 3.284h-.589l-.842-2.021V1.315h.005zm-.675-2.357v2.441h.336c.085 0 .171 0 .338-.083v1.767l-.674-1.429v3.45h-.588v-6.651h1.26v.588c-.167-.081-.253-.081-.338-.081h-.334v-.002zM155.924-1.548h2.104v.506h-1.431v2.441h1.431v.506h-1.431v2.608h1.516v.59h-2.189zM132.518 12.091c.171-.169.338-.337.506-.589.085-.254.167-.422.167-.675a.618.618 0 0 0-.167-.42c-.168-.17-.253-.252-.506-.252v-.506h.084c.336 0 .589.168.842.336.169.252.252.504.252.843 0 .336-.083.674-.252.926-.168.337-.506.674-.842 1.01l1.179 2.188c.167-.082.253-.169.336-.253 0-.081.085-.167.169-.336l.424.42c-.171.169-.253.254-.338.338a.67.67 0 0 1-.336.336l.501.843h-.674l-.167-.42c-.253.168-.42.252-.589.338-.171.084-.42.168-.593.168v-.588c.171 0 .338 0 .421-.085.171-.083.337-.167.505-.338l-.926-1.684.004-1.6zm-.167.168c.084 0 .167-.083.167-.169v1.599l-.336-.589c-.169.25-.42.42-.505.674-.168.25-.168.503-.168.756 0 .42.082.674.253.925.253.253.502.336.754.336v.591c-.501 0-.842-.168-1.093-.504-.337-.336-.506-.756-.506-1.264 0-.338.084-.674.253-1.011.172-.336.422-.674.758-.927-.253-.503-.42-.841-.504-1.094-.082-.253-.082-.42-.082-.591 0-.42.082-.757.337-1.011.167-.169.505-.254.842-.336v.505c-.167 0-.336.083-.501.252-.085.168-.171.337-.171.589 0 .082.083.253.171.506.078.258.162.51.331.763zM136.644 12.511a.459.459 0 0 0 .42-.253c.169-.169.254-.503.254-.927 0-.42-.085-.674-.254-.842a.462.462 0 0 0-.42-.253v-.59c.42.083.674.168.841.421.338.251.422.757.422 1.348 0 .588-.082 1.011-.337 1.263-.254.252-.505.337-.926.423v-.59zm-.588-2.356v2.441h.336c.084 0 .167-.084.253-.084v.589h-.587v3.197h-.675V9.647h1.262v.592c-.085-.083-.167-.083-.338-.083h-.252v-.001zM138.834 9.65h.589v4.715c0 .589 0 1.01.171 1.179.081.167.337.336.589.336.338 0 .506-.17.674-.336.084-.17.168-.592.168-1.179V9.65h.593v4.715c0 .758-.085 1.264-.338 1.6-.167.253-.589.42-1.093.42-.506 0-.841-.167-1.095-.42-.168-.338-.253-.842-.253-1.6l-.005-4.715zM142.959 9.65h.588v6.061h1.433v.589h-2.021zM145.4 15.29c.167.167.336.253.505.42.167.085.336.085.589.085s.505-.085.754-.338c.171-.167.253-.504.253-.841 0-.167 0-.337-.082-.421 0-.17-.084-.253-.167-.338-.085-.169-.338-.422-.673-.673-.172-.083-.254-.169-.338-.169a4.924 4.924 0 0 1-.674-.842c-.169-.253-.252-.592-.252-.927 0-.503.167-.841.42-1.177.337-.337.674-.506 1.18-.506.167 0 .336 0 .505.084l.502.253v.756c-.167-.168-.336-.337-.502-.42-.167-.083-.338-.168-.505-.168-.338 0-.505.168-.674.338-.253.25-.338.503-.338.841 0 .254.085.505.171.674.167.253.42.505.926.843.42.338.755.673.922.926.172.253.172.504.172.842 0 .592-.085 1.011-.42 1.348-.338.338-.674.504-1.179.504-.169 0-.42 0-.593-.083a33.565 33.565 0 0 1-.502-.252v-.759zM149.104 9.65h2.106v.505h-1.516v2.441h1.43v.506h-1.43v2.609h1.516v.589h-2.106zM131.593 73.298h-1.01v-.591h2.694v.591h-1.095v6.147h-.589zM134.035 72.707h2.021v.591h-1.433v2.442h1.433v.506h-1.433v2.609h1.515v.59h-2.103zM137.654 72.707h.505l.675 4.381c0 .081.083.421.167 1.01v.592c.084-.253.084-.506.084-.759.085-.337.085-.589.167-.842l.674-4.381h.593l.754 6.736h-.505l-.502-4.38v-.083c0-.504-.085-1.01-.085-1.347-.082.337-.082.674-.082.924-.084.254-.084.506-.084.675l-.758 4.211h-.503l-.672-4.38v-.083c-.085-.504-.171-1.01-.171-1.347 0 .167-.082.421-.082.755 0 .423-.085.675-.085.756l-.42 4.296h-.589l.919-6.734zM143.379 75.656c.253-.083.337-.17.422-.254.167-.169.252-.502.252-.925 0-.422-.083-.756-.252-.925-.085-.085-.254-.17-.422-.253v-.504c.422 0 .674.169.926.337.254.338.336.758.336 1.429 0 .59-.08 1.011-.336 1.265-.253.17-.504.338-.926.338v-.508zm-.59-2.358v2.359H143.379v.503c-.083.083-.167.083-.252.083h-.338v3.199h-.589v-6.737h.842c.084 0 .253 0 .338.083v.504h-.338l-.253.006zM145.568 72.707h2.106v.591h-1.517v2.442h1.517v.506h-1.517v2.609h1.517v.59h-2.106zM150.03 75.656a.46.46 0 0 0 .422-.254c.167-.169.167-.502.167-.925 0-.422 0-.676-.167-.925-.082-.085-.253-.17-.422-.253v-.504c.338 0 .674.169.842.337.252.252.42.758.42 1.347 0 .505-.08.925-.337 1.179-.167.338-.505.42-.927.503l1.431 3.286h-.592l-.842-2.022.005-1.769zm-.674-2.358v2.443h.338c.081 0 .249 0 .335-.083v1.767l-.673-1.429v3.451h-.588V72.71h.754c.171 0 .338 0 .504.083v.504h-.67zM153.398 77.508h.673l-.505-3.117c0-.082-.082-.251-.082-.42v-.591l-.084.252v-.926h.338l1.348 6.737h-.593l-.254-1.345h-.841v-.59zm-.085-3.117l-.501 3.117h.589v.591h-.758l-.168 1.348h-.675l1.348-6.737h.252v1.264c-.001.168-.087.335-.087.417zM156.177 73.298h-1.011v-.591h2.694v.591h-1.01v6.147h-.673zM158.618 72.707h.589v4.799c0 .59.085.926.168 1.179.171.167.338.249.674.249.253 0 .505-.082.593-.249.168-.253.168-.592.168-1.179v-4.799h.589v4.799c0 .754-.081 1.264-.253 1.514-.25.338-.589.506-1.095.506-.502 0-.925-.168-1.094-.506-.254-.25-.336-.756-.336-1.514l-.003-4.799zM164.008 75.656a.46.46 0 0 0 .42-.254c.168-.169.254-.502.254-.925 0-.422-.085-.676-.254-.925-.084-.085-.253-.17-.42-.253v-.504c.42 0 .674.169.842.337.337.252.42.758.42 1.347 0 .505-.083.925-.252 1.179-.253.338-.506.42-.927.503l1.431 3.286h-.672l-.842-2.022v-1.769zm-.591-2.358v2.443h.252c.168 0 .254 0 .338-.083v1.767l-.593-1.429v3.451h-.589V72.71h.673c.168 0 .337 0 .506.083v.504h-.587zM166.365 72.707h2.104v.591h-1.516v2.442h1.516v.506h-1.516v2.609h1.516v.59h-2.104zM131.171 104.617h.593v4.795c0 .506.08.929.167 1.096.169.252.337.338.675.338.252 0 .505-.084.589-.338.085-.167.171-.59.171-1.096v-4.795h.589v4.795c0 .676-.083 1.268-.336 1.519-.17.251-.503.421-1.011.421-.589 0-.926-.17-1.094-.421-.253-.251-.338-.843-.338-1.519v-4.795h-.005zM136.56 107.563c.171-.082.338-.17.42-.251.173-.172.253-.506.253-.927s-.08-.757-.253-.926c-.081-.084-.249-.169-.42-.251v-.591c.42.081.675.168.846.419.25.254.42.675.42 1.349 0 .505-.085.927-.337 1.178-.168.252-.506.422-.926.422l1.519 3.283h-.676l-.844-1.936v-1.77h-.002zm-.59-2.356v2.358h.589v1.769l-.589-1.518v3.45h-.673v-6.65h1.259v.591H135.97zM138.917 104.617h.589v6.65h-.589zM140.854 104.617h.504l1.515 4.545c0 .081.085.25.169.504 0 .252.084.503.171.924 0-.421-.085-.84-.085-1.262v-4.715h.505v6.65h-.505l-1.516-4.462c-.085-.253-.085-.42-.171-.673-.081-.252-.168-.504-.249-.842.081.502.081.926.168 1.346v4.628h-.504l-.002-6.643zM144.98 104.617h2.103v.59h-1.515v2.356H147v.59h-1.432v2.609h1.515v.506h-2.103zM150.619 82.727h.673l.846 4.631c0 .083.08.253.08.506 0 .25.085.502.085.756 0-.337.084-.675.168-1.179v-.083l.841-4.631h.593l-1.348 6.733h-.505l-1.433-6.733zM155.419 85.338v-.505c.42 0 .758.251 1.01.592.171.42.338 1.01.338 1.769 0 .755-.169 1.347-.338 1.767-.249.337-.589.591-1.01.591v-.504c.253 0 .42-.169.589-.421.084-.336.171-.843.171-1.429 0-.593-.085-1.095-.171-1.432-.169-.26-.336-.428-.589-.428zm0 0c-.254 0-.422.169-.505.421a5.6 5.6 0 0 0-.168 1.432c0 .673.084 1.093.168 1.429.083.25.252.42.505.42v.503c-.422 0-.674-.25-.927-.589-.252-.421-.336-1.011-.336-1.767 0-.759.08-1.349.336-1.771.253-.337.505-.59.927-.59v.512zM157.525 82.305h.589v7.156h-.589zM159.122 84.915h.593v2.948c0 .42 0 .756.08.924.171.17.338.252.505.252.253 0 .42-.082.505-.252.084-.168.168-.504.168-.924v-2.948h.505v3.033c0 .592-.084.926-.253 1.178s-.505.42-.926.42-.674-.168-.842-.42c-.252-.252-.337-.59-.337-1.178l.002-3.033zM162.49 84.915h.592v.423a.65.65 0 0 1 .337-.338c.171-.084.338-.084.505-.084.168 0 .338 0 .504.084.082.082.254.251.337.42.085-.169.253-.249.422-.42.084-.084.338-.084.504-.084.338 0 .59.084.675.337.167.172.253.592.253 1.095v3.116h-.59v-3.198c0-.338 0-.594-.085-.758a.656.656 0 0 0-.422-.169c-.251 0-.419.083-.504.252-.168.169-.168.506-.168.842v3.034h-.589v-3.198c0-.338 0-.593-.085-.757a.655.655 0 0 0-.421-.169c-.253 0-.42.083-.505.252-.169.169-.169.505-.169.842v3.034h-.592l.001-4.556zM169.31 86.854c0-.507 0-.845-.169-1.096-.083-.252-.252-.421-.505-.421v-.506c.422 0 .759.252.926.592.168.421.337 1.01.337 1.77v.168h-1.263v-.503l.674-.004zm-.674 2.692v-.504c.169 0 .337-.083.422-.337.168-.169.252-.422.252-.757h.505c0 .503-.171.845-.338 1.178-.252.252-.505.42-.841.42zm0-4.208c-.167.08-.338.169-.505.421-.08.251-.168.589-.252 1.096h.757v.503h-.757v.083c0 .504.084.925.252 1.179.084.25.253.42.505.42v.503c-.421 0-.757-.25-.926-.589-.253-.421-.336-1.011-.336-1.767 0-.759.08-1.267.336-1.686.253-.423.505-.675.926-.675v.512zM151.21 95.693c.167-.084.336-.17.42-.253.167-.17.252-.504.252-.926 0-.421-.083-.756-.252-.926-.085-.083-.253-.169-.42-.252v-.506c.42 0 .673.172.841.338.337.337.421.758.421 1.431 0 .589-.082 1.01-.336 1.265-.253.169-.505.337-.926.337v-.508zm-.591-2.358v2.359h.591v.503c-.085.083-.168.083-.338.083h-.253v3.199h-.674v-6.735h.846c.167 0 .336 0 .42.082v.505h-.338l-.254.004zM153.063 94.936h.588v.673c.085-.252.169-.422.253-.503.167-.083.252-.17.42-.17v.59c-.253 0-.42.083-.505.252-.169.171-.169.504-.169 1.011v2.692h-.588l.001-4.545zM156.092 95.356v-.506c.42 0 .674.255.926.592.253.423.336 1.01.336 1.769 0 .756-.08 1.348-.336 1.768-.253.337-.505.592-.926.592v-.503c.167 0 .42-.171.505-.42.082-.338.169-.846.169-1.433s-.085-1.095-.169-1.431c-.084-.26-.336-.428-.505-.428zm0 0c-.253 0-.42.169-.589.421a5.479 5.479 0 0 0-.171 1.43c0 .675.085 1.097.171 1.431.167.251.336.423.589.423v.503c-.42 0-.758-.254-1.01-.592-.171-.421-.338-1.011-.338-1.769s.167-1.345.338-1.768c.249-.338.589-.592 1.01-.592v.513zM158.281 95.44h-.506v-.504h.506v-1.263h.505v1.263h.758v.504h-.758v4.041h-.505zM161.816 96.869c0-.503-.08-.841-.169-1.095-.167-.251-.335-.42-.504-.42h-.082v-.506c.42 0 .754.254.926.592.253.423.336 1.01.336 1.769v.171h-1.262v-.507l.755-.004zm-.757 2.696v-.503c.167 0 .336-.085.505-.338.08-.17.169-.421.169-.758h.505c0 .505-.085.845-.338 1.179-.166.253-.504.42-.841.42zm0-4.209c-.169.083-.338.169-.505.421a3.326 3.326 0 0 0-.168 1.095h.673v.507h-.673v.081c0 .503 0 .926.168 1.178.085.251.337.423.505.423v.503c-.42 0-.758-.254-.927-.592-.167-.421-.338-1.011-.338-1.769s.171-1.265.338-1.685c.254-.421.589-.675.927-.675v.513zM163.334 93.167c.081 0 .253.084.335.169.085.083.085.169.085.252 0 .085 0 .252-.085.338-.08.081-.252.081-.335.081-.085 0-.172 0-.254-.081-.083-.084-.167-.252-.167-.338 0-.083.082-.169.167-.252 0-.084.169-.169.254-.169zm-.254 1.769h.506v4.545h-.506v-4.545zM164.68 94.936h.589v.421a.649.649 0 0 1 .338-.336c.169-.084.337-.084.501-.084.338 0 .507.084.675.338.172.167.251.59.251 1.094v3.115h-.588v-3.199c0-.337 0-.59-.084-.756a.657.657 0 0 0-.422-.169c-.253 0-.422.082-.504.251-.169.169-.169.505-.169.843v3.034h-.59l.003-4.552zM167.795 98.555c.169.171.253.253.421.337.169.083.254.171.421.171.169 0 .337-.085.505-.252.169-.083.169-.253.169-.505 0-.253-.169-.505-.674-.925l-.085-.082c-.336-.254-.588-.505-.672-.674-.081-.254-.169-.424-.169-.674 0-.253.084-.506.338-.759.168-.167.501-.338.755-.338.167 0 .338.084.42.084.173.084.253.084.422.171v.59c-.169-.084-.249-.17-.337-.253-.169-.082-.338-.082-.42-.082a.624.624 0 0 0-.421.17.453.453 0 0 0-.254.422c0 .251.254.589.675.925.42.336.673.59.841.844.085.168.169.337.169.59 0 .338-.169.672-.337.926-.253.169-.504.338-.926.338-.085 0-.253-.084-.422-.084-.167-.082-.338-.169-.42-.251l.001-.689zM150.451 103.27h.593v6.651h-.593v-6.651zm2.021 0h.593l-1.432 3.197 1.432 3.451h-.593l-1.428-3.451 1.428-3.197zM155.334 107.394c0-.503 0-.842-.169-1.176-.08-.253-.253-.338-.504-.338v-.506c.424 0 .758.172.926.592.168.337.338.926.338 1.685v.17h-1.266v-.423l.675-.004zm-.674 2.61v-.504a.466.466 0 0 0 .424-.253c.169-.251.169-.505.249-.841h.505c0 .504-.167.926-.336 1.179-.251.25-.505.419-.842.419zm0-4.124c-.25 0-.336.082-.502.338-.171.254-.171.673-.252 1.176h.754v.422h-.754v.17c0 .503.081.842.252 1.095.081.337.253.421.502.421v.504c-.421 0-.754-.17-.923-.592-.253-.336-.338-.925-.338-1.684s.084-1.347.338-1.769c.249-.42.502-.592.923-.592v.511zM156.766 105.88h-.505v-.421h.505v-1.261h.506v1.261h.756v.421h-.756v4.04h-.506zM159.544 105.794v-.421c.42 0 .754.171 1.01.592.167.337.337.926.337 1.685s-.171 1.347-.337 1.767c-.253.421-.589.592-1.01.592v-.505c.249 0 .42-.084.589-.42.085-.338.169-.757.169-1.431 0-.59-.082-1.095-.169-1.348-.167-.341-.337-.511-.589-.511zm0 0c-.253 0-.424.171-.506.505-.167.253-.167.757-.167 1.348 0 .673 0 1.178.167 1.431.082.336.253.42.506.42v.504c-.424 0-.758-.17-.926-.591-.252-.42-.337-1.01-.337-1.768 0-.756.085-1.348.337-1.684.168-.421.502-.592.926-.592v.427zM161.649 105.459h.593v.422c.081-.17.249-.337.337-.337.167-.083.337-.171.505-.171.336 0 .589.084.674.338.169.253.252.591.252 1.095v3.115h-.593v-3.198c0-.336 0-.59-.08-.673a.464.464 0 0 0-.422-.252c-.252 0-.424.083-.505.337-.084.169-.167.422-.167.842v2.947h-.593l-.001-4.465zM166.785 107.394c0-.503-.081-.842-.253-1.176-.08-.253-.254-.338-.422-.338h-.078v-.506c.42 0 .753.172.926.592.249.337.336.926.336 1.685v.17h-1.262v-.423l.753-.004zm-.757 2.61v-.504c.168 0 .337-.084.5-.253.086-.251.172-.505.172-.841h.503c0 .504-.17.926-.337 1.179-.249.25-.501.419-.838.419zm0-4.124c-.173 0-.338.082-.507.338a3.932 3.932 0 0 0-.169 1.176h.676v.422h-.676v.17c0 .503 0 .842.169 1.095.081.337.254.421.507.421v.504c-.426 0-.759-.17-.926-.592-.253-.336-.338-.925-.338-1.684s.085-1.347.338-1.769c.25-.42.5-.592.926-.592v.511zM167.795 109.079c.169.083.253.253.421.337.169.084.254.084.421.084.169 0 .337-.084.505-.168.169-.17.169-.338.169-.506 0-.251-.169-.588-.674-1.011h-.085c-.336-.337-.588-.589-.672-.756-.081-.168-.169-.422-.169-.592 0-.337.084-.589.338-.756.168-.251.501-.338.755-.338.167 0 .338 0 .42.084.173 0 .253.084.422.169v.504c-.169-.082-.249-.169-.337-.251-.169 0-.338-.085-.42-.085a.634.634 0 0 0-.421.171c-.172.169-.254.337-.254.503 0 .253.254.505.675.845v.081c.42.338.673.592.841.756.085.171.169.422.169.675 0 .337-.169.589-.337.844-.253.251-.504.337-.926.337-.085 0-.253 0-.422-.081a.46.46 0 0 1-.42-.253l.001-.593zM153.736 114.889l-.505.252c-.085-.338-.167-.505-.338-.674-.167-.168-.336-.253-.502-.253-.337 0-.593.253-.758.675a12.638 12.638 0 0 0-.169 2.189c0 1.013 0 1.769.169 2.188.167.422.42.673.758.673.25 0 .421-.168.588-.336a3.29 3.29 0 0 0 .169-1.095v-1.012h-.927v-.589h1.519v1.517c0 .672-.085 1.178-.338 1.514-.253.338-.589.592-1.01.592-.593 0-.927-.338-1.179-.843-.253-.591-.42-1.43-.42-2.61 0-1.182.167-2.021.42-2.611.253-.592.673-.845 1.263-.845.252 0 .504.085.758.338.249.255.417.508.502.93zM154.576 113.288h.506v7.073h-.506zM156.177 115.896h.502v2.948c0 .421.085.673.171.842.083.172.249.252.501.252.173 0 .338-.08.42-.169.085-.168.171-.504.171-.925v-2.948h.502v3.034c0 .591-.08.928-.249 1.179-.173.251-.505.337-.846.337-.42 0-.755-.084-.926-.337-.167-.251-.249-.592-.249-1.179l.003-3.034zM161.313 116.068v.588c-.085-.081-.171-.169-.253-.25h-.337c-.253 0-.502.081-.589.42-.168.338-.253.758-.253 1.431 0 .591.084 1.01.253 1.264.085.252.336.42.589.42.085 0 .252 0 .337-.08.082-.084.168-.171.253-.252v.673c-.171 0-.253.081-.338.081-.082.084-.252.084-.336.084-.42 0-.674-.169-.926-.589-.253-.422-.338-.928-.338-1.601 0-.844.085-1.431.338-1.77.252-.419.589-.592 1.01-.592h.337c.084.001.168.089.253.173zM162.996 116.318v-.502c.42 0 .758.169 1.011.591.167.421.336 1.011.336 1.767 0 .757-.167 1.348-.336 1.686-.253.421-.593.59-1.011.59v-.422c.252 0 .42-.168.593-.505.08-.252.168-.754.168-1.347 0-.674-.085-1.094-.168-1.429-.172-.26-.34-.429-.593-.429zm0 0c-.253 0-.42.085-.506.425-.081.25-.168.754-.168 1.428 0 .593.083 1.095.168 1.431.084.253.253.421.506.421v.422c-.42 0-.755-.169-.926-.59-.252-.338-.336-.927-.336-1.686 0-.756.08-1.346.336-1.767.171-.422.506-.591.926-.591v.507zM164.93 119.519c.085.169.254.251.425.338.082.08.252.167.422.167.168 0 .336-.084.5-.252.086-.083.174-.252.174-.505 0-.251-.253-.591-.674-.922l-.085-.085c-.336-.338-.588-.504-.673-.758-.081-.169-.168-.336-.168-.589 0-.254.082-.591.337-.757.17-.169.424-.337.757-.337.168 0 .253.08.422.08.084 0 .253.085.42.173v.588c-.167-.08-.252-.169-.42-.25-.084-.083-.254-.083-.337-.083-.172 0-.338.083-.507.168a.658.658 0 0 0-.168.423c0 .252.254.589.675.926.421.337.672.591.754.755.172.253.172.424.172.673 0 .338-.085.673-.337.928-.169.17-.507.337-.843.337-.172 0-.338-.081-.423-.081-.17-.083-.338-.17-.424-.253l.001-.684zM169.31 117.835c0-.505 0-.844-.169-1.095-.083-.254-.252-.424-.505-.424v-.502c.422 0 .759.253.926.591.168.42.337 1.011.337 1.767v.084h-1.263v-.421h.674zm-.674 2.61v-.422c.169 0 .337-.084.422-.338.168-.169.252-.422.252-.756h.505c0 .506-.171.843-.338 1.095-.252.336-.505.421-.841.421zm0-4.127c-.167 0-.338.17-.505.425-.08.25-.168.589-.252 1.095h.757v.42h-.757v.17c0 .503.084.925.252 1.178.084.253.253.421.505.421v.423c-.421 0-.757-.171-.926-.507-.253-.421-.336-1.01-.336-1.769 0-.756.08-1.346.336-1.684.253-.42.505-.672.926-.672v.5zM157.272 126.676c.253 0 .336-.083.42-.255.168-.167.253-.501.253-.926 0-.42-.084-.754-.171-.923-.168-.171-.249-.253-.502-.253v-.592c.42.084.754.171.927.424.249.25.335.675.335 1.263 0 .506-.084.844-.168 1.096a1.29 1.29 0 0 1-.674.503c.336.084.589.255.754.504.171.252.253.674.253 1.097 0 .59-.167 1.095-.42 1.348-.253.25-.589.421-1.01.421v-.505c.253-.084.42-.169.589-.253.167-.169.253-.504.253-1.01s-.085-.844-.253-1.011c-.167-.169-.336-.254-.589-.336l.003-.592zm-.591-2.359v2.359H157.271v.592h-.591v2.609h.591v.505h-1.179v-6.654h1.18v.592h-.17l-.421-.003zM159.713 123.307h.505v7.075h-.505zM162.406 126.339v-.507c.422 0 .674.17.927.591.253.423.335 1.011.335 1.769 0 .76-.08 1.348-.335 1.686-.254.422-.505.59-.927.59v-.421c.169 0 .422-.169.505-.502.082-.253.168-.758.168-1.348a5.52 5.52 0 0 0-.168-1.433c-.084-.256-.337-.425-.505-.425zm0 0c-.252 0-.504.08-.592.419-.08.253-.169.756-.169 1.431 0 .592.085 1.097.169 1.429a.636.636 0 0 0 .592.423v.42c-.42 0-.758-.168-1.011-.589-.168-.338-.337-.926-.337-1.686 0-.755.168-1.348.337-1.77.252-.42.593-.59 1.011-.59v.513zM165.521 126.339v-.507c.422 0 .753.17 1.01.591.171.423.253 1.011.253 1.769 0 .76-.082 1.348-.253 1.686-.254.422-.59.59-1.01.59v-.421c.254 0 .422-.169.507-.502.168-.253.246-.758.246-1.348 0-.674-.078-1.096-.246-1.433-.085-.256-.253-.425-.507-.425zm0 0c-.252 0-.419.08-.504.419-.168.253-.168.756-.168 1.431 0 .592 0 1.097.168 1.429.085.254.252.423.504.423v.42c-.419 0-.757-.168-.926-.589-.253-.338-.336-.926-.336-1.686 0-.755.081-1.348.336-1.77.169-.42.507-.59.926-.59v.513zM168.721 130.042c.248 0 .42-.169.501-.423.084-.25.173-.757.173-1.429 0-.674-.085-1.178-.173-1.43-.081-.251-.253-.42-.501-.42v-.421c.081 0 .168 0 .248.081a.646.646 0 0 1 .338.338v-3.034h.59v7.074h-.59v-.338c-.084.084-.169.252-.251.338a.66.66 0 0 1-.337.081l.002-.417zm-.673-1.852c0 .672 0 1.179.08 1.429.169.254.338.423.594.423v.421h-.174c-.42 0-.672-.169-.841-.502-.167-.423-.252-1.011-.252-1.854 0-.757.085-1.348.252-1.686.169-.336.421-.501.841-.501h.174v.421c-.252 0-.425.169-.594.42-.08.25-.08.754-.08 1.429z"/><path fill="none" stroke="#000" stroke-width=".5" d="M173.939 80.875l-34.012-.169v23.154M139.76 111.268l.167 21.637 34.772.168"/><path d="M183.876 79.695c-.506 0-.926-.168-1.348-.336-.504-.253-.758-.592-.926-1.097-.085 0-.085-.082-.085-.168 0-.083.085-.254.174-.337.079-.084.251-.084.336-.084.171 0 .252 0 .421.168l.173.338c.168.169.336.337.5.42.253.086.505.086.759.086.42 0 .758-.086 1.01-.338.338-.252.425-.59.425-.927 0-.504-.173-.926-.506-1.264-.337-.252-.842-.42-1.347-.42-.421-.083-.594-.253-.594-.506 0-.169.173-.338.426-.42l1.263-.338c.252-.084.421-.169.505-.337.169-.169.169-.337.169-.504 0-.337-.085-.591-.336-.756-.25-.17-.591-.251-1.012-.251-.254 0-.505 0-.673.168l-.589.337c-.173.082-.253.082-.338.082-.079 0-.252 0-.337-.168-.084-.083-.084-.171-.084-.338 0-.252.252-.501.759-.756.42-.252.841-.337 1.093-.337.755 0 1.348.167 1.769.503.505.336.673.843.673 1.429 0 .844-.338 1.348-.925 1.6-.085.084-.169.084-.253.084.505.169.843.423 1.012.755.251.338.336.758.336 1.266 0 .673-.169 1.265-.673 1.684-.515.512-1.104.762-1.777.762zM193.135 72.707l-.419.592a6.072 6.072 0 0 0-1.265 1.85l-.926 2.104c-.079.084-.253.505-.421 1.179-.169.502-.337.842-.506 1.094a.46.46 0 0 1-.421.252c-.168 0-.251-.085-.336-.17-.172-.082-.172-.168-.172-.336 0-.084.083-.422.337-1.012l1.096-2.775a10.178 10.178 0 0 1 1.599-2.613l.081-.08-2.522-.084h-1.176c-.337-.082-.505-.253-.505-.502 0-.17.084-.254.172-.338.08-.169.169-.169.337-.169h1.937c.845.083 1.519.083 1.94.083h.926c.422 0 .59.083.59.337-.008.168-.094.335-.346.588zM183.034 90.474H181.012c-.252 0-.421 0-.504-.084-.254 0-.338-.17-.338-.337 0-.338.338-.504.846-.504H181.438v-.755c0-.338-.085-.506-.085-.673 0-.506.085-1.098.169-2.021.084-.846.084-1.518.084-2.021-.422.422-.755.589-.843.589-.169 0-.251-.081-.42-.167-.085-.083-.085-.252-.085-.338 0-.17.085-.423.421-.591.173-.169.422-.338.759-.673.335-.253.589-.422.841-.422.253 0 .42.083.42.422 0 .081-.078.169-.078.336v1.347c0 .422 0 1.011-.086 1.767-.083.757-.167 1.347-.167 1.771 0 .168 0 .421.08.671v.674h.593c.08 0 .253.082.337.171.084.081.171.253.171.337 0 .171-.084.251-.171.338-.092.163-.262.163-.344.163zM190.02 83.737l-.422.591a11.752 11.752 0 0 0-1.261 1.854l-.928 2.103c-.085.082-.168.504-.42 1.177-.168.505-.338.845-.506 1.097a.454.454 0 0 1-.42.251c-.085 0-.253-.082-.337-.169-.084-.082-.173-.169-.173-.337 0-.085.086-.42.338-1.011l1.179-2.776c.502-1.178 1.01-2.021 1.516-2.612l.168-.082-2.61-.085h-1.178c-.338-.081-.505-.25-.505-.503 0-.169.083-.253.169-.337.083-.084.251-.169.337-.169h1.937c.926.082 1.519.082 2.021.082h.926c.338 0 .505.084.505.338.002.168-.084.337-.336.588zM193.473 90.809c-1.01 0-1.684-.337-2.189-1.095-.084-.081-.084-.17-.084-.253 0-.168.084-.25.169-.337.083-.169.252-.169.338-.169.169 0 .254.083.422.169.168.253.338.421.422.421.169.17.504.253.926.253a1.8 1.8 0 0 0 1.432-.674c.42-.42.589-.924.589-1.515 0-.506-.085-.926-.254-1.267-.251-.42-.588-.589-1.01-.589-.338 0-.674.082-.846.169-.249.082-.422.169-.589.42l-.59.592c-.173.169-.251.254-.42.254-.173 0-.253-.085-.338-.171-.168-.083-.168-.253-.168-.337 0-.085 0-.42.081-.926.083-1.096.172-1.77.172-2.104 0-.169 0-.254-.085-.422-.083-.169-.083-.252-.083-.336 0-.172.172-.253.505-.253H193.388c.426 0 .675-.083.926-.083.085 0 .254.083.422.083h.426c.078 0 .167 0 .247-.083h.338c.083 0 .168 0 .336.171.085.081.172.168.172.336 0 .338-.42.505-1.266.505h-1.516l-.926.082c0 .17-.081.672-.17 1.686.507-.338 1.096-.593 1.853-.593.755 0 1.348.338 1.768.926.336.504.505 1.095.505 1.939 0 .926-.251 1.684-.845 2.273-.586.593-1.258.928-2.185.928zM187.075 92.24h.168c.842 0 1.601.422 2.101 1.177.426.675.593 1.517.593 2.444 0 1.517-.251 2.692-.673 3.447-.506.756-1.267 1.18-2.188 1.18v-1.01c.673 0 1.175-.421 1.516-1.267.253-.59.336-1.262.336-2.187 0-.926-.17-1.601-.421-2.106-.337-.42-.755-.673-1.348-.673h-.08l-.004-1.005zm0 8.252c-1.099 0-1.852-.506-2.273-1.43-.421-.757-.593-1.685-.593-2.865 0-1.01.253-1.849.673-2.611.593-.842 1.267-1.262 2.193-1.346v1.011c-.593.081-1.011.422-1.432 1.01a4.284 4.284 0 0 0-.42 1.852c0 1.095.167 1.938.42 2.525.338.592.759.843 1.432.843v1.011zM188 102.85h.173c.841 0 1.599.42 2.1 1.176.422.673.593 1.431.593 2.441 0 1.518-.252 2.612-.673 3.451-.505.758-1.266 1.096-2.192 1.096v-.926c.673-.084 1.267-.422 1.519-1.265.253-.589.337-1.347.337-2.19 0-.926-.169-1.6-.422-2.104-.254-.421-.758-.673-1.263-.673H188v-1.006zm0 8.166c-1.095 0-1.85-.424-2.27-1.429-.425-.674-.594-1.686-.594-2.865 0-.927.253-1.851.759-2.611.505-.757 1.179-1.263 2.101-1.263v1.01c-.589 0-1.01.338-1.348.925a3.615 3.615 0 0 0-.502 1.853c0 1.177.169 2.021.422 2.609.337.507.754.845 1.428.845l.004.926zM188 113.456h.173c.841 0 1.599.338 2.1 1.095.422.675.593 1.519.593 2.442 0 1.518-.252 2.694-.673 3.451-.505.758-1.266 1.178-2.192 1.178v-1.012c.673 0 1.267-.421 1.519-1.265.253-.504.337-1.267.337-2.189 0-.926-.169-1.601-.422-2.021-.254-.505-.758-.758-1.263-.758H188v-.921zm0 8.167c-1.095 0-1.85-.506-2.27-1.429-.425-.756-.594-1.685-.594-2.864 0-1.012.253-1.851.759-2.609.505-.846 1.179-1.268 2.101-1.268v.927c-.589.083-1.01.421-1.348 1.011-.336.502-.502 1.178-.502 1.85 0 1.096.169 1.939.422 2.524.337.591.754.845 1.428.845l.004 1.013zM188.507 123.224h.084c.926 0 1.599.336 2.101 1.176.424.592.675 1.429.675 2.358 0 1.602-.251 2.695-.755 3.451-.422.843-1.179 1.179-2.104 1.179v-1.01c.672 0 1.179-.421 1.515-1.179.172-.59.338-1.347.338-2.189 0-.926-.169-1.686-.421-2.104-.338-.505-.759-.672-1.347-.672h-.084l-.002-1.01zm-.085 8.166c-1.012 0-1.771-.423-2.273-1.429-.338-.673-.505-1.686-.505-2.864 0-1.01.169-1.851.674-2.612.507-.757 1.264-1.263 2.189-1.263v1.01c-.59 0-1.095.338-1.428.925-.338.591-.426 1.179-.426 1.851 0 1.178.084 2.021.426 2.525.336.592.753.843 1.346.843h.082v1.01h-.083l-.002.004zM177.393-43.223l.081-.081c.672 0 1.265.336 1.598.923.338.505.507 1.179.507 1.938 0 1.18-.17 2.021-.507 2.695-.422.589-.926.841-1.683.841v-.759c.503 0 .926-.337 1.179-.925.168-.504.249-1.011.249-1.77 0-.674-.081-1.264-.337-1.598a1.196 1.196 0 0 0-1.011-.505h-.081l.005-.759zm-.084 6.314c-.755 0-1.347-.338-1.769-1.094-.252-.589-.421-1.348-.421-2.188 0-.844.254-1.518.59-2.021.425-.673.925-1.011 1.686-1.011v.757c-.504 0-.842.252-1.094.756-.254.423-.338.843-.338 1.43 0 .843.083 1.516.338 1.938.252.42.59.673 1.01.673h.084v.757l-.086.003zM182.36-43.055c.168-.168.253-.25.422-.25.079 0 .168.082.252.168.08.081.08.167.08.252 0 .083-.08.253-.422.588l-.335.338.003-1.096zm0 2.19c.674 0 1.175.169 1.516.503.253.337.42.843.42 1.43 0 .59-.167 1.178-.504 1.516a1.8 1.8 0 0 1-1.428.673v-.756c.335 0 .673-.084.926-.423.168-.25.249-.588.249-1.01 0-.421-.081-.674-.336-.842-.169-.168-.421-.252-.843-.252v-.839zm-.085 4.125c-.673 0-1.178-.253-1.515-.756-.252-.42-.421-1.011-.421-1.686 0-1.347.502-2.442 1.599-3.45l.422-.337v-.086 1.097l-.422.42c-.251.254-.425.589-.593 1.01.253-.083.421-.169.593-.252.168-.083.337-.083.422-.083v.842h-.085c-.251 0-.42 0-.588.085-.085.083-.253.167-.507.336-.083.169-.083.253-.083.422 0 .42.083.842.252 1.177.253.337.506.506.926.506h.085v.755h-.085zM186.569-37.92c0 .085-.083.171-.167.252 0 .084-.172.084-.254.084-.172 0-.252 0-.338-.084 0-.082-.082-.167-.082-.252v-.25c0-.085-.083-.17-.083-.253s.083-.171.169-.252c.083-.084.171-.084.252-.084.336-.001.503.251.503.839zm-.083-2.945c0 .083 0 .253-.081.253-.085.083-.171.167-.337.167-.082 0-.169-.083-.253-.167-.082 0-.169-.17-.169-.253v-.17-.168c0-.083 0-.168.084-.252.081-.083.169-.083.336-.083.251 0 .42.167.42.673zM189.769-43.223l.167-.081c.675 0 1.179.336 1.601.923.337.505.501 1.179.501 1.938 0 1.18-.168 2.021-.59 2.695-.338.589-.926.841-1.684.841v-.759c.59 0 1.011-.337 1.264-.925.169-.504.253-1.011.253-1.77 0-.674-.173-1.264-.338-1.598a1.198 1.198 0 0 0-1.01-.505h-.169l.005-.759zm0 6.314c-.759 0-1.348-.338-1.772-1.094a5.699 5.699 0 0 1-.42-2.188c0-.844.171-1.518.593-2.021.421-.673.926-1.011 1.6-1.011v.757c-.426 0-.759.252-1.012.756-.251.423-.419.843-.419 1.43 0 .843.168 1.516.419 1.938.171.42.59.673 1.012.673v.76h-.001zM194.82-43.223l.085-.081c.674 0 1.263.336 1.596.923a3.51 3.51 0 0 1 .593 1.938c0 1.18-.253 2.021-.593 2.695-.422.589-.922.841-1.685.841v-.759c.506 0 .928-.337 1.178-.925.17-.504.254-1.011.254-1.77 0-.674-.084-1.264-.338-1.598a1.197 1.197 0 0 0-1.01-.505h-.085v-.76h.005zm0 6.314c-.842 0-1.432-.338-1.853-1.094-.251-.589-.42-1.348-.42-2.188 0-.844.252-1.518.592-2.021.421-.673 1.01-1.011 1.685-1.011v.757c-.506 0-.842.252-1.095.756-.252.423-.338.843-.338 1.43 0 .843.085 1.516.338 1.938.253.42.589.673 1.095.673l-.004.76zM275.054-36.824h-2.021c-.084-.085-.171-.17-.171-.338 0-.252.171-.421.592-.421h.337v-.504-.59c0-.338 0-.842.084-1.516 0-.674.08-1.265.08-1.6-.421.336-.59.42-.673.42-.168 0-.249 0-.337-.083-.083-.083-.083-.17-.083-.253 0-.167.083-.336.337-.503.167-.085.336-.253.59-.505.253-.253.504-.338.673-.338.168 0 .253.084.253.338v1.345c0 .253 0 .758-.085 1.348-.08.59-.08 1.01-.08 1.348v.59c.08.17.08.338.08.504h.425c.081 0 .168 0 .251.084.082.083.082.167.082.336 0 .084 0 .169-.082.251-.084.087-.168.087-.252.087zM278.253-43.055h.084c.753 0 1.263.338 1.685.927.338.504.504 1.177.504 1.851 0 1.264-.168 2.105-.588 2.695-.338.591-.928.926-1.686.926v-.757c.593 0 1.011-.336 1.179-1.01.168-.42.251-1.011.251-1.685 0-.673-.083-1.264-.337-1.599-.168-.337-.501-.591-1.01-.591h-.084v-.757h.002zm0 6.399c-.842 0-1.348-.338-1.684-1.094-.253-.592-.421-1.348-.421-2.273 0-.757.168-1.43.501-2.021.338-.589.926-.927 1.6-1.011v.757c-.421.085-.754.338-1.095.758-.169.422-.252.927-.252 1.515 0 .843.083 1.517.252 1.937.253.42.592.674 1.095.674l.004.758zM282.464-37.75c0 .167 0 .253-.083.336-.084.083-.168.083-.338.083-.08 0-.166 0-.249-.083s-.171-.169-.171-.336v-.171-.25c0-.085 0-.17.085-.252.08-.083.169-.171.335-.171.252.003.421.339.421.844zm-.085-2.863c0 .083 0 .167-.084.25-.08.083-.169.17-.337.17-.083 0-.171-.085-.252-.17-.085-.083-.17-.168-.17-.25v-.17-.168c0-.086.082-.168.082-.252.085-.081.254-.168.337-.168.256 0 .424.253.424.758zM285.745-43.055h.083c.672 0 1.265.338 1.6.927.337.504.505 1.177.505 1.851 0 1.264-.169 2.105-.505 2.695-.422.591-.928.926-1.685.926v-.757c.506 0 .929-.336 1.178-1.01.17-.42.251-1.011.251-1.685 0-.673-.081-1.264-.336-1.599-.253-.337-.592-.591-1.012-.591h-.082l.003-.757zm-.082 6.399c-.754 0-1.347-.338-1.77-1.094-.251-.592-.42-1.348-.42-2.273 0-.757.169-1.43.589-2.021.422-.589.926-.927 1.686-1.011v.757c-.503.085-.84.338-1.093.758-.254.422-.338.927-.338 1.515 0 .843.083 1.517.338 1.937.253.42.59.674 1.01.674h.083v.757h-.085v.001zM290.713-43.055h.081c.759 0 1.267.338 1.686.927.337.504.502 1.177.502 1.851 0 1.264-.249 2.105-.589 2.695-.338.591-.928.926-1.686.926v-.757c.592 0 .924-.336 1.178-1.01.168-.42.252-1.011.252-1.685 0-.673-.082-1.264-.336-1.599-.174-.337-.506-.591-1.012-.591h-.082v-.757h.006zm0 6.399c-.845 0-1.43-.338-1.771-1.094-.337-.592-.42-1.348-.42-2.273 0-.757.171-1.43.504-2.021a2.392 2.392 0 0 1 1.686-1.011v.757a1.66 1.66 0 0 0-1.098.758c-.249.422-.336.927-.336 1.515 0 .843.082 1.517.336 1.937s.593.674 1.098.674l.001.758z"/><path fill="none" stroke="#000" stroke-width="2" d="M182.613 19.416l-.253 23.74M276.905 9.817v27.784"/><path d="M192.716 39.369c-.423.504-.755.841-.924 1.178-.252.336-.593.843-1.098 1.517.252.337.593.757.926 1.265.338.503.673.923 1.011 1.263a.645.645 0 0 1 .169.42c0 .17-.083.338-.169.421-.168.168-.338.168-.504.168-.253 0-.675-.336-1.179-1.01-.082-.168-.337-.504-.59-.926-.085-.167-.338-.42-.589-.757-.338.423-.845.926-1.431 1.518-.169.253-.422.503-.843.926-.084.169-.253.169-.421.169-.173 0-.338 0-.506-.169a.646.646 0 0 1-.167-.423c0-.168.08-.251.167-.422.168-.169.422-.502.843-.841.338-.421.927-1.01 1.599-1.684-.338-.423-.672-.845-1.011-1.18 0-.083-.169-.252-.502-.673-.173-.253-.42-.504-.593-.592-.169-.168-.253-.336-.253-.503 0-.171.084-.338.174-.42.168-.17.335-.253.499-.253.173 0 .338.167.595.336.254.171.422.338.504.504.169.169.337.422.59.758.253.335.589.674.843 1.01.42-.504.757-1.01 1.178-1.517.589-.674.927-1.094 1.179-1.094.168 0 .337.083.503.168.083.169.171.338.171.505-.002.084-.087.254-.171.338zM288.777 28.003a8.225 8.225 0 0 0-.927 1.096c-.248.338-.59.842-1.174 1.515.335.424.673.845 1.01 1.348.337.505.673.926 1.011 1.265.081.167.169.252.169.42a.64.64 0 0 1-.169.42c-.172.169-.338.169-.505.169-.252 0-.674-.337-1.18-1.01-.08-.171-.335-.506-.588-.927-.169-.167-.338-.42-.593-.757-.337.421-.844.927-1.43 1.599-.167.168-.42.505-.841.842a.463.463 0 0 1-.421.253c-.173 0-.338-.083-.505-.253a.63.63 0 0 1-.167-.42c0-.169 0-.253.167-.421l.841-.842c.338-.42.926-1.011 1.601-1.767-.338-.42-.675-.757-1.011-1.18 0 0-.169-.251-.501-.673-.254-.252-.422-.504-.594-.588-.167-.171-.253-.338-.253-.505 0-.168.086-.338.173-.42.169-.168.336-.253.503-.253.17 0 .338.169.592.42.253.169.42.338.505.505.169.168.336.42.59.675.253.336.589.674.842 1.01.421-.503.759-1.01 1.178-1.517.591-.673.927-1.094 1.18-1.094.168 0 .335.085.421.253a.46.46 0 0 1 .252.42c-.005.165-.091.249-.176.417zM164.68-18.639h-.758l.168-.421h1.094v5.808h-.504zM168.132-16.701a.458.458 0 0 0 .42-.253c.085-.167.174-.42.174-.757 0-.335-.085-.589-.174-.756a.453.453 0 0 0-.42-.253v-.42c.338 0 .594.082.758.337.252.251.337.592.337 1.093 0 .338-.082.592-.168.757a.868.868 0 0 1-.422.505.75.75 0 0 1 .505.503c.169.253.169.592.169 1.094 0 .505-.084.927-.338 1.265-.168.252-.501.42-.843.42v-.504c.169 0 .338-.082.506-.253.085-.252.169-.503.169-.927 0-.421-.08-.756-.169-1.01-.168-.253-.338-.338-.506-.338l.002-.503zm-.084-2.021a.466.466 0 0 0-.426.253 1.76 1.76 0 0 0-.167.756c0 .338.085.592.167.757.085.169.254.253.506.253v.503a.762.762 0 0 0-.588.253 3.133 3.133 0 0 0-.169 1.011c0 .419.08.673.169.926.167.251.336.336.588.336v.504c-.421 0-.753-.169-.925-.42-.253-.338-.337-.757-.337-1.265 0-.504.082-.842.168-1.094a.758.758 0 0 1 .507-.503.859.859 0 0 1-.422-.505 1.661 1.661 0 0 1-.171-.757c0-.502.082-.842.338-1.094.167-.254.42-.337.841-.337v.421h-.079v.002zM171.245-13.672c.337 0 .506-.169.594-.59.168-.421.253-1.011.253-1.938 0-.842-.085-1.429-.253-1.849-.084-.422-.253-.592-.594-.592v-.503c.506 0 .847.25 1.012.756.252.42.335 1.178.335 2.188 0 1.097-.08 1.771-.335 2.273-.169.504-.506.757-1.012.757v-.502zm0-4.967c-.252 0-.42.17-.501.592-.172.42-.253 1.01-.253 1.937 0 .842.081 1.43.253 1.851.081.421.249.591.501.591v.504c-.42 0-.754-.253-.925-.757-.249-.42-.337-1.176-.337-2.272 0-1.011.084-1.77.337-2.272.171-.42.505-.673.925-.673v.499zM164.68-8.283h-.758l.168-.506h1.094v5.809h-.504zM168.132-5.758v-.42c.084 0 .169-.084.169-.084.338 0 .593.168.844.504.169.253.254.674.254 1.179 0 .502-.085.925-.337 1.262-.169.254-.507.422-.844.422h-.084v-.422h.084c.169 0 .337-.083.507-.337.08-.251.168-.503.168-.925 0-.338-.084-.674-.168-.845-.174-.25-.34-.334-.593-.334zm0-1.346v-1.265l.169-.42h.593l-.762 1.685zm0 1.346c-.168 0-.337.083-.506.253-.079.252-.168.503-.168.926 0 .336.085.673.168.925.173.17.338.337.506.337v.422c-.337 0-.674-.167-.841-.422-.254-.252-.338-.673-.338-1.177 0-.336 0-.756.082-1.096.085-.336.254-.674.422-1.093l.673-1.686v1.265l-.505 1.179c.172-.171.254-.171.338-.253h.167l.002.42zM171.245-3.317c.337-.083.506-.252.594-.673.168-.338.253-1.011.253-1.851 0-.927-.085-1.517-.253-1.938-.084-.42-.253-.591-.594-.591v-.502c.506 0 .847.252 1.012.756.252.505.335 1.265.335 2.273 0 1.011-.08 1.767-.335 2.272-.169.422-.506.675-1.012.675v-.421zm0-5.051c-.252 0-.42.17-.501.592-.172.421-.253 1.095-.253 1.938 0 .841.081 1.516.253 1.851.081.42.249.673.501.673v.421c-.42 0-.754-.253-.925-.674-.249-.504-.337-1.263-.337-2.272 0-1.008.084-1.768.337-2.273.171-.503.505-.756.925-.756v.5zM164.68 1.989h-.758l.168-.422h1.094v5.809h-.504zM167.964 5.355h.506v-1.01V3.25c0-.423.078-.758.078-1.179-.078.169-.078.337-.167.504-.084.169-.169.422-.253.589l-.168.505v-1.01l.421-1.093h.589v3.787h.426v.422h-.426v1.599h-.5V5.777h-.506v-.422zm-.673 0h.673v.422h-1.095v-.503l1.095-2.613v1.011l-.673 1.683zM171.245 6.954c.337 0 .506-.167.594-.588.168-.42.253-1.095.253-1.939 0-.841-.085-1.515-.253-1.851-.084-.423-.253-.59-.594-.673V1.48c.506 0 .847.253 1.012.675.252.505.335 1.265.335 2.273 0 1.011-.08 1.768-.335 2.273-.169.504-.506.757-1.012.757v-.504zm0-5.049c-.252 0-.42.25-.501.673-.172.421-.253 1.01-.253 1.937 0 .842.081 1.432.253 1.853.081.42.249.588.501.588v.505c-.42 0-.754-.253-.925-.757-.249-.506-.337-1.264-.337-2.273 0-1.009.084-1.768.337-2.273.171-.421.505-.675.925-.675v.422zM164.68 12.344h-.758l.168-.506h1.094v5.81h-.504zM167.375 13.436h-.506v-.083c0-.503.081-.923.337-1.176.171-.252.419-.42.844-.42.337 0 .59.168.843.42.251.168.336.503.336.926 0 .336-.081.755-.336 1.347a26.533 26.533 0 0 1-1.347 2.694h1.598v.503h-2.441c.844-1.517 1.348-2.524 1.597-3.197.252-.592.426-1.011.426-1.347 0-.253-.085-.423-.174-.592-.168-.169-.337-.253-.501-.253-.253 0-.425.083-.504.253a1.66 1.66 0 0 0-.169.757l-.003.168zM171.245 17.227c.337 0 .506-.17.594-.591.168-.421.253-1.011.253-1.853 0-.925-.085-1.515-.253-1.936-.084-.42-.253-.592-.594-.592v-.503c.506 0 .847.25 1.012.756.252.504.335 1.265.335 2.272 0 1.01-.08 1.77-.335 2.19-.169.504-.506.757-1.012.757v-.5zm0-4.968c-.252 0-.42.17-.501.592-.172.42-.253 1.094-.253 1.936 0 .843.081 1.517.253 1.853.081.42.249.591.501.591v.503c-.42 0-.754-.253-.925-.673-.249-.504-.337-1.262-.337-2.273 0-1.093.084-1.851.337-2.272.171-.504.505-.756.925-.756v.499zM153.651 17.564h-.759l.084-.506h1.18v5.893h-.505zM156.85 17.564h-.758l.085-.506h1.177v5.893h-.504zM160.219 22.53c.249 0 .502-.25.589-.589.167-.422.167-1.095.167-1.937 0-.844 0-1.518-.167-1.938-.085-.337-.338-.591-.589-.591v-.504c.42 0 .754.254 1.01.757.167.505.338 1.264.338 2.273 0 1.009-.171 1.768-.338 2.273-.253.503-.589.673-1.01.673v-.417zm0-5.051c-.253 0-.424.253-.593.674-.081.338-.167 1.011-.167 1.937 0 .844.084 1.43.167 1.853.168.338.338.589.593.589v.423c-.424 0-.758-.17-1.011-.673-.167-.505-.252-1.265-.252-2.273 0-1.011.083-1.768.252-2.273.253-.503.589-.757 1.011-.757v.5zM164.68 22.615h-.758l.168-.507h1.094v5.895h-.504zM168.132 27.582c.253 0 .42-.252.505-.589.169-.424.253-1.097.253-1.939 0-.842-.084-1.517-.253-1.937-.085-.338-.252-.592-.505-.592v-.502c.42.082.758.253.927.756.252.504.338 1.265.338 2.273 0 1.011-.085 1.768-.338 2.272-.169.505-.507.758-.927.758v-.5zm0-5.052c-.337 0-.506.252-.589.674-.168.338-.168 1.011-.168 1.938 0 .842 0 1.429.168 1.853.079.337.252.589.589.589v.506c-.506 0-.841-.254-1.01-.758-.253-.504-.338-1.263-.338-2.272 0-1.008.084-1.767.338-2.273.169-.503.5-.756 1.01-.756v.499zM171.245 27.582c.337 0 .506-.252.594-.589.168-.424.253-1.097.253-1.939 0-.842-.085-1.517-.253-1.937-.084-.338-.253-.592-.594-.592v-.502c.506.082.847.253 1.012.756.252.504.335 1.265.335 2.273 0 1.011-.08 1.768-.335 2.272-.169.505-.506.758-1.012.758v-.5zm0-5.052c-.252 0-.42.252-.501.674-.172.338-.253 1.011-.253 1.938 0 .842.081 1.429.253 1.853.081.337.249.589.501.589v.506c-.42 0-.754-.254-.925-.758-.249-.504-.337-1.263-.337-2.272 0-1.008.084-1.767.337-2.273.171-.503.505-.756.925-.756v.499zM157.102 30.444a.567.567 0 0 0 .505-.336c.167-.17.167-.506.167-.845 0-.42 0-.756-.167-.926-.08-.25-.253-.337-.505-.337v-.503c.337 0 .673.17.844.42.254.338.337.757.337 1.265 0 .336 0 .673-.081 1.01-.085.338-.254.757-.425 1.177l-.67 1.684v-1.261l.503-1.18c-.08.083-.168.17-.336.17-.085.083-.085.083-.171.083v-.421h-.001zm0-2.441c-.25 0-.42.085-.502.338-.171.168-.171.503-.171.923 0 .338 0 .675.171.845.082.168.252.336.502.336v.42h-.168a.877.877 0 0 1-.754-.42c-.253-.336-.338-.673-.338-1.178 0-.591.169-1.01.338-1.264.252-.336.502-.504.841-.504h.082v.504h-.001zm0 3.789v1.261l-.168.338h-.589l.757-1.599zM160.219 32.97c.249 0 .502-.168.589-.592.167-.337.167-1.01.167-1.85 0-.926 0-1.518-.167-1.939-.085-.42-.338-.59-.589-.59v-.502c.42 0 .754.253 1.01.757.167.506.338 1.264.338 2.274 0 1.008-.171 1.767-.338 2.273-.253.42-.589.674-1.01.674v-.505zm0-4.967c-.253 0-.424.17-.593.591a10.584 10.584 0 0 0-.167 1.939c0 .841.084 1.515.167 1.849.168.423.338.592.593.592v.505c-.424 0-.758-.252-1.011-.674-.167-.505-.252-1.265-.252-2.273 0-1.011.083-1.768.252-2.273.253-.504.589-.757 1.011-.757v.501zM168.132 34.823a.458.458 0 0 0 .42-.253c.085-.17.174-.42.174-.758 0-.336-.085-.504-.174-.757-.079-.082-.251-.168-.42-.25v-.423c.338 0 .594.085.758.338.252.253.337.673.337 1.094 0 .338-.082.59-.168.843a.994.994 0 0 1-.422.42.758.758 0 0 1 .505.505c.169.251.169.592.169 1.094 0 .504-.084.927-.338 1.265-.168.253-.501.42-.843.42v-.505c.169 0 .338-.083.506-.251.085-.253.169-.505.169-.927 0-.42-.08-.756-.169-1.01-.168-.252-.338-.338-.506-.338l.002-.507zm-.084-2.021a.47.47 0 0 0-.426.25c-.079.254-.167.424-.167.757 0 .338.085.591.167.758.085.169.254.253.506.253v.503c-.252 0-.421.083-.588.338-.085.167-.169.504-.169.926 0 .42.08.756.169.926.167.251.336.337.588.337v.505c-.421 0-.753-.169-.925-.42-.253-.338-.337-.758-.337-1.265 0-.504.082-.843.168-1.093a.766.766 0 0 1 .507-.506.983.983 0 0 1-.422-.42c-.085-.252-.171-.503-.171-.842 0-.506.082-.843.338-1.095.167-.252.42-.338.841-.338v.423l-.079.003zM171.245 37.853c.337 0 .506-.168.594-.589.168-.42.253-1.011.253-1.938 0-.844-.085-1.429-.253-1.851-.084-.424-.253-.592-.594-.592v-.505c.506 0 .847.253 1.012.757.252.421.335 1.178.335 2.189 0 1.094-.08 1.851-.335 2.273-.169.504-.506.757-1.012.757v-.501zm0-4.967c-.252 0-.42.167-.501.592-.172.42-.253 1.094-.253 1.936 0 .843.081 1.432.253 1.852.081.421.249.589.501.589v.505c-.42 0-.754-.253-.925-.757-.249-.422-.337-1.179-.337-2.274 0-1.01.084-1.768.337-2.189.171-.504.505-.757.925-.757v.503zM168.132 45.683v-.422h.169c.338 0 .593.084.844.422.169.253.254.672.254 1.179 0 .502-.085.926-.337 1.263-.169.337-.507.421-.844.421h-.084v-.421h.084c.169 0 .337-.081.507-.337.08-.171.168-.505.168-.926 0-.338-.084-.674-.168-.845-.174-.25-.34-.334-.593-.334zm0-1.348v-1.262l.169-.42h.593l-.762 1.682zm0 1.348c-.168 0-.337.083-.506.253-.079.251-.168.504-.168.926 0 .336.085.673.168.926.173.168.338.337.506.337v.421c-.337 0-.674-.082-.841-.421-.254-.252-.338-.673-.338-1.178 0-.336 0-.674.082-1.095.085-.336.254-.673.422-1.094l.673-1.684v1.264l-.505 1.178c.172-.084.254-.169.338-.253h.167l.002.42zM171.245 48.124c.337 0 .506-.252.594-.673.168-.336.253-1.01.253-1.853 0-.84-.085-1.514-.253-1.935-.084-.336-.253-.59-.594-.59v-.506c.506 0 .847.253 1.012.758.252.503.335 1.263.335 2.27 0 1.011-.08 1.769-.335 2.274-.169.42-.506.673-1.012.673v-.418zm0-5.05c-.252 0-.42.253-.501.59-.172.421-.253 1.095-.253 2.022 0 .755.081 1.429.253 1.851.081.336.249.589.501.589v.421c-.42 0-.754-.169-.925-.673-.249-.503-.337-1.264-.337-2.274s.084-1.767.337-2.27c.171-.505.505-.758.925-.758v.502z"/><path fill="none" stroke="#000" stroke-width=".5" d="M173.013-20.91h-32.666l-.251 7.658M140.096 17.564v34.685h32.496"/><path d="M275.644 80.369c-.506 0-.926-.084-1.348-.252-.505-.252-.759-.673-.928-1.096 0-.083-.078-.083-.078-.168 0-.168.078-.253.167-.338a.645.645 0 0 1 .422-.171c.084 0 .253.084.337.171l.252.419c.084.171.253.253.421.338.253.084.506.17.758.17.421 0 .758-.17 1.012-.337.251-.252.336-.59.336-.926 0-.504-.083-.926-.42-1.265-.338-.25-.842-.422-1.348-.503-.421 0-.59-.169-.59-.422 0-.252.169-.338.422-.504l1.263-.253c.253-.084.422-.252.506-.338.08-.17.08-.337.08-.591s0-.506-.253-.674c-.249-.251-.59-.336-1.01-.336a1.58 1.58 0 0 0-.673.167l-.59.337a.924.924 0 0 0-.253.171c-.171 0-.253-.083-.42-.171-.085-.081-.085-.25-.085-.337 0-.338.252-.592.758-.841.421-.171.841-.338 1.094-.338.755 0 1.348.169 1.685.505.505.337.673.842.673 1.517 0 .841-.253 1.348-.926 1.598 0 0-.08 0-.168.084a2.33 2.33 0 0 1 1.011.756c.169.338.337.757.337 1.264 0 .675-.253 1.178-.754 1.685-.429.512-.933.679-1.69.679zM284.819 73.466l-.42.505c-.506.589-.926 1.176-1.267 1.937l-.922 2.021c-.085.17-.253.592-.424 1.179-.169.503-.337.927-.502 1.176a.461.461 0 0 1-.422.253c-.172 0-.252-.083-.338-.17-.168-.083-.168-.252-.168-.336 0-.171.08-.507.337-1.012l1.095-2.862c.592-1.095 1.098-1.939 1.601-2.524l.082-.17h-2.524l-1.175-.082c-.338 0-.506-.171-.506-.504 0-.083.08-.251.169-.338.084-.084.168-.084.338-.084h1.937c.841 0 1.516.084 1.936.084h.928c.419 0 .59.084.59.253-.008.169-.091.421-.345.674zM286.674 80.623c-.174 0-.338 0-.422-.17a.636.636 0 0 1-.171-.419c0-.171.084-.339.171-.507a.64.64 0 0 1 .422-.168c.168 0 .336.083.501.168.084.169.172.337.172.507a.622.622 0 0 1-.172.419c-.165.17-.333.17-.501.17zM291.556 80.202H289.534c-.251 0-.419-.084-.504-.084-.168-.08-.252-.169-.252-.423 0-.336.252-.503.756-.503h.507c0-.169 0-.337-.085-.672v-.756c0-.422 0-1.095.085-1.939.079-.924.168-1.598.079-2.022-.419.338-.672.507-.841.507-.168 0-.253 0-.338-.17-.081-.083-.169-.169-.169-.338 0-.167.169-.336.419-.59.173-.082.507-.338.848-.588.248-.338.589-.505.841-.505.254 0 .336.169.336.421v.338c-.08.169-.08.337-.08.337v.59c.08.171.08.338.08.507 0 .337-.08.924-.168 1.685-.083.842-.083 1.429-.083 1.77v.756c.083.251.083.503.083.672h.505c.169 0 .253 0 .337.171.171.083.171.168.171.337 0 .084 0 .253-.171.338-.082.076-.165.161-.334.161zM277.749 90.052h-2.443a.458.458 0 0 1-.249-.421c0-.338.249-.505.842-.505H276.32c0-.169 0-.421-.084-.758v-.674c0-.419 0-1.094.084-2.02.083-.842.167-1.516.167-1.938-.504.338-.753.507-.925.507-.081 0-.252-.084-.336-.173-.084-.081-.168-.249-.168-.336 0-.168.168-.338.42-.588.253-.172.502-.338.843-.675.253-.253.589-.422.758-.422.249 0 .337.169.337.422v.337c-.084.169-.084.252-.084.338 0 .082 0 .336.084.503v.504c0 .422-.084 1.011-.169 1.769-.084.757-.084 1.347-.084 1.767v.674c.084.338.084.592.084.757h.506c.169 0 .249 0 .42.082.081.085.081.253.081.338 0 .17 0 .336-.081.423-.173.089-.255.089-.424.089zM282.041 90.387v-.926c.594 0 1.011-.168 1.266-.42.169-.253.337-.592.337-1.01 0-.506-.252-.843-.59-1.097-.169-.251-.592-.42-1.011-.504v-.925c.338-.169.595-.254.76-.337.335-.254.503-.507.503-.846 0-.42-.172-.754-.338-.923-.166-.171-.503-.252-.842-.252h-.084v-.927h.084c1.433 0 2.102.674 2.102 2.102 0 .425-.08.757-.169 1.011-.169.169-.42.337-.841.504.506.336.926.59 1.095.843.253.421.338.841.338 1.516 0 .673-.254 1.179-.759 1.599-.503.341-1.09.592-1.851.592zm0 0c-.754-.081-1.347-.17-1.769-.502-.5-.338-.753-.927-.753-1.6 0-1.094.336-1.853 1.175-2.273-.59-.338-.922-.841-.922-1.516 0-.673.249-1.179.672-1.6a2.299 2.299 0 0 1 1.597-.674v.927c-.421 0-.754.168-.925.337-.251.25-.337.591-.337 1.011 0 .421.422.755 1.179 1.01h.08v.925c-.589.253-.926.423-1.094.591-.336.338-.421.757-.421 1.265 0 .422.168.756.589.926.253.169.594.251.926.251l.003.922zM288.524 82.054h.083c.926 0 1.6.42 2.104 1.176.423.674.674 1.43.674 2.441 0 1.52-.251 2.694-.757 3.451-.507.758-1.179 1.094-2.104 1.179V89.29c.672 0 1.179-.423 1.519-1.264.168-.592.337-1.267.337-2.192 0-.925-.169-1.597-.505-2.104-.251-.42-.675-.672-1.265-.672h-.082l-.004-1.004zm-.084 8.251c-1.011 0-1.767-.506-2.272-1.431-.337-.755-.505-1.684-.505-2.864 0-1.011.169-1.851.673-2.609.506-.844 1.268-1.264 2.189-1.347v1.01c-.589.084-1.095.338-1.429 1.011-.338.505-.504 1.097-.504 1.851 0 1.095.169 1.939.504 2.524.337.592.755.844 1.348.844h.081v1.012h-.085v-.001zM277.327 100.156h-1.935c-.253 0-.42-.086-.506-.086-.167-.082-.252-.168-.252-.42 0-.337.252-.504.758-.504h.506c0-.17 0-.337-.084-.673v-.755c0-.422 0-1.095.084-1.94.08-.926.08-1.6.08-2.02-.421.338-.755.503-.842.503-.168 0-.253 0-.337-.168-.173-.084-.173-.169-.173-.338 0-.17.173-.336.426-.59.167-.083.42-.338.754-.592.338-.337.59-.503.927-.503.167 0 .251.169.251.42 0 .083 0 .17-.084.337V93.755c0 .171.084.338.084.504 0 .336-.084.926-.084 1.684-.08.846-.08 1.348-.08 1.771v.755c0 .253.08.503.08.673h.422c.172 0 .252 0 .338.168.08.084.168.171.168.338 0 .084-.082.251-.168.337-.081.085-.164.171-.333.171zM281.367 100.408c-1.01 0-1.684-.339-2.188-1.011-.081-.169-.081-.253-.081-.337 0-.085.081-.253.169-.338.081-.084.253-.169.337-.169.172 0 .252.083.421.253.172.253.338.337.425.422.169.167.502.251.922.251.593 0 1.1-.251 1.433-.673.421-.504.589-1.011.589-1.601 0-.503-.082-.926-.252-1.176-.251-.423-.591-.592-1.012-.592-.335 0-.673 0-.841.082-.252.083-.421.252-.593.421l-.589.592c-.168.17-.253.254-.422.254-.168 0-.252 0-.338-.172-.168-.082-.168-.17-.168-.336 0-.083 0-.338.084-.925.08-1.01.169-1.77.169-2.103 0-.084 0-.253-.085-.338-.08-.169-.08-.251-.08-.336 0-.253.169-.338.506-.338H283.309c.169-.084.254-.084.337-.084.085 0 .169.084.338.171.08.082.169.253.169.337 0 .422-.421.592-1.264.592h-2.444c0 .168-.082.755-.171 1.768.506-.421 1.096-.592 1.853-.592.758 0 1.348.253 1.768.845.338.502.506 1.175.506 1.936 0 .928-.252 1.685-.841 2.273-.592.672-1.265.924-2.193.924zM288.02 92.156h.169c.926 0 1.599.338 2.1 1.097.424.674.674 1.516.674 2.441 0 1.516-.25 2.694-.754 3.45-.505.755-1.179 1.177-2.188 1.177V99.31c.754 0 1.263-.421 1.514-1.264.254-.503.337-1.262.337-2.188 0-.927-.08-1.602-.421-2.021-.254-.505-.673-.756-1.263-.756h-.168v-.925zm0 8.167c-1.011 0-1.769-.503-2.275-1.431a6.87 6.87 0 0 1-.592-2.861c0-1.01.253-1.854.759-2.612.506-.841 1.263-1.266 2.104-1.266v.928c-.593.082-1.011.42-1.347 1.011-.338.502-.505 1.177-.505 1.85 0 1.096.167 1.939.505 2.526.249.592.754.841 1.347.841l.004 1.014zM281.789 113.626h.172c.843 0 1.6.421 2.101 1.177.422.674.594 1.43.594 2.44 0 1.52-.172 2.614-.674 3.451-.506.756-1.268 1.094-2.188 1.094v-.924c.753-.081 1.263-.421 1.514-1.264.254-.592.337-1.348.337-2.191 0-.925-.08-1.597-.421-2.103-.254-.421-.753-.673-1.264-.673h-.171v-1.007zm0 8.165c-1.095 0-1.848-.42-2.27-1.43-.422-.673-.594-1.684-.594-2.862 0-.925.253-1.85.758-2.61.505-.756 1.179-1.178 2.102-1.267v1.012c-.589 0-1.01.336-1.348.925-.336.592-.5 1.18-.5 1.852 0 1.178.167 2.021.42 2.611.337.504.843.843 1.428.843l.004.926zM280.779 127.854c0 .252-.084.422-.253.674-.167.169-.42.253-.673.253-.08 0-.169 0-.337-.084h-2.447v2.442c0 .592-.251.927-.844.927-.337 0-.503-.082-.674-.254-.169-.17-.252-.337-.252-.673v-2.356c-.843 0-1.428.08-1.77.08-1.095 0-1.598-.336-1.598-1.01 0-.42.171-.674.593-.843h1.009c.338 0 .927 0 1.769-.081v-1.179c0-.675 0-1.095.084-1.348.084-.251.169-.422.337-.503.082-.172.338-.172.503-.172.252 0 .506 0 .673.172.084.169.172.42.172.673v.591c0 .251-.084.421-.084.59l.084 1.097.754.082h.592c.338-.082.504-.082.672-.082 1.101-.008 1.69.33 1.69 1.004zM290.882 127.854c0 .252-.084.422-.252.674-.167.169-.421.253-.674.253-.084 0-.168 0-.337-.084h-2.445v2.442c0 .592-.337.927-.923.927-.252 0-.507-.082-.674-.254-.172-.17-.252-.337-.252-.673v-2.356c-.846 0-1.433.08-1.768.08-1.012 0-1.601-.336-1.601-1.01 0-.42.168-.674.589-.843h1.012c.335 0 .922 0 1.768-.081v-1.179c0-.675 0-1.095.08-1.348.085-.251.172-.422.338-.503.083-.172.337-.172.507-.172.248 0 .502 0 .673.172.168.169.249.42.249.673v2.278l.759.082h.589c.338-.082.505-.082.672-.082 1.099-.008 1.69.33 1.69 1.004zM286.252 107.481c0 .251-.084.504-.252.672a.958.958 0 0 1-.674.254h-.338c-.169-.084-.251-.084-.335-.084l-1.095.084h-1.012v2.357c0 .674-.252.926-.926.926-.252 0-.502-.08-.673-.252-.169-.082-.253-.336-.253-.674v-2.355c-.842.084-1.428.084-1.768.084-1.01 0-1.6-.338-1.6-.927 0-.504.252-.757.594-.844.167-.082.504-.082 1.01-.082.337 0 .926 0 1.768-.083v-1.179c0-.591 0-1.095.084-1.264.084-.251.169-.503.338-.591.169-.082.336-.17.59-.17.252 0 .42.084.589.254.252.17.338.338.338.592 0 .168-.086.337-.086.588v1.77H284.574c1.089-.004 1.678.249 1.678.924zM-36.469-40.942h-2.157v-.777h5.248v.777h-2.164v6.312h-.927v-6.312zM-31.711-41.152c0 .316-.222.569-.59.569-.337 0-.558-.253-.558-.569s.233-.577.581-.577c.335 0 .567.253.567.577zm-1.03 6.523v-5.091h.926v5.091h-.926zM-30.28-38.344c0-.536-.021-.956-.042-1.375h.811l.042.831h.029c.286-.486.757-.936 1.609-.936.686 0 1.211.42 1.43 1.017h.021c.157-.292.371-.502.581-.66.302-.233.63-.357 1.114-.357.683 0 1.685.44 1.685 2.207v2.987h-.906v-2.871c0-.992-.368-1.57-1.104-1.57-.539 0-.936.389-1.104.832a1.574 1.574 0 0 0-.076.463v3.145h-.902v-3.05c0-.811-.358-1.389-1.063-1.389-.569 0-.999.463-1.146.926a1.254 1.254 0 0 0-.073.452v3.061h-.905v-3.713zM-20.988-37.008c.023 1.252.81 1.767 1.746 1.767.663 0 1.073-.116 1.409-.263l.17.663c-.328.147-.897.325-1.705.325-1.568 0-2.505-1.041-2.505-2.577 0-1.532.906-2.731 2.388-2.731 1.674 0 2.104 1.451 2.104 2.388 0 .187-.01.326-.032.431l-3.575-.003zm2.715-.663c.01-.579-.242-1.494-1.283-1.494-.946 0-1.346.854-1.42 1.494h2.703zM-16.441-38.879c0-.389.262-.662.621-.662.378 0 .621.273.621.662 0 .368-.242.652-.63.652-.36.001-.612-.284-.612-.652zm0 3.714c0-.39.262-.664.621-.664.378 0 .621.273.621.664 0 .368-.242.649-.63.649-.36.001-.612-.281-.612-.649zM-7.562-38.122c0 2.322-.872 3.605-2.375 3.605-1.336 0-2.253-1.251-2.272-3.513 0-2.304.999-3.553 2.388-3.553 1.428.001 2.259 1.284 2.259 3.461zm-3.712.106c0 1.778.544 2.785 1.389 2.785.936 0 1.386-1.104 1.386-2.851 0-1.683-.42-2.785-1.386-2.785-.801.001-1.389.989-1.389 2.851zM-2.814-40.814a3.251 3.251 0 0 0-.694.052c-1.464.232-2.22 1.281-2.377 2.417h.021c.326-.44.907-.8 1.663-.8 1.211 0 2.062.885 2.062 2.207 0 1.265-.852 2.419-2.282 2.419-1.452 0-2.408-1.136-2.408-2.914 0-1.347.473-2.411 1.157-3.084.569-.556 1.323-.904 2.187-1.01.273-.042.506-.053.673-.053l-.002.766zm-.264 3.944c0-.979-.558-1.57-1.41-1.57-.558 0-1.084.338-1.335.845a.863.863 0 0 0-.095.397c.01 1.125.536 1.967 1.514 1.967.79.001 1.326-.661 1.326-1.639zM-1.235-38.879c0-.389.265-.662.621-.662.38 0 .621.273.621.662 0 .368-.239.652-.631.652-.358.001-.611-.284-.611-.652zm0 3.714c0-.39.265-.664.621-.664.38 0 .621.273.621.664 0 .368-.239.649-.631.649-.358.001-.611-.281-.611-.649zM5.414-38.122c0 2.322-.874 3.605-2.376 3.605-1.337 0-2.253-1.251-2.272-3.513 0-2.304.999-3.553 2.388-3.553 1.429.001 2.26 1.284 2.26 3.461zm-3.713.106c0 1.778.547 2.785 1.389 2.785.936 0 1.389-1.104 1.389-2.851 0-1.683-.42-2.785-1.389-2.785-.8.001-1.389.989-1.389 2.851zM10.813-38.122c0 2.322-.874 3.605-2.377 3.605-1.336 0-2.25-1.251-2.272-3.513 0-2.304.999-3.553 2.388-3.553 1.43.001 2.261 1.284 2.261 3.461zm-3.713.106c0 1.778.547 2.785 1.389 2.785.936 0 1.389-1.104 1.389-2.851 0-1.683-.42-2.785-1.389-2.785-.8.001-1.389.989-1.389 2.851zM15.897-40.604h-.023l-1.186.642-.181-.705 1.494-.8h.789v6.838h-.893v-5.975zM23.841-38.122c0 2.322-.874 3.605-2.377 3.605-1.336 0-2.25-1.251-2.272-3.513 0-2.304 1.001-3.553 2.388-3.553 1.43.001 2.261 1.284 2.261 3.461zm-3.714.106c0 1.778.547 2.785 1.389 2.785.936 0 1.389-1.104 1.389-2.851 0-1.683-.42-2.785-1.389-2.785-.798.001-1.389.989-1.389 2.851zM24.769-38.879c0-.389.263-.662.621-.662.378 0 .621.273.621.662 0 .368-.242.652-.63.652-.359.001-.612-.284-.612-.652zm0 3.714c0-.39.263-.664.621-.664.378 0 .621.273.621.664 0 .368-.242.649-.63.649-.359.001-.612-.281-.612-.649zM31.417-38.122c0 2.322-.874 3.605-2.377 3.605-1.334 0-2.25-1.251-2.27-3.513 0-2.304.999-3.553 2.388-3.553 1.429.001 2.259 1.284 2.259 3.461zm-3.713.106c0 1.778.544 2.785 1.387 2.785.936 0 1.389-1.104 1.389-2.851 0-1.683-.42-2.785-1.389-2.785-.797.001-1.387.989-1.387 2.851zM36.816-38.122c0 2.322-.872 3.605-2.375 3.605-1.336 0-2.253-1.251-2.272-3.513 0-2.304.999-3.553 2.388-3.553 1.429.001 2.259 1.284 2.259 3.461zm-3.713.106c0 1.778.544 2.785 1.389 2.785.936 0 1.386-1.104 1.386-2.851 0-1.683-.42-2.785-1.386-2.785-.799.001-1.389.989-1.389 2.851z"/><g><path d="M-37.815-28.986c.4-.095 1.042-.158 1.672-.158.917 0 1.504.158 1.936.517.371.273.601.694.601 1.251 0 .694-.463 1.293-1.199 1.557v.029c.673.161 1.461.715 1.461 1.77 0 .607-.243 1.082-.611 1.42-.484.452-1.281.662-2.44.662-.631 0-1.114-.042-1.419-.083v-6.965zm.915 2.903h.831c.956 0 1.525-.515 1.525-1.198 0-.821-.621-1.161-1.547-1.161-.42 0-.664.032-.808.066l-.001 2.293zm0 3.386c.187.032.44.042.766.042.949 0 1.819-.346 1.819-1.378 0-.957-.831-1.367-1.83-1.367h-.755v2.703zM-32.142-29.471h.926v7.468h-.926v-7.468zM-25.052-24.589c0 1.882-1.314 2.702-2.536 2.702-1.367 0-2.44-1.011-2.44-2.619 0-1.691 1.125-2.692 2.525-2.692 1.463-.001 2.451 1.063 2.451 2.609zm-4.028.053c0 1.114.633 1.954 1.536 1.954.883 0 1.547-.831 1.547-1.977 0-.86-.434-1.944-1.527-1.944-1.084-.001-1.556 1.008-1.556 1.967zM-19.273-24.589c0 1.882-1.316 2.702-2.535 2.702-1.37 0-2.44-1.011-2.44-2.619 0-1.691 1.123-2.692 2.522-2.692 1.463-.001 2.453 1.063 2.453 2.609zm-4.029.053c0 1.114.63 1.954 1.533 1.954.884 0 1.547-.831 1.547-1.977 0-.86-.431-1.944-1.525-1.944-1.083-.001-1.555 1.008-1.555 1.967zM-13.718-29.471v6.153c0 .452.021.967.04 1.314h-.818l-.042-.883h-.032c-.273.567-.883 1.001-1.714 1.001-1.231 0-2.188-1.042-2.188-2.587-.01-1.694 1.051-2.725 2.282-2.725.789 0 1.304.368 1.536.768h.021v-3.04l.915-.001zm-.915 4.45c0-.117-.01-.273-.042-.388a1.362 1.362 0 0 0-1.337-1.063c-.956 0-1.525.845-1.525 1.957 0 1.03.515 1.883 1.503 1.883.621 0 1.19-.421 1.357-1.104a1.59 1.59 0 0 0 .042-.4l.002-.885zM-9.937-25.432c0-.65-.023-1.175-.042-1.663h.82l.052.874h.021c.368-.621.978-.979 1.809-.979 1.242 0 2.167 1.042 2.167 2.577 0 1.83-1.125 2.734-2.324 2.734-.673 0-1.264-.294-1.566-.802h-.022v2.77h-.913l-.002-5.511zm.914 1.359a1.427 1.427 0 0 0 1.432 1.462c.979 0 1.547-.802 1.547-1.967 0-1.011-.538-1.885-1.517-1.885-.63 0-1.229.441-1.398 1.136-.029.118-.063.251-.063.368v.886h-.001zM-3.949-25.505c0-.599-.011-1.115-.042-1.588h.811l.042 1.011h.029c.233-.683.802-1.115 1.422-1.115.095 0 .167.01.252.023v.874c-.095-.024-.189-.024-.318-.024-.65 0-1.114.483-1.239 1.178a2.556 2.556 0 0 0-.032.432v2.716h-.926l.001-3.507zM-.098-24.379c.023 1.251.81 1.767 1.746 1.767.663 0 1.073-.116 1.409-.263l.168.66c-.326.147-.895.328-1.703.328-1.568 0-2.505-1.041-2.505-2.577 0-1.535.906-2.734 2.388-2.734 1.674 0 2.104 1.451 2.104 2.388 0 .189-.01.328-.032.434l-3.575-.003zm2.714-.663c.01-.578-.242-1.493-1.283-1.493-.947 0-1.346.854-1.42 1.493h2.703zM4.533-22.939c.283.17.768.357 1.229.357.662 0 .978-.326.978-.755 0-.442-.262-.673-.936-.926-.926-.338-1.356-.831-1.356-1.441 0-.82.673-1.494 1.757-1.494.515 0 .967.136 1.242.316l-.221.673a1.98 1.98 0 0 0-1.042-.306c-.547 0-.843.318-.843.697 0 .42.295.61.96.873.873.327 1.335.768 1.335 1.525 0 .908-.705 1.536-1.893 1.536-.558 0-1.073-.147-1.43-.357l.22-.698zM8.7-22.939c.286.17.768.357 1.231.357.662 0 .978-.326.978-.755 0-.442-.262-.673-.936-.926-.926-.338-1.358-.831-1.358-1.441 0-.82.673-1.494 1.757-1.494.515 0 .968.136 1.242.316l-.221.673a1.98 1.98 0 0 0-1.042-.306c-.547 0-.841.318-.841.697 0 .42.293.61.958.873.874.327 1.335.768 1.335 1.525 0 .908-.705 1.536-1.893 1.536-.555 0-1.071-.147-1.429-.357l.219-.698zM17.253-23.399c0 .536.011.999.042 1.396h-.821l-.052-.831h-.021a1.904 1.904 0 0 1-1.686.949c-.799 0-1.757-.452-1.757-2.23v-2.979h.926v2.81c0 .967.305 1.632 1.136 1.632.621 0 1.051-.432 1.22-.854.052-.126.083-.292.083-.473v-3.114h.926l.004 3.694zM18.793-25.505c0-.599-.01-1.115-.042-1.588h.811l.04 1.011h.032c.231-.683.799-1.115 1.419-1.115.095 0 .17.01.252.023v.874c-.095-.024-.187-.024-.314-.024-.65 0-1.114.483-1.242 1.178a2.796 2.796 0 0 0-.029.432v2.716h-.926v-3.507zM22.644-24.379c.021 1.251.81 1.767 1.746 1.767.661 0 1.07-.116 1.409-.263l.168.66c-.326.147-.895.328-1.705.328-1.566 0-2.503-1.041-2.503-2.577 0-1.535.904-2.734 2.388-2.734 1.672 0 2.104 1.451 2.104 2.388 0 .189-.012.328-.032.434l-3.575-.003zm2.713-.663c.012-.578-.24-1.493-1.281-1.493-.949 0-1.347.854-1.423 1.493h2.704zM27.191-26.251c0-.389.262-.662.621-.662.378 0 .621.273.621.662 0 .368-.242.65-.633.65-.357.001-.609-.282-.609-.65zm0 3.712c0-.388.262-.664.621-.664.378 0 .621.276.621.664 0 .368-.242.651-.633.651-.357.002-.609-.283-.609-.651zM33.525-27.978h-.023l-1.186.644-.181-.705 1.493-.8h.789v6.835h-.893v-5.975h.001zM38.923-27.978h-.021l-1.188.644-.181-.705 1.493-.8h.789v6.835h-.894v-5.975h.002zM46.867-25.495c0 2.325-.874 3.608-2.376 3.608-1.334 0-2.25-1.252-2.27-3.513 0-2.304.999-3.555 2.388-3.555 1.427-.001 2.258 1.282 2.258 3.46zm-3.712.106c0 1.777.544 2.787 1.386 2.787.936 0 1.389-1.104 1.389-2.851 0-1.685-.421-2.787-1.389-2.787-.797 0-1.386.989-1.386 2.851zM47.227-21.593l2.926-7.626h.726l-2.945 7.626h-.707zM55.76-28.839v.608l-2.979 6.227h-.957l2.966-6.045v-.023h-3.344v-.766l4.314-.001zM61.274-25.495c0 2.325-.874 3.608-2.377 3.608-1.334 0-2.25-1.252-2.272-3.513 0-2.304 1.001-3.555 2.39-3.555 1.427-.001 2.259 1.282 2.259 3.46zm-3.713.106c0 1.777.544 2.787 1.387 2.787.936 0 1.389-1.104 1.389-2.851 0-1.685-.42-2.787-1.389-2.787-.797 0-1.387.989-1.387 2.851zM68.589-27.978h-.021l-1.188.644-.181-.705 1.493-.8h.789v6.835h-.893v-5.975h.001zM72.2-23.055c.262.158.86.422 1.514.422 1.179 0 1.556-.748 1.547-1.323-.011-.96-.874-1.37-1.767-1.37h-.515v-.695h.515c.673 0 1.525-.347 1.525-1.157 0-.546-.345-1.03-1.198-1.03-.546 0-1.073.239-1.367.45l-.253-.671c.368-.265 1.062-.528 1.798-.528 1.347 0 1.954.802 1.954 1.633 0 .716-.431 1.315-1.261 1.62v.021c.841.16 1.514.792 1.525 1.746 0 1.095-.86 2.051-2.492 2.051-.766 0-1.438-.242-1.778-.463l.253-.706zM81.932-25.495c0 2.325-.874 3.608-2.377 3.608-1.336 0-2.253-1.252-2.272-3.513 0-2.304.999-3.555 2.388-3.555 1.43-.001 2.261 1.282 2.261 3.46zm-3.713.106c0 1.777.544 2.787 1.389 2.787.936 0 1.389-1.104 1.389-2.851 0-1.685-.423-2.787-1.389-2.787-.8 0-1.389.989-1.389 2.851zM82.293-21.593l2.923-7.626h.726l-2.945 7.626h-.704zM87.648-25.6c-.768-.358-1.094-.948-1.094-1.536 0-1.082.913-1.82 2.125-1.82 1.323 0 1.997.82 1.997 1.685 0 .579-.293 1.21-1.136 1.599v.029c.854.338 1.378.949 1.378 1.767 0 1.202-1.021 1.991-2.325 1.991-1.431 0-2.293-.841-2.293-1.841 0-.859.515-1.48 1.356-1.839l-.008-.035zm2.335 1.819c0-.82-.578-1.231-1.504-1.494-.801.233-1.231.768-1.231 1.422-.029.684.495 1.294 1.367 1.294.831 0 1.368-.516 1.368-1.222zm-2.545-3.418c-.01.683.516 1.054 1.304 1.265.589-.201 1.041-.621 1.041-1.242 0-.547-.325-1.116-1.157-1.116-.768-.001-1.188.505-1.188 1.093zM96.338-25.495c0 2.325-.871 3.608-2.374 3.608-1.337 0-2.253-1.252-2.272-3.513 0-2.304.999-3.555 2.388-3.555 1.427-.001 2.258 1.282 2.258 3.46zm-3.712.106c0 1.777.544 2.787 1.389 2.787.936 0 1.387-1.104 1.387-2.851 0-1.685-.42-2.787-1.387-2.787-.801 0-1.389.989-1.389 2.851z"/></g><g><path d="M-37.815-16.377c.44-.074 1.021-.137 1.757-.137.904 0 1.566.211 1.988.592.378.336.621.852.621 1.481 0 .644-.189 1.146-.544 1.516-.494.513-1.273.779-2.167.779-.276 0-.526-.014-.736-.066v2.84h-.918v-7.005zm.915 3.418c.198.053.45.074.754.074 1.104 0 1.778-.544 1.778-1.504 0-.947-.673-1.399-1.672-1.399-.4 0-.703.032-.86.076v2.753zM-28.146-10.772c0 .536.014.999.043 1.399h-.822l-.052-.832h-.021a1.903 1.903 0 0 1-1.686.947c-.799 0-1.754-.45-1.754-2.23v-2.977h.923v2.81c0 .967.305 1.632 1.136 1.632.621 0 1.054-.434 1.22-.854.052-.126.083-.294.083-.473v-3.115h.926l.004 3.693zM-26.608-16.841h.926v7.468h-.926v-7.468zM-24.249-10.309c.283.168.766.357 1.229.357.662 0 .978-.326.978-.757 0-.44-.262-.673-.936-.926-.926-.336-1.356-.831-1.356-1.438 0-.82.673-1.494 1.757-1.494.515 0 .964.136 1.242.316l-.224.673a1.965 1.965 0 0 0-1.042-.306c-.544 0-.841.316-.841.696 0 .421.295.609.96.871.87.33 1.333.768 1.333 1.527 0 .905-.702 1.534-1.892 1.534-.558 0-1.073-.145-1.43-.357l.222-.696zM-19.441-11.75c.023 1.251.81 1.767 1.746 1.767.663 0 1.073-.115 1.409-.262l.168.662c-.326.147-.895.326-1.703.326-1.568 0-2.505-1.042-2.505-2.575 0-1.535.906-2.734 2.388-2.734 1.674 0 2.104 1.451 2.104 2.388 0 .19-.01.326-.032.432l-3.575-.004zm2.715-.663c.01-.578-.242-1.491-1.283-1.491-.947 0-1.346.852-1.423 1.491h2.706zM-14.894-13.622c0-.388.262-.662.621-.662.378 0 .621.276.621.662 0 .368-.242.652-.631.652-.358.001-.611-.284-.611-.652zm0 3.714c0-.39.262-.663.621-.663.378 0 .621.273.621.663 0 .369-.242.649-.631.649-.358.001-.611-.28-.611-.649zM-6.131-16.211v.611l-2.977 6.227h-.958l2.966-6.048v-.022h-3.344v-.768h4.313zM-.616-12.864c0 2.324-.871 3.605-2.374 3.605-1.337 0-2.253-1.251-2.272-3.51 0-2.306.999-3.556 2.388-3.556 1.426 0 2.258 1.283 2.258 3.461zm-3.712.105c0 1.778.544 2.788 1.389 2.788.936 0 1.387-1.107 1.387-2.851 0-1.686-.42-2.788-1.387-2.788-.801.001-1.389.99-1.389 2.851zM-.255-8.961l2.926-7.626h.726L.45-8.961h-.705zM4.133-13.087c0-.536-.021-.956-.042-1.375h.811l.042.832h.029c.286-.484.757-.936 1.609-.936.683 0 1.211.42 1.43 1.02h.021c.157-.294.368-.504.578-.662.305-.233.633-.357 1.116-.357.683 0 1.683.44 1.683 2.207v2.987h-.904v-2.872c0-.989-.368-1.57-1.104-1.57-.539 0-.936.389-1.106.831a1.5 1.5 0 0 0-.076.462v3.145h-.906v-3.05c0-.808-.358-1.389-1.062-1.389-.569 0-.999.463-1.146.926a1.258 1.258 0 0 0-.075.452v3.061h-.905l.007-3.712zM13.94-15.895c0 .316-.22.569-.588.569-.338 0-.558-.253-.558-.569s.231-.578.579-.578c.336 0 .567.253.567.578zm-1.031 6.522v-5.092h.926v5.092h-.926zM15.372-13.087c0-.536-.01-.956-.042-1.375h.82l.052.842h.021c.253-.474.841-.947 1.686-.947.702 0 1.797.42 1.797 2.167v3.029h-.926v-2.933c0-.82-.303-1.505-1.176-1.505-.6 0-1.073.433-1.242.948a1.328 1.328 0 0 0-.063.431v3.061h-.926v-3.718h-.001zM23.685-10.023c.201.022.432 0 .746-.032.539-.073 1.044-.285 1.432-.662.452-.411.778-1.01.906-1.809h-.031c-.379.463-.926.725-1.62.725-1.22 0-2.008-.924-2.008-2.092 0-1.294.936-2.43 2.334-2.43 1.4 0 2.261 1.125 2.261 2.893 0 1.494-.505 2.546-1.178 3.195-.525.515-1.252.831-1.988.915-.338.054-.633.063-.854.054v-.757zm.337-3.924c0 .852.515 1.451 1.314 1.451.621 0 1.104-.305 1.347-.716a.649.649 0 0 0 .085-.346c0-1.167-.434-2.06-1.412-2.06-.777-.002-1.334.693-1.334 1.671zM33.102-12.864c0 2.324-.874 3.605-2.377 3.605-1.336 0-2.253-1.251-2.272-3.51 0-2.306.999-3.556 2.388-3.556 1.43 0 2.261 1.283 2.261 3.461zm-3.713.105c0 1.778.546 2.788 1.389 2.788.936 0 1.389-1.107 1.389-2.851 0-1.686-.421-2.788-1.389-2.788-.8.001-1.389.99-1.389 2.851zM33.463-8.961l2.923-7.626h.726l-2.945 7.626h-.704zM37.85-13.087c0-.536-.021-.956-.041-1.375h.808l.042.832h.032c.283-.484.755-.936 1.609-.936.683 0 1.209.42 1.428 1.02h.023c.157-.294.368-.504.579-.662.305-.233.63-.357 1.114-.357.683 0 1.686.44 1.686 2.207v2.987h-.907v-2.872c0-.989-.368-1.57-1.104-1.57-.536 0-.936.389-1.104.831a1.574 1.574 0 0 0-.076.463v3.145h-.904v-3.05c0-.808-.357-1.389-1.063-1.389-.569 0-.999.463-1.146.926a1.258 1.258 0 0 0-.073.452v3.061h-.904l.001-3.713zM47.657-15.895c0 .316-.22.569-.588.569-.336 0-.558-.253-.558-.569s.233-.578.581-.578c.334 0 .565.253.565.578zm-1.029 6.522v-5.092h.923v5.092h-.923zM49.09-13.087c0-.536-.011-.956-.042-1.375h.82l.052.842h.023c.25-.474.841-.947 1.683-.947.705 0 1.8.42 1.8 2.167v3.029H52.5v-2.933c0-.82-.305-1.505-1.179-1.505-.598 0-1.073.433-1.242.948a1.328 1.328 0 0 0-.063.431v3.061h-.926v-3.718z"/></g><g><path d="M-36.469-3.055h-2.157v-.778h5.248v.778h-2.164v6.311h-.927v-6.311zM-32.847.879c.021 1.251.808 1.767 1.744 1.767.664 0 1.073-.115 1.412-.263l.167.663c-.328.145-.894.326-1.705.326-1.566 0-2.503-1.042-2.503-2.578 0-1.532.904-2.734 2.388-2.734 1.672 0 2.101 1.451 2.101 2.39 0 .187-.01.326-.029.431l-3.575-.002zm2.713-.663c.01-.579-.242-1.494-1.283-1.494-.946 0-1.346.854-1.42 1.494h2.703zM-28.092-.459c0-.536-.021-.957-.04-1.378h.808l.042.831h.032c.283-.484.754-.936 1.609-.936.683 0 1.209.423 1.428 1.02h.023c.157-.294.368-.504.579-.663.305-.231.63-.357 1.114-.357.685 0 1.685.441 1.685 2.209v2.987h-.906V.381c0-.989-.368-1.567-1.104-1.567-.536 0-.936.388-1.104.831a1.574 1.574 0 0 0-.077.463v3.145h-.904V.203c0-.81-.357-1.389-1.063-1.389-.568 0-.999.463-1.146.926-.05.129-.071.298-.071.456v3.061h-.905V-.459zM-19.313-.174c0-.652-.023-1.177-.042-1.665h.82l.052.874h.021c.368-.621.978-.978 1.809-.978 1.242 0 2.167 1.044 2.167 2.577 0 1.83-1.125 2.734-2.324 2.734-.673 0-1.261-.294-1.566-.802h-.023v2.77h-.913v-5.51zm.913 1.358a1.428 1.428 0 0 0 1.431 1.462c.978 0 1.545-.802 1.545-1.967 0-1.011-.538-1.882-1.514-1.882-.633 0-1.23.44-1.398 1.136a1.451 1.451 0 0 0-.065.368l.001.883zM-13.537-.993c0-.389.263-.663.621-.663.378 0 .621.273.621.663 0 .368-.242.65-.631.65-.358.001-.611-.282-.611-.65zm0 3.712c0-.388.263-.661.621-.661.378 0 .621.273.621.661 0 .368-.242.651-.631.651-.358.001-.611-.283-.611-.651zM-8.99 2.202c.262.158.86.424 1.514.424 1.179 0 1.557-.75 1.547-1.326C-5.94.34-6.803-.067-7.696-.067h-.515v-.697h.515c.673 0 1.525-.346 1.525-1.157 0-.547-.345-1.03-1.198-1.03-.545 0-1.073.242-1.367.452l-.253-.673c.369-.263 1.062-.526 1.799-.526 1.347 0 1.954.8 1.954 1.631 0 .716-.432 1.314-1.261 1.62v.023c.841.158 1.514.79 1.525 1.744 0 1.095-.86 2.051-2.492 2.051-.766 0-1.439-.242-1.778-.463l.252-.706zM.626-3.582v.611L-2.35 3.256h-.96l2.969-6.047v-.022h-3.345v-.768H.626zM6.435-2.593c0 .852-.683 1.409-1.41 1.409-.82 0-1.375-.621-1.375-1.357 0-.81.621-1.422 1.41-1.422.86.002 1.375.653 1.375 1.37zm-2.219.053c0 .485.345.863.818.863.486 0 .831-.389.831-.907 0-.388-.23-.883-.841-.883-.534 0-.808.473-.808.927zM12.433 3.033c-.326.171-1.01.338-1.873.338-1.999 0-3.492-1.263-3.492-3.597 0-2.229 1.504-3.724 3.703-3.724.874 0 1.441.187 1.683.316l-.23.748c-.337-.169-.83-.293-1.419-.293-1.661 0-2.768 1.062-2.768 2.925 0 1.746 1.001 2.851 2.716 2.851.567 0 1.136-.117 1.503-.295l.177.731zM15.719 2.202c.265.158.863.424 1.517.424 1.176 0 1.557-.75 1.544-1.326-.011-.96-.871-1.367-1.767-1.367h-.516v-.697h.516c.673 0 1.527-.346 1.527-1.157 0-.547-.348-1.03-1.198-1.03-.548 0-1.073.242-1.37.452l-.252-.673c.371-.263 1.063-.526 1.798-.526 1.346 0 1.956.8 1.956 1.631 0 .716-.431 1.314-1.261 1.62v.023c.841.158 1.514.79 1.525 1.744 0 1.095-.862 2.051-2.492 2.051-.768 0-1.441-.242-1.777-.463l.25-.706zM25.335-3.582v.611l-2.979 6.226h-.957l2.966-6.047v-.022h-3.344v-.768h4.314zM26.369 2.708c0-.379.262-.662.63-.662s.621.276.621.662c0 .379-.253.662-.642.662-.356.001-.609-.283-.609-.662zM30.482-2.72h-.021l-1.188.644-.181-.705 1.495-.8h.789v6.838h-.893V-2.72zM38.722-2.593c0 .852-.683 1.409-1.409 1.409-.82 0-1.378-.621-1.378-1.357 0-.81.621-1.422 1.412-1.422.86.002 1.375.653 1.375 1.37zm-2.22.053c0 .485.347.863.82.863.484 0 .832-.389.832-.907 0-.388-.231-.883-.841-.883-.536 0-.811.473-.811.927zM44.72 3.033c-.326.171-1.011.338-1.873.338-1.999 0-3.495-1.263-3.495-3.597 0-2.229 1.504-3.724 3.705-3.724.874 0 1.441.187 1.683.316l-.23.748c-.337-.169-.83-.293-1.421-.293-1.661 0-2.766 1.062-2.766 2.925 0 1.746.999 2.851 2.713 2.851.568 0 1.136-.117 1.503-.295l.181.731z"/></g><g><path d="M-36.258 15.883l-2.325-7.086h.999l1.105 3.492c.293.957.556 1.819.756 2.65h.022c.197-.82.483-1.715.808-2.641l1.198-3.5h.979l-2.535 7.086-1.007-.001zM-27.714 13.296c0 1.885-1.317 2.703-2.536 2.703-1.37 0-2.44-1.01-2.44-2.618 0-1.694 1.123-2.692 2.522-2.692 1.466-.002 2.454 1.063 2.454 2.607zm-4.029.052c0 1.116.631 1.957 1.536 1.957.883 0 1.544-.831 1.544-1.977 0-.863-.432-1.947-1.525-1.947-1.082 0-1.555 1.011-1.555 1.967zM-26.545 8.415h.926v7.468h-.926V8.415zM-19.801 14.485c0 .538.013 1.001.042 1.398h-.821l-.052-.831h-.021a1.901 1.901 0 0 1-1.685.947c-.8 0-1.755-.45-1.755-2.23v-2.977h.924v2.81c0 .967.305 1.632 1.136 1.632.621 0 1.054-.434 1.22-.854.052-.126.083-.292.083-.473v-3.115h.926l.003 3.693zM-18.262 12.171c0-.539-.021-.959-.042-1.378h.811l.042.831h.029c.286-.483.757-.936 1.609-.936.683 0 1.211.42 1.43 1.02h.022c.157-.294.368-.504.578-.663.305-.233.633-.357 1.116-.357.683 0 1.683.441 1.683 2.209v2.984h-.904V13.01c0-.989-.368-1.567-1.104-1.567-.539 0-.936.388-1.106.831-.04.134-.074.292-.074.463v3.142h-.906v-3.05c0-.808-.355-1.387-1.062-1.387-.569 0-.999.463-1.146.923a1.258 1.258 0 0 0-.075.452v3.061h-.904l.003-3.707zM-8.97 13.507c.023 1.254.81 1.767 1.746 1.767.663 0 1.073-.115 1.409-.262l.168.662c-.326.147-.895.326-1.705.326-1.566 0-2.503-1.042-2.503-2.575 0-1.535.906-2.734 2.388-2.734 1.672 0 2.104 1.451 2.104 2.388 0 .189-.01.326-.032.432l-3.575-.004zm2.714-.663c.01-.581-.242-1.493-1.283-1.493-.947 0-1.346.852-1.423 1.493h2.706zM-4.422 11.634c0-.388.263-.66.621-.66.378 0 .621.273.621.66 0 .368-.242.652-.631.652-.36.002-.611-.284-.611-.652zm0 3.714c0-.39.263-.663.621-.663.378 0 .621.273.621.663 0 .368-.242.649-.631.649-.36.002-.611-.28-.611-.649zM1.911 9.91H1.89l-1.188.642-.181-.703 1.493-.802h.789v6.837H1.91V9.91h.001zM9.739 9.046v.611l-2.976 6.226h-.96l2.966-6.045v-.024H5.426v-.768h4.313zM14.781 9.824h-2.607l-.263 1.757c.158-.022.305-.029.558-.029.536 0 1.051.104 1.472.368.536.292.978.893.978 1.744 0 1.335-1.062 2.334-2.544 2.334-.746 0-1.367-.21-1.705-.42l.233-.703c.283.169.841.379 1.473.379.863 0 1.62-.569 1.609-1.482 0-.885-.601-1.504-1.958-1.504-.398 0-.702.03-.956.064l.44-3.285h3.271v.777zM18.624 12.171c0-.539-.021-.959-.04-1.378h.808l.042.831h.032c.283-.483.754-.936 1.609-.936.683 0 1.209.42 1.428 1.02h.023c.157-.294.368-.504.579-.663.305-.233.63-.357 1.114-.357.685 0 1.685.441 1.685 2.209v2.984h-.906V13.01c0-.989-.368-1.567-1.104-1.567-.536 0-.936.388-1.104.831a1.551 1.551 0 0 0-.077.463v3.142h-.903v-3.05c0-.808-.358-1.387-1.063-1.387-.569 0-.999.463-1.146.923a1.258 1.258 0 0 0-.073.452v3.061h-.904v-3.707zM27.401 8.415h.926v7.468h-.926V8.415zM33.83 9.91h-.023l-1.188.642-.179-.703 1.495-.802h.789v6.837h-.894V9.91zM41.301 9.824h-2.607l-.263 1.757c.158-.022.303-.029.555-.029.539 0 1.054.104 1.474.368.536.292.978.893.978 1.744 0 1.335-1.063 2.334-2.547 2.334-.746 0-1.367-.21-1.702-.42l.231-.703c.283.169.841.379 1.473.379.863 0 1.622-.569 1.609-1.482 0-.885-.598-1.504-1.956-1.504-.399 0-.705.03-.958.064l.442-3.285h3.271v.777zM47.172 12.392c0 2.324-.874 3.605-2.377 3.605-1.334 0-2.25-1.251-2.272-3.51 0-2.306 1.001-3.556 2.39-3.556 1.428-.001 2.259 1.284 2.259 3.461zm-3.712.106c0 1.778.544 2.788 1.387 2.788.936 0 1.389-1.107 1.389-2.851 0-1.686-.42-2.788-1.389-2.788-.798 0-1.387.989-1.387 2.851zM50.542 12.171c0-.539-.021-.959-.042-1.378h.81l.043.831h.029c.286-.483.757-.936 1.609-.936.686 0 1.211.42 1.43 1.02h.021c.157-.294.368-.504.581-.663.303-.233.631-.357 1.114-.357.683 0 1.684.441 1.684 2.209v2.984h-.905V13.01c0-.989-.368-1.567-1.104-1.567-.538 0-.936.388-1.106.831-.04.134-.074.292-.074.463v3.142h-.904v-3.05c0-.808-.357-1.387-1.063-1.387-.569 0-.999.463-1.146.923a1.258 1.258 0 0 0-.073.452v3.061h-.906l.002-3.707zM59.319 8.415h.926v7.468h-.926V8.415z"/></g><g><path d="M-37.815 21.509a10.34 10.34 0 0 1 1.757-.137c.904 0 1.566.211 1.988.589.378.338.621.854.621 1.484 0 .642-.189 1.146-.544 1.514-.494.515-1.273.779-2.167.779-.276 0-.526-.011-.736-.063v2.84h-.918v-7.006zm.915 3.418c.198.053.45.074.754.074 1.104 0 1.778-.544 1.778-1.504 0-.947-.673-1.399-1.672-1.399-.4 0-.703.032-.86.076v2.753zM-32.416 25.01c0-.597-.011-1.114-.043-1.586h.811l.042 1.01h.029c.233-.683.802-1.114 1.422-1.114.092 0 .167.01.25.021v.874c-.092-.024-.187-.024-.316-.024-.65 0-1.114.486-1.242 1.179a2.84 2.84 0 0 0-.029.434v2.713h-.924V25.01zM-24.473 25.927c0 1.882-1.314 2.703-2.536 2.703-1.367 0-2.44-1.01-2.44-2.618 0-1.694 1.125-2.693 2.525-2.693 1.462 0 2.451 1.06 2.451 2.608zm-4.028.053c0 1.114.63 1.956 1.533 1.956.884 0 1.547-.831 1.547-1.977 0-.863-.431-1.947-1.525-1.947-1.082 0-1.555 1.011-1.555 1.968zM-22.188 22.202v1.22h1.326v.703h-1.326v2.746c0 .631.181.988.696.988.252 0 .397-.021.536-.063l.042.705a2.54 2.54 0 0 1-.821.126c-.43 0-.778-.147-.999-.388-.252-.286-.358-.739-.358-1.335v-2.778h-.789v-.702h.789v-.949l.904-.273zM-19.367 26.137c.021 1.252.808 1.767 1.744 1.767.664 0 1.073-.116 1.412-.263l.168.663c-.326.147-.895.326-1.705.326-1.566 0-2.503-1.042-2.503-2.578 0-1.532.904-2.731 2.388-2.731 1.672 0 2.101 1.451 2.101 2.388a2.4 2.4 0 0 1-.029.431l-3.576-.003zm2.713-.664c.01-.578-.242-1.493-1.283-1.493-.946 0-1.346.854-1.42 1.493h2.703zM-13.579 21.991c0 .316-.22.569-.588.569-.338 0-.558-.253-.558-.569s.233-.578.578-.578a.556.556 0 0 1 .568.578zm-1.031 6.523v-5.091h.926v5.091h-.926zM-12.147 24.8c0-.536-.01-.957-.042-1.376h.82l.052.842h.021c.253-.474.843-.947 1.686-.947.702 0 1.8.421 1.8 2.165v3.032h-.926v-2.935c0-.82-.305-1.504-1.179-1.504-.6 0-1.073.434-1.242.949a1.334 1.334 0 0 0-.063.432v3.061h-.926V24.8zM-6.517 24.265c0-.389.262-.663.621-.663.378 0 .621.273.621.663 0 .368-.242.65-.633.65-.357.001-.609-.281-.609-.65zm0 3.714c0-.39.262-.664.621-.664.378 0 .621.273.621.664 0 .368-.242.648-.633.648-.357.002-.609-.28-.609-.648zM-1.866 28.514v-7.089h1.011l2.259 3.585c.516.832.936 1.581 1.264 2.307l.029-.01a32.78 32.78 0 0 1-.104-2.917v-2.966h.863v7.089h-.927l-2.25-3.599c-.495-.79-.967-1.597-1.317-2.365l-.029.011c.052.893.063 1.746.063 2.923v3.032l-.862-.001zM9.635 25.927c0 1.882-1.315 2.703-2.536 2.703-1.367 0-2.44-1.01-2.44-2.618 0-1.694 1.125-2.693 2.525-2.693 1.461 0 2.451 1.06 2.451 2.608zm-4.03.053c0 1.114.633 1.956 1.536 1.956.884 0 1.547-.831 1.547-1.977 0-.863-.431-1.947-1.527-1.947-1.083 0-1.556 1.011-1.556 1.968zM10.804 24.8c0-.536-.013-.957-.042-1.376h.82l.052.842h.021c.253-.474.841-.947 1.686-.947.703 0 1.797.421 1.797 2.165v3.032h-.926v-2.935c0-.82-.302-1.504-1.176-1.504-.6 0-1.073.434-1.242.949a1.331 1.331 0 0 0-.065.432v3.061h-.924V24.8h-.001zM17.161 26.137c.023 1.252.811 1.767 1.746 1.767.664 0 1.073-.116 1.41-.263l.167.663c-.326.147-.894.326-1.705.326-1.566 0-2.503-1.042-2.503-2.578 0-1.532.907-2.731 2.388-2.731 1.674 0 2.103 1.451 2.103 2.388 0 .187-.01.326-.031.431l-3.575-.003zm2.715-.664c.01-.578-.242-1.493-1.283-1.493-.947 0-1.347.854-1.423 1.493h2.706zM24.181 28.514v-7.089h1.01l2.261 3.585c.515.832.936 1.581 1.261 2.307l.032-.01c-.084-.95-.104-1.81-.104-2.917v-2.966h.86v7.089h-.926l-2.248-3.598c-.492-.79-.968-1.597-1.314-2.364l-.032.011c.052.893.062 1.746.062 2.924v3.031l-.862-.003zM35.68 25.927c0 1.882-1.314 2.703-2.533 2.703-1.37 0-2.44-1.01-2.44-2.618 0-1.694 1.123-2.693 2.522-2.693 1.463 0 2.451 1.06 2.451 2.608zm-4.027.053c0 1.114.63 1.956 1.533 1.956.884 0 1.547-.831 1.547-1.977 0-.863-.431-1.947-1.525-1.947-1.083 0-1.555 1.011-1.555 1.968zM36.851 24.8c0-.536-.011-.957-.042-1.376h.82l.052.842h.021c.253-.474.843-.947 1.686-.947.705 0 1.799.421 1.799 2.165v3.032h-.927v-2.935c0-.82-.305-1.504-1.179-1.504-.599 0-1.073.434-1.242.949a1.334 1.334 0 0 0-.063.432v3.061h-.926V24.8h.001zM43.207 26.137c.021 1.252.808 1.767 1.744 1.767.663 0 1.073-.116 1.412-.263l.168.663c-.328.147-.897.326-1.705.326-1.566 0-2.503-1.042-2.503-2.578 0-1.532.904-2.731 2.388-2.731 1.672 0 2.101 1.451 2.101 2.388 0 .187-.01.326-.029.431l-3.576-.003zm2.715-.664c.01-.578-.242-1.493-1.283-1.493-.946 0-1.346.854-1.42 1.493h2.703z"/></g><g><path d="M-37.815 34.053h.915v3.418h.029c.19-.276.378-.528.558-.757l2.167-2.661h1.136l-2.567 3.007 2.766 4.079h-1.081l-2.324-3.481-.683.777v2.704h-.916v-7.086zM-31.627 38.765c.023 1.251.811 1.767 1.746 1.767.663 0 1.073-.118 1.409-.263l.168.66c-.326.147-.895.328-1.705.328-1.566 0-2.503-1.042-2.503-2.578 0-1.535.906-2.734 2.388-2.734 1.672 0 2.104 1.451 2.104 2.388 0 .189-.01.328-.032.434l-3.575-.002zm2.714-.663c.01-.579-.242-1.494-1.283-1.494-.946 0-1.346.852-1.423 1.494h2.706zM-25.756 34.831v1.217h1.326v.705h-1.326v2.746c0 .63.181.988.696.988.253 0 .4-.023.536-.063l.042.702a2.517 2.517 0 0 1-.821.129c-.43 0-.778-.147-.999-.389-.253-.284-.358-.736-.358-1.335v-2.775h-.789v-.705h.789v-.946l.904-.274zM-18.842 38.555c0 1.882-1.317 2.703-2.536 2.703-1.367 0-2.44-1.011-2.44-2.619 0-1.694 1.125-2.693 2.525-2.693 1.462-.001 2.451 1.062 2.451 2.609zm-4.029.052c0 1.114.631 1.954 1.536 1.954.883 0 1.547-.831 1.547-1.977 0-.863-.434-1.944-1.527-1.944-1.084 0-1.556 1.009-1.556 1.967zM-17.673 37.428c0-.538-.01-.958-.04-1.378h.818l.052.842h.023c.253-.474.841-.947 1.683-.947.705 0 1.8.42 1.8 2.167v3.029h-.926V38.21c0-.82-.305-1.504-1.179-1.504-.598 0-1.07.432-1.242.947a1.39 1.39 0 0 0-.063.432v3.061h-.926v-3.718zM-11.317 38.765c.021 1.251.811 1.767 1.746 1.767.661 0 1.071-.118 1.41-.263l.167.66c-.326.147-.894.328-1.705.328-1.566 0-2.503-1.042-2.503-2.578 0-1.535.904-2.734 2.388-2.734 1.672 0 2.104 1.451 2.104 2.388 0 .189-.012.328-.032.434l-3.575-.002zm2.714-.663c.012-.579-.239-1.494-1.281-1.494-.949 0-1.346.852-1.423 1.494h2.704zM-6.686 40.205c.286.17.768.357 1.231.357.662 0 .978-.326.978-.754 0-.442-.262-.673-.936-.926-.926-.338-1.356-.832-1.356-1.441 0-.82.673-1.493 1.757-1.493.515 0 .966.136 1.242.316l-.224.673a1.98 1.98 0 0 0-1.042-.306c-.544 0-.841.317-.841.698 0 .42.295.61.958.872.874.327 1.335.766 1.335 1.525 0 .908-.703 1.536-1.892 1.536-.558 0-1.073-.147-1.431-.357l.221-.7zM-2.603 36.891c0-.388.262-.66.621-.66.378 0 .621.273.621.66 0 .371-.242.653-.631.653-.358 0-.611-.283-.611-.653zm0 3.714c0-.388.262-.663.621-.663.378 0 .621.275.621.663 0 .368-.242.651-.631.651-.358.002-.611-.283-.611-.651zM2.05 41.141v-7.087h1.009L5.32 37.64c.515.831.936 1.579 1.261 2.304l.032-.009c-.084-.948-.104-1.81-.104-2.914v-2.966h.86v7.087h-.924l-2.252-3.597c-.492-.79-.967-1.599-1.315-2.367l-.033.012c.052.893.063 1.744.063 2.924v3.029l-.858-.002zM13.55 38.555c0 1.882-1.317 2.703-2.536 2.703-1.37 0-2.44-1.011-2.44-2.619 0-1.694 1.123-2.693 2.523-2.693 1.463-.001 2.453 1.062 2.453 2.609zm-4.03.052c0 1.114.631 1.954 1.536 1.954.883 0 1.544-.831 1.544-1.977 0-.863-.432-1.944-1.525-1.944-1.082 0-1.555 1.009-1.555 1.967zM14.72 37.428c0-.538-.011-.958-.042-1.378h.82l.052.842h.023c.25-.474.841-.947 1.683-.947.705 0 1.8.42 1.8 2.167v3.029h-.926V38.21c0-.82-.305-1.504-1.179-1.504-.598 0-1.071.432-1.242.947a1.334 1.334 0 0 0-.063.432v3.061h-.926v-3.718zM21.076 38.765c.021 1.251.808 1.767 1.744 1.767.664 0 1.073-.118 1.412-.263l.168.66c-.326.147-.895.328-1.705.328-1.566 0-2.503-1.042-2.503-2.578 0-1.535.904-2.734 2.388-2.734 1.672 0 2.101 1.451 2.101 2.388 0 .189-.009.328-.029.434l-3.576-.002zm2.713-.663c.01-.579-.242-1.494-1.283-1.494-.946 0-1.346.852-1.42 1.494h2.703zM30.767 35.545v2.472h2.378v.63h-2.378v2.494h-.673v-2.494h-2.377v-.63h2.377v-2.472h.673z"/></g><g><path d="M-32.408 53.455a6.416 6.416 0 0 1-2.188.388c-1.073 0-1.957-.273-2.65-.937-.611-.589-.989-1.533-.989-2.641 0-2.11 1.462-3.657 3.838-3.657.821 0 1.473.179 1.778.326l-.231.747c-.38-.181-.854-.305-1.569-.305-1.725 0-2.851 1.07-2.851 2.851 0 1.796 1.073 2.86 2.735 2.86.6 0 1.011-.084 1.221-.188v-2.114h-1.43v-.736h2.334v3.406zM-31.048 46.302h.926v7.468h-.926v-7.468zM-24.305 52.371c0 .536.013.999.042 1.398h-.821l-.052-.831h-.021a1.898 1.898 0 0 1-1.683.947c-.802 0-1.757-.45-1.757-2.23v-2.977h.926v2.81c0 .967.303 1.629 1.134 1.629.621 0 1.054-.431 1.22-.852.052-.126.085-.294.085-.473v-3.115h.923l.004 3.694zM-19.137 53.592c-.243.116-.779.292-1.462.292-1.536 0-2.535-1.041-2.535-2.598 0-1.567 1.073-2.713 2.735-2.713.544 0 1.031.134 1.283.273l-.212.705c-.221-.118-.566-.242-1.07-.242-1.168 0-1.799.873-1.799 1.925 0 1.177.757 1.904 1.767 1.904.526 0 .874-.128 1.136-.242l.157.696zM-13.506 51.182c0 1.882-1.317 2.703-2.536 2.703-1.37 0-2.44-1.01-2.44-2.617 0-1.694 1.123-2.693 2.522-2.693 1.465 0 2.454 1.06 2.454 2.607zm-4.029.053c0 1.116.63 1.957 1.536 1.957.883 0 1.544-.831 1.544-1.977 0-.863-.431-1.947-1.525-1.947-1.083-.001-1.555 1.011-1.555 1.967zM-12.463 52.835c.283.167.768.357 1.231.357.66 0 .976-.326.976-.757 0-.44-.263-.673-.936-.926-.923-.337-1.356-.831-1.356-1.439 0-.82.673-1.493 1.757-1.493.515 0 .967.134 1.242.316l-.221.673a1.953 1.953 0 0 0-1.042-.307c-.547 0-.841.316-.841.695 0 .423.293.61.958.873.873.329 1.335.768 1.335 1.527 0 .905-.705 1.533-1.893 1.533-.558 0-1.07-.147-1.428-.357l.218-.695zM-7.654 51.393c.021 1.251.808 1.767 1.744 1.767.663 0 1.073-.115 1.409-.262l.17.662c-.328.147-.897.326-1.705.326-1.566 0-2.503-1.042-2.503-2.575 0-1.535.904-2.734 2.388-2.734 1.672 0 2.101 1.451 2.101 2.388 0 .19-.01.326-.029.432l-3.575-.004zm2.714-.664c.01-.579-.242-1.491-1.283-1.491-.946 0-1.346.852-1.42 1.491h2.703zM-3.107 49.52c0-.388.262-.662.621-.662.38 0 .621.276.621.662 0 .368-.239.652-.63.652-.361.002-.612-.284-.612-.652zm0 3.715c0-.39.262-.663.621-.663.38 0 .621.273.621.663 0 .368-.239.649-.63.649-.361.001-.612-.281-.612-.649zM1.544 53.771v-7.089h1.011l2.259 3.585c.515.834.936 1.581 1.261 2.307l.032-.01c-.084-.95-.104-1.81-.104-2.914v-2.968h.863v7.089h-.927l-2.253-3.597c-.492-.792-.966-1.599-1.314-2.367l-.028.01c.052.893.064 1.746.064 2.926v3.029l-.864-.001zM13.044 51.182c0 1.882-1.317 2.703-2.536 2.703-1.367 0-2.44-1.01-2.44-2.617 0-1.694 1.125-2.693 2.525-2.693 1.462 0 2.451 1.06 2.451 2.607zm-4.029.053c0 1.116.63 1.957 1.536 1.957.884 0 1.547-.831 1.547-1.977 0-.863-.434-1.947-1.527-1.947-1.082-.001-1.556 1.011-1.556 1.967zM14.214 50.056c0-.536-.011-.956-.04-1.375h.818l.052.842h.023c.253-.474.841-.947 1.683-.947.705 0 1.8.42 1.8 2.167v3.029h-.926v-2.934c0-.818-.305-1.504-1.179-1.504-.598 0-1.07.434-1.24.949a1.333 1.333 0 0 0-.064.432v3.061h-.926v-3.72h-.001zM20.571 51.393c.021 1.251.811 1.767 1.746 1.767.661 0 1.071-.115 1.41-.262l.167.662c-.326.147-.894.326-1.705.326-1.566 0-2.503-1.042-2.503-2.575 0-1.535.904-2.734 2.388-2.734 1.672 0 2.104 1.451 2.104 2.388 0 .19-.012.326-.032.432l-3.575-.004zm2.713-.664c.012-.579-.239-1.491-1.281-1.491-.949 0-1.346.852-1.423 1.491h2.704zM27.591 53.771v-7.089h1.011l2.261 3.585c.513.834.936 1.581 1.261 2.307l.029-.01c-.082-.95-.104-1.81-.104-2.914v-2.968h.863v7.089h-.926l-2.25-3.597c-.495-.792-.969-1.599-1.317-2.367l-.028.01c.052.893.062 1.746.062 2.926v3.029l-.862-.001zM39.09 51.182c0 1.882-1.314 2.703-2.536 2.703-1.367 0-2.44-1.01-2.44-2.617 0-1.694 1.125-2.693 2.525-2.693 1.462 0 2.451 1.06 2.451 2.607zm-4.028.053c0 1.116.63 1.957 1.533 1.957.884 0 1.547-.831 1.547-1.977 0-.863-.431-1.947-1.525-1.947-1.082-.001-1.555 1.011-1.555 1.967zM40.26 50.056c0-.536-.011-.956-.042-1.375h.82l.052.842h.021c.252-.474.841-.947 1.686-.947.702 0 1.797.42 1.797 2.167v3.029h-.924v-2.934c0-.818-.305-1.504-1.179-1.504-.6 0-1.073.434-1.242.949a1.307 1.307 0 0 0-.063.432v3.061h-.926v-3.72zM46.617 51.393c.023 1.251.81 1.767 1.746 1.767.663 0 1.073-.115 1.409-.262l.17.662c-.328.147-.897.326-1.705.326-1.568 0-2.505-1.042-2.505-2.575 0-1.535.906-2.734 2.388-2.734 1.674 0 2.104 1.451 2.104 2.388 0 .19-.01.326-.032.432l-3.575-.004zm2.714-.664c.01-.579-.242-1.491-1.283-1.491-.947 0-1.346.852-1.42 1.491h2.703z"/></g><g><path d="M-37.815 59.415c.4-.095 1.042-.158 1.672-.158.917 0 1.504.158 1.936.517.371.273.601.693.601 1.251 0 .694-.463 1.293-1.199 1.557v.031c.673.158 1.461.712 1.461 1.767a1.87 1.87 0 0 1-.611 1.42c-.484.452-1.281.662-2.44.662a10.7 10.7 0 0 1-1.419-.084v-6.963zm.915 2.903h.831c.956 0 1.525-.516 1.525-1.198 0-.821-.621-1.161-1.547-1.161-.42 0-.664.032-.808.066l-.001 2.293zm0 3.386c.187.032.44.042.766.042.949 0 1.819-.346 1.819-1.378 0-.957-.831-1.367-1.83-1.367h-.755v2.703zM-32.142 58.931h.926V66.4h-.926v-7.469zM-25.052 63.813c0 1.882-1.314 2.702-2.536 2.702-1.367 0-2.44-1.011-2.44-2.619 0-1.691 1.125-2.693 2.525-2.693 1.463-.001 2.451 1.063 2.451 2.61zm-4.028.052c0 1.114.633 1.954 1.536 1.954.883 0 1.547-.831 1.547-1.977 0-.86-.434-1.944-1.527-1.944-1.084 0-1.556 1.008-1.556 1.967zM-19.273 63.813c0 1.882-1.316 2.702-2.535 2.702-1.37 0-2.44-1.011-2.44-2.619 0-1.691 1.123-2.693 2.522-2.693 1.463-.001 2.453 1.063 2.453 2.61zm-4.029.052c0 1.114.63 1.954 1.533 1.954.884 0 1.547-.831 1.547-1.977 0-.86-.431-1.944-1.525-1.944-1.083 0-1.555 1.008-1.555 1.967zM-13.718 58.931v6.151c0 .452.021.967.04 1.317h-.818l-.042-.884h-.032c-.273.568-.883.999-1.714.999-1.231 0-2.188-1.042-2.188-2.587-.01-1.694 1.051-2.725 2.282-2.725.789 0 1.304.369 1.536.768h.021v-3.038l.915-.001zm-.915 4.449c0-.117-.01-.273-.042-.388a1.362 1.362 0 0 0-1.337-1.063c-.956 0-1.525.845-1.525 1.957 0 1.03.515 1.883 1.503 1.883.621 0 1.19-.421 1.357-1.104a1.59 1.59 0 0 0 .042-.4l.002-.885zM-12.377 62.15c0-.389.262-.662.618-.662.38 0 .621.273.621.662 0 .368-.239.65-.631.65-.358.002-.608-.282-.608-.65zm0 3.713c0-.388.262-.664.618-.664.38 0 .621.276.621.664 0 .368-.239.651-.631.651-.358.001-.608-.283-.608-.651zM-5.056 60.804v2.469h2.378v.633h-2.378V66.4h-.673v-2.494h-2.377v-.633h2.377v-2.469h.673zM3.447 60.804v2.469h2.378v.633H3.447V66.4h-.673v-2.494H.397v-.633h2.377v-2.469h.673z"/></g></svg>