<svg version="1.1" xmlns="http://www.w3.org/2000/svg" x="0" y="0" width="325.984" height="258.85" viewBox="0 0 325.984 258.85" xml:space="preserve"><path fill-rule="evenodd" clip-rule="evenodd" fill="#B0AFB0" stroke="#000" stroke-width="1" d="M139.362 174.814c-25.082-14.356-39.276-39.357-41.454-72.021-2.581-40.486 16.049-67.665 40.889-88.553 23.065 17.501 39.437 42.099 41.374 82.343-2.582 37.099-18.55 60.73-40.809 78.231z"/><path fill-rule="evenodd" clip-rule="evenodd" fill="#FFF" d="M2.338 1.821L103.553.288l104.924 148.878c5.888 11.693 5 19.275-2.742 22.905-8.951 4.758-17.581.968-25.808-11.13L119.198 77.63l15.001 28.308 53.229 77.907c11.048 10.806 11.21 20.001.564 27.663-9.033 5.483-17.26 3.79-24.68-5.081l-30.485-45.647-25.405-33.147c-3.467 19.034-12.42 26.13-29.517 15.565-3.629 8.63-10.081 13.065-22.582 8.145-14.353-14.273-23.709-32.581-30.08-53.227C12.339 69.082 5.646 36.419 2.338 1.821z"/><path fill-rule="evenodd" clip-rule="evenodd" fill="none" stroke="#000" stroke-width="1" d="M103.554.288l104.924 148.878c5.888 11.693 5 19.275-2.742 22.905-8.951 4.758-17.581.968-25.808-11.13L119.199 77.63l15.001 28.308 53.229 77.907c11.048 10.806 11.21 20.001.564 27.663-9.033 5.483-17.26 3.79-24.68-5.081l-30.485-45.647-25.405-33.147c-3.467 19.034-12.42 26.13-29.517 15.565-3.629 8.63-10.081 13.065-22.582 8.145-14.354-14.273-23.71-32.581-30.081-53.227C12.339 69.082 5.646 36.419 2.338 1.821"/><path fill-rule="evenodd" clip-rule="evenodd" fill="none" stroke="#FFF" stroke-width="1.502" d="M178.558 106.826l29.92 42.34c5.888 11.693 5 19.275-2.742 22.905-8.951 4.758-17.581.968-25.808-11.13l-12.743-17.421c6.614-11.694 10.324-23.71 11.293-36.13l.08-.564zm-14.759 42.341l23.631 34.68c11.048 10.806 11.21 20.001.564 27.663-9.033 5.483-17.26 3.79-24.68-5.081l-21.453-32.179c9.115-8.147 16.373-16.454 21.938-25.083z"/><path fill-rule="evenodd" clip-rule="evenodd" fill="none" stroke="#000" stroke-width="1" stroke-dasharray="5.0003,3.0002,1.0001,3.0002" d="M178.558 106.826l29.92 42.34c5.888 11.693 5 19.275-2.742 22.905-8.951 4.758-17.581.968-25.808-11.13l-12.743-17.421c6.614-11.694 10.324-23.71 11.293-36.13l.08-.564zm-14.759 42.341l23.631 34.68c11.048 10.806 11.21 20.001.564 27.663-9.033 5.483-17.26 3.79-24.68-5.081l-21.453-32.179c9.115-8.147 16.373-16.454 21.938-25.083z"/><path fill-rule="evenodd" clip-rule="evenodd" fill="none" stroke="#000" stroke-width="1" d="M25.566 99.89c-1.048-10.484-.081-18.629 5.403-21.049 4.678-2.096 9.436-1.209 14.114 2.42 8.387 27.985 19.194 48.873 33.146 61.615"/><path fill-rule="evenodd" clip-rule="evenodd" fill="none" stroke="#000" stroke-width="1" d="M27.985 89.083l15.324-3.952c7.178 18.227 5 24.84-1.533 26.211-5.403 3.387-10-4.032-13.791-22.259zM44.196 64.082c5.646-3.71 11.21-6.613 16.775-3.872 7.903 18.227 5.484 24.84-1.613 26.131-5.888 3.468-10.968-3.952-15.162-22.259z"/><path fill-rule="evenodd" clip-rule="evenodd" fill="none" stroke="#000" stroke-width="1" d="M44.841 80.615c-5.726-14.597-5.484-25.001 3.307-29.195 8.791-5.967 18.872 1.613 30.082 22.905l28.873 52.987"/><path fill-rule="evenodd" clip-rule="evenodd" fill="#CFCECE" stroke="#000" stroke-width="1" d="M94.521.853l38.469 106.618 14.759 29.116 48.39 49.599c3.951 4.113-5.081 11.613-9.033 7.581l-57.745-59.6-30.082-83.634L80.649.611"/><path fill-rule="evenodd" clip-rule="evenodd" fill="#E5E5E5" stroke="#000" stroke-width="1" d="M162.024 151.183l34.115 35.002c3.951 4.113-5.081 11.613-9.033 7.581l-32.259-33.39c2.58-2.903 5-5.966 7.177-9.193z"/><path fill-rule="evenodd" clip-rule="evenodd" fill="none" stroke="#FFF" stroke-width="1" d="M162.024 151.183l34.115 35.002c3.951 4.113-5.081 11.613-9.033 7.581l-32.259-33.39c2.58-2.903 5-5.966 7.177-9.193z"/><path fill-rule="evenodd" clip-rule="evenodd" fill="none" stroke="#000" stroke-width="1" stroke-dasharray="5.0003,3.0002" d="M162.024 151.183l34.115 35.002c3.951 4.113-5.081 11.613-9.033 7.581l-32.259-33.39c2.58-2.903 5-5.966 7.177-9.193z"/><path fill-rule="evenodd" clip-rule="evenodd" fill="#CFCECE" stroke="#000" stroke-width="1" d="M131.781.853v139.041l27.985 53.228 10.808 14.194 5.726 3.307c4.113-3.307 4.517-9.678-3.307-22.582l-26.13-48.793.323-138.394"/><path fill-rule="evenodd" clip-rule="evenodd" fill="none" stroke="#000" stroke-width="1.502" stroke-dasharray="7.5118,4.5071" d="M140.813 146.424v88.232M142.023 147.473l62.261 62.342"/><path fill-rule="evenodd" clip-rule="evenodd" stroke="#000" stroke-width=".216" d="M82.746.288l47.583 131.136.242.323v5.887l-2.662-2.904L78.552.611z"/><path fill-rule="evenodd" clip-rule="evenodd" stroke="#000" stroke-width=".216" d="M134.2.611h-4.194l.564 138.312 1.533 5.727 29.518 53.874c4.437 5.969 8.952 10.242 13.469 12.985l2.097-1.774c-3.952.967-10.808-7.581-19.517-22.582l-24.034-48.229L134.2.611z"/><radialGradient id="a" cx="141.065" cy="142.913" r="4.816" gradientUnits="userSpaceOnUse"><stop offset="0" stop-color="#fff"/><stop offset="1" stop-color="#808285"/></radialGradient><path fill-rule="evenodd" clip-rule="evenodd" fill="url(#a)" stroke="#000" stroke-width=".5" d="M141.056 145.86a3.407 3.407 0 0 0 3.387-3.388c0-1.854-1.533-3.387-3.387-3.387-1.855 0-3.388 1.532-3.388 3.387a3.407 3.407 0 0 0 3.388 3.388z"/><path fill-rule="evenodd" clip-rule="evenodd" fill="none" stroke="#000" stroke-width="1" d="M179.04 106.665c-4.515 31.372-19.516 52.342-39.678 68.149"/><path fill-rule="evenodd" clip-rule="evenodd" fill="none" stroke="#000" stroke-width=".5" d="M140.491 202.637c17.743 1.532 29.438-5.242 35.083-20.405"/><path d="M149.766 215.703v-1.936h-1.21v-.888h1.21v-3.628l-1.21 1.854v-1.37l1.371-2.017h.807v5.161h1.129v.888h-1.129v1.936h-.968zm-1.21-1.936h-2.258v-.888l2.258-3.145v1.37l-1.29 1.774h1.29v.889zM152.83 213.605l1.048-.08c.081.484.243.887.564 1.129.243.243.565.403.968.403.484 0 .887-.16 1.21-.564.322-.322.483-.806.483-1.37 0-.565-.162-1.049-.483-1.372-.323-.322-.726-.484-1.21-.484-.323 0-.564.082-.887.243-.242.079-.403.321-.564.564l-.968-.162.807-4.113h4.032v.968h-3.226l-.483 2.098a2.843 2.843 0 0 1 1.532-.484c.726 0 1.29.242 1.774.726.484.483.726 1.13.726 1.855 0 .727-.161 1.371-.645 1.937-.484.644-1.21.967-2.097.967-.726 0-1.29-.242-1.774-.646-.484-.405-.726-.97-.807-1.615zM160.653 207.557c.565 0 .968.161 1.291.564.322.322.483.887.483 1.451 0 .646-.161 1.21-.483 1.532-.323.404-.726.564-1.291.564v-.726c.323 0 .565-.08.726-.322s.242-.565.242-1.049c0-.402-.081-.726-.242-.968s-.403-.322-.726-.322v-.724zm0 4.112c-.483 0-.967-.16-1.29-.564-.323-.322-.484-.806-.484-1.451s.161-1.21.484-1.532c.323-.403.807-.564 1.29-.564v.726c-.322 0-.564.08-.726.322-.162.161-.242.565-.242.968 0 .483.08.807.242 1.049.242.242.404.322.726.322v.724zM237.753 65.937l-3.063-8.064h1.129l2.097 5.887c.161.403.322.887.403 1.29.161-.483.242-.887.403-1.29l2.178-5.887h1.129l-3.146 8.064h-1.13zM245.818 65.21c-.402.323-.726.484-1.048.646-.162.081-.403.081-.564.162v-.726l.727-.242c.24-.161.483-.403.646-.726.079-.242.16-.564.16-.968v-.323c-.403.081-.887.242-1.532.323v-.807c.646-.081 1.21-.242 1.532-.323v-.242c0-.403-.081-.726-.322-.887-.243-.161-.564-.323-1.129-.323h-.081v-.806h.241c.485 0 .888.081 1.21.162.323.161.564.322.726.483.081.161.243.403.243.646.08.161.08.484.08.887v1.372c0 .887 0 1.451.08 1.693 0 .243.081.484.242.726h-1.048c-.082-.242-.163-.484-.163-.727zm-1.612.808h-.564c-.646 0-1.129-.162-1.453-.403-.321-.323-.483-.726-.483-1.21 0-.322 0-.564.162-.807.161-.242.321-.403.483-.564.242-.161.484-.242.727-.323.161-.08.483-.08.887-.161h.242v.807h-.081c-.403.081-.726.162-.887.242-.161.081-.323.162-.403.323-.081.081-.081.242-.081.403 0 .322.081.484.242.726.242.161.483.242.887.242h.323v.725h-.001zm0-5.243c-.403 0-.727.081-.888.242-.241.162-.403.484-.483.887l-.968-.161c.081-.404.242-.726.403-.968.242-.242.483-.483.887-.564a2.237 2.237 0 0 1 1.049-.242v.806zM250.496 67.469c.404 0 .646-.08.888-.322.242-.162.402-.403.483-.726.081-.242.081-.645.081-1.29a2.209 2.209 0 0 1-1.452.806v-.807c.404 0 .807-.242 1.13-.564.241-.323.403-.887.403-1.613 0-.727-.162-1.291-.484-1.614-.242-.403-.645-.564-1.049-.564v-.806c.646 0 1.13.323 1.533.806v-.645h.967v5c0 .887-.08 1.532-.322 1.936-.161.323-.483.646-.888.887-.321.161-.806.323-1.29.323v-.807zm-2.419-1.049l.968.081c0 .323.081.564.323.645.24.242.563.322.967.322h.161v.807h-.161c-.645 0-1.209-.162-1.693-.484-.404-.322-.565-.806-.565-1.371zm2.419-.483h-.161c-.807 0-1.371-.322-1.854-.887a3.594 3.594 0 0 1-.646-2.096c0-.565.162-1.049.323-1.533.162-.484.484-.807.888-1.048s.807-.403 1.29-.403h.161v.806h-.08c-.402 0-.808.162-1.048.564-.323.323-.484.887-.484 1.533 0 .807.161 1.371.403 1.694.321.323.727.564 1.209.564v.806zM254.448 59.001v-1.129h.968v1.129h-.968zm0 6.936V60.13h.968v5.806h-.968zM256.948 65.937V60.13h.888v.806c.402-.645 1.048-.968 1.854-.968.323 0 .646.081.97.162.322.161.483.322.644.564.162.161.243.403.323.726 0 .161.081.484.081.887v3.629h-1.048v-3.549c0-.403 0-.726-.082-.887a.824.824 0 0 0-.402-.484c-.242-.161-.403-.161-.726-.161-.403 0-.727.081-1.049.403-.323.242-.485.726-.485 1.451v3.226h-.968zM266.948 65.21c-.322.323-.726.484-1.048.646-.16.081-.322.081-.484.162v-.726c.242-.081.484-.161.646-.242.323-.161.564-.403.646-.726.162-.242.162-.564.162-.968v-.323c-.324.081-.808.242-1.453.323v-.807c.646-.081 1.129-.242 1.453-.323v-.242c0-.403-.081-.726-.243-.887a2.09 2.09 0 0 0-1.129-.323h-.081v-.806h.242c.484 0 .887.081 1.211.162.321.161.483.322.646.483.16.161.24.403.321.646 0 .161.081.484.081.887V65.211c.08.243.162.484.241.726h-.968c-.162-.242-.162-.484-.243-.727zm-1.532.808h-.564c-.646 0-1.129-.162-1.451-.403-.402-.323-.564-.726-.564-1.21 0-.322.081-.564.241-.807.081-.242.242-.403.485-.564.16-.161.402-.242.725-.323.162-.08.483-.08.808-.161h.321v.807h-.16c-.404.081-.646.162-.807.242-.162.081-.322.162-.403.323a.615.615 0 0 0-.162.403c0 .322.081.484.322.726.162.161.485.242.889.242h.321v.725h-.001zm0-5.243c-.402 0-.725.081-.967.242-.162.162-.322.484-.484.887l-.967-.161c.079-.404.241-.726.483-.968.16-.242.483-.483.806-.564a2.585 2.585 0 0 1 1.129-.242v.806zM235.092 88.921l1.049-.161c0 .403.161.806.323 1.048.161.242.402.404.807.565.322.162.806.242 1.209.242s.808 0 1.13-.161c.241-.081.483-.242.645-.484.16-.242.243-.403.243-.726 0-.242-.083-.403-.243-.645-.161-.162-.403-.323-.727-.484-.161-.081-.645-.161-1.37-.323-.807-.242-1.291-.403-1.613-.564-.322-.161-.645-.403-.807-.726a1.559 1.559 0 0 1-.323-.968c0-.403.162-.806.404-1.129.16-.403.564-.645.968-.807.402-.161.967-.323 1.451-.323.646 0 1.129.162 1.613.323.403.162.807.484 1.049.807.241.403.322.806.403 1.291l-1.049.081c-.08-.484-.242-.887-.564-1.13-.323-.242-.807-.403-1.371-.403-.646 0-1.13.081-1.452.323-.241.242-.402.564-.402.887 0 .242.08.484.322.726.161.162.726.323 1.613.564.807.161 1.451.323 1.774.484.402.242.807.484.967.806.243.323.404.727.404 1.129 0 .484-.161.887-.404 1.21-.241.403-.564.726-1.048.887-.483.242-.968.322-1.532.322-.726 0-1.372-.081-1.855-.322a1.909 1.909 0 0 1-1.129-.968c-.323-.402-.404-.886-.485-1.371zM246.626 89.325l.967.161c-.08.645-.402 1.129-.807 1.532-.403.404-.968.564-1.613.564-.806 0-1.451-.242-1.935-.806-.484-.484-.726-1.21-.726-2.177 0-.646.161-1.21.322-1.694.242-.484.564-.807.968-1.048s.887-.323 1.37-.323c.646 0 1.13.162 1.533.484s.646.726.807 1.371l-.968.08c-.081-.322-.242-.645-.485-.806-.241-.242-.481-.322-.806-.322-.564 0-.967.161-1.21.484-.322.403-.483.967-.483 1.693 0 .807.161 1.371.403 1.774.323.323.726.484 1.209.484.405 0 .727-.081.969-.323.242-.241.404-.644.485-1.128zM248.48 84.567v-1.129h.968v1.129h-.968zm0 6.855v-5.807h.968v5.807h-.968zM250.496 89.728l.969-.161c.08.403.24.726.483.887.242.242.646.323 1.048.323.484 0 .807-.081 1.049-.242.161-.243.323-.404.323-.646s-.162-.403-.323-.564c-.161-.081-.484-.162-.968-.323-.726-.161-1.291-.323-1.532-.484-.242-.162-.483-.323-.645-.564a1.298 1.298 0 0 1-.243-.726c0-.323.081-.564.243-.726.08-.242.242-.404.483-.564.161-.161.321-.242.564-.323.321-.081.564-.081.888-.081.483 0 .887.081 1.209.162.323.161.564.323.726.564.162.242.323.484.403.887l-.968.161a1.563 1.563 0 0 0-.403-.726c-.242-.162-.483-.242-.887-.242-.484 0-.807.08-.968.242-.243.161-.322.322-.322.484 0 .161.079.242.16.323a.636.636 0 0 0 .323.323c.16 0 .403.08.887.242.727.161 1.21.323 1.452.403.322.162.484.323.646.564.16.242.241.484.241.807 0 .323-.081.646-.241.968-.242.242-.484.484-.888.646-.322.161-.726.242-1.21.242-.727 0-1.291-.161-1.693-.483s-.645-.727-.806-1.373zM256.142 89.728l.968-.161c.081.403.241.726.484.887.242.242.564.323 1.048.323.404 0 .727-.081.969-.242.241-.243.322-.404.322-.646s-.081-.403-.243-.564c-.16-.081-.482-.162-1.048-.323-.727-.161-1.209-.323-1.532-.484-.242-.162-.483-.323-.564-.564a1.304 1.304 0 0 1-.242-.726c0-.323.081-.564.161-.726.162-.242.324-.404.484-.564.161-.161.402-.242.646-.323.242-.081.564-.081.807-.081.483 0 .887.081 1.21.162.402.161.645.323.806.564.161.242.243.484.322.887l-.967.161c-.082-.322-.161-.564-.403-.726-.161-.162-.484-.242-.887-.242-.404 0-.727.08-.969.242-.162.161-.241.322-.241.484 0 .161 0 .242.079.323.082.161.243.242.404.323.081 0 .403.08.887.242.646.161 1.13.323 1.453.403.241.162.482.323.644.564.162.242.243.484.243.807 0 .323-.162.646-.322.968-.162.242-.484.484-.808.646a3.236 3.236 0 0 1-1.21.242c-.806 0-1.37-.161-1.774-.483-.405-.324-.645-.727-.727-1.373zM264.449 85.534c.807 0 1.451.243 2.016.807.483.484.726 1.209.726 2.097 0 .806-.081 1.371-.321 1.774a2.46 2.46 0 0 1-.969 1.048c-.403.242-.887.322-1.451.322v-.806c.483 0 .967-.162 1.291-.564.321-.323.482-.887.482-1.694 0-.726-.161-1.291-.482-1.613-.405-.403-.808-.564-1.291-.564v-.807zm-2.662 2.985c0-1.049.242-1.855.888-2.339a2.656 2.656 0 0 1 1.774-.646v.807c-.484 0-.887.161-1.21.564-.322.323-.484.887-.484 1.613 0 .807.162 1.371.484 1.694.323.403.726.564 1.21.564v.806c-.808 0-1.451-.242-1.937-.806-.483-.484-.725-1.209-.725-2.257zM268.319 91.422v-5.807h.888v.887c.242-.404.484-.646.646-.807.161-.081.403-.162.645-.162.323 0 .646.081.968.323l-.322.887a1.304 1.304 0 0 0-.726-.242.872.872 0 0 0-.564.242c-.161.081-.322.323-.322.564-.162.323-.162.726-.162 1.129v2.984h-1.051zM271.707 89.728l.968-.161c.081.403.161.726.483.887.242.242.564.323 1.05.323.402 0 .725-.081.968-.242.24-.243.321-.404.321-.646s-.081-.403-.321-.564c-.081-.081-.403-.162-.968-.323-.727-.161-1.21-.323-1.533-.484-.242-.162-.483-.323-.564-.564a1.304 1.304 0 0 1-.242-.726c0-.323.081-.564.161-.726.162-.242.323-.404.485-.564.16-.161.402-.242.644-.323.242-.081.564-.081.807-.081.484 0 .887.081 1.211.162.402.161.646.323.807.564.16.242.241.484.321.887l-.967.161c-.081-.322-.161-.564-.404-.726-.16-.162-.483-.242-.887-.242-.402 0-.726.08-.967.242-.162.161-.243.322-.243.484 0 .161 0 .242.081.323.081.161.241.242.403.323.08 0 .402.08.888.242.644.161 1.129.323 1.451.403.242.162.483.323.645.564.162.242.243.484.243.807 0 .323-.162.646-.323.968-.162.242-.484.484-.808.646a3.233 3.233 0 0 1-1.208.242c-.808 0-1.372-.161-1.775-.483s-.646-.727-.727-1.373zM235.657 144.65h1.048v8.065h-1.048zM238.479 152.715v-5.807h.887v.807c.404-.646 1.048-.969 1.855-.969.323 0 .646.081.967.162.243.161.485.323.646.564.161.161.242.402.322.727v4.516h-.969v-3.549c0-.402 0-.727-.079-.887a.819.819 0 0 0-.404-.483c-.241-.162-.402-.162-.725-.162-.404 0-.727.081-1.048.403-.323.242-.485.727-.485 1.452v3.226h-.967zM248.48 152.715v-.727c-.323.564-.888.808-1.533.808v-.808c.404 0 .808-.16 1.13-.483.242-.403.403-.887.403-1.613 0-.807-.161-1.371-.484-1.774-.241-.321-.645-.564-1.049-.564v-.807c.243 0 .565.081.808.242.241.162.483.322.645.564v-2.903h.969v8.065h-.889zm-1.533.081h-.08c-.484 0-.887-.081-1.289-.323-.405-.322-.727-.645-.889-1.13-.242-.402-.322-.967-.322-1.531s.08-1.129.241-1.612c.243-.484.484-.808.887-1.049.404-.242.808-.404 1.291-.404h.161v.807h-.08c-.403 0-.808.162-1.049.564-.323.322-.483.887-.483 1.694 0 .727.16 1.29.483 1.612.323.404.727.564 1.129.564v.808zM254.933 150.861l.967.08c-.161.564-.402 1.048-.886 1.372-.404.322-.969.483-1.613.483h-.081v-.808h.081c.322 0 .645-.08.887-.24.241-.243.483-.484.645-.887zm-1.614-4.114c.806 0 1.451.242 1.935.807.484.484.727 1.291.727 2.259v.242h-2.661v-.807h1.613c-.081-.483-.162-.887-.403-1.13-.323-.402-.727-.564-1.21-.564v-.807zm0 6.049c-.807 0-1.452-.243-1.936-.727-.564-.564-.806-1.291-.806-2.258 0-.968.322-1.694.806-2.259s1.129-.807 1.936-.807v.807c-.483 0-.807.162-1.129.484-.323.323-.485.727-.485 1.21h1.614v.807h-1.693c0 .646.241 1.129.564 1.451.322.323.646.483 1.129.483v.809zM256.545 152.715l2.097-3.065-1.935-2.741h1.208l.888 1.371c.162.241.323.484.404.646.161-.242.322-.485.403-.646l.967-1.371h1.21l-2.016 2.741 2.177 3.065h-1.21l-1.209-1.854-.322-.484-1.533 2.339h-1.129zM269.691 151.989c-.403.324-.727.484-1.048.646-.162.08-.404.08-.564.161v-.727c.24-.081.483-.161.725-.241a1.91 1.91 0 0 0 .646-.727c.081-.161.161-.563.161-.967v-.323c-.403.08-.888.242-1.531.323v-.808c.644-.08 1.209-.242 1.531-.323v-.24c0-.403-.08-.727-.322-.889-.242-.16-.565-.322-1.13-.322h-.079v-.807h.24c.484 0 .888.081 1.211.162.322.161.563.323.726.483.08.161.241.404.241.646.081.162.081.483.081.888v1.37c0 .888 0 1.453.08 1.693 0 .243.082.484.242.727h-1.048c-.082-.241-.162-.482-.162-.725zm-1.612.807h-.564c-.646 0-1.13-.161-1.453-.404-.321-.322-.483-.725-.483-1.209 0-.322 0-.564.162-.807.16-.241.321-.402.482-.564.242-.162.484-.243.726-.322.161-.081.484-.081.888-.162h.243v.808h-.082c-.403.079-.726.16-.888.241-.161.08-.321.162-.402.323-.081.079-.081.241-.081.402 0 .322.081.484.243.727.24.16.483.241.886.241h.324v.726h-.001zm0-5.243c-.404 0-.727.081-.889.243-.242.16-.402.483-.483.887l-.967-.162c.08-.403.24-.725.402-.968.242-.242.483-.483.887-.564a2.241 2.241 0 0 1 1.05-.242v.806zM272.11 152.715v-5.807h.888v.807c.402-.646 1.048-.969 1.854-.969.324 0 .646.081.97.162.24.161.482.323.645.564.16.161.241.402.322.727v4.516h-.967v-3.549c0-.402 0-.727-.082-.887a.82.82 0 0 0-.402-.483c-.242-.162-.404-.162-.727-.162-.402 0-.726.081-1.048.403-.323.242-.483.727-.483 1.452v3.226h-.97zM282.111 152.715v-.727c-.323.564-.888.808-1.533.808v-.808c.404 0 .808-.16 1.13-.483.241-.403.403-.887.403-1.613 0-.807-.162-1.371-.484-1.774-.241-.321-.645-.564-1.049-.564v-.807c.243 0 .565.081.808.242.241.162.483.322.645.564v-2.903h.968v8.065h-.888zm-1.533.081h-.08c-.484 0-.887-.081-1.29-.323-.404-.322-.727-.645-.888-1.13-.242-.402-.322-.967-.322-1.531s.08-1.129.241-1.612c.242-.484.485-.808.888-1.049.403-.242.807-.404 1.291-.404h.16v.807h-.08c-.403 0-.807.162-1.049.564-.322.322-.484.887-.484 1.694 0 .727.162 1.29.484 1.612.323.404.726.564 1.129.564v.808zM287.677 152.715v-5.807h.886v.807a1.59 1.59 0 0 1 .727-.727 2.235 2.235 0 0 1 1.049-.242c.402 0 .807.081 1.048.242.242.243.483.484.564.808.483-.727 1.048-1.05 1.774-1.05.646 0 1.048.162 1.371.485.322.321.483.806.483 1.451v4.032h-1.048v-3.711c0-.402 0-.644-.081-.805-.08-.162-.161-.324-.323-.403-.16-.162-.402-.162-.564-.162-.402 0-.806.081-1.048.403-.241.242-.403.646-.403 1.29v3.388h-.967v-3.79c0-.404-.081-.808-.242-.969-.162-.241-.403-.322-.808-.322-.241 0-.564.081-.725.162-.243.16-.404.403-.564.644a4.88 4.88 0 0 0-.162 1.21v3.065h-.967zM297.031 145.78v-1.13h.968v1.13h-.968zm0 6.935v-5.807h.968v5.807h-.968zM303.241 152.715v-.727c-.322.564-.806.808-1.532.808v-.808c.483 0 .806-.16 1.129-.483.322-.403.484-.887.484-1.613 0-.807-.162-1.371-.484-1.774-.323-.321-.646-.564-1.129-.564v-.807c.322 0 .564.081.806.242.323.162.485.322.727.564v-2.903h.967v8.065h-.968zm-1.532.081h-.081c-.483 0-.888-.081-1.291-.323-.322-.322-.645-.645-.886-1.13-.243-.402-.324-.967-.324-1.531s.081-1.129.324-1.612c.16-.484.483-.808.886-1.049.324-.242.808-.404 1.291-.404h.081v.807c-.483 0-.808.162-1.129.564-.243.322-.404.887-.404 1.694 0 .727.161 1.29.485 1.612.24.404.646.564 1.048.564v.808zM309.532 152.715v-.727c-.403.564-.889.808-1.613.808v-.808H308c.403 0 .725-.16 1.048-.483.322-.403.484-.887.484-1.613 0-.807-.162-1.371-.484-1.774-.323-.321-.645-.564-1.129-.564v-.807c.322 0 .564.081.806.242.323.162.564.322.727.564v-2.903h.967v8.065h-.887zm-1.613.081h-.08c-.404 0-.889-.081-1.211-.323-.402-.322-.726-.645-.968-1.13-.161-.402-.322-.967-.322-1.531s.161-1.129.322-1.612c.162-.484.484-.808.887-1.049.403-.242.808-.404 1.292-.404h.08v.807c-.404 0-.807.162-1.129.564-.243.322-.404.887-.404 1.694 0 .727.161 1.29.484 1.612.323.404.645.564 1.049.564v.808zM311.952 144.65h.967v8.065h-.967zM318.402 150.861l1.049.08a2.727 2.727 0 0 1-.887 1.372c-.483.322-.968.483-1.693.483h-.081v-.808h.081c.403 0 .726-.08.967-.24.243-.243.403-.484.564-.887zm-1.612-4.114h.081c.726 0 1.37.242 1.854.807.485.484.727 1.291.727 2.259v.242h-2.661v-.807h1.612c0-.483-.161-.887-.321-1.13-.323-.402-.727-.564-1.21-.564h-.081v-.807zm0 6.049c-.806 0-1.451-.243-1.935-.727-.485-.564-.727-1.291-.727-2.258 0-.968.241-1.694.727-2.259.483-.564 1.129-.807 1.935-.807v.807c-.403 0-.806.162-1.049.484-.321.323-.483.727-.564 1.21h1.613v.807h-1.693c.08.646.242 1.129.564 1.451a1.59 1.59 0 0 0 1.129.483v.809zM235.576 165.216v-5.081h-.806v-.727h.806v-.645c0-.403.081-.646.161-.887.081-.243.241-.404.484-.564.242-.162.564-.243.967-.243.323 0 .564 0 .969.081l-.161.887c-.243-.08-.403-.08-.564-.08-.323 0-.565.08-.646.161-.161.162-.242.403-.242.727v.563h1.129v.727h-1.129v5.081h-.968zM238.479 158.361v-1.21h.968v1.21h-.968zm0 6.855v-5.808h.968v5.808h-.968zM240.98 165.216v-5.808h.887v.808c.403-.646 1.048-.969 1.854-.969.322 0 .646.081.968.242.243.081.483.241.646.483.16.162.243.403.322.727V165.216h-.968v-3.549c0-.403 0-.726-.081-.887-.08-.243-.241-.323-.402-.485-.242-.079-.484-.16-.727-.16-.402 0-.806.081-1.048.402-.322.243-.483.727-.483 1.532v3.146h-.968zM249.448 166.749c.403 0 .726-.081.887-.241.243-.243.403-.485.565-.808v-1.29c-.404.483-.887.807-1.452.807v-.807c.403 0 .807-.162 1.13-.565.322-.321.402-.886.402-1.612s-.08-1.21-.402-1.612c-.323-.324-.727-.564-1.13-.564v-.808c.645.081 1.13.323 1.613.888v-.727h.887v5.001c0 .888-.081 1.533-.322 1.936-.161.403-.404.646-.807.887-.403.242-.888.323-1.371.323v-.808zm-2.42-1.049l.968.162c0 .241.161.483.323.646.241.16.564.241.968.241h.161v.807h-.161c-.646 0-1.21-.161-1.694-.484-.403-.323-.565-.727-.565-1.372zm2.42-.484h-.08c-.808 0-1.452-.323-1.855-.888-.484-.564-.727-1.29-.727-2.097 0-.483.161-1.049.323-1.532.242-.404.483-.807.887-1.049s.807-.403 1.372-.403h.08v.808h-.08c-.404 0-.808.24-1.049.564-.323.322-.485.886-.485 1.612s.162 1.291.485 1.612c.241.403.645.565 1.129.565v.808zM257.433 163.361l.968.081c-.162.646-.403 1.049-.888 1.37a2.596 2.596 0 0 1-1.613.566h-.08v-.888l.08.08c.324 0 .646-.161.889-.323.239-.16.482-.483.644-.886zm-1.614-4.113c.807 0 1.371.323 1.854.808.564.564.808 1.29.808 2.258v.241h-2.662v-.806h1.613c-.082-.484-.161-.889-.404-1.129-.321-.324-.726-.564-1.209-.564v-.808zm0 6.13c-.806-.081-1.532-.323-2.017-.808-.483-.564-.726-1.29-.726-2.177 0-1.049.242-1.774.807-2.339a2.674 2.674 0 0 1 1.936-.808v.808c-.484 0-.806.161-1.13.482-.321.322-.483.727-.483 1.211h1.613v.806h-1.694c0 .645.243 1.129.564 1.452.243.322.646.484 1.13.484v.889zM259.61 165.216v-5.808h.887v.887c.241-.402.484-.725.646-.806.241-.161.403-.242.645-.242.323 0 .646.161 1.049.323l-.402.967a1.31 1.31 0 0 0-.727-.242c-.161 0-.404.081-.564.162-.161.162-.242.323-.323.564-.16.323-.16.727-.16 1.129v3.065h-1.051zM262.998 163.442l.967-.081c.081.322.241.646.484.887.242.162.564.323 1.048.323.403 0 .726-.161.968-.323.242-.16.323-.403.323-.644 0-.243-.081-.405-.243-.485-.16-.16-.483-.241-1.048-.402-.727-.162-1.21-.322-1.532-.403-.242-.162-.483-.322-.564-.564a1.368 1.368 0 0 1-.242-.807c0-.242.081-.484.161-.726.162-.243.322-.404.484-.565.161-.08.402-.161.646-.242.242-.08.564-.161.807-.161.484 0 .887.081 1.209.242.404.081.645.322.807.483.161.243.243.564.322.887l-.968.162c0-.322-.161-.484-.403-.727-.161-.16-.482-.24-.888-.24-.402 0-.725.08-.967.24a.732.732 0 0 0-.241.564c0 .082 0 .243.079.323.081.081.243.162.404.241.081.081.403.162.887.243.646.242 1.129.323 1.451.483.242.081.484.323.646.483.161.243.242.564.242.889 0 .321-.081.646-.321.887-.162.323-.485.563-.808.726a3.225 3.225 0 0 1-1.21.243c-.806 0-1.37-.162-1.774-.485-.405-.322-.647-.806-.726-1.451zM274.449 159.248c.807 0 1.452.242 1.936.808.565.482.806 1.209.806 2.177 0 .727-.16 1.291-.321 1.774a2.45 2.45 0 0 1-1.048.967c-.405.243-.889.405-1.372.405v-.808c.483 0 .888-.242 1.21-.564.323-.402.483-.968.483-1.774 0-.646-.16-1.21-.483-1.612-.322-.324-.727-.564-1.21-.564v-.809zm-2.742 3.065c0-1.049.322-1.855.887-2.42.564-.403 1.129-.646 1.855-.646v.808c-.484 0-.887.24-1.21.564-.322.402-.483.967-.483 1.693 0 .726.161 1.291.483 1.693.323.322.726.484 1.21.564v.808a2.668 2.668 0 0 1-1.935-.808c-.565-.563-.807-1.288-.807-2.256zM278.562 165.216v-5.081h-.888v-.727h.888v-.645c0-.403 0-.646.081-.887.081-.243.321-.404.483-.564.242-.162.646-.243 1.048-.243.243 0 .564 0 .888.081l-.161.887c-.162-.08-.323-.08-.564-.08-.242 0-.485.08-.646.161-.08.162-.161.403-.161.727v.563h1.129v.727h-1.129v5.081h-.968zM284.53 157.151h.968v8.065h-.968zM290.982 163.361l1.048.081a2.399 2.399 0 0 1-.886 1.37c-.404.323-.969.566-1.693.566h-.081v-.888l.081.08c.402 0 .725-.161.967-.323.241-.16.484-.483.564-.886zm-1.612-4.113h.081c.725 0 1.369.323 1.854.808.484.564.726 1.29.726 2.258v.241h-2.66v-.806h1.693c-.081-.484-.243-.889-.404-1.129-.321-.324-.726-.564-1.208-.564h-.081v-.808zm0 6.13c-.808-.081-1.452-.323-1.937-.808-.483-.564-.727-1.29-.727-2.177 0-1.049.243-1.774.727-2.339.564-.484 1.21-.808 1.937-.808v.808c-.404 0-.808.161-1.049.482-.323.322-.484.727-.564 1.211h1.613v.806h-1.613c0 .645.161 1.129.484 1.452a1.59 1.59 0 0 0 1.129.484v.889zM293.482 165.216v-5.081h-.888v-.727h.888v-.645c0-.403.08-.646.161-.887.081-.243.242-.404.483-.564.243-.162.565-.243.969-.243.322 0 .564 0 .968.081l-.162.887c-.241-.08-.402-.08-.563-.08-.323 0-.565.08-.646.161-.161.162-.242.403-.242.727v.563h1.129v.727h-1.129v5.081h-.968zM298.562 164.329l.081.888c-.241 0-.483.081-.725.081-.323 0-.646-.081-.807-.162-.243-.162-.324-.242-.403-.483-.081-.161-.162-.564-.162-1.129v-3.388h-.726v-.727h.726v-1.451l.968-.564v2.016h1.048v.727h-1.048v3.388c0 .321.081.483.081.564s.08.16.162.241h.321l.484-.001zM302.596 165.216v-8.065h.969v2.904c.483-.484 1.048-.808 1.773-.808.403 0 .807.081 1.129.242.323.241.564.403.646.727.161.321.242.726.242 1.289v3.711h-.969v-3.711c0-.483-.16-.806-.321-1.048-.242-.241-.565-.322-.969-.322-.242 0-.564.081-.807.241-.241.081-.402.323-.564.565-.081.241-.16.645-.16 1.128v3.146h-.969zM312.596 164.491c-.322.321-.725.564-1.048.645-.16.081-.322.162-.483.162v-.727c.242-.08.483-.161.645-.242.322-.16.564-.403.646-.725.162-.162.162-.485.162-.97v-.321c-.324.081-.808.241-1.452.321v-.805c.645-.081 1.128-.162 1.452-.324v-.241c0-.404-.081-.645-.243-.807-.242-.241-.645-.402-1.129-.402h-.08v-.808h.242c.483 0 .886.081 1.21.161.322.162.483.322.644.484.162.162.243.402.323.645 0 .162.081.484.081.887v3.066c.081.242.16.482.322.726h-1.048c-.083-.243-.163-.483-.244-.725zm-1.532.806c-.162 0-.403.081-.564.081-.646 0-1.13-.162-1.452-.485-.404-.322-.564-.725-.564-1.21 0-.322.081-.564.241-.806.081-.243.243-.403.483-.564.243-.162.405-.243.727-.322.161 0 .483-.081.888-.161h.242v.805h-.162c-.402.082-.645.162-.807.243-.161.081-.322.161-.402.321-.08.162-.161.243-.161.484 0 .242.081.485.322.646.161.162.483.242.888.242h.322v.726h-.001zm0-5.242c-.403.08-.727.161-.969.24-.161.162-.322.485-.482.888l-.97-.161c.081-.402.243-.727.485-.967.16-.243.484-.484.806-.565.323-.161.727-.161 1.13-.242v.807zM315.097 165.216v-5.808h.888v.808c.402-.646 1.048-.969 1.773-.969.404 0 .727.081.967.242.324.081.564.241.727.483.081.162.243.403.243.727.08.16.08.483.08.968v3.549h-.969v-3.549c0-.403-.081-.726-.16-.887 0-.243-.161-.323-.404-.485a1.538 1.538 0 0 0-.645-.16c-.403 0-.807.081-1.129.402-.242.243-.404.727-.404 1.532v3.146h-.967zM325.097 165.216v-.726c-.403.564-.887.807-1.612.888v-.888l.08.08c.403 0 .727-.242 1.049-.564.323-.323.483-.888.483-1.612 0-.808-.16-1.372-.483-1.774-.322-.324-.646-.564-1.129-.564v-.808c.322 0 .564.081.807.242.322.161.564.322.725.565v-2.904h.969v8.065h-.889zm-1.613.162h-.081a2.17 2.17 0 0 1-1.21-.405c-.403-.24-.725-.645-.968-1.048-.162-.483-.322-1.048-.322-1.612s.16-1.13.322-1.613c.162-.404.484-.807.888-1.049s.807-.403 1.29-.403h.081v.808c-.403 0-.807.24-1.13.564-.241.322-.402.886-.402 1.693 0 .726.161 1.291.483 1.693.322.322.646.484 1.049.484v.888zM238.318 239.495h.564l3.227 7.984h-1.21l-.888-2.421h-1.693v-.886h1.371l-.888-2.179c-.241-.645-.402-1.128-.483-1.532v-.966zm-3.71 7.984l3.064-7.984h.646v.967l-.081-.162a10.63 10.63 0 0 1-.402 1.533l-.888 2.34h1.371v.886h-1.693l-.888 2.421h-1.129zM242.835 247.479v-5.808h.887v.808c.403-.646 1.049-.97 1.856-.97.321 0 .644.082.967.243.322.08.483.241.646.483.161.162.241.403.322.726.08.161.08.484.08.969v3.549h-.967v-3.549c0-.403-.081-.727-.162-.887-.081-.162-.242-.324-.404-.485a1.533 1.533 0 0 0-.644-.16c-.483 0-.808.16-1.129.402-.323.243-.484.727-.484 1.532v3.146h-.968zM252.916 247.479v-.888c-.484.726-1.13 1.048-1.854 1.048-.323 0-.646-.08-.969-.241-.322-.081-.564-.323-.645-.484-.161-.161-.242-.403-.322-.726-.081-.161-.081-.483-.081-.887v-3.63h.969v3.226c0 .485.079.888.079 1.05.081.241.242.402.403.563.242.161.484.242.726.242.323 0 .564-.081.888-.242.242-.161.403-.322.484-.563.161-.324.161-.646.161-1.129v-3.146h1.048v5.808h-.887zM254.933 245.705l.967-.082c.081.324.162.646.484.888.242.161.564.323 1.049.323.403 0 .726-.162.968-.323.241-.161.322-.403.322-.645 0-.243-.081-.404-.322-.483-.081-.162-.403-.242-.968-.404-.726-.16-1.209-.322-1.533-.403-.24-.161-.483-.321-.564-.564a1.363 1.363 0 0 1-.241-.807c0-.242.08-.484.16-.725.162-.243.323-.405.484-.565.161-.081.403-.161.646-.242.242-.08.564-.162.807-.162.483 0 .887.082 1.21.243.402.08.646.321.807.483.161.243.242.564.322.887l-.968.161c-.08-.322-.161-.483-.403-.726-.161-.16-.484-.241-.887-.241-.404 0-.727.081-.969.241a.732.732 0 0 0-.241.564c0 .081 0 .243.08.323.082.081.242.162.403.241.081.081.403.161.888.243.645.242 1.129.323 1.451.483.242.08.484.323.646.483.16.243.242.564.242.888 0 .322-.161.646-.322.887-.162.323-.484.564-.808.727a3.237 3.237 0 0 1-1.209.241c-.807 0-1.371-.16-1.773-.483-.407-.323-.647-.807-.728-1.451z"/><path fill="none" stroke="#000" stroke-width=".5" d="M141.056 228.203v30.647M135.813 229.089l10.484 28.873M131.216 231.751l19.679 23.55M127.748 235.865l26.534 15.323M125.974 240.866l30.163 5.322M125.974 246.188l30.163-5.322M127.748 251.188l26.534-15.323M131.216 255.301l19.679-23.55M135.813 257.962l10.484-28.873"/><path fill-rule="evenodd" clip-rule="evenodd" fill="#FFF" stroke="#000" stroke-width="1" d="M141.056 247.236c2.016 0 3.71-1.693 3.71-3.709 0-2.018-1.694-3.711-3.71-3.711-2.017 0-3.71 1.693-3.71 3.711 0 2.015 1.693 3.709 3.71 3.709z"/><path fill-rule="evenodd" clip-rule="evenodd" fill="none" stroke="#000" stroke-width=".5" d="M228.964 61.339H167.67M229.528 87.47h-89.037M191.461 148.683h39.761l-41.778 54.761"/><path fill-rule="evenodd" clip-rule="evenodd" fill="none" stroke="#000" stroke-width=".216" d="M230.657 244.091h-69.198"/><path fill-rule="evenodd" clip-rule="evenodd" stroke="#000" stroke-width=".045" stroke-linecap="round" stroke-linejoin="round" d="M155.895 244.333l9.113 3.468c-1.451-2.339-1.532-4.435-.079-6.774l-9.034 3.306zM184.767 206.267l9.033-3.791c-2.581-.727-4.193-2.097-4.678-4.839l-4.355 8.63zM141.378 202.798l9.113 3.469c-1.451-2.259-1.532-4.355 0-6.694l-9.113 3.225zM187.025 148.764l9.113 3.468c-1.371-2.258-1.532-4.356 0-6.694l-9.113 3.226zM139.442 87.792l9.113 3.468c-1.371-2.339-1.532-4.436 0-6.775l-9.113 3.307zM162.427 60.775l9.114 3.468c-1.452-2.258-1.532-4.355 0-6.694l-9.114 3.226zM175.492 182.475l-7.822 5.888c2.661 0 4.517 1.048 5.646 3.548l2.176-9.436z"/></svg>