<svg version="1.1" xmlns="http://www.w3.org/2000/svg" x="0" y="0" width="326.984" height="112.291" viewBox="0 0 326.984 112.291" xml:space="preserve"><path fill="#FFF" stroke="#000" stroke-width="1" d="M17.387 30.081v9.618c0 1.268-.522 2.311-1.118 2.311-.598 0-1.119-1.043-1.119-2.311v-9.618"/><path fill="none" stroke="#000" stroke-width=".5" d="M16.27 42.607c1.564 2.833 1.267 2.833-.149 5.666-1.417 2.982 1.864 2.535 1.864 4.473 0 1.79-2.013 3.206.298 4.622 2.087 1.418-2.013 5.74-2.013 8.574 0 1.119 3.504 2.235 3.504 6.039 0 2.235-3.355 2.386-3.355 5.22 0 2.832 5.368 4.101 1.938 7.455-3.206 3.28.148 4.101.148 7.381"/><path fill="none" stroke="#000" stroke-width="1" d="M62.867 28.739c31.835-.896 55.692 2.46 69.112 9.916l50.772 25.126c13.792 6.858 29.522 6.784 44.882 5.591 13.347-.969 24.754 3.652 31.687 16.551 7.53 14.018 17.745 21.473 31.611 24.307 17.298 3.431 29.748 1.938 33.476-11.854 1.193-4.324.373-9.244-2.534-13.867l-2.089-10.065-22.515-12.004-21.249-.598-24.901-1.044-47.564-3.354-46.15-19.011-34.745-16.105-42.571-2.759-3.728.149-14.091.82.597 8.201zm205.549 59.494c.521.746 2.46 3.132 1.789 2.312l-1.789-2.312zm45.18 12.75l-.074 1.565c1.044-.671 2.087-1.417 3.057-2.387a6.71 6.71 0 0 0 1.715-2.386c5.442-5.219.97-15.209-8.646-21.621-10.141-6.709-22.069-9.096-32.357-4.92-10.736 4.324-11.108 10.513-5.368 16.924 5.592 6.263 11.779 10.734 20.056 12.749 7.004 1.717 15.056 3.058 21.617.076z"/><path fill="none" stroke="#000" stroke-width="1" d="M75.169 15.772c4.771.149 8.945.889 13.791.368 18.042-1.79 32.806-.522 43.094 3.429 21.694 8.425 43.466 16.551 65.234 24.604 8.501 3.131 32.805 2.534 41.826 2.311 4.324-.149 6.859 4.25 7.68 10.884l8.647-.521c-2.012-7.679-1.565-10.289 1.789-10.214 31.984.447 48.609-3.504 54.276-10.513 10.811-13.494 2.534-23.261-12.675-29.001-7.009-2.61-14.24-2.61-21.396-.298-8.947 2.908-13.867 9.096-13.793 18.863.074 9.692-8.126 12.227-22.592 13.046-28.256 1.641-55.317-3.354-82.308-16.178-16.179-7.679-32.656-13.047-49.132-13.569-12.228-.447-24.305 2.833-36.532 3.877l-35.562 3.13-5.07 7.903L2.178 26.13c-1.343.149-1.343 4.026 0 3.951l60.688-1.342M289.515 10.25c11.107 0 20.131 6.412 20.131 14.24 0 7.903-9.022 14.24-20.131 14.24s-20.129-6.336-20.129-14.24c0-7.829 9.019-14.24 20.129-14.24z"/><path fill="#FFF" stroke="#000" stroke-width="1" d="M1.656 21.358c-1.565.075-1.565-3.28.149-3.579l40.483-7.083-9.318 8.201-31.314 2.461z"/><path fill="#FFF" d="M289.217 40.37c11.632-1.715 18.64-4.771 21.92-8.872 2.832-3.504 4.323-6.784 4.847-9.767v-3.727c-1.118-6.71-7.903-11.855-17.446-15.508-3.058-1.118-6.188-1.79-9.318-1.938v5.07c11.108 0 20.13 6.412 20.13 14.24 0 7.903-9.021 14.24-20.13 14.24v6.262h-.003zM72.708 8.237L37.22 11.368l-5.07 7.828-30.345 2.312c-1.269.074-1.269 4.026 0 3.951L62.419 22.7l11.78-10.214c4.846.149 9.618-.447 14.463-.969 17.968-1.789 32.805-.521 43.02 3.43 21.695 8.424 43.466 16.551 65.312 24.603 8.423 3.132 32.804 2.535 41.75 2.312 4.325-.149 6.859 4.25 7.68 10.96l8.724-.522c-2.015-7.828-1.565-10.363 1.79-10.289 13.271.149 23.933-.373 32.282-1.64v-6.263c-11.185 0-20.206-6.337-20.206-14.24 0-7.828 9.021-14.24 20.206-14.24V.558a32.57 32.57 0 0 0-12.152 1.64c-8.947 2.908-13.793 9.021-13.719 18.862 0 9.693-8.127 12.227-22.665 13.047-28.183 1.64-55.319-3.354-82.31-16.179-16.106-7.678-32.658-13.046-49.134-13.642-12.153-.374-24.231 2.907-36.532 3.951z"/><path fill="none" stroke="#000" stroke-width="1" d="M72.708 8.237L37.22 11.368l-5.07 7.828-30.345 2.312c-1.269.074-1.269 4.026 0 3.951L62.419 22.7l11.78-10.214c4.846.149 9.618-.447 14.463-.969 17.968-1.789 32.805-.521 43.02 3.43 21.695 8.424 43.466 16.551 65.312 24.603 8.423 3.132 32.804 2.535 41.75 2.312 4.325-.149 6.859 4.25 7.68 10.96l8.724-.522c-2.015-7.828-1.565-10.363 1.79-10.289 31.91.447 48.609-3.504 54.201-10.512 10.886-13.494 2.609-23.261-12.601-29.002-7.083-2.609-14.314-2.609-21.472-.298-8.947 2.908-13.793 9.021-13.719 18.862 0 9.693-8.127 12.227-22.665 13.047-28.183 1.64-55.319-3.354-82.31-16.179-16.104-7.679-32.656-13.047-49.132-13.643-12.153-.374-24.231 2.907-36.532 3.951zm216.509-2.61c11.109 0 20.131 6.412 20.131 14.24 0 7.903-9.021 14.24-20.131 14.24-11.184 0-20.205-6.337-20.205-14.24-.001-7.828 9.021-14.24 20.205-14.24z"/><path fill="#FFF" d="M294.286 102.476c16.328 3.057 28.032 1.117 31.688-12.152.223-.896.373-1.864.445-2.908v-2.088c-.373-5.891-4.101-12.227-10.959-17.296-6.338-4.697-13.568-7.53-21.174-8.798v4.846c5.22 1.044 10.362 3.206 15.135 6.412 9.692 6.412 14.165 16.402 8.725 21.621-6.412 6.263-15.731 5.518-23.858 3.729l-.002 6.634zM265.73 56.847l-59.792-3.875c-17.969-1.268-36.011-10.885-55.246-22.143-21.994-12.749-49.207-17.222-80.968-14.688l-4.92 4.92c31.835-.895 55.319 2.088 68.666 9.543l50.846 25.124c13.793 6.86 29.449 6.786 44.809 5.592 13.42-.969 24.752 3.654 31.687 16.553 7.529 14.016 17.818 21.471 31.687 24.305.598.074 1.192.223 1.789.299V95.84c-.818-.225-1.641-.373-2.461-.598-8.273-2.013-14.537-6.485-20.056-12.675-5.814-6.484-5.442-12.674 5.295-16.998 5.44-2.162 11.332-2.609 17.222-1.491v-4.847c-3.652-.67-7.38-.895-11.184-.818-5.816.149-11.259-1.119-17.374-1.566z"/><path fill="none" stroke="#000" stroke-width="1" d="M265.73 56.847l-59.792-3.875c-17.969-1.268-36.011-10.885-55.246-22.143-21.994-12.749-49.207-17.222-80.968-14.688l-4.92 4.92c31.835-.895 55.319 2.088 68.666 9.543l50.846 25.124c13.793 6.86 29.449 6.786 44.809 5.592 13.42-.969 24.752 3.654 31.687 16.553 7.529 14.016 17.818 21.471 31.687 24.305 17.297 3.43 29.673 1.938 33.477-11.854 1.938-7.158-1.642-15.731-10.514-22.292-9.318-6.935-20.578-9.841-32.356-9.617-5.818.147-11.261-1.121-17.376-1.568zm6.04 25.72c-5.814-6.484-5.442-12.674 5.295-16.998 10.363-4.176 22.291-1.788 32.355 4.921 9.692 6.413 14.165 16.401 8.725 21.62-7.084 6.859-17.597 5.295-26.319 3.132-8.275-2.013-14.538-6.485-20.056-12.675z"/><path fill="#FFF" stroke="#000" stroke-width="1" d="M40.202 17.258c-.299-4.622 3.206-12.823-10.811-14.688-9.319-1.043-12.749 7.083-14.539 17.745h1.715c1.564-7.008 3.354-13.122 8.723-15.358 3.431-1.417 7.083-.448 10.661 1.565 4.251 2.833 4.4 13.867 4.251 10.736z"/><path fill="none" stroke="#000" stroke-width=".5" d="M48.104 18.6c2.535 0 4.623-.745 4.623-1.64 0-.969-2.088-1.714-4.623-1.714-2.46 0-4.548.745-4.548 1.714 0 .894 2.088 1.64 4.548 1.64z"/><path fill="none" stroke="#000" stroke-width="1" d="M62.493 22.924l.299 6.039"/></svg>