<svg version="1.1" xmlns="http://www.w3.org/2000/svg" xmlns:xlink="http://www.w3.org/1999/xlink" x="0" y="0" width="326.658" height="239.58" viewBox="0 0 326.658 239.58" xml:space="preserve"><path fill="none" stroke="#231F20" stroke-width="1.502" stroke-miterlimit="10" stroke-dasharray="7.5118,4.5071,1.5024,4.5071" d="M58.709 66.269l-.429 5.281-.184 3.869-.062 3.808.062 3.807.184 3.747.307 3.746.43 3.685.614 3.685.676 3.561.798 3.501.921 3.439 1.044 3.378 1.228 3.316 1.29 3.194L67 121.295l1.536 3.011 1.658 2.946 1.781 2.765 1.904 2.763 2.027 2.578 2.149 2.457 2.273 2.396 2.395 2.272 2.517 2.149 2.702 2.027 2.826 1.904 2.947 1.843 3.133 1.657 3.316 1.536 3.501 1.412 3.623 1.29 2.948.86 2.886.369 3.501.184 3.316-.063 3.132-.244 2.887-.492 2.763-.675 2.641-.86 2.518-.983 2.395-1.228 2.272-1.413 2.273-1.657 2.149-1.782 2.15-2.088 2.027-2.21 1.965-2.519 1.904-2.763 1.842-2.948 1.781-3.192 1.658-3.441 1.536-3.623 1.412-3.869 1.351-3.992 1.167-4.299 1.106-4.422.859-4.667.86-4.79.676-4.975.491-5.159.431-5.22.244-5.466.062-5.527-.062-6.878"/><path fill="none" stroke="#231F20" stroke-width="2" stroke-miterlimit="10" d="M41.453 66.084c-4.483 46.797 14.494 94.454 65.283 107.965 52.447 8.168 78.365-41.331 76.951-106.921"/><defs><path id="a" d="M104.893 89.421l-1.044 84.076 73.021 64.177-12.59-88.374z"/></defs><clipPath id="b"><use xlink:href="#a" overflow="visible"/></clipPath><g clip-path="url(#b)"><path fill="#FFF" d="M106.912 89.375c23.323 23.411 46.324 47.142 70.041 70.158v3.478c-24.76-23.949-48.563-48.853-73.104-73.021v-.613c1.021-.002 2.042-.002 3.063-.002z"/><path fill="#4D4D4D" d="M106.912 89.375h1.225c22.916 23 45.504 46.327 68.815 68.931v1.228c-23.716-23.017-46.717-46.749-70.04-70.159z"/><path fill="#FFF" d="M108.137 89.375h3.268a11934.228 11934.228 0 0 0 65.548 65.658v3.272c-23.311-22.603-45.9-45.93-68.816-68.93z"/><path fill="#4D4D4D" d="M111.405 89.375h1.225a11492.283 11492.283 0 0 0 64.323 64.431v1.228a12004.967 12004.967 0 0 1-65.548-65.659z"/><path fill="#FFF" d="M112.63 89.375h3.471a10225.331 10225.331 0 0 0 60.852 60.954v3.477a11492.283 11492.283 0 0 1-64.323-64.431z"/><path fill="#4D4D4D" d="M116.101 89.375h1.225a9904.421 9904.421 0 0 0 59.626 59.726v1.229a10346.288 10346.288 0 0 1-60.851-60.955z"/><path fill="#FFF" d="M117.326 89.375h3.472a8733.266 8733.266 0 0 0 56.155 56.249v3.477a9875.431 9875.431 0 0 1-59.627-59.726z"/><path fill="#4D4D4D" d="M120.798 89.375h1.225a8380.962 8380.962 0 0 0 54.93 55.022v1.227a8758.887 8758.887 0 0 1-56.155-56.249z"/><path fill="#FFF" d="M122.023 89.375h3.471a7333.428 7333.428 0 0 0 51.458 51.544v3.479a8430.554 8430.554 0 0 1-54.929-55.023z"/><path fill="#4D4D4D" d="M125.494 89.375h1.226a6988.401 6988.401 0 0 0 50.233 50.317v1.227a7355.085 7355.085 0 0 1-51.459-51.544z"/><path fill="#FFF" d="M126.72 89.375h3.471a6073.776 6073.776 0 0 0 46.762 46.84v3.478a7029.736 7029.736 0 0 1-50.233-50.318z"/><path fill="#4D4D4D" d="M130.191 89.375h1.021a5811.406 5811.406 0 0 0 45.741 45.817v1.021a6038.028 6038.028 0 0 1-46.762-46.838z"/><path fill="#FFF" d="M131.212 89.375h3.676a4915.003 4915.003 0 0 0 42.065 42.136v3.682a5828.662 5828.662 0 0 1-45.741-45.818z"/><path fill="#4D4D4D" d="M134.888 89.375h1.021a4665.565 4665.565 0 0 0 41.044 41.113v1.022a4900.461 4900.461 0 0 1-42.065-42.135z"/><path fill="#FFF" d="M135.909 89.375h3.471a3932.875 3932.875 0 0 0 37.573 37.636v3.478a4693.181 4693.181 0 0 1-41.044-41.114z"/><path fill="#4D4D4D" d="M139.38 89.375h1.225a3669.781 3669.781 0 0 0 36.348 36.409v1.227a3944.501 3944.501 0 0 1-37.573-37.636z"/><path fill="#FFF" d="M140.605 89.375h3.472a3002.19 3002.19 0 0 0 32.876 32.931v3.479a3691.578 3691.578 0 0 1-36.348-36.41z"/><path fill="#4D4D4D" d="M144.077 89.375h1.225a2774.455 2774.455 0 0 0 31.651 31.704v1.227a2993.364 2993.364 0 0 1-32.876-32.931z"/><path fill="#FFF" d="M145.302 89.375h3.268c9.475 9.395 18.875 18.866 28.383 28.227v3.478a2782.695 2782.695 0 0 1-31.651-31.705z"/><path fill="#4D4D4D" d="M148.569 89.375h1.225c9.079 8.974 18.051 18.055 27.158 27v1.227c-9.51-9.362-18.908-18.833-28.383-28.227z"/><path fill="#FFF" d="M149.794 89.375h3.471c7.955 7.781 15.714 15.759 23.687 23.522v3.477c-9.107-8.944-18.079-18.025-27.158-26.999z"/><path fill="#4D4D4D" d="M153.266 89.375h1.225c7.561 7.358 14.888 14.95 22.462 22.295v1.228c-7.974-7.765-15.732-15.742-23.687-23.523z"/><path fill="#FFF" d="M154.491 89.375h3.471c6.441 6.16 12.547 12.659 18.991 18.818v3.477c-7.574-7.345-14.901-14.938-22.462-22.295z"/><path fill="#4D4D4D" d="M157.962 89.375h1.226c6.042 5.745 11.725 11.846 17.765 17.59v1.228c-6.444-6.159-12.55-12.658-18.991-18.818z"/><path fill="#FFF" d="M159.188 89.375h3.675a553.124 553.124 0 0 0 14.09 14.114v3.477c-6.04-5.745-11.725-11.847-17.765-17.591z"/><path fill="#4D4D4D" d="M162.863 89.375h1.226a458.362 458.362 0 0 0 12.864 12.886v1.229a556.443 556.443 0 0 1-14.09-14.115z"/><path fill="#FFF" d="M164.088 89.375h3.472a242.973 242.973 0 0 0 9.393 9.409v3.477a462.464 462.464 0 0 1-12.865-12.886z"/><path fill="#4D4D4D" d="M167.56 89.375h1.021a194.73 194.73 0 0 0 8.372 8.386v1.023a244.397 244.397 0 0 1-9.393-9.409z"/><path fill="#FFF" d="M168.581 89.375h3.676a61.494 61.494 0 0 0 4.696 4.705v3.682a195.903 195.903 0 0 1-8.372-8.387z"/><path fill="#4D4D4D" d="M172.256 89.375h1.021a37.468 37.468 0 0 0 3.676 3.682v1.023a61.507 61.507 0 0 1-4.697-4.705zM103.849 89.988c24.541 24.169 48.343 49.074 73.104 73.022v1.228c-24.753-23.955-48.572-48.843-73.104-73.021v-1.229z"/><path fill="#FFF" d="M103.849 91.215c24.531 24.178 48.351 49.066 73.104 73.021v3.478c-24.729-23.979-48.6-48.815-73.104-73.021v-3.478z"/><path fill="#4D4D4D" d="M103.849 94.693c24.503 24.206 48.374 49.042 73.104 73.021v1.023c-24.723-23.985-48.609-48.807-73.104-73.021v-1.023z"/><path fill="#FFF" d="M103.849 95.715c24.495 24.215 48.38 49.036 73.104 73.021v3.683c-24.695-24.013-48.642-48.774-73.104-73.021v-3.683z"/><path fill="#4D4D4D" d="M103.849 99.397c24.462 24.249 48.408 49.008 73.104 73.021v1.022c-24.686-24.022-48.651-48.766-73.104-73.021v-1.022z"/><path fill="#FFF" d="M103.849 100.42c24.453 24.256 48.417 48.999 73.104 73.021v3.479c-24.657-24.051-48.683-48.732-73.104-73.021v-3.479z"/><path fill="#4D4D4D" d="M103.849 103.897c24.421 24.29 48.446 48.97 73.104 73.021v1.228c-24.646-24.062-48.694-48.722-73.104-73.021v-1.228z"/><path fill="#FFF" d="M103.849 105.124c24.409 24.3 48.457 48.959 73.104 73.021v3.478c-24.614-24.095-48.726-48.688-73.104-73.022v-3.477z"/><path fill="#4D4D4D" d="M103.849 108.601c24.377 24.333 48.489 48.927 73.104 73.022v1.228c-24.603-24.105-48.737-48.679-73.104-73.021v-1.229z"/><path fill="#FFF" d="M103.849 109.829c24.366 24.343 48.5 48.916 73.104 73.021v3.477c-24.571-24.137-48.77-48.646-73.104-73.021v-3.477z"/><path fill="#4D4D4D" d="M103.849 113.306c24.333 24.375 48.532 48.884 73.104 73.021v1.229c-24.56-24.149-48.781-48.636-73.104-73.021v-1.229z"/><path fill="#FFF" d="M103.849 114.533c24.323 24.386 48.544 48.873 73.104 73.021v3.478c-24.527-24.181-48.81-48.605-73.104-73.021v-3.478z"/><path fill="#4D4D4D" d="M103.849 118.01c24.294 24.416 48.576 48.841 73.104 73.021v1.228c-24.516-24.191-48.82-48.596-73.104-73.021v-1.228z"/><path fill="#FFF" d="M103.849 119.238c24.284 24.426 48.587 48.83 73.104 73.021v3.272c-24.669-23.972-48.597-48.681-73.104-72.817v-3.476z"/><path fill="#4D4D4D" d="M103.849 122.715c24.506 24.136 48.434 48.845 73.104 72.817v1.227c-24.665-23.976-48.601-48.677-73.104-72.816v-1.228z"/><path fill="#FFF" d="M103.849 123.942c24.503 24.139 48.439 48.841 73.104 72.815v3.478c-24.651-23.989-48.61-48.668-73.104-72.816v-3.477z"/><path fill="#4D4D4D" d="M103.849 127.419c24.493 24.148 48.452 48.827 73.104 72.816v1.229c-24.646-23.996-48.614-48.665-73.104-72.816v-1.229z"/><path fill="#FFF" d="M103.849 128.646c24.489 24.153 48.458 48.822 73.104 72.817v3.478c-24.627-24.014-48.626-48.652-73.104-72.817v-3.478z"/><path fill="#4D4D4D" d="M103.849 132.124c24.478 24.165 48.476 48.804 73.104 72.816v1.023c-24.624-24.018-48.629-48.648-73.104-72.816v-1.023z"/><path fill="#FFF" d="M103.849 133.146c24.475 24.168 48.48 48.799 73.104 72.817v3.683c-24.603-24.039-48.642-48.637-73.104-72.816v-3.684z"/><path fill="#4D4D4D" d="M103.849 136.829c24.461 24.18 48.5 48.779 73.104 72.816v1.022c-24.596-24.044-48.646-48.631-73.104-72.817v-1.021z"/><path fill="#FFF" d="M103.849 137.851c24.457 24.187 48.507 48.772 73.104 72.817v3.478c-24.577-24.063-48.658-48.621-73.104-72.817v-3.478z"/><path fill="#4D4D4D" d="M103.849 141.328c24.445 24.196 48.526 48.753 73.104 72.817v1.228c-24.57-24.071-48.663-48.616-73.104-72.817v-1.228z"/><path fill="#FFF" d="M103.849 142.556c24.441 24.201 48.533 48.746 73.104 72.817v3.478c-24.548-24.094-48.675-48.604-73.104-72.817v-3.478z"/><path fill="#4D4D4D" d="M103.849 146.033c24.428 24.214 48.555 48.724 73.104 72.817v1.227c-24.541-24.1-48.679-48.6-73.104-72.817v-1.227z"/><path fill="#FFF" d="M103.849 147.26c24.424 24.218 48.562 48.718 73.104 72.817v3.682c-24.318-24.391-48.724-48.691-73.104-73.021v-3.478z"/><path fill="#4D4D4D" d="M103.849 150.737c24.379 24.33 48.786 48.631 73.104 73.021v1.228c-24.312-24.396-48.727-48.688-73.104-73.021v-1.228z"/><path fill="#FFF" d="M103.849 151.964c24.377 24.333 48.792 48.625 73.104 73.021v3.477c-24.297-24.412-48.732-48.684-73.104-73.021v-3.477z"/><path fill="#4D4D4D" d="M103.849 155.442c24.371 24.338 48.806 48.608 73.104 73.021v1.228c-24.487-24.222-48.616-48.799-73.104-73.021v-1.228z"/><path fill="#FFF" d="M103.849 156.668c24.488 24.222 48.616 48.8 73.104 73.022v3.271c-24.686-24.021-48.5-48.916-73.104-73.021v-3.272z"/><path fill="#4D4D4D" d="M103.849 159.94c24.604 24.105 48.417 49 73.104 73.021v1.229c-24.688-24.021-48.5-48.916-73.104-73.021v-1.229z"/><path fill="#FFF" d="M103.849 161.169c24.603 24.105 48.416 49.001 73.104 73.021-.134 1.094.269 2.723-.204 3.478-24.42-24.222-48.401-48.878-72.899-73.021l-.001-3.478z"/><path fill="#4D4D4D" d="M103.849 164.646c24.499 24.145 48.479 48.801 72.899 73.021h-1.226c-24.014-23.809-47.583-48.064-71.673-71.794v-1.227z"/><path fill="#FFF" d="M103.849 165.873c24.091 23.729 47.661 47.985 71.673 71.794h-3.472c-22.862-22.645-45.262-45.75-68.203-68.316.002-1.161.002-2.319.002-3.478z"/><path fill="#4D4D4D" d="M103.849 169.351c22.941 22.566 45.34 45.672 68.203 68.316h-1.021c-22.524-22.3-44.579-45.072-67.181-67.294l-.001-1.022z"/><path fill="#FFF" d="M103.849 170.373c22.603 22.222 44.657 44.995 67.181 67.294h-3.676c-21.305-21.068-42.124-42.623-63.505-63.611v-3.683z"/><path fill="#4D4D4D" d="M103.849 174.056c21.383 20.988 42.202 42.543 63.505 63.611h-1.021c-20.963-20.729-41.441-41.939-62.485-62.59l.001-1.021z"/><path fill="#FFF" d="M103.849 175.078c21.044 20.649 41.522 41.86 62.485 62.59h-3.472c-19.807-19.567-39.125-39.626-59.014-59.112l.001-3.478z"/><path fill="#4D4D4D" d="M103.849 178.556c19.888 19.485 39.207 39.545 59.014 59.112h-1.225c-19.397-19.161-38.309-38.808-57.789-57.885v-1.227z"/><path fill="#FFF" d="M103.849 179.782c19.48 19.078 38.391 38.725 57.789 57.885h-3.676c-17.958-18.217-35.896-36.45-54.113-54.408v-3.477z"/><path fill="#4D4D4D" d="M103.849 183.259c18.217 17.958 36.155 36.191 54.113 54.408h-1.225c-17.545-17.811-35.082-35.631-52.888-53.182v-1.226z"/><path fill="#FFF" d="M103.849 184.485c17.806 17.551 35.342 35.371 52.888 53.182h-3.471c-16.379-16.661-32.771-33.311-49.417-49.704v-3.478z"/><path fill="#4D4D4D" d="M103.849 187.963c16.645 16.396 33.037 33.043 49.417 49.704h-1.225c-15.968-16.256-31.957-32.489-48.191-48.477l-.001-1.227z"/><path fill="#FFF" d="M103.849 189.19c16.235 15.988 32.224 32.222 48.191 48.478h-3.471c-14.795-15.11-29.649-30.164-44.72-44.999v-3.479z"/><path fill="#4D4D4D" d="M103.849 192.668c15.071 14.835 29.925 29.888 44.72 44.999h-1.226c-14.382-14.708-28.835-29.343-43.495-43.771l.001-1.228z"/><path fill="#FFF" d="M103.849 193.896c14.66 14.43 29.113 29.064 43.495 43.771h-3.267c-13.404-13.505-26.757-27.062-40.228-40.5v-3.271z"/><path fill="#4D4D4D" d="M103.849 197.168c13.471 13.438 26.823 26.995 40.228 40.5h-1.225c-12.993-13.099-25.946-26.237-39.002-39.272l-.001-1.228z"/><path fill="#FFF" d="M103.849 198.396c13.057 13.035 26.009 26.174 39.002 39.272h-3.472c-11.824-11.951-23.652-23.897-35.531-35.795l.001-3.477z"/><path fill="#4D4D4D" d="M103.849 201.873c11.878 11.896 23.707 23.844 35.531 35.795h-1.225a10855.514 10855.514 0 0 0-34.306-34.567v-1.228z"/><path fill="#FFF" d="M103.849 203.101a10962.352 10962.352 0 0 1 34.306 34.567h-3.471c-10.242-10.399-20.551-20.731-30.834-31.091l-.001-3.476z"/><path fill="#4D4D4D" d="M103.849 206.577c10.284 10.357 20.592 20.691 30.834 31.091h-1.021c-9.895-10.065-19.881-20.04-29.813-30.067v-1.024z"/><path fill="#FFF" d="M103.849 207.601c9.932 10.027 19.918 20.002 29.813 30.067h-3.675c-8.648-8.86-17.465-17.551-26.138-26.386v-3.681z"/><path fill="#4D4D4D" d="M103.849 211.282c8.672 8.835 17.49 17.525 26.138 26.386h-1.021c-8.303-8.524-16.792-16.86-25.117-25.362v-1.024z"/><path fill="#FFF" d="M103.849 212.304c8.324 8.502 16.814 16.84 25.117 25.363h-3.472c-7.118-7.393-14.519-14.501-21.645-21.886v-3.477z"/><path fill="#4D4D4D" d="M103.849 215.781c7.126 7.385 14.527 14.493 21.645 21.886h-1.225c-6.7-6.993-13.715-13.67-20.42-20.659v-1.227z"/><path fill="#FFF" d="M103.849 217.009c6.705 6.988 13.72 13.666 20.42 20.659h-3.471a797.992 797.992 0 0 0-16.949-16.978v-3.681z"/><path fill="#4D4D4D" d="M103.849 220.69a797.953 797.953 0 0 1 16.949 16.977h-1.226a686.736 686.736 0 0 0-15.723-15.75v-1.227z"/><path fill="#FFF" d="M103.849 221.917a686.736 686.736 0 0 1 15.723 15.75h-3.471a415.792 415.792 0 0 0-12.252-12.273v-3.477z"/><path fill="#4D4D4D" d="M103.849 225.396a418.208 418.208 0 0 1 12.252 12.272h-1.225a335.8 335.8 0 0 0-11.027-11.045v-1.227z"/><path fill="#FFF" d="M103.849 226.622a334.822 334.822 0 0 1 11.027 11.045h-3.471a158.614 158.614 0 0 0-7.556-7.568v-3.477z"/><path fill="#4D4D4D" d="M103.849 230.099a159.081 159.081 0 0 1 7.556 7.568h-1.226a111.348 111.348 0 0 0-6.33-6.341v-1.227z"/><path fill="#FFF" d="M103.849 231.327a110.698 110.698 0 0 1 6.33 6.341h-3.267a25.943 25.943 0 0 0-3.063-3.067v-3.274z"/><path fill="#4D4D4D" d="M103.849 234.599a26.18 26.18 0 0 1 3.063 3.068h-1.225a9.4 9.4 0 0 0-1.838-1.841v-1.227z"/><path fill="#FFF" d="M103.849 235.827a9.346 9.346 0 0 1 1.838 1.841h-1.838v-1.841zM173.276 89.375h3.676v3.682a37.8 37.8 0 0 1-3.676-3.682z"/></g><path fill="none" stroke="#231F20" stroke-width=".5" stroke-miterlimit="10" d="M104.893 89.421l-1.044 84.076 73.021 64.177-12.59-88.374z"/><defs><path id="c" d="M104.893 89.421l71.977 148.253-12.59-88.374z"/></defs><clipPath id="d"><use xlink:href="#c" overflow="visible"/></clipPath><g clip-path="url(#d)"><path fill="#FFF" d="M107.342 89.375a16.627 16.627 0 0 1-2.45 2.455v-2.455h2.45z"/><path fill="#4D4D4D" d="M107.342 89.375h1.225a37.338 37.338 0 0 1-3.674 3.682V91.83a16.766 16.766 0 0 0 2.449-2.455z"/><path fill="#FFF" d="M108.567 89.375h3.47a141.037 141.037 0 0 1-7.144 7.159v-3.478a37.22 37.22 0 0 0 3.674-3.681z"/><path fill="#4D4D4D" d="M112.037 89.375h1.225a194.09 194.09 0 0 1-8.369 8.386v-1.227a142.284 142.284 0 0 0 7.144-7.159z"/><path fill="#FFF" d="M113.262 89.375h3.47a388.358 388.358 0 0 1-11.839 11.863v-3.477a195.233 195.233 0 0 0 8.369-8.386z"/><path fill="#4D4D4D" d="M116.731 89.375h1.225a475.682 475.682 0 0 1-13.064 13.091v-1.228a388.355 388.355 0 0 0 11.839-11.863z"/><path fill="#FFF" d="M117.957 89.375h3.47a757.436 757.436 0 0 1-16.534 16.568v-3.477a475.682 475.682 0 0 0 13.064-13.091z"/><path fill="#4D4D4D" d="M121.426 89.375h1.225a871.191 871.191 0 0 1-17.758 17.795v-1.228a759.57 759.57 0 0 0 16.533-16.567z"/><path fill="#FFF" d="M122.651 89.375h3.47a1248.547 1248.547 0 0 1-21.228 21.272v-3.477a878.903 878.903 0 0 0 17.758-17.795z"/><path fill="#4D4D4D" d="M126.121 89.375h1.225a1400.931 1400.931 0 0 1-22.453 22.5v-1.228a1255.913 1255.913 0 0 0 21.228-21.272z"/><path fill="#FFF" d="M127.346 89.375h3.47a1867.372 1867.372 0 0 1-25.923 25.977v-3.478a1409.158 1409.158 0 0 0 22.453-22.499z"/><path fill="#4D4D4D" d="M130.815 89.375h1.225a2047.982 2047.982 0 0 1-27.148 27.204v-1.227a1861.879 1861.879 0 0 0 25.923-25.977z"/><path fill="#FFF" d="M132.041 89.375h3.47a2605.038 2605.038 0 0 1-30.618 30.682v-3.478a2054.03 2054.03 0 0 0 27.148-27.204z"/><path fill="#4D4D4D" d="M135.51 89.375h1.225a2825.819 2825.819 0 0 1-31.842 31.909v-1.227a2604.937 2604.937 0 0 0 30.617-30.682z"/><path fill="#FFF" d="M136.735 89.375h3.47a3454.846 3454.846 0 0 1-35.312 35.386v-3.477a2825.819 2825.819 0 0 0 31.842-31.909z"/><path fill="#4D4D4D" d="M140.205 89.375h1.021a3657.502 3657.502 0 0 1-36.333 36.409v-1.023a3464.996 3464.996 0 0 0 35.312-35.386z"/><path fill="#FFF" d="M141.225 89.375h3.47c-13.166 13.398-26.397 26.728-39.803 39.886v-3.477a3668.248 3668.248 0 0 0 36.333-36.409z"/><path fill="#4D4D4D" d="M144.695 89.375h1.225a4649.99 4649.99 0 0 1-41.027 41.113v-1.228c13.405-13.157 26.637-26.488 39.802-39.885z"/><path fill="#FFF" d="M145.92 89.375h3.47a5485.97 5485.97 0 0 1-44.498 44.59v-3.478a4636.419 4636.419 0 0 0 41.028-41.112z"/><path fill="#4D4D4D" d="M149.39 89.375h1.224a5791.945 5791.945 0 0 1-45.722 45.817v-1.228a5453.826 5453.826 0 0 0 44.498-44.589z"/><path fill="#FFF" d="M150.614 89.375h3.47a6684.924 6684.924 0 0 1-49.192 49.295v-3.478a5791.945 5791.945 0 0 0 45.722-45.817z"/><path fill="#4D4D4D" d="M154.084 89.375h1.225a7001.48 7001.48 0 0 1-50.417 50.522v-1.228a6684.788 6684.788 0 0 0 49.192-49.294z"/><path fill="#FFF" d="M155.309 89.375h3.266c-17.577 18.25-35.645 36.007-53.683 53.794v-3.271a7042.64 7042.64 0 0 0 50.417-50.523z"/><path fill="#4D4D4D" d="M158.575 89.375h1.225c-17.987 18.656-36.463 36.824-54.907 55.022v-1.229c18.038-17.787 36.105-35.544 53.682-53.793z"/><path fill="#FFF" d="M159.8 89.375h3.47c-19.151 19.808-38.78 39.137-58.377 58.499v-3.477c18.443-18.199 36.92-36.366 54.907-55.022z"/><path fill="#4D4D4D" d="M163.27 89.375h1.224c-19.562 20.214-39.598 39.955-59.602 59.726v-1.227c19.598-19.362 39.227-38.691 58.378-58.499z"/><path fill="#FFF" d="M164.494 89.375h3.47c-20.727 21.365-41.912 42.271-63.072 63.204V149.1c20.004-19.77 40.04-39.511 59.602-59.725z"/><path fill="#4D4D4D" d="M167.964 89.375h1.225c-21.139 21.771-42.728 43.089-64.295 64.431v-1.227c21.159-20.933 42.343-41.839 63.07-63.204z"/><path fill="#FFF" d="M169.188 89.375h3.471c-22.305 22.921-45.043 45.406-67.767 67.908v-3.478c21.569-21.342 43.158-42.659 64.296-64.43z"/><path fill="#4D4D4D" d="M172.659 89.375h1.225c-22.716 23.326-45.86 46.226-68.991 69.135v-1.227c22.723-22.502 45.461-44.988 67.766-67.908z"/><path fill="#FFF" d="M173.884 89.375h3.062v.613c-23.942 24.074-47.874 48.164-72.053 72v-3.478c23.13-22.911 46.275-45.809 68.991-69.135z"/><path fill="#4D4D4D" d="M176.944 89.988v1.023c-23.934 24.082-47.881 48.154-72.052 71.999v-1.022c24.181-23.837 48.111-47.926 72.052-72z"/><path fill="#FFF" d="M176.944 91.011v3.479a8070.902 8070.902 0 0 1-72.052 71.998v-3.477c24.171-23.846 48.119-47.919 72.052-72z"/><path fill="#4D4D4D" d="M176.944 94.488v1.227a10518.319 10518.319 0 0 1-72.052 71.999v-1.227a8044.465 8044.465 0 0 0 72.052-71.999z"/><path fill="#FFF" d="M176.944 95.715v3.477c-23.874 24.142-47.953 48.083-72.052 71.999v-3.478a10473.11 10473.11 0 0 0 72.052-71.998z"/><path fill="#4D4D4D" d="M176.944 99.192v1.228c-23.865 24.149-47.963 48.073-72.052 71.999v-1.227c24.1-23.918 48.179-47.858 72.052-72z"/><path fill="#FFF" d="M176.944 100.42v3.477c-23.846 24.168-47.988 48.047-72.052 71.999v-3.478c24.089-23.925 48.187-47.849 72.052-71.998z"/><path fill="#4D4D4D" d="M176.944 103.897v1.227c-23.841 24.174-47.997 48.039-72.052 71.999v-1.228c24.064-23.951 48.206-47.83 72.052-71.998z"/><path fill="#FFF" d="M176.944 105.124v3.477c-24.135 23.88-47.917 48.121-72.052 72v-3.478c24.056-23.96 48.212-47.825 72.052-71.999z"/><path fill="#4D4D4D" d="M176.944 108.601v1.228c-24.135 23.88-47.917 48.12-72.052 71.999V180.6c24.136-23.878 47.918-48.119 72.052-71.999z"/><path fill="#FFF" d="M176.944 109.829v3.478c-24.135 23.879-47.917 48.119-72.052 71.999v-3.477c24.136-23.881 47.918-48.121 72.052-72z"/><path fill="#4D4D4D" d="M176.944 113.306v1.227c-24.135 23.879-47.917 48.12-72.052 71.999v-1.227c24.136-23.88 47.918-48.118 72.052-71.999z"/><path fill="#FFF" d="M176.944 114.533v3.477c-24.135 23.88-47.917 48.119-72.052 71.999v-3.477c24.136-23.879 47.918-48.119 72.052-71.999z"/><path fill="#4D4D4D" d="M176.944 118.01v1.228c-24.135 23.879-47.917 48.119-72.052 72v-1.229c24.136-23.88 47.918-48.119 72.052-71.999z"/><path fill="#FFF" d="M176.944 119.238v3.477c-24.135 23.88-47.917 48.12-72.052 71.999v-3.479c24.136-23.879 47.918-48.118 72.052-71.997z"/><path fill="#4D4D4D" d="M176.944 122.715v1.228c-24.135 23.879-47.917 48.119-72.052 72v-1.228c24.136-23.881 47.918-48.12 72.052-72z"/><path fill="#FFF" d="M176.944 123.942v3.477c-24.135 23.879-47.917 48.12-72.052 71.999v-3.478c24.136-23.878 47.918-48.118 72.052-71.998z"/><path fill="#4D4D4D" d="M176.944 127.419v1.021c-24.135 23.881-47.917 48.121-72.052 72v-1.023c24.136-23.878 47.918-48.118 72.052-71.998z"/><path fill="#FFF" d="M176.944 128.442v3.478c-24.1 23.915-47.882 48.153-72.052 71.999v-3.477c24.136-23.88 47.918-48.12 72.052-72z"/><path fill="#4D4D4D" d="M176.944 131.919v1.227c-24.135 23.879-47.917 48.121-72.052 72v-1.229c24.17-23.844 47.953-48.083 72.052-71.998z"/><path fill="#FFF" d="M176.944 133.146v3.479c-24.135 23.879-47.917 48.119-72.052 71.998v-3.477c24.136-23.879 47.918-48.12 72.052-72z"/><path fill="#4D4D4D" d="M176.944 136.624v1.227c-24.135 23.879-47.917 48.119-72.052 72v-1.229c24.136-23.879 47.918-48.119 72.052-71.998z"/><path fill="#FFF" d="M176.944 137.851v3.478c-24.135 23.88-47.917 48.12-72.052 71.999v-3.477c24.136-23.881 47.918-48.122 72.052-72z"/><path fill="#4D4D4D" d="M176.944 141.328v1.228c-24.135 23.879-47.917 48.119-72.052 72v-1.229c24.136-23.879 47.918-48.119 72.052-71.999z"/><path fill="#FFF" d="M176.944 142.556v3.272c-24.115 23.899-47.7 48.335-72.052 71.999v-3.271c24.136-23.881 47.918-48.121 72.052-72z"/><path fill="#4D4D4D" d="M176.944 145.828v1.228c-24.104 23.91-47.71 48.325-72.052 71.998v-1.228c24.352-23.662 47.937-48.098 72.052-71.998z"/><path fill="#FFF" d="M176.944 147.056v3.478c-24.072 23.942-47.741 48.295-72.052 71.999v-3.477c24.342-23.675 47.949-48.09 72.052-72z"/><path fill="#4D4D4D" d="M176.944 150.533v1.227c-24.061 23.955-47.751 48.284-72.052 71.999v-1.227c24.312-23.704 47.981-48.056 72.052-71.999z"/><path fill="#FFF" d="M176.944 151.76v3.478c-24.027 23.988-47.783 48.253-72.052 72v-3.479c24.301-23.715 47.992-48.045 72.052-71.999z"/><path fill="#4D4D4D" d="M176.944 155.237v1.227c-24.015 23.999-47.794 48.241-72.052 71.999v-1.228c24.27-23.745 48.025-48.009 72.052-71.998z"/><path fill="#FFF" d="M176.944 156.464v3.477c-23.983 24.031-47.828 48.209-72.052 72v-3.478c24.258-23.757 48.037-48 72.052-71.999z"/><path fill="#4D4D4D" d="M176.944 159.94v1.229c-23.973 24.042-47.839 48.196-72.052 71.999v-1.228c24.225-23.791 48.069-47.966 72.052-72z"/><path fill="#FFF" d="M176.944 161.169v3.477c-23.941 24.074-47.873 48.164-72.052 72v-3.478c24.213-23.803 48.08-47.957 72.052-71.999z"/><path fill="#4D4D4D" d="M176.944 164.646v1.022c-23.833 24.116-47.948 47.95-71.848 71.999-.442.034-.092-.727-.204-1.023 24.181-23.834 48.111-47.924 72.052-71.998z"/><path fill="#FFF" d="M176.944 165.668v3.478c-22.628 23.006-45.604 45.662-68.377 68.521h-3.47c23.9-24.049 48.015-47.883 71.847-71.999z"/><path fill="#4D4D4D" d="M176.944 169.146v1.228c-22.254 22.562-44.818 44.813-67.153 67.294h-1.225c22.774-22.86 45.75-45.517 68.378-68.522z"/><path fill="#FFF" d="M176.944 170.373v3.478c-21.089 21.412-42.504 42.494-63.683 63.817h-3.47c22.335-22.481 44.899-44.733 67.153-67.295z"/><path fill="#4D4D4D" d="M176.944 173.851v1.228c-20.678 21.005-41.688 41.676-62.458 62.59h-1.225c21.179-21.325 42.594-42.408 63.683-63.818z"/><path fill="#FFF" d="M176.944 175.078v3.478c-19.512 19.854-39.375 39.36-58.988 59.112h-3.47c20.771-20.915 41.781-41.585 62.458-62.59z"/><path fill="#4D4D4D" d="M176.944 178.556v1.228c-19.102 19.448-38.556 38.542-57.764 57.885h-1.224c19.615-19.753 39.477-39.259 58.988-59.113z"/><path fill="#FFF" d="M176.944 179.782v3.477a8215.479 8215.479 0 0 0-54.293 54.408h-3.47c19.208-19.342 38.662-38.436 57.763-57.885z"/><path fill="#4D4D4D" d="M176.944 183.259v1.227a7872.616 7872.616 0 0 0-53.069 53.182h-1.225a8215.884 8215.884 0 0 1 54.294-54.409z"/><path fill="#FFF" d="M176.944 184.485v3.478a6876.625 6876.625 0 0 0-49.599 49.704h-3.47a7872.616 7872.616 0 0 1 53.069-53.182z"/><path fill="#4D4D4D" d="M176.944 187.963v1.228a6503.096 6503.096 0 0 0-48.375 48.478h-1.225a6856.82 6856.82 0 0 1 49.6-49.706z"/><path fill="#FFF" d="M176.944 189.19v3.479a5603.252 5603.252 0 0 0-44.904 44.999h-3.47a6522.084 6522.084 0 0 1 48.374-48.478z"/><path fill="#4D4D4D" d="M176.944 192.668v1.228a5317.335 5317.335 0 0 0-43.68 43.771h-1.224a5636.371 5636.371 0 0 1 44.904-44.999z"/><path fill="#FFF" d="M176.944 193.896v3.478a4506.148 4506.148 0 0 0-40.209 40.295h-3.47a5286.369 5286.369 0 0 1 43.679-43.773z"/><path fill="#4D4D4D" d="M176.944 197.373v1.228a4235.833 4235.833 0 0 0-38.985 39.067h-1.225a4493.075 4493.075 0 0 1 40.21-40.295z"/><path fill="#FFF" d="M176.944 198.601v3.477a3515.4 3515.4 0 0 0-35.515 35.59h-3.47a4223.414 4223.414 0 0 1 38.985-39.067z"/><path fill="#4D4D4D" d="M176.944 202.077v1.021a3316.253 3316.253 0 0 0-34.494 34.568h-1.021a3525.69 3525.69 0 0 1 35.515-35.589z"/><path fill="#FFF" d="M176.944 203.101v3.477c-10.379 10.324-20.741 20.668-31.024 31.091h-3.47a3287.215 3287.215 0 0 1 34.494-34.568z"/><path fill="#4D4D4D" d="M176.944 206.577v1.229a2467.696 2467.696 0 0 0-29.8 29.862h-1.225c10.284-10.423 20.646-20.767 31.025-31.091z"/><path fill="#FFF" d="M176.944 207.804v3.479a1932.325 1932.325 0 0 0-26.331 26.386h-3.47a2475.332 2475.332 0 0 1 29.801-29.865z"/><path fill="#4D4D4D" d="M176.944 211.282v1.227a1756.675 1756.675 0 0 0-25.105 25.159h-1.225a1932.252 1932.252 0 0 1 26.33-26.386z"/><path fill="#FFF" d="M176.944 212.508v3.478a1297.07 1297.07 0 0 0-21.635 21.683h-3.47a1756.827 1756.827 0 0 1 25.105-25.161z"/><path fill="#4D4D4D" d="M176.944 215.985v1.229a1154.278 1154.278 0 0 0-20.41 20.454h-1.225a1297.079 1297.079 0 0 1 21.635-21.683z"/><path fill="#FFF" d="M176.944 217.213v3.272a816.976 816.976 0 0 0-17.146 17.182h-3.266a1178.593 1178.593 0 0 1 20.412-20.454z"/><path fill="#4D4D4D" d="M176.944 220.485v1.228a706.47 706.47 0 0 0-15.92 15.955h-1.225a821.82 821.82 0 0 1 17.145-17.183z"/><path fill="#FFF" d="M176.944 221.713v3.478a429.571 429.571 0 0 0-12.45 12.478h-3.47a708.612 708.612 0 0 1 15.92-15.956z"/><path fill="#4D4D4D" d="M176.944 225.19v1.228a351.254 351.254 0 0 0-11.225 11.25h-1.226a434.704 434.704 0 0 1 12.451-12.478z"/><path fill="#FFF" d="M176.944 226.417v3.479a166.688 166.688 0 0 0-7.756 7.771h-3.469a353.336 353.336 0 0 1 11.225-11.25z"/><path fill="#4D4D4D" d="M176.944 229.896v1.227a118.577 118.577 0 0 0-6.53 6.546h-1.226c2.5-2.678 5.086-5.27 7.756-7.773z"/><path fill="#FFF" d="M176.944 231.122v3.479a26.24 26.24 0 0 0-3.062 3.067h-3.47a119.318 119.318 0 0 1 6.532-6.546z"/><path fill="#4D4D4D" d="M176.944 234.599v1.229a9.31 9.31 0 0 0-1.836 1.841h-1.226a26.19 26.19 0 0 1 3.062-3.07z"/><path fill="#FFF" d="M176.944 235.827v1.841h-1.836a9.364 9.364 0 0 1 1.836-1.841z"/></g><path fill="none" stroke="#231F20" stroke-width=".5" stroke-miterlimit="10" d="M104.893 89.421l71.977 148.253-12.59-88.374z"/><path fill="none" stroke="#231F20" stroke-width="1.502" stroke-miterlimit="10" d="M104.893 89.421l-1.044 84.076 73.021 64.177-12.59-88.374z"/><path fill="none" stroke="#231F20" stroke-width="1.502" stroke-miterlimit="10" stroke-dasharray="3.0047,4.5071" d="M108.701 116.751c-1.597 7.799.921 11.177 9.581 8.045 2.518-1.352 4.421-3.07 5.834-5.097 1.167-2.825-.859-5.404-4.422-7.922"/><path fill="none" stroke="#231F20" stroke-width="1.502" stroke-miterlimit="10" d="M119.939 110.118c2.088-4.238 5.588-9.151 13.511-13.204 5.527-2.887 9.396-6.633 10.44-13.327"/><g stroke="#231F20" stroke-miterlimit="10"><path fill="#231F20" stroke-width=".216" d="M110.543 90.036c1.044 0 1.842-.86 1.842-1.904 0-1.105-.798-1.965-1.842-1.965s-1.842.86-1.842 1.965c0 1.044.798 1.904 1.842 1.904z"/><path fill="none" stroke-width="1.502" d="M108.516 78.367c.43.921 1.536 2.457 1.536 3.255 0 1.228.123 3.316.123 4.852 0 .921.185 1.904-.676 2.333-1.904.921-4.421.921-6.571.921"/></g><path fill="none" stroke="#231F20" stroke-width="1.502" stroke-miterlimit="10" d="M110.728 87.825c4.483-7.185 9.273-9.703 13.388-6.203 2.58 2.21 1.904 4.606 0 6.755-3.255 3.624-6.878 5.404-11.607 5.22M108.701 115.891c-.798-3.193-5.159-3.869-12.835-1.351-4.913 1.597-9.765 1.904-14.555 0-6.633-2.702-10.072-7.983-10.317-15.538-.369-9.703-3.869-14.801-9.212-16.95-9.949-3.93-21.679 1.536-35.497 13.634-9.028 7.861-18.118 7.922-25.61-7.308"/><path fill="none" stroke="#231F20" stroke-width="1.502" stroke-miterlimit="10" d="M102.866 96.361c-6.51.553-10.195-.676-11.607-3.992-1.904-4.299.184-9.949 7.431-15.415 6.755-5.097 14.432-6.449 21.679-5.527 10.44 1.29 21.618.553 31.382-6.08 8.352-5.65 11.546-14.678 11.423-23.398-.062-4.852-.859-9.519 1.29-14.125 1.965-4.115 5.221-4.975 10.624-4.729 14.433.676 17.259-9.028 12.406-22.846"/><path fill="none" stroke="#231F20" stroke-width="1.502" stroke-miterlimit="10" stroke-dasharray="7.5118,4.5071" d="M107.472 137.263l29.172-11.423M108.332 146.291l33.839-11.976M108.025 155.073l42.068-14.31M107.472 164.653l47.534-16.888M108.332 173.128l54.29-19.836"/><g stroke="#231F20" stroke-miterlimit="10"><path fill="none" stroke-width=".5" d="M105.139 211.451v23.337M109.13 212.188l-7.984 21.924M112.631 214.214l-14.985 17.871M115.21 217.285l-20.205 11.669M116.623 221.093l-22.969 4.053M116.623 225.146l-22.969-4.053M115.21 228.954l-20.205-11.669M112.631 232.085l-14.985-17.871M109.13 234.112l-7.984-21.924"/><path fill="#FFF" stroke-width="1" d="M105.139 225.944a2.818 2.818 0 0 0 2.825-2.825c0-1.536-1.29-2.765-2.825-2.765-1.535 0-2.825 1.229-2.825 2.765a2.817 2.817 0 0 0 2.825 2.825z"/></g><path fill="#231F20" stroke="#231F20" stroke-width=".045" stroke-linecap="round" stroke-linejoin="round" stroke-miterlimit="10" d="M93.225 223.058l-6.94 2.642c1.044-1.72 1.167-3.316 0-5.099l6.94 2.457zM158.139 183.323l6.939 2.641c-1.104-1.719-1.228-3.316-.062-5.097l-6.877 2.456zM135.907 147.089l7.001 2.641c-1.106-1.72-1.167-3.315-.062-5.098l-6.939 2.457zM125.528 120.987l7.001 2.642c-1.105-1.72-1.167-3.315 0-5.036l-7.001 2.394zM168.026 82.481l6.939 2.641c-1.044-1.781-1.167-3.377 0-5.159l-6.939 2.518zM164.22 47.169l7 2.641c-1.104-1.72-1.166-3.317 0-5.098l-7 2.457z"/><path fill="#231F20" d="M9.518 218.819h.43l2.518 6.08h-.921l-.737-1.842h-1.29v-.676h1.044l-.614-1.658c-.184-.49-.307-.859-.43-1.166v-.738zm-2.764 6.08l2.333-6.08h.43v.738-.123c-.062.43-.184.799-.369 1.166l-.676 1.781h1.044v.676H8.289l-.675 1.842h-.86zM13.018 224.899v-4.422h.675v.614c.307-.43.798-.675 1.413-.675.245 0 .491 0 .736.122.184.062.369.185.492.369s.184.368.246.553v3.438h-.737v-2.701c0-.309 0-.492-.061-.676-.062-.123-.185-.246-.307-.369-.184-.062-.368-.123-.553-.123-.307 0-.614.123-.798.307-.246.186-.369.615-.369 1.167v2.396h-.737zM20.633 224.899v-.613c-.307.49-.798.736-1.413.736-.246 0-.491-.062-.737-.185a.957.957 0 0 1-.491-.368c-.123-.123-.184-.307-.184-.552-.062-.123-.062-.369-.062-.676v-2.763h.737v2.457c0 .43 0 .674.061.797.062.186.123.369.307.492.123.062.308.123.553.123.245 0 .43-.062.614-.123.184-.123.369-.308.43-.492.062-.184.123-.491.123-.859v-2.395h.737v4.422h-.675v-.001zM22.168 223.61l.737-.123c.062.307.185.49.369.675.185.185.492.246.798.246.369 0 .614-.062.798-.246.123-.123.246-.308.246-.491 0-.123-.123-.309-.246-.369a2.48 2.48 0 0 0-.737-.246c-.553-.184-.983-.307-1.167-.369-.184-.123-.368-.244-.491-.43a1.036 1.036 0 0 1-.184-.613.99.99 0 0 1 .184-.554c.062-.123.185-.307.369-.368a.978.978 0 0 1 .43-.246c.246-.062.43-.062.676-.062.369 0 .675 0 .921.122.246.123.43.246.553.43.123.123.246.368.307.676l-.737.062a1.315 1.315 0 0 0-.307-.491c-.185-.123-.368-.184-.675-.184-.369 0-.614.062-.737.123-.184.123-.246.246-.246.43a.47.47 0 0 0 .123.246c.062.061.123.184.246.184.123.062.307.123.675.246.553.123.921.246 1.105.307.246.123.369.246.491.431.123.123.185.368.185.614s-.062.492-.185.736c-.184.184-.368.369-.675.491-.246.123-.553.185-.921.185-.553 0-.982-.123-1.29-.367-.307-.246-.491-.614-.615-1.045z"/><path fill="none" stroke="#231F20" stroke-width=".5" stroke-miterlimit="10" d="M86.96 223.12H27.205M165.692 47.415h44.463M166.921 82.666h43.234M161.578 183.077h48.577M136.46 146.659h73.695M126.326 121.11h83.829"/><path fill="#231F20" d="M215.562 51.161v-6.08h4.419v.737h-3.623v1.842h3.377v.737h-3.377v2.088h3.746v.676zM222.991 46.678h.123c.369 0 .676.062.982.246.307.246.491.491.676.86.123.369.185.737.185 1.167 0 .43-.062.86-.246 1.229-.123.368-.368.614-.675.798s-.676.307-.982.307h-.062v-.614c.368 0 .614-.123.86-.43s.369-.737.369-1.29c0-.614-.123-.982-.369-1.29-.246-.307-.492-.43-.799-.43h-.062v-.553zm-1.842 6.202v-6.141h.675v.614c.122-.246.308-.43.553-.553.185-.061.368-.123.614-.123v.553c-.307 0-.553.184-.799.43-.246.307-.368.737-.368 1.351 0 .553.122.982.308 1.229.246.307.553.43.859.43v.614c-.246 0-.43-.062-.614-.185-.185-.061-.369-.245-.491-.368v2.149h-.737zM225.878 45.94v-.859h.737v.859h-.737zm0 5.221V46.74h.737v4.421h-.737zM229.379 50.485l.122.675c-.184.062-.368.062-.553.062-.245 0-.491 0-.614-.123-.185-.061-.246-.184-.308-.307-.062-.184-.123-.43-.123-.921v-2.518h-.553v-.614h.553v-1.105l.738-.43v1.536h.736v.614h-.736v2.579c0 .184 0 .368.062.43 0 .062.062.062.123.123s.123.061.245.061c.062-.001.185-.001.308-.062zM230.115 51.161v-6.08h.799v2.21c.308-.43.798-.614 1.289-.614.368 0 .614.062.86.184.246.123.43.307.553.553.061.184.123.553.123.982v2.764h-.737v-2.764c0-.368-.062-.675-.246-.859-.185-.123-.368-.246-.675-.246-.246 0-.432.062-.676.184-.186.123-.307.246-.369.492-.123.185-.123.43-.123.798v2.395l-.798.001zM237.915 49.748l.798.123a2.07 2.07 0 0 1-.675 1.044c-.369.246-.799.369-1.29.369h-.062v-.614h.062c.246 0 .491-.061.676-.246.245-.123.368-.368.491-.676zm-1.228-3.07c.614 0 1.105.184 1.475.553.367.43.553.982.553 1.719v.185h-2.025v-.615h1.228c0-.368-.123-.614-.308-.798-.184-.307-.49-.43-.92-.43v-.614h-.003zm0 4.606a2.037 2.037 0 0 1-1.474-.614c-.368-.368-.553-.921-.553-1.658 0-.737.185-1.351.553-1.72.369-.43.858-.614 1.474-.614v.614c-.307 0-.615.123-.859.307a1.253 1.253 0 0 0-.368.921h1.229v.614h-1.291c.062.491.186.859.431 1.167.246.246.491.369.86.369v.614h-.002zM239.635 45.081h.737v6.08h-.737zM241.539 45.94v-.859h.737v.859h-.737zm0 5.221V46.74h.737v4.421h-.737zM246.329 50.608c-.307.246-.553.43-.799.552-.184 0-.307.062-.43.062v-.553a.985.985 0 0 0 .553-.184c.186-.123.369-.307.492-.492.062-.184.123-.43.123-.736v-.307c-.307.123-.674.185-1.166.308v-.676c.492-.062.859-.123 1.166-.185v-.245c0-.308-.062-.492-.246-.614-.184-.184-.49-.246-.858-.246h-.063v-.614h.185c.368 0 .676 0 .921.123a1.2 1.2 0 0 1 .553.307c.061.123.184.307.184.553.062.123.062.307.062.676v.982c0 .675 0 1.167.062 1.351 0 .185.062.369.185.491h-.799a1.19 1.19 0 0 1-.125-.553zm-1.228.614c-.123.062-.308.062-.431.062-.491 0-.858-.123-1.104-.369s-.43-.553-.43-.921c0-.184.061-.368.184-.552a.866.866 0 0 1 .369-.43c.184-.123.369-.184.553-.246.123-.061.369-.123.675-.123l.185-.062v.676h-.062c-.308 0-.554.061-.677.123-.122.062-.245.123-.307.246s-.062.246-.062.368c0 .185.062.369.185.492.184.123.368.184.674.184h.246v.552h.002zm0-3.93c-.308 0-.553.062-.676.184-.184.123-.307.308-.367.615l-.738-.062c.062-.307.123-.553.308-.798.123-.185.369-.307.675-.43.246-.061.492-.123.799-.123v.614h-.001zM248.171 45.081h.737v6.08h-.737zM252.103 49.871l.797-.123c0 .308.123.492.308.676.185.185.491.246.798.246.369 0 .614-.061.799-.246.123-.123.245-.307.245-.491 0-.123-.062-.246-.245-.369-.123-.061-.369-.184-.738-.246-.553-.123-.981-.246-1.166-.369s-.369-.245-.491-.43a1.035 1.035 0 0 1-.185-.614c0-.186.062-.369.185-.553.062-.123.185-.308.368-.369a.987.987 0 0 1 .43-.246c.246-.062.43-.062.675-.062.369 0 .677 0 .921.123.246.123.43.246.553.43.123.123.246.368.308.676l-.737.061a1.362 1.362 0 0 0-.307-.492c-.184-.122-.369-.184-.676-.184-.369 0-.614.062-.737.123-.185.123-.246.246-.246.43 0 .123.062.185.123.246a.486.486 0 0 0 .245.246c.123 0 .309.061.676.184.553.123.921.246 1.105.307.246.123.367.246.49.43s.186.368.186.614-.062.491-.186.737c-.184.184-.369.368-.675.491-.245.123-.553.185-.921.185-.553 0-.982-.123-1.29-.369s-.491-.612-.612-1.042zM259.595 51.161v-.614c-.369.492-.799.737-1.414.737-.244 0-.49-.062-.736-.185a.954.954 0 0 1-.491-.368c-.123-.123-.185-.307-.246-.553 0-.123-.062-.368-.062-.675v-2.764h.799v3.254c.061.185.184.369.307.492.186.123.369.123.614.123.184 0 .43-.062.614-.123.184-.123.307-.307.43-.492a2.86 2.86 0 0 0 .122-.859v-2.395h.737v4.421l-.674.001zM263.095 50.485l.061.675c-.184.062-.367.062-.553.062-.246 0-.49 0-.613-.123-.186-.061-.246-.184-.307-.307-.062-.184-.123-.43-.123-.921v-2.518h-.554v-.614h.554v-1.105l.736-.43v1.536h.799v.614h-.799v2.579c0 .184.061.368.061.43s.062.062.123.123c.062.061.123.061.246.061s.184-.001.369-.062zM266.718 51.161v-.614c-.369.492-.798.737-1.412.737-.246 0-.492-.062-.736-.185-.246-.061-.369-.184-.492-.368-.123-.123-.184-.307-.246-.553 0-.123-.062-.368-.062-.675v-2.764h.799v3.254c.062.185.185.369.308.492.185.123.369.123.554.123.245 0 .43-.062.676-.123a.96.96 0 0 0 .369-.492c.123-.184.184-.491.184-.859v-2.395h.736v4.421l-.678.001zM268.56 51.161V46.74h.676v.675c.123-.307.308-.491.431-.614.185-.123.308-.123.491-.123.246 0 .553.062.798.246l-.246.675a.99.99 0 0 0-.554-.184c-.184 0-.307.061-.49.184-.123.062-.186.246-.246.369-.062.307-.123.553-.123.921v2.272h-.737zM274.396 49.748l.797.123c-.123.43-.368.798-.676 1.044-.307.246-.736.369-1.289.369h-.062v-.614h.062c.307 0 .551-.061.736-.246a1.09 1.09 0 0 0 .432-.676zm-1.229-3.07h.062c.551 0 1.043.184 1.412.553.369.43.553.982.553 1.719v.185h-2.026v-.615h1.29a1.957 1.957 0 0 0-.307-.798c-.246-.307-.553-.43-.922-.43h-.062v-.614zm0 4.606a2.043 2.043 0 0 1-1.475-.614c-.368-.369-.553-.921-.553-1.658 0-.737.184-1.351.553-1.72a2 2 0 0 1 1.475-.614v.614a1.17 1.17 0 0 0-.798.307c-.246.246-.369.553-.431.921h1.229v.614h-1.229c0 .491.123.859.369 1.167.246.246.553.369.859.369v.614zM215.562 85.675v-6.08h.796v2.518h3.196v-2.518h.797v6.08h-.797v-2.886h-3.196v2.886zM221.579 87.395l-.123-.676c.184 0 .307.062.43.062.184 0 .307-.062.43-.123a.478.478 0 0 0 .246-.245c.062-.062.123-.246.246-.553 0 0 0-.061.062-.184l-1.721-4.422h.86l.921 2.579c.123.308.184.676.307 1.044.062-.369.185-.676.308-1.044l.921-2.579h.737l-1.659 4.483c-.184.491-.307.86-.43 1.044-.123.246-.246.43-.43.553-.186.123-.369.123-.615.123-.183-.001-.306-.001-.49-.062zM225.878 85.675v-4.422h.676v.614c.123-.185.307-.369.553-.491.246-.123.492-.184.799-.184s.553.061.798.184c.185.123.368.307.43.553.368-.491.798-.737 1.351-.737.431 0 .799.123 1.045.369.246.184.307.614.307 1.105v3.009h-.736v-2.763c0-.308 0-.553-.062-.676s-.123-.246-.246-.307-.307-.123-.491-.123c-.307 0-.553.123-.737.307-.184.246-.307.553-.307.983v2.579h-.736v-2.886c0-.308-.062-.553-.185-.737a.939.939 0 0 0-.614-.246c-.244 0-.43.062-.613.185-.186.123-.309.246-.369.491-.062.185-.123.492-.123.921v2.272h-.74zM236.011 84.263l.737.122c-.123.431-.308.799-.677 1.044-.307.246-.735.369-1.227.369h-.062v-.614h.062c.245 0 .491-.062.676-.246.184-.122.368-.368.491-.675zm-1.228-3.071c.614 0 1.104.184 1.474.553.368.43.553.982.553 1.719v.184h-2.025v-.614h1.229c-.062-.368-.123-.614-.308-.798-.246-.307-.554-.43-.921-.43l-.002-.614zm0 4.606a2.035 2.035 0 0 1-1.474-.614c-.369-.368-.615-.921-.615-1.658 0-.737.246-1.351.615-1.72.367-.43.859-.614 1.474-.614v.614c-.369 0-.614.123-.86.307a1.248 1.248 0 0 0-.367.921h1.229v.614h-1.29c.062.492.185.86.43 1.167.246.184.492.368.86.368l-.002.615zM237.731 85.675v-4.422h.674v.614c.308-.43.799-.675 1.414-.675.246 0 .49 0 .736.123.185.062.368.246.491.368.123.185.185.369.246.553v3.439h-.737v-2.702c0-.307 0-.492-.062-.676-.062-.123-.185-.246-.308-.368-.185-.062-.369-.123-.553-.123-.308 0-.613.123-.798.307-.246.184-.369.614-.369 1.167v2.395h-.734zM244.793 85.675v-4.422h.675v.676c.184-.307.369-.491.492-.614.184-.123.307-.123.491-.123.245 0 .491.061.799.246l-.308.675a.987.987 0 0 0-.553-.184.668.668 0 0 0-.43.184c-.123.062-.186.184-.246.368-.123.308-.123.553-.123.921v2.272l-.797.001zM250.688 84.263l.799.122a2.057 2.057 0 0 1-.676 1.044c-.369.246-.797.369-1.289.369h-.062v-.614h.062c.307 0 .492-.062.736-.246.184-.122.307-.368.43-.675zm-1.227-3.071c.614 0 1.104.184 1.474.553.369.43.553.982.553 1.719v.184h-2.026v-.614h1.228c0-.368-.123-.614-.246-.798-.246-.307-.553-.43-.92-.43h-.062v-.614zm0 4.606a2.035 2.035 0 0 1-1.474-.614c-.369-.368-.553-.921-.553-1.658 0-.737.184-1.351.553-1.72.367-.43.859-.614 1.474-.614v.614c-.308 0-.614.123-.86.307a2.068 2.068 0 0 0-.367.921h1.228v.614h-1.29c.062.492.184.86.43 1.167.246.184.553.368.86.368v.615zM252.409 85.675v-4.422h.676v.614c.123-.185.307-.369.553-.491.245-.123.491-.184.799-.184.307 0 .613.061.797.184.186.123.369.307.431.553.368-.491.798-.737 1.351-.737.491 0 .799.123 1.045.369.244.184.367.614.367 1.105v3.009h-.736v-2.763c0-.308-.062-.553-.123-.676 0-.123-.123-.246-.246-.307s-.246-.123-.43-.123c-.308 0-.615.123-.799.307-.185.246-.307.553-.307.983v2.579h-.737v-2.886c0-.308-.062-.553-.185-.737a.816.816 0 0 0-.613-.246c-.184 0-.369.062-.553.185s-.307.246-.43.491c-.062.185-.123.492-.123.921v2.272h-.737zM259.532 85.675v-4.422h.676v.614c.309-.43.798-.675 1.413-.675.246 0 .491 0 .737.123.185.062.369.246.492.368.123.185.184.369.246.553v3.439h-.738v-2.702c0-.307 0-.492-.061-.676-.062-.123-.184-.246-.307-.368-.186-.062-.369-.123-.553-.123-.308 0-.615.123-.799.307-.246.184-.369.614-.369 1.167v2.395h-.737zM267.147 85.123c-.246.246-.553.43-.797.492-.123.061-.246.123-.431.123v-.553c.246 0 .368-.062.554-.185.246-.123.367-.307.49-.491a2.3 2.3 0 0 0 .123-.737v-.307c-.246.123-.613.184-1.167.307v-.675a9.542 9.542 0 0 0 1.167-.184v-.246c0-.307-.062-.491-.186-.614-.184-.184-.49-.246-.859-.246h-.123v-.614h.246c.368 0 .675 0 .859.123.246.062.43.184.553.307s.186.307.246.553v1.657c0 .676.062 1.167.062 1.352.062.184.123.307.184.491h-.797a1.224 1.224 0 0 1-.124-.553zm-1.227.614c-.123.062-.246.062-.368.062-.492 0-.861-.123-1.168-.369a1.248 1.248 0 0 1-.367-.921c0-.184.061-.43.123-.553.123-.184.246-.368.43-.43.123-.123.307-.246.49-.246.185-.062.369-.123.676-.123l.185-.061v.675h-.062c-.308 0-.491.061-.676.123a.48.48 0 0 0-.246.246c-.062.123-.123.245-.123.368 0 .185.062.369.246.491.123.123.369.185.614.185h.246v.553zm0-3.931c-.308 0-.491.062-.676.185s-.308.307-.369.614l-.737-.061c.062-.307.184-.553.307-.798.185-.184.369-.307.676-.43.246-.062.553-.123.799-.123v.613zM268.989 85.675v-4.422h.677v.614c.368-.43.798-.675 1.412-.675.307 0 .553 0 .737.123a.8.8 0 0 1 .49.368c.123.185.186.369.246.553.062.123.062.368.062.737v2.702h-.737v-2.702c0-.307-.062-.492-.123-.676-.062-.123-.123-.246-.308-.368a1.144 1.144 0 0 0-.49-.123c-.369 0-.614.123-.859.307-.246.184-.308.614-.308 1.167v2.395h-.799zM275.377 85l.123.676c-.185.062-.431.062-.552.062-.307 0-.492-.062-.676-.123a.75.75 0 0 1-.308-.308c-.062-.184-.062-.491-.062-.921v-2.518h-.553v-.614h.553v-1.105l.736-.43v1.535h.737v.614h-.737v2.58c0 .184 0 .369.062.43 0 .062.062.062.122.123.062 0 .123.062.246.062.064-.001.186-.001.309-.063zM275.808 84.385l.736-.122c.061.307.184.491.368.675s.43.246.798.246c.369 0 .614-.062.736-.246.185-.123.308-.307.308-.491 0-.123-.123-.307-.246-.369a2.402 2.402 0 0 0-.798-.246c-.553-.184-.921-.245-1.105-.368a1.124 1.124 0 0 1-.49-.43 1.036 1.036 0 0 1-.186-.614c0-.184.062-.369.123-.553.123-.123.246-.307.369-.369.123-.123.307-.184.491-.246.246-.061.43-.061.675-.061.309 0 .614 0 .921.123.246.123.431.246.554.43.123.123.246.368.246.675l-.738.061c0-.184-.123-.368-.246-.491a1.235 1.235 0 0 0-.674-.185c-.369 0-.615.062-.737.123-.185.123-.246.246-.246.43 0 .123.062.185.123.246.062.123.123.185.245.185.062.061.308.123.676.245.553.123.921.246 1.105.308.246.123.369.246.492.43.123.123.184.369.184.614 0 .246-.061.492-.184.737-.185.184-.369.369-.676.492-.246.123-.553.184-.921.184-.554 0-.981-.123-1.29-.369-.307-.245-.49-.613-.613-1.044zM217.647 118.348h.431l2.519 6.08h-.922l-.736-1.903h-1.291v-.614h1.045l-.614-1.719c-.185-.43-.308-.799-.431-1.105v-.739h-.001zm-2.762 6.079l2.333-6.08h.43v.737-.123c-.062.369-.184.737-.307 1.167l-.675 1.781h.981v.615h-1.229l-.675 1.902h-.858zM221.149 124.427v-4.422h.675v.615c.308-.492.799-.737 1.413-.737.246 0 .49.062.736.123.185.123.369.246.491.369.123.185.185.368.246.553v3.501h-.737v-2.701c0-.308 0-.554-.062-.676a.63.63 0 0 0-.308-.369c-.185-.123-.308-.123-.553-.123-.308 0-.553.062-.798.246-.246.246-.369.614-.369 1.168v2.455h-.735v-.002zM228.272 119.146v-.798h.737v.798h-.737zm0 5.281v-4.422h.737v4.422h-.737zM230.177 124.427v-4.422h.676v.615c.308-.492.797-.737 1.412-.737.246 0 .491.062.676.123.246.123.43.246.553.369.062.185.184.368.184.553.062.185.062.431.062.737v2.764h-.737v-2.701c0-.308-.062-.554-.062-.676a.554.554 0 0 0-.369-.369c-.123-.123-.307-.123-.491-.123-.308 0-.614.062-.86.246-.184.246-.307.614-.307 1.168v2.455h-.736v-.002zM236.563 123.752l.062.614c-.185.062-.368.123-.554.123-.245 0-.49-.062-.613-.184-.186-.062-.246-.185-.307-.308-.062-.123-.123-.431-.123-.86v-2.58h-.553v-.553h.553v-1.044l.736-.491v1.535h.799v.553h-.799v2.58c0 .246 0 .369.062.43 0 .062.062.123.123.123.062.062.122.062.245.062h.369zM240.31 122.954l.737.123c-.123.43-.308.799-.675 1.044-.307.245-.737.368-1.229.368h-.062v-.614h.062c.246 0 .491-.062.676-.185.184-.184.369-.368.491-.736zm-1.228-3.071c.614 0 1.104.184 1.474.614.368.368.553.982.553 1.658v.246h-2.026v-.614h1.228c-.062-.369-.123-.677-.307-.86-.245-.307-.553-.43-.921-.43v-.614h-.001zm0 4.606c-.614 0-1.106-.184-1.474-.614-.43-.369-.614-.921-.614-1.659 0-.736.246-1.29.614-1.719.367-.43.859-.614 1.474-.614v.614c-.369 0-.614.123-.86.368-.246.185-.369.491-.369.921h1.229v.613h-1.29c0 .492.184.859.43 1.105s.491.369.86.369v.616zM242.03 124.427v-4.422h.676v.615c.123-.309.307-.492.43-.615.184-.061.307-.123.491-.123.246 0 .491.062.798.246l-.307.676c-.123-.123-.307-.123-.491-.123s-.368 0-.491.123-.185.246-.246.43c-.123.246-.123.554-.123.859v2.334h-.737zM244.854 124.427v-4.422h.676v.615c.185-.309.307-.492.49-.615.123-.061.308-.123.431-.123.308 0 .553.062.799.246l-.246.676c-.185-.123-.368-.123-.553-.123s-.308 0-.431.123c-.184.123-.246.246-.307.43a3.606 3.606 0 0 0-.123.859v2.334h-.736zM250.565 124.427v-.675c-.307.491-.797.737-1.351.737a2.3 2.3 0 0 1-.737-.123 2.179 2.179 0 0 1-.553-.368c-.061-.185-.184-.369-.184-.554-.062-.185-.062-.43-.062-.736v-2.703h.737v2.457c0 .369 0 .614.062.737.062.245.123.368.307.491.123.123.307.185.553.185s.43-.062.614-.185a.829.829 0 0 0 .43-.491 2.83 2.83 0 0 0 .123-.86v-2.334h.737v4.422h-.676zM254.312 119.883h.062c.43 0 .736.123 1.044.307.246.184.491.43.614.797.185.369.246.738.246 1.168s-.062.859-.246 1.228-.368.614-.737.86a1.737 1.737 0 0 1-.921.246h-.062v-.614c.308 0 .615-.123.86-.431.246-.245.369-.676.369-1.289 0-.553-.123-.983-.369-1.29-.245-.245-.491-.431-.86-.431v-.551zm-1.903 6.202v-6.08h.736v.553c.123-.246.308-.368.492-.491s.43-.184.676-.184v.554c-.308.062-.614.185-.799.49-.307.307-.369.737-.369 1.29 0 .554.062.983.308 1.29.246.246.491.369.86.369v.614c-.246 0-.431-.062-.614-.123a1.122 1.122 0 0 1-.491-.431v2.149h-.799zM258.796 123.752l.123.614c-.184.062-.369.123-.553.123-.307 0-.491-.062-.614-.184a.624.624 0 0 1-.368-.308c-.062-.123-.062-.431-.062-.86v-2.58h-.553v-.553h.553v-1.044l.738-.491v1.535h.736v.553h-.736v2.58c0 .246 0 .369.061.43 0 .062.061.123.123.123.061.062.123.062.246.062h.306zM262.603 122.954l.737.123c-.123.43-.307.799-.675 1.044-.309.245-.736.368-1.229.368h-.062v-.614h.062c.246 0 .49-.062.676-.185.184-.184.367-.368.491-.736zm-1.228-3.071c.554 0 1.044.184 1.413.614.43.368.613.982.613 1.658v.246h-2.026v-.614h1.228c-.061-.369-.123-.677-.307-.86-.246-.307-.553-.43-.921-.43v-.614zm0 4.606c-.614 0-1.167-.184-1.535-.614-.368-.369-.553-.921-.553-1.659 0-.736.185-1.29.614-1.719.369-.43.859-.614 1.474-.614v.614c-.369 0-.614.123-.858.368-.246.185-.369.491-.369.921h1.228v.613h-1.29c0 .492.184.859.43 1.105.184.246.491.369.859.369v.616zM267.147 124.427v-.613c-.246.43-.674.676-1.166.676v-.614c.369 0 .613-.123.859-.369.246-.307.307-.676.307-1.229 0-.613-.061-1.043-.307-1.351a1.073 1.073 0 0 0-.859-.43v-.614c.246 0 .43.062.613.184.246.123.369.246.492.43v-2.149h.799v6.08h-.738zm-1.166.062h-.062c-.369 0-.676-.062-.983-.307-.307-.185-.49-.431-.674-.799-.186-.307-.246-.736-.246-1.167 0-.491.061-.858.246-1.228.122-.368.367-.614.613-.798a2.064 2.064 0 0 1 1.044-.307h.062v.614c-.369 0-.614.123-.86.43-.246.246-.308.677-.308 1.29 0 .553.123.983.308 1.229.246.307.553.43.86.43v.613zM271.078 123.076l.799-.123c0 .307.123.553.308.675.185.184.492.246.797.246.369 0 .615-.062.799-.186.123-.184.246-.307.246-.49 0-.186-.062-.307-.246-.43-.123-.062-.368-.123-.736-.246-.553-.123-.921-.246-1.167-.369-.185-.062-.368-.245-.491-.43s-.185-.367-.185-.553c0-.246.062-.368.185-.552.062-.185.184-.308.368-.43.123-.062.246-.185.431-.246.246-.062.43-.062.676-.062.369 0 .675.062.92.123.246.123.431.246.554.431s.246.368.308.674l-.736.123c-.061-.246-.123-.43-.307-.553-.186-.123-.369-.184-.677-.184-.368 0-.614.061-.737.184s-.244.246-.244.369.061.184.123.307a.856.856 0 0 0 .246.185c.123 0 .307.062.674.185.554.123.922.246 1.106.368.245.062.368.185.491.369s.186.369.186.614c0 .307-.062.49-.186.736-.184.246-.369.369-.676.492-.246.123-.553.184-.922.184-.551 0-.981-.122-1.289-.367-.31-.245-.495-.553-.618-1.044zM278.571 124.427v-.675c-.369.491-.799.737-1.413.737-.246 0-.491-.062-.737-.123-.186-.123-.369-.245-.49-.368a2.17 2.17 0 0 1-.246-.554v-3.439h.736v3.194c.062.245.184.368.307.491.185.123.369.185.615.185.184 0 .43-.062.613-.185.186-.123.307-.308.43-.491a2.83 2.83 0 0 0 .123-.86v-2.334h.737v4.422h-.675zM282.071 123.752l.062.614c-.184.062-.368.123-.553.123-.246 0-.491-.062-.614-.184-.186-.062-.246-.185-.309-.308-.061-.123-.122-.431-.122-.86v-2.58h-.554v-.553h.554v-1.044l.737-.491v1.535h.799v.553h-.799v2.58c0 .246.062.369.062.43 0 .062.062.123.123.123.062.062.185.062.246.062h.368zM285.694 124.427v-.675c-.368.491-.797.737-1.412.737-.246 0-.491-.062-.737-.123-.246-.123-.368-.245-.491-.368-.123-.185-.184-.369-.246-.554 0-.185-.061-.43-.061-.736v-2.703h.798v3.194c.062.245.185.368.308.491a.991.991 0 0 0 .553.185c.246 0 .49-.062.675-.185s.308-.308.431-.491c.061-.185.122-.491.122-.86v-2.334h.737v4.422h-.677zM287.537 124.427v-4.422h.676v.615c.185-.309.308-.492.491-.615.123-.061.246-.123.43-.123.246 0 .553.062.799.246l-.246.676c-.184-.123-.367-.123-.553-.123-.184 0-.307 0-.43.123-.184.123-.246.246-.307.43a3.606 3.606 0 0 0-.123.859v2.334h-.737zM293.372 122.954l.798.123c-.123.43-.368.799-.675 1.044-.309.245-.737.368-1.29.368h-.062v-.614h.062c.308 0 .553-.062.737-.185.184-.184.368-.368.43-.736zm-1.228-3.071h.062c.553 0 1.044.184 1.413.614.369.368.553.982.553 1.658v.246h-2.025v-.614h1.289c-.062-.369-.184-.677-.307-.86-.246-.307-.553-.43-.921-.43h-.062v-.614h-.002zm0 4.606c-.613 0-1.105-.184-1.474-.614-.368-.369-.553-.921-.553-1.659 0-.736.184-1.29.553-1.719.431-.43.921-.614 1.474-.614v.614c-.308 0-.613.123-.797.368-.246.185-.369.491-.431.921h1.229v.613h-1.229c0 .492.123.859.368 1.105.246.246.553.369.859.369v.616zM297.485 119.146v-.798h.738v.798h-.738zm0 5.281v-4.422h.738v4.422h-.738zM299.39 124.427v-4.422h.676v.615c.308-.492.797-.737 1.412-.737.246 0 .492.062.736.123.186.123.369.246.492.369.123.185.184.368.246.553v3.501h-.737v-2.701c0-.308 0-.554-.062-.676a.628.628 0 0 0-.307-.369c-.185-.123-.367-.123-.553-.123-.307 0-.613.062-.798.246-.246.246-.369.614-.369 1.168v2.455h-.737v-.002zM303.812 123.076l.737-.123c.062.307.185.553.368.675.186.184.432.246.799.246.368 0 .614-.062.737-.186.185-.184.246-.307.246-.49a.555.555 0 0 0-.185-.43c-.123-.062-.369-.123-.799-.246-.553-.123-.921-.246-1.105-.369-.245-.062-.368-.245-.49-.43a.99.99 0 0 1-.186-.553c0-.246.062-.368.123-.552.123-.185.246-.308.369-.43.123-.062.307-.185.491-.246.185-.062.431-.062.677-.062.307 0 .613.062.92.123.246.123.43.246.553.431s.246.368.246.674l-.736.123a.778.778 0 0 0-.246-.553 1.237 1.237 0 0 0-.676-.184c-.369 0-.614.061-.737.184-.185.123-.245.246-.245.369s.061.184.123.307a.836.836 0 0 0 .245.185c.062 0 .308.062.676.185.552.123.921.246 1.104.368.185.062.369.185.492.369s.185.369.185.614c0 .307-.062.49-.246.736-.123.246-.308.369-.614.492-.246.123-.553.184-.921.184-.553 0-1.044-.122-1.29-.367-.308-.245-.492-.553-.615-1.044zM311.427 122.954l.737.123c-.123.43-.308.799-.675 1.044-.307.245-.737.368-1.229.368h-.062v-.614h.062c.245 0 .491-.062.676-.185.185-.184.37-.368.491-.736zm-1.228-3.071c.614 0 1.104.184 1.474.614.368.368.553.982.553 1.658v.246H310.2v-.614h1.229c-.062-.369-.123-.677-.308-.86-.246-.307-.554-.43-.921-.43l-.001-.614zm0 4.606c-.614 0-1.106-.184-1.474-.614-.369-.369-.615-.921-.615-1.659 0-.736.246-1.29.615-1.719.367-.43.859-.614 1.474-.614v.614c-.369 0-.614.123-.86.368-.246.185-.367.491-.367.921h1.229v.613h-1.29c.062.492.185.859.43 1.105.246.246.492.369.86.369l-.002.616zM313.147 124.427v-4.422h.676v.615c.121-.309.307-.492.43-.615.184-.061.307-.123.491-.123.245 0 .491.062.799.246l-.246.676c-.185-.123-.368-.123-.553-.123s-.308 0-.491.123a.978.978 0 0 0-.246.43c-.123.246-.123.554-.123.859v2.334h-.737z"/><path fill="#231F20" d="M317.63 123.752l.062.614c-.185.062-.368.123-.553.123-.246 0-.492-.062-.615-.184-.185-.062-.246-.185-.308-.308s-.122-.431-.122-.86v-2.58h-.554v-.553h.554v-1.044l.736-.491v1.535h.798v.553h-.798v2.58c0 .246.062.369.062.43 0 .062.062.123.123.123.062.062.123.062.246.062h.369zM321.376 122.954l.798.123c-.122.43-.368.799-.737 1.044-.307.245-.736.368-1.228.368h-.062v-.614h.062c.246 0 .491-.062.675-.185.247-.184.369-.368.492-.736zm-1.229-3.071c.615 0 1.105.184 1.474.614.368.368.553.982.553 1.658v.246h-2.026v-.614h1.229c-.062-.369-.123-.677-.309-.86-.184-.307-.551-.43-.92-.43v-.614h-.001zm0 4.606c-.614 0-1.105-.184-1.474-.614-.368-.369-.553-.921-.553-1.659 0-.736.185-1.29.553-1.719.368-.43.859-.614 1.474-.614v.614c-.369 0-.614.123-.859.368-.246.185-.369.491-.369.921h1.229v.613h-1.289c.061.492.184.859.43 1.105s.492.369.859.369v.616zM325.981 124.427v-.613c-.307.43-.676.676-1.229.676v-.614h.062c.307 0 .553-.123.797-.369.246-.307.369-.676.369-1.229 0-.613-.123-1.043-.369-1.351-.245-.307-.491-.43-.859-.43v-.614c.246 0 .43.062.614.184.245.123.43.246.553.43v-2.149h.737v6.08h-.675zm-1.227.062h-.062c-.308 0-.676-.062-.922-.307a1.87 1.87 0 0 1-.735-.799 3.265 3.265 0 0 1-.246-1.167c0-.491.123-.858.246-1.228.123-.368.368-.614.675-.798.307-.185.614-.307.982-.307h.062v.614c-.308 0-.614.123-.86.43-.184.246-.307.677-.307 1.29 0 .553.123.983.369 1.229.246.307.49.43.798.43v.613zM218.079 143.403c.246 0 .49 0 .675.062.308.062.614.246.86.431.307.246.553.613.736 1.043.185.431.246.922.246 1.475 0 .43-.062.859-.185 1.229-.123.308-.246.613-.431.859a1.21 1.21 0 0 1-.553.553c-.185.122-.43.245-.676.307-.246.061-.43.061-.675.123v-.737c.185 0 .368-.062.491-.123.246-.062.431-.185.553-.308.246-.184.369-.43.492-.736.062-.369.123-.737.123-1.229 0-.615-.062-1.105-.307-1.475-.186-.309-.431-.553-.738-.676-.184-.062-.367-.062-.613-.123v-.675zm-2.517 6.08v-6.142h2.088c.123 0 .307 0 .43.062v.677H216.359v4.667H218.08v.736H215.562zM221.579 144.203v-.86h.798v.86h-.798zm0 5.28v-4.422h.798v4.422h-.798zM223.483 149.483v-4.422h.675v.676c.185-.307.307-.553.491-.614a.7.7 0 0 1 .492-.185c.246 0 .49.123.736.246l-.246.676c-.186-.062-.369-.123-.553-.123-.186 0-.307.062-.43.123-.123.123-.246.246-.308.431a3.601 3.601 0 0 0-.122.86v2.332h-.735zM229.379 148.071l.735.062c-.122.491-.307.798-.674 1.044-.308.245-.737.368-1.229.368h-.062v-.614h.062c.246 0 .491-.062.676-.185.184-.121.369-.367.492-.675zm-1.23-3.133c.615 0 1.106.185 1.475.614.369.431.553.982.553 1.72v.185h-2.027v-.614h1.229c-.062-.367-.123-.675-.308-.859-.246-.246-.553-.43-.922-.43v-.616zm0 4.607c-.613 0-1.104-.185-1.473-.553-.369-.431-.615-.982-.615-1.72s.246-1.289.615-1.719a2.03 2.03 0 0 1 1.473-.615v.615c-.367 0-.613.122-.858.367a1.25 1.25 0 0 0-.369.921h1.228v.614h-1.289c.062.492.185.859.43 1.105.245.244.49.369.859.369v.616h-.001zM233.985 147.826l.736.123c-.123.491-.308.921-.615 1.167-.369.307-.736.43-1.228.43-.614 0-1.106-.184-1.474-.553-.369-.43-.553-.982-.553-1.721 0-.49.062-.858.246-1.228.123-.368.368-.676.736-.798a2.074 2.074 0 0 1 1.044-.307c.491 0 .858.123 1.167.369s.491.613.614 1.043l-.737.123c-.061-.307-.184-.553-.367-.676-.186-.184-.431-.246-.676-.246-.369 0-.676.123-.921.43-.246.246-.308.676-.308 1.289 0 .554.062.983.308 1.291.245.246.554.369.921.369.245 0 .491-.062.737-.246.185-.183.308-.429.37-.859zM236.994 148.81l.123.676c-.246 0-.431.061-.614.061-.246 0-.43-.061-.613-.123-.123-.122-.246-.244-.308-.367s-.123-.431-.123-.861v-2.578h-.554v-.553h.554v-1.105l.798-.43v1.535h.737v.553h-.737v3.009c.062.062.062.123.123.185h.245c.123-.002.246-.002.369-.002zM237.731 144.203v-.86h.736v.86h-.736zm0 5.28v-4.422h.736v4.422h-.736zM241.416 144.938c.614 0 1.104.185 1.474.614.369.368.614.921.614 1.658 0 .554-.123.981-.308 1.351-.122.308-.367.554-.735.737-.308.185-.676.245-1.044.245v-.613c.369 0 .676-.123.921-.369.246-.308.369-.737.369-1.352 0-.492-.123-.921-.369-1.229-.246-.246-.553-.43-.921-.43l-.001-.612zm-2.089 2.334c0-.858.246-1.412.676-1.842a2.185 2.185 0 0 1 1.413-.492v.614c-.369 0-.675.185-.921.431-.246.307-.368.735-.368 1.289 0 .553.123.982.368 1.289.246.246.553.369.921.369v.614c-.614 0-1.104-.185-1.536-.553-.367-.428-.553-.981-.553-1.719zM244.362 149.483v-4.422h.677v.614c.308-.491.798-.737 1.412-.737.245 0 .491.062.737.185a.96.96 0 0 1 .49.369c.123.123.186.307.246.553v3.438h-.736v-2.701c0-.307 0-.553-.062-.676a.621.621 0 0 0-.307-.369c-.185-.062-.369-.123-.553-.123-.308 0-.553.062-.799.307-.246.186-.369.553-.369 1.167v2.396h-.736zM253.269 144.938c.614 0 1.105.185 1.475.614.43.368.613.921.613 1.658 0 .554-.123.981-.307 1.351-.123.308-.369.554-.736.737-.308.185-.676.245-1.045.245v-.613c.369 0 .676-.123.922-.369.246-.308.367-.737.367-1.352 0-.492-.123-.921-.367-1.229-.246-.246-.553-.43-.922-.43v-.612zm-2.088 2.334c0-.858.245-1.412.676-1.842a2.18 2.18 0 0 1 1.412-.492v.614c-.369 0-.676.185-.92.431-.246.307-.369.735-.369 1.289 0 .553.123.982.369 1.289.246.246.553.369.92.369v.614c-.613 0-1.104-.185-1.535-.553-.37-.428-.553-.981-.553-1.719zM256.399 149.483v-3.868h-.674v-.554h.674v-.492c0-.307 0-.49.062-.674.062-.185.184-.308.368-.431s.431-.184.799-.184c.185 0 .431 0 .675.061l-.123.675c-.121-.061-.307-.061-.43-.061a.937.937 0 0 0-.49.123 1.218 1.218 0 0 0-.123.552v.431h.858v.553h-.858v3.869h-.738zM260.944 149.483v-4.422h.676v.614c.123-.245.307-.368.553-.553.246-.123.492-.185.799-.185s.613.062.797.246c.185.123.369.308.431.553.368-.553.798-.797 1.351-.797.491 0 .799.123 1.045.369.245.246.368.613.368 1.104v3.071h-.737v-2.825a1.53 1.53 0 0 0-.123-.614c0-.123-.123-.246-.246-.307-.121-.123-.244-.123-.43-.123-.307 0-.553.062-.798.307-.185.186-.308.553-.308.983v2.579h-.736v-2.887c0-.307-.062-.553-.184-.736-.123-.185-.307-.246-.614-.246-.185 0-.369.062-.554.123-.184.123-.307.307-.43.492a3.738 3.738 0 0 0-.123.92v2.334h-.736zM270.956 149.483v-.676c-.369.492-.798.737-1.413.737-.246 0-.491 0-.737-.123a3.34 3.34 0 0 1-.49-.368 2.11 2.11 0 0 1-.246-.552v-3.438h.736v2.457c0 .367 0 .613.062.797 0 .186.123.308.246.431.184.123.367.185.613.185.185 0 .431-.062.615-.185s.307-.245.43-.491c.062-.185.123-.43.123-.859v-2.334h.737v4.422h-.677v-.003zM272.491 148.133l.736-.123c.062.308.185.554.369.737.184.123.43.186.799.186.367 0 .613-.062.736-.186.184-.123.246-.307.246-.491s-.062-.307-.184-.43c-.123-.062-.369-.123-.799-.246-.553-.123-.92-.246-1.104-.369-.246-.062-.369-.185-.492-.369s-.185-.43-.185-.614.062-.369.123-.553c.123-.185.246-.308.369-.43.123-.062.307-.123.492-.184.184-.062.43-.123.674-.123.308 0 .615.062.922.184.246.062.43.186.553.369.123.185.246.43.246.676l-.737.123a.778.778 0 0 0-.246-.553 1.237 1.237 0 0 0-.676-.184c-.368 0-.614.062-.735.184-.186.123-.246.246-.246.43a.47.47 0 0 0 .123.246.825.825 0 0 0 .246.184c.061.062.307.123.676.186.553.123.92.246 1.104.369a.956.956 0 0 1 .492.367c.123.185.185.431.185.676 0 .246-.062.492-.246.676-.123.246-.308.43-.615.552a3.677 3.677 0 0 1-.92.123c-.554 0-1.045-.062-1.291-.308-.308-.245-.492-.613-.615-1.105zM279.983 147.826l.736.123c-.123.491-.307.921-.676 1.167-.309.307-.736.43-1.167.43-.614 0-1.104-.184-1.474-.553-.369-.43-.553-.982-.553-1.721 0-.49.062-.858.246-1.228.123-.368.368-.676.674-.798.369-.184.676-.307 1.105-.307s.859.123 1.167.369.491.613.554 1.043l-.677.123c-.123-.307-.246-.553-.368-.676-.185-.184-.43-.246-.676-.246-.369 0-.676.123-.921.43-.246.246-.369.676-.369 1.289 0 .554.123.983.369 1.291.246.246.491.369.86.369.307 0 .552-.062.736-.246.25-.183.373-.429.434-.859zM281.334 143.343h.737v6.143h-.737zM286.248 148.071l.798.062a1.834 1.834 0 0 1-.675 1.044 2.276 2.276 0 0 1-1.29.368h-.061v-.614h.061c.307 0 .492-.062.736-.185.185-.121.308-.367.431-.675zm-1.227-3.133c.613 0 1.104.185 1.474.614.368.431.553.982.553 1.72v.185h-2.026v-.614h1.229c0-.367-.123-.675-.246-.859-.246-.246-.553-.43-.921-.43h-.062v-.616h-.001zm0 4.607c-.615 0-1.106-.185-1.475-.553-.369-.431-.553-.982-.553-1.72s.184-1.289.553-1.719a2.031 2.031 0 0 1 1.475-.615v.615a1.21 1.21 0 0 0-.86.367c-.185.246-.368.553-.368.921h1.229v.614h-1.289c.062.492.184.859.43 1.105s.553.369.859.369v.616h-.001zM290.056 148.133l.736-.123c.061.308.123.554.368.737.185.123.43.186.737.186.367 0 .613-.062.797-.186.185-.123.246-.307.246-.491s-.062-.307-.246-.43c-.062-.062-.307-.123-.736-.246-.553-.123-.921-.246-1.167-.369a.96.96 0 0 1-.492-.369c-.062-.184-.122-.43-.122-.614s.061-.369.122-.553c.062-.185.185-.308.369-.43.123-.062.308-.123.491-.184.186-.062.43-.123.613-.123.369 0 .676.062.922.184.244.062.49.186.613.369.123.185.186.43.246.676l-.736.123c-.062-.246-.123-.43-.307-.553-.123-.123-.369-.184-.677-.184s-.554.062-.735.184a.56.56 0 0 0-.186.43c0 .062 0 .184.062.246.061.062.184.123.307.184.062.062.307.123.676.186.491.123.859.246 1.105.369a.943.943 0 0 1 .49.367c.123.185.184.431.184.676 0 .246-.122.492-.244.676-.123.246-.369.43-.614.552-.308.062-.614.123-.921.123-.613 0-1.044-.062-1.352-.308-.304-.245-.488-.613-.549-1.105zM297.485 149.483v-.676c-.307.492-.797.737-1.412.737-.246 0-.491 0-.676-.123a2.117 2.117 0 0 1-.553-.368c-.062-.184-.185-.367-.185-.552-.062-.185-.062-.369-.062-.737v-2.701h.737v2.457c0 .367 0 .613.062.797.062.186.123.308.308.431.123.123.308.185.553.185.246 0 .431-.062.614-.185.186-.123.368-.245.43-.491.061-.185.123-.43.123-.859v-2.334h.737v4.422h-.677v-.003zM300.987 148.81l.123.676c-.246 0-.43.061-.553.061a1.89 1.89 0 0 1-.677-.123c-.123-.122-.246-.244-.308-.367-.061-.123-.061-.431-.061-.861v-2.578h-.554v-.553h.554v-1.105l.736-.43v1.535h.736v.553h-.736v3.009c.061.062.061.123.123.185h.307c.064-.002.187-.002.31-.002zM304.61 149.483v-.676c-.307.492-.799.737-1.414.737-.245 0-.49 0-.736-.123-.184-.122-.369-.245-.49-.368a2.11 2.11 0 0 1-.246-.552v-3.438h.736v2.457c0 .367 0 .613.062.797 0 .186.123.308.244.431.186.123.369.185.614.185.185 0 .431-.062.614-.185.186-.123.369-.245.43-.491.061-.185.123-.43.123-.859v-2.334h.737v4.422h-.675v-.003zM306.453 149.483v-4.422h.676v.676c.185-.307.308-.553.491-.614a.701.701 0 0 1 .492-.185c.246 0 .492.123.736.246l-.246.676c-.185-.062-.369-.123-.553-.123-.186 0-.308.062-.431.123-.122.123-.245.246-.308.431a3.6 3.6 0 0 0-.123.86v2.332h-.734zM312.349 148.071l.737.062c-.123.491-.308.798-.676 1.044-.308.245-.737.368-1.228.368h-.062v-.614h.062c.246 0 .49-.062.674-.185.185-.121.37-.367.493-.675zm-1.228-3.133c.614 0 1.043.185 1.474.614.368.431.553.982.553 1.72v.185h-2.026v-.614h1.228c-.062-.367-.123-.675-.308-.859-.245-.246-.552-.43-.92-.43v-.616h-.001zm0 4.607c-.615 0-1.106-.185-1.474-.553-.431-.431-.614-.982-.614-1.72s.184-1.289.614-1.719a2.027 2.027 0 0 1 1.474-.615v.615c-.369 0-.615.122-.86.367a1.25 1.25 0 0 0-.369.921h1.229v.614h-1.29c0 .492.184.859.43 1.105.184.246.492.369.86.369v.616zM313.761 148.133l.737-.123c.062.308.123.554.368.737.185.123.43.186.798.186.308 0 .553-.062.737-.186.184-.123.244-.307.244-.491s-.061-.307-.244-.43c-.062-.062-.307-.123-.737-.246-.554-.123-.921-.246-1.167-.369a.95.95 0 0 1-.491-.369c-.062-.184-.123-.43-.123-.614s.062-.369.123-.553c.062-.185.246-.308.368-.43.123-.062.307-.123.491-.184.185-.062.43-.123.614-.123.369 0 .676.062.92.184.308.062.492.186.615.369.123.185.185.43.246.676l-.738.123c-.062-.246-.123-.43-.308-.553-.122-.123-.368-.184-.675-.184s-.553.062-.736.184a.56.56 0 0 0-.186.43c0 .062 0 .184.062.246.061.062.184.123.307.184.062.062.307.123.675.186.491.123.86.246 1.104.369a.952.952 0 0 1 .492.367c.123.185.184.431.184.676 0 .246-.123.492-.245.676-.123.246-.369.43-.614.552-.307.062-.613.123-.921.123-.614 0-1.044-.062-1.351-.308-.303-.245-.487-.613-.549-1.105zM215.499 186.394v-6.142h1.229l1.475 4.36c.123.367.184.676.246.859.062-.184.185-.553.369-.981l1.412-4.238h1.105v6.142h-.798v-5.098l-1.72 5.098h-.737l-1.781-5.22v5.22h-.8zM225.448 186.394v-.676c-.368.492-.799.737-1.412.737-.246 0-.492 0-.737-.123a3.37 3.37 0 0 1-.491-.369c-.123-.185-.184-.369-.246-.552v-3.439h.737V185.228c.062.185.185.307.308.43.185.123.369.185.615.185a1.178 1.178 0 0 0 1.043-.676 2.83 2.83 0 0 0 .123-.86v-2.332h.737v4.422h-.677v-.003zM226.983 185.043l.736-.123c.062.308.186.554.369.675.184.186.43.246.799.246.307 0 .613-.062.736-.185a.556.556 0 0 0 .246-.491.555.555 0 0 0-.184-.43c-.123-.062-.369-.123-.799-.246-.553-.123-.921-.246-1.104-.369-.246-.062-.369-.246-.491-.43-.123-.123-.184-.369-.184-.553 0-.186.061-.369.123-.554.123-.185.246-.308.367-.43.123-.062.309-.185.492-.185a2.19 2.19 0 0 1 .676-.123c.307 0 .614.062.92.186a.898.898 0 0 1 .554.367c.122.186.184.431.245.676l-.736.123a.778.778 0 0 0-.246-.553 1.236 1.236 0 0 0-.675-.185c-.368 0-.614.062-.737.185-.184.123-.246.246-.246.369s0 .184.062.307c.061.062.184.123.307.184.061 0 .307.062.676.186.553.123.92.246 1.104.367a.966.966 0 0 1 .491.368c.123.185.184.369.184.677 0 .246-.061.43-.246.676-.123.246-.307.367-.613.49-.246.123-.554.185-.922.185-.553 0-1.043-.123-1.289-.308-.307-.244-.492-.611-.615-1.102zM234.415 184.735l.736.123c-.062.492-.246.922-.613 1.168-.307.307-.737.43-1.229.43-.553 0-1.043-.184-1.412-.553-.369-.43-.553-.982-.553-1.721 0-.49.061-.92.245-1.228.123-.368.369-.677.677-.86.369-.123.674-.246 1.104-.246.43 0 .86.123 1.167.369s.492.614.553 1.045l-.736.122c-.062-.308-.185-.553-.369-.676-.123-.185-.368-.246-.614-.246-.368 0-.675.123-.921.431-.246.246-.368.676-.368 1.289 0 .553.122.983.368 1.291.246.245.49.368.859.368.308 0 .553-.062.737-.245.246-.184.369-.492.369-.861zM235.827 180.252h.736v6.142h-.736zM240.74 184.981l.798.062a2.068 2.068 0 0 1-.676 1.044c-.369.246-.799.368-1.291.368h-.061v-.614h.061c.308 0 .492-.062.738-.185.185-.182.308-.367.431-.675zm-1.227-3.132c.613 0 1.104.186 1.473.614.369.368.554.981.554 1.72v.185h-2.026v-.614h1.229c0-.368-.123-.676-.246-.859-.246-.308-.553-.431-.982-.431v-.615h-.002zm0 4.606c-.615 0-1.105-.185-1.475-.554-.369-.43-.553-.981-.553-1.719 0-.738.184-1.291.553-1.72.367-.43.859-.614 1.475-.614v.614c-.308 0-.615.123-.861.368a1.412 1.412 0 0 0-.367.921h1.229v.614h-1.291c.062.49.184.859.43 1.105.246.244.554.368.861.368v.617z"/></svg>