<svg version="1.1" xmlns="http://www.w3.org/2000/svg" x="0" y="0" width="408.121" height="263.589" viewBox="-40.709 1.087 408.121 263.589" xml:space="preserve"><path fill="none" stroke="#000" stroke-width=".5" d="M7.405 30.093v201.572H324.78V30.093z"/><path fill="none" stroke="#000" d="M6.059 82.029s9.447-.288 12.759 4.128c3.186 4.247 23.88 94.059 24.069 95.12.508 2.812 1.26 5.254 1.446 6.379.188 1.125 2.814 6.003 6.566 5.063 3.75-.937 6.94-7.128 7.878-8.252.939-1.125 9.194-23.453 9.943-25.894.752-2.435 9.877-20.838 10.388-21.676.687-1.119 4.55-9.094 14.122-10.439 9.824-1.381 13.507.506 20.57 2.042 9.89 2.149 21.355 6.552 24.151 7.937 1.238.614 12.967 5.999 15.454 7.093 2.483 1.093 18.958 10.609 23.57 13.92 6.165 4.427 24.074 16.028 25.514 17.073 3.377 2.438 7.473 3.899 14.072 8.07 7.131 4.502 34.324 16.552 35.835 17.636 5.771 4.12 38.444 23.141 45.403 24.015"/><path fill="none" stroke="#000" stroke-dasharray="3.929,3.929" d="M8.566 219.774L54.08 69.716"/><path fill="none" stroke="#000" stroke-dasharray="4.089,4.089" d="M57.283 72.308l31.372 120.201"/><path fill="none" stroke="#000" stroke-dasharray="4.134,4.134" d="M97.271 197.222h105.885"/><path fill="none" stroke="#000" stroke-dasharray="4.33,4.33" d="M212.591 190.934l22.539-31.449"/><path fill="none" stroke="#000" stroke-dasharray="3.821,3.821" d="M240.796 149.002l13.296-31.449"/><path fill="none" stroke="#000" stroke-dasharray="4.369,4.369" d="M257.417 105.71l5.686-28.054"/><path fill="none" stroke="#000" d="M263.621 75.104l.516-2.547m-9.159 42.899l.887-2.097.518-2.55m-19.751 46.581l1.503-2.096.888-2.099m-33.406 44.027h2.463l1.503-2.096m-120.314-.259l.616 2.354h2.46M54.758 67.479l.678-2.241.615 2.357M6.527 226.492l.68-2.239"/><path fill="none" stroke="#000" stroke-width=".5" d="M-8.612 80.21h25.271M-8.612 130.881h25.271M-8.612 181.479h25.271M315.26 80.169h25.269M315.231 130.904h25.272M315.231 181.391h25.272M301.01 221.708v25.271M252.177 221.73v25.271M202.717 221.73v25.271M153.808 221.666v25.271M55.577 221.666v25.271M104.544 13.673v248.982"/><path d="M-22.423 74.144h-.02l-1.029.592-.144-.572 1.307-.762h.6v6.199h-.714v-5.457zM-17.133 76.49c0 2.261-.716 3.186-1.612 3.186-.963 0-1.545-1.145-1.545-3.166 0-2.089.62-3.186 1.631-3.186 1.002.001 1.526 1.193 1.526 3.166zm-2.423.011c-.01 1.498.248 2.547.859 2.547.591 0 .83-1.059.83-2.547 0-1.45-.239-2.546-.83-2.546-.602-.001-.859 1.048-.859 2.546zM-13.465 76.49c0 2.261-.715 3.186-1.612 3.186-.962 0-1.544-1.145-1.544-3.166 0-2.089.619-3.186 1.63-3.186 1.002.001 1.526 1.193 1.526 3.166zm-2.422.011c-.01 1.498.249 2.547.858 2.547.591 0 .83-1.059.83-2.547 0-1.45-.239-2.546-.83-2.546-.6-.001-.858 1.048-.858 2.546zM-9.796 76.49c0 2.261-.716 3.186-1.612 3.186-.963 0-1.544-1.145-1.544-3.166 0-2.089.62-3.186 1.63-3.186 1.002.001 1.526 1.193 1.526 3.166zm-2.421.011c-.01 1.498.248 2.547.859 2.547.592 0 .829-1.059.829-2.547 0-1.45-.237-2.546-.829-2.546-.601-.001-.859 1.048-.859 2.546zM-17.84 124.866a2 2 0 0 0-.438.058c-1.031.256-1.44 1.296-1.594 2.24h.029c.239-.353.582-.591 1.049-.591.782 0 1.337.724 1.337 1.907 0 1.175-.536 2.119-1.528 2.119-1.086 0-1.629-1.098-1.629-2.529 0-1.202.313-2.126.801-2.795a2.565 2.565 0 0 1 1.507-.972 8.73 8.73 0 0 1 .467-.059v.622zm-.352 3.672c0-.936-.335-1.401-.831-1.401-.315 0-.628.199-.811.666a1.294 1.294 0 0 0-.048.373c.009 1.27.392 1.852.908 1.852.409-.002.782-.413.782-1.49zM-13.798 127.412c0 2.26-.716 3.187-1.612 3.187-.964 0-1.545-1.146-1.545-3.167 0-2.089.621-3.187 1.63-3.187 1.002 0 1.527 1.194 1.527 3.167zm-2.423.01c-.01 1.497.248 2.548.859 2.548.591 0 .83-1.061.83-2.548 0-1.449-.239-2.546-.83-2.546-.601 0-.859 1.048-.859 2.546zM-10.129 127.412c0 2.26-.715 3.187-1.612 3.187-.962 0-1.545-1.146-1.545-3.167 0-2.089.62-3.187 1.631-3.187 1.001 0 1.526 1.194 1.526 3.167zm-2.423.01c-.009 1.497.249 2.548.859 2.548.591 0 .83-1.061.83-2.548 0-1.449-.239-2.546-.83-2.546-.601 0-.859 1.048-.859 2.546zM-20.9 181.35v-.476l.516-.707c.743-1.029 1.61-2.194 1.61-3.357 0-.686-.293-1.104-.876-1.104-.449 0-.746.236-.896.343l-.182-.554c.209-.183.648-.42 1.211-.42 1.031 0 1.468.762 1.468 1.698 0 1.165-.754 2.288-1.526 3.338l-.41.571v.021h2.061v.648l-2.976-.001zM-14.132 178.242c0 2.26-.715 3.184-1.612 3.184-.963 0-1.544-1.145-1.544-3.164 0-2.09.621-3.187 1.63-3.187 1.001-.001 1.526 1.192 1.526 3.167zm-2.421.009c-.01 1.496.248 2.545.858 2.545.593 0 .83-1.059.83-2.545 0-1.451-.237-2.546-.83-2.546-.601 0-.858 1.048-.858 2.546zM-10.462 178.242c0 2.26-.715 3.184-1.611 3.184-.963 0-1.545-1.145-1.545-3.164 0-2.09.621-3.187 1.63-3.187 1.001-.001 1.526 1.192 1.526 3.167zm-2.423.009c-.009 1.496.249 2.545.857 2.545.592 0 .83-1.059.83-2.545 0-1.451-.238-2.546-.83-2.546-.599 0-.857 1.048-.857 2.546zM341.02 73.667h.734v6.601h-.734v-6.601zM345.673 77.959c0 1.784-.82 2.383-1.536 2.383-.828 0-1.497-.753-1.497-2.375 0-1.679.754-2.384 1.544-2.384.831.001 1.489.774 1.489 2.376zm-2.301 0c0 .762.137 1.805.805 1.805.629 0 .76-1.079.76-1.805 0-.705-.131-1.793-.781-1.793-.657 0-.784 1.089-.784 1.793zM349.275 79.677c0 1.211-.154 1.668-.456 2.012-.279.305-.706.487-1.23.487-.393 0-.772-.095-1.014-.229l.173-.573c.181.094.486.2.858.2.583 0 .945-.363.945-1.413v-.466h-.02c-.151.362-.494.562-.888.562-.82 0-1.354-.925-1.354-2.28 0-1.697.773-2.393 1.458-2.393.486 0 .717.325.859.583h.021l.039-.515h.647c-.01.315-.038.724-.038 1.438v2.585zm-.724-2.434c0-.113-.011-.236-.039-.333-.076-.314-.248-.696-.667-.696-.532 0-.821.714-.821 1.735 0 1.173.374 1.707.821 1.707.229 0 .517-.105.656-.657.039-.143.05-.287.05-.419v-1.337zM352.82 74.612c-.125 0-.268.019-.438.057-1.03.257-1.44 1.298-1.595 2.242h.028c.237-.353.583-.591 1.05-.591.781 0 1.334.723 1.334 1.907 0 1.174-.535 2.118-1.525 2.118-1.088 0-1.632-1.097-1.632-2.529 0-1.201.315-2.125.801-2.794a2.57 2.57 0 0 1 1.508-.972c.19-.028.354-.048.468-.058v.62h.001zm-.352 3.673c0-.936-.335-1.403-.831-1.403-.313 0-.628.2-.81.667-.02.057-.049.191-.049.373.01 1.27.393 1.851.908 1.851.409-.002.782-.411.782-1.488zM341.02 124.494h.734v6.601h-.734v-6.601zM345.673 128.786c0 1.784-.82 2.383-1.536 2.383-.828 0-1.497-.753-1.497-2.374 0-1.679.754-2.386 1.544-2.386.831.001 1.489.775 1.489 2.377zm-2.301 0c0 .762.137 1.804.805 1.804.629 0 .76-1.078.76-1.804 0-.706-.131-1.794-.781-1.794-.657 0-.784 1.088-.784 1.794zM349.275 130.504c0 1.211-.154 1.669-.456 2.011-.279.306-.706.488-1.23.488-.393 0-.772-.096-1.014-.229l.173-.571c.181.095.486.199.858.199.583 0 .945-.363.945-1.412v-.469h-.02c-.151.364-.494.564-.888.564-.82 0-1.354-.927-1.354-2.28 0-1.697.773-2.395 1.458-2.395.486 0 .717.328.859.584h.021l.039-.515h.647c-.01.315-.038.724-.038 1.438v2.587zm-.724-2.433c0-.114-.011-.236-.039-.334-.076-.314-.248-.695-.667-.695-.532 0-.821.715-.821 1.734 0 1.175.374 1.707.821 1.707.229 0 .517-.104.656-.657.039-.144.05-.286.05-.419v-1.336zM352.01 131.095v-1.718h-2.063v-.495l2.015-3.988h.713v3.882h.668v.602h-.668v1.718h-.665zm0-2.319v-1.746c0-.429.026-.811.057-1.221h-.038c-.211.496-.342.782-.524 1.163l-.859 1.784v.02h1.364zM341.02 175.323h.734v6.601h-.734v-6.601zM345.673 179.615c0 1.783-.82 2.384-1.536 2.384-.828 0-1.497-.753-1.497-2.376 0-1.678.754-2.384 1.544-2.384.831 0 1.489.773 1.489 2.376zm-2.301 0c0 .761.137 1.804.805 1.804.629 0 .76-1.078.76-1.804 0-.706-.131-1.794-.781-1.794-.657.002-.784 1.087-.784 1.794zM349.275 181.331c0 1.211-.154 1.668-.456 2.012-.279.305-.706.487-1.23.487-.393 0-.772-.095-1.014-.229l.173-.572c.181.095.486.199.858.199.583 0 .945-.362.945-1.411v-.468h-.02c-.151.363-.494.563-.888.563-.82 0-1.354-.926-1.354-2.28 0-1.697.773-2.395 1.458-2.395.486 0 .717.327.859.584h.021l.039-.515h.647c-.01.314-.038.725-.038 1.438v2.585zm-.724-2.432c0-.114-.011-.236-.039-.333-.076-.314-.248-.697-.667-.697-.532 0-.821.715-.821 1.736 0 1.174.374 1.705.821 1.705.229 0 .517-.104.656-.656.039-.143.05-.287.05-.419v-1.336zM350.093 181.923v-.478l.515-.706c.744-1.028 1.61-2.193 1.61-3.356 0-.688-.295-1.106-.876-1.106-.448 0-.744.236-.896.344l-.182-.554c.209-.184.648-.42 1.209-.42 1.031 0 1.469.761 1.469 1.697 0 1.165-.752 2.289-1.524 3.338l-.41.573v.021h2.061v.648l-2.976-.001zM342.127 115.206l-1.471-6.429h.795l.618 3.014c.151.726.343 1.649.457 2.472h.029c.095-.83.275-1.728.428-2.488l.611-2.997h.782l-1.497 6.429h-.752zM345.594 109.398c0 .288-.17.478-.446.478-.237 0-.421-.189-.421-.478 0-.285.189-.477.43-.477.269 0 .437.192.437.477zm-.792 5.808v-4.615h.734v4.615h-.734zM346.547 111.783c0-.393-.027-.849-.038-1.192h.657l.038.734h.02c.152-.439.543-.803.973-.803.057 0 .104 0 .152.01v.744h-.152c-.468 0-.812.429-.887.953a2.616 2.616 0 0 0-.028.421v2.556h-.734v-3.423zM351.304 114.157c0 .354.009.755.048 1.049h-.659l-.045-.486h-.03c-.198.354-.524.563-.925.563-.607 0-1.085-.516-1.085-1.318 0-1.162.924-1.667 1.963-1.678v-.143c0-.62-.162-1.04-.735-1.04-.285 0-.544.085-.762.239l-.163-.518c.2-.141.621-.304 1.078-.304.926 0 1.316.602 1.316 1.632l-.001 2.004zm-.714-1.344c-.382 0-1.27.077-1.27 1.077 0 .611.306.82.564.82.323 0 .59-.238.676-.698.02-.085.028-.18.028-.266l.002-.933zM352.342 108.607h.733v6.6h-.733v-6.6zM355.657 108.607h.735v6.6h-.735v-6.6zM360.309 112.899c0 1.783-.816 2.385-1.534 2.385-.83 0-1.497-.755-1.497-2.376 0-1.679.755-2.385 1.545-2.385.83 0 1.486.773 1.486 2.376zm-2.296 0c0 .763.131 1.804.801 1.804.629 0 .763-1.078.763-1.804 0-.705-.134-1.794-.783-1.794-.658 0-.781 1.088-.781 1.794zM363.56 114.157c0 .354.011.755.048 1.049h-.656l-.049-.486h-.028c-.2.354-.524.563-.924.563-.611 0-1.087-.516-1.087-1.318 0-1.162.924-1.667 1.962-1.678v-.143c0-.62-.161-1.04-.733-1.04-.286 0-.543.085-.762.239l-.161-.518c.198-.141.618-.304 1.075-.304.927 0 1.316.602 1.316 1.632l-.001 2.004zm-.715-1.344c-.383 0-1.267.077-1.267 1.077 0 .611.303.82.56.82.324 0 .594-.238.678-.698.02-.085.028-.18.028-.266l.001-.933zM367.373 108.607v5.492c0 .315.029.841.039 1.107h-.63l-.048-.571h-.027c-.152.325-.479.649-.973.649-.772 0-1.335-.839-1.335-2.367 0-1.631.677-2.393 1.384-2.393.342 0 .668.153.85.543h.02v-2.461h.72zm-.725 3.748c0-.094 0-.21-.009-.305-.049-.486-.334-.896-.687-.896-.61 0-.82.849-.82 1.763 0 .973.247 1.754.781 1.754.229 0 .546-.123.706-.791.02-.086.027-.19.027-.306l.002-1.219zM49.181 241.333c-.125 0-.267.018-.439.058-1.029.256-1.438 1.297-1.592 2.24h.028c.237-.352.583-.59 1.049-.59.782 0 1.335.724 1.335 1.907 0 1.173-.535 2.118-1.526 2.118-1.087 0-1.63-1.098-1.63-2.528 0-1.202.313-2.127.8-2.797a2.565 2.565 0 0 1 1.507-.97c.191-.028.353-.049.467-.06v.622zm-.353 3.672c0-.935-.333-1.401-.83-1.401-.315 0-.628.2-.81.666-.02.059-.048.191-.048.373.01 1.27.391 1.851.906 1.851.411-.002.782-.412.782-1.489zM82.194 241.532h-.018l-1.032.593-.143-.572 1.307-.763h.602v6.198h-.716v-5.456zM84.385 246.989v-.477l.515-.705c.744-1.028 1.612-2.193 1.612-3.357 0-.687-.295-1.106-.878-1.106-.448 0-.744.239-.896.344l-.181-.555c.21-.182.65-.42 1.211-.42 1.031 0 1.47.763 1.47 1.699 0 1.164-.756 2.288-1.528 3.337l-.411.573v.021h2.06v.648h-2.974v-.002zM288.896 241.532h-.021l-1.029.593-.143-.572 1.307-.763h.6v6.198h-.713v-5.456zM291.087 246.989v-.477l.515-.705c.744-1.028 1.613-2.193 1.613-3.357 0-.687-.298-1.106-.879-1.106-.448 0-.744.239-.897.344l-.18-.555c.209-.182.648-.42 1.212-.42 1.03 0 1.469.763 1.469 1.699 0 1.164-.756 2.288-1.527 3.337l-.409.573v.021h2.059v.648h-2.975v-.002zM191.619 241.333c-.126 0-.268.018-.439.058-1.029.256-1.439 1.297-1.594 2.24h.028c.238-.352.581-.59 1.05-.59.782 0 1.334.724 1.334 1.907 0 1.173-.536 2.118-1.526 2.118-1.086 0-1.632-1.098-1.632-2.528 0-1.202.314-2.127.804-2.797a2.561 2.561 0 0 1 1.504-.97c.19-.028.353-.049.47-.06v.621h.001zm-.354 3.672c0-.935-.336-1.401-.83-1.401-.314 0-.63.2-.811.666a1.198 1.198 0 0 0-.051.373c.012 1.27.394 1.851.91 1.851.409-.002.782-.412.782-1.489zM242.996 246.438c.162 0 .294-.021.458-.059.314-.076.618-.247.848-.487.343-.372.621-.943.726-1.753h-.02c-.238.286-.563.514-1.021.514-.771 0-1.344-.714-1.344-1.841 0-1.134.609-2.1 1.563-2.1 1.059 0 1.554 1.125 1.554 2.49 0 1.23-.304 2.184-.819 2.871a2.402 2.402 0 0 1-1.43.934 2.124 2.124 0 0 1-.516.059v-.628zm.372-3.683c0 .905.344 1.344.839 1.344.305 0 .61-.21.763-.553.038-.095.058-.181.058-.392 0-1.308-.372-1.868-.867-1.868-.373 0-.803.401-.793 1.469zM37.684 256.883h-1.173v-.657h3.08v.657h-1.173v5.771h-.734v-5.771zM40.943 256.846c0 .287-.171.478-.447.478-.239 0-.419-.19-.419-.478 0-.286.19-.477.429-.477.266 0 .437.191.437.477zm-.791 5.808v-4.616h.734v4.616h-.734zM41.906 259.231c0-.544-.028-.821-.038-1.192h.639l.038.571h.019c.201-.372.554-.64 1.04-.64.429 0 .791.202.964.706h.018c.124-.23.286-.419.458-.523.182-.125.399-.185.639-.185.62 0 1.106.449 1.106 1.633v3.053h-.725v-2.893c0-.599-.084-1.18-.648-1.18-.305 0-.573.258-.678.696-.02.114-.028.259-.028.41v2.966h-.726v-3.022c0-.506-.084-1.05-.638-1.05-.306 0-.601.258-.687.753a2.572 2.572 0 0 0-.028.393v2.928h-.726v-3.424h.001zM48.33 260.412c0 1.422.561 1.717 1.086 1.717.325 0 .58-.077.763-.174l.125.535c-.258.134-.649.22-1.021.22-1.105 0-1.678-.906-1.678-2.317 0-1.489.639-2.425 1.565-2.425.934 0 1.317.995 1.317 2.023 0 .181-.01.306-.02.42l-2.137.001zm1.448-.544c.01-.914-.334-1.325-.687-1.325-.487 0-.726.695-.754 1.325h1.441zM54.428 256.054c-.543.86-.991 2.146-.991 3.883 0 1.706.448 2.995.991 3.862h-.573c-.496-.726-1.04-2.003-1.04-3.872.02-1.869.544-3.158 1.04-3.873h.573zM55.552 258.038l.448 2.261c.096.497.191.991.247 1.468h.04c.066-.477.18-1.01.286-1.448l.534-2.279h.563l.506 2.213c.114.516.22 1.002.294 1.517h.04c.056-.487.143-.964.248-1.488l.439-2.241h.734l-1.163 4.616h-.601l-.534-2.241a12.983 12.983 0 0 1-.258-1.384h-.018c-.076.546-.162.974-.267 1.411l-.554 2.214h-.619l-1.126-4.616.761-.003zM60.969 260.412c0 1.422.563 1.717 1.087 1.717.324 0 .581-.077.764-.174l.124.535c-.257.134-.648.22-1.021.22-1.105 0-1.678-.906-1.678-2.317 0-1.489.64-2.425 1.564-2.425.935 0 1.316.995 1.316 2.023 0 .181-.01.306-.019.42l-2.137.001zm1.449-.544c.01-.914-.333-1.325-.686-1.325-.487 0-.726.695-.755 1.325h1.441zM64.427 260.412c0 1.422.563 1.717 1.088 1.717.323 0 .581-.077.764-.174l.124.535c-.257.134-.648.22-1.02.22-1.107 0-1.678-.906-1.678-2.317 0-1.489.639-2.425 1.563-2.425.936 0 1.318.995 1.318 2.023 0 .181-.011.306-.02.42l-2.139.001zm1.45-.544c.01-.914-.333-1.325-.687-1.325-.487 0-.726.695-.754 1.325h1.441zM68.087 260.184h.02c.085-.181.162-.362.247-.515l.915-1.631h.792l-1.22 1.945 1.334 2.671h-.82l-1.002-2.174-.267.429v1.746h-.725v-6.601h.725l.001 4.13zM70.621 261.892c.162.104.448.237.744.237.411 0 .678-.258.678-.668 0-.353-.124-.592-.591-.907-.602-.382-.926-.781-.926-1.306 0-.755.554-1.28 1.269-1.28.363 0 .629.126.822.241l-.191.55a1.053 1.053 0 0 0-.621-.209c-.391 0-.59.288-.59.59 0 .307.114.481.573.795.532.34.954.761.954 1.399 0 .926-.629 1.375-1.392 1.375-.335 0-.706-.104-.907-.266l.178-.551zM73.224 263.799c.543-.859.993-2.166.993-3.882 0-1.718-.449-3.004-.993-3.863h.572c.495.706 1.039 1.975 1.039 3.863-.019 1.888-.543 3.146-1.039 3.882h-.572zM182.893 256.883h-1.176v-.657h3.082v.657h-1.172v5.771h-.735l.001-5.771zM186.153 256.846c0 .287-.171.478-.447.478-.238 0-.422-.19-.422-.478 0-.286.189-.477.432-.477.266 0 .437.191.437.477zm-.793 5.808v-4.616h.734v4.616h-.734zM187.115 259.231c0-.544-.027-.821-.039-1.192h.641l.039.571h.017c.202-.372.553-.64 1.042-.64.429 0 .79.202.962.706h.02c.126-.23.288-.419.458-.523.183-.125.4-.185.641-.185.619 0 1.107.449 1.107 1.633v3.053h-.728v-2.893c0-.599-.085-1.18-.649-1.18-.304 0-.57.258-.677.696a2.634 2.634 0 0 0-.026.41v2.966h-.726v-3.022c0-.506-.086-1.05-.64-1.05-.304 0-.602.258-.686.753a2.34 2.34 0 0 0-.028.393v2.928h-.725v-3.424h-.003zM193.538 260.412c0 1.422.563 1.717 1.088 1.717.323 0 .581-.077.761-.174l.126.535c-.257.134-.65.22-1.021.22-1.105 0-1.679-.906-1.679-2.317 0-1.489.641-2.425 1.564-2.425.935 0 1.316.995 1.316 2.023 0 .181-.01.306-.019.42l-2.136.001zm1.45-.544c.01-.914-.334-1.325-.687-1.325-.488 0-.725.695-.756 1.325h1.443zM199.639 256.054c-.546.86-.993 2.146-.993 3.883 0 1.706.447 2.995.993 3.862h-.573c-.496-.726-1.04-2.003-1.04-3.872.02-1.869.545-3.158 1.04-3.873h.573zM200.762 258.038l.62 2.651c.076.362.125.657.191.953h.018c.048-.268.125-.609.19-.943l.553-2.661h.725l-.755 2.966c-.285 1.154-.609 2.27-1.143 2.976a2.514 2.514 0 0 1-.83.696l-.276-.619a2.45 2.45 0 0 0 .658-.583c.189-.246.334-.551.409-.782a.656.656 0 0 0 .057-.229.617.617 0 0 0-.027-.173l-1.164-4.253.774.001zM204.079 260.412c0 1.422.563 1.717 1.088 1.717.324 0 .581-.077.762-.174l.123.535c-.255.134-.648.22-1.02.22-1.104 0-1.677-.906-1.677-2.317 0-1.489.638-2.425 1.563-2.425.936 0 1.317.995 1.317 2.023 0 .181-.01.306-.019.42l-2.137.001zm1.45-.544c.011-.914-.333-1.325-.687-1.325-.486 0-.724.695-.754 1.325h1.441zM209.456 261.605c0 .351.01.754.047 1.049h-.656l-.048-.487h-.03c-.199.353-.524.563-.924.563-.609 0-1.086-.515-1.086-1.315 0-1.164.926-1.669 1.964-1.679v-.144c0-.621-.162-1.039-.735-1.039-.286 0-.543.085-.762.239l-.161-.519c.199-.14.62-.305 1.076-.305.925 0 1.317.604 1.317 1.633v2.004h-.002zm-.714-1.345c-.383 0-1.271.076-1.271 1.076 0 .61.307.821.563.821.325 0 .593-.238.678-.697.021-.086.029-.182.029-.268l.001-.932zM210.483 259.231c0-.392-.027-.85-.038-1.192h.658l.037.733h.021c.152-.438.544-.802.973-.802.059 0 .104 0 .153.01v.744h-.153c-.467 0-.812.431-.886.955-.021.123-.03.268-.03.42v2.556h-.734v-3.424h-.001zM212.731 261.892c.164.104.45.237.745.237.411 0 .678-.258.678-.668 0-.353-.124-.592-.593-.907-.599-.382-.926-.781-.926-1.306 0-.755.556-1.28 1.271-1.28.363 0 .629.126.819.241l-.19.55a1.05 1.05 0 0 0-.619-.209c-.392 0-.592.288-.592.59 0 .307.115.481.572.795.534.34.954.761.954 1.399 0 .926-.63 1.375-1.393 1.375-.333 0-.704-.104-.906-.266l.18-.551zM215.333 263.799c.545-.859.993-2.166.993-3.882 0-1.718-.448-3.004-.993-3.863h.575c.493.706 1.039 1.975 1.039 3.863-.021 1.888-.547 3.146-1.039 3.882h-.575z"/><g><path d="M252.647 37.656c.277-.084.62-.124.982-.124.677 0 1.154.172 1.506.487.498.43.869 1.259.869 2.603 0 1.469-.362 2.271-.772 2.718-.421.468-1.03.687-1.773.687-.297 0-.603-.019-.812-.066v-6.305zm.726 5.742c.104.02.208.02.276.02.811 0 1.593-.592 1.593-2.776 0-1.622-.496-2.51-1.525-2.51-.115 0-.247.012-.343.039l-.001 5.227z"/></g><g><path d="M257.414 41.748c0 1.421.561 1.716 1.085 1.716.325 0 .581-.077.764-.172l.123.534c-.257.134-.647.221-1.019.221-1.106 0-1.679-.908-1.679-2.319 0-1.488.64-2.424 1.564-2.424.933 0 1.316.993 1.316 2.022 0 .182-.01.304-.021.419h-2.134v.003zm1.447-.543c.01-.915-.332-1.327-.686-1.327-.486 0-.726.696-.754 1.327h1.44z"/></g><g><path d="M262.789 42.941c0 .353.01.755.048 1.049h-.657l-.047-.486h-.029c-.2.353-.525.563-.923.563-.611 0-1.088-.515-1.088-1.316 0-1.164.924-1.668 1.963-1.678v-.144c0-.621-.162-1.04-.734-1.04-.286 0-.543.085-.762.239l-.16-.516c.197-.143.617-.306 1.074-.306.927 0 1.316.601 1.316 1.632l-.001 2.003zm-.715-1.345c-.383 0-1.269.076-1.269 1.076 0 .61.305.82.562.82.324 0 .592-.238.678-.697.019-.085.028-.181.028-.266l.001-.933z"/></g><g><path d="M264.647 38.296v1.077h.888v.552h-.888v2.746c0 .602.21.764.476.764.125 0 .22-.01.297-.029l.036.563a1.587 1.587 0 0 1-.543.079c-.297 0-.553-.079-.726-.278-.19-.209-.276-.524-.276-1.164v-2.681h-.562v-.553h.562v-.782l.736-.294zM266.179 37.388h.735v2.49h.021c.094-.162.237-.305.39-.409.162-.105.354-.163.61-.163.583 0 1.077.458 1.077 1.622v3.061h-.735v-2.975c0-.563-.122-1.088-.618-1.088-.344 0-.601.25-.715.734-.02.096-.028.229-.028.342v2.986h-.735l-.002-6.6z"/></g><g><path d="M218.082 91.566c0 2.413-.819 3.338-1.858 3.338-1.07 0-1.782-1.135-1.782-3.299 0-2.126.771-3.282 1.887-3.282 1.093 0 1.753 1.193 1.753 3.243zm-2.881.048c0 1.325.257 2.641 1.079 2.641.817 0 1.04-1.402 1.04-2.661 0-1.201-.223-2.623-1.05-2.623-.812 0-1.069 1.336-1.069 2.643z"/></g><g><path d="M218.946 91.652c0-.706-.028-1.118-.037-1.44h.65l.038.592h.02c.257-.488.62-.658.981-.658.81 0 1.333.85 1.333 2.365 0 1.717-.703 2.394-1.43 2.394-.44 0-.688-.275-.812-.534h-.019v2.291h-.726v-5.01h.002zm.726 1.488c0 .133.011.267.039.382.142.657.477.771.677.771.609 0 .81-.838.81-1.763 0-.955-.227-1.755-.819-1.755-.335 0-.64.41-.678.83a2.16 2.16 0 0 0-.026.353v1.182h-.003zM222.75 91.652c0-.706-.027-1.118-.037-1.44h.647l.038.592h.021c.257-.488.619-.658.981-.658.811 0 1.335.85 1.335 2.365 0 1.717-.706 2.394-1.433 2.394-.437 0-.686-.275-.81-.534h-.02v2.291h-.725l.003-5.01zm.724 1.488c0 .133.01.267.038.382.144.657.476.771.677.771.61 0 .812-.838.812-1.763 0-.955-.232-1.755-.821-1.755-.333 0-.639.41-.677.83a1.95 1.95 0 0 0-.028.353v1.182zM229.395 92.519c0 1.785-.821 2.384-1.538 2.384-.829 0-1.495-.753-1.495-2.374 0-1.679.753-2.385 1.544-2.385.831 0 1.489.774 1.489 2.375zm-2.3 0c0 .763.134 1.804.802 1.804.629 0 .763-1.078.763-1.804 0-.704-.134-1.793-.782-1.793-.657 0-.783 1.088-.783 1.793z"/></g><g><path d="M230.202 91.405c0-.392-.028-.849-.039-1.193h.658l.037.734h.02c.152-.439.545-.802.974-.802.056 0 .104 0 .152.01v.744h-.152c-.469 0-.812.43-.888.955a2.58 2.58 0 0 0-.028.42v2.556h-.733v-3.424z"/></g><g><path d="M233.699 89.135v1.076h.889v.553h-.889v2.746c0 .602.212.763.479.763.125 0 .219-.009.295-.029l.039.563a1.608 1.608 0 0 1-.545.079c-.295 0-.554-.079-.728-.278-.188-.21-.274-.524-.274-1.164v-2.68h-.562v-.553h.562v-.782l.734-.294zM238 93.571c0 .504.028.914.038 1.259h-.639l-.058-.488h-.02c-.133.23-.488.563-.981.563-.803 0-1.125-.628-1.125-1.773v-2.918h.733v2.813c0 .726.115 1.259.619 1.259.43 0 .621-.398.66-.611.026-.124.034-.266.034-.419v-3.042h.736l.003 3.357zM239.026 91.405c0-.544-.026-.821-.036-1.193h.636l.041.563h.02c.197-.371.571-.63 1.059-.63.639 0 1.115.469 1.115 1.584v3.101h-.734v-2.966c0-.553-.105-1.097-.639-1.097-.305 0-.604.257-.687.744a1.836 1.836 0 0 0-.037.419v2.902h-.735v-3.426h-.003zM243.678 89.02c0 .287-.172.477-.448.477-.238 0-.421-.19-.421-.477s.19-.478.43-.478c.268 0 .439.192.439.478zm-.793 5.808V90.21h.734v4.618h-.734zM244.516 94.065c.161.104.446.238.744.238.41 0 .677-.257.677-.668 0-.353-.125-.592-.591-.907-.603-.381-.927-.782-.927-1.307 0-.754.554-1.279 1.27-1.279.363 0 .629.126.82.239l-.191.552a1.048 1.048 0 0 0-.616-.21c-.394 0-.595.288-.595.591 0 .306.114.479.573.793.534.342.952.762.952 1.401 0 .925-.63 1.375-1.391 1.375-.334 0-.705-.105-.908-.267l.183-.551zM248.291 89.135v1.076h.887v.553h-.887v2.746c0 .602.211.763.477.763.125 0 .22-.009.295-.029l.039.563a1.597 1.597 0 0 1-.544.079c-.295 0-.554-.079-.726-.278-.189-.21-.276-.524-.276-1.164v-2.68h-.563v-.553h.563v-.782l.735-.294zM250.615 89.02c0 .287-.171.477-.446.477-.239 0-.421-.19-.421-.477s.19-.478.429-.478c.268 0 .438.192.438.478zm-.791 5.808V90.21h.734v4.618h-.734zM253.829 94.714c-.162.095-.438.173-.762.173-1.011 0-1.688-.811-1.688-2.337 0-1.325.668-2.403 1.821-2.403.249 0 .515.067.647.143l-.141.601a1.203 1.203 0 0 0-.524-.124c-.746 0-1.07.877-1.07 1.783 0 1.079.41 1.727 1.088 1.727.19 0 .361-.038.525-.124l.104.561z"/></g><g><path d="M220.996 98.549c0 .287-.172.477-.444.477-.24 0-.423-.19-.423-.477s.191-.477.43-.477c.265.001.437.192.437.477zm-.791 5.809v-4.616h.735v4.616h-.735zM221.959 100.935c0-.545-.029-.821-.039-1.192h.64l.037.562h.021c.201-.372.572-.63 1.059-.63.642 0 1.116.468 1.116 1.584v3.1h-.734v-2.967c0-.551-.103-1.097-.64-1.097-.305 0-.6.257-.686.744a1.777 1.777 0 0 0-.039.419v2.901h-.733l-.002-3.424z"/></g><g><path d="M225.972 104.358v-4.063h-.582v-.552h.582v-.278c0-.504.077-1.011.41-1.392.266-.295.639-.392.925-.392.249 0 .438.048.572.114l-.116.572a1.05 1.05 0 0 0-.409-.076c-.524 0-.649.563-.649 1.155v.295h.841v.552h-.841v4.063h-.732v.002z"/></g><g><path d="M228.477 102.116c0 1.421.564 1.717 1.088 1.717.325 0 .583-.077.764-.172l.124.535c-.258.132-.648.22-1.021.22-1.105 0-1.679-.907-1.679-2.318 0-1.489.641-2.425 1.564-2.425.937 0 1.317.994 1.317 2.023 0 .182-.01.305-.019.419l-2.138.001zm1.45-.543c.01-.916-.333-1.327-.687-1.327-.485 0-.725.696-.755 1.327h1.442z"/></g><g><path d="M233.675 104.244c-.161.093-.44.172-.764.172-1.011 0-1.688-.812-1.688-2.338 0-1.325.666-2.403 1.822-2.403.245 0 .514.068.647.144l-.143.6a1.225 1.225 0 0 0-.525-.124c-.743 0-1.067.877-1.067 1.783 0 1.079.41 1.727 1.088 1.727a1.1 1.1 0 0 0 .524-.124l.106.563z"/></g><g><path d="M235.341 98.664v1.077h.886v.552h-.886v2.746c0 .601.21.763.478.763.124 0 .219-.01.295-.029l.039.562a1.608 1.608 0 0 1-.545.079c-.294 0-.553-.079-.725-.277-.189-.21-.276-.524-.276-1.165v-2.681h-.563v-.553h.563v-.781l.734-.293zM237.667 98.549c0 .287-.172.477-.448.477-.238 0-.42-.19-.42-.477s.189-.477.431-.477c.265.001.437.192.437.477zm-.792 5.809v-4.616h.734v4.616h-.734zM241.461 102.05c0 1.783-.82 2.383-1.535 2.383-.829 0-1.496-.753-1.496-2.375 0-1.678.753-2.385 1.543-2.385.83.002 1.488.775 1.488 2.377zm-2.299 0c0 .761.134 1.803.801 1.803.631 0 .762-1.077.762-1.803 0-.707-.131-1.795-.781-1.795-.657.002-.782 1.089-.782 1.795zM242.277 100.935c0-.545-.025-.821-.036-1.192h.64l.037.562h.021c.2-.372.572-.63 1.059-.63.639 0 1.115.468 1.115 1.584v3.1h-.735v-2.967c0-.551-.104-1.097-.639-1.097-.305 0-.6.257-.686.744a1.837 1.837 0 0 0-.038.419v2.901h-.735v-3.425h-.003zM246.012 103.595c.163.104.448.238.745.238.41 0 .678-.257.678-.668 0-.353-.126-.59-.593-.905-.601-.382-.926-.782-.926-1.307 0-.754.554-1.28 1.271-1.28.364 0 .629.126.819.24l-.19.551a1.05 1.05 0 0 0-.618-.209c-.391 0-.593.289-.593.593 0 .306.114.478.572.792.535.342.953.763.953 1.402 0 .925-.63 1.375-1.391 1.375-.333 0-.706-.106-.908-.267l.181-.555z"/></g><g><path d="M196.513 142.329c-.2.104-.524.171-.925.171-1.25 0-2.156-1.01-2.156-3.194 0-2.536 1.259-3.348 2.278-3.348.383 0 .668.075.793.162l-.162.62a1.343 1.343 0 0 0-.641-.134c-.687 0-1.496.668-1.496 2.634 0 1.962.726 2.613 1.516 2.613.278 0 .516-.068.669-.134l.124.61z"/></g><g><path d="M199.868 140.135c0 1.783-.818 2.384-1.536 2.384-.829 0-1.498-.753-1.498-2.376 0-1.678.755-2.384 1.547-2.384.83.001 1.487.774 1.487 2.376zm-2.298 0c0 .761.132 1.802.802 1.802.628 0 .763-1.076.763-1.802 0-.706-.135-1.793-.783-1.793-.66 0-.782 1.087-.782 1.793zM200.686 139.019c0-.544-.029-.819-.039-1.191h.64l.038.562h.018c.201-.371.574-.63 1.06-.63.641 0 1.116.468 1.116 1.584v3.101h-.732v-2.967c0-.552-.106-1.097-.64-1.097-.305 0-.603.257-.688.745a1.83 1.83 0 0 0-.037.419v2.9h-.734l-.002-3.426zM204.423 141.681c.161.104.449.237.743.237.41 0 .677-.257.677-.668 0-.354-.123-.59-.591-.905-.602-.381-.925-.782-.925-1.307 0-.755.552-1.279 1.269-1.279.362 0 .63.125.819.239l-.189.552a1.049 1.049 0 0 0-.619-.21c-.393 0-.593.287-.593.593s.116.477.573.79c.533.344.953.764.953 1.403 0 .925-.628 1.373-1.392 1.373-.335 0-.705-.105-.906-.267l.181-.551zM208.197 136.75v1.077h.887v.552h-.887v2.747c0 .6.209.763.477.763.126 0 .221-.01.295-.028l.038.563a1.623 1.623 0 0 1-.543.076c-.295 0-.554-.076-.725-.275-.191-.211-.278-.525-.278-1.164v-2.683h-.562v-.551h.562v-.782l.736-.295zM210.521 136.635c0 .286-.171.477-.447.477-.237 0-.419-.19-.419-.477s.19-.478.428-.478c.267 0 .438.193.438.478zm-.792 5.809v-4.616h.735v4.616h-.735zM212.381 136.75v1.077h.887v.552h-.887v2.747c0 .6.211.763.479.763.123 0 .218-.01.294-.028l.038.563a1.636 1.636 0 0 1-.547.076c-.292 0-.551-.076-.722-.275-.189-.211-.276-.525-.276-1.164v-2.683h-.563v-.551h.563v-.782l.734-.295zM216.677 141.185c0 .505.029.914.039 1.259h-.64l-.057-.487h-.02c-.133.229-.487.563-.982.563-.802 0-1.125-.629-1.125-1.772v-2.919h.735v2.813c0 .724.114 1.258.618 1.258.43 0 .621-.398.659-.61.026-.124.037-.266.037-.42v-3.041h.733l.003 3.356zM218.603 136.75v1.077h.888v.552h-.888v2.747c0 .6.21.763.477.763.125 0 .22-.01.296-.028l.037.563a1.625 1.625 0 0 1-.542.076c-.297 0-.554-.076-.727-.275-.19-.211-.277-.525-.277-1.164v-2.683h-.561v-.551h.561v-.782l.736-.295zM220.929 136.635c0 .286-.173.477-.448.477-.238 0-.421-.19-.421-.477s.19-.478.43-.478c.267 0 .439.193.439.478zm-.793 5.809v-4.616h.734v4.616h-.734zM224.722 140.135c0 1.783-.818 2.384-1.534 2.384-.83 0-1.498-.753-1.498-2.376 0-1.678.755-2.384 1.546-2.384.829.001 1.486.774 1.486 2.376zm-2.295 0c0 .761.131 1.802.8 1.802.629 0 .763-1.076.763-1.802 0-.706-.134-1.793-.782-1.793-.659 0-.781 1.087-.781 1.793zM225.541 139.019c0-.544-.028-.819-.039-1.191h.642l.036.562h.021c.199-.371.573-.63 1.059-.63.64 0 1.116.468 1.116 1.584v3.101h-.733v-2.967c0-.552-.105-1.097-.641-1.097-.305 0-.602.257-.687.745a1.771 1.771 0 0 0-.038.419v2.9h-.733v-3.426h-.003zM231.833 141.394c0 .353.01.754.048 1.05h-.657l-.047-.487h-.03c-.198.352-.523.563-.923.563-.61 0-1.087-.515-1.087-1.317 0-1.163.925-1.668 1.963-1.678v-.144c0-.619-.161-1.038-.735-1.038a1.31 1.31 0 0 0-.761.238l-.162-.517c.198-.141.62-.305 1.077-.305.924 0 1.315.601 1.315 1.632l-.001 2.003zm-.715-1.345c-.383 0-1.271.077-1.271 1.078 0 .609.307.819.563.819.324 0 .593-.237.677-.697.021-.085.029-.18.029-.268l.002-.932zM232.87 135.843h.733v6.601h-.733v-6.601z"/></g><g><path d="M198.818 151.212c.163.104.448.236.745.236.41 0 .676-.257.676-.669 0-.351-.124-.591-.59-.905-.603-.381-.928-.781-.928-1.307 0-.754.555-1.278 1.272-1.278.361 0 .629.125.819.237l-.19.554a1.05 1.05 0 0 0-.619-.21c-.393 0-.594.286-.594.591 0 .307.115.478.573.792.534.344.954.763.954 1.402 0 .925-.63 1.374-1.393 1.374-.333 0-.704-.105-.908-.268l.183-.549zM202.068 147.358l.621 2.651c.076.363.123.658.191.955h.019c.047-.269.123-.61.189-.945l.553-2.661h.726l-.755 2.968c-.286 1.152-.61 2.269-1.144 2.976a2.508 2.508 0 0 1-.831.696l-.276-.621c.221-.123.448-.324.658-.582.19-.247.335-.553.41-.781a.679.679 0 0 0 .056-.229.667.667 0 0 0-.026-.174l-1.164-4.253h.773zM204.994 148.551c0-.546-.026-.821-.037-1.193h.641l.035.573h.021c.201-.374.554-.641 1.04-.641.429 0 .792.201.963.705h.021c.124-.229.285-.419.456-.525.182-.123.401-.181.639-.181.62 0 1.107.447 1.107 1.631v3.052h-.725v-2.889c0-.603-.086-1.184-.65-1.184-.304 0-.571.259-.677.696a2.673 2.673 0 0 0-.026.411v2.965h-.725v-3.023c0-.503-.086-1.049-.641-1.049-.305 0-.601.259-.686.756a2.206 2.206 0 0 0-.029.39v2.929h-.725v-3.423h-.002zM210.894 148.8c0-.708-.03-1.119-.039-1.442h.65l.037.591h.02c.258-.487.621-.656.982-.656.811 0 1.336.85 1.336 2.365 0 1.718-.706 2.395-1.433 2.395-.439 0-.686-.277-.811-.535h-.019v2.289h-.726l.003-5.007zm.726 1.486c0 .134.009.268.037.382.142.657.478.772.677.772.61 0 .811-.839.811-1.765 0-.953-.228-1.754-.82-1.754-.335 0-.639.411-.677.83a2.054 2.054 0 0 0-.026.353l-.002 1.182z"/></g><g><path d="M215.603 146.281v1.077h.887v.553h-.887v2.746c0 .603.21.763.475.763.127 0 .221-.011.298-.028l.038.562a1.575 1.575 0 0 1-.545.079c-.297 0-.552-.079-.726-.278-.19-.21-.277-.525-.277-1.163v-2.681h-.562v-.553h.562v-.781l.737-.296z"/></g><g><path d="M219.903 149.665c0 1.785-.819 2.386-1.538 2.386-.829 0-1.496-.754-1.496-2.377 0-1.679.756-2.384 1.547-2.384.828 0 1.487.777 1.487 2.375zm-2.3 0c0 .764.134 1.806.804 1.806.628 0 .761-1.08.761-1.806 0-.704-.133-1.793-.782-1.793-.659 0-.783 1.088-.783 1.793zM220.719 148.551c0-.546-.027-.821-.037-1.193h.639l.039.573h.018c.2-.374.553-.641 1.04-.641.433 0 .792.201.966.705h.017c.127-.229.289-.419.459-.525.181-.123.401-.181.641-.181.62 0 1.104.447 1.104 1.631v3.052h-.724v-2.889c0-.603-.085-1.184-.647-1.184-.309 0-.572.259-.679.696a2.664 2.664 0 0 0-.027.411v2.965h-.725v-3.023c0-.503-.086-1.049-.641-1.049-.305 0-.602.259-.688.756a2.557 2.557 0 0 0-.026.39v2.929h-.726v-3.423h-.003zM226.506 151.212c.162.104.448.236.744.236.41 0 .678-.257.678-.669 0-.351-.126-.591-.594-.905-.601-.381-.924-.781-.924-1.307 0-.754.554-1.278 1.269-1.278.363 0 .629.125.819.237l-.19.554a1.043 1.043 0 0 0-.618-.21c-.392 0-.593.286-.593.591 0 .307.115.478.573.792.533.344.953.763.953 1.402 0 .925-.629 1.374-1.391 1.374-.335 0-.706-.105-.908-.268l.182-.549z"/></g><path fill="none" stroke="#939598" d="M263.655 46.61v17.611M268.094 59.451l-4.439 4.77-4.434-4.77M242.587 107.731v17.615M247.02 120.573l-4.435 4.774-4.435-4.774M213.881 154.333v17.617M218.317 167.178l-4.436 4.772-4.436-4.772"/><path fill="none" stroke="#000" d="M6.471 3.889H56.62"/><path fill="none" stroke="#000" stroke-dasharray="3.827,3.827" d="M153.372 3.64h50.148"/><g><path d="M62.539 7.573c-.201.104-.524.172-.924.172-1.25 0-2.156-1.012-2.156-3.196 0-2.536 1.259-3.348 2.281-3.348.38 0 .667.078.792.162l-.162.62a1.358 1.358 0 0 0-.638-.132c-.687 0-1.499.666-1.499 2.633 0 1.963.724 2.613 1.516 2.613.276 0 .516-.067.668-.132l.122.608zM63.289 1.354c.277-.085.619-.125.982-.125.678 0 1.153.172 1.508.487.496.429.867 1.259.867 2.604 0 1.47-.362 2.27-.772 2.719-.419.467-1.03.686-1.774.686-.296 0-.601-.019-.811-.066V1.354zm.724 5.742c.106.019.21.019.277.019.81 0 1.592-.591 1.592-2.776 0-1.621-.495-2.508-1.526-2.508a1.39 1.39 0 0 0-.344.038v5.227h.001zM69.18 7.687V5.969h-2.061v-.495l2.013-3.987h.716v3.882h.668v.6h-.668v1.718h-.668zm0-2.318V3.624c0-.43.028-.811.056-1.222H69.2c-.21.498-.345.782-.524 1.165l-.86 1.784v.019h1.364z"/></g><g><path d="M74.881 7.573c-.162.094-.439.172-.763.172-1.012 0-1.688-.811-1.688-2.337 0-1.326.668-2.403 1.822-2.403.249 0 .515.067.649.143l-.144.601a1.199 1.199 0 0 0-.524-.124c-.744 0-1.069.876-1.069 1.783 0 1.078.41 1.727 1.087 1.727.191 0 .363-.038.524-.125l.106.563z"/></g><g><path d="M78.292 5.379c0 1.784-.819 2.384-1.534 2.384-.83 0-1.497-.754-1.497-2.376 0-1.679.753-2.383 1.545-2.383.829 0 1.486.773 1.486 2.375zm-2.297 0c0 .763.132 1.805.801 1.805.629 0 .763-1.079.763-1.805 0-.705-.133-1.793-.781-1.793-.659 0-.783 1.087-.783 1.793zM81.876 6.429c0 .504.028.915.038 1.258h-.638l-.058-.486H81.2c-.133.229-.486.563-.983.563-.801 0-1.125-.629-1.125-1.774V3.071h.734v2.813c0 .726.114 1.259.62 1.259.429 0 .62-.399.657-.611.03-.124.038-.265.038-.418V3.071h.734v3.358h.001z"/></g><g><path d="M82.903 4.264c0-.546-.027-.822-.038-1.194h.639l.038.563h.019a1.172 1.172 0 0 1 1.059-.629c.64 0 1.117.468 1.117 1.583v3.1h-.734V4.72c0-.552-.104-1.097-.639-1.097-.305 0-.602.257-.688.744a1.847 1.847 0 0 0-.036.419v2.9h-.734V4.264h-.003z"/></g><g><path d="M87.611 1.993V3.07h.887v.553h-.887v2.745c0 .603.21.764.478.764.124 0 .219-.01.295-.03l.039.563a1.598 1.598 0 0 1-.543.077c-.295 0-.554-.077-.725-.277-.191-.21-.276-.524-.276-1.163v-2.68h-.563v-.551h.563v-.782l.732-.296z"/></g><g><path d="M209.026 7.687l-1.47-6.429h.792l.618 3.014c.154.726.344 1.65.459 2.471h.028c.097-.83.276-1.727.431-2.488l.609-2.997h.781l-1.496 6.429h-.752z"/></g><g><path d="M212.496 1.879c0 .288-.175.477-.449.477-.236 0-.419-.188-.419-.477 0-.286.191-.477.429-.477.266 0 .439.191.439.477zm-.793 5.808V3.071h.736v4.617h-.736z"/></g><g><path d="M213.445 4.264c0-.393-.029-.851-.037-1.194h.658l.036.734h.02c.153-.438.545-.801.972-.801.058 0 .105 0 .152.009v.744h-.152c-.466 0-.81.429-.887.954a2.86 2.86 0 0 0-.027.42v2.556h-.734V4.264h-.001z"/></g><g><path d="M218.204 6.638c0 .353.01.755.047 1.049h-.657l-.048-.486h-.026c-.202.353-.523.563-.927.563-.61 0-1.086-.515-1.086-1.317 0-1.165.924-1.667 1.963-1.678v-.144c0-.62-.162-1.04-.732-1.04-.288 0-.546.086-.765.238l-.161-.515c.199-.142.619-.305 1.079-.305.922 0 1.315.6 1.315 1.631v2.003h-.002zm-.716-1.344c-.382 0-1.267.076-1.267 1.075 0 .611.304.821.56.821.325 0 .594-.238.679-.697a1.27 1.27 0 0 0 .027-.268l.001-.931zM219.242 1.087h.734v6.601h-.734V1.087zM222.558 1.087h.734v6.601h-.734V1.087zM227.211 5.379c0 1.784-.821 2.384-1.536 2.384-.83 0-1.496-.754-1.496-2.376 0-1.679.752-2.383 1.545-2.383.828 0 1.487.773 1.487 2.375zm-2.3 0c0 .763.135 1.805.802 1.805.63 0 .763-1.079.763-1.805 0-.705-.133-1.793-.782-1.793-.658 0-.783 1.087-.783 1.793zM230.46 6.638c0 .353.009.755.048 1.049h-.658l-.046-.486h-.029c-.199.353-.525.563-.925.563-.609 0-1.087-.515-1.087-1.317 0-1.165.925-1.667 1.965-1.678v-.144c0-.62-.163-1.04-.736-1.04-.285 0-.542.086-.761.238l-.162-.515c.199-.142.619-.305 1.077-.305.925 0 1.316.6 1.316 1.631v2.003h-.002zm-.715-1.344c-.382 0-1.27.076-1.27 1.075 0 .611.307.821.564.821.323 0 .59-.238.677-.697a1.27 1.27 0 0 0 .027-.268l.002-.931zM234.274 1.087v5.494c0 .315.028.84.037 1.106h-.63l-.048-.572h-.029c-.151.326-.476.649-.971.649-.772 0-1.335-.838-1.335-2.365 0-1.632.677-2.394 1.384-2.394.342 0 .666.153.849.544h.02V1.087h.723zm-.725 3.748c0-.095 0-.21-.01-.306-.048-.485-.334-.896-.688-.896-.61 0-.819.85-.819 1.764 0 .971.248 1.754.782 1.754.229 0 .544-.124.706-.792.019-.086.027-.19.027-.305l.002-1.219z"/></g><g><path d="M-26.602 101.67c-.201.104-.525.173-.925.173-1.251 0-2.155-1.013-2.155-3.196 0-2.537 1.258-3.348 2.278-3.348.382 0 .668.076.793.162l-.163.621a1.328 1.328 0 0 0-.639-.134c-.687 0-1.497.668-1.497 2.632s.724 2.614 1.516 2.614c.276 0 .514-.067.667-.132l.125.608zM-25.852 95.45c.277-.084.62-.124.983-.124.678 0 1.153.171 1.507.486.495.43.867 1.258.867 2.604 0 1.469-.363 2.271-.771 2.718-.419.467-1.03.687-1.774.687a4.03 4.03 0 0 1-.812-.066V95.45zm.726 5.743c.104.02.209.02.275.02.812 0 1.593-.592 1.593-2.775 0-1.621-.496-2.509-1.525-2.509-.116 0-.248.01-.343.037v5.227zM-19.959 101.784v-1.718h-2.062v-.496l2.014-3.987h.715v3.882h.667v.601h-.667v1.718h-.667zm0-2.318V97.72c0-.429.026-.812.056-1.221h-.038c-.209.497-.343.781-.524 1.163l-.858 1.785v.019h1.364z"/></g><g><path d="M-39.097 106.62c-.543.859-.991 2.147-.991 3.882 0 1.707.448 2.997.991 3.863h-.572c-.496-.726-1.04-2.002-1.04-3.871.019-1.871.543-3.158 1.04-3.874h.572z"/></g><g><path d="M-36.179 113.108c-.162.094-.44.171-.764.171-1.011 0-1.688-.811-1.688-2.336 0-1.326.668-2.404 1.822-2.404.248 0 .513.068.648.144l-.144.601a1.175 1.175 0 0 0-.524-.125c-.744 0-1.068.877-1.068 1.784 0 1.077.411 1.727 1.087 1.727.19 0 .363-.038.524-.125l.107.563z"/></g><g><path d="M-35.085 110.979c0 1.424.561 1.718 1.085 1.718.325 0 .581-.076.764-.172l.124.534c-.258.134-.649.22-1.021.22-1.106 0-1.678-.906-1.678-2.317 0-1.488.639-2.424 1.564-2.424.934 0 1.317.993 1.317 2.022 0 .182-.01.305-.02.419h-2.135zm1.45-.543c.009-.914-.334-1.325-.687-1.325-.487 0-.727.696-.754 1.325h1.441zM-32.141 106.62h.734v6.601h-.734v-6.601zM-30.321 106.62h.734v6.601h-.734v-6.601zM-28.625 112.458c.162.104.449.237.744.237.41 0 .677-.257.677-.668 0-.352-.123-.591-.59-.906-.602-.38-.927-.781-.927-1.305 0-.754.554-1.279 1.27-1.279.362 0 .629.125.82.237l-.19.554a1.042 1.042 0 0 0-.621-.209c-.392 0-.592.286-.592.59 0 .307.115.479.572.792.534.344.955.764.955 1.402 0 .925-.629 1.374-1.392 1.374-.334 0-.707-.105-.906-.267l.18-.552zM-26.185 113.602l2.049-6.886h.554l-2.051 6.886h-.552zM-23.07 109.798c0-.546-.026-.821-.036-1.192h.638l.039.571h.018c.202-.372.554-.64 1.042-.64.429 0 .79.201.962.705h.02c.124-.229.285-.42.457-.524.183-.124.401-.183.64-.183.619 0 1.105.448 1.105 1.633v3.052h-.724v-2.891c0-.602-.086-1.183-.65-1.183-.304 0-.572.259-.678.698a2.61 2.61 0 0 0-.027.409v2.966h-.724v-3.023c0-.505-.085-1.05-.638-1.05-.306 0-.602.259-.687.755-.02.115-.029.248-.029.391v2.929h-.726v-3.423zM-17.16 109.798c0-.546-.027-.821-.037-1.192h.639l.038.571h.019c.201-.372.553-.64 1.04-.64.429 0 .791.201.963.705h.02c.124-.229.285-.42.457-.524.183-.124.4-.183.641-.183.618 0 1.105.448 1.105 1.633v3.052H-13v-2.891c0-.602-.086-1.183-.65-1.183-.304 0-.573.259-.678.698a2.738 2.738 0 0 0-.027.409v2.966h-.726v-3.023c0-.505-.085-1.05-.639-1.05-.305 0-.602.259-.687.755-.02.115-.029.248-.029.391v2.929h-.726l.002-3.423z"/></g><g><path d="M-11.534 109.583c.11.067.3.151.518.151.377 0 .627-.273.627-.717 0-.479-.296-.75-.728-.75h-.1v-.323h.083c.255 0 .649-.192.649-.645 0-.367-.194-.556-.478-.556-.179 0-.333.09-.45.174l-.094-.323c.134-.104.379-.205.651-.205.511 0 .799.368.799.834 0 .36-.188.682-.538.844v.011c.323.089.632.378.632.944 0 .59-.377 1.067-1.033 1.067-.233 0-.489-.067-.633-.168l.095-.338z"/></g><g><path d="M-9.406 114.364c.543-.858.993-2.166.993-3.882 0-1.718-.448-3.006-.993-3.864h.572c.496.705 1.038 1.976 1.038 3.864-.018 1.888-.542 3.147-1.038 3.882h-.572z"/></g></svg>