<svg version="1.1" xmlns="http://www.w3.org/2000/svg" x="0" y="0" width="411.023" height="199.391" viewBox="-42.27 -49.375 411.023 199.391" xml:space="preserve"><g stroke="#000" stroke-width="1" stroke-miterlimit="10"><path fill="none" d="M249.499 75.389h28.595v21.404h-28.595z"/><path fill="#939598" d="M263.715 75.389h-14.216v21.404h14.379z"/></g><g stroke="#000" stroke-width="1" stroke-miterlimit="10"><path fill="none" d="M111.86-46.5h28.594v21.405H111.86z"/><path fill="#939598" d="M126.238-46.5h14.216v21.405h-14.378z"/></g><g stroke="#000" stroke-width="1" stroke-miterlimit="10"><path fill="#939598" d="M113.396 96.793c8.238 0 15.023-4.764 15.023-10.742 0-5.896-6.784-10.662-15.023-10.662-8.242 0-15.026 4.765-15.026 10.662 0 5.978 6.785 10.742 15.026 10.742z"/><path fill="#FFF" d="M113.396 96.793c-8.319 0-15.026-4.764-15.026-10.742 0-5.896 6.705-10.662 15.026-10.662v21.404z"/></g><g stroke="#000" stroke-width="1" stroke-miterlimit="10"><path fill="none" d="M83.185 21.189h28.593v21.405H83.185z"/><path fill="#939598" d="M97.564 21.189h14.214v21.406H97.401z"/><path fill="none" d="M173.814 21.189h28.595v21.405h-28.595zM322.6 21.189h28.515v21.405H322.6zM37.466 42.595c8.239 0 15.024-4.847 15.024-10.743S45.705 21.19 37.466 21.19s-14.944 4.766-14.944 10.662 6.706 10.743 14.944 10.743z"/><g><path fill="#939598" d="M277.609 42.595c8.238 0 14.941-4.847 14.941-10.743s-6.703-10.662-14.941-10.662c-8.32 0-15.023 4.766-15.023 10.662s6.704 10.743 15.023 10.743z"/><path fill="#FFF" d="M277.609 42.595c8.238 0 14.941-4.765 14.941-10.743 0-5.896-6.703-10.662-14.941-10.662v21.405z"/></g></g><path fill="none" stroke="#000" stroke-width="1" stroke-miterlimit="10" d="M22.845 96.793c8.239 0 15.026-4.764 15.026-10.742 0-5.896-6.785-10.662-15.026-10.662-8.238 0-15.022 4.765-15.022 10.662 0 5.978 6.784 10.742 15.022 10.742zM352.972 96.793c8.239 0 15.023-4.764 15.023-10.742 0-5.896-6.784-10.662-15.023-10.662s-15.025 4.765-15.025 10.662c.001 5.978 6.787 10.742 15.025 10.742z"/><path fill="#939598" stroke="#000" stroke-width="1" stroke-miterlimit="10" d="M188.11 135c8.239 0 14.944-4.847 14.944-10.743 0-5.895-6.705-10.662-14.944-10.662-8.237 0-15.023 4.768-15.023 10.662.001 5.896 6.786 10.743 15.023 10.743z"/><path fill="none" stroke="#000" stroke-width="1" stroke-miterlimit="10" d="M142.312-35.757l91.679-.404M187.707 21.028l.727-57.189M97.564 20.867V-1.589l179.641-.323v22.779M53.218 32.417H83.67M67.435 54.792V32.094M22.524 74.985V55.438l91.193-.323v20.517M128.258 86.536l120.515-.322M123.976 93.482l124.797-1.372M187.949 113.271V92.11M292.715 31.448h29.724M307.253 53.177V31.125M263.959 75.308l.646-21.486 88.61-.645v21.808"/><path d="M-37-30.183V-41.4h1.485v11.217H-37zM-37 37.506V26.289h1.485v11.218H-37zM-32.647 37.506V26.289h1.484v11.218h-1.484zM-37 91.706V80.489h1.485v11.217H-37zM-32.647 91.706V80.489h1.484v11.217h-1.484zM-28.294 91.706V80.489h1.485v11.217h-1.485z"/><path stroke="#000" stroke-width=".106" stroke-linecap="round" stroke-linejoin="round" stroke-miterlimit="10" d="M159.679 137.503l-.404 4.605 10.258-11.387-15.346-.242 3.713 2.827-18.012 7.835 1.859 4.28z"/><g><path d="M-37 129.912v-11.218h1.485v11.218H-37zM-29.694 129.912l-4.347-11.218h1.608l2.917 8.149c.233.652.43 1.265.589 1.837.176-.613.375-1.224.605-1.837l3.028-8.149h1.517l-4.392 11.218h-1.525z"/></g><path fill="#FFF" stroke="#000" stroke-width="1" stroke-miterlimit="10" d="M246.755-25.095c8.317 0 15.022-4.766 15.022-10.662S255.072-46.5 246.755-46.5c-8.239 0-14.943 4.846-14.943 10.743s6.703 10.662 14.943 10.662z"/></svg>