<svg version="1.1" xmlns="http://www.w3.org/2000/svg" x="0" y="0" width="411.021" height="227.191" viewBox="0 0 411.021 227.191" xml:space="preserve"><path d="M205.777 0c1.465 1.78 1.096 5.393 2.576 7.156 7.065-.897 13.297-4.679 19.458-3.148 2.377 5.235 1.348 11.504 4.007 16.597 4.927-1.846 7.204-6.34 14.31-6.01 4.93 4.453 4.068 10.333 6.01 17.458 4.301-1.591 7.661-4.996 11.446-6.297 3.34-1.148 7.915-1.234 9.442 2.29 2.589 5.968.535 15.462 2.576 21.749 5.191-1.979 12.426-9.862 20.03-5.151 1.709 2.299 2.293 5.722 2.29 9.73 2.244-.285 3.488-5.411 6.582-4.864-1.392 3.283-4.552 4.796-6.582 7.439-.611 2.79 1.605 5.716-.858 7.727-2.143-7.043 1.882-20.282-7.153-20.032-7.388.206-12.696 8.167-19.175 10.019-.325-.629-.736-1.171-.571-2.29 2.136.557 2.487.229 4.008-.858-2.751-8.479 1.021-19.261-5.438-24.896-8.783 1.271-15.034 7.141-22.319 11.446-1.232-.482-1.992-1.44-2.004-3.146.972-.764 1.185 1.146 2.289 1.145 1.431-.669 2.688-1.51 3.721-2.575-1.32-5.562-.979-14.199-5.438-17.455-7.781 1.502-10.523 7-18.602 8.585-.317-.963-1.007-2.129 0-2.862 1.179-.227.539 1.37 1.718 1.144.895-.25 1.511-.776 2.289-1.144-2.474-5.241-2.209-10.407-3.72-16.312-8.537-.432-15.394 4.218-23.466 4.292-.744-.819-2.517-2.224-1.146-3.434 1.303.7 1.711 2.295 4.292 1.716-.488-2.646-2.124-5.582-1.431-7.726.407.019.811.042.859-.293z"/><path d="M196.62 2.863c.254.222.646.308 1.145.285 1.32 3.26 1.846 7.312 3.72 10.017 3.109 1.521 7.537.767 12.02-.572 5.268-1.573 11.594-5.521 11.16 1.431-1.264-.453-1.063-2.37-2.574-2.574-.619.238-.978.74-2.004.571 2.292 5.924 2.078 14.773 6.009 19.746 3.154-1.243 8.759-4.049 12.307-6.582 2.157-1.54 7.093-6.578 6.867.287-1.518.374-.693-1.595-1.716-1.717-1.467-.228-1.214 1.266-2.576 1.144.477 6.419 1.336 12.402 3.72 18.029 3.118.744 5.426-.326 7.728-1.718 3.859-2.331 9.021-5.391 10.017-8.299.796.317 2.144.246 2.575-.572 6.193 5.734.229 21.159 4.864 28.903 4.099-1.202 7.333-3.493 10.589-5.438 3.271-1.955 5.73-5.325 10.016-6.01.58.849.829 2.579.286 3.721-1.509-.162-.669-2.697-2.576-1.717-.301 3.067-.371 6.484.287 10.875.487 3.244 1.188 9.972 3.148 10.587 3.583 1.128 6.247-3.93 7.726-6.295 2.487-.873 2.923-5.252 5.438-5.151-2.149 5.291-6.179 8.703-9.729 12.593-1.683.253-3.399.912-5.15.284-3.065-4.628-3.128-15.101-3.435-20.604-6.582 2.229-10.396 8.636-18.028 8.872-3.861-5.86-1.729-17.094-2.003-22.894-1.131-1.256-.7-4.068-1.717-5.438-1.017.986-3.048.959-3.147 2.861-1.86.339-3.881 2.027-4.293 2.86-4.008 1.761-7.272 5.64-13.45 4.292-2.838-4.73-3.54-12.492-4.292-18.027-4.226.437-10.497 9.117-15.453 6.01-3.904-2.45-2.699-14.696-5.724-19.746-5.808.533-13.614 5.592-18.314 1.431-3.011-2.658-2.657-7.876-3.441-11.445zM118.497 10.302c5.95.083 14.68-.761 22.606.287 6.223.823 14.102 4.583 11.16 12.02-2.819 7.127-15.896 6.22-24.61 6.295-5.329.048-11.92.462-15.452-1.146-1.659-.754-4.87-3.617-5.438-5.438-2.457-7.878 4.972-12.368 11.734-12.018zm-8.013 3.72c-4.866 3.685-1.289 11.146 4.007 12.593 5.662 1.547 12.188.606 18.313.286 7.826-.409 14.171.833 17.17-3.72 3.547-5.387-1.976-9.432-7.155-10.589-7.244-1.619-16.259-.729-21.176-.572-5.18.166-8.415-.074-11.159 2.002zM35.794 31.766c-5.426 5.907-16.327 2.625-16.599-6.295-.219-7.209 6.236-13.309 12.592-10.589 4.514 1.932 8.732 12.108 4.007 16.884zm-5.438 1.144c10.718-2.463 4.417-21.304-6.295-15.739-5.755 5.592-2.665 17.799 6.295 15.739zM395.505 40.637c-.28-7.135 6.854-9.31 11.161-5.724 7.396 8.387 4.857 21.361-3.722 28.044-1.465 1.141-5.206 3.291-8.012 3.435-5.162.265-8.106-3.303-8.585-6.868-.377-2.818.503-7.041 2.289-9.157 1.736-2.06 10.229-2.905 9.729-6.867-.244-1.954-1.917-1.182-2.86-2.863zm2.005-2.003c-.143 2.726 2.337 3.022 2.574 4.577.373 2.447-1.286 4.438-2.574 5.15-1.78.986-5.706.661-7.728 3.436-4.288 5.887.259 15.25 8.013 12.306 5.219-1.981 10.911-9.829 11.731-15.74.7-5.032-3.82-14.232-8.584-13.163-1.813.407-3.348 1.784-3.432 3.434zM41.804 38.634c7.27-1.528 10.024 7.227 6.296 12.59-3.579 5.148-12.666 5.063-13.451-2.574-.397-3.866 2.851-9.112 7.155-10.016zm-5.437 7.726c-.589 4.256 2.191 6.576 4.577 6.869 4.281.523 8.09-5.145 7.44-9.729-.171-1.211-3.577-3.3-5.723-3.148-3.139.221-5.892 3.096-6.294 6.008zM123.934 42.639c2.333 1.171 15.067-.509 19.746 2.862 2.57 1.852 3.781 6.964 2.289 9.729-1.848 3.428-9.672 5.525-14.308 6.011-4.238.442-10.447.13-15.167 0-4.491-.123-11.145.666-13.735-2.289-2.155-2.457-2.227-7.149-.859-9.73 3.314-6.251 13.666-6.414 22.034-6.583zm20.031 5.724c-2.284-3.421-15.2-4.022-22.321-4.292-10.368-.391-21.542 2.704-18.027 13.45 4.275 2.632 11.274 2.326 17.741 2.289 8.825-.051 17.534-.87 23.18-5.438.3-1.691.437-4.497-.573-6.009zM12.9 48.078c.056-.326.288-.16.286 0 12.097.776 7.915 21.444-3.434 18.313-7.127-1.968-5.749-14.229-.287-17.457a17.346 17.346 0 0 0 3.435-.856zm-6.581 8.87c-.355 3.512 1.613 7.458 4.292 8.013 9.703 2.013 10.951-15.615 2.005-15.167-2.645.132-5.973 3.958-6.297 7.154zM211.214 135.93c5.373-3.62 12.326.399 11.161 7.728 5.006-3.002 10.527 1.527 12.306 6.009 1.487-4.212 9.778-6.604 11.732-1.716 2.099-6.775 13.879-8.401 17.456-1.719 2.106-4.073 5.935-9.253 11.159-5.437-.408-5.013 2.113-10.33 5.725-11.732 4.219-1.641 10.267 1.28 11.16 5.437 2.071 9.629-7.921 14.083-14.309 10.303 4.381 8.701-9.683 13.602-12.592 5.438-1.888 2.275-2.06 5.94-5.151 7.727-4.297 2.481-9.978 1.04-12.877-2.29-1.908 5.927-12.182 7.535-12.879-.285-3.017 2.512-6.81 6.532-12.018 4.292-1.755-1.966-3.812-3.63-3.721-7.439-6.29 3.215-14.236-2.468-12.02-10.303-3.573 1.188-6.636.028-9.444-2.574-1.933 3.716-5.945 6.854-10.874 5.148.102 6.19-6.366 13.183-12.877 10.589-2.229-.888-2.964-3.65-4.578-5.723-.157-7.223 4.385-14.966 12.877-12.592-.742-7.915 11.2-13.453 14.309-5.725 2.145-11.455 18.586-5.849 15.455 4.864zm-9.443 4.865c8.311 1.837 11.702-11.685 3.435-14.595-8.879-1.848-10.516 13.029-3.435 14.595zm-18.601-3.434c.754 6.944 9.681 7.738 12.591 1.718 2.328-15.292-13.604-11.033-12.591-1.718zm107.312-2.575c-2.524-8.116-16.494-2.925-13.735 6.295 4.331 7.585 16.256 1.803 13.735-6.295zm-82.129 6.295c-2.933 6.093 3.817 13.645 9.443 9.729 1.156-.805 3.118-4.626 3.434-6.297.578-3.055-1.702-10.044-6.295-8.298-3.483 1.629-5.406 2.422-6.582 4.866zm-38.061 5.723c-.831 10.987 16.071 7.553 14.021-2.575-.443-2.195-2.848-3.327-3.147-6.297-5.681-.969-10.62 5.511-10.874 8.872zm104.737-4.578c-3.107-2.678-8.213-.725-8.869 3.721-.862 5.812 4.78 9.494 10.015 5.149.668-3.555.927-7.084-1.146-8.87zm-26.041 13.449c4.279 5.924 18.323-1.056 13.164-9.729-.809-1.357-4.785-2.414-7.727-2.005-3.922.55-8.894 6.948-5.437 11.734zm-24.325 3.149c9.961 1.494 9.188-14.993 1.431-14.311-6.114.541-8.54 13.243-1.431 14.311zm15.454.572c5.479-.021 7.903-7.786 4.007-12.306-9.472-2.603-11.362 12.336-4.007 12.306zM33.218 133.927c1.263-.739 2.226-1.78 3.434-2.576 3.903-1.174 9.247.325 10.589 4.579.889 2.819-1.017 4.698.285 6.868-1.721 1.235-2.34 3.573-3.72 5.151-.654.489-1.446.843-2.003 1.431 1.856 4.76.416 10.993-4.006 12.018 3.978 4.936 1.588 14.98-4.579 15.74-.242 4.396-2.751 9.458-7.154 10.303-6.683 1.28-11.177-3.662-9.729-10.018-6.927.312-9.612-8.718-6.01-13.735-6.097 2.397-9.963-2.949-10.303-8.585-.31-5.146 2.539-8.906 6.011-10.302-1.726-6.963 3.741-14.613 10.874-13.45 2.021.33 3.352 2.633 4.864 3.147 2.237-3.322 9.779-6.031 11.447-.571zm-1.43.572c-.589-.938-1.48-1.571-2.289-2.289-5.1-.182-9.114 5.428-7.728 10.589.579 2.154 3.07 4.952 5.438 4.864.835-.03 4.946-3.01 5.437-3.722 1.445-2.093.292-4.71.286-7.438-.635-.603-.774.854-1.431-.287.097-1.012.788-.703.287-1.717zm9.443 13.164c2.096-.182 4.556-5.024 4.006-8.585-.827-5.372-5.161-8.159-10.016-5.15-.07 1.626-.089 1.185-1.145 1.431.891 3.571.532 6.731 0 9.443 3.585-1.223 4.475 3.092 7.155 2.861zm-24.324-14.595c-3.624-.921-6.537 2.406-8.584 4.008-.234 2.168-.937 4.511-.287 7.438 2.789 5.572 8.5 3.802 13.449 2.005-1.693-2.665-1.492-7.859-.857-10.589-1.708-.354-2.239-2.485-3.721-2.862zM6.319 146.519c-6.28 2.028-5.243 12.243-1.145 15.738 3.771.745 6.53-.549 9.443-2.003-1.071-3.994-.021-7.125 1.431-10.302-4.013.857-6.759-1.206-9.729-3.433zm25.182 13.163c1.828 1.222 3.202-.112 5.437.572 3.426-1.358 5.82-5.755 3.721-9.73-.295-.556-1.149-.924-2.004-1.716-1.719-1.594-3.135-3.176-6.295-2.004-3.898.34-3.455 11.142-.859 12.878zm-9.443-11.161c-5.416.501-7.771 6.799-6.01 11.161 1.987 4.916 11.315 3.373 12.306-1.717.311-1.595-.882-5.119-1.145-7.728-1.537-1.038-3.398-1.754-5.151-2.575v.859zm7.154 12.877c-4.211 3.434-4.843 12.95 1.431 14.022 7.063 1.209 10.146-8.881 5.151-13.163-2.005.241-4.006-.845-6.582-.859zm-14.308.859c-6.523 2.021-5.5 13.075 1.145 13.45 7.224.407 8.007-6.845 9.729-12.592-2.535 2.155-8.062 1.197-10.874-.858zm3.148 15.166c-1.15 3.073.559 7.118 2.861 8.013 6.425 2.501 10.215-3.437 11.446-8.298-4.619.328-5.937-2.647-8.013-4.864-.914 2.899-3.928 3.701-6.294 5.149zM93.313 140.222c6.749-5.231 16.123 6.007 9.444 12.021 8.012 3.483 3.176 18.895-5.151 16.598 1.025 10.069-12.779 13.108-13.45 2.861-4.94 4.309-15.314 3.592-14.021-5.725-12.355 2.012-11.762-14.893-4.578-18.026-3.622-8.413 6.328-18.085 13.735-11.446 2.984-4.774 15.456-6.148 14.021 3.717zm-2.575-3.719c-3.651-2.938-8.925-.905-10.588 2.574-1.179 5.08 1.494 6.997 4.579 9.156 4.215-1.546 8.388-5.401 6.009-11.73zm-12.305 2.003c-5.343-7.048-14.281 1.847-11.161 8.584 5.97 3.297 11.905-.974 11.161-8.584zm24.896 8.013c.058-2.188-2.256-5.099-4.292-5.724-3.469-1.065-6.361 2.198-7.44 5.724 2.744 1.072 3.713 3.918 4.579 6.866 1.138-1.055 2.707-1.679 5.151-1.431.729-1.855 1.951-3.487 2.002-5.435zm-25.183.285c-3.776 1.562-7.788 9.338-3.146 11.732 5.039 2.603 10.656-2.938 8.584-8.584-2.874.218-3.264-4.046-5.438-3.148zm13.45 1.431c-5.553-2.523-9.146 9.079-4.006 12.306 1.709.192 3.478-.081 5.438-.572 2.668-3.072 1.803-10.262-1.432-11.734zm-25.182.858c-4.849 3.198-5.848 11.058-1.145 14.882 4.413 1.58 7.263-.889 9.443-3.721-3.844-.511-4.346-7.271-2.29-10.302-2.414.786-3.906-.527-6.008-.859zm35.484 5.152c-4.423-1.032-7.632 3.92-6.868 8.013.343 1.832 2.222 2.47 2.29 5.151 7.947 1.919 10.954-11.677 4.578-13.164zm-30.046 12.304c-1.044 10.09 15.626 6.33 13.163-3.72-.333-1.361-1.537-2.347-3.434-3.147-3.893 1.745-9.26 2.332-9.729 6.867zm15.452-2.574c-.971 4.447-2.945 9.581.859 12.305 8.731 2.097 9.793-10.153 4.579-13.735-2.468-.178-4.165.413-5.438 1.43zM360.308 153.1c7.075-3.951 11.021 5.373 7.154 10.875-1.997 5.022-12.538 5.686-12.021-2.003-1.089.246-1.896.774-3.434.571-4.405-1.825-5.938-11.382-2.575-16.312 4.218-6.184 12.737-1.086 10.876 6.869zm-8.013 7.154c5.449 3.672 9.494-15.851 1.716-14.881-5.499.686-5.39 12.407-1.716 14.881zm7.154 5.723c6.253 1.117 8.969-6.031 6.866-10.874-6.311-3.62-11.119 7.275-6.866 10.874zM395.792 160.827c5.337 4.819 1.721 15.711-6.869 14.881-7.034-1.959-5.753-14.709.574-16.599-3.015-5.464 1.384-15.863 7.438-12.02 4.231 2.687 3.54 11.589-1.143 13.738zm-1.431-1.145c4.564-.479 4.711-12.403-.571-11.161-4.167.979-5.058 11.751.571 11.161zm1.716 4.293c-7.528-11.013-15.444 9.66-4.864 10.302 3.534-1.513 6.019-4.983 4.864-10.302zM339.988 28.045c-2.787-.755-4.165 2.074-7.152 1.431-2.544-.547-3.518-4.194-3.147-7.726.838-8.01 11.878-11.523 18.313-5.724 1.775 1.601 3.501 5.172 4.294 7.439.562 1.606.409 4.636.856 4.579 1.103 7.676-2.276 15.478-6.866 19.459-1.425 1.235-4.439 3.17-6.582 2.861-3.107-.445-4.465-4.001-4.579-6.296-.145-2.878 1.469-6.946 2.861-8.871 1.366-1.883 4.164-3.263 2.002-7.152zm7.728-9.73c-6.582-7.678-20.778-.93-14.881 9.158 2.646.872 3.784-1.573 6.582-1.431.742.975 2.043 1.391 2.86 2.29 1.72 5.382-2.52 6.646-4.006 9.729-1.978 4.103-1.419 7.379.859 10.302 12.426-.629 16.526-20.783 8.586-30.048zM384.631 25.47c-1.243 3.157-6.956 3.326-6.295 7.439 4.166 1.972 8.938 4.95 6.868 10.589-1.646 4.471-9.714 7.182-14.882 4.292-6.632-3.707-8.009-18.454-3.434-25.183 2.492-3.667 8.642-7.723 13.164-6.297.689.22 3.343 1.851 4.005 2.862 1.171 1.789.452 3.866.574 6.298zm-11.733 21.462c6.361 1.955 12.824-2.908 10.874-8.013-1.077-2.824-6.938-3.004-7.438-6.295-.858-5.617 9.146-5.592 6.867-11.733-.607-1.639-3.25-2.971-4.864-3.147-2.967-.328-8.1 3.378-9.158 4.579-2.455 2.785-3.547 8.732-2.861 13.448.89 6.131 3.304 10.155 6.58 11.161zM184.887 171.416c3.394-4.38 11.092-2.173 12.305 2.574 3.036-4.532 12.84-3.181 12.593 3.434 1.327-6.239 11.745-7.022 14.022-.856 3.139-5.211 14.021-8.296 16.024 0 2.184-3.599 9.309-4.075 11.159 0 3.168-5.303 14.332-6.421 14.882 1.717 1.731-1.32 2.968-3.138 4.863-4.293 1.872-.154 3.259.177 4.866.286 2.354 2.219 3.541 4.701 3.435 7.727-.287 8.023-11.54 14.345-14.596 4.293-2.189 4.79-12.393 7.109-14.308.571-2.347 4.562-10.705 4.105-12.021-1.145-3.142 5.269-13.483 6.104-14.308-1.718-2.68 5.593-12.478 8.212-14.023 0-2.427 1.633-4.375 5.137-8.299 4.866-3.046-.211-4.958-2.6-5.723-6.011-2.625 4.149-11.4 4.26-11.447-2.289-2.435 2.408-4.441 4.504-8.871 4.007-8.076-.906-5.396-17.866 1.432-18.029 2.677-.063 3.309 1.543 6.582 2.576.543.699 1.095 1.387 1.433 2.29zm-9.158-2.291c-1.06.274-.52 2.149-2.29 1.717-1.46 2.069-1.132 5.927-1.145 9.443 3.012 5.11 11.501 2.179 11.447-4.007-.021-2.307-1.122-3.968-1.718-6.01-2.129-.353-4.377-1.443-6.294-1.143zm12.306 14.88c6.108 3.14 8.921-7.803 7.154-10.874-1.237-2.151-5.769-3.279-8.3-1.431-1.36 3.835-1.958 10.712 1.146 12.305zm37.774-7.438c-2.497 3.852.584 11.134 3.721 11.732 8.807 1.68 12.229-15.699 3.722-15.453-1.856.053-6.629 2.464-7.443 3.721zm-28.044-.287c-1.542 4.382.185 12.682 6.295 10.588 6.646-2.274 5.994-14.972-1.717-13.735-2.829.452-3.993 1.483-4.578 3.147zm15.738 10.874c6.25 4.262 13.434-8.918 6.869-12.592-2.131-1.191-4.086-.064-7.441.573-2.442 2.985-2.284 10.072.572 12.019zm38.347-8.585c-.547 3.99-.47 8.279 1.718 10.304 8.14 3.674 14.729-9.44 8.299-14.311-4.188-.412-7.759.125-10.017 4.007zm-10.016-1.717c-2.637 2.411-3.314 12.289 3.147 11.732 4.834-.416 7.506-13.556.572-13.164-1.084.062-3.028.798-3.719 1.432zm25.183 2.576c-1.534 3.122-.934 10.094 2.861 10.587 4.933.644 9.456-7.18 6.582-12.305-1.011-1.804-3.113-2.021-4.578-1.718-1.416.297-4.013 1.701-4.865 3.436z"/><g><path d="M18.4 84.519c-.203.12-.549.214-.954.214-1.263 0-2.109-1.013-2.109-2.92 0-1.655.835-3.002 2.276-3.002.311 0 .644.083.811.18l-.179.751a1.475 1.475 0 0 0-.656-.155c-.929 0-1.334 1.096-1.334 2.228 0 1.348.512 2.157 1.358 2.157.238 0 .453-.048.656-.154l.131.701zM22.657 81.779c0 2.229-1.025 2.979-1.92 2.979-1.035 0-1.87-.94-1.87-2.966 0-2.099.941-2.979 1.931-2.979 1.036-.002 1.859.963 1.859 2.966zm-2.872 0c0 .953.167 2.252 1.001 2.252.785 0 .952-1.347.952-2.252 0-.882-.167-2.241-.978-2.241-.821-.001-.975 1.359-.975 2.241zM26.497 84.519c-.203.12-.548.214-.953.214-1.265 0-2.11-1.013-2.11-2.92 0-1.655.834-3.002 2.276-3.002.31 0 .643.083.811.18l-.179.751a1.479 1.479 0 0 0-.656-.155c-.93 0-1.335 1.096-1.335 2.228 0 1.348.512 2.157 1.359 2.157.239 0 .453-.048.656-.154l.131.701zM30.026 84.519c-.203.12-.548.214-.954.214-1.263 0-2.109-1.013-2.109-2.92 0-1.655.835-3.002 2.276-3.002.311 0 .644.083.812.18l-.179.751a1.475 1.475 0 0 0-.656-.155c-.929 0-1.334 1.096-1.334 2.228 0 1.348.512 2.157 1.359 2.157.237 0 .452-.048.655-.154l.13.701zM31.803 77.406c0 .355-.214.596-.56.596-.299 0-.524-.239-.524-.596 0-.358.239-.598.536-.598.334 0 .548.238.548.598zm-.989 7.256v-5.769h.917v5.769h-.917z"/></g><g><path d="M109.849 76.415h.905v3.171h.023c.299-.572.728-.774 1.229-.774.905 0 1.573 1.024 1.573 2.92 0 2.073-.858 3.025-1.751 3.025-.608 0-.918-.356-1.145-.846h-.047l-.06.751h-.776c.013-.333.048-.989.048-1.384l.001-6.863zm.905 6.221c0 .131.012.25.036.357.214.846.607 1 .87 1 .738 0 1.001-1 1.001-2.229 0-1.155-.274-2.168-1.025-2.168-.429 0-.774.525-.858 1.024a4.38 4.38 0 0 0-.023.395v1.621zM117.657 83.35c0 .441.011.942.06 1.312h-.822l-.06-.608h-.036c-.25.441-.656.703-1.156.703-.763 0-1.357-.645-1.357-1.643 0-1.455 1.155-2.087 2.455-2.099v-.18c0-.773-.202-1.3-.918-1.3a1.64 1.64 0 0 0-.953.299l-.202-.645c.25-.179.773-.381 1.346-.381 1.156 0 1.646.751 1.646 2.037l-.003 2.505zm-.894-1.68c-.477 0-1.585.095-1.585 1.347 0 .764.381 1.024.703 1.024.405 0 .739-.297.846-.868.023-.108.036-.229.036-.335V81.67zM121.771 84.519c-.203.12-.548.214-.953.214-1.264 0-2.109-1.013-2.109-2.92 0-1.655.834-3.002 2.275-3.002.311 0 .645.083.812.18l-.179.751a1.479 1.479 0 0 0-.656-.155c-.931 0-1.335 1.096-1.335 2.228 0 1.348.513 2.157 1.358 2.157.239 0 .453-.048.656-.154l.131.701zM123.548 77.406c0 .355-.214.596-.561.596-.298 0-.524-.239-.524-.596 0-.358.239-.598.537-.598.334 0 .548.238.548.598zm-.989 7.256v-5.769h.918v5.769h-.918zM124.752 76.415h.917v8.247h-.917v-8.247zM127.029 76.415h.918v8.247h-.918v-8.247zM130.295 77.406c0 .355-.214.596-.561.596-.298 0-.523-.239-.523-.596 0-.358.238-.598.536-.598.335 0 .548.238.548.598zm-.988 7.256v-5.769h.917v5.769h-.917z"/></g><g><path d="M236.768 83.708c.202.131.56.299.929.299.514 0 .848-.322.848-.834 0-.441-.155-.74-.739-1.133-.751-.479-1.155-.979-1.155-1.633 0-.942.689-1.598 1.583-1.598.454 0 .788.154 1.026.298l-.238.69c-.226-.154-.465-.263-.773-.263-.487 0-.738.357-.738.739s.143.596.713.989c.669.428 1.194.953 1.194 1.751 0 1.156-.788 1.716-1.741 1.716-.416 0-.882-.131-1.132-.333l.223-.688zM240.356 80.694c0-.882-.036-1.395-.049-1.8h.812l.047.739h.022c.323-.608.774-.822 1.229-.822 1.013 0 1.668 1.062 1.668 2.954 0 2.146-.882 2.991-1.787 2.991-.548 0-.859-.345-1.014-.666h-.022v2.859h-.906v-6.255zm.907 1.859c0 .166.011.333.046.476.182.822.597.966.849.966.763 0 1.013-1.049 1.013-2.203 0-1.192-.287-2.193-1.024-2.193-.418 0-.8.512-.848 1.037a2.624 2.624 0 0 0-.034.441l-.002 1.476zM246.115 77.406c0 .355-.217.596-.562.596-.299 0-.525-.239-.525-.596 0-.358.238-.598.537-.598.334 0 .55.238.55.598zm-.99 7.256v-5.769h.917v5.769h-.917zM247.309 80.384c0-.489-.036-1.062-.05-1.49h.824l.046.918h.022c.192-.549.683-1.001 1.218-1.001.07 0 .131 0 .19.013v.93h-.19c-.585 0-1.014.535-1.108 1.189a3.657 3.657 0 0 0-.035.525v3.193h-.917v-4.277zM253.648 81.779c0 2.229-1.023 2.979-1.918 2.979-1.036 0-1.872-.94-1.872-2.966 0-2.099.943-2.979 1.933-2.979 1.037-.002 1.857.963 1.857 2.966zm-2.871 0c0 .953.167 2.252 1.001 2.252.787 0 .953-1.347.953-2.252 0-.882-.166-2.241-.978-2.241-.82-.001-.976 1.359-.976 2.241zM257.488 84.519c-.201.12-.547.214-.951.214-1.264 0-2.11-1.013-2.11-2.92 0-1.655.836-3.002 2.276-3.002.311 0 .644.083.81.18l-.178.751a1.478 1.478 0 0 0-.655-.155c-.93 0-1.336 1.096-1.336 2.228 0 1.348.513 2.157 1.359 2.157.238 0 .452-.048.654-.154l.131.701zM258.277 76.415h.917v3.11h.024c.119-.202.299-.382.488-.513.203-.131.441-.202.763-.202.728 0 1.348.571 1.348 2.025v3.825h-.917v-3.72c0-.702-.155-1.356-.775-1.356-.43 0-.749.31-.895.918a2.46 2.46 0 0 0-.036.428v3.73h-.917v-8.245zM263.75 81.862c0 1.775.704 2.146 1.358 2.146.404 0 .728-.097.952-.216l.155.668c-.321.166-.812.272-1.274.272-1.382 0-2.098-1.132-2.098-2.895 0-1.86.798-3.027 1.953-3.027 1.169 0 1.645 1.238 1.645 2.526 0 .226-.012.382-.021.523l-2.67.003zm1.811-.68c.015-1.145-.416-1.656-.854-1.656-.608 0-.907.87-.943 1.656h1.797zM268.556 77.547v1.347h1.106v.691h-1.106v3.432c0 .751.263.953.595.953.155 0 .274-.012.369-.034l.048.703c-.167.061-.381.094-.68.094-.369 0-.688-.094-.905-.345-.237-.262-.345-.656-.345-1.454v-3.349h-.703v-.691h.703v-.977l.918-.37zM271.024 81.862c0 1.775.702 2.146 1.356 2.146.406 0 .729-.097.955-.216l.153.668c-.32.166-.81.272-1.274.272-1.382 0-2.097-1.132-2.097-2.895 0-1.86.799-3.027 1.953-3.027 1.168 0 1.646 1.238 1.646 2.526 0 .226-.012.382-.023.523l-2.669.003zm1.811-.68c.012-1.145-.417-1.656-.858-1.656-.607 0-.905.87-.939 1.656h1.797z"/></g><g><path d="M354.446 78.894l.729 3.241c.083.393.178.906.251 1.406h.034c.062-.478.156-.965.239-1.406l.716-3.241h.904l-1.514 5.769h-.811l-1.501-5.769h.953zM359.108 77.406c0 .355-.214.596-.561.596-.297 0-.523-.239-.523-.596 0-.358.238-.598.535-.598.336 0 .549.238.549.598zm-.988 7.256v-5.769h.917v5.769h-.917zM360.301 76.415h.905v3.171h.023c.299-.572.728-.774 1.228-.774.905 0 1.573 1.024 1.573 2.92 0 2.073-.856 3.025-1.751 3.025-.607 0-.919-.356-1.145-.846h-.048l-.061.751h-.773c.012-.333.047-.989.047-1.384l.002-6.863zm.905 6.221c0 .131.013.25.038.357.212.846.605 1 .867 1 .738 0 1-1 1-2.229 0-1.155-.272-2.168-1.023-2.168-.428 0-.774.525-.857 1.024a4.38 4.38 0 0 0-.023.395l-.002 1.621zM365.059 80.384c0-.489-.036-1.062-.048-1.49h.822l.048.918h.022c.192-.549.681-1.001 1.218-1.001.069 0 .131 0 .188.013v.93h-.188c-.585 0-1.014.535-1.109 1.189a3.657 3.657 0 0 0-.035.525v3.193h-.918v-4.277zM369.016 77.406c0 .355-.214.596-.559.596-.3 0-.525-.239-.525-.596 0-.358.239-.598.537-.598.333 0 .547.238.547.598zm-.99 7.256v-5.769h.919v5.769h-.919zM373.761 81.779c0 2.229-1.025 2.979-1.919 2.979-1.037 0-1.871-.94-1.871-2.966 0-2.099.94-2.979 1.931-2.979 1.036-.002 1.859.963 1.859 2.966zm-2.873 0c0 .953.166 2.252 1.002 2.252.786 0 .953-1.347.953-2.252 0-.882-.167-2.241-.977-2.241-.824-.001-.978 1.359-.978 2.241zM374.632 83.708c.203.131.562.299.932.299.513 0 .845-.322.845-.834 0-.441-.154-.74-.738-1.133-.751-.479-1.155-.979-1.155-1.633 0-.942.691-1.598 1.585-1.598.453 0 .786.154 1.024.298l-.238.69c-.229-.154-.465-.263-.774-.263-.488 0-.738.357-.738.739s.143.596.716.989c.667.428 1.189.953 1.189 1.751 0 1.156-.784 1.716-1.738 1.716-.418 0-.883-.131-1.133-.333l.223-.688z"/></g><g><path d="M6.493 210.215c-.203.119-.55.214-.953.214-1.265 0-2.11-1.013-2.11-2.92 0-1.656.834-3.003 2.276-3.003.31 0 .643.083.81.18l-.178.751a1.493 1.493 0 0 0-.656-.155c-.93 0-1.335 1.096-1.335 2.229 0 1.347.512 2.157 1.359 2.157.237 0 .453-.048.655-.154l.132.701zM7.281 202.111H8.2v8.247h-.919v-8.247zM13.014 208.785c0 .632.036 1.144.047 1.572h-.798l-.071-.607h-.023c-.167.286-.608.703-1.228.703-1.001 0-1.405-.786-1.405-2.217v-3.646h.917v3.517c0 .905.144 1.572.774 1.572.537 0 .774-.501.823-.763.036-.154.047-.334.047-.524v-3.802h.917v4.195zM14.149 209.405c.203.132.561.299.931.299.513 0 .846-.321.846-.834 0-.44-.155-.739-.739-1.133-.751-.478-1.155-.979-1.155-1.634 0-.94.69-1.597 1.585-1.597.453 0 .786.154 1.024.299l-.238.689c-.227-.154-.464-.263-.773-.263-.488 0-.739.358-.739.739 0 .382.144.596.714.99.667.428 1.192.953 1.192 1.751 0 1.155-.787 1.716-1.74 1.716-.417 0-.882-.131-1.132-.333l.224-.689zM18.871 203.243v1.347h1.106v.691h-1.106v3.433c0 .751.262.953.595.953.155 0 .274-.013.37-.035l.047.703a2 2 0 0 1-.679.095c-.37 0-.691-.095-.905-.345-.239-.264-.346-.657-.346-1.454v-3.35h-.704v-.691h.704v-.978l.918-.369zM21.339 207.557c0 1.776.703 2.146 1.357 2.146.406 0 .728-.097.954-.217l.155.67c-.321.166-.81.272-1.275.272-1.382 0-2.097-1.133-2.097-2.896 0-1.859.798-3.027 1.954-3.027 1.168 0 1.646 1.239 1.646 2.527 0 .226-.013.381-.023.522l-2.671.003zm1.81-.68c.014-1.145-.417-1.656-.856-1.656-.608 0-.906.87-.942 1.656h1.798zM25.011 206.08c0-.488-.036-1.062-.048-1.49h.822l.048.919h.022c.19-.549.681-1.002 1.216-1.002.071 0 .132 0 .19.012v.931h-.19c-.584 0-1.013.535-1.107 1.19a3.492 3.492 0 0 0-.036.525v3.192h-.918l.001-4.277zM27.825 209.405c.202.132.561.299.93.299.512 0 .846-.321.846-.834 0-.44-.155-.739-.739-1.133-.751-.478-1.155-.979-1.155-1.634 0-.94.69-1.597 1.584-1.597.453 0 .787.154 1.024.299l-.238.689c-.227-.154-.465-.263-.774-.263-.488 0-.739.358-.739.739 0 .382.144.596.715.99.667.428 1.192.953 1.192 1.751 0 1.155-.787 1.716-1.74 1.716-.417 0-.882-.131-1.132-.333l.226-.689zM5.753 216.418c-.679 1.072-1.239 2.682-1.239 4.852 0 2.132.561 3.74 1.239 4.826h-.714c-.62-.906-1.299-2.504-1.299-4.84.023-2.334.679-3.944 1.299-4.838h.714zM7.22 221.865c0 1.775.704 2.146 1.359 2.146.404 0 .727-.096.954-.215l.154.668c-.321.166-.81.272-1.274.272-1.384 0-2.099-1.133-2.099-2.895 0-1.86.798-3.028 1.955-3.028 1.167 0 1.645 1.239 1.645 2.527 0 .226-.013.381-.024.522H7.22v.003zm1.813-.68c.012-1.144-.418-1.656-.859-1.656-.608 0-.905.87-.941 1.656h1.8zM10.727 224.07c0-.404.274-.69.608-.69.356 0 .607.273.607.69s-.227.69-.619.69c-.333 0-.596-.273-.596-.69zM16.58 223.926c0 1.514-.191 2.086-.572 2.515-.346.383-.882.607-1.538.607-.488 0-.965-.118-1.263-.285l.214-.715c.227.119.607.25 1.073.25.727 0 1.18-.452 1.18-1.764v-.584h-.024c-.19.452-.619.702-1.107.702-1.025 0-1.692-1.154-1.692-2.849 0-2.12.965-2.991 1.824-2.991.606 0 .894.405 1.073.728h.022l.048-.645h.811c-.012.395-.047.905-.047 1.801l-.002 3.23zm-.907-3.038c0-.144-.012-.298-.047-.417-.096-.394-.311-.871-.834-.871-.668 0-1.025.895-1.025 2.169 0 1.466.465 2.134 1.025 2.134.285 0 .644-.131.821-.821.049-.18.061-.358.061-.524l-.001-1.67zM17.534 224.07c0-.404.273-.69.607-.69.357 0 .608.273.608.69s-.228.69-.62.69c-.332 0-.595-.273-.595-.69zM21.624 223.712c.203.131.561.298.93.298.512 0 .846-.321.846-.834 0-.44-.154-.739-.738-1.132-.751-.479-1.156-.979-1.156-1.634 0-.941.689-1.598 1.585-1.598.453 0 .786.154 1.025.299l-.239.689c-.228-.154-.464-.262-.774-.262-.489 0-.739.357-.739.738 0 .383.144.597.716.99.667.428 1.191.953 1.191 1.751 0 1.155-.787 1.716-1.74 1.716-.417 0-.882-.131-1.133-.333l.226-.688zM26.345 217.551v1.346h1.108v.691h-1.108v3.433c0 .751.263.953.596.953.155 0 .274-.012.37-.035l.047.703c-.167.061-.381.095-.679.095-.37 0-.691-.095-.906-.345-.237-.263-.345-.656-.345-1.454v-3.35h-.703v-.691h.703v-.977l.917-.369zM31.304 223.354c0 .441.012.941.06 1.312h-.821l-.061-.608h-.036c-.25.441-.655.703-1.155.703-.764 0-1.359-.644-1.359-1.644 0-1.454 1.156-2.086 2.455-2.099v-.179c0-.774-.203-1.3-.918-1.3a1.63 1.63 0 0 0-.953.299l-.203-.645c.25-.18.774-.382 1.348-.382 1.155 0 1.645.751 1.645 2.038v2.505zm-.893-1.68c-.478 0-1.585.095-1.585 1.347 0 .764.381 1.024.702 1.024.405 0 .739-.297.848-.869.022-.107.036-.227.036-.335l-.001-1.167zM32.594 220.698c0-.883-.036-1.396-.048-1.802h.811l.047.739h.024c.322-.608.775-.822 1.228-.822 1.014 0 1.669 1.062 1.669 2.955 0 2.146-.883 2.991-1.788 2.991-.549 0-.858-.345-1.014-.667H33.5v2.86h-.905v-6.254zm.905 1.858c0 .166.013.334.048.478.178.821.596.965.846.965.763 0 1.012-1.048 1.012-2.204 0-1.191-.285-2.193-1.023-2.193-.417 0-.798.514-.847 1.038a2.612 2.612 0 0 0-.036.44v1.476zM37.363 216.418h.917v3.109h.024c.119-.201.297-.381.488-.513.203-.131.44-.202.763-.202.728 0 1.347.572 1.347 2.026v3.825h-.918v-3.72c0-.702-.154-1.357-.774-1.357-.43 0-.75.311-.895.919a2.551 2.551 0 0 0-.036.428v3.73h-.917l.001-8.245zM42.55 218.897l.774 3.313c.095.454.154.822.238 1.19h.023c.06-.333.155-.763.239-1.179l.69-3.326h.905l-.941 3.707c-.357 1.441-.763 2.836-1.43 3.718-.405.514-.834.774-1.037.87l-.345-.773c.273-.155.56-.405.821-.729.239-.31.418-.69.513-.977a.805.805 0 0 0 .07-.287.7.7 0 0 0-.035-.214l-1.453-5.315.968.002zM46.211 216.418h.917v8.247h-.917v-8.247zM52.028 221.782c0 2.229-1.024 2.979-1.919 2.979-1.037 0-1.871-.94-1.871-2.967 0-2.097.942-2.979 1.932-2.979 1.036-.001 1.858.965 1.858 2.967zm-2.873 0c0 .953.167 2.252 1.001 2.252.786 0 .954-1.348.954-2.252 0-.883-.167-2.241-.978-2.241-.821 0-.977 1.359-.977 2.241zM55.868 224.523c-.203.119-.549.214-.954.214-1.264 0-2.11-1.013-2.11-2.92 0-1.655.835-3.003 2.277-3.003.31 0 .643.083.811.181l-.179.751a1.473 1.473 0 0 0-.656-.156c-.929 0-1.334 1.097-1.334 2.229 0 1.348.512 2.157 1.359 2.157.237 0 .453-.048.654-.154l.132.701zM60.124 221.782c0 2.229-1.025 2.979-1.919 2.979-1.036 0-1.871-.94-1.871-2.967 0-2.097.941-2.979 1.931-2.979 1.037-.001 1.859.965 1.859 2.967zm-2.872 0c0 .953.167 2.252 1.001 2.252.787 0 .954-1.348.954-2.252 0-.883-.167-2.241-.979-2.241-.821 0-.976 1.359-.976 2.241zM63.964 224.523c-.203.119-.549.214-.953.214-1.264 0-2.11-1.013-2.11-2.92 0-1.655.834-3.003 2.276-3.003.31 0 .643.083.81.181l-.178.751a1.473 1.473 0 0 0-.656-.156c-.93 0-1.335 1.097-1.335 2.229 0 1.348.513 2.157 1.359 2.157.238 0 .453-.048.656-.154l.131.701zM67.493 224.523c-.203.119-.549.214-.953.214-1.265 0-2.11-1.013-2.11-2.92 0-1.655.835-3.003 2.276-3.003.31 0 .644.083.811.181l-.179.751a1.477 1.477 0 0 0-.656-.156c-.929 0-1.335 1.097-1.335 2.229 0 1.348.513 2.157 1.359 2.157.238 0 .453-.048.655-.154l.132.701zM69.27 217.409c0 .355-.214.595-.56.595-.298 0-.525-.238-.525-.595 0-.358.239-.599.537-.599.334.001.548.24.548.599zm-.989 7.257v-5.77h.919v5.77h-.919zM70.129 226.096c.68-1.072 1.239-2.706 1.239-4.852s-.561-3.754-1.239-4.826h.715c.619.882 1.299 2.467 1.299 4.826-.023 2.358-.68 3.934-1.299 4.852h-.715z"/></g><g><path d="M189.818 210.215c-.203.119-.549.214-.954.214-1.263 0-2.108-1.013-2.108-2.92 0-1.656.834-3.003 2.275-3.003.311 0 .644.083.811.18l-.179.751a1.488 1.488 0 0 0-.655-.155c-.93 0-1.335 1.096-1.335 2.229 0 1.347.512 2.157 1.358 2.157.238 0 .453-.048.656-.154l.131.701zM190.606 202.111h.918v3.11h.024c.119-.202.297-.381.488-.513.202-.131.44-.202.763-.202.727 0 1.347.572 1.347 2.026v3.824h-.918v-3.719c0-.703-.154-1.358-.774-1.358-.43 0-.75.312-.895.92a2.434 2.434 0 0 0-.036.428v3.729h-.918l.001-8.245zM198.474 209.046c0 .439.012.94.061 1.312h-.823l-.061-.607h-.035c-.25.439-.656.703-1.156.703-.764 0-1.358-.645-1.358-1.645 0-1.454 1.155-2.086 2.455-2.098v-.179c0-.774-.202-1.301-.918-1.301a1.63 1.63 0 0 0-.953.3l-.202-.645c.25-.18.774-.382 1.347-.382 1.155 0 1.645.751 1.645 2.038v2.504zm-.893-1.679c-.478 0-1.585.095-1.585 1.347 0 .763.381 1.023.703 1.023.404 0 .738-.297.846-.868.022-.107.036-.228.036-.335v-1.167zM200.765 203.1c0 .357-.214.596-.56.596-.298 0-.525-.237-.525-.596 0-.357.239-.597.537-.597.334 0 .548.24.548.597zm-.99 7.258v-5.769h.918v5.769h-.918zM201.969 206.08c0-.681-.035-1.024-.047-1.49h.798l.047.703h.024c.25-.464.715-.786 1.322-.786.799 0 1.396.584 1.396 1.979v3.873h-.917v-3.706c0-.69-.131-1.37-.798-1.37-.381 0-.751.32-.858.931a2.22 2.22 0 0 0-.048.522v3.623h-.918l-.001-4.279zM206.644 209.405c.203.132.561.299.931.299.513 0 .846-.321.846-.834 0-.44-.155-.739-.738-1.133-.751-.478-1.156-.979-1.156-1.634 0-.94.69-1.597 1.585-1.597.453 0 .786.154 1.025.299l-.239.689c-.227-.154-.464-.263-.773-.263-.489 0-.739.358-.739.739 0 .382.143.596.715.99.667.428 1.192.953 1.192 1.751 0 1.155-.787 1.716-1.74 1.716-.417 0-.882-.131-1.132-.333l.223-.689zM189.079 216.418c-.68 1.072-1.239 2.682-1.239 4.852 0 2.132.56 3.74 1.239 4.826h-.716c-.619-.906-1.299-2.504-1.299-4.84.024-2.334.68-3.944 1.299-4.838h.716zM190.546 221.865c0 1.775.704 2.146 1.358 2.146.405 0 .728-.096.954-.215l.155.668c-.322.166-.81.272-1.275.272-1.383 0-2.098-1.133-2.098-2.895 0-1.86.798-3.028 1.955-3.028 1.167 0 1.644 1.239 1.644 2.527 0 .226-.012.381-.023.522h-2.67v.003zm1.812-.68c.012-1.144-.418-1.656-.858-1.656-.608 0-.905.87-.941 1.656h1.799zM194.052 224.07c0-.404.274-.69.608-.69.356 0 .607.273.607.69s-.227.69-.62.69c-.332 0-.595-.273-.595-.69zM199.905 223.926c0 1.514-.19 2.086-.571 2.515-.347.383-.882.607-1.538.607-.488 0-.965-.118-1.263-.285l.214-.715c.227.119.607.25 1.072.25.728 0 1.181-.452 1.181-1.764v-.584h-.024c-.19.452-.62.702-1.107.702-1.025 0-1.692-1.154-1.692-2.849 0-2.12.965-2.991 1.824-2.991.606 0 .894.405 1.072.728h.023l.048-.645h.811c-.012.395-.048.905-.048 1.801l-.002 3.23zm-.906-3.038c0-.144-.013-.298-.047-.417-.096-.394-.311-.871-.834-.871-.668 0-1.025.895-1.025 2.169 0 1.466.465 2.134 1.025 2.134.284 0 .644-.131.821-.821.048-.18.061-.358.061-.524l-.001-1.67zM200.86 224.07c0-.404.274-.69.608-.69.357 0 .608.273.608.69s-.228.69-.62.69c-.333 0-.596-.273-.596-.69zM204.949 223.712c.202.131.561.298.93.298.512 0 .846-.321.846-.834 0-.44-.155-.739-.739-1.132-.751-.479-1.155-.979-1.155-1.634 0-.941.689-1.598 1.585-1.598.453 0 .786.154 1.024.299l-.238.689c-.228-.154-.465-.262-.774-.262-.489 0-.739.357-.739.738 0 .383.144.597.715.99.667.428 1.192.953 1.192 1.751 0 1.155-.787 1.716-1.74 1.716-.417 0-.882-.131-1.133-.333l.226-.688zM209.67 217.551v1.346h1.107v.691h-1.107v3.433c0 .751.263.953.596.953.155 0 .274-.012.37-.035l.047.703c-.167.061-.381.095-.679.095-.37 0-.691-.095-.906-.345-.238-.263-.345-.656-.345-1.454v-3.35h-.703v-.691h.703v-.977l.917-.369zM211.579 220.387c0-.488-.036-1.061-.049-1.49h.822l.048.919h.024c.191-.549.679-1.002 1.215-1.002.071 0 .131 0 .191.013v.931h-.191c-.584 0-1.013.535-1.107 1.189a3.511 3.511 0 0 0-.036.525v3.193h-.917v-4.278zM215.025 221.865c0 1.775.703 2.146 1.358 2.146.405 0 .728-.096.953-.215l.155.668c-.321.166-.811.272-1.275.272-1.382 0-2.097-1.133-2.097-2.895 0-1.86.798-3.028 1.953-3.028 1.169 0 1.646 1.239 1.646 2.527 0 .226-.012.381-.023.522h-2.67v.003zm1.811-.68c.012-1.144-.417-1.656-.857-1.656-.607 0-.906.87-.941 1.656h1.798zM218.697 220.698c0-.883-.034-1.396-.048-1.802h.812l.047.739h.023c.321-.608.774-.822 1.229-.822 1.014 0 1.669 1.062 1.669 2.955 0 2.146-.882 2.991-1.788 2.991-.548 0-.857-.345-1.013-.667h-.024v2.86h-.904v-6.255h-.003zm.906 1.858c0 .166.014.334.048.478.181.821.598.965.847.965.763 0 1.014-1.048 1.014-2.204 0-1.191-.286-2.193-1.025-2.193-.417 0-.798.514-.846 1.038a2.72 2.72 0 0 0-.036.44l-.002 1.476zM224.586 217.551v1.346h1.107v.691h-1.107v3.433c0 .751.264.953.596.953.155 0 .275-.012.37-.035l.048.703c-.168.061-.382.095-.68.095-.37 0-.69-.095-.905-.345-.239-.263-.346-.656-.346-1.454v-3.35h-.702v-.691h.702v-.977l.917-.369zM229.951 221.782c0 2.229-1.026 2.979-1.921 2.979-1.035 0-1.869-.94-1.869-2.967 0-2.097.94-2.979 1.932-2.979 1.036-.001 1.858.965 1.858 2.967zm-2.871 0c0 .953.165 2.252 1.001 2.252.786 0 .952-1.348.952-2.252 0-.883-.166-2.241-.978-2.241-.821 0-.975 1.359-.975 2.241zM233.791 224.523c-.202.119-.549.214-.953.214-1.264 0-2.11-1.013-2.11-2.92 0-1.655.835-3.003 2.276-3.003.312 0 .643.083.811.181l-.179.751a1.475 1.475 0 0 0-.655-.156c-.929 0-1.335 1.097-1.335 2.229 0 1.348.514 2.157 1.358 2.157.238 0 .454-.048.656-.154l.131.701zM238.049 221.782c0 2.229-1.026 2.979-1.92 2.979-1.037 0-1.871-.94-1.871-2.967 0-2.097.939-2.979 1.931-2.979 1.036-.001 1.86.965 1.86 2.967zm-2.874 0c0 .953.168 2.252 1.002 2.252.786 0 .953-1.348.953-2.252 0-.883-.167-2.241-.978-2.241-.823 0-.977 1.359-.977 2.241zM241.888 224.523c-.203.119-.548.214-.954.214-1.264 0-2.108-1.013-2.108-2.92 0-1.655.834-3.003 2.275-3.003.312 0 .645.083.812.181l-.18.751a1.464 1.464 0 0 0-.655-.156c-.93 0-1.334 1.097-1.334 2.229 0 1.348.513 2.157 1.357 2.157.239 0 .453-.048.656-.154l.131.701zM245.416 224.523c-.202.119-.547.214-.951.214-1.264 0-2.111-1.013-2.111-2.92 0-1.655.836-3.003 2.276-3.003.311 0 .644.083.812.181l-.18.751a1.47 1.47 0 0 0-.654-.156c-.931 0-1.337 1.097-1.337 2.229 0 1.348.514 2.157 1.359 2.157.239 0 .453-.048.655-.154l.131.701zM247.195 217.409c0 .355-.216.595-.561.595-.299 0-.525-.238-.525-.595 0-.358.238-.599.537-.599.333.001.549.24.549.599zm-.99 7.257v-5.77h.917v5.77h-.917zM248.054 226.096c.679-1.072 1.238-2.706 1.238-4.852s-.561-3.754-1.238-4.826h.715c.618.882 1.3 2.467 1.3 4.826-.024 2.358-.682 3.934-1.3 4.852h-.715z"/></g><g><path d="M342 206.39c0-.882-.036-1.395-.048-1.801h.811l.048.739h.023c.321-.608.773-.822 1.229-.822 1.015 0 1.668 1.062 1.668 2.955 0 2.146-.882 2.991-1.787 2.991-.549 0-.857-.347-1.013-.667h-.024v2.859H342v-6.254zm.905 1.859c0 .166.015.333.049.477.178.822.598.965.848.965.763 0 1.012-1.048 1.012-2.204 0-1.191-.287-2.192-1.024-2.192-.417 0-.8.513-.846 1.038a2.713 2.713 0 0 0-.037.439l-.002 1.477zM349.809 209.046c0 .439.012.94.06 1.312h-.82l-.062-.607h-.034c-.25.439-.655.703-1.155.703-.764 0-1.359-.645-1.359-1.645 0-1.454 1.155-2.086 2.455-2.098v-.179c0-.774-.202-1.301-.918-1.301-.357 0-.679.107-.952.3l-.204-.645c.25-.18.774-.382 1.349-.382 1.155 0 1.645.751 1.645 2.038v2.503h-.005zm-.894-1.679c-.479 0-1.586.095-1.586 1.347 0 .763.381 1.023.704 1.023.403 0 .737-.297.846-.868.022-.107.036-.228.036-.335v-1.167zM352.099 203.1c0 .357-.214.596-.561.596-.297 0-.523-.237-.523-.596 0-.357.238-.597.535-.597.335 0 .549.24.549.597zm-.989 7.258v-5.769h.917v5.769h-.917zM353.291 206.08c0-.488-.035-1.062-.047-1.49h.82l.049.919h.023c.189-.549.679-1.002 1.216-1.002a.95.95 0 0 1 .19.012v.931h-.19c-.584 0-1.014.535-1.107 1.19a3.492 3.492 0 0 0-.036.525v3.192h-.918v-4.277zM356.105 209.405c.202.132.56.299.93.299.513 0 .848-.321.848-.834 0-.44-.156-.739-.74-1.133-.751-.478-1.155-.979-1.155-1.634 0-.94.689-1.597 1.584-1.597.454 0 .787.154 1.025.299l-.238.689c-.226-.154-.465-.263-.773-.263-.487 0-.738.358-.738.739 0 .382.143.596.714.99.668.428 1.193.953 1.193 1.751 0 1.155-.787 1.716-1.741 1.716-.416 0-.882-.131-1.132-.333l.223-.689zM344.086 216.418c-.681 1.072-1.24 2.682-1.24 4.852 0 2.132.562 3.74 1.24 4.826h-.716c-.62-.906-1.3-2.504-1.3-4.84.023-2.334.68-3.944 1.3-4.838h.716zM345.553 221.865c0 1.775.703 2.146 1.358 2.146.405 0 .727-.096.952-.215l.154.668c-.32.166-.809.272-1.273.272-1.384 0-2.098-1.133-2.098-2.895 0-1.86.798-3.028 1.954-3.028 1.167 0 1.646 1.239 1.646 2.527 0 .226-.013.381-.023.522h-2.67v.003zm1.811-.68c.012-1.144-.417-1.656-.858-1.656-.606 0-.905.87-.94 1.656h1.798zM349.058 224.07c0-.404.275-.69.608-.69.357 0 .607.273.607.69s-.227.69-.62.69c-.332 0-.595-.273-.595-.69zM354.912 223.926c0 1.514-.192 2.086-.573 2.515-.345.383-.882.607-1.537.607-.489 0-.965-.118-1.264-.285l.216-.715c.227.119.607.25 1.071.25.728 0 1.181-.452 1.181-1.764v-.584h-.025c-.188.452-.618.702-1.105.702-1.025 0-1.694-1.154-1.694-2.849 0-2.12.967-2.991 1.826-2.991.605 0 .894.405 1.07.728h.022l.05-.645h.811c-.012.395-.047.905-.047 1.801l-.002 3.23zm-.906-3.038c0-.144-.012-.298-.049-.417-.096-.394-.31-.871-.832-.871-.67 0-1.026.895-1.026 2.169 0 1.466.464 2.134 1.026 2.134.285 0 .643-.131.819-.821.05-.18.062-.358.062-.524v-1.67zM355.867 224.07c0-.404.272-.69.607-.69.356 0 .606.273.606.69s-.227.69-.62.69c-.331 0-.593-.273-.593-.69zM360.1 220.698c0-.883-.036-1.396-.05-1.802h.812l.048.739h.022c.322-.608.773-.822 1.229-.822 1.014 0 1.669 1.062 1.669 2.955 0 2.146-.884 2.991-1.788 2.991-.547 0-.858-.345-1.014-.667h-.022v2.86h-.906v-6.254zm.905 1.858c0 .166.012.334.047.478.181.821.597.965.847.965.764 0 1.015-1.048 1.015-2.204 0-1.191-.287-2.193-1.025-2.193-.418 0-.799.514-.847 1.038a2.616 2.616 0 0 0-.035.44l-.002 1.476zM364.868 220.387c0-.68-.035-1.024-.048-1.49h.799l.047.703h.023c.25-.464.715-.786 1.323-.786.797 0 1.396.584 1.396 1.979v3.873h-.919v-3.706c0-.691-.131-1.371-.799-1.371-.381 0-.751.322-.856.931a2.172 2.172 0 0 0-.049.523v3.623h-.917v-4.279zM370.341 221.865c0 1.775.703 2.146 1.356 2.146.406 0 .728-.096.954-.215l.154.668c-.32.166-.81.272-1.275.272-1.383 0-2.096-1.133-2.096-2.895 0-1.86.797-3.028 1.953-3.028 1.167 0 1.646 1.239 1.646 2.527 0 .226-.013.381-.023.522h-2.669v.003zm1.81-.68c.013-1.144-.416-1.656-.857-1.656-.607 0-.906.87-.94 1.656h1.797zM377.481 223.092c0 .632.035 1.144.047 1.573h-.798l-.073-.608h-.021c-.166.287-.609.703-1.229.703-1.001 0-1.406-.786-1.406-2.216v-3.647h.918v3.518c0 .904.145 1.571.775 1.571.535 0 .774-.501.82-.763.037-.154.048-.333.048-.523v-3.803h.919v4.195zM378.771 220.387c0-.68-.037-1.024-.049-1.49h.8l.046.717h.023c.25-.466.693-.8 1.3-.8.537 0 .988.251 1.204.883h.023c.153-.286.356-.523.572-.656.227-.154.499-.227.798-.227.773 0 1.384.562 1.384 2.038v3.813h-.906v-3.611c0-.751-.107-1.478-.812-1.478-.382 0-.714.321-.845.87a3.33 3.33 0 0 0-.037.513v3.706h-.906v-3.777c0-.632-.104-1.312-.797-1.312-.382 0-.751.321-.858.941a3.154 3.154 0 0 0-.034.487v3.659h-.905v-4.276h-.001zM389.702 221.782c0 2.229-1.024 2.979-1.919 2.979-1.036 0-1.871-.94-1.871-2.967 0-2.097.942-2.979 1.932-2.979 1.037-.001 1.858.965 1.858 2.967zm-2.872 0c0 .953.168 2.252 1.002 2.252.787 0 .953-1.348.953-2.252 0-.883-.166-2.241-.979-2.241-.82 0-.976 1.359-.976 2.241zM393.542 224.523c-.203.119-.548.214-.952.214-1.264 0-2.11-1.013-2.11-2.92 0-1.655.835-3.003 2.276-3.003.31 0 .644.083.809.181l-.177.751a1.48 1.48 0 0 0-.655-.156c-.93 0-1.336 1.097-1.336 2.229 0 1.348.513 2.157 1.359 2.157.238 0 .452-.048.654-.154l.132.701zM397.799 221.782c0 2.229-1.026 2.979-1.92 2.979-1.036 0-1.87-.94-1.87-2.967 0-2.097.941-2.979 1.932-2.979 1.036-.001 1.858.965 1.858 2.967zm-2.871 0c0 .953.165 2.252 1.001 2.252.786 0 .952-1.348.952-2.252 0-.883-.166-2.241-.978-2.241-.821 0-.975 1.359-.975 2.241zM401.639 224.523c-.202.119-.549.214-.953.214-1.264 0-2.11-1.013-2.11-2.92 0-1.655.835-3.003 2.276-3.003.312 0 .643.083.812.181l-.18.751a1.472 1.472 0 0 0-.655-.156c-.929 0-1.335 1.097-1.335 2.229 0 1.348.514 2.157 1.358 2.157.238 0 .454-.048.656-.154l.131.701zM405.168 224.523c-.203.119-.548.214-.953.214-1.265 0-2.109-1.013-2.109-2.92 0-1.655.834-3.003 2.277-3.003.309 0 .643.083.809.181l-.178.751a1.473 1.473 0 0 0-.656-.156c-.93 0-1.335 1.097-1.335 2.229 0 1.348.513 2.157 1.36 2.157.237 0 .45-.048.653-.154l.132.701zM406.945 217.409c0 .355-.214.595-.561.595-.297 0-.523-.238-.523-.595 0-.358.238-.599.535-.599.335.001.549.24.549.599zm-.989 7.257v-5.77h.917v5.77h-.917zM407.805 226.096c.68-1.072 1.238-2.706 1.238-4.852s-.56-3.754-1.238-4.826h.714c.62.882 1.3 2.467 1.3 4.826-.023 2.358-.68 3.934-1.3 4.852h-.714z"/></g></svg>