<svg version="1.1" xmlns="http://www.w3.org/2000/svg" x="0" y="0" width="410.861" height="226.203" viewBox="0 0 410.861 226.203" xml:space="preserve"><path fill="#FFF" d="M353.799 145.5c31.378 0 56.812-14.506 56.812-32.397 0-17.892-25.437-32.397-56.812-32.397s-56.812 14.505-56.812 32.397c0 17.891 25.436 32.397 56.812 32.397"/><path d="M320.811 110.059l1.627-1.368c.478-.403.878-.772 1.203-1.107.324-.336.572-.654.741-.954.171-.3.256-.606.256-.917a.995.995 0 0 0-.239-.684c-.158-.18-.397-.27-.715-.27-.205 0-.41.053-.615.159s-.413.255-.625.445l-.562-.678c.318-.269.638-.475.954-.62a2.35 2.35 0 0 1 .986-.217c.607 0 1.081.161 1.42.482.34.321.509.74.509 1.256 0 .354-.067.688-.206 1.002-.138.314-.34.632-.604.954s-.592.661-.98 1.018-.83.754-1.324 1.192h2.587l-.182.965h-4.355l.124-.658zM326.916 110.843a.59.59 0 0 1-.456-.186.682.682 0 0 1-.169-.472.92.92 0 0 1 .529-.832.771.771 0 0 1 .351-.08c.19 0 .342.064.45.191a.707.707 0 0 1 .164.477.945.945 0 0 1-.238.626.798.798 0 0 1-.274.202.878.878 0 0 1-.357.074zM332.662 103.783h3.976l-.19.965h-2.841l-.371 1.866h2.406l-.191.965h-2.396l-.445 2.173h2.926l-.189.965h-4.062l1.377-6.934zM336.934 105.511h1.135l.275 2.767c.027.261.05.523.062.784l.043.795h.042c.12-.268.242-.531.366-.79.123-.258.245-.521.365-.79l1.347-2.767h1.123l-2.714 5.205h-1.335l-.709-5.204zM341.514 108.945c0-.495.076-.959.232-1.394.155-.435.363-.812.625-1.134.262-.321.562-.574.896-.758a2.149 2.149 0 0 1 1.045-.275c.254 0 .486.065.699.196.212.131.378.31.498.536h.021l.223-.604h.912l-1.039 5.205h-.934l.054-.721h-.032a3.215 3.215 0 0 1-.82.615 1.95 1.95 0 0 1-.896.233c-.46 0-.822-.163-1.087-.488-.265-.325-.397-.795-.397-1.411zm1.95.965c.228 0 .458-.067.694-.201.237-.134.461-.361.674-.679l.424-2.078c-.119-.226-.257-.389-.407-.488a.858.858 0 0 0-.473-.148c-.22 0-.432.065-.636.196a1.896 1.896 0 0 0-.541.535c-.155.227-.279.49-.371.79-.092.3-.138.617-.138.949 0 .381.068.664.207.848a.67.67 0 0 0 .567.276zM348.647 103.232h1.135l-1.251 6.265c-.015.057-.021.099-.021.127v.074c0 .148.061.223.181.223a.647.647 0 0 0 .085-.005.892.892 0 0 0 .104-.026l-.021.848a1.078 1.078 0 0 1-.275.08 2.219 2.219 0 0 1-.371.027c-.304 0-.525-.074-.668-.223-.142-.149-.212-.357-.212-.625 0-.163.024-.346.074-.551l1.24-6.214zM354.086 110.716h-.923l.043-.742h-.043a5.427 5.427 0 0 1-.826.61c-.29.173-.594.26-.912.26-.438 0-.754-.115-.947-.345-.194-.23-.292-.553-.292-.97 0-.12.007-.238.021-.355.015-.117.035-.242.063-.376l.657-3.286h1.135l-.626 3.138c-.028.121-.05.223-.063.308a1.396 1.396 0 0 0-.021.244c0 .445.216.668.646.668.348 0 .774-.269 1.283-.806l.699-3.551h1.135l-1.029 5.203zM355.665 108.945c0-.495.077-.959.233-1.394.155-.435.363-.812.625-1.134.262-.321.561-.574.896-.758a2.152 2.152 0 0 1 1.045-.275c.255 0 .487.065.699.196s.378.31.498.536h.021l.223-.604h.912l-1.039 5.205h-.934l.054-.721h-.032a3.203 3.203 0 0 1-.821.615 1.943 1.943 0 0 1-.896.233c-.46 0-.822-.163-1.087-.488-.265-.325-.397-.795-.397-1.411zm1.95.965c.227 0 .458-.067.694-.201s.461-.361.674-.679l.424-2.078c-.12-.226-.257-.389-.408-.488a.852.852 0 0 0-.472-.148c-.22 0-.432.065-.636.196a1.884 1.884 0 0 0-.541.535c-.155.227-.279.49-.371.79-.092.3-.138.617-.138.949 0 .381.067.664.206.848.14.184.328.276.568.276zM362.354 106.412h-.731l.17-.848.795-.053.413-1.399h.954l-.274 1.399h1.251l-.181.901h-1.271l-.53 2.586a2.274 2.274 0 0 0-.031.371c0 .191.046.334.139.429.092.095.247.143.466.143a.75.75 0 0 0 .255-.042c.077-.028.155-.06.233-.095l.212.806a3.205 3.205 0 0 1-.468.159 2.48 2.48 0 0 1-.636.074c-.486 0-.836-.122-1.044-.366-.209-.244-.312-.546-.312-.907 0-.106.008-.208.021-.307.016-.099.028-.202.043-.308l.526-2.543zM365.025 108.638c0-.488.083-.931.249-1.331.166-.399.386-.742.657-1.028.271-.286.577-.507.917-.663.34-.155.679-.233 1.018-.233.304 0 .562.049.77.148.209.099.378.235.509.408s.227.376.287.609c.06.233.09.484.09.752 0 .227-.028.445-.085.657-.058.212-.104.36-.139.445h-3.17c-.027.276-.014.513.043.71.057.198.144.36.261.487.115.127.259.221.429.281s.354.09.552.09c.185 0 .371-.042.562-.127.189-.085.355-.18.498-.286l.424.731a3.333 3.333 0 0 1-.77.387 2.95 2.95 0 0 1-1.012.165c-.312 0-.594-.05-.849-.148a1.826 1.826 0 0 1-.657-.43 1.928 1.928 0 0 1-.429-.688 2.616 2.616 0 0 1-.155-.936zm3.498-.954c.015-.071.026-.143.037-.217.011-.074.017-.154.017-.239 0-.254-.062-.479-.186-.673-.124-.194-.346-.292-.663-.292s-.616.125-.896.376c-.278.251-.481.599-.608 1.044l2.299.001zM373.209 106.412h-.73l.17-.848.795-.053.413-1.399h.954l-.275 1.399h1.251l-.18.901h-1.272l-.529 2.586a2.274 2.274 0 0 0-.031.371c0 .191.046.334.138.429.092.095.247.143.466.143a.751.751 0 0 0 .256-.042c.076-.028.154-.06.232-.095l.212.806a3.23 3.23 0 0 1-.467.159 2.48 2.48 0 0 1-.636.074c-.487 0-.836-.122-1.044-.366-.209-.244-.313-.546-.313-.907 0-.106.008-.208.021-.307.015-.099.027-.202.043-.308l.526-2.543zM377.321 103.232h1.135l-.456 2.205-.201.753h.042a5.35 5.35 0 0 1 .821-.573c.279-.155.578-.233.896-.233.438 0 .752.113.942.339.19.227.286.551.286.976a2.713 2.713 0 0 1-.085.732l-.657 3.286h-1.134l.636-3.138c.021-.12.04-.223.06-.308.018-.085.025-.166.025-.244 0-.445-.22-.668-.656-.668-.186 0-.38.063-.589.191-.208.127-.45.332-.727.615l-.7 3.551h-1.145l1.507-7.484zM381.583 108.638c0-.488.083-.931.249-1.331.166-.399.386-.742.657-1.028.272-.286.578-.507.917-.663.34-.155.679-.233 1.018-.233.305 0 .562.049.77.148.209.099.378.235.509.408s.228.376.287.609c.06.233.09.484.09.752 0 .227-.028.445-.085.657s-.103.36-.138.445h-3.17c-.028.276-.015.513.043.71.056.198.143.36.26.487.116.127.259.221.429.281s.354.09.553.09c.184 0 .37-.042.562-.127.19-.085.356-.18.498-.286l.424.731a3.345 3.345 0 0 1-.769.387c-.3.109-.639.165-1.013.165-.312 0-.594-.05-.849-.148a1.834 1.834 0 0 1-.657-.43 1.942 1.942 0 0 1-.429-.688 2.594 2.594 0 0 1-.156-.936zm3.498-.954a2.518 2.518 0 0 0 .054-.456c0-.254-.062-.479-.186-.673-.124-.194-.345-.292-.663-.292-.316 0-.616.125-.896.376s-.482.599-.609 1.044l2.3.001zM335.759 123.945l-.297 1.549h-1.135l1.463-7.263h.923l-.021.636h.032c.247-.219.516-.4.806-.546.289-.146.583-.217.88-.217.466 0 .83.162 1.092.487.262.324.393.795.393 1.41 0 .502-.077.967-.232 1.398a3.803 3.803 0 0 1-.626 1.129 3.073 3.073 0 0 1-.891.758 2.1 2.1 0 0 1-1.038.275c-.248 0-.471-.062-.668-.186a1.51 1.51 0 0 1-.488-.492h-.021l-.172 1.062zm2.183-4.908c-.205 0-.428.062-.668.187s-.459.312-.657.567l-.445 2.226c.113.22.244.377.394.472a.844.844 0 0 0 .467.145c.219 0 .431-.065.636-.196s.386-.31.54-.535c.156-.228.281-.489.377-.79.097-.3.144-.619.144-.959 0-.382-.07-.662-.212-.843a.69.69 0 0 0-.576-.274zM341.547 118.231h.923l-.097 1.007h.043c.205-.324.445-.595.722-.811.275-.217.571-.323.891-.323.205 0 .378.03.52.097l-.382.996a.597.597 0 0 0-.223-.07 2.273 2.273 0 0 0-.265-.016c-.248 0-.492.096-.732.286s-.466.487-.678.892l-.615 3.147h-1.146l1.039-5.205zM346.392 123.563c-.29 0-.557-.049-.796-.147-.24-.1-.444-.24-.614-.424a1.92 1.92 0 0 1-.394-.668 2.648 2.648 0 0 1-.138-.881c0-.494.083-.947.249-1.361s.384-.766.652-1.056c.269-.289.573-.517.917-.678a2.403 2.403 0 0 1 1.044-.244c.594 0 1.066.188 1.421.567.353.377.529.896.529 1.553 0 .494-.083.947-.249 1.355a3.5 3.5 0 0 1-.651 1.055c-.27.295-.574.521-.917.686a2.431 2.431 0 0 1-1.053.243zm.805-4.537c-.205 0-.405.062-.6.187a1.836 1.836 0 0 0-.515.504c-.148.211-.267.463-.354.752s-.133.602-.133.934c0 .396.077.701.232.917s.386.323.689.323c.205 0 .401-.062.594-.186a1.87 1.87 0 0 0 .509-.51c.149-.216.268-.468.354-.758.089-.29.133-.602.133-.934 0-.396-.078-.699-.233-.912-.154-.211-.379-.317-.676-.317zM349.879 123.437l1.505-7.484h1.136l-.371 1.846-.255.996h.021c.247-.197.509-.361.784-.492a1.96 1.96 0 0 1 .849-.196c.467 0 .83.161 1.093.481.261.322.392.793.392 1.416 0 .502-.077.968-.232 1.398a3.76 3.76 0 0 1-.626 1.129 3.073 3.073 0 0 1-.891.758 2.1 2.1 0 0 1-1.038.275c-.262 0-.493-.064-.695-.195a1.43 1.43 0 0 1-.48-.535h-.021l-.223.604h-.948zm3.201-4.4c-.205 0-.428.062-.668.187s-.459.312-.657.567l-.444 2.205c.112.226.244.389.393.486a.837.837 0 0 0 .467.148c.22 0 .432-.065.637-.196.204-.132.385-.31.54-.535a3.125 3.125 0 0 0 .52-1.749c0-.382-.07-.663-.212-.843a.699.699 0 0 0-.576-.27zM357.161 115.953h1.135l-1.251 6.266a.533.533 0 0 0-.021.127v.074c0 .147.061.223.181.223.035 0 .063-.002.085-.006s.057-.012.105-.026l-.021.849c-.077.035-.169.062-.274.08s-.229.025-.371.025c-.305 0-.526-.074-.668-.223-.143-.149-.212-.356-.212-.625 0-.164.023-.348.073-.553l1.239-6.211zM358.55 121.358c0-.487.083-.931.249-1.33s.387-.741.657-1.028c.272-.285.578-.506.917-.662.34-.154.679-.232 1.019-.232.304 0 .561.051.769.148.209.099.378.234.509.408.131.172.228.375.287.608.061.233.09.483.09.753 0 .227-.027.445-.085.657-.057.212-.103.36-.138.444h-3.17c-.028.275-.014.512.043.711.056.197.143.359.26.486.116.127.259.221.429.281.171.061.354.09.553.09.184 0 .371-.042.562-.127.191-.085.356-.182.498-.286l.424.731a3.345 3.345 0 0 1-.769.387c-.3.109-.638.164-1.012.164a2.33 2.33 0 0 1-.85-.148 1.845 1.845 0 0 1-.657-.429c-.184-.188-.326-.417-.429-.688s-.156-.584-.156-.938zm3.498-.954a2.453 2.453 0 0 0 .055-.455 1.22 1.22 0 0 0-.187-.674c-.124-.193-.345-.291-.663-.291-.316 0-.615.125-.896.376s-.482.601-.609 1.044h2.3zM364.646 118.231h.922l-.053.731h.042c.269-.233.548-.436.838-.604a1.69 1.69 0 0 1 .857-.254c.198 0 .367.024.51.073.142.051.26.117.354.201a.938.938 0 0 1 .223.303c.054.117.094.246.121.388.312-.297.619-.532.923-.704.305-.174.598-.261.881-.261.431 0 .742.112.938.339.193.227.291.553.291.977 0 .119-.007.236-.021.35-.015.113-.035.24-.063.382l-.657 3.286h-1.145l.636-3.139c.028-.119.05-.223.063-.307.015-.086.021-.166.021-.244 0-.445-.212-.668-.636-.668-.135 0-.309.063-.521.19s-.451.332-.721.614l-.711 3.552h-1.134l.625-3.138c.027-.121.05-.223.062-.309.016-.084.021-.166.021-.244 0-.445-.208-.666-.625-.666-.143 0-.318.062-.53.189s-.449.332-.71.615l-.7 3.551h-1.145l1.044-5.203z"/><g><ellipse fill="none" stroke="#000" stroke-width=".5" cx="353.799" cy="113.102" rx="56.812" ry="32.397"/><path fill="#FFF" d="M274.919 225.953c31.378 0 56.813-14.504 56.813-32.397s-25.437-32.396-56.813-32.396-56.811 14.504-56.811 32.396c0 17.893 25.435 32.397 56.811 32.397"/></g><g><path d="M232.391 189.516c.177.247.391.452.642.614.25.162.524.244.821.244.424 0 .765-.107 1.021-.324.26-.215.389-.5.389-.854 0-.162-.03-.31-.092-.439a.828.828 0 0 0-.302-.34 1.655 1.655 0 0 0-.557-.223 3.95 3.95 0 0 0-.864-.078l.17-.828c.389 0 .712-.035.97-.105.259-.07.466-.162.62-.275a.923.923 0 0 0 .329-.392 1.14 1.14 0 0 0 .096-.445c0-.255-.077-.462-.232-.62-.156-.158-.394-.238-.711-.238-.381 0-.78.158-1.197.478l-.562-.741c.316-.227.639-.392.964-.494.325-.102.657-.152.997-.152.586 0 1.049.143 1.389.429.339.287.509.67.509 1.149 0 .433-.118.804-.354 1.113-.236.312-.62.549-1.15.711v.043c.368.133.646.326.832.576.188.252.281.539.281.864 0 .332-.063.629-.19.892a1.918 1.918 0 0 1-.529.662c-.228.18-.495.317-.807.414a3.503 3.503 0 0 1-1.018.143c-.438 0-.85-.105-1.229-.317a2.795 2.795 0 0 1-.954-.87l.718-.597zM237.902 191.296a.585.585 0 0 1-.456-.187.674.674 0 0 1-.169-.472c0-.112.021-.225.062-.334s.104-.206.187-.291c.081-.086.175-.154.28-.207s.223-.079.351-.079c.19 0 .341.063.45.19a.711.711 0 0 1 .164.478.932.932 0 0 1-.063.334c-.042.108-.101.206-.175.291s-.166.151-.275.201a.84.84 0 0 1-.356.076zM243.648 184.236h1.145l-1.378 6.934h-1.146l1.379-6.934zM249.32 185.529l.36-1.845h1.134l-1.505 7.483h-.935l.055-.721h-.032a3.176 3.176 0 0 1-.821.614 1.943 1.943 0 0 1-.896.233c-.46 0-.822-.162-1.088-.487-.265-.325-.396-.795-.396-1.41a4.1 4.1 0 0 1 .233-1.394c.154-.436.362-.812.625-1.135.262-.322.561-.574.896-.759a2.137 2.137 0 0 1 1.045-.274c.254 0 .48.062.678.189.198.128.354.294.468.498h.031l.148-.992zm-2.174 4.834c.227 0 .456-.066.688-.201.233-.135.459-.359.68-.679l.424-2.078c-.12-.226-.257-.388-.408-.487a.853.853 0 0 0-.472-.147 1.16 1.16 0 0 0-.637.196 1.91 1.91 0 0 0-.541.535 2.936 2.936 0 0 0-.371.789 3.227 3.227 0 0 0-.138.949c0 .381.068.664.207.848s.328.275.568.275zM250.898 189.091c0-.487.083-.932.249-1.33.166-.399.386-.742.657-1.028s.577-.507.917-.662.679-.233 1.018-.233c.304 0 .561.051.769.148.209.1.379.235.51.408s.227.376.287.609c.06.232.09.483.09.752 0 .227-.028.445-.085.658a4.407 4.407 0 0 1-.139.444h-3.17c-.027.274-.014.513.043.71.057.198.144.36.261.487.115.127.259.221.429.28.17.061.354.09.552.09.185 0 .371-.041.562-.127.19-.084.355-.18.498-.285l.424.73a3.353 3.353 0 0 1-.77.387c-.3.109-.638.164-1.012.164-.312 0-.594-.049-.849-.147a1.823 1.823 0 0 1-.657-.429 1.941 1.941 0 0 1-.429-.689 2.63 2.63 0 0 1-.155-.937zm3.498-.954c.015-.07.026-.144.037-.218.011-.073.017-.153.017-.237 0-.255-.062-.479-.186-.675-.124-.193-.346-.291-.663-.291s-.616.125-.896.377c-.28.25-.481.6-.608 1.044h2.299zM256.995 185.964h.922l-.053.73h.042c.275-.232.561-.436.854-.604.294-.17.605-.254.938-.254.438 0 .752.113.943.338.189.228.285.553.285.977a2.75 2.75 0 0 1-.085.733l-.656 3.285h-1.135l.637-3.137c.021-.121.04-.224.059-.309s.026-.166.026-.244c0-.445-.221-.667-.657-.667-.185 0-.38.063-.589.19-.208.127-.45.332-.727.615l-.699 3.551h-1.146l1.041-5.204zM262.729 186.865h-.731l.17-.849.795-.054.413-1.398h.954l-.274 1.398h1.251l-.181.902h-1.271l-.53 2.586c-.021.127-.031.25-.031.37 0 .191.046.335.139.431.092.096.247.144.466.144a.75.75 0 0 0 .255-.043 2.68 2.68 0 0 0 .233-.097l.212.807a3.205 3.205 0 0 1-.468.159 2.44 2.44 0 0 1-.636.073c-.486 0-.836-.121-1.044-.364-.209-.244-.312-.546-.312-.906 0-.106.008-.209.021-.308.016-.1.028-.201.043-.309l.526-2.542zM266.386 185.964h1.135l-1.039 5.205h-1.146l1.05-5.205zm.838-.922a.722.722 0 0 1-.445-.154.52.52 0 0 1-.201-.439c0-.205.074-.38.223-.523a.74.74 0 0 1 .54-.219c.163 0 .312.053.445.153a.52.52 0 0 1 .202.44.696.696 0 0 1-.223.529.755.755 0 0 1-.541.213zM268.549 186.017l.689-.053.116-.604c.105-.528.308-.963.604-1.298.297-.336.707-.504 1.229-.504.198 0 .382.023.552.074.169.05.328.113.477.189l-.382.807a1.718 1.718 0 0 0-.237-.105.874.874 0 0 0-.303-.053.696.696 0 0 0-.52.205c-.135.139-.229.355-.286.652l-.127.637h.985l-.181.9h-.997l-.848 4.305h-1.135l.857-4.305h-.667l.174-.847zM271.263 192.398c.226 0 .44-.087.646-.26a2.1 2.1 0 0 0 .521-.705l.158-.316-.9-5.152h1.135l.328 2.629c.028.232.053.488.074.769.021.28.039.543.053.79h.043c.12-.247.242-.507.365-.779.124-.271.246-.531.365-.779l1.294-2.629h1.103l-2.926 5.48a9.111 9.111 0 0 1-.493.77c-.166.229-.341.426-.524.588s-.384.287-.599.377a1.882 1.882 0 0 1-.716.133c-.085 0-.192-.018-.323-.055a1.388 1.388 0 0 1-.345-.137l.359-.826c.12.067.247.102.382.102zM279.403 185.964h1.135l-1.039 5.205h-1.145l1.049-5.205zm.838-.922c-.163 0-.312-.053-.445-.154s-.2-.249-.2-.439c0-.205.073-.38.223-.523a.739.739 0 0 1 .54-.219c.163 0 .312.053.445.153a.519.519 0 0 1 .201.44.692.692 0 0 1-.223.529.753.753 0 0 1-.541.213zM282.055 185.964h.922l-.054.73h.042c.275-.232.562-.436.854-.604.293-.17.604-.254.938-.254.438 0 .752.113.943.338.19.228.286.553.286.977a2.906 2.906 0 0 1-.085.733l-.657 3.285h-1.134l.636-3.137c.021-.121.04-.224.06-.309.018-.085.025-.166.025-.244 0-.445-.22-.667-.657-.667-.185 0-.38.063-.589.19-.208.127-.45.332-.726.615l-.7 3.551h-1.145l1.041-5.204zM287.279 186.017l.688-.053.116-.604c.106-.528.309-.963.604-1.298.297-.336.707-.504 1.229-.504.198 0 .382.023.553.074.169.05.327.113.477.189l-.382.807c-.063-.035-.144-.07-.238-.105s-.196-.053-.302-.053a.7.7 0 0 0-.521.205c-.135.139-.229.355-.286.652l-.127.637h.985l-.18.9h-.997l-.849 4.305h-1.135l.858-4.305h-.667l.174-.847zM290.078 189.091c0-.487.083-.932.249-1.33.166-.399.386-.742.657-1.028s.578-.507.917-.662c.34-.155.679-.233 1.018-.233.305 0 .562.051.77.148.209.1.378.235.509.408s.227.376.287.609c.06.232.09.483.09.752 0 .227-.028.445-.085.658a4.216 4.216 0 0 1-.138.444h-3.17a1.87 1.87 0 0 0 .043.71c.056.198.143.36.26.487.116.127.259.221.429.28.17.061.354.09.552.09.185 0 .371-.041.562-.127.191-.084.355-.18.498-.285l.424.73c-.212.148-.468.277-.769.387s-.639.164-1.013.164c-.312 0-.594-.049-.849-.147-.254-.099-.474-.241-.657-.429s-.327-.418-.429-.689a2.63 2.63 0 0 1-.155-.937zm3.498-.954c.015-.07.027-.144.037-.218.011-.073.017-.153.017-.237 0-.255-.062-.479-.186-.675-.124-.193-.345-.291-.663-.291-.317 0-.616.125-.896.377-.279.25-.481.6-.608 1.044h2.299zM295.283 189.175c0-.465.08-.901.238-1.309.159-.406.375-.76.646-1.061s.59-.537.954-.71a2.643 2.643 0 0 1 1.149-.261c.317 0 .591.063.815.19.228.128.41.274.553.445l-.638.688c-.12-.142-.239-.244-.359-.308s-.27-.097-.445-.097c-.232 0-.455.063-.667.191a1.909 1.909 0 0 0-.557.514 2.859 2.859 0 0 0-.527 1.67c0 .396.087.701.26.918.173.216.438.322.79.322.205 0 .388-.041.546-.121.159-.082.307-.176.439-.281l.488.722a4.847 4.847 0 0 1-.705.407c-.272.131-.606.195-1.002.195-.29 0-.556-.047-.795-.143a1.77 1.77 0 0 1-.625-.414 1.86 1.86 0 0 1-.414-.662 2.527 2.527 0 0 1-.144-.895zM300.976 186.865h-.731l.17-.849.795-.054.413-1.398h.954l-.274 1.398h1.251l-.181.902H302.1l-.53 2.586c-.021.127-.031.25-.031.37 0 .191.046.335.139.431.092.096.246.144.466.144a.75.75 0 0 0 .255-.043 2.54 2.54 0 0 0 .232-.097l.213.807a3.247 3.247 0 0 1-.468.159 2.44 2.44 0 0 1-.636.073c-.487 0-.836-.121-1.044-.364-.209-.244-.313-.546-.313-.906 0-.106.009-.209.021-.308.015-.1.028-.201.043-.309l.529-2.542zM304.633 185.964h1.136l-1.039 5.205h-1.146l1.049-5.205zm.838-.922a.722.722 0 0 1-.445-.154.52.52 0 0 1-.201-.439c0-.205.074-.38.223-.523a.74.74 0 0 1 .54-.219c.163 0 .312.053.445.153a.52.52 0 0 1 .202.44.696.696 0 0 1-.223.529.755.755 0 0 1-.541.213zM308.312 191.296c-.29 0-.557-.049-.796-.148-.24-.1-.444-.24-.614-.424s-.301-.406-.394-.668a2.644 2.644 0 0 1-.138-.881c0-.493.083-.947.249-1.361.166-.413.384-.766.652-1.055s.574-.516.917-.678a2.389 2.389 0 0 1 1.044-.244c.594 0 1.066.188 1.421.566.353.379.529.896.529 1.553a3.57 3.57 0 0 1-.9 2.412 2.985 2.985 0 0 1-.917.685 2.449 2.449 0 0 1-1.053.243zm.805-4.537c-.205 0-.405.062-.6.186s-.365.292-.515.504a2.63 2.63 0 0 0-.354.754 3.19 3.19 0 0 0-.133.932c0 .396.077.701.232.918.155.216.386.322.689.322.205 0 .401-.062.594-.186.19-.124.36-.293.509-.509.149-.216.268-.468.354-.759.089-.289.133-.601.133-.934 0-.396-.078-.699-.233-.91-.154-.212-.379-.318-.676-.318zM312.838 185.964h.923l-.054.73h.042c.275-.232.562-.436.854-.604.293-.17.604-.254.938-.254.438 0 .752.113.943.338.189.228.286.553.286.977 0 .12-.006.236-.017.35s-.033.24-.068.383l-.657 3.285h-1.134l.636-3.137c.021-.121.04-.224.059-.309s.026-.166.026-.244c0-.445-.22-.667-.657-.667-.185 0-.38.063-.589.19-.208.127-.45.332-.726.615l-.7 3.551h-1.146l1.041-5.204z"/></g><g><path d="M265.593 198.686h.923l-.097 1.007h.043c.205-.324.445-.595.722-.811.275-.217.571-.323.891-.323.205 0 .378.03.52.096l-.382.996c-.062-.034-.138-.06-.223-.069s-.174-.016-.265-.016c-.248 0-.492.096-.732.286s-.466.487-.678.892l-.615 3.147h-1.145l1.038-5.205zM269.45 198.686h1.135l-1.039 5.205h-1.145l1.049-5.205zm.838-.922c-.163 0-.312-.052-.445-.154s-.2-.249-.2-.438c0-.205.073-.381.223-.524a.74.74 0 0 1 .54-.218c.163 0 .312.052.445.152.135.104.202.25.202.44 0 .212-.074.39-.224.53a.761.761 0 0 1-.541.212zM271.444 202.47c.169.227.358.398.566.52.209.12.43.182.662.182.247 0 .461-.065.643-.196.18-.132.27-.291.27-.481a.519.519 0 0 0-.223-.42 6.032 6.032 0 0 0-.71-.449 2.963 2.963 0 0 1-.816-.625 1.213 1.213 0 0 1-.297-.816c0-.232.05-.451.148-.652.1-.201.234-.373.408-.514.173-.143.375-.253.604-.334.229-.081.476-.122.736-.122.34 0 .646.069.917.212s.511.318.716.53l-.636.604a2.232 2.232 0 0 0-.445-.345 1.058 1.058 0 0 0-.552-.144.91.91 0 0 0-.595.19.583.583 0 0 0-.231.466c0 .1.023.185.074.256a.904.904 0 0 0 .2.201c.086.062.181.123.286.18.106.057.217.117.328.181.39.205.68.421.87.646.19.228.286.498.286.816 0 .255-.052.484-.154.689a1.513 1.513 0 0 1-.429.523 2.005 2.005 0 0 1-.657.334 2.84 2.84 0 0 1-.827.116c-.163 0-.33-.024-.504-.074a2.676 2.676 0 0 1-.503-.2 2.394 2.394 0 0 1-.456-.312 1.992 1.992 0 0 1-.359-.408l.68-.554zM276.945 196.406h1.135l-.942 4.707h.042l2.301-2.428h1.271l-2.099 2.227 1.24 2.979h-1.146l-.891-2.312-1.019 1.028-.255 1.282h-1.145l1.508-7.483zM281.133 202.47c.17.227.358.398.566.52.209.12.43.182.663.182.247 0 .461-.065.642-.196.181-.132.271-.291.271-.481a.52.52 0 0 0-.224-.42 5.947 5.947 0 0 0-.71-.449 2.957 2.957 0 0 1-.815-.625 1.208 1.208 0 0 1-.297-.816 1.487 1.487 0 0 1 .555-1.166c.173-.143.375-.253.604-.334.229-.081.476-.122.735-.122.34 0 .646.069.917.212.272.143.511.318.716.53l-.636.604a2.204 2.204 0 0 0-.445-.345 1.055 1.055 0 0 0-.552-.144c-.24 0-.438.062-.594.19a.58.58 0 0 0-.232.466c0 .1.024.185.074.256a.91.91 0 0 0 .201.201c.085.062.18.123.286.18.105.057.216.117.328.181.389.205.679.421.87.646.189.228.286.498.286.816 0 .255-.053.484-.154.689a1.524 1.524 0 0 1-.429.523 2.015 2.015 0 0 1-.657.334c-.255.077-.53.116-.827.116-.163 0-.33-.024-.504-.074a2.676 2.676 0 0 1-.503-.2 2.362 2.362 0 0 1-.456-.312 1.998 1.998 0 0 1-.36-.408l.681-.554z"/></g><g><ellipse fill="none" stroke="#000" stroke-width=".5" cx="274.919" cy="193.555" rx="56.813" ry="32.397"/><path fill="#FFF" d="M134.395 225.953c31.376 0 56.812-14.504 56.812-32.397s-25.436-32.396-56.812-32.396c-31.377 0-56.812 14.504-56.812 32.396 0 17.893 25.435 32.397 56.812 32.397"/></g><g><path d="M131.682 178.117l.35-1.748h-2.83l.148-.785 3.402-4.209h1.325l-.827 4.104h.827l-.169.891h-.827l-.35 1.75h-1.05v-.003zm.519-2.639l.329-1.602c.042-.227.093-.459.154-.699.06-.239.118-.48.175-.721h-.042l-.397.604a12.2 12.2 0 0 1-.396.562l-1.505 1.854 1.682.002zM135.222 178.244a.585.585 0 0 1-.456-.186.671.671 0 0 1-.17-.473c0-.111.021-.224.063-.334a.868.868 0 0 1 .187-.291 1.06 1.06 0 0 1 .28-.207.776.776 0 0 1 .351-.078c.19 0 .341.062.451.189a.713.713 0 0 1 .163.479.957.957 0 0 1-.237.625.84.84 0 0 1-.632.276z"/></g><g><path d="M115.346 188.888h-2.259l-.965 1.949h-1.261l3.71-6.933h1.357l.741 6.933h-1.188l-.135-1.949zm-.064-.869l-.074-1.051c-.021-.359-.044-.713-.068-1.061a33.253 33.253 0 0 1-.059-1.092h-.042c-.17.383-.334.746-.493 1.092-.158.348-.331.7-.514 1.061l-.52 1.051h1.77zM117.731 189.417c.17.227.358.398.566.52.208.12.43.182.663.182.247 0 .461-.065.642-.197.18-.131.271-.291.271-.481 0-.162-.074-.302-.223-.419a6.01 6.01 0 0 0-.71-.45 2.978 2.978 0 0 1-.816-.625 1.2 1.2 0 0 1-.296-.815c0-.233.049-.451.148-.652.099-.201.234-.373.407-.514.174-.143.375-.254.604-.334.229-.082.475-.123.737-.123.339 0 .645.07.917.213.271.142.51.318.715.529l-.636.604a2.264 2.264 0 0 0-.445-.344 1.057 1.057 0 0 0-.551-.144.91.91 0 0 0-.595.19.58.58 0 0 0-.232.466c0 .1.024.184.074.255.049.07.116.138.201.201.084.063.181.124.286.181.106.057.215.116.329.18.39.205.678.422.869.646.191.227.286.498.286.816 0 .255-.051.484-.153.689s-.246.379-.43.523-.403.256-.657.334c-.254.076-.53.115-.827.115-.163 0-.331-.023-.503-.073-.173-.05-.341-.116-.504-.201s-.313-.188-.456-.312a2.019 2.019 0 0 1-.359-.408l.678-.552zM122.109 189.417c.17.227.358.398.566.52.208.12.43.182.663.182.247 0 .461-.065.642-.197.18-.131.271-.291.271-.481a.517.517 0 0 0-.223-.419 6.01 6.01 0 0 0-.71-.45 2.978 2.978 0 0 1-.816-.625 1.205 1.205 0 0 1-.296-.815c0-.233.049-.451.148-.652.099-.201.234-.373.408-.514.173-.143.375-.254.604-.334.229-.082.475-.123.737-.123.339 0 .645.07.917.213.271.142.51.318.715.529l-.636.604a2.264 2.264 0 0 0-.445-.344 1.057 1.057 0 0 0-.551-.144.91.91 0 0 0-.595.19.58.58 0 0 0-.232.466c0 .1.024.184.074.255.049.07.116.138.202.201.084.063.18.124.285.181.106.057.216.116.329.18.39.205.679.422.869.646.191.227.286.498.286.816 0 .255-.051.484-.153.689s-.246.379-.43.523-.403.256-.657.334a2.87 2.87 0 0 1-.827.115c-.163 0-.331-.023-.503-.073-.173-.05-.341-.116-.504-.201s-.313-.188-.456-.312a2.019 2.019 0 0 1-.359-.408l.677-.552zM126.222 188.759c0-.486.083-.93.25-1.329.166-.399.385-.742.656-1.028.272-.285.578-.507.917-.662.34-.154.679-.232 1.019-.232.304 0 .56.05.769.147.209.099.378.235.509.408.132.173.227.376.286.608.061.233.09.484.09.754 0 .226-.027.445-.085.656a4.1 4.1 0 0 1-.138.445h-3.17c-.028.275-.014.512.042.71s.143.36.26.487.261.221.43.281c.17.06.354.09.551.09.184 0 .371-.043.562-.127.191-.086.357-.182.498-.286l.424.731a3.426 3.426 0 0 1-.769.387 2.957 2.957 0 0 1-1.013.164c-.312 0-.594-.049-.849-.148s-.474-.242-.656-.429a1.97 1.97 0 0 1-.431-.688 2.684 2.684 0 0 1-.152-.939zm3.498-.953c.014-.07.025-.143.036-.217.012-.074.017-.154.017-.238a1.22 1.22 0 0 0-.187-.674c-.124-.194-.344-.291-.662-.291-.317 0-.616.125-.896.376s-.482.6-.609 1.044h2.301zM131.66 189.417c.17.227.359.398.567.52.208.12.429.182.663.182.247 0 .461-.065.641-.197.18-.131.271-.291.271-.481 0-.162-.074-.302-.224-.419a5.926 5.926 0 0 0-.71-.45 2.957 2.957 0 0 1-.815-.625 1.2 1.2 0 0 1-.297-.815c0-.233.05-.451.148-.652s.235-.373.408-.514c.173-.143.375-.254.604-.334.229-.082.476-.123.737-.123.339 0 .645.07.917.213.271.142.51.318.715.529l-.636.604a2.235 2.235 0 0 0-.445-.344 1.057 1.057 0 0 0-.551-.144c-.24 0-.438.062-.594.19a.579.579 0 0 0-.233.466c0 .1.025.184.074.255.049.07.117.138.202.201.084.063.18.124.286.181.105.057.215.116.328.18.39.205.679.422.869.646.191.227.286.498.286.816 0 .255-.051.484-.152.689a1.53 1.53 0 0 1-.431.523 1.985 1.985 0 0 1-.657.334 2.868 2.868 0 0 1-.826.115c-.163 0-.331-.023-.503-.073a2.698 2.698 0 0 1-.505-.201 2.379 2.379 0 0 1-.456-.312 2.019 2.019 0 0 1-.359-.408l.678-.552zM136.038 189.417c.17.227.359.398.567.52.208.12.429.182.663.182.247 0 .461-.065.641-.197.18-.131.271-.291.271-.481 0-.162-.074-.302-.224-.419a5.926 5.926 0 0 0-.71-.45 2.957 2.957 0 0 1-.815-.625 1.2 1.2 0 0 1-.297-.815c0-.233.05-.451.148-.652s.235-.373.408-.514c.173-.143.375-.254.604-.334.229-.082.476-.123.737-.123.339 0 .645.07.917.213.272.142.51.318.715.529l-.636.604a2.235 2.235 0 0 0-.445-.344 1.057 1.057 0 0 0-.551-.144c-.24 0-.438.062-.594.19a.579.579 0 0 0-.233.466c0 .1.025.184.074.255.049.07.117.138.202.201.084.063.18.124.286.181.105.057.215.116.329.18.389.205.678.422.868.646.191.227.286.498.286.816 0 .255-.051.484-.152.689a1.53 1.53 0 0 1-.431.523 1.99 1.99 0 0 1-.656.334 2.88 2.88 0 0 1-.827.115c-.163 0-.331-.023-.503-.073a2.698 2.698 0 0 1-.505-.201 2.342 2.342 0 0 1-.455-.312 1.994 1.994 0 0 1-.36-.408l.678-.552zM143.162 186.535h-.73l.169-.85.795-.053.414-1.399h.954l-.276 1.399h1.251l-.18.9h-1.272l-.53 2.586a2.302 2.302 0 0 0-.031.371c0 .191.046.334.138.43.091.097.247.145.466.145.092 0 .176-.016.254-.043s.155-.061.233-.096l.212.806c-.127.058-.283.11-.467.159-.185.05-.396.074-.637.074-.487 0-.836-.123-1.044-.365-.208-.244-.312-.547-.312-.906 0-.105.007-.209.021-.309.015-.098.028-.2.042-.307l.53-2.542zM147.274 183.354h1.134l-.456 2.205-.202.753h.042c.27-.227.542-.417.822-.572.279-.154.578-.232.896-.232.438 0 .753.113.943.339.19.228.286.552.286.976a2.85 2.85 0 0 1-.085.733l-.657 3.285h-1.134l.636-3.137c.021-.121.041-.224.059-.309a1.24 1.24 0 0 0 .025-.244c0-.445-.219-.667-.656-.667-.185 0-.381.063-.589.19s-.449.332-.726.615l-.7 3.551h-1.145l1.507-7.486zM151.536 188.759c0-.486.083-.93.25-1.329a3.33 3.33 0 0 1 .657-1.028c.271-.285.578-.507.917-.662a2.443 2.443 0 0 1 1.018-.232c.305 0 .561.05.77.147.209.099.378.235.509.408s.226.376.286.608c.06.233.09.484.09.754 0 .226-.028.445-.085.656a4.1 4.1 0 0 1-.138.445h-3.17c-.028.275-.015.512.042.71.056.198.143.36.26.487s.26.221.429.281c.17.06.354.09.551.09.185 0 .371-.043.562-.127.19-.086.356-.182.498-.286l.424.731a3.426 3.426 0 0 1-.769.387 2.967 2.967 0 0 1-1.014.164c-.311 0-.593-.049-.848-.148s-.475-.242-.657-.429a1.967 1.967 0 0 1-.43-.688 2.684 2.684 0 0 1-.152-.939zm3.498-.953c.014-.07.026-.143.037-.217s.016-.154.016-.238c0-.255-.062-.479-.186-.674-.124-.194-.344-.291-.662-.291s-.617.125-.896.376c-.278.251-.481.6-.608 1.044h2.299z"/></g><g><path d="M103.939 196.074h1.134l-1.25 6.266a.61.61 0 0 0-.021.127v.074c0 .148.06.224.18.224a.391.391 0 0 0 .085-.007c.021-.002.057-.012.105-.025l-.021.85a1.06 1.06 0 0 1-.276.078 2.237 2.237 0 0 1-.371.026c-.304 0-.525-.074-.667-.224-.142-.147-.212-.355-.212-.625 0-.162.025-.346.074-.551l1.24-6.213zM106.261 198.354h1.134l-1.039 5.205h-1.146l1.051-5.205zm.838-.922c-.163 0-.312-.052-.445-.154s-.201-.249-.201-.438a.7.7 0 0 1 .223-.524.742.742 0 0 1 .541-.218c.163 0 .312.052.445.152.134.104.201.25.201.44 0 .212-.074.39-.223.53a.763.763 0 0 1-.541.212zM109.377 196.074h1.135l-.943 4.707h.042l2.3-2.428h1.272l-2.1 2.227 1.24 2.979h-1.145l-.891-2.312-1.018 1.028-.254 1.282h-1.146l1.508-7.483zM113.109 201.48c0-.486.083-.932.25-1.33.166-.398.385-.742.657-1.027.271-.287.578-.508.917-.662a2.43 2.43 0 0 1 1.018-.233c.304 0 .561.05.77.147.209.099.378.235.509.408.131.174.226.377.286.609.06.232.09.484.09.753 0 .226-.028.444-.085.657a4.45 4.45 0 0 1-.139.445h-3.17a1.93 1.93 0 0 0 .042.709c.057.199.144.36.261.487.116.127.26.222.429.281.17.06.354.09.551.09.185 0 .371-.042.562-.127.19-.085.356-.181.498-.286l.424.73a3.394 3.394 0 0 1-.77.388 2.981 2.981 0 0 1-1.013.164c-.311 0-.593-.05-.848-.147a1.821 1.821 0 0 1-.657-.43 1.948 1.948 0 0 1-.43-.689 2.672 2.672 0 0 1-.152-.937zm3.498-.954c.014-.069.025-.144.037-.217a1.63 1.63 0 0 0 .016-.238c0-.255-.062-.479-.186-.674s-.345-.291-.662-.291c-.318 0-.617.125-.896.376-.278.251-.481.6-.608 1.044h2.299zM119.67 196.074h1.135l-1.25 6.266a.548.548 0 0 0-.021.127v.074c0 .148.06.224.18.224a.385.385 0 0 0 .085-.007.843.843 0 0 0 .106-.025l-.021.85c-.077.035-.17.062-.275.078a2.245 2.245 0 0 1-.371.026c-.304 0-.526-.074-.667-.224-.143-.147-.212-.355-.212-.625 0-.162.024-.346.074-.551l1.237-6.213zM121.992 198.354h1.134l-1.039 5.205h-1.145l1.05-5.205zm.838-.922a.713.713 0 0 1-.444-.154.517.517 0 0 1-.201-.438c0-.205.073-.381.223-.524a.742.742 0 0 1 .541-.218c.163 0 .311.052.445.152.134.104.201.25.201.44 0 .212-.074.39-.224.53a.763.763 0 0 1-.541.212zM125.108 196.074h1.134l-.456 2.205-.202.754h.042a5.04 5.04 0 0 1 .822-.572c.279-.155.578-.233.896-.233.438 0 .753.112.943.339s.286.553.286.977a2.866 2.866 0 0 1-.085.732l-.657 3.286h-1.134l.636-3.139a8.84 8.84 0 0 1 .059-.307c.017-.086.025-.166.025-.244 0-.445-.219-.668-.656-.668-.185 0-.381.063-.589.19s-.449.332-.726.614l-.7 3.552h-1.145l1.507-7.486zM131.321 203.686c-.29 0-.555-.049-.795-.147-.24-.1-.445-.24-.615-.424a1.898 1.898 0 0 1-.393-.669 2.613 2.613 0 0 1-.139-.88c0-.494.083-.947.249-1.361s.384-.766.652-1.056c.268-.289.574-.517.917-.678a2.41 2.41 0 0 1 1.044-.244c.594 0 1.067.188 1.42.567.354.377.53.896.53 1.553a3.55 3.55 0 0 1-.902 2.41 2.973 2.973 0 0 1-.917.686 2.43 2.43 0 0 1-1.051.243zm.805-4.538c-.205 0-.404.062-.599.186a1.861 1.861 0 0 0-.514.504 2.63 2.63 0 0 0-.355.754 3.193 3.193 0 0 0-.132.933c0 .396.078.701.232.917.156.217.386.323.689.323.205 0 .403-.062.593-.187.191-.123.361-.293.509-.509.148-.216.268-.468.355-.758s.132-.601.132-.935c0-.396-.078-.699-.232-.91-.155-.211-.381-.318-.678-.318zM136.907 203.686c-.29 0-.555-.049-.795-.147-.24-.1-.445-.24-.615-.424a1.898 1.898 0 0 1-.393-.669 2.638 2.638 0 0 1-.139-.88c0-.494.083-.947.249-1.361s.384-.766.652-1.056c.268-.289.574-.517.917-.678a2.41 2.41 0 0 1 1.044-.244c.594 0 1.067.188 1.42.567.354.377.53.896.53 1.553a3.55 3.55 0 0 1-.902 2.41 2.973 2.973 0 0 1-.917.686c-.339.161-.69.243-1.051.243zm.806-4.538c-.205 0-.404.062-.599.186a1.861 1.861 0 0 0-.514.504 2.63 2.63 0 0 0-.355.754 3.193 3.193 0 0 0-.132.933c0 .396.078.701.233.917.155.217.385.323.688.323.205 0 .403-.062.593-.187.191-.123.361-.293.51-.509.147-.216.267-.468.354-.758s.132-.601.132-.935c0-.396-.078-.699-.232-.91-.155-.211-.381-.318-.678-.318zM144.699 197.919l.36-1.846h1.134l-1.505 7.484h-.934l.054-.721h-.032a3.15 3.15 0 0 1-.821.613 1.93 1.93 0 0 1-.896.233c-.459 0-.821-.162-1.086-.487-.266-.324-.397-.795-.397-1.41 0-.494.078-.959.233-1.394s.363-.812.625-1.136c.262-.32.56-.573.896-.758a2.144 2.144 0 0 1 1.044-.274c.254 0 .48.063.68.19.197.127.353.293.466.498h.031l.148-.992zm-2.173 4.834c.226 0 .456-.067.688-.201.233-.135.459-.36.679-.68l.424-2.078c-.121-.226-.256-.387-.408-.486s-.31-.148-.472-.148c-.22 0-.432.065-.637.196-.204.131-.385.31-.541.535a2.895 2.895 0 0 0-.37.79 3.182 3.182 0 0 0-.139.947c0 .383.069.666.207.85a.673.673 0 0 0 .569.275zM148.366 201.789c0-.494.078-.959.233-1.395s.363-.812.625-1.135a3.04 3.04 0 0 1 .896-.758 2.134 2.134 0 0 1 1.044-.275c.254 0 .488.064.7.195.212.132.378.31.499.535h.021l.224-.604h.912l-1.039 5.205h-.934l.054-.721h-.032a3.15 3.15 0 0 1-.821.613 1.93 1.93 0 0 1-.896.233c-.459 0-.821-.162-1.086-.487-.266-.322-.4-.792-.4-1.406zm1.951.964c.226 0 .457-.067.694-.201.235-.135.461-.36.673-.68l.424-2.078c-.121-.226-.256-.387-.408-.486s-.31-.148-.472-.148c-.22 0-.432.065-.637.196-.204.131-.385.31-.541.535a2.895 2.895 0 0 0-.37.79 3.182 3.182 0 0 0-.139.947c0 .383.069.666.207.85a.673.673 0 0 0 .569.275zM155.055 198.354h.922l-.054.731h.042a5.81 5.81 0 0 1 .854-.604c.293-.169.605-.254.938-.254.438 0 .754.112.944.339s.286.553.286.977a2.866 2.866 0 0 1-.085.732l-.657 3.286h-1.134l.636-3.139a8.84 8.84 0 0 1 .059-.307c.017-.086.025-.166.025-.244 0-.445-.219-.668-.657-.668-.184 0-.38.063-.588.19s-.449.332-.726.614l-.7 3.552h-1.145l1.04-5.205zM163.991 197.919l.36-1.846h1.134l-1.505 7.484h-.934l.054-.721h-.032a3.15 3.15 0 0 1-.821.613 1.93 1.93 0 0 1-.896.233c-.459 0-.821-.162-1.086-.487-.266-.324-.397-.795-.397-1.41 0-.494.078-.959.233-1.394s.363-.812.625-1.136c.262-.32.56-.573.896-.758a2.144 2.144 0 0 1 1.044-.274c.254 0 .48.063.68.19.197.127.353.293.466.498h.031l.148-.992zm-2.173 4.834c.226 0 .456-.067.688-.201.233-.135.459-.36.679-.68l.424-2.078c-.121-.226-.256-.387-.408-.486s-.31-.148-.472-.148c-.22 0-.432.065-.637.196-.204.131-.385.31-.541.535a2.895 2.895 0 0 0-.37.79 3.182 3.182 0 0 0-.139.947c0 .383.069.666.207.85a.674.674 0 0 0 .569.275z"/></g><g><path d="M117.211 214.858c.17.228.359.399.567.521.208.119.429.181.663.181.247 0 .461-.065.641-.196.181-.131.271-.291.271-.482 0-.162-.074-.301-.224-.418a5.8 5.8 0 0 0-.71-.45 2.972 2.972 0 0 1-.815-.625 1.2 1.2 0 0 1-.296-.816c0-.233.049-.45.147-.651.1-.201.235-.373.408-.514.173-.143.375-.254.604-.335a2.2 2.2 0 0 1 .737-.122c.339 0 .646.07.917.213.272.142.51.317.715.529l-.636.604a2.312 2.312 0 0 0-.445-.344 1.066 1.066 0 0 0-.551-.144c-.24 0-.438.063-.594.19s-.233.283-.233.467c0 .1.025.184.074.255a.892.892 0 0 0 .202.2c.084.063.18.125.286.181.105.058.215.116.329.181.389.205.678.422.869.646.19.227.285.498.285.816 0 .254-.051.483-.152.688-.104.205-.246.38-.431.524a1.99 1.99 0 0 1-.656.334c-.254.076-.53.115-.827.115-.163 0-.331-.023-.503-.074a2.585 2.585 0 0 1-.504-.201 2.276 2.276 0 0 1-.456-.312 1.99 1.99 0 0 1-.36-.407l.678-.554zM121.324 214.201c0-.486.083-.931.25-1.33.166-.398.385-.742.657-1.027a2.93 2.93 0 0 1 .917-.662 2.428 2.428 0 0 1 1.018-.232c.305 0 .561.049.77.147.209.098.378.235.509.407.131.174.226.377.286.609.06.233.09.484.09.754 0 .225-.028.444-.085.656s-.104.359-.138.445h-3.17c-.028.275-.015.512.042.71.056.198.143.36.26.487s.26.221.429.28c.17.06.354.091.551.091.185 0 .371-.043.562-.127.19-.086.356-.182.498-.287l.424.731a3.456 3.456 0 0 1-.77.388 2.981 2.981 0 0 1-1.013.164c-.311 0-.593-.05-.848-.148a1.83 1.83 0 0 1-.657-.43 1.958 1.958 0 0 1-.43-.688 2.674 2.674 0 0 1-.152-.938zm3.499-.953c.014-.07.026-.144.037-.218.011-.073.016-.153.016-.237 0-.256-.062-.479-.186-.674-.124-.195-.344-.291-.662-.291s-.617.125-.896.375c-.278.252-.481.601-.608 1.045h2.299zM126.773 211.074h1.134l.275 2.768c.027.262.049.523.063.785.015.261.028.525.042.795h.042c.12-.27.242-.532.366-.791.124-.258.246-.521.366-.789l1.347-2.768h1.124l-2.714 5.205h-1.336l-.709-5.205zM131.438 214.201c0-.486.083-.931.25-1.33.166-.398.385-.742.657-1.027a2.92 2.92 0 0 1 .917-.662 2.428 2.428 0 0 1 1.018-.232c.304 0 .56.049.769.147.209.098.379.235.51.407.131.174.226.377.286.609.06.233.09.484.09.754 0 .225-.028.444-.085.656a4.45 4.45 0 0 1-.139.445h-3.17c-.027.275-.014.512.042.71.057.198.144.36.26.487.117.127.261.221.43.28.17.06.354.091.551.091.184 0 .371-.043.562-.127a2.66 2.66 0 0 0 .498-.287l.425.731a3.478 3.478 0 0 1-.77.388 2.981 2.981 0 0 1-1.013.164 2.35 2.35 0 0 1-.849-.148 1.826 1.826 0 0 1-.656-.43 1.96 1.96 0 0 1-.431-.688 2.674 2.674 0 0 1-.152-.938zm3.498-.953c.014-.07.025-.144.037-.218.011-.073.016-.153.016-.237 0-.256-.062-.479-.186-.674-.124-.195-.345-.291-.662-.291-.318 0-.617.125-.896.375-.279.252-.481.601-.608 1.045h2.299zM137.533 211.074h.922l-.095 1.008h.042c.205-.324.445-.596.721-.812s.572-.323.891-.323c.204 0 .378.031.52.096l-.381.996c-.064-.035-.138-.059-.223-.068s-.174-.016-.266-.016c-.248 0-.491.096-.73.285-.24.191-.467.488-.679.891l-.614 3.148h-1.146l1.038-5.205zM141.392 211.074h1.134l-1.039 5.205h-1.146l1.051-5.205zm.837-.922a.716.716 0 0 1-.445-.154.518.518 0 0 1-.201-.438c0-.205.074-.38.224-.524a.738.738 0 0 1 .541-.218.72.72 0 0 1 .444.153.52.52 0 0 1 .201.439.698.698 0 0 1-.223.53.754.754 0 0 1-.541.212zM144.063 211.976h-.731l.169-.85.795-.053.414-1.398h.954l-.275 1.398h1.251l-.181.901h-1.271l-.53 2.586a2.287 2.287 0 0 0-.032.371c0 .19.046.334.139.43.091.097.247.144.466.144a.72.72 0 0 0 .254-.043c.078-.027.155-.06.232-.096l.213.807a3.098 3.098 0 0 1-.468.158 2.395 2.395 0 0 1-.636.074c-.488 0-.836-.121-1.044-.365s-.312-.545-.312-.906c0-.105.007-.209.021-.307l.042-.309.53-2.542zM146.766 217.509c.226 0 .44-.088.646-.26a2.1 2.1 0 0 0 .521-.705l.158-.317-.9-5.151h1.134l.329 2.629c.028.232.053.488.074.769.021.28.039.543.053.79h.042c.12-.247.242-.508.366-.779s.246-.531.366-.779l1.293-2.629h1.103l-2.926 5.48a9.111 9.111 0 0 1-.493.77c-.166.229-.341.426-.524.588s-.384.287-.599.377a1.877 1.877 0 0 1-.715.133c-.085 0-.193-.019-.324-.055a1.396 1.396 0 0 1-.344-.138l.36-.826a.753.753 0 0 0 .38.103z"/></g><g><ellipse fill="none" stroke="#000" stroke-width=".5" cx="134.395" cy="193.555" rx="56.812" ry="32.397"/><path fill="#FFF" d="M57.062 145.5c31.377 0 56.812-14.506 56.812-32.397 0-17.892-25.435-32.398-56.812-32.398S.25 95.209.25 113.101c0 17.893 25.435 32.399 56.812 32.399"/></g><g><path d="M10.3 109.073c.163.24.354.442.572.604.219.163.498.244.837.244.191 0 .375-.036.551-.106a1.31 1.31 0 0 0 .462-.308 1.595 1.595 0 0 0 .439-1.124c0-.375-.096-.654-.287-.837-.189-.184-.452-.276-.784-.276-.099 0-.188.005-.271.016-.081.01-.161.03-.238.058a3.736 3.736 0 0 0-.551.255l-.445-.36.837-3.265h3.403l-.191.954h-2.417l-.455 1.654a1.51 1.51 0 0 1 .354-.127 2.162 2.162 0 0 1 1.113.069c.215.074.402.186.562.333.159.148.285.334.376.557.091.223.139.482.139.779a2.607 2.607 0 0 1-.812 1.935 2.67 2.67 0 0 1-1.817.716 2.34 2.34 0 0 1-1.197-.308 2.808 2.808 0 0 1-.912-.869l.732-.594zM15.738 110.843c-.191 0-.343-.062-.456-.186s-.17-.281-.17-.472a.92.92 0 0 1 .063-.333.844.844 0 0 1 .187-.292c.081-.085.175-.154.281-.207a.77.77 0 0 1 .35-.08c.191 0 .341.064.451.191a.707.707 0 0 1 .164.477.966.966 0 0 1-.238.626.808.808 0 0 1-.274.202.886.886 0 0 1-.358.074zM21.483 103.783h1.145l-1.378 6.933h-1.145l1.378-6.933zM23.932 105.511h.922l-.054.731h.042c.27-.233.549-.435.838-.604.29-.17.575-.254.858-.254.198 0 .367.025.509.074s.261.117.355.201c.096.085.17.186.223.302.054.117.095.246.122.387a4.8 4.8 0 0 1 .922-.705c.305-.173.598-.26.88-.26.432 0 .744.113.938.339.194.227.292.551.292.976 0 .12-.007.237-.021.35-.015.113-.035.24-.063.382l-.657 3.286h-1.145l.636-3.138c.028-.12.049-.223.063-.308s.021-.166.021-.244c0-.445-.212-.668-.636-.668-.134 0-.308.063-.52.191-.212.127-.453.332-.721.615l-.71 3.551h-1.134l.625-3.138a4.79 4.79 0 0 0 .062-.308c.015-.085.021-.166.021-.244 0-.445-.208-.668-.625-.668-.142 0-.318.063-.53.191-.212.127-.449.332-.71.615l-.7 3.551H22.89l1.042-5.203zM32.529 111.225l-.297 1.548h-1.134l1.463-7.262h.922l-.021.636h.032c.248-.219.516-.401.806-.546s.583-.217.881-.217c.467 0 .831.163 1.092.487.261.325.392.795.392 1.41 0 .502-.078.968-.232 1.399a3.84 3.84 0 0 1-.625 1.129 3.058 3.058 0 0 1-.891.758 2.12 2.12 0 0 1-1.039.276 1.23 1.23 0 0 1-.668-.186 1.517 1.517 0 0 1-.486-.493h-.021l-.174 1.061zm2.184-4.909a1.47 1.47 0 0 0-.668.186 2.011 2.011 0 0 0-.656.567l-.445 2.226c.113.219.244.376.392.472a.846.846 0 0 0 .466.143c.22 0 .432-.065.637-.196.205-.13.385-.309.541-.535.154-.226.28-.489.376-.79.095-.3.143-.62.143-.959 0-.382-.071-.663-.212-.843a.696.696 0 0 0-.574-.271zM38.783 103.232h1.134l-1.25 6.265c-.014.057-.021.099-.021.127v.074c0 .148.06.223.18.223a.614.614 0 0 0 .085-.005.949.949 0 0 0 .106-.026l-.021.848c-.078.036-.17.062-.275.08a2.236 2.236 0 0 1-.371.027c-.305 0-.526-.074-.667-.223-.143-.148-.212-.357-.212-.625 0-.163.024-.346.073-.551l1.239-6.214zM40.172 108.638c0-.488.083-.931.25-1.331.166-.399.386-.742.657-1.028.272-.286.578-.507.917-.663a2.43 2.43 0 0 1 1.019-.233c.304 0 .56.049.769.148.209.099.378.235.509.408s.227.376.286.609c.061.233.09.484.09.752 0 .227-.027.445-.085.657-.057.212-.103.36-.138.445h-3.17a1.91 1.91 0 0 0 .042.71c.056.197.143.36.26.487s.26.221.429.281c.17.06.354.09.552.09.184 0 .371-.042.562-.127.191-.085.357-.18.498-.286l.424.731a3.345 3.345 0 0 1-.769.387 2.962 2.962 0 0 1-1.014.165c-.311 0-.593-.05-.848-.148a1.826 1.826 0 0 1-.657-.43 1.958 1.958 0 0 1-.43-.688 2.607 2.607 0 0 1-.153-.936zm3.498-.954c.015-.071.026-.143.037-.217.011-.074.017-.154.017-.239 0-.254-.062-.479-.187-.673-.124-.194-.344-.292-.662-.292-.317 0-.617.125-.896.376s-.482.599-.609 1.044l2.3.001zM46.267 105.511h.922l-.053.731h.042c.269-.233.548-.435.837-.604.29-.17.575-.254.858-.254.198 0 .367.025.509.074s.261.117.355.201c.096.085.17.186.223.302.054.117.095.246.122.387a4.8 4.8 0 0 1 .922-.705c.305-.173.598-.26.88-.26.432 0 .744.113.938.339.194.227.292.551.292.976 0 .12-.007.237-.021.35-.016.113-.036.24-.064.382l-.657 3.286h-1.145l.636-3.138c.028-.12.049-.223.064-.308a1.5 1.5 0 0 0 .021-.244c0-.445-.212-.668-.636-.668-.134 0-.308.063-.52.191-.212.127-.453.332-.721.615l-.71 3.551h-1.134l.625-3.138a4.79 4.79 0 0 0 .062-.308c.015-.085.021-.166.021-.244 0-.445-.208-.668-.625-.668-.142 0-.318.063-.53.191-.212.127-.449.332-.71.615l-.7 3.551h-1.145l1.042-5.203zM53.963 108.638c0-.488.083-.931.25-1.331.166-.399.386-.742.657-1.028.272-.286.578-.507.917-.663a2.43 2.43 0 0 1 1.019-.233c.304 0 .56.049.769.148.209.099.378.235.509.408s.227.376.286.609c.061.233.09.484.09.752 0 .227-.027.445-.085.657-.057.212-.103.36-.138.445h-3.17a1.91 1.91 0 0 0 .042.71c.056.197.143.36.26.487s.26.221.429.281c.17.06.354.09.552.09.184 0 .371-.042.562-.127.191-.085.357-.18.498-.286l.424.731a3.345 3.345 0 0 1-.769.387 2.962 2.962 0 0 1-1.014.165c-.311 0-.593-.05-.848-.148a1.826 1.826 0 0 1-.657-.43 1.958 1.958 0 0 1-.43-.688 2.607 2.607 0 0 1-.153-.936zm3.498-.954c.015-.071.026-.143.037-.217.011-.074.017-.154.017-.239 0-.254-.062-.479-.187-.673-.124-.194-.344-.292-.662-.292-.317 0-.617.125-.896.376s-.482.599-.609 1.044l2.3.001zM60.059 105.511h.922l-.053.731h.042a5.78 5.78 0 0 1 .854-.604c.293-.17.606-.254.938-.254.438 0 .753.113.943.339.19.227.286.551.286.976a2.866 2.866 0 0 1-.085.732l-.657 3.286h-1.134l.636-3.138c.021-.12.041-.223.059-.308a1.24 1.24 0 0 0 .025-.244c0-.445-.219-.668-.656-.668a1.13 1.13 0 0 0-.589.191c-.208.127-.449.332-.726.615l-.7 3.551H59.02l1.039-5.205zM65.793 106.412h-.73l.169-.848.795-.053.414-1.399h.954l-.276 1.399h1.251l-.18.901h-1.272l-.529 2.586a2.278 2.278 0 0 0-.032.371c0 .191.046.334.138.429.091.095.247.143.466.143.092 0 .176-.014.254-.042s.155-.06.233-.095l.212.806a3.23 3.23 0 0 1-.467.159 2.486 2.486 0 0 1-.636.074c-.488 0-.836-.122-1.044-.366s-.312-.546-.312-.907c0-.106.007-.208.021-.307l.042-.308.529-2.543zM71.486 111.225l-.297 1.548h-1.134l1.463-7.262h.922l-.021.636h.032c.248-.219.516-.401.806-.546s.583-.217.881-.217c.467 0 .83.163 1.092.487.261.325.392.795.392 1.41 0 .502-.078.968-.232 1.399a3.84 3.84 0 0 1-.625 1.129 3.058 3.058 0 0 1-.891.758 2.12 2.12 0 0 1-1.039.276c-.248 0-.47-.062-.668-.186s-.359-.288-.486-.493h-.021l-.174 1.061zm2.183-4.909a1.47 1.47 0 0 0-.668.186 2.011 2.011 0 0 0-.656.567l-.445 2.226c.113.219.244.376.392.472a.846.846 0 0 0 .466.143c.22 0 .432-.065.637-.196.205-.13.385-.309.541-.535.154-.226.28-.489.376-.79.095-.3.143-.62.143-.959 0-.382-.071-.663-.212-.843a.693.693 0 0 0-.574-.271zM77.273 105.511h.922l-.095 1.007h.042c.205-.325.444-.595.721-.811.275-.215.572-.323.89-.323.205 0 .378.032.521.095l-.381.997a.614.614 0 0 0-.224-.069 2.062 2.062 0 0 0-.265-.016c-.248 0-.491.096-.731.286-.239.191-.466.488-.678.891l-.615 3.148h-1.145l1.038-5.205zM81.132 105.511h1.135l-1.039 5.205h-1.146l1.05-5.205zm.838-.923c-.163 0-.312-.051-.445-.153s-.201-.25-.201-.44c0-.205.074-.38.223-.525a.745.745 0 0 1 .541-.217.71.71 0 0 1 .445.154.521.521 0 0 1 .201.44.7.7 0 0 1-.223.53.758.758 0 0 1-.541.211zM84.811 110.843c-.29 0-.556-.05-.795-.148-.24-.099-.445-.24-.615-.424s-.301-.406-.394-.668a2.638 2.638 0 0 1-.138-.88c0-.494.083-.949.249-1.362a3.38 3.38 0 0 1 .652-1.055c.268-.29.574-.516.917-.679s.69-.244 1.044-.244c.594 0 1.066.189 1.42.567s.53.896.53 1.553a3.564 3.564 0 0 1-.902 2.412 2.939 2.939 0 0 1-.917.684 2.413 2.413 0 0 1-1.051.244zm.805-4.537c-.205 0-.405.062-.599.185a1.85 1.85 0 0 0-.515.504 2.657 2.657 0 0 0-.354.752c-.088.29-.132.601-.132.933 0 .396.078.701.232.917.156.215.385.323.689.323.205 0 .402-.062.593-.186.191-.124.361-.293.509-.509.148-.216.268-.468.355-.758s.132-.601.132-.933c0-.396-.078-.7-.233-.912-.154-.21-.38-.316-.677-.316zM89.337 105.511h.922l-.095 1.007h.042a3.15 3.15 0 0 1 .721-.811c.275-.215.572-.323.891-.323.205 0 .378.032.52.095l-.381.997a.602.602 0 0 0-.223-.069 2.067 2.067 0 0 0-.266-.016c-.247 0-.49.096-.73.286-.24.191-.466.488-.678.891l-.615 3.148h-1.146l1.038-5.205zM93.196 105.511h1.134l-1.039 5.205h-1.145l1.05-5.205zm.837-.923a.717.717 0 0 1-.445-.153.52.52 0 0 1-.2-.44c0-.205.073-.38.223-.525a.743.743 0 0 1 .541-.217c.163 0 .311.051.445.154a.52.52 0 0 1 .2.44c0 .212-.073.389-.223.53s-.329.211-.541.211zM95.867 106.412h-.73l.169-.848.795-.053.414-1.399h.953l-.275 1.399h1.251l-.18.901h-1.272l-.53 2.586a2.274 2.274 0 0 0-.031.371c0 .191.046.334.138.429.091.095.247.143.466.143.092 0 .176-.014.254-.042s.155-.06.233-.095l.212.806a3.23 3.23 0 0 1-.467.159 2.488 2.488 0 0 1-.637.074c-.487 0-.836-.122-1.044-.366s-.312-.546-.312-.907c0-.106.007-.208.021-.307.015-.099.028-.202.042-.308l.53-2.543zM98.581 111.945c.227 0 .441-.086.646-.26.205-.173.378-.408.52-.705l.159-.318-.901-5.152h1.135l.328 2.629c.028.233.054.49.074.769.021.279.039.542.054.79h.042c.119-.248.241-.507.365-.779s.246-.532.366-.779l1.293-2.629h1.104l-2.927 5.48a8.93 8.93 0 0 1-.492.769c-.166.23-.342.426-.524.588a2.099 2.099 0 0 1-.599.376 1.882 1.882 0 0 1-.716.132c-.085 0-.192-.018-.323-.053a1.552 1.552 0 0 1-.345-.138l.36-.827a.723.723 0 0 0 .381.107z"/></g><g><path d="M27.866 118.231H29l-1.039 5.205h-1.145l1.05-5.205zm.837-.921a.724.724 0 0 1-.445-.154.517.517 0 0 1-.2-.439c0-.205.073-.379.223-.523a.742.742 0 0 1 .541-.218c.163 0 .311.052.445.153.134.103.2.248.2.439a.696.696 0 0 1-.223.53.763.763 0 0 1-.541.212zM30.516 118.231h.922l-.054.731h.043c.275-.233.56-.436.854-.604.293-.169.606-.254.938-.254.438 0 .753.112.943.339s.286.553.286.977a2.866 2.866 0 0 1-.085.732l-.657 3.286h-1.134l.636-3.139a8.84 8.84 0 0 1 .059-.307c.017-.086.025-.166.025-.244 0-.445-.219-.668-.656-.668-.185 0-.381.063-.589.19s-.449.332-.726.614l-.7 3.552h-1.145l1.04-5.205zM36.251 119.132h-.73l.169-.848.795-.054.414-1.399h.954l-.276 1.399h1.251l-.18.901h-1.272l-.529 2.586c-.021.128-.032.25-.032.371 0 .191.046.334.138.43.091.096.247.145.466.145a.769.769 0 0 0 .254-.043c.078-.029.155-.061.233-.097l.212.806c-.127.058-.283.11-.467.16a2.488 2.488 0 0 1-.636.073c-.488 0-.836-.122-1.044-.364-.208-.244-.312-.547-.312-.906 0-.106.007-.209.021-.309l.042-.309.529-2.542zM38.922 121.358c0-.487.083-.931.25-1.33a3.36 3.36 0 0 1 .657-1.028c.272-.285.578-.506.917-.662a2.444 2.444 0 0 1 1.019-.232c.304 0 .56.051.769.148s.378.234.509.408c.131.172.227.375.286.608.061.233.09.483.09.753 0 .227-.027.445-.085.657-.057.212-.103.36-.138.444h-3.17a1.92 1.92 0 0 0 .042.711c.056.197.143.359.26.486s.26.221.429.281c.17.061.354.09.552.09.184 0 .371-.042.562-.127a2.66 2.66 0 0 0 .498-.286l.424.731c-.212.148-.468.277-.769.387s-.639.164-1.014.164c-.311 0-.593-.049-.848-.148a1.836 1.836 0 0 1-.657-.429 1.967 1.967 0 0 1-.43-.688 2.655 2.655 0 0 1-.153-.938zm3.498-.954c.015-.07.026-.143.037-.217s.017-.154.017-.238a1.22 1.22 0 0 0-.187-.674c-.124-.193-.344-.291-.662-.291-.317 0-.617.125-.896.376s-.482.601-.609 1.044h2.3zM45.017 118.231h.922l-.095 1.007h.042a3.13 3.13 0 0 1 .721-.811c.274-.217.572-.323.89-.323.205 0 .378.03.521.097l-.381.996a.614.614 0 0 0-.224-.07 2.26 2.26 0 0 0-.265-.016c-.248 0-.491.096-.731.286s-.466.487-.678.892l-.615 3.147h-1.145l1.038-5.205zM48.441 118.231h1.134l.275 2.767c.027.262.049.523.063.785l.042.795H50c.12-.269.242-.531.366-.789s.246-.521.366-.791l1.347-2.767h1.124l-2.714 5.205h-1.336l-.712-5.205zM53.105 121.358c0-.487.083-.931.25-1.33.166-.399.385-.741.657-1.028.271-.285.577-.506.917-.662a2.443 2.443 0 0 1 1.018-.232c.304 0 .56.051.769.148s.379.234.51.408c.131.172.226.375.286.608.06.233.09.483.09.753 0 .227-.028.445-.085.657a4.24 4.24 0 0 1-.139.444h-3.17c-.027.275-.014.512.042.711.057.197.144.359.26.486.117.127.261.221.43.281.17.061.354.09.551.09.184 0 .371-.042.562-.127a2.66 2.66 0 0 0 .498-.286l.425.731c-.212.148-.469.277-.77.387s-.638.164-1.013.164c-.312 0-.593-.049-.848-.148a1.82 1.82 0 0 1-.657-.429 1.97 1.97 0 0 1-.431-.688 2.701 2.701 0 0 1-.152-.938zm3.499-.954c.014-.07.025-.143.037-.217a1.63 1.63 0 0 0 .016-.238c0-.255-.062-.479-.186-.674-.124-.193-.345-.291-.662-.291-.318 0-.617.125-.896.376s-.481.601-.608 1.044h2.299zM59.201 118.231h.922l-.053.731h.042c.276-.233.56-.436.854-.604.293-.169.606-.254.938-.254.438 0 .753.112.944.339.189.227.285.553.285.977a2.688 2.688 0 0 1-.085.732l-.656 3.286h-1.135l.637-3.139c.021-.119.041-.223.058-.307a1.18 1.18 0 0 0 .026-.244c0-.445-.22-.668-.657-.668-.184 0-.38.063-.588.19s-.45.332-.727.614l-.699 3.552h-1.146l1.04-5.205zM64.936 119.132h-.731l.169-.848.795-.054.414-1.399h.954l-.275 1.399h1.251l-.181.901H66.06l-.53 2.586c-.021.128-.032.25-.032.371 0 .191.046.334.139.43.091.096.246.145.466.145a.769.769 0 0 0 .254-.043 3.08 3.08 0 0 0 .232-.097l.212.806c-.127.058-.282.11-.467.16a2.483 2.483 0 0 1-.636.073c-.488 0-.836-.122-1.044-.364-.208-.244-.312-.547-.312-.906 0-.106.008-.209.021-.309l.042-.309.531-2.542zM68.593 118.231h1.135l-1.039 5.205h-1.146l1.05-5.205zm.837-.921c-.163 0-.312-.053-.445-.154s-.201-.248-.201-.439a.7.7 0 0 1 .223-.523.742.742 0 0 1 .541-.218.72.72 0 0 1 .445.153.52.52 0 0 1 .201.439.7.7 0 0 1-.223.53.763.763 0 0 1-.541.212zM72.271 123.563a2.08 2.08 0 0 1-.795-.147c-.24-.1-.445-.24-.615-.424a1.92 1.92 0 0 1-.394-.668 2.648 2.648 0 0 1-.138-.881c0-.494.083-.947.249-1.361s.383-.766.652-1.056c.268-.289.574-.517.917-.678.343-.163.69-.244 1.044-.244.594 0 1.066.188 1.42.567.353.377.53.896.53 1.553a3.55 3.55 0 0 1-.902 2.41 2.973 2.973 0 0 1-.917.686 2.416 2.416 0 0 1-1.051.243zm.806-4.537c-.205 0-.405.062-.599.187a1.823 1.823 0 0 0-.515.504c-.147.211-.267.463-.354.752s-.132.602-.132.934c0 .396.078.701.232.917.156.216.386.323.689.323.205 0 .403-.062.593-.186a1.83 1.83 0 0 0 .509-.51c.148-.216.268-.468.355-.758s.132-.602.132-.934c0-.396-.078-.699-.233-.912-.154-.211-.38-.317-.677-.317zM76.797 118.231h.923l-.054.731h.042a5.81 5.81 0 0 1 .854-.604c.293-.169.605-.254.938-.254.438 0 .753.112.944.339.189.227.286.553.286.977 0 .119-.005.236-.017.35-.011.113-.033.24-.068.382l-.657 3.286h-1.134l.636-3.139c.021-.119.041-.223.058-.307a1.18 1.18 0 0 0 .026-.244c0-.445-.219-.668-.657-.668-.184 0-.38.063-.588.19s-.45.332-.726.614l-.7 3.552h-1.146l1.04-5.205zM81.854 122.016c.17.228.358.399.566.521.208.119.43.18.663.18.247 0 .461-.064.642-.195.18-.131.271-.291.271-.482a.516.516 0 0 0-.223-.418 5.862 5.862 0 0 0-.71-.451c-.347-.189-.618-.398-.816-.625s-.296-.498-.296-.815c0-.233.049-.451.148-.651.099-.201.234-.373.407-.515a2 2 0 0 1 .604-.334c.229-.081.475-.122.737-.122.339 0 .645.07.917.212.271.142.51.317.715.53l-.636.604a2.303 2.303 0 0 0-.445-.344 1.07 1.07 0 0 0-.551-.145.91.91 0 0 0-.595.191.581.581 0 0 0-.232.467c0 .1.024.184.074.254a.87.87 0 0 0 .201.201c.084.063.181.125.286.18.106.058.215.117.329.182.389.205.678.421.869.646.191.227.286.498.286.815 0 .255-.051.483-.153.688s-.246.381-.43.525a2.005 2.005 0 0 1-.657.334c-.254.076-.53.115-.827.115-.163 0-.331-.023-.503-.074a2.585 2.585 0 0 1-.504-.201 2.305 2.305 0 0 1-.456-.312 2.019 2.019 0 0 1-.359-.408l.678-.553z"/></g><g><ellipse fill="none" stroke="#000" stroke-width=".5" cx="57.062" cy="113.102" rx="56.812" ry="32.397"/><path fill="#FFF" d="M126.274 65.045c31.377 0 56.812-14.504 56.812-32.397S157.65.251 126.274.251 69.463 14.755 69.463 32.647c0 17.894 25.434 32.398 56.811 32.398"/></g><g><path d="M99.277 24.887a1.482 1.482 0 0 0-.387-.419.891.891 0 0 0-.525-.153c-.233 0-.456.057-.668.169a1.96 1.96 0 0 0-.583.488c-.177.212-.332.473-.466.784s-.237.665-.309 1.06c.22-.233.464-.408.731-.525.269-.116.505-.175.71-.175.488 0 .885.148 1.192.445s.461.735.461 1.314c0 .333-.058.648-.17.949-.113.301-.272.567-.478.8s-.447.419-.726.557a2.015 2.015 0 0 1-.906.207c-.304 0-.578-.057-.821-.17a1.764 1.764 0 0 1-.625-.482 2.183 2.183 0 0 1-.397-.742 3.094 3.094 0 0 1-.139-.949c0-.686.081-1.315.244-1.887a4.807 4.807 0 0 1 .679-1.474c.29-.41.634-.728 1.033-.954s.835-.339 1.31-.339a1.712 1.712 0 0 1 .976.287c.127.085.24.18.339.286.1.106.185.212.254.318l-.729.605zM97.22 29.53a.854.854 0 0 0 .477-.138c.142-.092.263-.21.366-.355a1.71 1.71 0 0 0 .238-.487c.057-.18.085-.362.085-.546 0-.339-.074-.604-.223-.795-.147-.19-.371-.286-.668-.286-.156 0-.345.051-.566.154-.223.103-.45.299-.685.588-.007.078-.011.156-.011.233v.233c0 .431.09.772.271 1.023a.841.841 0 0 0 .716.376zM100.74 30.389c-.191 0-.343-.062-.456-.186s-.17-.281-.17-.472a.9.9 0 0 1 .25-.625c.081-.085.175-.154.281-.207a.77.77 0 0 1 .35-.08c.191 0 .341.064.451.191a.707.707 0 0 1 .164.477.966.966 0 0 1-.238.626.808.808 0 0 1-.274.202.886.886 0 0 1-.358.074zM105.372 27.537c0-.572.09-1.12.271-1.643.18-.523.431-.984.753-1.383.32-.399.705-.717 1.149-.954a3.067 3.067 0 0 1 1.463-.355c.403 0 .754.097 1.05.292.297.194.537.451.721.769l-.785.604c-.134-.212-.286-.378-.456-.498s-.368-.18-.594-.18c-.354 0-.677.095-.97.286s-.546.44-.759.748c-.212.307-.378.655-.498 1.044s-.18.785-.18 1.188c0 .29.03.555.09.795.061.24.155.445.286.615.131.17.297.302.499.397.201.096.443.143.727.143.247 0 .479-.053.693-.159s.426-.244.631-.414l.498.731a4.083 4.083 0 0 1-.863.567c-.344.173-.737.26-1.183.26-.396 0-.751-.067-1.064-.202a2.234 2.234 0 0 1-.801-.572 2.543 2.543 0 0 1-.503-.896 3.747 3.747 0 0 1-.175-1.183zM112.93 30.389c-.29 0-.556-.05-.796-.148-.239-.099-.444-.24-.614-.424s-.301-.406-.394-.668a2.638 2.638 0 0 1-.138-.88c0-.494.083-.949.249-1.362a3.38 3.38 0 0 1 .652-1.055c.268-.29.573-.516.917-.679.343-.163.69-.244 1.044-.244.594 0 1.066.189 1.42.567s.529.896.529 1.553a3.564 3.564 0 0 1-.901 2.412c-.27.294-.574.521-.917.684s-.69.244-1.051.244zm.806-4.537c-.205 0-.405.062-.599.185a1.85 1.85 0 0 0-.515.504 2.657 2.657 0 0 0-.354.752c-.088.29-.132.601-.132.933 0 .396.077.701.232.917.156.215.385.323.689.323.205 0 .402-.062.593-.186.19-.124.361-.293.509-.509.148-.216.268-.468.355-.758.088-.29.132-.601.132-.933 0-.396-.078-.7-.233-.912-.154-.21-.38-.316-.677-.316zM117.457 25.057h.922l-.053.731h.042c.276-.233.561-.435.854-.604.293-.17.605-.254.938-.254.438 0 .753.113.944.339.189.227.286.551.286.976a2.85 2.85 0 0 1-.085.732l-.657 3.286h-1.134l.636-3.138c.021-.12.041-.223.058-.308.018-.085.026-.166.026-.244 0-.445-.219-.668-.657-.668-.184 0-.38.062-.588.191-.208.127-.45.332-.726.615l-.7 3.551h-1.146l1.04-5.205zM123.192 25.958h-.731l.169-.848.795-.053.414-1.399h.954l-.275 1.399h1.251l-.181.901h-1.271l-.53 2.586a2.278 2.278 0 0 0-.032.371c0 .191.046.334.139.429.091.095.247.143.466.143a.744.744 0 0 0 .254-.042c.078-.028.155-.06.233-.095l.212.806a3.205 3.205 0 0 1-.468.159 2.48 2.48 0 0 1-.636.074c-.488 0-.836-.122-1.044-.366s-.312-.546-.312-.907c0-.106.007-.208.021-.307l.042-.308.53-2.543zM126.849 25.057h1.134l-1.039 5.205h-1.146l1.051-5.205zm.837-.923c-.163 0-.312-.051-.445-.153s-.201-.25-.201-.44c0-.205.074-.38.224-.525a.741.741 0 0 1 .541-.217c.162 0 .311.051.444.154s.201.249.201.44a.7.7 0 0 1-.223.53.758.758 0 0 1-.541.211zM129.499 25.057h.922l-.053.731h.042c.276-.233.561-.435.854-.604.293-.17.605-.254.938-.254.438 0 .753.113.944.339.189.227.286.551.286.976a2.85 2.85 0 0 1-.085.732l-.657 3.286h-1.134l.636-3.138c.021-.12.041-.223.058-.308.018-.085.026-.166.026-.244 0-.445-.219-.668-.657-.668-.184 0-.38.062-.588.191-.208.127-.45.332-.726.615l-.7 3.551h-1.146l1.04-5.205zM138.287 30.262h-.922l.042-.742h-.042c-.262.233-.537.437-.827.61s-.594.26-.912.26c-.438 0-.754-.115-.948-.345-.195-.23-.293-.553-.293-.97 0-.12.008-.238.021-.355a4.4 4.4 0 0 1 .063-.376l.656-3.286h1.134l-.625 3.138c-.027.121-.049.223-.062.308s-.021.166-.021.244c0 .445.216.668.646.668.346 0 .774-.269 1.283-.806l.7-3.551h1.134l-1.027 5.203zM139.866 28.491c0-.495.078-.959.233-1.394s.363-.812.625-1.134a3.04 3.04 0 0 1 .896-.758 2.145 2.145 0 0 1 1.044-.275c.254 0 .488.065.7.196s.378.31.499.536h.021l.224-.604h.912l-1.039 5.205h-.934l.054-.721h-.032a3.203 3.203 0 0 1-.821.615 1.943 1.943 0 0 1-.896.233c-.459 0-.821-.163-1.086-.488-.266-.325-.4-.796-.4-1.411zm1.951.965c.226 0 .457-.067.694-.201.235-.134.461-.361.673-.679l.424-2.078c-.121-.226-.256-.389-.408-.488a.854.854 0 0 0-.472-.148c-.22 0-.432.065-.637.196a1.922 1.922 0 0 0-.541.535c-.155.227-.278.49-.37.79a3.19 3.19 0 0 0-.139.949c0 .381.069.664.207.848a.674.674 0 0 0 .569.276zM147 22.778h1.134l-1.25 6.265a.59.59 0 0 0-.021.127v.074c0 .148.06.223.18.223a.614.614 0 0 0 .085-.005.898.898 0 0 0 .106-.026l-.021.848a1.09 1.09 0 0 1-.275.08 2.236 2.236 0 0 1-.371.027c-.304 0-.526-.074-.667-.223-.143-.148-.212-.357-.212-.625 0-.163.024-.346.074-.551L147 22.778zM149.777 22.778h1.134l-1.25 6.265a.59.59 0 0 0-.021.127v.074c0 .148.06.223.18.223a.625.625 0 0 0 .085-.005.949.949 0 0 0 .106-.026l-.021.848c-.078.036-.17.062-.276.08a2.227 2.227 0 0 1-.371.027c-.304 0-.525-.074-.667-.223-.142-.148-.212-.357-.212-.625 0-.163.025-.346.074-.551l1.239-6.214zM151.071 31.491c.226 0 .441-.086.646-.26.205-.173.379-.408.521-.705l.159-.318-.901-5.152h1.134l.329 2.629c.028.233.054.49.074.769.021.279.039.542.053.79h.042c.12-.248.242-.507.366-.779s.246-.532.366-.779l1.293-2.629h1.103l-2.926 5.48c-.163.283-.327.539-.493.769s-.341.426-.523.588c-.185.163-.384.288-.6.376s-.454.132-.715.132a1.32 1.32 0 0 1-.324-.053 1.543 1.543 0 0 1-.344-.138l.36-.827a.72.72 0 0 0 .38.107z"/></g><g><path d="M78.786 37.777h.922l-.053.731h.042c.269-.233.548-.435.837-.604.29-.17.576-.254.859-.254.197 0 .366.025.509.074.141.049.26.117.354.201a.886.886 0 0 1 .224.302c.053.117.094.246.122.387.311-.297.618-.532.922-.705.304-.173.597-.26.88-.26.431 0 .744.113.938.339.194.227.292.551.292.976 0 .12-.007.237-.021.35-.015.113-.036.24-.064.382l-.656 3.286h-1.146l.636-3.138c.028-.12.05-.223.064-.308a1.5 1.5 0 0 0 .021-.244c0-.445-.212-.668-.636-.668-.134 0-.307.063-.519.191-.212.127-.453.332-.722.615l-.71 3.551h-1.134l.625-3.138c.028-.12.049-.223.063-.308a1.5 1.5 0 0 0 .021-.244c0-.445-.208-.668-.625-.668-.141 0-.317.063-.529.191-.213.127-.449.332-.711.615l-.699 3.551h-1.146l1.04-5.203zM88.432 43.11c-.29 0-.556-.05-.795-.148-.24-.099-.445-.24-.615-.424s-.301-.406-.394-.668a2.638 2.638 0 0 1-.138-.88c0-.494.083-.949.249-1.362a3.38 3.38 0 0 1 .652-1.055c.268-.29.573-.516.917-.679.343-.163.69-.244 1.044-.244.594 0 1.066.189 1.42.567s.53.896.53 1.553a3.564 3.564 0 0 1-.902 2.412c-.27.294-.574.521-.917.684a2.413 2.413 0 0 1-1.051.244zm.806-4.537c-.205 0-.405.062-.599.185a1.85 1.85 0 0 0-.515.504 2.657 2.657 0 0 0-.354.752c-.088.29-.132.601-.132.933 0 .396.077.701.232.917.156.215.385.323.689.323.205 0 .402-.062.593-.186.191-.124.361-.293.509-.509.148-.216.268-.468.355-.758s.132-.601.132-.933c0-.396-.078-.7-.233-.912-.154-.21-.38-.316-.677-.316zM92.958 37.777h.922l-.053.731h.042c.276-.233.561-.435.854-.604.293-.17.605-.254.938-.254.438 0 .753.113.944.339.189.227.286.551.286.976a2.85 2.85 0 0 1-.085.732l-.657 3.286h-1.134l.636-3.138c.021-.12.041-.223.058-.308.018-.085.026-.166.026-.244 0-.445-.219-.668-.657-.668-.184 0-.38.063-.588.191-.208.127-.45.332-.726.615l-.7 3.551H91.92l1.038-5.205zM98.683 37.777h1.134l-1.039 5.205h-1.146l1.051-5.205zm.838-.922c-.163 0-.312-.051-.445-.153s-.201-.25-.201-.44c0-.205.074-.38.224-.525a.743.743 0 0 1 .541-.217c.163 0 .311.051.444.154s.201.249.201.44a.7.7 0 0 1-.223.53.76.76 0 0 1-.541.211zM101.354 38.679h-.731l.169-.848.795-.053.414-1.399h.954l-.275 1.399h1.251l-.181.901h-1.271l-.53 2.586a2.278 2.278 0 0 0-.032.371c0 .191.046.334.139.429.091.095.246.143.466.143.092 0 .176-.014.254-.042s.155-.06.232-.095l.213.806a3.247 3.247 0 0 1-.468.159 2.48 2.48 0 0 1-.636.074c-.488 0-.836-.122-1.044-.366-.208-.244-.312-.546-.312-.907 0-.106.008-.208.021-.307l.042-.308.53-2.543zM105.976 43.11c-.29 0-.556-.05-.795-.148-.24-.099-.445-.24-.615-.424s-.301-.406-.394-.668a2.638 2.638 0 0 1-.138-.88c0-.494.083-.949.249-1.362a3.38 3.38 0 0 1 .652-1.055c.268-.29.573-.516.917-.679.343-.163.69-.244 1.044-.244.594 0 1.066.189 1.42.567s.53.896.53 1.553a3.564 3.564 0 0 1-.902 2.412c-.27.294-.574.521-.917.684a2.413 2.413 0 0 1-1.051.244zm.806-4.537c-.205 0-.405.062-.599.185a1.85 1.85 0 0 0-.515.504 2.657 2.657 0 0 0-.354.752c-.088.29-.132.601-.132.933 0 .396.077.701.232.917.156.215.385.323.689.323.205 0 .402-.062.593-.186.191-.124.361-.293.509-.509.148-.216.268-.468.355-.758s.132-.601.132-.933c0-.396-.078-.7-.233-.912-.154-.21-.38-.316-.677-.316zM110.502 37.777h.922l-.095 1.007h.042a3.15 3.15 0 0 1 .721-.811c.275-.215.572-.323.891-.323.205 0 .378.032.52.095l-.381.997a.602.602 0 0 0-.223-.069 2.067 2.067 0 0 0-.266-.016c-.248 0-.49.096-.73.286-.24.191-.466.488-.678.891l-.615 3.148h-1.146l1.038-5.205zM115.517 41.212c0-.495.078-.959.232-1.394a3.84 3.84 0 0 1 .625-1.134c.263-.321.561-.574.896-.758a2.142 2.142 0 0 1 1.044-.275c.254 0 .488.065.7.196.212.131.378.31.499.536h.021l.223-.604h.912l-1.039 5.205h-.933l.053-.721h-.031a3.203 3.203 0 0 1-.821.615c-.301.155-.6.233-.896.233-.459 0-.82-.163-1.086-.488-.265-.325-.399-.796-.399-1.411zm1.95.965c.227 0 .457-.067.694-.201.236-.134.461-.361.673-.679l.424-2.078c-.12-.226-.256-.389-.407-.488a.858.858 0 0 0-.473-.148c-.219 0-.431.065-.636.196a1.91 1.91 0 0 0-.541.535c-.156.227-.279.49-.371.79s-.138.617-.138.949c0 .381.069.664.207.848a.673.673 0 0 0 .568.276zM122.216 37.777h.923l-.054.731h.042c.276-.233.561-.435.854-.604.293-.17.605-.254.938-.254.438 0 .753.113.944.339.19.227.286.551.286.976 0 .12-.005.237-.017.35-.011.113-.033.24-.068.382l-.657 3.286h-1.134l.636-3.138c.021-.12.041-.223.058-.308.018-.085.026-.166.026-.244 0-.445-.219-.668-.657-.668-.184 0-.38.063-.588.191-.208.127-.45.332-.726.615l-.7 3.551h-1.145l1.039-5.205zM131.152 37.343l.36-1.844h1.134l-1.505 7.484h-.934l.054-.721h-.032a3.203 3.203 0 0 1-.821.615 1.943 1.943 0 0 1-.896.233c-.459 0-.821-.163-1.087-.488-.265-.325-.396-.795-.396-1.41 0-.495.078-.959.233-1.394s.363-.812.625-1.134a3.04 3.04 0 0 1 .896-.758 2.142 2.142 0 0 1 1.044-.275c.254 0 .48.063.679.191.198.127.354.293.467.498h.031l.148-.997zm-2.173 4.834c.226 0 .456-.067.688-.201.233-.134.459-.361.679-.679l.424-2.078c-.121-.226-.256-.389-.408-.488s-.311-.148-.472-.148c-.22 0-.432.065-.637.196a1.91 1.91 0 0 0-.541.535c-.155.227-.278.49-.371.79-.092.3-.138.617-.138.949 0 .381.069.664.207.848s.328.276.569.276zM134.798 40.905c0-.488.083-.931.25-1.331.166-.399.386-.742.657-1.028.272-.286.578-.507.917-.663a2.43 2.43 0 0 1 1.019-.233c.304 0 .56.049.769.148.209.099.378.235.509.408s.227.376.286.609c.061.233.09.484.09.752 0 .227-.027.445-.085.657-.057.212-.103.36-.138.445h-3.17a1.91 1.91 0 0 0 .042.71c.056.197.143.36.26.487s.26.221.429.281c.171.06.354.09.552.09.184 0 .371-.042.562-.127.191-.085.357-.18.498-.286l.424.731a3.345 3.345 0 0 1-.769.387 2.962 2.962 0 0 1-1.014.165c-.311 0-.593-.05-.848-.148a1.826 1.826 0 0 1-.657-.43 1.968 1.968 0 0 1-.43-.689 2.601 2.601 0 0 1-.153-.935zm3.499-.954c.015-.071.026-.143.037-.217.012-.074.017-.154.017-.239 0-.254-.062-.479-.187-.673-.124-.194-.344-.292-.662-.292-.317 0-.617.125-.896.376s-.482.599-.609 1.044l2.3.001zM140.248 37.777h1.134l.275 2.767c.028.261.049.523.064.784l.042.795h.042c.119-.268.241-.531.365-.79.124-.258.246-.521.366-.79l1.347-2.767h1.124l-2.714 5.205h-1.336l-.709-5.204zM144.816 41.212c0-.495.078-.959.232-1.394a3.84 3.84 0 0 1 .625-1.134c.263-.321.561-.574.896-.758a2.142 2.142 0 0 1 1.044-.275c.254 0 .488.065.7.196.212.131.378.31.499.536h.021l.224-.604h.912l-1.039 5.205h-.934l.053-.721h-.031a3.203 3.203 0 0 1-.821.615 1.943 1.943 0 0 1-.896.233c-.459 0-.82-.163-1.086-.488-.265-.325-.399-.796-.399-1.411zm1.951.965c.226 0 .457-.067.693-.201.236-.134.461-.361.673-.679l.425-2.078c-.121-.226-.256-.389-.408-.488s-.311-.148-.472-.148c-.22 0-.432.065-.637.196a1.91 1.91 0 0 0-.541.535c-.155.227-.278.49-.371.79-.092.3-.138.617-.138.949 0 .381.069.664.207.848s.328.276.569.276zM151.95 35.499h1.134l-1.25 6.265a.59.59 0 0 0-.021.127v.074c0 .148.06.223.18.223a.614.614 0 0 0 .085-.005.898.898 0 0 0 .106-.026l-.021.848c-.078.036-.17.062-.275.08a2.236 2.236 0 0 1-.371.027c-.305 0-.526-.074-.667-.223-.143-.148-.212-.357-.212-.625 0-.163.024-.346.073-.551l1.239-6.214zM157.389 42.982h-.923l.042-.742h-.042a5.427 5.427 0 0 1-.826.61c-.29.173-.595.26-.912.26-.438 0-.754-.115-.949-.345s-.292-.553-.292-.97c0-.12.007-.238.021-.355.015-.117.035-.242.063-.376l.657-3.286h1.134l-.625 3.138a5.026 5.026 0 0 0-.063.308 1.5 1.5 0 0 0-.021.244c0 .445.215.668.646.668.347 0 .774-.269 1.283-.806l.7-3.551h1.134l-1.027 5.203zM158.968 41.212c0-.495.078-.959.233-1.394a3.84 3.84 0 0 1 .625-1.134c.262-.321.561-.574.896-.758a2.142 2.142 0 0 1 1.044-.275c.254 0 .487.065.699.196.213.131.379.31.499.536h.021l.223-.604h.912l-1.039 5.205h-.933l.053-.721h-.032a3.215 3.215 0 0 1-.82.615 1.95 1.95 0 0 1-.896.233c-.459 0-.821-.163-1.086-.488s-.399-.796-.399-1.411zm1.95.965c.227 0 .457-.067.694-.201.236-.134.461-.361.673-.679l.424-2.078c-.121-.226-.256-.389-.408-.488a.852.852 0 0 0-.472-.148c-.219 0-.431.065-.636.196a1.91 1.91 0 0 0-.541.535c-.156.227-.279.49-.371.79s-.138.617-.138.949c0 .381.068.664.207.848s.328.276.568.276zM165.657 38.679h-.731l.17-.848.795-.053.414-1.399h.953l-.275 1.399h1.251l-.18.901h-1.272l-.53 2.586a2.274 2.274 0 0 0-.031.371c0 .191.046.334.138.429.091.095.247.143.466.143.092 0 .176-.014.254-.042s.155-.06.233-.095l.212.806a3.23 3.23 0 0 1-.467.159 2.488 2.488 0 0 1-.637.074c-.487 0-.836-.122-1.044-.366-.208-.244-.312-.546-.312-.907 0-.106.007-.208.021-.307.015-.099.028-.202.042-.308l.53-2.543zM168.328 40.905c0-.488.083-.931.25-1.331a3.33 3.33 0 0 1 .657-1.028c.271-.286.578-.507.917-.663a2.43 2.43 0 0 1 1.018-.233c.305 0 .561.049.77.148.209.099.378.235.509.408s.226.376.286.609c.06.233.09.484.09.752 0 .227-.028.445-.085.657s-.103.36-.138.445h-3.17a1.89 1.89 0 0 0 .042.71c.056.197.143.36.26.487s.26.221.429.281c.17.06.354.09.551.09.185 0 .371-.042.562-.127.19-.085.356-.18.498-.286l.424.731a3.345 3.345 0 0 1-.769.387 2.966 2.966 0 0 1-1.014.165c-.311 0-.593-.05-.848-.148a1.817 1.817 0 0 1-.657-.43 1.953 1.953 0 0 1-.43-.689 2.624 2.624 0 0 1-.152-.935zm3.499-.954c.014-.071.026-.143.037-.217.011-.074.016-.154.016-.239 0-.254-.062-.479-.186-.673-.124-.194-.344-.292-.662-.292s-.617.125-.896.376-.482.599-.609 1.044l2.3.001z"/></g><g><ellipse fill="none" stroke="#000" stroke-width=".5" cx="126.274" cy="32.647" rx="56.812" ry="32.397"/><path fill="#FFF" d="M327.799 83.617c-5.556-10.422-13.855-19.501-24.696-27.654"/><path fill="none" stroke="#000" stroke-width=".5" d="M327.799 83.617c-5.556-10.422-13.855-19.501-24.696-27.654M329.407 77.555l-1.608 6.064-5.932-2.048"/><path fill="#FFF" d="M308.367 166.646c8.432-6.952 15.169-15.719 20.017-24.182"/><path fill="none" stroke="#000" stroke-width=".5" d="M308.367 166.646c8.432-6.952 15.169-15.719 20.017-24.182M314.628 167.019l-6.262-.374.828-6.218"/><path fill="#FFF" d="M191.267 198.938c4.382.29 9.665.087 14.164.087 4.151 0 9.091.129 13.146-.119"/><path fill="none" stroke="#000" stroke-width=".5" d="M191.267 198.938c4.382.29 9.665.087 14.164.087 4.151 0 9.091.129 13.146-.119"/><path fill="none" stroke="#000" stroke-width=".5" d="M195.569 203.503l-4.303-4.565 4.867-3.959"/><path fill="#FFF" d="M209.462 28.433c-4.382-.292-9.665-.087-14.164-.087-4.151 0-9.091-.129-13.146.118"/><path fill="none" stroke="#000" stroke-width=".5" d="M209.462 28.433c-4.382-.292-9.665-.087-14.164-.087-4.151 0-9.091-.129-13.146.118"/><path fill="none" stroke="#000" stroke-width=".5" d="M205.16 23.866l4.303 4.567-4.867 3.957"/><path fill="#FFF" d="M82.469 142.513c4.536 7.97 12.308 17.156 20.042 23.805"/><path fill="none" stroke="#000" stroke-width=".5" d="M82.469 142.513c4.536 7.97 12.308 17.156 20.042 23.805M81.03 148.619l1.439-6.105 5.986 1.879"/><path fill="#FFF" d="M99.895 61.656c-6.849 6.104-13.448 15.216-17.666 22.401"/><path fill="none" stroke="#000" stroke-width=".5" d="M99.895 61.656c-6.849 6.104-13.448 15.216-17.666 22.401M93.623 61.524l6.272.132-.588 6.246"/><path fill="#FFF" d="M266.799 65.045c31.378 0 56.812-14.504 56.812-32.397S298.175.251 266.799.251s-56.812 14.505-56.812 32.397c0 17.893 25.436 32.397 56.812 32.397"/></g><g><path d="M240.871 29.339h1.433l.922-4.558h-1.22l.148-.721c.339-.056.634-.127.885-.212.251-.084.489-.194.716-.329h.858l-1.177 5.82h1.304l-.18.922h-3.88l.191-.922zM246.553 30.389c-.19 0-.344-.062-.456-.186s-.169-.281-.169-.472a.94.94 0 0 1 .062-.333.844.844 0 0 1 .187-.292c.08-.085.175-.154.279-.207a.778.778 0 0 1 .352-.08c.189 0 .341.064.449.191a.707.707 0 0 1 .164.477.945.945 0 0 1-.237.626.802.802 0 0 1-.275.202.87.87 0 0 1-.356.074zM252.299 23.329h1.146l-1.378 6.933h-1.146l1.378-6.933zM257.971 24.622l.359-1.844h1.134l-1.505 7.484h-.934l.054-.721h-.032a3.215 3.215 0 0 1-.82.615 1.95 1.95 0 0 1-.896.233c-.46 0-.822-.163-1.087-.488-.265-.325-.396-.795-.396-1.41 0-.495.076-.959.232-1.394.155-.435.363-.812.625-1.134.262-.321.562-.574.896-.758a2.149 2.149 0 0 1 1.045-.275c.254 0 .479.063.678.191.198.127.354.293.467.498h.032l.148-.997zm-2.174 4.834c.228 0 .456-.067.689-.201.233-.134.459-.361.679-.679l.424-2.078c-.119-.226-.257-.389-.407-.488a.858.858 0 0 0-.473-.148c-.22 0-.432.065-.636.196a1.896 1.896 0 0 0-.541.535c-.155.227-.279.49-.371.79-.092.3-.138.617-.138.949 0 .381.067.664.207.848a.67.67 0 0 0 .567.276zM259.549 28.184a3.367 3.367 0 0 1 .906-2.359c.272-.286.578-.507.917-.663.34-.155.679-.233 1.019-.233.304 0 .561.049.769.148.209.099.378.235.509.408s.228.376.287.609c.061.233.09.484.09.752 0 .227-.027.445-.085.657-.057.212-.103.36-.138.445h-3.17c-.028.276-.014.513.043.71.056.198.143.36.26.487.116.127.259.221.429.281.171.06.354.09.553.09.184 0 .371-.042.562-.127s.356-.18.498-.286l.424.731a3.345 3.345 0 0 1-.769.387 2.95 2.95 0 0 1-1.012.165c-.312 0-.595-.05-.85-.148a1.834 1.834 0 0 1-.657-.43 1.951 1.951 0 0 1-.429-.689 2.584 2.584 0 0 1-.156-.935zm3.498-.954a2.518 2.518 0 0 0 .055-.456c0-.254-.062-.479-.187-.673s-.345-.292-.663-.292c-.316 0-.615.125-.896.376-.279.251-.482.599-.609 1.044l2.3.001zM265.646 25.057h.922l-.053.731h.042a5.78 5.78 0 0 1 .854-.604c.293-.17.605-.254.938-.254.438 0 .752.113.942.339.19.227.286.551.286.976a2.866 2.866 0 0 1-.085.732l-.657 3.286h-1.134l.636-3.138c.021-.12.04-.223.06-.308.018-.085.025-.166.025-.244 0-.445-.22-.668-.656-.668-.186 0-.381.062-.59.191-.208.127-.449.332-.726.615l-.7 3.551h-1.145l1.041-5.205zM271.379 25.958h-.73l.17-.848.795-.053.413-1.399h.954l-.275 1.399h1.251l-.18.901h-1.272l-.529 2.586a2.274 2.274 0 0 0-.031.371c0 .191.046.334.138.429.092.095.247.143.466.143a.751.751 0 0 0 .256-.042c.076-.028.154-.06.232-.095l.212.806a3.23 3.23 0 0 1-.467.159 2.48 2.48 0 0 1-.636.074c-.487 0-.836-.122-1.044-.366-.209-.244-.313-.546-.313-.907 0-.106.008-.208.021-.307.015-.099.027-.202.043-.308l.526-2.543zM275.036 25.057h1.135l-1.039 5.205h-1.145l1.049-5.205zm.838-.923a.71.71 0 0 1-.444-.153.521.521 0 0 1-.201-.44c0-.205.074-.38.223-.525s.328-.217.54-.217a.71.71 0 0 1 .445.154.52.52 0 0 1 .202.44.697.697 0 0 1-.224.53.756.756 0 0 1-.541.211zM277.199 25.11l.689-.053.115-.604c.106-.53.309-.963.604-1.299.297-.335.707-.503 1.229-.503.198 0 .383.025.553.074.169.049.327.113.477.191l-.382.806a1.665 1.665 0 0 0-.238-.106.85.85 0 0 0-.302-.053c-.212 0-.386.069-.521.207s-.229.355-.285.652l-.127.636h.984l-.18.901h-.997l-.848 4.304h-1.136l.858-4.304h-.667l.174-.849zM279.913 31.491c.227 0 .441-.086.646-.26.205-.173.378-.408.52-.705l.159-.318-.901-5.152h1.136l.327 2.629c.028.233.054.49.074.769.021.279.039.542.054.79h.043c.119-.248.241-.507.364-.779.124-.272.246-.532.366-.779l1.293-2.629h1.104l-2.927 5.48c-.163.283-.326.539-.492.769s-.342.426-.524.588-.384.288-.599.376a1.887 1.887 0 0 1-.717.132c-.085 0-.191-.018-.322-.053a1.523 1.523 0 0 1-.346-.138l.36-.827c.12.072.247.107.382.107zM287.143 28.491c0-.495.077-.959.232-1.394s.363-.812.625-1.134c.263-.321.562-.574.896-.758a2.149 2.149 0 0 1 1.045-.275c.254 0 .487.065.699.196s.378.31.498.536h.021l.223-.604h.912l-1.039 5.205h-.934l.054-.721h-.032a3.198 3.198 0 0 1-.82.615c-.301.155-.6.233-.896.233-.46 0-.821-.163-1.087-.488-.265-.325-.397-.796-.397-1.411zm1.95.965c.228 0 .458-.067.694-.201.237-.134.461-.361.674-.679l.425-2.078c-.12-.226-.258-.389-.408-.488a.858.858 0 0 0-.473-.148c-.22 0-.432.065-.636.196a1.896 1.896 0 0 0-.541.535c-.155.227-.278.49-.371.79-.092.3-.138.617-.138.949 0 .381.068.664.207.848a.67.67 0 0 0 .567.276z"/></g><g><path d="M248.759 43.491l-.297 1.548h-1.135l1.463-7.262h.923l-.021.636h.032c.247-.219.516-.401.806-.546.289-.145.583-.217.88-.217.466 0 .83.163 1.092.487.262.325.393.795.393 1.41 0 .502-.077.968-.232 1.399a3.841 3.841 0 0 1-.626 1.129c-.262.322-.559.574-.891.758s-.679.276-1.038.276c-.248 0-.471-.062-.668-.186a1.523 1.523 0 0 1-.488-.493h-.021l-.172 1.061zm2.183-4.908c-.205 0-.428.062-.668.186s-.459.313-.657.567l-.445 2.226c.113.219.244.376.394.472a.844.844 0 0 0 .467.143c.219 0 .431-.065.636-.196.205-.13.386-.309.54-.535.156-.226.281-.489.377-.79.097-.301.144-.62.144-.959 0-.382-.07-.663-.212-.843a.7.7 0 0 0-.576-.271zM254.547 37.777h.923l-.097 1.007h.043c.205-.325.445-.595.722-.811.274-.215.571-.323.891-.323.205 0 .378.032.52.095l-.382.997a.596.596 0 0 0-.223-.069 2.073 2.073 0 0 0-.265-.016c-.248 0-.492.096-.732.286-.24.191-.466.488-.678.891l-.615 3.148h-1.146l1.039-5.205zM259.392 43.11c-.29 0-.557-.05-.796-.148-.24-.099-.444-.24-.614-.424s-.301-.406-.394-.668a2.638 2.638 0 0 1-.138-.88c0-.494.083-.949.249-1.362a3.4 3.4 0 0 1 .652-1.055c.269-.29.573-.516.917-.679a2.403 2.403 0 0 1 1.044-.244c.594 0 1.066.189 1.421.567.353.378.529.896.529 1.553 0 .495-.083.947-.249 1.357s-.384.761-.651 1.055-.574.521-.917.684a2.421 2.421 0 0 1-1.053.244zm.805-4.537c-.205 0-.405.062-.6.185a1.864 1.864 0 0 0-.515.504 2.657 2.657 0 0 0-.354.752c-.088.29-.133.601-.133.933 0 .396.077.701.232.917.155.215.386.323.689.323.205 0 .401-.062.594-.186.189-.124.36-.293.509-.509a2.68 2.68 0 0 0 .354-.758c.089-.29.133-.601.133-.933 0-.396-.078-.7-.233-.912-.154-.212-.379-.316-.676-.316zM262.879 42.982l1.505-7.484h1.136l-.371 1.844-.255.997h.021c.247-.198.509-.362.784-.493.276-.13.559-.196.849-.196.467 0 .83.161 1.093.482.261.321.392.793.392 1.415 0 .502-.077.968-.232 1.399a3.796 3.796 0 0 1-.626 1.129c-.262.322-.559.574-.891.758s-.678.276-1.038.276c-.262 0-.493-.065-.695-.196-.2-.131-.36-.309-.48-.535h-.021l-.223.604h-.948zm3.201-4.399c-.205 0-.428.062-.668.186s-.459.313-.657.567l-.444 2.205c.112.227.244.389.393.488a.827.827 0 0 0 .467.148c.22 0 .432-.065.637-.196.204-.13.385-.309.54-.535s.28-.489.377-.79c.096-.301.143-.62.143-.959 0-.382-.07-.663-.212-.843s-.336-.271-.576-.271zM270.161 35.499h1.135l-1.251 6.265a.533.533 0 0 0-.021.127v.074c0 .148.061.223.181.223.035 0 .063-.002.085-.005s.057-.012.105-.026l-.021.848c-.077.036-.169.062-.274.08s-.229.027-.371.027c-.305 0-.526-.074-.668-.223-.143-.149-.212-.357-.212-.625 0-.163.023-.346.073-.551l1.239-6.214zM271.55 40.905a3.367 3.367 0 0 1 .906-2.359c.272-.286.578-.507.917-.663.34-.155.679-.233 1.019-.233.304 0 .561.049.769.148.209.099.378.235.509.408s.228.376.287.609c.061.233.09.484.09.752 0 .227-.027.445-.085.657-.057.212-.103.36-.138.445h-3.17c-.028.276-.014.513.043.71.056.198.143.36.26.487.116.127.259.221.429.281.171.06.354.09.553.09.184 0 .371-.042.562-.127s.356-.18.498-.286l.424.731a3.345 3.345 0 0 1-.769.387 2.95 2.95 0 0 1-1.012.165c-.312 0-.595-.05-.85-.148a1.834 1.834 0 0 1-.657-.43 1.951 1.951 0 0 1-.429-.689 2.588 2.588 0 0 1-.156-.935zm3.498-.954a2.518 2.518 0 0 0 .055-.456c0-.254-.062-.479-.187-.673-.124-.194-.345-.292-.663-.292-.316 0-.615.125-.896.376-.279.251-.482.599-.609 1.044l2.3.001zM277.646 37.777h.922l-.053.731h.042c.269-.233.548-.435.838-.604a1.68 1.68 0 0 1 .857-.254c.198 0 .367.025.51.074.142.049.26.117.354.201a.924.924 0 0 1 .223.302c.054.117.094.246.121.387.312-.297.619-.532.923-.705.305-.173.598-.26.881-.26.431 0 .742.113.938.339.193.227.291.551.291.976 0 .12-.007.237-.021.35-.015.113-.035.24-.063.382l-.657 3.286h-1.145l.636-3.138c.028-.12.05-.223.063-.308.015-.085.021-.166.021-.244 0-.445-.212-.668-.636-.668-.135 0-.309.063-.521.191-.212.127-.451.332-.721.615l-.711 3.551h-1.134l.625-3.138c.027-.12.05-.223.062-.308.016-.085.021-.166.021-.244 0-.445-.208-.668-.625-.668-.143 0-.318.063-.53.191-.212.127-.449.332-.71.615l-.7 3.551h-1.145l1.044-5.203z"/></g><g><ellipse fill="none" stroke="#000" stroke-width=".5" cx="266.799" cy="32.647" rx="56.812" ry="32.397"/></g></svg>