<svg version="1.1" xmlns="http://www.w3.org/2000/svg" x="0" y="0" width="411.023" height="364.391" viewBox="-42.52 16.264 411.023 364.391" xml:space="preserve"><path d="M-13.701 66.112h.603l3.542 8.635h-1.297l-1.036-2.678h-1.813v-.861h1.468l-.864-2.418c-.26-.604-.432-1.122-.603-1.554v-1.124zm-3.886 8.634l3.281-8.635h.605v1.122-.172c-.086.518-.259 1.035-.435 1.638l-.95 2.506h1.382v.861h-1.729l-.95 2.678h-1.205v.002zM-8.521 74.746v-5.439h-.952v-.777h.952v-.69c0-.434 0-.776.084-.952.087-.26.259-.518.518-.69.258-.172.605-.258 1.124-.258.258 0 .604.086.95.172l-.172.864h-.604c-.343 0-.518 0-.69.172a1.737 1.737 0 0 0-.172.776v.604h1.208v.778h-1.208v5.439l-1.038.001z"/><path d="M-5.412 74.746v-5.439h-.951v-.777h.951v-.69c0-.434 0-.776.085-.952.086-.26.258-.518.518-.69.258-.172.693-.258 1.122-.258.26 0 .605.086.953.172l-.175.864h-.602c-.259 0-.521 0-.693.172a1.724 1.724 0 0 0-.172.776v.604h1.208v.778h-1.208v5.439l-1.036.001zM1.927 72.674l1.121.172c-.172.605-.518 1.123-1.036 1.47-.431.343-1.036.518-1.726.518H.2v-.864h.086c.346 0 .69-.086.95-.258.346-.261.518-.52.691-1.038zM.2 68.357c.864 0 1.554.258 2.072.861.518.518.776 1.382.776 2.331v.346H.198v-.864h1.729c0-.518-.174-.95-.433-1.21-.259-.431-.69-.604-1.295-.604l.001-.86zm0 6.476c-.861 0-1.554-.259-2.072-.864-.518-.518-.776-1.294-.776-2.331s.258-1.813.776-2.418c.518-.602 1.211-.861 2.072-.861v.861c-.431 0-.861.175-1.208.518-.346.259-.518.693-.518 1.296H.2v.864h-1.813c.087.69.258 1.208.604 1.554.346.346.69.518 1.208.518v.863zM8.404 72.416l1.036.172c-.087.693-.435 1.295-.864 1.641-.518.431-1.036.604-1.726.604-.864 0-1.554-.259-2.072-.776-.518-.605-.776-1.382-.776-2.418 0-.69.083-1.294.343-1.813.258-.431.604-.864 1.036-1.123.434-.258.952-.343 1.47-.343.69 0 1.208.172 1.639.518.435.343.693.776.864 1.468l-1.036.172c-.088-.431-.259-.777-.518-.948-.258-.259-.518-.346-.95-.346-.518 0-.953.175-1.294.604-.259.346-.435.95-.435 1.813 0 .777.175 1.382.435 1.813.343.346.776.518 1.294.518.432 0 .776-.086 1.036-.346.259-.261.432-.692.518-1.21zM12.635 73.798l.175.861c-.346.086-.605.174-.777.174-.434 0-.692-.087-.952-.259a1.048 1.048 0 0 1-.432-.433c-.087-.172-.086-.602-.086-1.208v-3.626h-.779v-.777h.778v-1.554l1.036-.69v2.245h1.036v.777h-1.036v4.231c.086.083.086.172.175.172.083.086.258.086.431.086l.431.001zM17.902 72.674l1.124.172a2.913 2.913 0 0 1-.95 1.47c-.518.343-1.036.518-1.813.518h-.086v-.864h.086c.432 0 .777-.086 1.036-.258.259-.261.431-.52.603-1.038zm-1.726-4.317c.864 0 1.554.258 2.072.861.518.518.777 1.382.777 2.331v.346h-2.849v-.864h1.726c0-.518-.172-.95-.342-1.21-.346-.431-.778-.604-1.296-.604h-.086l-.002-.86zm0 6.476c-.864 0-1.554-.259-2.072-.864-.518-.518-.776-1.294-.776-2.331s.259-1.813.776-2.418c.518-.602 1.209-.861 2.072-.861v.861c-.435 0-.864.175-1.211.518-.26.259-.431.693-.518 1.296h1.729v.864h-1.813c.084.69.259 1.208.602 1.554.346.346.776.518 1.211.518v.863zM24.379 74.746v-.864c-.432.604-.95.952-1.639.952v-.864c.432 0 .861-.172 1.121-.518.346-.432.518-.95.518-1.727 0-.864-.172-1.469-.518-1.9-.26-.431-.69-.604-1.121-.604v-.861c.258 0 .603.083.861.258.26.172.518.343.693.602v-3.108h1.036v8.634h-.951zm-1.641.087h-.087c-.518 0-.949-.087-1.382-.434-.431-.258-.776-.603-.95-1.121-.258-.434-.346-1.036-.346-1.64 0-.69.087-1.209.258-1.727.258-.518.518-.864.952-1.124.432-.259.861-.431 1.379-.431h.175v.861h-.087c-.431 0-.862.175-1.122.604-.343.346-.518.95-.518 1.813 0 .777.175 1.382.518 1.727.346.433.693.604 1.211.604l-.001.868zM-9.99 88.132v-5.44h-.95v-.776h.95v-.693c0-.431.086-.69.086-.95.172-.258.346-.433.605-.604.259-.171.602-.258 1.036-.258.343 0 .602 0 1.036.086l-.174.95c-.26-.084-.432-.084-.69-.084s-.518.084-.605.172c-.172.172-.258.431-.258.776v.604h1.21v.776h-1.208v5.44H-9.99v.001zM-2.822 87.354c-.431.344-.776.518-1.122.692-.172.086-.346.086-.605.171v-.777c.258-.084.518-.172.776-.258.258-.172.518-.432.693-.777.083-.172.172-.603.172-1.036v-.345c-.342.085-.95.26-1.64.343v-.861c.776-.087 1.298-.26 1.64-.346v-.258c0-.432-.084-.778-.342-.95a1.914 1.914 0 0 0-1.124-.346h-.175v-.864h.258c.518 0 .953.087 1.295.175.346.172.605.343.776.518.175.172.258.431.346.69v2.42c0 .949 0 1.554.086 1.813 0 .259.172.518.26.777h-1.124c-.083-.262-.17-.521-.17-.781zm-1.728.863h-.602c-.692 0-1.21-.171-1.554-.431-.346-.346-.518-.776-.518-1.296 0-.344.084-.604.172-.862.172-.26.346-.432.518-.603.258-.173.518-.258.776-.345.259-.087.518-.087.951-.172h.257v.862h-.085c-.433.087-.776.174-.951.259-.172.086-.258.175-.432.345-.086.087-.086.26-.086.432 0 .346.086.518.259.777.258.174.604.258.952.258h.343v.776zm0-5.613c-.431 0-.777.086-.95.258-.258.172-.432.518-.518.95l-1.036-.172c.086-.431.259-.776.432-1.036.258-.258.518-.518.952-.604.343-.172.69-.26 1.12-.26v.864zM2.1 87.18l.172.951c-.343 0-.602.084-.861.084-.346 0-.693-.084-.864-.171-.172-.172-.346-.346-.432-.518-.087-.172-.175-.604-.175-1.208v-3.626h-.776v-.776h.776v-1.554l1.036-.604v2.159H2.1v.776H.976v3.626c0 .343.086.518.086.603.087.086.087.175.172.175.087.084.259.084.346.084l.52-.001zM3.136 88.132v-8.636h1.036v3.108c.518-.604 1.124-.864 1.813-.864.518 0 .864.087 1.209.26.346.174.604.434.777.776.174.346.174.776.174 1.382v3.972H7.11v-3.972c0-.518-.086-.864-.346-1.122-.172-.259-.518-.344-.95-.344-.346 0-.605.085-.864.172-.258.172-.518.431-.604.69a3.89 3.89 0 0 0-.172 1.124v3.454H3.136zM14.016 86.144l1.124.086c-.175.604-.518 1.122-.953 1.468-.518.346-1.036.518-1.813.518h-.084v-.861h.084c.434 0 .776-.086 1.036-.258.261-.261.434-.52.606-.953zM12.29 81.74h.084c.776 0 1.47.26 1.988.864.518.518.776 1.382.776 2.418v.26h-2.85v-.864h1.726c0-.518-.172-.95-.346-1.208-.343-.346-.776-.605-1.295-.605h-.083v-.865zm0 6.477c-.864 0-1.554-.258-2.072-.776-.518-.602-.776-1.379-.776-2.416 0-1.035.258-1.813.776-2.418a2.859 2.859 0 0 1 2.072-.864v.864c-.434 0-.864.172-1.122.518-.346.346-.518.778-.605 1.294h1.729v.864h-1.813c.084.69.259 1.208.602 1.554.346.343.776.518 1.211.518v.861h-.002zM16.434 88.132v-6.216h.95v.95c.259-.431.433-.776.693-.864.172-.172.432-.26.69-.26.346 0 .69.087 1.036.346l-.346.95c-.259-.083-.518-.172-.778-.172-.258 0-.431.087-.602.172-.175.175-.346.346-.433.604-.084.346-.172.777-.172 1.21v3.283l-1.038-.003zM331.096 65.162v-8.547h1.122l4.491 6.733v-6.733h1.123v8.547h-1.123l-4.576-6.736v6.736zM342.149 58.772c.862 0 1.553.346 2.072.864.518.605.777 1.382.777 2.332 0 .777-.086 1.469-.345 1.9-.175.431-.603.777-1.037 1.035-.432.26-.951.432-1.468.432v-.861c.517 0 .949-.258 1.294-.604.346-.432.52-1.036.52-1.814 0-.777-.174-1.382-.52-1.813-.345-.346-.777-.605-1.294-.605v-.866zm-2.936 3.281c0-1.124.346-1.989.951-2.59.52-.435 1.21-.693 1.987-.693v.864c-.518.087-.951.26-1.296.605-.344.432-.518 1.036-.518 1.813 0 .777.174 1.382.518 1.814.345.346.778.604 1.296.604v.861c-.862 0-1.555-.343-2.158-.861-.521-.517-.78-1.38-.78-2.417zM346.294 65.162v-6.217h.952v.95c.172-.432.432-.778.602-.864.26-.172.435-.256.692-.256.344 0 .778.172 1.121.343l-.343 1.036c-.26-.172-.519-.258-.778-.258-.258 0-.433.086-.692.175-.172.172-.26.343-.342.603a5.006 5.006 0 0 0-.176 1.211v3.282h-1.036v-.005zM350.265 65.162v-6.217h.951v.861c.174-.256.432-.518.776-.69.345-.258.692-.346 1.122-.346s.863.086 1.122.346c.259.172.519.435.604.778.517-.691 1.121-1.124 1.898-1.124.69 0 1.121.175 1.467.518.346.346.52.864.52 1.641v4.231h-1.036v-3.886c0-.435-.086-.776-.174-.953 0-.172-.172-.343-.346-.431-.172-.087-.431-.172-.602-.172-.435 0-.865.172-1.122.431-.26.26-.432.777-.432 1.382v3.626h-1.037v-4.061c0-.431-.087-.776-.259-1.036-.175-.26-.435-.343-.864-.343-.259 0-.604.083-.776.258-.26.085-.433.343-.605.691-.083.259-.172.69-.172 1.294v3.196l-1.035.006zM364.342 64.384c-.434.346-.778.605-1.124.69-.172.087-.432.175-.603.175v-.777c.258-.087.518-.174.776-.258.259-.175.521-.434.692-.693a3.38 3.38 0 0 0 .171-1.121v-.347c-.341.172-.948.26-1.636.346v-.864c.689-.086 1.295-.172 1.636-.346v-.26c0-.431-.082-.69-.341-.864-.261-.258-.605-.432-1.212-.432l-.083.087v-.952h.258c.519 0 .95.086 1.296.258.344.086.602.258.777.435.085.172.258.432.258.69.085.172.085.518.085 1.036v1.382c0 .95 0 1.554.086 1.813 0 .26.087.518.261.778h-1.123a1.668 1.668 0 0 1-.174-.776zm-1.727.865c-.175 0-.345.084-.604.084-.692 0-1.211-.172-1.554-.518-.346-.343-.52-.776-.52-1.294 0-.258 0-.602.174-.861.173-.258.346-.433.518-.604.259-.086.519-.258.776-.346.26 0 .519-.084.951-.084l.262-.086v.864l-.087.083c-.434 0-.777.087-.951.175-.175.086-.345.172-.433.343-.085.175-.085.346-.085.518 0 .259.085.518.258.693.262.172.521.258.951.258h.347v.775h-.003zm0-5.528c-.434 0-.776.084-.951.258-.26.172-.432.432-.519.862l-1.036-.085c.087-.518.259-.863.433-1.123.259-.258.519-.432.951-.604.346-.083.691-.172 1.122-.258v.95zM366.93 56.615h1.037v8.548h-1.037zM330.922 78.545v-6.216h.952v.864c.174-.258.433-.518.778-.69a2.354 2.354 0 0 1 1.121-.258c.434 0 .862.083 1.122.258.346.172.518.432.604.776.519-.693 1.121-1.036 1.986-1.036.604 0 1.037.172 1.382.432.344.346.519.949.519 1.642v4.228h-1.036V74.66c0-.432-.088-.776-.088-.95a1.02 1.02 0 0 0-.431-.432c-.175-.086-.346-.175-.604-.175-.433 0-.778.175-1.123.434-.258.344-.432.777-.432 1.38v3.626h-1.037v-4.058c0-.431-.085-.776-.259-1.036-.172-.26-.432-.346-.861-.346a1.39 1.39 0 0 0-.778.258c-.26.175-.434.346-.604.693-.086.258-.173.69-.173 1.294v3.192h-1.039v.005zM343.443 72.243c.864 0 1.556.258 2.072.776.605.602.864 1.379.864 2.332 0 .776-.174 1.468-.346 1.897a2.976 2.976 0 0 1-1.035 1.036c-.52.259-1.036.433-1.556.433v-.862c.52 0 .951-.258 1.296-.604.345-.432.519-1.036.519-1.813s-.174-1.379-.519-1.727c-.345-.432-.776-.604-1.296-.604v-.864h.001zm-2.934 3.193c0-1.12.345-1.986 1.036-2.504.518-.518 1.121-.69 1.898-.69v.861c-.518 0-.949.175-1.294.604-.346.346-.519.95-.519 1.726 0 .777.173 1.382.519 1.814.345.346.776.604 1.294.604v.864c-.862 0-1.554-.259-2.072-.864-.518-.513-.862-1.379-.862-2.415zM349.92 77.596l.175.949c-.345.087-.604.087-.862.087-.345 0-.604-.087-.864-.172a1.042 1.042 0 0 1-.432-.433c-.085-.26-.173-.69-.173-1.294v-3.54h-.777v-.864h.777v-1.554l1.12-.602v2.156h1.037v.864h-1.037v4.144c.087.086.087.172.175.259.084 0 .26.086.343.086.174 0 .346 0 .518-.086zM350.956 78.545v-8.548h1.037v3.024c.517-.518 1.122-.776 1.898-.776.434 0 .864.084 1.124.258.343.172.603.432.777.69.173.346.173.864.173 1.468v3.885h-1.038v-3.885c0-.602-.083-.95-.343-1.208-.175-.258-.519-.346-.951-.346-.345 0-.604.086-.864.258-.26.175-.517.346-.602.693a3.36 3.36 0 0 0-.175 1.12v3.367h-1.036zM361.839 76.56l1.121.172a2.948 2.948 0 0 1-.95 1.47c-.434.342-1.036.518-1.813.518h-.087v-.865h.087c.432 0 .777-.087 1.036-.346.258-.171.431-.519.606-.949zm-1.73-4.317h.087c.777 0 1.468.258 1.985.776.519.602.778 1.379.778 2.416v.258h-2.851v-.861h1.729c0-.518-.175-.864-.346-1.124-.345-.432-.776-.604-1.295-.604h-.086l-.001-.861zm0 6.475a2.866 2.866 0 0 1-2.073-.864c-.517-.518-.776-1.294-.776-2.332 0-1.036.26-1.9.776-2.418a2.81 2.81 0 0 1 2.073-.861v.861c-.432 0-.862.175-1.122.434-.345.344-.517.777-.603 1.294h1.728v.862h-1.728c0 .692.173 1.21.519 1.554.344.346.777.604 1.209.604l-.003.866zM364.253 78.545v-6.216h.951v.952a4.18 4.18 0 0 1 .694-.864c.172-.172.431-.172.692-.172.342 0 .69.084 1.033.258l-.343 1.036a1.385 1.385 0 0 0-.777-.259.776.776 0 0 0-.604.259.872.872 0 0 0-.432.518c-.088.431-.176.776-.176 1.208v3.281h-1.04v-.001z"/><path fill="#939598" stroke="#000" stroke-width=".707" stroke-linecap="round" stroke-linejoin="round" d="M69.023 40.897c.95.952 2.675 1.036 4.576 1.73 2.418.95 5.44 6.13 6.304 8.289.432.259.776.259.518.862 0 2.506 1.468 4.49 1.468 6.994 1.554-.085 2.072 2.333 1.122 2.678.26.258.605.433.864.951 0 .692-.175 1.468-.435 1.986.175.087.346.518.518.69 0 1.212-.518 2.418-1.379 3.195-.346-2.677-4.49-3.712-6.911-.864 0-.777-.776-1.379-.518-2.072-.258 0-.864-.518-1.122-.776 0-.69.258-1.468 0-1.898 0 .259-.432.95-.69 1.209 0 1.9 1.988 2.936 1.122 5.094-.174.518-.433.258-.433 1.036-1.295 0-4.144 1.382-5.007 2.331-6.651 1.554-13.816.693-20.811-1.638-1.64-.604-1.988-5.097-1.988-7.081-.343.086-.776.518-1.294.518.433.172.604.605.604 1.468 0 1.641-1.036 1.9-1.554 3.108-.69 2.849.172 8.118-.604 7.858-.343-2.677-3.97-1.986-5.266 0 .085.258.172.692.258 1.294-1.382.175-1.555-5.44-2.247-9.154-.172 0-.432 0-.605-.172-.258-1.036.175-2.16 0-3.194-.258-.26-.518-.518-.69-.776-.604-1.21 1.382-2.245 1.727-3.108 0-6.39 2.852-10.793 4.837-15.89.432-1.468 1.296-4.145 3.022-4.922 2.677-1.208 5.698-1.468 8.548-2.156 1.813-.692.864.084 2.332-1.815.864-.776 1.729-1.035 2.507-.603-.259 1.468-.172 1.208-1.036 2.157 1.294 2.158 2.244 4.49 4.231 4.665.259 0 1.12 3.798 2.934 4.836 1.212-3.541 3.543-4.404 3.543-8.808 1.122-.266 1.037.684 1.555 1.978z"/><path fill="#939598" stroke="#000" stroke-width=".707" stroke-linecap="round" stroke-linejoin="round" d="M48.297 70.774c-.172.434-.343 4.061-.776 4.579 0 1.897-1.296 3.367-1.296 5.094 1.554 1.729.776 3.886.776 5.875.175.343.346.861.518 1.036 0 .776.259 1.379.518 1.727.693.432-.172 1.208-1.379.518 0 .776.085 1.122 0 1.554.259.258.776.69 0 1.122 0 3.368 1.727 8.203 1.12 11.569-.69 3.713-2.245 7.598-1.554 11.744.175 1.987-.861 5.874-1.12 7.858v2.418c-.174.258-.434.431-.694.69 0 2.676.087 5.268.175 7.858 0 1.379-.175 2.59-.175 3.886-.172 1.208-.86 4.232-.083 4.404 1.208-1.986 6.39-2.763 8.203-.95.346.259.605.602.864.95.172.172.603-.172.69-.776.087-1.296.259-1.9.259-2.678 1.471 0 3.885-.69 5.44-.95 1.729-.518 3.713.518 5.268-.776 0-.434-.432-.952-.69-1.211 0-1.638.861-3.367 1.379-4.834.604-1.986.433-5.354.864-7.34v-.95c1.036-1.208 1.294-3.713 2.418-4.922 0-3.885 1.897-8.548 2.59-12.435 1.12-5.873.69-12.695 1.727-18.564 0-.259.431-1.641.949-2.763 1.642-5.097-.343-6.045-.431-7.687-.346.172-.69 1.122-1.468.604-.175-.086-.175-.518.084-.776.174-.258.345-.693.518-.952.175-.259.953-.518 1.471-.862-.175 0-.776.259-1.642.344-.431.346-1.208 1.294-1.813 1.294-.086 0-.518 0-.431-.432 0-.172.172-.431.258-.604-.258.346-1.124.346-1.036-.431.343-.605.861-1.642 1.208-1.986.086-.258 1.296-1.035 1.727-1.382-.602-.346-1.554.777-2.072.777-.432.172-1.468.518-1.554-.087-8.03 1.989-16.924-.258-20.81-1.553z"/><path fill="#939598" d="M59.783 139.769c.258-.603.864-1.294 2.072-1.554 1.382 0 2.247-.084 2.678-.342 1.813.949 3.454 3.108 4.49 3.539.861.259 2.245.346 2.675.432.346 0 .346 1.211 0 1.813.518.434.434.776-.084 1.123-1.813.346-5.18.346-7.772-.259-1.554-.258-1.47-.948-4.061-1.381-.603-.084-.343.518-1.639.434-.604 0-3.024-.346-3.626-.776-.346-.175 0-1.036 0-1.296-.435-.604-.262-1.554-.262-2.247 1.124 0 1.9-.172 2.678-.343.779.425 1.21.857 2.851.857zm-14.854 2.246c-.95.518-.602 1.897-.432 2.59.086.69-.172.861-.258 1.897.346 2.591 7.771 4.663 9.672 1.813.258-.776-.086-1.897-.346-2.331-.432-1.295-.518-2.245-.346-3.541-1.294-1.814-3.54-1.9-5.612-1.554-.776.518-1.468 1.123-2.072 2.072-.26-.256-.518-.342-.606-.946z"/><path fill="none" stroke="#000" stroke-width=".707" stroke-linecap="round" stroke-linejoin="round" d="M59.783 139.769c.258-.603.864-1.294 2.072-1.554 1.382 0 2.247-.084 2.678-.342 1.813.949 3.454 3.108 4.49 3.539.861.259 2.245.346 2.675.432.346 0 .346 1.211 0 1.813.518.434.434.776-.084 1.123-1.813.346-5.18.346-7.772-.259-1.554-.258-1.47-.948-4.061-1.381-.603-.084-.343.518-1.639.434-.604 0-3.024-.346-3.626-.776-.346-.175 0-1.036 0-1.296-.435-.604-.262-1.554-.262-2.247 1.124 0 1.9-.172 2.678-.343.779.425 1.21.857 2.851.857zm-14.854 2.246c-.95.518-.602 1.897-.432 2.59.086.69-.172.861-.258 1.897.346 2.591 7.771 4.663 9.672 1.813.258-.776-.086-1.897-.346-2.331-.432-1.295-.518-2.245-.346-3.541-1.294-1.814-3.54-1.9-5.612-1.554-.776.518-1.468 1.123-2.072 2.072-.26-.256-.518-.342-.606-.946z"/><path fill="#939598" d="M44.929 142.015c.692-.605 1.729-.951 2.676-1.123-.604.345-1.554 1.294-2.072 2.072-.258-.259-.516-.345-.604-.949zm12.004-3.109c.605-.175 2.506-.604 3.284-.693.776-.083 1.208-.083 1.554 0-.864.172-1.554.693-1.988 1.554-1.296.002-2.072-.342-2.85-.861z"/><path fill="none" stroke="#000" stroke-width=".707" stroke-linecap="round" stroke-linejoin="round" d="M44.929 142.015c.692-.605 1.729-.951 2.676-1.123-.604.345-1.554 1.294-2.072 2.072-.258-.259-.516-.345-.604-.949zm12.004-3.109c.605-.175 2.506-.604 3.284-.693.776-.083 1.208-.083 1.554 0-.864.172-1.554.693-1.988 1.554-1.296.002-2.072-.342-2.85-.861z"/><path fill="#939598" stroke="#000" stroke-width=".707" stroke-linecap="round" stroke-linejoin="round" d="M67.469 38.911c.172-.518.343-1.295.518-1.988.95-.69 1.468-2.332 1.897-3.022 1.036 0 1.987-2.504 2.158-3.714-.258-.602-1.036.086-1.726.953-.259 0 .259-1.729.172-2.418-.172-.518.346-2.763 0-3.108-.258.172-.258.432-.431.864-.174-.518-.087-.953.084-1.382-.86-1.296-2.589-1.296-3.452-1.124-.605 0-1.382.435-3.024 0-1.727-.518-1.208-.172-1.897-1.379-.175-.346-1.642.602-1.554 1.468.083 3.367-1.036 3.799-.864 5.353-.432-.258-.518-.776-.777-1.208-.432-.604-.604-.776-1.036-.604-.432.604-.087 2.16-.172 3.454.172.864.603 1.295 1.121 1.295 0 1.036-.69 3.886-.95 4.922-.172.258-.433.518-.776.864.95 1.639 2.244 4.75 4.316 4.75.605 1.554 1.554 4.145 2.936 4.836.086-1.036 1.986-3.886 2.418-4.577.779-1.385 1.039-3.027 1.039-4.235z"/><path fill="#939598" stroke="#000" stroke-width=".707" stroke-linecap="round" stroke-linejoin="round" d="M71.353 30.104c-.26.172-.693.603-1.036 1.036-.258 0 .26-1.729.172-2.418-.172-.518.258-2.763 0-3.108-.258.172-.258.432-.431.864-.175-.518-.087-.952.083-1.382-.86-1.295-2.934-1.295-3.452-1.123-.605 0-1.382.434-3.024 0-1.727-.518-1.208-.172-1.897-1.38-.175-.346-1.642.602-1.554 1.468.084 3.367-1.036 3.712-.864 5.353-.432-.258-.518-.776-.776-1.208.172-1.467-1.986-3.885.087-5.439.69-1.554 1.467-2.418 2.934-2.678 1.47-.26 3.024-.69 4.579.086.518.084 2.332.431 3.022.95 3.025.258 4.145 4.319 3.284 6.822-.177.516-1.041 1.293-1.127 2.157z"/><path fill="#939598" d="M71.957 72.243c-2.762 1.121-9.844 1.554-11.31 1.295-1.294 0-2.244-.259-3.54-.518-.175.172-.258 2.157 0 2.157 1.208.435 2.59.435 5.094.435 2.072.172 6.563-.518 7.686-.864.775-1.125.862-1.728 2.07-2.505zm-15.628.691c-.259.69-.259 1.726-.175 1.986-2.418-.432-6.217-1.296-8.118-2.245-.172-.346.087-1.9.26-1.9 2.679.863 5.269 1.641 8.033 2.159z"/><path fill="none" stroke="#000" stroke-width=".707" stroke-linecap="round" stroke-linejoin="round" d="M71.957 72.243c-2.762 1.121-9.844 1.554-11.31 1.295-1.294 0-2.244-.259-3.54-.518-.175.172-.258 2.157 0 2.157 1.208.435 2.59.435 5.094.435 2.072.172 6.563-.518 7.686-.864.775-1.125.862-1.728 2.07-2.505zm-15.628.691c-.259.69-.259 1.726-.175 1.986-2.418-.432-6.217-1.296-8.118-2.245-.172-.346.087-1.9.26-1.9 2.679.863 5.269 1.641 8.033 2.159z"/><path fill="#939598" stroke="#000" stroke-width=".707" stroke-linecap="round" stroke-linejoin="round" d="M62.805 73.539c-.518-.174-1.294-.434-2.16-.434-.518 0-.604 2.678 0 2.85.69.086 1.814-.085 2.16-.343h-1.554c-.346-.087-.258-1.988 0-2.072a4.852 4.852 0 0 0 1.554-.001z"/><path fill="#939598" d="M75.671 67.321c0 1.036-.343 2.416-.343 3.368-.435 0-.864-.693-1.294-.776-1.471.083-4.32 1.554-4.925 2.416.175.518.864.346 1.471.087.861-.087 1.379-1.124 2.156-.777-1.986 1.382-1.639 1.124-2.849 3.196-.343.69.518 1.121.953.602-.087.175-.259.259-.259.604-.087.432.518.605.95.259.518-.259.864-.69 1.294-1.123.518 0 1.036-.172 1.642-.344-.604.431-.864.344-1.294.69-.346.26-.346.778-.777 1.21-.346.692.172 1.035.69.776.346-.172.693-.776 1.036-1.036.433-.343 1.729-.602 2.331-1.12.258-.174.778-.174 1.554-.518.864-.864.864-1.642 1.554-2.418 1.642-2.849 2.676-3.454 3.024-4.232-.346-1.814-1.813-2.245-2.418-2.332-.611-.173-2.597-.604-4.496 1.468zM43.375 76.56c-.172 1.813 0 3.454.086 5.268.432.864 1.9 1.294 2.332 1.813.604.604 1.035 2.072 1.382 3.196.602.95.083 1.468 1.121 2.416.174.174-.172.692-.692.692-1.468-.087-1.64-1.294-2.331-3.024-.431 1.211.086 1.554-.258 2.765.95.518 1.554 1.294 1.9 1.813.518.603-.693 1.121-1.294.518-.953.172-.864.518-2.16-.518-.776 0-1.036.258-1.468-.087-1.554-.086-1.123.087-2.332-1.208-.604-.776-.604-1.9-.864-2.678-.172-.346-.172-1.122 0-1.468.432-.953 0-1.554.518-2.507-.258-2.417-.69-4.058-1.208-6.994.951-1.639 4.924-2.934 5.268.003z"/><path fill="none" stroke="#000" stroke-width=".707" stroke-linecap="round" stroke-linejoin="round" d="M75.671 67.321c0 1.036-.343 2.416-.343 3.368-.435 0-.864-.693-1.294-.776-1.471.083-4.32 1.554-4.925 2.416.175.518.864.346 1.471.087.861-.087 1.379-1.124 2.156-.777-1.986 1.382-1.639 1.124-2.849 3.196-.343.69.518 1.121.953.602-.087.175-.259.259-.259.604-.087.432.518.605.95.259.518-.259.864-.69 1.294-1.123.518 0 1.036-.172 1.642-.344-.604.431-.864.344-1.294.69-.346.26-.346.778-.777 1.21-.346.692.172 1.035.69.776.346-.172.693-.776 1.036-1.036.433-.343 1.729-.602 2.331-1.12.258-.174.778-.174 1.554-.518.864-.864.864-1.642 1.554-2.418 1.642-2.849 2.676-3.454 3.024-4.232-.346-1.814-1.813-2.245-2.418-2.332-.611-.173-2.597-.604-4.496 1.468zM43.375 76.56c-.172 1.813 0 3.454.086 5.268.432.864 1.9 1.294 2.332 1.813.604.604 1.035 2.072 1.382 3.196.602.95.083 1.468 1.121 2.416.174.174-.172.692-.692.692-1.468-.087-1.64-1.294-2.331-3.024-.431 1.211.086 1.554-.258 2.765.95.518 1.554 1.294 1.9 1.813.518.603-.693 1.121-1.294.518-.953.172-.864.518-2.16-.518-.776 0-1.036.258-1.468-.087-1.554-.086-1.123.087-2.332-1.208-.604-.776-.604-1.9-.864-2.678-.172-.346-.172-1.122 0-1.468.432-.953 0-1.554.518-2.507-.258-2.417-.69-4.058-1.208-6.994.951-1.639 4.924-2.934 5.268.003z"/><path fill="#939598" d="M74.203 74.228c.69-.346 1.382-.777 1.726-.95-.172 1.121-1.12.95-1.468 1.554-.086 0-.175 0-.258.084v-.688zm0-1.382v-.345c.518-.175.95-.346 1.382-.518 0 .173-.692.519-1.382.863zm0-1.639v-.175c.172-.085.432-.085.518-.085l-.518.26zm-1.381 3.971c.172-.172.172-.258.259-.518.259 0 .693-.172 1.123-.432v.69c-.519.088-.951.175-1.382.26zm1.381-4.145v.175c-.864.432-1.813.95-2.418 1.208.172-.172.776-.604.95-.776-.172-.087-.518-.172-1.036.258.693-.605.864-.776 1.123-.776.172 0 .172 0 .346.258.258-.173.689-.26 1.035-.347zm0 1.469c-.777.26-1.554.518-2.072.776-.776.432-1.124 1.121-1.211 1.554-.083.518-.432.776-.778.776.518.084.605-.175.694-.258.518-.518.69-1.124 1.379-1.642.259-.172 1.21-.518 1.988-.864v-.342zM40.009 90.549c.346.346.692.605.776.692.433.084.693.084 1.211.084.432.434.776.175 1.468.175 1.294.95 1.294.69 2.16.518-.518-.259-1.212-1.211-2.16-1.9-.518-.777-.432-1.554-.432-2.245-.175.342-.175 1.12-.259 1.727.172.604.603 1.035.603 1.554-.172.086-1.209.086-1.379-.258-.778-1.813-.778-1.641-.864-3.195-.086 1.382-.086.952.431 2.936-.258.259-.95.432-1.294-.259-.432-.69-.603-2.246-.861-2.59-.005.688.6 2.07.6 2.761z"/><path fill="none" stroke="#000" stroke-width=".5" d="M72.822 75.178c.172-.172.172-.258.259-.518.693 0 2.331-1.12 2.849-1.379-.172 1.121-1.12.95-1.468 1.554-.605.171-1.122.258-1.64.343zm-1.124-3.28c.692-.605.864-.777 1.122-.777.172 0 .172 0 .346.259.431-.172 1.208-.431 1.554-.431-1.036.431-2.247 1.208-2.936 1.468.172-.172.776-.604.95-.776-.172-.09-.518-.175-1.036.257zm-.863 3.454c-.087.083-.175.343-.694.258.346 0 .694-.258.778-.777.086-.434.434-1.123 1.21-1.554.861-.435 2.245-.864 3.452-1.295-.085.431-2.935 1.38-3.368 1.727-.686.517-.86 1.122-1.378 1.641zM40.009 90.549c.346.346.692.605.776.692.433.084.693.084 1.211.084.432.434.776.175 1.468.175 1.294.95 1.294.69 2.16.518-.518-.259-1.212-1.211-2.16-1.9-.518-.777-.432-1.554-.432-2.245-.175.342-.175 1.12-.259 1.727.172.604.603 1.035.603 1.554-.172.086-1.209.086-1.379-.258-.778-1.813-.778-1.641-.864-3.195-.086 1.382-.086.952.431 2.936-.258.259-.95.432-1.294-.259-.432-.69-.603-2.246-.861-2.59-.005.688.6 2.07.6 2.761zM58.747 33.731c0 1.813 1.036 4.404 3.195 4.404 1.035 0 2.504.518 3.626.518.258 0 2.504-1.47 2.504-1.813"/><g fill="none" stroke="#000" stroke-width=".5"><path d="M299.491 133.033s.346 4.231.26 3.886l-.087 2.676-2.245.778-2.246-.778.434-5.008c-.088-.346-.26-.69-.26-1.208 0-.693.432-1.211.26-2.072-1.038-6.133-2.851-17.184-3.714-21.156l8.116.087v1.638c-.172 3.714-.345 16.063-.518 17.702v3.455z"/><path d="M303.722 138.13l.26 1.726-.347 1.554.694 2.938-2.334 1.813-1.897-1.813.259-3.025v-1.468l.343-2.331-.173-3.454-1.641-21.501-.26-2.331 8.205.084c.26 1.294.26 2.59-.086 4.144-.433 1.729-3.11 22.281-3.023 23.664z"/><path d="M299.579 134.329s.259 2.936.173 2.59l-.086 2.676-2.246.778-2.246-.778.344-4.232-1.378 5.356 1.554 4.229 1.638.086 2.767-3.28v-4.061l.084-2.16-.604-1.204zM303.982 140.632l-.347.777.693 2.938-2.332 1.812-1.899-1.812.258-3.368-1.382 4.662 1.986 4.058h1.728l2.934-3.798zM306.14 58.426l.692-3.025-.434-1.036h-19.257l-.518 1.036.693 2.507.776 2.675-.346 2.418-1.467 7.687v4.229s-1.642 9.412-1.642 10.276.864 3.021.864 3.021l.172 1.383-.172 3.972-.864-.693-.083-2.934-.78 2.59 1.212 2.934-3.543-2.674-.172-4.061s.95-1.986 1.036-3.626c.172-1.639-1.209-8.03-.604-13.988.604-5.181.519-13.298.693-15.716.083-.776.172-1.638.172-2.504-.776-1.122-2.418-1.986-2.331-3.368.087-1.294 2.591-1.554 2.677-2.849.084-1.208-2.072-1.813-2.248-3.023-.084-.692 1.556-.434 1.642-1.123.172-.604-.691-1.036-.95-1.642-.086-.258-.086-.518.084-.69.346-.346 1.211-.26 1.211-.693 0-.602-1.211-.69-1.295-1.296-.175-.776-.086-1.897.519-2.503.518-.346 1.119.864 1.728.69.862-.343 1.985-1.036 1.898-1.986-.086-.864-2.072-.69-2.247-1.641-.26-1.294.259-2.762 1.211-3.711.691-.693 1.897 0 2.763-.259.692-.258 1.556-.518 1.899-1.122.691-.95.085-2.678 1.038-3.195 2.071-.95 4.576-1.036 6.82-.518.861.174.602 1.9 1.468 2.418.604.346 1.296-.69 1.986-.431 1.295.342 2.766.862 3.544 1.985.431.69-.694 1.554-.52 2.418.173.862 1.121 1.379 1.47 2.157.085.346-.604.693-.346.951.952 1.209 2.85 1.727 3.541 3.109.433.777-.776 1.638-.776 2.589 0 .69.172 1.554.776 1.897.605.346-.085.26.605.087 0 0-.175.69 0 1.294.172 1.554 2.245 2.331 2.504 3.885.172.605-1.728.605-1.556 1.212.605 1.467 2.593 2.072 3.369 3.54.259.518-.519 1.036-.776 1.468l-1.123.518c.258 1.729.435 3.801.604 5.615.259 3.627 1.038 9.066 1.038 9.066l2.416 4.836s2.332 10.276 2.156 12.002c-.082 1.729-.343 7.34-.343 7.34l-1.813 2.936s-1.899 1.121-2.158 1.294c-.172.085-.949-.086-.431-.433.602-.343 1.726-1.294 1.726-1.294l-2.763.951 1.986-1.64-2.246.518 1.638-1.124-.949-.342 1.814-.259v-2.418l.259-2.418s2.072-1.21.691-5.095c-1.38-3.886-4.229-7.34-6.132-11.226-1.471-4.317-2.507-7.771-3.284-10.707l.778-2.241z"/><path d="M302.427 66.803c1.208-2.765 2.505-5.615 3.711-8.376l.692-3.024-1.471-3.54h-.69l1.209-3.108-3.542-2.763-1.121 5.872h-9.326l.088-.172-1.124-6.476-3.8 2.416 1.121 4.579-1.555 3.193.693 2.506c1.209 2.764 4.836 6.304 3.368 8.894-.953 1.639-2.85 11.225-2.85 12.435.084 1.813-2.418 10.19-1.296 16.924 1.208 7.512.084 13.989 1.38 13.989l19.601.259c11.744.086 3.108-18.306 2.158-28.669-.259-2.416-1.728-4.663-2.849-6.907-1.288-2.766-2.93-5.357-4.397-8.032zM292.67 40.033c.864.258 1.382 1.039 2.247 1.211.861.258 1.727.087 2.674 0 .778 0 2.248-.605 2.508-1.036 1.208-1.471 1.208-4.49 1.208-6.736 0-1.729 0-3.801-1.468-4.579-2.765-1.294-7.512-1.208-9.326 1.554-.604 1.036-.258 4.663.174 5.875.084.343 1.465 3.625 1.983 3.711zM316.069 88.562l-.947 2.245-.261 1.901-1.035.777v-.949"/><path d="M314.343 94.434l1.209-2.158-.344-1.727M293.446 40.552c0 1.21-.342 2.676-1.119 3.542-.26.259-1.036 1.468-1.382 1.468M299.579 40.637c.173 1.211.603 2.16.86 3.368.176.776 1.122 2.072 1.814 2.072M282.48 52.987c.26-1.469 1.382-2.765 2.247-3.626.173-.175.777-1.036 1.119-1.036.176 0 1.04-.604 1.212-.693"/></g><g fill="none" stroke="#000" stroke-width=".5"><path d="M329.456 271.54c0 1.119-.088 2.59-.088 4.058 0 2.331-1.294 2.331-2.417 3.369-2.764 2.506-5.44-1.379-7.338-2.073-.26 0-.346.086-.518.086-1.036 0-2.332-3.108-.693-3.712.087.175.26.258.518.431 0-.69 1.123-2.245.953-2.416-.52-.518.431-1.987.431-2.676 0-.431.434-.347.52-.604.085-.519 1.294-1.296 1.554-1.296.431 0 2.677-.084 2.677 0 .52.952 3.281-.602 3.281 1.123 0 .777.519.95.863 1.555.087.259.261.951.261 1.471l-.004.684z"/><path d="M318.92 273.697c-.603-.342-.603-.518-.603-1.294 0-.602.174-1.468.174-2.072 0-.432-.174-1.728.431-1.728 0-.776-.082-1.122.346-1.641.174-.084.346-.603.432-.69.177-.173.604-.346.777-.519.261-.259.347-.69.864-.69.174 0 .259-.26.434-.346.173-.087 1.121-.173 1.379-.087.434 0 .864-.258 1.296-.258.604 0 .776.345 1.381.345.691 0 .605.086 1.036.346.174 0 .691.172.691.343 0 .175.52.604.604.604l.432.777c.346.259.518.604.518 1.122 0 .173.348.433.348.778 0 .084-.089.602 0 .69.171.346.343.69.343 1.208 0 .435-.258.864-.258 1.122 0-.518-.176-1.899-.346-2.33-.345-.604-.863-.778-.863-1.555 0-1.728-2.762-.173-3.281-1.123 0-.084-2.248 0-2.677 0-.26 0-1.469.777-1.554 1.296-.086.258-.52.176-.52.604 0 .691-.95 2.158-.431 2.677.17.177-.953 1.732-.953 2.421zM319.438 276.98c.604 1.037.175 4.146 1.035 5.009.52.432 1.297 1.119 1.554 1.726.436.864.348 1.814.695 2.505.95 0 2.503-1.467 3.367-1.897.691-.345 1.813-1.47 1.813-2.331-.26 0-.518-.086-.776-.259-.346-.176-.346-1.641-.346-2.677-2.678 2.245-5.355-1.467-7.168-2.159h-.087l-.087.083z"/><path d="M319.438 277.068c-.343 0-1.814.688-2.073 1.034-.518.863-2.85 1.209-3.626 1.986-1.467 1.468-2.071 3.195-3.022 5.008-.604 1.38-1.988 3.713-1.988 5.006-.26.261-.519.778-.69 1.038-.172.344.259.517.345.692.26.518.084 1.468.432 1.813.604.518 1.123-.172 1.73-.605l.172-.172h.086c.174-.086.26-.086.433-.175h.086l.86-.085c.606-.085 1.297-.175 1.729 0 .085 0 .174.085.261.085.171.086.258.26.341.345.346.433.694.95 1.472.605 1.209-.693 4.578 1.467 4.059 1.986-.259.258-1.296 0-1.208 0 .859 0 2.674 1.554.688 1.554l-1.899-1.037 2.16 1.213.087.083.083.087c.087 0 .087.259 0 .345h-.083c0 .172-.605.085-.778.085-.086 0-.604-.085-.604-.085-.519 0-1.036-.345-1.47-.78.174.52.434.436.862.605.175.086.692.175.692.345 0 .777-.692.604-1.121.433-.26-.085-.519-.085-.778-.261-.172-.082-.345-.517-.432-.688l.172.258c0 .259.52.52.778.602.172.176.172.604-.174.604-.433 0-.345 0-.604-.259-.258-.258-.604-.431-.949-.691-.175-.085-.435-.258-.604-.345-.172-.087-.346-.172-.519-.259-.258-.174-.432-.346-.689-.519-.175 1.295-.175 2.678-.175 3.628 0 .776-.346 2.247-.433 3.106-.346 2.074.604 3.714-.087 5.876 1.471-1.123 6.735-3.974 8.723-3.974 1.986 0 3.541.26 5.441.865.689.259 3.367 1.637 3.798 1.637.346-.95.777-1.984 1.038-2.85.085-.431.434-.859.434-1.294 0-.172-.088-.949-.088-.949-.086-.175-.172-.435-.258-.604-.085 0-.175-.174-.175-.26-.174-.084-.344-.432-.432-.603-.174-.175-.259-.345-.259-.52v-.603l.259-.26c-.692.173-1.381.173-1.899-.175-2.074-1.036.776-.776 1.641-.776-.434 0-2.677.175-2.677-.344 0-.175 0-.345.085-.517.088-.176.431-.089.604-.089.602-.082 1.554.174 1.554 0 .087-.172-1.813.261-2.416-.082-.088-.088.085-.175 0-.263-.088-.083.085-.432.085-.432h1.379c-.341-.174-1.813.172-1.813-.432 0-.086.088-.434.175-.434.084 0 .344-.085.344-.085 0-.086.692-.086.862-.086.089 0 .692-.518.777-.603 0-.087-.173-.174-.258-.261l-.26-.259s-.345-.344-.433-.259c-.086.085-.176.175-.258.259-.175.176-.435.176-.694.176-.258 0-.69.083-.69-.26 0-.345.433-.518.604-.777.084-.086.432-.519.52-.519.258-.087.431-.174.688-.174.26 0 .52.258.778.346.519 0 .776.604 1.037.949.259.175 1.121-.085 1.208 0 .518.259.604.259 1.211.259.088 0 .95.776 1.036.862.346.26.346.26.346.606.519-.176.691-2.851.344-3.025-1.638-.776-.861-2.763-.861-4.836 0-.95-.435-1.122-.435-1.641 0-.69-.861-.777-1.467-.861-.52-.086-.604-.693-.952-1.036-.433-.518-1.037-.952-1.037-1.382l.087-.086v-.084h.085c.085 0 0-.176 0-.176s.085 0 .085-.083v-.174h.085c0-.083.087-.171.087-.171-.863.086-1.382-1.47-1.899-1.9 0 0-.173-.518-.259-.603-.433-.604-1.122-1.641-1.988-1.641l-.084.086c0 .95 0 2.416.346 2.592.259.172.518.259.776.259 0 .861-1.122 1.985-1.813 2.33-.863.434-2.417 1.897-3.368 1.897-.344-.69-.259-1.638-.693-2.504-.258-.604-1.035-1.295-1.555-1.729-.776-.86-.517-3.627-.949-4.836l-.074-.072z"/><path d="M310.112 293.475l.604-.605.604-.175 1.813-.172.777.085c.602 0 .862 1.639 2.073 1.037 1.209-.692 4.578 1.467 4.059 1.986-.259.258-1.296 0-1.208 0 .859 0 2.674 1.554.688 1.554l-1.899-1.037 2.16 1.213.087.083.083.087c.087 0 .087.259 0 .345h-.083c0 .172-.605.085-.778.085-.086 0-.604-.085-.604-.085-.519 0-1.036-.345-1.47-.78.174.521.434.436.862.605.175.086.692.175.692.345 0 .777-.692.604-1.121.434-.26-.085-.519-.085-.778-.262-.172-.082-.345-.517-.432-.688l.172.258c0 .259.52.52.778.603.172.176.172.604-.174.604-.433 0-.345 0-.604-.258-.258-.259-.604-.431-.949-.691-.175-.085-.435-.259-.604-.345-.172-.088-.346-.173-.519-.26-1.638-1.204-3.019-2.5-4.229-3.966zM334.982 296.755c0-.347 0-.347-.346-.606-.085-.083-.948-.86-1.036-.86-.604 0-.691 0-1.208-.258-.088-.088-.952.172-1.211 0-.261-.346-.519-.952-1.037-.952-.259-.085-.519-.344-.778-.344-.258 0-.431.082-.688.172-.088 0-.435.433-.52.519-.174.26-.604.433-.604.777s.435.26.693.26c.26 0 .519 0 .691-.174.085-.086.172-.176.258-.258.088-.088.433.258.433.258l.26.259c.085.085.258.172.258.261-.084.083-.688.601-.777.601-.173 0-.86 0-.86.086 0 0-.26.088-.346.088-.085 0-.172.342-.172.431 0 .604 1.469.258 1.813.432h-1.382s-.173.346-.085.435c.085.085-.085.172 0 .26.604.343 2.506-.088 2.416.082 0 .176-.949-.082-1.554 0-.174 0-.517-.082-.604.089-.083.172-.083.345-.083.517 0 .519 2.244.346 2.675.346-.862 0-3.713-.26-1.64.776 1.893.947 5.434-1.126 5.434-3.197z"/><path d="M314.515 281.814c.606 1.296-.431 4.58-.431 6.047 0 1.726.258 3.192.258 5.094M330.578 289.932v4.231M330.319 307.893c-.604 1.813-1.381 3.455-2.766 4.664-.691.604-1.64 1.036-2.158 2.072-.085.258-.861.693.086.952 1.471.431 2.677 1.208 3.108 2.675.176.604.434 1.122 1.122 1.381 1.209.52 2.505 1.556 3.456 3.194.172.26.859.434.948.777 0 .173.088.26.26.344.259.086 1.036-.174 1.47-.084.173 0 .691.344.691.433.173.172.344.085.344.431 0 .693 0 1.037-.259 1.47 0 1.555-4.489 8.03-6.391 6.132-.433-.518-.173-2.333-.865-2.677-.343-.084-.688-.776-1.119-.95-1.211-.604-2.418-2.245-3.625-3.108 0 .777.688 3.972 1.207 4.491 1.209 1.207-1.122 3.712.347 5.267.602.602.86 1.727 1.208 2.504.173.346.083 1.296.083 1.813-.689.261-1.378.777-2.071 1.383-1.296 1.119-2.591 1.467-3.8 1.035-.776-.257-1.469-.257-2.158-.433-.691-.173-.776-.777-.691-1.727.26-5.269-.519-10.45-1.986-15.199-1.639-5.265-2.506-10.533-2.935-15.714 2.072-1.295 6.217-3.454 7.856-3.454 1.987 0 3.541.26 5.441.865.518.172 1.896.859 2.936 1.294l.261.169z"/><path d="M320.907 307.287c-1.47 1.9-3.284 4.839-4.062 7.688-.432 1.294-.859 2.59-.432 3.885.777 2.418 2.419 2.333 3.8 3.627.435.519 2.508 1.469 3.026 1.729.342.173 1.119 1.38 1.208 1.38M336.623 326.284l.086-.084c.345.861 1.641 1.121 1.641 1.987 0 .951 0 1.122-.26 1.9-.174.602-.776 1.207-1.122 1.726-.433.69-.259 1.381-.519 1.989-.69 1.378-3.194 3.97-5.008 3.97-1.296 0-.691-1.469-.691-2.157 0-1.121-.259-2.247-.173-3.111 1.987 1.036 5.96-4.751 6.046-6.22zM317.711 347.355c1.209.087 3.023-.95 4.06-1.296.862-.343 1.641-1.555 2.247-2.415.172-.176.69-.258 1.036-.434.69-.344 1.986-.861 2.504-.861.952 0-.172-2.072-.26-2.678-.602.261-1.294.777-1.896 1.383-1.297 1.119-2.594 1.467-3.802 1.035-.776-.258-1.382-.258-2.073-.434-.345.604-1.121.953-1.64 1.47-.691.691-1.469 1.296-1.469 2.504 0 .52.174.691.346 1.037.083.169.86.689.947.689z"/></g><g stroke="#000" stroke-width=".5"><path fill="#939598" d="M-14.912 271.54c0 1.119-.083 2.59-.083 4.058 0 2.331-1.295 2.331-2.418 3.369-2.763 2.506-5.44-1.379-7.429-2.073-.172 0-.258.086-.518.086-1.036 0-2.245-3.108-.602-3.712.084.175.259.258.431.431.086-.69 1.208-2.245 1.036-2.416-.518-.518.433-1.987.433-2.676 0-.431.345-.347.432-.604.172-.519 1.381-1.296 1.554-1.296.518 0 2.764-.084 2.764 0 .433.952 3.283-.602 3.283 1.123 0 .777.518.95.776 1.555.172.259.258.951.343 1.471v.686h-.002z"/><path fill="#939598" d="M-25.532 273.697c-.518-.342-.518-.518-.518-1.294 0-.602.087-1.468.087-2.072 0-.432-.087-1.728.431-1.728 0-.776 0-1.122.432-1.641.087-.084.346-.603.434-.69.172-.173.604-.346.776-.519.172-.259.343-.69.776-.69.259 0 .344-.26.432-.346.258-.087 1.122-.173 1.382-.087.518 0 .864-.258 1.382-.258.603 0 .776.345 1.379.345.693 0 .604.086 1.035.346.087 0 .694.172.694.343 0 .175.431.604.602.604l.435.777c.258.259.518.604.518 1.122 0 .173.258.433.258.778v.69c.172.346.343.69.343 1.208 0 .435-.172.864-.172 1.122 0-.518-.172-1.899-.432-2.33-.258-.604-.776-.778-.776-1.555 0-1.728-2.85-.173-3.283-1.123 0-.084-2.246 0-2.764 0-.175 0-1.382.777-1.554 1.296-.086.258-.433.176-.433.604 0 .691-.95 2.158-.432 2.677.176.177-.947 1.732-1.032 2.421zM-24.927 276.98c.518 1.037.172 4.146.949 5.009.518.432 1.296 1.119 1.642 1.726.346.864.346 1.814.69 2.505.951 0 2.507-1.467 3.283-1.897.776-.345 1.813-1.47 1.813-2.331-.258 0-.518-.086-.693-.259-.432-.176-.343-1.641-.343-2.677-2.676 2.245-5.355-1.467-7.255-2.159h-.084l-.002.083z"/><path fill="#939598" d="M-24.927 277.068c-.346 0-1.9.688-2.072 1.034-.604.863-2.849 1.209-3.626 1.986-1.47 1.468-2.072 3.195-3.024 5.008-.69 1.38-1.985 3.713-1.985 5.006-.26.261-.518.778-.69 1.038-.175.344.259.517.343.692.259.518.086 1.468.435 1.813.602.518 1.12-.172 1.727-.605l.172-.172h.087c.086-.086.259-.086.432-.175l.952-.085c.602-.085 1.208-.175 1.727 0 .086 0 .172.085.258.085l.346.345c.259.433.69.95 1.38.605 1.294-.693 4.665 1.467 4.061 1.986-.258.258-1.211 0-1.211 0 .953 0 2.765 1.554.693 1.554l-1.813-1.037 2.072 1.213c.086.083.172.083.172.083s0 .087.087.087v.345h-.087c-.083.172-.602.085-.776.085-.083 0-.602-.085-.602-.085-.604 0-1.036-.345-1.471-.78.086.52.435.436.864.605.084.086.604.175.604.345 0 .777-.604.604-1.039.433-.26-.085-.603-.085-.776-.261-.172-.082-.343-.517-.432-.688l.086.258c0 .259.603.52.776.602.172.176.172.604-.086.604-.432 0-.346 0-.605-.259-.259-.258-.69-.431-1.035-.691-.172-.085-.343-.258-.518-.345l-.518-.259c-.258-.174-.518-.346-.69-.519a29.865 29.865 0 0 0-.259 3.628c0 .776-.259 2.247-.431 3.106-.259 2.074.69 3.714-.087 5.876 1.554-1.123 6.822-3.974 8.808-3.974 1.987 0 3.542.26 5.355.865.776.259 3.453 1.637 3.798 1.637.346-.95.777-1.984 1.124-2.85.085-.431.432-.859.432-1.294 0-.172-.172-.949-.172-.949a.92.92 0 0 0-.26-.604s-.086-.174-.174-.26c-.084-.084-.259-.432-.431-.603-.086-.175-.172-.345-.172-.52v-.603l.259-.26c-.692.173-1.383.173-1.9-.175-2.072-1.036.777-.776 1.641-.776-.433 0-2.678.175-2.678-.344 0-.175 0-.345.087-.517.083-.176.432-.089.602-.089.518-.082 1.471.174 1.554 0 .086-.172-1.814.261-2.416-.082-.086-.088.084-.175 0-.263-.086-.083 0-.432.084-.432h1.294c-.343-.174-1.727.172-1.727-.432 0-.086.087-.434.172-.434.087 0 .346-.085.346-.085 0-.086.69-.086.776-.086.172 0 .776-.518.864-.603 0-.087-.258-.174-.258-.261l-.258-.259c-.086 0-.346-.344-.518-.259 0 .085-.086.175-.175.259-.172.176-.432.176-.69.176-.259 0-.776.083-.776-.26 0-.345.431-.605.69-.777.087-.086.434-.519.434-.519.259-.087.518-.174.777-.174.258 0 .432.258.69.346.605 0 .864.604 1.124.949.26.175 1.036-.085 1.208 0 .518.259.518.259 1.208.259 0 0 .864.776 1.036.862.258.26.346.26.346.606.518-.176.605-2.851.346-3.025-1.729-.776-.864-2.763-.864-4.836 0-.95-.432-1.122-.432-1.641 0-.69-.951-.777-1.554-.861-.518-.086-.518-.693-.864-1.036-.431-.518-1.035-.952-1.035-1.382l.086-.086v-.084c.085 0 .085-.176.085-.176s.086 0 .086-.083v-.257l.087-.086c-.776.086-1.382-1.468-1.813-1.899 0 0-.258-.519-.258-.602-.434-.605-1.124-1.642-1.988-1.642l-.084.087c0 .949-.086 2.414.343 2.59.175.173.435.259.693.259 0 .861-1.036 1.986-1.813 2.331-.776.433-2.332 1.897-3.283 1.897-.343-.69-.343-1.639-.69-2.505-.346-.604-1.123-1.294-1.642-1.726-.776-.863-.431-3.629-.861-4.839l-.09-.074z"/><path fill="#939598" d="M-34.341 293.475l.69-.605.518-.175 1.813-.172.778.085c.693 0 .864 1.639 2.071 1.037 1.294-.692 4.663 1.467 4.061 1.986-.258.258-1.21 0-1.21 0 .952 0 2.765 1.554.692 1.554l-1.813-1.037 2.072 1.213c.083.083.172.083.172.083s0 .087.087.087v.345h-.087c-.086.172-.604.085-.776.085-.086 0-.604-.085-.604-.085-.602 0-1.036-.345-1.468-.78.086.521.432.436.864.605.083.086.602.175.602.345 0 .777-.602.605-1.036.434-.26-.085-.603-.085-.776-.262-.172-.082-.343-.517-.432-.688l.086.258c0 .259.603.52.776.603.172.176.172.604-.086.604-.432 0-.346 0-.605-.258-.259-.259-.69-.431-1.035-.691-.172-.085-.343-.259-.518-.345-.172-.088-.343-.173-.518-.26-1.639-1.204-3.108-2.5-4.318-3.966zM-9.385 296.755c0-.347-.086-.347-.346-.606-.172-.083-1.036-.86-1.036-.86-.69 0-.69 0-1.208-.258-.172-.088-.949.172-1.208 0-.259-.346-.518-.952-1.124-.952-.258-.085-.431-.344-.69-.344s-.518.082-.776.172c0 0-.346.433-.435.519-.258.172-.69.433-.69.777s.518.26.776.26.518 0 .69-.174c.087-.086.174-.176.174-.258.172-.088.432.258.518.258l.259.259c0 .085.258.172.258.261-.087.083-.693.601-.864.601-.086 0-.777 0-.777.086 0 0-.258.088-.346.088-.083 0-.172.342-.172.431 0 .604 1.382.258 1.726.432h-1.294c-.083 0-.172.346-.083.435.083.085-.086.172 0 .26.602.343 2.503-.088 2.416.082-.085.176-1.036-.082-1.554 0-.172 0-.518-.082-.602.089-.087.172-.087.345-.087.517 0 .519 2.246.346 2.678.346-.864 0-3.712-.26-1.64.776 1.898.947 5.437-1.126 5.437-3.197z"/><path fill="none" d="M-29.849 281.814c.602 1.296-.518 4.58-.518 6.047 0 1.726.343 3.192.343 5.094M-13.788 289.932v4.231"/><path fill="#939598" d="M-14.047 307.893c-.69 1.813-1.382 3.455-2.763 4.664-.694.604-1.729 1.036-2.16 2.072-.172.258-.864.693.086.952 1.468.431 2.675 1.208 3.108 2.675.172.604.344 1.122 1.12 1.381 1.21.52 2.418 1.556 3.368 3.194.175.26.864.434.951.777a1.1 1.1 0 0 0 .26.344c.258.086 1.121-.174 1.554-.084.172 0 .602.344.69.433.087.172.346.085.346.431 0 .693 0 1.037-.259 1.47 0 1.555-4.49 8.03-6.392 6.132-.431-.518-.259-2.333-.95-2.677-.258-.084-.69-.776-1.035-.95-1.296-.604-2.418-2.245-3.714-3.108 0 .777.776 3.972 1.296 4.491 1.122 1.207-1.208 3.712.346 5.267.604.602.776 1.727 1.124 2.504.172.346.083 1.296.083 1.813-.69.261-1.379.777-2.072 1.383-1.208 1.119-2.504 1.467-3.798 1.035-.776-.257-1.382-.257-2.072-.433-.776-.173-.776-.777-.693-1.727.258-5.269-.518-10.45-1.986-15.286-1.642-5.18-2.504-10.448-3.022-15.63 2.156-1.294 6.217-3.454 7.944-3.454 1.986 0 3.542.26 5.355.865.518.173 1.986.86 2.935 1.295l.35.171z"/><path fill="none" d="M-23.459 307.287c-1.554 1.9-3.28 4.839-4.144 7.688-.346 1.294-.777 2.59-.432 3.885.861 2.418 2.504 2.333 3.8 3.627.518.519 2.507 1.469 3.024 1.729.431.173 1.208 1.38 1.295 1.38"/><path fill="#939598" d="M-7.744 326.284l.084-.084c.346.861 1.642 1.121 1.642 1.987 0 .951-.086 1.122-.346 1.9-.172.602-.69 1.207-1.036 1.726-.518.69-.26 1.381-.602 1.989-.605 1.378-3.109 3.97-4.922 3.97-1.296 0-.693-1.469-.693-2.157 0-1.121-.258-2.247-.258-3.111 2.072 1.036 6.045-4.751 6.131-6.22zM-26.741 347.355c1.294.087 3.108-.95 4.145-1.296.861-.343 1.642-1.555 2.245-2.415.174-.176.692-.258 1.036-.434.692-.344 1.9-.861 2.506-.861.949 0-.175-2.072-.258-2.678-.693.261-1.296.777-1.989 1.383-1.208 1.119-2.504 1.467-3.798 1.035-.693-.258-1.294-.258-1.989-.434-.432.604-1.208.953-1.638 1.47-.694.691-1.47 1.296-1.47 2.504 0 .52.174.691.346 1.037 0 .169.864.689.864.689z"/></g><g fill="none" stroke="#000" stroke-width=".5"><path d="M105.721 271.712c-.952 0-.604-2.158-.346-3.713.346-.432 1.036-1.897.432-2.415.518-2.418 3.194-3.803 5.958-3.626.521 0 1.035-.088 1.557-.088 1.986 0 4.058 2.158 4.576 4.146-1.382.26-.431 1.813.087 2.332-.087.517-.087.95-.26 1.295-1.122 2.246-1.469-1.21-1.813-1.813-.175-.432.084-1.035 0-1.469-.175-.951-.776-1.641-2.072-1.641-.604 0-1.382.087-2.072.087-.518 0-1.038-.259-1.382-.087-.346.174-.692.087-1.036.174a4.482 4.482 0 0 0-1.554.776c-.259.26-.693.435-.777.862-.174.693.259 2.42-.346 2.678l-.952 2.502z"/><path d="M105.376 268.086c.432-.519 1.294-2.677-.086-2.677-2.764 0-2.764 2.072-3.193 4.662-.175 1.296.172 1.73 0 2.678-.435 2.591-1.642 2.071-3.108 1.122.172.344 1.379 1.986 1.727 1.986 1.124 0 1.986.086 2.59-.861.518-.864 1.642-2.159 1.642-3.194-.004-.608-.004-3.716.428-3.716zM122.99 276.202c-2.157 0-4.488 1.122-4.488-2.072 0-1.381.344-4.837-.518-5.7-.433-.433-1.554-2.156-.087-2.416 1.986-1.122 4.404 3.021 3.282 5.698-.26.691-.518 2.072.174 2.763.429.432.775 1.814 1.637 1.727z"/><path d="M117.378 270.245v-.087c-.864.949-1.124-1.813-1.468-2.331-.175-.432.083-1.036 0-1.47-.175-.95-.777-1.64-2.072-1.64-.604 0-1.382.086-2.075.086-.518 0-1.036-.259-1.379-.086-.346.174-.693.086-1.036.174a4.44 4.44 0 0 0-1.554.776c-.258.259-.693.434-.776.862-.175.692.258 2.419-.346 2.678l-.95 2.504v.777c0 .345.259.864.343 1.122 0 .084.175.26.259.433l.174.086c.172.087.344.087.432.087.258.776 1.122 2.505 2.504 2.933.433.088.693.52 1.123.694 1.124.343 2.159.173 3.542-.776 1.036-.694 1.639-3.286 2.934-3.286.258 0 .346-.344.518-.517.345-.433.258-1.037.258-1.642 0-.083.086-1.119 0-1.119-.257-.258.087-.345-.431-.258z"/><path d="M113.492 282.161c0-1.036.172-1.64.776-2.245.603-.519 1.813-1.384 1.813-2.247-.518 0 .172-2.852.172-3.542-.776.69-1.294 2.416-2.16 2.938-1.379.95-2.416 1.12-3.54.776-.432-.175-.69-.604-1.123-.693-.172-.083-.343-.173-.432-.173-.604 1.21 1.124 2.851 1.642 3.368 0 0 .432.603.518.603.606.006 2.076.609 2.334 1.215z"/><path d="M108.915 276.807h-.518c-.343 0-1.121.603-1.208.949-.086.434 0 1.124 0 1.642-.864.432-1.986 1.036-3.022 2.245-.604.604-1.471 1.382-1.382 2.591 0 2.245.346 4.404.346 6.563.172 1.208.258 3.021 1.036 4.06.343.516.602 1.21 1.036 1.553.26.26 1.639.176 2.072.176.69.689.69 3.022.432 3.886-.259.95-.432 1.555-.432 2.59 0 .949.432 1.814.432 2.675.258-.083.776-1.121 1.035-1.554 2.85-3.8 8.03 3.284 10.103 1.21 1.9-1.899 5.356-2.07 7.946-2.07 0 0-.346-1.296-.433-1.384-.432-.776-1.295-1.985-1.295-2.849 0-2.33-2.416-3.973-2.416-6.651.172.262.861 1.039 1.121 1.039 1.554 0 2.072-.518 2.678-1.642.258-.692.346-1.813.346-2.59 0 0-.174-.52-.174-.604-.084 0-.518-1.122-.602-1.21-.086-.516-.433-.951-.864-1.294-.172-.175-.864-.436-.864-.605 0-3.54-.69-7.6-5.006-7.6-.086 0-.175-.431-.258-.431-.346 0-.518-.086-.693-.086-.343-.172-.861-1.295-1.121-1.554-.175-.173-.864-.26-1.124-.26l-.086.087c-.083 1.036-.258 1.986.086 1.986 0 .861-1.208 1.729-1.813 2.247-.605.603-.776 1.209-.776 2.245-.258-.605-1.727-1.209-2.332-1.209-.086 0-.518-.604-.518-.604-.518-.519-2.159-2.158-1.642-3.368l-.09-.179z"/><path d="M107.448 289.415c.26.689.776 1.727 1.554 1.727s.95-.691.95.259c0 1.123-.861 2.159-1.208 3.194-.259.605-.604 1.899-1.295 1.899M121.954 289.76c0 .084 0 .259.086.342.087.088.172.435.26.604v.174c.086.087.172.434.172.518 0 .346.175 1.124.346 1.296"/><path d="M112.456 286.046c.172-.69-2.507-.432-2.85-.346-2.936.605-2.247 2.592-1.729 4.75.174.604 1.036.777 1.47.691.431-.172.69-.518.776-.776.085-.085.603-.085.776-.085 0 0 .259-.176.172-.26h-.258c-.864 0 .604 0 .776-.086.864-.95-.604-.862-1.208-.862-.086 0 1.208 0 1.813-.258.432-.087.432-.605-.086-.605H110.9c-.174 0-1.21-.086-.434-.086.693 0 2.418.52 2.418-.518-.172-.259-.431-.344-.69-.431-.346-.087-.776-.087-1.211-.087-.172 0-.432-.087-.603-.087-.174 0-.086-.174-.086-.259 0-.172 1.294 0 1.468-.085.261-.09.694-.61.694-.61z"/><path d="M107.879 289.415c0 .173.346.431.435.604.083.083.776.344.95.344h.948M122.646 292.524c-.433-.777-.604-1.642-.693-2.505M124.978 288.983c.172.777.258 1.813-.864 1.813-.776 0-1.554-.777-1.554-1.472 0-.948-.69-.082-1.036-.516-.518-.52-.346-.604.432-.604h-.776c-.518 0-1.036-.343-.603-.777.172-.085 1.813 0 1.728 0h-.778c-.258 0-.605-.085-.95-.085-.776 0-.518-.086-.518-.604 0-.343 1.295-.259 1.468-.259h.518c.346 0-2.072.174-2.072-.173 0-.95.69-.863 1.468-.863s.864-.862-.432-.431c-1.036.344-1.122-.174-1.641-.778 1.036.085 1.554-.605 2.59-.605.777 0 1.813 1.212 2.072 1.73.259.517.948 3.451.948 3.624zM108.052 305.389c0 1.468.26 3.281.26 4.487 0 1.814-1.036 2.248-1.036 3.89 0 1.467.26 2.589.26 3.799 0 1.036-1.212 1.554-1.212 3.108l-.084 3.541c1.379 1.211 2.934 2.158 4.748 2.766.433-.864.952-1.641 1.47-2.507.518-.776 1.382-1.554 1.467-2.504 0-.691.175-1.47.693-2.072.861-1.124 1.639-1.296 1.639-3.542 0-.776-.776-1.987-.602-2.506.431-.69.95-2.158.95-3.022 1.035 2.504-.172 6.391 1.727 8.29.776.777.258 2.763.258 3.8 0 1.554.693 2.158.693 3.543.172 1.119.776 2.415.776 3.627 0 2.072.603 4.404.603 6.302 0 .862-.518 4.404.086 4.665 1.294-.694 2.678-.436 4.317-.436.952 0 4.404-1.637 4.404-2.763 0-.604.346-1.036-.172-1.469-.26-.345-.69-.604-.69-1.121-.174-.777-.174-1.727-.174-2.677 0-1.297-1.639-2.764-1.639-4.404l-.258-15.284c0-2.073-.433-3.454-.864-5.268-.344-1.381-.344-2.936-.604-4.316-2.245.171-4.747.602-6.216 2.07-2.072 2.074-7.253-5.008-10.103-1.21-.177.262-.437.779-.697 1.213z"/><path d="M106.412 324.386c-.258 1.38-1.382 2.764-.518 4.488.776 1.471 1.9 1.641 3.454 1.898 2.504.519 3.022-2.244 1.727-3.538-.086-.088-.086-.177-.086-.26-1.727-.602-3.281-1.466-4.577-2.588zM120.917 340.965c0 1.555-1.554 3.022-1.554 4.578 0 2.33 5.009 2.416 6.045.346.604-1.296 1.208-1.728 1.208-3.454 0-.691-.172-1.47-.431-2.157-.432.172-.864.342-1.124.342-1.467 0-2.762-.172-3.97.261l-.174.084z"/></g><g stroke="#000" stroke-width=".5"><path fill="#939598" d="M215.06 271.712c-.95 0-.692-2.158-.346-3.713.346-.432 1.035-1.897.434-2.415.433-2.418 3.193-3.803 5.872-3.626.605 0 1.122-.088 1.641-.088 1.897 0 4.058 2.158 4.49 4.146-1.299.26-.346 1.813.085 2.332 0 .517-.085.95-.26 1.295-1.036 2.246-1.38-1.21-1.728-1.813-.175-.432.085-1.035 0-1.469-.175-.951-.776-1.641-2.071-1.641-.606 0-1.383.087-2.159.087-.434 0-.95-.259-1.384-.087-.341.174-.688.087-.949.174a4.523 4.523 0 0 0-1.555.776c-.258.26-.688.435-.776.862-.258.693.26 2.42-.432 2.678l-.862 2.502z"/><path fill="#939598" d="M214.715 268.086c.346-.519 1.295-2.677-.084-2.677-2.85 0-2.767 2.072-3.194 4.662-.259 1.296.172 1.73 0 2.678-.433 2.591-1.728 2.071-3.108 1.122.172.344 1.381 1.986 1.727 1.986 1.123 0 1.899.086 2.506-.861.603-.864 1.639-2.159 1.639-3.194-.005-.608.082-3.716.514-3.716zM232.243 276.202c-2.072 0-4.403 1.122-4.403-2.072 0-1.381.343-4.837-.519-5.7-.434-.433-1.555-2.156-.085-2.416 1.988-1.122 4.402 3.021 3.284 5.698-.261.691-.52 2.072.082 2.763.434.432.864 1.814 1.641 1.727z"/><path fill="#939598" d="M226.717 270.245l-.086-.087c-.778.949-1.12-1.813-1.38-2.331-.175-.432.085-1.036 0-1.47-.175-.95-.776-1.64-2.07-1.64-.607 0-1.384.086-2.16.086-.433 0-.95-.259-1.383-.086-.341.174-.689.086-.95.174a4.474 4.474 0 0 0-1.554.776c-.259.259-.689.434-.776.862-.259.692.26 2.419-.433 2.678l-.862 2.504v.777c0 .345.174.864.259 1.122.086.084.26.26.26.433l.259.086c.085.087.259.087.431.087.259.776 1.124 2.505 2.417 2.933.52.088.777.52 1.211.694 1.122.343 2.158.173 3.541-.776 1.038-.694 1.556-3.286 2.937-3.286.259 0 .343-.344.432-.517.345-.433.345-1.037.345-1.642 0-.083.086-1.119 0-1.119-.264-.258.081-.345-.438-.258z"/><path fill="#939598" d="M222.832 282.161c0-1.036.172-1.64.776-2.245.604-.519 1.813-1.384 1.813-2.247-.518 0 .087-2.852.173-3.542-.86.69-1.38 2.416-2.157 2.938-1.381.95-2.417 1.12-3.541.776-.434-.175-.692-.604-1.211-.693-.085-.083-.258-.173-.344-.173-.603 1.21 1.121 2.851 1.639 3.368 0 0 .433.603.52.603.605.006 2.071.609 2.332 1.215z"/><path fill="#939598" d="M218.168 276.807h-.518c-.259 0-1.036.603-1.123.949-.173.434-.083 1.124-.083 1.642-.863.432-1.988 1.036-2.936 2.245-.605.604-1.469 1.382-1.469 2.591.084 2.245.344 4.404.344 6.563.257 1.208.257 3.021 1.122 4.06.345.516.604 1.21.95 1.553.259.26 1.729.176 2.158.176.69.689.604 3.022.345 3.886-.259.95-.345 1.555-.345 2.59 0 .949.345 1.814.345 2.675.26-.083.861-1.121 1.119-1.554 2.851-3.8 7.947 3.284 10.104 1.21 1.814-1.899 5.356-2.07 7.946-2.07 0 0-.433-1.296-.518-1.384-.434-.776-1.21-1.985-1.21-2.849 0-2.33-2.418-3.973-2.418-6.651.085.262.864 1.039 1.121 1.039 1.469 0 1.987-.518 2.592-1.642.343-.692.343-1.813.343-2.59 0 0-.084-.52-.172-.604 0 0-.519-1.122-.519-1.21-.086-.516-.518-.951-.863-1.294-.173-.175-.95-.436-.95-.605 0-3.54-.604-7.6-5.008-7.6l-.174-.431c-.345 0-.604-.086-.776-.086-.26-.172-.864-1.295-1.122-1.554-.087-.173-.778-.26-1.036-.26l-.087.087c-.173 1.036-.259 1.986.087 1.986 0 .861-1.21 1.729-1.814 2.247-.604.603-.776 1.209-.776 2.245-.261-.605-1.728-1.209-2.332-1.209-.087 0-.519-.604-.519-.604-.519-.519-2.158-2.158-1.728-3.368l-.08-.179z"/><path fill="none" d="M216.788 289.415c.258.689.776 1.727 1.554 1.727.691 0 .862-.691.862.259 0 1.123-.776 2.159-1.208 3.194-.26.605-.52 1.899-1.296 1.899M231.296 289.76v.342c.171.088.258.435.258.604 0 .088.084.174.084.174 0 .087.176.434.176.518 0 .346.084 1.124.259 1.296"/><path fill="#939598" d="M221.795 286.046c.173-.69-2.503-.432-2.937-.346-2.849.605-2.155 2.592-1.638 4.75.084.604.95.777 1.467.691.346-.172.691-.518.777-.776 0-.085.605-.085.692-.085s.346-.176.258-.26h-.258c-.86 0 .604 0 .693-.086.949-.95-.518-.862-1.122-.862-.089 0 1.207 0 1.812-.258.435-.087.346-.605-.084-.605h-1.297c-.084 0-1.121-.086-.431-.086.689 0 2.506.52 2.506-.518-.175-.259-.435-.344-.694-.431-.344-.087-.862-.087-1.207-.087-.26 0-.435-.087-.604-.087-.174 0-.174-.174-.174-.259 0-.172 1.296 0 1.555-.085.167-.09.6-.61.686-.61z"/><path fill="none" d="M217.131 289.415c.088.173.434.431.434.604.086.083.863.344 1.036.344h.863M231.984 292.524c-.432-.777-.69-1.642-.69-2.505"/><path fill="#939598" d="M234.316 288.983c.172.777.259 1.813-.951 1.813-.692 0-1.469-.777-1.469-1.472 0-.948-.692-.082-1.121-.516-.519-.52-.346-.604.519-.604h-.864c-.518 0-.953-.343-.518-.777.087-.085 1.813 0 1.641 0h-.694c-.258 0-.69-.085-.948-.085-.864 0-.519-.086-.519-.604 0-.343 1.209-.259 1.467-.259h.519c.346 0-2.072.174-2.072-.173 0-.95.605-.863 1.471-.863.777 0 .777-.862-.434-.431-1.037.344-1.12-.174-1.642-.778.952.085 1.557-.605 2.594-.605.69 0 1.813 1.212 2.071 1.73.261.515.863 3.451.95 3.624zM217.304 305.389c0 1.468.346 3.281.346 4.487 0 1.814-1.123 2.248-1.123 3.89 0 1.555.346 2.589.346 3.799 0 1.036-1.295 1.554-1.295 3.108v3.541c1.381 1.211 2.935 2.158 4.75 2.766.431-.864.948-1.641 1.467-2.507.518-.776 1.383-1.554 1.383-2.504.083-.691.257-1.47.776-2.072.861-1.124 1.638-1.296 1.638-3.542 0-.776-.859-1.987-.602-2.506.344-.69.95-2.158.95-3.022.952 2.504-.174 6.391 1.729 8.29.69.777.174 2.763.174 3.8 0 1.554.776 2.158.776 3.543.086 1.119.777 2.415.777 3.627 0 2.072.604 4.404.604 6.302 0 .862-.52 4.404 0 4.665 1.378-.694 2.764-.436 4.404-.436.949 0 4.402-1.637 4.402-2.763 0-.604.344-1.036-.175-1.469-.258-.345-.777-.604-.777-1.121-.083-.777-.083-1.727-.083-2.677 0-1.297-1.729-2.764-1.729-4.404l-.259-15.284c0-2.073-.343-3.454-.777-5.268-.342-1.381-.342-2.936-.602-4.316-2.248.171-4.75.602-6.218 2.07-2.158 2.074-7.257-5.008-10.106-1.21-.171.262-.516.779-.776 1.213z"/><path fill="#939598" d="M215.666 324.386c-.177 1.38-1.296 2.764-.434 4.488.776 1.471 1.897 1.641 3.451 1.898 2.506.519 3.023-2.244 1.729-3.538-.083-.088-.083-.177-.173-.26-1.641-.604-3.194-1.471-4.49-2.592l-.083.004zM230.258 340.965c0 1.555-1.554 3.022-1.554 4.578 0 2.33 5.007 2.416 6.042.346.605-1.296 1.212-1.728 1.212-3.454 0-.691-.26-1.47-.435-2.157-.518.172-.86.342-1.12.342-1.47 0-2.766-.172-4.061.261l-.084.084z"/></g><path d="M-33.045 350.637h.518l3.54 8.635h-1.296l-.95-2.677h-1.813v-.863h1.383l-.864-2.416c-.258-.604-.431-1.123-.518-1.64v-1.039zm-3.972 8.635l3.284-8.635h.69v1.036l-.086-.087c-.085.52-.259 1.037-.432 1.642l-.95 2.504h1.468v.863h-1.814l-.95 2.677h-1.21zM-27.95 359.272v-5.438h-.949v-.778h.949v-.691c0-.431 0-.777.087-.95.086-.258.346-.518.518-.691.258-.173.69-.261 1.122-.261.26 0 .603.088.95.176l-.172.863h-.604c-.259 0-.518 0-.69.173a1.719 1.719 0 0 0-.175.778v.604h1.211v.778h-1.211v5.438h-1.036v-.001z"/><path d="M-24.842 359.272v-5.438h-.949v-.778h.949v-.691c0-.431 0-.777.086-.95.172-.258.346-.518.605-.691.258-.173.602-.261 1.036-.261.258 0 .603.088.95.176l-.087.863h-.69c-.259 0-.518 0-.605.173-.172.173-.258.433-.258.778v.604h1.21v.778h-1.21v5.438h-1.037v-.001zM-17.502 357.199l1.124.173a2.903 2.903 0 0 1-.95 1.468c-.518.345-1.122.518-1.813.518h-.086v-.86h.086c.432 0 .69-.087 1.036-.259.26-.263.43-.52.603-1.04zm-1.727-4.317c.864 0 1.554.26 2.072.863.518.519.777 1.382.777 2.332v.345h-2.849v-.862h1.727c0-.519-.172-.95-.342-1.21-.346-.435-.777-.604-1.382-.604l-.003-.864zm0 6.475c-.864 0-1.554-.259-2.072-.86-.518-.519-.777-1.296-.777-2.332s.26-1.813.777-2.418c.518-.604 1.209-.863 2.072-.863v.863c-.432 0-.864.173-1.208.519-.346.26-.518.69-.518 1.296h1.726v.862h-1.813c.086.691.259 1.208.604 1.555.343.344.69.519 1.208.519v.859zM-11.026 356.942l1.036.172c-.083.69-.431 1.21-.861 1.641-.432.429-1.036.602-1.729.602-.862 0-1.554-.259-2.072-.778-.518-.602-.777-1.378-.777-2.414 0-.693.175-1.296.346-1.813.259-.435.605-.864 1.036-1.122.432-.26.95-.346 1.467-.346.692 0 1.212.176 1.641.518.432.346.69.777.864 1.471l-1.036.174c-.086-.433-.259-.778-.518-.951-.259-.258-.518-.345-.864-.345-.604 0-1.036.172-1.294.604-.346.344-.518.95-.518 1.728 0 .864.172 1.469.432 1.899.345.345.776.519 1.294.519.435 0 .776-.087 1.036-.346.259-.264.432-.697.517-1.213zM-6.794 358.322l.172.861c-.343.088-.602.088-.776.088-.432 0-.69 0-.95-.175a1.04 1.04 0 0 1-.432-.432c-.087-.173-.086-.604-.086-1.296v-3.542h-.776v-.777h.776v-1.554l1.035-.691v2.245h1.036v.777h-1.036v4.231c.087.086.172.174.259.174.086.085.172.085.346.085.086.006.259.006.432.006zM-1.526 357.199l1.122.173c-.175.604-.518 1.123-.953 1.468-.518.345-1.036.518-1.813.518h-.083v-.86h.083c.431 0 .776-.087 1.036-.259.262-.263.436-.52.608-1.04zm-1.727-4.317h.083c.776 0 1.471.26 1.989.863.518.519.776 1.382.776 2.332v.345h-2.849v-.862h1.727c0-.519-.172-.95-.346-1.21-.343-.435-.776-.604-1.294-.604h-.083l-.003-.864zm0 6.475c-.864 0-1.557-.259-2.075-.86-.518-.519-.776-1.296-.776-2.332s.258-1.813.776-2.418a2.813 2.813 0 0 1 2.075-.863v.863c-.435 0-.864.173-1.124.519-.346.26-.518.69-.604 1.296h1.729v.862H-4.98c0 .691.172 1.208.518 1.555.346.344.776.519 1.212.519l-.003.859zM4.95 359.272v-.863a1.851 1.851 0 0 1-1.641.949v-.86a1.71 1.71 0 0 0 1.211-.519c.258-.434.431-.952.431-1.729 0-.859-.172-1.468-.518-1.897-.258-.434-.69-.604-1.122-.604v-.864c.346 0 .604.086.864.26.258.086.518.345.69.604v-3.108h1.036v8.635l-.951-.004zm-1.642.085h-.085c-.518 0-.952-.084-1.382-.432-.432-.259-.778-.604-.95-1.122-.258-.518-.346-1.036-.346-1.639 0-.693.086-1.212.259-1.729.258-.52.518-.862.949-1.122.434-.345.864-.434 1.382-.434h.172v.864h-.084c-.434 0-.864.172-1.124.602-.346.346-.518.952-.518 1.816 0 .777.172 1.38.518 1.728.346.432.776.604 1.208.604v.864zM-24.409 370.755l1.036-.173c.085.433.258.778.518.95.258.259.602.345 1.124.345.431 0 .861-.086 1.035-.259.26-.172.343-.432.343-.691a.773.773 0 0 0-.258-.604c-.172-.087-.518-.173-1.12-.346-.777-.173-1.298-.343-1.557-.519-.343-.084-.518-.341-.692-.602-.172-.175-.258-.517-.258-.776s.086-.519.172-.778c.175-.258.346-.433.518-.604.175-.087.434-.259.693-.259.258-.087.602-.174.95-.174.433 0 .864.084 1.294.26.346.084.604.26.777.519.174.258.258.602.346.95l-1.036.172c0-.344-.172-.602-.345-.776-.26-.174-.603-.26-.95-.26-.518 0-.864.086-1.036.26-.259.175-.346.346-.346.517 0 .176 0 .26.087.436.084.083.259.172.432.259.086 0 .433.083.953.258.776.174 1.294.345 1.554.519.259.084.518.26.69.52.172.258.258.518.258.949 0 .345-.086.604-.346.951-.172.344-.432.52-.861.691-.346.173-.776.259-1.294.259-.776 0-1.47-.174-1.814-.517-.436-.268-.782-.784-.867-1.477zM-15.43 366.266c.864 0 1.554.26 2.072.861.518.519.776 1.295.776 2.331 0 .777-.083 1.383-.342 1.901a2.996 2.996 0 0 1-1.036 1.036c-.433.258-.952.344-1.47.344v-.863c.518 0 .952-.173 1.294-.602.346-.346.518-.953.518-1.816 0-.776-.172-1.295-.518-1.726-.343-.433-.776-.605-1.294-.605v-.861zm-2.935 3.282c0-1.209.343-2.072.95-2.592.518-.431 1.208-.69 1.986-.69v.861c-.518 0-.95.175-1.379.605-.346.431-.518.949-.518 1.813 0 .776.172 1.381.518 1.728.431.434.862.604 1.379.604v.863c-.861 0-1.638-.258-2.157-.777-.519-.601-.779-1.379-.779-2.415zM-11.284 372.656v-6.217h.951v.862c.432-.692 1.121-1.036 1.986-1.036.346 0 .69.084 1.036.174.258.172.518.346.69.604.175.172.259.432.346.776v4.836h-1.037v-3.8c0-.435 0-.777-.086-.953a.882.882 0 0 0-.432-.517c-.258-.174-.518-.174-.776-.174-.431 0-.864.087-1.122.433-.344.258-.518.776-.518 1.554v3.454l-1.038.004zM306.745 359.098v-8.636h1.123l4.49 6.737v-6.737h1.122v8.636h-1.122l-4.577-6.734v6.734zM317.799 352.709c.862 0 1.554.259 2.073.864.518.515.861 1.294.861 2.33 0 .778-.173 1.381-.434 1.897-.173.435-.517.776-1.036 1.036-.431.26-.949.345-1.468.345v-.861c.519 0 .95-.174 1.296-.52.344-.432.518-1.036.518-1.897 0-.692-.174-1.294-.518-1.729-.346-.342-.777-.602-1.296-.602l.004-.863zm-2.938 3.282c0-1.121.346-1.987.95-2.592.519-.432 1.211-.69 1.988-.69v.864c-.517 0-.952.26-1.295.602-.346.435-.518 1.036-.518 1.813 0 .776.172 1.381.518 1.813.343.346.778.52 1.295.52v.861c-.862 0-1.555-.258-2.158-.776-.519-.602-.78-1.379-.78-2.415zM321.944 359.098v-6.218h.95v.954c.258-.436.431-.78.604-.865.259-.175.431-.259.69-.259.346 0 .777.173 1.122.344l-.345.951c-.259-.086-.518-.171-.777-.171s-.432.082-.604.171c-.259.174-.342.346-.432.605-.082.342-.174.777-.174 1.208v3.282l-1.034-.002zM325.916 359.098v-6.218h.949v.864c.173-.346.432-.519.777-.777a2.366 2.366 0 0 1 1.123-.259c.431 0 .86.084 1.12.344.259.174.519.433.604.779.518-.779 1.123-1.123 1.899-1.123.69 0 1.121.172 1.469.518.347.345.518.86.518 1.555v4.317h-1.036v-3.97c0-.346-.086-.692-.172-.863 0-.174-.176-.346-.348-.431-.172-.176-.344-.176-.604-.176-.431 0-.86.086-1.12.433-.259.26-.434.778-.434 1.38v3.627h-1.037v-4.058c0-.432-.083-.778-.26-1.037-.172-.259-.431-.345-.859-.345-.26 0-.519.086-.777.258-.261.087-.436.346-.604.605a5.133 5.133 0 0 0-.174 1.295v3.281h-1.034v.001zM339.991 358.322c-.433.345-.778.604-1.121.691-.175.085-.434.085-.605.173v-.776c.261-.085.519-.173.777-.259.26-.173.52-.431.692-.777.084-.173.174-.519.174-1.035v-.346c-.345.086-.951.259-1.642.346v-.865c.693-.082 1.297-.172 1.642-.342v-.261c0-.432-.087-.777-.345-.951a1.921 1.921 0 0 0-1.122-.344h-.175v-.862h.261c.518 0 .95.084 1.294.172.346.175.605.346.777.519.174.175.26.435.346.691v2.419c0 .952 0 1.556.085 1.815 0 .257.085.517.26.776h-1.122c-.091-.267-.176-.526-.176-.784zm-1.73.863h-.603c-.691 0-1.21-.085-1.555-.431-.343-.346-.518-.778-.518-1.296 0-.345 0-.604.175-.863a3.62 3.62 0 0 1 .518-.604c.259-.174.519-.26.776-.344.26 0 .52-.086.95-.176h.259v.865h-.084c-.435.085-.777.171-.951.258s-.26.173-.432.347c-.086.082-.086.258-.086.517 0 .261.086.518.258.691.26.174.519.259.951.259h.344l-.002.777zm0-5.612c-.431 0-.776.084-.948.26-.26.171-.434.517-.519.948l-1.036-.172c.084-.435.259-.776.431-1.036.26-.263.52-.519.951-.605.345-.175.693-.175 1.121-.259v.864zM342.581 350.462h1.036v8.636h-1.036zM315.811 370.67l1.036-.175c.087.346.26.692.518.952.259.173.605.343 1.124.343.518 0 .862-.173 1.034-.343.261-.176.434-.435.434-.693s-.173-.433-.344-.519c-.175-.084-.518-.26-1.122-.342-.691-.26-1.296-.436-1.554-.52-.346-.175-.52-.345-.692-.604a1.433 1.433 0 0 1-.258-.863c0-.259.082-.517.258-.776.085-.259.26-.433.519-.602.084-.087.344-.177.602-.26.346-.087.605-.175.952-.175.433 0 .861.086 1.296.258.344.088.602.346.778.52.173.259.343.604.343 1.035l-1.037.087c0-.258-.174-.518-.344-.691-.258-.258-.604-.346-.951-.346-.518 0-.861.088-1.037.26-.258.174-.343.346-.343.604 0 .083.085.259.173.343.088.086.173.176.346.259.083.087.433.176.95.26.776.26 1.296.436 1.554.518.347.086.52.346.692.519.173.258.258.604.258.952 0 .347-.085.691-.258.95-.261.344-.52.605-.95.777-.346.174-.777.259-1.296.259-.777 0-1.382-.173-1.813-.519-.435-.343-.693-.865-.868-1.468zM324.791 366.093c.862 0 1.556.346 2.072.862.52.605.865 1.383.865 2.332 0 .777-.176 1.468-.436 1.899-.171.432-.517.776-1.036 1.037-.432.259-.95.431-1.468.431v-.863c.518 0 .95-.259 1.296-.602.343-.435.518-1.036.518-1.814 0-.776-.175-1.38-.518-1.813-.346-.346-.778-.605-1.296-.605l.003-.864zm-2.936 3.281c0-1.122.346-1.987.95-2.589.518-.436 1.212-.694 1.988-.694v.863c-.517 0-.951.259-1.295.605-.346.432-.519 1.035-.519 1.813s.173 1.379.519 1.813c.347.343.778.602 1.295.602v.864c-.864 0-1.553-.345-2.158-.864-.52-.599-.78-1.376-.78-2.413zM328.937 372.484v-6.218h.949v.861c.434-.69 1.123-1.036 1.987-1.036.344 0 .693.086 1.036.259.261.087.52.26.691.52.174.175.26.433.346.776v4.838h-1.037v-3.802c0-.433 0-.69-.086-.949-.085-.173-.257-.346-.431-.52-.26-.086-.52-.172-.776-.172-.435 0-.865.172-1.123.432-.347.26-.52.776-.52 1.642v3.367l-1.036.002zM92.336 359.098v-8.636h1.122l4.578 6.737v-6.737h1.036v8.636h-1.123l-4.576-6.734v6.734zM103.39 352.709c.861 0 1.554.259 2.072.864.518.515.86 1.294.86 2.33 0 .778-.172 1.381-.431 1.897-.172.435-.518.776-1.036 1.036-.432.26-.949.345-1.468.345v-.861c.518 0 .95-.174 1.295-.52.342-.432.518-1.036.518-1.897 0-.692-.174-1.294-.518-1.729-.346-.342-.776-.602-1.295-.602l.003-.863zm-2.936 3.282c0-1.121.346-1.987.95-2.592.518-.432 1.211-.69 1.989-.69v.864c-.518 0-.953.26-1.295.602-.346.435-.518 1.036-.518 1.813 0 .776.172 1.381.518 1.813.344.346.777.52 1.295.52v.861c-.864 0-1.554-.258-2.16-.776-.521-.602-.779-1.379-.779-2.415zM107.535 359.098v-6.218h.95v.954c.259-.436.431-.78.69-.865a.932.932 0 0 1 .604-.259c.432 0 .777.173 1.123.344l-.346.951c-.258-.086-.518-.171-.777-.171s-.431.082-.604.171c-.258.174-.343.346-.432.605a5.088 5.088 0 0 0-.172 1.208v3.282l-1.036-.002zM111.506 359.098v-6.218h.953v.864c.172-.346.431-.519.776-.777.346-.175.69-.259 1.124-.259.431 0 .86.084 1.12.344.258.174.518.433.604.779.518-.779 1.124-1.123 1.986-1.123.604 0 1.036.172 1.382.518.346.344.518.86.518 1.555v4.317h-1.036v-3.97c0-.346-.087-.692-.172-.863 0-.174-.175-.346-.346-.431-.172-.176-.346-.176-.605-.176-.431 0-.776.086-1.12.433-.258.26-.435.778-.435 1.38v3.627h-1.036v-4.058c0-.432-.083-.778-.258-1.037-.172-.259-.432-.345-.861-.345-.258 0-.518.086-.776.258-.258.087-.435.346-.604.605a5.235 5.235 0 0 0-.172 1.295v3.281h-1.042v.001zM125.581 358.322c-.432.345-.776.604-1.121.691-.175.085-.346.085-.604.173v-.776c.258-.085.518-.173.776-.259.258-.173.518-.431.69-.777.086-.173.175-.519.175-1.035v-.346c-.346.086-.953.259-1.642.346v-.865c.776-.082 1.294-.172 1.642-.342v-.261c0-.432-.087-.777-.346-.951a1.92 1.92 0 0 0-1.123-.344h-.172v-.862h.258c.518 0 .95.084 1.296.172.346.175.604.346.776.519.172.175.258.435.346.691v2.419c0 .952 0 1.556.084 1.815.087.257.174.517.259.776h-1.121c-.087-.267-.173-.526-.173-.784zm-1.727.863h-.605c-.69 0-1.208-.085-1.554-.431a1.773 1.773 0 0 1-.518-1.296c0-.345.086-.604.174-.863.172-.258.342-.432.518-.604.26-.174.518-.26.777-.344.259 0 .518-.086.95-.176h.258v.865h-.087c-.432.085-.776.171-.95.258-.172.087-.258.173-.431.347-.086.082-.086.258-.086.517 0 .261.086.518.258.691.258.174.605.259.95.259h.346v.777zm0-5.612c-.432 0-.776.084-.95.26-.26.171-.435.517-.518.948l-1.036-.172a2.8 2.8 0 0 1 .431-1.036c.258-.263.518-.519.95-.605.346-.175.692-.175 1.123-.259v.864zM128.171 350.462h1.036v8.636h-1.036zM91.904 372.484v-.777c-.433.605-.951.86-1.642.95v-.861c.432 0 .864-.259 1.124-.604.343-.345.518-.951.518-1.73 0-.86-.175-1.467-.518-1.896-.258-.346-.693-.518-1.124-.604v-.863c.26.086.605.086.864.259.258.176.518.346.691.604v-3.021h1.035v8.549l-.948-.006zm-1.64.172h-.086c-.518 0-.95-.173-1.379-.431a2.424 2.424 0 0 1-.952-1.124c-.258-.518-.343-1.123-.343-1.728s.083-1.211.258-1.639c.258-.52.518-.95.949-1.21.432-.26.864-.435 1.383-.435h.171v.863h-.086c-.432 0-.861.259-1.121.605-.346.432-.518 1.035-.518 1.813s.172 1.379.518 1.813c.343.345.69.602 1.208.602l-.002.871zM98.554 371.706c-.343.346-.776.605-1.12.691-.174.086-.346.174-.518.174v-.776a6.48 6.48 0 0 0 .69-.259c.346-.175.605-.435.69-.692.175-.26.175-.605.175-1.124v-.343c-.346.173-.864.259-1.554.343v-.861c.69-.086 1.208-.175 1.554-.345v-.26c0-.432-.087-.69-.258-.862-.259-.26-.693-.433-1.211-.433h-.084v-.863h.259c.518 0 .95.086 1.294.259.343.087.518.26.69.436.172.171.259.431.346.69 0 .173.085.518.085 1.036v3.195c.086.258.174.52.258.777h-1.036c-.174-.263-.174-.438-.26-.783zm-1.641.862c-.258 0-.434.087-.605.087-.69 0-1.208-.172-1.554-.518-.435-.346-.604-.776-.604-1.295 0-.346.086-.605.259-.864.087-.259.259-.432.518-.603.174-.086.433-.257.776-.345.175 0 .518-.084.864-.084l.346-.087v.863h-.175c-.432.085-.69.175-.861.258-.175.086-.346.175-.433.345-.085.176-.172.346-.172.52 0 .258.085.518.345.692.173.173.519.259.951.259h.346l-.001.772zm0-5.612a9.228 9.228 0 0 0-1.036.26c-.175.26-.434.52-.518.95l-1.036-.084c.083-.519.258-.864.518-1.123.172-.259.518-.431.861-.604.346-.085.776-.174 1.21-.258v.859zM105.288 372.484v-.952c-.518.78-1.209 1.122-1.986 1.122-.345 0-.69-.087-1.035-.258-.346-.084-.518-.26-.691-.52-.175-.173-.258-.431-.346-.776 0-.174-.086-.519-.086-.95v-3.886h1.036v3.451c0 .519.087.952.087 1.124.086.258.259.518.431.604.26.173.518.259.777.259.346 0 .604-.086.952-.259.26-.176.432-.346.518-.604.172-.346.172-.692.172-1.21v-3.368h1.124v6.218h-.953v.005zM110.211 374.124c.433 0 .776-.086 1.035-.259.26-.262.435-.518.518-.863.086-.176.086-.604.086-1.296-.432.52-.95.777-1.64.777v-.863c.518 0 .951-.173 1.211-.603.343-.346.518-.952.518-1.729 0-.776-.175-1.295-.518-1.727-.346-.346-.693-.518-1.211-.605v-.862c.693.086 1.294.346 1.729.952v-.777h1.035v5.354c0 .951-.175 1.642-.344 2.072-.172.435-.518.694-.95.952-.346.26-.864.344-1.47.344v-.864h.002v-.003zm-2.503-1.122l.95.172c.086.26.173.519.433.694.258.172.602.258 1.036.258h.085v.861h-.085c-.776 0-1.382-.172-1.813-.519-.435-.257-.694-.775-.606-1.466zm2.503-.518h-.085c-.864 0-1.469-.346-1.989-.952a3.582 3.582 0 0 1-.69-2.157c0-.604.087-1.211.346-1.639.172-.52.518-.95.949-1.21.346-.26.864-.435 1.382-.435h.085v.863c-.432 0-.862.259-1.21.605-.258.342-.431.949-.431 1.726 0 .778.172 1.382.431 1.728.346.435.777.604 1.21.604l.002.867zM114.529 372.484v-8.548h1.036v3.021c.518-.517 1.123-.862 1.9-.862.431 0 .861.086 1.208.346.346.172.518.432.69.69.175.346.258.776.258 1.382v3.972h-1.12v-3.972c0-.519-.086-.864-.258-1.122-.259-.26-.605-.344-1.036-.344-.26 0-.604.084-.864.259a2.016 2.016 0 0 0-.604.602c-.083.346-.172.693-.172 1.213v3.367l-1.038-.004zM123.509 371.532l.175.952c-.346.083-.604.083-.864.083-.346 0-.604-.083-.864-.171-.172-.173-.343-.26-.432-.52-.086-.172-.172-.604-.172-1.208v-3.627h-.692v-.777h.692v-1.554l1.12-.604v2.158h1.036v.777h-1.036v4.229c.086.087.086.176.175.26.085 0 .259.086.432.086.085.004.257-.084.43-.084zM128.777 370.496l1.122.086c-.175.69-.518 1.123-.952 1.555-.518.346-1.12.518-1.813.518h-.083v-.863h.083c.434 0 .693-.173 1.036-.343.261-.176.434-.52.607-.953zm-1.727-4.403a2.87 2.87 0 0 1 2.072.862c.518.605.776 1.383.776 2.418v.26h-2.849v-.864h1.727c0-.518-.172-.95-.346-1.208-.344-.346-.777-.605-1.295-.605h-.083l-.002-.863zm0 6.563c-.864-.088-1.554-.343-2.072-.864-.518-.602-.776-1.378-.776-2.332 0-1.118.258-1.896.776-2.504a2.861 2.861 0 0 1 2.072-.862v.862c-.434 0-.864.174-1.212.52-.258.345-.518.776-.518 1.294h1.729v.864h-1.814c.085.69.26 1.21.602 1.554.346.344.777.519 1.212.603l.001.865zM131.195 372.484v-6.218h.949v.95c.258-.431.434-.776.69-.864.174-.172.434-.258.692-.258.346 0 .69.175 1.035.346l-.345 1.036c-.26-.174-.518-.26-.778-.26-.258 0-.432.086-.603.174-.173.174-.344.346-.433.604a5.06 5.06 0 0 0-.172 1.209v3.284l-1.035-.003zM200.708 350.462h.602l3.544 8.636h-1.296l-1.036-2.591h-1.813v-.949h1.468l-.864-2.332c-.258-.692-.432-1.212-.602-1.641l-.003-1.123zm-3.887 8.636l3.282-8.636h.604v1.123-.173c-.087.52-.26 1.121-.435 1.642l-.95 2.504h1.382v.949h-1.729l-.95 2.591h-1.204zM205.887 359.098v-5.439h-.952v-.778h.952v-.691c0-.433 0-.691.083-.952.087-.259.261-.431.518-.601.26-.176.604-.26 1.124-.26.258 0 .604 0 .95.084l-.173.952c-.173-.085-.432-.085-.604-.085-.343 0-.519.085-.692.173a1.762 1.762 0 0 0-.172.779v.601h1.209v.778h-1.209v5.439h-1.034z"/><path d="M208.996 359.098v-5.439h-.952v-.778h.952v-.691c0-.433 0-.691.083-.952.087-.259.261-.431.52-.601.258-.176.692-.26 1.123-.26.257 0 .604 0 .951.084l-.175.952c-.172-.085-.432-.085-.602-.085a1.6 1.6 0 0 0-.694.173 1.748 1.748 0 0 0-.172.779v.601h1.208v.778h-1.208v5.439h-1.034zM216.338 357.114l1.034.086c-.174.691-.433 1.121-.951 1.468-.433.345-1.037.518-1.728.518h-.086v-.861h.086c.345 0 .69-.085.95-.26.346-.174.52-.52.695-.951zm-1.73-4.405c.864 0 1.555.259 2.074.864.517.602.776 1.378.776 2.415v.259h-2.851v-.86h1.73c-.087-.52-.176-.952-.435-1.212-.26-.342-.776-.602-1.296-.602v-.864zm0 6.476c-.861 0-1.554-.259-2.073-.776-.517-.604-.776-1.382-.776-2.417 0-1.037.26-1.814.776-2.416a2.869 2.869 0 0 1 2.073-.863v.863c-.519 0-.861.173-1.208.516-.346.346-.52.779-.52 1.299h1.728v.859h-1.813c.085.694.259 1.211.604 1.555.345.346.689.52 1.208.52v.86zM222.812 356.768l1.037.176c-.087.689-.434 1.295-.864 1.637-.518.435-1.035.604-1.727.604-.863 0-1.555-.259-2.071-.776-.52-.604-.777-1.382-.777-2.417 0-.691.083-1.21.342-1.728.26-.519.518-.953 1.037-1.122.434-.26.952-.433 1.47-.433.691 0 1.209.173 1.639.519.434.345.692.86.862 1.468l-1.034.175c-.088-.434-.26-.777-.52-.952-.259-.259-.604-.343-.95-.343-.517 0-.952.173-1.294.602-.26.347-.436.953-.436 1.814 0 .776.087 1.381.436 1.813.342.346.777.52 1.294.52.434 0 .691-.085 1.037-.345.261-.261.433-.608.519-1.212zM227.043 358.15l.176.95c-.346 0-.605.085-.863.085-.346 0-.604-.085-.864-.173-.172-.175-.343-.345-.432-.517-.087-.175-.086-.604-.086-1.211v-3.627h-.776v-.778h.776v-1.553l1.036-.604v2.157h1.036v.778h-1.036v4.231c.086.085.086.172.175.258h.432c.08.004.254.004.426.004zM232.31 357.114l1.123.086a2.592 2.592 0 0 1-.95 1.468c-.519.345-1.122.518-1.816.518h-.082v-.861h.082c.435 0 .694-.085 1.036-.26.264-.174.435-.52.607-.951zm-1.725-4.405c.862 0 1.554.259 2.07.864.519.602.778 1.378.778 2.415v.259h-2.849v-.86h1.726c0-.52-.172-.952-.343-1.212-.345-.342-.776-.602-1.296-.602h-.087v-.864zm0 6.476c-.865 0-1.556-.259-2.074-.776-.518-.604-.776-1.382-.776-2.417 0-1.037.259-1.814.776-2.416a2.863 2.863 0 0 1 2.074-.863v.863c-.436 0-.865.173-1.213.516-.259.346-.518.779-.518 1.299h1.73v.859h-1.814c.084.694.259 1.211.602 1.555.345.346.777.52 1.213.52v.86zM238.787 359.098v-.776c-.432.604-.95.861-1.639.861v-.861c.432 0 .862-.173 1.121-.519.346-.344.518-.95.518-1.727 0-.864-.172-1.471-.518-1.9-.259-.342-.692-.602-1.121-.602v-.864c.26 0 .603.084.862.259.259.174.518.346.692.605v-3.112h1.036v8.636h-.951zm-1.641.087h-.085c-.519 0-.949-.085-1.383-.345a2.242 2.242 0 0 1-.95-1.21c-.258-.431-.344-1.035-.344-1.639 0-.602.086-1.21.259-1.728.259-.519.518-.864.951-1.122.434-.26.862-.433 1.38-.433h.175v.864h-.085c-.434 0-.864.26-1.123.602-.344.346-.518.952-.518 1.813 0 .776.174 1.381.518 1.813.346.346.692.52 1.21.52v.862h-.005v.003zM199.843 372.484v-.777c-.346.605-.864.86-1.641.95v-.861c.519 0 .864-.259 1.211-.604.344-.345.52-.951.52-1.73 0-.86-.176-1.467-.52-1.896-.345-.346-.692-.518-1.211-.604v-.863c.346.086.604.175.864.259.345.176.517.346.776.604v-3.021h1.036v8.549l-1.035-.006zm-1.641.172h-.084c-.518 0-.952-.173-1.382-.431-.344-.262-.689-.694-.949-1.124-.175-.518-.345-1.123-.345-1.728s.085-1.211.345-1.639c.173-.52.517-.95.949-1.21.345-.26.864-.435 1.382-.435h.084v.863c-.518 0-.861.259-1.208.605-.26.432-.432 1.035-.432 1.813s.172 1.379.517 1.813c.26.345.691.602 1.121.602l.002.871zM206.577 371.706c-.431.346-.776.605-1.121.691-.172.086-.343.174-.602.174v-.776c.259-.087.517-.175.777-.259.259-.175.518-.435.689-.692a3.38 3.38 0 0 0 .172-1.124v-.343c-.342.173-.948.259-1.637.343v-.861c.778-.086 1.295-.175 1.637-.345v-.26c0-.432-.082-.69-.342-.862-.259-.26-.604-.433-1.123-.433h-.172v-.863h.259c.602 0 .95.086 1.296.259.342.087.603.26.777.436.171.171.259.431.341.69v2.418c0 .95 0 1.554.088 1.813.086.258.176.52.258.777h-1.122c-.087-.263-.175-.438-.175-.783zm-1.724.862c-.175 0-.346.087-.606.087-.689 0-1.208-.172-1.555-.518-.345-.346-.517-.776-.517-1.295 0-.346.086-.605.172-.864a3.77 3.77 0 0 1 .519-.603c.26-.086.518-.257.777-.345.26 0 .519-.084.951-.084l.261-.087v.863h-.087c-.431.085-.776.175-.95.258-.175.086-.259.175-.435.345-.083.176-.083.346-.083.52 0 .258.083.518.259.692.259.173.603.259.95.259h.346l-.002.772zm0-5.612c-.436.088-.778.174-.953.26-.259.26-.433.52-.519.95l-1.036-.084a2.72 2.72 0 0 1 .436-1.123c.258-.259.517-.431.95-.604.344-.174.688-.174 1.122-.258v.859zM213.229 372.484v-.952c-.435.78-1.124 1.122-1.99 1.122-.342 0-.689-.087-.949-.258-.345-.084-.604-.26-.776-.52-.088-.173-.26-.431-.26-.776-.086-.174-.086-.519-.086-.95v-3.886h1.035v3.451c0 .519 0 .952.087 1.124.083.258.173.518.433.604.175.173.434.259.776.259.346 0 .604-.086.863-.259.261-.176.518-.346.605-.604.083-.346.171-.692.171-1.21v-3.368h1.037v6.218h-.947l.001.005zM218.236 374.124c.434 0 .776-.086 1.035-.259.258-.262.434-.518.519-.863.085-.176.085-.604.085-1.296a2.115 2.115 0 0 1-1.639.777v-.863c.517 0 .862-.173 1.211-.603.343-.346.518-.952.518-1.729 0-.776-.175-1.295-.518-1.727-.346-.346-.777-.518-1.211-.605v-.862c.691.086 1.293.346 1.729.952v-.777h.95v5.354c0 .951-.086 1.642-.26 2.072a2.47 2.47 0 0 1-.95.952c-.434.26-.862.344-1.469.344v-.867zm-2.592-1.122l1.038.172c.085.26.174.519.344.694.259.172.605.258 1.123.258h.085v.861h-.085c-.778 0-1.382-.172-1.813-.519-.432-.257-.692-.775-.692-1.466zm2.592-.518h-.085c-.864 0-1.554-.346-1.988-.952-.519-.603-.69-1.296-.69-2.157 0-.604.086-1.211.26-1.639.257-.52.604-.95.95-1.21.433-.26.952-.435 1.469-.435h.085v.863c-.52 0-.862.259-1.21.605-.344.342-.518.949-.518 1.726 0 .778.174 1.382.518 1.728.345.435.69.604 1.21.604v.867zM222.554 372.484v-8.548h1.035v3.021c.519-.517 1.12-.862 1.814-.862.518 0 .861.086 1.208.346.346.172.605.432.778.69.086.346.174.776.174 1.382v3.972h-1.034v-3.972c0-.519-.088-.864-.348-1.122-.258-.26-.518-.344-.951-.344-.344 0-.602.084-.861.259-.345.173-.518.343-.605.602-.086.346-.172.693-.172 1.213v3.367l-1.038-.004zM231.533 371.532l.088.952c-.26.083-.52.083-.778.083-.346 0-.693-.083-.863-.171-.26-.173-.343-.26-.433-.52-.086-.172-.175-.604-.175-1.208v-3.627h-.776v-.777h.778v-1.554l1.037-.604v2.158h1.121v.777h-1.121v3.71c0 .26 0 .435.085.519 0 .087.087.176.174.26.084 0 .174.086.344.086.175.004.259-.084.519-.084zM236.801 370.496l1.036.086c-.172.69-.432 1.123-.949 1.555-.435.346-1.036.518-1.73.518h-.084v-.863h.084c.346 0 .694-.173.953-.343.259-.176.518-.52.69-.953zm-1.727-4.403c.862 0 1.555.346 2.072.862.52.605.778 1.383.778 2.418v.26h-2.851v-.864h1.729c-.087-.518-.174-.95-.433-1.208-.345-.346-.777-.605-1.296-.605v-.863zm0 6.563c-.862-.088-1.553-.343-2.071-.864-.604-.602-.863-1.378-.863-2.332 0-1.118.345-1.896.863-2.504a2.864 2.864 0 0 1 2.071-.862v.862c-.518 0-.862.174-1.21.52-.343.345-.519.776-.519 1.294h1.729v.864h-1.813c0 .69.261 1.21.604 1.554.346.344.692.519 1.21.603v.865h-.001zM239.22 372.484v-6.218h.949v.95c.173-.431.431-.776.604-.864.26-.172.431-.258.69-.258.346 0 .69.175 1.123.346l-.436 1.036c-.172-.174-.431-.26-.69-.26-.259 0-.518.086-.689.174-.177.174-.26.346-.347.604-.172.346-.172.776-.172 1.209v3.284l-1.032-.003zM40.613 150.823c.604 0 1.036.084 1.382.173.69.172 1.294.432 1.727.863a5.277 5.277 0 0 1 1.467 2.072c.26.777.434 1.728.434 2.849 0 .861-.087 1.728-.346 2.418-.172.69-.431 1.296-.776 1.727-.346.432-.69.863-1.122 1.123-.343.259-.861.433-1.379.604-.435.086-.864.175-1.382.175v-1.471c.432 0 .776-.084 1.123-.172.431-.173.777-.347 1.036-.605.432-.344.69-.861.861-1.555.26-.602.346-1.382.346-2.33 0-1.209-.172-2.158-.604-2.849-.431-.69-.95-1.124-1.468-1.382a5.287 5.287 0 0 0-1.296-.173l-.003-1.467zm-4.922 12.002v-12.003h4.921v1.468c-.259-.087-.518-.087-.777-.087h-2.59v9.241h2.59c.26 0 .518 0 .777-.086v1.47h-.604l-4.317-.003zM-29.246 250.642c.518 0 .953.088 1.295.174.692.175 1.295.433 1.813.865.604.516 1.036 1.207 1.382 2.07.346.778.518 1.73.518 2.851 0 .863-.172 1.729-.346 2.418-.258.689-.518 1.294-.861 1.726-.345.436-.693.864-1.035 1.123-.434.259-.864.433-1.47.605-.431.083-.861.172-1.294.172v-1.467c.434 0 .776-.088 1.036-.176.433-.174.864-.344 1.122-.602.346-.436.605-.864.864-1.555a8.355 8.355 0 0 0 .343-2.332c0-1.212-.258-2.159-.69-2.852a2.831 2.831 0 0 0-1.468-1.379 3.944 3.944 0 0 0-1.211-.176v-1.467h.002zm-5.007 12.004v-12.004H-29.247v1.47c-.258-.085-.518-.085-.861-.085h-2.504v9.239h2.59c.26 0 .518-.082.776-.082v1.467H-34.253v-.005zM207.183 250.642c.518 0 .949.088 1.294.174.691.175 1.295.433 1.728.865.693.516 1.123 1.207 1.47 2.07.344.778.433 1.73.433 2.851 0 .863-.086 1.729-.259 2.418-.261.689-.518 1.294-.865 1.726-.343.436-.69.864-1.034 1.123-.433.259-.95.433-1.47.605-.431.083-.862.172-1.293.172v-1.467a3.15 3.15 0 0 0 1.034-.176c.433-.174.778-.344 1.124-.602.342-.436.602-.864.86-1.555.175-.604.26-1.382.26-2.332 0-1.212-.174-2.159-.604-2.852-.435-.692-.862-1.121-1.469-1.379-.344-.088-.691-.176-1.209-.176v-1.465zm-5.008 12.004v-12.004h5.009v1.47c-.261-.085-.519-.085-.865-.085h-2.504v9.239h2.504c.347 0 .604-.082.865-.082v1.467h-5.008v-.005h-.001zM71.439 162.825v-1.124c-.518.864-1.295 1.295-2.244 1.295v-1.207c.604 0 1.208-.259 1.642-.776.431-.519.69-1.296.69-2.418 0-1.209-.259-2.072-.69-2.591-.435-.604-1.036-.863-1.642-.863v-1.209c.431 0 .864.173 1.208.344.434.175.692.518.952.863v-4.316h1.467v12.003h-1.383v-.001zm-2.244.171h-.172a3.687 3.687 0 0 1-1.9-.519c-.604-.432-1.036-.949-1.382-1.642a6.607 6.607 0 0 1-.432-2.33c0-.864.172-1.642.432-2.418.258-.69.693-1.208 1.294-1.554.605-.433 1.211-.604 1.988-.604h.172v1.208h-.085c-.603 0-1.209.259-1.639.777-.434.604-.693 1.382-.693 2.59 0 1.122.259 1.899.778 2.507.433.518.951.776 1.64.776l-.001 1.209zM288.007 162.825v-1.124c-.603.864-1.382 1.295-2.332 1.295v-1.207c.605 0 1.21-.259 1.642-.776.431-.519.69-1.296.69-2.418 0-1.209-.26-2.072-.69-2.591-.435-.604-1.036-.863-1.642-.863v-1.209c.433 0 .863.173 1.21.344.434.175.692.518.952.863v-4.316h1.468v12.003h-1.298v-.001zm-2.332.171h-.173a3.682 3.682 0 0 1-1.898-.519c-.605-.432-1.037-.949-1.296-1.642-.346-.689-.518-1.468-.518-2.33 0-.864.172-1.642.432-2.418.259-.69.693-1.208 1.295-1.554.604-.433 1.211-.604 1.988-.604h.172v1.208h-.083c-.604 0-1.211.259-1.641.777-.435.604-.604 1.382-.604 2.59 0 1.122.174 1.899.691 2.507.434.518.951.776 1.64.776v1.209h-.005zM318.575 162.825v-1.124c-.517.864-1.294 1.295-2.331 1.295v-1.207c.691 0 1.21-.259 1.64-.776.433-.519.691-1.296.691-2.418 0-1.209-.259-2.072-.691-2.591-.433-.604-.95-.863-1.64-.863v-1.209c.432 0 .861.173 1.21.344.432.175.776.518 1.036.863v-4.316h1.468v12.003h-1.383v-.001zm-2.331.171h-.086a3.994 3.994 0 0 1-1.984-.519c-.52-.432-1.039-.949-1.296-1.642-.348-.689-.52-1.468-.52-2.33 0-.864.172-1.642.433-2.418.344-.69.777-1.208 1.295-1.554.604-.433 1.296-.604 1.985-.604h.176v1.208h-.087c-.604 0-1.123.259-1.641.777-.431.604-.603 1.382-.603 2.59 0 1.122.261 1.899.692 2.507a2.122 2.122 0 0 0 1.64.776v1.209h-.005zM.46 262.646v-1.123c-.518.863-1.294 1.295-2.245 1.295v-1.208c.605 0 1.208-.259 1.642-.777.431-.519.69-1.295.69-2.418 0-1.209-.26-2.072-.69-2.591-.434-.604-1.036-.862-1.642-.862v-1.21c.432 0 .864.173 1.208.346.435.173.693.519.953.861v-4.318h1.468v12.003l-1.384.002zm-2.246.171h-.172a3.7 3.7 0 0 1-1.9-.517c-.604-.434-1.035-.95-1.382-1.64a6.634 6.634 0 0 1-.431-2.331c0-.863.172-1.641.431-2.418.26-.693.69-1.211 1.296-1.555.604-.435 1.21-.604 1.987-.604h.172v1.212h-.086c-.602 0-1.208.258-1.64.776-.432.602-.692 1.379-.692 2.59 0 1.121.259 1.897.777 2.504.431.52.952.778 1.64.778v1.205zM101.23 262.646v-1.123c-.518.863-1.294 1.295-2.331 1.295v-1.208c.69 0 1.208-.259 1.642-.777.431-.519.69-1.295.69-2.418 0-1.209-.258-2.072-.69-2.591-.435-.604-.953-.862-1.642-.862v-1.21c.431 0 .864.173 1.208.346.434.173.777.519 1.036.861v-4.318h1.47v12.003l-1.383.002zm-2.33.171h-.086c-.69 0-1.379-.172-1.986-.517-.518-.434-1.035-.95-1.294-1.64-.346-.693-.518-1.47-.518-2.331 0-.863.171-1.641.431-2.418.346-.693.776-1.211 1.294-1.555.605-.435 1.294-.604 1.989-.604h.172v1.212h-.086c-.603 0-1.121.258-1.639.776-.434.602-.604 1.379-.604 2.59 0 1.121.258 1.897.69 2.504.434.52 1.036.778 1.641.778l-.004 1.205zM126.186 262.646v-1.123c-.518.863-1.296 1.295-2.331 1.295v-1.208c.69 0 1.208-.259 1.642-.777.518-.519.69-1.295.69-2.418 0-1.209-.172-2.072-.69-2.591-.435-.604-.953-.862-1.642-.862v-1.21c.431 0 .864.173 1.208.346.434.173.776.519 1.036.861v-4.318h1.469v12.003l-1.382.002zm-2.332.171h-.087c-.69 0-1.379-.172-1.897-.517a4.3 4.3 0 0 1-1.382-1.64c-.346-.693-.518-1.47-.518-2.331 0-.863.172-1.641.432-2.418.346-.693.776-1.211 1.294-1.555.605-.435 1.296-.604 1.989-.604h.172v1.212c-.69 0-1.209.258-1.641.776-.518.602-.69 1.379-.69 2.59 0 1.121.258 1.897.69 2.504.433.52 1.036.778 1.641.778v1.203h-.003zM235.074 262.646v-1.123c-.518.863-1.295 1.295-2.33 1.295v-1.208c.69 0 1.208-.259 1.638-.777.435-.519.692-1.295.692-2.418 0-1.209-.258-2.072-.692-2.591-.432-.604-.95-.862-1.638-.862v-1.21c.431 0 .86.173 1.208.346.433.173.776.519 1.036.861v-4.318h1.469v12.003l-1.383.002zm-2.33.171h-.088a4.011 4.011 0 0 1-1.985-.517c-.521-.434-1.035-.95-1.297-1.64-.344-.693-.519-1.47-.519-2.331 0-.863.175-1.641.435-2.418.346-.693.776-1.211 1.296-1.555.604-.435 1.293-.604 1.984-.604h.176v1.212h-.087c-.604 0-1.122.258-1.641.776-.431.602-.602 1.379-.602 2.59 0 1.121.259 1.897.69 2.504.432.52 1.037.778 1.642.778v1.206h-.005v-.001zM315.552 262.646v-1.123c-.602.863-1.296 1.295-2.33 1.295v-1.208c.691 0 1.209-.259 1.639-.777.432-.519.691-1.295.691-2.418 0-1.209-.26-2.072-.691-2.591-.432-.604-1.035-.862-1.639-.862v-1.21c.433 0 .862.173 1.209.346.432.173.777.519.951.861v-4.318h1.467v12.003l-1.297.002zm-2.33.171h-.174a3.7 3.7 0 0 1-1.9-.517c-.519-.434-1.036-.95-1.295-1.64-.344-.693-.519-1.47-.519-2.331 0-.863.175-1.641.436-2.418.259-.693.689-1.211 1.295-1.555.603-.435 1.209-.604 1.985-.604h.174v1.212h-.086c-.604 0-1.21.258-1.64.776-.432.602-.604 1.379-.604 2.59 0 1.121.175 1.897.692 2.504.431.52.949.778 1.639.778v1.206h-.004v-.001zM340.509 262.646v-1.123c-.518.863-1.296 1.295-2.33 1.295v-1.208c.691 0 1.209-.259 1.638-.777.434-.519.692-1.295.692-2.418 0-1.209-.259-2.072-.692-2.591-.431-.604-1.035-.862-1.638-.862v-1.21c.432 0 .861.173 1.209.346.431.173.776.519 1.036.861v-4.318h1.468v12.003l-1.383.002zm-2.331.171h-.087c-.691 0-1.38-.172-1.987-.517-.518-.434-1.034-.95-1.294-1.64-.345-.693-.519-1.47-.519-2.331 0-.863.174-1.641.433-2.418.346-.693.777-1.211 1.295-1.555.604-.435 1.296-.604 1.986-.604h.175v1.212h-.086c-.604 0-1.21.258-1.641.776-.432.602-.603 1.379-.603 2.59 0 1.121.173 1.897.691 2.504.432.52 1.037.778 1.641.778v1.206h-.005v-.001z"/><path fill="none" stroke="#000" stroke-width="1" d="M-17.329 246.757l58.46-76.42M.633 245.98l282.625-78.666M48.643 170.337l161.129 74.866M68.935 168.868l57.682 76.335M101.144 245.98l185.136-77.112M74.117 170.337l236.946 75.643M304.328 171.804l-67.527 74.176M335.07 243.737l-23.317-72.623"/></svg>