<svg version="1.1" xmlns="http://www.w3.org/2000/svg" x="0" y="0" width="327.375" height="190.9" viewBox="0 0 327.375 190.9" xml:space="preserve"><path fill-rule="evenodd" clip-rule="evenodd" stroke="#000" stroke-width=".033" stroke-linecap="round" stroke-linejoin="round" d="M141.961 95.134l10.917-.091c-2.437-1.804-3.429-3.97-2.797-7.037l-8.12 7.128zM122.834 163.706l9.744 4.872c-1.263-2.707-1.173-5.054.723-7.489l-10.467 2.617zM117.33 120.938l10.286 3.882c-1.624-2.618-1.715-4.963-.091-7.579l-10.195 3.697zM76.819 39.736l10.376 3.428c-1.715-2.436-1.985-4.782-.361-7.489l-10.015 4.061z"/><path fill-rule="evenodd" clip-rule="evenodd" fill="none" stroke="#000" stroke-width="2.96" d="M95.405 189.42c51.699 0 93.833-42.225 93.833-94.015 0-51.699-42.135-93.925-93.833-93.925-51.79 0-93.925 42.226-93.925 93.925 0 51.79 42.135 94.015 93.925 94.015z"/><g fill-rule="evenodd" clip-rule="evenodd" stroke="#000" stroke-width=".74"><path fill="none" d="M110.112 109.029v20.391M105.06 110.384l10.194 17.681M101.27 114.172l17.683 10.194M99.917 119.225h20.39M101.27 124.366l17.683-10.194M105.06 128.065l10.194-17.681"/><path fill="#FFF" d="M110.472 123.465c1.985 0 3.699-1.714 3.699-3.789 0-1.984-1.714-3.699-3.699-3.699-2.075 0-3.699 1.715-3.699 3.699 0 2.075 1.624 3.789 3.699 3.789z"/></g><path fill-rule="evenodd" clip-rule="evenodd" fill="#FFF" stroke="#000" stroke-width="1.112" stroke-dasharray="5.5587,3.3352,1.1118,3.3352" d="M73.3 108.126c3.249-1.441 7.308.632 9.022 4.512l7.128 16.241c1.715 3.969.451 8.391-2.797 9.743-3.249 1.444-7.398-.54-9.113-4.511l-7.127-16.239c-1.715-3.971-.452-8.302 2.887-9.746zM126.442 79.074c3.248-1.443 7.398.632 9.113 4.511l7.127 16.239c1.715 3.973.452 8.393-2.887 9.746-3.248 1.443-7.308-.541-9.022-4.51l-7.128-16.242c-1.714-3.97-.451-8.3 2.797-9.744z"/><path fill-rule="evenodd" clip-rule="evenodd" fill="none" stroke="#000" stroke-width="1.112" stroke-dasharray="5.5587,3.3352,1.1118,3.3352" d="M110.833 188.337c4.962-17.865 7.398-35.818 7.398-53.774 14.346 12.813 29.504 20.572 45.022 25.985"/><path fill-rule="evenodd" clip-rule="evenodd" fill="none" stroke="#000" stroke-width="1.112" d="M1.391 92.789c19.128-8.392 38.346-13.083 57.473-7.85M79.255 87.736c-8.481 2.436-17.233 3.519-22.736-7.939-2.527-5.324-.452-11.279 5.142-16.692 4.511-4.332 9.293-5.233 13.895-3.249 1.714-6.766 5.864-10.465 12.541-11.097 5.414-.541 10.287 1.804 14.437 7.399 5.594 7.669 1.895 14.436-6.044 20.842M103.886 58.051c.361-19.398 6.677-36.992 15.79-53.864"/><path fill-rule="evenodd" clip-rule="evenodd" fill="none" stroke="#000" stroke-width="1.112" d="M63.555 62.202C60.127 53.54 53.089 45.781 53.27 36.217c.181-3.97 3.249-9.474 9.744-6.045 9.113 4.783 14.707 12.271 17.685 21.835"/><path d="M239.314 31.796v-1.083h3.789v3.338c-.541.451-1.173.812-1.805.992-.63.271-1.264.361-1.894.361-.902 0-1.715-.18-2.436-.542a3.53 3.53 0 0 1-1.624-1.624c-.362-.722-.541-1.534-.541-2.436 0-.812.179-1.624.541-2.436a3.53 3.53 0 0 1 1.624-1.624c.63-.361 1.441-.542 2.345-.542.632 0 1.264.09 1.713.271.543.18.994.541 1.264.901.271.361.543.812.723 1.444l-1.083.271a5.866 5.866 0 0 0-.541-1.083c-.18-.271-.451-.451-.812-.632-.36-.089-.812-.18-1.264-.18-.541 0-.992.091-1.443.271-.36.09-.632.36-.901.631-.271.271-.453.542-.543.902-.271.542-.36 1.083-.36 1.805 0 .812.09 1.444.36 1.984.271.542.722.903 1.264 1.173a3.375 3.375 0 0 0 1.624.452c.542 0 .992-.181 1.535-.361.449-.18.81-.361 1.081-.632v-1.624h-2.616zM249.149 33.24l1.172.09a3.03 3.03 0 0 1-.992 1.534c-.54.361-1.083.542-1.895.542h-.09v-.902h.09c.451 0 .812-.09 1.083-.271.272-.272.451-.542.632-.993zm-1.805-4.602h.09c.812 0 1.534.271 2.075.902.542.542.812 1.444.812 2.527v.27h-2.977v-.902h1.805c0-.542-.181-.992-.36-1.264-.362-.451-.812-.632-1.354-.632h-.09v-.901zm0 6.767c-.902 0-1.624-.271-2.166-.812-.541-.632-.812-1.444-.812-2.526 0-1.083.271-1.896.812-2.527.542-.631 1.264-.902 2.166-.902v.902c-.451 0-.902.181-1.172.542-.361.27-.543.722-.634 1.354h1.806v.902h-1.806c0 .722.182 1.264.542 1.624.361.36.812.542 1.264.542v.901zM251.675 35.315v-6.497h.992v.902c.452-.722 1.173-1.083 2.076-1.083.36 0 .721.09 1.081.18.36.18.543.361.721.632.183.181.273.451.362.812.09.181.09.542.09.993v4.06h-1.082v-3.971c0-.45-.091-.812-.182-.992a.922.922 0 0 0-.45-.542c-.18-.179-.451-.179-.723-.179-.539 0-.901.089-1.263.451-.361.27-.541.812-.541 1.624v3.609h-1.081zM258.712 27.556v-1.263h1.083v1.263h-1.083zm0 7.759v-6.497h1.083v6.497h-1.083zM263.855 34.322l.181.993c-.36 0-.632.09-.812.09-.449 0-.721-.09-.992-.18-.18-.181-.36-.361-.449-.542-.093-.181-.093-.632-.093-1.264V29.63h-.812v-.813h.812v-1.624l1.085-.632v2.256h1.081v.813h-1.081v4.421c.089.09.089.18.179.18.091.09.271.09.451.09l.45.001zM269.178 34.503c-.451.361-.812.541-1.174.722-.179.09-.36.09-.63.18v-.902c.27 0 .541-.09.812-.181.27-.18.541-.45.723-.812.09-.271.181-.631.181-1.083v-.36c-.362.089-.994.27-1.715.36v-.902c.812-.09 1.353-.27 1.715-.361v-.27c0-.451-.091-.812-.362-.993s-.632-.361-1.172-.361h-.181v-.902h.27c.634 0 .994.09 1.354.18.36.18.632.271.812.542.181.18.27.451.36.722v2.527c0 .992 0 1.623.092 1.894.089.271.18.541.271.812h-1.174c-.09-.271-.182-.542-.182-.812zm-1.803.902h-.632c-.723 0-1.264-.18-1.624-.451-.362-.361-.542-.813-.542-1.354 0-.361.092-.633.18-.903.182-.271.362-.451.543-.631.27-.181.54-.271.812-.361.27-.09.543-.09.992-.181h.271v.902h-.09c-.453.09-.813.181-.992.271-.182.09-.272.181-.453.361-.089.09-.089.27-.089.451 0 .361.089.542.27.812.272.181.634.271.994.271.179 0 .271 0 .36-.09v.903zm0-5.865c-.451 0-.812.091-.994.271-.27.181-.449.542-.541.993l-1.083-.18c.091-.452.271-.813.452-1.083.271-.27.542-.542.992-.631.361-.18.723-.271 1.174-.271v.901zM271.886 26.292h1.083v9.022h-1.083zM274.682 27.556v-1.263h1.083v1.263h-1.083zm0 7.759v-6.497h1.083v6.497h-1.083zM281.72 34.503c-.451.361-.812.541-1.172.722-.183.09-.362.09-.632.18v-.902c.27 0 .541-.09.811-.181.271-.18.542-.45.723-.812.091-.271.18-.631.18-1.083v-.36c-.36.089-.992.27-1.713.36v-.902c.811-.09 1.353-.27 1.713-.361v-.27c0-.451-.089-.812-.36-.993s-.632-.361-1.173-.361h-.18v-.902h.27c.541 0 .994.09 1.354.18.36.18.63.271.81.542.183.18.271.451.362.722v2.527c0 .992 0 1.623.091 1.894 0 .271.179.541.27.812h-1.172c-.092-.271-.182-.542-.182-.812zm-1.803.902h-.632c-.723 0-1.264-.18-1.624-.451-.362-.361-.542-.813-.542-1.354 0-.361.091-.633.18-.903.181-.271.362-.451.541-.631.271-.181.542-.271.812-.361.273-.09.543-.09.994-.181h.271v.902h-.091c-.452.09-.812.181-.992.271-.183.09-.271.181-.452.361-.089.09-.089.27-.089.451 0 .361.089.542.27.812.271.181.632.271.992.271.182 0 .271 0 .362-.09v.903zm0-5.865c-.453 0-.813.091-.992.271-.273.181-.452.542-.543.993l-1.083-.18c.091-.452.271-.813.451-1.083.271-.27.543-.542.992-.631.361-.18.722-.271 1.175-.271v.901zM235.345 69.42h1.171v9.022h-1.171zM238.05 76.458l1.083-.181c0 .452.181.812.452 1.083.271.18.721.271 1.172.271.541 0 .901-.09 1.173-.271.271-.181.36-.452.36-.723 0-.271-.089-.451-.36-.631-.091-.091-.541-.181-1.081-.361-.814-.181-1.354-.361-1.716-.542-.271-.09-.54-.27-.723-.541-.089-.271-.178-.542-.178-.902 0-.27 0-.542.178-.812.092-.271.271-.452.543-.632.18-.091.36-.18.721-.271.271-.09.543-.179.903-.179.542 0 .992.089 1.353.271.36.089.721.27.903.542.18.271.27.631.36.992l-1.082.18c-.091-.36-.182-.632-.453-.813-.27-.179-.539-.27-.99-.27-.543 0-.903.091-1.083.27-.181.181-.362.361-.362.633 0 .09.091.271.182.36.09.09.27.18.451.271.09.09.361.181.901.271.812.271 1.354.361 1.624.541.36.09.632.271.812.542.091.271.182.632.182.993 0 .36-.091.721-.272.992-.181.36-.541.632-.901.812-.45.18-.903.18-1.444.18-.812 0-1.443-.09-1.895-.452-.452-.36-.722-.902-.813-1.623zM248.968 76.007l1.083.18c-.091.722-.451 1.354-.902 1.714-.543.452-1.083.632-1.805.632-.902 0-1.624-.271-2.166-.812-.541-.632-.812-1.444-.812-2.526 0-.722.183-1.264.361-1.804a2.746 2.746 0 0 1 1.084-1.173c.45-.271.991-.451 1.533-.451.722 0 1.262.179 1.714.541.451.361.723.902.902 1.534l-1.081.18c-.091-.451-.273-.812-.543-.992-.271-.271-.542-.361-.902-.361-.632 0-1.082.181-1.354.631-.36.361-.542.993-.542 1.896 0 .812.182 1.534.451 1.894.362.361.812.542 1.354.542.45 0 .812-.09 1.082-.361.272-.272.454-.633.543-1.264zM250.953 78.442V69.42h1.175v3.248a2.53 2.53 0 0 1 1.895-.901c.539 0 .9.089 1.262.271.362.18.632.45.812.812.089.36.18.812.18 1.443v4.15h-1.083v-4.15c0-.541-.089-.901-.36-1.173-.271-.27-.541-.36-.992-.36-.36 0-.632.09-.992.271-.271.09-.45.361-.543.631-.178.271-.178.722-.178 1.173v3.609h-1.176zM257.991 70.773V69.42h1.082v1.354h-1.082v-.001zm0 7.669v-6.497h1.082v6.497h-1.082zM265.028 77.631c-.451.36-.812.631-1.262.722-.181.09-.362.18-.543.18v-.812c.271-.09.543-.18.722-.271a1.76 1.76 0 0 0 .812-.812c.091-.18.091-.541.091-1.083v-.36c-.36.09-.902.27-1.624.36v-.902c.722-.09 1.264-.181 1.624-.361.091-.181.091-.271.091-.271 0-.451-.182-.812-.361-.992a2.336 2.336 0 0 0-1.262-.361h-.092v-.901h.271c.541 0 .992.089 1.353.179.361.18.632.361.722.542.182.181.271.451.362.722.089.181.089.542.089.992v1.535c0 .992 0 1.624.091 1.895 0 .27.09.542.27.812h-1.172c-.091-.272-.182-.543-.182-.813zm-1.805.902h-.631c-.722 0-1.264-.09-1.624-.452-.361-.36-.632-.812-.632-1.353 0-.361.091-.632.271-.903.09-.271.27-.451.543-.631.27-.181.539-.271.812-.361.179 0 .541-.09.991-.18h.271v.902h-.089c-.451.09-.812.181-.994.271-.179.09-.358.181-.451.361-.089.09-.179.271-.179.542s.179.541.36.721c.27.181.541.271.992.271h.36v.812zm0-5.865c-.449 0-.812.091-1.083.27-.179.181-.358.542-.54.993l-1.084-.18c.181-.452.271-.813.543-1.083.18-.271.541-.542.992-.631.36-.181.723-.181 1.172-.271v.902zM267.644 69.42h1.173v9.022h-1.173zM276.397 77.45l.181.993c-.362 0-.632.09-.903.09-.36 0-.63-.09-.901-.18-.18-.18-.36-.361-.451-.542-.089-.18-.181-.632-.181-1.263v-3.79h-.812v-.813h.812v-1.624l1.173-.631v2.255h1.083v.813h-1.083v4.421c.089.09.089.181.181.271h.901zM281.72 78.442v-.992c-.54.723-1.172 1.083-2.075 1.083-.36 0-.721 0-1.083-.18-.27-.18-.541-.361-.723-.542-.179-.271-.27-.542-.36-.812v-5.053h1.083v4.782c.089.271.271.451.451.632.271.18.541.271.903.271.27 0 .632-.09.901-.271.27-.181.451-.361.632-.632.091-.361.18-.722.18-1.354v-3.429h1.083v6.497h-.992zM287.224 71.767h.091c.359 0 .811.089 1.082.271.36.18.721.36.902.631.27.361.45.723.541 1.083.181.451.181.902.181 1.353 0 1.083-.271 1.985-.812 2.527-.541.631-1.173.902-1.984.902v-.902c.45 0 .812-.181 1.173-.542.36-.451.54-1.082.54-1.894 0-.903-.18-1.534-.54-1.896-.271-.361-.723-.631-1.173-.631v-.902zm-1.805 6.675h-.992V69.42h1.082v3.248c.451-.542.994-.812 1.715-.901v.901c-.541 0-.903.27-1.264.631-.36.452-.541 1.083-.541 1.804 0 .812.09 1.354.361 1.715.36.542.812.812 1.353.812h.091v.902c-.813 0-1.354-.271-1.805-.902v.812zM295.884 76.367l1.084.09c-.181.722-.452 1.173-.992 1.534-.452.361-1.084.542-1.805.542h-.091v-.902h.091c.36 0 .721-.09.992-.271.272-.181.542-.541.721-.993zm-1.803-4.6c.812 0 1.534.359 2.075.901.632.631.903 1.443.903 2.527v.27h-2.979v-.902h1.804c-.089-.542-.18-.992-.449-1.264-.36-.361-.813-.631-1.354-.631v-.901zm0 6.766c-.992 0-1.713-.271-2.256-.812-.541-.632-.812-1.444-.812-2.526 0-1.083.271-1.896.902-2.527a2.985 2.985 0 0 1 2.165-.901v.901c-.543 0-.901.181-1.262.542-.362.361-.543.812-.632 1.354h1.894v.902h-1.894c0 .722.27 1.264.632 1.624.27.361.719.542 1.262.542v.901zM298.323 78.442v-6.497h.992v.992c.27-.451.54-.812.721-.901.271-.181.451-.271.721-.271.362 0 .723.179 1.175.359l-.452.993c-.271-.09-.541-.181-.812-.181-.181 0-.452.091-.632.181-.181.18-.271.361-.36.632-.181.36-.181.812-.181 1.263v3.429h-1.172zM305.178 71.767c.903 0 1.624.271 2.167.901.63.542.901 1.354.901 2.436 0 .812-.181 1.445-.36 1.985a2.738 2.738 0 0 1-1.175 1.083c-.449.27-.99.36-1.533.36v-.902c.543 0 .992-.181 1.354-.542.36-.451.542-1.082.542-1.985 0-.721-.182-1.353-.542-1.804-.361-.361-.811-.631-1.354-.631v-.901zm-3.067 3.428c0-1.173.36-2.076.992-2.708.632-.45 1.264-.721 2.075-.721v.901c-.542 0-.993.27-1.353.631-.36.452-.542 1.083-.542 1.896s.182 1.443.542 1.894c.359.361.811.542 1.353.542v.902c-.9 0-1.624-.271-2.164-.812-.634-.631-.903-1.443-.903-2.525zM309.058 76.458l1.082-.181c.092.452.271.812.542 1.083.27.18.632.271 1.173.271.451 0 .902-.09 1.083-.271.271-.181.36-.452.36-.723a.812.812 0 0 0-.271-.631c-.179-.091-.54-.181-1.172-.361-.812-.181-1.353-.361-1.623-.542-.361-.09-.542-.27-.724-.541a1.536 1.536 0 0 1-.27-.902c0-.27.091-.542.182-.812.179-.271.36-.452.541-.632.179-.091.449-.18.721-.271.27-.09.632-.179.992-.179.451 0 .903.089 1.353.271.362.089.634.27.812.542.182.271.271.631.362.992l-1.084.18c0-.36-.18-.632-.36-.813-.271-.179-.632-.27-.992-.27-.54 0-.902.091-1.083.27-.271.181-.36.361-.36.633 0 .09 0 .271.089.36.092.09.271.18.452.271.089.09.451.181.992.271.812.271 1.354.361 1.624.541.271.09.542.271.723.542.18.271.271.632.271.993 0 .36-.091.721-.361.992-.181.36-.45.632-.901.812-.361.18-.812.18-1.354.18-.812 0-1.533-.09-1.894-.452a2.413 2.413 0 0 1-.905-1.623zM315.826 70.773V69.42h1.081v1.354h-1.081v-.001zm0 7.669v-6.497h1.081v6.497h-1.081zM320.968 77.45l.181.993c-.36 0-.632.09-.812.09-.451 0-.721-.09-.994-.18-.178-.18-.36-.361-.449-.542-.091-.18-.091-.632-.091-1.263v-3.79h-.811v-.813h.811v-1.624l1.083-.631v2.255h1.083v.813h-1.083v4.421c.091.09.091.181.182.271h.9zM321.96 80.969l-.089-1.083c.27.091.449.091.63.091.271 0 .451 0 .542-.091a.694.694 0 0 0 .359-.36c.093-.09.271-.36.362-.811 0-.091.091-.181.091-.271l-2.438-6.497h1.174l1.353 3.791c.181.451.36.901.452 1.443.18-.451.271-.992.451-1.443l1.443-3.791h1.083l-2.438 6.587c-.27.722-.54 1.173-.632 1.444-.18.36-.449.632-.721.812s-.541.271-.902.271c-.179-.001-.448-.001-.72-.092zM238.233 117.691h.63l3.699 9.022h-1.353l-1.084-2.707h-1.893v-.992h1.532l-.902-2.527c-.27-.631-.452-1.174-.63-1.623v-1.173zm-4.063 9.023l3.429-9.022h.634v1.173-.181c-.183.541-.273 1.081-.543 1.713l-.992 2.618h1.535v.992h-1.807l-.992 2.707h-1.264zM243.375 126.714v-6.497h.99v.902c.452-.723 1.173-1.083 2.076-1.083.36 0 .721.09 1.083.181.27.18.541.36.721.542.181.27.271.541.36.812v5.143h-1.081v-3.971c0-.451 0-.812-.091-.992a.925.925 0 0 0-.452-.542c-.27-.181-.54-.181-.81-.181-.452 0-.903.091-1.173.362-.362.36-.542.901-.542 1.713v3.61h-1.081zM254.561 126.714v-.994c-.451.722-1.172 1.084-2.075 1.084-.358 0-.721-.09-1.081-.181-.271-.182-.541-.36-.723-.542-.179-.27-.27-.541-.361-.812v-5.052h1.084v3.608c0 .541 0 .902.089 1.083 0 .36.182.542.451.721.183.183.453.273.812.273.271 0 .632-.091.902-.273.27-.179.541-.451.632-.721s.181-.721.181-1.262v-3.43h1.083v6.497h-.994zM256.819 124.728l1.081-.18c.091.451.271.812.541.992.271.271.723.362 1.174.362.541 0 .901-.091 1.173-.273.181-.27.362-.451.362-.721s-.182-.451-.362-.63c-.181-.091-.541-.182-1.083-.362-.812-.181-1.442-.362-1.714-.541-.271-.091-.542-.36-.723-.632-.18-.271-.271-.542-.271-.812 0-.271.091-.541.271-.812.092-.271.271-.451.541-.632.182-.091.362-.271.632-.361.362-.09.632-.09.992-.09.543 0 .994.09 1.354.181.362.18.632.36.812.632.182.271.361.632.361.992l-.993.18a1.769 1.769 0 0 0-.452-.812c-.27-.181-.54-.271-.992-.271-.541 0-.901.091-1.083.271-.27.182-.36.362-.36.542 0 .181.091.27.182.45.09.091.179.182.36.271.181 0 .45.089.992.271.812.181 1.354.36 1.624.541.361.091.543.27.723.541.179.271.27.541.27.902 0 .45-.091.723-.27 1.084-.272.36-.542.54-.993.721-.361.182-.812.271-1.354.271-.812 0-1.443-.181-1.895-.541-.451-.271-.721-.812-.9-1.534zM234.713 180.849l1.081-.091c.092.451.181.812.452 1.083.18.27.451.541.901.722.362.18.812.271 1.354.271.451 0 .812-.091 1.172-.18.36-.183.632-.36.812-.543.182-.27.182-.54.182-.811s0-.542-.182-.723c-.181-.18-.452-.36-.812-.54-.27-.091-.812-.271-1.624-.452-.812-.182-1.353-.36-1.715-.542-.449-.27-.719-.541-.99-.812-.181-.361-.271-.722-.271-1.173s.091-.811.36-1.264c.271-.36.632-.632 1.175-.901.449-.18.99-.271 1.624-.271.63 0 1.262.092 1.713.361.541.18.903.451 1.174.902.27.452.45.903.45 1.444l-1.083.089c-.09-.63-.27-.992-.631-1.353-.361-.271-.902-.36-1.623-.36-.723 0-1.175.089-1.535.36-.362.271-.542.541-.542.901 0 .362.18.633.36.812.271.273.813.452 1.806.634.992.27 1.624.451 1.984.63.543.182.903.542 1.173.903.272.36.36.812.36 1.263 0 .45-.088.901-.36 1.354-.27.451-.722.721-1.173.993-.541.179-1.173.36-1.804.36-.812 0-1.444-.182-1.986-.36a3.996 3.996 0 0 1-1.352-1.085 3.097 3.097 0 0 1-.45-1.621zM247.616 182.923c-.453.36-.813.633-1.174.723-.27.089-.452.18-.631.18v-.812l.811-.271a2.74 2.74 0 0 0 .723-.721c.09-.271.181-.632.181-1.173v-.36c-.45.179-.992.27-1.714.36v-.902c.722-.09 1.264-.181 1.714-.361v-.271c0-.45-.181-.722-.362-.901-.27-.271-.721-.36-1.262-.36h-.09v-.994h.27c.541 0 .994.091 1.354.271.36.089.632.271.723.449.18.182.36.452.36.723.089.181.089.541.089 1.083v1.444c0 .992 0 1.624.091 1.894 0 .271.092.542.271.812h-1.174a1.798 1.798 0 0 1-.18-.813zm-1.805.902c-.182 0-.451.091-.633.091-.721 0-1.264-.182-1.624-.542s-.632-.812-.632-1.353c0-.271.091-.632.271-.903.091-.27.36-.451.542-.63.27-.091.539-.271.812-.362.179 0 .54-.089.99-.089l.272-.091v.902l-.091.09c-.451 0-.812.091-.993.18-.179.091-.361.182-.452.362-.089.179-.179.36-.179.541 0 .271.179.541.361.721.27.181.542.271.992.271h.361v.812h.003zm0-5.772c-.451 0-.812.089-.993.27-.27.18-.452.451-.632.902l-.992-.091c.091-.541.182-.902.451-1.173.181-.271.541-.451.992-.631.362-.09.723-.181 1.174-.271v.994zM254.561 181.39l1.085.091a3.15 3.15 0 0 1-.902 1.803c-.543.362-1.084.633-1.807.633-.901 0-1.622-.36-2.164-.902-.541-.543-.812-1.443-.812-2.525 0-.632.091-1.264.36-1.806.271-.541.543-.903 1.084-1.173.451-.27.993-.451 1.532-.451.723 0 1.264.182 1.715.542.452.36.722.901.903 1.533l-1.083.181a1.775 1.775 0 0 0-.543-.992c-.27-.181-.631-.361-.992-.361-.539 0-.992.271-1.353.632-.27.361-.451.992-.451 1.896 0 .901.091 1.533.451 1.894s.813.632 1.353.632c.452 0 .723-.181 1.085-.451.27-.273.45-.635.539-1.176zM256.545 183.734v-6.494h.994v.991c.27-.452.451-.812.723-.901.179-.181.45-.271.721-.271.362 0 .722.182 1.082.36l-.36 1.083c-.271-.18-.541-.271-.812-.271-.27 0-.451.091-.63.182-.182.18-.362.36-.453.63-.089.36-.179.813-.179 1.264v3.428h-1.086zM265.028 183.734v-.992c-.541.813-1.262 1.174-2.075 1.174-.36 0-.722-.091-1.082-.271-.36-.09-.542-.271-.721-.541-.182-.182-.273-.451-.362-.812-.091-.183-.091-.543-.091-.993v-4.06h1.085v3.608c0 .541.089.992.089 1.173.091.271.27.541.452.632.27.18.54.27.812.27.36 0 .632-.09.992-.27.27-.183.45-.36.542-.632.179-.362.179-.722.179-1.264v-3.518h1.173v6.494h-.993zM267.735 183.734v-6.494h.992v.901c.182-.271.451-.541.812-.723.271-.27.723-.36 1.172-.36.452 0 .812.182 1.175.36.271.182.449.451.631.812.541-.722 1.173-1.173 1.985-1.173.631 0 1.172.182 1.534.542.27.36.45.901.45 1.714v4.42h-1.084v-4.058c0-.452 0-.812-.089-.994-.091-.181-.181-.36-.36-.451a1.704 1.704 0 0 0-.721-.179c-.452 0-.812.179-1.085.449-.359.271-.45.812-.45 1.444v3.788h-1.083v-4.24c0-.451-.091-.812-.271-1.081-.18-.271-.541-.36-.901-.36-.362 0-.632.089-.902.27-.27.18-.45.36-.541.721-.09.271-.182.723-.182 1.354v3.337h-1.082z"/><path fill="none" stroke="#000" stroke-width=".37" d="M230.02 29.721L78.443 39.465M229.479 74.292l-87.518 20.391M230.02 122.924l-110.344-1.805M230.02 180.037l-100.6-15.79"/></svg>