<svg version="1.1" xmlns="http://www.w3.org/2000/svg" x="0" y="0" width="327.375" height="190.9" viewBox="0 0 327.375 190.9" xml:space="preserve"><path stroke="#000" stroke-width=".033" stroke-linecap="round" stroke-linejoin="round" d="M141.961 95.134l10.917-.091c-2.437-1.804-3.429-3.97-2.797-7.037l-8.12 7.128zM122.834 163.706l9.744 4.872c-1.263-2.707-1.173-5.054.723-7.489l-10.467 2.617zM117.33 120.938l10.286 3.882c-1.624-2.618-1.715-4.963-.091-7.579l-10.195 3.697zM76.819 39.736l10.376 3.428c-1.715-2.436-1.985-4.782-.361-7.489l-10.015 4.061z"/><path fill="none" stroke="#000" stroke-width="2.96" d="M95.405 189.42c51.699 0 93.833-42.225 93.833-94.015 0-51.699-42.135-93.925-93.833-93.925-51.79 0-93.925 42.226-93.925 93.925 0 51.79 42.135 94.015 93.925 94.015z"/><g stroke="#000" stroke-width=".74"><path fill="none" d="M110.112 109.029v20.391M105.06 110.384l10.194 17.681M101.27 114.172l17.683 10.194M99.917 119.225h20.39M101.27 124.366l17.683-10.194M105.06 128.065l10.194-17.681"/><path fill="#FFF" d="M110.472 123.465c1.985 0 3.699-1.714 3.699-3.789 0-1.983-1.714-3.698-3.699-3.698-2.075 0-3.699 1.715-3.699 3.698 0 2.075 1.624 3.789 3.699 3.789z"/></g><path fill="#FFF" stroke="#000" stroke-width="1.112" stroke-dasharray="5.5587,3.3352,1.1118,3.3352" d="M73.3 108.126c3.249-1.44 7.308.632 9.022 4.513l7.128 16.24c1.715 3.97.451 8.392-2.797 9.743-3.249 1.444-7.398-.54-9.113-4.511l-7.127-16.239c-1.715-3.971-.452-8.302 2.887-9.746zM126.442 79.074c3.248-1.443 7.398.632 9.113 4.511l7.127 16.239c1.715 3.973.452 8.393-2.887 9.746-3.248 1.443-7.308-.541-9.022-4.51l-7.128-16.242c-1.714-3.97-.451-8.3 2.797-9.744z"/><path fill="none" stroke="#000" stroke-width="1.112" stroke-dasharray="5.5587,3.3352,1.1118,3.3352" d="M110.833 188.337c4.962-17.864 7.398-35.817 7.398-53.773 14.346 12.812 29.504 20.571 45.022 25.984"/><path fill="none" stroke="#000" stroke-width="1.112" d="M1.391 92.789c19.128-8.392 38.346-13.083 57.473-7.85M79.255 87.736c-8.481 2.436-17.233 3.519-22.736-7.939-2.527-5.323-.452-11.278 5.142-16.691 4.511-4.332 9.293-5.233 13.895-3.249 1.714-6.767 5.864-10.465 12.541-11.098 5.414-.541 10.287 1.805 14.437 7.399 5.594 7.669 1.895 14.436-6.044 20.842M103.886 58.051c.361-19.397 6.677-36.991 15.79-53.863"/><path fill="none" stroke="#000" stroke-width="1.112" d="M63.555 62.202C60.127 53.54 53.089 45.781 53.27 36.217c.181-3.97 3.249-9.474 9.744-6.045 9.113 4.783 14.707 12.271 17.685 21.835"/><path d="M239.314 31.796v-1.083h3.789v3.338c-.541.451-1.174.812-1.806.992-.63.271-1.264.361-1.894.361-.902 0-1.715-.18-2.437-.542a3.53 3.53 0 0 1-1.624-1.624c-.361-.722-.541-1.534-.541-2.437 0-.812.18-1.624.541-2.436a3.53 3.53 0 0 1 1.624-1.624c.63-.361 1.441-.542 2.345-.542.633 0 1.265.09 1.713.271.543.18.994.541 1.265.9.271.361.543.812.724 1.444l-1.084.271a5.804 5.804 0 0 0-.541-1.083c-.18-.271-.451-.451-.812-.632-.36-.089-.812-.18-1.265-.18-.541 0-.992.091-1.442.271-.36.09-.632.36-.901.631-.271.271-.453.542-.543.902-.271.542-.359 1.083-.359 1.805 0 .812.09 1.444.359 1.984.271.542.723.903 1.264 1.173.451.271 1.084.452 1.625.452s.992-.181 1.535-.361c.448-.18.81-.36 1.08-.632v-1.624h-2.615v.005zM249.148 33.24l1.172.09c-.18.632-.539 1.173-.991 1.534-.54.361-1.083.542-1.896.542h-.09v-.902h.09c.451 0 .812-.09 1.084-.271.272-.272.452-.542.631-.993zm-1.804-4.602h.09c.812 0 1.534.271 2.075.901.542.542.812 1.444.812 2.527v.27h-2.977v-.901h1.805c0-.542-.181-.992-.359-1.265-.362-.451-.812-.632-1.354-.632h-.09v-.9h-.002zm0 6.767c-.902 0-1.623-.271-2.166-.812-.541-.632-.812-1.443-.812-2.525 0-1.083.271-1.896.812-2.527.543-.631 1.264-.901 2.166-.901v.901c-.451 0-.902.182-1.172.542-.361.271-.543.723-.634 1.354h1.806v.901h-1.806c0 .723.183 1.265.542 1.624.361.36.812.542 1.264.542v.901zM251.675 35.315v-6.497h.992v.901c.452-.722 1.173-1.082 2.076-1.082.36 0 .721.09 1.081.18.359.18.543.36.721.632.184.181.273.451.362.812.09.182.09.542.09.993v4.061h-1.082v-3.972c0-.449-.091-.812-.183-.991a.922.922 0 0 0-.449-.542c-.18-.18-.451-.18-.723-.18-.539 0-.901.089-1.264.451-.361.271-.541.812-.541 1.624v3.609l-1.08.001zM258.712 27.556v-1.264h1.083v1.264h-1.083zm0 7.759v-6.497h1.083v6.497h-1.083zM263.855 34.322l.181.993c-.36 0-.632.09-.812.09-.449 0-.722-.09-.992-.18-.18-.182-.36-.361-.449-.542-.094-.182-.094-.633-.094-1.265V29.63h-.812v-.812h.812v-1.624l1.086-.632v2.256h1.08v.812h-1.08v4.421c.088.091.088.181.179.181.091.09.271.09.45.09h.451zM269.178 34.503c-.451.361-.812.541-1.174.723-.179.09-.359.09-.63.18v-.902c.271 0 .541-.09.812-.181.271-.18.541-.45.724-.812.09-.271.181-.631.181-1.083v-.359c-.361.089-.994.27-1.715.359v-.901c.812-.09 1.354-.271 1.715-.361v-.27c0-.451-.091-.812-.361-.993a2.001 2.001 0 0 0-1.172-.361h-.182v-.901h.27c.635 0 .994.09 1.354.18.36.18.632.271.812.542.182.18.271.451.36.722v2.527c0 .992 0 1.623.093 1.894.088.271.18.541.271.812h-1.175c-.091-.274-.183-.545-.183-.815zm-1.803.902h-.632c-.724 0-1.265-.18-1.624-.451-.362-.361-.542-.812-.542-1.354 0-.361.092-.634.18-.903.183-.271.362-.451.543-.631.271-.182.54-.271.812-.361.271-.09.543-.09.992-.181h.271v.901h-.09c-.453.091-.812.182-.992.271-.182.09-.271.181-.453.361-.089.09-.089.27-.089.45 0 .361.089.542.271.812.271.181.633.271.994.271.178 0 .271 0 .359-.09v.905zm0-5.865c-.451 0-.812.091-.994.271-.27.181-.449.542-.541.993l-1.083-.181c.091-.452.271-.812.452-1.083.271-.27.542-.542.992-.631.361-.18.723-.271 1.174-.271v.902zM271.887 26.292h1.082v9.022h-1.082zM274.682 27.556v-1.264h1.084v1.264h-1.084zm0 7.759v-6.497h1.084v6.497h-1.084zM281.721 34.503c-.451.361-.812.541-1.173.723-.183.09-.362.09-.632.18v-.902c.27 0 .541-.09.811-.181.271-.18.543-.45.724-.812.091-.271.18-.631.18-1.083v-.359c-.36.089-.991.27-1.713.359v-.901c.812-.09 1.353-.271 1.713-.361v-.27c0-.451-.089-.812-.36-.993a1.996 1.996 0 0 0-1.172-.361h-.181v-.901h.271c.541 0 .994.09 1.354.18.359.18.63.271.811.542.183.18.271.451.361.722v2.527c0 .992 0 1.623.092 1.894 0 .271.178.541.27.812h-1.172c-.094-.274-.184-.545-.184-.815zm-1.804.902h-.632c-.723 0-1.264-.18-1.624-.451-.362-.361-.542-.812-.542-1.354 0-.361.091-.634.18-.903.182-.271.362-.451.541-.631.271-.182.542-.271.812-.361.272-.09.543-.09.994-.181h.271v.901h-.091c-.452.091-.812.182-.992.271-.184.09-.271.181-.452.361-.089.09-.089.27-.089.45 0 .361.089.542.27.812.271.181.633.271.992.271.182 0 .271 0 .362-.09v.905zm0-5.865c-.453 0-.813.091-.992.271-.272.181-.452.542-.543.993l-1.083-.181c.092-.452.271-.812.451-1.083.271-.27.543-.542.992-.631.361-.18.722-.271 1.175-.271v.902zM235.346 69.42h1.17v9.022h-1.17zM238.05 76.458l1.083-.181c0 .452.182.812.452 1.083.271.18.722.271 1.172.271.541 0 .901-.09 1.173-.271s.36-.452.36-.723c0-.271-.089-.451-.36-.632-.091-.091-.541-.181-1.08-.36-.814-.182-1.354-.361-1.717-.542a1.416 1.416 0 0 1-.723-.541c-.09-.271-.178-.542-.178-.902 0-.27 0-.542.178-.812.092-.271.271-.452.543-.633.18-.091.359-.18.721-.271.271-.09.543-.179.903-.179.542 0 .991.089 1.353.271.36.089.721.271.903.542.181.271.271.631.36.992l-1.082.18c-.092-.359-.182-.632-.453-.812-.27-.18-.539-.271-.99-.271-.543 0-.902.091-1.083.271-.181.181-.362.36-.362.633 0 .09.092.271.182.36.091.09.271.18.451.271.09.09.361.181.901.271.812.271 1.354.36 1.624.541.36.09.633.271.812.542.091.271.182.632.182.992s-.091.722-.271.992c-.182.36-.541.632-.901.812-.45.18-.903.18-1.444.18-.812 0-1.443-.09-1.895-.452-.453-.359-.723-.901-.814-1.622zM248.969 76.007l1.082.181c-.091.722-.451 1.354-.902 1.714-.543.452-1.082.632-1.805.632-.902 0-1.623-.271-2.166-.812-.541-.633-.812-1.444-.812-2.526 0-.722.183-1.264.36-1.804.272-.542.633-.903 1.084-1.174s.992-.45 1.533-.45c.723 0 1.262.179 1.715.541.451.36.723.901.901 1.533l-1.081.181c-.091-.451-.273-.812-.543-.992-.271-.271-.542-.361-.902-.361-.631 0-1.082.182-1.354.631-.359.361-.542.993-.542 1.896 0 .812.183 1.534.45 1.894.363.361.812.542 1.355.542.449 0 .811-.09 1.081-.36.274-.274.456-.635.546-1.266zM250.953 78.442V69.42h1.175v3.248a2.529 2.529 0 0 1 1.896-.9c.539 0 .899.089 1.262.271.361.18.632.45.812.812.088.359.18.812.18 1.442v4.15h-1.084v-4.15c0-.541-.088-.9-.359-1.173-.271-.27-.541-.36-.992-.36-.359 0-.632.091-.992.271-.271.09-.449.361-.543.631-.178.271-.178.722-.178 1.173v3.609h-1.176v-.002zM257.991 70.773V69.42h1.081v1.354l-1.081-.001zm0 7.669v-6.497h1.081v6.497h-1.081zM265.027 77.631c-.45.36-.812.631-1.262.723-.181.09-.361.18-.543.18v-.812c.271-.091.543-.181.723-.271.361-.18.632-.451.812-.812.091-.181.091-.541.091-1.083v-.36c-.359.09-.902.27-1.623.36v-.902c.721-.09 1.264-.181 1.623-.361.092-.181.092-.271.092-.271 0-.451-.183-.812-.361-.992a2.34 2.34 0 0 0-1.262-.361h-.092v-.9h.271c.541 0 .991.089 1.353.179.361.18.633.361.723.542.182.181.271.451.361.722.09.182.09.542.09.992v1.535c0 .992 0 1.624.09 1.895 0 .271.091.542.271.812h-1.172c-.093-.274-.185-.545-.185-.815zm-1.804.902h-.631c-.722 0-1.264-.09-1.624-.452-.36-.359-.632-.812-.632-1.353 0-.361.092-.632.271-.903.09-.271.27-.451.543-.631.27-.181.539-.271.812-.361.179 0 .541-.09.991-.18h.271v.902h-.09c-.451.09-.812.181-.994.271-.179.09-.357.181-.451.361-.088.09-.178.271-.178.542s.178.541.359.721c.27.181.541.271.992.271h.359v.812h.002zm0-5.865c-.449 0-.812.091-1.082.271-.18.181-.359.542-.541.993l-1.084-.181c.182-.452.271-.812.543-1.083.18-.271.541-.542.992-.631.36-.181.723-.181 1.172-.271v.902zM267.645 69.42h1.172v9.022h-1.172zM276.396 77.45l.182.993c-.362 0-.633.09-.903.09-.36 0-.63-.09-.901-.18-.18-.181-.359-.361-.451-.542-.088-.181-.18-.633-.18-1.264v-3.79h-.812v-.812h.812v-1.624l1.172-.631v2.255h1.084v.812h-1.084v4.421c.09.091.09.182.182.271h.361l.538.001zM281.721 78.442v-.992c-.541.723-1.173 1.083-2.076 1.083-.359 0-.721 0-1.082-.18-.271-.181-.541-.361-.724-.542-.179-.271-.271-.542-.36-.812v-5.053h1.084v4.782c.088.271.271.451.451.632.271.18.541.271.902.271.27 0 .632-.09.9-.271a2.13 2.13 0 0 0 .633-.632c.091-.361.18-.723.18-1.354v-3.429h1.083v6.497h-.991zM287.225 71.767h.09c.359 0 .812.089 1.082.271.36.18.722.36.902.631.27.361.45.724.541 1.083.182.451.182.902.182 1.354 0 1.083-.271 1.984-.812 2.526-.541.632-1.173.902-1.984.902v-.902c.45 0 .812-.181 1.174-.542.359-.45.539-1.082.539-1.894 0-.903-.18-1.534-.539-1.896-.271-.36-.724-.631-1.174-.631v-.902h-.001zm-1.806 6.675h-.991V69.42h1.081v3.248c.451-.542.994-.812 1.716-.9v.9c-.541 0-.904.271-1.265.631-.36.452-.541 1.083-.541 1.805 0 .812.09 1.354.36 1.715.361.542.812.812 1.354.812h.092v.902c-.813 0-1.354-.271-1.806-.902v.811zM295.884 76.367l1.085.09c-.182.723-.453 1.173-.992 1.534-.453.361-1.084.542-1.806.542h-.091v-.902h.091c.36 0 .722-.09.992-.271.273-.181.542-.541.721-.993zm-1.803-4.6c.812 0 1.534.358 2.075.9.632.631.902 1.443.902 2.527v.27h-2.979v-.901h1.804c-.089-.542-.18-.992-.448-1.265-.36-.36-.813-.631-1.354-.631v-.9zm0 6.766c-.992 0-1.713-.271-2.256-.812-.541-.633-.812-1.444-.812-2.526 0-1.083.271-1.896.901-2.527a2.986 2.986 0 0 1 2.165-.9v.9c-.543 0-.9.182-1.262.542-.362.361-.543.812-.633 1.354h1.895v.901h-1.895c0 .723.271 1.265.633 1.624.27.361.719.542 1.262.542l.002.902zM298.322 78.442v-6.497h.992v.992c.271-.451.541-.812.722-.901.271-.181.45-.271.721-.271.362 0 .724.179 1.175.358l-.451.993c-.271-.09-.541-.181-.812-.181-.182 0-.452.091-.632.181-.181.18-.271.361-.36.632-.181.36-.181.812-.181 1.263v3.43l-1.174.001zM305.178 71.767c.903 0 1.625.271 2.168.9.629.542.9 1.354.9 2.437 0 .812-.182 1.444-.359 1.984a2.74 2.74 0 0 1-1.176 1.083c-.449.271-.99.36-1.533.36v-.901c.543 0 .992-.181 1.354-.542.36-.45.542-1.082.542-1.984 0-.722-.182-1.354-.542-1.805-.361-.36-.812-.631-1.354-.631v-.901zm-3.067 3.428c0-1.173.359-2.076.992-2.708.631-.45 1.264-.721 2.074-.721v.9c-.541 0-.992.271-1.353.631-.36.452-.542 1.083-.542 1.896 0 .812.182 1.443.542 1.894.358.361.812.542 1.353.542v.902c-.9 0-1.623-.271-2.164-.812-.633-.63-.902-1.442-.902-2.524zM309.059 76.458l1.082-.181c.092.452.271.812.541 1.083.271.18.633.271 1.174.271.451 0 .901-.09 1.082-.271.271-.181.36-.452.36-.723a.815.815 0 0 0-.271-.632c-.18-.091-.541-.181-1.172-.36-.812-.182-1.354-.361-1.623-.542-.361-.09-.543-.271-.725-.541a1.536 1.536 0 0 1-.27-.902c0-.27.091-.542.182-.812a3.85 3.85 0 0 1 .541-.633c.18-.091.449-.18.721-.271.271-.09.633-.179.992-.179.451 0 .903.089 1.354.271.361.089.634.271.812.542.183.271.271.631.362.992l-1.084.18c0-.359-.18-.632-.36-.812-.271-.18-.632-.271-.991-.271-.541 0-.902.091-1.084.271-.271.181-.359.36-.359.633 0 .09 0 .271.089.36.092.09.271.18.452.271.089.09.451.181.992.271.812.271 1.354.36 1.623.541.271.09.543.271.724.542.18.271.271.632.271.992s-.091.722-.361.992c-.18.36-.449.632-.9.812-.361.18-.812.18-1.354.18-.812 0-1.533-.09-1.895-.452a2.401 2.401 0 0 1-.905-1.622zM315.826 70.773V69.42h1.08v1.354l-1.08-.001zm0 7.669v-6.497h1.08v6.497h-1.08zM320.968 77.45l.181.993c-.359 0-.631.09-.812.09-.45 0-.722-.09-.994-.18-.178-.181-.36-.361-.448-.542-.092-.181-.092-.633-.092-1.264v-3.79h-.811v-.812h.811v-1.624l1.084-.631v2.255h1.082v.812h-1.082v4.421c.09.091.09.182.182.271h.449l.45.001zM321.96 80.969l-.089-1.083c.27.092.449.092.63.092.271 0 .451 0 .542-.092a.692.692 0 0 0 .359-.359c.093-.09.271-.36.361-.812 0-.091.092-.181.092-.271l-2.438-6.497h1.174l1.353 3.791c.182.451.361.901.453 1.443.18-.451.271-.992.451-1.443l1.442-3.791h1.083l-2.438 6.587c-.271.722-.541 1.173-.633 1.444-.18.359-.449.632-.721.812s-.541.271-.902.271c-.178-.001-.447-.001-.719-.092zM238.232 117.691h.631l3.699 9.021h-1.354l-1.084-2.707h-1.893v-.991h1.531l-.902-2.527c-.27-.631-.451-1.174-.629-1.623v-1.173h.001zm-4.062 9.023l3.43-9.021h.633v1.173-.181c-.183.541-.272 1.081-.543 1.713l-.992 2.618h1.535v.991h-1.807l-.992 2.707h-1.264zM243.375 126.714v-6.497h.99v.902c.451-.723 1.173-1.083 2.076-1.083.359 0 .721.09 1.082.181.271.181.541.36.722.542.181.271.271.541.36.812v5.143h-1.082v-3.971c0-.451 0-.812-.09-.992a.927.927 0 0 0-.453-.542c-.27-.181-.539-.181-.81-.181-.452 0-.903.091-1.173.362-.361.359-.542.9-.542 1.713v3.609l-1.08.002zM254.561 126.714v-.994c-.451.723-1.172 1.085-2.074 1.085-.358 0-.721-.091-1.082-.182-.27-.182-.541-.359-.723-.542-.179-.27-.27-.541-.361-.812v-5.053h1.084v3.608c0 .541 0 .902.09 1.083 0 .36.182.542.451.721.183.184.453.273.812.273.271 0 .632-.091.902-.273.271-.179.541-.451.632-.721s.182-.721.182-1.262v-3.431h1.082v6.497l-.995.003zM256.818 124.728l1.082-.181c.091.451.271.812.541.992.271.271.723.362 1.174.362.541 0 .9-.091 1.173-.273.181-.27.362-.451.362-.721s-.183-.451-.362-.63c-.181-.091-.541-.182-1.083-.362-.812-.181-1.441-.361-1.714-.541-.271-.091-.542-.359-.724-.632-.18-.271-.271-.542-.271-.812 0-.271.091-.541.271-.812.092-.271.271-.451.541-.632.183-.091.362-.271.633-.361.361-.09.631-.09.992-.09.543 0 .993.09 1.354.181.361.181.632.36.812.633.182.271.36.632.36.991l-.993.181a1.777 1.777 0 0 0-.451-.812c-.271-.181-.541-.271-.992-.271-.541 0-.901.091-1.084.271-.27.183-.359.362-.359.542 0 .182.091.271.182.45.09.091.18.182.36.271.181 0 .45.089.991.271.812.181 1.354.36 1.625.541.361.091.543.271.723.541.18.271.27.541.27.902 0 .449-.09.723-.27 1.084-.271.359-.542.54-.993.721-.36.182-.812.271-1.354.271-.812 0-1.442-.181-1.895-.54-.451-.272-.721-.813-.901-1.535zM234.713 180.849l1.081-.092c.093.451.181.812.452 1.083.18.271.451.541.9.723.362.18.812.271 1.354.271.451 0 .812-.091 1.172-.18.36-.183.632-.36.812-.543.183-.271.183-.54.183-.812 0-.271 0-.542-.183-.723-.18-.18-.451-.36-.812-.54-.271-.091-.812-.271-1.624-.452s-1.354-.359-1.715-.542c-.449-.27-.719-.541-.99-.812a2.495 2.495 0 0 1-.271-1.173c0-.451.092-.812.361-1.265.271-.359.631-.632 1.174-.9.449-.181.99-.271 1.625-.271.629 0 1.262.092 1.713.361.541.18.902.451 1.174.901.27.452.449.903.449 1.444l-1.082.089c-.09-.63-.271-.992-.631-1.353-.361-.271-.902-.36-1.623-.36-.724 0-1.176.089-1.535.36-.362.271-.543.541-.543.9 0 .362.181.634.361.812.271.272.812.452 1.805.634.992.271 1.625.451 1.984.63.543.183.903.542 1.174.903.271.36.359.812.359 1.263 0 .45-.088.901-.359 1.354-.271.451-.723.721-1.174.993-.541.179-1.173.359-1.804.359-.812 0-1.444-.182-1.985-.359a4.012 4.012 0 0 1-1.353-1.086 3.09 3.09 0 0 1-.449-1.617zM247.616 182.923c-.453.36-.813.634-1.175.724-.27.089-.451.18-.631.18v-.812c.271-.092.541-.182.812-.271.271-.18.541-.449.724-.721.09-.271.18-.632.18-1.173v-.36c-.449.179-.991.27-1.713.36v-.902c.722-.09 1.264-.181 1.713-.361v-.271c0-.45-.18-.723-.361-.901-.27-.271-.721-.359-1.262-.359h-.09v-.994h.27c.541 0 .994.091 1.354.271.36.089.633.271.724.449.18.182.36.452.36.723.088.182.088.541.088 1.083v1.444c0 .992 0 1.624.092 1.894 0 .271.092.542.271.812h-1.175a1.8 1.8 0 0 1-.181-.815zm-1.805.902c-.182 0-.451.091-.633.091-.721 0-1.264-.182-1.623-.542-.361-.359-.633-.812-.633-1.353 0-.271.092-.632.271-.903.091-.27.359-.451.541-.63.271-.091.539-.271.812-.362.18 0 .54-.089.99-.089l.271-.091v.902l-.09.09c-.451 0-.812.091-.994.18-.179.091-.36.182-.451.362-.09.179-.18.359-.18.541 0 .271.18.541.361.721.27.181.542.271.992.271h.361v.812h.005zm0-5.773c-.451 0-.812.09-.992.271-.271.18-.452.451-.633.902l-.992-.092c.092-.541.183-.901.451-1.173.182-.271.541-.451.992-.631.362-.09.723-.181 1.174-.271v.994zM254.561 181.39l1.086.091a3.155 3.155 0 0 1-.902 1.803c-.543.362-1.084.633-1.807.633a2.983 2.983 0 0 1-2.164-.901c-.541-.543-.812-1.443-.812-2.525 0-.632.092-1.264.359-1.806.271-.541.543-.903 1.084-1.174.451-.27.994-.45 1.533-.45.723 0 1.264.182 1.715.542.451.359.722.9.902 1.532l-1.082.182a1.778 1.778 0 0 0-.543-.992c-.271-.181-.632-.361-.992-.361-.539 0-.992.271-1.354.633-.27.36-.451.991-.451 1.896 0 .901.092 1.533.451 1.894s.812.633 1.354.633c.451 0 .723-.182 1.084-.451.27-.276.451-.638.539-1.179zM256.545 183.734v-6.494h.994v.991c.27-.452.451-.812.723-.901.18-.181.45-.271.721-.271.363 0 .723.182 1.082.359l-.359 1.083c-.271-.18-.541-.271-.812-.271-.27 0-.451.091-.629.182-.183.18-.363.36-.453.63-.09.36-.18.813-.18 1.265v3.428l-1.087-.001zM265.027 183.734v-.992c-.541.813-1.262 1.174-2.074 1.174-.359 0-.723-.091-1.082-.271-.359-.09-.542-.271-.721-.541-.183-.183-.273-.451-.362-.812-.091-.183-.091-.543-.091-.993v-4.06h1.084v3.608c0 .541.09.991.09 1.173.091.271.27.541.451.632.271.18.541.27.812.27.36 0 .633-.09.992-.27.27-.184.45-.36.542-.632.179-.362.179-.723.179-1.265v-3.518h1.174v6.494h-.994v.003zM267.734 183.734v-6.494h.992v.901c.183-.271.451-.541.812-.724.271-.27.723-.359 1.172-.359.452 0 .812.182 1.176.359.27.183.448.451.631.812.541-.723 1.172-1.173 1.984-1.173.631 0 1.172.182 1.534.542.271.359.45.9.45 1.714v4.42h-1.084v-4.059c0-.451 0-.812-.09-.993s-.181-.36-.359-.451a1.708 1.708 0 0 0-.721-.18c-.453 0-.812.18-1.086.449-.358.271-.449.812-.449 1.444v3.788h-1.084v-4.24c0-.451-.09-.812-.271-1.081-.18-.271-.54-.36-.901-.36s-.631.09-.901.271c-.271.18-.45.36-.541.721-.09.271-.183.724-.183 1.354v3.337l-1.081.002z"/><path fill="none" stroke="#000" stroke-width=".37" d="M230.02 29.721L78.443 39.465M229.479 74.292l-87.518 20.391M230.02 122.924l-110.344-1.805M230.02 180.037l-100.6-15.79"/></svg>