<svg version="1.1" id="Layer_1" xmlns="http://www.w3.org/2000/svg" x="0" y="0" viewBox="0 0 453.5 399.9" xml:space="preserve"><style type="text/css">.st0,.st1,.st2{fill:none;stroke:#000;stroke-miterlimit:10}.st1,.st2{stroke-dasharray:6.0936,6.0936}.st2{stroke-dasharray:5.9735,5.9735}.st3{fill:#fff}.st4{fill:#58595b}.st5{fill:#d1d3d4;stroke:#000;stroke-miterlimit:10}.st6{fill:#77787b}</style><path class="st0" d="M203.5 355.3v3h-3"/><path class="st1" d="M194.4 358.3H75.5"/><path class="st0" d="M72.5 358.3h-3v-3"/><path class="st2" d="M69.5 349.3V197"/><path class="st0" d="M69.5 194v-3h3"/><path class="st1" d="M78.6 191h118.8"/><path class="st0" d="M200.5 191h3v3"/><path class="st2" d="M203.5 199.9v152.4"/><path class="st3" d="M189.8 201.2h23.4v128.3h-23.4z"/><ellipse class="st4" cx="84.8" cy="111.9" rx="58.2" ry="38.8"/><ellipse class="st4" cx="231.3" cy="49" rx="58.2" ry="38.8"/><ellipse class="st4" cx="377.9" cy="111.9" rx="58.2" ry="38.8"/><path class="st3" d="M33.1 104.3c0-2.3 1.2-3.7 2.9-3.7s2.9 1.4 2.9 3.7c0 2.3-1.2 3.7-2.9 3.7s-2.9-1.3-2.9-3.7zm4.3 0c0-1.4-.5-2.3-1.4-2.3s-1.4.8-1.4 2.3.5 2.3 1.4 2.3 1.4-.8 1.4-2.3zM41.2 102.1h-1.7v-1.4h4.9v1.4h-1.7v5.8h-1.4v-5.8zM45.4 100.8h1.4v2.8H49v-2.8h1.4v7.2H49v-3h-2.2v3h-1.4v-7.2zM51.9 100.8h3.9v1.4h-2.5v1.4h2.1v1.4h-2.1v1.7h2.6v1.4h-4v-7.3zM57.2 100.8h2.3c1.3 0 2.4.5 2.4 2.2 0 1.6-1.1 2.4-2.4 2.4h-.8v2.6h-1.4v-7.2zm2.1 3.3c.7 0 1.2-.4 1.2-1.1 0-.7-.4-.9-1.2-.9h-.7v2h.7zm-.1.8l1-1 2 4h-1.6l-1.4-3zM65 100.8h2.2c1.4 0 2.5.6 2.5 2.3 0 1.7-1.1 2.4-2.5 2.4h-.8v2.4H65v-7.1zm2.2 3.4c.8 0 1.2-.4 1.2-1.1 0-.8-.4-1-1.2-1h-.7v2.2h.7zM70.8 100.8h2.3c1.3 0 2.4.5 2.4 2.2 0 1.6-1.1 2.4-2.4 2.4h-.8v2.6h-1.4v-7.2zm2.2 3.3c.7 0 1.2-.4 1.2-1.1 0-.7-.4-.9-1.2-.9h-.7v2h.7zm-.2.8l1-1 2 4h-1.6l-1.4-3zM76.4 104.3c0-2.3 1.2-3.7 2.9-3.7s2.9 1.4 2.9 3.7c0 2.3-1.2 3.7-2.9 3.7s-2.9-1.3-2.9-3.7zm4.3 0c0-1.4-.5-2.3-1.4-2.3s-1.4.8-1.4 2.3.5 2.3 1.4 2.3 1.4-.8 1.4-2.3zM83.3 100.8h4v1.4h-2.5v1.7H87v1.4h-2.2v2.8h-1.4v-7.3zM88.4 100.8h3.9v1.4h-2.5v1.4H92v1.4h-2.1v1.7h2.6v1.4h-4v-7.3zM93.3 107l.8-1.1c.4.4 1 .7 1.5.7.6 0 .9-.3.9-.7 0-.5-.4-.6-.9-.9l-.8-.4c-.7-.3-1.3-.9-1.3-2 0-1.2.9-2.1 2.2-2.1.7 0 1.5.3 2 .9l-.7 1c-.4-.4-.8-.6-1.3-.6s-.8.2-.8.6c0 .4.4.6 1 .8l.8.4c.8.4 1.2.9 1.2 2 0 1.2-.9 2.2-2.4 2.2-.7.3-1.6-.1-2.2-.8zM98.7 107l.8-1.1c.4.4 1 .7 1.5.7.6 0 .9-.3.9-.7 0-.5-.4-.6-.9-.9l-.8-.4c-.7-.3-1.3-.9-1.3-2 0-1.2.9-2.1 2.2-2.1.7 0 1.5.3 2 .9l-.7 1c-.4-.4-.8-.6-1.3-.6s-.8.2-.8.6c0 .4.4.6 1 .8l.8.4c.8.4 1.2.9 1.2 2 0 1.2-.9 2.2-2.4 2.2-.7.3-1.6-.1-2.2-.8zM104.5 100.8h1.4v7.2h-1.4v-7.2zM107.1 104.3c0-2.3 1.2-3.7 2.9-3.7s2.9 1.4 2.9 3.7c0 2.3-1.2 3.7-2.9 3.7s-2.9-1.3-2.9-3.7zm4.2 0c0-1.4-.5-2.3-1.4-2.3s-1.4.8-1.4 2.3.5 2.3 1.4 2.3 1.4-.8 1.4-2.3zM114 100.8h1.5l1.6 3.6.6 1.6c-.1-.8-.2-1.8-.2-2.6v-2.5h1.4v7.2h-1.5l-1.6-3.6-.6-1.6c.1.8.2 1.8.2 2.6v2.5H114v-7.2zM121.6 100.8h1.7l2 7.2h-1.5l-.8-3.6c-.2-.7-.3-1.6-.5-2.3-.2.8-.3 1.6-.5 2.3l-.8 3.6h-1.5l1.9-7.2zm-.7 4.2h3v1.3h-3V105zM125.9 100.8h1.4v5.8h2.5v1.4h-3.9v-7.2zM130.5 107l.8-1.1c.4.4 1 .7 1.5.7.6 0 .9-.3.9-.7 0-.5-.4-.6-.9-.9l-.8-.4c-.7-.3-1.3-.9-1.3-2 0-1.2.9-2.1 2.2-2.1.7 0 1.5.3 2 .9l-.7 1c-.4-.4-.8-.6-1.3-.6s-.8.2-.8.6c0 .4.4.6 1 .8l.8.4c.8.4 1.2.9 1.2 2 0 1.2-.9 2.2-2.4 2.2-.6.3-1.5-.1-2.2-.8zM59.2 114h1.4v5.8h2.5v1.4h-3.9V114zM65.4 114h1.7l2 7.2h-1.5l-.8-3.6c-.2-.7-.3-1.6-.5-2.3-.2.8-.3 1.6-.5 2.3l-.8 3.6h-1.5l1.9-7.2zm-.7 4.2h3v1.3h-3v-1.3zM70.9 118.6L69 114h1.5l.6 1.6c.2.5.3 1 .5 1.6.2-.6.4-1.1.5-1.6l.6-1.6h1.5l-1.9 4.6v2.6h-1.4v-2.6zM76.5 117.6c0-2.4 1.4-3.8 3-3.8.8 0 1.5.4 1.9.9l-.8 1c-.3-.3-.7-.6-1.1-.6-.9 0-1.5.9-1.5 2.3 0 1.5.6 2.3 1.5 2.3.5 0 .9-.3 1.2-.7l.8 1c-.5.7-1.2 1.1-2 1.1-1.7.2-3-1.1-3-3.5zM83.6 114h1.7l2 7.2h-1.5l-.8-3.6c-.2-.7-.3-1.6-.5-2.3-.2.8-.3 1.6-.5 2.3l-.8 3.6h-1.5l1.9-7.2zm-.7 4.2h3v1.3h-3v-1.3zM88 114h2.3c1.3 0 2.4.5 2.4 2.2 0 1.6-1.1 2.4-2.4 2.4h-.8v2.6H88V114zm2.1 3.3c.7 0 1.2-.4 1.2-1.1 0-.7-.4-.9-1.2-.9h-.7v2h.7zm-.1.8l1-1 2 4h-1.6l-1.4-3zM93.9 114h3.9v1.4h-2.5v1.4h2.1v1.4h-2.1v1.7h2.6v1.4h-4V114zM99.2 114h2.3c1.3 0 2.4.5 2.4 2.2 0 1.6-1.1 2.4-2.4 2.4h-.8v2.6h-1.4V114zm2.1 3.3c.7 0 1.2-.4 1.2-1.1 0-.7-.4-.9-1.2-.9h-.7v2h.7zm-.1.8l1-1 2 4h-1.6l-1.4-3zM104.7 120.2l.8-1.1c.4.4 1 .7 1.5.7.6 0 .9-.3.9-.7 0-.5-.4-.6-.9-.9l-.8-.4c-.7-.3-1.3-.9-1.3-2 0-1.2.9-2.1 2.2-2.1.7 0 1.5.3 2 .9l-.7 1c-.4-.4-.8-.6-1.3-.6s-.8.2-.8.6c0 .4.4.6 1 .8l.8.4c.8.4 1.2.9 1.2 2 0 1.2-.9 2.2-2.4 2.2-.7.3-1.6-.1-2.2-.8zM64.9 133.4l.8-1.1c.4.4 1 .7 1.5.7.6 0 .9-.3.9-.7 0-.5-.4-.6-.9-.9l-.8-.4c-.7-.3-1.3-.9-1.3-2 0-1.2.9-2.1 2.2-2.1.7 0 1.5.3 2 .9l-.7 1c-.4-.4-.8-.6-1.3-.6s-.8.2-.8.6c0 .4.4.6 1 .8l.8.4c.8.4 1.2.9 1.2 2 0 1.2-.9 2.2-2.4 2.2-.7.3-1.6-.1-2.2-.8zM70.3 130.8c0-2.4 1.4-3.8 3-3.8.8 0 1.5.4 1.9.9l-.8 1c-.3-.3-.7-.6-1.1-.6-.9 0-1.5.9-1.5 2.3 0 1.5.6 2.3 1.5 2.3.5 0 .9-.3 1.2-.7l.8 1c-.5.7-1.2 1.1-2 1.1-1.6.2-3-1.1-3-3.5zM76.3 127.2h1.4v2.8h2.2v-2.8h1.4v7.2h-1.4v-3h-2.2v3h-1.4v-7.2zM82.5 130.7c0-2.3 1.2-3.7 2.9-3.7s2.9 1.4 2.9 3.7c0 2.3-1.2 3.7-2.9 3.7s-2.9-1.3-2.9-3.7zm4.2 0c0-1.4-.5-2.3-1.4-2.3s-1.4.8-1.4 2.3.5 2.3 1.4 2.3 1.4-.8 1.4-2.3zM89.1 130.7c0-2.3 1.2-3.7 2.9-3.7s2.9 1.4 2.9 3.7c0 2.3-1.2 3.7-2.9 3.7s-2.9-1.3-2.9-3.7zm4.3 0c0-1.4-.5-2.3-1.4-2.3s-1.4.8-1.4 2.3.5 2.3 1.4 2.3 1.4-.8 1.4-2.3zM96 127.2h1.4v5.8h2.5v1.4H96v-7.2zM100.6 133.4l.8-1.1c.4.4 1 .7 1.5.7.6 0 .9-.3.9-.7 0-.5-.4-.6-.9-.9l-.8-.4c-.7-.3-1.3-.9-1.3-2 0-1.2.9-2.1 2.2-2.1.7 0 1.5.3 2 .9l-.7 1c-.4-.4-.8-.6-1.3-.6s-.8.2-.8.6c0 .4.4.6 1 .8l.8.4c.8.4 1.2.9 1.2 2 0 1.2-.9 2.2-2.4 2.2-.7.3-1.6-.1-2.2-.8z"/><g><path class="st3" d="M218.7 48.5c0-2.4 1.4-3.8 3-3.8.8 0 1.5.4 1.9.9l-.8 1c-.3-.3-.7-.6-1.1-.6-.9 0-1.5.9-1.5 2.3 0 1.5.6 2.3 1.5 2.3.5 0 .9-.3 1.2-.7l.8 1c-.5.7-1.2 1.1-2 1.1-1.7.1-3-1.1-3-3.5zM224.6 44.8h1.4v2.8h2.2v-2.8h1.4V52h-1.4v-3H226v3h-1.4v-7.2zM231.1 44.8h1.4V52h-1.4v-7.2zM234 44.8h1.4v5.8h2.5V52H234v-7.2zM239 44.8h1.8c1.9 0 3.2 1.1 3.2 3.6s-1.2 3.6-3.1 3.6H239v-7.2zm1.7 5.9c1.1 0 1.8-.6 1.8-2.3s-.7-2.2-1.8-2.2h-.3v4.6h.3z"/></g><g><path class="st3" d="M362 101.7h4v1.4h-2.5v1.7h2.2v1.4h-2.2v2.8H362v-7.3zM368.3 101.7h1.7l2 7.2h-1.5l-.8-3.6c-.2-.7-.3-1.6-.5-2.3-.2.8-.3 1.6-.5 2.3l-.8 3.6h-1.5l1.9-7.2zm-.7 4.2h3v1.3h-3v-1.3zM372.6 101.7h1.6l1 3.2c.1.4.2.9.4 1.3.1-.4.2-.9.4-1.3l1-3.2h1.6v7.2h-1.3v-2.6c0-.7.1-1.7.2-2.4l-.5 1.7-.9 2.7h-.8l-.9-2.7-.5-1.7c.1.7.2 1.7.2 2.4v2.6h-1.3v-7.2zM380 101.7h1.4v7.2H380v-7.2zM382.9 101.7h1.4v5.8h2.5v1.4h-3.9v-7.2zM389 106.3l-1.9-4.6h1.5l.6 1.6c.2.5.3 1 .5 1.6.2-.6.4-1.1.5-1.6l.6-1.6h1.5l-1.9 4.6v2.6H389v-2.6zM394.3 101.1h.9l-1.9 9.6h-.9l1.9-9.6zM352.1 118.5c0-2.4 1.4-3.8 3-3.8.8 0 1.5.4 1.9.9l-.8 1c-.3-.3-.7-.6-1.1-.6-.9 0-1.5.9-1.5 2.3 0 1.5.6 2.3 1.5 2.3.5 0 .9-.3 1.2-.7l.8 1c-.5.7-1.2 1.1-2 1.1-1.6.2-3-1.1-3-3.5zM359.2 114.9h1.7l2 7.2h-1.5l-.8-3.6c-.2-.7-.3-1.6-.5-2.3-.2.8-.3 1.6-.5 2.3l-.8 3.6h-1.5l1.9-7.2zm-.7 4.2h3v1.3h-3v-1.3zM363.6 114.9h2.3c1.3 0 2.4.5 2.4 2.2 0 1.6-1.1 2.4-2.4 2.4h-.9v2.6h-1.4v-7.2zm2.1 3.3c.7 0 1.2-.4 1.2-1.1 0-.7-.4-.9-1.2-.9h-.7v2h.7zm-.1.9l1-1 2 4H367l-1.4-3zM369.5 114.9h3.9v1.4h-2.5v1.4h2.1v1.4h-2.1v1.7h2.6v1.4h-4v-7.3zM374.5 118.5c0-2.4 1.4-3.8 3.1-3.8.9 0 1.6.4 2 .9l-.8 1c-.3-.3-.6-.6-1.2-.6-1 0-1.7.9-1.7 2.3 0 1.5.6 2.3 1.8 2.3.3 0 .5-.1.7-.2v-1.2h-1V118h2.3v3.3c-.4.5-1.2.9-2.1.9-1.7 0-3.1-1.3-3.1-3.7zM381 114.9h1.4v7.2H381v-7.2zM383.1 114.9h1.5l.8 3.3c.2.8.3 1.5.5 2.3.2-.8.3-1.5.5-2.3l.7-3.3h1.5l-1.9 7.2H385l-1.9-7.2zM389.3 114.9h3.9v1.4h-2.5v1.4h2.1v1.4h-2.1v1.7h2.6v1.4h-4v-7.3zM394.6 114.9h2.3c1.3 0 2.4.5 2.4 2.2 0 1.6-1.1 2.4-2.4 2.4h-.9v2.6h-1.4v-7.2zm2.1 3.3c.7 0 1.2-.4 1.2-1.1 0-.7-.4-.9-1.2-.9h-.7v2h.7zm-.1.9l1-1 2 4H398l-1.4-3zM400.1 121.2l.8-1.1c.4.4 1 .7 1.5.7.6 0 .9-.3.9-.7 0-.5-.4-.6-.9-.9l-.8-.4c-.7-.3-1.3-.9-1.3-2 0-1.2.9-2.1 2.2-2.1.7 0 1.5.3 2 .9l-.7 1c-.4-.4-.8-.6-1.3-.6s-.8.2-.8.6c0 .4.4.6 1 .8l.8.4c.8.4 1.2.9 1.2 2 0 1.2-.9 2.2-2.4 2.2-.7.2-1.6-.2-2.2-.8z"/></g><path class="st5" d="M173.1 149.2h116.5v64.9H173.1zM173.1 235h116.5v64.9H173.1zM173.1 320.8h116.5v64.9H173.1z"/><g><path d="M206.8 182.8c0-1.9 1.1-3.1 2.6-3.1.8 0 1.3.4 1.6.7l-.4.5c-.3-.3-.6-.6-1.2-.6-1.1 0-1.8.9-1.8 2.4s.7 2.4 1.8 2.4c.4 0 .8-.1 1-.3v-1.5h-1.2v-.6h1.8v2.5c-.4.4-1 .7-1.7.7-1.5 0-2.5-1.1-2.5-3.1zM213.5 179.9h.8l1.9 5.9h-.8l-1-3.3c-.2-.7-.4-1.3-.6-2-.2.7-.4 1.3-.6 2l-1 3.3h-.7l2-5.9zm-.9 3.5h2.6v.6h-2.6v-.6zM218.1 180.5h-1.7v-.6h4.1v.6h-1.7v5.3h-.7v-5.3zM221.5 179.9h.7v2.5h2.6v-2.5h.7v5.9h-.7V183h-2.6v2.8h-.7v-5.9zM227.1 179.9h3.2v.6h-2.5v1.9h2.1v.6h-2.1v2.1h2.6v.6h-3.3v-5.8zM231.5 179.9h1.7c1.1 0 1.9.4 1.9 1.7 0 1.2-.8 1.7-1.9 1.7h-1v2.5h-.7v-5.9zm1.7 2.8c.9 0 1.3-.4 1.3-1.1 0-.8-.5-1.1-1.3-1.1h-.9v2.2h.9zm-.1.4l.6-.4 1.7 3.1h-.8l-1.5-2.7zM238.1 179.9h1.4c1.7 0 2.6 1.1 2.6 2.9s-.9 3-2.6 3h-1.4v-5.9zm1.3 5.3c1.3 0 2-.9 2-2.4s-.6-2.3-2-2.3h-.6v4.7h.6zM244.4 179.9h.8l1.9 5.9h-.8l-1-3.3c-.2-.7-.4-1.3-.6-2-.2.7-.4 1.3-.6 2l-1 3.3h-.7l2-5.9zm-.9 3.5h2.6v.6h-2.6v-.6zM249.1 180.5h-1.7v-.6h4.1v.6h-1.7v5.3h-.7v-5.3zM253.6 179.9h.8l1.9 5.9h-.8l-1-3.3c-.2-.7-.4-1.3-.6-2-.2.7-.4 1.3-.6 2l-1 3.3h-.7l2-5.9zm-.9 3.5h2.6v.6h-2.6v-.6z"/></g><g><path d="M215.3 260.3h1.6c1.2 0 2.1.4 2.1 1.7 0 1.2-.8 1.8-2.1 1.8h-.9v2.3h-.7v-5.8zm1.5 2.9c1 0 1.4-.4 1.4-1.2 0-.9-.5-1.1-1.5-1.1h-.7v2.3h.8zM220.1 260.3h1.7c1.1 0 1.9.4 1.9 1.7 0 1.2-.8 1.7-1.9 1.7h-1v2.5h-.7v-5.9zm1.6 2.8c.9 0 1.3-.4 1.3-1.1 0-.8-.5-1.1-1.3-1.1h-.9v2.2h.9zm0 .4l.6-.4 1.7 3.1h-.8l-1.5-2.7zM224.6 263.2c0-1.9 1-3 2.4-3s2.4 1.2 2.4 3c0 1.9-1 3.1-2.4 3.1s-2.4-1.2-2.4-3.1zm4 0c0-1.5-.7-2.4-1.6-2.4s-1.6.9-1.6 2.4.7 2.4 1.6 2.4 1.6-.9 1.6-2.4zM230.2 263.3c0-1.9 1.1-3.1 2.5-3.1.7 0 1.2.3 1.5.7l-.4.5c-.3-.3-.7-.6-1.1-.6-1.1 0-1.8.9-1.8 2.4s.7 2.4 1.7 2.4c.5 0 .9-.2 1.3-.7l.4.5c-.4.5-1 .9-1.7.9-1.4 0-2.4-1.1-2.4-3zM235.4 260.3h3.2v.6h-2.5v1.9h2.1v.6h-2.1v2.1h2.6v.6h-3.3v-5.8zM239.5 265.4l.4-.5c.4.4 1 .7 1.5.7.7 0 1.2-.4 1.2-1s-.4-.8-.9-1l-.8-.4c-.5-.2-1.1-.7-1.1-1.5 0-.9.7-1.6 1.8-1.6.7 0 1.2.3 1.6.7l-.4.5c-.3-.3-.7-.6-1.3-.6-.6 0-1 .3-1 .9 0 .6.5.8.9 1l.8.4c.6.3 1.1.7 1.1 1.6 0 .9-.7 1.7-1.9 1.7-.8 0-1.5-.3-1.9-.9zM244 265.4l.4-.5c.4.4 1 .7 1.5.7.7 0 1.2-.4 1.2-1s-.4-.8-.9-1l-.8-.4c-.5-.2-1.1-.7-1.1-1.5 0-.9.7-1.6 1.8-1.6.7 0 1.2.3 1.6.7l-.4.5c-.3-.3-.7-.6-1.3-.6-.6 0-1 .3-1 .9 0 .6.5.8.9 1l.8.4c.6.3 1.1.7 1.1 1.6 0 .9-.7 1.7-1.9 1.7-.7 0-1.4-.3-1.9-.9zM206.5 271.1h.7v5.9h-.7v-5.9zM208.8 271.1h.7l2 3.7.6 1.2c0-.6-.1-1.3-.1-1.9V271h.7v5.9h-.7l-2-3.7-.6-1.2c0 .6.1 1.2.1 1.8v3.1h-.7v-5.8zM214.3 271.1h3.2v.6H215v2h2.1v.6H215v2.6h-.7v-5.8zM218.1 274c0-1.9 1-3 2.4-3s2.4 1.2 2.4 3c0 1.9-1 3.1-2.4 3.1s-2.4-1.2-2.4-3.1zm4.1 0c0-1.5-.7-2.4-1.6-2.4s-1.6.9-1.6 2.4.7 2.4 1.6 2.4 1.6-.9 1.6-2.4zM224.1 271.1h1.7c1.1 0 1.9.4 1.9 1.7 0 1.2-.8 1.7-1.9 1.7h-1v2.5h-.7v-5.9zm1.6 2.8c.9 0 1.3-.4 1.3-1.1 0-.8-.5-1.1-1.3-1.1h-.9v2.2h.9zm0 .4l.6-.4 1.7 3.1h-.8l-1.5-2.7zM228.9 271.1h.9l1.1 3.2c.1.4.3.8.4 1.2.1-.4.3-.8.4-1.2l1.1-3.2h.9v5.9h-.7v-3.3c0-.5.1-1.2.1-1.7l-.4 1.3-1 3.1h-.7l-1.1-3.1-.4-1.3c0 .5.1 1.2.1 1.7v3.3h-.6v-5.9zM236.3 271.1h.8l1.9 5.9h-.8l-1-3.3c-.2-.7-.4-1.3-.6-2-.2.7-.4 1.3-.6 2l-1 3.3h-.7l2-5.9zm-.9 3.5h2.6v.6h-2.6v-.6zM240.9 271.7h-1.7v-.6h4.1v.6h-1.7v5.3h-.7v-5.3zM244.3 271.1h.7v5.9h-.7v-5.9zM246.2 274c0-1.9 1-3 2.4-3s2.4 1.2 2.4 3c0 1.9-1 3.1-2.4 3.1s-2.4-1.2-2.4-3.1zm4 0c0-1.5-.7-2.4-1.6-2.4s-1.6.9-1.6 2.4.7 2.4 1.6 2.4 1.6-.9 1.6-2.4zM252.1 271.1h.7l2 3.7.6 1.2c0-.6-.1-1.3-.1-1.9V271h.7v5.9h-.7l-2-3.7-.6-1.2c0 .6.1 1.2.1 1.8v3.1h-.7v-5.8z"/></g><g><path d="M204.9 347.4c0-1.9 1.1-3.1 2.5-3.1.7 0 1.2.3 1.5.7l-.4.5c-.3-.3-.7-.6-1.1-.6-1.1 0-1.8.9-1.8 2.4s.7 2.4 1.7 2.4c.5 0 .9-.2 1.3-.7l.4.5c-.4.5-1 .9-1.7.9-1.4.1-2.4-1.1-2.4-3zM209.7 347.4c0-1.9 1-3 2.4-3s2.4 1.2 2.4 3c0 1.9-1 3.1-2.4 3.1s-2.4-1.2-2.4-3.1zm4 0c0-1.5-.7-2.4-1.6-2.4s-1.6.9-1.6 2.4.7 2.4 1.6 2.4 1.6-1 1.6-2.4zM215.7 344.4h.9l1.1 3.2c.1.4.3.8.4 1.2.1-.4.3-.8.4-1.2l1.1-3.2h.9v5.9h-.7V347c0-.5.1-1.2.1-1.7l-.4 1.3-1 3.1h-.5l-1.1-3.1-.4-1.3c0 .5.1 1.2.1 1.7v3.3h-.6v-5.9zM221.8 344.4h3.2v.6h-2.5v1.9h2.1v.6h-2.1v2.1h2.6v.6h-3.3v-5.8zM228 347.9v-3.5h.7v3.5c0 1.4.6 1.9 1.3 1.9.7 0 1.3-.4 1.3-1.9v-3.5h.7v3.5c0 1.9-.9 2.5-2 2.5s-2-.6-2-2.5zM233.5 344.4h1.6c1.2 0 2.1.4 2.1 1.7 0 1.2-.8 1.8-2.1 1.8h-.9v2.3h-.7v-5.8zm1.5 3c1 0 1.4-.4 1.4-1.2 0-.9-.5-1.1-1.5-1.1h-.8v2.3h.9zM239.4 344.4h.7l.6 3.2c.1.6.2 1.3.3 1.9.1-.6.3-1.3.4-1.9l.8-3.2h.6l.8 3.2c.1.6.3 1.3.4 1.9.1-.6.2-1.3.3-1.9l.6-3.2h.7l-1.2 5.9h-.9l-.8-3.6c-.1-.5-.2-.9-.3-1.3-.1.5-.2.9-.3 1.3l-.8 3.6h-.8l-1.1-5.9zM246.7 344.4h.7v5.9h-.7v-5.9zM250.1 345.1h-1.7v-.6h4.1v.6h-1.7v5.3h-.7v-5.3zM253.5 344.4h.7v2.5h2.6v-2.5h.7v5.9h-.7v-2.8h-2.6v2.8h-.7v-5.9zM220.6 355.2h.8l1.9 5.9h-.8l-1-3.3c-.2-.7-.4-1.3-.6-2-.2.7-.4 1.3-.6 2l-1 3.3h-.7l2-5.9zm-.9 3.5h2.6v.6h-2.6v-.6zM225.7 355.2h1.6c1.2 0 2.1.4 2.1 1.7 0 1.2-.8 1.8-2.1 1.8h-.9v2.3h-.7v-5.8zm1.6 3c1 0 1.4-.4 1.4-1.2 0-.9-.5-1.1-1.5-1.1h-.8v2.3h.9zM230.5 355.2h.7v5.3h2.4v.6h-3.1v-5.9zM235.8 355.2h.8l1.9 5.9h-.8l-1-3.3c-.2-.7-.4-1.3-.6-2-.2.7-.4 1.3-.6 2l-1 3.3h-.7l2-5.9zm-.9 3.5h2.6v.6h-2.6v-.6zM239.3 355.2h.7l2 3.7.6 1.2c0-.6-.1-1.3-.1-1.9v-3.1h.7v5.9h-.7l-2-3.7-.6-1.2c0 .6.1 1.2.1 1.8v3.1h-.7v-5.8z"/></g><path class="st0" d="M119.2 148.3l46.5 25.4M342.9 148.3l-46.5 25.4M231.3 94.6v43.5"/><path d="M305.6 175.6l-1.7-2.6-1.6-2.5-1.7-2.6-1.7-2.5-5.2 10.6zM161.1 164.4l-1.2 2.8-1.3 2.8-1.2 2.7-1.2 2.8 11.7-1.3zM237.4 134.7h-3l-3.1.1h-6.1l6.1 10.1z"/><path class="st0" d="M231.3 214.1v13.5"/><path d="M237.4 224.2h-6.1l-3 .1h-3.1l6.1 10.1z"/><path class="st0" d="M231.3 299.9v13.5"/><path d="M237.4 310h-6.1l-3 .1h-3.1l6.1 10.1z"/><path class="st6" d="M149.5 259.8H95c-5.4 0-9.7-4.4-9.7-9.7v-19.5c0-5.4 4.4-9.7 9.7-9.7h54.5c5.4 0 9.7 4.4 9.7 9.7v19.5c0 5.3-4.3 9.7-9.7 9.7z"/><g><path class="st3" d="M110.4 226h.9l1.1 3.2c.1.4.3.8.4 1.2.1-.4.3-.8.4-1.2l1.1-3.2h.9v5.9h-.7v-3.3c0-.5.1-1.2.1-1.7l-.4 1.3-1 3.1h-.5l-1.1-3.1-.4-1.3c0 .5.1 1.2.1 1.7v3.3h-.6V226zM116.6 229.4V226h.7v3.5c0 1.4.6 1.9 1.3 1.9.7 0 1.3-.4 1.3-1.9V226h.7v3.5c0 1.9-.9 2.5-2 2.5-1.2 0-2-.7-2-2.6zM122.1 226h.7v5.3h2.4v.6h-3.1V226zM127.3 226.6h-1.7v-.6h4.1v.6H128v5.3h-.7v-5.3zM130.7 226h.7v5.9h-.7V226zM132.6 229.3h1.9v.6h-1.9v-.6zM98.4 236.8h1.4c1.7 0 2.6 1.1 2.6 2.9s-.9 3-2.6 3h-1.4v-5.9zm1.3 5.2c1.3 0 2-.9 2-2.4s-.6-2.3-2-2.3h-.6v4.7h.6zM103.6 236.8h.7v5.9h-.7v-5.9zM105.4 241.9l.4-.5c.4.4 1 .7 1.5.7.7 0 1.2-.4 1.2-1s-.4-.8-.9-1l-.8-.4c-.5-.2-1.1-.7-1.1-1.5 0-.9.7-1.6 1.8-1.6.7 0 1.2.3 1.6.7l-.4.5c-.3-.3-.7-.6-1.3-.6-.6 0-1 .3-1 .9 0 .6.5.8.9 1l.8.4c.6.3 1.1.7 1.1 1.6 0 .9-.7 1.7-1.9 1.7-.7 0-1.4-.4-1.9-.9zM110.1 239.7c0-1.9 1.1-3.1 2.5-3.1.7 0 1.2.3 1.5.7l-.4.5c-.3-.3-.7-.6-1.1-.6-1.1 0-1.8.9-1.8 2.4s.7 2.4 1.7 2.4c.5 0 .9-.2 1.3-.7l.4.5c-.4.5-1 .9-1.7.9-1.4.1-2.4-1.1-2.4-3zM115.2 236.8h.7v5.9h-.7v-5.9zM117.5 236.8h1.6c1.2 0 2.1.4 2.1 1.7 0 1.2-.8 1.8-2.1 1.8h-.9v2.3h-.7v-5.8zm1.5 2.9c1 0 1.4-.4 1.4-1.2 0-.9-.5-1.1-1.5-1.1h-.8v2.3h.9zM122.3 236.8h.7v5.3h2.4v.6h-3.1v-5.9zM126.4 236.8h.7v5.9h-.7v-5.9zM128.6 236.8h.7l2 3.7.6 1.2c0-.6-.1-1.3-.1-1.9v-3.1h.7v5.9h-.7l-2-3.7-.6-1.2c0 .6.1 1.2.1 1.8v3.1h-.7v-5.8zM135.3 236.8h.8l1.9 5.9h-.8l-1-3.3c-.2-.7-.4-1.3-.6-2-.2.7-.4 1.3-.6 2l-1 3.3h-.7l2-5.9zm-.9 3.5h2.6v.6h-2.6v-.6zM138.7 236.8h1.7c1.1 0 1.9.4 1.9 1.7 0 1.2-.8 1.7-1.9 1.7h-1v2.5h-.7v-5.9zm1.7 2.8c.9 0 1.3-.4 1.3-1.1 0-.8-.5-1.1-1.3-1.1h-.9v2.2h.9zm-.1.4l.6-.4 1.7 3.1h-.8l-1.5-2.7zM144.5 240.4l-1.7-3.6h.8l.7 1.7c.2.4.3.8.5 1.3.2-.4.4-.9.6-1.3l.7-1.7h.7l-1.7 3.6v2.3h-.7v-2.3zM104.4 247.6h.9l1.1 3.2c.1.4.3.8.4 1.2.1-.4.3-.8.4-1.2l1.1-3.2h.9v5.9h-.7v-3.3c0-.5.1-1.2.1-1.7l-.4 1.3-1 3.1h-.5l-1.1-3.1-.4-1.3c0 .5.1 1.2.1 1.7v3.3h-.6v-5.9zM110.6 247.6h3.2v.6h-2.5v1.9h2.1v.6h-2.1v2.1h2.6v.6h-3.3v-5.8zM115.1 247.6h3.2v.6h-2.5v1.9h2.1v.6h-2.1v2.1h2.6v.6h-3.3v-5.8zM120.7 248.2H119v-.6h4.1v.6h-1.7v5.3h-.7v-5.3zM124.1 247.6h.7v5.9h-.7v-5.9zM126.3 247.6h.7l2 3.7.6 1.2c0-.6-.1-1.3-.1-1.9v-3.1h.7v5.9h-.7l-2-3.7-.6-1.2c0 .6.1 1.2.1 1.8v3.1h-.7v-5.8zM131.5 250.5c0-1.9 1.1-3.1 2.6-3.1.8 0 1.3.4 1.6.7l-.4.5c-.3-.3-.6-.6-1.2-.6-1.1 0-1.8.9-1.8 2.4s.7 2.4 1.8 2.4c.4 0 .8-.1 1-.3V251h-1.2v-.6h1.8v2.5c-.4.4-1 .7-1.7.7-1.5 0-2.5-1.2-2.5-3.1zM136.7 252.7l.4-.5c.4.4 1 .7 1.5.7.7 0 1.2-.4 1.2-1s-.4-.8-.9-1l-.8-.4c-.5-.2-1.1-.7-1.1-1.5 0-.9.7-1.6 1.8-1.6.7 0 1.2.3 1.6.7l-.4.5c-.3-.3-.7-.6-1.3-.6-.6 0-1 .3-1 .9 0 .6.5.8.9 1l.8.4c.6.3 1.1.7 1.1 1.6 0 .9-.7 1.7-1.9 1.7-.8 0-1.5-.4-1.9-.9z"/></g><g><path d="M101.4 301.2c0-1.9 1.1-3.1 2.5-3.1.7 0 1.2.3 1.5.7l-.4.5c-.3-.3-.7-.6-1.1-.6-1.1 0-1.8.9-1.8 2.4s.7 2.4 1.7 2.4c.5 0 .9-.2 1.3-.7l.4.5c-.4.5-1 .9-1.7.9-1.3 0-2.4-1.1-2.4-3zM106.3 301.1c0-1.9 1-3 2.4-3s2.4 1.2 2.4 3c0 1.9-1 3.1-2.4 3.1s-2.4-1.2-2.4-3.1zm4 0c0-1.5-.7-2.4-1.6-2.4s-1.6.9-1.6 2.4.7 2.4 1.6 2.4 1.6-.9 1.6-2.4zM112.2 298.2h.7l2 3.7.6 1.2c0-.6-.1-1.3-.1-1.9v-3.1h.7v5.9h-.7l-2-3.7-.6-1.2c0 .6.1 1.2.1 1.8v3.1h-.7v-5.8zM118.9 298.8h-1.7v-.6h4.1v.6h-1.7v5.3h-.7v-5.3zM122.3 298.2h.7v5.9h-.7v-5.9zM124.5 298.2h.7l2 3.7.6 1.2c0-.6-.1-1.3-.1-1.9v-3.1h.7v5.9h-.7l-2-3.7-.6-1.2c0 .6.1 1.2.1 1.8v3.1h-.7v-5.8zM130 301.7v-3.5h.7v3.5c0 1.4.6 1.9 1.3 1.9.7 0 1.3-.4 1.3-1.9v-3.5h.7v3.5c0 1.9-.9 2.5-2 2.5s-2-.6-2-2.5zM136.6 298.2h.8l1.9 5.9h-.8l-1-3.3c-.2-.7-.4-1.3-.6-2-.2.7-.4 1.3-.6 2l-1 3.3h-.7l2-5.9zm-.9 3.5h2.6v.6h-2.6v-.6zM140.1 298.2h.7v5.3h2.4v.6h-3.1v-5.9zM89.6 309h1.7c1.1 0 1.9.4 1.9 1.7 0 1.2-.8 1.7-1.9 1.7h-1v2.5h-.7V309zm1.7 2.8c.9 0 1.3-.4 1.3-1.1 0-.8-.5-1.1-1.3-1.1h-.9v2.2h.9zm-.1.4l.6-.4 1.7 3.1h-.8l-1.5-2.7zM94.5 309h3.2v.6h-2.5v1.9h2.1v.6h-2.1v2.1h2.6v.6h-3.3V309zM98.5 312.4h1.9v.6h-1.9v-.6zM102.7 309h.8l1.9 5.9h-.8l-1-3.3c-.2-.7-.4-1.3-.6-2-.2.7-.4 1.3-.6 2l-1 3.3h-.7l2-5.9zm-.9 3.5h2.6v.6h-2.6v-.6zM105.8 314.1l.4-.5c.4.4 1 .7 1.5.7.7 0 1.2-.4 1.2-1s-.4-.8-.9-1l-.8-.4c-.5-.2-1.1-.7-1.1-1.5 0-.9.7-1.6 1.8-1.6.7 0 1.2.3 1.6.7l-.4.5c-.3-.3-.7-.6-1.3-.6-.6 0-1 .3-1 .9 0 .6.5.8.9 1l.8.4c.6.3 1.1.7 1.1 1.6 0 .9-.7 1.7-1.9 1.7-.7 0-1.4-.3-1.9-.9zM110.3 314.1l.4-.5c.4.4 1 .7 1.5.7.7 0 1.2-.4 1.2-1s-.4-.8-.9-1l-.8-.4c-.5-.2-1.1-.7-1.1-1.5 0-.9.7-1.6 1.8-1.6.7 0 1.2.3 1.6.7l-.4.5c-.3-.3-.7-.6-1.3-.6-.6 0-1 .3-1 .9 0 .6.5.8.9 1l.8.4c.6.3 1.1.7 1.1 1.6 0 .9-.7 1.7-1.9 1.7-.7 0-1.4-.3-1.9-.9zM115.3 309h3.2v.6H116v1.9h2.1v.6H116v2.1h2.6v.6h-3.3V309zM119.3 314.1l.4-.5c.4.4 1 .7 1.5.7.7 0 1.2-.4 1.2-1s-.4-.8-.9-1l-.8-.4c-.5-.2-1.1-.7-1.1-1.5 0-.9.7-1.6 1.8-1.6.7 0 1.2.3 1.6.7l-.4.5c-.3-.3-.7-.6-1.3-.6-.6 0-1 .3-1 .9 0 .6.5.8.9 1l.8.4c.6.3 1.1.7 1.1 1.6 0 .9-.7 1.7-1.9 1.7-.7 0-1.4-.3-1.9-.9zM123.9 314.1l.4-.5c.4.4 1 .7 1.5.7.7 0 1.2-.4 1.2-1s-.4-.8-.9-1l-.8-.4c-.5-.2-1.1-.7-1.1-1.5 0-.9.7-1.6 1.8-1.6.7 0 1.2.3 1.6.7l-.4.5c-.3-.3-.7-.6-1.3-.6-.6 0-1 .3-1 .9 0 .6.5.8.9 1l.8.4c.6.3 1.1.7 1.1 1.6 0 .9-.7 1.7-1.9 1.7-.8 0-1.4-.3-1.9-.9zM128.8 309h.9l1.1 3.2c.1.4.3.8.4 1.2.1-.4.3-.8.4-1.2l1.1-3.2h.9v5.9h-.7v-3.3c0-.5.1-1.2.1-1.7l-.4 1.3-1 3.1h-.5l-1.1-3.1-.4-1.3c0 .5.1 1.2.1 1.7v3.3h-.6V309zM135 309h3.2v.6h-2.5v1.9h2.1v.6h-2.1v2.1h2.6v.6H135V309zM139.5 309h.7l2 3.7.6 1.2c0-.6-.1-1.3-.1-1.9v-3h.7v5.9h-.7l-2-3.7-.6-1.2c0 .6.1 1.2.1 1.8v3.1h-.7V309zM146.1 309.6h-1.7v-.6h4.1v.6h-1.7v5.3h-.7v-5.3zM150.7 313.4c0-1.8 2.5-2 2.5-3.3 0-.3-.1-.7-.5-.7s-.7.4-.7.9c0 1.1 1.1 2.6 2.2 3.4.4.3.9.6 1.2.7l-.2.6c-.4-.1-.9-.4-1.5-.8-1.2-1-2.4-2.6-2.4-3.9 0-.8.5-1.4 1.3-1.4.7 0 1.1.5 1.1 1.2 0 1.5-2.4 2-2.4 3.3 0 .7.5 1.1 1.1 1.1.5 0 .9-.3 1.3-.7.5-.5.8-1.2 1-2h.6c-.2.9-.6 1.7-1.2 2.4-.5.6-1.1.9-1.8.9-.9-.1-1.6-.8-1.6-1.7zM91 322.8c0-1.9 1.1-3.1 2.5-3.1.7 0 1.2.3 1.5.7l-.4.5c-.3-.3-.7-.6-1.1-.6-1.1 0-1.8.9-1.8 2.4s.7 2.4 1.7 2.4c.5 0 .9-.2 1.3-.7l.4.5c-.4.5-1 .9-1.7.9-1.4 0-2.4-1.1-2.4-3zM95.8 322.7c0-1.9 1-3 2.4-3s2.4 1.2 2.4 3c0 1.9-1 3.1-2.4 3.1s-2.4-1.2-2.4-3.1zm4 0c0-1.5-.7-2.4-1.6-2.4s-1.6.9-1.6 2.4.7 2.4 1.6 2.4 1.6-.9 1.6-2.4zM101.8 319.8h.9l1.1 3.2c.1.4.3.8.4 1.2.1-.4.3-.8.4-1.2l1.1-3.2h.9v5.9h-.7v-3.3c0-.5.1-1.2.1-1.7l-.4 1.3-1 3.1h-.5L103 322l-.4-1.3c0 .5.1 1.2.1 1.7v3.3h-.6v-5.9zM108 319.8h.9l1.1 3.2c.1.4.3.8.4 1.2.1-.4.3-.8.4-1.2l1.1-3.2h.9v5.9h-.7v-3.3c0-.5.1-1.2.1-1.7l-.4 1.3-1 3.1h-.8l-1.1-3.1-.4-1.3c0 .5.1 1.2.1 1.7v3.3h-.6v-5.9zM114.1 323.3v-3.5h.7v3.5c0 1.4.6 1.9 1.3 1.9.7 0 1.3-.4 1.3-1.9v-3.5h.7v3.5c0 1.9-.9 2.5-2 2.5s-2-.6-2-2.5zM119.6 319.8h.7l2 3.7.6 1.2c0-.6-.1-1.3-.1-1.9v-3.1h.7v5.9h-.7l-2-3.7-.6-1.2c0 .6.1 1.2.1 1.8v3.1h-.7v-5.8zM125.1 319.8h.7v5.9h-.7v-5.9zM127 322.8c0-1.9 1.1-3.1 2.5-3.1.7 0 1.2.3 1.5.7l-.4.5c-.3-.3-.7-.6-1.1-.6-1.1 0-1.8.9-1.8 2.4s.7 2.4 1.7 2.4c.5 0 .9-.2 1.3-.7l.4.5c-.4.5-1 .9-1.7.9-1.4 0-2.4-1.1-2.4-3zM133.3 319.8h.8l1.9 5.9h-.8l-1-3.3c-.2-.7-.4-1.3-.6-2-.2.7-.4 1.3-.6 2l-1 3.3h-.7l2-5.9zm-.9 3.5h2.6v.6h-2.6v-.6zM138 320.4h-1.7v-.6h4.1v.6h-1.7v5.3h-.7v-5.3zM141.3 319.8h.7v5.9h-.7v-5.9zM143.3 322.7c0-1.9 1-3 2.4-3s2.4 1.2 2.4 3c0 1.9-1 3.1-2.4 3.1s-2.4-1.2-2.4-3.1zm4 0c0-1.5-.7-2.4-1.6-2.4s-1.6.9-1.6 2.4.7 2.4 1.6 2.4 1.6-.9 1.6-2.4zM149.2 319.8h.7l2 3.7.6 1.2c0-.6-.1-1.3-.1-1.9v-3.1h.7v5.9h-.7l-2-3.7-.6-1.2c0 .6.1 1.2.1 1.8v3.1h-.7v-5.8z"/></g></svg>