<svg version="1.1" xmlns="http://www.w3.org/2000/svg" x="0" y="0" viewBox="0 0 453.54 293.97" xml:space="preserve"><path fill="none" d="M293.62 30.42h93.62v238.01h-93.62z"/><path fill="#58595b" d="M33.93 28.93h47.33v238.01H33.93z"/><path fill="none" d="M81.26 28.93h78.52v238.01H81.26z"/><path fill="#7f8082" d="M159.78 28.93h76.54v238.01h-76.54z"/><path fill="#6f7072" d="M293.47 29.11h93.77v238.01h-93.77z"/><path fill="#d1d3d4" d="M236.31 28.93h57.16v238.01h-57.16z"/><path fill="#58595b" d="M387.24 28.93h48.03v238.01h-48.03z"/><path d="M34.66 121.93c1.52-3.73 6.88-4.53 10.42-2.58 3.54 1.95 5.64 5.69 7.42 9.3a180.18 180.18 0 0 1 12.59 33.43c3.49 13.08 7 28.5 19.44 34.03 13.61-27.07 13.98-59.51 29.14-85.75 4.5 1.86 8.2 5.56 10.03 10.05 3.24-3.46 5.41-7.9 6.15-12.57 1.32-.02 2.65-.05 3.97-.07.86 6.06 5.91 11.31 11.97 12.45 3.77-7.16 9.28-15.37 17.41-14.99 4.22.2 7.89 2.8 11.92 4.06 14.83 4.66 32.18-8.99 45.65-1.26 7.25 4.16 10.46 13.3 17.71 17.47 2.02 1.16 4.66 1.85 6.62.58 1.19-.77 1.86-2.09 2.8-3.15 3.56-4 11.3-2.61 13.23 2.37.98 2.55.83 5.88 3.16 7.34 4.68 2.92 9.11-6.32 14.59-5.6 7.03.92 4.27 15.08 11.25 16.29 4.04.7 6.7-3.9 10.03-6.28 3.92-2.8 9.45-2.48 13.77-.33 4.31 2.15 7.62 5.84 10.6 9.62 14.15 18 22.76 39.39 31.29 60.39 4.37 10.76 8.72 21.54 13.86 31.96 4.27 8.66 9.64 21.88 17.58 27.73" fill="none" stroke="#000" stroke-miterlimit="10"/><path d="M16.24 171.58v-1.42H19v-2.17h-2.76v-1.42h7.17v1.42h-2.99v2.17h2.99v1.42h-7.17zM20.69 165.47c-1.77 0-2.86-1.11-2.86-2.26 0-1.37 1.13-2.04 2.62-2.04.29 0 .58.03.71.06v2.87c.79-.13 1.16-.6 1.16-1.24 0-.36-.13-.69-.36-1.04l.98-.47c.39.49.61 1.13.61 1.7-.01 1.36-1.06 2.42-2.86 2.42zm-.6-3.09c-.6 0-1.03.23-1.03.8 0 .45.34.84 1.03.93v-1.73zM21.9 160.4c-1.15 0-1.77-.8-2-2.7-.48.03-.79.24-.79.76 0 .4.19.8.49 1.27l-1.06.5c-.42-.61-.72-1.29-.72-2.05 0-1.22.8-1.9 2.47-1.9h3.12v1.16l-.56.1v.04c.4.4.69.86.69 1.39 0 .88-.72 1.43-1.64 1.43zm-.07-2.7h-.95c.16 1.01.48 1.34.9 1.34.35 0 .52-.21.52-.55-.01-.32-.19-.54-.47-.79zM21.72 155.09h-6.01v-1.42h6.08c.35 0 .46-.14.46-.26 0-.05 0-.09-.02-.17l1.19-.17c.08.16.13.39.13.71-.01.97-.73 1.31-1.83 1.31zM21.43 152.13h-2.21v.65h-1.21l-.06-.73-1.45-.17v-1.17h1.45v-1.15h1.27v1.15h2.19c.62 0 .87-.25.87-.62 0-.16-.05-.33-.1-.46l1.17-.22c.09.25.2.6.2 1.06-.01 1.19-.86 1.66-2.12 1.66zM15.71 148.62v-1.42h1.88l.99.06c-.37-.36-.75-.83-.75-1.48 0-1.04.84-1.49 2.2-1.49h3.39v1.42h-3.18c-.79 0-1.03.18-1.03.59 0 .36.19.58.53.89h3.68v1.42h-7.71z"/><g fill="#fff"><path d="M53.9 255.32v-1.7c0-2.09 1.29-3.22 3.58-3.22s3.64 1.12 3.64 3.18v1.74H53.9zm6.46-1.64c0-1.59-1.06-2.38-2.88-2.38s-2.83.79-2.83 2.38v.77h5.71v-.77zM54.08 249.17c-.36 0-.58-.26-.58-.59s.23-.59.58-.59c.34 0 .58.26.58.59s-.23.59-.58.59zm1.69-.15v-.85h5.35v.85h-5.35zM59.73 246.78c-1.17 0-1.75-.95-2-3.1-.69 0-1.35.22-1.35 1.04 0 .58.29 1.11.57 1.5l-.62.33c-.32-.46-.7-1.17-.7-1.98 0-1.23.87-1.75 2.2-1.75h3.28v.71l-.64.07v.03c.42.48.77 1.04.77 1.67.01.84-.55 1.48-1.51 1.48zm.08-3.1h-1.49c.22 1.69.65 2.26 1.34 2.26.61 0 .86-.39.86-.88s-.25-.89-.71-1.38zM62.14 241.62c-.46 0-.89-.28-1.21-.74h-.04c-.17.26-.46.45-.88.45-.44 0-.8-.29-.99-.55h-.04c-.28.33-.8.65-1.44.65-1.17 0-1.9-.87-1.9-1.89a2 2 0 0 1 .13-.71v-1.76h.7v1.04c.24-.24.64-.41 1.1-.41 1.15 0 1.85.82 1.85 1.85 0 .25-.06.52-.18.75.16.18.34.32.63.32.34 0 .58-.21.58-.88v-.98c0-1.17.39-1.76 1.28-1.76.99 0 1.85.99 1.85 2.55 0 1.21-.52 2.07-1.44 2.07zm-4.6-3.16c-.78 0-1.25.48-1.25 1.07s.46 1.07 1.25 1.07c.78 0 1.27-.49 1.27-1.07s-.49-1.07-1.27-1.07zm4.32-.64c-.5 0-.66.35-.66 1.02v.87c0 .19-.02.43-.08.65.27.36.59.52.9.52.57 0 .94-.55.94-1.46-.01-.97-.54-1.6-1.1-1.6zM55.77 236v-.71l.77-.07v-.03c-.5-.48-.9-1-.9-1.69 0-1.06.73-1.54 2.09-1.54h3.39v.85h-3.27c-1 0-1.42.28-1.42.95 0 .52.28.87.82 1.38h3.87v.86h-5.35zM58.45 230.7c-1.78 0-2.81-1.1-2.81-2.34s1.03-2.34 2.81-2.34c1.77 0 2.8 1.1 2.8 2.34s-1.03 2.34-2.8 2.34zm0-3.79c-1.23 0-2.06.59-2.06 1.46s.83 1.46 2.06 1.46 2.05-.59 2.05-1.46c-.01-.87-.83-1.46-2.05-1.46zM60.51 225.26l-.6-.42c.37-.44.63-.88.63-1.49 0-.66-.37-.99-.83-.99-.55 0-.79.6-1.01 1.15-.27.71-.64 1.5-1.54 1.5-.86 0-1.52-.65-1.52-1.74 0-.63.27-1.18.6-1.57l.58.41c-.27.35-.48.71-.48 1.15 0 .64.36.93.77.93.51 0 .7-.55.93-1.12.29-.73.6-1.54 1.62-1.54.87 0 1.59.65 1.59 1.84 0 .73-.32 1.42-.74 1.89zM54.08 220.51c-.36 0-.58-.26-.58-.59 0-.33.23-.59.58-.59.34 0 .58.26.58.59.01.33-.23.59-.58.59zm1.69-.16v-.85h5.35v.85h-5.35zM60.51 218.36l-.6-.42c.37-.44.63-.88.63-1.49 0-.66-.37-.99-.83-.99-.55 0-.79.6-1.01 1.15-.27.71-.64 1.5-1.54 1.5-.86 0-1.52-.65-1.52-1.74 0-.63.27-1.18.6-1.57l.58.41c-.27.35-.48.71-.48 1.15 0 .64.36.93.77.93.51 0 .7-.55.93-1.12.29-.73.6-1.54 1.62-1.54.87 0 1.59.65 1.59 1.84 0 .73-.32 1.42-.74 1.89z"/></g><g fill="#fff"><path d="M190.82 255.32v-2.13c0-1.39.53-2.38 2.03-2.38 1.44 0 2.14 1 2.14 2.38v1.27h3.05v.87h-7.22zm3.43-2.01c0-1.06-.46-1.64-1.39-1.64-.95 0-1.29.58-1.29 1.64v1.14h2.68v-1.14zm.49.05l-.48-.68 3.78-2.08v.98l-3.3 1.78zM195.38 249.87c-1.74 0-2.81-1.11-2.81-2.27 0-1.29.98-2.01 2.51-2.01.19 0 .38.01.51.04v3.4c1.13-.06 1.87-.71 1.87-1.68 0-.48-.17-.88-.43-1.25l.59-.31c.31.44.55.98.55 1.67.01 1.34-1.04 2.41-2.79 2.41zm-.44-3.53c-1.07 0-1.65.46-1.65 1.24 0 .71.6 1.34 1.65 1.45v-2.69zM192.7 244.35v-.71l.78-.07v-.03c-.51-.44-.91-.97-.91-1.57 0-.77.39-1.18 1.02-1.39-.6-.52-1.02-1.05-1.02-1.66 0-1.04.73-1.53 2.09-1.53h3.39v.85h-3.27c-1 0-1.42.3-1.42.94 0 .39.27.8.82 1.26h3.87v.85h-3.27c-1 0-1.42.3-1.42.94 0 .38.27.8.82 1.26h3.87v.85h-5.35zM191.01 235.9c-.36 0-.58-.26-.58-.59 0-.33.23-.59.58-.59.34 0 .58.26.58.59.01.33-.24.59-.58.59zm1.69-.16v-.85h5.35v.85h-5.35zM197.43 233.75l-.6-.42c.37-.44.63-.88.63-1.49 0-.66-.37-.99-.83-.99-.55 0-.79.59-1.01 1.15-.27.71-.64 1.5-1.54 1.5-.86 0-1.52-.65-1.52-1.74 0-.63.27-1.18.6-1.57l.58.41c-.27.35-.48.7-.48 1.15 0 .64.36.93.77.93.51 0 .7-.55.93-1.12.29-.73.6-1.54 1.62-1.54.87 0 1.59.65 1.59 1.84.01.72-.31 1.42-.74 1.89zM197.43 229.4l-.6-.42c.37-.44.63-.88.63-1.49 0-.66-.37-.99-.83-.99-.55 0-.79.6-1.01 1.15-.27.71-.64 1.5-1.54 1.5-.86 0-1.52-.65-1.52-1.74 0-.63.27-1.18.6-1.57l.58.41c-.27.35-.48.71-.48 1.15 0 .64.36.93.77.93.51 0 .7-.55.93-1.12.29-.73.6-1.54 1.62-1.54.87 0 1.59.65 1.59 1.84.01.73-.31 1.42-.74 1.89zM191.01 224.65c-.36 0-.58-.26-.58-.59 0-.33.23-.59.58-.59.34 0 .58.26.58.59.01.33-.24.59-.58.59zm1.69-.16v-.85h5.35v.85h-5.35zM195.38 222.32c-1.78 0-2.81-1.1-2.81-2.34s1.03-2.34 2.81-2.34c1.77 0 2.8 1.1 2.8 2.34s-1.03 2.34-2.8 2.34zm0-3.79c-1.23 0-2.06.59-2.06 1.46s.83 1.46 2.06 1.46 2.05-.59 2.05-1.46c-.01-.88-.83-1.46-2.05-1.46zM192.7 216.32v-.71l.77-.07v-.03c-.5-.48-.9-1-.9-1.69 0-1.06.73-1.54 2.09-1.54h3.39v.85h-3.27c-1 0-1.42.28-1.42.95 0 .52.28.87.82 1.38h3.87v.85h-5.35z"/></g><g fill="#fff"><path d="M333.99 253.9v2.06h-.78v-4.99h.78v2.06h6.44v.87h-6.44zM337.77 250.21c-1.74 0-2.81-1.11-2.81-2.27 0-1.29.98-2.01 2.51-2.01.19 0 .38.02.51.04v3.4c1.13-.06 1.87-.71 1.87-1.68 0-.48-.17-.88-.43-1.25l.59-.31c.31.44.55.98.55 1.67 0 1.34-1.04 2.41-2.79 2.41zm-.44-3.53c-1.07 0-1.65.46-1.65 1.24 0 .71.6 1.34 1.65 1.45v-2.69zM335.08 244.69v-.71l.97-.07v-.03c-.68-.35-1.11-.87-1.11-1.43 0-.22.03-.38.11-.54l.79.16c-.06.17-.09.29-.09.49 0 .43.33.94 1.23 1.28h3.43v.85h-5.33zM335.08 241.09v-.71l.78-.07v-.03c-.51-.44-.91-.97-.91-1.57 0-.77.39-1.19 1.02-1.39-.6-.52-1.02-1.05-1.02-1.66 0-1.04.73-1.53 2.09-1.53h3.39v.85h-3.27c-1 0-1.42.3-1.42.94 0 .39.27.8.82 1.26h3.87v.85h-3.27c-1 0-1.42.3-1.42.94 0 .38.27.8.82 1.26h3.87v.85h-5.35zM333.4 232.64c-.36 0-.58-.26-.58-.59s.23-.59.58-.59c.34 0 .58.26.58.59s-.24.59-.58.59zm1.68-.16v-.85h5.35v.85h-5.35zM335.08 229.93v-.71l.77-.07v-.03c-.5-.48-.9-1-.9-1.69 0-1.06.73-1.54 2.09-1.54h3.39v.85h-3.27c-1 0-1.42.28-1.42.95 0 .52.28.87.82 1.38h3.87v.85h-5.35zM339.04 224.57c-1.17 0-1.75-.95-2-3.1-.69 0-1.35.22-1.35 1.04 0 .58.29 1.11.57 1.5l-.62.33c-.32-.46-.7-1.17-.7-1.98 0-1.23.87-1.75 2.2-1.75h3.28v.71l-.64.07v.03c.42.48.77 1.04.77 1.67.01.85-.54 1.48-1.51 1.48zm.09-3.1h-1.49c.22 1.69.65 2.26 1.34 2.26.61 0 .86-.39.86-.88s-.26-.89-.71-1.38zM339.36 219.03h-6.76v-.85h6.83c.28 0 .39-.11.39-.24 0-.05 0-.09-.02-.19l.69-.12c.05.12.08.27.08.49-.01.64-.44.91-1.21.91zM339.82 214.86l-.6-.42c.37-.44.63-.88.63-1.49 0-.66-.37-.99-.83-.99-.55 0-.79.59-1.01 1.15-.27.71-.64 1.5-1.54 1.5-.86 0-1.52-.65-1.52-1.74 0-.63.27-1.18.6-1.57l.58.41c-.27.35-.48.7-.48 1.15 0 .63.36.93.77.93.51 0 .7-.55.93-1.12.29-.73.6-1.54 1.62-1.54.87 0 1.59.65 1.59 1.84 0 .73-.32 1.42-.74 1.89zM338.78 209.81h-2.96v.75h-.69l-.05-.79-1.5-.1v-.71h1.5v-1.37h.74v1.37h2.97c.65 0 1.03-.2 1.03-.78 0-.18-.07-.41-.14-.58l.68-.17c.1.28.2.62.2.94 0 1.07-.72 1.44-1.78 1.44zM339.04 206.76c-1.17 0-1.75-.95-2-3.1-.69 0-1.35.22-1.35 1.04 0 .58.29 1.11.57 1.5l-.62.33c-.32-.46-.7-1.17-.7-1.98 0-1.23.87-1.75 2.2-1.75h3.28v.71l-.64.07v.03c.42.48.77 1.04.77 1.67.01.85-.54 1.48-1.51 1.48zm.09-3.1h-1.49c.22 1.69.65 2.26 1.34 2.26.61 0 .86-.39.86-.88 0-.48-.26-.89-.71-1.38zM341.46 201.6c-.46 0-.89-.28-1.21-.74h-.04c-.17.26-.46.45-.88.45-.44 0-.8-.29-.99-.55h-.04c-.28.33-.8.65-1.44.65-1.17 0-1.9-.87-1.9-1.89a2 2 0 0 1 .13-.71v-1.76h.7v1.04c.24-.24.64-.41 1.1-.41 1.15 0 1.85.82 1.85 1.85 0 .25-.06.52-.18.75.16.18.34.32.63.32.34 0 .58-.21.58-.88v-.98c0-1.17.39-1.76 1.28-1.76.99 0 1.85.99 1.85 2.55-.01 1.22-.52 2.07-1.44 2.07zm-4.6-3.15c-.78 0-1.25.48-1.25 1.07s.46 1.07 1.25 1.07c.78 0 1.27-.49 1.27-1.07s-.49-1.07-1.27-1.07zm4.32-.65c-.5 0-.66.35-.66 1.02v.87c0 .19-.02.43-.08.65.27.36.59.52.9.52.57 0 .94-.55.94-1.46-.01-.97-.54-1.6-1.1-1.6zM337.77 196.36c-1.74 0-2.81-1.11-2.81-2.27 0-1.29.98-2.01 2.51-2.01.19 0 .38.01.51.04v3.4c1.13-.06 1.87-.71 1.87-1.68 0-.48-.17-.88-.43-1.25l.59-.31c.31.44.55.98.55 1.67 0 1.34-1.04 2.41-2.79 2.41zm-.44-3.52c-1.07 0-1.65.46-1.65 1.24 0 .71.6 1.34 1.65 1.45v-2.69z"/></g><g><g fill="#fff"><path d="M407.54 255.32v-2.02c0-1.38.5-2.34 1.77-2.34.71 0 1.35.36 1.57 1h.04c.17-.81.74-1.38 1.73-1.38 1.42 0 2.11 1.06 2.11 2.58v2.18h-7.22zm3.07-1.88c0-1.16-.45-1.64-1.18-1.64-.84 0-1.16.54-1.16 1.6v1.05h2.34v-1.01zm3.42-.17c0-1.17-.44-1.85-1.42-1.85-.89 0-1.3.66-1.3 1.85v1.19h2.71v-1.19zM412.09 249.67c-1.74 0-2.81-1.11-2.81-2.27 0-1.29.98-2.01 2.51-2.01.19 0 .38.01.51.04v3.4c1.13-.06 1.87-.71 1.87-1.68 0-.48-.17-.88-.43-1.25l.59-.31c.31.44.55.98.55 1.67.01 1.34-1.03 2.41-2.79 2.41zm-.44-3.52c-1.07 0-1.65.46-1.65 1.24 0 .71.6 1.34 1.65 1.45v-2.69zM409.41 244.15v-.71l.97-.07v-.03c-.68-.35-1.11-.87-1.11-1.43 0-.22.03-.38.11-.54l.79.16c-.06.17-.09.29-.09.49 0 .43.33.93 1.23 1.28h3.43v.85h-5.33zM412.09 240.92c-1.74 0-2.81-1.11-2.81-2.27 0-1.29.98-2.01 2.51-2.01.19 0 .38.01.51.04v3.4c1.13-.06 1.87-.71 1.87-1.68 0-.48-.17-.88-.43-1.25l.59-.31c.31.44.55.98.55 1.67.01 1.34-1.03 2.41-2.79 2.41zm-.44-3.52c-1.07 0-1.65.46-1.65 1.24 0 .71.6 1.34 1.65 1.45v-2.69zM413.37 235.71c-1.17 0-1.75-.95-2-3.1-.69 0-1.35.22-1.35 1.04 0 .58.29 1.11.57 1.5l-.62.33c-.32-.46-.7-1.17-.7-1.98 0-1.23.87-1.75 2.2-1.75h3.28v.71l-.64.07v.03c.42.48.77 1.04.77 1.67.01.85-.55 1.48-1.51 1.48zm.08-3.09h-1.49c.22 1.69.65 2.26 1.34 2.26.61 0 .86-.39.86-.88s-.25-.9-.71-1.38zM409.41 230.9v-.88l3.04-.95c.52-.15 1.07-.31 1.58-.47v-.04c-.51-.15-1.05-.31-1.58-.46l-3.04-.95v-.84l5.35 1.78v.99l-5.35 1.82zM412.09 225.7c-1.74 0-2.81-1.11-2.81-2.27 0-1.29.98-2.01 2.51-2.01.19 0 .38.01.51.04v3.4c1.13-.06 1.87-.71 1.87-1.68 0-.48-.17-.88-.43-1.25l.59-.31c.31.44.55.98.55 1.67.01 1.34-1.03 2.41-2.79 2.41zm-.44-3.53c-1.07 0-1.65.46-1.65 1.24 0 .71.6 1.34 1.65 1.45v-2.69zM409.41 220.18v-.71l.78-.07v-.03c-.51-.44-.91-.97-.91-1.57 0-.77.39-1.18 1.02-1.39-.6-.52-1.02-1.05-1.02-1.66 0-1.04.73-1.53 2.09-1.53h3.39v.85h-3.27c-1 0-1.42.3-1.42.94 0 .39.27.8.82 1.26h3.87v.85h-3.27c-1 0-1.42.3-1.42.94 0 .38.27.8.82 1.26h3.87v.85h-5.35zM412.09 211.95c-1.74 0-2.81-1.11-2.81-2.27 0-1.29.98-2.01 2.51-2.01.19 0 .38.01.51.04v3.4c1.13-.06 1.87-.71 1.87-1.68 0-.48-.17-.88-.43-1.25l.59-.31c.31.44.55.98.55 1.67.01 1.34-1.03 2.41-2.79 2.41zm-.44-3.53c-1.07 0-1.65.46-1.65 1.24 0 .71.6 1.34 1.65 1.45v-2.69zM409.41 206.43v-.71l.77-.07v-.03c-.5-.48-.9-1-.9-1.69 0-1.06.73-1.54 2.09-1.54h3.39v.85h-3.27c-1 0-1.42.28-1.42.95 0 .52.28.87.82 1.38h3.87v.85h-5.35zM413.1 200.6h-2.96v.75h-.69l-.05-.79-1.5-.1v-.71h1.5v-1.37h.74v1.37h2.97c.65 0 1.03-.2 1.03-.78 0-.18-.07-.41-.14-.57l.68-.17c.1.28.2.62.2.94.01 1.07-.71 1.43-1.78 1.43z"/></g></g><g><path d="M114.07 253.9v2.06h-.78v-4.99h.78v2.06h6.44v.87h-6.44zM115.17 249.84v-.71l.97-.07v-.03c-.68-.35-1.11-.87-1.11-1.43 0-.22.03-.38.11-.54l.79.16c-.06.17-.09.29-.09.49 0 .43.33.94 1.23 1.28h3.43v.85h-5.33zM117.85 246.61c-1.74 0-2.81-1.11-2.81-2.27 0-1.29.98-2.01 2.51-2.01.19 0 .38.02.51.04v3.4c1.13-.06 1.87-.71 1.87-1.68 0-.48-.17-.88-.43-1.26l.59-.31c.31.44.55.98.55 1.67.01 1.35-1.03 2.42-2.79 2.42zm-.44-3.53c-1.07 0-1.65.45-1.65 1.24 0 .71.6 1.34 1.65 1.45v-2.69zM119.13 241.4c-1.17 0-1.75-.95-2-3.1-.69 0-1.35.22-1.35 1.04 0 .58.29 1.11.57 1.5l-.62.33c-.32-.46-.7-1.17-.7-1.98 0-1.23.87-1.75 2.2-1.75h3.28v.71l-.64.07v.03c.42.48.77 1.04.77 1.67.01.85-.55 1.48-1.51 1.48zm.08-3.1h-1.49c.22 1.69.65 2.26 1.34 2.26.61 0 .86-.39.86-.88s-.25-.89-.71-1.38zM118.86 235.71h-2.96v.75h-.69l-.05-.79-1.5-.1v-.71h1.5v-1.37h.74v1.37h2.97c.65 0 1.03-.2 1.03-.78 0-.18-.07-.41-.14-.57l.68-.17c.1.28.2.62.2.94.01 1.06-.71 1.43-1.78 1.43zM115.17 232.35v-.71l.78-.07v-.03c-.51-.44-.91-.97-.91-1.57 0-.77.39-1.18 1.02-1.39-.6-.52-1.02-1.05-1.02-1.66 0-1.04.73-1.53 2.09-1.53h3.39v.85h-3.27c-1 0-1.42.3-1.42.94 0 .39.27.8.82 1.26h3.87v.85h-3.27c-1 0-1.42.3-1.42.94 0 .38.27.8.82 1.26h3.87v.85h-5.35zM117.85 224.12c-1.74 0-2.81-1.11-2.81-2.27 0-1.29.98-2.01 2.51-2.01.19 0 .38.02.51.04v3.4c1.13-.06 1.87-.71 1.87-1.68 0-.48-.17-.88-.43-1.25l.59-.31c.31.44.55.98.55 1.67.01 1.34-1.03 2.41-2.79 2.41zm-.44-3.52c-1.07 0-1.65.46-1.65 1.24 0 .71.6 1.34 1.65 1.45v-2.69zM115.17 218.6v-.71l.77-.07v-.03c-.5-.48-.9-1-.9-1.69 0-1.06.73-1.54 2.09-1.54h3.39v.85h-3.27c-1 0-1.42.28-1.42.95 0 .52.28.87.82 1.38h3.87v.85h-5.35zM118.86 212.78h-2.96v.75h-.69l-.05-.79-1.5-.1v-.71h1.5v-1.37h.74v1.37h2.97c.65 0 1.03-.2 1.03-.78 0-.18-.07-.41-.14-.57l.68-.17c.1.28.2.62.2.94.01 1.06-.71 1.43-1.78 1.43z"/></g><g><path d="M257.67 255.32v-2.13c0-1.39.53-2.38 2.03-2.38 1.44 0 2.14 1 2.14 2.38v1.27h3.05v.87h-7.22zm3.43-2.01c0-1.06-.46-1.64-1.39-1.64-.95 0-1.29.58-1.29 1.64v1.14h2.68v-1.14zm.49.05l-.48-.68 3.78-2.08v.98l-3.3 1.78zM262.23 249.87c-1.74 0-2.81-1.11-2.81-2.27 0-1.29.98-2.01 2.51-2.01.19 0 .38.01.51.04v3.4c1.13-.06 1.87-.71 1.87-1.68 0-.48-.17-.88-.43-1.25l.59-.31c.31.44.55.98.55 1.67.01 1.34-1.04 2.41-2.79 2.41zm-.44-3.53c-1.07 0-1.65.46-1.65 1.24 0 .71.6 1.34 1.65 1.45v-2.69zM263.82 244.35h-6.76v-.85h6.83c.28 0 .39-.11.39-.24 0-.05 0-.09-.02-.19l.69-.12c.05.12.08.27.08.49 0 .64-.44.91-1.21.91zM263.5 242.01c-1.17 0-1.75-.95-2-3.1-.69 0-1.35.22-1.35 1.04 0 .58.29 1.11.57 1.5l-.62.33c-.32-.46-.7-1.17-.7-1.98 0-1.23.87-1.75 2.2-1.75h3.28v.71l-.64.07v.03c.42.48.77 1.04.77 1.67.02.85-.54 1.48-1.51 1.48zm.09-3.1h-1.49c.22 1.69.65 2.26 1.34 2.26.61 0 .86-.39.86-.88 0-.48-.26-.89-.71-1.38zM259.55 236.47v-.71l.62-.07v-.03c-.4-.46-.75-1.02-.75-1.61 0-1.3 1.07-2 2.72-2 1.82 0 2.89 1.03 2.89 2.18 0 .46-.23.94-.62 1.4l.93-.02h1.81v.85h-7.6zm2.6-3.53c-1.18 0-1.97.38-1.97 1.33 0 .43.25.86.73 1.35h2.8c.41-.46.56-.89.56-1.23-.01-.84-.8-1.45-2.12-1.45zM264.28 231.27l-.6-.42c.37-.44.63-.88.63-1.49 0-.66-.37-.99-.83-.99-.55 0-.79.59-1.01 1.15-.27.71-.64 1.5-1.54 1.5-.86 0-1.52-.65-1.52-1.74 0-.63.27-1.18.6-1.57l.58.41c-.27.35-.48.7-.48 1.15 0 .64.36.93.77.93.51 0 .7-.55.93-1.12.29-.73.6-1.54 1.62-1.54.87 0 1.59.65 1.59 1.84.01.72-.32 1.42-.74 1.89zM262.23 226.74c-1.74 0-2.81-1.11-2.81-2.27 0-1.29.98-2.01 2.51-2.01.19 0 .38.02.51.04v3.4c1.13-.06 1.87-.71 1.87-1.68 0-.48-.17-.88-.43-1.25l.59-.31c.31.44.55.98.55 1.67.01 1.34-1.04 2.41-2.79 2.41zm-.44-3.53c-1.07 0-1.65.46-1.65 1.24 0 .71.6 1.34 1.65 1.45v-2.69zM260.37 221.39c-.42 0-.7-.28-.7-.62s.28-.62.7-.62c.4 0 .68.28.68.62s-.27.62-.68.62zm3.97 0c-.42 0-.7-.28-.7-.62s.28-.62.7-.62c.4 0 .69.28.69.62s-.29.62-.69.62zM262.23 216.93c-1.74 0-2.81-1.11-2.81-2.27 0-1.29.98-2.01 2.51-2.01.19 0 .38.02.51.04v3.4c1.13-.06 1.87-.71 1.87-1.68 0-.48-.17-.88-.43-1.26l.59-.31c.31.44.55.98.55 1.67.01 1.35-1.04 2.42-2.79 2.42zm-.44-3.52c-1.07 0-1.65.45-1.65 1.24 0 .71.6 1.34 1.65 1.45v-2.69zM259.55 211.41v-.71l.77-.07v-.03c-.5-.48-.9-1-.9-1.69 0-1.06.73-1.54 2.09-1.54h3.39v.85h-3.27c-1 0-1.42.28-1.42.95 0 .52.28.87.82 1.38h3.87v.85h-5.35zM262.23 206.09c-1.73 0-2.81-1.03-2.81-2.18 0-.59.23-.97.62-1.41l-.92.04h-2.06v-.85h7.84v.71l-.63.07v.03c.42.39.76.93.76 1.53 0 1.25-1.02 2.06-2.8 2.06zm1.3-3.56h-2.8c-.41.43-.56.82-.56 1.23 0 .81.83 1.45 2.04 1.45 1.28 0 2.04-.5 2.04-1.38.01-.47-.23-.87-.72-1.3zM261.79 200.4v-2.38h.69v2.38h-.69zM262.23 197.12c-1.78 0-2.81-1.1-2.81-2.34s1.03-2.34 2.81-2.34c1.77 0 2.8 1.1 2.8 2.34s-1.03 2.34-2.8 2.34zm0-3.79c-1.23 0-2.06.59-2.06 1.46s.83 1.46 2.06 1.46 2.05-.59 2.05-1.46c-.01-.87-.83-1.46-2.05-1.46zM258.7 190.98c-1.09 0-1.78-.47-1.78-1.48 0-.31.08-.61.18-.84l.69.18c-.09.19-.14.39-.14.57 0 .48.35.71 1.04.71h6.19v.85h-6.18zm.9.69l-.05-.72v-1.88h.74v2.61h-.69zM261.79 188.51v-2.38h.69v2.38h-.69zM263.82 184.87h-6.76v-.85h6.83c.28 0 .39-.11.39-.24 0-.05 0-.09-.02-.19l.69-.12c.05.12.08.27.08.49 0 .64-.44.91-1.21.91zM257.86 182.38c-.36 0-.58-.26-.58-.59s.23-.59.58-.59c.34 0 .58.26.58.59s-.24.59-.58.59zm1.69-.16v-.85h5.35v.85h-5.35zM258.7 179.53c-1.09 0-1.78-.47-1.78-1.48 0-.31.08-.61.18-.84l.69.18c-.09.19-.14.39-.14.57 0 .48.35.71 1.04.71h6.19v.85h-6.18zm.9.68l-.05-.72v-1.88h.74v2.61h-.69zM262.23 177.01c-1.74 0-2.81-1.11-2.81-2.27 0-1.29.98-2.01 2.51-2.01.19 0 .38.02.51.04v3.4c1.13-.06 1.87-.71 1.87-1.68 0-.48-.17-.88-.43-1.26l.59-.31c.31.44.55.98.55 1.67.01 1.35-1.04 2.42-2.79 2.42zm-.44-3.52c-1.07 0-1.65.45-1.65 1.24 0 .71.6 1.34 1.65 1.45v-2.69z"/></g><g><path d="M230.29 278.68h-1.73v-1.36h4.89v1.36h-1.73v5.81h-1.42v-5.81zM234.2 277.39c0-.5.35-.85.82-.85.48 0 .82.35.82.85 0 .49-.35.84-.82.84s-.82-.35-.82-.84zm.11 1.64h1.42v5.46h-1.42v-5.46zM236.98 279.03h1.16l.1.7h.04c.39-.45.82-.83 1.45-.83.67 0 1.08.33 1.32.92.42-.5.87-.92 1.5-.92 1.04 0 1.5.84 1.5 2.2v3.39h-1.42v-3.18c0-.79-.19-1.03-.59-1.03-.24 0-.51.17-.82.53v3.68h-1.42v-3.18c0-.79-.19-1.03-.59-1.03-.24 0-.51.17-.82.53v3.68h-1.42v-5.46zM244.99 281.76c0-1.77 1.11-2.86 2.26-2.86 1.37 0 2.04 1.13 2.04 2.62 0 .29-.03.58-.06.71h-2.87c.13.79.6 1.16 1.24 1.16.36 0 .69-.13 1.04-.36l.47.98c-.49.39-1.13.61-1.7.61-1.37 0-2.42-1.05-2.42-2.86zm3.08-.6c0-.6-.23-1.03-.8-1.03-.45 0-.84.34-.93 1.03h1.73z"/></g><g><path d="M78.36 20.99H52.83V12.2s.14-3.2-1.89-1.17L35.9 26.07c-1.04 1.04-2.1 2.33-2.1 2.87s1.06 1.83 2.1 2.87l15.03 15.03c2.03 2.03 1.89-1.17 1.89-1.17v-8.79h25.61V20.99h-.07zM191.71 20.99h25.53V12.2s-.14-3.2 1.89-1.17l15.04 15.04c1.04 1.04 2.1 2.33 2.1 2.87s-1.06 1.83-2.1 2.87l-15.04 15.04c-2.03 2.03-1.89-1.17-1.89-1.17v-8.79h-25.61v-15.9h.08z"/><path d="M76.09 20.99H195.9v15.88H76.09z"/></g><g><g fill="#fff"><path d="M91.8 24.82h1.94c1.53 0 2.56.54 2.56 2.13 0 1.52-1.02 2.23-2.51 2.23h-1.12v2.86h-.87v-7.22zm1.87 3.61c1.19 0 1.76-.46 1.76-1.49 0-1.04-.6-1.38-1.8-1.38h-.97v2.87h1.01zM97.28 30.65c0-1.17.95-1.75 3.1-2 0-.69-.22-1.35-1.04-1.35-.58 0-1.11.29-1.5.57l-.33-.62c.46-.32 1.17-.7 1.98-.7 1.23 0 1.75.87 1.75 2.2v3.28h-.71l-.07-.64h-.03c-.48.42-1.04.77-1.67.77-.85.01-1.48-.55-1.48-1.51zm3.09.08v-1.49c-1.69.22-2.26.65-2.26 1.34 0 .61.39.86.88.86s.9-.25 1.38-.71zM102.82 30.96V24.2h.85v6.83c0 .28.11.39.24.39.05 0 .09 0 .19-.02l.12.69c-.12.05-.27.08-.49.08-.65 0-.91-.43-.91-1.21zM105.47 30.96V24.2h.85v6.83c0 .28.11.39.24.39.05 0 .09 0 .19-.02l.12.69c-.12.05-.27.08-.49.08-.65 0-.91-.43-.91-1.21zM107.96 25.01c0-.36.26-.58.59-.58.33 0 .59.23.59.58 0 .34-.26.58-.59.58-.34 0-.59-.24-.59-.58zm.15 1.68h.85v5.35h-.85v-5.35zM110.35 30.65c0-1.17.95-1.75 3.1-2 0-.69-.22-1.35-1.04-1.35-.58 0-1.11.29-1.5.57l-.33-.62c.46-.32 1.17-.7 1.98-.7 1.23 0 1.75.87 1.75 2.2v3.28h-.71l-.07-.64h-.03c-.48.42-1.04.77-1.67.77-.85.01-1.48-.55-1.48-1.51zm3.1.08v-1.49c-1.69.22-2.26.65-2.26 1.34 0 .61.39.86.88.86s.89-.25 1.38-.71zM116.04 30.38v-2.96h-.75v-.69l.79-.05.1-1.5h.71v1.5h1.37v.74h-1.37v2.97c0 .65.2 1.03.78 1.03.18 0 .41-.07.57-.14l.17.68c-.28.1-.62.2-.94.2-1.06.01-1.43-.71-1.43-1.78zM119.25 25.01c0-.36.26-.58.59-.58.33 0 .59.23.59.58 0 .34-.26.58-.59.58-.34 0-.59-.24-.59-.58zm.15 1.68h.85v5.35h-.85v-5.35zM121.23 26.69h.88l.95 3.04c.15.52.31 1.07.47 1.58h.04c.15-.51.31-1.05.47-1.58l.95-3.04h.84l-1.78 5.35h-.99l-1.83-5.35zM126.43 29.37c0-1.74 1.11-2.81 2.27-2.81 1.29 0 2.01.98 2.01 2.51 0 .19-.02.38-.04.51h-3.4c.06 1.13.71 1.87 1.68 1.87.48 0 .88-.17 1.26-.43l.31.59c-.44.31-.98.55-1.67.55-1.35.01-2.42-1.03-2.42-2.79zm3.52-.44c0-1.07-.45-1.65-1.24-1.65-.71 0-1.34.6-1.45 1.65h2.69zM133.71 28.43c0-2.33 1.29-3.75 3.02-3.75.83 0 1.47.43 1.87.89l-.47.6c-.36-.41-.81-.68-1.38-.68-1.29 0-2.14 1.12-2.14 2.92 0 1.81.82 2.95 2.11 2.95.65 0 1.14-.3 1.58-.81l.47.58c-.54.66-1.2 1.04-2.09 1.04-1.7 0-2.97-1.39-2.97-3.74zM139.64 30.65c0-1.17.95-1.75 3.1-2 0-.69-.22-1.35-1.04-1.35-.58 0-1.11.29-1.5.57l-.33-.62c.46-.32 1.17-.7 1.98-.7 1.23 0 1.75.87 1.75 2.2v3.28h-.71l-.07-.64h-.03c-.48.42-1.04.77-1.67.77-.85.01-1.48-.55-1.48-1.51zm3.09.08v-1.49c-1.69.22-2.26.65-2.26 1.34 0 .61.39.86.88.86s.9-.25 1.38-.71zM145.18 26.69h.71l.07.97h.03c.35-.68.87-1.11 1.43-1.11.22 0 .38.03.54.11l-.16.79c-.17-.06-.29-.09-.49-.09-.43 0-.94.33-1.28 1.23v3.43h-.85v-5.33zM148.4 29.37c0-1.74 1.11-2.81 2.27-2.81 1.29 0 2.01.98 2.01 2.51 0 .19-.02.38-.04.51h-3.4c.06 1.13.71 1.87 1.68 1.87.48 0 .88-.17 1.26-.43l.31.59c-.44.31-.98.55-1.67.55-1.35.01-2.42-1.03-2.42-2.79zm3.53-.44c0-1.07-.45-1.65-1.24-1.65-.71 0-1.34.6-1.45 1.65h2.69zM156.08 24.82h1.94c1.53 0 2.56.54 2.56 2.13 0 1.52-1.02 2.23-2.51 2.23h-1.12v2.86h-.87v-7.22zm1.88 3.61c1.19 0 1.76-.46 1.76-1.49 0-1.04-.6-1.38-1.8-1.38h-.97v2.87h1.01zM161.87 30.96V24.2h.85v6.83c0 .28.11.39.24.39.05 0 .09 0 .19-.02l.12.69c-.12.05-.27.08-.49.08-.64 0-.91-.43-.91-1.21zM164.21 30.65c0-1.17.95-1.75 3.1-2 0-.69-.22-1.35-1.04-1.35-.58 0-1.11.29-1.5.57l-.33-.62c.46-.32 1.17-.7 1.98-.7 1.23 0 1.75.87 1.75 2.2v3.28h-.71l-.07-.64h-.03c-.48.42-1.04.77-1.67.77-.85.01-1.48-.55-1.48-1.51zm3.1.08v-1.49c-1.69.22-2.26.65-2.26 1.34 0 .61.39.86.88.86s.89-.25 1.38-.71zM169.75 26.69h.71l.07.77h.03c.48-.5 1-.9 1.69-.9 1.06 0 1.54.73 1.54 2.09v3.39h-.85v-3.27c0-1-.28-1.42-.95-1.42-.52 0-.87.28-1.38.82v3.87h-.85v-5.35z"/></g></g><g><path d="M280.87 58.15h-25.53v-8.79s.14-3.2-1.89-1.17l-15.04 15.04c-1.04 1.04-2.1 2.33-2.1 2.87s1.06 1.83 2.1 2.87c1.04 1.03 13.01 13 15.04 15.03 2.03 2.03 1.89-1.17 1.89-1.17v-8.79h25.61V58.15h-.08zM390.23 58.15h25.53v-8.79s-.14-3.2 1.89-1.17l15.04 15.04c1.04 1.04 2.1 2.33 2.1 2.87s-1.06 1.83-2.1 2.87c-1.03 1.03-13.01 13-15.03 15.03-2.03 2.03-1.89-1.17-1.89-1.17v-8.79h-25.61V58.15h.07z"/><path d="M272.61 58.15h122.44v15.88H272.61z"/></g><g><g fill="#fff"><path d="M302.47 61.98h.98l2.3 7.22h-.92l-1.19-4.03c-.25-.81-.46-1.6-.68-2.43h-.04c-.21.84-.43 1.63-.67 2.43l-1.2 4.03h-.88l2.3-7.22zm-1.1 4.29h3.14V67h-3.14v-.73zM306.27 66.53c0-1.73 1.03-2.81 2.18-2.81.59 0 .97.23 1.41.62l-.04-.92v-2.06h.85v7.84h-.71l-.07-.63h-.03c-.39.42-.93.76-1.53.76-1.24 0-2.06-1.01-2.06-2.8zm3.56 1.31v-2.8c-.43-.41-.82-.56-1.23-.56-.81 0-1.45.83-1.45 2.04 0 1.28.5 2.04 1.38 2.04.47.01.88-.23 1.3-.72zM311.66 63.85h.88l.95 3.04c.15.52.31 1.07.46 1.58h.05c.15-.51.31-1.05.46-1.58l.95-3.04h.84l-1.78 5.35h-.99l-1.82-5.35zM316.92 67.81c0-1.17.95-1.75 3.1-2 0-.69-.22-1.35-1.04-1.35-.58 0-1.11.29-1.5.57l-.33-.62c.46-.32 1.17-.7 1.98-.7 1.23 0 1.75.87 1.75 2.2v3.28h-.71l-.07-.64h-.03c-.48.42-1.04.77-1.67.77-.84.01-1.48-.54-1.48-1.51zm3.1.09v-1.49c-1.69.22-2.26.65-2.26 1.34 0 .61.39.86.88.86.49-.01.89-.26 1.38-.71zM322.47 63.85h.71l.07.77h.03c.48-.5 1-.9 1.69-.9 1.06 0 1.54.73 1.54 2.09v3.39h-.85v-3.27c0-1-.28-1.42-.95-1.42-.52 0-.87.28-1.38.82v3.87h-.85v-5.35zM327.77 66.53c0-1.78 1.14-2.81 2.43-2.81.66 0 1.12.29 1.48.63l-.44.6c-.29-.28-.6-.47-1-.47-.91 0-1.58.83-1.58 2.06s.63 2.05 1.56 2.05c.46 0 .87-.24 1.18-.53l.37.61c-.45.43-1.03.68-1.63.68-1.35-.02-2.37-1.05-2.37-2.82zM332.5 66.53c0-1.74 1.11-2.81 2.27-2.81 1.29 0 2.01.98 2.01 2.51 0 .19-.01.38-.04.51h-3.4c.06 1.13.71 1.87 1.68 1.87.48 0 .88-.17 1.26-.43l.31.59c-.44.31-.98.55-1.67.55-1.35.01-2.42-1.03-2.42-2.79zm3.53-.43c0-1.07-.46-1.65-1.24-1.65-.71 0-1.34.6-1.45 1.65h2.69zM339.78 65.6c0-2.33 1.29-3.75 3.02-3.75.83 0 1.47.43 1.87.89l-.47.6c-.36-.41-.81-.68-1.38-.68-1.29 0-2.14 1.12-2.14 2.92 0 1.81.82 2.95 2.11 2.95.65 0 1.14-.3 1.58-.81l.47.58c-.54.66-1.2 1.04-2.09 1.04-1.7-.01-2.97-1.4-2.97-3.74zM345.71 67.81c0-1.17.95-1.75 3.1-2 0-.69-.22-1.35-1.04-1.35-.58 0-1.11.29-1.5.57l-.33-.62c.46-.32 1.17-.7 1.98-.7 1.23 0 1.75.87 1.75 2.2v3.28h-.71l-.07-.64h-.03c-.48.42-1.04.77-1.67.77-.85.01-1.48-.54-1.48-1.51zm3.1.09v-1.49c-1.69.22-2.26.65-2.26 1.34 0 .61.39.86.88.86.49-.01.89-.26 1.38-.71zM351.25 63.85h.71l.07.97h.03c.35-.68.87-1.11 1.43-1.11.22 0 .38.03.54.11l-.16.79c-.17-.06-.29-.09-.49-.09-.43 0-.94.33-1.28 1.23v3.43h-.85v-5.33zM354.48 66.53c0-1.74 1.11-2.81 2.27-2.81 1.29 0 2.01.98 2.01 2.51 0 .19-.01.38-.04.51h-3.4c.06 1.13.71 1.87 1.68 1.87.48 0 .88-.17 1.26-.43l.31.59c-.44.31-.98.55-1.67.55-1.35.01-2.42-1.03-2.42-2.79zm3.52-.43c0-1.07-.46-1.65-1.24-1.65-.71 0-1.34.6-1.45 1.65H358zM362.16 61.98h1.95c1.53 0 2.56.54 2.56 2.13 0 1.52-1.02 2.23-2.51 2.23h-1.12v2.86h-.87v-7.22zm1.87 3.61c1.19 0 1.76-.46 1.76-1.49 0-1.04-.6-1.38-1.8-1.38h-.97v2.87h1.01zM367.95 68.13v-6.76h.85v6.83c0 .28.11.39.24.39.05 0 .09 0 .19-.02l.12.69c-.12.05-.27.08-.49.08-.65-.01-.91-.44-.91-1.21zM370.28 67.81c0-1.17.95-1.75 3.1-2 0-.69-.22-1.35-1.04-1.35-.58 0-1.11.29-1.5.57l-.33-.62c.46-.32 1.17-.7 1.98-.7 1.23 0 1.75.87 1.75 2.2v3.28h-.71l-.07-.64h-.03c-.48.42-1.04.77-1.67.77-.84.01-1.48-.54-1.48-1.51zm3.1.09v-1.49c-1.69.22-2.26.65-2.26 1.34 0 .61.39.86.88.86.49-.01.89-.26 1.38-.71zM375.83 63.85h.71l.07.77h.03c.48-.5 1-.9 1.69-.9 1.06 0 1.54.73 1.54 2.09v3.39h-.85v-3.27c0-1-.28-1.42-.95-1.42-.52 0-.87.28-1.38.82v3.87h-.85v-5.35z"/></g></g><g><path d="M338.04 97.28h-25.53v-8.79s.14-3.2-1.89-1.17l-15.04 15.04c-1.04 1.04-2.1 2.33-2.1 2.87s1.06 1.83 2.1 2.87l15.04 15.04c2.03 2.03 1.89-1.17 1.89-1.17v-8.79h25.61v-15.9h-.08zM390.23 97.28h25.53v-8.79s-.14-3.2 1.89-1.17l15.04 15.04c1.04 1.04 2.1 2.33 2.1 2.87s-1.06 1.83-2.1 2.87l-15.04 15.04c-2.03 2.03-1.89-1.17-1.89-1.17v-8.79h-25.61v-15.9h.08z"/><path d="M329.78 97.28h84.98v15.88h-84.98z"/></g><g><g fill="#fff"><path d="M325.89 101.89h-2.06v-.78h4.99v.78h-2.06v6.44h-.87v-6.44zM329.58 105.66c0-1.74 1.11-2.81 2.27-2.81 1.29 0 2.01.98 2.01 2.51 0 .19-.02.38-.04.51h-3.4c.06 1.13.71 1.87 1.68 1.87.48 0 .88-.17 1.25-.43l.31.59c-.44.31-.98.55-1.67.55-1.34.01-2.41-1.03-2.41-2.79zm3.53-.43c0-1.07-.45-1.65-1.24-1.65-.71 0-1.34.6-1.45 1.65h2.69zM335.11 102.98h.71l.07.97h.03c.35-.68.87-1.11 1.43-1.11.22 0 .38.03.54.11l-.16.79c-.17-.06-.29-.09-.49-.09-.43 0-.94.33-1.28 1.23v3.43h-.85v-5.33zM338.71 102.98h.71l.07.78h.03c.44-.51.97-.91 1.57-.91.77 0 1.18.39 1.39 1.02.52-.6 1.05-1.02 1.66-1.02 1.04 0 1.53.73 1.53 2.09v3.39h-.85v-3.27c0-1-.3-1.42-.94-1.42-.39 0-.8.27-1.26.82v3.87h-.85v-3.27c0-1-.3-1.42-.94-1.42-.38 0-.8.27-1.26.82v3.87h-.85v-5.35zM347.15 101.3c0-.36.26-.58.59-.58.33 0 .59.23.59.58 0 .34-.26.58-.59.58a.57.57 0 0 1-.59-.58zm.16 1.68h.85v5.35h-.85v-5.35zM349.86 102.98h.71l.07.77h.03c.48-.5 1-.9 1.69-.9 1.06 0 1.54.73 1.54 2.09v3.39h-.85v-3.27c0-1-.28-1.42-.95-1.42-.52 0-.87.28-1.38.82v3.87h-.85v-5.35zM355.23 106.94c0-1.17.95-1.75 3.1-2 0-.69-.22-1.35-1.04-1.35-.58 0-1.11.29-1.5.57l-.33-.62c.46-.32 1.17-.7 1.98-.7 1.23 0 1.75.87 1.75 2.2v3.28h-.71l-.07-.64h-.03c-.48.42-1.04.77-1.67.77-.85.01-1.48-.54-1.48-1.51zm3.09.09v-1.49c-1.69.22-2.26.65-2.26 1.34 0 .61.39.86.88.86.49-.01.89-.26 1.38-.71zM360.77 107.26v-6.76h.85v6.83c0 .28.11.39.24.39.05 0 .09 0 .19-.02l.12.69c-.12.05-.27.08-.49.08-.65-.01-.91-.44-.91-1.21zM365.17 104.73c0-2.33 1.29-3.75 3.02-3.75.83 0 1.47.43 1.87.89l-.47.6c-.36-.41-.81-.68-1.38-.68-1.29 0-2.14 1.12-2.14 2.92 0 1.81.82 2.95 2.11 2.95.65 0 1.14-.3 1.58-.81l.47.58c-.54.66-1.21 1.04-2.09 1.04-1.69-.01-2.97-1.4-2.97-3.74zM371.1 106.94c0-1.17.95-1.75 3.1-2 0-.69-.22-1.35-1.04-1.35-.58 0-1.11.29-1.5.57l-.33-.62c.46-.32 1.17-.7 1.98-.7 1.23 0 1.75.87 1.75 2.2v3.28h-.71l-.07-.64h-.03c-.48.42-1.04.77-1.67.77-.84.01-1.48-.54-1.48-1.51zm3.1.09v-1.49c-1.69.22-2.26.65-2.26 1.34 0 .61.39.86.88.86.49-.01.89-.26 1.38-.71zM376.64 102.98h.71l.07.97h.03c.35-.68.87-1.11 1.43-1.11.22 0 .38.03.54.11l-.16.79c-.17-.06-.29-.09-.49-.09-.43 0-.94.33-1.28 1.23v3.43h-.85v-5.33zM379.87 105.66c0-1.74 1.11-2.81 2.27-2.81 1.29 0 2.01.98 2.01 2.51 0 .19-.02.38-.04.51h-3.4c.06 1.13.71 1.87 1.68 1.87.48 0 .88-.17 1.25-.43l.31.59c-.44.31-.98.55-1.67.55-1.34.01-2.41-1.03-2.41-2.79zm3.53-.43c0-1.07-.45-1.65-1.24-1.65-.71 0-1.34.6-1.45 1.65h2.69zM387.55 101.11h1.94c1.53 0 2.56.54 2.56 2.13 0 1.52-1.02 2.23-2.51 2.23h-1.12v2.86h-.87v-7.22zm1.87 3.61c1.19 0 1.76-.46 1.76-1.49 0-1.04-.6-1.38-1.8-1.38h-.97v2.87h1.01zM393.34 107.26v-6.76h.85v6.83c0 .28.11.39.24.39.05 0 .09 0 .19-.02l.12.69c-.12.05-.27.08-.49.08-.65-.01-.91-.44-.91-1.21zM395.67 106.94c0-1.17.95-1.75 3.1-2 0-.69-.22-1.35-1.04-1.35-.58 0-1.11.29-1.5.57l-.33-.62c.46-.32 1.17-.7 1.98-.7 1.23 0 1.75.87 1.75 2.2v3.28h-.71l-.07-.64h-.03c-.48.42-1.04.77-1.67.77-.84.01-1.48-.54-1.48-1.51zm3.1.09v-1.49c-1.69.22-2.26.65-2.26 1.34 0 .61.39.86.88.86.49-.01.89-.26 1.38-.71zM401.22 102.98h.71l.07.77h.03c.48-.5 1-.9 1.69-.9 1.06 0 1.54.73 1.54 2.09v3.39h-.85v-3.27c0-1-.28-1.42-.95-1.42-.52 0-.87.28-1.38.82v3.87h-.85v-5.35z"/></g></g></svg>