<svg version="1.1" xmlns="http://www.w3.org/2000/svg" x="0" y="0" viewBox="0 0 453.54 372.61" xml:space="preserve"><path fill="none" d="M925.11-138.36h3.09-3.09z"/><g fill="#231f20"><path d="M380.1 18.32h1.01l1.72 3.31.57 1.26h.03c-.05-.61-.13-1.35-.13-2.01v-2.56h.94v5.89h-1.01l-1.72-3.31-.57-1.25h-.03c.05.62.13 1.33.13 1.99v2.58h-.94v-5.9zM385.31 22c0-1.47.94-2.32 1.98-2.32s1.98.85 1.98 2.32c0 1.47-.94 2.32-1.98 2.32s-1.98-.85-1.98-2.32zm2.96 0c0-.89-.37-1.48-.98-1.48s-.98.59-.98 1.48.37 1.47.98 1.47.98-.58.98-1.47zM391.94 19.78h.8l.07.47h.03c.35-.32.8-.58 1.26-.58 1.04 0 1.64.88 1.64 2.25 0 1.51-.85 2.39-1.78 2.39-.37 0-.73-.18-1.07-.49l.03.73v1.39h-.98v-6.16zm2.8 2.16c0-.88-.27-1.4-.91-1.4-.3 0-.59.16-.91.5v2.06c.3.27.59.37.83.37.56-.01.99-.53.99-1.53zM396.51 23.02c0-.95.74-1.44 2.45-1.63-.01-.48-.19-.87-.76-.87-.41 0-.8.2-1.17.44l-.36-.69c.46-.31 1.05-.58 1.71-.58 1.04 0 1.55.68 1.55 1.91v2.62h-.8l-.07-.49h-.03c-.37.34-.8.6-1.29.6-.73-.01-1.23-.54-1.23-1.31zm2.45 0v-.99c-1.13.15-1.51.46-1.51.91 0 .39.25.56.6.56.34 0 .6-.18.91-.48zM401 18.42c0-.35.26-.59.6-.59.35 0 .6.24.6.59 0 .34-.26.59-.6.59-.34 0-.6-.24-.6-.59zm.11 1.36h.98v4.42h-.98v-4.42zM403.34 19.78h.8l.08.6h.03c.37-.38.8-.71 1.37-.71.89 0 1.28.64 1.28 1.76v2.77h-.98v-2.64c0-.73-.2-1-.65-1-.37 0-.61.19-.95.55v3.09h-.98v-4.42zM380.33 29.12h1.01l1.72 3.31.57 1.26h.03c-.05-.61-.13-1.35-.13-2.01v-2.56h.94v5.89h-1.01l-1.72-3.32-.57-1.25h-.03c.05.62.13 1.33.13 1.99v2.58h-.94v-5.89zM385.54 32.8c0-1.47.94-2.32 1.98-2.32s1.98.85 1.98 2.32c0 1.47-.94 2.32-1.98 2.32-1.04-.01-1.98-.85-1.98-2.32zm2.96 0c0-.89-.37-1.48-.98-1.48s-.98.59-.98 1.48.37 1.47.98 1.47.98-.58.98-1.47zM392.17 28.65h.98v1.64l-.04.85c.35-.35.76-.67 1.33-.67.89 0 1.28.64 1.28 1.76V35h-.98v-2.64c0-.73-.2-1-.65-1-.37 0-.61.19-.95.55V35h-.98v-6.35zM396.86 33.36v-2.77h.98v2.64c0 .73.2 1 .65 1 .37 0 .61-.18.92-.61v-3.03h.98v4.42h-.8l-.07-.65h-.03c-.37.46-.77.76-1.34.76-.9-.01-1.29-.65-1.29-1.76zM401.63 30.59h.8l.07.79h.03c.3-.58.74-.9 1.18-.9.21 0 .35.03.47.09l-.17.9c-.15-.04-.25-.07-.43-.07-.33 0-.73.24-.98.92v2.7h-.98v-4.43zM404.94 33.52v-2.11h-.59v-.78l.64-.05.12-1.21h.81v1.21h1.06v.82h-1.06v2.1c0 .52.19.78.59.78.14 0 .31-.05.43-.1l.17.76c-.23.08-.52.16-.85.16-.96.01-1.32-.63-1.32-1.58z"/></g><path fill="none" stroke="#231f20" stroke-miterlimit="10" d="M368.44 45.3h49.99v44.72h-49.99z"/><g fill="#231f20"><path d="M377.4 104.45h1.11l.98 2.88c.12.38.23.77.36 1.16h.03c.12-.39.23-.78.35-1.16l.96-2.88h1.11v5.89h-.9v-2.69c0-.54.08-1.33.13-1.87h-.04l-.45 1.37-.91 2.65h-.58l-.92-2.65-.44-1.37h-.04c.05.55.13 1.33.13 1.87v2.69h-.89v-5.89zM383.53 104.55c0-.35.26-.59.6-.59s.6.24.6.59c0 .34-.26.59-.6.59s-.6-.25-.6-.59zm.11 1.36h.98v4.42h-.98v-4.42zM385.87 109.2v-5.22h.98v5.28c0 .26.11.35.21.35.04 0 .08 0 .15-.02l.12.77c-.12.05-.28.09-.52.09-.69-.01-.94-.48-.94-1.25zM387.92 108.13c0-1.44.85-2.32 1.76-2.32.47 0 .77.19 1.09.49l-.04-.71v-1.6h.98v6.36h-.8l-.07-.48h-.03c-.31.33-.74.59-1.18.59-1.04-.02-1.71-.88-1.71-2.33zm2.82.96v-2.06c-.29-.27-.57-.37-.85-.37-.53 0-.97.53-.97 1.45 0 .96.35 1.47.95 1.47.32 0 .59-.15.87-.49zM394.66 105.91h.8l.08.47h.03c.35-.32.8-.58 1.25-.58 1.04 0 1.64.89 1.64 2.25 0 1.51-.85 2.39-1.78 2.39-.37 0-.73-.18-1.07-.49l.03.73v1.39h-.98v-6.16zm2.79 2.16c0-.88-.27-1.4-.91-1.4-.3 0-.59.16-.91.5v2.06c.3.27.59.37.83.37.57-.02.99-.53.99-1.53zM399.22 109.15c0-.95.74-1.44 2.45-1.63-.01-.48-.19-.87-.76-.87-.41 0-.8.2-1.17.44l-.36-.69c.46-.31 1.05-.58 1.71-.58 1.04 0 1.55.68 1.55 1.91v2.62h-.8l-.07-.49h-.03c-.37.34-.8.6-1.29.6-.73-.02-1.23-.54-1.23-1.31zm2.45 0v-.99c-1.13.15-1.51.46-1.51.91 0 .39.25.56.6.56s.6-.18.91-.48zM403.71 104.55c0-.35.26-.59.6-.59s.6.24.6.59c0 .34-.26.59-.6.59s-.6-.25-.6-.59zm.12 1.36h.98v4.42h-.98v-4.42zM406.05 105.91h.8l.07.6h.03c.37-.39.8-.71 1.37-.71.89 0 1.28.64 1.28 1.76v2.77h-.98v-2.64c0-.73-.2-1-.65-1-.37 0-.61.19-.95.55v3.09h-.98v-4.42zM374.69 115.25h1.15l1.81 5.89h-1.04l-.84-3.13c-.18-.62-.34-1.29-.5-1.94h-.03c-.15.65-.32 1.32-.49 1.94l-.85 3.13h-1l1.79-5.89zm-.74 3.47h2.61v.82h-2.61v-.82zM379.96 120v-5.22h.98v5.28c0 .26.11.35.21.35.04 0 .08 0 .15-.02l.12.77c-.12.05-.28.09-.52.09-.69-.01-.94-.48-.94-1.25zM382.14 115.35c0-.35.26-.59.6-.59s.6.24.6.59c0 .34-.26.59-.6.59s-.6-.25-.6-.59zm.12 1.36h.98v4.42h-.98v-4.42zM384.63 119.64v-2.11h-.59v-.78l.64-.05.12-1.21h.81v1.21h1.06v.82h-1.06v2.1c0 .52.19.78.59.78.14 0 .31-.05.43-.1l.17.76c-.23.08-.52.16-.85.16-.97.02-1.32-.62-1.32-1.58zM387.69 119.64v-2.11h-.59v-.78l.65-.05.12-1.21h.81v1.21h1.06v.82h-1.06v2.1c0 .52.19.78.59.78.14 0 .31-.05.43-.1l.17.76c-.23.08-.52.16-.85.16-.97.02-1.33-.62-1.33-1.58zM390.61 120v-5.22h.98v5.28c0 .26.11.35.21.35.04 0 .08 0 .15-.02l.12.77c-.12.05-.28.09-.52.09-.68-.01-.94-.48-.94-1.25zM392.64 118.93c0-1.44.94-2.32 1.92-2.32 1.13 0 1.72.86 1.72 2.1 0 .2-.02.4-.04.5h-2.65c.08.79.56 1.23 1.23 1.23.36 0 .66-.12.97-.32l.33.64c-.4.28-.9.48-1.43.48-1.15 0-2.05-.86-2.05-2.31zm2.79-.43c0-.68-.29-1.09-.86-1.09-.49 0-.91.39-1 1.09h1.86zM398.92 114.77h.98v1.65l-.04.85c.35-.35.76-.67 1.33-.67.89 0 1.28.64 1.28 1.76v2.77h-.98v-2.64c0-.73-.2-1-.65-1-.37 0-.61.19-.95.55v3.09h-.98v-6.36zM403.61 119.48v-2.77h.98v2.64c0 .73.2 1 .65 1 .37 0 .61-.18.92-.61v-3.03h.98v4.42h-.8l-.07-.65h-.03c-.37.46-.77.76-1.34.76-.9 0-1.29-.64-1.29-1.76zM408.37 116.71h.8l.07.79h.03c.3-.58.74-.9 1.18-.9.21 0 .35.03.47.09l-.17.9c-.15-.04-.25-.07-.43-.07-.33 0-.73.24-.98.92v2.7h-.98v-4.43zM411.69 119.64v-2.11h-.59v-.78l.64-.05.12-1.21h.81v1.21h1.06v.82h-1.06v2.1c0 .52.19.78.59.78.14 0 .31-.05.43-.1l.17.76c-.23.08-.52.16-.85.16-.97.02-1.32-.62-1.32-1.58z"/></g><path fill="none" stroke="#231f20" stroke-miterlimit="10" d="M368.44 131.43h49.99v44.72h-49.99z"/><g fill="#231f20"><path d="M367.72 190.57h1.11l.98 2.88c.12.38.23.77.36 1.16h.03c.12-.39.23-.78.35-1.16l.96-2.88h1.11v5.89h-.9v-2.69c0-.54.08-1.33.13-1.87h-.03l-.45 1.37-.91 2.65h-.58l-.92-2.65-.44-1.37h-.03c.05.55.13 1.33.13 1.87v2.69h-.89v-5.89zM373.68 194.25c0-1.47.94-2.32 1.98-2.32s1.98.85 1.98 2.32c0 1.47-.94 2.32-1.98 2.32s-1.98-.85-1.98-2.32zm2.96 0c0-.89-.37-1.48-.98-1.48s-.98.59-.98 1.48.37 1.47.98 1.47.98-.58.98-1.47zM378.36 194.25c0-1.44.85-2.32 1.76-2.32.47 0 .77.19 1.09.49l-.04-.71v-1.6h.98v6.36h-.8l-.08-.48h-.03c-.31.33-.74.59-1.18.59-1.03-.01-1.7-.87-1.7-2.33zm2.82.96v-2.06c-.29-.27-.57-.37-.85-.37-.53 0-.97.53-.97 1.45 0 .96.35 1.47.95 1.47.33.01.6-.14.87-.49zM383.13 194.25c0-1.44.94-2.32 1.92-2.32 1.13 0 1.72.86 1.72 2.1 0 .2-.02.4-.04.5h-2.65c.08.79.56 1.23 1.23 1.23.36 0 .66-.12.97-.32l.33.64c-.4.28-.9.48-1.43.48-1.15.01-2.05-.85-2.05-2.31zm2.8-.43c0-.68-.29-1.09-.86-1.09-.49 0-.91.39-1 1.09h1.86zM387.71 192.04h.8l.07.79h.03c.3-.58.74-.9 1.18-.9.21 0 .35.03.47.09l-.17.9c-.15-.04-.25-.07-.43-.07-.33 0-.73.24-.98.92v2.7h-.98v-4.43zM390.65 195.27c0-.95.74-1.44 2.45-1.63-.01-.48-.19-.87-.76-.87-.41 0-.8.2-1.17.44l-.36-.69c.46-.31 1.05-.58 1.71-.58 1.04 0 1.55.68 1.55 1.91v2.62h-.8l-.07-.49h-.03c-.37.34-.8.6-1.29.6-.72-.01-1.23-.54-1.23-1.31zm2.45 0v-.99c-1.13.15-1.51.46-1.51.91 0 .39.25.56.6.56s.6-.18.91-.48zM395.4 194.97v-2.11h-.59v-.78l.64-.05.12-1.21h.81v1.21h1.06v.82h-1.06v2.1c0 .52.19.78.59.78.14 0 .31-.05.43-.1l.17.76c-.23.08-.52.16-.85.16-.96.02-1.32-.63-1.32-1.58zM398.05 194.25c0-1.44.94-2.32 1.92-2.32 1.13 0 1.72.86 1.72 2.1 0 .2-.02.4-.04.5H399c.08.79.56 1.23 1.23 1.23.36 0 .66-.12.97-.32l.33.64c-.4.28-.9.48-1.43.48-1.15.01-2.05-.85-2.05-2.31zm2.79-.43c0-.68-.29-1.09-.86-1.09-.49 0-.91.39-1 1.09h1.86zM404.33 192.04h.8l.07.47h.03c.35-.32.8-.58 1.26-.58 1.04 0 1.64.89 1.64 2.25 0 1.51-.85 2.39-1.78 2.39-.37 0-.73-.18-1.07-.49l.03.73v1.39h-.98v-6.16zm2.79 2.15c0-.88-.27-1.4-.91-1.4-.3 0-.59.16-.91.5v2.06c.3.27.59.37.83.37.56-.01.99-.53.99-1.53zM408.89 195.27c0-.95.74-1.44 2.45-1.63-.01-.48-.19-.87-.76-.87-.41 0-.8.2-1.17.44l-.36-.69c.46-.31 1.05-.58 1.71-.58 1.04 0 1.55.68 1.55 1.91v2.62h-.8l-.07-.49h-.03c-.37.34-.8.6-1.29.6-.73-.01-1.23-.54-1.23-1.31zm2.45 0v-.99c-1.13.15-1.51.46-1.51.91 0 .39.25.56.6.56.34 0 .6-.18.91-.48zM413.38 190.67c0-.35.26-.59.6-.59.35 0 .6.24.6.59 0 .34-.26.59-.6.59-.34 0-.6-.24-.6-.59zm.12 1.37h.98v4.42h-.98v-4.42zM415.72 192.04h.8l.07.6h.03c.37-.39.8-.71 1.37-.71.89 0 1.28.64 1.28 1.76v2.77h-.98v-2.64c0-.73-.2-1-.65-1-.37 0-.61.19-.95.55v3.09h-.98v-4.42zM376.21 201.37h1.11l.98 2.88c.12.38.23.77.36 1.16h.03c.12-.39.23-.78.35-1.16l.96-2.88h1.11v5.89h-.9v-2.69c0-.54.08-1.33.13-1.87h-.03l-.45 1.37-.91 2.65h-.58l-.92-2.65-.44-1.37h-.03c.05.55.13 1.33.13 1.87v2.69h-.89v-5.89zM382.18 205.05c0-1.47.94-2.32 1.98-2.32s1.98.85 1.98 2.32c0 1.47-.94 2.32-1.98 2.32s-1.98-.85-1.98-2.32zm2.96 0c0-.89-.37-1.48-.98-1.48s-.98.59-.98 1.48.37 1.47.98 1.47.98-.58.98-1.47zM387.12 202.84h.8l.07.79h.03c.3-.58.74-.9 1.18-.9.21 0 .35.03.47.09l-.17.9c-.15-.04-.25-.07-.43-.07-.33 0-.73.24-.98.92v2.7h-.98v-4.43zM390.01 205.05c0-1.44.94-2.32 1.92-2.32 1.13 0 1.72.86 1.72 2.1 0 .2-.02.4-.04.5h-2.65c.08.79.56 1.23 1.23 1.23.36 0 .66-.12.97-.32l.33.64c-.4.28-.9.48-1.43.48-1.15 0-2.05-.85-2.05-2.31zm2.79-.43c0-.68-.29-1.09-.86-1.09-.49 0-.91.39-1 1.09h1.86zM396.29 200.9h.98v1.65l-.04.85c.35-.35.76-.67 1.33-.67.89 0 1.28.64 1.28 1.76v2.77h-.98v-2.64c0-.73-.2-1-.65-1-.37 0-.61.19-.95.55v3.09h-.98v-6.36zM400.98 205.61v-2.77h.98v2.64c0 .73.2 1 .65 1 .37 0 .61-.18.92-.61v-3.03h.98v4.42h-.8l-.08-.65h-.03c-.37.46-.77.76-1.34.76-.89-.01-1.28-.65-1.28-1.76zM405.74 202.84h.8l.07.79h.03c.3-.58.74-.9 1.18-.9.21 0 .35.03.47.09l-.17.9c-.15-.04-.25-.07-.43-.07-.33 0-.73.24-.98.92v2.7h-.98v-4.43zM409.06 205.77v-2.11h-.59v-.78l.64-.05.12-1.21h.81v1.21h1.06v.82h-1.06v2.1c0 .52.19.78.59.78.14 0 .31-.05.43-.1l.17.76c-.23.08-.52.16-.85.16-.97.01-1.32-.63-1.32-1.58z"/></g><path fill="none" stroke="#231f20" stroke-miterlimit="10" d="M368.44 217.55h49.99v44.72h-49.99zM368.44 303.68h49.99v44.72h-49.99z"/><g fill="#231f20"><path d="M372.38 281.83l.57-.72c.4.4.93.67 1.45.67.63 0 .97-.3.97-.76 0-.48-.36-.64-.86-.87l-.76-.35c-.55-.24-1.12-.7-1.12-1.56 0-.94.78-1.66 1.86-1.66.65 0 1.28.28 1.71.75l-.51.66c-.35-.32-.73-.51-1.2-.51-.53 0-.87.26-.87.69 0 .46.42.63.88.83l.75.33c.66.29 1.12.73 1.12 1.59 0 .95-.75 1.75-1.99 1.75-.75.02-1.48-.29-2-.84zM377.02 280.37c0-1.44.94-2.32 1.92-2.32 1.13 0 1.72.86 1.72 2.1 0 .2-.02.4-.04.5h-2.65c.08.79.56 1.23 1.23 1.23.36 0 .66-.12.97-.32l.33.64c-.4.28-.9.48-1.43.48-1.14.01-2.05-.85-2.05-2.31zm2.8-.42c0-.68-.29-1.09-.86-1.09-.49 0-.91.39-1 1.09h1.86zM381.08 278.16h.99l.66 2.29c.12.44.24.89.35 1.33h.03c.12-.44.24-.9.35-1.33l.66-2.29h.94l-1.42 4.42h-1.13l-1.43-4.42zM385.53 280.37c0-1.44.94-2.32 1.92-2.32 1.13 0 1.72.86 1.72 2.1 0 .2-.02.4-.04.5h-2.65c.08.79.56 1.23 1.23 1.23.36 0 .66-.12.97-.32l.33.64c-.4.28-.9.48-1.43.48-1.15.01-2.05-.85-2.05-2.31zm2.8-.42c0-.68-.29-1.09-.86-1.09-.49 0-.91.39-1 1.09h1.86zM390.11 278.16h.8l.07.79h.03c.3-.58.74-.9 1.18-.9.21 0 .35.03.47.09l-.17.9c-.15-.04-.25-.07-.43-.07-.33 0-.73.24-.98.92v2.7h-.98v-4.43zM393 280.37c0-1.44.94-2.32 1.92-2.32 1.13 0 1.72.86 1.72 2.1 0 .2-.02.4-.04.5h-2.65c.08.79.56 1.23 1.23 1.23.36 0 .66-.12.97-.32l.33.64c-.4.28-.9.48-1.43.48-1.14.01-2.05-.85-2.05-2.31zm2.8-.42c0-.68-.29-1.09-.86-1.09-.49 0-.91.39-1 1.09h1.86zM399.28 278.16h.8l.07.47h.03c.35-.32.8-.58 1.26-.58 1.04 0 1.64.89 1.64 2.25 0 1.51-.85 2.39-1.78 2.39-.37 0-.73-.18-1.07-.49l.03.73v1.39h-.98v-6.16zm2.79 2.15c0-.88-.27-1.4-.91-1.4-.3 0-.59.16-.91.5v2.06c.3.27.59.37.83.37.57-.01.99-.52.99-1.53zM403.84 281.39c0-.95.74-1.44 2.45-1.63-.01-.48-.19-.87-.76-.87-.41 0-.8.2-1.17.44l-.36-.69c.46-.31 1.05-.58 1.71-.58 1.04 0 1.55.68 1.55 1.91v2.62h-.8l-.07-.49h-.03c-.37.34-.8.6-1.29.6-.72-.01-1.23-.54-1.23-1.31zm2.45.01v-.99c-1.13.15-1.51.46-1.51.91 0 .39.25.56.6.56s.61-.18.91-.48zM408.34 276.8c0-.35.26-.59.6-.59.35 0 .6.24.6.59 0 .34-.26.59-.6.59-.34 0-.6-.25-.6-.59zm.11 1.36h.98v4.42h-.98v-4.42zM410.67 278.16h.8l.07.6h.03c.37-.39.8-.71 1.37-.71.89 0 1.28.64 1.28 1.76v2.77h-.98v-2.64c0-.73-.2-1-.65-1-.37 0-.61.19-.95.55v3.09h-.98v-4.42zM374.22 287.49h1.01l.48 2.97c.09.63.19 1.25.28 1.88h.03c.12-.63.24-1.26.36-1.88l.68-2.97h.86l.68 2.97c.12.61.24 1.25.37 1.88h.03l.27-1.88.48-2.97h.94l-1.07 5.89h-1.22l-.69-3.1c-.09-.46-.17-.91-.25-1.35h-.03c-.08.45-.16.9-.25 1.35l-.67 3.1h-1.2l-1.09-5.89zM381.2 291.17c0-1.47.94-2.32 1.98-2.32s1.98.85 1.98 2.32c0 1.47-.94 2.32-1.98 2.32s-1.98-.85-1.98-2.32zm2.96 0c0-.89-.37-1.48-.98-1.48s-.98.59-.98 1.48.37 1.47.98 1.47.98-.58.98-1.47zM386.14 288.96h.8l.07.79h.03c.3-.58.74-.9 1.18-.9.21 0 .35.03.47.09l-.17.9c-.15-.04-.25-.07-.43-.07-.33 0-.73.24-.98.92v2.7h-.98v-4.43zM388.89 292.87l.46-.66c.37.31.73.49 1.15.49.45 0 .67-.23.67-.53 0-.37-.45-.54-.9-.72-.55-.22-1.17-.55-1.17-1.29 0-.77.58-1.32 1.52-1.32.58 0 1.05.25 1.38.53l-.45.64c-.29-.23-.58-.39-.91-.39-.42 0-.62.21-.62.49 0 .35.42.48.87.66.56.22 1.19.51 1.19 1.34 0 .76-.57 1.37-1.62 1.37-.56.01-1.16-.25-1.57-.61zM393.11 291.89v-2.11h-.59V289l.64-.05.12-1.21h.81v1.21h1.06v.82h-1.06v2.1c0 .52.19.78.59.78.14 0 .31-.05.43-.1l.17.76c-.23.08-.52.16-.85.16-.96.02-1.32-.62-1.32-1.58zM397.73 287.02h.98v1.65l-.04.85c.35-.35.76-.67 1.33-.67.89 0 1.28.64 1.28 1.76v2.77h-.98v-2.64c0-.73-.2-1-.65-1-.37 0-.61.19-.95.55v3.09h-.98v-6.36zM402.42 291.73v-2.77h.98v2.64c0 .73.2 1 .65 1 .37 0 .61-.18.92-.61v-3.03h.98v4.42h-.8l-.08-.65h-.03c-.37.46-.77.76-1.34.76-.89 0-1.28-.64-1.28-1.76zM407.19 288.96h.8l.07.79h.03c.3-.58.74-.9 1.18-.9.21 0 .35.03.47.09l-.17.9c-.15-.04-.25-.07-.43-.07-.33 0-.73.24-.98.92v2.7h-.98v-4.43zM410.5 291.89v-2.11h-.59V289l.64-.05.12-1.21h.81v1.21h1.06v.82h-1.06v2.1c0 .52.19.78.59.78.14 0 .31-.05.43-.1l.17.76c-.23.08-.52.16-.85.16-.97.02-1.32-.62-1.32-1.58z"/></g><g fill="#bcbec0"><path d="M114.1-55.85c1.28 2.56 6.41 1.75 10.02-.19-.01-.68-.03-1.38-.07-2.16-.17-3.54-.31-10.9-.39-19.16-3.33-.27-6.87.01-9.45.33-.13 5.66-.12 11.09.11 15.51-1.1.23-2.27.48-3.47.76 1 .97 2.31 2.56 3.25 4.91zM100.98-52.49c2.34.61 8.44.41 7.83-1.83-.41-1.52-2.05-3.79-3.06-5.09-1.47.45-2.93.97-4.31 1.57-1.65 2.44-2.25 4.88-.46 5.35z"/><path d="M114.1-55.85c-.94-2.36-2.25-3.94-3.25-4.91-1.66.38-3.39.82-5.09 1.35 1.01 1.3 2.64 3.57 3.06 5.09.61 2.24-5.49 2.44-7.83 1.83-1.79-.47-1.19-2.91.47-5.35-5.37 2.34-9.59 5.95-9.19 11.98.47 3.56 17.08 1.66 26.33-.24 3.93-.87 5.64-2.17 5.52-9.94-3.61 1.94-8.74 2.75-10.02.19zM123.66-77.36c-.13-14.41-.06-31.59.39-36.11l-7.83-.71s-1.62 19.72-2.01 37.15c2.58-.32 6.12-.59 9.45-.33z"/><path d="M123.75-106.59c.07-3.12.17-5.55.3-6.88l-7.83-.71s-.21 2.56-.5 6.64c2.69.23 5.36.55 8.03.95z"/><g><path d="M92.6-49.35c.04-.13.07-.25.11-.37-.04.11-.08.24-.11.37zM92.99-50.47c-.1.24-.19.49-.28.75.17-.47.39-.79.39-.79l-.11.04z"/><path d="M92.6-49.35c-.29 1.06-.42 2.22-.34 3.48.47 3.56 17.08 1.66 26.33-.24 2.55-.57 4.17-1.33 4.95-3.92-3.16 2-9.55 3.74-19.81 4.48-10.66.77-11.51-2.11-11.13-3.8z"/></g></g><g fill="#bcbec0"><path d="M171.79-59.29c-.86 2.73-6.05 2.75-9.92 1.4-.1-.67-.19-1.37-.28-2.14-.39-3.53-1.42-10.81-2.66-18.97 3.24-.79 6.79-1.08 9.38-1.18 1.02 5.57 1.88 10.93 2.36 15.33 1.12.05 2.32.11 3.55.2-.84 1.11-1.88 2.88-2.43 5.36zM185.27-58.06c-2.21.97-8.27 1.74-8.02-.56.17-1.57 1.42-4.07 2.21-5.51 1.53.21 3.05.49 4.5.87 2.03 2.13 3.01 4.45 1.31 5.2z"/><path d="M171.79-59.29c.56-2.48 1.59-4.25 2.43-5.37 1.7.11 3.48.27 5.24.52-.79 1.44-2.04 3.94-2.21 5.51-.25 2.31 5.81 1.54 8.02.56 1.7-.75.71-3.06-1.31-5.21 5.67 1.46 10.41 4.35 10.97 10.36.1 3.59-16.6 4.36-26.03 3.95-4.02-.24-5.92-1.24-7.03-8.93 3.87 1.36 9.06 1.34 9.92-1.39zM158.93-79.01c-2.16-14.25-4.96-31.19-6.13-35.59l7.62-1.95s4.74 19.21 7.89 36.36c-2.59.1-6.14.39-9.38 1.18z"/><path d="M154.2-107.86c-.57-3.07-1.05-5.45-1.39-6.74l7.62-1.95s.61 2.49 1.55 6.47c-2.63.67-5.22 1.41-7.78 2.22z"/><g><path d="M194.05-56.29c-.05-.12-.11-.24-.17-.35.06.1.12.22.17.35zM193.49-57.34c.14.23.27.46.39.7-.24-.44-.5-.71-.5-.71l.11.01zM194.05-56.29c.46 1 .77 2.12.89 3.39.1 3.59-16.6 4.36-26.03 3.95-2.61-.15-4.33-.65-5.51-3.08 3.43 1.47 10.02 2.18 20.27 1.27 10.65-.95 11.02-3.92 10.38-5.53z"/></g></g><path d="M136.55-184.95c9.28 1.07 11.64-8.06 9.88-17.95-4.46.85-11.05 1.62-18.12.84-.32 5.11-.06 16.16 8.24 17.11z" fill="#bcbec0"/><path d="M146.97-197.42c-.02-1.76-.2-3.6-.53-5.48-4.46.85-11.05 1.62-18.12.84-.1 1.58-.14 3.73.09 5.97 4.11.87 10.46 1.23 18.56-1.33z" fill="#bcbec0"/><g fill="#bcbec0"><path d="M152.16-201.09s34.94 1.6 53.74 3.9c2.84-4.26 4.97-9.04 6.92-8.87 1.95.18-.89 4.08-.89 6.38 8.69-4.61 11.53-5.14 11.88-4.08.35 1.06-7.98 5.32-7.98 5.32s11.53-.71 12.24 1.6c.71 2.31-11 2.13-11 2.13s9.76 1.77 9.93 3.9c.18 2.13-10.64-.18-10.64-.18s7.45 4.61 6.56 6.21c-.89 1.6-9.22-3.37-9.22-3.37s-5.32 1.6-7.63-2.48c-18.09-.71-51.26.18-51.26.18l-2.65-10.64z"/><path d="M157.26-200.83c-3.17-.16-5.1-.25-5.1-.25l2.66 10.64s2.38-.06 6.2-.14c-1.21-3.44-2.48-6.85-3.76-10.25zM211.93-200.38s.28.39.46 1.05c.09.33.17.73.19 1.16.03.43-.02.9-.11 1.37-.12.46-.27.92-.52 1.3-.22.39-.51.71-.78.93-.27.23-.53.38-.72.45-.19.08-.3.12-.3.12s.06-.11.16-.28c.05-.08.11-.18.19-.29.06-.12.12-.25.2-.39.08-.13.13-.3.21-.45.08-.15.13-.33.2-.5.08-.17.11-.36.18-.55.07-.18.09-.39.15-.58.18-.78.27-1.61.35-2.25.07-.62.14-1.09.14-1.09z"/></g><g fill="#bcbec0"><path d="M124.66-201.09s-34.94 1.6-53.74 3.9c-2.84-4.26-4.97-9.04-6.92-8.87-1.95.18.89 4.08.89 6.38-8.69-4.61-11.53-5.14-11.88-4.08-.35 1.06 7.98 5.32 7.98 5.32s-11.53-.71-12.24 1.6c-.71 2.31 11 2.13 11 2.13s-9.75 1.77-9.93 3.9c-.18 2.13 10.64-.18 10.64-.18s-7.45 4.61-6.56 6.21c.89 1.6 9.22-3.37 9.22-3.37s5.32 1.6 7.63-2.48c18.09-.71 51.26.18 51.26.18l2.65-10.64z"/><path d="M119.56-200.83c3.17-.16 5.1-.25 5.1-.25L122-190.44s-2.38-.06-6.2-.14c1.2-3.44 2.47-6.85 3.76-10.25zM64.89-200.38s-.28.39-.46 1.05c-.09.33-.17.73-.19 1.16-.03.43.02.9.11 1.37.12.46.27.92.52 1.3.22.39.51.71.78.93.27.23.53.38.72.45.19.08.3.12.3.12s-.06-.11-.16-.28c-.05-.08-.11-.18-.19-.29-.06-.12-.12-.25-.2-.39-.08-.13-.14-.3-.21-.45-.08-.15-.13-.33-.2-.5-.08-.17-.11-.36-.18-.55-.07-.18-.09-.39-.15-.58-.18-.78-.27-1.61-.35-2.25-.07-.62-.14-1.09-.14-1.09z"/></g><path d="M152.16-204.28s-2.19.71-5.72 1.38c1.76 9.9-.6 19.02-9.88 17.95-8.29-.95-8.56-12-8.23-17.12-1.61-.18-3.25-.44-4.89-.8 0 0-17.03 65.98-17.38 87.62 0 0 33.34 8.16 63.85-.35-.02 0-10.31-73.07-17.75-88.68zM98.07-286.92s-17.74-8.68-36.66 20.16c-11.36 16.58-11.54 31.19-11.54 31.19l6.49 2.7s1.98-7.75 5.41-12.26c-2.7 4.51-2.16 12.62-2.16 12.62l7.57-12.08s-2.16 9.37-1.98 14.06l7.75 1.08s2.34-6.13 7.21-15.68c4.86-9.55 17.91-41.79 17.91-41.79z" fill="#bcbec0" stroke="#fff" stroke-miterlimit="10"/><path d="M68.23-230.1l4.71.66s2.34-6.13 7.21-15.68 17.92-41.79 17.92-41.79-1.38-.68-3.79-1.02c-21.63 20.29-25.42 47.18-26.05 57.83zM190.65-279.92s7.93-7.03 18.93-1.26c11 5.77 20.91 31.01 17.31 54.26l-7.93 1.98s-1.26-9.19-3.43-11.72c-.36 8.29-.18 12.8-.18 12.8l-3.78.18-1.98-10.82-2.16 13.16-8.11-1.26c-.01.01 9.54-42.72-8.67-57.32z" fill="#bcbec0" stroke="#fff" stroke-miterlimit="10"/><path d="M197.74-283.15c-4.4.86-7.09 3.23-7.09 3.23 18.21 14.6 8.65 57.32 8.65 57.32l5.2.81c8.18-32.62-.2-52.02-6.76-61.36z" fill="#bcbec0" stroke="#fff" stroke-miterlimit="10"/><path d="M185.63-286.17l6.63-4.42.74 9.2s5.71.55 10.49 3.68c-4.23 4.23-6.26 6.81-6.26 6.81l-5.34-9.57-6.26-5.7zM92.9-277.59l-6.49-6.23 8.73-2.5 1.75-8.98 6.49 6.49-7.24 3.24z" fill="#bcbec0" stroke="#fff" stroke-miterlimit="10"/><g fill="#bcbec0" stroke="#fff" stroke-miterlimit="10"><path d="M201.35-251.55c.57-27.17-22.36-53.48-48.11-44.43-9.62-10.47-37.64-8.77-55.18 9.05 0 0-27.17 23.2-17.26 61.41 7.92 22.35 24.9 24.34 33.39 22.35 0 0-20.34-7.9-18.9-24.48 1.44-16.58 1.08-19.11 1.08-19.11l6.13.54s1.44-14.96 8.65-21.45c-3.97 6.67-4.51 20.37-4.51 20.37l17.13.36s2.34-15.32 7.57-19.47c-4.51 9.01-3.97 19.11-3.97 19.11l25.24.54s2.34-7.93 2.16-16.04c3.78 6.67 1.26 16.95 1.26 16.95l18.57-1.8s1.98-6.67.54-14.78c3.42 9.19 2.16 13.52 2.16 13.52l2.16-.54s5.21 17.83-8.12 34.69c8.79 1.7 29.45-9.62 30.01-36.79z"/><path d="M179.48-249.45l-2.16.54s1.26-4.33-2.16-13.52c1.44 8.11-.54 14.78-.54 14.78l-18.57 1.8s2.52-10.28-1.26-16.95c.18 8.11-2.16 16.04-2.16 16.04l-25.24-.54s-.54-10.1 3.97-19.11c-5.23 4.15-7.57 19.47-7.57 19.47l-17.13-.36s.54-13.7 4.51-20.37c-7.21 6.49-8.65 21.45-8.65 21.45l-6.13-.54s.36 2.52-1.08 19.11c-1.44 16.58 18.9 24.48 18.9 24.48 13.58 5.38 40.47 7.07 57.16-11.6 13.32-16.85 8.11-34.68 8.11-34.68z"/><path d="M113.02-273.48c-12.11 8.38-12.11 23.28-12.11 23.28l-10.55-.31s-1.24-4.35 5.09-19.42c-5.78 4.79-10.05 19.73-8.5 30.29-6.5-4.25-5.95-16.16-5.49-20.62-2.98 9.43-4.17 21.13-.64 34.75 7.92 22.35 24.9 24.34 33.39 22.35 0 0-20.34-7.9-18.9-24.48 1.44-16.58 1.08-19.11 1.08-19.11l6.13.54s1.44-14.96 8.65-21.45c-3.97 6.67-4.51 20.37-4.51 20.37l2.79.06c-.69-6.89 1.11-15.52 3.57-26.25zM121.11-246.99l2.67.06s2.34-15.32 7.57-19.47c-4.51 9.01-3.97 19.11-3.97 19.11l2.84.06c.27-6.09 1.09-16.95 3.59-26.56-7.97 6.84-11.43 20.18-12.7 26.8zM152.44-275.03c1.66 8.51-.5 22.2-1.62 28.24l1.8.04s2.34-7.93 2.16-16.04c3.78 6.67 1.26 16.95 1.26 16.95l3.57-.35c.51-5.81.68-19.32-7.17-28.84zM197.23-270.9c8.78 25.24-4.43 32.5-4.12 24.12.31-8.38-3.1-19.25-11.49-24.52 6.21 9.31 4.97 18.32 4.97 18.32l-6.52.31s.31-4.66-7.45-18c3.01 9.94.84 19.19-.45 23.27l2.44-.24s1.98-6.67.54-14.78c3.42 9.19 2.16 13.52 2.16 13.52l2.16-.54s5.21 17.83-8.12 34.69c8.77 1.7 29.43-9.62 30-36.79.17-7.94-1.69-15.81-5.02-22.74.19 1.08.49 2.21.9 3.38z"/></g><g fill="#bcbec0" stroke="#fff" stroke-miterlimit="10"><path d="M105.64-275.95c-1.47.59-2.86 1.33-4.19 2.16-.65.44-1.3.87-1.93 1.34-.6.5-1.26.93-1.82 1.48-.56.55-1.18 1.02-1.68 1.63-.51.59-1.07 1.13-1.54 1.75-.47.62-.95 1.23-1.4 1.86l-1.21 1.99c-.41.66-.69 1.39-1.04 2.08l-.5 1.05-.38 1.1c-.25.73-.54 1.46-.76 2.2l-.53 2.27c-.08.38-.19.76-.26 1.14l-.15 1.16-.29 2.32c-.09.78-.07 1.56-.11 2.34l-.08 2.35-.44-.31 2.26-.4c.75-.15 1.51-.13 2.26-.2.75-.06 1.51-.09 2.26-.1.75-.02 1.5-.02 2.26 0-.75.06-1.5.16-2.24.23-.75.07-1.49.16-2.23.28l-1.11.17c-.37.06-.74.09-1.1.19l-2.16.49-.43.1-.01-.41-.04-2.39c0-.8-.07-1.6 0-2.4l.24-2.39.12-1.2c.06-.4.16-.79.24-1.18l.52-2.35c.22-.77.51-1.52.76-2.29l.4-1.14.53-1.09c.37-.71.67-1.47 1.1-2.15l1.3-2.03c.48-.64 1-1.26 1.5-1.89.49-.64 1.11-1.16 1.66-1.74.54-.59 1.21-1.05 1.81-1.58.59-.54 1.29-.95 1.93-1.42.66-.45 1.36-.84 2.05-1.23.72-.35 1.42-.72 2.16-1.02.75-.32 1.51-.57 2.27-.77zM183-270.37c.64.62 1.19 1.34 1.72 2.06.52.73.99 1.5 1.41 2.3.2.4.43.8.6 1.21.18.41.37.82.54 1.24.33.84.6 1.71.83 2.58.13.43.22.88.3 1.33.08.45.19.89.23 1.34l.16 1.35c.05.45.04.91.06 1.36.01.45.04.91.01 1.36l-.07 1.36c-.01.45-.1.9-.16 1.35l-.19 1.34-.05.35-.34.02-4.28.24c-.71.04-1.43.05-2.14.08-.71.03-1.43.04-2.14.05.7-.13 1.41-.25 2.11-.36.71-.11 1.41-.24 2.11-.33l4.23-.57-.39.37.13-1.31c.04-.43.11-.87.11-1.3l.04-1.31c.03-.44-.01-.87-.02-1.31-.02-.87-.11-1.74-.21-2.6-.03-.44-.14-.86-.21-1.29-.08-.43-.14-.86-.25-1.28l-.31-1.27-.37-1.26c-.13-.42-.29-.83-.43-1.24-.14-.42-.33-.81-.49-1.22-.16-.41-.37-.8-.55-1.2-.19-.4-.39-.79-.59-1.18-.43-.78-.89-1.53-1.4-2.26z"/></g><g fill="#bcbec0" stroke="#fff" stroke-miterlimit="10"><path d="M118.43-233.44c.03 2.28.89 4.12 1.94 4.1 1.04-.02 1.86-1.88 1.83-4.16-.03-2.28-.9-4.12-1.93-4.1-1.05.01-1.87 1.88-1.84 4.16z"/><path d="M120.57-235.21c.07.69.38 1.22.69 1.19.32-.03.51-.61.45-1.3-.07-.69-.38-1.22-.69-1.19-.32.04-.52.62-.45 1.3z"/></g><g fill="#bcbec0" stroke="#fff" stroke-miterlimit="10"><path d="M146-234.41c.03 2.28.89 4.12 1.94 4.1 1.04-.02 1.86-1.88 1.83-4.16-.03-2.28-.89-4.12-1.93-4.1-1.05.02-1.87 1.88-1.84 4.16z"/><path d="M148.13-236.17c.07.69.38 1.22.69 1.19.31-.03.51-.61.45-1.3-.07-.69-.38-1.22-.69-1.19-.32.03-.52.61-.45 1.3z"/></g><path d="M131.31-227.45c.98-2.13 3.81-1.04 5.16 0 .1.08-.03.21-.13.16-1.1-.5-3.28-1.08-4.04.25-.58 1.02.78 2.11 1.48 2.56.16.1.17.41-.06.44-1.69.22-3.11-1.9-2.41-3.41zM116.96-241.51c.3-1.45 1.91-2.09 3.08-1.8 1.35.33 2.72 1.77 3.34 3.19.07.16-.02.3-.14.34-.03.09-.1.16-.19.12-1.09-.5-2.09-1.17-3.28-1.26-.74-.06-1.34.49-1.83 1.05-.36.4-.49.6-.99.46-.28-.07-.43-.46-.42-.76 0-.5.16-.96.43-1.34zM144.13-241.96c.3-1.45 1.91-2.09 3.08-1.8 1.35.33 2.71 1.77 3.34 3.19.07.16-.02.3-.14.34-.03.09-.1.16-.19.12-1.09-.5-2.09-1.17-3.28-1.26-.74-.05-1.34.49-1.83 1.05-.36.4-.49.6-.99.46-.28-.07-.43-.46-.42-.76 0-.5.17-.96.43-1.34zM125.83-214.76c.78-1.45 5.02-2.09 8.09-1.8 3.55.33 7.14 1.77 8.78 3.19.18.16-.06.3-.37.34-.08.09-.28.16-.5.12-2.86-.5-5.51-1.17-8.64-1.26-1.94-.06-3.53.49-4.82 1.05-.94.4-1.29.6-2.6.46-.75-.07-1.14-.46-1.11-.76.04-.49.48-.96 1.17-1.34zM96.08-238.14s-7.58-1.66-8.52 7.7c-.36 5.92 4.38 8.17 7.81 8.17-.36-4.27 1.18-12.44.71-15.87zM180.49-242.99s.24 8.05-1.42 13.38c5.09.24 11.84-3.43 11.01-10.3-.83-6.87-6.75-6.87-9.59-3.08z" fill="#bcbec0" stroke="#fff" stroke-miterlimit="10"/><g opacity=".7"><path d="M137.26-131.74c-26.05 0-22.81-31.63-19.85-46.49-4.94 21.08-11.15 50.01-11.36 62.99 0 0 33.34 8.16 63.85-.35 0 0-6.38-45.34-12.73-72.22 1.6 7.03 11.7 56.07-19.91 56.07z" fill="#bcbec0" stroke="#fff" stroke-miterlimit="10"/></g><g><g fill="#bcbec0"><path d="M324.78-119.42l-10.2-1.45-1.16 43.86 9.46.19c.83-18.2 1.9-42.6 1.9-42.6zM302.31-59.87c.9-.43 1.78-3.83 2.21-5.7-1.41.53-2.87 1.18-4.26 1.98-1.44 3.58 1 4.22 2.05 3.72z"/><path d="M308.64-66.84c-1.25.31-2.66.73-4.12 1.28-.42 1.87-1.3 5.27-2.21 5.7-1.05.5-3.49-.14-2.06-3.72-1.97 1.13-3.82 2.55-5.24 4.34-4.29 5.03-2.96 8.16 9.6 8.26 12.56.1 16.9.35 17.36-7.24l.18-3.25c-2.41.35-6.22.87-10.53 1.34-5.05.53-4.07-3.92-2.98-6.71z"/><path d="M313.58-84.11l-.41 16.41s-1.89.2-4.54.86c-1.09 2.8-2.06 7.24 2.98 6.7 4.31-.46 8.12-.98 10.53-1.34.18-3.55.81-16.12 1.1-22.38l-9.66-.25z"/></g><path d="M302.2-52.31c-10.11-.33-8.76-4.45-8.76-4.45l-.13-.03c-1.79 3.58.92 5.73 11.29 5.82 9.51.08 14.3.23 16.27-2.99-3.14 1.49-10.51 1.91-18.67 1.65zM324.78-119.42l-10.2-1.45-.34 12.64 10.02.58c.31-6.95.52-11.77.52-11.77z" fill="#bcbec0"/><g fill="#bcbec0"><path d="M350.59-118.5l9.98-2.57 6.01 43.46-9.38 1.24c-2.85-18-6.61-42.13-6.61-42.13zM379.52-61.81c-.94-.32-2.19-3.6-2.82-5.42 1.46.37 2.98.86 4.46 1.5 1.81 3.4-.54 4.3-1.64 3.92z"/><path d="M372.46-68.04c1.27.17 2.72.43 4.24.81.63 1.81 1.88 5.09 2.82 5.42 1.1.38 3.46-.52 1.63-3.92 2.08.9 4.07 2.11 5.69 3.73 4.82 4.52 3.84 7.78-8.63 9.27-12.47 1.49-16.76 2.21-18.06-5.27-.12-.7-.3-1.8-.54-3.21 2.44.08 6.28.18 10.61.16 5.09-.02 3.63-4.33 2.24-6.99z"/><path d="M365.46-85.18l2.4 16.79s1.9-.01 4.6.36c1.39 2.66 2.85 6.97-2.22 6.99-4.33.02-8.17-.08-10.61-.16-.57-3.51-2.57-16.55-3.55-22.73l9.38-1.25z"/></g><path d="M380.46-54.32c10.01-1.45 8.22-5.39 8.22-5.39l.12-.04c2.18 3.36-.28 5.8-10.58 7.03-9.44 1.13-14.18 1.81-16.5-1.17 3.29 1.14 10.66.74 18.74-.43zM350.59-118.5l9.98-2.57 1.73 12.52-9.9 1.68c-1.06-6.87-1.81-11.63-1.81-11.63zM321.91-205.96s-58.8 10.91-64.65 11.17c-3.73.27-13.84-11.2-18.09-8.78-1.58.9 6.03 4.29 6.2 6.15.17 1.86-11.68-2.54-13.03.17-1.02 1.52 12.35 3.72 12.35 3.72s-12.18-.17-12.69 2.03c-.51 2.2 11.5 2.37 11.5 2.37s-11 1.35-10.83 3.21c.17 1.86 11.34.34 11.34.34s-8.8 3.21-8.63 4.57c.17 1.35 8.46-1.01 15.56-4.4 7.11-3.38 28.84-5.92 45.59-8.12 16.75-2.2 24.37-2.2 24.37-2.2l1.01-10.23z" fill="#bcbec0"/><path d="M311.94-204.29c-.67 3.09-1.4 6.17-2.09 9.26 7.53-.69 11.07-.69 11.07-.69l1-10.23c-.01-.01-3.95.65-9.98 1.66zM346.83-205.96s59.41 10.91 65.26 11.17c3.73.27 13.84-11.2 18.09-8.78 1.58.9-6.03 4.29-6.2 6.15-.17 1.86 11.68-2.54 13.03.17 1.02 1.52-12.35 3.72-12.35 3.72s12.18-.17 12.69 2.03c.51 2.2-11.5 2.37-11.5 2.37s11 1.35 10.83 3.21c-.17 1.86-11.34.34-11.34.34s8.8 3.21 8.63 4.57c-.17 1.35-8.46-1.01-15.56-4.4-7.11-3.38-29.45-5.92-46.2-8.12-16.75-2.2-24.36-2.2-24.36-2.2l-1.02-10.23z" fill="#bcbec0"/><path d="M356.9-204.28c-6.08-1.01-10.07-1.69-10.07-1.69l1.01 10.23s3.4 0 10.6.65a65.77 65.77 0 0 1-1.54-9.19z" fill="#bcbec0"/><g><path d="M332.93-184.71c9.28 1.07 11.64-8.06 9.88-17.95-4.45.84-11.05 1.62-18.12.84-.32 5.11-.05 16.16 8.24 17.11z" fill="#bcbec0" stroke="#fff" stroke-miterlimit="10"/><path d="M343.35-197.18a33 33 0 0 0-.54-5.48c-4.45.84-11.05 1.62-18.12.84-.1 1.58-.14 3.73.09 5.97 4.12.87 10.47 1.23 18.57-1.33z" fill="#bcbec0"/><path d="M348.54-204.04s-2.19.71-5.72 1.38c1.76 9.9-.6 19.02-9.88 17.95-8.29-.95-8.56-12-8.24-17.12-1.61-.18-3.25-.44-4.89-.8 0 0-17.03 65.98-17.38 87.62 0 0 33.34 8.16 63.85-.35 0 0-10.29-73.07-17.74-88.68z" fill="#bcbec0" stroke="#fff" stroke-miterlimit="10"/><path d="M333.64-131.5c-26.05 0-22.81-31.63-19.85-46.49-4.94 21.08-11.15 50.01-11.36 62.99 0 0 33.34 8.16 63.85-.35 0 0-6.38-45.34-12.74-72.22 1.61 7.03 11.71 56.07-19.9 56.07z" fill="#bcbec0" stroke="#fff" stroke-miterlimit="10" opacity=".7"/></g><g><path d="M346.5-295.8s-36.89-11-54.63 14.19c-17.74 25.19-20.57 69.53 28.73 79.81 32.63 3.55 56.4-7.8 58.53-34.76 2.13-26.96 2.84-61.01-32.63-59.24z" fill="#bcbec0" stroke="#fff" stroke-miterlimit="10"/><path d="M360.95-294.03c8.19 14.1 11.5 43.26 8.58 58.19-3.19 16.32-28.38 19.86-30.86 6.38-2.48-13.48 6.03-26.6 18.09-28.02-6.38-3.55-15.61.71-17.03-6.03-1.42-6.74 3.19-13.48 14.9-18.09-5.32-1.06-17.03 5.32-16.67.35-.44-4.8 1.01-11.49 2.18-15.92-3.7-.62-8.72-1.17-14.28-.98 2.59 2.98 5.08 7.48 5.71 14.06 0 11.71-2.13 8.51-8.51 9.93 7.09 2.13 8.16 4.26 7.8 7.8-.35 3.55-11.71-1.06-15.61 4.26 8.51-2.84 15.96 3.19 14.54 17.03-1.42 13.83-11.71 14.54-11.71 14.54s10.29 3.55 10.29 8.16-21.28 10.64-31.57-1.06c-10.29-11.71 16.67-64.56 16.67-64.56l-12.06 1.77s-.52-2.26.36-4.99c-3.65 2.38-7.04 5.51-9.92 9.6-17.74 25.19-20.57 69.53 28.73 79.81 32.63 3.55 56.4-7.8 58.53-34.76 1.81-22.62 2.58-50.22-18.16-57.47z" fill="#bcbec0" stroke="#fff" stroke-miterlimit="10" opacity=".5"/><path d="M255.94-225.97l-8.74-2.26s-.85-39.75 28.76-56.67c17.76-9.3 30.73 4.51 22.84 17.2-7.89 12.69-11.56 43.13-11.56 43.13h-6.2l1.97-16.07-5.64 16.92-11-1.41s-.85-12.12 1.69-18.89c-5.08 7.05-6.48 17.2-6.48 17.2h-2.26s.84-10.99 2.54-15.51c-4.51 6.78-5.92 16.36-5.92 16.36zM367.86-282.07s10.43 33.83 3.95 58.92c6.48.85 7.61.56 7.61.56l1.13-12.4 2.82 11.28 5.36-1.13 1.41-12.4 2.82 12.4 9.02-1.13s-.56-12.12-2.54-18.32c4.51 6.77 4.79 18.04 4.79 18.04l5.64-1.13s2.26-21.43-14.38-44.26c-9.59-12.4-27.07-18.04-27.63-10.43z" fill="#bcbec0" stroke="#fff" stroke-miterlimit="10"/><g fill="#bcbec0" stroke="#fff" stroke-miterlimit="10"><path d="M333.37-292.96s.06 1.32.16 3.63c.09 2.31.21 5.6.36 9.56.11 3.96.29 8.57.39 13.52.11 4.95.22 10.22.33 15.5.06 5.28.13 10.55.19 15.5.07 4.95.04 9.57.07 13.52.02 3.96-.03 7.26-.04 9.57-.03 2.31-.04 3.63-.04 3.63s-.06-1.32-.16-3.63c-.08-2.31-.24-5.6-.36-9.56-.11-3.96-.29-8.57-.39-13.52-.1-4.95-.22-10.22-.33-15.5-.06-5.28-.13-10.55-.19-15.5-.06-4.95-.04-9.57-.07-13.52.02-3.96.03-7.26.04-9.57.03-2.31.04-3.63.04-3.63zM337.98-274.87s.67-.67 1.84-1.48c.58-.4 1.27-.85 2.05-1.28.77-.44 1.63-.83 2.51-1.2.88-.34 1.79-.64 2.66-.85.87-.2 1.7-.31 2.42-.35.36-.01.69 0 .98.01.29-.01.54.05.75.08l.64.11s-.23.04-.64.1c-.2.04-.45.05-.72.12-.27.06-.59.13-.92.19-.33.09-.69.2-1.07.29-.37.12-.77.24-1.18.37-.81.28-1.67.58-2.52.93-.85.33-1.7.7-2.49 1.05-.79.35-1.53.68-2.16.97-1.29.56-2.15.94-2.15.94zM326.63-272.03s.28-.22.77-.31c.48-.12 1.16-.09 1.79.13l.45.23c.16.06.28.17.4.28.23.23.46.41.56.66.23.46.28.79.28.79s-.35-.13-.71-.36c-.17-.12-.43-.18-.64-.3-.1-.07-.23-.1-.35-.15l-.37-.15c-.11-.07-.25-.09-.38-.14-.13-.03-.25-.11-.37-.14-.25-.07-.49-.18-.7-.24-.41-.16-.73-.3-.73-.3zM318.12-263.16s.82-.41 2.15-.75c.66-.17 1.44-.34 2.3-.43.85-.12 1.77-.13 2.69-.1.46.03.92.09 1.37.13.45.08.89.17 1.31.28.84.22 1.6.54 2.21.87.3.18.57.36.8.51.24.15.4.34.56.47.29.28.45.43.45.43s-.21-.09-.57-.26c-.18-.08-.38-.2-.64-.29-.26-.09-.54-.19-.84-.31-.31-.1-.66-.17-1.02-.28-.36-.1-.76-.14-1.15-.24-.4-.08-.82-.1-1.24-.17-.43-.03-.86-.08-1.29-.09-.44-.01-.87-.05-1.3-.04-.43 0-.86-.01-1.27.01-.83.01-1.6.06-2.27.09-1.35.11-2.25.17-2.25.17zM335.5-252.52s.2-.16.57-.42c.38-.25.91-.61 1.59-.99s1.48-.79 2.38-1.16c.89-.38 1.87-.73 2.87-1.02.5-.15 1.01-.25 1.51-.36.5-.12 1.01-.16 1.49-.23.49-.06.97-.06 1.41-.09.45 0 .88.04 1.27.06.39.04.75.13 1.06.18.31.05.58.16.79.23.43.15.66.25.66.25s-.26-.01-.71-.05c-.22-.02-.48-.06-.8-.04-.3.01-.65.02-1.02.03-.37.04-.77.08-1.2.12-.42.07-.87.14-1.33.22-.92.19-1.89.4-2.85.69-.97.25-1.92.58-2.82.87-.9.31-1.74.6-2.46.84-1.44.53-2.41.87-2.41.87zM323.09-228.05s.58-.21 1.47-.31c.89-.11 2.09-.12 3.28.09.3.05.59.13.88.2.29.06.56.19.83.28.53.21 1.01.48 1.38.75.19.13.34.29.48.41.14.12.24.26.32.36.16.22.24.34.24.34s-.14-.06-.37-.18c-.22-.13-.57-.24-.95-.4-.4-.13-.87-.27-1.38-.39-.51-.11-1.06-.24-1.62-.33-1.11-.21-2.24-.38-3.1-.53-.87-.14-1.46-.29-1.46-.29zM314.93-212.44s.28-.1.77-.27 1.19-.4 2.02-.69c1.67-.54 3.89-1.26 6.12-1.98.55-.19 1.1-.37 1.65-.56.54-.2 1.09-.33 1.6-.53.52-.18 1.01-.36 1.48-.53.47-.17.93-.3 1.34-.46.81-.33 1.51-.57 1.99-.75.49-.18.77-.27.77-.27s-.24.17-.68.45c-.44.27-1.06.68-1.83 1.13-.78.42-1.73.85-2.74 1.31-.51.23-1.04.42-1.59.62s-1.1.4-1.66.6c-1.13.33-2.26.69-3.34.94s-2.09.48-2.96.62c-1.76.31-2.94.37-2.94.37zM339.4-219.53s.32.11.88.29c.56.2 1.37.43 2.33.73s2.09.61 3.3.94c1.21.31 2.5.64 3.81.89.65.13 1.3.28 1.95.36.65.1 1.28.22 1.9.29.62.08 1.22.16 1.79.2.57.04 1.11.12 1.61.12.5.02.96.05 1.37.07.41 0 .77 0 1.06-.01.59 0 .93.01.93.01s-.33.08-.91.19c-.58.12-1.42.27-2.44.34-.51.06-1.06.06-1.65.06-.59.02-1.21-.01-1.84-.06-1.28-.07-2.63-.28-3.97-.54-1.34-.28-2.65-.63-3.87-1.03-1.21-.41-2.32-.84-3.25-1.27-1.86-.83-3-1.58-3-1.58zM339.76-213.15s.55.09 1.32.27c.77.17 1.77.42 2.76.64.5.11.99.2 1.46.28.47.07.91.12 1.29.17.38.02.71.06.95.05.24.01.38.02.38.02s-.11.07-.33.19c-.21.13-.54.25-.94.35-.41.1-.89.16-1.42.16-.52.01-1.07-.07-1.61-.17-.53-.13-1.06-.28-1.53-.48-.47-.19-.9-.42-1.24-.63-.71-.44-1.09-.85-1.09-.85z"/></g><path d="M275.95-284.89c-.64.36-1.24.75-1.85 1.13l.01.02s12.41-5.32 19.16.36c6.47 5.45-9.61 18.43-18.75 59.31l2.84.36 5.64-16.92-1.97 16.07h6.2s3.66-30.45 11.56-43.13c7.89-12.69-5.08-26.5-22.84-17.2z" fill="#bcbec0" stroke="#fff" stroke-miterlimit="10"/><path d="M292.55-287.06c3.14 1.67 6.28 4.65 5.6 9.81-1.19 8.92-12.34 28.27-13.52 52.69h2.6s3.66-30.45 11.56-43.13c5.04-8.11 1.56-16.66-6.24-19.37z" fill="#bcbec0" stroke="#fff" stroke-miterlimit="10"/><path d="M291.18-287.36l5.92-6.13 1.48 9.84s7.93-2.22 10.89-1.16c-3.07 7.3-6.77 12.69-6.77 12.69s-2.86-9.1-4.44-10.89c-2.85-2.44-7.08-4.35-7.08-4.35zM374.61-280.47c1.9-2.57 5.72-2.3 8.75-1.54-7.77-4.35-15.14-4.95-15.5-.05 0 0 10.43 33.83 3.95 58.92 6.48.85 7.61.56 7.61.56l1.13-12.4 2.82 11.28 2.64-.56c-5.22-34.97-14.4-52.15-11.4-56.21z" fill="#bcbec0" stroke="#fff" stroke-miterlimit="10"/><path d="M371.95-273.39c-2.03-7.14-.45-10.49 1.77-12.05-3.34-.34-5.66.68-5.86 3.38 0 0 10.43 33.83 3.95 58.92 2.02.26 3.51.42 4.62.5 2.18-16.16-.76-37.66-4.48-50.75z" fill="#bcbec0" stroke="#fff" stroke-miterlimit="10"/><path d="M364.06-288.53s1.24 6.39 4.08 9.93c2.66-3.72 5.68-6.74 5.68-6.74l8.16 2.66s.53-6.21-.53-9.4c-4.97 3.19-7.8 5.68-7.8 5.68s-6.05-1.77-9.59-2.13z" fill="#bcbec0" stroke="#fff" stroke-miterlimit="10"/></g></g><g><g fill="#231f20"><path d="M40.75-386.62h1.01l1.72 3.31.57 1.26h.03c-.05-.61-.13-1.35-.13-2.01v-2.56h.94v5.89h-.99l-1.72-3.31-.57-1.25h-.03c.05.62.13 1.33.13 1.99v2.58h-.94v-5.9zM45.96-382.94c0-1.47.94-2.32 1.98-2.32s1.98.85 1.98 2.32c0 1.47-.94 2.32-1.98 2.32-1.03-.01-1.98-.86-1.98-2.32zm2.96 0c0-.89-.37-1.48-.98-1.48s-.98.59-.98 1.48.37 1.47.98 1.47.98-.59.98-1.47zM52.6-385.16h.8l.07.47h.03c.35-.32.8-.58 1.26-.58 1.04 0 1.64.89 1.64 2.25 0 1.51-.85 2.39-1.78 2.39-.37 0-.73-.18-1.07-.49l.03.73v1.39h-.98v-6.16zm2.79 2.16c0-.88-.27-1.4-.91-1.4-.3 0-.59.16-.91.5v2.06c.3.27.59.37.83.37.57-.01.99-.53.99-1.53zM57.16-381.92c0-.95.74-1.44 2.45-1.63-.01-.48-.19-.87-.76-.87-.41 0-.8.2-1.17.44l-.36-.69c.46-.31 1.05-.58 1.71-.58 1.04 0 1.55.68 1.55 1.91v2.62h-.8l-.07-.49h-.03c-.37.34-.8.6-1.29.6-.72-.02-1.23-.54-1.23-1.31zm2.45 0v-.99c-1.13.15-1.51.46-1.51.91 0 .39.25.56.6.56s.6-.18.91-.48zM61.66-386.52c0-.35.26-.59.6-.59s.6.24.6.59c0 .34-.26.59-.6.59s-.6-.25-.6-.59zm.11 1.36h.98v4.42h-.98v-4.42zM63.99-385.16h.8l.07.6h.03c.37-.39.8-.71 1.37-.71.89 0 1.28.64 1.28 1.76v2.77h-.98v-2.64c0-.73-.2-1-.65-1-.37 0-.61.19-.95.55v3.09h-.98v-4.42zM40.98-375.82H42l1.72 3.31.57 1.26h.03c-.05-.61-.13-1.35-.13-2.01v-2.56h.94v5.89h-1.01l-1.72-3.31-.57-1.25h-.03c.05.62.13 1.33.13 1.99v2.58h-.94v-5.9zM46.19-372.14c0-1.47.94-2.32 1.98-2.32s1.98.85 1.98 2.32c0 1.47-.94 2.32-1.98 2.32-1.03-.01-1.98-.86-1.98-2.32zm2.96 0c0-.89-.37-1.48-.98-1.48s-.98.59-.98 1.48.37 1.47.98 1.47.98-.59.98-1.47zM52.83-376.29h.98v1.65l-.04.85c.35-.35.76-.67 1.33-.67.89 0 1.28.64 1.28 1.76v2.77h-.98v-2.64c0-.73-.2-1-.65-1-.37 0-.61.19-.95.55v3.09h-.98v-6.36zM57.52-371.58v-2.77h.98v2.64c0 .73.2 1 .65 1 .37 0 .61-.18.92-.61v-3.03h.98v4.42h-.8l-.07-.65h-.03c-.37.46-.77.76-1.34.76-.9-.01-1.29-.65-1.29-1.76zM62.29-374.36h.8l.07.79h.03c.3-.58.74-.9 1.18-.9.21 0 .35.03.47.09l-.17.9c-.15-.04-.25-.07-.43-.07-.33 0-.73.24-.98.91v2.7h-.98v-4.42zM65.6-371.43v-2.11H65v-.78l.65-.05.12-1.21h.81v1.21h1.06v.82h-1.06v2.1c0 .52.19.78.59.78.14 0 .31-.05.43-.1l.17.76c-.23.08-.52.16-.85.16-.96.02-1.32-.62-1.32-1.58z"/></g></g><path fill="none" stroke="#231f20" stroke-miterlimit="10" d="M29.09-359.64h49.99v44.72H29.09z"/><g><g fill="#231f20"><path d="M147.44-386.62h1.11l.98 2.88c.12.38.23.77.36 1.16h.03c.12-.39.23-.78.35-1.16l.96-2.88h1.11v5.89h-.9v-2.69c0-.54.08-1.33.13-1.87h-.03l-.45 1.37-.91 2.65h-.58l-.92-2.65-.44-1.37h-.03c.05.55.13 1.33.13 1.87v2.69h-.89v-5.89zM153.57-386.52c0-.35.26-.59.6-.59.35 0 .6.24.6.59 0 .34-.26.59-.6.59-.34 0-.6-.24-.6-.59zm.11 1.36h.98v4.42h-.98v-4.42zM155.91-381.87v-5.22h.98v5.28c0 .26.11.35.21.35.04 0 .08 0 .15-.02l.12.77c-.12.05-.28.09-.52.09-.69-.01-.94-.48-.94-1.25zM157.95-382.94c0-1.44.85-2.32 1.76-2.32.47 0 .77.19 1.09.49l-.04-.71v-1.6h.98v6.36h-.8l-.07-.48h-.03c-.31.33-.74.59-1.18.59-1.03-.02-1.71-.87-1.71-2.33zm2.82.96v-2.06c-.29-.27-.57-.37-.85-.37-.53 0-.97.53-.97 1.45 0 .96.35 1.47.95 1.47.33.01.6-.14.87-.49zM164.7-385.16h.8l.07.47h.03c.35-.32.8-.58 1.26-.58 1.04 0 1.64.89 1.64 2.25 0 1.51-.85 2.39-1.78 2.39-.37 0-.73-.18-1.07-.49l.03.73v1.39h-.98v-6.16zm2.79 2.16c0-.88-.27-1.4-.91-1.4-.3 0-.59.16-.91.5v2.06c.3.27.59.37.83.37.56-.01.99-.53.99-1.53zM169.26-381.92c0-.95.74-1.44 2.45-1.63-.01-.48-.19-.87-.76-.87-.41 0-.8.2-1.17.44l-.36-.69c.46-.31 1.05-.58 1.71-.58 1.04 0 1.55.68 1.55 1.91v2.62h-.8l-.07-.49h-.03c-.37.34-.8.6-1.29.6-.73-.02-1.23-.54-1.23-1.31zm2.45 0v-.99c-1.13.15-1.51.46-1.51.91 0 .39.25.56.6.56.34 0 .6-.18.91-.48zM173.75-386.52c0-.35.26-.59.6-.59.35 0 .6.24.6.59 0 .34-.26.59-.6.59-.34 0-.6-.24-.6-.59zm.12 1.36h.98v4.42h-.98v-4.42zM176.09-385.16h.8l.07.6h.03c.37-.39.8-.71 1.37-.71.89 0 1.28.64 1.28 1.76v2.77h-.98v-2.64c0-.73-.2-1-.65-1-.37 0-.61.19-.95.55v3.09h-.98v-4.42zM144.73-375.82h1.15l1.81 5.89h-1.04l-.84-3.13c-.18-.62-.34-1.29-.5-1.94h-.03c-.15.65-.32 1.32-.49 1.94l-.85 3.13h-1l1.79-5.89zm-.74 3.47h2.61v.82h-2.61v-.82zM149.99-371.07v-5.22h.98v5.28c0 .26.11.35.21.35.04 0 .08 0 .15-.02l.12.77c-.12.05-.28.09-.52.09-.68-.01-.94-.48-.94-1.25zM152.18-375.72c0-.35.26-.59.6-.59s.6.24.6.59c0 .34-.26.59-.6.59s-.6-.24-.6-.59zm.12 1.36h.98v4.42h-.98v-4.42zM154.67-371.42v-2.11h-.59v-.78l.65-.05.12-1.21h.81v1.21h1.06v.82h-1.06v2.1c0 .52.19.78.59.78.14 0 .31-.05.43-.1l.17.76c-.23.08-.52.16-.85.16-.98.01-1.33-.63-1.33-1.58zM157.73-371.42v-2.11h-.59v-.78l.65-.05.12-1.21h.81v1.21h1.06v.82h-1.06v2.1c0 .52.19.78.59.78.14 0 .31-.05.43-.1l.17.76c-.23.08-.52.16-.85.16-.97.01-1.33-.63-1.33-1.58zM160.65-371.07v-5.22h.98v5.28c0 .26.11.35.21.35.04 0 .08 0 .15-.02l.12.77c-.12.05-.28.09-.52.09-.69-.01-.94-.48-.94-1.25zM162.68-372.14c0-1.44.94-2.32 1.92-2.32 1.13 0 1.72.86 1.72 2.1 0 .2-.02.4-.04.5h-2.65c.08.79.56 1.23 1.23 1.23.36 0 .66-.12.97-.32l.33.64c-.4.28-.9.48-1.43.48-1.15 0-2.05-.85-2.05-2.31zm2.79-.43c0-.68-.29-1.09-.86-1.09-.49 0-.91.39-1 1.09h1.86zM168.95-376.29h.98v1.65l-.04.85c.35-.35.76-.67 1.33-.67.89 0 1.28.64 1.28 1.76v2.77h-.98v-2.64c0-.73-.2-1-.65-1-.37 0-.61.19-.95.55v3.09h-.98v-6.36zM173.64-371.58v-2.77h.98v2.64c0 .73.2 1 .65 1 .37 0 .61-.18.92-.61v-3.03h.98v4.42h-.8l-.07-.65h-.03c-.37.46-.77.76-1.34.76-.9-.01-1.29-.65-1.29-1.76zM178.41-374.36h.8l.07.79h.03c.3-.58.74-.9 1.18-.9.21 0 .35.03.47.09l-.17.9c-.15-.04-.25-.07-.43-.07-.33 0-.73.24-.98.91v2.7h-.98v-4.42zM181.72-371.42v-2.11h-.59v-.78l.65-.05.12-1.21h.81v1.21h1.06v.82h-1.06v2.1c0 .52.19.78.59.78.14 0 .31-.05.43-.1l.17.76c-.23.08-.52.16-.85.16-.97.01-1.33-.63-1.33-1.58z"/></g></g><path fill="none" stroke="#231f20" stroke-miterlimit="10" d="M138.47-359.64h49.99v44.72h-49.99z"/><g><g fill="#231f20"><path d="M257.47-386.62h1.11l.98 2.88c.12.38.23.77.36 1.16h.03c.12-.39.23-.78.35-1.16l.96-2.88h1.11v5.89h-.9v-2.69c0-.54.08-1.33.13-1.87h-.03l-.45 1.37-.91 2.65h-.58l-.92-2.65-.44-1.37h-.03c.05.55.13 1.33.13 1.87v2.69h-.89v-5.89zM263.43-382.94c0-1.47.94-2.32 1.98-2.32s1.98.85 1.98 2.32c0 1.47-.94 2.32-1.98 2.32-1.03-.01-1.98-.86-1.98-2.32zm2.96 0c0-.89-.37-1.48-.98-1.48s-.98.59-.98 1.48.37 1.47.98 1.47c.62 0 .98-.59.98-1.47zM268.12-382.94c0-1.44.85-2.32 1.76-2.32.47 0 .77.19 1.09.49l-.04-.71v-1.6h.98v6.36h-.8l-.08-.48H271c-.31.33-.74.59-1.18.59-1.03-.02-1.7-.87-1.7-2.33zm2.82.96v-2.06c-.29-.27-.57-.37-.85-.37-.53 0-.97.53-.97 1.45 0 .96.35 1.47.95 1.47.32.01.59-.14.87-.49zM272.88-382.94c0-1.44.94-2.32 1.92-2.32 1.13 0 1.72.86 1.72 2.1 0 .2-.02.4-.04.5h-2.65c.08.79.56 1.23 1.23 1.23.36 0 .66-.12.97-.32l.33.64c-.4.28-.9.48-1.43.48-1.14 0-2.05-.85-2.05-2.31zm2.8-.43c0-.68-.29-1.09-.86-1.09-.49 0-.91.39-1 1.09h1.86zM277.46-385.16h.8l.07.79h.03c.3-.58.74-.9 1.18-.9.21 0 .35.03.47.09l-.17.9c-.15-.04-.25-.07-.43-.07-.33 0-.73.24-.98.91v2.7h-.98v-4.42zM280.41-381.92c0-.95.74-1.44 2.45-1.63-.01-.48-.19-.87-.76-.87-.41 0-.8.2-1.17.44l-.36-.69c.46-.31 1.05-.58 1.71-.58 1.04 0 1.55.68 1.55 1.91v2.62h-.8l-.07-.49h-.03c-.37.34-.8.6-1.29.6-.73-.02-1.23-.54-1.23-1.31zm2.45 0v-.99c-1.13.15-1.51.46-1.51.91 0 .39.25.56.6.56.34 0 .6-.18.91-.48zM285.16-382.22v-2.11h-.59v-.78l.64-.05.12-1.21h.81v1.21h1.06v.82h-1.06v2.1c0 .52.19.78.59.78.14 0 .31-.05.43-.1l.17.76c-.23.08-.52.16-.85.16-.97.01-1.32-.63-1.32-1.58zM287.8-382.94c0-1.44.94-2.32 1.92-2.32 1.13 0 1.72.86 1.72 2.1 0 .2-.02.4-.04.5h-2.65c.08.79.56 1.23 1.23 1.23.36 0 .66-.12.97-.32l.33.64c-.4.28-.9.48-1.43.48-1.14 0-2.05-.85-2.05-2.31zm2.8-.43c0-.68-.29-1.09-.86-1.09-.49 0-.91.39-1 1.09h1.86zM294.08-385.16h.8l.07.47h.03c.35-.32.8-.58 1.26-.58 1.04 0 1.64.89 1.64 2.25 0 1.51-.85 2.39-1.78 2.39-.37 0-.73-.18-1.07-.49l.03.73v1.39h-.98v-6.16zm2.79 2.16c0-.88-.27-1.4-.91-1.4-.3 0-.59.16-.91.5v2.06c.3.27.59.37.83.37.57-.01.99-.53.99-1.53zM298.64-381.92c0-.95.74-1.44 2.45-1.63-.01-.48-.19-.87-.76-.87-.41 0-.8.2-1.17.44l-.36-.69c.46-.31 1.05-.58 1.71-.58 1.04 0 1.55.68 1.55 1.91v2.62h-.8l-.07-.49h-.03c-.37.34-.8.6-1.29.6-.72-.02-1.23-.54-1.23-1.31zm2.45 0v-.99c-1.13.15-1.51.46-1.51.91 0 .39.25.56.6.56s.61-.18.91-.48zM303.14-386.52c0-.35.26-.59.6-.59.35 0 .6.24.6.59 0 .34-.26.59-.6.59-.35 0-.6-.24-.6-.59zm.11 1.36h.98v4.42h-.98v-4.42zM305.47-385.16h.8l.07.6h.03c.37-.39.8-.71 1.37-.71.89 0 1.28.64 1.28 1.76v2.77h-.98v-2.64c0-.73-.2-1-.65-1-.37 0-.61.19-.95.55v3.09h-.98v-4.42zM265.97-375.82h1.11l.98 2.88c.12.38.23.77.36 1.16h.03c.12-.39.23-.78.35-1.16l.96-2.88h1.11v5.89h-.9v-2.69c0-.54.08-1.33.13-1.87h-.03l-.45 1.37-.91 2.65h-.58l-.92-2.65-.44-1.37h-.03c.05.55.13 1.33.13 1.87v2.69h-.89v-5.89zM271.93-372.14c0-1.47.94-2.32 1.98-2.32s1.98.85 1.98 2.32c0 1.47-.94 2.32-1.98 2.32s-1.98-.86-1.98-2.32zm2.96 0c0-.89-.37-1.48-.98-1.48s-.98.59-.98 1.48.37 1.47.98 1.47c.62 0 .98-.59.98-1.47zM276.87-374.36h.8l.07.79h.03c.3-.58.74-.9 1.18-.9.21 0 .35.03.47.09l-.17.9c-.15-.04-.25-.07-.43-.07-.33 0-.73.24-.98.91v2.7h-.98v-4.42zM279.76-372.14c0-1.44.94-2.32 1.92-2.32 1.13 0 1.72.86 1.72 2.1 0 .2-.02.4-.04.5h-2.65c.08.79.56 1.23 1.23 1.23.36 0 .66-.12.97-.32l.33.64c-.4.28-.9.48-1.43.48-1.14 0-2.05-.85-2.05-2.31zm2.8-.43c0-.68-.29-1.09-.86-1.09-.49 0-.91.39-1 1.09h1.86zM286.04-376.29h.98v1.65l-.04.85c.35-.35.76-.67 1.33-.67.89 0 1.28.64 1.28 1.76v2.77h-.98v-2.64c0-.73-.2-1-.65-1-.37 0-.61.19-.95.55v3.09h-.98v-6.36zM290.73-371.58v-2.77h.98v2.64c0 .73.2 1 .65 1 .37 0 .61-.18.92-.61v-3.03h.98v4.42h-.8l-.08-.65h-.03c-.37.46-.77.76-1.34.76-.89-.01-1.28-.65-1.28-1.76zM295.5-374.36h.8l.07.79h.03c.3-.58.74-.9 1.18-.9.21 0 .35.03.47.09l-.17.9c-.15-.04-.25-.07-.43-.07-.33 0-.73.24-.98.91v2.7h-.98v-4.42zM298.81-371.42v-2.11h-.59v-.78l.64-.05.12-1.21h.81v1.21h1.06v.82h-1.06v2.1c0 .52.19.78.59.78.14 0 .31-.05.43-.1l.17.76c-.23.08-.52.16-.85.16-.96.01-1.32-.63-1.32-1.58z"/></g></g><path fill="none" stroke="#231f20" stroke-miterlimit="10" d="M258.19-359.64h49.99v44.72h-49.99zM376.2-359.64h49.99v44.72H376.2z"/><g><g fill="#231f20"><path d="M380.14-381.49l.57-.72c.4.4.93.67 1.45.67.63 0 .97-.3.97-.76 0-.48-.36-.64-.86-.87l-.76-.35c-.55-.24-1.12-.7-1.12-1.56 0-.94.78-1.66 1.86-1.66.65 0 1.28.28 1.71.75l-.51.66c-.35-.32-.73-.51-1.2-.51-.53 0-.87.26-.87.69 0 .46.42.63.88.83l.75.33c.66.29 1.12.73 1.12 1.59 0 .95-.75 1.75-1.99 1.75-.75.02-1.47-.29-2-.84zM384.79-382.94c0-1.44.94-2.32 1.92-2.32 1.13 0 1.72.86 1.72 2.1 0 .2-.02.4-.04.5h-2.65c.08.79.56 1.23 1.23 1.23.36 0 .66-.12.97-.32l.33.64c-.4.28-.9.48-1.43.48-1.15 0-2.05-.85-2.05-2.31zm2.79-.43c0-.68-.29-1.09-.86-1.09-.49 0-.91.39-1 1.09h1.86zM388.85-385.16h.99l.66 2.29c.12.44.24.89.35 1.33h.03c.12-.44.24-.9.35-1.33l.66-2.29h.94l-1.42 4.42h-1.13l-1.43-4.42zM393.29-382.94c0-1.44.94-2.32 1.92-2.32 1.13 0 1.72.86 1.72 2.1 0 .2-.02.4-.04.5h-2.65c.08.79.56 1.23 1.23 1.23.36 0 .66-.12.97-.32l.33.64c-.4.28-.9.48-1.43.48-1.14 0-2.05-.85-2.05-2.31zm2.8-.43c0-.68-.29-1.09-.86-1.09-.49 0-.91.39-1 1.09h1.86zM397.88-385.16h.8l.07.79h.03c.3-.58.74-.9 1.18-.9.21 0 .35.03.47.09l-.17.9c-.15-.04-.25-.07-.43-.07-.33 0-.73.24-.98.91v2.7h-.98v-4.42zM400.77-382.94c0-1.44.94-2.32 1.92-2.32 1.13 0 1.72.86 1.72 2.1 0 .2-.02.4-.04.5h-2.65c.08.79.56 1.23 1.23 1.23.36 0 .66-.12.97-.32l.33.64c-.4.28-.9.48-1.43.48-1.15 0-2.05-.85-2.05-2.31zm2.79-.43c0-.68-.29-1.09-.86-1.09-.49 0-.91.39-1 1.09h1.86zM407.04-385.16h.8l.07.47h.03c.35-.32.8-.58 1.26-.58 1.04 0 1.64.89 1.64 2.25 0 1.51-.85 2.39-1.78 2.39-.37 0-.73-.18-1.07-.49l.03.73v1.39h-.98v-6.16zm2.8 2.16c0-.88-.27-1.4-.91-1.4-.3 0-.59.16-.91.5v2.06c.3.27.59.37.83.37.56-.01.99-.53.99-1.53zM411.61-381.92c0-.95.74-1.44 2.45-1.63-.01-.48-.19-.87-.76-.87-.41 0-.8.2-1.17.44l-.36-.69c.46-.31 1.05-.58 1.71-.58 1.04 0 1.55.68 1.55 1.91v2.62h-.8l-.07-.49h-.03c-.37.34-.8.6-1.29.6-.73-.02-1.23-.54-1.23-1.31zm2.45 0v-.99c-1.13.15-1.51.46-1.51.91 0 .39.25.56.6.56.34 0 .6-.18.91-.48zM416.1-386.52c0-.35.26-.59.6-.59.35 0 .6.24.6.59 0 .34-.26.59-.6.59-.34 0-.6-.25-.6-.59zm.11 1.36h.98v4.42h-.98v-4.42zM418.44-385.16h.8l.07.6h.03c.37-.39.8-.71 1.37-.71.89 0 1.28.64 1.28 1.76v2.77h-.98v-2.64c0-.73-.2-1-.65-1-.37 0-.61.19-.95.55v3.09h-.98v-4.42zM381.98-375.82h1.01l.48 2.97c.09.63.19 1.25.28 1.88h.03c.12-.63.24-1.26.36-1.88l.68-2.97h.86l.68 2.97c.12.61.24 1.25.37 1.88h.03l.27-1.88.48-2.97h.94l-1.07 5.89h-1.22l-.69-3.1c-.09-.46-.17-.91-.25-1.35h-.03c-.08.45-.16.9-.25 1.35l-.67 3.1h-1.2l-1.09-5.89zM388.96-372.14c0-1.47.94-2.32 1.98-2.32s1.98.85 1.98 2.32c0 1.47-.94 2.32-1.98 2.32s-1.98-.86-1.98-2.32zm2.96 0c0-.89-.37-1.48-.98-1.48s-.98.59-.98 1.48.37 1.47.98 1.47c.62 0 .98-.59.98-1.47zM393.9-374.36h.8l.07.79h.03c.3-.58.74-.9 1.18-.9.21 0 .35.03.47.09l-.17.9c-.15-.04-.25-.07-.43-.07-.33 0-.73.24-.98.91v2.7h-.98v-4.42zM396.65-370.44l.46-.66c.37.31.73.49 1.15.49.45 0 .67-.23.67-.53 0-.37-.45-.54-.9-.72-.55-.22-1.17-.55-1.17-1.29 0-.77.58-1.32 1.52-1.32.58 0 1.05.25 1.38.53l-.45.64c-.29-.23-.58-.39-.91-.39-.42 0-.62.21-.62.49 0 .35.42.48.87.66.56.22 1.19.51 1.19 1.34 0 .76-.57 1.37-1.62 1.37-.56 0-1.16-.26-1.57-.61zM400.87-371.43v-2.11h-.59v-.78l.64-.05.12-1.21h.81v1.21h1.06v.82h-1.06v2.1c0 .52.19.78.59.78.14 0 .31-.05.43-.1l.17.76c-.23.08-.52.16-.85.16-.96.02-1.32-.62-1.32-1.58zM405.49-376.29h.98v1.65l-.04.85c.35-.35.76-.67 1.33-.67.89 0 1.28.64 1.28 1.76v2.77h-.98v-2.64c0-.73-.2-1-.65-1-.37 0-.61.19-.95.55v3.09h-.98v-6.36zM410.18-371.58v-2.77h.98v2.64c0 .73.2 1 .65 1 .37 0 .61-.18.92-.61v-3.03h.98v4.42h-.8l-.08-.65h-.03c-.37.46-.77.76-1.34.76-.89-.01-1.28-.65-1.28-1.76zM414.95-374.36h.8l.07.79h.03c.3-.58.74-.9 1.18-.9.21 0 .35.03.47.09l-.17.9c-.15-.04-.25-.07-.43-.07-.33 0-.73.24-.98.91v2.7h-.98v-4.42zM418.26-371.43v-2.11h-.59v-.78l.64-.05.12-1.21h.81v1.21h1.06v.82h-1.06v2.1c0 .52.19.78.59.78.14 0 .31-.05.43-.1l.17.76c-.23.08-.52.16-.85.16-.96.02-1.32-.62-1.32-1.58z"/></g></g><g fill="#bcbec0"><path d="M117.32 91.27H61.61c-21.92 0-39.7 17.92-39.7 40.03v57.42c0 14.74 7.91 27.62 19.68 34.56 2.1 1.24 4.75-.26 4.75-2.72v-85.71c0-1.39 1.12-2.51 2.49-2.51 1.38 0 2.49 1.12 2.49 2.51v203.91c0 9.91 7.57 18.55 17.39 18.85 10.16.31 18.5-7.91 18.5-18.09V236.05c0-1.39 1.11-2.51 2.49-2.51 1.38 0 2.49 1.12 2.49 2.51v102.7c0 9.91 7.57 18.55 17.39 18.85 10.16.31 18.5-7.91 18.5-18.09V134.85c0-1.39 1.12-2.51 2.49-2.51 1.38 0 2.49 1.12 2.49 2.51v85.41c0 2.47 2.69 3.98 4.78 2.7a40.043 40.043 0 0 0 19.17-34.25V131.3c.01-22.11-17.76-40.03-39.69-40.03z"/><ellipse cx="89.67" cy="47.13" rx="35.17" ry="35.47"/></g><g fill="#808285" stroke="#fff" stroke-miterlimit="10"><path d="M288.4 91.27h-55.72c-21.92 0-39.7 17.92-39.7 40.03v57.42c0 14.74 7.91 27.62 19.68 34.56 2.1 1.24 4.75-.26 4.75-2.72v-85.71c0-1.39 1.12-2.51 2.49-2.51 1.38 0 2.49 1.12 2.49 2.51v203.91c0 9.91 7.57 18.55 17.39 18.85 10.16.31 18.5-7.91 18.5-18.09V236.05c0-1.39 1.11-2.51 2.49-2.51 1.38 0 2.49 1.12 2.49 2.51v102.7c0 9.91 7.57 18.55 17.39 18.85 10.16.31 18.5-7.91 18.5-18.09V134.85c0-1.39 1.12-2.51 2.49-2.51 1.38 0 2.49 1.12 2.49 2.51v85.41c0 2.47 2.69 3.98 4.78 2.7a40.043 40.043 0 0 0 19.17-34.25V131.3c.02-22.11-17.76-40.03-39.68-40.03z"/><ellipse cx="260.74" cy="47.13" rx="35.17" ry="35.47"/></g><g><g fill="#fff"><path d="M49.93 102.27h11.56v3.03h-8.17v5.75h6.95v3.03h-6.95v8.47h-3.39v-20.28zM64.84 102.27h6.45c3.98 0 7.04 1.49 7.04 6.02 0 4.36-3.07 6.34-7.04 6.34h-3.05v7.92h-3.39v-20.28zm6.1 9.48c2.62 0 4.05-1.15 4.05-3.46 0-2.33-1.43-3.14-4.05-3.14h-2.7v6.6h2.7zm-.29 1.92l2.46-2.15 5.97 11.03h-3.81l-4.62-8.88zM81.15 112.33c0-6.56 3.45-10.43 8.44-10.43s8.44 3.89 8.44 10.43c0 6.56-3.45 10.59-8.44 10.59s-8.44-4.03-8.44-10.59zm13.39 0c0-4.55-1.94-7.3-4.95-7.3-3.01 0-4.95 2.75-4.95 7.3s1.94 7.47 4.95 7.47c3 0 4.95-2.91 4.95-7.47zM101.87 102.27h3.49l5.94 11.4 1.98 4.33h.12c-.16-2.1-.43-4.66-.43-6.92v-8.81h3.23v20.28h-3.49l-5.94-11.42-1.98-4.31h-.12c.16 2.15.43 4.59.43 6.85v8.88h-3.23v-20.28zM124.91 105.3h-5.52v-3.03h14.44v3.03h-5.52v17.25h-3.39V105.3z"/></g></g><g><g fill="#fff"><path d="M229.87 102.27h6.12c3.93 0 6.82 1.28 6.82 5 0 1.91-.98 3.77-2.66 4.39v.12c2.12.51 3.67 2.07 3.67 4.81 0 4.06-3.13 5.95-7.35 5.95h-6.61v-20.27zm5.82 8.38c2.67 0 3.8-1.1 3.8-2.87 0-1.96-1.25-2.7-3.73-2.7h-2.49v5.57h2.42zm.44 9.1c2.81 0 4.38-1.07 4.38-3.35 0-2.13-1.52-3.06-4.38-3.06h-2.87v6.41h2.87zM251.07 102.27h3.98l6.24 20.28h-3.59l-2.91-10.79c-.61-2.15-1.17-4.46-1.73-6.68h-.12c-.53 2.24-1.09 4.54-1.7 6.68l-2.94 10.79h-3.46l6.23-20.28zm-2.55 11.97h9.01v2.82h-9.01v-2.82zM262.64 112.48c0-6.64 3.92-10.58 8.76-10.58 2.4 0 4.31 1.21 5.51 2.57l-1.81 2.32c-.98-1.04-2.13-1.76-3.63-1.76-3.11 0-5.35 2.79-5.35 7.34 0 4.63 2.06 7.43 5.26 7.43 1.7 0 3.01-.83 4.08-2.08l1.81 2.26c-1.55 1.91-3.54 2.95-6.03 2.95-4.78 0-8.6-3.74-8.6-10.45zM280.49 102.27h3.39v9.22h.09l6.81-9.22h3.77l-5.88 7.91 6.88 12.37h-3.74l-5.17-9.54-2.75 3.62v5.92h-3.39v-20.28z"/></g></g></svg>