<svg version="1.1" xmlns="http://www.w3.org/2000/svg" x="0" y="0" viewBox="0 0 453.54 343.08" xml:space="preserve"><path d="M299.06 82.8h-72.93l-.73 50.92M299.06 158.26h-33.47l-1.38 2.52M270.61 197.53h28.45M248.87 233.69h50.19" fill="none" stroke="#939598" stroke-width=".5" stroke-linejoin="round"/><path d="M211.35 195.26c.75-.33 1.55-.13 2.33-.09 1.27.05 2.61-.22 3.86.08 1.93.46 3.32 2.52 4.75 3.77.82.72 1.52 1.45 1.94 2.3.64.83.96 1.67.48 2.38-.11.17-.32.24-.51.13-1.01-.59-1.81-1.39-2.65-2.14-.08 0-.15-.02-.21-.05-.91-.44-1.47-1.12-2.53-1.28-.92-.14-1.89.13-2.78.3-2.03.39-3.49.02-5.49-.5-.55-.14-.97-.7-.96-1.26.04-1.31.47-3.06 1.77-3.64zM138.38 146.07c4.03-2.08 8.8-2.73 13.7-2.78 1.2-.07 2.41-.04 3.62.06 4.77.21 9.52.82 13.7 1.13 5.27.39 10.11 1.19 14.62 4.17 2.63 1.74 4.53 4.22 6.93 6.21 2.23 1.84 4.98 2.51 7.08 4.5.19.18-.09.44-.29.29-1.84-1.46-4.34-1.79-6.36-2.96-.01.18-.18.34-.4.24-10.63-4.98-22.83-9.35-34.76-11.21-5.9-.43-11.84-.35-17.41 1.34-.59.18-.98-.71-.43-.99zM236.91 168.64c4.37-3.73 12.67-3.49 17.99-2.71 7.98 1.17 12.94 6.79 17.6 12.85 1.03.98 2.01 1.99 2.94 3.02.24.26.01.8-.38.65-5.03-2.03-8.53-6.37-13.43-8.71-6.66-3.18-15.22-5.5-22.57-4.65-.04 0-.07-.01-.11-.01-.43.18-.85.37-1.25.58-.62.33-1.38-.52-.79-1.02zM230.49 257.16c-1.96-4.05-1.65-8.69-3.34-12.8-2.48-6.02-11.54-7.36-17.23-8.93-7.86-2.17-13.85-.52-21.28 2.26-6.98 2.62-14.3 4.96-21.56 6.66-1.07.25-1.4-1.2-.44-1.6 8.28-3.45 17.35-5.68 25.85-8.63 7.24-2.51 12.81-2.07 20.01.06 4.56 1.35 11.29 2.67 14.33 6.74 3.14 4.2 3.03 11.18 3.89 16.13.03.15-.16.26-.23.11z" stroke="#231f20" stroke-width=".25" stroke-miterlimit="10"/><path d="M168.61 242.79c-5.87 10.54-.45 21.99 10.19 26.19 8.49 3.35 17.69 5.59 26.41 8.22 7.67 2.31 17.56 6.71 21.37-2.85 3.73-9.35 6.4-19.03 5.62-29.1-.06-.75 1.09-.87 1.28-.17 1.68 5.98.54 11.87-1.26 17.69-1.52 4.91-2.63 10.82-5.36 15.26-4.64 7.53-15.67 2.87-22.13.93-6.82-2.06-13.56-4.32-20.43-6.24-5.03-1.41-10.54-2.99-14.51-6.58-6.1-5.5-7.78-17.76-2.31-24.2.54-.65 1.51.16 1.13.85z" stroke="#231f20" stroke-width=".25" stroke-miterlimit="10"/><path d="M227.29 261.04c-.07 3.14-.38 6.44-1.62 9.36-.85 2.01-2.66 5.13-5.22 4.99-.25-.01-.33-.32-.12-.46 2.64-1.82 3.99-3.3 5.14-6.38.89-2.4 1.48-4.95 1.69-7.5-.01-.09.13-.1.13-.01z" stroke="#231f20" stroke-width=".25" stroke-miterlimit="10"/><path d="M223.75 277.7c-5.36-1.59-11.19-2.72-16.33-4.91-2.7-1.15-5.21-2.68-7.93-3.77-3.34-1.34-6.78-1.63-10.34-1.9-8.48-.65-17.88-1.2-22.86-9.12-.39-.63.54-1.38 1.04-.8 7.58 8.76 17.65 7 27.96 8.77 4.51.77 8.15 3.21 12.26 5.06 5.39 2.44 11.55 2.6 16.45 6.11.26.19.11.67-.25.56zM167.79 243.76c5.68 6.94 13.03 8.54 21.5 9.85 6 .93 13.67 1.72 18.06 6.43.48.51-.12 1.3-.75.97-7.65-4.07-14.92-5.05-23.29-6.8-6.48-1.36-12.84-3.86-16.33-9.83-.28-.48.43-1.08.81-.62z" stroke="#231f20" stroke-width=".25" stroke-miterlimit="10"/><path d="M171.37 240.75c7.55-.26 14.65 5.77 19.42 11.03.25.27-.08.78-.42.54-6.15-4.44-11.1-9.56-19-10.46-.69-.08-.73-1.09 0-1.11z" stroke="#231f20" stroke-width=".25" stroke-miterlimit="10"/><path d="M180.64 243.15c11.72 6.73 26.43 6.38 35.49 17.59 1.97 2.44 4.12 6.26 1.66 9.16-2.7 3.19-9.29 2.3-12.81 1.6-.83-.17-.88-1.61 0-1.73 1.5-.21 2.94-.11 4.45-.08.79.01 2.05.29 2.8.02 1.48-.53 3.89-4.58 3.54-6.1-.82-3.6-8.23-8.19-11.17-9.59-7.9-3.78-17.9-3.95-24.54-10.11-.4-.39.12-1.03.58-.76zM227.71 242.72c-2.12 3.65-7.89 1.47-10.93.46-7.21-2.39-15.08-4.5-21.48-8.65-.59-.38-.23-1.46.5-1.19 5.67 2.09 11.16 4.59 16.86 6.64 3.46 1.24 10.96 5.36 14.15 2.04.46-.47 1.23.14.9.7z" stroke="#231f20" stroke-width=".25" stroke-miterlimit="10"/><path d="M232.98 248.64c-.01-3.1-.06-6.38-.94-9.36-.57-1.95-1.4-4.06-2.84-5.54-2.23-2.28-5.4-2.02-8.31-2.42-6.24-.86-11.69-2.97-18.14-2.5-12.42.91-26.86 4.41-35.29 14.22-.72.84-1.86-.36-1.2-1.2 8.9-11.25 27.58-15.32 41.26-14.92 4.07.12 7.62 1.78 11.57 2.43 3.52.58 7.35.06 10.32 2.42 4.73 3.77 5.19 11.51 4.44 16.99-.07.49-.87.36-.87-.12z" stroke="#231f20" stroke-width=".25" stroke-miterlimit="10"/><path d="M210.18 291.62c-6.6-5.45-12.29-7.6-20.81-6.57-3.58.43-9.13 1.78-11.48-1.86-.16-.25.15-.53.4-.4 5.64 3.06 12.03-.05 18 .47 6.23.54 9.8 4.1 14.11 8.13.16.14-.06.35-.22.23z" stroke="#231f20" stroke-width=".25" stroke-miterlimit="10" opacity=".8"/><path d="M221.19 310.86c-10.59 12.33-29.96 16.07-45.41 12.04-18.32-4.77-32.04-22.34-44.06-35.75-.2-.22.1-.52.32-.32 7.36 6.45 13.15 14.24 21.03 20.19 6.3 4.75 12.83 9.82 20.28 12.63 15.27 5.75 36.15 3.09 47.47-9.14.24-.25.59.11.37.35z" stroke="#231f20" stroke-width=".25" stroke-miterlimit="10"/><g stroke="#231f20" stroke-width=".25" stroke-miterlimit="10"><path d="M11.17 152.02c9.69-11.75 28.2-9.78 40.38-3.21.67.36.18 1.28-.49 1.16-7.84-1.42-15.09-4.67-23.27-3.85-7.99.8-15.02 5.76-17.92 13.32-5.67 14.76 4.63 27.64 13.2 38.53 3.74 4.75 6.71 9.69 9.61 14.98 1.59 2.9 3.57 5.33 5.72 7.6.3.02.59.16.76.49.1.19.18.39.27.59 2.42 2.44 5.01 4.74 7.51 7.28 4.37 4.43 8.32 12.33 14.87 13.73 9.33 1.99 14.76-8.25 15.06-15.99.04-.93 1.56-1.25 1.71-.23 1.37 9.35-5.99 19.73-16.05 18.85-5.98-.52-9.41-5.35-12.94-9.6-2.25-2.72-4.87-5.12-7.49-7.5 3.31 9.37 5.04 19.34 9.34 28.37 4.95 10.4 11.91 19.83 20.76 27.22 20.23 16.9 46.6 22.12 68.06 36.67 18.41 12.49 47.53 19.74 68.3 8.87 10.73-5.62 17.94-16.11 27.24-23.68 10.01-8.14 19.15-15.94 25.25-27.58 7.36-14.03 11.61-30.02 12.55-45.8.86-14.5 11.84-30.1 1.1-43.63a.66.66 0 0 1-.12-.49c2.7-20.02-4.41-38.69-6.58-58.42-2.16-19.57-.05-39.72-12.84-56.23-.28-.36.2-.87.51-.51 13.09 15.22 12.43 33.79 14.4 52.69 1.23 11.82 3.46 23.37 5.96 34.97 1.79 8.28 1.55 17.27.36 25.44 11.05 20.5.38 30.82-.48 46.17-.77 13.78-4.09 27.23-9.39 39.96-5.24 12.58-12.84 22.22-23.3 30.83-4.79 3.94-9.74 7.7-14.2 12.04-4.55 4.43-8.34 9.39-13.53 13.13-18.87 13.59-44.69 9.73-64.92 1.31-5.33-2.22-10.04-5.53-14.78-8.77-6.74-4.6-13.64-7.46-21.19-10.5-12.71-5.11-25.28-11.1-36.66-18.75-10.54-7.09-19.1-16.18-25.46-27.18-7.15-12.36-10.27-26.41-14.44-39.97-1.55-1.52-3.03-3.1-4.34-4.82-4.24-5.57-6.83-12.2-11.09-17.81-4.21-5.55-8.98-10.73-12.36-16.87-5.58-10.14-6.85-23.38.92-32.81z"/><path d="M58.15 210.34c-6.28-3.69-13.02-1.3-17.29-8.4-.06-.1-.03-.19.03-.26-3.11-3.56-4-9.66-3.55-13.97.05-.45.67-.46.71 0 .32 4.82 1.53 11.37 4.95 15.01.1.11.09.25.03.37 2.24 1.72 4.41 2.83 7.45 3.35 2.76.47 5.63.72 8.18 2.01 1.67.85 2.65 2.43 4.17 3.39.8 1.24 1.94 1.48 3.44.73 2.48.61 3.17-.11 2.07-2.18-.26-1.47-1.3-3.23-2.1-4.45-2.13-3.28-5.67-5.37-7.12-8.99-1.44.75-2.84 1.62-4.14 2.59-1.49 1.11-2.61 2.75-4.11 3.77-.33.22-.67-.14-.61-.47.31-1.7 2.32-3.12 3.61-4.08 1.52-1.13 3.16-2.06 4.94-2.71-.05-.19-.11-.39-.15-.59-.55-2.7-.2-5.63.44-8.59-4.51 4.85-12.92 11.05-16.74 4.47-.23-.4.23-.88.64-.64 5.37 3.16 9.99-.33 13.98-4.11-1.29-4.32-2.69-9.8-4.66-15.09a.53.53 0 0 1-.25.35c-3.3 2.15-5.91 4.86-7.47 8.5-1.36 3.16-1.27 6.45-2.06 9.72-.08.33-.6.34-.68 0-1.77-7.64 3.44-15.35 9.64-19.2.22-.14.43-.1.59.02-.59-1.54-1.23-3.06-1.93-4.53-2.6 2.26-6.33 4.22-9.73 3.02-.25-.09-.31-.5 0-.56 1.81-.33 3.6-.36 5.34-1.01 1.44-.53 2.77-1.3 4.16-1.93-3.47-7.05-8.43-12.72-16.21-13.14-13.1-.7-16.65 15.44-13.14 25.15 1.49 4.12 3.64 7.91 5.67 11.73-.81-4.48-1.27-9.02-1.08-13.57.32-7.51 2.49-15.2 10.17-18 .36-.13.62.47.26.63-8.48 3.65-9.48 13.65-8.84 21.79.32 4.1 1.02 8.17 1.94 12.18.47 2.06 1.24 4.15 1.75 6.24.62 1.84 1.1 3.74 1.36 5.75.05.4-.53.41-.66.09-.31-.79-.63-1.57-.94-2.35-.15-.04-.3-.11-.39-.25-1.12-1.72-1.81-3.89-2.32-6.09-1.92-4.28-4.01-8.45-6.42-12.65-2.41-4.19-4.06-8.48-4-13.39.11-8.64 4.91-17.84 14.35-18.78 17.68-1.77 22.74 21.97 25.78 35.15.9-.86 1.77-1.73 2.61-2.53.76-2.95 1.6-5.86 1.89-8.53.03-.29.44-.3.46 0 .22 4.71-.56 9.04-1.25 13.67-.9 6.14.66 8.5 4.59 12.67 2.46 2.61 7.51 9.49 4.45 13.23-3.89 4.75-8.91-2.83-11.81-4.54zM238.6 176.39c.76 1.53 1.89 2.91 2.97 4.29 3.95 3.34 8.31 5.81 12.92 8.38.45.25.05.91-.4.68-3.12-1.55-6.95-3.17-10.11-5.39 1.6 3.52-.56 9.1 1.66 10.9 2.59 2.09 3.15 6.42 1.78 9.92-.47 1.19-1.33 1.78-2.27 2.2 6.81 4.67 4.98 20.27 4.48 26.83-.46 5.98-1.65 11.23-4.37 16.63-2.2 4.36-4.48 8.6-6.05 13.25-1.43 4.23-2.26 8.64-3.8 12.83-.14.38-.65.22-.59-.16.93-6.84 3.22-13.86 6.17-20.1 3.14-6.64 6.53-12.36 7.3-19.82.9-8.76 2.73-22.08-3.66-29.24-1.16.45-2.34.78-2.96 1.75-.22.35-.7.18-.74-.2-.01-.15-.03-.3-.04-.45-.02-.19.12-.39.27-.47.54-.31 1.29-.67 1.75-1.08 5.22-4.64 5.23-7.88 1.82-10.21-2.67-1.83-.96-5.94-1.24-9.66-.34-4.39-4.85-7.11-6.16-11.15-2.41-5.18-3.32-11.31-1.82-16.44-7-7.34-19.33-6.02-28.6-6.8-.18-.02-.18-.27 0-.28 7.96-.68 23.85-1.62 28.78 6.49 1.27-3.81 3.94-7.02 8.39-8.78.19-.08.33.25.14.34-11.15 5.35-8.11 16.23-5.62 25.74z"/><path d="M221.15 207.89c4.31 5.31 8.13-1.1 12.84-1.33.37-.02.41.44.17.62-2.05 1.55-5.44 3.4-8 3.85-2.48.44-4.15-.78-5.31-2.92-.1-.17.16-.4.3-.22zM188.44 133.84c-4.98-2.06-10.21-2.42-15.47-3.3-.45-.08-.27-.68.1-.73 6.61-.86 13.26.7 18.94 3.98.12-.09.28-.12.45-.03 1 .56 1.85 1.24 2.59 2.01 2.93 2.16 5.51 4.8 7.55 7.82.15.23-.18.47-.37.29-1.58-1.53-3.16-3.02-4.8-4.39.36.9.62 1.86.77 2.87.27 1.77.17 3.53.25 5.3.19 3.96 1.27 7.48 2.58 11.19.13.36-.46.62-.63.26-1.76-3.72-2.9-7.33-3.09-11.45-.22-4.58-.94-7.57-3.29-10.77-1.72-1.17-3.56-2.21-5.58-3.05z"/><path d="M194.24 153.79c.08.4-.5.57-.61.17-2.21-7.71-12.5-11.64-19.67-12.7-8.34-1.23-16.8-.76-25.15-.01-.42.04-.42-.54-.09-.68 11.89-4.98 42.17-3.27 45.52 13.22zM195.67 163.61c-16.52 5.1-31.53-1.48-44.21-12.39-.22-.19.06-.53.3-.39 6.6 3.83 12.72 8.54 19.89 11.33 7.69 2.99 15.99 3.28 23.94 1.14.2-.05.28.25.08.31zM197.97 124.45c.11.09-.04.28-.15.19-5.59-3.98-12.95.32-19.14.6-5.8.26-11.11-.19-16.8 1.34-.42.11-.62-.44-.29-.68 5.22-3.67 13.23-1.42 19.15-2.04 6.43-.67 11.61-3.88 17.23.59zM211.67 128.11c-3.29-6.55-7.85-12.32-15.46-13.4-5.65-.8-11.51-.08-17.02-1.72-.32-.09-.28-.65.08-.61 6.95.77 15.25-.22 21.84 2.42 5.42 2.17 8.98 7.8 11.19 12.93.19.43-.41.81-.63.38zM265.86 149.08c-2.58-2.11-5.36-1.73-8.4-1.17-2.18.4-4.36.59-6.54.95-.08.01-.1-.11-.02-.11 4.79-.2 11.86-5.96 15.57-.14.27.39-.28.73-.61.47zM271.9 175.68c.11.75-.86 1.3-1.3.55-3.53-5.94-6.1-10.75-13.11-13.13-7.15-2.44-12.13 1.56-18.99 1.69-.23 0-.25-.31-.05-.38 7.43-2.68 14.65-5.49 22.27-2.06 5.31 2.38 10.3 7.39 11.18 13.33zM195.84 183.85c1.59-2.94 3.66-5.45 5.9-6.93.08-.06.18.07.11.14-3.87 3.83-7.02 8.9-7.74 14.37-.96 7.29 3.07 10.43 8.95 13.52.26.14.14.55-.15.54-12-.21-11.83-12.32-7.36-21.08-26.38 21.26-32.94 56.99-56.19 80.78-.25.25-.62-.13-.39-.39 22.24-24.7 29.84-60.39 56.87-80.95zM213.68 158.54c-.17 0-.22-.28-.04-.31 6.26-1.17 13.08-.84 18.71 2.31.13.07.02.26-.12.2-5.96-3.06-12.13-2.31-18.55-2.2zM236.73 144.27c.17.05.13.33-.05.31-6.32-.76-12.74-3.11-17.16-7.81-.1-.11.06-.26.17-.15 4.77 4.7 10.88 5.83 17.04 7.65zM113.64 204.39c-.08.34-1.18.14-1.22-.24-1.29-13.17 3.46-25.89 18.46-33.41.34-.17 1.03.24.7.42-14.8 8.27-15.07 20.84-17.94 33.23zM254.93 133.81c-2.19.87-4.06 1.52-5.65 3.37-1.46 1.7-2.59 3.9-3.31 6.01-.06.17-.3.1-.27-.07.69-4.23 3.96-10.41 9.16-9.81.29.03.34.39.07.5z"/><path d="M254.93 133.81c-2.19.87-4.06 1.52-5.65 3.37-1.46 1.7-2.59 3.9-3.31 6.01-.06.17-.3.1-.27-.07.69-4.23 3.96-10.41 9.16-9.81.29.03.34.39.07.5z"/></g><path d="M244.65 59.24c-29.98-32.02-75.38-49.45-119.09-44.56-14.84 1.66-29.35 5.67-43.29 11-7.28 2.78-14.52 5.98-20.59 10.87-9.51 7.66-15.51 18.82-20.95 29.53-5.68 11.18-10.36 22.85-14.1 34.82-4.5 14.38-7.64 29.18-9.52 44.13 5.75-26.07 14.95-51.39 26.64-75.38 4.57-9.38 9.13-19.82 16.63-27.29 5.17-5.17 11.76-8.67 18.41-11.73 21.57-9.9 45.21-15.9 68.93-15.17 42.44 1.31 82.65 24.7 108.69 58.24-3.57-5.1-7.51-9.93-11.76-14.46zM233.13 205.78c.4-.38.9-.5 1.3-.82.42-.34.53-.85.91-1.23.75-.75 2.27-1.17 3.26-1.38 1.27-.26 3.16-.32 4.44-.04 1.03.23 1.01 1.08 1.79 1.54.24.14.08.52-.19.45-.75-.18-1.45-.68-2.23-.76-.32-.03-.67-.04-1.02-.03.02.27-.08.55-.39.8-.96.76-1.44 1.33-2.6 1.77-1.37.53-2.66 1.27-4.05 1.79-1.19.45-2.09-1.26-1.22-2.09z" stroke="#231f20" stroke-width=".25" stroke-miterlimit="10"/><g><g fill="#231f20"><path d="M304.2 19.36h3.16c2.03 0 3.52.64 3.52 2.51 0 .96-.51 1.9-1.37 2.21v.06c1.09.26 1.9 1.04 1.9 2.42 0 2.04-1.62 2.99-3.79 2.99h-3.41V19.36zm3 4.21c1.38 0 1.96-.56 1.96-1.44 0-.99-.65-1.36-1.93-1.36h-1.29v2.8h1.26zm.23 4.58c1.45 0 2.26-.54 2.26-1.68 0-1.07-.78-1.54-2.26-1.54h-1.48v3.23h1.48zM313.06 21.9h1.42l.13 1.37h.05c.53-1 1.31-1.55 2.11-1.55.38 0 .62.05.84.16l-.3 1.56c-.26-.07-.45-.12-.76-.12-.59 0-1.3.42-1.75 1.58v4.67h-1.74V21.9zM318.2 25.74c0-2.55 1.68-4.02 3.53-4.02 1.85 0 3.53 1.47 3.53 4.02 0 2.54-1.68 4.01-3.53 4.01-1.85 0-3.53-1.48-3.53-4.01zm5.26 0c0-1.53-.65-2.56-1.74-2.56-1.09 0-1.74 1.02-1.74 2.56s.65 2.54 1.74 2.54c1.09 0 1.74-1.01 1.74-2.54zM326.23 21.9h1.74l.9 3.97c.15.74.25 1.46.39 2.21h.06c.14-.75.29-1.48.47-2.21l.97-3.97h1.58l.99 3.97c.18.74.33 1.46.49 2.21h.06c.14-.75.25-1.47.4-2.21l.89-3.97h1.62l-1.88 7.66h-2.06l-.87-3.57c-.16-.72-.29-1.42-.45-2.22h-.06c-.14.8-.27 1.52-.44 2.24l-.84 3.56h-2l-1.96-7.67zM337.53 28.68l.81-1.14c.66.53 1.29.85 2.05.85.81 0 1.19-.39 1.19-.92 0-.64-.8-.93-1.59-1.24-.97-.38-2.08-.95-2.08-2.23 0-1.33 1.04-2.29 2.7-2.29 1.03 0 1.86.43 2.46.92l-.8 1.1c-.52-.39-1.04-.67-1.62-.67-.75 0-1.1.37-1.1.85 0 .6.75.84 1.55 1.14 1 .39 2.13.89 2.13 2.31 0 1.32-1.01 2.38-2.88 2.38-1.03.01-2.1-.44-2.82-1.06zM344.62 23.2c0-.7.49-1.22 1.12-1.22s1.12.52 1.12 1.22c0 .69-.49 1.21-1.12 1.21s-1.12-.51-1.12-1.21zm0 5.34c0-.71.49-1.22 1.12-1.22s1.12.52 1.12 1.22c0 .69-.49 1.21-1.12 1.21s-1.12-.52-1.12-1.21zM352.19 19.33h1.26v9.13h4.32v1.1h-5.58V19.33zM358.86 25.78c0-2.53 1.6-3.99 3.4-3.99s3.4 1.46 3.4 3.99c0 2.51-1.6 3.97-3.4 3.97s-3.4-1.46-3.4-3.97zm5.52 0c0-1.74-.86-2.92-2.12-2.92s-2.12 1.18-2.12 2.92.85 2.9 2.12 2.9 2.12-1.16 2.12-2.9zM366.71 21.98h1.27l1.09 4.38c.16.72.3 1.4.44 2.11h.06c.16-.71.32-1.41.5-2.11l1.13-4.38h1.21l1.14 4.38c.18.72.34 1.4.51 2.11h.06c.16-.71.29-1.39.45-2.11l1.07-4.38h1.18l-1.97 7.58h-1.51l-1.06-4.07c-.18-.72-.32-1.41-.5-2.18h-.06c-.16.77-.31 1.49-.5 2.2l-1.03 4.05h-1.45l-2.03-7.58zM377.88 25.78c0-2.47 1.61-3.99 3.3-3.99 1.87 0 2.93 1.39 2.93 3.56 0 .27-.02.54-.06.73h-4.94c.09 1.61 1.04 2.65 2.44 2.65.7 0 1.28-.23 1.83-.61l.44.84c-.64.44-1.42.79-2.42.79-1.96 0-3.52-1.48-3.52-3.97zm5.13-.62c0-1.52-.66-2.35-1.81-2.35-1.03 0-1.95.86-2.1 2.35h3.91zM385.91 21.98h1.03l.11 1.38h.04c.51-.96 1.26-1.57 2.09-1.57.32 0 .55.04.78.16l-.23 1.13c-.25-.08-.42-.12-.71-.12-.62 0-1.36.46-1.86 1.74v4.87h-1.24v-7.59zM390.61 25.78c0-2.47 1.61-3.99 3.3-3.99 1.87 0 2.93 1.39 2.93 3.56 0 .27-.02.54-.06.73h-4.94c.09 1.61 1.04 2.65 2.44 2.65.7 0 1.28-.23 1.83-.61l.44.84c-.64.44-1.42.79-2.42.79-1.97 0-3.52-1.48-3.52-3.97zm5.12-.62c0-1.52-.66-2.35-1.81-2.35-1.03 0-1.95.86-2.1 2.35h3.91zM398.12 25.78c0-2.46 1.5-3.99 3.17-3.99.85 0 1.41.33 2.06.88l-.05-1.3v-2.92h1.24v11.11h-1.03l-.11-.89h-.04c-.57.59-1.35 1.08-2.23 1.08-1.83 0-3.01-1.44-3.01-3.97zm5.17 1.85v-3.97c-.63-.58-1.19-.79-1.79-.79-1.17 0-2.11 1.17-2.11 2.9 0 1.82.73 2.9 2.01 2.9.69 0 1.28-.34 1.89-1.04zM406.49 31.46c.85-.39 1.36-1.08 1.36-1.93l-.13-1.15.61.94c-.17.21-.39.27-.63.27-.48 0-.9-.31-.9-.89 0-.56.43-.89.92-.89.66 0 1.05.57 1.05 1.51 0 1.35-.76 2.4-1.98 2.92l-.3-.78zM303.66 44.5c0-2.46 1.5-3.99 3.17-3.99.85 0 1.41.33 2.06.88l-.05-1.3v-2.92h1.24v11.11h-1.03l-.11-.89h-.04c-.57.59-1.35 1.08-2.23 1.08-1.82-.01-3.01-1.45-3.01-3.97zm5.18 1.85v-3.97c-.63-.58-1.19-.79-1.79-.79-1.17 0-2.11 1.17-2.11 2.9 0 1.82.73 2.9 2.01 2.9.68 0 1.27-.35 1.89-1.04zM312.56 40.7h1.03l.11 1.38h.04c.51-.96 1.26-1.57 2.09-1.57.32 0 .55.04.78.16l-.23 1.13c-.25-.08-.42-.12-.71-.12-.62 0-1.36.46-1.86 1.74v4.87h-1.24V40.7zM317.34 46.31c0-1.65 1.38-2.48 4.51-2.83 0-.98-.32-1.91-1.51-1.91-.85 0-1.61.42-2.19.81l-.49-.88c.68-.46 1.71-.99 2.88-.99 1.79 0 2.55 1.23 2.55 3.12v4.65h-1.03l-.11-.91h-.04c-.7.6-1.52 1.09-2.43 1.09-1.22 0-2.14-.78-2.14-2.15zm4.51.12v-2.1c-2.46.31-3.29.93-3.29 1.9 0 .86.57 1.21 1.29 1.21.7-.01 1.29-.36 2-1.01zM324.53 40.7h1.27l1.09 4.38c.16.72.3 1.4.44 2.11h.06c.16-.71.32-1.41.5-2.11l1.13-4.38h1.21l1.14 4.38c.18.72.34 1.4.51 2.11h.06c.16-.71.29-1.39.45-2.11l1.07-4.38h1.18l-1.97 7.58h-1.51l-1.06-4.07c-.18-.72-.32-1.41-.5-2.18h-.06c-.16.77-.31 1.49-.5 2.2l-1.03 4.05h-1.45l-2.03-7.58zM336.24 40.7h1.03l.11 1.09h.04c.7-.71 1.45-1.28 2.46-1.28 1.54 0 2.24 1.03 2.24 2.96v4.8h-1.24v-4.64c0-1.41-.41-2.02-1.38-2.02-.75 0-1.27.4-2 1.16v5.49h-1.24V40.7zM347.73 45.93v-4.19h-1.09v-.97l1.15-.07.15-2.13h1.04v2.13h1.99v1.04h-1.99v4.21c0 .93.29 1.46 1.13 1.46.26 0 .6-.1.84-.2l.24.97c-.41.14-.9.28-1.36.28-1.57 0-2.1-1.02-2.1-2.53zM352.07 44.5c0-2.53 1.6-3.99 3.4-3.99s3.4 1.46 3.4 3.99c0 2.51-1.6 3.97-3.4 3.97s-3.4-1.46-3.4-3.97zm5.52 0c0-1.74-.86-2.92-2.12-2.92s-2.12 1.18-2.12 2.92.85 2.9 2.12 2.9 2.12-1.17 2.12-2.9zM360.24 49.73c0-.65.4-1.26 1.08-1.71v-.06c-.37-.24-.66-.65-.66-1.24 0-.63.43-1.13.81-1.41v-.06c-.49-.39-.95-1.13-.95-2.04 0-1.66 1.26-2.7 2.75-2.7.4 0 .77.08 1.04.19h2.56v.99h-1.51c.35.34.6.91.6 1.56 0 1.62-1.19 2.63-2.69 2.63-.36 0-.76-.09-1.09-.26-.26.23-.47.48-.47.9 0 .48.3.82 1.29.82h1.43c1.71 0 2.56.55 2.56 1.81 0 1.41-1.44 2.62-3.71 2.62-1.8 0-3.04-.73-3.04-2.04zm5.53-.39c0-.7-.51-.94-1.48-.94h-1.27c-.28 0-.63-.03-.95-.11-.52.38-.75.84-.75 1.27 0 .81.79 1.33 2.13 1.33 1.4-.01 2.32-.76 2.32-1.55zm-.94-6.13c0-1.1-.69-1.77-1.56-1.77s-1.56.66-1.56 1.77c0 1.1.71 1.8 1.56 1.8.85 0 1.56-.7 1.56-1.8zM367.86 44.5c0-2.47 1.61-3.99 3.3-3.99 1.87 0 2.93 1.39 2.93 3.56 0 .27-.02.54-.06.73h-4.94c.09 1.61 1.04 2.65 2.44 2.65.7 0 1.28-.23 1.83-.61l.44.84c-.64.44-1.42.79-2.42.79-1.96-.01-3.52-1.48-3.52-3.97zm5.13-.62c0-1.52-.66-2.35-1.81-2.35-1.03 0-1.95.86-2.1 2.35h3.91zM376.11 45.93v-4.19h-1.09v-.97l1.15-.07.15-2.13h1.04v2.13h1.99v1.04h-1.99v4.21c0 .93.29 1.46 1.13 1.46.26 0 .6-.1.84-.2l.24.97c-.41.14-.9.28-1.36.28-1.57 0-2.1-1.02-2.1-2.53zM380.99 37.17h1.24v3.04l-.04 1.56c.68-.68 1.43-1.25 2.44-1.25 1.54 0 2.24 1.03 2.24 2.96v4.8h-1.24v-4.64c0-1.41-.41-2.02-1.38-2.02-.75 0-1.27.4-2 1.16v5.49h-1.24v-11.1zM388.66 44.5c0-2.47 1.61-3.99 3.3-3.99 1.87 0 2.93 1.39 2.93 3.56 0 .27-.02.54-.06.73h-4.94c.09 1.61 1.04 2.65 2.44 2.65.7 0 1.28-.23 1.83-.61l.44.84c-.64.44-1.42.79-2.42.79-1.96-.01-3.52-1.48-3.52-3.97zm5.13-.62c0-1.52-.66-2.35-1.81-2.35-1.03 0-1.95.86-2.1 2.35h3.91zM396.69 40.7h1.03l.11 1.38h.04c.51-.96 1.26-1.57 2.09-1.57.32 0 .55.04.78.16l-.23 1.13c-.25-.08-.42-.12-.71-.12-.62 0-1.36.46-1.86 1.74v4.87h-1.24V40.7z"/></g></g><g><g fill="#231f20"><path d="M304.2 153.28h5.94v1.52h-4.19v2.61h3.55v1.52h-3.55v3.02h4.34v1.52h-6.09v-10.19zM311.69 166.46l.32-1.39c.14.04.36.11.53.11.78 0 1.23-.55 1.48-1.32l.14-.48-2.92-7.57H313l1.28 3.76c.22.68.43 1.43.65 2.16h.07c.19-.71.37-1.47.57-2.16l1.1-3.76h1.68l-2.68 8.01c-.62 1.73-1.39 2.79-3.01 2.79-.41.01-.7-.05-.97-.15zM319.15 159.65c0-2.49 1.67-4.02 3.42-4.02 2 0 3.06 1.5 3.06 3.64 0 .34-.04.69-.08.87h-4.71c.15 1.36.99 2.13 2.19 2.13.63 0 1.18-.21 1.72-.56l.59 1.12c-.71.49-1.6.83-2.54.83-2.04 0-3.65-1.48-3.65-4.01zm4.97-.73c0-1.18-.51-1.9-1.52-1.9-.86 0-1.62.67-1.77 1.9h3.29zM326.55 162.6l.81-1.14c.66.53 1.29.85 2.05.85.81 0 1.19-.39 1.19-.92 0-.64-.8-.93-1.59-1.24-.97-.38-2.08-.95-2.08-2.23 0-1.33 1.04-2.29 2.7-2.29 1.03 0 1.86.43 2.46.92l-.8 1.1c-.52-.39-1.04-.67-1.62-.67-.75 0-1.1.37-1.1.85 0 .6.75.84 1.55 1.14 1 .39 2.13.89 2.13 2.31 0 1.32-1.01 2.38-2.88 2.38-1.02 0-2.09-.45-2.82-1.06zM333.65 157.12c0-.7.49-1.22 1.12-1.22s1.12.52 1.12 1.22c0 .69-.49 1.21-1.12 1.21s-1.12-.52-1.12-1.21zm0 5.33c0-.71.49-1.22 1.12-1.22s1.12.52 1.12 1.22c0 .69-.49 1.21-1.12 1.21s-1.12-.51-1.12-1.21zM343.28 154.34h-3v-1.1h7.25v1.1h-3v9.13h-1.26v-9.13zM348.96 153.51c0-.5.37-.83.86-.83.48 0 .86.32.86.83 0 .48-.38.83-.86.83s-.86-.35-.86-.83zm.23 2.39h1.24v7.58h-1.24v-7.58zM352.35 164.93c0-.65.4-1.26 1.08-1.71v-.06c-.37-.24-.66-.65-.66-1.24 0-.63.43-1.13.81-1.41v-.06c-.49-.39-.95-1.13-.95-2.04 0-1.66 1.26-2.7 2.75-2.7.4 0 .77.08 1.04.19h2.56v.99h-1.51c.35.34.6.91.6 1.56 0 1.62-1.19 2.63-2.69 2.63-.36 0-.76-.09-1.09-.26-.26.23-.47.48-.47.9 0 .48.3.82 1.29.82h1.43c1.71 0 2.56.55 2.56 1.81 0 1.41-1.44 2.62-3.71 2.62-1.8-.01-3.04-.73-3.04-2.04zm5.53-.39c0-.7-.51-.94-1.48-.94h-1.27c-.28 0-.63-.03-.95-.11-.52.38-.75.84-.75 1.27 0 .81.79 1.33 2.13 1.33 1.4-.01 2.32-.76 2.32-1.55zm-.95-6.13c0-1.1-.69-1.77-1.56-1.77s-1.56.66-1.56 1.77c0 1.1.71 1.8 1.56 1.8.85 0 1.56-.7 1.56-1.8zM360.51 152.37h1.24v3.04l-.04 1.56c.68-.68 1.43-1.25 2.44-1.25 1.54 0 2.24 1.03 2.24 2.96v4.8h-1.24v-4.64c0-1.41-.41-2.02-1.38-2.02-.75 0-1.27.4-2 1.16v5.49h-1.24v-11.1zM368.94 161.13v-4.19h-1.09v-.97l1.15-.07.15-2.13h1.04v2.13h1.99v1.04h-1.99v4.21c0 .93.29 1.46 1.13 1.46.26 0 .6-.1.84-.2l.24.97c-.41.14-.9.28-1.36.28-1.57 0-2.1-1.02-2.1-2.53zM373.82 161.95v-9.59h1.24v9.68c0 .39.17.55.35.55.07 0 .13 0 .27-.03l.17.98c-.18.07-.39.12-.71.12-.93 0-1.32-.61-1.32-1.71zM376.94 166.59l.24-1.02c.14.05.37.11.56.11.83 0 1.35-.69 1.65-1.63l.17-.56-2.94-7.6h1.28l1.5 4.2c.23.66.48 1.43.71 2.14h.06c.21-.69.42-1.47.62-2.14l1.31-4.2h1.22l-2.76 8.21c-.52 1.5-1.28 2.64-2.75 2.64-.35 0-.64-.06-.87-.15zM387.19 159.7c0-2.53 1.65-3.99 3.53-3.99.96 0 1.63.41 2.15.89l-.63.85c-.43-.4-.88-.67-1.46-.67-1.33 0-2.3 1.18-2.3 2.92s.92 2.9 2.27 2.9c.67 0 1.26-.34 1.72-.76l.54.86c-.66.61-1.49.96-2.37.96-1.96 0-3.45-1.45-3.45-3.96zM394.62 161.95v-9.59h1.24v9.68c0 .39.17.55.35.55.07 0 .13 0 .27-.03l.17.98c-.18.07-.39.12-.71.12-.94 0-1.32-.61-1.32-1.71zM397.93 159.7c0-2.53 1.6-3.99 3.4-3.99s3.4 1.46 3.4 3.99c0 2.51-1.6 3.97-3.4 3.97s-3.4-1.46-3.4-3.97zm5.51 0c0-1.74-.86-2.92-2.12-2.92s-2.12 1.18-2.12 2.92.85 2.9 2.12 2.9 2.12-1.17 2.12-2.9zM405.84 162.61l.61-.84c.64.53 1.28.9 2.17.9.96 0 1.44-.53 1.44-1.18 0-.78-.87-1.13-1.68-1.44-1.03-.39-2.19-.91-2.19-2.19 0-1.21.94-2.15 2.53-2.15.91 0 1.71.39 2.28.85l-.59.82c-.51-.39-1.02-.67-1.67-.67-.92 0-1.35.51-1.35 1.09 0 .72.8.99 1.63 1.31 1.06.41 2.24.86 2.24 2.3 0 1.23-.95 2.25-2.68 2.25-1.05 0-2.05-.45-2.74-1.05zM412.43 159.7c0-2.47 1.61-3.99 3.3-3.99 1.87 0 2.93 1.39 2.93 3.56 0 .27-.02.54-.06.73h-4.94c.09 1.61 1.04 2.65 2.44 2.65.7 0 1.28-.23 1.83-.61l.44.84c-.64.44-1.42.79-2.42.79-1.96-.01-3.52-1.48-3.52-3.97zm5.13-.62c0-1.52-.66-2.35-1.81-2.35-1.03 0-1.95.86-2.1 2.35h3.91zM419.94 159.7c0-2.46 1.5-3.99 3.17-3.99.85 0 1.41.33 2.06.88l-.05-1.3v-2.92h1.24v11.11h-1.03l-.11-.89h-.04c-.57.59-1.35 1.08-2.23 1.08-1.82-.01-3.01-1.45-3.01-3.97zm5.18 1.85v-3.97c-.63-.58-1.19-.79-1.79-.79-1.17 0-2.11 1.17-2.11 2.9 0 1.82.73 2.9 2.01 2.9.69-.01 1.27-.35 1.89-1.04z"/></g></g><g><g fill="#231f20"><path d="M303.68 195.69c0-3.34 2.02-5.32 4.52-5.32 1.24 0 2.22.61 2.84 1.29l-.94 1.17c-.51-.52-1.1-.89-1.87-.89-1.61 0-2.76 1.4-2.76 3.69 0 2.33 1.06 3.74 2.72 3.74.88 0 1.55-.42 2.11-1.05l.94 1.13c-.8.96-1.83 1.49-3.11 1.49-2.48 0-4.45-1.88-4.45-5.25zM312.74 189.74h1.74v2.85l-.07 1.48c.62-.61 1.36-1.16 2.37-1.16 1.59 0 2.28 1.11 2.28 3.04v4.8h-1.74v-4.57c0-1.26-.35-1.73-1.15-1.73-.65 0-1.08.33-1.69.96v5.35h-1.74v-11.02zM320.68 196.93c0-2.49 1.67-4.02 3.42-4.02 2 0 3.06 1.5 3.06 3.64 0 .34-.04.69-.08.87h-4.71c.15 1.36.99 2.13 2.19 2.13.63 0 1.18-.21 1.72-.55l.59 1.12c-.71.49-1.6.83-2.54.83-2.05-.01-3.65-1.49-3.65-4.02zm4.97-.74c0-1.18-.51-1.9-1.52-1.9-.86 0-1.62.67-1.77 1.9h3.29zM328.33 196.93c0-2.49 1.67-4.02 3.42-4.02 2 0 3.06 1.5 3.06 3.64 0 .34-.04.69-.08.87h-4.71c.15 1.36.99 2.13 2.19 2.13.63 0 1.18-.21 1.72-.55l.59 1.12c-.71.49-1.6.83-2.54.83-2.05-.01-3.65-1.49-3.65-4.02zm4.97-.74c0-1.18-.51-1.9-1.52-1.9-.86 0-1.62.67-1.77 1.9h3.29zM336.47 189.74h1.7v6.88h.05l2.75-3.52h1.9l-2.54 3.12 2.8 4.54h-1.89l-1.91-3.33-1.16 1.38v1.95h-1.7v-11.02zM343.61 199.87l.81-1.14c.66.53 1.29.86 2.05.86.81 0 1.19-.39 1.19-.92 0-.64-.8-.93-1.59-1.24-.97-.38-2.08-.95-2.08-2.23 0-1.33 1.04-2.29 2.7-2.29 1.03 0 1.86.43 2.46.92l-.8 1.1c-.52-.39-1.04-.67-1.62-.67-.75 0-1.1.37-1.1.85 0 .61.75.84 1.55 1.14 1 .39 2.13.89 2.13 2.31 0 1.32-1.01 2.38-2.88 2.38-1.02 0-2.09-.45-2.82-1.07zM350.7 194.4c0-.71.49-1.22 1.12-1.22s1.12.52 1.12 1.22c0 .69-.49 1.21-1.12 1.21s-1.12-.52-1.12-1.21zm0 5.33c0-.7.49-1.22 1.12-1.22s1.12.52 1.12 1.22c0 .69-.49 1.21-1.12 1.21s-1.12-.52-1.12-1.21zM358.27 190.52h3.1c2.02 0 3.47.75 3.47 2.88 0 2.04-1.45 3.03-3.47 3.03h-1.84v4.33h-1.26v-10.24zm2.92 4.85c1.54 0 2.39-.64 2.39-1.97 0-1.35-.85-1.82-2.39-1.82h-1.66v3.8h1.66zm-.06.7l.99-.67 3.02 5.36h-1.43l-2.58-4.69zM366.29 198.79c0-1.65 1.38-2.48 4.51-2.83 0-.98-.32-1.92-1.51-1.92-.85 0-1.61.42-2.19.81l-.49-.88c.68-.46 1.71-.99 2.88-.99 1.79 0 2.55 1.23 2.55 3.12v4.65h-1.03l-.11-.91h-.04c-.7.6-1.52 1.09-2.43 1.09-1.22.01-2.14-.78-2.14-2.14zm4.51.11v-2.11c-2.46.31-3.29.93-3.29 1.9 0 .86.57 1.21 1.29 1.21.7.01 1.29-.35 2-1zM374.13 190.79c0-.5.37-.83.86-.83.48 0 .86.33.86.83 0 .48-.38.83-.86.83-.49 0-.86-.35-.86-.83zm.22 2.38h1.24v7.58h-1.24v-7.58zM377.25 199.89l.61-.84c.64.53 1.28.9 2.17.9.96 0 1.44-.53 1.44-1.18 0-.78-.87-1.13-1.68-1.44-1.03-.39-2.19-.91-2.19-2.19 0-1.21.94-2.15 2.53-2.15.91 0 1.71.39 2.28.85l-.59.82c-.51-.39-1.02-.67-1.67-.67-.92 0-1.35.51-1.35 1.09 0 .72.8 1 1.63 1.32 1.06.41 2.24.86 2.24 2.3 0 1.23-.95 2.25-2.68 2.25-1.04-.01-2.05-.47-2.74-1.06zM383.84 196.97c0-2.47 1.61-3.99 3.3-3.99 1.87 0 2.93 1.39 2.93 3.56 0 .27-.02.54-.06.73h-4.94c.09 1.61 1.04 2.65 2.44 2.65.7 0 1.28-.23 1.83-.61l.44.84c-.64.43-1.42.79-2.42.79-1.96 0-3.52-1.48-3.52-3.97zm5.13-.62c0-1.52-.66-2.34-1.81-2.34-1.03 0-1.95.86-2.1 2.34h3.91zM391.35 196.97c0-2.46 1.5-3.99 3.17-3.99.85 0 1.41.33 2.06.88l-.05-1.3v-2.92h1.24v11.11h-1.03l-.11-.89h-.04c-.57.59-1.35 1.08-2.23 1.08-1.82 0-3.01-1.44-3.01-3.97zm5.18 1.86v-3.97c-.63-.58-1.19-.79-1.79-.79-1.17 0-2.11 1.17-2.11 2.9 0 1.82.73 2.9 2.01 2.9.69-.01 1.28-.35 1.89-1.04z"/></g></g><g><g fill="#231f20"><path d="M304.2 227.83h1.8l3.07 5.73 1.02 2.18h.06c-.08-1.05-.22-2.35-.22-3.48v-4.43h1.67v10.2h-1.8l-3.07-5.74-1.02-2.17h-.06c.08 1.08.22 2.31.22 3.44v4.47h-1.67v-10.2zM313.46 234.21c0-2.55 1.68-4.02 3.53-4.02 1.85 0 3.53 1.47 3.53 4.02 0 2.54-1.68 4.01-3.53 4.01-1.85 0-3.53-1.47-3.53-4.01zm5.27 0c0-1.53-.65-2.56-1.74-2.56-1.09 0-1.74 1.02-1.74 2.56s.65 2.55 1.74 2.55c1.08-.01 1.74-1.02 1.74-2.55zM321.5 237.15l.81-1.14c.66.53 1.29.86 2.05.86.81 0 1.19-.39 1.19-.92 0-.64-.8-.93-1.59-1.24-.97-.38-2.08-.95-2.08-2.23 0-1.33 1.04-2.29 2.7-2.29 1.03 0 1.86.43 2.46.92l-.8 1.1c-.52-.39-1.04-.67-1.62-.67-.75 0-1.1.37-1.1.85 0 .61.75.84 1.55 1.14 1 .39 2.13.89 2.13 2.31 0 1.32-1.01 2.38-2.88 2.38-1.03 0-2.09-.45-2.82-1.07zM328.25 234.21c0-2.49 1.67-4.02 3.42-4.02 2 0 3.06 1.5 3.06 3.64 0 .34-.04.69-.08.87h-4.71c.15 1.36.99 2.13 2.19 2.13.63 0 1.18-.21 1.72-.55l.59 1.12c-.71.49-1.6.83-2.54.83-2.04-.01-3.65-1.5-3.65-4.02zm4.98-.74c0-1.18-.51-1.9-1.52-1.9-.86 0-1.62.67-1.77 1.9h3.29zM336.25 231.68c0-.71.49-1.22 1.12-1.22s1.12.52 1.12 1.22c0 .69-.49 1.21-1.12 1.21s-1.12-.52-1.12-1.21zm0 5.33c0-.7.49-1.22 1.12-1.22s1.12.52 1.12 1.22c0 .69-.49 1.21-1.12 1.21s-1.12-.52-1.12-1.21zM343.81 227.8h2.94c2.01 0 3.41.71 3.41 2.51 0 1.01-.52 1.91-1.45 2.22v.06c1.18.24 2.01 1.05 2.01 2.45 0 2.01-1.54 2.99-3.75 2.99h-3.17V227.8zm2.73 4.35c1.68 0 2.38-.64 2.38-1.68 0-1.2-.79-1.64-2.33-1.64h-1.52v3.32h1.47zm.26 4.85c1.69 0 2.69-.63 2.69-2.01 0-1.26-.96-1.84-2.69-1.84h-1.72V237h1.72zM352.57 230.45h1.03l.11 1.38h.04c.51-.96 1.26-1.57 2.09-1.57.32 0 .55.04.78.16l-.23 1.13c-.25-.08-.42-.13-.71-.13-.62 0-1.36.46-1.86 1.74v4.87h-1.24v-7.58zM357.27 234.25c0-2.53 1.6-3.99 3.4-3.99s3.4 1.46 3.4 3.99c0 2.51-1.6 3.97-3.4 3.97s-3.4-1.46-3.4-3.97zm5.51 0c0-1.74-.86-2.92-2.12-2.92s-2.12 1.18-2.12 2.92.85 2.9 2.12 2.9 2.12-1.16 2.12-2.9zM365.54 236.06c0-1.65 1.38-2.48 4.51-2.83 0-.98-.32-1.92-1.51-1.92-.85 0-1.61.42-2.19.81l-.49-.88c.68-.46 1.71-.99 2.88-.99 1.79 0 2.55 1.23 2.55 3.12v4.65h-1.03l-.11-.91h-.04c-.7.6-1.52 1.09-2.43 1.09-1.22.02-2.14-.77-2.14-2.14zm4.5.12v-2.11c-2.46.31-3.29.93-3.29 1.9 0 .86.57 1.21 1.29 1.21.71 0 1.29-.35 2-1zM373.08 234.25c0-2.46 1.5-3.99 3.17-3.99.85 0 1.41.33 2.06.88l-.05-1.3v-2.92h1.24v11.11h-1.03l-.11-.89h-.04c-.57.59-1.35 1.08-2.23 1.08-1.83 0-3.01-1.44-3.01-3.97zm5.17 1.85v-3.97c-.63-.58-1.19-.79-1.79-.79-1.17 0-2.11 1.17-2.11 2.9 0 1.82.73 2.9 2.01 2.9.69 0 1.28-.34 1.89-1.04zM381.43 234.25c0-2.47 1.61-3.99 3.3-3.99 1.87 0 2.93 1.39 2.93 3.56 0 .27-.02.54-.06.73h-4.94c.09 1.61 1.04 2.65 2.44 2.65.7 0 1.28-.23 1.83-.61l.44.84c-.64.43-1.42.79-2.42.79-1.96 0-3.52-1.48-3.52-3.97zm5.13-.62c0-1.52-.66-2.34-1.81-2.34-1.03 0-1.95.86-2.1 2.34h3.91zM389.46 230.45h1.03l.11 1.09h.04c.7-.71 1.45-1.28 2.46-1.28 1.54 0 2.24 1.03 2.24 2.96v4.8h-1.24v-4.64c0-1.41-.41-2.02-1.38-2.02-.75 0-1.27.4-2 1.16v5.49h-1.24v-7.56zM397.17 234.25c0-2.47 1.61-3.99 3.3-3.99 1.87 0 2.93 1.39 2.93 3.56 0 .27-.02.54-.06.73h-4.94c.09 1.61 1.04 2.65 2.44 2.65.7 0 1.28-.23 1.83-.61l.44.84c-.64.43-1.42.79-2.42.79-1.96 0-3.52-1.48-3.52-3.97zm5.13-.62c0-1.52-.66-2.34-1.81-2.34-1.03 0-1.95.86-2.1 2.34h3.91zM404.68 234.25c0-2.46 1.5-3.99 3.17-3.99.85 0 1.41.33 2.06.88l-.05-1.3v-2.92h1.24v11.11h-1.03l-.11-.89h-.04c-.57.59-1.35 1.08-2.23 1.08-1.82 0-3.01-1.44-3.01-3.97zm5.18 1.85v-3.97c-.63-.58-1.19-.79-1.79-.79-1.17 0-2.11 1.17-2.11 2.9 0 1.82.73 2.9 2.01 2.9.69 0 1.28-.34 1.89-1.04z"/></g></g><g><g fill="#231f20"><path d="M304.2 267.11h1.8l3.07 5.73 1.02 2.18h.06c-.08-1.05-.22-2.35-.22-3.48v-4.43h1.67v10.2h-1.8l-3.07-5.74-1.02-2.17h-.06c.08 1.08.22 2.31.22 3.44v4.47h-1.67v-10.2zM313.55 275.25c0-1.64 1.32-2.5 4.36-2.83-.02-.82-.34-1.51-1.35-1.51-.74 0-1.43.34-2.08.75l-.64-1.2c.81-.53 1.87-1 3.04-1 1.85 0 2.76 1.18 2.76 3.31v4.54h-1.42l-.13-.85h-.05c-.66.59-1.42 1.04-2.3 1.04-1.29 0-2.19-.91-2.19-2.25zm4.36.01v-1.72c-2.01.26-2.68.8-2.68 1.58 0 .68.45.97 1.07.97.6 0 1.06-.31 1.61-.83zM321 276.43l.81-1.14c.66.53 1.29.86 2.05.86.81 0 1.19-.39 1.19-.92 0-.64-.8-.93-1.59-1.24-.97-.38-2.08-.95-2.08-2.23 0-1.33 1.04-2.29 2.7-2.29 1.03 0 1.86.43 2.46.92l-.8 1.1c-.52-.39-1.04-.67-1.62-.67-.75 0-1.1.37-1.1.85 0 .61.75.84 1.55 1.14 1 .39 2.13.89 2.13 2.31 0 1.32-1.01 2.38-2.88 2.38-1.02 0-2.09-.45-2.82-1.07zM327.75 273.49c0-2.55 1.68-4.02 3.53-4.02 1.85 0 3.53 1.47 3.53 4.02 0 2.54-1.68 4.01-3.53 4.01-1.85 0-3.53-1.48-3.53-4.01zm5.27 0c0-1.53-.65-2.56-1.74-2.56-1.09 0-1.74 1.02-1.74 2.56s.65 2.55 1.74 2.55c1.09-.01 1.74-1.02 1.74-2.55zM336.53 275.34v-9.04h1.74v9.14c0 .44.19.6.38.6.08 0 .14 0 .27-.03l.22 1.34c-.21.09-.5.16-.92.16-1.24-.01-1.69-.84-1.69-2.17zM340.22 275.25c0-1.64 1.32-2.5 4.36-2.83-.02-.82-.34-1.51-1.35-1.51-.74 0-1.43.34-2.08.75l-.64-1.2c.81-.53 1.87-1 3.04-1 1.85 0 2.76 1.18 2.76 3.31v4.54h-1.42l-.13-.85h-.05c-.66.59-1.42 1.04-2.3 1.04-1.29 0-2.19-.91-2.19-2.25zm4.36.01v-1.72c-2.01.26-2.68.8-2.68 1.58 0 .68.45.97 1.07.97.6 0 1.06-.31 1.61-.83zM349.98 276.51h-.05l-.15.8h-1.37v-11.02h1.74v2.85l-.05 1.27c.62-.56 1.38-.95 2.14-.95 1.85 0 2.92 1.53 2.92 3.89 0 2.63-1.51 4.15-3.16 4.15-.67 0-1.4-.36-2.02-.99zm3.4-3.13c0-1.53-.48-2.43-1.61-2.43-.54 0-1.06.28-1.62.86v3.57c.52.47 1.06.64 1.49.64.98-.01 1.74-.91 1.74-2.64zM356.71 267.29c0-.61.46-1.02 1.07-1.02.62 0 1.08.41 1.08 1.02 0 .59-.46 1.02-1.08 1.02-.61 0-1.07-.43-1.07-1.02zm.2 2.36h1.74v7.66h-1.74v-7.66zM360.46 275.25c0-1.64 1.32-2.5 4.36-2.83-.02-.82-.34-1.51-1.35-1.51-.74 0-1.43.34-2.08.75l-.64-1.2c.81-.53 1.87-1 3.04-1 1.85 0 2.76 1.18 2.76 3.31v4.54h-1.42l-.13-.85h-.05c-.66.59-1.42 1.04-2.3 1.04-1.29 0-2.19-.91-2.19-2.25zm4.36.01v-1.72c-2.01.26-2.68.8-2.68 1.58 0 .68.45.97 1.07.97.6 0 1.06-.31 1.61-.83zM368.65 275.34v-9.04h1.74v9.14c0 .44.19.6.38.6.08 0 .14 0 .27-.03l.22 1.34c-.21.09-.5.16-.92.16-1.24-.01-1.69-.84-1.69-2.17zM375.06 269.73l1.09-.08h3.1v1.43h-4.18v-1.35zm1-.87c0-1.59.71-2.75 2.46-2.75.54 0 1.03.13 1.36.27l-.33 1.34c-.27-.12-.55-.18-.8-.18-.62 0-.94.4-.94 1.29v8.48h-1.74v-8.45zM380.05 273.49c0-2.55 1.68-4.02 3.53-4.02 1.85 0 3.53 1.47 3.53 4.02 0 2.54-1.68 4.01-3.53 4.01-1.85 0-3.53-1.48-3.53-4.01zm5.27 0c0-1.53-.65-2.56-1.74-2.56-1.09 0-1.74 1.02-1.74 2.56s.65 2.55 1.74 2.55c1.09-.01 1.74-1.02 1.74-2.55zM388.83 275.34v-9.04h1.74v9.14c0 .44.19.6.38.6.08 0 .14 0 .27-.03l.22 1.34c-.21.09-.5.16-.92.16-1.24-.01-1.69-.84-1.69-2.17zM392.47 273.49c0-2.5 1.51-4.02 3.14-4.02.84 0 1.37.32 1.94.84l-.07-1.24v-2.78h1.74v11.02h-1.42l-.13-.83h-.05c-.55.57-1.31 1.02-2.11 1.02-1.85 0-3.04-1.49-3.04-4.01zm5.01 1.66v-3.57c-.51-.47-1.01-.64-1.51-.64-.94 0-1.72.92-1.72 2.52 0 1.67.62 2.54 1.68 2.54.58.01 1.07-.25 1.55-.85zM401.28 270.95c0-.71.49-1.22 1.12-1.22s1.12.52 1.12 1.22c0 .69-.49 1.21-1.12 1.21s-1.12-.51-1.12-1.21zm0 5.34c0-.7.49-1.22 1.12-1.22s1.12.52 1.12 1.22c0 .69-.49 1.21-1.12 1.21s-1.12-.52-1.12-1.21zM304.3 285.79h2.48c3.05 0 4.68 1.83 4.68 5.08s-1.63 5.15-4.62 5.15h-2.53v-10.23zm2.38 9.17c2.32 0 3.47-1.5 3.47-4.09s-1.16-4.01-3.47-4.01h-1.12v8.1h1.12zM312.92 292.25c0-2.47 1.61-3.99 3.3-3.99 1.87 0 2.93 1.39 2.93 3.56 0 .27-.02.54-.06.73h-4.94c.09 1.61 1.04 2.65 2.44 2.65.7 0 1.28-.23 1.83-.61l.44.84c-.64.43-1.42.79-2.42.79-1.96 0-3.52-1.48-3.52-3.97zm5.13-.62c0-1.52-.66-2.34-1.81-2.34-1.03 0-1.95.86-2.1 2.34h3.91zM320.41 292.25c0-2.47 1.61-3.99 3.3-3.99 1.87 0 2.93 1.39 2.93 3.56 0 .27-.02.54-.06.73h-4.94c.09 1.61 1.04 2.65 2.44 2.65.7 0 1.28-.23 1.83-.61l.44.84c-.64.43-1.42.79-2.42.79-1.97 0-3.52-1.48-3.52-3.97zm5.12-.62c0-1.52-.66-2.34-1.81-2.34-1.03 0-1.95.86-2.1 2.34h3.91zM328.44 288.45h1.03l.11.88h.04c.66-.57 1.49-1.06 2.34-1.06 1.89 0 2.91 1.52 2.91 3.86 0 2.58-1.5 4.09-3.18 4.09-.67 0-1.36-.32-2.03-.88l.03 1.32v2.57h-1.24v-10.78zm5.13 3.68c0-1.67-.55-2.79-1.93-2.79-.62 0-1.25.35-1.96 1.04v3.97c.66.58 1.3.79 1.79.79 1.21 0 2.1-1.13 2.1-3.01zM336.27 292.25c0-2.47 1.61-3.99 3.3-3.99 1.87 0 2.93 1.39 2.93 3.56 0 .27-.02.54-.06.73h-4.94c.09 1.61 1.04 2.65 2.44 2.65.7 0 1.28-.23 1.83-.61l.44.84c-.64.43-1.42.79-2.42.79-1.96 0-3.52-1.48-3.52-3.97zm5.13-.62c0-1.52-.66-2.34-1.81-2.34-1.03 0-1.95.86-2.1 2.34h3.91zM344.3 288.45h1.03l.11 1.09h.04c.7-.71 1.45-1.28 2.46-1.28 1.54 0 2.24 1.03 2.24 2.96v4.8h-1.24v-4.64c0-1.41-.41-2.02-1.38-2.02-.75 0-1.27.4-2 1.16v5.49h-1.24v-7.56zM352.01 292.25c0-2.47 1.61-3.99 3.3-3.99 1.87 0 2.93 1.39 2.93 3.56 0 .27-.02.54-.06.73h-4.94c.09 1.61 1.04 2.65 2.44 2.65.7 0 1.28-.23 1.83-.61l.44.84c-.64.43-1.42.79-2.42.79-1.96 0-3.52-1.48-3.52-3.97zm5.13-.62c0-1.52-.66-2.34-1.81-2.34-1.03 0-1.95.86-2.1 2.34h3.91zM359.52 292.25c0-2.46 1.5-3.99 3.17-3.99.85 0 1.41.33 2.06.88l-.05-1.3v-2.92h1.24v11.11h-1.03l-.11-.89h-.04c-.57.59-1.35 1.08-2.23 1.08-1.82 0-3.01-1.45-3.01-3.97zm5.18 1.85v-3.97c-.63-.58-1.19-.79-1.79-.79-1.17 0-2.11 1.17-2.11 2.9 0 1.82.73 2.9 2.01 2.9.69 0 1.27-.35 1.89-1.04z"/></g></g><g><g fill="#231f20"><path d="M304.2 318.92h1.98l1.75 4.98c.22.65.42 1.33.63 2h.06c.22-.67.41-1.35.62-2l1.71-4.98h1.98v10.2h-1.61v-4.67c0-.94.14-2.3.22-3.24h-.06l-.8 2.37-1.62 4.58h-1.04l-1.63-4.58-.79-2.37h-.06c.08.94.22 2.3.22 3.24v4.67h-1.58v-10.2zM314.8 325.3c0-2.55 1.68-4.02 3.53-4.02 1.85 0 3.53 1.47 3.53 4.02 0 2.54-1.68 4.01-3.53 4.01-1.85 0-3.53-1.48-3.53-4.01zm5.27 0c0-1.53-.65-2.56-1.74-2.56-1.09 0-1.74 1.02-1.74 2.56s.65 2.55 1.74 2.55c1.09-.01 1.74-1.02 1.74-2.55zM323.5 326.26v-4.8h1.74v4.57c0 1.26.35 1.73 1.15 1.73.65 0 1.08-.31 1.64-1.06v-5.25h1.74v7.66h-1.42l-.13-1.13h-.05c-.65.8-1.37 1.32-2.38 1.32-1.6.01-2.29-1.1-2.29-3.04zM332.23 326.54v-3.65h-1.06v-1.35l1.15-.08.21-2.09h1.44v2.09h1.89v1.43h-1.89v3.65c0 .9.34 1.34 1.05 1.34.25 0 .55-.09.77-.17l.3 1.32c-.4.14-.92.28-1.52.28-1.7 0-2.34-1.12-2.34-2.77zM337.42 318.1h1.74v2.85l-.07 1.48c.62-.61 1.36-1.16 2.37-1.16 1.59 0 2.28 1.11 2.28 3.04v4.8H342v-4.57c0-1.26-.35-1.73-1.15-1.73-.65 0-1.08.33-1.69.96v5.35h-1.74V318.1zM345.69 322.76c0-.71.49-1.22 1.12-1.22s1.12.52 1.12 1.22c0 .69-.49 1.21-1.12 1.21s-1.12-.51-1.12-1.21zm0 5.34c0-.7.49-1.22 1.12-1.22s1.12.52 1.12 1.22c0 .69-.49 1.21-1.12 1.21s-1.12-.52-1.12-1.21zM352.69 323.97c0-3.28 1.75-5.27 4.23-5.27s4.23 2 4.23 5.27c0 3.28-1.75 5.34-4.23 5.34s-4.23-2.07-4.23-5.34zm7.16 0c0-2.55-1.16-4.12-2.93-4.12s-2.93 1.57-2.93 4.12 1.16 4.2 2.93 4.2 2.93-1.65 2.93-4.2zM363.17 321.54h1.03l.11.88h.04c.66-.57 1.49-1.06 2.34-1.06 1.89 0 2.91 1.52 2.91 3.86 0 2.58-1.5 4.09-3.18 4.09-.67 0-1.36-.32-2.03-.88l.03 1.32v2.57h-1.24v-10.78zm5.14 3.69c0-1.67-.55-2.79-1.93-2.79-.62 0-1.25.35-1.96 1.04v3.97c.66.58 1.3.79 1.79.79 1.2-.01 2.1-1.14 2.1-3.01zM371 325.34c0-2.47 1.61-3.99 3.3-3.99 1.87 0 2.93 1.39 2.93 3.56 0 .27-.02.54-.06.73h-4.94c.09 1.61 1.04 2.65 2.44 2.65.7 0 1.28-.23 1.83-.61l.44.84c-.64.43-1.42.79-2.42.79-1.96 0-3.52-1.48-3.52-3.97zm5.13-.62c0-1.52-.66-2.34-1.81-2.34-1.03 0-1.95.86-2.1 2.34h3.91zM379.03 321.54h1.03l.11 1.09h.04c.7-.71 1.45-1.28 2.46-1.28 1.54 0 2.24 1.03 2.24 2.96v4.8h-1.24v-4.64c0-1.41-.41-2.02-1.38-2.02-.75 0-1.27.4-2 1.16v5.49h-1.24v-7.56zM386.76 331.02c.85-.39 1.36-1.08 1.36-1.93l-.13-1.15.61.94c-.17.21-.39.27-.63.27-.48 0-.9-.31-.9-.89 0-.56.43-.89.92-.89.66 0 1.05.57 1.05 1.51 0 1.35-.76 2.4-1.98 2.92l-.3-.78zM393.25 328.25l.61-.84c.64.53 1.28.9 2.17.9.96 0 1.44-.53 1.44-1.18 0-.78-.87-1.13-1.68-1.44-1.03-.39-2.19-.91-2.19-2.19 0-1.21.94-2.15 2.53-2.15.91 0 1.71.39 2.28.85l-.59.82c-.51-.39-1.02-.67-1.67-.67-.92 0-1.35.51-1.35 1.09 0 .72.8 1 1.63 1.32 1.06.41 2.24.86 2.24 2.3 0 1.23-.95 2.25-2.68 2.25-1.04 0-2.05-.46-2.74-1.06zM405.04 329.62l.05-1.37c-.59.59-1.36 1.06-2.21 1.06-1.83 0-3.02-1.44-3.02-3.97 0-2.46 1.5-3.99 3.17-3.99.85 0 1.45.32 2.1.91h.04l.12-.72h.99v10.78h-1.24v-2.7zm0-2.43v-3.97c-.63-.58-1.19-.79-1.79-.79-1.17 0-2.11 1.17-2.11 2.9 0 1.82.73 2.9 2.01 2.9.69 0 1.28-.34 1.89-1.04zM408.67 326.34v-4.8h1.24v4.64c0 1.41.41 2.02 1.38 2.02.75 0 1.27-.38 1.96-1.28v-5.38h1.24v7.58h-1.03l-.1-1.19h-.04c-.68.83-1.41 1.37-2.42 1.37-1.54.01-2.23-1.02-2.23-2.96zM416.52 327.15c0-1.65 1.38-2.48 4.51-2.83 0-.98-.32-1.92-1.51-1.92-.85 0-1.61.42-2.19.81l-.49-.88c.68-.46 1.71-.99 2.88-.99 1.79 0 2.55 1.23 2.55 3.12v4.65h-1.03l-.11-.91h-.04c-.7.6-1.52 1.09-2.43 1.09-1.21.02-2.14-.77-2.14-2.14zm4.51.12v-2.11c-2.46.31-3.29.93-3.29 1.9 0 .86.57 1.21 1.29 1.21.7 0 1.29-.35 2-1zM424.59 321.54h1.03l.11 1.38h.04c.51-.96 1.26-1.57 2.09-1.57.32 0 .55.04.78.16l-.23 1.13c-.25-.08-.42-.13-.71-.13-.62 0-1.36.46-1.86 1.74v4.87h-1.24v-7.58zM429.6 319.15c0-.5.37-.83.86-.83.48 0 .86.33.86.83 0 .48-.38.83-.86.83-.49 0-.86-.34-.86-.83zm.22 2.39h1.24v7.58h-1.24v-7.58zM432.72 328.25l.61-.84c.64.53 1.28.9 2.17.9.96 0 1.44-.53 1.44-1.18 0-.78-.87-1.13-1.68-1.44-1.03-.39-2.19-.91-2.19-2.19 0-1.21.94-2.15 2.53-2.15.91 0 1.71.39 2.28.85l-.59.82c-.51-.39-1.02-.67-1.67-.67-.92 0-1.35.51-1.35 1.09 0 .72.8 1 1.63 1.32 1.06.41 2.24.86 2.24 2.3 0 1.23-.95 2.25-2.68 2.25-1.04 0-2.05-.46-2.74-1.06zM439.86 318.01h1.24v3.04l-.04 1.56c.68-.68 1.43-1.25 2.44-1.25 1.54 0 2.24 1.03 2.24 2.96v4.8h-1.24v-4.64c0-1.41-.41-2.02-1.38-2.02-.75 0-1.27.4-2 1.16v5.49h-1.24v-11.1z"/></g></g><g><g fill="#231f20"><path d="M304.2 76.28h5.96v1.52h-4.21v2.89h3.59v1.52h-3.59v4.26h-1.75V76.28zM311.26 82.66c0-2.55 1.68-4.02 3.53-4.02 1.85 0 3.53 1.47 3.53 4.02 0 2.54-1.68 4.01-3.53 4.01-1.85 0-3.53-1.48-3.53-4.01zm5.26 0c0-1.53-.65-2.56-1.74-2.56-1.09 0-1.74 1.02-1.74 2.56s.65 2.54 1.74 2.54c1.09 0 1.74-1.01 1.74-2.54zM320.03 78.82h1.42l.13 1.37h.05c.53-1 1.31-1.55 2.11-1.55.38 0 .62.05.84.16l-.3 1.56c-.26-.07-.45-.12-.76-.12-.59 0-1.3.42-1.75 1.58v4.67h-1.74v-7.67zM325.17 82.66c0-2.49 1.67-4.02 3.42-4.02 2 0 3.06 1.5 3.06 3.64 0 .34-.04.69-.08.87h-4.71c.15 1.36.99 2.13 2.19 2.13.63 0 1.18-.21 1.72-.56l.59 1.12c-.71.49-1.6.83-2.54.83-2.04 0-3.65-1.49-3.65-4.01zm4.98-.74c0-1.18-.51-1.9-1.52-1.9-.86 0-1.62.67-1.77 1.9h3.29zM333.32 75.46h1.74v2.85l-.07 1.48c.62-.6 1.36-1.16 2.37-1.16 1.59 0 2.28 1.11 2.28 3.04v4.8h-1.74V81.9c0-1.26-.35-1.73-1.15-1.73-.65 0-1.08.33-1.69.95v5.35h-1.74V75.46zM341.25 82.66c0-2.49 1.67-4.02 3.42-4.02 2 0 3.06 1.5 3.06 3.64 0 .34-.04.69-.08.87h-4.71c.15 1.36.99 2.13 2.19 2.13.63 0 1.18-.21 1.72-.56l.59 1.12c-.71.49-1.6.83-2.54.83-2.04 0-3.65-1.49-3.65-4.01zm4.97-.74c0-1.18-.51-1.9-1.52-1.9-.86 0-1.62.67-1.77 1.9h3.29zM348.99 84.42c0-1.64 1.32-2.5 4.36-2.83-.02-.82-.34-1.51-1.35-1.51-.74 0-1.43.34-2.08.75l-.64-1.2c.81-.53 1.87-1 3.04-1 1.85 0 2.76 1.18 2.76 3.31v4.53h-1.42l-.13-.85h-.05c-.66.59-1.42 1.04-2.3 1.04-1.29.01-2.19-.9-2.19-2.24zm4.36.01v-1.72c-2.01.26-2.68.8-2.68 1.58 0 .68.45.97 1.07.97.6 0 1.06-.31 1.61-.83zM356.73 82.66c0-2.5 1.51-4.02 3.14-4.02.84 0 1.37.32 1.94.84l-.07-1.24v-2.78h1.74v11.02h-1.42l-.13-.83h-.05c-.55.57-1.31 1.02-2.11 1.02-1.85 0-3.04-1.49-3.04-4.01zm5.01 1.66v-3.57c-.51-.47-1.01-.64-1.51-.64-.94 0-1.72.92-1.72 2.52 0 1.67.62 2.54 1.68 2.54.58.01 1.06-.25 1.55-.85zM365.54 80.12c0-.7.49-1.22 1.12-1.22s1.12.52 1.12 1.22c0 .69-.49 1.21-1.12 1.21s-1.12-.51-1.12-1.21zm0 5.34c0-.71.49-1.22 1.12-1.22s1.12.52 1.12 1.22c0 .69-.49 1.21-1.12 1.21s-1.12-.52-1.12-1.21zM373.11 76.24h2.94c2.01 0 3.41.71 3.41 2.51 0 1.01-.52 1.91-1.45 2.22v.06c1.18.24 2.01 1.05 2.01 2.45 0 2.01-1.54 2.99-3.75 2.99h-3.17V76.24zm2.73 4.36c1.68 0 2.38-.64 2.38-1.68 0-1.2-.79-1.64-2.33-1.64h-1.52v3.32h1.47zm.25 4.85c1.69 0 2.69-.63 2.69-2.01 0-1.26-.96-1.84-2.69-1.84h-1.72v3.85h1.72zM381.77 83.7v-4.8h1.24v4.64c0 1.41.41 2.02 1.38 2.02.75 0 1.27-.38 1.96-1.28V78.9h1.24v7.58h-1.03l-.1-1.19h-.04c-.68.83-1.41 1.37-2.42 1.37-1.53.01-2.23-1.02-2.23-2.96zM390.08 84.96v-9.59h1.24v9.68c0 .39.17.55.35.55.07 0 .13 0 .27-.03l.17.98c-.18.07-.39.12-.71.12-.94 0-1.32-.62-1.32-1.71zM393.37 87.94c0-.65.4-1.26 1.08-1.71v-.06c-.37-.24-.66-.65-.66-1.24 0-.63.43-1.13.81-1.41v-.06c-.49-.39-.95-1.13-.95-2.04 0-1.66 1.26-2.7 2.75-2.7.4 0 .77.08 1.04.19H400v.99h-1.51c.35.34.6.91.6 1.56 0 1.62-1.19 2.63-2.69 2.63-.36 0-.76-.09-1.09-.26-.26.23-.47.48-.47.9 0 .48.3.82 1.29.82h1.43c1.71 0 2.56.55 2.56 1.81 0 1.41-1.44 2.62-3.71 2.62-1.8-.01-3.04-.74-3.04-2.04zm5.53-.4c0-.7-.51-.94-1.48-.94h-1.27c-.28 0-.63-.03-.95-.11-.52.38-.75.84-.75 1.27 0 .81.79 1.33 2.13 1.33 1.4-.01 2.32-.76 2.32-1.55zm-.94-6.13c0-1.1-.69-1.77-1.56-1.77s-1.56.66-1.56 1.77c0 1.1.71 1.8 1.56 1.8.85 0 1.56-.69 1.56-1.8zM400.99 82.7c0-2.47 1.61-3.99 3.3-3.99 1.87 0 2.93 1.39 2.93 3.56 0 .27-.02.54-.06.73h-4.94c.09 1.61 1.04 2.65 2.44 2.65.7 0 1.28-.23 1.83-.61l.44.84c-.64.44-1.42.79-2.42.79-1.96 0-3.52-1.48-3.52-3.97zm5.13-.62c0-1.52-.66-2.34-1.81-2.34-1.03 0-1.95.86-2.1 2.34h3.91zM305.33 104.41h-.04l-.12.78h-.99v-11.1h1.24v3.04l-.04 1.36c.67-.6 1.49-1.06 2.3-1.06 1.9 0 2.91 1.52 2.91 3.86 0 2.59-1.5 4.1-3.18 4.1-.67-.01-1.43-.37-2.08-.98zm3.99-3.11c0-1.67-.55-2.79-1.93-2.79-.62 0-1.27.35-1.96 1.03v3.97c.64.58 1.3.79 1.79.79 1.2.01 2.1-1.12 2.1-3zM311.98 101.42c0-2.47 1.61-3.99 3.3-3.99 1.87 0 2.93 1.39 2.93 3.56 0 .27-.02.54-.06.73h-4.94c.09 1.61 1.04 2.65 2.44 2.65.7 0 1.28-.23 1.83-.61l.44.84c-.64.44-1.42.79-2.42.79-1.96-.01-3.52-1.48-3.52-3.97zm5.13-.62c0-1.52-.66-2.34-1.81-2.34-1.03 0-1.95.86-2.1 2.34h3.91zM320.23 102.85v-4.19h-1.09v-.97l1.15-.07.15-2.13h1.04v2.13h1.99v1.04h-1.99v4.21c0 .93.29 1.46 1.13 1.46.26 0 .6-.1.84-.2l.24.97c-.41.14-.9.28-1.36.28-1.57 0-2.1-1.02-2.1-2.53zM324.24 97.62h1.27l1.09 4.38c.16.72.3 1.4.44 2.11h.06c.16-.71.32-1.41.5-2.11l1.13-4.38h1.21l1.14 4.38c.18.72.34 1.4.51 2.11h.06c.16-.71.29-1.39.45-2.11l1.07-4.38h1.18l-1.97 7.58h-1.51l-1.06-4.07c-.18-.72-.32-1.41-.5-2.18h-.06c-.16.77-.31 1.49-.5 2.2l-1.03 4.05h-1.45l-2.03-7.58zM335.41 101.42c0-2.47 1.61-3.99 3.3-3.99 1.87 0 2.93 1.39 2.93 3.56 0 .27-.02.54-.06.73h-4.94c.09 1.61 1.04 2.65 2.44 2.65.7 0 1.28-.23 1.83-.61l.44.84c-.64.44-1.42.79-2.42.79-1.96-.01-3.52-1.48-3.52-3.97zm5.13-.62c0-1.52-.66-2.34-1.81-2.34-1.03 0-1.95.86-2.1 2.34h3.91zM342.9 101.42c0-2.47 1.61-3.99 3.3-3.99 1.87 0 2.93 1.39 2.93 3.56 0 .27-.02.54-.06.73h-4.94c.09 1.61 1.04 2.65 2.44 2.65.7 0 1.28-.23 1.83-.61l.44.84c-.64.44-1.42.79-2.42.79-1.97-.01-3.52-1.48-3.52-3.97zm5.12-.62c0-1.52-.66-2.34-1.81-2.34-1.03 0-1.95.86-2.1 2.34h3.91zM350.93 97.62h1.03l.11 1.09h.04c.7-.71 1.45-1.28 2.46-1.28 1.54 0 2.24 1.03 2.24 2.96v4.8h-1.24v-4.64c0-1.41-.41-2.02-1.38-2.02-.75 0-1.27.4-2 1.16v5.49h-1.24v-7.56zM363.35 104.41h-.04l-.12.78h-.99v-11.1h1.24v3.04l-.04 1.36c.67-.6 1.49-1.06 2.3-1.06 1.9 0 2.91 1.52 2.91 3.86 0 2.59-1.5 4.1-3.18 4.1-.67-.01-1.43-.37-2.08-.98zm3.99-3.11c0-1.67-.55-2.79-1.93-2.79-.62 0-1.27.35-1.96 1.03v3.97c.64.58 1.3.79 1.79.79 1.2.01 2.1-1.12 2.1-3zM370.55 97.62h1.03l.11 1.38h.04c.51-.96 1.26-1.57 2.09-1.57.32 0 .55.04.78.16l-.23 1.13c-.25-.08-.42-.12-.71-.12-.62 0-1.36.46-1.86 1.74v4.87h-1.24v-7.59zM375.24 101.42c0-2.53 1.6-3.99 3.4-3.99s3.4 1.46 3.4 3.99c0 2.51-1.6 3.97-3.4 3.97s-3.4-1.46-3.4-3.97zm5.52 0c0-1.74-.86-2.92-2.12-2.92s-2.12 1.18-2.12 2.92.85 2.9 2.12 2.9 2.12-1.17 2.12-2.9zM383.09 97.62h1.27l1.09 4.38c.16.72.3 1.4.44 2.11h.06c.16-.71.32-1.41.5-2.11l1.13-4.38h1.21l1.14 4.38c.18.72.34 1.4.51 2.11h.06c.16-.71.29-1.39.45-2.11l1.07-4.38h1.18l-1.97 7.58h-1.51l-1.06-4.07c-.18-.72-.32-1.41-.5-2.18h-.06c-.16.77-.31 1.49-.5 2.2l-1.03 4.05h-1.45l-2.03-7.58zM393.99 104.33l.61-.84c.64.53 1.28.9 2.17.9.96 0 1.44-.53 1.44-1.18 0-.78-.87-1.13-1.68-1.44-1.03-.39-2.19-.91-2.19-2.19 0-1.21.94-2.15 2.53-2.15.91 0 1.71.39 2.28.85l-.59.82c-.51-.39-1.02-.67-1.67-.67-.92 0-1.35.51-1.35 1.09 0 .72.8.99 1.63 1.31 1.06.41 2.24.86 2.24 2.3 0 1.23-.95 2.25-2.68 2.25-1.04 0-2.05-.45-2.74-1.05zM400.6 107.09c.85-.39 1.36-1.08 1.36-1.93l-.13-1.15.61.94c-.17.21-.39.27-.63.27-.48 0-.9-.31-.9-.89 0-.56.43-.89.92-.89.66 0 1.05.57 1.05 1.51 0 1.35-.76 2.4-1.98 2.92l-.3-.78zM303.13 116.33h1.28l1.39 4.31c.22.74.46 1.51.68 2.24h.06c.22-.72.46-1.5.68-2.24l1.39-4.31h1.22l-2.59 7.58h-1.44l-2.67-7.58zM310.69 120.14c0-2.47 1.61-3.99 3.3-3.99 1.87 0 2.93 1.39 2.93 3.56 0 .27-.02.54-.06.73h-4.94c.09 1.61 1.04 2.65 2.44 2.65.7 0 1.28-.23 1.83-.61l.44.84c-.64.44-1.42.79-2.42.79-1.97-.01-3.52-1.48-3.52-3.97zm5.12-.63c0-1.52-.66-2.35-1.81-2.35-1.03 0-1.95.86-2.1 2.35h3.91zM318.72 116.33h1.03l.11 1.38h.04c.51-.96 1.26-1.57 2.09-1.57.32 0 .55.04.78.16l-.23 1.13c-.25-.08-.42-.12-.71-.12-.62 0-1.36.46-1.86 1.74v4.87h-1.24v-7.59zM324.17 121.57v-4.19h-1.09v-.97l1.15-.07.15-2.13h1.04v2.13h1.99v1.04h-1.99v4.21c0 .93.29 1.46 1.13 1.46.26 0 .6-.1.84-.2l.24.97c-.41.14-.9.28-1.36.28-1.57 0-2.1-1.02-2.1-2.53zM328.83 113.95c0-.5.37-.83.86-.83.48 0 .86.32.86.83 0 .48-.38.83-.86.83-.49 0-.86-.35-.86-.83zm.23 2.38h1.24v7.58h-1.24v-7.58zM332.22 120.14c0-2.53 1.65-3.99 3.53-3.99.96 0 1.63.41 2.15.89l-.63.85c-.43-.4-.88-.67-1.46-.67-1.33 0-2.3 1.18-2.3 2.92s.92 2.9 2.27 2.9c.67 0 1.26-.34 1.72-.76l.54.86c-.66.61-1.49.96-2.37.96-1.96 0-3.45-1.46-3.45-3.96zM339.2 121.95c0-1.65 1.38-2.48 4.51-2.83 0-.98-.32-1.91-1.51-1.91-.85 0-1.61.42-2.19.81l-.49-.88c.68-.46 1.71-.99 2.88-.99 1.79 0 2.55 1.23 2.55 3.12v4.65h-1.03l-.11-.91h-.04c-.7.6-1.52 1.09-2.43 1.09-1.22 0-2.14-.79-2.14-2.15zm4.5.12v-2.1c-2.46.31-3.29.93-3.29 1.9 0 .86.57 1.21 1.29 1.21.71-.01 1.29-.37 2-1.01zM347.26 122.39v-9.59h1.24v9.68c0 .39.17.55.35.55.07 0 .13 0 .27-.03l.17.98c-.18.07-.39.12-.71.12-.94 0-1.32-.61-1.32-1.71zM353.34 116.41l1.05-.07h2.74v1.04h-3.79v-.97zm.99-1.27c0-1.54.68-2.52 2.15-2.52.45 0 .89.12 1.22.26l-.26.98c-.28-.13-.57-.2-.83-.2-.69 0-1.03.5-1.03 1.48v8.77h-1.24v-8.77zM358.44 121.14v-4.8h1.24v4.64c0 1.41.41 2.02 1.38 2.02.75 0 1.27-.38 1.96-1.28v-5.38h1.24v7.58h-1.03l-.1-1.19h-.04c-.68.83-1.41 1.37-2.42 1.37-1.54 0-2.23-1.03-2.23-2.96zM366.75 116.33h1.03l.11 1.38h.04c.51-.96 1.26-1.57 2.09-1.57.32 0 .55.04.78.16l-.23 1.13c-.25-.08-.42-.12-.71-.12-.62 0-1.36.46-1.86 1.74v4.87h-1.24v-7.59zM371.98 116.33h1.03l.11 1.38h.04c.51-.96 1.26-1.57 2.09-1.57.32 0 .55.04.78.16l-.23 1.13c-.25-.08-.42-.12-.71-.12-.62 0-1.36.46-1.86 1.74v4.87h-1.24v-7.59zM376.67 120.14c0-2.53 1.6-3.99 3.4-3.99s3.4 1.46 3.4 3.99c0 2.51-1.6 3.97-3.4 3.97s-3.4-1.47-3.4-3.97zm5.52 0c0-1.74-.86-2.92-2.12-2.92s-2.12 1.18-2.12 2.92.85 2.9 2.12 2.9 2.12-1.17 2.12-2.9zM384.53 116.33h1.27l1.09 4.38c.16.72.3 1.4.44 2.11h.06c.16-.71.32-1.41.5-2.11l1.13-4.38h1.21l1.14 4.38c.18.72.34 1.4.51 2.11h.06c.16-.71.29-1.39.45-2.11l1.07-4.38h1.18l-1.97 7.58h-1.51l-1.06-4.07c-.18-.72-.32-1.41-.5-2.18h-.06c-.16.77-.31 1.49-.5 2.2l-1.03 4.05h-1.45l-2.03-7.58zM395.42 123.05l.61-.84c.64.53 1.28.9 2.17.9.96 0 1.44-.53 1.44-1.18 0-.78-.87-1.13-1.68-1.44-1.03-.39-2.19-.91-2.19-2.19 0-1.21.94-2.15 2.53-2.15.91 0 1.71.39 2.28.85l-.59.82c-.51-.39-1.02-.67-1.67-.67-.92 0-1.35.51-1.35 1.09 0 .72.8.99 1.63 1.31 1.06.41 2.24.86 2.24 2.3 0 1.23-.95 2.25-2.68 2.25-1.04 0-2.05-.45-2.74-1.05z"/></g></g><path d="M299.12 25.17H192.27l.31 29.87c-.51 57.96-.31 54.69-.31 54.69M227.79 183.77l21.84 50.43M295.36 324.45h-64.64l-13.46-72.11M226.77 206.56l31.93 65.61h36.66" fill="none" stroke="#939598" stroke-width=".5" stroke-linejoin="round"/></svg>