<svg version="1.1" xmlns="http://www.w3.org/2000/svg" x="0" y="0" width="411.023" height="223.391" viewBox="-42.431 -39.536 411.023 223.391" xml:space="preserve"><path fill="none" stroke="#000" stroke-width="1" d="M97.728 45.221l-3.322-1.391c6.104-1.778 9.58-6.723 11.051-15.3 3.168-17.851 18.622-28.901 36.085-39.333-9.735 9.427-17.927 18.932-23.568 29.905-1.469 2.859-1.7 5.718-.851 8.577 1.006 3.322.155 6.49-2.24 9.427-2.705 3.399-6.183 4.636-10.2 3.941l-6.955 4.174z"/><path fill="none" stroke="#6D6E71" stroke-width="1" d="M181.416 71.726c-11.901 2.086-15.532 15.455-19.086 39.41-2.858 19.162-14.991 33.228-31.295 38.021-12.365 3.633-25.346 2.242-38.018-.544l-1.7 4.407c14.836 6.952 31.99 8.113 49.377 3.325 21.327-5.797 33.459-19.396 40.49-35.778 6.336-14.99 13.291-22.177 18.314-22.718"/><path fill="none" stroke="#000" stroke-width="2" d="M222.215-35.684c-46.825-.31-90.177 8.5-130.047 26.583-14.296 6.413-23.955 18.313-23.104 35.7.618 14.217 15.299 16.691 34.232 19.164 9.581 1.237 20.091-3.941 31.526-13.6-8.654 7.495-15.3 14.914-11.59 16.073 6.335 2.008 12.363-2.164 17.772-8.037.386-.387.695-.772 1.082-1.159.386-.465 1.545-1.778 1.159-1.313-6.644 6.336-9.118 10.199-7.495 11.359 3.556 2.474 7.572 2.242 11.901-.54 7.805-5.178 13.678-5.41 16.612 0 3.399 6.104 2.243 11.669 2.474 16.922.463 13.909-1.7 21.328-11.281 24.572-13.292 4.481-26.738 4.405-40.8 3.635-28.823-1.547-44.124 7.726-51.077 21.636-8.424 16.921-12.21 30.83-2.242 41.03 10.046 10.277 25.731 15.378 44.124 18.081 23.028 6.028 45.9 5.333 69.003-3.632 15.765-6.104 31.834-11.283 47.753-16.921"/><path fill="none" stroke="#000" stroke-width=".5" d="M136.519 111.136c-3.477 1.78-6.104 5.408-8.577 9.736-.928 1.545-1.623 1.545-2.24.541-.464-.696-1.083-.696-1.702-.465-1.545.465-.851 1.626-1.468 3.246-.695 2.09-3.401 3.399-4.636.619-.464-1.006-.619-1.547-1.313-1.315-1.004.464-1.468 1.546-2.395 3.092-1.314 2.395-3.323 2.857-5.642 2.857-1.313 0-1.7-.463-2.858-3.244-.463-1.159-1.776-1.082-2.55.077-.387.694-.773.927-1.469 1.005-.928.077-1.237-.311-1.237-1.39 0-.62-.695-.852-1.777-.386-1.545.617-2.086 2.238-3.015 4.017-.927 1.699-2.395 2.007-3.708 2.007-1.469-.078-1.7-.463-1.006-2.007 1.314-3.091 1.392-5.332 0-5.487-2.782-.465-4.018 1.934-5.794 5.178-.542 1.081-1.545.386-1.624-.544-.076-.695-.386-1.006-1.004-1.082-.773 0-1.701.464-2.241 1.7-.851 2.089-1.933 3.326-3.555 3.863-1.082.388-.618-2.936-1.469-2.318-1.237.852-.773 2.938-5.022 2.398-1.159-.077-1.855-1.161-2.086-3.091-.077-.772-.155-1.547-.465-2.319-1.7-4.095-4.173-5.794-6.645-6.721 1.468-.234 3.091 0 4.404 1.234.773.774 1.392 1.546 2.473 2.089 2.706 1.471 4.946 2.318 5.873.852.928-1.392 1.701-2.164 2.474-1.237.54.697 1.236.62 2.704-1.469.387-1.699 1.314-.927 1.391-.388.232 1.082.465 1.545 1.777 1.007.851-.387 1.161-1.161.928-1.854-.232-.854 0-1.237.851-1.626.772-.31 1.004-.232 1.545.388.31.387.231 1.393 1.545.465.619-.388.85-1.007 1.082-1.779.386-1.315 1.082-1.854 1.778-1.779.773.155 1.545.543 1.7 1.236.31 1.082.542 1.935 2.24.233 2.164-2.162 3.17-2.552 3.555-1.161.387 1.237 1.545 1.626 2.782.619 1.082-.928 1.623-1.236 1.855-.543.388 1.161 1.314 1.237 2.783 1.237.85 0 1.313-.386 1.468-2.009.155-1.162.696-1.854 1.7-2.087.851-.232 1.468.155 1.701 1.159.618 1.932 1.933 1.235 3.554-.772 1.314-2.397 2.938-3.862 3.709-2.86 1.082 1.547 1.158 2.089 2.317 1.392 1.313-.852 2.24-1.701 2.705-3.091.696-1.854 2.474-2.398 3.633-1.47 1.313 1.16 2.318 1.47 3.322.154 1.932-2.627 3.246-3.944 4.018-2.707 1.082 1.699 2.319 2.088 3.786 1.082 2.395-1.779 4.25-2.396 5.796-2.164 1.546.232 1.933.542.232 2.009-1.005.927-2.164 1.78-3.554 2.397-.85.47-1.701 1.011-2.629 1.476z"/><path fill="#FFF" stroke="#000" stroke-width="2" d="M182.42 76.901c-2.396-3.088-2.473-4.404.695-5.794 6.953-3.322 13.756-5.486 20.557-6.491 2.006-.31 3.94.155 5.795 3.632 3.4 6.415 6.024 14.218 8.188 23.103.618 2.474-.772 3.943-3.089 4.793-3.862 1.391-7.807 1.932-11.669 2.394-3.171.388-6.415-1.079-9.272-4.866-4.018-5.409-7.032-11.515-11.205-16.771zM168.203 82.698c1.699-3.399 3.94-3.863 7.261.463 4.02 5.408 8.424 9.352 12.677 12.674 3.786 3.015 3.942 6.955 1.16 11.128-1.391 2.009-2.859 4.016-4.097 6.18-1.547 2.625-2.626 3.323-5.254 2.242-4.791-1.854-10.042-3.246-15.145-6.336-1.701-1.161-1.701-3.092-1.856-6.336-.235-6.724 1.774-13.292 5.254-20.015zM160.397 117.625c1.004-2.781 1.932-3.863 4.711-1.854 3.635 2.628 7.881 4.019 11.979 5.797 2.627 1.237 2.627 3.401 1.469 5.644-1.004 1.932-2.316 3.787-3.17 5.796-1.854 3.863-4.713 5.487-8.652 3.555-3.478-1.78-6.799-3.401-9.891-5.255-1.855-1.163-1.391-3.556-.078-6.023 1.314-2.48 2.627-5.031 3.632-7.66zM149.27 135.476c2.705-2.706 3.863-2.938 6.182-.542 2.55 2.625 5.794 3.633 8.731 4.789 1.932.853 3.322 2.862.695 4.944-3.246 2.628-7.572 3.553-11.205 5.642-2.938 1.781-5.254 0-8.5-2.704-3.476-2.857-2.007-6.025 4.097-12.129zM136.906 147.222c1.855-.851 2.858-.31 3.632 1.39 1.776 4.405 2.395 7.496-.927 7.729-3.864.153-7.729-.156-11.593.153-1.544.155-2.24-.153-2.163-1.7 0-.771-.309-1.699.076-2.473.542-1.08-.85-2.472 2.395-2.78 2.938-.312 5.721-1.547 8.58-2.319zM111.407 151.857c2.164 0 2.24.077 4.018-.232 1.313-.233 7.032-1.934 7.032-.077s-.542 3.709-.542 5.486c0 2.553-7.572 2.243-9.581 2.243-1.082 0-2.088-.771-3.169-.771-.309 0 .232-4.098.31-4.792.153-1.162 1.313-1.47 1.932-1.857zM90.387 149.926c-2.705 1.776 3.401 4.096 10.817 6.414 3.246 0 5.564-1.236 5.564-4.791 0-2.088-9.891-1.392-11.283-1.933-2.47-1.005-5.329-2.241-5.098.31z"/><path fill="none" stroke="#000" stroke-width="1" stroke-dasharray="5.0003,3.0002,1.0001,3.0002" d="M165.108 88.804c-4.328 15.84-12.906 28.358-24.961 37.708-12.595 9.737-26.35 13.06-40.799 13.369-5.641.155-5.872 2.551-1.082 4.017 13.523 4.174 28.282 1.855 49.223-8.73 15.454-7.882 31.448-15.842 44.741-33.614"/><path fill="none" stroke="#000" stroke-width="2" d="M98.965 3.185c4.018 2.24 3.632 10.586-.928 18.699-4.482 8.113-11.437 12.905-15.454 10.663-4.019-2.241-3.556-10.663.926-18.776C87.991 5.735 94.947.944 98.965 3.185z"/><path fill="none" stroke="#000" stroke-width="1" d="M-37.499 72.653c15.997-8.732 32.069-16.458 48.295-22.177 13.986-4.946 30.678-9.891 39.332-8.037 10.431 2.319 21.327 2.087 32.067 4.328 13.523 2.858 27.123 3.477 40.8 3.709 16.923.232 26.582 2.163 26.659 6.49.155 10.741-5.022 13.523-16.382 13.292-17.154-.232-34.309-2.936-51.541-3.4-7.882-.233-1.004 2.936 0 3.091 21.869 1.623 43.736 1.392 65.681 2.165 6.337-.311 14.142.153 15.222 5.252 1.392 6.797-3.94 10.972-9.504 11.514-10.2 1.082-20.245 2.471-30.909 1.546-9.426-.853-17.85 0-25.964.772-7.263.696-14.528.308-21.713-.387 2.783 1.934 2.473 3.323 1.855 4.944-1.933 5.488-7.341 7.884-11.823 11.05-3.091 2.243-4.559 5.797-5.332 8.807-2.164 8.271-6.337 10.123-11.437 12.596-18.082 8.654-38.018 10.974-57.645 11.824-4.328.153-9.119-1.083-12.905-4.172-3.092-2.471-7.264-1.699-12.983 1.779l-1.778.694"/><g fill="none" stroke="#000" stroke-width="1"><path d="M74.623 90.812l-8.654-.464M62.57 108.738c-5.795 3.17-11.514 4.871-17.232 5.874"/></g><path fill="none" stroke="#000" stroke-width=".5" d="M145.716 55.421c-4.25.232-8.808-2.164-12.751.541-2.009 1.469-1.7 4.019-.773 6.413 1.778 4.174 6.646 4.792 13.292 2.474.077-2.937 2.086-6.105.232-9.428zM156.689 74.43c-5.024-.927-10.51-1.78-14.914 1.082-2.551 1.702-1.933 6.106-.155 8.27 3.4 4.171 9.89 3.477 15.454 2.935 1.855-4.097 1.7-8.191-.385-12.287z"/><path stroke="#000" stroke-width=".045" stroke-linecap="round" stroke-linejoin="round" d="M166.115 90.426l7.571 5.563c-.772-2.55-.31-4.481 1.699-6.259l-9.27.696zM85.751 7.512L76.942 4.19c1.391 2.163 1.468 4.172 0 6.413l8.809-3.091zM129.024-4.389l-8.113-4.636c1.004 2.396.773 4.404-1.006 6.413l9.119-1.777zM146.102 125.586l8.808 3.32c-1.39-2.159-1.545-4.168-.076-6.411l-8.732 3.091zM168.896 141.271l8.731 3.322c-1.389-2.24-1.468-4.251 0-6.487l-8.731 3.165z"/><path d="M8.478-19.534h.155c.542 0 1.005.077 1.39.232.388.155.619.387.851.695.155.387.31.696.31 1.005 0 .387-.077.697-.31.928-.155.31-.463.542-.773.771.463.078.773.31 1.082.697.231.309.386.696.386 1.158 0 .31-.077.695-.231 1.005-.155.31-.387.542-.618.697-.232.155-.465.309-.851.387-.31.077-.694.077-1.237.077h-.155v-.85h.155c.387 0 .619 0 .696-.077.231 0 .465-.077.619-.155.155-.155.31-.309.386-.463.077-.155.155-.387.155-.619 0-.309-.076-.541-.232-.772a1.216 1.216 0 0 0-.619-.465c-.232-.076-.618-.076-1.082-.076h-.078v-.928c.387 0 .696-.077.927-.077.232-.077.388-.233.541-.387.155-.232.232-.463.232-.696 0-.232-.076-.464-.232-.695a.79.79 0 0 0-.463-.387c-.233-.077-.542-.077-1.006-.077v-.928h.002zm-2.78 7.65v-7.65h2.781v.927H6.777v2.319h1.701v.928h-1.7v2.626h1.7v.851l-2.78-.001zM12.805-19.534h.928v7.65h-.928zM18.833-12.502c-.387.233-.696.463-1.006.618-.155 0-.31.077-.541.077v-.697c.231 0 .465-.077.696-.232.31-.155.464-.31.619-.618.078-.232.155-.541.155-.927v-.387c-.309.155-.771.232-1.468.387v-.773c.697-.155 1.159-.232 1.468-.309v-.233c0-.387-.076-.694-.309-.85-.232-.233-.541-.31-1.004-.31h-.155v-.773h.232c.541 0 .849.076 1.159.155.31.077.541.231.695.386.155.233.232.387.31.695v2.087c0 .928 0 1.469.078 1.701.076.233.155.463.232.618h-1.005a1.396 1.396 0 0 1-.156-.615zm-1.545.695c-.155.077-.31.077-.54.077-.618 0-1.083-.155-1.392-.463-.309-.31-.463-.695-.463-1.16 0-.232.076-.463.155-.695.155-.232.309-.387.463-.542.231-.155.463-.232.695-.31.233-.077.463-.077.851-.155h.231v.773h-.076c-.388.077-.696.077-.851.155-.155.077-.231.232-.386.31-.077.155-.077.31-.077.463 0 .233.077.465.232.618.231.155.54.31.85.31.155 0 .232-.077.31-.077l-.002.696zm0-4.944c-.386 0-.695.077-.85.231-.234.155-.387.387-.465.853l-.927-.155c.077-.387.231-.697.386-.927.232-.309.465-.463.851-.618.31-.078.619-.155 1.005-.155v.771zM24.782-11.884v-.695c-.386.541-.85.85-1.468.85v-.773c.386 0 .773-.155 1.004-.542.31-.31.463-.85.463-1.467 0-.773-.155-1.392-.463-1.7-.231-.386-.619-.541-1.004-.541v-.773c.232 0 .541.076.773.231.231.077.463.31.618.543v-2.782h.927v7.65h-.85v-.001zm-1.467.154h-.078c-.463 0-.85-.155-1.237-.387-.386-.232-.695-.542-.85-1.005-.233-.464-.31-.928-.31-1.546 0-.542.076-1.005.231-1.468.233-.465.465-.773.851-1.082.386-.233.773-.31 1.237-.31h.155v.773h-.078c-.386 0-.773.155-1.004.541-.31.309-.463.851-.463 1.545 0 .773.155 1.314.463 1.623.31.387.619.542 1.082.542v.774zM30.732-11.884v-.695c-.31.541-.85.85-1.468.85v-.773c.386 0 .773-.155 1.083-.542.231-.31.386-.85.386-1.467 0-.773-.155-1.392-.386-1.7-.31-.386-.697-.541-1.083-.541v-.773c.31 0 .541.076.773.231.231.077.463.31.619.543v-2.782h.927v7.65h-.851v-.001zm-1.468.154h-.077c-.464 0-.85-.155-1.236-.387-.387-.232-.618-.542-.851-1.005-.231-.464-.31-.928-.31-1.546 0-.542.078-1.005.31-1.468.155-.465.463-.773.773-1.082.388-.233.85-.31 1.237-.31h.153v.773c-.463 0-.772.155-1.082.541-.31.309-.386.851-.386 1.545 0 .773.076 1.314.386 1.623.31.387.694.542 1.082.542v.774zM36.915-13.661l1.005.155a2.599 2.599 0 0 1-.851 1.313c-.465.31-1.004.463-1.623.463h-.076v-.773h.077c.31 0 .619-.077.85-.309.308-.154.463-.462.618-.849zm-1.545-3.863c.773 0 1.392.231 1.854.773.464.464.697 1.158.697 2.086v.31H35.37v-.773h1.545c0-.541-.155-.85-.386-1.082-.232-.386-.619-.541-1.159-.541v-.773zm0 5.794c-.773 0-1.392-.232-1.854-.773-.464-.463-.696-1.159-.696-2.087 0-.927.232-1.623.696-2.164.464-.543 1.082-.773 1.854-.773v.773c-.386 0-.773.155-1.082.386-.31.31-.464.695-.464 1.237h1.546v.773h-1.623c.076.542.231 1.082.541 1.391.31.31.618.463 1.082.463v.774zM39.078-11.884v-5.564h.85v.85c.233-.387.387-.618.618-.772.155-.078.31-.155.542-.155.31 0 .694.077 1.004.31l-.31.85a1.239 1.239 0 0 0-.694-.232.7.7 0 0 0-.542.232c-.231.078-.31.31-.386.463-.079.387-.155.773-.155 1.163v2.859l-.927-.004zM-37.575 6.815l1.004-.077c0 .387.155.695.31.927.155.232.386.463.773.619.31.155.773.231 1.158.231.388 0 .773-.077 1.006-.153.31-.155.54-.31.695-.465.155-.232.232-.463.232-.695s-.078-.463-.232-.619c-.155-.155-.386-.31-.695-.463-.155-.077-.618-.233-1.392-.387-.696-.155-1.161-.31-1.469-.465-.31-.231-.617-.463-.772-.694-.234-.31-.31-.619-.31-1.005s.155-.695.31-1.082c.231-.31.541-.541 1.004-.773.386-.155.85-.232 1.392-.232.619 0 1.082.077 1.545.232.386.233.772.463 1.004.85s.31.773.387 1.237l-1.005.077c-.076-.542-.231-.85-.541-1.16-.31-.232-.773-.309-1.314-.309-.618 0-1.082.077-1.392.309-.231.233-.386.464-.386.773 0 .31.076.542.31.696.155.231.694.387 1.545.541.773.232 1.392.386 1.7.541.386.155.773.465.927.773.232.309.386.695.386 1.082s-.155.773-.386 1.16c-.232.387-.541.618-1.006.85-.463.155-.927.31-1.467.31a5.637 5.637 0 0 1-1.779-.31c-.464-.232-.85-.541-1.081-.927-.307-.387-.385-.85-.461-1.392zM-30.236 11.453l-.077-.928c.232.077.387.077.542.077.231 0 .386 0 .541-.077l.309-.309c0-.078.155-.31.232-.697 0-.077.076-.155.076-.231l-2.085-5.564h1.004l1.159 3.245c.155.387.31.85.386 1.237.155-.387.232-.85.387-1.237l1.237-3.245h.928l-2.087 5.641c-.231.619-.464 1.082-.54 1.314-.155.31-.387.542-.618.618a1.311 1.311 0 0 1-.776.233c-.153 0-.385 0-.618-.077zM-24.827 9.289V3.725h.851v.773c.232-.233.465-.465.695-.619.31-.231.619-.31 1.006-.31.386 0 .773.077 1.004.31.31.155.463.387.541.695.465-.618 1.083-1.005 1.778-1.005.542 0 .927.155 1.237.463.31.309.463.773.463 1.469v3.786h-.928V5.812c0-.387-.076-.697-.076-.85a.932.932 0 0 0-.387-.387c-.155-.077-.31-.155-.541-.155-.387 0-.697.155-1.006.387-.232.232-.386.695-.386 1.236v3.246h-.927V5.657c0-.387-.078-.695-.233-.928-.154-.232-.386-.31-.772-.31-.231 0-.464.078-.696.233-.232.077-.387.31-.463.618-.155.233-.155.618-.155 1.163v2.858l-1.005-.002zM-13.468 3.571h.077c.463 0 .927.155 1.237.387.386.232.696.619.85 1.082.155.387.31.927.31 1.392 0 .619-.155 1.082-.31 1.545-.231.463-.541.85-.927 1.082-.386.232-.773.387-1.237.387v-.774c.387 0 .773-.232 1.005-.542.31-.387.465-.927.465-1.7 0-.697-.155-1.237-.465-1.545-.232-.387-.618-.542-1.005-.542v-.772zm-2.395 7.882V3.725h.85v.695c.234-.232.465-.463.697-.619.231-.155.54-.155.85-.231v.773c-.386 0-.772.155-1.082.542-.31.387-.465.928-.465 1.623 0 .772.155 1.314.465 1.623.31.309.619.542 1.006.542h.076v.773c-.31 0-.619-.077-.85-.232-.232-.155-.463-.309-.618-.463v2.706h-.929v-.004zM-9.913 9.289v-7.65h1.006v2.705c.385-.464.928-.774 1.622-.774.388 0 .772.077 1.082.31.31.155.542.387.619.619.155.31.232.695.232 1.236v3.554h-.927V5.735a1.71 1.71 0 0 0-.31-1.004c-.232-.232-.542-.311-.851-.311s-.54.078-.85.233c-.233.155-.387.31-.465.542-.155.31-.155.619-.155 1.082v3.014l-1.003-.002zM-3.964 11.453l-.076-.928c.155.077.386.077.541.077.155 0 .387 0 .464-.077a.607.607 0 0 0 .31-.309c.078-.078.155-.31.309-.697 0-.077 0-.155.078-.231l-2.085-5.564h1.004l1.158 3.245c.155.387.232.85.387 1.237a7.53 7.53 0 0 1 .386-1.237l1.161-3.245H.677l-2.164 5.641c-.231.619-.386 1.082-.541 1.314-.155.31-.31.542-.541.618a1.305 1.305 0 0 1-.772.232 1.918 1.918 0 0 1-.623-.076zM1.06 7.666l.928-.155c.076.309.231.618.463.85.231.154.54.309 1.004.309.388 0 .773-.155.928-.309.232-.155.309-.387.309-.618 0-.232-.077-.387-.231-.465a3.039 3.039 0 0 0-1.005-.309 532.37 532.37 0 0 0-1.392-.463 1.432 1.432 0 0 1-.618-.542 1.3 1.3 0 0 1-.231-.772c0-.233.076-.464.155-.695.155-.233.31-.387.465-.542.154-.076.385-.154.618-.232.231-.077.54-.155.85-.155.387 0 .773.077 1.161.232.31.076.541.31.694.463.155.232.234.541.31.928l-.928.077c0-.231-.155-.463-.31-.619-.232-.232-.541-.31-.85-.31-.464 0-.773.078-.927.233-.232.155-.31.31-.31.541 0 .078 0 .234.076.31.077.077.232.155.387.233.076.076.386.155.85.231.696.232 1.159.388 1.391.464.233.077.465.31.618.463.155.233.232.542.232.85 0 .31-.077.619-.309.85-.155.31-.387.542-.773.697-.31.155-.696.231-1.159.231-.695 0-1.313-.155-1.622-.463a2.076 2.076 0 0 1-.774-1.313zM6.856 2.721V1.639h.928v1.082h-.928zm0 6.568V3.725h.928v5.564h-.928zM8.787 7.666l1.006-.155c0 .309.154.618.386.85.232.154.618.309 1.005.309.465 0 .773-.155 1.005-.309.155-.155.31-.387.31-.618 0-.232-.076-.387-.31-.465-.155-.077-.464-.232-.928-.309-.695-.232-1.237-.387-1.467-.463-.234-.155-.465-.31-.618-.542a1.301 1.301 0 0 1-.233-.772c0-.233.078-.464.232-.695.077-.233.231-.387.464-.541.155-.077.309-.155.541-.233.31-.077.542-.155.851-.155.463 0 .85.077 1.158.232.31.076.542.31.696.463.155.232.31.541.386.928l-.927.076a1.694 1.694 0 0 0-.386-.619c-.232-.232-.463-.31-.851-.31-.464 0-.773.078-.927.233-.232.155-.31.31-.31.541 0 .078.077.234.155.31.079.079.155.155.31.233.155.076.388.155.851.231.695.232 1.159.388 1.391.464.31.077.464.31.618.463.155.233.231.542.231.85 0 .31-.077.619-.231.85-.232.31-.463.542-.851.697-.31.155-.695.231-1.16.231-.696 0-1.237-.155-1.624-.463-.385-.306-.618-.771-.773-1.312zM19.915 3.571h.076c.542 0 .927.155 1.314.387.309.232.619.619.772 1.082.231.387.31.927.31 1.392 0 .619-.077 1.082-.31 1.545s-.541.85-.927 1.082c-.387.232-.773.387-1.237.387v-.774c.386 0 .773-.232 1.082-.542.231-.387.386-.927.386-1.7 0-.697-.077-1.237-.386-1.545-.31-.387-.696-.542-1.082-.542l.002-.772zm-2.395 7.882V3.725h.849v.695c.231-.232.464-.463.695-.619.234-.155.542-.155.851-.231v.773c-.388 0-.773.155-1.082.542s-.464.928-.464 1.623c0 .772.155 1.314.464 1.623s.618.542 1.082.542v.773a1.3 1.3 0 0 1-.773-.232c-.31-.155-.463-.309-.619-.463v2.706H17.52v-.004zM27.179 9.289v-.85c-.465.695-1.006 1.005-1.778 1.005-.31 0-.619-.077-.928-.231-.31-.077-.464-.232-.619-.463-.155-.155-.232-.387-.31-.695 0-.155-.076-.465-.076-.851V3.727h1.004V7.821c.077.233.233.465.387.542.232.153.465.231.696.231.31 0 .542-.078.851-.231.231-.155.386-.31.464-.542.155-.309.231-.618.231-1.082V3.725h.927v5.564h-.849zM31.814 3.571h.155c.31 0 .618.077.928.232.31.155.541.31.772.619.234.233.387.542.465.85.155.387.155.772.155 1.16 0 .928-.231 1.7-.694 2.24-.465.463-1.006.773-1.701.773h-.077v-.773c.463 0 .773-.232 1.082-.542.31-.387.464-.927.464-1.623 0-.694-.155-1.236-.464-1.623-.31-.31-.618-.542-1.004-.542h-.077v-.771h-.004zm-1.467 5.718h-.851v-7.65h.927v2.705a2.126 2.126 0 0 1 1.392-.773v.773a1.83 1.83 0 0 0-1.004.542c-.31.387-.463.928-.463 1.545 0 .695.076 1.158.231 1.468.31.465.773.773 1.237.773v.773c-.618-.077-1.082-.31-1.468-.85v.694zM35.447 2.721V1.639h.927v1.082h-.927zm0 6.568V3.725h.927v5.564h-.927zM37.456 7.666l.927-.155c.076.309.232.618.463.85.231.154.541.309 1.005.309.386 0 .773-.155.927-.309.231-.155.31-.387.31-.618 0-.232-.078-.387-.232-.465-.155-.077-.465-.232-1.004-.309-.696-.232-1.16-.387-1.392-.463a1.432 1.432 0 0 1-.618-.542 1.297 1.297 0 0 1-.231-.771c0-.233.076-.464.155-.695.155-.233.309-.387.463-.542.155-.077.386-.155.618-.233.231-.077.541-.155.85-.155.386 0 .773.077 1.082.232.386.076.619.31.773.463.155.232.231.541.31.928l-.928.076c0-.231-.155-.463-.309-.619-.233-.232-.542-.31-.928-.31s-.694.078-.927.233a.702.702 0 0 0-.232.541c0 .078 0 .234.078.31.077.077.232.155.387.233.076.076.386.155.85.231.618.232 1.158.388 1.39.464.232.077.464.31.619.463.155.233.231.542.231.85 0 .31-.076.619-.31.85-.155.31-.386.542-.773.697-.31.155-.773.231-1.158.231-.773 0-1.314-.155-1.7-.463-.31-.307-.62-.771-.696-1.312zM234.579 109.434l.927-.077c.077.31.155.697.309.929.233.23.464.465.773.541.388.154.771.233 1.235.233.387 0 .696 0 1.005-.155.31-.076.543-.233.697-.465.152-.23.154-.386.154-.618 0-.308 0-.464-.154-.694a1.498 1.498 0 0 0-.697-.388c-.232-.153-.694-.229-1.389-.385-.696-.233-1.161-.388-1.47-.543-.387-.155-.617-.387-.85-.696-.157-.233-.233-.617-.233-.927 0-.388.077-.772.31-1.081.232-.387.542-.617 1.004-.773.387-.154.853-.309 1.391-.309.544 0 1.082.154 1.471.309.463.156.772.465 1.006.773.233.386.387.771.387 1.235l-.927.076c-.077-.464-.233-.853-.542-1.081-.31-.234-.773-.387-1.39-.387-.617 0-1.007.076-1.316.308-.308.232-.462.542-.462.852 0 .311.154.464.307.697.234.155.697.31 1.546.541.852.155 1.392.31 1.699.465.465.231.774.464 1.006.772.233.31.309.695.309 1.082 0 .463-.076.851-.309 1.16a2.143 2.143 0 0 1-1.006.853c-.463.231-1.006.31-1.544.31-.695 0-1.234-.078-1.699-.31-.463-.155-.853-.464-1.162-.927-.232-.393-.386-.858-.386-1.32zM245.628 111.212c-.386.233-.695.464-1.08.618-.155.078-.311.078-.465.155v-.773c.233 0 .465-.076.618-.153.31-.232.542-.388.697-.697.076-.232.155-.542.155-.928v-.386a5.812 5.812 0 0 1-1.471.386v-.771c.618-.076 1.082-.232 1.471-.31v-.232c0-.388-.155-.697-.311-.85-.232-.234-.617-.311-1.082-.311h-.077v-.771h.233c.463 0 .85.076 1.158.154.311.153.544.231.62.463.153.154.309.31.309.617.077.157.077.465.077.852v1.237c0 .926 0 1.467.076 1.699 0 .232.077.463.232.697h-1.006c-.074-.232-.154-.463-.154-.696zm-1.545.773h-.542c-.617 0-1.082-.155-1.39-.465a1.35 1.35 0 0 1-.543-1.082c0-.309.077-.542.233-.772.076-.232.31-.387.465-.542a2.71 2.71 0 0 1 .694-.308c.155-.078.465-.078.854-.154h.232v.771h-.077c-.387.077-.696.155-.853.155-.155.076-.309.231-.387.308-.077.154-.154.313-.154.465 0 .232.154.465.31.617.232.232.465.31.851.31.078 0 .233-.077.311-.077l-.004.774zm0-5.022c-.387 0-.695.076-.927.231-.155.153-.309.463-.463.851l-.852-.155c.076-.386.154-.695.386-.927.153-.232.465-.465.852-.615.311-.077.617-.154 1.006-.154l-.002.769zM251.579 109.82l.927.154c-.153.619-.386 1.084-.772 1.471-.464.388-.928.544-1.546.544-.772 0-1.389-.234-1.854-.696-.462-.542-.696-1.237-.696-2.164 0-.617.078-1.162.31-1.625.154-.387.465-.772.926-1.006.386-.232.851-.31 1.314-.31.618 0 1.082.154 1.47.465.388.31.62.695.772 1.313l-.927.155c-.078-.387-.233-.697-.463-.852-.233-.232-.543-.308-.853-.308-.464 0-.85.152-1.159.541-.234.31-.388.854-.388 1.547 0 .771.077 1.315.388 1.7.31.309.695.462 1.159.462.31 0 .618-.077.928-.309.231-.231.387-.617.464-1.082zM253.278 111.908v-5.561h.854v.77c.231-.386.386-.619.617-.77a1.457 1.457 0 0 1 1.546.151l-.31.854c-.233-.154-.465-.234-.697-.234a.702.702 0 0 0-.541.234c-.157.154-.31.31-.387.543-.076.31-.154.696-.154 1.084v2.937h-.928v-.008zM260.466 111.212c-.31.233-.617.464-1.006.618-.155.078-.308.078-.465.155v-.773c.235 0 .465-.076.62-.153.31-.232.541-.388.617-.697.154-.232.154-.542.154-.928v-.386c-.31.154-.771.308-1.392.386v-.771c.62-.076 1.082-.232 1.392-.31.076-.155.076-.232.076-.232 0-.388-.155-.697-.31-.85-.232-.234-.618-.311-1.082-.311h-.076v-.771h.235c.459 0 .849.076 1.159.154.308.153.539.231.617.463.154.154.232.31.31.617.076.157.076.465.076.852v1.237c0 .926 0 1.467.077 1.699 0 .232.076.463.232.697h-1.005l-.229-.696zm-1.471.773h-.54c-.617 0-1.081-.155-1.392-.465-.387-.232-.543-.617-.543-1.082 0-.309.077-.542.233-.772.076-.232.232-.387.462-.542.232-.154.462-.233.696-.308.155-.078.462-.078.85-.154h.233v.771h-.076c-.388.077-.697.155-.851.155-.155.076-.31.231-.386.308-.078.154-.153.313-.153.465 0 .232.153.465.311.617.232.232.462.31.85.31.077 0 .233-.077.309-.077v.773l-.003.001zm0-5.022c-.385 0-.694.076-.925.231-.154.153-.31.463-.465.851l-.927-.155c.154-.386.233-.695.463-.927.155-.232.464-.465.853-.615.31-.077.62-.154 1.006-.154v.77h-.005v-.001zM262.783 104.18h1.006v7.729h-1.006zM270.591 106.188h.074c.465 0 .928.076 1.237.386.386.233.696.543.851 1.006.155.462.31.927.31 1.471 0 .543-.154 1.08-.31 1.544a2.369 2.369 0 0 1-.925 1.006c-.387.31-.771.387-1.234.387v-.773c.385 0 .77-.153 1.005-.543.308-.308.462-.852.462-1.623 0-.695-.154-1.236-.386-1.625-.31-.31-.697-.542-1.079-.542v-.695h-.005v.001zm-2.398 7.806v-7.651h.851v.696c.232-.31.465-.543.695-.618.234-.155.544-.232.854-.232v.695c-.388.076-.772.233-1.082.617-.31.387-.465.928-.465 1.626 0 .695.155 1.236.465 1.544.31.388.62.543 1.006.543h.077v.773c-.31 0-.617-.077-.852-.154-.231-.155-.463-.311-.617-.542v2.705l-.932-.002zM274.142 111.908v-5.561h.853v.77c.232-.386.463-.619.618-.77a1.455 1.455 0 0 1 1.544.151l-.308.854c-.233-.154-.465-.234-.697-.234a.833.833 0 0 0-.541.234c-.157.154-.312.31-.312.543-.153.31-.231.696-.231 1.084v2.937h-.927l.001-.008zM280.015 106.188c.771 0 1.391.232 1.853.774.465.462.774 1.158.774 2.086 0 .695-.154 1.236-.387 1.622-.153.465-.464.774-.924 1.007-.387.232-.854.31-1.316.31v-.773c.461 0 .852-.153 1.158-.543.31-.308.464-.851.464-1.622 0-.696-.154-1.236-.464-1.546-.307-.388-.696-.54-1.158-.54v-.775zm-2.627 2.936c0-1.082.309-1.854.851-2.318.465-.388 1.082-.617 1.78-.617v.774c-.464 0-.853.152-1.161.54-.31.31-.465.852-.465 1.624 0 .697.155 1.236.465 1.544.308.388.696.543 1.161.543v.773c-.773 0-1.392-.232-1.936-.773-.461-.464-.695-1.163-.695-2.09zM283.722 111.908v-5.561h.852v.77c.155-.31.387-.542.697-.695a2.126 2.126 0 0 1 1.003-.233c.388 0 .697.077 1.008.233.232.153.464.464.542.695.465-.619 1.007-.924 1.7-.924.543 0 1.007.154 1.316.46.311.31.387.771.387 1.392v3.863h-.926v-3.554c0-.386 0-.619-.076-.772-.078-.232-.155-.31-.311-.465-.152-.076-.387-.154-.542-.154-.462 0-.772.154-1.006.462-.233.233-.387.62-.387 1.237v3.246h-.926v-3.633c0-.463-.076-.772-.232-.928-.155-.232-.465-.385-.772-.385-.233 0-.543.076-.772.231-.154.153-.387.386-.465.618a4.702 4.702 0 0 0-.154 1.159v2.937h-.936zM294.929 106.188c.771 0 1.389.232 1.854.774.465.462.772 1.158.772 2.086 0 .695-.155 1.236-.388 1.622-.156.465-.463.774-.928 1.007-.387.232-.852.31-1.315.31v-.773c.464 0 .852-.153 1.161-.543.309-.308.464-.851.464-1.622 0-.696-.155-1.236-.464-1.546-.31-.388-.695-.54-1.161-.54v-.774h.005v-.001zm-2.628 2.936c0-1.082.31-1.854.854-2.318.461-.388 1.079-.617 1.776-.617v.774c-.465 0-.853.152-1.162.54-.306.31-.461.852-.461 1.624 0 .697.155 1.236.461 1.544.31.388.697.543 1.162.543v.773c-.772 0-1.389-.232-1.932-.773-.465-.464-.698-1.163-.698-2.09zM298.639 111.908v-5.561h.849v.77c.387-.619 1.007-.924 1.781-.924.308 0 .617.076.927.154.232.15.463.306.617.46.155.233.232.465.311.697v4.407h-.928v-3.4c0-.386 0-.695-.077-.852a.785.785 0 0 0-.386-.464c-.233-.153-.463-.233-.697-.233-.386 0-.696.154-1.006.387-.308.311-.465.773-.465 1.472v3.091h-.925l-.001-.004zM306.675 111.059l.154.771c-.31.078-.541.078-.771.078-.311 0-.62 0-.775-.155-.154-.077-.309-.233-.386-.388s-.154-.542-.154-1.159v-3.171h-.697v-.697h.697v-1.392l.927-.617v2.009h1.006v.697h-1.006v3.245c0 .309.076.465.076.543.077.076.077.155.153.155.078.076.233.076.311.076.156.005.309.005.465.005zM309.845 106.188c.771 0 1.389.232 1.854.774.462.462.772 1.158.772 2.086 0 .695-.155 1.236-.388 1.622-.153.465-.463.774-.927 1.007-.386.232-.851.31-1.313.31v-.773c.463 0 .85-.153 1.158-.543.311-.308.464-.851.464-1.622 0-.696-.153-1.236-.464-1.546-.309-.388-.695-.54-1.158-.54v-.774h.002zm-2.629 2.936c0-1.082.307-1.854.85-2.318.464-.388 1.081-.617 1.78-.617v.774c-.465 0-.854.152-1.162.54-.31.31-.464.852-.464 1.624 0 .697.154 1.236.464 1.544.309.388.697.543 1.162.543v.773c-.775 0-1.393-.232-1.935-.773-.463-.464-.695-1.163-.695-2.09zM313.553 111.908v-5.561h.852v.77c.233-.386.388-.619.618-.77.155-.077.388-.154.544-.154.305 0 .694.076 1.004.305l-.31.854c-.232-.154-.465-.234-.694-.234a.702.702 0 0 0-.544.234c-.232.154-.31.31-.386.543-.077.31-.152.696-.152 1.084v2.937h-.93v-.005h-.002v-.003zM317.106 113.994l-.154-.852c.231.076.387.076.542.076.232 0 .386-.076.542-.076.077-.078.233-.234.309-.308.077-.078.155-.31.233-.697.076-.077.076-.153.157-.232l-2.164-5.563h1.006l1.159 3.169c.155.462.311.85.463 1.314.076-.465.232-.853.386-1.314l1.161-3.169h.927l-2.088 5.642c-.232.617-.386 1.005-.542 1.235-.155.31-.388.542-.543.697-.232.154-.543.232-.853.232-.154.001-.309-.077-.541-.154zM234.579 129.834l.927-.078c.077.311.155.697.309.928.233.232.464.464.773.542a3.25 3.25 0 0 0 1.235.232c.387 0 .696 0 1.005-.154.31-.076.543-.233.697-.465.153-.23.154-.386.154-.617 0-.309 0-.463-.154-.695a1.507 1.507 0 0 0-.697-.388c-.232-.154-.694-.232-1.389-.387-.696-.232-1.161-.387-1.47-.543-.387-.154-.617-.387-.85-.696-.157-.232-.233-.616-.233-.925 0-.388.077-.774.31-1.082.232-.388.542-.618 1.004-.773.387-.155.853-.31 1.391-.31.544 0 1.082.154 1.471.31.463.155.772.462 1.006.773.233.386.387.772.387 1.235l-.927.076c-.077-.462-.233-.85-.542-1.082-.31-.23-.773-.386-1.39-.386-.617 0-1.007.076-1.316.309-.308.232-.462.541-.462.85 0 .31.154.464.307.697.234.155.697.31 1.546.541.852.156 1.392.31 1.699.465.465.233.774.463 1.006.771.233.311.309.696.309 1.084 0 .463-.076.85-.309 1.161a2.133 2.133 0 0 1-1.006.851c-.463.234-1.006.309-1.544.309-.695 0-1.234-.077-1.699-.309-.463-.154-.853-.463-1.162-.927a2.625 2.625 0 0 1-.386-1.317zM244.009 131.456l.152.773c-.232.078-.542.078-.695.078-.387 0-.618 0-.853-.155a.952.952 0 0 1-.387-.388c-.076-.154-.076-.542-.076-1.161v-3.17h-.697v-.695h.697v-1.389l.927-.618v2.009h.927v.696h-.927v3.244c0 .31 0 .465.076.542 0 .078.077.152.155.152.077.078.154.078.309.078.082.004.237.004.392.004zM244.933 132.308v-5.563h.853v.771c.233-.387.387-.616.618-.771a1.445 1.445 0 0 1 1.545.155l-.31.849a1.26 1.26 0 0 0-.696-.232.702.702 0 0 0-.543.232c-.155.156-.309.31-.386.542a4.549 4.549 0 0 0-.155 1.082v2.938h-.927l.001-.003zM252.119 131.612a6.963 6.963 0 0 1-1.007.617c-.155.078-.311.078-.465.155v-.772c.233 0 .465-.077.618-.156.31-.23.543-.386.618-.695.154-.233.154-.544.154-.927v-.388c-.308.155-.772.31-1.391.388v-.772c.618-.077 1.083-.233 1.391-.31v-.234c0-.386-.077-.695-.232-.853-.234-.232-.62-.308-1.082-.308h-.078v-.772h.234c.462 0 .851.078 1.158.153.311.154.464.233.618.462.156.155.233.31.311.619 0 .155.078.463.078.853V131.609c.076.233.154.463.31.695h-1.006c-.075-.228-.151-.461-.229-.692zm-1.469.773h-.541c-.617 0-1.081-.155-1.392-.464-.387-.23-.542-.618-.542-1.083 0-.308.077-.54.233-.771.076-.233.233-.387.463-.541.232-.155.386-.233.695-.31.154-.078.464-.078.853-.155h.232v.772h-.154c-.386.076-.618.154-.773.154-.151.076-.306.232-.386.31-.075.155-.155.308-.155.463 0 .232.155.465.311.619.154.232.462.311.853.311.076 0 .152-.078.307-.078l-.004.773zm0-5.023c-.386 0-.695.076-.927.231-.153.153-.309.463-.464.851l-.926-.155c.078-.386.232-.695.465-.923.155-.233.461-.464.771-.619a4.579 4.579 0 0 1 1.08-.153v.768zM254.514 125.662v-1.082h.928v1.082h-.928zm0 6.646v-5.563h.928v5.563h-.928zM258.995 133.776c.386-.077.696-.155.93-.31.231-.155.385-.388.462-.697.076-.232.076-.617.076-1.236-.386.464-.852.696-1.47.774v-.853c.465 0 .771-.153 1.082-.462.31-.31.464-.853.464-1.547s-.154-1.235-.464-1.544c-.311-.388-.617-.542-1.082-.542v-.771c.617 0 1.16.309 1.546.771v-.618h.852v4.791c0 .851-.076 1.469-.232 1.854-.155.31-.465.62-.854.851-.385.155-.772.311-1.314.311v-.771h.004zm-2.317-1.004l.927.077c.078.309.155.542.311.618.233.233.541.31 1.006.31h.076v.772h-.076c-.697 0-1.237-.155-1.625-.465a1.652 1.652 0 0 1-.619-1.312zm2.317-.464h-.075c-.771 0-1.392-.311-1.781-.854a3.448 3.448 0 0 1-.617-2.009c0-.544.077-1.006.309-1.468.155-.465.465-.775.773-1.008.388-.309.852-.387 1.316-.387h.075v.772c-.461 0-.771.152-1.079.543-.311.309-.464.854-.464 1.471 0 .771.153 1.314.464 1.624.309.309.618.462 1.079.462v.854zM262.86 132.308v-7.728h.928v2.782c.462-.543 1.004-.772 1.699-.772.386 0 .695.076 1.004.231.31.153.544.388.697.697.155.231.155.695.155 1.235v3.556h-.928v-3.556c0-.465-.077-.852-.31-1.007-.155-.232-.465-.385-.854-.385a1.29 1.29 0 0 0-.771.231c-.232.153-.465.386-.542.618a3.027 3.027 0 0 0-.153 1.007v3.094h-.927l.002-.003zM270.896 131.456l.077.773c-.233.078-.464.078-.696.078-.307 0-.616 0-.771-.155-.232-.077-.31-.233-.387-.388-.078-.154-.155-.542-.155-1.161v-3.17h-.696v-.695h.696v-1.389l.926-.618v2.009h1.006v.696h-1.006v3.244c0 .31.076.465.076.542 0 .079.077.152.155.152.077.078.153.078.309.078.154.001.234.004.466.004zM274.375 130.605l.925-.152c.076.385.232.696.464.85.232.232.543.31 1.006.31.464 0 .773-.077.928-.232.233-.233.387-.387.387-.619 0-.233-.152-.388-.308-.544-.154-.076-.465-.153-1.007-.309-.618-.154-1.158-.31-1.392-.464-.308-.078-.464-.309-.618-.543a1.244 1.244 0 0 1-.23-.695c0-.309.076-.544.23-.696.077-.232.233-.387.387-.542.153-.077.387-.232.617-.309.311-.076.543-.076.852-.076.387 0 .773.076 1.161.155.308.154.543.307.696.54.153.231.31.463.31.852l-.928.154a.976.976 0 0 0-.309-.695 1.572 1.572 0 0 0-.853-.233c-.465 0-.771.077-.927.233-.233.153-.31.31-.31.463 0 .155.076.232.154.311a.598.598 0 0 0 .311.309c.076 0 .386.076.851.233.697.154 1.161.31 1.391.465.31.076.463.23.619.462.154.232.233.465.233.772 0 .31-.077.619-.233.927-.232.232-.465.465-.852.62-.311.154-.697.232-1.162.232-.696 0-1.236-.155-1.623-.464-.385-.308-.616-.694-.77-1.315zM283.802 131.612c-.387.232-.696.464-1.006.617-.232.078-.388.078-.542.155v-.772c.233 0 .463-.077.696-.156.232-.23.465-.386.618-.695.077-.233.154-.544.154-.927v-.388c-.387.155-.851.31-1.469.388v-.772c.618-.077 1.082-.233 1.469-.31v-.234c0-.386-.154-.695-.308-.853-.233-.232-.619-.308-1.082-.308h-.077v-.772h.233c.465 0 .852.078 1.161.153.309.154.542.233.697.462.076.155.232.31.232.619.077.155.077.463.077.853v1.236c0 .926 0 1.472.076 1.701 0 .233.077.463.233.695h-1.004c-.08-.228-.158-.461-.158-.692zm-1.546.773h-.542c-.617 0-1.08-.155-1.39-.464a1.35 1.35 0 0 1-.542-1.083c0-.308.076-.54.232-.771.077-.233.309-.387.46-.541.234-.155.465-.233.695-.31.159-.078.464-.078.854-.155h.232v.772h-.076c-.385.076-.695.154-.85.154-.155.076-.31.232-.388.31-.076.155-.154.308-.154.463 0 .232.154.465.309.619.232.232.462.311.852.311.077 0 .231-.078.308-.078v.773zm0-5.023c-.386 0-.696.076-.85.231-.232.153-.386.463-.542.851l-.853-.155c.078-.386.151-.695.388-.923.151-.233.461-.464.85-.619.308-.077.617-.153 1.006-.153l.001.768zM289.753 130.221l.927.155c-.077.618-.387 1.08-.771 1.469-.465.388-.927.544-1.547.544-.772 0-1.39-.233-1.854-.696-.462-.542-.696-1.236-.696-2.164 0-.619.078-1.16.309-1.624.233-.386.465-.773.929-1.004.387-.234.852-.309 1.313-.309.62 0 1.082.153 1.471.462.387.31.618.694.773 1.314l-.928.154c-.076-.386-.232-.695-.463-.852-.232-.233-.542-.308-.853-.308-.462 0-.851.152-1.159.541-.232.309-.386.853-.386 1.545 0 .772.076 1.316.386 1.701a1.58 1.58 0 0 0 1.159.464c.387 0 .696-.077.928-.311.228-.232.384-.617.462-1.081zM291.455 132.308v-5.563h.851v.771c.233-.387.461-.616.616-.771a1.446 1.446 0 0 1 1.544.155l-.308.849a1.262 1.262 0 0 0-.695-.232.702.702 0 0 0-.544.232c-.151.156-.306.31-.386.542a4.549 4.549 0 0 0-.155 1.082v2.938h-.923v-.003zM298.715 132.308v-.854c-.464.619-1.082.929-1.776.929-.311 0-.62-.078-.928-.155-.31-.154-.464-.309-.619-.463a2.818 2.818 0 0 1-.31-.696c0-.232-.078-.543-.078-.93v-3.398h.928v3.016c0 .542.077.853.077 1.007.076.311.232.465.386.62.233.152.464.232.697.232.308 0 .541-.078.851-.232a1.19 1.19 0 0 0 .464-.62c.155-.233.155-.617.155-1.082v-2.935h1.005v5.563h-.852v-.002zM301.033 132.308v-5.563h.852v.771c.154-.308.386-.543.695-.697.233-.154.62-.232 1.007-.232s.696.078 1.006.232c.233.154.388.464.542.697.465-.616 1.006-.925 1.702-.925.541 0 1.002.154 1.312.463.232.31.386.771.386 1.392v3.863h-.926v-3.556c0-.388 0-.617-.077-.772-.076-.233-.155-.31-.31-.465a1.463 1.463 0 0 0-.617-.152c-.387 0-.696.152-.928.462-.309.232-.386.62-.386 1.237v3.246h-.927v-3.636c0-.464-.077-.772-.232-.929-.155-.233-.464-.386-.773-.386s-.542.076-.773.232a1.204 1.204 0 0 0-.463.618 4.71 4.71 0 0 0-.154 1.163v2.937h-.936zM234.887 148.226v-7.651h1.082l4.018 6.028v-6.028h1.005v7.651h-1.082l-4.015-6.029v6.029zM244.781 142.585c.772 0 1.39.23 1.934.771.463.465.697 1.159.697 2.009 0 .772-.077 1.314-.31 1.698a2.393 2.393 0 0 1-.927 1.007c-.388.231-.854.309-1.393.309v-.771c.465 0 .928-.155 1.237-.544.308-.306.465-.849.465-1.623 0-.697-.157-1.235-.465-1.545-.388-.387-.772-.544-1.237-.544v-.767h-.001zm-2.553 2.858c0-1.005.233-1.777.851-2.241a2.544 2.544 0 0 1 1.702-.617v.771c-.465 0-.853.155-1.162.541-.309.31-.463.851-.463 1.546 0 .774.154 1.314.463 1.624.31.387.697.543 1.162.543v.772c-.772 0-1.392-.233-1.856-.772-.465-.465-.697-1.16-.697-2.167zM248.489 148.226v-5.563h.85v.85c.234-.385.465-.617.619-.772.153-.076.387-.152.618-.152.31 0 .617.077.927.308l-.31.853a1.252 1.252 0 0 0-.696-.233.843.843 0 0 0-.542.233c-.152.077-.308.31-.308.544-.155.31-.155.695-.155 1.082v2.859h-1.007l.004-.009zM252.119 148.226v-5.563h.852v.85c.153-.308.386-.541.696-.696.232-.153.617-.23.927-.23.465 0 .774.076 1.082.23.232.155.386.387.542.696.464-.617 1.007-.925 1.7-.925.544 0 1.006.152 1.315.462.232.308.387.772.387 1.393v3.787h-.928v-3.48c0-.386 0-.617-.076-.771-.077-.232-.154-.311-.31-.465a1.484 1.484 0 0 0-.62-.155c-.387 0-.696.155-.924.388-.311.309-.388.697-.388 1.314v3.17h-1.005v-3.554c0-.464-.078-.773-.233-1.006-.076-.155-.386-.31-.695-.31-.308 0-.544.077-.772.232a1.203 1.203 0 0 0-.465.618 4.7 4.7 0 0 0-.152 1.16v2.861h-.93v-.004h-.003v-.002zM264.637 147.608c-.308.23-.619.463-1.005.617-.155.076-.31.076-.465.154v-.771c.232 0 .465-.076.62-.233.307-.153.542-.308.617-.617.154-.232.154-.54.154-.928v-.386c-.31.156-.771.31-1.392.386v-.771c.62-.155 1.082-.232 1.392-.311v-.232c0-.387-.077-.694-.233-.85-.232-.233-.618-.31-1.083-.31h-.076v-.771h.232c.465 0 .854.076 1.16.154.313.076.465.231.62.386.154.231.232.387.31.696.076.155.076.462.076.853v1.236c0 .927 0 1.47.077 1.7 0 .233.077.464.232.617h-1.004c-.077-.156-.154-.388-.232-.619zm-1.469.772h-.542c-.618 0-1.083-.154-1.392-.464-.387-.308-.542-.617-.542-1.081 0-.31.076-.542.232-.773.077-.231.233-.386.464-.541.232-.155.388-.233.697-.31.155-.078.465-.078.853-.152h.233v.771h-.155c-.387.076-.617.076-.771.152-.155.075-.311.232-.388.311-.076.154-.155.31-.155.465 0 .231.155.462.311.617.153.154.463.31.852.31.076 0 .232-.077.31-.077v.771l-.007.001zm0-5.024c-.387 0-.697.079-.927.233-.155.155-.308.464-.463.852l-.929-.155c.076-.386.232-.696.465-.927.154-.308.464-.465.851-.617a3.48 3.48 0 0 1 1.007-.155v.77h-.004zM266.956 140.575h1.006v7.65h-1.006zM269.663 148.226v-1.007h1.082v1.007c0 .463-.077.773-.234 1.004-.155.234-.385.388-.695.544l-.233-.388c.152-.076.308-.232.463-.386.076-.153.076-.386.154-.773l-.537-.001zM276.385 148.226l-1.699-5.563h1.006l.854 3.246.308 1.236c0-.077.154-.465.31-1.162l.85-3.324h1.007l.85 3.246.233 1.082.386-1.082.929-3.246h.927l-1.78 5.562h-.927l-.927-3.323-.232-.928-1.082 4.251-1.013.005zM286.892 146.45l1.007.152a2.603 2.603 0 0 1-.852 1.316c-.464.31-.929.465-1.624.465h-.077v-.772h.077c.387 0 .695-.077.928-.231.233-.235.387-.545.541-.93zm-1.545-3.865h.078c.695 0 1.315.23 1.78.771.463.465.696 1.159.696 2.087v.31h-2.551v-.772h1.541c0-.465-.154-.852-.309-1.083-.311-.386-.695-.541-1.16-.541h-.077l.002-.772zm0 5.795c-.773 0-1.392-.233-1.855-.771-.463-.464-.695-1.161-.695-2.088s.232-1.627.695-2.164c.464-.543 1.082-.771 1.855-.771v.771c-.387 0-.773.155-1.006.387-.31.309-.462.695-.543 1.236h1.546v.772h-1.546c0 .618.153 1.082.462 1.392.311.309.697.464 1.084.464l.003.772zM289.055 140.575h.928v7.65h-.928zM291.455 140.575h.924v7.65h-.924zM293.461 144.98h2.937v1.005h-2.937zM301.033 146.218l.928.153c-.076.618-.309 1.082-.773 1.468-.387.388-.926.544-1.546.544-.771 0-1.391-.233-1.854-.772-.464-.463-.695-1.16-.695-2.09 0-.617.155-1.159.308-1.624.232-.462.542-.771.927-1.007.387-.232.853-.308 1.314-.308.62 0 1.161.155 1.471.465.386.308.696.696.772 1.314l-.928.077c-.077-.31-.233-.617-.462-.772-.233-.233-.465-.31-.772-.31-.465 0-.853.155-1.161.465-.311.386-.464.927-.464 1.623 0 .774.153 1.315.464 1.701.232.309.618.464 1.08.464.388 0 .697-.077.929-.31.231-.232.386-.619.462-1.081zM306.44 148.226v-.772c-.462.618-1.007.927-1.778.927-.31 0-.619-.077-.929-.154a2.04 2.04 0 0 1-.613-.464c-.155-.233-.234-.463-.31-.772 0-.154-.078-.464-.078-.852v-3.479h1.005v4.097c.077.308.233.462.387.617.232.155.463.233.696.233.307 0 .616-.077.853-.233.23-.155.386-.386.541-.617a3.6 3.6 0 0 0 .154-1.082v-3.016h.927v5.563l-.855.004zM308.76 148.226v-5.563h.853v.85c.233-.385.387-.617.543-.772.232-.076.386-.152.62-.152.31 0 .694.077 1.004.308l-.31.853a1.253 1.253 0 0 0-.694-.233.706.706 0 0 0-.544.233c-.232.077-.309.31-.386.544-.078.31-.155.695-.155 1.082v2.859h-.927v-.005h-.004v-.004zM313.863 148.226l-2.089-5.563h1.007l1.159 3.399c.155.31.233.696.388 1.083.076-.31.152-.619.308-1.083l1.234-3.399h1.007l-2.089 5.563h-.925zM321.511 146.45l.927.152c-.152.543-.387 1.007-.851 1.316-.386.31-.927.465-1.545.465h-.076v-.772h.076c.309 0 .618-.077.852-.231.31-.235.462-.545.617-.93zm-1.544-3.865c.771 0 1.389.23 1.854.771.463.465.696 1.159.696 2.087v.31h-2.55v-.772h1.544c-.077-.465-.155-.852-.388-1.083-.232-.386-.694-.541-1.156-.541v-.772zm0 5.795c-.775 0-1.395-.233-1.856-.771-.463-.464-.697-1.161-.697-2.088s.233-1.627.697-2.164c.462-.543 1.081-.771 1.856-.771v.771c-.465 0-.775.155-1.085.387-.31.309-.462.695-.462 1.236h1.547v.772h-1.627c.077.618.233 1.082.543 1.392.311.309.62.464 1.085.464l-.001.772zM327.305 148.226v-.697c-.388.543-.854.852-1.545.852v-.771h.076c.388 0 .697-.155 1.007-.464.308-.387.463-.852.463-1.545 0-.773-.155-1.393-.463-1.702-.31-.386-.619-.541-1.08-.541v-.771c.306 0 .543.076.771.23.31.076.542.312.696.541v-2.781h.928v7.653l-.853-.004zm-1.545.154h-.076c-.387 0-.854-.077-1.16-.387a2.364 2.364 0 0 1-.93-1.005c-.154-.465-.308-.928-.308-1.47 0-.618.153-1.082.308-1.545.156-.465.465-.774.854-1.006.386-.309.771-.386 1.235-.386h.077v.77c-.387 0-.771.155-1.082.544-.232.31-.386.853-.386 1.625 0 .696.155 1.237.465 1.543.31.388.619.544 1.006.544l-.003.773zM332.254 146.603l.927-.152c.076.387.155.697.465.852.232.232.542.31.927.31.463 0 .772-.077 1.006-.231.233-.232.31-.388.31-.618 0-.233-.076-.387-.31-.542-.076-.077-.386-.156-.927-.31-.696-.155-1.161-.309-1.471-.465-.233-.153-.465-.309-.619-.542-.078-.232-.155-.462-.155-.696 0-.31.077-.543.155-.695.077-.233.232-.388.465-.544.154-.154.31-.233.619-.309.232-.077.542-.077.77-.077.465 0 .853.077 1.162.152.31.155.616.31.771.544.155.233.235.463.308.851l-.925.154c-.076-.307-.153-.542-.386-.696-.155-.154-.465-.232-.854-.232-.385 0-.694.077-.926.232-.154.154-.232.309-.232.463 0 .155 0 .233.076.311.078.153.234.233.388.309.076 0 .386.077.851.231.618.155 1.081.308 1.391.388.233.153.462.31.617.542s.233.465.233.772c0 .31-.152.619-.308.93-.154.232-.464.46-.771.617a3.167 3.167 0 0 1-1.162.232c-.773 0-1.315-.155-1.7-.465-.388-.311-.62-.697-.695-1.316zM341.602 147.608a7.29 7.29 0 0 1-1.006.617c-.154.076-.309.076-.463.154v-.771c.23 0 .386-.076.617-.233.31-.153.462-.308.617-.617.077-.232.154-.54.154-.928v-.386c-.31.156-.771.31-1.389.386v-.771c.616-.155 1.079-.232 1.389-.311v-.232c0-.387-.076-.694-.232-.85-.233-.233-.619-.31-1.081-.31h-.077v-.771h.232c.465 0 .853.076 1.162.154.232.076.464.231.62.386.153.231.23.387.306.696v2.089c0 .927.078 1.47.078 1.7.076.233.154.464.231.617h-.926a.886.886 0 0 1-.232-.619zm-1.467.772h-.543c-.617 0-1.082-.154-1.471-.464-.308-.308-.463-.617-.463-1.081 0-.31.077-.542.155-.773.153-.231.308-.386.542-.541.152-.155.387-.233.617-.31.232-.078.463-.078.851-.152h.311v.771h-.155c-.387.076-.618.076-.851.152-.155.076-.232.232-.31.311-.076.154-.155.31-.155.465 0 .231.077.462.31.617.155.154.463.31.772.31.155 0 .233-.077.387-.077l.003.772zm0-5.024c-.464 0-.697.079-.927.233-.233.155-.388.464-.465.852l-.926-.155c.076-.386.23-.696.386-.927.233-.308.465-.465.854-.617a4.622 4.622 0 0 1 1.082-.155l-.004.769zM347.55 146.218l.93.153c-.076.618-.311 1.082-.774 1.468-.387.388-.926.544-1.545.544-.694 0-1.314-.233-1.776-.772-.465-.463-.697-1.16-.697-2.09 0-.617.078-1.159.233-1.624a2.4 2.4 0 0 1 .928-1.007c.386-.232.852-.308 1.315-.308.616 0 1.162.155 1.543.465.387.308.619.696.697 1.314l-.928.077c-.077-.31-.233-.617-.464-.772-.232-.233-.463-.31-.772-.31-.465 0-.851.155-1.161.465-.309.386-.463.927-.463 1.623 0 .774.154 1.315.463 1.701.234.309.619.464 1.082.464.388 0 .697-.077.928-.31.232-.232.386-.619.461-1.081zM349.33 148.226v-5.563h.85v.85c.155-.385.388-.617.543-.772.232-.076.387-.152.619-.152.31 0 .695.077 1.005.308l-.31.853c-.232-.154-.462-.233-.695-.233-.234 0-.388.078-.619.233-.153.077-.233.31-.309.544a4.58 4.58 0 0 0-.154 1.082v2.859h-.929l-.001-.009zM356.516 148.226v-.772c-.388.618-1.006.927-1.778.927-.31 0-.618-.077-.927-.154-.232-.154-.465-.31-.617-.464a1.303 1.303 0 0 1-.232-.772c-.076-.154-.076-.464-.076-.852v-3.479h.926v3.091c0 .544 0 .854.077 1.006 0 .308.155.462.387.617.154.155.387.233.696.233.232 0 .543-.077.775-.233.232-.155.462-.386.542-.617.077-.232.153-.619.153-1.082v-3.016h.929v5.563l-.855.004zM358.835 148.226v-5.563h.85v.85a1.53 1.53 0 0 1 .697-.696 2.16 2.16 0 0 1 1.006-.23c.387 0 .771.076 1.007.23.309.155.464.387.541.696.462-.617 1.007-.925 1.78-.925.542 0 .927.152 1.236.462.311.308.464.772.464 1.393v3.787h-.929v-3.48c0-.386-.077-.617-.077-.771-.076-.232-.232-.311-.386-.465-.155-.076-.31-.155-.544-.155-.386 0-.695.155-1.004.388-.233.309-.388.697-.388 1.314v3.17h-.927v-3.554c0-.464-.076-.773-.231-1.006a1.027 1.027 0 0 0-.771-.31 1.24 1.24 0 0 0-.697.232c-.231.154-.386.387-.542.618a4.639 4.639 0 0 0-.155 1.16v2.861h-.927v-.004h-.004v-.002z"/><path fill="none" stroke="#000" stroke-width=".5" d="M77.869 7.357H48.891M121.374-5.316l-72.249-8.037M151.896 125.586h74.494M175.85 141.192h50.076M224.999 108.584L171.37 92.357"/></svg>