<svg version="1.1" xmlns="http://www.w3.org/2000/svg" x="0" y="0" width="326.162" height="174.711" viewBox="0 0 326.162 174.711" xml:space="preserve"><path fill="none" stroke="#000" stroke-width="1" d="M109.358 66.29l-2.681-1.122c4.926-1.435 7.731-5.425 8.917-12.346 2.557-14.404 15.027-23.321 29.119-31.739-7.856 7.607-14.466 15.277-19.018 24.131-1.185 2.307-1.372 4.614-.686 6.921.811 2.681.125 5.237-1.808 7.607-2.183 2.743-4.989 3.741-8.231 3.18l-5.612 3.368z"/><path fill="none" stroke="#6D6E71" stroke-width="1" d="M176.888 87.678c-9.603 1.684-12.533 12.471-15.401 31.801-2.307 15.463-12.097 26.812-25.253 30.678-9.977 2.932-20.452 1.81-30.678-.438l-1.372 3.555c11.972 5.611 25.814 6.547 39.844 2.683 17.209-4.677 26.999-15.651 32.673-28.87 5.112-12.097 10.725-17.896 14.778-18.332"/><path fill="none" stroke="#000" stroke-width="2" d="M209.81 1.006c-37.785-.25-72.766 6.859-104.939 21.45-11.536 5.175-19.33 14.777-18.644 28.807.499 11.473 12.346 13.469 27.623 15.464 7.732.998 16.212-3.18 25.44-10.974-6.984 6.048-12.346 12.034-9.353 12.97 5.113 1.621 9.977-1.746 14.341-6.485.312-.312.561-.624.873-.935.312-.375 1.247-1.435.936-1.06-5.362 5.113-7.358 8.23-6.048 9.166 2.869 1.996 6.11 1.809 9.603-.436 6.298-4.178 11.037-4.365 13.406 0 2.743 4.926 1.808 9.416 1.996 13.655.373 11.224-1.372 17.21-9.104 19.828-10.725 3.616-21.575 3.555-32.923 2.933-23.258-1.248-35.604 6.234-41.215 17.459-6.797 13.653-9.852 24.877-1.809 33.108 8.106 8.293 20.764 12.408 35.604 14.59 18.582 4.864 37.038 4.304 55.682-2.931 12.72-4.926 25.688-9.104 38.533-13.654"/><path fill="none" stroke="#000" stroke-width=".5" d="M140.66 119.479c-2.806 1.435-4.926 4.364-6.921 7.856-.749 1.247-1.31 1.247-1.808.437-.375-.562-.874-.562-1.373-.375-1.247.375-.686 1.311-1.184 2.619-.561 1.685-2.744 2.743-3.741.5-.374-.812-.499-1.248-1.06-1.062-.811.374-1.185 1.247-1.933 2.495-1.06 1.932-2.681 2.306-4.552 2.306-1.06 0-1.372-.374-2.307-2.618-.374-.936-1.434-.873-2.058.062-.312.561-.624.748-1.185.811-.749.062-.998-.25-.998-1.121 0-.5-.561-.688-1.434-.312-1.247.498-1.683 1.807-2.432 3.242-.748 1.371-1.933 1.619-2.993 1.619-1.185-.062-1.372-.373-.811-1.619 1.06-2.495 1.123-4.303 0-4.428-2.245-.375-3.242 1.56-4.676 4.178-.437.873-1.247.312-1.31-.438-.062-.561-.312-.811-.811-.873-.624 0-1.372.374-1.809 1.372-.686 1.685-1.559 2.683-2.868 3.117-.873.312-.499-2.369-1.185-1.871-.998.688-.624 2.371-4.053 1.935-.936-.062-1.497-.936-1.684-2.494-.062-.623-.125-1.248-.375-1.871-1.372-3.305-3.367-4.676-5.362-5.424 1.185-.188 2.494 0 3.554.996.624.625 1.123 1.248 1.995 1.685 2.183 1.187 3.991 1.871 4.739.687.749-1.123 1.372-1.746 1.996-.998.436.562.997.5 2.182-1.185.312-1.371 1.06-.748 1.122-.312.187.873.375 1.246 1.434.811.686-.312.936-.936.749-1.497-.188-.687 0-.998.686-1.31.623-.25.811-.188 1.247.312.25.312.187 1.124 1.247.375.499-.312.686-.812.873-1.435.312-1.061.873-1.496 1.435-1.435.624.125 1.247.437 1.372.997.25.873.437 1.561 1.808.188 1.746-1.745 2.557-2.058 2.868-.936.312.998 1.247 1.311 2.245.499.873-.748 1.309-.997 1.497-.437.312.936 1.06.998 2.245.998.686 0 1.06-.312 1.185-1.621.125-.937.561-1.497 1.372-1.684.686-.188 1.184.125 1.372.935.499 1.559 1.559.997 2.868-.624 1.06-1.934 2.37-3.116 2.993-2.307.873 1.248.935 1.685 1.87 1.123 1.06-.688 1.808-1.373 2.183-2.494.561-1.496 1.996-1.935 2.931-1.186 1.06.936 1.871 1.186 2.681.125 1.559-2.12 2.619-3.182 3.242-2.184.873 1.371 1.871 1.684 3.055.873 1.933-1.435 3.43-1.933 4.677-1.746 1.248.188 1.559.438.187 1.621-.811.748-1.746 1.436-2.868 1.934-.684.377-1.37.814-2.119 1.189z"/><path fill="#FFF" stroke="#000" stroke-width="2" d="M177.698 91.854c-1.934-2.492-1.995-3.554.562-4.676 5.61-2.681 11.098-4.427 16.586-5.238 1.62-.25 3.18.125 4.676 2.931 2.744 5.176 4.863 11.473 6.609 18.643.499 1.996-.623 3.182-2.494 3.867-3.117 1.122-6.298 1.559-9.416 1.932-2.557.312-5.175-.871-7.482-3.927-3.241-4.365-5.674-9.291-9.041-13.532zM166.226 96.531c1.371-2.743 3.18-3.117 5.86.374 3.243 4.364 6.797 7.546 10.228 10.227 3.055 2.433 3.181 5.612.936 8.979-1.122 1.621-2.307 3.24-3.305 4.986-1.248 2.12-2.12 2.682-4.24 1.81-3.866-1.496-8.105-2.619-12.221-5.112-1.373-.938-1.373-2.495-1.498-5.113-.188-5.425 1.433-10.726 4.24-16.151zM159.927 124.715c.811-2.244 1.559-3.117 3.802-1.496 2.933 2.12 6.361 3.242 9.666 4.678 2.119.998 2.119 2.744 1.185 4.552-.81 1.559-1.869 3.056-2.558 4.677-1.496 3.117-3.803 4.427-6.981 2.868-2.807-1.435-5.487-2.744-7.982-4.24-1.497-.937-1.122-2.869-.062-4.862 1.06-1.997 2.12-4.056 2.93-6.177zM150.949 139.119c2.183-2.184 3.117-2.37 4.988-.438 2.058 2.12 4.676 2.932 7.046 3.866 1.559.687 2.681 2.308.561 3.99-2.619 2.12-6.11 2.868-9.041 4.552-2.37 1.436-4.24 0-6.859-2.182-2.806-2.305-1.621-4.862 3.305-9.788zM140.972 148.598c1.497-.687 2.307-.25 2.931 1.121 1.434 3.555 1.933 6.049-.748 6.236-3.118.124-6.236-.126-9.354.124-1.247.125-1.808-.124-1.746-1.372 0-.623-.249-1.371.062-1.995.437-.872-.686-1.995 1.933-2.244 2.37-.25 4.615-1.248 6.922-1.87zM120.396 152.338c1.746 0 1.808.062 3.242-.188 1.06-.187 5.674-1.559 5.674-.062s-.437 2.993-.437 4.427c0 2.059-6.111 1.809-7.732 1.809-.873 0-1.684-.622-2.557-.622-.249 0 .187-3.306.25-3.867.125-.937 1.061-1.185 1.56-1.497zM103.435 150.779c-2.182 1.434 2.744 3.305 8.729 5.176 2.619 0 4.49-.998 4.49-3.866 0-1.684-7.981-1.123-9.104-1.56-1.995-.81-4.302-1.808-4.115.25z"/><path fill="none" stroke="#000" stroke-width="1" stroke-dasharray="5.0003,3.0002,1.0001,3.0002" d="M163.729 101.458c-3.491 12.782-10.413 22.884-20.14 30.428-10.163 7.857-21.263 10.538-32.922 10.788-4.552.125-4.739 2.059-.873 3.241 10.912 3.368 22.821 1.497 39.719-7.045 12.47-6.36 25.377-12.783 36.103-27.124"/><defs><path id="a" d="M110.356 32.37c3.242 1.808 2.931 8.542-.749 15.089-3.616 6.547-9.228 10.413-12.47 8.604-3.243-1.808-2.869-8.604.748-15.151 3.617-6.484 9.229-10.35 12.471-8.542z"/></defs><path fill="none" stroke="#000" stroke-width="2" d="M110.356 32.37c3.242 1.808 2.931 8.542-.749 15.089-3.616 6.547-9.228 10.413-12.47 8.604-3.243-1.808-2.869-8.604.748-15.151 3.617-6.484 9.229-10.35 12.471-8.542z"/><path fill="none" stroke="#000" stroke-width="1" d="M.24 88.426C13.148 81.38 26.117 75.145 39.211 70.53c11.286-3.991 24.755-7.981 31.738-6.485 8.417 1.871 17.209 1.684 25.876 3.492 10.912 2.307 21.886 2.806 32.923 2.993 13.655.188 21.449 1.746 21.512 5.237.125 8.667-4.053 10.912-13.219 10.725-13.842-.187-27.685-2.369-41.59-2.743-6.36-.188-.811 2.369 0 2.494 17.646 1.31 35.292 1.123 53 1.747 5.113-.251 11.411.124 12.283 4.238 1.123 5.487-3.18 8.854-7.669 9.291-8.23.873-16.336 1.994-24.941 1.248-7.607-.688-14.404 0-20.951.623-5.861.562-11.723.248-17.521-.312 2.245 1.561 1.995 2.682 1.497 3.99-1.559 4.429-5.924 6.361-9.54 8.916-2.494 1.811-3.679 4.678-4.303 7.108-1.746 6.673-5.113 8.169-9.228 10.164-14.591 6.983-30.678 8.854-46.516 9.541-3.492.124-7.358-.874-10.413-3.368-2.495-1.994-5.861-1.371-10.476 1.436l-1.435.561"/><g fill="none" stroke="#000" stroke-width="1"><path d="M90.715 103.078l-6.984-.374M80.988 117.544c-4.676 2.558-9.291 3.931-13.905 4.74"/></g><path fill="none" stroke="#000" stroke-width=".5" d="M148.081 74.521c-3.43.187-7.108-1.746-10.289.436-1.621 1.185-1.372 3.243-.624 5.175 1.434 3.368 5.362 3.867 10.725 1.996.063-2.369 1.684-4.926.188-7.607zM156.935 89.859c-4.053-.748-8.48-1.435-12.034.873-2.058 1.373-1.559 4.927-.125 6.673 2.744 3.366 7.981 2.806 12.471 2.368 1.496-3.304 1.371-6.608-.312-9.914z"/><path stroke="#000" stroke-width=".045" stroke-linecap="round" stroke-linejoin="round" d="M164.542 102.768l6.109 4.489c-.623-2.058-.25-3.616 1.371-5.051l-7.48.562zM99.694 35.862l-7.108-2.681c1.122 1.746 1.184 3.367 0 5.175l7.108-2.494zM134.612 26.259l-6.547-3.741c.811 1.933.624 3.554-.811 5.175l7.358-1.434zM148.392 131.139l7.108 2.68c-1.122-1.744-1.247-3.365-.062-5.174l-7.046 2.494zM166.786 143.796l7.046 2.681c-1.121-1.808-1.185-3.43 0-5.236l-7.046 2.555z"/><path d="M37.341 14.038h.125c.437 0 .811.062 1.122.187.312.125.499.312.686.561.125.312.25.562.25.811 0 .312-.062.562-.25.749-.125.25-.374.437-.624.623.374.062.624.25.873.562.187.249.312.562.312.935 0 .25-.062.561-.187.811s-.312.437-.499.562-.375.249-.686.312c-.25.062-.561.062-.998.062h-.125v-.686h.125c.312 0 .499 0 .561-.062.187 0 .375-.062.499-.125.125-.125.25-.249.312-.374s.125-.312.125-.499c0-.249-.062-.437-.188-.623a.972.972 0 0 0-.499-.375c-.187-.062-.499-.062-.873-.062h-.062v-.749c.312 0 .561-.062.748-.062.187-.062.312-.188.436-.312.125-.187.188-.374.188-.562a.997.997 0 0 0-.188-.561.636.636 0 0 0-.374-.312c-.188-.062-.437-.062-.811-.062v-.749h.002zm-2.245 6.173v-6.173h2.245v.748h-1.373v1.871H37.34v.749h-1.372v2.12h1.372v.686l-2.244-.001zM40.832 14.038h.749v6.173h-.749zM45.696 19.712c-.312.188-.561.374-.811.499-.125 0-.25.062-.437.062v-.562c.187 0 .375-.062.562-.187a.976.976 0 0 0 .499-.499c.062-.187.125-.436.125-.748v-.312c-.249.125-.623.187-1.185.312v-.624c.562-.125.936-.187 1.185-.249v-.188c0-.312-.062-.561-.249-.686-.188-.188-.437-.25-.811-.25h-.125v-.624h.187c.437 0 .686.062.936.125.25.062.437.187.561.312.125.188.187.312.25.561V18.338c0 .749 0 1.185.062 1.372.062.188.125.374.188.499h-.811a1.136 1.136 0 0 1-.126-.497zm-1.247.561c-.125.062-.25.062-.436.062-.499 0-.874-.125-1.123-.374a1.272 1.272 0 0 1-.374-.936c0-.187.062-.374.125-.561.125-.187.249-.312.374-.437.187-.125.374-.187.561-.25.188-.062.374-.062.686-.125h.187v.624h-.062c-.312.062-.561.062-.686.125-.125.062-.187.187-.312.25-.062.125-.062.25-.062.374 0 .188.062.375.187.499.187.125.436.25.686.25.125 0 .187-.062.25-.062l-.001.561zm0-3.99c-.312 0-.561.062-.686.187-.188.125-.312.312-.375.687l-.748-.125c.062-.312.187-.562.312-.748.187-.249.375-.374.686-.499.25-.063.499-.125.811-.125v.623zM50.497 20.211v-.561c-.312.436-.686.686-1.185.686v-.624c.312 0 .624-.125.811-.437.25-.25.374-.686.374-1.184 0-.624-.125-1.123-.374-1.372-.187-.312-.499-.437-.811-.437v-.624a1.2 1.2 0 0 1 .624.187c.187.062.374.25.499.438v-2.245h.748v6.173h-.686zm-1.185.124h-.062c-.374 0-.686-.125-.998-.312s-.561-.437-.686-.811c-.188-.374-.25-.749-.25-1.247 0-.437.062-.811.187-1.185.188-.375.375-.624.686-.873.312-.188.624-.25.998-.25h.125v.624h-.062c-.312 0-.624.125-.811.437-.25.249-.374.686-.374 1.247 0 .624.125 1.06.374 1.309.25.312.499.437.873.437v.624zM55.298 20.211v-.561c-.25.436-.686.686-1.185.686v-.624c.312 0 .624-.125.874-.437.187-.25.312-.686.312-1.184 0-.624-.125-1.123-.312-1.372a1.091 1.091 0 0 0-.874-.437v-.624c.25 0 .437.062.624.187.187.062.374.25.499.438v-2.245h.748v6.173h-.686zm-1.185.124h-.062c-.374 0-.686-.125-.998-.312-.312-.187-.499-.437-.686-.811s-.25-.749-.25-1.247c0-.437.062-.811.25-1.185.125-.375.374-.624.624-.873.312-.188.686-.25.998-.25h.124v.624c-.374 0-.623.125-.873.437-.25.249-.312.686-.312 1.247 0 .624.062 1.06.312 1.309.25.312.561.437.873.437v.624zM60.287 18.777l.811.125c-.125.436-.374.81-.686 1.06-.375.25-.811.374-1.31.374h-.062v-.624h.062c.25 0 .499-.062.686-.249.249-.125.374-.374.499-.686zm-1.247-3.118c.624 0 1.123.187 1.496.624.375.374.562.935.562 1.684v.25H59.04v-.624h1.247c0-.437-.125-.686-.312-.873-.187-.312-.499-.437-.935-.437v-.624zm0 4.676c-.624 0-1.123-.187-1.496-.624-.375-.374-.562-.935-.562-1.684 0-.748.188-1.309.562-1.746.374-.438.873-.624 1.496-.624v.624a1.49 1.49 0 0 0-.873.312c-.25.25-.374.561-.374.998h1.247v.624h-1.31c.062.437.187.873.437 1.122.25.25.499.374.873.374v.624zM62.032 20.211v-4.49h.686v.686c.188-.312.312-.499.499-.623a.898.898 0 0 1 .437-.125c.25 0 .561.062.811.25l-.25.686c-.187-.125-.374-.188-.561-.188s-.312.062-.437.188c-.187.062-.25.25-.312.374-.063.312-.125.624-.125.937v2.307l-.748-.002zM.178 35.3l.811-.062c0 .312.125.561.25.748s.312.374.624.499c.25.125.624.187.935.187.312 0 .624-.062.811-.124.25-.125.436-.25.561-.375.125-.187.187-.374.187-.561s-.062-.374-.187-.499-.312-.25-.561-.374c-.125-.062-.499-.188-1.123-.312-.561-.125-.936-.25-1.185-.375-.25-.187-.499-.374-.624-.561-.188-.25-.25-.499-.25-.811s.125-.561.25-.873c.187-.25.437-.436.811-.624.312-.125.686-.187 1.123-.187.499 0 .873.062 1.247.187.312.188.623.374.811.686.187.312.25.624.312.998l-.811.062c-.062-.437-.187-.686-.437-.936-.25-.187-.624-.249-1.06-.249-.499 0-.873.062-1.123.249-.187.188-.312.375-.312.624 0 .25.062.437.25.562.125.187.561.312 1.247.436.624.188 1.123.312 1.372.437.312.125.624.375.748.624.188.249.312.561.312.873s-.125.624-.312.936-.436.499-.811.686c-.374.125-.748.25-1.184.25a4.548 4.548 0 0 1-1.435-.25c-.374-.187-.686-.436-.873-.748-.249-.312-.312-.686-.374-1.123zM6.101 39.042l-.062-.749c.187.062.312.062.437.062.187 0 .312 0 .437-.062l.249-.249c0-.063.125-.25.187-.562 0-.062.062-.125.062-.187l-1.683-4.49h.811l.935 2.619c.125.312.25.686.312.998.125-.312.187-.686.312-.998l.998-2.619h.749l-1.684 4.552c-.187.499-.374.873-.436 1.06-.125.25-.312.437-.499.499a1.056 1.056 0 0 1-.626.188c-.124 0-.311 0-.499-.062zM10.466 37.296v-4.49h.686v.624c.188-.188.375-.375.561-.499.25-.187.499-.25.811-.25s.624.062.811.25c.25.125.374.312.436.561.375-.499.874-.811 1.435-.811.437 0 .748.125.998.374s.374.624.374 1.185v3.055h-.749V34.49c0-.312-.062-.562-.062-.686-.062-.125-.187-.25-.312-.312s-.25-.125-.437-.125c-.312 0-.562.125-.811.312-.188.187-.312.561-.312.998v2.619h-.748v-2.931c0-.312-.062-.561-.188-.749-.124-.187-.312-.25-.623-.25-.187 0-.375.063-.562.188-.187.062-.312.25-.374.499-.125.188-.125.499-.125.937v2.307h-.809zM19.632 32.682h.062c.374 0 .748.125.998.312.312.187.562.499.686.873.125.312.25.748.25 1.123 0 .499-.125.873-.25 1.247-.187.374-.437.686-.748.873-.312.187-.624.312-.998.312v-.624c.312 0 .624-.187.811-.437.25-.312.375-.748.375-1.372 0-.562-.125-.998-.375-1.247-.187-.312-.499-.437-.811-.437v-.623zm-1.933 6.36v-6.236h.686v.561c.188-.187.375-.374.562-.499s.436-.125.686-.187v.624c-.312 0-.623.125-.873.437s-.375.749-.375 1.31c0 .623.125 1.06.375 1.309s.499.437.811.437h.062v.624c-.25 0-.499-.062-.686-.187-.187-.125-.374-.249-.499-.374v2.183h-.749v-.002zM22.5 37.296v-6.173h.811v2.182a1.66 1.66 0 0 1 1.31-.624c.312 0 .623.062.873.25.25.125.437.312.499.499.125.25.187.561.187.998v2.868h-.748v-2.868c0-.375-.125-.624-.25-.811-.187-.187-.437-.25-.686-.25s-.436.063-.686.188c-.188.125-.312.25-.375.437-.125.25-.125.499-.125.873v2.432l-.81-.001zM27.301 39.042l-.062-.749c.125.062.312.062.437.062s.312 0 .374-.062a.49.49 0 0 0 .25-.249c.062-.063.125-.25.249-.562 0-.062 0-.125.062-.187l-1.683-4.49h.811l.935 2.619c.125.312.187.686.312.998.062-.312.187-.686.312-.998l.936-2.619h.811l-1.746 4.552c-.187.499-.312.873-.437 1.06-.125.25-.25.437-.436.499a1.056 1.056 0 0 1-.624.187 1.537 1.537 0 0 1-.501-.061zM31.354 35.986l.749-.125c.062.249.187.499.374.686.187.124.436.249.811.249.312 0 .624-.125.749-.249.187-.125.249-.312.249-.499s-.062-.312-.187-.375c-.125-.062-.375-.187-.811-.249l-1.123-.374c-.25-.125-.374-.25-.499-.437s-.187-.374-.187-.623c0-.188.062-.375.125-.561.125-.188.25-.312.375-.437.125-.062.312-.125.499-.188.187-.062.436-.125.686-.125a2.5 2.5 0 0 1 .936.187c.25.062.437.25.561.374.125.188.188.437.25.749l-.748.062c0-.187-.125-.374-.25-.499-.188-.188-.437-.25-.686-.25-.374 0-.624.062-.748.188-.187.125-.25.25-.25.437 0 .062 0 .187.062.25.062.062.187.125.312.187.062.062.312.125.686.187l1.122.374c.188.062.375.25.499.374.125.188.187.437.187.686 0 .25-.062.499-.249.686-.125.25-.312.437-.624.562-.25.125-.561.187-.935.187-.561 0-1.06-.125-1.309-.374a1.678 1.678 0 0 1-.626-1.06zM36.031 31.996v-.873h.749v.873h-.749zm0 5.3v-4.49h.749v4.49h-.749zM37.59 35.986l.811-.125c0 .249.124.499.312.686.187.124.499.249.811.249.375 0 .624-.125.811-.249.125-.125.25-.312.25-.499s-.062-.312-.25-.375c-.125-.062-.374-.187-.749-.249-.561-.187-.998-.312-1.184-.374-.188-.125-.375-.25-.499-.437a1.05 1.05 0 0 1-.187-.623c0-.188.062-.375.187-.561.062-.188.187-.312.374-.437.125-.062.249-.125.437-.188.25-.062.437-.125.686-.125.374 0 .686.062.935.187.25.062.437.25.561.374.125.188.25.437.312.749l-.748.062a1.366 1.366 0 0 0-.312-.499c-.187-.188-.374-.25-.686-.25-.374 0-.624.062-.748.188-.188.125-.25.25-.25.437 0 .062.062.187.125.25s.125.125.25.187.312.125.686.187l1.122.374c.25.062.375.25.499.374.125.188.187.437.187.686 0 .25-.062.499-.187.686-.187.25-.374.437-.686.562-.25.125-.561.187-.936.187-.561 0-.998-.125-1.31-.374s-.499-.623-.624-1.06zM46.569 32.682h.062c.437 0 .748.125 1.06.312.249.187.499.499.623.873.187.312.25.748.25 1.123 0 .499-.062.873-.25 1.247-.187.374-.436.686-.748.873s-.624.312-.998.312v-.624c.312 0 .624-.187.873-.437.187-.312.312-.748.312-1.372 0-.562-.062-.998-.312-1.247-.25-.312-.561-.437-.873-.437l.001-.623zm-1.933 6.36v-6.236h.686v.561c.187-.187.374-.374.561-.499.188-.125.437-.125.686-.187v.624c-.312 0-.624.125-.873.437s-.374.749-.374 1.31c0 .623.125 1.06.374 1.309s.499.437.873.437v.624c-.25 0-.437-.062-.624-.187-.25-.125-.374-.249-.499-.374v2.183h-.81v-.002zM52.43 37.296v-.686c-.375.561-.811.811-1.434.811a1.66 1.66 0 0 1-.749-.187c-.25-.062-.374-.187-.499-.374-.125-.125-.188-.312-.25-.561 0-.125-.062-.375-.062-.686v-2.806h.811v3.304c.062.188.188.375.312.437.188.124.375.187.562.187.25 0 .437-.063.686-.187.187-.125.312-.25.374-.437.125-.249.187-.499.187-.873v-2.432h.748v4.49h-.686zM56.171 32.682h.125c.25 0 .499.062.749.187s.436.25.623.499c.188.188.312.437.375.686.125.312.125.624.125.936 0 .749-.187 1.372-.561 1.808-.375.374-.811.624-1.372.624h-.062v-.624c.374 0 .624-.187.873-.437.25-.312.374-.748.374-1.309 0-.561-.125-.998-.374-1.31-.25-.25-.499-.437-.811-.437h-.062v-.623h-.002zm-1.184 4.614h-.686v-6.173h.748v2.182a1.716 1.716 0 0 1 1.123-.624v.624a1.483 1.483 0 0 0-.811.437c-.25.312-.374.749-.374 1.247 0 .561.062.935.187 1.185.25.375.624.624.998.624v.624c-.499-.062-.873-.25-1.185-.686v.56zM59.102 31.996v-.873h.748v.873h-.748zm0 5.3v-4.49h.748v4.49h-.748zM60.723 35.986l.748-.125c.062.249.188.499.374.686.187.124.437.249.811.249.312 0 .624-.125.748-.249.187-.125.25-.312.25-.499s-.062-.312-.187-.375c-.125-.062-.375-.187-.811-.249l-1.123-.374c-.25-.125-.374-.25-.499-.437s-.187-.374-.187-.623c0-.188.062-.375.125-.561.125-.188.249-.312.374-.437.125-.062.312-.125.499-.188.187-.062.437-.125.686-.125.312 0 .624.062.873.187.312.062.499.25.624.374.125.188.187.437.25.749l-.749.062c0-.187-.125-.374-.249-.499-.188-.188-.437-.25-.749-.25s-.561.062-.748.188a.567.567 0 0 0-.188.437c0 .062 0 .187.063.25.062.062.187.125.312.187.062.062.312.125.686.187.499.187.935.312 1.122.374.188.062.374.25.499.374.125.188.187.437.187.686 0 .25-.062.499-.25.686-.125.25-.312.437-.624.562-.25.125-.624.187-.935.187-.624 0-1.061-.125-1.372-.374-.248-.249-.498-.623-.56-1.06zM219.787 118.105l.748-.062c.062.25.125.562.249.749.188.187.374.375.624.437.312.125.622.188.997.188.312 0 .562 0 .811-.125.25-.062.438-.188.562-.375s.125-.312.125-.499c0-.248 0-.374-.125-.561a1.202 1.202 0 0 0-.562-.312c-.188-.124-.561-.186-1.121-.311-.562-.188-.937-.312-1.186-.438-.312-.125-.498-.312-.686-.562-.127-.187-.188-.498-.188-.748 0-.312.062-.623.25-.872.187-.312.437-.498.81-.624.312-.125.688-.249 1.123-.249.438 0 .873.124 1.186.249.373.126.623.375.811.624.188.312.312.622.312.997l-.748.062c-.062-.375-.188-.688-.437-.873-.25-.188-.624-.312-1.122-.312s-.812.062-1.062.249c-.248.188-.373.438-.373.687 0 .25.125.374.248.562.189.125.562.25 1.248.437.687.125 1.123.25 1.371.375.375.187.625.374.812.623.188.25.249.562.249.873 0 .374-.062.687-.249.937a1.727 1.727 0 0 1-.812.686c-.373.188-.811.25-1.246.25-.561 0-.997-.062-1.372-.25-.373-.125-.687-.374-.937-.747a2.152 2.152 0 0 1-.31-1.065zM228.703 119.54c-.312.188-.562.374-.872.499-.125.062-.25.062-.375.125v-.624c.188 0 .375-.062.499-.124.25-.188.437-.312.562-.562.062-.188.125-.438.125-.748v-.312a4.719 4.719 0 0 1-1.186.312v-.623c.499-.062.873-.188 1.186-.25v-.188c0-.312-.125-.562-.25-.686-.187-.188-.498-.25-.873-.25h-.062v-.623h.188c.373 0 .686.062.935.125.25.123.438.187.5.373.124.125.249.25.249.498.062.127.062.375.062.688v.998c0 .747 0 1.184.062 1.371 0 .188.062.374.187.562h-.811c-.062-.187-.126-.372-.126-.561zm-1.247.624h-.438c-.498 0-.873-.125-1.121-.375a1.09 1.09 0 0 1-.438-.873c0-.249.062-.438.188-.623.062-.188.25-.312.375-.438.187-.123.373-.187.561-.248.125-.063.375-.063.688-.125h.187v.623h-.062c-.312.062-.562.125-.688.125-.125.062-.249.187-.312.248-.062.125-.125.252-.125.375 0 .188.125.375.25.498.188.188.375.25.686.25.062 0 .188-.062.25-.062v.625h-.001zm0-4.053c-.312 0-.561.062-.748.187-.125.124-.249.374-.373.687l-.688-.125c.062-.312.125-.562.312-.748.124-.188.375-.375.687-.498.25-.062.498-.125.811-.125v.622zM233.505 118.417l.748.125c-.124.499-.312.874-.623 1.187-.375.312-.749.437-1.248.437-.623 0-1.121-.188-1.496-.562-.373-.437-.562-.998-.562-1.746 0-.498.063-.937.25-1.311.125-.312.375-.623.747-.811.312-.188.687-.25 1.061-.25.499 0 .873.125 1.186.375.312.25.5.561.623 1.06l-.748.125c-.062-.312-.188-.562-.373-.687-.188-.187-.438-.248-.688-.248-.374 0-.686.123-.936.436-.188.25-.311.688-.311 1.248 0 .622.061 1.061.311 1.372.25.249.562.373.936.373a1.2 1.2 0 0 0 .749-.249c.186-.187.311-.499.374-.874zM234.876 120.102v-4.488h.688v.623c.187-.312.312-.5.498-.623.125-.062.312-.125.5-.125.248 0 .498.062.748.248l-.25.687c-.188-.124-.375-.187-.562-.187s-.312.062-.436.187c-.127.125-.25.25-.312.437-.062.25-.124.562-.124.875v2.369h-.749v-.003zM240.676 119.54c-.25.188-.499.374-.812.499-.125.062-.248.062-.375.125v-.624c.189 0 .375-.062.5-.124.25-.188.437-.312.498-.562.125-.188.125-.438.125-.748v-.312c-.25.124-.623.248-1.123.312v-.623c.5-.062.873-.188 1.123-.25.062-.125.062-.188.062-.188 0-.312-.126-.562-.25-.686-.188-.188-.499-.25-.873-.25h-.062v-.623h.189c.373 0 .686.062.936.125.248.123.436.187.498.373.125.125.188.25.25.498.062.127.062.375.062.688v.998c0 .747 0 1.184.062 1.371a1 1 0 0 0 .188.562h-.812c-.062-.187-.125-.372-.186-.561zm-1.187.624h-.436c-.498 0-.873-.125-1.123-.375-.312-.188-.437-.498-.437-.873 0-.249.062-.438.188-.623.062-.188.187-.312.373-.438.188-.125.373-.187.562-.248.125-.063.373-.063.686-.125h.188v.623h-.062c-.311.062-.561.125-.685.125-.125.062-.25.187-.313.248-.062.125-.123.252-.123.375 0 .188.123.375.25.498.188.188.373.25.686.25.062 0 .188-.062.249-.062v.624h-.003zm0-4.053c-.311 0-.561.062-.746.187-.125.124-.25.374-.375.687l-.748-.125c.124-.312.188-.562.373-.748.126-.188.375-.375.688-.498.25-.062.5-.125.811-.125v.623h-.003zM242.546 113.865h.811v6.236h-.811zM248.845 115.486h.061c.375 0 .748.062.998.312.312.188.562.438.686.812.125.373.25.748.25 1.185s-.125.872-.25 1.246a1.92 1.92 0 0 1-.747.812c-.312.25-.624.312-.997.312v-.624c.311 0 .622-.124.811-.438.248-.248.373-.687.373-1.309 0-.562-.125-.998-.312-1.311-.25-.25-.562-.437-.872-.437v-.56zm-1.934 6.299v-6.174h.686v.562c.188-.25.375-.438.562-.499a1.26 1.26 0 0 1 .687-.188v.562c-.312.062-.623.188-.873.498-.25.312-.375.748-.375 1.311 0 .561.125.998.375 1.246.25.312.5.438.812.438h.062v.624c-.25 0-.498-.062-.687-.125-.187-.125-.373-.25-.498-.437v2.183l-.751-.001zM251.712 120.102v-4.488h.688v.623c.187-.312.373-.5.498-.623.125-.062.312-.125.498-.125.25 0 .5.062.748.248l-.248.687a1.016 1.016 0 0 0-.562-.187.669.669 0 0 0-.436.187c-.127.125-.252.25-.252.437-.123.25-.186.562-.186.875v2.369h-.748v-.003zM256.451 115.486c.622 0 1.122.188 1.495.625.375.373.625.935.625 1.684 0 .561-.125.997-.312 1.309-.124.375-.374.625-.746.812-.312.188-.689.25-1.062.25v-.624c.372 0 .687-.124.935-.438.25-.248.374-.687.374-1.309 0-.562-.124-.998-.374-1.248-.248-.312-.562-.436-.935-.436v-.625zm-2.12 2.369c0-.873.249-1.496.686-1.871a2.23 2.23 0 0 1 1.436-.498v.625c-.374 0-.688.123-.936.436-.25.25-.375.688-.375 1.311 0 .561.125.998.375 1.246.248.312.562.438.936.438v.624c-.624 0-1.123-.188-1.561-.624-.373-.375-.561-.938-.561-1.687zM259.442 120.102v-4.488h.688v.623c.125-.25.311-.438.562-.562.248-.125.498-.188.81-.188s.562.062.812.188c.188.124.375.374.437.562.375-.5.812-.748 1.372-.748.438 0 .811.125 1.061.373.25.25.312.623.312 1.123v3.117h-.747v-2.867c0-.312 0-.5-.062-.623-.062-.188-.125-.25-.25-.375a1.155 1.155 0 0 0-.437-.125c-.373 0-.623.125-.812.373-.187.188-.312.5-.312.998v2.619h-.747v-2.931c0-.374-.062-.624-.188-.749-.125-.188-.375-.311-.623-.311a1.19 1.19 0 0 0-.623.187c-.125.124-.312.312-.375.499a3.793 3.793 0 0 0-.125.936v2.369h-.753zM268.485 115.486c.623 0 1.121.188 1.496.625.375.373.623.935.623 1.684 0 .561-.125.997-.312 1.309-.126.375-.374.625-.749.812-.312.188-.686.25-1.061.25v-.624c.375 0 .687-.124.937-.438.249-.248.374-.687.374-1.309 0-.562-.125-.998-.374-1.248-.25-.312-.562-.436-.937-.436v-.625h.003zm-2.121 2.369c0-.873.25-1.496.687-1.871a2.227 2.227 0 0 1 1.435-.498v.625c-.375 0-.687.123-.937.436-.248.25-.373.688-.373 1.311 0 .561.125.998.373 1.246.25.312.562.438.937.438v.624c-.623 0-1.121-.188-1.56-.624-.374-.375-.562-.938-.562-1.687zM271.479 120.102v-4.488h.685v.623c.312-.5.812-.748 1.437-.748.248 0 .498.062.748.125.187.123.373.248.498.373.125.188.188.375.25.562v3.556h-.748v-2.744c0-.312 0-.562-.063-.687a.632.632 0 0 0-.312-.374 1.013 1.013 0 0 0-.562-.188c-.312 0-.562.125-.812.312-.248.25-.375.624-.375 1.187v2.494h-.746v-.003zM277.963 119.416l.125.623c-.25.062-.437.062-.623.062-.25 0-.5 0-.625-.125a.757.757 0 0 1-.312-.312c-.062-.125-.125-.438-.125-.936v-2.557h-.562v-.562h.562v-1.123l.748-.498v1.621h.812v.562h-.812v2.618c0 .249.062.375.062.437.062.062.062.125.124.125.062.062.188.062.25.062.127.003.251.003.376.003zM280.521 115.486c.623 0 1.121.188 1.496.625.373.373.623.935.623 1.684 0 .561-.125.997-.312 1.309-.124.375-.374.625-.748.812-.312.188-.687.25-1.06.25v-.624c.373 0 .686-.124.935-.438.25-.248.374-.687.374-1.309 0-.562-.124-.998-.374-1.248-.249-.312-.562-.436-.935-.436v-.625zm-2.122 2.369c0-.873.248-1.496.686-1.871a2.23 2.23 0 0 1 1.436-.498v.625c-.375 0-.688.123-.937.436-.25.25-.374.688-.374 1.311 0 .561.124.998.374 1.246.249.312.562.438.937.438v.624c-.625 0-1.123-.188-1.56-.624-.374-.375-.562-.938-.562-1.687zM283.513 120.102v-4.488h.687v.623c.187-.312.312-.5.499-.623.125-.062.312-.125.438-.125.248 0 .561.062.811.248l-.25.687a1.016 1.016 0 0 0-.561-.187.567.567 0 0 0-.438.187c-.188.125-.25.25-.312.437-.062.25-.123.562-.123.875v2.369h-.75v-.003zM286.381 121.785l-.125-.688c.187.062.312.062.437.062.188 0 .312-.062.438-.062l.249-.248c.062-.062.125-.25.187-.562.063-.062.063-.124.127-.188l-1.746-4.488h.811l.936 2.557c.125.373.25.686.373 1.061.062-.375.188-.688.312-1.061l.936-2.557h.748l-1.684 4.552c-.188.498-.312.812-.438.997-.125.25-.312.438-.437.562a1.26 1.26 0 0 1-.687.188c-.126 0-.251-.062-.437-.125zM219.787 134.566l.748-.062c.062.25.125.562.249.748.188.187.374.375.624.438.312.123.622.186.997.186.312 0 .562 0 .811-.124a.902.902 0 0 0 .562-.375c.125-.187.125-.312.125-.498 0-.249 0-.374-.125-.562a1.202 1.202 0 0 0-.562-.312c-.188-.125-.561-.188-1.121-.312-.562-.188-.937-.312-1.186-.438-.312-.125-.498-.312-.686-.562-.127-.188-.188-.498-.188-.747 0-.312.062-.625.25-.873.187-.312.437-.499.81-.624.312-.125.688-.25 1.123-.25.438 0 .873.125 1.186.25.373.125.623.373.811.624.188.312.312.623.312.997l-.748.062c-.062-.373-.188-.686-.437-.873-.25-.187-.624-.312-1.122-.312s-.812.062-1.062.249c-.248.188-.373.437-.373.686 0 .25.125.374.248.562.189.125.562.249 1.248.436.687.126 1.123.25 1.371.375.375.188.625.374.812.623.188.25.249.562.249.874 0 .374-.062.685-.249.937a1.727 1.727 0 0 1-.812.686c-.373.188-.811.249-1.246.249-.561 0-.997-.062-1.372-.249-.373-.125-.687-.374-.937-.748a2.125 2.125 0 0 1-.31-1.061zM227.396 135.876l.123.624c-.187.062-.437.062-.561.062-.312 0-.499 0-.688-.125a.762.762 0 0 1-.312-.312c-.062-.125-.062-.437-.062-.937v-2.557h-.562v-.562h.562v-1.121l.748-.499v1.621h.748v.562h-.748v2.618c0 .25 0 .375.062.438 0 .062.062.123.125.123.062.062.125.062.249.062.066.003.191.003.316.003zM228.142 136.562v-4.489h.688v.622c.188-.312.312-.497.499-.622.125-.062.312-.124.498-.124.25 0 .499.062.749.249l-.25.685a1.015 1.015 0 0 0-.561-.188.566.566 0 0 0-.438.188c-.125.126-.249.25-.312.438-.062.25-.125.562-.125.873v2.371h-.748v-.003zM233.94 136.002c-.25.188-.562.374-.811.498-.125.062-.25.062-.375.125v-.623c.188 0 .375-.062.499-.126.25-.187.437-.312.499-.562.124-.187.124-.437.124-.748v-.312c-.248.125-.623.25-1.122.312v-.623c.499-.062.874-.188 1.122-.25v-.187c0-.312-.062-.562-.187-.687-.188-.188-.5-.249-.873-.249h-.062v-.623h.188c.373 0 .687.062.935.124.251.125.375.187.499.373.126.125.188.25.251.5 0 .125.062.373.062.686V136c.062.187.125.374.25.562h-.811c-.063-.186-.124-.374-.188-.56zm-1.184.623h-.437c-.498 0-.873-.125-1.123-.374-.311-.187-.436-.499-.436-.874 0-.248.061-.436.188-.622.062-.188.188-.312.373-.437.188-.125.312-.188.562-.25.124-.062.374-.062.687-.125h.187v.623h-.124c-.312.062-.499.125-.624.125-.124.062-.249.188-.312.25-.062.125-.125.248-.125.373 0 .188.125.375.25.5.125.188.373.25.687.25.062 0 .124-.062.248-.062v.623h-.001zm0-4.053c-.312 0-.562.062-.748.187-.124.124-.249.374-.374.687l-.748-.125c.063-.312.188-.562.375-.747.125-.188.373-.374.623-.499.249-.062.562-.124.872-.124v.621zM235.874 131.2v-.873h.748v.873h-.748zm0 5.362v-4.489h.748v4.489h-.748zM239.489 137.748c.312-.062.562-.125.75-.25a.907.907 0 0 0 .373-.562c.062-.188.062-.498.062-.998-.312.375-.688.562-1.186.625v-.688c.375 0 .623-.124.873-.373.25-.25.375-.688.375-1.248s-.125-.997-.375-1.246c-.25-.312-.498-.438-.873-.438v-.622c.498 0 .936.249 1.248.622v-.498h.686v3.865c0 .687-.062 1.186-.188 1.496-.125.25-.375.5-.688.687-.311.125-.623.25-1.061.25v-.622h.004zm-1.869-.81l.748.062c.062.249.125.437.25.499.188.188.436.25.811.25h.061v.623h-.061c-.562 0-.998-.125-1.31-.375a1.334 1.334 0 0 1-.499-1.059zm1.869-.376h-.061c-.623 0-1.123-.25-1.436-.688a2.786 2.786 0 0 1-.498-1.621c0-.438.062-.811.249-1.184.125-.375.375-.625.624-.812.312-.249.686-.311 1.061-.311h.061v.623c-.372 0-.622.123-.871.437-.25.249-.374.687-.374 1.185 0 .623.124 1.061.374 1.311.249.249.499.373.871.373v.687zM242.608 136.562v-6.235h.748v2.245c.373-.438.811-.623 1.371-.623.312 0 .562.062.811.187.25.124.438.312.562.562.125.187.125.562.125.998v2.869h-.748v-2.869c0-.375-.062-.687-.25-.812-.125-.188-.375-.311-.687-.311-.249 0-.437.062-.623.187-.188.124-.375.312-.438.499a2.473 2.473 0 0 0-.123.811v2.496h-.748v-.004zM249.093 135.876l.062.624c-.188.062-.375.062-.562.062-.248 0-.498 0-.623-.125-.187-.062-.25-.188-.312-.312-.063-.125-.125-.437-.125-.937v-2.557h-.562v-.562h.562v-1.121l.747-.499v1.621h.812v.562h-.812v2.618c0 .25.062.375.062.438 0 .062.062.123.125.123.062.062.124.062.249.062s.189.003.377.003zM251.899 135.189l.746-.123c.062.311.188.562.375.686.188.188.438.25.812.25s.624-.062.748-.188c.188-.188.312-.312.312-.5 0-.187-.123-.312-.248-.437-.125-.062-.375-.124-.812-.249-.499-.125-.935-.25-1.123-.375-.248-.062-.374-.249-.499-.438a1.007 1.007 0 0 1-.186-.561c0-.249.062-.438.186-.562.062-.187.188-.312.312-.437.123-.062.312-.187.498-.249.25-.062.438-.062.687-.062.312 0 .624.062.937.124.248.125.437.248.562.437.124.187.25.373.25.687l-.749.125a.792.792 0 0 0-.249-.562 1.27 1.27 0 0 0-.687-.188c-.375 0-.623.062-.748.188-.188.124-.25.25-.25.374 0 .125.062.188.125.25a.483.483 0 0 0 .25.249c.062 0 .312.062.686.188.562.125.936.25 1.122.375.25.062.374.187.5.373.124.188.187.375.187.623 0 .25-.062.5-.187.748-.188.188-.375.375-.687.5-.25.125-.562.188-.937.188-.562 0-.998-.125-1.31-.374-.312-.247-.498-.56-.623-1.06zM259.507 136.002c-.312.188-.562.374-.812.498-.187.062-.312.062-.437.125v-.623c.188 0 .374-.062.562-.126.188-.187.375-.312.498-.562.063-.187.125-.437.125-.748v-.312c-.312.125-.686.25-1.185.312v-.623c.499-.062.873-.188 1.185-.25v-.187c0-.312-.125-.562-.248-.687-.188-.188-.5-.249-.873-.249h-.062v-.623h.188c.375 0 .687.062.937.124.249.125.437.187.562.373.062.125.188.25.188.5.062.125.062.373.062.686v.998c0 .747 0 1.186.062 1.372 0 .187.062.374.187.562h-.811c-.066-.186-.128-.374-.128-.56zm-1.248.623h-.438c-.498 0-.871-.125-1.121-.374a1.094 1.094 0 0 1-.438-.874c0-.248.062-.436.188-.622.062-.188.249-.312.372-.437.188-.125.375-.188.562-.25.127-.062.374-.062.688-.125h.187v.623h-.062c-.312.062-.561.125-.686.125-.125.062-.25.188-.312.25-.062.125-.125.248-.125.373 0 .188.125.375.249.5.188.188.373.25.688.25.062 0 .186-.062.248-.062v.623zm0-4.053c-.312 0-.562.062-.686.187-.188.124-.312.374-.438.687l-.686-.125c.062-.312.123-.562.312-.747.123-.188.373-.374.686-.499a3.16 3.16 0 0 1 .811-.124v.621zM264.308 134.879l.748.125c-.062.499-.312.872-.623 1.186-.375.312-.748.437-1.248.437-.623 0-1.121-.188-1.496-.562-.373-.437-.562-.998-.562-1.746 0-.5.063-.936.249-1.31.188-.312.375-.624.75-.811.311-.188.686-.249 1.059-.249.5 0 .873.124 1.186.373.312.25.499.561.624 1.061l-.748.125c-.062-.312-.188-.562-.374-.688-.188-.187-.438-.248-.688-.248-.373 0-.686.123-.935.437-.188.249-.312.687-.312 1.246 0 .624.062 1.062.312 1.373.249.248.562.374.935.374.312 0 .562-.062.748-.25.187-.188.312-.499.375-.873zM265.681 136.562v-4.489h.686v.622c.188-.312.373-.497.498-.622.125-.062.312-.124.5-.124.248 0 .498.062.746.249l-.248.685a1.018 1.018 0 0 0-.562-.188.566.566 0 0 0-.438.188c-.123.126-.248.25-.312.438-.062.25-.125.562-.125.873v2.371h-.745v-.003zM271.54 136.562v-.688c-.374.5-.873.749-1.434.749-.25 0-.5-.062-.748-.125-.25-.124-.375-.249-.5-.373a2.288 2.288 0 0 1-.25-.562c0-.188-.062-.438-.062-.75v-2.742h.748v2.432c0 .438.062.686.062.811.062.25.188.375.312.5.188.123.374.188.562.188.248 0 .436-.062.686-.188a.963.963 0 0 0 .374-.5c.125-.187.125-.498.125-.873v-2.368h.81v4.489h-.685zM273.411 136.562v-4.489h.686v.622c.125-.248.312-.437.562-.561.188-.125.5-.187.812-.187.312 0 .562.062.812.187.188.124.312.374.437.561.375-.497.811-.746 1.372-.746.437 0 .81.124 1.06.373.188.25.312.623.312 1.123v3.117h-.749v-2.869c0-.312 0-.498-.062-.623-.062-.188-.125-.25-.25-.375a1.182 1.182 0 0 0-.498-.123.884.884 0 0 0-.748.373c-.249.188-.312.5-.312.998v2.619h-.748v-2.932c0-.374-.062-.623-.187-.749a.768.768 0 0 0-.624-.312c-.249 0-.438.062-.624.188a.966.966 0 0 0-.374.499c-.062.25-.124.562-.124.937v2.369h-.753zM220.036 149.407v-6.173h.873l3.242 4.864v-4.864h.811v6.173h-.873l-3.24-4.864v4.864zM228.019 144.855c.623 0 1.121.187 1.56.623.373.375.562.936.562 1.621 0 .623-.062 1.061-.25 1.371a1.91 1.91 0 0 1-.748.812c-.312.187-.687.249-1.123.249v-.623c.375 0 .748-.125.998-.438.248-.248.375-.685.375-1.31 0-.562-.127-.997-.375-1.247-.312-.312-.623-.438-.998-.438v-.62h-.001zm-2.059 2.307c0-.811.188-1.434.686-1.809a2.058 2.058 0 0 1 1.373-.498v.623c-.375 0-.687.125-.937.437-.249.25-.374.687-.374 1.247 0 .625.125 1.061.374 1.311.25.312.562.438.937.438v.623c-.623 0-1.123-.188-1.498-.623-.375-.376-.561-.936-.561-1.749zM231.011 149.407v-4.489h.686v.686c.189-.311.375-.498.5-.623a1.174 1.174 0 0 1 1.246.125l-.25.687a1.002 1.002 0 0 0-.561-.188.676.676 0 0 0-.438.188.527.527 0 0 0-.248.437c-.125.25-.125.562-.125.873v2.308h-.811v-.004zM233.94 149.407v-4.489h.688v.686c.124-.248.311-.437.561-.562.188-.124.498-.187.748-.187.375 0 .625.062.873.187.188.125.312.312.438.562.374-.498.811-.746 1.372-.746.437 0 .81.123 1.06.373.188.248.312.623.312 1.123v3.055h-.748v-2.807c0-.312 0-.498-.062-.623-.062-.188-.125-.25-.25-.375a1.183 1.183 0 0 0-.5-.125c-.311 0-.561.125-.746.312-.25.249-.312.562-.312 1.061v2.557h-.811v-2.868c0-.374-.063-.624-.188-.812-.062-.125-.312-.25-.562-.25-.248 0-.437.063-.623.188a.972.972 0 0 0-.375.499 3.803 3.803 0 0 0-.123.936v2.308h-.75v-.003zM244.042 148.909c-.248.187-.499.374-.811.498-.125.062-.25.062-.375.125v-.623a.705.705 0 0 0 .5-.188c.248-.123.438-.248.498-.498.125-.188.125-.436.125-.748v-.312c-.25.126-.623.25-1.123.312v-.623c.5-.125.873-.188 1.123-.25v-.188c0-.312-.062-.561-.187-.686-.188-.188-.499-.25-.874-.25h-.062v-.623h.188c.375 0 .688.062.936.125.252.062.375.187.5.312.125.187.188.312.25.562.062.125.062.373.062.686v.998c0 .748 0 1.184.062 1.372a.7.7 0 0 0 .188.498h-.81a3.802 3.802 0 0 1-.19-.499zm-1.186.623h-.436c-.499 0-.874-.125-1.123-.375-.312-.248-.438-.498-.438-.872 0-.25.062-.438.188-.624.062-.187.188-.312.375-.437s.312-.188.561-.25c.125-.062.375-.062.688-.123h.188v.623h-.125c-.312.062-.498.062-.623.123-.125.062-.25.188-.312.25-.062.125-.125.25-.125.375 0 .188.125.373.25.498.124.125.374.25.686.25.062 0 .188-.062.25-.062v.623h-.004zm0-4.053c-.312 0-.561.063-.748.188-.125.125-.248.374-.373.687l-.75-.125c.062-.312.188-.562.375-.748.125-.248.375-.375.687-.498.188-.062.499-.125.812-.125v.621h-.003zM245.913 143.234h.811v6.173h-.811zM248.097 149.407v-.812h.873v.812c0 .374-.062.624-.189.811-.125.188-.311.312-.561.438l-.188-.312c.123-.062.248-.188.373-.312.062-.124.062-.312.125-.624l-.433-.001zM253.521 149.407l-1.371-4.489h.812l.687 2.619.248.998c0-.062.125-.375.25-.938l.686-2.681h.812l.686 2.619.188.873.312-.873.749-2.619h.748l-1.436 4.489h-.748l-.748-2.682-.187-.748-.873 3.43-.815.002zM262 147.975l.812.123a2.102 2.102 0 0 1-.686 1.061c-.375.25-.75.375-1.311.375h-.062v-.623h.062c.312 0 .561-.062.748-.188.188-.188.313-.438.437-.748zm-1.246-3.12h.062c.562 0 1.062.187 1.436.623.374.375.561.936.561 1.684v.25h-2.057v-.623H262a1.61 1.61 0 0 0-.249-.874c-.25-.312-.561-.437-.936-.437h-.062l.001-.623zm0 4.677c-.624 0-1.123-.188-1.497-.623-.374-.374-.562-.937-.562-1.685s.188-1.311.562-1.746c.374-.437.873-.623 1.497-.623v.623c-.313 0-.624.125-.812.312-.25.249-.373.562-.437.998h1.247v.623h-1.247c0 .499.124.873.373 1.123.25.249.562.374.874.374l.002.624zM263.746 143.234h.748v6.173h-.748zM265.681 143.234h.746v6.173h-.746zM267.301 146.789h2.369v.811h-2.369zM273.411 147.787l.748.124c-.062.499-.249.873-.624 1.185-.312.312-.747.438-1.247.438-.623 0-1.122-.188-1.496-.623-.374-.374-.561-.936-.561-1.686 0-.498.125-.935.248-1.31.188-.373.438-.622.748-.812.312-.187.688-.248 1.061-.248.5 0 .936.125 1.186.375.312.248.562.561.623 1.06l-.748.062c-.062-.25-.188-.498-.373-.623a.8.8 0 0 0-.623-.25 1.27 1.27 0 0 0-.937.375c-.25.312-.374.748-.374 1.309 0 .625.124 1.061.374 1.373.187.249.499.374.872.374.312 0 .562-.062.749-.25.187-.187.312-.5.374-.873zM277.774 149.407v-.623c-.373.499-.811.748-1.434.748-.25 0-.499-.062-.749-.125a1.692 1.692 0 0 1-.497-.374c-.125-.188-.188-.374-.25-.623 0-.125-.062-.375-.062-.688v-2.806h.811v3.306c.062.248.188.373.312.498.188.125.373.188.562.188.247 0 .497-.062.686-.188.187-.125.312-.312.437-.498.062-.188.125-.5.125-.873v-2.433h.748v4.489l-.689.002zM279.646 149.407v-4.489h.687v.686c.188-.311.312-.498.437-.623.188-.062.312-.123.5-.123.25 0 .561.062.811.248l-.25.687a1.007 1.007 0 0 0-.561-.188.566.566 0 0 0-.438.188c-.188.062-.249.249-.312.437-.062.25-.125.562-.125.873v2.308h-.748v-.004zM283.763 149.407l-1.685-4.489h.812l.935 2.743c.125.25.188.562.313.874.062-.25.123-.5.247-.874l.998-2.743h.812l-1.686 4.489h-.746zM289.935 147.975l.748.123c-.123.438-.312.812-.686 1.061-.312.25-.748.375-1.247.375h-.062v-.623h.062c.249 0 .499-.062.687-.188.25-.188.373-.438.498-.748zm-1.247-3.12c.623 0 1.121.187 1.496.623.373.375.562.936.562 1.684v.25h-2.058v-.623h1.246c-.062-.375-.125-.688-.312-.874-.188-.312-.561-.437-.934-.437v-.623zm0 4.677c-.625 0-1.125-.188-1.498-.623-.373-.374-.562-.937-.562-1.685s.188-1.311.562-1.746c.373-.438.873-.623 1.498-.623v.623c-.375 0-.625.125-.875.312-.25.249-.373.562-.373.998h1.248v.623h-1.312c.062.499.187.873.437 1.123.25.249.5.374.875.374v.624zM294.61 149.407v-.562c-.312.438-.687.687-1.246.687v-.623h.062c.312 0 .562-.125.812-.374.248-.312.373-.688.373-1.247 0-.624-.125-1.123-.373-1.373-.25-.312-.5-.437-.873-.437v-.623c.248 0 .438.062.623.187.25.062.438.251.562.437v-2.244h.749v6.174l-.689-.002zm-1.246.125h-.062c-.312 0-.688-.062-.936-.312a1.902 1.902 0 0 1-.75-.81c-.124-.375-.248-.749-.248-1.186 0-.498.124-.873.248-1.246.126-.375.375-.625.688-.812.312-.249.623-.311.998-.311h.062v.621c-.312 0-.623.125-.873.438-.188.25-.312.688-.312 1.311 0 .562.125.998.375 1.246.25.312.5.438.812.438l-.002.623zM298.603 148.098l.748-.123c.062.312.125.562.375.686.187.188.437.25.748.25.373 0 .623-.062.811-.188.188-.187.25-.312.25-.498 0-.188-.062-.312-.25-.437-.062-.063-.312-.126-.748-.25-.562-.125-.936-.249-1.186-.375-.188-.124-.375-.249-.5-.437-.062-.188-.125-.373-.125-.562 0-.25.063-.437.125-.562.063-.188.188-.312.375-.438.125-.125.25-.188.5-.249.187-.062.437-.062.621-.062.375 0 .688.062.938.123.25.125.498.25.623.438s.188.374.248.686l-.747.125c-.062-.248-.124-.437-.312-.562-.125-.124-.375-.188-.687-.188s-.562.063-.748.188c-.125.125-.188.249-.188.374s0 .188.062.25c.062.124.188.188.312.249.062 0 .312.062.687.188.499.125.872.248 1.122.312.188.124.374.25.498.437.125.188.188.375.188.623 0 .25-.123.5-.248.75-.125.187-.375.372-.623.498a2.526 2.526 0 0 1-.937.188c-.624 0-1.062-.125-1.372-.375-.312-.248-.499-.559-.56-1.059zM306.147 148.909a5.75 5.75 0 0 1-.812.498c-.125.062-.249.062-.374.125v-.623c.187 0 .312-.062.498-.188a.963.963 0 0 0 .499-.498c.062-.188.125-.436.125-.748v-.312c-.25.126-.624.25-1.122.312v-.623c.498-.125.872-.188 1.122-.25v-.188c0-.312-.062-.561-.188-.686-.188-.188-.5-.25-.873-.25h-.062v-.623h.187c.375 0 .687.062.937.125.188.062.374.187.5.312.124.187.187.312.248.562V147.538c0 .748.062 1.184.062 1.372.062.187.125.374.188.498h-.748a.708.708 0 0 1-.187-.499zm-1.185.623h-.438c-.498 0-.873-.125-1.186-.375-.248-.248-.373-.498-.373-.872 0-.25.062-.438.125-.624.124-.187.248-.312.438-.437.123-.125.311-.188.498-.25s.373-.062.686-.123h.25v.623h-.125c-.312.062-.499.062-.686.123-.125.062-.188.188-.25.25-.062.125-.125.25-.125.375 0 .188.062.373.25.498a.95.95 0 0 0 .623.25c.125 0 .188-.062.312-.062v.624h.001zm0-4.053c-.374 0-.562.063-.748.188-.188.125-.312.374-.375.687l-.747-.125c.062-.312.187-.562.312-.748.188-.248.375-.375.687-.498a3.7 3.7 0 0 1 .873-.125l-.002.621zM310.946 147.787l.75.124c-.062.499-.25.873-.625 1.185-.312.312-.747.438-1.246.438-.561 0-1.061-.188-1.434-.623-.375-.374-.562-.936-.562-1.686 0-.498.062-.935.188-1.31.188-.373.437-.622.748-.812.312-.187.687-.248 1.061-.248.498 0 .936.125 1.246.375.312.248.5.561.562 1.06l-.748.062c-.062-.25-.188-.498-.375-.623a.796.796 0 0 0-.623-.25c-.375 0-.686.125-.936.375-.249.312-.374.748-.374 1.309 0 .625.125 1.061.374 1.373.188.249.499.374.873.374.312 0 .562-.062.748-.25.188-.187.313-.5.373-.873zM312.382 149.407v-4.489h.686v.686c.125-.311.312-.498.438-.623.188-.062.312-.123.499-.123.25 0 .562.062.812.248l-.25.687a1.002 1.002 0 0 0-.562-.188c-.187 0-.312.062-.499.188-.124.062-.188.249-.249.437-.062.25-.125.562-.125.873v2.308h-.749v-.004zM318.181 149.407v-.623c-.312.499-.811.748-1.434.748-.25 0-.499-.062-.748-.125a3.372 3.372 0 0 1-.499-.374 1.053 1.053 0 0 1-.187-.623c-.062-.125-.062-.375-.062-.688v-2.806h.748v2.494c0 .437 0 .687.062.812 0 .248.125.373.312.498.125.125.312.188.562.188.188 0 .438-.062.625-.188.187-.125.373-.312.437-.498.062-.188.124-.5.124-.873v-2.433h.749v4.489l-.689.002zM320.052 149.407v-4.489h.686v.686c.125-.248.312-.437.562-.562.25-.124.499-.187.812-.187.312 0 .623.062.812.187a.797.797 0 0 1 .437.562c.373-.498.811-.746 1.435-.746.437 0 .748.123.998.373.25.248.374.623.374 1.123v3.055h-.749v-2.807c0-.312-.062-.498-.062-.623-.062-.188-.188-.25-.312-.375-.125-.062-.25-.125-.438-.125-.312 0-.562.125-.811.312-.188.249-.312.562-.312 1.061v2.557h-.748v-2.868c0-.374-.062-.624-.187-.812a.83.83 0 0 0-.623-.25c-.188 0-.375.063-.562.188-.188.125-.312.312-.438.499a3.793 3.793 0 0 0-.125.936v2.308h-.748v-.003z"/><path fill="none" stroke="#000" stroke-width=".5" d="M93.334 35.737H69.951M128.439 25.511l-58.3-6.485M153.068 131.139h60.111M172.397 143.732h40.407M212.056 117.42l-43.274-13.094"/></svg>