<svg version="1.1" xmlns="http://www.w3.org/2000/svg" x="0" y="0" width="325.982" height="175.662" viewBox="0 0 325.982 175.662" xml:space="preserve"><path fill="none" stroke="#000" stroke-width="2" d="M23.087 48.083h89.956c13.738 0 24.085 4.445 31.358 16.326 7.193 10.183 15.115 18.347 23.601 24.57 6.547 2.748 13.174.97 19.721-5.253 13.012-25.54 26.672-37.583 40.978-36.127h68.376M22.117 142.481c15.437 0 30.793.812 46.148 0 11.638-.646 21.337-7.92 28.935-19.72 10.911-17.054 22.064-27.803 34.188-27.966 10.75-.161 24.489 8.245 36.613 26.995 9.941 15.274 26.51 21.419 49.14 20.69 20.771-.729 41.382-1.857 62.154.485"/><path fill="none" stroke="#000" stroke-width=".5" stroke-dasharray="2.5002,1.5001" d="M184.327 30.705l-.403 125.274"/><path fill="none" stroke="#000" stroke-width=".5" d="M219.027 30.705v38.068"/><path fill="none" stroke="#000" stroke-width=".57" d="M184.327 47.75h35.712"/><path fill="none" stroke="#000" stroke-width=".5" d="M140.701 102.422l.486 31.746M86.048 126.075l-.242 30.149M184.022 102.907v34.753M141.187 119.313h43.32M82.734 146.847h104.502"/><path d="M6.149 33.119v-5.428h-.872v-.872h.872v-.299c0-.886.208-1.692.729-2.2.429-.416 1.002-.586 1.536-.586.417 0 .755.092.976.183l-.156.885a1.666 1.666 0 0 0-.729-.143c-.977 0-1.224.846-1.224 1.822v.338h1.523v.872H7.281v5.428H6.149zM10.301 30.178c.026 1.549 1.002 2.187 2.161 2.187.82 0 1.328-.144 1.744-.325l.208.819c-.403.183-1.106.404-2.108.404-1.939 0-3.098-1.289-3.098-3.189s1.119-3.384 2.955-3.384c2.069 0 2.603 1.796 2.603 2.954a2.8 2.8 0 0 1-.039.534h-4.426zm3.358-.821c.013-.716-.299-1.848-1.588-1.848-1.171 0-1.666 1.054-1.757 1.848h3.345zM17.563 25.31v1.51h1.64v.872h-1.64v3.397c0 .78.222 1.224.859 1.224.312 0 .495-.026.664-.078l.052.872a3.126 3.126 0 0 1-1.015.156c-.534 0-.963-.183-1.237-.482-.312-.351-.442-.911-.442-1.652v-3.437h-.976v-.872h.976v-1.171l1.119-.339zM24.917 31.609c0 .547.026 1.08.091 1.51H23.98l-.091-.794h-.039c-.352.494-1.028.938-1.926.938-1.275 0-1.926-.898-1.926-1.81 0-1.522 1.354-2.355 3.788-2.343v-.13c0-.508-.143-1.458-1.432-1.445-.599 0-1.21.17-1.653.469l-.26-.768c.521-.326 1.289-.547 2.083-.547 1.926 0 2.395 1.314 2.395 2.564v2.356zm-1.107-1.705c-1.25-.026-2.668.195-2.668 1.419 0 .755.495 1.093 1.067 1.093.833 0 1.366-.521 1.549-1.054.039-.131.052-.261.052-.364v-1.094zM26.764 23.878h1.146v9.241h-1.146v-9.241zM32.595 23.878h1.146v3.943h.026c.182-.325.469-.624.82-.819a2.35 2.35 0 0 1 1.171-.312c.846 0 2.2.521 2.2 2.682v3.748h-1.145v-3.618c0-1.016-.378-1.861-1.458-1.861-.742 0-1.314.521-1.536 1.132-.065.17-.078.339-.078.547v3.801h-1.146v-9.243zM40.456 30.178c.026 1.549 1.002 2.187 2.161 2.187.82 0 1.328-.144 1.744-.325l.208.819c-.403.183-1.106.404-2.108.404-1.939 0-3.098-1.289-3.098-3.189s1.119-3.384 2.955-3.384c2.069 0 2.603 1.796 2.603 2.954a2.8 2.8 0 0 1-.039.534h-4.426zm3.358-.821c.013-.716-.299-1.848-1.588-1.848-1.171 0-1.666 1.054-1.757 1.848h3.345zM50.764 31.609c0 .547.026 1.08.091 1.51h-1.028l-.091-.794h-.039c-.351.494-1.028.938-1.926.938-1.275 0-1.926-.898-1.926-1.81 0-1.522 1.354-2.355 3.788-2.343v-.13c0-.508-.143-1.458-1.432-1.445-.599 0-1.21.17-1.653.469l-.26-.768c.521-.326 1.289-.547 2.083-.547 1.926 0 2.395 1.314 2.395 2.564v2.356zm-1.107-1.705c-1.25-.026-2.668.195-2.668 1.419 0 .755.495 1.093 1.067 1.093.833 0 1.366-.521 1.549-1.054.039-.131.052-.261.052-.364v-1.094zM52.612 28.785c0-.742-.013-1.38-.052-1.966h1.002l.052 1.25h.039c.287-.847.989-1.38 1.757-1.38.117 0 .208.013.312.026v1.08c-.117-.026-.234-.026-.391-.026-.807 0-1.38.599-1.536 1.458a3.432 3.432 0 0 0-.039.533v3.358H52.61v-4.333zM58.559 25.31v1.51h1.64v.872h-1.64v3.397c0 .78.222 1.224.859 1.224.312 0 .495-.026.664-.078l.052.872a3.126 3.126 0 0 1-1.015.156c-.534 0-.963-.183-1.237-.482-.312-.351-.442-.911-.442-1.652v-3.437h-.976v-.872h.976v-1.171l1.119-.339zM64.246 28.785c0-.742-.013-1.38-.052-1.966h1.002l.052 1.25h.039c.287-.847.989-1.38 1.757-1.38.117 0 .208.013.312.026v1.08c-.117-.026-.234-.026-.391-.026-.807 0-1.38.599-1.536 1.458a3.432 3.432 0 0 0-.039.533v3.358h-1.146v-4.333zM72.863 31.609c0 .547.026 1.08.091 1.51h-1.028l-.091-.794h-.039c-.351.494-1.028.938-1.926.938-1.275 0-1.926-.898-1.926-1.81 0-1.522 1.354-2.355 3.788-2.343v-.13c0-.508-.143-1.458-1.432-1.445-.599 0-1.21.17-1.653.469l-.26-.768c.521-.326 1.289-.547 2.083-.547 1.926 0 2.395 1.314 2.395 2.564v2.356zm-1.107-1.705c-1.25-.026-2.668.195-2.668 1.419 0 .755.495 1.093 1.067 1.093.833 0 1.366-.521 1.549-1.054.039-.131.052-.261.052-.364v-1.094zM76.038 25.31v1.51h1.64v.872h-1.64v3.397c0 .78.222 1.224.859 1.224.312 0 .495-.026.664-.078l.052.872a3.126 3.126 0 0 1-1.015.156c-.534 0-.963-.183-1.237-.482-.312-.351-.442-.911-.442-1.652v-3.437h-.976v-.872h.976v-1.171l1.119-.339zM79.526 30.178c.026 1.549 1.002 2.187 2.161 2.187.82 0 1.328-.144 1.744-.325l.208.819c-.403.183-1.106.404-2.108.404-1.939 0-3.098-1.289-3.098-3.189s1.119-3.384 2.955-3.384c2.069 0 2.603 1.796 2.603 2.954a2.8 2.8 0 0 1-.039.534h-4.426zm3.358-.821c.013-.716-.299-1.848-1.588-1.848-1.171 0-1.666 1.054-1.757 1.848h3.345zM207.341 6.299c0-.664-.025-1.185-.052-1.705h1.003l.051 1.028h.039c.352-.599.938-1.158 1.992-1.158.846 0 1.496.521 1.77 1.263h.026c.195-.364.456-.625.716-.82.377-.286.781-.442 1.38-.442.847 0 2.083.547 2.083 2.733v3.696h-1.119V7.34c0-1.223-.456-1.938-1.367-1.938-.664 0-1.158.481-1.367 1.027-.052.17-.091.365-.091.573v3.892h-1.119V7.119c0-1.002-.442-1.718-1.315-1.718-.702 0-1.236.572-1.418 1.145a1.558 1.558 0 0 0-.092.561v3.787h-1.119V6.299zM223.897 7.691c0 2.33-1.627 3.346-3.137 3.346-1.692 0-3.02-1.25-3.02-3.241 0-2.096 1.393-3.332 3.124-3.332 1.809 0 3.033 1.314 3.033 3.227zm-4.986.066c0 1.38.781 2.421 1.9 2.421 1.094 0 1.914-1.028 1.914-2.447 0-1.067-.534-2.407-1.888-2.407-1.34-.001-1.926 1.248-1.926 2.433zM225.341 6.56c0-.742-.014-1.38-.053-1.966h1.003l.052 1.25h.039c.287-.847.989-1.38 1.758-1.38.117 0 .207.013.312.026v1.08c-.117-.026-.234-.026-.391-.026-.808 0-1.381.599-1.536 1.458a3.432 3.432 0 0 0-.039.533v3.358h-1.146V6.56zM230.105 7.952c.025 1.549 1.002 2.187 2.16 2.187.82 0 1.328-.144 1.744-.325l.209.819c-.404.183-1.106.404-2.109.404-1.939 0-3.098-1.289-3.098-3.189s1.119-3.384 2.955-3.384c2.069 0 2.604 1.796 2.604 2.954 0 .234-.014.404-.039.534h-4.426zm3.357-.82c.014-.716-.299-1.848-1.588-1.848-1.171 0-1.666 1.054-1.756 1.848h3.344zM240.126 3.084v1.51h1.64v.872h-1.64v3.397c0 .78.221 1.224.859 1.224.312 0 .494-.026.663-.078l.052.872a3.12 3.12 0 0 1-1.015.156c-.534 0-.964-.183-1.237-.482-.312-.351-.441-.911-.441-1.652V5.466h-.977v-.872h.977V3.423l1.119-.339zM243.054 1.652h1.146v3.943h.026c.182-.325.469-.624.819-.819a2.352 2.352 0 0 1 1.171-.312c.847 0 2.2.521 2.2 2.682v3.748h-1.146V7.275c0-1.016-.377-1.861-1.457-1.861-.742 0-1.314.521-1.536 1.132-.065.17-.078.339-.078.547v3.801h-1.146V1.652zM254.702 9.384c0 .547.025 1.08.092 1.51h-1.029l-.091-.794h-.039c-.351.494-1.028.938-1.927.938-1.275 0-1.926-.898-1.926-1.81 0-1.522 1.354-2.355 3.787-2.343v-.13c0-.508-.143-1.458-1.432-1.445-.598 0-1.21.17-1.652.469l-.261-.768c.521-.326 1.288-.547 2.083-.547 1.926 0 2.395 1.314 2.395 2.564v2.356zm-1.106-1.705c-1.249-.026-2.668.195-2.668 1.419 0 .755.495 1.093 1.067 1.093.833 0 1.366-.521 1.549-1.054.039-.131.052-.261.052-.364V7.679zM256.55 6.299c0-.664-.013-1.185-.052-1.705h1.015l.066 1.041h.025c.312-.585 1.041-1.171 2.082-1.171.873 0 2.227.521 2.227 2.682v3.748h-1.146V7.262c0-1.015-.378-1.86-1.458-1.86-.742 0-1.328.533-1.535 1.171a1.629 1.629 0 0 0-.078.534v3.787h-1.146V6.299zM266.441 9.592c.326.195 1.068.521 1.875.521 1.457 0 1.926-.924 1.913-1.64-.013-1.185-1.08-1.692-2.187-1.692h-.638v-.859h.638c.833 0 1.887-.43 1.887-1.432 0-.677-.429-1.276-1.483-1.276-.677 0-1.327.3-1.692.561l-.312-.833c.456-.326 1.315-.651 2.227-.651 1.666 0 2.421.989 2.421 2.018 0 .885-.534 1.627-1.562 2.004v.026c1.041.195 1.873.977 1.887 2.161 0 1.354-1.067 2.538-3.085 2.538-.95 0-1.782-.3-2.199-.573l.31-.873zM278.481 6.572c0 2.877-1.081 4.465-2.942 4.465-1.652 0-2.785-1.549-2.811-4.348 0-2.851 1.236-4.399 2.955-4.399 1.769 0 2.798 1.588 2.798 4.282zm-4.595.13c0 2.2.677 3.449 1.719 3.449 1.158 0 1.717-1.366 1.717-3.527 0-2.082-.52-3.449-1.717-3.449-.99 0-1.719 1.223-1.719 3.527zM282.488 9.735c.352.208.951.442 1.523.442.82 0 1.211-.403 1.211-.938 0-.546-.326-.833-1.159-1.146-1.146-.416-1.679-1.027-1.679-1.783 0-1.015.833-1.848 2.174-1.848.638 0 1.197.169 1.535.391l-.273.833a2.435 2.435 0 0 0-1.288-.378c-.677 0-1.041.391-1.041.859 0 .521.364.755 1.185 1.08 1.08.403 1.652.95 1.652 1.888 0 1.119-.871 1.9-2.342 1.9-.69 0-1.328-.183-1.771-.443l.273-.857zM288.436 7.952c.026 1.549 1.003 2.187 2.161 2.187.819 0 1.327-.144 1.744-.325l.207.819c-.402.183-1.105.404-2.107.404-1.939 0-3.098-1.289-3.098-3.189s1.119-3.384 2.954-3.384c2.069 0 2.603 1.796 2.603 2.954 0 .234-.012.404-.039.534h-4.425zm3.358-.82c.013-.716-.3-1.848-1.588-1.848-1.172 0-1.666 1.054-1.758 1.848h3.346zM298.809 10.672c-.3.144-.963.365-1.81.365-1.9 0-3.137-1.289-3.137-3.215 0-1.939 1.328-3.358 3.385-3.358.677 0 1.275.169 1.588.338l-.26.872c-.273-.143-.703-.299-1.328-.299-1.445 0-2.227 1.08-2.227 2.382 0 1.458.938 2.355 2.188 2.355.65 0 1.08-.156 1.405-.299l.196.859zM305.772 7.691c0 2.33-1.627 3.346-3.137 3.346-1.692 0-3.02-1.25-3.02-3.241 0-2.096 1.393-3.332 3.124-3.332 1.809 0 3.033 1.314 3.033 3.227zm-4.986.066c0 1.38.781 2.421 1.9 2.421 1.094 0 1.914-1.028 1.914-2.447 0-1.067-.534-2.407-1.888-2.407-1.34-.001-1.926 1.248-1.926 2.433zM307.216 6.299c0-.664-.013-1.185-.052-1.705h1.015l.066 1.041h.025c.312-.585 1.041-1.171 2.082-1.171.873 0 2.227.521 2.227 2.682v3.748h-1.146V7.262c0-1.015-.378-1.86-1.458-1.86-.742 0-1.328.533-1.535 1.171a1.629 1.629 0 0 0-.078.534v3.787h-1.146V6.299zM319.867 1.652v7.614c0 .56.026 1.197.052 1.627h-1.016l-.051-1.093h-.039c-.339.703-1.093 1.237-2.122 1.237-1.521 0-2.707-1.289-2.707-3.202-.013-2.096 1.303-3.371 2.824-3.371.977 0 1.615.455 1.9.95h.026V1.652h1.133zm-1.132 5.506c0-.144-.013-.339-.052-.481-.17-.716-.794-1.314-1.652-1.314-1.186 0-1.889 1.041-1.889 2.421 0 1.275.639 2.329 1.861 2.329.769 0 1.471-.521 1.68-1.366a1.99 1.99 0 0 0 .052-.495V7.158zM321.624 9.735c.352.208.949.442 1.522.442.819 0 1.21-.403 1.21-.938 0-.546-.325-.833-1.158-1.146-1.145-.416-1.679-1.027-1.679-1.783 0-1.015.833-1.848 2.173-1.848.639 0 1.198.169 1.537.391l-.273.833a2.445 2.445 0 0 0-1.289-.378c-.677 0-1.041.391-1.041.859 0 .521.364.755 1.184 1.08 1.081.403 1.654.95 1.654 1.888 0 1.119-.873 1.9-2.344 1.9-.689 0-1.327-.183-1.77-.443l.274-.857z"/><g><path d="M207.797 14.696l.847 3.202c.168.703.338 1.354.455 2.004h.039c.143-.638.352-1.314.56-1.991l1.028-3.215h.963l.977 3.15c.234.755.416 1.418.56 2.056h.038c.105-.638.273-1.301.482-2.043l.898-3.163h1.132l-2.03 6.3h-1.041l-.963-3.007a21.014 21.014 0 0 1-.561-2.069h-.025a18.73 18.73 0 0 1-.573 2.083l-1.015 2.993h-1.041l-1.9-6.3h1.17zM216.921 11.755h1.145v3.943h.026c.183-.325.469-.624.819-.819a2.353 2.353 0 0 1 1.172-.312c.846 0 2.199.521 2.199 2.682v3.748h-1.145v-3.618c0-1.016-.377-1.861-1.458-1.861-.741 0-1.314.521-1.536 1.132-.064.17-.078.339-.078.547v3.801h-1.145v-9.243zM224.781 18.055c.026 1.549 1.003 2.187 2.161 2.187.819 0 1.327-.144 1.744-.325l.207.819c-.402.183-1.105.404-2.107.404-1.939 0-3.098-1.289-3.098-3.189s1.119-3.384 2.954-3.384c2.069 0 2.603 1.796 2.603 2.954 0 .234-.012.404-.039.534h-4.425zm3.359-.821c.013-.716-.3-1.848-1.588-1.848-1.172 0-1.666 1.054-1.758 1.848h3.346zM230.663 16.401c0-.664-.013-1.185-.052-1.705h1.015l.066 1.041h.025c.312-.585 1.041-1.171 2.082-1.171.873 0 2.227.521 2.227 2.682v3.748h-1.146v-3.632c0-1.015-.378-1.86-1.458-1.86-.742 0-1.328.533-1.535 1.171a1.629 1.629 0 0 0-.078.534v3.787h-1.146v-4.595zM240.646 11.755h1.146v9.241h-1.146v-9.241zM244.993 12.927c0 .39-.273.702-.729.702-.417 0-.689-.312-.689-.702 0-.391.286-.716.716-.716.415 0 .702.311.702.716zm-1.275 8.069v-6.3h1.145v6.3h-1.145zM246.607 19.838c.352.208.95.442 1.523.442.819 0 1.21-.403 1.21-.938 0-.546-.325-.833-1.159-1.146-1.145-.416-1.678-1.027-1.678-1.783 0-1.015.832-1.848 2.173-1.848.638 0 1.198.169 1.536.391l-.273.833a2.442 2.442 0 0 0-1.289-.378c-.676 0-1.041.391-1.041.859 0 .521.365.755 1.185 1.08 1.081.403 1.653.95 1.653 1.888 0 1.119-.872 1.9-2.344 1.9-.689 0-1.326-.183-1.77-.443l.274-.857zM253.296 13.187v1.51h1.641v.872h-1.641v3.397c0 .78.222 1.224.859 1.224.312 0 .494-.026.664-.078l.052.872a3.13 3.13 0 0 1-1.015.156c-.534 0-.964-.183-1.237-.482-.312-.351-.442-.911-.442-1.652v-3.437h-.977v-.872h.977v-1.171l1.119-.339zM256.784 18.055c.025 1.549 1.002 2.187 2.16 2.187.82 0 1.328-.144 1.744-.325l.209.819c-.404.183-1.106.404-2.109.404-1.939 0-3.098-1.289-3.098-3.189s1.119-3.384 2.955-3.384c2.069 0 2.604 1.796 2.604 2.954 0 .234-.014.404-.039.534h-4.426zm3.358-.821c.014-.716-.299-1.848-1.588-1.848-1.171 0-1.666 1.054-1.756 1.848h3.344zM262.667 16.401c0-.664-.014-1.185-.053-1.705h1.016l.064 1.041h.026c.312-.585 1.042-1.171 2.083-1.171.871 0 2.225.521 2.225 2.682v3.748h-1.145v-3.632c0-1.015-.377-1.86-1.458-1.86-.741 0-1.327.533-1.536 1.171a1.656 1.656 0 0 0-.078.534v3.787h-1.145v-4.595zM271.165 12.927c0 .39-.273.702-.729.702-.416 0-.689-.312-.689-.702 0-.391.286-.716.716-.716.417 0 .702.311.702.716zm-1.275 8.069v-6.3h1.146v6.3h-1.146zM272.935 16.401c0-.664-.013-1.185-.052-1.705h1.015l.066 1.041h.025c.312-.585 1.041-1.171 2.082-1.171.873 0 2.227.521 2.227 2.682v3.748h-1.146v-3.632c0-1.015-.378-1.86-1.458-1.86-.742 0-1.328.533-1.535 1.171a1.629 1.629 0 0 0-.078.534v3.787h-1.146v-4.595zM285.548 20.072c0 1.457-.301 2.329-.898 2.89-.625.56-1.51.755-2.305.755-.754 0-1.588-.183-2.096-.521l.287-.885c.416.273 1.067.508 1.848.508 1.172 0 2.031-.611 2.031-2.213v-.689h-.026c-.339.586-1.028 1.054-2.005 1.054-1.562 0-2.681-1.327-2.681-3.071 0-2.135 1.393-3.332 2.851-3.332 1.094 0 1.679.56 1.965 1.08h.026l.039-.95h1.015c-.039.442-.051.963-.051 1.718v3.656zm-1.146-2.889c0-.195-.013-.364-.064-.508-.209-.677-.756-1.224-1.602-1.224-1.093 0-1.874.925-1.874 2.382 0 1.236.638 2.265 1.861 2.265a1.65 1.65 0 0 0 1.588-1.171c.065-.195.091-.417.091-.612v-1.132z"/></g><path fill="none" stroke="#000" stroke-width=".5" d="M203.483 14.298h-4.769V33.13"/><g><path d="M15.273 62.57c0-.664-.026-1.185-.052-1.705h1.002l.052 1.028h.039c.352-.599.938-1.158 1.992-1.158.846 0 1.497.521 1.77 1.263h.026c.195-.364.456-.625.716-.82.377-.286.781-.442 1.38-.442.846 0 2.083.547 2.083 2.733v3.696H23.16v-3.554c0-1.223-.456-1.938-1.367-1.938-.664 0-1.159.481-1.367 1.027-.052.17-.091.365-.091.573v3.892h-1.119v-3.774c0-1.002-.443-1.718-1.315-1.718-.703 0-1.236.572-1.418 1.145a1.537 1.537 0 0 0-.091.561v3.787h-1.119V62.57zM31.828 63.963c0 2.33-1.627 3.346-3.137 3.346-1.692 0-3.02-1.25-3.02-3.241 0-2.096 1.393-3.332 3.124-3.332 1.81-.001 3.033 1.314 3.033 3.227zm-4.985.065c0 1.38.781 2.421 1.9 2.421 1.093 0 1.913-1.028 1.913-2.447 0-1.067-.534-2.407-1.887-2.407-1.34 0-1.926 1.249-1.926 2.433zM33.272 62.831c0-.742-.013-1.38-.052-1.966h1.002l.052 1.25h.039c.287-.847.989-1.38 1.757-1.38.117 0 .208.013.312.026v1.08c-.117-.026-.234-.026-.391-.026-.807 0-1.38.599-1.536 1.458a3.432 3.432 0 0 0-.039.533v3.358H33.27v-4.333zM38.036 64.224c.026 1.549 1.002 2.187 2.161 2.187.82 0 1.328-.144 1.744-.325l.208.819c-.403.183-1.106.404-2.108.404-1.939 0-3.098-1.289-3.098-3.189s1.119-3.384 2.955-3.384c2.069 0 2.603 1.796 2.603 2.954a2.8 2.8 0 0 1-.039.534h-4.426zm3.358-.821c.013-.716-.299-1.848-1.588-1.848-1.171 0-1.666 1.054-1.757 1.848h3.345zM48.057 59.355v1.51h1.64v.872h-1.64v3.397c0 .78.222 1.224.859 1.224.312 0 .495-.026.664-.078l.052.872a3.126 3.126 0 0 1-1.015.156c-.534 0-.963-.183-1.237-.482-.312-.351-.442-.911-.442-1.652v-3.437h-.976v-.872h.976v-1.171l1.119-.339zM50.985 57.924h1.146v3.943h.026c.182-.325.469-.624.82-.819a2.35 2.35 0 0 1 1.171-.312c.846 0 2.2.521 2.2 2.682v3.748h-1.145v-3.618c0-1.016-.378-1.861-1.458-1.861-.742 0-1.314.521-1.536 1.132-.065.17-.078.339-.078.547v3.801h-1.146v-9.243zM62.634 65.655c0 .547.026 1.08.091 1.51h-1.028l-.091-.794h-.039c-.351.494-1.028.938-1.926.938-1.275 0-1.926-.898-1.926-1.81 0-1.522 1.354-2.355 3.788-2.343v-.13c0-.508-.143-1.458-1.432-1.445-.599 0-1.21.17-1.653.469l-.26-.768c.521-.326 1.289-.547 2.083-.547 1.926 0 2.395 1.314 2.395 2.564v2.356zm-1.107-1.705c-1.25-.026-2.668.195-2.668 1.419 0 .755.495 1.093 1.067 1.093.833 0 1.366-.521 1.549-1.054.039-.131.052-.261.052-.364V63.95zM64.482 62.57c0-.664-.013-1.185-.052-1.705h1.015l.065 1.041h.026c.312-.585 1.042-1.171 2.083-1.171.872 0 2.226.521 2.226 2.682v3.748H68.7v-3.632c0-1.015-.377-1.86-1.458-1.86-.742 0-1.328.533-1.536 1.171a1.656 1.656 0 0 0-.078.534v3.787h-1.146V62.57zM74.372 65.863c.326.195 1.067.521 1.875.521 1.458 0 1.926-.924 1.913-1.64-.013-1.185-1.08-1.692-2.187-1.692h-.638v-.858h.638c.833 0 1.887-.43 1.887-1.432 0-.677-.429-1.276-1.484-1.276-.677 0-1.328.3-1.692.561l-.312-.833c.456-.326 1.315-.651 2.226-.651 1.666 0 2.421.989 2.421 2.018 0 .885-.534 1.627-1.562 2.004v.026c1.041.195 1.874.977 1.887 2.161 0 1.354-1.067 2.538-3.085 2.538-.95 0-1.783-.3-2.199-.573l.312-.874zM86.412 62.844c0 2.877-1.081 4.465-2.942 4.465-1.653 0-2.785-1.549-2.811-4.348 0-2.851 1.236-4.399 2.955-4.399 1.77 0 2.798 1.587 2.798 4.282zm-4.595.13c0 2.2.677 3.449 1.718 3.449 1.158 0 1.718-1.366 1.718-3.527 0-2.082-.521-3.449-1.718-3.449-.989-.001-1.718 1.223-1.718 3.527zM90.419 66.007c.352.208.95.442 1.523.442.82 0 1.21-.403 1.21-.938 0-.546-.326-.833-1.159-1.146-1.145-.416-1.679-1.027-1.679-1.783 0-1.015.833-1.848 2.173-1.848.638 0 1.198.169 1.536.391l-.273.833a2.442 2.442 0 0 0-1.289-.378c-.677 0-1.041.391-1.041.859 0 .521.364.755 1.184 1.08 1.081.403 1.653.95 1.653 1.888 0 1.119-.872 1.9-2.343 1.9-.69 0-1.328-.183-1.771-.443l.276-.857zM96.367 64.224c.026 1.549 1.002 2.187 2.161 2.187.82 0 1.328-.144 1.744-.325l.208.819c-.403.183-1.106.404-2.108.404-1.939 0-3.098-1.289-3.098-3.189s1.119-3.384 2.955-3.384c2.069 0 2.603 1.796 2.603 2.954a2.8 2.8 0 0 1-.039.534h-4.426zm3.358-.821c.013-.716-.299-1.848-1.588-1.848-1.171 0-1.666 1.054-1.757 1.848h3.345zM106.74 66.943c-.299.144-.963.365-1.809.365-1.9 0-3.137-1.289-3.137-3.215 0-1.939 1.328-3.358 3.384-3.358.677 0 1.275.169 1.588.338l-.26.872c-.273-.143-.703-.299-1.328-.299-1.445 0-2.226 1.08-2.226 2.382 0 1.458.938 2.355 2.187 2.355.65 0 1.08-.156 1.405-.299l.196.859zM113.703 63.963c0 2.33-1.627 3.346-3.137 3.346-1.692 0-3.02-1.25-3.02-3.241 0-2.096 1.393-3.332 3.124-3.332 1.81-.001 3.033 1.314 3.033 3.227zm-4.985.065c0 1.38.781 2.421 1.9 2.421 1.093 0 1.913-1.028 1.913-2.447 0-1.067-.534-2.407-1.887-2.407-1.34 0-1.926 1.249-1.926 2.433zM115.148 62.57c0-.664-.013-1.185-.052-1.705h1.015l.065 1.041h.026c.312-.585 1.042-1.171 2.083-1.171.872 0 2.226.521 2.226 2.682v3.748h-1.145v-3.632c0-1.015-.377-1.86-1.458-1.86-.742 0-1.328.533-1.536 1.171a1.656 1.656 0 0 0-.078.534v3.787h-1.146V62.57zM127.799 57.924v7.614c0 .56.026 1.197.052 1.627h-1.015l-.052-1.094h-.039c-.338.703-1.093 1.237-2.122 1.237-1.522 0-2.707-1.289-2.707-3.202-.013-2.096 1.302-3.371 2.824-3.371.977 0 1.614.455 1.9.95h.026v-3.762h1.133zm-1.133 5.506c0-.144-.013-.339-.052-.481a1.686 1.686 0 0 0-1.653-1.314c-1.185 0-1.888 1.041-1.888 2.421 0 1.275.638 2.329 1.861 2.329.768 0 1.471-.521 1.679-1.366a1.99 1.99 0 0 0 .052-.495V63.43zM129.555 66.007c.352.208.95.442 1.523.442.82 0 1.21-.403 1.21-.938 0-.546-.326-.833-1.159-1.146-1.145-.416-1.679-1.027-1.679-1.783 0-1.015.833-1.848 2.173-1.848.638 0 1.198.169 1.536.391l-.273.833a2.442 2.442 0 0 0-1.289-.378c-.677 0-1.041.391-1.041.859 0 .521.364.755 1.184 1.08 1.081.403 1.653.95 1.653 1.888 0 1.119-.872 1.9-2.343 1.9-.69 0-1.328-.183-1.771-.443l.276-.857z"/></g><g><path d="M20.973 73.985c0 2.33-1.627 3.346-3.137 3.346-1.692 0-3.02-1.25-3.02-3.241 0-2.096 1.393-3.332 3.124-3.332 1.81 0 3.033 1.314 3.033 3.227zm-4.984.066c0 1.38.781 2.421 1.9 2.421 1.093 0 1.913-1.028 1.913-2.447 0-1.067-.534-2.407-1.887-2.407-1.341-.001-1.926 1.248-1.926 2.433zM22.418 72.593c0-.664-.013-1.185-.052-1.705h1.015l.065 1.041h.026c.312-.585 1.042-1.171 2.083-1.171.872 0 2.226.521 2.226 2.682v3.748h-1.145v-3.632c0-1.015-.378-1.86-1.458-1.86-.742 0-1.328.533-1.536 1.171a1.656 1.656 0 0 0-.078.534v3.787h-1.146v-4.595zM38.556 76.914c-.403.208-1.25.417-2.317.417-2.473 0-4.321-1.562-4.321-4.452 0-2.759 1.861-4.607 4.582-4.607 1.08 0 1.783.234 2.083.391l-.287.924c-.417-.208-1.028-.364-1.757-.364-2.057 0-3.423 1.314-3.423 3.618 0 2.161 1.236 3.527 3.358 3.527.703 0 1.406-.143 1.861-.364l.221.91zM42.018 69.378H39.35v-.963h6.495v.963h-2.681v7.81h-1.146v-7.81zM53.159 76.797a7.937 7.937 0 0 1-2.707.481c-1.328 0-2.421-.338-3.28-1.158-.755-.729-1.223-1.9-1.223-3.267 0-2.616 1.809-4.529 4.75-4.529 1.015 0 1.822.221 2.2.403l-.286.924c-.469-.222-1.055-.378-1.939-.378-2.135 0-3.527 1.328-3.527 3.527 0 2.227 1.328 3.541 3.384 3.541.742 0 1.25-.104 1.51-.234v-2.616h-1.77v-.911h2.889v4.217z"/></g><path fill="none" stroke="#000" stroke-width=".901" d="M134.784 66.348l30.28 39.892"/><path fill="none" stroke="#000" stroke-width=".5" d="M80.794 34.585l25.055 11.557"/><g><path d="M114.501 144.222c-.299.144-.963.365-1.809.365-1.9 0-3.137-1.289-3.137-3.215 0-1.939 1.328-3.358 3.384-3.358.677 0 1.275.169 1.588.338l-.261.872c-.273-.143-.703-.299-1.327-.299-1.445 0-2.226 1.08-2.226 2.382 0 1.458.938 2.355 2.187 2.355.65 0 1.08-.156 1.405-.299l.196.859zM121.464 141.241c0 2.33-1.627 3.346-3.137 3.346-1.692 0-3.02-1.25-3.02-3.241 0-2.096 1.393-3.332 3.124-3.332 1.81 0 3.033 1.314 3.033 3.227zm-4.985.066c0 1.38.781 2.421 1.9 2.421 1.093 0 1.913-1.028 1.913-2.447 0-1.067-.534-2.407-1.887-2.407-1.34-.001-1.926 1.248-1.926 2.433zM122.909 139.849c0-.664-.013-1.185-.052-1.705h1.015l.065 1.041h.026c.312-.585 1.042-1.171 2.083-1.171.872 0 2.226.521 2.226 2.682v3.748h-1.145v-3.632c0-1.015-.378-1.86-1.458-1.86-.742 0-1.328.533-1.536 1.171a1.656 1.656 0 0 0-.078.534v3.787h-1.146v-4.595zM131.459 136.634v1.51h1.64v.872h-1.64v3.397c0 .78.222 1.224.859 1.224.312 0 .495-.026.664-.078l.052.872a3.126 3.126 0 0 1-1.015.156c-.534 0-.963-.183-1.237-.482-.312-.351-.442-.911-.442-1.652v-3.437h-.976v-.872h.976v-1.171l1.119-.339zM134.388 140.109c0-.742-.013-1.38-.052-1.966h1.002l.052 1.25h.039c.287-.847.989-1.38 1.757-1.38.117 0 .208.013.312.026v1.08c-.117-.026-.234-.026-.391-.026-.807 0-1.379.599-1.536 1.458a3.432 3.432 0 0 0-.039.533v3.358h-1.146v-4.333zM143.004 142.934c0 .547.026 1.08.091 1.51h-1.028l-.091-.794h-.039c-.351.494-1.028.938-1.926.938-1.275 0-1.926-.898-1.926-1.81 0-1.522 1.354-2.355 3.788-2.343v-.13c0-.508-.143-1.458-1.432-1.445-.599 0-1.21.17-1.653.469l-.26-.768c.521-.326 1.289-.547 2.083-.547 1.926 0 2.395 1.314 2.395 2.564v2.356zm-1.107-1.705c-1.25-.026-2.668.195-2.668 1.419 0 .755.495 1.093 1.067 1.093.833 0 1.366-.521 1.549-1.054.039-.131.052-.261.052-.364v-1.094zM149.342 144.222c-.299.144-.963.365-1.809.365-1.9 0-3.137-1.289-3.137-3.215 0-1.939 1.328-3.358 3.384-3.358.677 0 1.275.169 1.588.338l-.261.872c-.273-.143-.703-.299-1.327-.299-1.445 0-2.226 1.08-2.226 2.382 0 1.458.938 2.355 2.187 2.355.65 0 1.08-.156 1.405-.299l.196.859zM152.231 136.634v1.51h1.64v.872h-1.64v3.397c0 .78.222 1.224.859 1.224.312 0 .495-.026.664-.078l.052.872a3.126 3.126 0 0 1-1.015.156c-.534 0-.963-.183-1.237-.482-.312-.351-.442-.911-.442-1.652v-3.437h-.976v-.872h.976v-1.171l1.119-.339zM156.434 136.374c0 .39-.273.702-.729.702-.417 0-.689-.312-.689-.702 0-.391.286-.716.716-.716.416 0 .702.312.702.716zm-1.275 8.069v-6.3h1.146v6.3h-1.146zM163.906 141.241c0 2.33-1.627 3.346-3.137 3.346-1.692 0-3.02-1.25-3.02-3.241 0-2.096 1.393-3.332 3.124-3.332 1.809 0 3.033 1.314 3.033 3.227zm-4.986.066c0 1.38.781 2.421 1.9 2.421 1.093 0 1.913-1.028 1.913-2.447 0-1.067-.534-2.407-1.887-2.407-1.34-.001-1.926 1.248-1.926 2.433zM165.35 139.849c0-.664-.013-1.185-.052-1.705h1.015l.065 1.041h.025c.312-.585 1.042-1.171 2.083-1.171.872 0 2.226.521 2.226 2.682v3.748h-1.145v-3.632c0-1.015-.378-1.86-1.459-1.86-.741 0-1.327.533-1.535 1.171a1.629 1.629 0 0 0-.078.534v3.787h-1.146v-4.595z"/></g><g><path d="M.794 169.622c.352.208.95.442 1.523.442.82 0 1.21-.403 1.21-.938 0-.546-.326-.833-1.159-1.146-1.145-.416-1.679-1.027-1.679-1.783 0-1.015.833-1.848 2.173-1.848.638 0 1.198.169 1.536.391l-.273.833a2.442 2.442 0 0 0-1.289-.378c-.677 0-1.041.391-1.041.859 0 .521.364.755 1.184 1.08 1.081.403 1.653.95 1.653 1.888 0 1.119-.872 1.9-2.343 1.9-.69 0-1.328-.183-1.771-.443l.276-.857zM7.483 162.971v1.51h1.64v.872h-1.64v3.397c0 .78.222 1.224.859 1.224.312 0 .495-.026.664-.078l.052.872a3.126 3.126 0 0 1-1.015.156c-.534 0-.963-.183-1.237-.482-.312-.351-.442-.911-.442-1.652v-3.437h-.976v-.872h.976v-1.171l1.119-.339zM14.837 169.271c0 .547.026 1.08.091 1.51H13.9l-.091-.794h-.039c-.351.494-1.028.938-1.926.938-1.275 0-1.926-.898-1.926-1.81 0-1.522 1.354-2.355 3.788-2.343v-.13c0-.508-.143-1.458-1.432-1.445-.599 0-1.21.17-1.653.469l-.26-.768c.521-.326 1.289-.547 2.083-.547 1.926 0 2.395 1.314 2.395 2.564v2.356zm-1.106-1.706c-1.25-.026-2.668.195-2.668 1.419 0 .755.495 1.093 1.067 1.093.833 0 1.366-.521 1.549-1.054.039-.131.052-.261.052-.364v-1.094zM16.685 166.446c0-.742-.013-1.38-.052-1.966h1.002l.052 1.25h.039c.287-.847.989-1.38 1.757-1.38.117 0 .208.013.312.026v1.08c-.117-.026-.234-.026-.391-.026-.807 0-1.38.599-1.536 1.458a3.432 3.432 0 0 0-.039.533v3.358h-1.146v-4.333zM22.632 162.971v1.51h1.64v.872h-1.64v3.397c0 .78.222 1.224.859 1.224.312 0 .495-.026.664-.078l.052.872a3.126 3.126 0 0 1-1.015.156c-.534 0-.963-.183-1.237-.482-.312-.351-.442-.911-.442-1.652v-3.437h-.976v-.872h.976v-1.171l1.119-.339zM34.02 167.578c0 2.33-1.627 3.346-3.137 3.346-1.692 0-3.02-1.25-3.02-3.241 0-2.096 1.393-3.332 3.124-3.332 1.81 0 3.033 1.314 3.033 3.227zm-4.985.066c0 1.38.781 2.421 1.9 2.421 1.093 0 1.913-1.028 1.913-2.447 0-1.067-.534-2.407-1.887-2.407-1.34-.001-1.926 1.248-1.926 2.433zM35.582 170.78v-5.428h-.872v-.872h.872v-.299c0-.886.208-1.692.729-2.2.429-.416 1.002-.586 1.536-.586.417 0 .755.092.976.183l-.156.885a1.666 1.666 0 0 0-.729-.143c-.977 0-1.224.846-1.224 1.822v.338h1.523v.872h-1.523v5.428h-1.132zM46.514 170.559c-.299.144-.963.365-1.809.365-1.9 0-3.137-1.289-3.137-3.215 0-1.939 1.328-3.358 3.384-3.358.677 0 1.275.169 1.588.338l-.261.872c-.273-.143-.703-.299-1.327-.299-1.445 0-2.226 1.08-2.226 2.382 0 1.458.938 2.355 2.187 2.355.65 0 1.08-.156 1.405-.299l.196.859zM53.477 167.578c0 2.33-1.627 3.346-3.137 3.346-1.692 0-3.02-1.25-3.02-3.241 0-2.096 1.393-3.332 3.124-3.332 1.81 0 3.033 1.314 3.033 3.227zm-4.985.066c0 1.38.781 2.421 1.9 2.421 1.093 0 1.913-1.028 1.913-2.447 0-1.067-.534-2.407-1.887-2.407-1.34-.001-1.926 1.248-1.926 2.433zM54.922 166.186c0-.664-.013-1.185-.052-1.705h1.015l.065 1.041h.026c.312-.585 1.042-1.171 2.083-1.171.872 0 2.226.521 2.226 2.682v3.748H59.14v-3.632c0-1.015-.377-1.86-1.458-1.86-.742 0-1.328.533-1.536 1.171a1.656 1.656 0 0 0-.078.534v3.787h-1.146v-4.595zM63.472 162.971v1.51h1.64v.872h-1.64v3.397c0 .78.222 1.224.859 1.224.312 0 .495-.026.664-.078l.052.872a3.126 3.126 0 0 1-1.015.156c-.534 0-.963-.183-1.237-.482-.312-.351-.442-.911-.442-1.652v-3.437h-.976v-.872h.976v-1.171l1.119-.339zM66.401 166.446c0-.742-.013-1.38-.052-1.966h1.002l.052 1.25h.039c.287-.847.989-1.38 1.757-1.38.117 0 .208.013.312.026v1.08c-.117-.026-.234-.026-.391-.026-.807 0-1.38.599-1.536 1.458a3.432 3.432 0 0 0-.039.533v3.358h-1.146v-4.333zM75.017 169.271c0 .547.026 1.08.091 1.51H74.08l-.091-.794h-.039c-.351.494-1.028.938-1.926.938-1.275 0-1.926-.898-1.926-1.81 0-1.522 1.354-2.355 3.788-2.343v-.13c0-.508-.143-1.458-1.432-1.445-.599 0-1.21.17-1.653.469l-.26-.768c.521-.326 1.289-.547 2.083-.547 1.926 0 2.395 1.314 2.395 2.564v2.356zm-1.107-1.706c-1.25-.026-2.668.195-2.668 1.419 0 .755.495 1.093 1.067 1.093.833 0 1.366-.521 1.549-1.054.039-.131.052-.261.052-.364v-1.094zM81.355 170.559c-.299.144-.963.365-1.809.365-1.9 0-3.137-1.289-3.137-3.215 0-1.939 1.328-3.358 3.384-3.358.677 0 1.275.169 1.588.338l-.26.872c-.273-.143-.703-.299-1.328-.299-1.445 0-2.226 1.08-2.226 2.382 0 1.458.938 2.355 2.187 2.355.65 0 1.08-.156 1.405-.299l.196.859zM84.244 162.971v1.51h1.64v.872h-1.64v3.397c0 .78.222 1.224.859 1.224.312 0 .495-.026.664-.078l.052.872a3.126 3.126 0 0 1-1.015.156c-.534 0-.963-.183-1.237-.482-.312-.351-.442-.911-.442-1.652v-3.437h-.976v-.872h.976v-1.171l1.119-.339zM88.448 162.711c0 .39-.273.702-.729.702-.417 0-.689-.312-.689-.702 0-.391.286-.716.716-.716.415 0 .702.312.702.716zm-1.276 8.069v-6.3h1.146v6.3h-1.146zM95.918 167.578c0 2.33-1.627 3.346-3.137 3.346-1.692 0-3.02-1.25-3.02-3.241 0-2.096 1.393-3.332 3.124-3.332 1.81 0 3.033 1.314 3.033 3.227zm-4.985.066c0 1.38.781 2.421 1.9 2.421 1.093 0 1.913-1.028 1.913-2.447 0-1.067-.534-2.407-1.887-2.407-1.34-.001-1.926 1.248-1.926 2.433zM97.363 166.186c0-.664-.013-1.185-.052-1.705h1.015l.065 1.041h.026c.312-.585 1.042-1.171 2.083-1.171.872 0 2.226.521 2.226 2.682v3.748h-1.145v-3.632c0-1.015-.378-1.86-1.458-1.86-.742 0-1.328.533-1.536 1.171a1.656 1.656 0 0 0-.078.534v3.787h-1.146v-4.595z"/></g><g><path d="M192.423 169.467c.025 1.549 1.002 2.187 2.16 2.187.82 0 1.328-.144 1.744-.325l.208.819c-.403.183-1.106.404-2.108.404-1.939 0-3.098-1.289-3.098-3.189s1.119-3.384 2.955-3.384c2.068 0 2.603 1.796 2.603 2.954a2.8 2.8 0 0 1-.039.534h-4.425zm3.358-.821c.014-.716-.299-1.848-1.588-1.848-1.172 0-1.666 1.054-1.757 1.848h3.345zM198.306 167.813c0-.664-.014-1.185-.053-1.705h1.016l.064 1.041h.026c.312-.585 1.042-1.171 2.083-1.171.871 0 2.225.521 2.225 2.682v3.748h-1.145v-3.632c0-1.015-.377-1.86-1.458-1.86-.741 0-1.327.533-1.536 1.171a1.656 1.656 0 0 0-.078.534v3.787h-1.145v-4.595zM210.956 163.167v7.614c0 .56.025 1.197.052 1.627h-1.015l-.053-1.094h-.039c-.338.703-1.094 1.237-2.121 1.237-1.523 0-2.707-1.289-2.707-3.202-.014-2.096 1.301-3.371 2.824-3.371.977 0 1.613.455 1.9.95h.025v-3.762h1.134zm-1.133 5.506c0-.144-.013-.339-.052-.481a1.686 1.686 0 0 0-1.653-1.314c-1.184 0-1.887 1.041-1.887 2.421 0 1.275.637 2.329 1.861 2.329.768 0 1.471-.521 1.679-1.366a1.99 1.99 0 0 0 .052-.495v-1.094zM221.328 169.206c0 2.33-1.627 3.346-3.137 3.346-1.692 0-3.02-1.25-3.02-3.241 0-2.096 1.393-3.332 3.124-3.332 1.81 0 3.033 1.314 3.033 3.227zm-4.985.065c0 1.38.781 2.421 1.9 2.421 1.094 0 1.914-1.028 1.914-2.447 0-1.067-.534-2.407-1.888-2.407-1.34 0-1.926 1.249-1.926 2.433zM222.89 172.408v-5.428h-.871v-.872h.871v-.299c0-.886.209-1.692.729-2.2.429-.416 1.002-.586 1.536-.586.416 0 .754.092.976.183l-.156.885a1.666 1.666 0 0 0-.729-.143c-.977 0-1.224.846-1.224 1.822v.338h1.523v.872h-1.523v5.428h-1.132zM233.823 172.187c-.3.144-.963.365-1.81.365-1.9 0-3.137-1.289-3.137-3.215 0-1.939 1.328-3.358 3.385-3.358.677 0 1.275.169 1.588.338l-.26.872c-.273-.143-.703-.299-1.328-.299-1.445 0-2.227 1.08-2.227 2.382 0 1.458.938 2.355 2.188 2.355.65 0 1.08-.156 1.405-.299l.196.859zM240.785 169.206c0 2.33-1.627 3.346-3.137 3.346-1.692 0-3.02-1.25-3.02-3.241 0-2.096 1.393-3.332 3.124-3.332 1.81 0 3.033 1.314 3.033 3.227zm-4.985.065c0 1.38.781 2.421 1.9 2.421 1.094 0 1.914-1.028 1.914-2.447 0-1.067-.534-2.407-1.888-2.407-1.34 0-1.926 1.249-1.926 2.433zM242.23 167.813c0-.664-.014-1.185-.053-1.705h1.016l.065 1.041h.026c.312-.585 1.041-1.171 2.082-1.171.872 0 2.226.521 2.226 2.682v3.748h-1.146v-3.632c0-1.015-.377-1.86-1.457-1.86-.742 0-1.328.533-1.536 1.171a1.656 1.656 0 0 0-.078.534v3.787h-1.146v-4.595zM250.781 164.599v1.51h1.641v.872h-1.641v3.397c0 .78.222 1.224.859 1.224.312 0 .494-.026.664-.078l.052.872a3.13 3.13 0 0 1-1.015.156c-.534 0-.964-.183-1.237-.482-.312-.351-.442-.911-.442-1.652v-3.437h-.977v-.872h.977v-1.171l1.119-.339zM253.708 168.074c0-.742-.013-1.38-.052-1.966h1.003l.051 1.25h.039c.287-.847.99-1.38 1.758-1.38.117 0 .209.013.312.026v1.08c-.117-.026-.234-.026-.391-.026-.807 0-1.379.599-1.535 1.458a3.313 3.313 0 0 0-.039.533v3.358h-1.146v-4.333zM262.325 170.898c0 .547.025 1.08.091 1.51h-1.028l-.092-.794h-.039c-.352.494-1.027.938-1.926.938-1.275 0-1.926-.898-1.926-1.81 0-1.522 1.354-2.355 3.787-2.343v-.13c0-.508-.143-1.458-1.432-1.445-.599 0-1.211.17-1.653.469l-.261-.768c.521-.326 1.289-.547 2.083-.547 1.927 0 2.396 1.314 2.396 2.564v2.356zm-1.107-1.705c-1.249-.026-2.668.195-2.668 1.419 0 .755.495 1.093 1.068 1.093.832 0 1.365-.521 1.549-1.054.039-.131.051-.261.051-.364v-1.094zM268.663 172.187c-.299.144-.963.365-1.809.365-1.9 0-3.137-1.289-3.137-3.215 0-1.939 1.327-3.358 3.384-3.358.677 0 1.275.169 1.588.338l-.261.872c-.273-.143-.703-.299-1.327-.299-1.444 0-2.226 1.08-2.226 2.382 0 1.458.938 2.355 2.187 2.355.65 0 1.08-.156 1.405-.299l.196.859zM271.552 164.599v1.51h1.641v.872h-1.641v3.397c0 .78.222 1.224.859 1.224.312 0 .494-.026.664-.078l.052.872a3.13 3.13 0 0 1-1.015.156c-.534 0-.964-.183-1.237-.482-.312-.351-.442-.911-.442-1.652v-3.437h-.977v-.872h.977v-1.171l1.119-.339zM275.755 164.339c0 .39-.273.702-.729.702-.416 0-.689-.312-.689-.702 0-.391.286-.716.716-.716.417 0 .702.312.702.716zm-1.275 8.069v-6.3h1.146v6.3h-1.146zM283.226 169.206c0 2.33-1.627 3.346-3.137 3.346-1.691 0-3.02-1.25-3.02-3.241 0-2.096 1.393-3.332 3.124-3.332 1.81 0 3.033 1.314 3.033 3.227zm-4.985.065c0 1.38.781 2.421 1.9 2.421 1.094 0 1.913-1.028 1.913-2.447 0-1.067-.534-2.407-1.888-2.407-1.339 0-1.925 1.249-1.925 2.433zM284.671 167.813c0-.664-.014-1.185-.053-1.705h1.016l.065 1.041h.026c.312-.585 1.041-1.171 2.082-1.171.872 0 2.226.521 2.226 2.682v3.748h-1.146v-3.632c0-1.015-.377-1.86-1.457-1.86-.742 0-1.328.533-1.536 1.171a1.656 1.656 0 0 0-.078.534v3.787h-1.146v-4.595z"/></g><path stroke="#000" stroke-width=".055" stroke-linecap="round" stroke-linejoin="round" d="M106.738 46.304l-8.565-8.648c.483 3.071-.405 5.335-3.314 6.789l11.879 1.859zM170.058 112.731l-4.687-11.233c-.81 3.069-2.426 4.769-5.739 5.092l10.426 6.141zM198.391 36.283l4.042-11.477c-2.588 1.778-4.932 1.939-7.599 0l3.557 11.477zM185.056 147.656l.809 12.122c1.696-2.665 3.799-3.717 7.031-2.989l-7.84-9.133z"/><path stroke="#000" stroke-width=".054" stroke-linecap="round" stroke-linejoin="round" d="M84.592 147.576l-9.698 7.272c3.152 0 5.173 1.213 6.304 4.282l3.394-11.554z"/><path fill="none" stroke="#000" stroke-width=".5" d="M186.268 150.241l5.172 14.63M83.866 149.11l-10.103 12.043"/></svg>