<svg version="1.1" id="Layer_1" xmlns="http://www.w3.org/2000/svg" x="0" y="0" viewBox="0 0 407.5 56.7" xml:space="preserve"><style type="text/css">.st0,.st1{fill:none;stroke:#000;stroke-width:1.4173;stroke-miterlimit:10}.st1{stroke-width:.4191;stroke-linejoin:round}</style><path class="st0" d="M0 0h407.5v56.7H0z"/><path d="M52.8-65.5l.2.3c-.8.6-1.6 1.5-2.6 2.7s-1.7 2.3-2.1 3.4l-.4.3c-.3.2-.6.4-.7.5 0-.2-.1-.4-.3-.8l-.2-.3c-.2-.5-.4-.9-.6-1.1-.2-.2-.4-.4-.6-.5.4-.4.7-.6 1.1-.6.3 0 .6.4.9 1.1l.2.4c.6-1 1.4-2 2.3-3 1-1.1 1.9-1.9 2.8-2.4z"/><path class="st1" d="M142.3 20c0-2.2 1.9-4.2 4.2-4.2h60.1c2.2 0 4.2 1.9 4.2 4.2v16.7c0 2.2-1.9 4.2-4.2 4.2h-60.1c-2.2 0-4.2-1.9-4.2-4.2V20zM226.5 19.7c0-2.6 1.9-4.5 4.5-4.5h75.5c2.2 0 4.5 1.9 4.5 4.5V37c0 2.2-1.9 4.5-4.5 4.5H231c-2.6 0-4.5-1.9-4.5-4.5V19.7zM320.7 20c0-2.2 1.9-4.2 4.2-4.2H385c2.2 0 4.2 1.9 4.2 4.2v16.7c0 2.2-1.9 4.2-4.2 4.2h-60.1c-2.2 0-4.2-1.9-4.2-4.2V20z"/><path d="M20.2 23.8v3.1h3.6v-3.1h1v7.4h-1v-3.5h-3.6v3.5h-1v-7.4h1zM27.2 23.8v7.4h-1v-7.4h1zM30.4 31.2L28 23.8h1l1.2 3.7c.3 1 .6 1.9.8 2.8.2-.9.5-1.8.8-2.8l1.3-3.7h1l-2.7 7.4h-1zM37 27.5v-1.7h.8v1c.2-.7.8-1.2 1.5-1.2h.3v.9h-.3c-.7 0-1.2.5-1.3 1.2V31h-1v-3.5zM40.9 28.7c0 1.3.9 1.8 1.8 1.8.7 0 1.1-.1 1.5-.3l.2.7c-.3.2-.9.3-1.8.3-1.6 0-2.6-1.1-2.6-2.7s.9-2.9 2.5-2.9c1.7 0 2.2 1.5 2.2 2.5v.5h-3.8zm2.9-.7c0-.6-.3-1.6-1.3-1.6s-1.4.9-1.5 1.6h2.8zM47 24.3v1.5h1.4v.7H47v2.9c0 .7.2 1 .7 1 .3 0 .4 0 .6-.1v.7c-.2.1-.5.1-.9.1-.5 0-.8-.1-1-.4-.3-.3-.4-.8-.4-1.4v-2.9h-.8v-.7h.8v-1.3l1-.1zM49.8 28.7c0 1.3.9 1.8 1.8 1.8.7 0 1.1-.1 1.5-.3l.2.7c-.3.2-.9.3-1.8.3-1.6 0-2.6-1.1-2.6-2.7s.9-2.9 2.5-2.9c1.7 0 2.2 1.5 2.2 2.5v.5h-3.8zm2.8-.7c0-.6-.3-1.6-1.3-1.6s-1.4.9-1.5 1.6h2.8zM54.5 30.2c.3.2.8.4 1.3.4.7 0 1-.4 1-.8 0-.5-.3-.7-1-1-1-.3-1.4-.9-1.4-1.5 0-.9.7-1.6 1.8-1.6.5 0 1 .2 1.3.3l-.2.7c-.2-.1-.6-.3-1.1-.3-.6 0-.9.3-.9.7 0 .4.3.6 1 .9.9.4 1.4.8 1.4 1.6 0 .9-.7 1.6-2 1.6-.6 0-1.1-.1-1.5-.4l.3-.6zM60.1 24.3v1.5h1.4v.7h-1.4v2.9c0 .7.2 1 .7 1 .3 0 .4 0 .6-.1v.7c-.2.1-.5.1-.9.1-.5 0-.8-.1-1-.4-.3-.3-.4-.8-.4-1.4v-2.9h-.8v-.7h.8v-1.3l1-.1zM67.6 31.2l-.1-.7c-.3.4-.9.8-1.6.8-1.1 0-1.6-.8-1.6-1.5 0-1.3 1.1-2 3.2-2v-.1c0-.4-.1-1.2-1.2-1.2-.5 0-1 .2-1.4.4l-.2-.6c.4-.3 1.1-.5 1.7-.5 1.6 0 2 1.1 2 2.2v2c0 .5 0 .9.1 1.3h-.9zm-.1-2.7c-1.1 0-2.3.2-2.3 1.2 0 .6.4.9.9.9.7 0 1.1-.4 1.3-.9 0-.1.1-.2.1-.3v-.9zM71 24.3v1.5h1.4v.7H71v2.9c0 .7.2 1 .7 1 .3 0 .4 0 .6-.1v.7c-.2.1-.5.1-.9.1-.5 0-.8-.1-1-.4-.3-.3-.4-.8-.4-1.4v-2.9h-.8v-.7h.8v-1.3l1-.1zM75.2 31.2v-.6l.8-.7c1.8-1.7 2.7-2.7 2.7-3.7 0-.7-.4-1.4-1.4-1.4-.6 0-1.2.3-1.5.6l-.3-.7c.5-.4 1.2-.7 2-.7 1.5 0 2.2 1.1 2.2 2.1 0 1.3-1 2.4-2.5 3.8l-.6.5h3.2v.8h-4.6zM85.5 27.5c0 2.4-.9 3.8-2.5 3.8-1.4 0-2.3-1.3-2.4-3.7 0-2.4 1-3.7 2.5-3.7 1.6 0 2.4 1.4 2.4 3.6zm-3.9.2c0 1.9.6 2.9 1.5 2.9 1 0 1.5-1.2 1.5-3s-.5-2.9-1.5-2.9c-.8 0-1.5 1-1.5 3zM89.2 25.9l.7 2.7c.2.6.3 1.1.4 1.7.1-.5.3-1.1.5-1.7l.9-2.7h.8l.8 2.7c.2.6.4 1.2.5 1.7.1-.5.2-1.1.4-1.7l.8-2.7h1l-1.7 5.3h-.9l-.8-2.5c-.2-.6-.3-1.1-.5-1.7-.1.6-.3 1.2-.5 1.8l-.9 2.5h-.9L88.2 26h1zM97.3 28.7c0 1.3.9 1.8 1.8 1.8.7 0 1.1-.1 1.5-.3l.2.7c-.3.2-.9.3-1.8.3-1.6 0-2.6-1.1-2.6-2.7s.9-2.9 2.5-2.9c1.7 0 2.2 1.5 2.2 2.5v.5h-3.8zm2.8-.7c0-.6-.3-1.6-1.3-1.6s-1.4.9-1.5 1.6h2.8zM102.7 28.7c0 1.3.9 1.8 1.8 1.8.7 0 1.1-.1 1.5-.3l.2.7c-.3.2-.9.3-1.8.3-1.6 0-2.6-1.1-2.6-2.7s.9-2.9 2.5-2.9c1.7 0 2.2 1.5 2.2 2.5v.5h-3.8zm2.8-.7c0-.6-.3-1.6-1.3-1.6s-1.4.9-1.5 1.6h2.8zM108.5 28.3c.2-.2.3-.4.5-.6l1.6-1.8h1.2l-2.1 2.2 2.3 3.1h-1.2l-1.8-2.6-.5.5v2h-1v-7.8h1v5zM112.4 30.2c.3.2.8.4 1.3.4.7 0 1-.4 1-.8 0-.5-.3-.7-1-1-1-.3-1.4-.9-1.4-1.5 0-.9.7-1.6 1.8-1.6.5 0 1 .2 1.3.3l-.2.7c-.2-.1-.6-.3-1.1-.3-.6 0-.9.3-.9.7 0 .4.3.6 1 .9.9.4 1.4.8 1.4 1.6 0 .9-.7 1.6-2 1.6-.6 0-1.1-.1-1.5-.4l.3-.6zM116.6 26.8c0-.4.3-.7.7-.7.4 0 .6.3.6.7 0 .4-.3.7-.7.7-.4-.1-.6-.4-.6-.7zm0 3.8c0-.4.3-.7.7-.7.4 0 .6.3.6.7 0 .4-.3.7-.7.7-.4 0-.6-.3-.6-.7z"/><g><path d="M166.9 23.9c.5-.1 1.2-.2 1.8-.2 1 0 1.7.2 2.1.6.4.3.6.8.6 1.4 0 1-.6 1.6-1.4 1.9.6.2.9.7 1.1 1.5.2 1 .4 1.7.6 2h-1c-.1-.2-.3-.8-.5-1.8s-.6-1.4-1.5-1.4h-.9v3.2h-1v-7.2zm1 3.4h1c1 0 1.7-.6 1.7-1.4 0-1-.7-1.4-1.7-1.4-.5 0-.8 0-.9.1v2.7zM173.3 28.7c0 1.3.9 1.8 1.8 1.8.7 0 1.1-.1 1.5-.3l.2.7c-.3.2-.9.3-1.8.3-1.6 0-2.6-1.1-2.6-2.7s.9-2.9 2.5-2.9c1.7 0 2.2 1.5 2.2 2.5v.5h-3.8zm2.8-.7c0-.6-.3-1.6-1.3-1.6s-1.4.9-1.5 1.6h2.8zM181.1 31.2l-.1-.7c-.3.4-.9.8-1.6.8-1.1 0-1.6-.8-1.6-1.5 0-1.3 1.1-2 3.2-2v-.1c0-.4-.1-1.2-1.2-1.2-.5 0-1 .2-1.4.4l-.2-.6c.4-.3 1.1-.5 1.7-.5 1.6 0 2 1.1 2 2.2v2c0 .5 0 .9.1 1.3h-.9zm-.1-2.7c-1.1 0-2.3.2-2.3 1.2 0 .6.4.9.9.9.7 0 1.1-.4 1.3-.9 0-.1.1-.2.1-.3v-.9zM187.2 31c-.3.1-.8.3-1.5.3-1.6 0-2.7-1.1-2.7-2.7s1.1-2.8 2.9-2.8c.6 0 1.1.1 1.3.3l-.2.7c-.2-.1-.6-.3-1.1-.3-1.2 0-1.9.9-1.9 2 0 1.2.8 2 1.8 2 .5 0 .9-.1 1.2-.3l.2.8zM189.5 24.3v1.5h1.4v.7h-1.4v2.9c0 .7.2 1 .7 1 .3 0 .4 0 .6-.1v.7c-.2.1-.5.1-.9.1-.5 0-.8-.1-1-.4-.3-.3-.4-.8-.4-1.4v-2.9h-.8v-.7h.8v-1.3l1-.1zM192.9 24.4c0 .3-.2.6-.6.6-.3 0-.6-.3-.6-.6s.3-.6.6-.6c.4 0 .6.2.6.6zm-1 6.8v-5.3h1v5.3h-1zM194.7 25.9l1 3c.2.5.3.9.4 1.4.1-.4.3-.9.5-1.4l1-3h1l-2.1 5.3h-.9l-2-5.3h1.1zM199.9 28.7c0 1.3.9 1.8 1.8 1.8.7 0 1.1-.1 1.5-.3l.2.7c-.3.2-.9.3-1.8.3-1.6 0-2.6-1.1-2.6-2.7s.9-2.9 2.5-2.9c1.7 0 2.2 1.5 2.2 2.5v.5h-3.8zm2.9-.7c0-.6-.3-1.6-1.3-1.6s-1.4.9-1.5 1.6h2.8z"/></g><g><path d="M247.9 31.2v-7.4h1l2.4 3.8c.5.9 1 1.7 1.3 2.4-.1-1-.1-1.9-.1-3v-3.1h.9v7.4h-1l-2.4-3.8c-.5-.8-1-1.7-1.4-2.5.1.9.1 1.8.1 3.1v3.2h-.8zM259.7 28.5c0 2-1.4 2.8-2.7 2.8-1.4 0-2.6-1.1-2.6-2.7 0-1.8 1.2-2.8 2.6-2.8 1.7 0 2.7 1.1 2.7 2.7zm-4.2 0c0 1.2.7 2 1.6 2 .9 0 1.6-.9 1.6-2.1 0-.9-.5-2-1.6-2-1.1.1-1.6 1.1-1.6 2.1zM260.7 27.3v-1.4h.9l.1.9c.3-.5.9-1 1.8-1 .7 0 1.9.4 1.9 2.3v3.2h-1v-3.1c0-.9-.3-1.6-1.2-1.6-.6 0-1.1.5-1.3 1 0 .1-.1.3-.1.5v3.2h-1v-4zM268.9 27.9v.7h-2.7v-.7h2.7zM269.8 27.5v-1.7h.8v1c.2-.7.8-1.2 1.5-1.2h.3v.9h-.3c-.7 0-1.2.5-1.3 1.2V31h-1v-3.5zM273.6 28.7c0 1.3.9 1.8 1.8 1.8.7 0 1.1-.1 1.5-.3l.1.8c-.3.2-.9.3-1.8.3-1.6 0-2.6-1.1-2.6-2.7s.9-2.9 2.5-2.9c1.7 0 2.2 1.5 2.2 2.5v.5h-3.7zm2.8-.7c0-.6-.3-1.6-1.3-1.6s-1.4.9-1.5 1.6h2.8zM281.3 31.2l-.1-.7c-.3.4-.9.8-1.6.8-1.1 0-1.6-.8-1.6-1.5 0-1.3 1.1-2 3.2-2v-.1c0-.4-.1-1.2-1.2-1.2-.5 0-1 .2-1.4.4l-.2-.6c.4-.3 1.1-.5 1.7-.5 1.6 0 2 1.1 2 2.2v2c0 .5 0 .9.1 1.3h-.9zm-.2-2.7c-1.1 0-2.3.2-2.3 1.2 0 .6.4.9.9.9.7 0 1.1-.4 1.3-.9 0-.1.1-.2.1-.3v-.9zM287.2 31c-.3.1-.8.3-1.5.3-1.6 0-2.7-1.1-2.7-2.7s1.1-2.8 2.9-2.8c.6 0 1.1.1 1.3.3l-.2.7c-.2-.1-.6-.3-1.1-.3-1.2 0-1.9.9-1.9 2 0 1.2.8 2 1.8 2 .6 0 .9-.1 1.2-.3l.2.8zM289.4 24.3v1.5h1.4v.7h-1.4v2.9c0 .7.2 1 .7 1 .3 0 .4 0 .6-.1v.7c-.2.1-.5.1-.9.1-.5 0-.8-.1-1-.4-.3-.3-.4-.8-.4-1.4v-2.9h-.8v-.7h.8v-1.3l1-.1zM292.8 24.4c0 .3-.2.6-.6.6-.3 0-.6-.3-.6-.6s.3-.6.6-.6.6.2.6.6zm-1.1 6.8v-5.3h1v5.3h-1zM294.4 25.9l1 3c.2.5.3.9.4 1.4.1-.4.3-.9.5-1.4l1-3h1l-2.1 5.3h-.9l-2-5.3h1.1zM299.5 28.7c0 1.3.9 1.8 1.8 1.8.7 0 1.1-.1 1.5-.3l.2.8c-.3.2-.9.3-1.8.3-1.6 0-2.6-1.1-2.6-2.7s.9-2.9 2.5-2.9c1.7 0 2.2 1.5 2.2 2.5v.5h-3.8zm2.9-.7c0-.6-.3-1.6-1.3-1.6s-1.4.9-1.5 1.6h2.8z"/></g><g><path d="M343.9 23.9c.6-.1 1.3-.2 2-.2 1.4 0 2.4.3 3 .9.7.6 1 1.5 1 2.7 0 1.2-.4 2.2-1.1 2.9-.7.7-1.8 1.1-3.3 1.1-.7 0-1.3 0-1.7-.1v-7.3zm1 6.5c.2 0 .6.1 1 .1 2 0 3.2-1.1 3.2-3.1 0-1.7-1-2.9-3-2.9-.5 0-.9 0-1.1.1v5.8zM351.7 28.7c0 1.3.9 1.8 1.8 1.8.7 0 1.1-.1 1.5-.3l.2.7c-.3.2-.9.3-1.8.3-1.6 0-2.6-1.1-2.6-2.7s.9-2.9 2.5-2.9c1.7 0 2.2 1.5 2.2 2.5v.5h-3.8zm2.8-.7c0-.6-.3-1.6-1.3-1.6s-1.4.9-1.5 1.6h2.8zM360.3 31c-.3.1-.8.3-1.5.3-1.6 0-2.7-1.1-2.7-2.7s1.1-2.8 2.9-2.8c.6 0 1.1.1 1.3.3l-.2.7c-.2-.1-.6-.3-1.1-.3-1.2 0-1.9.9-1.9 2 0 1.2.8 2 1.8 2 .6 0 .9-.1 1.2-.3l.2.8zM361.4 23.4h1v7.8h-1v-7.8zM364.9 24.4c0 .3-.2.6-.6.6-.3 0-.6-.3-.6-.6s.3-.6.6-.6c.4 0 .6.2.6.6zm-1.1 6.8v-5.3h1v5.3h-1zM366.3 27.3v-1.4h.9l.1.9c.3-.5.9-1 1.8-1 .7 0 1.9.4 1.9 2.3v3.2h-1v-3.1c0-.9-.3-1.6-1.2-1.6-.6 0-1.1.5-1.3 1 0 .1-.1.3-.1.5v3.2h-1v-4zM372.8 28.7c0 1.3.9 1.8 1.8 1.8.7 0 1.1-.1 1.5-.3l.2.7c-.3.2-.9.3-1.8.3-1.6 0-2.6-1.1-2.6-2.7s.9-2.9 2.5-2.9c1.7 0 2.2 1.5 2.2 2.5v.5h-3.8zm2.9-.7c0-.6-.3-1.6-1.3-1.6s-1.4.9-1.5 1.6h2.8zM382.3 23.4V31.2h-.9v-.9c-.3.6-.9 1-1.8 1-1.3 0-2.3-1.1-2.3-2.7 0-1.8 1.1-2.9 2.4-2.9.8 0 1.4.4 1.6.8v-3.2h1zm-1 4.6v-.4c-.1-.6-.7-1.1-1.4-1.1-1 0-1.6.9-1.6 2.1 0 1.1.5 2 1.6 2 .6 0 1.2-.4 1.4-1.2V28z"/></g><g><path d="M163.5 19.4l.4.5c-1.5 1.1-3.2 2.9-5 5.2-1.8 2.3-3.2 4.5-4.2 6.6l-.8.5c-.6.4-1.1.8-1.3 1-.1-.3-.3-.9-.6-1.6l-.3-.7c-.4-1-.8-1.7-1.2-2.2-.4-.5-.8-.8-1.2-.9.8-.8 1.4-1.2 2.1-1.2.5 0 1.1.7 1.8 2.2l.3.7c1.2-2 2.7-3.9 4.6-5.8 1.8-1.9 3.6-3.3 5.4-4.3z"/></g></svg>