<svg version="1.1" id="Layer_4" xmlns="http://www.w3.org/2000/svg" x="0" y="0" viewBox="0 0 407.5 241.7" xml:space="preserve"><style type="text/css">.st0,.st1{fill:none;stroke:#000;stroke-width:3.5812}.st1{stroke-width:1.3451}.st2{stroke-width:.1934}.st2,.st3,.st4{stroke:#000}.st3{fill:none;stroke-width:.4477}.st4{stroke-width:3.979146e-2;stroke-linecap:round;stroke-linejoin:round}</style><path class="st0" d="M118.1 238.1c64.4 0 117.1-52.5 117.1-117S182.6 4 118.1 4C53.7 4 1.1 56.6 1.1 121.1s52.6 117 117 117z"/><path d="M286.3 209.2c1.1 0 2 .2 2.8.8.9.4 1.5 1.1 1.9 2 .5.9.7 1.9.7 3s-.2 2.1-.7 3c-.4.9-1.1 1.6-2 2-.8.4-1.7.7-2.7.7v-1.2c1.1 0 2-.4 2.8-1.2.7-.8 1-1.9 1-3.3 0-1-.1-1.8-.5-2.5-.3-.7-.8-1.1-1.3-1.6-.6-.3-1.2-.6-2-.6v-1.1zm-5.3 6c0-1.9.5-3.4 1.5-4.4 1-1 2.3-1.6 3.8-1.6v1.2c-1 0-1.9.5-2.7 1.1-.7.7-1.1 1.9-1.1 3.6 0 1.4.5 2.4 1.1 3.2.7.8 1.7 1.2 2.7 1.2v1.2c-1 0-1.9-.2-2.8-.8-.8-.4-1.5-1.2-1.8-2-.5-.8-.7-1.8-.7-2.7zM293.4 220.6v-8.1h1.2v1.2c.3-.6.7-.9.9-1.1.2-.2.6-.2.9-.2.4 0 .9.1 1.3.3l-.5 1.4c-.3-.2-.7-.3-1-.3-.3 0-.6.1-.8.3-.2.1-.5.3-.6.7-.1.6-.2 1-.2 1.6v4.3l-1.2-.1zM302 212.3h.1c.6 0 1 0 1.5.2.4.2.8.6 1.1.9.2.3.4.8.7 1.2.1.6.2 1.1.2 1.7 0 1.4-.3 2.5-1 3.3-.7.7-1.6 1.1-2.5 1.1h-.1v-1.1c.6 0 1.1-.3 1.6-.8.4-.6.6-1.4.6-2.4s-.1-1.8-.6-2.4c-.5-.4-.9-.7-1.6-.7v-1zm-2.1 8.3h-1.3v-11.1h1.5v3.9c.6-.7 1.2-1 2-1v1.1c-.6 0-1.1.2-1.6.8-.3.5-.6 1.2-.6 2.3 0 .9.1 1.6.3 2 .5.8 1 1.1 1.8 1.1v1.1c-.9 0-1.7-.4-2.1-1.2v1zM307.3 211v-1.6h1.3v1.6h-1.3zm0 9.6v-8.1h1.3v8.1h-1.3zM313.7 219.3l.2 1.2c-.3.1-.7.1-1 .1-.6 0-.9-.1-1.1-.2-.3-.1-.6-.3-.7-.7-.1-.2-.1-.8-.1-1.6v-4.6h-1v-1.1h1v-2l1.3-.8v2.8h1.3v1.1h-1.3v4.7c0 .3 0 .6.1.7 0 .1.1.2.2.3.1 0 .2.1.4.1.3.1.5.1.7 0zM320.4 219.5c-.4.4-1 .8-1.5.9-.2.1-.5.2-.7.2v-1c.3 0 .7-.1.9-.3.4-.2.8-.6.9-.9.2-.3.2-.8.2-1.3v-.6c-.4.2-1.1.3-2 .4v-1.1c.9-.1 1.6-.2 2-.5v-.3c0-.6-.1-.9-.3-1.1-.3-.3-.9-.4-1.6-.4h-.1v-1.1h.3c.7 0 1.2 0 1.7.2.3.1.7.3.9.6s.3.6.4.9c0 .3.1.7.1 1.3v4.3l.3.9h-1.3c-.1-.3-.1-.6-.2-1.1zm-2.2 1.2c-.3.1-.6.1-.8.1-.9 0-1.6-.2-2.1-.7-.5-.5-.7-1-.7-1.7 0-.3.1-.8.2-1 .2-.3.5-.7.8-.8.2-.2.6-.5 1-.5.2-.1.7-.2 1.1-.2l.4-.1v1.1l-.2.1c-.6 0-.9.1-1.1.2-.2.1-.5.2-.6.5-.1.2-.2.4-.2.7 0 .3.1.7.5.9.2.2.7.3 1.2.3h.4l.1 1.1zm0-7.2c-.6 0-1 .1-1.3.3-.3.2-.6.6-.7 1.1l-1.3-.1c.1-.6.3-1.1.7-1.5.2-.3.7-.6 1.1-.8.4-.1 1-.2 1.6-.2l-.1 1.2zM323.7 209.4h1.4v11.1h-1.4zM331.6 220.6v-8.1h1.2v1.2c.3-.6.6-.9.9-1.1.2-.2.6-.2.8-.2.4 0 1 .1 1.5.3l-.4 1.4c-.3-.2-.7-.3-1-.3-.3 0-.6.1-.8.3-.3.1-.4.3-.6.7-.1.6-.2 1-.2 1.6v4.3l-1.4-.1zM336.8 211v-1.6h1.3v1.6h-1.3zm0 9.6v-8.1h1.3v8.1h-1.3zM345.6 220.6v-1c-.6.8-1.2 1.2-2.1 1.2v-1.1c.6 0 1.1-.2 1.5-.8.5-.5.7-1.2.7-2.3 0-1.1-.2-1.9-.7-2.4-.3-.6-.9-.8-1.5-.8v-1.1c.3 0 .8.1 1.1.2.3.2.7.5.9.8v-3.9h1.4v11.1l-1.3.1zm-2.2.2h-.1c-.7 0-1.2-.2-1.8-.6-.6-.3-1-.9-1.2-1.5-.3-.7-.5-1.4-.5-2.3 0-.8.1-1.5.3-2.1.3-.7.7-1.2 1.2-1.6.6-.3 1.1-.4 1.8-.4h.2v1.1h-.1c-.6 0-1.1.2-1.5.7-.5.6-.7 1.4-.7 2.4s.2 1.8.7 2.4c.4.4.9.8 1.6.8v1.1zM352.1 222.7c.6 0 1-.1 1.4-.3.3-.2.6-.7.7-1.1 0-.2.1-.8.1-1.7-.6.7-1.4 1-2.1 1v-1.1c.6 0 1.1-.2 1.6-.7.4-.6.7-1.2.7-2.4 0-1-.2-1.7-.7-2.3-.4-.4-1-.7-1.6-.7v-1.1c.9 0 1.7.3 2.3 1.1v-1h1.2v7c0 1.3-.1 2.3-.3 2.7-.3.6-.7 1-1.2 1.2-.6.3-1.1.4-1.9.4l-.2-1zm-3.4-1.5l1.3.2c0 .5.2.7.4.9.3.2.8.3 1.3.3h.2v1.1h.1c-1 0-1.8-.2-2.4-.6-.7-.3-.9-1-.9-1.9zm3.4-.6h-.1c-1.1 0-2-.3-2.6-1.2-.7-.8-.9-1.7-.9-2.8 0-.8.1-1.5.3-2.1.3-.7.7-1.2 1.2-1.6.6-.3 1.1-.4 1.9-.4h.1v1.1c-.7 0-1.1.2-1.6.7-.4.6-.7 1.2-.7 2.3s.2 1.8.7 2.4c.4.4.9.7 1.6.7l.1.9zM363.2 218l1.3.2c-.2.8-.6 1.5-1.2 1.9-.6.4-1.4.7-2.3.7v-1.1h.1c.4 0 .9-.1 1.2-.5.4-.2.7-.7.9-1.2zm-2.2-5.7c1.1 0 2 .3 2.7 1 .7.8 1 1.8 1 3.1v.3H361v-1.1h2.3c-.1-.7-.2-1.1-.6-1.5-.4-.6-1-.8-1.7-.8v-1zm0 8.5c-1.1 0-2-.4-2.7-1.1-.7-.7-1.1-1.7-1.1-3 0-1.4.4-2.5 1.1-3.1.7-.8 1.6-1.1 2.7-1.1v1.1c-.7 0-1.1.2-1.6.6-.5.4-.7 1-.7 1.7h2.3v1.1h-2.4c.1.9.3 1.6.8 2 .4.4.9.8 1.6.8v1zM365.8 218.2l1.3-.2c.1.6.3.9.7 1.2.3.2.8.5 1.5.5.6 0 1-.1 1.3-.5.3-.2.5-.6.5-.9 0-.2-.1-.6-.3-.7-.2-.1-.7-.3-1.5-.4-1-.3-1.7-.6-2.1-.7-.3-.2-.7-.5-.8-.8-.2-.3-.3-.7-.3-1.1 0-.3.1-.7.2-1 .2-.2.4-.6.7-.7.2-.2.6-.3.9-.4.3-.1.8-.1 1.1-.1.7 0 1.2 0 1.7.2.6.2.9.5 1.1.8.2.2.3.7.4 1.2l-1.4.1c-.1-.3-.2-.7-.6-.9-.2-.2-.7-.3-1.2-.3-.6 0-1 .1-1.4.2-.2.2-.3.4-.3.8 0 .1 0 .3.1.4.1.1.3.3.6.3.1.1.6.2 1.2.4.9.2 1.6.4 2 .6.3.2.7.4.9.8.2.2.3.7.3 1.1 0 .4-.2.9-.5 1.4-.2.3-.7.7-1.1.9-.6.2-1.1.3-1.7.3-1.1 0-1.9-.2-2.5-.7-.3-.3-.7-1-.8-1.8z"/><path class="st1" d="M10.8 101.2c2.5 22.3 9.8 43.3 29.4 62M67.8 187.9c12.9 21.9 31.7 37 59.3 41.8M36.6 167.7c-7.4 3.7-14.2 4.3-20.2 1.9M66 194.8c-4.5 6.4-7.1 12.9-5.5 19.3M142.7 5.7c18.9 29.9 45.8 54.9 84.4 72.5M124.2 102.7l68-72.6"/><path class="st2" d="M149.5 17.7l21.1-1.8 18.7 12.8 17.5 15.6-2.3 22.1-58.7 12.8z"/><path d="M285.4 23.1h.7l4.6 11.1H289l-1.2-3.4h-2.4v-1.2h1.9l-1.2-3c-.3-.9-.6-1.6-.7-2.1v-1.4zm-5.2 11.1l4.3-11.1h.9v1.3l-.1-.2c-.1.8-.3 1.5-.6 2.1l-1.2 3.3h1.9v1.2H283l-1.2 3.4h-1.6zM291.7 34.2v-8.1h1.2v1.1c.6-.9 1.5-1.2 2.6-1.2.5 0 .9 0 1.4.2.4.1.7.3.9.7.2.3.3.7.4 1 0 .2.1.7.1 1.3v4.9h-1.5v-4.9c0-.6 0-.9-.1-1.2-.1-.2-.3-.5-.6-.7-.2-.1-.6-.2-1-.2-.6 0-1 .2-1.5.6-.5.3-.7 1.1-.7 2.1v4.4h-1.2zM303.4 32.9l.2 1.2c-.5.1-.8.1-1 .1-.6 0-.9-.1-1.2-.2-.2-.1-.4-.3-.6-.7-.1-.2-.1-.8-.1-1.6v-4.6h-1V26h1v-2l1.4-.8V26h1.3v1.1H302v5.4c.1.1.1.2.2.3.1 0 .3.1.6.1.1.2.4.2.6 0zM310.3 31.6l1.5.2c-.2.8-.7 1.5-1.2 1.9-.7.4-1.4.7-2.4.7h-.2v-1.1h.1c.6 0 1-.1 1.4-.5.3-.2.5-.6.8-1.2zM308 26c1.1 0 2 .3 2.7 1 .7.8 1 1.8 1 3.1v.3H308v-1.1h2.3c0-.7-.2-1.1-.5-1.5-.4-.6-1-.8-1.7-.8h-.1v-1zm0 8.4c-1.1 0-2-.5-2.7-1.1-.7-.7-1-1.7-1-3 0-1.4.3-2.5 1-3.1.7-.8 1.6-1.1 2.7-1.1v1.1c-.6 0-1.1.2-1.6.6-.3.5-.6 1-.7 1.7h2.3v1.1h-2.4c.1.9.3 1.6.8 2 .4.5 1 .8 1.6.8v1zM313.4 34.2v-8.1h1.2v1.2c.3-.6.6-.9.9-1.1.2-.2.6-.2.9-.2.5 0 .9.1 1.4.3l-.5 1.3c-.3-.2-.7-.3-1-.3-.3 0-.6.1-.8.3-.2.1-.4.3-.6.7-.1.6-.2 1-.2 1.6v4.3h-1.3zM318.6 24.6V23h1.5v1.6h-1.5zm0 9.6v-8.1h1.5v8.1h-1.5zM325.3 26h.1c1 0 2 .3 2.7 1 .7.8 1 1.8 1 3 0 1-.1 1.9-.5 2.5-.3.6-.8 1-1.3 1.3-.6.3-1.2.6-1.9.6h-.1v-1.1h.1c.7 0 1.2-.3 1.7-.8.5-.6.7-1.4.7-2.4s-.2-1.8-.7-2.2c-.4-.6-1-.8-1.7-.8h-.1V26zm-3.7 4.1c0-1.5.3-2.6 1.2-3.3.7-.7 1.6-.9 2.5-.9V27c-.7 0-1.2.2-1.7.7-.4.6-.7 1.3-.7 2.4 0 1 .2 1.8.7 2.4.4.5 1 .8 1.7.8v1.1c-1.1 0-2-.3-2.7-1.1-.6-.7-1-1.8-1-3.2zM330.7 34.2v-8.1h1.2v1.2c.3-.6.7-.9.9-1.1.3-.2.6-.2.9-.2.5 0 .9.1 1.5.3l-.6 1.3c-.3-.2-.7-.3-1-.3-.2 0-.6.1-.8.3-.2.1-.3.3-.4.7-.2.6-.2 1-.2 1.6v4.3h-1.5zM340.6 34.2v-7h-1.1v-1.1h1.1v-.8c0-.6.1-1 .2-1.2.1-.3.3-.7.7-.9.3-.2.8-.3 1.4-.3.4 0 .8 0 1.3.1l-.2 1.2c-.3-.1-.6-.1-.8-.1-.4 0-.8.1-.9.3-.2.1-.3.4-.3 1v.7h1.6v1.1H342v7h-1.4zM347.9 26c1.1 0 2 .3 2.7 1 .8.8 1.1 1.8 1.1 3 0 1-.2 1.9-.5 2.5-.3.6-.8 1-1.3 1.3-.7.3-1.4.6-2 .6v-1.1c.7 0 1.2-.3 1.7-.8.5-.6.7-1.4.7-2.4s-.2-1.8-.7-2.2c-.4-.6-1-.8-1.7-.8V26zm-3.8 4.1c0-1.5.4-2.6 1.3-3.3.7-.7 1.5-.9 2.5-.9V27c-.7 0-1.2.2-1.7.7-.4.6-.7 1.3-.7 2.4 0 1 .2 1.8.7 2.4.5.5 1 .8 1.7.8v1.1c-1.1 0-2-.3-2.7-1.1-.6-.7-1.1-1.8-1.1-3.2zM353.3 34.2v-8.1h1.2v1.1c.6-.9 1.5-1.2 2.6-1.2.4 0 .9 0 1.3.2.4.1.7.3.9.7.2.3.3.7.4 1 0 .2.1.7.1 1.3v4.9h-1.3v-4.9c0-.6-.1-.9-.2-1.2-.1-.2-.3-.5-.6-.7-.2-.1-.6-.2-.9-.2-.7 0-1.1.2-1.6.6-.4.3-.7 1.1-.7 2.1v4.4h-1.2zM365 32.9l.2 1.2c-.4.1-.8.1-1 .1-.6 0-.9-.1-1.2-.2-.2-.1-.4-.3-.6-.7-.1-.2-.1-.8-.1-1.6v-4.6h-1V26h1v-2l1.3-.8V26h1.3v1.1h-1.3v5.4l.3.3c.1 0 .2.1.5.1.2.2.4.2.6 0zM371.7 33.2c-.6.5-1 .8-1.5.9-.2.1-.5.2-.8.2v-1c.5 0 .7-.1 1-.3.4-.2.7-.6.9-.9.1-.3.2-.8.2-1.3v-.6c-.4.2-1.1.3-2.1.5v-1.1c1-.1 1.7-.2 2.1-.5v-.3c0-.6-.1-.9-.3-1.1-.3-.3-.9-.4-1.6-.4h-.2V26h.3c.8 0 1.4 0 1.7.2.4.1.8.3 1 .6.2.2.3.6.5.9v3.2c0 1.2.1 2.1.1 2.5l.3.9h-1.5c0-.3-.1-.7-.1-1.1zm-2.3 1.1c-.2.1-.4.1-.8.1-.8 0-1.5-.2-2-.7-.5-.5-.7-1-.7-1.7 0-.3.1-.8.2-1 .2-.3.5-.7.8-.8.2-.2.6-.5.9-.5.3-.1.7-.2 1.2-.2l.3-.1v1.1l-.1.1c-.6 0-1 .1-1.2.2-.2.1-.3.2-.5.4s-.2.5-.2.7c0 .3.1.7.5.9.2.2.7.3 1.1.3h.4l.1 1.2zm0-7.2c-.6 0-.9.1-1.2.3-.3.2-.6.6-.7 1.1l-1.4-.1c.1-.6.3-1.1.6-1.5.3-.3.7-.6 1.2-.8.4-.1.9-.2 1.5-.2v1.2zM375 34.2v-8.1h1.2v1.1c.7-.9 1.5-1.2 2.6-1.2.6 0 1 0 1.4.2.4.1.8.3.9.7.2.3.3.7.5 1 .1.2.1.7.1 1.3v4.9h-1.4v-4.9c0-.6-.1-.9-.2-1.2-.1-.2-.2-.5-.6-.7-.2-.1-.6-.2-.9-.2-.7 0-1.1.2-1.6.6-.5.3-.7 1.1-.7 2.1v4.4H375zM389.3 31.6l1.4.2c-.2.8-.6 1.5-1.2 1.9-.6.4-1.4.7-2.2.7h-.1v-1.1h.1c.4 0 .9-.1 1.2-.5.3-.2.6-.6.8-1.2zm-2.2-5.6c1.1 0 2 .3 2.7 1 .7.8 1 1.8 1 3.1v.3h-3.7v-1.1h2.2c-.1-.7-.2-1.1-.6-1.5-.5-.6-1-.8-1.7-.8l.1-1zm0 8.4c-1.1 0-2-.5-2.7-1.1-.7-.7-1.1-1.7-1.1-3 0-1.4.5-2.5 1.1-3.1.7-.8 1.6-1.1 2.7-1.1v1.1c-.7 0-1.1.2-1.6.6-.4.5-.7 1-.7 1.7h2.3v1.1h-2.4c.1.9.3 1.6.8 2 .4.5.9.8 1.6.8v1zM392.4 23.1h1.5v11.1h-1.5zM395.8 23.1h1.5v11.1h-1.5zM405 31.6l1.4.2c-.2.8-.6 1.5-1.2 1.9-.6.4-1.4.7-2.2.7h-.1v-1.1h.1c.4 0 .9-.1 1.2-.5.2-.2.5-.6.8-1.2zm-2.3-5.6c1.1 0 2 .3 2.7 1 .7.8 1 1.8 1 3.1v.3h-3.7v-1.1h2.3c-.1-.7-.2-1.1-.6-1.5-.4-.6-1-.8-1.7-.8v-1zm0 8.4c-1.1 0-2-.5-2.7-1.1-.8-.7-1.1-1.7-1.1-3 0-1.4.4-2.5 1.1-3.1.7-.8 1.6-1.1 2.7-1.1v1.1c-.7 0-1.1.2-1.6.6-.4.5-.7 1-.7 1.7h2.3v1.1h-2.4c0 .9.3 1.6.8 2 .5.5.9.8 1.6.8v1z"/><path class="st3" d="M272.8 28.1h-74M81.1 196.9l190.8 14.9"/><path class="st4" d="M195.8 28.4l12.8 4.7c-2-3.1-2.1-6.1-.1-9.3l-12.7 4.6zM78.4 197.3l12.8 4.7c-2-3.1-2.2-6.1-.1-9.5l-12.7 4.8z"/><path class="st3" d="M60.5 169.7l211.4-32.6"/><path class="st4" d="M57.9 170.6l13.6 1.7c-2.7-2.6-3.6-5.4-2.3-9.2l-11.3 7.5z"/><path d="M282.4 130.2h5.1c.8 0 1.5.1 2.1.4 1 .5 1.5 1.3 1.5 2.6 0 .7-.1 1.2-.4 1.6-.3.4-.7.8-1.2 1 .4.2.8.4 1 .7.2.3.3.8.4 1.4l.1 1.5c0 .4 0 .7.1.9.1.4.3.6.5.7v.2h-1.8c-.1-.1-.1-.2-.1-.4s-.1-.4-.1-.9l-.1-1.9c0-.7-.3-1.2-.8-1.5-.3-.1-.7-.2-1.3-.2h-3.3v4.8h-1.5v-10.9zm4.9 5.1c.7 0 1.2-.1 1.6-.4.4-.3.6-.8.6-1.5 0-.8-.3-1.3-.8-1.6-.3-.2-.7-.2-1.2-.2h-3.6v3.8h3.4zM299.1 134.1c.7.7 1.1 1.7 1.1 3.1 0 1.3-.3 2.4-.9 3.2-.6.9-1.6 1.3-2.9 1.3-1.1 0-2-.4-2.6-1.1-.7-.8-1-1.8-1-3 0-1.4.3-2.4 1-3.2.7-.8 1.6-1.2 2.8-1.2.9-.2 1.7.2 2.5.9zm-.9 5.3c.3-.7.5-1.4.5-2.3 0-.8-.1-1.4-.4-1.8-.4-.7-1-1.1-2-1.1-.8 0-1.4.3-1.8 1s-.6 1.4-.6 2.3c0 .9.2 1.6.6 2.2s1 .9 1.8.9c1-.1 1.6-.5 1.9-1.2zM307.7 134.1c.7.7 1.1 1.7 1.1 3.1 0 1.3-.3 2.4-.9 3.2-.6.9-1.6 1.3-2.9 1.3-1.1 0-2-.4-2.6-1.1-.7-.8-1-1.8-1-3 0-1.4.3-2.4 1-3.2.7-.8 1.6-1.2 2.8-1.2.9-.2 1.8.2 2.5.9zm-.9 5.3c.3-.7.5-1.4.5-2.3 0-.8-.1-1.4-.4-1.8-.4-.7-1-1.1-2-1.1-.8 0-1.4.3-1.8 1s-.6 1.4-.6 2.3c0 .9.2 1.6.6 2.2s1 .9 1.8.9c1-.1 1.6-.5 1.9-1.2zM310.7 131h1.4v2.3h1.3v1.1h-1.3v5.3c0 .3.1.5.3.6.1.1.3.1.5.1h.5v1.1c-.2 0-.3.1-.5.1h-.5c-.6 0-1.1-.2-1.3-.5s-.3-.7-.3-1.3v-5.4h-1.1v-1.1h1.1V131zM324.9 134.1c.7.7 1.1 1.7 1.1 3.1 0 1.3-.3 2.4-.9 3.2-.6.9-1.6 1.3-2.9 1.3-1.1 0-2-.4-2.6-1.1-.7-.8-1-1.8-1-3 0-1.4.3-2.4 1-3.2.7-.8 1.6-1.2 2.8-1.2.9-.2 1.8.2 2.5.9zm-.8 5.3c.3-.7.5-1.4.5-2.3 0-.8-.1-1.4-.4-1.8-.4-.7-1-1.1-2-1.1-.8 0-1.4.3-1.8 1s-.6 1.4-.6 2.3c0 .9.2 1.6.6 2.2s1 .9 1.8.9c.9-.1 1.5-.5 1.9-1.2zM328.3 130.8c.3-.5.9-.7 1.8-.7h.6v1.2h-.5c-.4 0-.7.1-.8.3-.1.2-.1.8-.1 1.6h1.4v1.1h-1.4v7H328v-7h-1.1v-1.1h1.1V132c0-.6.1-1 .3-1.2zM336.3 133.2h1.3v1.1c.4-.5.8-.8 1.2-1 .4-.2.9-.3 1.4-.3 1.2 0 1.9.4 2.3 1.2.2.4.3 1.1.3 1.9v5.2h-1.4v-5.1c0-.5-.1-.9-.2-1.2-.2-.5-.7-.8-1.3-.8-.3 0-.6 0-.8.1-.4.1-.7.3-1 .7-.2.3-.4.5-.4.8-.1.3-.1.7-.1 1.2v4.2h-1.4v-8zM350.7 134.1c.7.7 1.1 1.7 1.1 3.1 0 1.3-.3 2.4-.9 3.2-.6.9-1.6 1.3-2.9 1.3-1.1 0-2-.4-2.6-1.1-.7-.8-1-1.8-1-3 0-1.4.3-2.4 1-3.2.7-.8 1.6-1.2 2.8-1.2 1-.2 1.8.2 2.5.9zm-.8 5.3c.3-.7.5-1.4.5-2.3 0-.8-.1-1.4-.4-1.8-.4-.7-1-1.1-2-1.1-.8 0-1.4.3-1.8 1s-.6 1.4-.6 2.3c0 .9.2 1.6.6 2.2s1 .9 1.8.9c1-.1 1.6-.5 1.9-1.2zM354.3 138.8c0 .5.2.8.3 1 .3.4 1 .7 1.8.7.5 0 1-.1 1.4-.3.4-.2.6-.6.6-1 0-.3-.2-.6-.5-.8-.2-.1-.6-.2-1.2-.4l-1.1-.3c-.7-.2-1.2-.4-1.6-.6-.6-.4-.9-.9-.9-1.5 0-.8.3-1.4.8-1.9.6-.5 1.3-.7 2.3-.7 1.2 0 2.1.4 2.7 1.1.3.5.5.9.5 1.5h-1.3c0-.3-.1-.6-.3-.8-.3-.4-.9-.5-1.7-.5-.5 0-.9.1-1.2.3-.3.2-.4.5-.4.8 0 .4.2.6.5.8.2.1.5.2.9.3l.9.2c1 .2 1.7.5 2 .7.5.3.8.9.8 1.6 0 .7-.3 1.3-.8 1.9s-1.4.8-2.5.8c-1.2 0-2.1-.3-2.6-.8s-.8-1.2-.8-2h1.4zM366.2 133.5c.5.3.9.6 1.2 1 .3.4.5.9.5 1.4.1.4.1 1 .1 1.8h-5.9c0 .8.2 1.5.6 2s.9.7 1.7.7c.7 0 1.3-.2 1.7-.7.2-.3.4-.6.5-1h1.3c0 .3-.2.6-.4 1s-.4.7-.7.9c-.4.4-.9.7-1.5.8-.3.1-.7.1-1.1.1-1 0-1.9-.4-2.5-1.1-.7-.7-1-1.8-1-3.1s.4-2.4 1.1-3.2c.7-.8 1.6-1.2 2.8-1.2.6.2 1.1.3 1.6.6zm.5 3.1c-.1-.6-.2-1.1-.4-1.4-.4-.7-1-1-1.9-1-.6 0-1.1.2-1.6.7-.4.5-.6 1-.7 1.7h4.6z"/></svg>