<svg version="1.1" xmlns="http://www.w3.org/2000/svg" x="0" y="0" width="325.984" height="101.822" viewBox="0 0 325.984 101.822" xml:space="preserve"><path fill="none" stroke="#000" stroke-width=".5" stroke-miterlimit="10" d="M325.984.25H206.451v101.058h119.533M222.569.25l-1.024 101.569M238.559.25l-1.024 101.569M254.549.25l-1.024 101.569M270.539.25l-1.023 101.569M286.529.25l-1.023 101.569M302.52.25l-1.024 101.569M318.51.25l-1.024 101.569M206.451 26.729h119.067M206.451 53.722h119.067M206.451 80.841h119.067"/><path d="M145.049 8.053h3.197v.767h-2.302v3.582h2.175v.896h-2.175v4.86h-.895zM152.085 14.192c0-.639-.129-1.278-.257-1.662-.256-.384-.512-.512-.768-.512h-.127v-.768h.127c.512 0 1.023.256 1.279.896.384.512.513 1.407.513 2.558v.256h-1.919v-.768h1.152zm-1.151 4.094v-.768c.383 0 .512-.127.767-.383.128-.385.256-.768.256-1.279h.769c0 .768-.127 1.406-.513 1.791-.257.383-.768.639-1.279.639zm0-6.267c-.256 0-.513.128-.77.512a5.705 5.705 0 0 0-.256 1.662h1.024v.768h-1.024v.256c0 .769.129 1.279.256 1.664.257.512.514.639.77.639v.768c-.642 0-1.024-.256-1.407-.895-.256-.512-.512-1.407-.512-2.559s.256-2.047.512-2.687c.383-.64.896-.896 1.407-.896v.768zM154.131 12.019h-.768v-.641h.768V9.46h.895v1.918h1.024v.641h-1.024v6.139h-.895zM158.48 17.519c.384 0 .64-.127.768-.512.128-.512.256-1.15.256-2.174 0-1.152-.128-1.791-.256-2.303-.128-.384-.384-.512-.768-.512v-.768c.128 0 .255.127.384.127.256.129.384.385.512.641v-.641h.896v6.78h-.896v-.64a1.75 1.75 0 0 1-.385.512c-.256.128-.383.256-.511.256v-.766zm-1.023-2.686c0 1.023 0 1.791.128 2.174.256.385.513.512.896.512v.768h-.256c-.641 0-1.023-.256-1.279-.895-.256-.512-.384-1.535-.384-2.814 0-1.151.128-2.047.384-2.559s.64-.768 1.279-.768h.256v.768c-.384 0-.641.128-.896.512-.128.511-.128 1.15-.128 2.302zM161.806 7.413h.896v10.745h-.896zM167.051 7.413h.896v4.605c.128-.256.256-.512.512-.641.256 0 .513-.127.769-.127.512 0 .768.127 1.023.512.255.384.383.896.383 1.663v4.732h-.896v-4.86c0-.512 0-.896-.128-1.151a.978.978 0 0 0-.64-.256c-.384 0-.641.128-.769.512-.256.256-.256.64-.256 1.151v4.604h-.896l.002-10.744zM174.726 14.192c0-.639 0-1.278-.255-1.662-.129-.384-.385-.512-.769-.512v-.768c.64 0 1.151.256 1.407.896.256.512.512 1.407.512 2.558v.256h-1.919v-.768h1.024zm-1.023 4.094v-.768a.703.703 0 0 0 .64-.383c.257-.385.257-.768.384-1.279h.769c0 .768-.257 1.406-.513 1.791-.384.383-.768.639-1.28.639zm0-6.267c-.385 0-.512.128-.768.512s-.256 1.023-.385 1.662h1.151v.768h-1.151v.256c0 .769.129 1.279.385 1.664.128.512.383.639.768.639v.768c-.64 0-1.15-.256-1.407-.895-.384-.512-.512-1.407-.512-2.559s.128-2.047.512-2.687c.385-.64.769-.896 1.407-.896v.768zM178.308 17.519c.385 0 .641-.127.768-.512.128-.512.257-1.15.257-2.174 0-1.152-.129-1.791-.257-2.303-.127-.384-.383-.512-.768-.512v-.768c.129 0 .256.127.512.127.129.129.256.385.384.641v-.641h.896v6.78h-.896v-.64c0 .256-.255.384-.384.512-.127.128-.383.256-.512.256v-.766zm-1.023-2.686c0 1.023 0 1.791.256 2.174.128.385.384.512.768.512v.768h-.256c-.512 0-1.022-.256-1.278-.895-.256-.512-.385-1.535-.385-2.814 0-1.151.129-2.047.385-2.559s.768-.768 1.278-.768h.256v.768c-.384 0-.64.128-.768.512-.256.511-.256 1.15-.256 2.302zM181.763 11.378h.767v.896c.128-.384.256-.512.512-.768a.978.978 0 0 1 .641-.256v.896c-.385 0-.768.128-.896.512-.128.256-.256.768-.256 1.407v4.093h-.767v-6.78zM184.833 12.019h-.769v-.641h.769V9.46h.767v1.918h1.151v.641H185.6v6.139h-.767zM190.333 11.378h.769v.896c.127-.384.256-.512.512-.768a.973.973 0 0 1 .64-.256v.896c-.384 0-.769.128-.896.512-.129.256-.256.768-.256 1.407v4.093h-.769v-6.78zM194.81 17.519c.384 0 .64-.127.769-.512.127-.512.256-1.15.256-2.174 0-1.152-.129-1.791-.256-2.303-.129-.384-.385-.512-.769-.512v-.768c.129 0 .384.127.512.127.128.129.384.385.513.641v-.641h.768v6.78h-.768v-.64a1.001 1.001 0 0 1-.513.512c-.128.128-.256.256-.512.256v-.766zm-1.024-2.686c0 1.023.129 1.791.256 2.174.129.385.385.512.769.512v.768h-.256c-.513 0-.896-.256-1.278-.895-.256-.512-.385-1.535-.385-2.814 0-1.151.129-2.047.512-2.559.257-.512.64-.768 1.151-.768h.256v.768c-.383 0-.64.128-.769.512-.127.511-.256 1.15-.256 2.302zM198.392 12.019h-.768v-.641h.768V9.46h.768v1.918h1.151v.641h-1.151v6.139h-.768zM203.765 14.192c0-.639-.128-1.278-.257-1.662-.256-.384-.512-.512-.768-.512h-.128v-.768h.128c.512 0 1.023.256 1.279.896.384.512.512 1.407.512 2.558v.256h-1.919v-.768h1.153zm-1.152 4.094v-.768c.384 0 .512-.127.768-.383.128-.385.257-.768.257-1.279h.768c0 .768-.128 1.406-.513 1.791-.256.383-.768.639-1.28.639zm0-6.267c-.256 0-.512.128-.768.512a5.635 5.635 0 0 0-.257 1.662h1.023v.768h-1.023v.256c0 .769.128 1.279.257 1.664.256.512.512.639.768.639v.768c-.64 0-1.023-.256-1.407-.895-.256-.512-.512-1.407-.512-2.559s.256-2.047.512-2.687c.384-.64.896-.896 1.407-.896v.768zM155.154 34.148c.256-.128.512-.384.768-.64.257-.512.385-1.662.385-3.197 0-1.791-.128-2.943-.385-3.455-.256-.383-.384-.639-.768-.767v-.896c.64.128 1.151.512 1.407 1.023.512.639.768 2.047.768 3.965 0 1.92-.256 3.199-.768 3.966-.256.512-.769.768-1.407 1.023v-1.022zm-1.15-8.186v8.442h.127c.385 0 .769-.128 1.023-.256v1.023h-2.045V25.066h1.151c.256 0 .64.128.896.128v.896c-.256-.128-.512-.128-.896-.128h-.256zM161.295 31.334c0-.767-.128-1.278-.256-1.663-.256-.383-.512-.639-.768-.639h-.128v-.768h.128c.512 0 1.022.384 1.278.896.385.64.512 1.534.512 2.687v.128h-1.918v-.641h1.152zm-1.151 3.966v-.64c.384 0 .511-.128.767-.512a2.54 2.54 0 0 0 .257-1.151h.769c0 .768-.129 1.279-.513 1.663-.257.512-.77.64-1.28.64zm0-6.268c-.256 0-.513.256-.769.639a5.018 5.018 0 0 0-.256 1.663h1.023v.641h-1.023v.256c0 .767.128 1.407.256 1.79.256.384.513.64.769.64v.64c-.641 0-1.023-.256-1.408-.768a7.157 7.157 0 0 1-.511-2.686c0-1.152.256-2.047.511-2.559.385-.64.896-1.023 1.408-1.023v.767zM165.899 28.648v.896c-.127-.128-.256-.256-.383-.256-.129-.128-.256-.128-.386-.128-.512 0-.767.128-1.021.64-.129.512-.256 1.15-.256 2.175 0 .896.127 1.534.256 1.918.256.384.511.64.896.64.257 0 .384 0 .513-.128l.383-.384v1.023c-.127 0-.256.128-.512.128-.127.128-.257.128-.513.128-.511 0-1.021-.256-1.406-.896-.384-.64-.512-1.407-.512-2.43 0-1.28.128-2.175.512-2.687.385-.64.896-.896 1.662-.896h.386c.126.002.254.13.381.257zM169.609 31.334c0-.767-.128-1.278-.256-1.663-.256-.383-.512-.639-.768-.639h-.129v-.768h.129c.512 0 1.022.384 1.278.896.385.64.512 1.534.512 2.687v.128h-1.919v-.641h1.153zm-1.151 3.966v-.64c.385 0 .513-.128.769-.512.128-.256.256-.64.256-1.151h.769c0 .768-.129 1.279-.513 1.663-.258.512-.769.64-1.281.64zm0-6.268c-.256 0-.512.256-.64.639-.256.385-.383.896-.383 1.663h1.021v.641h-1.021v.256c0 .767.127 1.407.255 1.79.256.384.512.64.768.64v.64c-.64 0-1.021-.256-1.407-.768a7.135 7.135 0 0 1-.512-2.686c0-1.152.256-2.047.642-2.559.256-.64.767-1.023 1.277-1.023v.767zM171.528 24.427h.896v10.745h-.896zM176.645 31.334c0-.767-.127-1.278-.256-1.663-.256-.383-.512-.639-.768-.639h-.128v-.768h.128c.641 0 1.022.384 1.407.896.256.64.384 1.534.384 2.687v.128h-1.919v-.641h1.152zm-1.151 3.966v-.64h.128c.256 0 .512-.128.641-.512.127-.256.256-.64.256-1.151h.896c-.128.768-.257 1.279-.64 1.663-.257.512-.641.64-1.281.64zm0-6.268c-.257 0-.513.256-.64.639-.256.385-.384.896-.384 1.663h1.022v.641h-1.022v.256c0 .767.128 1.407.255 1.79.256.384.512.64.769.64v.64c-.64 0-1.022-.256-1.407-.768-.256-.64-.384-1.535-.384-2.686 0-1.152.128-2.047.512-2.559.257-.64.768-1.023 1.279-1.023v.767zM178.563 28.393h.896v.896c.129-.256.256-.512.386-.64.256-.256.383-.256.639-.256v.896c-.383 0-.639.128-.769.383-.256.256-.256.768-.256 1.535v3.966h-.896v-6.78zM183.17 34.66c.256 0 .64-.256.768-.64.128-.383.256-1.15.256-2.174s-.128-1.791-.256-2.176c-.128-.383-.512-.639-.768-.639v-.64c.127 0 .256 0 .384.128a1 1 0 0 1 .512.512v-.64h.896v6.779h-.896v-.51c-.128.128-.256.384-.384.512-.256.128-.385.128-.512.128v-.64zm-1.024-2.813c0 1.023 0 1.791.128 2.174.256.384.512.64.896.64v.64h-.256c-.641 0-1.023-.256-1.28-.768-.256-.64-.383-1.535-.383-2.814 0-1.15.127-2.047.383-2.558.257-.512.641-.768 1.28-.768h.256v.64c-.385 0-.641.256-.896.639-.128.384-.128 1.151-.128 2.175zM186.623 29.16h-.64v-.767h.64v-1.919h.896v1.919h1.151v.767h-1.151v6.012h-.896zM189.821 25.706c.128 0 .256.128.384.256.128 0 .256.256.256.384s-.128.257-.256.384-.256.256-.384.256-.384-.129-.513-.256c-.127-.127-.127-.256-.127-.384s0-.384.127-.384c.13-.128.256-.256.513-.256zm-.383 2.687h.768v6.779h-.768v-6.779zM193.402 29.032v-.768h.129c.511 0 1.022.256 1.407.896.255.64.511 1.534.511 2.687 0 1.15-.256 2.046-.511 2.558-.385.64-.769.896-1.407.896h-.129v-.64c.384 0 .64-.256.896-.768.129-.384.257-1.151.257-2.046 0-1.023-.128-1.664-.257-2.176-.256-.383-.512-.639-.896-.639zm0 0c-.383 0-.639.256-.769.639-.127.385-.256 1.152-.256 2.176 0 .895.129 1.662.256 2.174.13.384.386.64.769.64v.64c-.639 0-1.023-.256-1.406-.896-.384-.512-.513-1.407-.513-2.558 0-1.152.129-2.047.513-2.687.383-.64.769-.896 1.406-.896v.768zM196.729 28.393h.769v.64c.127-.256.383-.384.512-.512.256-.128.512-.128.768-.128.512 0 .896.128 1.151.512.128.256.256.896.256 1.663v4.604h-.768v-4.733c0-.639-.129-.895-.256-1.15-.129-.256-.385-.256-.641-.256-.384 0-.641.128-.768.384-.129.255-.256.767-.256 1.278v4.478h-.769l.002-6.78zM201.334 33.893c.256.256.513.384.641.512.256.128.512.256.64.256.384 0 .64-.128.768-.384.257-.128.385-.384.385-.768 0-.383-.385-.895-1.023-1.406l-.128-.128c-.512-.513-.896-.769-1.023-1.151-.256-.256-.256-.512-.256-.896 0-.383.128-.895.385-1.15.384-.256.768-.512 1.278-.512.128 0 .384.128.641.128.128 0 .384.128.511.256v.896c-.127-.128-.383-.256-.511-.384-.257-.128-.385-.128-.641-.128s-.512.128-.64.256-.256.383-.256.639c0 .385.256.896.896 1.407h.128c.641.513 1.022.896 1.151 1.151.128.385.256.641.256 1.023 0 .512-.128 1.023-.512 1.407-.384.256-.769.513-1.279.513-.256 0-.512-.129-.768-.129-.256-.128-.385-.256-.641-.384l-.002-1.024zM154.515 41.312l.768.256a14.894 14.894 0 0 0-1.151 3.071 15.847 15.847 0 0 0-.384 3.453c0 1.151.128 2.176.384 3.325.257 1.15.641 2.175 1.151 3.198l-.768.383c-.512-1.149-1.023-2.304-1.279-3.454a15.844 15.844 0 0 1-.383-3.452c0-1.152.127-2.303.383-3.453.255-1.152.768-2.175 1.279-3.327zM157.329 47.708l-1.791-5.628h.896l1.407 4.605 1.407-4.605h.896l-1.791 5.628v4.479h-1.024zM163.342 48.221c0-.641 0-1.28-.256-1.663-.128-.385-.384-.641-.769-.641v-.766c.641 0 1.15.381 1.407.894.256.64.512 1.535.512 2.686v.257h-1.919v-.767h1.025zm-1.025 4.092v-.77c.256 0 .513-.127.641-.511.255-.254.384-.64.384-1.151h.769c0 .769-.256 1.28-.512 1.792-.386.387-.769.64-1.282.64zm0-6.396c-.256.128-.512.256-.768.641-.128.383-.256.896-.384 1.663h1.15v.767h-1.15v.129c0 .767.128 1.406.384 1.79.129.384.385.639.768.639v.77c-.639 0-1.15-.383-1.407-.896-.383-.638-.512-1.535-.512-2.688 0-1.022.129-1.917.512-2.558.385-.641.77-.895 1.407-1.021v.764zM165.005 50.78c.127.254.384.383.64.51a.982.982 0 0 0 .64.255c.256 0 .512-.127.769-.382.129-.129.256-.383.256-.769 0-.384-.256-.767-1.023-1.407l-.128-.127c-.512-.385-.895-.768-1.023-1.025-.127-.381-.256-.639-.256-1.021s.129-.769.513-1.152c.256-.255.641-.383 1.15-.383h.642c.256.128.383.128.639.254v.898c-.256-.129-.383-.258-.639-.386-.129-.128-.386-.128-.513-.128-.257 0-.513.128-.769.256-.127.258-.256.385-.256.641 0 .383.385.895 1.023 1.407.64.51 1.022.896 1.15 1.278.256.256.384.512.384.896 0 .64-.256 1.023-.64 1.407-.256.258-.769.512-1.279.512-.255 0-.384 0-.64-.127s-.513-.256-.64-.385V50.78zM171.784 41.952h.768l-4.35 11.514h-.766zM173.191 42.08h.896l2.303 6.907s0 .257.129.641c.127.383.256.895.383 1.406-.127-.512-.127-1.151-.127-1.79-.129-.64-.129-1.278-.129-2.048V42.08h.769v10.106h-.769l-2.174-6.909c-.129-.258-.257-.639-.385-1.023 0-.385-.128-.768-.256-1.023 0 .512.128 1.151.128 1.789 0 .641.128 1.281.128 1.793v5.373h-.896V42.08zM180.866 45.917v-.766c.641 0 1.152.381 1.407.894.384.64.512 1.535.512 2.686 0 1.152-.128 2.05-.512 2.688-.255.514-.768.896-1.407.896v-.77c.385 0 .641-.255.768-.639.257-.512.386-1.151.386-2.176 0-.896-.129-1.662-.386-2.173-.127-.384-.383-.64-.768-.64zm0 0c-.384 0-.64.256-.767.641-.257.511-.257 1.15-.257 2.173 0 1.024 0 1.664.257 2.176.127.384.383.639.767.639v.77c-.64 0-1.151-.383-1.407-.896-.384-.638-.511-1.535-.511-2.688 0-1.15.127-2.046.511-2.686.256-.513.769-.894 1.407-.894v.765zM184.192 54.999l-.768-.383c.512-1.023 1.022-2.049 1.278-3.198.256-1.023.384-2.174.384-3.325 0-1.152-.128-2.303-.384-3.453-.256-1.025-.768-2.048-1.278-3.071l.768-.256a11.861 11.861 0 0 1 1.279 3.327c.384 1.15.512 2.301.512 3.453 0 1.151-.128 2.302-.512 3.452-.255 1.151-.638 2.304-1.279 3.454zM145.433 63.315h-1.663v-.767h4.093v.767h-1.536v9.338h-.894zM149.271 72.653l-1.663-6.78h.896l.769 3.838c.127.384.256.769.256 1.151.127.256.127.639.127.896.129-.385.256-.896.385-1.407 0-.513.127-.769.127-.769l.896-3.71h.768L149.4 75.21h-.769l.64-2.557zM154.515 72.013c.384 0 .64-.128.768-.512.128-.383.256-1.15.256-2.303 0-1.021-.128-1.79-.256-2.174-.128-.383-.384-.641-.768-.641v-.64h.256c.512 0 .896.256 1.15.768.257.642.385 1.535.385 2.687 0 1.281-.128 2.176-.385 2.687-.256.64-.64.896-1.278.896h-.128v-.768zm0 0v.769c-.128-.128-.385-.128-.512-.128-.129-.129-.385-.256-.513-.512v3.197h-.768v-9.466h.768v.512c.128-.255.384-.384.513-.512.127 0 .384-.128.512-.128v.64c-.385 0-.641.257-.769.64-.256.512-.256 1.152-.256 2.175 0 1.151 0 1.791.256 2.176.129.509.385.637.769.637zM160.271 68.687c0-.639-.128-1.277-.256-1.662-.128-.383-.385-.512-.769-.512v-.768c.641 0 1.023.256 1.406.768.256.641.385 1.535.385 2.687v.258h-1.791v-.771h1.025zm-1.023 4.093v-.768a.708.708 0 0 0 .641-.384c.256-.384.256-.769.256-1.278h.896c0 .768-.256 1.278-.512 1.791-.385.383-.769.639-1.281.639zm0-6.267c-.384 0-.64.129-.768.512-.256.385-.384 1.023-.384 1.662h1.15v.771h-1.15v.255c0 .641.128 1.278.384 1.663.128.385.384.64.768.64v.768c-.64 0-1.15-.385-1.407-.896-.384-.639-.512-1.404-.512-2.558 0-1.15.128-2.047.512-2.687.257-.641.769-.896 1.407-.896v.766zM166.668 61.651l.769.256c-.513 1.15-.896 2.175-1.152 3.326a13.981 13.981 0 0 0-.384 3.324c0 1.152.129 2.305.384 3.326a13.632 13.632 0 0 0 1.152 3.198l-.769.385c-.513-1.151-1.023-2.303-1.279-3.455a15.788 15.788 0 0 1-.384-3.454c0-1.149.127-2.301.384-3.451.255-1.15.766-2.302 1.279-3.455zM171.145 68.687c0-.639-.128-1.277-.256-1.662-.257-.383-.513-.512-.769-.512h-.128v-.768h.128c.512 0 1.023.256 1.279.768.384.641.512 1.535.512 2.687v.258h-1.919v-.771h1.153zm-1.152 4.093v-.768c.384 0 .512-.129.769-.384.128-.384.256-.769.256-1.278h.768c0 .768-.128 1.278-.512 1.791-.257.383-.769.639-1.281.639zm0-6.267c-.256 0-.512.129-.768.512a5.677 5.677 0 0 0-.256 1.662h1.022v.771h-1.022v.255c0 .641.128 1.278.256 1.663.256.385.512.64.768.64v.768c-.64 0-1.022-.385-1.406-.896-.257-.639-.513-1.404-.513-2.558 0-1.15.256-2.047.513-2.687.384-.641.896-.896 1.406-.896v.766zM174.599 72.013c.383 0 .639-.128.768-.639.256-.385.256-1.023.256-2.176 0-1.021 0-1.663-.256-2.174-.129-.383-.385-.641-.768-.641v-.64c.256 0 .383.128.512.128.256.128.384.385.512.512v-4.478h.768V72.65h-.768v-.641a.989.989 0 0 1-.512.512c-.129.129-.256.129-.512.256v-.764zm-1.024-2.815c0 1.152.128 1.92.256 2.303.128.384.384.512.769.512v.769h-.128c-.641 0-1.023-.257-1.279-.896-.256-.511-.384-1.534-.384-2.812 0-1.151.128-2.049.384-2.561s.64-.768 1.279-.768h.128v.64c-.385 0-.641.257-.769.64s-.256 1.152-.256 2.173zM180.738 62.42h.769l-4.351 11.513h-.767zM181.378 65.873h.896l.896 4.351c0 .256 0 .512.127.896 0 .256 0 .512.129.767 0-.255.128-.767.256-1.533v-.129l.896-4.35h.896l-1.663 6.779h-.896l-1.537-6.781zM187.774 72.013h.127c.257 0 .513-.128.769-.639.128-.385.128-1.023.128-2.176 0-1.021 0-1.663-.128-2.174-.256-.383-.512-.641-.769-.641h-.127v-.64c.256 0 .384.128.512.128.256.128.384.385.512.512v-4.478h.896V72.65h-.896v-.641a.989.989 0 0 1-.512.512c-.128.129-.256.129-.512.256v-.764zm-1.023-2.815c0 1.152.128 1.92.256 2.303.129.384.513.512.769.512v.769h-.128c-.641 0-1.023-.257-1.279-.896-.256-.511-.384-1.534-.384-2.812 0-1.151.128-2.049.384-2.561s.64-.768 1.279-.768h.128v.64c-.256 0-.64.257-.769.64-.128.383-.256 1.152-.256 2.173zM193.915 62.42h.768l-4.222 11.513h-.768zM195.193 61.907h.896v10.746h-.896zM199.287 72.013c.384 0 .641-.128.769-.639.128-.385.256-1.023.256-2.176 0-1.021-.128-1.663-.256-2.174-.128-.383-.385-.641-.769-.641v-.64c.129 0 .256.128.384.128.257.128.385.385.513.512v-4.478h.896V72.65h-.896v-.641c0 .258-.256.385-.385.512-.128.129-.383.129-.512.256v-.764zm-1.023-2.815c0 1.152 0 1.92.256 2.303.128.384.384.512.768.512v.769h-.256c-.64 0-1.021-.257-1.278-.896-.256-.511-.385-1.534-.385-2.812 0-1.151.129-2.049.385-2.561.257-.512.768-.768 1.278-.768h.256v.64c-.384 0-.64.257-.768.64-.256.383-.256 1.152-.256 2.173zM202.869 75.468l-.768-.385a13.478 13.478 0 0 0 1.15-3.198c.256-1.022.385-2.174.385-3.325 0-1.15-.129-2.302-.385-3.453-.256-1.023-.64-2.047-1.15-3.198l.768-.257c.512 1.152 1.022 2.306 1.278 3.455.257 1.151.385 2.303.385 3.453 0 1.151-.128 2.304-.385 3.453-.255 1.152-.766 2.302-1.278 3.455zM174.854 86.341h.896v9.21h2.175v.895h-3.071zM178.948 86.341h.896v10.105h-.896zM184.576 95.425l-.64-1.152v-.385l.384-.256.768 1.279c.128-.383.257-.768.257-1.408.128-.639.128-1.277.128-2.174 0-1.533-.128-2.559-.385-3.326-.255-.639-.64-1.023-1.15-1.023v-.767c.896 0 1.535.384 1.919 1.278.384.77.64 2.048.64 3.838 0 1.023-.128 1.92-.256 2.559-.128.769-.384 1.279-.64 1.663l.768 1.15-.64.386-.641-.896c-.128.129-.384.257-.512.257-.256.128-.384.128-.64.128v-.896h.384c.128-.129.256-.129.256-.255zm-.639-1.153l-.256-.258.256-.129v.387zm0-7.293v-.768c-.896 0-1.535.385-1.918 1.278-.386.77-.642 2.048-.642 3.838 0 1.793.256 3.071.642 3.967.383.896 1.021 1.278 1.918 1.278v-.896c-.512 0-.896-.383-1.151-1.023-.255-.639-.384-1.791-.384-3.325 0-1.533.128-2.56.384-3.326.255-.638.64-1.023 1.151-1.023zM188.03 86.341h.896v7.162c0 .896.129 1.408.257 1.793.127.255.512.383.896.383.512 0 .769-.128 1.023-.383.127-.385.256-.896.256-1.793v-7.162h.896v7.162c0 1.152-.128 1.922-.512 2.434-.257.383-.896.639-1.663.639-.769 0-1.279-.256-1.663-.639-.256-.512-.384-1.28-.384-2.434l-.002-7.162zM196.346 95.679c.511 0 .895-.383 1.15-1.022.256-.642.383-1.791.383-3.326 0-1.533-.127-2.56-.383-3.326-.257-.639-.641-1.022-1.15-1.022v-.768c.895 0 1.533.385 1.918 1.278.384.771.64 2.048.64 3.838 0 1.793-.256 3.071-.64 3.967-.385.896-1.023 1.278-1.918 1.278v-.897zm0-8.7c-.513 0-.896.385-1.152 1.022-.255.769-.384 1.793-.384 3.326 0 1.534.129 2.558.384 3.325.256.642.641 1.023 1.152 1.023v.896c-.896 0-1.536-.385-1.92-1.278-.385-.896-.641-2.174-.641-3.967 0-1.79.256-3.068.641-3.838.384-.896 1.022-1.278 1.92-1.278v.769zM202.357 90.688c.256 0 .384-.127.512-.254.256-.385.384-.769.384-1.408 0-.641-.128-1.151-.384-1.406-.128-.256-.256-.385-.512-.385v-.895c.512.129.896.257 1.279.513.384.512.511 1.149.511 2.047 0 .896-.127 1.406-.383 1.918-.257.384-.769.641-1.407.641l2.175 4.988h-.896l-1.279-2.943v-2.816zm-1.023-3.58v3.709h.513c.128 0 .256 0 .512-.129v2.813l-1.023-2.302v5.244h-.896V86.341h1.919v.896c-.256-.129-.384-.129-.512-.129h-.513zM220.778 21.484V24.554c0 .384 0 .64-.128.768 0 .256-.257.384-.513.384-.512 0-.768-.384-.768-1.151v-.767c-.256 0-.64 0-1.15.127h-1.151c-.64 0-1.663 0-2.942-.127-1.406-.129-2.302-.256-3.069-.256.512.767.896 1.15.896 1.406s-.127.384-.256.512c-.128.128-.384.256-.512.256-.255 0-.641-.256-.896-.64-.256-.256-.512-.768-1.021-1.278-.386-.385-.642-.896-.642-1.28s.129-.512.513-.512h.64c.129.128.385.128.512.128h.769c.384-.128.64-.128.769-.128.639 0 1.534.128 2.687.256 1.151.128 2.047.128 2.559.128h1.151c.384-.128.768-.128 1.022-.128v-.768c0-.256.128-.384.256-.512.128-.255.256-.255.513-.255.256 0 .383 0 .512.255.121.129.249.257.249.512zM217.324 12.274h2.942c.512 0 .64.256.64.64 0 .64-.256.896-1.024.896h-.511c-.128 0-.256-.129-.256-.129l-1.791.129-.128 3.326v1.534c-.128.513-.256.769-.64.769-.128 0-.513-.256-.896-.512l-.768-.641-1.663-1.15v-1.791c1.022.64 1.919 1.15 2.431 1.662l.128-3.197h-2.559v-1.535h2.559v-.384c0-.896.256-1.407.769-1.407.384 0 .64.256.768.639l-.001 1.151zm-4.094 4.862l-3.965-2.688c-.386-.383-.642-.768-.642-1.278 0-.64.256-.896.769-.896h3.838v1.535h-2.43c.896.512 1.791 1.023 2.432 1.535l-.002 1.792zM221.289 5.623c0 1.407-.639 2.558-1.662 3.198-.128.128-.256.256-.512.256-.128 0-.256-.128-.512-.256-.129-.256-.129-.384-.129-.64 0-.128.129-.383.257-.512.384-.383.64-.512.64-.639.256-.384.384-.896.384-1.407 0-.895-.384-1.663-1.022-2.303-.641-.511-1.407-.767-2.431-.767-.641 0-1.279.128-1.791.384-.641.256-.896.768-.896 1.407 0 .64.129 1.024.256 1.407.129.256.256.512.641.896l.896.768c.256.256.384.512.384.768 0 .128-.128.384-.256.512s-.384.256-.512.256-.641-.128-1.407-.128c-1.663-.256-2.686-.256-3.197-.256-.256 0-.385 0-.641.128-.255 0-.384.128-.511.128-.256 0-.513-.256-.513-.896 0 0 0-.256.127-.383v-.512-1.407c-.127-.512-.127-1.023-.127-1.28v-.639c.127-.256.127-.512.127-.639 0-.128-.127-.256-.127-.512v-.384c0-.256 0-.383.127-.511.257-.128.386-.256.513-.256.64 0 .896.639.896 1.918V5.626l.129 1.279c.127 0 1.022.128 2.559.384-.64-.768-.896-1.663-.896-2.943 0-1.151.511-1.919 1.406-2.558.768-.512 1.663-.768 2.813-.768 1.407 0 2.56.384 3.581 1.279.895.765 1.406 1.916 1.406 3.324zM252.374 21.74v3.838a.701.701 0 0 1-.639.384c-.513 0-.77-.384-.77-1.151v-.769c-.256 0-.639.129-1.149.129h-1.023c-.64 0-1.663 0-3.069-.129-1.279-.127-2.304-.127-2.942-.127.512.64.768 1.151.768 1.279 0 .256-.128.384-.256.512-.128.256-.383.256-.512.256-.256 0-.512-.128-.896-.64-.257-.256-.513-.64-1.023-1.151-.384-.512-.64-.895-.64-1.406 0-.257.256-.513.64-.513.129 0 .256 0 .512.128h2.049c.641 0 1.535 0 2.688.128s2.047.257 2.687.257c.255 0 .641-.129 1.023-.129h1.15v-.896c0-.256 0-.384.129-.512.127-.128.384-.256.512-.256.255 0 .511.128.64.256.121.128.121.256.121.512zM252.759 15.345c0 .768-.129 1.535-.512 2.047-.385.767-.896 1.278-1.536 1.535h-.256c-.255 0-.383-.129-.639-.257-.128-.128-.128-.384-.128-.512 0-.256.128-.384.256-.511l.511-.385c.256-.256.512-.512.642-.768.127-.383.127-.767.127-1.15 0-.641-.127-1.023-.513-1.535-.383-.384-.767-.64-1.406-.64-.768 0-1.406.256-1.79.896-.385.512-.641 1.15-.769 2.047-.128.512-.256.768-.768.768-.256 0-.513-.129-.641-.64l-.512-1.919c-.128-.256-.256-.512-.512-.768-.256-.128-.512-.256-.769-.256-.512 0-.895.128-1.15.512-.256.383-.384.895-.384 1.663 0 .256 0 .64.256 1.022l.512.896c.129.127.129.256.129.383 0 .128 0 .384-.129.512-.256.128-.384.256-.64.256-.385 0-.769-.384-1.15-1.279-.385-.639-.513-1.278-.513-1.662 0-1.152.257-2.047.769-2.687.511-.64 1.278-1.023 2.302-1.023 1.151 0 1.919.512 2.432 1.535v.255c.256-.767.64-1.278 1.15-1.534.513-.384 1.151-.513 1.918-.513 1.024 0 1.919.385 2.688 1.024.64.769 1.025 1.664 1.025 2.688zM252.886 5.878c0 1.535-.513 2.558-1.663 3.326-.127 0-.257.128-.384.128-.256 0-.385-.128-.512-.256-.128-.128-.256-.384-.256-.512 0-.256.128-.512.383-.64.256-.256.512-.512.642-.639.127-.384.256-.768.256-1.407 0-.896-.256-1.663-1.023-2.175-.64-.639-1.407-.896-2.303-.896-.769 0-1.407.128-1.919.384-.512.383-.896.768-.896 1.536 0 .511.128 1.022.256 1.278.129.384.385.64.641.896l.896.896c.256.127.385.383.385.639s-.129.384-.257.512-.256.256-.512.256c-.128 0-.512 0-1.407-.128-1.663-.128-2.687-.256-3.197-.256-.257 0-.385 0-.641.128s-.383.128-.512.128c-.256 0-.384-.256-.384-.768v-.511-.512-1.28-1.407-.64-.64c0-.127 0-.255-.128-.383v-.512c0-.127.128-.383.256-.512.129-.127.256-.255.512-.255.512 0 .896.639.896 1.918v.64c-.128.127-.128.384-.128.384l.128 1.279v1.407c.256 0 1.15 0 2.559.256-.512-.768-.768-1.663-.768-2.814 0-1.152.384-2.047 1.278-2.687.769-.512 1.791-.768 2.942-.768 1.407 0 2.559.384 3.454 1.279.894.769 1.406 1.921 1.406 3.328zM283.843 21.612v3.838a.704.704 0 0 1-.64.384c-.512 0-.768-.384-.768-1.279v-.64c-.255 0-.641 0-1.151.127h-1.021c-.642 0-1.663 0-3.07-.127-1.279-.127-2.303-.256-2.942-.256.513.768.769 1.151.769 1.407 0 .128-.128.384-.256.512-.129.128-.385.256-.513.256-.256 0-.512-.256-.896-.64a7.43 7.43 0 0 0-1.023-1.279c-.384-.383-.64-.895-.64-1.279 0-.384.256-.512.64-.512h.512c.257.128.385.128.513.128s.384 0 .768-.128h.769c.64 0 1.534.128 2.687.256s2.046.128 2.688.128h1.021c.512-.128.769-.128 1.151-.128v-.768c0-.256 0-.384.129-.64.127-.128.383-.128.512-.128.256 0 .383 0 .639.128.122.257.122.384.122.64zM284.354 15.473c0 1.534-.513 2.558-1.663 3.325-.127 0-.256.129-.383.129-.257 0-.385-.129-.514-.257-.127-.128-.256-.384-.256-.512 0-.256.129-.511.385-.64.257-.256.512-.512.641-.639.127-.385.256-.768.256-1.407 0-.896-.256-1.663-1.024-2.175-.639-.64-1.405-.896-2.302-.896-.768 0-1.407.128-1.919.384s-.896.768-.896 1.535c0 .512.128.895.256 1.279.128.256.384.64.64.895l.896.768c.256.256.384.512.384.768s-.128.384-.256.512-.256.256-.513.256c-.128 0-.512 0-1.406-.128-1.663-.256-2.688-.256-3.198-.256-.256 0-.384 0-.64.128-.257.128-.385.128-.513.128-.256 0-.384-.256-.384-.768v-.511-.512V15.6v-1.408-.639-.64c0-.128 0-.256-.127-.384v-.512c0-.128.127-.385.255-.512.128-.129.256-.256.512-.256.513 0 .896.64.896 1.919v.511c-.128.256-.128.385-.128.512l.128 1.28v1.407c.256 0 1.022 0 2.559.256-.512-.768-.768-1.663-.768-2.814s.384-2.047 1.279-2.688c.768-.512 1.79-.768 2.941-.768 1.407 0 2.559.385 3.453 1.28.898.77 1.409 1.921 1.409 3.329zM284.228 5.367c0 1.535-.77 2.686-2.176 3.454-1.15.512-2.432.768-4.094.768V8.053c1.535 0 2.688-.255 3.454-.64.769-.512 1.278-1.151 1.278-2.046 0-1.151-.64-1.919-1.918-2.431-.769-.256-1.663-.384-2.814-.512V.889c1.918.128 3.454.512 4.478 1.151 1.152.768 1.792 1.791 1.792 3.327zm-6.269 4.221h-.256c-1.535 0-2.941-.256-3.966-1.023-1.407-.896-2.047-2.046-2.047-3.454 0-1.408.64-2.431 1.791-3.199 1.022-.639 2.175-1.023 3.71-1.023h.768v1.535h-.512c-1.407 0-2.431.256-3.198.641-.64.511-1.022 1.151-1.022 2.046 0 1.023.512 1.791 1.535 2.302.768.512 1.662.768 2.813.768.128 0 .256 0 .384-.128v1.535zM315.439 21.868v3.838a.702.702 0 0 1-.64.384c-.513 0-.769-.384-.769-1.151v-.768c-.256 0-.639.128-1.151.128h-1.022c-.64 0-1.663 0-3.07-.128-1.278-.129-2.302-.129-2.94-.129.512.641.768 1.152.768 1.28 0 .256-.128.384-.256.512-.128.256-.256.256-.512.256-.257 0-.513-.128-.896-.64-.256-.256-.512-.64-.896-1.151-.513-.511-.769-.896-.769-1.407 0-.256.256-.512.64-.512.129 0 .257 0 .513.128h2.049c.639 0 1.535 0 2.687.128 1.151.129 2.048.256 2.687.256.256 0 .641-.127 1.022-.127h1.151v-.896c0-.256 0-.384.129-.512.127-.128.383-.256.511-.256.257 0 .513.128.642.256.122.127.122.255.122.511zM316.079 15.473c0 1.407-.511 2.43-1.535 3.069-.639.385-1.405.641-2.431.768v-1.535c.641-.127 1.024-.256 1.407-.512.768-.383 1.15-.895 1.15-1.79 0-.769-.256-1.407-.896-1.792-.383-.383-.896-.511-1.663-.639v-1.535c1.151.127 2.048.384 2.688 1.023.769.768 1.28 1.791 1.28 2.943zm-3.966 3.837h-.895c-2.56 0-4.733-1.023-6.652-3.069l-.769-.768c-.256-.385-.512-.64-.512-.896 0-.129.128-.385.256-.512.128-.129.385-.256.513-.256.256 0 .512.256 1.15.895l1.535 1.536c.383.384 1.023.767 1.919 1.022-.256-.383-.384-.768-.512-1.15-.128-.256-.128-.64-.128-.768 0-1.279.384-2.175 1.021-2.813.642-.64 1.536-1.023 2.688-1.023h.383v1.535h-.383c-.641 0-1.151.256-1.536.639-.383.385-.511 1.023-.511 1.792 0 .512 0 .896.128 1.278.128.129.256.512.639 1.023h1.665v1.535h.001zM315.823 5.623c0 1.663-.767 2.814-2.174 3.454-1.151.512-2.432.896-4.094.896V8.437c1.534 0 2.687-.256 3.452-.639.896-.512 1.279-1.279 1.279-2.175 0-1.023-.639-1.919-1.919-2.303-.768-.383-1.663-.511-2.812-.511V1.273c1.919 0 3.452.384 4.477 1.023 1.152.768 1.791 1.919 1.791 3.327zm-6.267 4.349h-.256c-1.534 0-2.813-.384-3.966-1.151-1.407-.768-2.047-1.919-2.047-3.454 0-1.28.641-2.431 1.791-3.199 1.023-.639 2.303-.895 3.709-.895h.77v1.535h-.514c-1.405 0-2.43.128-3.196.64-.641.383-1.023 1.151-1.023 1.919 0 1.023.512 1.791 1.535 2.302.767.512 1.663.768 2.813.768h.385v1.535zM218.987 45.661c0 .256 0 .641-.128 1.279 0 .514-.385.768-.769.768s-.64-.128-1.022-.512c-2.175-2.045-4.605-4.86-7.292-8.57l-.128 1.791v3.582c.128.896.128 1.533.128 1.918 0 1.408-.384 2.176-.896 2.176a.699.699 0 0 1-.639-.385c-.128-.128-.257-.254-.257-.512 0-.256 0-.512.129-1.023v-1.021-1.408-1.279-1.535-1.662c0-.256 0-.769-.129-1.408v-1.406c0-.256 0-.512.257-.768.256-.129.383-.256.639-.256.386 0 .642.256 1.024.895 1.406 1.919 2.558 3.582 3.581 4.861 1.151 1.535 2.559 2.814 4.094 4.222v-1.023l-.128-.896c0-2.175 0-3.965-.256-5.373 0-.128 0-.384-.128-.768s-.256-.639-.256-.895c0-.641.384-.896.896-.896.896 0 1.407 1.663 1.407 5.117 0 .512-.128 1.407-.128 2.559l.001 2.428zM251.223 45.021c0 .258 0 .77-.127 1.281 0 .512-.257.767-.769.767-.256 0-.64-.128-1.023-.511-2.175-2.049-4.604-4.733-7.291-8.571v1.792l-.129 1.79c0 .384 0 1.023.129 1.79v1.92c0 1.406-.257 2.176-.896 2.176a.974.974 0 0 1-.64-.258c-.128-.256-.256-.383-.256-.639s0-.513.128-1.025v-.893-1.408c.128-.64.128-1.151.128-1.407 0-.384 0-.896-.128-1.536v-1.534-1.535c-.128-.64-.128-1.151-.128-1.407s.128-.512.256-.64c.257-.256.513-.384.769-.384s.64.384 1.022.896c1.278 1.918 2.431 3.582 3.454 4.859 1.278 1.536 2.559 2.814 4.094 4.223v-1.791c0-2.303-.128-4.094-.256-5.501-.128-.128-.128-.384-.257-.767-.128-.385-.128-.641-.128-.896 0-.512.257-.896.769-.896.896 0 1.407 1.663 1.407 5.116v2.56c-.128 1.022-.128 1.917-.128 2.429zM284.228 38.626c-.129.256-.386.512-.514 1.023l-1.405 3.326a58.465 58.465 0 0 0-1.407 3.069l-1.024 1.79-.383.77c-.256.383-.384.512-.768.512-.128 0-.385-.129-.514-.256-.127-.13-.255-.385-.255-.514 0-.254.255-.767.769-1.662l.895-1.79c-.895-1.28-1.534-2.048-1.79-2.687-.256-.64-.64-1.279-1.15-2.176-.769-1.15-1.151-1.79-1.279-2.046-.128-.128-.128-.256-.128-.384 0-.256 0-.384.256-.64.128-.128.256-.128.512-.128s.513.128.641.384l.64.896c.512.896.895 1.408 1.151 1.664.384.639.64 1.278.896 1.79.128.384.511 1.023 1.023 1.79l1.791-4.348c.255-.385.511-.896.896-1.664.127-.384.383-.512.768-.512.128 0 .385 0 .512.128.129.256.256.384.256.64-.003.256-.134.641-.389 1.025zM313.905 36.963c-.129.128-.256.512-.512.896l-1.28 3.326c-.512 1.279-1.022 2.174-1.534 3.07l-.896 1.79-.513.896a.707.707 0 0 1-.64.385c-.256 0-.384 0-.512-.257-.256-.128-.256-.255-.256-.511 0-.127.256-.768.64-1.663l1.023-1.663c-.896-1.151-1.535-2.175-1.791-2.814-.257-.639-.641-1.279-1.151-2.047-.769-1.151-1.279-1.918-1.407-2.047 0-.256-.128-.383-.128-.512 0-.127.128-.383.256-.512.256-.128.384-.256.641-.256.256 0 .384.128.64.385l.512 1.023c.641.767 1.023 1.278 1.151 1.662.384.64.639 1.152.895 1.664.258.51.514 1.022 1.151 1.79l1.792-4.35c.127-.384.512-.896.768-1.663.127-.256.385-.512.768-.512.256 0 .385.128.512.256.256.129.256.256.256.512s-.129.641-.385 1.152zM283.203 64.337h-.256a9.576 9.576 0 0 0-2.558-.381c-.385 0-.896 0-1.407.126-.512 0-1.023.128-1.663.384.128.256.128.512.128.77 0 .767-.128 1.662-.128 2.941l3.326-.256c1.022-.129 1.663-.256 1.919-.256s.383.127.512.256c.256.127.256.383.256.639 0 .385-.256.769-.641.769l-1.918.129-3.582.383v1.023c-.128.384-.128.639-.128.896 0 1.151.128 1.918.256 2.047.128.127.64.256 1.279.256h1.406c.64 0 1.151-.129 1.534-.129h.897c.512 0 .768.254.768.768 0 .384-.127.64-.639.769-.514.128-1.536.128-3.198.128-1.535 0-2.559-.128-3.07-.64-.512-.384-.768-1.535-.768-3.197v-1.024c.128-.383.128-.896.128-1.277-.128-.129-.128-.258-.128-.384 0-.257.128-.386.128-.515.128-1.533.256-2.558.256-3.324 0-.256-.128-.514-.128-.896 0-.381-.128-.639-.128-.767 0-.64.256-1.022.768-1.022.257 0 .513.127.641.256.64-.129 1.149-.256 1.791-.384.512 0 1.021-.128 1.535-.128 1.278 0 2.302.128 3.068.512.256.127.513.383.513.768 0 .128-.128.386-.257.512-.127.121-.383.248-.512.248zM313.265 74.827c-.641.256-1.534.512-2.814.768-1.149.131-2.046.256-2.812.256-.514 0-.896 0-1.151-.256-.256-.127-.384-.639-.384-1.15l.128-2.56c.128-2.429.128-5.114.128-7.929 0-.258.128-.512.256-.641s.384-.258.511-.258c.257 0 .514.129.642.258s.256.383.256.641c0 2.939-.128 5.627-.256 7.929l-.128 1.28v1.15c1.278 0 3.068-.383 5.116-1.023h.256c.256 0 .385.129.512.257.129.128.256.384.256.513-.005.382-.132.637-.516.765zM217.58 88.261c-.384 0-.64-.258-.768-.641-.128-.256-.256-.512-.384-.641h-.896c-.64 0-1.534.512-2.431 1.664-1.278 1.532-1.919 3.069-1.919 4.479 0 .639.256 1.277.641 1.662.512.512 1.022.767 1.662.767.513 0 1.022-.126 1.535-.384.384-.128.768-.512 1.407-.895.384-.258.512-.387.64-.387.256 0 .512.129.64.258s.256.385.256.641c0 .127-.128.383-.384.512-1.279 1.278-2.687 1.919-4.094 1.919-1.15 0-2.047-.514-2.813-1.278a4.47 4.47 0 0 1-1.023-2.813c0-1.793.769-3.583 2.176-5.502 1.278-1.535 2.558-2.304 3.709-2.304h.768c.129.13.385.13.513.13.128-.259.384-.384.768-.384.256 0 .512.254.641.767.128.384.128.896.128 1.535 0 .256-.128.384-.128.511-.26.255-.388.384-.644.384zM249.816 87.875c-.384 0-.641-.127-.77-.64-.127-.256-.255-.512-.383-.512-.128-.127-.384-.127-.768-.127-.769 0-1.663.639-2.56 1.789-1.278 1.536-1.919 2.942-1.919 4.35 0 .642.256 1.279.641 1.793.512.511 1.022.768 1.663.768.512 0 1.022-.257 1.662-.512.257-.129.769-.385 1.279-.897.383-.255.512-.255.769-.255.128 0 .384 0 .512.129.128.254.256.383.256.641 0 .255-.128.384-.256.639-1.407 1.15-2.814 1.792-4.222 1.792-1.151 0-2.048-.385-2.688-1.28-.768-.767-1.151-1.664-1.151-2.814 0-1.789.77-3.58 2.176-5.371 1.278-1.535 2.559-2.303 3.838-2.303h.64c.256 0 .384 0 .511.127.257-.254.386-.383.77-.383s.512.129.639.641c.129.383.129.895.129 1.533 0 .256 0 .385-.129.641a.99.99 0 0 1-.639.251zM282.052 87.491c-.257 0-.513-.127-.769-.512-.127-.383-.256-.511-.383-.64-.128 0-.384-.128-.77-.128-.767 0-1.661.641-2.558 1.79-1.279 1.536-1.791 3.07-1.791 4.351 0 .77.128 1.278.64 1.791.385.512.896.768 1.535.768.513 0 1.151-.127 1.662-.383.256-.256.77-.514 1.407-1.025.256-.126.512-.254.641-.254.256 0 .383.128.513.254.128.129.255.384.255.512a.978.978 0 0 1-.255.642c-1.407 1.28-2.814 1.791-4.223 1.791-1.022 0-1.919-.384-2.687-1.15-.769-.896-1.151-1.793-1.151-2.942 0-1.664.769-3.453 2.303-5.373 1.151-1.533 2.432-2.304 3.709-2.304h.642c.255 0 .384.13.511.13.256-.258.512-.384.769-.384.384 0 .64.254.64.767.129.385.129.896.129 1.535 0 .129 0 .385-.129.512-.128.252-.383.252-.64.252zM317.103 96.831c-.256 0-.513-.13-.641-.512-.256-.258-.384-.642-.512-1.152l-.256-1.406c-.256-.77-.512-2.688-1.023-5.5l-1.533 4.73-.514 1.408c-.127.64-.383 1.15-.512 1.537-.256.383-.512.51-.896.51-.257 0-.513-.127-.769-.51-.127-.131-.127-.513-.256-.771l-.255-.896a66.066 66.066 0 0 1-1.407-5.886l-.256 1.409-1.023 4.091c0 .515-.129 1.152-.384 2.177-.128.383-.384.639-.768.639a.703.703 0 0 1-.641-.383c-.128-.129-.128-.256-.128-.514 0-.895.128-1.919.512-3.195l.896-3.198.383-2.433c.257-1.149.513-1.916.77-2.303.128-.254.512-.383.768-.383.383 0 .64.129.768.512.129.512.385 1.407.641 2.942a36.982 36.982 0 0 0 1.279 5.501c.767-2.048 1.406-4.094 2.047-6.27l.127-1.15c.129-.383.256-.768.385-1.023.256-.383.511-.639.896-.639.384 0 .769.382 1.022 1.279.128.254.128.895.256 1.918.384 2.303.769 4.35 1.151 6.013l.384 1.278c.256.77.384 1.149.384 1.406 0 .129-.128.385-.256.513-.256.131-.384.261-.639.261zM1.066 9.734h1.25v8.538h4.091v1.037H1.066V9.734zM9.138 10.502c0 .426-.298.767-.795.767-.455 0-.753-.341-.753-.767s.312-.781.781-.781c.454 0 .767.341.767.781zM7.746 19.31v-6.876h1.25v6.876h-1.25zM15.76 18.259h-.028c-.384.667-1.137 1.207-2.245 1.207-1.605 0-2.912-1.378-2.912-3.466 0-2.586 1.662-3.708 3.111-3.708 1.065 0 1.776.525 2.117 1.179h.028l.043-1.037h1.179c-.028.568-.057 1.18-.057 1.89v7.799H15.76v-3.864zm0-3.041c0-.17-.014-.354-.057-.511-.199-.768-.852-1.421-1.79-1.421-1.293 0-2.074 1.094-2.074 2.628 0 1.378.653 2.558 2.031 2.558.81 0 1.506-.497 1.79-1.35.057-.185.1-.427.1-.611v-1.293zM24.827 17.42c0 .725.014 1.35.057 1.89h-1.108l-.071-1.122h-.028c-.312.554-1.051 1.278-2.273 1.278-1.08 0-2.372-.611-2.372-3.012v-4.021h1.25v3.793c0 1.308.412 2.202 1.534 2.202.838 0 1.42-.582 1.648-1.15.071-.171.114-.398.114-.64v-4.205h1.25v4.987zM33.128 15.814c0 2.543-1.776 3.651-3.424 3.651-1.847 0-3.295-1.363-3.295-3.537 0-2.287 1.52-3.637 3.409-3.637 1.974.001 3.31 1.436 3.31 3.523zm-5.441.072c0 1.506.853 2.643 2.074 2.643 1.193 0 2.088-1.122 2.088-2.671 0-1.165-.582-2.628-2.06-2.628-1.463-.001-2.102 1.363-2.102 2.656zM34.709 14.579c0-.81-.014-1.506-.057-2.146h1.094l.057 1.364h.042c.312-.924 1.08-1.506 1.918-1.506.128 0 .228.014.341.028v1.179c-.128-.028-.255-.028-.426-.028-.88 0-1.505.653-1.676 1.591a3.805 3.805 0 0 0-.042.583v3.665h-1.25v-4.73z"/><g><path d="M7.757 36.068c-.44.227-1.364.454-2.529.454-2.699 0-4.716-1.705-4.716-4.858 0-3.012 2.032-5.029 5-5.029 1.179 0 1.946.256 2.273.427l-.313 1.008c-.455-.228-1.122-.398-1.917-.398-2.245 0-3.736 1.436-3.736 3.949 0 2.358 1.35 3.851 3.665 3.851.767 0 1.534-.156 2.032-.398l.241.994zM8.812 31.579v-.853h7.33v.853h-7.33zm0 2.784v-.853h7.33v.853h-7.33zM27.485 36.068c-.44.227-1.364.454-2.528.454-2.699 0-4.717-1.705-4.717-4.858 0-3.012 2.032-5.029 5-5.029 1.179 0 1.946.256 2.273.427L27.2 28.07c-.455-.228-1.122-.398-1.917-.398-2.245 0-3.736 1.436-3.736 3.949 0 2.358 1.35 3.851 3.665 3.851.767 0 1.534-.156 2.032-.398l.241.994zM29.009 26.28h1.25v10.086h-1.25V26.28zM33.059 33.155c.029 1.69 1.094 2.387 2.358 2.387.895 0 1.449-.156 1.904-.354l.227.895c-.44.199-1.208.44-2.301.44-2.117 0-3.381-1.406-3.381-3.48s1.222-3.693 3.225-3.693c2.259 0 2.841 1.96 2.841 3.225 0 .256-.015.44-.043.582h-4.83zm3.665-.894c.014-.781-.327-2.018-1.733-2.018-1.278 0-1.818 1.151-1.917 2.018h3.65zM44.314 34.719c0 .597.028 1.179.099 1.647h-1.122l-.1-.866h-.042c-.383.539-1.122 1.022-2.103 1.022-1.392 0-2.103-.98-2.103-1.975 0-1.662 1.478-2.571 4.134-2.557v-.143c0-.554-.156-1.591-1.563-1.577-.653 0-1.321.185-1.804.512l-.284-.838c.568-.355 1.407-.597 2.273-.597 2.103 0 2.614 1.435 2.614 2.799v2.573zm-1.207-1.862c-1.364-.028-2.912.213-2.912 1.549 0 .823.54 1.192 1.165 1.192.909 0 1.492-.567 1.69-1.15.043-.142.057-.284.057-.397v-1.194zM46.335 31.636c0-.81-.014-1.506-.057-2.146h1.094l.057 1.364h.042c.312-.924 1.08-1.506 1.918-1.506.128 0 .228.014.341.028v1.179c-.128-.028-.255-.028-.426-.028-.88 0-1.505.653-1.676 1.591a3.805 3.805 0 0 0-.042.583v3.665h-1.25v-4.73z"/></g><g><path d="M9.149 49.217c-.071-1.335-.156-2.955-.156-4.134h-.029a72.579 72.579 0 0 1-1.208 3.637l-1.69 4.646h-.937l-1.562-4.561c-.455-1.363-.824-2.585-1.094-3.722h-.029c-.028 1.193-.1 2.784-.185 4.233l-.256 4.105H.824l.668-9.575h1.577l1.634 4.632a45.3 45.3 0 0 1 .966 3.225h.029c.255-.966.597-2.018 1.022-3.225l1.705-4.632h1.577l.597 9.575H9.376l-.227-4.204zM11.996 48.635v-.853h7.33v.853h-7.33zm0 2.784v-.853h7.33v.853h-7.33zM32.06 49.217c-.071-1.335-.156-2.955-.156-4.134h-.028a72.579 72.579 0 0 1-1.208 3.637l-1.69 4.646h-.938l-1.562-4.561c-.455-1.363-.824-2.585-1.094-3.722h-.028c-.028 1.193-.1 2.784-.185 4.233l-.256 4.105h-1.179l.668-9.575h1.577l1.634 4.632a45.3 45.3 0 0 1 .966 3.225h.029c.255-.966.597-2.018 1.022-3.225l1.705-4.632h1.577l.597 9.575h-1.222l-.229-4.204zM36.157 50.211c.029 1.69 1.094 2.387 2.358 2.387.895 0 1.449-.156 1.904-.354l.227.895c-.44.199-1.208.44-2.301.44-2.117 0-3.381-1.406-3.381-3.48s1.222-3.693 3.225-3.693c2.259 0 2.841 1.96 2.841 3.225 0 .256-.015.44-.043.582h-4.83zm3.666-.895c.014-.781-.327-2.018-1.733-2.018-1.278 0-1.818 1.151-1.917 2.018h3.65zM47.484 53.181c-.327.156-1.051.397-1.975.397-2.074 0-3.423-1.406-3.423-3.509 0-2.117 1.449-3.665 3.693-3.665.739 0 1.392.185 1.733.369l-.284.952c-.298-.156-.767-.327-1.449-.327-1.577 0-2.429 1.18-2.429 2.6 0 1.591 1.023 2.571 2.387 2.571.71 0 1.179-.17 1.534-.326l.213.938zM55.087 49.927c0 2.543-1.776 3.651-3.424 3.651-1.847 0-3.295-1.363-3.295-3.537 0-2.287 1.52-3.637 3.409-3.637 1.975 0 3.31 1.435 3.31 3.523zm-5.441.071c0 1.506.853 2.643 2.074 2.643 1.193 0 2.088-1.122 2.088-2.671 0-1.165-.582-2.628-2.06-2.628-1.463 0-2.102 1.363-2.102 2.656zM56.668 48.407c0-.725-.014-1.293-.057-1.861h1.108l.071 1.137h.028c.341-.64 1.137-1.278 2.273-1.278.952 0 2.429.568 2.429 2.926v4.092h-1.25v-3.964c0-1.107-.412-2.031-1.591-2.031-.81 0-1.449.583-1.676 1.278-.057.156-.085.37-.085.583v4.134h-1.25v-5.016zM65.948 44.614c0 .426-.298.767-.795.767-.455 0-.753-.341-.753-.767s.312-.781.781-.781c.455 0 .767.341.767.781zm-1.392 8.808v-6.876h1.25v6.876h-1.25zM73.636 51.532c0 .725.014 1.35.057 1.89h-1.108l-.072-1.122h-.028c-.312.554-1.051 1.278-2.273 1.278-1.08 0-2.372-.611-2.372-3.012v-4.021h1.25v3.793c0 1.308.412 2.202 1.534 2.202.838 0 1.42-.582 1.648-1.15.071-.171.114-.398.114-.64v-4.205h1.25v4.987zM75.714 48.407c0-.725-.028-1.293-.057-1.861h1.094l.057 1.123h.042c.384-.654 1.023-1.265 2.174-1.265.923 0 1.633.568 1.932 1.378h.029c.213-.397.497-.682.781-.896.412-.312.852-.482 1.506-.482.923 0 2.273.597 2.273 2.983v4.034h-1.222v-3.878c0-1.336-.498-2.117-1.492-2.117-.725 0-1.265.525-1.492 1.122-.057.186-.1.398-.1.625v4.248h-1.222v-4.12c0-1.094-.483-1.875-1.435-1.875-.767 0-1.35.625-1.548 1.25-.071.171-.1.398-.1.611v4.134h-1.222v-5.014zM90.466 49.132v.909h-3.509v-.909h3.509zM91.761 52.157c.383.228 1.037.483 1.662.483.895 0 1.321-.44 1.321-1.022 0-.597-.355-.909-1.264-1.251-1.25-.454-1.833-1.122-1.833-1.945 0-1.108.909-2.018 2.373-2.018.696 0 1.307.185 1.676.426l-.298.909a2.668 2.668 0 0 0-1.407-.412c-.738 0-1.136.427-1.136.938 0 .568.398.824 1.292 1.18 1.179.44 1.804 1.037 1.804 2.06 0 1.222-.952 2.074-2.557 2.074-.753 0-1.449-.199-1.932-.483l.299-.939zM99.066 44.898v1.647h1.79v.952h-1.79v3.708c0 .853.241 1.335.938 1.335.341 0 .54-.028.725-.085l.057.951a3.382 3.382 0 0 1-1.108.171c-.583 0-1.051-.199-1.35-.525-.341-.384-.483-.994-.483-1.805v-3.75H96.78v-.952h1.065v-1.278l1.221-.369zM107.094 51.774c0 .597.028 1.179.099 1.647h-1.122l-.1-.866h-.042c-.383.539-1.122 1.022-2.103 1.022-1.392 0-2.103-.98-2.103-1.975 0-1.662 1.478-2.571 4.134-2.557v-.143c0-.554-.156-1.591-1.563-1.577-.653 0-1.321.185-1.804.512l-.284-.838c.568-.355 1.407-.597 2.273-.597 2.103 0 2.614 1.435 2.614 2.799v2.573zm-1.207-1.861c-1.364-.028-2.912.213-2.912 1.549 0 .823.54 1.192 1.165 1.192.909 0 1.492-.567 1.69-1.15.043-.142.057-.284.057-.397v-1.194zM110.508 44.614c0 .426-.298.767-.795.767-.455 0-.753-.341-.753-.767s.312-.781.781-.781c.454 0 .767.341.767.781zm-1.393 8.808v-6.876h1.25v6.876h-1.25zM112.441 48.407c0-.725-.014-1.293-.057-1.861h1.108l.071 1.137h.028c.341-.64 1.137-1.278 2.273-1.278.952 0 2.429.568 2.429 2.926v4.092h-1.25v-3.964c0-1.107-.412-2.031-1.591-2.031-.81 0-1.449.583-1.676 1.278-.057.156-.085.37-.085.583v4.134h-1.25v-5.016zM121.025 50.211c.029 1.69 1.094 2.387 2.358 2.387.895 0 1.449-.156 1.904-.354l.227.895c-.44.199-1.208.44-2.301.44-2.117 0-3.381-1.406-3.381-3.48s1.222-3.693 3.225-3.693c2.259 0 2.841 1.96 2.841 3.225 0 .256-.014.44-.043.582h-4.83zm3.666-.895c.014-.781-.327-2.018-1.733-2.018-1.278 0-1.818 1.151-1.917 2.018h3.65zM133.374 43.336v8.311c0 .61.028 1.307.057 1.775h-1.108l-.057-1.193h-.043c-.369.768-1.193 1.35-2.315 1.35-1.662 0-2.955-1.406-2.955-3.495-.015-2.287 1.42-3.679 3.083-3.679 1.065 0 1.762.497 2.074 1.037h.028v-4.105h1.236zm-1.236 6.009c0-.156-.014-.369-.057-.525-.185-.781-.866-1.435-1.804-1.435-1.293 0-2.06 1.136-2.06 2.642 0 1.393.696 2.543 2.031 2.543.838 0 1.605-.568 1.833-1.491.043-.171.057-.341.057-.54v-1.194z"/></g></svg>