<?xml version="1.0" encoding="utf-8"?>
<!-- Generator: Adobe Illustrator 23.1.1, SVG Export Plug-In . SVG Version: 6.00 Build 0)  -->
<svg version="1.1" id="Layer_1" xmlns="http://www.w3.org/2000/svg" xmlns:xlink="http://www.w3.org/1999/xlink" x="0px" y="0px"
	 viewBox="0 0 407.5 56.7" style="enable-background:new 0 0 407.5 56.7;" xml:space="preserve">
<rect style="fill:none;stroke:#000000;stroke-width:1.4173;stroke-miterlimit:10;" width="407.5" height="56.7"/>
<path style="fill:none;stroke:#000000;stroke-width:0.4191;stroke-linejoin:round;stroke-miterlimit:10;" d="M142.3,20
	c0-2.2,1.9-4.2,4.2-4.2h60.1c2.2,0,4.2,1.9,4.2,4.2v16.7c0,2.2-1.9,4.2-4.2,4.2h-60.1c-2.2,0-4.2-1.9-4.2-4.2V20z"/>
<path style="fill:none;stroke:#000000;stroke-width:0.4191;stroke-linejoin:round;stroke-miterlimit:10;" d="M226.5,19.7
	c0-2.6,1.9-4.5,4.5-4.5h75.5c2.2,0,4.5,1.9,4.5,4.5V37c0,2.2-1.9,4.5-4.5,4.5H231c-2.6,0-4.5-1.9-4.5-4.5V19.7z"/>
<path style="fill:none;stroke:#000000;stroke-width:0.4191;stroke-linejoin:round;stroke-miterlimit:10;" d="M320.7,20
	c0-2.2,1.9-4.2,4.2-4.2H385c2.2,0,4.2,1.9,4.2,4.2v16.7c0,2.2-1.9,4.2-4.2,4.2h-60.1c-2.2,0-4.2-1.9-4.2-4.2L320.7,20L320.7,20z"/>
<g>
	<path d="M20.2,23.8v3.1h3.6v-3.1h1v7.4h-1v-3.5h-3.6v3.5h-1v-7.4H20.2z"/>
	<path d="M27.2,23.8v7.4h-1v-7.4H27.2z"/>
	<path d="M30.4,31.2L28,23.8h1l1.2,3.7c0.3,1,0.6,1.9,0.8,2.8l0,0c0.2-0.9,0.5-1.8,0.8-2.8l1.3-3.7h1l-2.7,7.4
		C31.4,31.2,30.4,31.2,30.4,31.2z"/>
	<path d="M37,27.5c0-0.6,0-1.2,0-1.7h0.8v1l0,0c0.2-0.7,0.8-1.2,1.5-1.2c0.1,0,0.2,0,0.3,0v0.9c-0.1,0-0.2,0-0.3,0
		c-0.7,0-1.2,0.5-1.3,1.2c0,0.1,0,0.3,0,0.5V31h-1V27.5z"/>
	<path d="M40.9,28.7c0,1.3,0.9,1.8,1.8,1.8c0.7,0,1.1-0.1,1.5-0.3l0.2,0.7c-0.3,0.2-0.9,0.3-1.8,0.3c-1.6,0-2.6-1.1-2.6-2.7
		s0.9-2.9,2.5-2.9c1.7,0,2.2,1.5,2.2,2.5c0,0.2,0,0.4,0,0.5h-3.8C40.9,28.6,40.9,28.7,40.9,28.7z M43.8,28c0-0.6-0.3-1.6-1.3-1.6
		S41.1,27.3,41,28H43.8z"/>
	<path d="M47,24.3v1.5h1.4v0.7H47v2.9c0,0.7,0.2,1,0.7,1c0.3,0,0.4,0,0.6-0.1V31c-0.2,0.1-0.5,0.1-0.9,0.1c-0.5,0-0.8-0.1-1-0.4
		c-0.3-0.3-0.4-0.8-0.4-1.4v-2.9h-0.8v-0.7H46v-1.3L47,24.3z"/>
	<path d="M49.8,28.7c0,1.3,0.9,1.8,1.8,1.8c0.7,0,1.1-0.1,1.5-0.3l0.2,0.7c-0.3,0.2-0.9,0.3-1.8,0.3c-1.6,0-2.6-1.1-2.6-2.7
		s0.9-2.9,2.5-2.9c1.7,0,2.2,1.5,2.2,2.5c0,0.2,0,0.4,0,0.5h-3.8C49.8,28.6,49.8,28.7,49.8,28.7z M52.6,28c0-0.6-0.3-1.6-1.3-1.6
		s-1.4,0.9-1.5,1.6H52.6z"/>
	<path d="M54.5,30.2c0.3,0.2,0.8,0.4,1.3,0.4c0.7,0,1-0.4,1-0.8c0-0.5-0.3-0.7-1-1c-1-0.3-1.4-0.9-1.4-1.5c0-0.9,0.7-1.6,1.8-1.6
		c0.5,0,1,0.2,1.3,0.3l-0.2,0.7c-0.2-0.1-0.6-0.3-1.1-0.3c-0.6,0-0.9,0.3-0.9,0.7c0,0.4,0.3,0.6,1,0.9c0.9,0.4,1.4,0.8,1.4,1.6
		c0,0.9-0.7,1.6-2,1.6c-0.6,0-1.1-0.1-1.5-0.4L54.5,30.2z"/>
	<path d="M60.1,24.3v1.5h1.4v0.7h-1.4v2.9c0,0.7,0.2,1,0.7,1c0.3,0,0.4,0,0.6-0.1V31c-0.2,0.1-0.5,0.1-0.9,0.1c-0.5,0-0.8-0.1-1-0.4
		c-0.3-0.3-0.4-0.8-0.4-1.4v-2.9h-0.8v-0.7h0.8v-1.3L60.1,24.3z"/>
	<path d="M67.6,31.2l-0.1-0.7l0,0c-0.3,0.4-0.9,0.8-1.6,0.8c-1.1,0-1.6-0.8-1.6-1.5c0-1.3,1.1-2,3.2-2v-0.1c0-0.4-0.1-1.2-1.2-1.2
		c-0.5,0-1,0.2-1.4,0.4l-0.2-0.6c0.4-0.3,1.1-0.5,1.7-0.5c1.6,0,2,1.1,2,2.2v2c0,0.5,0,0.9,0.1,1.3h-0.9V31.2z M67.5,28.5
		c-1.1,0-2.3,0.2-2.3,1.2c0,0.6,0.4,0.9,0.9,0.9c0.7,0,1.1-0.4,1.3-0.9c0-0.1,0.1-0.2,0.1-0.3V28.5z"/>
	<path d="M71,24.3v1.5h1.4v0.7H71v2.9c0,0.7,0.2,1,0.7,1c0.3,0,0.4,0,0.6-0.1V31c-0.2,0.1-0.5,0.1-0.9,0.1c-0.5,0-0.8-0.1-1-0.4
		c-0.3-0.3-0.4-0.8-0.4-1.4v-2.9h-0.8v-0.7H70v-1.3L71,24.3z"/>
	<path d="M75.2,31.2v-0.6l0.8-0.7c1.8-1.7,2.7-2.7,2.7-3.7c0-0.7-0.4-1.4-1.4-1.4c-0.6,0-1.2,0.3-1.5,0.6l-0.3-0.7
		c0.5-0.4,1.2-0.7,2-0.7c1.5,0,2.2,1.1,2.2,2.1c0,1.3-1,2.4-2.5,3.8l-0.6,0.5l0,0h3.2v0.8C79.8,31.2,75.2,31.2,75.2,31.2z"/>
	<path d="M85.5,27.5c0,2.4-0.9,3.8-2.5,3.8c-1.4,0-2.3-1.3-2.4-3.7c0-2.4,1-3.7,2.5-3.7C84.7,23.9,85.5,25.3,85.5,27.5z M81.6,27.7
		c0,1.9,0.6,2.9,1.5,2.9c1,0,1.5-1.2,1.5-3s-0.5-2.9-1.5-2.9C82.3,24.7,81.6,25.7,81.6,27.7z"/>
	<path d="M89.2,25.9l0.7,2.7c0.2,0.6,0.3,1.1,0.4,1.7l0,0c0.1-0.5,0.3-1.1,0.5-1.7l0.9-2.7h0.8l0.8,2.7c0.2,0.6,0.4,1.2,0.5,1.7l0,0
		c0.1-0.5,0.2-1.1,0.4-1.7l0.8-2.7h1l-1.7,5.3h-0.9l-0.8-2.5c-0.2-0.6-0.3-1.1-0.5-1.7l0,0c-0.1,0.6-0.3,1.2-0.5,1.8l-0.9,2.5h-0.9
		L88.2,26h1V25.9z"/>
	<path d="M97.3,28.7c0,1.3,0.9,1.8,1.8,1.8c0.7,0,1.1-0.1,1.5-0.3l0.2,0.7c-0.3,0.2-0.9,0.3-1.8,0.3c-1.6,0-2.6-1.1-2.6-2.7
		s0.9-2.9,2.5-2.9c1.7,0,2.2,1.5,2.2,2.5c0,0.2,0,0.4,0,0.5h-3.8C97.3,28.6,97.3,28.7,97.3,28.7z M100.1,28c0-0.6-0.3-1.6-1.3-1.6
		s-1.4,0.9-1.5,1.6H100.1z"/>
	<path d="M102.7,28.7c0,1.3,0.9,1.8,1.8,1.8c0.7,0,1.1-0.1,1.5-0.3l0.2,0.7c-0.3,0.2-0.9,0.3-1.8,0.3c-1.6,0-2.6-1.1-2.6-2.7
		s0.9-2.9,2.5-2.9c1.7,0,2.2,1.5,2.2,2.5c0,0.2,0,0.4,0,0.5h-3.8C102.7,28.6,102.7,28.7,102.7,28.7z M105.5,28
		c0-0.6-0.3-1.6-1.3-1.6s-1.4,0.9-1.5,1.6H105.5z"/>
	<path d="M108.5,28.3L108.5,28.3c0.2-0.2,0.3-0.4,0.5-0.6l1.6-1.8h1.2l-2.1,2.2l2.3,3.1h-1.2l-1.8-2.6l-0.5,0.5v2h-1v-7.8h1V28.3z"
		/>
	<path d="M112.4,30.2c0.3,0.2,0.8,0.4,1.3,0.4c0.7,0,1-0.4,1-0.8c0-0.5-0.3-0.7-1-1c-1-0.3-1.4-0.9-1.4-1.5c0-0.9,0.7-1.6,1.8-1.6
		c0.5,0,1,0.2,1.3,0.3l-0.2,0.7c-0.2-0.1-0.6-0.3-1.1-0.3c-0.6,0-0.9,0.3-0.9,0.7c0,0.4,0.3,0.6,1,0.9c0.9,0.4,1.4,0.8,1.4,1.6
		c0,0.9-0.7,1.6-2,1.6c-0.6,0-1.1-0.1-1.5-0.4L112.4,30.2z"/>
	<path d="M116.6,26.8c0-0.4,0.3-0.7,0.7-0.7c0.4,0,0.6,0.3,0.6,0.7c0,0.4-0.3,0.7-0.7,0.7C116.8,27.4,116.6,27.1,116.6,26.8z
		 M116.6,30.6c0-0.4,0.3-0.7,0.7-0.7c0.4,0,0.6,0.3,0.6,0.7c0,0.4-0.3,0.7-0.7,0.7C116.8,31.3,116.6,31,116.6,30.6z"/>
</g>
<g>
	<path d="M343.9,23.9c0.6-0.1,1.3-0.2,2-0.2c1.4,0,2.4,0.3,3,0.9c0.7,0.6,1,1.5,1,2.7s-0.4,2.2-1.1,2.9c-0.7,0.7-1.8,1.1-3.3,1.1
		c-0.7,0-1.3,0-1.7-0.1v-7.3C343.8,23.9,343.9,23.9,343.9,23.9z M344.9,30.4c0.2,0,0.6,0.1,1,0.1c2,0,3.2-1.1,3.2-3.1
		c0-1.7-1-2.9-3-2.9c-0.5,0-0.9,0-1.1,0.1v5.8C345,30.4,344.9,30.4,344.9,30.4z"/>
	<path d="M351.7,28.7c0,1.3,0.9,1.8,1.8,1.8c0.7,0,1.1-0.1,1.5-0.3l0.2,0.7c-0.3,0.2-0.9,0.3-1.8,0.3c-1.6,0-2.6-1.1-2.6-2.7
		s0.9-2.9,2.5-2.9c1.7,0,2.2,1.5,2.2,2.5c0,0.2,0,0.4,0,0.5h-3.8L351.7,28.7L351.7,28.7z M354.5,28c0-0.6-0.3-1.6-1.3-1.6
		s-1.4,0.9-1.5,1.6H354.5z"/>
	<path d="M360.3,31c-0.3,0.1-0.8,0.3-1.5,0.3c-1.6,0-2.7-1.1-2.7-2.7s1.1-2.8,2.9-2.8c0.6,0,1.1,0.1,1.3,0.3l-0.2,0.7
		c-0.2-0.1-0.6-0.3-1.1-0.3c-1.2,0-1.9,0.9-1.9,2c0,1.2,0.8,2,1.8,2c0.6,0,0.9-0.1,1.2-0.3L360.3,31z"/>
	<path d="M361.4,23.4h1v7.8h-1V23.4z"/>
	<path d="M364.9,24.4c0,0.3-0.2,0.6-0.6,0.6c-0.3,0-0.6-0.3-0.6-0.6c0-0.3,0.3-0.6,0.6-0.6C364.7,23.8,364.9,24,364.9,24.4z
		 M363.8,31.2v-5.3h1v5.3H363.8z"/>
	<path d="M366.3,27.3c0-0.5,0-1,0-1.4h0.9l0.1,0.9l0,0c0.3-0.5,0.9-1,1.8-1c0.7,0,1.9,0.4,1.9,2.3v3.2h-1v-3.1
		c0-0.9-0.3-1.6-1.2-1.6c-0.6,0-1.1,0.5-1.3,1c0,0.1-0.1,0.3-0.1,0.5v3.2h-1v-4H366.3z"/>
	<path d="M372.8,28.7c0,1.3,0.9,1.8,1.8,1.8c0.7,0,1.1-0.1,1.5-0.3l0.2,0.7c-0.3,0.2-0.9,0.3-1.8,0.3c-1.6,0-2.6-1.1-2.6-2.7
		s0.9-2.9,2.5-2.9c1.7,0,2.2,1.5,2.2,2.5c0,0.2,0,0.4,0,0.5h-3.8L372.8,28.7L372.8,28.7z M375.7,28c0-0.6-0.3-1.6-1.3-1.6
		s-1.4,0.9-1.5,1.6H375.7z"/>
	<path d="M382.3,23.4v6.4c0,0.5,0,1,0,1.4h-0.9v-0.9l0,0c-0.3,0.6-0.9,1-1.8,1c-1.3,0-2.3-1.1-2.3-2.7c0-1.8,1.1-2.9,2.4-2.9
		c0.8,0,1.4,0.4,1.6,0.8l0,0v-3.2h1L382.3,23.4L382.3,23.4z M381.3,28c0-0.1,0-0.3,0-0.4c-0.1-0.6-0.7-1.1-1.4-1.1
		c-1,0-1.6,0.9-1.6,2.1c0,1.1,0.5,2,1.6,2c0.6,0,1.2-0.4,1.4-1.2c0-0.1,0-0.3,0-0.4V28z"/>
</g>
<g>
	<path d="M163.5,19.4l0.4,0.5c-1.5,1.1-3.2,2.9-5,5.2s-3.2,4.5-4.2,6.6l-0.8,0.5c-0.6,0.4-1.1,0.8-1.3,1c-0.1-0.3-0.3-0.9-0.6-1.6
		l-0.3-0.7c-0.4-1-0.8-1.7-1.2-2.2s-0.8-0.8-1.2-0.9c0.8-0.8,1.4-1.2,2.1-1.2c0.5,0,1.1,0.7,1.8,2.2l0.3,0.7c1.2-2,2.7-3.9,4.6-5.8
		C159.9,21.8,161.7,20.4,163.5,19.4z"/>
</g>
<g>
	<path d="M169.15,31.51V24.3h2.06c0.4,0,0.77,0.04,1.11,0.11c0.33,0.07,0.62,0.19,0.85,0.36s0.42,0.38,0.55,0.65s0.2,0.61,0.2,1
		c0,0.38-0.06,0.71-0.19,0.99s-0.31,0.51-0.54,0.69s-0.52,0.32-0.84,0.41c-0.33,0.09-0.69,0.14-1.08,0.14h-1.19v2.86H169.15z
		 M170.06,27.91h1.08c0.63,0,1.1-0.12,1.4-0.36s0.46-0.61,0.46-1.13c0-0.52-0.16-0.88-0.48-1.08c-0.32-0.2-0.79-0.3-1.42-0.3h-1.03
		v2.87H170.06z"/>
	<path d="M177.1,31.64c-0.33,0-0.64-0.06-0.94-0.19s-0.56-0.31-0.79-0.54s-0.41-0.53-0.54-0.88c-0.14-0.35-0.2-0.74-0.2-1.18
		c0-0.45,0.07-0.85,0.2-1.19s0.32-0.64,0.54-0.89c0.23-0.24,0.49-0.42,0.79-0.55c0.3-0.12,0.61-0.19,0.94-0.19s0.64,0.06,0.94,0.19
		c0.3,0.12,0.56,0.31,0.79,0.55s0.41,0.54,0.54,0.89s0.2,0.75,0.2,1.19s-0.07,0.83-0.2,1.18c-0.14,0.35-0.32,0.64-0.54,0.88
		c-0.23,0.24-0.49,0.42-0.79,0.54S177.43,31.64,177.1,31.64z M177.1,30.9c0.23,0,0.44-0.05,0.63-0.15s0.35-0.24,0.49-0.42
		s0.24-0.39,0.31-0.64c0.07-0.25,0.11-0.53,0.11-0.84s-0.04-0.59-0.11-0.84s-0.18-0.47-0.31-0.65c-0.14-0.18-0.3-0.32-0.49-0.42
		s-0.4-0.15-0.63-0.15c-0.23,0-0.44,0.05-0.63,0.15s-0.35,0.24-0.49,0.42s-0.24,0.4-0.31,0.65s-0.11,0.53-0.11,0.84
		s0.04,0.59,0.11,0.84s0.18,0.46,0.31,0.64s0.3,0.32,0.49,0.42C176.67,30.85,176.88,30.9,177.1,30.9z"/>
	<path d="M182.38,31.64c-0.38,0-0.74-0.07-1.09-0.21c-0.34-0.14-0.65-0.31-0.9-0.53l0.45-0.61c0.23,0.19,0.48,0.34,0.72,0.46
		c0.25,0.12,0.53,0.18,0.85,0.18c0.35,0,0.62-0.08,0.79-0.24s0.26-0.36,0.26-0.59c0-0.14-0.04-0.26-0.11-0.36s-0.17-0.19-0.28-0.27
		s-0.24-0.14-0.39-0.2c-0.15-0.06-0.29-0.12-0.44-0.18c-0.19-0.07-0.38-0.14-0.57-0.23c-0.19-0.08-0.36-0.19-0.51-0.31
		s-0.27-0.26-0.37-0.42s-0.14-0.36-0.14-0.58c0-0.21,0.04-0.41,0.13-0.6c0.08-0.19,0.21-0.35,0.36-0.48s0.35-0.24,0.58-0.32
		s0.48-0.12,0.77-0.12c0.34,0,0.65,0.06,0.93,0.18s0.53,0.26,0.73,0.43l-0.43,0.57c-0.18-0.14-0.37-0.25-0.57-0.34
		c-0.2-0.09-0.41-0.13-0.65-0.13c-0.34,0-0.58,0.08-0.74,0.23s-0.24,0.33-0.24,0.54c0,0.12,0.03,0.23,0.1,0.32s0.15,0.17,0.26,0.24
		s0.24,0.13,0.38,0.19s0.29,0.11,0.45,0.17c0.19,0.07,0.38,0.15,0.58,0.23c0.19,0.08,0.37,0.18,0.52,0.3s0.28,0.27,0.38,0.45
		s0.15,0.39,0.15,0.64c0,0.22-0.04,0.43-0.13,0.62s-0.21,0.36-0.37,0.51s-0.37,0.26-0.62,0.35C182.98,31.6,182.7,31.64,182.38,31.64
		z"/>
	<path d="M186.06,25.07c-0.18,0-0.32-0.06-0.45-0.17c-0.12-0.11-0.18-0.25-0.18-0.42c0-0.18,0.06-0.32,0.18-0.42
		c0.12-0.11,0.27-0.16,0.45-0.16s0.32,0.05,0.45,0.16c0.12,0.11,0.18,0.25,0.18,0.42s-0.06,0.31-0.18,0.42
		C186.38,25.01,186.23,25.07,186.06,25.07z M185.59,31.51v-5.35h0.9v5.35H185.59z"/>
	<path d="M189.98,31.64c-0.29,0-0.53-0.04-0.72-0.13s-0.35-0.21-0.47-0.36c-0.12-0.15-0.21-0.34-0.26-0.56s-0.08-0.46-0.08-0.73
		V26.9h-0.79v-0.68l0.84-0.06l0.11-1.5h0.76v1.5h1.44v0.74h-1.44v2.97c0,0.33,0.06,0.58,0.18,0.76s0.34,0.27,0.64,0.27
		c0.1,0,0.2-0.01,0.31-0.04s0.21-0.06,0.3-0.1l0.18,0.68c-0.15,0.05-0.31,0.1-0.48,0.14C190.32,31.62,190.15,31.64,189.98,31.64z"/>
	<path d="M192.48,25.07c-0.18,0-0.32-0.06-0.45-0.17c-0.12-0.11-0.18-0.25-0.18-0.42c0-0.18,0.06-0.32,0.18-0.42
		c0.12-0.11,0.27-0.16,0.45-0.16s0.32,0.05,0.45,0.16c0.12,0.11,0.18,0.25,0.18,0.42s-0.06,0.31-0.18,0.42
		C192.8,25.01,192.66,25.07,192.48,25.07z M192.02,31.51v-5.35h0.9v5.35H192.02z"/>
	<path d="M195.88,31.51l-1.93-5.35h0.94l1.01,3.04c0.08,0.26,0.16,0.53,0.25,0.79c0.08,0.26,0.17,0.52,0.25,0.78h0.04
		c0.08-0.26,0.16-0.52,0.24-0.78s0.16-0.53,0.24-0.79l1.01-3.04h0.89l-1.89,5.35H195.88z"/>
	<path d="M201.98,31.64c-0.36,0-0.69-0.06-1.01-0.19c-0.31-0.13-0.58-0.31-0.81-0.55s-0.41-0.53-0.54-0.87
		c-0.13-0.34-0.2-0.74-0.2-1.18s0.07-0.83,0.2-1.18c0.14-0.35,0.32-0.64,0.54-0.89s0.48-0.43,0.76-0.56
		c0.29-0.13,0.58-0.19,0.89-0.19c0.34,0,0.64,0.06,0.91,0.18s0.49,0.29,0.67,0.51s0.32,0.48,0.41,0.79s0.14,0.65,0.14,1.03
		c0,0.1,0,0.19-0.01,0.28c0,0.09-0.01,0.17-0.03,0.24h-3.61c0.04,0.57,0.21,1.03,0.53,1.36c0.32,0.33,0.73,0.5,1.25,0.5
		c0.26,0,0.49-0.04,0.71-0.12s0.42-0.18,0.62-0.3l0.32,0.59c-0.23,0.15-0.5,0.28-0.78,0.38C202.68,31.59,202.35,31.64,201.98,31.64z
		 M200.3,28.41h2.86c0-0.54-0.12-0.96-0.35-1.24s-0.56-0.42-0.97-0.42c-0.19,0-0.37,0.04-0.54,0.11s-0.33,0.18-0.47,0.32
		s-0.25,0.32-0.35,0.52C200.39,27.91,200.33,28.15,200.3,28.41z"/>
</g>
<g>
	<path d="M262.79,30.6v-7.22h0.95l2.61,4.53l0.78,1.5h0.04c-0.02-0.37-0.05-0.75-0.07-1.14c-0.03-0.39-0.04-0.78-0.04-1.16v-3.73
		h0.87v7.22h-0.95l-2.62-4.54l-0.78-1.48h-0.04c0.03,0.37,0.06,0.74,0.08,1.12c0.03,0.38,0.04,0.76,0.04,1.14v3.77h-0.87V30.6z"/>
	<path d="M271.98,30.73c-0.36,0-0.7-0.06-1.01-0.19c-0.31-0.13-0.58-0.31-0.81-0.55s-0.41-0.53-0.54-0.87
		c-0.13-0.35-0.2-0.74-0.2-1.18s0.07-0.83,0.2-1.18c0.14-0.35,0.32-0.64,0.54-0.89s0.48-0.43,0.76-0.56
		c0.29-0.13,0.58-0.19,0.89-0.19c0.34,0,0.64,0.06,0.91,0.18s0.49,0.29,0.67,0.51c0.18,0.22,0.32,0.48,0.41,0.79
		c0.09,0.31,0.14,0.65,0.14,1.03c0,0.1,0,0.19,0,0.28s-0.01,0.17-0.03,0.24h-3.61c0.04,0.57,0.21,1.03,0.53,1.36s0.74,0.5,1.25,0.5
		c0.26,0,0.49-0.04,0.71-0.12s0.42-0.18,0.62-0.3l0.32,0.59c-0.23,0.15-0.5,0.28-0.78,0.38C272.67,30.68,272.35,30.73,271.98,30.73z
		 M270.3,27.5h2.86c0-0.54-0.12-0.96-0.35-1.24s-0.55-0.42-0.97-0.42c-0.19,0-0.37,0.04-0.54,0.11s-0.33,0.18-0.47,0.32
		s-0.25,0.32-0.35,0.52C270.39,27,270.33,27.23,270.3,27.5z"/>
	<path d="M276.96,33.06c-0.33,0-0.63-0.03-0.9-0.09s-0.5-0.16-0.7-0.28c-0.19-0.12-0.34-0.27-0.45-0.45
		c-0.11-0.18-0.16-0.38-0.16-0.62c0-0.23,0.07-0.44,0.21-0.65c0.14-0.21,0.33-0.39,0.57-0.56v-0.04c-0.13-0.08-0.24-0.19-0.33-0.34
		c-0.09-0.14-0.14-0.32-0.14-0.53c0-0.23,0.06-0.43,0.19-0.59c0.12-0.17,0.26-0.3,0.4-0.4v-0.04c-0.18-0.15-0.34-0.34-0.48-0.59
		s-0.21-0.53-0.21-0.85c0-0.29,0.05-0.56,0.16-0.79c0.11-0.23,0.25-0.43,0.43-0.6s0.4-0.29,0.64-0.38c0.25-0.09,0.5-0.13,0.78-0.13
		c0.15,0,0.28,0.01,0.41,0.04s0.24,0.06,0.35,0.09h1.86v0.69h-1.1c0.12,0.12,0.23,0.28,0.31,0.47c0.08,0.19,0.13,0.4,0.13,0.63
		c0,0.29-0.05,0.54-0.15,0.78s-0.24,0.43-0.42,0.58s-0.38,0.28-0.62,0.37s-0.49,0.13-0.76,0.13c-0.13,0-0.27-0.02-0.41-0.05
		c-0.14-0.03-0.27-0.08-0.4-0.14c-0.09,0.08-0.18,0.17-0.24,0.27c-0.07,0.1-0.1,0.22-0.1,0.37c0,0.17,0.07,0.31,0.2,0.42
		s0.38,0.17,0.75,0.17h1.03c0.62,0,1.09,0.1,1.4,0.3c0.31,0.2,0.47,0.53,0.47,0.97c0,0.25-0.06,0.49-0.19,0.71
		c-0.12,0.22-0.3,0.42-0.54,0.59s-0.52,0.3-0.85,0.4C277.76,33.01,277.38,33.06,276.96,33.06z M277.1,32.44
		c0.26,0,0.49-0.03,0.7-0.09c0.21-0.06,0.39-0.14,0.53-0.24c0.15-0.1,0.26-0.21,0.34-0.35c0.08-0.13,0.12-0.27,0.12-0.41
		c0-0.25-0.09-0.42-0.28-0.52c-0.18-0.1-0.45-0.14-0.8-0.14h-0.92c-0.1,0-0.21,0-0.33-0.02c-0.12-0.01-0.24-0.03-0.36-0.07
		c-0.19,0.14-0.33,0.29-0.42,0.44s-0.13,0.31-0.13,0.46c0,0.29,0.14,0.51,0.41,0.68S276.61,32.44,277.1,32.44z M276.96,28.3
		c0.15,0,0.3-0.03,0.43-0.09s0.26-0.14,0.36-0.25c0.11-0.11,0.19-0.24,0.25-0.4s0.09-0.34,0.09-0.53c0-0.4-0.11-0.7-0.33-0.92
		s-0.49-0.32-0.8-0.32c-0.32,0-0.58,0.11-0.8,0.32c-0.22,0.22-0.33,0.52-0.33,0.92c0,0.2,0.03,0.38,0.09,0.53
		c0.06,0.16,0.14,0.29,0.25,0.4c0.11,0.11,0.23,0.19,0.36,0.25C276.67,28.27,276.81,28.3,276.96,28.3z"/>
	<path d="M281.76,30.73c-0.45,0-0.82-0.13-1.12-0.4s-0.45-0.64-0.45-1.12c0-0.59,0.26-1.04,0.78-1.35s1.35-0.53,2.5-0.65
		c0-0.17-0.02-0.33-0.05-0.49s-0.09-0.3-0.17-0.43c-0.08-0.12-0.19-0.23-0.34-0.3c-0.14-0.08-0.32-0.12-0.54-0.12
		c-0.31,0-0.6,0.06-0.87,0.18s-0.51,0.25-0.73,0.4l-0.35-0.63c0.25-0.16,0.55-0.32,0.91-0.47s0.75-0.23,1.19-0.23
		c0.65,0,1.13,0.2,1.42,0.6s0.44,0.93,0.44,1.6v3.28h-0.75l-0.08-0.64h-0.03c-0.26,0.21-0.53,0.39-0.82,0.54
		C282.41,30.66,282.1,30.73,281.76,30.73z M282.02,30.01c0.26,0,0.5-0.06,0.73-0.18s0.47-0.3,0.73-0.53v-1.49
		c-0.45,0.06-0.82,0.13-1.13,0.21c-0.3,0.08-0.55,0.18-0.74,0.29s-0.32,0.24-0.41,0.38s-0.13,0.3-0.13,0.47
		c0,0.31,0.09,0.53,0.27,0.66S281.76,30.01,282.02,30.01z"/>
	<path d="M287.6,30.73c-0.29,0-0.53-0.04-0.72-0.13s-0.35-0.21-0.47-0.36c-0.12-0.15-0.21-0.34-0.26-0.56
		c-0.05-0.22-0.08-0.46-0.08-0.73v-2.96h-0.79v-0.68l0.84-0.06l0.11-1.5h0.76v1.5h1.44v0.74h-1.44v2.97c0,0.33,0.06,0.59,0.18,0.77
		S287.5,30,287.81,30c0.09,0,0.2-0.01,0.31-0.04s0.21-0.06,0.3-0.1l0.18,0.68c-0.15,0.05-0.31,0.1-0.48,0.14
		C287.94,30.71,287.77,30.73,287.6,30.73z"/>
	<path d="M290.1,24.15c-0.18,0-0.32-0.06-0.45-0.17c-0.12-0.11-0.18-0.25-0.18-0.42c0-0.18,0.06-0.32,0.18-0.42
		c0.12-0.11,0.27-0.16,0.45-0.16s0.32,0.05,0.45,0.16c0.12,0.11,0.18,0.25,0.18,0.42s-0.06,0.31-0.18,0.42
		C290.42,24.1,290.27,24.15,290.1,24.15z M289.64,30.6v-5.35h0.9v5.35H289.64z"/>
	<path d="M293.5,30.6l-1.92-5.35h0.93l1.01,3.04c0.08,0.26,0.16,0.53,0.25,0.79c0.08,0.26,0.17,0.52,0.25,0.78h0.04
		c0.08-0.26,0.16-0.52,0.24-0.78s0.16-0.53,0.24-0.79l1.01-3.04h0.89l-1.89,5.35H293.5z"/>
	<path d="M299.6,30.73c-0.36,0-0.7-0.06-1.01-0.19c-0.31-0.13-0.58-0.31-0.81-0.55s-0.41-0.53-0.54-0.87
		c-0.13-0.35-0.2-0.74-0.2-1.18s0.07-0.83,0.2-1.18c0.14-0.35,0.32-0.64,0.54-0.89s0.48-0.43,0.76-0.56
		c0.29-0.13,0.58-0.19,0.89-0.19c0.34,0,0.64,0.06,0.91,0.18s0.49,0.29,0.67,0.51c0.18,0.22,0.32,0.48,0.41,0.79
		c0.09,0.31,0.14,0.65,0.14,1.03c0,0.1,0,0.19,0,0.28s-0.01,0.17-0.03,0.24h-3.61c0.04,0.57,0.21,1.03,0.53,1.36s0.74,0.5,1.25,0.5
		c0.26,0,0.49-0.04,0.71-0.12s0.42-0.18,0.62-0.3l0.32,0.59c-0.23,0.15-0.5,0.28-0.78,0.38C300.3,30.68,299.97,30.73,299.6,30.73z
		 M297.92,27.5h2.86c0-0.54-0.12-0.96-0.35-1.24s-0.55-0.42-0.97-0.42c-0.19,0-0.37,0.04-0.54,0.11s-0.33,0.18-0.47,0.32
		s-0.25,0.32-0.35,0.52C298.01,27,297.95,27.23,297.92,27.5z"/>
</g>
</svg>
