<svg version="1.1" xmlns="http://www.w3.org/2000/svg" xmlns:xlink="http://www.w3.org/1999/xlink" x="0" y="0" width="595.276" height="368.504" viewBox="0 0 595.276 368.504" xml:space="preserve"><defs><path id="a" d="M43.228 109.284h10.63v135.417h-10.63l20.835 31.504 21.685-31.504h-10.63V109.284h10.63L64.913 77.78z"/></defs><clipPath id="b"><use xlink:href="#a" overflow="visible"/></clipPath><linearGradient id="c" gradientUnits="userSpaceOnUse" x1="0" y1="368.503" x2="1" y2="368.503" gradientTransform="rotate(-90 -36389.781 36666.07) scale(198.4252)"><stop offset="0" stop-color="#e6e7e8"/><stop offset="1" stop-color="#77787b"/></linearGradient><path clip-path="url(#b)" fill="url(#c)" d="M43.228 77.78h42.52v198.425h-42.52z"/><defs><path id="d" d="M382.338 109.284h10.63v135.417h-10.63l20.834 31.504 21.685-31.504h-10.63V109.284h10.63L404.023 77.78z"/></defs><clipPath id="e"><use xlink:href="#d" overflow="visible"/></clipPath><linearGradient id="f" gradientUnits="userSpaceOnUse" x1="0" y1="368.503" x2="1" y2="368.503" gradientTransform="rotate(-90 -36220.219 36496.508) scale(198.4252)"><stop offset="0" stop-color="#e6e7e8"/><stop offset="1" stop-color="#77787b"/></linearGradient><path clip-path="url(#e)" fill="url(#f)" d="M382.338 77.78h42.52v198.425h-42.52z"/><defs><path id="g" d="M496.851 109.284h10.629v135.417h-10.629l20.834 31.504 21.685-31.504h-10.63V109.284h10.63L518.536 77.78z"/></defs><clipPath id="h"><use xlink:href="#g" overflow="visible"/></clipPath><linearGradient id="i" gradientUnits="userSpaceOnUse" x1="0" y1="368.503" x2="1" y2="368.503" gradientTransform="rotate(-90 -36162.969 36439.258) scale(198.4252)"><stop offset="0" stop-color="#e6e7e8"/><stop offset="1" stop-color="#77787b"/></linearGradient><path clip-path="url(#h)" fill="url(#i)" d="M496.851 77.78h42.52v198.425h-42.52z"/><defs><path id="j" d="M112.551 332.897h226.772L225.937 21.087z"/></defs><clipPath id="k"><use xlink:href="#j" overflow="visible"/></clipPath><linearGradient id="l" gradientUnits="userSpaceOnUse" x1="0" y1="368.504" x2="1" y2="368.504" gradientTransform="rotate(-90 -57172.485 57505.366) scale(311.811)"><stop offset="0" stop-color="#e6e7e8"/><stop offset="1" stop-color="#77787b"/></linearGradient><path clip-path="url(#k)" fill="url(#l)" d="M112.551 21.087h226.772v311.811H112.551z"/><defs><path id="m" d="M0 0h595.276v368.504H0z"/></defs><clipPath id="n"><use xlink:href="#m" overflow="visible"/></clipPath><path clip-path="url(#n)" d="M564.67 14.042c0-1.787-1.224-2.182-2.195-2.182-1.081 0-1.669.73-1.896 1.066h-.024v-.886h-.995v6.274h1.055v-3.419c0-1.705 1.057-2.089 1.657-2.089 1.032 0 1.344.552 1.344 1.644v3.864h1.056v-4.272zm-11.053 1.128c0-.84.313-2.401 1.825-2.401s1.824 1.561 1.824 2.401c0 .84-.312 2.401-1.824 2.401s-1.825-1.561-1.825-2.401m-1.091 0c0 1.62.911 3.311 2.916 3.311 2.004 0 2.915-1.691 2.915-3.311 0-1.621-.911-3.311-2.915-3.311s-2.916 1.69-2.916 3.311m-8.917-.012c0-.805.084-2.353 1.717-2.353 1.524 0 1.692 1.645 1.692 2.665 0 1.668-1.044 2.113-1.716 2.113-1.153 0-1.693-1.045-1.693-2.425m4.477-5.46h-1.056v3.143l-.023.084c-.252-.36-.732-1.066-1.872-1.066-1.669 0-2.616 1.366-2.616 3.131 0 1.5.624 3.503 2.76 3.503.612 0 1.332-.192 1.788-1.043h.024v.863h.995V9.698zm-11.053 4.981c0-.973.769-1.874 1.741-1.874 1.284 0 1.692.901 1.752 1.874h-3.493zm3.446 1.667c-.036.468-.624 1.237-1.62 1.237-1.213 0-1.825-.757-1.825-2.066h4.584c0-2.22-.887-3.658-2.698-3.658-2.077 0-3.013 1.546-3.013 3.49 0 1.813 1.043 3.144 2.809 3.144 1.008 0 1.416-.24 1.704-.431.791-.528 1.079-1.416 1.114-1.716h-1.055zm-5.689-2.521c0-.312-.156-1.966-2.399-1.966-1.237 0-2.376.622-2.376 2.002 0 .865.576 1.309 1.451 1.525l1.225.3c.9.228 1.248.396 1.248.9 0 .696-.684.997-1.439.997-1.489 0-1.634-.793-1.669-1.285h-1.02c.036.756.216 2.195 2.7 2.195 1.416 0 2.483-.779 2.483-2.075 0-.852-.455-1.332-1.764-1.656l-1.056-.264c-.817-.205-1.142-.325-1.142-.841 0-.78.925-.888 1.249-.888 1.332 0 1.477.66 1.488 1.056h1.021zm-6 0c0-.312-.156-1.966-2.399-1.966-1.237 0-2.376.622-2.376 2.002 0 .865.576 1.309 1.451 1.525l1.225.3c.9.228 1.248.396 1.248.9 0 .696-.684.997-1.439.997-1.489 0-1.634-.793-1.669-1.285h-1.02c.036.756.216 2.195 2.7 2.195 1.416 0 2.483-.779 2.483-2.075 0-.852-.455-1.332-1.764-1.656l-1.056-.264c-.817-.205-1.142-.325-1.142-.841 0-.78.925-.888 1.249-.888 1.332 0 1.477.66 1.488 1.056h1.021zm-6.168 4.488v-6.274h-1.056v3.456c0 .912-.396 2.088-1.728 2.088-.686 0-1.213-.348-1.213-1.38v-4.164h-1.056v4.512c0 1.499 1.115 1.942 2.039 1.942 1.01 0 1.549-.383 1.993-1.114l.024.024v.91h.997zm-6.144-4.164c-.084-1.092-.708-2.29-2.352-2.29-2.076 0-3.012 1.546-3.012 3.491 0 1.812 1.043 3.143 2.808 3.143 1.836 0 2.448-1.403 2.556-2.399h-1.02c-.181.96-.792 1.489-1.5 1.489-1.452 0-1.717-1.333-1.717-2.413 0-1.117.421-2.365 1.729-2.365.888 0 1.356.504 1.488 1.344h1.02zm-10.884 1.021c0-.84.312-2.401 1.825-2.401 1.512 0 1.823 1.561 1.823 2.401 0 .84-.312 2.401-1.823 2.401-1.514 0-1.825-1.561-1.825-2.401m-1.091 0c0 1.62.911 3.311 2.916 3.311 2.004 0 2.915-1.691 2.915-3.311 0-1.621-.911-3.311-2.915-3.311-2.005 0-2.916 1.69-2.916 3.311m-.253-2.257v-.874h-1.057v-.781c0-.505.168-.733.624-.733.132 0 .3.012.433.024v-.946a6.745 6.745 0 0 0-.48-.023c-1.031 0-1.631.431-1.631 1.378v1.082h-.864v.874h.864v5.4h1.055v-5.4h1.056zm-11.544 1.766c0-.973.768-1.874 1.74-1.874 1.284 0 1.692.901 1.752 1.874h-3.492zm3.444 1.667c-.036.468-.624 1.237-1.62 1.237-1.213 0-1.824-.757-1.824-2.066h4.584c0-2.22-.888-3.658-2.699-3.658-2.077 0-3.012 1.546-3.012 3.49 0 1.813 1.043 3.144 2.808 3.144 1.008 0 1.416-.24 1.704-.431.792-.528 1.079-1.416 1.115-1.716h-1.056zm-6.829-1.68c0-.912.624-1.68 1.608-1.68h.396v-1.09a.835.835 0 0 0-.276-.036c-.792 0-1.344.491-1.764 1.222h-.024V12.04h-.995v6.274h1.055v-3.648zm-7.139.504c0-.84.313-2.401 1.825-2.401s1.824 1.561 1.824 2.401c0 .84-.313 2.401-1.824 2.401-1.513 0-1.825-1.561-1.825-2.401m-1.091 0c0 1.62.911 3.311 2.916 3.311 2.004 0 2.915-1.691 2.915-3.311 0-1.621-.911-3.311-2.915-3.311-2.005 0-2.916 1.69-2.916 3.311m-1.285 3.143V9.698h-1.655l-2.447 7.285h-.024l-2.461-7.285h-1.667v8.615h1.127v-5.086c0-.254-.024-1.346-.024-2.138h.024l2.425 7.224h1.152l2.424-7.236h.024c0 .804-.024 1.896-.024 2.148v5.088h1.126z"/><text transform="translate(564.67 18.314)" font-family="'HelveticaLTStd-Roman'" font-size="12"></text><g><defs><path id="o" d="M0 0h595.276v368.504H0z"/></defs><clipPath id="p"><use xlink:href="#o" overflow="visible"/></clipPath><path clip-path="url(#p)" d="M562.156 28.226c0-.312-.156-1.967-2.4-1.967-1.236 0-2.375.623-2.375 2.003 0 .864.575 1.308 1.451 1.524l1.224.3c.901.229 1.249.397 1.249.901 0 .696-.684.996-1.44.996-1.488 0-1.633-.792-1.668-1.284h-1.02c.036.756.216 2.195 2.699 2.195 1.417 0 2.483-.779 2.483-2.075 0-.853-.455-1.333-1.763-1.657l-1.057-.264c-.816-.204-1.14-.324-1.14-.84 0-.78.924-.888 1.247-.888 1.333 0 1.478.66 1.489 1.056h1.021zm-10.428.853c0-.973.769-1.873 1.74-1.873 1.285 0 1.693.9 1.753 1.873h-3.493zm3.445 1.667c-.036.469-.624 1.237-1.621 1.237-1.212 0-1.824-.756-1.824-2.065h4.584c0-2.22-.887-3.659-2.699-3.659-2.076 0-3.012 1.547-3.012 3.491 0 1.813 1.043 3.144 2.808 3.144 1.009 0 1.417-.24 1.705-.432.791-.527 1.078-1.416 1.114-1.716h-1.055zm-5.329-2.196c-.084-1.092-.708-2.291-2.352-2.291-2.076 0-3.012 1.547-3.012 3.491 0 1.813 1.043 3.144 2.808 3.144 1.836 0 2.448-1.403 2.556-2.399h-1.02c-.181.96-.792 1.488-1.5 1.488-1.452 0-1.717-1.332-1.717-2.413 0-1.116.421-2.364 1.729-2.364.888 0 1.355.504 1.488 1.344h1.02zm-6.529-4.451h-1.055v1.198h1.055v-1.198zm0 2.339h-1.055v6.275h1.055v-6.275zm-4.882 5.113h-.023l-1.632-5.112h-1.225l2.292 6.275h1.127l2.388-6.275h-1.151l-1.776 5.112zm-5.353-2.485c0-.912.624-1.68 1.607-1.68h.396v-1.091a.858.858 0 0 0-.276-.036c-.792 0-1.344.491-1.764 1.223h-.024v-1.043h-.994v6.275h1.055v-3.648zm-7.044.013c0-.973.768-1.873 1.741-1.873 1.283 0 1.691.9 1.752 1.873h-3.493zm3.444 1.667c-.035.469-.624 1.237-1.619 1.237-1.214 0-1.825-.756-1.825-2.065h4.584c0-2.22-.888-3.659-2.699-3.659-2.077 0-3.012 1.547-3.012 3.491 0 1.813 1.043 3.144 2.808 3.144 1.008 0 1.416-.24 1.704-.432.791-.527 1.079-1.416 1.115-1.716h-1.056zm-5.688-2.52c0-.312-.156-1.967-2.399-1.967-1.236 0-2.376.623-2.376 2.003 0 .864.575 1.308 1.451 1.524l1.226.3c.899.229 1.247.397 1.247.901 0 .696-.684.996-1.439.996-1.489 0-1.633-.792-1.669-1.284h-1.02c.036.756.217 2.195 2.7 2.195 1.416 0 2.483-.779 2.483-2.075 0-.853-.456-1.333-1.764-1.657l-1.057-.264c-.816-.204-1.14-.324-1.14-.84 0-.78.924-.888 1.249-.888 1.332 0 1.476.66 1.487 1.056h1.021zm-13.764.853c0-.973.768-1.873 1.74-1.873 1.284 0 1.692.9 1.752 1.873h-3.492zm3.445 1.667c-.036.469-.624 1.237-1.62 1.237-1.213 0-1.824-.756-1.824-2.065h4.584c0-2.22-.888-3.659-2.699-3.659-2.077 0-3.013 1.547-3.013 3.491 0 1.813 1.044 3.144 2.809 3.144 1.008 0 1.416-.24 1.704-.432.791-.527 1.079-1.416 1.115-1.716h-1.056zm-7.776.805h-.024l-1.632-5.112h-1.225l2.293 6.275h1.127l2.388-6.275h-1.152l-1.775 5.112zm-3.781-7.452h-1.055v1.198h1.055v-1.198zm0 2.339h-1.055v6.275h1.055v-6.275zm-2.112.875v-.875h-1.008v-1.752h-1.055v1.752h-.853v.875h.853v4.141c0 .756.228 1.343 1.271 1.343.108 0 .408-.048.792-.084v-.827h-.372c-.216 0-.636 0-.636-.492v-4.081h1.008zm-5.147 3.23c0 .84-.96 1.476-1.944 1.476-.793 0-1.141-.408-1.141-1.092 0-.792.828-.949 1.345-1.021 1.308-.168 1.572-.264 1.74-.396v1.033zm-2.893-2.197c.072-.48.24-1.212 1.441-1.212.996 0 1.476.36 1.476 1.02 0 .624-.3.72-.552.744l-1.741.216c-1.751.216-1.907 1.441-1.907 1.969 0 1.08.815 1.811 1.968 1.811 1.225 0 1.86-.575 2.269-1.019.036.479.18.959 1.115.959.24 0 .396-.072.576-.12v-.767c-.12.024-.252.048-.349.048-.216 0-.348-.108-.348-.372V28.01c0-1.607-1.823-1.751-2.327-1.751-1.549 0-2.544.587-2.592 2.087h.971zm-3.612.72c0-.912.623-1.68 1.607-1.68h.396v-1.091a.858.858 0 0 0-.276-.036c-.792 0-1.344.491-1.764 1.223h-.024v-1.043h-.994v6.275h1.055v-3.648zm-2.784 3.648v-6.275h-1.055v3.456c0 .912-.396 2.088-1.729 2.088-.685 0-1.213-.348-1.213-1.38v-4.164h-1.054v4.512c0 1.499 1.113 1.943 2.038 1.943 1.009 0 1.549-.384 1.992-1.115l.024.024v.911h.997zm-6.144-4.164c-.084-1.092-.708-2.291-2.352-2.291-2.076 0-3.01 1.547-3.01 3.491 0 1.813 1.042 3.144 2.806 3.144 1.836 0 2.448-1.403 2.556-2.399h-1.02c-.181.96-.792 1.488-1.5 1.488-1.452 0-1.716-1.332-1.716-2.413 0-1.116.42-2.364 1.728-2.364.888 0 1.356.504 1.488 1.344h1.02zM564.67 325.853c0-1.787-1.224-2.183-2.195-2.183-1.081 0-1.669.73-1.896 1.066h-.024v-.886h-.995v6.273h1.055v-3.419c0-1.705 1.057-2.089 1.657-2.089 1.032 0 1.344.552 1.344 1.645v3.863h1.056v-4.27zm-11.053 1.128c0-.84.313-2.401 1.825-2.401s1.824 1.562 1.824 2.401-.312 2.4-1.824 2.4-1.825-1.56-1.825-2.4m-1.091 0c0 1.62.911 3.311 2.916 3.311 2.004 0 2.915-1.69 2.915-3.311s-.911-3.312-2.915-3.312c-2.004.001-2.916 1.691-2.916 3.312m-8.917-.011c0-.806.084-2.354 1.717-2.354 1.524 0 1.692 1.646 1.692 2.665 0 1.668-1.044 2.113-1.716 2.113-1.153.001-1.693-1.044-1.693-2.424m4.477-5.46h-1.056v3.143l-.023.084c-.252-.36-.732-1.066-1.872-1.066-1.669 0-2.616 1.366-2.616 3.132 0 1.5.624 3.503 2.76 3.503.612 0 1.332-.192 1.788-1.043h.024v.862h.995v-8.615zm-11.053 4.98c0-.973.769-1.874 1.741-1.874 1.284 0 1.692.901 1.752 1.874h-3.493zm3.446 1.667c-.036.468-.624 1.237-1.62 1.237-1.213 0-1.825-.757-1.825-2.066h4.584c0-2.22-.887-3.658-2.698-3.658-2.077 0-3.013 1.547-3.013 3.49 0 1.813 1.043 3.145 2.809 3.145 1.008 0 1.416-.24 1.704-.432.791-.527 1.079-1.416 1.114-1.716h-1.055zm-5.689-2.52c0-.313-.156-1.967-2.399-1.967-1.237 0-2.376.622-2.376 2.002 0 .865.576 1.31 1.451 1.525l1.225.3c.9.229 1.248.396 1.248.9 0 .696-.684.997-1.439.997-1.489 0-1.634-.793-1.669-1.285h-1.02c.036.756.216 2.195 2.7 2.195 1.416 0 2.483-.779 2.483-2.075 0-.853-.455-1.332-1.764-1.656l-1.056-.264c-.817-.205-1.142-.325-1.142-.841 0-.78.925-.889 1.249-.889 1.332 0 1.477.66 1.488 1.057h1.021zm-6 0c0-.313-.156-1.967-2.399-1.967-1.237 0-2.376.622-2.376 2.002 0 .865.576 1.31 1.451 1.525l1.225.3c.9.229 1.248.396 1.248.9 0 .696-.684.997-1.439.997-1.489 0-1.634-.793-1.669-1.285h-1.02c.036.756.216 2.195 2.7 2.195 1.416 0 2.483-.779 2.483-2.075 0-.853-.455-1.332-1.764-1.656l-1.056-.264c-.817-.205-1.142-.325-1.142-.841 0-.78.925-.889 1.249-.889 1.332 0 1.477.66 1.488 1.057h1.021zm-6.168 4.487v-6.273h-1.056v3.456c0 .912-.396 2.088-1.728 2.088-.686 0-1.213-.349-1.213-1.381v-4.163h-1.056v4.512c0 1.499 1.115 1.942 2.039 1.942 1.01 0 1.549-.384 1.993-1.114l.024.023v.91h.997zm-6.144-4.164c-.084-1.092-.708-2.29-2.352-2.29-2.076 0-3.012 1.547-3.012 3.491 0 1.813 1.043 3.144 2.808 3.144 1.836 0 2.448-1.403 2.556-2.399h-1.02c-.181.96-.792 1.489-1.5 1.489-1.452 0-1.717-1.333-1.717-2.413 0-1.117.421-2.365 1.729-2.365.888 0 1.356.504 1.488 1.344h1.02zm-10.884 1.021c0-.84.312-2.401 1.825-2.401 1.512 0 1.823 1.562 1.823 2.401s-.312 2.4-1.823 2.4c-1.514.001-1.825-1.56-1.825-2.4m-1.091 0c0 1.62.911 3.311 2.916 3.311 2.004 0 2.915-1.69 2.915-3.311s-.911-3.312-2.915-3.312c-2.005.001-2.916 1.691-2.916 3.312m-.253-2.256v-.874h-1.057v-.781c0-.505.168-.733.624-.733.132 0 .3.013.433.024v-.947a6.728 6.728 0 0 0-.48-.022c-1.031 0-1.631.431-1.631 1.378v1.082h-.864v.874h.864v5.399h1.055v-5.399h1.056zm-11.544 1.765c0-.973.768-1.874 1.74-1.874 1.284 0 1.692.901 1.752 1.874h-3.492zm3.444 1.667c-.036.468-.624 1.237-1.62 1.237-1.213 0-1.824-.757-1.824-2.066h4.584c0-2.22-.888-3.658-2.699-3.658-2.077 0-3.012 1.547-3.012 3.49 0 1.813 1.043 3.145 2.808 3.145 1.008 0 1.416-.24 1.704-.432.792-.527 1.079-1.416 1.115-1.716h-1.056zm-6.829-1.68c0-.912.624-1.681 1.608-1.681h.396v-1.091a.896.896 0 0 0-.276-.035c-.792 0-1.344.491-1.764 1.223h-.024v-1.042h-.995v6.273h1.055v-3.647zm-7.139.504c0-.84.313-2.401 1.825-2.401s1.824 1.562 1.824 2.401-.313 2.4-1.824 2.4c-1.513.001-1.825-1.56-1.825-2.4m-1.091 0c0 1.62.911 3.311 2.916 3.311 2.004 0 2.915-1.69 2.915-3.311s-.911-3.312-2.915-3.312c-2.005.001-2.916 1.691-2.916 3.312m-1.285 3.143v-8.614h-1.655l-2.447 7.284h-.024l-2.461-7.284h-1.667v8.614h1.127v-5.087c0-.253-.024-1.345-.024-2.137h.024l2.425 7.224h1.152l2.424-7.235h.024c0 .804-.024 1.896-.024 2.147v5.088h1.126z"/></g><text transform="translate(564.67 330.125)" font-family="'HelveticaLTStd-Roman'" font-size="12"></text><g><defs><path id="q" d="M0 0h595.276v368.504H0z"/></defs><clipPath id="r"><use xlink:href="#q" overflow="visible"/></clipPath><path clip-path="url(#r)" d="M552.184 341.369c0-.804.084-2.353 1.717-2.353 1.524 0 1.692 1.645 1.692 2.665 0 1.669-1.044 2.112-1.716 2.112-1.153.001-1.693-1.044-1.693-2.424m4.476-5.459h-1.056v3.142l-.023.084c-.252-.358-.732-1.065-1.872-1.065-1.669 0-2.616 1.366-2.616 3.131 0 1.5.623 3.503 2.76 3.503.612 0 1.332-.192 1.788-1.042h.024v.862h.995v-8.615zm-6.768 4.342c0-1.787-1.223-2.182-2.194-2.182-1.081 0-1.67.73-1.897 1.065h-.024v-.886h-.994v6.274h1.055v-3.419c0-1.705 1.056-2.089 1.657-2.089 1.031 0 1.344.552 1.344 1.644v3.864h1.055v-4.271zm-7.955 2.102c0 .84-.96 1.477-1.944 1.477-.792 0-1.141-.408-1.141-1.093 0-.792.828-.948 1.346-1.021 1.308-.168 1.571-.264 1.739-.396v1.033zm-2.893-2.197c.072-.481.24-1.213 1.44-1.213.996 0 1.477.36 1.477 1.021 0 .624-.3.721-.552.744l-1.741.216c-1.751.217-1.907 1.44-1.907 1.969 0 1.08.815 1.811 1.967 1.811 1.226 0 1.861-.575 2.27-1.018.036.479.18.958 1.114.958.24 0 .396-.072.576-.12v-.767c-.12.024-.252.049-.348.049-.216 0-.348-.108-.348-.372v-3.614c0-1.607-1.823-1.75-2.327-1.75-1.549 0-2.544.587-2.593 2.087h.972zm-5.832.095c0-1.787-1.224-2.182-2.195-2.182-1.081 0-1.669.73-1.896 1.065h-.024v-.886h-.995v6.274h1.056v-3.419c0-1.705 1.056-2.089 1.656-2.089 1.032 0 1.345.552 1.345 1.644v3.864h1.055v-4.271zm-11.052 1.129c0-.84.312-2.4 1.824-2.4s1.824 1.561 1.824 2.4c0 .841-.312 2.401-1.824 2.401s-1.824-1.56-1.824-2.401m-1.092 0c0 1.62.911 3.312 2.916 3.312 2.004 0 2.915-1.691 2.915-3.312 0-1.621-.911-3.311-2.915-3.311-2.005 0-2.916 1.69-2.916 3.311m-1.224-5.471h-1.055v1.199h1.055v-1.199zm0 2.34h-1.055v6.275h1.055v-6.275zm-2.113.874v-.874h-1.008v-1.752h-1.054v1.752h-.853v.874h.853v4.143c0 .755.227 1.342 1.27 1.342.108 0 .408-.048.792-.084v-.826h-.372c-.216 0-.636 0-.636-.492v-4.082h1.008zm-3.863 1.128c0-1.787-1.224-2.182-2.195-2.182-1.081 0-1.669.73-1.897 1.065h-.023v-.886h-.994v6.274h1.054v-3.419c0-1.705 1.058-2.089 1.657-2.089 1.032 0 1.345.552 1.345 1.644v3.864h1.055v-4.271zm-10.956.639c0-.974.768-1.874 1.74-1.874 1.284 0 1.693.9 1.754 1.874h-3.494zm3.445 1.667c-.035.468-.625 1.236-1.621 1.236-1.213 0-1.824-.757-1.824-2.065h4.584c0-2.22-.888-3.658-2.699-3.658-2.077 0-3.011 1.547-3.011 3.49 0 1.813 1.042 3.144 2.807 3.144 1.008 0 1.416-.239 1.704-.431.792-.527 1.079-1.416 1.115-1.716h-1.055zm-7.776.804h-.024l-1.632-5.112h-1.224l2.292 6.274h1.128l2.387-6.274h-1.152l-1.775 5.112zm-7.682-2.471c0-.974.769-1.874 1.741-1.874 1.284 0 1.692.9 1.752 1.874h-3.493zm3.446 1.667c-.036.468-.624 1.236-1.62 1.236-1.213 0-1.825-.757-1.825-2.065h4.584c0-2.22-.887-3.658-2.698-3.658-2.077 0-3.013 1.547-3.013 3.49 0 1.813 1.043 3.144 2.809 3.144 1.008 0 1.416-.239 1.704-.431.792-.527 1.079-1.416 1.114-1.716h-1.055zm-6.829-1.682c0-.912.624-1.68 1.608-1.68h.396v-1.09a.852.852 0 0 0-.275-.036c-.792 0-1.345.491-1.765 1.222h-.023v-1.042h-.995v6.274h1.055v-3.648zm-7.955 6.132h1.056v-3.142h.023c.276.443.828.838 1.669.838 2.136 0 2.759-2.003 2.759-3.503 0-1.765-.946-3.131-2.614-3.131-1.142 0-1.621.707-1.873 1.065h-.024v-.886h-.995v8.759zm1.006-5.326c0-1.021.168-2.665 1.693-2.665 1.632 0 1.716 1.549 1.716 2.353 0 1.38-.54 2.425-1.691 2.425-.674-.001-1.718-.444-1.718-2.113"/></g><text transform="translate(556.66 344.525)" font-family="'HelveticaLTStd-Roman'" font-size="12"></text><g><defs><path id="s" d="M0 0h595.276v368.504H0z"/></defs><clipPath id="t"><use xlink:href="#s" overflow="visible"/></clipPath><path clip-path="url(#t)" d="M561.897 354.652c0-1.787-1.223-2.182-2.194-2.182-1.081 0-1.669.729-1.897 1.065h-.023v-.887h-.995v6.274h1.055v-3.419c0-1.704 1.056-2.089 1.656-2.089 1.033 0 1.345.553 1.345 1.645v3.863h1.055v-4.27zm-11.051 1.129c0-.84.313-2.401 1.824-2.401 1.513 0 1.825 1.562 1.825 2.401s-.313 2.401-1.825 2.401c-1.512.001-1.824-1.561-1.824-2.401m-1.091 0c0 1.62.911 3.312 2.915 3.312 2.005 0 2.916-1.691 2.916-3.312 0-1.621-.911-3.311-2.916-3.311-2.004.001-2.915 1.69-2.915 3.311m-1.225-5.47h-1.056v1.199h1.056v-1.199zm0 2.338h-1.056v6.274h1.056v-6.274zm-2.112.875v-.875h-1.008v-1.752h-1.056v1.752h-.852v.875h.852v4.141c0 .756.229 1.344 1.271 1.344.108 0 .408-.049.792-.085v-.825h-.372c-.216 0-.636 0-.636-.493v-4.081h1.009zm-8.244 2.257c0-.84.313-2.401 1.824-2.401 1.513 0 1.825 1.562 1.825 2.401s-.313 2.401-1.825 2.401c-1.512.001-1.824-1.561-1.824-2.401m-1.091 0c0 1.62.911 3.312 2.915 3.312 2.005 0 2.916-1.691 2.916-3.312 0-1.621-.911-3.311-2.916-3.311-2.004.001-2.915 1.69-2.915 3.311m-9.636 3.143h1.055v-3.42c0-1.703 1.056-2.088 1.657-2.088.779 0 .983.637.983 1.164v4.344h1.056v-3.827c0-.841.588-1.681 1.477-1.681.9 0 1.164.588 1.164 1.452v4.056h1.055v-4.344c0-1.763-1.271-2.109-1.942-2.109-.974 0-1.394.431-1.921 1.018-.181-.336-.539-1.018-1.667-1.018-1.129 0-1.67.729-1.897 1.065h-.024v-.887h-.994v6.275zm-5.941-3.143c0-.84.313-2.401 1.825-2.401s1.824 1.562 1.824 2.401-.313 2.401-1.824 2.401c-1.513.001-1.825-1.561-1.825-2.401m-1.091 0c0 1.62.911 3.312 2.916 3.312 2.004 0 2.915-1.691 2.915-3.312 0-1.621-.911-3.311-2.915-3.311-2.005.001-2.916 1.69-2.916 3.311m-2.197-.505c0-.912.624-1.68 1.608-1.68h.396v-1.091a.855.855 0 0 0-.275-.035c-.792 0-1.345.49-1.765 1.222h-.023v-1.043h-.995v6.274h1.055v-3.647zm-7.955 6.132h1.056v-3.143h.023c.276.443.828.839 1.669.839 2.136 0 2.759-2.003 2.759-3.503 0-1.766-.946-3.131-2.614-3.131-1.142 0-1.621.706-1.873 1.065h-.024v-.887h-.995v8.76zm1.007-5.327c0-1.021.168-2.665 1.693-2.665 1.632 0 1.716 1.548 1.716 2.354 0 1.38-.54 2.425-1.691 2.425-.675-.001-1.718-.446-1.718-2.114m-5.82-1.429c0-1.787-1.224-2.182-2.195-2.182-1.009 0-1.537.623-1.837 1.018h-.024v-3.178h-1.055v8.613h1.055v-3.42c0-1.584.889-2.088 1.753-2.088 1.009 0 1.248.553 1.248 1.404v4.104h1.056v-4.271zm-6.144-1.128v-.875h-1.008v-1.752h-1.055v1.752h-.853v.875h.853v4.141c0 .756.228 1.344 1.271 1.344.108 0 .408-.049.792-.085v-.825h-.372c-.216 0-.636 0-.636-.493v-4.081h1.008zm-3.888-3.213h-1.055v8.615h1.055v-8.615zm-3.923 6.442c0 .841-.96 1.477-1.944 1.477-.793 0-1.141-.408-1.141-1.092 0-.792.828-.948 1.345-1.021 1.308-.168 1.572-.264 1.74-.396v1.032zm-2.893-2.196c.072-.48.24-1.212 1.441-1.212.996 0 1.476.359 1.476 1.02 0 .625-.3.721-.552.745l-1.741.216c-1.751.216-1.906 1.44-1.906 1.968 0 1.08.814 1.812 1.967 1.812 1.225 0 1.86-.575 2.269-1.02.036.48.181.959 1.115.959.24 0 .396-.071.576-.12v-.767c-.12.024-.252.048-.349.048-.216 0-.348-.107-.348-.372v-3.612c0-1.607-1.823-1.75-2.327-1.75-1.549 0-2.544.586-2.592 2.086h.971zm-6.78.732c0-.972.768-1.873 1.74-1.873 1.284 0 1.692.901 1.753 1.873h-3.493zm3.445 1.668c-.036.469-.624 1.237-1.62 1.237-1.213 0-1.824-.757-1.824-2.066h4.584c0-2.22-.888-3.657-2.699-3.657-2.077 0-3.011 1.546-3.011 3.489 0 1.813 1.042 3.145 2.807 3.145 1.008 0 1.416-.24 1.704-.432.792-.527 1.079-1.416 1.115-1.716h-1.056zm-5.833-2.305c0-1.787-1.223-2.182-2.194-2.182-1.01 0-1.537.623-1.837 1.018h-.024v-3.178h-1.055v8.613h1.055v-3.42c0-1.584.888-2.088 1.753-2.088 1.008 0 1.248.553 1.248 1.404v4.104h1.055v-4.271zM447.95 18.194h.635c0 .564-.132 1.164-.635 1.212v.552c.24-.036 1.246-.228 1.246-1.86v-1.174h-1.246v1.27zm-6.206-3.155c0-.805.084-2.353 1.717-2.353 1.525 0 1.693 1.645 1.693 2.665 0 1.668-1.045 2.113-1.717 2.113-1.152 0-1.693-1.045-1.693-2.425m4.476-5.46h-1.054v3.143l-.023.084c-.252-.36-.732-1.066-1.873-1.066-1.668 0-2.615 1.366-2.615 3.131 0 1.5.623 3.503 2.759 3.503.612 0 1.333-.192 1.789-1.043h.024v.863h.993V9.579zm-11.052 4.981c0-.973.77-1.874 1.741-1.874 1.285 0 1.693.901 1.753 1.874h-3.494zm3.446 1.667c-.036.468-.624 1.237-1.621 1.237-1.212 0-1.825-.757-1.825-2.066h4.584c0-2.22-.886-3.658-2.699-3.658-2.075 0-3.011 1.546-3.011 3.49 0 1.813 1.042 3.144 2.808 3.144 1.009 0 1.417-.24 1.705-.431.79-.528 1.078-1.416 1.113-1.716h-1.054zm-5.689-2.521c0-.312-.155-1.966-2.399-1.966-1.237 0-2.375.622-2.375 2.002 0 .865.575 1.309 1.451 1.525l1.224.3c.901.228 1.249.396 1.249.9 0 .696-.684.997-1.441.997-1.488 0-1.632-.793-1.668-1.285h-1.019c.036.756.216 2.195 2.699 2.195 1.417 0 2.482-.779 2.482-2.075 0-.852-.455-1.332-1.762-1.656l-1.057-.264c-.816-.205-1.142-.325-1.142-.841 0-.78.925-.888 1.249-.888 1.333 0 1.478.66 1.489 1.056h1.02zm-6.168-4.127h-1.055v1.199h1.055V9.579zm0 2.341h-1.055v6.274h1.055V11.92zm-2.664-2.341h-1.055v8.615h1.055V9.579zm-3.923 6.444c0 .84-.96 1.477-1.944 1.477-.792 0-1.141-.409-1.141-1.093 0-.792.828-.948 1.345-1.02 1.309-.168 1.572-.264 1.74-.396v1.032zm-2.893-2.197c.072-.48.24-1.212 1.44-1.212.996 0 1.477.36 1.477 1.02 0 .625-.3.721-.552.745l-1.741.216c-1.751.216-1.907 1.44-1.907 1.968 0 1.08.815 1.811 1.967 1.811 1.226 0 1.861-.575 2.27-1.019.036.48.18.959 1.114.959.24 0 .396-.072.576-.12v-.767a1.92 1.92 0 0 1-.348.049c-.216 0-.348-.109-.348-.373V13.49c0-1.607-1.823-1.75-2.327-1.75-1.549 0-2.544.587-2.592 2.086h.971zm-2.52-4.247h-1.055v1.199h1.055V9.579zm0 2.341h-1.055v6.274h1.055V11.92zm-2.136 2.11c-.084-1.092-.708-2.29-2.352-2.29-2.076 0-3.012 1.546-3.012 3.491 0 1.812 1.043 3.143 2.808 3.143 1.836 0 2.448-1.403 2.556-2.399h-1.02c-.181.96-.792 1.489-1.5 1.489-1.452 0-1.717-1.333-1.717-2.413 0-1.117.42-2.365 1.729-2.365.888 0 1.355.504 1.488 1.344h1.02zm-10.788.53c0-.973.769-1.874 1.741-1.874 1.284 0 1.692.901 1.752 1.874h-3.493zm3.445 1.667c-.036.468-.624 1.237-1.62 1.237-1.213 0-1.825-.757-1.825-2.066h4.584c0-2.22-.887-3.658-2.699-3.658-2.076 0-3.012 1.546-3.012 3.49 0 1.813 1.043 3.144 2.809 3.144 1.008 0 1.415-.24 1.703-.431.792-.528 1.079-1.416 1.115-1.716h-1.055zm-11.028 4.451h1.055v-3.143h.024c.276.444.828.839 1.669.839 2.136 0 2.759-2.003 2.759-3.503 0-1.765-.946-3.131-2.614-3.131-1.142 0-1.621.706-1.873 1.066h-.024v-.886h-.995v8.758zm1.007-5.327c0-1.02.168-2.665 1.693-2.665 1.632 0 1.716 1.548 1.716 2.353 0 1.38-.54 2.425-1.691 2.425-.674 0-1.718-.445-1.718-2.113m-2.34-1.645c0-.312-.156-1.966-2.398-1.966-1.237 0-2.376.622-2.376 2.002 0 .865.575 1.309 1.45 1.525l1.226.3c.899.228 1.248.396 1.248.9 0 .696-.685.997-1.44.997-1.489 0-1.633-.793-1.669-1.285h-1.019c.036.756.216 2.195 2.7 2.195 1.416 0 2.482-.779 2.482-2.075 0-.852-.455-1.332-1.763-1.656l-1.057-.264c-.816-.205-1.141-.325-1.141-.841 0-.78.924-.888 1.249-.888 1.332 0 1.476.66 1.488 1.056h1.02zm-13.764.854c0-.973.768-1.874 1.741-1.874 1.283 0 1.691.901 1.752 1.874h-3.493zm3.446 1.667c-.036.468-.624 1.237-1.62 1.237-1.213 0-1.825-.757-1.825-2.066h4.584c0-2.22-.887-3.658-2.699-3.658-2.077 0-3.012 1.546-3.012 3.49 0 1.813 1.043 3.144 2.808 3.144 1.008 0 1.416-.24 1.704-.431.792-.528 1.079-1.416 1.115-1.716h-1.055zm-6.829-1.681c0-.912.624-1.68 1.607-1.68h.396v-1.09a.831.831 0 0 0-.276-.036c-.792 0-1.344.491-1.764 1.222h-.024V11.92h-.995v6.274h1.056v-3.648zm-7.141.505c0-.84.313-2.401 1.825-2.401s1.824 1.561 1.824 2.401c0 .84-.313 2.401-1.824 2.401-1.513 0-1.825-1.561-1.825-2.401m-1.091 0c0 1.62.911 3.311 2.916 3.311 2.004 0 2.915-1.691 2.915-3.311 0-1.621-.911-3.311-2.915-3.311-2.005 0-2.916 1.69-2.916 3.311m-1.285 3.143V9.579h-1.654l-2.448 7.285h-.024l-2.461-7.285h-1.667v8.615h1.127v-5.086c0-.254-.023-1.346-.023-2.138h.023l2.425 7.224h1.152l2.424-7.236h.024c0 .804-.024 1.896-.024 2.148v5.088h1.126z"/></g><text transform="translate(449.196 18.195)" font-family="'HelveticaLTStd-Roman'" font-size="12"></text><g><defs><path id="u" d="M0 0h595.276v368.504H0z"/></defs><clipPath id="v"><use xlink:href="#u" overflow="visible"/></clipPath><path clip-path="url(#v)" d="M430.729 31.431h-.024l-1.667-5.112h-1.2l2.327 6.444c-.504 1.296-.563 1.452-1.114 1.452a1.86 1.86 0 0 1-.637-.108v.971c.168.036.288.084.444.084 1.354 0 1.463-.144 2.459-2.686.804-2.053 1.524-4.105 2.255-6.157h-1.163l-1.68 5.112zm-3.588-7.452h-1.055v8.615h1.055v-8.615zm-2.113 3.215v-.875h-1.008v-1.752h-1.054v1.752h-.853v.875h.853v4.141c0 .756.228 1.343 1.27 1.343.108 0 .408-.048.792-.084v-.827h-.372c-.216 0-.636 0-.636-.492v-4.081h1.008zm-3.718.912c0-.312-.156-1.966-2.4-1.966-1.235 0-2.375.622-2.375 2.002 0 .865.575 1.309 1.451 1.525l1.224.3c.901.228 1.249.396 1.249.9 0 .696-.684.997-1.44.997-1.489 0-1.632-.793-1.668-1.285h-1.02c.036.756.217 2.195 2.699 2.195 1.417 0 2.483-.779 2.483-2.075 0-.852-.455-1.332-1.763-1.656l-1.057-.264c-.816-.205-1.141-.325-1.141-.841 0-.78.925-.888 1.249-.888 1.333 0 1.477.66 1.488 1.056h1.021zm-10.526 1.345c0-.84.313-2.401 1.825-2.401 1.513 0 1.825 1.561 1.825 2.401 0 .84-.313 2.4-1.825 2.4-1.511 0-1.825-1.56-1.825-2.4m-1.09 0c0 1.62.911 3.311 2.915 3.311 2.005 0 2.915-1.691 2.915-3.311 0-1.621-.91-3.311-2.915-3.311-2.004 0-2.915 1.69-2.915 3.311m-.698-1.021c-.084-1.092-.708-2.29-2.352-2.29-2.075 0-3.01 1.546-3.01 3.491 0 1.812 1.043 3.143 2.806 3.143 1.836 0 2.448-1.403 2.556-2.399h-1.02c-.18.96-.792 1.489-1.5 1.489-1.452 0-1.716-1.333-1.716-2.413 0-1.117.42-2.365 1.728-2.365.888 0 1.356.504 1.488 1.344h1.02zm-14.124.529c0-.972.77-1.873 1.741-1.873 1.285 0 1.693.901 1.753 1.873h-3.494zm3.446 1.668c-.036.468-.624 1.237-1.621 1.237-1.212 0-1.825-.757-1.825-2.066h4.584c0-2.22-.886-3.658-2.698-3.658-2.076 0-3.012 1.546-3.012 3.49 0 1.813 1.043 3.144 2.808 3.144 1.009 0 1.417-.24 1.705-.431.791-.528 1.079-1.416 1.114-1.716h-1.055zm-6.83-1.681c0-.912.624-1.68 1.608-1.68h.396v-1.091a.855.855 0 0 0-.275-.035c-.792 0-1.345.491-1.765 1.222h-.022v-1.043h-.995v6.275h1.054v-3.648zm-7.139.505c0-.84.313-2.401 1.825-2.401s1.824 1.561 1.824 2.401c0 .84-.312 2.4-1.824 2.4s-1.825-1.56-1.825-2.4m-1.09 0c0 1.62.91 3.311 2.915 3.311s2.914-1.691 2.914-3.311c0-1.621-.909-3.311-2.914-3.311s-2.915 1.69-2.915 3.311m-9.637 3.143h1.056v-3.42c0-1.704 1.056-2.088 1.655-2.088.781 0 .985.636.985 1.164v4.344h1.055v-3.828c0-.84.588-1.68 1.477-1.68.9 0 1.165.588 1.165 1.452v4.056h1.055V28.25c0-1.763-1.271-2.11-1.943-2.11-.973 0-1.393.431-1.921 1.018-.18-.336-.539-1.018-1.667-1.018-1.129 0-1.669.73-1.896 1.066h-.024v-.887h-.995v6.275zM449.229 330.005h.635c0 .564-.132 1.164-.635 1.212v.552c.239-.036 1.246-.228 1.246-1.859v-1.175h-1.246v1.27zm-6.206-3.155c0-.805.084-2.353 1.716-2.353 1.524 0 1.692 1.644 1.692 2.665 0 1.668-1.044 2.113-1.717 2.113-1.151 0-1.691-1.046-1.691-2.425m4.476-5.46h-1.055v3.144l-.024.084c-.252-.36-.731-1.066-1.873-1.066-1.668 0-2.615 1.366-2.615 3.131 0 1.5.623 3.503 2.76 3.503.612 0 1.333-.191 1.789-1.043h.023v.863h.995v-8.616zm-11.052 4.98c0-.973.768-1.873 1.74-1.873 1.284 0 1.692.9 1.753 1.873h-3.493zm3.446 1.668c-.036.468-.624 1.237-1.621 1.237-1.213 0-1.824-.758-1.824-2.066h4.584c0-2.22-.887-3.658-2.7-3.658-2.076 0-3.011 1.546-3.011 3.49 0 1.813 1.043 3.144 2.807 3.144 1.009 0 1.417-.239 1.705-.431.791-.528 1.079-1.416 1.115-1.716h-1.055zm-5.69-2.521c0-.312-.156-1.966-2.4-1.966-1.235 0-2.375.622-2.375 2.002 0 .865.575 1.31 1.451 1.525l1.225.3c.9.228 1.249.396 1.249.9 0 .695-.685.997-1.441.997-1.488 0-1.632-.794-1.668-1.285h-1.02c.036.756.217 2.194 2.699 2.194 1.417 0 2.484-.778 2.484-2.074 0-.853-.456-1.332-1.763-1.656l-1.058-.265c-.815-.204-1.14-.324-1.14-.841 0-.779.924-.888 1.248-.888 1.333 0 1.477.66 1.488 1.056h1.021zm-6.168-4.127h-1.055v1.199h1.055v-1.199zm0 2.339h-1.055v6.275h1.055v-6.275zm-2.664-2.339h-1.055v8.615h1.055v-8.615zm-3.923 6.444c0 .84-.96 1.476-1.945 1.476-.792 0-1.14-.407-1.14-1.092 0-.792.828-.948 1.345-1.02 1.308-.168 1.572-.265 1.74-.396v1.032zm-2.893-2.197c.072-.479.24-1.212 1.441-1.212.996 0 1.476.36 1.476 1.021 0 .625-.3.721-.552.744l-1.741.217c-1.751.216-1.906 1.439-1.906 1.968 0 1.08.814 1.811 1.967 1.811 1.225 0 1.86-.574 2.269-1.019.036.479.181.959 1.115.959.24 0 .396-.072.576-.12v-.767c-.12.023-.252.048-.348.048-.217 0-.349-.108-.349-.372v-3.613c0-1.606-1.823-1.75-2.327-1.75-1.549 0-2.544.586-2.592 2.086h.971zm-3.612.719c0-.911.624-1.68 1.607-1.68h.396v-1.091a.862.862 0 0 0-.276-.035c-.792 0-1.344.491-1.764 1.222h-.024v-1.043h-.995v6.275h1.056v-3.648zm-7.044.014c0-.973.768-1.873 1.74-1.873 1.284 0 1.692.9 1.753 1.873h-3.493zm3.445 1.668c-.036.468-.624 1.237-1.62 1.237-1.213 0-1.824-.758-1.824-2.066h4.584c0-2.22-.888-3.658-2.699-3.658-2.077 0-3.012 1.546-3.012 3.49 0 1.813 1.043 3.144 2.808 3.144 1.008 0 1.416-.239 1.704-.431.791-.528 1.079-1.416 1.115-1.716h-1.056zm-5.833-2.306c0-1.786-1.223-2.182-2.194-2.182-1.081 0-1.669.73-1.897 1.066h-.023v-.888h-.997v6.275h1.055v-3.419c0-1.705 1.056-2.089 1.657-2.089 1.032 0 1.344.552 1.344 1.644v3.864h1.055v-4.271zm-10.956.638c0-.973.769-1.873 1.741-1.873 1.284 0 1.692.9 1.752 1.873h-3.493zm3.445 1.668c-.036.468-.624 1.237-1.62 1.237-1.213 0-1.825-.758-1.825-2.066h4.584c0-2.22-.887-3.658-2.698-3.658-2.077 0-3.013 1.546-3.013 3.49 0 1.813 1.043 3.144 2.809 3.144 1.008 0 1.416-.239 1.704-.431.792-.528 1.079-1.416 1.114-1.716H398zm-5.737-4.309h-.994v.888h-.024c-.252-.36-.732-1.066-1.872-1.066-1.669 0-2.616 1.366-2.616 3.131 0 1.5.624 3.503 2.76 3.503.841 0 1.393-.395 1.668-.839v-.048h.024v.264c0 .743.036 2.208-1.788 2.208-.252 0-1.225 0-1.417-.996h-1.055c.204 1.667 1.655 1.871 2.399 1.871 2.903 0 2.915-2.256 2.915-3.154v-5.762zm-4.416 3.121c0-.805.084-2.353 1.718-2.353 1.523 0 1.691 1.644 1.691 2.665 0 1.668-1.044 2.113-1.716 2.113-1.153 0-1.693-1.046-1.693-2.425m-9.972-.48c0-.973.769-1.873 1.741-1.873 1.284 0 1.691.9 1.752 1.873h-3.493zm3.445 1.668c-.036.468-.624 1.237-1.62 1.237-1.213 0-1.825-.758-1.825-2.066h4.584c0-2.22-.887-3.658-2.699-3.658-2.077 0-3.012 1.546-3.012 3.49 0 1.813 1.043 3.144 2.808 3.144 1.009 0 1.416-.239 1.704-.431.792-.528 1.079-1.416 1.115-1.716h-1.055zm-6.829-1.682c0-.911.624-1.68 1.607-1.68h.396v-1.091a.858.858 0 0 0-.276-.035c-.792 0-1.344.491-1.764 1.222h-.024v-1.043h-.994v6.275h1.055v-3.648zm-7.139.506c0-.841.312-2.401 1.824-2.401s1.824 1.561 1.824 2.401c0 .84-.312 2.399-1.824 2.399s-1.824-1.559-1.824-2.399m-1.092 0c0 1.619.911 3.311 2.916 3.311 2.004 0 2.915-1.691 2.915-3.311 0-1.621-.911-3.312-2.915-3.312-2.005.001-2.916 1.691-2.916 3.312m-1.285 3.143v-8.615h-1.654l-2.448 7.284h-.024l-2.461-7.284h-1.667v8.615h1.127v-5.087c0-.253-.023-1.345-.023-2.137h.023l2.426 7.224h1.151l2.424-7.236h.024c0 .805-.024 1.896-.024 2.148v5.088h1.126z"/></g><text transform="translate(450.475 330.006)" font-family="'HelveticaLTStd-Roman'" font-size="12"></text><g><defs><path id="w" d="M0 0h595.276v368.504H0z"/></defs><clipPath id="x"><use xlink:href="#w" overflow="visible"/></clipPath><path clip-path="url(#x)" d="M427.837 343.243h-.022l-1.668-5.112h-1.2l2.328 6.444c-.505 1.296-.564 1.452-1.116 1.452-.288 0-.504-.061-.636-.108v.97c.168.036.287.084.443.084 1.356 0 1.464-.144 2.459-2.686.804-2.052 1.524-4.104 2.256-6.156h-1.164l-1.68 5.112zm-3.588-7.452h-1.054v8.615h1.054v-8.615zm-2.112 3.214v-.874h-1.008v-1.752h-1.055v1.752h-.853v.874h.853v4.141c0 .757.228 1.344 1.271 1.344.108 0 .408-.049.792-.084v-.826h-.372c-.216 0-.636 0-.636-.493v-4.081h1.008zm-3.72.912c0-.313-.156-1.966-2.399-1.966-1.236 0-2.376.623-2.376 2.002 0 .865.575 1.309 1.451 1.524l1.226.301c.899.228 1.248.396 1.248.899 0 .696-.685.997-1.44.997-1.489 0-1.633-.793-1.669-1.285h-1.02c.036.756.217 2.195 2.7 2.195 1.416 0 2.483-.779 2.483-2.075 0-.852-.456-1.332-1.763-1.656l-1.058-.264c-.815-.204-1.14-.325-1.14-.841 0-.78.924-.888 1.248-.888 1.333 0 1.477.659 1.489 1.056h1.02zm-10.524 1.345c0-.84.313-2.4 1.825-2.4s1.824 1.561 1.824 2.4-.312 2.401-1.824 2.401-1.825-1.561-1.825-2.401m-1.091 0c0 1.62.911 3.312 2.916 3.312 2.004 0 2.915-1.691 2.915-3.312 0-1.621-.911-3.311-2.915-3.311-2.005 0-2.916 1.69-2.916 3.311m-.697-1.021c-.084-1.093-.708-2.29-2.353-2.29-2.076 0-3.011 1.546-3.011 3.491 0 1.812 1.043 3.143 2.807 3.143 1.836 0 2.448-1.403 2.557-2.399h-1.021c-.18.96-.792 1.489-1.5 1.489-1.452 0-1.716-1.333-1.716-2.413 0-1.117.42-2.365 1.728-2.365.889 0 1.356.505 1.488 1.345h1.021zm-9.696-.324c0-.313-.156-1.966-2.399-1.966-1.236 0-2.376.623-2.376 2.002 0 .865.575 1.309 1.451 1.524l1.225.301c.9.228 1.248.396 1.248.899 0 .696-.684.997-1.439.997-1.489 0-1.633-.793-1.669-1.285h-1.02c.036.756.217 2.195 2.7 2.195 1.416 0 2.483-.779 2.483-2.075 0-.852-.456-1.332-1.764-1.656l-1.057-.264c-.816-.204-1.14-.325-1.14-.841 0-.78.924-.888 1.248-.888 1.333 0 1.477.659 1.488 1.056h1.021zm-6 0c0-.313-.156-1.966-2.399-1.966-1.236 0-2.376.623-2.376 2.002 0 .865.575 1.309 1.451 1.524l1.225.301c.9.228 1.248.396 1.248.899 0 .696-.684.997-1.439.997-1.489 0-1.633-.793-1.669-1.285h-1.02c.036.756.217 2.195 2.7 2.195 1.416 0 2.483-.779 2.483-2.075 0-.852-.456-1.332-1.764-1.656l-1.057-.264c-.816-.204-1.14-.325-1.14-.841 0-.78.924-.888 1.248-.888 1.333 0 1.477.659 1.488 1.056h1.021zm-10.428.854c0-.973.768-1.874 1.74-1.874 1.284 0 1.692.901 1.752 1.874h-3.492zm3.445 1.667c-.036.469-.624 1.237-1.62 1.237-1.213 0-1.824-.757-1.824-2.065h4.584c0-2.221-.888-3.658-2.699-3.658-2.077 0-3.013 1.546-3.013 3.489 0 1.813 1.044 3.145 2.809 3.145 1.008 0 1.416-.24 1.704-.431.791-.528 1.079-1.416 1.115-1.717h-1.056zm-5.857-6.647h-1.056v8.615h1.056v-8.615zM102.54 13.706c0-.312-.156-1.967-2.4-1.967-1.236 0-2.375.623-2.375 2.003 0 .865.575 1.309 1.451 1.525l1.225.3c.9.228 1.248.396 1.248.9 0 .696-.684.996-1.441.996-1.488 0-1.632-.792-1.668-1.284h-1.019c.036.756.216 2.195 2.699 2.195 1.417 0 2.484-.779 2.484-2.075 0-.852-.456-1.332-1.763-1.656l-1.057-.264c-.816-.205-1.14-.325-1.14-.841 0-.78.924-.888 1.248-.888 1.333 0 1.477.66 1.489 1.056h1.019zm-5.616-.912v-.874h-1.008v-1.753H94.86v1.753h-.852v.874h.852v4.141c0 .756.228 1.343 1.271 1.343.108 0 .408-.048.792-.084v-.826h-.372c-.216 0-.636 0-.636-.493v-4.081h1.009zm-3.864 1.128c0-1.787-1.223-2.183-2.195-2.183-1.081 0-1.669.731-1.897 1.067h-.024v-.886h-.995v6.274h1.055v-3.419c0-1.705 1.056-2.089 1.656-2.089 1.033 0 1.345.552 1.345 1.644v3.864h1.055v-4.272zm-10.956.637c0-.972.768-1.873 1.74-1.873 1.285 0 1.693.901 1.753 1.873h-3.493zm3.445 1.668c-.036.468-.624 1.236-1.621 1.236-1.212 0-1.824-.756-1.824-2.065h4.584c0-2.22-.887-3.659-2.7-3.659-2.076 0-3.011 1.547-3.011 3.491 0 1.813 1.043 3.144 2.807 3.144 1.009 0 1.417-.24 1.705-.431.791-.528 1.079-1.416 1.115-1.716h-1.055zm-5.858-6.648h-1.055v1.199h1.055V9.579zm0 2.341h-1.055v6.274h1.055V11.92zm-2.111.874v-.874h-1.008v-1.753h-1.055v1.753h-.852v.874h.852v4.141c0 .756.228 1.343 1.271 1.343.108 0 .408-.048.792-.084v-.826h-.372c-.216 0-.636 0-.636-.493v-4.081h1.008zm-5.147 3.229c0 .84-.96 1.476-1.945 1.476-.792 0-1.14-.408-1.14-1.092 0-.792.828-.948 1.344-1.02 1.309-.168 1.573-.264 1.741-.396v1.032zm-2.893-2.197c.072-.48.24-1.212 1.441-1.212.996 0 1.476.36 1.476 1.02 0 .625-.3.721-.552.745l-1.741.216c-1.751.216-1.907 1.44-1.907 1.968 0 1.08.815 1.811 1.967 1.811 1.225 0 1.861-.575 2.269-1.019.036.48.18.959 1.115.959.24 0 .396-.072.576-.12v-.767c-.12.024-.252.049-.348.049-.216 0-.348-.109-.348-.373V13.49c0-1.607-1.823-1.751-2.327-1.751-1.549 0-2.544.587-2.592 2.087h.971zm-7.691 6.852h1.055v-3.143h.024c.276.444.828.839 1.669.839 2.136 0 2.759-2.003 2.759-3.503 0-1.765-.947-3.132-2.615-3.132-1.141 0-1.621.707-1.873 1.067h-.024v-.886h-.995v8.758zm1.006-5.327c0-1.021.168-2.665 1.693-2.665 1.632 0 1.716 1.548 1.716 2.353 0 1.38-.54 2.424-1.692 2.424-.673 0-1.717-.444-1.717-2.112m-7.055-.805c0-.912.624-1.68 1.608-1.68h.396v-1.091a.854.854 0 0 0-.276-.036c-.792 0-1.344.492-1.764 1.223h-.024V11.92h-.995v6.274H55.8v-3.648zm-7.045.013c0-.972.768-1.873 1.741-1.873 1.284 0 1.692.901 1.752 1.873h-3.493zm3.446 1.668c-.036.468-.624 1.236-1.62 1.236-1.213 0-1.825-.756-1.825-2.065h4.584c0-2.22-.887-3.659-2.699-3.659-2.077 0-3.012 1.547-3.012 3.491 0 1.813 1.043 3.144 2.808 3.144 1.008 0 1.416-.24 1.704-.431.791-.528 1.079-1.416 1.115-1.716h-1.055zM42.9 13.334h.024l1.272 4.86h1.091l1.824-6.274h-1.056l-1.272 4.931h-.023l-1.223-4.931h-1.176l-1.212 4.931h-.024l-1.2-4.931h-1.151l1.811 6.274h1.092l1.223-4.86zm-9.12 1.225c0-.972.768-1.873 1.741-1.873 1.284 0 1.692.901 1.752 1.873H33.78zm3.445 1.668c-.036.468-.624 1.236-1.62 1.236-1.213 0-1.825-.756-1.825-2.065h4.584c0-2.22-.887-3.659-2.699-3.659-2.077 0-3.012 1.547-3.012 3.491 0 1.813 1.043 3.144 2.808 3.144 1.008 0 1.416-.24 1.704-.431.791-.528 1.079-1.416 1.115-1.716h-1.055zm-9.829-1.945h4.224v-1.03h-4.224V10.61h4.8V9.579h-5.962v8.615h1.162v-3.912z"/></g><text transform="translate(102.743 18.195)" font-family="'HelveticaLTStd-Roman'" font-size="12"></text><g><defs><path id="y" d="M0 0h595.276v368.504H0z"/></defs><clipPath id="z"><use xlink:href="#y" overflow="visible"/></clipPath><path clip-path="url(#z)" d="M76.914 28.322c0-1.787-1.223-2.183-2.195-2.183-1.081 0-1.669.731-1.897 1.067h-.024v-.887h-.995v6.275h1.055v-3.42c0-1.704 1.056-2.088 1.657-2.088 1.032 0 1.344.552 1.344 1.644v3.864h1.055v-4.272zm-10.956.637c0-.973.768-1.873 1.74-1.873 1.285 0 1.693.9 1.753 1.873h-3.493zm3.445 1.667c-.036.469-.624 1.237-1.621 1.237-1.212 0-1.824-.756-1.824-2.065h4.584c0-2.22-.887-3.659-2.699-3.659-2.077 0-3.012 1.547-3.012 3.491 0 1.813 1.043 3.144 2.807 3.144 1.009 0 1.417-.24 1.705-.432.791-.527 1.079-1.416 1.115-1.716h-1.055zm-10.117-1.667c0-.973.768-1.873 1.74-1.873 1.285 0 1.693.9 1.753 1.873h-3.493zm3.444 1.667c-.036.469-.624 1.237-1.621 1.237-1.212 0-1.824-.756-1.824-2.065h4.584c0-2.22-.887-3.659-2.699-3.659-2.077 0-3.012 1.547-3.012 3.491 0 1.813 1.043 3.144 2.807 3.144 1.009 0 1.417-.24 1.705-.432.791-.527 1.079-1.416 1.115-1.716H62.73zm-5.688-2.52c0-.312-.156-1.967-2.4-1.967-1.236 0-2.375.623-2.375 2.003 0 .864.575 1.308 1.451 1.524l1.225.301c.9.228 1.248.396 1.248.9 0 .696-.684.996-1.441.996-1.488 0-1.632-.792-1.668-1.284h-1.019c.036.756.216 2.195 2.699 2.195 1.417 0 2.484-.779 2.484-2.075 0-.852-.456-1.333-1.763-1.657l-1.057-.264c-.816-.204-1.14-.324-1.14-.84 0-.78.924-.888 1.248-.888 1.333 0 1.477.66 1.489 1.056h1.019zM242.977 107.249h-.024l-1.668-5.112h-1.2l2.328 6.444c-.504 1.295-.564 1.452-1.116 1.452a1.85 1.85 0 0 1-.636-.108v.97c.168.036.288.084.444.084 1.356 0 1.464-.144 2.46-2.687.803-2.052 1.523-4.103 2.255-6.155h-1.164l-1.679 5.112zm-5.401-2.486c0-.912.624-1.68 1.608-1.68h.396v-1.091a.854.854 0 0 0-.276-.036c-.792 0-1.344.492-1.764 1.223h-.024v-1.042h-.994v6.274h1.054v-3.648zm-4.042 1.477c0 .84-.961 1.476-1.945 1.476-.793 0-1.141-.408-1.141-1.092 0-.792.829-.948 1.345-1.02 1.308-.168 1.573-.264 1.741-.396v1.032zm-2.894-2.198c.072-.48.24-1.212 1.441-1.212.996 0 1.477.36 1.477 1.02 0 .624-.301.721-.553.745l-1.74.216c-1.752.216-1.907 1.44-1.907 1.968 0 1.08.814 1.811 1.967 1.811 1.224 0 1.86-.575 2.269-1.019.035.48.179.959 1.114.959.24 0 .396-.072.576-.12v-.767c-.12.024-.252.049-.348.049-.216 0-.348-.109-.348-.373v-3.613c0-1.607-1.823-1.751-2.327-1.751-1.549 0-2.544.587-2.592 2.087h.971zm-2.52-4.246h-1.054v1.198h1.054v-1.198zm0 2.341h-1.054v6.274h1.054v-6.274zm-2.112.874v-.874H225v-1.753h-1.054v1.753h-.852v.874h.852v4.141c0 .756.227 1.343 1.27 1.343.108 0 .408-.048.792-.084v-.826h-.372c-.216 0-.636 0-.636-.493v-4.081h1.008zm-5.58 1.752c0-.912.624-1.68 1.608-1.68h.396v-1.091a.854.854 0 0 0-.276-.036c-.792 0-1.344.492-1.763 1.223h-.024v-1.042h-.995v6.274h1.054v-3.648zm-7.044.012c0-.972.769-1.873 1.741-1.873 1.285 0 1.693.901 1.753 1.873h-3.494zm3.446 1.668c-.036.468-.624 1.236-1.621 1.236-1.212 0-1.825-.756-1.825-2.065h4.584c0-2.22-.886-3.659-2.699-3.659-2.076 0-3.011 1.547-3.011 3.491 0 1.813 1.043 3.144 2.807 3.144 1.009 0 1.417-.24 1.705-.431.791-.528 1.079-1.416 1.115-1.716h-1.055zm-10.776-5.616h2.916v7.584h1.162v-7.584h2.916v-1.03h-6.994v1.03zM251.593 178.947h-.024l-1.667-5.112h-1.2l2.327 6.444c-.504 1.296-.563 1.452-1.115 1.452a1.85 1.85 0 0 1-.636-.108v.971c.168.036.288.084.444.084 1.355 0 1.463-.144 2.459-2.687.804-2.052 1.524-4.104 2.255-6.156h-1.163l-1.68 5.112zm-5.4-2.485c0-.912.624-1.68 1.608-1.68h.396v-1.091a.854.854 0 0 0-.276-.036c-.792 0-1.344.491-1.764 1.223h-.024v-1.043h-.995v6.275h1.055v-3.648zm-4.043 1.477c0 .84-.96 1.476-1.945 1.476-.792 0-1.14-.408-1.14-1.092 0-.792.828-.948 1.344-1.021 1.309-.168 1.573-.264 1.741-.396v1.033zm-2.893-2.197c.072-.48.24-1.212 1.44-1.212.997 0 1.477.36 1.477 1.02 0 .624-.3.72-.552.744l-1.741.216c-1.751.216-1.907 1.441-1.907 1.969 0 1.08.815 1.811 1.967 1.811 1.225 0 1.861-.575 2.269-1.019.036.479.18.959 1.115.959.24 0 .396-.072.576-.12v-.767c-.12.024-.252.048-.348.048-.216 0-.348-.108-.348-.372v-3.613c0-1.607-1.823-1.751-2.328-1.751-1.548 0-2.543.587-2.591 2.087h.971zm-6.876 1.212c0-.804.084-2.352 1.716-2.352 1.525 0 1.693 1.644 1.693 2.664 0 1.669-1.044 2.113-1.717 2.113-1.152 0-1.692-1.044-1.692-2.425m4.476-5.459h-1.055v3.143l-.024.084c-.252-.36-.732-1.067-1.873-1.067-1.668 0-2.615 1.367-2.615 3.131 0 1.501.623 3.504 2.759 3.504.613 0 1.333-.192 1.789-1.043h.024v.863h.995v-8.615zm-6.768 4.343c0-1.787-1.223-2.183-2.195-2.183-1.081 0-1.669.731-1.897 1.067h-.024v-.887h-.995v6.275h1.055v-3.42c0-1.704 1.056-2.088 1.656-2.088 1.033 0 1.345.552 1.345 1.644v3.864h1.055v-4.272zm-11.052 1.128c0-.84.312-2.4 1.824-2.4 1.513 0 1.825 1.56 1.825 2.4 0 .841-.312 2.401-1.825 2.401-1.512 0-1.824-1.56-1.824-2.401m-1.091 0c0 1.621.911 3.312 2.915 3.312 2.005 0 2.916-1.691 2.916-3.312 0-1.62-.911-3.311-2.916-3.311-2.004 0-2.915 1.691-2.915 3.311m-.697-1.02c-.084-1.092-.708-2.291-2.352-2.291-2.076 0-3.011 1.547-3.011 3.491 0 1.813 1.043 3.144 2.807 3.144 1.836 0 2.448-1.403 2.556-2.399h-1.02c-.18.96-.792 1.488-1.5 1.488-1.452 0-1.716-1.332-1.716-2.413 0-1.116.42-2.364 1.728-2.364.888 0 1.356.504 1.488 1.344h1.02zm-10.788.529c0-.973.768-1.873 1.74-1.873 1.285 0 1.693.9 1.753 1.873h-3.493zm3.445 1.667c-.036.469-.624 1.237-1.621 1.237-1.212 0-1.824-.756-1.824-2.065h4.584c0-2.22-.887-3.659-2.7-3.659-2.076 0-3.011 1.547-3.011 3.491 0 1.813 1.043 3.144 2.807 3.144 1.009 0 1.417-.24 1.705-.432.791-.527 1.079-1.416 1.115-1.716h-1.055zm-5.857-4.128c-.048-.948-.348-2.747-3.36-2.747-2.088 0-2.963 1.319-2.963 2.663 0 1.5 1.271 1.896 1.835 2.028l1.765.409c1.416.336 1.836.624 1.836 1.524 0 1.236-1.416 1.452-2.257 1.452-1.104 0-2.376-.456-2.376-2.016h-1.091c0 .804.144 1.524.875 2.184.384.347 1.008.827 2.604.827 1.477 0 3.372-.564 3.372-2.603 0-1.368-.839-2.041-1.955-2.305l-2.461-.564c-.504-.12-1.02-.36-1.02-1.092 0-1.308 1.236-1.512 1.968-1.512.973 0 2.077.42 2.137 1.752h1.091zM243.114 246.751h-.024l-1.667-5.112h-1.2l2.327 6.444c-.503 1.296-.563 1.451-1.115 1.451-.288 0-.504-.06-.636-.107v.971c.168.036.288.084.444.084 1.355 0 1.463-.144 2.459-2.687.804-2.053 1.524-4.104 2.256-6.156h-1.164l-1.68 5.112zm-5.4-2.485c0-.912.624-1.68 1.608-1.68h.396v-1.092a.887.887 0 0 0-.276-.035c-.792 0-1.344.491-1.764 1.223h-.024v-1.043h-.995v6.275h1.055v-3.648zm-4.043 1.476c0 .841-.96 1.477-1.945 1.477-.792 0-1.14-.408-1.14-1.092 0-.792.828-.948 1.344-1.021 1.309-.168 1.573-.264 1.741-.396v1.032zm-2.893-2.196c.072-.48.24-1.212 1.44-1.212.997 0 1.477.359 1.477 1.02 0 .624-.3.721-.552.745l-1.741.216c-1.751.216-1.907 1.44-1.907 1.968 0 1.08.815 1.812 1.967 1.812 1.225 0 1.861-.575 2.269-1.02.036.48.18.959 1.115.959.24 0 .396-.071.576-.119v-.768c-.12.024-.252.048-.348.048-.216 0-.348-.107-.348-.372v-3.612c0-1.607-1.823-1.751-2.328-1.751-1.548 0-2.543.587-2.591 2.087h.971zm-10.93 4.368h1.055v-3.421c0-1.703 1.056-2.088 1.657-2.088.78 0 .984.637.984 1.164v4.345h1.055v-3.828c0-.84.588-1.681 1.477-1.681.9 0 1.164.588 1.164 1.452v4.057h1.055v-4.345c0-1.763-1.271-2.11-1.943-2.11-.973 0-1.393.432-1.921 1.019-.18-.336-.539-1.019-1.667-1.019-1.129 0-1.669.73-1.897 1.066h-.024v-.887h-.995v6.276zm-1.585-8.615h-1.054v1.199h1.054v-1.199zm0 2.34h-1.054v6.275h1.054v-6.275zm-4.056 2.627c0-.912.624-1.68 1.608-1.68h.396v-1.092a.887.887 0 0 0-.276-.035c-.792 0-1.344.491-1.764 1.223h-.024v-1.043h-.995v6.275h1.055v-3.648zm-7.128.011h2.713c1.872 0 2.555-1.354 2.555-2.555 0-1.393-.959-2.424-2.555-2.424h-3.876v8.615h1.163v-3.636zm0-3.983h2.365c.96 0 1.704.348 1.704 1.44 0 1.164-.708 1.548-1.752 1.548h-2.317v-2.988zM99.771 325.517c0-.312-.156-1.966-2.4-1.966-1.236 0-2.375.622-2.375 2.002 0 .865.575 1.31 1.451 1.525l1.224.3c.901.228 1.249.396 1.249.9 0 .695-.684.997-1.441.997-1.488 0-1.632-.794-1.668-1.285h-1.019c.036.756.216 2.194 2.699 2.194 1.417 0 2.483-.778 2.483-2.074 0-.853-.455-1.332-1.762-1.656l-1.057-.265c-.816-.204-1.141-.324-1.141-.841 0-.779.925-.888 1.249-.888 1.333 0 1.477.66 1.489 1.056h1.019zm-5.616-.913v-.875h-1.008v-1.752h-1.054v1.752h-.852v.875h.852v4.142c0 .756.228 1.343 1.27 1.343.108 0 .408-.048.792-.084v-.827h-.372c-.216 0-.636 0-.636-.492v-4.081h1.008zm-3.864 1.128c0-1.786-1.222-2.182-2.195-2.182-1.08 0-1.668.73-1.896 1.066h-.024v-.888h-.995v6.275h1.054v-3.419c0-1.705 1.057-2.089 1.657-2.089 1.033 0 1.345.552 1.345 1.644v3.864h1.054v-4.271zm-10.957.638c0-.973.769-1.873 1.741-1.873 1.285 0 1.693.9 1.753 1.873h-3.494zm3.447 1.668c-.036.468-.624 1.237-1.621 1.237-1.212 0-1.825-.758-1.825-2.066h4.584c0-2.22-.886-3.658-2.699-3.658-2.076 0-3.011 1.546-3.011 3.49 0 1.813 1.043 3.144 2.807 3.144 1.009 0 1.417-.239 1.705-.431.791-.528 1.079-1.416 1.115-1.716h-1.055zm-5.857-6.648H75.87v1.199h1.054v-1.199zm0 2.339H75.87v6.275h1.054v-6.275zm-2.112.875v-.875h-1.008v-1.752h-1.055v1.752h-.852v.875h.852v4.142c0 .756.228 1.343 1.271 1.343.108 0 .408-.048.792-.084v-.827h-.372c-.216 0-.636 0-.636-.492v-4.081h1.008zm-5.147 3.23c0 .84-.96 1.476-1.945 1.476-.792 0-1.14-.407-1.14-1.092 0-.792.828-.948 1.344-1.02 1.309-.168 1.573-.265 1.741-.396v1.032zm-2.894-2.197c.072-.479.24-1.212 1.44-1.212.997 0 1.477.36 1.477 1.021 0 .625-.3.721-.552.744l-1.741.217c-1.751.216-1.907 1.439-1.907 1.968 0 1.08.815 1.811 1.967 1.811 1.225 0 1.861-.574 2.269-1.019.036.479.18.959 1.115.959.24 0 .396-.072.576-.12v-.767c-.12.023-.252.048-.348.048-.216 0-.348-.108-.348-.372v-3.613c0-1.606-1.823-1.75-2.327-1.75-1.549 0-2.544.586-2.592 2.086h.971zm-7.69 6.852h1.055v-3.144h.024c.276.444.828.839 1.668.839 2.137 0 2.76-2.003 2.76-3.503 0-1.765-.947-3.131-2.616-3.131-1.14 0-1.62.706-1.872 1.066h-.024v-.888h-.995v8.761zm1.007-5.327c0-1.021.168-2.665 1.692-2.665 1.633 0 1.717 1.548 1.717 2.353 0 1.38-.54 2.426-1.693 2.426-.672-.001-1.716-.446-1.716-2.114m-9.932-.792c0-.973.768-1.873 1.741-1.873 1.284 0 1.692.9 1.752 1.873h-3.493zm3.445 1.668c-.036.468-.624 1.237-1.62 1.237-1.213 0-1.825-.758-1.825-2.066h4.584c0-2.22-.887-3.658-2.699-3.658-2.077 0-3.012 1.546-3.012 3.49 0 1.813 1.043 3.144 2.808 3.144 1.008 0 1.416-.239 1.704-.431.792-.528 1.079-1.416 1.115-1.716h-1.055zm-6.83-1.682c0-.911.624-1.68 1.608-1.68h.396v-1.091a.858.858 0 0 0-.276-.035c-.792 0-1.344.491-1.764 1.222h-.024v-1.043h-.995v6.275h1.055v-3.648zm-7.139.506c0-.841.312-2.401 1.825-2.401 1.512 0 1.824 1.561 1.824 2.401 0 .84-.312 2.399-1.824 2.399-1.513.001-1.825-1.559-1.825-2.399m-1.091 0c0 1.619.911 3.311 2.916 3.311 2.004 0 2.915-1.691 2.915-3.311 0-1.621-.911-3.312-2.915-3.312-2.005.001-2.916 1.691-2.916 3.312m-1.285 3.143v-8.615h-1.655l-2.448 7.284h-.024l-2.461-7.284H29v8.615h1.127v-5.087c0-.253-.024-1.345-.024-2.137h.024l2.425 7.224h1.152l2.425-7.236h.023c0 .805-.023 1.896-.023 2.148v5.088h1.127z"/></g><text transform="translate(99.975 330.006)" font-family="'HelveticaLTStd-Roman'" font-size="12"></text><g><defs><path id="A" d="M0 0h595.276v368.504H0z"/></defs><clipPath id="B"><use xlink:href="#A" overflow="visible"/></clipPath><path clip-path="url(#B)" d="M76.914 340.134c0-1.787-1.223-2.184-2.195-2.184-1.081 0-1.669.731-1.897 1.067h-.024v-.888h-.995v6.275h1.055v-3.42c0-1.704 1.056-2.088 1.657-2.088 1.032 0 1.344.552 1.344 1.644v3.864h1.055v-4.27zm-10.956.637c0-.974.768-1.873 1.74-1.873 1.285 0 1.693.899 1.753 1.873h-3.493zm3.445 1.667c-.036.469-.624 1.236-1.621 1.236-1.212 0-1.824-.756-1.824-2.064h4.584c0-2.22-.887-3.659-2.699-3.659-2.077 0-3.012 1.547-3.012 3.491 0 1.813 1.043 3.144 2.807 3.144 1.009 0 1.417-.239 1.705-.432.791-.527 1.079-1.416 1.115-1.716h-1.055zm-10.117-1.667c0-.974.768-1.873 1.74-1.873 1.285 0 1.693.899 1.753 1.873h-3.493zm3.444 1.667c-.036.469-.624 1.236-1.621 1.236-1.212 0-1.824-.756-1.824-2.064h4.584c0-2.22-.887-3.659-2.699-3.659-2.077 0-3.012 1.547-3.012 3.491 0 1.813 1.043 3.144 2.807 3.144 1.009 0 1.417-.239 1.705-.432.791-.527 1.079-1.416 1.115-1.716H62.73zm-5.688-2.521c0-.312-.156-1.967-2.4-1.967-1.236 0-2.375.623-2.375 2.003 0 .864.575 1.309 1.451 1.524l1.225.301c.9.228 1.248.396 1.248.9 0 .695-.684.995-1.441.995-1.488 0-1.632-.792-1.668-1.283h-1.019c.036.756.216 2.194 2.699 2.194 1.417 0 2.484-.778 2.484-2.074 0-.853-.456-1.333-1.763-1.657l-1.057-.265c-.816-.203-1.14-.323-1.14-.84 0-.779.924-.888 1.248-.888 1.333 0 1.477.66 1.489 1.056h1.019z"/></g></svg>