<svg version="1.1" id="Layer_1" xmlns="http://www.w3.org/2000/svg" xmlns:xlink="http://www.w3.org/1999/xlink" x="0" y="0" viewBox="0 0 510.2 240.9" xml:space="preserve"><style type="text/css">.st0,.st1{clip-path:url(#SVGID_2_);fill:#808285}.st1{clip-path:url(#SVGID_4_)}.st2{clip-path:url(#SVGID_6_);fill:#d1d3d4}.st3{clip-path:url(#SVGID_8_)}.st3,.st4{fill:#d1d3d4}.st5{clip-path:url(#SVGID_10_);fill:#dcddde}.st6,.st7,.st8{clip-path:url(#SVGID_12_);fill:#dcddde}.st7,.st8{clip-path:url(#SVGID_14_)}.st8{clip-path:url(#SVGID_16_)}.st9{clip-path:url(#SVGID_18_);fill:#b1b3b6}.st10,.st11,.st12{clip-path:url(#SVGID_20_);fill:#d1d3d4}.st11,.st12{clip-path:url(#SVGID_22_)}.st12{clip-path:url(#SVGID_24_)}.st13,.st14,.st15{clip-path:url(#SVGID_26_);fill:#b1b3b6}.st14,.st15{clip-path:url(#SVGID_28_)}.st15{clip-path:url(#SVGID_30_)}.st16,.st17,.st18{clip-path:url(#SVGID_32_);fill:#dcddde}.st17,.st18{clip-path:url(#SVGID_34_)}.st18{clip-path:url(#SVGID_36_)}.st19,.st20{clip-path:url(#SVGID_38_);fill:#d1d3d4}.st20{clip-path:url(#SVGID_40_)}.st21{clip-path:url(#SVGID_42_);fill:#b1b3b6}.st22{clip-path:url(#SVGID_44_);fill:#e6e7e8}.st23{clip-path:url(#SVGID_46_);fill:#b1b3b6}.st24{clip-path:url(#SVGID_48_);fill:#e6e7e8}.st25{clip-path:url(#SVGID_50_);fill:#b1b3b6}.st26{clip-path:url(#SVGID_52_);fill:#e6e7e8}.st27{clip-path:url(#SVGID_54_);fill:#b1b3b6}.st28{clip-path:url(#SVGID_56_);fill:#e6e7e8}.st29{clip-path:url(#SVGID_58_);fill:#b1b3b6}.st30{clip-path:url(#SVGID_60_);fill:#e6e7e8}.st31{clip-path:url(#SVGID_62_);fill:#b1b3b6}.st32{clip-path:url(#SVGID_64_);fill:#e6e7e8}.st33{clip-path:url(#SVGID_66_)}.st34{font-family:&apos;Helvetica&apos;}.st35{font-size:11.3219px}.st36{clip-path:url(#SVGID_68_)}.st37{clip-path:url(#SVGID_70_)}.st38{clip-path:url(#SVGID_72_)}.st39{clip-path:url(#SVGID_74_)}.st40{clip-path:url(#SVGID_76_)}.st41{clip-path:url(#SVGID_78_)}.st42{clip-path:url(#SVGID_80_)}.st43{clip-path:url(#SVGID_82_)}.st44{clip-path:url(#SVGID_84_)}</style><defs><path id="SVGID_1_" d="M0 0h510.2v240.9H0z"/></defs><clipPath id="SVGID_2_"><use xlink:href="#SVGID_1_" overflow="visible"/></clipPath><path class="st0" d="M31 179.6c19.8 32 55.3 53.4 95.7 53.4s75.9-21.3 95.7-53.4l-95.7-55.2L31 179.6zm92.3-61.1V8C62.7 9.8 14.2 59.4 14.2 120.4c0 19.3 4.9 37.4 13.4 53.3l95.7-55.2zm115.8 1.9C239.1 59.4 190.6 9.8 130 8v110.5l95.7 55.3c8.6-15.9 13.4-34.1 13.4-53.4"/><defs><path id="SVGID_3_" d="M0 0h510.2v240.9H0z"/></defs><clipPath id="SVGID_4_"><use xlink:href="#SVGID_3_" overflow="visible"/></clipPath><path class="st1" d="M287.6 179.6c19.8 32 55.3 53.4 95.7 53.4s75.9-21.3 95.7-53.4l-95.7-55.2-95.7 55.2zm92.3-61.1V8c-60.6 1.8-109.1 51.4-109.1 112.4 0 19.3 4.9 37.4 13.4 53.3l95.7-55.2zm115.9 1.9c0-61-48.6-110.6-109.1-112.4v110.5l95.7 55.3c8.5-15.9 13.4-34.1 13.4-53.4"/><defs><path id="SVGID_5_" d="M0 0h510.2v240.9H0z"/></defs><clipPath id="SVGID_6_"><use xlink:href="#SVGID_5_" overflow="visible"/></clipPath><path class="st2" d="M73.1 55.2c-.3.6-.1 1.3.4 1.6.6.3 1.3.1 1.6-.4.3-.6.1-1.3-.4-1.6-.6-.4-1.3-.2-1.6.4m-6.5-3.4c0-3.3-2.7-6-6-6s-6 2.7-6 6 2.7 6 6 6 6-2.7 6-6m4.8-2.3c-.3-.6-1-.8-1.6-.4-.6.3-.8 1-.4 1.6.3.6 1 .8 1.6.4.5-.3.7-1 .4-1.6m0 4.7c.3-.6.1-1.3-.4-1.6-.6-.3-1.3-.1-1.6.4-.3.6-.1 1.3.4 1.6.5.3 1.2.1 1.6-.4m.1 6.2s.6-2.1-1.5-3c-2.1-.9-3.4 1.3-3.4 1.3l-2.8 7.9-2.5-4.5s-.8-2.8-5-3.1c-4.2-.3-5.2 3.1-5.2 3.1l-4.2 13.6v20.7h10.2V79.3l3-8.7 2.6 4.3s.9 1.1 2.1.9c1.2-.2 1.7-1.3 1.7-1.3l5-14.1zm3.6-13.1c-.3-.6-1-.8-1.6-.4-.6.3-.8 1-.4 1.6.3.6 1 .8 1.6.4.5-.3.7-1 .4-1.6m1.4 4.7c0-.6-.5-1.2-1.2-1.2-.6 0-1.2.5-1.2 1.2 0 .6.5 1.2 1.2 1.2s1.2-.6 1.2-1.2m2.4-6.8c-.3-.6-1-.8-1.6-.4-.6.3-.8 1-.4 1.6.3.6 1 .8 1.6.4s.7-1.1.4-1.6m-2.1 12.1c-.3.6-.1 1.3.4 1.6.6.3 1.3.1 1.6-.4.3-.6.1-1.3-.4-1.6-.5-.3-1.2-.1-1.6.4m2.9-6.5c-.6 0-1.2.5-1.2 1.2 0 .6.5 1.2 1.2 1.2s1.2-.5 1.2-1.2c-.1-.7-.6-1.2-1.2-1.2m1.5 5c-.6 0-1.2.5-1.2 1.2 0 .6.5 1.2 1.2 1.2s1.2-.5 1.2-1.2c-.1-.7-.6-1.2-1.2-1.2m0-9.6c-.6 0-1.2.5-1.2 1.2s.5 1.2 1.2 1.2 1.2-.5 1.2-1.2-.6-1.2-1.2-1.2m1.4-3.2c-.3-.6-1-.8-1.6-.4-.6.3-.8 1-.4 1.6.3.6 1 .8 1.6.4.5-.3.7-1 .4-1.6m3.8-2.2c-.3-.6-1-.8-1.6-.4-.6.3-.8 1-.4 1.6s1 .8 1.6.4c.5-.3.7-1 .4-1.6M89.3 52c0 .6-.5 1.2-1.2 1.2-.6 0-1.2-.5-1.2-1.2 0-.6.5-1.2 1.2-1.2s1.2.5 1.2 1.2m-2.2-3.4c0 .6-.5 1.2-1.2 1.2s-1.2-.5-1.2-1.2.5-1.2 1.2-1.2 1.2.5 1.2 1.2M84.9 52c0 .6-.5 1.2-1.2 1.2s-1.2-.5-1.2-1.2c0-.6.5-1.2 1.2-1.2s1.2.5 1.2 1.2m-.1 3.4c0-.6.5-1.2 1.2-1.2s1.2.5 1.2 1.2-.5 1.2-1.2 1.2-1.2-.6-1.2-1.2m9.1-3.6c0-3.3-2.7-6-6-6s-6 2.7-6 6 2.7 6 6 6 6-2.7 6-6m-6.8 12.4c-.3.6-1 .8-1.6.4-.6-.3-.8-1-.4-1.6.3-.6 1-.8 1.6-.4.5.4.7 1.1.4 1.6m-3.8-2.1c-.3.6-1 .8-1.6.4-.6-.3-.8-1-.4-1.6.3-.6 1-.8 1.6-.4.6.3.8 1 .4 1.6m15.6-.8c-1.5-1.6-3.1-1.5-3.1-1.5h-16s-1.6-.1-3.1 1.5c-2.6 2.7-1.9 5.6-1.9 5.6V87s.2 2.1 2.5 1.9c2.3-.1 2-1.7 2-1.7V69.4l.7-.1v27.1h7V89H88.7v7.4h6.8V69.3l.7.1v17.8s-.3 1.6 2 1.7c2.3.1 2.5-1.9 2.5-1.9V66.9c.1 0 .8-2.9-1.8-5.6"/><defs><path id="SVGID_7_" d="M0 0h510.2v240.9H0z"/></defs><clipPath id="SVGID_8_"><use xlink:href="#SVGID_7_" overflow="visible"/></clipPath><path class="st3" d="M329.7 54.8c-.3.6-.1 1.3.4 1.6.6.3 1.3.1 1.6-.4.3-.6.1-1.3-.4-1.6-.6-.4-1.3-.2-1.6.4m-6.5-3.4c0-3.3-2.7-6-6-6s-6 2.7-6 6 2.7 6 6 6 6-2.7 6-6m4.8-2.3c-.3-.6-1-.8-1.6-.4-.6.3-.8 1-.4 1.6.3.6 1 .8 1.6.4.5-.3.7-1 .4-1.6m0 4.7c.3-.6.1-1.3-.4-1.6-.6-.3-1.3-.1-1.6.4-.3.6-.1 1.3.4 1.6.5.3 1.2.1 1.6-.4m.1 6.2s.6-2.1-1.5-3-3.4 1.3-3.4 1.3l-2.8 7.9-2.5-4.5s-.8-2.8-5-3.1c-4.2-.3-5.2 3.1-5.2 3.1l-4.2 13.6V96h10.2V78.9l3-8.7 2.6 4.3s.9 1.1 2.1.9c1.2-.2 1.7-1.3 1.7-1.3l5-14.1zm3.6-13.1c-.3-.6-1-.8-1.6-.4-.6.3-.8 1-.4 1.6.3.6 1 .8 1.6.4.6-.3.7-1 .4-1.6m1.4 4.7c0-.6-.5-1.2-1.2-1.2s-1.2.5-1.2 1.2c0 .6.5 1.2 1.2 1.2s1.2-.6 1.2-1.2m2.4-6.8c-.3-.6-1-.8-1.6-.4-.6.3-.8 1-.4 1.6.3.6 1 .8 1.6.4.5-.3.7-1.1.4-1.6m-2.1 12.1c-.3.6-.1 1.3.4 1.6.6.3 1.3.1 1.6-.4.3-.6.1-1.3-.4-1.6-.5-.3-1.2-.1-1.6.4m2.9-6.5c-.6 0-1.2.5-1.2 1.2 0 .6.5 1.2 1.2 1.2s1.2-.5 1.2-1.2-.6-1.2-1.2-1.2m1.5 5c-.6 0-1.2.5-1.2 1.2 0 .6.5 1.2 1.2 1.2.6 0 1.2-.5 1.2-1.2-.1-.7-.6-1.2-1.2-1.2m0-9.6c-.6 0-1.2.5-1.2 1.2s.5 1.2 1.2 1.2c.6 0 1.2-.5 1.2-1.2s-.6-1.2-1.2-1.2m1.4-3.2c-.3-.6-1-.8-1.6-.4-.6.3-.8 1-.4 1.6s1 .8 1.6.4c.6-.3.7-1 .4-1.6m3.8-2.2c-.3-.6-1-.8-1.6-.4-.6.3-.8 1-.4 1.6.3.6 1 .8 1.6.4.5-.3.7-1 .4-1.6m2.9 11.2c0 .6-.5 1.2-1.2 1.2-.6 0-1.2-.5-1.2-1.2 0-.6.5-1.2 1.2-1.2s1.2.5 1.2 1.2m-2.2-3.4c0 .6-.5 1.2-1.2 1.2s-1.2-.5-1.2-1.2.5-1.2 1.2-1.2 1.2.5 1.2 1.2m-2.1 3.4c0 .6-.5 1.2-1.2 1.2s-1.2-.5-1.2-1.2c0-.6.5-1.2 1.2-1.2.6 0 1.2.5 1.2 1.2m-.2 3.4c0-.6.5-1.2 1.2-1.2.6 0 1.2.5 1.2 1.2s-.5 1.2-1.2 1.2c-.7-.1-1.2-.6-1.2-1.2m9.1-3.6c0-3.3-2.7-6-6-6s-6 2.7-6 6 2.7 6 6 6 6-2.7 6-6m-6.8 12.4c-.3.6-1 .7-1.6.4-.6-.3-.8-1-.4-1.6s1-.8 1.6-.4c.5.4.7 1.1.4 1.6m-3.7-2.1c-.3.6-1 .8-1.6.4-.6-.3-.8-1-.4-1.6.3-.6 1-.8 1.6-.4.5.3.7 1 .4 1.6m15.5-.8c-1.5-1.6-3.1-1.5-3.1-1.5h-15.9s-1.6-.1-3.1 1.5c-2.6 2.7-1.9 5.6-1.9 5.6v20.1s.2 2.1 2.5 1.9c2.3-.1 2-1.7 2-1.7V69l.7-.1V96h6.8v-7.4H345.2V96h6.8V68.9l.7.1v17.8s-.3 1.6 2 1.7c2.3.1 2.5-1.9 2.5-1.9V66.5c.3 0 .9-2.8-1.7-5.6"/><path class="st4" d="M151.6 56.9h53.5v35.9h-53.5V56.9zm61.9-1.3l-35.2-17.8-35.1 17.8h5.4v40.9h59.5V55.6h5.4z"/><g><defs><path id="SVGID_9_" d="M0 0h510.2v240.9H0z"/></defs><clipPath id="SVGID_10_"><use xlink:href="#SVGID_9_" overflow="visible"/></clipPath><path class="st5" d="M168.3 76.8l-2 1.2s-1.6-1.3-1.1-4.5c.4-3.2 2.7-6.1 2.7-6.1s-4 1.6-5.3 5.3c-1.3 3.7.1 7.7.1 7.7l-2 1.2 5.8.4 1.8-5.2z"/><defs><path id="SVGID_11_" d="M0 0h510.2v240.9H0z"/></defs><clipPath id="SVGID_12_"><use xlink:href="#SVGID_11_" overflow="visible"/></clipPath><path class="st6" d="M179.5 83.7l1 2.1s-1.4 1.5-4.6.8c-3.2-.7-5.9-3.1-5.9-3.1s1.3 4.1 4.9 5.6c3.6 1.6 7.7.4 7.7.4l1.1 2.1.9-5.8-5.1-2.1z"/><defs><path id="SVGID_13_" d="M0 0h510.2v240.9H0z"/></defs><clipPath id="SVGID_14_"><use xlink:href="#SVGID_13_" overflow="visible"/></clipPath><path class="st7" d="M177.1 66.2l-1-2.1s1.4-1.5 4.6-.8c3.2.7 5.9 3.1 5.9 3.1s-1.3-4.1-4.9-5.6c-3.6-1.6-7.7-.4-7.7-.4l-1.1-2.1-.9 5.8 5.1 2.1z"/><defs><path id="SVGID_15_" d="M0 0h510.2v240.9H0z"/></defs><clipPath id="SVGID_16_"><use xlink:href="#SVGID_15_" overflow="visible"/></clipPath><path class="st8" d="M187.3 74.7l2-1.1s1.5 1.3 1 4.6-2.8 6-2.8 6 4-1.5 5.4-5.2 0-7.7 0-7.7l2-1.2-5.8-.6-1.8 5.2z"/><defs><path id="SVGID_17_" d="M0 0h510.2v240.9H0z"/></defs><clipPath id="SVGID_18_"><use xlink:href="#SVGID_17_" overflow="visible"/></clipPath><path class="st9" d="M381.7 175.1c0-3.8-3-6.8-6.8-6.8s-6.8 3-6.8 6.8 3 6.8 6.8 6.8 6.8-3 6.8-6.8m5.7 10.8c-1.7-1.8-3.5-1.7-3.5-1.7h-18.1s-1.8-.1-3.5 1.7c-2.9 3.1-2.2 6.3-2.2 6.3v22.7s.2 2.3 2.9 2.2c2.6-.2 2.3-1.9 2.3-1.9V195l.8-.1v30.7h7.7v-8.4h1.9v8.4h7.7v-30.7l.8.1v20.1s-.4 1.8 2.3 1.9c2.6.2 2.9-2.2 2.9-2.2v-22.7c.2.1.9-3.1-2-6.2"/><defs><path id="SVGID_19_" d="M0 0h510.2v240.9H0z"/></defs><clipPath id="SVGID_20_"><use xlink:href="#SVGID_19_" overflow="visible"/></clipPath><path class="st10" d="M396.5 181.4c0-3.8-3-6.8-6.8-6.8s-6.8 3-6.8 6.8 3 6.8 6.8 6.8 6.8-3 6.8-6.8m5.7 10.8c-1.7-1.8-3.5-1.7-3.5-1.7h-18.1s-1.8-.1-3.5 1.7c-2.9 3.1-2.2 6.3-2.2 6.3v22.7s.2 2.3 2.9 2.2 2.3-1.9 2.3-1.9v-20.1l.8-.1V232h7.7v-8.4h1.9v8.4h7.7v-30.7l.8.1v20.1s-.4 1.8 2.3 1.9 2.9-2.2 2.9-2.2v-22.7c.2 0 .9-3.2-2-6.3"/><defs><path id="SVGID_21_" d="M0 0h510.2v240.9H0z"/></defs><clipPath id="SVGID_22_"><use xlink:href="#SVGID_21_" overflow="visible"/></clipPath><path class="st11" d="M349.3 170.1c0-3.2-2.6-5.8-5.8-5.8-3.2 0-5.8 2.6-5.8 5.8 0 3.2 2.6 5.8 5.8 5.8 3.2 0 5.8-2.6 5.8-5.8m4.9 9.2c-1.5-1.6-3-1.4-3-1.4h-15.3s-1.5-.1-3 1.4c-2.5 2.6-1.8 5.4-1.8 5.4V204s.2 2 2.4 1.9c2.2-.1 1.9-1.7 1.9-1.7V187l.7-.1V213h6.6v-7.1H344.4v7.1h6.6v-26l.7.1v17.1s-.3 1.5 1.9 1.7c2.2.1 2.4-1.9 2.4-1.9v-19.3c0-.1.6-2.8-1.8-5.4"/><defs><path id="SVGID_23_" d="M0 0h510.2v240.9H0z"/></defs><clipPath id="SVGID_24_"><use xlink:href="#SVGID_23_" overflow="visible"/></clipPath><path class="st12" d="M439.1 168.9c0-3.2-2.6-5.8-5.8-5.8-3.2 0-5.8 2.6-5.8 5.8 0 3.2 2.6 5.8 5.8 5.8 3.2 0 5.8-2.6 5.8-5.8m4.9 9.2c-1.5-1.6-3-1.4-3-1.4h-15.3s-1.5-.1-3 1.4c-2.5 2.6-1.8 5.4-1.8 5.4v19.3s.2 2 2.4 1.9c2.2-.1 1.9-1.7 1.9-1.7v-17.1l.7-.1v26.1h6.6v-7.1H434.2v7.1h6.6v-26.1l.7.1V203s-.3 1.5 1.9 1.7c2.2.1 2.4-1.9 2.4-1.9v-19.3c0-.1.6-2.8-1.8-5.4"/><defs><path id="SVGID_25_" d="M0 0h510.2v240.9H0z"/></defs><clipPath id="SVGID_26_"><use xlink:href="#SVGID_25_" overflow="visible"/></clipPath><path class="st13" d="M412.8 171.1c0-3.8-3-6.8-6.8-6.8s-6.8 3-6.8 6.8 3 6.8 6.8 6.8c3.8.1 6.8-3 6.8-6.8m5.7 10.8c-1.7-1.8-3.5-1.7-3.5-1.7h-18s-1.8-.1-3.5 1.7c-2.9 3.1-2.2 6.3-2.2 6.3v22.7s.2 2.3 2.9 2.2c2.6-.2 2.3-1.9 2.3-1.9V191l.8-.1v30.7h7.7v-8.4h1.9v8.4h7.7V191l.8.1v20.1s-.4 1.8 2.3 1.9c2.6.2 2.9-2.2 2.9-2.2v-22.7c.1 0 .8-3.2-2.1-6.3"/><defs><path id="SVGID_27_" d="M0 0h510.2v240.9H0z"/></defs><clipPath id="SVGID_28_"><use xlink:href="#SVGID_27_" overflow="visible"/></clipPath><path class="st14" d="M331.5 168.3c0-3.3-2.7-6-6-6s-6 2.7-6 6 2.7 6 6 6c3.4 0 6-2.7 6-6m5.1 9.5c-1.5-1.6-3.1-1.5-3.1-1.5h-15.9s-1.6-.1-3.1 1.5c-2.5 2.7-1.9 5.5-1.9 5.5v20s.2 2.1 2.5 1.9 2-1.7 2-1.7v-17.7l.7-.1v27h6.8v-7.4H326.3v7.4h6.8v-27l.7.1v17.7s-.3 1.6 2 1.7c2.3.1 2.5-1.9 2.5-1.9v-20c.2 0 .8-2.8-1.7-5.5"/><g><defs><path id="SVGID_29_" d="M0 0h510.2v240.9H0z"/></defs><clipPath id="SVGID_30_"><use xlink:href="#SVGID_29_" overflow="visible"/></clipPath><path class="st15" d="M453.5 169.3c0-2.7-2.2-4.9-4.9-4.9s-4.9 2.2-4.9 4.9 2.2 4.9 4.9 4.9 4.9-2.2 4.9-4.9m4.1 7.8c-1.2-1.3-2.5-1.2-2.5-1.2H442s-1.3-.1-2.5 1.2c-2.1 2.2-1.6 4.6-1.6 4.6v16.5s.2 1.7 2.1 1.6c1.9-.1 1.7-1.4 1.7-1.4v-14.6l.6-.1V206h5.6v-6.1H449.3v6.1h5.6v-22.3l.6.1v14.6s-.3 1.3 1.7 1.4c1.9.1 2.1-1.6 2.1-1.6v-16.5c-.1 0 .4-2.3-1.7-4.6"/></g><g><defs><path id="SVGID_31_" d="M0 0h510.2v240.9H0z"/></defs><clipPath id="SVGID_32_"><use xlink:href="#SVGID_31_" overflow="visible"/></clipPath><path class="st16" d="M431 176.3c0-3.3-2.7-6-6-6s-6 2.7-6 6 2.7 6 6 6 6-2.7 6-6m5 9.5c-1.5-1.6-3.1-1.5-3.1-1.5h-15.8s-1.6-.1-3.1 1.5c-2.5 2.7-1.9 5.5-1.9 5.5v20s.2 2.1 2.5 1.9c2.3-.1 2-1.7 2-1.7v-17.7l.7-.1v27h6.8v-7.4H425.8v7.4h6.8v-27l.7.1v17.7s-.3 1.6 2 1.7c2.3.1 2.5-1.9 2.5-1.9v-20c.1 0 .8-2.8-1.8-5.5"/></g><g><defs><path id="SVGID_33_" d="M0 0h510.2v240.9H0z"/></defs><clipPath id="SVGID_34_"><use xlink:href="#SVGID_33_" overflow="visible"/></clipPath><path class="st17" d="M362.1 183.3c0-3.3-2.7-6-6-6s-6 2.7-6 6 2.7 6 6 6 6-2.7 6-6m5 9.5c-1.5-1.6-3.1-1.5-3.1-1.5h-15.8s-1.6-.1-3.1 1.5c-2.5 2.7-1.9 5.5-1.9 5.5v20s.2 2.1 2.5 1.9c2.3-.1 2-1.7 2-1.7v-17.7l.7-.1v27h6.8v-7.4H356.9v7.4h6.8v-27l.7.1v17.7s-.3 1.6 2 1.7c2.3.1 2.5-1.9 2.5-1.9v-20c.1 0 .7-2.8-1.8-5.5"/></g><g><defs><path id="SVGID_35_" d="M0 0h510.2v240.9H0z"/></defs><clipPath id="SVGID_36_"><use xlink:href="#SVGID_35_" overflow="visible"/></clipPath><path class="st18" d="M315.4 172.1c0-2.1-1.7-3.8-3.8-3.8-2.1 0-3.8 1.7-3.8 3.8s1.7 3.8 3.8 3.8c2.2 0 3.8-1.7 3.8-3.8m3.2 6c-.9-1-1.9-.9-1.9-.9h-10s-1-.1-1.9.9c-1.6 1.7-1.2 3.5-1.2 3.5v12.6s.1 1.3 1.6 1.2c1.5-.1 1.3-1.1 1.3-1.1v-11.2h.5v17h4.3v-4.6h1v4.6h4.3v-17h.5v11.2s-.2 1 1.3 1.1c1.5.1 1.6-1.2 1.6-1.2v-12.6c-.2-.1.2-1.8-1.4-3.5"/></g><g><defs><path id="SVGID_37_" d="M0 0h510.2v240.9H0z"/></defs><clipPath id="SVGID_38_"><use xlink:href="#SVGID_37_" overflow="visible"/></clipPath><path class="st19" d="M433.7 38.9c.9-5-2.8-7.7-7-7.7-4.3 0-8.2 2.9-7.1 7.6 2.8 5.9 2.9 8.7 7.1 8.7s3.8-2.5 7-8.6m1.6 12.2c-4.2-1.7-8-1.9-8-1.9H426s-3.1-.4-8 1.9c-3.3 3.5-2.5 7.1-2.5 7.1v25.7s-.5 2.6 2.5 2.5c3-.2 1-2.2 1-2.2V59l.9-.1s-.6 8.8 0 10c.6 1.2 1.3.5 1.3 2.2 0 2.9-1.1 1.8-1.3 2.9-.2 1.1 0 21.9 0 21.9h5.6v-9.5h2.2V96h5.6s.2-20.6 0-21.9c-.2-1.3-1 0-1-2.9 0-1.8.5-1.1 1-2.2s0-10 0-10l.9.1v25.2s-2 2 1 2.2 2.5-2.5 2.5-2.5V58.2s.8-3.6-2.4-7.1"/></g><g><defs><path id="SVGID_39_" d="M0 0h510.2v240.9H0z"/></defs><clipPath id="SVGID_40_"><use xlink:href="#SVGID_39_" overflow="visible"/></clipPath><path class="st20" d="M134.4 171c0-4.3-3.5-7.7-7.7-7.7-4.3 0-7.7 3.5-7.7 7.7 0 4.3 3.5 7.7 7.7 7.7s7.7-3.4 7.7-7.7m6.4 12.2c-1.9-2.1-4-1.9-4-1.9h-20.4s-2-.2-4 1.9c-3.3 3.5-2.5 7.1-2.5 7.1V216s.3 2.6 3.3 2.5c3-.2 2.6-2.2 2.6-2.2v-22.8l.9-.1v34.7h8.8v-9.5h2.2v9.5h8.8v-34.7l.9.1v22.8s-.4 2 2.6 2.2 3.3-2.5 3.3-2.5v-25.7c0 .1.8-3.6-2.5-7.1"/></g><g><defs><path id="SVGID_41_" d="M0 0h510.2v240.9H0z"/></defs><clipPath id="SVGID_42_"><use xlink:href="#SVGID_41_" overflow="visible"/></clipPath><path class="st21" d="M131.1 195.7c2.3 0 4.2-1.9 4.2-4.2 0-2.3-1.9-4.2-4.2-4.2s-4.2 1.9-4.2 4.2c0 2.4 1.9 4.2 4.2 4.2"/></g><g><defs><path id="SVGID_43_" d="M0 0h510.2v240.9H0z"/></defs><clipPath id="SVGID_44_"><use xlink:href="#SVGID_43_" overflow="visible"/></clipPath><path class="st22" d="M134.4 191.4l2.8-1-2.9-.2s-.1.2-.1.6c0 .4.2.6.2.6m-.4 1.6h2.2l-2-1s-.1.1-.2.5 0 .5 0 .5m-.8.8c-.3.3-.3.5-.3.5l3.1 2.3-2.3-3.1s-.2 0-.5.3m-2.1 1.2c-.4 0-.6.2-.6.2l.7 3.1.5-3.2c0 .1-.2-.1-.6-.1m.4-2.4l.7.8v-1s-.2-.1-.4 0c-.3 0-.3.2-.3.2m-3.6.7l-1.8 2.6 2.6-1.8s0-.3-.2-.6-.6-.2-.6-.2m-1.5-.7l1.4.1v-.4c-.1-.3-.2-.4-.2-.4l-1.2.7zm1.4-2.3l-2.3.6 2.3.5s.1-.2.1-.5c0-.5-.1-.6-.1-.6m1.1-1c.2-.3.2-.5.2-.5l-2.5-1.4 1.8 2.3c.1-.1.3-.1.5-.4m.7 2c.1-.3.1-.5.1-.5l-1.4-.2 1 1c0 .1.2 0 .3-.3m.7 1.8c-.3-.1-.5.1-.5.1l.1 1.4.8-1.2c0-.1-.1-.3-.4-.3m.8-3.3l-.7-1.2-.1 1.4s.2.1.5 0 .3-.2.3-.2m.1-1.7c.4 0 .6-.2.6-.2l-.6-3.5-.6 3.5s.2.2.6.2m2.1 2.4l-1.4.3s0 .2.1.4c.2.3.3.3.3.3l1-1zm0-1l2-3.3-2.9 2.6s0 .2.3.5c.3.2.6.2.6.2"/></g><g><defs><path id="SVGID_45_" d="M0 0h510.2v240.9H0z"/></defs><clipPath id="SVGID_46_"><use xlink:href="#SVGID_45_" overflow="visible"/></clipPath><path class="st23" d="M119.5 191.3c1.8 0 3.3-1.5 3.3-3.3 0-1.8-1.5-3.3-3.3-3.3-1.8 0-3.3 1.5-3.3 3.3 0 1.9 1.4 3.3 3.3 3.3"/></g><g><defs><path id="SVGID_47_" d="M0 0h510.2v240.9H0z"/></defs><clipPath id="SVGID_48_"><use xlink:href="#SVGID_47_" overflow="visible"/></clipPath><path class="st24" d="M122.1 187.9l2.2-.8-2.3-.2s-.1.2 0 .5c-.1.4.1.5.1.5m-.3 1.2h1.8l-1.6-.8s-.1.1-.2.4c-.1.3 0 .4 0 .4m-.7.7c-.2.2-.2.4-.2.4l2.5 1.8-1.8-2.5c0 .1-.2.1-.5.3m-1.6 1c-.3 0-.5.2-.5.2l.5 2.5.4-2.5c0-.1-.1-.2-.4-.2m.3-2l.5.6v-.8s-.1-.1-.3 0c-.2.1-.2.2-.2.2m-2.9.6l-1.5 2.1 2.1-1.5s0-.2-.2-.4-.4-.2-.4-.2m-1.2-.6l1.1.1v-.4c0-.2-.1-.3-.1-.3l-1 .6zm1.1-1.8l-1.8.5 1.9.4s.1-.1.1-.4c-.1-.4-.2-.5-.2-.5m1-.8c.2-.2.2-.4.2-.4l-2-1.1 1.5 1.8c-.1 0 .1-.1.3-.3m.5 1.6c.1-.2.1-.4.1-.4l-1.1-.2.8.8c-.1.1.1.1.2-.2m.6 1.4c-.2-.1-.4.1-.4.1l.1 1.1.6-1s-.1-.1-.3-.2m.6-2.6l-.6-1-.1 1.1s.1.1.4 0l.3-.1m0-1.3c.3 0 .5-.1.5-.1l-.5-2.8-.5 2.8c0-.1.2.1.5.1m1.7 1.9l-1.1.3s0 .1.1.3c.1.2.3.3.3.3l.7-.9zm0-.8l1.6-2.6-2.3 2.1s0 .2.2.4c.3.1.5.1.5.1"/></g><g><defs><path id="SVGID_49_" d="M0 0h510.2v240.9H0z"/></defs><clipPath id="SVGID_50_"><use xlink:href="#SVGID_49_" overflow="visible"/></clipPath><path class="st25" d="M122.2 201.2c1.1 0 2.1-.9 2.1-2.1s-.9-2.1-2.1-2.1-2.1.9-2.1 2.1 1 2.1 2.1 2.1"/></g><g><defs><path id="SVGID_51_" d="M0 0h510.2v240.9H0z"/></defs><clipPath id="SVGID_52_"><use xlink:href="#SVGID_51_" overflow="visible"/></clipPath><path class="st26" d="M123.8 199.1l1.4-.5-1.4-.1s-.1.1 0 .3c-.1.2 0 .3 0 .3m-.2.7h1.1l-1-.5s-.1.1-.1.2v.3m-.4.4c-.1.1-.1.3-.1.3l1.5 1.1-1.1-1.5s-.1 0-.3.1m-1 .7c-.2 0-.3.1-.3.1l.3 1.6.3-1.6c0-.1-.1-.1-.3-.1m.2-1.3l.3.4v-.5h-.2l-.1.1m-1.8.4l-.9 1.3 1.3-.9s0-.1-.1-.3-.3-.1-.3-.1m-.8-.4l.7.1v-.2c0-.1-.1-.2-.1-.2l-.6.3zm.8-1.1l-1.1.3 1.2.2s.1-.1 0-.3c-.1-.1-.1-.2-.1-.2m.5-.5c.1-.1.1-.2.1-.2l-1.3-.7.9 1.1c.1 0 .2 0 .3-.2m.3 1c.1-.1.1-.2.1-.2l-.7-.1.5.5s.1 0 .1-.2m.4.9h-.2v.7l.4-.6s0-.1-.2-.1m.4-1.6l-.3-.6-.1.7h.2c.1-.1.2-.1.2-.1m0-.9c.2 0 .3-.1.3-.1l-.3-1.7-.3 1.7c0 .1.1.1.3.1m1.1 1.2l-.7.2s0 .1.1.2l.2.2.4-.6zm0-.5l1-1.6-1.4 1.3s0 .1.1.2.3.1.3.1"/></g><g><defs><path id="SVGID_53_" d="M0 0h510.2v240.9H0z"/></defs><clipPath id="SVGID_54_"><use xlink:href="#SVGID_53_" overflow="visible"/></clipPath><path class="st27" d="M129.2 207.8c1.8 0 3.2-1.4 3.2-3.2 0-1.8-1.4-3.2-3.2-3.2s-3.2 1.4-3.2 3.2 1.5 3.2 3.2 3.2"/></g><g><defs><path id="SVGID_55_" d="M0 0h510.2v240.9H0z"/></defs><clipPath id="SVGID_56_"><use xlink:href="#SVGID_55_" overflow="visible"/></clipPath><path class="st28" d="M131.8 204.4l2.1-.8-2.3-.1s-.1.2 0 .5c0 .3.2.4.2.4m-.3 1.3h1.7l-1.5-.8s-.1.1-.2.4c-.1.2 0 .4 0 .4m-.6.6c-.2.2-.2.4-.2.4l2.4 1.8-1.8-2.4s-.2 0-.4.2m-1.7.9c-.3 0-.5.2-.5.2l.5 2.4.4-2.4c.1 0 0-.2-.4-.2m.3-1.9l.5.6v-.8s-.1-.1-.3 0l-.2.2m-2.8.6l-1.4 2 2-1.4s0-.2-.2-.4-.4-.2-.4-.2m-1.2-.6l1.1.1v-.3c0-.2-.1-.3-.1-.3l-1 .5zm1.2-1.7l-1.8.5 1.8.4s.1-.1.1-.4c0-.4-.1-.5-.1-.5m.9-.8c.2-.2.2-.4.2-.4l-2-1.1 1.4 1.7c0 .1.2 0 .4-.2m.5 1.6c.1-.2.1-.4.1-.4l-1.1-.2.8.8c-.1 0 .1 0 .2-.2m.5 1.3c-.2-.1-.4 0-.4 0l.1 1.1.6-.9s0-.1-.3-.2m.6-2.5l-.5-1-.1 1.1s.1.1.4 0c.1 0 .2-.1.2-.1m.1-1.3c.3 0 .5-.1.5-.1l-.5-2.7-.5 2.7s.2.1.5.1m1.6 1.8l-1.1.3s0 .1.1.3c.1.2.3.2.3.2l.7-.8zm0-.7l1.6-2.5-2.2 2s0 .2.2.4c.2.1.4.1.4.1"/></g><g><defs><path id="SVGID_57_" d="M0 0h510.2v240.9H0z"/></defs><clipPath id="SVGID_58_"><use xlink:href="#SVGID_57_" overflow="visible"/></clipPath><path class="st29" d="M130.6 215.8c1.2 0 2.1-.9 2.1-2.1s-.9-2.1-2.1-2.1c-1.2 0-2.1.9-2.1 2.1s1 2.1 2.1 2.1"/></g><g><defs><path id="SVGID_59_" d="M0 0h510.2v240.9H0z"/></defs><clipPath id="SVGID_60_"><use xlink:href="#SVGID_59_" overflow="visible"/></clipPath><path class="st30" d="M132.3 213.6l1.4-.5-1.5-.1s-.1.1 0 .3c0 .2.1.3.1.3m-.2.8h1.1l-1-.5s-.1.1-.1.2v.3m-.4.4c-.1.1-.1.3-.1.3l1.6 1.2-1.2-1.6s-.2 0-.3.1m-1.1.6c-.2 0-.3.1-.3.1l.3 1.6.3-1.6s0-.1-.3-.1m.2-1.2l.3.4v-.5h-.2l-.1.1m-1.8.4l-.9 1.3 1.3-.9s0-.1-.1-.3c-.1-.2-.3-.1-.3-.1m-.8-.4l.7.1v-.2c0-.1-.1-.2-.1-.2l-.6.3zm.8-1.1l-1.2.3 1.2.2s.1-.1 0-.3v-.2m.6-.5c.1-.1.1-.3.1-.3l-1.3-.7.9 1.1s.1 0 .3-.1m.3 1c.1-.1.1-.2.1-.2l-.7-.1.5.5c-.1 0 0-.1.1-.2m.4.9h-.2v.7l.4-.6s-.1-.1-.2-.1m.3-1.7l-.4-.6-.1.7h.2c.1 0 .3-.1.3-.1m.1-.8c.2 0 .3-.1.3-.1l-.3-1.8-.3 1.8s.1.1.3.1m1 1.2l-.7.2s0 .1.1.2l.2.2.4-.6zm0-.5l1-1.6-1.4 1.3s0 .1.2.2c.1.1.2.1.2.1"/></g><g><defs><path id="SVGID_61_" d="M0 0h510.2v240.9H0z"/></defs><clipPath id="SVGID_62_"><use xlink:href="#SVGID_61_" overflow="visible"/></clipPath><path class="st31" d="M121.5 215.6c1.5 0 2.7-1.2 2.7-2.7 0-1.5-1.2-2.7-2.7-2.7s-2.7 1.2-2.7 2.7c0 1.5 1.2 2.7 2.7 2.7"/></g><g><defs><path id="SVGID_63_" d="M0 0h510.2v240.9H0z"/></defs><clipPath id="SVGID_64_"><use xlink:href="#SVGID_63_" overflow="visible"/></clipPath><path class="st32" d="M123.6 212.8l1.8-.6-1.9-.1s-.1.1 0 .4c0 .2.1.3.1.3m-.3 1h1.4l-1.3-.6s-.1.1-.1.3v.3m-.5.5c-.2.2-.2.3-.2.3l2 1.5-1.5-2c0 .1-.1 0-.3.2m-1.3.8c-.3 0-.4.1-.4.1l.4 2 .3-2c.1 0-.1-.1-.3-.1m.2-1.6l.4.5v-.7h-.2c-.2.1-.2.2-.2.2m-2.3.5l-1.2 1.7 1.7-1.2s0-.2-.1-.4-.4-.1-.4-.1m-1-.5l.9.1v-.3c0-.2-.1-.3-.1-.3l-.8.5zm1-1.4l-1.5.4 1.5.3s.1-.1.1-.4c-.1-.2-.1-.3-.1-.3m.7-.7c.2-.2.2-.3.2-.3l-1.6-.9 1.2 1.4.2-.2m.4 1.4c.1-.2.1-.3.1-.3l-.9-.2.6.7.2-.2m.5 1h-.3l.1.9.5-.8c-.1.1-.1 0-.3-.1m.5-2.1l-.5-.7-.1.9s.1.1.3 0c.2-.1.3-.2.3-.2m0-1c.3 0 .4-.1.4-.1l-.4-2.3-.4 2.3s.1.1.4.1m1.4 1.5l-.9.2s0 .1.1.3c.1.2.2.2.2.2l.6-.7zm0-.6l1.3-2.1-1.8 1.6s0 .2.2.3c.1.2.3.2.3.2"/></g><g><defs><path id="SVGID_65_" d="M0 0h510.2v240.9H0z"/></defs><clipPath id="SVGID_66_"><use xlink:href="#SVGID_65_" overflow="visible"/></clipPath><path class="st33" d="M110.3 109.3v-1.9h-4.1v-1.3h3.4v-1.9h-3.4V103h4v-1.9h-6.6v8.2h6.7zM98 106.5c1.2 0 1.4.4 1.4 1.4 0 .7.1 1.2.1 1.4h2.7v-.2c-.3 0-.3-.4-.3-1.4 0-1.6-.5-1.8-1.4-2.2 1-.3 1.4-1.1 1.4-2 0-1.6-.9-2.3-3.6-2.3h-3.8v8.2h2.7v-2.8h.8zm-.8-3.4h1.2c.6 0 1.1.3 1.1.8 0 .6-.4.8-1.3.8h-1.1v-1.6zm-12 2.7c0 2.8 1.4 3.8 3.9 3.8 2.7 0 3.9-1.1 3.9-3.8v-4.6h-2.7v4.9c0 .9-.3 1.5-1.2 1.5-1.1 0-1.3-.7-1.3-1.5v-4.9h-2.7l.1 4.6zm-1.4-2.2c-.2-1.4-1.2-2.6-3.5-2.6-2 0-3.5.9-3.5 2.6 0 3.1 4.7 2.3 4.7 3.5 0 .4-.4.6-1.1.6-.3 0-.5-.1-.8-.2-.2-.1-.4-.4-.4-.6h-2.6c.1 1.5 1.5 2.7 3.6 2.7 2.2 0 3.8-.9 3.8-2.8 0-3-4.7-2.2-4.7-3.4 0-.3.3-.5.8-.5.3 0 .5 0 .7.1.2.1.3.3.4.6h2.6zM71.5 101c-2.5 0-4.3 1.7-4.3 4.2 0 2.8 1.7 4.4 4.3 4.4 2.4 0 4.3-1.6 4.3-4.3 0-2.2-1.4-4.3-4.3-4.3m0 2c1.2 0 1.6 1.1 1.6 2.3 0 1.3-.5 2.3-1.6 2.3-1.3 0-1.6-1.3-1.6-2.3 0-1.1.4-2.3 1.6-2.3m-9.5 6.3v-2.5h1.3c2.3 0 3.4-1.1 3.4-2.9 0-1.7-1.1-2.8-3.5-2.8h-3.9v8.2H62zm0-4.4v-1.8h.8c.6 0 1.4.1 1.4.9 0 .7-.5 1-1.1 1H62zm-7.8 2.2l1.3 2.3h3l-2.8-4.2 2.8-3.9h-3l-1.2 2.1-1.2-2.1h-3l2.6 3.9-2.9 4.2h3l1.4-2.3zm-4.9 2.2v-1.9h-4.1v-1.3h3.4v-1.9h-3.4V103h4v-1.9h-6.6v8.2h6.7z"/></g></g><text transform="translate(110.338 109.323)" class="st34 st35"></text><g><defs><path id="SVGID_67_" d="M0 0h510.2v240.9H0z"/></defs><clipPath id="SVGID_68_"><use xlink:href="#SVGID_67_" overflow="visible"/></clipPath><path class="st36" d="M89.6 122.9c2.1 0 3.5-.6 3.5-2.5 0-.9-.5-1.6-1.4-1.9.5-.3 1.1-.9 1.1-1.8 0-1.6-1.5-2-3.3-2h-3.9v8.2h4zm-.4-6.2c.6 0 1.1 0 1.1.6 0 .5-.4.7-.9.7h-1.1v-1.4h.9zm-.1 2.8c.8 0 1.5 0 1.5.8 0 .6-.5.7-1.2.7h-1.2v-1.5h.9zM77 116.9h2.4v6H82v-6h2.4v-2.1H77v2.1zm-8.9-2.3c-2.5 0-4.3 1.7-4.3 4.2 0 2.8 1.7 4.4 4.3 4.4 2.4 0 4.3-1.6 4.3-4.3 0-2.2-1.4-4.3-4.3-4.3m0 2c1.2 0 1.6 1.1 1.6 2.3 0 1.3-.5 2.3-1.6 2.3-1.3 0-1.6-1.3-1.6-2.3 0-1.1.4-2.3 1.6-2.3m-12.5.3H58v6h2.7v-6H63v-2.1h-7.5c.1 0 .1 2.1.1 2.1z"/><g><defs><path id="SVGID_69_" d="M0 0h510.2v240.9H0z"/></defs><clipPath id="SVGID_70_"><use xlink:href="#SVGID_69_" overflow="visible"/></clipPath><path class="st37" d="M367 109.3v-1.9h-4.1v-1.3h3.4v-1.9h-3.4V103h4v-1.9h-6.6v8.2h6.7zm-12.3-2.8c1.2 0 1.4.4 1.4 1.4 0 .7.1 1.2.1 1.4h2.7v-.2c-.3 0-.3-.4-.3-1.4 0-1.6-.5-1.8-1.4-2.2 1-.3 1.4-1.1 1.4-2 0-1.6-.9-2.3-3.6-2.3h-3.8v8.2h2.7v-2.8h.8zm-.8-3.4h1.2c.6 0 1.1.3 1.1.8 0 .6-.4.8-1.3.8h-1.1l.1-1.6zm-12 2.7c0 2.8 1.4 3.8 3.9 3.8 2.7 0 3.9-1.1 3.9-3.8v-4.6H347v4.9c0 .9-.3 1.5-1.2 1.5-1.1 0-1.3-.7-1.3-1.5v-4.9h-2.7l.1 4.6zm-1.4-2.2c-.2-1.4-1.2-2.6-3.5-2.6-2 0-3.5.9-3.5 2.6 0 3.1 4.7 2.3 4.7 3.5 0 .4-.4.6-1.1.6-.3 0-.5-.1-.8-.2-.2-.1-.4-.4-.4-.6h-2.6c.1 1.5 1.5 2.7 3.6 2.7 2.2 0 3.8-.9 3.8-2.8 0-3-4.7-2.2-4.7-3.4 0-.3.3-.5.9-.5.3 0 .5 0 .7.1.2.1.3.3.4.6h2.5zm-12.3-2.6c-2.5 0-4.3 1.7-4.3 4.2 0 2.8 1.7 4.4 4.3 4.4 2.4 0 4.3-1.6 4.3-4.3 0-2.2-1.4-4.3-4.3-4.3m0 2c1.2 0 1.6 1.1 1.6 2.3 0 1.3-.5 2.3-1.6 2.3-1.3 0-1.6-1.3-1.6-2.3 0-1.1.4-2.3 1.6-2.3m-9.6 6.3v-2.5h1.3c2.3 0 3.4-1.1 3.4-2.9 0-1.7-1.1-2.8-3.5-2.8H316v8.2h2.6zm0-4.4v-1.8h.8c.6 0 1.4.1 1.4.9 0 .7-.5 1-1.1 1h-1.1zm-7.7 2.2l1.3 2.3h3l-2.8-4.2 2.8-3.9h-3l-1.2 2.1-1.2-2.1h-3l2.6 3.9-2.9 4.2h3l1.4-2.3zm-4.9 2.2v-1.9h-4.1v-1.3h3.4v-1.9h-3.4V103h4v-1.9h-6.6v8.2h6.7z"/></g></g><text transform="translate(366.987 109.323)" class="st34 st35"></text><g><defs><path id="SVGID_71_" d="M0 0h510.2v240.9H0z"/></defs><clipPath id="SVGID_72_"><use xlink:href="#SVGID_71_" overflow="visible"/></clipPath><path class="st38" d="M346.2 122.9c2.1 0 3.5-.6 3.5-2.5 0-.9-.5-1.6-1.4-1.9.5-.3 1.1-.9 1.1-1.8 0-1.6-1.5-2-3.3-2h-3.9v8.2h4zm-.3-6.2c.6 0 1.1 0 1.1.6 0 .5-.4.7-.9.7H345v-1.4h.9zm-.1 2.8c.9 0 1.5 0 1.5.8 0 .6-.5.7-1.2.7h-1.2v-1.5h.9zm-12.2-2.6h2.4v6h2.7v-6h2.4v-2.1h-7.5v2.1zm-8.8-2.3c-2.5 0-4.3 1.7-4.3 4.2 0 2.8 1.7 4.4 4.3 4.4 2.4 0 4.3-1.6 4.3-4.3-.1-2.2-1.4-4.3-4.3-4.3m-.1 2c1.2 0 1.6 1.1 1.6 2.3 0 1.3-.5 2.3-1.6 2.3-1.3 0-1.6-1.3-1.6-2.3.1-1.1.4-2.3 1.6-2.3m-12.5.3h2.4v6h2.7v-6h2.4v-2.1h-7.5v2.1z"/><defs><path id="SVGID_73_" d="M0 0h510.2v240.9H0z"/></defs><clipPath id="SVGID_74_"><use xlink:href="#SVGID_73_" overflow="visible"/></clipPath><path class="st39" d="M483.2 101.2h-2.5v8.2h2.6v-2.6l-.1-1.9 2.9 4.4h2.5v-8.2H486v2.6l.1 1.9-2.9-4.4zm-8-.2c-2.5 0-4.3 1.7-4.3 4.2 0 2.8 1.7 4.4 4.3 4.4 2.4 0 4.3-1.6 4.3-4.3 0-2.2-1.4-4.3-4.3-4.3m0 2c1.2 0 1.6 1.1 1.6 2.3 0 1.3-.5 2.3-1.6 2.3-1.3 0-1.6-1.3-1.6-2.3 0-1.1.4-2.3 1.6-2.3m-5.6-1.8H467v8.2h2.7v-8.2zm-11.3 2.1h2.4v6h2.7v-6h2.4v-2.1h-7.5v2.1zm-1.3-2.1h-2.7v8.2h2.7v-8.2zm-8.1 5.3c1.2 0 1.4.4 1.4 1.4 0 .7.1 1.2.1 1.4h2.7v-.2c-.3 0-.3-.4-.3-1.4 0-1.6-.5-1.8-1.4-2.2 1-.3 1.4-1.1 1.4-2 0-1.6-.9-2.3-3.6-2.3h-3.8v8.2h2.7v-2.8h.8zm-.8-3.4h1.2c.6 0 1.1.3 1.1.8 0 .6-.4.8-1.3.8H448l.1-1.6zm-11.2.2h2.4v6h2.7v-6h2.4v-2.1h-7.5v2.1zm-9 2.5c0 2.8 1.4 3.8 3.9 3.8 2.7 0 3.9-1.1 3.9-3.8v-4.6H433v4.9c0 .9-.3 1.5-1.2 1.5-1.1 0-1.3-.7-1.3-1.5v-4.9h-2.7l.1 4.6zm-6.9-4.6h-2.5v8.2h2.6v-2.6l-.1-1.9 2.9 4.4h2.5v-8.2h-2.6v2.6l.1 1.9-2.9-4.4zm-3.7 8.1v-1.9h-3.7v-6.2H411v8.2h6.3zm-13.2 0l.3-1.1h2.7l.3 1.1h2.7l-2.9-8.2h-2.7l-2.9 8.2h2.5zm2.5-2.7h-1.7l.8-2.9.9 2.9zm-12.9 2.7v-2.8l-.1-1.3-.1-1.2 1.5 5.2h1.9l1.5-5.2-.1 1.5v3.8h2.4v-8.2h-3.2l-1.4 5.1-1.4-5.1h-3.2v8.2h2.2z"/><g><defs><path id="SVGID_75_" d="M0 0h510.2v240.9H0z"/></defs><clipPath id="SVGID_76_"><use xlink:href="#SVGID_75_" overflow="visible"/></clipPath><path class="st40" d="M401.3 142.8h-3v2.1h3v-2.1zm-8 1.1c1.2 0 1.4.4 1.4 1.4 0 .7.1 1.2.1 1.4h2.7v-.2c-.3 0-.3-.4-.3-1.4 0-1.6-.5-1.8-1.4-2.2 1-.3 1.4-1.1 1.4-2 0-1.6-.9-2.3-3.6-2.3h-3.9v8.1h2.7v-2.8h.9zm-.8-3.4h1.2c.6 0 1.1.3 1.1.8 0 .6-.4.8-1.3.8h-1.1l.1-1.6zm-3.9 6.2v-1.9h-4.1v-1.3h3.4v-1.9h-3.4v-1.2h4v-1.9h-6.6v8.1l6.7.1zm-13.4 0h2.7l2.8-8.1H378l-1.5 5.4-1.4-5.4h-2.7l2.8 8.1zm-7.8-8.3c-2.5 0-4.3 1.7-4.3 4.2 0 2.8 1.7 4.4 4.3 4.4 2.4 0 4.3-1.6 4.3-4.3 0-2.3-1.4-4.3-4.3-4.3m0 1.9c1.2 0 1.6 1.1 1.6 2.3 0 1.3-.5 2.3-1.6 2.3-1.3 0-1.6-1.3-1.6-2.3 0-1 .4-2.3 1.6-2.3"/></g><g><defs><path id="SVGID_77_" d="M0 0h510.2v240.9H0z"/></defs><clipPath id="SVGID_78_"><use xlink:href="#SVGID_77_" overflow="visible"/></clipPath><path class="st41" d="M417 155.8h-3.7v1.8h1.2c-.1.6-.8.9-1.4.9-1.3 0-1.7-1.1-1.7-2.2 0-1.4.5-2.4 1.6-2.4.7 0 1.2.4 1.4 1h2.5c-.3-2-1.9-3-3.9-3-2.6 0-4.3 1.8-4.3 4.4 0 2.8 1.9 4.2 4 4.2 1.3 0 2-.5 2.5-1l.1.8h1.7v-4.5zm-14.9-3.6h-2.5v8.2h2.6v-2.6l-.1-1.9 2.9 4.4h2.5v-8.2H405v2.6l.1 1.9-3-4.4zm-4.1 0h-2.7v8.1h2.7v-8.1zm-8.1 8.1c2.6 0 4.3-1.2 4.3-4.2 0-2.7-1.6-3.9-4.3-3.9h-3.6v8.2h3.6zm-.8-6.2h.5c1.4 0 2 .5 2 2.2 0 1.5-.7 2.2-1.9 2.2h-.6v-4.4zm-8-1.9h-2.2l-1 5-.9-5h-2.6l2 8.2h2.6l.9-4.7.9 4.7h2.6l2-8.2H383l-.9 5-1-5zm-11.5-.3c-2.5 0-4.3 1.7-4.3 4.2 0 2.8 1.7 4.4 4.3 4.4 2.4 0 4.3-1.6 4.3-4.3 0-2.2-1.4-4.3-4.3-4.3m0 2c1.2 0 1.6 1.1 1.6 2.3 0 1.3-.5 2.3-1.6 2.3-1.3 0-1.6-1.3-1.6-2.3 0-1 .4-2.3 1.6-2.3m-9.3 3.6c1.2 0 1.4.4 1.4 1.4 0 .7.1 1.2.1 1.4h2.7v-.2c-.3 0-.3-.4-.3-1.4 0-1.6-.5-1.8-1.4-2.2 1-.3 1.4-1.1 1.4-2 0-1.6-.9-2.3-3.6-2.3h-3.8v8.2h2.7v-2.8h.8zm-.8-3.4h1.2c.6 0 1.1.3 1.1.9 0 .6-.4.8-1.3.8h-1.1l.1-1.7zm-3.8 1.2c-.2-2.1-1.6-3.3-4.1-3.3-2.3 0-4.1 1.6-4.1 4.3 0 2.6 1.6 4.3 4.3 4.3 2.1 0 3.7-1.3 3.9-3.4h-2.6c-.1.8-.5 1.4-1.4 1.4-1.4 0-1.6-1.1-1.6-2.2 0-1.6.6-2.4 1.5-2.4.8 0 1.4.5 1.4 1.3h2.7z"/></g><g><defs><path id="SVGID_79_" d="M0 0h510.2v240.9H0z"/></defs><clipPath id="SVGID_80_"><use xlink:href="#SVGID_79_" overflow="visible"/></clipPath><path class="st42" d="M192.1 106.5c1.2 0 1.4.4 1.4 1.4 0 .7.1 1.2.1 1.4h2.7v-.2c-.3 0-.3-.4-.3-1.4 0-1.6-.5-1.8-1.4-2.2.9-.3 1.4-1.1 1.4-2 0-1.6-.9-2.3-3.6-2.3h-3.8v8.2h2.7v-2.8c0-.1.8-.1.8-.1zm-.8-3.4h1.2c.6 0 1.1.3 1.1.8 0 .6-.4.8-1.3.8h-1.1l.1-1.6zm-8.1-2.1c-2.5 0-4.3 1.7-4.3 4.2 0 2.8 1.7 4.4 4.3 4.4 2.4 0 4.3-1.6 4.3-4.3 0-2.2-1.4-4.3-4.3-4.3m0 2c1.2 0 1.6 1.1 1.6 2.3 0 1.3-.5 2.3-1.6 2.3-1.3 0-1.6-1.3-1.6-2.3 0-1.1.4-2.3 1.6-2.3m-9.4-2c-2.5 0-4.3 1.7-4.3 4.2 0 2.8 1.7 4.4 4.3 4.4 2.4 0 4.3-1.6 4.3-4.3-.1-2.2-1.4-4.3-4.3-4.3m-.1 2c1.2 0 1.6 1.1 1.6 2.3 0 1.3-.5 2.3-1.6 2.3-1.3 0-1.6-1.3-1.6-2.3.1-1.1.4-2.3 1.6-2.3m-9.5 6.3v-2.5h1.3c2.3 0 3.4-1.1 3.4-2.9 0-1.7-1.1-2.8-3.5-2.8h-3.9v8.2h2.7zm0-4.4v-1.8h.8c.6 0 1.4.1 1.4.9 0 .7-.5 1-1.1 1h-1.1z"/></g></g><text transform="translate(196.357 109.323)" class="st34 st35"></text><g><defs><path id="SVGID_81_" d="M0 0h510.2v240.9H0z"/></defs><clipPath id="SVGID_82_"><use xlink:href="#SVGID_81_" overflow="visible"/></clipPath><path class="st43" d="M215.9 114.8h-2.5v8.2h2.6v-2.6l-.1-1.9 2.9 4.4h2.5v-8.2h-2.6v2.6l.1 1.9-2.9-4.4zm-8-.2c-2.5 0-4.3 1.7-4.3 4.2 0 2.8 1.7 4.4 4.3 4.4 2.4 0 4.3-1.6 4.3-4.3 0-2.2-1.4-4.3-4.3-4.3m0 2c1.2 0 1.6 1.1 1.6 2.3 0 1.3-.5 2.3-1.6 2.3-1.3 0-1.6-1.3-1.6-2.3 0-1.1.4-2.3 1.6-2.3m-5.6-1.8h-2.7v8.2h2.7v-8.2zm-11.3 2.1h2.4v6h2.7v-6h2.4v-2.1H191v2.1zm-5.4 6l.3-1.1h2.7l.3 1.1h2.7l-2.9-8.2H186l-2.9 8.2h2.5zm2.5-2.7h-1.7l.8-2.9.9 2.9zm-5.6 2.7V121h-3.7v-6.2h-2.7v8.2h6.4zm-8.1-8.1h-2.7v8.2h2.7v-8.2zm-11.3 2.1h2.4v6h2.7v-6h2.4v-2.1h-7.5v2.1zm-6.5-2.1h-2.5v8.2h2.6v-2.6l-.1-1.9 2.9 4.4h2.5v-8.2h-2.6v2.6l.1 1.9-2.9-4.4zm-3.8 8.1V121h-4.1v-1.3h3.4v-1.9h-3.4v-1.2h4v-1.9H146v8.2h6.8zm-13.4 0h2.7l2.8-8.2h-2.7l-1.5 5.4-1.4-5.4h-2.7l2.8 8.2z"/></g><path d="M131.9 145.1h2.7l2.8-8.1h-2.7l-1.5 5.4-1.4-5.4h-2.7l2.8 8.1zM128 137h-2.7v8.1h2.7V137zm-9.5 8.1V142h2.5v3.2h2.7V137H121v2.8h-2.5V137h-2.7v8.1h2.7z"/><text transform="translate(137.459 145.117)" class="st34 st35"></text><g><defs><path id="SVGID_83_" d="M0 0h510.2v240.9H0z"/></defs><clipPath id="SVGID_84_"><use xlink:href="#SVGID_83_" overflow="visible"/></clipPath><path class="st44" d="M156.7 150.8h-2.6v8.5h2.7v-2.7l-.1-1.9 3 4.6h2.6v-8.5h-2.7v2.7l.1 1.9-3-4.6zm-8.3-.2c-2.7 0-4.5 1.7-4.5 4.4 0 2.9 1.8 4.6 4.5 4.6 2.5 0 4.5-1.6 4.5-4.5-.1-2.3-1.5-4.5-4.5-4.5m-.1 2.1c1.2 0 1.7 1.2 1.7 2.4 0 1.4-.5 2.5-1.7 2.5-1.3 0-1.7-1.4-1.7-2.5.1-1.1.5-2.4 1.7-2.4m-5.8-1.9h-2.8v8.5h2.8v-8.5zm-11.9 2.3h2.5v6.3h2.8v-6.3h2.5v-2.2h-7.8v2.2zm-.8 1c-.2-2.2-1.7-3.5-4.3-3.5-2.4 0-4.3 1.7-4.3 4.5s1.7 4.5 4.5 4.5c2.3 0 3.8-1.3 4.1-3.5h-2.7c-.1.8-.5 1.4-1.4 1.4-1.4 0-1.7-1.1-1.7-2.3 0-1.6.6-2.5 1.6-2.5.9 0 1.4.5 1.5 1.4h2.7zm-9.3 5.3v-2h-4.3V156h3.5v-2h-3.5v-1.2h4.2v-2h-7v8.5h7.1zm-12.3 0v-3h3.1v-2h-3.1v-1.6h3.8v-2h-6.6v8.5l2.8.1zm-10.1-8.6h-2.6v8.5h2.7v-2.7l-.1-1.9 3.1 4.6h2.6v-8.5H101v2.7l.1 1.9-3-4.6zm-4.3 0H91v8.5h2.8v-8.5z"/></g></svg>