<svg version="1.1" xmlns="http://www.w3.org/2000/svg" x="0" y="0" width="325.984" height="418.41" viewBox="0 0 325.984 418.41" xml:space="preserve"><path fill="none" stroke="#000" stroke-width=".245" d="M.361 72.736h324.298"/><g fill="none" stroke="#000"><path stroke-width=".245" d="M.361 0h324.298M.361 8.068h324.298"/><path stroke-width=".49" d="M.361 16.137h324.298"/><path stroke-width=".245" d="M.361 24.205h324.298M.361 32.334h324.298M.361 40.402h324.298"/><path stroke-width=".49" d="M.361 48.47h324.298"/><path stroke-width=".245" d="M.361 56.598h324.298M.361 64.667h324.298"/><path stroke-width=".49" d="M.361 80.864h324.298"/><path stroke-width=".245" d="M.361 88.932h324.298M.361 97.001h324.298M.361 105.129h324.298"/><path stroke-width=".49" d="M.361 113.198h324.298"/><path stroke-width=".245" d="M.361 121.266h324.298M.361 129.395h324.298M.361 137.463h324.298"/><path stroke-width=".49" d="M.361 145.531h324.298"/><path stroke-width=".245" d="M.361 153.6h324.298M.361 161.728h324.298M.361 169.796h324.298"/><path stroke-width=".49" d="M.361 177.864h324.298"/><path stroke-width=".245" d="M.361 185.993h324.298M.361 194.061h324.298M.361 202.129h324.298"/><path stroke-width=".49" d="M.361 210.257h324.298"/><path stroke-width=".245" d="M.361 218.328h324.298M.361 226.335h324.298M.361 234.464h324.298"/><path stroke-width=".49" d="M.361 242.53h324.298"/><path stroke-width=".245" d="M.361 250.599h324.298M.361 258.728h324.298"/></g><path fill="none" stroke="#000" stroke-width=".49" d="M1.023 288.533h324.298"/><path fill="none" stroke="#000" stroke-width=".245" d="M1.023 301.117h324.298"/><path fill="none" stroke="#000" stroke-width=".49" d="M1.023 313.761h324.298"/><path fill="none" stroke="#000" stroke-width=".245" d="M1.023 326.345h324.298"/><path fill="none" stroke="#000" stroke-width=".49" d="M1.023 338.992h324.298"/><path fill="none" stroke="#000" stroke-width=".245" d="M1.023 351.574h324.298"/><path fill="none" stroke="#000" stroke-width=".49" d="M1.023 364.218h324.298"/><path fill="none" stroke="#000" stroke-width=".245" d="M1.023 376.804h324.298"/><path fill="none" stroke="#000" stroke-width=".49" d="M1.023 389.447h324.298M1.023 415.761h324.298"/><path fill="none" stroke="#000" stroke-width=".245" d="M1.023 401.429h324.298"/><g fill="none" stroke="#000" stroke-width=".245"><path d="M14.149.542v257.584M30.588.542v257.584M46.965.542v257.584M63.403.542v257.584M79.78.542v257.584M96.218.542v257.584M112.655.542v257.584M129.033.542v257.584M145.471.542v257.584M161.908.542v257.584M178.226.542v257.584M194.664.542v257.584M211.041.542v257.584M227.478.542v257.584M243.916.542v257.584M260.292.542v257.584M276.73.542v257.584M293.169.542v257.584M309.548.542v257.584M325.984.542v257.584"/></g><path fill="none" stroke="#000" stroke-width=".106" d="M13.548 288.593l-.542 124.819"/><path fill="none" stroke="#000" stroke-width=".245" d="M29.925 288.593v128.252M46.242 288.593v128.252M62.56 288.593v128.252M78.877 288.593v128.252M95.194 288.593v128.252M111.511 288.593v128.252M127.829 288.593v128.252M144.146 288.593v128.252M160.463 288.593v128.252M176.78 288.593v128.252M193.098 288.593v128.252M209.416 288.593v128.252M225.732 288.593v128.252M242.049 288.593v128.252M258.367 288.593v128.252M274.685 288.593v128.252M291.001 288.593v128.252M307.319 288.593v128.252M323.697 288.593v128.252"/><path fill="#FFF" d="M152.876 284.138h15.656v8.552h-15.656zM152.516 309.066h15.654v8.551h-15.654zM152.094 333.992h15.654v8.551h-15.654zM151.732 358.921h15.657v8.549h-15.657zM152.456 384.39h15.653v8.551h-15.653zM153.178 409.859h15.653v8.551h-15.653z"/><path d="M156.61 291.303h-.723v-4.697a3.741 3.741 0 0 1-.724.544c-.301.18-.542.301-.782.359v-.723a4.882 4.882 0 0 0 1.084-.66c.302-.303.542-.543.662-.846h.482v6.023h.001zM160.463 285.28c.303 0 .604.062.844.183.24.182.422.361.602.603.121.239.241.541.361.903.06.3.12.781.12 1.385 0 .723-.061 1.266-.181 1.686-.181.424-.36.782-.662 1.024-.302.24-.663.36-1.084.36v-.604c.303 0 .604-.18.844-.479.24-.362.361-1.025.361-1.988 0-.964-.121-1.625-.361-1.986-.241-.302-.542-.482-.844-.482v-.605zm-1.986 3.073c0-.723.12-1.266.24-1.686a2.02 2.02 0 0 1 .663-1.023c.241-.241.603-.363 1.083-.363v.604c-.36 0-.602.182-.842.421-.241.424-.362 1.085-.362 2.049 0 .963.121 1.626.362 1.987.18.301.481.479.842.479v.604c-.602 0-1.022-.241-1.384-.663-.362-.483-.602-1.264-.602-2.409zM165.039 285.28c.302 0 .603.062.843.183.24.182.423.361.604.603.181.239.3.541.36.903.119.3.119.781.119 1.385 0 .723-.061 1.266-.181 1.686-.18.424-.359.782-.663 1.024-.3.24-.661.36-1.083.36v-.604c.361 0 .603-.18.843-.479.24-.362.362-1.025.362-1.988 0-.964-.122-1.625-.362-1.986-.24-.302-.48-.482-.843-.482v-.605h.001zm-1.926 3.073c0-.723.06-1.266.18-1.686.182-.422.362-.783.662-1.023a1.683 1.683 0 0 1 1.084-.363v.604c-.359 0-.602.182-.843.421-.241.424-.361 1.085-.361 2.049 0 .963.12 1.626.361 1.987.241.301.482.479.843.479v.604c-.602 0-1.022-.241-1.384-.663-.362-.483-.542-1.264-.542-2.409zM158.116 310.511c.542 0 .963.119 1.264.48.302.301.481.662.481 1.084 0 .301-.062.541-.241.723-.121.182-.362.361-.663.48.362.121.663.303.842.604.182.242.303.541.303.902 0 .543-.182.963-.542 1.326-.362.359-.844.479-1.445.479v-.602c.361 0 .662-.061.903-.303.239-.238.36-.539.36-.902 0-.299-.121-.602-.36-.842a1.23 1.23 0 0 0-.903-.361v-.602c.301 0 .542-.061.722-.242.183-.18.242-.42.242-.66 0-.301-.06-.482-.242-.662a.991.991 0 0 0-.722-.303v-.6h.001zm-.844 2.768c-.301-.119-.481-.299-.662-.48-.121-.182-.181-.48-.181-.723 0-.482.12-.844.422-1.146.361-.299.723-.42 1.265-.42v.604c-.241 0-.483.061-.663.24-.181.182-.302.422-.302.662 0 .303.121.541.302.723.18.182.361.24.663.24v.604c-.362 0-.603.121-.844.361s-.361.48-.361.842c0 .24.061.422.18.604.061.18.241.359.423.48.181.121.421.121.603.121v.602c-.603 0-1.024-.121-1.385-.48a1.772 1.772 0 0 1-.542-1.326c0-.359.061-.723.241-.963.239-.303.48-.483.841-.545zM162.751 310.511c.302 0 .542.061.782.18.242.119.482.303.604.543.181.301.301.543.421.902.06.359.121.844.121 1.445 0 .662-.062 1.262-.241 1.686-.12.422-.361.781-.662 1.023-.242.242-.604.301-1.024.301v-.602a.823.823 0 0 0 .782-.482c.242-.301.362-.963.362-1.926 0-1.023-.12-1.627-.362-1.988-.181-.301-.48-.48-.782-.48v-.602zm-1.926 3.071c0-.725.06-1.264.241-1.748.12-.42.362-.721.603-.961a1.675 1.675 0 0 1 1.083-.361v.602c-.302 0-.603.121-.783.422-.24.361-.421 1.023-.421 2.047 0 .963.121 1.627.361 1.928.241.361.542.48.843.48v.602c-.542 0-1.022-.18-1.324-.602-.423-.484-.603-1.327-.603-2.409zM159.981 337.185l-.724.061c-.06-.24-.18-.482-.301-.604-.181-.238-.422-.301-.723-.301h-.061v-.602h.12c.482 0 .844.119 1.145.359.304.304.484.665.544 1.087zm-1.806.66h.12c.542 0 .903.182 1.266.543.36.361.542.844.542 1.385 0 .361-.121.725-.241 1.086a2.612 2.612 0 0 1-.663.721c-.301.182-.603.242-.963.242h-.061v-.604c.361 0 .603-.121.845-.359.18-.242.301-.604.301-1.023 0-.424-.121-.725-.301-.963-.242-.242-.483-.363-.845-.363v-.665zm0-1.504c-.24 0-.421.062-.542.182-.24.18-.42.42-.542.723-.119.361-.24.781-.24 1.385.181-.242.421-.48.663-.604.181-.119.421-.182.661-.182v.662c-.36 0-.602.121-.843.363a1.22 1.22 0 0 0-.36.902c0 .24.06.541.18.723.121.24.241.422.422.541.181.121.361.182.602.182v.604a1.828 1.828 0 0 1-1.444-.664c-.422-.48-.604-1.203-.604-2.227 0-1.145.241-1.988.663-2.527.361-.424.783-.664 1.385-.664v.601h-.001zM162.751 335.74c.302 0 .542.059.782.18.242.119.482.301.604.541.181.242.301.543.421.904.06.359.121.842.121 1.385 0 .723-.062 1.324-.241 1.746a1.85 1.85 0 0 1-.662.963c-.242.242-.604.363-1.024.363v-.605c.302 0 .603-.18.782-.48.242-.303.362-.963.362-1.986 0-.963-.12-1.625-.362-1.928a.823.823 0 0 0-.782-.48v-.603zm-1.926 3.01c0-.662.06-1.266.241-1.686.12-.422.362-.783.603-1.025.302-.18.662-.299 1.083-.299v.602c-.302 0-.603.119-.783.422-.24.361-.421 1.023-.421 1.986 0 1.023.121 1.686.361 1.986.241.301.542.48.843.48v.605c-.542 0-1.022-.184-1.324-.605-.423-.48-.603-1.322-.603-2.466zM158.536 366.929v-1.443h-.963v-.664h.963v-2.711l-.963 1.387v-1.023l1.084-1.506h.602v3.855h.783v.662h-.783v1.443h-.723zm-.963-1.445h-1.626v-.662l1.626-2.35v1.023l-.903 1.324h.903v.665zM162.751 360.908c.302 0 .542.061.782.24.242.121.482.301.604.541.181.24.301.541.421.902.06.303.121.783.121 1.385 0 .725-.062 1.266-.241 1.688-.12.482-.361.783-.662 1.023-.242.24-.604.359-1.024.359v-.6c.302 0 .603-.184.782-.484.242-.357.362-1.021.362-1.986 0-.963-.12-1.627-.362-1.926-.181-.361-.48-.543-.782-.543v-.599zm-1.926 3.07c0-.725.06-1.264.241-1.686.12-.422.362-.783.603-1.023.302-.24.662-.361 1.083-.361v.602c-.302 0-.603.182-.783.482-.24.359-.421 1.023-.421 1.986s.121 1.627.361 1.986c.241.301.542.482.843.482v.602c-.542 0-1.022-.24-1.324-.602-.423-.542-.603-1.325-.603-2.468zM160.042 391.435v.723h-3.974c0-.182 0-.363.12-.543.061-.24.241-.48.481-.781.181-.242.542-.541.962-.902.604-.543 1.084-.965 1.266-1.266.241-.301.36-.602.36-.904 0-.238-.119-.541-.301-.721-.181-.182-.48-.303-.842-.303-.302 0-.603.121-.844.303a1.47 1.47 0 0 0-.301.902l-.783-.062c.061-.6.301-1.021.603-1.322.361-.303.783-.422 1.385-.422.542 0 1.023.18 1.324.48.362.303.542.723.542 1.205 0 .24-.06.482-.18.662-.062.24-.241.48-.481.781-.24.242-.603.602-1.145 1.025-.421.359-.722.602-.843.781-.12.121-.241.24-.302.361h2.951v.003zM162.751 386.136c.302 0 .542.061.782.18.242.119.482.361.604.604.181.24.301.543.421.842.06.363.121.846.121 1.445 0 .725-.062 1.266-.241 1.688-.12.422-.361.783-.662 1.023-.242.24-.604.361-1.024.361v-.604c.302 0 .603-.182.782-.541.242-.301.362-.965.362-1.928 0-1.023-.12-1.625-.362-1.986-.181-.301-.48-.482-.782-.482v-.602zm-1.926 3.071c0-.723.06-1.264.241-1.746.12-.422.362-.723.603-.963a1.675 1.675 0 0 1 1.083-.361v.602c-.302 0-.603.182-.783.422-.24.361-.421 1.084-.421 2.047s.121 1.627.361 1.928c.241.361.542.543.843.543v.602a1.592 1.592 0 0 1-1.324-.662c-.423-.485-.603-1.268-.603-2.412zM160.463 411.365c.303 0 .604.061.844.182.24.119.422.299.602.539.121.242.241.543.361.904.06.359.12.844.12 1.443 0 .664-.061 1.266-.181 1.688-.181.42-.36.725-.662.963a1.68 1.68 0 0 1-1.084.363v-.604c.303 0 .604-.121.844-.482.24-.299.361-.963.361-1.926 0-1.023-.121-1.688-.361-1.988-.241-.299-.542-.48-.844-.48v-.602zm-1.986 3.07c0-.723.12-1.322.24-1.744.12-.424.362-.783.663-.967.241-.238.603-.359 1.083-.359v.602c-.36 0-.602.121-.842.422-.241.361-.362 1.023-.362 2.047 0 .965.121 1.629.362 1.928.18.361.481.482.842.482v.604c-.602 0-1.022-.184-1.384-.604-.362-.485-.602-1.327-.602-2.411z"/><path fill="none" stroke="#000" stroke-width=".98" d="M0 387.097c6.984 0 18.305 1.326 19.81-6.502 1.324-7.285 9.935-25.105 15.113-29.08 8.61-6.805 22.579-5.299 22.579 7.467 0 3.854 7.828 13.127 9.814 17.279 2.167 4.334 5.66 6.322 9.153 9.814 3.611 3.674 16.075 2.166 21.917 2.166 8.972-.48 22.94 1.326 22.94-11.139 0-3.131 9.633-33.416 12.463-33.416 6.323 0 9.153 1.986 13.789 1.986 6.985 0 3.312 5.84 6.502 5.84 2.951 3.492 2.951 5.48 2.951 10.658 0 5.299 5.841 11.801 5.841 17.098 0 3.676 15.055 8.973 17.884 8.973 8.488 0 16.258-.18 23.423-1.807 9.333-2.348 18.123 4.457 27.095 0 4.335-2.166 8.79-15.836 8.79-20.951.36-2.65 3.01-5.182 4.815-6.986 1.987-1.984 1.325-3.008 1.325-5.838 0-3.494 7.345-7.467 9.151-10.6 1.325-2.348 3.674 2.287 5.842 1.807 1.987-.48 5.118-3.312 5.118 1.326 0 4.637 5.357 3.854 5.357 6.02v10.418c0 1.684.965 2.346 2.77 2.346.544 0 .361 6.504.361 7.469 0 1.865 4.154 1.324 4.154 2.83 0 1.686-.48 3.309-.48 4.994 0 3.133 9.935 6.145 12.585 6.145 1.203 1.988 4.696 1.988 6.2.842 5.479-4.154 7.105 1.326 11.74 1.326h14.633"/><path fill="#FFF" d="M152.516 11.682h15.774v8.489h-15.774zM153.359 44.256h15.835v8.489h-15.835zM154.261 76.769h15.836v8.49h-15.836zM155.165 109.284h15.776v8.55h-15.776zM154.322 141.256h15.835v8.49h-15.835zM155.225 173.83h15.836v8.49h-15.836zM154.984 205.802h15.835v8.491h-15.835zM154.743 237.714h15.836v8.49h-15.836z"/><g><path d="M159.019 17.883v.723h-3.976c0-.181 0-.362.062-.542.12-.242.301-.542.542-.783.181-.301.542-.604.902-.903.663-.542 1.145-.963 1.325-1.264.241-.301.361-.602.361-.903a.997.997 0 0 0-.301-.723c-.241-.241-.481-.301-.844-.301-.36 0-.603.12-.842.301a1.478 1.478 0 0 0-.302.903l-.783-.121c.061-.542.241-.963.604-1.264.36-.301.782-.422 1.384-.422.542 0 1.023.121 1.325.482.36.301.542.662.542 1.144 0 .241-.062.481-.183.723-.06.241-.24.481-.48.722-.241.241-.604.603-1.145 1.084-.422.361-.724.602-.844.722s-.241.301-.301.422h2.954zM161.728 12.584c.36 0 .602.06.842.181.241.121.422.301.542.542.18.241.301.542.361.903.119.362.181.843.181 1.445 0 .663-.121 1.265-.241 1.686-.121.421-.362.723-.603.963-.241.241-.603.361-1.083.361v-.602a.96.96 0 0 0 .842-.482c.241-.301.362-.963.362-1.927 0-1.023-.121-1.686-.362-1.987a.96.96 0 0 0-.842-.481l.001-.602zm-1.928 3.071c0-.722.062-1.324.182-1.746.181-.422.421-.784.663-.963a1.68 1.68 0 0 1 1.084-.362v.603c-.301 0-.604.12-.783.422-.241.361-.421 1.023-.421 2.046 0 .963.12 1.626.36 1.927.241.302.542.482.844.482v.602c-.542 0-1.024-.181-1.325-.602-.423-.482-.604-1.325-.604-2.409zM166.364 12.584c.302 0 .602.06.843.181.242.121.422.301.603.542.12.241.241.542.361.903.061.362.12.843.12 1.445 0 .663-.061 1.265-.24 1.686-.121.421-.361.723-.602.963a1.686 1.686 0 0 1-1.085.361v-.602c.302 0 .602-.181.843-.482.183-.301.302-.963.302-1.927 0-1.023-.119-1.686-.302-1.987-.241-.301-.541-.481-.843-.481v-.602zm-1.987 3.071c0-.722.062-1.324.24-1.746.12-.422.361-.784.663-.963.242-.241.602-.362 1.084-.362v.603h-.061c-.303 0-.603.12-.781.422-.242.361-.363 1.023-.363 2.046 0 .963.121 1.626.302 1.927.241.302.541.482.903.482v.602c-.603 0-1.084-.181-1.386-.602-.42-.482-.601-1.325-.601-2.409zM157.633 51.059h-.781v-4.636c-.181.12-.362.301-.663.481-.301.18-.542.301-.783.361v-.662a8.431 8.431 0 0 0 1.083-.723c.302-.301.542-.542.663-.783h.48l.001 5.962zM161.427 45.098c.542 0 .962.12 1.264.422.301.301.421.663.421 1.144 0 .241-.062.482-.121.723-.181.18-.422.361-.663.421.362.12.604.361.724.602.24.301.301.603.301.963 0 .481-.181.963-.481 1.264-.36.361-.843.542-1.445.542v-.603h.061c.301 0 .602-.12.842-.361.241-.181.362-.482.362-.843s-.121-.663-.362-.844a1.228 1.228 0 0 0-.902-.361v-.603h.061c.241 0 .48-.12.662-.301.181-.181.301-.361.301-.662 0-.242-.12-.482-.301-.663-.18-.181-.421-.241-.723-.241v-.599h-.001zm-.783 2.71c-.302-.061-.542-.242-.724-.421a1.662 1.662 0 0 1-.181-.783c0-.421.121-.783.482-1.084.301-.302.722-.422 1.203-.422v.603c-.241 0-.481.06-.662.241-.182.18-.303.421-.303.663 0 .241.121.481.303.662.18.181.421.301.662.301v.603c-.361 0-.603.121-.843.301a1.224 1.224 0 0 0-.18 1.505c.06.181.241.361.422.421.181.121.421.181.603.181v.603c-.542 0-1.023-.181-1.386-.542-.36-.301-.542-.783-.542-1.264 0-.421.062-.723.301-1.023.182-.244.484-.425.845-.545zM166.062 45.098c.302 0 .604.06.843.181.242.121.422.301.604.542.12.241.24.542.36.903.061.361.12.842.12 1.385 0 .722-.061 1.264-.24 1.746-.12.422-.359.723-.602.963a1.683 1.683 0 0 1-1.085.362v-.603c.302 0 .604-.181.843-.482.181-.301.302-.963.302-1.986 0-.963-.121-1.626-.302-1.927-.239-.362-.541-.482-.843-.482v-.602zm-1.986 3.011c0-.663.062-1.265.241-1.686.12-.422.361-.783.661-1.023.242-.182.604-.302 1.084-.302v.603H166c-.3 0-.602.12-.78.421-.242.362-.362 1.024-.362 1.988 0 1.023.12 1.686.301 1.986.241.301.543.482.903.482v.603c-.603 0-1.084-.181-1.384-.603-.421-.482-.602-1.325-.602-2.469zM157.935 83.935h-.723v-4.637c-.181.12-.422.302-.724.482-.301.181-.542.301-.782.361v-.723c.421-.18.782-.421 1.084-.662.301-.301.542-.542.663-.843h.481v6.022zM163.594 79.418l-.723.061c-.061-.301-.121-.481-.241-.602-.182-.241-.481-.301-.723-.301h-.12v-.602c.061 0 .12-.06.12-.06.481 0 .903.181 1.144.421.302.241.483.663.543 1.083zm-1.806.663h.182c.48 0 .902.181 1.203.542.302.361.482.842.482 1.385 0 .361-.062.722-.241 1.023-.121.361-.362.602-.603.783-.302.181-.603.241-.963.241h-.061v-.602h.061c.301 0 .602-.121.782-.362.241-.241.361-.602.361-1.023 0-.421-.12-.723-.361-.963-.182-.241-.481-.362-.782-.362h-.061v-.662zm0-1.505a.97.97 0 0 0-.542.181c-.18.181-.421.421-.542.722-.12.301-.18.783-.18 1.385.18-.241.36-.482.662-.604a1.17 1.17 0 0 1 .603-.181v.662c-.301 0-.603.121-.843.362-.18.241-.301.542-.301.903 0 .241.06.482.121.722.12.241.301.422.48.542.183.12.362.181.542.181v.602c-.542 0-1.022-.241-1.444-.663-.361-.481-.543-1.204-.543-2.228 0-1.144.182-1.987.604-2.529.362-.421.843-.662 1.385-.662v.604h-.002zM166.364 77.914c.302 0 .602.121.843.241.242.121.422.302.603.542.181.241.3.542.361.903.12.361.12.782.12 1.384 0 .722-.061 1.265-.183 1.746-.18.422-.359.724-.659.964a1.686 1.686 0 0 1-1.085.361v-.602c.302 0 .602-.181.843-.483.242-.361.36-.962.36-1.986 0-.963-.118-1.626-.36-1.927-.241-.361-.48-.482-.843-.482v-.661zm-1.987 3.07c0-.663.12-1.264.24-1.686.182-.421.361-.782.663-1.023a1.681 1.681 0 0 1 1.084-.361v.662c-.362 0-.603.121-.842.422-.242.361-.363 1.023-.363 1.987 0 1.024.121 1.625.363 1.986.239.302.479.483.842.483v.602c-.603 0-1.023-.181-1.386-.602-.361-.543-.601-1.326-.601-2.47zM157.814 116.208h-.783v-4.696c-.181.181-.361.301-.663.482-.301.18-.542.301-.782.361v-.662c.421-.242.782-.422 1.084-.724.302-.301.542-.542.662-.782h.482v6.021zM162.029 116.208v-1.445h-.963v-.662h.963v-2.71l-.963 1.325v-1.023l1.083-1.506h.603v3.914h.782v.662h-.782v1.445h-.723zm-.964-1.445h-1.626v-.662l1.626-2.408v1.023l-.903 1.385h.903v.662zM166.244 110.187c.3 0 .603.06.842.181.241.121.423.301.604.542.12.241.24.542.361.903.059.361.12.843.12 1.445 0 .662-.062 1.264-.241 1.686-.12.422-.361.723-.603.963a1.68 1.68 0 0 1-1.083.362v-.603c.3 0 .603-.181.842-.481.241-.301.304-.963.304-1.927 0-1.023-.062-1.686-.304-1.987-.239-.302-.542-.481-.842-.481v-.603zm-1.987 3.071c0-.723.062-1.324.24-1.746.12-.421.361-.782.662-.963.241-.242.604-.361 1.085-.361v.603h-.061c-.303 0-.603.12-.783.42-.241.362-.361 1.024-.361 2.048 0 .963.12 1.625.302 1.927.241.361.541.481.903.481v.603c-.604 0-1.085-.181-1.386-.603-.42-.482-.601-1.325-.601-2.409zM157.935 148.06h-.723v-4.696c-.181.181-.422.361-.663.542a4.139 4.139 0 0 1-.782.361v-.722c.421-.181.722-.422 1.083-.663.301-.301.48-.542.603-.843h.481l.001 6.021zM163.655 147.338v.722h-3.914c0-.18 0-.361.06-.481.121-.302.303-.542.483-.843.241-.241.542-.542.962-.903.663-.542 1.145-.963 1.325-1.264.241-.302.362-.603.362-.843 0-.301-.121-.542-.302-.783-.241-.181-.481-.301-.843-.301-.36 0-.603.12-.843.361-.18.181-.301.482-.301.843l-.783-.06c.06-.542.241-.963.602-1.265.362-.301.783-.481 1.386-.481.542 0 1.023.181 1.265.481.361.302.542.723.542 1.205 0 .241-.061.481-.181.722-.061.181-.241.422-.481.723-.181.241-.542.603-1.084 1.024a14.27 14.27 0 0 0-.843.783c-.121.121-.241.241-.301.362h2.889v-.002zM166.364 142.039c.361 0 .602.06.843.181.242.181.481.362.603.603.181.24.3.542.361.903.12.301.181.782.181 1.385 0 .723-.12 1.264-.242 1.686a2.018 2.018 0 0 1-.659 1.023c-.242.241-.604.362-1.085.362v-.602a.963.963 0 0 0 .843-.482c.242-.361.36-1.024.36-1.987 0-.963-.118-1.625-.36-1.987a.96.96 0 0 0-.843-.481l-.002-.604zm-1.926 3.07c0-.723.06-1.264.18-1.686.182-.481.361-.782.663-1.023a1.682 1.682 0 0 1 1.084-.362v.603c-.362 0-.603.181-.782.421-.302.422-.423 1.084-.423 2.047s.121 1.626.363 1.987c.239.301.54.482.842.482v.602a1.6 1.6 0 0 1-1.325-.663c-.423-.481-.602-1.264-.602-2.408zM157.392 180.754h-.723v-4.697c-.182.181-.421.301-.663.482-.301.181-.542.302-.782.421v-.722a3.43 3.43 0 0 0 1.084-.723c.301-.241.542-.542.663-.782h.421v6.021zM161.246 174.734c.362 0 .604.06.843.181.241.12.481.301.604.542.181.241.301.542.301.903.121.361.181.843.181 1.446 0 .662-.12 1.264-.181 1.686-.12.421-.361.783-.663.963a1.68 1.68 0 0 1-1.084.361v-.602c.362 0 .604-.121.843-.482.241-.301.361-.963.361-1.926 0-1.023-.12-1.686-.361-1.988a.959.959 0 0 0-.843-.481v-.603zm-1.926 3.071c0-.723.06-1.325.18-1.747.182-.42.362-.782.663-.963a1.68 1.68 0 0 1 1.083-.361v.602c-.361 0-.602.121-.783.421-.301.362-.421 1.024-.421 2.048 0 .963.121 1.625.361 1.926.241.361.542.482.843.482v.602c-.542 0-1.021-.18-1.324-.602-.422-.482-.602-1.325-.602-2.408zM165.822 174.734c.361 0 .604.06.844.181.239.12.481.301.603.542.182.241.3.542.421.903.061.361.12.843.12 1.446 0 .662-.061 1.264-.241 1.686-.118.421-.36.783-.662.963-.239.241-.602.361-1.083.361v-.602c.361 0 .663-.121.903-.482.18-.301.3-.963.3-1.926 0-1.023-.12-1.686-.3-1.988-.24-.301-.542-.481-.903-.481l-.002-.603zm-1.926 3.071c0-.723.06-1.325.241-1.747.119-.42.359-.782.601-.963a1.684 1.684 0 0 1 1.085-.361v.602c-.3 0-.602.121-.783.421-.24.362-.359 1.024-.359 2.048 0 .963.059 1.625.3 1.926.242.361.544.482.844.482v.602c-.542 0-1.023-.18-1.325-.602-.424-.482-.604-1.325-.604-2.408zM159.8 207.429c.483 0 .904.12 1.266.421.301.301.481.663.481 1.144 0 .241-.119.482-.24.722-.121.182-.361.363-.662.482.36.12.662.301.843.541.181.301.301.604.301.963 0 .543-.181.965-.542 1.325-.361.302-.843.481-1.445.481v-.602c.362 0 .663-.121.904-.303.182-.24.301-.542.301-.902 0-.361-.121-.662-.36-.843-.241-.241-.482-.36-.845-.36v-.603c.303 0 .542-.12.725-.302.18-.12.241-.361.241-.602 0-.301-.062-.542-.303-.722-.18-.181-.36-.241-.663-.241l-.002-.599zm-.842 2.77c-.301-.121-.542-.302-.663-.482-.18-.241-.24-.482-.24-.783 0-.421.181-.783.48-1.084.301-.301.723-.421 1.264-.421v.602c-.301 0-.542.06-.721.241-.181.181-.242.421-.242.662 0 .301.062.482.242.662.18.182.42.302.721.302v.603c-.36 0-.661.119-.901.36-.182.181-.302.481-.302.843 0 .182.061.422.12.604.12.182.241.361.481.422.181.119.362.18.602.18v.602c-.602 0-1.083-.18-1.443-.541-.362-.301-.542-.781-.542-1.266 0-.42.121-.72.302-.963.179-.304.48-.485.842-.543zM164.377 207.429c.303 0 .603.06.845.18.239.121.42.301.602.542.18.241.3.542.361.903.12.362.12.843.12 1.385 0 .725-.061 1.325-.183 1.747-.18.42-.359.722-.661.962-.302.243-.662.361-1.084.361v-.602c.36 0 .603-.181.845-.48.239-.303.36-.965.36-1.988 0-.963-.121-1.625-.36-1.926-.242-.301-.483-.482-.845-.482v-.602zm-1.866 3.009c0-.661.06-1.264.181-1.686.181-.422.301-.783.602-.963a1.681 1.681 0 0 1 1.084-.361v.602c-.36 0-.602.12-.843.422-.241.361-.361 1.023-.361 1.986 0 1.022.12 1.687.361 1.987.242.302.482.48.843.48v.602c-.602 0-1.023-.18-1.385-.602-.302-.478-.482-1.322-.482-2.467zM161.487 240.365l-.723.059c-.062-.299-.121-.48-.241-.602-.241-.24-.482-.302-.783-.302h-.06v-.603c.06-.061.06-.061.119-.061.483 0 .845.182 1.146.421.301.244.482.665.542 1.088zm-1.806.662h.181c.48 0 .903.18 1.264.542.303.361.482.841.482 1.386 0 .36-.061.721-.241 1.022-.181.358-.361.603-.662.78-.301.18-.602.242-.963.242h-.06v-.603h.06c.301 0 .542-.121.783-.362.241-.24.361-.603.361-1.023 0-.42-.12-.781-.361-.961-.241-.242-.482-.362-.843-.362l-.001-.661zm0-1.506a.987.987 0 0 0-.542.18 1.655 1.655 0 0 0-.542.725c-.12.302-.181.783-.181 1.385.181-.239.361-.48.604-.602.239-.121.42-.181.662-.181v.661c-.302 0-.603.12-.844.361-.24.181-.301.541-.301.904 0 .239 0 .479.121.721.12.24.241.423.481.541.181.121.36.183.542.183v.603a1.83 1.83 0 0 1-1.445-.664c-.361-.479-.604-1.203-.604-2.229 0-1.143.242-1.984.663-2.525.362-.422.844-.664 1.386-.664v.601zM164.257 238.858c.302 0 .603.12.843.242.241.12.424.3.604.542.12.238.24.54.36.9.06.361.121.783.121 1.388 0 .722-.062 1.264-.183 1.745-.18.422-.36.723-.661.963-.302.242-.661.361-1.084.361v-.603c.302 0 .603-.183.843-.483.241-.36.361-.961.361-1.983 0-.964-.12-1.627-.361-1.927-.24-.361-.541-.483-.843-.483v-.662zm-1.927 3.073c0-.663.061-1.266.241-1.688.121-.422.362-.783.603-1.022.241-.242.604-.362 1.084-.362v.662c-.36 0-.662.122-.843.422-.241.361-.361 1.023-.361 1.988 0 1.023.12 1.623.361 1.984a.961.961 0 0 0 .843.482v.604c-.602 0-1.023-.183-1.324-.604-.364-.54-.604-1.323-.604-2.466z"/></g><path fill="none" stroke="#000" stroke-width=".736" d="M7.045 121.567c0 3.312-.723 10.296.181 13.247.181.723 0 2.95 1.506 2.95 1.806 0 2.348-6.442 2.769-7.948 0-.361.903-2.167.903-2.167.542 1.626 1.807 5.479 1.807 6.984 0 .542.542 3.312 1.146 3.312 1.443 0 3.312-5.178 3.672-5.901 0 0 .542-1.445.542-.903 0 2.951.542 5.119 2.589 7.165.362-2.588 1.265-22.82 1.445-22.82.902 0 .361-3.854.723-4.576 1.084-2.348 1.867-1.083 1.867 1.505 0 .542 2.71.181 2.71 5.48 0 6.623 1.866 13.607 1.866 20.591 0 3.131 2.229 6.263 2.229 10.477 0 6.262.542-5.358.542-6.984 0-3.854 1.445 6.263 1.445 7.527 0 5.117.904 12.644.904 18.545v-7.527c0-2.769 1.505-.542 1.686 1.084.362 3.312-.181 7.526.362 10.837 1.083 7.346 2.228 15.836 2.228 23.182.723-4.034 2.891-8.49 2.891-12.524V167.87c0-2.77 2.408 5.539 2.77 6.262 2.409 4.938.542-16.919 2.771-14.692 1.626 1.626.902-14.149.902-17.642 0-6.804 1.867 4.576 2.047 3.853.902-4.576 1.265-7.526 2.349-.18.602 3.853.782-13.608.782-14.511.724-5.178 3.493-9.935 3.493-15.475.361 1.325 1.986 3.733 1.986 5.178v10.116c0 1.445-.181 6.442.723 7.346.542.542 2.047-2.047 2.047-2.589v-4.034c0-7.708 3.492 3.672 4.216 5.118.36.963.36 1.685 1.083 0 1.145-2.168 2.589-5.299 3.131-7.708.181-.722.723-1.445.723-2.167.604-3.492.963 5.118.963 6.021.542 4.215 3.673-2.709 4.034-4.215.362-1.625 1.445-4.395 2.167-5.9.603-1.265 0 1.505 0 2.409 0 3.853.181 7.887.181 11.561 1.325-1.084 2.409-3.492 2.951-5.118 1.145-3.673 4.456-7.346 5.901-10.477.18-.362.18 3.311.18 3.492v6.443c0 .903.903 1.987.903 3.131 3.854-2.951 2.95-7.948 2.95-12.524 0-1.084.361-3.312.902-.542.182 1.083.783 3.131 1.145 4.034.723 1.686 2.349-4.034 2.528-4.757 0-.362.361-1.325.361-1.867v.783c0 3.432.963 6.924.963 10.417 0 1.867 1.808 4.094 1.808 5.901 0-.362-.182-3.673 0-4.215 1.866-3.854 2.229 3.492 2.229 4.938 0 2.227 1.264 4.215 1.625 6.082.963 3.672 2.229-2.229 2.229-3.493 0-4.034.722-8.791.722-12.885 0-1.627 1.084-.181 1.687-.181 0 0 3.252-5.66 3.252-5.299.421 1.987.24 5.48.24 7.708 0 1.866.724 3.672.724 5.72 0 1.807 1.987-3.131 2.167-3.493 0-.181 1.324-3.492 1.324-3.13v4.034c0 .903.361 6.623.903 7.165.542.542 2.589-10.837 3.131-6.984.181 1.807.542 4.757 1.084 6.623.18.723 1.505 2.528 1.505 3.312 1.265-1.687 5.118-12.886 5.118-14.873 0-4.094.362 4.396.362 5.298 0 11.742 2.95 21.856 2.95 33.778 0-3.672 1.084-10.417 2.589-13.367 1.084-2.408.181-11.621.181-14.511 0-2.589 2.529 3.312 2.529 4.034 0 4.396 4.274-5.72 4.274-5.72 3.854-7.887 3.854 4.034 3.854 7.888v5.901c0 1.084 2.529-5.118 2.529-6.081-2.35 7.165 1.865 16.016 1.865 23.181 0 8.249 2.229-2.409 2.229-4.576 0-1.325 2.348-3.914 3.251-4.817.421-.361.421 6.443.421 8.491v14.51c0 3.493-.421 5.118 1.084.542.361-1.325.361-5.359.361-4.034v13.547c0 4.094-.542 8.309-.542 12.163-.542 6.021.902 3.672 1.807 0 .181-.723.361-2.77.361-2.047l.181 9.393c.181 5.659 1.867 11.14 1.867 16.618 0 2.228 1.445 4.637 1.445 6.623.963-1.986 2.528-6.805 2.709-9.151.542-4.575 3.672-9.875 3.672-14.812 0-2.951.902-11.802 1.083-9.394l.424 5.901c.18 2.349 2.167 5.299 2.167 7.708 0 4.395 2.228-5.179 2.228-6.083.362-3.131 1.267-6.624 1.267-9.754 0-.181 3.854 6.804 3.854 8.49 1.505-6.082 2.588-11.982 2.588-18.365 0-.782 0-3.131.361-3.492.181-.181 3.674 6.624 4.214 7.165 1.326 1.264 1.688 4.576 1.688.361 0-6.262.902-12.523.902-18.725 0-.242 3.674 5.659 3.674 7.345-.902-4.636-.544-15.654 1.264-19.328 0-.181.544-3.492.544-3.492.239-.182 2.768 5.9 2.768 5.9.362-2.228 2.229-7.707 3.132-9.754 0-.181.362-2.589.544-2.167.179.361 2.228 8.068 3.129 4.215.902-3.854 2.409-6.804 4.034-10.116 0 0 .543-3.492.725-2.77.421 1.687 1.866 3.853 2.408 5.179 2.407-3.132 3.672-6.082 4.032-9.755.966-7.346 4.638-16.377 4.638-23.723 0 4.456.18 9.032.18 13.428 0 2.046 1.807 4.395 1.807 7.526 0 1.083 1.085 9.032 1.867 3.672.361-2.589 1.808-7.707 2.71-10.477 0 0 .361 6.624.783 9.032 1.264 7.165 3.491.542 4.575-2.951.543-1.685.902-5.9 1.445-3.311.542 3.311.18 17.28 5.538 10.296 1.987-2.589 1.625-5.901 1.625-9.212 0-2.349.967 2.951 1.688 3.312 0 0 2.167 2.589 2.167 2.77-1.807-3.854 2.41-17.281 3.312-21.134 1.686-6.804 6.261-13.066 6.261-19.81 0 11.02.724 22.219.724 33.057v6.262c0 4.215 5.901-4.816 6.441-5.9 0-.181 1.867-5.54 1.867-4.576 0 4.034.182 8.429.182 12.283 0 5.358 4.575-6.082 4.937-7.166 1.446-4.576 1.085 2.228 1.085 4.034 0 1.505.542 4.396 1.145 5.54 2.348-2.409 3.068-4.998 3.673-8.49 0-.542.903-2.348 1.266-2.71.723-.782 1.264 7.888 1.443 9.513.363 2.048-.362 8.31 1.866 2.409 1.085-3.312 2.59-7.346 3.493-10.477 1.444-4.576.542 1.626.542 3.673 0 10.477 3.492 20.592 3.492 30.708 1.265-.603 3.312-4.817 3.312-6.262 0-6.985.361 5.66.361 6.984 0 7.346.182 13.789 1.865 20.533.542 2.228.182 5.901.182 8.309.543 7.346-.603 15.775 1.626 22.58.359 1.203 1.444-5.9 1.444-6.623 0-3.494-1.085-16.5.782-18.365 3.131-3.132 2.891-8.611 2.891-13.608 0-.542 4.275 8.129 4.637 10.477.182.964.182-9.151.182-11.741 0-11.38 2.35-23.122 2.35-34.742-.905-2.71 1.143 1.144 1.143 1.686 0 1.083-.18 3.854.181 4.757.903 1.867 1.808-4.576 1.808-5.479 0-2.409.182-4.818.182-7.166 0-3.913 3.13 2.348 3.13 3.072.183 1.686.725 3.312.725 4.998 0 .722 3.13-8.671 3.913-10.838.54-1.867 1.805-3.854 2.349-5.72.722-2.589 0 1.505.359 2.95.724 2.951.182 6.623.964 9.574.723 3.492 1.626-2.409 2.168-3.493"/></svg>