<svg version="1.1" xmlns="http://www.w3.org/2000/svg" x="0" y="0" width="325.984" height="225.033" viewBox="0 0 325.984 225.033" xml:space="preserve"><path fill="#1A171B" d="M45.264 8.003L42.167 0h1.146l2.083 5.782c.203.471.335.943.404 1.347.134-.471.271-.876.471-1.347L48.425 0h1.073l-3.161 8.003h-1.073zM53.669 6.12l1.01.135c-.136.604-.403 1.076-.874 1.411-.405.337-1.009.472-1.683.472h-.067v-.807h.134c.337 0 .607-.069.875-.27.269-.203.471-.538.605-.941m-1.614-4.036h.067c.739 0 1.412.271 1.883.74.471.538.74 1.278.74 2.288v.268h-2.69v-.876h1.614c0-.469-.135-.806-.337-1.073-.336-.338-.739-.539-1.21-.539h-.067v-.808zm0 6.054c-.808 0-1.413-.271-1.948-.807-.472-.473-.742-1.211-.742-2.152 0-1.01.271-1.748.81-2.287.468-.537 1.141-.808 1.881-.808v.808c-.404 0-.808.136-1.076.403-.337.336-.469.74-.537 1.209h1.613v.876h-1.682c.068.605.269 1.075.541 1.411.333.338.736.54 1.141.54v.807zM55.956 8.003V2.22h.875v.873c.201-.403.403-.672.605-.807.203-.135.403-.202.672-.202.337 0 .673.067 1.01.271l-.337.94c-.269-.133-.538-.202-.739-.202-.202 0-.402.069-.605.202-.135.135-.27.271-.337.538-.134.336-.201.74-.201 1.144v3.026h-.943z"/><path fill="#1A171B" d="M61.808 7.129l.134.874c-.269.067-.472.067-.739.067-.337 0-.605-.067-.808-.135-.2-.134-.336-.27-.403-.469-.067-.205-.135-.608-.135-1.146V2.959h-.741V2.22h.741V.737l1.009-.604V2.22h.942v.739h-.942v3.968c.067.069.134.135.201.135.068.067.203.067.337.067h.404zM66.784 6.12l1.011.135a2.563 2.563 0 0 1-.875 1.411c-.471.337-1.009.472-1.683.472h-.067v-.807h.066c.338 0 .674-.069.943-.27.27-.203.472-.538.605-.941M65.17 2.084c.808 0 1.413.271 1.884.74.537.538.74 1.278.74 2.288v.268H65.17v-.876h1.613c-.065-.469-.2-.806-.402-1.073-.271-.338-.674-.539-1.211-.539v-.808zm0 6.054c-.807 0-1.479-.271-1.95-.807-.538-.473-.74-1.211-.74-2.152 0-1.01.27-1.748.74-2.287.471-.537 1.144-.808 1.95-.808v.808c-.471 0-.807.136-1.143.403-.27.336-.472.74-.472 1.209h1.614v.876H63.49c0 .605.201 1.075.538 1.411.336.338.672.54 1.143.54v.807zM68.398 8.003l2.084-3.026-1.948-2.757h1.211l.941 1.346c.134.268.267.471.403.671a5.35 5.35 0 0 1 .404-.671l1.009-1.346h1.141l-2.017 2.688 2.151 3.095h-1.143l-1.212-1.815-.334-.471-1.548 2.286h-1.142zM30.333 14.595h.134c.538 0 .94.135 1.346.402.336.202.674.606.807 1.076.202.471.337.941.337 1.481 0 .603-.135 1.142-.337 1.612a2.625 2.625 0 0 1-.941 1.144c-.403.2-.807.338-1.277.338h-.067v-.808c.471 0 .807-.203 1.144-.539.336-.403.471-.94.471-1.747 0-.741-.135-1.281-.471-1.614-.27-.404-.673-.607-1.076-.607h-.067v-.738zm-2.422 8.137v-8.003h.875v.738c.201-.269.471-.538.739-.671.202-.136.538-.202.808-.202v.738c-.404 0-.74.203-1.076.607-.337.401-.471.941-.471 1.68 0 .808.134 1.346.471 1.682.269.336.672.539 1.076.539v.808c-.27 0-.538-.07-.808-.203-.269-.135-.472-.338-.673-.538v2.825h-.941zM34.099 20.513V14.73h.874v.874c.268-.404.471-.674.671-.807.203-.135.404-.203.607-.203.336 0 .672.068 1.007.336l-.335.876a1.35 1.35 0 0 0-.739-.202.77.77 0 0 0-.54.202c-.2.133-.335.268-.403.536a5.978 5.978 0 0 0-.133 1.146v3.025h-1.009zM41.833 18.629l1.011.135a2.566 2.566 0 0 1-.875 1.412c-.403.337-1.009.472-1.683.472h-.067v-.808h.067c.403 0 .674-.067.942-.268.269-.203.469-.472.605-.943m-1.615-4.034c.809 0 1.414.268 1.95.808.471.469.741 1.277.741 2.219v.269h-2.691v-.808h1.614c0-.538-.136-.873-.336-1.144-.335-.336-.74-.536-1.211-.536h-.067v-.808zm0 6.052c-.808 0-1.479-.27-1.949-.808-.471-.471-.741-1.211-.741-2.151 0-1.009.271-1.75.741-2.286.538-.54 1.142-.808 1.949-.808v.808c-.403 0-.808.133-1.075.469-.336.27-.471.673-.538 1.211h1.613v.808h-1.681c.067.605.202 1.144.538 1.479.335.271.673.471 1.143.471v.807zM43.716 18.764l.939-.135c.069.404.203.673.473.875.271.269.604.336 1.075.336.403 0 .742-.067 1.009-.269.201-.202.337-.404.337-.673a.513.513 0 0 0-.337-.473c-.134-.133-.471-.2-1.009-.333-.672-.203-1.208-.337-1.479-.473-.27-.135-.473-.336-.672-.605-.137-.201-.201-.471-.201-.739 0-.27.064-.537.201-.74.135-.2.267-.403.471-.538.132-.135.335-.2.604-.27.271-.133.604-.133.874-.133.471 0 .876.066 1.21.202.337.134.607.268.741.538.2.2.271.471.336.874l-.94.133c-.067-.27-.203-.536-.403-.672-.204-.201-.473-.268-.876-.268-.471 0-.741.066-.941.2-.2.136-.336.336-.336.538 0 .135.066.269.136.336.067.135.2.203.4.27.07.067.403.136.875.269.675.202 1.146.338 1.412.471.338.067.538.271.674.472.135.269.268.538.268.875 0 .335-.133.604-.333.94-.203.271-.474.47-.811.674-.335.134-.738.201-1.21.201-.74 0-1.345-.135-1.748-.472-.402-.335-.673-.738-.739-1.411M53.669 18.629l1.01.135a2.56 2.56 0 0 1-.874 1.412c-.405.337-1.009.472-1.683.472h-.067v-.808h.067c.403 0 .674-.067.941-.268.27-.203.472-.472.606-.943m-1.614-4.034c.807 0 1.413.268 1.95.808.471.469.74 1.277.74 2.219v.269h-2.69v-.808h1.614c0-.538-.135-.873-.337-1.144-.336-.336-.739-.536-1.21-.536h-.067v-.808zm0 6.052c-.808 0-1.48-.27-1.948-.808-.472-.471-.742-1.211-.742-2.151 0-1.009.271-1.75.742-2.286.535-.54 1.141-.808 1.948-.808v.808c-.404 0-.808.133-1.076.469-.337.27-.469.673-.537 1.211h1.613v.808h-1.682c.068.605.201 1.144.541 1.479.333.271.67.471 1.141.471v.807zM55.956 20.513V14.73h.875v.806c.403-.605 1.009-.941 1.815-.941.404 0 .673.068 1.01.203.269.133.471.268.672.471.135.201.202.47.27.738.067.203.067.471.067.94v3.566h-1.009v-3.496c0-.404 0-.741-.067-.943-.135-.202-.27-.336-.404-.47-.201-.135-.471-.135-.739-.135-.403 0-.74.135-1.076.337-.27.268-.471.807-.471 1.547v3.16h-.943zM64.296 19.638l.133.875c-.268.067-.469.067-.738.067-.338 0-.605 0-.807-.134-.202-.137-.338-.271-.404-.472-.066-.202-.134-.537-.134-1.144v-3.362h-.74v-.739h.74v-1.481l1.007-.536v2.018h.943v.739h-.943V19.438c.069.066.137.134.202.2.068 0 .203.067.338.067.133 0 .269-.067.403-.067M69.069 19.84a4.27 4.27 0 0 1-1.074.606c-.134.066-.337.134-.471.134v-.74c.203 0 .471-.067.671-.202.271-.134.471-.404.674-.671.068-.203.136-.541.136-1.01v-.337c-.339.136-.874.27-1.48.337v-.808c.606-.066 1.142-.202 1.48-.336v-.201c0-.403-.067-.741-.269-.875-.271-.202-.674-.335-1.145-.335h-.067v-.808h.203c.538 0 .938.066 1.21.135.337.133.537.268.67.47.205.203.271.403.338.672 0 .135.067.471.067.875v1.347c0 .94 0 1.479.068 1.747 0 .202.067.47.202.673h-1.009c-.066-.203-.135-.404-.204-.673m-1.545.74c-.201.067-.402.067-.604.067-.607 0-1.144-.135-1.479-.472-.336-.269-.471-.672-.471-1.209 0-.271.067-.541.201-.741.134-.269.27-.403.47-.605.203-.135.471-.202.741-.268.202-.07.471-.136.873-.203h.27v.808h-.135a5.98 5.98 0 0 0-.875.201c-.134.067-.269.202-.404.338-.065.133-.133.268-.133.471 0 .267.133.471.334.671a1.5 1.5 0 0 0 .875.27c.067 0 .203 0 .337-.067v.739zm0-5.178c-.47 0-.74.066-.94.269-.202.135-.403.401-.473.806l-1.007-.135c.133-.403.269-.739.471-.939.201-.271.471-.473.874-.605.27-.136.673-.202 1.075-.202v.806zM73.643 19.638l.136.875c-.269.067-.472.067-.738.067-.338 0-.608 0-.809-.134-.2-.137-.336-.271-.403-.472-.069-.202-.134-.537-.134-1.144v-3.362h-.742v-.739h.742v-1.481l1.008-.536v2.018h.94v.739h-.94V19.438c.068.066.133.134.2.2.07 0 .203.067.339.067.133 0 .268-.067.401-.067M74.655 12.51h.94v1.144h-.94V12.51zm0 2.219h.94v5.783h-.94v-5.783zM79.497 14.595c.807 0 1.411.268 1.95.806.47.471.74 1.211.74 2.154 0 .738-.069 1.344-.338 1.747-.202.402-.538.74-.941 1.009-.472.2-.939.337-1.411.337v-.807c.472 0 .873-.203 1.209-.539.336-.403.471-.94.471-1.682 0-.74-.135-1.278-.471-1.682-.336-.335-.737-.538-1.209-.538v-.805zm-2.758 3.025c0-1.076.336-1.883.94-2.421.471-.402 1.076-.604 1.817-.604v.805c-.54 0-.943.203-1.213.538-.335.403-.538.941-.538 1.682s.203 1.278.538 1.682c.27.336.673.539 1.213.539v.807c-.809 0-1.481-.27-2.019-.74-.468-.539-.738-1.279-.738-2.288M83.329 20.513V14.73h.941v.806c.404-.605 1.009-.941 1.816-.941.336 0 .673.068.941.203.337.133.538.268.673.471.135.201.269.47.336.738 0 .203.067.471.067.94v3.566h-1.009v-3.496a3.1 3.1 0 0 0-.135-.943c-.065-.202-.201-.336-.403-.47-.202-.135-.403-.135-.673-.135a1.86 1.86 0 0 0-1.076.337c-.336.268-.471.807-.471 1.547v3.16h-1.007zM212.391 8.003V0h5.381v.94h-4.304v2.49h3.764v.941h-3.764v3.632zM222.816 7.262c-.336.338-.672.54-1.01.674-.2.067-.336.135-.537.135v-.742c.27 0 .471-.067.672-.2.271-.202.539-.403.674-.673.065-.269.135-.605.135-1.009v-.335c-.337.133-.809.2-1.48.335v-.806c.672-.137 1.144-.202 1.48-.335v-.271c0-.402-.069-.673-.27-.806-.269-.271-.605-.338-1.144-.338h-.067v-.807h.201c.54 0 .942.067 1.21.136.338.135.54.269.741.47.135.135.202.402.268.673.069.135.069.471.069.874v1.346c0 .874 0 1.479.065 1.747 0 .203.138.473.271.674h-1.076a10.994 10.994 0 0 1-.202-.742m-1.547.808c-.201.066-.403.066-.605.066-.604 0-1.077-.134-1.411-.471-.337-.337-.539-.739-.539-1.21 0-.269.067-.538.202-.739.134-.27.269-.472.471-.604.271-.137.471-.271.741-.338.199 0 .47-.067.873-.134h.269v.807h-.134a5.89 5.89 0 0 0-.875.202.813.813 0 0 0-.338.337c-.133.134-.133.269-.133.47 0 .27.067.471.27.673.201.133.471.2.874.2h.336v.741zm0-5.178c-.403 0-.739.067-.942.2-.199.203-.404.473-.47.876l-1.008-.135c.134-.403.267-.741.47-1.009a2.16 2.16 0 0 1 .874-.538 2.783 2.783 0 0 1 1.076-.202v.808zM229.07 5.851l.943.135c-.068.673-.338 1.211-.809 1.614-.403.335-.941.538-1.612.538-.741 0-1.413-.271-1.884-.807-.472-.473-.74-1.21-.74-2.22 0-.607.135-1.144.337-1.614.2-.47.538-.875.941-1.076.402-.27.873-.337 1.412-.337.604 0 1.143.136 1.546.471.403.337.606.74.74 1.347l-.941.134c-.134-.404-.271-.672-.47-.875-.271-.201-.538-.269-.875-.269-.472 0-.875.136-1.212.539-.335.337-.471.875-.471 1.681 0 .739.136 1.344.471 1.68.27.338.673.54 1.146.54.403 0 .738-.135 1.007-.337.271-.269.404-.606.471-1.144M234.853 6.12l1.012.135a2.563 2.563 0 0 1-.875 1.411c-.404.337-1.008.472-1.682.472h-.067v-.807h.067c.403 0 .674-.069.941-.27.269-.203.471-.538.604-.941m-1.612-4.036c.807 0 1.411.271 1.95.74.471.538.74 1.278.74 2.288v.268h-2.69v-.876h1.612c0-.469-.133-.806-.335-1.073-.336-.338-.739-.539-1.21-.539h-.067v-.808zm0 6.054c-.808 0-1.48-.271-1.949-.807-.473-.473-.741-1.211-.741-2.152 0-1.01.269-1.748.741-2.287.536-.537 1.142-.808 1.949-.808v.808c-.403 0-.808.136-1.075.403-.338.336-.472.74-.538 1.209h1.613v.876h-1.682c.068.605.201 1.075.539 1.411.335.338.672.54 1.143.54v.807zM242.589 2.086c.808 0 1.48.268 1.949.737.538.539.741 1.28.741 2.221 0 .738-.069 1.277-.336 1.749-.203.403-.539.739-.943 1.009a3.132 3.132 0 0 1-1.411.335v-.806c.47 0 .873-.203 1.21-.538.336-.402.471-.942.471-1.749 0-.674-.135-1.211-.471-1.614-.337-.337-.74-.538-1.21-.538v-.806zm-2.756 3.025c0-1.075.336-1.882.939-2.422.472-.403 1.076-.604 1.817-.604v.806c-.471 0-.874.201-1.212.538-.335.336-.469.94-.469 1.682 0 .739.134 1.279.469 1.682.338.335.741.538 1.212.538v.806c-.807 0-1.479-.27-1.95-.806-.539-.472-.806-1.278-.806-2.22M246.422 8.003V2.22h.941v.873c.202-.403.404-.672.605-.807a1.08 1.08 0 0 1 .605-.202c.336 0 .673.067 1.009.271l-.336.94a1.314 1.314 0 0 0-.673-.202c-.271 0-.403.069-.605.202-.201.135-.269.271-.336.538-.136.336-.203.74-.203 1.144v3.026h-1.007zM255.77 2.084h.135c.336 0 .673.067 1.009.202.338.135.538.336.808.605.201.271.336.538.471.941.068.336.136.74.136 1.144 0 1.01-.203 1.814-.741 2.354a2.262 2.262 0 0 1-1.749.806h-.067v-.805c.404 0 .808-.202 1.078-.54.335-.4.471-.941.471-1.679 0-.807-.136-1.347-.405-1.683-.336-.403-.673-.538-1.144-.538v-.807zm-1.545 5.919h-.942V0h1.008v2.824c.403-.47.876-.74 1.479-.74v.808c-.403 0-.806.201-1.076.538-.335.403-.469.941-.469 1.614 0 .738.065 1.209.269 1.547.335.471.74.74 1.276.74v.806c-.672 0-1.144-.335-1.545-.875v.741zM259.537 8.003V2.22h.875v.873c.269-.403.471-.672.605-.807.201-.135.403-.202.674-.202.335 0 .671.067 1.007.271l-.336.94c-.269-.133-.471-.202-.741-.202-.2 0-.402.069-.537.202-.201.135-.336.271-.403.538-.135.336-.135.74-.135 1.144v3.026h-1.009zM265.658 2.086c.808 0 1.412.268 1.95.737.47.539.74 1.28.74 2.221 0 .738-.136 1.277-.336 1.749-.203.403-.538.739-.942 1.009-.471.201-.941.335-1.412.335v-.806c.471 0 .874-.203 1.209-.538.337-.402.472-.942.472-1.749 0-.674-.135-1.211-.472-1.614-.335-.337-.738-.538-1.209-.538v-.806zM262.9 5.111c0-1.075.337-1.882.941-2.422.47-.403 1.075-.604 1.816-.604v.806a1.72 1.72 0 0 0-1.278.538c-.269.336-.472.94-.472 1.682 0 .739.203 1.279.472 1.682.337.335.74.538 1.278.538v.806c-.808 0-1.479-.27-2.017-.806-.47-.472-.74-1.278-.74-2.22M270.568 8.003l-1.75-5.783h1.009l.941 3.296.337 1.275c0-.065.134-.47.269-1.209l.941-3.362h1.009l.875 3.362.269 1.076.338-1.076 1.006-3.362h.943l-1.816 5.783h-1.009l-.941-3.497-.2-.94-1.145 4.438h-1.076zM216.494 14.595h.134c.54 0 .942.135 1.346.402.337.202.675.606.808 1.076.202.471.336.941.336 1.481 0 .603-.134 1.142-.336 1.612-.2.471-.538.875-.941 1.144-.402.2-.808.338-1.278.338h-.067v-.808c.471 0 .808-.203 1.144-.539.27-.403.471-.94.471-1.747 0-.741-.135-1.281-.471-1.614-.336-.404-.673-.607-1.076-.607h-.067v-.738zm-2.421 8.137v-8.003h.874v.738c.202-.269.471-.538.74-.671.203-.136.538-.202.807-.202v.738c-.403 0-.739.203-1.076.607-.336.401-.471.941-.471 1.68 0 .808.135 1.346.471 1.682.27.336.673.539 1.076.539v.808c-.269 0-.538-.07-.807-.203-.27-.135-.471-.338-.673-.538v2.825h-.941zM220.26 20.513V14.73h.875v.874c.269-.404.469-.674.671-.807a1.09 1.09 0 0 1 .606-.203c.335 0 .673.068 1.009.336l-.336.876a1.35 1.35 0 0 0-.741-.202c-.2 0-.402.067-.538.202-.202.133-.335.268-.402.536a5.973 5.973 0 0 0-.135 1.146v3.025h-1.009zM227.994 18.629l1.01.135a2.552 2.552 0 0 1-.873 1.412c-.405.337-1.01.472-1.684.472h-.065v-.808h.065c.404 0 .674-.067.942-.268.27-.203.469-.472.605-.943m-1.613-4.034c.807 0 1.411.268 1.95.808.47.469.74 1.277.74 2.219v.269h-2.69v-.808h1.612c0-.538-.136-.873-.335-1.144-.337-.336-.741-.536-1.212-.536h-.065v-.808zm0 6.052c-.809 0-1.479-.27-1.951-.808-.469-.471-.741-1.211-.741-2.151 0-1.009.272-1.75.741-2.286.538-.54 1.143-.808 1.951-.808v.808c-.403 0-.809.133-1.076.469-.337.27-.471.673-.538 1.211h1.614v.808h-1.683c.068.605.203 1.144.539 1.479.335.271.671.471 1.144.471v.807zM229.877 18.764l.94-.135c.068.404.203.673.474.875.268.269.604.336 1.074.336.402 0 .74-.067 1.01-.269.201-.202.336-.404.336-.673a.512.512 0 0 0-.336-.473c-.135-.133-.472-.2-1.01-.333-.738-.203-1.21-.337-1.479-.473-.268-.135-.471-.336-.671-.605a1.342 1.342 0 0 1-.203-.739c0-.27.067-.537.203-.74.133-.2.268-.403.469-.538.134-.135.337-.2.607-.27.268-.133.604-.133.874-.133.47 0 .873.066 1.21.202.336.134.606.268.739.538.2.2.271.471.338.874l-.943.133c-.067-.27-.201-.536-.403-.672-.202-.201-.471-.268-.874-.268-.472 0-.74.066-.94.2-.203.136-.338.336-.338.538 0 .135.067.269.135.336.067.135.203.203.403.27.067.067.403.136.874.269.673.202 1.144.338 1.413.471.336.067.536.271.674.472.133.269.267.538.267.875 0 .335-.134.604-.334.94-.203.271-.472.47-.809.674-.336.134-.739.201-1.211.201-.807 0-1.345-.135-1.747-.472-.404-.335-.676-.738-.742-1.411M239.831 18.629l1.011.135a2.55 2.55 0 0 1-.875 1.412c-.403.337-1.009.472-1.683.472h-.065v-.808h.065c.403 0 .674-.067.941-.268.27-.203.473-.472.606-.943m-1.613-4.034c.807 0 1.412.268 1.949.808.471.469.741 1.277.741 2.219v.269h-2.69v-.808h1.612c0-.538-.133-.873-.336-1.144-.335-.336-.738-.536-1.211-.536h-.065v-.808zm0 6.052c-.809 0-1.48-.27-1.951-.808-.471-.471-.741-1.211-.741-2.151 0-1.009.271-1.75.741-2.286.538-.54 1.143-.808 1.951-.808v.808c-.405 0-.809.133-1.078.469-.335.27-.47.673-.536 1.211h1.614v.808h-1.682c.067.605.201 1.144.538 1.479.335.271.672.471 1.144.471v.807zM242.119 20.513V14.73h.875v.806c.403-.605 1.007-.941 1.814-.941.403 0 .673.068 1.009.203.27.133.471.268.673.471.136.201.201.47.269.738.069.203.069.471.069.94v3.566h-1.011v-3.496c0-.404 0-.741-.065-.943a1.614 1.614 0 0 0-.472-.47c-.137-.135-.403-.135-.674-.135-.403 0-.738.135-1.076.337-.271.268-.471.807-.471 1.547v3.16h-.94zM250.458 19.638l.133.875c-.268.067-.47.067-.738.067-.337 0-.607 0-.808-.134-.2-.137-.336-.271-.403-.472-.067-.202-.135-.537-.135-1.144v-3.362h-.739v-.739h.739v-1.481l1.009-.536v2.018h.942v.739h-.942V19.438l.202.2c.067 0 .202.067.336.067.135 0 .27-.067.404-.067M255.234 19.84c-.337.27-.74.47-1.076.606-.134.066-.338.134-.471.134v-.74c.2 0 .471-.067.671-.202.269-.134.471-.404.606-.671.134-.203.2-.541.2-1.01v-.337c-.336.136-.874.27-1.478.337v-.808c.604-.066 1.142-.202 1.478-.336v-.201c0-.403-.066-.741-.268-.875-.271-.202-.672-.335-1.145-.335h-.065v-.808h.2c.539 0 .941.066 1.211.135.337.133.538.268.672.47.203.203.27.403.338.672 0 .135.066.471.066.875v1.347c0 .94 0 1.479.066 1.747 0 .202.069.47.203.673h-1.009a1.142 1.142 0 0 1-.199-.673m-1.547.74c-.202.067-.404.067-.605.067-.605 0-1.144-.135-1.48-.472-.336-.269-.471-.672-.471-1.209 0-.271.067-.541.202-.741.133-.269.269-.403.471-.605.2-.135.471-.202.74-.268.2-.07.471-.136.873-.203h.271v.808h-.137a5.972 5.972 0 0 0-.873.201c-.134.067-.27.202-.403.338-.067.133-.135.268-.135.471 0 .267.135.471.337.671.201.135.47.27.874.27.066 0 .2 0 .337-.067v.739zm0-5.178c-.472 0-.741.066-.943.269-.2.135-.403.401-.47.806l-1.009-.135c.135-.403.268-.739.471-.939.202-.271.471-.473.875-.605.269-.136.672-.202 1.076-.202v.806zM259.806 19.638l.135.875c-.27.067-.47.067-.739.067-.337 0-.606 0-.807-.134-.202-.137-.338-.271-.403-.472-.069-.202-.137-.537-.137-1.144v-3.362h-.738v-.739h.738v-1.481l1.01-.536v2.018h.941v.739h-.941V19.438l.2.2c.069 0 .203.067.338.067.134 0 .268-.067.403-.067M260.815 12.51h.94v1.144h-.94V12.51zm0 2.219h.94v5.783h-.94v-5.783zM265.658 14.595c.808 0 1.412.268 1.95.806.47.471.74 1.211.74 2.154 0 .738-.068 1.344-.336 1.747-.203.402-.538.74-.942 1.009-.471.2-.941.337-1.412.337v-.807c.471 0 .874-.203 1.209-.539.337-.403.472-.94.472-1.682 0-.74-.135-1.278-.472-1.682-.335-.335-.738-.538-1.209-.538v-.805zM262.9 17.62c0-1.076.337-1.883.941-2.421.47-.402 1.075-.604 1.816-.604v.805c-.538 0-.941.203-1.211.538-.336.403-.539.941-.539 1.682s.203 1.278.539 1.682c.27.336.673.539 1.211.539v.807c-.808 0-1.479-.27-2.017-.74-.47-.539-.74-1.279-.74-2.288M269.492 20.513V14.73h.94v.806c.404-.605 1.009-.941 1.815-.941.338 0 .675.068.942.203.336.133.538.268.672.471.135.201.271.47.337.738 0 .203.067.471.067.94v3.566h-1.009v-3.496a3.1 3.1 0 0 0-.135-.943c-.066-.202-.2-.336-.403-.47-.201-.135-.404-.135-.673-.135-.403 0-.808.135-1.075.337-.338.268-.472.807-.472 1.547v3.16h-1.006z"/><path fill="none" stroke="#1A171B" stroke-width="2.712" d="M216.964 197.528c-28.381-63.759-35.376-106.398-19.839-128.39 17.89-25.222 42.303-32.014 65.707-23.809 27.508 9.685 40.219 37.999 27.171 83.8-6.657 23.336-17.351 45.192-26.027 67.86M32.485 197.932C4.102 134.175-2.892 91.468 12.712 69.542c17.821-25.222 42.234-32.013 65.639-23.81 27.509 9.686 40.22 37.933 27.173 83.8-6.658 23.338-17.353 45.195-26.029 67.861"/><path fill="none" stroke="#1A171B" stroke-width="1.019" d="M46.675 58.78c15.805-6.995 33.156-5.851 47.55 8.475 19.1 19.034 12.308 50.239-26.095 93.35 13.987 17.822 16.61 31.406-5.65 35.645M31.341 179.302c-.94-10.761 1.883-18.494 8.541-23.136"/><path fill="none" stroke="#1A171B" stroke-width=".678" stroke-dasharray="3.391,2.034" d="M26.296 162.286l56.563 23.203"/><path fill="none" stroke="#1A171B" stroke-width="1.019" d="M223.018 55.553c13.249-8.744 26.969-9.686 39.68-.605 12.31 8.674 18.091 22.261 17.353 38.47-.74 14.728-8.003 27.038-21.791 39.749-9.617 8.81-14.124 20.039-17.351 29.995 17.621-12.712 36.385 6.187 19.906 26.297"/><path fill="none" stroke="#1A171B" stroke-width=".678" stroke-dasharray="3.391,2.034" d="M262.43 155.561l-45.868 41.833"/><path fill="#1A171B" d="M3.161 215.484h.067c.605 0 1.144.136 1.614.471.538.269.875.672 1.144 1.212.268.536.403 1.142.403 1.814s-.136 1.279-.403 1.816a2.854 2.854 0 0 1-1.144 1.21 3.635 3.635 0 0 1-1.682.404v-.74c.673 0 1.211-.269 1.682-.74.404-.471.605-1.143.605-1.95 0-.537-.067-1.008-.269-1.411-.135-.471-.404-.741-.807-1.009a2.267 2.267 0 0 0-1.144-.338h-.066v-.739zM0 219.049c0-1.143.271-2.018.875-2.623.605-.605 1.345-.941 2.287-.941v.739c-.605.068-1.143.271-1.547.673-.472.403-.74 1.144-.74 2.152 0 .809.268 1.479.672 1.883.471.472 1.009.74 1.614.74v.74a3.037 3.037 0 0 1-1.681-.471c-.471-.27-.875-.673-1.076-1.21A3.66 3.66 0 0 1 0 219.049M10.56 220.528l.807.135c-.067.537-.271.941-.674 1.278-.335.336-.806.471-1.344.471-.607 0-1.144-.201-1.547-.672-.403-.404-.606-1.01-.606-1.817 0-.536.068-1.009.203-1.411.202-.404.471-.674.807-.874.403-.203.74-.271 1.144-.271.538 0 1.009.136 1.344.403.336.27.54.605.606 1.076l-.807.135a1.334 1.334 0 0 0-.403-.738 1.129 1.129 0 0 0-.673-.203c-.403 0-.74.135-1.01.404-.268.335-.402.807-.402 1.413 0 .671.135 1.142.402 1.411.203.336.54.472.943.472.336 0 .605-.136.804-.269.204-.202.406-.539.406-.943M15.267 220.528l.809.135c-.067.537-.338.941-.676 1.278-.402.336-.806.471-1.345.471-.672 0-1.208-.201-1.612-.672-.403-.404-.605-1.01-.605-1.817 0-.536.067-1.009.268-1.411.203-.404.403-.674.809-.874.336-.203.739-.271 1.141-.271.539 0 .942.136 1.279.403.338.27.539.605.674 1.076l-.808.135a1.327 1.327 0 0 0-.403-.738 1.35 1.35 0 0 0-.742-.203c-.401 0-.737.135-1.008.404-.2.335-.335.807-.335 1.413 0 .671.067 1.142.335 1.411.271.336.606.472 1.008.472.271 0 .539-.136.809-.269.202-.202.336-.539.402-.943M16.746 215.62h.876v.94h-.876v-.94zm0 1.815h.876v4.842h-.876v-4.842zM20.916 217.367h.068c.402 0 .806.067 1.076.271.335.269.604.537.739.94.136.403.269.807.269 1.279 0 .471-.133.94-.269 1.344a2.048 2.048 0 0 1-.805.874c-.338.202-.674.337-1.079.337v-.673c.336 0 .673-.133.874-.471.271-.337.405-.808.405-1.411 0-.605-.135-1.076-.405-1.413-.201-.27-.538-.471-.874-.471v-.606zm-2.085 6.792v-6.725h.742v.673c.199-.27.401-.47.604-.605.2-.067.47-.135.738-.135v.606c-.335 0-.671.201-.941.538-.268.27-.401.74-.401 1.411 0 .605.134 1.075.401 1.346.271.338.539.471.874.471h.067v.673a1.35 1.35 0 0 1-.738-.201 1.038 1.038 0 0 1-.537-.404v2.353h-.809zM27.238 222.277v-.671c-.403.536-.941.806-1.545.806-.338 0-.607-.067-.809-.135-.27-.135-.471-.27-.538-.471-.134-.135-.202-.335-.268-.605-.069-.136-.069-.403-.069-.74v-3.026h.808v2.69c0 .471.067.74.067.873.067.203.134.403.337.539.134.135.335.135.604.135.271 0 .471 0 .673-.135a.9.9 0 0 0 .47-.539c.136-.2.136-.537.136-.94v-2.623h.807v4.843h-.673zM31.004 221.537l.135.74c-.201.067-.403.067-.605.067-.336 0-.538 0-.739-.135a.82.82 0 0 1-.337-.336c-.067-.202-.067-.471-.067-1.009v-2.758h-.604v-.673h.604v-1.209l.808-.473v1.682h.807v.673h-.807v2.826c0 .2 0 .403.067.47 0 .068.068.068.136.134.065.067.133.067.268.067a.708.708 0 0 0 .334-.066"/><path fill="none" stroke="#1A171B" stroke-width=".586" d="M34.838 222.277v-6.657"/><path fill="#1A171B" d="M38.471 217.368c.672 0 1.209.201 1.612.605.403.471.674 1.074.674 1.815 0 .672-.136 1.143-.339 1.479-.132.403-.4.673-.807.874-.334.202-.737.27-1.141.27v-.673c.403 0 .736-.133 1.009-.471.269-.337.403-.808.403-1.413 0-.604-.135-1.074-.403-1.344-.272-.337-.605-.472-1.009-.472v-.67zm-2.287 2.487c0-.874.269-1.547.739-1.95.402-.403.942-.537 1.548-.537v.672c-.404 0-.741.135-1.011.472-.268.27-.402.74-.402 1.344 0 .673.135 1.076.402 1.413.27.338.606.471 1.011.471v.673c-.675 0-1.214-.202-1.682-.673-.404-.404-.605-1.077-.605-1.885M42.573 222.277l-1.48-4.843h.876l.738 2.825.271 1.009c.066 0 .135-.337.267-.94l.81-2.894h.808l.737 2.825.269.941.271-.941.807-2.825h.806l-1.546 4.843h-.808l-.807-2.893-.2-.807-.943 3.699h-.876zM51.72 220.73l.875.135a2.261 2.261 0 0 1-.742 1.143c-.336.27-.807.404-1.411.404v-.672c.335 0 .604-.069.808-.269a1.2 1.2 0 0 0 .47-.741m-1.278-3.363c.604 0 1.143.203 1.546.673.404.404.673 1.009.673 1.817 0 .065-.065.133-.065.2h-2.153v-.671h1.346c-.067-.405-.135-.674-.338-.875-.27-.337-.604-.472-1.008-.472v-.672zm0 5.045c-.741 0-1.279-.201-1.683-.672-.401-.404-.604-1.01-.604-1.817 0-.807.203-1.479.604-1.883.471-.47 1.01-.673 1.683-.673v.673c-.405 0-.741.135-.943.336-.269.271-.403.605-.469 1.011h1.412v.671H49.03c0 .539.133.941.403 1.278.268.269.604.404 1.009.404v.672zM53.602 222.277v-4.843h.742v.74c.2-.337.401-.537.537-.673a1.258 1.258 0 0 1 1.347.136l-.272.74a1.062 1.062 0 0 0-.604-.203.71.71 0 0 0-.471.203c-.136.066-.271.268-.271.403a2.472 2.472 0 0 0-.202 1.008v2.488h-.806zM61.135 221.537l.133.74c-.268.067-.469.067-.671.067-.27 0-.471 0-.673-.135a.806.806 0 0 1-.336-.336c-.066-.202-.135-.471-.135-1.009v-2.758h-.538v-.673h.538v-1.209l.874-.473v1.682h.808v.673h-.808V221.402l.135.134c.067.067.202.067.337.067a.72.72 0 0 0 .336-.066M61.942 222.277v-6.657h.808v2.42c.403-.47.874-.672 1.479-.672.337 0 .672.066.941.202.202.133.404.335.538.604.135.203.201.606.201 1.077v3.025h-.873v-3.025c0-.403-.067-.74-.27-.943-.135-.134-.403-.269-.741-.269-.268 0-.471.067-.673.201-.2.137-.403.271-.469.54a2.63 2.63 0 0 0-.135.873v2.623h-.806zM70.283 221.672c-.27.27-.608.471-.874.605-.135 0-.271.067-.404.067v-.605c.202 0 .337-.067.537-.202.271-.136.403-.336.539-.539.064-.2.135-.47.135-.806v-.337c-.271.135-.674.202-1.211.337v-.74c.537-.067.94-.135 1.211-.2v-.271c0-.336-.07-.537-.202-.673-.201-.201-.539-.269-.942-.269h-.066v-.672h.202c.4 0 .738 0 1.009.134.202.068.402.201.537.336.136.202.201.337.269.606v1.815c0 .806.067 1.277.067 1.479.068.202.136.403.203.538h-.81c-.135-.132-.2-.334-.2-.603m-1.279.673c-.201.067-.337.067-.471.067-.539 0-.942-.135-1.277-.404a1.367 1.367 0 0 1-.404-1.01c0-.2.067-.402.135-.604.135-.201.27-.403.471-.471.134-.134.334-.2.537-.269.2-.067.403-.135.739-.135l.271-.067v.74h-.134c-.337.067-.538.067-.74.136a.513.513 0 0 0-.27.268c-.069.136-.134.27-.134.402 0 .203.064.403.268.539.136.135.403.202.673.202h.337v.606zm0-4.305c-.403 0-.606.067-.81.201-.2.137-.334.337-.403.74l-.805-.133c.067-.337.2-.607.334-.875.203-.203.406-.336.742-.472a3.98 3.98 0 0 1 .941-.134v.673zM72.299 222.277v-4.843h.741v.74c.4-.537.874-.807 1.546-.807.336 0 .604 0 .807.134.27.136.473.269.537.403.136.202.203.403.269.606.067.134.067.402.067.806v2.96h-.805v-2.893c0-.337-.068-.604-.136-.807a.9.9 0 0 0-.336-.403 1.279 1.279 0 0 0-.537-.135c-.406 0-.674.135-.941.338-.27.268-.336.67-.336 1.276v2.623h-.876zM80.303 222.277v-4.17h-.741v-.673h.741v-.471c0-.337.066-.605.066-.74.134-.2.269-.403.471-.536.201-.137.471-.203.809-.203.2 0 .469.066.738.066l-.066.74c-.203 0-.336-.067-.539-.067-.2 0-.403.067-.471.203-.134.067-.2.268-.2.604v.403h.941v.673h-.941v4.17h-.808zM84.674 217.368c.672 0 1.21.201 1.614.605.471.471.672 1.074.672 1.815a3.85 3.85 0 0 1-.269 1.479 1.83 1.83 0 0 1-.875.874c-.336.202-.739.27-1.143.27v-.673c.403 0 .739-.133 1.009-.471.269-.337.403-.808.403-1.413 0-.604-.135-1.074-.403-1.344-.27-.337-.605-.472-1.009-.472v-.67zm-2.287 2.487c0-.874.271-1.547.739-1.95.472-.403.943-.537 1.548-.537v.672c-.404 0-.74.135-1.008.472-.271.27-.403.74-.403 1.344 0 .673.133 1.076.403 1.413.268.338.604.471 1.008.471v.673c-.673 0-1.211-.202-1.614-.673-.472-.404-.673-1.077-.673-1.885M87.903 222.277v-4.843h.739v.74c.202-.337.337-.537.538-.673.135-.067.337-.134.471-.134.337 0 .605.066.875.27l-.27.74a1.064 1.064 0 0 0-.605-.203.606.606 0 0 0-.471.203c-.136.066-.269.268-.336.403-.067.335-.135.604-.135 1.008v2.488h-.806zM94.36 220.73l.807.135a2.263 2.263 0 0 1-.739 1.143c-.338.27-.809.404-1.413.404v-.672h.067c.269 0 .537-.069.74-.269.201-.135.403-.405.538-.741m-1.346-3.363c.604 0 1.143.203 1.546.673.472.404.674 1.009.674 1.817v.2h-2.22v-.671h1.346c-.067-.405-.135-.674-.337-.875-.269-.337-.605-.472-1.009-.472v-.672zm0 5.045c-.74 0-1.279-.201-1.683-.672-.402-.404-.604-1.01-.604-1.817 0-.807.202-1.479.673-1.883.402-.47.941-.673 1.614-.673v.673c-.403 0-.673.135-.941.336-.271.271-.403.605-.471 1.011h1.412v.671h-1.412c0 .539.133.941.471 1.278.201.269.538.404.941.404v.672zM96.243 222.277v-6.657h.808v2.42c.336-.47.874-.672 1.411-.672.404 0 .674.066.942.202.267.133.471.335.604.604.067.203.133.606.133 1.077v3.025h-.805v-3.025c0-.403-.068-.74-.269-.943-.202-.134-.406-.269-.741-.269-.27 0-.473.067-.673.201-.268.137-.403.271-.47.54-.134.2-.134.471-.134.873v2.623h-.806zM104.717 220.73l.875.135a2.263 2.263 0 0 1-.743 1.143c-.403.27-.874.404-1.411.404h-.066v-.672h.066c.337 0 .537-.069.808-.269.2-.135.336-.405.471-.741m-1.345-3.363c.671 0 1.21.203 1.612.673.405.404.608 1.009.608 1.817v.2h-2.221v-.671h1.346a1.49 1.49 0 0 0-.271-.875c-.268-.337-.604-.472-1.074-.472v-.672zm0 5.045c-.673 0-1.211-.201-1.613-.672-.403-.404-.605-1.01-.605-1.817 0-.807.202-1.479.605-1.883.402-.47.94-.673 1.613-.673v.673a1.6 1.6 0 0 0-.94.336 1.367 1.367 0 0 0-.406 1.011h1.347v.671h-1.411c.064.539.2.941.471 1.278.268.269.536.404.94.404v.672zM109.761 221.672c-.338.27-.607.471-.875.605-.133 0-.271.067-.472.067v-.605c.271 0 .403-.067.605-.202.271-.136.403-.336.538-.539.069-.2.136-.47.136-.806v-.337c-.271.135-.674.202-1.279.337v-.74a10.818 10.818 0 0 0 1.279-.2v-.271c0-.336-.066-.537-.203-.673-.27-.201-.538-.269-.941-.269h-.135v-.672h.201c.472 0 .808 0 1.012.134.267.068.47.201.603.336.135.202.202.337.271.606v1.815c0 .806.067 1.277.067 1.479.066.202.134.403.2.538h-.874a1.33 1.33 0 0 1-.133-.603m-1.346.673c-.134.067-.27.067-.471.067-.47 0-.94-.135-1.211-.404-.27-.269-.402-.606-.402-1.01 0-.2.068-.402.133-.604.137-.201.27-.403.473-.471.133-.134.338-.2.538-.269.2-.067.403-.135.74-.135l.2-.067v.74h-.067c-.336.067-.604.067-.74.136a.52.52 0 0 0-.268.268c-.136.136-.136.27-.136.402 0 .203.07.403.271.539.133.135.403.202.671.202h.27v.606zm0-4.305c-.337 0-.604.067-.74.201-.2.137-.335.337-.4.74l-.811-.133c.067-.337.202-.607.34-.875.2-.203.4-.336.736-.472.271-.067.538-.134.875-.134v.673zM114.939 222.277v-.606c-.27.472-.74.741-1.278.741v-.672c.338 0 .673-.136.941-.472.202-.27.337-.74.337-1.346 0-.606-.135-1.144-.403-1.411-.202-.337-.537-.472-.875-.472v-.673c.202 0 .471.067.673.136.202.135.403.335.539.537v-2.422h.806v6.659h-.74zm-1.278.135h-.065c-.405 0-.741-.135-1.078-.338-.336-.2-.605-.47-.739-.874-.201-.402-.27-.807-.27-1.343 0-.471.068-.876.203-1.279.2-.403.402-.74.738-.94.337-.203.675-.271 1.078-.271h.133v.673h-.065c-.338 0-.674.135-.876.404-.27.335-.403.807-.403 1.413 0 .671.134 1.142.403 1.411.269.336.605.472.941.472v.672zM185.827 216.224c.605 0 1.209.136 1.681.471.469.27.875.674 1.145 1.211.267.539.402 1.143.402 1.817 0 .67-.136 1.276-.402 1.814-.27.538-.676.943-1.212 1.21-.473.271-1.008.404-1.613.404v-.738c.673 0 1.209-.271 1.681-.741.403-.471.606-1.142.606-1.949 0-.539-.07-1.076-.271-1.479-.2-.405-.47-.674-.808-.941a2.305 2.305 0 0 0-1.209-.338v-.741zm-3.161 3.565c0-1.143.269-2.017.874-2.624.605-.604 1.346-.941 2.287-.941v.74c-.608 0-1.145.269-1.617.673-.403.401-.67 1.143-.67 2.152 0 .808.202 1.412.67 1.883.406.471.943.741 1.617.741v.738c-.608 0-1.211-.134-1.682-.471-.472-.268-.876-.739-1.144-1.209-.203-.539-.335-1.078-.335-1.682M193.223 221.269l.81.067c-.068.605-.337 1.009-.676 1.347-.333.335-.804.469-1.345.469-.67 0-1.21-.201-1.613-.671-.403-.405-.604-1.01-.604-1.817 0-.537.133-1.008.268-1.411.2-.403.47-.674.807-.874.337-.203.741-.271 1.143-.271.541 0 .941.136 1.277.404.34.27.607.603.675 1.075l-.808.136a1.339 1.339 0 0 0-.403-.741 1.14 1.14 0 0 0-.672-.2c-.403 0-.739.133-1.011.403-.269.334-.401.806-.401 1.412 0 .672.133 1.143.334 1.413.271.335.607.471 1.009.471.338 0 .605-.136.809-.338.202-.133.335-.471.401-.874M197.931 221.269l.807.067c-.134.605-.336 1.009-.739 1.347-.335.335-.808.469-1.278.469-.673 0-1.209-.201-1.613-.671-.404-.405-.606-1.01-.606-1.817 0-.537.068-1.008.27-1.411.137-.403.403-.674.741-.874.403-.203.738-.271 1.209-.271s.943.136 1.278.404c.336.27.538.603.605 1.075l-.739.136c-.134-.338-.271-.538-.404-.741-.2-.133-.47-.2-.74-.2-.402 0-.738.133-1.008.403-.269.334-.403.806-.403 1.412 0 .672.135 1.143.403 1.413.27.335.537.471.94.471.338 0 .607-.136.808-.338.269-.133.403-.471.469-.874M199.411 216.359h.809v.94h-.809v-.94zm0 1.816h.809v4.843h-.809v-4.843zM203.514 218.108h.136c.402 0 .738.067 1.074.268.337.271.538.538.739.941.137.405.203.809.203 1.279 0 .47-.066.94-.27 1.345-.135.403-.405.672-.74.875-.336.201-.674.334-1.077.334h-.065v-.67c.403 0 .674-.136.941-.471.269-.338.403-.81.403-1.413 0-.675-.135-1.077-.403-1.413-.268-.337-.538-.471-.876-.471h-.065v-.604zm-2.018 6.792v-6.725h.741v.671c.201-.268.402-.471.604-.604.201-.067.404-.135.673-.135v.604c-.337 0-.605.201-.875.471-.269.336-.402.807-.402 1.479 0 .605.134 1.076.402 1.347.202.335.538.471.875.471v.67a1.31 1.31 0 0 1-.673-.2c-.202-.066-.403-.27-.537-.403v2.354h-.808zM209.834 223.018v-.673c-.336.539-.874.806-1.545.806-.27 0-.538-.067-.74-.2a.979.979 0 0 1-.605-.403c-.067-.134-.203-.337-.203-.605-.065-.135-.065-.404-.065-.741v-3.024h.807v2.689c0 .471 0 .739.067.874.066.202.135.403.336.537.135.068.337.137.605.137.27 0 .47-.068.673-.137.202-.134.402-.335.473-.537a3.21 3.21 0 0 0 .133-.943v-2.62h.807v4.842h-.743zM213.668 222.277l.135.74c-.268.066-.471.066-.605.066-.336 0-.538 0-.739-.136a.78.78 0 0 1-.335-.335c-.067-.201-.067-.471-.067-1.007v-2.758h-.607v-.674h.607v-1.211l.806-.47v1.681h.807v.674h-.807v3.294l.135.135c.068.067.201.067.336.067a.684.684 0 0 0 .334-.066M217.099 223.018v-6.658h.808v2.42c.335-.471.875-.671 1.412-.671.403 0 .673.067.941.2.27.135.473.338.605.538.067.27.135.673.135 1.144v3.027h-.808v-3.027c0-.403-.067-.739-.271-.941-.2-.135-.401-.27-.738-.27-.269 0-.472.067-.673.202-.27.135-.403.27-.469.538-.136.203-.136.471-.136.873v2.625h-.806zM222.278 216.359h.808v.94h-.808v-.94zm0 1.816h.808v4.843h-.808v-4.843zM226.179 224.295c.337 0 .604-.067.808-.201a.992.992 0 0 0 .403-.607c.067-.2.067-.536.067-1.073-.338.403-.741.604-1.278.604v-.673c.403 0 .74-.135.94-.403.271-.337.403-.741.403-1.411 0-.54-.133-1.011-.403-1.347-.271-.27-.537-.404-.94-.404v-.671c.537 0 1.008.2 1.344.671v-.604h.74v4.237c0 .737-.067 1.276-.202 1.544a1.327 1.327 0 0 1-.739.742c-.268.201-.673.269-1.143.269v-.673zm-2.017-.874l.807.135c.067.269.135.401.269.538.201.134.538.201.875.201h.067v.673l-.067.065c-.605 0-1.076-.133-1.412-.403-.339-.268-.539-.673-.539-1.209m2.017-.403h-.067c-.674 0-1.212-.201-1.547-.673-.336-.538-.539-1.076-.539-1.748 0-.471.068-.874.271-1.279.133-.403.403-.671.672-.941.335-.2.739-.268 1.144-.268h.067v.671a1.33 1.33 0 0 0-.942.404c-.269.336-.404.738-.404 1.347 0 .604.136 1.074.404 1.411.27.269.606.403.942.403v.673zM229.542 223.018v-6.658h.809v2.42c.403-.471.874-.671 1.478-.671.338 0 .673.067.942.2.2.135.403.338.538.538.133.27.201.673.201 1.144v3.027h-.874v-3.027c0-.403-.068-.739-.268-.941-.136-.135-.405-.27-.741-.27-.202 0-.471.067-.673.202-.2.135-.403.27-.471.538a2.68 2.68 0 0 0-.133.873v2.625h-.808zM238.015 221.471l.875.136a2.275 2.275 0 0 1-.739 1.142c-.338.27-.808.403-1.413.403h-.067v-.671h.067c.337 0 .605-.068.808-.271.201-.135.403-.403.469-.739m-1.345-3.364h.067c.605 0 1.144.201 1.546.605.403.472.606 1.076.606 1.884v.201h-2.22v-.672h1.413a2.146 2.146 0 0 0-.337-.874c-.269-.338-.606-.471-1.009-.471h-.067v-.673zm0 5.044c-.672 0-1.21-.269-1.614-.671-.403-.405-.604-1.01-.604-1.817s.201-1.479.604-1.882a2.183 2.183 0 0 1 1.614-.674v.674c-.336 0-.672.133-.874.333-.269.271-.403.608-.472 1.012h1.346v.672h-1.346c0 .538.136.941.403 1.277.271.27.606.405.942.405v.671zM239.898 223.018v-4.842h.741v.738c.2-.335.402-.538.537-.671.136-.135.336-.135.539-.135.268 0 .537.067.808.268l-.271.74a1.08 1.08 0 0 0-.604-.202.727.727 0 0 0-.472.202.691.691 0 0 0-.337.403c-.067.336-.133.606-.133 1.011v2.487h-.808zM247.43 222.277l.136.74c-.27.066-.471.066-.673.066-.269 0-.471 0-.674-.136a.802.802 0 0 1-.335-.335c-.067-.201-.135-.471-.135-1.007v-2.758h-.605v-.674h.605v-1.211l.875-.47v1.681h.806v.674h-.806v3.294c.065.067.065.067.136.135.067.067.2.067.268.067.135.002.268.002.402-.066M248.239 223.018v-6.658h.807v2.42c.403-.471.875-.671 1.479-.671.337 0 .673.067.875.2.268.135.47.338.605.538.133.27.133.673.133 1.144v3.027h-.806v-3.027c0-.403-.068-.739-.27-.941-.134-.135-.404-.27-.741-.27-.268 0-.471.067-.671.202-.202.135-.403.27-.471.538a2.644 2.644 0 0 0-.135.873v2.625h-.805zM256.578 222.413c-.335.268-.604.471-.875.604-.133 0-.268.065-.469.065v-.603c.269 0 .402-.067.604-.204.271-.134.405-.335.538-.537.068-.202.135-.471.135-.806v-.337c-.268.134-.673.199-1.276.337v-.741c.604-.066 1.009-.134 1.276-.202v-.268c0-.338-.066-.539-.2-.674-.271-.202-.54-.27-.943-.27h-.133v-.671h.201c.47 0 .808 0 1.009.135.269.065.47.2.605.336.134.134.201.335.268.604v1.815c0 .74.067 1.277.067 1.481.069.2.136.403.202.537h-.874a1.313 1.313 0 0 1-.135-.601m-1.344.67c-.135.067-.271.067-.471.067-.472 0-.875-.133-1.213-.403-.268-.267-.4-.604-.4-1.008 0-.202.065-.403.133-.605.134-.2.268-.403.47-.471.136-.133.338-.2.539-.271.201-.065.404-.133.741-.133l.201-.067v.741h-.067c-.338 0-.605.065-.741.133a.523.523 0 0 0-.268.27c-.135.136-.135.269-.135.403 0 .202.067.403.269.537.134.137.404.204.672.204h.271v.603zm0-4.304c-.338 0-.538.067-.741.202-.201.135-.335.336-.402.673l-.808-.067c.067-.336.202-.605.337-.874.2-.201.403-.337.739-.47.268-.067.537-.135.875-.135v.671zM258.596 223.018v-4.842h.74v.671c.402-.471.873-.738 1.546-.738.336 0 .538 0 .809.135.266.133.402.269.536.403.135.2.202.402.27.604.067.134.067.403.067.808v2.959h-.808v-2.959c0-.27-.065-.539-.135-.741a.888.888 0 0 0-.335-.403 1.284 1.284 0 0 0-.539-.135c-.402 0-.673.135-.94.337-.271.201-.403.673-.403 1.276v2.625h-.808zM266.599 223.018v-4.171h-.741v-.671h.741v-.471c0-.337 0-.606.066-.741.068-.2.271-.402.403-.538.202-.134.539-.2.876-.2.2 0 .471.066.739.066l-.068.739c-.2 0-.335-.067-.538-.067a.752.752 0 0 0-.536.203c-.069.065-.137.268-.137.605v.403h.943v.671h-.943v4.171h-.805zM270.971 218.107c.672 0 1.21.201 1.613.605.403.471.674 1.076.674 1.817 0 .67-.138 1.141-.336 1.478-.135.337-.405.673-.809.808a2.26 2.26 0 0 1-1.143.335v-.67c.402 0 .74-.136 1.008-.473.269-.337.405-.808.405-1.411 0-.606-.137-1.077-.405-1.346-.268-.338-.605-.472-1.008-.472v-.671zm-2.287 2.49c0-.875.27-1.548.74-1.95.402-.403.94-.539 1.547-.539v.672c-.403 0-.741.134-1.009.472-.269.269-.405.739-.405 1.346 0 .604.137 1.074.405 1.411.268.337.605.473 1.009.473v.67c-.674 0-1.212-.2-1.683-.67-.402-.408-.604-1.079-.604-1.885M274.199 223.018v-4.842h.741v.738c.2-.335.335-.538.536-.671.134-.135.335-.135.472-.135.269 0 .604.067.875.268l-.271.74a1.077 1.077 0 0 0-.604-.202.61.61 0 0 0-.472.202c-.201.067-.269.201-.336.403-.067.336-.133.606-.133 1.011v2.487h-.808zM280.588 221.471l.874.136a2.252 2.252 0 0 1-.741 1.142c-.335.27-.807.403-1.411.403v-.671c.337 0 .604-.068.808-.271.2-.135.403-.403.47-.739m-1.278-3.364c.604 0 1.144.201 1.548.605.403.472.671 1.076.671 1.884 0 .066-.066.135-.066.201h-2.152v-.672h1.345c-.066-.403-.134-.674-.337-.874-.268-.338-.604-.471-1.008-.471v-.673zm0 5.044c-.741 0-1.277-.269-1.683-.671-.4-.405-.604-1.01-.604-1.817s.203-1.479.604-1.882c.473-.473 1.011-.674 1.683-.674v.674c-.403 0-.741.133-.942.333-.268.271-.404.608-.47 1.012h1.412v.672h-1.412c0 .538.135.941.403 1.277.268.27.605.405 1.009.405v.671zM282.471 223.018v-6.658h.875v2.42c.336-.471.873-.671 1.411-.671.405 0 .673.067.943.2.268.135.471.338.604.538.067.27.135.673.135 1.144v3.027h-.806v-3.027c0-.403-.067-.739-.271-.941-.2-.135-.403-.27-.738-.27-.271 0-.472.067-.741.202-.201.135-.337.27-.404.538-.133.203-.133.471-.133.873v2.625h-.875zM291.012 221.471l.875.136a2.265 2.265 0 0 1-.741 1.142c-.402.27-.873.403-1.413.403h-.065v-.671h.065c.271 0 .54-.068.741-.271.27-.135.404-.403.538-.739m-1.345-3.364c.671 0 1.211.201 1.612.605.404.472.607 1.076.607 1.884v.201h-2.22v-.672h1.345c0-.403-.134-.674-.336-.874-.202-.338-.537-.471-1.009-.471v-.673zm0 5.044a2.23 2.23 0 0 1-1.614-.671c-.403-.405-.605-1.01-.605-1.817s.202-1.479.605-1.882c.402-.473.942-.674 1.614-.674v.674a1.61 1.61 0 0 0-.941.333 1.371 1.371 0 0 0-.404 1.012h1.346v.672h-1.411c.065.538.199.941.47 1.277.27.27.538.405.941.405v.671zM296.057 222.413c-.336.268-.605.471-.876.604-.133 0-.268.065-.47.065v-.603c.202 0 .404-.067.605-.204.268-.134.404-.335.537-.537.068-.202.136-.471.136-.806v-.337c-.269.134-.74.199-1.278.337v-.741c.605-.066 1.01-.134 1.278-.202v-.268c0-.338-.067-.539-.269-.674-.202-.202-.472-.27-.876-.27h-.134v-.671h.202c.47 0 .74 0 1.009.135.27.065.47.2.605.336.135.134.2.335.268.604v1.815c0 .74 0 1.277.07 1.481.065.2.133.403.2.537h-.874a1.343 1.343 0 0 1-.133-.601m-1.346.67c-.133.067-.27.067-.471.067-.536 0-.941-.133-1.21-.403-.27-.267-.404-.604-.404-1.008 0-.202.069-.403.135-.605.135-.2.27-.403.403-.471.202-.133.404-.2.605-.271.2-.065.403-.133.74-.133l.201-.067v.741h-.066c-.338 0-.605.065-.74.133s-.2.134-.336.27c-.069.136-.069.269-.069.403 0 .202.069.403.205.537.2.137.469.204.737.204h.27v.603zm0-4.304c-.337 0-.604.067-.741.202-.2.135-.335.336-.401.673l-.808-.067c.067-.336.202-.605.336-.874.202-.201.402-.337.74-.47.27-.067.537-.135.874-.135v.671zM301.236 223.018v-.605c-.336.471-.741.739-1.277.739v-.671c.335 0 .671-.136.874-.471.267-.271.403-.741.403-1.347 0-.673-.137-1.145-.403-1.411-.203-.338-.539-.471-.874-.471v-.674c.2 0 .47.067.671.136.203.135.403.335.54.538v-2.423h.806v6.659h-.74zm-1.278.133h-.069c-.403 0-.738-.134-1.074-.336-.338-.202-.606-.471-.74-.874-.201-.402-.271-.807-.271-1.345 0-.471.069-.874.203-1.279.201-.403.404-.739.74-.939.335-.203.671-.271 1.075-.271h.136v.674h-.069c-.336 0-.672.133-.874.403-.268.334-.403.806-.403 1.412 0 .672.136 1.075.403 1.413.271.335.538.471.943.471v.671zM304.329 128.928v-4.841h.741v.737c.401-.537.872-.806 1.546-.806.338 0 .605.068.808.134.269.135.471.268.604.405.067.2.201.403.201.603.067.202.067.471.067.809v2.959h-.807v-2.894c0-.335-.066-.604-.134-.738-.067-.201-.135-.335-.337-.403a.759.759 0 0 0-.536-.202 1.6 1.6 0 0 0-.943.337c-.202.269-.336.672-.336 1.276v2.624h-.874zM311.526 124.019c.671 0 1.209.201 1.613.672.471.404.674 1.009.674 1.748 0 .672-.134 1.144-.337 1.479-.134.403-.404.673-.809.874-.335.202-.738.27-1.142.27v-.673c.403 0 .74-.133 1.009-.471.27-.268.403-.74.403-1.411 0-.605-.134-1.076-.403-1.347-.269-.336-.605-.47-1.009-.47v-.671zm-2.287 2.488c0-.876.27-1.546.74-1.949.402-.338.94-.539 1.547-.539v.672c-.403 0-.741.134-1.009.47-.27.271-.405.741-.405 1.347 0 .671.136 1.144.405 1.411.268.338.605.471 1.009.471v.673c-.674 0-1.212-.2-1.615-.673-.47-.405-.672-1.009-.672-1.883M316.571 128.256l.065.671c-.202.068-.403.068-.605.068-.269 0-.536 0-.673-.136-.201-.067-.268-.201-.334-.335-.069-.136-.137-.471-.137-1.01v-2.755h-.605v-.675h.605v-1.143l.808-.538v1.681h.876v.675h-.876v2.823c0 .269.067.402.067.471 0 .066.067.135.136.135.065.067.133.067.268.067h.405zM320.538 127.18l.807.133c-.136.538-.336.941-.741 1.278-.336.337-.806.472-1.277.472-.672 0-1.21-.201-1.613-.673-.403-.403-.605-1.01-.605-1.817 0-.536.069-1.007.27-1.411.134-.401.403-.674.739-.874.404-.202.74-.269 1.21-.269.472 0 .941.134 1.277.403.338.269.54.604.605 1.144l-.738.067c-.135-.271-.271-.538-.403-.673-.202-.2-.471-.27-.741-.27-.401 0-.738.135-1.009.404-.267.335-.404.806-.404 1.412 0 .673.138 1.144.404 1.479.271.268.539.403.942.403.337 0 .605-.068.808-.27.266-.199.401-.535.469-.938M322.017 128.928v-6.658h.808v2.421c.403-.471.874-.672 1.479-.672.338 0 .673.068.94.201.269.134.403.338.539.604.134.203.2.606.2 1.077v3.026h-.873v-3.026c0-.403-.066-.741-.269-.874-.135-.203-.405-.337-.741-.337-.2 0-.471.067-.671.202-.202.135-.337.335-.473.538-.065.2-.133.471-.133.873v2.624h-.806z"/><path fill="none" stroke="#1A171B" stroke-width=".339" d="M302.647 126.171l-55.483 31.07"/><path fill-rule="evenodd" clip-rule="evenodd" fill="#1A171B" d="M245.682 157.981l7.129-.472c-2.151-1.344-3.495-3.161-4.102-5.783l-3.027 6.255z"/><path fill="none" stroke="#1A171B" stroke-width=".029" stroke-linecap="round" stroke-linejoin="round" d="M245.682 157.981l7.129-.472c-2.151-1.344-3.495-3.161-4.102-5.783l-3.027 6.255z"/></svg>