<svg version="1.1" xmlns="http://www.w3.org/2000/svg" x="0" y="0" width="325.987" height="294.806" viewBox="-23.14 -3.089 325.987 294.806" xml:space="preserve"><path fill="none" stroke="#231F20" stroke-miterlimit="10" stroke-dasharray="5,3" d="M-22.605 72.895l325.451.38"/><path fill="#BBBDBF" d="M109.447 74.417h10.96v13.244h-10.96z"/><path fill="none" stroke="#231F20" stroke-width=".5" stroke-miterlimit="10" d="M109.447 74.417h10.96v13.244h-10.96z"/><path fill="#FFF" d="M82.732 100.6l-6.089-27.172c10.352 0 20.854-1.295 31.129 0 1.903.229 3.35 2.587 3.35 4.415v7.763c0 1.219-1.6 2.437-2.894 2.513-10.806.379-18.95 4.566-25.496 12.481"/><path fill="none" stroke="#231F20" stroke-width="1.502" stroke-miterlimit="10" d="M76.644 73.428c10.352 0 20.854-1.295 31.129 0 1.903.229 3.35 2.587 3.35 4.415v7.763c0 1.219-1.6 2.437-2.894 2.513-10.808.381-18.952 4.566-25.497 12.481"/><path fill="#FFF" d="M146.361 100.828l6.09-27.172c-10.275 0-20.778-1.219-31.055 0-1.75.229-3.425 2.512-3.425 4.413v7.688c0 1.294 1.598 2.512 2.969 2.512 10.808.458 18.876 4.567 25.421 12.559"/><path fill="none" stroke="#231F20" stroke-width="1.502" stroke-miterlimit="10" d="M152.45 73.656c-10.275 0-20.778-1.219-31.055 0-1.75.229-3.425 2.512-3.425 4.413v7.688c0 1.294 1.598 2.512 2.969 2.512 10.809.457 18.875 4.565 25.421 12.56"/><path fill="#BBBDBF" d="M225.44 74.95h12.026v13.167H225.44z"/><path fill="none" stroke="#231F20" stroke-width=".5" stroke-miterlimit="10" d="M225.44 74.95h12.026v13.167H225.44z"/><path fill="#FFF" d="M198.726 101.057l-6.089-27.172c10.351 0 20.854-1.294 31.129 0 1.904.228 3.424 2.588 3.424 4.414v7.688c0 1.217-1.674 2.513-2.97 2.513-10.804.454-18.949 4.564-25.494 12.557"/><path fill="none" stroke="#231F20" stroke-width="1.502" stroke-miterlimit="10" d="M192.637 73.885c10.351 0 20.854-1.294 31.129 0 1.904.228 3.424 2.588 3.424 4.414v7.688c0 1.217-1.674 2.513-2.97 2.513-10.806.456-18.951 4.565-25.495 12.559"/><path fill="#FFF" d="M262.354 101.284l6.166-27.173c-10.351 0-20.854-1.216-31.129 0-1.75.153-3.424 2.513-3.424 4.339v7.765c0 1.217 1.598 2.436 2.97 2.512 10.803.379 18.872 4.566 25.417 12.557"/><path fill="none" stroke="#231F20" stroke-width="1.502" stroke-miterlimit="10" d="M268.52 74.112c-10.351 0-20.854-1.218-31.129 0-1.75.153-3.424 2.513-3.424 4.339v7.765c0 1.217 1.598 2.436 2.97 2.512 10.807.38 18.874 4.566 25.42 12.559"/><path fill="none" stroke="#231F20" stroke-width="4" stroke-miterlimit="10" d="M228.256 20.607c19.638-.229 35.85 15.526 36.153 35.164.229 19.712-15.526 35.924-35.164 36.229-19.712.229-35.925-15.526-36.229-35.239-.227-19.715 15.527-35.85 35.24-36.154zM114.318 10.94c19.713-.304 35.85 15.451 36.076 35.163.307 19.714-15.374 35.85-35.087 36.153-19.712.305-35.924-15.451-36.152-35.163-.304-19.712 15.45-35.924 35.163-36.153zM26.715-1.085c19.712-.305 35.848 15.451 36.152 35.163.305 19.713-15.45 35.925-35.163 36.152C7.991 70.536-8.22 54.781-8.449 35.068-8.753 15.355 7.002-.856 26.715-1.085z"/><path fill="#D0D2D3" d="M21.234 73.504h9.209V87.28h-9.209z"/><path fill="none" stroke="#231F20" stroke-width=".5" stroke-miterlimit="10" d="M21.234 73.504h9.209V87.28h-9.209z"/><path fill="#FFF" d="M-5.48 100.219l-6.165-27.172c10.352 0 20.854-1.294 31.13 0 1.979.229 3.426 2.589 3.426 4.338v7.766c0 1.217-1.6 2.437-2.969 2.513-10.809.377-18.877 4.564-25.422 12.555"/><path fill="none" stroke="#231F20" stroke-width="1.502" stroke-miterlimit="10" d="M-11.646 73.047c10.352 0 20.854-1.294 31.13 0 1.979.229 3.426 2.589 3.426 4.338v7.766c0 1.217-1.6 2.437-2.969 2.513-10.808.377-18.876 4.564-25.421 12.556"/><path fill="#FFF" d="M58.148 100.448L64.237 73.2c-10.351 0-20.777-1.218-31.13 0-1.75.229-3.424 2.587-3.424 4.414v7.765c0 1.217 1.674 2.435 2.968 2.511 10.808.38 18.952 4.565 25.497 12.558"/><path fill="none" stroke="#231F20" stroke-width="1.502" stroke-miterlimit="10" d="M64.237 73.2c-10.351 0-20.777-1.218-31.13 0-1.75.229-3.424 2.587-3.424 4.414v7.765c0 1.217 1.674 2.435 2.968 2.511 10.809.38 18.951 4.567 25.497 12.56"/><path fill="#231F20" d="M282.453 33.853c-7.52 8.404-23.089 24.806-13.645 36.853.814 1.039 4.077 4.948 5.663 4.055 3.093-1.742 5.359-4.101 7.182-7.136 1.146-1.907 1.47-4.523 3.166-6.071 2.033-1.854 3.917-3.866 5.733-5.932 2.961-3.368 5.491-7.095 7.744-10.964.434-.746-.611-1.6-1.103-.758-3.859 6.635-8.697 12.414-14.361 17.582-.752.688-.888 2.438-1.306 3.441-.652 1.566-1.577 2.999-2.6 4.346-.951 1.254-2.17 2.272-3.434 3.193-2.46 1.793-5.158-1.861-6.312-3.622-3.369-5.137-1.772-10.691.767-15.809 3.33-6.708 8.446-12.576 13.405-18.118.553-.615-.261-1.772-.899-1.06z"/><g fill="#231F20"><path d="M292.008 33.445l-10.73 18.039c-.317.536.49 1.061.82.506l10.73-18.039c.318-.537-.49-1.061-.82-.506zM283.335 61.605c-5.689-2.521-10.393 7.53-12.257 11.113-.287.551.521 1.079.819.505 1.693-3.252 6.091-12.911 11.186-10.654.568.252.802-.72.252-.964z"/></g><path fill="#231F20" d="M280.24 54.172l1.218-9.21c1.445 2.437 3.35 3.729 6.242 3.808l-7.46 5.402z"/><path fill="none" stroke="#231F20" stroke-width=".046" stroke-linecap="round" stroke-linejoin="round" stroke-miterlimit="10" d="M280.24 54.172l1.218-9.21c1.445 2.437 3.35 3.729 6.242 3.808l-7.46 5.402z"/><path fill="#231F20" d="M174.377 34.38c7.546 8.436 21.579 22.818 13.6 34.764-.622.932-3.433 4.189-4.988 3.323-1.354-.754-2.505-1.827-3.563-2.942-1.146-1.208-2-2.668-2.782-4.125-.629-1.172-.949-3.654-1.82-4.449-5.654-5.158-10.521-10.898-14.285-17.582-.479-.851-1.524.006-1.103.757a70.61 70.61 0 0 0 6.839 10.001c1.705 2.089 3.593 4.022 5.519 5.908 1.971 1.929 2.604 3.728 3.751 6.123 1.36 2.847 3.467 5.24 6.001 7.091 2.665 1.946 4.598-.035 6.64-2.171 11.169-11.681-5.414-29.385-12.901-37.758-.643-.713-1.458.445-.908 1.06z"/><g fill="#231F20"><path d="M164.827 33.417l10.808 18.037c.332.554 1.141.029.82-.505-3.604-6.013-7.205-12.025-10.809-18.037-.331-.553-1.139-.03-.819.505zM174.762 62.062c4.867-2.324 9.474 7.609 11.071 10.628.303.572 1.11.044.819-.505-1.906-3.604-6.671-13.708-12.372-10.986-.549.263-.089 1.135.482.863z"/></g><path fill="#231F20" d="M177.414 53.64l-1.219-9.21c-1.444 2.437-3.271 3.729-6.24 3.807l7.459 5.403z"/><path fill="none" stroke="#231F20" stroke-width=".046" stroke-linecap="round" stroke-linejoin="round" stroke-miterlimit="10" d="M177.414 53.64l-1.219-9.21c-1.444 2.437-3.271 3.729-6.24 3.807l7.459 5.403z"/><path fill="#231F20" d="M19.637 106.612l.913-.075c.076.458.229.762.532 1.066.229.229.608.305.914.305.457 0 .837-.153 1.142-.458.305-.382.456-.838.456-1.369 0-.533-.076-.914-.38-1.22-.304-.304-.686-.455-1.217-.455-.306 0-.533 0-.763.151a1.395 1.395 0 0 0-.607.533l-.837-.075.685-3.883h3.806v.838h-3.045l-.38 2.055c.457-.306.913-.457 1.446-.457.609 0 1.218.229 1.598.685.457.458.686 1.064.686 1.75s-.152 1.296-.532 1.751c-.533.608-1.218.914-2.055.914-.687 0-1.219-.154-1.676-.533-.382-.381-.686-.913-.686-1.523M25.04 108.667l2.207-7.764h.762l-2.207 7.764zM28.389 106.612l.99-.075c.077.458.228.762.533 1.066.229.229.532.305.914.305.457 0 .837-.153 1.142-.458.304-.382.456-.838.456-1.369 0-.533-.152-.914-.456-1.22-.229-.304-.686-.455-1.142-.455-.305 0-.533 0-.838.151a1.742 1.742 0 0 0-.531.533l-.838-.075.686-3.883h3.805v.838h-3.044l-.38 2.055c.457-.306.913-.457 1.37-.457.686 0 1.218.229 1.675.685.457.458.686 1.064.686 1.75s-.152 1.296-.608 1.751c-.457.608-1.142.914-1.979.914-.686 0-1.219-.154-1.675-.533-.462-.381-.69-.913-.766-1.523M108.078 106.765h-2.056v-.838l2.056-2.969v1.218l-1.143 1.749h1.143v.84zm1.217 1.826v-1.826h-1.217v-.838h1.217v-3.424l-1.217 1.674v-1.218l1.369-1.979h.762v4.947h.99v.838h-.99v1.827l-.914-.001zM111.73 108.667l2.208-7.764h.761l-2.207 7.764zM115.079 106.612l.989-.075c.076.458.229.762.533 1.066.229.229.533.305.913.305.457 0 .837-.153 1.142-.458.306-.382.457-.838.457-1.369 0-.533-.151-.914-.381-1.22-.304-.304-.685-.455-1.217-.455-.305 0-.533 0-.761.151a1.404 1.404 0 0 0-.608.533l-.838-.075.687-3.883h3.806v.838h-3.045l-.381 2.055c.457-.306.914-.457 1.371-.457.685 0 1.218.229 1.674.685.457.458.685 1.064.685 1.75s-.151 1.296-.608 1.751c-.457.608-1.143.914-1.979.914-.685 0-1.218-.154-1.674-.533-.46-.381-.688-.913-.765-1.523M224.527 106.536l.913-.076c.152.534.307.914.532 1.142.306.229.609.307.99.307s.761-.153 1.064-.458c.305-.306.457-.686.457-1.065 0-.457-.151-.837-.38-1.066a1.509 1.509 0 0 0-1.066-.457c-.228 0-.456.076-.684.154l.076-.838h.152c.456 0 .762-.076 1.064-.305.38-.229.532-.532.532-.99 0-.304-.152-.609-.379-.837-.229-.229-.533-.305-.913-.305-.306 0-.609.075-.915.305-.227.228-.379.607-.456 1.064l-.912-.151c.152-.687.38-1.143.76-1.446.458-.379.914-.533 1.522-.533.381 0 .761.077 1.142.229.382.229.609.458.837.762.153.304.229.609.229.99 0 .305-.076.608-.229.837-.228.305-.455.533-.837.686.458.074.837.305 1.066.607.228.306.38.763.38 1.218 0 .687-.229 1.218-.686 1.675a2.733 2.733 0 0 1-1.826.687c-.685 0-1.217-.154-1.674-.533-.455-.461-.682-.917-.759-1.603M229.931 108.667l2.207-7.764h.762l-2.208 7.764zM233.356 106.612l.988-.151c0 .532.229.838.459 1.142.304.229.606.304.991.304.456 0 .76-.151 1.142-.456.304-.381.456-.838.456-1.37s-.152-.913-.456-1.218c-.306-.38-.686-.532-1.219-.532-.306 0-.532.075-.762.228-.229.154-.457.306-.608.535l-.837-.076.761-3.882h3.73v.836h-3.046l-.38 2.055c.456-.304.912-.456 1.444-.456.609 0 1.219.229 1.675.684.457.459.686.991.686 1.751a2.72 2.72 0 0 1-.608 1.751c-.532.608-1.142.912-1.978.912-.687 0-1.296-.152-1.751-.532-.383-.383-.61-.915-.687-1.525M208.918 5.871c-1.805 6.826-3.874 13.614-7.091 19.924-2.385 4.676-6.044 9.762-11.645 10.464a16.624 16.624 0 0 1-5.018-.116c-3.362-.596-3.607-2.224-3.196-5.206.257-1.864 1.037-3.621 1.868-5.289.708-1.424 2.786-3.04 3.02-4.538 1.184-7.566 3.311-14.823 6.786-21.665.389-.765-.658-1.628-1.102-.757a71.877 71.877 0 0 0-4.355 10.647c-.772 2.409-1.347 4.877-1.86 7.353-.572 2.747-1.468 4.776-2.968 7.112-2.175 3.386-3.077 7.362-2.775 11.344.155 2.061 5.107 2.629 6.578 2.752 15.076 1.256 20.146-20.881 22.987-31.627.233-.875-.98-1.34-1.229-.398z"/><g fill="#231F20"><path d="M204.404-2.555l-9.134 18.876c-.27.558.538 1.088.82.506l9.134-18.876c.27-.558-.537-1.089-.82-.506zM186.004 21.495c4.56 2.906-1.068 12.001-2.758 15.069-.302.545.508 1.072.819.505 1.994-3.62 7.725-13.055 2.416-16.438-.535-.341-.991.537-.477.864z"/></g><path fill="#231F20" d="M194.463 19.085l7.003-6.015c-2.816.076-4.87-.761-6.622-3.118l-.381 9.133z"/><path fill="none" stroke="#231F20" stroke-width=".046" stroke-linecap="round" stroke-linejoin="round" stroke-miterlimit="10" d="M194.463 19.085l7.003-6.015c-2.816.076-4.87-.761-6.622-3.118l-.381 9.133z"/><path fill="#231F20" d="M246.822 7.259c3.046 11.563 7.322 30.463 21.838 31.624 1.649.132 7.203-.33 7.705-2.474.807-3.447-.625-7.424-2.133-10.453-1.208-2.428-2.854-4.104-3.337-6.908-.438-2.538-1.062-5.039-1.762-7.515-1.151-4.077-2.788-8.009-4.705-11.779-.443-.872-1.49-.008-1.102.757 3.265 6.42 5.351 13.197 6.57 20.286.313 1.825.089 1.343 1.233 2.799 1.707 2.17 2.894 4.665 3.638 7.311.332 1.177 1.183 4.317-.197 5.209-2.081 1.345-4.751 1.359-7.117 1.171-5.706-.457-9.208-4.953-11.851-9.611-3.636-6.413-5.688-13.731-7.552-20.814-.245-.944-1.458-.48-1.228.397z"/><g fill="#231F20"><path d="M251.746-.984l9.133 18.875c.282.583 1.09.052.82-.505l-9.134-18.875c-.281-.582-1.088-.052-.819.505zM270.562 21.698c-5.34 3.342.362 12.739 2.343 16.362.312.568 1.119.041.82-.505-1.688-3.086-7.28-12.118-2.683-14.995.517-.323.061-1.201-.48-.862z"/></g><path fill="#231F20" d="M262.507 20.15l-7.002-6.014c2.814.075 4.948-.762 6.622-3.119l.38 9.133z"/><path fill="none" stroke="#231F20" stroke-width=".046" stroke-linecap="round" stroke-linejoin="round" stroke-miterlimit="10" d="M262.507 20.15l-7.002-6.014c2.814.075 4.948-.762 6.622-3.119l.38 9.133z"/><path fill="#BBBDBF" d="M32.271 214.615H42.7v13.242H32.271z"/><path fill="none" stroke="#231F20" stroke-width=".5" stroke-miterlimit="10" d="M32.271 214.615H42.7v13.242H32.271z"/><path fill="#FFF" d="M5.556 240.796l-6.165-27.171c10.428 0 20.931-1.296 31.206 0 1.903.229 3.349 2.587 3.349 4.414v7.687c0 1.218-1.598 2.511-2.892 2.511-10.809.457-18.952 4.568-25.498 12.559M69.185 241.024l6.165-27.171c-10.352 0-20.854-1.219-31.129 0-1.75.151-3.425 2.512-3.425 4.338v7.765c0 1.217 1.598 2.437 2.968 2.513 10.807.378 18.875 4.563 25.421 12.555"/><path fill="none" stroke="#231F20" stroke-width="1.502" stroke-miterlimit="10" d="M75.35 213.854c-10.352 0-20.854-1.219-31.129 0-1.75.151-3.425 2.512-3.425 4.338v7.765c0 1.217 1.598 2.437 2.968 2.513 10.808.379 18.875 4.564 25.421 12.558M-.609 213.625c10.428 0 20.931-1.296 31.206 0 1.903.229 3.349 2.587 3.349 4.414v7.687c0 1.218-1.598 2.511-2.892 2.511-10.808.458-18.951 4.567-25.497 12.561"/><path fill="#BBBDBF" d="M136.01 214.842h10.808v12.711H136.01z"/><path fill="none" stroke="#231F20" stroke-width=".5" stroke-miterlimit="10" d="M136.01 214.842h10.808v12.711H136.01z"/><path fill="#FFF" d="M109.295 240.492l-6.089-27.174c10.351 0 20.854-1.295 31.13 0 1.901.229 3.425 2.588 3.425 4.415v7.687c0 1.219-1.675 2.513-2.968 2.513-10.809.458-18.876 4.567-25.498 12.559"/><path fill="none" stroke="#231F20" stroke-width="1.502" stroke-miterlimit="10" d="M103.206 213.319c10.351 0 20.854-1.295 31.13 0 1.901.229 3.425 2.588 3.425 4.415v7.687c0 1.219-1.675 2.513-2.968 2.513-10.809.458-18.875 4.566-25.498 12.561"/><path fill="#FFF" d="M172.924 240.721l6.089-27.172c-10.351 0-20.854-1.219-31.053 0-1.75.152-3.425 2.512-3.425 4.338v7.765c0 1.217 1.674 2.437 2.969 2.512 10.73.378 18.799 4.565 25.42 12.557"/><path fill="none" stroke="#231F20" stroke-width="1.502" stroke-miterlimit="10" d="M179.013 213.549c-10.351 0-20.854-1.219-31.053 0-1.75.152-3.425 2.512-3.425 4.338v7.765c0 1.217 1.674 2.437 2.969 2.512 10.729.38 18.799 4.566 25.421 12.56"/><path fill="#BBBDBF" d="M234.954 214.995h11.035v12.861h-11.035z"/><path fill="none" stroke="#231F20" stroke-width=".5" stroke-miterlimit="10" d="M234.954 214.995h11.035v12.861h-11.035z"/><path fill="#FFF" d="M208.24 240.796l-6.165-27.171c10.427 0 20.854-1.296 31.129 0 1.979.229 3.426 2.587 3.426 4.414v7.687c0 1.295-1.601 2.511-2.969 2.511-10.807.457-18.876 4.568-25.421 12.559"/><path fill="none" stroke="#231F20" stroke-width="1.502" stroke-miterlimit="10" d="M202.074 213.625c10.427 0 20.854-1.296 31.129 0 1.979.229 3.426 2.587 3.426 4.414v7.687c0 1.295-1.601 2.511-2.969 2.511-10.81.458-18.875 4.567-25.423 12.561"/><path fill="#FFF" d="M271.868 241.024l6.165-27.171c-10.428 0-20.854-1.219-31.13 0-1.826.229-3.424 2.512-3.424 4.338v7.765c0 1.217 1.599 2.437 2.971 2.513 10.804.378 18.873 4.563 25.418 12.555"/><path fill="none" stroke="#231F20" stroke-width="1.502" stroke-miterlimit="10" d="M278.033 213.854c-10.428 0-20.854-1.219-31.13 0-1.826.229-3.424 2.512-3.424 4.338v7.765c0 1.217 1.599 2.437 2.971 2.513 10.806.379 18.874 4.564 25.42 12.558"/><path fill="none" stroke="#231F20" stroke-width="4" stroke-miterlimit="10" d="M140.577 196.728c19.637-.304 35.849 15.375 36.074 35.087.307 19.712-15.448 35.925-35.086 36.152-19.713.305-35.925-15.45-36.152-35.163-.304-19.712 15.451-35.848 35.164-36.076zm-104.044-9.666c19.712-.304 35.924 15.449 36.152 35.086.304 19.714-15.451 35.85-35.164 36.153S1.598 242.85 1.369 223.137c-.304-19.635 15.451-35.847 35.164-36.075z"/><path fill="#231F20" d="M233.433 287.909c0-.913.076-1.676.304-2.208.152-.532.457-.912.763-1.219.38-.304.837-.456 1.369-.456v.763c-.382 0-.761.151-.989.532-.304.457-.456 1.295-.456 2.588 0 1.218.075 2.055.379 2.436.305.458.684.608 1.066.608v.763c-.685 0-1.296-.229-1.676-.763-.533-.608-.76-1.675-.76-3.044m2.434-3.882c.458 0 .762.076 1.065.229s.608.381.76.686c.23.305.383.685.533 1.142.076.457.154 1.065.154 1.827 0 .837-.076 1.598-.305 2.133-.152.532-.457.988-.837 1.216-.304.305-.763.458-1.37.458v-.762c.458 0 .837-.152 1.142-.609.229-.38.38-1.217.38-2.436 0-1.294-.153-2.132-.38-2.513-.305-.381-.684-.607-1.142-.607v-.764zM238.836 291.714l2.207-7.763h.762l-2.207 7.763zM242.261 289.66l.989-.153c.076.532.229.836.458 1.142.305.229.608.305.99.305.456 0 .837-.151 1.143-.456.304-.381.456-.838.456-1.37 0-.534-.152-.914-.456-1.218-.306-.38-.687-.533-1.143-.533-.306 0-.608.075-.838.229-.228.152-.457.306-.608.532l-.836-.074.761-3.884h3.729v.839h-3.045l-.38 2.054c.456-.305.912-.455 1.445-.455.608 0 1.218.229 1.674.684.458.458.687.991.687 1.751 0 .686-.229 1.294-.608 1.75-.533.609-1.143.913-1.979.913-.687 0-1.296-.153-1.675-.532-.46-.382-.687-.915-.764-1.524"/><path fill="none" stroke="#231F20" stroke-width="4" stroke-miterlimit="10" d="M239.521 206.698c19.713-.229 35.925 15.449 36.152 35.164.305 19.712-15.45 35.85-35.164 36.151-19.712.229-35.848-15.524-36.151-35.164-.304-19.71 15.45-35.846 35.163-36.151z"/><path fill="none" stroke="#231F20" stroke-miterlimit="10" stroke-dasharray="5,3" d="M-23.139 213.092l325.452.381"/><path fill="#231F20" d="M34.174 272.077v.911h-4.948c0-.228 0-.455.077-.683.152-.305.304-.686.608-.991.305-.304.685-.684 1.218-1.14.837-.687 1.37-1.219 1.674-1.602.304-.38.456-.761.456-1.142 0-.38-.152-.684-.38-.912-.305-.229-.609-.38-1.065-.38-.457 0-.837.152-1.065.38-.305.303-.38.685-.38 1.143l-.99-.076c.077-.764.305-1.295.761-1.675.381-.381.99-.533 1.675-.533.762 0 1.293.229 1.75.608.457.381.609.913.609 1.521 0 .305-.077.533-.152.838-.151.305-.381.608-.608.913-.306.38-.762.836-1.445 1.37-.533.456-.914.761-1.066.914-.151.228-.304.379-.38.532h3.653v.004zM34.782 273.067l2.208-7.763h.685l-2.132 7.763zM38.131 271.012l.99-.075c.075.456.229.837.532 1.065.229.228.533.305.913.305.457 0 .838-.153 1.143-.457.304-.381.457-.838.457-1.371 0-.532-.152-.912-.457-1.217-.306-.305-.686-.457-1.143-.457a2.72 2.72 0 0 0-.837.152c-.228.152-.38.305-.533.532l-.913-.075.762-3.882h3.729v.837h-2.968l-.457 2.056a2.69 2.69 0 0 1 1.446-.458c.685 0 1.217.229 1.674.686.456.456.685 1.064.685 1.75 0 .685-.229 1.294-.608 1.749-.457.609-1.143.914-1.979.914-.685 0-1.217-.151-1.674-.532-.457-.383-.686-.913-.762-1.522M135.706 281.896h-.913v-5.937a2.71 2.71 0 0 1-.914.606c-.305.229-.686.38-.913.534v-.914a7.11 7.11 0 0 0 1.37-.913c.38-.305.608-.685.761-.988h.608l.001 7.612zM137.685 282.049l2.207-7.84h.685l-2.131 7.84zM141.033 279.916l.988-.075c.076.458.229.838.533 1.064.23.229.533.382.915.382.456 0 .836-.229 1.142-.532.305-.381.457-.762.457-1.371 0-.532-.152-.912-.457-1.217a1.548 1.548 0 0 0-1.142-.458 2.77 2.77 0 0 0-.838.152c-.229.152-.38.381-.533.532l-.912-.076.762-3.881h3.729v.838h-2.969l-.457 2.056a2.676 2.676 0 0 1 1.444-.457c.686 0 1.218.229 1.675.684.458.458.685 1.065.685 1.751 0 .685-.228 1.293-.609 1.827-.455.607-1.141.912-1.977.912a2.51 2.51 0 0 1-1.674-.608c-.457-.38-.685-.914-.762-1.523M17.728 172.706c-1.804 6.825-3.875 13.614-7.091 19.924-2.384 4.675-6.044 9.761-11.643 10.463a16.924 16.924 0 0 1-5.019-.105c-3.373-.579-3.607-2.152-3.197-5.155.258-1.878 1.037-3.648 1.868-5.33.708-1.434 2.785-3.052 3.021-4.555 1.185-7.561 3.386-14.763 6.861-21.589.391-.766-.656-1.629-1.101-.758a74.118 74.118 0 0 0-4.396 10.606c-.787 2.396-1.37 4.855-1.893 7.321-.581 2.744-1.477 4.778-2.972 7.117-2.176 3.405-3.078 7.412-2.776 11.409.154 2.028 5.133 2.561 6.578 2.676 15.085 1.219 20.14-20.851 22.988-31.627.233-.874-.979-1.339-1.228-.397z"/><g fill="#231F20"><path d="M13.214 164.281l-9.059 18.951c-.267.559.541 1.09.82.504l9.059-18.951c.267-.557-.541-1.089-.82-.504zM-5.188 188.331c4.531 2.994-1.037 11.943-2.758 15.068-.3.545.508 1.071.82.504 2.033-3.689 7.684-12.955 2.417-16.437-.53-.349-.986.53-.479.865z"/></g><path fill="#231F20" d="M3.272 185.92l7.002-6.013c-2.815.151-4.872-.762-6.622-3.121l-.38 9.134z"/><path fill="none" stroke="#231F20" stroke-width=".046" stroke-linecap="round" stroke-linejoin="round" stroke-miterlimit="10" d="M3.272 185.92l7.002-6.013c-2.815.151-4.872-.762-6.622-3.121l-.38 9.134z"/><path fill="#231F20" d="M55.631 174.171c3.042 11.508 7.361 30.476 21.838 31.624 1.684.134 7.272-.375 7.781-2.55.8-3.421-.708-7.457-2.205-10.452-1.208-2.418-2.856-4.095-3.34-6.889-.439-2.533-1.064-5.029-1.763-7.503-1.153-4.087-2.786-8.03-4.707-11.812-.441-.871-1.488-.008-1.101.758 3.262 6.421 5.344 13.21 6.572 20.297.313 1.813.093 1.337 1.233 2.788 1.708 2.172 2.898 4.668 3.655 7.312.342 1.19 1.226 4.321-.165 5.233-2.098 1.376-4.772 1.413-7.169 1.224-5.691-.451-9.224-5.04-11.849-9.668-3.629-6.398-5.687-13.693-7.554-20.76-.246-.943-1.458-.478-1.226.398z"/><g fill="#231F20"><path d="M60.554 165.851l9.133 18.876c.282.583 1.09.053.82-.504l-9.133-18.876c-.282-.583-1.089-.053-.82.504zM79.372 188.533c-5.373 3.348.426 12.822 2.417 16.437.312.567 1.121.041.819-.504-1.689-3.068-7.375-12.192-2.758-15.069.519-.323.062-1.201-.478-.864z"/></g><path fill="#231F20" d="M71.315 186.986l-7.002-6.014c2.816.076 4.947-.761 6.622-3.12l.38 9.134z"/><path fill="none" stroke="#231F20" stroke-width=".046" stroke-linecap="round" stroke-linejoin="round" stroke-miterlimit="10" d="M71.315 186.986l-7.002-6.014c2.816.076 4.947-.761 6.622-3.12l.38 9.134z"/></svg>