<svg version="1.1" xmlns="http://www.w3.org/2000/svg" x="0" y="0" width="329.984" height="135.764" viewBox="0 0 329.984 135.764" xml:space="preserve"><path fill="none" stroke="#000" stroke-width="1.502" d="M218.874 105.413c.708-21.455 2.004-42.852 2.183-64.307.06-8.725 3.24-13.911 11.259-13.438 9.018.53 12.79 7.015 12.201 17.389-1.12 20.101-1.771 40.198-2.652 60.356M267.031 105.59c5.835-20.63 12.438-42.025 17.683-62.833 2.183-8.487 6.543-12.731 14.146-10.374 8.664 2.652 10.786 9.845 7.78 19.746-5.896 19.273-9.138 34.011-14.854 53.345M67.095 105.355c6.307-16.444 12.85-33.187 18.565-49.631 2.829-8.252 7.544-12.143 14.972-9.137 8.37 3.36 9.902 10.729 6.014 20.336-5.601 13.97-9.549 25.582-14.205 38.432M14.577 105.355c1.296-16.857 2.711-34.069 3.418-50.69.413-8.725 3.772-13.793 11.729-13.085 9.019.824 12.555 7.427 11.61 17.801-1.53 16.858-1.886 30.18-2.888 45.977"/><path fill="none" stroke="#000" stroke-width="1" d="M240.624 35.742c-5.479-5.306-10.964-5.363-16.387-.235-2.239 9.077-1.649 17.802 7.074 20.276 6.307 1.828 10.609-4.185 9.313-20.041zM305.048 42.167c-4.064-6.425-9.369-7.84-15.854-4.126-4.303 8.252-5.837 16.857 2.003 21.396 5.718 3.301 11.317-1.531 13.851-17.27zM105.938 56.903c-3.537-6.777-8.665-8.604-15.502-5.481-4.952 7.839-7.191 16.327.294 21.516 5.365 3.711 11.377-.592 15.208-16.035zM37.741 49.948c-5.246-5.481-10.728-5.776-16.387-.825-2.477 8.959-2.239 17.742 6.425 20.57 6.19 2.005 10.728-3.831 9.962-19.745z"/><path fill="none" stroke="#000" stroke-width="4" d="M220.819.023c-.236 20.688-.825 35.837-2.477 42.853-1.711 7.19-3.948 1.649-4.655 0-2.947-7.604-1.71-16.092-2.416-24.462-.648-7.486-5.07-9.372-8.548-4.42-2.652 3.713-1.001 7.839-.53 12.438 2.829 26.348 2.476 52.812 3.714 79.22M311.768 9.808c-.473 11.376-.886 22.163-1.181 33.539-.354 11.258 1.476 11.905 3.893 8.782 2.534-3.301 4.716-10.196 6.365-18.803 1.825-9.373 3.596-14.5 5.836-14.441 2.062.06 1.296 5.776.295 16.622-2.417 24.874-5.719 47.271-9.313 70.143M21.237.73c.59 15.502.295 29.59-2.122 41.497-.059.354-2.888 9.783-4.715.529-2.123-11.021.117-19.923-3.893-25.816-1.768-2.651-6.837-2.122-7.309 2.062-3.124 28.765.413 57.824 4.185 86.646M112.835 9.336c-2.771 12.614-4.833 25.229-4.421 37.899.236 7.604 2.711 7.604 4.421 6.249 6.189-4.894 8.075-15.619 10.963-26.111 2.24-8.017 5.481-2.062 5.481-.235.531 27.173-5.363 53.227-10.138 79.042"/><path d="M49.801 130.13l.928.234c-.194.762-.544 1.342-1.049 1.74-.506.4-1.122.601-1.852.601-.755 0-1.369-.153-1.842-.461-.473-.309-.833-.752-1.08-1.335s-.37-1.209-.37-1.878c0-.729.139-1.365.418-1.908s.675-.956 1.19-1.237a3.47 3.47 0 0 1 1.697-.423c.701 0 1.29.178 1.769.535.478.355.811.857.999 1.505l-.913.215c-.162-.51-.398-.881-.707-1.113-.309-.231-.697-.349-1.166-.349-.539 0-.988.129-1.35.387a2.044 2.044 0 0 0-.763 1.039c-.146.436-.22.883-.22 1.345 0 .597.087 1.116.26 1.562.174.444.443.776.811.996.365.22.763.329 1.188.329.52 0 .958-.149 1.319-.449s.606-.746.733-1.335zM51.439 130.049c0-.939.261-1.636.784-2.088.437-.376.968-.563 1.596-.563.698 0 1.268.229 1.71.687s.664 1.089.664 1.895c0 .652-.098 1.166-.294 1.541a2.08 2.08 0 0 1-.855.871 2.492 2.492 0 0 1-1.226.312c-.71 0-1.284-.229-1.722-.684-.438-.459-.657-1.114-.657-1.971zm.884 0c0 .65.142 1.137.425 1.46.284.323.641.484 1.07.484a1.35 1.35 0 0 0 1.064-.487c.284-.324.426-.819.426-1.485 0-.628-.144-1.103-.429-1.427a1.357 1.357 0 0 0-1.062-.484c-.43 0-.787.161-1.07.482-.282.322-.424.807-.424 1.457zM57.192 132.586v-5.074h.773v.771c.198-.359.381-.599.548-.713a.966.966 0 0 1 .552-.172c.29 0 .584.094.884.277l-.296.798a1.231 1.231 0 0 0-.63-.187.817.817 0 0 0-.506.17.911.911 0 0 0-.32.47 3.347 3.347 0 0 0-.143 1.004v2.656h-.862zM60.45 132.586v-5.074h.774v.771c.197-.359.38-.599.547-.713a.966.966 0 0 1 .552-.172c.29 0 .584.094.884.277l-.296.798a1.231 1.231 0 0 0-.63-.187.817.817 0 0 0-.506.17.911.911 0 0 0-.32.47 3.347 3.347 0 0 0-.143 1.004v2.656h-.862zM67.191 130.952l.889.108c-.14.521-.398.923-.779 1.209-.379.287-.862.431-1.451.431-.742 0-1.331-.229-1.767-.687-.435-.457-.651-1.098-.651-1.923 0-.854.22-1.516.658-1.987.439-.471 1.011-.707 1.71-.707.679 0 1.232.23 1.663.692.432.462.646 1.112.646 1.949 0 .052-.001.128-.005.229H64.32c.032.559.188.984.473 1.28.284.297.638.444 1.062.444.314 0 .584-.082.807-.248.222-.163.399-.427.529-.79zm-2.823-1.391h2.833c-.038-.427-.146-.747-.325-.96a1.317 1.317 0 0 0-1.064-.497c-.396 0-.728.132-.997.396s-.419.619-.447 1.061zM72.471 130.727l.846.109c-.093.583-.329 1.039-.709 1.369-.381.33-.849.494-1.402.494-.693 0-1.253-.228-1.675-.682s-.633-1.104-.633-1.951c0-.548.091-1.026.271-1.438.183-.411.458-.719.829-.924.371-.206.775-.31 1.211-.31.552 0 1.001.141 1.353.418.35.278.575.676.673 1.188l-.836.129c-.08-.341-.221-.598-.423-.771a1.094 1.094 0 0 0-.733-.258c-.433 0-.785.155-1.056.466-.271.312-.406.803-.406 1.475 0 .682.13 1.177.392 1.485.262.31.603.464 1.022.464.338 0 .62-.104.846-.312.226-.204.369-.521.43-.951zM75.929 131.816l.125.761a3.18 3.18 0 0 1-.65.075c-.312 0-.554-.049-.726-.146a.82.82 0 0 1-.363-.39c-.07-.161-.105-.499-.105-1.017v-2.919h-.631v-.669h.631v-1.256l.855-.518v1.772h.865v.669h-.865v2.967c0 .246.015.403.045.475.03.07.08.126.147.167a.573.573 0 0 0 .293.062c.098.001.224-.01.379-.033zM241.773 132.586v-7.004h.926v7.004h-.926zM244.223 132.586v-5.074h.773v.722c.372-.558.91-.836 1.614-.836.306 0 .587.056.843.165.257.109.449.254.576.433s.217.391.268.636c.031.159.049.438.049.836v3.12h-.86V129.5c0-.352-.033-.612-.1-.786a.835.835 0 0 0-.356-.416 1.126 1.126 0 0 0-.6-.155c-.366 0-.684.116-.948.35-.266.232-.398.674-.398 1.322v2.771h-.861zM252.976 130.727l.846.109c-.093.583-.329 1.039-.709 1.369-.381.33-.849.494-1.402.494-.694 0-1.254-.228-1.676-.682s-.633-1.104-.633-1.951c0-.548.092-1.026.271-1.438.183-.411.458-.719.829-.924.371-.206.775-.31 1.211-.31.552 0 1.002.141 1.354.418.351.278.575.676.673 1.188l-.836.129c-.079-.341-.221-.598-.422-.771a1.096 1.096 0 0 0-.734-.258c-.433 0-.785.155-1.055.466-.271.312-.406.803-.406 1.475 0 .682.13 1.177.392 1.485.262.31.603.464 1.022.464.338 0 .619-.104.846-.312.225-.203.369-.521.429-.951zM254.238 130.049c0-.939.261-1.636.783-2.088.437-.376.969-.563 1.596-.563.697 0 1.269.229 1.711.687s.664 1.089.664 1.895c0 .652-.099 1.166-.295 1.541-.195.374-.48.664-.854.871a2.484 2.484 0 0 1-1.226.312c-.711 0-1.284-.229-1.723-.684-.437-.459-.656-1.114-.656-1.971zm.884 0c0 .65.143 1.137.425 1.46.283.323.642.484 1.07.484.427 0 .781-.162 1.065-.487.283-.324.425-.819.425-1.485 0-.628-.144-1.103-.428-1.427a1.36 1.36 0 0 0-1.062-.484c-.43 0-.787.161-1.07.482-.284.322-.425.807-.425 1.457zM259.99 132.586v-5.074h.773v.771c.196-.359.38-.599.547-.713a.972.972 0 0 1 .553-.172c.289 0 .584.094.883.277l-.296.798a1.234 1.234 0 0 0-.63-.187.822.822 0 0 0-.507.17.911.911 0 0 0-.32.47 3.346 3.346 0 0 0-.144 1.004v2.656h-.859zM263.248 132.586v-5.074h.773v.771c.198-.359.381-.599.548-.713a.966.966 0 0 1 .552-.172c.289 0 .584.094.884.277l-.296.798a1.238 1.238 0 0 0-.631-.187.819.819 0 0 0-.506.17.905.905 0 0 0-.32.47 3.346 3.346 0 0 0-.144 1.004v2.656h-.86zM269.989 130.952l.889.108c-.14.521-.398.923-.777 1.209-.379.287-.863.431-1.453.431-.742 0-1.33-.229-1.767-.687-.434-.457-.65-1.098-.65-1.923 0-.854.22-1.516.659-1.987.438-.471 1.01-.707 1.711-.707.678 0 1.231.23 1.662.692.43.462.645 1.112.645 1.949 0 .052-.001.128-.004.229h-3.784c.032.559.189.984.473 1.28a1.41 1.41 0 0 0 1.062.444c.313 0 .584-.082.807-.248.222-.165.397-.427.527-.79zm-2.823-1.391h2.833c-.038-.427-.146-.747-.325-.96a1.315 1.315 0 0 0-1.063-.497c-.396 0-.729.132-.997.396s-.42.619-.448 1.061zM275.269 130.727l.846.109c-.094.583-.33 1.039-.71 1.369-.381.33-.849.494-1.402.494-.693 0-1.253-.228-1.675-.682s-.633-1.104-.633-1.951c0-.548.091-1.026.271-1.438a1.91 1.91 0 0 1 .83-.924c.371-.206.774-.31 1.211-.31.552 0 1.003.141 1.353.418.351.278.575.676.674 1.188l-.836.129c-.08-.341-.221-.598-.423-.771a1.092 1.092 0 0 0-.733-.258c-.434 0-.785.155-1.056.466-.271.312-.406.803-.406 1.475 0 .682.13 1.177.393 1.485.262.31.602.464 1.021.464.338 0 .62-.104.846-.312.225-.204.369-.521.429-.951zM278.727 131.816l.124.761a3.178 3.178 0 0 1-.649.075c-.312 0-.554-.049-.726-.146a.82.82 0 0 1-.363-.39c-.07-.161-.105-.499-.105-1.017v-2.919h-.631v-.669h.631v-1.256l.855-.518v1.772h.864v.669h-.864v2.967c0 .246.015.403.045.475.03.07.08.126.148.167a.57.57 0 0 0 .293.062c.096.001.223-.01.378-.033z"/><path stroke="#000" stroke-width=".062" stroke-linecap="round" stroke-linejoin="round" d="M21.944 48.415l-.413 8.96c2.122-2.535 4.598-3.95 7.957-4.303l-7.544-4.657z"/><path fill="none" stroke="#000" stroke-width="1" d="M23.771 52.247l9.255 17.329"/><path stroke="#000" stroke-width=".062" stroke-linecap="round" stroke-linejoin="round" d="M103.581 53.485l-8.782 1.945c2.947 1.414 5.012 3.359 6.248 6.542l2.534-8.487z"/><path fill="none" stroke="#000" stroke-width="1" d="M100.339 56.255L86.016 69.753"/><path stroke="#000" stroke-width=".062" stroke-linecap="round" stroke-linejoin="round" d="M224.768 43.641l7.722 4.539c-1.238-3.064-1.356-5.836-.06-9.02l-7.662 4.481z"/><path fill="none" stroke="#000" stroke-width="1" d="M229.012 43.818h14.971"/><path stroke="#000" stroke-width=".062" stroke-linecap="round" stroke-linejoin="round" d="M305.874 46.824l-7.722-4.539c1.18 3.064 1.297 5.835.06 9.02l7.662-4.481z"/><path fill="none" stroke="#000" stroke-width="1" d="M301.571 46.647h-14.912"/></svg>