<svg version="1.1" xmlns="http://www.w3.org/2000/svg" xmlns:xlink="http://www.w3.org/1999/xlink" x="0" y="0" width="326.484" height="316.604" viewBox="0 0 326.484 316.604" xml:space="preserve"><path fill-rule="evenodd" clip-rule="evenodd" fill="none" stroke="#231F20" stroke-width="1" stroke-miterlimit="10" d="M61.523 216.767C24.762 197.382 3.971 163.734.857 119.842-2.959 65.304 24.26 28.744 60.62.62c33.848 23.604 57.853 56.648 60.666 110.786-3.717 50.019-27.321 81.758-59.763 105.361z"/><g fill-rule="evenodd" clip-rule="evenodd" stroke="#231F20" stroke-miterlimit="10"><path fill="none" stroke-width=".5" d="M51.178 278.437v38.167M44.649 279.542l13.058 35.857M38.924 282.856l24.508 29.229M34.706 287.979l33.044 19.083M32.396 294.207l37.564 6.628M32.396 300.835l37.564-6.628M34.706 307.062l33.044-19.083M38.924 312.085l24.508-29.229M44.649 315.399l13.058-35.857"/><path fill="#FFF" stroke-width="1" d="M51.178 302.041c2.612 0 4.62-2.009 4.62-4.52 0-2.611-2.008-4.62-4.62-4.62-2.511 0-4.52 2.009-4.52 4.62a4.501 4.501 0 0 0 4.52 4.52z"/></g><path fill-rule="evenodd" clip-rule="evenodd" fill="#231F20" stroke="#231F20" stroke-width=".045" stroke-linecap="round" stroke-linejoin="round" stroke-miterlimit="10" d="M70.663 297.32l11.35 4.319c-1.708-2.812-1.908-5.424 0-8.336l-11.35 4.017zM124.198 230.427l11.35 4.319c-1.809-2.913-1.909-5.524 0-8.437l-11.35 4.118zM92.359 138.524l11.349 4.319c-1.708-2.812-1.908-5.424 0-8.337l-11.349 4.018zM114.154 73.841l11.45 4.319c-1.809-2.913-1.909-5.524-.101-8.437l-11.349 4.118z"/><path fill-rule="evenodd" clip-rule="evenodd" fill="none" stroke="#231F20" stroke-width="2" stroke-miterlimit="10" d="M55.396 124.664l-4.418 84.47 53.835 76.836-8.839-102.147z"/><path fill="#231F20" d="M218.411 77.457l-3.917-9.943H216l2.511 7.231c.201.603.402 1.105.603 1.607a9.945 9.945 0 0 1 .502-1.607l2.712-7.231h1.306l-3.917 9.943h-1.306zM228.354 76.553c-.402.401-.904.703-1.306.803-.201.101-.402.201-.603.201v-.904c.302-.1.603-.201.804-.301.402-.201.603-.502.804-.804.1-.301.201-.703.201-1.306v-.402c-.402.201-1.004.302-1.808.402v-1.004c.804-.101 1.406-.201 1.808-.402v-.302c0-.502-.101-.803-.302-1.004-.301-.302-.803-.502-1.406-.502l-.101.1v-1.104h.302c.603 0 1.104.1 1.506.301.301.101.603.302.803.503.201.201.302.502.402.803V74.444c0 1.104.101 1.808.101 2.109l.301.904h-1.206c-.199-.201-.199-.503-.3-.904zm-1.908 1.004c-.301 0-.502.101-.703.101-.803 0-1.406-.201-1.908-.603-.402-.402-.603-.904-.603-1.507 0-.301.1-.703.201-1.004a2.36 2.36 0 0 1 .703-.704c.201-.1.502-.301.904-.401.201 0 .603-.101 1.005-.101l.401-.1v1.004h-.201c-.502.101-.804.201-1.004.302-.301.1-.402.2-.502.401-.101.201-.201.402-.201.603 0 .301.1.603.402.804.201.201.602.301 1.105.301h.401v.904zm0-6.428c-.603 0-.904.101-1.205.201-.301.301-.502.603-.603 1.105l-1.205-.1c.1-.603.301-1.005.502-1.306.301-.302.703-.502 1.104-.704.402-.1.904-.201 1.406-.301v1.105zM234.179 79.365c.503 0 .905-.1 1.206-.301.301-.301.502-.603.603-1.005.1-.2.1-.703.1-1.506a2.475 2.475 0 0 1-1.909.904v-1.005c.603 0 1.005-.201 1.407-.703.402-.402.603-1.105.603-2.009s-.201-1.507-.603-2.009c-.402-.402-.904-.603-1.407-.703v-1.004c.804.1 1.507.402 2.01 1.104v-.904h1.104v6.227c0 1.105-.101 1.909-.302 2.411a2.914 2.914 0 0 1-1.104 1.105c-.502.301-1.004.402-1.708.402v-1.004zm-3.012-1.306l1.205.201c.101.302.201.603.402.804.301.201.703.301 1.306.301h.1v1.005h-.1c-.904 0-1.606-.201-2.109-.603-.503-.301-.804-.904-.804-1.708zm3.012-.602h-.1c-1.004 0-1.808-.402-2.31-1.105-.603-.703-.804-1.506-.804-2.511 0-.703.1-1.406.301-1.908.302-.603.703-1.105 1.105-1.407.503-.301 1.105-.502 1.708-.502h.1v1.004c-.602 0-1.004.301-1.406.703-.402.502-.603 1.105-.603 2.009s.201 1.607.603 2.009c.402.502.804.703 1.406.703v1.005zM239.202 68.919v-1.406h1.206v1.406h-1.206zm0 8.538v-7.232h1.206v7.232h-1.206zM242.315 77.457v-7.232h1.005v1.004c.603-.803 1.306-1.205 2.31-1.205.503 0 .905.1 1.206.301.402.101.703.302.904.603.1.201.301.502.301.904.101.201.101.603.101 1.206v4.419h-1.206v-4.419c0-.502-.1-.804-.201-1.104-.1-.201-.2-.402-.502-.603a1.883 1.883 0 0 0-.803-.201c-.502 0-1.004.201-1.406.502-.301.302-.502.904-.502 1.908v3.917h-1.207zM254.77 76.553c-.502.401-.904.703-1.306.803-.201.101-.502.201-.703.201v-.904l.904-.301c.301-.201.603-.502.804-.804.1-.301.201-.703.201-1.306v-.402c-.402.201-1.105.302-1.909.402v-1.004c.804-.101 1.507-.201 1.909-.402v-.302c0-.502-.101-.803-.402-1.004-.302-.302-.703-.502-1.407-.502l-.1.1v-1.104h.301c.603 0 1.104.1 1.506.301.402.101.703.302.904.503.101.201.302.502.302.803.1.201.1.603.1 1.206v1.607c0 1.104 0 1.808.1 2.109 0 .301.101.602.302.904h-1.306c-.1-.201-.2-.503-.2-.904zm-2.009 1.004c-.201 0-.402.101-.703.101-.804 0-1.406-.201-1.808-.603-.402-.402-.603-.904-.603-1.507 0-.301 0-.703.201-1.004.201-.302.402-.502.602-.704.302-.1.603-.301.905-.401.2 0 .602-.101 1.104-.101l.301-.1v1.004h-.101c-.502.101-.904.201-1.105.302-.2.1-.401.2-.502.401-.1.201-.1.402-.1.603 0 .301.1.603.301.804.301.201.603.301 1.105.301h.402v.904h.001zm0-6.428c-.502 0-.904.101-1.105.201-.301.301-.502.603-.603 1.105l-1.205-.1c.1-.603.301-1.005.502-1.306.301-.302.603-.502 1.105-.704.402-.1.804-.201 1.306-.301v1.105zM218.411 142.241l-3.917-10.044H216l2.511 7.333c.201.502.402 1.104.603 1.606a9.904 9.904 0 0 1 .502-1.606l2.712-7.333h1.306l-3.917 10.044h-1.306zM228.354 141.337c-.402.402-.904.703-1.306.803-.201.101-.402.101-.603.201v-.904c.302-.1.603-.201.804-.301.402-.201.603-.502.804-.904.1-.201.201-.603.201-1.206v-.402c-.402.101-1.004.302-1.808.402v-1.004c.804-.101 1.406-.201 1.808-.402v-.301c0-.502-.101-.904-.302-1.104a2.596 2.596 0 0 0-1.406-.402h-.101v-1.004h.302c.603 0 1.104.101 1.506.201.301.201.603.402.803.603.201.201.302.502.402.803V139.228c0 1.104.101 1.808.101 2.109l.301.904h-1.206c-.199-.302-.199-.603-.3-.904zm-1.908 1.004h-.703c-.803 0-1.406-.1-1.908-.502-.402-.402-.603-.904-.603-1.507 0-.402.1-.703.201-1.004a2.36 2.36 0 0 1 .703-.704c.201-.2.502-.301.904-.401.201 0 .603-.101 1.005-.201h.401v1.004h-.201c-.502.101-.804.201-1.004.302-.301.1-.402.201-.502.401-.101.101-.201.302-.201.603 0 .302.1.502.402.804.201.201.602.301 1.105.301h.401v.904zm0-6.529c-.603 0-.904.101-1.205.301-.301.201-.502.603-.603 1.105l-1.205-.201c.1-.502.301-.904.502-1.205.301-.302.703-.603 1.104-.703.402-.201.904-.201 1.406-.302v1.005zM234.179 144.148c.503 0 .905-.1 1.206-.301.301-.301.502-.603.603-1.004.1-.201.1-.804.1-1.607-.502.603-1.205 1.004-1.909 1.004v-1.004c.603 0 1.005-.201 1.407-.703.402-.402.603-1.105.603-2.009s-.201-1.607-.603-2.009-.904-.703-1.407-.703v-1.004c.804.101 1.507.402 2.01 1.105v-.904h1.104v6.228c0 1.104-.101 1.908-.302 2.41a2.914 2.914 0 0 1-1.104 1.105c-.502.302-1.004.402-1.708.402v-1.006zm-3.012-1.304l1.205.2c.101.302.201.603.402.804.301.201.703.301 1.306.301h.1v1.005h-.1c-.904 0-1.606-.201-2.109-.603-.503-.403-.804-.905-.804-1.707zm3.012-.603h-.1c-1.004 0-1.808-.402-2.31-1.105-.603-.703-.804-1.606-.804-2.611 0-.603.1-1.306.301-1.909.302-.502.703-1.004 1.105-1.306.503-.301 1.105-.502 1.708-.502h.1v1.004c-.602 0-1.004.301-1.406.703s-.603 1.105-.603 2.009.201 1.607.603 2.009c.402.502.804.703 1.406.703v1.005zM239.202 133.603v-1.407h1.206v1.407h-1.206zm0 8.638v-7.232h1.206v7.232h-1.206zM242.315 142.241v-7.232h1.005v1.005c.603-.804 1.306-1.206 2.31-1.206.503 0 .905.101 1.206.302.402.1.703.301.904.602.1.201.301.503.301.904.101.201.101.603.101 1.206v4.419h-1.206v-4.419c0-.502-.1-.904-.201-1.104-.1-.302-.2-.502-.502-.603a1.898 1.898 0 0 0-.803-.201c-.502 0-1.004.101-1.406.502-.301.302-.502.904-.502 1.908v3.917h-1.207zM254.77 141.337c-.502.402-.904.703-1.306.803-.201.101-.502.101-.703.201v-.904l.904-.301c.301-.201.603-.502.804-.904.1-.201.201-.603.201-1.206v-.402c-.402.101-1.105.302-1.909.402v-1.004c.804-.101 1.507-.201 1.909-.402v-.301c0-.502-.101-.904-.402-1.104-.302-.201-.703-.402-1.407-.402h-.1v-1.004h.301c.603 0 1.104.101 1.506.201.402.201.703.402.904.603.101.201.302.502.302.803.1.201.1.603.1 1.104v1.708c0 1.104 0 1.808.1 2.109 0 .301.101.602.302.904h-1.306c-.1-.302-.2-.603-.2-.904zm-2.009 1.004h-.703c-.804 0-1.406-.1-1.808-.502-.402-.402-.603-.904-.603-1.507 0-.402 0-.703.201-1.004.201-.302.402-.502.602-.704.302-.2.603-.301.905-.401.2 0 .602-.101 1.104-.201h.301v1.004h-.101c-.502.101-.904.201-1.105.302-.2.1-.401.201-.502.401-.1.101-.1.302-.1.603 0 .302.1.502.301.804.301.201.603.301 1.105.301h.402v.904h.001zm0-6.529c-.502 0-.904.101-1.105.301-.301.201-.502.603-.603 1.105l-1.205-.201c.1-.502.301-.904.502-1.205.301-.302.603-.603 1.105-.703.402-.201.804-.201 1.306-.302v1.005zM257.783 132.196h1.205v10.044h-1.205zM269.735 139.93l1.205.101c-.201.803-.502 1.306-1.104 1.708-.502.401-1.205.602-2.009.602h-.1v-1.004h.1c.402 0 .804-.101 1.104-.302.302-.201.604-.602.804-1.105zm-2.008-5.122c1.004 0 1.808.302 2.411 1.004.602.703.904 1.607.904 2.812v.302h-3.314v-1.005h2.008c-.101-.602-.201-1.104-.502-1.406-.402-.402-.904-.703-1.506-.703v-1.004zm0 7.533c-1.005 0-1.808-.301-2.411-.904-.703-.703-1.005-1.607-1.005-2.812 0-1.205.302-2.109 1.005-2.812a3.326 3.326 0 0 1 2.411-1.004v1.004c-.603 0-1.005.201-1.407.603-.401.402-.602.904-.602 1.506h2.009v1.005h-2.11c0 .803.302 1.406.703 1.808.402.402.804.603 1.407.603v1.003zM275.561 134.808h.201c.603 0 1.105.201 1.607.502.502.302.803.804 1.105 1.306a5.85 5.85 0 0 1 .301 1.909c0 .804-.101 1.406-.402 2.009a2.603 2.603 0 0 1-1.104 1.406c-.502.302-1.105.402-1.607.402h-.101v-1.004c.603 0 1.005-.201 1.407-.603.402-.502.603-1.205.603-2.209 0-.904-.201-1.607-.603-2.009-.402-.502-.804-.703-1.306-.703h-.101v-1.006zm-3.013 10.145v-9.944h1.105v.904c.201-.301.502-.603.904-.803a1.696 1.696 0 0 1 1.004-.302v1.004c-.502 0-.904.201-1.306.703-.401.502-.602 1.205-.602 2.109 0 1.005.201 1.607.502 2.109.402.402.904.603 1.406.603v1.004c-.401 0-.703 0-1.004-.201-.302-.201-.603-.401-.804-.703v3.516h-1.205zM280.282 133.603v-1.407h1.205v1.407h-1.205zm0 8.638v-7.232h1.205v7.232h-1.205zM286.007 141.136l.201 1.105c-.302 0-.603.1-.904.1-.402 0-.804-.1-1.005-.201-.301-.201-.402-.401-.502-.602-.101-.201-.201-.704-.201-1.407v-4.218h-.904v-.904h.904v-1.808l1.205-.703v2.511h1.206v.904h-1.206v4.218c0 .402 0 .603.101.703 0 .101.1.201.201.302h.904zM287.212 142.241v-10.044h1.306v3.616c.503-.703 1.206-1.004 2.11-1.004.502 0 1.004.101 1.406.302.402.2.703.502.804.904.201.401.301.904.301 1.607v4.62h-1.205v-4.62c0-.603-.201-1.005-.402-1.306-.301-.301-.703-.402-1.105-.402s-.703.101-1.105.302c-.301.1-.502.401-.603.703-.201.301-.201.803-.201 1.306v4.018h-1.306zM299.968 139.93l1.306.101c-.201.803-.603 1.306-1.205 1.708-.503.401-1.206.602-2.01.602h-.1v-1.004h.1c.402 0 .804-.101 1.105-.302.402-.201.603-.602.804-1.105zm-2.009-5.122c1.005 0 1.808.302 2.411 1.004.603.703.904 1.607.904 2.812v.302h-3.314v-1.005h2.009c0-.602-.201-1.104-.502-1.406-.301-.402-.804-.703-1.507-.703v-1.004zm0 7.533c-1.004 0-1.808-.301-2.411-.904-.603-.703-.904-1.607-.904-2.812 0-1.205.301-2.109.904-2.812a3.326 3.326 0 0 1 2.411-1.004v1.004c-.502 0-1.004.201-1.406.603-.402.402-.603.904-.603 1.506h2.009v1.005h-2.109c.101.803.302 1.406.704 1.808.401.402.803.603 1.406.603v1.003zM302.78 132.196h1.205v10.044h-1.205zM305.894 133.603v-1.407h1.206v1.407h-1.206zm0 8.638v-7.232h1.206v7.232h-1.206zM313.729 142.241v-1.105c-.603.803-1.306 1.205-2.311 1.205-.402 0-.804 0-1.205-.201a2.774 2.774 0 0 1-.804-.602c-.201-.302-.301-.603-.402-.904 0-.302-.1-.603-.1-1.206v-4.419h1.306v5.324c.1.302.301.502.502.703.301.201.603.302.904.302.402 0 .703-.101 1.104-.302.301-.201.502-.401.603-.803.201-.302.201-.703.201-1.406v-3.817h1.306v7.232h-1.104zM316.741 142.241v-7.232h1.105v1.005c.201-.402.502-.603.904-.904a2.782 2.782 0 0 1 1.306-.302c.503 0 .904.101 1.306.402.302.201.603.502.703.904.603-.904 1.306-1.306 2.21-1.306.703 0 1.305.201 1.707.603.302.401.502 1.004.502 1.808v5.022h-1.206v-4.62c0-.402 0-.804-.1-1.005-.101-.201-.201-.401-.402-.502-.201-.201-.502-.201-.804-.201-.502 0-.904.101-1.205.502-.402.302-.503.904-.503 1.607v4.218h-1.205v-4.721c0-.502-.101-.904-.301-1.205-.201-.301-.603-.402-1.004-.402-.402 0-.703.101-1.005.201a1.559 1.559 0 0 0-.602.804 6.055 6.055 0 0 0-.201 1.507v3.816h-1.205zM215.498 190.452v-10.044h2.009l2.31 7.132c.201.602.402 1.105.503 1.406.1-.301.301-.904.502-1.607l2.411-6.931h1.808v10.044h-1.306v-8.337l-2.913 8.337h-1.206l-2.812-8.538v8.538h-1.306zM231.77 190.452v-1.105c-.603.803-1.407 1.205-2.311 1.205-.402 0-.804 0-1.205-.201-.402-.201-.603-.402-.804-.602-.201-.302-.301-.603-.402-.904-.1-.301-.1-.603-.1-1.205v-4.419h1.205v4.018c0 .603.101 1.004.101 1.306.1.301.301.502.502.703.301.201.603.302.904.302.402 0 .703-.101 1.104-.302.301-.201.502-.402.603-.803.201-.302.201-.804.201-1.407v-3.816h1.306v7.232h-1.104zM234.28 188.242l1.205-.201c.101.502.302.904.603 1.105.302.301.703.402 1.306.402.502 0 .904-.101 1.206-.302.301-.201.401-.502.401-.803 0-.302-.1-.503-.301-.704-.201-.1-.603-.2-1.306-.401-.904-.201-1.506-.402-1.908-.603a1.215 1.215 0 0 1-.703-.703c-.201-.201-.301-.603-.301-.904 0-.302.1-.603.201-.905.201-.301.402-.502.602-.703.201-.1.503-.201.804-.301.302-.101.703-.201 1.005-.201.603 0 1.105.1 1.507.301.502.101.803.302 1.004.603.201.301.302.703.402 1.105l-1.205.201c-.101-.402-.201-.703-.502-.904-.201-.201-.603-.301-1.105-.301s-.904.1-1.205.301c-.201.201-.302.402-.302.603 0 .201 0 .301.101.502.1.101.301.201.502.301.101 0 .502.101 1.104.302.804.201 1.407.402 1.808.602.302.101.603.302.804.603.201.302.301.603.301 1.105 0 .401-.201.703-.401 1.104-.201.402-.603.603-1.005.804a4.026 4.026 0 0 1-1.507.301c-1.004 0-1.708-.201-2.209-.502-.504-.401-.806-1.004-.906-1.807zM246.434 187.74l1.206.201c-.101.804-.402 1.507-1.005 1.909-.502.502-1.205.703-2.009.703-1.004 0-1.808-.301-2.411-.904-.603-.703-.904-1.607-.904-2.812 0-.803.201-1.506.402-2.009.301-.603.703-1.105 1.205-1.406.502-.201 1.105-.402 1.708-.402.804 0 1.507.201 1.909.603.502.402.904 1.004 1.004 1.708l-1.205.201c-.101-.502-.302-.904-.603-1.105-.301-.301-.603-.401-1.005-.401-.602 0-1.104.2-1.506.703-.402.402-.603 1.105-.603 2.109 0 .904.201 1.607.603 2.109.301.402.803.603 1.406.603.502 0 .904-.101 1.205-.402.301-.303.502-.805.603-1.408zM248.643 180.408h1.306v10.044h-1.306zM256.779 188.142l1.206.101c-.201.703-.503 1.306-1.105 1.707-.502.402-1.206.603-2.009.603h-.1v-1.004h.1c.402 0 .804-.101 1.105-.302.301-.302.602-.602.803-1.105zm-2.009-5.122c1.005 0 1.808.301 2.411 1.004.603.602.904 1.607.904 2.812v.302h-3.314v-1.005h2.009c-.1-.603-.201-1.104-.502-1.406-.402-.503-.904-.703-1.507-.703v-1.004zm0 7.532c-1.005 0-1.808-.301-2.411-.904-.603-.703-1.004-1.607-1.004-2.812 0-1.205.401-2.109 1.004-2.812.603-.704 1.406-1.004 2.411-1.004v1.004c-.603 0-1.005.2-1.406.602-.402.302-.603.904-.603 1.507h2.009v1.005h-2.109c0 .803.302 1.406.704 1.808.401.402.803.603 1.406.603v1.003zM219.314 225.405c.703 0 1.205.101 1.507.101.502.1.904.301 1.205.502.402.201.603.502.804 1.004.201.402.301.803.301 1.306 0 .904-.201 1.607-.803 2.21-.503.502-1.507.803-2.914.803h-.1v-1.104h.1c.905 0 1.507-.201 1.809-.502.401-.301.602-.804.602-1.306s-.1-.804-.301-1.104c-.301-.301-.502-.502-.904-.603-.201-.1-.603-.1-1.206-.1h-.1v-1.207zm-3.816 10.044v-10.044h3.816v1.206h-2.411v3.616h2.411v1.104h-2.411v4.119h-1.405zM229.66 233.139l1.205.101c-.2.804-.502 1.306-1.104 1.708-.502.402-1.205.603-2.009.603h-.1v-1.005h.1c.402 0 .804-.101 1.105-.301.301-.202.602-.604.803-1.106zm-2.009-5.123c1.004 0 1.808.302 2.411 1.005.603.703.904 1.607.904 2.812v.301h-3.314v-1.005h2.009c-.1-.602-.201-1.105-.502-1.406-.402-.402-.904-.703-1.507-.703v-1.004zm0 7.534c-1.005 0-1.808-.302-2.411-.904-.703-.703-1.005-1.607-1.005-2.812 0-1.206.402-2.109 1.005-2.812a3.326 3.326 0 0 1 2.411-1.005v1.005c-.603 0-1.005.201-1.406.603-.402.401-.603.904-.603 1.506h2.009v1.005h-2.11c0 .804.302 1.406.704 1.808.401.402.803.603 1.406.603v1.003zM232.473 235.449v-7.232h1.104v1.105c.201-.502.502-.904.703-1.004.301-.201.502-.302.804-.302.401 0 .803.101 1.306.402l-.502 1.105a1.898 1.898 0 0 0-.803-.201c-.302 0-.603.101-.804.201-.201.201-.301.402-.402.703-.201.402-.201.904-.201 1.406v3.817h-1.205zM237.093 226.812v-1.407h1.205v1.407h-1.205zm0 8.637v-7.232h1.205v7.232h-1.205zM240.206 235.449v-7.232h1.105v1.004c.502-.804 1.306-1.206 2.31-1.206.402 0 .804.101 1.206.302.301.1.603.301.803.602.201.201.302.503.402.904v5.625h-1.205v-4.419c0-.502 0-.904-.101-1.105a1.03 1.03 0 0 0-.502-.603c-.301-.201-.603-.201-.904-.201-.502 0-1.005.101-1.306.503-.402.301-.603.904-.603 1.808v4.018h-1.205zM252.861 233.139l1.306.101c-.201.804-.602 1.306-1.104 1.708-.502.402-1.205.603-2.109.603h-.101v-1.005h.101c.502 0 .904-.101 1.205-.301.301-.202.502-.604.702-1.106zm-2.008-5.123h.101c.904 0 1.707.302 2.31 1.005.603.703.904 1.607.904 2.812v.301h-3.314v-1.005h2.009c0-.602-.201-1.105-.401-1.406-.402-.402-.904-.703-1.506-.703h-.101v-1.004zm0 7.534c-1.004 0-1.808-.302-2.411-.904-.603-.703-.904-1.607-.904-2.812 0-1.206.301-2.109.904-2.812.703-.603 1.507-1.005 2.411-1.005v1.005c-.502 0-1.004.201-1.306.603-.402.401-.602.904-.703 1.506h2.009v1.005h-2.009c0 .804.201 1.406.603 1.808s.904.603 1.406.603v1.003zM260.394 234.545c-.401.402-.904.603-1.305.804-.201.101-.402.101-.603.201v-.904c.301-.101.603-.201.803-.301.402-.201.704-.502.804-.904.201-.201.201-.603.201-1.206v-.401c-.402.1-1.004.301-1.808.401v-1.004c.803-.101 1.406-.201 1.808-.402v-.301c0-.503-.1-.904-.301-1.105a2.602 2.602 0 0 0-1.407-.402h-.1v-1.005h.301c.603 0 1.104.101 1.506.201.402.201.603.402.804.603.201.201.301.502.402.804 0 .2.1.602.1 1.104v3.816l.301.904h-1.205c-.2-.3-.2-.602-.301-.903zm-1.908 1.005h-.703c-.804 0-1.406-.101-1.808-.503-.502-.401-.703-.904-.703-1.506 0-.402.101-.703.302-1.004.1-.302.301-.502.602-.703.201-.201.503-.302.904-.402.201 0 .603-.101 1.005-.201h.402v1.004h-.201c-.502.101-.804.201-1.004.302-.201.101-.401.201-.502.402-.1.1-.201.301-.201.502 0 .402.101.603.402.904.201.201.603.301 1.105.301h.402v.904h-.002zm0-6.529c-.502 0-.904.1-1.206.301-.201.201-.401.603-.602 1.104l-1.206-.201c.101-.502.302-.904.603-1.205a1.838 1.838 0 0 1 1.004-.703c.402-.201.905-.302 1.407-.302v1.006zM263.408 225.405h1.206v10.044h-1.206zM269.937 233.239l1.205-.201c.101.502.302.904.603 1.206.301.2.703.301 1.306.301.502 0 1.004-.101 1.205-.301.302-.201.402-.503.402-.804 0-.302-.1-.502-.301-.703-.201-.101-.603-.201-1.306-.402-.904-.201-1.507-.402-1.808-.603-.402-.1-.603-.301-.804-.603a1.935 1.935 0 0 1-.301-1.004c0-.302.1-.603.201-.904.201-.302.401-.502.602-.703.201-.101.503-.201.804-.302.301-.1.703-.201 1.105-.201a4.03 4.03 0 0 1 1.507.302c.402.1.703.301.904.602.201.302.301.704.402 1.105l-1.206.201c0-.402-.201-.703-.401-.904-.302-.201-.704-.301-1.105-.301-.602 0-1.004.1-1.205.301-.301.201-.402.402-.402.603 0 .201 0 .402.101.502.1.101.301.201.502.302.1 0 .502.2 1.105.301.904.201 1.506.402 1.808.603.302.1.603.301.804.602.201.302.301.704.301 1.105 0 .402-.101.804-.402 1.105-.2.402-.502.704-1.004.904a6.053 6.053 0 0 1-1.506.201c-.904 0-1.708-.101-2.21-.503a3.067 3.067 0 0 1-.906-1.807zM277.369 235.449v-10.044h1.306v5.725l2.912-2.913h1.507l-2.712 2.712 3.014 4.52h-1.507l-2.411-3.717-.803.804v2.913zM284.399 226.812v-1.407h1.206v1.407h-1.206zm0 8.637v-7.232h1.206v7.232h-1.206zM287.514 235.449v-7.232h1.105v1.004c.502-.804 1.306-1.206 2.31-1.206.402 0 .804.101 1.206.302.301.1.602.301.803.602.201.201.302.503.402.904v5.625h-1.205v-4.419c0-.502 0-.904-.101-1.105a1.03 1.03 0 0 0-.502-.603c-.301-.201-.603-.201-.904-.201-.502 0-1.005.101-1.306.503-.402.301-.603.904-.603 1.808v4.018h-1.205zM219.014 292.399h.703l4.119 10.043h-1.507l-1.206-3.113h-2.109v-1.004h1.707l-1.004-2.812c-.302-.704-.502-1.306-.703-1.909v-1.205zm-4.52 10.043l3.816-10.043h.704v1.205-.1c-.201.603-.302 1.205-.603 1.908l-1.105 2.913h1.708v1.004h-2.009l-1.105 3.113h-1.406zM224.739 302.442v-7.332h1.104v1.105c.502-.804 1.306-1.206 2.31-1.206.402 0 .804.101 1.206.201.301.201.602.402.803.603.201.301.302.603.402.904V302.443h-1.205v-4.419c0-.502 0-.904-.101-1.105a1.03 1.03 0 0 0-.502-.603c-.301-.201-.603-.301-.904-.301-.502 0-1.004.201-1.306.502-.402.401-.603 1.004-.603 1.908v4.018h-1.204zM237.193 302.442v-1.105c-.603.804-1.306 1.206-2.31 1.206-.402 0-.804-.101-1.206-.201-.301-.201-.603-.402-.803-.603-.201-.301-.302-.603-.402-.904V295.109h1.205v4.018c0 .703 0 1.105.101 1.306 0 .402.201.603.401.804.302.201.603.301 1.005.301.301 0 .703-.1 1.005-.301.301-.201.502-.502.703-.804.1-.301.201-.804.201-1.406v-3.917h1.205v7.332h-1.105zM239.704 300.233l1.205-.201c.101.503.301.904.603 1.105.301.302.703.402 1.306.402.602 0 1.004-.1 1.205-.301.302-.302.502-.502.502-.804 0-.301-.2-.502-.401-.703-.201-.101-.603-.201-1.306-.401-.804-.201-1.507-.402-1.808-.603-.402-.201-.603-.401-.804-.703-.201-.301-.301-.603-.301-.904 0-.402.1-.703.301-.904.101-.302.301-.502.603-.703.1-.201.401-.302.703-.402.402-.101.703-.101 1.104-.101.502 0 1.004.101 1.507.201.401.201.703.402.904.703.201.302.402.603.402 1.105l-1.206.2c0-.401-.201-.703-.402-.904-.301-.201-.703-.301-1.105-.301-.602 0-1.004.1-1.205.301-.302.201-.402.402-.402.603 0 .201.1.301.201.402.1.201.201.301.402.402.201 0 .502.1 1.105.301.904.201 1.507.402 1.808.502.402.201.603.402.804.704.2.301.301.603.301 1.004s-.101.804-.301 1.206c-.302.301-.603.602-1.104.803-.402.201-.905.302-1.507.302-.904 0-1.607-.201-2.11-.603-.502-.402-.803-.904-1.004-1.708z"/><path fill-rule="evenodd" clip-rule="evenodd" fill="#231F20" stroke="#231F20" stroke-width=".045" stroke-linecap="round" stroke-linejoin="round" stroke-miterlimit="10" d="M79.201 185.43l11.35 4.319c-1.707-2.913-1.908-5.525 0-8.438l-11.35 4.119z"/><path fill-rule="evenodd" clip-rule="evenodd" fill="none" stroke="#231F20" stroke-width=".5" stroke-miterlimit="10" d="M120.683 74.243h88.788M100.595 139.127h109.78M87.638 185.53h120.829M130.827 231.13h78.142M80.909 297.42h129.969"/><defs><path id="a" d="M54.689 122.062l-3.711 86.452 54.848 71.24-9.852-95.931z"/></defs><clipPath id="b"><use xlink:href="#a" overflow="visible"/></clipPath><g clip-path="url(#b)" fill-rule="evenodd" clip-rule="evenodd"><path fill="#FFF" d="M53.444 122.47c17.519 25.986 34.795 52.328 52.61 77.878v3.86c-18.599-26.585-36.477-54.229-54.911-81.059v-.68l2.301.001z"/><path fill="#4D4D4D" d="M53.444 122.47h.92c17.213 25.53 34.18 51.426 51.69 76.516v1.362c-17.814-25.55-35.091-51.892-52.61-77.878z"/><path fill="#FFF" d="M54.365 122.47h2.455a12123.959 12123.959 0 0 0 49.235 72.883v3.632C88.544 173.896 71.578 148 54.365 122.47z"/><path fill="#4D4D4D" d="M56.819 122.47h.92a11798.049 11798.049 0 0 0 48.315 71.521v1.362a12171.377 12171.377 0 0 1-49.235-72.883z"/><path fill="#FFF" d="M57.739 122.47h2.608a10504.46 10504.46 0 0 0 45.708 67.662v3.859a11751.89 11751.89 0 0 1-48.316-71.521z"/><path fill="#4D4D4D" d="M60.347 122.47h.919a10044.963 10044.963 0 0 0 44.788 66.298v1.363c-15.3-22.46-30.535-45.013-45.707-67.661z"/><path fill="#FFF" d="M61.267 122.47h2.608a8863.738 8863.738 0 0 0 42.18 62.439v3.859a10005.932 10005.932 0 0 1-44.788-66.298z"/><path fill="#4D4D4D" d="M63.875 122.47h.919a8547.394 8547.394 0 0 0 41.26 61.076v1.363a8945.261 8945.261 0 0 1-42.179-62.439z"/><path fill="#FFF" d="M64.794 122.47h2.608a7481.35 7481.35 0 0 0 38.652 57.216v3.86a8547.394 8547.394 0 0 1-41.26-61.076z"/><path fill="#4D4D4D" d="M67.403 122.47h.92a7101.717 7101.717 0 0 0 37.732 55.854v1.361a7471.69 7471.69 0 0 1-38.652-57.215z"/><path fill="#FFF" d="M68.323 122.47h2.607a6154.105 6154.105 0 0 0 35.125 51.994v3.86a7074.229 7074.229 0 0 1-37.732-55.854z"/><path fill="#4D4D4D" d="M70.93 122.47h.767c11.388 17.046 22.841 34 34.357 50.859v1.135A6178.033 6178.033 0 0 1 70.93 122.47z"/><path fill="#FFF" d="M71.697 122.47h2.761c10.467 15.686 21 31.276 31.597 46.772v4.086a5942.446 5942.446 0 0 1-34.358-50.858z"/><path fill="#4D4D4D" d="M74.458 122.47h.767a4766.245 4766.245 0 0 0 30.83 45.637v1.136a4986.97 4986.97 0 0 1-31.597-46.773z"/><path fill="#FFF" d="M75.225 122.47h2.607a3983.463 3983.463 0 0 0 28.223 41.776v3.86a4772.13 4772.13 0 0 1-30.83-45.636z"/><path fill="#4D4D4D" d="M77.832 122.47h.921a3752.69 3752.69 0 0 0 27.302 40.416v1.361a4004.691 4004.691 0 0 1-28.223-41.777z"/><path fill="#FFF" d="M78.753 122.47h2.606a3061.898 3061.898 0 0 0 24.695 36.555v3.86a3767.258 3767.258 0 0 1-27.301-40.415z"/><path fill="#4D4D4D" d="M81.359 122.47h.921a2826.757 2826.757 0 0 0 23.774 35.192v1.363a3073.92 3073.92 0 0 1-24.695-36.555z"/><path fill="#FFF" d="M82.28 122.47h2.454c7.118 10.428 14.177 20.941 21.32 31.332v3.86A2837.813 2837.813 0 0 1 82.28 122.47z"/><path fill="#4D4D4D" d="M84.734 122.47h.92c6.82 9.961 13.558 20.042 20.4 29.97v1.362c-7.142-10.391-14.202-20.905-21.32-31.332z"/><path fill="#FFF" d="M85.655 122.47h2.607c5.976 8.637 11.804 17.493 17.793 26.11v3.859c-6.842-9.928-13.58-20.008-20.4-29.969z"/><path fill="#4D4D4D" d="M88.262 122.47h.921c5.679 8.167 11.183 16.595 16.872 24.748v1.362c-5.99-8.618-11.818-17.474-17.793-26.11z"/><path fill="#FFF" d="M89.183 122.47h2.606c4.84 6.837 9.425 14.052 14.266 20.888v3.86c-5.69-8.154-11.194-16.581-16.872-24.748z"/><path fill="#4D4D4D" d="M91.789 122.47h.921c4.538 6.375 8.808 13.149 13.345 19.525v1.363c-4.841-6.836-9.426-14.051-14.266-20.888z"/><path fill="#FFF" d="M92.71 122.47h2.76a567.678 567.678 0 0 0 10.584 15.667v3.859c-4.536-6.377-8.806-13.151-13.344-19.526z"/><path fill="#4D4D4D" d="M95.47 122.47h.921a470.115 470.115 0 0 0 9.664 14.304v1.363A565.47 565.47 0 0 1 95.47 122.47z"/><path fill="#FFF" d="M96.391 122.47h2.608a249.975 249.975 0 0 0 7.056 10.444v3.86a471.965 471.965 0 0 1-9.664-14.304z"/><path fill="#4D4D4D" d="M98.999 122.47h.767c2.032 3.198 4.128 6.3 6.289 9.309v1.135a249.975 249.975 0 0 1-7.056-10.444z"/><path fill="#FFF" d="M99.766 122.47h2.761a62.684 62.684 0 0 0 3.528 5.222v4.087a197.577 197.577 0 0 1-6.289-9.309z"/><path fill="#4D4D4D" d="M102.527 122.47h.767a37.897 37.897 0 0 0 2.761 4.086v1.136a62.684 62.684 0 0 1-3.528-5.222zM51.144 123.149c18.434 26.829 36.312 54.474 54.911 81.059v1.363c-18.593-26.592-36.484-54.219-54.911-81.059v-1.363z"/><path fill="#FFF" d="M51.144 124.512c18.427 26.84 36.318 54.466 54.911 81.059v3.859c-18.575-26.617-36.505-54.188-54.911-81.058v-3.86z"/><path fill="#4D4D4D" d="M51.144 128.373c18.406 26.87 36.336 54.44 54.911 81.058v1.135c-18.571-26.625-36.512-54.177-54.911-81.058v-1.135z"/><path fill="#FFF" d="M51.144 129.507c18.399 26.88 36.34 54.433 54.911 81.058v4.087c-18.55-26.655-36.537-54.141-54.911-81.057v-4.088z"/><path fill="#4D4D4D" d="M51.144 133.595c18.374 26.916 36.361 54.402 54.911 81.057v1.136c-18.543-26.665-36.543-54.131-54.911-81.057v-1.136z"/><path fill="#FFF" d="M51.144 134.73c18.368 26.926 36.368 54.392 54.911 81.057v3.86c-18.521-26.698-36.568-54.096-54.911-81.058v-3.859z"/><path fill="#4D4D4D" d="M51.144 138.59c18.343 26.962 36.39 54.359 54.911 81.058v1.362c-18.513-26.71-36.577-54.083-54.911-81.058v-1.362z"/><path fill="#FFF" d="M51.144 139.952c18.334 26.974 36.398 54.347 54.911 81.058v3.86c-18.489-26.746-36.6-54.047-54.911-81.058v-3.86z"/><path fill="#4D4D4D" d="M51.144 143.812c18.312 27.011 36.422 54.312 54.911 81.058v1.361c-18.481-26.757-36.608-54.035-54.911-81.058v-1.361z"/><path fill="#FFF" d="M51.144 145.174c18.303 27.022 36.43 54.3 54.911 81.058v3.86c-18.457-26.793-36.633-53.999-54.911-81.057v-3.861z"/><path fill="#4D4D4D" d="M51.144 149.035c18.278 27.058 36.455 54.264 54.911 81.057v1.363c-18.448-26.807-36.641-53.988-54.911-81.058v-1.362z"/><path fill="#FFF" d="M51.144 150.397c18.27 27.07 36.463 54.25 54.911 81.058v3.859c-18.423-26.843-36.663-53.955-54.911-81.058v-3.859z"/><path fill="#4D4D4D" d="M51.144 154.256c18.248 27.103 36.488 54.215 54.911 81.058v1.362c-18.416-26.854-36.67-53.944-54.911-81.058v-1.362z"/><path fill="#FFF" d="M51.144 155.619c18.241 27.114 36.496 54.204 54.911 81.058v3.633c-18.531-26.61-36.503-54.039-54.911-80.831v-3.86z"/><path fill="#4D4D4D" d="M51.144 159.479c18.408 26.792 36.38 54.221 54.911 80.831v1.361c-18.527-26.614-36.506-54.033-54.911-80.829v-1.363z"/><path fill="#FFF" d="M51.144 160.842c18.405 26.796 36.384 54.215 54.911 80.829v3.86c-18.517-26.629-36.513-54.024-54.911-80.83v-3.859z"/><path fill="#4D4D4D" d="M51.144 164.701c18.398 26.806 36.395 54.201 54.911 80.83v1.363c-18.512-26.637-36.517-54.021-54.911-80.832v-1.361z"/><path fill="#FFF" d="M51.144 166.062c18.395 26.812 36.399 54.195 54.911 80.832v3.858c-18.499-26.655-36.525-54.006-54.911-80.83v-3.86z"/><path fill="#4D4D4D" d="M51.144 169.923c18.386 26.824 36.412 54.174 54.911 80.83v1.136c-18.496-26.66-36.527-54.002-54.911-80.831v-1.135z"/><path fill="#FFF" d="M51.144 171.058c18.384 26.828 36.415 54.17 54.911 80.831v4.087c-18.481-26.684-36.537-53.989-54.911-80.831v-4.087z"/><path fill="#4D4D4D" d="M51.144 175.145c18.374 26.842 36.43 54.147 54.911 80.831v1.135c-18.476-26.69-36.541-53.983-54.911-80.83v-1.136z"/><path fill="#FFF" d="M51.144 176.281c18.371 26.846 36.436 54.14 54.911 80.83v3.859c-18.46-26.71-36.549-53.97-54.911-80.83v-3.859z"/><path fill="#4D4D4D" d="M51.144 180.141c18.362 26.86 36.451 54.119 54.911 80.83v1.364c-18.456-26.72-36.552-53.967-54.911-80.832v-1.362z"/><path fill="#FFF" d="M51.144 181.502c18.359 26.865 36.455 54.111 54.911 80.832v3.859c-18.439-26.745-36.562-53.952-54.911-80.831v-3.86z"/><path fill="#4D4D4D" d="M51.144 185.362c18.35 26.879 36.472 54.086 54.911 80.831v1.362c-18.434-26.751-36.565-53.947-54.911-80.831v-1.362z"/><path fill="#FFF" d="M51.144 186.725c18.346 26.884 36.477 54.079 54.911 80.831v4.087c-18.267-27.075-36.598-54.05-54.911-81.058v-3.86z"/><path fill="#4D4D4D" d="M51.144 190.584c18.313 27.008 36.645 53.983 54.911 81.058v1.363c-18.262-27.082-36.601-54.047-54.911-81.057v-1.364z"/><path fill="#FFF" d="M51.144 191.948c18.311 27.01 36.649 53.975 54.911 81.057v3.859c-18.251-27.098-36.605-54.041-54.911-81.056v-3.86z"/><path fill="#4D4D4D" d="M51.144 195.808c18.306 27.016 36.66 53.958 54.911 81.056v1.362c-18.394-26.888-36.517-54.17-54.911-81.058v-1.36z"/><path fill="#FFF" d="M51.144 197.169c18.394 26.887 36.517 54.17 54.911 81.058v3.633c-18.543-26.666-36.43-54.299-54.911-81.057v-3.634z"/><path fill="#4D4D4D" d="M51.144 200.802c18.481 26.758 36.368 54.391 54.911 81.057v1.362c-18.544-26.664-36.43-54.298-54.911-81.057v-1.362z"/><path fill="#FFF" d="M51.144 202.165c18.481 26.759 36.367 54.394 54.911 81.057-.1 1.215.201 3.023-.154 3.86-18.343-26.886-36.355-54.256-54.757-81.057v-3.86z"/><path fill="#4D4D4D" d="M51.144 206.024c18.402 26.801 36.415 54.171 54.757 81.057h-.92c-18.037-26.428-35.741-53.353-53.837-79.695v-1.362z"/><path fill="#FFF" d="M51.144 207.387c18.096 26.342 35.8 53.267 53.837 79.695h-2.607c-17.172-25.137-33.997-50.785-51.229-75.835l-.001-3.86z"/><path fill="#4D4D4D" d="M51.144 211.246c17.232 25.05 34.057 50.698 51.229 75.835h-.767c-16.919-24.753-33.485-50.032-50.462-74.701v-1.134z"/><path fill="#FFF" d="M51.144 212.381c16.978 24.669 33.543 49.947 50.462 74.701h-2.761c-16.003-23.387-31.64-47.313-47.702-70.612l.001-4.089z"/><path fill="#4D4D4D" d="M51.144 216.469c16.062 23.299 31.699 47.226 47.702 70.612h-.767c-15.746-23.008-31.127-46.555-46.935-69.478v-1.134z"/><path fill="#FFF" d="M51.144 217.604c15.808 22.922 31.188 46.469 46.935 69.478h-2.608c-14.877-21.72-29.388-43.987-44.327-65.618v-3.86z"/><path fill="#4D4D4D" d="M51.144 221.463c14.939 21.631 29.45 43.898 44.327 65.618h-.919c-14.57-21.269-28.775-43.079-43.407-64.255l-.001-1.363z"/><path fill="#FFF" d="M51.144 222.827c14.632 21.176 28.837 42.986 43.407 64.255h-2.762c-13.488-20.221-26.962-40.461-40.646-60.395l.001-3.86z"/><path fill="#4D4D4D" d="M51.144 226.687c13.683 19.934 27.158 40.174 40.646 60.395h-.919c-13.18-19.771-26.351-39.552-39.726-59.034l-.001-1.361z"/><path fill="#FFF" d="M51.144 228.048c13.375 19.481 26.546 39.263 39.726 59.034h-2.608c-12.303-18.495-24.616-36.976-37.118-55.174v-3.86z"/><path fill="#4D4D4D" d="M51.144 231.908c12.502 18.198 24.815 36.679 37.118 55.174h-.92c-11.994-18.045-24.003-36.064-36.198-53.811v-1.363z"/><path fill="#FFF" d="M51.144 233.271c12.195 17.747 24.205 35.766 36.198 53.811h-2.607c-11.113-16.774-22.271-33.482-33.591-49.951v-3.86z"/><path fill="#4D4D4D" d="M51.144 237.131c11.32 16.468 22.478 33.177 33.591 49.951h-.92c-10.803-16.326-21.659-32.571-32.671-48.589v-1.362z"/><path fill="#FFF" d="M51.144 238.492c11.012 16.018 21.868 32.264 32.671 48.589H81.36c-10.067-14.991-20.097-30.04-30.216-44.956v-3.633z"/><path fill="#4D4D4D" d="M51.144 242.125c10.119 14.917 20.148 29.965 30.216 44.956h-.919c-9.76-14.54-19.489-29.125-29.296-43.594l-.001-1.362z"/><path fill="#FFF" d="M51.144 243.488c9.807 14.469 19.537 29.054 29.296 43.594h-2.608c-8.882-13.266-17.766-26.528-26.688-39.734v-3.86z"/><path fill="#4D4D4D" d="M51.144 247.347c8.922 13.207 17.807 26.468 26.688 39.734h-.92a11296.686 11296.686 0 0 0-25.768-38.372v-1.362z"/><path fill="#FFF" d="M51.144 248.709c8.61 12.761 17.197 25.556 25.768 38.372h-2.607c-7.693-11.544-15.437-23.013-23.161-34.512v-3.86z"/><path fill="#4D4D4D" d="M51.144 252.57c7.724 11.499 15.468 22.968 23.161 34.512h-.767c-7.432-11.172-14.934-22.244-22.394-33.376v-1.136z"/><path fill="#FFF" d="M51.144 253.705c7.46 11.132 14.961 22.204 22.394 33.376h-2.761c-6.496-9.834-13.118-19.482-19.633-29.29v-4.086z"/><path fill="#4D4D4D" d="M51.144 257.792c6.515 9.808 13.137 19.455 19.633 29.29h-.767c-6.236-9.462-12.613-18.716-18.866-28.155v-1.135z"/><path fill="#FFF" d="M51.144 258.927c6.253 9.438 12.63 18.693 18.866 28.155h-2.606c-5.347-8.207-10.907-16.097-16.259-24.295l-.001-3.86z"/><path fill="#4D4D4D" d="M51.144 262.786c5.353 8.199 10.912 16.089 16.259 24.295h-.921c-5.033-7.762-10.302-15.174-15.338-22.932v-1.363z"/><path fill="#FFF" d="M51.144 264.15c5.037 7.757 10.306 15.169 15.338 22.932h-2.607a816.97 816.97 0 0 0-12.731-18.845v-4.087z"/><path fill="#4D4D4D" d="M51.144 268.237a810.605 810.605 0 0 1 12.731 18.845h-.921a700.404 700.404 0 0 0-11.811-17.483l.001-1.362z"/><path fill="#FFF" d="M51.144 269.599c4 5.733 7.938 11.561 11.811 17.483h-2.607a426.47 426.47 0 0 0-9.204-13.624v-3.859z"/><path fill="#4D4D4D" d="M51.144 273.458a427.013 427.013 0 0 1 9.204 13.624h-.921a344.454 344.454 0 0 0-8.283-12.26v-1.364z"/><path fill="#FFF" d="M51.144 274.822a344.454 344.454 0 0 1 8.283 12.26H56.82a161.933 161.933 0 0 0-5.676-8.4v-3.86z"/><path fill="#4D4D4D" d="M51.144 278.681a162.794 162.794 0 0 1 5.676 8.4h-.921a113.718 113.718 0 0 0-4.755-7.039v-1.361z"/><path fill="#FFF" d="M51.144 280.042a113.718 113.718 0 0 1 4.755 7.039h-2.454a26.615 26.615 0 0 0-2.301-3.406v-3.633z"/><path fill="#4D4D4D" d="M51.144 283.676a26.615 26.615 0 0 1 2.301 3.406h-.92a9.506 9.506 0 0 0-1.381-2.042v-1.364z"/><path fill="#FFF" d="M51.144 285.039a9.592 9.592 0 0 1 1.381 2.042h-1.381v-2.042zM103.294 122.47h2.761v4.086a37.996 37.996 0 0 1-2.761-4.086z"/></g><use xlink:href="#a" overflow="visible" fill="none" stroke="#231F20" stroke-width=".5" stroke-miterlimit="10"/><g><defs><path id="c" d="M54.689 122.062l51.303 165.027-10.018-103.266z"/></defs><clipPath id="d"><use xlink:href="#c" overflow="visible"/></clipPath><g clip-path="url(#d)" fill-rule="evenodd" clip-rule="evenodd"><path fill="#FFF" d="M53.768 122.47a17.035 17.035 0 0 1-1.84 2.724v-2.724h1.84z"/><path fill="#4D4D4D" d="M53.768 122.47h.919a38.038 38.038 0 0 1-2.76 4.086v-1.362a17.018 17.018 0 0 0 1.841-2.724z"/><path fill="#FFF" d="M54.688 122.47h2.606a144.684 144.684 0 0 1-5.366 7.946v-3.86a38.436 38.436 0 0 0 2.76-4.086z"/><path fill="#4D4D4D" d="M57.293 122.47h.92a198.558 198.558 0 0 1-6.286 9.309v-1.362a144.529 144.529 0 0 0 5.366-7.947z"/><path fill="#FFF" d="M58.214 122.47h2.607a398.852 398.852 0 0 1-8.893 13.168v-3.859a199.867 199.867 0 0 0 6.286-9.309z"/><path fill="#4D4D4D" d="M60.821 122.47h.919a485.654 485.654 0 0 1-9.812 14.531v-1.363a400.424 400.424 0 0 0 8.893-13.168z"/><path fill="#FFF" d="M61.74 122.47h2.606a774.866 774.866 0 0 1-12.418 18.391v-3.86a486.324 486.324 0 0 0 9.812-14.531z"/><path fill="#4D4D4D" d="M64.346 122.47h.92a895.057 895.057 0 0 1-13.339 19.753v-1.362a771.875 771.875 0 0 0 12.419-18.391z"/><path fill="#FFF" d="M65.267 122.47h2.606a1280.772 1280.772 0 0 1-15.945 23.613v-3.859a899.888 899.888 0 0 0 13.339-19.754z"/><path fill="#4D4D4D" d="M67.873 122.47h.92a1432.79 1432.79 0 0 1-16.865 24.975v-1.362a1285.815 1285.815 0 0 0 15.945-23.613z"/><path fill="#FFF" d="M68.793 122.47h2.606a1909.868 1909.868 0 0 1-19.471 28.835v-3.86a1432.79 1432.79 0 0 0 16.865-24.975z"/><path fill="#4D4D4D" d="M71.399 122.47h.921a2097.278 2097.278 0 0 1-20.392 30.197v-1.362a1922.5 1922.5 0 0 0 19.471-28.835z"/><path fill="#FFF" d="M72.32 122.47h2.605a2653.998 2653.998 0 0 1-22.998 34.058v-3.86A2094.76 2094.76 0 0 0 72.32 122.47z"/><path fill="#4D4D4D" d="M74.925 122.47h.919a2881.731 2881.731 0 0 1-23.917 35.42v-1.362a2643.67 2643.67 0 0 0 22.998-34.058z"/><path fill="#FFF" d="M75.845 122.47h2.607a3544.072 3544.072 0 0 1-26.524 39.28v-3.86a2889.384 2889.384 0 0 0 23.917-35.42z"/><path fill="#4D4D4D" d="M78.452 122.47h.766a3751.961 3751.961 0 0 1-27.29 40.416v-1.136c8.905-13 17.746-26.093 26.524-39.28z"/><path fill="#FFF" d="M79.218 122.47h2.607c-9.889 14.872-19.828 29.669-29.897 44.275v-3.859a3776.778 3776.778 0 0 0 27.29-40.416z"/><path fill="#4D4D4D" d="M81.825 122.47h.919a4783.976 4783.976 0 0 1-30.816 45.637v-1.362c10.069-14.606 20.008-29.404 29.897-44.275z"/><path fill="#FFF" d="M82.744 122.47h2.607a5649.732 5649.732 0 0 1-33.424 49.497v-3.86a4765.353 4765.353 0 0 0 30.817-45.637z"/><path fill="#4D4D4D" d="M85.352 122.47h.919a5933.924 5933.924 0 0 1-34.343 50.859v-1.362a5694.579 5694.579 0 0 0 33.424-49.497z"/><path fill="#FFF" d="M86.271 122.47h2.606a6823.999 6823.999 0 0 1-36.949 54.719v-3.86a5980.781 5980.781 0 0 0 34.343-50.859z"/><path fill="#4D4D4D" d="M88.876 122.47h.921a7196.25 7196.25 0 0 1-37.87 56.082v-1.363a6823.999 6823.999 0 0 0 36.949-54.719z"/><path fill="#FFF" d="M89.797 122.47h2.453c-13.203 20.257-26.774 39.969-40.323 59.714v-3.632a7215.286 7215.286 0 0 0 37.87-56.082z"/><path fill="#4D4D4D" d="M92.25 122.47h.919c-13.51 20.708-27.389 40.875-41.242 61.076v-1.362c13.55-19.746 27.121-39.457 40.323-59.714z"/><path fill="#FFF" d="M93.17 122.47h2.607c-14.385 21.987-29.129 43.444-43.849 64.936v-3.86c13.853-20.201 27.732-40.368 41.242-61.076z"/><path fill="#4D4D4D" d="M95.777 122.47h.919c-14.694 22.438-29.743 44.351-44.769 66.298v-1.362c14.721-21.492 29.465-42.949 43.85-64.936z"/><path fill="#FFF" d="M96.696 122.47h2.607c-15.568 23.716-31.481 46.922-47.375 70.159v-3.86c15.025-21.948 30.074-43.861 44.768-66.299z"/><path fill="#4D4D4D" d="M99.303 122.47h.919c-15.878 24.167-32.095 47.831-48.295 71.521v-1.362c15.895-23.237 31.808-46.443 47.376-70.159z"/><path fill="#FFF" d="M100.223 122.47h2.607c-16.754 25.443-33.833 50.402-50.902 75.38v-3.859c16.2-23.691 32.417-47.354 48.295-71.521z"/><path fill="#4D4D4D" d="M102.83 122.47h.919c-17.062 25.893-34.447 51.311-51.821 76.743v-1.363c17.068-24.978 34.147-49.937 50.902-75.38z"/><path fill="#FFF" d="M103.749 122.47h2.299v.68c-17.983 26.723-35.958 53.465-54.121 79.923v-3.859c17.375-25.433 34.76-50.852 51.822-76.744z"/><path fill="#4D4D4D" d="M106.048 123.149v1.136c-17.978 26.731-35.965 53.454-54.121 79.922v-1.136c18.163-26.457 36.138-53.198 54.121-79.922z"/><path fill="#FFF" d="M106.048 124.286v3.861a8251.469 8251.469 0 0 1-54.121 79.921v-3.859c18.156-26.47 36.144-53.192 54.121-79.923z"/><path fill="#4D4D4D" d="M106.048 128.146v1.361a10734.995 10734.995 0 0 1-54.121 79.923v-1.363a8208.949 8208.949 0 0 0 54.121-79.921z"/><path fill="#FFF" d="M106.048 129.507v3.86c-17.932 26.799-36.019 53.375-54.121 79.923v-3.86a10673.894 10673.894 0 0 0 54.121-79.923z"/><path fill="#4D4D4D" d="M106.048 133.367v1.363c-17.926 26.807-36.027 53.363-54.121 79.921v-1.361c18.102-26.547 36.19-53.123 54.121-79.923z"/><path fill="#FFF" d="M106.048 134.73v3.859c-17.912 26.829-36.046 53.335-54.121 79.923v-3.861c18.094-26.558 36.195-53.114 54.121-79.921z"/><path fill="#4D4D4D" d="M106.048 138.59v1.362c-17.908 26.834-36.052 53.326-54.121 79.922v-1.362c18.075-26.587 36.209-53.093 54.121-79.922z"/><path fill="#FFF" d="M106.048 139.952v3.86c-18.129 26.508-35.992 53.416-54.121 79.922v-3.86c18.07-26.596 36.213-53.087 54.121-79.922z"/><path fill="#4D4D4D" d="M106.048 143.812v1.362c-18.129 26.508-35.992 53.416-54.121 79.923v-1.362c18.13-26.507 35.992-53.415 54.121-79.923z"/><path fill="#FFF" d="M106.048 145.174v3.861c-18.129 26.507-35.992 53.415-54.121 79.921v-3.859c18.13-26.507 35.992-53.415 54.121-79.923z"/><path fill="#4D4D4D" d="M106.048 149.035v1.362c-18.129 26.507-35.992 53.415-54.121 79.921v-1.362c18.13-26.506 35.992-53.414 54.121-79.921z"/><path fill="#FFF" d="M106.048 150.397v3.859c-18.129 26.508-35.992 53.415-54.121 79.922v-3.86c18.13-26.506 35.992-53.414 54.121-79.921z"/><path fill="#4D4D4D" d="M106.048 154.256v1.362c-18.129 26.508-35.992 53.415-54.121 79.922v-1.362c18.13-26.507 35.992-53.414 54.121-79.922z"/><path fill="#FFF" d="M106.048 155.619v3.86c-18.129 26.509-35.992 53.416-54.121 79.922v-3.86c18.13-26.507 35.992-53.415 54.121-79.922z"/><path fill="#4D4D4D" d="M106.048 159.479v1.363c-18.129 26.506-35.992 53.415-54.121 79.921v-1.362c18.13-26.507 35.992-53.414 54.121-79.922z"/><path fill="#FFF" d="M106.048 160.842v3.859c-18.129 26.507-35.992 53.415-54.121 79.922v-3.86c18.13-26.506 35.992-53.415 54.121-79.921z"/><path fill="#4D4D4D" d="M106.048 164.701v1.135c-18.129 26.508-35.992 53.415-54.121 79.923v-1.135c18.13-26.508 35.992-53.416 54.121-79.923z"/><path fill="#FFF" d="M106.048 165.836v3.86c-18.102 26.547-35.966 53.453-54.121 79.922v-3.859c18.13-26.508 35.992-53.415 54.121-79.923z"/><path fill="#4D4D4D" d="M106.048 169.696v1.362c-18.129 26.507-35.992 53.416-54.121 79.922v-1.362c18.156-26.469 36.019-53.375 54.121-79.922z"/><path fill="#FFF" d="M106.048 171.058v3.86c-18.129 26.507-35.992 53.415-54.121 79.922v-3.86c18.13-26.506 35.992-53.415 54.121-79.922z"/><path fill="#4D4D4D" d="M106.048 174.918v1.363c-18.129 26.507-35.992 53.414-54.121 79.921v-1.361c18.13-26.508 35.992-53.416 54.121-79.923z"/><path fill="#FFF" d="M106.048 176.281v3.859c-18.129 26.508-35.992 53.415-54.121 79.922v-3.86c18.13-26.507 35.992-53.413 54.121-79.921z"/><path fill="#4D4D4D" d="M106.048 180.141v1.362c-18.129 26.508-35.992 53.416-54.121 79.923v-1.363c18.13-26.507 35.992-53.415 54.121-79.922z"/><path fill="#FFF" d="M106.048 181.502v3.633c-18.114 26.529-35.83 53.655-54.121 79.922v-3.633c18.13-26.506 35.992-53.413 54.121-79.922z"/><path fill="#4D4D4D" d="M106.048 185.136v1.361c-18.105 26.542-35.836 53.645-54.121 79.923v-1.362c18.292-26.267 36.008-53.393 54.121-79.922z"/><path fill="#FFF" d="M106.048 186.497v3.861c-18.082 26.577-35.86 53.609-54.121 79.922v-3.859c18.285-26.279 36.016-53.381 54.121-79.924z"/><path fill="#4D4D4D" d="M106.048 190.358v1.362c-18.073 26.591-35.868 53.599-54.121 79.922v-1.362c18.261-26.313 36.04-53.345 54.121-79.922z"/><path fill="#FFF" d="M106.048 191.72v3.861C88 222.208 70.157 249.143 51.928 275.502v-3.86c18.252-26.324 36.048-53.331 54.12-79.922z"/><path fill="#4D4D4D" d="M106.048 195.581v1.362c-18.039 26.639-35.9 53.55-54.121 79.921v-1.362c18.23-26.359 36.073-53.294 54.121-79.921z"/><path fill="#FFF" d="M106.048 196.943v3.859c-18.015 26.676-35.925 53.512-54.121 79.922v-3.86c18.221-26.371 36.083-53.282 54.121-79.921z"/><path fill="#4D4D4D" d="M106.048 200.802v1.362c-18.007 26.688-35.934 53.5-54.121 79.922v-1.362c18.196-26.41 36.106-53.246 54.121-79.922z"/><path fill="#FFF" d="M106.048 202.165v3.86c-17.983 26.723-35.958 53.464-54.121 79.922v-3.859c18.187-26.424 36.115-53.235 54.121-79.923z"/><path fill="#4D4D4D" d="M106.048 206.024v1.135c-17.901 26.77-36.015 53.227-53.967 79.922-.333.039-.07-.805-.154-1.135 18.163-26.458 36.138-53.198 54.121-79.922z"/><path fill="#FFF" d="M106.048 207.159v3.861c-16.997 25.537-34.255 50.686-51.361 76.062h-2.606c17.952-26.696 36.066-53.153 53.967-79.923z"/><path fill="#4D4D4D" d="M106.048 211.02v1.361c-16.717 25.044-33.665 49.746-50.441 74.701h-.919c17.105-25.376 34.364-50.525 51.36-76.062z"/><path fill="#FFF" d="M106.048 212.381v3.86c-15.841 23.768-31.927 47.171-47.834 70.84h-2.607c16.777-24.955 33.725-49.656 50.441-74.7z"/><path fill="#4D4D4D" d="M106.048 216.241v1.363c-15.532 23.317-31.313 46.263-46.915 69.478h-.919c15.908-23.67 31.993-47.073 47.834-70.841z"/><path fill="#FFF" d="M106.048 217.604v3.859c-14.656 22.041-29.575 43.693-44.308 65.618h-2.607c15.602-23.214 31.383-46.16 46.915-69.477z"/><path fill="#4D4D4D" d="M106.048 221.463v1.363c-14.348 21.589-28.96 42.785-43.389 64.255h-.919c14.734-21.924 29.652-43.577 44.308-65.618z"/><path fill="#FFF" d="M106.048 222.827v3.86a8378.363 8378.363 0 0 0-40.782 60.395h-2.607c14.429-21.471 29.042-42.666 43.389-64.255z"/><path fill="#4D4D4D" d="M106.048 226.687v1.361a7993.93 7993.93 0 0 0-39.862 59.034h-.919a8334.125 8334.125 0 0 1 40.781-60.395z"/><path fill="#FFF" d="M106.048 228.048v3.86a6992.28 6992.28 0 0 0-37.255 55.174h-2.607a7993.93 7993.93 0 0 1 39.862-59.034z"/><path fill="#4D4D4D" d="M106.048 231.908v1.363a6677.377 6677.377 0 0 0-36.336 53.811h-.919a6992.28 6992.28 0 0 1 37.255-55.174z"/><path fill="#FFF" d="M106.048 233.271v3.86a5700.964 5700.964 0 0 0-33.729 49.951h-2.607a6668.173 6668.173 0 0 1 36.336-53.811z"/><path fill="#4D4D4D" d="M106.048 237.131v1.361a5458.804 5458.804 0 0 0-32.81 48.589h-.919a5700.785 5700.785 0 0 1 33.729-49.95z"/><path fill="#FFF" d="M106.048 238.492v3.86a4619.584 4619.584 0 0 0-30.204 44.729h-2.606a5480.442 5480.442 0 0 1 32.81-48.589z"/><path fill="#4D4D4D" d="M106.048 242.353v1.362a4325.398 4325.398 0 0 0-29.283 43.367h-.92a4607.25 4607.25 0 0 1 30.203-44.729z"/><path fill="#FFF" d="M106.048 243.715v3.86a3589.708 3589.708 0 0 0-26.677 39.507h-2.606a4342.453 4342.453 0 0 1 29.283-43.367z"/><path fill="#4D4D4D" d="M106.048 247.575v1.135a3395.385 3395.385 0 0 0-25.91 38.372h-.767a3594.292 3594.292 0 0 1 26.677-39.507z"/><path fill="#FFF" d="M106.048 248.709v3.86c-7.796 11.461-15.58 22.943-23.304 34.512h-2.606a3404.437 3404.437 0 0 1 25.91-38.372z"/><path fill="#4D4D4D" d="M106.048 252.57v1.362a2537.256 2537.256 0 0 0-22.384 33.149h-.92c7.725-11.568 15.508-23.05 23.304-34.511z"/><path fill="#FFF" d="M106.048 253.932v3.86a1978.364 1978.364 0 0 0-19.778 29.29h-2.606a2537.376 2537.376 0 0 1 22.384-33.15z"/><path fill="#4D4D4D" d="M106.048 257.792v1.362a1786.713 1786.713 0 0 0-18.857 27.927h-.92a1975.689 1975.689 0 0 1 19.777-29.289z"/><path fill="#FFF" d="M106.048 259.154v3.86a1328.646 1328.646 0 0 0-16.251 24.067h-2.606a1798.5 1798.5 0 0 1 18.857-27.927z"/><path fill="#4D4D4D" d="M106.048 263.015v1.362a1181.01 1181.01 0 0 0-15.331 22.705h-.92c5.354-8.117 10.77-16.14 16.251-24.067z"/><path fill="#FFF" d="M106.048 264.377v3.632a835.523 835.523 0 0 0-12.878 19.072h-2.453a1193.418 1193.418 0 0 1 15.331-22.704z"/><path fill="#4D4D4D" d="M106.048 268.009v1.363a719.418 719.418 0 0 0-11.959 17.709h-.919a835.523 835.523 0 0 1 12.878-19.072z"/><path fill="#FFF" d="M106.048 269.373v3.858a441.25 441.25 0 0 0-9.352 13.851h-2.607a720.334 720.334 0 0 1 11.959-17.709z"/><path fill="#4D4D4D" d="M106.048 273.231v1.362a359.205 359.205 0 0 0-8.433 12.488h-.919a444.122 444.122 0 0 1 9.352-13.85z"/><path fill="#FFF" d="M106.048 274.593v3.861a171.21 171.21 0 0 0-5.826 8.627h-2.607a362.052 362.052 0 0 1 8.433-12.488z"/><path fill="#4D4D4D" d="M106.048 278.454v1.362a120.495 120.495 0 0 0-4.905 7.266h-.92a170.11 170.11 0 0 1 5.825-8.628z"/><path fill="#FFF" d="M106.048 279.816v3.86a26.605 26.605 0 0 0-2.299 3.406h-2.606a120.966 120.966 0 0 1 4.905-7.266z"/><path fill="#4D4D4D" d="M106.048 283.676v1.363a9.627 9.627 0 0 0-1.38 2.042h-.919a26.663 26.663 0 0 1 2.299-3.405z"/><path fill="#FFF" d="M106.048 285.039v2.042h-1.38a9.627 9.627 0 0 1 1.38-2.042z"/></g><use xlink:href="#c" overflow="visible" fill="none" stroke="#231F20" stroke-width=".5" stroke-miterlimit="10"/></g></svg>