<svg version="1.1" xmlns="http://www.w3.org/2000/svg" x="0" y="0" width="324.948" height="679.43" viewBox="-49.095 -71.715 324.948 679.43" xml:space="preserve"><path fill="none" stroke="#010101" stroke-width="2" d="M203.743 605.844v-19.977H22.501v19.977h181.242"/><path fill="none" stroke="#010101" stroke-width="2" d="M-48.095 584.831v-14.335l3.031.656 7.999 1.742 11.31 2.465 12.961 2.818 12.962 2.816 11.306 2.473 7.999 1.736 3.035.668v19.974l-3.035-.904-7.999-2.383-11.306-3.354-12.962-3.859-12.961-3.859-11.31-3.355-7.999-2.387-3.031-.912zM274.853 585.088V570.996l-3.042.646-7.991 1.715-11.307 2.418-12.96 2.771-12.962 2.779-11.313 2.422-7.996 1.715-3.031.646v20.258l3.031-.918 7.996-2.412 11.313-3.402 12.962-3.9 12.96-3.91 11.307-3.402 7.991-2.42 3.042-.914z"/><path fill="none" stroke="#010101" stroke-width="2" d="M178.326 522.315l1.088 4.305 3.063 4.34 4.764 4.316 6.171 4.266 7.302 4.166 8.155 4.027 8.724 3.854 9 3.621 8.995 3.35 8.72 3.049 8.154 2.688 7.301 2.297 6.183 1.857 4.755 1.387 3.068.861 1.082.299M48.939 522.315l-1.083 4.305-3.063 4.34-4.758 4.316-6.173 4.266-7.301 4.166-8.164 4.027-8.72 3.854-8.999 3.621-8.998 3.35-8.723 3.049-8.156 2.688-7.309 2.297-6.172 1.857-4.76 1.387-3.063.861-1.088.299M178.573 522.479V-70.587"/><path fill="none" stroke="#010101" stroke-width="2" stroke-linecap="round" d="M48.989 522.868V78.064s-.343-103.009 0-127.385C48.5-65.376 32.316-69.373 32.316-69.373"/><path fill="none" stroke="#010101" stroke-width="2" stroke-linecap="round" stroke-linejoin="round" d="M178.231-70.715H31.898"/><path fill="none" stroke="#010101" stroke-width="2" d="M178.815 523.274c.628 13.225-130.106 13.432-129.694-.586"/><path fill="#FFF" stroke="#010101" stroke-width="2" stroke-linecap="round" stroke-linejoin="round" d="M85.721 320.487l.26 132.77"/><path fill="#CECECE" stroke="#010101" stroke-width=".25" stroke-linecap="round" stroke-linejoin="round" d="M109.748 427.965l-.061 8.188-3.967 1.764-3.183 1.941-2.898 2.564-2.147 2.793-1.615 3.484-.829 3.531.207 3.854.913 3.086 1.116 2.236 1.568 2.055 1.987 1.762 2.936 1.865 3.431 1.436 4.009.623 4.093-.109 3.723-.813 3.602-1.428 3.308-2.127 2.356-2.24 2.146-3.229 1.655-4.033.616-3.051-.324-3.457-1.323-3.744-2.188-3.186-1.698-1.582-1.693-1.363-3.35-1.717-.871-.336-.293-11.641c-3.727 1.107-7.439 2.197-11.226 2.874z"/><path stroke="#010101" stroke-width=".25" stroke-linecap="round" stroke-linejoin="round" d="M85.935 426.26c-.007.176-.15 26.295-.156 26.998-.009.986-.013 2.131-.013 2.375 0 12.318 9.966 20.629 23.271 22.605 2.02.297 4.511 15.059 6.666 15.059 1.896 0 3.366-14.75 5.199-15.043 13.025-2.117 23.912-11.379 25.271-22.811.097-.801.589-28.49.589-29.303"/><path fill="none" stroke="#010101" stroke-width="2" stroke-linecap="round" stroke-linejoin="round" d="M85.896 326.966c-.02-.632-.034-5.26-.034-5.903 0-19.777 16.183-35.033 32.493-35.033 16.313 0 29.541 17.468 29.541 39.017"/><path fill="#FFF" stroke="#010101" stroke-width="2" stroke-linecap="round" stroke-linejoin="round" d="M129.177 57.304c0-3.986-2.646-7.217-5.909-7.217h-14.689c-3.266 0-5.909 3.233-5.909 7.217v235.839c0 3.986 2.645 7.221 5.909 7.221h14.689c3.265 0 5.909-3.23 5.909-7.221V57.304z"/><path fill="none" stroke="#010101" stroke-width="2" d="M105.933 257.535h3.778M105.933 253.013h3.778M105.932 248.495h3.773M105.932 243.974h3.773M105.162 239.394h5.227M105.948 234.785h3.78M105.948 230.26h3.78M105.946 225.742h3.776M105.946 221.218h3.776M105.181 216.64h5.224M105.946 212.04h3.778M105.941 207.518h3.774M105.941 202.996h3.774M105.173 198.416h5.229M105.173 175.843h5.229M105.958 193.896h3.777M105.958 189.377h3.777M105.952 184.854h3.778M105.952 180.338h3.775M105.969 171.331h3.778M105.969 166.711h3.778M105.962 162.192h3.776M105.962 157.67h3.78M105.197 153.088h5.227M106.452 148.536h2.852M106.423 148.552h2.854M105.955 148.496l3.78-.004M105.955 143.97h3.78M105.952 139.451h3.775M105.952 134.93h3.775M105.186 130.352h5.226M105.959 125.893h3.778M105.959 121.369h3.778M105.955 116.849h3.777M105.955 112.327h3.777M105.188 107.748h5.225M106.445 103.333h2.854M105.981 103.301h3.773M105.981 98.784h3.773M105.975 94.262h3.774M105.975 89.74h3.774M105.206 85.157h5.227M105.206 63.724h5.227M105.952 80.729h3.775M105.952 76.209h3.775M105.946 71.691h3.78M105.946 67.17h3.78M106.436 280.13h2.854M106.406 280.136h2.853M105.941 280.077h3.774M105.941 275.559l3.774.009M105.933 271.038h3.778M105.933 266.524h3.778M105.167 261.943h5.229"/><g fill="#010101"><path d="M119.591 127.894h-3.412v-.939h4.417v.677c-1.618 2.546-1.959 4.457-2.074 7.743h-.915c.117-3.168.637-5.176 1.984-7.481zM121.517 131.141c0-2.825.823-4.344 2.203-4.344 1.365 0 2.193 1.519 2.193 4.344 0 2.821-.828 4.392-2.193 4.392-1.378-.001-2.203-1.571-2.203-4.392zm3.539 0c0-2.465-.537-3.469-1.333-3.469-.805 0-1.346 1.004-1.346 3.469 0 2.467.543 3.522 1.346 3.522.796 0 1.333-1.057 1.333-3.522z"/></g><g fill="#010101"><path d="M117.433 109.657v-.053c-.51-.434-.957-1.055-.957-1.937 0-1.292.839-2.166 1.946-2.166 1.196 0 1.936.939 1.936 2.243 0 .886-.523 1.637-.944 2.031v.053c.616.437 1.192 1.028 1.192 2.166 0 1.255-.879 2.243-2.213 2.243-1.291 0-2.246-.975-2.246-2.307-.004-1.098.64-1.849 1.286-2.273zm.979 3.775c.795 0 1.341-.607 1.341-1.479 0-1.08-.869-1.475-1.854-1.965-.553.449-.96 1.07-.96 1.834-.002.938.634 1.61 1.473 1.61zm1.179-5.633c0-.831-.437-1.489-1.188-1.489-.638 0-1.109.536-1.109 1.357 0 1.001.753 1.421 1.585 1.821.457-.502.712-1.068.712-1.689zM121.517 109.842c0-2.821.823-4.34 2.203-4.34 1.365 0 2.193 1.518 2.193 4.34 0 2.823-.828 4.397-2.193 4.397-1.378-.003-2.203-1.574-2.203-4.397zm3.539 0c0-2.467-.537-3.466-1.333-3.466-.805 0-1.346 1-1.346 3.466 0 2.467.543 3.523 1.346 3.523.796 0 1.333-1.056 1.333-3.523z"/></g><g fill="#010101"><path d="M116.403 178.737c.406.503.925.962 1.725.962.839 0 1.508-.75 1.508-1.924 0-1.159-.578-1.847-1.459-1.847-.478 0-.767.182-1.178.512l-.472-.371.228-4.049h3.432v.938h-2.656l-.187 2.492c.319-.208.636-.34 1.061-.34 1.172 0 2.121.817 2.121 2.637s-1.112 2.852-2.304 2.852c-1.1 0-1.779-.567-2.251-1.151l.432-.711zM121.517 176.203c0-2.822.823-4.337 2.203-4.337 1.365 0 2.193 1.515 2.193 4.337 0 2.825-.828 4.397-2.193 4.397-1.378 0-2.203-1.572-2.203-4.397zm3.539 0c0-2.463-.537-3.466-1.333-3.466-.805 0-1.346 1.002-1.346 3.466 0 2.47.543 3.525 1.346 3.525.796-.001 1.333-1.056 1.333-3.525z"/></g><g fill="#010101"><path d="M112.636 66.884h1.569v-6.205h-1.254v-.697c.629-.132 1.078-.342 1.457-.619h.675v7.519h1.422v.896h-3.866l-.003-.894zM117.605 63.543c0-2.822.826-4.338 2.203-4.338 1.366 0 2.192 1.516 2.192 4.338 0 2.823-.826 4.394-2.192 4.394-1.377 0-2.203-1.57-2.203-4.394zm3.534 0c0-2.467-.539-3.467-1.331-3.467-.808 0-1.343 1.001-1.343 3.467 0 2.467.539 3.522 1.343 3.522.792.001 1.331-1.054 1.331-3.522zM122.948 63.543c0-2.822.828-4.338 2.207-4.338 1.364 0 2.191 1.516 2.191 4.338 0 2.823-.827 4.394-2.191 4.394-1.383 0-2.207-1.57-2.207-4.394zm3.538 0c0-2.467-.542-3.467-1.331-3.467-.813 0-1.345 1.001-1.345 3.467 0 2.467.535 3.522 1.345 3.522.791.001 1.331-1.054 1.331-3.522z"/></g><g fill="#010101"><path d="M117.083 88.967c.275.407.694.673 1.133.673.966 0 1.779-.924 1.813-3.615-.432.674-1.042 1.081-1.613 1.081-1.183 0-1.94-.871-1.94-2.599 0-1.609.924-2.704 2.021-2.704 1.353 0 2.36 1.347 2.36 4.051 0 3.377-1.248 4.685-2.612 4.685-.73 0-1.275-.385-1.654-.885l.492-.687zm2.92-3.8c-.119-1.636-.646-2.506-1.515-2.506-.671 0-1.194.74-1.194 1.846 0 1.096.421 1.783 1.267 1.783.446-.001.984-.316 1.442-1.123zM121.853 86.143c0-2.822.832-4.34 2.206-4.34 1.366 0 2.192 1.521 2.192 4.34 0 2.824-.826 4.396-2.192 4.396-1.377 0-2.206-1.572-2.206-4.396zm3.538 0c0-2.467-.538-3.468-1.332-3.468-.808 0-1.344 1.002-1.344 3.469 0 2.469.537 3.522 1.344 3.522.799.001 1.332-1.053 1.332-3.523z"/></g><g fill="#010101"><path d="M120.328 150.206c-.28-.409-.699-.656-1.132-.656-.952 0-1.764.907-1.807 3.57.428-.647 1.041-1.055 1.604-1.055 1.182 0 1.956.871 1.956 2.602 0 1.608-.924 2.703-2.035 2.703-1.344 0-2.359-1.344-2.359-4.047 0-3.38 1.246-4.688 2.608-4.688.74 0 1.271.386 1.656.899l-.491.672zm-.218 4.46c0-1.098-.419-1.785-1.264-1.785-.436 0-.973.318-1.432 1.109.104 1.636.632 2.52 1.507 2.52.675.001 1.189-.738 1.189-1.844zM121.853 152.973c0-2.821.829-4.333 2.206-4.333 1.366 0 2.192 1.513 2.192 4.333 0 2.821-.826 4.396-2.192 4.396-1.377-.001-2.206-1.575-2.206-4.396zm3.538 0c0-2.466-.54-3.468-1.332-3.468-.811 0-1.344 1.007-1.344 3.468 0 2.471.537 3.525 1.344 3.525.799-.001 1.332-1.054 1.332-3.525z"/></g><g fill="#010101"><path d="M120.41 200.417h-.938v2.323h-.846v-2.323h-3.078v-.713l2.938-5.383h.99v5.223h.938l-.004.873zm-1.777-.873v-2.439c0-.448.034-1.174.057-1.62h-.044c-.169.405-.363.777-.555 1.183l-1.604 2.876h2.146zM121.183 198.505c0-2.823.822-4.344 2.203-4.344 1.367 0 2.192 1.519 2.192 4.344 0 2.82-.823 4.394-2.192 4.394-1.375 0-2.203-1.573-2.203-4.394zm3.536 0c0-2.472-.536-3.473-1.331-3.473-.806 0-1.34 1.002-1.34 3.473 0 2.467.535 3.519 1.34 3.519.794 0 1.331-1.051 1.331-3.519z"/></g><g fill="#010101"><path d="M115.423 220.044c.41.527.945 1.006 1.757 1.006.825 0 1.417-.61 1.417-1.55 0-1-.558-1.672-2.192-1.672v-.837c1.459 0 1.945-.681 1.945-1.567 0-.819-.448-1.33-1.183-1.33-.569 0-1.06.357-1.464.855l-.474-.686c.528-.604 1.165-1.056 1.97-1.056 1.193 0 2.056.779 2.056 2.141 0 1.014-.506 1.66-1.25 2.007v.05c.826.238 1.482.977 1.482 2.137 0 1.489-1.001 2.397-2.261 2.397-1.095 0-1.792-.565-2.257-1.187l.454-.708zM120.51 217.552c0-2.825.83-4.342 2.203-4.342 1.368 0 2.196 1.52 2.196 4.342 0 2.824-.828 4.388-2.196 4.388-1.373-.001-2.203-1.565-2.203-4.388zm3.54 0c0-2.469-.542-3.473-1.333-3.473-.809 0-1.343 1.005-1.343 3.473s.537 3.521 1.343 3.521c.791-.002 1.333-1.053 1.333-3.521z"/></g><g fill="#010101"><path d="M115.125 243.896c2.063-2.52 3.225-4.037 3.225-5.395 0-.967-.429-1.652-1.3-1.652-.568 0-1.063.451-1.462 1.018l-.507-.617c.573-.767 1.188-1.286 2.078-1.286 1.266 0 2.052.995 2.052 2.483 0 1.584-1.172 3.159-2.793 5.241.373-.044.796-.084 1.146-.084h1.984v.939h-4.425l.002-.647zM120.51 240.304c0-2.82.83-4.342 2.203-4.342 1.368 0 2.196 1.521 2.196 4.342 0 2.822-.828 4.398-2.196 4.398-1.373-.001-2.203-1.57-2.203-4.398zm3.54 0c0-2.464-.542-3.466-1.333-3.466-.809 0-1.343 1.002-1.343 3.466 0 2.474.537 3.53 1.343 3.53.791-.001 1.333-1.058 1.333-3.53z"/></g><g fill="#010101"><path d="M114.871 266.726h1.567v-6.198h-1.243v-.699c.623-.134 1.071-.347 1.445-.623h.684v7.521h1.418v.891h-3.867v-.891l-.004-.001zM119.839 263.386c0-2.82.825-4.338 2.206-4.338 1.36 0 2.193 1.518 2.193 4.338 0 2.822-.833 4.396-2.193 4.396-1.381-.001-2.206-1.575-2.206-4.396zm3.539 0c0-2.464-.543-3.467-1.333-3.467-.812 0-1.348 1.003-1.348 3.467 0 2.468.543 3.523 1.348 3.523.793.004 1.333-1.055 1.333-3.523z"/></g><path fill="#010101" d="M118.524 281.012c0-2.819.83-4.338 2.203-4.338 1.371 0 2.193 1.521 2.193 4.338 0 2.826-.822 4.397-2.193 4.397-1.372.004-2.203-1.571-2.203-4.397zm3.539 0c0-2.457-.538-3.463-1.334-3.463-.804 0-1.339 1.006-1.339 3.463 0 2.479.539 3.523 1.339 3.523.796.001 1.334-1.045 1.334-3.523z"/><path fill="#C6C6C6" stroke="#010101" stroke-width=".25" stroke-linecap="round" stroke-linejoin="round" d="M122.609 426.303l-.229-60.553-10.905.223-.134 60.188"/><path fill="none" d="M120.641 387.584l-9.152 2.646v-3.5"/><path fill="none" stroke="#010101" stroke-width="2" d="M113.321 391.113h5.53M113.321 386.323h5.53M113.315 381.525h5.534M113.311 376.729h5.538M112.191 371.866h7.657M113.346 366.98h5.532M113.346 362.189h5.532M113.335 357.393h5.536M113.332 352.602h5.539M112.215 347.747h7.659M113.339 342.861h5.534M113.332 338.064h5.531M113.332 333.274h5.531M112.209 328.41h7.651M114.052 415.084h4.183M114.015 415.092h4.18M113.332 415.025h5.531M113.332 410.234h5.531M113.324 405.439h5.535M113.324 400.643h5.535M112.197 395.784h7.66"/><g fill="#010101"><path d="M99.862 330.375h-1.373v2.467h-1.228v-2.467h-4.523v-.752l4.303-5.709h1.448v5.543h1.373v.918zm-2.602-.918v-2.585c0-.481.049-1.251.079-1.725h-.063c-.254.431-.538.822-.82 1.262l-2.349 3.05 3.153-.002zM100.997 328.346c0-2.993 1.218-4.603 3.229-4.603 2.004 0 3.213 1.609 3.213 4.603 0 2.998-1.209 4.661-3.213 4.661-2.014.003-3.229-1.659-3.229-4.661zm5.184 0c0-2.619-.791-3.678-1.955-3.678-1.183 0-1.973 1.062-1.973 3.678 0 2.617.789 3.744 1.973 3.744 1.164 0 1.955-1.128 1.955-3.744z"/></g><g fill="#010101"><path d="M92.558 351.182c.597.563 1.387 1.07 2.565 1.07 1.215 0 2.083-.646 2.083-1.642 0-1.062-.822-1.771-3.212-1.771v-.889c2.142 0 2.852-.727 2.852-1.664 0-.863-.663-1.414-1.732-1.414-.836 0-1.545.377-2.143.912l-.695-.731c.771-.636 1.701-1.117 2.884-1.117 1.75 0 3.01.826 3.01 2.271 0 1.078-.74 1.764-1.826 2.129v.047c1.215.262 2.175 1.035 2.175 2.271 0 1.584-1.468 2.549-3.308 2.549-1.609 0-2.635-.601-3.311-1.263l.658-.758zM100.01 348.543c0-2.99 1.211-4.599 3.233-4.599 2 0 3.211 1.609 3.211 4.599 0 3.004-1.216 4.66-3.211 4.66-2.023.005-3.233-1.656-3.233-4.66zm5.183 0c0-2.621-.787-3.678-1.949-3.678-1.185 0-1.971 1.061-1.971 3.678s.786 3.74 1.971 3.74c1.162.003 1.949-1.116 1.949-3.74z"/></g><g fill="#010101"><path d="M92.12 376.479c3.021-2.668 4.728-4.271 4.728-5.717 0-1.021-.636-1.756-1.908-1.756-.835 0-1.561.484-2.146 1.082l-.737-.654c.837-.813 1.732-1.357 3.041-1.357 1.86 0 3.009 1.045 3.009 2.625 0 1.684-1.715 3.342-4.096 5.559.552-.036 1.166-.086 1.686-.086h2.915v.996h-6.487l-.005-.692zM100.01 372.682c0-2.998 1.211-4.604 3.233-4.604 2 0 3.211 1.609 3.211 4.604s-1.216 4.656-3.211 4.656c-2.023 0-3.233-1.662-3.233-4.656zm5.183 0c0-2.613-.787-3.686-1.949-3.686-1.185 0-1.971 1.069-1.971 3.686 0 2.611.786 3.73 1.971 3.73 1.162.001 1.949-1.119 1.949-3.73z"/></g><g fill="#010101"><path d="M91.745 400.7h2.3v-6.58H92.22v-.742c.912-.14 1.57-.355 2.128-.654h.991v7.973h2.082v.955h-5.674l-.002-.952zM99.027 397.167c0-3.013 1.214-4.611 3.231-4.611 1.997 0 3.209 1.602 3.209 4.611 0 2.987-1.213 4.653-3.209 4.653-2.018-.002-3.231-1.666-3.231-4.653zm5.184 0c0-2.629-.791-3.681-1.957-3.681-1.178 0-1.969 1.058-1.969 3.681 0 2.61.79 3.727 1.969 3.727 1.166.002 1.957-1.117 1.957-3.727z"/></g><path fill="#010101" d="M97.107 415.854c0-2.988 1.212-4.594 3.229-4.594 2 0 3.213 1.604 3.213 4.594 0 3.002-1.214 4.662-3.213 4.662-2.017 0-3.229-1.662-3.229-4.662zm5.18 0c0-2.607-.785-3.672-1.952-3.672-1.184 0-1.975 1.068-1.975 3.672 0 2.617.791 3.738 1.975 3.738 1.166 0 1.952-1.127 1.952-3.738z"/><g fill="#010101"><path d="M134.526 330.537h-1.375v2.465h-1.224v-2.465h-4.524v-.746l4.305-5.714h1.446v5.543h1.373l-.001.917zm-2.596-.92v-2.593c0-.477.043-1.241.074-1.717h-.061c-.251.433-.538.827-.817 1.259l-2.349 3.054 3.153-.003zM135.66 328.503c0-2.988 1.216-4.596 3.231-4.596 1.996 0 3.21 1.607 3.21 4.596 0 3.004-1.214 4.662-3.21 4.662-2.015.001-3.231-1.658-3.231-4.662zm5.188 0c0-2.615-.79-3.676-1.955-3.676-1.184 0-1.976 1.065-1.976 3.676 0 2.62.792 3.735 1.976 3.735 1.165.004 1.955-1.114 1.955-3.735z"/></g><g fill="#010101"><path d="M127.225 351.354c.6.563 1.389 1.063 2.567 1.063 1.21 0 2.076-.646 2.076-1.64 0-1.065-.813-1.778-3.209-1.778v-.875c2.141 0 2.852-.734 2.852-1.668 0-.865-.662-1.408-1.731-1.408-.835 0-1.546.373-2.144.908l-.694-.732c.771-.639 1.705-1.119 2.887-1.119 1.751 0 3.011.828 3.011 2.271 0 1.076-.739 1.758-1.828 2.121v.061c1.216.254 2.176 1.027 2.176 2.266 0 1.578-1.465 2.545-3.313 2.545-1.604 0-2.626-.604-3.307-1.256l.657-.759zM134.677 348.711c0-3.004 1.209-4.604 3.227-4.604 2.007 0 3.216 1.605 3.216 4.604 0 2.994-1.217 4.652-3.216 4.652-2.018.003-3.227-1.661-3.227-4.652zm5.184 0c0-2.621-.79-3.678-1.957-3.678-1.187 0-1.972 1.059-1.972 3.678 0 2.617.785 3.731 1.972 3.731 1.167.003 1.957-1.115 1.957-3.731z"/></g><g fill="#010101"><path d="M126.784 376.652c3.028-2.678 4.729-4.28 4.729-5.726 0-1.021-.629-1.745-1.909-1.745-.835 0-1.562.478-2.143 1.069l-.74-.655c.833-.812 1.73-1.356 3.036-1.356 1.858 0 3.01 1.055 3.01 2.625 0 1.682-1.716 3.346-4.097 5.559a23.078 23.078 0 0 1 1.688-.086h2.915v.996h-6.49l.001-.681zM134.677 372.836c0-2.988 1.209-4.603 3.227-4.603 2.007 0 3.216 1.617 3.216 4.603 0 2.998-1.217 4.656-3.216 4.656-2.018.008-3.227-1.658-3.227-4.656zm5.184 0c0-2.621-.79-3.678-1.957-3.678-1.187 0-1.972 1.063-1.972 3.678 0 2.617.785 3.731 1.972 3.731 1.167.006 1.957-1.106 1.957-3.731z"/></g><g fill="#010101"><path d="M126.415 400.87h2.302v-6.582h-1.833v-.744c.916-.142 1.579-.357 2.128-.66h.994v7.986h2.083v.946h-5.673l-.001-.946zM133.689 397.32c0-2.993 1.213-4.596 3.232-4.596 1.997 0 3.215 1.604 3.215 4.596 0 3.005-1.218 4.664-3.215 4.664-2.015 0-3.232-1.666-3.232-4.664zm5.184 0c0-2.612-.789-3.678-1.954-3.678-1.178 0-1.966 1.065-1.966 3.678 0 2.621.788 3.746 1.966 3.746 1.174 0 1.954-1.132 1.954-3.746z"/></g><path fill="#010101" d="M131.77 416.014c0-2.99 1.216-4.604 3.229-4.604 2.003 0 3.215 1.616 3.215 4.604 0 3.008-1.212 4.66-3.215 4.66-2.013 0-3.229-1.653-3.229-4.66zm5.184 0c0-2.621-.788-3.672-1.955-3.672-1.183 0-1.97 1.061-1.97 3.672 0 2.625.787 3.734 1.97 3.734 1.167.008 1.955-1.109 1.955-3.734z"/><path fill="none" d="M112.677 311.808h15.925v17.359h-15.925z"/><path fill="#010101" d="M119.453 312.583c1.559 0 2.775.662 3.523 1.416l-.928.933c-.667-.652-1.492-1.069-2.572-1.069-2.461 0-4.077 1.78-4.077 4.634 0 2.883 1.553 4.701 3.997 4.701 1.24 0 2.143-.453 2.971-1.283l.927.899c-1.023 1.046-2.288 1.656-3.938 1.656-3.25 0-5.65-2.203-5.65-5.943-.002-3.686 2.437-5.944 5.747-5.944z"/><ellipse fill="none" stroke="#000" stroke-width=".25" cx="110.981" cy="313.496" rx="1.747" ry="1.377"/><path fill="none" stroke="#010101" stroke-width="2" d="M177.371 95.513s-59.884 52.19-129.288 1.244"/><path fill="#FFF" stroke="#010101" stroke-width="2" stroke-linecap="round" stroke-linejoin="round" d="M147.406 450.821l.978-97.505v-31.317"/></svg>