<svg version="1.1" xmlns="http://www.w3.org/2000/svg" x="0" y="0" width="325.984" height="327.113" viewBox="0 0 325.984 327.113" xml:space="preserve"><path d="M85.032 244.188H70.214c-.884 0-.884 1.58 0 1.58h14.818c.884 0 .884-1.58 0-1.58zM85.032 239.759H70.214c-.884 0-.884 1.58 0 1.58h14.818c.884 0 .884-1.58 0-1.58zM70.196 236.907h14.816c.884 0 .884-1.58 0-1.58H70.196c-.884 0-.884 1.58 0 1.58zM70.196 232.48h14.816c.884 0 .884-1.581 0-1.581H70.196c-.884 0-.884 1.581 0 1.581zM67.189 227.997h20.507c.884 0 .884-1.58 0-1.58H67.189c-.884 0-.884 1.58 0 1.58zM85.096 221.898H70.282c-.884 0-.884 1.581 0 1.581h14.814c.884 0 .884-1.581 0-1.581zM85.096 217.471H70.282c-.884 0-.884 1.58 0 1.58h14.814c.884 0 .884-1.58 0-1.58zM70.259 214.617h14.818c.884 0 .884-1.58 0-1.58H70.259c-.884 0-.884 1.58 0 1.58zM70.259 210.192h14.818c.884 0 .884-1.58 0-1.58H70.259c-.884 0-.884 1.58 0 1.58zM87.761 204.127H67.254c-.884 0-.884 1.581 0 1.581h20.507c.884 0 .884-1.581 0-1.581zM70.266 201.196h14.815c.884 0 .884-1.581 0-1.581H70.266c-.883 0-.883 1.581 0 1.581zM70.247 196.771h14.816c.884 0 .884-1.58 0-1.58H70.247c-.884 0-.884 1.58 0 1.58zM70.247 192.34h14.816c.884 0 .884-1.58 0-1.58H70.247c-.884 0-.884 1.58 0 1.58zM67.236 187.85h20.51c.884 0 .884-1.58 0-1.58h-20.51c-.884 0-.884 1.58 0 1.58zM85.127 181.847H70.311c-.884 0-.884 1.581 0 1.581h14.816c.884 0 .884-1.581 0-1.581zM85.127 177.418H70.311c-.884 0-.884 1.58 0 1.58h14.816c.884.001.884-1.58 0-1.58zM70.29 174.574h14.816c.884 0 .884-1.58 0-1.58H70.29c-.884 0-.884 1.58 0 1.58zM70.29 170.145h14.816c.884 0 .884-1.581 0-1.581H70.29c-.884 0-.884 1.581 0 1.581zM87.792 164.08h-20.51c-.884 0-.884 1.58 0 1.58h20.51c.884 0 .884-1.58 0-1.58zM85.167 159.739H70.351c-.884 0-.884 1.581 0 1.581h14.816c.884 0 .884-1.581 0-1.581zM85.167 155.221H70.351c-.884 0-.884 1.581 0 1.581h14.816c.884 0 .884-1.581 0-1.581zM70.329 152.373h14.813c.884 0 .884-1.58 0-1.58H70.329c-.883 0-.883 1.58 0 1.58zM70.329 147.947h14.813c.884 0 .884-1.581 0-1.581H70.329c-.883 0-.883 1.581 0 1.581zM87.832 141.876h-20.51c-.884 0-.884 1.581 0 1.581h20.51c.884 0 .884-1.581 0-1.581zM85.121 137.373H70.305c-.884 0-.884 1.581 0 1.581h1.583c.073.031.15.057.242.057h11.198c.019 0 .031-.01.048-.012h.062c.073 0 .131-.024.193-.045h1.49c.884-.001.884-1.581 0-1.581zM85.121 132.944H70.305c-.884 0-.884 1.58 0 1.58h14.816c.884 0 .884-1.58 0-1.58zM70.285 130.098h14.812c.884 0 .884-1.581 0-1.581H70.285c-.884.001-.884 1.581 0 1.581zM70.285 125.667h14.812c.884 0 .884-1.58 0-1.58H70.285c-.884 0-.884 1.58 0 1.58zM67.273 121.181h20.511c.884 0 .884-1.581 0-1.581H67.273c-.884 0-.884 1.581 0 1.581zM85.135 115.233H70.318c-.884 0-.884 1.581 0 1.581h14.817c.883 0 .883-1.581 0-1.581zM85.135 110.805H70.318c-.884 0-.884 1.581 0 1.581h14.817c.883-.001.883-1.581 0-1.581zM70.298 107.956h14.817c.884 0 .884-1.58 0-1.58H70.298c-.884-.001-.884 1.58 0 1.58zM70.298 103.528h14.817c.884 0 .884-1.581 0-1.581H70.298c-.884.001-.884 1.581 0 1.581zM67.291 99.041h20.507c.884 0 .884-1.58 0-1.58H67.291c-.884 0-.884 1.58 0 1.58zM85.207 93.106H70.389c-.884 0-.884 1.581 0 1.581h1.682c.046.01.084.032.137.032h11.199c.052 0 .09-.021.137-.032h1.664c.883 0 .883-1.581-.001-1.581zM85.207 88.678H70.389c-.884 0-.884 1.581 0 1.581h14.818c.884-.001.884-1.581 0-1.581zM70.368 85.831h14.816c.884 0 .884-1.581 0-1.581H70.368c-.883 0-.883 1.581 0 1.581zM70.368 81.403h14.816c.884 0 .884-1.58 0-1.58H70.368c-.883 0-.883 1.58 0 1.58zM87.868 75.334H67.361c-.884 0-.884 1.581 0 1.581h20.507c.884 0 .884-1.581 0-1.581zM85.106 70.995H70.29c-.884 0-.884 1.58 0 1.58h14.816c.884 0 .884-1.58 0-1.58zM85.106 66.568H70.29c-.884 0-.884 1.581 0 1.581h14.816c.884 0 .884-1.581 0-1.581zM70.272 63.719h14.814c.884 0 .884-1.58 0-1.58H70.272c-.885 0-.885 1.58 0 1.58zM70.272 59.292h14.814c.884 0 .884-1.581 0-1.581H70.272c-.885 0-.885 1.581 0 1.581zM62.633 54.803h32.061c.884 0 .884-1.581 0-1.581H62.633c-.884 0-.884 1.581 0 1.581zM85.061 266.276H70.244c-.884 0-.884 1.58 0 1.58h1.588a.59.59 0 0 0 .237.056h11.198c.019 0 .031-.011.048-.012h.063c.072 0 .129-.024.189-.044h1.493c.885 0 .885-1.58.001-1.58zM85.061 261.844H70.244c-.884 0-.884 1.58 0 1.58h14.817c.884 0 .884-1.58 0-1.58zM70.224 258.995h14.814c.884 0 .884-1.58 0-1.58H70.224c-.883 0-.883 1.58 0 1.58zM70.224 254.569h14.814c.884 0 .884-1.581 0-1.581H70.224c-.883 0-.883 1.581 0 1.581zM87.726 248.503H67.215c-.884 0-.884 1.58 0 1.58h20.511c.884 0 .884-1.58 0-1.58z"/><path d="M150.18 299.128l-.002-.013a.64.64 0 0 0-.43-.422c-7.095-2.029-14.185-4.284-21.015-7.091-6.021-2.474-16.811-5.894-19.134-12.772.002-.017.008-.03.008-.046a.761.761 0 0 0-.105-.431v-93.96V43.67 21.628c0-.383-.198-.616-.441-.706a.583.583 0 0 0-.373-.139H46.769c-.674 0-.83.915-.476 1.352-.021.339.116.685.476.783 6.573 1.783 6.545 7.982 6.52 13.558-.03 6.707-.025 13.414-.019 20.121.008 9.81.062 19.619.062 29.428v192.142c-1.77 7.154-12.664 10.686-18.745 13.184-6.879 2.827-13.985 5.153-21.134 7.196l-.35-.078c-.486-.107-.851.288-.851.763v6.212c0 .031.011.053.015.083.001.019.007.035.009.053.012.078.022.154.05.217a.652.652 0 0 0 .419.409c9.927 3.131 19.917 6.066 29.869 9.112.047.015.086-.001.13.002.019.002.031.013.049.013h76.453c.154.178.375.283.634.203 9.957-3.073 19.907-6.166 29.87-9.218a.643.643 0 0 0 .421-.414c.021-.049.028-.109.04-.167.006-.035.016-.066.018-.102.002-.029.014-.05.014-.079v-6.106c0-.023-.011-.043-.014-.065a.792.792 0 0 0-.049-.257zM49.55 22.365h58.609v255.612a.785.785 0 0 0-.078.604c.033.133.086.255.125.386-.6 1.717-8.24 2.323-9.257 2.449-5.766.71-11.61.87-17.416.873-5.607.003-11.231-.23-16.804-.865-1.229-.14-9.875-.786-9.997-2.896-.005-.089-.031-.162-.056-.235V161.225c0-30.533.021-61.067-.042-91.602a6219.258 6219.258 0 0 1-.008-31.148c.017-6 .544-13.045-5.076-16.11zm-7.428 284.244V313.536c-9.508-2.902-19.044-5.717-28.526-8.7v-4.65c6.364 1.424 12.727 2.84 19.09 4.26 2.993.667 5.984 1.344 8.978 2.005.226.051.364.038.458.005v.153zm76.689 7.144H43.466v-7.072h75.345v7.072zm.966-8.569a.582.582 0 0 0-.294-.083H42.817c-8.752-1.935-17.497-3.896-26.241-5.855 6.904-2.073 13.706-4.453 20.377-7.194 5.79-2.378 14.482-5.71 17.148-11.936 1.547 1.653 5.214 2.058 6.907 2.358 6.74 1.195 13.697 1.372 20.525 1.397 6.639.022 13.386-.18 19.953-1.222 1.642-.261 5.572-.59 7.29-2.189 2.841 6.003 11.299 9.255 16.982 11.591 6.772 2.783 13.678 5.182 20.689 7.283-8.889 1.956-17.781 3.893-26.67 5.85zm29.123-.237c-9.515 2.916-19.018 5.868-28.525 8.802v-3.365-3.269c0-.219.004-.355.009-.461 3.024-.667 6.05-1.328 9.074-1.991 6.482-1.419 12.962-2.835 19.441-4.263l.001 4.547zM181.797 236.093h-10.962c-.884 0-.884 1.58 0 1.58h10.962c.882 0 .882-1.58 0-1.58zM181.797 232.756h-10.962c-.884 0-.884 1.581 0 1.581h10.962c.882 0 .882-1.581 0-1.581zM170.818 230.998h10.964c.884 0 .884-1.581 0-1.581h-10.964c-.883 0-.883 1.581 0 1.581zM170.818 227.654h10.964c.884 0 .884-1.58 0-1.58h-10.964c-.883 0-.883 1.58 0 1.58zM168.594 224.272h15.171c.884 0 .884-1.58 0-1.58h-15.171c-.885 0-.885 1.58 0 1.58zM181.844 219.283h-10.96c-.884 0-.884 1.58 0 1.58h10.96c.883 0 .883-1.58 0-1.58zM181.844 215.943h-10.96c-.884 0-.884 1.58 0 1.58h10.96c.883 0 .883-1.58 0-1.58zM170.866 214.181h10.962c.884 0 .884-1.58 0-1.58h-10.962c-.884 0-.884 1.58 0 1.58zM170.866 210.839h10.962c.884 0 .884-1.58 0-1.58h-10.962c-.884 0-.884 1.58 0 1.58zM183.812 205.877h-15.17c-.884 0-.884 1.58 0 1.58h15.17c.884.001.884-1.58 0-1.58zM170.869 204.06h10.964c.884 0 .884-1.58 0-1.58h-10.964c-.884 0-.884 1.58 0 1.58zM170.857 200.716h10.961c.884 0 .884-1.581 0-1.581h-10.961c-.883 0-.883 1.581 0 1.581zM170.857 197.379h10.961c.884 0 .884-1.581 0-1.581h-10.961c-.883 0-.883 1.581 0 1.581zM168.631 193.995h15.17c.884 0 .884-1.58 0-1.58h-15.17c-.885 0-.885 1.58 0 1.58zM181.863 189.078h-10.958c-.884 0-.884 1.581 0 1.581h10.958c.884 0 .884-1.581 0-1.581zM181.863 185.74h-10.958c-.884 0-.884 1.581 0 1.581h10.958c.884 0 .884-1.581 0-1.581zM170.889 183.976h10.961c.884 0 .884-1.58 0-1.58h-10.961c-.883 0-.883 1.58 0 1.58zM170.889 180.637h10.961c.884 0 .884-1.58 0-1.58h-10.961c-.883 0-.883 1.58 0 1.58zM183.835 175.672h-15.172c-.884 0-.884 1.58 0 1.58h15.172c.884 0 .884-1.58 0-1.58zM181.894 172.404h-10.961c-.885 0-.885 1.581 0 1.581h10.961c.884 0 .884-1.581 0-1.581zM181.894 168.991h-10.961c-.885 0-.885 1.58 0 1.58h10.961c.884 0 .884-1.58 0-1.58zM170.917 167.234h10.966c.884 0 .884-1.58 0-1.58h-10.966c-.884 0-.884 1.58 0 1.58zM170.917 163.894h10.966c.884 0 .884-1.581 0-1.581h-10.966c-.884 0-.884 1.581 0 1.581zM183.861 158.928h-15.168c-.884 0-.884 1.581 0 1.581h15.168c.884 0 .884-1.581 0-1.581zM181.861 155.529H170.9c-.884 0-.884 1.581 0 1.581h1.17c.058.018.111.042.18.042h8.285c.016 0 .025-.008.04-.009h.041c.054 0 .094-.021.14-.033h1.105c.884-.001.884-1.581 0-1.581zM181.861 152.19H170.9c-.884 0-.884 1.581 0 1.581h10.961c.884 0 .884-1.581 0-1.581zM170.884 150.431h10.962c.884 0 .884-1.581 0-1.581h-10.962c-.884 0-.884 1.581 0 1.581zM170.884 147.09h10.962c.884 0 .884-1.581 0-1.581h-10.962c-.884 0-.884 1.581 0 1.581zM168.659 143.704h15.171c.883 0 .883-1.581 0-1.581h-15.171c-.884 0-.884 1.581 0 1.581zM181.869 138.833h-10.96c-.884 0-.884 1.581 0 1.581h10.96c.884 0 .884-1.581 0-1.581zM181.869 135.49h-10.96c-.884 0-.884 1.58 0 1.58h10.96c.884 0 .884-1.58 0-1.58zM170.897 133.73h10.959c.884 0 .884-1.58 0-1.58h-10.959c-.884 0-.884 1.58 0 1.58zM170.897 130.391h10.959c.884 0 .884-1.58 0-1.58h-10.959c-.884 0-.884 1.58 0 1.58zM168.67 127.006h15.17c.884 0 .884-1.581 0-1.581h-15.17c-.885.001-.885 1.581 0 1.581zM181.924 122.144h-10.962c-.884 0-.884 1.581 0 1.581h1.259c.03.004.055.021.088.021h8.284c.034 0 .057-.017.087-.021h1.244c.883-.001.883-1.581 0-1.581zM181.924 118.801h-10.962c-.884 0-.884 1.58 0 1.58h10.962c.883 0 .883-1.58 0-1.58zM170.947 117.041h10.96c.884 0 .884-1.581 0-1.581h-10.96c-.884 0-.884 1.581 0 1.581zM170.947 113.702h10.96c.884 0 .884-1.58 0-1.58h-10.96c-.884 0-.884 1.58 0 1.58zM183.892 108.737h-15.173c-.884 0-.884 1.58 0 1.58h15.173c.884 0 .884-1.58 0-1.58zM181.85 105.463h-10.961c-.884 0-.884 1.58 0 1.58h10.961c.884 0 .884-1.58 0-1.58zM181.85 102.125h-10.961c-.884 0-.884 1.58 0 1.58h10.961c.884 0 .884-1.58 0-1.58zM170.872 100.363h10.966c.884 0 .884-1.581 0-1.581h-10.966c-.884.001-.884 1.581 0 1.581zM170.872 97.024h10.966c.884 0 .884-1.581 0-1.581h-10.966c-.884.001-.884 1.581 0 1.581zM165.223 93.639h23.716c.884 0 .884-1.58 0-1.58h-23.716c-.883 0-.883 1.58 0 1.58zM181.816 252.754h-10.961c-.884 0-.884 1.581 0 1.581h1.178c.056.015.106.04.172.04h8.283c.011 0 .017-.007.027-.007h.059c.055 0 .097-.022.145-.033h1.098c.883 0 .883-1.581-.001-1.581zM181.816 249.417h-10.961c-.884 0-.884 1.581 0 1.581h10.961c.884 0 .884-1.581 0-1.581zM170.84 247.654h10.962c.884 0 .884-1.58 0-1.58H170.84c-.885 0-.885 1.58 0 1.58zM170.84 244.317h10.962c.884 0 .884-1.581 0-1.581H170.84c-.885 0-.885 1.581 0 1.581zM183.784 239.354h-15.17c-.884 0-.884 1.58 0 1.58h15.17c.884 0 .884-1.58 0-1.58z"/><path d="M229.717 277.208c-5.172-1.483-10.352-3.167-15.317-5.246-4.44-1.86-12.528-4.473-14.252-9.569l.002-.007a.75.75 0 0 0-.078-.405v-47.005c.012.003.021.013.034.015 14.417 2.589 29.196-.273 43.73-.168 1.441.01 1.339-2.343-.06-2.445-14.512-1.049-28.973 2.394-43.538 1.216-.062-.006-.113.012-.167.026v-60.944-84.251c0-.35-.169-.57-.383-.675a.586.586 0 0 0-.396-.158h-45.803c-.638 0-.809.819-.525 1.277.003.316.147.622.479.716 6.361 1.802 4.686 10.543 4.679 15.644-.009 7.155.003 14.31.019 21.465.019 8.505.027 17.01.027 25.515v81.348a1.107 1.107 0 0 0-.79-.464c-15.364-1.623-30.942-.7-46.354-.572-1.243.01-1.188 2.153.052 2.16 15.486.084 30.899-.205 46.362.833a.865.865 0 0 0 .73-.281v46.659c-1.302 5.286-9.42 7.977-13.899 9.853-5.02 2.102-10.222 3.839-15.449 5.349l-.191-.043c-.483-.111-.85.29-.85.763v4.684c0 .033.012.057.015.087 0 .006.002.01.003.015a.81.81 0 0 0 .058.255.665.665 0 0 0 .417.406c7.34 2.364 14.736 4.562 22.095 6.873.039.012.072-.002.109.002.025.003.043.018.069.018h56.491a.575.575 0 0 0 .582.145c7.373-2.298 14.74-4.615 22.1-6.954a.654.654 0 0 0 .417-.408.859.859 0 0 0 .053-.227c.002-.016.007-.029.007-.043.004-.03.016-.053.016-.085v-4.603c0-.025-.011-.048-.014-.072-.012-.312-.158-.606-.48-.699zM156.149 69.17h42.578v192.584a.792.792 0 0 0-.052.528c.021.083.054.159.076.24-.531 1.113-6.258 1.604-6.9 1.684-4.06.498-8.171.613-12.258.63-4.143.017-8.293-.157-12.413-.605-.812-.088-7.505-.604-7.628-2.036-.005-.058-.027-.101-.04-.152V158.651c0-13.964.042-27.928-.001-41.892a8908.33 8908.33 0 0 1-.047-27.355c0-4.548-.006-9.097.043-13.645.028-2.672-1.254-5.119-3.358-6.589zm-6.275 219.172c-6.912-2.162-13.854-4.239-20.751-6.454v-3.121c4.692 1.075 9.388 2.134 14.082 3.196 1.172.266 2.344.536 3.515.804.846.193 3.154 1.139 3.154.208v5.367zm56.733.227h-55.39v-4.951h55.39v4.951zm.909-6.472a.565.565 0 0 0-.237-.06h-56.705c-6.228-1.415-12.457-2.824-18.683-4.247a162.245 162.245 0 0 0 14.612-5.311c4.26-1.784 10.411-4.293 12.469-8.804 1.137 1.035 3.267 1.344 4.531 1.594 5.009.989 10.228 1.109 15.315 1.146 5.185.037 10.415-.17 15.541-.981 1.264-.201 3.648-.471 4.93-1.512 2.167 4.355 8.175 6.807 12.354 8.558a161.577 161.577 0 0 0 14.831 5.377c-6.319 1.413-12.644 2.807-18.958 4.24zm21.351-.126a4225.703 4225.703 0 0 1-20.754 6.531v-5.303c0 .585 5.289-.815 6.496-1.085 4.754-1.062 9.506-2.119 14.258-3.187v3.044zM267.354 221.294h-9.14c-.884 0-.884 1.58 0 1.58h9.14c.884.001.884-1.58 0-1.58zM267.354 218.512h-9.14c-.884 0-.884 1.58 0 1.58h9.14c.884 0 .884-1.58 0-1.58zM258.201 217.307h9.142c.884 0 .884-1.58 0-1.58h-9.142c-.884 0-.884 1.58 0 1.58zM258.201 214.52h9.142c.884 0 .884-1.58 0-1.58h-9.142c-.884 0-.884 1.58 0 1.58zM256.345 211.701h12.649c.884 0 .884-1.58 0-1.58h-12.649c-.883 0-.883 1.58 0 1.58zM267.394 207.278h-9.139c-.885 0-.885 1.58 0 1.58h9.139c.884 0 .884-1.58 0-1.58zM267.394 204.493h-9.139c-.885 0-.885 1.581 0 1.581h9.139c.884 0 .884-1.581 0-1.581zM258.241 203.287h9.14c.884 0 .884-1.581 0-1.581h-9.14c-.884 0-.884 1.581 0 1.581zM258.241 200.5h9.14c.884 0 .884-1.58 0-1.58h-9.14c-.884-.001-.884 1.58 0 1.58zM269.035 196.1h-12.648c-.884 0-.884 1.581 0 1.581h12.648c.884 0 .884-1.581 0-1.581zM258.243 194.847h9.142c.884 0 .884-1.581 0-1.581h-9.142c-.884 0-.884 1.581 0 1.581zM258.233 192.06h9.14c.884 0 .884-1.581 0-1.581h-9.14c-.884 0-.884 1.581 0 1.581zM258.233 189.278h9.14c.884 0 .884-1.581 0-1.581h-9.14c-.884 0-.884 1.581 0 1.581zM256.377 186.456h12.648c.884 0 .884-1.581 0-1.581h-12.648c-.884 0-.884 1.581 0 1.581zM267.41 182.092h-9.137c-.885 0-.885 1.581 0 1.581h9.137c.884 0 .884-1.581 0-1.581zM267.41 179.309h-9.137c-.885 0-.885 1.581 0 1.581h9.137c.884 0 .884-1.581 0-1.581zM258.26 178.101h9.139c.884 0 .884-1.58 0-1.58h-9.139c-.883 0-.883 1.58 0 1.58zM258.26 175.318h9.139c.884 0 .884-1.58 0-1.58h-9.139c-.883 0-.883 1.58 0 1.58zM269.053 170.916h-12.649c-.884 0-.884 1.58 0 1.58h12.649c.884 0 .884-1.58 0-1.58zM267.435 168.19h-9.139c-.884 0-.884 1.58 0 1.58h9.139c.884 0 .884-1.58 0-1.58zM267.435 165.343h-9.139c-.884 0-.884 1.581 0 1.581h9.139c.884 0 .884-1.581 0-1.581zM258.283 164.142h9.143c.885 0 .885-1.581 0-1.581h-9.143c-.884.001-.884 1.581 0 1.581zM258.283 161.357h9.143c.885 0 .885-1.581 0-1.581h-9.143c-.884 0-.884 1.581 0 1.581zM269.076 156.954h-12.647c-.884 0-.884 1.58 0 1.58h12.647c.885 0 .885-1.58 0-1.58zM267.408 154.119h-9.14c-.884 0-.884 1.581 0 1.581h.977c.05.012.092.035.149.035h6.908c.012 0 .02-.006.031-.007h.036c.046 0 .079-.02.12-.028h.918c.886 0 .886-1.581.001-1.581zM267.408 151.336h-9.14c-.884 0-.884 1.581 0 1.581h9.14c.885 0 .885-1.581 0-1.581zM258.256 150.131h9.14c.884 0 .884-1.581 0-1.581h-9.14c-.885.001-.885 1.581 0 1.581zM258.256 147.346h9.14c.884 0 .884-1.58 0-1.58h-9.14c-.885 0-.885 1.58 0 1.58zM256.4 144.522h12.649c.884 0 .884-1.581 0-1.581H256.4c-.884.001-.884 1.581 0 1.581zM267.415 140.199h-9.138c-.884 0-.884 1.58 0 1.58h9.138c.884 0 .884-1.58 0-1.58zM267.415 137.411h-9.138c-.884 0-.884 1.581 0 1.581h9.138c.884-.001.884-1.581 0-1.581zM258.266 136.207h9.138c.884 0 .884-1.581 0-1.581h-9.138c-.883 0-.883 1.581 0 1.581zM258.266 133.422h9.138c.884 0 .884-1.58 0-1.58h-9.138c-.883 0-.883 1.58 0 1.58zM256.409 130.6h12.648c.884 0 .884-1.58 0-1.58h-12.648c-.884 0-.884 1.58 0 1.58zM267.461 126.283h-9.141c-.884 0-.884 1.581 0 1.581h1.05c.025.003.045.018.073.018h6.907c.028 0 .049-.015.075-.018h1.035c.884-.001.884-1.581.001-1.581zM267.461 123.496h-9.141c-.884 0-.884 1.581 0 1.581h9.141c.883-.001.883-1.581 0-1.581zM258.308 122.291h9.139c.883 0 .883-1.58 0-1.58h-9.139c-.883-.001-.883 1.58 0 1.58zM258.308 119.507h9.139c.883 0 .883-1.58 0-1.58h-9.139c-.883 0-.883 1.58 0 1.58zM269.102 115.104h-12.651c-.885 0-.885 1.581 0 1.581h12.651c.884 0 .884-1.581 0-1.581zM267.399 112.374h-9.139c-.884 0-.884 1.581 0 1.581h9.139c.884 0 .884-1.581 0-1.581zM267.399 109.592h-9.139c-.884 0-.884 1.581 0 1.581h9.139c.884-.001.884-1.581 0-1.581zM258.246 108.385h9.143c.885 0 .885-1.581 0-1.581h-9.143c-.884 0-.884 1.581 0 1.581zM258.246 105.602h9.143c.885 0 .885-1.581 0-1.581h-9.143c-.884 0-.884 1.581 0 1.581zM253.536 102.779h19.773c.884 0 .884-1.581 0-1.581h-19.773c-.884.001-.884 1.581 0 1.581zM267.371 235.186h-9.14c-.884 0-.884 1.58 0 1.58h.979c.049.012.091.034.146.034h6.907c.008 0 .015-.005.022-.005h.05c.047 0 .081-.021.123-.029h.912c.884 0 .884-1.58.001-1.58zM267.371 232.404h-9.14c-.884 0-.884 1.58 0 1.58h9.14c.883 0 .883-1.58 0-1.58zM258.219 231.197h9.14c.884 0 .884-1.58 0-1.58h-9.14c-.885 0-.885 1.58 0 1.58zM258.219 228.414h9.14c.884 0 .884-1.58 0-1.58h-9.14c-.885-.001-.885 1.58 0 1.58zM269.011 224.013h-12.648c-.884 0-.884 1.58 0 1.58h12.648c.884 0 .884-1.58 0-1.58zM50.675 213.479c1.322.147 1.481-2.263.241-2.529-12.778-2.755-27.331.063-39.207 5.038-1.205.505-.71 2.752.604 2.248 12.46-4.772 25.154-6.241 38.362-4.757z"/><path d="M320.338 215.193c-11.852-.192-25.43 3.229-36.696-1.905-.354-.162-.677-.125-.938.021v-86.503-45.183c0-.328-.149-.538-.346-.65a.575.575 0 0 0-.414-.176h-38.19c-.617 0-.794.764-.55 1.229.013.306.158.598.481.691 5.713 1.646 3.817 12.063 3.817 16.641-.001 6.558.013 13.116.031 19.673.021 7.754.008 15.509.008 23.263v100.621c-1.111 4.453-8.118 6.689-11.871 8.263-4.053 1.697-8.269 3.083-12.489 4.3l-.128-.028c-.483-.111-.85.29-.85.762v3.905c0 .033.013.057.016.088l.001.006c.01.098.026.188.061.264a.658.658 0 0 0 .417.404c6.12 1.974 12.287 3.804 18.422 5.731.037.012.068-.002.104.002.026.003.048.019.074.019h47.083c.146.116.325.182.535.116a3479.986 3479.986 0 0 0 18.424-5.798.653.653 0 0 0 .418-.406.861.861 0 0 0 .056-.241l.005-.028c.003-.031.016-.054.016-.087v-3.838c0-.024-.012-.045-.014-.068-.009-.309-.155-.604-.48-.698-4.271-1.222-8.457-2.692-12.598-4.302-3.676-1.428-10.538-3.774-11.975-7.953a.772.772 0 0 0-.064-.375v-27.606c5.217 2.473 11.162 2.894 16.852 3.1 6.81.247 14.099.259 20.844-.817 1.377-.225 1.41-2.413-.062-2.437zM246.405 82.377h34.954v160.428a.787.787 0 0 0-.039.491c.015.057.037.11.052.166-1.128 2.742-32.108 2.9-32.453-.273-.005-.046-.023-.077-.034-.117V140.576c0-8.913-.002-17.824-.021-26.735-.016-7.185-.029-14.369-.009-21.554.009-3.578.299-7.693-2.45-9.91zm-5.779 180.404v2.04c-5.691-1.779-11.403-3.491-17.079-5.314v-2.341c3.737.857 7.479 1.7 11.217 2.547 1.854.421 3.709.846 5.562 1.268a.925.925 0 0 0 .3.031v1.769zm47.304 2.267h-45.961v-3.866h45.961v3.866zm18.56-5.47a3555.206 3555.206 0 0 1-17.081 5.375v-2.071-1.74c0-.051-.005-.079-.007-.117.062.038.154.059.307.024 1.853-.422 3.71-.828 5.563-1.241 3.739-.836 7.48-1.667 11.218-2.508v2.278zm-14.207-7.657a133.64 133.64 0 0 0 11.811 4.308c-5.1 1.142-10.204 2.265-15.299 3.422-.062-.022-.121-.049-.192-.049h-47.271c-5.026-1.142-10.054-2.279-15.077-3.428 3.94-1.237 7.82-2.655 11.631-4.253 3.579-1.5 8.698-3.574 10.489-7.331.946.785 2.517 1.051 3.593 1.27 4.317.879 8.839.959 13.228.98 4.213.021 8.525-.101 12.685-.828 1.101-.192 2.932-.397 4.016-1.204 1.879 3.62 6.877 5.643 10.386 7.113z"/></svg>