<svg version="1.1" xmlns="http://www.w3.org/2000/svg" x="0" y="0" width="325.66" height="624.637" viewBox="83.769 -11.464 325.66 624.637" xml:space="preserve"><path fill="#231F20" d="M153.462-11.029v6.232h-1.405v-6.232h1.405z"/><g fill="#231F20"><path d="M154.664-7.876c0-.564-.019-1.036-.037-1.442h1.221l.065.629h.028c.185-.296.638-.73 1.396-.73.925 0 1.618.619 1.618 1.951v2.672h-1.405v-2.506c0-.583-.204-.98-.712-.98-.389 0-.62.269-.722.527a1.016 1.016 0 0 0-.046.352v2.607h-1.406v-3.08zM160.249-4.797v-3.486h-.601v-1.035h.601v-.176c0-.546.167-1.146.564-1.517.361-.333.842-.453 1.258-.453.305 0 .545.046.74.093l-.056 1.082a1.517 1.517 0 0 0-.453-.065c-.462 0-.656.361-.656.805v.231h.906v1.035h-.897v3.486h-1.406zM166.999-5.888c0 .425.019.841.073 1.091h-1.266l-.084-.453h-.027c-.296.36-.758.555-1.295.555-.915 0-1.461-.666-1.461-1.387 0-1.175 1.055-1.729 2.654-1.729v-.056c0-.249-.13-.592-.823-.592a2.54 2.54 0 0 0-1.249.343l-.258-.906c.315-.176.934-.407 1.756-.407 1.508 0 1.979.888 1.979 1.961v1.58zm-1.359-1.045c-.739 0-1.313.176-1.313.712 0 .36.24.536.555.536a.774.774 0 0 0 .73-.518.934.934 0 0 0 .028-.24v-.49z"/></g><path fill="#231F20" d="M168.117-7.876c0-.564-.018-1.036-.037-1.442h1.221l.065.629h.028c.184-.296.637-.73 1.396-.73.925 0 1.618.619 1.618 1.951v2.672h-1.405v-2.506c0-.583-.204-.98-.712-.98-.389 0-.619.269-.722.527a1.04 1.04 0 0 0-.046.352v2.607h-1.406v-3.08z"/><g fill="#231F20"><path d="M175.054-10.539v1.221h1.008v1.035h-1.008v1.637c0 .546.139.796.555.796.194 0 .286-.01.416-.037l.009 1.063c-.176.064-.518.12-.906.12-.453 0-.832-.157-1.062-.389-.26-.269-.389-.703-.389-1.341v-1.85h-.602v-1.035h.602v-.842l1.377-.378zM178.742-7.876c0-.564-.018-1.036-.037-1.442h1.221l.065.629h.028c.184-.296.637-.73 1.396-.73.925 0 1.618.619 1.618 1.951v2.672h-1.405v-2.506c0-.583-.204-.98-.712-.98-.389 0-.619.269-.722.527a1.04 1.04 0 0 0-.046.352v2.607h-1.406v-3.08zM185.244-6.609c.037.583.619.86 1.275.86.48 0 .869-.065 1.248-.194l.186.952c-.463.194-1.027.287-1.637.287-1.535 0-2.414-.888-2.414-2.303 0-1.146.713-2.413 2.285-2.413 1.461 0 2.016 1.137 2.016 2.256 0 .24-.028.453-.047.555h-2.912zm1.655-.962c0-.342-.147-.915-.795-.915-.592 0-.832.546-.869.915h1.664zM190.126-6.609c.037.583.62.86 1.276.86.48 0 .869-.065 1.248-.194l.186.952c-.463.194-1.027.287-1.637.287-1.535 0-2.414-.888-2.414-2.303 0-1.146.712-2.413 2.283-2.413 1.462 0 2.017 1.137 2.017 2.256 0 .24-.028.453-.046.555h-2.913zm1.655-.962c0-.342-.148-.915-.795-.915-.592 0-.832.546-.869.915h1.664zM198.31-11.362v5.216c0 .508.019 1.045.036 1.35h-1.248l-.055-.656h-.028c-.277.499-.832.758-1.415.758-1.072 0-1.932-.915-1.932-2.32-.01-1.526.943-2.414 2.024-2.414.563 0 .989.203 1.192.509h.02v-2.441h1.406zm-1.405 3.958c0-.074 0-.176-.02-.259-.082-.37-.388-.685-.822-.685-.647 0-.971.573-.971 1.285 0 .768.379 1.248.961 1.248.407 0 .74-.277.823-.675a1.79 1.79 0 0 0 .028-.323v-.591zM199.428-6.018c.26.157.796.333 1.212.333.425 0 .601-.139.601-.37 0-.24-.139-.352-.656-.526-.943-.314-1.304-.823-1.295-1.359 0-.851.722-1.489 1.841-1.489.526 0 .989.13 1.267.269l-.24.971a2.257 2.257 0 0 0-.98-.259c-.342 0-.536.139-.536.36s.176.333.73.527c.86.296 1.212.739 1.221 1.396 0 .851-.657 1.47-1.951 1.47-.592 0-1.118-.139-1.461-.323l.247-1z"/></g><path fill="#231F20" d="M205.319-7.83c0-.666-.01-1.101-.037-1.488h1.201l.057.832h.037c.23-.666.775-.943 1.22-.943.13 0 .194.01.296.028v1.322a2.056 2.056 0 0 0-.379-.037c-.518 0-.869.277-.962.712a1.612 1.612 0 0 0-.027.314v2.293h-1.405V-7.83z"/><g fill="#231F20"><path d="M209.85-6.609c.037.583.619.86 1.275.86.481 0 .869-.065 1.249-.194l.185.952c-.462.194-1.025.287-1.637.287-1.535 0-2.413-.888-2.413-2.303 0-1.146.712-2.413 2.284-2.413 1.461 0 2.016 1.137 2.016 2.256 0 .24-.027.453-.047.555h-2.912zm1.655-.962c0-.342-.147-.915-.796-.915-.592 0-.832.546-.869.915h1.665zM213.641-6.018c.26.157.795.333 1.211.333.426 0 .602-.139.602-.37 0-.24-.139-.352-.656-.526-.943-.314-1.305-.823-1.295-1.359 0-.851.721-1.489 1.84-1.489.527 0 .99.13 1.268.269l-.24.971a2.261 2.261 0 0 0-.98-.259c-.342 0-.537.139-.537.36s.176.333.73.527c.86.296 1.212.739 1.221 1.396 0 .851-.656 1.47-1.951 1.47-.592 0-1.118-.139-1.461-.323l.248-1zM221.926-6.249c0 .592.019 1.073.037 1.452h-1.221l-.064-.638h-.027c-.176.277-.602.739-1.415.739-.925 0-1.591-.573-1.591-1.97v-2.653h1.406v2.432c0 .656.212 1.055.711 1.055.389 0 .62-.269.703-.49a.757.757 0 0 0 .056-.306v-2.69h1.405v3.069zM223.045-6.018c.26.157.795.333 1.211.333.426 0 .602-.139.602-.37 0-.24-.139-.352-.656-.526-.943-.314-1.305-.823-1.295-1.359 0-.851.721-1.489 1.84-1.489.527 0 .99.13 1.268.269l-.24.971a2.261 2.261 0 0 0-.98-.259c-.342 0-.537.139-.537.36s.176.333.73.527c.86.296 1.212.739 1.221 1.396 0 .851-.656 1.47-1.951 1.47-.592 0-1.118-.139-1.461-.323l.248-1zM230.461-4.917c-.25.12-.722.213-1.258.213-1.461 0-2.395-.897-2.395-2.312 0-1.323.906-2.404 2.588-2.404.371 0 .777.064 1.073.176l-.222 1.045c-.166-.074-.416-.14-.786-.14-.739 0-1.221.527-1.212 1.268 0 .822.555 1.267 1.24 1.267.332 0 .592-.056.804-.148l.168 1.035zM232.69-10.576c0 .389-.287.703-.758.703-.445 0-.731-.314-.731-.703 0-.397.296-.703.749-.703s.73.305.74.703zm-1.452 5.779v-4.521h1.405v4.521h-1.405zM235.344-10.539v1.221h1.008v1.035h-1.008v1.637c0 .546.139.796.555.796.193 0 .286-.01.416-.037l.009 1.063c-.176.064-.519.12-.906.12-.453 0-.832-.157-1.063-.389-.259-.269-.389-.703-.389-1.341v-1.85h-.601v-1.035h.601v-.842l1.378-.378z"/></g><path fill="#231F20" d="M240.928-5.888c0 .425.02.841.074 1.091h-1.267l-.083-.453h-.027c-.297.36-.759.555-1.295.555-.916 0-1.461-.666-1.461-1.387 0-1.175 1.054-1.729 2.653-1.729v-.056c0-.249-.13-.592-.823-.592-.462 0-.952.157-1.248.343l-.259-.906c.314-.176.935-.407 1.757-.407 1.508 0 1.979.888 1.979 1.961v1.58zm-1.359-1.045c-.739 0-1.312.176-1.312.712 0 .36.24.536.555.536a.775.775 0 0 0 .73-.518.981.981 0 0 0 .027-.24v-.49z"/><g fill="#231F20"><path d="M243.545-10.539v1.221h1.008v1.035h-1.008v1.637c0 .546.139.796.555.796.193 0 .286-.01.416-.037l.009 1.063c-.176.064-.519.12-.906.12-.453 0-.832-.157-1.063-.389-.259-.269-.389-.703-.389-1.341v-1.85h-.601v-1.035h.601v-.842l1.378-.378zM246.818-10.576c0 .389-.286.703-.758.703-.444 0-.731-.314-.731-.703 0-.397.297-.703.75-.703s.73.305.739.703zm-1.453 5.779v-4.521h1.406v4.521h-1.406zM252.365-7.108c0 1.655-1.174 2.413-2.385 2.413-1.322 0-2.34-.869-2.34-2.33 0-1.471.961-2.404 2.423-2.404 1.379-.001 2.302.951 2.302 2.321zm-3.273.046c0 .777.324 1.359.926 1.359.555 0 .896-.546.896-1.368 0-.666-.259-1.351-.896-1.351-.666 0-.926.693-.926 1.36zM253.235-7.876c0-.564-.018-1.036-.037-1.442h1.221l.065.629h.028c.184-.296.637-.73 1.396-.73.925 0 1.618.619 1.618 1.951v2.672h-1.405v-2.506c0-.583-.204-.98-.712-.98-.389 0-.619.269-.722.527a1.04 1.04 0 0 0-.046.352v2.607h-1.406v-3.08z"/></g><g fill="#231F20"><path d="M148.256 70.594h-.019l-1.045.563-.157-.619 1.313-.703h.693v6.011h-.786v-5.252zM151.298 75.365c0-.333.231-.583.555-.583s.545.24.545.583c0 .332-.222.582-.564.582-.314 0-.536-.25-.536-.582zM155.394 69.613h.805v3.005h.028c.167-.24.333-.462.49-.665l1.905-2.34h.999l-2.256 2.645 2.432 3.588h-.952l-2.043-3.061-.601.685v2.376h-.805v-6.233zM160.831 73.756c.019 1.101.712 1.554 1.535 1.554.583 0 .943-.102 1.24-.231l.147.583c-.287.129-.786.286-1.498.286-1.378 0-2.201-.915-2.201-2.266 0-1.35.795-2.404 2.099-2.404 1.47 0 1.849 1.276 1.849 2.1 0 .166-.009.286-.027.379h-3.144zm2.386-.582c.009-.509-.212-1.313-1.128-1.313-.833 0-1.184.749-1.249 1.313h2.377zM165.463 73.756c.02 1.101.713 1.554 1.535 1.554.583 0 .943-.102 1.24-.231l.147.583c-.286.129-.786.286-1.498.286-1.378 0-2.2-.915-2.2-2.266 0-1.35.795-2.404 2.098-2.404 1.471 0 1.85 1.276 1.85 2.1 0 .166-.009.286-.027.379h-3.145zm2.387-.582c.009-.509-.213-1.313-1.129-1.313-.832 0-1.184.749-1.248 1.313h2.377zM169.643 72.831c0-.573-.018-1.035-.036-1.461h.722l.046.768h.019c.323-.546.859-.86 1.59-.86 1.092 0 1.905.916 1.905 2.266 0 1.609-.989 2.404-2.044 2.404-.592 0-1.109-.259-1.377-.702h-.02v2.432h-.805v-4.847zm.805 1.193a1.257 1.257 0 0 0 1.258 1.285c.86 0 1.359-.703 1.359-1.729 0-.888-.472-1.655-1.332-1.655-.555 0-1.081.389-1.229.999a1.314 1.314 0 0 0-.057.323v.777z"/></g><path fill="#231F20" d="M177.19 71.37l.601 2.274c.12.5.241.962.323 1.425h.028c.102-.453.249-.935.397-1.415l.73-2.284h.685l.693 2.238c.167.536.296 1.008.397 1.461h.027c.074-.453.195-.925.343-1.452l.638-2.247h.805l-1.442 4.476h-.739l-.686-2.136c-.156-.5-.286-.943-.396-1.471h-.02c-.11.536-.249.999-.406 1.479l-.721 2.127h-.74l-1.35-4.476h.833zM186.786 74.773c0 .388.019.768.065 1.072h-.73l-.065-.564h-.028c-.249.352-.73.666-1.367.666-.906 0-1.369-.638-1.369-1.285 0-1.082.961-1.674 2.691-1.664v-.093c0-.36-.103-1.036-1.018-1.026-.426 0-.86.12-1.175.333l-.185-.546c.369-.231.916-.389 1.479-.389 1.368 0 1.701.935 1.701 1.822v1.674zM186 73.562c-.887-.019-1.896.139-1.896 1.008 0 .536.352.777.759.777.592 0 .971-.37 1.1-.749a.917.917 0 0 0 .037-.259v-.777zM188.1 72.767c0-.527-.009-.98-.037-1.396h.713l.037.888h.027c.203-.601.703-.98 1.248-.98.083 0 .148.01.222.019v.768c-.083-.019-.166-.019-.277-.019-.573 0-.979.426-1.091 1.036-.019.11-.027.249-.027.379v2.386h-.815v-3.081zM191.152 72.582c0-.472-.019-.842-.036-1.212h.711l.037.73h.027c.25-.425.666-.823 1.416-.823.601 0 1.062.37 1.257.897h.019c.139-.259.324-.444.509-.583.269-.203.555-.314.979-.314.602 0 1.48.389 1.48 1.942v2.626h-.795v-2.524c0-.869-.324-1.378-.972-1.378-.472 0-.823.343-.971.73-.037.12-.065.259-.065.407v2.765h-.795v-2.682c0-.712-.314-1.221-.934-1.221-.5 0-.879.407-1.008.813-.047.111-.064.26-.064.398v2.69h-.796v-3.261z"/><g fill="#231F20"><path d="M146.49 86.943v-.499l.638-.62c1.535-1.461 2.238-2.237 2.238-3.144 0-.61-.287-1.175-1.184-1.175-.546 0-.999.277-1.276.509l-.259-.573a2.663 2.663 0 0 1 1.692-.61c1.294 0 1.84.888 1.84 1.748 0 1.109-.804 2.006-2.071 3.227l-.472.444v.019h2.691v.675h-3.837zM151.298 86.463c0-.333.231-.583.555-.583s.545.24.545.583c0 .332-.222.582-.564.582-.314 0-.536-.25-.536-.582z"/></g><path fill="#231F20" d="M155.394 80.785c.389-.064.897-.12 1.544-.12.795 0 1.378.185 1.748.518.333.296.545.749.545 1.304 0 .564-.167 1.008-.48 1.332-.435.453-1.119.684-1.905.684-.24 0-.462-.009-.647-.056v2.497h-.805v-6.159zm.805 3.005c.176.046.397.064.666.064.971 0 1.563-.48 1.563-1.322 0-.832-.592-1.229-1.47-1.229-.352 0-.62.027-.758.064v2.423z"/><g fill="#231F20"><path d="M164.115 84.669c0 1.655-1.156 2.376-2.229 2.376-1.202 0-2.145-.888-2.145-2.303 0-1.488.989-2.367 2.219-2.367 1.286 0 2.155.935 2.155 2.294zm-3.542.046c0 .98.555 1.72 1.35 1.72.777 0 1.359-.73 1.359-1.738 0-.758-.379-1.711-1.341-1.711-.951-.001-1.368.887-1.368 1.729zM165.031 86.12c.25.148.675.314 1.082.314.583 0 .86-.286.86-.666 0-.388-.231-.592-.823-.813-.813-.296-1.192-.73-1.192-1.267 0-.722.592-1.313 1.543-1.313.453 0 .852.121 1.092.277l-.194.592a1.742 1.742 0 0 0-.915-.268c-.48 0-.74.277-.74.61 0 .37.26.536.842.768.768.286 1.174.675 1.174 1.341 0 .795-.619 1.35-1.664 1.35-.49 0-.943-.129-1.258-.314l.193-.611zM169.709 81.21c0 .277-.193.5-.518.5-.296 0-.49-.223-.49-.5s.203-.508.509-.508c.296 0 .499.222.499.508zm-.906 5.733v-4.476h.814v4.476h-.814zM171.948 81.396v1.072h1.164v.62h-1.164v2.413c0 .555.156.869.609.869.223 0 .352-.019.472-.056l.037.62c-.157.055-.407.11-.722.11-.379 0-.684-.129-.878-.342-.222-.25-.314-.647-.314-1.175v-2.44h-.693v-.62h.693v-.832l.796-.239zM174.934 81.21c0 .277-.193.5-.518.5-.296 0-.49-.223-.49-.5s.203-.508.509-.508c.296 0 .499.222.499.508zm-.906 5.733v-4.476h.814v4.476h-.814zM180.241 84.669c0 1.655-1.155 2.376-2.229 2.376-1.202 0-2.146-.888-2.146-2.303 0-1.488.99-2.367 2.22-2.367 1.286 0 2.155.935 2.155 2.294zm-3.542.046c0 .98.555 1.72 1.351 1.72.776 0 1.359-.73 1.359-1.738 0-.758-.38-1.711-1.341-1.711-.953-.001-1.369.887-1.369 1.729zM181.268 83.68c0-.472-.009-.842-.037-1.212h.722l.046.74h.019c.222-.416.739-.833 1.479-.833.619 0 1.582.37 1.582 1.905v2.663h-.814v-2.58c0-.721-.268-1.322-1.035-1.322-.527 0-.943.379-1.092.832a1.18 1.18 0 0 0-.055.38v2.69h-.814V83.68zM188.36 80.378h.814v2.802h.019c.13-.23.333-.443.583-.582.24-.139.526-.223.832-.223.601 0 1.562.37 1.562 1.905v2.663h-.814v-2.57c0-.722-.268-1.322-1.035-1.322-.527 0-.934.369-1.091.804a1.05 1.05 0 0 0-.056.389v2.7h-.814v-6.566zM193.946 84.854c.018 1.101.712 1.554 1.535 1.554.582 0 .943-.102 1.238-.231l.148.583c-.287.129-.786.286-1.498.286-1.378 0-2.201-.915-2.201-2.266 0-1.35.795-2.404 2.1-2.404 1.47 0 1.85 1.276 1.85 2.1 0 .166-.01.286-.028.379h-3.144zm2.384-.583c.01-.509-.212-1.313-1.127-1.313-.833 0-1.184.749-1.249 1.313h2.376zM201.269 85.871c0 .388.019.768.065 1.072h-.73l-.065-.564h-.028c-.249.352-.73.666-1.367.666-.906 0-1.369-.638-1.369-1.285 0-1.082.961-1.674 2.691-1.664v-.093c0-.36-.103-1.036-1.018-1.026-.426 0-.86.12-1.175.333l-.185-.546c.369-.231.915-.389 1.479-.389 1.368 0 1.701.935 1.701 1.822v1.674zm-.786-1.212c-.888-.019-1.896.139-1.896 1.008 0 .536.352.777.759.777.592 0 .971-.37 1.1-.749a.917.917 0 0 0 .037-.259v-.777zM206.438 80.378v5.409c0 .398.019.852.037 1.156h-.721l-.037-.776h-.028c-.24.499-.776.878-1.507.878-1.082 0-1.924-.915-1.924-2.274-.009-1.489.925-2.396 2.007-2.396.693 0 1.146.324 1.351.676h.018v-2.673h.804zm-.805 3.911c0-.102-.009-.24-.037-.342a1.196 1.196 0 0 0-1.174-.934c-.842 0-1.341.739-1.341 1.72 0 .906.453 1.655 1.322 1.655.546 0 1.045-.37 1.192-.971.028-.111.037-.223.037-.352v-.776z"/></g><g fill="#231F20"><path d="M146.684 97.115c.231.139.758.37 1.332.37 1.036 0 1.369-.656 1.359-1.165-.009-.842-.768-1.202-1.554-1.202h-.453v-.61h.453c.592 0 1.341-.306 1.341-1.018 0-.48-.305-.906-1.054-.906-.48 0-.943.213-1.202.398l-.222-.592c.324-.231.934-.463 1.581-.463 1.184 0 1.72.703 1.72 1.434 0 .629-.379 1.155-1.11 1.424v.019c.74.139 1.332.693 1.341 1.535 0 .961-.758 1.803-2.191 1.803-.675 0-1.267-.213-1.563-.406l.222-.621zM151.298 97.56c0-.333.231-.583.555-.583s.545.24.545.583c0 .332-.222.582-.564.582-.314 0-.536-.25-.536-.582zM159.74 97.846c-.287.148-.888.296-1.646.296-1.757 0-3.07-1.109-3.07-3.162 0-1.961 1.322-3.273 3.255-3.273.768 0 1.267.166 1.479.277l-.204.656c-.296-.147-.73-.259-1.248-.259-1.461 0-2.432.934-2.432 2.57 0 1.535.878 2.506 2.386 2.506.5 0 .999-.102 1.322-.259l.158.648zM160.729 91.475h.814v6.565h-.814v-6.565zM163.365 95.95c.019 1.101.712 1.554 1.535 1.554.583 0 .943-.102 1.239-.231l.148.583c-.287.129-.787.286-1.498.286-1.378 0-2.201-.915-2.201-2.266 0-1.35.795-2.404 2.099-2.404 1.471 0 1.85 1.276 1.85 2.1 0 .166-.009.286-.028.379h-3.144zm2.385-.582c.01-.509-.213-1.313-1.128-1.313-.832 0-1.184.749-1.249 1.313h2.377zM170.688 96.968c0 .388.02.768.065 1.072h-.73l-.065-.564h-.027c-.25.352-.73.666-1.368.666-.906 0-1.368-.638-1.368-1.285 0-1.082.961-1.674 2.69-1.664V95.1c0-.36-.103-1.036-1.018-1.026-.425 0-.86.12-1.175.333l-.184-.546c.369-.231.915-.389 1.479-.389 1.369 0 1.701.935 1.701 1.822v1.674zm-.785-1.212c-.888-.019-1.896.139-1.896 1.008 0 .536.352.777.759.777.592 0 .972-.37 1.101-.749a.955.955 0 0 0 .037-.259v-.777zM172.001 94.961c0-.527-.009-.98-.036-1.396h.711l.037.888h.027c.204-.601.703-.98 1.249-.98.083 0 .147.01.222.019v.768c-.083-.019-.166-.019-.277-.019-.573 0-.98.426-1.091 1.036-.019.11-.028.249-.028.379v2.386h-.813v-3.081zM180.129 96.968c0 .388.019.768.064 1.072h-.73l-.064-.564h-.027c-.25.352-.73.666-1.369.666-.906 0-1.368-.638-1.368-1.285 0-1.082.962-1.674 2.69-1.664V95.1c0-.36-.102-1.036-1.017-1.026-.426 0-.86.12-1.175.333l-.185-.546c.37-.231.915-.389 1.479-.389 1.368 0 1.701.935 1.701 1.822v1.674zm-.786-1.212c-.888-.019-1.896.139-1.896 1.008 0 .536.352.777.758.777.592 0 .972-.37 1.102-.749a.95.95 0 0 0 .036-.259v-.777zM182.348 92.307c0 .277-.193.5-.518.5-.295 0-.49-.223-.49-.5s.204-.508.51-.508c.295 0 .498.222.498.508zm-.906 5.733v-4.476h.814v4.476h-.814z"/></g><path fill="#231F20" d="M183.607 94.961c0-.527-.009-.98-.036-1.396h.711l.037.888h.027c.204-.601.703-.98 1.249-.98.083 0 .147.01.222.019v.768c-.083-.019-.166-.019-.277-.019-.573 0-.98.426-1.091 1.036-.019.11-.028.249-.028.379v2.386h-.813v-3.081zM187.174 93.564l.602 2.274c.12.5.24.962.324 1.425h.027c.102-.453.25-.935.397-1.415l.73-2.284h.685l.693 2.238c.166.536.296 1.008.397 1.461h.028c.073-.453.193-.925.342-1.452l.638-2.247h.805L191.4 98.04h-.74l-.684-2.136c-.158-.5-.287-.943-.398-1.471h-.018c-.111.536-.25.999-.407 1.479l-.722 2.127h-.739l-1.351-4.476h.833zM196.774 96.968c0 .388.02.768.065 1.072h-.73l-.065-.564h-.027c-.25.352-.73.666-1.368.666-.906 0-1.368-.638-1.368-1.285 0-1.082.961-1.674 2.69-1.664V95.1c0-.36-.103-1.036-1.018-1.026-.425 0-.86.12-1.175.333l-.184-.546c.369-.231.915-.389 1.479-.389 1.369 0 1.701.935 1.701 1.822v1.674zm-.785-1.212c-.888-.019-1.896.139-1.896 1.008 0 .536.352.777.759.777.592 0 .972-.37 1.101-.749a.955.955 0 0 0 .037-.259v-.777z"/><g fill="#231F20"><path d="M198.318 93.564l.972 2.645c.11.296.221.647.295.916h.02c.082-.269.176-.61.286-.935l.888-2.626h.859l-1.221 3.19c-.582 1.535-.979 2.312-1.534 2.802-.407.342-.796.48-.999.518l-.203-.675c.203-.064.472-.194.712-.397.222-.176.49-.49.685-.906.037-.083.064-.148.064-.194s-.019-.111-.064-.213l-1.646-4.124h.886zM205.243 92.307c0 .277-.194.5-.518.5-.296 0-.49-.223-.49-.5s.204-.508.509-.508c.296 0 .499.222.499.508zm-.906 5.733v-4.476h.813v4.476h-.813zM206.584 98.04v-3.855h-.619v-.62h.619v-.213c0-.629.148-1.202.518-1.562.306-.296.713-.416 1.092-.416.296 0 .536.064.693.13l-.111.628a1.185 1.185 0 0 0-.518-.102c-.693 0-.869.602-.869 1.295v.24h1.082v.62h-1.082v3.855h-.805zM211.161 94.776c0-.472-.009-.842-.036-1.212h.721l.046.74h.019c.223-.416.74-.833 1.479-.833.62 0 1.581.37 1.581 1.905v2.663h-.813v-2.58c0-.721-.269-1.322-1.036-1.322-.526 0-.942.379-1.09.832a1.178 1.178 0 0 0-.057.38v2.69h-.813v-3.263zM216.746 95.95c.019 1.101.713 1.554 1.535 1.554.582 0 .943-.102 1.239-.231l.147.583c-.286.129-.785.286-1.498.286-1.377 0-2.2-.915-2.2-2.266 0-1.35.795-2.404 2.099-2.404 1.471 0 1.85 1.276 1.85 2.1 0 .166-.01.286-.027.379h-3.145zm2.386-.582c.009-.509-.212-1.313-1.128-1.313-.832 0-1.184.749-1.248 1.313h2.376zM221.379 95.95c.019 1.101.713 1.554 1.535 1.554.582 0 .943-.102 1.239-.231l.147.583c-.286.129-.785.286-1.498.286-1.377 0-2.2-.915-2.2-2.266 0-1.35.795-2.404 2.099-2.404 1.471 0 1.85 1.276 1.85 2.1 0 .166-.01.286-.027.379h-3.145zm2.386-.582c.009-.509-.212-1.313-1.128-1.313-.832 0-1.184.749-1.248 1.313h2.376zM229.414 91.475v5.409c0 .398.02.852.037 1.156h-.721l-.037-.776h-.027c-.24.499-.777.878-1.508.878-1.082 0-1.923-.915-1.923-2.274-.009-1.489.925-2.396 2.007-2.396.693 0 1.146.324 1.35.676h.019v-2.673h.803zm-.803 3.911c0-.102-.009-.24-.037-.342a1.197 1.197 0 0 0-1.175-.934c-.841 0-1.34.739-1.34 1.72 0 .906.453 1.655 1.322 1.655.545 0 1.045-.37 1.192-.971.028-.111.037-.223.037-.352v-.776zM231.227 95.95c.019 1.101.713 1.554 1.535 1.554.582 0 .943-.102 1.239-.231l.147.583c-.286.129-.785.286-1.498.286-1.377 0-2.2-.915-2.2-2.266 0-1.35.795-2.404 2.099-2.404 1.471 0 1.85 1.276 1.85 2.1 0 .166-.01.286-.027.379h-3.145zm2.386-.582c.009-.509-.212-1.313-1.128-1.313-.832 0-1.184.749-1.248 1.313h2.376zM239.262 91.475v5.409c0 .398.02.852.037 1.156h-.721l-.037-.776h-.027c-.24.499-.777.878-1.508.878-1.082 0-1.923-.915-1.923-2.274-.009-1.489.925-2.396 2.007-2.396.693 0 1.146.324 1.35.676h.019v-2.673h.803zm-.804 3.911c0-.102-.009-.24-.037-.342a1.197 1.197 0 0 0-1.175-.934c-.841 0-1.34.739-1.34 1.72 0 .906.453 1.655 1.322 1.655.545 0 1.045-.37 1.192-.971.028-.111.037-.223.037-.352v-.776z"/></g><path fill="none" stroke="#231F20" stroke-width=".5" d="M126.123 53.99h157.271v58.978H126.123z"/><path fill="#D0D2D3" d="M139.994 157.2s-13.871 0-13.871 13.87v8.302s0 13.871 13.871 13.871h129.53s13.87 0 13.87-13.871v-8.302s0-13.87-13.87-13.87h-129.53z"/><path fill="#231F20" d="M173.873 176.728l-.646 1.96h-.833l2.127-6.232h.962l2.127 6.232h-.86l-.665-1.96h-2.212zm2.053-.629l-.619-1.794c-.139-.407-.231-.777-.324-1.138h-.018c-.093.36-.186.749-.314 1.128l-.611 1.804h1.886z"/><g fill="#231F20"><path d="M178.33 177.864c.25.148.676.314 1.082.314.582 0 .859-.286.859-.666 0-.388-.23-.592-.822-.813-.814-.296-1.193-.73-1.193-1.267 0-.722.592-1.313 1.545-1.313.453 0 .85.121 1.091.277l-.194.592a1.743 1.743 0 0 0-.916-.268c-.48 0-.739.277-.739.61 0 .37.259.536.842.768.767.286 1.175.675 1.175 1.341 0 .795-.62 1.35-1.665 1.35-.49 0-.943-.129-1.257-.314l.192-.611zM181.992 177.864c.25.148.675.314 1.082.314.582 0 .859-.286.859-.666 0-.388-.23-.592-.822-.813-.814-.296-1.193-.73-1.193-1.267 0-.722.592-1.313 1.544-1.313.453 0 .851.121 1.091.277l-.193.592c-.176-.11-.5-.268-.916-.268-.48 0-.74.277-.74.61 0 .37.26.536.842.768.768.286 1.175.675 1.175 1.341 0 .795-.62 1.35-1.665 1.35-.49 0-.943-.129-1.258-.314l.194-.611zM186.218 176.598c.019 1.101.712 1.554 1.535 1.554.583 0 .943-.102 1.239-.231l.148.583c-.287.129-.787.286-1.498.286-1.379 0-2.201-.915-2.201-2.266 0-1.35.795-2.404 2.099-2.404 1.47 0 1.85 1.276 1.85 2.1 0 .166-.009.286-.028.379h-3.144zm2.386-.582c.01-.509-.213-1.313-1.128-1.313-.833 0-1.184.749-1.249 1.313h2.377zM190.286 177.864c.249.148.675.314 1.082.314.583 0 .86-.286.86-.666 0-.388-.231-.592-.823-.813-.813-.296-1.192-.73-1.192-1.267 0-.722.592-1.313 1.543-1.313.453 0 .852.121 1.092.277l-.194.592a1.742 1.742 0 0 0-.915-.268c-.48 0-.74.277-.74.61 0 .37.26.536.842.768.768.286 1.174.675 1.174 1.341 0 .795-.619 1.35-1.664 1.35-.49 0-.943-.129-1.258-.314l.193-.611zM193.948 177.864c.249.148.675.314 1.082.314.583 0 .86-.286.86-.666 0-.388-.231-.592-.823-.813-.813-.296-1.192-.73-1.192-1.267 0-.722.592-1.313 1.543-1.313.453 0 .852.121 1.092.277l-.194.592a1.742 1.742 0 0 0-.915-.268c-.48 0-.74.277-.74.61 0 .37.26.536.842.768.768.286 1.174.675 1.174 1.341 0 .795-.619 1.35-1.664 1.35-.49 0-.943-.129-1.258-.314l.193-.611zM199.681 172.122h.805v2.812h.019c.287-.5.805-.814 1.525-.814 1.119 0 1.896.925 1.896 2.275 0 1.6-1.018 2.395-2.017 2.395-.647 0-1.165-.25-1.507-.832h-.019l-.046.73h-.693c.018-.305.036-.758.036-1.156v-5.41zm.805 4.772c0 .102.009.203.037.296.147.564.628.952 1.22.952.861 0 1.359-.693 1.359-1.72 0-.896-.462-1.664-1.34-1.664-.546 0-1.063.388-1.23.998a1.318 1.318 0 0 0-.046.343v.795z"/></g><path fill="#231F20" d="M204.942 175.608c0-.527-.009-.98-.037-1.396h.713l.037.888h.027c.203-.601.703-.98 1.248-.98.083 0 .148.01.222.019v.768c-.083-.019-.166-.019-.277-.019-.573 0-.979.426-1.091 1.036-.019.11-.027.249-.027.379v2.386h-.814v-3.081zM208.328 176.598c.018 1.101.712 1.554 1.535 1.554.582 0 .943-.102 1.238-.231l.148.583c-.287.129-.786.286-1.498.286-1.378 0-2.201-.915-2.201-2.266 0-1.35.795-2.404 2.1-2.404 1.471 0 1.85 1.276 1.85 2.1 0 .166-.01.286-.028.379h-3.144zm2.385-.582c.01-.509-.212-1.313-1.127-1.313-.832 0-1.184.749-1.249 1.313h2.376zM215.649 177.615c0 .388.02.768.065 1.072h-.73l-.065-.564h-.027c-.25.352-.73.666-1.368.666-.906 0-1.368-.638-1.368-1.285 0-1.082.961-1.674 2.69-1.664v-.093c0-.36-.103-1.036-1.018-1.026-.425 0-.86.12-1.175.333l-.184-.546c.369-.231.915-.389 1.479-.389 1.369 0 1.701.935 1.701 1.822v1.674zm-.785-1.212c-.888-.019-1.896.139-1.896 1.008 0 .536.352.777.759.777.592 0 .972-.37 1.101-.749a.955.955 0 0 0 .037-.259v-.777z"/><g fill="#231F20"><path d="M217.915 173.14v1.072h1.165v.62h-1.165v2.413c0 .555.157.869.61.869.222 0 .352-.019.472-.056l.036.62c-.156.055-.406.11-.721.11-.379 0-.684-.129-.879-.342-.221-.25-.314-.647-.314-1.175v-2.44h-.693v-.62h.693v-.832l.796-.239zM219.995 172.122h.813v2.802h.02c.129-.23.332-.443.582-.582.24-.139.527-.223.832-.223.602 0 1.562.37 1.562 1.905v2.663h-.813v-2.57c0-.722-.269-1.322-1.036-1.322-.526 0-.934.369-1.09.804a1.03 1.03 0 0 0-.057.389v2.7h-.813v-6.566zM226.033 172.954c0 .277-.193.5-.518.5-.295 0-.49-.223-.49-.5s.204-.508.51-.508c.295 0 .498.222.498.508zm-.906 5.734v-4.476h.814v4.476h-.814zM227.291 175.424c0-.472-.009-.842-.037-1.212h.722l.046.74h.019c.222-.416.739-.833 1.479-.833.619 0 1.582.37 1.582 1.905v2.663h-.814v-2.58c0-.721-.268-1.322-1.035-1.322-.527 0-.943.379-1.092.832a1.18 1.18 0 0 0-.055.38v2.69h-.814v-3.263zM236.252 178.031c0 1.035-.213 1.655-.639 2.053-.443.397-1.072.536-1.637.536-.536 0-1.128-.13-1.488-.37l.203-.629c.296.194.758.361 1.312.361.832 0 1.443-.435 1.443-1.572v-.49h-.02c-.24.416-.73.749-1.424.749-1.109 0-1.904-.943-1.904-2.183 0-1.516.989-2.367 2.025-2.367.776 0 1.192.398 1.396.768h.019l.027-.675h.722c-.027.314-.036.685-.036 1.221v2.598zm-.814-2.052c0-.139-.01-.259-.047-.361-.147-.48-.535-.869-1.137-.869-.777 0-1.332.657-1.332 1.692 0 .879.453 1.609 1.322 1.609.51 0 .963-.314 1.129-.833.046-.139.064-.296.064-.435v-.803z"/></g><path fill="#231F20" d="M322.401 210.729c.389-.064.896-.12 1.544-.12.795 0 1.378.185 1.747.518.334.296.546.749.546 1.304 0 .564-.167 1.008-.48 1.332-.435.453-1.119.684-1.905.684-.24 0-.462-.009-.646-.056v2.497h-.805v-6.159zm.804 3.005c.176.046.396.064.665.064.972 0 1.563-.48 1.563-1.322 0-.832-.592-1.229-1.471-1.229-.352 0-.619.027-.758.064v2.423z"/><g fill="#231F20"><path d="M331.11 214.613c0 1.655-1.155 2.376-2.229 2.376-1.201 0-2.145-.888-2.145-2.303 0-1.488.989-2.367 2.219-2.367 1.285 0 2.155.935 2.155 2.294zm-3.541.046c0 .98.555 1.72 1.35 1.72.777 0 1.359-.73 1.359-1.738 0-.758-.379-1.711-1.34-1.711-.953 0-1.369.887-1.369 1.729zM336.187 214.613c0 1.655-1.155 2.376-2.229 2.376-1.202 0-2.146-.888-2.146-2.303 0-1.488.99-2.367 2.22-2.367 1.286 0 2.155.935 2.155 2.294zm-3.542.046c0 .98.555 1.72 1.351 1.72.776 0 1.359-.73 1.359-1.738 0-.758-.38-1.711-1.341-1.711-.953 0-1.369.887-1.369 1.729zM337.213 213.809c0-.527-.009-.98-.037-1.396h.713l.037.888h.027c.203-.601.703-.98 1.248-.98.083 0 .148.01.222.019v.768c-.083-.019-.166-.019-.277-.019-.573 0-.979.426-1.091 1.036-.019.11-.027.249-.027.379v2.386h-.814v-3.081zM342.198 210.322h.805v2.812h.018c.287-.5.805-.814 1.526-.814 1.118 0 1.896.925 1.896 2.275 0 1.6-1.018 2.395-2.016 2.395-.647 0-1.166-.25-1.508-.832h-.018l-.047.73h-.693c.019-.305.037-.758.037-1.156v-5.41zm.804 4.772c0 .102.009.203.037.296.147.564.628.952 1.22.952.86 0 1.359-.693 1.359-1.72 0-.896-.462-1.664-1.341-1.664-.545 0-1.062.388-1.229.998a1.277 1.277 0 0 0-.046.343v.795z"/></g><path fill="#231F20" d="M347.458 213.809c0-.527-.009-.98-.036-1.396h.711l.037.888h.027c.204-.601.703-.98 1.249-.98.083 0 .147.01.222.019v.768c-.083-.019-.166-.019-.277-.019-.573 0-.98.426-1.091 1.036-.019.11-.028.249-.028.379v2.386h-.813v-3.081zM350.853 214.798c.019 1.101.712 1.554 1.535 1.554.583 0 .943-.102 1.239-.231l.148.583c-.287.129-.787.286-1.498.286-1.379 0-2.201-.915-2.201-2.266 0-1.35.795-2.404 2.099-2.404 1.471 0 1.85 1.276 1.85 2.1 0 .166-.009.286-.028.379h-3.144zm2.386-.582c.01-.509-.213-1.313-1.128-1.313-.832 0-1.184.749-1.249 1.313h2.377zM358.176 215.815c0 .388.02.768.065 1.072h-.73l-.065-.564h-.027c-.25.352-.73.666-1.368.666-.906 0-1.368-.638-1.368-1.285 0-1.082.961-1.674 2.69-1.664v-.093c0-.36-.103-1.036-1.018-1.026-.425 0-.86.12-1.175.333l-.184-.546c.369-.231.915-.389 1.479-.389 1.369 0 1.701.935 1.701 1.822v1.674zm-.785-1.211c-.888-.019-1.896.139-1.896 1.008 0 .536.352.777.759.777.592 0 .972-.37 1.101-.749a.955.955 0 0 0 .037-.259v-.777z"/><g fill="#231F20"><path d="M360.431 211.34v1.072h1.165v.62h-1.165v2.413c0 .555.157.869.61.869.222 0 .352-.019.472-.056l.036.62c-.156.055-.406.11-.721.11-.379 0-.684-.129-.879-.342-.221-.25-.314-.647-.314-1.175v-2.44h-.693v-.62h.693v-.832l.796-.239zM362.511 210.322h.813v2.802h.02c.129-.23.332-.443.582-.582.24-.139.527-.223.832-.223.602 0 1.562.37 1.562 1.905v2.663h-.813v-2.57c0-.722-.269-1.322-1.036-1.322-.526 0-.934.369-1.09.804a1.03 1.03 0 0 0-.057.389v2.7h-.813v-6.566zM368.549 211.154c0 .277-.193.5-.518.5-.295 0-.49-.223-.49-.5s.204-.508.51-.508c.295 0 .498.222.498.508zm-.906 5.734v-4.476h.814v4.476h-.814zM369.807 213.624c0-.472-.009-.842-.037-1.212h.722l.046.74h.019c.222-.416.739-.833 1.479-.833.619 0 1.582.37 1.582 1.905v2.663h-.814v-2.58c0-.721-.268-1.322-1.035-1.322-.527 0-.943.379-1.092.832a1.18 1.18 0 0 0-.055.38v2.69h-.814v-3.263zM378.768 216.231c0 1.035-.213 1.655-.639 2.053-.443.397-1.072.536-1.637.536-.536 0-1.128-.13-1.488-.37l.203-.629c.296.194.758.361 1.312.361.832 0 1.443-.435 1.443-1.572v-.49h-.02c-.24.416-.73.749-1.424.749-1.109 0-1.904-.943-1.904-2.183 0-1.516.989-2.367 2.025-2.367.776 0 1.192.398 1.396.768h.019l.027-.675h.722c-.027.314-.036.685-.036 1.221v2.598zm-.815-2.052c0-.139-.01-.259-.047-.361-.147-.48-.535-.869-1.137-.869-.777 0-1.332.657-1.332 1.692 0 .879.453 1.609 1.322 1.609.51 0 .963-.314 1.129-.833.046-.139.064-.296.064-.435v-.803z"/></g><g fill="#231F20"><path d="M157.044 246.368c.352-.083.916-.139 1.47-.139.805 0 1.322.139 1.702.453.324.24.527.61.527 1.1 0 .61-.407 1.138-1.054 1.369v.027c.592.139 1.286.629 1.286 1.554 0 .536-.213.952-.537 1.248-.425.397-1.128.583-2.145.583-.555 0-.98-.037-1.249-.074v-6.121zm.804 2.552h.73c.841 0 1.341-.453 1.341-1.054 0-.722-.545-1.018-1.359-1.018-.37 0-.583.028-.712.056v2.016zm0 2.977c.167.027.388.037.675.037.833 0 1.6-.306 1.6-1.211 0-.842-.73-1.202-1.609-1.202h-.666v2.376zM165.172 251.436c0 .388.018.768.064 1.072h-.73l-.064-.564h-.028c-.249.352-.73.666-1.368.666-.906 0-1.369-.638-1.369-1.285 0-1.082.961-1.674 2.691-1.664v-.093c0-.36-.102-1.036-1.018-1.026-.425 0-.86.12-1.174.333l-.185-.546c.37-.231.916-.389 1.479-.389 1.368 0 1.702.935 1.702 1.822v1.674zm-.786-1.212c-.888-.019-1.896.139-1.896 1.008 0 .536.352.777.758.777.592 0 .971-.37 1.101-.749a.917.917 0 0 0 .037-.259v-.777zM170.313 251.852c0 1.035-.213 1.655-.638 2.053-.444.397-1.073.536-1.637.536-.536 0-1.128-.13-1.489-.37l.204-.629c.296.194.758.361 1.313.361.832 0 1.441-.435 1.441-1.572v-.49h-.018c-.24.416-.73.749-1.424.749-1.11 0-1.905-.943-1.905-2.183 0-1.516.989-2.367 2.024-2.367.777 0 1.193.398 1.396.768h.019l.028-.675h.721a14.49 14.49 0 0 0-.037 1.221v2.598zm-.814-2.053a1.07 1.07 0 0 0-.046-.361c-.148-.48-.537-.869-1.138-.869-.776 0-1.331.657-1.331 1.692 0 .879.453 1.609 1.322 1.609.508 0 .961-.314 1.128-.833.046-.139.064-.296.064-.435v-.803zM176.758 251.436c0 .388.019.768.064 1.072h-.73l-.064-.564H176c-.25.352-.73.666-1.369.666-.906 0-1.368-.638-1.368-1.285 0-1.082.962-1.674 2.69-1.664v-.093c0-.36-.102-1.036-1.017-1.026-.426 0-.86.12-1.175.333l-.185-.546c.37-.231.915-.389 1.479-.389 1.368 0 1.701.935 1.701 1.822v1.674zm-.786-1.212c-.888-.019-1.896.139-1.896 1.008 0 .536.352.777.758.777.592 0 .972-.37 1.102-.749a.95.95 0 0 0 .036-.259v-.777zM178.071 249.244c0-.472-.009-.842-.036-1.212h.722l.046.74h.019c.222-.416.739-.833 1.479-.833.62 0 1.582.37 1.582 1.905v2.663h-.814v-2.58c0-.721-.268-1.322-1.035-1.322-.527 0-.943.379-1.091.832a1.179 1.179 0 0 0-.056.38v2.69h-.814v-3.263zM187.059 245.942v5.409c0 .398.019.852.037 1.156h-.721l-.037-.776h-.028c-.24.499-.776.878-1.507.878-1.082 0-1.924-.915-1.924-2.274-.009-1.489.925-2.396 2.007-2.396.693 0 1.146.324 1.351.676h.018v-2.673h.804zm-.805 3.912c0-.102-.009-.24-.037-.342a1.196 1.196 0 0 0-1.174-.934c-.842 0-1.341.739-1.341 1.72 0 .906.453 1.655 1.322 1.655.546 0 1.045-.37 1.192-.971.028-.111.037-.223.037-.352v-.776zM190.379 249.244c0-.472-.019-.842-.037-1.212h.712l.037.73h.027c.25-.425.666-.823 1.415-.823.602 0 1.063.37 1.258.897h.018c.139-.259.324-.444.51-.583.268-.203.555-.314.979-.314.601 0 1.479.389 1.479 1.942v2.626h-.795v-2.524c0-.869-.324-1.378-.971-1.378-.473 0-.823.343-.971.73-.037.12-.065.259-.065.407v2.765h-.795v-2.682c0-.712-.314-1.221-.935-1.221-.499 0-.878.407-1.008.813-.046.111-.064.26-.064.398v2.69h-.795v-3.261zM201.235 251.436c0 .388.019.768.064 1.072h-.73l-.064-.564h-.027c-.25.352-.73.666-1.369.666-.906 0-1.368-.638-1.368-1.285 0-1.082.962-1.674 2.69-1.664v-.093c0-.36-.102-1.036-1.017-1.026-.426 0-.86.12-1.175.333l-.185-.546c.37-.231.915-.389 1.479-.389 1.368 0 1.701.935 1.701 1.822v1.674zm-.787-1.212c-.888-.019-1.896.139-1.896 1.008 0 .536.352.777.758.777.592 0 .972-.37 1.102-.749a.95.95 0 0 0 .036-.259v-.777zM202.437 251.685c.25.148.675.314 1.082.314.583 0 .86-.286.86-.666 0-.388-.231-.592-.823-.813-.813-.296-1.192-.73-1.192-1.267 0-.722.592-1.313 1.543-1.313.453 0 .852.121 1.092.277l-.194.592a1.742 1.742 0 0 0-.915-.268c-.48 0-.74.277-.74.61 0 .37.26.536.842.768.768.286 1.174.675 1.174 1.341 0 .795-.619 1.35-1.664 1.35-.49 0-.943-.129-1.258-.314l.193-.611zM207.014 250.085h.019c.11-.157.259-.352.388-.509l1.322-1.544h.972l-1.72 1.84 1.969 2.636h-.998l-1.535-2.146-.416.463v1.683h-.805v-6.565h.805v4.142z"/></g><path fill="#231F20" d="M212.82 248.032l.878 2.506c.148.416.27.786.361 1.156h.027c.102-.37.231-.74.379-1.156l.869-2.506h.852l-1.758 4.476h-.775l-1.702-4.476h.869zM217.324 250.418c.019 1.101.713 1.554 1.535 1.554.582 0 .943-.102 1.239-.231l.147.583c-.286.129-.785.286-1.498.286-1.377 0-2.2-.915-2.2-2.266 0-1.35.795-2.404 2.099-2.404 1.471 0 1.85 1.276 1.85 2.1 0 .166-.01.286-.027.379h-3.145zm2.386-.582c.009-.509-.212-1.313-1.128-1.313-.832 0-1.184.749-1.248 1.313h2.376zM221.504 249.244c0-.472-.009-.842-.037-1.212h.722l.046.74h.019c.222-.416.739-.833 1.479-.833.619 0 1.582.37 1.582 1.905v2.663h-.815v-2.58c0-.721-.268-1.322-1.035-1.322-.527 0-.943.379-1.092.832a1.18 1.18 0 0 0-.055.38v2.69h-.814v-3.263z"/><g fill="#231F20"><path d="M227.589 246.96v1.072h1.165v.62h-1.165v2.413c0 .555.157.869.61.869.222 0 .352-.019.472-.056l.036.62c-.156.055-.406.11-.721.11-.379 0-.684-.129-.879-.342-.221-.25-.314-.647-.314-1.175v-2.44h-.693v-.62h.693v-.831l.796-.24zM230.575 246.774c0 .277-.194.5-.518.5-.296 0-.49-.223-.49-.5s.204-.508.509-.508a.488.488 0 0 1 .499.508zm-.906 5.734v-4.476h.813v4.476h-.813zM231.833 245.942h.813v6.565h-.813v-6.565z"/></g><path fill="#231F20" d="M237.158 251.436c0 .388.02.768.065 1.072h-.73l-.065-.564h-.027c-.25.352-.73.666-1.368.666-.906 0-1.368-.638-1.368-1.285 0-1.082.961-1.674 2.69-1.664v-.093c0-.36-.103-1.036-1.018-1.026-.425 0-.86.12-1.175.333l-.184-.546c.369-.231.915-.389 1.479-.389 1.369 0 1.701.935 1.701 1.822v1.674zm-.785-1.212c-.888-.019-1.896.139-1.896 1.008 0 .536.352.777.759.777.592 0 .972-.37 1.101-.749a.955.955 0 0 0 .037-.259v-.777z"/><g fill="#231F20"><path d="M239.424 246.96v1.072h1.165v.62h-1.165v2.413c0 .555.157.869.61.869.222 0 .351-.019.472-.056l.037.62c-.158.055-.407.11-.722.11-.379 0-.685-.129-.878-.342-.223-.25-.314-.647-.314-1.175v-2.44h-.693v-.62h.693v-.831l.795-.24zM242.41 246.774c0 .277-.193.5-.518.5-.296 0-.49-.223-.49-.5s.203-.508.509-.508a.488.488 0 0 1 .499.508zm-.906 5.734v-4.476h.814v4.476h-.814zM247.719 250.233c0 1.655-1.156 2.376-2.229 2.376-1.203 0-2.146-.888-2.146-2.303 0-1.488.989-2.367 2.22-2.367 1.286 0 2.155.935 2.155 2.294zm-3.542.046c0 .98.555 1.72 1.351 1.72.776 0 1.359-.73 1.359-1.738 0-.758-.38-1.711-1.342-1.711-.952 0-1.368.888-1.368 1.729zM248.744 249.244c0-.472-.009-.842-.037-1.212h.722l.046.74h.019c.222-.416.739-.833 1.479-.833.619 0 1.582.37 1.582 1.905v2.663h-.814v-2.58c0-.721-.268-1.322-1.035-1.322-.527 0-.943.379-1.092.832a1.18 1.18 0 0 0-.055.38v2.69h-.814v-3.263z"/></g><g fill="#231F20"><path d="M205.434 261.33c0 1.655-1.156 2.376-2.229 2.376-1.202 0-2.145-.888-2.145-2.303 0-1.488.988-2.367 2.219-2.367 1.286 0 2.155.935 2.155 2.294zm-3.541.046c0 .98.555 1.72 1.35 1.72.777 0 1.359-.73 1.359-1.738 0-.758-.379-1.711-1.341-1.711-.952-.001-1.368.887-1.368 1.729zM206.46 260.525c0-.527-.009-.98-.036-1.396h.711l.037.888h.027c.204-.601.703-.98 1.249-.98.083 0 .147.01.222.019v.768c-.083-.019-.166-.019-.277-.019-.573 0-.98.426-1.091 1.036-.019.11-.028.249-.028.379v2.386h-.813v-3.081z"/></g><path fill="#231F20" d="M163.84 268.968c0 .277-.194.5-.518.5-.296 0-.49-.223-.49-.5s.204-.508.509-.508c.296 0 .499.222.499.508zm-.907 5.733v-4.476h.814v4.476h-.814zM165.098 271.438c0-.472-.009-.842-.037-1.212h.722l.046.74h.019c.222-.416.739-.833 1.479-.833.619 0 1.582.37 1.582 1.905v2.663h-.814v-2.58c0-.721-.268-1.322-1.035-1.322-.527 0-.943.379-1.092.832a1.18 1.18 0 0 0-.055.38v2.69h-.814v-3.263z"/><g fill="#231F20"><path d="M171.183 269.153v1.072h1.165v.62h-1.165v2.413c0 .555.157.869.61.869.222 0 .352-.019.472-.056l.036.62c-.156.055-.406.11-.721.11-.379 0-.684-.129-.879-.342-.221-.25-.314-.647-.314-1.175v-2.44h-.693v-.62h.693v-.832l.796-.239zM177.008 273.472c0 .472.01.878.037 1.229h-.721l-.047-.73h-.019c-.203.36-.685.832-1.479.832-.703 0-1.544-.397-1.544-1.96v-2.617h.813v2.469c0 .851.268 1.434.998 1.434.547 0 .926-.379 1.073-.749a1.12 1.12 0 0 0 .074-.416v-2.737h.813v3.245zM178.358 268.136h.805v2.812h.02c.286-.5.804-.814 1.525-.814 1.119 0 1.896.925 1.896 2.275 0 1.6-1.017 2.395-2.017 2.395-.646 0-1.164-.25-1.506-.832h-.02l-.046.73h-.693c.019-.305.036-.758.036-1.156v-5.41zm.804 4.771a1.248 1.248 0 0 0 1.258 1.248c.86 0 1.359-.693 1.359-1.72 0-.896-.463-1.664-1.341-1.664-.546 0-1.063.388-1.229.998a1.316 1.316 0 0 0-.047.343v.795z"/></g><path fill="#231F20" d="M186.764 273.629c0 .388.018.768.064 1.072h-.73l-.064-.564h-.028c-.249.352-.73.666-1.368.666-.906 0-1.369-.638-1.369-1.285 0-1.082.962-1.674 2.691-1.664v-.093c0-.36-.102-1.036-1.018-1.026-.426 0-.859.12-1.174.333l-.186-.546c.37-.231.916-.389 1.48-.389 1.367 0 1.701.935 1.701 1.822v1.674zm-.786-1.212c-.888-.019-1.896.139-1.896 1.008 0 .536.352.777.758.777.592 0 .971-.37 1.101-.749a.917.917 0 0 0 .037-.259v-.777zM189.03 269.153v1.072h1.166v.62h-1.166v2.413c0 .555.158.869.611.869.221 0 .351-.019.471-.056l.037.62a2.23 2.23 0 0 1-.721.11c-.379 0-.685-.129-.879-.342-.222-.25-.314-.647-.314-1.175v-2.44h-.693v-.62h.693v-.832l.795-.239z"/><g fill="#231F20"><path d="M191.508 272.611c.018 1.101.712 1.554 1.535 1.554.582 0 .943-.102 1.238-.231l.148.583c-.287.129-.786.286-1.498.286-1.378 0-2.201-.915-2.201-2.266 0-1.35.795-2.404 2.1-2.404 1.471 0 1.85 1.276 1.85 2.1 0 .166-.01.286-.028.379h-3.144zm2.385-.582c.01-.509-.212-1.313-1.127-1.313-.832 0-1.184.749-1.249 1.313h2.376zM200.791 273.629c0 .388.019.768.064 1.072h-.73l-.064-.564h-.027c-.25.352-.73.666-1.369.666-.906 0-1.368-.638-1.368-1.285 0-1.082.962-1.674 2.69-1.664v-.093c0-.36-.102-1.036-1.018-1.026-.425 0-.859.12-1.174.333l-.185-.546c.37-.231.915-.389 1.479-.389 1.368 0 1.701.935 1.701 1.822v1.674zm-.785-1.212c-.889-.019-1.896.139-1.896 1.008 0 .536.352.777.758.777.592 0 .972-.37 1.102-.749a.955.955 0 0 0 .037-.259v-.777zM202.104 271.438c0-.472-.008-.842-.036-1.212h.722l.045.74h.02c.222-.416.739-.833 1.479-.833.62 0 1.582.37 1.582 1.905v2.663h-.816v-2.58c0-.721-.268-1.322-1.035-1.322-.527 0-.943.379-1.091.832a1.179 1.179 0 0 0-.056.38v2.69h-.814v-3.263zM211.092 268.136v5.409c0 .398.02.852.037 1.156h-.721l-.037-.776h-.027c-.24.499-.777.878-1.508.878-1.082 0-1.923-.915-1.923-2.274-.009-1.489.925-2.396 2.007-2.396.693 0 1.146.324 1.35.676h.019v-2.673h.803zm-.804 3.911c0-.102-.009-.24-.037-.342a1.197 1.197 0 0 0-1.175-.934c-.841 0-1.34.739-1.34 1.72 0 .906.453 1.655 1.322 1.655.545 0 1.045-.37 1.192-.971.028-.111.037-.223.037-.352v-.776z"/></g><path fill="#231F20" d="M214.725 270.226l.879 2.506c.147.416.268.786.36 1.156h.028c.102-.37.23-.74.379-1.156l.869-2.506h.851l-1.757 4.476h-.777l-1.701-4.476h.869zM219.23 272.611c.019 1.101.712 1.554 1.535 1.554.583 0 .943-.102 1.239-.231l.148.583c-.287.129-.787.286-1.498.286-1.379 0-2.201-.915-2.201-2.266 0-1.35.795-2.404 2.099-2.404 1.471 0 1.85 1.276 1.85 2.1 0 .166-.009.286-.028.379h-3.144zm2.385-.582c.01-.509-.213-1.313-1.128-1.313-.832 0-1.184.749-1.249 1.313h2.377zM223.409 271.438c0-.472-.009-.842-.036-1.212h.721l.046.74h.019c.223-.416.74-.833 1.479-.833.62 0 1.581.37 1.581 1.905v2.663h-.813v-2.58c0-.721-.269-1.322-1.036-1.322-.526 0-.942.379-1.09.832a1.178 1.178 0 0 0-.057.38v2.69h-.813v-3.263z"/><g fill="#231F20"><path d="M229.493 269.153v1.072h1.165v.62h-1.165v2.413c0 .555.157.869.61.869.222 0 .352-.019.472-.056l.036.62c-.156.055-.406.11-.721.11-.379 0-.684-.129-.879-.342-.221-.25-.314-.647-.314-1.175v-2.44h-.693v-.62h.693v-.832l.796-.239zM232.48 268.968c0 .277-.194.5-.518.5-.296 0-.49-.223-.49-.5s.204-.508.509-.508c.296 0 .499.222.499.508zm-.907 5.733v-4.476h.813v4.476h-.813zM233.738 268.136h.813v6.565h-.813v-6.565z"/></g><path fill="#231F20" d="M239.065 273.629c0 .388.018.768.064 1.072h-.73l-.064-.564h-.028c-.249.352-.73.666-1.368.666-.906 0-1.369-.638-1.369-1.285 0-1.082.962-1.674 2.691-1.664v-.093c0-.36-.102-1.036-1.018-1.026-.426 0-.859.12-1.174.333l-.186-.546c.37-.231.916-.389 1.48-.389 1.367 0 1.701.935 1.701 1.822v1.674zm-.786-1.212c-.888-.019-1.896.139-1.896 1.008 0 .536.352.777.758.777.592 0 .971-.37 1.101-.749a.917.917 0 0 0 .037-.259v-.777zM241.319 269.153v1.072h1.165v.62h-1.165v2.413c0 .555.157.869.61.869.222 0 .351-.019.472-.056l.037.62c-.158.055-.407.11-.722.11-.379 0-.685-.129-.878-.342-.223-.25-.314-.647-.314-1.175v-2.44h-.693v-.62h.693v-.832l.795-.239zM243.807 272.611c.019 1.101.713 1.554 1.535 1.554.582 0 .943-.102 1.239-.231l.147.583c-.286.129-.785.286-1.498.286-1.377 0-2.2-.915-2.2-2.266 0-1.35.795-2.404 2.099-2.404 1.471 0 1.85 1.276 1.85 2.1 0 .166-.01.286-.027.379h-3.145zm2.386-.582c.009-.509-.212-1.313-1.128-1.313-.832 0-1.184.749-1.248 1.313h2.376z"/><path fill="none" stroke="#231F20" stroke-width=".5" d="M126.123 230.937h157.271v58.4H126.123z"/><path fill="#D0D2D3" d="M139.994 333.289s-13.871 0-13.871 13.871v8.3s0 13.871 13.871 13.871h129.53s13.87 0 13.87-13.871v-8.3s0-13.871-13.87-13.871h-129.53z"/><path fill="#231F20" d="M173.871 355.708l-.647 1.96h-.833l2.127-6.232h.963l2.126 6.232h-.86l-.665-1.96h-2.211zm2.053-.629l-.619-1.794c-.139-.407-.232-.777-.324-1.138h-.019c-.093.36-.185.749-.314 1.128l-.61 1.804h1.886z"/><g fill="#231F20"><path d="M178.328 356.845c.25.148.676.314 1.082.314.583 0 .86-.286.86-.666 0-.388-.231-.592-.823-.813-.813-.296-1.192-.73-1.192-1.267 0-.722.592-1.313 1.544-1.313.453 0 .851.121 1.092.277l-.195.592a1.74 1.74 0 0 0-.915-.268c-.48 0-.739.277-.739.61 0 .37.259.536.842.768.767.286 1.174.675 1.174 1.341 0 .795-.619 1.35-1.664 1.35-.49 0-.943-.129-1.258-.314l.192-.611zM181.99 356.845c.25.148.676.314 1.082.314.582 0 .859-.286.859-.666 0-.388-.23-.592-.822-.813-.814-.296-1.193-.73-1.193-1.267 0-.722.592-1.313 1.545-1.313.453 0 .851.121 1.091.277l-.194.592a1.743 1.743 0 0 0-.916-.268c-.48 0-.739.277-.739.61 0 .37.259.536.842.768.768.286 1.175.675 1.175 1.341 0 .795-.62 1.35-1.665 1.35-.49 0-.943-.129-1.258-.314l.193-.611zM186.217 355.578c.018 1.101.712 1.554 1.535 1.554.582 0 .943-.102 1.238-.231l.148.583c-.287.129-.786.286-1.498.286-1.378 0-2.201-.915-2.201-2.266 0-1.35.795-2.404 2.1-2.404 1.47 0 1.85 1.276 1.85 2.1 0 .166-.01.286-.028.379h-3.144zm2.385-.582c.01-.509-.212-1.313-1.127-1.313-.833 0-1.184.749-1.249 1.313h2.376zM190.285 356.845c.249.148.675.314 1.082.314.582 0 .859-.286.859-.666 0-.388-.23-.592-.822-.813-.814-.296-1.193-.73-1.193-1.267 0-.722.592-1.313 1.544-1.313.453 0 .851.121 1.091.277l-.193.592c-.176-.11-.5-.268-.916-.268-.48 0-.74.277-.74.61 0 .37.26.536.842.768.768.286 1.175.675 1.175 1.341 0 .795-.62 1.35-1.665 1.35-.49 0-.943-.129-1.257-.314l.193-.611zM193.948 356.845c.249.148.675.314 1.082.314.582 0 .859-.286.859-.666 0-.388-.23-.592-.822-.813-.814-.296-1.193-.73-1.193-1.267 0-.722.592-1.313 1.544-1.313.453 0 .851.121 1.091.277l-.193.592c-.176-.11-.5-.268-.916-.268-.48 0-.74.277-.74.61 0 .37.26.536.842.768.768.286 1.175.675 1.175 1.341 0 .795-.62 1.35-1.665 1.35-.49 0-.943-.129-1.257-.314l.193-.611zM199.68 351.103h.813v2.802h.019c.129-.23.333-.443.582-.582.24-.139.527-.223.832-.223.602 0 1.563.37 1.563 1.905v2.663h-.813v-2.57c0-.722-.269-1.322-1.036-1.322-.526 0-.934.369-1.091.804a1.03 1.03 0 0 0-.056.389v2.7h-.813v-6.566zM205.265 355.578c.019 1.101.712 1.554 1.535 1.554.583 0 .943-.102 1.239-.231l.148.583c-.287.129-.787.286-1.498.286-1.379 0-2.201-.915-2.201-2.266 0-1.35.795-2.404 2.099-2.404 1.471 0 1.85 1.276 1.85 2.1 0 .166-.009.286-.028.379h-3.144zm2.386-.582c.01-.509-.213-1.313-1.128-1.313-.832 0-1.184.749-1.249 1.313h2.377zM212.588 356.596c0 .388.019.768.064 1.072h-.73l-.064-.564h-.027c-.25.352-.73.666-1.369.666-.906 0-1.368-.638-1.368-1.285 0-1.082.962-1.674 2.69-1.664v-.093c0-.36-.102-1.036-1.017-1.026-.426 0-.86.12-1.175.333l-.185-.546c.37-.231.915-.389 1.479-.389 1.368 0 1.701.935 1.701 1.822v1.674zm-.786-1.212c-.888-.019-1.896.139-1.896 1.008 0 .536.352.777.758.777.592 0 .972-.37 1.102-.749a.95.95 0 0 0 .036-.259v-.777z"/></g><path fill="#231F20" d="M213.9 354.589c0-.527-.009-.98-.036-1.396h.711l.037.888h.027c.204-.601.703-.98 1.249-.98.083 0 .147.01.222.019v.768c-.083-.019-.166-.019-.277-.019-.573 0-.98.426-1.091 1.036-.019.11-.028.249-.028.379v2.386h-.814v-3.081zM218.126 352.12v1.072h1.165v.62h-1.165v2.413c0 .555.157.869.61.869.222 0 .352-.019.472-.056l.036.62c-.156.055-.406.11-.721.11-.379 0-.684-.129-.879-.342-.221-.25-.314-.647-.314-1.175v-2.44h-.693v-.62h.693v-.832l.796-.239zM222.166 354.589c0-.527-.009-.98-.037-1.396h.713l.037.888h.027c.203-.601.703-.98 1.248-.98.083 0 .148.01.222.019v.768c-.083-.019-.166-.019-.277-.019-.573 0-.979.426-1.091 1.036-.019.11-.027.249-.027.379v2.386h-.814v-3.081zM228.289 356.596c0 .388.019.768.064 1.072h-.73l-.064-.564h-.027c-.25.352-.73.666-1.369.666-.906 0-1.368-.638-1.368-1.285 0-1.082.962-1.674 2.69-1.664v-.093c0-.36-.102-1.036-1.018-1.026-.425 0-.859.12-1.174.333l-.185-.546c.37-.231.915-.389 1.479-.389 1.368 0 1.701.935 1.701 1.822v1.674zm-.785-1.212c-.889-.019-1.896.139-1.896 1.008 0 .536.352.777.758.777.592 0 .972-.37 1.102-.749a.955.955 0 0 0 .037-.259v-.777zM230.554 352.12v1.072h1.165v.62h-1.165v2.413c0 .555.157.869.61.869.222 0 .352-.019.472-.056l.036.62c-.156.055-.406.11-.721.11-.379 0-.684-.129-.879-.342-.221-.25-.314-.647-.314-1.175v-2.44h-.693v-.62h.693v-.832l.796-.239zM233.041 355.578c.019 1.101.713 1.554 1.535 1.554.582 0 .943-.102 1.239-.231l.147.583c-.286.129-.785.286-1.498.286-1.377 0-2.2-.915-2.2-2.266 0-1.35.795-2.404 2.099-2.404 1.471 0 1.85 1.276 1.85 2.1 0 .166-.01.286-.027.379h-3.145zm2.386-.582c.009-.509-.212-1.313-1.128-1.313-.832 0-1.184.749-1.248 1.313h2.376z"/><g fill="#231F20"><path d="M309.221 391.983v2.607h3.014v-2.607h.814v6.232h-.814v-2.922h-3.014v2.922h-.814v-6.232h.814zM314.869 396.126c.02 1.101.713 1.554 1.535 1.554.583 0 .943-.102 1.24-.231l.147.583c-.286.129-.786.286-1.498.286-1.378 0-2.2-.915-2.2-2.266 0-1.35.795-2.404 2.098-2.404 1.471 0 1.85 1.276 1.85 2.1 0 .166-.009.286-.027.379h-3.145zm2.387-.582c.009-.509-.213-1.313-1.129-1.313-.832 0-1.184.749-1.248 1.313h2.377zM322.194 397.144c0 .388.019.768.064 1.072h-.73l-.064-.564h-.027c-.25.352-.73.666-1.369.666-.906 0-1.368-.638-1.368-1.285 0-1.082.962-1.674 2.69-1.664v-.093c0-.36-.102-1.036-1.017-1.026-.426 0-.86.12-1.175.333l-.185-.546c.37-.231.915-.389 1.479-.389 1.368 0 1.701.935 1.701 1.822v1.674zm-.787-1.212c-.888-.019-1.896.139-1.896 1.008 0 .536.352.777.758.777.592 0 .972-.37 1.102-.749a.95.95 0 0 0 .036-.259v-.777z"/></g><path fill="#231F20" d="M323.508 395.137c0-.527-.009-.98-.037-1.396h.713l.037.888h.027c.203-.601.703-.98 1.248-.98.083 0 .148.01.222.019v.768c-.083-.019-.166-.019-.277-.019-.573 0-.979.426-1.091 1.036-.019.11-.027.249-.027.379v2.386h-.814v-3.081zM327.723 392.668v1.072h1.165v.62h-1.165v2.413c0 .555.157.869.61.869.222 0 .351-.019.472-.056l.037.62c-.158.055-.407.11-.722.11-.379 0-.685-.129-.878-.342-.223-.25-.314-.647-.314-1.175v-2.44h-.693v-.62h.693v-.832l.795-.239zM331.764 395.137c0-.527-.009-.98-.037-1.396h.713l.037.888h.027c.203-.601.703-.98 1.248-.98.083 0 .148.01.222.019v.768c-.083-.019-.166-.019-.277-.019-.573 0-.979.426-1.091 1.036-.019.11-.027.249-.027.379v2.386h-.814v-3.081zM337.887 397.144c0 .388.018.768.064 1.072h-.73l-.064-.564h-.028c-.249.352-.73.666-1.368.666-.906 0-1.369-.638-1.369-1.285 0-1.082.962-1.674 2.691-1.664v-.093c0-.36-.102-1.036-1.018-1.026-.426 0-.859.12-1.174.333l-.186-.546c.37-.231.916-.389 1.48-.389 1.367 0 1.701.935 1.701 1.822v1.674zm-.786-1.212c-.888-.019-1.896.139-1.896 1.008 0 .536.352.777.758.777.592 0 .971-.37 1.101-.749a.917.917 0 0 0 .037-.259v-.777zM340.151 392.668v1.072h1.165v.62h-1.165v2.413c0 .555.157.869.61.869.222 0 .351-.019.472-.056l.037.62c-.158.055-.407.11-.722.11-.379 0-.685-.129-.878-.342-.223-.25-.314-.647-.314-1.175v-2.44h-.693v-.62h.693v-.832l.795-.239z"/><g fill="#231F20"><path d="M342.628 396.126c.019 1.101.712 1.554 1.535 1.554.583 0 .943-.102 1.239-.231l.148.583c-.287.129-.787.286-1.498.286-1.379 0-2.201-.915-2.201-2.266 0-1.35.795-2.404 2.099-2.404 1.471 0 1.85 1.276 1.85 2.1 0 .166-.009.286-.028.379h-3.144zm2.386-.582c.01-.509-.213-1.313-1.128-1.313-.832 0-1.184.749-1.249 1.313h2.377zM348.768 391.65h.814v6.565h-.814v-6.565zM351.404 396.126c.019 1.101.712 1.554 1.535 1.554.583 0 .943-.102 1.239-.231l.148.583c-.287.129-.787.286-1.498.286-1.379 0-2.201-.915-2.201-2.266 0-1.35.795-2.404 2.099-2.404 1.471 0 1.85 1.276 1.85 2.1 0 .166-.009.286-.028.379h-3.144zm2.385-.582c.01-.509-.213-1.313-1.128-1.313-.832 0-1.184.749-1.249 1.313h2.377zM355.472 397.393c.25.148.675.314 1.082.314.583 0 .86-.286.86-.666 0-.388-.231-.592-.823-.813-.813-.296-1.192-.73-1.192-1.267 0-.722.592-1.313 1.543-1.313.453 0 .852.121 1.092.277l-.194.592a1.742 1.742 0 0 0-.915-.268c-.48 0-.74.277-.74.61 0 .37.26.536.842.768.768.286 1.174.675 1.174 1.341 0 .795-.619 1.35-1.664 1.35-.49 0-.943-.129-1.258-.314l.193-.611zM359.133 397.393c.25.148.676.314 1.082.314.583 0 .86-.286.86-.666 0-.388-.231-.592-.823-.813-.813-.296-1.192-.73-1.192-1.267 0-.722.592-1.313 1.544-1.313.453 0 .851.121 1.092.277l-.195.592a1.74 1.74 0 0 0-.915-.268c-.48 0-.739.277-.739.61 0 .37.259.536.842.768.767.286 1.174.675 1.174 1.341 0 .795-.619 1.35-1.664 1.35-.49 0-.943-.129-1.258-.314l.192-.611zM365.847 392.668v1.072h1.165v.62h-1.165v2.413c0 .555.157.869.61.869.222 0 .352-.019.472-.056l.036.62c-.156.055-.406.11-.721.11-.379 0-.684-.129-.879-.342-.221-.25-.314-.647-.314-1.175v-2.44h-.693v-.62h.693v-.832l.796-.239zM367.928 391.65h.813v2.802h.019c.129-.23.333-.443.582-.582.24-.139.527-.223.832-.223.602 0 1.563.37 1.563 1.905v2.663h-.813v-2.57c0-.722-.269-1.322-1.036-1.322-.526 0-.934.369-1.091.804a1.03 1.03 0 0 0-.056.389v2.7h-.813v-6.566zM376.203 397.144c0 .388.019.768.064 1.072h-.73l-.064-.564h-.027c-.25.352-.73.666-1.369.666-.906 0-1.368-.638-1.368-1.285 0-1.082.962-1.674 2.69-1.664v-.093c0-.36-.102-1.036-1.017-1.026-.426 0-.86.12-1.175.333l-.185-.546c.37-.231.915-.389 1.479-.389 1.368 0 1.701.935 1.701 1.822v1.674zm-.786-1.212c-.888-.019-1.896.139-1.896 1.008 0 .536.352.777.758.777.592 0 .972-.37 1.102-.749a.95.95 0 0 0 .036-.259v-.777zM377.516 394.952c0-.472-.009-.842-.036-1.212h.722l.046.74h.019c.222-.416.739-.833 1.479-.833.62 0 1.582.37 1.582 1.905v2.663h-.814v-2.58c0-.721-.268-1.322-1.035-1.322-.527 0-.943.379-1.091.832a1.179 1.179 0 0 0-.056.38v2.69h-.814v-3.263zM387.781 392.778a3.034 3.034 0 0 0-.61.047c-1.285.203-1.951 1.128-2.09 2.127h.019c.286-.389.796-.703 1.461-.703 1.063 0 1.812.776 1.812 1.941 0 1.11-.749 2.127-2.007 2.127-1.275 0-2.117-.998-2.117-2.562 0-1.184.416-2.117 1.018-2.709.499-.49 1.164-.795 1.923-.888.24-.037.444-.046.592-.046v.666zm-.232 3.468c0-.859-.49-1.378-1.238-1.378-.49 0-.953.296-1.175.74a.758.758 0 0 0-.083.352c.009.989.471 1.729 1.331 1.729.694-.001 1.165-.583 1.165-1.443zM393.098 395.146c0 2.044-.768 3.172-2.09 3.172-1.175 0-1.979-1.101-1.998-3.088 0-2.025.879-3.126 2.1-3.126 1.257 0 1.988 1.127 1.988 3.042zm-3.265.092c0 1.562.481 2.45 1.221 2.45.823 0 1.221-.971 1.221-2.506 0-1.479-.37-2.45-1.221-2.45-.702 0-1.221.87-1.221 2.506z"/></g><g fill="#231F20"><path d="M181.028 441.157c-.286.148-.887.296-1.646.296-1.757 0-3.069-1.109-3.069-3.162 0-1.961 1.322-3.273 3.254-3.273.768 0 1.268.166 1.48.277l-.204.656c-.296-.147-.73-.259-1.248-.259-1.462 0-2.433.934-2.433 2.57 0 1.535.879 2.506 2.387 2.506.498 0 .998-.102 1.322-.259l.157.648zM182.018 434.786h.813v2.802h.019c.129-.23.333-.443.582-.582.24-.139.527-.223.832-.223.602 0 1.563.37 1.563 1.905v2.663h-.813v-2.57c0-.722-.269-1.322-1.036-1.322-.526 0-.935.369-1.091.804a1.03 1.03 0 0 0-.056.389v2.7h-.813v-6.566zM187.602 439.262c.02 1.101.713 1.554 1.535 1.554.583 0 .943-.102 1.24-.231l.147.583c-.286.129-.786.286-1.498.286-1.378 0-2.2-.915-2.2-2.266 0-1.35.795-2.404 2.098-2.404 1.471 0 1.85 1.276 1.85 2.1 0 .166-.009.286-.027.379h-3.145zm2.387-.582c.009-.509-.213-1.313-1.129-1.313-.832 0-1.184.749-1.248 1.313h2.377zM191.671 440.528c.249.148.675.314 1.082.314.583 0 .86-.286.86-.666 0-.388-.231-.592-.823-.813-.813-.296-1.192-.73-1.192-1.267 0-.722.592-1.313 1.543-1.313.453 0 .852.121 1.092.277l-.194.592a1.742 1.742 0 0 0-.915-.268c-.48 0-.74.277-.74.61 0 .37.26.536.842.768.768.286 1.174.675 1.174 1.341 0 .795-.619 1.35-1.664 1.35-.49 0-.943-.129-1.258-.314l.193-.611zM196.424 435.804v1.072h1.165v.62h-1.165v2.413c0 .555.157.869.61.869.222 0 .351-.019.472-.056l.037.62c-.158.055-.407.11-.722.11-.379 0-.685-.129-.878-.342-.223-.25-.314-.647-.314-1.175v-2.44h-.693v-.62h.693v-.832l.795-.239zM200.465 438.088c0-.472-.019-.842-.037-1.212h.712l.037.73h.027c.25-.425.666-.823 1.415-.823.602 0 1.063.37 1.258.897h.018c.139-.259.324-.444.51-.583.268-.203.555-.314.979-.314.601 0 1.479.389 1.479 1.942v2.626h-.795v-2.524c0-.869-.324-1.378-.971-1.378-.473 0-.823.343-.971.73-.037.12-.065.259-.065.407v2.765h-.796v-2.682c0-.712-.313-1.221-.934-1.221-.499 0-.878.407-1.008.813-.046.111-.064.26-.064.398v2.69h-.795v-3.261zM211.321 440.279c0 .388.019.768.064 1.072h-.73l-.064-.564h-.027c-.25.352-.73.666-1.369.666-.906 0-1.368-.638-1.368-1.285 0-1.082.962-1.674 2.69-1.664v-.093c0-.36-.102-1.036-1.018-1.026-.425 0-.859.12-1.174.333l-.185-.546c.37-.231.915-.389 1.479-.389 1.368 0 1.701.935 1.701 1.822v1.674zm-.786-1.212c-.889-.019-1.896.139-1.896 1.008 0 .536.352.777.758.777.592 0 .972-.37 1.102-.749a.955.955 0 0 0 .037-.259v-.777zM212.523 440.528c.249.148.675.314 1.082.314.583 0 .86-.286.86-.666 0-.388-.231-.592-.823-.813-.813-.296-1.192-.73-1.192-1.267 0-.722.592-1.313 1.543-1.313.453 0 .852.121 1.092.277l-.194.592a1.742 1.742 0 0 0-.915-.268c-.48 0-.74.277-.74.61 0 .37.26.536.842.768.768.286 1.174.675 1.174 1.341 0 .795-.619 1.35-1.664 1.35-.49 0-.943-.129-1.258-.314l.193-.611zM216.184 440.528c.25.148.676.314 1.082.314.583 0 .86-.286.86-.666 0-.388-.231-.592-.823-.813-.813-.296-1.192-.73-1.192-1.267 0-.722.592-1.313 1.544-1.313.453 0 .852.121 1.092.277l-.195.592a1.74 1.74 0 0 0-.915-.268c-.48 0-.739.277-.739.61 0 .37.259.536.842.768.768.286 1.174.675 1.174 1.341 0 .795-.619 1.35-1.664 1.35-.49 0-.943-.129-1.258-.314l.192-.611zM223.102 440.279c0 .388.018.768.064 1.072h-.73l-.064-.564h-.028c-.249.352-.73.666-1.368.666-.906 0-1.369-.638-1.369-1.285 0-1.082.962-1.674 2.691-1.664v-.093c0-.36-.102-1.036-1.018-1.026-.426 0-.859.12-1.174.333l-.186-.546c.37-.231.916-.389 1.48-.389 1.367 0 1.701.935 1.701 1.822v1.674zm-.787-1.212c-.887-.019-1.895.139-1.895 1.008 0 .536.352.777.758.777.592 0 .971-.37 1.101-.749a.913.913 0 0 0 .036-.259v-.777zM228.242 440.695c0 1.035-.213 1.655-.639 2.053-.443.397-1.072.536-1.637.536-.535 0-1.127-.13-1.488-.37l.203-.629c.297.194.758.361 1.313.361.832 0 1.442-.435 1.442-1.572v-.49h-.019c-.24.416-.73.749-1.424.749-1.11 0-1.905-.943-1.905-2.183 0-1.516.99-2.367 2.025-2.367.777 0 1.193.398 1.396.768h.018l.028-.675h.722a14.49 14.49 0 0 0-.037 1.221v2.598zm-.814-2.052a1.07 1.07 0 0 0-.046-.361c-.147-.48-.536-.869-1.138-.869-.776 0-1.331.657-1.331 1.692 0 .879.453 1.609 1.322 1.609.509 0 .962-.314 1.128-.833.047-.139.064-.296.064-.435v-.803zM230.036 439.262c.019 1.101.712 1.554 1.535 1.554.583 0 .943-.102 1.239-.231l.148.583c-.287.129-.787.286-1.498.286-1.379 0-2.201-.915-2.201-2.266 0-1.35.795-2.404 2.099-2.404 1.47 0 1.85 1.276 1.85 2.1 0 .166-.009.286-.028.379h-3.144zm2.386-.582c.01-.509-.213-1.313-1.128-1.313-.833 0-1.184.749-1.249 1.313h2.377z"/></g><path fill="none" stroke="#231F20" stroke-width=".5" d="M126.123 408.688h157.271v58.398H126.123z"/><g fill="#231F20"><path d="M292.891 568.368v2.607h3.015v-2.607h.813v6.232h-.813v-2.922h-3.015v2.922h-.813v-6.232h.813zM298.541 572.511c.018 1.101.712 1.554 1.535 1.554.582 0 .943-.102 1.238-.231l.148.583c-.287.129-.786.286-1.498.286-1.378 0-2.201-.915-2.201-2.266 0-1.35.795-2.404 2.1-2.404 1.47 0 1.85 1.276 1.85 2.1 0 .166-.01.286-.028.379h-3.144zm2.385-.582c.01-.509-.212-1.313-1.127-1.313-.833 0-1.184.749-1.249 1.313h2.376zM305.865 573.528c0 .388.019.768.065 1.072h-.73l-.065-.564h-.028c-.249.352-.73.666-1.367.666-.906 0-1.369-.638-1.369-1.285 0-1.082.961-1.674 2.691-1.664v-.093c0-.36-.103-1.036-1.018-1.026-.426 0-.86.12-1.175.333l-.185-.546c.369-.231.915-.389 1.479-.389 1.368 0 1.701.935 1.701 1.822v1.674zm-.787-1.212c-.888-.019-1.896.139-1.896 1.008 0 .536.352.777.759.777.592 0 .971-.37 1.1-.749a.917.917 0 0 0 .037-.259v-.777z"/></g><path fill="#231F20" d="M307.178 571.521c0-.527-.009-.98-.037-1.396h.713l.037.888h.027c.203-.601.703-.98 1.248-.98.083 0 .148.01.222.019v.768c-.083-.019-.166-.019-.277-.019-.573 0-.979.426-1.091 1.036-.019.11-.027.249-.027.379v2.386h-.814v-3.081zM311.394 569.053v1.072h1.165v.62h-1.165v2.413c0 .555.157.869.61.869.222 0 .352-.019.472-.056l.036.62c-.156.055-.406.11-.721.11-.379 0-.684-.129-.879-.342-.221-.25-.314-.647-.314-1.175v-2.44h-.693v-.62h.693v-.832l.796-.239zM315.436 571.521c0-.527-.009-.98-.037-1.396h.713l.037.888h.027c.203-.601.703-.98 1.248-.98.083 0 .148.01.222.019v.768c-.083-.019-.166-.019-.277-.019-.573 0-.979.426-1.091 1.036-.019.11-.027.249-.027.379v2.386h-.814v-3.081zM321.557 573.528c0 .388.02.768.065 1.072h-.73l-.065-.564h-.027c-.25.352-.73.666-1.368.666-.906 0-1.368-.638-1.368-1.285 0-1.082.961-1.674 2.69-1.664v-.093c0-.36-.103-1.036-1.018-1.026-.425 0-.86.12-1.175.333l-.184-.546c.369-.231.915-.389 1.479-.389 1.369 0 1.701.935 1.701 1.822v1.674zm-.785-1.212c-.888-.019-1.896.139-1.896 1.008 0 .536.352.777.759.777.592 0 .972-.37 1.101-.749a.955.955 0 0 0 .037-.259v-.777zM323.822 569.053v1.072h1.165v.62h-1.165v2.413c0 .555.157.869.61.869.222 0 .352-.019.472-.056l.036.62c-.156.055-.406.11-.721.11-.379 0-.684-.129-.879-.342-.221-.25-.314-.647-.314-1.175v-2.44h-.693v-.62h.693v-.832l.796-.239zM326.299 572.511c.019 1.101.713 1.554 1.535 1.554.582 0 .943-.102 1.239-.231l.147.583c-.286.129-.785.286-1.498.286-1.377 0-2.2-.915-2.2-2.266 0-1.35.795-2.404 2.099-2.404 1.471 0 1.85 1.276 1.85 2.1 0 .166-.01.286-.027.379h-3.145zm2.386-.582c.009-.509-.212-1.313-1.128-1.313-.832 0-1.184.749-1.248 1.313h2.376zM332.441 571.521c0-.527-.009-.98-.036-1.396h.711l.037.888h.027c.204-.601.703-.98 1.249-.98.083 0 .147.01.222.019v.768c-.083-.019-.166-.019-.277-.019-.573 0-.98.426-1.091 1.036-.019.11-.028.249-.028.379v2.386h-.813v-3.081z"/><g fill="#231F20"><path d="M335.833 572.511c.019 1.101.712 1.554 1.535 1.554.583 0 .943-.102 1.239-.231l.148.583c-.287.129-.787.286-1.498.286-1.379 0-2.201-.915-2.201-2.266 0-1.35.795-2.404 2.099-2.404 1.471 0 1.85 1.276 1.85 2.1 0 .166-.009.286-.028.379h-3.144zm2.386-.582c.01-.509-.213-1.313-1.128-1.313-.832 0-1.184.749-1.249 1.313h2.377zM340.013 571.337c0-.472-.019-.842-.036-1.212h.711l.037.73h.027c.25-.425.666-.823 1.416-.823.601 0 1.062.37 1.257.897h.019c.139-.259.324-.444.509-.583.269-.203.555-.314.979-.314.602 0 1.48.389 1.48 1.942v2.626h-.795v-2.524c0-.869-.324-1.378-.972-1.378-.472 0-.823.343-.971.73-.037.12-.065.259-.065.407v2.765h-.795v-2.682c0-.712-.314-1.221-.934-1.221-.5 0-.879.407-1.008.813-.047.111-.064.26-.064.398v2.69h-.796v-3.261zM350.869 573.528c0 .388.018.768.064 1.072h-.73l-.064-.564h-.028c-.249.352-.73.666-1.368.666-.906 0-1.369-.638-1.369-1.285 0-1.082.962-1.674 2.691-1.664v-.093c0-.36-.102-1.036-1.018-1.026-.426 0-.859.12-1.174.333l-.186-.546c.37-.231.916-.389 1.48-.389 1.367 0 1.701.935 1.701 1.822v1.674zm-.786-1.212c-.888-.019-1.896.139-1.896 1.008 0 .536.352.777.758.777.592 0 .971-.37 1.101-.749a.917.917 0 0 0 .037-.259v-.777zM353.088 568.867c0 .277-.193.5-.518.5-.296 0-.49-.223-.49-.5s.203-.508.509-.508c.296 0 .499.222.499.508zm-.906 5.734v-4.476h.814v4.476h-.814zM354.346 571.337c0-.472-.01-.842-.037-1.212h.721l.047.74h.018c.223-.416.74-.833 1.48-.833.619 0 1.581.37 1.581 1.905v2.663h-.813v-2.58c0-.721-.269-1.322-1.036-1.322-.526 0-.942.379-1.091.832a1.179 1.179 0 0 0-.056.38v2.69h-.813v-3.263zM359.366 573.777c.25.148.675.314 1.082.314.583 0 .86-.286.86-.666 0-.388-.231-.592-.823-.813-.813-.296-1.192-.73-1.192-1.267 0-.722.592-1.313 1.543-1.313.453 0 .852.121 1.092.277l-.194.592a1.742 1.742 0 0 0-.915-.268c-.48 0-.74.277-.74.61 0 .37.26.536.842.768.768.286 1.174.675 1.174 1.341 0 .795-.619 1.35-1.664 1.35-.49 0-.943-.129-1.258-.314l.193-.611zM365.1 568.035h.813v6.565h-.813v-6.565zM367.735 572.511c.019 1.101.713 1.554 1.535 1.554.582 0 .943-.102 1.239-.231l.147.583c-.286.129-.785.286-1.498.286-1.377 0-2.2-.915-2.2-2.266 0-1.35.795-2.404 2.099-2.404 1.471 0 1.85 1.276 1.85 2.1 0 .166-.01.286-.027.379h-3.145zm2.385-.582c.009-.509-.212-1.313-1.128-1.313-.832 0-1.184.749-1.248 1.313h2.376zM371.803 573.777c.25.148.676.314 1.082.314.583 0 .86-.286.86-.666 0-.388-.231-.592-.823-.813-.813-.296-1.192-.73-1.192-1.267 0-.722.592-1.313 1.544-1.313.453 0 .851.121 1.092.277l-.195.592a1.74 1.74 0 0 0-.915-.268c-.48 0-.739.277-.739.61 0 .37.259.536.842.768.767.286 1.174.675 1.174 1.341 0 .795-.619 1.35-1.664 1.35-.49 0-.943-.129-1.258-.314l.192-.611zM375.465 573.777c.25.148.676.314 1.082.314.582 0 .859-.286.859-.666 0-.388-.23-.592-.822-.813-.814-.296-1.193-.73-1.193-1.267 0-.722.592-1.313 1.545-1.313.453 0 .851.121 1.091.277l-.194.592a1.743 1.743 0 0 0-.916-.268c-.48 0-.739.277-.739.61 0 .37.259.536.842.768.768.286 1.175.675 1.175 1.341 0 .795-.62 1.35-1.665 1.35-.49 0-.943-.129-1.258-.314l.193-.611zM382.178 569.053v1.072h1.166v.62h-1.166v2.413c0 .555.158.869.611.869.221 0 .351-.019.471-.056l.037.62a2.23 2.23 0 0 1-.721.11c-.379 0-.685-.129-.879-.342-.222-.25-.314-.647-.314-1.175v-2.44h-.693v-.62h.693v-.832l.795-.239zM384.259 568.035h.813v2.802h.02c.129-.23.332-.443.582-.582.24-.139.527-.223.832-.223.602 0 1.562.37 1.562 1.905v2.663h-.813v-2.57c0-.722-.269-1.322-1.036-1.322-.526 0-.934.369-1.09.804a1.03 1.03 0 0 0-.057.389v2.7h-.813v-6.566zM392.535 573.528c0 .388.018.768.064 1.072h-.73l-.064-.564h-.028c-.249.352-.73.666-1.368.666-.906 0-1.369-.638-1.369-1.285 0-1.082.962-1.674 2.691-1.664v-.093c0-.36-.102-1.036-1.018-1.026-.426 0-.859.12-1.174.333l-.186-.546c.37-.231.916-.389 1.48-.389 1.367 0 1.701.935 1.701 1.822v1.674zm-.786-1.212c-.888-.019-1.896.139-1.896 1.008 0 .536.352.777.758.777.592 0 .971-.37 1.101-.749a.917.917 0 0 0 .037-.259v-.777zM393.848 571.337c0-.472-.009-.842-.037-1.212h.722l.046.74h.019c.222-.416.739-.833 1.479-.833.619 0 1.582.37 1.582 1.905v2.663h-.814v-2.58c0-.721-.268-1.322-1.035-1.322-.527 0-.943.379-1.092.832a1.18 1.18 0 0 0-.055.38v2.69h-.814v-3.263zM404.112 569.163a3.025 3.025 0 0 0-.609.047c-1.285.203-1.951 1.128-2.09 2.127h.018c.287-.389.796-.703 1.461-.703 1.064 0 1.812.776 1.812 1.941 0 1.11-.748 2.127-2.006 2.127-1.276 0-2.117-.998-2.117-2.562 0-1.184.416-2.117 1.017-2.709.499-.49 1.165-.795 1.923-.888.24-.037.444-.046.592-.046v.666zm-.231 3.468c0-.859-.49-1.378-1.239-1.378-.49 0-.952.296-1.175.74a.758.758 0 0 0-.083.352c.009.989.472 1.729 1.331 1.729.694-.001 1.166-.583 1.166-1.443zM409.429 571.53c0 2.044-.768 3.172-2.09 3.172-1.175 0-1.979-1.101-1.997-3.088 0-2.025.879-3.126 2.1-3.126 1.256 0 1.987 1.128 1.987 3.042zm-3.265.093c0 1.562.481 2.45 1.221 2.45.823 0 1.221-.971 1.221-2.506 0-1.479-.369-2.45-1.221-2.45-.702 0-1.221.869-1.221 2.506z"/></g><path fill="#231F20" d="M185.457 604.597l-.646 1.96h-.832l2.127-6.232h.961l2.127 6.232h-.859l-.666-1.96h-2.212zm2.054-.629l-.62-1.794c-.139-.407-.23-.777-.323-1.138h-.019c-.092.36-.186.749-.314 1.128l-.61 1.804h1.886zM193.836 599.991v5.409c0 .398.019.852.037 1.156h-.721l-.037-.776h-.028c-.24.499-.776.878-1.507.878-1.082 0-1.924-.915-1.924-2.274-.009-1.489.925-2.396 2.007-2.396.693 0 1.146.324 1.351.676h.018v-2.673h.804zm-.805 3.911c0-.102-.009-.24-.037-.342a1.196 1.196 0 0 0-1.174-.934c-.842 0-1.341.739-1.341 1.72 0 .906.453 1.655 1.322 1.655.546 0 1.045-.37 1.192-.971.028-.111.037-.223.037-.352v-.776zM195.196 603.478c0-.527-.009-.98-.037-1.396h.713l.037.888h.027c.203-.601.703-.98 1.248-.98.083 0 .148.01.222.019v.768c-.083-.019-.166-.019-.277-.019-.573 0-.979.426-1.091 1.036-.019.11-.027.249-.027.379v2.386h-.814v-3.081z"/><g fill="#231F20"><path d="M198.589 604.467c.019 1.101.712 1.554 1.535 1.554.583 0 .943-.102 1.239-.231l.148.583c-.287.129-.787.286-1.498.286-1.379 0-2.201-.915-2.201-2.266 0-1.35.795-2.404 2.099-2.404 1.471 0 1.85 1.276 1.85 2.1 0 .166-.009.286-.028.379h-3.144zm2.386-.582c.01-.509-.213-1.313-1.128-1.313-.832 0-1.184.749-1.249 1.313h2.377zM202.769 603.293c0-.472-.009-.842-.036-1.212h.721l.046.74h.019c.223-.416.74-.833 1.479-.833.62 0 1.581.37 1.581 1.905v2.663h-.813v-2.58c0-.721-.269-1.322-1.036-1.322-.526 0-.942.379-1.09.832a1.178 1.178 0 0 0-.057.38v2.69h-.813v-3.263zM211.045 605.484c0 .388.018.768.064 1.072h-.73l-.064-.564h-.028c-.249.352-.73.666-1.368.666-.906 0-1.369-.638-1.369-1.285 0-1.082.962-1.674 2.691-1.664v-.093c0-.36-.102-1.036-1.018-1.026-.426 0-.859.12-1.174.333l-.186-.546c.37-.231.916-.389 1.48-.389 1.367 0 1.701.935 1.701 1.822v1.674zm-.786-1.212c-.888-.019-1.896.139-1.896 1.008 0 .536.352.777.758.777.592 0 .971-.37 1.101-.749a.917.917 0 0 0 .037-.259v-.777zM212.358 599.991h.814v6.565h-.814v-6.565zM215.446 600.823c0 .277-.193.5-.518.5-.295 0-.49-.223-.49-.5s.204-.508.51-.508c.294 0 .498.222.498.508zm-.907 5.734v-4.476h.814v4.476h-.814zM216.703 603.293c0-.472-.009-.842-.037-1.212h.722l.046.74h.019c.222-.416.739-.833 1.479-.833.619 0 1.582.37 1.582 1.905v2.663h-.814v-2.58c0-.721-.268-1.322-1.035-1.322-.527 0-.943.379-1.092.832a1.18 1.18 0 0 0-.055.38v2.69h-.814v-3.263zM222.289 604.467c.018 1.101.712 1.554 1.535 1.554.582 0 .943-.102 1.238-.231l.148.583c-.287.129-.786.286-1.498.286-1.378 0-2.201-.915-2.201-2.266 0-1.35.795-2.404 2.1-2.404 1.47 0 1.85 1.276 1.85 2.1 0 .166-.01.286-.028.379h-3.144zm2.385-.582c.01-.509-.212-1.313-1.127-1.313-.833 0-1.184.749-1.249 1.313h2.376z"/></g><path fill="none" stroke="#231F20" stroke-width=".5" d="M126.123 593.265h157.271v19.658H126.123zM204.758 13.097V33.84"/><path fill="#231F20" d="M204.758 39.308l2.662-7.31h-5.323z"/><path fill="#D0D2D3" d="M139.994 511.062s-13.871 0-13.871 13.871v8.301s0 13.869 13.871 13.869h129.53s13.87 0 13.87-13.869v-8.301s0-13.871-13.87-13.871h-129.53z"/><path fill="#231F20" d="M173.871 533.481l-.647 1.96h-.833l2.127-6.232h.963l2.126 6.232h-.86l-.665-1.96h-2.211zm2.053-.628l-.619-1.794c-.139-.407-.232-.777-.324-1.138h-.019c-.093.36-.185.749-.314 1.128l-.61 1.804h1.886z"/><g fill="#231F20"><path d="M178.328 534.618c.25.148.676.314 1.082.314.583 0 .86-.286.86-.666 0-.388-.231-.592-.823-.813-.813-.296-1.192-.73-1.192-1.267 0-.722.592-1.313 1.544-1.313.453 0 .851.121 1.092.277l-.195.592a1.74 1.74 0 0 0-.915-.268c-.48 0-.739.277-.739.61 0 .37.259.536.842.768.767.286 1.174.675 1.174 1.341 0 .795-.619 1.35-1.664 1.35-.49 0-.943-.129-1.258-.314l.192-.611zM181.99 534.618c.25.148.676.314 1.082.314.582 0 .859-.286.859-.666 0-.388-.23-.592-.822-.813-.814-.296-1.193-.73-1.193-1.267 0-.722.592-1.313 1.545-1.313.453 0 .851.121 1.091.277l-.194.592a1.743 1.743 0 0 0-.916-.268c-.48 0-.739.277-.739.61 0 .37.259.536.842.768.768.286 1.175.675 1.175 1.341 0 .795-.62 1.35-1.665 1.35-.49 0-.943-.129-1.258-.314l.193-.611zM186.217 533.352c.018 1.101.712 1.554 1.535 1.554.582 0 .943-.102 1.238-.231l.148.583c-.287.129-.786.286-1.498.286-1.378 0-2.201-.915-2.201-2.266 0-1.35.795-2.404 2.1-2.404 1.47 0 1.85 1.276 1.85 2.1 0 .166-.01.286-.028.379h-3.144zm2.385-.582c.01-.509-.212-1.313-1.127-1.313-.833 0-1.184.749-1.249 1.313h2.376zM190.285 534.618c.249.148.675.314 1.082.314.582 0 .859-.286.859-.666 0-.388-.23-.592-.822-.813-.814-.296-1.193-.73-1.193-1.267 0-.722.592-1.313 1.544-1.313.453 0 .851.121 1.091.277l-.193.592c-.176-.11-.5-.268-.916-.268-.48 0-.74.277-.74.61 0 .37.26.536.842.768.768.286 1.175.675 1.175 1.341 0 .795-.62 1.35-1.665 1.35-.49 0-.943-.129-1.257-.314l.193-.611zM193.948 534.618c.249.148.675.314 1.082.314.582 0 .859-.286.859-.666 0-.388-.23-.592-.822-.813-.814-.296-1.193-.73-1.193-1.267 0-.722.592-1.313 1.544-1.313.453 0 .851.121 1.091.277l-.193.592c-.176-.11-.5-.268-.916-.268-.48 0-.74.277-.74.61 0 .37.26.536.842.768.768.286 1.175.675 1.175 1.341 0 .795-.62 1.35-1.665 1.35-.49 0-.943-.129-1.257-.314l.193-.611zM199.68 528.876h.813v2.802h.019c.129-.23.333-.443.582-.582.24-.139.527-.223.832-.223.602 0 1.563.37 1.563 1.905v2.663h-.813v-2.57c0-.722-.269-1.322-1.036-1.322-.526 0-.934.369-1.091.804a1.03 1.03 0 0 0-.056.389v2.7h-.813v-6.566zM205.265 533.352c.019 1.101.712 1.554 1.535 1.554.583 0 .943-.102 1.239-.231l.148.583c-.287.129-.787.286-1.498.286-1.379 0-2.201-.915-2.201-2.266 0-1.35.795-2.404 2.099-2.404 1.471 0 1.85 1.276 1.85 2.1 0 .166-.009.286-.028.379h-3.144zm2.386-.582c.01-.509-.213-1.313-1.128-1.313-.832 0-1.184.749-1.249 1.313h2.377zM212.588 534.369c0 .388.019.768.064 1.072h-.73l-.064-.564h-.027c-.25.352-.73.666-1.369.666-.906 0-1.368-.638-1.368-1.285 0-1.082.962-1.674 2.69-1.664v-.093c0-.36-.102-1.036-1.017-1.026-.426 0-.86.12-1.175.333l-.185-.546c.37-.231.915-.389 1.479-.389 1.368 0 1.701.935 1.701 1.822v1.674zm-.786-1.212c-.888-.019-1.896.139-1.896 1.008 0 .536.352.777.758.777.592 0 .972-.37 1.102-.749a.95.95 0 0 0 .036-.259v-.777z"/></g><path fill="#231F20" d="M213.9 532.362c0-.527-.009-.98-.036-1.396h.711l.037.888h.027c.204-.601.703-.98 1.249-.98.083 0 .147.01.222.019v.768c-.083-.019-.166-.019-.277-.019-.573 0-.98.426-1.091 1.036-.019.11-.028.249-.028.379v2.386h-.814v-3.081zM218.126 529.894v1.072h1.165v.62h-1.165v2.413c0 .555.157.869.61.869.222 0 .352-.019.472-.056l.036.62c-.156.055-.406.11-.721.11-.379 0-.684-.129-.879-.342-.221-.25-.314-.647-.314-1.175v-2.44h-.693v-.62h.693v-.832l.796-.239zM222.166 532.362c0-.527-.009-.98-.037-1.396h.713l.037.888h.027c.203-.601.703-.98 1.248-.98.083 0 .148.01.222.019v.768c-.083-.019-.166-.019-.277-.019-.573 0-.979.426-1.091 1.036-.019.11-.027.249-.027.379v2.386h-.814v-3.081zM228.289 534.369c0 .388.019.768.064 1.072h-.73l-.064-.564h-.027c-.25.352-.73.666-1.369.666-.906 0-1.368-.638-1.368-1.285 0-1.082.962-1.674 2.69-1.664v-.093c0-.36-.102-1.036-1.018-1.026-.425 0-.859.12-1.174.333l-.185-.546c.37-.231.915-.389 1.479-.389 1.368 0 1.701.935 1.701 1.822v1.674zm-.785-1.212c-.889-.019-1.896.139-1.896 1.008 0 .536.352.777.758.777.592 0 .972-.37 1.102-.749a.955.955 0 0 0 .037-.259v-.777zM230.554 529.894v1.072h1.165v.62h-1.165v2.413c0 .555.157.869.61.869.222 0 .352-.019.472-.056l.036.62c-.156.055-.406.11-.721.11-.379 0-.684-.129-.879-.342-.221-.25-.314-.647-.314-1.175v-2.44h-.693v-.62h.693v-.832l.796-.239zM233.041 533.352c.019 1.101.713 1.554 1.535 1.554.582 0 .943-.102 1.239-.231l.147.583c-.286.129-.785.286-1.498.286-1.377 0-2.2-.915-2.2-2.266 0-1.35.795-2.404 2.099-2.404 1.471 0 1.85 1.276 1.85 2.1 0 .166-.01.286-.027.379h-3.145zm2.386-.582c.009-.509-.212-1.313-1.128-1.313-.832 0-1.184.749-1.248 1.313h2.376z"/><path fill="none" stroke="#231F20" stroke-width=".5" d="M204.758 122.798v20.743"/><path fill="#231F20" d="M204.758 149.008l2.662-7.309h-5.323z"/><path fill="none" stroke="#231F20" stroke-width=".5" d="M204.758 198.976v20.744"/><path fill="#231F20" d="M204.758 225.188l2.662-7.311h-5.323z"/><path fill="none" stroke="#231F20" stroke-width=".5" d="M204.758 298.91v20.742"/><path fill="#231F20" d="M204.758 325.121l2.662-7.31h-5.323z"/><path fill="none" stroke="#231F20" stroke-width=".5" d="M204.758 376.182v20.742"/><path fill="#231F20" d="M204.758 402.393l2.662-7.311h-5.323z"/><path fill="none" stroke="#231F20" stroke-width=".5" d="M204.758 476.66v20.744"/><path fill="#231F20" d="M204.758 502.871l2.662-7.309h-5.323z"/><path fill="none" stroke="#231F20" stroke-width=".5" d="M204.758 556.389v20.742"/><path fill="#231F20" d="M204.758 582.601l2.662-7.311h-5.323z"/><path fill="none" stroke="#231F20" stroke-width=".5" d="M83.769-8.263v537.348M83.769-7.974h26.213M83.769 174.396h26.213M83.769 349.668h26.213"/><path fill="none" stroke="#231F20" stroke-width=".56" d="M83.769 528.762h26.213"/></svg>