<svg version="1.1" xmlns="http://www.w3.org/2000/svg" x="0" y="0" width="326.544" height="233.686" viewBox="45.781 13.437 326.544 233.686" xml:space="preserve"><path d="M208.477 101.238c1.747-.058-.037.968.395 1.976-.858.066-.178-1.402-.395-1.976zM145.179 132.062c-.156-.767 1.802-.577 1.187.391h-.791c.073-.333-.155-.369-.396-.391zM94.937 158.539h.791c.184.843-.565.754-1.187.79.076-.319.397-.393.396-.79zM92.563 158.936c1.19-.615 1.19 2.192 0 1.584.658-.791-.036-.508 0-1.584zM92.167 161.701c.567.483.75 1.354.791 2.365-1.011-.039-.786-1.319-.791-2.365zM100.87 168.815c-1.785.899-2.394-1.898 0 0zM107.2 173.16c.292.63 1.937-.09 1.583 1.186-.933-.967-.736.591-1.978.395.69-.806-.295-.776.395-1.581zM109.575 175.927c1.222.737-1.378 2.169-1.979 1.185.165-.89 2.169.06 1.979-1.185zM90.188 180.67c.39-1.213 1.057.454 1.583.395-.388 1.211-1.055-.456-1.583-.395zM112.738 181.854c1.2-1.459 1.333 1.201 0 0zM91.771 182.25c.53.26.736.845.792 1.58-1.189.399-.701-.88-.792-1.58zM89.398 186.201c2.435-1.477 2.587 1.157 0 0zM108.387 188.572c.698-.121.707 2.215-.395 1.586-.167-.831.27-1.052.395-1.586zM161.398 191.338c-.122.536-.989.329-1.582.391.111-.91 1.056-.904 1.582-.391zM94.54 191.734c-.111-.629 2.137-.554 1.187.395.153-.153-1.191-.423-1.187-.395zM104.036 196.871c-.157-.767 1.802-.577 1.186.395h-.791c.073-.334-.154-.373-.395-.395zM144.388 197.662c.547-1.144 1.399.666 1.187 1.581-1.093.17-.372-1.475-1.187-1.581zM132.519 198.057h.791c.185.844-.565.753-1.187.79.076-.321.397-.395.396-.79zM95.728 199.637c.483-1.195 1.51.28 1.978.396-.484 1.196-1.511-.28-1.978-.396zM142.805 200.428c-.048 1.006-.576 1.536-1.583 1.585.592-.468.467-1.647 1.583-1.585zM126.19 202.009c1.199-1.462 1.332 1.199 0 0zM146.366 201.614c1.069.353-.184 1.603-1.187 1.185-.121-.911 1.142-.44 1.187-1.185zM147.552 203.589h.792c.184.845-.565.754-1.186.791.074-.321.397-.395.394-.791zM106.804 206.75c1.043-.119 1.021.825 1.187 1.582-1.044.12-1.02-.827-1.187-1.582zM143.201 207.542c1.937-1.463 2.37 1.217 0 0zM147.158 208.727c.083.676-.675 1.025 0 1.186-.17 1.093-1.245.021-.792-.792h-1.187c.273-1.239 1.055-.514 1.979-.394zM96.915 209.517c.26-1.183.846.379 1.583 0-.06.982-1.341.114-1.583 0zM188.698 210.702h.79v.792h-.79v-.792zM117.882 211.494h.792v.79h-.792v-.79zM134.497 212.284c.336-1.164.996.513 1.979 0-.313 1.386-1.384.455-1.979 0zM161.795 212.284c.485.169.811.504.791 1.184-.486-.173-.812-.505-.791-1.184zM128.959 213.469c.397-.995 1.75.314 1.583 1.185-.808-.117-.777-1.07-1.583-1.185zM98.101 213.863c1.938-.128-3.142.211 0 0zM95.332 215.048c.797.521 1.338 1.299 1.583 2.368-1.227-.087-1.234-1.396-1.583-2.368zM136.872 216.63c.736-.378 1.322 1.184 1.583 0 1.797.669-2.273 1.6-1.583 0zM121.441 217.815c.833-1.741 1.588 2.669-.395 1.581-.059-.526 1.609-1.193.395-1.581zM102.057 218.212c.398-.994 1.75.314 1.583 1.184-1.27.346-.82-1.025-1.583-1.184zM113.925 219c.161-.987 1.534-.023 1.187.792-.52-.141-.621-.697-1.187-.792zM130.146 222.162c.26-1.179.846.383 1.583 0-.061.984-1.34.116-1.583 0zM145.971 224.533c-.87 1.209-2.534-.456 0 0zM142.014 225.324c.248-.961 2-.207 1.583.79-.787-.004-.503-1.078-1.583-.79zM124.606 225.72c.36-1.074 1.386.401 1.978.395-.359 1.073-1.385-.403-1.978-.395zM167.334 227.302c.672-.146.747.307.792.788-.336-.069-.372.159-.394.396-.466-.065-.338-.721-.398-1.184zM166.936 230.461c1.192 1.351-1.283 1.188-2.372.791.056-1.687 1.766.539 2.372-.791zM138.059 231.646c1.812.264-.319 2.393 0 0zM131.729 233.229c-.095.693-.682.899-1.583.791-.399-1.192.881-.703 1.583-.791zM115.113 233.623c.874.049.167 1.676.396 2.369-1.085-.007-.941-1.863-.396-2.369zM131.729 234.808c.756-1.818 1.573 2.653 0 1.975.228-.237.924-1.873 0-1.975zM138.059 238.364c.388-1.211 1.055.455 1.582.396-.39 1.212-1.057-.454-1.582-.396zM155.465 241.131c-.055 1.13-1.65.723-2.769.791.381-.805 1.52-.855 2.769-.791zM217.18 90.567c-.637-.111-.68.374-1.186.395v-.395h-.393c.58-1.394 1.03-2.923.791-5.137l.593.197.594.198c-.052 1.63.688 2.474.395 4.346l-.595-.197-.199.593zM172.872 107.758l.396-.197c.963 1.935.929 4.868 2.37 6.322l-.198.593.592.197c-.678 2.351.796 5.727 1.584 7.904h-.394v.395h-.394c.139 1.178.228 2.406 1.187 2.766l.197.594.199-.594c.857 1.919 1.603 4.664 1.978 5.928l-.198.593.593.196c-.214 2.102 1.601 2.781 3.165 1.978.14-1.587-.005-2.893-1.187-3.162l.2-.594.198-.593c.337.073.374-.154.395-.392l.394.2.395-.2c3.929 4.638 6.088 11.047 11.077 14.622-.827-2.072-2-3.797-3.164-5.533h.396v-.395c.842.184.752-.566.79-1.185l.394.199.394-.199c3.654 6.227 10.775 8.995 11.869 17.783-5.327 3.796-8.887-3.169-12.264-5.138-.048 3.873 5.054 6.014 7.12 9.09 2.981.729 4.797 3.242 7.516 4.344 4.965 2.01 10.614 2.183 16.613 2.769 3.883.379 7.79.771 10.286 2.768 1.339.15.62-1.749 2.374-1.185 1.86.378 3.806.674 4.747 1.975 2.18-1.555 5.393-.355 7.121.792 2.263-1.677 6.398-1.367 8.308.393 3.027-1.096 7.94-2.287 11.868-1.185l-.197.593.197.592c-3.171 2.619 1.595 3.773 1.584 6.718-2.442 1.988-8.155 1.062-12.658 1.584-3.25.376-6.712 1.841-8.306-1.186-1.768 1.89-6.732 2.356-7.914-.392-2.025 2.001-6.531 1.202-7.912-.793-6.823 3.152-11.524-5.764-18.593-2.368 1.892 3.768 6.752 3.443 10.685 3.951 11.235 1.452 25.122 4.994 36.787 4.743-.181 1.234.85 1.265 1.979 1.185-.298 1.943-2.174 2.312-2.37 4.345.794 2.639 2.213 4.815.391 7.114-6.823.433-15.002-2.396-22.946-3.162-1.409-.136-2.712.105-4.35 0-5.876-.37-11.772-2.566-17.804-4.345-10.533-3.104-21.139-8.891-29.671-14.622-4.459-2.996-9.125-6.451-12.264-9.88-1.701-1.859-5.358-8.325-6.33-10.671-3.107-7.509-3.336-18.948-1.583-27.662.416-2.06 2.274-4.688 0-5.927l.594-.198-.197-.593c.64-.112.681.373 1.187.395.698-.661-.351-1.325 0-2.768l.593.198.198-.593c1.188.397.701-.88.791-1.58h-.791l-.396-.197-.396.197c-.716-1.028.171-1.192-.393-2.371l.593.197-.2-.593h.396c.967-1.25-.14-3.797-.396-5.138l.461-.066.33-.33c.808.248.114 1.997 1.585 1.582l.399.192zM222.719 60.929c-.208.319-.414.642-.396 1.186l-.593-.198-.198.593c-1.452-.207-1.142-2.176-2.771-1.186l.142-.706-.536-.479c.871-1.099 2.822.055 3.956 0l-.197.592.593.198z"/><path d="M222.126 62.708l.197-.593c.537.122.33.989.396 1.582l-.593-.198-.2.593c-.535-.122-.327-.989-.394-1.582l.594.198zM117.882 190.944c-.117-.707 1.535-.024 1.187.79-.877.217-.564-.755-1.187-.79zM149.531 220.188c.593-1.307.967.82 1.977.394-.36 1.074-1.385-.401-1.977-.394zM123.024 231.252c.389-1.212 1.056.454 1.583.395-.111.933-1.057-.454-1.583-.395zM140.432 235.204c1.219.393-.441 1.068-.792 1.185-1.222-.397 1.137-.374.792-1.185z"/><g fill="none" stroke="#000" stroke-linecap="round"><path stroke-width=".563" d="M233.202 24.375c.227 1.131.373 2.667 1.584 3.162"/><path stroke-width=".393" d="M237.554 25.562c-.006-.521-.299-.756-.395-1.186"/><path stroke-width=".424" d="M239.73 25.363c-.115-.412-.237-.816-.595-.988"/><path stroke-width=".481" d="M345.16 29.513c5.362-1.262 10.665-2.782 16.022-4.15"/><path stroke-width=".491" d="M346.149 33.663c5.24-2.261 11.178-3.05 16.418-5.335"/><path stroke-width=".474" d="M347.93 37.812c5.361-1.364 10.357-3.72 15.626-5.335"/><path stroke-width=".469" d="M73.771 104.992c5.593-3.979 11.64-7.481 16.616-12.25"/><path stroke-width=".641" d="M208.281 112.501a24.212 24.212 0 0 1 0-7.509"/><path stroke-width=".453" d="M208.674 116.452v-.791"/><path stroke-width=".728" d="M155.465 122.182c1.438.368 2.949 1.242 4.549.594"/><path stroke-width=".573" d="M146.8 135.658c4.691-2.688 7.214 3.248 10.048 5.69"/><path stroke-width=".634" d="M146.8 135.658c-.478 2.713.373 5.351 1.743 7.666"/><path stroke-width=".584" d="M137.86 133.444c1.816 1.324 3.847.466 5.532-.575 1.811.116 2.021 2.121 3.409 2.787"/><path stroke-width=".575" d="M130.541 135.618c-1.561 6.03 2.644 12.834 6.527 17.19"/><path stroke-width=".457" d="M89.595 167.825c-.013-.705.177-1.193-.197-1.778"/><path stroke-width=".358" d="M97.508 170.986c.216.047.309.218.396.396"/><path stroke-width=".447" d="M89.595 172.568c.59.063.988-.068 1.188-.396"/><path stroke-width=".358" d="M108.981 178.891c.363.164.641.414.791.791"/><path stroke-width=".55" d="M187.707 179.682c3.956-1.79 7.23 3.148 7.698 6.709-3.078 5.572-4.888 17.19-10.961 21.255-7.561 5.059-17.129-3.151-13.755-11.763"/><path stroke-width=".543" d="M180.19 190.746l.198.136c.229.059.568.211 1.008.242.312-.182.665-.362.956-.59.842-3.495 2.786-9.134 6.436-6.407 2.626 1.964.591 5.483-.775 8.381 1.452 4.95-3.469 12.5-8.605 11.855-3.924-.492-5.593-5.644-3.173-9.665"/><path stroke-width=".527" d="M108.585 184.225c.833.185 1.437.975 1.583 1.778"/><path stroke-width=".43" d="M114.914 185.215c-.141.253-.466.323-.682.504-.076.323-.089.713-.104 1.08.14.253.304.483.391.788"/><path stroke-width=".567" d="M103.046 187.782c.235.115.71.173 1.186.198"/><path stroke-width=".537" d="M103.046 193.513c-.035-.57.031-1.035.218-1.305.06-.025.118-.054.178-.079"/><path stroke-width=".507" d="M164.366 191.931c.671 1.699 2.745-.1 3.853 1.288.069.327.08.71.104 1.08"/><path stroke-width=".358" d="M109.772 194.698c.253.141.483.308.791.394"/><path stroke-width=".464" d="M152.498 198.254c2.35.993 2.068 3.221 2.138 5.317-.592.436-1.58-.072-2.048.702-.082.357-.041.69.03.979.13.129.25.273.369.418.344.05.626.163.894.294"/><path stroke-width=".567" d="M162.784 201.021c-.508.202-1.436.332-1.583-.392"/><path stroke-width=".436" d="M148.543 206.949c.069.027.136.056.205.082.347-.071.602-.347.896-.568-.267-1.079.061-2.646-.703-3.468"/><path stroke-width=".536" d="M127.179 208.528c-.112-.02-.225-.037-.337-.057-.554-1.374 1.11-3.086 1.128-4.294"/><path stroke-width=".401" d="M166.344 205.367c.419-.022.61.181.792.396"/><path stroke-width=".516" d="M160.409 209.319c-.21.322-.694.373-.916.611-.074.228.062.566.231.869.21.05.445.075.685.1"/><path stroke-width=".443" d="M105.42 212.085c-.004-.53.277-.776.486-1.093.449-.08.976-.08 1.492-.093"/><path stroke-width=".55" d="M200.563 211.098c3.521-.045 7.298.784 9.692 3.359"/><path stroke-width=".507" d="M147.354 212.085c-.012.663.236 2.046-.79 1.977"/><path stroke-width=".453" d="M109.575 216.63c.374-.154.551-.503.791-.79"/><path stroke-width=".393" d="M154.081 217.223c-.006-.521-.3-.755-.395-1.185"/><path stroke-width=".507" d="M127.97 218.212c.142-.181 1.02-.124 1.465-.318.282-.388.157-.877-.278-1.066"/><path stroke-width=".573" d="M178.212 218.805c-.038.71-.442 1.423.522 1.546-.039.363-.071 1.032-.522 1.22"/><path stroke-width=".439" d="M102.65 221.175h-.791"/><path stroke-width=".594" d="M167.928 220.384c.258.762.577 1.539.592 2.371"/><path stroke-width=".431" d="M114.914 223.15c.093-.751-.248-1.07-.396-1.58"/><path stroke-width=".424" d="M180.586 221.965c.277.117.302.489.395.792"/><path stroke-width=".621" d="M156.452 225.916c.224 2.064 2.634 2.879 3.427 4.875"/><path stroke-width=".627" d="M159.882 230.791c-.646.751-.277 1.99.508 2.433.654-.094 1.503-.523 1.375-1.313-.385-.674-1.134-1.039-1.883-1.12"/><path stroke-width=".46" d="M153.288 227.497c-1.015 1.095-2.253-.461-3.286.218-.161.935.942 1.401 1.397 2.067.104.024.207.057.31.082"/><path stroke-width=".447" d="M146.168 227.893c-.005.522-.298.755-.396 1.186"/><path stroke-width=".434" d="M174.256 233.029c-.006-.651.059-1.374-.116-1.857-.9-1.046-2.227-1.517-3.441-2.094"/><path stroke-width=".621" d="M170.301 232.438c.266.082.675.208.987.395"/><path stroke-width=".449" d="M123.816 235.204c.178-.348.171-.885.197-1.384"/><path stroke-width=".635" d="M152.498 238.958l.119.274c.424.313 1.103.803 1.579.299.118-.325.173-.916.018-1.368-.436-.225-.639-.723-.723-1.177"/><path stroke-width=".71" d="M161.596 240.341c2.444.422 3.071-2.884 1.187-3.952"/><path stroke-width=".424" d="M130.343 238.168h1.187"/><path stroke-width=".496" d="M191.268 90.567c.969 4.677-2.863 8.903-7.515 8.892"/><path stroke-width=".774" d="M191.268 90.567c-.201-.117-.194-.794-.099-1.185"/><path stroke-width=".769" d="M191.168 89.383c-.104-.381-.068-.85 0-1.186"/><path stroke-width=".567" d="M191.168 88.198c-.299-.552-.301-1.167-.297-1.779"/><path stroke-width=".621" d="M190.871 86.419c-.479-.712-.23-1.207-.198-1.679"/><path stroke-width=".813" d="M190.675 84.74l-.252-.154c-.161-.301-.091-.836.053-1.329"/><path stroke-width=".717" d="M190.476 83.257c-.43-.332-.588-.942-.395-1.581"/><path stroke-width=".531" d="M190.083 81.677c-.278-.383-.301-.881-.395-1.383"/><path stroke-width=".581" d="M189.686 80.294l-.199-.058c-.175-.446-.377-.97-.33-1.457"/><path stroke-width=".658" d="M189.159 78.779c-.422-.563-.514-1.257-.461-1.943"/><path stroke-width=".581" d="M188.698 76.836a4.213 4.213 0 0 1-.398-.148c-.256-.448-.052-.986.002-1.434"/><path stroke-width=".537" d="M188.3 75.255c-.136-.041-.266-.094-.396-.147-.176-.276-.168-.875-.196-1.532"/><path stroke-width=".651" d="M187.707 73.576l-.2-.059c-.405-2.297 3.291-2.104 4.892-2.35.256.386.187.914.056 1.42"/><path stroke-width=".525" d="M196.148 90.106c1.086 1.728 1.447 3.912 3.121 5.312 5.718-.238 12.626-.883 16.725-4.851"/><path stroke-width=".496" d="M208.081 62.51c-10.794 5.514-22.235 9.772-34.418 11.855"/><path stroke-width=".435" d="M173.663 74.366c1.818 7.111 4.334 13.766 6.527 20.747"/><path stroke-width=".573" d="M173.663 74.366a19.678 19.678 0 0 0-6.79 1.647"/><path stroke-width=".605" d="M166.873 76.013c2.366 8.271.173 17.452 4.93 25.116-.041 2.326.784 4.387 1.072 6.629"/><path stroke-width=".518" d="M177.026 114.278c.32-.096.869-.357 1.406-.319 2.834 4.984 3.157 10.747 5.515 15.928"/><path stroke-width=".434" d="M192.654 138.78c-9.994-19.55-13.887-41.5-22.354-61.846"/><path stroke-width=".439" d="M180.982 97.483c2.01 6.277 3.756 12.906 6.199 19.232"/><path stroke-width=".747" d="M187.182 116.715a2.76 2.76 0 0 0 .152-.043c4.005-5.025 4.895 1.685 9.335 3.429 7.082 2.783 15.888-3.366 18.933 6.033"/><path stroke-width=".516" d="M187.182 116.715c.881 7.282 3.434 14.232 6.657 20.682"/><path stroke-width="1.095" d="M269.6 170.195c.527-.108 1.055.019 1.583.198"/><path stroke-width=".746" d="M158.3 113.95c-.361.783-.713 1.586-.831 2.438.259.396.629.718.963 1.053"/><path stroke-width=".509" d="M91.969 152.018l.275.397c.556.712 1.766.114 2.388.896.102.557.617.7.833 1.144.083.62.328 1.193.283 1.835a3.5 3.5 0 0 1 .429.67c1.203.872 2.11 2.067 3.22 3.05-.115 5.353 6.261 4.435 9.099 7.112.083 2.274 2.511 3.498 2.519 5.785.684.896 1.866.994 2.815 1.525 2.433 2.634 1.176 6.416 3.565 9.094 5.556 2.438 6.355 10.924 13.757 11.154 4.458-2.039 9.296-.853 13.629 1.05.246-.033.585-.164.888-.352 2.001-3.944 8.228-3.268 11.375-2.137.107-.482.396-.854.792-1.118"/><path stroke-width=".58" d="M91.969 152.018l-.383.221c-.664.979-1.758 1.685-2.1 2.831-.994.788-1.431 1.946-2.19 2.917.979 5.261-3.658 9.354-2.051 14.577"/><path stroke-width=".568" d="M91.969 152.018c2.559-6.984 7.16-14.561 13.937-19.273 10.483-7.289 19.845-4.664 31.102-7.661 2.733-.728 5.82-2.253 8.277-4.377.618-2.413 2.1-4.515 1.872-7.123"/><path stroke-width=".541" d="M147.158 113.587c-7.071 1.061-14.799.62-21.166-2.667"/><path stroke-width=".598" d="M147.158 113.587c2.327-4.598 9.654-5.72 11.142.362"/><path stroke-width=".885" d="M158.3 113.95c1.85.208 3.16-1.033 4.418-2.174"/><path stroke-width=".752" d="M162.718 111.776c-.018-.044-.03-.087-.046-.131.049-.443.243-1.014.311-1.432.993-1.026 2.608-1.585 4.088-1.47 1.418.761 2.435 1.992 3.229 3.363"/><path stroke-width=".921" d="M161.201 76.935a3.572 3.572 0 0 1-.792.197"/><path stroke-width=".543" d="M222.916 23.98c-8.294 4.57-18.327 4.014-27.692 4.742"/><path stroke-width=".479" d="M92.76 90.766l.115-.28c18.81-17.503 33.872-41.911 58.524-53.374 7.915-3.68 14.468-8.387 21.757-12.646 8.475-4.947 30.507-2.826 42.572-2.003 2.54.173 5.032.596 7.187 1.518"/><path stroke-width=".552" d="M222.916 23.98c13.6-5.18 28.11-1.935 41.738 1.087"/><path stroke-width=".532" d="M264.654 25.067c2.329.016 13.633-1.789 18.668-.173 6.718 2.156 8.038 9.112 1.709 15.288"/><path stroke-width="1.133" d="M285.027 40.182l.066.198"/><path stroke-width=".575" d="M285.093 40.381c17.404-5.469 35.369-10.171 52.221-16.861"/><path stroke-width=".718" d="M337.313 23.52c-.132-1.086-.765-2.2-.219-3.276 8.119-2.563 16.586-5.59 24.971-6.434 6.136 5.554 9.584 14.579 7.189 22.775-.537.485-1.315.982-2.067.962"/><path stroke-width=".565" d="M367.183 37.547c-6.32 3.059-13.47 3.884-20.177 5.533"/><path stroke-width=".72" d="M343.579 43.74c-20.757 6.083-41.266 13.806-61.717 20.549"/><path stroke-width=".528" d="M281.862 64.288c.17.831.75 1.333 1.48 1.684 6.741 6.024 5.608 16.864 1.187 23.899-3.604 2.521-7.915 3.647-11.964 5.24"/><path stroke-width=".57" d="M272.565 95.113c3.761 7.641-1.647 14.857-6.528 20.154"/><path stroke-width=".53" d="M266.039 115.267c4.265 1.941 5.549 4.352 6.641 7.194 2.319 6.01-1.342 11.248-.414 16.417"/><path stroke-width=".532" d="M272.269 138.878c.579 2.478-.01 6.776-2.372 8.2"/><path stroke-width=".798" d="M269.896 147.078c-.831 1.695-2.703 2.718-3.265 4.446"/><path stroke-width=".567" d="M266.632 151.524l.536.208c29.855-10.302 63.079-16.505 95.003-9.987"/><path stroke-width=".619" d="M264.568 152.469c-3.005 2.303-7.679 2.581-11.388 2.908"/><path stroke-width=".542" d="M244.016 164.401c-7.407 1.502-12.635-6.311-11.472-13.041"/><path stroke-width=".529" d="M232.542 151.36c-.938.108-1.419-.965-2.11-1.317"/><path stroke-width=".584" d="M232.542 151.36a20.824 20.824 0 0 0 1.056-5.665"/><path stroke-width=".491" d="M212.5 150.569c-.672.829-1.223 1.815-1.848 2.638"/><path stroke-width=".633" d="M224.695 111.315c-1.364 2.174-2.556 4.894-1.777 7.508"/><path stroke-width=".902" d="M218.169 90.766c-.32-.208-.558-.497-.792-.79"/><path stroke-width=".801" d="M221.729 61.917l.396.791"/><path stroke-width=".606" d="M226.082 78.12c4.135-.685 8.289-1.318 12.462-1.778"/><path stroke-width="1.215" d="M217.114 85.233l-.132.395"/><path stroke-width=".652" d="M281.862 64.288c-4.253 1.476-8.991 2.523-12.851 4.464-9.049.395-17.091 4.149-25.118 7.208-.759.288-1.586.145-2.381.182"/><path stroke-width=".574" d="M285.093 40.381c-7.227 10.815-21.505 11.96-33.061 10.235"/><path stroke-width="1.155" d="M252.032 50.616c-9.573 4.146-19.978 6.664-29.906 10.116"/><path stroke-width=".485" d="M265.84 115.465c-9.302 5.984-15.132 17.044-25.119 22.328"/><path stroke-width=".573" d="M272.565 95.113c-10.845 2.659-22.55 6.601-33.629 2.568"/><path stroke-width=".71" d="M238.937 97.682c-5.043 1.147-10.606 1.932-15.525.099"/><path stroke-width=".59" d="M223.411 97.78c-2.746 4.337-1.018 9.411 1.284 13.534"/><path stroke-width=".544" d="M224.695 111.315c1.848.149 3.733.319 5.54.594"/><path stroke-width=".443" d="M230.237 111.907c2.901-4.507 6.925-8.499 10.877-12.053"/><path stroke-width=".557" d="M230.237 111.907c-.574 2.071-2.137 3.961-1.912 6.256"/><path stroke-width=".597" d="M228.322 118.164c2.068-.396 4.053-1.497 6.265-1.515"/><path stroke-width=".491" d="M228.322 118.164c-9.954 7.027-23.138 19.323-15.824 32.405"/><path stroke-width=".581" d="M212.5 150.569c1.494.294 2.728 1.179 4.089 1.844"/><path stroke-width=".548" d="M216.589 152.413c4.112-4.036 4.649-9.927 4.435-15.353 5.106-1.792 11.238-4.794 16.428-1.933 2.714 4.021-1.127 7.855-3.854 10.567"/><path stroke-width=".516" d="M256.544 146.485c2.286 2.535 4.469 5.315 8.024 5.983"/><path stroke-width="1.341" d="M264.568 152.469c.666-.35 1.585-.234 2.062-.944"/><path stroke-width="1.075" d="M266.039 115.267c-.07.066-.131.131-.201.197"/><path stroke-width=".54" d="M265.84 115.465c.679 11.378-4.991 21.101-9.297 31.021"/><path stroke-width=".527" d="M252.032 50.616a3.63 3.63 0 0 0-.115-.235c-8.812-3.061-21.506 3.403-31.063 6.712-2.381.826-5.316 1.146-6.641 2.849"/><path stroke-width=".79" d="M214.213 59.942c1.508.467 3.127.543 4.69.677"/><path stroke-width=".988" d="M337.313 23.52c3.347 5.775 5.451 13.218 6.266 20.219"/><path stroke-width=".688" d="M343.579 43.74c1.014 1.254 2.559.166 3.427-.658"/><path stroke-width=".766" d="M347.006 43.08c-.075-.394-.07-1.117 0-1.449"/><path stroke-width=".694" d="M347.006 41.631c-.323-.383-.352-.597-.461-.855"/><path stroke-width=".577" d="M364.248 26.55c.025-.085.051-.17.074-.254-.844-5.36-6.229-2.251-10.123-1.185-4.387 1.203-13.469.957-11.097 6.62l.278.351"/><path stroke-width=".563" d="M264.654 25.067c.474 4.367-.93 8.197 1.295 11.255 3.355 4.618 11.332 4.007 19.082 3.861"/><path stroke-width=".556" d="M367.183 37.547c-.63-3.745-.948-7.824-2.935-10.999"/><path stroke-width=".495" d="M364.248 26.55c-6.748 2.397-14.054 3.395-20.867 5.533"/><path stroke-width=".621" d="M343.381 32.082c.191 1.375.61 3.074 1.516 4.018"/><path stroke-width=".492" d="M344.896 36.1c6.022-1.512 11.733-3.616 17.668-5.4"/><path stroke-width=".616" d="M344.896 36.1c.257 1.652 1.088 3.126 1.648 4.676"/><path stroke-width=".456" d="M346.545 40.776c5.238-2.078 10.959-3.178 16.221-5.533"/><path stroke-width=".497" d="M347.006 41.631c6.271-.7 12.02-3.198 17.935-4.611"/><path stroke-width=".568" d="M214.213 59.942c-2.229-.175-4.172 1.631-6.136 2.568"/><path stroke-width=".701" d="M208.081 62.51c1.809 2.848 6.013 3.573 7.604 6.608 4.736 4.171.498 10.976 1.431 16.115"/><path stroke-width=".473" d="M217.114 85.233c2.741-2.616 5.492-5.603 8.968-7.113"/><path stroke-width=".713" d="M226.082 78.12c-2.08-4.674-3.024-9.586-3.956-14.622M187.707 73.576c1.676.062 3.157-.65 4.747-.989"/><path stroke-width=".733" d="M188.3 75.255c1.555-.336 2.974-.891 4.549-1.086"/><path stroke-width=".531" d="M192.849 74.168c.06-.4-.069-1.009-.395-1.582"/><path stroke-width=".729" d="M188.698 76.836a81.699 81.699 0 0 0 4.152-1.088"/><path stroke-width=".84" d="M192.849 75.748c.208-.527.138-1.054 0-1.58"/><path stroke-width=".593" d="M166.873 76.013c-1.883.105-3.862.296-5.672.922"/><path stroke-width=".622" d="M161.201 76.935c3.093 9.723 6.272 19.61 9.361 29.375"/><path stroke-width=".691" d="M189.159 78.779c1.333-.654 2.939-.549 4.219-1.317"/><path stroke-width=".739" d="M193.377 77.462c.236-.644-.029-1.281-.528-1.713"/><path stroke-width=".754" d="M189.686 80.294c1.444.237 2.632-.666 3.955-.988"/><path stroke-width=".606" d="M193.641 79.306c.257-.555.035-1.327-.264-1.844"/><path stroke-width=".805" d="M190.083 81.677c1.329-.23 2.684-.275 3.954-.791"/><path stroke-width=".686" d="M194.037 80.886c.222-.482.037-.933-.396-1.582"/><path stroke-width=".699" d="M190.476 83.257c1.328-.275 2.686-.475 3.956-.988"/><path stroke-width=".439" d="M194.433 82.27c.022-.534-.181-.942-.396-1.383"/><path stroke-width=".581" d="M190.675 84.74c1.256-.505 2.608-.567 3.891-.956"/><path stroke-width=".771" d="M194.565 83.784c.037-.481.233-1.122-.133-1.515"/><path stroke-width=".774" d="M218.169 90.766c.926 2.857 2.93 5.11 5.242 7.015"/><path stroke-width=".624" d="M238.937 97.682c3.873-3.106 4.584-10.476 1.204-13.785-2.418-.476-4.938-.18-7.327-.822-5.658.207-12.557 1.683-14.645 7.69"/><path stroke-width=".726" d="M190.871 86.419c1.396-.183 2.727-.651 4.056-.988"/><path stroke-width=".65" d="M194.927 85.431c.22-.557-.042-1.19-.363-1.646"/><path stroke-width=".589" d="M191.168 88.198c1.493-.352 2.935-.773 4.252-1.582"/><path stroke-width=".6" d="M195.42 86.616c-.234-.48-.355-.851-.493-1.186"/><path stroke-width=".688" d="M191.168 89.383c1.676.371 3.046-.524 4.583-.856"/><path stroke-width=".621" d="M195.752 88.526c.108-.635-.09-1.327-.332-1.91M191.268 90.567c1.604.384 3.239-.447 4.881-.461"/><path stroke-width=".558" d="M196.148 90.106c-.015-.512-.084-1.133-.394-1.581"/><path stroke-width=".76" d="M170.693 116.452c-.316-.748-.148-1.583-.197-2.371"/><path stroke-width=".73" d="M162.718 111.776c1.447 3.027 3.057 6.13 6.395 7.443"/><path stroke-width=".527" d="M177.026 114.278c.809 3.264.781 7.158 3.064 9.781"/><path stroke-width=".583" d="M180.091 124.06c.273-2.481-1.099-5.116-1.484-7.604"/><path stroke-width="1.258" d="M180.091 124.06c.317 1.448.907 2.813 1.286 4.251"/><path stroke-width=".572" d="M181.377 128.309c1.129.257 1.154 1.502 1.583 2.37"/><path stroke-width=".76" d="M177.026 114.278a4.395 4.395 0 0 0-1.583.198"/><path stroke-width=".42" d="M178.212 126.332c.113-1.374-.555-2.514-.987-3.754"/><path stroke-width=".76" d="M181.279 130.877a4.782 4.782 0 0 0 1.681-.198"/><path stroke-width=".603" d="M181.377 128.309c-.704.722-.23 1.732-.1 2.568"/><path stroke-width=".686" d="M181.279 130.877c-.068.325-.729 1.001-1.088 1.383"/><path stroke-width=".541" d="M216.589 152.413c.038.113.078.224.118.337 5.977-.514 11.654-4.057 16.889-7.055"/><path stroke-width=".603" d="M272.269 138.878c-1.142 2.396-1.627 5.54-2.372 8.2"/><path stroke-width=".517" d="M244.016 164.401c.127.111.254.215.386.323 4.902-.234 6.364-5.921 8.781-9.348"/><path stroke-width=".528" d="M254.566 149.251c-.899-2.093-2.999-2.671-4.441-4.258a4.642 4.642 0 0 0-1.435-.026c-3.767 2.801-8.369 5.538-9.289 10.409 2.642 2.045 4.654 5.642 4.616 9.025"/><path stroke-width=".641" d="M254.566 149.251c-.526 2.051-1.035 4.059-1.386 6.126"/><path stroke-width=".748" d="M256.544 146.485c-.934.739-1.035 2.039-1.978 2.766"/><path stroke-width=".483" d="M123.223 191.931c.356 1.158 1.676 1.494 2.129 2.553.206.805-.794 1.134-.943 1.79"/><path stroke-width=".448" d="M125.596 114.477c-5.298-6.859-9.759-14.836-10.286-23.711"/><path stroke-width=".621" d="M192.06 123.17a8.046 8.046 0 0 0 .201-3.754"/><path stroke-width=".451" d="M97.311 163.28c.353-.173.606-.446.905-.682.066-.448-.226-.976-.312-1.492"/><path stroke-width=".502" d="M102.65 171.383c.047.069.094.131.141.197.044.134.02.266-.007.396-.37.219-1.143.116-1.596.317-.241.179-.461.299-.58.482.033.158.045.38.058.604.14.246.317.465.432.742.056.072.112.156.168.228"/><path stroke-width=".491" d="M93.947 172.37c.067.021.134.037.203.058 1.83 1.065.625 3.117 1.866 4.397.905.181 1.958-.442 2.589.575.18 1.272.048 2.576.089 3.862"/><path stroke-width=".553" d="M116.102 239.747c.079.07.159.142.237.208.246.22.511.323.74.42 11.688-.924 24.598 1.691 36.939 2.596 5.521.406 12.169 1.6 15.583-4.318 4.415-.263 4.479-5.462 7.293-7.731"/><path stroke-width=".439" d="M176.895 230.922c-.301-.184-.689-.2-1.056-.263"/><path stroke-width=".595" d="M176.895 230.922c3.522-1.835 4.745-7.077 8.438-8.957"/><path stroke-width=".717" d="M185.333 221.965c.223-.513.425-1.032.597-1.561.501-.454 1.355-.189 1.976-.118"/><path stroke-width=".636" d="M187.904 220.284c.867-.355 1.091-1.547 1.255-2.405"/><path stroke-width=".568" d="M189.159 217.883c-.991-.491-1.424-1.558-1.999-2.428.288-.154.827-.207 1.062-.425-.158-.744-.106-1.925-.911-2.28-.968.443-1.948-.705-2.872.022-.068.208-.107.479-.145.688.145.896.767 1.621 1.352 2.274.068.241.011.42-.047.594-.187.108-.339.2-.483.293-.754-.114-1.51-.174-2.152-.575"/><path stroke-width=".608" d="M189.159 217.883c1.173-1.271 2.32-2.639 4.088-3.423"/><path stroke-width=".461" d="M193.247 214.457c.397-.821.65-1.666.89-2.555-.461-1.157-1.503-2.138-1.68-3.374"/><path stroke-width=".478" d="M193.247 214.457c2.221.193 2.458-2.715 4.241-3.273.127-.136.271-.255.415-.374.05-.225.068-.469.08-.711-1.908-2.625-2.177-7.192-6.317-7.304"/><path stroke-width=".595" d="M46.079 239.551c23.175-.078 47.035 2.064 70.023.196"/><path stroke-width=".542" d="M116.102 239.747l-.266-.268c-4.092-1.442-6.683-4.112-10.694-7.355-1.299-1.049-2.31-1.999-3.189-3.136-3.077-3.975-6.093-8.443-9.097-12.254-4.624-5.867-5.111-14.037-7.527-20.933-2.041-5.825-.853-9.338-.996-15.205-.063-2.581-.24-3.461.912-5.655"/><path stroke-width=".507" d="M185.333 221.965l.334.137c1.054.024 2.06-.777 2.237-1.815"/><path stroke-width=".502" d="M97.508 190.746c1.303 1.654 2.008 3.484 1.979 5.532"/><path stroke-width=".414" d="M118.081 196.673c-.093-.038-.185-.078-.277-.118-.404-1.004.427-2.149 1.464-2.252"/><path stroke-width=".393" d="M162.386 195.487c-.026.928.911 1.557 1.189 2.37"/><path stroke-width=".513" d="M111.749 199.045c.15-.941 1.315-.621 1.75-1.211-.059-.59-.332-1.05-.563-1.556"/><path stroke-width=".462" d="M272.764 196.673c1.872 2.305 3.892 4.388 5.735 6.719"/><path stroke-width=".641" d="M278.499 203.392c30.826-1.791 61.992-3.117 92.377 1.384"/><path stroke-width=".485" d="M278.499 203.392c.528 2.039 2.049 3.584 2.374 5.729"/><path stroke-width=".471" d="M91.178 203.392l-.279-.121c-.397-1.338 1.095-1.675 2.105-1.422.236-.144.358-.318.476-.493-.621-1.479-2.695-1.868-3.092-3.495"/><path stroke-width=".439" d="M139.442 197.857c.216.048.309.22.396.393"/><path stroke-width=".427" d="M134.3 202.601c.419.022.764-.026 1.069-.122.57-.855-.269-1.95-1.069-2.248"/><path stroke-width=".438" d="M105.024 204.576c.355-.688 1.157-1.042 1.858-1.295.105-.346.064-.676-.001-.961-.223-.305-.569-.49-.856-.664-.069-.017-.139-.027-.209-.048"/><path stroke-width=".43" d="M121.64 204.576c-.09-.038-.181-.078-.271-.118-.181-.524-.561-1.268-.394-1.739.128-.131.245-.275.362-.422.657-.032 1.19-.179 1.095-.484"/><path stroke-width=".47" d="M96.716 201.811c.359 1.322 1.447 2.194 2.286 3.249.21.685.135 1.715-.703 1.888"/><path stroke-width=".526" d="M216.189 242.909c52.133 2.254 103.717 3.101 155.873 3.951"/><path stroke-width=".636" d="M167.928 243.502c15.923.907 32.285.044 48.265-.593"/><path stroke-width=".541" d="M216.189 242.909c-4.847-6.71-7.705-14.474-5.222-24.187 1.602-6.26 4.172-10.194.478-15.728"/><path stroke-width=".418" d="M168.322 211.69l-.28-.119a4.575 4.575 0 0 1-.603-1.247c2.839-.161 2.584-3.059 1.674-4.957"/><path stroke-width=".337" d="M116.893 205.763c.363.644.98 1.202 1.583 1.581"/><path stroke-width=".444" d="M113.53 208.332c.545 1.837 2.858 2.949 2.769 5.335"/><path stroke-width=".638" d="M134.102 208.528l.143-.143c1.249-.219 2.714-.069 3.22 1.327"/><path stroke-width=".393" d="M142.607 208.925c.298.228.708.347 1.187.395M110.563 212.085c.362.522.641.755.792 1.186"/><path stroke-width=".439" d="M175.443 214.852h3.163"/><path stroke-width=".429" d="M173.268 217.025c.396.978 1.053 1.867 1.978 2.37"/><path stroke-width=".507" d="M172.279 216.827c.406-.011.699.091.988.198"/><path stroke-width=".439" d="M173.268 217.025c.972-.276 2.138-1.08 2.177-2.174"/><path stroke-width=".384" d="M175.443 214.852c-.651-.24-1.064-.922-1.188-1.581"/><path stroke-width=".439" d="M162.784 216.433c.201-.589.97-.847.793-1.581"/><path stroke-width=".411" d="M144.586 215.247c.171.362.713.64 1.186.791"/><path stroke-width=".365" d="M180.982 215.643c.562.769 1.18 1.534 1.586 2.366"/><path stroke-width=".435" d="M154.674 221.372c.279-.114.612-.175.876-.312.328-.426.443-.949.508-1.465"/><path stroke-width=".441" d="M168.916 219.593c.505 2.11 1.857 3.649 2.878 5.536-.086.251-.241.481-.308.787"/><path stroke-width=".621" d="M139.046 220.779c.471-.084.515-.355.593-.592"/><path stroke-width=".468" d="M120.058 223.743c.689-.135 1.248-.427 1.865-.706.259-.674.141-1.695-.678-1.862"/><path stroke-width=".564" d="M174.058 221.372c1.241 1.002 1.883 2.114.808 3.354.034.212.16.47.289.693.338.077.61.148.863.198.705-.422 1.749-.33 1.797.699"/><path stroke-width=".358" d="M137.069 222.757c.166.361.415.638.791.79"/><path stroke-width=".469" d="M167.136 226.312c-.067-.046-.133-.094-.198-.141-.556-.189-.687.614-1.079.849-.78.189-1.54-.398-1.799-1.109.064-.268.252-.461.396-.692.218-.043.457-.068.698-.092"/><path stroke-width=".452" d="M107.793 230.264c1.199-.262 2.091-1.857 1.781-2.965"/><path stroke-width=".461" d="M133.508 229.473c-.374-.177-.655-.724-.701-1.131.071-.17.22-.279.373-.386.109-.023.22-.043.328-.067"/><path stroke-width=".429" d="M114.717 227.695c.537.227.857.718 1.295 1.077.322.999-.44 2.659.879 3.071"/><path stroke-width=".416" d="M127.179 229.473c-.941.355-1.126 2.134 0 2.367"/><path stroke-width=".536" d="M145.376 238.168c.185-.343.734-.32 1.071-.515.153-.256.243-.453.3-.667-.965-1.896-3.088-2.611-4.733-3.562"/><path stroke-width=".401" d="M167.529 235.796c-.14-.254-.307-.482-.394-.79"/></g><path fill="none" stroke="#231F20" stroke-width=".5" d="M305.785 21.302l13.765-4.207"/><path fill="#231F20" d="M324.538 15.572l-7.411-.39 1.481 4.855z"/></svg>